<?xml version="1.0" encoding="UTF-8"?>
<svg id="Layer_2" data-name="Layer 2" xmlns="http://www.w3.org/2000/svg" viewBox="0 0 108.07 98.21">
  <defs>
    <style>
      .cls-1 {
        fill-rule: evenodd;
      }
    </style>
  </defs>
  <g id="food_icons" data-name="food icons">
    <g id="alcohol">
      <path class="cls-1" d="M81.32,83.44c-.12-.16-.26-.3-.42-.42-.03.11.24.31.42.42ZM107.42,19.26c-.83-.42-2.31.04-3.2.05-.94.01-1.35-.34-2.22-.54-.86-.2-1-1.41-1.99-1.04-.18.07-1.06.72-1.23.25,1.76-3.19,2.35-7.29,3.66-10.7.56-1.46,3.16-4.62,2.91-6.58-.17-.22-.39-.63-.17-.58-1.71-.4-1.92.05-2.86,1.57-2.67,4.31-3.82,9.03-5.43,13.75-.34.99-.74,1.96-1.3,2.85-1.35.12-2.71.26-4.06.41-2.65.3-5.29.64-7.94,1.01-5.4.76-11.16,2.41-16.6,2.41-4.11,0-8.79.92-12.19,3.45-1.38,1.04-1.78,3.56-.16,4.72,1.59,1.13.27,2.67,1.86,4.1,3.48,3.1,6.93,6.38,10.53,9.32,2.12,1.73,4.26,3.44,6.19,5.38,1.57,1.58,2.76,3.74,4.2,5.07.96.89,1.89,2.44,3.4,2.62,1.9.22,1.02,4.19,1.02,5.67,0,4.91-.24,9.78-.27,14.7,0,1.01-.05,2.03-.2,3.04-.23,1.53-1.43.91-2.73.91-2.67,0-4.85.5-7.37,1.39-2.47.88-7.79,2.77-8.25,5.98-.31,2.1,2.23,2.51,3.81,2.78,2.07.36,3.7,1.61,5.75,1.97,2.52.27,4.68-.65,7.18-.27,2.28.34,4.34.31,6.55-.38,3.44-1.08,9.24-1.04,11.21-4.76.96-1.25,3.33-.95,3.52-2.87-.41-1.81-2.28-2.28-3.8-2.71-1.98-.57-3.25-1.31-5.42-1.06-1.96.22-3.83.87-5.8.91.17-8.62-.77-17.21-.64-25.82,3.9.69,8.8-8.66,10.3-11.47,2.41-4.52,4.8-8.82,8.46-12.5.98-.99,1.97-1.99,2.74-3.16.75-1.11.3-1.72.59-2.93.55-2.31,1.07-4.63-.04-6.92ZM55.32,26.91c1.1.82-1.64.77,0,0h0ZM99.11,21.49c-.42.64-1.05,1.08-1.92,1.28-.29-1.36.77-1.36,1.92-1.28ZM64.22,24.32c1.46-1.26,3.76-1.29,5.63-1.4,3.02-.18,10.43-1.57,12.32.81-.38-.47,3.84-.84,0,0,4-.88,8.06-1.51,12.15-1.91-.34,2.22-1.12,3.03-3.21,3.56-1.51.38-3.06.61-4.62.71-3.24.23-6.38-.33-9.44.51-3.57-.09-7.16.16-10.68.83-1.45.27-2.69.92-3.86-.19-.87-.82-1.46.22-2.4,0,.17-1.99,2.87-1.84,4.11-2.91ZM62.35,35.52c-.67-.53.03-1.7-.64-2.23-.67-1.68-2.58-2.42-3.2-4.14,3.35.98,7.04.6,10.48.61,4.02,0,8.02.35,12.06.35h6.88c1.05.09,3.59-1.3,3.17.61-.18.85-1.24,5.41-3.06,4.08-.2-.15.88-.91.86-1.19-2.77-.21-5.38.66-8.15.46-2.97-.21-5.97-.27-8.94-.05-2.72.2-4.22,1.09-6.62,1.99-1.46.55-1.74-.52-2.83-.48ZM79.93,36.16c-1.15,1.51-8.34.85-9.91.32.99-.84,2.84-.26,4.13-.3.21-.08,1.51-.34.35-.02,1.71-.48,3.72-.48,5.43,0ZM87.84,83.98c1.55,0,6.54-1.01,6.48,1.59-.28,1.58-4.66,2.2-5.79,2.52-2.96.83-6.76.62-9.88.7-2.87.07-5.77-.03-8.63-.34-.43-2.72,1.64-3.36,3.84-3.83,1.08-.66,6.84-.92,7.03-1.59.77.53.66.55.42.42.93,1.23.63,3.51,2.77,3.41,2.89.05,1.22-2.87,3.76-2.87ZM94.55,38.88c-1.18,2.21-2.15,4.57-3.75,6.53,2.2-2.69-1.37,3.52,0,0-1.04,2.69-3.11,4.75-4.51,7.23-1.09,1.94-.67,2-2.94,1.6-1.13-.2-2.27-.29-3.42-.22.07-.85.16-2.29-.96-2.55.53-.86,2.84-.81,3.74-1.43,1.2-.83,2.64-2.23,2.87-3.69.6-3.79-.97-6.36-4.93-5.48-.91.21-7.25,2.34-5.98,3.88.99,1.19,1.74-.37,2.7-.93,1.48-.02,2.65-1.04,4.16-.96-.42.97-1.13,2.29-.11,3.13,1.12.92.59,1.19-.53,1.66-2.93,1.23-3.8-1.68-5.64-1.62-1.19.04-3.63-2.54-4.34-3.43-.65-.81-1.79-1.46-2.59-2.27-.74-.74-1.56-1.4-2.47-1.94.56-.8,3.46.21,4.35.29,2.09.17,4.11.35,6.26.35,4.27,0,8.16-1.95,12.41-1.91-.3,1.32-.82,2.43-.64,3.82,1.14.26,1.33-.45,1.85-1.22,1.3-1.92,1.57-3.35,4.26-3.74.68-.1,1.77-1,1.89.18-.64.85-1.18,1.78-1.69,2.72ZM92.72,33.93c.14-.62.68-.9.64-1.59,1.79,0,3.69.17,5.43-.32-.43,2.35-4.45,1.41-6.07,1.91ZM104.73,25.16c-.32,1.19-1.67,1.97-1.78,3.34-.94.38-1.71,1.05-2.24,1.91-.8.1-1.6.19-2.4.27-1.55.16-3.12.32-4.64.69.6-2.4,1.52-3.27,3.84-4.14.63-.46,1.45-.56,2.08-1.03,1.07-.8.23-.21,1.44-.24-.37.01.63-.42.34-.21,1.04-.64,3.83-2.33,3.36-.58ZM93.36,32.33c.05.79,1.93,0,0,0h0ZM101.03,25.96c.18-.1.28-.17.34-.21-.16.1-.28.18-.34.21ZM105.18.14c.1.18.14.37.17.58.17.22.28.25-.17-.58ZM61.71,33.29c.54.43-.7-1.74,0,0h0ZM74.5,36.16c-.11.02-.23.02-.35.02-.08.03-.01.03.35-.02ZM31.66,60.7c.79.28,3.85-3.6,0,0h0ZM39.97,24.05c-5.78,4.22.32,0,0,0h0ZM39.65,16.71c-5.17,1.43.51.03,0,0h0ZM40.1,84.56c-3.48-3.01-9.31-2.54-13.56-1.86.12-3.21-.21-6.41-.43-9.62-.12-1.77-.21-3.55-.13-5.33.07-1.56-.42-2.55,1.33-2.52,1.93.04,3.9-.42,5.31-1.81,2.02-1.99.95-2.05-.96-2.72,9.88-9.25,14.76-23.92,13.76-37.11-.13-1.76.41-5.63-.67-6.77-.74-.78-1.64-1.41-2.21-2.34-1.08.02-2.14-.13-3.17-.43-1.75-.5-3.6-1.67-5.48-1.51-2.34.21-4.71.45-7.07.64-8.28.69-16.21,1.3-23.49,5.54C-1.39,21.46.12,25.92.68,30.49c.58,4.77,1.77,9.42,2.9,14.09,1.06,4.39,2.01,9.16,4.27,13.13.93,1.64,2.22,3.66,4.23,3.86,1.4.14,1.82-.54,2.83.43.62.59,1.43.93,2.2,1.31,1.37.68,2.98,1.55,4.47,1.57,2.01.03,1.18,3.16,1.17,4.61-.03,2.55-.17,5.1-.27,7.66-.05,1.28-.09,2.57-.11,3.85-.02,1.72.62,2.43-1.18,3.02-3.77,1.22-8.43,2.68-11.22,5.69-2.01,2.16.26,4.26,1.8,5.79,3.25,3.24,10.48,2.88,14.74,2.36,4.04-.49,8.84-1.32,11.96-4.06,2.83-2.48,5.18-6.17,1.61-9.25ZM23.21,18.76c5.45-.79,11.1-.57,16.44-2.05,4.11.21-2.11,4.03-3.18,4.53-3.72,1.74-7.12,3.12-11.18,4.02-4.14.92-9.25,2.41-13.46,1.1-1.79-.55-6.2-2.12-6.7-4.23,6.02-1.57,11.95-2.48,18.08-3.37ZM12.48,49.23c-.17-.16.23-.41.32-.32.17.17-.23.41-.32.32ZM14.4,54.65c.06-.36.32-.18.32,0-.06.36-.32.18-.32,0ZM17.42,47.51c.09.38-3.97-.7-4.94.44-1.38-1.74-1.11-3.98-1.28-6.06,2.38.05,5-.06,7.28-.51,2.63-.51,5.32-.76,7.94-1.38.41-.1,4.56-1.89,3.33-1.94.05-.38,1.43-.52,1.73-1.25.48-1.15.07-1.79-1.24-1.55-1.8.34-4.65.16-6.25,1.21-2.14.27-4.25.73-6.38,1.08-1.09.18-2.04,1.04-2.89,1.15-1.97-.3-5.61,1.21-6.71,2.87-.89-1.25-1.16-3.03-1.17-4.53,0-1.11.8-2.29-.65-2.14-1.25.13-1.74-6.72-1.7-7.68,3.14,1.3,5.74,3.36,9.23,3.47,3.31.1,6.16.03,9.48-.56,5.84-1.02,11.92-2.56,16.78-6.1h.96c-.29,2.61-.51,5.22-.9,7.82-.42,2.82-.21,4.25-3.26,3.34-.54,6.45-1.25,13.39-4.42,19.16-1.11,2.03-3.06,4.15-5.44,2.63-1.4-.9-.38-6.13.88-7.17,1.26-1.04,1.85-.95,2.3-2.48.28-.95.68-2.19-.85-1.71-1.65.52-4.47.13-5.9,1.04-.51,0-6.19-.35-5.93.84ZM25.91,60.39c-.57.09-.66-.3-.32-.32.17-.49.33-.02.32.32ZM27.43,93.53c-2.74.43-5.47.33-8.24.33-2.41-.45-4.95-1.91-7.35-1.91.03.38-.47.2,0,0-.47.2-.06-.32,0,0-.26-1.42,9.04-4.18,10.23-4.46.39,1.44.7,4.52,3.01,3.67,1.85-.68,1.56-3.42,1.47-4.95,3.51-.21,9.5-1.98,12.15,1.28,0,4.3-8.28,5.58-11.26,6.04ZM61.68,68.91c.22.03.44.05.66.08-.26-.04-.48-.06-.66-.08ZM57.44,77.15c-.09.05-.16.1-.21.13-.59.45.12-.06.21-.13ZM52.12,73.46c-1.33.58,1.92,0,0,0h0ZM58.51,85.89c-.07-.25,0,2.02,0,0h0ZM62.35,68.99c.64.85-3.23-.36-.66-.08-3.52-.45-7.22-.49-10.71.05-1.77.27-7.84,3.46-7.15,5.83.54,1.84,0,2.08-.38,4.04-.34,1.83-.28,3.72-.28,5.57,0,2,.8,3.81,1.7,5.58.66,1.3.19,3.58,1.79,4.31,1.07.49,1.64,0,2.6.77.78.63,1.64,1.16,2.56,1.54,1.04.44,3.81,1.27,4.67.07.79-1.11-.44-2.05,1.27-2.55,1.48-.44,2.21,0,3.62-.92,1.98-1.31,1.56-9.85,1.76-12.39.28-3.48,1.52-8.77-.79-11.82ZM52.12,73.46c.93,0,7.14-.56,5.54,1.12-1.11,1.16-2.23,1.74-3.76,1.75-1.7.02-4.25.34-5.61-.96.48-1.52,2.64-1.39,3.84-1.91ZM49.81,84.95c-.09.09-.17.19-.25.3.1-.15.18-.25.25-.3.74-.8,1.91-.91,2.95-.65,0,1.27-2.13,1.86-3.09,1.03.32.15.47-.68.14-.38ZM58.51,91.95c-2.2-1.16-4.35.82-6.49.17-1.78-.54-2.29-2.29-2.22-3.98.07-2.04,3.99-.22,5.55-1.17.44-.27,2.85-2.15,3.16-1.07v6.06ZM59.15,82.38c-.75-.14-1.19-.7-1.83-1.04-.98-.52-2.43-.23-3.5-.23-1.73,0-3.15.5-4.26,1.91-.62-1.17-.86-2.52-.96-3.83,3.57,0,5.76.29,8.63-1.91.19-.13.24-.16.21-.13.7-.43,2.61-1.49,2.67-.83-.36,2.01-.63,4.04-.96,6.06ZM53.08,88.12c.3.09.49.22.61.38.02-.1-.12-.24-.61-.38ZM53.08,88.12c-.31,1.33-2.46,1.69,0,2.55.52-.57,1.1-1.57.61-2.17-.05.19-.75.2-.61-.38ZM51.16,88.44c.37.05-.07.45,0,0-.19.33-.41.65-.64.96.78,0,1.56-.83.64-.96ZM55.96,89.08c.21,0-.02.19,0,0-.25,2.69,1.87,0,0,0Z"/>
    </g>
  </g>
</svg>