<?xml version="1.0" encoding="UTF-8"?>
<svg id="Layer_2" data-name="Layer 2" xmlns="http://www.w3.org/2000/svg" viewBox="0 0 88.75 87.14">
  <defs>
    <style>
      .cls-1 {
        fill-rule: evenodd;
      }
    </style>
  </defs>
  <g id="food_icons" data-name="food icons">
    <g id="apple">
      <path class="cls-1" d="M88.32,33.94c-.98-4.63-2.79-9.05-3.28-13.79-4.32-8.26-10.57-14.18-20.05-15.98-5.32-1.01-10.59-.85-15.68,1.06-2.1.79-3.77,1.82-5.6,3.1-1.33.93-2.57,2.83-4.1,3.42,1.07-.6-1.1-2.24-.27.11-1.08-3.06-4.12-6.62-6.39-8.93-.86-.34-.79-1.55-1.15-2.25-.6-1.2-2.39-.52-3.32-.29-6.97,1.73,5.42,9.29,5.62,12.27-.02-.37-10.77-.14-11.82-.15-4.06-.03-8.46.73-12.04,2.69C3.43,18.94,0,28.87,0,36.22,0,46.11,4.16,56.57,9.38,64.84c1.54,2.44,3.16,4.83,4.69,7.28,1.9,1.59,3.77,3.21,5.67,4.8,3.67,3.06,7.33,6.49,12.14,7.29,2.6.43,4.66.54,7-.41,1.4-.56,2.25-1.61,3.39-2.55,2.46-2.01,7.58,4.99,10.3,5.39,2.81.41,5.65.59,8.49.46,1.34-.93,3.27-1.54,4.74-2.22,4.1-1.91,7.59-6.33,9.66-10.13,2.38-4.35,5.99-8.12,7.65-12.83,2.63-3.57,2.92-8.34,3.93-12.5,1.21-4.94,2.35-10.39,1.27-15.47ZM29.41,2.94c0-1.5,1.5,0,0,0h0ZM13.43,52.99c-.17.99-1.04,1.6-1.28,2.55-1.12-.97-1.1-2.66-1.92-3.83.81-.89,3.38.22,3.2,1.28ZM32.93,77.21c-.17-.17.23-.41.32-.32.17.16-.23.41-.32.32ZM33.25,75.3c.42-1.5,2.02-1.81,3.52-2.23.17,2.08-2.27,1.55-3.52,2.23ZM82.36,53.19c-.59,1.82-1.31,3.6-2.24,5.28-1.03,1.85-1.41,3.4-1.99,5.44-.99,3.54-2.54,6.97-4.93,9.8-3.94,6.11-10.67,8.15-17.55,8.32-2.65.06-2.79-.7-4.83-1.95.54-1.86,1.42-.67.39-2.62-.85-1.6-3.02,2.66-4.12-.67-.33-1.01-.16-2.8-1.66-2.4-.72.19-1.21.79-1.97.91.17.6.07,1.14-.29,1.62-1.25,1.2-1.34-.95-2.26-.98-1.06.31-2.03.91-2.56,1.91-.81.06.38-2.52-2.04-1.4-.87.41-1.45,1.22-2.44,1.4-.38-1.92,3.15-2.13,4.48-2.55,1-.46,4.83-2.32,4.79-3.51,1.21.1,1.46,1.32,2.88.96-.25,1.86,1.41,2.24,2.8,1.41.6-.36,1.56-2.84,2.05-1.71.96,2.25,2.93-2.9,2.19-4.47-1.18.21-3.82,4.66-3.87,1.12-.01-.98.25-2.11-.04-3.07-.19-.63-1.11-.31-1.09-.11-.15-1.8,1.1-4.01.2-5.91-1.35.04-2.96-.7-2.87,1.6-2.52-1.12-3.08,3.21-2.67,4.73.42,1.59,1.97,1.56,1.07,3.43-.39.81-.54.67-1.13.07-.7-.71-2.22.04-3.02.23-3.4.78-6.61,2.45-9.92,3.65.07-1.2.45-1.79,1.6-2.23.39-.99.8-2.16,1.92-2.55-1.79-1.48-4.11.93-4.55-1.51-.35-1.94-3.63,1.17-4.08,1.38-.29.13-.44-1.44.79-1.62,1.08-.17,1.9-.65,2.8-1.29,3.43-2.46-1.42-1.82-.71-3.64-2.05-.23-3.75.98-5.76.96.27-1.23,2.51-3.79,1.29-4.96-1.14-1.09-2.76-.36-3.21,1.13-.77-.28.95-4.14-1.68-2-1.34,1.09-1.38,3.11-2.15,4.55-3.06-.34,1.02-5.83,1.54-6.86.49-.95.85-1.96,1.02-3.03.69-.12,1.37-.3,2.03-.52.52-.18,4.1-2.24,2.3-2.94-1.1-.42-2.9.6-3.97.79-1.87.33-3.55.43-5.49.43-2.79-.36-5.21-2.1-4.79-5.1,1.13.62,2.5,1.37,3.85,1.07,1.33-.29,1.13-1.49-.02-1.39,1.1-1.2,3.4-.42,4.8-.96-.66-1.19-5.2-.93-6.45-.95-.8-.01-1.98-.05-2.37-.92,0,.02-.44-1.39-.14-.69-.19-.46,1.47.13,0,0,2.32.21,3.77,1.22,6.19.59,1.86-.48,2.99-1.33.52-1.76-1.53-.26-3.15-1.04-4.79-1.07-.05-.06-3.11-2.76-1.99-2.89.92-.1,3.81.12,4.62.57,1.52.85,4.69-1.56,2.67-3.09-.86-.66-2.05-.76-3.07-.97-.87-.73-1.74-1.46-2.63-2.16-1.76-1.37-1.73-1.2-1.5-3.35.12-1.21.26-1.39.59-2.49.47-1.53,1.21-2.66,2.21-3.86.3-.35.42-.76.37-1.22.71-.28,1.42-.58,2.11-.9,1.04-.48,2.09-.96,3.17-1.34,2.64-.91,5.56-.74,8.33-.9,2.49-.14,5.44.68,7.81.28,1.9.03,1.48-1.83,3.2.32.26,1.23,3.44,3.79.41,4.12-1.66.18-6.14-1.92-5.84,1.3.52,1.73,2.88,1.69,4.33,1.77,3.41.19,11.44,1.84,12.94-2.64,2.09-6.21-4.98.69-7.36-.72.33-1.34,1.27-3.16.32-4.46.16-.69,2.92-1.69,3.56-2.16,2.87-2.09,5.86-4.01,9.34-4.91,3.5-.91,7.22.32,10.75-.58,2.92.85,5.1,3.51,7.66,4.95,2.89,1.62,5.39,4.58,6.86,7.51,1.62,3.24,3.51,6.38,4.45,9.9,1.94,7.21,1.11,15.43-1.19,22.47ZM12.15,55.54c.33-1.27-1.02-.89,0,0h0ZM29.41,2.94c.21,0,0-.21,0,0h0ZM66.49,19.83c.25.04.52.14.78.28-.09-.1-.32-.21-.78-.28ZM67.28,20.11c.35.38-1.23.77-.78-.28-.74,1.72-.94,6.35,2.03,5.47,2.73-.81.69-4.16-1.25-5.19ZM14.05,20.34c.03.22-1.1.48-.94-.19-.44,1.88,2.05,3.33,3.72,2.77,2.21-.73-1-2.08-2.78-2.58ZM13.11,20.15c.17,0,.51.07.94.19-.01-.1-.25-.19-.94-.19ZM13.99,29.74c.05.09.25-.03.72-.66-.22.29-.46.5-.72.66ZM14.65,28.91c-.56-1.57-4.79-5.85-5.34-2.83-.44,2.37,2.61,4.95,4.68,3.65-.09-.18.44-1.22.66-.83ZM65.86,27.48c-3.49-.63-2.73,4-1.6,5.42,4,.74,2.91-3.99,1.6-5.42ZM61.06,28.44c.37.59-.81.33-1.27.1-1.3.57-.83,2.74,0,3.98.88,1.32,1.5.18,2.54-.26.2-1.57-.48-2.57-1.28-3.83ZM61.06,28.44c-1.53-.24-1.61-.08-1.27.1.31-.14.73-.19,1.27-.1ZM56.98,32.57c-1.39-.01-2.89,1.03-1.47,2.41,1.81,1.76,2.87-.68,1.79-2.27.25.48-1.05-.12-.32-.14ZM70.97,35.45c-2.78.16-1.59,5,1.6,4.46.56-1.45,1.41-1.61.6-3.47-.17-.38-1.78-1.86-2.2-.99ZM70.97,35.45c.45-.93-1.31.08,0,0h0ZM44.14,41.34c0,.19-.01.36-.02.49.03-.31.03-.44.02-.49ZM46.67,45.01c-.48.33-.46,1.15-.97,1.44.09-.05.36-3.96.01-4.63-.37,0-1.88.21-1.92,0h.32c-.08,0,.01-.62.02-.49.03-1.19-.16-3.17-1.59-2.64-.43.16-1.49,1.67-1.95,1.22,1.13-1.06-.31-3.49-1.18-1.11-.49,1.33-2.01,2.56-2.7,3.88-.69,1.32-3.4,4.09-1.79,5.44,1.37,1.14,2.23-.11,3.44-.88-.25,1.1.43,2.12,1.58,1.96.98-.14,1.32-1.02,1.94-1.64-.13,2.55,1.51,1.46,2.02,3.01.48,1.46,1.49.79,2.46.82.18-1.65,2.46-5.2.32-6.38ZM56.5,40.63c-1.43.43-1.35,2.54.08,2.16,1.42-.5.68-1.51.32-2.23.1.21-.45.15-.4.07ZM56.5,40.63c.12-.04.26-.07.4-.07-.28.02-.38.05-.4.07ZM66.81,44.06c.01.09.01.18.02.27,0-.04,0-.13-.02-.27ZM66.61,43.72c.07.11.14.22.2.34-.13-.31-.18-.38-.2-.34ZM66.83,44.33c-.02.21-.24-.52-.22-.61-.62-.92-1.85-1.19-2.68-1.89-.45,1.56-3.73,3.26-.94,4.99,2.24,1.4,3.97-.26,3.83-2.49ZM66.81,75.94c.25-.07.63,0,.64-.32-.25.07-.63,0-.64.32ZM53.71,79.44c.07.38.35.2.64,0,0-.32-.56-.4-.64,0Z"/>
    </g>
  </g>
</svg>