<?xml version="1.0" encoding="UTF-8"?>
<svg id="Layer_2" data-name="Layer 2" xmlns="http://www.w3.org/2000/svg" viewBox="0 0 91.11 100.24">
  <defs>
    <style>
      .cls-1 {
        fill-rule: evenodd;
      }
    </style>
  </defs>
  <g id="food_icons" data-name="food icons">
    <g id="apricot">
      <path class="cls-1" d="M41.85,22.64s0,.05,0,.05c0-.02,0-.04.02-.05,0,0-.02,0-.02,0ZM38.02,94.41c-.56.09.96,0,0,0h0ZM91.03,29.67c-.43-1.83-2.45-3.58-3.34-5.19-1.16-2.1-2.38-4.2-3.6-6.25-1.29-2.18-2.72-4.27-3.92-6.5-1.11-2.06-3.24-3.47-4.75-5.29-2-.46-3.52-2.24-5.23-3.26-1.74-1.03-2.93-1.67-4.88-2.27-2.04-.63-4.04-1.05-6.19-.85-2.02.58-2.98,1.46-5.13,1.42-2.54-.04-1.03,2.31-.89,3.52.18,1.55-.21,4.42-.69,5.81-.61,1.74-1.16,3.33-2.27,4.87-.89,1.22-2.37,1.82-2.52,3.5.95.35,5.42-.46,5.31-1.77.04.48-.49,1.46.13,2.09.21-.03.79.08,1.06.29-.97-.68-6.4.49-7.22.8-.54.2-3.93,1.7-5.01,2.04,0,.02-.01.03-.02.06h-.19c-.08.02-.13.02-.13,0h.13s.11-.03.18-.05c.01-.08.07-.24.13-.4.18-.94-.35-1.61-1.12-2.24-.94-.76-1.57-.25-2.71-.05-2.35.42-4.74.58-7.13.54-2.35-.04-4.76,1.03-7.08,1.55-1.61,1.55-3.53,2.72-5.43,3.88-2.16,1.31-3.58,4.3-5.41,6.15-.83.84-1.7,1.64-2.59,2.41-.07.88-.41,1.66-.91,2.38-1.97,2.81-4.11,5.63-5.73,8.65-1.85,3.43-5.21,8.56-3.33,12.63,1.58,3.42.22,8.11.71,11.73,1.43,4.02,5.11,6.73,6.39,10.84,2.13,4.07,4.99,8.47,8.82,11.05,4.1,2.77,8.17,4.11,12.69,5.96,3.78,1.55,7.94,3.14,12.1,2.26,5.08-1.07,9.32-2.16,13.81-5.02,3.78-2.4,8.13-3.62,11.88-6.25,4.06-2.85,7.07-6.03,10.27-9.72,1.17-1.36,1.48-3.38,2.73-4.62,1-1,1.95-3.16,2.47-4.55,2.01-5.39,1.92-10.57,1.74-16.23-.18-5.32-.07-10.38-1.06-15.61-1.21-1.18-1.78-3.27-2.79-4.64-1.01-1.37,2.55-.85,3.29-.81,1.95.1,8.31.86,7.44-2.87ZM56.88,14.72c1.39,1.17,2.27,2.85,3.83,3.82-1.24.78-4.59,1.3-6.07,1.28,1.23-1.48,2.06-3.17,2.24-5.1ZM25.87,85.17c.56.61.68,1.66.96,2.55-.84-.34-1.05-1.29-.96-2.55ZM37.06,95.05c-.41.06-1.08-.44-.52-.92.37-.31,1.07.35,1.48.28h2.88c-.13,1.39-3,.4-3.84.64ZM42.3,94.53c.36-.4,1.98-.12,2.43-.12-.54,0,.79-.27,0,0,.92-.31,1.9-.4,2.88-.32-.23,1.22-5.07.18-5.31.44ZM79.9,56.46c-.73,2.75-1.78,5.41-3.03,7.96-.69,1.43-2.74,3.9-2.74,5.44,1.15-.85,3.98-4.39,4.16-4.46.46-.2-.72,2.69,0,0-.94,3.49-2.85,6.9-4.79,9.93-1.74,2.71-3.2,5.1-6.4,6.32.19-.33,2.4-4.46,1.76-4.46-.72,0-3.4,2.98-3.99,3.5-2.18,1.53-4.1,3.38-6.33,4.85-1.93,1.27-3.95,2.44-5.97,3.57-.99.55-2.71,1.57-2.9-.04-.1-.86-.04-1.86-.47-2.64-1.67.74-1.08,2.82-.64,4.14-2-.22-4.67,1-6.54.15-.81-.37-4.91-.41-6.25-.15.11-1.26-.46-2.29-.64-3.51-1.5.11-1.24,2.18-1.28,3.19-1.22-.41-2.74-.19-3.83-.96-.46-1.08-.66-1.94-1.32-2.93-1.02-1.51-1.96-4.26-3.47-5.36-.86,1.58-1.3,3.3-1.28,5.1-3.49-.94-1.86-8.35-4.79-10.2-.87,1.22.2,4.08.26,5.48.07,1.67.23,1.69-1.12.47-1.55-1.39-2.17-2.23-2.14-4.42.03-1.99.38-4.12-.51-5.99-1.89.31-1.89,2.71-2.24,4.14-2.22-2.47-2.85-5.69-2.56-8.92-.71-.82-.9.63-1.54.56-.68-.07-1.56-3.7-1.78-4.38-1.85-5.77,1.5-12.66,3.35-18,.52-1.51,1.08-3.02,1.87-4.42.82-1.44,1.99-2.27,2.39-3.82.94-3.61,4.62-5.58,7.38-7.65,2.88-2.16,3.55-4.94,7.06-6.3,3.24-1.26,7.24-.08,10.37.96-.75,1.28-2.14,1.47-3.03,2.66-.78,1.06-1.58,2.11-2.46,3.09-1.18,1.32-2.08,2.98-2.99,4.53-1.97,3.35-4.43,7.18-5.28,11.03-.75,3.4-2.25,9.19-.32,12.33,1.8,2.93,2.58-5.39,2.25-6.54-.09-.58.64-1.71.64-2.55.73-.23.97-.99,1.28-1.59-.27-2.38.38-4.22,1.6-6.19,1.4-2.27,2.96-3.4,4.69-5.32,1.38-1.54,3.32-2.4,4.59-4.11,3.79-1.34,6.66-4.42,10.68-5.24,4.8-.98,10.34,0,15.21.14-1.17-1.29-2.76-2.01-4.48-2.23.98-.51,6.07-.09,5.46,1.62-.21.58-1.47,1.32,0,1.55,1.41.22,1.57-.23,2.71.8,2.29,2.07,3.38,3.27,4.42,6.19.74,2.08,1.5,4.14,2.21,6.23,1.59,4.71,4.11,11.48,2.79,16.44ZM78.3,36.39c-.96-.06.31-1.32,0,0,.96.07-.31,1.33,0,0ZM75.7,26.5c-1.15-2.38-3.2-4-5.33-5.39-1.49-.98-3.07-1.74-4.86-1.92-.71-1.29-1.75-2.35-2.84-3.33-2.31-2.08-3.44-4.38-5.15-6.87.03-2.22.12-4.5-.32-6.69.51-.11,3.12.77,3.98.9,2.01.31,4.01.52,5.66,1.76,1.67,1.26,3.32,2.56,5.08,3.7,1.77,1.14,2.6,2.09,4.02,3.56,2.52,2.58,3.92,6.73,5.69,9.81,1.12,1.96,3.36,4.16,3.7,6.41-2.48-.25-8.52.35-9.63-1.93ZM41.88,22.63c.39-.99.25-.73.11-.39-.02.12-.06.26-.11.39,0,0,0,0,0,0ZM57.52,8.98c.61.88.03-2.36,0,0h0ZM54.64,19.82c1.19.02,1.11-1.34,0,0h0ZM77.71,20.25c-1.13-.59-1.5-1.7-2.34-2.61-1.8-1.94-3.84-3.9-6.01-5.42-2.46-1.73-4.73-3.91-7.22-5.51-.79-.51-2.42-3.03-3.35-2.83.24-.05.06.31.01.12.13,4.79,8.06,9.04,11.48,11.6,2.23,1.67,3.94,4.1,5.9,6.09.93.95,5.52,2.55,3.64-.07-.51-.71-1.39-1-2.13-1.38ZM74.14,69.86c-.46.2.03.38,0,0h0Z"/>
    </g>
  </g>
</svg>