<?xml version="1.0" encoding="UTF-8"?>
<svg id="Layer_2" data-name="Layer 2" xmlns="http://www.w3.org/2000/svg" viewBox="0 0 114.47 114.53">
  <defs>
    <style>
      .cls-1 {
        fill-rule: evenodd;
      }
    </style>
  </defs>
  <g id="food_icons" data-name="food icons">
    <g id="asianfood">
      <path class="cls-1" d="M81.22,9.24s0-.03,0-.05c-.03.04-.04.06,0,.05ZM62.04,53.24c1.27-.73.8-1.03,0,0h0ZM23.79,45.25c.08,0,.15,0,.21.02-.11-.03-.17-.02-.21-.02ZM20.48,96.91c.17.09.35.16.52.23.76.25-.11-.74-.52-.23ZM68.43,82.56c-.3.36-.54.75-.77,1.15.24-.14,1.17-1.15.77-1.15ZM31.67,104.56c.84,0,.52-1.03,0,0h0ZM16.87,79.69c.04.08.08.18.1.33-.18-1.06-.16-.68-.1-.33ZM36.79,67.58c.21,0,0-.21,0,0h0ZM34.87,44.31c-.12,0-.23,0-.34,0,0,.01.09.01.34,0ZM29.43,66.95c.9-.06.25-.28,0,0h0ZM114.07,21.75c-1.17-.53-.89-.18-.89-1.67.56-6.16-5.58.18-7.02,1.47-3.57,3.18-7.11,5.66-10.98,8.41-2.88,2.06-5.12,5.4-8.21,7.01-3.74,2.58-8.19,4.82-11.38,7.94-1.15,1.13-2.84,1.57-3.86,2.85-.91,1.13-3.55-.71-5.09-1.04-2.34-.5-3.4-.1-5.66.4-.45.1-2,.34-2.38.01-.35-.3.19-.97.55-.91-.22-.8,1.47-2.49,1.9-3.13,1.24-1.82,2.55-3.67,3.22-5.8,1.09-.53,2.74-4.01,3.2-5.1,1.01-1.31,2.78-3.19,3.2-4.78,2.96-3.58,5.36-7.71,8.19-11.41C80.88,13.35,92.33,0,83.46,0,83.56,0,83.46.11,83.46,0c0,1.16-.77,2.94-2.03,3.55-2.11,1.03-1.33,2.22-2.23,3.99-1.77,3.44-3.76,7-5.9,10.41-5.8,9.27-12.59,18.07-17.33,27.96-.03.01,1.96,2.08,1.92,2.23-.5-.14-1.79.81-2.08,0-.39-1.08.4-1.67-.35-2.83-.92-1.43-3.9-1.17-5.55-1-2.55,1.38-2.2-1.19-4.24-1.51-1.62-.25-4.28-.86-5.34,1.19-.61-.38-1.04-1.86-1.56-2.43-.84-.93-2.96-.43-3.97-.17-1.66.43-2.95-.25-4.72.19-1.92.47-2.17,1.29-4.02.2-3.68-2.18-8.12.04-10.09,3.53-1.02,1.81.85,2.98.67,4.37-.11.84-2.65,1.18-3.2,1.46-1.78.89-1.89.32-3.29.23-1.14-.08-2.64,1.27-3.77,1.65-1.02.35-2.08.6-3.13.86-.65.73-1.14,1.61-1.92,2.23C.94,58.46.05,60.45,0,62.96c-.18,10.08,3.52,20.08,8.42,28.66,2.25,3.93,5.68,7.36,9.04,10.32,1.84,1.62,9.25,4.53,6.21,8.04-1.34.87,1.38,3.17,1.93,3.55,1.83,1.27,2.48.01,4.56.31,4.49.65,9.03.57,13.56.69,2.27.06,4.32-.73,6.51-1.2,1.82-.39,4.1-.4,5.77-1.29.79-.42.13-1.53,1.33-1.06.53.21.9.07,1.33-.38,1.36-1.42,1.52-2,1.45-4.13-.08-1.58,2.78-3.11,3.69-4.29,1.44-1.85,2.83-3.75,4.25-5.62,2.96-3.91,5.65-8.05,8.27-12.18,2.59-4.09,4.94-8.34,6.06-13.09,1.07-4.54-.49-8.5-.53-12.96.22-2.2-4.06-5.66-5.49-6.86-1.25-1.05,1.21-2.85,2.3-3.02,1.74-1.34,3.64-2.42,5.49-3.65,4.31-2.87,7.94-6.66,12.24-9.53,4.05-2.71,8.06-5.48,12.11-8.19,1.66-1.11,3.55-2.03,5.05-3.42.39-.35,1.52-1.46.53-1.92ZM81.23,9.2s0,0,0,0c.23-1.18.87-2.22,1.13-3.4.3-1.33.74-1.16,1.42-2.28.49-.82.78-1.74,1.28-2.55.78.37,1.49.57.96,1.59.02.9-1.6,1.82-2.24,2.23-.23.97-1.04,1.61-1.28,2.55-.21.82-1.09,1.65-1.27,1.86,0,.02-.01.04-.01.05-.46.19.28-1.57,0-.05ZM68.11,51.32c-.75,2.67-3.95.7-6.07,1.91.81-1.05-.41-2.38-.32-3.51,2.25.09,4.26.99,6.4,1.59ZM22.4,44.63c.81.16,2.26.06,2.24,1.28-.47.04-.68-.17-.64-.64.03.32-.39.02-.21-.02-.59,0-1.68.31-1.39-.62ZM19.2,46.54c.93-.47.93,1.42,0,.96v-.96ZM12.81,81.61c-.16-.17.23-.41.32-.32.16.16-.23.41-.32.32ZM14.73,89.58c.87.29-.33,1.12-.32,1.59-.97-.39.23-1.22.32-1.59ZM15.05,92.45c-.17-.17.23-.41.32-.32.17.16-.23.41-.32.32ZM17.93,95.95c-.16-.17.23-.41.32-.32.17.17-.23.41-.32.32ZM25.28,99.46c-.32-.51-.75-.89-1.29-1.16-.95-.5-2.01-.74-2.99-1.16-.13-.04-.29-.11-.52-.23,1.53-1.88,1.47-1.4,2.93-.38,1.55,1.09,2.03.93,3.78.69-.13.42-.03.73.32.96-.69.53-1.37,1.06-2.24,1.28ZM25.6,94.36c.5-1.01,1.92.4.96.96-.74.1-.35-.92-.96-.96ZM59.48,101.37c.01-.31.39-.25.64-.32,0,.31-.39.25-.64.32ZM72.19,87.19c-.27.71-.59,1.4-.94,2.07-1.33,2.51-3.54,5.81-6.17,6.78-1.07.39-.8-.43-1.86.49-.49.44-.96.9-1.4,1.38-.9.95-1.76,1.95-2.81,2.74-1.49,1.12-2.52.64-2.92,2.68-.25,1.24-.3,2.51-.56,3.75-.3,1.48-.66,1.95-2.13,1.62-1.07.16-1.48.96-2.72.96-1.71,0-2.3-1.3-3.97-1.48-1.64-.18-3.3-.04-4.93.15-1.09.12-3.96,1.06-4.57-.22-.48-1.02-1.28-.62-2.14-.37-1.21.36-4.4,1.9-4.68,0,4.24,0,8.34-2.17,12.79-1.91,3.58-.68,8.01-.2,10.23-3.83-5.8,1.14-11.68,1.88-17.58,2.23,1.32-.99,2.98-1.69,3.84-3.19.6.53,1.78.45,2.33-.14,1.35-1.47-2.96-4.33-2.65.14-.9.28-.85-4.06-3.07-2.1-2.43,2.14.15-1.55.19-1.72-2.01-.1-2.89,1.52-4.62,2.09-3.27,1.09-1.01-.75-.77-1.72.26-1.04-.46-1.81-1.44-1.93-1.47-.17-.45-.35-1.06-1.42-.82-1.46-2.13-2.31-4.07-1.61-1.09.4-2.1,2.4-3.31,1.35-.74-.65,1.15-.71.33-1.33-.73-.56-.37-.8.06-1.44.72-1.07.61-1.73,1.61-2.7.56-.55,1.16-1.07,1.88-1.41,2.45-1.13,3.01,1.63,3.67,3.57.79,2.33,2.4,2.91,4.83,2.71,1.89-.42,2.81-2.73,4-3.92,1.96-1.96,2.63-.81,4.95-1.18.7,2.15,1.63,5.1,4.26,5.1,5.41,0,5.89-4.84,8.59-8.23,2.68-3.38,3.08,5.31,3.65,5.04-1.43.68-3.59.09-3.48,2.61.13,3.27,4.24,3.58,4.87.45.36-1.76-.88-2.24,1.56-2.08,1.31.09,2.4-1.06,3.07-2.07,1.12-1.67,1.61-3.68,2.6-5.42-.15.08-.04-.16.77-1.15,2.28,0,2,.47,3.06,2.31.73,1.26,1.34.68.71,2.32ZM31.67,101.69c2.03,0,.14,2.13,1.92,2.23-.04.9-1.41.64-1.92.64.49-.97.13-1.88,0-2.87ZM78.03,63.64c1.41.66-.05,4.38-.13,5.98-.26,4.86-1.34,9.99-4.03,14.22-.55-.55-1.4-1.92-1.22-2.65.19-.77.21-1.08-.68-1.51-1.65-.78-3.34-.72-4.94.13-2.19,1.16-2.66,3.13-3.58,5.3-.28.65-2.07,4.07-2.02,1.57.06-2.69-2.24-6.36-5.33-5.48-1.83.53-4,1.79-4.57,3.62-.56,1.77-1.38,3.61-3.02,4.64-2.19,1.37-1.94-1.28-2.77-2.44-.77-1.87-3.3-2.04-4.95-1.66-3.69.86-4.64,4.35-7.65,5.91-3.15,1.64-2.9-7.16-6.98-6.33-1.76.36-3.34,1.26-4.51,2.62-.56.65-1.02,1.39-1.42,2.15-.63,1.23-1.31.8-2.62.8.12-.41,3.04-4.2,1.03-3.25-.51.24-1.69,1.59-2.31,1.02.24-1.75-1.21-3.21-.73-4.74.2-.65.94-3.55,1.37-3.55-.03,0-.07-.16-.1-.33-.4-.79-1.54.92-1.82,1.28-.71-.04-.19-1.52-.32-1.91-.55.56-.98,1.19-1.28,1.91-.76-1.34-.3-2.83-2.19-2.88-.82-.02-2.41-.19-2.61.97-.91-.79,1.96-4.9-1.28-2.23-.59-.31,1.53-5.19,1.04-5.03-.64.19-1.5,2.3-2,2.8-.93-1.51,1.95-3.69,0-5.1-.53-.16-1.68,1.14-1.92.64-.44-1.36-.88-2.7-.96-4.15,1.08-.13,2.75,1.24,3.92,1.62,1.44.46,2.58.88,4.07,1.26,2.99.77,6.44.95,9.54.95,3.46,0,6.92.26,10.41.29,1.68.01,3.12.67,4.79.67.98,0,3.02-.47,3.74.44,1.34,1.68,4.28-.15,6.16-.26,3.2-.18,6.3-.81,9.5-.81,3.57-.48,7.71-1,11.01-2.35,2.37-.97,5.48-1.67,7.21-3.71.37.34.48.77.32,1.27,1.67-.85,1.84-2.64,3.84-1.71ZM29.75,65.67c.67.12,1.31.34,1.92.64-.05.98-1.67.6-2.24.64.27-.38.37-.81.32-1.28ZM33.59,61.53c.16.16-.23.41-.32.32-.17-.17.23-.41.32-.32ZM36.79,67.58c0-1.5,1.5,0,0,0h0ZM41.04,67.04c.31-.48,1.09-.66,1.41-1.12.25-.38-.67-1.24.16-1.21.65.03.71,1.22.57,1.6-.69.23-1.21.7-1.91.88-.08.03-.18.06-.33.08.12-.01.22-.05.33-.08.35-.16,0-.46-.23-.15ZM76.1,58.66c-1.57,2.72-4.95,3.54-7.52,4.95-1.06.58-3.04.99-4.3.78-1.14.59-2.4.95-3.66,1.21-3.24.66-6.57.72-9.84,1.12-1.65.21-3.38,1.33-3.45-.91-.04-1.32-.01-2.14-.94-3.18-1.3-1.45-2.09-2.08-4.03-2.09-1.42,0-1.72.48-2.98-.65-2.14-1.93-3.25-4.88-6.65-3.33-1.2.55-2.03,1.6-2.66,2.73-1.22.5-2.62.42-3.79,1.05-2.46,1.31-.16,4.74.27,6.6-7.18-.98-15.02.04-21.16-4.4-1.54-1.12-1.76-2.25-1.04-3.87.52-1.17,1.37-.01,1.89-1.15-.07-.74.29-1.11,1.08-1.09,2.17-.88,4.08-.68,6.25-1.48,1.97-.72,3.93-1.47,5.95-2.03.45,2.86-4.08,3.84-5.43,6.38-2.56-.25-3.42,2.97-2.71,4.89.31.85,2.01,1.42,2.47.36.29-.65-.19-1.46.23-2.07,3.47.51,1.79-3.04,4.24-4.46,1.46-.85,2.51-.58,4.07,0,1.1-.99,0-1.96-.55-2.64-2.09-2.55,2.23-4.98,4.39-4.37-.15.04,1.01-3.85.96-4.14,1.17-1.14,2.52-2.05,4.07-2.58,1.32-.45,2.09.02,3.26.03,0-.03.63-.11.47-.05.84-.29,2.89-1.4,2.74.36,1.77,1.68,1.88-.75,2.78.42.79,1.03,5.81-1.92,4.58,1.18.88.27,1.61.87,2.51.38.92-.5,1.6-.85,2.71-.68,1.98.31,3.02,1.59,2.7,3.47-.49,2.85,2.18,1.71,3.9.9,2.17-1.01,2.71.1,3.52,1.99.14.66-1.41,3.78.4,3.2.54-.17.59-.8.99-1.12.5-.4,1.34.19,1.92.2,2.6.05,1.01,1.57.85,3.14,1.02.87,1.76-.83,2.88-.64-.22,1.6.67,1.56,1.92,1.27.9.93-.19,2.91,2.1,1.77,3.09-1.53-2.47-3.71-1.86-4.72,1.67-2.79,3.92-1.81,5.79.05,1.57,1.56-2.14,2.89.67,3.22ZM109.04,24.33c-1.05-1.89-4.86,2.13-5.77,2.65-.51.29-2.76,1.55-3.65,2.34-.23.24-.37.42-.37.5,0-.12.13-.3.37-.5,1.02-1.04,3.85-3.21,4.31-3.18-.8-.06-.05-.9,0,0-.05-.95,2.87-2.77,3.47-3.34.92-.89,2.48-3.21,3.88-3.36-.31,1.29.66,1.98.64,3.19-.44.27-2.6,2.2-2.87,1.69ZM38.8,51c1.88.39,1.87-.52,1.51-2.22.08.38-.61-.12-.92-.43-1.33-.41-2.9-.04-3.91.89-.78.72-1.78,3.76.18,3.36,1.28-.26,1.59-1.92,3.14-1.6ZM39.38,48.34c.32.1.64.23.92.43-1.18-.83-1.2-.71-.92-.43ZM44.27,56.21c-.56-1.78-4.02-1.95-5.51-.92-1.03.71-1.22,3.49.54,2.54.83-.45,1.18-1.23,2.28-1.08,1.14-.16,1.47,1.03,2.56.96-.61.04-.23-.94.13-1.49ZM44.27,56.21c.13.41.11.91-.13,1.49.87-2.17.51-2.08.13-1.49ZM56.67,56.09c-.86-.03-1.94.07-2.3.97,1.23.36,1.27-.6,2.5.41.9.75.39-1.05.06-1.36.25.23-1.01-.03-.26-.01ZM52.45,60.57c-.18.62-1.08-.1-.95-.27-1.56-.21-3.75.33-3.47,2.1.26,1.65,1.38-.05,2.03-.4,1.05-.56,1.75.38,2.71.16.12-.69-.53-.86-.32-1.59ZM51.5,60.3c.36.05.69.14.95.27-.63-.31-.89-.35-.95-.27ZM65.87,79.06c-.05.18-.12.34-.21.49-.02.14.02.11.21-.49ZM65.86,78.96c-.14-3.2-4.42-3.72-5.31-.49-.89,3.23,3.81,3.47,5.11,1.08.02-.2.16-.73.2-.59ZM17,80.53c.32,4.01,5.98,2.81,6.63-.6.43-2.27-1.94-3.17-3.78-3.1-1.26.4-2.16,3.19-2.87,3.19.04,0,.04.29.03.51ZM19.52,79.06c-.01.08,0,.13,0,.21.05.16.3-.38.13-.31.77-.51,2.98-.46,2.19.83-.82,1.34-2.4,1.08-2.33-.52-.01-.03-.01-.09,0-.21ZM17,80.53c-.01-.17-.03-.33-.03-.51-.03,1.05,0,.84.03.51ZM49.2,78.89c-2.63-.01-5.27,3.02-2.2,4.65,1.37.73,3.05-.69,3.6-1.94.59-1.35-.45-1.35-.38-2.55-.03.52-.99.02-1.02-.17ZM49.2,78.89c.34,0,.69.05,1.02.17-.79-.28-1.04-.27-1.02-.17ZM32.95,85.11c2.08,1.69,5.08-.19,4.47-3.19-1.8-2.15-4.91.19-4.47,3.19ZM34.87,83.2c-.17-.16.23-.41.32-.32.16.17-.23.41-.32.32ZM41.26,92.45c.16.13.29.29.41.45,0-.08-.11-.22-.41-.45ZM40.78,92.43c.16,0,.32,0,.48.02-.22-.02-.36-.02-.48-.02ZM40.78,92.43c-2.68.03-4.81,2.62-1.82,4.54,2.42,1.56,4-2.22,2.71-4.07.02.31-1.74-.42-.89-.47ZM39.98,94.68c.17-.49.34-.02.32.32-.58.09-.66-.3-.32-.32Z"/>
    </g>
  </g>
</svg>