<?xml version="1.0" encoding="UTF-8"?>
<svg id="Layer_2" data-name="Layer 2" xmlns="http://www.w3.org/2000/svg" viewBox="0 0 112.53 82.62">
  <defs>
    <style>
      .cls-1 {
        fill-rule: evenodd;
      }
    </style>
  </defs>
  <g id="food_icons" data-name="food icons">
    <g id="avocado">
      <path class="cls-1" d="M111.81,20.75c-.43-.68-1.59-1.53-1.5-2.38.03-.26-.33-1.56-.02-1.5.25.07.44.21.57.43.15-.18.31-.36.47-.53-.17.1-.32-.71-.33-1.01-.45-1.02-1.19-1.86-2.13-2.51-.73-.5-1.53-.9-2.33-1.26-.06-.5-.27-.93-.63-1.28-1.9-1.97-4.98-2.04-7.64-2.18-7.23-.37-14.64,2.51-21.77-.04-3.47-.21-6.42-2-9.04-4.05-3.12-2.44-7.12-3.04-10.97-3.56-6.77-.91-14.02-1.69-20.4.86-4.53,1.8-9.09,2.98-13.53,5.13-1.1.53-2.19,1.08-3.28,1.63-.67.7-1.47-.08-2.24,0-1.57,1.36-3.02,2.87-4.81,3.95-1.9,1.14-3.37,2.8-4.98,4.3-.45.42-1.38,1.55-1.57,2.1-.2.59.38,1.23-.15,1.76C2.77,22.98.79,27.29.09,30.8c-.36,5.21.49,10.4.32,15.62,1.32,5.27,3.65,9.37,6.61,13.86,2.84,4.31,6.58,8.6,10.12,12.36,1.35,1.43,3.33,1.83,4.73,3.37,1.04,1.14,2.52,1.69,3.8,2.5,7.71,4.92,19.3,4.88,27.95,2.65,4.18-1.08,8.96-1.85,12.63-4.14,1.37-.85,2.57-2.29,3.42-3.66.45-.72.71-2.26,1.8-1.5.93.64,1.44-.2,1.98-.93,2.34-3.19,6.11-4.86,8.01-8.37.72-1.34.28-1.39,1.56-1.61.7-.12,1.33-.41,1.72-.97.4-.59,1.25-.75,1.81-1.36.81-.88,1.62-1.76,2.44-2.63,1.6-1.69,3.32-3.36,4.66-5.26.79-1.11,1.96-3.43,3.29-3.99,1.99-1.1,4.11-1.96,6.12-3.03.98-.52,1.94-1.09,2.82-1.76.04-1.05.13-.38-.2-1.12-.27-.62,2.45-1.42,2.66-2.29.16-.67.09-1.92,1.06-2.01.75-1.36,1.55-2.18,1.6-3.73.05-1.47.27-2.92.35-4.39.08-1.67.07-2.48.77-3.99.65-1.41.49-2.39-.32-3.68ZM15.52,15.82c.73-.65,1.46-1.3,2.26-1.85,1.71-1.19,3.51-1.92,5.2-3.21,1.75-1.34,3.81-1.98,5.56-3.22,1.34-.95,2.63-1.81,4.26-2.19,1.36-.32,2.87-.52,4.05-1.32.62,0,1.74.21,2.23-.32h8.54c3.96,0,9.84-.58,13.11,2,3.86,3.04,8.09,3.81,12.62,5.49,4.36,1.62,8.6,1.27,13.12.8,2.63-.28,11.33,1.51,12.56-1.27.21-.46,2.24-.12,2.39.31,1.87-.16,3.29,2.25,4.26,3.47,1.35,1.7,1.5,2.34,1.5,4.5,0,.86.84,1.12.96,1.91-.19,2.02.44,3.61-.24,5.39-.15.38-.93.96-1.26,1.2-.65.47-.46,1.19-.98,1.78-1.42,1.63-2.65,1.64-4.68,2.35-2.33.8-4.48,2.01-6.77,2.92-1.92.76-4.05,1.39-5.62,2.69-.91.76-7.41,3.43-8.34,4.37-.06.15-.12.26-.12.2,0-.05.05-.12.12-.2.11-.28.19-.71-.19-.53-.15.07-.87,1.39-1.05.67-.1-.4.62-.58.36-1.07-3.1.96-5.68,3.17-8.22,5.11-1.78,1.36-4.17,3.86-6.48,4.14.04.85,1.19.51,1.6.96-1.27.73-2.77,1-4.2,1.16.36-.04-2.06.46-1.23.12-.46.2.48-.59,0,0,.49-.59,1.34-.8,1.6-1.59-1.82.51-3.66,1.33-5.41,2.05-1.84.75-.75.33-1.96-.2-.84-.37-3.22.37-4.15.45-1.65.14-3.31.23-4.96.27-5.26.13-10.29-.75-14.59-3.77-1.39-.98-3.07-2.5-4.72-2.94-.7-1.07-2.67-3.31-3.84-3.83-2.2-4.29-5.17-7.75-6.53-12.5-.7-2.44-.61-4.67-.94-7.15-.21-1.56.48-3.68.16-5.03-.28-1.21-1.24-.96.04-2.1ZM52.83,54.39c0,.31-.39.25-.64.32,0-.31.39-.25.64-.32ZM25.34,73.51c-.72-.34-.12-2-.32-2.87,1.35.4.11,1.72.32,2.87ZM26.3,70.01c-.14-1.08-1.41-1.33-1.28-2.55,1.73.76,3.77,1.12,3.52,3.51-.89-.52-.97-1.74-2.24-.96ZM37.49,73.51c-.25.58-.34-.19-.32-.63.25-.58.34.19.32.63ZM41.65,76.07c-.27-.9.45-.82.32-1.59.52-.05.64,2.09-.32,1.59ZM56.99,75.11c-.94-.27.19-1.03,0-1.6.75.08.18,1.4,0,1.6ZM110.39,31.98c-.02.92-.61,3.57-1.94,3.29-.52.99-1.47,1.36-2.56,1.28-.46.06-.88,1.38-1.4,1.69-.51.3-1.26,1.53-1.45.19-.06-.43.01-1.26-.67-1.24-2.24.4-3.78,4.2-4.79,5.74-.52-.09,1.14-2.86,1.6-2.87-.31,0,.05-.79,0,0,.28-4.61-5.3,3.34-6.39,3.51v-1.59c-1.69.41-2.38,2.02-2.88,3.51-.88-.71.39-1.73-.32-2.55-1.21-.05-1.67.83-2,1.83-.57,1.79-2.6,4.24-2.15,6.13-1.1,1.75-2.05,6.62-4.42,6.86-2.04.21-3.56,3.29-4.86,4.62-1.12-1,2.08-2.9-.32-3.83-1.83.74-2.7,2.56-3.97,3.93-1.37,1.48-3.02,2.6-4.15,4.36-.46.71-.75,1.52-1.47.48-.17-.24-1.16-.91-1.32-.27-.29,1.13,1.07,2.13.31,3.48-.87,1.56-2.47,2.44-4.11,3.01,1.41-2.14,1.04-4.93,3.52-6.37-1.43.03-2.45.77-3.26,1.88-.39.53-1.51,2.75-2.36,2.14-.83-.61-.79-1.83-2.2-.79-.93.68-1.15,1.92-1.76,2.83-2.6-2.23-3.39-.51-5.12,1.91-.86-.72-.36-2.63-1.92-2.55-1.86.16-2.22,1.96-3.2,3.19-.89-.95-.23-4.88-2.38-3.92-1.9.85-1.9,3.4-3.06,4.88-1.02-1.61-.16-3.79-.91-5.5-.83-1.9-2.68,1.94-2.92,2.63-1.53-.96.47-5.21-.64-6.37-2.3.7-3.33,2.89-4.48,4.78-.73-.31-.22-1.87-.36-2.45-.17-.72-1.3-1.44-1.88-1.76-1.32-.73-3.2-.52-3.2-2.17,0-1.5.64-.96,1.92-.96.05-1.43-.42-5.48-2.24-5.74-1.95-.55-1.68,2.48-1.25,3.47.34.78,1.46,3.03-.31,3.22-1.05.11-.8-.71-.96.92-.08.79-.43,1.46-.36,2.27-1.53-.74-.93-3.57-1.14-4.9-.49-3.04-1.92-.28-2.7.75-1.3-1.54.57-4.12-.58-5.73-1.36-1.89-1.3,3.55-1.34,3.82-1.8-.36-.97-3.05-.94-4.11.06-1.93-.33-3.84-.33-5.77-1.37-.1-1.61,1.14-1.79,2.2-.35,2.07-.67-.53-.77-.93-.47-.04-.68.17-.64.64-1.64-.87-2.7-4.91-3.63-6.43-1.64-2.67-4.05-7.11-4.05-10.26s.29-6.6,1.4-9.53c.77-2.03,1.74-5.22,4.03-5.99-.26,3.97-.52,8.52,1.6,12.12-1.12,1.97-1.26,6.59.96,7.97.71.17.61-.35,1.07-.61.86-.48,1.08,1.64,1.29,2.11.73,1.62,1.75,3.08,2.75,4.55,1.22-1.28,3.26,1.19,3.52,2.23,1.85.82,3.7,2.1,5.68,2.41,2.2.35,4.5.75,6.47,1.84,2.17,1.19,4.02,1.7,6.5,2.27,4.74,1.09,9.11,1.45,13.96,1.45,2.01-.51,4.04-.39,5.92-1.37,1.36-.7,2.58-1.62,3.97-2.27,1.98-.92,4.01-1.41,6-2.41,1.78-.89,3.61-1.7,5.53-2.25-.84,1.29-1.77,2.14-1.6,3.83,1.94.24,1.8-1.88,1.92-3.19.97.12,6.41,2.18,5.31-.78-.79-2.12-3.69-.03-4.23-.57.27.27,6.36-4.45,7-5.07,2.35-2.27,5.11-4.15,8.22-5.05,3.26-2.59,7.65-3.39,10.79-6.14.85-.75,1.63-1.58,2.32-2.46.47.05.9-.05,1.28-.32.82-.11.18-1.51,1.28-1.28-.18.8.33,5.79.97,5.56,1.68-.59,1.47-2.81.95-4.44-.23-.7.03-1.7,1.05-1.97.91-.24.56,2.5.56,2.98ZM26.3,70.01c1.37-.85-.15-1.12,0,0h0ZM111,15.76c.14.32.26.66.33,1.01-.26-1.17-.34-1.25-.33-1.01ZM37.61,43.88c2.41.74,5.43.38,7.97.68,2.51.29,5.36.78,7.75-.11,3.95-1.48,9.88-3.68,11.35-8.07,1.01-3,1.25-5.53,1.25-8.69,0-2.64-2.36-5.36-3.87-7.48-1.75-2.45-3.46-3.43-6.1-4.81-.53-.28-4.36-2.16-4.41-1.81-2.31,0-4.68.82-7.04.91-1.5.05-3.05-.16-4.48.35-.97.34-1.9.76-2.93.9-3.7.54-8.85,7.23-8.95,11.16-.04,1.5-.36,2.35-1.37,3.52-.31.36.08,4.07.29,4.71,1.59,4.79,5.75,7.27,10.54,8.75ZM40.08,34.23c-.05.08-.16.13-.35.08.11.03.23,0,.35-.08.15-.25-.21-.86-.32-.23.14-1.12.78-2.07.93-3.2,1.13.56.2,2.94-.6,3.43ZM39.44,17.49c3.72-.88,9.72-2.04,13.35-.58,4.89,1.97,6.54,5.73,8.82,10.12.85,1.63.92,4.67.48,6.3-.47,1.73-1.82.21-1.89.38-.1.25.51.5.36.78-.54,1-1.38-.67-1.33-1.15-.09.83-.47.28,0,0-.52.31-1.01.55-.96,1.27-.65.05-1.28.16-1.9.33-1.28.33-2.52.68-3.85.62-1.04-3.78-2.22-.35-4.47,0-.77-1.03,1.21-2.62-.32-3.51-1.19-.18-1.12,1.33-2.23,1.28v-1.6c-1.97-.1-1.61,2.83-3.2,3.19-.09-1.51,1.31-2.55.18-4.01-1.06-1.37-2.11-.71-2.4-2.39-.62-3.54-3.12,2.31-4.13,1.09-1.01-1.22-1.21,1.38-1.53,1.98-.69,1.31-1.13-.25-.89-.96.34-.96.71-1.98.94-2.98.36-1.59-.61-1.61-.8-2.93-.97.4-.59.88-1.49.1-.49-.42-1.06-.55-1.71-.42,1.4-3.97,5.08-6.01,8.99-6.93ZM51.56,13.59c.06-.36-.21,0,0,0h0ZM59.23,33.35c.47-.2-.03-.38,0,0h0ZM18.63,49.93c-.55,1.12-.79,4.3,1.28,3.82.47-1.55.49-3.66-1.28-3.82ZM28.06,54.43c.14.1-.51.28-1,.37-1.53,1.22-.21,4.01,1.7,4.43,1.75.39,2.4-.61,1.36-2.07-.61-.86-.81-2.46-2.06-2.74ZM27.06,54.81c.22-.18.5-.32.85-.42-1.78.51-1.45.53-.85.42ZM27.9,54.39c.06,0,.1.03.16.04-.03-.02-.07-.03-.16-.04ZM50.91,60.77v.96c.93.47.93-1.43,0-.96ZM61.1,61.4c-2.06.18-3.22,2.23-1.12,3.8,2.79,2.09,3.72-1.81,1.95-3.64.33.44-1.12-.04-.83-.16ZM61.1,61.4c.22-.02.44-.02.68,0-.4-.04-.6-.04-.68,0ZM45.16,66.5c.47.56.7.72.81.69-.27-.16-.54-.38-.81-.69ZM45.16,66.5c-.01-.17,0-.31,0-.46-.01.11-.02.25,0,.46ZM48.95,63.61c-2.05-1-3.8-.08-3.79,2.43.11-.88,1.11,1.07.81,1.15,2.43,1.48,4.81-2.69,2.98-3.58ZM38.66,65.92c.31-.02.66.05,1.07.26-1.5-.79-1.47-.59-1.07-.26ZM38.66,65.92c-1.51.11-1.82,2.65-.94,3.92.83,1.21,1.43.36,2.33.49.89-1.23.36-2.96-.32-4.14.38.67-.6.12-1.07-.26Z"/>
    </g>
  </g>
</svg>