<?xml version="1.0" encoding="UTF-8"?>
<svg id="Layer_2" data-name="Layer 2" xmlns="http://www.w3.org/2000/svg" viewBox="0 0 114.73 98.5">
  <defs>
    <style>
      .cls-1 {
        fill-rule: evenodd;
      }
    </style>
  </defs>
  <g id="food_icons" data-name="food icons">
    <g id="bacon_egg" data-name="bacon&amp;amp;egg">
      <path class="cls-1" d="M65.53,50.33c-.01.09-.01.18,0,.3.66.11.08-.7,0-.3ZM110.61,41.06c-.24-.98-1.36,1.3,0,0h0ZM39.64.26c-.06-.27-.22,0,0,0h0ZM106.09,9.23c-3.35-2.66-8.2-6.35-12.64-5.78-2.13.28-4.54-1.32-6.85-1.31-2.31.02-4.55.48-6.81.86-2.41.41-4.59.02-6.47,1.7-1.26,1.12-3.16.43-4.66,1.22-3.14,1.64-4.51,1.2-7.6-.25-1.84-.87-2.76-2.53-4.88-3.27-1.3-.45-2.44-1.82-3.79-2.01-1.18-.17-12.88-.72-12.75-.14-3.51,0-7.56,3.64-9.73,6.16-2.34,2.74-.71,6.16.55,8.95.76,1.69,1.09,3.43.87,5.29-.57.49-.26,1.53-.96,1.91-.56.55-1.41.66-1.92,1.27-.64.95-1.51,1.68-2.36,2.43-1.1.96-.87,1.57-1.05,2.94-.21,1.59-.72,2.76-1.21,4.25-.74,2.27.62,3.87.78,6,.27,1.16,1.42,3.79,1.28,4.78,2.27,3.89,6.07,6.71,10.21,8.24,2.27.84,4.61,1.54,6.84,2.48,2.16.92,4.78.97,7.12,1.35,5.16.85,9.9,1.13,15.12.52,2.67-.31,5.32-.79,7.92-1.47,2.22-.58,4.2-2.21,6.18-3.35,4.6-2.66,9.33-3.49,14.6-3.32,4.82.15,9.54,1.01,13.96-1.04,3.67-1.7,5.14-5.92,6.1-9.75,2.25-9.05-.33-22.71-7.86-28.69ZM65.53,50.63c-.02-.14-.02-.23,0-.3.09-.63.87-.59.96-1.3.44.3.65.73.64,1.28-.74-.21-.91.44-1.6.32ZM112.2,37.88c-.31.1-1.68,2.86-1.6,3.19-.92.89-3.99,3.9-5.27,3.45-1.65-.58-2.49-.33-4.22.3-3.66,1.33-6.59.96-10.01-.88-1.52-.03-3.12.38-4.62.06-1.38-.29-1.05-.83-2.62-.38-.76.22-1.51.46-2.26.72-1.31.46-8.88,4.73-9.21,4.34-1.08-1.3-2.59-.71-3.83-1.96-1.06-1.08-2.27.14-3.28.91-.91.7-1.73,1.2-2.62,1.9-.56.44-1.54,1.34-2.06,1.4-1.87.22.59-5.22-2.14-2.63-1.37,1.29-2.28,1.68-2.21-.21-2.11-.01-1.96,2.86-4.47,2.23.11-1.08.87-1.7.64-2.87-.94-.12-1.85.02-2.65.54-1.59,1.03-2.63,1.92-4.6,1.03-.03-.01.25-.82.22-.93-1.28.68-2.58,0-3.84-.32-.52-.51.15-1.89,0-2.55-2.28-.29-3,3.71-3.19-.96-1.29-.25-1.73.85-2.88.96-.63-.6.17-1.49,0-2.23-.92-.71-2.06,1.06-2.88-.32.07-1,.57-1.75,1.12-2.55.6-.88.91-1.79.8-2.86-.05-.75-1.46-1.45-1.92-.64-.71-.41,1.47-3.34-.77-2.42-1.06.43-1.23,1.85-2.42,2.1-.03-.98,2.59-4.39,1.51-4.78-.91-.33-.93,1.37-1.61,1.41-.63.04-.04-3.61.03-3.88.2-.8,1.44-1.19,2.13-1.67,1.99-1.41,3.57-3.29,4.35-5.62.52-1.58.68-3.25.63-4.91-.6-1.37-1.71-2.37-2.59-3.54-1.57-2.09-1.69-5.87.24-7.73,1.12-1.08,2.56-1.76,3.94-2.44,1.5,0,2.82.18,4.12-.67,1.67-1.09,2.89-.92,4.91-.92,1.29,0,2.53.73,3.76.64,2.09,2.33,5.2,3.33,7.72,5.08,2.71,1.89,5.45,1.76,8.77,1.51,1.65-.13,4.05-.03,5.5-.92.5-.34.95-.75,1.34-1.21.64.12,1.21-.03,1.68-.45,1.81-1.54,6.91-1.36,9.32-1.6,6.26-.63,11.82.18,16.77,4.38,5.25,4.45,8.44,11.83,9.95,18.4-.16,3.52.54,7,.32,10.52ZM90.77,13.86c-.86-.35-10.52-3.23-10.21-1.81-3.82.21-7.99,1.95-11.07,4.15-3.22,2.3-2.2,8.42-1.21,11.6,1.12,3.58,3.5,5.88,7.32,5.96,1.52.04,3.23.72,4.85,1.03,1.89.36,3.84.32,5.78.19,3.71-.25,7.5-1.1,10.64-3.18,2.06-3.12,2.63-7.03,2.12-10.71-.5-3.65-5.17-6-8.22-7.24ZM97.18,26.4c-.16.4-.25.62-.31.72-1.5,3.23-4.13,4.88-7.83,3.76-1.29-.39-2.63-1.3-3.9-1.85-1.28-.55-2.54-.27-3.94-.37-2.46-.17-4.99-.91-6.72-2.75-2.08-2.2-1.84-3.9-1.32-6.59.16-.84.73-2.32,1.97-2.18.89-1.59,1.15-2.08,3.11-2.49,3.17-.67,7.23-.86,10.29.22,2.87,1.01,5.69,2.33,7.69,4.82.03.74.55,1.07.96,1.59-.04.63.03,1.26.21,1.87.27,1.18-.33,2.17-.21,3.23ZM80.56,12.05c-.06-.27-2.62.15,0,0h0ZM96.87,27.12c.11-.23.21-.47.31-.72-.06-.49-.54,1.15-.31.72ZM46.03,27.36c0,.1-.02.21-.04.31.02-.03.04-.12.04-.31ZM45.94,27.25c-.97-1.06-3.37-.56-2.26,1.17.73,1.13,2.06.25,2.31-.76-.08.1-.25-.57-.05-.41ZM55.52,33.63c.05.13.09.26.1.42-.06-.95-.1-.76-.1-.42ZM55.52,33.63c-.41-1.01-1.95-1.03-2.43.06-.83,1.91,2.01,2.56,2.48.53-.04.07-.06-.31-.06-.59ZM55.62,34.05c0,.06-.03.12-.04.18.01-.02.03-.07.04-.18ZM89.19,98.44c-.11.02-.24.03-.38.04.01.02.11.01.38-.04ZM89.38,98.32c-.07.04-.13.09-.2.12.11-.06.17-.1.2-.12ZM101.86,77.2c-3.57-2.23-6.13-5.78-9.51-8.24-3.44-2.49-6.86-5.4-10.68-7.33-1.94-.98-3.37-1.63-5.43-2.23-2.21-.65-5.29.07-7.55.32-2.92.33-5.82.82-8.69,1.46-2.62.59-5.52.27-8.21.27-4.43-1.04-8.49-1.96-12.73-3.64-2.74-1.09-5.33-2.53-8.1-3.57-2.3-.87-4.21-2.68-6.23-4.11-1.91-1.35-8.22-6.91-10.75-5.86-.72.3-1.41-.1-1.87.27-.35.27-.69.75-1.25.66-1.37,1.57-2.83,3.06-4.04,4.77-1.19,1.68-1.58,3.58-3.29,4.75-1.26.86-1.24,2.1-1.88,3.29-.5.92-1.32.44-1.65,1.86.26,1.04.71,2.01,1.28,2.91,1,1.58,2.21,3.62,3.66,4.79,1.67,1.34,3.09,2.76,4.84,3.97.86.59,1.68,1.25,2.36,2.04.97.22,1.89.59,2.76,1.07,1.87,1.05,3.39,2.59,5.18,3.76,1.84,1.2,4,1.97,6.02,2.79,4.5,1.83,8.05,3.49,13,3.58,4.99.09,9.88,1.28,15,1.25,2.42-.02,4.77.03,7.11.3,2.29.27,4.5,1.42,6.74,2.13,2.69.84,4.96,2.29,7.41,3.68,1.71.97,3.37,2.54,5.3,3.01.95.23,1.62-.18,2.3.62.46.54.83,1.16,1.37,1.64.82.73,3.17,1.17,4.47,1.08-.03-.05.69-.27.57-.16,1.6-.93,3.08-2.93,4.34-4.23,1.68-1.74,3.32-3.17,5.33-4.51,1.43-.95,3.41-1.69,4.45-3,.39-.49-.28-1.01.61-1.14.51-.07.96-.47,1.39-.77,3.44-2.4-1.84-6.34-3.66-7.48ZM91.59,90.74c-.15.17-.9,1.29-.89,1.29-.46.29-2.57-1.27-2.89-1.46-4.16-2.54-8.3-5.42-12.63-7.81-4.45-2.46-9.79-4.11-14.97-3.73-2.18.16-4.2.78-6.4.58-2.29-.21-4.5-.78-6.82-.61-8.76-1.84-17.41-3.51-24.94-8.6-3.57-2.42-7.86-4.44-10.99-7.37-1.31-1.22-2.54-2.83-4.03-3.79.31-1.17-1.5-1.16-1.58-1.77,0,0,.84-1.23.99-1.38.92-.87.58-1.24,1.96-.5,1.96,1.06,3.61,2.57,5.35,3.96,4.4,1.28,7.33,3.87,11.15,6.18,3.28,1.98,7.36,4.95,11.06,5.78,3.43.77,6.27,2.99,9.62,3.69,3.77.79,7.83,1.06,11.64.61,4.8-.57,8.82-.13,13.48.87,2.53.54,5.07.99,7.61,1.45,2.01.36,3.38,1.71,4.94,2.96.89.71,1.78,1.42,2.72,2.06,1.05.71,1.1,1.35,1.97,2.18,1.16,1.09,2.12,2.75,3.47,3.55.86.91,1.02.9.17,1.86ZM99.41,84.74c-.26.43-3.12,1.55-3.2,1.07-.18-1.07.03-1.69-.95-2.46-3.69-2.9-7.61-5.84-11.23-8.94-3.39-2.9-8.8-3.05-13.11-3.1-5.49-.07-10.98-.16-16.46-.5-4.87-.3-9.38-1.5-13.99-3.16-8.17-2.95-14.31-9.71-22.81-11.73-2.43-.58-4.47-2.58-6.41-4.14-1.18-.95-1.26-1.25-.11-2.3,1.05-.96,1.02-1.25,2.28-.42,3.94,2.61,8.39,4.42,12.15,7.31,3.1.23,7.26,3.03,9.59,5.1,4.31,1.42,8.28,3.03,12.7,4.14,4.86,1.23,10,2.4,14.92,1.22,4.4-1.05,9.82-1.74,14.18-.34,6.89,2.22,12.82,6.7,18.3,11.24,1.05,2.85,4.45,3.44,4.15,7.01ZM91.42,88.88c-.67-.4.6.63,0,0h0ZM95.26,77.72c-2.04-1.69,1,2.72,0,0h0Z"/>
    </g>
  </g>
</svg>