<?xml version="1.0" encoding="UTF-8"?>
<svg id="Layer_2" data-name="Layer 2" xmlns="http://www.w3.org/2000/svg" viewBox="0 0 113.83 96.67">
  <defs>
    <style>
      .cls-1 {
        fill-rule: evenodd;
      }
    </style>
  </defs>
  <g id="food_icons" data-name="food icons">
    <g id="baguette">
      <path class="cls-1" d="M48.12,37.05c-.13.03-.29.08-.5.16,0,0,.01,0,.02,0,.11-.04.29-.09.49-.15ZM15.65,69.73h0c-.02-.11-.03-.2-.05-.27,0,0,0,0-.01.01.02.06.05.14.06.25ZM30.77,52.92c.28.03.31.4-.33.51.11-.01.22-.03.33-.05.12-.06.22-.15.31-.27,0-.26-.13-.28-.32-.19ZM47.62,37.21s0,0,0,0c0,0,0,0,0,0,0,0,0,0,0,0ZM30.03,53.47c-.03.06.42-.4.74-.55-.18-.02-.47.1-.74.55ZM73.52,19.42c-.22-.12-.65-.3-.66-.06.32.11.53.12.66.06ZM15.43,69.67s.06-.09.15-.19c-.04-.1-.09-.13-.13-.12-.03.09-.05.26-.02.32ZM15.64,69.73s0,0,0,0c0,0,0,0,0,0,0,0,0,0,0,0ZM72.87,19.36c.19.18.37.25.54.23-.17-.09-.35-.17-.54-.23ZM47.61,37.21s0,0,0,0c-.13.04-.11.04,0,0ZM47.63,37.21s-.01,0-.02,0c-.13.18.21.15.56.04.16-.08.3-.17.32-.22-.31.03-.6.09-.86.18ZM48.12,37.05c.29-.08.39-.07.37-.03.08,0,.16-.02.24-.02.04-.03.08-.06.09-.08.06-.08-.34.02-.71.13ZM40.99,54.39s.08.09.14.15c.05.01.12.02.16.03-.05-.01-.21-.11-.31-.19ZM41.22,54.42c-.38-.19-.35-.13-.23-.04-.04-.06,0-.07.23.04ZM41.48,54.76s-.06-.12-.26-.34c.03.03.13.16.26.34ZM113.75,10.7c-.36-1.43-.13-2.94-.44-4.37-.41-1.93-2.24-2.47-3.36-3.87-1.56-.04-2.05-1.93-3.54-2.22-.89-.17-3.15-.57-3.81.31.19-.26.18-.33.11-.32.02,0,.04,0,.05,0-.38-.8-8.9,3.04-9.9,3.48-3.67,1.65-7.31,2.83-10.74,5.02-7.03,4.48-13.36,9.81-20.15,14.63-3.24,2.3-6.21,4.96-9.5,7.19-3.21,2.18-6.62,4.09-9.49,6.73-6.05,5.59-11.77,11.5-18,16.91-7.71,6.69-12.89,15.23-19.62,22.78-5.28,5.92-9.55,18.04,1.79,19.55,4.58.61,9.27-.93,13.63-2.17,2.37-.67,4.57-1.88,7-2.33,1.52-1.03,4.39-1.58,5.27-2.69,1.4-1.77,4.21-2.61,6.12-3.68,2.33-1.3,4.6-2.7,6.89-4.06,3.87-2.3,8.18-4.23,11.54-7.28,3.9-3.54,7.84-6.69,12.16-9.73,3.65-2.57,7.54-5.01,10.66-8.24,3.73-3.88,8.11-7.12,11.87-11.03,3.55-3.69,6.87-7.6,10.17-11.51,1.5-1.79,1.73-4.08,2.93-6.01,1.25-2,3.19-3.27,4-5.51.86-2.4,1.51-4.57,2.77-6.76.88-1.53,1.99-3.2,1.58-4.83ZM102.58.29c-.09.07-.18.17-.11.23-.07-.05.01-.16.11-.23ZM71.33,18.84c.76-.45,1.57-.74,1.54.52.05-1.72,1.24-.19.66.06.06.04.12.07.13.08-.08.06-.16.08-.25.09,1.42.71,2.44,2.04,3.93,2.63-1.31.9-3.05-.72-4.47-.32,0-1.45-2.16-.33-2.88-.32,1.18-1.37-.17-1.84,1.34-2.75ZM33.13,50.74c.82-.4,3.26,1.73,4.58,1.77-.99,1.04-2.77,1.51-3.2-.32-1.34.07-2.45.92-3.73,1.19-.21.12-.45.15-.75.09.65-1.05,2-2.2,3.1-2.73ZM15.45,69.35c.03-.09.09-.11.14.11.31-.35.97-1.04,1.01-1.33.81.05.14,1,0,1.28.41-.19.77-.14,1.1.14,0,.28-2.16,1.28-1.1-.14-.15,0-.75.23-.96.32,0,0,0,0,0,0-.1.04-.08.03,0,0-.45.19-.35-.35-.19-.38ZM43.78,76.74c.17-.49.33-.02.32.32-.57.09-.66-.3-.32-.32ZM109.63,11.01c-2.36,2.83-3.75,6.33-5.78,9.38-1.03,1.55-2.04,3.39-3.38,4.71-1.22,1.21-2.66,1.59-3.31,3.21-.84,2.14-3.51,5.92-5.7,6.58-2.7.81-2.68,4.29-4.85,5.82-2.85-.93-4.39,2.16-4.8,4.46-.47-.84-.89-3-2.31-2.34-1.61.75-2.2,2.58-2.8,4.1-.53,1.35-2.19,1.71-2.7,3.05-.63,1.66-.35,3.07-1.78,4.44-1.26-1.83.6-4.22-.64-6.05-2.06,1.78-1.76,5.11-3.68,6.97-1.2,1.17-1.63,1.27-1,3.02.53,1.47-1.73.76-2.14.63-1.95-.63-2.17,2.09-2.8,3.26-1.02,1.92-4.42,4.37-6.37,5.24.27-2.85-2.04-4.55-3.52-1.28-.93-.41,0-1.61,0-2.23-2.1,0-3.96,3.63-4.43,5.36-.8,2.94.86,3.57,2.68,1.45.28-.33,2.14-.91,1.62.15-.33.3-.6.63-.82,1.01-.53.31-1.03.69-1.54,1.04-.48.33-4.14,2.41-4.1,2.96-.16-1.82,1.7-3.37,1.13-5.26-.43-1.45-2.28,1.13-2.53,1.58-1.27-.35-1.57-.52-2.58.95-1.12,1.62-1.43,3.64-2.21,5.43-.76-.21-.28-1-1.28-.64-.77.33-1.54.8-1.92,1.59-1.03,1.42-2.81,2.68-4.02,3.98-2.15,2.3-6.49,4.27-9.39,5.35-3.83,1.42-8.54,3.38-12.69,2.63-1.17-.21-4.35-.79-4.27-2.32.08-1.43-.59-2.8-2.23-2.63.64-3.86,4.81-8.2,7.35-10.93,2.8-3,7.22-.91,10.63-.84.84.02,5.39,1.01,5.1-.74-.55-3.33-5.39-7.17-8.7-6.94,2.84-3.42,6.35-6.26,8.95-9.88,4.11.92,8.29-.31,12.4.89,2.3.68,12.01,2.68,7.01-2.54-3-3.14-4.24-5.41-8.86-6.39-3.7-.79,2.91-4.8,3.82-6.06,1.39-1.93,2.6-3.58,4.63-5.03,1.09-.77,2.74-1.09,3.25-2.49,1.29-3.57,4.36-1.13,6.53-.38-1.1,2.4-4.48,1.52-6.87,1.71-.13.09-.34.18-.56.24-.34.17-.8.31-.56-.04,0,0,0,0,0,0-.36.49-.73.98-1.1,1.46-.84,1.16.36,1.39-.17,2.68,2.29-.13,4.36-.79,6.69-.55,1.84.19,3.46,1.02,5.27,1.37,2.35.45,4.44.76,6.77,1.45,1.13.34,2.26.1,2.01-1.36-.82-4.85-8.56-9.32-12.74-10.14.16-1.38,2.43-2.27,3.46-2.85,1.91-1.07,3.78-2.36,5.5-3.71,2.32-1.81,7.67.05,10.23.94,3.1,1.08,5.12,2.32,8.29,1.18.66-.23,3.05,1.34,3.06.07,0-.82-.62-1.78-1.12-2.4-1.24-1.55-2.55-3.07-4.11-4.32-1.62-1.29-3.61-1.71-5.25-2.85-1.5-1.04,5.59-4.23,6.25-4.68,1.29-.86,3.36-1.94,4.65-.48.95,1.08,2.12,1.5,3.53,1.53,3.74.07,7.52.48,11.2.99-.56-3.66-5.06-7.25-8.63-7.97-.14,1.61,2.04,1.44,2.24,2.87-2.2-.47-4.47-.44-6.71-.64,2.67-2.67,6.61-2.79,9.91-4.22,1.79-.78,3.58-1.55,5.44-2.15,1.55.36,3.07.83,4.6,1.27,2.09.6,4.35,4.39,2.75,6.31ZM38.99,52.83c1.76,1.08,3.28,2.53,5.11,3.51-.43,1.25-1.99-.74-2.62-1.57-.01.04-.2-.09-.35-.22-.88-.18-2.41-.5-2.15-1.71ZM57.2,36.25c.67-.13.85.22,1.28.32.11.56-1.79.57-1.28-.32ZM63.28,41.03c.39-.03.2.46,0,0-1.41.06-.09-1.25,0,0ZM94.29,29.56c.19.14.05.37,0,0,0,0-.14.59.32.96.53-.53.42-.85-.32-.96ZM79.33,35.04s-.04-.04-.07-.06c.03.02.04.04.05.07,0,0,.01,0,.02,0ZM79.31,35.04s-.05,0-.05-.07c0,.09.02.14.04.16.02-.03.03-.04.04-.06,0-.01-.02-.02-.03-.03ZM79.35,35.05s0,.01-.02.02c.02.06-.01.09-.04.06-.06.08-.17.23-.35.48.98.29,1.15.02.41-.56ZM47.08,46.81s-.16.09-.3.12c-.03,0-.06.01-.09.01-.4.53-.81,1.92.44,1.78,1.36-.16,1.1-1.68-.06-1.9ZM46.65,46.77c.07,0,.12.01.19.01.01,0,.03-.02.04-.03-.06,0-.13,0-.23.01ZM47,46.77s.02.01.03.03c0,0,0,0,0,0,.02,0,.03,0,.05,0,0-.02-.02-.03-.08-.04ZM46.58,46.9s.05.04.12.04c0,0,0,0,0,0-.06,0-.11,0-.12-.04ZM47.03,46.8c-.06,0-.12-.01-.19-.02-.05.03-.09.08-.14.15.03,0,.06,0,.09-.01.12-.03.25-.08.25-.12ZM65.41,48.14s.06.07.12.06c.03-.13.06-.25.09-.32-.02.14-.1.22-.2.26ZM65.51,47.73c.7,0,.26.45.02.48-.17.69-.32,1.94,1.26,1.76,1.36-1.27-.19-2.23-1.28-2.23ZM65.34,48.18s.05-.03.07-.04c-.01-.03-.01-.08,0-.15-.02.06-.05.12-.07.18ZM55.61,48.05c.15-.02.26,0,.36.04-.02-.04-.12-.07-.36-.04ZM55.78,48.22c-.06-.01-.12-.07-.17-.17,0,.14.09.17.17.17ZM55.96,48.09s.01.02,0,.03c0,0,0,0,.01,0,0,.18-1.42,1.36.58,1.22-.1-.45-.14-1.08-.6-1.24ZM57.74,59.64c-.37.04-1.04.04-.86-.12-.56.51-.78,3.43.5,4.44.52.4,2.88-3.6.37-4.32ZM56.88,59.52c.34,0,.62.05.86.12.37-.04.45-.12-.86-.12ZM29.39,67.81c.8.64,2.63.26,2.56-.95-.55-1.05-2.88-.69-2.56.95ZM39.88,69.14s-.1-.08-.22-.12c.06.1.16.17.22.12ZM39.78,68.71c-.27-.07-.23.14-.12.31,0,0,0,0,0,0-.1-.16-.13-.37.12-.31ZM39.86,69.19s-.13-.07-.2-.17c-.79-.29-3.25-.64-1.32,1.34,1,.06,1.58-.45,1.6-1.39,0,.09-.03.14-.06.17.01.02.01.04-.02.05ZM13.73,83.11c-.3,1.62,3.16,1.81,3.2.32-.54-1.11-2.37-1.1-3.2-.32Z"/>
    </g>
  </g>
</svg>