<?xml version="1.0" encoding="UTF-8"?>
<svg id="Layer_2" data-name="Layer 2" xmlns="http://www.w3.org/2000/svg" viewBox="0 0 103.21 104.22">
  <defs>
    <style>
      .cls-1 {
        fill-rule: evenodd;
      }
    </style>
  </defs>
  <g id="food_icons" data-name="food icons">
    <g id="banana">
      <path class="cls-1" d="M103.08,36.73c-.42-5.24-.48-10.11-3.33-14.73-1.87-3.04-5.01-7.16-8.36-8.57-2.3-.96-4.23-2.19-6.81-2.19-1.55,0-1.9.26-3-.95-.87-.96-1.72-1.93-2.54-2.93-.82-1.01-1.61-2.05-2.35-3.13-.77-.14-1.45-.5-2.04-1.01-1.09-.95-1.81-2.28-3.11-2.98-2.22-1.2-6.48,2.38-6.94,4.68-.37,1.86,1.09,2.93,2.37,3.95,1.68,1.35,1.76,3.75,1.95,5.77.2,2.25.06,2.69-1.54,4.21-.82.78-1.65,1.55-2.52,2.27-1.07,2.12-1.84,4.38-2.32,6.7-.76,3.71-5.63,6.46-8.22,9.24.53.08,1.59-.92,1.92,0-9.25,3.31-18.8,7.02-28.77,7.37-2.43.08-3.93.24-6.13,1.18-1.55.67-3.73,1.15-5.38,1.41-1.92.31-7.83,1.72-7.35,4.38,4.94-.99,9.84-2.24,14.55-4.02,2.18-.83,4.85-.44,7.19-.44,2.69-.4,5.35-.96,7.99-1.59,2.3-.55,3.7-2.06,6-2.34,2.14-.25,4.19-.91,6.19-1.69,2.15-.85,9.07-2.14,9.22-5.22-.29-.11-1.65.36-1.6-.32,3.04-1.23,7.39-4.5,7.23-8.05-.16-3.5,2.57-5.95,5.56-7.25.52,3.45,2.12,6.52.36,9.81-.79,1.48-1.11,3.45-2.48,4.01-.84.35-1.38,1.38-2.18,1.87-2.54,1.56-4.53,4.38-7.09,6.14-3.13,2.14-6.21,4.37-9.07,6.86-6.44,3.24-12.4,7.24-19.02,10.05-2.99,1.27-7.14,2.52-9.68,4.37-1.57,1.13-2.8.62-4.3,1.48-.93.54-1.73,1.37-2.81,1.63-.38-1.29.24-2.16-1.6-1.91.55-.94,1.23-1.31.96-2.55-1.27.09-2.5.53-3.79.44-.2-.01-1.62.13-1.01-.12-.46.2.16-.73,0,0,.82-3.83-1.95-1.52-3.72-.45-2.62,1.59-4.5-2.79-2.81-3.82,1.68-1.02.56.8.92,1.22.5.59,1.04-.83,1.79-.78,1.75,1.28,4.48.03,6.07-.64,2.12,2.63,10.2,2.65,11.71-.12-.08.14,6.23-.51,6.74-.61,2.49-.47,5.77-.28,7.77-2.14-3.55-.58-7.07.05-10.54.77-3.42.71-6.31.41-9.75.5-1.65.04-3.2.33-4.56-.71-.96-.73-1.88-.64-2.84.03-1.47,1.03-2.22.31-3.63-.59-.87-.19-2.16.94-2.88.32.23-.46,6.86-5.26,3.63-5.4-1.16-.05-2.82,1.63-3.61,2.34-.5.45-1.32,2.09-1.98,1.56-.2-.27-.47-.39-.79-.37-1.58,1.31-.13,6.84-.13,8.58,1.92,1.54,2.16,3.74,4.53,5.05,1.16.64,3.27,2.11,4.63,1.99.44-.04,3.28.2,3.3.61-2.32,1.16-4.93,2.97-6.64,4.74-1.11,1.15-2.44.65-2.3,2.71.08,1.18.48,2.26.98,3.33.94,2,.35,5.76,3.13,6.09,1.6.19,4.54,0,5.57-1.4.97-1.32.77-.47,1.81.59,1,1.03,2.96,1.23,4.3,1.53,2.53.55,5.6,1.33,8.22.93,1.06-.16,1.27-1.45,1.33.84.04,1.5-.16,2.99-.39,4.47-.43,2.8-1.06,4.71,1.57,6.31,1.08.66,1.84,2.29,2.57,3.33.88.03,1.54.5,2.34.78,1.69.59,3.23-2.71,4.44-3.69,1.29-1.04,1.2-.1,2.42.43,1.09.48,2.12,0,3.22-.17,2.27-.38,4.56-.6,6.82-1.03,5-.94,9.77-3.22,14.25-5.52,2.33-1.19,4.56-2.58,6.7-4.08,1.72-1.2,3.07-2.87,4.88-3.93,1.8-1.75,3.58-2.94,4.84-5.07,1.05-1.79,2.31-3.44,3.58-5.09,2.76-3.58,4.65-7.03,6.47-11.14,2.18-4.93,4.66-9.96,7.49-14.56,2.46-4.01,2.78-8.93,2.41-13.57ZM9.56,64.16c-.7.97-2.05-.37,0,0-.03-.39.47-.2,0,0ZM70.62,16.02v-2.55c1.77.12,2.08,2.68,0,2.55ZM28.42,82.33c-.11-1.08,1.51-.5.96-1.91.67.1,1.21-.11,1.6-.64.81.66-1.6,2.83-2.56,2.55ZM29.86,76.86c-.53-.59-3.46-.15-4.06.18-.94.49-1.72,1.2-2.44,1.97-1.15,1.24-1.18.19-2.66.57-2.08.53-2.78,1.42-5.06.85-1.02-.29-2.14,1.25-2.88.64-.3-1.83,1.48-2.34,3.03-2.51,2.15-.23,3.36-1.15,5.03-2.6,1.92-1.66,3.77-1.95,6.15-2.77,1.99-.68,9.9-1.15,9.45-4.24-.98-1.24-3.56.38-4.63.64-1.83.43-3.78.78-5.61,1.42-2.04.71-3.9,1.12-5.69,2.35-.9.62-1.78,1.29-2.54,2.09-1.04,1.1-1.33.66-2.7,1.08-1.98.61-1.58.68-3.2-.16-1.31-.67-3.15,1.95-3.75,2.79-1.12-.54-.71-2.54-.96-3.51,1.88-.94,3.74-1.92,5.48-3.1,2.8-1.92,5.41-4.14,8.08-6.12,5.28-3.9,12.66-4.65,17.67-9.17,1.16-1.05,2.86-.83,4.32-1.7,1.78-1.06,3.68-1.91,5.55-2.79,3.28-1.54,5.59-3.69,8.45-5.81,2.54-1.65,5.57-3.1,6.83-5.86.52-1.15,3.44-4.49,5-4.66-.55,3.06-2.44,5.62-3.2,8.61-1.13.32-3.2,3.76-3.91,4.85-1.35,2.09-2.57,4.39-4.14,6.31-1.48,1.8-3.29,3.35-4.42,5.41-.95.03-1.16-.93-2.23-.64-1.35.3-2.4,1.14-3.57,1.79-1.04.58-3.76,1.6-3.9,3-.25,2.49,3.97-.06,4.61-.4.45-.24,2.23-1.05,2.54-1.2,0,0,0,0,0,0,.06-.02.06-.02.03,0,.39-.15-.04.4-.03.01,0,0,0,0,0,0-.1,2.19-5.39,5.15-7.03,6.37-.68,2.04-4.21,4.91-5.75,6.38-.51,1.28-1.81,2.49-2.68,3.54-.9,1.11-2.29.44-1.25-.73.66-.75,1.54-1.35,1.37-2.49-.8-.71-1.9.23-2.24.96-.8-1.71-2.06-.23-3.04-1.33ZM31.94,96.04c.14-.46.28.03.64,0-.08.4-.64.32-.64,0ZM32.58,89.66c-.03-4.69,3.84-6.16,6.08-9.88,1.4-1.27,2.16-3.16,3.83-4.14,1.08-1.56,2.75-2.58,3.83-4.14,3.33-1.16,5.65-4.74,7.94-7.19.66-.71,1.3-1.44,1.65-2.37.95-.3,1.71-.9,2.4-1.59,1.37-1.36,2.38-2.47,3.41-4.12,1.35-2.15,2.8-4.25,4.32-6.28,1.23-1.63,3.91-3.85,4.06-5.89.06-.84-.09-1.69-.13-2.52.59-.76.94-1.69,1.24-2.6.23-.69.71-3.39,1.45-3.5,1.6-.23,1.74-1.96,2.02-3.24.32-1.44.49-2.45.96-3.83.64-1.91-.55-1.41-1.12-2.57-.63-1.26-.66-3.9-.7-5.31.05,1.76-.16-1.33,0,0-.14-1.11.87-1.72.64-2.87,1.09-.15,4.05,7.63,4.27,8.73.44,2.26.99,3.91.8,6.29-.14,1.8-.45,3.58-.6,5.38-2.04,2.6-2.55,6.57-3.8,9.6-.71,1.73-2.26,3.77-3.46,5.26-1.13,1.4-1.28,3.15-2.47,4.49-2.62,2.96-5.07,6.02-7.36,9.2-1.1,1.53-2.32,3.05-2.72,4.93-1.62,1.23-3.13,2.58-4.64,3.94-3.24,2.93-6.99,5.42-10.07,8.49-2.27-.12-4.24,1.84-6.12,2.93-1.83,1.06-3.73,2.03-5.71,2.81ZM54.32,94.13c-.03-.39.06-.57.16-.62.36-.55,1.18-.77,1.12-1.61.99-.22.54,1.26,1.6.96-.49,1-2,.92-2.88,1.28ZM61.03,90.94c-.17-.16.23-.4.32-.32.17.16-.23.41-.32.32ZM62.95,89.66c-.16-.17.23-.41.32-.32.17.17-.23.41-.32.32ZM94.7,40.47c.25.94,2.44,2.65,3.41,2.65-.07,1.16-.97,2-.96,3.19-1.72-.28-3.46.03-1.93,1.99.84,1.08-.04,1.61-1.04,1.96-1.2.42-1.09.75-1.33,2.03-.48,2.49.01,5.14-2.09,7.09-.39,2.36-1.63,4.32-2.87,6.31-1.43,2.29-3.11,4.36-4.82,6.46-1.54,1.9-3.6,2.18-5.1,4.12-1.63.29-2.37,3.17-4.3,2.61-.93-.27-.5-.95-1.54-.79-.55.09-.7.41-1.19.41.11,0-.07,1.11,0,0-.06,1.04-1.49,3.17,0,3.82-.84.8-1.41,1.85-2.36,2.53-.71.5-1.79.36-2.36.97-.69.73-2.82,2.17-2.95,3.19-1.15-.28.22-2.22.02-2.98-.37-1.34-3.02.41-3.63.92-1.94,1.67-3.09,4.7-5.39,5.79-.7.34-.57-3.54-.59-3.74-1.41-.07-2.73.38-3.51,1.6-1.05-.34.97-2.88-2.21-1.6-1.54.62-2.31,2.13-3.12,3.47-.86,1.41-3.25,2.26-4.48,3.6-1.57,1.7-2.48,2.46-4.9,2.49.26-2.26-3.04-5.43-.13-6.44,2.54-.88,5.03-1.98,7.29-3.44,1.21-.78,1.92-1.37,2.52-2.67.56-1.2,1.17-1.31,2.32-2.08,2.32-1.53,4.37-3.41,6.54-5.13,1.75-2.24,4.25-3.75,6.1-5.9,1.74-2.01,3.5-4.09,5.1-6.24,2.75-3.7,7.01-7.31,8.62-11.69.88-2.41,2.94-4.35,3.97-6.81,1.01-2.42,1.56-5.01,1.79-7.62.54-1.44,1.54-2.42,1.7-3.94.12-1.13.25-2.25.35-3.38.21-2.41.35-5.11-.77-7.34-.29-1.21.4-1.71-.05-3.06-.38-1.11-.79-2.21-1.26-3.29-1.03-2.36-2.32-4.64-4.03-6.58-1.01-1.15-.36-2.05-1.35-3.2-.66-.77-1.45-1.46-1.94-2.37-1.16,0-3.16-.93-3.84-1.91.86-.45,1.18-1.46,2.24-1.6.49,1.11,1.4,1.9,2.36,2.59.96.68,1.98,1.3,2.75,2.2.37.85.81,1.7,1.49,2.34,1.05.97.46,1.89,1.26,3.12.75,1.15,1.81.43,2.96.45.91.02,2.6.43,2.92,1.42.99,0,1.88.29,2.78.67,2.63,1.13,3.75,2.95,5.27,5.32,1.11,1.71,1.64,4.35,3.45,5.48.33,2.55.3,5.2,1.01,7.7.42,1.46,1.2,2.2,1.2,3.72,0,1.09.09,2.18.34,3.25,0,0-4.3-3.89-3.73-1.7ZM29.38,80.42c.61,1.57.79.05,0,0h0ZM54.48,93.5c-.11.17-.18.36-.16.62.68-.28.38-.75.16-.62ZM70.62,16.02c.79.05,0-.85,0,0h0ZM50.51,64.15s-.02,0-.03,0c0,0,0,0,0,0,.01,0,.02-.01.03-.01ZM88.85,42.47c0-.1-.02-.19-.01-.31-.02.17,0,.26.01.31ZM88.84,42.17c.34,0,.08.51.01.31.08,1.27,1.56,1.15,1.27-.31h-1.28ZM88.22,56.09c-.26-1.38-1.64-2.31-3.09-1.29-.92.65-.24,1.84.36,2.5.91,1.02,1.7.24,2.71-.15-.37.14-.16-.68.02-1.06ZM88.22,56.09c.06.33.06.69-.02,1.06.31-1.37.18-1.39.02-1.06ZM80.18,66.82c-.09.08-.18.16-.29.21.42-.2.42-.24.29-.21ZM79.63,67.05c-.15-.02.35-.2.55-.24.93-.81.81-2.83-.61-2.98-.95.77-2.07,3.38.06,3.21ZM79.89,67.03c-.09.02-.17.02-.26.02.04,0,.12,0,.26-.02ZM81.17,72.45c.21-.57.21-.72.14-.67-.03.26-.08.49-.14.67ZM81.31,71.78c.23-2-.68-5.68-2.74-3.03-.83,1.07-.56,2.2.16,3.26.82,1.21,1.55.32,2.43.45-.23-.03.04-.61.14-.67ZM67.04,76.53c-.9,2.13,1.96,3.59,3.54,2.34.1-.22.47-.78.55-.83.76-2.52-2.9-4.34-4.09-1.52ZM71.12,78.04c-.05.15-.1.31-.18.46.19-.38.22-.49.18-.46ZM70.94,78.51c-.11.14-.24.26-.37.36-.07.15-.01.13.37-.36Z"/>
    </g>
  </g>
</svg>