<?xml version="1.0" encoding="UTF-8"?>
<svg id="Layer_2" data-name="Layer 2" xmlns="http://www.w3.org/2000/svg" viewBox="0 0 120.6 82.6">
  <defs>
    <style>
      .cls-1 {
        fill-rule: evenodd;
      }
    </style>
  </defs>
  <g id="food_icons" data-name="food icons">
    <g id="bbqribs">
      <path class="cls-1" d="M70.49.34c-.06-.27-.21,0,0,0h0ZM119.89,32.2c-.79-4.26-.97-9-3.22-12.73-1.2-1.98-2.21-4.16-3.33-6.19-1.08-1.97-2.24-3.03-3.74-4.69-2.82-3.12-6.14-4.6-10.16-5.73-2.79-.78-5.57-1.65-8.4-2.3-2.6-.61-5.07-.43-7.72-.48-1.18-.02-12.96-.27-12.84.26-7.29,0-14.54,1.28-21.69,2.58-3.58.65-6.76,1.16-10.07,2.67-2.87,1.31-5.87,2.2-8.71,3.6-6.3,3.1-13.66,6.8-18.4,12.08-2.15,2.39-4.43,4.82-6.67,7.13.01.94-2.08,3.81-1.78,4.34.3.52.5.28-.05,1.28-.44.81-.8,1.61-1.17,2.51-.7,1.72-1.46,3.42-1.8,5.26-.41,4.6-.11,8.39,1.62,12.73,3.16,7.96,8.6,14.87,15.86,19.57,7.53,4.88,17.29,8.51,26.31,8.52,5.76,0,11.34-.42,17.04-1.2,5.03-.69,9.83-1.96,14.83-2.42,4.38-.41,9.4-1.59,13.18-3.91,3.96-2.43,8.6-3.69,12.55-6.18,4.04-2.55,9.04-5.1,11.73-9.19,2.44-3.72,4.6-7.64,5.98-11.89,1.7-5.25,1.64-10.22.64-15.6ZM118.97,42.15c-.33,1.95-1.57,3.17-2.25,4.93-1.39,3.62-4.31,6.88-6.52,10.14-1.65,2.44-5.04,5.18-6.79,5.91-.46.2.29-.56,0,0,.29-.56.72-.99,1.28-1.28-.24-.81-7.73,3.07-8.52,3.57-4.71,3.01-8.96,6.27-14.47,7.46-5.59,1.2-11.19,2.35-16.84,3.24-2.64.41-4.4,0-6.97-.43-2.22-.37-4.7.12-6.95.25-4.95.28-10.04.49-14.92-.52-4.21-.87-8.07-3.41-11.86-5.38-3-1.55-5.27-3.23-7.71-5.32-1.62-1.38-2.87-2.58-4.31-4.17-.74-.82-2.44-4.01-3.68-3.8.06.32-.06.52-.36.59-.84-.08-2.51-4.34-2.86-5.1-.99-2.15-1.63-4.44-1.83-6.8-.09-1.02.37-2.83-.12-3.72-.19-.34-.75-.7-.76-1.13-.02-1.74,1.26-4.31,2.02-5.86,2.44-5,4.67-9.1,9.06-12.68,4.19-3.41,8.81-6.25,13.53-8.85,8.85-4.88,17.93-6.81,27.55-9.49,5.54-1.54,10.68-2.29,16.44-2.12,4.35.13,9.13.96,13.41.65-.22-1.23,1.72-.22,2.66-.1,1.3.16,2.9.66,3.91,1.06,1.11.44,2.73.36,3.98.62,1.74.36,3.43.95,5.21,1.18,4.34.56,7.92,4.63,10.71,7.59,2.68,2.84,4.07,7.67,5.05,11.35.58,2.16.64,4.58,1.46,6.63.66,1.65,1.13,3.38,1.43,5.13.39,2.24.37,4.21-.01,6.44ZM85.17,7.97s-.1-.07-.15-.1c.04.02.09.06.15.1h0ZM58.27,10.57c2.56-.34,5.16-1.31,7.74-1.31s4.55-1.31,6.99-1.3c3.01.01,5.98.64,9,.66.21.06,1.92-.42,2.75-.59-.05-.16,0-.31.27-.16-2.27-1.59-6.56-.73-9.09-1.09-3.35-.47-6.64.53-9.96.82-2.26.2-4.63,1.76-6.99,1.35-.05.09-4.55,2.14-.71,1.62ZM85.19,7.99s-.02-.01-.03-.02c-.06,0-.21.02-.42.06.06.22.3.45.45-.05ZM16.35,44.17c.04-.11.07-.27.12-.48-.1.18-.13.34-.12.48ZM73.36,53.89c-.08.18-.13.36-.17.53-.13.77,1.02-.33.17-.53ZM83.12,38.16c-.05.26-.02.51.16.75.72-.62.08-.96-.16-.75ZM111.57,22.93c-.83-.33-2,.02-2.73-.59.97-1.46,1.41-5.14-.81-5.32-2.21-.19-4.3.88-6.23,1.82.19-2.71-2.48-4.26-4.76-2.65-1.14.81-1.96,1.96-2.9,2.97-.34.93-.38,2.03-.96,2.87-1.9-2.86-4.49-5.12-7.83-6.1-1.83-.53-3.22.58-4.58,1.73-1.7,1.44-2.02,2.2-3.77.53-1.79-1.7-2.8-3.24-5.39-2.65-1.44.32-2.69,1.06-4,1.71-.33,1.41,1.01,3.23,0,4.46-.49-1.94-.6-4.89-3.1-4.73-1.88.12-3.75.42-5.63.54-1.98.12-2.19,1.33-3.62,2.47-.77.61-1.17,1.04-.44,2.05-.43.22-.74.55-.92.99-1.1,2.23-1.63,2.2-4.19,2.2-.85-1.43-.71-2.77-2.36-3.17-2.35-.56-6.62.13-8.79,1.4-.85.5-.54,7.94-3.88,4.87-2.68-2.47-3.6-.43-6.7-.55-.2.57-1.92,2.16-2.5,2.69-.59.54-2.39-.14-2.3,1.14-1.42,1.6,2.33,3.88,2.8,5.14-.12-.32-8.68.57-9.73.73-2.35.36-4.43,3.14-4.21,5.52.47,5.22,4.88,6.66,9.54,6.14-1.63,3.82.78,6.4,2.88,9.24,1.61.07,2.9.64,4.64.64,1.85,0,3.29-.19,5.08-.62,2.56-.62,3.88-1.62,5.58-3.51,1.37-1.52,1.77-.53,2.69.86.73,1.11,1.31,1.57,2.65,1.66.58.04,1.1,2.27,1.42,2.82.77,1.31.91,1.63,2.1,2.62,1.09.91,1.94,1.67,3.04.56,1-1,1.73-1.99,1.57-3.47-.18-1.68-2.63-3.77-1.85-5.15.62-1.09,1.34-3.65,2.82-3.75.15,1.73,1.26,2.83,2.24,4.14.69.54,2.02-.13,2.56.64.07,2.35.99,4.6,3.52,5.1,6.21-.65,3.71-5.62,1.95-8.72-.34-.6.64-1.5,1.04-1.8.81-.63,1.26-.38,1.38.75.76,1.32,1.84,2.41,2.98,3.4-.66,1.08-.32,2.6.04,3.72.44,1.37,2.82,1.39,4.12,1.7,1.16-.19,2.52-.26,3.52-.96,0-1.5.09-2.93-.28-4.38-.2-.78-1.5-6.08-.36-6.46.52,2.09,2.42,2.99,4.39,3.31,1.91.31,3.42-.7,5.2-.44-.09,1,.42,2.66-.32,3.51-1.54,0-2.62.54-2.9-1.19-.45-2.87-1.82.09-1.48,1.73.47,2.25,6.29,1.6,6.29-1.1,0-1.65-.38-3.16.74-4.44.74-.86,1.49-1.71,2.14-2.65-.31,2.24,2.23,1.91,3.67,2.32,2.17.61.55,3.91.95,5.58.56,2.35,3.95,1.6,5.2.21,1.41-1.56,1.24-4,.73-5.88,2.22-1.67,2.9-3.94,2.56-6.69-.51-2.25-.62-4.8-1.43-7.05-1.7-4.8-5.42-7.31-7.99-11.45-1.29-2.08,1.6-5.15,3.46-6.13,2.46-1.3.83,3.11,2.33,3.95,1.82,1.03,2.14-1.11,3.99-1.94.99-.44,2.45-1.05,3.47-.32-.04,1.31-.31,2.09-1.3,2.94-2.56,2.2,1.09,1.96,2.62,1.8.82-.09,1.87.53,2.33,1.26.84,1.34-1.73,1.34-2.42,1.35-2.41.02-5.85-.2-8.09.53-2.15.71-1.17.99-1.46,2.32.04-.17,1.89.16,1.99.24,3.07.29,6.31.15,9.2-.79,1.14-.37,2.79-.72,1.85-2.11-.97-1.44.2-1.15,1.02-1.17-.29-1.14-.88-2.43-2.07-2.91ZM16.59,44.53c-.15-.09-.23-.22-.25-.36-.25.81-.3-.53.12-.48-.64-.08-.32-2.79-.32-3.19.53.32.49,4.02.45,4.03ZM29.57,54.53c.34-1.15,1.21-1.77,1.92-2.55-.66.73-.35-1.06-.06-.22-.07-.32.02-.43.31-.3.43.43-1.2,3.07-2.16,3.07ZM42.98,44.73c-.2,1.37-1.11,1.58-1.9,2.79-1.24-.63-1.95-2.3-2.56.32-.75-.14-.48-3.08-2.15-.87-1.12,1.47-1.71,3.3-2.96,4.7-.73-.55,1.07-4.99-1.55-2.83-.26.22-.98.92-1.28,1.31-.02.09-.03.17-.04.24,0-.08,0-.14.01-.2-.07.09-.12.17-.11.2-.25-.14.18-1.56.11-.2,0-.01.02-.02.03-.04.29-1.25,1.92-4.07,1.25-4.71-1.01-.96-1.93.75-2.42,1.7-1.03,1.98-1.7,1.02-1.44-.76.31-2.15-1.33-2.81-3.18-1.72.61-2.24-1.56.07-2.24,0,.06-.47-.05-.89-.32-1.27-1.17.98-2.03,2.32-3.52,2.87.34-1.25,1.63-1.9,1.92-3.19-.27-1.16-1.57.04-2.24,0-.08-1.51-.4-3.13,1.35-3.28,1.14-.1,2.27-.18,3.41-.23,2.05-.09,5.85.9,7.6,0,2-1.03,4.2-1.32,6.51-1.76,1.84-.35,2.38-.02,3.72,1.13.96.81,1.49.58,2.68.72,3.63.43,7.19-4.49,10.78-5.09,3.82-.64,9.5-1.66,10.3,3.73-2.03-.33-4.03,2.07-5.82.92-1.15-.74-.97.35-1.85.36h-5.12c-.89,0-3.48-.44-4.18.14-.92.76-1.79,1.59-2.76,2.31-1.12.84-1.82,1.32-2.03,2.74ZM64.25,41.29c.31-.43.33-1.15,1.12-1.11-.03.6-1.8,2.15-2.12,1.84-.17-.17.73-.59.84-.56-.2-.04.14-.22.16-.17ZM50.67,61.86c-.94-.6-1.22-1.75-1.92-2.55-.1-.36-.09-.46-.05-.44.03-.71.71-.99.69-1.79,1.08,1.2,3.12,3.29,1.28,4.78ZM63.94,58.3c-2.34.2-1.71-1.67-2.72-3.13.04-.1.07-.15.11-.17.39-.51,1.4-.3,1.49-1.1.85.45,2.08,4.33,1.12,4.41ZM73.33,56.14c-.21-.61-.28-1.14-.14-1.71.02-.13.07-.3.17-.53,1.34.32,1.57-1.25,2.04.58.29,1.13.91,2.03.84,3.24-2.2,0-2.24.35-2.91-1.58ZM99.89,52.51c-.03.99-.39,1.82-1.15,2.17.11.14-.1.25-1.07.17-.84-1.44-.17-3.53-.32-5.1,2.38,0,2.62.35,2.54,2.76ZM95.07,31.61c.28.7-.97,1.64-.33,2.07.46.31,1.19-.11,1.64-.19.67.78,1.12,1.73,1.45,2.7.76,2.21,1.01,4.57,1.42,6.87-1.75,1.22-3.38,1.79-4.94.03-.91-1.03-2.66-1.67-3.13-2.49-1.03-1.82.73-1.3,1.04-2.31.77-.33.97-1.15.96-1.91-.11-.48-.67.04-.96,0,.34-1.02-.97-.89-.64-1.91-1.24.15-.94-1.11-2.04-.36-.37.33-.72.66-1.07,1.01-1.3.98-.8,2.69-1.33,4.3-.45,1.36.17,2.4-.46,3.66-.6,1.19-1.41,2.26-2.2,3.33-1.99,2.74-5.06-.85-6.04-2.58-.54-.95-1.25-1.78-2.09-2.62-.1-.1-2.88-2.34-1.08-1.95-.08-.65-.61-1.33,0-1.91,1.14.53,1.86,1.56,2.56,2.55,1.33.22,2.25,1.04,3.62.95,2.34-.14,4.3-2.05,5.38-4,2.16-3.88-7.68-5-9.81-3.86-.93.5-1.82,1.14-2.2,2.18-.43,1.2-.96.84-1.95,1.71-.85.74-2.84,3.14-2.4,4.29.22,1.42,4.47-.51,2.23,2.01-.28.32-1.01,2.15.1,1.48.29-.17.64-.81,1-.84.79-.04-1.36,4.07-1.39,4.38-.27,3.03-2.08.6-2.63-.93-1.28-3.55-5.46-2.1-7.22.42-1.09,1.55-2.17,2.8-4.24,2.72-.84-1.44-1.21-3.51-3.17-3.81-2.41-.36-4.55,2.67-6.41,3.81-.91,1.2-1.25,3.03-2.88,3.51.12-1.56-1.09-1.96-2.24-2.55,1.85-2.75,5.49-3.88,6.39-7.33,3.89-.26,7.89.75,11.74-.05,3.63-.75,5.27-4.89,4.88-8.24-.39-2.45-4.02-4.14-6.15-4.14-4.13,0-7.37.39-10.93,2.61-2.77,1.73-5.14,4.41-8.21,1.77-2.23-1.92-7.39-.02-9.92.77-2.58.8-.67-4.82-2.5-4.82.03.39-.47.2,0,0-.47.2.8-.58,0,0,.81-.58,1.95-.74,2.55-1.59.85.52,1.42,1.35,2.24,1.91,1.77-.01,3.94,1.26,4.94-.43.94-1.58,3.25-2.36,2.54-4.49-.65-1.97.96-1.67,2.48-2.05.76-.18,2.39-1.06,3.14-.53.85.6,2.45,3.12,2.05,4.04-1.15,2.7.49,2.03,1.55,3.05,1.05,1,4.59-.67,4.1-2.18-.16-.49-.77-.49-.99-.92.11-.8.47-1.39.32-2.23,2.43,0,4-3.33,4.47-5.42,2.01.09,3.6-2.29,4.66.45.73,1.89,1.3,4.17,3.85,2.76.78-.43,1.26-1.21,1.71-1.93.62.14.9.68,1.6.64-.95.69-1.68,1.62-2.88,1.91.19.74,1.46.16,1.6-.32.56.8-.77,1.59-1.11,2.18-.85,1.47.86,2.1,1.43.69,1.41.83,1.04.82,2.87.64.19,1.05-.94,1.44-.64,2.55,1.52.09,1.99-1.67,1.91-2.87-.17-2.55-1.5-.12-2.87-.32.1-.3,1.38-2.53,0-2.23,1.92-1.86,1.77-5.23,2.24-7.65.99.07,1.02,1.21,1.28,1.91.74.65,1.62,1.13,2.24,1.91,1.16-.05,2.97.02,4.16.32-.66,1.88-.95,3.1,1.33,3.85,1.37.45,2.57-.27,2.99-1.7.68-2.28-.66-.42-1.31-.61-.81-.23-.02-2.02-.14-2.49.96.14.8-.85,1.6-.96.8.31,1.41.88,1.94,1.53.86,1.06,1.56,2.33,2.85,2.93.41.89.9,1.77,1.55,2.52.98,1.12.34.68.35,2.04.01,2.13.88.47,1.93.54,0,2.77.97.75,1.57,2.27ZM84.24,35.08c3.23,0,.16,2.86-.96,3.83-.3-.41-.28-.65-.16-.75.17-.94,1.43-1.98,1.12-3.07ZM64.25,41.29c-.05.06-.1.12-.16.17.13-.1.16-.15.16-.17ZM48.71,58.87c0,.13,0,.27.05.44.5.58.08-.39-.05-.44ZM61.32,54.99c-.04.05-.08.1-.11.17.44.65.31-.33.11-.17ZM97.66,54.85c.43.04.78-.03,1.07-.17-.2-.25-1.51-.58-1.07.17ZM101.57,29.9c-.67-.06-1.34-.14-1.99-.24,1.59.25,2.05.28,1.99.24ZM19.66,29.03c.45-.53-.02-.66,0-1.28.52-.5,1.07-.95,1.65-1.37,1.77-1.28,3.74-2.27,5.53-3.53,1.4-.99,2.74-1.57,1.78-3.07.82-.18,2.28-.12,2.53-1.17-.27.56-2.04.42-2.32.22-2.34.63-4.21,2.11-6.33,3.55-1.63,1.11-5.85,3.61-5.71,6.01,1.09-.67,1.64.92,2.88.64ZM28.82,18.83c.73-.2,1.5-.32,2.35-.32-2.06.01-2.54.18-2.35.32ZM85.19,26.48c.16-.73.16-.86,0-1.59-1.16.23-1.71,1.06-1.6,2.23.74.15,1.23-.72,1.6-.64-.27-.06.22-.98,0,0ZM84.87,26.79c.28.06.13.77,0,0,.12.69-.53.86-.32,1.59,1.59-.18,2.38-1.37,2.56-2.87-1.09-.24-1.61,1.41-2.24,1.27ZM108.93,39.55c.08.11.15.22.24.32.11-.5-.43-.69-.24-.32ZM111.11,36.7c-1.5-1.13-2.96-4.64-4.98-4.5.2.03-.23.31-.35.31-.11.43.6.68.51,1.3-3.96-1.97-.71,2.39-.64,4.14,1.07,1.53,1.05,4.61,3.69,4.04,2.36-.51,3.71-3.83,1.76-5.29ZM109.17,39.87c-.13-.14-.19-.24-.24-.32-.63-.82-.94-1.85-1.04-2.87,1.97,1.2,1.66,1.49,1.28,3.19ZM105.79,32.51c.02-.09.07-.19.19-.3-.24.23-.25.3-.19.3ZM9.59,42.47c-.53-.61.27-2.46-.25-3.07.27.4-.28,1.13-.23-.17-.13,3.06-1.27,6.54.96,9.24,1.15,2.27,2.9,6.63,5.44,7.65-.95-3.44-3.25-6.28-4.41-9.63-.52-1.52-.48-2.82-1.51-4.02ZM9.11,39.23c.1.03.17.1.23.17-.05-.07-.12-.13-.23-.17ZM96.7,60.27c2.05.13,2.96-.88,3.84-1.91-1.49.43-3,.83-3.84,1.91ZM21.9,62.82c-.2-.46-.38.03,0,0h0ZM26.84,63.18c-2.08-.71-2.7-.16-4.62-.05.73-.04,1.16,1.23.6.73,2.51,2.74,7.36,4.11,10.58,5.18,2.62.86,5.26,1.64,7.99,2.07.99.16,4.64.73,5.44-.33-4.14-2.44-9.03-3.2-13.46-4.94-2.19-.86-4.31-1.9-6.53-2.67ZM22.82,63.87c-.21-.23-.42-.48-.6-.73.27.38.46.61.6.73ZM21.9,62.82c-.06.27.12.3.32.32.06-.27-.13-.3-.32-.32ZM87.21,65.07c-.15.08-.75.25-.1-.02-2.87,1.21-5.9,1-8.92,1.65-2.48.53-4.87,1.36-7.27,2.16-2.7.9-5.3.62-8.06,1.11-3.46.6-.23.88-.37,1.78-.42.02-1.11-.04-.96.64h4.16c-.04-.44-.26-.76-.64-.96,2.21.18,4.23-.91,6.24-1.63,2.22-.79,4.51-1.35,6.79-1.92.42-.11,9.97-1.92,9.52-2.71-.14-.03-.27-.06-.41-.09ZM87.11,65.05s.07.02.1.02c.06-.03.06-.05-.1-.02Z"/>
    </g>
  </g>
</svg>