<?xml version="1.0" encoding="UTF-8"?>
<svg id="Layer_2" data-name="Layer 2" xmlns="http://www.w3.org/2000/svg" viewBox="0 0 75 114.72">
  <defs>
    <style>
      .cls-1 {
        fill-rule: evenodd;
      }
    </style>
  </defs>
  <g id="food_icons" data-name="food icons">
    <g id="beerbottle">
      <path class="cls-1" d="M28.72.53c.17,0,.34,0,.51.02-.22-.02-.38-.02-.51-.02ZM7.11,79.29s.04,0,.07,0c0-.01,0-.02,0-.03-.03.01-.05.03-.07.04ZM14.53,63.66c-.06,0-.12,0-.17,0-.2.02-.26.03.17,0ZM9.95,44.55s.06,0,.1-.01c0-.02,0-.03,0-.04-.04.02-.07.04-.09.05ZM15.49,3.41c-.77.51,4.57.2,0,0h0ZM15.49,10.11c0,2.02,2.87-.54,0,0h0ZM14.67,63.63s-.09.02-.14.03c.82-.09.5-.06.14-.03ZM41.06,73.98c-.04-5.65.37-11.68-.51-17.26-.66-4.09-.74-10.1-3.67-13.35-1.42-1.59-3.17-2.65-5.02-3.57-1.49-.74-1.55-3.31-1.71-4.79-.22-2.23-.36-4.37-.71-6.62-.37-2.33.03-4.69-.46-7-.54-2.62-3.13-12.53.05-13.44,3.58-1.03,2.31-5.3.2-7.41,1.17,1.16-1.91.03-.51-.02-2.89-.1-5.84.87-8.58-.16-1.86-.7-5.91-.21-7.72-.05-2.81.26-2.93,2.59-3.03,4.78-.05,1-.58,1.81.05,2.75.51.76,1.05,1.25.93,2.26-.09,4.03-.05,8.06.1,12.09.13,3.33.83,6.93.41,10.22-.26,2.03-.74,4.03-1.01,6.06-.21,1.53-.87,1.96-1.47,3.29-1.17,2.6-4.37,3.66-5.34,6.25-.41,1.11-1.16,2.03-1.97,2.88.16,1.04-.02,1.95-.31,2.94-.35,1.19.29,2.8-.65,3.75,0,1.18-.54,3.48.51,4.28,1.18.9.46,4.2.46,5.52,0,10.45.59,21.03,1.3,31.49.2,2.92.41,5.84.55,8.76.11,2.02,1.84,3.75,3.58,4.78.19.11,4.17,2.29,4.16,2.23,2.17.17,4.29-.09,6.41-.54,2.73-.58,5.5-.41,8.3-.41,1.95,0,3.1-.95,4.94-.74,3.94.45,9.79-1.43,10.44-5.92.76-5.29.27-11.25.29-16.73.01-5.45.03-10.9-.01-16.35ZM15.49,3.41c3.39.15,6.74-.29,10.12-.36,1.67-.03,2.95-.42,3.3,1.53.32,1.74-.92.95-2.06,1.56-3.85,2.08-8.47,2.22-12.96,1.1.94-.99.67-2.75-.96-2.55.25-1.08,1.83-.79,2.56-1.27ZM25.06,12.2c.06,1,.09,2.03.34,3.01-3.32.12-6.63.49-9.91.96v-6.06c2.64-.49,5.28-.95,7.97-.97,2.02-.02,1.51,1.35,1.59,3.06ZM9.73,51.55c.04-1.1,1.06-1.71.96-2.87h-.87s-.09.05-.09,0h.09c.24-.18.91-1.23,1.42-1.68,1.27-1.13,2.3-2.26,2.32-4.06-1.15,0-1.99.56-2.89,1.19-.13.09-.43.25-.62.36,0,.01,0,.03,0,.04-.23.1-.21.08-.1.01-.29-.04.04-1.1.09-.05,0,0,0,0,0,0,0-1.46,3.11-3.15,4.14-4.01.51-.42,4.05-3.88,2.04-3.89-.69,0-.77-3.17-.31-3.54,1.8-1.44.17-1.96-1.4-1.58-.19-.96.38-1.62.32-2.55,1.93,1.08,4.62,1.25,6.77.98.72-.09,5.54-2.04,3.24-3.03-1.16-.5-2.49.59-3.61.78-1.65.08-3.46.09-5.02-.57-2.35-.99-.69-7.25-.73-9.31,2.89.19,5.74-.24,8.63-.31,1.85-.04,1.47.67,1.79,2.27.21,1.09.38,2.19.49,3.29.24,2.3.03,4.69.47,6.95.42,2.19.8,4.38.76,6.62-.02.87.77.98,1.19,1.57.57.79,0,1.25.72,2.22,1.32,1.77,3.01,3.22,4.63,4.7,2.95,2.7,3.03,10.36,3.37,14.14-1.46-.59-1.79-.35-3.04.91-.8.81-1.52,1.7-2.43,2.39-1.73,1.29-1.89.06-3.49.21-1.3.27-2.49.87-3.83.96-.05-1.03,1.73-2.89-.71-2.33-1.42.33-2.57,1.08-4.09.74,0-.36.11-.68.32-.96-1.01.22-1.96.22-2.99.11-1.92-.2-.68-.51-1.87-1.53-1.24-1.06-2.95.56-4.41.78.14-.62.68-.9.64-1.59-1.02-.16-1.53.8-2.55.64.26-.8.91-2.39.32-3.19-.27-.92-1.09.17-1.6,0,.14-.96,4.28-4.93,1.92-4.78ZM11.72,62.85c1.72-.85,1.26.78,2.64.81.09,0,.2-.02.31-.03,1.36-.18,2.45-.89,3.38-1.88.6.41-.14,1.32.32,1.91-3.62.32-7.24.56-10.87.64.03-.79,3.47-1.08,4.22-1.45ZM29.56,109.6c.33-.07-.15-.64-.33-.03.21-.73,1.07-.87,1.28-1.59,1.07.25,0,1.56-.95,1.62ZM37.88,86.47c-.02,4.53-.06,9.05-.05,13.58,0,4.1.42,8.28-4.45,9.2.45-4.9-3.29-2.18-5.75-.64-1.16.28-1.19-1.07-2.23-.96-1.04-.06-1.42.63-2.07,1.25-1.01.96-1.33-.6-2.41-.29-1.15.12-1.45,1.41-2.56,1.59-.99.08-.69-1.24-1.6-1.28-1.16-.06-1.46,1.22-2.55,1.28-.16-1.76-2.13.08-2.56.64-.42-.2-.99-1.94-1.6-.96-.77-.98-1.05-2.27-1.92-3.19,0-1.91-.84-3.51,1.42-3.51,3.21,0,6.56.26,9.75-.19,4.9-.69,10.95-.86,15.54-2.79,1.02-.43,2.4-1.06,1.84-2.32-.49-1.09-1.09-1.14-2.16-.81-1.49.46-2.47,1.28-4.03,1.48-1.24.16-2.48.37-3.71.6-2.81.53-5.65,1.48-8.51,1.48h-9.51c.14-.8,1.64-3.58,1.05-4.13-.82-.75-1.04-.17-1.04-1.51.06-.5-.05-.96-.34-1.37-.04-1.6-1.66.81-1.17-1.62.26-1.32.75-2.42.54-3.8.4-1.41-1.66-.3-1.05-2.32.36-1.21.51-2.61,1.06-3.7.27-.53,1.38-3.77-.24-3.13-.05.02-.24.11-.4.19,0,.01,0,.02,0,.04-.31.13-.24.09-.07,0-.33-.13.17-2.48.07-.04,0,0,0,0,0,0,.09-1.87,1.45-3.31,1.76-5.12.44-2.61-1.73-2.24-2.4-.27-.84-.54,2.66-4.86.99-4.99-.76-.06-1.02,1.25-1.72,1.32-.41.04-.22-3.57-.22-3.98,6.88.85,13.86.12,20.78.32,1.33-.22,2.49-.86,3.7-1.41,1.12-.51,2.8-.42,3.74-1.13,1.12-.84,2.29-2.54,3.48-3.11-.14.06.58,10.9.59,12.08.05,4.5.04,9.01.01,13.51ZM71.85,19.53c.08.04.15.09.22.15-.12-.11-.19-.15-.22-.15ZM74.95,106.14c-.19-.79-2.45-1.96-3.2-2.3-1.24-.56-2.95-1.33-3.98-2.23-1.62-1.4.72-4.42.86-6.33.18-2.36.48-4.72.79-7.07.64-4.87,1.23-9.74,1.04-14.66,1.4-5.34.92-11,.71-16.45-.2-5.05.41-9.82.54-14.81.06-2.62.31-5.24.23-7.86-.03-1.06-.12-2.12-.3-3.17-.27-1.6.25-1.11,1.13-2.28,1.22-1.62,1.54-3.17.34-4.85-.63-.89-.45-2.81-.95-4.18.01.18-.43-.43-.32-.43-.65-.36-1.6-.2-2.24-.06-1.24.27-.83-.32-1.79-.98-1.47-1-2.63.15-4.08.35-1.76.24-1.97.04-3.46.94-.64.39-2.62-.8-2.91.2-.56.56-2.88.13-3.88.6-1.45.68-2.67.65-4.15,1.41-1.71.87-2.99.49-4.12,2.14-.81,1.17-2.09,1.38-2.81,2.78-1.05,2.04.18,3.65.97,5.45.84,1.93.33,5.29.21,7.36-.27,4.56.24,9.1.54,13.68.68,10.14,2.66,20.44,4.9,30.35.66,2.88,1.38,5.76,2.22,8.59.68,2.28,1.96,4.66,1.96,7.04,0,3.05-.63,2.88-2.65,4.75-.94.87-3.02,1.52-3.56,2.71-1.99,4.39,8.38,5.03,10.32,4.92,1.54-.09,10.99-.05,11.24-1.86,2.13.29,6.99-1.32,6.4-3.75ZM67.96,33.38h-2.45c-2.15,0-4.14.1-6.26.39-2.02.28-4.28.18-6.2.83-1.52.51-3.02.84-4.64.69.11-1.15,1.21-1.58.96-2.87,6.65.67,13.21-.88,19.82-1.28,0,1.59.64,2.23-1.23,2.23ZM70.79,27.32c-.04-.39.46-.2,0,0-.09,1.26-1.41-.06,0,0ZM44,28.11c.27-2.32,1.58.3,2.5.17,1.2.32,1.54-1.4,1.13-2.18-.93-1.81.16-1.75,1.74-1.01,1.07-.11.71-1.55,1.39-2.07,1.34-1.02,1.07,1.28,1.8,1.48,1.59.45,1.41-1.06,1.64-2.01.36-1.5,1.3,0,1.26.81-.03.87.46,1.67,1.46,1.04.98-.62-.05-2.33.75-3.07,1.2-.17,1.16,1.07,1.3,1.88.6,3.27,2.82-1.91,3.49-1.88.05,1.28-.46,2.84,1.41,2.6.78-.1,1.27-.59,1.69-1.19-.23.28-.03-.38.08-.5-.19-.95-1.15-2.62.53-2.22,1.07.25,1.38.95,1.12,1.8-.92,3.02,2.26,2.49,2.85-.18,1.56.83-.67,3.05-1.2,3.58-1.46,1.48-1.02.87-1.04,2.79-4.59.64-9.21,1.16-13.83,1.81-2.55.36-5.13.7-7.67,1.01-2.03.25-2.64-.78-2.42-2.68ZM51.29,76.1c-1.33-2.02-.71-4.6-1.22-6.81-.53-2.25-.89-4.54-1.18-6.83-.61-5.03-.8-10.1-.85-15.16-.03-3.12,0-6.25.03-9.37.03-2.1.82-1.31,2.61-1.4,1.22-.06,2.43-.17,3.64-.3,4.86-.55,9.64-1.45,14.55-1.24-.61,7.21-.13,14.45-.29,21.68-.14,6.46-1.56,12.77-1.35,19.17.11,3.34-.29,6.49-.48,9.87-.2,3.63.29,7.74-.42,11.14-.34,1.63-2.88,3.5-3.28.54-.49-3.64-1.56-.06-2.81-.23.36-.68-.68-.9-.21-1.91.61-1.28.61-1.35-.75-1.28.3-2.18-.74-1.48-1.6-1.91-.94-.48-.34-2.79-1.03-3.62-.98-1.18-.07-2.79-.26-4.35-.17-1.35-1.09-1.25-.87-2.72.15-1.01.45-2.04-.08-3.02-.89-.25-1.4,1.92-1.52,1.8-.22-.28-.14-.45.24-.52-.96.06-.64-4,0,0-.56-3.54.19-6.99.32-10.52-2.24-.05-3.2,5.45-3.2,7.01ZM57.69,93.31c-.25.58-.34-.19-.32-.64.24-.58.34.19.32.64ZM51.61,107.02c.06,1.4-1.25.09,0,0-.03-.39.47-.2,0,0ZM52.57,106.38c-.11.29.36,1.65-.32,1.59.17-.46-.37-1.65.32-1.59-.69-.05.64-.82,0,0,.64-.82,1.29,1.02,1.28,1.91-1.27.18-.22-1.85-1.28-1.91ZM64.83,106.6c-.49.27-2.08.6-2.35,1.05-1.47-.21-.91-1.38-2.47-.31-.81.56-1.65.94-2.01-.33-1.1.14-.11,1.55-1.83,1.27-.92-.15-1.38-.9-1.84-1.62-1.49-2.32,1.43-2.3,1.44-4.75,2.3.32,2.89-.8,4.55.96.94,1,1.85-.18,2.42-.81,1.01-1.11,6.01,2.17,6.13,3.99-1.45,0-2.74-.17-4.04.54ZM73.35,105.74c-.16-.17.23-.41.32-.32.17.17-.23.41-.32.32ZM72.07,19.67c.04.09.07.19.1.28,0-.04-.03-.13-.1-.28ZM65.65,22.18c.03.14.04.26.02.36.05-.35.03-.42-.02-.36ZM55.77,101.92c0,2.02,1.36.19,0,0h0ZM49.37,32.42c.31,1.58,6.82.68,0,0h0ZM21.88,22.22c.75-3.29-3.07-1.15-4.04-.07-2.01,2.24,1,1.82.52,3.57,1.96.56,2.86.14,4.6-.83,2.15-1.19,1.54-3.88-1.09-2.68ZM21.88,22.22c.94-.43.26-1.1,0,0h0ZM59.92,36.89c-1.95-2.27-4.43,1.65-2.55,3.19,1.83-.09,2.7-1.14,2.55-3.19ZM58.64,37.21c.14.67-.22.84-.32,1.27-.93-.06-.77-1.51.32-1.27ZM49.05,38.48c.32,0-.4.89,0,0-.39.84-.77,1.63-.32,2.55,1.41.02,2.17-2.55.32-2.55ZM49.05,39.76c-.17-.16.23-.41.32-.32.16.17-.23.41-.32.32ZM65.6,40.03c.14,0,.27,0,.4.05-.3-.1-.4-.09-.4-.05ZM64.47,45.18c2.2,1.28,3.05-2.85,1.92-4.64-.21-.06-.78-.41-.79-.51-.97.05-2.13,1.13-1.2,1.96-.15-1.79,2.28-.35,1.19,1.42-.61.99-2.92.73-1.11,1.78ZM66,40.08c.15.12.28.29.39.47.14.04.11-.06-.39-.47ZM54.81,46.45s.09.07.13.1c-.02-.03-.05-.06-.13-.1ZM54.14,46.48c.2-.03.42-.05.66-.03-.59-.05-.72-.02-.66.03ZM54.93,46.55c.11.16-.68.01-.79-.08-1.8.29-2.04,2.47-.67,3.64,1.61,1.37,2.83-2.46,1.46-3.56ZM53.53,48.04c.83-1.1.78,1.64,0,0h0ZM62.24,54.7c1.52-.36,2.35-2.46,1.4-3.65-.06.2-1.46-.23-1.02-.39-2.55.53-3.08,4.67-.38,4.04ZM63.64,51.04c.02-.07-.11-.2-.52-.45.21.13.39.28.52.45ZM62.62,50.65c.16-.03.32-.06.5-.06-.25,0-.41.03-.5.06ZM53.93,55.81c.18.05.36.11.56.21-.35-.17-.51-.22-.56-.21ZM54.49,56.01c.08.09.15.2.21.32.02-.03-.03-.12-.21-.32ZM54.7,56.33c-.06.1-.91-.49-.77-.53-2.47-.67-2.98,3.07-.84,4.39,2.07,1.27,2.38-2.41,1.6-3.86ZM60.56,59.84c.41-.93.31-2.16-.96-2.23-.98.67-.73,2.49.96,2.23ZM60.88,71.32v3.19c-.39-.09-.72.02-.96.32,1.3,1.86,3-1.81,1.91-3.08-.32.12-.95.11-.95-.42ZM60.88,71.32c.44.01.74.18.95.42.32-.12.32-.39-.95-.42ZM30.16,76.38c-1.04.09-2.18.96-2.81,1.75-1.27,1.62-1.24-.19-1.62-1.22-1.39-3.68-3.47.32-5.12.45-.09-1.44-.6-2.78-1.6-3.83.61.64-.88.25-1,.04-1.49.3-2.02,1.76-3.47,2.51-.67-1.71-3.24-2.35-4.39-.73-1.22,1.73-.75,4.49-.72,6.47.72.51,2.49,3.07,2.41.48-.04-1.34-.9-3.98.47-4.94.62,1.4-.39,6,2.44,4.51,1.34-.7,1.2-4.21,2.99-5.47.82,1.31-.39,3.78.96,4.78,1.24-.15,1.63.62,2.74-.64.56-.64.99-1.43,1.73-1.91.62,1.48.97,3.38,2.96,3.22,1.37-.11,2.22-.97,3.2-1.82.95-.83,2.42,1.09,2.8-.86.26-1.36-.48-2.93-1.95-2.8ZM19.01,73.55c-.83-.1-1.06-.05-1,.04.3-.06.62-.09,1-.04ZM20.93,83.97c-3.47.7-8.38,2.78-8.65,6.8.1.18.33,1.28.36,1.69,1.63,2.58,6.9,2.16,9.31,2.77,3.14.79,9.27-1.04,8.51-5.13-.86-4.54-4.9-7.06-9.53-6.13ZM19.32,90.12c.08-.4.64-.32.64,0-.28.2-.57.39-.64,0ZM20.6,89.49c-.17-.17.23-.41.32-.32.16.17-.23.41-.32.32ZM24.44,87.57c.57-1.31,2.37.53,2.56,1.59-.78-.6-1.55-1.22-2.56-1.59ZM12.64,92.46c-.14-.23-.27-.47-.35-.74.3,1,.38,1.05.35.74ZM12.29,91.72c-.04-.33-.03-.64-.01-.95-.06-.11-.08.1.01.95ZM58.45,103.27c-.83.28-1.53,1.04-2.36.56-.85,2.95,2.67,1.68,3.2-.64-.24,1.08-1.11.38-.84.08ZM58.45,103.27c.26-.09.54-.14.84-.08-.49-.1-.74-.04-.84.08Z"/>
    </g>
  </g>
</svg>