<?xml version="1.0" encoding="UTF-8"?>
<svg id="Layer_2" data-name="Layer 2" xmlns="http://www.w3.org/2000/svg" viewBox="0 0 81.22 114.44">
  <defs>
    <style>
      .cls-1 {
        fill-rule: evenodd;
      }
    </style>
  </defs>
  <g id="food_icons" data-name="food icons">
    <g id="beermug">
      <path class="cls-1" d="M42.11,6.08c2.05-1.34,3.1-3.79.78-5.56-.91-.69-1.86-.79-2.52.21-.22.33-1.34-.51-2.08-.67.22.13-.84.59-.54.25-4.3,3.7-.33,8.84,4.36,5.77ZM39.66,2.26c.81-.07,1.11.71,1.92.64-.49,1.36-1.32,3.96-3.2,2.16-1.46-1.4,1-1.88,1.29-2.8ZM39.66,2.26c-.3.97.94-.08,0,0h0ZM37.75.31c.11-.09.2-.19.31-.28-.16.13-.26.22-.31.28ZM38.06.03c.07,0,.15.02.23.03-.04-.02-.11-.03-.23-.03ZM27.76,10.06c.1.08.22.14.39.18.04-.12-.24-.18-.39-.18ZM27.52,11.21c3,2.62,3.98-2.06,2.08-3.99.36.49-1.42-.06-.78-.16-2.41.18-3.32,2.39-1.3,4.16ZM28.64,8.58c.74,1.09-.33,1.1-.49,1.65-.58-.11-.55-.18-.39-.18-.7-.59.39-2.21.88-1.48ZM28.81,7.05c.2-.01.4-.02.62,0-.31-.02-.5-.01-.62,0ZM13.45,17.57c3.9.95,4.34-4,2.23-5.42-4.64-1.23-4.46,4.03-2.23,5.42ZM14.41,15.65c-.47-.28-1.01-.48-.96-1.28,1.15-.98,2.06.69.96,1.28ZM51.89,17.75c-.11.28-.24.54-.41.77.47-.63.51-.8.41-.77ZM51.49,18.52c-.49.07.22-.71.41-.77.65-1.65.24-3.98-.89-5.21-1.35-1.48-4.56-.04-5.24,1.55-1.55,3.63,3.19,4.77,5.72,4.43ZM48.29,14.7c1.39.19,1.58-.16,1.6,1.91-1.24.25-1.59-.57-1.6-1.57.03.62.34-.3,0-.35ZM2.58,35.1c5.68.45,1.46-4.3,1.96-6.6.44-2.03,2.7,1.26,3.38,1.76,1.64,1.2,1.66-2.2,2.74-2.72,1.27-.61,1.78-2.06,2.94-2.81,1.69-1.08,2.65,1.14,3.69,2.41.8.04,1.23-.4,1.59-1.04.52-.92.52-.21,1.44-.21,1.94,0,.47-2.28,1.19-3.55.8-1.41,1.66-2.73,3.45-2.85,1.34.18,1.05,2.5.65,3.26-.99,1.88,2.1,2.85,3.4,1.98.79-.53,1.48-1.2,2.22-1.8.52-.79.87-.8,1.07-.04.19.1.72-.8.98-.86-.04,1.34-.41,4.06,1.6,4.14,1.74-.09,1.84-1.9,2.88-2.87-.83,3.06,3.57-.19,4.48-.32.23,1.96,1.03,3.6,1.82,5.36.51,1.13,2.27,1,3.02.1.8-.96.49-1.22,1.43-1.42.44-.09,1.62-1.19,2.02-1.51.54-.43,1.58-.59,2.24-.64,1.61-.14,1.64,1.97.3,2.6-2.3,1.09.25,3.13,2.02,2.27.65-.32,1.17-.81,1.9-.97,1.42-.31.54-.61,1.69-1.18,2.77-1.37,1.8,1.82,2.16,3.2.54,2.11,2.39-.7,2.82-1.11.79,1.54,1.26,1.83,1.25,3.69,0,1.02.47,2.07,1.65,1.29,1.88-1.25,3.6,3.77,1.75,4.37-3.07,1,1.09,3.1.12,4.45-.65.9-1.4,1.34-2.17,2.08-1.25,1.2,1.16,1.39,1.82,1.06,2.42-1.2,2.35-3.67,3.39-5.63,1.05-1.99.05-6.18-1.6-7.53-.84-.7-1.74-1.33-2.7-1.85-.02-.61-.17-1.19-.47-1.72-.54-.95-1.54-1.48-2.54-1.84-1.1-.39-1.71-1.79-2.43-2.82-1.59-.04-3.24-.09-4.79.32-.02-1.45-1.37-3.62-2.89-3.71-2.57-.15-3.85,1.16-6.06,2.12.38-2.45-4-4.78-5.91-4.78-1.3,0-2.08.43-3.04,1.11-.3.21-1.22,1.21-1.59,1.12.44-1.65-2.82-2.71-3.88-2.38-1.29.4-1.84.23-2.93,1.21-.58.51-1.16,1.02-1.86,1.36.91-.54-.51-1.11-.28.14-.53-2.93-2.11-5.22-5.3-4-1.2.46-2.75,1.86-3.17,3.1-.34,1-.67.58-.82,1.74-.03.47-.24.83-.62,1.08.19-2.72-2.97-2.76-4.78-2.09-2.04.75-3.42,2.45-5.13,3.69-2.15-3.52-6.75-2.68-8.2.93-1.08,2.68-.03,7.03,2.12,8.95ZM30.89,37.43c1.82-.5,2.34,4.91,4.67,2.92,2.24-1.91-.21-5.04-1.65-6.85,1.27,1.6-2.57-.23,0,0-2.41-.21-7.59.2-7.99,3.51-.52,4.37,3.4.85,4.98.42ZM51.81,35.1c.1.06.17.15.26.23-.04-.06-.11-.13-.26-.23ZM49.86,38.4c.04,2.27,2.69,3.91,3.21,1.08.22-1.22,0-3.21-1-4.16.27.43-2.11-.11-.26-.23-1.32.08-3.99-.34-4.65,1.22-.69,1.62,2.67,0,2.71,2.08ZM65.56,60.92c1.71.62-.44-.84,0,0h0ZM21.76,104.59c.47-.05-.14-.67,0,0h0ZM81.22,69.53c-1.11-3.67-2.03-6.84-3.93-10.1-1.91-3.27-5.87-5.39-9.65-5.19-.9.05-1.82.13-2.72.07-1.18-.07-.64-1.47-.64-2.38v-3.44c-.87-.77-1.93-1.26-2.88-1.91-.05,1.8-.62,3.45-1.27,5.1,0,1.64.17,3.27.42,4.89.47,3.15,1.16,6.25,1.17,9.45-.74,6.97-.33,14.07.33,21.04-.18,3.43-1.25,6.75-1.28,10.2-1.08,2.42-1.13,6.87-3.3,8.4-2.44,1.72-3.16,2.38-6.04,1.16-.84-.36-2.29-.8-2.01.64.16.81.85.83,1.02,1.44.15.53-2.44.25-2.79-.17-1.15-.27-1-.49-1.68-1.19-.93-.97-3.91,2.13-5.03,2.15.48-.7,2.09-3.88,1.11-4.69-1.5-1.22-4.02,2.47-5.26,3.09.45-2.55-.94-1.7-2.24-1.91.22-.94-.67-2.76-1.75-1.62-.96,1.02-1.48.82-1.81-.49-.36-1.4-1.42-1.18-2.29-.35-1.24,1.18-2.77.87-4.37.87-1.55-1.9-3.27-3.96-5.45-2.09-.89.77-2.63-1.12-3.65-1.8-1.51-1-1.59-1.88-2.01-3.58-3.73-15.21-6.43-31.31-4.55-47.04.66.09.65.86.96,1.28.61.03,1.14.25,1.6.64-.11,2.08.39,1.84,1.92,2.24,2.44.64.02,6.27-.22,7.51-.5,2.64.99,2.02,2.46,3.64.72.15,2.31-.53,2.88,0,1.51,1.82,1.07,5.24-.33,7.01.07-1.01.05-5.32-1.72-4.69-1.07.38-1.08,1.73-1.8,2.46v15.39c0,4.31-.16,8.61.42,12.88.17,1.25.86,2.32,2.31,2.01,1.09-.24,1.2-1.51,2.07-2.03,2.34-1.37,3.04.73,3.84-2.84.47-2.06.31-4.18.31-6.29,0-1.06.31-10.17-.64-9.88-.67.82-.98,3.61-1.2,4.7-.35,1.71-.46,3.25-.42,5,.04,1.85.14,3.72,0,5.57-.16,2.03-.63,2-2.53,2.26-.17-4.54-.32-9.18-.32-13.71,0-1.31-1.24-8.52,0-8.93.1,2.07,2.16,2.34,3.83,2.23,1.52-.5,2.87-3.01,3.83-4.22,1.62-2.04.71-3.14-.89-4.63-.58-.54-.96-1.18-1.02-1.99-.88-.13-1.17.43-1.92.64.15-2.1-2.45-2.46-3.16-3.97-.51-1.09-2.26-.02-3.24-.81.58-1.57,1.19-3.09,1.28-4.78-.26-1.74-.81-3.41-1.28-5.1-.65-.69-1.68-.75-2.56-.64.1-.43-.04-.76-.41-.97-1.05-.56-1.52-.29-2.08-1.49-.03-.06-.01-1.73.15-1.66-1.67-.76-3.04.52-4.72.57-2.61.08-2.53-.11-2.53-2.83,1.01-1.36,4.21-2.1,3.85-4.17-.21-1.23-.71-.66-.19-1.71.32-.64.09-1.48-.14-2.09.32.83-.77-.5,0,0-1.14-.73-5.15-1.72-5.43.64-1.78.83.56,4.25.96,5.1-2.72.83-3.82,8.76-.64,8.29.61.41,1.79-.05,2.24.64-.09,1.23-.17,2.47-.26,3.71-.17,2.51-.31,5.02-.39,7.54-.13,4.79.59,9.41.68,14.19.09,4.66-.18,9.32.18,13.97.22,2.72,1.64,5.61,2.58,8.17.97,2.67,1.86,3.85,4.05,5.63,1.79,1.46,3.57,2.97,4.98,4.81,2.07.1,3.3,1.55,5.03,2.43,8.64,4.39,20.26,2.12,29.53,1.48,3.42-.24,10.1-3.16,11.35-6.58.51-1.37,2.15-8.42,3.77-7.66,3.44,1.59,8.18.31,11.53-1.31,4.45-2.15,3.46-7.19,3.64-11.66.21-5.51.25-11.03.36-16.55ZM21.54,72.38c-.07-1,.88-2.25.86-3.17.71.36,1.11,1.08,1.92,1.28-.49,1.2-2.07,1.35-2.55,2.55-.23-.3-.26-.52-.22-.66ZM5.14,38.29c.16.16-.23.4-.33.32-.16-.16.24-.41.33-.32ZM21.76,104.59c-.48-2.35.97-.34,1.27-.32-.36.33-.79.44-1.27.32ZM77.18,78.14c-.27,5.1-.64,10.19-.44,15.29-1.6.94-3.34,1.59-5.18,1.84-2.02.27-2.99-.2-4.74-.71-1.18-.34-1.62-.04-1.36-1.34.19-.93-.47-2.2.86-2.2,1.77,0,3.85.95,4.62-1.14.59-1.58,2.11-2.07,2.02-4.16-.07-1.61-.44-2.96-.24-4.6.56-4.65,1.53-9.43.76-14.12-.42-2.57-1.27-3.75-3.13-5.46-1.74.31-3.18-.05-4.79-.64-.51-.97-.38-2.16-.64-3.19,2.65,0,4.79-.47,6.87,1.34,1.87,1.63,3.09,3.07,3.83,5.44.72,2.32,1.78,4.86,1.77,7.29,0,2.12-.09,4.23-.21,6.34ZM66.12,87.53c-.67-7.46-.62-14.98-.57-22.46,5.94.81,5.72,6.41,5.23,10.93-.31,2.91-.59,5.82-.7,8.74-.08,2.02.27,2.29-1.41,3.2-.8.44-1.57.58-2.48.39,1.93.4-.49-6.64-.07-.81ZM21.54,72.38c.02.23.07.46.22.66.33-.83-.14-.97-.22-.66ZM46.82,46.96c.26-.05.53-.08.83-.07-.86-.04-.98.01-.83.07ZM58.91,52.69c3.8-1.99-3.65-2.06-4.22-2.29,1.34-1.27-.31-2.59-1.67-2.15-.84.27-1.44.93-2.24,1.28-2.86,1.24-1.63-1.59-3.02-2.56.16.17-.7.08-.93,0-1.35.26-2.06,1.35-2.08,2.88-.03,2.27-3.48,3.23-5.4,2.47-1.07-1.29-.76-4.16-2.96-2.06-.97.93-2.76,1.24-3.44,2.7-.74-1.57-2.67-.49-3.24.47-.88,1.52-1.94-.76-2.72-1.04-1.12-.41-1.33.83-1.91,1.44-.77.82-1.92-1.25-2.69-1.19-.72.81-2.1.92-2.52,2.03-.78,2.04,1.24,2.04,1.89,3.39.07,2.16-1.58,7.1,1.92,7.33-1.7-2.95,1.41-6.14.32-9.25.96.2,1.62-.38,2.55-.32.47.35.97.62,1.53.82,1.53.46,2.58-.83,4.08-.91,1.41-.07,1.77-.99,3.2-1.65,1.65-.77.95-.54,2.64.41,1.65.92,3.67,1.14,5.51.7,1.19-.82,1.99-2.06,3.2-2.87.92,1.38,3.42.97,4.79.96,1.06-.52,1.73-1.57,2.88-1.91.03,1.94,3.35,1.95,4.54,1.33ZM52.96,67.18c-.44-.84-1.18-2.17-2.22-2.39-.39-.08-2.43.42-2.37.51-1-1.63-2.42.96-2.54,1.65-.32,2.03-.45,4.08-.43,6.13.03,3.62.5,7.23.98,10.81.49,3.69.96,7.38,1,11.11.02,2.15-.11,3.07,1.83,4.3.82.53,1.77.8,2.72.7,0-.14,1.04-.69,1.03-.47.85-1.29.17-3.46.13-4.82-.05-2.13.05-4.25,0-6.38,1.14-3.18.67-7.2.62-10.51-.04-3.27.79-7.66-.75-10.64ZM49.57,96.94c-.06.28,2.02-1.3,1.92-1.28,0-1.3-.05-2.6-.14-3.9-.19-2.82-.56-5.62-1-8.42-.43-2.72-.9-5.43-1.26-8.16-.23-1.74-.88-5.29-.15-6.93-.61,1.37-.1-.84,0,0-.13-1.15,1.78-1.23,2.16-.31.46,1.11.72,1.73.72,2.97v11.1c0,3.81-.52,8.06.12,11.82.41,2.34.58,5.25-2.37,3.11ZM52.77,99.81c-.28.1-.56.16-.84.19,0,.06.21.04.84-.19ZM52.95,99.54c-.06.09-.11.19-.19.28.13-.14.18-.23.19-.28ZM39.15,67.12c.06.06.13.1.19.18-.08-.1-.14-.15-.19-.18ZM39.52,69.09c.05,1.71-.91-2.23-.36-1.97-1.21-1.23-3.43-.52-4.93-.46,0-.08-1.52,1.54-1.6,1.59-1.4-3.86-3.73,1.7-3.88,3.21-.34,3.34-.09,6.54.36,9.87.45,3.4,1.06,6.78,1.57,10.17.2,1.34.9,2.64,1,3.85.85.85,1.64,1.21,2.16,2.31.51,1.05,2.68.56,3.59.56.85-.75,1.2-1.89,1.38-2.96.46-2.74.02-5.43.71-8.13.76-2.99.14-6.89.17-9.98.04-2.68.05-5.38-.18-8.06ZM36.14,96.3c-.76-.09.03-1.19.32-1.27-.26.08-.29-1.03-.09-.33-.02-.23.08-.29.33-.19.11.12-.34,1.53-.57,1.8ZM37.44,75.65c-.05,3.14-.01,6.29-.01,9.43,0,1.84-.85,3.68-.63,5.49-.66-.43-1.1-4.05-.96-4.78-.71-2.02-.82-4.2-1.11-6.3-.45-3.31-1.63-7.41-1.45-10.58,0,0,0,0,0,0-.04.4-.34.05-.03,0,0,0,.01,0,.03,0,0,0,0,0,0-.02,0,0,0,.01,0,.02.32.03,2.42.06,3.04,0,2.49-.26,1.16,5,1.13,6.74ZM39.34,67.3c.08.6.12,1.2.17,1.8-.01-.34-.06-.91-.17-1.8Z"/>
    </g>
  </g>
</svg>