<?xml version="1.0" encoding="UTF-8"?>
<svg id="Layer_2" data-name="Layer 2" xmlns="http://www.w3.org/2000/svg" viewBox="0 0 115.12 106.37">
  <defs>
    <style>
      .cls-1 {
        fill-rule: evenodd;
      }
    </style>
  </defs>
  <g id="food_icons" data-name="food icons">
    <g id="beerbarrel">
      <path class="cls-1" d="M44.8,61.63c1.04.39,0-3.08,0,0h0ZM22.49,93.72c-.08.19-.11.42-.06.74.74-.13.28-.92.06-.74ZM44.16,30.71c-.04.92.56-.29,0,0h0ZM115.12,46.14c0-4.16-.19-8.36-1.34-12.39-.53-1.83-1.12-3.64-1.56-5.49-.49-2.09-.09-3.44-2.13-4.43-.67-.32-.91-1.09-1.68-.95-.88.16-1-.1-1.35-.95-.75-1.82-1.06-2.66-3.21-2.72-3.39-.1-7.89-3.46-11.06-4.94-3.9-1.82-7.36-2.17-11.53-2.82-2.98-.46-6.27-1.2-9.2-1.11-1.91.06.11-2.51.33-3.69.28-1.55.17-3.29-.74-4.64-2.45-1.95-6.41-1.44-9.33-1.85-2.2-.31-8.77-.62-8.22,3.18.24,1.7.52,2.76,1.17,4.28.29.68,1.84,1.56,1.89,2.19-.02-.22-21.17,3.92-23.23,4.64-3.52,1.33-6.91,3.25-9.89,5.52-1.5,1.14-7.12,3.9-7.05,5.96-.02-.44.57-.28,0,0,3.49-1.74,1.61,2.09,1.28,4.14-.1,2.92-.87,6.18-1.52,9-.48,2.08-.47,5.15-1.68,6.94-3.53,0-7.19-.34-10.55.96-1.53.59-3.28,1.5-2.88,3.51.75,2.08,4.31,1.53,5.95,1.62.89.04,1.73-.15,2.56-.07,1.04.11.29,1.14-.25,1.27-1.75.42.6,3.5.69,4.51-3.22.17-6.26-.97-7.73,2.54-.55,1.31-.69,2.75-.58,4.16-.51,1.28-.99,2.56-1.36,3.89-.57,2-1.82,6.48.12,7.83,2.46,1.71,5.54,1.53,8.23.68,2.61-.82,1.96-2.35,1.96-4.74,0-1.3.02-2.57-.04-3.86-.07-1.62-.11-2.19,1.64-2.19,2.04,0,1.52,1.5,1.66,3.25.31,3.8,1.6,6.22,4.46,8.65,1.23,1.04,2.33,2.05,3.94,2.35,1.34.26,2.91.45,4,1.37-2.69,2.05-7.28,5.89-7.35,9.56-.4,1.59-1.52,5.21.49,5.89,1.48.49,3.38.57,4.94.81,2.02,2.11,2.89-2.07,2.9-3.16.02-2.13,1.24-4.54,2.28-6.44.8-1.45.94-3.47,2.71-4.19,2.33-.95,2.42.36,2.85,2.08.98,3.91,3.04,7.96,2.13,12.12-.41,1.88.38,4.04.69,5.9.34,2.07,3.32,1.92,5.1,1.97,2.19.06,4.49.58,6.02-1.21,1.46-1.71,1.69-3.19,1.84-5.45.3-4.64-1.9-8.14-3.18-12.46,5.96.67,11.97.86,17.97.93,3.05.04,5.58-.03,8.51-.9.45-.13,4.81-1.55,4.85-.98-.97,1.41-4.84,6.18-2.49,7.47,1.54.84,6.68,2.27,7.36.26.8-2.35.54-5.46,3.15-6.52,1.14-.46,1.72-.93,2.57-1.68.18-.15.77-1.11,1.07-1.11,1.14,0,2.78,6.19,3.01,7.09.62,2.43.79,5.11,1.67,7.37.33.86,1.25.41,1.41,1.31.21,1.14.91.98,1.78.89,1.39-.14,2.16.99,3.28-.05.72-.66,1.27-1.47,1.8-2.28.45,1.96,2.85.83,3.4-.35.67-1.42.81-3.04.79-4.59-.05-4.12-2.76-7.92-4.71-11.37-.72-1.26-2.24-2.61-2.37-4.1,1.59-.39,3.14-.99,4.51-1.88,1.28-.83,2.38-1.9,3.22-3.17.67-1.01.45-1.64,1.77-1.64.5.07.96-.05,1.37-.33,3.12-3.39,1.92-9.18,1.92-13.39.77-3.8.95-8.12.95-11.99ZM24.66,94.79c-.81-.11-1.39-.47-2.23-.32-.08-.46-.02-.67.06-.74.29-.74,1.34-.73,1.85-1.49.79.26.17,1.99.32,2.55ZM88.99,34.09c.06-.21-.48-.07-.63.05.14.07.31.11.55.09-.58.06-.65,0-.55-.09-.77-.41-.22-2.16-.73-2.78,1.04,0,2.11,1.63,1.35,2.74ZM86.35,25.6c.09-.42.59-.53.66-.97-.03-.19-.04-.31-.02-.3.03.12.03.21.02.3.14.79.69,2.92.68,3.09-.04,2.02-1.57-2.02-1.34-1.79-.07-.29-.05-.36,0-.33ZM87.95,17.32c-.11.78.57,1.04-.83,1.4-.87.23-1.8.18-2.69.19-.41-.73.05-1.23-.96-1.59-.01.04,4.14-.05,4.48,0ZM81.24,17.32c-.76-.1-.59-1.11-1.6-.96.47-.85,1.75.13,1.6.96ZM65.29,3.9c2.04.15,4.15-.33,3.28,2.34-.44,1.33-1.47,2.35-1.72,3.75h-5.44c.51-1.13-.07-2.36-.49-3.45-.01-.02-.05-.12-.14-.38-.05-.21-.05-.21-.02-.14-.05-.59-.12-2.75-.24-2.66.58-.4,3.95.48,4.76.54ZM57.59,4.89c0-3.05,1.49,0,0,0h0ZM42.56,21.79c1.62,1.22,1.89,3.59,2.24,5.42-1.01.02-1.89.5-2.88.64-.26-1.7,3.49-4.45-.64-3.83.27-1.01,1.49-.95,1.28-2.23ZM48.67,46.87c1.46.2.83.74,1.09,2.01.56,2.74-3.33,2.17-4.96,1.59v-6.38c.56.1,4.88-.51,4.48.64-.11,1.47-2.11.18-2.88.32.08,1.27,1.19,1.66,2.27,1.81ZM44.16,69.92c-.16-1.43.33-2.22,1.92-1.91.16,1.43-.33,2.22-1.92,1.91ZM42.88,74.7c.04-.91.4-1.51,1.6-1.27.23,1.18-.51,1.41-1.6,1.27ZM44.8,40.28c.17.16-.23.41-.32.32-.17-.16.23-.41.32-.32ZM44.8,61.63v-9.24c1.52.35,2.51,1.54,3.84,2.23,0,1.73-.22,3.44-.47,5.15-.33,2.27-.55.99-2.09,1.23-.96-.37-.32,1-1.28.64ZM48.64,42.19h-2.56c.05-.16.11-.26.16-.33-.07.09-.13.2-.16.33.63,0,.49-.53.25-.41.53-.54,1.57-.47,1.98-1.18.69-.05.21,1.3.32,1.59ZM44.16,38.36c-.11-1.37,1.16-1.54,1.89-2.42.89-1.07.4-.96.51-2.15.26-2.95-1.65-1.2-3.68-1.49-.08-.99,1.24-.69,1.28-1.59.56-.29.99-.71,1.28-1.28,2.4,1.89,2.26,5.89,2.56,8.61-1.32-.18-2.53.3-3.83.32ZM42.24,30.07c-.18-.71.61-.46.64-.96.8.13.02,1.24-.64.96ZM42.24,20.19c-.2,1.41.3.36-1.28.96.31-.52.56-1,1.28-.96ZM38.73,17.96c.16.16-.23.41-.32.32-.17-.17.23-.41.32-.32ZM6.61,48.86c.46-.76,1.65-.71,2.39-.93,2.16-.64,4.79-1.35,7.03-1.27-1.43-.05,1.62-.24,0,0,2.77-.41,4.17,3.07,1.31,3.71-2.29.51-4.4-.53-6.57-.28-.78.09-4.94.07-4.16-1.22ZM14.43,56.85c-1.24.08-.68-2.62-.32-3.19-.13.2-.04.03.05-.14.25-.69-.67-.73-.62-1.27.03-.35,1.36-.44,1.03.55-.41,1.21-.14,2.79-.14,4.05ZM8.04,74.07c-.16-.17.23-.41.32-.32.16.17-.23.41-.32.32ZM14.51,61.92c-2.49.07-6.65.22-7.31,3.19-.57,2.6-1.47,5.8-.12,8.32-.9-.07-2.45.38-3.2-.32.23-1.46.64-2.87,1.08-4.28.7-2.22.84-5.58,2.27-7.16,1.33-1.47,1.11-1.63,3.23-1.66,1.13-.02,1.55.28,2.66.1.92-.15,4.91.52,5.47-.39,1.1.15,2.58.12,3.42.97.64.64,1,2.45-.36,2.46-.96,0-1.46-1.11-2.43-1.2-1.57-.02-3.15-.07-4.72-.03ZM27.5,72.21c-1.36,2.52-2.45,4.77-5.28,2.54-1.98-1.56-2.67-2.8-3.08-5.33-.28-1.68-.98-3.31,1.07-3.54,1.34-.15,3.04.8,4.16.36,1.49-.58,1.9-2.3,1.77-3.74-.17-1.9-1.13-4.01-3.27-3.55-1.42.31-2.98.8-4.28-.19v-4.02c0-1.85-.19-2.51,1.13-3.78.78-.75,1.01-1.75.6-2.74-.64-1.54-2.05-1.9-2.05-3.64,0-3.07.56-5.66,1.21-8.64.23-1.06.2-2.48,1.03-3.31-.25-.72-.6-1.31-.63-2.08-.01.12-.02.14-.01-.16.07-.7.06-.5.04-.21.24-.91,1.43-3.51,2.14-2.81.35.35-.88,1.08-.9,1.43.94.97,3.29-2.51,3.21,1.27-.04,1.71,1.06,2.73,1.36,4.72.98,6.48,1.33,13.04,2.09,19.54.64,5.49,2.4,12.87-.3,17.88ZM29.45,77.57c.83-2.13,2.15-.11,2.56.96-.91-.18-1.68-.68-2.56-.96ZM32.97,74.07c-1.72-.51.55-1.27,1.28-1.27-.11.82-1.52.18-1.28,1.27ZM39.9,75.3c-.49,1.33-1.34,4.91-2.66,4.71-3.76-.57.69-2.44-2.03-2.44.04.38-.46.2,0,0-.46.2.05-.9,0,0,.02-.34,1.01-2.36.41-2.42-.5-.05-1.18,2.28-1.68,1.46-.41-1.1,1.38-2.43.64-3.19,1.03-.89,2.69.42,3.84.32-.13-1.1-4.8-1.69-5.75-1.59.65-3.45.23-7.03.32-10.52.8.54,5.64,2.22,6.08.64-2.05-1.13-6.39-.39-6.39-3.19,0-2.94-.76-5.95-1.11-8.87-.71-5.98-1.17-12-2.41-17.9,1.79.6,3.48.12,5.3,0,.36-.02,3.56-.45,2.43-1.31-1.52-1.15-6.74,0-8.37.35-.1-1.62-1.1-3.57-1.98-4.91-.45-.69-1.09-1.23-1.51-1.94-.74-1.25.59-1.36,1.52-1.96,1.86-1.19,3.7-2.42,5.7-3.36,1.06-.5,2.17-.92,3.3-1.23.38.88.83,1.74,1.27,2.59.94,1.81,1.87,3.69,2.04,5.75.05.67-.42,2.15-.1,2.72.21.38.84.24.94.73,1,3.46,1.4,7.2,1.86,10.85.66,5.25.7,10.35.7,15.65,0,4.44.55,9.17-.99,13.42-.47,1.31-.84,1.14-.79,2.59.04,1.04-.21,2.05-.56,3.02ZM42.7,78.88c-.22.86-.56,2.24-1.61,2.26-.11.01-.25,0-.45-.06.16.05.31.06.45.06.69-.08-.17-1.3-.41-.33.22-1.36,1.04-2.51,1.23-3.88,1.51,0,1.08.73.78,1.94ZM43.65,90.82c-.62-.58-.48-2.28.4-1.66,1.05.75,0,.93-.2,1.79-.1-.05-.16-.09-.2-.14ZM44.23,94.48c.23-.76.9-1.18,1.21-1.92.7.46.75,1.52.96,2.23-.62-.65-1.55-.15-2.23,0,.63-.14.25-.83.07-.31ZM46.72,81.72c.17.16-.23.41-.32.32-.16-.16.23-.41.32-.32ZM46.4,101.8c-.16-.16.23-.41.32-.32.17.17-.23.41-.32.32ZM47.04,100.21c-.88-.2-.8-1.21-1.92-.96.01-.36.09-.55.19-.64.42-1.02,1.4-2.64,1.58-2.52.54.34.15,3.67.15,4.13ZM46.1,65.44c.43-.18-.65-.82-.66.02.2.03.39.03.57,0-.12.02-.3.03-.57,0,.02-1.01.5-1.83.32-2.87,1.57.22,2.17.5,1.47,1.98-.25.52-.64.79-1.13.87ZM48.64,82.35c-.17-.17.23-.41.32-.32.16.17-.23.41-.32.32ZM48.11,79.69c-.16.15-.32.28-.44.36,0,.03,0,.05,0,.07-.19.08-.19.07-.11.01-.27-.07.03-1.07.11-.08,0,0,0,0,0,0-.04-1.18.69-1.6.96-2.48,1.23.51-.02,1.64-.52,2.11ZM51.51,79.48c.34-.3.1-1.18.96-.96.06.69-.26,1.01-.96.96ZM56.31,82.99h-2.56c0-.11,0-.19.03-.24.08-.52.49-.81.61-1.35.71.56.24,1,1.29.94.55-.11.76.11.63.65ZM54.71,79.48c.16.17-.23.41-.32.32-.17-.17.23-.41.32-.32ZM56.95,80.44c-1.12-1.49,1.61-1.28,0,0h0ZM61.1,83.31c-.67.14-.84-.22-1.28-.32.06-.92,1.52-.77,1.28.32ZM72.66,82.85c-.36.63-3.38.46-3.89.46h-6.39c.22-.85,1.46-.68,1.6-1.59,1,.2,1.68.31,2.55-.32.76.25,1.27.85,1.92,1.28.56-.25,4.7-.66,4.21.18ZM78.19,81.39c.23-.08,0-.48-.11-.4-.04.11-.06.24-.03.41-.04-.27-.01-.38.03-.41.17-.51.84-.53.93-1.18,1.07.24.07,1.55-.82,1.58ZM77.73,78.53c-.6.05-.03-1.56-.86-1.85-1.06-.37-1.44.1-2.19,1.1-2.12,2.84-.76-1.56-1.64-2.33-1.75-1.54-1.59,1.61-2.99,1.81.26-3.77-2.7,0-3.51.64-.88,0-.87-1.4-1.92-.16-.54.62-.68,1.49-1.27,2.08-.93-.47.23-1.53,0-2.23-.57-.75-1.22-.38-1.98-.56-.83-.2-1.06-.62-1.79.3-.33.41-.99,1.3-1.66.8-.72-.53-.75-2.66-1.7-.64-.34.72-3.12.46-3.63.03-.43-.36.78-1.27-.81-.76-1.01.32-1.71.74-2.82.5,1.77-4.94,3.53-9.89,4.43-15.08.99-5.7.48-11.75-.49-17.41-.92-5.43-1.87-11.1-4.46-16.03-1.14-2.18-1.48-4.49-2.6-6.71-1-1.99-2.26-3.84-2.96-5.97,4.3-.29,8.56-.98,12.84-1.37,4.53-.42,8.87.1,13.37.1,1.56,0,3.49.47,4.8.31.89-.11,1.23.89,1.59,1.6.62.23,1.2.54,1.75.91,2.55,1.7,4.87,3.78,6.88,6.1.14,3.81,1.47,7.4,1.92,11.16.2,4,.36,8,.5,12,.26,7.88.38,15.77.44,23.66.01.63.02,1.38.02,2.27-.95,2.91-1.97,6.37-5.44,7.01.1-1.07.04-2.29-.64-3.19-1.37.12-2.37.87-3.2,1.91ZM80.75,90.64c-.09.49-.22,1-.65,1.19.49-.32.01-1.26-.47.09.54-1.53,1.13-3.33,2.88-3.83-.14,1.3-1.54,1.37-1.77,2.54ZM84.37,85.57c.32-.09-1.74.65-.89.29-.46.2-.01-.44,0,0-.04-1.54,3.6-2.24,4.8-2.23-.75,1.35-2.58,1.57-3.91,1.94ZM88.27,35.81c2.13-.02,2.11,1.2,2.45,3.04.33,1.8-.11,2.74-2.13,2.38-.29-1.79-.41-3.61-.32-5.42ZM88.87,42.95c-.08.46,1.14.09.04-.12.96.18,1.6-.5,2.56-.32.09.55-2.26,3.06,0,2.87,1.02.96,1.14,4.07.96,5.42-2.52,1.04-3.62.7-3.53-2.11.05-1.47-.61-4.37-.03-5.74ZM88.91,53.34c2.21.34.28,4.51,3.52,4.46-.03.37-1.98,2.59-2.84,3.29-.04.14-.15.23-.36.22-.03-.19-.05-.34-.05-.47-.34-2.48-.3-5-.27-7.49ZM89.34,77.86s-.15.07-.43.03c0-3.42,1.61-.38.43-.03ZM88.91,75.66c.34-.3.1-1.18.96-.96.06.7-.26,1.01-.96.96ZM89.74,72.38c0,.07-.13.12-.51.09,0-1.56-.57-1.91,1.28-1.91-.24.57-.18,1.54-.77,1.82ZM91.22,68.27c-.04.92-.61,1.31-1.36,1.36-.11.02-.3.02-.62-.03,0-1.32-.62-2.23.96-2.23.92-.32,1.26-.02,1.03.9ZM91.57,66.07c-.26.35-1.37-.12-1.28-.25,1.28-1.9.67-1.08-1.06-1.64v-2.23c1.15.11,1.59,1.21,2.88.96-.07.94.06,2.36-.54,3.17ZM92.11,61.31c-1.42.04-.29-1.66,0-1.91.52-.05.52,1.96,0,1.91ZM92.75,56.21c-1.41.03-.93-1.74-1.92-2.23-.03-.22,0-.32.04-.35.25-.48,1.43.06,1.56-.61.85.51.16,2.4.32,3.19ZM95.97,41.89c-.55-2.87-.55-5.65-.91-8.54-.58-4.66-2.31-9-3.59-13.48,1.66,5.79-.17-.26,0,0-.22-.28-.32-.6-.32-.96,1.54,0,4.04,1.72,5.43,2.55,1.96,1.17,4,2.15,5.95,3.44,2.77,1.82,2.9,9.6,3.03,12.79.06,1.33.64,3.71-.85,4.13-.94.26-1.91.37-2.87.39-1.3.02-3.58-.58-4.75.16-2.01,1.26,2.29,1.42,2.8,1.41,1.88-.05,3.76-.27,5.64-.31.12,3.03.09,6.07-.18,9.09-.18,2.06-.05,6.5-2.16,7.04-1.37.35-2.69,1.06-4.12,1.15-1.6.11-.9-1.69-.94-2.82-.1-2.57-.35-5.14-.71-7.68-.39-2.8-.92-5.58-1.45-8.35ZM98.36,82.25c.13.06.29.1.46.11-.22-.01-.36-.06-.46-.11ZM98.28,82.2c-.87-.46-.95-1.79-2.01-2.07.18-.42.51-.52.96-.31.63-.21.89.03.78.73.33.62.83.86.83,1.58-.03-.76-.9-.22-.56.08ZM102.98,88.73c1.07,1.76,1.66,3.66,1.6,5.74-1.39-.21-2.17,1.05-3.52.96.03-1.5,2.84-3.51,1.31-5.03-.75-.74-2.93.07-2.59-.07-.46.2.2-.98,0,0,.2-1.01,1.32-2.29.9-3.34-.2-.38-.5-.65-.9-.8.34-.59.45-1.23.32-1.91,1.13-.05,2.76,3.55,2.88,4.46ZM98.5,72.15c-1.42-1.19-.3-8.12-.32-9.88,2.57-.23,7.16-3.34,5.76.96-.65.9-.81,3.99-.64,5.1-1.74,1.08-3.36,2.35-4.79,3.83ZM104.12,74.5c-.06.07-.12.13-.18.2-.02,0-.06,0-.1,0-.44.32-.74.52-.75.49-.02-.24.49-.45.75-.49.02-.01.04-.03.05-.04-.11-.15.74-.78.21-.16,0,0,0,0,0,0,.9-1.02,1.66-2.2,3.02-2.67-.24.47-1.9,1.83-3.02,2.67ZM111.17,51.59c-.15,1.34-1.27,13.88-2.76,13.23.75-3.81,1.03-7.7,1.92-11.48-.85,3.62-.16-7.92,0,0-.15-7.69.79-15.71-.96-23.27,1.68,2.65,1.49,6.25,1.92,9.24,0,4.04.34,8.26-.12,12.27ZM86.35,25.6c-.02.09-.03.2,0,.33.37.37.11-.26,0-.33ZM98.18,62.27c.03,2.48,2.15-.2,0,0h0ZM41.28,24.02c1.17-.18.24-.92,0,0h0ZM57.59,4.89c.21,0,0-.42,0,0h0ZM84.44,18.92c1.58-.02-.37-.67,0,0h0ZM103.9,74.67s.01.03.04.04c.08-.08.12-.14.17-.19-.07.06-.14.11-.21.16ZM60.78,6.16c.04.12.09.25.14.38.03.05-.11-.38-.16-.52,0,.07.01.12.02.14ZM90.88,53.64c-.04.08-.07.19-.04.35.72.36.22-.45.04-.35ZM44.8,50.47c1.72.61,0-2.12,0,0h0ZM47.56,80.13s.07,0,.11-.01c0-.03,0-.04,0-.07-.04.03-.08.06-.11.08ZM89.18,60.84c.02.16.03.32.05.47.06,0,.19-.08.36-.22.15-.47-.5-1.44-.41-.26ZM87,72.79c0-.76-.02-1.52-.02-2.27-.16-8.49-.92,5.19.02,2.27ZM29.45,77.57c.89.28.18-.46,0,0h0ZM53.78,82.75c-.01.08-.04.15-.03.24.73,0,.18-.58.03-.24ZM88.91,77.89c.18.03.31,0,.43-.03.08-.11-.43-.35-.43.03ZM88.59,41.23c1.04.19-.27-1.64,0,0h0ZM45.31,98.6c-.11.27-.18.5-.19.64.93-.21.49-.92.19-.64ZM43.65,90.82c.06.06.12.1.2.14.11-.5-.38-.36-.2-.14ZM32.97,74.07c-.24-1.09-.93-.28,0,0h0ZM40.96,21.15c.46-.17.28-.47,0,0h0ZM14.16,53.52s-.02.09-.05.14c.29-.56.17-.35.05-.14ZM19.86,30.39c0,.06.01.1.01.16,0-.09.02-.23.03-.37-.02.08-.04.16-.04.21ZM89.23,64.18c.56.18,0-.74,0,0h0ZM89.23,69.6c.22.03.42.04.62.03.44-.1-.62-.63-.62-.03ZM89.23,72.47c.22.02.37-.02.51-.09.02-.14-.51-.34-.51.09ZM18.59,59.72c-.44.73,2.06.28,0,0h0ZM63.98,81.72c-.14.92,1.24.25,0,0h0ZM16.99,25.93c-.47.2.03.38,0,0h0ZM63.29,26.66c-.37-.02-.73-.7,0-.53-2.57-.74-11.48-1.15-12.09,1.4,2.4.33,5.33-.32,7.8-.32.67,0,3.31.02,4.3-.55ZM63.66,26.25c-.04.16-.17.3-.37.41.15,0,.3-.09.37-.41ZM82.52,28.8c-1.19-.29-.69-1.05-.29-.97-.99-1.19-4.16-1.47-5.2-1.72-1.07-.25-6.46-.4-6.98.77,4.4-.24,8.29.89,12.47,1.91ZM82.52,28.8c.09-.66-.09-.92-.29-.97.23.27.34.59.29.97ZM100.9,28.04c.3.27.48.62.48,1.08,0-.82-.24-1.09-.48-1.08ZM101.38,29.12c-1.31-.12-.92-1.06-.48-1.08-1.42-1.27-5.55-.42-5.28,1.4,1.91-.72,3.78-.5,5.75-.32ZM15.39,31.03c.01-.34-.15-.81-.32-.32-.01.34.15.81.32.32ZM81.96,43.2c-.04-.17,0-.53.17-.43-1.38-1.3-5.85-.19-7.54-.23-3.29-.08-6.4.61-9.65.61-1.3,0-11.87-1.08-11.83,0,2.08,1.33,5.08.79,7.41,1.11,2.81.39,5.65.24,8.42-.3,1.59-.31,11.3.73,13.01-.76ZM82.2,42.82c-.03.14-.12.26-.24.37.04.14.13.14.24-.37ZM32.08,43.37c.23-.13.94.09-.06.09.6,0,7.08.24,7.03-.32-.6,0-6.35-.3-6.97.23ZM61.42,66.73c.12-.62.1-.92,0-1.05.07.28.08.63,0,1.05ZM61.43,65.69c-.46-1.87-3.83-1.09-5.02-1.22-.69-.07-2.13,1.43-.59,1.88,1.74.51,3.83.92,5.6.38-1.44.43-.3-1.49,0-1.05ZM84.18,65.01c-1.54-.28-3.15.16-4.69.19-1.54.03-3.09-.25-4.63-.32-1.38-.06-7.95-1.06-8.2,1.35-.05.41,15.56,1.35,17.95-.93-.6.49-1.42-.42-.43-.29ZM84.18,65.01c.19.03.38.08.57.14-.24-.07-.42-.12-.57-.14Z"/>
    </g>
  </g>
</svg>