<?xml version="1.0" encoding="UTF-8"?>
<svg id="Layer_2" data-name="Layer 2" xmlns="http://www.w3.org/2000/svg" viewBox="0 0 110.83 122">
  <defs>
    <style>
      .cls-1 {
        fill-rule: evenodd;
      }
    </style>
  </defs>
  <g id="food_icons" data-name="food icons">
    <g id="beets">
      <path class="cls-1" d="M110.81,39.5c-.51-1.83-1.41-3.52-2.47-5.08-2.07-3.02-5.39-4.19-8.87-4.91-4.03-.84-6.5-1.95-10.6-.31-1.62.65-3.14,1.52-4.56,2.53-1.97,0-3.95.15-5.9.48-6.28,1.08-12.51,4.48-17.41,8.5-1.97,1.62-4.33,3.34-6.46,4.73-1.02.66-2.3,1.56-3.14,2.42-.32.33-1.36,1.77-1.86,1.81-.38.03,1.9-5.15,2.09-5.65.95-2.54.03-2.14-1.12-3.84-.71-1.06,2.06-4.59,2.29-5.96.47-1.45-1.48-.88-.52-2.57.58-1.01,2.36-3.16,2.02-4.41-.31-1.15-.81-1.08-.02-2.19.58-.82,1.09-1.66,1.32-2.64,1.16-.79,1.48-3.91-.55-3.27-1.48.46-2.28,1.97-3.81,2.33-.91-4.54.33-8.98,2.49-12.97,1.08-2,6.71-5.11,8.26-2.16.5.96,2.8,8.2,4.61,4.48.49-1-2.41-6.72-2.26-6.77,1.03.83,2.45,1.27,3.12,2.49-.46.77-1.32,2.34-.4,3.11,2.33,1.95,1.55-2.36,2.89-2.49-.43,1.12-.58,3.73,1.09,3.73.58,0,.97-1.2,1.08-1.56.27-.99,2.1-2.2,2.98-2.56,3.04-1.24,6.01-.29,8.21,2.03,4.41,4.65.35,11.67-.96,17.13-.09.57-.2,1.14-.24,1.14,2.33,0,4.86-7.47,5.23-9.27.38-1.83.07-3.36,1.3-4.81,1.15-1.36-1.03-4.3-1.71-5.52-2.02-3.68-4.34-5.79-8.77-5.98-2.47-.1-4.67.79-6.96,1.63-.54.58-2.8,2.43-3.43,2.49C67.52,2.53,63.02.08,60.28,0c-3.32-.03-5.45,1.78-7.54,4.12-2.23,2.5-3.8,4.88-4.29,8.24-.24,1.6-.79,3.42-.65,5.06-.77.92.3,2.59-.62,3.42-1.04-1.89-1.88-4.01-3.5-5.5-1.41-1.29-5.42-2.88-5.5.46-.07,2.97,2.18-.22,3.07.69,1.88,1.74,3.15,4,4.02,6.38,1,2.76,1.5,5.69,1.8,8.6.13,1.32.37,1.39-.67,1.53-.31.04-.32,1.64-.35,1.95-.49,5.73.37,11.73-2.62,17,.13-1.18-.15-2.27-.31-3.42.56-.82.65-1.98.66-2.94,0-.6.1-2.65-.9-2.64-.56,0-.82.74-1.32.91-.24-1.91-2.64-1.28-3.66-2.19-1.1-.98-2.79-1.42-4.1-2.03-2.99-1.39-6.26-.95-9.47-.5-1.62.23-3.11,1-3.77,2.63-.45,1.11-1.89,1.82-2.98,2.65-2.84,2.17-3.77-2.2-4.88-3.99-1.05-1.7.21-3.01.09-4.69-.12-1.69-2.36-2.2-3.67-1.52-1.97-2.06-3.79-4.88-2.38-7.76.7-1.45,1.58-2.89,3-3.75,0-.07,1.21-2.33,1.4-2.45.77-.54,1.64,1.1,1.83,1.51.6,1.26,1.26.79,2.39,1.25-.11,1.94,1.89,5.38,4.36,5.03,1.18-.17,1.92-1.68,2.97-.46.57.67,2.73,1.95,2.96.15.07-.54-.52-1-.64-1.5-.19-.78.09-1.74-.02-2.56-.26-1.81-.86-1.69-2.38-2.53-1.48-.81-1.12.59-2.16.55-.85-.03-.37-3.92-.4-4.6-.12-2.39-.7-1.97-2.59-2.03-.79-.03.26-3.83-.35-4.29-1.23-.92-1.12-.3-.01-1.99.83-1.27,1.6-2.69,2.95-3.5,1.51-.75,3.04-1.45,4.68-1.87,1.72.8,3.4,1.72,4.9,2.89,2.74,2.13,4.19,5.04,6.64,7.38C34.21,6.09,26.56-2.2,17.86.93c-2.32.84-4.16,2.83-5.43,4.69-2.86,4.2-2.58,8.28-2.05,13.05-.79-.12-4.98.51-4.88,1.72-.11-1.31,3.11-3.39,3.94-4.21C3.27,17.15-1.58,24.04.48,30.26c1.03,3.1,3.87,4.73,6.16,6.8,1.01.9.54,3.54,1.08,5,.53,1.44,1.14,3.53,2.32,4.52,3.31,2.79,6.78,2.22,10.69,1.27,3.45-.84,5.55-5.51,9.53-4.76,2.9.54,8.16,1.89,8.63,5.43.44,3.26.28,6.75-.46,9.96-2.1-1.75-7.27-1.23-9.86-1.47-3.53-.33-6.44,1-9.74,2.15-6.61,2.3-8.78,9.83-9.58,16.19-.53,4.24.05,7.44,2.14,11.13,1.54,2.73,3.25,5.06,5.11,7.61,1.81,2.49,3.95,4.76,5.28,7.56,1.32,2.78.27,5.44-1,8.1-2.87,6-8.53,8.14-14.78,8.14-1.76-.84-7.59-2.01-5.06,1.62,1.13,1.62,4.33,2.45,6.18,2.49,2.76.05,5.12-1.07,7.71-1.79,2.57-.71,5.63-1.69,7.15-4.05.76-1.18,1.8-2.21,2.89-2.93.48-.32,2.36-1.32,2.26-1.88-.44-2.52,4.63-3.91,6.31-5.29-.29,1.35,1.86-.42,2.27-.53,1.62-.45,3.17-.23,4.82-.53,3.63-.66,7.03-.53,10.74-.79,3.86-.26,7.36-1.43,10.4-3.98,1.25-1.04,2.95-1.42,3.82-2.8.72-1.14,1.44-2.29,2.08-3.47,3.17-5.86,4.3-14.81-.76-19.94-.58-1.75-1.54-3.33-2.49-4.91-1.15-1.91-1.57-2.69-3.45-3.85-2.38-1.45-5.19-2.21-7.47-3.69,1.21-1.63,3.11-2.33,4.39-3.81,1.07-1.23,2.08-2.55,3.72-3.03-.12.41-.22.83-.31,1.25,1.46-.46,2.91-.99,4.41-1.33,1.2-.27,2.06.09,3.24-.09.97-.15,1.8-.61,2.78-.3.6.19,1.46.68,2.05.16-.49-3.05-11.05-2.07-12.93-1.28-1.22.51-2.34,1.21-3.6,1.59-.82,1.24-2.04,2.12-3.2,3.03-1.5,1.18-3.52,3.4-5.54,3.5,2.09-2.41,4.41-4.61,6.94-6.56,1.28-.99,2.61-1.91,3.98-2.77.74-.3,1.61-.29,2.31-.72,1.25-.76-.53-1.74-1.29-1.83-1.29-.15-2.42.26-3.41,1.02-.47.36-4.37,2.82-4.36,2.95-.11-1.27,6.69-7.26,7.99-7.32.9-.05,2.17-1.75,2.81-2.18,1.2-.8,2.62-1.2,3.66-2.22,2.6-2.55,7.95-4.27,11.42-5.04,2.57-.57,4.6.46,7.06.43.04.31,1.94,1.37,2.29,1.28.95-.24-2.18-2.46-2.23-2.61-.02-.07,3.57-.58,3.99-.55.13-.21,2.56-2.2,2.81-2.18,3.74-.76,6.89-.63,9.87,1.74,2.42,1.92,4.33,4.37,5.32,7.31.65,1.93.7,3.41.34,5.4-.14.77-.58,3.3-1.49,3.59-1.2-1.5-1.03-4.4-3.43-4.67v1.87c-2.87-.2-.86,2.87-.26,4.26.92,2.12.46,2.64-.77,4.21-1.84,2.34-3.33,4.83-6.76,3.66.87-1.18,1.83-3.61.82-4.95-1.66-2.18-3.51,1.93-4.13,3.03-1.28,2.23-3.19,4.39-5.61,5.28-3.02,1.11-4.2-.89-5.43-3.36.41.13.72.03.93-.31-1.25-.9-2.03-2.24-3.43-2.98-.59-.31-1.18-.62-1.24-1.37-.7.24-1.42.35-2.16.33-2.3.03-1.13.93-.09,1.93.71.67,1.26,2.38,1.32,3.35,1.67,1.95,3.98,6.66,6.86,6.84.56-.12,2.79.31,3.74.31.03-.23,2.57-1.44,2.95-1.8.71-.67,1.49-1.76,2.31-2.34.91-.64,3.72.39,4.86.41,4,.08,4.96-1.94,7.76-4.32,1.87-1.59,2.4-5.36,2.4-7.81,2.28-3.02,3.55-6.07,2.99-9.91-.21-1.41.91-1.82.75-3.16ZM15.68,14.62c-.48-.65-.96-2.31-.31-3.11.71.43.12,2.17.31,3.11ZM16.19,5.29s.03-.03.04-.04c-.13-.09.05-.3.07.03-.03,0-.07,0-.11,0-.38.43-1.65,3.25-2.09,3.1-.29-.1,1.31-2.97,2.09-3.1ZM13.81,79.32c.03.38-.46.19,0,0-.03-.38.45-.19,0,0ZM47.13,47.27c-.12-.77.52-1.74.36-2.47,1.73.23,0,2.47,0,3.11-.46-.38-.47-.61-.36-.64ZM46.24,64.35s0,0,.01,0c-.04-.64.27-.94.93-.89-.14.36-.68.73-.93.89,0,.02,0,.03,0,.05-.13.06-.15.06-.09.02-.28.02.01-.59.08-.06ZM45.93,53.81c0,.3-.38.24-.62.31,0-.3.38-.24.62-.31ZM45.62,57.86c-.05-1.37,1.23-.09,0,0,.3,1.29-.93.06,0,0ZM45.62,65.32c-.16-.16.23-.4.31-.31.16.16-.23.4-.31.31ZM42.19,61.9s0,0,0,0c-.09-.01-.03-.31,0-.05,0,0,0,0,0,.06,0,0,0,0,0,0,.02.37.15,2.31.32,2.8.7-.6.86-1.63.94-2.49,1.42.98.2,2.73-.96,3.25-.68.31-1.34,2.62-.43,2.54-1.14.1-1.45-2.26-1.59-2.25.32-.03.62.2,1.1-.12-.2-.58-.61-.79-1.25-.62.17-.58,1.48-3.09,1.87-3.11ZM43.75,69.68c-.41-.12-.83-.22-1.25-.31.44-.58.71-1.23,1.56-1.25.12.67-.52.84-.31,1.56ZM39.39,65.94c-.08.39-.62.31-.63,0,.14-.45.27.03.63,0ZM38.45,59.1c-.52.48-.1,1.38-.62,1.87-.63-.04-.19-1.03-.93-.93.51-.4.83-.9,1.56-.93ZM24.1,62.52c-.55.07-.03-.38,0,0,0-.04.83,1.25-.62,1.25-.17-.63.04-1.05.62-1.25ZM20.36,64.39c-.27-.06.21-.42,0,0,.21-.42.67-.58,1.25-.62-.12.89-2.58.68-2.19,2.18.89.06,1.48-.59,2.32-.68,1.43-.15.38.62,1.43.99-.99.75-2.76.28-3.89.27-.71,0-1.71.54-2.35.35.5-.74,2.63-2.66,3.43-2.49ZM20.67,69.05c-.36-.26-.83-.41-1.56-.31-.05-.51,2.04-.63,1.56.31ZM17.86,68.74c0,.3-.38.24-.62.31,0-.3.38-.24.62-.31ZM15.99,69.37c.37-.95,1.66.33,0,0-.06.93-1.29-.3,0,0ZM20.98,91.76c-.77-.05-.09-1.05,0-1.25.78.05.09,1.05,0,1.25ZM22.23,93c-.91-1.01.62-2.58.33-3.74-.43-1.7-2.08.76-2.51,1.25-.62-.51-.55-.71-.35-.71-.05-1.37,2.72-3.08,3.3-.78.66,2.61-.3,1.96-.77,3.98ZM24.72,88.03c.6.04,2.26-.91,2.48-.33-.03.08.08,1.16.02.02.12,2.13,1.54,3.88-1.2,3.7-.99-.07-1.37-2.26-1.29-3.39ZM40.32,100.16c.14-.45.27.03.62,0-.08.39-.62.32-.62,0ZM43.75,100.78c-.78.18-1.15-.32-1.87-.31.75-.51.5-2.81.62-2.8.56.01,1.32,2.69,1.26,3.11ZM50.61,100.16c.06-.35.32-.17.31,0-.06.35-.31.17-.31,0ZM49.67,64.54c1.95-1.89,3.52-1.03,5.93-.15-.17,1.01-1.08,1.19.56,1.74,1.31.44,2.29.32,3.5,1.05.54.32,3.24,2.69,3.29,2.68-.31.03-.42-.5-.8-.5-.44.32,1.09,1.53.94,2.18-2.46-.49-4.11-2.38-6.3-3.39-2.76-1.28.31,2.62.79,3.1,1.95,1.97,4.34,3.43,6.33,5.36,2.35,2.28,2.12,4.38,1.92,7.51-.29,4.56-1.62,10.34-6.07,12.56-.04.07-.09.13-.14.19-.32.83-2.78,1.86-3.2,2.15.29-.23.34-.57.13-1.04.86.2,2.35-.22,3.08-1.11.02-.05.03-.09.04-.13.03-.02.07-.04.1-.06.27-.42.38-.92.21-1.5-2.33.11-4.07,2.57-5.56,3.73-1.99,1.55-1.45-3.16-2.85-1.64-.72.78-1.18,1.98-2.51,1.96.18-1.01-.3-1.81-.31-2.8-1.39-.02-3.13,1.75-2.81,3.11-1.54-1.44-2.02-3.71-3.74-4.97-1.7.09-1.6,2.21-1.81,3.42-.43,2.54-1.12.92-1.51-.52-.6-2.21-1.75.58-1.98,1.14-.79-.04-1.12-2.03-1.89.19-.33.97-2.56.53-2.18,2.11.31,1.3-.19,1.49-1.54,2.06-1.02.99-2.24,1.74-3.43,2.49-.76-.58-.34-3.84.63-2.8.11-.71-1.43-1.82-1.45-1.79.25-.25,2.04.65,2.7.55-.54-1.77-2.73-.48-3.18-1.5-.66-1.49-.14-3.26-.88-4.72,1.79-.13,2.73,1.01,4.23,1.64,1.8.75.84-1.84-.18-2.26.82-1.19,2.76,2,3.01,2.29.47.53,1.24.69,1.65-.03.57-.99.74-.71,2.21-.71-.13-1.33-3.09-2.38-4.06-3.11-.4-1.83.23-4.31-.93-5.91-.95,1.01-.76,2.82-.85,4.08-.13,1.83-.62.41-1.65.59-.19-1.7-.11-6.24-1.71-7.01-.85-.42-1.87-.46-2.8-.47-1.03.38-1.41.09-1.13-.9-.34-1.49-1.15.12-1.93.17-2.44.14-2.37,2.88-4.6,3.54-.46-2-.62-2.58,1.56-3.73-2.32-2.21,3.91-1.87,4.74-1.87,1.36,0,3.73.96,4.94.09,1.5-1.08-1.74-2-2.2-2.27.18-1.39,4.05.16,3.35-1.47-.59-1.36-3.25-.69-4.28-.39-1.92-.18-2.36-4.42-4.4-2.83-.96.75-2.1,1.24-3.15,1.83-.33.19-2.39,1.89-2.45,1.38-.22-1.93,4.63-3.59,6.25-3.8-2.48.33.57-.57,0,0,.62-.63,2.94-1.53,1.34-2.58-.84-.56-.94-.17-1.02-1.27.02-.46-.19-.73-.64-.82,1.5-1.11,6.19.72,6.56-.66.45-1.66-2.83-1.63-3.75-1.83.27-.28.7-1.48,0-1.56.6-.65,1.69-.66,2.5-.62.22-.84-.59-.54-.94-.93,1-1.06,3.04-.62,4.3-.54,2.71.2,1.17-.3,1.31-1.95.94-.19,1.59.37,2.5.31.75-.16.03-.98.65-.93.95.08,1.7,1.34,2.78,1.24-.34,1.31-1.35,1.84-1.32,3.26.02,1.24.42,2.42,1.05,3.48.72,1.2,1.63,1.92,2.77,2.6,1.95,1.15,4.48,1.69,6.62.73,2.44-1.09,2.47-2.14-.08-2.29.92-1.93,2.21-3.66,3.73-5.14ZM21.29,79.32c.01-.3.39-.24.63-.31-.01.3-.38.24-.63.31ZM49.68,41.99c1.2.27.32,1.62,0,2.18-.84-.37,0-1.62,0-2.18ZM78.37,60.03c.01-.3.38-.24.63-.31-.01.3-.39.24-.63.31ZM19.69,89.81c0,.26.11.5.35.71.35-.4-.1-.7-.35-.71ZM41.88,100.47c.73,0,.44-.31,0,0h0ZM46.25,64.39s0-.02,0-.04c-.03.02-.07.04-.08.06.03,0,.05,0,.09-.02ZM16.23,5.26s.04.02.07.03c0-.06-.03-.06-.07-.03ZM47.13,47.27c.04.24.14.45.36.64,0-.48-.25-.67-.36-.64ZM36.89,60.03c.72-.09.47-.36,0,0h0ZM82.12,27.06c.06-.37.14-.75.24-1.14.19-1.15.33-2.3-.24,1.14ZM42.18,61.84s0,.02,0,.05c0,0,0,0,0,0,0-.02,0-.04,0-.06ZM42.5,69.37c.59-.07.4-.54,0,0h0ZM73.7,21.77c2.54.25,2.97-1.6,2.8-4.04-2.24-1.94-4.28,2.23-2.8,4.04ZM64.65,27.38c1.1-.87,1.77-3.15,1.25-4.67-3.44-.99-4.21,4.54-1.25,4.67ZM26.16,25.84c-.45,1.45-.38,4.31,1.68,3.71-.13-.75-.42-4.2-1.56-4.04.3-.04-.18.64-.12.33ZM26.16,25.84c.04-.12.08-.23.12-.33-.08.17-.11.27-.12.33ZM82.12,27.06c-.45.19.03.38,0,0h0ZM86.51,49.43c0-.06,0-.15-.03-.28.02.11.02.19.03.28ZM86.3,49.01c-1.6-1.18-5.25-.89-3.52,1.76.47.72,1.75,2.48,2.35,1.23.5-1.06,1.5-1.19,1.38-2.56-.03.4-.6-.65-.21-.42ZM22.85,70.3c1.71.37,3.59.57,5.3.93-.25-1.95-4.24-2.53-5.3-.93ZM33.15,76.83c.19-.03.25.74.22,1.04.62,1.89,2.35,2.83,4.45,3-.05-1.28-3.45-4.22-4.67-4.04ZM33.37,77.87c-.11-.32-.19-.66-.22-1.04.12,1.22.2,1.3.22,1.04ZM56.85,81.81c-2.01.48-4.37.62-4.68,2.8,1.78-.72,3.71-1.28,4.68-2.8ZM18.8,83.05c.08.08.47-.15.31-.31-.08-.09-.47.14-.31.31ZM39.07,86.79c-2.88.91.15,3.63,2.81,2.8-.5-1.37-1.22-2.52-2.81-2.8ZM55.92,92.07c0,.21-.07.37-.16.5.08.01.16-.11.16-.5ZM53.11,93c.66-.04,2.18.25,2.65-.43-.18-.03-.37-.68.16-.5-.9-.31-3.98-.84-2.81.93ZM62.15,92.07c-1.5.32-2.83-1.02-3.11.63.35,1.13,3.44.85,3.11-.63ZM30.34,101.09c.58-.56.71-1.57.94-2.49-1.18-.08-2.11,2.15-.94,2.49ZM33.15,107.31c.08.08.47-.15.31-.31-.09-.09-.48.15-.31.31Z"/>
    </g>
  </g>
</svg>