<?xml version="1.0" encoding="UTF-8"?>
<svg id="Layer_2" data-name="Layer 2" xmlns="http://www.w3.org/2000/svg" viewBox="0 0 83.77 107.99">
  <defs>
    <style>
      .cls-1 {
        fill-rule: evenodd;
      }
    </style>
  </defs>
  <g id="food_icons" data-name="food icons">
    <g id="boiledegg">
      <path class="cls-1" d="M46.76,34.44c-.02.17-.04.34-.07.51.06.13.14.09.07-.51ZM18.31,61.86c.21,0,0-.21,0,0h0ZM24.38,66.96c-.27.69,3.42.71,0,0h0ZM11.9,16.27s0,0,.01,0c0,0,0,0,0,0,0,0,0,0-.01,0ZM15.87,65.38c1.32-.32,2.76.33,4.25.67,1.84.42.11,5.05-.9,5.96-1.92,1.74-3.4,3.8-3.79,6.42,1.76,1.91,4.17,1.69,6.65,1.77,3.14.1,6.27.12,9.41.02,2.38-.08,5.9.09,7.91-1.47,2.11.21,4.91-.27,3.83-2.87-.57-1.36-1.53-1.13-2.49-1.98-.55-.49-.81-1.22-1.33-1.71-.61-.59-1.08-1.86-1.23-2.68-.24-1.33-.76-.68-.96-1.79-.23-1.28-1.49-2.51.19-3.24.45-.19,1.49-.92,1.98-1.05-.16,2.16,3.25-1.95,3.52-2.23.66-1.93,1.26-3.87,1.8-5.84,1.02-3.74,1.81-7.54,2.36-11.38,1.82-.48,3.56-1.05,4.05-2.94.42-1.61,1.21-3.5.1-5.03-1.38-1.14-4.88.86-5.75-.96.4-.75.8.17,1.21-.11,0,0,0-.01,0-.02-.08-.15-.14-.54.07-.51-1.44-.19-.45-1.99,0-3.19-.07-.88.34-1.42.72-2.16.49-.96.24-2.23.24-3.26,0-2.96-1.82-6.21-1.56-8.9.2-2.1-1.79-7.89-3.44-9.42-1.7-1.58-3.4-3.17-5.25-4.58-1.59-1.21-3.93-1.52-5.83-2.19C22.4-2.56,14.28,5.8,9.35,12.54c-5.02,6.88-6.59,16.6-4.15,24.77-1.34-.11-2.35.42-3.52.96-.47.68-.14,1.71-.74,2.32-1.27,1.27-1.4,3.92.51,4.92,1.79.94,3.64.54,3.76,2.84.12,2.26.86,4.34,1.83,6.36.92,1.91,1.89,3.78,2.31,5.88,1.36,1.04,4.73,5.23,6.52,4.8ZM10.63,54.52c-.16-.17.23-.41.32-.32.17.17-.23.41-.32.32ZM10.95,53.89c-.16-.16.23-.41.32-.32.17.16-.23.41-.32.32ZM18.31,61.86c0-1.5,1.51,0,0,0h0ZM37.49,75.24c-.46.61-3.68.6-4.48.64-1.48-.16-3.39.51-4.79,0-.02-2.24.4-3.01-2.56-2.87.07-1.31,1.09-1.82,1.9-2.66,1.76-1.8-.4-1.03-1.26-1.17,0-.69.87-.44.64-1.27-1.33-.08-1.98,1.08-3.2,1.27-.16-.97.32-1.41.64-2.23,3.2.67,6.24-.4,9.27-1.28.18,3.62,1.67,6.72,3.83,9.56ZM12.23,31.25c.96-.34,1.13-1.47,1.6-2.23-1.12-.02-2.21.33-2.88,1.28-.86-.59,1.62-3.06,1.88-3.55,1.26-2.38-2.25-1.91-1.7-2.58.89-1.08,2.37-2.17,3.45-3.08.25-.21,2.26-1.92,1.26-2.27-.54-.19-1.13.18-1.68,0,.55-1.3,1.32-2.34,1.28-3.82-1.14-.08-1.91.47-2.86.98-.04.03-.42.19-.66.29,0,0,0,0,0,0-.3.13-.21.09-.01,0-.43.15.62-1.6.01,0,0,0,0,0,0,0,1.29-3.39,5.51-5.8,7.99-8.29.56-.13,3.16-1.33,3.35-1.9.23-.68,2.13-1.15,2.72-1.6,2.7,0,4.28-.2,6.52,1.42,1.68,1.21,3.31,2.48,4.99,3.68,1.93,2.71,4.36,5.01,5.14,8.36.54,2.32.71,4.69,1.57,6.94.08,1.64-.19,3.32.1,4.94.26,1.5-.72,3.63-1.29,5.12-.54,1.36-4.1.89-5.53,1.04-2.43.26-4.93.58-7.35.05-1.5.68-3.41.62-5.01.75-3.88.33-7.71,1.19-11.61.52.52-1.44,3.43-1.35,4.47-2.23-.56-1.06.61-2.46-1.28-2.23.53-1,3.9-6.84,4.24-6.91-.49.1-1.68,1.72-2,2-1.26,1.13-2.44,2.34-3.51,3.63-1.88-.83-3.29,1.56-5.12,1.59.1-1.14,1.33-1.16,1.92-1.91ZM10.31,34.44c1.08.03,3.13-1.53,3.74-1.58,0-.01.02-.03.02-.04-.15-.09.04-.32.07.03-.02,0-.06.01-.09.01-.13.25-.36,1-.63,1.39-.65.96-1.87.17-2.79,1.14-.03.5-.16,1.54.64,1.59-.26.78-1.99.18-2.56.32-.27-1.02-.76-1.95-1.28-2.87.99-1.08,3.24,2.98,2.88,0ZM7.75,47.19c1.68-.07,3.36.29,5.03.15,1.94-.16,1.37.74,3.08.8,1.28.05,2.96,1.21,3.08-1.27,1.33.44,2.79.02,4.16.32,1.56-.23,1.47-1.8.09-2.15-1.1-.28-2.35.02-3.4.37-.74.24-3.82-2.22-4.68-.13-.96-.29-.66-1.64-1.28-2.23-.69.42-2.36,2.65-2.24.64-1.59.39-1.54,1.74-3.39,1.51-1.02-.12-2-.4-2.98-.71-1.98-.63-3.65-.53-2.58-2.97.59-1.37-.31-1.34,1.7-1.34.79,0,2.69-.36,3.39.1.52.34.49.98,1.3.86,1.04.38.57-.45,1.28-.64,5.26.28,10.47-.42,15.72-.61,2.09-.07,3.79-.63,5.88-.38,1.74.21,3.63-.22,5.41-.26,1.64-.04,5.21.22,6.56-.66,1.14,0,3.88-.53,4.87.16,1.75,1.21-2.2,1.08-2.32,1.11-2.63,1.15-1.62,1.84-2.04,4.14-.29,1.59-1.24,3.39-.62,5.02.67,1.76-.93,4.51-1.36,6.46-.3,1.36-.12,2.24-1.22,3.15-.75.63-1.41,1.36-1.8,2.27-.97-.07-1.62.59-2.56.64-.56-.31-.64-1.05-1.28-1.27-.37.34-.48.77-.32,1.27-.34.11-.69.22-1.03.33-.97.35-1.89.79-2.81,1.26h-7.67c.33-1.22.84-2.19.64-3.51-1.04-.12-1.4.59-2.24.96-.54.64.31,1.8-.32,2.23-2.1,0-.2-1.65.08-2.9.08-.39,2.52-5.17.61-3.65-.29.23-1.28.83-1.62,1.06,0,.02-.02.06-.03.07-.08.03-.09.03-.08.01-.27-.05.4-1.47.09-.07,0,0,.01,0,.02-.01.29-.72,3.07-4.58,1.46-4.64-.78-.03-2.83,2.14-3.09,2.8-.95-.18.14-3.42-1.96-1.16-.66.71-.56,1.29-1.62.97-.49-.21-.79-.04-.9.5-.57-.49-.25-1.53-.96-1.91-.43.09-.86.19-1.28.32.21-.73.67-1.88,0-2.55.01,0-1.67,1.89-1.6,1.59-.97-.54.72-2.15-.32-2.87-.86.31-.37,1.78-1.6,1.59-.02-1.72-1-3.12-1.28-4.78ZM20.79,57.41s.05,0,.08-.01c0-.02,0-.04.01-.06-.05.04-.08.06-.09.07ZM14.08,32.82s.04.02.07.03c0-.1-.03-.09-.07-.03ZM19.97,34.67c-.61,1.61,2.32.25,3.42-.98-.02-.18.14-.68.35-.53-.95-.68-3.34.35-3.77,1.5ZM23.74,33.16c-.06.17-.19.35-.35.53.01.13.12.08.35-.53ZM24.54,34.75c1.69,0,.39-1.25-.16-1.58.47.28,0,.64,0,0,0,.52-1.71,1.58.16,1.58ZM38.77,44.64c-.04.29-.18.54-.38.76.15-.01.3-.2.38-.76ZM26.7,45.96c1.72.56,9.85,1.53,11.69-.56-.38.03-.75-1.08.06-.87-2.63-1.1-5.91-.2-8.64-.2-.5,0-6,.7-3.11,1.64ZM30.38,59.99c-.17.09-.85.22-.56-.04-1.36,1.27.2,2.23,1.27,2.23.42-.9.19-1.96-.71-2.19ZM30.38,59.99c.1-.06.02-.1-.56-.04.21-.02.39,0,.56.04ZM77.82,81.4c.03.1.11.19.27.22.02-.15-.13-.21-.27-.22ZM83.73,74.46c-.37-3.13.12-6.4-2.53-8.39-3.08-2.33-7.45-.58-10.83.56-3.85,1.3-7.26,3.67-10.32,6.29-1.81,1.55-3.01,4.28-4.3,6.3-1.34,2.1-4.58,2.93-6.83,3.96-4.48,2.04-9.09,3.75-13.67,5.53-2.4.93-4.78,1.89-7.15,2.91-1.75.76-1.64.36-3.04-.38-2.17-1.15-8.09,2.16-9.93,3.28-1.35.82-3.1,1.55-3.86,3.04-2.47-.44-2.74,1.86-2.47,3.75.56,3.84,2.86,5.38,6.41,6.45,3.95,1.2,7.42-2.65,10.65-4.37,1.07-.57,2.16-1.13,3.23-1.72,1.38-.78.82-.88,1.56-2.01.62-.95-.23-2.18.37-2.95-.02.34,4.64-1.92.07-.11,4.41-1.75,8.45-4.33,12.9-5.97,3.73-1.38,7.71-3.06,11.24-4.93.96-.51,1.91-1.04,2.92-1.46,1.34-.55,1.67-.04,3,.25,1.81.39,3.67.37,5.51.31,4.01-.12,7.4.45,10.8-1.84,2.66-1.79,6.69-4.91,6.27-8.5ZM35.76,91.82c-.2.17-.65.69-1.47.64-.91,1.36-2.45,2.08-3.91,2.67-1.18.48-3.19.76-3.5,2.16-.22.98-2.71,1.75-3.57,2.4-1.91,1.45-5.05,4.79-7.51,3.94-2.05-.71-3.47-1.91-4.86-3.84.24-.7,1.35.27,1.92,0,1.27-.47,2.34-1.3,3.48-2,2.19-1.35,5.27-2.95,7.8-2.74,1.88.16,6.66,1.26,6.64-1.73,0-1.45,1.43-1.33,2.68-1.1,1.22.22,1.12-.42,2.29-.4,0,0,.01-.01.02-.02-.58-.07.08-.35.11.01-.05,0-.08,0-.13,0ZM78.08,81.62c-.59-.13-.46-.23-.27-.22-.14-.4.57-1.17,1.01-1.03,1.26.42-.73,1.17-.75,1.25ZM80.96,76.84c.03.38-.46.2,0,0-.31-1.32.96-.06,0,0ZM78.74,75.74c-2.15,4.14-9.23,6.39-13.59,6.72-1.57.12-3.15-.05-4.65-.52-.27-.5-.46-1.33-.64-1.72-.78-1.63.54-3.47,1.8-4.69,3.71-3.58,9.24-6.7,14.5-6.99-3.84.21,1.04-.37,0,0,2.05-.73,4.22-.76,5.05,1.34.95,2.39-1.47,3.91-2.48,5.85ZM35.78,91.81s.06.01.11.01c0-.08-.04-.07-.11-.01Z"/>
    </g>
  </g>
</svg>