<?xml version="1.0" encoding="UTF-8"?>
<svg id="Layer_2" data-name="Layer 2" xmlns="http://www.w3.org/2000/svg" viewBox="0 0 115.99 57.87">
  <defs>
    <style>
      .cls-1 {
        fill-rule: evenodd;
      }
    </style>
  </defs>
  <g id="food_icons" data-name="food icons">
    <g id="breadloaf">
      <path class="cls-1" d="M113.11,42.54c.15.15.33.19.52.16.26-.17.14-.82-.52-.16ZM50.78,18c-2.05-1.78.6,1.85,0,0h0ZM113.63,42.7c-.11.07-.28.07-.52-.16,1.01-1.03.63-3.77.99-5.15.68-2.59.43-4.7-.07-7.29-.99-5.18-3.72-8.65-7.37-12.37-2.69-2.76-5.98-7.05-9.86-8.02-1.43-.36-2.72-1.06-4.12-1.43-1.31-.34-2.57-.56-3.87-.8-2.44-.44-4.9-.66-7.36-.96-1.03.38-2.14.39-3.2.63-1.47.34-1.6-.22-2.84-1.09-2.05-1.44-3.76-2.7-6.17-3.44-2.34-.71-4.68-1.39-7.06-1.95-10.05-2.36-20.39,1.9-29.46,5.96-.9.4-2.08,1.72-3.06,1.79-.47.38-.46,1.08-.96,1.43-1.14.8-5.12.38-6.63.57-4.08.52-7.39,2.3-10.75,4.68C3.95,20.34-1.91,27.24.58,36.81c1.06,4.04,3.68,7.72,7.36,9.88,2.97,3.75,6.51,6.5,11.05,7.8,4.84,1.39,9.86,2.08,14.88,2.49,4.48.36,9.51.02,13.71.87.67.13,3.02-.4,4.04-.4,1.66,0,3.31.09,4.97.14,3.6.11,7.2.02,10.78-.1,6.94-.23,13.89.02,20.73-1.3,3.24-.62,6.03-1.84,9.34-1.84,2.35-1.38,4.91-2.38,7.34-3.81,2.24-1.32,4.16-2.99,6.16-4.62,1.74-1.43,4.54-1.68,5.04-4.32-.71-.09-1.64,1.02-2.36,1.12ZM80.19,10.03c.61,0,3.57-.47,3.38.57-.19.99.13,1.36.66,2.25,1.1,1.85,2.28,3.64,2.68,5.79-1.49.13-2.07-2.2-2.74-3.22-.27-.5-.63-.92-1.09-1.25.13-.68.03-1.32-.32-1.91-.3-.59-1.17-.52-1.28-1.28.11.75-.83.09,0,0-.7.08-1.38-.09-1.28-.95ZM37.44,8.89c1.07.77,2.94.29,3.75,1.45,3.63.01,7.11,5.5,9.59,7.65.57,1.77,2.24,2.89,2.56,4.78-1.21-.27-2.7-2.53-3.56-3.36-.89-.86-2-2.09-3.15-2.7,0-2.88-2.18-1.1-3.3-2.87-.55-.87-.75.04-1.25-1.04-.09-.69-.48-.81-1.16-.34-.44.12-2.45,1.48-2.5.67-.05-.89,1.26-.94.85-2.15.17-1.33-2.39-.7-2.87-.48-1.86.85-2,.27-3.84.16.75-1.42,3.74-2.59,4.88-1.77ZM18.17,45.73c.57.91,1.02,1.96.96,3.51-1.47-.03-.83-2.14-.96-3.51ZM27.6,50.4c-.13-.15-.18-.32-.16-.53,0,.19,0,.07,0-.02-.15-.47-.09-.89.18-1.24.2-.03.29,1.85-.02,1.79ZM37.81,50.88c-.04.15-.17.27-.46.27.16,0,.32-.1.46-.27.09-.31-.24-.7-.4-.06.19-1.24.68-2.37,1.22-3.5.35.07-.08,2.71-.82,3.56ZM42.47,52.11c.08-.27.15-.46.22-.61.56-1.6,1.46-3.04,2.34-4.49.67.22.25,2.96,1.06,3.74,1.01.98-3.25,1.25-3.62,1.36ZM110.27,35.98c-.41,1.05-.03,1.46-.1,2.55-.13,1.98-.46,2.71-1.55,4.3-1.45,2.12-3.08,1.45-5.32,2.38-1.78.74-3.54,1.52-5.32,2.27-2.25.94-4.58,1.68-6.91,2.4-2.16-.23-4.35-.06-6.49.24-2.63.37-5.23.92-7.87,1.23-2.25.26-1.71.16-1.08-1.14.69-1.42-2.61.79-2.88.95-1.34.86-2.79,1.17-4.38.95.1-.23,2.88-4.88,1.72-4.72-1.43.2-5.92,5.72-6.7,4.95-.12-.12,3.9-6.22,3.38-7.88-2.73.22-3.56,3.24-6.07,3.83-.04,1.43-1,2.25-1.63,3.42-.69,1.3-2.98.72-4.45.72.5-.79,4.79-7.94,4.6-7.91-1.57.22-3.82,2.88-4.69,3.99-.58.74-1.08,1.04-1.54,1.84-.68,1.16-1.09-.18-1.88-.15.07-.57,2.49-6.62.53-4.51-.99,1.06-2.66,2.65-4.36,2.6.16-1.71-.65-4.12-2.77-2.76-1.38.88-1.67,2.84-3.3,3.4.45-1.08.43-5.58-1.41-4.4-1.69,1.09-2.25,3.17-3.38,4.72-.49-.69-.61-4.25-2.29-2.93-1.08.84-2.05,2.75-2.82,3.88-1.62-1.69-2.49-4.06-4.47-5.42-1.16,1.35-1.22,3.42-1.28,5.1-.78-.45-.17-6.25-1.94-3.85-.88,1.19-.41,3.77-2.21,4.17-.38-2.76-2.27-4.65-3.52-7.01-.79.72-1.03,1.89-1.28,2.87-1.69-1.96.08-5.2-1.28-7.33-1.02.84-.67,4.77-1.28,6.06.07.01-1.22-2.54-1.39-2.84-.73-1.19.22-4.04.11-5.45-1.07.65-1.28,2.1-1.6,3.19-.66-.74-.59-1.65-1.92-1.28.56-2.07.69-4.24.64-6.38-1.74.46-1.67,2.81-2.24,4.14-1.5-.51-.33-3.91.02-4.87.4-1.09,1.2-3.04-.85-2.15-.76.33-1.38,1.07-1.41,1.92-2.93-1.31,2.02-6.53,2.55-7.97,3.12-2.55,6.02-5.43,9.68-7.22,7.02-3.43,18.37-2.46,24.94,1.7,1.61,1.02,2.46,2.72,3.97,3.53,1.64.88,2.63,2.23,3.8,3.63,2.69,3.23,5.88,3.7,5.88-1.11,0-4.3-3.22-7.4-5.9-10.37-2.49-2.76-5.09-5.42-8.8-6.42,1.21-1.29,4.21-1.66,5.83-2.32,1.86-.76,3.85-1.22,5.87-1.19,5.07.05,9.53.41,14.36,2.1,4.51,1.58,8.13,4.6,11.09,8.29,2.57,3.21,5.58,6.11,6.33,10.33-.4-2.26,1.36,1.3,0,0,1.38,1.31,1.47,3.83,3.52,4.46,1.87.54,2.95-1.84,3.29-3.22.58-2.37-1.09-5.29-1.92-7.51-.83-2.23-1.42-5.13-3.3-6.81,1.19-.86,4.2.16,5.42.66.95.38,1.86.81,2.89.94.07.84.71,1.21,1.43,1.44,2.05.65,3.11,2.43,4.71,3.85,1.47,1.3,3.03,2.5,4.5,3.8,3.07,2.71,3.9,7.46,4.76,11.26.25,1.11.41,1.95-.03,3.06ZM87.93,21.94c.06-.06,1.28,1.86.7,2,.04,0-.47-1.27-.45-1.48-.05.37-.96-.07,0,0-.38-.07-.46-.24-.25-.52ZM27.44,49.86s0,.01,0,.02c0-.14,0-.09,0-.02ZM42.68,51.49c-.07.2-.16.4-.22.61.91-.29.66-1.57.22-.61ZM58.13,11.62c-1.3,1.81,1.14,3.77,2.88,2.55-.16-1.65-.86-2.76-2.88-2.55ZM70.27,15.2c.02.14.03.21,0-.08,0,.03,0,.05,0,.08ZM67.6,15.35c.48,1.27,2.7,1.43,2.67-.15,0-.06-.02-.14-.02-.21-.37-1.85-3.52-1.9-2.64.36ZM70.25,14.99s.03.09.03.14c-.07-.56-.05-.38-.03-.14ZM32.56,18.32c.38,1.59,2.88,2.43,4.16,1.28.23-2.43-3.73-4.06-4.16-1.28ZM72.2,17.36c-.19,1.88,1.11,2.29,2.88,2.23-.16-1.54-1.03-2.37-2.88-2.23ZM25.9,22.17c.02.19.02.39-.05.61.25-.79.16-.8.05-.61ZM25.9,22.17c-.11-.9-1.14-1.4-1.97-.67-.15,1.89,1.04,1.15,1.92,1.28-.19-.03-.06-.42.05-.61ZM36.07,24.37c-.09.84.44,1.05,1.28.96.1-.84-.44-1.05-1.28-.96ZM68.04,25.33c-.46.46-.47,1.23.64.96.02-.55-.25-.82-.64-.96ZM99.69,33.3c.21,0-.02.19,0,0-.25,2.68,1.87,0,0,0ZM84.66,34.57c-1.42.94-.28,3.56,1.6,3.19.42-.9-.66-2.62-1.6-3.19Z"/>
    </g>
  </g>
</svg>