<?xml version="1.0" encoding="UTF-8"?>
<svg id="Layer_2" data-name="Layer 2" xmlns="http://www.w3.org/2000/svg" viewBox="0 0 122.38 93.48">
  <defs>
    <style>
      .cls-1 {
        fill-rule: evenodd;
      }
    </style>
  </defs>
  <g id="food_icons" data-name="food icons">
    <g id="breads">
      <path class="cls-1" d="M21.43,79.59c-.06.08-.2.16-.48.23.3-.03.45-.11.48-.23ZM20.94,79.65c0-.12.05-.2.11-.24,0-.02.02-.04.03-.05-.1.04-.15.14-.14.3ZM21.05,79.4c-.08.16-.12.31-.1.42.18-.05.34-.15.49-.28,0-.05-.03-.1-.07-.16-.09-.04-.22-.04-.32.02ZM21.43,79.59s.03-.05.04-.07c0,0-.02.02-.03.02,0,.02,0,.03,0,.05ZM40.13,13.57s0,0,0,0c0,0,0,0,0,0,0,0,0,0,.01,0ZM47.49,54.33s0,0,0,0c0,.39.05.61.11.71.02-.25.02-.66-.1-.71ZM39.62,13.78c.04.1.55,0,.63-.11-.09.1-.6.17-.57.01-.05.03-.07.06-.06.1ZM39.68,13.68c.08-.05.23-.09.44-.12,0,0-.02,0-.02,0-.07-.02-.15-.03-.28-.04-.09.07-.13.13-.14.17ZM61.23.45c.18.17.32.37.45.57.06-.02-.02-.17-.45-.57ZM50.04,31.37s0,0,0,0c0,0,0,0,0,0,0,0,0,0,0,0ZM120.88,29.59c-1.18-2.52-2.84-5.32-5.94-5.55-1.4.83.23,1.63-.41,2.19-.31.27-2.44.3-2.47-.27.24-.75,1.48-.1,1.6-.96-12.52,0-22.66,8.83-34.53,11.48.21-3.02-.99-6.19,0-9.15.79-2.4,2.02-2.62,3.57-4.49,1.74-2.09,3.08-5.59,3.23-8.28.16-2.77-1.33-5.21-2.03-7.8-.62-2.26-3.27-3.95-5.35-4.67-2.79-.96-4.89-.59-7.32.95-1.66,1.05-5.96,3.52-7.85,1.81-1.06-.97-.98-2.62-1.7-3.82-.07.02-.28-.1-.48-.24-.58-.21-1.74-.7-2.22-.73-1.53-.13-3.08.02-4.59.32-3.12.61-6.08,1.82-9.06,2.87-5.93,2.08-11.77,3.92-17.77,5.7-6.72,1.99-13.61,3.34-20.35,5.23-2.48.7-4.45,3.91-5.85,5.98C-.04,22.21-.23,24.38.21,26.79c.48,2.62,1.59,5.38,3.44,7.34,2.14,2.27,3.23,3.12,2.96,6.37-.24,2.98.79,6.4.89,9.45.1,2.89.16,5.8.86,8.63.37,1.48.8,2.96,1.02,4.48.12.89.57,2.49.51,3.31-.11,1.74-.29,1.8,1.92,2.03,3.09.32,6.15.88,9.27,1.15,2.65.23,5.22-.75,7.87-.55-2.92,2.76-6.61,4.65-9.39,7.57-2.35,2.48-5.47,5-5.77,8.58-.17,2.05.05,4.12-.18,6.17.77,1.16,2.38,1.26,3.64,1.35,3.52.28,7.24,1.3,10.76.57,3.86-.8,7.44-2.48,10.8-4.49,3.81-2.28,7.95-3.96,11.81-6.15,7.55-4.29,14.45-9.62,22.04-13.83,3.76-2.08,7.63-3.95,11.43-5.95,3.6-1.89,6.99-4.22,10.74-5.8,3.73-1.57,7.22-3.2,10.75-5.21,3.31-1.89,7.37-3.35,10.14-6.01,2.32-2.23,3.68-5.22,5.48-7.85,2.05-2.99,1.12-5.29-.32-8.34ZM34.35,9.5c3.11-.97,6.11-2.31,9.28-3.1,2.72-.68,5.17-1.93,7.82-2.67,2.27-.63,5.01-1.58,7.33-1.88,1.54-.2,1.64,1.45,1.86,2.55.26,1.35,1.47,2.44,2.72,2.91,3.52,1.31,7.22-3.34,10.05-1.41.89.61,1.88.21,2.88.34,1.48.19,1.99,1.08,2.77,2.2,1.44,2.08,3.6,4.12,2.67,6.9-.89,2.67-3.4,3.89-4.79,6.15-1.27,2.05-1.96,4.73-1.96,7.14v11.22c0,2.7-5.12,4.15-7.47,5.11-3.13,1.28-6.26,2.86-9.22,4.49-1.99,1.09-3.94,2.62-6.32,2.64-.11-2.13,2.04-2.79,2.88-4.46-.23-.58-3.68,1.79-4.16,1.91v-1.59c-1.06.13-1.54,1.59-2.55,1.59-.1-1.19,5.22-7.66.96-7.33.56-.52.59-1.9.25-2.52-.5-.95-2.24.35-2.55-.32-.33-.7,1.61-2.04,2.21-1.65,1.84,1.18,2.2-2.77,2.5-3.93.23-.87.38-2.24.07-3.1-.28-.76-1.49.67-1.52.69-.02.06-.02.04,0,0-.23.09-.03-.55.16-1,.05-.17.12-.31.19-.38-.05.07-.12.21-.19.38-.12.41-.18.96-.16.99.07-.22.41-1.28.41-1.39,0,0,0-.02-.01-.02,0,0,0,0,.01-.01,0,0,0,.02,0,.03.02.07-.07.45-.4,1.4,1.09-3.16,2.66-5.86,3.25-9.21.52-2.99,1.16-5.96,1.55-8.96-1.02,1.63-1.53,3.5-2.16,5.3-.55,1.57-1.26.98-1.5-.31-.1-.54-.16-4.69.52-4.87-1.15.3-1.69,2.38-1.66,3.38-2.35.35-4.71-5.05-7.46-5.29-4.12-.37-8.42,2.44-11.49,4.79-1.95,1.5-3.62,2.08-5.95,2.67-1.39.36-2.16-.64-3.67-1.32-1.19-.53-7.18-2.43-7.23-3.72,6.73-.65,13.66-2.32,20.11-4.33ZM62.83,55.59c1.29-1.57,3.53-1.9,4.79-3.51-.04-.72-1.28-.27-1.62-.16-1.18.39-3.87,2.4-5.1,2.07.06-.52,5.18-3.35,3.71-3.75-1.43-.39.5-1.77,1.79-.53.91.88,1.89,2.6,3.14,3.01.18,1.39.83,3.29-.32,4.46-.84.22-.54-.59-.96-.96h-1.92c.03-.82,1.25-.46,1.28-1.27-1.6-.23-3.32,1.99-4.79.64ZM58.09,53.82c-.33.95-2.27.05-2.93.19.08-.25.2-.39.35-.47.08-.07.12-.08.15-.05.06,0,.13-.01.2,0,0,.01,0,.02-.01.03.99-.47,2.62-.78,2.24.31ZM47.49,54.32s0,0,0,0c.06.02.35.09.31-.32.71-.15.06,1.48-.21,1.04-.03.31-.11.39-.11-.71h0s0,0,0,0ZM23.64,65.4c-2.61.08-5.19-.43-7.8-.24,1.07-.7,2.22-1.48,2.49-2.83.09-.43.19-1.4-.59-1.05-.88.4-1.87,1.31-2.11,2.28-.06.26,0,1.6-.25,1.67-.45.13-2.07-1.87-1.57-2.14,1.95-1.06,3.4-1.76,3.62-4.3-1.99.25-2.51,2.35-3.84,3.51-.46-.08-1.1-3.1-1.03-3.61.1-.75,1.88.11,2.25-.64.26-.54-.23-1.28.63-1.46,1.36-.28.1-.7,1.36-1.3.53-.25.56-.93,1.29-.67.53.18.61.76,1.26.66-.05-2.39-1.95-.82-3.2-.82-.36,0,.11-1.4-.32-1.73-.8.05-1.44.59-2.24.64.22-1.28,1.44-2.12,1.28-3.51-1-.75-2.06.59-2.56,1.28-.5-.26,1.7-4.13,1.92-4.59.42-.86.85-2.03.7-3-.1-.6-1.5-1.26-1.66-.38-.84-.86,1.08-2.39.48-3.25-.72-1.05-2.9,2.02-3.68,1.98,0-2.33.69-5.09-.66-7.19-1.53-2.37-4.25-3.31-5.38-6.17-1.84-4.69.93-10.7,5.79-11.75,3.03-.66,5.63.65,8.15,2.18,3.19,1.93,5.23,1.94,8.82,1.28,2.92-.54,5.25-2.44,7.76-3.9,1.64-.95,3.79-1.66,5.25-2.82.12.01.21.03.28.04,0,0,.02,0,.03,0,1-.13,3.16-.02,3.53.27-.76,1.02-2.28,1.22-.79,2.54,1.21,1.07,3.04.95,4.2,1.99,2.32,2.07,3.11,5.02.92,7.45-2.24,2.49-4.59,4.22-5.12,7.72-.55,3.65.12,7.59.66,11.21.48,3.2.15,7.83,1.52,10.75.91,1.93-1.43,2.74-2.92,3.81-1.65,1.19-4.26,1.69-5.61,2.91-2.4,2.17-4.35,2.15-7.56,2.62,1.4-1.82-4.43.53-5.3.56ZM47.04,64.73s0,0,0,0c.04.04.09.08.13.12-.05-.04-.08-.07-.12-.11.04.08.06.23.06.42.02-.02.04-.05.05-.09,0,.08-.01.16-.02.24,0,.01-.02.01-.04,0-.04.92-.4,2.49-.57,2.72-.45-.67-2.82-2.05-2.82-1.66,0-.7,1.18-.84,1.22-1.52-1.73-.98-2.84,1.58-4.48,1.59.44-.93,1.48-1.3,1.92-2.23-.92-.82-4.17,1.97-3.03-.39,2.04-4.19,5.41-1.23,7.62.84,0,0,0,0,0,0,.03.03.06.05.09.08ZM28.31,72.81s0,0,0,0c-.15.02.02-.2.5-.67.35-.47.82-.67,1.41-.6-.04,1.54.95,2.94.91,4.48-.05,2-2.93,2.35-4.42,2.21.52-1.63,2.54-1.98,3.2-3.51-1.89.08-3,1.91-4.8,2.23.36-.58,5.33-3.86,3.2-4.14ZM112.9,41.22c-4.01,2.59-7.66,6.02-12.35,7.36.67-1.33,2.52-1.64,2.88-3.19-1.93.35-5.09,3.2-6.36,4.65-1.36,1.56-4.76,3.08-6.75,3.64,1.31-1.46,3.05-2.5,4.15-4.15-2.59,1.2-4.02,3.8-6.35,5.33-1.63,1.08-3.46,1.99-5.16,2.96-.9-.41.58-.98.32-1.59-2.37.7-3.54,2.79-5.46,4.12-1.13.78-2.35,1.45-3.54,2.12-2.42,1.38-4.85,2.75-7.35,3.98-1.29.64-1.07-.61-2.38-.34-1.39.28-2.55,1.65-3.44,2.65-1.51,1.7-1.52,2.17-3.75,2.5-.77.11-3.46,2.75-3.43,2.78-.73-.64.76-2.09-1.34-1.37-1.34.46-1.61,2.37-2.96,2.12-.55-.11-1.24.53-1.74.08-.37-.34-.43-.64-1.04-.46-1.55.58-2.1,2.19-3.39,3.07-1.12.77-1.94.93-3,2.02-.79.81-1.56,1.63-2.37,2.42-1.29,1.25-2.24-.15-3.26,1.01-1.21,1.37-4.3,5.16-6.51,5.82-.24-1.68,1.54-2.55,1.6-4.14-2.55.67-3.51,4.27-6.17,4.54-2.49.25-.17-1.41-1.77-2.25-.73-.38-1.29.68-1.33,1.21-.88-.29-.17-1.95-.32-2.55-1.25-.15-1.02,1.69-2.24,1.59-.51-1.14-.58-2.56-.14-3.73.56-1.49,1.87-3.47,2.97-4.61.55-.56,1.54-1.35,1.65-2.18.62.35-1,1.82-1.48,2.72.07-.03.15-.04.26-.02.02.02.02.03.03.05.07.03.11.08.1.14.94-.84,1.48-2.87,2.64-1.12,1.35,2.05,4.61,2.09,6.56,1.08,1.83-.95,2.67-2.52,2.32-4.55-.27-1.59-1.01-3.05-1.17-4.67-.05-.88.87-.76,1.28-1.28,2.02-1.28,2-.71,3.67.96,1.56,1.57,3.01,2.14,5.22,2.14,4.07,0,8-2.65,7.07-7.26-.43-2.15-1.89-3.07-3.63-4.09-1.99-1.17,2.14-2.67,3.03-3.26,1.35-.9,4.32-3.34,6.03-3.19,1.8.16,4.1,4.03,5.78,5.03,2.33,1.4,4.32.39,6.81.46,2.32.06,3.01-1.45,4.56-2.8,2.68-2.34-2.15-8.04-4.01-9.01,1.74-1.09,3.46-2.25,5.44-2.87,1.78,7,13.3,5.74,14.14-1.21.2-1.64,0-3.95-1.75-4.7-2.8-1.19-.54,3.44-.51,4.29.03,1.25-.04,2.33-1.26,1.46-.58-.41-2.28.58-2.82.75-1.27.41-3.08.69-3.64-.91,1.7-.01,3.32-.66,4.48-1.91-1.19-1.5-4.62,2.05-5.12,1.28.1-3.24,8.59-5.84,10.85-7.26,2.21-1.38,3.21-1.69,5.3-.22,1.52,1.07,4.66,2.12,6.48,1.54,2.17-.68,4.81-6.06,2.04-7.69-1.76-1.04-1.62,2.38-1.65,3.11-.1,2.06-1.97.98-1.28-.64-1.21-.19-2.31.47-3.52.32,2.82-2.96,9.03-5.24,13.05-5.46,4-.23,8.75-.73,10.67,3.54,1.46,3.25-3.22,8.31-5.62,9.86ZM99.19,35.35c.03-.08.06-.1.09.16-.02,0-.04,0-.06,0-.01.03-.02.04-.03.05-.15.35-.41.59-.86.58.12-.37.38-.6.84-.63,0,0,0-.02,0-.03-.25-.05-.09-.2.03-.15ZM60.87.43s.11-.06.36.01c-.22-.14-.34-.14-.36-.01ZM55.16,54c.39,0,.62-.18.69-.49-.07.03-.13.06-.18.1-.05.14-.21.34-.5.4ZM61.31.82c.1.03.18.06.21.06-.06,0-.14-.03-.21-.06ZM61.01.63c.05.05.12.1.19.15.04.02.08.03.11.04-.11-.05-.21-.12-.3-.19ZM60.86.48s.09.1.15.15c-.09-.08-.15-.15-.14-.2,0,.02-.01.03-.01.05ZM69.54,52.73c0,.17.01.33.02.5.01-.1.01-.25-.02-.5ZM69.57,53.36s0-.09,0-.14c0,.05-.01.08-.03.1.02.03.03.05.03.03ZM69.54,53.32c-.08-.14-.26-.68,0-.6-.54-.18-.13.83,0,.6ZM99.25,35.42s-.02.06-.03.08c.02,0,.03,0,.06,0,0-.09-.04-.14-.09-.16-.01.04-.02.1-.03.15.01,0,.03,0,.05,0,.01-.03.03-.05.04-.08ZM99.21,35.5s0,0,0,.02c0,0,0,0,0,0,0,0,0,0,0-.01,0,0,0,0,0,0ZM99.16,35.52s0,.06.02.05c0-.02.02-.03.02-.05-.02,0-.03,0-.05,0ZM55.66,53.61c.02-.06.02-.1,0-.12-.05,0-.1.03-.15.05-.09.07-.2.21-.35.47.07-.12.26-.26.5-.4ZM46.95,65.14c-.1-.16-.19-.39-.08-.46.04-.02.07-.03.09-.03-1.59-1.44-.52.27-.01.49ZM28.59,72.64s0,.03,0,.06c-.13.07-.22.1-.27.11,0,0,0,0,0,0,2.11.28.95-.36.28-.17ZM28.59,72.64c.03-.17-.06-.12-.28.17,0,0,0,0,0,0,.07-.08.16-.14.28-.17ZM47.1,65.31c0-.06,0-.11,0-.16-.04.03-.09.01-.16-.01.05.08.11.15.15.17ZM55.85,24.63c.41-1.06,3.12-9.88,2.17-11.5-.07-.01-.14-.04-.19-.07-.04.03-.12,0-.11-.18-.08,1.8-1.88,3.65-2.36,5.45-.31,1.17-.75,2.32-.96,3.52-.25,1.37.21,5.98,1.45,2.79ZM57.82,13.06s.05-.09-.01-.14c.08.04.15.11.21.21.28.05.53-.06-.3-.25,0,.08.04.14.11.18ZM67.95,18.94c1.09-1.31.83-4.78-.64-5.42-.41,1.26-.9,5.06.64,5.42ZM61.23,16.1s0-.02,0-.03c0,0,0,0,0,0,0,0,0,.02,0,.02ZM61.25,17.7c.21-.37.35-1.66-.02-1.63,0,.03,0,.04,0,.07,0,.18.02.76.03,1.56ZM61.25,17.7c-.03.06-.07.1-.1.1-.12,0-.02-.92.05-1.43-.3,2.12-.25,1.47-.14.67-.75,3.23-2.79,6.13-2.69,9.55,2.77.18,2.93-5.89,2.89-8.89ZM61.22,16.12c0,.06-.02.14-.03.25.01-.08.02-.15.03-.24,0,0,0,0,0-.01ZM61.23,16.07s0,0,0,0c-.04.01-.12.51-.18.97.07-.3.13-.61.18-.92,0-.02,0-.04,0-.04ZM61.22,16.12s0,0,0,0c0,0,0-.02,0-.02,0,0,0,.01,0,.02ZM61.23,16.07s0,0,0,0c0-.04,0-.03,0,0ZM63.87,17.92c.06-.12.05-.3,0-.48.01.1,0,.19-.02.28,0,.06.01.13.02.19ZM63.87,17.92c-.04.1-.12.15-.24.13,0,0,0,0,0,0-.07,0-.14-.08-.16-.3-.03-.1-.05-.2-.05-.3-.39,2-2.03,3.87-1.22,5.97,1.04-.27,1.84-3.79,1.68-5.48ZM63.85,17.72c-.04-.28-.12-.5-.23-.61.11.08.21.19.25.33-.03-.19-.14-.36-.4-.42-.03.33-.03.55,0,.71.04.1.09.21.16.3.09,0,.18-.14.23-.31ZM38.77,21.95c.07-.07.14-.14.09-.14-.33.33-.22.26-.1.15,0-.01.01-.03.02-.04,0,.01,0,.02,0,.03ZM38.86,21.81c.13,0,.26.03.37.08.01-.04-.07-.08-.37-.08ZM39.42,24.34c.84-.45.65-2.08-.2-2.45-.03.09-.46.19-.46.06,0,0,0,0-.01,0-.35.71-.16,2.83.67,2.38ZM6.89,23.72c.42.42,1.69.07,1.92-.64-.72-.73-1.4.21-1.92.64ZM67.95,22.76c-.15.35-.17.45-.05.32-.03-.06-.02-.16.05-.32ZM68.24,23.09c.2-.1.3-.31-.3-.33.18,0,.26.13.3.33ZM67.89,23.08s.01.01.02.02c.03-.06.06-.11.08-.14-.04.06-.07.09-.1.13ZM68.24,23.09c-.12.06-.27.08-.33,0-.57.92-3.03,4.06-1.56,5.4.19-.43,2.08-4.26,1.9-5.41ZM10.72,24.99c.89.32,3.17.79,3.2-.64-.64-1.12-3.04-.59-3.2.64ZM24.68,24.65c0,.19.04.28.11.31,0-.01,0-.03,0-.04-.05-.09-.09-.18-.11-.27ZM24.79,24.92s.01.03.02.04c0,0,0,0-.01,0,.34,1.74,2.32,4.08,3.98,3.34.6-.26-2.02-3.44-3.47-4.12.22.25-.12.74-.38.79.25-.09.56-.58.33-.81-.17-.07-.32-.12-.45-.11-.07.25-.06.56,0,.88ZM24.79,24.04c-.12.22-.15.42-.11.61,0-.14.04-.34.11-.61ZM25.21,24.12s.02.02.03.03c.02,0,.03.01.05.02-.02-.02-.06-.03-.09-.05ZM71.14,24.36c.07,0,.11.01.17.02.01,0,.02,0,.03,0-.05,0-.12-.02-.2-.02ZM71.26,24.71c.18-.08.32-.22.21-.29-.04-.02-.1-.03-.16-.04-.14.04-.26.17-.39.37.04.05.19.03.34-.04ZM71.72,27.53c-.29-.89-.65-.86-.17-1.88.18-.38.36-.93.04-1.17-.02.07-.16.16-.33.23-.14.07-.29.1-.34.04-.51.78-1.01,2.45-2.33,1.84-.75,2.59,3.72,2.74,3.13.95ZM70.92,24.74s0,0,0,0c0,0,0,0,0,0,0,0,0,0,0,0ZM71.58,24.48s.01-.04,0-.05c-.08-.05-.16-.06-.23-.05.06.01.09.03.12.04.04.02.08.04.12.06ZM64.75,25.95c-.61.18-.93-.35-1.49-.32.16.02.12.19.04.34h0s-.05.07-.08.1c0,0,.02,0,.02-.01-.03.04-.06.07-.09.09-.58.63-1.87,1.78-1.26,2.78,1,1.67,2.87-2.02,2.86-2.98ZM63.06,26.15s.05.02.09,0c.02-.03.05-.05.07-.08-.05.03-.09.07-.16.08ZM63.05,26.15s0,0,0,0c0,0,0,0,0,0,0,0,0,0,0,0ZM63.05,26.14c.03-.17.07-.34.1-.51-.13.33-.13.47-.1.51ZM36.3,29.77c1.41.36,1.28-2.81.32-2.87-.54.53-.26,1.87-.32,2.87ZM53.82,29.2s0,.07-.02.1c.03-.04.05-.07.07-.11,0,0,0-.02,0-.02-.02.01-.03.02-.05.03ZM53.86,29.17s0,0,0,0c.06-.16-.01-.22-.31.29.05-.1.15-.18.26-.25,0-.04.03-.06.03-.11.02,0,.03.03.02.07ZM53.87,29.16s0,.02,0,.02c-.08.7-2.02,5.48-.99,6.17.65.45,3.2-1.45,3.75-1.84,1.67-1.21,2.88-2.88,2.7-5.03-.96.06-4.32-.04-5.44.66ZM53.56,29.46c-1.33-.3-.06.95,0,0h0ZM24.5,31.73s.02.04.04.05c.06-.1,0-.04-.04-.05ZM24.47,31.69c.24,0,.39.04.51.1.07-.04,0-.1-.51-.1ZM24.98,31.78c-.08.04-.31.07-.43,0-.04.07-.15.21-.39.54.79.21,1.28-.32.83-.54ZM20.63,32.32c-.37.82-1.03,2.02,0,2.55-.03-.97,1.33-2.17,0-2.55ZM15.55,33.04s.05.08.08.11c0-.01.01-.02.02-.03-.04-.02-.08-.05-.1-.08ZM15.74,33.01s.09.02.12.03c-.01-.09-.06-.09-.12-.03ZM15.52,32.96c.08.02.14.04.21.06,0,0,0,0,.01-.01-.07-.02-.14-.03-.22-.05ZM16.36,33.31c-.19-.02-.42-.07-.59-.14-.05.01-.1,0-.14-.02-.27.39-.66,1.24-.68,1.27-.43.66-.77,1.26-.39,2.05,1.71-.01,3.14-2.21,1.8-3.16ZM16.36,33.31c.41.05.59-.02-.5-.27,0,0,0,.02,0,.03.19.07.36.15.49.25ZM15.87,33.13s0-.04,0-.06c-.04-.01-.09-.03-.14-.04-.02.03-.05.06-.08.1.03.02.07.04.12.05.03,0,.06-.02.1-.04ZM17.12,37.11c.38.1.8,1.69,1.28.64-.37-.1-.8-1.69-1.28-.64ZM30.23,38.38c-.1-.21-.21-.32-.33-.34.08.05.19.15.33.34ZM30.23,38.38c-.1-.14-.24-.25-.41-.33-.05,0-.09.04-.14.08-.03.19.13.53.4.39-.28.17-.62.09-.46-.34.02-.02.04-.03.06-.04,0-.05.03-.09.07-.11-1.23-.56-3.67.21-3.4,1.64.51,2.67,3.23-.52,3.89-1.27ZM29.9,38.04c-.07-.04-.12-.05-.16-.03.03.01.05.02.08.03.03,0,.05,0,.08,0ZM36.52,44.46c-.2-.28,3.06-1.12,2.48-.41.97-1.19-1.5-1.21-.79-1.21.02-.14.05-.29.07-.43,0,0,0-.02,0-.03,0,.02-.08.24-.09.37,0-.17.1-.5.09-.37,0,0,0,0,0,0,0,.01,0,.03,0,.04,0,.07-.02.19-.07.43.2-1.04,1.3-2.72,0-3.51-.3.51-2.89,4.56-1.7,5.12ZM16.76,42.69c.27.21.19.36.04.39.02.01.04.02.06.02-.03,0-.05-.01-.08-.01-.09.01-.21-.03-.27-.13.05.08.15.12.27.13,0,0,.01,0,.02,0-.12-.07-.13-.42-.34-.3,0,.06.02.12.05.17-.03-.04-.05-.1-.05-.16-.09.05-.22.19-.41.48-.28.43-1.06,1.37-.78,1.94.57,1.18,3.36-1.29,1.49-2.51ZM16.46,42.78s0,0,0,0c0,0,0,0,0,0,0,0,0,0,0,0ZM103.75,45.07c.46-.2-.03-.38,0,0h0ZM103.75,45.07c-.28-.06-.3.12-.32.32.27.06.3-.12.32-.32ZM19.36,46.99c.77.13.7-.58,1.6-.32.33-1.99-1.99-1.24-1.6.32ZM26.07,46.03c-.05.17-.12.26-.2.31-.28.22-.7.06-.59-.33,0,0,0,0,.01,0,0-.05.02-.09.07-.12-1.19-.03-2.1,1.22-2.8,2.07,1.07,1.01,2.94,1.21,4.16.32.03-.88-.9-1.29-.64-2.23ZM25.29,46c.01.19.34.49.58.34.08-.07.16-.16.2-.31-.19-.09-.37-.14-.55-.16-.08.02-.15.06-.23.12ZM25.56,45.87c.12.02.28.07.51.17-.18-.14-.35-.19-.51-.17ZM25.56,45.87c-.09-.01-.16,0-.2.01.05,0,.1,0,.16,0,.02,0,.03,0,.05,0ZM37.26,50.18c1.29-.1,2.3-.47,2.24-1.91-1.35.03-1.91.86-2.24,1.91ZM23.08,51.49c1.8.22,1.67-1.52.44-1.88.01,0,.03.02.04.03,0-.01-.04-.03-.06-.04-.02,0-.04,0-.06-.01-.07,0-.15.06-.23.14.03.06.09.08.15.08.11-.03.22-.13.2-.17.05.08-.08.17-.2.17-.07.02-.13,0-.16-.07-.42.44-.92,1.64-.12,1.74ZM23.47,49.6c-.06-.03-.14-.05-.28-.06.09,0,.16.04.24.06.01,0,.02,0,.03,0ZM23.51,49.61s-.03-.02-.04-.02c0,0,.01,0,.02.01,0,0,.01,0,.02,0ZM23.19,49.54c-.02.1-.02.17,0,.21,0,0,0-.01.01-.02-.02-.04-.04-.1-.01-.2ZM30.98,49.82s.1-.06.16-.18c-.04.35-.39,2.02,1,.22-.39-.25-.82-.35-1.28-.32.26-.02.2.2.12.28ZM30.98,49.82c-.06,0-.1-.08-.12-.28-.04.33.05.35.12.28ZM37.58,54.32c-.47.75-.67.59-.32,1.59,1.52.54,1.76-1.83.32-1.59ZM31.06,57.65c-.06,0-.13-.05-.19-.14,0,.15.1.17.19.14ZM31.09,57.64s.02,0,.02,0c0,0,0,0,0,0,0,0-.02.01-.03.02ZM30.86,57.51c.08-.02.19,0,.3.02.01-.02.02-.04.03-.06-.05-.02-.15-.02-.34.04ZM31.22,57.54s.02-.02.03-.04c0-.08-.03-.07-.06-.03.04.01.04.04.02.07,0,0,0,0,0,0ZM31.22,57.54s-.02.03-.03.04c.02-.01.02-.03.03-.04-.02,0-.04-.01-.06-.01-.01.03-.03.06-.04.1.02-.01.05-.02.06-.04-.02.02-.04.03-.07.04-.23.56-.53,2.12.82.98.46-.39-.2-.91-.71-1.07ZM21.91,60.06c.75.68,2.54.96,3.2,0-.21-1.7-3.52-2.86-3.2,0ZM59.96,64.2c1.25.94,2.17-.67,2.55-1.59-1.42-.03-2.39.38-2.55,1.59ZM52.28,63.25c0,.18.26.36.32,0,0-.18-.26-.36-.32,0ZM18.72,64.52c.85-.21,1.63-.5,2.24-.96-.97.09-2.18-.05-2.24.96ZM54.84,63.88c.09.09.48-.15.32-.32-.09-.09-.49.15-.32.32ZM51.32,68.98c1-.15-.05.79,0,0-.21,3.52,2.76-.41,0,0ZM38.54,75.36c.21,0-.02.19,0,0-.25,2.68,1.87,0,0,0ZM20.63,80.46c.31,0,.25-.39.32-.64-.31,0-.25.39-.32.64ZM20.32,81.1c.31,0,.25-.39.32-.64-.31,0-.25.39-.32.64ZM20,81.73c.31,0,.25-.39.32-.64-.31,0-.25.39-.32.64ZM24.69,85.21s0,0,0,0c-.09.02-.18-.07-.25-.18-.03-.04-.05-.07-.07-.11-.32-.2-.82-.34-1.28.21-.39.46-.54,1.19-.07,1.66,1.24,1.26,1.8-.99,1.78-1.88,0,.2-.04.28-.1.29ZM24.69,85.21s-.12-.15-.31-.27c.02.04.04.07.06.1.08.1.18.18.25.17ZM24.36,84.67s0,0,0,0c0,0,0,0,.01,0,0,0,0,0,0,0ZM24.79,84.92c-.23-.18-.36-.25-.43-.25.14.08.29.17.43.25ZM24.35,84.68c-.08,0-.06.13.01.25,0,0,0,0,.01,0-.06-.13-.08-.25-.03-.26Z"/>
    </g>
  </g>
</svg>