<?xml version="1.0" encoding="UTF-8"?>
<svg id="Layer_2" data-name="Layer 2" xmlns="http://www.w3.org/2000/svg" viewBox="0 0 115.04 104.5">
  <defs>
    <style>
      .cls-1 {
        fill-rule: evenodd;
      }
    </style>
  </defs>
  <g id="food_icons" data-name="food icons">
    <g id="broccoli">
      <path class="cls-1" d="M48.92,88.42s-.01.06-.02.11c.01,0,.02.01.04.01,0-.06-.01-.1-.02-.12ZM114.47,43.28c-.9-4.86-2.51-7.44-6.93-9.66-1.99-1-3.97-2.11-6-2.85-.57-.21-1.29-.49-1.68-.62-.43-.14-.77.48-1.18.38-.31-.07-.32-4.87-1.48-5.65-1.01-.67-2.18-1.54-3.42-1.6-1.51-.07-1.93.5-1.96-1.16-.04-1.7-.54-3.85-2.27-4.67-.61-.99-2.55.36-3.16-.58.38.34-.01-5.85-.04-.06.04-7.25-3.74-14.69-11.28-16.37-5.87-1.31-14.9.19-18.45,5.53-1.63-3.77-7.6-3.31-10.17-1.12-.86.73-1.14-1.38-1.85-1.8-.79-.47-1.82-.27-2.68-.27-1.46,0-2.62,1.21-3.24,2.51-.73,1.53-4.05-.87-5.23-1.27-2.1-.72-4.3-1.04-6.52-.99-3.96.09-7.71,3.91-8.71,7.57-.53,1.95-1.36,4.78-.75,6.74.69,2.19-2.95,1.07-4.33,1.37-3.69,2.7-6.19,6.8-9.91,9.56-.71,2.88-1.98,4.86-1.53,7.98.24,1.65-1.16,3.26-1.46,5.08-.53,3.15-.34,4.98,2.29,6.96,1.93,1.45,3.62,1.22,5.81,1.98-1.01,1.41-1.25,3.69-.54,5.28.91,2.05,2.98,1.18,4.7,1.1.32,1.42,1.72,3.49,2.77,4.41,1.91,1.68,3.37.47,5.55.05.83,5.28,4.2,9.7,8.42,12.57,2.04,1.39,4.01,2.9,6.43,3.6,1.09.32,1.91-.03,2.74.09.64-.09.64-.87,1.28-.96.14-.46-.35-1.57.15-1.89.78-.5.82,2.98.88,3.48.32,2.75.64,5.5.8,8.27.2,3.25-.05,5.94-.7,9.07-.56,2.69,1.3,5.23,4.06,5.38,2.45.14,7.79-.4,9.75,1.24,1.35,1.13,1.81,2.72,3.92,2.51,2.32-1.02,2.22-4.08,3.25-6.01,1.2-2.25,1.53-4.6,2.82-6.81,5.7-9.78,11.55-19.89,19.51-27.98.34,1.45,1.22,2.6,2.19,3.68,1,1.13,2,1.02,3.25,1.73.61,2.6,3.69,3.86,6.11,3.34,5.45-1.17,7.23-6.87,5.4-11.63,4.47-.17,9.25-1.5,11.9-5.23,2.63-3.72,2.31-8.02,1.52-12.29ZM100,57.1c-1.59.2-6.7-.6-5.45,2.26.82,1.88,3.53,1.79,5.22,1.77-.12,2.68-1.3,6.81-4.27,7.63-.75.21-1.54.12-2.25-.18-1.34-.56-.66-1.08-.49-2.23.18-1.2-.76-2.51-2.14-2-1.14.42-1.87,2.23-2.9.15-.54-1.08-.51-2.35-.82-3.49-1.05-3.81-6.07,1.15-7.13,2.45-2.41,2.96-4.76,5.95-7.47,8.62-2.61,2.56-4.76,5.32-6.97,8.12-.36.46-.86,1.89-1.55,1.91-.83.02-.93-.72-1.48.3-.74,1.39-1.34,2.69-2.02,4.2-.72,1.59-.66,3.39-1.16,5.1-.47,1.59-1.04,3.14-1.23,4.79-.99-.13-1.86-.61-2.88-.63.44-.9,2.62-2.13,1.91-3.41-.58-1.05-2.53-.88-3.38-.29-1.01.7-2.58,2.16-3.75,1.4-1.12-.73-1.7,1.03-2.44,1.35-1.16-1.18,1.25-2.28,1.47-3.31.39-1.87,1.34-1.22,2.67-2.33,1.81-1.52,4.05-4.7.02-3.6,1.68-1.71-1.72-1.49-2.55-1.28-.22-.76.83-1.47,0-2.13-.74-.6-1.34-1.75-2.25-2.01.67-1.32,2.04-2.12,2.62-3.5.78-1.86-.36-.92-1.33-1.28.52-1.91-2.68-.87-3.2.33-.45,1.05-.95-2.17-.99-2.53-.19-1.63-.93-1.35-2.54-1.29-2,.07-4.79-.71-6.74-1.27-2.58-.74-4.83-2.22-6.67-4.16-.74-2.79-3.49-4.57-2.69-7.68.41-1.62-.83-2.68-2.42-2.52-.08-.53-.5-1.99-1.38-1.59-.86.39-.73-.31-1.51.12-.69.38-.67,1.4-1.59,1.47.12-1.56-.62-2.7-2.24-2.87.14-1.09,1.2-2.29,0-3.19-1.06-.11-1.73.37-2.58.89-3.25,1.99-1.53-1.39-1.49-2.87.06-1.63-4.19-2.94-5.41-3.34-1.83-.61-2.11-2.83-1.31-4.49.41-.85,1.19-1.38,2.15-1.34-.11-.33.2-1.99.34-2.14,1.39-1.46,1.96-2.82-.23-3.65-2.23-.85.82-4.21,1.91-4.87,1.96-1.17,4.36-1.51,6.61-1.78-.91-1.75,1.34-3.01.32-4.78,1.06.47,2.28.68,3.42.41,1.7-.4.92.17,2.54.23,1.87.07,2.85-1.27,1.76-2.93-1.77-2.72-2.06-7-.3-9.75,3.3-5.15,14.26-2.37,16.87,2.79,1.37-1.02.36-3.35-.32-4.46.23-.94,1.34-2.82,2.54-2.01.88.59.83,1.99,1.93,2.33,1.88.14,1.2-1.88,2.56-2.06,1.36-.18,1.67-1,3.39-.84,2.18.2,2.76.08,3.83,2.14.71,1.38-.04,3.36.78,4.47.66.89,2.55,1.77,3.51.75,1.45-1.26,2.01-3.25,3.52-4.46,1.59-.6,3.07-1.46,4.69-1.96,1.62-.5,3.31-.78,4.79-1.66,1.74-1.04,2.27-1.51,4.33-.55,6.18,2.87,6.96,10.32,6.96,16.28,0-1.28.34,1.33,0,0,.21.81-.93,3.21.65,2.8.92-.24,1.32-1.11,1.71-1.88,1.74-3.47,4.07-.38,3.41,2.49-.68,3,3.68,1.87,5.63,2.76,1.4.64.98,3.77.15,4.72-.49.56-1.99,3.04-.04,2.82-.34,1.12-1.87,5.38,1.44,4.09.48-.19,1.78-1.44,2.08-1.86,1.37-.15,2.75-.07,4.09.26,2.19.55,4.9,1.22,6.11,3.2,1.47,2.4,2.46,5.6,2.36,8.41-.24,6.27-5.19,7.97-10.72,8.65ZM48.92,88.42s.01,0,.02.12c-.01,0-.03,0-.04,0-.03.22-.09.67-.28.95-1.1-.3-.38-.92.28-.95,0,0,0-.01,0-.02-.12-.04-.03-.25.02-.11ZM72.28,8.53c1.24-1.5-.74-3.47-2.24-2.23-.75,1.15.84,2.22,2.24,2.23ZM39.99,12.35c.01.12,0,.24-.01.36.04.19.07.23.01-.36ZM39.92,12.17c.03.06.06.12.07.18-.04-.14-.06-.19-.07-.18ZM39.98,12.71c-.04-.19-.09-.52-.06-.54-.63-1.41-3.14-1-2.62.92.43,1.6,2.48.96,2.68-.39ZM73.46,16.9c-.06.19-.13.37-.22.55.14-.27.2-.44.22-.55ZM73.24,17.45c-.1.05-.2.08-.3.12.08-.02.17-.05.3-.12ZM72.94,17.57c-.72.2.61-1.23.52-.67.94-3.07-2.29-7.68-4.36-3.83-1.36,2.53,1.17,5.51,3.84,4.5ZM29.77,19.36c.73-.84.73-2.03,0-2.87-2.85-.78-3.04,3.7,0,2.87ZM47.35,18.09c-1.58-.19-1.57-.1-1.16.01.36-.05.74-.06,1.16-.01ZM43.51,23.83c1.28.08.34-1.23.96-1.27,0-1.18,1.08-2.14,1.74-.78.55,1.12.88,2.41,1.73,3.38.9,1.03,1.84.28,3.02.41,2.01.22.35-1.16,1.82-1.73.9-.28,1.53-1,2.53-1.05,1.76-.09.99,2.62.99,3.92.86.93,1.77,2.11,3.07,1.15,1.25-.91.76-2.53.76-4.02-.81-1.07-.73-2.26-.96-3.51-1.06-.76-2.3-1.25-3.56-1.55-2.57-.62-4.26.06-6.35,1.55-.49-.86-1.09-1.68-1.92-2.23.46.31-.66.15-1.16.01-1.61.21-2.6,1.35-3.19,3.05-.29.85-.75,2.21.51,2.68ZM37.12,20.64c1.22-.08.75-1.84-.49-1.9.1.06-.28.26-.27.15-.42.66-.25,1.97.76,1.74ZM36.48,18.73c.05,0,.1.01.15.02-.02-.01-.06-.02-.15-.02ZM36.36,18.9c.04-.06.07-.12.12-.17-.09.09-.12.14-.12.17ZM82.51,33.07c.77-4.71-7.88-3.35-7.03.64,1.45.17,1.98-1.25,3.31-1.35,1.94-.14.85,2.33,1.87,3.31,1.24,1.19,1.37-.87,2.19-1.05,1.31-.29,2.07,1.37,2.32,2.33.25.96.22,4.43,1.54,3.99,1.09-.37,1.43-1.61,1.52-2.62.31-3.48-1.75-6.79-5.71-5.24ZM82.51,33.07c.84-.33.19-1.14,0,0h0ZM19.85,32.9c-.29-2.16-3.12-2.39-4.93-1.44-1.23.65-2.1,1.49-2.1,2.88,0,1.25.24,1.64-.7,2.49-2.77,2.5-.15,9.42,3.84,7.52,2.1-1-.28-2.53-1.09-3.2-2.29-1.88,1.37-1.34,2.11-1.71,0-.72.18-2.13-.54-2.65-.51-.37-1.02-.32-.74-1.17-.2-3.17,2.71-.95,3.98-1.78-.31.13.03-.99.17-.94ZM19.86,33.71c-.05.05-.11.09-.17.13.04-.02.1-.05.17-.13ZM19.86,33.71c.07-.58.05-.79,0-.81.03.25.04.51,0,.81ZM29.27,42.94c2.62,1.83,4.92-2.62,2.44-3.45-3.47-1.16,1.94-2.36,3.49-1.96-1.3-.34-.33-1.69-.04-.94-.51-2.41-4.46-1.99-6.22-1.03-2.88,1.57-2.12,5.67.33,7.38ZM35.2,37.53c.05-.46.02-.76-.04-.94.06.28.08.58.04.94ZM48.63,41.68c-.09-.05-.17-.12-.25-.18.03.05.11.11.25.18ZM49.28,41.55c-.19.07-.4.12-.65.13.51-.02.67-.07.65-.13ZM43.1,38.79c.82-.9.8-.72,1.85-.65,1,.07,1.59-.58,2.19.68.4.83.48,2.04,1.23,2.68-.16-.23.86-.08.9.06,1.98-.71.57-4.36-.72-5.2-1.99-1.31-5.06-1.93-6.6.4-.6.93-.23,3.53,1.14,2.04ZM79.64,54.97c-1.17-.61-2.7-1.2-1.53-2.78,1.79-2.43-2.11-1.94-3.37-1.35-1.37.64-1.85,0-3.15-.42-1.31-.42-2.06.86-2.95,1.65-1.76,1.55-3.83,3.21-4.71,5.25-.53,1.21-1.26,2.32-1.87,3.49.02.75-.05,1.67-.64,2.23-.02,1.22-.31,5.16-1.6,5.74-.23-2.3-1.03-4.46-1.6-6.69,1.77-.06,1.83-1.12,3.04-2.65.94-1.18,1.92-2.61,2.69-3.91.74-1.25.86-2.33,1.79-3.37.77-.87.97-2.34,1.75-3.46-1.4-.09-3.12,1.81-3.63-.39-.31-1.32-.16-2.69-.35-4.02-.21-1.47-.94-2.38-2.33-2.03-1.14.29-.92,2.22-1.29,3.17-.82,2.1-2.37.18-3.66.04-2.67-.3.45,3.3-1.3,3.97-1.2.46-2.54.39-3.74.86-.14,1.05.08,1.97.39,2.96.13.41,1.74,3.69.89,3.74-.55-2.55-2.65-4.25-2.56-7.01-2.28-.07.59,5.87.94,6.9,1.12,3.23,1.54,6.89,2.16,10.25.51,2.75.73,5.29.73,8.11,0,1.63.2,2.47,1.92,2.47.98-.13.58-1.47,1.28-1.91,0,3.47.63-.08.96,1.28.44,1.21,1.27,2.2,2.56,2.55.76-1.08-.64-1.81-.91-2.76.01.05-.35-1.46-.04-.75-.2-.46.7.37,0,0,.54.29,2.21,2.39,2.52.43.15-.93-1.27-1.28-1.17-2.18.12-1.1,2.09.59,2.81.47.71-.88.55-1.84.32-2.87,1.66-.42,3.04.62,3.67-1.12.5-1.35,2.18-1.56,1.76-3.35,1.55,1.12,2.5-.46,2.24-1.91.97.7,3.01-.89,2.24-1.91-.41,1.27-1.95,1.52-2.88.64-.57.51-.05,1.67-1.28,1.28.31-1.62,5.06-6.39,6.84-6.64.69-.1-1.74,2.29-1.72,2.49.52.52,2.04.52,2.56,0,.33-.78-.05-1.42,0-2.23,1.59.36,5.05-2.79,2.25-4.25ZM56.86,57.32c-.29-1.41-1.14-2.58-1.56-3.96-.66-2.19,2.52-1.64,2.6-4.03,1.61.38,2.18-1.08,2.56,1.59.61.81,1.33,1.37,1.88,2.04.3.37-3.86,6.72-4.11,7.85-.99-.81-1.12-2.33-1.36-3.49ZM73.38,57.75c-1.13.75-2.03,1.69-3.05,2.57-2.77,2.38-4.99,6.18-6.67,9.41-.8-.29,2.32-8.76,2.79-9.65,1.09-2.05,2.18-4.12,3.6-5.97-.33-1.87,3.31-.1,4.16,0-.27,1.79,1.32,2.22-.82,3.64ZM57.9,49.33c-.07,1.85.98.23,0,0h0ZM74.2,54.11c-1.43-.17-.16,1.01,0,0h0ZM37.76,64.31c-1.04.08.18.66,0,0h0ZM48,66.23c-.04-1.49-1.28-2.21-.97-3.83-.68-.35-1.08-.76-.96-1.59-.53-.14-.9-.46-1.14-.94-.71-1.25-1.75-1.93-3.34-1.61.09-1.23-1.36-1.61-2.32-1.57-1.49.06-2.34-.32-2.47-2.26-1.37.03-2.19-1.18-3.52-1.28-1,.06-1.53.9-2.4,1.22.61-.31-1.03-.97-.16.06-1.32-1.56-2.92-3.64-4.3-1.26-1.14,1.97.24,5.05.84,7.07,1.26,4.23,3.77,9.33,8.89,9.49-.27-3.02,2.77-2.45,4.8-2.23,1.67,2.81,2.65,1.07,4.47-.32.83,1.86,2.6.61,2.57-.95ZM38.4,66.23c-5.26-.22-6.78-4.86-8.63-8.93.35-.05,3.88-.44,3.71-.59.77.69.17,1.43,1.55,1.88,2.81.94-.4,5.97,2.74,5.72.21.75.77,1.04.64,1.91ZM48.54,71.27c-1.03.14-1.64,1.29-.87,2.28,1.68,0,2.26-.44,1.6-2.23.22.61-.66.15-.73-.05ZM49.27,71.32c-.6-.19-.76-.15-.73-.05.23-.03.47-.03.73.05Z"/>
    </g>
  </g>
</svg>