<?xml version="1.0" encoding="UTF-8"?>
<svg id="Layer_2" data-name="Layer 2" xmlns="http://www.w3.org/2000/svg" viewBox="0 0 114.73 85.75">
  <defs>
    <style>
      .cls-1 {
        fill-rule: evenodd;
      }
    </style>
  </defs>
  <g id="food_icons" data-name="food icons">
    <g id="burger_fries" data-name="burger&amp;amp;fries">
      <path class="cls-1" d="M51.48,54.83c-1.76.38,1.18-.21,0,0h0ZM36.77,29.65c-.41.02,3.7.08,0,0h0ZM85.49,1c.28.09.56.17.83.28-.41-.17-.67-.25-.83-.28ZM78.91,1.87c-.41,0-.81.02-1.22.05,0,.24,1.62,0,1.22-.05ZM108.52,34.44c0,.23.04.44.18.62.21-.57-.07-.76-.18-.62ZM113.78,31.76c-.65-.39-2.48-2-3.2-1.59-.99.57,0-4.36.1-4.99.36-2.43.71-4.87.9-7.33,1.17-2.61.78-3.76-2.1-4.52-1.66-.44-3.27.24-4.68.08-.06,0,.08-5.04-.25-5.75-2.53-.89-5.4-.12-7.99,0,.1-1.77-.06-3.19-1.92-3.19h-5.11c-.87-.02-2.41.92-3.2.32-.15-1.1.5-2.26.08-3.31.12.57-1.71-.63-.91-.47-2.89-.89-6.12-.6-9.08-1-1.71,2.21,0,5.52,0,7.97-1.58.09-3.3-.15-4.83.34-.97.32-2.55,1.92-.63,2.15,1.74.21,3.4-.7,5.15-.58.18,2.34.38,4.67.61,7,.92,9.59,2.19,19.13,3.23,28.7-3-1.37-3.47-4.57-4.62-7.18-1.01-2.28-5.89-.79-7.84-.79-1.06-3.62-1.8-7.34-2.41-11.06-.47-2.89-.6-6.23-2.38-8.71.54-.31,6.11-2.07,6.07-1.91.8,3.42.15,7.05.32,10.52-.34,2,.56,4.99.77,7.14.16,1.58,2.58,5,3.33,1.8.5-2.13-.49-5.32-.65-7.51-.26-3.46-.7-6.96-1.31-10.37-.37-2.04-2-5.59-1.51-7.63-.88.1.31-1.79-.96-1.28v5.42c-2.18-.15-12.01,1.77-8.67,4.98,2.42,2.32,2.16,8.78,2.27,11.92-3.18-2.12-5.66-3.4-9.47-4.23-3.58-.79-7.02-.87-10.67-.87-.95-.16-2.67.32-3.73.32-1.62,0-3.2.31-4.79.57-3.29.53-6.57,1.11-9.87,1.56-3.87.52-7.74.44-11.41,1.89-2.88,1.14-5.53,2.76-8.06,4.53-2.63,1.84-3.31,2.98-4.24,5.91-.43,1.36.57,1.13,1.07,2.07.57,1.08-.35,1.45-.54,2.29,1.06-.16,1.51.35,2.24.96,1.25.05,2.5.13,3.75.21,2.57.17,5.15.36,7.73.41,4.62.1,9.15-.62,13.77-.62,6.83,0,13.75-.96,20.6-.96,4.29,0,8.49.14,12.73.34,1.81.08,8.16,1.66,5.4-2-.53-.7.18-.83.41-1.4.57-1.4,0-1.32,1.8-1.47,1.18-.1,2.34-.34,3.5-.57.24.6.5,1.19.77,1.78,1.44,3.1,3.48,5.99,6.8,7.24,3.34,1.26,8.35,1.04,11.25-.55,1.91-1.04,3.14-3.09,4.63-4.73,1.29-1.42,1.54-3.4,3.07-4.7,2.18-.03,4.39.48,6.53.31,1.92-.16,1.91.53,1.37,2.23-1.02,3.24-1.99,6.35-2.73,9.63-.18.82-.13,1.68-.38,2.49-.33,1.08-1.4.59-2.32.88-1.58.5-2.94,1.35-4.53,1.78-3.83,1.02-7.76,2.7-11.4,4.33-3.2,1.44-2.72-1.54-5.25-1.79-.98-.09-1.03-1.39-2.09-1.38-.79-.18-1.17.33-1.92.32-.05-.79-1.09-.67-1.6-.64-1.74.72-3.03,2.19-4.8,2.87,0-.03-.87-1.41-.95-1.6-.39-.94-.86-1.21-1.5-2.02-1.16-1.46-2.51-4.54-4.69-2.71-2.39,2-2.05-1.83-4.51-.94-2.14.78-2.41-1.37-4.33-1.35-1.14.29-1.62,1.52-2.88,1.59-1.06.22-1.57-.62-2.56-.64-1.26.44-3.19,2.93-4.54,1.44-1.97-2.18-2.48.17-4.73.15-1.08.22-1.37-.47-2.23-.84-.98-.42-1.57.75-2.25,1.27-1.31.99-1.42.21-2.51-.31-1.16-.55-1.21.86-1.73,1.47-.84.98-1.52-.68-1.89-1.21-.86-1.21-1.75-.43-2.68.18-1.13.75-1.69-.57-3.02-.56-1.07.21-1.78,1.13-2.87,1.28-2.43-1.08-2.39-2.51-5.44-1.78-1.24.3-1.98-.48-3,.54-1.03,1.03-1.49.22-2.57-.21-1.64-.66-2.5-.17-4.1.41-1.55.56-1.33,1.1-2.41,2.22-1.14,1.19-1.9,1.73-2.62,3.28,0,.73-.21,2.26.96,2.23.42.81,3.76-1.37,4.48-1.59,0,1.18-.36,2.03.93,2.42,1,.3.63.88.05,1.43-1.55,1.44-2.98,2.36-2.92,4.67.12,4.27,6.27,3.09,8.65,5.83-1.85-.45-3.75.37-5.55-.21-1.67-.54-3.16-2.23-4.38-.44-1.01,1.48.37,1.76.68,2.87.27.95-.24,4.74.73,5.01,1.36.38,1.82,2.31,3.8,2.27,1.8-.03,3.62.27,5.36.71,4.38,1.09,9.9.78,14.42.93,4.88.16,9.59-.71,14.43-.47,2.2.11,4.52.27,6.64-.46.75.17.64.9,1.6.64h4.25c5.07,0,8.68.05,11.57-4.6.97-1.56,4.46-.18,6.25-.21,2.63-.04,5.25-.01,7.88.02,5.17.06,10.35.16,15.51-.22,2.42-.18,4.86-.1,7.29-.1,1.77-2.07,1.92-3.23,1.92-5.9,0-4.8,1.84-9.8,2.81-14.48.52-2.51.96-5.05,1.22-7.6.18-1.78,1-3.44,1.08-5.17.19-3.86,2.58-7.82,3.51-11.48.85-1.3,2.68-2.69.6-3.95ZM3.85,42.72c-.44-.1-.27-.8-.32-1.28.74.09.73.85.32,1.28ZM61.3,36.32c.87-.95.68-.61,1.27.19.3.41,1.27.63,1.05,1.42-1.33.47-2.8.26-4.16.64.05-.28.12-.46.2-.57.37-.69,1.09-1.09,1.63-1.68ZM23.99,43.35c.98-1.48,3.41-1.16,4.15-2.87-.29.11-1.65-.36-1.6.32-2.72-4.86-6.96,2.05-10.23,2.87.2-.87,1.21-.8.96-1.91-.62-1.08-1.89-.56-2.75-.18-1.19.52-4.47,2.93-5.78,2,0,0,.74-1.12.54-1.5-1.03-.51-2.14.31-3.2.32.27-.75,1.5-.38,1.6-1.27.66-.64-.44-.85-.32-1.59,1.06.12,1.44-1.35.37-1.7-.69-.22-1.58.17-2.29.11,4.62-2.45,8.17-5.76,13.75-5.74-.09.66-.86.64-1.28.96.16,1.01-.15,1.85-.29,2.82-.25,1.72,1.41,2.21,2.82,1.71,2.3-.82,3.67-5.3.35-5.48.21-.81,5.89-.88,6.56-1,3.05-.54,6.36-1.42,9.42-1.55,2.31.05,4.61-.21,6.92-.33,1.21-.06,2.42-.07,3.63,0v1.91c1.44.73,3.03.28,3.53-1.02.33-.85,4.42.82,5.1,1.02-.34.92-2.9,1.1-1.25,2.73,1,.98,3.47.26,3.49-1.46,2.62,1.53,1.5,2.01-.11,3.93-1.07,1.28-1.06,2.84-.32,4.31.89,1.78,3.4.41,4.88.21,2.47-.33,2.24-.01,2.9,2.07-13.74-2.31-27.76.07-41.56.32ZM82.46,44.8c-.1-1.51-.26-2.99-.37-4.49-.33-4.31-1.19-8.57-1.65-12.87-.9-8.42-2.75-17.05-2.75-25.53.72-.06,1.08-.06,1.22-.05,1.41-.02,2.81.11,4.2.34,1.61.26,1.96-.19,1.83,1.66-.07.88-.12,1.77-.15,2.65-.18,4.5-.02,8.99.14,13.49.31,9.01.3,17.88,1.4,26.85-2.15,0-3.7.53-3.87-2.06ZM88.56,46.54c-.75-6.68-.73-13.42-.92-20.12-.18-6.48-1.15-12.91-1-19.41-.2,8.7,0-.32,0,0v-.96c2.04.73,4.45.27,6.57.28,1.86,0,1.12,1.33,1.12,2.84,0,1.39-.02,2.79-.05,4.18-.1,5.04-.32,10.08-.29,15.12.01,2.73.1,5.46.32,8.18-.42,1.52,1.15,1.34,1.28,2.55-1.96,2.46-3.68,6.5-7.03,7.33ZM7.06,58.96c-.45-.88-2.75-.22-3.42.07-.2.09-2.72,1.29-1.44.13,1.62-1.48,2.56-3.45,5.17-3.37,1.71.27,4.02,2.57,5.54.64.46-.58,2.94-.58,3.72-.64,1.25.86,1.65,1.96,3.31,1.96,1.06,0,2.33-.15,3.08-1,1.03.08,2.17.96,3.21.54,1.29-.52,1.08-.33,2.29.48.89.6,2.45.33,3.07-.55.9-1.29,4.1.45,4.86-2.06,1.7,2.31,4.08-.1,5.76-.64.51,2.39,3.94,1.83,5.13.44,1.21-1.42,2.43.25,4.14-.12,1.11-.2,1.57-1.15,2.24-1.91.84.76,1.68,1.65,2.84,1.91,1.27.28,2.06-.86,2.97.45,1.33,1.91,3.01,1.21,4.1-.45.59.31.6,2.14.73,2.16.64.11,1.92.3,1.83,1.66-1.3-.52-2.37,0-3.08,1.12-.84,1.31-2.35.55-3.8.32-1.39-.22-1.64-.12-2.33,1-.56.9-3.03.08-3.96-.06-3.07-.47-5.59-1.42-8.72-1.42-2.79,0-5.65.8-8.5.88-2.17.06-6.22,1.11-7.95-.26-.87-.69-2.33.21-3.45-.21-1.21-.45-1.85-.27-2.96.54-1.02-.06-1.86-.26-2.88,0-1.11-.05-1.38-.85-2.58-.89-1.85-.06-3.39-1.63-5.28-.77-2.26,1.03-2.39,2.46-3.62.05ZM56.27,65.03c.85.72,2.08.8,2.88,1.59-.92.93-3-.15-2.88,1.59-.83-.55-.82-.74-.6-.69-.24-.74.56-1.52.6-2.49ZM56.27,69.18c.86.19.05.87,1.32.47.5-.19,1.02-.24,1.55-.15-.81-.15.07-.09.16-.04.61-.18.51-1.09.48-1.56,3.32,2.68-5.55,3.43-3.52,1.28ZM50.91,67.36c-.18.19-.38.35-.6.48-1.57.08.9-2.03,1.49-2.17.12,1.81,1.92.31,1.92,2.07,0,.85,1.37,1.64.64,2.39-.23-.03-.65-1.53-.64-1.59-.06.27-.76-.41,0,0-.61-.33-2.06-1.64-2.8-1.18ZM44.76,71.09c-.64.04-1.21-.73-1.75,0-.63.86-.82.63-2.08.63,1.33-1.42,3.24-2.07,4.8-3.19,1.12-.43,1.54-.16,1.28.8.25.67.05,1-.62,1-.72.06-1.29-.1-1.62.75ZM45.41,73.32c-.01.31-.39.25-.64.32.01-.31.39-.25.64-.32ZM16.63,66.31c1.71-1.03,3.9.36,5.75,0-.23,1.45-2.54.55-2.88,1.91-.59-1.05-1.89-1.37-2.88-1.91ZM19.51,72.36c-.74,0-1.12-.5-1.92-.32.01-2.39,1.89-2.08,1.92.32ZM24.62,67.58c.02-.49-.19-.8-.64-.96,1.42-1.15,5.24.16,6.39,1.27-.77.52-1.66.8-1.6,1.91-.86-.31-.37-1.78-1.6-1.59,0-1.94-1.29-.79-2.56-.64ZM24.95,72.36c-.57.19-1.33-.93-1.6,0-1.09-.62,2.07-1.67,1.6,0ZM19.19,61.84c1.65-.01,2.05.5,3.51-.64.35.01.5.04.54.07,1.12.23,2.16.89,3.29.25.1,1.76-7.95,1.69-7.35.32ZM21.75,73.32c1.07-.26,1.61,1.61,2.81-.07.34-.47,2.16-1.13,2.95-1.21,1.17-.28,1.67,1.69,2.81.68.87-.77.58-2.25,1.02-3.23-.54,1.16-.37-.05,0,0-.3-.25-.41-.56-.32-.96,2.15,1.97,4.58,4.22,7.65,4.1.81-.03,3.49-.06,4.18.68-.66.86-4.06.64-5.01.64-1.79,0-3.57.32-5.37.35-3.77.05-7.63-.39-11.36.29.19-.71,1.02-.24.64-1.28ZM45.23,65.75c-.34,1.39-6.63,4.55-7.99,4.05-2.08-.75-6.76-3.49-7.5-5.72.93.1,4.9-.67,5.44-1.59,4.47.04,9.05-.48,13.47.39,6.45,1.26-3.24,2.17-3.42,2.88ZM48.6,67.9c-.17-.16.23-.41.32-.32.16.17-.23.41-.32.32ZM49.88,73.64c.95-.25.62-1.36,1.92-.96-.07,2.06-2.85,1.65-4.16,1.28.14-.75,1.77-.18,2.24-.32ZM50.52,70.77c-.08-1.09.34-1.27,1.28-1.27v1.59c-.38-.27-.81-.37-1.28-.32ZM14.23,61.54c.63.04,2.03-.41,1.76.62-1.76-.03-3.32-.88-5.11-.64.44-1.6,2.35-.6,3.2,0-.71-.5.19-.05.16.02ZM11.2,70.13c0-.12.95-2.33.44-2.2-.43.11-.41.96-1.07.61.37-.74.86-.96.64-1.91-.8.11-1.39.47-2.24.32.85-1.11,2.57-1.32,2.88-2.87,2.69,0,3.2,1.17,2.56,3.51-.54-.42-1.27-.99-1.92-.32.41.82,1.11.95,1.92.64-.22.64-2.52,2.42-3.2,2.23ZM60.75,82.56c-.17-.17.23-.41.32-.32.17.16-.23.41-.32.32ZM60.47,79.78c-.81,1.39-.45,2.34-2.28,1.82-2.77-.78-6-.24-8.87-.4-3.33-.18-6.29-.37-9.64-.17-2.99.18-6,.27-8.98-.08,1.56-1.78-1.52-1.25-1.85-2.09-.41-1.07-1.76-.99-2.7-.64-1.47.55-2.47-1.07-4.26.3-.91.7-3.35,2.74-4.62,2.19-.7-.3-.04-1.4-1.3-1.05-.7.2-.71,1.06-1.58.97.11-1.29-1.07-.45-1.29-1.26-.24-.87,0-1.21-1.17-.68-1.12.5-2,1.26-3.29,1.31-.62-.59.11-1.22,0-1.91-1.04-.04-1.68.83-2.65.93.55-.13-.01-.8-.26-.74-.05.27-.05.53.03.76-.2-.53-.15-.73-.03-.76.21-1.14,1.26-2.47-.29-2.75.03-.5,10.62,1.57,11.78,1.62,2.47.1,4.87-.34,7.32-.34,1.52,0,3.83-.55,5.19-.32,5.2.44,10.34-.79,15.53-.48,5.38.32,10.7.48,16.12.48.06,1.21-.32,2.25-.92,3.28ZM101.7,63.21c-1.04,4.06-1.92,8.16-2.27,12.34-3.24-.09-6.47-.04-9.7.18-.96.07-6.59.2-6.68-.04-.15-.41-5.13.11-5.83.14-1.96.08-3.91.1-5.87.07-1.34-.03-2.89-.58-4.21-.35.69-.82,1.9-1.11,2.24-2.23-1.62-.24-1.88,1.2-3.2,1.59,0-1.04,1.62-1.48.64-2.55-.98.1-1.62.75-2.43,1.23-1.19.71-2.48-.24-2.69,1.32-1.08.04-2.7.8-3.52-.32.89-.88,2.27-1.01,3.12-1.93.96-1.04,2.65-.41,2.94-2.28.31-1.98-.2-6.39-2.55-6.95.63-1.03,2.8.1,3.75-.45.83-.47.71-2.27,2.01-1.47.18.71-.61.4-.64.96.06,1.05-.03,2.09-.14,3.14-.04.39-.44,4.6.06,4.45.95-.29.15-1.26,1.52-1.39,1.54-.14.29-.41,1.11-.78,1.44-.65,2.67-1.91,4.07-2.95,1.44-1.08,1.45-1.9,2.97-.56.61.54,1.21,1.08,1.97,1.38,1.24.48,2.1,1.51,3.13,2.46.81-.3,1.43-.3,2.24,0-.91-.33,6.24-2.49,0,0,3.9-1.55,7.85-2.98,11.7-4.67,1.87-.82,3.71-1.7,5.49-2.7,2.24-1.25,1.12.92.76,2.36ZM107.32,31.1c-.38,1.43-.79,2.86-1.18,4.29h-4.08c-1.78,0-3.83-.41-5.51.32.59-8.73,0-17.7,0-26.46,1.55.08,3.06-.35,4.6-.37,1.66-.03,2.18-.07,1.9,1.65-.49,3.08-.82,6.18-1.14,9.28-.3,2.96-.56,5.85-.56,8.83,0,1.41-.7,5.17.62,6.19,2.15,1.64,1.96-2.69,2-3.57.12-2.58-.07-5.17-.11-7.75-.04-2.41.24-4.79.42-7.2.16-2.31.47-1.87,2.58-1.57,1.16.16,2.32.3,3.45.58-1.17,5.25-1.58,10.58-2.97,15.8ZM108.7,35.07c-.24-.33-.24-.54-.18-.62-.02-.99.9-2.31.82-3.2.24-.05,2.42,1.72,2.44,2.19.07,1.37-2.54.16-3.08,1.64ZM23.25,61.28c-.18-.04-.36-.06-.54-.07-.37.28.68.17.54.07ZM14.23,61.54c-.05,0-.11,0-.16-.02.12.03.15.03.16.02ZM19.51,68.22c.32-1.28-.58-1.02,0,0h0ZM17.59,72.04c.98-.23,0-.95,0,0h0ZM56.27,68.22c-.03-.39-.4-.65-.6-.69.08.23.26.46.6.69ZM24.62,67.58c1.15-.14.01-.55,0,0h0ZM11.84,64.07c-.32,1.6.64,0,0,0h0ZM50.52,70.77c.56-.02-.04-.57,0,0h0ZM96.55,9.24c0,6.54,2.2.11,0,0h0ZM35.17,62.48c-.43.74,5.93.05,0,0h0ZM45.72,68.54c-1.55,1.11.42,0,0,0h0ZM49.88,73.64c-.66.19.76-.2,0,0h0ZM59.31,69.46c-.05.02-.1.04-.16.04.15-.01.18-.02.16-.04ZM59.67,38c-.09.17-.17.36-.2.57,1.01-.29.55-1.06.2-.57ZM78.65,3.83c.22,0-.02.19,0,0-.25,2.68,1.87,0,0,0ZM82.8,4.78c.02.86.73,1.53,1.28.96.09-.84-.44-1.05-1.28-.96ZM80.57,6.7c-.1.43-.46.61-.32,1.27,1.09.24,1.25-1.22.32-1.27ZM82.16,9.56c.06.9.56,1.36,1.6,1.28.38-1.38-.92-1.91-1.6-1.28ZM89.84,9.56c.21,0-.02.19,0,0-.19,2.08,1.35,0,0,0ZM100.06,10.52c.22,0-.02.2,0,0-.25,2.68,1.87,0,0,0ZM73.21,12.43c0,.53-.95-.38,0,0-3.56-1.42,0,4.75,0,0ZM65.55,18.49c.03.87-.54.64,0,1.28,1.23.25,1.23-1.53,0-1.28ZM108.06,18.81c-1.09-.24-1.25,1.22-.32,1.28.1-.43.46-.61.32-1.28ZM89.2,21.36c.84-.09.01.44,0,0,0,.36-.11.68-.32.96,1.25,1.22,2.49-1.19.32-.96ZM65.55,22.31c0,.18.26.36.32,0,0-.18-.26-.36-.32,0ZM89.88,30.68c.03.16.02.34-.04.56.15-.53.11-.63.04-.56ZM89.88,30.68c-.18-1.06-2.08-.75-1.52.23.56.99.82.24,1.48.33-.22-.03-.05-.47.04-.56ZM43.14,33.67c.04.08.06-.01.02-.52.01.18,0,.35-.02.52ZM38.22,33.56c.78.96,1.05,1.9,2.49,2.04,1.21.12,2.26-.79,2.44-1.93-.07-.14-.2-.83-.18-.96-1.42-2.62-7.17-2.12-4.75.85ZM42.97,32.71c.08.14.15.28.2.44-.13-.42-.19-.51-.2-.44ZM48.21,32.34c.12-.06.25-.11.39-.14-.3.07-.4.12-.39.14ZM49.14,32.29c-.19.06-.9.11-.92.05-1.79.92-1.5,4.67,1.07,3.66,1.53-.6,1.49-3.19-.15-3.71ZM48.6,32.2c.2,0,.37.05.54.1.12-.04.04-.08-.54-.1ZM30.46,37.85c-.13-.07-.26-.14-.4-.24.18.13.31.2.4.24ZM32.05,33.44c-1.78-1.17-4.4-.68-3.86,1.79.15.68,2.3,2.46,2.47,1.08.07-.56-.99-.69-.89-1.24.19-1.06,1.8.19,2,.6.65,1.35-1.31.66-1.66,1.8.2-.46.85.56.36.38,2.3,1.15,3.94-2.88,1.59-4.42ZM38.01,35.03c.08-.09-.02-.13-.6.04.26-.08.44-.07.6-.04ZM38.01,35.03c-.15.17-.98.53-.6.04-.51.65-1.28,3.46.47,2.78.62-.24.88-.88,1.45-1.19-.94-.13-.55-1.46-1.32-1.63ZM54.5,35.72c.1.06-.28.26-.27.15-.42.66-.26,1.97.76,1.74,1.22-.08.76-1.84-.49-1.9ZM54.23,35.87c.04-.06.07-.12.12-.17-.09.09-.12.14-.12.17ZM54.35,35.7c.05,0,.1.01.15.02-.02-.01-.07-.02-.15-.02ZM14.71,36.66c-2.6-2.05-3.69,1.92-2.15,2.3,1.18.29,2.06-.43,2.17-1.61-.11-.03-.39-.99-.02-.69ZM14.73,37.35s.07-.16-.02-.69c.04.25.04.47.02.69ZM45.22,37.77c.17.02.33.07.5.17-.28-.15-.43-.19-.5-.17ZM45.22,37.77c-1.29-.18-2.34,1.58-1.23,2.43,1.78,1.35,1.95-1.1,1.73-2.26.18.97-.78-.07-.5-.17ZM28.78,42.4c1.24.84,3.03-.03,3.19-1.27-1.03-.63-3.54-.48-3.19,1.27ZM64.22,49.26c.04.24.06.5.04.79.03-.49.01-.72-.04-.79ZM8.9,51.84c1.94-.42,4.05-.32,6.03-.21,5.76.32,11.41.5,17.19.17,5.89-.34,11.76-.93,17.64-1.24,3.23-.17,6.48-.26,9.71-.18,1.41,0,3.25,1.11,4.43.09-.31.13.16-1.43.33-1.2-.32-1.69-2.17-2.06-3.8-2.4-1.7,0-6.09-.79-7.47.2-1.5,1.08-6.74.35-8.65.46-2.62.16-5.25.37-7.86.61-5.55.52-10.76,1-16.33.69-2.72-.16-5.48-.35-8.19-.38-1.37-.02-3.9-.5-4.99.62-1.62,1.67.2,3.16,1.97,2.77ZM64.26,50.05c-.11.17-.24.3-.37.41.07-.03.19-.14.37-.41ZM32.67,72.97c1.31-.27.27-1.25-.58-1.51-.03.1-.5.23-.43-.06-.23.96-.55,1.88,1.01,1.57ZM31.66,71.41c.13-.01.27.01.43.06.01-.05-.08-.09-.43-.06ZM32.3,80.01c.21,0,0,.21,0,0,0,1.5,1.51,0,0,0Z"/>
    </g>
  </g>
</svg>