<?xml version="1.0" encoding="UTF-8"?>
<svg id="Layer_2" data-name="Layer 2" xmlns="http://www.w3.org/2000/svg" viewBox="0 0 100.38 98.19">
  <defs>
    <style>
      .cls-1 {
        fill-rule: evenodd;
      }
    </style>
  </defs>
  <g id="food_icons" data-name="food icons">
    <g id="cake2">
      <path class="cls-1" d="M98.78,79.38c.32-8.4-.18-17.61,1.6-24.55-2.7-1.34-4.56-3.53-6.39-5.74,1.87-2.08,1.03-7.74-.96-8.93-2.37-.67-3.97-.34-6.71-.32-1.65.16-1.94,1.68-3.83,1.59-3.74-1.37-6.47-3.75-9.59-5.74.21-3.61-.15-6.65-1.28-8.93-1.86-1.86-4.53-2.92-8.31-2.87-2.15.19-3.48,1.2-5.43,1.59-3.57-1.54-6.74-3.47-8.95-6.38,1.03-1.1,1.52-2.74,1.28-5.1-.63-1.92-2.81-2.29-3.52-4.14-.29-1.2-.72-2.25-.96-3.51-1.48-1.6-2.99-3.18-4.16-5.1-1.53-.28-2.23-1.39-4.15-1.28-2.55.75-5.32,1.29-7.67,2.23-.13.4-.41.65-.96.64-.57.6-.87,1.48-1.6,1.91-.37.81-.53,1.81-1.28,2.23-.57,1.77-.99,3.69-1.92,5.1-2.01-.87-4.65-1.1-7.67-.96-2.14,1.06-3.59,2.79-4.8,4.78-.23,2.64-.44,5.3-1.92,6.69-2.1-.01-3.76-.55-5.43,0-.08.03-.47.54-.64.64-1.64.95-2.71,2.39-3.52,3.83v6.38c.63,1.29.85,2.98,1.28,4.46.25.07.38.27.32.64.39.67,1.21.92,1.28,1.91,1.15.66,1.72,1.89,2.88,2.55.53,1.27,2.8.82,2.88,2.55-.6,9.18-2.14,17.42-2.24,27.1-.21,1.27.85,1.28.64,2.55-.07,1.6-1.04,3.01-.32,4.46.91,1.22,2.69,1.58,4.48,1.91,1.5.62,3.35.91,5.12,1.27,3.83.43,7.46,1.06,11.19,1.59,1.24-.17,1.56.57,2.88.32.6.47,2.12.01,2.56.64,1.29-.22,1.82.31,2.88.32,1.04.03,1.97.16,2.56.64,1.32-.25,1.64.49,2.88.32.31.75,1.85.28,2.24.96,1.24-.17,1.56.57,2.88.32.47.7,2.09.25,2.56.96,4.1.17,6.8,1.72,10.55,2.23,1.27.85,3.23,1.03,4.8,1.59,1.36.76,3.4.86,4.8,1.59,7.39,1.24,13.67,3.58,22.06,3.83,1.17-.1,1.77-.79,2.88-.96.9.26.83-.45,1.6-.32-.13-.76,1.46.18.96-.96.05-.79-.16-1.32-.64-1.59-.1-.75-1.52-.19-1.28-1.27,2.6-3.36,3.42-8.5,4.15-13.71ZM84.08,45.28c1.39-.42,1.66-1.96,2.88-2.55h4.8c.51,1.72,1.02,4.62.32,6.38-.1.26-.25.18-.32.32-.33.64-.65.89-1.28,1.59-.67-.19-2.1.39-2.24-.32-1.02.47-1.77,1.2-3.52.96-1.42-.38-2.08-1.54-2.56-2.87.15-1.65.74-2.87,1.92-3.5ZM78,49.42c.19.02.38.05.32.32.79.28,1.85.29,1.92,1.27-.95-.12-1.58-.55-1.92-1.27-.19-.02-.38-.05-.32-.32-.39.03-.2-.46,0,0ZM60.42,28.06h3.52c.71.25,1.73.18,1.92.96.67.78,1.42-.28,1.92.32.21.85.5,1.62.96,2.23v2.55c-.25,2.4-1.02,4.3-1.92,6.06-.81.04-1.12.58-1.6.96-3.87.14-6.47-.99-7.99-3.19.34-2.25-.56-3.26-.64-5.1.73-2.15,1.93-3.81,3.84-4.78ZM64.89,46.23c-.08.75-1.41.18-1.6,0h-3.83c-.74-1.04,1.32-1.51,1.6-2.55,1.14-.49.19,1.08.96.96.11.42.56.5.64.96.91.05,1.33.59,2.24.64ZM55.31,44.64c-.97,1.18-1.08-.97,0,0h0ZM49.55,35.39c.98-.23.94.55,1.92.32.05.79-.5.99-.64,1.59-.76,0-.94-.55-1.92-.32.33-.42.31-1.17.64-1.59ZM46.04,15.31c.16.16-.23.41-.32.32-.17-.16.23-.41.32-.32ZM45.4,47.83c1.55.9,4.07.83,5.75,1.59,4.21.69,7.82,1.98,11.83,2.87,4.23.78,7.16,2.85,11.51,3.51,1.43,1.01,4.07.83,5.43,1.91,1.97.48,3.94.96,6.08,1.28h8.95c-.33,4.95-.05,8.59,0,13.71-2.59-1.35-6.26-1.62-9.27-2.55-1.52-.4-2.8-1.04-4.47-1.28-.47-.49-1.25-.67-2.24-.64-.04-.91-2.19.28-2.24-.64-3.32-.51-6.4-1.26-9.59-1.91-.29-.67-1.8-.11-1.92-.96-1.17.21-1.22-.69-2.24-.64-1.31-.6-2.69-1.14-4.48-1.27-4.99-2.78-11.56-3.99-18.22-5.1-3.61-.23-6.37-1.3-9.59-1.91-3.82-.02-6.77-.89-9.27-2.23-.9-.38-2.2-.35-3.51-.32.19-2.58-.39-5.91.32-7.97.24-1.3-1.03-1.1-.64-2.55v-4.46c.27-.06.3.12.32.32,1.56,1.95,4.96,2.07,7.35,3.19,2.63.89,5.1,1.93,7.99,2.55.21.65,1.5.21,1.6.96.38.47,1.21.5,1.6.96,1.47-.08,1.54-.34,2.88,0,.62.66,1.95.61,2.88.96,1.14.13,1.71.85,3.2.64ZM17.59,37.62c.06-.36.32-.18.32,0-.06.36-.32.18-.32,0ZM23.02,37.3c-.89-.17-1.66-.47-2.56-.64.47-.8,1.24-1.32,2.24-1.59-.19,1.04.22,1.48.32,2.23ZM31.97,30.93c-1.3.08-1.58,1.19-3.2.96.32-1.6,2.32-1.51,3.2-2.55,1.43-.05-.28.82,0,1.59ZM43.48,23.28c-.27,1.22-1.84.23-1.92-.64,1.11-.25,1.35.35,1.92.64ZM8.95,29.97c-.5.67-.57,1.77-1.6,1.91-.67-.5-1.16-1.18-.96-2.55.99-.83,2.27.09,3.52,0-.23.3-.58.48-.96.64ZM12.47,29.97c-1.02-.27-.99.5-1.6.64-.02.2-.05.38-.32.32.31,1.32-.96.06,0,0,.01-.19.04-.38.32-.32-.07-.6.36-.7.32-1.27.77-.4,1.93-.41,2.56-.96.84-.33,1.08-1.27,1.92-1.6.03-1.13,1.18-1.16.96-2.55.85-.42.54-2.01,1.28-2.55.24-1.56-.17-3.78,1.92-3.51-.24,1.25-1.25,1.73-1.6,2.87.08.46.53.54.64.96.95-.22,1.07-1.27.96-2.55,1.53.92.02,4.87,2.56,4.78.42,0,.29-.56.64-.64.39-1.03-1.03-.24-.64-1.27-.14-.61-.69-.8-.64-1.59-.38.03-.19-.46,0,0,1.19.41,1.03,2.16,2.56,2.23.74-.45-.03-2.08-.96-1.91-.5-.77-1.14-1.41-1.92-1.91.62-.8,1.95.38,2.88.32,1.27.1,1.6-.74,2.88-.64,1.02-.15,1.12-1.21,2.23-1.27-.35,1.14-1.72,1.26-1.92,2.55.02.94.73,1.18,1.28,1.59,1.03-.24,1.67-.88,1.92-1.91.61.13.25,1.24,1.28.96.93-.78,1.23-2.17,1.6-3.51-1.14.35-1.89,1.09-2.24,2.23-.3-.27-1.07-1.64-.32-1.91.3-.77,1.29-.84.96-2.23.75.1.6,1.11,1.6.96,1.83.16,2.14-3.26.96-4.14-1.54-.47-.66,1.46-1.92,1.27.37-.36.82-2.44-.64-1.91.62-.97.89-2.3,1.6-3.19,1.18-.21,2.44-.33,3.19-.96,1.36.56,2.11,1.73,3.84,1.91-.96,2.76.26,7.13-.32,9.56-4.17,2-6.51,5.83-11.19,7.33-.84.65-1.89,1.1-2.88,1.59-1.26.09-.98-1.37-2.24-1.28-2.66-.1-1.55,3.55-2.88,4.78-1.42-.09-2.64-.68-2.88.95-1.19.12-.84-1.29-2.24-.95.05-.79.06-1.55-.64-1.59-1.51-.02-1.82,1.16-2.56,1.91-.69.05-.14-1.13-.32-1.59ZM13.43,80.02c.42-.6,2.03.29,2.88.32-.7,1.21-2.21.28-2.88-.32ZM92.71,93.09c-11.03-1.86-21.26-4.52-31.65-7.01-5.2-1.3-10.64-2.35-15.99-3.51-5.26-1.13-9.55-3.23-14.7-4.46-2.25.22-3.51-.54-5.75-.32-3.89-.9-7.49-2.09-11.83-2.55-.05-1.45.09-2.57.32-3.83.38-2.01,1.03-3.27.96-6.38,0,0,.3,0,.32,0,.23-2,1.92-2.55,3.52-3.19.81.58,1.45,1.32,2.88,1.28.42.32,1.19.3,1.28.96.2.44,1.23.05,1.28.64,1.58.02,2.82.38,4.16.64-.45,4.7,2.16,6.34,5.12,7.65.72-.23,1.63-.28,2.23-.64,1.76-.58,1.3-3.38,2.56-4.46,2.53-.08,4.88.02,6.39.96.38.79.46,1.88.64,2.87-.08,2.58-1.76,3.55-1.28,6.69.46.93.77,2,1.92,2.23,1.9-.02,2.86-.97,2.88-2.87.21-1.71-.42-4.25.32-5.42,1.92,0,1.09,2.75,3.52,2.23,1.5-.31,2.2-1.42,2.24-3.19,1.63.39,3.01,1.03,4.15,1.91.83.12,1.75.16,2.24.64,1.12-.05,1.01,1.12,1.6,1.59.65.31,1.26.65,1.92.96-.14,1.21.63,1.5.96,2.23.38,1.97-.91,2.28-.64,4.14.41.55.66,1.25,1.6,1.28,2.49.04,1.8-3.09,1.92-5.42.82-.78,1.35-1.84,2.23-2.55,3.03-.15,4.35,1.4,7.03,1.59,1.12.9,1.88,2.17,2.56,3.51,1.39.32,1.9,1.5,3.52,1.59,2.37-.18,3.12-1.98,4.48-3.19,2.21-.58,5.45-.37,7.35.32-.55,4.55-1.16,9.04-2.24,13.07ZM38.04,13.08c0-.18-.26-.36-.32,0,0,.18.26.36.32,0ZM54.03,53.56c.18-.67.79-.91.64-1.91-.6-.91-3.02-.96-2.88.64.47.7.85,1.49,2.24,1.28ZM47.95,54.84c-.43-.41-1.19-.42-1.28.32.42.41,1.19.42,1.28-.32ZM66.17,61.85c1.71-.1,1.7-1.91,1.6-3.82-2.26-3.33-5.75,3.57-1.6,3.82ZM71.61,62.49c.09-.73-.08-1.2-.64-1.28-.1.43-.46.61-.32,1.28h.96Z"/>
    </g>
  </g>
</svg>