<?xml version="1.0" encoding="UTF-8"?>
<svg id="Layer_2" data-name="Layer 2" xmlns="http://www.w3.org/2000/svg" viewBox="0 0 110.99 97.64">
  <defs>
    <style>
      .cls-1 {
        fill-rule: evenodd;
      }
    </style>
  </defs>
  <g id="food_icons" data-name="food icons">
    <g id="cake1">
      <path class="cls-1" d="M108.1,69.49c-.95-.97-3.56-1.24-5.11-.64-.86.97.5,2.17,0,2.55-1.34,1.11-3.35,1.55-5.44,1.91-13.65-.34-26.05.02-39.32.64-3.89.84-9.29-.76-13.43.32-6.49-.2-11.63.94-17.58,1.28.81-.9,2.27-1.14,1.92-3.19-1.43-1.3-3.55-.09-5.76-.32-.69.08-1.99,1.17-2.24.64v-1.91c2.12-.03,3.21.5,4.48-.64-.49-2.38-4.41-1.35-6.08-2.55.51-.79.74-1.62,1.92-.96.71.57,2.28.28,3.2.64,1.09-.09,2.59.25,3.2-.32.62.13.25,1.24,1.28.96,1.06-.83,2.73.45,4.47,0,2.63-.36,5.39-.57,8.31-.64.61.04.23,1.05.96.96-.14.88,1.19.3,1.28.96,1.3-.08,3.08.31,3.52-.64-.43-.85-3.58-1.21-2.88-1.91h3.52c.73-.33,1.93-.2,2.56-.64.94-.05,2.25.93,2.55-.32-1.6-1.26-4.84-.39-6.71,0-2.01-.19-3.38.24-5.12.32.41-.43.96-.62.32-1.27-1-.48-1.92-1.06-3.19-1.28-1.9-.2-4.13.64-3.52,1.91.56.94,3.29-.3,3.84.64-2.86.55-6.58.24-9.91.32-.56-.29-1.6-.11-1.92-.64-.76-.2-2.32.4-2.56-.32,1.24.06,2.35.01,3.2-.32.92-.04.56-1.36,1.6-1.28,1.09-.29,2.63-.13,3.2-.96-4.42-.06-8.52-.43-12.79-.64-1.14-.14-1.48-1.08-2.55-1.28-.98-.23-1.17.33-1.92.32.81-.57.78-1.99,1.28-2.87,3.42-.33,6.62.92,9.59,0,1.09-.6-2.14-1.22-1.28-1.59,2.02.18,3.85-.13,4.48-.32,1.04-.31,1.27-.26,1.92-.64,1.58-.92,1.86-1.39,2.88-2.55,1.93-2.18,3.9-3.9,7.99-3.82,2.27.71,3.37,2.59,3.84,5.1,1.66,1.85,4,3.03,7.99,2.55,1.3-1.05,3.12-1.56,4.15-2.87,1.5-.95,2.11-2.78,4.8-2.55,1.72.73,1.44,3.45,2.88,4.46,1.65.46,2.98.74,4.79.32.13-.4.41-.65.96-.64.49-.68.92-1.42,1.28-2.23.64-.64,1.46-1.09,2.88-.96,1.97,1.65,2.29,4.94,3.83,7.01,1.85,1.02,3.93,1.82,7.03,1.59.89-.6,1.75-1.23,2.56-1.91.47-1.34,1.47-2.14,1.59-3.83.46-.39.49-1.22.96-1.59.5-.46.25-1.66,1.28-1.59.32,0,.38-.26.64-.32,1.67.14,2.79.84,3.52,1.91.57.39,1.86.06,2.24.64v14.03c-.06,1.65.28,2.91,1.92,2.87,1.12-.22.86-1.4.96-2.23.11-.97.09-2.53,0-3.51-.35-3.49-.4-8.32-.32-12.11,1.49-1.49,2.16-3.8,1.92-7.01-.32-.96-.65-1.9-.96-2.87-.55-.73-.31-2.25-.96-2.87-.08-1.2-.5-2.05-1.28-2.55-.42-.96-.8-1.97-1.92-2.23-3.2,1.05-5.54-1.73-8.63-.64-.09.19-.79,1.23,0,1.28-.28.65,1.63.63.64.95-.57-.18-1.33-.16-1.59-.64.41-.79-.72-1.55,0-1.59-.46-1.03-.31-2.67-.32-4.14v-8.93c-.57-2.83-1.05-5.76-2.24-7.97.69-1.3.11-2.74-.32-3.83-1.55-1.33-3.91-1.84-6.08-2.55.22-2.35-.81-3.44-2.55-3.83-.82.14-1.47.45-1.92.96-1.29-.22-.79,1.34-1.92,1.28-1.02-.26-2.35-.2-3.2-.64.5-.46.29-1.63.32-2.55-.97-.42-1.74-1.03-3.2-.96-.29.56-1.18.53-1.28,1.28-.69.27.12,2.03-.64,2.23h-4.8c-.86-2.55-2.29-4.51-4.48-5.74-5.34-.08-10.3,1.79-8.95,7.33-2.05.72-4.7.84-7.04,1.28-1.18-1.16-.9-3.78-3.84-3.19-.36.49-1.04.66-.96,1.59-.92.04.27,2.19-.64,2.23-1.39-.22-1.8.54-3.19.32-.68-.6-.71-1.85-2.24-1.59-.97-.01-1.24.67-1.92.96-.64.43.1,2.23-.96,2.23-1.02-.49-1.41-.11-2.56,0-1.63,1.03-2.45,2.87-3.52,4.46-.43,4.54,1,8.32.32,12.11.42.96,1.03,1.73.96,3.19-.27,1.21-1.06,1.92-1.28,3.19-1.92.1-2.62,1.43-4.16,1.91-2.51.79-5.01,1.59-7.67,2.23-.58.81-1.86.91-2.24,1.91-.8.68-2.13.85-2.87,1.59-1.34,1.96-1.89,4.7-1.6,8.29.57.91.84,2.14,1.6,2.87.1,1.49,1.81,1.38,1.92,2.87-1.07,5.16,1.76,9.04,2.24,13.71-1.79.13-2.74,1.09-4.8.96-1.5.52-2.98,1.07-3.2,2.87-.24,1.6.42,1.99.96,2.55.39.41.94.84,1.28,1.28,5.62-.08,10.35.73,15.02,1.59,8.01-.24,14.76-1.81,23.01-.96.86.41,1.78.78,3.19.64.7,1.22,2.09,1.74,2.56,3.19.25,2.38-.34,3.91-1.6,4.78-.77-.41-1.18-1.17-2.56-.96-1.42.39-3.27.35-5.11.32-2.12.54-3.95,1.38-5.12,2.87v2.23c.77,2.43,3.09,3.3,4.8,4.78,2.99,1.16,7.31,1,10.55,1.91,7.24.41,12.88-.76,19.82-.64,1.99-.68,4.13-1.19,5.76-2.23-.02-.55.24-.82.64-.96.02-1.62-.55-2.64-.32-4.46-1.41-.62-2.42-1.62-3.52-2.55-.25-.07-.63,0-.64-.32-1.11.25-1.23-.47-2.24-.32-.22-.63-1.78.08-1.92-.64-1.19.03-.91.36-1.92,0-.1-1.26-.99.23-1.28-.64-.92-2.68.04-6.09,1.6-7.33,7.47-.04,16.17.2,22.37-.32,4.21-.35,8.42.53,11.83.32,2.9-.18,5.71-1.41,8.63-.96,2.03-.85,4.67-1.08,5.12-3.51.13-2.26-1.31-2.95-2.88-3.51ZM21.15,65.03h1.92c.03.76-3.87.18-1.92,0ZM6.13,45.27c-.26-.17-.52-.33-.96-.32-.13-.77.58-.69.32-1.59.87-.23.65.63,1.28.64-.16.47-.47.8-.64,1.27ZM14.44,57.7c-.79-.05-1.33.16-1.6.64-.98-.3-.79-1.77-1.6-2.23.26-1.13,1.87-.9,2.24-1.91,1.33.16,1.37,1.61,3.19,1.27-.68.81-2.17.81-2.24,2.23ZM10.92,49.41c-.79-.05-.99.5-1.6.64-.07.36-.36.5-.64.64.03.39-.46.2,0,0,.03-.39.1-.75.64-.64-.24-.98.88-.61.64-1.59.84.09.25-1.24,1.28-.96,0,.75-.55.94-.32,1.91ZM10.28,51.33c-.06.36-.32.18-.32,0,.06-.36.33-.18.32,0ZM11.88,51.96c.19-1.19,1.2-1.56,1.28-2.87.31,0,.25.39.32.64-.49.79-.38,2.17-1.6,2.23ZM20.83,49.09c.09-.74.85-.73,1.28-.32-.32.51-.85.73-1.28.32ZM26.27,53.56c.1-.75.99-.71,1.28-1.27.8-.05.77.71,1.28.96.74-.14.86-1.41,1.6-.64-.42,1.28-2.5.91-4.16.96ZM92.76,39.85c.56-.67.72-.94.32-1.91.82.03,1.52.18,1.92.64-.23.94-.99,1.34-2.23,1.27-.38.97-1.7-.34,0,0ZM88.6,36.98c-.54.73-2.44.12-3.52.32-1.1.6-2.98.43-3.2,1.91.78,1.12,2.41-.13,3.51.96-.5.66-2.23.11-2.87.64-5.9-.39-12.01-.56-17.9-.96-11.18-.82-23.04.39-34.2.64-1.34.13.15-.96.32-1.27-.3-.77-2.33.19-1.92-1.27-.06-1.23,2-.34,2.56-.96.47-.28,1.01-.48.96-1.28h2.24c.32-.42.53-.96.96-1.27-.24-1.14-.74-2.03-1.92-2.23.13-.61.92-.58.64-1.59-.29-.14-.58-.28-.64-.64-1.64-.16-2.74.24-3.2,1.28-.1.84.44,1.05,1.27.96-.36.7-.82,1.3-.64,2.55-.75-.1-1.2-.5-2.24-.32-.08-1.52.41-3.59-.96-3.83,1.2-1.46,2.55-2.76,3.83-4.14h2.88c2.62,1.43,4.22,3.86,7.35,4.78h1.6c3.34-.71,5.15-2.95,7.03-5.1,1.74-.5,2.41-2.06,5.12-1.59,1.18.74,1.75,2.08,2.56,3.19,1.05.54,2.21.99,3.52,1.27,2.23-.43,3.91-1.42,3.52-4.46,1.7-.21,2.85.13,3.52.96.44.94,1.48,1.29,1.92,2.23,2.16.5,3.45,1.87,6.07,1.91,2.01-.23,2.35-2.12,3.52-3.19,2.23.22,3.08,1.82,5.44,1.91v7.33c.45.93,1.89.88,2.88,1.28ZM57.6,6.06c-1.82-.22-2.66.54-4.48.32.21-1.17-.69-1.22-.64-2.23,1.85-1.44,5.09-.41,5.11,1.91ZM27.86,12.43c1.88.28,2.87-.32,3.83-.96,1.44-.05,2.73-.25,3.84-.64,1.27-.21,1.28.84,2.56.64,1.21-.07,1.56-1,2.56-1.28,2.98.1,5.64-.12,7.99-.64.6.68,1.46,1.1,2.56,1.28,1.01.16,1.41.94,2.56.96,1.31.25,1.64-.49,2.87-.32,1.53-.71,3.03-1.45,4.16-2.55.72.44,1.2-.82,1.28,0,1.95-.02,3.3-.21,6.07-.32,2.79.52,6.22.38,7.99,1.91,2.99-.44,3.74,1.37,6.39,1.28-.29.99-2.24.32-2.88.96-1.32-.04-2.01.55-3.52.32-1.87.69-4.32.79-6.39,1.28-8.75.43-15.35-1.27-23.97-.96-6.09.97-13.68,1.68-20.14,1.28.58-.91,1.82-1.16,2.24-2.23ZM22.75,17.22c.97.3,1.91.64,2.88.96,7.5.03,11.95-.09,18.86-1.27,6.21-.04,12.48-.12,17.58.96h6.71c2.42-.46,5.17-.58,7.35-1.28,1.09-.4,2.87-.11,3.83-.64.98.23,1.17-.32,1.92-.32.47-.17,1.66.37,1.6-.32.38-.05.57.07.64.32.8,2.68,2.07,6.33,1.28,9.56-2.06-.28-2.98-1.7-5.75-1.28-1.7.43-2.06,2.19-3.2,3.19-1.87-.04-2.6-1.23-4.48-1.27-1.23-1.43-2.57-2.74-4.47-3.51-1.66-.06-2.54.65-3.84.96-.51.87-.2,2.56-.96,3.19-3.1.54-3.36-1.75-4.48-3.19-1.43-.48-2.28-1.55-4.47-1.27-2.05.4-3.18,1.72-4.8,2.55-1.74,1.24-2.83,3.13-4.79,4.14h-1.92c-2.58-.72-3.83-2.78-5.76-4.14-1.58-.23-2.7-.92-4.8-.64-2.17.91-3.56,2.6-4.79,4.46-1.16-.64-1.55.03-2.56.32-.14-1.14-.85-1.7-.64-3.19-.15-1.31.68.13,1.6-.32.8.05,1-.49,1.28-.96-.15-1.66-2.12-1.5-3.2-2.23-.22-1.39,1.66-.68,1.92-1.59-.05-.91-1.33-.58-2.24-.64-.2-.76-.46-1.45-.32-2.55ZM24.67,40.17c-.06.36-.32.18-.32,0,.06-.36.32-.18.32,0ZM21.47,35.39c.17.17-.23.41-.32.32-.16-.17.23-.41.32-.32ZM16.67,40.49c.17.17-.23.41-.32.32-.16-.17.23-.41.32-.32ZM13.48,39.53c.8.26,1.26.87,2.24.96-1.18.74-3.73.11-5.44.32.66-.83,2.54-.45,3.2-1.28ZM7.08,52.92c-.17-.17.23-.41.32-.32.16.17-.23.41-.32.32ZM7.08,43.04h21.42c.44.01.71-.15.96-.32,10.52-.35,20.76-.97,31.65-.96.44-.01.7.15.96.32h4.16c6.59,1.39,15.12.86,23.02.96,1.74-.6,4.42-.26,5.75-1.28,1.13.61,1.75-.1,2.56-.64-.13-1.09-.86-.4-.32-1.59,1.2.24,2.19,1.98,2.24,2.87.1,1.75,1.45,3.15,1.6,4.46-.14.93.19,1.95,0,2.87-.2.97-.52,1.47-1.28,1.91-1.81-.21-2.15-1.9-4.16-1.91-.32-.43-.87-.62-.96-1.27-1.04-.08-.92.99-1.6,1.27-.74-.1-1.23.05-1.6.32-.74.22-.86,1.06-1.6,1.28-.2,1.61-1.05,2.57-1.92,3.51-.41,1.51-1.08,2.75-2.24,3.51-.72-.24-.13-1.79-.32-2.55-.41-.44-1.38-.31-2.23-.32-.42-1.77.08-3.2-.32-4.46-.09-.75-1.19.03-1.28.32-.96-.44.66-1.65-.32-2.23-1.06.11-1.39.96-1.92,1.59h-.32c.03.39-.46.2,0,0,.23-.87-.63-.64-.64-1.28-2.59.39-5.49.48-6.71,2.23-.97-.48.27-1.4,0-2.23-1.58-.31-1.7.85-2.88.96-.07-.25,0-.63-.32-.64-.38.05-.91-.05-.96.32-.53-.51.14-1.19-.64-1.91-1.99.14-3.32.93-5.75.64-2.83,1.01-4.43,3.23-6.71,4.78-.96-.44.66-1.65-.32-2.23-.04-.25-1.06-.97-.96-.32-.6-.04-.22-1.05-.96-.96-.75.11-1.38.33-1.6.96-.67-.08-.09-1.4-.64-1.59-.77-.13-.69.58-1.6.32-.28-.99-1.07-1.48-1.28-2.55-.73-.09-1.2.08-1.28.64-.86-.42-1.7-.85-2.56-1.27h-3.2c-3.27.57-5.14,2.53-7.67,3.83-.96,0-1.09-.83-1.92-.96-1.35-.07-1.34,1.21-2.56,1.28.26-.9-.45-.83-.32-1.59-.43-.85-1.49-1.07-1.6-2.23-.29-.56-.59-1.11-1.6-.96-.11-.74-.33-1.38-.96-1.59-1.22-.15-1.99.13-2.24.96-.75,0-.94-.55-1.92-.32-.63.22-.85.85-.96,1.59-1.2-.24-1.08.83-1.6,1.27-.84-.48.96-3.18-.64-3.5-1.36.24-1.42,1.77-1.92,2.87-1.13.26-.82,1.95-2.24,1.91v-2.87c-1.02-.27-.99.5-1.6.64.03.38-.47.2,0,0-.35-1.42.77-2.32,0-3.19-.52-1.17-3.54.66-3.2-.64ZM15.39,75.87c-.9.26-.83-.45-1.6-.32-2.02-.11-4.64.38-5.75-.64-.1-.74.05-1.22.32-1.59h-2.88c.44-.83,1.65-.9,2.56-1.28-.07.6.36.7.32,1.28.82.14,1.47.45,1.92.96,1.16-.1,2.08.05,2.88.32h3.84c1.57-.29,2.31.25,2.88.96-.86.74-3.08.11-4.48.32ZM63.35,87.35c2.01.12,3.45.81,4.8,1.59-.29.56-.77.93-.96,1.59.36.49,1.04.66.96,1.59-.86,1.26-4.2.06-5.11,1.27-2.22-.46-3.18.43-5.75.32-1.61-.31-2.54-1.29-4.79-.96-.79.17-1.14.78-1.6,1.27-3.99-.38-7.07-1.66-9.27-3.82-.97-.23-1.16.33-1.92.32-.45-.82-1.03-1.52-2.56-1.27,1.29-1.04,2.95-.79,4.47-.96.82-.01.39.24.32.64,1.03-.07,1.36.56,2.56.32.55.19-.03,1.51.64,1.59-.09.74.93.35.96.96,1.05-.44,1.96-1.03,1.92-2.55h2.24c1,.15.85-.86,1.6-.96.8.05,1-.49,1.28-.96-.18-1.05-1.2-.46-1.92-.32-.02-1.29,2.18-.38,1.92-1.91-.02-1.89-1.8-2.03-3.51-2.23.56-.5,1.7-.43,2.56-.64.9-.59,1.73-1.25,1.6-2.87-.47-.99-2.15-1.12-3.2-.64-.3-1.15,1.26-.44,1.92-.64h2.55c1.43-.28,2.64-.77,4.48-.64-.48.7-.63,1.72-1.28,2.23-.11,2.12-.5,3.97-.32,6.38.64,1.7.29,4.39,2.56,4.46.72-.24.12-1.79.32-2.55,1.33.27,1.51-.62,2.55-.64ZM107.14,73c-.15-.68.46-.61.96-.64-.14.39-.41.66-.96.64ZM76.13,34.75c1.33,1.32,4.77.67,4.15-1.91-.88-2.16-4.94-1.22-4.15,1.91ZM64.63,32.2c-1.06-.54-2.04-.19-3.2,0-.77,1.25-.28,3.56,1.28,3.51,1.54-.16,2.38-1.03,2.24-2.87-.25-.07-.37-.27-.32-.64ZM49.28,32.52c-1.88-.83-4.72-.1-4.16,2.55,1.42,1.73,4.58.6,4.48-1.91-.25-.07-.37-.27-.32-.64ZM31.7,38.57c1.45.87,3.66.14,3.52-1.59-1.3-.73-3.92-.41-3.52,1.59ZM47.04,57.38c-1.47-.98-4.85.12-2.88,1.59.06-1.43,3.24.26,2.88-1.59ZM38.41,60.25c-.32,0-.38.26-.64.32-.13,1.93,1.84,1.77,3.2,2.23,1.66.26,3.23.6,4.8.96,1.26-.12,3.06.29,3.83-.32.12-2.35-3.08-1.4-4.16-2.55-2.21-.13-3.9-.79-6.07-.96-.44-.01-.7.15-.96.32ZM77.41,61.21c-2.8-.24-4.72.4-7.35.32-.86.73-3.5-.3-3.84.96,4.03-.13,8.83.52,11.19-1.27ZM74.54,68.54h6.07c1.39-.42,3.28-.34,4.79-.64,1.21.24,1.53-.39,2.56-.32h1.28c.44.02,1.22-.07.64-.32-5.86-.7-11.38,1.48-17.58.32-1.64.38-4.12-.08-5.11.96,2.03.47,5.32.47,7.35,0Z"/>
    </g>
  </g>
</svg>