<?xml version="1.0" encoding="UTF-8"?>
<svg id="Layer_2" data-name="Layer 2" xmlns="http://www.w3.org/2000/svg" viewBox="0 0 98.18 84.26">
  <defs>
    <style>
      .cls-1 {
        fill-rule: evenodd;
      }
    </style>
  </defs>
  <g id="food_icons" data-name="food icons">
    <g id="cake4">
      <path class="cls-1" d="M48.34,7.3c.15-.05.29-.12.43-.18-.17.06-.35.13-.48.17-.01,0-.02.01-.02.01.02,0,.05,0,.07,0ZM91.78,6.86c.04.13.08.25.11.34-.05-.29-.12-.58-.19-.88.04.22.07.39.08.54ZM23.94,44.62s0,.01,0,.02c.18.15.34.54.07.61.05,0,.1-.02.15-.04.18-.15-.04-.47-.22-.58ZM34.98,45.96c.06-.06.25-.03.25.24,0-.93-.37-.56-.25-.24ZM23.75,45.24s0,0,0,0c.11.02.19.02.25,0-.08,0-.16.01-.25,0ZM91.78,6.86c-.19-.59-.47-1.47-.28-1.47-1.12,0,.45,3.22.28,1.47ZM97.88,41.68c-2.01-.86-1.02-11.41-1.32-13.66-.65-4.95-1.81-9.76-2.14-14.75-.24-3.52-.46-7.86-3.24-10.43.9.06,1.51-.45,1.59-1.27,0,0-.01.02-.02.03-.01.01-.04-.01-.06-.04-.08-.08-.19-.36-.18-.48,0,.12.11.38.18.48.04.03.07.03.09-.06,0-.08.01-.17,0-.25,0,.12,0,.2,0,.25,0,.02,0,.05,0,.07C93.58.83,90.03,0,89.76,0c-1.24-.01-2.46.26-3.66.53-2.99.67-6.05.99-9.03,1.69-5.99,1.4-12,1.06-17.85,3.49-.29-2.46-3.66-3.63-5.79-3.39-1.25.14-1.93-1.25-3.16-1.39-1.33.08-2.65.42-3.83,1.05-2.74,1.47-4.85,3.81-6.52,6.39-.77,1.19-1.59,2.47-1.81,3.9-.22,1.43.78,2.56.64,3.95-3.13-1.41-5.19-1.57-7.99.63-1.48-3.38-5.49-5.91-8.63-7.59-1.96-1.05-3.66-1.27-5.81-1.4-.94-.06-2.64-1.37-3.18-1.28-3.94.63-1.29,7.79-3.23,8.76-1.53.76-3.22.14-4.61,1.15-1.62,1.18-3.16,2.76-3.37,4.86-.23,2.36-1.04,4.62-1.21,6.99-.04,2.68-.21,5.35-.37,8.02-.32,5.68-.12,11.29.04,16.97.05,1.89.44,3.76.32,5.65-.09,1.44-.83,2.67-.68,4.15.64,6.27,8.79,10.9,13.57,13.86,3.97,2.46,8.05,4.68,12.51,6.12,1.95.63,10.85,2.94,10.07-1.61-.56-3.22-6.86-1.97-9.24-3.44-1.72-1.06-1.67-3.57-3.53-4.36-1.76-.74-1.38-.85-2.29-2.17-2.63-3.84-6.04-3.17-10.07-3.83-1.77-.29-2.4-1.62-3.14-3.08-.97-1.92-2.21-2.7-3.73-4.09-1.58-1.44-.9-3.88-.9-5.74,0-2.23-.32-4.45-.32-6.69,0-1.35-1.11-9.97.32-10.84.84,1.97,1.05,4.16,2.02,6.09.98,1.95,3.98,2.4,5.98,2.2.34-1.62,5.38-4.02,6.71-3.83-.09.61-.64,1.4-.35,2.03.26.57,1.11.24,1.49.65.52.55-2.19,4.41-2.5,5.21-1.72,4.33-.6,8.36,2.76,11.51,3.28,3.07,6.74-.87,6.55-4.24-.16-2.8-1.62-11.3,2.93-11.68,3.82-.32,4.23,4.05,5.76,6.82,2.09,3.78,1.42,9.11,1.75,13.33.35,4.49-.13,9.25.46,13.68.11.86,1.03,1.95.69,2.51-.19.3-.62,1.12-.41,1.5.23.43,1.45-.1,1.72-.2,2.55-.92,4.98-2.26,7.38-3.51,6.69-3.5,12.27-8.91,18.9-12.77,4.6-2.68,9.85-4.72,14.04-8,3.91-3.07,7.61-5.71,11.9-8.23,1.26-.74,2.64-2.08,4.07-2.44.74-.19,1.87-.12,2.45-.73.11-.57,1.1-5.13.31-5.47ZM92.65,1.1c-.07-.07-.12-.09-.13-.06.01-.03.05-.02.13.06ZM17.02,72.33c.87.28-.27,1.41-.64.64.08-.35.63-.22.64-.64ZM41.18,18.31c.25-.71,3.57-2.28,4.3-2.92.75-.66,1.5-1.43,1.99-2.3,1.5-2.75-4.67-.34-5.52.59-1.15-.54,1.37-3.53,1.75-4.04.77-1.05,1.71-1.57,2.72-2.34.48-.5,1.24.05,1.81,0,.02,0,.03-.01.06-.02.23-.13,2.07-.78.05,0-.06.01-.07.01-.07,0-.01,0-.02,0-.04,0-.06.02-.11.03-.11.03.55.21,2.94-.99,3.57-1.17,1.51-.42,3.07-.7,4.64-.78-.48,2.08-1.67,3.92-2.2,6-.48,1.84-1.26,2.94-2.79,4.08-1.91,1.41-4.02,2.6-6.32,3.24-.24.07-4.33.99-3.84-.41ZM32.35,18.88s.03,0,.05,0c-.17-.38.6-1.02.6-1.37,1.3.24,2.46.88,3.62,1.49,1.4.73,2.64,3.85.96,4.81-1.92,1.1-3.83.17-4.2-1.85-.37-1.98-1.66-1.79.59-3.17-.09-.78-1.18,0-1.28.32-.52-.17-.48-.23-.33-.22ZM13.5,9.53c4.54.58,8.6,2.76,12,5.75,1.17,1.03,3.69,2.65,3.77,4.35.08,1.63-.85,3.26-.43,4.88-4.37.03-8.42-1.82-11.16-5.24-1.38-1.73-2.54-3.62-3.31-5.63-.46-1.22.38-1.45.41-2.27-.38-.28-1.44-1.39-1.29-1.84ZM3.91,25.79c-1.13-1.36,1.26-1.91,2.24-2.23-.42,1.06-1.87,1.11-2.24,2.23ZM5.19,29.93c-.15-1,.86-.84.96-1.59.7.31-.29,1.6-.96,1.59ZM6.47,34.4c-.92-.05-.59-1.33-.64-2.23,1.21-.25.41,1.51.64,2.23ZM10.3,42.61c-.81.39-1.76-.09-2.56-.24.16-.45.48-.66.96-.64-.15.67.55.61.96.64-.39-.02.8-.21.2-.05.51-.13-.16-.04-.27,0,.97-.35,1.71-.69,1.99-1.86.91.92-.57,1.81-1.28,2.16ZM10.94,34.4c-.8-.13-.02-1.24.64-.96-.11.42-.56.5-.64.96ZM10.94,37.91c.03.38-.47.2,0,0-.04-.39.47-.2,0,0ZM14.46,39.82c-1.82-1.57,1.8-4.39,1.92-1.28-.54.53-1.44.69-1.92,1.28ZM25.64,44.28c-.88-.28-.94.7-1.49.92,0,0,0,.01-.02.02-.27.18-.37.15-.38.02,0,0-.01,0-.02,0-.12-.22-.13-.39-.04-.52.02-.13.09-.16.16-.13,0,0,0,0,0,0,.02,0,.05.02.08.04.35-.8,1.08-1.96,1.07-1.93.53.4.74.93.64,1.59ZM35.24,46.19c-.16-.05-.23-.11-.26-.16-.45-.32-.62-.91-.7-1.43,1.42,0,.96.38.96,1.59ZM37.13,42.72c-.36-1.15-1.66-1.04-2.53-1.63,0-1.21.48-3.83-1.27-4.2-.96-.2-1.26,1.4-1.6,1.96-.93-.85-2.33-.4-2.24.96-.49-.09-.41-1.15-.87-1.06-.7.14-.99,1.11-1.05,1.69-.74-.62-1.5-.32-2.25-.73-.6-.33-.38-1.11-.87-1.49-.99-.77-3.14-.31-4.23-.01.84-.96,2.07-1.93,3.36-2.15.41-.07,1.3-.09,1.49-.59.74-1.93-3-1.41-3.69-1.13-.87.35-2.83,2.91-3.59,1.51-.73-1.34,1.07-2.09,1.16-3.38-1.69.07-3.07.99-4.15,2.23-.65-.42,1.01-2.47.32-2.56-1.54-.21-2.32.38-1.01-1.62.93-1.41.43-2.16-1.26-1.67-1.77.51-2.72,2.38-4.45,2.98-.3-2.12,2.11-2.64,2.18-4.42.03-.83-1.9-.42-1.86-.05-.97-.87.74-1.82.93-2.63.29-1.26-2.07-1.97,0-3.35.81-.54,2.09-2.33.49-2.81-2.05-.63-3.88,1.19-5.26,2.41-1.53-2.24,2.55-2.9,3.88-3.41,1.7-.65,1.22-.55,2.71.9,1.41,1.38,2.42,3.09,3.87,4.45,2.02,1.89,7.07,5.48,10.01,4.58,1.31-.4,2.61-.95,3.99-1.08,1.5-.13,1.88.96,3.11,1.52,3.66,1.66,6.6.57,8.91-2.41.74-.96.15-2.15.66-3.13.49-.94,3.42-.63,4.38-.87,6.76-1.67,12.46-7.01,12.5-14.27.8-.21.59.63,1.28.64,1.22,0,2.44-.04,3.64-.19,2.5-.3,4.59-1.31,6.97-1.95,3.83-1.03,8.14-.86,12.08-1.69.35,3.29-2.32,3.92-4.36,5.39-.96.69-.87,1.35-1.4,2.21-.41.68-1.41.79-1.59,1.64-.37-.36-.48-.78-.32-1.27-1.98.37-3.05,2.13-4.47,3.35-.66.56-1.19,1.36-1.45,2.18-.36,1.13-.77,1.04-1.75,1.8-.37-.36-.48-.78-.32-1.28-2.85,1.17-3.51,4.74-6.02,6.38-.14.09-.45.26-.85.47.05-.05.1-.1.15-.16-.06,0-.07-.05-.05-.1-.06.07-.07.08,0-.05.06-.07.09-.1.11-.1.28-.4.83-1.26.9-1.34-.69-.04-2.07,1.21-1.32,1.86-1.53.82-4.04,2.19-3.99,2.77-.13-1.62,2.7-2.54,2.75-4.32-.7.08-2.7,1.16-4.04,2.27-.19.28-.35.58-.43.92-.21-.05-.86.6-.84.81-.04-.46.51-1.1,1.27-1.73.42-.63.98-1.19,1.16-1.95-2.09-1.02-4.95,4.01-6.3,5.17-.48.41-5.79,2.72-5.87,2.2-.33-2.18-1.78-1.34-3.14.22-1.47,1.69-2.91,3.58-3.6,5.74-.43,1.32-.3,1.48.82,1.47.39,0,.1,2.27.11,2.52.11,2.44,1.01,4.78,1.05,7.23-1.43-1.68-1.32-3.72-1.94-5.7ZM52.82,29.3c-.33.33-.84-.49-.32-.32.04-.61.5.14.32.32ZM46.04,31.81s0,0,0,0c0,0,0-.01.01-.02.02-.04.05-.07.07-.07.46-.47,1.74-.78,2.24-.84-.39.75-1.64,1.02-2.24,1.28-.12.05-.16.01-.17-.06,0-.06.01-.13.04-.2,0,.02,0,.04-.01.05.02-.05.04-.11.07-.15ZM42.59,33.76c.02-.17.05-.33.07-.5.02.05.01.18-.07.5.34-1.39,1.52-1.95,2.88-1.91-.59,1.07-1.72,1.65-2.88,1.91.03.31-.46.19,0,0ZM42.44,33.7c-.02-.17.16-.51.21-.45-.04-.03-.21.29-.21.45ZM93.98,43.53c-1.54,2.46-5.86,4.57-8.22,6.21-3.39,2.35-6.74,4.75-10.13,7.08-5.83,4.01-12.49,6.53-18.15,10.74-3.18,2.36-6.35,4.73-9.53,7.09-2.39,1.77-4.59,4.3-7.59,5.02.5-5.25.44-10.54,0-15.79-.21-2.48-.5-4.95-.89-7.41-.14-.9-.73-2.08-.19-2.97.47-.44.84-.96,1.08-1.56,2.23-3.84-.07-7.79.28-11.82.31-3.49,5.68-4.63,8.26-5.78,4.5-2.01,9.2-4.2,13.21-7.09,3.27-2.35,5.9-5.6,9.56-7.4,3.59-1.75,7.33-5.34,10.31-8.05,2.19-2,6.38-6.39,9.53-6.4.11.45.48,1.45.43,1.99,0-.02-.02-.09-.05-.19.75,4.06.8,8.33,1.2,12.41.22,2.22-.9,1.25-2.35,2.12-1.7,1.01-2.59,2.97-3.46,4.62-1.29,2.44-3.32,1.35-5.61,1.3-2.29-.04-3.44.96-4.88,2.59-3.03,3.43-6.55,7.05-10.29,9.72-3.75,2.67-8.74.14-12.43,2.97-2.8,2.15-3.77,5.91-6.67,7.97-1.08.77-6.47,2.22-6.06,3.92.44,1.82,4-.44,4.84-.79,1.95-.81,3.89-1.71,5.33-3.3,1.5-1.67,2.35-3.81,3.97-5.4,1.72-1.68,5.38-1.18,7.56-.72,2.09.02,4.02-1.11,5.64-2.31,3.88-2.89,7.16-6.65,10.57-10.06,2.96-2.96,6.89.88,9.59-2.27.66-.77,3.45-6.73,4.96-5.62.85.62.32,2.93.34,3.8.04,1.72-.02,1.85-1.26,2.9-1.48,1.26-2.2,2.25-4.27,2.55-2.29.33-4.49.62-6.75,1.17-4.68,1.14-7.9,5.91-10.88,9.36-2.74,3.16-5.54,4.41-9.69,4.61-2.35.11-4.9,0-6.96,1.34-1.7,1.11-2.25,3.1-3.7,4.42-1.54,1.39-3.77,2.05-5.48,3.22-1.28.87-3.76,1.73-4.47,3.15,2.53,2.47,11.46-3.51,12.94-5.57,1.72-2.39,2.79-3.76,5.95-3.92,2.27-.12,4.64.23,6.86-.42,5.86-1.74,8.55-9.14,13.39-12.46,2.82-1.93,6.39-1.96,9.65-2.34,1.29-.15,2.42-.71,3.64-1.11.26-.33.99-1.14,1.43-1.17.66-.05.02,8.75-.54,9.66ZM34.98,45.96s-.03.04,0,.08c.03.02.06.04.09.06-.04-.04-.07-.09-.08-.13ZM91.5,5.39c.08.31.14.62.2.93-.05-.26-.11-.55-.2-.93ZM32.68,19.1c.05-.15-.15-.22-.27-.22,0,0,0,.01,0,.02.13.03.3.1.27.2ZM48.78,7.12c.21-.08.39-.15.41-.17-.13.07-.27.11-.41.17ZM46.04,31.8s0,0,0,0c0-.01.02-.02.03-.03,0,0-.01.01-.02.02ZM46.11,32.17c.06-.34.04-.44,0-.44-.02.02-.03.03-.04.05.06-.04.1.03.04.39ZM54.49,26.25s-.31.45-.08.5c-.08-.02.02-.39.08-.5ZM23.93,44.64s-.05-.04-.08-.05c-.07.04-.12.08-.16.13-.02.1-.01.26.04.52,0,0,.02,0,.02,0,0-.12.06-.34.18-.6ZM54.5,26.24c-.03.17-.06.34-.08.51.12-.47.12-.56.08-.51ZM14.84,11.2c0,.12-.02.17-.06-.07.01.09,0,.17,0,.25.02.01.04.03.06.04,0,0,0-.1,0-.22ZM54.5,26.24s0,.01,0,.01c0,0,0,0,0-.01,0,0,0,0,0,0ZM32.68,19.1c-.15-.05-.22-.12-.27-.2-.02,0-.04,0-.06-.01-.07.02-.04.09.33.22ZM14.8,10.89c.02-.17.03.09.04.31,0-.19-.02-.56-.04-.31ZM18.3,16.23c.28,0,.64.04,1.05.12.11-.05-.08-.12-1.05-.12ZM18.49,16.38c.07-.05.09-.15-.19-.15,0,.07.08.12.19.15ZM18.49,16.38s-.12.04-.16-.03c.29,1.92,7.76,7.47,8.36,5.98,1.2-2.97-4.41-5.42-7.34-5.98-.12.06-.59.1-.86.03ZM60.56,24.58s0,0,0,0c0,0,0,0,0,0,0,0,.01,0,.01-.01ZM60.57,24.59s-.02.11-.08.25c.09-.17.1-.23.08-.25Z"/>
    </g>
  </g>
</svg>