<?xml version="1.0" encoding="UTF-8"?>
<svg id="Layer_2" data-name="Layer 2" xmlns="http://www.w3.org/2000/svg" viewBox="0 0 108.5 103.92">
  <defs>
    <style>
      .cls-1 {
        fill-rule: evenodd;
      }
    </style>
  </defs>
  <g id="food_icons" data-name="food icons">
    <g id="cake3">
      <path class="cls-1" d="M107.46,64.71c.66-1.14.17-3.45.32-5.1-.64-3.08-.18-7.26-.32-10.84.34-1.19-.79-.91-.64-1.91.97-.84.55-3.06.64-4.78-.69-1.33-2.21-1.83-3.2-2.87-1.88-.68-4.64-.47-5.75-1.91-.25-1.52.5-2.05.32-3.51-.16-4.94.11-9.45.64-13.71.26-1.02.95-1.61.96-2.87-.19-1.29-1.91-1.07-2.88-1.59,1.16-1.29,2.47-2.43,2.56-4.78-.42-2.56-2.39-3.57-3.2-5.74-.11-1.28.41-3.17-.96-3.19-1.11-.98-1.87,1.09-2.56,1.6-.36,1.34-1.11,2.29-1.28,3.82v3.19c.56.72.76,1.79,1.28,2.55.72.66,1,1.77,1.28,2.87-.41.44-1.56.14-1.6.96-.52.58-1.01-.22-1.6.64v10.84c-.46,1.03-.3,2.67-.32,4.14-.83.65.22,3.2-.64,3.82-1.62.02-3.27.07-4.16-.64.64-5.26.89-11.04,0-16.26v-5.74c-.27-1.01-1.02-1.53-1.6-2.23.62-.55.69-1.65.64-2.87-.27-.37-.42-.86-.32-1.59-.43-.21-.6-.68-.64-1.28-.61-.88-1.36-1.62-2.23-2.23-.7-.89-.16-3.03-2.24-2.55-1.39.1-1.23,1.75-1.28,3.19v4.46c.5,1.52,1.2,2.84,1.6,4.46-1.55.05-2.1,1.09-2.88,1.91-.18.56.39,1.88-.32,1.91v13.71c-.21,1.39.41,3.6-.32,4.46-2.59-.19-5.93.39-7.99-.32.22-5.11-.33-9.46-.32-14.35.32-1.28.65-2.54.96-3.83-.28-1.52-2.16-1.46-2.55-2.87,1.24-1.31,1.42-3.68,1.28-6.38-.9-1.76-2.48-2.84-3.51-4.46-1.7-.54-2.78-1.7-3.84-2.87h-.96c-.08.45-.7.36-.96.63.31,3.94.43,8.07,1.92,10.84.73.23.96.96,1.28,1.59.46.08.54.53.96.64.3-.2,1.18-.74.96.32-.89,1.03-2.68,1.15-3.51,2.23-1.72,4.47-.95,12.88-.32,18.17-2.27-.19-4.23-.68-6.71-.64-1.05-4.37-1.68-9.16-1.6-14.66.04-1.34,1.24-1.53,1.28-2.87-.59-.05-.2-1.08-.64-1.28.09-.84-1.24-.25-.96-1.27.73-.96.14-2.74,0-3.83-.88-1.67-2.44-2.67-3.52-4.14-.44-1.15-.51-2.68-1.92-2.87-.77.5-1.28,1.27-1.28,2.55-.67.61-1.69.87-1.6,2.23v3.19c.85,1.17,1.38,2.66,1.92,4.14-1.64.07-2.45.95-3.2,1.91-.26,1.54,1.4,1.15.96,2.87-.23,4.92.15,8.63.32,13.71h-12.15c-.52-1.92-.26-4.63-.32-7.01-1.07-3.12.6-7.28-.32-10.2-.03-1.3-2.01-.67-2.23-.96.93-1.52,2.3-2.6,1.92-5.42-.06-1.11-1.13-1.21-1.28-2.23-.42-.86-.86-1.69-1.28-2.55-.2-1.19.61-3.37-.96-3.19-1.92.2-1.1,2.63-.96,4.14-1.05.76-1.49,2.13-2.24,3.19v3.82c.15,1.66,1.2,2.42,1.28,4.14-.82.03-.46,1.48-1.28.64-.94-.08-.98.72-1.92.64-.42,1.69.93,1.63.64,3.19-.11,2.35.08,4.38.32,6.38-.44,1.89-.04,4.63-.64,6.38-4.48.1-7.41,1.74-10.87,2.87-1.21,1.34-3.08,2.02-4.15,3.5-2.21.46-3.19,2.14-4.48,3.51.07,1.74-.22,3.83.32,5.1-.25.71-.67,1.25-.64,2.23.59,8.87-2.02,14.56-1.6,23.27.07,1.03-.56,1.35-.32,2.55.26,4.63,1.04,8.74,1.92,12.75.44.94,1.47,1.29,1.92,2.23.89.49,1.06,1.7,1.92,2.23,4.77,1.94,9.75,3.67,15.02,5.1,4.83,1.98,10.02,3.61,16.31,4.14h2.24c5.07-.9,10.25-1.68,15.99-1.91,12.69.14,25.46,1.03,37.72.64.92-.36,1.98-.57,3.19-.64.05-.59,1.09-.2,1.28-.64.64,0,.41-.87,1.28-.64.47-1.12.99-2.2,1.6-3.19,2.91-.82,4.63-2.82,6.39-4.78,1.64-6.64-.88-14.79.32-22,.48-.27.46-1.03.64-1.59.48-.27.69-.8.64-1.59.45-1.72-1.22-1.34-.96-2.87ZM3.89,79.69c-.74-1.28-.11-3.93-.32-5.74,1.12.89.68,4.35.32,5.74ZM5.49,45.58c.17-.49.33-.02.32.32-.17.49-.33.02-.32-.32ZM94.68,6.69c1.07,1.17,2.04,2.43,2.88,3.82.29,1.77-.7,2.28-1.28,3.19-1.08-1.7-2.6-4.26-1.6-7.01ZM93.4,23.59v-2.87c.19-.66-.4-2.09.32-2.23,1.08-.09,1.83-.51,3.2-.32.3,1.25-.35,4.04-.64,5.74v10.2c.37,2.13.56,5.23.32,7.01-1.56.83-2.07-1.05-3.52-1.28-.35-5.69,1.45-10.84.32-16.26ZM95,42.08c-.79.04-1.54.05-1.92-.32.07-1.02,2.07-.73,1.92.32ZM80.93,5.74c1.29.53,1.51,2.1,1.92,3.51.12,1.4-.91,1.64-.96,2.87-.63-.76-.37-2.4-.96-3.19v-3.19ZM83.17,14.34c.98.5-.56,1.11-.96,1.28-.69.27-1.09.82-2.24.64.15-1.55,2.33-1.08,3.2-1.91ZM79.97,18.81c1.57.08,2.78-.2,3.52-.95.37-.05.57.07.64.32.11,4.15.5,8,.32,12.43-.35,2.09-.83,4.07-.64,6.7-.12.95-.51,1.62-.96,2.23-.05.37.07.57.32.64h.64c-.72,1.22-2.09,1.95-3.84,1.28.15-6.38-.09-14.62,0-22.63ZM62.39,8.92c-.08-1.51-.73-2.46-.64-4.14,1.61.62,2.43,2.04,3.52,3.19.19,1.89-.22,3.18-.64,4.46-1.03-.89-1.22-2.61-2.24-3.51ZM66.55,16.57c-.07.99-1.13,1-1.92,1.28-.47.49-1.25.67-2.24.64.14-1.88,1.93-2.11,4.16-1.91ZM50.25,37.62c.14.5,1,.27.64,1.28.09,1.47-1.15,1.61-1.6,2.55-.31.84-1.54,1.81-2.56.96-1.26.51-.11-1.38-.96-1.28v-2.23c-.46-1.21.88-.61.64-1.59.03-1.95-.77-3.06-.96-4.78.33-3.77-.17-7.39,0-11.8,1.79.5,3.35-.89,4.16-.32-.12,4.7-.33,8.38.96,12.12v2.87c-.19.66.39,2.09-.32,2.23ZM45.77,18.17c0-.31.39-.25.64-.32-.14-.29-.28-.57-.64-.64.95-.95,1.85-.42,3.84-.64-.12,1.58-2.86,1.9-3.84,1.59ZM45.45,7.65c.52-.09.55.3.96.32.91,1.32,2.36,2.11,2.88,3.82-.27,1-.59,1.96-1.6,2.23-1.14-.14-1.12-1.44-1.6-2.23-.04-1.23-1.08-1.47-.96-2.87-.14-.67.22-.84.32-1.28ZM30.11,36.34c.89.39.59,1.96.64,3.19-.69-.58-.67-1.88-.64-3.19ZM26.27,7.65c.66,1.05,1.4,2,1.92,3.19-.21,1.92-1.61,2.64-2.24,4.14-1.69-1.16-1.25-6.47.32-7.33ZM28.19,18.49c-.46,1.03-1.55,1.43-3.2,1.27-.24-1.08,1.17-.52,1.28-1.27.75-.1,1.32-.62,1.92,0ZM27.87,22c.12,7.54,1.31,15.31.96,22.31-2.29.16-2.39-1.87-3.83-2.55.26-1.23-.61-3.22.64-3.83-1.22-4.63-1.09-10.6-1.28-16.26.9.38,2.21.35,3.52.32ZM10.29,43.99c1.44-2.17,4.1-3.14,6.71-4.14.97-.12.66,1.04.96,1.59.65.09.63.86,1.28.96,1.46.29,1.81-.53,2.88-.64-.04.79-.05,1.54.32,1.91,1.47,1.29,2.69,2.85,4.48,3.83,2.28.04,3.93-.54,4.79-1.91-.72-2.13.65-5.31-.32-7.65h4.8c.05,1.54.15,3.04,1.28,3.51,2.1.07,2.67-1.38,2.56-3.51h3.52c.16,1.86-.36,4.4.32,5.74.78,1.46,2.84,1.63,5.12,1.59,1.2-.18,1.68-1.08,2.24-1.91.73.15,1.63.63,2.24,0,.76-1.49-.29-2.82,0-4.78,2.1-.84,4.89.17,7.03.32.32,2.3-.94,4.48,0,6.38.7,1.32,3.01,1.04,4.48,1.59,1.89-.66,4.33-.78,3.84-3.83-1.1-.58-1.96-.1-2.56.64-.72.62-2.4.28-3.19,0-.33-.64.21-2.62,0-4.14v-4.46c-.98-4.12-1.49-8.71-1.28-14.03,1.83.12,3.13-.28,4.15-.96.27-.06.3.12.32.32-.06,5.8.03,11.45.64,16.58-.44,1.27-1.65,5.22.64,5.42,1.81.21.91-2.28,1.6-3.19,2.6.17,5.07.47,7.99.32-.1,1.59.05,2.92.32,4.14,1.18,1.05,3.97.51,6.08.64,1.79-.65,3.02-1.87,3.51-3.82,1.51-.24,2.2.36,3.52.32.64,1-.45,2.3.64,3.19.44.84,1.88.68,2.56,1.28,1.5.04-.35.46,0,1.27-.16,1,.46,1.25.64,1.91,1.99.67,3.12-1.03,4.16-2.23.17-1.13-.27-1.64-.96-1.91-.05-1.01.85-1.06.64-2.23,2.23.12,4.25.43,5.44,1.59.32,3.08-2.11,3.42-3.84,4.46-.76.62-2.15.62-2.88,1.27-.94.34-2.12.44-2.88.96-5.11.43-10.11.97-15.03,1.59h-21.42c-.9.26-.83-.45-1.6-.32h-7.35v-2.87c-.1-.75-.99-.71-1.28-1.28-1.64.59-2.96,1.51-2.56,4.14-2.81.25-4.64-.47-7.35-.32.3-1.79-.45-2.53-1.6-2.87-1.93-.12-2.19,1.42-2.87,2.55-2.21-.46-5.02-.3-7.67-.32.28-2.19-.35-3.48-1.6-4.15-1.25.03-1.99.56-2.88.96-1.02.36-.82,1.94-1.6,2.55-3.35.15-6.3-.09-8.95-.64-.23-.9.16-3.57,0-5.42ZM11.56,91.49v-1.59c1.12.47,1.94,1.26,2.88,1.91-.62.8-1.95-.38-2.88-.32ZM30.11,94.36c-.72-.13,0-1.69-.64-1.91-.67.19-2.1-.39-2.24.32-.59-.05-.2-1.08-.64-1.28-.37-.11-.81-.56-.32-.64,3.02-1.26,4.73,1.4,6.07,2.87-.04.91-2.19-.28-2.24.64ZM35.54,96.91c-.35.08-.22.63-.64.64-1.23-.17-1.74-1.24-1.28-2.23,1.49-.1,1.78.99,2.88,1.28-.06.37-.59.27-.96.32ZM45.13,96.59c.17-.49.33-.02.32.32-.57.09-.66-.3-.32-.32ZM48.97,93.08c-1.49.31-1.93-.42-2.88-.64-1.31.17-1.98,1-2.87,1.59.03.38-.47.2,0,0,.45-1.25,1.34-2.06,1.92-3.19h1.6c1,.28,1.76.79,2.24,1.59.57.5,1.96,1.14,1.28,1.91-1.26.41-.83-.87-1.28-1.27ZM53.12,97.23h-3.52c.52-1.02,1.07-.81,2.24-.64,1.2-.36,3.22-1.22,4.15,0-.35.81-2.47-.13-2.88.64ZM59.51,96.59c.09-.74.85-.73,1.28-.32-.1.43-.8.27-1.28.32ZM66.87,91.17c-.59.48-1.79.34-2.24.96-.67.13-.85-.22-1.28-.32-.97.26-1.64,1.96-2.88.96.51-1.19,2.54-.87,3.2-1.91,1.7.2,3.21-.93,4.15.32-.23.57-.58.05-.95,0ZM68.47,94.99c.29-.56,1.17-.53,1.28-1.27,1.27.01,1.85.7,2.88.96-.76.73-2.87.11-4.15.32ZM77.42,96.27c.05-.37.58-.27.96-.32-.06.37-.59.27-.96.32ZM80.61,93.08c-.27-.37-.42-.86-.32-1.6.97.23.94-.55,1.92-.32-.21.96-.5,1.84-1.6,1.91ZM86.05,94.68c-.3-1.08-.42-2.34-.64-3.51.27-.06.3.12.32.32.93.24,1.84.5,2.24,1.28.79.28,1.85.29,1.92,1.28-1.41.08-2,.98-3.84.64ZM91.16,95.63c1.1.82-1.64.77,0,0h0ZM97.55,90.85c-.76.52-1.83.72-2.56,1.28-.83-.95,1.39-1.57,1.6-2.55,1.09-.08,1.54-.8,2.88-.63-.2,1.08-1.42,1.13-1.92,1.91ZM98.52,93.72c-.07.96-1.33-.3,0,0,.55-1.15,2.09-1.31,3.52-1.59-.81.9-1.86,1.55-3.52,1.59ZM103.63,87.66c-.92.92-.76-.86-1.6-.96-.26-.81-1.32-.81-1.92-1.27h-1.92c-1.46.14-2.38.82-3.52,1.27-.78.5-1.41,1.14-1.92,1.91-1.05.12-.64,1.7-1.92,1.6-1.56-1.31-3.63-2.12-5.43-3.19-3.28-.3-5.1.87-7.35,1.59-1.67.46-1.93,2.33-3.84,2.55-1.68.06-2.59-.85-3.51-1.6-.17-.13-.18-.78-.32-.96-.4-.52-1.66-.82-2.24-1.59-6.47-.29-9.74,2.61-13.1,5.42-1.96-.33-2.82-2.22-4.16-3.51-1.37-.45-2.21-1.41-3.83-1.6h-1.28c-1.39.1-2.02.96-3.2,1.28-1.55,2.06-1.97,5.25-5.43,5.42-1.02-.26-1.19-1.37-1.6-2.23-.64-.53-1.49-.86-1.6-1.91-1.72-.94-3-2.32-5.12-2.87-1.05.01-1.59.54-2.88.32-.26.17-.52.33-.96.32-2.39.81-3.82,2.57-6.39,3.19-1.77.38-1.12-1.65-2.56-1.59-.38-1.01-1.66-1.11-2.24-1.91-1.11-.48-2.67-.53-3.83-.96v-4.78c1.03.87,2.31-.05,2.88-.64.9-.26.83.45,1.6.32,2.17-.92,3.04-3.13,4.79-4.46.31-1.29,1.4-1.79,2.24-2.55-.05-.8.49-1,.96-1.28.09-.28.87-1.4.96-.64.37.79.46,1.88.64,2.87,1.82,2.65,2.13,6.8,5.11,8.29,3.42-.63,3.88-4.21,6.39-5.74.56-1.47,2.09-1.95,2.56-3.51,1.3-.62,1.63-2.2,3.2-2.55,1.12,3.03,3.03,5.27,3.84,8.61,1.19,1.04,1.62,2.85,3.84,2.87,1.6.11,2.19-.79,2.56-1.91.81-.68,1.41-1.57,1.92-2.55,3.27-2.58,5.7-6,10.23-7.33.12,1.15.41,2.14.64,3.19,1.42,2.31,2.1,5.34,3.84,7.33,1.06.11,1.42.92,2.88.64,1.64-.06,2.01-1.39,2.88-2.23.41-1.3,1.56-1.85,1.92-3.19,2.71-2.29,4.9-5.1,8.31-6.7.18-.46.5-.78.96-.96.26.06.32.32.64.32.55,2.11,1.82,3.5,2.88,5.1,1.9,1.92,3.4,4.25,6.07,5.42h1.28c2.12-.33,2.97-1.93,4.16-3.19.48-.69,1.17-1.17,1.92-1.59.53-.64.85-1.48,1.92-1.6-.22,1.17-.45,2.32-.32,3.83-.23.97.32,1.16.32,1.91-.37,3.07.79,6.03-.32,7.97ZM104.91,64.39c-1.12,1.64-1.89,3.64-3.52,4.78-1.25,1.51-2.45,3.08-3.52,4.78-1.7-1.28-3.18-2.78-4.79-4.14-1.08-2.96-2.84-5.24-5.44-6.69-1.12.16-2.08.47-3.52.32-4.52,1.98-6.94,6.04-10.55,8.92-.4.67-.93,1.2-1.6,1.59-.59.47-.48,1.65-1.6,1.6-1.11-2.19-1.73-4.87-2.24-7.65-.41-.87-1.28-1.27-1.92-1.91h-2.55c-1.98.15-2.47,1.79-4.16,2.23-.91,1.12-2.39,1.65-3.52,2.55-1.22.69-1.74,2.09-3.2,2.55-.95.97-1.84,1.98-3.19,2.55-.52-2.46-2.44-3.52-3.52-5.42-.65-.95-.67-2.51-1.28-3.51-1.46-.88-3.78-.74-5.44,0-1.8,1.07-3.45,2.29-4.47,4.14-1.35.14-1.47,1.51-2.56,1.91-.09.65-.86.62-.96,1.28-.46-.17-.78,1.24-.96.32-1.1-2.52-2.67-4.57-3.51-7.33-.4-.67-.93-1.2-1.6-1.59-.79-.28-.72-1.41-1.92-1.28-2.17-.25-1.92,1.91-3.52,2.23-.81,1-1.67,1.95-2.56,2.87-.91,2.38-2.38,4.22-3.83,6.06-2.05-1.46-3.38-3.64-4.48-6.06-.85-5.53-1.67-11.09-1.92-17.21,2.46,0,4.01.89,6.08,1.28,21.9,1.32,44.25,2.2,67.77,1.91,4.62-.6,9.38-1.06,14.06-1.59,2.99-1.06,6.1-2,8.63-3.51.42-.12.5-.56.96-.64.28-.06.3.12.32.32v14.35ZM15.72,44.63c-.46-.18-.78-.5-.96-.96h-1.6c-.77,1.42-3.19,2.69-1.92,5.1,2.64.97,5.13-.79,4.47-4.14ZM85.73,48.13c-.33-4.1-6.26-.34-3.51,2.23,1.68-.24,3.18-.66,3.51-2.23ZM60.47,50.05c.32-2.34-.83-3.21-2.88-3.19-.61.78-1.19,1.58-.96,3.19,1.02,1.27,2.67.9,3.83,0ZM69.11,51.32c2.34.71,4.93-.14,4.48-3.19-.4-.13-.65-.41-.64-.96-2.34-.95-5.01-.05-4.47,2.87.43.21.59.68.64,1.28ZM10.92,60.89c-.46,3.68,3.24,5.63,5.76,3.51.87-2.15-.07-4.66-1.28-5.74-2.18-.98-4.27.24-4.48,2.23ZM14.12,62.48c.06-.36.33-.18.32,0-.06.36-.32.18-.32,0ZM100.43,61.84c.14-1.2-.63-1.5-.96-2.23-.25-.07-.63,0-.64-.32-1.36-.19-2.12.23-3.2.32.1.73-.92.35-.96.96-.09.66-.85.64-1.28.96-.3,2.01.48,2.92,1.28,3.82,2.52.38,3.51-.75,4.8-1.59.57.29.41,1.29,1.6.95.29-.57.89-.81.64-1.91.14-.88-1.19-.3-1.28-.96ZM96.6,62.48c.28-.46.48-1.01,1.28-.96.1.84-.66.82-1.28.96ZM36.5,61.84c-1.05-1.41-3.96-1.06-5.12,0-.38.89-.35,2.2-.32,3.51.81.37,1.07,1.27,2.24,1.28,2.2-.36,3.77-1.34,3.52-4.14-.25-.07-.38-.27-.32-.64ZM32.98,64.07v-.96c.37-.27.86-.42,1.6-.32.22,1.18-.51,1.41-1.6,1.28ZM56.96,61.84c-1.63-1.49-5.7-1.17-6.08,1.28-.38,2.29,1.15,2.68,1.92,3.83,2.56.32,3.8-.67,4.8-1.91v-1.91c0-.63-.87-.4-.64-1.28ZM55.68,63.76c.03.98-.96.95-1.92.95.23-.97-.55-.94-.32-1.91,1.02.04,2.45-.31,2.24.96ZM70.7,63.44c-.14,1.42.87,1.69,1.28,2.55,2.19.27,3.65-.18,4.47-1.28.26-1.64-.34-2.42-.64-3.51-2.16-.78-4.99-.02-5.11,2.23ZM74.54,63.76c-.79.04-1.54.05-1.92-.32.27-.69.79-1.13,1.92-.96v1.28Z"/>
    </g>
  </g>
</svg>