<?xml version="1.0" encoding="UTF-8"?>
<svg id="Layer_2" data-name="Layer 2" xmlns="http://www.w3.org/2000/svg" viewBox="0 0 62.51 110.32">
  <defs>
    <style>
      .cls-1 {
        fill-rule: evenodd;
      }
    </style>
  </defs>
  <g id="food_icons" data-name="food icons">
    <g id="candy3">
      <path class="cls-1" d="M35.18,65.69c1.17,10.63.73-.23,0,0h0ZM41.57,63.78c.07,9.98,2.22-.97,0,0h0ZM59.01,17.83c-1.56-2.64-2.24-5.62-3.58-8.35-1.14-2.34-2.53-3.1-4.68-4.57-4.05-2.77-7.74-4.36-12.74-4.69C35.63.06,33.26,0,30.89,0c-1.85,0-4.58.63-6.26.34-3.99.19-9.88,5.22-11.87,8.44-.87,1.41-2.6,1.96-3.48,3.36-1.71,1.04-2.58,2.95-4.16,4.14C3.68,19.89.34,23.77.39,27.69c.03,2.19-.36,4.36-.39,6.55-.04,2.45.66,4.78.89,7.2.42,4.31,3.69,10.12,6.52,13.44,1.29,1.51,2.46,3.73,4.2,4.45,1.78.73,3.47,2.06,5.08,3.07,3,1.86,6.91,3.03,10.35,3.43,2.27.27,1.22,2.92,1.22,4.58,0,2.55.24,5.09.54,7.62.66,5.54.6,10.83.37,16.4-.19,4.52-.74,9.85,1.33,14.04.91,1.84,4.56,1.82,6.43,1.84,2.25.03,3.41-.2,4.2-2.41,1.36-3.86.72-8.33.71-12.34-.02-5.33-1.03-10.57-.87-15.97.16-5.28.62-10.54.58-15.82,11.3-4.95,17.38-17.77,20.46-29.05,1.38-5.07-.41-12.5-3.02-16.9ZM37.56,106.57c-2.41.97-1.4-4.91-1.29-5.93.4-3.87.26-7.85.21-11.75-.09-7.75-.45-15.5-1.3-23.2.89-.28,1.95-.64,2.88-.64-.24,7.77-1.69,16.14-.42,23.84.57,3.42,1.17,7.15.42,10.58,0,1.04.66,6.63-.5,7.09ZM57.44,36.51c-.95,2.31-1.92,4.41-3.05,6.65-2.26,4.51-4.52,8.73-8.66,11.82-4.86,3.64-10.5,5.75-16.6,5.24-2.62-.22-5.26-.78-7.58-2.05-.83-.45-1.62-.54-1.94-1.5-.13-.41-.24-.94-.54-1.29-.1,0-.48-.17-.56-.24-.64.04-.79.8-1.56.68.1-1.42.04-2.87-.34-4.24-.11-.38-.94-1.63-.96-.41-.02.9,0,2.18-.29,3.06-2.37-.47-2.44-3.26-2.31-4.98.11-1.31.14-2.63.08-3.94-.69-.05-1.75-.1-1.6.96-1.16-.42,1.25-4.85-.44-5.3-1.47-.39-.46-3.86-.59-5.27-.04-.47-1.04-5.85-1.65-4.01-.29.89-1.24,2.19-1.16,3.11-.89-.05-.05-4.5,0-4.93.1-.89,0-2.96.41-3.67.32-.57,1.02.33,1.19-.63,1.98-4.22,6.93-7.42,10.83-9.8,2.05-1.25,4.2-2.35,6.43-3.27,2.42.06,4.83-.07,7.24,0,3.3.1,4.63,1.35,6.93,3.63,1.44,1.43,2.98,3.05,4.01,4.82,1.03,1.77,1.95,3.74,2.92,5.57-.07,2.48.07,4.96,0,7.44-.23,7.31-10.36,15.82-17.56,15.85-4.21.02-9.9.27-11.54-4.36-1.37-3.85-2.74-8.81-.77-12.65,3.21-6.25,11.13-12.52,18.53-10.4,4.77,1.36,3.95,8.89,3.03,12.41-.55.19-1.02,1.16-1.57,1.55-.79.57-1.58,1.26-2.54,1.55-1.6.48-3.42.29-5.04.02-1.13-.19-2.26-.47-3.33-.91-1.06-.44-.62-1.39-.64-2.42-.05-1.95-.48-4.38,2.1-4.51.76-.04,4.99.1,3.9,1.53-.74.96-2.28.91-2.94,2-1.18,1.97,2.38,2.2,3.41,1.62,1.37-.76,2.7-1.64,3.02-3.28.86-4.32-4.55-4.88-7.62-4.84-2.57.03-5.07,1.78-5.07,4.46,0,1.87-.68,5.34.44,6.88,2.13,2.95,7.51,3.05,10.75,3.05,4.14-.69,7.97-3.28,8.78-7.53.97-5.13.47-8.83-2.71-12.99-2.64-3.45-9.73-2.85-13.17-1.25-3.42,1.59-8.01,4.5-10.07,7.68-2.3,3.56-3.84,5.68-3.69,10.01.13,3.85.76,8.71,3.17,11.89,2.5,3.3,7.09,4.28,11,4.53,5.04.32,9.12-.8,13.26-3.76,3.66-2.62,6.53-5,9.17-8.71,2.95-4.14,1.83-9.85,1.83-14.72,0-2.72-1.84-5.09-3.02-7.44-1.16-2.31-3.29-4.14-4.98-6.09-1.78-1.47-3.69-2.78-5.75-3.83-2.37-.32-4.76-.34-7.15-.33-2.87,0-5.21-.19-7.77,1.26-1.59.9-3.24,1.36-4.74,2.42-2.83,1.97-6.85,3.57-8.79,6.54-.56-.06,2.16-4.52,2.23-5.1,2.35-.5,3.24-3.46,5.04-4.79,2.41-1.78,4.83-3.56,7.64-4.66,3.35-1.31,7.29-.74,10.83-.74,5.19,0,13.12,2.59,16.43,6.84,3.72,4.78,5.73,10.13,6.18,16.15.23,3.03.62,6.86-.53,9.67ZM18.51,55.13c.11,0,.22,0,.36.04-.35-.1-.41-.09-.36-.04ZM18.87,55.17c.08.05.14.13.2.2.06,0,.03-.05-.2-.2Z"/>
    </g>
  </g>
</svg>