<?xml version="1.0" encoding="UTF-8"?>
<svg id="Layer_2" data-name="Layer 2" xmlns="http://www.w3.org/2000/svg" viewBox="0 0 114.38 90.2">
  <defs>
    <style>
      .cls-1 {
        fill-rule: evenodd;
      }
    </style>
  </defs>
  <g id="food_icons" data-name="food icons">
    <g id="candy2">
      <path class="cls-1" d="M76.89,24.23c.89-.28.28-.67,0,0h0ZM101.19,0c.1.07.17.18.25.27.12.03.13-.01-.25-.27ZM72.42,21.68c1.39-.53-.76-1.16,0,0h0ZM7.42,47.45c.03.33.07.67.1,1,.03.08.08.15.11.22.31.34-.51-4.29-.22-1.23ZM68.58,27.1c.42,1.09,1.72-.62,0,0h0ZM60.91,18.81c.2.86.84-.86,0,0h0ZM64.49,32.97c.1.22.28.39.57.5.12-1.07-.6-.88-.57-.5ZM33.89,29.65c-.17-.03-.33-.04-.48,0-.43.71.57.17.48,0ZM74.33,53.87c-.15-1-.56-.72,0,0h0ZM53.24,75.55c.42,0-.05-.37,0,0h0ZM53.87,65.99c-.03-.19-.07-.38-.1-.57-.32-1.45-.33,2.56.1.57ZM37.05,66.49s-.08.08-.12.13c.37.17.28-.21.12-.13ZM83.29,56.74c.1.04.18.1.26.16.02,0-.03-.05-.26-.16ZM81.1,62.15s-.03.01-.05.01c.78-.12.35-.06.05-.01ZM45.56,16.58c-2.46,2.01,4.45-.88,0,0h0ZM81.05,62.16s-.07,0-.1,0c-.1.02-.11.02.1,0ZM113.4,58.27c.92-2.46,1.29-4.21.68-6.78-.54-2.26-1.56-4.47-1.76-6.76-.23-2.66-.77-4.89-2.24-7.07-1.23-1.82-3.48-1.84-4.74-3.56,2.09-4.45,3.28-7.99,1.78-12.86-1.04-3.42-1.78-7.42-4.19-10.19-1.47-1.69-1.11-3.61-1.11-5.73,0-1.15.5-3.96-.39-5.07-.16-.04-.49-.23-.33-.27-2.66.04-3.1,1.98-4.45,4.15-1.44,2.3-2.74,4.52-3.91,6.98-2.09,4.39-4.16,9.31-5.31,14.05-1.2-.57-1.57-2.27-2.48-3.01-.97-.79-1.49-1.48-2.48-2.31-1.2-1-2.44-1.84-3.67-2.81-1.67-1.32-2.95-1.61-4.91-2.44-1.64-.69-3.15-1.62-4.68-2.5-2.02-.3-3.97-.92-5.93-1.45-4.17-1.13-8.24-.86-12.46-.2-4.53.71-8.13,2.13-12.05,4.45-1.84,1.09-3.19,1.81-4.65,3.38-1.3,1.4-2.65,2.76-3.93,4.18-2.47,2.76-4.81,5.87-5.64,9.53-.78,3.44-2.1,7.15-2.01,10.71-3.89-4.55-9.16-7.42-13.69-11.31-1.17-1.01-2.25-2.12-3.37-3.2-.99-.96-2.08-.81-3.08-1.75-.7.08-3.29-1.15-2.1,1.22,1.1,2.22,1.34,3.54,1.17,6.05-.18,2.7-.34,6.34.67,8.84,1.14,2.81.3,5.96,1.41,8.64,1.28,3.09,2.2,4.8,5.24,6.49-.81,2.29-2.24,4.63-2.24,7.01,0,3.47.06,6.49,1.26,9.8,1,2.76,2.35,5.36,3.33,8.13.7,1.99.93,4.09,1.52,6.1,1.49,5.06,8.75-4.61,9.54-5.61,3.65-4.67,6.81-10.17,8.65-15.87,2.29,2.95,5.49,6.7,8.93,8.13,2.94,1.22,5.91,2.37,9,3.14,7.61,1.91,15.05.34,22.32-2.37,1-.37,2.01-1.16,3.11-.83.54.25,1.11.32,1.7.21,1.05-.29.93-1.7,1.87-2.12,1.12-.51,2.64-1.41,3.24-2.66,1.25.02,1.46-1.96,2.56-2.23.23-1.36,1.73-1.69,2.24-2.87.94-1.14,1.81-2.35,2.58-3.61,1.86-3.03,3.22-6.35,4.13-9.78,3.75,2.76,7.52,5.18,11.1,8.14,1.62,1.33,2.54,2.9,4.1,4.31.99.89,2.31,2.52,3.63,2.82,2.22.5,2.38-1.92,2.08-3.43-.42-2.1-.85-3.78-.07-5.85ZM77.85,22.31c.57.26,1.1.58,1.6.96-.68.62-1.73.69-2.56.96.3-.72.97-1.04.96-1.91ZM76.25,20.72c-.88,1.33-2.59.47-3.84.96-.77-1.19-1.97-2.02-2.24-3.51,1.97.93,4.28,1.24,6.07,2.55ZM71.14,25.18c-.17-.16.23-.41.32-.32.16.17-.23.41-.32.32ZM74.01,25.5c-1.58,1.67-3.83,2.5-5.43,4.14-.6-.28.22-1.99,0-2.55,1.8-.65,3.5-1.46,5.43-1.59ZM60.91,18.81c1.18-1.2.96-3.41,2.98-3.08,1.6.25,3.08.95,4.69,1.17-.78,2.36-3.37-1.03-5.09,1.11-1.03,1.28-1.44,2.19-2.26,3.67-.82-.38-.17-2.21-.32-2.87ZM66.98,30.29c-.25,1.32-1.76,1.82-1.92,3.19-.41-.14-.56-.34-.57-.5-.38-.81.35-2.24.26-3.01.8.11,1.39.47,2.24.32ZM63.78,35.39c-.17.47-.47.8-.64,1.28-.71-.13-.43-1.87.64-1.28ZM30.4,35.18c.73-2.15,1.88-3.61,3.02-5.53.31-.07.45-.05.48,0,1.09.19,2.46,1.39,2.72-.32,1.58.44,2.91,1.53,1.45,2.93-.97.94.24,2.12-.49,2.81-1.4-1.04-1.34-.98-2.54.4-.62.71-1.18,1.47-1.64,2.3-.68,1.23-1.1,2.59-1.25,4h-2.88c.11-1.3-.09-2.55-.32-3.83.07-.95,1.14-1.84,1.46-2.76ZM24.94,63.6c-1.49,1.75-1.41,4-2.73,5.84-2.64,3.7-6.09,8.62-7.02,13.13-1.69-.77-3.04-6.5-3.69-8.12-1.37-3.43-2.24-7.73-1.15-11.37.51-1.7,3.44-6.85,1.36-8.06-1.06-.61-.91-2.33-1.93-3.48-.8-.9-1.66-1.76-2.16-2.87-.03-.03-.06-.1-.11-.22-.05-.4-.08-.73-.1-1-.51-4.89-.79-9.87-2.13-14.62,2.22,1.92,4.43,3.9,7.19,5.02,2.34.94,4.45,3.28,6.44,4.88,1,.8,1.98,1.51,3.31,1.58.07,1.63.27,3.26.59,4.86.49,2.5,1.29,4.92,2.24,7.28,1.21,2.99,2.2,4.42-.11,7.14ZM36.93,66.63c.04-.08.08-.11.12-.13.3-.35.68-.52,1.16-.51.11.29-.37,1.65.32,1.59-.61.98-1.17-.75-1.6-.96ZM43.65,63.44c.06-.36.32-.18.32,0-.06.36-.32.18-.32,0ZM47.48,57.38c-.22.97.7,3.53-1.6,2.87.1-.52,1.36-3.49,1.92-3.51-.31,0-.07-.6,0,0-.16-1.35,2.63-4.74,3.84-5.1-.56,1.49-.56,3.61,0,5.1-.99-.07-1.03-1.21-1.28-1.91-1.26-.06-.92,1.39-2.02,1.65-.58.14-.49.89-.86.9ZM48.44,71.09c.99-1.63,1.59-2.92,3.06-4.28,1.66-1.53-.47-4.61.46-6.56-.08-.83-1.17-1.25-1.18-2.08-.02-.7.96-1,1.18-.15.36,2.52,1.37,4.89,1.82,7.4.03.14.06.32.1.57-.37,1.69-.65,3.54-1.63,5.01-.91,1.36-2.52.56-3.8.09ZM53.24,75.55c-.24-.3-.56-.41-.96-.32.13-.95,4,.44,4.05.16-.08.44-2.8.16-3.09.16ZM72.42,51.96c3.79-.44,5.75,1.86,8.95,3.19-1.12,1.09-4.15-2.78-4.16.64-.66-.68-.16-1.85-.74-2.58-.56-.7-2.3-.43-2.14.67-.59-.75-1.83-.77-1.92-1.91ZM74.98,68.86c-.26-1.23-1.02-2.27-1.28-3.51,1.55-.34,2.65.84,4.16.64,1.82-.36,1.66-2.77,1.6-4.14.45.3.95.41,1.5.33.04,0,.09-.01.15-.02,1.28-.26.73-2.31,2.51-1.9-1.07,3.28-5.3,7.63-8.63,8.61ZM84.89,58.66c-.53-.52-.73-1.32-1.33-1.76-.05.02-.57-.16-.26-.16-2.29,0-1.26-1.07-.8-.71.95.73,1.87.94,3.03,1.35-.21.43-.42.85-.64,1.28ZM87.12,54.19c-3.38-1.92-6.71-3.93-10.36-5.32-2.95-1.12-6.3.43-9.34.59-1.62.09-3.25-.09-4.47-1.28-.43-.42-2.61-.67-2.68-1-.46-1.32-2.17-1.1-2.63.07-.47,1.19.1,2.6.39,3.76.57,2.24,1.25,3.76,2.74,5.56,1.44,1.74,2.32,2.46,4.3,3.36,1.92.88,2.68,1.42,3.61,3.35.69,1.42,1.31,2.88,1.88,4.36.71,1.83,2.14,3.61-.42,4.19-1.86.42-3.83.21-5.71.22-2.86.39-6.12.76-8.95,0,1.03-4.15,1.5-7.08.18-11.21-1.04-3.28-1.89-6.19-.8-9.55.4-1.23-1.27-1.92-.02-2.52.88-.42,1.01-1.74-.13-1.92-2.51-.4-3.85,2.34-5.4,3.74-2.08,1.88-3.68,4.78-4.93,7.28-1.19,2.38-1.41,3.25-4,4.04-1.53.46-3.04.95-4.55,1.47-1.82.62-2.51-1.47-3.46-2.95-.94-1.47-1.78-3-2.51-4.58-1.44-3.15-2.38-6.5-2.82-9.94,7.06-1.01,14.36-1.56,21.45-.55,2.58.37,6.47,2.28,8.54-.27,1.61-1.98-2.01-4.13-3.35-4.88-3.04-1.68-3.84-5.14-5.69-7.96-1.81-2.77-4.55-2.56-7.12-4.29-1.91-1.28-1.94-1.74-2.53-4.04-.47-1.79-1.05-1.96.59-3.26,2.05-1.62,4.62-2.43,6.64-4.09,4.69-.93,9.23-2.16,14.07-1.91-.37,1.32-1.15,2.46-1.62,3.74-.58,1.58-.27,3.43-.17,5.07.2,3.3.62,6.58,1.3,9.81.64,3.06,1.12,5.32-.28,8.27-.8,1.7-1.73,4.24,1.31,3.01,5.21-2.1,4.86-9.29,9.27-12.01,2.36-1.46,4.6-3.08,7.03-4.28,1.52-.75,3.55-1.74,5.2-2.15.58,2.22,1.14,4.64,2.01,6.76.37.91.34,3.46,1.19,4.08.41,3,.86,6.02,1.75,8.92.08.28,1.51,4.16,1.45,2.56.82.05-.91,5.08-.96,5.74ZM65.7,52.6c-.45,1.74-2.06-.23-2.55,1.27-.94-.62-1.62-1.35-1.6-2.55,1.43.37,2.63,1.24,4.15,1.28ZM40.76,33.7c-.03-.4.33-1.55-.31-1.5.75-.73,3.03.39,3.75.57.64.16,1.49,1.86,1.37,2.62-1.16-.68-1.12-2.48-2.54-2.41-.6.03-1.11.39-1.66.62-.02.05-.18.12-.6.19.21-.03.41-.1.6-.19.05-.11-.57-.14-.61.1ZM46.21,38.89c1.1-.24.34.75.32.96-.23-.03-.17-.1-.09-.1-.22-.23-.3-.51-.22-.86ZM110.46,55.5c-.16.25-.68,1.81-1.22,1.46.02.01-.96-.97-1-.87.45-1.11,1.89-1.46.19-2.88-1.24-1.04-2.88-1.9-4.34-2.55-1.8-.81-3.66-1.46-5.52-2.15-2.21-.81-3.05-.82-5.38-.38v-3.83c2.11,0,3.82,1.55,5.89,1.75,2.13.21,2.8-1.89.86-2.81-1.85-.88-7.26-1.26-7.39-3.72,1.69.45,7.39,1.04,5.93-2.36-.93-2.14-4.71-.67-6.25-.19-.37-1.86-.94-3.67-1.67-5.42-.68-1.63-2.17-3.22-1.36-4.86,1.4-2.84,2.37-6.69,4.3-9.16-1.07,1.37,1.43-3.46,0,0,.38-.92,4.74-10.26,5.05-9.82.39.55.17,2.25.43,3,.44,1.33,1.32,2.32,2.19,3.4,1.74,2.16,2.44,6.5,3.2,9.2.95,3.33-.37,6.06-1.86,8.98-.54,1.06-2.81,3.44-1.26,4.62,1,.76,1.02,1.72,1.85,2.61,1.02,1.03,2.08,2.02,3.25,2.88,1.59,1.17,2.26,2.92,2.93,4.85.72,2.04,2.38,6.32,1.17,8.24ZM63.15,53.87c.13-.4-.84-.55,0,0h0ZM46.43,39.75s.06.07.09.1c0-.08-.05-.1-.09-.1ZM99.47,18.22c.23-.04.48-.07.76-.05-.37-.02-.61,0-.76.05ZM99.47,18.22c-1.95.36-2.25,2.6-4.03,3.45-.49,2.23-3.4,2.46-3.2,5.1,2.7,1.04,8.93-4.47,8.38-7.67-.31.3-1.93-.63-1.15-.88ZM100.23,18.17c.22.28.33.6.39.93.11-.11.05-.38-.39-.93ZM18.39,46.22c-.19.08-.39.11-.61.12.07.05.25.03.61-.12ZM17.79,46.35c-.19-.14.43-.81.69-.84-.24-2.34-5.25-6.28-7.03-5.57-1.47.58,3.5,6.51,6.34,6.41ZM18.39,46.22c.27-.56.23-.73.09-.71.03.26.01.5-.09.71ZM21.54,50.43c-.1.15-.29-.44.05-.38.11.02-1.98-1.55-1.92-1.28-1.08.13-2.14-.07-3.18-.29-1.34-.28-4.61-.58-3.13,1.7,1.16,1.8,7.64,2.83,8.18.25ZM21.59,50.05c0,.14-.03.26-.05.38.03-.05.05-.15.05-.38ZM24.02,58.41c.1.31.21.26.13-1.03.02.31-.03.66-.13,1.03ZM24.15,57.38c-2.19-2.17-3.39-.78-5.03,1.2-1.22,1.49-4.25,3.92-3.28,6.13,2.81,1.33,7.39-3.2,8.19-6.31-.13-.4-.23-1.38.13-1.03Z"/>
    </g>
  </g>
</svg>