<?xml version="1.0" encoding="UTF-8"?>
<svg id="Layer_2" data-name="Layer 2" xmlns="http://www.w3.org/2000/svg" viewBox="0 0 111.06 110.68">
  <defs>
    <style>
      .cls-1 {
        fill-rule: evenodd;
      }
    </style>
  </defs>
  <g id="food_icons" data-name="food icons">
    <g id="candy1">
      <path class="cls-1" d="M72.86,3.86c.28,1.55-.23-2.1,0,0h0ZM50.8,91.84c-.21,1.29.79.05,0,0h0ZM110.13,39.16c-1.87-.74-4.13-.07-5.77-.98-2.3-1.28-2.41-.76-2.41-3.87,0-3.71-1.48-9.87-6.39-9.72-.02-4.68-4.53-.84-7.11-.4-3.8.65-3.64-3.74-3.98-6.28-.57-4.22-4.44-4.39-8.09-4.16.12-1.61-.67-2.74-1.28-4.14-1.2-.38-2.46.15-3.66-.2-2.6-.76,1.67-4.12,1.42-5.54-.44-3.95-4.94-4.12-7.94-3.71-3.26.44-4.51,5.19-6.13,7.54-.57,3.66-2.07,7.09-2.77,10.73-.7,3.62-1.09,6.2-3.87,8.83-5.93,5.62-11.8,11.42-17.02,17.74-3.06,1.93-5.34,4.77-7.83,7.34-1.24,1.29-2.56,2.53-4.04,3.54-1.31.9-1.42,2.13-2.52,3.14-1.99-2.07-7.58-1.05-9.92-.25-2.97,1.01-5.35,2.73-7.85,4.56-1.71,1.25-4.86,5.11-1.48,6.18,2.75.87,6.35-.14,8.39,2.58,0,3.13.76,6.06,3.83,7.33.54,1.02,2.12.54,2.88,1.28.01,1.27-.59,2.41-.68,3.66-.2,2.68,3.32,4.69,5.51,5.44,1.33.45,2.72.68,4.12.78.04,1.07.69,1.73,1.51,2.32,2.04,1.47.02,4.24,2.81,5.23,1.71.6,4.33-.47,5.7.38,1.17.73,1.78,2.13,3.13,2.65,1.91.73,1.86,1.27,1.5,3.18-.33,1.79-.78,4.56.69,6,1.97.83,4.1-.05,6.08-.32,3.14-1.81,5.68-6.31,6.4-9.88,1.33-1.68,1.6-4.28,2.39-6.22.34-.83.72-1.63.81-2.54.15-1.57.51-1.45,1.76-2.41,3.97-3.05,7.38-6.68,10.94-10.24,6.29-6.27,12.58-12.4,18.39-19.09,1.07-1.24,1.63-1.55,1.62-3.22,0-.88,1.16-1.79,1.8-2.18,1.05,1.28,3.77.59,5.17.59,3.88,0,7.45-3.25,9.89-5.98,1.48-1.66,3.56-3.65,3.49-6.08.66-1.04,2.56-2.79.51-3.59ZM40.89,97.26c-.04-.57.39-.67.32-1.27.56-.1.57,1.79-.32,1.27ZM46.01,105.87c-.68-.65.51-.89.9-1.22-.23.08.48-2.12.06-.05.4-2.02,1.85-3.53,2.56-5.42.95.45-2.48,6.38-3.52,6.69ZM50.8,96.94c-.88-1.39-.24-3.61,0-5.1.67.1,1.21-.11,1.6-.64.62.08-1.37,5.08-1.6,5.74ZM97.48,49.13c-2.7-.15-7.72-.38-7.35,3.51-7.94,3.59-13.41,11.52-19.59,17.5-5.92,5.73-11.15,12.56-17.61,17.52-.57.44-.93.87-.84,1.64-.53.64-1.29-.41-1.92.32-.95.84.13,1.75-.66,2.66-1.47,1.71-1.53,3.71-3.52,4.86-1.7.99-1.49,1.34-3.5.77.86-1.3,3.67-3.09,1.92-5.1-.63-.14-1.72.62-2.23,1.2,0,.02,0,.05,0,.07-.03,0-.05.02-.08.03-.17.22-.25.41-.16.5-.2-.25-.14-.42.16-.5,0,0,.02-.02.02-.03-.83,0,0-1.36.06-.06,0,0,0,0,0,0,0-1.06.41-3.06-.64-3.75-1,.02-1.69,2.12-2.24.64-.9-2.46-2.48,2.11-3.19,2.23-.41-2.8-1.98-7.72-4.3-9.52-2.68-2.09-6.9-1.74-10.08-1.63.94-1.32-.79-2.86-.04-4.14.44-.76,1.17-1.32,1.49-2.16,1.18-3.06-2.16-1.28-2.59.42-.19.73-1.28.84-1.5.05-.15-.52.56-1.25.78-1.66.38-.68.66-2.65-.78-1.93-.59.29-1.16,1.19-1.6,1.62-.59.58-.3,1.7-1.52,1.41-.44-.9,0-2.05.26-2.93.1-.35.85-3.41-.2-3.27-.57.07-1,1.04-1.38,1.39-1.17,1.05-.07-2.49-.02-2.75.41-2.01-1.41-1.17-2.08-.21-.89,1.26-2.02-.05-3.27-.69-1.11-.57-2.28-.85-3.53-.79,2.46-2.19,5.29-3.79,8.57-4.31,2.11-.33,4.2-.32,6.29-.61.97-.13.72-.65,1.44-.82.53-.02,1.07-.02,1.6,0,3.77-1.93,6.44-5.25,9.59-7.97,2.71-3.14,6.43-5.28,8.95-8.61,3.36-3.62,6.73-7.24,10.26-10.7,1.98-1.93,7.92-5.72,6.75-8.92-.56-1.54.88-4.78,1.24-6.35.42-1.84.85-3.68,1.38-5.5.6-2.03,1.32-4.05,2.35-5.91,1.23-2.22,1.7-2.46,4.23-2.46-.03,2.28-2.83,6.76.66,7.77,1.55.45,3.7-.55,4.16,1.21.34,1.32.23,3.12,1.85,3.37,1.82.28,4.32-.83,4.72,1.21.27,1.36.63,2.72.57,4.13-.11,2.74,1.33,5.19,3.88,6.39,3.36,1.58,7.71.32,11.33.46,2.17,1,1.94,4.29,1.96,6.25.01,2.44-.23,5.07,2.35,6.05,1.53.58,2.17.19,3.53.93,1.03.56,2.21.64,3.35.48-1.12,3.21-6.72,4.98-9.27,6.69ZM42.11,94.07s.04,0,.06,0c0-.02,0-.04,0-.07-.02.02-.04.04-.06.06ZM87.71,46.86c.09.3.16.63.17.99-.04-1.44-.14-1.38-.17-.99ZM87.71,46.86c-.54-1.76-2.29-2.67-3.02-4.43-2.15-1.94-3.97-4.05-5.97-6.1-1.82-1.85-3.88-4.05-6.01-5.54-1.98-1.38-5.25-1.08-4.01,1.99.84,2.09,3.25,3.53,4.67,5.22,1.84,2.19,3.76,4.33,5.75,6.38,1.46,1.5,2.62,3.61,4.26,4.89,1.13.89,2.08.97,3.27.21.12-.07,1.26-1.63,1.24-1.63-.18.03-.21-.63-.17-.99ZM56.56,33.83c.14-.02.26-.01.37,0-.08-.02-.19-.02-.37,0ZM54.32,41.16c.19,1.59,1.42.9,2.56.96.47-.6.51-2.05,1.67-1.56,1.73.72,1.63-1.02,1.91-2.46.24-1.27.4-2.7-.07-3.95-1.14.05-1.36,1.13-2.24,1.59-.3-.75-.33-1.8-1.23-1.91.45.12-.61.8-.47.25-.37.96.11,1.93.11,2.93-.91-.45-1.03.49-1.72.52-.29.01-.48-5.34-1.86-2.75-.67,1.27-.44,2.69-.71,4.04-.28,1.48-.96,3.23.13,4.57,1.39.04,1.18-1.51,1.92-2.23ZM75.35,54.99c-.67.11-1.32.39-1.85.83-.38-.27-.81-.38-1.28-.35-1.8,0-1.5,1.5-.64,2.58-1.18,1.37-2.4,2.72-3.84,3.83-.28-.55-.43-5.75-2.1-2.73-.51.92-.37,2.49-1.42,3.05-.71-.09-.04-1.42-.96-1.28-.36.88-.92,1.66-1.29,2.54-.51,1.21-.51,4.01-1.59,4.79.03-.49-.19-.81-.64-.96-.62.59-.32,1.94-1.28,2.23-.15-1.42-.72-2.71-1.6-3.83-1.14,1.51-1.28,3.62-1.6,5.42.45.5.71,2.47,0,2.87-1.72-3.79-.76-8.62-3.2-12.11-1.57,1.96.54,12.35.32,12.43,0-.75-.55-.94-.32-1.91-.23.97-.39-.36,0,0-.43-.36-.64-.26-.64.32-.63-.57-.1-2.21-1.28-2.23-.88.42-.23,2-1.28,2.23.16-.51.06-.93-.32-1.28-.83.32.27,1.99-.64,2.23-.82-.41-1.23-2.02-2.13-.25-.58,1.14-.25,2.56-.11,3.75-4.15-.53-3.75,3.76-1.66,5.89,2,2.05,5.18,5.63,8.09,2.96.72-.66,1.23-1.51,1.57-2.42.59-1.55.49-.62,1.66-1.37.82-.53,1.06-1.17,1.21-2.19.63-.23,1.2-.56,1.71-1,2.45-2,5.33-3.82,7.24-6.33,3.01-1.88,5.2-4.74,7.87-7.05,2.14-1.85,7.68-6.18,5.48-9.37-.77-1.11-2.21-1.52-3.5-1.31ZM30.03,59.01c.33.07.56.23.73.43.05-.12-.1-.29-.73-.43ZM39.32,68.38c-1.49,1.29-1.73-3.2-1.7-4.05.04-1.31.83-4.31-.65-5.14-1.9-1.07-1.64,3.5-2.15,4.29.02-.78-.36-3.64-1.89-2.33-.69.59-.37,1.69-.99,2.33-.94-.89-.36-3.07-1.19-4.03-.09.2-.82.23-.73-.43-.16,1.15-.25,2.87-1.44,2.87-1.39,0-1.32,1.56-1.38,2.76-.07,1.28.07,2.62.54,3.82.56,1.44,1.82.28,2.85,1.35,1.69,1.78,3.79,3.67,6.46,2.91.1.83,3.15,1.23,3.42-.12.16-.8.42-5.58-1.15-4.22Z"/>
    </g>
  </g>
</svg>