<?xml version="1.0" encoding="UTF-8"?>
<svg id="Layer_2" data-name="Layer 2" xmlns="http://www.w3.org/2000/svg" viewBox="0 0 114.22 110.95">
  <defs>
    <style>
      .cls-1 {
        fill-rule: evenodd;
      }
    </style>
  </defs>
  <g id="food_icons" data-name="food icons">
    <g id="candy4">
      <path class="cls-1" d="M88.22,18.49c-2.78.56.62,1.3,0,0h0ZM45.5,14.88c2.05,1.09,4.97,1.82,7.16.55,2.09-1.22,9.6-4.33,8.72.83-1.28-.25-1.71-1.32-3.2-.96-1.04,1.35-1.03,2.88-.64,4.46.41,1.65,2.54,3.65,3.83,4.46,2.73,1.72,6.09,1.91,9.28,1.91,1.02-.55,2.8-.19,3.51-1.28,1.53.07,2.16-1.3,3.52-1.6.39,2.53,3.12,6.22,5.43,7.33,1.38,1.44,2.93,4.47,5.23,2.02.97-1.04,1.27-2.52,1.78-3.8.51-1.29,1.53-1.53,2.73-2.03,2.75-1.15,1.89-5.59,1.46-7.99-2.89-3.13-5.2-3.69-9.28-2.45-3.3,1-5.4,1.65-7.51-1.53-1.95-2.94-4.15-4.67-7.64-5.61-3.2-.86-6.79-.84-10.11-.61-.39-2.28-2.95-4.13-4.11-6.1-.62-1.07-1.4-2.06-2.6-2.51-.68.43-1.44.48-2.22.43-3.25-.23-4.16.37-4.16,3.72,0,1.52.71,3.69-.98,4-.88.16-1.84.34-2.59.86-3.01,2.06.56,4.9,2.39,5.87ZM78.98,20.01c.2-.51,7.86-1.24,9.24-1.52.61,1.29,2.22,1.71,2.56,3.19.26.52-.89,1.08,0,1.28-1.8,1.68-4.17,2.69-4.48,5.42-1.27.14-3.99-2.15-4.47-3.19-.91-.79-1.89-1.53-2.62-2.49-1-1.31-.72-1.43-.23-2.69ZM75.32,17.22c.69,1.29.36,1.86-.48,2.9-.37.47-1.61.2-1.63.6-1.62-.89-2.99-5.66-3.52-7.33.43,1.38-.17-.26,0,0-.21-.28-.32-.6-.32-.96,2.43,0,4.88,2.75,5.95,4.78ZM67.77,11.79c-1.36,2.27-.15,5.14.91,7.26,1.11,2.19-2.1-.08-2.83-.25-.7-2.41-2.06-4.39-1.92-7.01h3.83ZM48.5,10.28c2.38-1.2.51-4.74,1.52-6.79-.13.17-.22.26.16-.29,1.52-1.32,2.64.83,3.15,1.9.85,1.8,2.4,2.93,3.57,4.48-.78.82-1.99.48-2.9,1.03-.79.47-1.6.93-2.48,1.22-.87.29-4.72-.68-3.02-1.54ZM50.19,3.19c-.06.09-.11.19-.16.29.13-.17.3-.41.16-.29ZM65.85,18.81c.61.14-.67-2.3,0,0h0ZM59.77,8.61c2.62-.18-.38-2.18,0,0h0ZM52.42,92.13c-2.06-1.35-.09,1.15,0,0h0ZM63.29,105.2c-.03-.93-1.63-2.35-2.13-3.17-1.85-3.05-4.53-5.48-6.31-8.6-.68-1.18-.74-1.78-1.77-2.7-.93-.84-1.53-1.67-2.1-2.77-.81-1.56-1.79-3.03-2.96-4.33-1.03-1.15-1.65-2.71-2.95-3.62-.5-1.18-2-1.51-2.24-2.87,2.91,1.36,6.31,0,7.16-2.99.44-1.56,1.51-1.59,2.02-2.91.5-1.31-1.15-2.71-1.82-3.67-3.32-1.36-6.27-3.46-9.62-4.76-1.36-.52-3.13-1.15-2.5-2.76.64-1.64.41-2.07,1.69-3.42,2.38-2.5,4.15-5.48,4.99-8.83-.32-3.19.76-6.07,1.17-9.11.41-3.1-1.34-5.38-2.45-8.1.41-.84,1.79.53,1.6-.64-.59-.96-1.59-.14-2.39-.55.55.13-.56-2.64-.17-.09-.88-5.67-8.06-7.75-12.15-10.2-1.84.16-3.37-.57-5.11-.96-1.72,0-2.72.28-4.33.81-3.32,1.11-6.85,1.59-10.06,3.01-2.15,0-3.19-.24-4.66,1.46-.93,1.07-1.71,2.26-2.36,3.51-1.61,3.05-2.59,6.39-3.52,9.69.18,1.62-.29,3.17-.32,4.78.17,1.56.43,3.11.66,4.66.35,2.42,1.65,3.87,2.4,6.23.69,2.16,1.92,4.34,3.14,6.35,1.68,2.78,4.57,3.9,7.86,4.11,2.08,2.12,5.15,3.83,8.15,3.83.34,0,3-.3,3.04.32-.22,1.64-.29,3.29-.32,4.94-.02,1.44-.64,4.76.26,5.95.75.99,1.47.94,1.16,2.36-.52,2.39-1.24,6.17,2.3,4.81.78-.3,1.52-.38,2.35-.21.18-.46.5-.78.96-.96.64-.22-.12-1.5.64-1.59,1.22.52,2.51.73,3.83.64,1.08-.11,1.23-1.38,2.24-1.59.47,3.5,3.57,6.84,5.45,9.73,1.98,3.05,4.06,6.55,6.47,9.23,1.55,1.73,2.77,3.64,4.36,5.39,1.22,1.35,3.09,2.57,3.83,4.17,1.2,2.62,4.96.18,6.12-1.39,1.45-1.95-.66-2.34-1.62-3.21ZM43.07,44.23c.08-.21.18-.48.27-.62-.02-.06.04-.13.09-.08-.02-.01-.06.02-.09.08.01.04.05.07.14.07-.1,0-.29.32-.41.55-.06.17-.11.3-.11.26,0-.01.05-.12.11-.26ZM23.97,22c.16.17-.23.41-.32.32-.17-.17.23-.41.32-.32ZM25.25,56.74c.34-1.03,2.09-.69,2.87-.96-.04-.71-1.53-.19-1.92-.32.06-1.1,1.34-1.39,1.28-2.55-2,.27-2.76,2.02-4.15,3.19-1.05-.82,2.29-3.89.96-5.42-1.66.67-2.51,2.29-3.2,3.83-2.39-.98-.23-4.51-.64-6.38-.19-.54-2.98,1.41-2.88,2.23-1.3-1.13-.35-2.66-2.76-1.16-1.06.66-2.3,2.28-2.96,3.31-2.26,3.51,2.4,2.86,3.81.71.51.35-.04,1.82-.07,2.22-.16,1.9-.52.21-1.21,1.6-1.84-.65-3.47-1.76-4.79-3.19,2.72-1.78,4.57-5,3.84-8.29-2.2.38-3.18,3.34-4.22,4.87-.87,1.28-1.83.32-1.01-.78.51-.69,1.19-1.17,1.63-1.95.41-.74,3.84-7.67,1.56-6.86-2.02.72-3.57,4.75-4.03,6.63-1.79-.46,3.57-9.99,3.52-11.79-2.99.64-3.89,3.67-5.12,6.06-1.97-1.2,1.07-6.75,1.41-8.16.41-1.66.75-2.37,1.42-3.92.49-1.15,3.12-1.93,4.29-2.49,1.65-.79,3.4-1.32,5.06-2.13.92-.46,1.84-.99,2.52-1.79.68.06,1.36.03,2.04-.09,2.88-.57,6.2.39,8.92,1.4,5.32,1.99,9.45,6.4,9.18,12.4,3.93,6.87-1.72,15.87-6.4,21.04-1.82,0-3.63.5-5.43,0,.34-2.52-2-1.4-3.52-1.28ZM36.44,74.6c-1-1.46-.97-3.39-2-4.83-1.22-1.71-2.13,1.09-1.19,1.64-.16,1.3.96,2.34.96,3.51-.3.71,1.29.57,1.22.79-.66,2.25-2.04.34-3.77.81-.33-3.4-.51-6.81-.76-10.21-.06-.84.22-2.85-.62-3.39-.56-.36-.77-.65-.54-1.38,1.4.62,3.9.44,4.47-1.28,1.09-.19,1.57,1.66,1.94,2.4.78,1.54.24,2.32,2.12,3.15,1.21.53,2.66.8,3.61,1.78-1.42-1.46,2.26.62,0,0,2.11.58,3.76,2.05,5.75,2.87-.76,1.15-1.2,2.55-2.24,3.51-1.19-.12-2.36-.34-3.54-.47-1.74-.2-4.15-.41-5.41,1.11ZM45.73,85.86c-1.11-1.47-2.55-2.55-3.62-4.01-.74-1-1.55-1.96-2.48-2.79.04-.34.15-.66.32-.96,2.33-1.6,10.29,12.6,12.47,14.03-.07.97.59,1.62.64,2.55-2.52-2.79-5.08-5.82-7.33-8.82ZM61.05,106.47c.17-.49.33-.02.32.32-.57.09-.66-.3-.32-.32ZM34.2,58.02c3.08-3.41-2.18,0,0,0h0ZM95.95,99.47c-.02-.11-.04-.21-.05-.33.01.27.03.35.05.33ZM75.36,49.65c.33-.15.74-.66-.24-.24-.02.09.08.17.24.24ZM113.07,41.53c-1.64-1.68-2.93-2.39-5.19-3.12-3.55-1.14-8.73-2.35-11.68.38-2.65,2.46-6.46,6.2-5.99,10.16.25,2.08,1.22,4.58-.07,6.51-1.82.63-4.48.13-5.96.91-1.28.68-2.79,2.24-4.24,2.53-1.46.3-1.94-2.79-2.31-4.1-.43-1.46.17-3.67-.78-4.68-.19-.2-1.06-.31-1.49-.48-.17.08-.32.06-.24-.24,1.51-.65,2.52-1.91,2.88-3.5.16-1.31-.72-2.01-.96-3.19.97-1.03.29-3.3-.46-4.11-1.49-1.62-2.21-1.63-4.34-1.63-1.25.71-2.07,2.91-3.4,2.08-.87-.55-2.06-.51-3.01-.22-2.41.75-1.14,4.51.33,5.79-2.05.6-3.64,3.69-4.26,5.54-1.02,3.02,5.31,2.05,6.82,2.11.29,4.02-.35,8.03-.3,12.05.04,3.64.74,5.72,3.83,7.76,2.19,1.44,4.3,3.62,6.3,5.24,1.49,1.21,3.66,3.02,5.48,3.6,2.77.87,2.91,5.52,3.46,8.04.7,3.11,1.34,6.23,2.26,9.29.76,2.54.77,6.44,2.87,8.38,1.26,1.17,5.99-1.13,6.12-2.6.15-1.79.11-3.04.02-5.05-.12-2.97-1.19-5.33-2.1-8.15-.92-2.89-.76-6.29-2.37-8.9-.44-1.56-1.42-2.4-.96-4.01.37-1.29.36-2.65.64-3.96.28-1.54,1.14-2.89,1.28-4.46,1.09-.16,1.67-.97,2.35-1.73,1.05-1.17,1.25-6.01,1.48-7.84,1.92,1.23,2.72,2.22,5.2,1.68,2.45-.53,3.85-1.21,5.94-2.79,3.62-2.73,3.88-6.18,3.88-10.55,0-2.23.58-5.07-1.05-6.74ZM66.49,40.17c1.52.09,2.19,1.01,2.56,2.23-1.43,1.09-3.2-1.26-2.56-2.23ZM94.4,93.7c.65,1.79,1.86,3.4,1.5,5.44.2-1.1.11.25.05.33.2.91,1,1.51.91,2.54-1.19.14-2,1.13-3.19,1.28-.79-2.17.45-4.63-.64-6.44-.65-1.08-.47-3.3-.78-4.73-.53-2.43-1.49-4.73-2.2-7.11-.25-.83-.25-2.51-.98-3.08-.45-.36-.89-.59-.84-1.27.86.04,3.09-1.17,3.2,0,.97,1.98,1.29,4.24,1.62,6.4.33,2.23.58,4.52,1.36,6.65ZM110.86,50.14c-.29,3.87-1.55,5.77-5.05,7.46-1.2.58-4.62,1.41-4.41-.95.1-1.04-.71-2.53-2.2-1.96-2.54.98-2.93,5.25-3.55,7.38-.44,1.52-.34,2.97-1.52,3.83-.72.52-1.1,1.59-1.41,2.46-.51,1.46-.97,2.9-1.54,4.34-.55,1.42-.32,3.14-1.37,4.45-1.26.16-1.78-1.5-3.37-1.53-1.49-.03-2.7-.66-3.98-1.34-.39-1.68-3.45-3.27-5.1-4.34-1.97-1.27-2.6-2.22-3.58-4.39-.78-1.71-1.04-3.48-1.04-5.35.02-2.77,1.87-8.93-2.43-8.55,1.42-3.08-3.46-2.38-5.12-2.23.84-1.92,2.39-3.32,3.93-4.68,1.77-1.57,1.09-3.13,2.46-4.88-.61.78,1.01-.05.21-.02,3.83-.46.59,2.89,2.87,4.22,1.27.74.68,2.04-.12,2.9-1.46,1.58.31,1.4.23,2.78-2.49-.21.06,6.17.31,7,1.04,3.41,2.04,6.44,6.16,4.88.89-.34,1.7-.82,2.48-1.36,1,.06,1.99,0,2.98-.15,1.48-.22,2.88-.42,4.37-.17,2.15-.31,1.82-5.72,1.55-7.18-.45-2.47-1.03-4.71.28-7.01.87-1.53,2.13-2.78,3.26-4.12,2.36-2.79,6.91-1.65,9.97-.74,2.15.64,3.44,1.2,4.75,3.11.04,2.05.09,4.1-.07,6.15ZM105.59,44.27c-.3,0-.79-.07-.75-.28-.32,1.36,1.24,6.15,3.2,6.06,3.04-.69-.38-4.68-2.45-5.78ZM104.85,43.99c.21.03.47.13.75.28.35,0,.45-.11-.75-.28ZM94.3,52.92c.03.87-.53.64,0,1.28,1.23.25,1.23-1.53,0-1.28ZM93.18,64.4c.17-.01.33-.01.49,0-.21-.02-.36-.02-.49,0ZM93.18,64.4c-2.74.2-7.41,3.62-4.95,6.38,1.11.06,1.92-1.98,2.47-2.75.7-.99.74-1.45,1.82-1.9.73-.3,1.07-.98,1.15-1.73-.1,1.02-1.39.12-.49,0ZM42.83,69.18c0,.17-.03.31-.08.44.04.26.09.34.08-.44ZM42.73,69c.05.06.08.12.1.18-.05-.17-.08-.21-.1-.18ZM42.75,69.61c-.03-.21-.05-.55-.02-.61-.77-.97-5.24-2.42-5.01-.78.42,1.27,4.45,2.92,5.04,1.39Z"/>
    </g>
  </g>
</svg>