<?xml version="1.0" encoding="UTF-8"?>
<svg id="Layer_2" data-name="Layer 2" xmlns="http://www.w3.org/2000/svg" viewBox="0 0 108.64 105.44">
  <defs>
    <style>
      .cls-1 {
        fill-rule: evenodd;
      }
    </style>
  </defs>
  <g id="food_icons" data-name="food icons">
    <g id="cans">
      <path class="cls-1" d="M50.25,74.85c.07-.6-.29-.39-.28-.19.06.1.14.18.28.19ZM62.08,57.63c2.49-.17.52-5.86,0,0h0ZM101.08,60.82c-.46-.33-.96-.61-1.47-.86.56.5,2.1,1.65,1.47.86ZM45.14,74.53c.19-1.19-.62-.55,0,0h0ZM83.18,98.76c.5-.03.06-.26,0,0h0ZM86.17,94.39c.1.13.18.29.2.54-.06-.62-.15-.67-.2-.54ZM108.62,84.62c-.21-2.27-.11-4.55-.36-6.81-.23-2.02-.52-4.33-.48-6.35.02-1.01.38-2.93-.63-3.62,1.5-2.05,1.14-2.46.05-4.48-.61-1.13-.18-1.3-1.21-2.25-.79-.73-1.46-1.58-2.35-2.2-4.35-1.47-9.1-1.56-13.64-1.92-4.96-.39-9.67-.72-14.65-.48-4.48.22-8.79.82-13.26,1.12,1.13-12.78,2-25.91.89-38.72-.26-3.06-.69-6.13-1.53-9.1-.06-1.28.32-.98.32-2.39,0-1.33-.79-1.19-.64-2.39C58.78,1.56,52.52.36,48.64.2c-10.18-.41-20.35-.38-30.34,1.9-4.41,1.01-10.48,2.8-13.94,5.54C2.81,8.87,1.04,9.95.06,11.73c-.34,1.54.84,2.64.64,4.14-.26,2.36.32,4.84.25,7.23-.07,2.53-.14,5.06-.2,7.58-.12,5.1-.18,10.21.05,15.31.07,1.54.44,3.24.03,4.75-.28,1.03-.73,1.97-.77,3.06-.12,1.28,1.69,1.06,1.28,2.55-.35,1.49.4,3.6.21,5.25-.27,2.43-.13,4.85-.25,7.29-.25,5.05-.79,10.15-.7,15.21.07,4.2,4.6,6.27,8.19,7.37,9.14,2.8,18.82,3.75,28.31,2.5,3.64-.48,1.69.36,3.62,2.16,1.45,1.35,2.96,2.43,4.7,3.47,4.54,2.7,9.07,3.29,14.16,4.3,5.08,1.01,10.43,1.8,15.62,1.44,1.86-.13,12.57.13,13.09-2.14-2.12,0,2.63-1.53,3.11-1.68,2.57-.8,4.15-1.35,6.38-2.88,1.9-1.31,4.41-2.02,5.93-3.65.78-.83,1.7-1.5,2.58-2.21,1.29-1.04.72-1.72.92-3.23.27-2,1.62-2.69,1.41-4.95ZM73.41,58.29c4.9-.45,9.65-.51,14.53-.23,3.69.21,8.18.22,11.67,1.91-.4-.36-.31-.4,1.47.86.9,1.12,1.63,2.38,2.16,3.71.68,1.67-.46,1.75-1.72,2.58-2.29,1.52-3.87,1.93-6.51,2.08-5.55.33-11.05,1.41-16.59,1.97-5.67.58-12.53.73-18.12-.39-5.24-1.05-10.91-1.27-15.8-3.58.94-4.53,9.18-5.45,12.81-6.39,5.28-1.37,10.69-2.02,16.1-2.52ZM88.93,71.98c0,.31-.39.25-.64.32,0-.31.39-.25.64-.32ZM5.61,9.82c.89-1.28,2.7-1.43,3.73-2.55,5.03-1.09,9.72-3.07,14.83-3.86,5.42-.83,10.96-1.24,16.39-1.24,3.05,0,5.98-.06,8.98.59,1.83.4,3.32.45,5.19.69,1.54.9,5.54,2.06,3.94,4.31-1.01,1.42-2.94,1.7-4.33,2.6-1.8,1.16-5.4,1.17-7.6,1.7-3.2.09-6.39.31-9.57.58-5.42.46-11.3,1.1-16.7.55-2.52-.26-5.14.11-7.62-.49-.9-.14-1.83.05-2.73.05-.88,0-1.35-.54-2.18-.6-1.27-.08-3.88-.09-2.33-2.32ZM40.03,67.08c.03.47.24.83.63,1.08-.28.43-.4.9-.34,1.41,0,.98.07,1.78.25,2.74.12.61.63,5.28,1.04,5.41-.5.5-1.52,0-2.14.2-.92.31-.6,2.08.59,1.58,2.08-.86,1.44.56,1.51,2.31.07,1.94.35,3.86.37,5.8.04,3.08-8.25,2.91-10.65,2.65-1.09-.12-2.34-.69-3.42-.32-.51.26-1.04.43-1.61.52-.82-.84-2.08-1-3.2-.96.82-1.48-1.27-4.14-1.72-2.18-.07.28-.69,2.65-1.43,1.27-.3-.55.52-1.08-.04-1.65-.51.21-1.04.28-1.59.24-1.28-.11-2.4-.86-3.65-1.13-.67-.15-1.93.36-1.93-.59.08-.39.04-.77-.14-1.12-.89-1.02-.43.05-.37-1.23-.19-.66-.62-1.09-1.28-1.27-.04-1.49.45-1.4-.64-2.55-.03-.43,1.16-3.36.37-3.35-.76.02-.71,1.84-1.6,1.67-.49-.09.22-3.1.22-3.66,0-2.49.44-4.98-.27-7.42,0-.33,1-3.2.71-3.12-.34.1-1.93,1.88-1.99,2.16-.78-.45,5.25-14.27-.32-6.38-.61-.22,1.9-7.23,2.24-7.97-.39-.52-2.75,3.7-2.88,4.14-1.73-.1,4.18-10.81,4.8-12.01,1.17-2.26-1.4-2.44-2.06-.29-.56,1.81-1.86,3.82-3.06,5.28-1.89-.36.89-8.13,1.33-9.09.69-1.54,1.17-2.05.36-3.42-.27-.46.7-2.21.88-2.79-1.03-.34-2.26,1.55-2.88.96.11-1.83,1.32-2.9,2.3-4.29,3.44-4.9-2.19-.5-2.62-.81.19-2.06-.75-5.04.5-6.87.63-.92.27-4.19.14-5.56,3.99-.18,7.85,1.08,11.72,1.74,2,.34,4.01.54,6.03.8,1.73.22,3.29-.19,4.96.02-.2-.81-1.33-.75-1.92-.96.26-.79,4.73-.32,5.44-.32,2.56-.65,5-1.26,7.63-1.25,2.56,0,5.36.03,7.76-.99,1.43-.61,2.4-.94,3.94-1.33.17-.04,1.76-.24,1.77-.89.99.94,2.67.62,3.84.32.39,2.47.45,4.96.52,7.45.03,1.23.07,2.46.16,3.69.12,1.56,1,2.47-.85,2.71-4.45.58-8.87,1.38-13.33,1.83-8.87.89-18.28.91-27.1-.38-1.9.99-3.08.48-1.92,3.19.88.22.87-.36,1.53-.63.84-.34,2.51.39,3.33.57,4.44.98,8.81,1.39,13.37,1.64,2.51.14,4.82.07,7.25-.49,1.89-.44,3.98-1.73,5.85-1.73,2.22,0,4.54-.78,6.71-1.27,1.92-.23,3.99-.4,5.75-1.28.1,1.95.85,3.75.64,5.74-.3-.24-.41-.56-.32-.96-1.24,1.27-.23,6.57-.18,8.15.1,3.16.17,6.32.2,9.47.01,1.84.01,3.69,0,5.53-.02,2.01-.51,1.43-2.22,1.91-1.59.45-2.57.84-4.04,1.55-.92.44-1.89.99-2.93.71-2.22-.59-5.36.31-7.22,1.92-.91.79-2.93,2.9-2.78,4.11ZM45.14,74.53c-.76-.67-.67-1.99-.64-2.87.97-.07,1.62.59,2.55.64-.54.87-1.74,1.09-1.92,2.23ZM48.65,76.44c-.29.11-1.52,1.07-1.9,1.46,0,.05-.01.09-.02.14-.08.03-.1.03-.09,0-.27-.15.17-1.8.1-.12,0,0,0,0,.01-.01.19-1.83,2.03-3.37,1.26-5.28,1.9.2.34,2.71.64,3.83ZM49.97,74.66c-.24-.41.07-1.41-.03-1.73.49.54,1.42.1,1.92.64-.27.74-1.5.39-1.6,1.27-.22-.01-.28-.1-.28-.19ZM52.49,97.16c1.27-.41.77.93,1.6.96-.47.85-1.75-.13-1.6-.96ZM83.18,98.76c.14-.61.37-.64.96-.64.15.68-.53.61-.96.64ZM88.29,97.48c.03.39-.47.2,0,0-.03-.38.46-.2,0,0ZM104.7,87.52c-.06.9-.42,2.13-1.38,2.63-.56.29-.99.71-1.28,1.27-.56-.11-1.13-.19-1.7-.24-1.28.06-1.79,1-2.16,2.05-.39,1.12-1.21.93-2.22,1.37-.52.22-2.57,1.71-2.87.96-.35-.86-.16-1.33-1.32-1.39-.96-.05-2.26.21-2.83,1.07-.6-.59-1.8-.32-2.55-.32.03.38-.46.2,0,0-.27.11-.27-.37-.2-.54-.88-1.06-4.29,1.81-4.59,2.45-1.75-1.7-4.48,1.69-6.27,1.56-1.22-.09-1.12.23-2.38-.67-.64-.46-1.55-.53-2.26-.54-2.77-.05-4.26-.42-4.44,2.52-.8-.73-2.46-1.79-3.51-.96-.85-.97,1.19-1.95,1.28-2.87-2.01-.13-3.65.58-5.11,1.91-.9-.62.77-1.46.64-2.23-.72-.16-5.84,1.58-4.7-.03.43-.61,1.08-1.11,1.21-1.89.25-1.52-.91-.26-1.62-.63.26-.8.88-1.35.96-2.23-1.1.16-3.15,1.03-3.52-.07-.41-1.19-.38-2.52-.35-3.76.06-2.75.13-4.1,1.37-6.42,1.61-3.02-1.55-1.69-2.62-2.51-.19-1.13,2.08-3.41,2.88-4.14,6.21,1.17,12.61.45,18.88,1.01,5.33.48,11.36-.14,16.69-.9,2.51-.35,5.13-.93,7.27-2.35,2.6.17,4.5-1.49,6.96-1.84,1.82-.26,1.21,2.36,1.32,3.78.13,1.66.27,3.32.38,4.99.19,2.98.26,5.96.07,8.94ZM53.77,13.32c0,.42.89.85,0,0h0ZM54.73,3.44c-1.55-.2,1.55.9,0,0h0ZM46.64,78.03s.05.02.09,0c0-.05,0-.08,0-.13-.06.06-.09.1-.1.12ZM23.72,5.99c1.92-1.92,5.65-.45,7.51-2.02.01-.13.25-.54.48-.53-1.35-.06-2.76,0-4.26-.04-1.95-.05-3.94,1.27-5.84,1.67-.84.17-8.97,1.79-7.8,3.47,3.31-.9,6.46-2.24,9.91-2.55ZM31.23,3.97c0,.1.12.03.48-.53-.14.21-.31.38-.48.53ZM12.17,11.77c3.19-.2,6.37-.68,9.7-.42,4.06.32,8.04.09,12.1-.09,4.15-.19,8.49-.03,12.51-1.23,1.53-.46,3.3-.82,4.72-1.38,1-.39,2.74-.54,2.56-2.02h-1.28c.32,0-1.44.42-1.15.32-3.91,1.11-7.68,2.49-11.76,2.84-4.07.35-8.16.28-12.23.19-4.54-.1-9.09-.26-13.63,0-.71.04-5.31.06-4.63,1.1.29.44,2.58.71,3.08.68ZM51.34,6.95c.38-.11.76-.22,1.15-.32-.72.19-1.05.28-1.15.32ZM13.81,31.17c1.26-.2-.21,0,0,0h0ZM31.77,82.17c-2.95,0-5.91,0-8.86,0-1.45,0-2.71.22-3.81-.91-.83-.85-1.02-.37-1.99-.93-1.17-.68-2.71-2.53-2.97-3.9,2.99.19,1.27-8.49,1.39-10.47.25-4.38.65-8.61.53-13.03-.13-4.59-.46-9.18-1.19-13.72-.15-.94-.19-8.17-1.04-8.04-2.44,0-1.26,4.46-1.35,6.03-.2,3.85-.29,7.7-.31,11.56-.03,7.36.18,14.72.48,22.07.08,1.93.44,3.99-.11,5.84-.43,1.42-.86,2.93.55,3.53,1.35.57,2.26.49,3.06,1.57.75,1.01,2.01,1.66,3.18,1.96,3.52.9,7.13,1.51,10.75,1.65.73.03,9.06-.01,7.07-1.92.72-.09,1.91-.1,2.24-.96-1.57-1.21-5.74-.32-7.62-.32ZM52.49,33.41c.11.22.19.45.26.68.03-.04-.02-.22-.26-.68ZM21.8,42.33c1.77,1.01-.17-.57,0,0h0ZM50.3,52.37c1.83-.36,4.12-.55,3.79-3.03-1.08-1.78-3.99-1.54-5.75-1.59,2.1-1.85,2.81-4.71,3.32-7.27.37-1.87,1.62-4.37,1.09-6.39-.08.09-.63-.68-.26-.68-2.96,0-2.07,2.44-3.68,4.3-2.05,2.35-3.48,4.82-6.16,6.61-2.28,1.52-7.26.57-9.97.57-2.55,0-5.41-2.86-7.38-4.43-1.56-1.24-2.89-4.51-5.09-4.49-2.35.33-1.99,3.62-1.73,5.27.43,2.84,2.93,4.67,5.14,5.92.57.32,2.57,1.1,2.35,1.88-1.88,0-3.68.04-5.26,1.21-1.86,1.38.71,2.67,1.91,2.85,1.12.17,2.29.13,3.41,0,2.03-.23,1.66.26,2.36,2.19,1.01,2.8,2.17,5.55,3.01,8.4-1.52-1.07-3.05,1.22-2.77,2.33.47,1.88,2.49,2.21,4.15,2.15,1.92-.08,3.78-.59,5.65-.97,1.73-1.76,2.79-3.74,3.24-6.07.51-2.64,1.34-5.3,2.92-7.5,1.46-2.04,3.36-.79,5.72-1.25ZM21.8,42.33c-.96-3.09.48-1.22,1.86.06.86.8,3.24,1.86,3.58,3.13-2.51.76-3.63-2.16-5.44-3.19ZM31.71,66.24c-.84.1-1.05-.44-.96-1.27.84-.1,1.05.44.96,1.27ZM43.54,50.3c-.45.52-.86,1.06-1.24,1.63-1.01,1.48-1.78,3.11-2.39,4.79-.67,1.85-1.14,3.76-1.48,5.7-1.32.02-2.9-.24-4.15.32-1.54-3.19-2.61-6.68-3.91-9.97-.24-.59-2.05-4.33-2.42-4.93-.16-.01-.21-.04-.07-.09,1.35-.04,1.95-.05,2.11-.03,4.63,0,9.29.38,13.88-.29-.32.93-.4,1.9-.32,2.87ZM46.41,49.66c.06-.36.32-.18.32,0-.06.36-.32.18-.32,0ZM47.67,43.32c-.02.18-.09.51-.26.9-.48,1.12-1.47,1.84-2.6,2.25.07-1.69,1.52-1.99,2.48-2.79.03-.12.31-.54.38-.45.01-.11,0-.12.02.05,0,.01-.02.02-.02.03ZM49.29,49.66c-.06.37-.59.27-.96.32.05-.37.58-.27.96-.32ZM29.98,47.72c-.7,0-1.41,0-2.11.03,0,0,.03.03.07.09.55.04,2.4-.08,2.04-.12ZM47.67,43.31s.02-.02.02-.02c0-.02,0-.04-.02-.05,0,.02,0,.04,0,.08ZM47.3,43.69c-.02.07.07.02.37-.37,0,0,0,0,0,0-.11.14-.24.26-.37.38ZM36.5,52.21c.31,1.87,3.3,2.02,3.2-.32-.58-1.47-3.1-1.65-3.2.32ZM34.53,52.78c.06.18.12.16.06-.57.02.19,0,.38-.06.57ZM34.51,52.09c-1.29-2.18-4.17-.77-3.23,1.68.68,1.79,2.86.49,3.25-.99-.09-.25-.18-.89-.02-.69ZM50.52,65.01c.73.04,1.22-.76,1.97-.68.85-.89,3.92-1.31,5.08-1.7,4.85-1.65,10.26-2.15,15.39-2.76h9.51c2.23,0,4.41.89,6.69,1.06,2.99.22,5.02.2,7.68,1.65.52.28,2.02.83,1.75,1.67-.02.08-.71.87-.6.95.02,0,.04,0,.06,0,.2-.03.72-.04.58.04,2.61-.85-.91-3.3-1.96-3.85-2.13-1.14-4.1-1.12-6.51-1.28-5.36-.36-10.33-1.42-15.74-1.02-4.8.35-9.24,1.4-13.96,2.02-3.47.46-6.38,2.09-9.65,2.68-.59.11-1.59,1.15-.28,1.22ZM98.52,65.28c-.16-.03-.32-.05-.48-.08-.15.02-.12.06.48.08ZM95.96,65.28c-.08.21-.21.39-.38.55-.03.24.07.29.38-.55ZM91.33,66.12c-1.84.55-3.73.94-5.6,1.39-4.54.26-9.09.27-13.64.17-4.51-.1-9.02-.32-13.54-.49-1.15-.52-3.02-.8-4.27-.59-.99.17-1.32,1.72-.15,1.81,2.15.17,5.62.21,7.61,1.02,1.49.61,4.51.05,6.12.01,2.16-.04,4.32-.14,6.48-.21,3.89-.14,9.09.93,12.73-.16,1.85-.55,1.9-.26,3.36.11,1.58.4.49-.73.5-.89.08-1.03,3.41-1.27,4.64-2.46.03-.25.19-.69.38-.55-1.35-.98-3.29.44-4.63.84ZM23.95,71.94c-1.07-.16-2.22.17-3.17.65-2.08,1.06-.27,6.82,2.26,4.36.81-.79-.02-1.08-.53-1.64-.52-.57.73-1.27.91-.43.26,1.2,2.41,3.56,3.82,2.19-.06,3.93,3.54.31,4.47-.64.53,1.19,1.09,2.67,2.48,1.51.6-.5-.02-2.1-.17-2.98-.22-1.33-.72-2.67-2.31-2.67-1.23.52-1.21,2.14-2.24,2.87-.72-.36-.56-1.4-1.6-1.28-.8.12-1.06.95-1.92.96-.55-1.31-.18-2.64-2.01-2.91ZM25.96,74.85c.95,0-.37-.89,0,0h0ZM37.46,77.72c2.46.26,1.64-4.22,1.28-5.74-2.75-.53-2.19,4.61-1.28,5.74ZM99.03,85.17c-1.42-.89-3.4-1.08-4.67-2.04,1.89-1.41,5.74-4.47,3.1-7.1.16.23-.67-.23-.23-.23-2.17,0-3.78,1.59-5.01,3.37-.55.79-1.19,1.54-2.02,2.05-.23-.48-.6-.71-1.13-.69-1.24.02-3.36-.12-4.48.22-1.74.53-3.54-.68-5.26.15,1.49-1.47-.42-3.51-2.09-2-1.18,1.06-1.34,2.11-3,2.61-1.95.59-4.27.57-5.96,1.57-1.68,1-3.67,1.53-5.49,2.23-1.18.46-3.63,1.88-2.12,3.33.75.72,1.8.67,2.68.24.26.75,1.15.91,1.82,1.06,1.82.42,3.64,1.27,5.54,1.49,1.18-.12,4.71-.03,5.32.92.28.44,2.84,1.85,3.63,1.95,1.59-1.68-.22-2.93,3-3.07,3.57-.15,4.02-3.31,6.63-4.79,2.35-1.33,2.25,1.42,3.92,2.17,1.64.73,3.76,1.36,5.48.5,1.2-.6,1.49-3.21.34-3.93ZM66.65,87.41c.25.26.07-.6-.05-.8-.05.21-.07.43-.05.67-.07-.69-.02-.79.05-.67.43-1.85,3.37-2.45,3.88-.26.7,2.97-2.48,2.91-3.84,1.06ZM94.36,87.6c-.47-.17-.8-.47-1.28-.64.1-.68,1.51-.07,1.28.64ZM96.6,88.24c-.17-.17.23-.41.32-.32.17.16-.23.41-.32.32ZM97.24,75.8c.09.08.15.15.23.23-.03-.05-.09-.11-.23-.23ZM24.04,87.6c.38-.05.91.06.96-.32-.37.05-.91-.05-.96.32Z"/>
    </g>
  </g>
</svg>