<?xml version="1.0" encoding="UTF-8"?>
<svg id="Layer_2" data-name="Layer 2" xmlns="http://www.w3.org/2000/svg" viewBox="0 0 122 112.54">
  <defs>
    <style>
      .cls-1 {
        fill-rule: evenodd;
      }
    </style>
  </defs>
  <g id="food_icons" data-name="food icons">
    <g id="carrot">
      <path class="cls-1" d="M93.63,10.67c-.25-.02-.45-.08-.64-.16-.43.03-.54.09.64.16ZM94.21,10.52c-.17.08-.36.14-.57.16.76-.08.8-.13.57-.16ZM82.38,9.81c.24-1.22,2.08-.37,2.21.68.12.98-.25,4.14,1.7,3.03,1.54-.88,1.33-3,.95-4.41-.43-1.63-1.07-2.08.02-3.42,1.39-1.7,4.21-3.08,4.56.07.14,1.3-.29,4.06,1.18,4.75.37-.02.96-.03,1.21,0,2.01-.89,1.02-5.11,1.15-6.74-1.88-3.03-4.18-4.92-7.8-2.98-1.4.75-2.23,1.62-3.2,2.83-.52.65-.97,1.32-1.12,2.17-.79.18-1.57.51-2.14,1.1-.67.7-1.97,2.32-1.03,3.31,1.07,1.13,1.39-.23,2.31-.39ZM109.79,8.95s.05.08.09.11c.23.01.54-1.62-.09-.11ZM121.35,19.14c.82-1.85.97-4.88-.16-6.45-1.35-1.86-3.44-2.76-5.78-3.26-.64-.14-4.84.2-5.53-.36-.03,0-.06-.03-.09-.11,3.69-8.85-14.13-10.31-13.81-3.88.13,2.46,2.09,1.19,3.28.37,1.36-.93,3.68-.69,5.23-.41,4.52.82,2.75,6.99,1.85,9.96,1.26-.09,1.89-1,2.7-1.83,1.09-1.12,2.52-.68,3.94-.53,2.61.27,5.51.79,5.16,3.92-.18,1.61-.94,2.68-2,3.91-.84.83-1.87,1.18-1.73,2.59,1.01,1.04,2.55.82,3.75.29.91.38.82,1.64,1.73,2.01.14-1.1-.47-2.06-.29-3.16.57-1.03,1.27-1.97,1.75-3.05ZM79.7,10.19c.04.24.07.5.08.77-.01-.43-.04-.66-.08-.77ZM70.84,14.13c.79,1.11,2.51,2.81,4.03,1.84,1.89-1.22-.2-1.73-1.19-2.52-1.23-.97-.65-2.99.63-3.48,2.25-.86,2.03.62,3.06,1.81,1.1,1.27,1.71-.45,2.42-.81-.45.23-.22-1.18-.08-.77-.71-4.09-6.15-3.36-8.57-.95-.57,1.85-.18,3.17-.29,4.89ZM97.67,22.19c-.11-.24-.17-.47-.2-.7-.02.11.02.32.2.7ZM98.34,22.43c-.21-.05-.44-.13-.67-.25.32.16.53.23.67.25ZM93.72,15.02c-.62,1.22-1.71,2.86-.43,4.16,1.83,1.87,2.27-1.56,2.65-2.47,1.52-.57,3.38-1.99,2.49,1.16-.34,1.19-1.14,2.36-.96,3.61.09-.5,1.64,1.06.87.95,3.38.87,3.8-5.62,3.19-7.65-1.13-3.81-6.31-2.74-7.82.24ZM74.43,29.28c1.72-.43,1.33-1.99.36-2.87-.82-.74-1.59-.49-1.35-2.22-.09.67-.22-1.19,0,0-.2-1.05,1.97-1.23,1.35-2.51-.24-.49.86-1.32,1.06-2.12.29-1.14-.17-.71-.11-1.69-1.96-.85-3.01-1.9-5.13-.3-1.64,1.24-1.5,2.44-1.5,4.33,2.37,1.84.32,8.63,5.32,7.39ZM99.95,29.48c-.1-.31-.19-.36.03.76-.06-.29-.06-.53-.03-.76ZM99.19,24.99c-.64,2.12,1.85.94,2.52,1.51-.33,1.34-1.62,1.71-1.76,2.98.11.32.23.9.03.76,4.02,3.02,5.7-3.68,4.18-6.51-1.28-2.37-4.37-.74-4.97,1.26ZM108.34,48.94c.07-1.15-.02-1.13-.09-.83.09.12.12.37.09.83ZM115.27,32.54c.16.76.82.88.86,1.92.03.95-.11,1.67-.65,2.47-1.03,1.54-3.34,1.03-4.1,2.26-1.21,1.94.91,1.97,1.56,2.88.93,1.31-.35,5.17-1.41,6.16-.5.47-3.44.83-3.18.72-.21.09-.17-.52-.09-.83-.37-.51-1.62,1.45-2.26.11-1.29-2.67-3.04,1.35-3.56,2.5-.92,1.98-2.12,3.27-4.46,3.11-1.06-.51-1.44-1.5-1.44-2.59,0-1.3-.42-.54-.48-1.28-.01-.16,3-1.23,3.34-1.48,1.06-.79,1.33-2.02,1.18-3.28-1.35-.52-1.41-1.25-3.15-1.04-1.74.2-3.45.57-5.14,1.04-6.9,1.94-13.69,4.27-20.56,6.33,1.97-3.26,6.6-5.2,9.33-7.67.65-.59,2.53-1.29,2.46-2.42-.03-.41-.6-.16-.33-.57.45-.68,1.02-1.3,1.6-1.91,1.54-1.63,3.15-3.19,4.83-4.68.88-.7,1.7-1.47,2.44-2.31.67-.75,1.43-.93,2.01-1.68.66-.84,2.31-2.33.68-3.16-1.48-.76-3.03.87-4.04,1.69-3.29,2.67-6.3,5.43-9.24,8.55-2.64,2.8-5.53,5.21-8.06,8.02-1.52,1.69-4.74,2.63-3.33,5.24.1.19-.3,1.75-.53,1.84-.37.15-.82.32-1.28.51-.32.57-.34,1.56-1.16,1.73-.7-1.91-2.32-3.04-3.1-4.65-.04-.09,3.36-1,3.63-1.24,1.6-1.45,3.03-3.07,4.41-4.74,2.77-3.35,5.3-6.86,8.05-10.21,1.63-1.98,5.34-6.02,3.75-8.8-1.34.23-2.01-.67-2.88,1.16-.75,1.6-1.51,2.98-2.58,4.41-.8,1.08-2.78,1.87-3.98,2.67-1.86,1.25-3.22,3.61-4.61,5.37-1.57,2-3.15,4-4.73,5.99-.79,1-1.58,1.99-2.37,2.99-1.16,1.46-1.12.73-2.53-.03-3.79-2.06-6.98-1.61-10.11,1.2-2.88,2.57-6.15,4.29-8.84,7.05-1.97,2.02-3.95,4.03-5.88,6.09-1.52,1.63-2.91,3.74-4.8,4.75-1.57.84-2.67,2.21-3.77,3.57-.97,1.2-1.93,3.14-3.23,3.98-1.02,2.16-2.73,3.88-3.87,5.96-.93,1.72-2.38,2.6-3.24,4.45-1.61,3.5-4.49,5.59-6.42,8.68-1.15,1.84-1.9,3.87-3.11,5.64-1.21,1.77-2.49,2.89-3.48,4.77-.96,1.82-5.07,6.91-2.67,8.75,1.55.27,3.34-1.65,4.47-2.54,1.48-1.17,2.96-2.56,4.67-3.4,3.55-1.74,6.62-4.19,10.18-5.96,4.23-2.1,8.85-3.57,13.19-5.45,3.46-1.5,6.5-3.46,9.9-5.09,3.27.42,7.52-2.69,9.92-4.62,2.79-2.23,6.05-3.53,8.82-5.93,5.46-4.74,13.56-14.2,8.05-21.53-.62-.82,4.24-1.46,5.07-1.7,1.9-.55,3.77-1.17,5.73-1.48,3.85-.6,7.69-2.75,11.45-3.87-2.55,5.97,5.25,6.69,8.94,6.91,0-.07,1.26-.89,1.39-1.01.72-.61,1.15-1.14,1.83-1.96.75-.91.77-2.23,1.68-3.07-.13-.78.07-1.44.8-1.79,1.39-.66.65.49.93,1.21.16.06,2.03,1.25,2.02,1.15,1.74.08,3.44-.54,4.64-1.82,1.34-1.43,1.94-3.43,1.94-5.35,0-1.03-.17-2.06-.51-3.03-.46-1.3.52-1.08,1.44-1.88,3.17-2.75,3.28-6.93.78-9.98-2.08-2.52-3.28.02-2.8,2.21ZM37.96,86.62c-.15-.15.21-.37.29-.29.15.15-.21.37-.29.29ZM64.38,68.17c-.9,1.53-2.35,2.61-3.34,4.07-.52-.81.73-2.14.89-2.92.31-1.53-1.19-1.88-1.99-.76-.69.96-3.47,5.4-1.21,5.12-.73.65-1.32,1.44-2.31,1.73.19-1.11.75-1.99.58-3.17.04-.81-.78-.68-1.15-1.15-.42-1.19-2.5-1.1-2.48.3.01.58.32,1.16.67,1.6.56.71.1,1.28-.23,2.11-.47,1.22-1.44,3.46-2.87,3.75.63-1.16,1.81-3.9,0-4.6-1.53,0-2.35,1.02-2.82,2.36-.53,1.51-.98,2.32.02,3.6.56.72-2.76,1.61-3.26,2.09-.58-.98,2.25-6.55-1.16-4.35-1.93,1.24-2.2,3.9-3.17,5.79-.92-.56-2.27-4.17-3.98-2.82-.97.78-.73,1.97-.34,3.11-.84.84-1.64,1.73-2.02,2.87-.89.12-.21-1.28-1.41-.67-.7.36-1.16,1.03-1.59,1.66-1.21,1.8-2.19,1.38-3.66,2.38-.86.58-1.94,1.01-2.29,2.09-.91-.56-1.06.29-1.71.69-1.13.71-.35-.06-.6,1.03-1.27.23-2.28.93-3.15,1.85-1.74,1.83-4.06,3.01-6.24,4.33-2.36,1.43-4.15,3.52-6.42,5.06-2.45,1.66.07-1.31.55-1.9,1.31-1.59,2.31-3.5,3.72-5.01.85-2.22,2.74-4.39,4.03-6.4,1.47-2.28,3.39-4.1,5.37-6.02,4.01-3.9,7.38-8.89,10.97-13.24,1.11-1.34,2.47-3.4,3.87-4.37.92-.64,2.44,3.31,3.33,3.9,1.6,1.05,4.15-1.32,3.3-2.93-.55-1.06-2.91-3.65-4.04-4.02,3-4.93,7.75-8.94,12-12.6,1.46-1.26,1.05-1.24,2.42.16.52.53,1.2,1.16,2,1.23,3.39.26-1.55-4.33-.56-4.61-.22.06,2.78-1.1,0,0,1.87-.74,3.64-.05,5.26.92,1.84,1.1,1.05,1.55.81,3.53-.23,1.94.35,2.37,1.14,3.9,1.03-.06,2.3.01,3.46,0-.56.55-.68,3.33.51,3.1,1.43-.28,1.24,2.27,1.42,3.41.41,2.54-1.3,2.04-2.34,3.81ZM104.01,44.62c.09-.96.77,0,0,0,2.56,0,3.53-.68,4.9-2.88,0-2.11.05-3.13-1.48-4.68-1.1-1.11-5.59-4.1-6.57-1.62-.15.39.15,3.6.8,2.47.47-.81-.04-1.16,1.29-.35,1.19.73,3.18,1.82,2.42,3.33-.57,1.15-1.24,2.43-1.37,3.72ZM49.09,59.94c-1.62,1.09,1.58,5.33,3.29,5.11,3.12-.36-.39-7.05-3.29-5.11ZM52.38,65.05c-1.66.22.86-.1,0,0h0ZM26.95,87.53c-.56-.81-1.69-1.33-2.59-.91-1.6.73-.19,1.87-.25,2.88,1.18-.12,1.94-1.17,3.17-1.15-1.08-.01-.7-1.03-.33-.82ZM26.95,87.53c.17.25.29.53.33.82-.07-.51-.2-.74-.33-.82Z"/>
    </g>
  </g>
</svg>