<?xml version="1.0" encoding="UTF-8"?>
<svg id="Layer_2" data-name="Layer 2" xmlns="http://www.w3.org/2000/svg" viewBox="0 0 79.81 107.77">
  <defs>
    <style>
      .cls-1 {
        fill-rule: evenodd;
      }
    </style>
  </defs>
  <g id="food_icons" data-name="food icons">
    <g id="champagne">
      <path class="cls-1" d="M62.07,15.39c-.16-.03-.32-.07-.49-.08-.09.09-.15.2-.23.29-.55.88,1.75.07.72-.22ZM7.55,50.7c0,1.38,1.21-.17,0,0h0ZM20.98,47.51c2.3-.46.48-1.75,0,0h0ZM39.61,50.49c-.1.08-.23.15-.41.21.27-.09.39-.16.41-.21ZM31.25,44.92c-.2-.12-.42-.22-.68-.27-.32.85.99.6.68.27ZM66.37,85.13c3.62.31,1.56-3.75,0,0h0ZM79.79,9.27c0-1.8-.35-3.54-.96-5.23-.57-1.57-3.27-2.81-4.78-3.5-2.5-1.14-8.91-.38-11.03,1.55-1.51,1.37-5.37,3.99-3.42,6.59,1.34,1.79,3.06,1.67-.26,3.13-.25,1.36-1.72,1.59-1.99,2.64-.81,3.2-4.57,5.37-4.09,8.84-1.9,3.5-2.99,7.41-5.16,10.77-2.02,3.13-6.22,4.9-8.78,7.74-.85.94-2.3,2.94-3.64,3.17-1.09-1.48-2.56-2.62-4.16-3.51.8-.99,1.52-2.02,2.88-2.23.87.65,1.73,1.37,2.77,1.72,2.5.82,2.8-1.43.71-2.38-1.57-.72-3.52-2.64-5.08-.79-.61.72-1.65,1.31-1.92,2.18-.22.7-.29,1.69-.96,2.15-.92-.53-.22-1.54-.95-2.13-.37-.18-.7-.42-.97-.74h-4.79c-3.02-.13-3.72,3.02-3.52,5.42-2.83-1.81-5.31,3.9-6.58,2.81-2.01-1.73-8.45-.08-8.45,2.61,0,1.57.63,4.61-.61,5.66-1.09.93-2.27,1.77-2.59,3.26.14,2.8,2.45,6.34,5.38,6.71,1.01.13,2.42.18,2.3,1.58-1.45.92-2.85,1.24-4.16,2.41-2.24,2-4.2,4.22-4.85,7.23-.79,3.68,1.89,6.29,4.96,7.9,1.6.84,3.33,1.4,5.1,1.72.96.18,1.81.18,2.78.18.17-.29.43-.49.76-.58.79-.11,3.88,17.58,4.03,19.39,2.32,1.72,5.9,1.38,8.58,1.07,2.83-.33,5.37-.24,8.22-.08,6.84.38,13.41,1.24,20.28,1.24,2.94,0,5.23-.62,6-3.72.72-2.91,1.85-5.74,2.68-8.62.5-1.76.92-3.61,1.87-5.19.99.22,1.93-.08,2.87-.32,1.91-.48,3.59-1.64,4.75-3.23,2.34-3.21,2.93-5.56,2.58-9.45-.24-2.68.26-5.65-2.09-7.31-1.17-.83-2.21-1.51-3.57-1.88-1.34-.36-.76-.89-.71-1.88.1-1.7,1.32-.96,2.64-1.13,1.23-.16,2.38-.62,3.43-1.26.84-2.69.24-4.2-.44-6.89-.63-2.54-6.37-1.39-8.51-1.39,1.29-1.48-.14-5.02-.36-6.66-.35-2.73-.92-5.35-.92-8.09,0-4.73-.4-10.35,2.24-14.58.69-2,1.17-3.95,1.88-5.93.47-1.3.36-2.55.36-3.95.37-.46,1.27-.28,1.77-.39.9-.2,1.01-1.89,1.51-2.57.72-1,1.61-.19,2.67-.34,1.85-.24,3.25-1.65,4.28-3.08-1.15,1.59-.13-1.91,0-.63ZM39.2,50.7c-1.14-.34.5-.43.41-.21.66-.51.1-1.45.87-2.02.79-.19,1.12.5,1.92.32-1.36,2.31-3.15,4.25-3.52,7.01-.43-.21-.85-.43-1.28-.64,1.71-.84.37-2.15-.3-3.17-.83-1.25,1-1.56,1.9-1.3ZM46.55,49.75c.55-.03.93-.04,1.2-.04,1.78-.03,3.57.14,5.26.67,2.42.77,3.44,1.43,3.07,4.09-.25,1.87-5.28,1.01-6.97,1.01-1.51,0-6.04.79-7.25-.09-.49-.36,4.47-5.43,4.69-5.65ZM21.94,41.78h4.47c.22,1.01.92,1.87,1.07,2.9.28,2.08-5.06,2.55-6.5,2.84.52-1.91,1.1-3.72.96-5.74ZM18.1,47.19c.07,1.66,2.7,6.88,4.34,7.52,1.82.72,2.35-.92,1.61-2.29-1.12-2.07-2.34-2.83.53-3.56,1.37-.35,2.03-.97,2.32.62.17.92.39,1.87.85,2.7.76,1.39,3.28,2.49,2.68-.04-.34-1.48-1.02-3.67-1.78-4.96.13-1.24,1.51-1.48,1.92-2.55.4.08.59.18.68.27.95.55,1.39,1.68,2.19,2.45.97.94.11,1.6-.61,2.68-1.12,1.68-2.79,6.71,1.26,4.8-.62,1.47-6.16.68-7.44.66-2.75-.04-5.4.04-8.11-.46-2.27-.42-2.32-.02-3.02-2.34-.3-1.02-.64-2.07-1.25-2.96.2-.41,3.3-2.58,3.83-2.55ZM7.55,50.7c1.49-.21,3.13-1.5,3.78.24.45,1.2,1.02,2.26,1.01,3.58-1.62-.12-3.2.12-4.8.32v-4.14ZM5.32,78.79c-.09-.07-.2-.18-.33-.35.04-.56.11-.91.18-1.12.66-2.81,2.81-4.59,4.61-6.85,2.17,3.24,2.74,7.38,3.2,11.16-2.64-.27-5.79-.77-7.67-2.84ZM18.74,83.22c-.17-.17.23-.41.32-.32.16.16-.23.41-.32.32ZM21.94,90.87c-.45.83-1.09,1.47-1.6,2.23-.85-.86.68-2.07,1.6-2.23ZM41.75,102.03c-.32-.96.71-.56,1.28-.64-.08.56-.55.73-1.28.64ZM72.5,74.89c.14,1.87.53,3.73.41,5.61-.19,2.89-3.88,4.86-6.53,4.62,1.78-4.28,1.85-9.16,2.24-13.71,1.79.41,3.76,1.76,3.89,3.47ZM69.57,59.63c-.12.49-6.22,1.23-7.25,1.58-1.42.48-2.95,1.06-3.94,2.25.33,1.2,2.68,1.27,3.54,1.18.32-.03,2.48-.84,2.57-.26-.04.43-.05.87-.03,1.31-.91-.15.27,1.74-.64,1.59.36.72,1.26.86,1.6,1.59-.21,1.05-.29,2.12-.32,3.19-.05,1.69-.11,3.21-.34,4.86-.49,3.33-1.23,6.77-2.28,10.08-.67,2.1-1.3,4.21-1.54,6.41-1.01,1.7-1.85,3.54-2.75,5.3-.81,1.59-.31,4.34-2.26,4.32-1.75-.02-3.46-.49-5.22-.37,1.03-.52,5.75-1.41,5.75-2.23-.44.3-2.81.05-2.95-.41-.42-1.4-2.55.02-3.45.09.86-4-1.67-1.05-3.52-.64-.13-1.11.88-1.73.64-2.87-.9-.15-4.12,1.93-4.79,2.55-.93-.09-1.65-.44-2.56,0-.31.52-.56,1-1.28.96,1.3-2.18,3.98-2.84,4.16-6.06-2.98.28-4.24,2.67-6.08,4.64-.46.5-3.43,2.6-3.51,2.39.01.04,2.92-2.95,3.19-3.2.04-.61,1.81-4.68,1.71-4.68-.37,0-1.04.46-1.07.86-1.17.6-.93,1-2.22,1.29-1.56.35-2.05,1.9-3.51,2.23-1.39.31-2.74,2.11-3.54,3.17-1.51-.82-2.93.37-4.48.32.03-.98,2.62-1.19,3.33-1.86,1.25-1.18,2.1-2.28,3.08-3.65,1.85-2.6,4.67-4.43,5.74-7.56-2.6,0-3.12,2.49-5.11,3.51-.74,2.5-3.54,3.34-4.8,5.42-.6-.48-.45-1.37-.96-1.91-.97-.08-1.95,0-2.88.32-.02.19-.73,1.29-.95.65-.06-.16,3.67-3.47,4.15-3.84.21-1.81,1.97-2.86,1.92-4.78-.64-.34-2.51.85-3.68,1.86-.03.04-.06.08-.08.12-.11.16-.71.65-.86.93.1-.24.45-.62.95-1.05.65-.91,1.68-2.2,1.95-3.4.58-2.51-1.87-1.73-2.97-.61-.9.91-1.81,1.88-2.32,3.11-1.41-.55.72-1.68,1.28-2.23-.56.55.3-1.4,0,0,.31-1.46,1.52-2.18,1.28-3.83.16-.76-1.73-1.01-1.92-.32-.94-.72,2.95-3.87,1.96-5.27-.98-1.37-.73-3.81-2.92-1.75-.78-.51.29-2.1,0-2.87-1.11.1-1.46,1.08-1.92,1.91-.84-.41.3-1.54,0-2.23-.6.31-.59,1.12-.96,1.59-1.18-.39-2.52-5.25-2.55-6.38,1.08,0,3.48-.46,4.42.12.46.28.48.9.85,1.26,1.15,1.12,1.77-1.3,2.72-1.37-.44,4.04,6.37-2.71,2.65-3.49-1.48-.32-2.93-.41-4.42-.79-1.19-.31-1.72,0-2.67-.78-.46-.37-.97-.66-1.53-.88-1.86-.77-3.9-.96-5.85-1.39-1.2.17-1.96,1.26-3.19,1.34-1.96.14-1.38-1.71-1.35-2.7.03-1.05,2.36.06,1.97-1.51,7.39,1.66,15.47,2.23,22.99,2.23h28.53c1.85,0,9.21-1.15,10.5.64ZM66.37,21.06c-.6,1.84-1.59,3.5-2.63,5.11-2.15,3.35-1.46,8.17-2.16,12.1.44,1.81.09,3.67.56,5.44.42,1.59.97,3.13,1.37,4.73.44,1.79.68,3.61.63,5.45-.75.88-.9,1.75-2.16,1.47-.47-.14-.92-.1-1.36.13,0-2.53.35-3.95-1.6-5.42-.21-2.92-3.45-3.36-5.7-4.09-2.34-.76-4.91-1.13-7.26-.23-.97.37-3.03,2.37-3.98,1.77.3-1.83,3.33-4.38,4.92-3.74,3.17,1.29,1.7-1.3,2.42-2.46.54-.87.65-.69,1.89-.5.91.14,2-.55,1.02-1.42-1.03-.9-1.6-.19-.82-1.93.65-1.45,1.39-2.86,2.09-4.3.3-.05,4.88,1.58,3.36-1-.44-.75-1.51-.64-2.09-1.23.53-1.3,1.12-2.57,1.56-3.91.71-2.2,1.01-5.14,2.55-6.78,1.22-1.3,1.3-3.26,2.37-4.64.05-.08.12-.18.23-.29.22.02.37.04.49.08,1.76.33,3.13,1.66,4.95,1.84.01.88-.66,1.19-.96,1.91.34.59.45,1.23.32,1.91ZM74,9.91c-2.56-.3-4.8.89-4.75,3.81-1.1-.04-7.23-2.13-5.65-3.19,1.82-1.22,1.3-2.67-.5-3.74-2.27-1.35,3.88-3.6,4.84-3.74,2.16-.3,3.72-.4,5.47.78,1.84,1.26,2.6,1.02,3.01,3.4.29,1.7-.64,2.87-2.42,2.67ZM5.17,77.32c-.08.36-.15.72-.18,1.12.1.13.22.23.33.35.92.74.26-2.62-.14-1.47ZM47.74,49.71c-.4,0-.8.01-1.2.04-.8.77,2.96,0,1.2-.04ZM73.4,3.84s.59.4,0,0h0ZM79.79,9.27c0,.21.02.42,0,.63.01-.29,0-.48,0-.63ZM12.35,46.24c.88-1.48-.39-2.58-.83-3.92-.66-2.05,5.94-.31,7.22-.54.81-1.99,2.4-5.32,4.8-5.74,1.97,1.26,3.74,3.2,6.12,3.09-.75-.13.94-1.46,1.2-.54-.37-2.15-5.1-4.78-6.95-4.5-2.99.45-3.43,3.42-5.48,5.14-3.93-.62-12.48-1.96-9.05,4.85.6,1.19,1.65,1.97,2.98,2.17ZM30.89,38.91c-.43.14-.84.21-1.23.23.2.04.58-.01,1.23-.23ZM53.91,37.31c-.61-.14-.8-.69-1.6-.64-.13,1.02,1.36,1.82,1.6.64ZM29.29,61.22c-.87,1.27-2.27,2.12-2.88,3.58-.52,1.22-.38,3.21,1.4,2.3.97-.5,1.96-5.54,1.53-5.85.07.21-1.1,1.51-.04-.03ZM37.84,66.39c.19-1.14.05-2.58-.74-3.5-1.09-1.27-.99.4-1.74.56.12-1.5-1.51-1.88-2.57-1.28-.68.38-1.83-.4-2.55-.95.42.33.25.65.11.49.23.5.75.8.84,1.42-.55.82-1.17,1.58-1.58,2.49-.41.94-.15,2.64,1.26,2.61,1.26-.29,1.28-1.93,1.62-2.9.12-.34,2.72-1.24,2.85-.93-.49,1.01-1.29,2.88-.08,3.59,1.5.88,2.32-.21,2.56-1.61ZM30.36,61.72c-.07-.14-.11-.3-.11-.49,0,.28.05.43.11.49ZM40.15,72.7s.05.02.08.03c.38.09,1.87.36-.08-.03ZM40.23,72.73c-.07-.02-.11-.03-.08-.03-1.42,0-2.01,4.43-2.53,5.76-.42,1.09-1.9,5.02.82,2.86,1.27-1.01,4.55-7.9,1.78-8.6ZM44.95,75.25c-2.47,0-4.44,3.2-4.86,5.65-.17.98.02,3.09,1.35,1.58.56-.63.55-1.64,1.28-2.13.36.67.76,1.08,1.6.96,1.72-1.79.56-.3,2.23-.64.31-1.65-1.05-3.88-1.6-5.42.25.71-.53,0,0,0ZM53.26,97.24c-.26,1.93,1.41,2.64,2.88,1.91-.31-1.28-1.24-1.96-2.88-1.91ZM56.46,100.43c.47-.2-.03-.39,0,0h0Z"/>
    </g>
  </g>
</svg>