<?xml version="1.0" encoding="UTF-8"?>
<svg id="Layer_2" data-name="Layer 2" xmlns="http://www.w3.org/2000/svg" viewBox="0 0 111.1 81.39">
  <defs>
    <style>
      .cls-1 {
        fill-rule: evenodd;
      }
    </style>
  </defs>
  <g id="food_icons" data-name="food icons">
    <g id="cheese">
      <path class="cls-1" d="M109.75,29.96c.65-1.02,1.41-1.52,1.34-2.7-.04.29-.55-.95-.46-1.02-1.82-2.05-6.49-3.1-8.75-3.9-3.14-1.11-6.12-1.96-9.16-3.3-2.03-.9-4.09-1.84-6.16-2.68-1.53-.62-1.23-1.55-2.38-2.23-3.15-1.83-6.84-3.3-10.17-4.88-3.47-1.65-6.52-4.77-10.3-5.76-1.51-1.01-3.23-1.64-4.85-2.45-2.01-.99-3.18-1.06-5.46-1.06-6.81,0-13.46,2.97-19.72,5.33-4.33,1.63-9.17,2.7-13.27,4.8-2.2,1.13-4.44,2.21-6.52,3.54-1.18.75-1.57.67-2.93.67-.69.72-1.51,1.29-2.32,1.87-1.08.76-2.17,1.56-2.93,2.66-1.05,1.53-.81.18-2.35.71-1.85.64-2.5,4.06-2.83,5.67-.86,4.13-.44,8.32-.44,12.36,0,9.91,3.7,20.47,8.15,29.25.99,1.95,1.61,3.84,2.7,5.71.94,1.61-.62,2.97,1.03,4.2,3.05,2.29,8.32,3.1,12.03,3.26,9.99.43,20.04,2.46,30.03.53,5.65-1.09,12.18-.19,17.96-.28,5.3-.08,10.36,0,15.64.35,5.24.35,10.42.59,15.58-.56,1.89-.42,3.24-.8,2.58-2.89-.5-1.59-.16-4.04-.2-5.77.2-1.59,1.8-6.06-.55-6.3-1.17-.12-3.04-.07-4.15-.42-.97-.3-.41-5.65-.41-6.67,0-.64.27-1.82-.52-2.17-.5-.22-1.13-.31-1.08-1.02,2.79-.16,5.65-.95,8.46-1.34.84-.12,3.01-2.12,1.46-2.8-.14-1.4-.68-2.04-.53-3.63.21-2.29.29-4.59.21-6.89.57-1.75.76-3.58.64-5.42.54-1.46,1.52-3.24.64-4.78ZM64.36,9.88c-.08.4-.64.32-.64,0,.15-.46.28.03.64,0ZM60.84,7.65c-.43.64-1.42.71-2.23.96.47-.87,1.24-1.44,2.23-.96ZM52.53,7.01c0,.31-.39.25-.64.32,0-.31.39-.25.64-.32ZM15.77,19.12s0,0,0,0c.89-3.46,7.36-3.77,10.08-4.52,1.49-.41,3.13-.55,4.56-1.14,1.48-.61,3.16-.4,4.76-1.06,6.49-2.67,13.45-1.91,20.23-3.79-.34,1.08-1.89.75-1.6,2.23.1.95,1.61.64,2.19.62,2.47-.1,4.28-2.43,6.76-2.85-.38,1.24-1.87,3.17.52,3.51,1.1.16,2.44-.29,3.31-.96,4.08,2.03,8.22,3.96,12.33,5.91,7.74,3.68,15.21,7.3,23.47,9.71-.09.46-3.52.58-4.01.67-2.33.45-4.84.23-7.26.27-4.65.06-9.35.25-13.98-.3.58-.79,2.24-.94,1.34-2.29-.68-1.03-2.16-.94-2.94-1.85-1.35.03-2.58.34-3.83-.32-1.6.07-2.93.99-4.48,1.27.23-1.47,1.95-2.22-.78-2.41-.88-.06-3.93-.09-4.5.76-.69,1.03.65,1.27-1.07,1.48-.6,0-1.14.17-1.64.49-1.07-.29.14-1.53-.18-1.5-3.05.28-5.48,1.58-8.45,2.14.52-.59,3.31-3.39,2.15-4.01-.71-.38-2.11-.09-2.78.18-1.37.56-3.06.93-4.53,1.48-1.62.6-.64.32-1.55-.53h-2.24c.34-.88,1.46-.83,1.92-1.59,2.42,2.62,5.4-1.07,7.99-2.23-.3,5.51,7.15-.32,8.95-1.27.96.87-1.32,3.71,2.09,2.4.51-.2,3.05-2.5,3.6-1.7.09.4.11.81.06,1.21.46.18.78.5.96.96.88.03,1.84.09,2.69-.19,2.69-.89.21-2.4-1.41-2.36,1.04-3.65-5.96.64-6.71.96,1.55-1.68-.13-3.18-1.88-2.65-1.33.4-2.46,1.25-3.87,1.38.49-.83,3.04-2.62,1.93-3.68-1.02-.97-1.89.2-2.89.81-1.99.48-2.25,1.85-3.67.23-.75-.87-3.84,1.43-4.53,1.92-1.87,1.33-3.47,2.66-5.53,3.73-1.83.94-3.3,1.04-5.23,1.7-.68.23-3.63,1.87-4.2,1.21-.3-.36,1.25-1.45,1.09-2.08-2.11.5-4.12,1.3-6.08,2.23,1.25-1.21,2.72-2.24,3.52-3.83-.55-.6-3.42.12-3.4.49-.04-.46,1.09-.94,1.16-1.45-.72-.81-2.47-.18-3.2.32-1.32-.47.45-1.06.32-1.91-.29.11-1.65-.36-1.6.32-1.27-.65-.43-1.69-2.32-.9-.97.4-1.87.95-2.77,1.47-.42.24-2.51,1.17-2.89,1.34,0,0,0,0,0,0-.08.03-.07.03-.02,0-.42.14.36-1.33.02,0ZM71.99,30.96c2.04.16,4.07.25,6.11.28.22,2.56-1.09,4.12-3.63,3.99-1.72-.09-2.49-.36-3.86-1.41-.43-.33-1.46-1.55-1.78-.35-.12-.19-.17-.32-.19-.41-.32-.76-.36-1.71-.13-2.46,1.16.14,2.32.26,3.48.35ZM70.43,27.41c.4-1.09,2.06-.59,2.56-1.59.32-.01.46.03.49.09.75.32.95,1.39,2.06,1.18-1.36.93-3.58.12-5.11.32ZM67.87,27.09c-1.82-.12-3.6-.47-5.44-.32.06-.16.15-.27.25-.35.71-.75,2.6-1.6,3.11-.92.36.49,2.15.98,2.08,1.59ZM30.27,25.76c-.69.43-1.62.2-2.35.06.87-.67,1.84-1.21,2.87-1.59-.75.88.68.78-.52,1.54ZM16.41,23.91c-.17-.17.23-.41.32-.32.16.17-.23.41-.32.32ZM27.27,77.14c.07-.63.16-.7.21-.59.46-1.11,1.54-3.27,1.97-2.53-.02-.03-.83,1.52-.9,1.53,0,1.46.48,1.59-1.28,1.59ZM30.15,68.22c-1.4.14-1.97-1-3.2-1.27,0-.84.14-1.07.28-1.02.9-1.37,3.78-.87,5.15-.9-.14,1.47-1.15,2.33-2.24,3.19ZM43.43,76.26c-.73,1.13-4.1.56-5.6.56.33-.83,1.27-1.09,1.6-1.91,1.37,2.1,4.76.36,5.75-1.27.59.3.53,1.17,1.28,1.27-.71.96-2.38.33-3.03,1.35ZM40.06,74.28c.16.16-.23.41-.32.32-.17-.16.23-.41.32-.32ZM58.6,76.19c.05-.37.58-.27.96-.32-.05.37-.58.27-.96.32ZM106.31,32.66c-.57,1.87-.48,3.97-.94,5.96-.52,2.23,1.12,10.56-1.07,11.06-2.04.46-4.24.44-6.2,1.23-2.07.84-3.19,3-4.98,4.24.19.77-1.02,1.61-1.16,2.35-.26,1.45-.51,2.75-.44,4.38.22,5.13,3.89,5.95,8.31,6.65,2.26-.19,3.44-1.07,3.18,1.61-.15,1.58.47,3.15.34,4.77-2.16-.24-4.09.4-6.18.77-2.22.4-2.98-.87-5-.7-2.56.23-4.7.84-7.29.74-2.79-.11-5.59-.14-8.39-.13-5.15.03-10.77.87-15.75-.27-1.33-.31-1.91.5-2.26-.93-.19-.76-.68-1.3-1.49-1.39-1.59.01-1.38,2.22-.96,3.19-2.43.51-4.92-.32-7.35.32.08-.98-.6-2.13.64-2.55.31-.28,1.55-3.26,1.02-3.09-.88.27-2.32.55-3.26.54.29-2.34-4.75.58-6.39,1.87,0,.01,0,.02,0,.04-.02,0-.05.02-.07.02-.21.17-.35.3-.42.39.07-.13.27-.35.42-.39.02-.01.03-.03.05-.04-.07-.05-.08-.24-.05-.4-.5-.82-3.18.3-4.01.54-.99.29-1.66,1.13-2.62,1.46-.97.18-.89,1.5-1.92,1.59-.02-.84-.08-1.86-.64-2.55.67-.71,1.52-1.22,2.35-1.72,1.73-1.03,2.59-3.14,2.51-5.09-.14-3.26-1.88-5.75-5.05-6.7-3.02-.9-8.45.88-8.45,4.5,0,3.94,1.15,7.98,5.75,8.69-.13.98-1.48.58-1.92,1.27-.58-.78-3.85-5.63-5-4.11-.97,1.29-1.66,2.75-2.68,4.11-.68-.62-.29-2.75-1.02-2.88-.46-.08-.63.49-1.02.53.56-.06.77-3.67-.51-4.35.22-2.07.63-4.07,1.06-6.1.14-.67,1.39-5.33-.76-4.27-.58.29-1.66,3.27-1.9,3.99-.65-.73-.09-1.93,0-2.75.13-1.19-1.39-2.22-1.59-.75-.73-.56.58-2.05.32-2.87-1.09-.23-1.17.56-1.6,1.28-1-.07.99-1.79-.64-1.59,1.03-2.18,1.99-4.72,2.62-7.04,1.09-4.05-2.32-.58-3.26.66-.92-.43-.32-5.53-.32-6.38-.11-.33-2.42.2-2.56.64-.95-.85,1.56-5.12,1.6-6.38-1.94.13-1.93,2.3-2.88,3.51-2.02-1.25,3.6-8.24,3.83-9.56-.98-.72-2.88,2.22-3.17,1.25-.25-.81-.55-3.32.3-3.81-.75-1.42.55-1.95,1.51-2.24,1.48-.44,3.76.51,5.41.85,9.23,1.9,18.57,3.27,27.89,3.33,5.14.03,10.27-.14,15.41-.06,2.44.04,4.89.13,7.32.35.02,1.51-.51,2.94-.32,4.46.13,3.16,4.47,5.54,7.16,5.72,3.42.23,7.09-2.17,8.5-5.13.41-.86.71-1.76.85-2.7.27-1.76,1.23-1.08,2.86-1.08h8.27c3.51,0,8.54.56,11.77-1.05,2.02-1,2.89-.04,2.21,2.15ZM98.56,61.52c-1.37.02-.42-3.37-.64-4.14-.1-.35-.06-.22,0-.02-.2-.81.64-.57.64-1.25.86,1.52-.35,3.75,0,5.42ZM96.32,64.07c-.56-.29-1.11-.59-.96-1.59.63.22.85.85.96,1.59ZM15.77,19.13s0,0,0,0c0,0-.01,0-.02,0,0,0,.01,0,.02,0ZM27.92,25.82c1.19.24.85-.64,0,0h0ZM40.62,72.9c.06.1.09.22.08.38,0,0,0,0,0,0,.09-.9-.04-.68-.08-.38ZM110.63,26.25c.15.17.29.35.4.53-.25-.43-.36-.56-.4-.53ZM68.64,33.06c.06.14.11.29.19.41.14-.51-.24-.71-.19-.41ZM73.48,25.92c-.14-.06-.3-.1-.49-.09-.35.7.61.3.49.09ZM62.68,26.43c-.11.12-.21.24-.25.35,1.79-.15.83-.83.25-.35ZM39.42,74.91c-.33.84,1.43,2.2,0,0h0ZM27.24,65.93c-.17.27-.28.59-.28,1.02.8.18.55-.92.28-1.02ZM111.03,26.78c.04.18.06.34.06.49,0-.07,0-.21-.06-.49ZM40.68,73.3s.01.01.02.01c0-.01,0-.02,0-.03,0,0-.02.01-.02.02ZM27.48,76.55c-.12.29-.2.52-.21.59.24,0,.26-.45.21-.59ZM97.92,57.36s0,.01,0,.02c.2.71.08.27,0-.02ZM79.06,18.81c-1.1-.82-2.55-1.28-3.83-1.91-2.89,2.73,3.28,5.27,3.83,1.91ZM43.82,35.48c.45-.01.9-.04,1.35-.1,0-.21-1.34.03-1.35.1ZM50.81,37.98c-.32-.27-5.58-4.51-5.63-2.6-1.03.13-1.36.13-1.35.1-2.71.09-5.45-.44-8.15-.1-2.41.3-3.29,2.39-3.92,4.59-.95,3.27-1.62,6.69.6,9.49,1.18,1.49,2.08,2.18,3.82,2.88,1.11.45,1.9.14,2.89.88.93.69,2.05.43,2.77-.33.79-.83,3.29-.2,4.43-.49,3.2-.82,4.29-2.71,5.28-5.57,1.14-3.28,2.26-6.31-.73-8.84ZM49.2,42.79c-.27,1.23-.89,2.35-1.08,3.6-.53,3.56-4.66,3.02-7.54,3.02s-1.77-6.02-1.36-8.04c.75-3.63,4.85-1.8,7.24-2.16,1.19,1.18,3.17,1.57,2.74,3.58ZM46.46,39.21c-1.48.22.91.9,0,0h0ZM94.12,42.5c.04.1.05.03-.04-.42.03.15.03.28.04.42ZM91.48,43.35c.11.01.24.01.37,0,0-.36-.8-.06-.37,0ZM93.88,41.62c.07.15.15.29.2.45-.22-.69-.25-.68-.2-.45ZM89.68,39.62c-2.07.25-1.9,2.76-1.4,4.34,1.01,3.17,6.02,1.8,5.84-1.46-.06-.14-.19-.63-.24-.88-.76-1.51-2.56-2.2-4.2-2.01ZM91.48,43.35c-.84-.08-1.29-.65-1.23-1.59,1.5-.21,1.6.24,1.6,1.59-.18.01-.29,0-.37,0ZM73.63,53.87c-.07.51-1.19-.52,0,0-3.53-1.53-7.22.31-9.4,3.06-2.4,3.03.34,5.66,2.49,7.6,1.1.99,4.53.77,5.95.18,1.36-.76,2.23-2.8,2.7-4.21.47-1.41.12-3.38-.53-4.68-.17-.35-1.22-1.81-1.21-1.95ZM71.6,61.56c-1.11,1.2-2.34.5-3.22-.39-1.01-1.02.53-3.6.77-5.07,2.3,0,3.09-.36,3.23,2.15.06,1.09,0,2.45-.79,3.3ZM69.15,56.1c-.28,1.74.96,0,0,0h0ZM78.43,70.45c0,.1-.01.18-.02.27.01,0,.02-.06.02-.27ZM78.43,70.45c-.04-.2-.06-.27-.08-.28.03.09.06.18.08.28ZM78.35,70.17c-.52-1.56-2.43-1.79-2.5.24-.07,2,2.32,2,2.56.3-.03-.02-.09-.56-.05-.55ZM66.92,71.09c0,.23-.03.44-.07.64.04,0,.07-.17.07-.64ZM66.59,70.43c.14.2.25.41.32.65-.23-.81-.31-.87-.32-.65ZM66.59,70.43c-1.21-1.72-4.78-1.58-5.36.62-.9,3.47,4.89,3.81,5.6.67-.1,0-.26-.96-.25-1.29ZM56.37,71.09c-1.56.01-2.04.03-3.6.46-.86.23-2.28.82-1.77,2.02.89,2.11,4.44.17,5.22-1.68-.15-.14-.3-.79.15-.8ZM56.21,71.88c.1.09.21-.05.15-.8.02.25-.04.53-.15.8Z"/>
    </g>
  </g>
</svg>