<?xml version="1.0" encoding="UTF-8"?>
<svg id="Layer_2" data-name="Layer 2" xmlns="http://www.w3.org/2000/svg" viewBox="0 0 87.35 126">
  <defs>
    <style>
      .cls-1 {
        fill-rule: evenodd;
      }
    </style>
  </defs>
  <g id="food_icons" data-name="food icons">
    <g id="chef1">
      <path class="cls-1" d="M3.92,21c1.25.26,1.72-.97,2.13-1.89.82-1.84,2.8-4,4.49-5.14-.38,3.48,2.73-1.65,3.06-1.83.63.49,1.31,2.7,2.45,1.07.14-.21,2.07-1,2.45-1.07.92.39,3.96.98,4.84.48,1.34-.76,3.1.72,4.03-.17-.12.79.69,1.18,1.23.61.25.38.47.76.66,1.17.45.87,1.03,1.55,2.09,1.58-.22-1.33-1.29-2.1-1.76-3.12.19-.61,0-.97-.55-1.08-.38-.08-.63-.31-.74-.68,2.14-2.23-3.54-4-4.59-4.58,2.89-2.27,6.7-3.05,10.28-3.31,2.13-.16,4.49-.37,6.53.28.94.3,2.06-.17,2.41.88.21.65.44,1.29,1.28,1.24,3.34-1.9,8.08-1.98,11.8-1.34,1.94.33,4.25.59,5.72,1.98,1.17,1.1,2.33,2.21,3.9,2.73,2.38-5.12,16.19.88,17.87,5.14.36.93.56,1.94,1.1,2.79-.76.79-1.51,1.6-2.22,2.43-1.45,1.68-2.79,3.46-3.94,5.36-2.07,3.43-4.1,7.25-5.16,11.12-.86.85-1.58,3.43-1.56,4.54,0,.56-.13,3.81,1.48,2.14.88-.91.96-3.08,1.37-4.26.58-1.67,1.24-3.31,1.93-4.93,1.38-3.24,3.01-6.07,4.9-9,1.87-2.9,4.75-5.35,5.95-8.64-.49-.11-.69.01-.75.08.04-.08.14-.34.17-1,.02-.39-.22-2.06-.35-2.43-.48-1.36-1.56-2.56-2.73-3.51-2.94-2.39-6.83-3.71-10.51-4.51-2.35-.51-5.78-.72-7.87.69-1.87-1.83-4.23-3.05-6.75-3.7-3.1-.8-6.3-.57-9.47-.57-1.38.39-3.21.5-4.32,1.41-.65.53-1.29,1.08-2.1,1.34-1.82-5.52-12.51-2.74-16.24-1.39-2.02.73-4.58,1.79-5.42,3.89-.41,1.03-5.87,1.56-7.23,2.17-4.88,2.18-8.09,6.5-11,10.79-.55.82-.02,2.01,1.15,2.26ZM42.67,3.3c1.16-.37-.65-1.99,0,0h0ZM31.67,34.25s-2.44-9-2.16-8.98c-.12.36-.33.66-.61.91-.26-1.05-.88-5.35-1.54-5.53-1.38-.37-.48-3.17-1.89-3.05.39,0-.25.57-.24.04,0,.63-.64,1.39-.66,2.28-.04,1.39.03,2.77.05,4.15.03,1.49-.28,2.21.87,3.17.64.53.22,1.44.83,2.13.6.7.12,1.66.91,2.04,1.24.58,1.21,1.21,1.76,2.44.31.69,1.07,2.99,2.1,2.16.54-.44.52-.79,1.18-.05-.24-.84.54-2.47-.6-1.7ZM53.38,20.38c.03,1-4.7,14.12-1.44,13.04,1.76-.58,1.96-4.54,2.27-5.92.37-1.63,1.4-7.12-.84-7.12.31,0,.02.42,0,0ZM37.06,20.73c-.01.08-.24.19-.2-.05-.27,2.03-1.19,14.55,2.45,14.34,2.86-.64-.59-13.48-2.24-14.3ZM36.86,20.69c.06-.01.13.01.2.05,0-.04-.04-.07-.2-.05ZM13.32,65.02s0-.09-.03-.09c0,.03,0,.06,0,.09,0,0,.02,0,.02,0ZM17.58,71.35s0,.03,0,.05c.04.24.06.36,0-.05ZM29.24,88.35c-.14.21-.26.43-.34.69.23.23.4-.57.34-.69ZM13.28,65.03c-.05.48-.02.41.01.24-.01-.07,0-.15,0-.24,0,0,0,0-.01,0ZM39.67,60.85c-.33.04-.65.07-.98.12-.01.91,3.68-.36.98-.12ZM84.29,80.5c1.8,5.7-6.71,8.94-11.01,7.26-1.64-.64-3.17-1.22-3.11-3.21.04-1.26.25-3.44,1.72-3.44,1.77,0,3.76-2.46,3.61-4.24-.28-3.34.94-6.7.83-10.1-.13-.85,1.16-1.32.58-2.33-.44-.76-.59-.42-.29-1.27.23-.65.84-2.28.32-2.81-1.09-.27-.99.55-1.63,1.05-1.28,1.02-.79-2.59-.81-2.89-.87-.43-.98.47-1.65.5.08,0,.46-9.73.52-10.72.08-1.12.39-1.86-.21-2.78-.26-.41-.42-.86-.5-1.34-1.07.22-1.93-.59-2.81-.94-5.44-2.16-11.61-2.52-17.29-3.89-1.64-.39-3.47.06-5.14-.22-1.52-.26-3.11-.23-4.65-.07-3.36.34-6.68.35-10.02.89-3.47.56-6.51,1.59-9.48,3.2-.65.36-3.54,1.8-3.78.91-.17-.67.23-2.34-.69-2.62-.5.4-.44,1.13-.92,1.53-.62-.59-.38-2.24-.73-3.01-.32-.7-.32-1.55-.8-2.18.13.4.03.71-.31.92-.61-1.12-.14-3.36-1.53-3.97-.11.37-.31.68-.61.91-.6-1.13-1.34-2.18-1.84-3.36-.69-.17-.38.58-.92.61-.11-.37-.31-.67-.61-.91-.07.24-.22.41-.44.51-.19.02-1.51-5.72-1.7-6.31-1.14-.22-.45,1.28-1.22,1.53-.05-.5-.44-3.13-.97-3.35-.24-.09-.48.49-.74.34-.86-.45-.34-2.48-1.56-2.99-1.54-.64-.69.62-1,1.29-.01.03-1.89-3.16-2.83.04-.48,1.64,2.07,4.79,3.11,6.15.97,1.27,1.49,2.38,2.5,3.77,1.61,2.22,1.98,5.06,3.67,7.28.78,1.02,1.08,2.31,1.65,3.44.59,1.17.08,2.4,1.18,3.15,1.13.77,2.43.55,2.92,1.8.39,1,.97,1.92,1.2,2.99.29,1.34.18,1.91.82,3.11.53,1-.06,1.6.17,2.57.42.28,1.65,3.85,1.22,3.97-.99-.47-1.63-1.4-2.79-1.54-1.62-.19-1.59,1.56-2.84,2.07-1.32.55-1.81,1.76-1.71,3.13.35.07,1.55.14,2.13.09,0-.03,0-.05,0-.09h.31s-.11.07-.28.09c0,.07,0,.16-.02.24.11.65.92.6,1.22,1.2-.42.71-.58,1.56-.63,2.38-.11,1.62.13,3.51.94,4.95-3.71-.91.27,6.78,1,8.04.63,1.08.01,1.43,1.44,1.28,1.4-.15,1.52-.03,1.65,1.38.19,1.84,1.57,5.15-1,5.21-2.79.06-3.7-.54-5.16-2.95-1.13-1.87-1.37-3.36-.32-5.33.91-1.7-2.82.73-3.2,1.32-1.4,2.13-2.87,3.88-2.77,6.5.08,2.17.78,4.17,1.61,6.16.78,1.87,2.1,1.83,3.03,3.24,1.46,2.21,7.88,1.83,10.39,1.7,1.36-.07,1.59-.72,2.35.52.47.77,1.07,1.45,1.74,2.05,1.37,1.22,2.98,2.11,4.56,3.04,1.91,1.13,2.7,1.87,3.81,3.7.5.82.97,1.61,1.07,2.6.96.4,1.85.93,2.69,1.53,1.33.94,1.67.96,3.19,1.26.97.19.74,1.68.96,2.45.57,2.03,1.52,3.93,1.73,6.06.07,1.67.41,3.59,2.34,1.66,1-1,1.09-2.63,1.33-3.94.23-1.33.62-1.68,1.85-2.31,0-1.09.07-2.18.29-3.25.43-1.96,1.32-3.28,3.07-4.23.94-.51,3.53-3.19,4.07-2.98.71.28,3.65-2.8,4.09-3.52,1.19-1.97,2.99-3.19,3.65-5.36.74-2.43,1.63-2.71,4.08-2.42,4.22.51,8.54,2.18,12.63.36,3.08-1.37,4.99-4.12,5.85-7.31.65-2.45.61-8.71-2.54-9.73ZM16.05,78.36c-.16-.16.22-.39.31-.3.16.16-.22.39-.31.3ZM16.36,78.98c-.16-.16.22-.39.3-.3.16.15-.22.39-.3.3ZM71.13,66.46c.62-.09.88-.66,1.43-.86,1.08-.39.64.59,1.62.56.24,1.93-.23,3.97-.71,5.83-.33,1.31-.17,1.59-1.43,2.02-1.37.47-1.52.35-1.53-1.09-.01-1.87-.23-4.03.38-5.86.03-.13.1-.31.23-.6ZM21.05,48.68c2.12-1.41,3.93-2.71,6.48-3.12,3.95-.64,7.87-.99,11.83-1.5,3.6-.46,7.12-.51,10.68-.84,1.79-.16,3.75-.72,5.53-.19.92.28,1.17.99,2.15.68.45-.17.92-.22,1.4-.15-.07-.02-.06-.02.09,0,1.07.25,1.46.34,1.51.36,2.06.49,4.12.99,6.16,1.56,1.23.35,2.45.72,3.66,1.13-.3,1-.54,2.03-.74,3.06-.81,4.31-.86,8.74-.79,13.12-1.64,0-3.68-1.51-5.12-2.22-1.67-.82-3.46-1.58-5.28-2.06-3.09-1.46-7.26-1.83-10.63-1.83-4.4,0-8.52,1.4-12.94,1.52-.72.02-5.25,1.39-5.15.38.11-1.12.05-2.06-.66-3.11-1.4.36-1.96,1.7-2.75,2.75-.64-.56-2.34-.44-2.45.61-.81-1.03,2.27-3.02.69-3.38-.7-.16-2.17,1.66-2.53,1.24,0-1.78,3.96-2.87.6-3.73-1-.26-.06-2.33-1.22-3.28-1.17.13-1.25,1.39-1.84,2.14-.87-.59.98-2.91,1.33-3.14ZM61.64,62.8c-1.09-.44-3.04-.02-2.75-1.83,1.72-.19,2.39.67,2.75,1.83ZM33.32,62.19c-.06.09-.11.19-.14.3.05-.18.09-.27.14-.3.42-.65,1.47-.68,1.7-1.53.66.42.72.59,1.53.31.33,1.86-2.06,2.95-3.27,1.62.3.25.21-.54.04-.4ZM19.41,62.8c.16.16-.22.39-.3.3-.16-.16.22-.39.3-.3ZM17.59,71.39c-.07-.43-.21-1.23,0-.05-.26-1.56-.42-3.86,1.83-3.66-.9,3.1.62,6.31.31,9.46-1.5.24-1.96-4.7-2.13-5.75ZM14.52,96.06c-.16-.16.22-.39.31-.3.16.16-.22.39-.31.3ZM17.89,95.45c-.16-.16.22-.39.3-.31.16.16-.22.39-.3.31ZM24.39,93.55c-.85-.33-1.79-.58-2.52-1.15-.91.3-.11,1.02-1.2.94-.33-.02-1.44-.32-1.56.28.45-.04.65.16.61.61-.61.21-.81,0-.61-.61,0,.2-.59-.13,0,0-.72-.16-.62-.86-1.53-.61.88-.6,2.72-.11,3.28-.99.35-.54.42-1.01,1.04-1.31,1.72-.84,3.9-1.11,5.78-1.36-.01.72.18,1.51.92,1.83-.27.42-1.03,1.94-1.74,1.44,0,0,.71-1.07.51-1.44-.37-.49-1.74.63-2.45,0-.14.9.32,1.35,1.22,1.22-.57,1.12-.57,1.61-1.76,1.15ZM62.99,82.41c-1.53-.8-2.14-1.57-3.99-1.32-1.05.14-1.99.58-2.88,1.14-1.29.82-3.62.68-5.16,1.05-1.84.44-5.33,1.14-4.52,3.51.76,2.24,4.26,2.09,6.07,2.43,2.6.49,4.74,0,7.11,1.52,1.85,1.18,1.52,3.76,3.85,4.4-.74,2.01-2.1,3.72-2.96,5.68-.54,1.22-1.54,1.6-2.24,2.87-.93-.18.19-2.6-.54-3.12-1.05-.76-1.89-.37-2.14.99-.29,1.59.08,2.86-1.06,4.15-1.18,1.33-2.52,2.53-4.21,3.17-.31-1.67-3.53-9.57-5.98-7.85-2.75,1.95-3.44,5.95-3.2,9.07-3.03-.04-5.11-3.83-5.13-6.42,0-1.11-.12-2.56-1.6-2.43-.98-.27-1.75,2.4-1.84,3.05-1.8-.32-2.59-2.84-4.28-3.36-.13-1.01-1.1-1.32-1.53-2.14,1.2-1.11,2.44-2.16,3.72-3.18,2.56-2.05,5.23-3.97,7.82-5.98,1.55-1.2,2.01-1.53,3.96-1.53.9,0,1.57.07,2.11-.74,1.46-2.19-.89-2.84-2.79-3.46-1.19-.38-1.82-1.03-3.11-1.04-1.03-.01-2.06.09-3.09.19-2.69.26-4.31.38-6.61,1.93-1.51,1.02-4.18,3.23-5.99,3.43-.18-1.66.42-2.96.31-4.43-.06-.87-.97-1.37.39-2.19,1.41-.86,2.79-4.08,1.27-5.19-.47-.35-.4-2.5-.42-3.07-.04-.98-1.05-2.1-.94-2.81-.13-2-.01-7.27,3.06-6.71-.65,4.23,4.6,2.93,6.99,2.28,3.15-.86,5.21-1.82,5.25-5.33.4-.06.71-.09.98-.12,4.04-.46,8.12-.22,12.18-.19-.44,4.52,3.74,3.76,7.32,4.63,1.75.42,3.5.58,4.36-1.28.54-1.16.06-1.68,1.61-1.35.98.21,1.94.55,2.93.74-.23.85-1.12,1.11-1.53,1.83-.04.73-.1,1.46-.16,2.19-.16,1.86-.35,3.73-.34,5.6,0,1.69.16,3.44.81,5.02,1.05.2,1.85-.16,2.14-1.22.85.97-.83,4.44-.9,5.64-.16,2.85-3.6.72-5.1-.06ZM28.9,89.04c.2-.62.31-.76.34-.69.83-1.26,2.54-1.68,3.94-2.05-.72,1.14-1.63,1.87-1.53,3.36-.26.2-2.38-.24-2.76-.61ZM79.87,91.55c-.84.3-1.62.49-2.47.79-1.36.48-2.05,1.32-3.54.23-.24-.18-4.17-2.01-4.26-1.4-2.04-.99-2.09-2.93-3.06-4.57-.1-.76-1.06-.61-.92-1.53,1.61.83,2.4,1.13,3.71,2.4.95.91,2.04,1.65,3.15,2.35,2.63,1.65,5.57,1.16,8.44.13-.43,1.19.21,1.13-1.05,1.59ZM83.64,90.56c-.03.21-.09.65-.27.93-.58.12-.45-1.32.27-.93,0,0,0,0,0-.01-.62-.4-.11-.35,0-.06,0-.06.02-.06.03.08-.01,0-.02,0-.04-.01ZM83.64,90.54s.02.01.04.02c0-.03-.02-.06-.03-.08,0,.02,0,.03,0,.06ZM66.54,86.61c.34.58-.09-.72,0,0h0ZM71.13,66.46c-.09.19-.16.4-.23.6-.17.72.98-.71.23-.6ZM59.2,43.58s-.06,0-.09,0c.26.07,1.7.4,1.6.36-.5-.12-1-.24-1.51-.36ZM63.36,30.74c-1.06,2.01-2.44,5.05-2.64,7.34,2.88-.46,4.27-4.64,5.31-6.95.32-.71,2.91-7.48,1.84-7.68.03.1-.53.48-.31.2-1.95,2.09-2.87,4.55-4.2,7.09ZM67.76,23.44s.08,0,.12.02c0-.02-.03-.03-.12-.02ZM55.65,66.88c-1.34.63-1.2,2.98-.98,4.25.2,1.13,1.8,1.5,3.01,1.48-.09-.05.75-.27.65-.1,2.02-1.74.25-7.01-2.68-5.63ZM58.28,72.57c-.18.03-.38.04-.59.04.03.02.2.01.59-.04ZM44.81,66.77c.08.46.12.91.13,1.37.14.6.26.76-.13-1.37ZM48.32,79.73c-1.07.61-3.07.58-4.12-.14-.37-1.44-.35-2.95-.18-4.42.27-2.31.99-4.67.92-7.02-.12-.52-.27-1.37-.13-1.37-1.17,0-2.23,2.11-2.14,2.14.21,2.95-1.32,5.61-1.22,8.54-.76,2.35-1.51,3.75,1.13,4.92,1.47.66,3.17.89,4.77.71,1.53-.17,3.3-.82,3.87-2.39,1.13-3.09-1.24-1.91-2.9-.96ZM34.1,68.3c.09.05.15.12.23.17,0-.02-.06-.08-.23-.17ZM33.21,68.16c.27,0,.57.03.89.14-2.29-.74-1.7-.44-.89-.14ZM34.33,68.47c0,.07-.6-.12-1.12-.31-2.44,0-2.95,3.82-1.51,5.56,2.34,2.84,5.35-3.22,2.63-5.25ZM38.73,93.73c-1.29.35-.85,1.88.27,2.03.22,1.59,6.8.95,7.9.89,1.87-.1,4.12-.39,5.59-1.63-.44-.15-.25-1.78,1.21-1.7-3.57-.2-7.12.61-10.71.61-1.36,0-2.92-.57-4.25-.2ZM52.48,95.02c.24.09.68-.29,1.21-1.7-.26.71-.69,1.26-1.21,1.7Z"/>
    </g>
  </g>
</svg>