<?xml version="1.0" encoding="UTF-8"?>
<svg id="Layer_2" data-name="Layer 2" xmlns="http://www.w3.org/2000/svg" viewBox="0 0 101.76 119.33">
  <defs>
    <style>
      .cls-1 {
        fill-rule: evenodd;
      }
    </style>
  </defs>
  <g id="food_icons" data-name="food icons">
    <g id="chef3">
      <path class="cls-1" d="M76.64,56.01c-.09-.04-.18-.09-.28-.13-1.65-.51,1.02.5.28.13ZM99.7,25.82c-.85-1.36-1.96-2.54-3.2-3.56-1.69-1.39-3.86.3-4.32-1.97-.81-3.92-3.95-8.04-7.33-10.09-1.9-1.15-3.93-1.83-6.16-1.83h-3.59c-1.1.26-2.05.85-3.2.95-1.03,1.23-1.62,3.04-3.08,1.82-.85-.71-1.75-1.38-2.63-2.06-1.76-1.35-3.52-2.75-4.84-4.55-1.03-.26-1.75-.97-2.56-1.59-.95-.35-2.12-.52-2.88-1.28-2.25-.49-4.42-1.29-6.71-1.59-8.91-.52-19.86,1.1-26.93,6.75-1.16.93-2.23,1.97-3.12,3.16-.99,1.33-1.2.76-2.73.46-2.06-.4-4.33.1-6.27.86-2.97,1.15-6.69,3.67-8.21,6.43-3.55,6.44-2.21,15.17,4.07,19.68,2.7,1.94,7.19,3.36,10.3,1.98.89-.4,1.72,4.75,1.99,5.78.31,1.15.62,2.3.9,3.46.45,1.84-.53,1.43-2.04,2.05-1.91.78-4.38,1.72-5.05,3.72-.55,1.62,1.42,3.2,2.55,4.3,1.18,1.15,2.49,2.9,3.41,4.3.59.89-.56,3.07-1.79,3.38.04-1.19-.92-1.44-1.92-1.28-.26-1.02-.48-2.4-1.6-2.87-1.1.99.68,3.04-.32,3.83-1.72-1.16-3.11-3.23-5.11-3.83-.44.53-2.82,1.34-.79,1.68,1.16.19,4.1,5.8,3.52,5.85-.28.02-1.07-.86-1.63-.85-.9.02-1.09.82-.42,1.25.74.47,2.52-.06,2.83,1-1.88-.03-4.53,4.27-4.54,5.93,0,1.57.59,6.85,2.63,7.14-.07.64.64.43.92.76.1.53.04,1.06-.17,1.57-.24,1.27-.93,3.47-.07,4.6.41.53.35,3.16.29,3.91.13.03,1.15,2.66,1.29,2.96,2.75,6.17,6.63,11.42,12.52,14.93,3.48,2.07,6.78,3.39,10.81,4.1,2.2,2.03,6.15,2.21,8.96,2.24,7.69.08,16.17-.65,23.21-4.05,3.41-1.65,7.27-3.99,9.59-7,1.17-1.51,3.96-4.1,3.96-6.02,0-1.32,1.54-2.89,2.07-4.26.66-1.74,1.22-3.36,1.55-5.21.62-3.53.35-7.04.82-10.58.36-2.72.89-1.57,2.96-2.54,1.14-.54,1.86-1.59,2.29-2.75,1.03-2.76,1.02-4.21-.72-6.39.81-.36,3.96-1.95,3.84-3.19-2.78-.37-5.04.69-7.67,1.28.9-1.71,3.3-1.97,3.52-4.14-1.49,0-3.34.44-4.71.34-1.4-.1-.28-1.79-.13-2.25.42-1.25.17-3.59-.04-4.88-.31-1.88-1.54-.74-2.47-1.81.04-.77-.53-.96-.99-1.41-.68-.68.48-1.71.79-2.38.8-1.7,1.33-3.51,2.21-5.17.63-1.21,3.89-6.96,2.54-8.18-1.75-1.6-3.39,1.93-5.52,1.82-3.49.06-6.33-1.04-9.27-2.87-2.61-1.62-5.49-3.48-8.37-4.54-1.02-.37-5.09-5.94-5.87-3.66-.82,2.39,3.84,6.63,5.48,7.81,2.78,2,5.35,4.06,8.64,5.21,2.11.74,4.43,1.24,6.67,1.24.68,0,3.3-.61,3.67,0-.82,2.04-1.61,4.07-2.5,6.08-.52,1.18-1.06,2.34-1.66,3.48-.71-.2-1.42-.41-2.13-.61-4.12-1.16-8.29-2.16-12.56-2.5-3.28-.26-6.59-1.59-9.98-1.94-3.77-.39-7.57-1.65-11.29-1.65-1.12,0-7.97.94-8.15.32,1.22-.29,2.88-1.11,3.71-2.09.95-1.12-.5-1.4-1.33-1.03-1,.46-1.71,1.36-2.7,1.83,0,.06-.27,1.28-.31,1.45,0-.01-1.66.45-1.61.46.02-.2.05-.38.32-.32-.27-.06-.05-.37,0,0-.21-1.51.59-1.37-.9-2.6-.93-.77.43-.9-1.34-.9-.71,0-1.11.17-1.73.23-.29.03,1.19-2.8,0-3.08-.23-.06-2.1.26-2.11-.02,1.62-2.06-1.9-.6-1.92-.63.44-.97,1.38-2.45.64-3.51-.1-.46-1.27-.31-1.64-.75-.76-.91-4.35,1.49-4.75,2.03-.38-.79-1.27-1.17-1.52-2.05-.34-1.15-1.3-1.17-1.67-2.42-.48-.91-.51-2.12-1.28-2.87-1.21,0-1.29,1.19-1.92,1.91.03-.55-.08-3.78-.96-3.51-1.42-.22-.45,1.79-1.28,2.23-.27-1.7.7-3.83,0-5.42-1.66.22-1.73,2.1-2.55,3.19-.96-2.37.23-4.93.32-7.33-1.23-.56-1.04,1.25-1.69,1.16-1.87-.28,2.02-5.12,2.57-5.42,3.15-1.75,5.2-2.52,8.87-2.42,1.74.04,3.58.15,5.27-.33.67-.35-.77-1.34-.64-1.91,1.58-2.17,4.11-3.35,6.48-4.43,10.67-4.87,22.46-3.88,32.82.73,2.43,1.08,4.28,2.99,6.4,4.53,1.64,1.19,2.26,2.76,3.77,4.03,1.73,1.46,1.77-1.31,1.51-2.3-.44-1.64-.3-1.07.37-2.24,1.09-1.91,5.79-1.96,7.91-1.35,4.16,1.21,7.97,5.47,8.84,9.96,0,.49-.87,7.39,1.24,6.62,2.66-.98,1.45-3.69,2.6-5.66.02.08,2.05.96,2.24.96.57.89,1.3,1.56,1.81,2.49,1.22,2.22,2.02,4.67,2.02,7.23,0,4.49-4.23,8.04-8.33,8.86-.69.14-6.27.17-4.19,1.73,1.66,1.24,4.53,1.47,6.32.69,3.25-1.43,5.84-3.15,7.67-6.46,2.05-3.68,1.33-8.91-.85-12.4ZM15.63,55.24c.91.26.83-.45,1.6-.32-.3.68-1.55,2.04-1.6.32ZM84.19,72.8c2.28-.43,4.77-.83,3.88,2.08-.41,1.34-1.08,2.32-2.31,2.9-.68.32-.96,1.25-1.6.17-.34-.58-.64-.9-1.4-.71-1.06.16.42,2.39-.64,2.55.32,1.56-.39,4.13-.59,5.73-.25,2.11-.56,4.26-1.07,6.32-.68,2.71-.78,4.91-2.2,7.25-1.09,1.8-1.83,3.61-3.17,5.25-1.13,2.92-4.91,3.41-7.55,5.66-1.78,1.51-5.28,1.75-7.56,2.54-2.18.75-4.48,1.13-6.62,2-5.32.12-10.68.71-15.99,0-1.84-1.41-4.73-1.25-6.83-2.12-2.19-.9-3.55-2.01-5.49-3.33-3.48-2.37-5.93-5.3-7.59-9.13-1.9-4.4-3.6-8.71-3.99-13.56-.18-2.24,1.06-4.21.89-6.28-.16-1.87-2.16-.61-2.58.36-1.36,3.16-2.47-3.25-1.53-5.01.65-1.22,1.88-1.84,3.25-1.83,2.3.03.51.85,1.67,1.39.71.33,2.17,2.38,3.31.49.87-1.44-.46-2.41.22-3.8.89-1.81,1.85-4.27,3.83-4.68.86-.18,3.5-.95,3.98-1.61,1.17,1.92.71,3.07,3.35,2.58,1.47-.28,3.22-.72,3.95-2.18.74-1.48-.4-1.55,1.66-1.74,1.18-.11,2.34-.34,3.5-.57,2.31.34,4.65.36,6.97.35,1.89-.01,12.02-1.15,12.67.96.78,2.57,5.98,3.19,8.18,2.21,1.18-.02.65-1.66,1.28-2.23,2.05-.16,4.07.15,6.12.28,2.53.15.79,1.17,1.24,2.91.36,1.45,1.84,3.23,1.28,4.78.24.14,4.16,4.08,3.84,1.27.41-.88,2.82-1.09,3.67-1.25ZM80.84,66.4c0-1.5,1.5,0,0,0h0ZM22.1,53.59c2.73-.19,6.18-.3,8.71-1.3,1.62-.65,2.65-1.48,4.42-1.51,1.28-.02,2.56-.1,3.84-.27,2.47-.33,4.37-.65,6.87-.38,5.25.59,10.34.75,15.51,1.72,2.96.56,5.93,1,8.89,1.55,2.09.39,3.95,1.83,6.04,2.47.13.06.21.1.28.13,1.48.69,2.86,1.53,4.51,1.78-.83,1.44-.17,3.53-.32,5.1-8.31-1.44-16.6-1.41-24.97-1.92-8.67-.53-17.61-.71-26.18.97.39-1.66,4.89-.92,3.62-2.98-1.18-1.94-2.92,1.47-4.66-.02-.92-.78-2.22.46-3.57.42-1.16-.04-2.1-.24-3.06-.92-.32-.49.36-3.1-.91-2.77-.15.6-.42.7-.8.3-.48-.19-.65,0-.53.56-.71-.04-.19-1.52-.32-1.92-.61-.17-.93.05-.96.64-1.59-.18.53-1.15.91-1.22,1-.19,1.61-.36,2.68-.43ZM66.78,67.04c-1.88.85,1.16-.02,0,0h0ZM80.84,66.4c.21,0,0-.21,0,0h0ZM52.71,28.78c.86-.22-1.17.1,0,0h0ZM47.54,29.79c-1.73-.17-3.47-.79-5.23-.64-4.26.37-.15,3.19,1.4,3.82,2.56,1.04,5.52,1.17,8.25.25.54-.18,3.36-1.79,2.04-2.54-.58-.33-.17-2.19-1.29-1.9-1.87.16-3.15,1.21-5.16,1.01ZM60.88,74.81c0,.07.11.23.46.51-.17-.14-.32-.32-.46-.51ZM61.93,75.37c-.19-.01-.38,0-.59-.05.31.06.49.06.59.05ZM61.93,75.37c4.77.25,3.93-7.66-.02-6.76-2.4.55-2.31,4.42-1.02,6.2.03-.24,1.52.48,1.05.56ZM32.89,76.28c1.51-1.25,1.3-5.78-.32-6.69-4.46-1.03-4.48,8.14.32,6.69ZM51.8,71.8c.08-.11.16-.21.27-.3-.17.13-.25.23-.27.3ZM51.43,95.41c.81.27,2.27,4.03,3.32.87.5-1.51,1.39-2.05,2.58-.86,1.06,1.05,1.97.03,1.66-1.15-.37-1.39.81-1.44,1.97-1.3,4.14.48.55-1.72,2.07-2.72,2.62-1.73-1.55-3.18-2.87-3.91-1.19-.67-2.01-1.72-3.26-2.37-1.99-1.02-1.92-.75-1.21-2.79,1.15-3.32-.82-2.81-2.02-5.21,0-1.22.3-3.6-1.02-4.29.14.21-.95.44-.85.12-.85,1.09-.25,3.11.27,4.16-.83.03-2.75-.39-3.2.63,1.37.5,3.8.31,4.48,1.91.21,1.34,0,3.42-1.17,4.13-2.66,1.62-7.28,1.62-10.18.65-3.73-1.24-3.1-5.05.7-5.32,1.29-.09,2.8-.56,1.5-1.93-.32-.35-1.57.28-1.73-.4.07-.67.04-1.33-.09-1.98-.45-2.24-2.81-2.04-2.75.36.07,2.58-.03,2.48-1.96,4.18-.24,1.06-1.49,3.8-.32,4.62,1.12.78-.98,1.12-1.47,1.72-1.6,1.94-3.62,5.07-4.29,7.68.64.67,1.42.68,2.24.32.38.7.73,1.48,1.43,1.92,1.46.93,1.75-.64,3.04-.64-.44,1.4-.05,3.79,2.04,3.15,1.04-.32.89-1.72,1.79-2.2.84,1.38,1.39,2.78,3.2,1.59,1.61,2.67,1.61-.12,3.52-.32-.08.77.43,3.22,1.8,2.07.78-.65.02-2.02.75-2.7ZM49.19,85.84c-.16-.16.23-.41.32-.32.17.16-.23.41-.32.32ZM52.07,71.5c.22.03.41.09.58.18-.04-.07-.21-.13-.58-.18ZM37.69,109.43c-2.4-.56-4.67-2.4-6.78-3.71-2.32-1.44-4.56-2.64-6.68-4.33-.93-.74-2.1-2.99-3.48-2.8.38-.05-.12.46,0,0-1.25,4.57,8.32,8.25,11.13,10.04,1.19.76,2.27,1.6,3.56,2.19,1.57.72,3.08.52,4.81.52.93,0,4.3-.1,4.16-1.59-1.62-1.63-4.75-.16-6.71-.32ZM72.85,99.87c-.02.16-.06.32-.09.48-.07.65-.11,1.49.09-.48ZM62.92,105.9c-2.77,1.48-5.52,1.62-8.61,1.62-1.04.66-3.45-.34-4.06.97-.74,1.6,5.46,1.6,6.45,1.58,2.74-.04,5.33-.71,7.72-1.88,2.63-1.29,7.56-4.66,8.34-7.84.03-.3.07-.56.09-.48-.35-1.21-9.04,5.56-9.93,6.04Z"/>
    </g>
  </g>
</svg>