<?xml version="1.0" encoding="UTF-8"?>
<svg id="Layer_2" data-name="Layer 2" xmlns="http://www.w3.org/2000/svg" viewBox="0 0 74.01 125">
  <defs>
    <style>
      .cls-1 {
        fill-rule: evenodd;
      }
    </style>
  </defs>
  <g id="food_icons" data-name="food icons">
    <g id="chef6">
      <path class="cls-1" d="M32.04,73.12s-.04,0-.06,0c-.03,0,0,0,.06,0ZM67.37,79.73c-.14-1.42-.54-2.36-.61-3.59-.08-1.6-.4-2.32-2.03-1.93-1.6.38-.25-2.25-.11-3.05.23-1.31.17-2.65.51-3.87.26-.94-.38-5.38.66-5.84.08-3.47.87-6.85,1.33-10.27,1.12-8.28,2.43-16.53,3.41-24.84.32-2.73.63-5.58.63-8.27,0-1.12,1.17-7.15.32-7.67-2.41,3.61-3,9.41-3.69,13.62-.94,5.7-1.9,11.39-2.75,17.1-.84,5.63-1.71,11.26-2.42,16.9-.7,5.57-.62,11.07-.62,16.67-6.93-2.86-14.36-4.32-21.84-4.69-2.51-.12-5.03-.13-7.55-.04-1.45-.65-3.46-.39-4.94-.09-1.05.2-2.55.56-3.63.47-1.49-.13-.62-1.39.35-1.32-.14,1.72,1.74.25,2.57.3,1.03.05,4.18.57,4.7-.61-1.79-.8-6.15.77-7.39-.66-.76-.88-.47-.2-1.73-.29-.4-.34-.82-.41-1.29-.2-1.61.75-.59-.32-1.72-.62-1.56-.42-.3-2.03-.52-3.27-.63-1.27-1.36.65-1.84-1.01-.39-1.39-2.25.35-1.23-1.76.63-1.3,1.2-2.74.54-4.16-1.62.15-1.92,3.44-2.85,3.47.77-2.69.93-5.8,1.9-8.51-1.4-2.4.34-5.6,0-8.19-1.93.52-1.46,4.8-2.53,5.04.05-.47-.12-1.16.32-1.26-.43.1-.39-2.75,0,0-.35-2.48.99-5.17,0-7.56-1.41-.45.03,1.89-.95,1.89-1.05-10.41-1.59-21.14-4.74-31.2,2.16-.17,4.17-1.06,6.32-1.26.58,2.3,1.6,4.44,2.28,6.71.63,2.1.69,10.63,3.42,11.25,1.86-6.46-.94-12.63-3.16-18.59,8.61-2.36,19.12-4.93,28.04-3.54,4.65.72,9.12,1.12,13.71,2.52,3.79,1.16,7.87,3.81,11.96,3.23,1.61-4.14-2.92-4.37-5.86-5.82-3.44-1.7-7.52-2.74-11.26-3.55-9.21-2.01-18.7-1.67-27.87.31-4.65,1.01-9,2.42-13.42,4.11-2.03.78-4.02,1.45-6.09,2.12-1.33.42-3.7.91-2.23,2.59,2.36,2.71,2.68,7.97,3.19,11.42.69,4.66.57,9.29,1.03,13.97.97,9.88,1.8,19.76,1.53,29.69-.34,1.6-.25,4.88-1.33,5.5-.87.5-.91.32-1.36,1.16-.25.4-.62.59-1.1.59-.42.8-1.4.29-2.05.32-1.05.06-.81.67-1.28,1.29-.93,1.24-.1,1.98.17,3.42-1.05.13-2.72.53-2.17,2.04.31.83,1.4.75,1.85,1.43-1.97.79-.48,3.42-.02,4.59.67,1.7.51,3.29.8,5.03.31,1.85.93,3.22,2.69,4.04.97.45,1.32-.01,2.02.16.41.1.58,4.55.52,5.08.73,2.31.97,4.75,1.4,7.12.58,3.24,1.65,8.64,4.37,10.71,3.12,2.37,5.16,4.57,9.12,5.58,2.17.56,4.24,1.07,6.47,1.31,2.37.25,4.63-.22,7.01-.08,4.65.27,8.14-.69,12.44-2.26,3.52-1.29,6.19-4.67,9.68-6.22,3.4-1.51,5.29-6.98,6.25-10.35,1.31-4.67.66-9.28,1.41-13.99.18,0,.78.69.89.56.82-1.01-.98-5.45-1.13-6.7-.39-3.25,1.74-3.63,4.66-3.63-.74,1.43-.6,3.18-.95,4.72-.59.49-2.02,2.39-2.16,3.1-.37,1.81,1.67,1.93,2.89,1.3,1.21-.63,1.71-1.88,2.16-3.09.53-1.42.54-2.97.92-4.34.34-1.23.61-2.31.62-3.59-1.25-1.87-4.86-.75-6.64-.63ZM7.97,92.02c-1.54-.04-1.44-2.62-1.69-3.52-.46-1.68-.95-3.3-1.47-4.99.34,1.09.55-.26.14-.09.77-.54,2.18-.16,3.02-.22v8.82ZM13.65,60.51c.16.16-.23.4-.31.32-.16-.16.23-.4.31-.32ZM60.45,101.56c2.75-.26.87,5.07.51,6.5-.74,2.96-4.81,5.2-7.19,6.86-2.33,1.61-4.56,3.31-7.17,4.45-5.67,2.49-12.14,2.8-18.18,1.93-1.75-.25-3.41-1.11-5-2.03-1.09-.64-2.88-1.87-3.79-2.77-2.11-2.09-3.13-3.85-4.17-6.71-.5-1.37-3.14-7.61-2.11-8.82.2-.24,3.78,1.5,4.54,1.08,2.41-1.33-1.26-2.95-1.9-4.16-1.18-2.22-3.86-2.95-4.51-5.65-.64-2.65-1-5.36-1.19-8.08-.17-2.48.61-4.45.77-6.68.19-2.83,2.8-2.64,5.11-3.02,5.19-.85,10.63-1.11,15.81-1.33,10.59-.33.99-.03.06,0,6.84-.21,13.75.26,20.42,1.86,2.71.65,5.37,1.49,7.96,2.55,1.29,2.52,1.85,5.56,2,8.36.15,2.91.21,7.55-1.77,9.83-1.57,1.82-3.75,3.11-4.65,5.44.69,2.13,3.01.54,4.45.4ZM43.56,8.24c.03.1-.26.29-.21-.04-.21,1.26-.96,1.67-.94,3.15.02,1.92-.31,3.82-.27,5.71.06,2.7-.85,6.31.58,8.78,2.2,0,1.58-6.52,1.58-7.63,0-1.36.61-9.48-.74-9.98ZM43.36,8.2c.08-.01.14.01.21.04-.01-.04-.07-.06-.21-.04ZM27.88,9.15c.06.02.11.05.17.07.55.17,2.03.54-.17-.07ZM27.35,19.98c.13,2.13-.91,9.32,1.79,10.28,2.07-3.68.71-8.91.95-12.92-.81-2.05.61-7.16-2.04-8.12-.13-.04-.21-.07-.17-.07-2.38,0-.63,9-.53,10.83ZM56.94,10.72c-3.89-.24-4.75,14.5-2.84,16.7,1.23-1.53,5.65-16.79,2.84-16.7ZM56.94,10.72c.98-.03-.78-.05,0,0h0ZM51.18,39.77c-.74,2.41.33,2.28.71,4.35,2.24,0,2.32-1.39,2.84-3.46.29-1.23,1.2-2.16,1.27-3.47-1-.13-1.58,2.42-2.22,1.89.09-.87,1.17-2.5.33-3.24.28.42-1.28.76-.83.2-1.07.98-1.69,2.37-2.11,3.73ZM53.29,36.04s.08-.09.12-.13c-.05.05-.09.09-.12.13ZM53.41,35.91c.12-.1.24-.21.37-.3-.17.12-.28.21-.37.3ZM46.09,56.36c.09.21.13.43.12.68.02-.36-.03-.56-.12-.68ZM46.09,56.36c-1.41-3.15-14.91-1.17-16.95-.58,0-.73-1.89-1.26-2.84-1.26-1.33,1.39-1.03,1.58-2.89,1.69-1.13.06-2.28.73-2.48,1.93-.34,2.02,1.02.03,1.58.17-.32.95.82.57,1.26.63-.05.46.05.88.32,1.26,1.21.18,1.9-.33,2.85-.95,1.04.62,2.69-.53,3.84-.58,1.16-.05,2.25-.46,3.43-.36,1.31-.32.6,1.09,2.1.06.75-.52,1.86.12,2.64.25,1.39-2.14,4.66-1.05,6.86-1.48-1.36.23-.12-1.33.29-.78ZM29.14,65.87c-.24.07-.62,0-.63.32.25-.08.62-.01.63-.32ZM30.22,80.36c.07.2.14.4.18.64-.07-.5-.13-.65-.18-.64ZM30.4,80.99c-.26.33-.27-.6-.18-.64-1.49-4.36-10.74-2.13-11.34.94-.3,1.52,1.16,1.21,1.84.47.85-.93,2.82-.88,4-1.4,2.07,1.06,3.78,3.03,5.69.63ZM45.06,78.1c-1.77.57-3.19,2.71-1.39,4.15,2.37.29,3.01-2.27,5.49-1.59.81.22,4.1,1.98,4.8.74-.38.43-1.26-1.46.13-.41-2.61-1.96-5.7-3.96-9.04-2.89ZM54.1,80.99c-.01.12-.04.22-.07.31.03-.07.06-.17.07-.31ZM32.15,89.55c0-.07-.2-.11-.8-.05.31-.03.57,0,.8.05ZM32.4,92.61c1.03.81,1.35,1,2.67,1.1,1.96.16,4.8.62,6.44-.78.7-.59,1.73-2.71.09-2.54-.85.09-1.45.74-2.35.68-1.41,0-4.2.55-5.36-.33-.64-.48-1.07-1.01-1.75-1.19,0,.13-.75.34-.8-.05.17,1.48-.43,1.93,1.05,3.11ZM34.25,96.34c.58-.86-.16-1.09-.06-1.79-.04.31-.27-.15-.13-.09-1.86-1.48-6.16,1.82-7.77,2.3-1.39.33-3.01.58-4.11,1.58-.37,1.45-.33,2.95-.22,4.43.2,2.55-.57,11.37,2.3,12.97,3.38,1.89,1.59-3.26,1.39-4.79.22-2.63-.27-5.47-.28-8.13,0-.96-.04-1.97-.35-2.9.72-.21,1.44-.44,2.15-.69,1.42-.49,2.84-1.01,4.3-1.38,1.71-.43,1.9-.21,2.76-1.5ZM50.7,97.37c.14,2.51-2.85-1.88-.08-.62-2.55-1.16-5.23-1.99-8.02-2.33-1.92-.24-2.94-.42-2.96,1.9-.01,1.24.65,1.39,1.67,1.59,1.69.35,6.3-.41,6.02,1.74-.34,2.55-.71,5.16-.37,7.73.28,2.11-.66,5.96.49,7.79,1.52,2.42,2.64-1.62,2.91-2.28,1.04-2.5.46-5.62.51-8.27.05-2.4.15-4.85-.18-7.24ZM50.63,96.75c.04.21.05.41.08.62,0-.17-.03-.38-.08-.62ZM43.04,103.37c-2.18,0-4.53,1.22-6.92,1.07-.74-.05-8.1-1.49-6.03,1.45,1.56,2.22,5.62,1.58,7.92,1.56,2.1-.02,4.67-.85,5.01-3.11-.07-.35-.13-.96.02-.96ZM43.03,104.33c.08.39.18.47.02-.96.04.35.03.67-.02.96Z"/>
    </g>
  </g>
</svg>