<?xml version="1.0" encoding="UTF-8"?>
<svg id="Layer_2" data-name="Layer 2" xmlns="http://www.w3.org/2000/svg" viewBox="0 0 102 112.74">
  <defs>
    <style>
      .cls-1 {
        fill-rule: evenodd;
      }
    </style>
  </defs>
  <g id="food_icons" data-name="food icons">
    <g id="chef4">
      <path class="cls-1" d="M17.37,20.34s-.03-.04-.06-.04c-.02.04-.04.08-.06.12.04-.03.08-.05.11-.08ZM99.34,31.51c3.8-7.45,4.15-21.11-3.09-26.59-6.58-4.98-17.44-7.5-23.86-1.1-.41.41-1.03,1.89-1.7,1.81-1.04-.27-2.11-.45-3.17-.59-2.37-.3-4.76-.36-7.15-.38-5.14-.04-10,.44-15.06,1.36-4.98.92-9.97,2.12-14.63,4.14-2.01.87-3.84,2.24-5.94,2.77-2.27.57-4.48,1.35-6.6,2.34-7.89,3.7-14.41,9.63-16.79,18.15-.44,1.6-2.07,5.93-.99,7.36,1.31,1.73,1.57,3.25,2.2,5.38,1.11,3.74,3.21,7.85,6.55,9.88,1.37.83,3.24.79,4.88.47,1.05-.2,3.14-1.79,1.39-2.67-1.62-.81-1.38-2.16-1.71-3.84-.15-.76-.44-2.02-.12-2.77.29-.68.94-.9.88-1.75-.81-.31-3.04,1.59-1.66-.38.52-.74,2.76-3.2,1.66-4.09-.68.72-1.89.88-2.24,1.91-.1.26-1.19,1.82-1.38,1.88-1.44.44,1.71-4.48,1.7-4.43,1.07-1.29,2.2-2.34,2.24-4.14-.69-.14-3.47.55-3.4,1.45-.03-.42.61-1.23.52-1.77-.78-.24-2.21,1.36-2.56.95.53-.5.32-1.61.32-2.23-.56-.38-1.19.26-1.6-.32,1.18-1.29-.97-.66-1.15-.67-.73-.05,1.64-5.05,1.87-5.41,1.12-1.74,1.98-2.85,3.49-4.28.46-.43,3.42-2.47,4.96-3.53.03-.05.07-.09.09-.14.03,0,.08,0,.13-.01.43-.29.7-.48.7-.48.02.23-.44.43-.7.48-.03.02-.05.03-.08.05.13.23-.74,1.39-.11.08-.01,0-.03.02-.04.03-.87,1.5-2.97,1.86-3.42,3.68,3.98-1.12,8.26-6.91,12.51-5.89,1.54.37,3.55,1.39,4.11-.8.23-1.74-1.57-1.5-2.56-2.23,12.46-5.84,26.03-7.64,39.64-7.97.93.12,3.53-1.25,2.61.87-.45,1.06-1.29,2.08-.69,3.28-1.17,1.65-2.67,4.44-1.28,6.37,1.13-.26,4.59-5.02,4.16-6.06-.64-1.56,1.35-4.55,2.44-5.85,4.25-5.07,14.02-1.2,18.46,1.65,4.49,2.89,4.67,8.96,4.67,13.77-.69,6.56-2.89,11.91-7.56,16.53-3.31,3.28,2.27,2.51,4,.85.46-.44,2.57-3.35,3.08-3.35.85,0-1.36,4.89-1.62,5.31-1.17,1.83-2.28,2.54-4.14,3.57-1.91,1.05-4.15,1.36-6.22,1.96-1.64.06-3.56-.34-5.12.32.1,1.84,5.41,1.6,6.7,1.61,4.58.05,9.48-2.23,11.89-6.13,1.21-1.96,1.55-3.62,1.55-5.89,0-2.02-2.03-2.66-1.08-4.52ZM21.47,17.74c-.16-.16.23-.4.32-.32.16.17-.24.41-.32.32ZM22.11,17.43c-.17-.17.23-.41.32-.32.16.17-.23.41-.32.32ZM72.22,13.91c-.43.59-.91,1.14-1.36,1.71-1.07,1.39-1.59,2.92-1.44,4.69,1.13.05,2.48-3.27,3.18-4.1.3-.35,2.61-3.59,1.45-3.56.19.03-.33.38-.15.01-.36.73-1.18.55-1.68,1.26ZM73.25,17.43c-.96,1.09-1.56,2.2-2.32,3.32-.31.45-.66,2.42.4,2.1,1.19-.2,3.1-4.83,1.92-5.42.29.14-.65.74,0,0ZM38.41,64.29c-.41.52,6.49-.21,0,0h0ZM73.34,40c.85.39,1.68.83,2.48,1.33-1.73-1.11-2.39-1.4-2.48-1.33ZM79.22,71.98c-1.51-.02-.68-.94.43-1,.18-.46.5-.78.96-.96.03-.78.11-1.55.26-2.32.23-1.35.5-2.82-.26-4.06-1.07-.32-2.5-.09-3.52.32-.1-2.05-2.42-4.23-3.91-1.83-1.49,2.4-2.14.41-4.4-.08-5.51-1.17-11.17-1.57-16.8-1.64-5.89-.08-11.8.24-17.66.9-2.48.28-4.96.62-7.42,1.06-.16.53-2.98,1.68-3.52,1.6.01-3.21-.39-6.41-1.19-9.52-.36-1.39-.78-2.76-1.25-4.11-.47-1.37-1.62-2.62-.23-3.51,5.01-3.22,10.92-4.8,16.77-5.61,6.83-.95,14.95-1.3,21.78-.35,2.95.41,5.95.23,8.88.78,1.35,0,6.67.81,7.67-.32-.44.49-2.65-1.19-2.48-1.33-5.33-2.42-11.73-2.73-17.39-3.32-7.34-.77-15.65-.46-22.85,1.2-3.24.74-6.87,2.05-9.72,3.77-2.08.97-6.25,3.21-6.71,5.74-.43,2.37,1.16,6.34,1.92,8.61.45,3.18.6,6.42,1.28,9.56-.87-.28-3.9-2.99-3.83-.63.04,1.2-1.4,3.07-.33,4.14-.2.03-5.09-1.94-3.45.78.33.33.73.5,1.21.49.26.57.58,1.1.96,1.59.59.76,1.97-.12,2.56.64-1.98,2.21-2.68,3.74-2.14,6.82.41,2.37,1.91,3.94,4.38,4.03,1.66.07,1.59,3,2.09,4.56.44,1.41.97,2.78,1.59,4.12,1.16,2.52,2.65,4.88,4.39,7.04,4.01,4.96,9.13,8.79,15.05,10.93,2.93,1.06,5.68,2.42,8.84,2.66,2.78-1.1,4.96-3.24,7.67-4.46,2.37-2.43,5.25-4.13,7.58-6.65,2.3-2.49,4.3-5.23,6.19-8.03,1.72-2.56,4.42-5.59,4.13-8.9,2.35-.35,4.1-1.99,5.53-3.68,1.46-1.72,3.32-4.78,1.6-6.86-1.12-1.35-2.99-2.15-4.67-2.18ZM18.59,75.13c.84,1.29.48,3.78.96,5.42-2.05-.14-1.94-4.16-.96-5.42ZM75.49,79.03c0,2.82-1.18,5.69-2.25,8.27-1.6,3.86-5.2,7.64-8.3,10.46-2.95,4.4-7.94,6.42-12.13,9.35-1.45,1.01-2.05,1.98-3.86,1.43-1.24-.38-2.47-.81-3.69-1.26-2.4-.9-4.94-1.93-7.18-3.19-2.14-1.22-3.17-3.91-4.51-5.9-1.23-1.85-2.45-3.71-3.36-5.74-2.15-4.81-3.03-9.78-4.6-14.78,0-1.95-.84-6.23.26-7.87.92-1.36-.34-2.93-1.86-2.97,1.46-1.13,3.59-1.19,5.35-1.36,2.47-.24,1.75-.1,3.13,1.2.59.56,3.87-.3,4.81-.25,3.15.18.34-1.17,1.1-2.14,6.6-.21,13.23-1.09,19.82-.32-2.95,3.48,5.41,2.85,6.7,2.54,1.73-.42,1.6-1.9,3.21-1.73,1.17.12,2.35-.14,3.52-.17-.72,1.59-1.69,2.23-1.4,4.06.07.48.03,2.64.93,2.54,1.04-.11,1.31-1.15,2.22,0,.51.64.82,1.36.87,2.19.12,2.07.61.71,1.22,2.04v3.59ZM77.09,81.82v-7.33c1.65-.1,3.34.12,4.79.96.35,2.43-2.39,5.9-4.79,6.38ZM77.09,81.82c1.52-.3,0-2.45,0,0h0ZM77.41,40.7c-2.48,0-2.07,8.18-2.37,10.07-.34,2.12-1.74,7.56.77,8.86,2.85,1.47,3.49-7.6,3.5-8.96.01-2.14,1.2-9.3-1.82-9.93-.08-.02-.12-.03-.08-.03ZM77.41,40.7s.05.02.08.03c.36.07,1.58.25-.08-.03ZM29.46,46.75c-1.63-.25-1.68-.1-1.27.09.34-.13.75-.17,1.27-.09ZM27.54,55.05c1.5.89.73,2.5,1.27,3.97.55,1.5,2.33,2.41,3.53,1,1.11-1.3,1.01-3.41,1.16-5,.26-2.65-2.07-6.47-4.05-8.26.75.68-.71.36-1.27.09-1.83.69-1.21,4.04-1.36,5.75-.04.44-.3,2.61.72,2.45ZM46.08,87.56c1.82.11,3.83-1.18,5.45-1.9,2.06-.92,1.92-3.31-.66-2.89-1.65,2.04-1.99-.5-1.95-1.88.1-3.94.03-9.61-1.89-13.1.41.75-.63,1.01-.6.66-1.73,2.55-.99,9.22-.99,11.58s-.75,5.56.64,7.53ZM47.04,67.8c-.44.31-.59.53-.6.66.18-.26.37-.49.6-.66ZM62.55,74.08c2.59-.63,2.95-4.65-.14-5.03-1.61-.2-1.97,1.38-1.96,2.71,0,1.07,1.28,2.01,1.29,2.42,0-.15.53-.14.81-.09ZM62.55,74.08c-.25.06-.52.1-.81.09,1.12.03,1.1-.05.81-.09ZM37.49,71.96c-.11.2-.56-1.5-.04-.98-2.71-2.77-5.84,1.06-3.52,3.51,2.18.63,3.47-.51,3.56-2.53ZM37.45,70.98c.04.34.05.67.04.98.04-.07.04-.34-.04-.98ZM64.58,82.9c.4.27-.87.82-.92-.12.14,2.73-.73,4.37-3.2,5.63-2.16,1.1-4.34.55-6.66.87-1.34.18-4.06-1.9-4.47.37-.28,1.54,1.12,2.36,2.41,2.71,3.18.85,8.71-.27,11.34-2.04,1.62-1.09,3.22-2.54,3.16-4.63-.04-1.32-.52-2.43-1.66-2.78ZM63.66,82.78c.35-.01.65.04.92.12-.12-.08-.4-.14-.92-.12ZM33.09,83.82c.07-.03.12-.06.2-.08-.21.06-.24.08-.2.08ZM46.08,89.79c-.73-.97-3.59-.19-4.53-.06-2.59.35-4.16-.66-6.33-1.85-.14-.33-1.89-3.61-1.94-4.08-.08.01-.15.02-.18.02-3.4,1.25-.7,7.03,1.38,8.41,3.07,2.03,6.18,1.33,9.31.37.76-.23,3.27-1.71,2.3-2.81ZM33.29,83.74s-.02.02-.02.06c.18-.03.37-.09.02-.06ZM55.03,94.57c-2.33,0-4.48.79-6.96.61-2.14-.16-4.78-.67-6.78.35,1.08,3.06,5.73,2.58,8.26,2.54,1.33-.02,6.2-.46,5.73-2.83-.17-.24-.39-.67-.24-.67ZM55.27,95.24c.18.26.29.31-.24-.67.13.24.2.46.24.67Z"/>
    </g>
  </g>
</svg>