<?xml version="1.0" encoding="UTF-8"?>
<svg id="Layer_2" data-name="Layer 2" xmlns="http://www.w3.org/2000/svg" viewBox="0 0 82.42 117.02">
  <defs>
    <style>
      .cls-1 {
        fill-rule: evenodd;
      }
    </style>
  </defs>
  <g id="food_icons" data-name="food icons">
    <g id="chef2">
      <path class="cls-1" d="M82.38,19.32c-.63-5.14-4.16-8.66-8.09-11.48C64.34.71,50.42-1.3,38.41.77,26.14,2.89,14.47,7.46,4.06,14.28c-1.76,1.15-3.49,3.82-3.93,5.9-.57,2.72.88,4.41,1.78,6.79,1.79,1.25,3.06,3.12,5.28,3.66.49.12,3.17.57,2.25-.83.04.06-.82-1.34-.62-1.17-1.63-1.35-2.68-2.1-2.79-4.6-.06-1.36.15-2.71.03-4.07.54-.23.8-.78,1.05-1.27.39-.78.87-1.35,1.82-1.28.59-.86,1.5-1.41,2.35-1.96,1.69-1.1,3.31-2.33,5.03-3.39,3.83-2.37,8.57-3.92,12.81-5.36,4.72-1.59,9.85-2.52,14.82-2.8,9.54-.56,17.11,1.77,26.09,4.24,1.58.43,3.31.45,4.24,1.79.5.72,1.17,1.29,1.76,1.93,1.26,1.35,2.48,3.86,2.96,5.66.79,2.98,0,4.47-2.28,6.29-.43.86-2.37,1.35-2.1,2.46-.04-.55,1.66.41.57.43,4.02.2,7.7-3.26,7.2-7.35ZM74.79,26.65c-.1-.15-.15-.28-.18-.41,0,.09.06.22.18.41ZM75.18,26.67c-.13,0-.26,0-.38-.02.16.02.28.02.38.02ZM36.95,16.44c-2.77-.08-8.61.24-10.52,2.73-2.83,3.7,8.18,1.75,9.68,1.75,1.99,0,11,2.57,11.48-.54,0-.07.01-.14.02-.2.01-3.47-8.36-3.66-10.66-3.73ZM47.62,20.28s-.02.06-.03.09c-.03.41-.06.83.03-.09ZM47.61,20.17s.01.07.01.11c.03-.52.01-.38-.01-.11ZM41.23,60.76c-1.05,1.4,1.07,0,0,0h0ZM10.27,73.91c-.02.08-.04.16-.05.24,0,.1.01.21.02.31.02.04.04-.45.03-.55ZM69.04,18.36c.13.26.23.53.32.81.07.05.02-.12-.32-.81ZM74.28,65.53c-.33-.08-2.67.26-2.68.02.92-.74.49-2.36.79-3.29.32-.98.14-1.87-.93-2.04-.9-.14-2.74,1.76-3.06,1.18-1.13-3.54,1.18-9.32,1.62-12.9.68-5.62.99-10.57.32-16.17-.29-2.46-.68-5.03-.66-7.5.02-1.79.24-3.88-.32-5.66-.11-.09-.52-.81-.32-.81-3.95,0-1.44,15.41-1.48,18.44-.06,4.39-.65,8.74-1.15,13.09-.25,2.13-.46,4.27-.57,6.41.14,1.5.46,2.95.32,4.46-7.86-3.78-17.24-4.2-25.8-3.75-8.55.45-17.35,1.87-25.34,5.02,0-6.7,1.01-13.63,2.05-20.29.6-3.8.19-7.93.19-11.78,0-1.47.95-7.11-2.09-6-2.24.82-2.55,4.46-2.81,6.45-.43,3.36-.53,6.7-.53,10.08,0,7.38,2.05,14.81,1.28,22.18-.86-.41-3.03-3.03-3.68-.8-.43,1.48-2.03,1.23-3.35,2.08-.08,1.48,1.83,2.73,2.93,3.13,2.27.84,2.5.61,2.5,3.24-1.64-.34-2.33-1.1-3.43.56-.61.92-1.18,1.84-1.36,2.95.07,2.66.57,5.27,1.31,7.82.77,2.66,1.18,4.3,3.65,5.78,1.41.85,2.58,2.22,3.03,3.93.58,5.27,5.33,9.1,8.24,13.29.65.93,1.68,2.19,2.95,2.33.56.67.92,1.49,1.92,1.59,1.44,1.64,3.29,2.49,4.85,3.9,3.52,3.21,7.98,5.28,12.7,4.28,2.73-.57,4.86-2.94,7.39-4.04,1.02-2.08,2.79-3.59,4.55-5.02,2.07-1.67,3.53-4.5,5.22-6.59,1.53-1.9,3.05-3.82,4.29-5.92.23-1.28.69-12.32,1.28-12.43-.16,1.35.57,2.07,1.92,1.91.96-.15,1.5-1.51,2.12-2.13,1.82-1.8,2.86-5.31,3.16-7.79.32-2.65,1.73-4.93.8-7.66-.36-1.05-.76-1.31-1.8-1.56ZM12.46,84.99c-1.64-1.11-1.17-4.3-1.58-5.92-.34-1.39-.6-3.14-.64-4.61,0-.01-.01-.1-.02-.31.03-.25.04-.29.05-.24.14-.73.46-1.38.91-1.99.39-.06,1.61,11.79,1.28,13.07ZM68.08,81.8c-.33-1.5-1.24-2.5-.96-4.14-.96.41-.63,2.1-.64,2.87-.58.62-.74,1.54-.85,2.34-.32,2.28-.92,4.5-1.26,6.78-.35,2.34-1.39,4.83-2.66,6.85-.76,1.21-1.77,1.92-2.34,3.23-.42.96-.94,1.88-1.53,2.75-2.37,3.49-5.87,8.39-9.78,9.93-3.43,1.35-9.51,1.63-12.13-1.36-1.21-1.38-2.47-2.77-3.68-4.11-1.19-1.31-2.74-1.96-4.07-3.45-1.88-2.12-3.82-4.22-5.46-6.53-1.47-2.08-1.42-4.15-2.1-6.54-.64-2.27-1-4.57-1.46-6.87-.45-2.26-1.83-4.14-1.89-6.52-.06-2.91-.86-5.77-.72-8.68.02-.43.69-2.6.14-2.79-.54-.19-1.14.18-1.68,0,1.55-1.74,7.17-2.08,9.4-2.42,4-.62,8.01-1.39,12.02-2.04-.67,1.22-2.03,1.76-2.98,2.72-1.13,1.15-.72,2.73,1.06,2.05,2.32-.88,5.25-3.13,6.72-5.1h3.19c-.4,1.57-2.57,2.5-3.31,3.95-1.02,1.98,1.38,2.58,2.71,1.58,1.84-1.4,3.2-2.84,4.53-4.7.57-.8,3.27-1.16,4.28-.43-.04-.03-1.5,2-1.51,2.24-.02,1.84,1.96.7,2.53-.27.34-.57.56-1.22,1-1.74,1.23.13,2.44.33,3.66.53,2.07.35,4.14.68,6.24.74-.13.16-2.46,2.27-2.24,2.23.07,1.4-.01,2.8-.03,4.21-.02,1.6-.73,6.29,1.63,6.63,1.69.06,1.1-4.02,2.56-4.78.13-.47-.43-2.09.32-2.23-.24-1.1,1.17-.45,1.28-1.27.75.74-1.55,4.44,1.74,2.96,1.19-.54,2.21-2.3,3.7-1.69-.95,3.27-1.38,11.88-5.44,13.07ZM53.68,46.65c.01.13.02.26.02.4,0-.17,0-.29-.02-.4ZM23.18,47.16c-.83,1.99,4.23.13,5.04-.2,2.67-1.07,5.64-.87,8.45-.85,2.99.02,5.86-.11,8.84,0,1.59.05,2.79,0,4.29.58,1.12.43,2.34.87,3.52.51-1.18.3.21-1.79.37-.54-.49-4.4-12.47-3.21-15.33-3.74-3.02-.06-6.45-.29-9.27.96-1.57.37-5.22,1.65-5.9,3.29ZM24.6,67.46c0,2.28,4.69,2.15,6.05.39-.07-.28,0-1.07.34-.71-1.32-1.4-6.39-2.41-6.39.32ZM31,67.14c-.05.26-.18.5-.34.71.05.19.18.14.34-.71ZM54.33,77.66c2.71-.29,2.99-4.09,1.92-6.38-4.33-3.35-6.5,6.15-1.92,6.38ZM30.04,72.24c.09.13.17.29.25.45.07.05.05-.02-.25-.45ZM30.04,72.24c-3.65-1.49-4.81,1.54-3.92,4.95.55,2.08,2.48,1.89,3.93.65,1.04-.9.94-3.65.23-5.14-.12-.09-.48-.55-.25-.45ZM42.51,89.92c2.27-.05,1.84-2.54.31-3.34-1.16-1.35-3.11.54-2.69-2.04.31-1.93,2.07-10.08.21-11.28.12.16-.11.37-.08-.07-.04.75-1.22,2.01-1.39,3.08-.31,1.96-.56,4.02-.78,6.03-.23,2.15-2.36,3.83-1.34,6.2,1.41.74,4.18,1.46,5.76,1.42ZM52.73,95.19c-.06.21-.14.41-.22.59.08-.17.16-.36.22-.59ZM52.24,95.2c-2.99,0-5.73,1.28-8.7,1.37-3.22.09-6.49-1.32-9.67-.42.33,3.56,7.13,3.19,9.59,3.19,2.69,0,7.26-.58,8.85-3.22-.94,1.3-2.23-.78-.08-.92ZM44.24,104.7c-1.09-.44-2.51-.39-3.64-.26-1.16.14-1.96,1.38-.5,1.7,1.03.22,3.58.69,4.2-.47-.22-.2-.49-1.03-.06-.97ZM44.3,105.67c.15.14.26-.01.12-.91.06.38,0,.68-.12.91Z"/>
    </g>
  </g>
</svg>