<?xml version="1.0" encoding="UTF-8"?>
<svg id="Layer_2" data-name="Layer 2" xmlns="http://www.w3.org/2000/svg" viewBox="0 0 83.51 114.47">
  <defs>
    <style>
      .cls-1 {
        fill-rule: evenodd;
      }
    </style>
  </defs>
  <g id="food_icons" data-name="food icons">
    <g id="chef5">
      <path class="cls-1" d="M83.02,92.64c-.38-1.4-2.18-3.01-3.72-2.83-.34.04-2.53-.19-2.57-.31.05-1.67-.88-2.91-1.28-4.46-.61-.18-2.39-1.73-2.78-2.24-.42-.54.87-4.42.87-5.41,0-3.95-2.24-6.98-5.43-8.93,1.01-1.7,2.36-2.07,2.08-4.3-.21-1.64-.09-3.36-2.23-3.32-2.46.05,1.62,4.14-1.12,5.39-.19-.96.38-1.62.32-2.55-1.38.28-3.83,3.57-5.01,2.02-1.45-1.92.02-3.81.91-5.58.58-1.16,2.72-2.45,2.88-3.87.21-1.79-1.37-2.63-2.94-2.45,1.56-1.98-4.04-1.91-4.69-1.91-2.25,0-4.59-.48-6.78-.99-2.36-.55-4.66-1.36-7.04-1.91-.8-.19-4.04-.35-4.19-.92,2.5.15,5-.06,7.41-.7,2.54-.67,5.52-.29,8.11.04,1.98.26,5.48.42,6.23,2.02.74,1.56,3.69.93,5.23,1.58,2.25.96,2.45,3.02,1.77,5.16-.35,1.11-1.6,6.25,1.04,3.51,3.08-3.2,2.44-9.14-1.77-10.72-1.3-.48-2.68-.73-4.05-.91-.07-1.31-.03-2.63.07-3.94.21-2.65-.2-5.2-.07-7.85.15-.66-.5-2.49.32-2.87.64.19,1.11.69,1.76.88,1.96.56,4.82-.32,6.58-1.21,1.77-.89,3.21-2.28,4.36-3.88,1.62-2.24,1.27-4.12,1.89-6.68,1.12-4.66-3.77-7.31-7.55-7.92,1.6-4.98-2.93-10.36-7.14-12.33-2.42-1.13-5.5-1.7-8.13-.67-1.35.53-2.55.86-3.53,1.96-.47.52-.94,1.02-1.57,1.31-.09.06-.22.11-.41.16C48.3.12,38.34-.14,33.73.04c-6.44.25-11.47,2.89-15.64,7.7-1.14,1.32-1.73,2.23-2.34,3.82-.49,1.27-1.97,1.03-3.18,1.35-2.16.57-4.26,1.51-5.95,2.99-3.94,3.46-4.04,8.23-4.04,13.09,0,2.7.97,5.42,2.69,7.49,1.01,1.21,3.69,3.62,5.3,1.9.7-.75.93-1.61,1.55-2.37,1.1-1.34-1.23-1.03-1.88-1.03-1.98,0-3.06-2.68-3.59-4.39-3.59-11.63,6.9-15.45,16.38-15.38.02-2.58-6.12-1.65-1.25-5.16,3.29-2.38,7.59-3.29,11.48-4.08,4.19-.12,7.84-.15,11.71,1.72,1.44.7,6.45,5.43,7.8,4.66,1.14-1.01.69-3.07.24-4.29-.63-1.72.42-1.87,2.03-2.85,3.03-1.85,7.94-1.09,10.62.99,2.37,1.85,4.52,5.34,3.44,8.5-.32.92-1.28.9-.89,1.95.28.39.26.77-.08,1.12-.51,1.38-1.75,2.29-1.92,3.82,3.39.06,3.58-5,6.71-3.82.37.75,1.39.8,1.96,1.65.73,1.08,1.26,1.92,1.31,3.25.06,1.7-.19,3.44-1.07,4.91-1.55,2.63-4.62,3.75-7.4,4.6-1.58.47-3.05,1.59-3.45-.36-.28-1.37-1.88-2.51-2.42-.53-.5,1.83-.12,4.23-.12,6.09s-.4,3.43-.36,5.15c.02.88.22,1.82.02,2.7-.26,1.12-1.42.23-2.17.04-2.16-.53-3.75-1.19-6.04-1.33-8.87-.54-16.97,1.99-25.65,3.16-.02-1.41.09-3.35-.96-4.46-.54.5-.32,1.62-.32,2.23-.48.38-.9.8-1.28,1.28-.06-.46.35-2.79-.12-2.99-.38-.17-.2,2.25-.2,2.36-1.7-.69-.24,1.93-1.6,1.59.7-.66.19-4.33-.96-4.48-.51-.06-.41,1.26-.96,1.29-.21-2.02-.44-4.03-.32-6.06-2.64.8-4.34-2.65-3.2-5.1-.76-.92-1.64.07-2.22-1.75-.3-.96-.42-2.42-1.62-2.71.17,1.6-1.09,2.51-.8,4.28.28,1.74.72,3.44,1.08,5.16.72,3.44.79,6.94,1.17,10.41.4,3.64-5.83,4.88-8.19,3.03-1.46-1.15-1.9-1.82-2.74-3.34-.66-1.19-2.28-.76-2.74.35-1.34,3.25,1.09,7.88,3.18,10.29.94,1.08,2,2.62,2.65,3.94.69,1.39-.29,3.15-.35,4.64-.05,1.27.5,2.26,1.53,3.11,1.7,1.42,2.01,1.78,2.01,4.05.3.57.18,2.06,1.36,1.72.8-.23.85-2.07,1.2-2.68,1.28,1.27,3.37.62,3.97,2.03.36.83,1.32,1.05,1.78,1.79,1.18,3.11,3.28,5.71,4.91,8.59,1.87,3.31,5.04,6.38,7.56,9.26,1.78.44,3.34,1.46,5.11,1.92.8.05,2.23-.34,2.88.32-.1-.41,8.14-2.35,9.27-3.19,5.72-2.45,10.29-7.33,12.93-12.89,1.21-2.53,2.48-5.2,3.28-7.88.31-1.03.62-2.19,1.4-2.98.91-.92,1.76.42,2.42,1.16,1.67,1.87,2.39,4.26,2.39,6.75,0,2.49-1.83,4.42-1.96,6.92,1.02.16,1.54-.8,2.56-.64.74.6,1.33,1.36,1.78,2.18.68,1.21,1.09,2.54,1.41,3.88.95-.03,1.91.06,2.82.38,4.91,1.71,4.5,8.55-.58,9.82-.31-1.16-.06-3.44-1.6-3.82-.61,2.83-1.39,5.81-3.18,8.16-1.44,1.9-4.48,1.98-6.72,2.36-5.35-.46-8.79-3.83-12.47-7.33,1.3,3.82,4.01,6.8,7.34,9,3.54,2.33,7.69,2.06,11.32-.15,1.05-.64,3.15.47,4.67.72,1.62-.4,3.13-1.23,4.28-2.44,2.77-2.9,1.34-5.91,2.46-9.07.63-1.8.31-3.76-.13-5.44ZM12.17,70.05c-.55-.15-.87-.3-1.03-.43-1.5-.84-2.3-2.47-1.87-4.28.4-1.71,2-.55,3.43-.43,1.21.11,2.42.11,3.63.04-1.11,2-4.83,1.69-4.16,5.1ZM16.64,71.97c-.67-.12-1.31-.33-1.92-.63.01-3.46,2.41-2.22,1.92.63ZM16.49,61.43c-2.1.09-3.34-1.16-5.28-1.58-1.04-1.5-2.51-2.7-3.53-4.19-1.34-1.94,1.23-1.95,1.3-.91,2.1-1.07,3.9-.52,6.2-1.18,1.8-.52,3.68-2.33,5.46-2.33,1.43,0,3.38-.85,4.78-1.24.46-.13,4.84-1.21,3.76-.26-1.01.88-2.25,2.68-3.39,3.08-2.47.85.14,2.32.76.97,1.59-.55,2.76-1.31,4.15-2.37.86-.66,1.55-.59,2.11-1.59.23-.49.55-.91.93-1.29,0-.04.05-.09.16-.18,1.05,0,4.39-.68,4.16.64-1.75.47-2.81,3-3.62,4.36-2.36,3.93-7.32,5.85-11.4,7.76-2.2-.18-4.36.21-6.54.3ZM61.53,74.65c-2.46,6.85-8.04,13.73-14.68,16.85-2.75,1.29-8.93,3.62-11.7,1.64-2.99-2.14-5.83-4.86-7.32-8.42-1.55-.92-2.32-3.12-2.83-4.75-.18-.58-.29-1.44-1.01-1.63-.06-.59.07-1.51-.4-2-.95-.99-1.27-3.46-2-5-.23-.49-1.07-4.06-1.23-4.12-.33-.13-.59.86-.98.64-2.15-1.21,2.4-3.61,3.13-3.74,1.12-.2,3.72-1.13,4.65-1.9,4.36-3.6,8.93-6.6,12.58-11.03.16-.19.28-.34.23-.27.22-.28.32-.6.32-.96.45-.1,3.51,1.93,4.27,2.22,1.82.71,3.71,1.25,5.61,1.7,4.11.98,8.31,1.55,12.5,2.13-.17,1.78-1.42,2.81-2.44,4.13-.89,1.15-1.26,3.69-1.08,5.12.47,1.92,2.24,1.68,3.2,2.87,0,2.46-.01,4.24-.83,6.51ZM80.26,104.8c-.61.48-2.69,2.28-2.88,2.87-1.29.04-2.54.12-3.84,0,1.05-1.45,2.38-2.69,2.88-4.46,1.91-.28,3.29-1.46,4.8-2.55.95.13-.8,3.71-.96,4.15ZM33.9,48.38c-.06.05-.11.12-.16.18-.03.21,1.24-.18.16-.18ZM50.85,5.02c.15-.04.27-.1.41-.16.62-.4-.95-.88-.41.16ZM11.13,69.62c.32.18.65.33,1.03.43-.22-1.13-1.61-.91-1.03-.43ZM14.72,71.33c.6.25,0-.85,0,0h0ZM39.98,50.93c-.07.09-.16.18-.23.27-.4.49-1.02,1.3.23-.27ZM76.42,103.21c-.54,1.9,2.14-.31,0,0h0ZM31.67,36.9c1.07-2.33,1.54-10.55-1.92-11.47.42.11-.1.43,0,0-.49,2.1.76,3.71.84,5.85.07,1.63-.41,4.46,1.07,5.62ZM30.07,45.83c.05-.79.06-1.55-.64-1.59.14.6-.44,1.92.64,1.59ZM47.01,57.31c-.08,2.07,5.21,2.35,5.44.32-.69-1.35-4.35-1.24-5.44-.32ZM48.63,66.21c1.86,2.65,5.32-3.08,2.5-5.2.03.11-.73-.12-1.21-.3-2.29.18-2.46,3.82-1.28,5.5ZM49.91,60.72c.28-.02.59,0,.93.09-1.7-.46-1.49-.3-.93-.09ZM50.85,60.81c.11.06.19.14.28.21,0-.03-.09-.1-.28-.21ZM29.43,61.45c-.79,1.33-1.72,4.84.03,5.83.27-.03.98.01,1.21.08,2.5-1.04,2.7-7.22-1.24-5.91ZM30.07,67.5c-.24-.04-.43-.13-.61-.23-.2.02-.14.09.61.23ZM30.67,67.35c-.19.08-.39.13-.6.15.7-.05.78-.1.6-.15ZM43.17,71.97c-.04.27-.14.52-.28.73.1,0,.2-.19.28-.73ZM42.82,71.74c.15.07.27.14.35.23-.16-.17-.27-.23-.35-.23ZM42.9,72.7c-.22,0-.4-.97-.08-.96-1.53-.73-6.14-.41-4.43,1.38,1.06,1.1,3.64.93,4.51-.41ZM34.71,102.69c-.6.25.03,2.57-.57,3.19-.8.84-.88,1.62-2,2.33-2.13,1.36-5.32,2.64-7.83,2.64-1.95,0-5.64-.71-6.4-2.87.71-.25,5.27-3.01,4.16-4.14-1.43,1.36-3.43,1.95-5.32,2.35-1.57.33-3-.29-4.59-.12-.3-.58-4.81-2.29-5.11-1.91,1,1.15,2.55,3.34,4.08,3.74.74.2,1.9.1,2.42.78,1.24,1.62-5.06,2.61-6.15,1.76-4.11-3.22-6.11-10.43-2.91-14.88.21.1,4.02,2.91,2.84.2-.4-.91-1.82-1.54-2.37-2.42-.66-1.05.24-7.61,1.77-7.34.13,1.69.89,3.12,2.09,4.29,1.54,1.5,2.26,1.77,4.41,1.77,1.64,0,2.67-.41,4.06-1.16.62-.33,2.01-2.06.95-2.67-1.56,2.77-7.03-.56-8.16-2.06-.95-1.26-1.42-4.04-.78-5.47,1.03-2.3,2.19-2.19,4.14-3.62-1.04.77-1.42-.37,0,0-3.44-.89-5.79.2-6.71,3.82-.37,1.47-.33,2.96-.32,4.46-.74.19-1.08.86-1.41,1.47-.57,1.1-1.46,2.04-1.65,3.35-.16,1.12-.64,1.52-.21,2.69.38,1.04-.68,1.31-1.24,2.01-1.18,1.48-1.73,3.39-1.87,5.25-.27,3.49,1.07,6.75,2.7,9.69,1,1.79,2.58,3.02,4.46,3.82,2.28.96,3.51-.24,5.56-1.07,1.4-.57,2.33-1.8,3.61-.78.75.6,1.61,1.08,2.49,1.45,1.99.85,4.18,1.21,6.34,1.24,3.28.04,7.97-2.27,9.27-5.4.38-.9,2.9-7.5.23-6.38ZM49.89,78.34c-.52.07-.31.85-.53,1.15-.16.21-1.44.67-1.71.77-.24-.15-.37-.24-.43-.3-1.02-.8-1.72-1.96-3.09-2.25-1.49.25-2.58,1.19-3.84,1.92-.48-2.12-3.25-.5-4.11.2-.85.69-.95,1.66-2.14,1.17-.72-.29-1.32-.81-2.06-1.05,0,3.5,1.75,2.89,3.96,4.63,1.75,1.38,4.13,1.58,6.28,1.43.02-.1,2.29-1.52,2.56-1.69.86-.55,1.37-2.18,2.23-2.45,1.02,0,2.12.17,2.88-.64.41-.36.09-1.18.96-.96-.13.86.12,1.58.96,1.91,1.17-1.61.16-3.92-1.92-3.83ZM40.64,82.47c-.56-.13-.64-.55-1.13-.43-.81.19-.72-1.35-.49-.82-.09-.21.31.05.58.27,1.65.46,3.25-1.64,4.85-.59-.92.82-2.53,1.87-3.82,1.58ZM39.6,81.48c-.19-.05-.39-.14-.58-.27,1.04.71.9.52.58.27ZM47.22,79.96c.14.11.28.21.43.3.38-.14-.68-.55-.43-.3ZM76.1,95.56c-.09-.09-.49.15-.32.32.09.09.49-.15.32-.32Z"/>
    </g>
  </g>
</svg>