<?xml version="1.0" encoding="UTF-8"?>
<svg id="Layer_2" data-name="Layer 2" xmlns="http://www.w3.org/2000/svg" viewBox="0 0 72.26 92.31">
  <defs>
    <style>
      .cls-1 {
        fill-rule: evenodd;
      }
    </style>
  </defs>
  <g id="food_icons" data-name="food icons">
    <g id="cherry">
      <path class="cls-1" d="M71.6,72.2c-.87-2.9-2.75-5.31-5.55-6.58-3.82-1.73-7.39-.71-11.33-.13,2.53-3.08.3-9.71-.5-13.1-.99-4.19-2.34-7.98-4.15-11.83-1.87-3.98-5.42-7.86-8.87-10.45-.6-.45-3.3-2.72-3.69-3.13-.1-.02-.14-.04-.05-.07,7.3.34,14.07-5.7,15.34-12.75.21-3.91-.91-7.62-1.28-11.47-.32-.71-1.08-.8-1.6-1.28-.11-.32-.21-.64-.32-.96-.94-.92-1.66-.16-2.55-.32-6.85.64-11.67,7.54-14.01,13.32-.55,1.35-1.23,2.8-1.52,4.24-.12.57-.53,2.84-1.09,3.16-.03,1.33.17,2.87-.32,4.14-.8-.3-2.15,1.17-2.56.64-4.53-.7-2.72,5.86-3,8.48-.39,3.68-.55,7.32-1.15,10.96-1.14,2.87-1.88,6.64-2.42,9.7-.3,1.71-2.76,7.1-.77,8.47,5.13.59,6.72-11.88,7.35-15.3.62-3.47,1.09-6.83,1.35-10.37.11-1.46-.61-8.2.57-9.08,7.2,4.56,13.24,10.77,17.2,18.33,2.07,3.97,2.39,8.97,2.75,13.38.07.82.02,4.44,1.46,4.63.15.37,1.28,1.46,1.28,1.75,0-.03-4.18,2.6-4.58,2.96-.84.75-2.54,2.26-2.44,3.57-1.06.44-1.03,3.89-1.03,4.67.01,1.96.19,3.95.76,5.84,1.33,4.42,6.04,6.09,9.86,7.98,1.55-.29,3.21.36,4.88.07,1.77-.3,3.51-.82,5.1-1.65,6.33-3.33,8.88-11.22,6.9-17.86ZM39.63,18.24c1.63-1.36,4.17-2.95,5.4-4.71,1.69-2.43-.86-4.04-2.89-2.34-1.81,1.51-4.65,4.07-5.63,6.17-.89-.43,2.26-5.87,2.68-6.49,1.07-1.59,2.04-2.97,3.54-4.2.46-.38,3.66-2.18,3.69-2.38,1.12-.16,2.1,8.52,1.75,9.71-1.12,3.9-3.46,5.67-6.55,8.14-.36.12-.57.17-.69.19-2.38.61-4.9.53-7.3,1.08-.04-3,4.12-3.6,6-5.17ZM66.41,80.98c-3.3,2.54-6.67-.2-4.32-3.71,1.97-2.95-1.37-4.58-1.3-7.3-.08.64-.2,1.43.01-.32.05-.27.05-.26.04-.12.41-1.8,2.54-2.06,3.98-1.33,1.5.76,2.2,2.37,2.89,3.81,1.27,2.65,1.34,6.95-1.29,8.98ZM60.8,69.64c-.01.11-.01.21-.01.32.02-.18.04-.34.05-.44-.01.04-.03.08-.04.12ZM40.92,22.33c.23-.06.46-.12.69-.19.95-.76-1.37.3-.69.19ZM37.46,26.92s.02.03.05.07c.49.09,2.55.05-.05-.07ZM11.57,63.9c-.06-.27-2.32.03,0,0h0ZM17.32,69.96c-.03.31,0,.62.05.91.12-.43.27-1.61-.05-.91ZM21.24,64.66c-.99-.36-9.9-1.82-9.67-.76-3.8.04-7.08,2.54-9.22,5.47-2.87,3.94-2.52,7.82-1.97,12.38,1.96,2.62,2.92,5.76,5.12,8.29.58.26,4.73,1.93,4.79,2.23,2.33.1,4.69.04,6.99-.41,8.19-1.61,13.13-12.26,11.11-19.7-1.04-3.83-3.44-6.18-7.15-7.51ZM7.09,76.65c.75.1.71.99,1.28,1.28-.72,1.1-1.26-.62-1.28-1.28ZM22.15,84.38c-3.79,2.32-5.29-2.38-3.28-4.99,2.53-3.27-1.03-5.59-1.51-8.51-.08.28-.15.24-.05-.91,2.03-4.39,7.53,1.69,7.83,4.2.43,3.46.45,8.12-3,10.22Z"/>
    </g>
  </g>
</svg>