<?xml version="1.0" encoding="UTF-8"?>
<svg id="Layer_2" data-name="Layer 2" xmlns="http://www.w3.org/2000/svg" viewBox="0 0 111.24 91.68">
  <defs>
    <style>
      .cls-1 {
        fill-rule: evenodd;
      }
    </style>
  </defs>
  <g id="food_icons" data-name="food icons">
    <g id="chickenleg">
      <path class="cls-1" d="M9.37,73.07c-.02-.06-.04-.12-.06-.2-.1,0-.06.09.06.2ZM11.87,38.13s0,0,0,0c-.01.02-.02.03-.03.04.01-.01.03-.02.04-.03ZM15.68,78.66s.02-.03.02-.05c-.05,0-.04.02-.02.05ZM111.19,17.25c-.27-2.36-1.17-4.64-2.78-6.41-3.19-3.53-8.32-4.32-12.79-3.32,1.5-12.09-18.92-8.35-15.03,2.35.65,1.81.42,1.74-1.07,3.11-1.16,1.07-2.37,2.11-3.61,3.1-1.25,1-2.54,1.95-3.85,2.85-.66.46-1.34.9-2.02,1.34-.36-.33-.78-.55-1.26-.66-1.88-.33-6.34,2.09-8.07,2.99-2.82,1.48-6.44,1.47-9.57,1.94-5.46.81-10.52-.79-15.79.11-3.12.53-6.03.66-9.13,1.62-2.98.92-5.88,2.11-8.64,3.57-4.82,2.54-9.87,5.93-13.47,10.05-1.9,2.17-3.31,4.7-4.07,7.48-.1,1.5,0,3.02.37,4.48.38,1.5,1.57,1.83,2.83,2.53-2.62,3.39-1.2,10.46,0,14.12,1.25,3.82,3.47,7.16,5.86,10.35,1.55,2.06,4.24,3.05,6.29,4.54-.46,1.93,1.79,3.43,3.09,4.43,4.13,3.16,8.52,3.86,13.59,3.86,5.44,0,10.29-1.86,14.76-4.91,1.65-1.13,3.09-1.73,4.75-2.66,1.76-.98,2.85-2.17,4.18-3.73,1.54-1.79,2.61-3.85,3.76-5.88.96-1.69,2.48-3.24,3.09-5,.83-2.38.88-3.8.51-6.31-.34-2.28.48-4.95.84-7.22,2.8,2.25,4.38-.12,5.17-2.87.41-1.44.95-2.83,1.37-4.26.49-1.67.98-2.51,1.69-4.01.88-1.89,13.95-9.62,8.72-13.09-.37,1.17-2.01.52-2.74.21-1.22-.52.18-.8.18-1.48-2.02.38-2.35-1.25-2.24-2.87-.13,1.83-1.19.2,0,0-1.68.28-5.87,1.83-7.03-.64-.78-.82-.23-2.76.58-3.25,1.22-.74,2.01-.12,2.62-1.46,1.28-2.85,4.42-3.91,7.25-5.1,2.69-1.13,3.85-3.78,5.86-5.82-1.83-1.22-1.3-4.54-1.28-6.38,1.6-1.45,2.11-2.31,4.47-2.27,2.92.04,3.56,1.51,4.16,4.23.39,1.75,1.07,3.4-.06,4.9-1.09,1.45,3.06.09,3.4-.12,1.74-1.03,3.5-1.19,5.41-.58,3.84,1.22,6.18,4.45,5.3,8.51-1.34-.84-1.48,1.43-2.01,2.12-1.12,1.45-1.5-.92-2.46-.85-.03.84.77,1.9-.64,1.91-1.05.31-1.04-.55-.96-1.28-1.13-.3-.29,1.43-1.28,1.28-.21-.59-.14-1.72-.96-1.91-.57.52-.28,1.81-1.22,1.97-1.82.32-.36-1.63-1.34-1.97-.19-.59.6-2.74-.64-2.55-.93.54-1.23,2.24-1.28,3.19-.23,4.09-5.19-4.36-6.16-1.68-.85,2.32-1.09-.06-2.15,1.04-.27.64.89,1.55,0,1.91-.07-1.45-.91,0-1.28.32-.53-.49-.26-1.66-1.28-1.59-.26,1.35,1.19,4.15-.64,4.78-.64-.22.11-1.5-.64-1.59-.68.75-.03,2.59-.25,3.47-.19.74-1.05.79-1.02,1.63,1.05-.15,1.45.5,2.29.9,1.38.65,2.57-.63,3.57-1.39,1.3-1.01,2.57-2.07,3.94-2.99,1.71-1.15,1.1-.3,2.33.46,1.87,1.15,5.56.47,7.74.47,1.57,0,3.03-.44,4.57-.73,1.52-.29,2.3-1.43,3.69-2.14,1.4-2.48,2.81-4.15,2.46-7.17ZM6.43,66.81c.02-.14,0-.52-.06-1-.18-.33-.52.16-.15.74-.92-1.19-.77-3.14-.74-4.52.33-.07.74,2.33.9,3.78.08.15.13.46.06,1ZM11.61,76.31c-.82-.57-1.82-2.18-2.22-3.23,0,0-.02-.01-.02-.02.3,1.02-.43-.17-.06-.2.02.07.05.14.08.21.37.31,1.38.84,1.83.74-.15.87.74,2.11.64,2.55,1.64.33,2.56-1.42,2.56.96-1.16-.56-1.76-.29-2.81-1.02ZM15.73,78.69s-.04-.03-.05-.04c-.09.18-.34-.02.02-.05,0,.02.01.05.03.08.25.19,1.27.69,1.25,1.51-.16-.05-1.11-1.17-1.25-1.51ZM69.59,30.77c1.02-.17,2.31-.74,3.34-.29-.09,1.27-1.16,2.24-.33,3.52.4.61,1.04.97,1.73,1.14.79-.16,1.07.13.85.86,1.54,3.25-2.11,3.95-4.3,5.58-1.05.77-5.03,14.74-7.7,11.81-2.92-3.22-2.08,1.63-2.08,3.8,0,3.66-1,5.41-2.24,8.69-.77.56-1.03,2.47-1.5,3.29-.51.87-.97,1.58-1.73,2-1.52.83-.98.04-2.53.14-.79.27.2,1.5.64,1.59-1.53,1.97-3.17,3.85-4.79,5.74-.24-.12-.54-6.83-2.52-2.32-.48,1.1-.3,4.61-1.96,4.23.53-1.31.39-3.64-.96-4.46-1.97.22-1.23,2.87-2.4,3.38-1.15.51-1.3,1-2.39,2.03-.22,1.02-.21,2.72-1.6,2.87v-2.55c-1.2.03-1.81.84-2.25,1.84-.33.76-1.85.58-1.59,1.35-.91-1.27.37-3.1.32-4.46-1.83-.59-2.38,3.1-2.88,4.14-.84-.64,0-2.1-.64-2.87-.69.43-1.62.57-1.6,1.59-.82-.11-.18-1.51-1.28-1.28-.05-1.22,1.26-2.34.32-3.51-1.08.45-1.68,1.45-1.92,2.55-.79-.95-.52-2.41-.96-3.51-2.08.15.32,4.12.32,4.78-1.57.26-1.89-2.44-2.07-3.52-.43-2.68-1.54-3.14-2.09-.31-.34-.45-.62-3.11-.79-3.15-.41-.1-.56.97-.97.87-.13-.03-.48-3.4-.47-3.78-.75-.12-.96.98-1.59.32.15-.85-.21-1.43-.32-2.23-.46-.04-.68.17-.64.64-.65-.05-.15-1.06-.64-1.27-.65.05-.15,1.06-.64,1.27-1.63-1.68,1.34-5.45-.96-7.01-1.97.82-.59,4.08-1.92,5.42-2.34-1.98.6-9.63.96-12.11-3.23.51-1.93,5.58-3.2,7.65-1.4-1.24.34-4.32,0-5.74-.7-.08-1.38.09-1.28.96-.77-.32-.06-2.8-.18-2.79-1.25.13.21-2.9-.93-3.6-1.92-1.19.73-1.62.03-2.84-.77-1.35-2.75-.18-3.08.94-2.53-1.69.77-7.38,1.93-8.91.49-.64,4.26-3.79,5.7-5.07.01-.02.03-.03.04-.05,0,0,.02,0,.03,0,.31-.28.5-.45.49-.48,0,.09-.32.48-.49.48,0,0-.01.01-.02.02.21.11-1.11,1.55-.04.03,0,0,0,0,0,0-1.31,1.83-3.04,2.82-2.84,5.37,2.18.12,5.68-4.47,7.03-5.9,1.26-1.33,2.37-2.64,3.63-3.94.98-1,1.72-2.21,3.4-2.28-.27.37-3.3,4.35-2.66,4.36.96.02,2.79-2.1,3.55-2.61,1.4-.96,2.67-3.23,4.56-3.35,1.21-1.41,4.06-.47,5.12-1.59,2.57,0,5.14-.16,7.71-.18,5.39-.05,10.72-.01,16.02-.6,1.64-.18,3.51-.58,5.04-1.13.29-.1,3.19-1.55,3.2-1.59,1.08,1.57-1.99,4.3.64,5.42,1.22.52,1.97.86,3.37.62ZM76.44,27.29c.46-.2-.03-.39,0,0h0ZM76.44,27.29c-.27-.06-.3.12-.32.32.27.06.3-.12.32-.32ZM79.32,31.11c.25-.07.63,0,.64-.32-.25.07-.63,0-.64.32ZM39.68,34.3c-.72.08-1.59.09-1.28-.96h-3.36c-1.81,0-3.32,1.31-4.68,2.46-.92.77-1.86,2.59-3.15,2.64-.8,1.31-2.31,2.03-2.88,3.51,2.16-.52,3.18-3.45,5.11-4.46-.12.42-.23.84-.32,1.27.42.12,1.86-.65,1.92-.32h-.32c.11,0,.09.52,0,0-.04.34-.15.66-.32.96,1.6-.08,2.35-1.61,3.83-1.91-.17,2.06,5.54-1.43,5.43-3.19ZM32.76,35.11c-.02-.33,1.25-.84,1.48-.81-.37-.05.06-.95,0,0,.07-.38.24-.46.52-.24.21.21-2.02.86-2,1.05ZM57.9,34.62c.31.07.56.2.77.38-.05-.13-.27-.27-.77-.38ZM61.41,45.46c1.92-1.1-.97-2.39-1.04-3.74-.13-2.51-.89-.43-1.83-1.68,1.01-1.07,1.42-3.95.13-5.04.18.43-1.4.78-.77-.38-1.49,2.74-2.49,5.17-2.24,8.29.61,1.46,1.59.52,1.92,2.33.33,1.83,1.3,1.49,2.88,1.49-1.54,1.74.08,4.04,2.24,3.51.47-1.07,1.02-1.97.96-3.19-.45-.96-1.48-1.02-2.24-1.59ZM42.23,34.94c-1.6.42-2.51,1.53-3.51,2.55,2.03,0,2.9-1.15,3.51-2.55ZM44.47,36.85c-.37.05-.91-.06-.96.32.38-.05.91.06.96-.32ZM44.79,46.41c-.74-.14-.38-.99-1.43-1.16-.51-.04-1-.19-1.45-.44,1.01.51-.35,1.45-.12.39-.62,1.76-.79,3.86-.52,5.67,1.11.41,2.73,1.1,3.84.32.49-1.56-.7-3.15-.32-4.78ZM38.08,47.05c-.1.39.05,1.97.32.96.1-.39-.05-1.97-.32-.96ZM38.08,49.28c-.37.68-.92,3.74.64,3.51-.63-.75.09-2.85-.64-3.51ZM49.9,56.35c-1.24.38-2.87.7-3.44,2-.5,1.13.4,1.91,1.26,2.35,1.02.52.3,1.13.94,1.94.95,1.19,2.74.31,3.1-.96-.14.04-.31-1.66.07-.28-.29-1.02.03-5.65-1.93-5.04ZM51.83,61.39c0,.1-.05.19-.07.28.03,0,.05-.09.07-.28ZM30.87,61.07c.14.04-.27.29-.21.11-.25.43-.28,1.08-.89,1.16-.39-1.53-1.6.57-2.24-.32-.36,1.15-.74,2.58-2.02,3.03-1.18.42-1.28,1.17-1.8,2.4-.56,1.31-.85,2.58.55,3.13,1.11.44,2.25,1.05,3.28.04.76.59-.12,1.96.64,2.55,1.04.17,1.72-.29,1.88-1.32.06-.52.08-1.03.04-1.55.52-.11.92-.4,1.19-.85.46-.78.45-1.79.41-2.66.75.17.64.9,1.6.64.12-1.02.06-2.04-.26-3.02-.28-.85-.96-3.37-2.16-3.36Z"/>
    </g>
  </g>
</svg>