<?xml version="1.0" encoding="UTF-8"?>
<svg id="Layer_2" data-name="Layer 2" xmlns="http://www.w3.org/2000/svg" viewBox="0 0 114.56 96.51">
  <defs>
    <style>
      .cls-1 {
        fill-rule: evenodd;
      }
    </style>
  </defs>
  <g id="food_icons" data-name="food icons">
    <g id="chinesefood">
      <path class="cls-1" d="M59.86,43.44c-.62,1.3,2.02,0,0,0h0ZM41.32,42.81c-4.08,3.26,4.82.3,0,0h0ZM93.43,53.65c.16.19.24.27.27.3-.09-.1-.19-.2-.27-.3ZM98.86,3.92c.11,1.17.05-1.53,0,0h0ZM61.14,80.42c.11,1.17.82-.03,0,0h0ZM71.05,43.44c-1.66,1.31,1.93,0,0,0h0ZM114.21,15.07c-.9-.82-.69-2.06-2.36-1.95-2.54.17-3.64,1.28-5.5,2.93-2.05,1.82-4.42,3.28-6.61,4.92-2.48,1.86-5.05,3.61-7.7,5.21-2.09,1.26-3.79,3-5.96,4.19-6.78,4.65-13.83,12.44-23.01,9.88,6.36-6.88,12.35-13.98,18.39-21.13,2.93-3.47,6.39-6.4,9.9-9.28,1.71-1.41,3.41-2.8,5.18-4.12.61-.45,2.43-.84,2.34-1.81.05-1.54-3.36-3.87-4.81-3.92-2.07-.06-5.01,5.1-6.59,6.52-5.23,4.68-8.13,11.63-13.05,16.53-2.38,2.37-5.1,5.43-6.88,8.28-2.65,1.95-4.85,5.06-7.01,7.53-2.61,2.99-8.24,1.71-11.88,1.71-1.33,0-4.39.7-5.06-.77-.47-1.01-1.26-.55-1.91-.06-.45.34-2.46-4-2.84-4.83-.69-1.54-1.93-2.86-2.95-4.23-1.73-4.91-6.14-2.57-9.95-1.29-7.2,2.42-13.59,4.7-20.68,7.42-1.95.75-2.81.95-4.45.82-1.26-.1-.65,1.04-.72,1.66,1.45.56,3.02,2.37,4.25,3.41,1.97,1.65,3.76,3.5,5.75,5.1,1.26,1.02,2.58,1.96,3.84,2.97,1.24,1,2.25,1.09,1.02,2.46-1.58,1.77-3.09,3.6-4.75,5.3-2.12,2.17-5.37,4.97-5.86,8.1-.4,2.52,9.37,2.08,11.42,1.98-.04,3.68,2.24,7.83,3.21,11.36,1.11,4.03,2.08,8.95,3.93,12.57,1.13,2.21,10.79,2.15,13.34,2.33,3.08.22,6.16.29,9.25.2,2.21.76,4.52,1.26,6.85,1.4,4.05.24,7.26-2.13,10.76-3.92,1.98-1.01,4.02-2.33,5.87-3.64.86-.61,1.73-1.21,2.68-1.68,1.39-.7,1.47-1.48,2.03-2.93.91-2.36,1.78-4.74,2.62-7.11.67-1.89,1.06-4.31,2.12-6.02,2.95,3.51,12.81-4.71,14.83-6.96,1.32-1.46,2.53-2.73,3.8-4.03,1.48-1.52,1.91-2.63.73-4.31-1.77-2.53-3.5-4.64-5.68-6.79-1.81-1.78-3.77-3.27-5.65-4.96-1-.89-1.61-1.81-2.67-2.42-.45-.26-1.52-.37-1.84-.71-.9-.97-.66-1.16-2.2-1.04-.54.04-1.57.21-1.97-.33,4.74-2.28,9.11-6.32,14.07-7.97.17-.83,2.99-2.22,3.73-2.65,1.4-.81,3.05-1.66,4.31-2.77,3.07-2.73,7.63-5.35,11.33-7.13,1.11-.53,2.46-.84,3.32-1.79.15-.85-.21-1.43-.32-2.23ZM90.2,7.72c.07-.23.2-.44.15-.14.06-.06.12-.11.19-.17,1.05-1.79,4.27-5.47,5.44-4.14-.69.65-3.74,2.65-5.44,4.14-.15.26-.26.49-.31.65-.15-.03-.86.64-.84.81-.02-.26.3-.67.81-1.15ZM71.05,43.44c1.83,0,3.6-.51,5.44-.32-1.86,1.42-3.94,2.53-5.87,3.82-1.07.72-3.02,2.21-4.36,2.24.51-1.78-1.99-2.06.06-3.02,1.65-.77,3.3-1.59,4.73-2.72ZM57.65,45.83c.6-.93,1.73-1.36,2.22-2.38h6.07c-1.01,1.24-2.69,1.77-3.52,3.19-.94-.59-1.87-.34-2.82.07-.79.35-3.03.76-1.95-.88ZM56.35,43.13c-.34,1.39-1.41,2.64-2.54,2.89-1.45.33-2.03-.74-3.36-.63-1.66.14-.5-1.08-2-1.08-1.04,0-1.78-.78-2.69-.42-1.11.44-1.73-.45-2.9.2-1.04.57-1.88,1.09-3.13.95-1.62.84-6.15,1.84-6.08,4.14.72.47,3.79-1.42,4.66-1.73,1.29-.46,1.07-.62,2.47-.63.62-.03,1.19-.22,1.7-.59.85-.56,5.83-.25,6.51,1.35,1.96-.5,3.22.91,5.15.35,1.44-.42,2.39.58,3.48,1.24,1.35.21,2.34-.61,3.8.04,1.13.5,2.6.22,3.87.6-.14,1.39-2.68.3-2.56,1.91-1.56-.78-.8-1.59-2.94-1.61-1.8-.01-3.6-.01-5.41,0-3.17,0-6.33.03-9.5.04-6.2.02-12.4,0-18.59-.34,4.79-2.74,10.65-3.52,15.03-7.01,5,.31,10.01.4,15.03.32ZM14.15,46c1-2-.46-1.83-1.39-.33-.92,1.49-2.49-.14-2.76-1.27-1.15-1.2-2.28-1.83-3.63-2.71-.72-.47-2.79-1.7-2.76-2.71,2.9-.07,5.69-1.61,8.4-2.39,2.79-.8,5.44-1.8,8.23-2.57,2.94-.81,5.88-2.43,8.94-2.7,1.88-2.05,3.43-.73,5.12,0,.43.52.64.79.73.93,1.67,2.2,4.85,6.83,3.98,8.3-1.36,2.3-4.7,3.02-7.27,4.1-3.57,1.5-7.11,3.08-10.55,4.85-.98.27-.63-1.59-1.84-.82-.59.38-.54,1.34-1.35,1.46.11-.81.5-2.85-1.17-1.82-.39.24-.77,1.09-1.3,1.05-1.88-.14,1.38-3.21-1.38-3.38ZM20.22,63.85c-1.06.31-2.03.91-2.56,1.91-.65-.21,0-.81-.02-1.18-.02-.73-.78-.16-.94-.73-1.76-.12-2.2,1.41-2.26-.71-.06-2.21-4.65,2.62-4.94,2.62-1.32,0,1.26-3.14,1.39-3.29.89-1.01,2.24-2.42,2.61-3.72,1.35-1.2,2.28-2.78,3.25-4.28,1.11-1.72,2.05-2.14,4.1-2.42,13.18,1.05,26.43.91,39.64.96-2.65,2.36-5.05,5.01-7.55,7.53-1.72,1.73-4.52,6.31-6.86,6.02-2.15-.27-4.31-.58-6.47-.81-1.13-.12-3.75.21-4.68-.41-2.06-1.36-3.27.1-5.78.1.24-.31.45-.62.64-.96-1.15.19-4.01.93-5.02.65-1.26-.36-.45-.76-1.91-.22-.66.21-1.34.39-2.02.53-1.17.2.21-1.18-.64-1.59ZM39.4,91.26c.14-.39.41-.65.96-.64-.14.39-.41.65-.96.64ZM41.96,91.58c0-1.5,1.51,0,0,0h0ZM57.62,92.86c-.16-.17.23-.41.32-.32.17.17-.23.41-.32.32ZM58.58,90.94c-.57-.23-.05-.58,0-.96.57.23.04.58,0,.96ZM54.43,93.81c-1.23.2-2.3-.47-3.52-.32,0-1.12.42-1.62-.92-1.84-1.07-.17-2.55-.47-2.91.88-1.12,0-2.07-.64-3.2-.64.64-1.75,1.57.28,2.68.02.89-.21,1.97-.58,2.75-.97-.15-1.33-.51-1.64,1.07-1.61.84.02,1.77-.85,2.15-1.56,1.16-2.17.38.03,1.9-.34.95-.45.6-1.82.32-2.55-.76-.1-4.78.61-4.67,1.77-.14-1.63,1.46-4.19,1.8-5.91-1.44.04-1.7,1.45-2,2.56-.61,2.2-1.92.32-3.11,1.59.32.86,1.51.87,2.24.96.46,2.73-2.18.84-2.9,1.61-1.03,1.1,1.43,3.04-.98,3.05-1.04,0-2.23-1.25-3.21-.68-.37.21-1.3,1.01-1.45.08-.29-1.88-3.37,0-3.92,1.04-1.14-1.33-1.52-1.49-3.1-2.12-.93-.37-1.12-1.59,0-1.87.69-.17,2.04.02,1.97-1.07-.04-.64-.84-.69-.93-1.17-.06-.31,1.15-.05,1.18.73.03.69-.14,1.37-.14,2.05,0,.84,1.5,2.97,2.14,1.52.69-1.55.49-3.29.49-5.1-.31-.69-2.43-3.25-2.24-.96-.87-.88-2.59.29-3.39-.36-.52-.43-.3-1.37-1.35-.72-1.49.93-.5,4.13-.69,5.54-1.46-.19-1.91.5-2.78-.31-.7-.65-1.34-.86-1.83-1.78-.36-.68,1.5-4.58.14-4.28,0-.74.51-1.12.32-1.91-.84-.13-1.25.28-1.59.96-.89-.16.2-1.88-1.28-1.28.05-1.01,1.07-1.08,1.64-1.68.73-.77-.55-1.45-.04-2.46-.57-1.11-2.46-.54-2.24-.64-.33.14.27-.58.31-.52.52-1.03.58-2.12.65-3.3-1.04-.18-1.86.3-2.88.32.17-1.1-1.21-2.17.5-2.48,1.38-.25,2.83-.04,4.23-.04,2.39.01,4.79.17,7.25.23,3.21.08,6.4.37,9.58.82.95.13,3.4,0,3.64,1.11.17.79.59,1.26,1.52,1.06,1.24-.26,2.84-3.79,3.7-4.72,1.75-1.89,3.54-3.66,5.25-5.57,1.73-1.94,4.08-4.16,5.33-6.26.48-.81,2.12-2.85,3.43-1.68.06,1.21-2.58-.31-1.1,2.29.87,1.51-.82,4.96-.82,6.64-1.17,5.33-1.79,10.86-3.47,15.99-1.72,5.24-2.82,11.02-5.49,15.89ZM62.1,79.15c-1.37-1.02,1.55-3.84,1.92-4.46-.08-.48-.88-.11-.95-.58,0,.07-.01.09-.01-.05.04-.62.04-.37.02-.13.14-.96,1.04-1.28,1.9-1.46-.42,1.41-.57,2.88-.78,4.32-.25,1.66-1.05,1.24-2.09,2.37ZM60.5,82.97c.32-.88.73-1.57.64-2.55.73.04,1.37-.17,1.92-.64,1.07,1.71-1.14,2.98-2.56,3.19ZM60.18,84.57c.06-.36.32-.18.32,0-.06.36-.32.18-.32,0ZM62.1,90.31c-.17-.16.23-.41.32-.32.17.17-.23.41-.32.32ZM62.88,87.83c-.45.68-2.3,2.92-2.26,3.28-.03-.31.46-1.45.84-1.45-.1,0-.26-.9,0,0-.21-.73.44-.91.32-1.59-.65-.17-1.08.04-1.28.64-1.36-1.07,3.63-3.7,4.48-3.83,1.11,2.29-1.32,1.76-2.09,2.95ZM64.02,83.29c.08-.77,1.84-5.32,2.56-5.42-.33.05-.31-1.05-.09-.32-.03-.24.08-.3.33-.19.09.09-.75,2.67-.81,3.14-.17,1.23-.48,2.71-1.99,2.8ZM75.96,71.94c-.73.83-.74,1.95-1.07,2.99-.74,2.3-1.81,4.48-2.56,6.77-.35-.22-.46-.54-.32-.96-1,.76-.46,2.77-2.24,2.55.26-1.42.79-3.43,0-4.78-1.17,1.49-.55,7.81-3.52,7.01,1.15-4.32,2.43-8.61,2.88-13.07-.36.36-1.42,2.42-1.91,3.45,0,.02,0,.04,0,.06-.01,0-.01,0-.02,0-.14.3-.23.5-.22.51-.21-.27-.14-.44.22-.51,0,0,0,0,0,0-.78.03-.03-1.16.05-.52-.03-1.44-1.13-2.2-1.07-3.59.04-.93.67-1.67.73-2.59-1.33.34-2.33,1.21-3.2,2.23-.54-.83-.19-1.9.04-2.75.35-1.32-.15-1.71,1.09-2.18,1.17-.44,1.5-1.75,2.07-2.72-.87-.69-1.87.67-2.24,1.28-.71-.21,1.13-7.12,1.28-7.97,2.65,2.48,4.81,5.41,7.16,8.17.84.99,2.52,2.1,2.42,3.45-.08,1.02-.1,1.22,1.3,1.13.03.83-.32,1.43-.84,2.03ZM79.05,44.2c1.85-1.81,2.23-.05,4.15-.43.92.96,1.27,1.62,2.44,2.14.49.22.84.57,1.08,1.05,2.25,1.44,5.27,4.45,6.71,6.69-.73-1.14.44.43.27.3,1.74,1.84,4.71,3.38,1.37,5.72-2.19,1.54-4.57,2.97-6.8,4.58-2,1.45-3.96,2.97-6.16,4.14-1.73.91-1.52-.08-2.53-1.38-.49-.62-.99-1.23-1.5-1.83-2.24-2.59-4.46-6.45-7.34-8.33-.43-.82-1.09-1.49-1.92-1.91-.22-.86-.75-1.54-1.28-2.23.96-1.54,2.44-2.65,3.87-3.71,1.47-1.08,2.36-1.69,3.98-2.28,1.66-.6,2.37-1.24,3.67-2.51ZM106.85,18.58c-.71-.63,3.33-3.13,3.52-3.83,4.88-.26-2.71,3.11-3.52,3.83ZM110.37,14.75c-.27,1.01.79-.04,0,0h0ZM90.23,8.06c.07-.23.1-.38.12-.48-.05.05-.1.09-.15.14-.05.16-.06.32.03.34ZM41.96,91.58c.21,0,0-.21,0,0h0ZM22.78,74.05c.25-.36.32-.5.31-.52-.09.18-.19.35-.31.52ZM63.06,74.05s0,.03.01.05c0-.05,0-.12.01-.19,0,.05-.02.09-.02.13ZM35.02,32.26c-.3-.4-.56-.72-.73-.93-.47-.2,1.05,1.42.73.93ZM20.86,52.05c-1.03.14,12.54,1,0,0h0ZM67.24,75.45c0,.15,0,.3-.03.47,0,0,0,0,0,0,.03-.21.03-.35.02-.46ZM67.19,75.96s.01,0,.02,0c0-.02,0-.03,0-.05,0,.02-.01.03-.02.05ZM55.07,72.45c-.06.23-.3.64-.62,1.12.18-.05.42-.35.62-1.12ZM54.74,72.48c-1.22.15-1.42,1.49-2.55,1.89-.3-.77-1.72-.84-2.23-.32-.12.8,3.31,2.46.64,3.51-.62-1.1-1.07-2.11-2.56-1.91-.24,1.59,1.39,2.29,1.28,3.83-1.66-.07-4.65,1.91-4.71,3.7-.04,1.39,3.04-.85,3.39-1.08,1.03-.68,1.64-1.29,2.6-1.98.59-.19,2.75.6,2.56-.64-.37-.68-1.44-.39-1.99-.83-.35-.28,2.08-3.27,3.28-5.06-.38.1-.53-.92.29-1.09ZM33.53,73.9c.04-.06.07-.12.12-.17-.08.08-.11.13-.12.17ZM41.39,79.07c-2.24-.53-3.34-.52-5.02-2.11-1.54-1.46.52-3.41-2.73-3.23.66-.04-.17.36-.12.17-.47.7-.15,1.97-.2,2.7-.92.8-1.94,1.47-2.88,2.23-.4.22-5.37,2.36-2.15,2.59,1.42.1,3.58-1.24,4.64-2.08,1.76-1.39,2.33.65,4.22,1.32,1.43.5,3.75,1.5,5.28.88,1.94-.79.08-2.2-1.05-2.47ZM64.02,86.8c.47-.2-.03-.39,0,0h0ZM51.99,91.96c.16.12-.12.21-.12-.06-.07.23-.18.44-.32.64.3.17.62.28.96.32.02-.43-.16-.73-.52-.9Z"/>
    </g>
  </g>
</svg>