<?xml version="1.0" encoding="UTF-8"?>
<svg id="Layer_2" data-name="Layer 2" xmlns="http://www.w3.org/2000/svg" viewBox="0 0 86.12 113.49">
  <defs>
    <style>
      .cls-1 {
        fill-rule: evenodd;
      }
    </style>
  </defs>
  <g id="food_icons" data-name="food icons">
    <g id="chocolate">
      <path class="cls-1" d="M40.09,0c.22.26.6.8,1.07,1.5.06-.03-.18-.42-1.07-1.5ZM32.42,34.75c.03.18.09.36.14.53.59,1.73,1.59-1.55-.14-.53ZM19.63,13.07c.22,1.59,2.58-.21,0,0h0ZM20.91,20.72c-.41-.02.35,1.67,0,0h0ZM69.73,89.24s.05.02.09.02c0-.07-.04-.06-.09-.02ZM86.12,85.44c-.55-1.05-1.05-2.13-1.62-3.17-.95-1.72-1.18-3.37-2.1-5.02-2.08-3.74-3.69-7.78-5.72-11.57-2.14-4.01-4.57-7.86-6.86-11.8-.57-1.01-6.27-9.63-2.19-8.59,2.75.7,8.85.95,10.02-2.33.72-2.02.18-3.1-.96-4.9-.95-1.51-1.72-3.92-3-5.01-1.16-.99-1.95-2.35-3.55-2.67-1.99-.4-3,1.8-3.82,3.24-1.36,2.38-2.53,2.1-5.13,2.1-.82-.14-1.98.65-2.75.6.24.02-.28-4.6-1.92-4.72-2.52-.19-.61-1.87-.77-2.9-.93-1.27-1.56-2.73-2.24-4.14-.52-.33-1.3.14-1.83.17-2.62.12.26-2.77.24-3.35-1.42-1.48-2.32-6.07-4.35-5.86-1.82.19-2.56-1.66-1.21-2.74,1.22-.97-2.99-7.98-5.2-11.26-.12.06-1.58-1.5-1.07-1.5-3.27,0-5.35,2.13-8.18,3.63-1.02.54-3.31.95-3.62,2.13-.2.77-.43,1.4-1.36,1.46-1.27.08-1.74-.33-3,.25-.91.42-1.89.65-2.81,1.02-1.44.59-2.85,1.36-4.23,2.07-1.63.84-.88,1.13-.94,2.75-.18,5.56-3.83,8.1-8.92,9.14-1.43.29-1.65.34-.97,1.5.48.82-.46.85-.92,1.31-2.09,2.09.7,2.34,1.38,3.42-.89.77-2.11,2.02-2.97,2.52-1.16.67-1.02.98,0,2.41,1.67,2.32.32,2.77-1.72,3.62-1.72.71-2.2,3.54-1.54,5.04,2.22,5.05,5.42,10,8.16,14.79.04,2.04,1.58,3.31,2.09,5.17.16.6.3,1.38.79,1.84.16.21.9.2.94.49.05.39-8.84-1.2-6.41,2.03.86,1.15.52,1.65.33,2.98-.2,1.39.35,3.41.69,4.76.2.81.54,1.66,1.25,2.17.01.68.08,1.36.19,2.04.27,1.44.99,3.05,2.68,2.53,1.44-.45,2.66-1.4,4.16-1.7,1.16-.94,1.43-2.54,2.56-3.51,1.3,1.47,1.96,4.81,3.95,5.3,1.43.35,1.5-.29,2.38,1.09.6.94,1.28,1.83,1.93,2.74,2.54,3.52,5.25,8.04,6.44,12.22,2.44,4.02,3.69,8.68,6.07,12.75.8,1.28,1.21,3.08,2.88,3.51,1.41.04,1.95-1.37,3.51-.96,1-1.74,3.52-1.45,4.8-2.87,2.3-.76,4.29-1.92,6.44-3,1.88-.94,3.42-2.38,5.1-3.61,1.78-1.3,3.86-2.15,5.78-3.22,4.06-2.25,8.73-3.96,12.46-6.7,1.78-1.3,6.89-2.69,5.92-5.68-.23-.71.6-1.07.74-2.03ZM26.16,12.62c2.37-.38,3.01-.52,3.93,1.91.57,1.48,1.54,2.74,2.15,4.24.71,1.74.57,2.1-1.56,2.78-.85.27-4.93,2.12-5.54,1.57-.76-.67-.91-1.59-1.67-2.19-2.23-1.76-3.47-5.11-3.84-7.86,2.18-.17,4.37-.11,6.53-.45ZM18.42,35.14c-1.18,1.29-.05-3.5-.07-3.58-.91.33-.39,1.94-1.6,1.91-.09-.62-.28-1.36-.96-1.59,1.23-1.95,4.52-3.05,6.36-4.37,2.83-2.02,3.59.16,4.82,2.77-.65-1.37.81,1.21,0,0,.81,1.21,1.01,2.91,2.24,3.83-.53.99-1.66,1.38-2.56,1.91-.92.74-5.65,4.7-5.17,1.47.2-1.32-2.32-3.17-3.07-2.35ZM25.69,38.72c1.3-.88,2.55-1.82,3.85-2.7-2.41,1.65,1.45,1.66.33.32,1.47,1.58,4.02,6.46,3.11,7.79-1.72,2.52-5.58,2.79-7.6,4.96-.77-.29-1.44-2.62-1.72-3.39-.47-1.3-1.51-2.29-1.93-3.62-.49-1.54,2.73-2.53,3.96-3.36ZM32.56,35.28c-.05-.14-.1-.31-.14-.53.57-.34,5.84-3.37,6.01-3.12.62.89.88,2.32,1.53,3.41,1.09,1.82,2.09,3.01-.22,4.2-1.47.76-2.76,2.53-4.44,2.84-.36-2.49-2.09-4.42-2.73-6.8ZM36.53,30.61c-1.87.78-3.32,2.25-5.39,2.54.21-1.06.19-1.03-.64-1.59.01-.81.5-1.37.77-2.09,1.11-2.91-1.86-.48-2.37-.46-.19-1.41-1.51-2.21-1.85-3.54.37.97,1.7-1.02.26-.44,1.81-.85,3.85-1.14,5.58-2.15,1.75-1.03,1.94,1.25,2.76,2.7.86,1.51,2.82,4.22.88,5.03ZM11.79,29.73c.77-1.64-.13-3.59,1.47-4.38,1.59-.78,3.13-1.66,4.51-2.77.8-.65,1.54-1.37,2.18-2.18.34.04.66.15.96.32.26,1.23,1.31,1.91,1.9,2.95.77,1.37-.65,1.28-1.61,1.92-2.08,1.39-3.75,3.32-6.05,4.38-.27.07-3.18-1.14-2.77.71.25,1.13-1.96,2.16-2.98,2.16.86-.99,1.82-1.91,2.39-3.11ZM9.16,43.92c-.47-.81-2.18-3.68-1.66-4.61.26-.46,1.12-.51,1.34-1.08.5-1.29.15-3.19,1.32-3.94,1.06-.67,2.12-1.3,3.4-1.45,1.04,1.73,1.97,3.51,2.86,5.32.54,1.09,1.08,2.19,1.62,3.29-.63.3-1.24.63-1.83,1.01-1.46.9-2.86,1.58-4.43,2.25-1.65.7-1.55,1.06-2.62-.79ZM22.01,74.45c-.93-1.37-1.08-1.72-2.7-2.35-3.69-1.42-5.86,1.66-7.68,4.4-1.45-1.2-.5-6.6-.96-8.29,2.73.44,4.83.16,7.19,1.43,1.21.65,1.86-.6,1.68-1.62-.24-1.35.89-2.26,1.52-3.56.96-2.01,3.28.75,5.27.86,1.08.06,5.26.03,3.39-2.08-1.52-1.71,1.54-5.3,2.4-6.9.57-1.08.72-3.28,2.09-3.08,1.09.16,2.05.73,3.03,1.18,1.87.87,4.77-.72,2.14-1.91-2.19-.99-4.23-1.86-6.65-1.86-1.92,0-2.64,4.69-3.51,5.75-1.47,1.77-1.52,5.8-4.21,4.64-2.29-.98-4.4-1.97-6.16.48-1.29,1.79-.76,3.29-2.11,1.25-.44-.68-1.91-1.78-.64-2.55-.18-.55-1.45-.98-1.92-1.28-.26-1.02.89-1.21.64-2.23-.11-.86-1.13.26-1.43-1.55-.48-2.92-2.01-5.49-2.73-8.33.93-.32,6.75-3.53,7.24-3.13.26.22-.44.54.11.9.37-.04,1.28-.54,1.65-.41.2.33.18.68-.05,1.05.76,0,1.14.4.96,1.28.13-.67.83.24,0,0,.73.21,1.03,1.21.94,1.86-.22,1.55.49.34.98,1.64-2.13,2.38-6.77,1.77-7.99,5.1,1.34.5,4.09-1.53,5.38-1.97,1.14-.39,2.25-.88,3.25-1.54.55,0,1.67.26,2.07-.28.99-1.32,2.47-1.97,4.04-2.82,1.66-.89,3.35-2.26,5.08-2.96.35,1.08.46,2.73,1.92,2.87,1.42-.4,1.02-1.86.64-2.88-.67-1.79-.73-1.7.76-2.89.77-.62,1.69-1.44,2.55-1.89,1.08-.57,1.73-1.74,2.63-.56.51.66.82,1.44,1.3,2.12.67.95,1.6,1.18,2.66.68-.01-1.17-.53-2.09-1.18-3.01-1.99-2.8.44-4.5,3.19-5.19,1.02-.26,2.35-1.61.44-1.74-.97-.06-1.88.41-2.77.69-.22.42-2.02,1.72-2.46,2.01-1.15.77-1.95-2.15-2.34-2.97-1.99-4.1,1.02-2.01,1.92-5.1-1.05-.04-1.95.31-2.92.67-1.5.55-1.33-.73-1.82-1.91-.74-1.77-1.52-3.54-2.61-5.13,1.13-1.29,2.96-1.6,4.2-2.75,1.06-.97.45-1.06,1.85-1.42.49-.15.81-.46.98-.94-.25-.24-3.42.46-3.9.6-1.34.39-2.29,1.53-3.58,2.04-1.26.5-2.12-2.6-2.79-3.71-.77-1.28-1.5-2.58-1.87-4.03,1.78-.29,4.9-.84,5.61-2.38.59-1.29,0-2.15-1.46-2.72.61-1.01,1.95-1.22,2.56-2.23,3.51,3.87,5.21,9.84,7.57,14.44,2.35,4.57,4.83,9.11,7,13.75.91,1.94,1.9,4.83,4.16,5,.32.03,1.04-.62,1.12-.07.2,1.32-.73,1.31,1.2,1.31,1.56,0,7.03.84,8.02-.42.95-1.2,2.04-3.58,2.58-5,2.34.99,2.9,3.41,4.12,5.31,1.45,2.26,2.64,3.98-.93,4.4-1.23.15-2.47.59-3.65.24-1.21-.36-2.44-.52-3.7-.39-2.25.64-2.45,3.14-2.23,5.1-1.73.06-2.83-1.21-4.49-1.41-1.17-.15-3.83-.06-3.23-1.61.91-2.34,2-4.23,1.65-6.86-1.13.39-5.31,7.31-3.52,7.65-.76,1.28-4.38-1.05-5.24-1.26-2-.48-3.6.09-4.73,1.52-1.07,1.35-.98,2.99-1.92,4.38-.83,1.23-.41,4.6-.9,6.52.54-.58,1.25-3.48,1.79-3.38,1.31.24,1.55-1.09.44-1.72.64-1.69,1.3-4.18,3.15-4.67,1.38-.36,1.98.06,3.38.72,1.57.74,3.24,1.3,4.98.77.69,1.25,1.63,2.35,2.19,3.68.7,1.66,3.98,5.55,2.06,6.62-1.88,1.04-3.38,2.28-4.89,3.41-1.79,1.36-2.09,1.28-3.8.14-1.13-.75-2.33-1.37-3.62-1.77-1.45-.46-2.69-.61-4.09-.28-1.17.75-1.04,2.12-1.86,3.06-.92,1.06-2.89,3.06-2.62,4.59-1.67-.65-3.46-1.87-5.32-1.05-1.48.65-.74,1.24-2.15.45-1.79-1.01-5.03,4.5-5.6,5.63-.54,1.05-1.44,3.83-2.77,1.84ZM12.91,64.71c-.12-.62,1.46-.46.96.32-.26-.17-.52-.33-.96-.32ZM25.06,79.7c.61.67,1.03,1.52,1.28,2.55-.7-.58-1.39-1.16-1.28-2.55ZM37.03,87.93c-1.06-1.06-2.78.11-2.71-1.93.03-.81.26-2.09-.3-2.8-.18-.25-.39-.46-.64-.64-1.41-.32-.77-.24-.91-2.15-.11-1.53-.56-3.02-.69-4.55.19,2.26-.77-.3,0,0-.93-.36-1.02-1.24-2.23-.96-1.18.24-1.36,1.59-1.6,2.55-.75-.17-.64-.89-1.6-.64.56-2.23,2.98-3.06,3.83-5.1,1.5.97,1.34,3.67,2.18,5.1.97,1.65,1.82,3.36,2.61,5.1,1.12,1.38,1.61,3.11,2.6,4.58.68,1.02.81,2.77-.54,1.42ZM39.45,92.77c-.78-.69.67-1.86.64-2.87.81.72-.42,2.11-.64,2.87ZM41.37,100.42c-.59-1.1-.56-1.55-.4-1.54,0-1.48,1.06-2.8,1.68-4.2,2.8,1.21-1.09,4.22-1.28,5.74ZM47.44,92.77c-.05-1.07.38-1.9.72-2.87.46-1.29.49-.97,1.78-.96,0,0,0,0,0,0-.43-.03.02-.36.05,0-.02,0-.04,0-.06,0-.23.26-1.08,2.24-1.4,2.85-.87,1.66-1.54,3.43-2.38,5.12-1.32-1.07.47-3.35,1.28-4.14ZM53.51,99.14c-.34-1.19.67-1.03.96-1.59.7.31-.29,1.6-.96,1.59ZM79.64,89.53c-2.8,1.6-5.53,3.33-8.54,4.51-.36,1.24-4.33.73-5.45,1.27-.88.42-2.1.84-1.39,1.96.31.49-.29.86-.69.51-.53-.45-.02-1.56-.2-2.14-.27-.86-2.68.89-3.14,1.13-1.91,1.02.45,2.43-1.44,2.65-1.13.13-1.94-.84-2.1-1.87-.23-1.53,2.17-2.27,3.29-3.01,1.44-.94,2.88-1.89,4.39-2.73,1.06.49,2.05.61,3.2.32-.66,2.81,2.38,1.75,3.52,1.91-.38-.05.23-.72,0,0,.25-.78,1.6-1.75,2.24-2.07,1.42-.73.74-.28.81-1.43.07-1.14.76-3.29-1.13-3.19.09-.84,1.76-.98,2.2-1.63,1-1.49.24-2.54-.58-4-.88-1.58-1.8-2.73-3.23-3.86-1.59-1.25-2.11-2.59-3.07-4.33-1.47-2.66-1.84-7.17-4.28-9.13-1.88.35,1.64,4.8,1.81,5.54.75,3.2,2.58,5.87,4.37,8.57.87,1.32,1.72,2.66,2.37,4.1.84,1.85.76,1.84-.99,2.72-2.69,1.35-5.68,2.96-8.06,4.61-2.55,1.78-5.8,3.73-8.78,4.74v-1.59c-1.87.28-2.67,1.89-3.2,3.51-1.17.61-2.57,2.93-3.78,3.11-1.83.27.79-2.89,1.01-3.32.88-1.74,1.68-3.6,2.17-5.49.72-2.79,0-1.9,2.14-1.56,1.6.25,3.42-1.29,2.62-2.93-.68.03-1.89.9-2.48.55-.55-.33-.56-.78-1.36-.55-1.89-.26-2.88,1.41-2.88-1.28-1.09,0-2.61,2.26-3.42,2.97-1.35,1.19.34,3.88-1.06,5.32-1.04-1.03-.38-2.3.03-3.45.06-.17.69-3.17.02-2.84-.31.23-.54.52-.69.87-.73-.63.14-2.47.32-3.19-.44-.86-2.54,2.93-2.56,3.51-2.62-.64-4.69-6.7-5.71-8.84-.73-1.53-1.74-2.94-2.28-4.55-.36-.43-1.47-3.49,0-2.23.15-.86-3.06-3.1-.27-2.32,1.48.42,5.93,3.06,7.36,1.84.99-.85,1.02-1.61,1.38-2.88.33-1.18.88-2.01,1.32-3.19.36-.99.66-2.11,1.43-2.88,1-1,2.06.21,2.99.76.99.59,1.71,1.85,2.74,2.28,1.46-.26,2.77-.91,3.92-1.83,1.45-1.15,1.23-.93,2.79-1.04.65-.35-.01-1.13,1.03-1.76,1.91-1.15,4.99-2.04,3.83-4.89-.99-2.44-2.43-4.68-3.58-7.06,2.46.39,4.4,2.56,7.04,1.59,0,3.43,2.73,7.08,4.21,10.14,1.58,3.26,2.96,6.69,4.77,9.83,1.73,3.02,3.17,6.2,4.95,9.18.84,1.41,3.17,6.77,4.93,6.56,0,1.91-3.62,1.78-4.88,2.5ZM69.82,89.26s-.08,0-.12,0c-.25.24-.79,1.24-.83,1.59-.81-.44.04-1.61.83-1.59.01-.01.02-.02.03-.03-.64-.15.06-.34.09.02ZM40.97,98.88c0,.49.11,1,.4,1.54.11-.94-.22-1.52-.4-1.54ZM13.55,32.84c-1.8.22,1.64,2.72,0,0h0ZM49.95,88.94s.03,0,.05,0c0-.04-.02-.04-.05,0ZM18.67,46.54c.84.1.82-.67.96-1.28-.66.09-.64.85-.96,1.28ZM19.95,47.18c0,.75.87-.12.64-.64-.54-.12-.6.25-.64.64ZM45.84,68.22c.01-.34-.15-.81-.32-.32-.02.34.15.81.32.32ZM55.12,69.67c-.1-.32-.21-1.01-.01-.82-1.28-1.25-5.25,2.25-6.59,2.99-1.57.87-5.44,1.98-6.19,3.71,3.26,1.54,6.05-.93,8.85-2.26,1.55-.74,3.71-1.72,3.95-3.62ZM55.12,69.67c.08.28.15.28-.01-.82.04.29.04.56.01.82ZM59.37,74.98c-.1-.2-.1-1.05.22-.71-2.37-2.51-3.48,2.14-5.67.83-2.33-1.39-1.96,1.44-2.65,2.67-1.4-.39-1.51-1.27-2.65.31-.72,1-1.33,2.07-1.83,3.2-1.57-1.02-1.41,2.68.72,1.32.82-.52,1.61-4.2,2.63-3.23.71.67,1.67,1.09,2.46.17,1.26-1.47,1.1-1.18,3.09-1.6,1.1-.23,3.01-1.6,3.66-2.97ZM59.59,74.28c-.02.23-.11.47-.22.71.06.12.15.01.22-.71ZM65.17,82.26c-.02.19-.06.4-.15.62.23-.55.23-.68.15-.62ZM60.51,80.85c-1.63,1.05-3.11,2.3-3.32,4.33-.08.83.31,1.44,1.18,1.54,1.46.17,1-.94,1.51-1.97,1.42-2.91,3.3-.51,4.99-1.76-.28.15.16-.63.31-.74.16-1.97-3.41-2.22-4.66-1.41ZM58.95,95.95c0,.63-.87.41-.64,1.27.81.34,1.42-1.08.64-1.27Z"/>
    </g>
  </g>
</svg>