<?xml version="1.0" encoding="UTF-8"?>
<svg id="Layer_2" data-name="Layer 2" xmlns="http://www.w3.org/2000/svg" viewBox="0 0 86.43 115.49">
  <defs>
    <style>
      .cls-1 {
        fill-rule: evenodd;
      }
    </style>
  </defs>
  <g id="food_icons" data-name="food icons">
    <g id="cocktail1">
      <path class="cls-1" d="M74.54,36.98c-1.86.59,1.93,0,0,0h0ZM63.35,22.95c-.03.06-.06.13-.09.2.08-.15.16-.29.09-.2ZM48.97,34.11s.01.01.02.02c-.02-.1-.1-.39-.18-.68.05.22.1.44.16.66ZM48.01,39.53c-.72-.56.18.99,0,0h0ZM84.74,17.67c-2-1.65-4.22-3.46-5.8-5.52-1.92-2.51-3.75-5.11-5.04-8.01.04-.88-.81-1.3-.64-2.23.1-.94-.18-1.86-1.26-1.91.13,0,.88.03-.01,0-.86,0-1.61.65-2.57.76-1.61.19-3.19.51-4.76.88-3.08.73-6.1,1.48-9.21,2.05-2.85.53-5.67,1.19-8.53,1.62-1.38.21-6.13,1.37-2.67,2.76,4.17,1.68,8.51,3.79,12.86,4.91,1.31.34,2.59.88,3.69,1.67-.71,1.39-1.44,2.79-2.26,4.12-1.11,1.82-1.79,4.87-3.17,6.4-1.22-2.53-3.4-3.94-5.47-5.65-1.38-1.13-5.7-3.62-5.4-.25.08.86,1.44,1.1,1.53,1.93.08.75-.79,2.44-.92,3.29-.49,3.27-.37,6.65.04,9.92-5.24-.6-10.5-.25-15.72.26-2.58.25-5.15.54-7.73.74-2.56.2-5.37-.09-7.8.67-2.3.72-4.66,1.54-7.02,2.07-1.75.39-3.71.42-5.31,1.29-2.85,1.56-.99,10.86-.49,13.6.42,2.39,1.02,4.76,1.81,7.06.66,1.93.64,4.16,1.03,6.19.83,3.29.92,6.54,1.33,9.98,1.19,10.03,2.64,20.25,4.81,30.06,1.92,8.67,16.14,10.09,23.21,8.67,2.38-.48,4.82-.02,7.2-.47,2.17-.41,3.95-.8,6.04-1.47,1.88-.6,3.72-1.25,5.58-1.93,2.47-.9,3.19-1.91,4.38-4.24,2.12-4.15,2.3-9.86,2.86-14.44.63-5.15,1.26-10.31,1.8-15.48.58-5.48,1.06-10.96,1.54-16.45.24-2.75.48-5.51.73-8.26-.05-2.42-.13-5,.64-7.33,7.45,4.56,16.45.46,18.71-7.56,1.49-5.26-5.11-5.13-8.68-4.27-.47.11-7.68,2.21-7.8,1.95,1.8-4.18,3.38-13.58-1-16.86-3.98-2.98-6.49,8.89-7.95,10.8.28-1.79-1.57-1.38,0-2.95,1.28-1.29,1.6-3.15,2.42-4.71.84-1.58,1.51-3.2,2.34-4.81,1.01-1.97,2.54-.74,4.17-.04,3.21,1.39,8.92,2.42,11.21,5.17,1.12-.33,8.32,2.05,7.67-.32,2.78.79.5-2.99-.35-3.69ZM56.84,8.85c-.28.22-.46.14-.53-.25.07.96-1.47.2,0,0-.75.1-5.49-.99-5.43-1.91.64,0,2.35-.33,2.87.22.19.37.41.72.65,1.05.33.01,2.65.67,2.44.88ZM57.28,9.25c0-.31.39-.25.64-.32,0,.31-.39.25-.64.32ZM57.92,5.74c1.04.18,1.49-.22,2.24-.32.16,1.46-2.03,1.61-2.24.32ZM53.86,32.05c.38,1.63-.18,2.89-.06,4.48.09,1.18-.67.12.07,1.4.29.49.47,1.02.54,1.59-1.56-.26-2.72-1.01-3.25-2.39-.27-.7-.58-1.39-.91-2.07-.47-.25-.88-.57-1.26-.94,0,.05,0,.05-.02-.02-.58-2.15-.36-1.39-.16-.66-.87-3.63-.88-7.43-1.13-11.13,3.15,2.45,5.27,5.86,6.17,9.74ZM27.63,37.88c3.91-.36,7.84-.65,11.76-.63,2.24.01,4.47.12,6.69.37,1.15.09,1.17,1.33,1.92,1.91.18.96,1.51.89,1.6,1.91-14.53.74-29.29,2.24-43.79.32,6.37-3.58,14.76-3.24,21.82-3.89ZM60.8,41.44c1.1.82-1.64.77,0,0h0ZM74.54,36.98c1.83,0,3.6-.51,5.44-.32-.75,2.35-4.7,4.66-6.69,5.65-2.45,1.22-7.58.96-9.61-1.19,1.96-2.63,7.99-3.23,10.87-4.14ZM60.16,30.92c1.55-2.16,1.88-5.36,3.11-7.77-.14.25-.3.54.09-.2.22-.28.32-.6.32-.96,2.21,1.1.08,8.4-.52,10.16-.81,2.38-2.32,6.25-5.24,7.05-.99-1.95,1.89-6.18,2.24-8.29ZM60.16,46.22c-1.14,9.48-2.05,18.98-2.99,28.48-.87,8.81-2.77,18.02-2.77,26.86,0,1.6.72,4.38-.95,4.81-1.71.44-3.34.88-5.12.74-3.48,1.47-7.36,1.79-11.07,2.25-2.12.26-2.79.31-4.48-.92-1.12-.81-2.03.75-3.47.49-1.54-.28-3.89-.44-4.24-1.89-.25-.98-.29-1.93-1.47-1.85-.47-.02-.75.2-.84.65-.56-1.11-1.75-1.6-2.88-.96,0-1.12-.64-2.07-.64-3.19-1.48.18.25,4.57-1.69,3.12-1.59-1.19-1.71-4.53-1.51-6.3,3.09-.04,5.75,1.01,8.72,1.62,1.81.37,2.88.62,4.51,1.37.92.42,1.86.3,2.65-.28,2.03-1.51,3.8,1.46,5.98-.44.99-.86,3.88-.25,5.24-.4,1.3-.15,2.6-.44,3.83-.93,1.54-.61,1.88-1.1,2.7-2.31.78-1.16-.21-1.66-1.34-1.39-.45.11-3.14,1.04-3.2,1.49-1.29-.18-2.9.32-4.27.32s-4.84.63-5.89-.23c-.82-.68-1.01-1.42-2.3-.82-1.62.75-1.61.9-2.26-.85-.38-1-.83-2.12-1.91-2.56,1.49-1.02,1.32-4.17.09-5.3-2.2-2.02-3.78,1.3-3.61,3.07.3.95,2.09,2.22,2.17,2.84.05.46-1.09,1.34-1.48,1.12-1.69-.98-3.49-2.12-3.88-4.28-1.39.04-1.11,1.97-1.28,2.87-.95-.78-.69-3.62-2.76-1.58-.55.54-2.14,1.38-2.04,2.22-.76.1-.32-.92-.96-.96h-2.88c-.12-2.04-.76-4-.64-6.06,1.69,1.45,7.03-1.9,4.79-4.46-2.77-.07-2.74,3.3-5.12,3.83,0-2.32.93-1.77,2.37-3.22,1.29-1.3,2.4-4.16,1.46-6.03-2.08.88-2.78,3.19-4.16,4.78-.61-1.02-.42-2.38-.64-3.51.09-1.15,1.33-1.16,1.92-1.91.36-.7,2.1-1.82,1.57-2.78-.21-.37-1.08-.75-1.25-.09-.65-.37,1.14-3,1.4-3.49.76-1.41.98-2.81.84-4.48-1.25-.07-1.77.74-2.59,1.49-.16.15-.43.3-.6.4,0,0,0,.02,0,.02-.22.09-.19.08-.07.01-.35,0,.03-1.36.07-.04,0,0,0,0,0,0,0-1.03,1.73-5.3-.99-3.99-.73.35-2.55,2.06-2.18-.06.25-1.45,1.73-1.96,2.31-3.19.97-2.03-2.35-.45-2.98-.38-.13-4.67-1.8-9.08-2.24-13.71,6.68,1.72,13.56,1.33,20.33,1.88,6.65.55,13.58,1.26,20.27.03.01,2.47-2.27,5.31-.64,7.65,1.74-.54,2.34-2.37,2.73-3.96.25-1.01.44-2.05.79-3.03.6-1.67,1.45-1.33,3.09-1.53,2.8-.34,5.58-.86,8.41-1.04ZM27.23,89.9c-.06.36-.32.18-.32,0,.06-.36.32-.18.32,0ZM10.93,68.22c.17.17-.23.41-.32.32-.16-.17.23-.41.32-.32ZM71.73,13.17c-.95-.89-.6-1.25-1.95-1.41-.52-.05-1-.21-1.45-.47-.26-.16-1.9-2.84-2.11-1.41-.85-.84-.01-2.45-.54-3.45-.75-1.42-2.06,1.04-2.34,1.53-.56-1.01-.05-2.16-.64-3.19,2.23-.22,4.33-1.02,6.52-1.42,1.79-.33,1.29.58,1.75,2.02.32,1.03.72,2.03,1.17,3.01,1.57,3.35,3.88,6.27,6.54,8.83-1.4,1.36-5.98-3.13-6.97-4.05ZM62.71,4.78c.72,1.25,2.81-.28,0,0h0ZM11.18,67.6s.04,0,.07-.01c0,0,0-.01,0-.02-.03.01-.05.03-.07.04ZM25.32,53.88c.21,3.03,4.91,3.21,5.43.32.59-4.35-5.43-3.98-5.43-.32ZM28.83,53.88c-.99.22-.61.22-1.6,0-.15-1.33,1.95-1.85,1.6,0ZM43.86,63.44c-.04.13-.04.25-.04.36.08-.12.21-.51.04-.36ZM45.62,61.27c-1.78-.34-3.11,1.15-3.37,2.77-.12.74-.04,1.52.26,2.22.09.22,1.02.91,1.03,1,0-.1.43-.06.87.02,3.07-.32,4.23-5.45,1.22-6.01ZM43.82,63.8c-.05.08-.08.05.04-.36.38-.27.81-.37,1.28-.32.26,1.9-1.27,1.68-1.32.68ZM43.54,67.26c2.58.48,1.73.18.87.02-.28.03-.56.03-.87-.02ZM18.92,66.31c-.03.08-.02.16,0,.24.07-.15.13-.35,0-.24ZM18.92,64.07c0-.31-1.18.21,0,0h0ZM18.92,64.07c-3.54.62-1.97,7.56,2.32,5.31,1.99-1.04,1.45-2.87.87-4.68-.31-.09-3.16-1.79-3.2-.64ZM18.92,66.54c-.08.17-.17.27,0-.24.38-.27.81-.37,1.28-.32,0,1.51-1.12,1.08-1.28.55ZM38.19,75.71c.34-.03.73,0,1.19.16-1.24-.41-1.41-.34-1.19-.16ZM39.55,76.09c.31.5-1.02-.09-1.36-.38-1.82.17-1.99,2.67-1.53,4.42.41,1.58,2.96,1.35,3.5.02.54-1.34.31-2.94-.6-4.06ZM38.42,79.06c-.44-.1-.27-.8-.32-1.27.74.09.73.85.32,1.27ZM17.27,88.63c-1.25.11-3.38,1.36-3.94,2.26-.87,1.37,1.93.8,2.42.49.86-.54,1.44-1.48,1.78-2.43-.46,1.03-1.01-.15-.25-.31ZM39.7,96.91c.09.09.48-.15.32-.32-.09-.09-.48.15-.32.32ZM40.34,97.23c.09.09.48-.15.32-.32-.09-.09-.48.16-.32.32Z"/>
    </g>
  </g>
</svg>