<?xml version="1.0" encoding="UTF-8"?>
<svg id="Layer_2" data-name="Layer 2" xmlns="http://www.w3.org/2000/svg" viewBox="0 0 104.37 114.41">
  <defs>
    <style>
      .cls-1 {
        fill-rule: evenodd;
      }
    </style>
  </defs>
  <g id="food_icons" data-name="food icons">
    <g id="cocktail3">
      <path class="cls-1" d="M24.19,51.01c.29-.67-.61-.56,0,0h0ZM36.73,52.51c.26.09.54.15.88.1.15-.63-.77-.32-.88-.1ZM52.95,105.53c.22.1.34.15.39.16-.13-.05-.27-.11-.39-.16ZM63.19,39.54s-.04-.04-.05-.11c-.76-.28-4.95-.76.05.11ZM103.77,34.14c-.69-2.47-1.47-4.9-2.22-7.35-1.64-1.66-3.07-3.52-4.79-5.1-4.1-2.66-8.32-5.11-13.32-4.68-4.72.41-8.56,1.82-12.45,4.48-3.14,2.16-7.51,5.58-7.81,9.58-.08.97-.23,7.45-.04,8.35.12.05.16.09.05.11-5.78-1.01-11.71-.63-17.48-1.7-2.97-.55-6.23-.1-9.29-.5-1.52-.2-3.04-.45-4.56-.67-.69-.92-1.37-1.86-1.92-2.87-1.18-2.16-2.72-3.86-4.48-5.74-1.72-2.7-3.45-5.41-5.19-8.1-3.54-5.49-6.84-11.81-11.52-16.35C8.12,2.99,6.19-.18,5.32,0c-.54.21-1.59,1.11-2.2.79-.56-.3-1.36-.38-1.93-.03-2.25,1.38-.87,3.14.29,4.66,1.26,1.66,1.72,3.86,3.19,5.42,1.31,2.28,3.4,4.01,4.64,6.34,1.31,2.46,2.53,5,3.85,7.47,1.33,2.49,3.37,4.89,4.3,7.55.59.3,2.4,3.2,2.5,3.95.04.29-6.26-.39-6.88-.43-1.65-.12-3.87-.53-4.79,1.21-.6,1.14-2.93,1.79-1.65,3.51.96,1.3,2.42,2.06,3.59,3.11,1.36,1.22,2.89,3.09,4.03,4.59.43.91,2.52,3.25,3.34,3.47,2.65.69,5.7,6.28,7.29,8.56.55.79,2.24,1.8,1.58,2.75-.62.89.11,1.21.7,1.8,1.42,1.43,2.42,3.27,3.8,4.75.72.78,1.41,1.59,1.82,2.58-.32,1.19-.41,2.43-.26,3.65.25,2.06,1.17,4.01,2.51,5.59,1.45,1.25,2.85,1.6,4.47,2.55-.47,2.19-.36,4.48-.32,6.7.07,3.48-1.71,7.62,0,10.52-1.81.89-3.2,2.49-4.96,3.5-1.7.97-3.35,1.75-5.11,2.55-1.7.77-3.45,1.05-4.64,2.55-.28,1.49.67,1.84,1.36,2.9,1.82,2.83,9.89,1.54,12.95,1.57,4.32.03,8.58-.05,12.87-.32,2.33-.15,5.17.32,7.62.32,1.4,0,2.27-.36,3.6-.71,2.04-.54.52-.54,1.74-1.02,1.47-.58,1.21-1.41,1.47-2.83.25-1.34-2.61-2.2-3.86-2.79-2.01-.95-3.68-2.81-5.67-3.36-1.88-.52-3.58-1.47-5.41-2.11-2.34-.82-1.06-3.97-1.06-6.03,0-2.66-.21-5.3-.32-7.96-.08-1.79-.12-3.59-.04-5.38.81-.15,1.57-.47,2.26-.91,1.46-.94,2.57-2.39,3.21-3.99.66-1.65.8-3.52.2-5.22-.51-1.45-1.42-1.29.13-2.33.99-.66,1.96-1.35,2.89-2.09,3.29-2.63,7.36-4.94,10.18-8.09,1.93-.85,3.14-2.73,5.11-3.51,1.69,1.14,3.63,1.89,5.61,2.37,4.9,1.19,10.43,1.17,14.55-2.15,1.89-1.53,3.4-3.16,5.4-4.53,1.46-1,2.65-1.77,3.35-3.51,1.64-4.07,2.31-9.5,1.12-13.84ZM59.66,108.39c.17.16-.23.41-.32.32-.16-.16.23-.41.32-.32ZM31.87,41.71c1.26,1.88,2.15,3.98,3.5,5.8-.04.71-2.48.4-2.7-.17-.46-1.16-1.78-1.73-2.09-3.02.21.85-1.34-.68,0,0-1.35-.69-1.67-2.35-2.88-3.19.87-1.16,3.63-.22,4.17.58ZM37.61,52.61c-.75.11-.94.02-.88-.1-1.05-.38-1.6-1.65-2.96-1.49.66-.88,2.61-.15,3.52-.32-.19.79.51,1.12.32,1.91ZM16.67,21.93c-1.7-3.19-3.03-6.6-5.19-9.53-2.14-2.9-4.57-5.44-5.83-8.89,1.17,3.2-.74.1,0,0-.74.1-.36-.92-.96-.96.1-.11.21-.21.31-.32.31,0,2.23,2.88,2.71,3.29,1.37,1.14,1.99,3,3.08,4.49,2.38,3.26,4.67,6.61,6.92,9.97,1.76,2.61,3.14,6.62,5.51,8.71,1.54,2.76,4.14,4.74,4.8,7.97-2.04,0-3.18.4-4.32-1.5-.85-1.42-1.38-3-2.03-4.51-1.31-3.08-3.43-5.78-5.01-8.73ZM14.97,43.15c-1.51-1.23-2.73-2.79-4.53-3.61,1.14-1,2.85.3,4.16,0-.62,1.22.32,2.35.58,3.52-.29-1.03-1.3-.87-.2.09ZM18.11,43.36c.33-.6,2.28.2,2.88,0-.41-1.1-1.96-1.01-2.88-.96-.57-.07-.56-.1-.38-.11-1.14-.43-1.48-1.95-2.81-2.12.14-.75,5.76.24,6.48.29,2.09.16,3.4,4.07,4.07,6.08-2.8-.15-5.36-1.21-7.35-3.19ZM28.34,56.45s0,0,0,0c.02.97-.35.09-.03,0-.03,0-.02,0,.03-.01,0,0,0,.01,0,.02.3.04,2.01.2,1.91,1.26-.62.53-1.87-.23-1.91-1.26ZM28.66,53.25c.06-.36.32-.18.32,0-.06.36-.32.18-.32,0ZM28.98,51.65c-.9-.05-.75.87-1.28,1.27-.59-.14-1.17-.35-1.72-.63-1.73-.77-.07-.99.12-2.24-.76-.01-1.59.19-1.92.96-.22-.21-1.82-1.97-1.54-2.17,1.02-.7,7.96,1.96,8.74,2.53.96.7,1.51.46,2.35,1.38.47.45.91.94,1.31,1.45-.33,1.05-.96,2.02-1.38,2.93-1.24,2.74-2.74.47-1.5-1.02-.17-1.82-3.07-2.33-3.2-4.46ZM52.95,105.53c-1.11-.78.69.24.39.16,1.09.42,2.4.68,3.11,1.66.27.38.23,1.79-.62,1.68-.19,1.22-6.44.38-7.51.54-2.2.33-5.13.66-7.28.19-1.16-.25-2.18.14-3.17-.67-.84-.68-2.09.08-2.81-.7.05-.48,4.06.02,4.61-.05,2.75-.38.55-2.41-1.1-2.5.75-1.74,6.02,1.58,3.36-1.71-.53-.66,1.47-3.06,1.57-3.95.23-2.04.47-4.08.51-6.13,1.37.6,2.26-1.34,2.26,1.02,0,1.71-.2,3.46.09,5.15.52,3.04,4.45,3.79,6.6,5.3ZM44.64,87.67c.37.47-1.22.38-.45.12-.16-.01-.29-.09-.39-.24-.01.04,2.15-.24,2.44-.19v4.46c-.91-.18-1.68-.68-2.55-.96.24-.68.97-.87,1.6-.96.16-.91-.09-1.54-.64-2.23ZM58.2,62.3c-1.87,1.49-3.89,2.78-5.77,4.29-1.19.96-2.46-.49-4.13.59-2.94,1.92,4.11,5.78,2.64,8.38-.48.84-1.3,1.41-1.82,2.22-.8-.02-1.64.11-2.31.57-1.6,1.1-.11,3.43-.57,5.17-.68-.27-2.69.85-2.87.64.12-1.29,1.81-1.1,2.18-2.2.38-1.13-.22-2.36-1.29-2.8-1.7-.7-5.44,0-6-2.34,1.32.16,3.72,1.29,4.79,0,1.41-1.7-2.71-1.95-3.51-2.23.73-.76.88-1.79,1.6-2.55-.62-.52-1.12-1.16-1.69-1.73-.86-.85-1.87-1.4-3.1-1.46-.74-.96-1.42-1.98-2.24-2.87.68-.68,2.02.11,2.84-.1,1.29-.33.61-2.1-.27-2.47-.99-.41-2.24-.81-3.3-.96-.77-.11-1.2.24-1.51-.62-.07-.36-.28-.57-.64-.64,1.17-1.66,3.01,1.47,3.83-1.88.3-1.22.36-2.48.68-3.69.36-1.33,1.54-.85,2.71-.82-.27-.03.32-.19.53-.21,1.09-.74.91-2.52.56-3.61,10.44.62,20.9-.08,31.33.64-3.77,3.84-8.43,7.3-12.65,10.65ZM75.65,47.51c-.77.67-1.6,1.28-2.4,1.91-1.14.9-1.29.37-2.63.09-2.08-.44-4.06-.38-6.19-.39-4.89-.02-9.8-.17-14.67-.65-3.36,0-6.85-.3-10.07-.28-1.75,0-3.43-3.8-4.17-5.46.11.25-.12-.24-.15-.33-.14-.23-.82-.68-.56-.87.99-.75,4.86.32,6.04.45,2.44.26,4.79.15,7.21.56,4.28.72,8.64.57,12.94,1.03,4.14.45,8.17.71,12.27.88.65.03,5.74.04,4.65,1.01-.66.59-1.36,1.81-2.26,2.07ZM97.73,47.88c-1.6,2.61-5.31,3.57-8.02,4.73-.61-3.26-2.87-5.8-3.83-8.93,1,3.25-.61-.04,0,0-.43-.03-1.16-1.97-1.59-.3-.16.62-.12,1.69.3,2.21.19,2.08,1.95,6.56,3.52,7.97-2.87,2.39-8.39.41-11.5-.32.78-1.26,2.12-1.6,3.06-2.61.96-1.03,2.29-1.92,3.06-3.08,1.66-2.51-.01-3.59-2.61-3.88,1.6-5.21-10.84-2.91-13.43-3.82,1.26-2.45.23-5.46,1.28-7.97,2.68.85,4.01,3.67,7.03,3.83-.14-1.49-1.17-2.34-2.07-3.4-.77-.91-.54-1.26-1.73-1.73-.6-.21-1.14-.52-1.64-.92,1.74-2.22,3.95-4.02,6.39-5.42.76,1.32,3.37,13.91,6.32,11.15,2.83-2.65-2.23-9.9-3.44-12.74,4.31-.49,7.22-1.33,11.22.78,1.06.56,3.96,1.32,3.12,2.6-.68,1.04-2.06,2.16-2.99,2.99-1.19,1.07-6.2,5.49-5.15,7.32,1.46,2.56,4.85-2.03,5.73-2.97,1.32-1.42,3.63-4.96,5.65-5.31,2,2.29,3.21,7.15,3.22,10.1,0,3.23-.16,6.87-1.91,9.71ZM17.73,42.3c.12.05.24.09.38.11.88-.05-.06-.12-.38-.11ZM38.97,54.63c-.12.08-.24.16-.4.21.5-.17.52-.22.4-.21ZM35.36,42.39s.01.01.01.02c-.02-.05-.02-.04-.01-.02ZM28.31,56.45s.02,0,.03,0c0,0,0-.01,0-.02-.01,0-.02.01-.03.01ZM35.51,42.72c-.03-.06-.07-.15-.14-.31.04.09.09.2.14.31ZM44.64,87.67c-.2.04-.35.08-.45.12.13,0,.28-.02.45-.12ZM85.88,43.68c-.02-.15,0-.28.02-.41-.05-.2-.12-.25-.02.41ZM93.77,44.67c.93.1,6.73.16,4.25-1.96-1.62-1.39-11.52-2.02-12.11.56.06.2.11.55-.02.41,1.31,1.39,5.9.78,7.89.99ZM38.25,64.72c.37.27.86.42,1.6.32.31-1.17-1.57-1.27-1.6-.32Z"/>
    </g>
  </g>
</svg>