<?xml version="1.0" encoding="UTF-8"?>
<svg id="Layer_2" data-name="Layer 2" xmlns="http://www.w3.org/2000/svg" viewBox="0 0 80.86 110.95">
  <defs>
    <style>
      .cls-1 {
        fill-rule: evenodd;
      }
    </style>
  </defs>
  <g id="food_icons" data-name="food icons">
    <g id="cocktail2">
      <path class="cls-1" d="M77.26,2.98c-.97.62.96.21,0,0h0ZM80.65,4.37c-.43-1.17-1.99-4.45-3.39-4.26-2.32,0-5.35,1.73-7.53,2.52-2.8,1.01-5.61,2.02-8.46,2.9-1.23,0-2.89-.3-4.03.23-1.04.48-.93.57-1.9.37-2.8-.58-2.39,2.36-2.38,4.18-2.01-.25-3.11.43-3.22,2.42-.06,1.04-1.05,2.02-1.9,3-.04,1.36-.46,3.13-.91,4.41-.44,1.26-3.78.65-5.02.72-3.64.21-7.24.38-10.89.46-2.47.05-6.09-.07-7.58,2.07-.82,1.17-2.62-.24-3.52,1.56-.68,1.37-.53,3.09-.62,4.56-.19,3.34.1,6.56.05,9.85-.1,7.38.9,14.76.99,22.1.11,8.34.95,16.64,1.43,24.96.25,4.29.38,8.59.31,12.89-.04,2.48-.62,4.02,1.46,5.69.67.53,1.99,1.56,2.84,1.77,1.98.49,3.53,2.06,5.56,2.48,2.8.58,5.59,1.34,8.59,1.66,4.4.47,13-2.33,14.34-7.19,4.24,2.61,3.17-5.99,3.18-8.5,0-4.02.49-8,.36-12.03-.28-8.78-.75-17.42-.66-26.2.05-4.74.12-9.49-.07-14.23-.1-2.42-.26-4.84-.56-7.24,0-1.83.43-4.26-.02-6.03-.31-1.2-.64-.8-.21-2.01.35-.97.27-2.1.23-3.12-1.09-1.3-2.09-1.63-3.45-2.51-1.08-.7-2.18-.3-3.3-.7-.81-.29.46-3.52.67-4.12,1.34.3,2.01,1.97,2.8.71,1.13-1.82-.54-2.59-.56-4.53.7.42,1.79,1.04,2.56.32.29.35.64.65,1.03.88,1.39.57,4.11-1.17,5.38-1.69,3.38-1.4,6.85-2.55,10.28-3.81,1.94-.71,3.94-1.28,5.91-1.91,1.58-.51,2.95-.59,2.21-2.59ZM33.46,24.97c-.43-.07,1.03-.02,1.61.01,3.73-.04,7.44-.53,11.17-.33.13.85-.52,1.36-.32,2.23-6.12-.43-12.56.36-18.54-1.27.75-.64,5.08-.81,6.07-.64ZM25.79,53.81v-23.1c1.77,1.65,3.09,3.7,4.43,5.69,1.43,2.14,2.64.27,3.56-1.23.99-.66,1.64-4.55-.14-3.59-1.14.61-1.25,2.09-2.1,2.96-.94-1.34-1.93-2.65-3.01-3.88-.79-.9-2.57-.79-3.06-1.54-.27-1.22,5.64.7,6.39.96-1.75-.59,4.83-.25,0,0,4.48-.23,8.95.45,13.43.32.08,8.65-3.47,16.81-2.88,25.5-3.46,0-6.82.06-10.25.36-1.65.15-3.26.23-4.91.4-2.09.21-1.46-1.18-1.46-2.84ZM45.61,105.94c0-.31.39-.25.64-.32,0,.31-.39.25-.64.32ZM54.25,97.65c0,1.38,0,2.77,0,4.15-.66-.06-1.31.02-1.94.22-1.53.51-2.44,1.9-3.82,2.65-1.23-.84-1.6-2.47-1.92-3.83.28,1.18-.65-.12-.52-.29-.65-.11-.76,1.14-.91,1.73-.26,1.03-2.49,0-3.37.16.25-4.67-2.61-.28-3.84,0,.07-1.06.26-2.94-.96-3.51-1.27.33-1.48,1.79-1.6,2.87-.97-.44-2.88.41-2.65-1.04.19-1.17.85-.4,1.2-1.19.65-1.47.67-4.22-1.75-3.5.03-.5.16-1.54-.64-1.59,1.1-2.18.33-4.5-1.38-1.63-.72,1.2-1.91,3.92-3.41,4.18.61-10.73-.65-21.46-.32-32.2.6.26,3.66,1.31,3.68,1.66.03.65-.71,3.16.83,2.26,1.39-.8,1.14-1.7,3-1.7.98,0,3.05.4,3.92-.09,4.49-2.52,11.73-1.34,15.43-5.33.82.61.35,3.89.4,4.81.16,2.64.27,5.29.35,7.94.15,4.99.2,9.99.21,14.98,0,2.76,0,5.53,0,8.29ZM53.92,29.75c-.33,5.17-.18,10.36-.06,15.54.06,2.69.13,5.38.14,8.06,0,1.31.8,6-1.13,5.42-1.84-.55-3.37,2.38-5.45,2.08-2.37-.33-4.55.08-6.92.13-2.52.06-9.17-1.04-10.55,1.27-.6-.35-3.94-1.17-2.91-2.16.71-.69,2.16-.41,3.03-.38,2.62.07,5.29-.65,7.95-.65,3.08,0,6.14-.03,9.19-.23,1.35-.09,4.21.46,4.95-1.09,1.13-2.35-3.14-2.25-4.27-2.2-1.67.07-2.65.69-2.57-1.32.06-1.68.22-3.35.45-5.01.88-6.41,2.67-12.65,2.71-19.16,1.84.2,3.6-.49,5.44-.32ZM53.29,25.61c-1.08.87-2.88.66-4.16.64-.22-.74.44-.91.32-1.6,1.22.41,2.74.19,3.84.96ZM73.99,6.09c-1.98.74-4.45,1.86-6.64,1.98-1.97,1.34-4.91,1.86-7.08,3.03-2.31,1.24-4.27,1.76-4.43-1.44.89.2,1.35-.12,1.83-.8.56-.79,1.45-.47,2.32-.47,1.93,0,3.74-.52,5.54-1.17,3.65-1.31,8.47-2.17,11.73-4.25.89.19,1.84.52,1.92,1.59-1.6-.33-3.76.99-5.19,1.52ZM49.13,26.25c1.62.02-.26-.9,0,0h0ZM35.08,24.98c-.54,0-1.08,0-1.61-.01,1.98.06,2.07.04,1.61.01ZM46.05,100.55c.14.02.31.11.52.29-.33-.29-.48-.35-.52-.29ZM77.26.11c1.84-.24-.1,0,0,0h0ZM48.49,30.07c-.07,9.49,2.16.24,0,0h0ZM16.76,36.76c-1.19-.4-2.02-.83-3.13-1.41-2.94-1.54-6.42-3.18-8.39-5.98C.81,23.09,3.18,13.28,8.43,8.32c4.6-4.34,12.78-5.17,18.67-3.39,2.92.88,5.33,3.76,5.86,6.7.31,1.68-.24,7.08,1.85,7.83.25-.07.83-.14.81-.05,2.35-1.45.85-8.22.15-10.09-1.36-3.63-4.1-6.12-7.71-7.45C20.8-.82,10.58,1.36,5.27,6.99-.54,13.16-1.3,22.11,1.79,29.68c1.13,2.77,3.6,4.69,6.1,6.13,2.22,1.28,5.24,3.61,7.95,3.46,1.5-.09,2.85-1.85.92-2.51ZM35.38,19.55c-.21,0-.39-.03-.57-.1-.2.06-.19.12.57.1ZM35.63,19.4c-.08.05-.16.11-.25.15.18-.07.24-.12.25-.15ZM17.16,7.44c.16,0,.03.77-.08,1.15.07,2.55,1.76,5.05,4.23,5.86.65-2.45-1.36-7.01-4.15-7.01ZM17.09,8.59c-.01-.38.01-.77.08-1.15-.26,1.54-.18,1.54-.08,1.15ZM27.86,11.21c-.5.6-1.07,1.14-1.56,1.75-.72.9-1.79,5.21.48,3.39.67-.53,4.51-6.64,3.25-6.97.08.09-.26.33-.09-.03-.29.58-1.55,1.21-2.09,1.86ZM17.57,18.41c-2-1.55-7.22-2.56-8.72-.14,1.1,1.37,5.97,1.9,8.13.92-.51-.08-.37-1.44.59-.78ZM17.8,18.6c-.18.24-.47.44-.82.6.19.03.46-.12.82-.6ZM16.7,27.09c-2.27-.48-6.23-.3-6.25,2.66,1.48.24,5.93-.65,6.63-2.34-.45.78-2.1-.67-.38-.32ZM33.46,72.47c1.02.27-.58.79-.14.17-1.49,1.77-.25,4.42,2.05,4.18,1.2-.12,1-1.4.97-2.28-.04-1.42-1.6-1.74-2.88-2.07ZM42.41,74.38h-.96c.32,0-.11,1.06,0,0-.11,1.08-.87,1.7-.64,2.87,1.62-.28,3.26.35,3.2-1.91-.76-.91-1.94,1.29-1.6-.96ZM46.89,87.45c1.1.7,3.2.13,2.88-1.59-1.29-.9-2.65.41-2.88,1.59ZM39.43,86.53c-2.16.38-2.51,3.44-.85,4.75,2-.17,3.02-2.82,1.93-4.39.21.47-1.37-.16-1.08-.36ZM40.18,86.5c-.44-.04-.67-.02-.75.04.23-.04.48-.06.75-.04ZM40.18,86.5c.1.09.19.19.26.29-.06-.08-.13-.17-.26-.29ZM46.96,100.85c1.05-.06,1.96-.82,1.49-2.05-.48-1.25-1.64-.18-1.85-.79-.86-2.5-.63-1.16-2.9-.99.59,2.1,2.28,1.92,2.88,3.83-.15-.48.78-.06.39,0ZM46.96,100.85c-.13,0-.26,0-.39,0,.19.02.31.02.39,0Z"/>
    </g>
  </g>
</svg>