<?xml version="1.0" encoding="UTF-8"?>
<svg id="Layer_2" data-name="Layer 2" xmlns="http://www.w3.org/2000/svg" viewBox="0 0 84.84 106.29">
  <defs>
    <style>
      .cls-1 {
        fill-rule: evenodd;
      }
    </style>
  </defs>
  <g id="food_icons" data-name="food icons">
    <g id="coffeecup3">
      <path class="cls-1" d="M71.34,52.31s-.01,0-.02,0c.01,0,.02,0,.03,0,0,0-.01,0-.02,0ZM12.84,53.59c.07.06.13.08.19.12.06,0-.19-.28-.19-.12ZM31.38,100.13c.79-.04.66-.62,0,0h0ZM22.69,83.11c0,.05,0,.13.05.13-.01-.12-.03-.15-.05-.13ZM84.28,58.23c-.46-2.33-1.27-4.63-2.67-6.57-1.75-2.42-3.66-3.12-6.5-3.83-3.38-.85-7.46-.29-10.44,1.45-2.39,1.39-2.53,3.18-2.98-.49-.28-2.29-.35-5.63-1.55-7.64,3.24-1.71,3.52-4.39,3.52-7.65,0-3.71-2.58-5.33-5.5-6.84-1.67-.87-1.19-6.67-1.8-8.76-1.77-6.12-8.84-4.52-13.16-2.57-1.34-4.13-4.15-7.33-7.34-10.12-1.79-1.56-8.29-7.3-10.59-4.41-1.52,1.91,1.73,2.87,2.83,3.58,1.62,1.04,1.3,3.46,1.37,5.16.17,3.71.22,8.17-1.62,11.53-1.23-.4-1.86-2.16-3.11-2.72-1.02-.46-2-.61-3.18-.47-3.99.48-4.74,3.15-6.82,6.06-3.84-.11-6.46.57-8.68,3.88-1.95,2.9-2.37,6.53-1.23,9.83C-.1,36.95-.13,50.91.05,53.59c1.92,7.03,3.07,14.53,5.82,21.29,1.24,3.05,1.79,6.34,1.86,9.63.59,3.3,1.2,6.59,1.72,9.9.35,2.21-.42,6.71,1.13,8.48,1.98,2.27,2.89-.43,4.5-.85-3.08,3.23,6.18,3.19,6.89,3.2,4.2.07,8.38.32,12.58.46,4.01.12,8.71-.72,12.59.08,1.59.33,4.13,1.06,5.38-.19,1.21-1.2.1-1.54,1.88-1.31-.23-3.2.45-6.37.32-9.56,3.9.36,3.94-2.9,4.98-5.9.87-2.51,1.89-5.68,4.26-7.14,5.25-3.22,11.45-4.6,16.36-8.39,4.85-3.74,5.1-9.28,3.97-15.05ZM42.89,25.86c-.29.2-.58.39-.64,0,.08-.4.63-.32.64,0ZM9.45,72.6c-.16-.1-.24-.24-.24-.4-.28.79-.43-.83.12-.44-.82-.58-1.01-2.62-1.32-3.54-.32-.93.75-1.55,1.23-.68.31.55.2,5.07.21,5.06ZM13.03,53.71s-.08-.03-.19-.12v-.64c.28.21.6.32.96.32-.14.52-.4.65-.77.44ZM14.44,97.9c.26.06.32.32.64.32-.14.79-.91.79-.64-.32ZM16.04,101.73c.03.38-.47.2,0,0-.03-.38.46-.2,0,0ZM17.31,73.03c-.48-.59-.61-1.51-.64-2.55.99.07.54,1.59.64,2.55ZM16.35,64.75c.17-.49.33-.02.32.32-.17.49-.33.02-.32-.32ZM16.65,95.98c-.65-.22.51-.98.66-.95-.27-.06.06-1,0,0,.06-1,.22-1.9,1.28-1.91-.05.42-1.68,2.95-1.94,2.86ZM19.35,89.88c-.29-.07-.11-1.63-.11-1.86,0-.14-.16-2.5.16-2.44.55.11.02,4.32-.04,4.31ZM19.55,73.99c-.23-.34-.37-.6-.46-.78-1.12-2.11-1.51-4.59-2.1-6.87.69-.12.86.53,1.6.32.09,1.12-.84,2.5,0,3.51.14.48,1.4,1.06,1.6.32.8.93-.53,2.54-.64,3.51ZM20.83,80.05c.16-.84-.25-1.55-.32-2.34-.03-.05-.04-.2,0-.53.41.13.74.03.96-.32.59.62.76,3.53-.64,3.19ZM22.62,83.27c-.1.34-.21,1.07-.19,1.24-.71-.04-.29-1.07.19-1.24.03-.1.05-.15.07-.16,0-.06.04-.08.05.13-.04,0-.09.02-.13.03ZM23.38,86.11c-.16-.17.23-.41.32-.32.17.17-.23.41-.32.32ZM23.7,73.03c-.16-.17.23-.41.32-.32.17.16-.23.41-.32.32ZM24.35,72.4c-1.45-.76.58-2.55.96-3.51.95,1.17-.73,2.45-.96,3.51ZM26.26,101.73c-.17-.16.23-.41.32-.32.17.17-.23.41-.32.32ZM26.82,77.67c-.58-.95-.13-2.32.22-3.27.35-.94,1.04-2.14,1.14-.41,1.8-.05.29,3.64-.7,4.1.04.07,0,.1-.25.05-.56-.43-.57-.52-.41-.46ZM28.01,88.35c-.11.26-.35.53-.79.62.08-.25.16-.44.24-.61.78-2.08,1.97-3.97,3.28-5.77.67.32-1.36,4.21-2.73,5.75ZM33.3,100.45c-.59-.34-1.23-.45-1.92-.32.72-.68,1.56-1.11,1.6-2.23.78.26.17,1.99.32,2.55ZM32.04,79.3c.17-.75.3-1.53,1.26-1.49-.26.52-1.01,1.21-1.26,1.49,0,.04-.02.07-.02.11-.43.19.1-.65.02-.1,0,0,0,0,0,0ZM32.66,66.34c.16.16-.23.41-.32.32-.16-.17.23-.41.32-.32ZM33.3,91.84c-.53.54-.25,1.87-1.6,1.59.53-.54.25-1.87,1.6-1.59ZM32.02,80.68c.17.17-.23.41-.32.32-.16-.17.23-.41.32-.32ZM31.7,81.64c-.06.36-.32.18-.32,0,.06-.36.32-.18.32,0ZM35.53,69.53c.07-.08.14-.11.19-.11.28-.14.57-.12.87.1,1-.27,1.29.16.86,1.29,0,2.43-.74.88-1.92,2.23-.86-.78.32-2.49,0-3.51ZM36.17,67.61c.08-.56.55-.73,1.28-.64.32.96-.71.56-1.28.64ZM37.77,82.92c.16.17-.23.41-.32.32-.17-.17.23-.41.32-.32ZM38.09,82.28c.16.17-.23.41-.32.32-.17-.17.23-.41.32-.32ZM36.81,84.83c-.28,0-.3-1.05-.08-.33-.03-.24.08-.3.33-.19.38.37-.77,1.15-.76,1.33,0-.04.36-.81.52-.81ZM36.81,74.63c1.1,1.27.2,2.31-.32,3.51-.96-.98.14-2.61.32-3.51ZM37.13,83.87c-.16-.17.23-.41.32-.32.17.16-.23.41-.32.32ZM36.17,92.48c-.3.87-.98,1.36-1.28,2.23-.45-.37-.03-2.57,1.28-2.23ZM34.89,101.73c1.34-.02-.31-1.02-.11-.26-.23-.72.34-1.2.86-1.68.95-.89.77-.24,1.79.38,1.41.85,3.42-.4,4.5.62-.13,1.17-6.16.95-7.03.96ZM38.64,80.35c-.03-.23.08-.3.33-.19.21.2-.79,1.7-.81,1.68-.14-.14.33-1.15.56-1.16-.28,0-.3-1.05-.09-.33ZM49.6,101.73c1.12-2.63-.64-2.82-.64-5.1,0-.53-1.09-3.13-1.18-3.09.35-.18.93.72,1.18.86-.32-.17.47-.38,0,0,.46-.36,1.53-1.38,1.83-1.19.55.33.56.79,1.36.56.31,2.97.63,5.94.64,8.92-.51-1.09-2.37-.32-3.2-.96ZM52.48,70.48c.17.16-.23.41-.32.32-.16-.17.23-.41.32-.32ZM55.53,62.6c.6-1.24,1.05-2.39.85-3.67-.26-1.69-1.13-3.42-2.83-1.48-.7.8-1.91,1.88-2.35,2.83-.05,2.41-2.32,8.12-.79,10.19.87,1.18,1.14.73,1.02,2.6-.11,1.69-.2,3.4-.55,5.06-.37-.34-.48-.77-.32-1.27-.18.06-1.46,1.19-1.53,1.34-.49,1.13-.26,2.59-.71,3.76,0,3.19-.01,5.68-1.7,8.5-1.46,2.42-3.99,1.62-5.17,3.88-.61,1.17-.99,2.47-1.76,3.56-.97.2-.59-.55-.32-.96.84-1.11,3.04-3.92,1.79-4.76-2.13-1.42-1.94-3.03-1.81-5.34.17-3.22,1.94-6.05,1.94-9.43,0-.84.48-7.99-.06-8.2-.32-.12-.87.93-.9,0-.62-.49-.22-1.76-.38-2.42-.52-2.09-3.65-1.76-5.05-1.08-.06-2.72-2.27-.54-2.16-.44-.22-.28-.14-.45.24-.52-.82.06-.07-1.08.02-.47-.05-1.28-1.11-2.01-.78-3.32.06-.24.83-3.42.12-3.1-1.11.51-3,5.5-3.19,6.57-1.04-.34.25-2.51-.53-3.14-.47-.39-.88-2.43-1.07-3.23-2.28.97-2.16,4.18-3.2,6.06-1.36-.55.47-4.65.39-5.95-.17-2.72-2.37-.85-2.63.85-1.08-.94-.44-2.83-2.54-1.36-1.62,1.13-.79-1.64-.98-2.46-.93-.15-1.88.65-2.85.36-.62-.19-.35-1.13-.98-1.31.44-.74,5.84,0,6.71,0,2.73.2,5.47.33,8.21.42,3.29.11,6.58.16,9.87.2,2.8.03,1.39-1.79,1.74-3.81-4.88-.12-9.76.02-14.64.05-2.61.01-5.22,0-7.84-.12-1.62-.07-3.94-.74-5.39.23-1.78,1.2-.23-1.05-1.54-.48-1.13,0-2.35-.51-2.2.86.1.96-2.65-.01-3.23.1-1.25-.08-1.43,1.1-2.29,1.51-.11.05-.27-5.72-.27-6.34,0-2.11.85-3.96,1.28-6,.73,0,.97.56,1.55.84.82.39,2.21.16,3.1.22,1.9.13,3.79.37,5.68.6,3.86.47,8,1.12,11.82.11,1.78-.47,3.48-1.18,5.23-1.76,2-.66,4.36-.33,6.46-.33h13.47c1.93-.64,2.43-2.44.84-3.71-1.32-1.05-4.51-.44-6.2-.45-4.73,0-9.46-.01-14.19,0-4.69.01-9.39.04-14.08.11-2.33.03-4.65.07-6.97.12-.51,0-5.69.53-4.03-.86.98-.82,1.27-2.84,1.16-4.14,1.12-1.15,2.35-2.21,3.84-2.87.51,1.04,2.5,1.42,3.46,1.19,1.45-.34,1.52,1.32,2.08,2.28.74,1.27,2.17,1.37,3.01.19.8-1.12.21-2.77-.53-3.88-.72-1.08-1.75-1.86-2.69-2.75-.96-.92.22-2.57,1.03-3.44,2.62-2.79,5.51-.34,6.85,2.26.57,1.09.74,2.77,2.13,3.19,1.53.04,1.92-1.27,1.92-2.55,7.7,0,2.89-13.99,2.56-18.17,5.7,4.07,9.07,10.83,7.99,17.85-.42.71-2.38,2.23-.82,3.02.74.37,1.78-.99,2.74-.79.37-.73.86-.96.64-1.91.57-.06,1.02-.31,1.37-.76.87-.91.4-2.27.53-3.54.19-2,.31-3.06,2.31-3.69,1.74-.54,2.85-.24,4.44.32,1.75.61,2.24,7.55,1.41,8.97-.64,1.09-1.97,1.23-1.31,2.88.44,1.1.41,2.8,2.1,2.44,1.32-.28,1.97-1.39,2.57-2.48.92.3,1.81.77,2.47,1.49,2.35,2.59,1.04,5.27-1.35,6.95-1.56,1.09-1.05,1.88-.47,3.36-.19,1.73.06,3.47.34,5.18.63,3.75.72,7,.2,10.4-.24,1.62-.03,5.96-1.52,7.12-1.41,1.09-1.1-.57-.76-1.26ZM77.79,68.7c-3.61,2.88-8.08,4.21-12.22,6.12-4.37,2.02-7.54,4.24-9.57,8.73-.62-.43,0-4.18,0-4.99,0-1.93.54-3.9.95-5.78.62-2.88,1.96-5.55,2.94-8.14.87-2.3.78-6.38,3.56-7.34,1.56-.55,2.32-2.41,3.42-3.71,1.51-.36,2.87-1.21,4.46-1.27-.39.01-.71.03.02,0,.95-.04.46-.02.02,0,4.22-.16,6.58,1.82,7.65,5.76.88,3.24,1.69,8.31-1.22,10.63ZM35.72,69.42c-.06.03-.13.06-.19.11.39,1.24.53-.13.19-.11ZM32.02,79.41s0-.07.02-.1c-.08.09-.1.13-.02.1ZM9.21,72.2c.04-.1.08-.24.12-.44-.09.17-.12.31-.12.44ZM43.21,15.33c1.54-.7-.58-1.77,0,0h0ZM27.22,78.13c.08.02.16,0,.25-.05-.08-.12-.48-.36-.66-.42.1.17.23.33.41.46ZM19.09,73.21c.14.27.29.53.46.78.1-.88-.9-1.71-.46-.78ZM20.51,77.18c-.03.18-.02.36,0,.53.09.14.33-.51,0-.53ZM33,64.28c0,.15,0,.3-.02.47.03-.22.04-.37.02-.47ZM27.46,88.37c-.08.2-.17.4-.24.61.2-.04.48-.27.79-.62.2-.49-.1-.93-.55.02ZM57.8,53.7c.08.24.13.51.12.85.09-1.57-.04-1.34-.12-.85ZM57.8,53.7c-.43-1.28-2.08-1.43-3.43-1.42-2.58.02-2.89-.03-2.81,2.56.09,2.8,5.19.81,6.36-.3-.2.19-.18-.42-.12-.85ZM50.24,73.35c.01-.34-.15-.81-.32-.32-.01.34.15.81.32.32ZM49.6,74.31c0,.18.26.36.32,0,0-.18-.26-.36-.32,0Z"/>
    </g>
  </g>
</svg>