<?xml version="1.0" encoding="UTF-8"?>
<svg id="Layer_2" data-name="Layer 2" xmlns="http://www.w3.org/2000/svg" viewBox="0 0 108.43 105.62">
  <defs>
    <style>
      .cls-1 {
        fill-rule: evenodd;
      }
    </style>
  </defs>
  <g id="food_icons" data-name="food icons">
    <g id="coffeecup2">
      <path class="cls-1" d="M49.13,41.21c1.35.42,4.79-.94,2.42-2-1.58-1.31-3.31-3.6-3.68-5.64-.53-2.92,2.17-4.4,4.09-6.28,1.83-1.79,3.2-3.58,4.19-5.94,1.88-4.48,2.82-8.95.15-13.52-1.93-3.3-4.29-6.8-8.09-7.64-.47.06-1.37.09-1.71,0-.44.39-1.68.3-1.73,1.43-.04.95.42,1.61,1.2,2.08,2.07,1.24,3.61,2.3,5.04,4.29,3.04,4.22,3.17,9.29.15,13.6-2.32,3.32-6.68,5.38-7.71,9.53-.96,3.88,1.8,8.88,5.67,10.09ZM46.44,0c.62,0,1.21.07,1.77.19C48.76.12,48.72,0,46.44,0ZM46.44,0c-.45.35-.16.28.03.17-.11-.04-.14-.1-.03-.17ZM46.47.17s.02,0,.03.01c.04-.03.08-.06.11-.11-.02.03-.07.06-.14.1ZM37.74,23.02s0,0,0,0c0,0,0,0,0,0,0,0,0,0,0,0ZM37.17,22.63c.1.05.2.13.3.19-.04-.04-.13-.1-.3-.19ZM37.69,29.15c1.48,1.37,2.21-.49,2.22-1.75.02-1.63-.84-3.39-2.18-4.38-.04.05-.26,0-.48-.08-1.04-.17-3.34-.39-2.32,1.56.67,1.28,1.7,3.68,2.75,4.65ZM37.47,22.82c.13.14-.31.04-.56-.06.08.06.21.12.35.18.27.04.45.08.48.08-.09-.07-.17-.14-.26-.2ZM37.17,22.63c-.54-.04-.47.05-.26.13-.12-.09-.09-.16.26-.13ZM67.56,29.79c.37-.41.23-.72-.14-.94.04.04.09.08.12.16.05.44.05.67.02.78ZM67.51,29.83s0,.03,0,.05c.02,0,.04-.03.05-.08-.01.01-.02.02-.03.04,0,0-.01,0-.02,0ZM56.7,36.5c.33,1.43,2,2.86,3.3,1.47.96-1.03.25-2.86,1.27-3.65,1.74-1.36,5.77-1.88,6.23-4.45-.13.01-.38-.69-.37-1,.01.3.28.95.38.95.04-.25.06-.52.03-.82-.1-.12-.18-.19-.24-.23-.04-.01-.09-.02-.14,0,0,.01-.01.02-.02.04,0-.01,0-.03,0-.04,0,0,0,0,.01,0,.02-.02.04-.03.07-.03-.73-.34-1.96-.46-2.23-.42-1.65.22-3.22.96-4.69,1.7-2.38,1.19-4.27,3.62-3.61,6.47ZM67.29,28.78s0,0,0,0c0,0,0,0,0,0,0,0,0,0-.01,0ZM94.77,63.79c-.4.03-.82.08-.74.16.1.1.45.13.78.11-.49-.03-.93-.19-.03-.27ZM41.96,85.75s-.02-.02-.03-.02c0,0,0,0,0,0,.01,0,.02,0,.03.02ZM101.33,74.6c-.17.23-.36.45-.55.63.26-.25.44-.44.56-.57,0-.02,0-.04-.01-.06,0,0,0,0,0,0ZM29.08,82.3c-.06.04-.08.1-.07.14,0,0,0,0,.01,0-.02-.05,0-.11.06-.15ZM37.71,81.96c-.18,0-.36,0-.54-.03.36.06.57.14.67.22-.01-.08-.05-.14-.13-.18ZM29.5,82.56c-.2.02-.35-.03-.48-.11.02.08.14.14.48.11ZM29.08,82.3c.15-.11.44-.14.42.26.03-.43-.27-.39-.42-.26ZM105.89,59.83c-2.14-2.57-6.11-3.41-9.24-3.96-2.37-.41-4.77-.54-7.15-.17-.45.07-2.08,1.24-2.64.86,0,0,0,0-.01,0,0,0,0,0,.01,0-.02-.02-.04-.04-.06-.06-.02,0-.05-.01-.08-.07-.02.13-.02.17,0,0,.12-1.19.2-1.4.23-1.22,0,0,0,0,.01,0,.08.16.13,1.28-.1,1.34,0,0,0,0,0,0,1.19-.2-1.75-6.08-2.8-6.61-2.19-1.11-5.19-.5-7.52-.37-6.69.37-13.32.02-19.93-.84-6.38-.83-12.96-.7-19.36-.27-5.96.4-11.54-1.45-17.48-.97-1.53.12-2.93.35-4.41.75-1.51.41-.35.46-1.37,1.16-1.1.76-1.44,2.99-1.4,4.13.21,5.06.44,10.18,1.26,15.18.89,5.36,2.68,10.88,5.79,15.39,1.24,1.8,2.35,3.97,3.72,5.64,1.04,1.26,2.78,1.66,3.75,2.99.04.06-3.5.69-3.78.74-2.42.47-4.96.21-7.39-.04-3.96-.41-6.61-1.42-10.15-2.79-4.16-1.6-7.66,1.69-4.7,5.67,2.3,3.1,7.46,5.07,10.9,6.53,5.24,2.22,10.28,2.5,15.9,2.07,5.59-.43,10.99-.45,16.6-.38,5.92.07,11.77-.15,17.61.59,5.11.64,10.7.64,15.81,0,2.24-.28,4.93-.53,6.6-2.25,1.31-1.36,1.85-1.49,3.68-2.12,1.82-.63,3.62-1.6,4.68-3.26,1.41-2.22.31-2.58-.82-4.41-1.27-2.06-2.93-1.63-4.84-.73-1.78.84-3.67.94-5.56,1.43-4.89,1.27-9.21-.05-14.12.26.81-1.48,2.7-2.29,4.06-3.16,1-.64,1.61-1.88,2.77-2.3,1.4-.51,2.31,1.64,4.04.85,1.24-.56,2.12-1.75,3.03-2.71,3.1-3.29,6.88-2.41,10.8-3.39,4.23-1.06,8.14-1.6,11.84-4.17,5.24-3.64,5.63-14.75,1.81-19.32ZM18.31,64.07c-.16-.17.23-.41.32-.32.17.17-.23.41-.32.32ZM21.8,67.59s0,0,0,0c-.49.17-.16-.21-.03-.12,0-.11.03-.22.25-.06.07.86-.9,1.63-1.16,2.4-.85-.66.26-1.95.93-2.22ZM22.78,73.64c-1.07-.29-.28-.71,0-1.28.96.21-.3.68,0,1.28ZM25.66,76.51c-.1-.73.92-.35.96-.96.83.32-.37,1.94-.96.96ZM24.82,75.38c-.08.09-.23.15-.44.17.03-.26.11-.41.19-.49-.06.04-.11.09-.14.17.19-.96.64-1.86.58-2.86.69.36,1.13,1.08,1.92,1.28-.5.8-1.25,1.39-2.11,1.74ZM68.94,97.63c1.21-.24,1.62-1.38,2.94-1.38.66,0,1.34.16,1.98.27,1.63.29,4.79,1.37,6.36.48.54-.31.36-1.23.75-1.68.67-.11,1.33-.22,2-.34,1.16-.2,2.34-.33,3.51-.32.09-.01.23,0,.39.01.07,0,.13,0,.2,0-.04,0-.09,0-.12,0,.13.02.28.04.44.06-.01-.02,0-.04-.03-.06.02.02.04.04.05.06.74.13,1.64.32,1.87.25.2.73-.63.64-.64,1.28.27-.02,1.34-.75,1.56-.55.54.48-2.65,2.33-3.22,2.42-1.27.19-2.54-.17-3.78.27-2.19.78-4.37,1.04-6.55,1.63-3.26.88-7.14.21-10.49.16-3.73-.06-7.46-.09-11.19-.09-6.16,0-12.32-.03-18.46.41-1.28.09-4.17.49-4.96-.93-.47-.86-7.77.11-9.41-.13,2.62-2.4,6.19-2.65,9.74-2.42,3.37.23,6.28,1.75,9.62,1.68,3.79-.08,7.31-1.39,11.09-1.51,1.7-.05,3.58.48,5.23.24,1.19-.17,1.82-.68,3.09-.55,2.54.25,5.48,1.24,8.02.74ZM28.55,80.71c.24-1.12.87-.29,1.59-.38-.04.8-.59,1.44-.64,2.23-.36.03-.48-.04-.49-.12-.51-.32-.57-1.21-.46-1.74ZM31.33,77.45c.03.21.06.43.08.65-.36-.08-.73.61-.88.32-.04.06-.08-.06-.08-.64-.15-.03.85-.37.88-.33ZM33.33,77.78c.66.09.3,1.19.96,1.28-.62,1.1-1.31-.36-.96-1.28ZM35.25,86.07c-.47-.17-.8-.47-1.28-.64.1-.68,1.51-.07,1.28.64ZM33.33,84.79c-1.36.1-.32-1.7-.32-2.23,1.06-.39.78,2.16.32,2.23ZM39.41,86.39c-.61-.08-.24-1.36-1.21-1.55-1.21-.25-.62-1.69-1.03-2.91.25-.04.43-.02.54.03,1,0,1.96-.39,2.98-.36.2.76-.96.85-.95,1.66.02,1.04.11,2.15-.33,3.13ZM41.76,86.21s-.02-.26.05-.41c0-.08.04-.15.12-.07-.03-.4-.31-.88-.29-1.25.42.33,2.05,2.77,1.23,3.21-.94.5-1.07-1.18-.94-1.82-.01.13-.06.25-.17.34ZM72.77,84.55c-2.58,3.54-8.04,3.95-12.03,5.1-.97.28-3.68,1.26-4.41.05-1.28-2.15-.97.1-2.3.41-1.22.28-3.36-.42-4.19-1.38-2.4-2.81-1.34.51-2.67.9-1.19.35-2.02-2.92-2.55-3.74-.97-1.5-2.32-3.48-3.82-4.5-1.47-1.01-3.55-.67-4.9-1.85-.69-.61-2.88-4.52-3.95-4.17.04-.01-2.22,3.2-2.47,2.42-1.36.05-.43-2.5-.64-3.19,2.6.48,5.59.66,7.99-.64-.71-1.18-4.1-1.28-5.24-1.23-.48.02-2.25-.54-2.42-1-.05-.14.02-2.4-.32-2.19-1.22.79-.1,2.41-2.23,1.6-1.81-.68-1.37-2.74-1.29-4.51-.83-.23-1.39,4.89-3.52,5.1.13-2.33,2.14-4.04,2.24-6.38-1.43-.32-1.93,2.43-3.04,2.11-.42-.12.44-3,.48-3.38,3.12.83,6.37,1.11,9.59.96-1.59-1.64-4.26-1.67-6.37-1.99-2.36-.36-2.58-.56-2.58-2.79,1.91.17,3.83.46,5.75.32-1.55-1.84-4.24-1.95-6.39-2.55-1.53-.15-.94,2.02-2.24,2.23.02-1.57,1.29-3.52.57-5.06-.48-1.03-1.63.27-2.34.1-.73-.17.31-1.29.62-1.38,2.65-.75,6.52,1.27,9.28,1.36,2.37.08-.36-1.39-1.2-1.64-2.06-.61-4.64-1.36-6.76-1.12-2.84.31-.83-1.44,1.04-1.25,2.93.3,5.85.56,8.71,1.34-.13-.04-.18-.07-.18-.1-.07-.02-.12-.04-.12-.05-.06-.34,2.6-.28,4.87-.19,1.43,0,2.74.04,3.16.09-.03.06-1.49-.02-3.16-.09-2.23,0-4.75.05-4.75.24.12.03.32.06.6.09,4.49-.05,6.59-.11,7.22-.17.03-.02.07-.05.08-.07.2.02.2.05-.08.07-.63.47-5.2.27-6.98.2,4.38.43,22.17,1,24.11,1.15,9.62.73,19.27,1.46,28.92,1.06-2.21,10.2-3.78,21.06-10.11,29.72ZM85.12,68.5c.26-1.19.34-2.65,1.02-3.7,1.45-2.2,7.04-.97,9.2-1.04.1,0,.08,0,0,0,.57.57,1.27,1.12,1.66,1.85.9,1.7-.63,3.7-1.81,4.8-3.02,2.84-8.01,1.75-11.67,3.55.39-1.87,1.2-3.61,1.61-5.46ZM101.35,74.66c.15.42-.49.84-1.61,1.24-.12.06-.22.1-.28.1-4.22,1.41-14.02,2.58-14.98,2.75,3.97-5.33,13.91-1.44,15.67-9.87.72-3.44-.08-7.1-4.02-8.24-2.68-.78-7.07-.26-9.74.26,1.34-5.04,12.27-.35,14.57.94,3.52,1.97,2.79,9.28.5,12.58.1-.03.09.03-.12.26ZM37.84,82.14c0,.05.02.1,0,.17-.32.06-.54-.06-.67-.39.24.7.99.47.67.22ZM30.45,77.78c0,.35.03.55.08.64.05-.1.08-.6-.08-.64ZM41.94,85.84s.02-.07.03-.09c0,.03-.02.04-.03.06,0,.01,0,.03,0,.04ZM99.49,75.92c.34-.31,1.74-1.46,1.84-1.31.05-.06.09-.14.14-.2-.33.11-1.92,1.33-1.98,1.52ZM41.94,85.81s0-.05,0-.08c-.05-.03-.09,0-.12.07,0,.1.05.18.13,0ZM24.58,75.06c.06-.04.14-.06.24-.05-.06-.04-.15-.03-.24.05ZM94.8,64.06c.39.02.81-.04.55-.3h0c.17.17-.17.27-.55.3ZM95.35,63.76s0,0,0,0c-.24,0-.43.02-.58.03.25-.02.47-.03.58-.03ZM95.35,63.76h0s0,0,0,0h0ZM21.77,67.47s.01.09.03.12c.01,0,.01,0,.03,0,0-.06-.03-.09-.05-.11ZM21.82,67.58s-.02,0-.02.01c.02.04.03.05.02-.01ZM86.95,55.2c-.07-.04-.19.89-.23,1.22.02.04.05.05.08.07.15-.02.2-1.05.15-1.3ZM29.6,52.59c-.14,0-.27,0-.42,0,.09,0,.33,0,.67.02-.09,0-.17-.02-.25-.03ZM87.19,94.92c-.26-.05-.55-.21-.23-.24-.03,0-.06,0-.09-.01-.13,0-.26-.01-.39-.01-.07,0-.11.02-.12.06-.04.11.5.23.83.21ZM99.49,75.92s-.08.08-.07.08c0,0,.03,0,.04,0,.1-.03.19-.06.28-.1.4-.2,1.01-.65,1.04-.67-1,.63-1.32.78-1.29.69ZM24.87,75s-.04,0-.06,0c.04.02.06.05.07.1,0-.03,0-.06-.01-.1ZM87.19,94.92c.2.04.37.02.22-.18,0,0-.01,0-.02,0,.06.11-.03.17-.2.18ZM24.63,75.46c.06-.03.13-.05.2-.08.06-.06.07-.15.06-.25,0,.1-.06.22-.26.32ZM86.72,56.42s0,0,0,0c0,0,0,0,0,0,0,0,0,0,0,0Z"/>
    </g>
  </g>
</svg>