<?xml version="1.0" encoding="UTF-8"?>
<svg id="Layer_2" data-name="Layer 2" xmlns="http://www.w3.org/2000/svg" viewBox="0 0 85.96 79.43">
  <defs>
    <style>
      .cls-1 {
        fill-rule: evenodd;
      }
    </style>
  </defs>
  <g id="food_icons" data-name="food icons">
    <g id="coffeebeans">
      <path class="cls-1" d="M26.57,18.77c.88.03.08-.93,0,0h0ZM14.11.28c-.06-.27-.32,0,0,0h0ZM18.9,12.08c0,.08.03.19.07.3.11.11.28-.44-.07-.3ZM19.14,35.82c.11-.07.24-.13.4-.15-.18.03-.31.09-.4.15ZM3.23,29.93c1.77,2.94,2.44,6.45,4.48,9.25,1.71,2.53,4.18,7.02,7.16,7.95,3.17.98,5.33,2.58,8.82,2.84,3.28.23,6.69.15,9.9-.58,4.83-2.68,10.75-6.48,12.52-11.91.97-2.96,1.03-6.27,1.06-9.47.03-3.63-1.36-6.68-1.75-10.19-3.37-5.42-7.81-12.04-13.99-14.43-2.86-1.11-5.77-2.11-8.78-2.72-.88-.18-8.72-1.14-8.56-.39-3.04,0-5.61,2.53-7.57,4.56-1.86,1.93-2.38,3.31-3.04,5.64-.85,2.98-.81,5.81-.97,8.99-.1,1.92-.45,3.96-.04,5.85.33,1.53.77,3.01.75,4.6ZM8.67,29.61c-.82-.44-.07-1.95,0-2.55.95.56-.18,1.7,0,2.55ZM23.37,17.18c-.06.36-.32.18-.32,0,.06-.36.32-.18.32,0ZM16.02,4.11c0,.59,1.64,0,.37-.01,1.27-.05,2.53.03,3.79.2,1.39.18.95.51.95,1.73-1.9-.99-2.71,1.14-3.2,2.55-.82-.68.44-2.01-.32-2.87-1.07-.03-1.71.59-1.92,1.59-1.27-.07.31-2.96.32-3.19ZM21.14,14.95c-.65.04-1.87-1.69-2.17-2.57-.03-.03-.06-.12-.07-.3.46-.18.78-.5.96-.96.26.06,1.35,3.42,1.28,3.83ZM8.31,21.25c1.05-1.01,2.15-2.39,2.6-3.76-1.57-.79-2.65,1.34-3.51,2.23-.17-.02.33-3.17.64-3.19-.06-1.3.97-2.21.96-3.51.26-.61-.83-1.44-.96-.64-.77-.26.74-3.7.91-4.03.74-1.39,2.7-3.15,4.2-3.94,1.16,1.56-.38,4.51.56,6.52.42.89.75,1.72.72,2.73.96.96,1.91,1.92,2.86,2.88,3.58,3.61,7.38,6.89,10.05,11.18,2.21,3.55,2.03,8.15,3.4,11.62.44,1.1.04,2.33.42,3.53.6,1.89,2.96,1.53,2.77-.53,3.71,3.43,2.59-5.28,1.99-7.14-.68-2.09-1.79-3.98-3.02-5.79-1.46-2.15-.73-3.36-.88-5.88,1.52.21,2.83,4.16,3.15,5.35.79,2.99,1.24,5.54,1.58,8.6.12,1.06.37,2.34,1.35,2.95,1.23-.42,1.31-1.96,1.31-3.03,0-3.2-.65-6.56-1.81-9.52-2.48-6.33-7.14-10.28-12.03-14.75-1.95-1.78-2.46-4.31-2.09-7.01.26-1.88,2.13-.76,3.51-.34,1.31.4,2.58.93,3.79,1.58,4.61,2.47,9.95,7.87,11.52,12.93,1.64,5.3,2.59,12.82-.54,17.72-2.29,3.57-6.32,7.32-10.66,8.24-1,.21-3.19.82-3.67-.41-.7-1.79-.72-1.62-2.73-1.85-2.67-.3-3.8-1.54-6.11-2.31.46-.39.99-.6,1.6-.64-.65,2.42,2.82,1.39,3.7.39,2.04-2.32-1.1-1.4-2.42-1.67.09-1.35.97-2.45.96-3.82-2.42-.03-2.55,2.61-4.48,3.19.41-1.14,1.28-2.01,1.54-3.2-.22.79-.77.28-.43-.08-.73.55-.76,1.84-2.07,1.69-.82.45-.32,2.02-1.6,1.91-.63-.65-.61-1.78-.74-2.61-.25-1.53.2-.73,1.26-1.55.42-.33,1.75-3.33,1.12-3.1-.97.36-2.2,1.08-2.87,1.67-.31.28-1.21,1.63-1.54,1.7-1.72.33,1-2.67,1.17-2.81.28-.42,2.74-4.08.55-3.16-.93.39-2.09.64-2.4,1.49-.21.56-1.44-.79.26-1.83.08-.58,3.8-8.33,2.91-8.19-2.9.43-2.65,5.7-5.15,6.28-.01-1.73.45-3.39.64-5.1.85-1.3,1.68-2.58,1.92-4.14-2.72.18-4.69,6.86-5.11,8.92-.9-.54.49-5.4.92-5.81ZM28.14,19.68c-.38-1.53-.52-.87-1.57-.9.08-.8-.71-1.11-.64-1.91,1.55,1.07,4.73,3.33,4.22,5.33-.67,2.66-1.92-2.13-2.01-2.52ZM29.45,24.51c-.06.36-.32.18-.32,0,.06-.36.32-.18.32,0ZM32.96,35.35c0,.06,0,.16,0,.29.15.31.49.82.62,1.42.3,1.42.3,2.9.33,4.35-.6-.07-.9-4.49-.95-5.77,0,0,0-.02-.01-.02-.03,1.33-.36-.23,0-.26ZM32.96,35.61c0-.08,0-.16,0-.26-.1,0-.08.11,0,.26ZM74.2,50.97c.99.5-.13-1.36,0,0h0ZM85.51,48.62c-.63-4.14-4.2-8.53-6.89-11.61-3.33-3.81-6.79-5-11.77-5.17,2.69.09-.81.63,0,0-1.71,1.34-4.58.71-6.39,2.24-1.63,1.37-2.59,2.69-3.69,4.48-2.21,3.61-2.74,9.82-2.71,14,1.91,3.62,3.76,6.39,6.51,9.45,1.76,1.96,3.64,3.87,5.9,5.27,1.76,1.09,4.19.95,6.21.95,2.06,0,4.92.12,6.65-1.15,1.13-.83,2.09-.94,2.92-2.11.69-.97,1.38-1.95,2.18-2.85,1.85-4.42,1.76-8.98,1.07-13.5ZM56.94,54.48c.46.39.61,1.1.64,1.91-.56-.29-.71-1-.64-1.91ZM61.73,37.26c0,.31-.39.25-.64.32,0-.31.39-.25.64-.32ZM60.13,39.18c.17.16-.23.41-.32.32-.17-.17.23-.41.32-.32ZM59.82,40.13c.16.16-.23.41-.32.32-.17-.17.23-.41.32-.32ZM59.5,52.56c.17-.49.33-.02.32.32-.17.49-.34.02-.32-.32ZM59.82,53.84c.17-.49.33-.02.32.32-.17.49-.33.02-.32-.32ZM70.04,65c-.16-.17.23-.41.32-.32.17.17-.23.41-.32.32ZM70.46,62.99c-.63,1.15-1.38-.54-2.01-.86.5-1.25.94-2.52,1.28-3.83-1.77-.27-3.9,3.42-4.48-.32.23-.88,1.74-3.35,1.1-4.12-.87-1.05-2.34.21-2.7,1.25-.84-.87.66-2.41.32-3.51-1.11.11-1.81.81-1.92,1.91-1-.84-.65-2.01-.19-3.03.05-.1,1.25-2.85.58-2.65-.55.17-1.73,1.96-1.67,2.48-.87-.38-.65-1.86-.64-2.55.13-.78.19-1.08.21-1.12.47-2.52,1.1-5,1.71-7.49-.23.05,2.42,4.8,2.95,5.35,1.69,1.75,4.04,2.95,5.06,5.16.59,1.28,1.59,2.32,2.5,3.36,1,1.14.97,2.52,1.35,3.95.58,2.17-.23,4.61.61,6.72-1.45.32-3.19-2.33-4.06-.73ZM77.72,64.04c0-3.23-.09-11.31-3.52-13.07-.12-1.22-1.43-1.68-1.6-2.87,3.58.74,4.85,4.7,5.8,7.69.51,1.63,3.21,8.9-.69,8.25ZM81.87,59.58c-.92-.42-1.51-3.72-1.73-4.65-.43-1.77-1.28-3.28-2.1-4.92-2.26-2.82-5.79-4.11-8.75-6.04,2.07,1.22-1.24-2.69-.52-.34-.18-.6-1.82-8.05-2.49-7.59,1.87-1.29,6.14.29,7.57,1.54,2.03,1.77,3.83,3.8,5.27,6.08,3.37,5.29,3.64,9.99,2.76,15.91ZM60.34,46.66c-.07.37-.15.74-.21,1.12-.01.8.26-1.24.21-1.12ZM19.54,35.67c.46-.2-.03-.39,0,0h0ZM7.71,64.68c.75.31,0-.42,0,0h0ZM14.95,71.53c.14.22.29.39.43.48.09-.82-.47-.79-.43-.48ZM3.23,56.71c.14.2.3.4.45.6,1.62,2.06-.61-2.43-.45-.6ZM3.87,61.81c.8.05-.08-1.09,0,0h0ZM41.73,47.48c-1.67-1.03-3.47-.13-2.81,1.94.4,1.26,1.43,2.25,2.35,3.15.41.73,3.46,5.64,3.69,5.62-.1,0-.53-.36-.49-.52-.06.27-1.71-1.31,0,0-3.04-2.32-4.93-5.38-8.79-6.48-4.14-1.17-7.81-.92-11.96.07-3.37.8-8.44,1.7-11.5-.13-1.1-.66-6.1-5.22-3.89-6.16.69-.29.89-1.7.33-2.28-1.41-.89-2.49.2-3.74.75-3.03,1.32-4.77,5.02-4.62,8.17.22,4.33-1.04,7.82.34,12.2,1.11,3.53,4.08,7.06,7.01,9.3,6.66,5.09,16.3,7.94,24.63,5.36,1.31-.4,2.94.73,3.62-.96.43-1.07,2.89-1.54,3.87-2.16,3.54-2.24,5.87-4.75,8.16-8.27,1.21-1.86,1.24-4.27,1.34-6.45.11-2.48-.07-3.55-1.4-5.61-1.59-2.46-3.55-5.94-6.14-7.54ZM7.79,49.49s2.87,3.31,3.29,3.27c-1.19.1-2.78-1.69-3.05-2.75.37,1.44-.96-.06,0,0-.38-.07-.46-.24-.24-.52ZM3.87,61.81c-.08-1.03-.78-1.79-.64-2.87.92.58,1.18,1.82,2.24,2.23-.39.53-.93.74-1.6.64ZM6.75,62.45c.39.14.66.41.64.96-.68.15-.61-.45-.64-.96ZM9.31,66.27c-1.05,0-.81-1.26-1.6-1.59v-1.27c1.04.79,1.84,1.41,1.6,2.87ZM12.83,68.18v2.55c-.23-.15-.37-.27-.47-.37-1.26-1.1-1.75-2.75-1.77-4.41.98.49,2,.92,2.88,1.59-.25.18-.46.39-.64.64ZM31.05,74.24c.06-.36.32-.18.32,0-.06.36-.32.18-.32,0ZM36.21,72.85c-.79.38-2.35.28-2.92,1.07-1.11-.05-1.21-1.37-2.3-.64-2.13,1.45-2.36,2.13-3.72-.24-1.07-1.86-1.1,3.4-2.68,1.44-.37-.46-1.25-5.11-2.06-2.05-.28,1.06.18,2.67-1.6,1.71-.74-.39-.91-1.34-1.15-2.04-1.06-3.09-.84,2.14-2.12,1.32-1.36-.87-.28-3.16-1.3-4.27-1.18.22-.87,2.07-.96,2.87-.3-.19-.41-.35-.43-.48-.84-1.3-1.46-4.42.59-3.24,1.73.99,4.64,1.49,6.55,1.49,2.97,0,5.72.71,8.73.65,3.5-.06,7.07-.32,10.45-1.29-1.03,1.54-3.44,2.93-5.07,3.71ZM44.62,64.61c-.96,2.96-7.86,3.55-10.73,3.61-4.16.08-8.3-.22-12.46-.33-7.1-.19-13.59-5.03-17.75-10.59-.13-.16-.27-.35-.45-.6-.14-1.65.65-3.14.64-4.78.31-.07,2.23,2.69,2.63,3.07,1.37,1.31,3,2.92,4.92,3.2,3.76.54,8.73.8,12.46.25,4.44-.66,7.91-.9,11.63,1.78,1.95,1.4,4.56,5.58,7.17,5.42,3.83-.25-.9-5.26-1.8-6.21-1.68-1.78-3.85-3.18-5.91-4.57-2.66-1.79-7.94-1.48-10.96-.39-.85,0-8.82.47-8.97-.14.16.69,9.21-.9,10.16-1.15,3.37-.87,8.03-.68,11.15.96,2.83,1.48,4.79,4.03,6.83,6.39.03-.02,2.2-.05,2.24,0-.21,1.37-.38,2.76-.81,4.08ZM12.35,70.37c.15.13.3.25.47.37,0-.71-.99-.88-.47-.37ZM30.41,45.23c.05-.52-1.97-.52-1.92,0,.26.28,1.96,1.41,1.92,0Z"/>
    </g>
  </g>
</svg>