<?xml version="1.0" encoding="UTF-8"?>
<svg id="Layer_2" data-name="Layer 2" xmlns="http://www.w3.org/2000/svg" viewBox="0 0 104.64 102.18">
  <defs>
    <style>
      .cls-1 {
        fill-rule: evenodd;
      }
    </style>
  </defs>
  <g id="food_icons" data-name="food icons">
    <g id="coffeepot1">
      <path class="cls-1" d="M59.82,91.58c-.06.08-.11.16-.16.24.07-.07.21-.23.27-.31-.03.03-.08.04-.11.08ZM17.93,18.15s0,.05,0,.1c0,0,0,0,.02,0,0-.05,0-.08-.01-.11ZM98.49,67.03s0,0,0,0c0-.01,0-.01,0-.02,0,0,0,.02,0,.02ZM43.21,88.15c-.32.32-.56.63-.65.88.69.08.82-.71.65-.88ZM104.33,69.04c-.52-2.53-.09-5.25-.54-7.83-.39-2.21-.64-4.62-1.77-6.6-.11-4.49-2.87-9.77-4.58-13.88-1.69-4.04-4.11-7.98-6.01-11.79-.77-1.56-2.5-2.85-3.89-3.88-1.74-1.29-1.76-3.03-4.44-2.59-4.02.67-7.98-.61-11.96-.34-2.01.13.11-3.43.32-4.7.34-2.11,1.66-4.37.73-6.59-.96-2.31-10.45-1.66-14.23-1.52,3.71-.19-.07-1.62-1.01.02,1.54-2.68-3.21-6.29-5.05-7.39C48.06-.34,43.82-.16,39.52.25c-2.22.21-4.73.26-6.61,1.49-1.71,1.12-3.49,2.13-5.06,3.46-1.15.88-1.15,2.57-2.23,3.51-1.43-.54-3.03-.18-4.48-.64-4.8-.15-9.59.16-14.39.32-1.08.78-3.21.6-3.51,2.23-.43,1.59.37,3.27,1.2,4.58,1.91,3.02,3.8,5.94,5.91,8.83,2,2.75,5.01,5.77,6.32,8.9-2.45-.03-5.3,6.2-6.33,8.04-2.25,4.01-4.15,7.99-5.83,12.27-3.41,8.69-6.56,21.42-2.8,30.37.97,2.32,2.29,4.46,3.46,6.68,1.07,2.04,2.56,2.74,4.16,4.38,1.38,1.41,4.32,1.83,5.25,3.23,1.42,2.12,2.85,1.66,5.29,1.66,4.73,1.44,9.77,1.74,14.69,1.63.59-.01,1.78-.26,2.34.19.37.3.6.72,1.13.79,1.41.18,1.9-1.38,3.26-1.02,5.31-.21,10.66.36,15.97-.14,2.33-.22,4.27-.3,6.62-.19,2.07.09,5.01.78,6.92-.05,9.09-3.91,7.34-14.96,10.75-22.75.43-.97,1.17-2.84.26-3.74-.38-.38-1.17-.59-1.29-1.1-.42-1.74.58-2.14,1-3.65,1.01-3.71-1.41-9.99-2.62-13.5-1.39-4.02-3.31-7.9-5.86-11.33-1.27-1.72-2.44-3.52-3.93-5.08-.29-1.58-2.14-2.15-2.24-3.83,2.47,1.08,7.37-.28,10.02-.59,2.61-.3,2.43-.37,3.53,2.06.64,1.43,1.32,2.92,2.23,4.21,1.79,2.53,2.9,5.29,4.35,8.03.09,1.28.77,2.98,1.42,4.11.94,1.64.51,2.39.49,4.16-.02,1.57.56,2.81,1.08,4.27.99,2.79,1.85,5.62,2.23,8.56.27,2.08.23,2.51,1.87,3.86.94.77,2,.92,2.93,1.54.91.61,2.74-.17,2.14,1.22.61.03,3.02-2.45,3.7-2.88,2.23-1.41,1.94-3.16,1.49-5.32ZM11.87,16.67c-.51-.25-.45-.61-.29-.68.09-.5.48-1.11.29-1.55h1.92c.11,1.4-1.86.96-1.92,2.23ZM39.95,4.55c3.88-1.3,7.08-.35,9.96,2.56-1.21-1.23.65-.06.19,0,.75.07,1.31-.23,2.05-.33.55.73.93,1.59,1.6,2.23-.46.97-6.12.32-6.99.32-1.47,0-5.99.95-6.11-.96-.91.73-1.64,1.19-2.88.96.11-.8.91-2.44-.09-2.94-1.5-.76,1.87-1.71,2.28-1.84ZM20.77,13.94c1.92-.33,3.61-1.45,5.51-1.33,4.39.27,8.78.47,13.18.61,9.56.3,19.12.33,28.68.27-.42,1.64-1.06,3.21-1.56,4.82-.58,1.82-.52.73-1.43,1.87-1.26,1.59-2.52,3.73-2.94,5.85-.62,3.13-2.07,3.68-4.98,3.75-3.23.08-2.14-1.19-2.21-3.86-1.12-.23-.97.74-1.6,1.28-.07-.01-.31-1.32-.57-1.66-.54-.67.63-2.35.57-3.13-1.28.14-3.4,3.75-1.28,3.51-.33.83-1.27,1.09-1.6,1.91-.53-.31-1.11-.48-1.73-.51-1.67.26-.59.12-2.11-.77-2.28-1.33-3.78,3.83-5.75,4.14.14-1.01.87-1.83.32-2.87.59-.37,1.26,0,1.92-.32-.45-1.37-.15-3.38-1.28-4.46-.74.14-.18,1.76-.32,2.23-.89-1.06-2.44-1.88-3.85-1.63-2.11.38-2.1-.94-3.82-1.88.06,1.07,1.21,1.48,1.27,2.55-.72.63-1.97.44-2.55,1.28-.84-.97.61-2.66.32-3.83-.82.49-1.14,1.46-1.6,2.23-1.82-.94-1.78-1.63-2.16-3.49-.24-1.2-.72-2.4-1.68-3.21-.84.16.11,1.65-.64,1.91-1.24.32-2.37,1-2.87,2.23-.37-.12-.32-5.34-2.21-3.07-.41.49-1.08-.08-1.82.86-.28.35-.92.5-.44.3-.46.2.04-.92,0,0,.03-.81.43-2.36.12-3.01-.16-.34-.66-1.31-1.08-.5-1.08-.78,1.9-2.04,2.19-2.09ZM39.04,28.46c-.49-.02-.81.19-.96.64-.6-.37-.36-1.38-.64-1.91.42-.12.84-.23,1.28-.32-.11.69.54.86.33,1.59ZM35.52,27.51c-.06.96-1.32-.3,0,0-.03-.39.47-.2,0,0ZM17.93,18.27s0,0,0-.01c-.07-.04-.03-.27,0-.1,0-.02,0,0,.01.11,0,0-.01,0-.02,0,0,.29-.04.97-.3,1.27-.76-.04-.22-1.24.3-1.27ZM10.27,65.44c.08-.4.64-.32.64,0-.29.2-.57.39-.64,0ZM11.23,89.99c-1.42.06-.78-1.08,0-1.28-.73.19-.36-1.13-.06-.22-.07-.31.02-.42.31-.3.03.03-.24,1.78-.24,1.79ZM11.23,85.53c.22-.74,1.06-.86,1.28-1.59.76.48-.51,1.59-1.28,1.59ZM18.86,87.13c-.03.23-.09.67-.28.95-.59-.1-.18-.9.28-.95,0-.01,0-.03,0-.04-.04-.06,0-.21.02-.1,0,0,.01.03.02.12-.02,0-.03,0-.04,0ZM23.96,90.99c-.08.43-.21,1.78-.26,2.18-.71-.07.21-.32-.96-.32.17-.75.58-1.42,1.22-1.86,0,0,0-.01,0-.02-.48.28-.08-.26.03-.11.01-.02.02,0,.03.07-.02.01-.04.04-.06.05ZM24.1,75.21c-.14-.14.21-.75.77-1.59.31-.61.62-1.16.75-1.16-.31,0,.08-.98,0,0,.08-.97,1.48-3.82,2.23-4.46-.63-3-2.48-.39-3.83-.32.15-.99-1.11-.92-.96-1.91,2.13-.06,4.34,0,6.39.64-.02,1.1-3.09,4.98-4.59,7.22-.38.76-.76,1.6-.77,1.59ZM27.22,94.13c.09-.65.64-.85.96-1.28.86.37.03,1.69-.96,1.28ZM30.09,97.64c.56-.67.93-1.49,1.92-1.59-.99,1.37.19,1.59-1.92,1.59ZM36.17,96.68c.51.03,1.22-.15,1.28.32.35,1.12-1.96.85-1.28-.32ZM36.48,89.35c-.93-.54.12-1.63.32-2.23.72-.36.56-1.4,1.6-1.27-.26,1.39-1.25,2.33-1.92,3.51ZM39.24,85.25c-1.66-.72-1.57-2.93-.23-3.89,1.05-.75,3.5-5.23,2.09-5.86-1.83-.82-1.84-.85-2.98.88-.57.87-1.15,1.76-1.95,2.45-1.7-1.13.17-3.61.8-4.78.62-1.15,1.68-1.97,1.54-3.18-.06-.59.29-1.12.46-1.66,1.19-3.73-3.37.76-3.75,1.28,0,.02-.01.03-.02.05-.45.19.3-1.12.01-.04,0,0,0,0,0,0,.31-1.09.77-2.12,1.27-3.14-1.15-.31-3.57,3.21-4.25,4.13-.74.98-3.31.23-3.75,2.25-.84-1.08.87-2.43.96-3.51.75-1.73.94-3.82,2.91-3.82h11.8c-.03.57-1.3,3.49-.99,3.54,1.86.28,1.32-.74,1.95-1.94,1.48.71,3.28,4.67,2.5,6.09-.62,1.14-1.96,1.58-3.13,1.88-1.51,1.59-2.94,3.27-4.16,5.1,1.6-.19,3.18-.44,4.8-.32.97-1.03,1.69-2.27,2.37-3.51.87-1.61,1.92-4.55,4.03-4.78-.93,2.65-3.25,4.34-4.63,6.71-.82,1.4.65,2.45,2.08,3.17.84-.1.72-1.11,1.33-1.48.88-.54,1.2,1.09,1.57,1.61.94,1.31,1.46.2,1.9,1.77.21.75.97.99,1.58,1.29-1.32,1.52-3.83,1.61-4.8,3.51-1.1-.88,1.25-6.85-2.74-4.53-1.74,1.01-4.51.95-5.57,2.94-.7-.24.27-1.35,0-1.91-.98.08-2.07.12-3-.28ZM55.34,87.76c-.24.69-1.72,4.32-2.49,3.66-1.36-1.17-1.09-.01-2.62-.15.11-.2.2-.36.28-.48,1.08-1.74,2.71-2.85,4.83-3.03ZM47.91,85.88c-.18.85-1.05,2.01-1.47,2.73-.99,1.72-2.17.61-3.88.43.3-.85.53-.99.65-.88,1.5-1.5,4.93-3.38,4.7-2.27ZM48.31,94.45c.86-.69-.06,1.13-.04.33-.09,1.06.31,1.86.68,2.86h-7.99c.24-1.34.69-2.68.68-4.04-.02-1.25-.37-2.7-.04-3.93,1,.04,1.56.92,2.56.96-.14,1.67-3,4.57.86,4.66,1.53.03,2.92.14,3.62-1.53.39-.92.79-1.97,1.91-2.17-.22,1.47-1.29,2.11-2.24,2.87ZM62.37,96.52c0-.32-4.98.88-5.55.96-1.86.27-3.76.22-5.64.16.5-1.02,1.44-1.68,1.6-2.87.97.41,1.42,1.22,2.64.88.81-.23,1.34-.91,2.23-.97,2.59-.16,1.04-1.36,2-2.87-.07.07-.07.05.16-.24.16-.16.16-.14.11-.08.69-.53,2.01-.19,2.77-.24-.1,1.3-1.4,1.93-1.6,3.19-.16,1.24,1.27,1.24,1.27,2.07ZM63.34,89.67h.64c.07.9-2.39-.09-.64,0ZM72.73,93.36c-.71,2.72-1.85,2.23-4.31,2.6-1.8.27-3.57.56-5.4.4,1.39-.82,3.18-1.37,3.52-3.19,1.2.43,1.07,1.84,2.77,1.06,1.24-.56,1.52-2.03,2.34-2.98-.99,1.14-.02-3.11,0,0-.02-2.65,1.3-4.83,1.92-7.33,1.25.41-.56,8.38-.84,9.43ZM73.88,68.63v4.59c0,1.39.69,4.98-.64,5.93-.41-.12.05-2.22,0-2.7-.13-1.13-.73-1.03-1.59-1.12.01-.61-.12-1.18-.42-1.71-.71-1.31-1.83-1.94-.88-2.98.72-.78,1.08-1.43,2.25-1.69-.61.14.11-.42,0,0,.17-.63,1.06-1.45,1.28-.32ZM72.93,62.25c-1,0-4.6-.56-4.59.64,0,2.13-.43,3.32,1.92,3.2.42-.02,4.09-.33,3.15.85-.33.42-1.92,1.12-2.29.89-.96-.6-.92-1.55-2.35-1.12-.71.23-.32,2.93-.32,3.51,0,2.72,1.04,5.23.64,7.97.59-.02,1.34-1.97,1.52-1.79.07.07-.41,5.56-.31,6.5.22,1.97-2.14,3.66-1.21,6.14-1-.2-1.56.29-1.6,1.28-1.8-.15.51-2.67.64-2.87.4-.62.29-2.29,1.28-2.55-.07.02-.18-.07-.26-.15-.79-.28-1.9.98-2.3,1.43-.38-.34-.48-.77-.32-1.28-.49.06-.96,0-1.41-.19-.74-.25-1.97-.42-2.11.63-.21,1.58.61,1.78-1.09,2.42-1.31.5-2.4,1.4-3.7,1.92.47-.68.13-1.71.74-2.32.76-.76,1.39-1.82,2.14-2.78-1.71-1.14-2.65-2.92-2.1-4.96.09-.3,1.45-3.67.88-3.53-.74.19-1.94,2.2-2.29,2.75-.52-.45,1.29-5.21,2.87-3.83.39-2.16.2-4.4-.51-6.47-.72-2.1-1.42-1.87-3.51-1.84-1.61.02-2.92.98-1.6,2.51.87,1.01-.11,2.27-.77,3.25-.86-.64-.67-1.96-2.05-1.4-.96.39-1.63,1.1-2.75,1.08.26-1.74-1.71-2.48-2.24-3.83-.2-.52-1.59-1.23-1.59-1.75,0-.08,12.55-.5,13.74-.48-.16-1.2-.68-3.56-1.85-3.76-1.47-.25-2.86.25-4.32.25h-12.35c-3.96,0-7.92.21-11.82-.42-1.93-.31-9.49-1.98-9.3,1.06-1.64-.03-3.45-1.68-5.11-1.28-1.76.23-1.84,2.52-3.52,2.87.11-.82.17-3.17-.53-3.39-1.17-.36-2.29.25-1.86-1.46.82-3.23,1.53-6.48,2.84-9.57,1.54-3.65,3.25-7.26,4.83-10.91.52-1.19,2.95-2.36,2.82-3.66-.06-.61-.91-.88-.92-1.38-.04-1.06,2.34.39,2.57.56,1.01.74,2.3.48,3.47.48,2.94,0,5.91.32,8.94.32,6.93,0,13.75-1.74,20.7-1.58,1.81.04,3.64.09,5.44-.16,1.55-.22,1.39,1.11,2.47,2.13,2.21,2.07,3.49,5.59,4.94,8.25,3.05,5.62,5.98,11.3,6.32,17.82ZM57.26,71.82c-.06-1.84.64-2.23,2.24-2.23-.91.37-.81,1.64-1.53,2.08,0,.11-.18.2-.71.16ZM64.62,32.61c1.26-2.56,2.88-4.94,3.83-7.65h1.6c-.52,2.26-2.31,8.24-5.43,7.65ZM93.38,49.82c-1.69-3.21-3.44-6.28-3.77-9.97-.12-1.38-.36-1.8-1.34-2.78.02-.89.38-1.76.27-2.66-.24-2.04-1.56-.18-2.51-.21,1.49-1.47-.02-3.33-1.37-3.82-1.96-.71-1.82,1.1-3.43,1.59-.77-1.33,1.12-2.73.96-4.14-.34-.33-2.35,1.68-2.83,2.35-.01.06-.02.11-.04.2-.32.14-.07-.44.03-.44-.07-.52-.55-.56-.67.12-.83-.94.68-2.64.32-3.82-1.78.54-2.22,2.49-3.19,3.82-.69-.46.29-2.73.18-2.73-.68.02-1.37,1.12-1.14-.46-2.07.78-2.25,3.42-3.2,5.1-1.32-.79-.11-3.38.25-4.45.29-.88.73-1.69,1.03-2.56,1.19.23,2.4.31,3.6.37,4.54.21,7.62.67,10.68,4.3,1.2,1.42,2.97,3.12,2.86,4.97-.11,1.8.36,3.51,1.19,5.1,1.47,2.82,3.65,5.25,4.04,8.53-1.38-.36-1.46.64-1.92,1.59ZM96.29,57.39c-.01-1.16-.19-1.86-.99-2.79v-4.78c1.04.06,2.54,6,2.88,7.01-.56.16-1.88,2.24-1.89.55ZM97.86,64.17c-.29.2-.58.39-.64,0,.08-.4.64-.32.64,0ZM98.49,67.04c0,.1-.02.24-.06.4-.16.65-.69,1.42-.88,2.14-.89-.41.58-2.52.95-2.55,0,0,0,0,0,0-.29,0-.04-.35,0-.02,0-.01,0-.02,0-.03,0-.15,0-.13,0,0,0,.02,0,.03,0,.06,0,0,0,0,0,0ZM101.06,68.95c.17-.49.33-.02.32.32-.57.09-.65-.3-.32-.32ZM99.78,68.95c.62-.86.32-2.3.29-3.27-.03-1.54-.43-1.5-1.89-1.51-.23-.73-.23-1-.15-1.04-.04-1.68.91-3.28.79-5.02,1.8,1.77,1.94,4.72,2.56,7.01.02.67-.7,3.93-1.6,3.83ZM11.58,15.99c-.05.28-.01.53.29.68.03-.6-.16-.74-.29-.68ZM98.03,63.13c0,.34.04.69.15,1.04.58,0,.02-1.11-.15-1.04ZM48.31,94.45c-.03.14-.03.25-.04.33,0-.11.02-.21.04-.33ZM37.44,27.19c.29.56.57.04,0,0h0ZM57.26,71.82c.31.02.53-.05.71-.16.01-.22-.73-.51-.71.16ZM79.32,30.38c.02-.07.02-.12.02-.18-.11.15-.13.23-.02.18ZM36.8,87.12c-.16.5.64-.32,0,0h0ZM18.86,87.09s.02.03.04.03c0-.06-.01-.1-.02-.12,0,0-.01.03-.02.1ZM68.45,24.96c-1,2.83.53,0,0,0h0ZM30.09,97.64c.54,0,.53-.64,0,0h0ZM50.51,90.78c-.1.16-.2.31-.28.48.84.07.97-1.47.28-.48ZM23.96,90.98s.03-.02.06-.03c0-.04-.02-.06-.03-.07,0,.01-.02.05-.03.11ZM95.3,54.6c.42.49,0-1.59,0,0h0ZM69.15,84.74c.09.03.18.07.26.15-.44-.43-.4-.29-.26-.15ZM79.35,29.94c0,.08,0,.16,0,.26,0,0,.01-.01.01-.02.03-.17.02-.24-.01-.24ZM33.93,21.77c-.2-.46-.39.03,0,0h0ZM47.36,46.63c0,.07-.03.13-.04.19.02.4.05.67.04-.19ZM47.29,46.28c.03.11.05.23.06.35-.06-.65-.07-.6-.06-.35ZM47.32,46.83c-.01-.19-.02-.4-.02-.55-.47-1.64-3.12-1.25-4.41-1.24-.93.14-5.7.2-4.04,2.11.91,1.05,8.06,1.68,8.47-.32ZM48.31,54.92c-1.84-.12-7.58-1.72-7.99,1.26-.2,1.49,7.75,2.81,8-.71-.2,1.18-2.06-.69,0-.55ZM48.31,55.47c.02-.14.03-.32,0-.55.03.2.02.38,0,.55Z"/>
    </g>
  </g>
</svg>