<?xml version="1.0" encoding="UTF-8"?>
<svg id="Layer_2" data-name="Layer 2" xmlns="http://www.w3.org/2000/svg" viewBox="0 0 95.95 116.09">
  <defs>
    <style>
      .cls-1 {
        fill-rule: evenodd;
      }
    </style>
  </defs>
  <g id="food_icons" data-name="food icons">
    <g id="coffeecup1">
      <path class="cls-1" d="M42.51,16.57c1.05,3.04,4.56,4.29,3.72,8.02-.48,2.1-1.37,3.64-2.12,5.69-1.13.96-1.03,2.83,0,3.82,6.33,1.6,8.12-11.21,6.03-14.72-.92-1.54-3.19-3.27-3.47-5.04-.07-1.77.32-3.45.97-5.09.56-1.41.99-3.95,2-5.02.78-.83,1.45-1.42,1.54-2.43-.13-.27-.35-1.19-.04-.85-3.11-3.36-6,3.11-6.99,5.37-.88,2-1.8,4.19-1.94,6.4-.08,1.24.44,2.88.3,3.86ZM51.18,1.8c.08.18.13.07-.04-.85.06.32.06.6.04.85ZM56.32,28.43c1.87.94.1,3.01-.08,4.5-.34,2.88,3.09,2.42,4.38.8,1.12-1.42,1.39-3.46,1.2-5.21-.26-2.32-3.58-2.92-2.77-5.2.72-2.05,2.5-3.77,1.68-6.11.75,2.17-2.07.14-1.57-.25-3.06.18-3.95,4.86-4.61,7.32-.42,1.53.29,3.41,1.77,4.16ZM59.16,16.95c.47-.03.99.04,1.57.25-.97-.35-1.42-.37-1.57-.25ZM33.58,29.94c2.44,1.07.34,2.93.62,4.8,1.06.14.89,1.32,2.3.79.87-.33,1.45-1.09,1.76-1.94.59-1.64.43-3.63-.22-5.22-.65-.33-3.89-1.91-3.84-2.55.15-1.56,1.79-2.16,2.37-3.44-.13-.16-.18-1.39.2-.7-2.43-4.55-6.39,2.21-6.45,4.61-.06,2.35,1.31,2.8,3.27,3.66ZM36.76,21.67c-.03.26-.1.49-.2.7.06.07.13-.07.2-.7ZM76.07,61.18c0-.21,0-.51.01-.94,0,.31,0,.62-.01.94ZM92.42,99.73c-4.43-1.5-10.36,1.63-15.06.36.69-1.93.41-4.35.16-6.33-.14-1.08-.15-1.29,1.12-1.32,1.47-.03,2.15-1.23,3.15-2.17,1.28-1.21,2.6-2.37,3.88-3.57.51-1.35,1.35-2.51,2.11-3.72,1.55-2.47,2.69-5.44,3.41-8.26,2.61-10.25-2.3-25.6-15.11-24.04.01-.96-1.21-6.77-.75-7.12,1.52-1.2.29-.86.43-2.76-.06.85-1.74-.27-.4-.07-5.64-1.21-12.02-.64-17.73-.51-6.18.14-12.36.36-18.55.29-2.78-.03-5.43-.71-8.25-.55-2.81.16-4.02,1-6.22,2.76-.58,1.11-1.45.73-2.28,1.56-.86.85-.73,1.73-.82,2.89-.2,2.78-.18,5.56-.14,8.35.07,4.29,0,9.01.03,13.03,0,1.36.3,3.15-.15,4.47-.31.9-.85,1.54-.81,2.54,1.35.08,1.64,2.01,1.75,2.98.62,5.33-.44,10.69.76,15.94.41,1.78.56,4.56,1.97,5.95,1.52.95,2.31-.81,3.83-.64-1.88,1.75-2.21,2.23-4.88,2.23h-6.62c1.51-1.06.29-5.4-.07-6.81-.76-2.96-1.96-5.36-5.2-6.1-6.38-1.46-9.94,7.06-8.47,12.28C.88,101.55.07,103.84,0,106.15c.75,2.15,3.37,3.21,4.61,5.07,1.46,2.21,3.04,2.79,5.61,3.22,3.23.55,6.4.54,9.63,1.07,3.46.57,7.27.34,10.78.5,3.53.16,7.07.05,10.6-.19,6.49-.44,12.94-1.32,19.44-1.62,6.64-.31,13.28.64,19.93.43,3.05-.1,5.08-.26,7.53-1.96,1.74-1.2,2.9-3.23,4.39-4.57,1.24-1.12,3.27-3.68,3.42-5.44.18-2.28-1.97-2.43-3.52-2.95ZM3.83,104.87c.06-.36.32-.18.32,0-.06.36-.32.18-.32,0ZM76.08,53.87c5.46-.02,9.29,3.77,10.77,8.71,1.89,6.32.48,12.35-2.46,18.07-1.03-.06-1.01-1.84-2.06.24-.19.38-1.67.87-1.79.61-.61-1.28-.94-2.04-2.33-.48-.77.87-1.17.97-1.17,2.18.16.48.1.9-.18,1.26-.2.03-.14-3.78-.14-3.81,1.74-.42,2.85-1.9,4.47-2.55,2-3.03,3.29-6.31,3.29-9.94,0-5.38-1.39-12.62-8.41-11.42v-2.87ZM76.08,60.24c0-2.27,3.15-.63,3.74.77.79,1.88.8,4.04.77,6.04-.06,3.63-1.84,5.86-3.87,8.5-1.05-.78-.32-5.88-.32-7.01-.41-2.41-.37-4.91-.33-7.35-.02,1.31.01-1.21.01-.94ZM51.79,43.35c.14.49,10.09,0,11.19,0-.41,3.01-14.24,1.28-16.62,1.28-.14-.02-.24-.04-.32-.06-1.7-.29-3.4-.67-5.11-.9.79-1.67,9.26.34,10.87-.32ZM24.93,58.65c0-1.46-.48-1.59,1.28-1.59-.43.39-.35,1.23-.83,1.5,0,.06-.09.12-.45.09ZM24.93,56.42v-1.91c.47.35,1.44.23,1.62.93.28,1.04-.94,1.08-1.62.99ZM25.57,72.68c-.16-.17.23-.41.32-.32.17.17-.23.41-.32.32ZM26.21,71.72c-.04-.38.46-.2,0,0,.03.38-.47.2,0,0ZM26.53,90.21c-.72-.04-.19-1.53-.32-1.91,2.34.19,4.6-1.97,5.42-3.64.47-.96,1.23-1.81,1.46-2.88.12-.59-.13-2.76-.89-1.36-.19.34-2.32,1.88-2.79,1.82.94-1.42,1.94-2.75,2.24-4.46-.08-.99,1.24-.69,1.28-1.59-.41-1.7-2.35.31-1.71-2,.06-.22.74-3.29-.13-3.04-.08.02-.57.37-.9.63-.03.07-.08.15-.14.26-.18.08-.19.04-.11-.04.01-.11.19-.35.28-.42.13-.78-.77-1.11-1.44-1.45.11-.29-.36-1.65.32-1.59-.06-1.11-1.1-.09-.14-1.61.5-.8.74-1.72.79-2.65.08-1.37.93-3.53,1.91-4.66-2.12.27-2.72-.42-3.25-2.34-.45-1.64.21-1.77-.98-3.01-.37-.37-.56-.82-.57-1.35-.61-.03-1.14-.25-1.6-.64.13-1.49.75-.37,1.6-.32.33-1.22-1.39-1.21-1.92-1.28,0-1.22-.55-2.31.78-1.88.48.15.67-.59.49-.9-.16-.29-.67.2-.86.17-.47-.08.14-1.83.23-2.05.55-1.29,1.74-.59,2.97-.46,2.65.29,5.31.58,7.95.92,4.85.61,9.5,1.66,14.39,1.66h8.44c2.5,0,4.44-1.15,6.84-1.59.59-.32,5.33-2.16,5.59-1.75.68,1.11.49,2.89.49,4.14,0,9.2-1.05,18.07-.99,27.29.01,2.15-.2,4.77.75,6.72.68,1.41.9,3,.91,4.55.03,4.25.09,8.65.29,12.91h-10.69c-2.07,0-4.95.76-6.94.27-2.86-.71,1.2-7.85-2.5-8.56.38,1.18.7,3.83-.8,3.83-1.69,0-.54-.8-.8-1.91-.8,0-1.86-.35-1.95.72-.05.63,0,1.45-.93,1.19.21-1.18.62-2.29.64-3.51.51-.17.94-.44,1.3-.83,1.73-1.51-.79-.41-.98-1.4-1.78-2.22-3.39,1.39-5.75.96.54-.97,4.2-3.79.32-3.2-1.47.23-3.4,2.31-4.48,1.6-.68,1.06.43,4.26-1.6,4.14.61-1.2.08-2.4.63-3.28.09-.14,1.66-2.45.69-2.25-.88.17-.69,1.96-1.96,1.71-.11-.71,1.87-2.94,2.56-2.23.18-.93,3.77-4.35,2.54-5.01-1.62-.87-3.35,1.74-4.78,1.82-.05-1.03,1.08-1.04,1.28-1.91-.99.29-1.64,1.04-2.26,1.81-.72.9-1.13.67-2.02,1.25-1.22.79-1.19-.88-.52-1.47-1.21.07-3.31,2.34-3.84,2.23-.13,1.37-2.96,2.49-3.83,3.83ZM27.17,70.12c-.1,0-.28.3-.4.54-.07.18-.12.32-.12.28,0-.01.05-.13.12-.28.08-.21.17-.47.26-.6-.02-.06.04-.13.09-.08-.02-.02-.06.02-.09.08.01.04.05.07.14.07ZM29.73,77.14c0-.31.39-.25.64-.32,0,.31-.39.25-.64.32ZM30.05,61.2c.16.16-.23.41-.32.32-.17-.16.23-.41.32-.32ZM31.33,98.5c-.67.13-.85-.22-1.28-.32.06-.92,1.52-.77,1.28.32ZM31,94.99c.26-.71,1.51-.41,1.6-1.28.89.6-.69,1.41-1.6,1.28ZM31.96,99.45c.83.37,1.2,1.08,2.24.96,0-.17-.12-.4-.3-.64,0,0-.01,0-.02,0,0,0,0,0,0-.01-.46-.61-1.29-1.33-1.6-1.58.28-.32,2.12-1.1,2.12-1.13.07.84-.18,1.78-.51,2.71,0,0,0,.01.01.02.97.08,1.94,0,2.86-.32-.8.27.41-1.18,0,0,.42-1.2,2.17-1.1,2.24-2.55.86.11,1.95.03,2.24-.96.64.04.2,1.06.96.96-1.53,1.68-3.03,2.8-5.43,2.55.3,2.07,2.76,1.72,4.13,1.03,1.2-.6.79-1.15,2.05-.53.81.4,1.75.45,2.62.3,1.15-.2,2.28-.73,3.14-1.52.95-.88.79-.09,1.95.29,3.23,1.06.69-1.32.8-1.81,1.19.65,1.15.67,1.57,1.88.16.46-.22,1.75.67,1.63-.23,1.21-10.3.85-11.69.95-3.97.29-7.97.32-11.97.32.51-.97,1.62-1.44,1.92-2.55ZM34.2,92.76c.06-.36.33-.18.32,0-.06.36-.32.17-.32,0ZM36.68,91.19c-.89.27-1.18-.05-.88-.98.77-.2,1.19,1.5.96.96.17.4-.19.11-.09.02ZM40.91,91.48c.17.16-.23.41-.32.32-.16-.17.23-.41.32-.32ZM42.83,92.44c0-.31.39-.25.64-.32-.01.31-.39.25-.64.32ZM44.11,95.62c-.23-1.34.05-3.9,1.92-2.55.21,1.38-.43,2.22-1.71,2.5.89-.28-.42-1.15-.21.05ZM47.63,94.67c.91.53-.15,1.73-.32,2.23-1.35-.4-.01-1.63.32-2.23ZM50.5,96.58c.17.16-.23.41-.32.32-.17-.17.23-.41.32-.32ZM27.81,97.22c.16-1.18-.71-2.03-.64-3.19,1.85-1.98,4.15-3.6,5.43-6.05,1.36.92-1.59,3.68-1.92,4.46-.67.45-3.65,2.73-.96,2.55.04.54-1.4,2.36-1.92,2.23ZM8.95,92.44c.16-.14.22-.18.22-.17,1.42-.95,3.33.42,3.84,1.67.67,1.63.79,3.45.73,5.19-1.45-.46-2.95-.67-4.48-.64.07-.99,1.75-4.05,1.04-4.66-.41-.35-1.72-.46-1.53-1.09-.18.19-.27.25.17-.3ZM14.7,101.36c-.14.75-1.77.18-2.24.32.02-.12.05-.19.08-.24.38-.9,1.93-.09,2.15-.08ZM7.67,101.04h.64c.06.9-2.39-.09-.64,0ZM90.02,105.15c-1.18,1.34-2.42,2.63-3.62,3.97-2.45,2.77-8.19,1.75-11.55,1.67-8.7-.21-18.07-1.98-26.72-.71-8.45,1.24-17.24.35-25.77.08-3.41-.11-7.67.47-10.83-.94-.87-.39-1.72-.53-2.5-1.09-.92-.66-.46-2.4-1.04-3.27,3.28-.65,6.76.6,10.05.68,4.13.09,8.25.05,12.38-.05,8.08-.2,16.16-.62,24.24-.63,6.43-.84,13.31.25,19.5-.32.77-.53,3.84-.25,5.02-.31,3.08-.16,6.35-.42,9.47-.34-.63-.04-1.06-.08.85.01.95.16,2.13-.6.52,1.23ZM12.55,101.44c-.03.08-.07.14-.08.24.54-.16.25-.49.08-.24ZM76.08,56.73c7.66-1.32,0-.96,0,0h0ZM89.5,103.91c-.28-.01-.57,0-.85-.01.48.03,1.08.05.85.01ZM30.21,71.58c-.01.07-.04.15-.07.23.02-.01.03-.02.05-.04.1-.2.08-.24.03-.2ZM27.17,94.03c-.08,1.36,1.85-1.98,0,0h0ZM24.93,56.42c.74.1,0-.64,0,0h0ZM29.93,72c0,.05.02.08.11.04.05-.08.06-.15.09-.22-.09.07-.16.14-.21.19ZM9.17,92.27c-.08.05-.15.1-.22.17-.09.11-.14.21-.17.3.16-.17.4-.43.39-.46ZM46.03,44.56c.11.02.22.04.32.06,1.48,0-1.33-.25-.32-.06ZM24.93,58.65c.19.01.33-.03.45-.09-.01-.12-.45-.25-.45.09ZM28.45,49.72c.09.09.49-.15.32-.32-.09-.09-.49.15-.32.32ZM30.69,52.91c.91-.26.19,1.02,0,0,.14.75-.78,1.9.75,1.62.65-.12.83-.74.85-1.3-.69.12-.86-.53-1.6-.32ZM30.96,55.14c.31.05-.27.36-.27,0-.42,1.17-.11,1.59.96,1.28.07-.62-.06-1.21-.69-1.28ZM30.69,55.14c.1-.01.19-.01.27,0-.06,0-.14-.01-.27,0ZM52.1,90.53c.06-.8-.49-1-.96-1.28-.05.8.5,1,.96,1.28ZM52.1,90.53c.19.46.39-.03,0,0h0ZM56.9,100.41c-.37-1.6.96-3.85-.32-5.42.58.7-.37,1.13,0,0-.38,1.17-1.09,4.65.32,5.42ZM34.52,100.73c.06-.27-.12-.3-.32-.32-.06.27.12.3.32.32Z"/>
    </g>
  </g>
</svg>