<?xml version="1.0" encoding="UTF-8"?>
<svg id="Layer_2" data-name="Layer 2" xmlns="http://www.w3.org/2000/svg" viewBox="0 0 70.29 103.66">
  <defs>
    <style>
      .cls-1 {
        fill-rule: evenodd;
      }
    </style>
  </defs>
  <g id="food_icons" data-name="food icons">
    <g id="coffeecup6">
      <path class="cls-1" d="M58.77,13c.03-.08.06-.16.11-.25-.14.27-.14.3-.11.25ZM20.83,88.3c.1.01.19.01.27,0,.32-.05-.27-.36-.27,0ZM60.47,0c.23.09.44.2.63.33.66.25,1.31.45-.63-.33ZM20.26,77.83c.25.14.54.24.89.27,0-1.04-1.22-.63-.89-.27ZM21.3,84.33c0-.13-.55-.09-.64,0,.14.08.3.13.49.15.06-.04.1-.1.15-.15ZM69.64,22.88c-.8-1.46-1.91-2.68-2.54-4.24-.48-1.18-.71-3.14-2.07-3.68-1.23-.5-4.13.07-3.17-1.77.77-1.47,1.46-2.88,1.54-4.56.12-2.6.24-6.71-2.3-8.29-.4-.15-.79-.33-.63-.33-2.42,0-4.54,1.48-7.04,1.59-.72,1.03-4.12.93-5.17,1.22-2.35.65-5.12.81-7.61,1.01-1.72-.19-5.27.04-6.71.96-5.18.13-10.17,1.88-15.23,2.58-2.77.38-5.57.73-8.26,1.5-2.85.81-2.09,1.97-2.08,4.53-1.41-.12-2.41-.08-3.16.99-.44.62-1.24.82-1.95.92-.72,1.89-1.5,3.76-2.23,5.64-.67,1.73-1.81,4.14-.2,5.5,1.6,1.35,3.13.93,5,1.35,1.48.33,1.13,5.8,1.37,7.21.39,2.29.62,4.6.82,6.92.4,4.67.61,9.38,1.49,13.99,1.05,5.51,2.73,10.91,3.31,16.49.28,2.62.5,5.25.74,7.87.11,1.25.95,4.72-.07,5.81,1.22,1.6.46,3.97,1.28,5.74-.14,1.86.61,3.63.48,5.47-.29,3.71,4.54,3.56,7.07,3.59,1.81.03,4.37,1.65,6.27,2.03,2.28.45,4.61.66,6.93.74,2.67.09,4.95-.02,7.5-.75,2.16-.62,4.27-.98,6.41-1.59,1.93-.54,3.57-1.69,5.36-2.54.8-.38,1.64-.7,2.5-.89.35-.77.96-1.34,1.57-1.9,1.1-1.04,1.9-2.43.94-3.84-.88-1.3.3-3.36.63-4.78,2.45-10.79,2.7-21.85,3.6-32.83.41-5.05,1.15-10.06,1.83-15.07.53-3.91,2.32-9.9.39-13.61,1.13-.19,2.33,1.15,3.29.72,1.34-.6.65-2.71.13-3.66ZM12.06,11.17c1.29-.13,2.48-.38,3.78-.62,9.92-1.77,19.87-3.38,29.93-4.69,2.82-.37,5.64-.78,8.42-1.42,1.65-.38,3.68-1.5,5.33-1.57,2.1-.45.18,8.83-.64,9.88.22-.28-.03.16-.11.25-.41,1.24,1.46,1.31-1.21,1.42-1.29.05-2.59.05-3.88.01-2.91-.09-5.8-.37-8.7-.54-5.37-.32-10.9-.1-16.26.29-5.47.39-10.46.59-15.84-.5-1.17-.24-2.71-2.32-.81-2.51ZM18.92,73.32c.53.66,1.71-.02,2.24.64v4.14c-.52-.05-.79-.16-.89-.27-1.4-.79-1.35-3.04-1.34-4.51ZM19.87,80.97c.69-.12.86.53,1.6.32-.15.72.42,2.38-.17,3.04,0,.04-.04.08-.15.15-.44-.05-.54-.11-.49-.15-.97-.56-.71-2.44-.79-3.35ZM21.11,88.3c-.06,0-.14.01-.27,0-.43-1.17-.11-1.59.96-1.28.07.62-.06,1.22-.69,1.28ZM22.11,89.9c.06-.36.32-.18.32,0-.06.36-.32.18-.32,0ZM30.74,93.72c.17-.49.33-.02.32.32-.17.49-.33.02-.32-.32ZM35.54,96.27c0-.31.39-.25.64-.32-.01.31-.39.25-.64.32ZM60.49,61.13c-.11,5.66-.85,11.4-1.68,17-.19,1.3-2.99,12.82-1.85,13.04-1.17.88-2.37,1.58-3.84,1.75-1.71.21-1.19.58-2.24-.8-.88.21-3.95,3.37-4.3,2.96-.52-.61-.15-1.6-.48-2.29-.68-1.45-1.34.71-1.3,1.24-1.6.22-1.32-.54-2.38.33-.65.53-.93-1.91-1.13-2.24-1.46.45-1.74,2.12-2.56,3.19-1.03-1.19-.24-3.13-.96-4.46.05-.68-1.3-.21-1.6-.32,0-.46-.09-.91-.27-1.33-1.21-2.34-1.3,1.19-1.25,1.76.08,1,.24,3.36-.72,4.04-.69-.48-.39-2.08-.21-2.71.31-1.08-.42-.93-.43-1.75.4-4.14-2.21-.81-3.2.64-.29-.16-.89-7.24-2.06-5.25-.57.96-.42,2.27-.49,3.33-1.13.63-1.91,1.51-1.92,2.87-.62-.92-1.15-4.82-.49-5.8.7-1.04-.86-1.88-.47-3.45-.68-.05-.21,1.3-.32,1.59-.53-.1-.51-2.36-.29-2.71.01-.02,1.43-.53,1.55-.59,1.47-.83-.21-1.88-1.1-2.19-1.1-.39-1.07-2.43-1.15-3.71-.08-1.22,1.06-1.66.99-2.26-.03-.92-1.14-2.96-2.31-2.54-1.35.48-.9.85-2.57.61-1.82-.27-1.61-2.43-1.52-4.12,3.23,1.01,6.4,2.92,9.91,2.23-1.8-1.98-5.83-2.74-8.31-3.45-1.69-.48-2.17-.17-2.32-2.04-.07-.85-.16-1.71-.26-2.56-.21-1.68-.47-3.35-.62-5.04,2.2.6,3.58-.67,1-1.82-1.76-.79-1.87-3.51-1.98-5.25-.03-.59-.86-2.6-.25-2.75.79-.2,1.59.37,2.38.3,1.44-.12.35-1.56-.31-1.9-.85-.43-1.84-.53-2.77-.69-1.2-5.43-3.04-10.69-3.52-16.26,9.21,0,18.12,3.19,27.44,2.92,4.35-.12,8.6.32,12.99-.22,4.29-.53,8.36-2.12,12.64-2.7-.58,11.2-3.27,22.17-3.5,33.4ZM49.89,23c-5.09-.03-10.24-.37-15.31.27-5.5-.18-10.96.59-16.45.69-2.95.06-5.62-.32-8.45-1.15-.77-.23-4.2-1.83-4.83-.5-.57-.37.46-2.87.63-3.41.7-2.12.29-2.14,2.84-2.07,2.93.08,5.77.77,8.67,1.13,3.57.45,6.52-1.01,9.97-1.16,3.5-.15,7-.38,10.51-.24-4.66-.19,8.48-.79,0,0,5.7-.53,11.41.26,17.09.61,3.04.19,6.08.25,9.12.03.43,2.04,1.57,3.79,2.24,5.74-4.84-1.47-11.02.07-16.02.04ZM14.44,43.99c1.63.29-1.19-5.4,0,0h0ZM35.58,33.94c.31-.11.62-.17.91-.15-.62-.04-.86.04-.91.15ZM34.51,37.58c2.22.76,1.55,1.47.53,2.94-1.01,1.47,1.03,1.83,1.93,1.02.79-.72,1.11-1.93,1.12-2.97-.33-1.31-1.6-1.79-2.55-2.55.37-.83,1.08-1.2.96-2.23.1.86-1.03.42-.91.15-1.7.61-3.27,2.89-1.07,3.63ZM42.57,36.79c.29-.1.61-.16.96-.13-.68-.05-.93.03-.96.13ZM42.57,42.4c.98-.77,1.89-1.63.7-2.61-.79-.65.31-2.12.26-3.13.03.69-1.02.35-.96.13-2.21.79-2.5,4.9,0,5.61ZM29.93,37.21c.28.06.56.19.82.4-.61-.52-.82-.55-.82-.4ZM27.43,42.39c1.94,1.27,2.03-.49,2.04-1.9.53-.98,1.34-1.44,1.29-2.61-.04.61-.83-.38-.83-.67-2.27-.51-4.97,3.55-2.5,5.17ZM30.74,58.34c2.48,2.73.1-2.02,0,0h0ZM45.45,61.2c-.12-1.86-.49,2.17,0,0h0ZM32.17,50.26c-.06-.07-.55-.06-.6,0,.14.05.29.09.45.11.06-.02.1-.07.15-.1ZM35.03,45.46c-1.89.33-1.43,1.71-2.69,2.36-.13.52.36,2.01-.17,2.45.02.02-.01.06-.15.1-.38-.05-.48-.09-.45-.11-.98-.37-1.41-1.41-2.75-1.16-.64,1.11-1.46.18-2.12,1.53-.3.61-.51,1.26-.64,1.93-.76,3.89.32,7.58,2.47,10.76,2.25,3.33,4.2,5.78,8.12,7,3.27,1.02,7.24.73,9.7-2.03,4.9-5.5,1.6-13.74-2.68-18.47-2.24-2.46-5.05-4.97-8.63-4.34ZM30.74,58.34c.1-1.95-.4-4.18.32-6.06,3,4.27,6.2,8.44,7.99,13.39-4.81-.01-5.64-4.38-8.31-7.33ZM42.57,66.31c.18-2.52-2.34-6.43-3.84-8.29-1.08-1.77-2.37-3.39-3.63-5.03-1.6-2.07-1.49-2.66.76-4.21,2.91-.95,4.95,4.28,6.73,4.94,1.72.64,2.76,5.92,2.86,7.49-.41,1.83-.35,4.93-2.88,5.1ZM18.7,59.83c.1.06.19.32-.1.1,1.11.84,4.92,2.99,6.07,1.27-.58-.28-5.24-1.68-5.97-1.37ZM18.6,59.93s.05-.08.1-.1c-.04-.02-.09-.01-.1.1Z"/>
    </g>
  </g>
</svg>