<?xml version="1.0" encoding="UTF-8"?>
<svg id="Layer_2" data-name="Layer 2" xmlns="http://www.w3.org/2000/svg" viewBox="0 0 64.93 121.3">
  <defs>
    <style>
      .cls-1 {
        fill-rule: evenodd;
      }
    </style>
  </defs>
  <g id="food_icons" data-name="food icons">
    <g id="coffeecup4">
      <path class="cls-1" d="M6.17,25.83c.26.01.46.02.63.02-.21,0-.42,0-.63-.02ZM20.19,1.35c-.19-.04-.38-.06-.6-.07-.21.37.85.18.6.07ZM24.07,10.53c.36.27.76.49,1.17.69.7.16-.69-1.53-1.17-.69ZM6.17,28.7c.25-.07-.32,0,0,0h0ZM30.09,63.42s.03.02.05.02c0-.04-.02-.04-.05-.02ZM48.68,68.54c1.81.85.17-3.65,0,0h0ZM64.73,67.14c-.03-2.27-.12-4.53-.29-6.79-.18-2.26.25-4.74-.6-6.91-1.37-3.47-9.46-2.3-12.35-2.1-3.02.21-2.16-1.99-2.19-4.4-.03-2.64-.09-5.29-.26-7.93-.16-2.5-1.02-5.22-.17-7.58.4-1.11.04-2.98-1.32-3.19-1.9-.29-.61-2.1-.47-3.46.19-1.94-.03-3.94-.49-5.84-1.03-4.24-5.75-6.02-9.72-6.82-3.48-.03-8.24.71-11.62-.91-.2-.05-.56-.24-1.17-.69,1.49-2.6,2.59-5.29.6-8.09-1.98-2.79-5.53-2.85-8.63-1.83-3.04.99-5.07,3.86-4.27,6.98.83,3.22,2.46,3.11,5.13,4.04,4.11,1.44-1.28,4.82-3.12,5.77-1.72.89-3.63,1.22-5.52,1.58-2.09.4-2.99,1.13-4.76,2.19-1.41.84-1.99,2.79-2.24,4.39-.17,1.07-.07,2.17.43,3.14-.43.14-.73.42-.9.83-1.18,2.6-.74,6.29-.61,9.01.42,8.62.58,17.42,2.46,25.86.13,7.85,2.19,15.37,3.62,23.04.67,3.57,3.68,5.09,6.61,6.93,1.62.36,2.99,1.43,4.62,1.77,2.18.45,1.54,1.55,1.81,3.39.33,2.29.36,3.06-2.17,2.71-1.5-.2-3.85-.85-4.39,1.07-.31,1.1-.34,3.86.49,4.74.63.67,1.74.77,2.21,1.62-2.81,2.24-6.82,2.24-10.08,3.48-1.93.74-2.51,1.07-2.14,3.12.36,2.02.18,2.48,2.35,3.24,3.63,1.28,7.65.97,11.42,1.48,4.4.59,9.12.16,13.57.16,2.62,0,7.44-.13,8.59-2.98.36-.9,7.26-.06,5.21-3.09-.5-.73-2.14-.96-2.86-1.5-.52-.4-2.41-1.11-2.81-1.07-1.21.12-4.49-.96-5.02-2.52,4.16.37,2.33-4.64.96-6.38-.54-.9-2.09-.33-2.87-.85-.93-.61-.32-4.78-.32-5.84,2.14,1.08,5.9-1.34,7.74-2.41,3.17-1.84,5.38-3.95,6.67-7.39,1.17-3.14,2.21-6.46,2.2-9.82,0-1.24.29-2.46.29-3.76,0-1.73,1.41-1.06,2.64-.87,1.81.28,4.74.95,6.5.11,1.29-.62.99-5.21,1.05-6.5.1-2.5.07-5.02-.21-7.51-.14-1.26.17-2.3-1.26-2.56-1.05-.18-2.12-.19-3.17-.28-.62-.05-4.43.68-4.84.05-1.11-1.72,2.65-1.42,3.18-1.45,1.92-.26,3.94.39,5.9.31,3.37-.14,2.68,1.28,2.69,4.17.01,5.55.32,11.12-.16,16.66-.17,1.98-2.37,1.33-4.07,1.22-1.63-.1-3.29-.29-4.92-.13-3.42.34-4.52,4.45-.46,4.49,3.52.03,8.31.73,11.48-.89,3.15-1.61,2.1-10.09,2.07-13.21ZM16.72,2.88c.48-.1.35-.73.73-.94.69-.38,1.59.3,2.14-.65.35,0,.53.03.6.07,3.11.62,2.07,5.54-1.5,4.55-1.37-.38-2.24-1.59-1.98-3.02ZM6.17,25.83c.05-.63,2.54.02.63.02,2.16.04,4.53-.32,6.08-1.93-.14-.75-1.77-.19-2.23-.32.63-.61-.55-1.11-.32-1.91,1.17-.27,1.7.91,2.87.64.02-1.58,2.96-2.33,4.25-3.13,1.38-.85,2.65-1.91,3.52-3.3,1.1-1.75.73-2.04,2.97-1.41,3.67,1.02,6.81,1.14,10.63,1.14s7.71,1.33,8.62,5.02c.5,2.05.51,3.79-.24,5.76-.66,1.72-2.84,1.01-4.58,1.01-3.13,0-6.13.32-9.18.32-2.76,0-4.7-.18-7.35.32.36-2.94-4.57-.07-5.75,0,1.48-4.34-3.98-1.88-6.01-1.05-1.11.46-1.79-.38-3.05-.82-.31-.11-2.47-.37-2.45-.67.47.17,1.66-.37,1.6.32ZM8.41,28.06c-.01.31-.39.25-.64.32,0-.31.39-.25.64-.32ZM6.81,28.38c-.13.25-.35.35-.64.32h-.96c.01-.51,1.58-.32,1.6-.32ZM5.19,54.47c.28.45.32.91.14,1.38.2-.67-.61-.53-.37-.04.08.11.15.21.25.3-.13-.11-.21-.21-.25-.3-.76-1.06-.34-3.03-.39-4.16.28.21.6.32.96.32-.31.99-.8,1.5-.34,2.5ZM12.56,83.53c-1.7-.84,2.48-7.04,4.05-7.01.01-.02.02-.03.03-.04-.14-.1.04-.31.08.03-.03,0-.07,0-.11,0-.15.22-.44.91-.67,1.37-.99,1.97-2.61,3.56-3.38,5.64ZM14.16,86.71c.99-.56,2.1-1.11,2.56-2.23.68.81-.64,2.75-.32,3.83-1.14-.04-1.26-1.29-2.24-1.59ZM19.44,92.15c-1.11-.03-2.01-.5-3.04-.97.75-.83,2.27.48,3.2-.32.11.37.2.74.28,1.12-.2-.25-1.07.13-.44.17.15,0,.31,0,.48-.01-.21.02-.37.02-.48.01ZM18.32,72.69c1.17-.64,1.73-1.89,2.56-2.87.69.63-2.17,4.13-2.56,4.78-.89-.36.27-1.27,0-1.91ZM45.88,57.2c-.24,3.33.08,6.69-.26,10.02-.14,1.28-.99,2.47-.61,3.72.57,1.9-.06,3.92-.27,6.01-.32,3.27-1.27,6.46-2.66,9.49-1.61,3.51-5.8,4-8.95,5.18-1.75.65-2.48,1.18-2.98,2.87-.45,1.55-1.84,1.05-2.04,2.96-.17,1.64.31,4.16-.23,5.66-.19.53-.86,1.38-.15,1.91,1.74,1.29,3.91-.1,5.62,1.48-.72,1.54-9.92-1.51-8.15,2.71.64,1.52,2.99,1.35,4.32,1.44,1.66.44,2.19,2.4,3.84,2.87-.26.98-6.58.82-7.37.91-3.93.45-7.85.97-11.81,1,1.51-1.25,3.54-1.58,5.01-2.9.99-.89,1.51-2.38,2.76-2.82,3.91-1.36.41-3.29-2.02-3.21-.02-.42,2.84-2.66,3.19-2.87-.28-.88,1.06-2.32,1.6-2.87.06-2.22.65-6.69-2.55-7.01.04-1.01,1.07-1.08,1.64-1.68.84-.9.84-.18,1.84.29,2.24,1.07,3.47-3.77,4.77-2.36,1.41,1.53,5.12-6.12.39-5.49.16-.79,1.37-2.39.86-3.17-.34-.52-.98-.49-.86-1.29,1.59.61,2.48-.91,3-2.15.09-.23,1.02-1.79,1.04-1.53.08.93-1.19,2.92-.23,3.83,1.01.95.52,1.29.1,2.36-.27.72-2.79.26-1.66,1.62.85,1.03,2.63.93,3.82.96-.36,1.56-2.58,1.56-2.64,3.32-.08,2.21,2.29,2.06,2.96.19,1.79,1.76,3.17-3.27,3.5-4.16.13-.36,1.18-3.21-.04-3.16-.59.02-.87.83-1.54.63.06-.34,1.71-4.14,1.12-4.14-.07,0-.98.94-1,.81-.15-1.77,3.03-4.94,1.51-6.79-.94-1.14-2.12.67-2.27,1.11,0,.03,0,.07,0,.09-.46.19-.27-.84-.02-.04,0-.01,0-.03.01-.05-.03-.5.67-1.57.02-1.6-.67-.03-1.34.14-2.02.02-1.56-.3-1.61-2.67-1.56-3.86.06-1.83.2-2.64-.28-4.35-.18-2.25.53-4.45.32-6.69-1.35.35-1.91,1.63-2.69,2.63-1.07,1.38-2.62,2.34-3.71,3.74-.58-.43-.37-1.52-1.28-1.59-.79-.18-1.18.33-1.92.32-.07-2.52,1.77-3.86,2.58-6.04,1.32-3.56-1.22-3.04-3.02-.98-2.37,2.72-1.33-.32-.69-2.15,1.09-3.14-1.47-2.14-2.39-.08-1.17-.64,1.03-4.45-1.92-2.05-1,.81-.24-3.37-.38-3.68-.13-.31-1.39-1.26-.9-1.61,1.67.1,3.35.08,5.02,0,3.11-.14,6.26-.44,9.36,0-.63.42-7.86,3.89-4.45,5.27.77.31,1.73.16,2.53.15.16.64.53,1.12,1.11,1.45,1.59,1.02-.17,1.74-.67,3.08-1.06,2.87,3.39-.04,3.55-1.42.47-3.89.02-7.82.16-11.72-1.73-1.32-5.39,0-7.35,0-3.31,0-6.66.21-10.04.37-.76.04-4.66-.04-4.97.84-.57,1.65-.62,1.37-2.65,1.75-1.8.34-2.68.65-3.63,2.2-.5.8-1.39,2.6-2.37,2.81.04-5.46-1.11-10.82-1.28-16.26-.3-.77-1.07-4.79.49-2.87.86,1.06,2.92,2.23,4.21,2.44,5.46.86,11.04.44,16.53.1,4.96-.3,9.93-.33,14.87-.66,1.57-.11,2.76-.24,4.35.03,1.78.3,2.37-.37,2.36,1.67-.03,2.5.29,4.99.37,7.49.02.65.49,3.17-.46,3.3-1.02.15-.54.25-1.11,1.07-.21.3-2.21,2.71-2.28,2.4-1.58-.99.87-3.36,1.56-3.75,1.85-1.04.44-4.13-1.45-3.57-1.3.38-1.38-.09-1.37,1.51,0,1.22-.02,2.45-.03,3.67-.03,2.31-.07,4.65.33,6.94,1.69-1.63,3.14-3.5,4.48-5.42,1.42,1.06.18,7.85.07,9.37ZM22.47,85.44c-.03-.38.46-.2,0,0,.03.38-.47.2,0,0ZM24.07,81.29c.24-1.49,1.32-2.65,1.6-4.14,1.49-.05,1.65-.28,2.79-1.68,2.19-2.67,3.83-5.72,5.84-8.52,1,.33-3.56,7.61-4.16,8.15-1.87,1.69-3.45,3.68-5.43,5.24.02.49-.42.82-.63.95,0,0,0,0,0,0-.04.02-.06.02-.07.03.02,0,.03-.02.06-.03-.42.13.27-1.62.02-.01,0,0,0,0,0,0ZM30.14,63.44s-.05,0-.07,0c-.2.22-.86,1.62-1.38,2.17-.9.96-1.43,2.98-3.03,2.93.52-.81,3.38-5.12,4.41-5.1,0,0,.01-.02.02-.02-.18-.09.02-.34.05.02ZM28.54,77.47c-.27-.06-.03-.38,0,0-.01-.16-1.03,1.56-1.4,2.22-.5.88-2.85,2.8-3.81,4.08-.27.44-.43.76-.42.89-.02-.22.15-.53.42-.89,1.23-1.99,4.77-6.39,5.21-6.3ZM48.83,58.36c.22-1.59,2.77-.9,4.26-.96,1.67-.07,3.56-.82,3.59,1.16.05,3.12-.32,6.43-.8,9.51-.38,2.4-1.38,1.45-3.39,1.24-1.26-.14-2.63-.21-3.8-.76.16-3.39-.32-6.81.15-10.18ZM24.07,81.29s0,0,0,0c0,0-.01,0-.02.01,0,0,.01,0,.02,0ZM18.32,72.69c.35.81,1.17-.64,0,0h0ZM16.64,76.48s.04.02.08.03c0-.08-.04-.07-.08-.03ZM14.16,86.71c.97.3,1.02-.58,0,0h0ZM15.53,21.6c1.86.29,5.38.53,6.84-1.39-.64.66-1.03-.89.42-.75-1.99-.19-3.8.36-5.71.68-.32.05-3.09,1.22-1.55,1.46ZM22.79,19.45c-.11.28-.26.53-.42.75.14-.14.28-.38.42-.75Z"/>
    </g>
  </g>
</svg>