<?xml version="1.0" encoding="UTF-8"?>
<svg id="Layer_2" data-name="Layer 2" xmlns="http://www.w3.org/2000/svg" viewBox="0 0 127.83 94.39">
  <g id="food_icons" data-name="food icons">
    <g id="cookies">
      <path d="M72.62,63.76c.88-.47,1.17-1.53,1.25-2.45.52-6.49-7.7-8.49-12.75-8.07.27-2.69-4.63-4.02-6.49-5.17-1.51-.93-3.12-1.63-4.91-1.8-1.62-.15-3.19-1-4.91-1.32-2.08.53-2.8.65-4.52,2-1.72,1.35-1.87.16-3.59-.44-2.3-.81-7.24.08-8.71,2.26-1.36,2.02-1.9,2.23-4.1,3.21-1.72.77-2.43,1.64-2.88,3.48-.48,2-.36,4.1-.43,6.13-.07,2.1,1.93,3.1,3.14,4.72,2.08.92,3.9,1.36,3.45,3.91-.28,1.6-.21,2.65.93,3.91,2.08,2.28,5.61,2.27,8.41,1.74-1.33,2.62,5.7,5.79,7.56,6.49,2.85,1.07,7.94,1.29,10.34-1.07,1.3-.39,6.24-1.23,6.32-2.92.12-2.42,2.07-1.06,3.95-1.22,4.26-.37,5.27-4.23,5.71-7.97,2.66.92,4.68-1.24,6.07-3.19.05-1.51.38-4.3-1.92-4.14-.25,1.41.76,2.56-.08,3.83-.56.84-1.27,1.59-2.25,1.95-2.24.83-3.16-1.18-5.02-.68-1.33,1.48,1.21,6.36-2.55,6.55-1.61.08-3.18-.38-4.8-.17-1.15.28-2.2,1.57-3.29,2.1-3.62,1.73-6.43,2.69-10.46,2.69-2.63-.85-5.58-1.74-7.4-3.95-1.9-2.29-5.81.38-7-2.75-.53-1.38.3-2.69-.57-3.55-.52-.53-1.83-.09-1.97-.58,4.7-2.77-1.49-3.38-2.1-5.72-.42-1.64-1.02-3.06-.78-4.8.21-.03.79-1.13,1.35-1.37.81-.15,1.11-.6.91-1.33.3-1.62.33-1.8,1.56-2.74,1.33-1.02,3.24-.62,4.82-.62,1.06.13,1.62,1.18,2.68,1.31,1.9.23,1.02-1.25,2.11-1.94.07,1.21,2.28-.85,2.43-1.02.88-1.05,1.74-1.33,3.11-1.13,2.7.39,4.91,2.45,7.41,3.43,1.54.61,2.66,1.5,4.36,1.18,1.35-.25,1.63.58,1.99,1.73.66,2.07,1.81,1.53,3.62,1.27,1.31-.19,2.39.45,3.61.28,1.43,1.62,4.52,1.42,5.11,3.83-.06,1.27-.31,3.61,1.28,4.14ZM61.11,53.24c1.08-.09.14-1.42,0,0h0ZM30.32,21.69c3.1,1.94,2.1-1.79,2.34-3.2-.13.77-.99-.33,0,0-1.28-.43-4.05-1.63-3.86.7.09,1.06.62,1.93,1.52,2.49ZM18.6,23.91c2.49,2.88,5.48,5.52,9.59,4.46.33,6.32,7.72,6.06,12.46,6.06.02-.2,2.24-.79,2.62-1.06,1.34-.95,2.54-.23,3.91.29,2.61.97,5.09,1.04,7.75.16,2.99-.98,2.52-5.08,6.1-5.07,2.22,0,4.22-.71,6.1-1.85,1.82-1.11,1.75-3.84,1.45-5.72-.22-1.37.03-2.06-1.08-3.01-.39-.33-1.03-.3-1.23-.83.16.28.46-.98-.04-.13,2-3.36-.66-7.88-4.41-8.26-1.55-.16-2.48-2.62-3.95-3.72-1.72-1.28-3.63-1.43-5.78-1.47-1.95-.03-3.76-.97-5.36-2.18-1.23-1.54-3.72-1.59-5.44-1.59-1.95.4-3.48,1.83-5.44,2.23-2.04-.28-4-.79-6.07-.64-1.25,1.06-2.71,1.83-3.49,3.34-1.17,2.27-1.51,1.07-3.6,1.25-1.8.16-3.17.74-4.03,2.48-.51,1.03-.09,1.58-1.02,2.33-.67.54-1.16,1.2-1.27,2.07,0,2.09-.11,3.35,1.36,4.96,1.34,1.48.59,3.94.88,5.88ZM20.44,11.96c1.43-1.53-.31-3.23,3.05-2.78,1.68.22,3.62.84,5.27.16,1.77-.73.39-2.69,1.35-3.92,2.4.13,4.64,1.12,7.03,1.28,1.87-.88,2.99-2.79,5.12-3.19,1.78.7,3.24,2,5.06,2.61,1.82.61,3.18-.92,5.19-.66,2.3.3,3.57.31,5.25,2.04.66.68,1.17,1.47,1.44,2.38,2.1,0,.77.31,2.09,1.24,1.41.99,1.97,1.23,3.03,2.59-.34,1.33-.24,2.57-.62,3.95-.43,1.52.64,3.45-.01,5.29.07-.2.15-.41,0,0-.14.38-.07.2,0,0-1.18,3.26-4.29-.74-6.6,1.94-1.6,1.85-4.54,5.35-7.26,5.11-1.29-.12-2.77-.13-3.64-1.13-.77-.89-2.08-1.14-3.09-.42-1.34.96-4.56,4.45-4.98,1.2-1.56-.23-2,1.68-3.52.96-.03-.64,1.61-3.31-.56-2.19-.65.33-1.12,1.83-2,1.23v-2.87c-.81-.4-1.82-.84-2.56,0-.94-.91-.14-2.19-1.77-2.46-1-.17-2.03-.09-3.03-.09-1.57-1.96-2.54-1.5-1.68-4.23,1.17-3.71-5.88-4.47-2.55-8.04ZM63,68.5c-.32-1.08-2.4-3.25-3.24-1.57-1.52,3.03,1.39,3.15,3.28,1.93-.54.35-.2-.27-.03-.35ZM48.95,9.23c.12.09.23.2.34.33-.18-.23-.29-.32-.34-.33ZM48.33,12.11c.75-.55,1.02-1.32.97-2.2-.07.3-.53-.71-.35-.68-1.23-.97-3.03.28-2.54,1.93.88.2.8,1.21,1.92.96ZM49.28,9.56c.02.12,0,.23.02.35.01-.06.01-.17-.02-.35ZM56,17.85c2.63-1.85-1.43-6.44-3.52-3.51.23,2.11,1.21,3.47,3.52,3.51ZM63.67,22.95s0,0,0,0c0,0,0,0,0,.01,0,0,0,0,0,0ZM40.97,12.75c0,.2-.03.38-.07.54.03-.02.06-.17.07-.54ZM40.9,13.29c-.09.06-.22-.89-.14-.99-1.14-1.81-5.39-2.69-4.78.17.53,2.44,4.34,3.21,4.92.82ZM40.76,12.3c.09.15.17.29.22.45-.12-.39-.18-.49-.22-.45ZM48.78,28.17c2.18.6,1.51-.35,2.75-1.39-.25.21-.28-.54-.23-.88-1.12-2.63-5.98-3.78-5-.21.34,1.25,1.24,2.13,2.49,2.48ZM51.3,25.9c.12.28.21.57.23.88-.08-1.14-.19-1.16-.23-.88ZM68.03,90.45s.07.07.12.08c.71-.16-.1-.19-.12-.08ZM82.53,75.55c-1.17-.59-2.91-1.39-2.88.96-.94.14-2.23,1.26-1.15,2.1,2.48,1.95,4.09-.64,4.03-2.82-.02.67-.52-.5,0-.24ZM121.29,27.09c-2.47-3.56-5.77-6.39-8.87-9.39-3.1-3.01-7.25-4.5-10.94-6.46-3.8-2.02-8.33-3.47-12.45-4.75-8.89-2.75-18.08-3.84-27.28-4.57-2.11.45-2.45,2.18-.06,2.47,1.85.22,3.7.28,5.54.54,3.45.49,8.03,2.25,11.45,1.78,1.6,1.08,4.73,1.13,6.62,1.79,2.1.73,4.26,1.36,6.33,2.15,4.47,1.71,8.88,3.52,13.28,5.41,4.96,2.13,8.85,6.05,12.41,10.04,2.95,3.31,6.49,7.15,8.36,11.21-.87-.1-1.04.58-.96,1.28-.69-.1-1.02-1.09-1.41-1.38-.49-.36-1.39-.45-1.92-.65-2.12-.77-1.76-3.28-2.26-5.01-.51-1.77-1.56-3.32-3.25-4.14-1.7-.83-5.61-.04-6.38-1.37-1.7-2.92-2.86-3.31-6.36-3-1.4.12-2.8.38-4.15.82-1.89.62-2.07.41-4.01-.12-2.67-.73-7.32-1.42-9.25,1.23-.77,1.07-1.25,2.31-1.94,3.42-1.26-.07-2.5-.03-3.75.08-2.08.18-5.77,1.55-6.41,3.88-.67,2.45-.58,5.21-.11,7.69.21,1.14.38,2.26,1.37,2.98,1.29.93,2.22,1.07,2.23,2.81,0,3.28-.51,5.22,1.57,8.06,1.57,2.14,5.53,3.41,8.12,2.91,1.96-.38,2.05.03,3.65,1.18.99.71,2.03.86,3.24,1.02,2.61-.39,10-1.53,10.55-4.14-.49-.25-.68.46-1.07.36-1.17-.29,2.87-4.05,2.87-4.04.08,1-1.74,2-1.82,3.33.03.18.05.35.02.35.56,0,1.61-1.54,2.22-1.93.94-.6,1.45-.94,2.57-.94,1.79,0,2.5-2.05,3.35-3.36,1.29-2,2.24-2.68,4.62-1.08,1.59,1.07,3.28,2.8,5.14,3.48.28-1.59,1-2.18.93-3.94-.04-1.14-.07-2.26.03-3.39,1.88,1.32,1.61-1.86,2.56-2.55.08,2.77.78,5.54-.05,8.24-.73,2.39-1.55,4.76-2.5,7.07-1.79,4.36-3.95,8.59-6.21,12.71-2.1,3.81-4.54,7.17-8.4,9.38-1.96,1.12-3.66,2.59-5.71,3.64-2.38,1.22-4.85,1.69-7.42,2.36-3.08.81-6.15,1.66-9.24,2.46-2.54.66-4.87.46-7.44.8-.29.04-2.08.29-2.25.58-.2.34.2.8,0,1.14-.66,1.1-3.47-.17-4.15-.57-.81-.06-6.18-1.4-6.33-.99-.24.62.5,2.71-.7,2.59-.84-1.13,0-2.82-.6-4.05-.72-1.44-3.91-.62-5.16-.73-.09,1.12,1.19,1.02,1.92,1.27.91.31.65,1.68.7,2.45.18,2.94-2.19-2.49-2.82-2.84-2.44-1.34,1.01,4.71-2.46,2.83-.84-.46-2.8-.66-3.16-1.35-.39-.75-.51-1.88-1.54-2.04-.34,1.06.47,3.13-1.43,1.74-.51-.37-.12-2.42-1.45-2.06-1.29-.27-.37,1.79-1.59,1.59-2.27-.42-4.51-1.04-6.66-1.89-3.89-1.52-7.45-3.76-10.66-6.43-1.54-1.29-3.01-2.68-4.42-4.11-.27-.8-.88-1.36-.96-2.23-.71-.18-.4.6-.96.64-.66-2.54-2.2-4.65-4.15-6.38-.13.73.15,2.42-.96,2.55-.82-.27-.59-.97-.42-1.59.4-1.43.4-4.05-.22-5.43-2.15.18-1.59,3.37-1.6,4.78-.98-.71-1.85-1.57-2.56-2.55,1.2-.3,1.4-1.49,1.28-2.55-1.17-.06-1.45,1.22-2.56,1.28-.61-.87-1.31-1.68-1.92-2.55,1.59-1.59,2.63-3.62,3.15-5.79.91-3.77-1.89-1.97-2.51.37-1.11.89-.66,3.09-2.24,3.51-1.39-3.17,4.3-6.56,2.56-9.88-2.04-.03-3.62,3.69-4.03,5.23-.49,1.81-1.49-1.74-1.41-2.36.31-1.31,1.08-2.57,1.64-3.76.35-.74-.37-2.27-1.01-1.61-.36.37-.84,1.62-1.4,1.67-.39.04,1.57-3.94,1.8-4.37.95-1.78,1.7-3.61,1.85-5.64-1.24-.11-1.98,1.35-2.99,1.49-.02,0,1.49-4.43,1.72-4.99-1.41.37-1.64,2.11-2.69,2.42-.55.17-.08-2.13-.05-2.29.3-1.39.1-1.87.93-3.1,1.3-1.92,1.67-3.4,2.12-5.64,1.3-1.28,1.56-3.4,2.59-4.88.47-.67.88-1.29.92-2.14.65-.64,1.63-.95,1.92-1.91-5.35-2.3-9.45,7.67-10.81,11.17C.57,34.56-.23,41.22.06,47.82c1.68,7.29,5.16,13.89,9.54,19.9,2.23,3.05,5.9,4.94,8.92,7.2,3.17,2.38,6.28,4.86,9.31,7.43,1.53,1.3,3.58,1.7,5.38,2.64,1.67.88,3.28,1.88,4.98,2.71,3.07,1.51,6.34,2.83,9.74,3.35,2.29.35,4.95,1.24,7,.75,1.22-.29,3.35,1.09,4.58,1.39,1.46.36,2.95.59,4.44.75,4.08.44,8.45.82,12.46-.13,3.67-.87,7.3-1.91,10.99-2.77,3.01-.7,5.95-1.46,8.9-2.4,2.85-.9,5.8-1.09,8.36-2.6,1.84-1.09,4.25-2.73,4.73-5.05,1.73-.73,2.79-2.33,4.3-3.36,2.9-1.97,5.68-6.84,7.42-9.9,2.61-4.59,4.28-9.1,5.58-14.25,1.17-4.63.84-8.7,1.12-13.38.27-4.37-4.14-9.56-6.53-12.98ZM122.51,43.06c-1.58,1.11-1.31,2.54-1.31,4.43-2.69-.93-5.58-4.59-8.74-2.53-.88.57-1.32,1.57-2.13,2.21-.29.11-2.03.34-2.22.22-1.74-1.14-2.64-.31-4.22,1.16-1.37,1.26-2.57,2.72-4.1,3.8-1.85,1.3-4.02,1.78-6.27,1.63-2.61-.17-2.45-3.54-4.9-3.37-.95.07-1.49.73-2.27,1.13-1.05.53-1.59-.33-2.55-.1,0,.01-.96-1.54-1.03-1.68-.54-1.17-.89.05-1.85-.23-.16-1.09,1.35-2.01-.04-2.66-.85-.4-.84-1.78-.47-2.53.83-1.74,2.63-3.3-.44-4.26-1.93-.6-2.13-1.2-2.23-3.3-.07-1.44-.47-3.18.72-4.1,1.04-.81,2.19-1.47,3.42-1.95,1.07-.08.88,1.06,1.58,1.48,2.07,1.26,3.25-4.24,4.71-4.68,2.5-.76,5.35-.3,7.8.42,1.4.41,2.4.92,3.33-.57.74-1.19,1.22-1.3,2.64-1.03,1.19.22,2.48,0,3.43.79.89.74,1.59,1.68,2.48,2.43-.38-.41,1.33.34.76.31,1.36.19,2.73-.1,4.1-.13,1.77-.03,2.07,1.29,2.59,2.8.45,1.3.93,3.01,2.43,3.49,1.28.41,1.19,1.25,2.43,1.96.69.4,3.71,3.93,2.35,4.88ZM68.15,90.53c-.1-.04-.12-.06-.12-.08-.39-.35.17-1.42-.52-1.51,1.06-.69,2.54,1.05,3.51,1.28-.38.82-2.21.17-2.87.32ZM94.36,72.36c.48-1.8.25-1.62.04-1.09.06.36.05.74-.04,1.09ZM93.08,44.95c.04-.51.02-.76-.03-.85.03.27.05.55.03.85ZM113.34,39.06c-2.26-1.67-3.93,1.83-1.54,2.83,1.83.76,1.69-1.48,1.74-2.69-.03.83-.69-.43-.2-.15ZM94.68,33.79c.21,1.83,3.31,3.01,4.79,1.59.39-2.61-4.18-4.74-4.79-1.59ZM116.98,59.32c1.76-1.15-.41-4.33-1.77-4.89-1.2-.49-1.62-.11-2.64.4-.75-.17-.64-.89-1.6-.64,1.02-.27-.26,1.76,0,0-.34,2.3-2.3,5.18.87,5.7,1.57.26,3.74.34,5.14-.57ZM115.77,57.7h-3.83c1.19,0-.04-.84-.02-.17-.45-2.66,3.97-2.29,3.86.17ZM104.59,61.53c1.03.24-.49,1.64,0,0-.36,1.19-5.13,4.6-.65,4.5,2.84-.06,3.55-3.82.65-4.5ZM104.59,64.39c-1.15.3-.57-1.38-.32-1.6.63-.15,1.03,1.46.32,1.6ZM105.65,70.1c.17,0,.34,0,.54.03-.28-.05-.44-.05-.54-.03ZM94.36,72.36c-.31.09-.14-.63.04-1.09-.18-1.01-.94-1.82-2.13-1.09-.64.4-.88,1.14-.79,1.86,1.51,1.44,1.28.76,2.88.32ZM104.47,72.69c1.46,1.85,2.62-.83,1.84-2.34.26.59-1.15-.15-.66-.25-1.5.04-2.1,1.42-1.17,2.59ZM108.62,30.06c-.17-.02-.34-.05-.51-.09.25.06.41.09.51.09ZM93.05,44.09c-.15-1.23-.84-2.16-1.89-2.97-1.11.05-2.27.85-1.88,2.12.32,1.05.41,2.23,1.7,2.6,1.35.39,1.09-.75,2.1-.9-.49.07-.16-1.13-.03-.85ZM49.74,69.3c-2.04-.62-3.83.57-2.8,2.75.53,1.13,2.12,1.43,3.31.63.69-.8.3-2.32,0-3.19.23.67-1.06-.31-.51-.19ZM58.52,60.55c.02.11.04.22.04.34,0-.17-.02-.28-.04-.34ZM54.06,59.97c-.2,1.3.95,2.39,2.26,2.19,1.32.29,1.43-.59,2.24-1.28-.54.46-.17-.7-.04-.34-.38-2.1-4.07-3.05-4.46-.58ZM40.02,58.97c.28-2.23.08-1.62-.03-.88.05.29.06.58.03.88ZM50.25,69.49c-.25-.11-.41-.17-.51-.19.17.05.34.11.51.19ZM63.03,68.86c.09-.32.05-.39-.03-.35.04.14.06.26.03.35ZM107.86,29.75c.05.05.12.12.24.21-.09-.07-.16-.14-.24-.21ZM40.02,58.97c-.11,0-.09-.46-.03-.88-.39-2.48-3.57-4.49-5.41-1.99-.05,2.15-.24,3.99,2.31,4.16.76.05,1.59-.02,2.29-.33.32-.14.62-.96.84-.96ZM104.27,54.83c-.02-.12-.02-.23-.02-.35-.07-.42-.21-.92.02.35ZM35.86,68.54c-.84,1.7.27,3.91,2.56,3.51,1.8-1.57-.17-5.17-2.56-3.51Z"/>
    </g>
  </g>
</svg>