<?xml version="1.0" encoding="UTF-8"?>
<svg id="Layer_2" data-name="Layer 2" xmlns="http://www.w3.org/2000/svg" viewBox="0 0 112.15 105.52">
  <defs>
    <style>
      .cls-1 {
        fill-rule: evenodd;
      }
    </style>
  </defs>
  <g id="food_icons" data-name="food icons">
    <g id="corn">
      <path class="cls-1" d="M63.24,44.31c-1.16.65,1.32-.49,0,0h0ZM99.05,14.98c-.57-.71-.2,2.32,0,0h0ZM79.43,37.55c-.13.07-.29.1-.53.07.34.05.48,0,.53-.07ZM86.26,21.04c-.41-.02.62,1.61,0,0h0ZM92.45,18.01s.02.02.04.03c0,0,0,0-.01-.01-.01,0-.02-.01-.03-.02ZM106.08.64c-1.26.2-2.34.86-3.52,1.28V0c-3.88.48-4.94,5.23-8.43,6.38-3.45,1.13-7.08,2.32-10.39,3.74-3.89,1.67-8.17,2.27-12.16,3.85-2.64,1.05-4.94,3.94-7.7,4.52.41-2.19.24-4.67,1.27-6.69-.81-.51-.67-1.83-.96-2.62-1.2-3.34-4.37,1.58-4.91,2.66-.93,1.84-1.75,3.85-3,5.5-1.04,1.37-2.16,2.66-2.63,4.35-1.38.93-2.13,2.47-3.36,3.56-1.39,1.23-3.29,2.06-4.84,3.09-3.59,2.39-7.64,3.44-11.18,5.85-3.07,2.1-5.64,4.74-7.99,7.59-1.9,2.29-3.74,6.3-5.95,7.8-.57.39-.56,1.21-.88,1.75-.41-.04-.81-.02-1.22.06-.65.44-1.04,2.62-1.05,3.41,0,.63-.05,1.71-.9,1.98-1,.32-.72.59-1.63,1.24,0,2.34-.41,3.09-1.45,5.11-.41.79-.81,1.61-1.42,2.28-.8.88-.45,1.19-.9,2.25-.63,1.49-.93,2.76-1.52,4.14-1.38,3.26-2.54,6.39-2.89,10.01-.23,2.29-.5,4.59-.52,6.9-.01,1.38,1.14,5.16.14,5.95-1.24.98-1.13,1.26-1.8,2.61-.57,1.12-.13,1.4-1.43,1.82-1.6.52-3.51,1.9-2.66,3.81.73,1.64,2.63,2.18,4.21,2.63,1.96-.62,3.07-2.43,4.8-3.41,1.31-.73,3.09-.16,4.47.22,1.24-.03,2.49-.05,3.72.11,2.42.32,5.02.36,7.45.06,4.7-.58,9.34-1.61,13.81-3.16,2.38-.83,4.72-1.8,6.99-2.91,1.72-.84,3.46-1.06,5.08-2.19,1.53-1.06,3.06-2.07,4.6-3.1,1.86-1.24,4.18-1.81,5.79-3.3,3.67-3.41,7.93-6.24,11.72-9.55,3.88-3.38,6.44-7.83,9.69-11.85,2.8-3.46,6.41-5.87,9.06-9.45,1.05-1.43,1.78-3.34,3.28-4.38.09-.97,2.74-5.14,2.89-4.95-.71-.85-.34-1.77.27-3.19.46-1.09.75-4.1-1.38-3.58-.9.22-3.92,4.64-4.01,4.39.02-.2.04-.38.32-.32-.28-.06,0-.11,0,0,0-1.99,2.25-6.39,3.52-7.97.49-3.39,1.66-6.94,2.98-10.1.67-1.59.93-3.27,1.77-4.72.88-1.52.95-2.29.99-4.03.04-1.76.23-3.68-.31-5.38.45-.85,1.47-1.18,1.6-2.23-2.17-.71-1.91.46-.64-2.23-.33-.6-.61.04-1.01,0-.64-.07,1.96-2.7,2.24-3.05,1.08-1.34,1.79-2.87,1.96-4.6ZM97.45,10.2c-.42-.11-.5-.56-.96-.64.13-.79,1.24-.02.96.64ZM89.78,11.79c0,.38.29,3.24,0,2.55.2.46-.53-.64,0,0-.57-.69-1.17-1.29-1.28-2.23.43-.09.86-.2,1.28-.32ZM92.67,18.22c.06.24-.42-.34-.22-.21-.66-.5-1.48-.83-1.4-2.07.2.38,1.04,1.6,1.42,2.08.04.03.1.08.18.15-.05-.05-.11-.09-.17-.13.1.13.17.21.18.18ZM92.37,20.17c-.61,1.11-1.77,1.75-1.96,3.1-1.75-.25-1.46-2.53-2.87-3.19,1.27.59.65-.97.14-.24.68-1.22,2.1-1.45,1.78-3.26.91.68,3.45,2.63,2.91,3.6ZM84.66,31.88c-.27,1.41,1.6.4.35.07,1.52.3,2.69,1.32,4.13,1.85-1.83,2.19-2,4.64-5.25,2.37-2.86-2,.34-1.97.78-4.28ZM84.59,27.41c-.79-1.09-2.67-4.16-1.19-5.19.51-.35,1.15-.51,1.59-.97.79-.83.29-.26,1.28-.22.86,2.23,3.38,3.36,1.81,5.82-1.19,1.87-1.92,2.73-3.48.55ZM86.58,29.65c.87-1.45,2.27-2.52,2.88-4.14,1.47-.04,2.37,1.31,3.84,1.28-.64,1.7-1.64,3.22-2.56,4.78-1.43-.52-2.91-1.01-4.16-1.91ZM84.48,13.53c1.3-.36,2.48-1.58,3.35-.35.77,1.09,1.65,2.36.81,3.53-.38.53-2.27,2.38-2.61.96-.06-.25-.38-5.77-1.67-3.09-.99,2.07-.05,3.21.62,5.19-1.45.06-1.51,1.92-3.2,1.59-.29-2.27-1.24-4.38-1.28-6.7,1.29-.5,2.65-.76,3.97-1.14ZM69.39,21.27c3.13-1.88,6.47-3.91,9.84-5.33-.01,1.59-.11,3.2.11,4.78.12.88.77,1.73.3,2.57-.39.69-1.33,1.24-1.28,2.13.05.93.76,1,1.35.46,1.93-1.78,1.23.5,2.21,2.1.59.97,1.44,1.73,2.11,2.63.25.49-.46.68-.36,1.07.21.84.54-.24.56.03.06.67-2.1,2.07-2.44,2.72-1.74-1.45-5.06-5.14-5.75-7.33,1.11-.1,1.46-1.08,1.92-1.91-.92-.78-2.2-.02-2.56.96-1.28-.6-2.25-2.45-2.23-3.76,0-.45-.73-3.25-1.44-1.66-1.05,2.37-.07,4.52,1.75,6.37.07.58-1.92.95-.68,1.79,1.43.96.9-1.17,2.47.85,1.37,1.75,2.67,3.55,4.07,5.27,1.6,1.96.07.94-.42,2.61.15-.52.63-.23.53-.07.31-.16.4-.55.77-.79.76-.5,1.67.86,2.22,1.23,1.89,1.28,3.49,1.01,1.94,3.41-.97,1.5-1.8,2.86-3.54,1.57-1.29-.97-2.32-1.55-3.52-2.64-2.32-2.11-4.74-4.54-6.68-7-1.92-2.43.43-1.56.92-3.68-.72-.8-2.3.05-2.88.64-.97-1.48-1.53-3.18-2.23-4.78,0-2.58.75-2.92,2.95-4.23ZM63.24,21.36c.96.83,1.39-.07,1.54,1.55.14,1.51.24,2.65.78,4.1.5,1.35,1.1,2.67,1.84,3.91-.46.72-1.33,1.02-2.03,1.42-1.57.89-.71.95-.53,2.09,1.29.03,1.94-.85,2.99-1.35.93-.44,3.94,2.8,4.6,3.77,1.31,1.93,3.18,3.72,4.88,5.55,1.35.3,2.4,1.14,3.57,1.8,1.23.69.9.96.23,2.16-.94,1.69-1.35,1.49-3.2.98-1.05-.29-2.08-.67-3.11-1.05-2.37-.88.85-2.51.91-4.2-1.87.12-2.18,1.97-3.52,2.87-1.56-.04-2.6-.9-3.52-2.07-.49-.62-.96-1.27-1.6-1.76.44-.72,1.11-1.24,1.6-1.91-.25-1.43,1.08-1.66,1.28-2.87-1.25-.12-2.2.34-3.06,1.2-1.02,1.02-1.4,1.29-2.11-.26-.9-1.98-2.32-3.71-3.15-5.73-.72.47.77,3.55,1.08,4.13.56,1.03-.02,1.69.89,3.26,1.06,1.84-.64,2.56-1.97,3.77-.96.78-1.18,2.27-2.55,2.55-.24-1.68-1.66-2.64-2.24-4.14-1.06.74.66,4.47.96,5.42-.46,1.01-2.62,4.53-3.78,3.4-.31-.3-3.09-4.61-3.3-2.42-.15,1.52,1.9,2.83,1.96,4.44-2.49.03-4.03,1.48-5.56,3.24-1.44,1.66-1.02-2.4-2.44-2.61,1.34-2.69,3.77-4.64,5.12-7.33,1.89-2.28,3.48-4.79,5.43-7.01-1.54,1.75,1.47-2.38,1.11-1.7,2.99-4.72,5.35-9.81,6.88-15.19ZM44.43,65.23c-.53-.31-1.48-1.12-1.85-1.83-.48-.9,1.77-2.16,2.45-2.51-.99.5-.55-1.08,0,0-.95-1.85,1.04-2.14,2.07-.78.67.89,1.75,2.17,3.05,2.06-1.89,1.86-2.8,4.78-5.71,3.06ZM45.98,69.18c.03.38-.47.19,0,0,.09-1.26,1.41.06,0,0ZM43.42,70.13c-.52-.04-3.42.87-2.88.64-.27.11-.2-.67-.1-.88-.6-2.43-3.75-3.67.2-5.39,1.17-.51,1.65,2.01,2.66,2.69,1.66,1.13-.76,1.42.11,2.94ZM21.68,85.74s0,0,0,0c.24-1.22,1.92-3.28,2.73-4.18,1.09-1.21,1.91-2.67,2.79-4.12,2.46-4.05,4.94-8.12,7.58-12.09.75.46,1.12,2.71,1.92,3.51.61.02,1.12,1.43,1.51,1.77,1.48,1.29.8,1.05-.82,2.07-1.44.9-2.68,2.05-3.93,3.18-2.54,2.29-5.08,4.76-7.73,6.9-.93.75-1.95,1.35-2.74,2.21-.22.24-1,.62-1.3.76,0,0,0,0,0,.01-.17.07-.15.06-.04.01-.37.09.25-1.13.04-.02ZM35.43,64.71c.24-.35.43-.62.61-.85,2.46-3.51,5.18-6.83,7.71-10.3,1.14.48,1.81,3.5,1.08,4.33-.46.53-.82.96-.75,1.73-.79.19-1.17.86-1.64,1.43-.34.41-1.45.65-1.57,1.11-.29,1.06-.2.9-1.29,1.69-.61.45-1.63,1.85-2.48,1.37-.63-.36-.82-.73-1.66-.5ZM51.4,63.95c1.49-1.67,1.55.38,3.17.78,2.66.66,0-2.01-.44-2.61-.98-1.31.97-1.54,1.45-2.83-2.4-.46-3.03,2.46-5.54,1.11-1.54-.83-4.29-3.93-.86-4.29-.19.25-.36.51-.52.78.27-.24.86-.41.76-.29,1.51-.85,2.81-2.02,3.91-3.35,1.32,1.49,2.77,2.86,4.15,4.29,1.32,1.37,2.42,1.65,3.85,2.72,1.68-.38,1.11-.72,2.6.45,1.16.92,2.67,1.18,4.11,1.14-2.85,2.02-6.57,1.77-9.79,2.42-3.68.74-6.73,3.13-10.35,3.96-.09-1.67,2.53-3.18,3.5-4.27ZM58.44,55c-.77-.75-2.68-2.94-2.87-4,.91-.38,1.64-1.05,2.28-1.79,1.05-1.24.43-.49,1.56-.44.88,2.08,4.57,3.17,2.55,5.2-1.41,1.41-1.74,2.76-3.52,1.03ZM60.26,47.22c-.53-.9,2.13-2.43,2.98-2.91,1.27-.47,1.86-1.87,3.2-2.23.24,1.36,2.73,3.43,3.83,4.14-1.21,1.39-2.8,2.37-4.2,3.55-1.95,1.65-1.59,1.51-3.41-.18-.73-.67-1.88-1.49-2.39-2.38ZM59.73,18.81c-.82.03-.09-.52,0,0,.04-.34.15-.66.32-.96,1.05,1.79-1.78,2.45-2.24,3.83-.61-.31,1.41-2.85,1.92-2.87ZM31.68,39.62c.31-.36,2.37-2.4,2.99-2.62.02-.02.03-.04.04-.05-.15-.1.05-.31.07.03-.03,0-.07,0-.12.02-.13.16-.36.55-.59.87-1.5,2.14-4.02,4.61-6.01,6.44-.81-.45,3.15-4.17,3.6-4.7ZM18.21,65.24c.22-2.02,1.89-4.24,2.74-6.04.89-1.88,1.75-3.77,2.65-5.65.75.17.64.9,1.6.64-.6.96-5.01,7.51-6.99,11.05-.02.14-.04.29-.04.43-.28,0-.96,1.72-.88,1.8-.15-.15.24-1.01.92-2.23ZM10.18,94.36c-1.17-1.1-.08-2.82-.64-4.14,2.2,1.01,2.52-1.08,1.86-2.62-.57-1.33-.27-3.24,1.02-4.07-.21-2.02,1.14-3.37,1.25-5.24.08-1.5.84-2.84.99-4.33.3.26.51.58.64.96,2.1-1.87,2.84-5.43,4.28-7.78,1.84-3.01,3.34-6.18,5.31-9.11,1.97-2.86,4.36-5.21,6.66-7.77,1.62-1.8,4.97-3.8,5.49-6.26-1.97-.03-4.8,3.01-5.75,4.46-1.24.93-2.34,1.91-3.41,2.97-.2.2-1.13,1.26-1.43,1.41-.39.18-.49-2.9-.23-3.3.74-1.12,2.27-2.41,3.28-3.29,1.21-1.08,2.29-2.19,3.62-3.16.13-.1,2.52-2.2,1.88-2.24-.46-.03-.56.64-1.15.29,1.85-2.46,4.85-4.43,6.39-7.02,7.48-1.64,13.16-6.36,18.86-11.16,1.17.03-3.16,9.03-3.52,9.88-1.29,3.02-3.43,4.92-5.77,6.94-2.73,2.36-5.33,4.77-7.33,7.86-2.09,3.2-4.94,6.74-6.46,10.16-1.57,3.52-4.68,6.68-6.79,9.92-2.36,3.64-5.22,7.06-7.46,10.74-2.12,3.47-5.11,6.26-7.84,9.25-1.11,1.22-2.05,2.03-2.18,3.67-.08,1.07.98.37-.24,1.55-.53.4-.97.88-1.32,1.44ZM11.45,96.27c.18-.59.36-.7.38-.58.62-.75,1.77-1.78,2.03-1.57.44.35.04,1.45.78,1.51-.74.89-2.34-.08-3.2.64ZM23.93,94.36c0-.31.39-.25.63-.32,0,.31-.39.25-.63.32ZM24.88,94.04c0-.31.39-.25.64-.32-.01.31-.39.25-.64.32ZM27,93.08c-.15.17-.47.59-1.16.64.07-.53.51-.7,1.16-.64,0,0,.01-.01.01-.02-.48-.09-.03-.29.08-.05-.02,0-.04.02-.08.05.03,0,.06.01.1.02-.04,0-.08,0-.12,0ZM27.36,89.4c-.18,1.31-.59,1.03-1.74,1.82-1.39.94-2.55,2.17-3.61,3.46.26,0,1.38-.35,1.48-.25.15.35-.03.43-.53.25,1.33.3-1.45,1.11,0,0-1.71,1.31-4.36,1.13-6.39,1.28,1.64-2.13,4.29-3.12,6.08-5.1.88-.16,1.6.68,2.11-.6.61-1.5,1.38-1.5,2.69-2.59.57.26-.03,1.39-.08,1.74ZM33.03,91.86c-.65,1.36-.46,3.02-2.72,2.5,1.29-2.01,2.31-4.2,3.84-6.05.53.25-.92,3.13-1.12,3.56ZM38.63,90.85c-.57-.23-.05-.58,0-.95.57.23.05.58,0,.95ZM38.95,89.26c.06-.36.32-.18.32,0-.06.36-.32.18-.32,0ZM82.42,61.21c-2.79,2.81-4.61,6.45-7.78,8.75-.99.72-1.95,1.49-2.77,2.4-.65-.05-.15-1.06-.64-1.27-1.63.53-3.07,1.49-4.25,2.72-1.16,1.21-2.07,2.62-2.91,4.05-.84,1.43-3.04,2.37-4.66,2.79.73-1.22.68-2.79.96-4.14-2.43-1.11-5.44,3.14-6.39,4.78-.85.82-.92,2.18-1.9,2.89-.18.13-1.28.56-.66.3-.46.2-.17-1.23,0,0-.14-1.02.52-1.84.32-2.87-1.89.73-2.8,2.58-3.68,4.25-.68,1.28-2.56,2.13-3.98,2.45.82-2.4,3.02-4.26,1.92-7.01-2.18.18-3.74,1.48-4.48,3.5-.75-.14-.18-1.76-.32-2.23-2.13-.08-3.35,1.13-4.63,2.64-.81.96-2.43.7-3.61,1.29-.96.48-1.8,1.14-2.63,1.81-2.28-2.63,3.24-3.38,3.19-2.87.96-.34,1.13-1.47,1.6-2.23,1.11-.66,2.36-1.21,3.2-2.23-.19-.31-5.25,1.46-2.8-1.07,1.65-1.7,4.12-2.57,6.04-3.93,2.33-1.65,4.79-3.07,7.63-3.61,2.76-1.3,5.39-2.88,8.31-3.82,5.75-1.81,11.73-2.41,17.37-4.61,2.65-1.04,5.29-1.91,7.57-3.67,1.05-.82,1.98-1.79,2.69-2.93.71-1.15,2.18-1.59,2.74-2.82,1.05.67-4.77,5.84-5.44,6.69ZM90.73,52.28c-.16-.17.23-.41.32-.32.16.17-.23.41-.32.32ZM97.54,25.53c-.7,1.98-1.26,4.01-1.76,6.05-.9,3.63-2.33,6.96-3.81,10.39-.5,1.16-3.88,6.17-1.23,5.85-4.81,3.56-8.6,8.33-14.27,10.74-1.71.73-3.45,1.38-5.18,2.06-1.88.73-1.54.75-3.24.05-2.49-1.02-4.39-2.58-6.72-3.92,2.19-3.38,3.58-1.31,6.4-.14,2.3.96,5.79,2.64,8.31,1.74-1.09-.74-2.48-.81-3.61-1.5-.96-.59-2.13-1.12-3.15-1.59-.95-.44-2.09-.76-2.77-1.61-.88-1.12.66-1.25,1.44-1.84,1.57-1.19,3.73-5.41,5.54-3.99,1.63,1.28,3.49,1.6,5.42,2.25-.99,1.8-2.8,2.97-3.2,5.1,1.19.67,3.22-2.27,3.82-3.04.85-1.09.46-1.19,1.66-1.11.96.07,1.83-.09,1.53-1.25-.31-1.18-1.41-.4-.57-1.8.47-.78,1.07-1.42,1.22-2.36,1.78.27,2.87,1.77,4.79,1.59-.49-1.68-2.67-1.61-3.83-2.55.72-1.66,1.76-3.16,2.55-4.78,1.16.2,3.67.99,4.48-.32.19-1.61-1.36-1.69-2.56-1.59.17-1.26,1.16-2.05,1.6-3.19,1.26.11,1.88,1.52,2.98.42,1.66-1.66-1.88-1.98-.99-4.05.58-1.36,1.42-2.59,1.85-4.02.72.25,2.9.47,2.13-1.04-.44-.86-4.44-1.69-5.32-1.83,1.03.16.97-1.16.19-.25.96-1.24,2.31-2.14,3-3.58.41-.09,1.97,1.07,2.38,1.45,1.71,1.58,1.73,1.33.91,3.68ZM97.98,20.41c-.79-.83-2.92-1.38-1.99-2.55.78-.98,1.28-1.9,1.14-3.2-1.25.51-1.8,1.95-3.2,2.23-.02-.89-1.64-1.43-1.24-2.12.26-.46.77-.37.61-1.07-.2-.69-.69-.07-1.05.04-.85.27-.93-.89-1.12-1.38-.96-2.4,3.02-1.11,4.06-.54.71.38,1.46.81,2.27.93.2,1,1.01,1.49,1.6,2.23-.12,1.33,1.38,7.96-1.06,5.43ZM86.58,29.65c1.18.85.88-1.46,0,0h0ZM80.51,14.66c.04,2.62,2.15-.83,0,0h0ZM21.68,85.74s-.03.01-.04.02c.01,0,.02,0,.04-.01,0,0,0,0,0,0ZM40.23,34.11c-.4.67,8.21-1.8,0,0h0ZM40.45,69.89c.07.28.11.57.1.88.04-.91-.04-1.04-.1-.88ZM59.41,48.77c-.41-.02.72,1.72,0,0h0ZM34.72,36.95s.04.02.07.03c0-.06-.03-.07-.07-.03ZM30.32,94.36c1.11.26,1.29-2.01,0,0h0ZM18.17,65.67c0-.32-.31,0,0,0h0ZM11.84,95.69c-.2.24-.34.45-.38.58.31-.26.4-.49.38-.58ZM55.25,38.25c.69-1.02,1.01-1.52,1.11-1.7-.36.57-.73,1.14-1.11,1.7ZM49.42,56.59c-.29.16-.58.34-.88.47.59-.26.83-.41.88-.47ZM36.04,63.86c-.2.29-.41.56-.61.85,1.21-.33,2.38-3.24.61-.85ZM105.12,8.67c.12-.75,1.46-.13,0,.25,1.91-.5,6.62-2.51,7.03-4.78-1.76.03-6.96,2.32-7.03,4.53ZM104.8,9.25c.27.06.3-.12.32-.32-.27-.06-.3.12-.32.32ZM104.48,9.56c.27.06.3-.12.32-.32-.27-.06-.3.12-.32.32ZM104.48,9.56c-.47.2.03.38,0,0h0ZM78.27,38.25c0,.75.88-.12.64-.64-.29.14-.57.28-.64.64ZM36.27,72.46c-.05-.14-.05-.69.04-.6-.9-2.23-4.47.82-5.04,2.04-1.16,2.46,4.13.57,5-1.45ZM36.31,71.86c.02.06.06.11.08.18-.03-.1-.06-.16-.08-.18ZM36.39,72.05c-.01.14-.06.28-.12.42.03.08.07.02.12-.42Z"/>
    </g>
  </g>
</svg>