<?xml version="1.0" encoding="UTF-8"?>
<svg id="Layer_2" data-name="Layer 2" xmlns="http://www.w3.org/2000/svg" viewBox="0 0 114.72 88.63">
  <defs>
    <style>
      .cls-1 {
        fill-rule: evenodd;
      }
    </style>
  </defs>
  <g id="food_icons" data-name="food icons">
    <g id="crab">
      <path class="cls-1" d="M26.3,6.04c-.61,1.3,3.25-.16,0,0h0ZM111.58,65.09c-2.96-.33-5.81-1.01-8.77-1.58-2.66-.51-5.97-2.11-8.59-1.89-3.13.27-6.29.18-9.42.52.92-2.18,1.78-1.54,3.68-1.6,2.5-.08,5.01,0,7.51,0,2,.38,3.97,1.11,5.88.12,2.07-1.07,3.92-2.49,5.95-3.62,1.33-2.04,8.17-5.16,3.84-7.65-2.97.14-5.51,3.71-7.75,5.34-1.43,1.05-3.69,2.79-5.55,2.18-1.84-.61-4.28-.19-6.2-.19-1.18-.19-4.21.8-4.11-.97.08-1.45.78-1.33,1.6-2.16.26-.26.69-1.62.91-1.65,1.17-.13,2.35-.32,3.5-.57,1.93-.42,4.39-.86,5.69-2.37.64-.74,1.23-1.46,1.35-2.48.84-.22,1.32-.89,1.92-1.44.93-.86,1.59-2.42,2.03-3.69.64-1.87.03-4.19-.55-6.01-.28-.88-.6-1.75-.88-2.63-.33-1.03-.87-.95-1.23-1.86-2.39-.13.1-3.23.6-4.82.59-1.85.33-3.93.51-5.87.42-4.6-.38-8.48-3.08-12.3-2.28-3.22-4.78-5-8.24-6.81-3.79-1.98-9.85-1.17-13.11,1.43-1.46,1.17-5.55,3.98-2.44,5.84,1.5.9,3.36.94,4.99,1.48,1.54,1.53,3.31,2.79,4.42,4.71,1.4,2.41,4.38,5.71,4.21,8.68-3.41-1.47-7.96-3.33-10.23-6.38.05-1.29.01-3.55-2.02-2.81-1.04.38-.82,1.99-1.18,2.81,0,4.44.4,7.91,3.03,11.64,2.1,2.97,4.7,5.73,8.08,7.18,1.44.62,4.31,1.12,5.18,2.54-.19,1.34,1.22,2.99-.64,3.67-2.18.79-6.07,5.75-8.16,3.83-1.95-1.79-4.04-3.28-5.76-5.31-1.88-2.2-2.62-3.15-5.58-3.15-.53-1.51-2.84.84-.98-1.97,1.03-1.56,1.65-3.26,1.67-5.14.02-1.53-.81-2.65-1.67-3.87-.79-1.13-1.25-.82-2.53-.82-1.47,0-2.54.08-3.05,1.42-.92,2.38,3,8.25-.51,9.21-1.88.51-4.96-.61-6.58.29-1.43.81-4.3.24-5.94.24-2.23,0-4.46,0-6.69.05-1.45.03-1.87.65-2.93-.54-.92-1.03-1.42-1.54-1.64-2.91-.31-1.95-.58-6.08-3.07-6.45-2.1-.31-4.03.41-4.11,2.65-.07,2.03.45,3.6,2.19,4.72,1.8,1.17,2.32,2.85,2.3,5.04-2.88,1.24-5.65,2.71-8.41,4.19-1.17.63-2.34,1.27-3.52,1.89-1.52.8-1.52.42-2.89-.39-1-.58-2.82-1.92-3.28-3.05-.93-2.3,1.78-2.48,3.08-3.44,3.64-2.67,5.68-6.94,7.61-11.02.83-1.75,2.32-3.3,2.87-5.08.54-1.73.79-3.61,1.79-5.12,1.42-2.13-.85-3.2-2.44-1.68-1.19,1.14-2.49,2.11-3.52,3.42-.6.76-4.15,2.93-5.89,4.22-.13.13-.27.27-.44.43-.08-.02-.21.08-.32.19.09-.09.2-.19.34-.31.12-.17.45-.5.72-.74,2.08-2.72,3.54-7.4,6.17-8.61,3-1.39,4.86-4.71,7.87-6.23,3.85-1.95-1.94-4.53-3.76-4.67-1.36-.1-3.13.42-4.14-.7-1.03-1.12-2.44-1.15-3.87-.69-.84.27-1.55.76-2.28,1.24-.89.58-1.6.3-2.57.68-1.08.43-2.15,1.2-3.27,1.36-1.38,1.81-3.15,3.3-5.12,4.46-1.36,1.61-2.74,3.22-4.09,4.85-1.43,1.74-3.9,3.91-3.9,6.2,0,1.94.33,3.62.65,5.52.29,1.78.51,3.31.95,5,.32,1.21,1.07,2.42,1.45,3.65.54,1.71-.41,2.46-.76,3.95-.35,1.46.44,3.07,1.11,4.31,1.1,2.03,2.72,3.07,4.28,4.76.64,1.4,1.47,2.72,2.59,3.8,1.4,1.35,3.18,2.2,5.09,2.58-.37,1.21.83,1.75.81,2.8-.02,1.13-9.99-.65-11.22-.93-1.69-.39-2.32-1.87-3.73-2.36-2-.69-2.6,1.31-1.68,2.73,1.89,2.92,5.99,2.58,8.78,3.83,2.08-.16,4.04.36,6.07.64,1.87.08,4.02-.85,5.03.66,1.64,2.43,5.02,4.8,5.84,7.63-5.01,0-9.21,1.45-13.29,4.38-1.94,1.4-3.58,3.14-5.57,4.54-.72,1.05-2.45,1.01-2.82,2.38-.64,2.37,4.33-.14,5.07-.69,1.58-1.16,3.13-2.4,4.75-3.5,1.99-1.35,4.21-2.64,6.55-3.06,1.83-.33,3.16-.21,5.07-.25.75-.02,3.15-1.25,3.43-.93.02,1.01-1.87,2.07-2.57,2.54-2.08,1.37-6.89,3.17-4.75,6.35.53.79,1.85.54,2.2,1.63.45.54.69,1.23.9,1.89.39,1.27.64,2.93,1.84,3.73,2.57,1.72,3.02-1.83,2.49-3.5-.64-2.05-1.77-3.87-2.98-5.63,1.73-1.18,3.34-2.19,4.77-3.72,1.47-1.56,3.11.91,4.59,1.7,2.16,1.16,4.75,1.73,6.61,3.29.69.58,1.51,1.06,1.92,1.91.78.05,1.46.35,2.12.75,1.32.82,3.42,1.94,4.88.71.74-.62.98-1.04,1.95-1.46.45.52.56,1.31,1.17,1.7,2.6,1.71,10.99-5.84,12.9-7.44.24,1.62,2.16,1.65,3.43,1.63,1.81-.03,1.77,3.4,2.33,5.06-.12,1.94,2.62,5.03,3.89,2.17.96-2.17-.73-5.01-1.07-7.18-.56-3.57-3.06-3.75-6.34-3.6,2.1-2.88,4.83-3.05,7.99-4.14.62,4.21,8.21,4.72,11.38,5.69,1.76.54,4.85,3.22,6.55,2.22,1.69-.99,1.4-2.72-.05-3.8-3.2-2.39-8.72-3.19-12.5-4.14-2.13-.53-2.08-3.16-4.42-3.16-.32,0-3.52.33-3.52.32,2.14-3.2,4.66-2.8,8.32-2.86,1.7-.03,3.4-.03,5.1-.02,1.6.01,2.53.81,4.03,1.3,2.78.9,5.77,1.51,8.63,2.11,1.87.39,5.38,1.76,7.2.85,2.78-1.39-.26-3.66-2.02-3.85ZM101.79,37.55c.67,1.81.68,3.41-1.21,4.47-1.64.93-3.83,1.39-3.98-.9-.11-1.74-.68-3.67,1.94-3.21-1.08-.19.5-1.27.13-.28.74-1.51,1.14-3.18,1.47-4.82,1.36.92,1.13,3.36,1.64,4.74ZM89.28,31.91c-.81-.5-4.7-2.84-4.48-3.88-.06.27-1.84-1.56,0,0-1.98-1.67-3.38-3.81-3.84-6.38,1.84,1.31,3.9,2.28,5.79,3.51,1.45.94-.17,2.18,1.51,3.62,1.67,1.43,1.68-.77,3.24-.44.4,1.08.75,2.43,1.72,3.15,1.62,1.22,2.41-.22,1.62-1.62-.37-.64,1.41-4.18,2.24-4.01.48.1.58.87,1.14.24.13-.84-.29-1.24-.96-1.59-1.52.2-2.32,1.71-3.83,1.91.33-2.74.56-5.07-.66-7.64-.85-1.79-2.13-3.55-3.17-5.26-2.46-4.05-5.34-7.19-10.24-8.15,2.24-2,8.2-2.96,10.69-1.38,1.6,1.02,3.42,1.74,4.87,2.98.32.27,1.87,2.42,1.87,2.42-.48.04-1.99-1.38-2.73-1.47.08,1.45,1.09,2.53,1.6,3.83.53,1.35.75,2.79,1.28,4.14,0,1.5-.21,3.02.36,4.43.39.98,1.53,2.72,2.52.99,1.53.29-3.32,12.28-3.52,13.71-2.22-.9-5.03-1.91-7.03-3.14ZM88.71,48.4c.81-.95,2.38-1.1,3.3-1.92,1.12-1,1.88.99,3.34,1.32-1.15.7-5.38,2.06-6.83,1.39.52.18.47-.85.19-.79-.16.19-.3.41-.39.68.15-.47.29-.65.39-.68ZM38.45,32.18c-.84-.33-1.05-1.29-.96-2.55,1.19-.02.92,1.42.96,2.55ZM10.32,23.53c.03-.59.1-2.72,1.08-2.69.61.02,1.28.47,1.79-.14v-2.87c.67-.56,1.49-.92,1.6-1.91,1.12.4,2.09,1.38,3.19.32.07-.85.16-2.29-.96-2.55,1.39-1.79,3.2-3.19,4.71-4.87,1.19-1.33,3.76-1.08,4.56-2.78,2.91-.15,5.75.33,8.63.64-1.45,1.49-3.52,3.34-5.18,4.29-1.91,1.1-2.86,2.65-3.96,4.68-1.36,2.52-2.39,4.03-4.49,5.96-1.04.96-3.2,3.06-2.62,4.67.06.16,1.54,2.71,1.54,2.71,1.69-.79,2.31.73,3.83.96,1.25-.25,1.66-1.43,1.51-2.56-.19-1.4.25-1.41,1.44-2.22,1.74-1.18,3.68-2.18,5.04-3.82.7.32-2.44,4.26-2.67,5.06-.72,2.48-2.74,5-4.23,7.18-1.42,2.08-3.92,3.87-6.02,2.31-1.47-1.1-5.52-.86-7.22-.21-.14-.89.92-.94.64-1.91-.38-.98-.85-1.91-1.27-2.88-1.02-2.39-1.1-4.8-.97-7.37ZM24.05,23.78c-.1.11-.19.23-.19.28,0-.06.07-.16.19-.28ZM12.29,41.85c-.44-.68-.77-1.43-1.33-2.03.38-.2.6-.52.64-.96,2.1.34,4.33.03,6.39.64.12,1.42-.55,2.39-1.8,2.98-1.66.78-2.77,1.14-3.9-.64ZM22.15,50.99c-.9-.21-1.77-.57-2.54-1.08-1.3-.87-2.23-2.15-2.95-3.52-.08-.14-.17-.29-.26-.5,2.29-.89,2.43-2.04,4.4-.24,1.01.92,2.05,1.83,3.27,2.47-.52,1.04-1.49,1.77-1.92,2.87ZM68.79,33.4c-.07.06-.16.09-.29.05.19-1.83-.33-3.6-.32-5.42,3.1,0,1.73,4.81.61,5.37ZM38.77,68.52c.16-1.54-2.14-1.84.32-1.91-.11,1.55,1.39,1.55,2.04,2.61.37.61,2.44.96,2.43.9.87-.05,2.13,2.13,2.23,2.87-2.92-.09-4.4-3.82-7.03-4.46ZM51.56,78.72c-.65-.67-.17-2.21-1.6-1.91.46-.56.93-.52.83-.35,1.1-.09,2.71.49,3.01-.61,1.01,1.44-1.85,1.84-2.24,2.87ZM55.39,80c-.16-.02-.18-.1-.15-.16-.18-.22-.24-.48-.17-.8.34.04.66.15.96.32-.25.17-.46.39-.64.64ZM79.83,62.77c-.72,1.2-2.55,4.37-3.82,3.88-2.4-.92-2.5,1.95-.8,1.87-.37,1.25-1.64,1.78-2.24,2.87-1.4-.26.88-2.56-1.59-1.67-1.11.4-1.98,1.18-2.82,1.97-.64.61-2.17,1.32-2.05,2.28.1.75.68,1.46-.58,1.24-.2.83.84.76.64,1.59-1.12.76-1.72,1.83-3.12,1.28-2.14-.84-4.1-1.88-6.47-1.92.6-.56.79-2.51-.44-2.29-.76.14-.94,1.03-1.79,1.01.82-3.02-4.99.5-5.34.31-1.01-.56.08-1.19-1.64-.73-.89.23-1.22.54-1.33-.85-.37-.96,1.01-.32.64-1.27-.41-1.38-1.43-2.35-2.56-3.19,1.3-1.33.05-2.9-1.6-2.55.63-1.53,1.51-3.48.64-5.1-1.17-.45-2.07,1.24-2.72.32-1.45-2.06-2.33,3.48-3.68,2.87.44-1.55,1.61-2.05,1.24-3.89-.26-1.32-1.72-.11-2.11.47-.37.55-1.32,1.81-1.08,2.5.26.77,1.29.46,1,1.55-1.45.07-3.64-2.72-2.51-3.62,1.21-.97,1.55-2.56,1.55-4.03.17-.67-1.46-1.04-1.6-.32-.69-.27.77-4.61-2.26-3.61-1.41.46-2.64-.79-3.17,1.7-1.48-.72.04-3.07-1.28-3.19.38-.35.71-2.03,0-2.23.73-.98,1.84-1.5,1.92-2.87,2.38-1.37,4.82-2.64,7.44-3.49,4.62-1.49,7.85-4.51,12.94-4.5-1.19-.07-2.97-.2.72.01-.24-.01-.48-.01-.72-.01.45.03.82.04.77.02.61.09,1.31.29,1.54.95.85,0,1.12-.83,1.92-.96,1.52.65,3.23.67,4.83,1.02,3.25.72,7.03-.93,10.44-.77,2.1.1,5.74-.13,7.16,1.5,1.17,1.34,2.41,2.67,4.1,3.35,1.04,1.5,2.26,2.88,3.63,4.08,1.2,1.05,1.26,2.74,2.76,3.57-1.67,1.87-1.29,4.24-2.63,5.88-1.3,1.58-2.9,3.25-3.93,4.95ZM24.82,23.14c.93-.93.7-.78.3-.42-.14.18-.28.36-.43.52.04-.03.08-.06.13-.1ZM24.41,23.46c-.04.06-.06.11-.03.11.11-.1.21-.22.31-.33-.1.08-.2.15-.28.22ZM16.39,45.89c.08.17.18.33.26.5.88,1.48.72-.88-.26-.5ZM11.6,38.87c.09.63,2.02.32,0,0h0ZM55.24,79.84c.04.05.09.11.15.16,0-.23-.11-.22-.15-.16ZM50.79,76.46c-.34.03-.64.12-.83.35.53-.11.77-.25.83-.35ZM68.5,33.45c.09.03.19,0,.29-.05.38-.33-.1-1.76-.29.05ZM38.77,68.52c1.02.25.11-1.11,0,0h0ZM92.47,8.91h-1.28c.43,0,0,.43,0,0v1.27c.94.14,1.42-.33,1.28-1.27ZM94.71,11.14c-2.57-.83-3.51.16-1.99,2.46,1.51,2.28,2.58-.3,2.16-1.98-.06.17-.75-.67-.17-.48ZM94.71,11.14c.08.15.13.31.17.48.02-.05-.02-.19-.17-.48ZM22.46,16.88s-.05,0-.07,0c-.28.03-.64.08.07,0ZM22.52,16.86s-.03.01-.05.01c.2-.03.16-.03.05-.01ZM22.39,16.88s.09-.01.13-.02c2.25-.39,1.43-4.28-1.01-3.68-2.39.58-1.39,3.89.88,3.7ZM12.55,23.89c-1.57-.19-1.72,1.05-1.59,2.55,1.74.35,1.54-1.23,1.59-2.55ZM17.03,27.72c-.74.1.44-.54,0,0,.52-.62.69-2.84-.64-2.55-.43,1.1-2.13,2.93.64,2.55ZM85.13,26.21c-.91.6.08,1.76,0,2.15.06-.27.43,0,0,0,2.91,0,.65-2.57,0-2.15ZM15.75,31.54c.32-.48.43-1.01.32-1.59h-.96c.32,0-.05.79,0,0-.03.5-.16,1.54.64,1.59ZM63.83,46.67c.15-.06.32-.11.51-.15-.63.11-.67.14-.51.15ZM65.62,49.07c.02-.88.04-2.25-1-2.5-.1.04-.6.09-.79.09-1.89.75-.77,3.53-1.75,4.85-1.25,1.66-.18,3.65,1.95,3.62,1.98-.76,2.71-2.87,3.83-4.46-1.04-.57-.61-2.34-2.23-1.59ZM64.34,46.52c.11,0,.19.03.28.05.05-.02,0-.04-.28-.05ZM67.22,48.12c-.09-.09-.49.15-.32.32.09.09.48-.15.32-.32ZM70.42,48.44c-1.06.11-1.39.96-1.92,1.59,1.06-.11,1.39-.95,1.92-1.59ZM50.6,56.41c.15-.78,3.09-4.82.52-4.53-1.18.13-.98,1.8-2.12,1.98-.65-.73.9-3.78-.76-3.21-1.34.46-.53-.87-.84-1.89.2.66-.81.2-.77,0-.89.22-.88,1.38-1.78,1.91-.97-1.85-1.99-.57-2.59.77-.73,1.64-.63,2.29.48,3.64,1.5,1.83,4.71,4.55,7.01,2.82,1.14-.86,1.08.51,2.47-.32.98-.58,1.85-1.19,1.9-2.44-1.54-1.3-2.6,1.93-3.51,1.27ZM47.4,48.76c-.56-.12-.76-.08-.77,0,.21-.05.44-.07.77,0ZM76.81,54.49c.74-.24,1.12-2.48-.32-2.23-.27.27-.88,2.49.32,2.23ZM73.61,55.77c.14-.94-.34-1.41-1.28-1.27,1-.15-.46,1.27,0,0-1.04,2.84-.14,5.84-2.56,8.29-1.13-1.42-2.09-1.54-2.61.74-.4,1.74-.39,2.77-1.14,4.34-.98,2.05-.15,3.9,2.18,2.59,1-.57,2.38-1.44,3.08-2.35.96-1.25,2.44-1.9,3.14-3.61.56-1.36,1.37-2.66,2.04-3.98.78-1.51,1.73-3.23.78-4.71-.75-1.16-2.58-.85-3.63-.04ZM27.26,65.97c0,.19-.04.36-.09.53.04.08.07-.03.09-.53ZM27.03,65.28c.1.2.19.42.23.69-.18-1.08-.24-1.04-.23-.69ZM27.17,66.5c-.06-.14-.14-.85-.15-1.22-.99-1.93-4.38-.75-6.16-.9-2.93-.8-6.09-.71-9.08-.44-2.18.2-5.46,1.92-6.9,3.63-1.54.24-4,1.88-4.69,3.33-1.3,2.74,4.26,1.07,5,.64,2.16-1.25,4.61-3.05,7.04-3.65,2.52-.17,13.87,2.37,14.94-1.39ZM53.27,64.99c.02-.1-.01-.29-.11-.61.04.14.08.36.11.61ZM52.93,64.28c-3.2-1.45-4.17,3.92-2.28,5.49,2.58,2.14,2.86-2.77,2.62-4.79-.07.43-.95-.89-.34-.71Z"/>
    </g>
  </g>
</svg>