<?xml version="1.0" encoding="UTF-8"?>
<svg id="Layer_2" data-name="Layer 2" xmlns="http://www.w3.org/2000/svg" viewBox="0 0 105.34 86.86">
  <defs>
    <style>
      .cls-1 {
        fill-rule: evenodd;
      }
    </style>
  </defs>
  <g id="food_icons" data-name="food icons">
    <g id="croissant">
      <path class="cls-1" d="M77.53,22.64c-2.8,5.17,2.53-.45,0,0h0ZM89.68,7.66c-.28,3.54,1.65-2.08,0,0h0ZM104.05,16.98c-.49-2.68-1.68-5.27-2.01-7.93-.28-2.26-1.16-4.38-2.64-6.12-1.57-1.84-3.09-3.26-5.62-2.87-2.12.33-3.7,1.61-5.39,2.81-1.53,4-2.3,9.05-2.27,13.2.02,2.06-2.73,1.69-4.37,1.8-2.17.15-2.4,2.44-4.62,3-4.09,1.04-7.99,6.17-11.02,9.13-2.4,2.35-2.09-.28-4.25-.35-2.92-.24-5.79-.81-8.61-1.58-2.38-.65-4.88-.86-7.37-.97-1.4.08-2.74.48-4.16.32-.97.07-1.62-.59-2.56-.64-.08,1.77-1.82,2.12-3.19,2.55-.59,1.97-2.06,4.34-1.47,6.17.45,1.41-.06,3.68-1.73,4.03-.6,2.09-2.22,3.8-3.06,5.81-1.71,4.04-2.95,7.7-5.54,11.3-.63.88-1.35,1.73-2.26,2.33-.08.64-.14,1.49-.68,1.96-1.3,1.13-2.56-.74-1.88-1.96-1.95.23-1.89,1.97-4.09,1.53-1.83-.37-1.25-1.72-1.54-3.25-.86-4.61-1.44.87-2.68-.83.74-1.16,1.04-2.46.96-3.83-1.42-.05-1.86,1.5-3.2,1.59.14-2.36-1.26-3.61-.44-6.07.54-1.58,1.87-2.59,2.41-4.17,1.02-2.99-2.18-1.14-3.25-.6-.07.45-1.55,2.03-2,2.16-.59.17-.58-2.92-.56-3.12,1.17,0,2.19-.47,2.92-1.4.87-1.11,2.62-4.24.37-4.91-1.33-.4,3.92-4.12,4.65-4.63,1.53-1.07,5.75-4.14,7.74-3.43,1.86.66,2.67-.16,4.7,1.23,1.87,1.28,4.93,4.02,7.2,3.67,2.35-.37,2.69-1.99-.09-2.32-.66-1.76-3.89-2.43-5.17-3.7-1.12-1.13.12-2.3-1.31-2.9-1.45-.61-.64-2.34-.57-3.5.17-2.87-.31-5.78-1.54-8.39-1.06-2.25-3.35-3.83-4.23-6.01-1.21-3.02-4.35-1.9-6.99-2.27-4.43,1.46-6.52,7.85-7.57,12.03-.74,2.95-1.06,5.98-1.08,9.01-.01,2.24,1.25,2.75,2.89,4.14-.81.44-1.47,1.08-2.23,1.59-.7.03-2-.28-2.56.32-1.14,1.48-1.28,3.58-1.42,5.37-.32,4.21-1.16,8.84-.27,13,1.49,7,5.79,15.92,13.67,17.23,1.11.19,2.53,1.5,3.65.99,1.58-.72,2.45-1.19,1.27,1.15-1.43,2.82-1.17,8.77.44,11.28.98,1.54,3.3,3.07,5.21,2.38,1.35-.49,4.45,1.33,5.88,1.66,2.42.56,4.9.8,7.37.82,2.01.62,4.03,1.18,6.08,1.64,4.23.95,9.13.15,13.22-1.18,3.22-1.05,7.14-1.92,9.96-3.8,2.54-1.69,6.36-5.01,7.52-7.8.81-1.92,1.85-3.62,1.9-5.76,1.62-.27,3.02-1.06,4.21-2.17,2.89-2.7,5.18-6.2,8.83-7.77,3.12-1.34,5.82-3.48,7.83-6.21,2.02-2.73,4.05-6.54,4.05-9.99,0-2.17,1.71-3.34,1.67-5.6-.02-1.36-.63-2.55-.94-3.83-.03-.1-.06-.24-.09-.44.03.15.06.3.09.44.22.78.28-.81-.01-.55.74-1.06,1.98-.57,2.45-2.03.41-1.27.65-2.59.67-3.92-.43-2.95-.75-5.92-1.28-8.85ZM12.03,18.89c-.41-.98,1.29-2.13,1.93-2.47.3-.16,1.09-1.59.18-1.48-.37.21-.77.33-1.19.37.21-.9,1.32-.86,1.75-1.57.95-1.53-1.28-.71-1.73-.5-.95.45-1.38.29-1.8,1.41-.21.55-.43,1.17-1.1,1.3.82-2.71,1.29-4.45,3.47-6.19,1.96-1.57,3.11-.78,5.2-.47,3.65.55,4.41,5.77,4.47,9.55.03.21.03.85-.04,2.21-.6.48-.46,1.37-.96,1.91-.8.04-1.59.11-2.38.22-1.42.21-2.81.55-4.15,1.05-2.4.89-4.57,2.25-6.57,3.83-1.99-3.09,4.04-6.45,2.91-9.17ZM70.95,66.9c-.82,1.08-1.43,1.77-1.09,3.24-.03,1.12-.79-.06-1.37-.12-1.96-.19-2.54,2.01-2.44,3.46.1,1.65.07,1.28-1.37,2.22-.55.37-1.11.72-1.68,1.07-1.46.89-2.99,1.69-4.61,2.27-4.25,1.5-8.45.83-12.83.67-1.53.42-1.42-2.83-3.76-1.36-1.35.85-3.25,0-4.68-.3-2.45-.5-2.35-1.25-2.78-3.54-.3-1.52-.82-2.47-1.84-.9-.47.72-2.19.58-2.29,1.31-.96-1.63,2.03-5.42-.32-5.42.03.38-.46.2,0,0-.34.14-.04-.75.03-.62-.04-1.68-1.49-2.25-2.94-1.08-1.4,1.13-2.1,2.85-3.17,4.25-1.25-.57,1.52-7.64,1.75-8.78.59-2.94,2.2-5.59,3.5-8.47,3.35-7.39,7.01-14.62,10.3-22.06.6-1.37.58-2.24,2.02-2.68.48-.15,2.1-.85,2.5-.19.94,1.52.99,2.01,2.95,1.98,3.69-.07,7.7-.1,11.19,1.3,1.42.34,1.92-.79,3.32.59,1,.99,1.52,2.34,2.27,3.51,2.04,3.18,3.82,6.86,4.98,10.46,1.41,4.42,2.86,9.3,2.86,13.93,0,1.57.51,3.9-.51,5.24ZM95.43,45.57s0,.02,0,.03c0,0,0,0-.01,0-.17.28-.27.47-.23.52-.22-.28-.14-.45.23-.52,0,0,0,0,0,0-.93.05.24-1.64.01-.02,0,0,0,0,0,0,.23-1.54,1.09-2.89,1.28-4.44,1.2.77-.59,3.31-1.28,4.44ZM94.15,43.68c-1.29,0-2.17-.91-3.52-.64-1.41.72-1.71,2.21-.78,3.46,1.79,2.41-2.69,5.8-3.1,4.82-.76-1.78-3.52-1.07-3.99.77-.34,1.31.44,1.54-.96,1.82-.44.09-.79.31-1.06.67-.55.74-1.21,2.38-.87,3.28.4,1.07,2.33,1.22,1.55,2.5-.64,1.06-2.1,1.27-2.61,2.45-1.03-.63-.11-3.9-2-3-1.47.69-1.24,2.97-1.19,4.28-1.24.27-.96-4.88-.96-5.42-.41-3.2-1.05-6.36-1.98-9.45-1.53-5.16-3.85-10.07-6.97-14.46,4.94-2.94,9.08-7.05,11.83-12.11,1.85-.33,3.69-.66,5.57-.83,2.66-.24,3.38.65,5.24,2.48,1.54,1.52,2.98,3,4.62,4.42,1.52,1.32,3.68,2.64,3.72,4.68.04,1.75.43,3.45.66,5.18-.77,1.86-1.84,3.6-3.19,5.1ZM98.63,28.06c.97-1.18,1.07.97,0,0h0ZM101.42,21.42c-.08,1.33-.23,2.73-.78,3.96-.61,1.38-2.59,1.22-3.94,1.32-2.35.18-2.87-2.08-4.39-3.5-.76-.71-.81-1.84-1.63-2.61-.77-.72-1.64-1.36-1.96-2.42.59-3.47.68-7.01.96-10.52,2.51-3.17,7.42-6.42,9.85-1.12,1.85,4.02,2.16,10.53,1.89,14.88ZM95.42,45.59s0,0,.01,0c0,0,0-.01,0-.02,0,0,0,.01-.01.02ZM23.18,21.05c.03-.62.05-1.39.04-2.21-.09-.62-.44,2.53-.04,2.21ZM29.93,68.88c0,.19,0,.39-.03.62.06-.4.06-.57.03-.62ZM82.32,30.61s-.03.08-.03.13c0,.07.02.06.03-.13ZM79.97,30.79c-.06,1.49,2.09,1.37,2.32-.05,0-.07-.02-.21-.02-.37-.28-1.44-2.24-1.05-2.3.43ZM82.27,30.36c.02.08.05.15.05.24-.05-1.21-.06-.7-.05-.24ZM74.35,35.69c-.74,0-1.1.47-.97,1.3,1.28.43,1.7,0,1.28-1.28,0,.37-.73,0-.3-.02ZM74.35,35.69c.1,0,.2,0,.3.02-.14-.02-.23-.03-.3-.02ZM46.84,36.35c-2.94.99-1.01,7.14,2.3,5.13,2.57-1.57.75-7.19-2.3-5.13ZM46.84,36.35c1.03-.7-1.35.46,0,0h0ZM94.79,36.03c-.55-.11-.82-.1-.91-.04.27-.03.58-.03.91.04ZM93.87,35.99c-2.1.27-2.34,3.26-.12,4.18.99.41,2.96.44,2.75-1.15-.15-1.18-1.29-1.93-1.72-2.99.4,1.01-1.24.17-.91-.04ZM77.82,41.52c.27.15-.41.43-.29-.07-.18.82-1.45,2.32.69,1.88,1.29-.26.44-1.51-.4-1.82ZM60.55,42.27c.22.02.44.06.67.13-.33-.11-.54-.14-.67-.13ZM60.55,42.27c-2.6-.27-4.78,2.72-2.49,4.83,1.1,1.01,2.81.98,3.84-.12,1.21-1.29-.29-3.09-.68-4.57.3,1.13-1.35-.1-.67-.13ZM37.58,44.81c-2.12-.18-3.7,3.21-1.33,4.14,2.7,1.07,2.6-2.34,1.96-4,.32.83-.8,0-.63-.15ZM37.58,44.81c.21.02.41.06.63.15-.39-.17-.57-.19-.63-.15ZM46.84,53.56c-.11.01-.21.02-.32.02.07,0,.17,0,.32-.02ZM44.61,49.88c-1.92,1.86-.19,3.77,1.9,3.7-.41-.02.6-.39.32-.02.87-1.15,1.32-2.15.28-3.46-.62-.77-1.77-.93-2.5-.22ZM40.44,50.37c.32,0,0,.32,0,0,0,1.79,1.11.87.96,0h-.96ZM59.94,77.79c.89-2.04-.51-4.32-.64-6.38-4.12-.47-3.1,7.29.64,6.38ZM52.98,79.52c-.12.08-.25.14-.39.18.62-.19.6-.22.39-.18ZM51.42,74.73c-2.36.74-1.73,4.92.76,4.99.12-.05.58-.16.81-.2,1.74-1.13.86-5.55-1.57-4.79ZM52.6,79.7c-.15.02-.28.02-.42.02-.09.04-.01.05.42-.02Z"/>
    </g>
  </g>
</svg>