<?xml version="1.0" encoding="UTF-8"?>
<svg id="Layer_2" data-name="Layer 2" xmlns="http://www.w3.org/2000/svg" viewBox="0 0 107.36 90.76">
  <defs>
    <style>
      .cls-1 {
        fill-rule: evenodd;
      }
    </style>
  </defs>
  <g id="food_icons" data-name="food icons">
    <g id="cucumber">
      <path class="cls-1" d="M50.17,72.83c-.02.1-.03.21-.02.33.1.02.21.02.31,0,.32-.11-.17-.73-.29-.34ZM56.3,69.46c-.06.2-.02.38.25.51.02-.37-.13-.5-.25-.51ZM14.99,62.96c-.12.2-.25.37-.4.54.02.03.12-.08.4-.54ZM96.82.16c-.02-.2-.21,0,0,0h0ZM44.08,76.35s-.06.08-.11.12c.01.03.04.01.11-.12ZM61.86,61.33s.06.03.12.04c0-.07-.05-.07-.12-.04ZM104.22,2.72c-.84-.91-7.5-3.37-7.4-2.56-1.75,0-3.87,1.43-5.5,2.07-2.16.85-3.98,1.61-5.9,2.9-3.23,2.17-6.56,4.2-9.7,6.5-3.13,1.82-5.67,4.27-8.98,5.87-3.02,1.45-5.76,2.93-8.54,4.84-1.34.92-2.54,2.08-3.79,3-.68.5-2.7,2.11-2.99,2.87-3.02,2.47-6.09,4.35-9.59,6.06-4.49,5.14-9.53,9.72-14.86,13.99-2.09,1.68-4.23,3.31-6.09,5.25-1.56,1.62-3.93,1.26-5.26,3.04-2.66,3.54-6.2,6.41-9.04,9.82-1.68,2.02-2.81,4.27-4.48,6.23-1.32,1.55-2.35,3.7-2.05,5.77.52,3.62,2.96,7.94,6.26,9.54,1.99.97,3.73,1.99,5.89,2.54,2.05.51,4.7.25,6.94.25,2.13-.57,4.26-1.16,6.43-1.58,2.27-.44,5.09-.12,7.04-1.28,2.41-1.43,5.02-2.51,7.3-4.15,1.84.21,3.05-1.18,4.79-1.27,4.48-2.26,8.71-4.97,12.93-7.67,2.45-1.57,4.9-3.14,7.4-4.61,2.17-1.27,4.69-2.24,6.58-3.89,3.86-3.4,7.53-7.06,10.73-11.05,2.7-3.37,6.81-6.27,9.01-9.84.81-1.31,2.16-2.29,3.01-3.63,1.12-1.76,2.15-3.5,3.24-5.33,2.44-4.11,4.74-8.4,6.84-12.72,1.86-3.83,2.3-7.32,2.76-11.54.47-4.21-.18-6.33-2.99-9.4ZM36.32,79.94c.52.93-2.73,1.84-3.43,1.83.75-1.52,2.33-1.76,1.92-3.82.56.04,1.74-.9,2.1-.54,0,0-.97,1.86-.59,2.54ZM42.48,77.94c-.79-.63,1-1.08,1.49-1.48-.04-.11.17-.88.11-.12.07-.88.69-1.43.96-2.23,2.54,1.9-.69,2.68-2.56,3.82ZM50.46,73.17c-.07.02-.16.03-.31,0-.01-.15,0-.25.02-.33.15-.73.94-1.08.94-1.91,1.42.1.42,2.1-.65,2.24ZM52.71,67.42c-.17-.17.23-.41.32-.32.16.17-.23.41-.32.32ZM56.55,69.97c-.55-.26-.43-.52-.25-.51.12-.43.7-.97.57-1.4,2.3-.4-.3,1.71-.32,1.91ZM61.28,61.94c-.93,1.34-2.32,2.96-3.13,4.53-1.74-.8,2.1-4.87,3.62-5.08.04-.03.06-.04.09-.05-.15-.1.09-.29.12.04-.06,0-.14,0-.21.01-.14.1-.32.3-.49.56ZM99.02,24.04c-.92,2.5-2.17,4.86-3.35,7.25-.59,1.19-1.16,2.39-1.67,3.62-.59,1.44-.9.73-2.18,1.27-5.13,2.19-7.55,7.77-10.23,12.22-1.78,2.96-3.77,4.96-6.23,7.41-1.11,1.11-4.17,5.23-5.71,5.23-.01-.11,1.77-3.5,1.92-4.78-2.3-1.04-3.69,2.79-4.59,4.11-1.16,1.68-2.91,1.91-.84,3.54-1.16,1.31-2.87,1.99-4.48,2.55.41-.66,3.3-4.73,1.92-5.42.15-.14,2.63-2.42,1.35-2.57-1-.12-2.86,1.17-3.79,1.64-1.62.81-3.96,1.86-5.22,3.16-1.13.5-2.28,1.06-3.19,1.91-1.07-.14-1.78.4-2.63.97-.61.41-2.61,2.55-3.33,2.22-.38-.17-.26-.71-.61-.92-.87-.54-1.98.89-2.32,1.47-.61,1.06-1.32.24-2.38,1.29-.88.88-1.41,2.03-2.01,3.1-.63,1.12-1.62,1.31-2.73,1.9-1.15.62-2.3.98-3.09,2.05-.43.59-.91,1-1.69.99-.82,1.08-1.79,2.05-2.88,2.87-.19.44.51,1.19.28,1.48-.24.29-1.6.41-1.35-.32.37-1.12-.32-1.21-.52-2.11-2.26-.17-3.21,1.53-5.11,2.23-.32-2.82-2.78-.31-3.66.91-.55.77-1.75,1.12-1.44,2.18.48,1.59-1.12,1.05-2.25,1.05.7-1.03,5.34-7.04.72-5.02-1.58.69-4.7,2.73-4.24,4.7-3.77-.6-8.91-8.02-6.2-11.6,1.65-2.19,3.02-4.8,5.11-6.64.63-.56,1.21-1.25,1.41-2.16.89-.83,2.02-1.4,2.8-2.33-.03-.06.24-.58.4-.54-2.12-.61,1.93-3.18,2.59-3.65,2.12-1.51,4.61-2.34,6.63-4.16,2.47-2.22,4.49-4.43,7.23-6.32,2.62-1.82,5.16-3.77,7.47-5.98,1.55-1.48,3.35-4.43,5.65-4.43,1.95,0,4.92-4.34,6.55-5.64,2.1-1.67,4.39-3.76,6.74-5.06,1.78-.98,3.64-3.57,5.73-3.96-.6,1.34-1.22,4.22.96,4.46,1.59-.24,2.42-3.39,2.53-4.67.04-.45-.85-4.4,1.35-2.7,2.14,1.66,3.32-1.35,4.35-2.9,2.66-4,8.99-4.88,12.86-7.34.5-.32,1.61-1.18,2.24-.56,1.17-.87,2.63-1.27,4.02-1.63,2.15-.56,5.1-1.82,6.98-.25,2.27,1.88.18,5.12,1.31,7.31,1.21,2.34-.29,6.22-1.16,8.58ZM62.62,61.05c0-.31.39-.25.64-.32,0,.31-.39.25-.64.32ZM34.81,77.94c.47,2.39.79.05,0,0h0ZM6.68,24.71c.17-3,4.69-6.54,7.32-7.37,3.94-1.23,9.04-1.3,12.11,1.67,3.32,3.21,4.01,7.7,2.7,12.03-1.05,3.51-3.95,8.42-8,8.83-3.75.38-8.97-.85-11.33-3.94-1.2-1.58-2.11-3.2-3.17-4.81-.8-1.23-1.28-3.35-2.53-4.18.66.44.32,3.21.12,2.42.69,7.01,4.64,12.86,12.09,14.25,2.19.41,4.44.43,6.65.23.33-.29,2.92-1.54,3.19-1.06.63,1.14,3.48-2.24,4.25-2.84.96-.77,1.97-1.48,3-2.14,1.2-.77,1.1-1.29,2.01-2.26,2.85-3,4.55-8.34,5.13-12.42,0-4.04,1.29-10.6-1.3-13.96-1.35-1.74-2.89-3.35-4.77-4.53h-7.94c-3.41,0-7.57,2.86-10.46,4.6-4.17,2.51-8.77,5.98-11.49,10.06-1.19,1.79-2.34,3.66-1.34,5.86,1.17,2.56,2.5.79,3.74-.43ZM24.5,8.37c1.89-.97,4.29-.56,6.41-.56,3.81,0,5.24,3.81,5.41,6.99.19,3.82.09,7.36-.87,10.98-.39,1.47-1.03,2.8-1.53,4.24-.15.43-.69,1.06-.97,1.43-.02.08-.03.17-.05.27-.07.03-.09.02-.09-.02-.16-.17.26-1.36.23-.82,1.74-10.25-3.75-19.33-14.84-19.25,1.99-1.31,4.21-2.18,6.31-3.27ZM32.8,31.7s.05.03.09.02c.02-.08.02-.17.04-.25-.09.12-.13.2-.13.24ZM3.92,29.36c-.08-.79-.12-1.6-.12-2.42-.01,1.42.05,2.14.12,2.42ZM32.93,31.47s0-.01.01-.02c.05-.27.08-.46.08-.57-.03.19-.06.39-.1.58ZM86.02,18.3c-.11.12-.24.24-.39.34.19-.14.31-.25.39-.34ZM86.02,18.3c1.7-1.8-.03-4.78-2.37-4.69-2.42.09-4.27,1.88-4.88,4.14-.4,1.51,1.03,3.36,2.7,2.49,1-.99-.53-1.97.53-2.91,2.59-2.3,2.11-.41,3.62,1.32-.51-.59.89-.93.39-.34ZM21.52,20.74c.18.27.27.26-.14-.82.07.2.12.48.14.82ZM21.38,19.92c-1.81-1.6-3.23,1.08-3.73,2.29-.8,1.96-.64,2.48.67,3.63,2.25,1.98,3.34-2.83,3.21-5.11-.23-.36-.61-1.23-.14-.82ZM89.78,24.08c-1.51-.31-5.16.43-4.75,2.79.47,2.71,2.73-.39,3.42-.89.53-.39,2.19-.69,2.3.32.23.92-.67,1.16-.67,1.94.04-.68,1.23.12.35.26,2.8-.25,1.46-3.99-.66-4.43ZM16.25,27.53c.23.09.45.21.65.36-.36-.28-.56-.37-.65-.36ZM12.11,31.72c1.74.42,4.68-1.43,4.81-3.36-.13.47-.99-.79-.67-.83-2.53-1.03-6.67,1.47-4.14,4.19ZM16.91,27.89c.02.12.03.25.03.37,0-.09,0-.2-.03-.37ZM22.34,33.31c-.23-.07-.44-.21-.65-.37-.29-.05-.37.03.65.37ZM22.34,33.31c.08-.55,1-.16,1.31-.89.27-.64.25-1.36.08-2.02-.27-1.04-.96-2.16-2-2.59-3.15-1.3-2.06,3.61-.04,5.13.26.04.68.19.65.37ZM57.83,40.01c.51-.09-.53,1.17,0,0-.51,1.12-1.27,2.11-2.24,2.87,2.92,3.94,4.71-3.3,2.24-2.87ZM81.34,43.13c.05.12.11.24.15.38-.07-.26-.12-.36-.15-.38ZM81.34,43.13c-1.22-2.91-6.4-2.24-5.34.09.85,1.85,1.42-.91,2.29-.67,1.26.45,1.77,1.24,1.28,2.55,1.16.21,1.69-.41,1.88-1.41-.11.39-.21-.62-.11-.56ZM65.5,44.79c-.35.15.23-.42.22-.32,1.23-2.04-1.8-3.23-3.1-1.59-.2-2.96-4.56,2.43-4.86,2.91-.93,1.51-1.93,1.55-3.15,2.6-.86.75-1.3,1.84-1.9,2.77-1.16-2.63-3.71,3.2-3.87,3.73-.58,1.96-3.16,2.28-3.16,4.56,1.28-.19,1.63-1.68,2.87-1.91-.17,2.09,2.42.14,2.87-.58,1.11-1.77,1.43-2.44,3.36-3.56,4.33-2.51,8.41-5.44,12-8.93-.22-.01-1.98.62-1.28.32ZM61.98,47.34c-.24-.15-.27-.29-.23-.39-.05-.58.83-1.39.87-1.84.74,0,1.13.51,1.92.32-.53,1.03-1.95.96-2.56,1.91ZM61.74,46.95c.01.15.07.28.23.39.41-.64-.15-.63-.23-.39ZM65.72,44.46c-.06.11-.13.21-.22.32.16-.2.22-.29.22-.32ZM70.15,50.19c-2.25-.28-2.57,2.2-3.06,3.85.28-.93.86.45.84.87,1.65,1.09,4.44.48,4.91-1.62.42-1.85-.98-2.88-2.68-3.1ZM69.33,51.8c.39.14.66.41.64.96-1.11.28-1.1-.49-.64-.96ZM67.09,54.03c.6,1.04.82,1.12.84.87-.33-.22-.62-.51-.84-.87ZM45.35,53.02s0,.04,0,.06c0-.33,0-.26,0-.06ZM40.78,53.83c.96,1.27,4.43,1.29,4.57-.69,0-.04,0-.08,0-.12,0-3.91-5.79-.79-4.57.81ZM45.36,53.08s0,.04,0,.06c-.02.49-.03,1.31,0-.06ZM18.5,60.73c.47-.2-.03-.39,0,0h0ZM18.5,60.73c-.46.2.03.39,0,0h0ZM14.99,62.96c.46-.2-.03-.38,0,0h0ZM29.69,67.1c-.3-1.16-.1.74,0,0h0ZM31.68,63.31c-1.69-1.15-3.75-.51-4.9,1.14-.87,1.25,1.16,2.48,2.27,2.33.2-.84-.84-.76-.64-1.59.65-.3,1.53-.4,2.14.07,1.55,1.2-1.12.84-.86,1.84-.25,1.88,3.02.15,3.52,0,.2-1.5-.04-2.77-1.53-3.79ZM16.91,69.02c.1,1.48,1.8.21,2.24,0-.09.05-.06-.29.01-.64-.24-1.83-2.97-3.14-4.2-1.4-1.05,1.49.45,2.67,1.95,2.04ZM19.15,69.02c.43-2.15.15-1.36.01-.64.03.21.03.42-.01.64ZM22.26,73.41c-.76-4.03-7.27-2.51-6.56,1.76.31,1.83,1.6,2.79,3.44,2.77.59-.48,2.09-1.37,1.59-2.4-.14-.29-.85-.56-.87-.88-.02-.38,1.62.07,2.28-.13-.22-.08,0-1.15.12-1.13ZM22.34,74.43c.03-.76-.01-1.02-.08-1.03.06.31.09.65.08,1.03ZM22.34,74.43s-.12.08-.2.1c.05.02.11-.01.2-.1ZM31.63,75.04c-1.14-1.01-2.98-1.35-4.41-.8-1.67.64-2.38,2.76-.51,3.72.29.15,3.14.46,2.35-.5-.3-.36-.95,0-.65-.79,1.84-.18.71,2.63,3.51,1.59-.9.34-.24-.98,0,0-.3-1.24,1.39-1.73-.3-3.22Z"/>
    </g>
  </g>
</svg>