<?xml version="1.0" encoding="UTF-8"?>
<svg id="Layer_2" data-name="Layer 2" xmlns="http://www.w3.org/2000/svg" viewBox="0 0 90.47 88.94">
  <defs>
    <style>
      .cls-1 {
        fill-rule: evenodd;
      }
    </style>
  </defs>
  <g id="food_icons" data-name="food icons">
    <g id="cupcakes">
      <path class="cls-1" d="M90.15,33.15c-.89-.6-1.07-1.91-2.88-1.59-.9.49-.98,1.79-1.6,2.55v3.19c-.89,2.19-.63,5.53-2.55,6.69-.26.06-.32.32-.64.32-3.48.29-5.81-.58-8.63-.96-.9-1.12-2.45-1.6-4.15-1.91-1.46.15-2.62.57-4.16.64-3.7,2.26-9.05,2.88-13.11,4.78-2.47-1.29-3.93.56-7.03.32-3.68-2.38-5.71-6.41-11.18-7.01.12-1.05,1.7-.64,1.6-1.91-1.19-.66-1.58.55-2.88.64-.69.59-.68,1.88-2.24,1.59.61-.99,1.73-2.08.96-3.51-1.36-.74-2.51.12-3.52.64.11-.64-.07-1-.64-.96-2.03.64-2.89,2.43-4.48,3.51-1.27,1.29-1.94,3.17-3.83,3.83.71-2.27,3.63-2.33,3.19-5.74h-2.55c-1.47.55-1.96,2.09-3.51,2.55-.69,1.15-2.08,2.48-3.83,1.59.64-1.45,2.75-2.9,1.6-5.1-1.62-.24-1.98.79-2.88,1.27-.18.46-.5.78-.96.96.24.52-.64,1.39-.64.64.67-1.13,1.24-2.38,2.24-3.19.27-1.53,1.97-1.65,1.6-3.83-2.97-1.11-3.9,2.16-5.43,3.51-.08.25-.01.63-.32.64.03.39-.47.2,0,0,.07-.25,0-.63.32-.64.15-1.87,1.34-2.7,1.28-4.78-.76-.1-.6-1.11-1.6-.96-.48,0-1.31,1.18-1.6.32.69-1.01,2.17-1.24,2.24-2.87.13-1.51-.57-2.19-.32-3.82.39-1.2,1.23-1.96,1.92-2.87,1.09-.51,1.18-2.01,2.56-2.23.29-.56.11-1.59.64-1.91,1.37-.87,3.22-1.25,4.79-1.91,1.49-.75,2.69-1.78,4.47-2.23,3.53-.12,6.68.14,9.59.64.96.85,2.19,1.43,3.84,1.59.51,2.14,1.54,3.77,3.51,4.46.57.04.67-.39,1.28-.32.02-.19.05-.38.32-.32.02-.2.04-.38.32-.32.8-1.01,2.42-1.2,2.24-3.19-2.59-1.65-3.94,3.15-6.08.95,1.71-1.16,4.42-1.33,4.79-3.82-1.15-1.13-2.3-.16-3.83,0,.06-1.11,1.13-1.21,1.28-2.23.23-.7,1.5-1.06.64-1.91-1.19.2-1.87.9-2.88,1.28-.92.05-1.89,1.7-2.55.96,2.17-1.24,4.18-2.63,7.03-3.19,1.55.26,1.46,2.16,3.52,1.91,1.84-.19,2.23-1.82,3.84-2.23.04-.59.21-1.07.64-1.28.18-.46-.37-1.65.32-1.59,2.75-.66,5.84-.98,9.27-.96,3.38,1.09,7.29,1.66,9.27,4.15,1.59.65,2.55,1.92,3.83,2.87,1.21.93,2.27,1.99,3.2,3.19,1.98,2.6,3.17,5.98,4.48,9.24.52,1.82,1.11,3.57,1.6,5.42.17,1,.56,1.78.96,2.55-.16,1.22,1.13,1,1.6,1.59,1.24-.04,1.61-.94,2.24-1.59-.18-4.29-1.75-7.18-2.56-10.84-.93-1.3-1.11-3.35-2.24-4.46-.34-1.89-1.68-2.78-2.24-4.46-1.58-1.09-2.59-2.74-4.16-3.82-1.5-1.05-2.68-2.43-4.47-3.19C68.5,1.82,64.14,1.07,60.1,0c-4.6-.02-8.56.61-12.15,1.59-2.17-.38-4.67-.86-6.39,0-.2,1.08-.92,1.64-.64,3.19-3.05.58-5.04,2.2-7.36,3.51-.75.42-.31,2.02-1.6,1.91-3.28-.53-7.89-.43-11.18,0-3.06,2.27-7.23,3.42-10.55,5.42-.75,0-.94.55-1.92.32-2.24,2.45-5.11,4.25-5.75,8.29-.13,1.51.1,2.66.32,3.83C1.26,30.47.14,33.4,0,37.3c.38,6.74,4.53,9.72,8.63,12.75,1.06.01,1.59.54,2.88.32,1.15-.02,1.55-.79,2.56-.96,1.88.67,4.43.68,6.71.96,5.37-.7,8.31-3.82,15.02-3.19,2.67,1.47,4.9,3.4,7.35,5.1.45-.03.9-.05.96.32,1.9-.19,2.85.56,4.79.32.37-.27.86-.42,1.6-.32,4.11-3.77,11.83-3.93,17.58-6.06.97.2,2.75-.41,3.2.32.52-.48,2.35-.48,2.87,0-2.48,5.5-2.91,13.04-4.47,19.45-.96,3.08-1.72,6.36-2.88,9.24-.46,1.56-.9,3.14-1.28,4.78-.39.57-.06,1.85-.64,2.23-.06.9.27,2.19-.64,2.23.23-.87-1.51.23-1.27-.64.23-.73,1.82-.1,1.6-1.28-1.73-.72-4.23-.68-6.4-.96-.24.3-.58.48-.96.64.11.64-.06,1-.64.96-2.77.21-5.01-.11-6.71-.96-1.27.12-3.06-.29-3.83.32.05-1.12-1.08-1.05-1.28-1.91.37-.78,1.8-1.55.96-2.55-1.49-.1-2.13.63-3.52.64.1-.83-.11-1.37-.95-1.27-1.58.02-1.93,1.26-3.2,1.59-.98.51-1.29,1.69-2.56,1.91.29-1.3,1.51-1.68,1.6-3.19.83-.84-.51-.25-.32-1.28.94-.77,1.11,1.26,2.88.64,1.26-1.47.33-4.28.32-6.38.95.22,1.39.95,2.88.64.7-.47,1.49-.85,1.27-2.23-.69-1-2.25.7-2.55,0,.59-1.43,1.91-2.13,1.6-4.46-.61-.63-1.51-.15-2.23,0,.03.39-.47.2,0,0,.52-1.39,1.83-2,1.6-4.14-.47-.47-2.1-.47-2.56,0-.67,0-1.2,1.74-1.6.96.66-2.32,3.02-2.94,2.88-6.06-.6-.63-1.51-.15-2.24,0,.3-.27.69-2.03,0-2.23-.84,1.02-1.94-.08-3.19.64-.17.89-.47,1.66-.64,2.55.53,6.17.81,12.58,1.6,18.49h-2.55c-.44.33-1.6,1.56-1.92.96v-2.23c-.92-.79-.44-2.95-1.27-3.83.18-1.04-.22-1.48-.32-2.23-.55-.19.03-1.51-.64-1.59-.55-2.74-1.29-5.3-2.23-7.65.16-1.86-.85-2.56-.96-4.14-.74-.77-.86.5-1.6.64-.03-1.42-1.84-1.42-2.88-.95-.11-1.49-1-2.19-1.92-2.87-1.48-.31-1.93.41-2.87.64-1.39-.32-1.47.66-2.24.96.95,4.9,3.54,8.16,4.16,13.39.72.77.67,2.3.96,3.51.21,1.17.62,2.14.64,3.51.57,2.3.47,5.27.96,7.65-.03,1.31-.06,2.61.32,3.51.5.46,1.49.42,1.92.96.36.6,1.24.68,1.6,1.28,1.15.13,2.14.41,3.19.64,11.31-.16,20.85.5,30.05.64,1.45.47,3.22.62,4.79.96,1.21-.5,1.7-1.71,3.84-1.27,1.32-1.45,1.85-3.68,2.24-6.06,1.09-1.67,1.11-4.42,2.24-6.06,1.17-4.37,2.35-8.7,3.2-13.39.04-2.83.65-5.09.96-7.65.44-2.43.92-4.81,1.92-6.69,1.77.47,3.78.69,6.07.64.27-.47,1.03-.46,1.59-.64.78-.72,1.31-1.67,2.24-2.23,1.05-3.1,1.84-6.45,2.24-10.2-.44-.41-.31-1.39-.32-2.23ZM24.62,56.74c-.02.19-.05.38-.32.32.03.38-.47.2,0,0,.02-.2.04-.38.32-.32-.31-1.33.96-.07,0,0ZM25.25,61.84c-.79-.13-.02-1.24.64-.96.18.71-.61.45-.64.96ZM27.17,73.32c.1-2.75-.79-4.53-.96-7.01.37-.05.57.07.64.32.63,2.46,1,5.17,1.28,7.97-1.26.51-.11-1.38-.96-1.28ZM64.25,17.85c-.82-.04-1.52-.18-1.92-.64-2.34,0-5.11-.43-5.11,1.91-.04,2.39,2.07,2.62,2.88,4.14,1.75.7,2.05,2.84,4.15,3.19,2.07-.8,4.14-1.61,3.84-4.78-.53-2.02-2.68-2.43-3.84-3.82ZM40.92,19.45c-.02.19-.05.38-.32.32v.64c.05.71.8-.41,1.6,0,.33-.64,1.42-.5,1.28-1.59-1.1-.26-1.23.47-2.24.32-.02.2-.05.38-.32.32ZM21.42,21.36c-.86.21-1.22.91-1.92,1.27-.05.38.06.91-.32.96-.11,2.02.52,3.3,1.27,4.46.89.4,1.58.79,2.56.32.45.93,1.35,1.42,2.88,1.28,1.32-.38,2.18-1.22,2.87-2.23,1.05-.65,2.44-.96,2.56-2.55.23-.97-.33-1.16-.32-1.91-2.35-1.06-4.97-1.84-7.67-2.55-.27.69-1.65.27-1.92.96ZM48.91,33.79c-.23,3.85,1.5,5.74,3.84,7.01,1.29-.31,2.77-.43,3.52-1.27.05-.38-.06-.91.32-.96.17-1.34-.56-1.78-.64-2.87-1.73-1.04-2.88-2.65-5.44-2.87-1-.15-.84.86-1.6.96ZM43.79,42.72h.96c.37-.05.9.05.96-.32h-.96c-.38.05-.9-.05-.96.32ZM55.95,77.46c1.25.19.81-1.31,1.59-1.59,0-1.06,1.04-1.09.96-2.23.57-1.66,1.28-3.19,1.92-4.78,1.08-3.39,2.01-6.92,2.88-10.52v-2.87c.27-.27.87-2.49-.32-2.23h-.64c-.01.41-.41.44-.32.96-.65,1.05-1.17,2.23-1.92,3.19-1.37,5.43-3.28,10.32-4.48,15.94.13,1.36-.31,3.29.32,4.14ZM48.27,65.67v6.06c.14,1.88-.51,4.54,1.28,4.78,1.59-.32,1.47-2.35,1.6-4.14.08-2.1-.02-4.02-.32-5.74-.19-3.52.41-7.84-.32-10.84-.07-.36-.35-.5-.64-.64-.07.46-.52.54-.64.96-.53,0-.18.88-.64.96v6.38c.16,1.01-.57,1.13-.32,2.23Z"/>
    </g>
  </g>
</svg>