<?xml version="1.0" encoding="UTF-8"?>
<svg id="Layer_2" data-name="Layer 2" xmlns="http://www.w3.org/2000/svg" viewBox="0 0 80.91 125">
  <defs>
    <style>
      .cls-1 {
        fill-rule: evenodd;
      }
    </style>
  </defs>
  <g id="food_icons" data-name="food icons">
    <g id="cuttingboard">
      <path class="cls-1" d="M80.2,104.34c-.45-1.94.92-.73.53-2.17-.53-2.5-.76-5.07-1.48-7.53-.63-2.1-.55-4.04-1.19-6.21-.57-1.9-1.1-3.71-1.75-5.61-.12-.34-1.58-3.53-1.17-4.04-.12.06-.24.11-.37.13-.08-.09-.2-.83,0-.87v.31c.45-.06-4.41-20.77-4.85-22.87-.73-3.47-1.88-7.05-3.47-10.23-1.41-2.83-3.06-4.66-5.49-6.63-2.57-2.09-4.58-4.75-8.17-3.69-3.17.94-5.27.55-8.44.02-.97-.16-1.93-.12-2.87.18-.6-.46-1.24-.87-1.89-1.25-1.34-.82-1.49-2.16-1.92-3.6-1.01-3.38-1.62-6.9-1.56-10.43.08-4.16-.09-8.05-1.72-11.99-.63-1.54-1.89-3.12-2.33-4.67-1.15-.44-2.09-1.22-3.08-1.94-4.76-3.43-11.8.68-14.14,5.34-1.64,3.27.29,6.91-.05,10.37.61,1.83,1.07,3.71,1.26,5.63.82,1.27,1.33,2.71,2,4.06,1.18,2.4,4.61,6.43,3.09,9.03-.89,1.52-1.51,3.19-2.56,4.61-.86,1.17-2.35,1.43-3.54,2.24-2.07,1.41-3.63,3.36-5.63,4.85-1.76,1.32-3.94,2.81-4.8,4.83-1.12,2.65-4.2,6.16-3.92,8.81.26,2.45-1.63,7.08-.03,9.8-.1,1.2.03,4.08.94,5.01.17,2.33.78,4.58,1.29,6.85,2.24,10,4.93,20.22,5.93,30.42-.17,2.62.3,5.16.76,7.73.09.49,2.26,3.14,2.85,2.45,1.24-1.47,1.82.12,3.29.78,2.03.9,3.94,1.14,6.13.67,2.18-.47,4.04-1.66,6.21-1.92,2-.24,3.47-.95,5.39-1.44,4.38-1.11,8.59-2.53,13-3.58,3.9-.92,9.76-3.28,13.55-2.2,1.37-.21,2.86.13,4.36-.11,2-.32,3.22-2.05,5.06-2.71,2.76-.36,5.49-.91,8.24-1.28,3.39-.46,2-.41,2.13-2.79,2.03-1.04.75-2.93.41-4.41ZM40.85,36.71c-.66-.18-1.02-.66-1.57-.94.28-.66,1.75.1,1.57.94ZM22.95,118.76c.11-.41.55-.49.63-.94.78.13.02,1.21-.63.94ZM33.63,115.32c0-.3.38-.24.63-.31,0,.31-.39.24-.63.31ZM77.9,104.82c-.12.99-.59,2.29-.54,3.33.06,1.33-1.3,1.1-2.45.55-1.01-.48-2.65.89-3.76,1.24-1.61.49-2.69.36-4.17-.32-1.3-.59-3.58.13-5.05.08-1.93-.07-3.82-.46-5.72-.11-2.09.39-4.16.9-6.24,1.34.53-2.85-2.23-3.37-3.74-1.22-.75,1.06-.09,2.12-1.55,2.37-.96.16-1.94.19-2.88.42,1.13-1.72,2.11-3.15,1.88-5.32-2.76.37-4.86,3.75-4.39,6.26-.95-.07-1.6.58-2.51.63.56-1.22,4.38-7.75.15-6.03-.78.32-3.21,2.86-3.17,3.38-.08-.99,2-2.72,1.14-3.93-1.48.27-2.23,1.46-3.14,2.51-1.69-.74,1.24-3.93-2.41-2.35-1.77.76-2.9,2.34-4.2,3.67-.95.97-1.76,1.33-2.38,2.56-.51,1.01-1.1,2-1.79,2.91-.47.62-2.35,3.58-3.04,3.55.01-.49,1.11-1.98,1.57-1.88.36-1.08.9-2.08,1.47-3.05,1.42-2.41,2.64-4.71,2.61-7.59-.97-.12-2.19,2.01-2.83,1.57.15-.69,1.15-3.15.33-3.64-.47-.28-1.39-.03-1.58.51-1.67-1.02,4.03-7.46-1.57-6.26.35-2.29,2.27-3.61,3.14-5.64,1.41-1.71,2.47-3.66,3.45-5.64,1.96.69.34,2.68.31,4.07,1.4.29,1.44-.88,2.51-1.25,1.03.23,1.53,1.11,2.25,1.77.94.87,2.42,2.09,3.72,2.3.61-.03-.26-1.23-.62-1.25-.05-2.16-4.83-3.05-3.69-5.21,1.35-2.56,3.23-4.59,3.38-7.63-2.17.1-2.78,2.18-3.87,3.66-.68.92-1.18,1.96-1.79,2.92-.71-.16-1.61-.28-1.57-1.25-.45.33-2.29.06-1.76.9.54.85.09.96-.52,1.6-1.33,1.42-3.04,4.12-3.69,5.95-1.06.06.69-2.5-1.36-1.82-.84.28-1.37,1.54-1.92,2.16-.75.86-1.52,5.6-2.69,5.61-.58-3.29.43-6.23,1.77-9.19,1-2.24,3.1-5.84,1.06-8.04-2.79,1.36-3.25,4.98-4.4,7.51-1.72-.86,2.81-5.63,1.67-6.26-1.18-.65.93-8.72.84-10.34-1.62.86-1.42,3.92-1.9,5.44-.78,2.43-.97,5.18-1.55,7.72-.97-1.13-.76-2.92-1.22-4.27-.48-1.43.32-.83,1.44-1.31,1-.43,1.64-6.12,1.82-7.3.14-.96.68-3.19-.18-3.91-.7-.59-1.69-.6-2.18.24-1.03,1.79-1.73,4.08-1.88,6.21-1.85-1.12,1.26-4.5.94-4.69-.6-.38.02-1.12,0,0,.02-1,.49-1.85.62-2.82-.42-.33-1.55.33-2.2,0-.31-.81-.79-1.24-.63-2.19-.44.15-.65.46-.63.94-.83-.63,0-2.07-.62-2.82,0-4.19-.28-8.7,1.71-12.46.98-1.85,3.53-2.76,5.41-3.66,2.22-1.06,4.28-2.62,6.38-3.92,2.32-1.6,3.93-3.65,4.94-6.16,1.16-2.87,1.27-4.32.53-7.33-.54-2.22-.69-5.34-1.97-7.24-1.4-2.08-1.6-3.82-2.18-6.24-.75-3.1-4.73-8.85-2-11.61,2.04-2.05,4.77-2.91,7.59-3.39.96-.08,2.12,2.21,3.14,2.51.86,1.92,1.34,3.98,1.63,6.06.7,4.83.17,9.86,1.14,14.63.59,2.93,1.23,5.85,1.94,8.75.35.93,1.36,1.26,2.2,1.57.4.85,1.26,1.25,1.88,1.88,3.54,1.12,8.73,1.14,12.19-.27,3.78-1.54,9.36,2.08,11.05,5.59,1.2.82,1.81,3.26,2.3,4.55.88,2.3,1.71,4.6,2.09,7.04,1.33,5.33,2.17,10.78,3.73,16.06.49,1.68.42.85,1.3,1.79.28,1.13.52,2.26.78,3.39.32,1.44,1.63,4.13.88,5.46-.54.95,1.09,5.06,1.33,6.22.37,1.8.78,3.71,1.83,5.25.98,1.44.6,3.4,1.44,4.91.43.79.99,1.35.96,2.33-.68.59-.38-.09-.94-.31-.2,1.11.77,2.02.62,3.28ZM79.47,107.49c.06-.36.32-.17.32,0-.06.36-.32.17-.32,0ZM74.76,78.36c.37-.05,0-.1,0,0h0ZM28.29,13.23c-.46.54-.18-.58.05-1.19-.35-2.7-3.72-5.05-5.7-2.26.13,3.71,2.12,7.59,5.65,3.45ZM28.29,13.23c.43-1.85.26-1.73.05-1.19.05.39.04.79-.05,1.19ZM43.51,58.42c.84.8-1.71,4.72-2.34,5.86,1.56-.62,2.17-2.26,3.04-3.54.32-.46.79-1.42,1.44-.99.29.18.94.82,1.17.15-1.29-1.65-.57-2.27.31-4.07.45-.23,1.77-3.33.94-3.45.31.04-.77,1.14-.38.53-1.06,1.47-1.97,3.04-3.07,4.48-1.09-1.38-2.32-2.65-4.08-3.13,0,2.12,1.62,2.89,2.97,4.17ZM47.69,52.9c.13-.18.25-.36.38-.53-.19.25-.31.42-.38.53ZM51.21,65.84c.17-1.04,3.92-9.09,2.55-9.07.03.06-.27.35-.5.54-1.58,2.08-5.38,8.59-2.05,8.53ZM53.26,57.31c.19-.25.35-.45.46-.55-.96.9-.78.81-.46.55ZM59.69,81.18c.02.18,0,.37,0,.56.02-.07.03-.23,0-.56ZM23.58,67.72s.09.07.14.11c-.36-.28-.55-.43-.14-.11ZM62.2,96.84c.9.88.24-.28,0,0h0ZM71.5,96.97c-3.08-1.51-6.1-3.12-9.19-4.58-1.35-.63-8.18-2.44-5.95-4.2,1.8-1.43,3.35-4.03,3.34-6.45-.09.27-.49-1.08,0-.56-.92-1-3.32-2.91-4.71-3.13-.4-.87-3.07-2.41-3.95-2.88-1.86-1-4.07-1.8-5.79-3.08-2.02-.51-3.28-2.4-5.34-2.82-1.12-1.56-4.11-2.93-5.86-3.55-2.79-.97-5.41-2.08-8.27-2.81-4.41-1.11-9.46-2.99-13.81-1.79-.14-1.57-3.6.5-1.67,1.68.92.56,1.1,1.23,2.3,1.77.01,3.04,6.96,6.07,9.11,7.52,6.1,4.11,12.51,7.98,18.09,12.77,3.06,2.62,6.53,4.88,9.42,7.67,2.83,2.73,5.85,5.56,8.93,8,1.36,1.08,2.29,2.39,3.76,3.5.67,1.32,2.31,1.64,3.14,2.82,1.39-.11,2.47.63,3.89.12.7-.25,2.87-1.24,3.03-2-.9.12-2.56.81-3.14-.31.68.08,3.9-.92,3.77-1.88,1.42.93,1.06-1.42.93-2.29-.23-1.58-.58-2.84-2-3.54ZM51.52,86.51c-.89-2.33-6.93-3.67-8.93-4.94-6.6-4.17-12.73-8.94-18.87-13.74.88.69,2.84,2.22-.14-.11-1.4-1.09-3.05-1.96-4.08-3.45,3.58.95,7.43,1.57,10.68,3.45,2.21.25,6.28,2.05,7.79,3.61,2.27,2.35,6.25,3.68,9.13,5.24,3.2,1.73,6.28,3.61,9.15,5.88-.54,1.85-1.62,3.49-2.2,5.32-1.31.24-1.33-1.31-2.51-1.25ZM54.35,92.14c.05-.36.57-.26.94-.31-.05.37-.58.26-.94.31ZM59.53,95.26c.25-.07-.16-.35-.16.01v-1.25c1.45-.16,1.61,1.2.16,1.24ZM60.95,94.96c-.16-.16.22-.4.31-.31.16.16-.23.4-.31.31ZM66.91,102.79c.09-.7,1.39-.04,1.26-.94.13-1.02-.9-.86-1.26-1.57-1.17.18-3.89-2.65-4.71-3.44.26-.37.37-.79.31-1.25,2.99,1.09,5.92,2.46,8.48,4.39.05,2.29-2.01,3.45-4.08,2.82ZM40.13,88.69c.14-.1.27-.21.41-.31-.22.15-.35.25-.41.31ZM40.13,88.69c-4.23,3.19-8.06,10.24-8.7,15.35,2.68-.75,4.25-5.69,5.71-7.69.45-.61,4.15-7.42,3.46-7.92-.02.13-.67.46-.46.26ZM45.18,93.58c.22-.27.45-.54.69-.81-.38.43-.59.68-.69.81ZM45.87,92.77c.24,0-1.08,1.32-.69.81-1.63,2-2.92,4.24-3.71,6.71,2.95,1.28,4.93-7.5,4.4-7.52Z"/>
    </g>
  </g>
</svg>