<?xml version="1.0" encoding="UTF-8"?>
<svg id="Layer_2" data-name="Layer 2" xmlns="http://www.w3.org/2000/svg" viewBox="0 0 75.43 117.38">
  <defs>
    <style>
      .cls-1 {
        fill-rule: evenodd;
      }
    </style>
  </defs>
  <g id="food_icons" data-name="food icons">
    <g id="dessert">
      <path class="cls-1" d="M71.91,48.46c1.62-2.21,3-4.66,3.52-7.97-.06-.26-.32-.32-.32-.64.23-2.25-1.19-2.85-1.92-4.14-.48-.48-1.34-.57-1.6-1.28-.95,0-1.95.03-1.92-.96.22-2.87-.26-5.06-.96-7.01-3.66-5.19-10.19-9.16-19.5-7.65-1.41.05.03-.78-.32-1.59v-2.23c-.61-.88-.87-2.11-1.6-2.87-1.46-1.31-3.05-2.48-5.44-2.87-5.23.21-8.12,5.64-5.75,10.52-2.86-.3-4.46.66-6.71.96-1.18,1.16-3.02,1.67-3.83,3.19-.61.57-.99,1.35-1.6,1.91-.12.82-.55,2-1.28,1.27-1.42-2.3-2.6-4.85-4.16-7.01-1.68-2.04-2.74-4.71-4.16-7.01-1.5-2.22-2.58-4.87-4.48-6.69C7.87,4.67,7.09,1.73,5.1,0h-1.28C3.21,1.52.59,1.03.3,2.87c-1.02,1.96.81,3.01,1.28,4.46,1.38.75,1.6,2.66,2.88,3.51,1.08,3.07,3.16,5.14,4.16,8.29,1,1.13,1.73,2.53,2.24,4.14,1.2.82,1.78,2.26,2.55,3.51,1.17.97,1.8,2.46,2.88,3.51.76,1.27,1.08,2.96,2.56,3.51.71.8-1,1.12-1.59,1.59-.44.73-1.32,1.02-1.92,1.59-.91,1.44-1.95,2.73-2.24,4.78v.64c.47.6.47,1.66,1.28,1.91.07.46.96.11.96.64.62-.13,1.15.22.64.32-1.69.22-3.32-1.05-3.84.64-2.51,7.63-1.06,18.87,2.56,24.23.64,1.8,2.01,2.88,3.2,4.15,1.47.97,1.92,2.98,3.51,3.82.1,1.18,1.36,1.2,1.92,1.91.33.84,1.48.86,1.92,1.59,1.59.75,3.12,1.56,4.79,2.23,2.71.9,6.59.65,9.59,1.27.04,3.15-.32,6.48-.32,9.88s.36,6.48,0,9.24c-1.97,1.96-3.62,4.25-7.67,4.14-2.3-.38-3.02.81-4.47,1.28-.97.94-2.83,1-2.88,2.87.66.09.07,1.41.96,1.28.27.47.8.68,1.6.64-.05.88.49,1.09.96.64.27.47,1.03.46,1.6.64,2.41.57,5.28.69,7.67,1.27,5.6,1.18,10.72-.75,16.62-.32.76-.52,1.93-.62,2.87-.96.59-.69,1.71-.84,2.24-1.6.69-.39,2-.71,2.56-1.28.57-.58,1.19-1.2.96-2.55-.26-1.33-2.12-2.41-3.52-1.59-2.14.22-3.51-.33-5.44-.32-2.06.14-3.46-.38-4.47-1.28-1.69-.23-1.96-1.87-3.52-2.23-.63-1.58.83-3.56.32-6.06v-7.01c-.63-1.21.08,1.52-.64,1.27.28,1.02-.49,1-.96,1.28,0,1.5.28,3.26-1.28,3.19-.82-2.14-.87-6.09-.32-8.61.64-.95.18-3.01.32-4.46,0-.85-.12-1.82.32-2.23.14-.61.12-1.37.96-1.28,1.07-.14,1.89.67,1.28,1.28-.19.76-.46,1.45-.32,2.55v5.74c.74-1.28.11-3.93.32-5.74.42-.05.86.06,1.28,0,.71-.1.58-.2,1.6-.32.7-.08,2.24-.57,3.2-.96.11-.04.57.09.64,0,.4-.49,1.85-.98,2.88-1.59.59-.35,1.15-.77,1.92-1.27.18-.11-.05-.3.32-.32.49-.02.72-.83,1.28-1.28.11-.09.55.11.64,0,.34-.41.95-1.4,1.6-1.91.11-.09.55.11.64,0,1.15-1.41,3.1-3.09,4.48-4.78.81-1.21,1.42-2.62,1.92-4.14.84-1.18,1.62-2.43,2.24-3.82.66-2.43,1.21-4.95,1.6-7.65.12-2.48,1.59-5.15.64-7.65.05-.37-.07-.57-.32-.64ZM7.01,10.52c-1.35-1.63-2.41-3.54-4.16-4.78.44-.73,2.23-.12,3.2-.32,1.35,1.73,2.72,3.45,3.83,5.42-.82,1-1.52-.8-2.88-.32ZM14.05,21.04c-.96,0-1.09-.83-1.92-.96-.46-1.66-1.43-2.82-2.24-4.14.33-.71,1.47.42,2.56,0,1.02,2.06,1.97,4.19,3.52,5.74-.35.73-1.57-.32-1.92-.64ZM41.22,14.35c2.05-.13,3.02.81,3.51,2.23-.02.93-.73,1.18-1.28,1.59-1.79-.23-2.47-1.58-2.23-3.83ZM16.6,26.14c.61.35,1.51.41,2.24.64.81,1.85,2.21,3.11,2.88,5.1-1.15.09-1.54-.59-2.55-.64-.1-2.45-1.91-3.2-2.56-5.1ZM15.33,50.05c-.31-1.32.96-.06,0,0,.03.38-.46.2,0,0ZM28.75,77.15c-1.06,0-1.09-1.04-2.24-.96v-1.91c-.71-.74-1.25.11-2.24,0-.61-.78-1.19-1.58-.96-3.19-.27-.47-.25-1.24-1.28-.96.23-.65,1-1.26.32-1.91-.43-.83-1.42-.61-2.24-.32.04-.79.05-1.54-.32-1.91.48-1.43,1.85-1.98,1.92-3.83-.16-.47-.47-.8-.64-1.27-1.95-.35-2.64.55-3.83.96-.02-1.5,1.22-1.75,1.59-2.87.62-.88,1.22-1.76,1.28-3.19-1.42-.14-1.69.86-2.55,1.27-.5.67-.58,1.77-1.6,1.91-1.12.28-.33-.83,0-.95-.23-.87.64-.64.64-1.28.48-.9,1.29-1.47,1.28-2.87-.44-.9-1.65-1.03-2.56-.64.69-1.33,1.86-2.18,2.24-3.83,2.27-.25,3.56.48,5.75.32-.09,1.93-.2,3.83-.64,5.42v2.55c1.06,7.34,3.57,13.23,6.71,18.49.39.67.93,1.2,1.6,1.59-.54.82-1.84-.27-2.24-.64ZM67.43,58.97c-.2.02-.38.05-.32.32-.03.39-.1.76-.64.64-.16.38-.34.72-.64.96-.07.25-.01.63-.32.64-.22,5.63-3.63,8.08-6.39,11.16-1.11.28-1.78,1-2.56,1.59-.93.55-2.04.94-2.55,1.91-1.25.24-1.74,1.24-2.88,1.59-.92.57-2.41.57-3.2,1.27-2.1-.08-3.49.56-5.75.32-.2-1.15-.1-2.64-.32-4.46.23-1.89.82-3.44.64-5.74.59-.9.88-2.1,1.28-3.19.41-1.02,1.01-2.48,0-3.19-1.43-.26-1.78.57-1.92,1.59-1.04-1.17.64-2.32.32-3.83.71-.04.13-1.35.32-1.91.46-.39.61-1.1.64-1.91.8-1.22,1.66-2.39,1.92-4.14.1-.73-.92-.36-.96-.95-1.87.05-2.69,1.15-3.2,2.55-.94-.45.3-3.06-.64-3.51-2.04-.13-1.49,2.34-1.6,4.14v5.74c.26,1.1-.48,1.22-.32,2.23-.31,1.27.96.96.64,2.23.08,1.35-.3,2.26-.64,3.19.69,1.34.54,2.07,0,3.51-.05,1.01.85,1.06.64,2.23.08,1.15-.59,1.54-.64,2.55-.27,1.33.62,1.5.64,2.55-1.09-.08-2.59.25-3.2-.32-1.02-2.75,1.04-5.98-.32-8.29-1.41.07-2.28.7-2.56,1.91-.75-.27.02-1.64.32-1.91.08-.98.32-1.8.64-2.55-.19-.66-.49-1.21-1.6-.96.41-1.45.41-3.33,0-4.78-1.16,1.07-.69,3.78-1.92,4.78-.05.38.05.91-.32.96.02.44-.15.7-.32.96-.5-.08-.22-.7,0-.96h.32c.05-.38-.05-.91.32-.96.16-3.72,2.2-7.07,1.28-10.84-1.34,1.11-1.16,3.73-2.24,5.1.16,1.97-.89,2.73-.64,4.78-1.9-1.05-.3-4.04,0-5.74-.06-2.05,1.86-4.54.32-6.06-2.04-.78-2.41,2.64-2.88,4.46-.8-.79-.61-2.58-.96-3.83.1-1.8-.57-2.83-.32-4.78,11.43.06,22.45-.75,32.93.64-1.02,5.47-2.76,10.22-5.43,14.03-1.11,2.08-2.31,4.07-3.84,5.74-.94,2.35-3.06,3.53-3.52,6.37.18.46.5.78.96.96,1.97.27,1.95-1.46,3.2-1.91.71-.99,1.29-2.11,2.23-2.87,1.14-2.26,2.88-3.93,3.84-6.38.75-.99,1.37-2.01,1.92-3.19.28-.61.9-1.99.96-2.23.1-.41.25-.68.32-.96.05-.19-.07-.45,0-.64.05-.14.59-.46.64-.64.24-.78.26-1.36.32-1.59.1-.41.25-.67.32-.96.46-1.82.69-3.37.64-5.42,2.73.26,5.27.7,8.31.64-.58,2.29-1.12,4.62-1.28,7.33ZM69.03,46.86c-8.53.12-14.65-2.18-23.66-1.59-8.31-.7-17.46.41-26.53,0-.08-.93.72-.98.64-1.91-.14-1.78-2.65-1.18-2.88-2.87,2.21-.76,4.8.73,6.71-.64.14-1.09-.09-1.82-1.28-1.59,1.4-1.06,2.79.61,4.16.64.94-.23,1.37-.97,1.92-1.6.21-1.16-.69-1.22-.64-2.23,1.28.11,2.33,0,2.55-.96v-.96c0-2.02-3-1.05-4.79-1.28.33-1.16,1-1.97,1.28-3.19,1.17.11,1.29,1.26,2.88.96.64-.32,1.37-.55,1.6-1.27.15-1.53-.87-1.9-1.92-2.23.46-.94,1.25.42,2.24,0,1.27,0,1.32-1.23,1.92-1.91.51-.03,1.22.15,1.28-.32,3.04-.27,4.68.86,6.71,1.6,1.58,1.4,2.34,3.62,4.15,4.78,1.61-.48,1.41-3.14.96-4.78-.24-.98.88-.61.64-1.6,1.61-1.27,3.98-1.76,7.03-1.59.76.19,1.46.46,2.55.32,1.06.86,2.93.9,3.84,1.91,1.39.53,2.17,1.66,3.52,2.23.24.93.77,1.57,1.28,2.23-.04.78-.05,1.54.32,1.91v1.91c-.37,1.65-.35,3.69-.96,5.1-.3,1.38-.79,3.96.64,4.46,2.69-.29,3.33-2.63,3.84-5.1,1.59-.09,1.71,1.27,2.56,1.91.42,3.82-1.62,5.18-2.56,7.65ZM56.56,28.69c-2.83-1.17-4.59,1.33-4.79,3.83.39.99.97,1.79,2.24,1.91,1.99-.66,3.1-2.21,3.2-4.78-.45-.08-.37-.7-.64-.96ZM40.9,36.98c-.19-1.51-1.73-1.67-1.92-3.19-1.47-.29-1.55.8-2.88.64,0,1.17-.93,1.41-1.6,1.91v2.55c.64.43,1.39.74,1.6,1.59,1.52-.24,1.75.8,2.56,1.28,1.46-.17,1.33-1.24,2.88-.64,1-1.15.9-2.41.32-3.83-.37-.05-.91.06-.96-.32ZM45.05,39.53c.57.84,2.32.84,2.88,0,.62-2.85-3.49-2.85-2.88,0ZM56.88,39.21c-.72,1.66-.17,3.99,2.24,3.51.07-.25.26-.37.64-.32,1.18-2.13-.64-4.47-2.88-3.19Z"/>
    </g>
  </g>
</svg>