<?xml version="1.0" encoding="UTF-8"?>
<svg id="Layer_2" data-name="Layer 2" xmlns="http://www.w3.org/2000/svg" viewBox="0 0 123.73 111.9">
  <defs>
    <style>
      .cls-1 {
        fill-rule: evenodd;
      }
    </style>
  </defs>
  <g id="food_icons" data-name="food icons">
    <g id="dimsum">
      <path class="cls-1" d="M33.15.28c.34-.14.69-.24,1.06-.28-.54.05-.87.15-1.06.28ZM31.5,7.3c1.37.96,3.21,1.44,3.53,3.32.21,1.25,0,2.77.67,3.91,1.17,2,2.03-.5,2.05-1.59.05-1.85-.14-3.27-.67-4.97-1.06-.7-4.44-2.67-3.89-3.93.6-1.37,1.22-2.47,1.01-4.04.26,1.92-1.96.86-1.06.28-2.6,1.11-4.28,5.17-1.65,7.02ZM44.8,8.83c.08-.21.18-.39.28-.54-.26.39-.32.53-.28.54ZM46.03,13.07c.54-.89.88-5.1-.95-4.78.36-.06-.2.58-.28.54-.58,1.46-.55,4.01,1.24,4.24ZM23.35,17.2c.6.16.36,2.01.95,2.56,1.04-.56,1.61-1.67,1.51-2.84-.12-1.37-.61-1.06-1.64-1.48-1.54-.63-.05-2.05.36-2.99-.15.11-.4-.67-.22-.65-.69-.51-1.72-.31-2.4.16-.98.68-.48,2.9-.48,3.98.88.34.96,1,1.93,1.26ZM24.3,11.8c.11.09.22.18.31.31-.16-.22-.26-.3-.31-.31ZM24.61,12.11c0,.1-.04.21-.1.33.04-.03.08-.13.1-.33ZM8.85,62.82s.06,0,.1-.02c0-.03,0-.04,0-.07-.06.04-.09.07-.1.08ZM38.68,87.43c2.88-.22,5.67-1.27,8.58-1.57,2.36-.24,4.72-.61,7.04-1.13,4.15-.93,8.19-2.36,11.9-4.44,6.8-3.81,15.25-8.65,19.15-15.9-2.63-.02-1.52-2.46-1.59-4.63-.09-2.62-.39-5.23-.74-7.83-.72-5.28-1.51-10.53-1.26-15.88.03-.72.04-1.79-.45-2.45-.6-.8-.38.71-.82-.15-.93-1.79-1.81-3.3-3.54-4.54-1.05-.75-2.28-1.36-3.62-1.18-.69.09-1.79.37-1.08,1.19.92,1.07,1.73,2.21,2.67,3.26,1.56,1.76,2.51,2.6,2.04,5.21-.34,1.87-1.56,3.2-3.04,4.3-3.76,2.8-7.87,5.28-12.21,7.14-6.91,2.96-14.34,6.84-22.07,6.95.01-.34,2.75-1.49,2.51-1.8-.59-.78-6.83.72-7.88.85-2.5.3-5.01.55-7.52.73-5.5.38-11.09.65-16.46-.83-4.89-1.36-8.3-5.28-6.41-10.58,1.57-4.39,4.26-8.68,8.22-11.3,4.31-2.85,9.72-3.64,13.7-6.63,3.79-2.86,9.92-3.1,14.54-3.55,10.57-1.02,20.13.61,30.3,3.16-2.72-.68.12-.4,0,0,.36-1.24-6.63-3.3-7.36-4.16-.74-.86-3.04-.96-4.15-1.26-2.06-.56-4.21-.8-6.34-1.03-9.26-1.03-19.29.33-28.15,3.14-7.01,2.22-16.42,5.9-20.64,12.16C.65,39.69,0,44.43,0,50.37c.57.58.45,2.2.75,2.97.43,1.1.79,2.22,1.11,3.36.68,2.37,1.21,4.78,1.74,7.19.64,2.85.69,5.67.99,8.57.15,1.43,1.21,3.58-.21,4.42-1.87,1.11,5.16,5.73,5.96,6.22,8.41,5.2,18.9,5.06,28.34,4.34ZM8.95,66.62c-1.1-1.28-.25-2.62.64-3.51.85.97-.45,2.51-.64,3.51ZM28.45,81.93c.63-.83,3.27-2.27,1.33-3.48-.87-.54-2.77-.46-3.25.61-2.27-1.37,1.8-8.1,1.19-10.11-.39-1.25-.46-.9-.08-2.1.24-.74.29-2.12-.87-1.8-1.17.32-.77,2.19-2.16,2.22-.03-.68-.95-2.75-1.31-.88-.22,1.16.54,2.26.35,3.43.04,1.3-.92,1.95-.4,3.26.37.92.86,1.71.76,2.75-.1.96-.66,1.86-.16,2.8.26.48.9,1.22,1.39.43.99.57.15,1.93,1.21,2.3.46.16,1.06.24,1.03.88h-3.83c.1-.99,1.3-1.17,1.28-2.23-1.79.21-3.17,1.27-4.8,1.91.34-.82,1.66-1.67.46-2.48-.82-.56-2.12-.06-3.02-.07.02-.74,1.47-2.5.3-3.06-1.04-.5-2-.67-2.79.28-1.86,2.23-1.12-3.54-1.03-4.23.62.68.7,1.72.96,2.55,1.84-.66.17-6.87-.08-8.14-.26-1.32-.64-2.85-1.84-3.66-1.46-.17-1.44,1.15-2.24,1.91-.74-.42.54-2.17-.38-2.75-.35-.22-1.22.23-1.53.44,0,.02,0,.05,0,.07-.09.04-.11.03-.1.02-.26-.01.07-.71.1-.08,0,0,0,0,0,0,.02-.89.39-2.41-.42-3.01-.46-.21-.75-.56-.85-1.06-.53-.53-1.82-.11-1.6-1.28,5.42,2.23,11.74,2.49,17.52,2.14,2.96-.18,5.93-.58,8.8-1.35,3.48-.94,6.82-.78,10.45-.78,7.09-.58,13.62-2.67,20.08-5.59,5.26-2.38,11.77-5.4,15.4-10.03,1.96,3.51,1.79,8.28,2.2,12.15.2,1.9.34,3.81.68,5.7.56,1.2,1.65,2.89.74,4.25-.49.73-1.26.58-1.26,1.63,0,1.17.04.96-1.09,1.53-1.47.75-2.55,2.02-3.91,2.93-2.77,1.84-6.11,3.78-8.58,5.96-4.4,3.87-12.87,4.92-18.79,5.04-2.33.05-4.65.29-6.97.54-1.11.12-4.12.97-5.08.31-1.17-.81-.61-1.37-2.74-.74-1.69.5-3.27,1.03-5.06.87ZM71.29,26.14c0-.31-.39-.25-.64-.32,0,.31.39.25.64.32ZM71.29,26.14c.2.46.38-.03,0,0h0ZM62.25,38.34c1.98,1.76,3.49,3.96,5.2,5.97.7-5.35-5.74-9.7-9.59-12.11-1.4,0-2.65-.86-4.09-.65-1.03.15-1.96.76-2.87-.06-1.28-1.14-2.54-2-4.21-2.5-4.42-1.34-9.56-2.68-14.06-.69-1.95.86-3.62,2.2-4.98,3.82-.78.92-1.46,1.92-2.08,2.95-.19.96.38,1.62.32,2.55-6.48-.72-15.43,7.69-12.95,14.29.71,1.88,2.57,1.03,2.75-.68.21-2,2.01-3.38,3.28-4.89,1.38-1.64,2.97-2.85,4.96-3.66.51-.21,5.84-1.27,5.67-.73-.3.95,2.5.01,3.16-.08,2.16-.31,4.66.25,5.91,2.12,1.29,1.94,2.34,3.63,3.15,5.79.15.4.74,4.12,1,4.1,0-.59-.41-4.39,0-4.46v.96c0-.32.84.55,0,0,.96.63.2,2.36,1.28,2.87,1.49-3.29-.58-6.33-1.92-9.25,1.31-.58.23-1,1.43-1.87,1.08-.79,2.22-1.51,3.41-2.12,2.29-1.18,4.77-1.97,7.31-2.38,1.98-.12,6.49-.54,7.91.72ZM45.73,34.26c-1.15.66-2.19,1.77-3.07,2.75-.99,1.1-1.88,2.29-2.72,3.5-.91,1.33-1.14.78-2.53.28-2.81-1.02-5.6-1.01-8.13-2.41-1.66-.92-2.57-.52-2-2.81.2-.8.68-1.48,1.48-1.77-.18.95.5,1.6.32,2.55,1.06-.49.79-2.29.96-3.19.77-.5,1.42-1.15,1.92-1.91.84-.21,2.8-1.7,2.56-.32.14.35,3.47-.28,3.9-.36,3.5-.69,7.07.09,10.17,1.96-.64.96-1.91,1.2-2.86,1.74ZM31.97,31.24c-.51.77.85-.21,0,0h0ZM39.54,32.29c-.69-1.71-5.16-1.29-5.74-.07-.82,1.75,3.9,1.72,5.46.89-.14-.09.12-.8.27-.81ZM39.64,32.83c-.08.1-.22.19-.37.27.05.03.17-.02.37-.27ZM39.54,32.29c.07.16.11.34.1.54.02-.41-.03-.55-.1-.54ZM54.31,38.77c-1.19-.18-2.48-.06-3.55.44-.95.45-2.32,1.79-.7,2.4,1.79.68,5.49-.3,4.92-2.72.19.81-1.35-.12-.68-.12ZM54.99,38.89c-.34-.09-.55-.12-.68-.12.23.04.46.06.68.12ZM31.98,46.21c0,.11,0,.21-.02.33.03-.15.03-.25.02-.33ZM26.25,45.23c-1.51,1.08.6,2.08,1.48,2.07,1.32-.01,2.73-.2,3.97-.67-.86.22.2-1.05.28-.43-.08-2.01-4.5-1.86-5.73-.97ZM75.12,65.03c0-2.6-.97-4.9-1.67-7.36-.29-1.01-.21-5.2-1.12-5.67.09.11-.36.32-.09-.05-1.88,2.49-.62,5.21.05,8,.35,1.45.83,5.05,2.83,5.07ZM54.53,62.78c.97.39-.69,2.12-.98,2.79-.61,1.41-.17,4.77,1.97,2.86,1.25-1.11,1.45-3.97,2.98-4.68,1.52.03,6.6,1.98,6.39-.96-.1-1.88-2.65-1.55-3.9-1.97-1.76-.59.48-2.66.38-4.08.08,1.27-1.59.49-1.23.13-1.31.42-1.82,1.77-3.01,2.72-1.04.83-3.72-.83-4.09,1.53-.19,1.22.61,1.29,1.49,1.65ZM60.14,56.87c.35-.11.74-.17,1.23-.13-.75-.07-1.11,0-1.23.13ZM43.14,102.73c4.28-2.4,9.1-3.7,13.34-6.2,4.28-2.53,8.82-4.35,13.24-6.68,2.24-1.18,3.35-3.14,5.4-4.41,2.15-1.12,4.29-2.27,6.48-3.31,3.47-1.63,7.05-3.06,10.38-4.81,4.58-2.4,9.37-4.03,14.09-5.97,2.27-.94,6.92-1.25,8.36-3.54,1.91-3.03-2.65-1.46-3.72-.89-1.7.9-3.93,1.8-5.86,1.93-.85.47-7.5,2.89-9.78,3.62-.08.09-.14.16-.14.21h-.64s.3-.06.78-.21c.97-1.04,7.36-4.54,8.37-5.34,2.57-2.02,5.04-4.16,7.8-5.93.51,1.03.29,2.38,1.03,3.3,1,1.24,1.7.04,1.76-1.04.08-1.44-.56-3.05-1.59-4.06-.91-.89-2.48.12-3.42.65-4.04,2.31-7.32,5.92-11.21,8.48-4.3,1.78-7.93,4.74-12.05,6.85-4.82,2.47-9.97,4.26-14.74,6.87-4.15,2.27-7.9,5.13-12.19,7.17-2.58,1.23-5.26,2.24-8.01,3.03-1.9,1.47-3.98,2.69-6.14,3.76-2.26,1.12-4.6,2.07-6.96,2.93-1.91,1.05-2.76,2.59-4.98,3.38-1.9.68-3.69,2.16-5.57,2.67-1.58,2.55.31,2.69,2.7,1.9,2.2-.73,4.34-1.59,6.54-2.3,2.19-.7,4.75-.96,6.73-2.08ZM94.94,72.68c0-.11-.21,0,0,0h0ZM35.28,72.89c.59.22.7.6.34,1.12-1.25,2.94,2.66,6.91,4.25,3.6.87-1.83,1.12-3.88,1.05-5.88-.44-.81-1.05-2.29-1.63-2.67-.77-.49-.53-4.51-2.06-4.23-1.1.2-1.63.1-2.37-.75.18.21-.19.94-.3.99-.4,1.84-.02,3.9-.17,5.73-.12,1.44-.27,1.4.9,2.09ZM34.55,65.07c.07-.34.17-.67.3-.99-.34.8-.37,1.03-.3.99ZM64.57,66.94c-.88.96-1.54,2.16-2.88,2.55-.59-.31-1-.82-1.68-.95-1.43-.28-2.09,1.42-1.14,2.45,1.29,1.4,1.32,1.51.17,3.17-.73,1.05-2.05,4.83.6,3.29,1.36-.79,1.47-2.64,2.74-3.52,1.22-.85,2.93,1.32,4.11-.3.17-1.82-1.59-1.86-2.24-3.19.99-.34,1.7-3.7.32-3.5.37-.05-.87.94,0,0ZM120.52,73c.18-.02.33,0,.49,0,.34-.05.54-.1-.49,0ZM121.01,73c-.28.04-.67.07-.49,0-3.97,1.62-8.26,3.21-12.15,5.1-4.49.61-9,1.9-12.79,4.46-2.02.79-3.6,2.38-5.75,2.87-1.9,1.21-4.17,1.67-6.07,2.87-4.11,1.59-8.03,3.77-12.15,5.42-3.78,2.24-8.23,3.18-11.83,5.74-2.21.5-4.09,1.66-6.16,2.35-1.36.46-3.23.71-4.39,1.47-.71.47-3.16.42-3.51,1.28-1.88.22-3.1,1.25-5.12,1.28-1.56,1.23-3.54,2.52-5.39,3.23-1.45.55-3.05,1.22-3.55,2.83,4.44.23,8.15-3.47,12.47-2.87,3.82-2.23,8.85-3.03,13.02-4.46,4.61-1.58,9.04-3.61,13.62-5.32,4.06-1.51,8.2-3.38,12.33-4.52,4.47-1.23,8.34-3.66,12.24-6.09,2.41-1.5,4.82-2.26,7.53-3.07,1.94-.58,3.87-1.63,5.84-2.04,1-1.13,4.73-1.52,6.1-1.78,2.12-.41,4.62-.62,6.61-1.49,3-1.31,3.34-7.15-.38-7.25ZM120.2,78.16c-1.02.37-2.09.63-3.15.85-2.57.55-5.2.85-7.72,1.63,3.31-2.25,7.53-2.59,10.87-4.78,1.67,0,1.29,1.84,0,2.29ZM120.2,75.87c-3.15,2.07.32,0,0,0h0Z"/>
    </g>
  </g>
</svg>