<?xml version="1.0" encoding="UTF-8"?>
<svg id="Layer_2" data-name="Layer 2" xmlns="http://www.w3.org/2000/svg" viewBox="0 0 121 73.62">
  <defs>
    <style>
      .cls-1 {
        fill-rule: evenodd;
      }
    </style>
  </defs>
  <g id="food_icons" data-name="food icons">
    <g id="dish">
      <path class="cls-1" d="M28,27.95c-.21.59,1.85.36,0,0h0ZM7.17,60.59c.15.94.92.03,0,0h0ZM28.66,44.06c-.19.51-.32,1.07-.37,1.69.71.05.61-1.67.37-1.69ZM25.62,34.18c.28,1,2.02-.85,0,0h0ZM109.22,65.04c-.21.59,2.49.35,0,0h0ZM76.19,65.63c-3.83-.13,3.62.34,0,0h0ZM19.6,57.78c-.01.07,0,.13.06.14.04-.1.06-.17.08-.23-.05.03-.09.06-.14.08ZM62.5,12.49c-.01-.11-.02-.21,0-.27-.1.25-.07.29,0,.27ZM120.64,66.25c-.68-1.15-1.89-2.02-2.5-3.29-1.36-.06-2.04-1.21-3.59-1.21-2.27,0-4.52.27-6.75.64-4.67.78-9.28,1.95-14.05,1.69-4.86-.27-9.72-.5-14.6-.56-5.47-.08-10.81-.56-16.31-.56h-15.98c-5.34,0-10.55.52-15.88.82-1.33.07-3-.1-3.87.07-.78.16-11.67.23-12.45.55.76-.55-.76-2.71,1.71-2.37.75.11.6,1,1.81.93,1.14-.48,1.95-1.41,2.68-2.37-.55-.33-.64.29-1.07.26-.18-.01,2.96-4.34,3.74-3.01,1.14,1.96,1.52-1.32,1.77-2.22.49-1.82,2.49-.99,3.86-2.3,1.35-1.3,1.85-.56,3.6-.45-.57.98-2.36,1.42-2.1,2.81.32,1.68,1.84.37,2.41-.33.89-1.1,2.21-2.22,2.66-3.68,1.13-.58,2.66-.93,2.98-2.37-2.36-.61-4.58.39-6.84.89-1.32,1.14-1.91,2.28-3.87,2.37,1.04-1.78,2.22-3.48,3.57-5.04-1.94.83-3.12,2.73-5.06,3.56.57-1.23.77-2.58,1.19-3.86,1.21-.46,2.36-1.07,3.42-1.82,1.43-1.01,3.76-1.66,4.32-3.53-.48.02-2.89,1.02-2.86,1.35-.08-.89,3.23-3.26,3.76-4.31,1.25-1.35,2.96-2.03,2.97-4.15-2.14.36-3.05,2.79-5.11,3.44-1.08.34-1.88,1.17-2.92,1.6-.33-1.09-.8-.06-1.19.3-.1-3.49,3.52-3.18,4.46-5.93-.44-.06-2.67.38-2.68.3.48,0,1.53-3.36,1.87-4.03.47-.93.97-1.85,1.41-2.79.57.07,1.12.03,1.67-.11,1.1-.27.76-1.62,1.01-1.67.96-.07,2.27-.1,2.97-.89-.72-.77-1.65-1.55-2.76-1.52-.67.02-2.1.41-2.6-.26,1.05-.48,3.07-1.93,4.17-1.78-.35-.05,1.21-.87,0,0,1.94-1.39,4.96-1.77,7.18-2.62,2.2-.85,4.73-1.23,7.1-1.23,9.76,0,19.09,1.33,28.26,4.75,3.09,2.13,7.38,3.15,9.92,6.11,2.77,3.21,4.48,7.15,7.04,10.51.53,2.05,2.17,3.58,2.68,5.64,1.16.5,2.5,2.93,2.9,4.08,1.25,3.56,2.38,6.67,3.11,10.34.37,1.89,3.33,3.1,3.67.59.24-1.81-.33-3.57-.71-5.26-.81-3.57-2.27-6.86-4.19-10.06-1.23-2.05-2.53-3.9-3.67-6.03-1.03-1.94-2.31-3.6-3.34-5.57-1.75-3.32-4.11-7.45-7.58-9.15-2.02-1.03-3.82-2.37-5.87-3.44-1.73-.91-3.48-1.81-5.39-2.35-3.96-1.11-8.17-2.59-12.3-2.83-3.45-.2-1.26-1.11-1.43-3.24,0-2.3-.34-3.97-1.58-5.94-2.16-3.42-4.64-4.71-8.53-5.63-4.07-.39-8.05.98-10.31,4.37-2.1,3.15-.91,7.53.79,10.76-14.21,4.04-34.16,10.4-38.7,26.28-1.19,4.17-2.26,8.4-3.32,12.61-.57,2.28-1.37,4.58-1.1,6.95.26,2.29.47,2.94-1.26,4.56-1.72,1.6-2.85,2.44-2.95,4.8-.06,1.57-.03,2.53,1.68,2.84,3.49.64,7.75.31,11.29.25,5.36-.1,10.67-.88,16-1.33,4.91-.41,9.83-.29,14.75-.29,4.04,0,8.06-.78,12.16-.65,4.3.14,8.52-.16,12.8-.25,16.3-.36,32.51-.89,48.75-1.48,1.85-.07,4.53-.97,3.19-3.23ZM54.36,14.01c-1.84,0-1.07-2.02-1.07-3.56,1.16-.77,2.12-2.21,3.6-1.95-.8,0,.73,1.88.57.16.17,1.84.75,3.57,1.19,5.34h-4.28ZM53.06,4.28c2.27-.72,5.82-.26,7.46,1.53.87.95,4.3,5.33,2,6.41.41-.19.12.21,0,.27.09.7.75,2.14-.68,1.46-.59-.28-.63-1.72-.87-2.25-1.01-2.27-.33-5.66-3.61-5.96-2.36-.22-4.47,1.28-5.96,2.96-1.3,1.46-.23,3.82-.04,5.42.12.97-1.02-1.16-1.06-1.27-.3-.83-.5-1.82-.87-2.69,0-3.03.48-4.88,3.64-5.87ZM16.69,54.65c.07-.29-.03-.49-.3-.59.47-.52,1.55-1.78,2.38-1.19-.42.87-1.13,1.52-2.08,1.78ZM19.82,57.65c-.06.1-.12.19-.15.27-.15-.04-.49.36-.48.46-.02-.23.15-.42.42-.6.03-.16.21-.36.14-.08.03-.01.05-.03.08-.04.6-.94,2.56-2.76,3.41-2.7.11,1.57-2.25,2.08-3.41,2.7ZM24.79,43.58c.4-.23.14-.77-.37.1.61-1.05,1.47-1.92,2.08-2.97,1.04.54-.69,2.43-1.72,2.87ZM33.94,38.93c.87.36-3.3,4.06-3.86,4.45-.33,1.12.88.97-.3,1.63-.55.31-.78.79-1.49.74.1-1.29.25-1.7.37-1.69.89-2.36,3.15-3.64,5.28-5.14ZM28,27.95c1.49.29,3.39-.74,4.76,0-.32,1.07-5.86,1.47-6.55.59.15-.78,1.54.1,1.79-.59ZM25.62,34.18c2.01-.84,3.05-2.98,5.35-3.26-.55,3.08-4.27,3.2-5.65,5.64-.71-.46.48-1.7.3-2.38ZM24.72,37.15c.05.8,1.22-.57.25-.13,1.06-.56,2.2-.98,3.2-1.66.34-.23,1.55-.87.81.17-1.22,1.72-2.9,2.77-4.55,4.28-.79-.6.34-1.94.3-2.67ZM25.62,43.67c.61.47-.24,1.47-.34,2-.21,1.21-1.06,1.28-.97,2.67.15,2.43-.88,3.64-3.16,4.23.04-1.59.61-3.07.81-4.63.19-1.45,1.18-2.02,1.57-3.38.73-.18,1.47-.44,2.08-.89ZM23.18,35.39s0,0,0,0c-2.65.48-.17-.3.03-.04,0,0-.02.02-.03.04.02,0,.03,0,.05,0-.02,0-.04.01-.06.02-.19.32-.78,2.2-1.03,2.75-.41.93-.79,1.87-.99,2.87h-2.38c.72-2.38,1.65-5.07,4.4-5.62ZM18.67,45.54c-.39.3.27-1.03.1-.09.17-.93.14-2.28,1.49-2.08-.33,1.08-.43,2.23-.89,3.26-.69.48-1.64.25-2.38.59.26-.85,1.09-1.15,1.68-1.69ZM17.28,50.5c.23-.79-.61-.69-.84-1.09-.07,0-.12-.1-.05-.4.46-.12,2.22-1.18,2.6-.85.22.2-.22,1.81-.22,2.03,0,1.6-1.65,2.48-3.27,2.67.13-1.16,1.41-1.38,1.79-2.37ZM13.42,41.3c.84.86-.58,1.98-1.49,2.08.17-1.02.87-1.51,1.49-2.08ZM7.94,65.4c.54-.79,1.45-1.27,1.91-2.14.33-.07,1.42,1.21,1.79,1.48-.6,1.25-2.79.89-3.87.89,1.41-.01.71-.78.17-.24ZM8.96,53.47c-.1-.97.24-1.74.47-2.65-.17-1,.27-1.31,1.31-.91-.29.59-.94,1.01.3.89-.27.86-.52,1.93-1.37,2.43-.01,0-1.37.52-.71.24-.43.18-.16-1.55,0,0ZM7.17,60.59c.74.02,3.58-1,1.94.59-.74.72-.97,1.65-2.23,1.48-.19-.81.42-1.28.3-2.08ZM84.22,66.47c-1.43-.06-2.8.36-4.28.37-3.78.04-7.56.04-11.34.07-7.32.05-14.66.15-21.95.85-7.57.73-15.26.36-22.86,1.03-7.24.64-14.38,2.12-21.68,1.29.09-2.55,3.49-2.12,5.22-2.08,3.08.09,6.46-.86,9.47-1.52,3.51-.78,7.58-.19,11.18-.27,3.19-.07,6.39-.21,9.56-.55,12.81-1.37,25.79-.48,38.64-.03,3.76.35,7.57,0,11.31.59-.79.69-2.36.29-3.28.25ZM107.43,65.63c.15-.78,1.54.1,1.79-.59,2.15.3,4.47-.78,6.55,0-2.33,1.38-5.77.4-8.34.59ZM16.39,54.06c.23.06.54-.61,0,0h0ZM23.53,44.57c-.28,1,.79-.2,0,0h0ZM16.39,49.02c-.04.18,0,.3.05.4.17.01.51-.54-.05-.4ZM47.93,23.8c-.38-1.97-2.83-2.23-4.44-2.43-1.55-.2-3.25.53-4.49.36.34.05-.06.24,0,0-.13.18-.24.38-.3.59,2.62,0,6.7,2.79,9.22,1.48ZM86.61,26.17c.89,0,1.01.77,1.79.89.18-.89-1.26-1.69-1.79-.89ZM38.41,41.3c-.65,1.12-1.63,2.02-2.08,3.26.74-.11,3.16-3.11,2.08-3.26.35.05-.65,1.13,0,0ZM44.66,43.08c.18.2.28.42.32.66-.01-.18-.1-.41-.32-.66ZM45.85,46.94c-.8-.3-1.79.5-1.32-.94.22-.66.6-1.52.45-2.25.04.51-.58.56-.32-.66-.35,1.69-2.99,2.28-2.39,4.36.55,1.91,2.85.63,3.58-.5ZM39.6,45.45c.89-.06-.29-1.23,0,0h0ZM39.6,45.45c0,.06-.02.11-.03.17.01.03.03,0,.03-.17ZM39.3,46.35c.17-.22.24-.46.27-.72-.02-.04-.03-.17.03-.17-.44,0-.87.8-.3.89ZM48.82,47.24c-.02,1.27-1.16,3.71,1.19,3.26-.71-.77.42-3.39-1.19-3.26ZM44.66,58.21c.32-1.24,1.12-3.54,0-4.45-2.51.17-2.66,4.37,0,4.45ZM36.62,55.84c.11.02.22.04.33.06-.02-.04-.11-.07-.33-.06ZM35.73,62.96c.97-.19,1.1-1.25,1.79-1.78.53-2.69,3.51-2.41,4.17-4.75-2.74-.19-4.63,1.44-7.14,2.08.06-.38,2.84-2.3,2.55-2.58-.05,0-.09-.02-.14-.02.08.2-1.75.81-.33-.06-1.92,1.17-5.07,2.08-7.29,2.08-1.9,0-1.47,1.68-3.05,2.33-1.03.42-1.92,1.08-3.06,1.23.16-.28.26-.57.3-.89-1.27.32-2.8,2.48-.5,2.27,1.23-.12,2.12-1.17,3.17-1.68,1.09,3.02,2.81-.65,4.17-.89-.69,1.29.29,2.97,1.66,2.35.9-.41,1.52-1.73,2.51-1.75-.67.83.28,2.04,1.19,2.08ZM42.58,58.21c-.26.84-.96,1.22-.9,2.37,1.06.15,1.6-1.75.9-2.37ZM53.28,58.81c-.83-.38-1.47-.73-2.38-.3-.42,1.84,2.5,1.97,2.38.3ZM85.42,60.59c-.48-.15,0,.6.3.3.16-.16-.26-.87-.3-.3Z"/>
    </g>
  </g>
</svg>