<?xml version="1.0" encoding="UTF-8"?>
<svg id="Layer_2" data-name="Layer 2" xmlns="http://www.w3.org/2000/svg" viewBox="0 0 110.53 113.71">
  <defs>
    <style>
      .cls-1 {
        fill-rule: evenodd;
      }
    </style>
  </defs>
  <g id="food_icons" data-name="food icons">
    <g id="donuts1">
      <path class="cls-1" d="M96.85,29.91s0,0,0,0c0,0,0,0,0,0,0,0,0,0,0,0ZM39.48,74.51s0,0,0,0c0,0,0,0,0-.01,0,0,0,.01.01.02ZM18.16,27.56c.2-.17.3-.34.3-.53-.1.18-.21.35-.3.53ZM96.85,29.91s-.02,0-.02,0c0,0,0,0,0,0,0,0,.01,0,.02,0,0,0,0,0,0,0ZM49.09,83.47c-.1-.07-.19-.17-.29-.31,0,0-.01.01-.02.02.05.11.17.21.31.29ZM96.87,29.92s-.01,0-.02,0c0,0,0,0,0,0,0,0,.01,0,.02,0ZM28.42,107.52s-.02.02-.02.06c.03,0,.04-.01.05-.03,0,0-.02-.02-.03-.03ZM49.09,83.47c.1.07.2.11.29.09-.08.02-.19-.03-.29-.09ZM44.82,79.62s.1-.05.17-.05c-.04-.1-.1-.11-.17.05ZM39.26,74.11c.03.05.04.12.06.17.04.06.08.12.13.19-.03-.05-.09-.16-.19-.36ZM18.16,27.56c.2-.39.27-.59.25-.67-.09.12-.43.68-.25.67ZM39.48,74.5c.07.06-.32-.91-.22-.39-.08-.43.22.37.22.39ZM49.49,83.35c-.22-.24-.46-.33-.73-.25.01.02.03.05.04.07.08-.07.28-.05.69.19ZM56.52,41.91c-.2.08-.36.15-.52.22,0,0-.01,0-.02.01.18-.08.36-.15.54-.23ZM55.5,42.41c-.06.02-.12.03-.18.05.17-.04.42-.19.66-.32-.28.12-.56.24-.84.36-1.09.47-.39.23.36-.08ZM44.81,79.64c-.04.1-.08.26-.11.52.08.03.17-.02.26-.11-.05-.09-.1-.23-.14-.41ZM44.99,79.57c.04.1.05.29,0,.43.05-.06.1-.14.16-.23-.01-.07-.03-.14-.08-.21-.03,0-.05,0-.08,0ZM44.95,80.05s0,.01,0,.02c.01-.02.02-.04.03-.07-.01.02-.03.04-.04.05ZM44.82,79.62s0,0-.01,0c0,0,0,0,0,.01,0,0,0-.02,0-.02ZM110.27,54.37c-.69-6.55-3.07-12.24-4.58-18.56-1.17-4.88-1.72-8.96-4.98-13.01-1.46-1.82-3.13-3.48-4.9-4.99-1.3-1.11-1.8-3-2.93-4.3-3.29-3.79-8.98-6.82-13.45-9.01-4.67-2.29-9.8-3.8-14.98-4.31-9.74-.96-20.62,2.08-29.44,6.12-4.67,2.15-8.44,5.33-12.15,8.81-3.23,3.02-6.26,5.79-8.72,9.45-2.9,4.31-6.49,8.01-8.62,12.82-1.57,3.52-2.72,7.15-3.64,10.87-2.21,8.93-3.44,19.22,2.08,27.29,5.83,8.5,9.41,18.07,16.17,26.02.97,1.14,8.87,9.71,10.1,8.17.02-.02-1.04-1.37-1.74-2.15-.03,0-.06-.01-.09-.01-.03-.09-.09-.16-.14-.23.05.05.11.11.16.17.02-.02.04,0,.03.03.01.01.02.03.04.04,1.26.07,3.2,1.68,4.5,2.5,2.7,1.7,6.09,2.75,9.2,3.33,6.22,1.17,11.34-1.62,17.3-1.69,5.41-.06,10.85-.86,16.02-2.42,5.33-1.61,9.5-4.55,14.29-7.22,10.79-6,18.1-16,19.58-28.37.78-6.46,1.57-12.86.89-19.36ZM14.88,31.61c.55-.81,2.15-4.02,3.28-4.05-.53.01.22-.91.25-.67,0,0,.02-.02.02-.03.02.06.03.11.03.17,3.62-6.75,9.47-12.4,16.25-15.94,3.48-1.81,7.26-3.08,11.17-3.52,1.8-.2,3.41-1.22,5.25-1.57,1.85-.35,3.74-.48,5.6-.79,2.38-.39,5.95-1.33,7.92.59,2.87,2.79-.04,5.27-2.76,6.02-1.31.36-1.57-.49-2.66-.44-1.01.04-2.03.45-2.97.81-1.89.74-4.81,1.41-5.05,3.57-.43,3.78.24,7.64-.35,11.4-.67,4.22-3.97,2.75-7.25,2.81-3.44.07-8.33,1.36-10.37,4.45-1.92,2.92-2.32,7.91-2.3,11.29-1.8,1.92-5.99,1.98-8.37,1.37-2.44-.63-3.05-2.32-3.49-4.55-.1-.56-1-5.3-2.12-4.56-.96.63-.67,1.53-2.15,1.48-1.29-.04-2.75-.6-4-.12.56-2.94,2.43-5.33,4.07-7.74ZM14.97,80.48c.06-.36.32-.18.32,0-.06.36-.32.18-.32,0ZM27.9,107.06s.1.05.19.13c-.06-.05-.12-.1-.19-.13ZM38.82,97.33c-.74,1.53-.67,2.66-.75,4.28-.05.88-1.21.9-1.04,1.82-1.69-.43-5.62-1.91-6.06-3.85-.44-1.94-2.62-.19-1.86-2.95.35-1.28.87-3.28.42-4.57-.39-1.15-3.46,2.6-3.38,3.72-.99-.91.53-2.15.32-3.19-1.17-.05-1.02,1.28-1.6,1.91-2.42-1.67-1.98-3.42-1.42-5.91.12-.54.48-2.2-.38-2.42-.45-.12-.57.62-1.07.36-.06-2.97.27-5.99-.32-8.93,2.88,2.09,5.59-1.62,3.16-3.83-1.13-1.03-3.91-1.08-4.2.78-.42,2.75-.53,5.67-.89,8.47-1.01-.06.24-1.92-.44-2.28-.41-.22-.77.83-.97,0-.15-.62-.13-1.29-.13-1.91,0-1.87.13-3.74.24-5.6.08-1.25.2-2.45-.12-3.69-.79-3.06-1.86.4-2.42,1.36-1.06-.88-.12-5.21-2.55-3.82.16-1.91,1.89-5.13-.36-6.48-1.25-.75-1.8,1.52-2.84,1.7v-4.14c-1.03.05-1.26,4.04-1.28,4.78-1-1.75.29-4.16-.38-6.03-.31-.85-1.14-.94-1.31-1.98-.17-1-.09-2.04-.02-3.04.21-2.69.49-5.22,1.95-7.6.67-1.1,3.95-2.47,5.09-1.58.93.72,1.51,2.66,2.36,3.6.89.99,1.87,1.9,2.96,2.66,2.04,1.42,4.44,2.17,6.94,2.01,6.26-.4,8.16-4.15,8.84-9.73.29-2.35.39-4.94,2.66-6.25,2.02-1.16,4.67-1.58,6.96-1.26,2.65.36,5.9,1.48,7.83-1.04,1.4-1.82,2.13-4.85,2.31-7.12.37-4.46-1.38-10.1,4.73-10.95,3.23-.45,7.06-.16,8.83-3.53.24-.46,1.19-4.53.34-4.58,2.4-3.16,17.91,8.06,19.43,9.4,1.58,1.39,6.78,6.24,5.65,8.59-.48.98-2.38,2.3-3.25,2.97-1.96,1.49-4.11,1.88-5.46,4.18-1.86,3.16-3.02,8.58-.95,11.89,2.2,3.52,8.53,2.46,9.45,6.38.96,4.09-1.89,8.23-6.17,8.96-2.5.43-7.83.77-9.11,3.42-.54-.03-1.77-7.61-1.96-8.4-1.03-4.44-4.01-8.61-7.01-11.96-8.32-9.27-21.54-3.54-29.52,3.51-2.13,1.88-2.84,4.14-4.38,6.37-1,1.45-1.42,1.69-1.57,3.63-.12,1.49-.11,3.03.14,4.51.26,1.59.36,1.91-.16,3.49-.5,1.52-.85,3.09-1.05,4.68-.21,1.62-.96,5.32.56,6.57.67.55.67,1.48,1.29,1.99.45.26.93.35,1.46.27-.06.65-.03,1.29.08,1.93.33,1.84,2.95.58,4.2,1.73.72.67.28,1.62,1.66,1.37,1.33.43,2.14.89,3.57,1.06.72.09,3.54,2.64,3.6.55-.08.74-.87-.2-.7-.43-.01-.03-.04-.06-.04-.08,0,0,0,0,.02,0-.8-1.23-1.55-4.54-1.83-5.17.99.52,2.52.73,3.19,1.72.8,1.17.11,2.94.36,4.26.16.82,1.63,2.61,2.41,1.19.66-1.2-.84-2.68-.53-3.99.91.48,1.29,5.55,2.62,4.75,1.35-.81-.39-4.45-1.34-5.07.67-1.31,3.65,4.86,4.04,5.45.99,1.48.75-1.98.66-2.3-.4-1.41-2.19-2.38-2.15-3.79.9.18,2.33-.91,2.89.26.5,1.04.82,2.27,2.08,2.65,1.76.52,1.16-2.25.46-2.91.52-.81,1.62.57.96-.96,5.21-.7,10.92-4.81,13.11-9.56,1.69,2.58,1.38,6.16,3.91,8.25,2.69,2.21,3.69,4.25.32,6.35-1.56.97-3.32,1.96-5.17,2.22-2.01.28-3.73.17-5.46,1.44-1.33.97-2.66,2.23-3.38,3.72-.37.79-.71,1.99-1.55,2.43-2.6,1.38-7.32-3-9.88-3.46-2.92-.52-6.95.42-9.77,1.17-2.69.71-4.78,3.23-5.9,5.55ZM45.09,80.13s-.08,0-.13-.06c-.05.09-.13.14-.27.09-.04-.27,0-.44.11-.53-.25-.94-.49-2.86-.43-3.29,1.72,0,1.32,2.46.77,3.43.03.12.02.24-.06.36ZM40.96,58.76c-.36-4.41-.36-7.48,3.35-10.31,3.29-2.51,7.03-4.33,10.82-5.95.21-.09.5-.22.87-.37.21-.12.41-.22.52-.22.16,0-.44.27-1.02.5,3.73-.95,6.75-.93,9.78,1.99,3.36,3.24,5.92,7.66,7.16,12.14,2.58,9.35-4.14,15.75-12.81,17.46-4.63.91-9.25-.38-12.96-3.16-4.08-3.06-5.31-7.16-5.71-12.08ZM40.54,78.25c-1.31-.8-.74-2.72-1.22-3.97-.95-1.44.59-1.3,1.51-.6,1.22.93-.43,2.97-.29,4.57ZM36.38,69.32c-.79-.05-.09-1.08,0-1.28.8.05.09,1.08,0,1.28ZM107.37,67.91c-.24,3.22-.97,5.83-2.32,8.77-1.61,3.54-3.49,5.97-6.14,8.82-1.38,1.49-2.69,3.04-4.12,4.47-1.72,1.71-1.62,1.77-3.24.12-.48-.49-3.89-3.35-4.33-1.61-.25.96.56,2.25,1.27,2.83-.22,1.1,1.57,2.85.17,3.54-1.17.58-2.84.6-3.77,1.6-2.34,2.53-6.22,3.55-9.51,4.9-4.49,1.84-9.13,3.36-13.92,4.18-5.34.91-10.79.87-16.17.27-4.07-.45-3.16-7.15-.85-9.26,3.08-2.81,8.74-3.18,12.6-2.3,2.2.5,4.23,1.58,5.87,3.13.05,1.22,2.41,2.08,2.76.62,2.02-8.37,20.9-5.88,17.98-15.57-1.22-4.05-3.87-7.93-3.67-12.3.19-4.48,3.61-5.26,7.13-6.47,3.92-1.35,8.14-2.98,9.21-7.41.99-4.13-.63-7.64-3.75-10.33-1.64-1.42-3.69-2.79-4.43-4.93-.82-2.37.17-5.13.98-7.37.96-.9,2.05-1.71,3.17-2.39,2.08-1.28,1.4.07,3.23.48.44-.58.64-1.42,1.32-1.79-.01,0-.02,0-.02,0,0,0,0,0,0,0,0,0,0,0,0,0,0-.01.07-.05.29-.11.19,0,.18.02.11.05.06-.03.05-.05-.11-.05-.1.03-.19.07-.27.12,0,0,0,0,0,0,.07,0,.25-.03.35-.06-.09.03-.26.07-.34.07.25.06,2.42.2,2.93.84.95,1.19,1.36,2.59,2.44,3.73,2.75,2.9,3.56,7.28,4.14,11.1.6,3.99.49,7.97.78,11.98.07.99.36,2.85-.55,3.59-.68.55-1.69,1.26-1.17,2.34.37.75,1.64.04,1.94.99.33,1.06.08,2.34-.01,3.42ZM58.76,9.07c.37-2.14-2.69-2.72-3.2-1.27.54.86,1.85,2.21,3.2,1.27ZM51.4,12.9c1.66-2.23-2.36-4.16-2.87-1.59.75.74,1.02,1.96,2.87,1.59ZM42.78,17.36c1.8-1.66-.31-4.9-2.55-3.51-.84,1.86.33,3.72,2.55,3.51ZM48.02,18.58c-.02-.07-.03-.1-.02-.12-.03,0-.02.04.02.12ZM48.03,18.6s.02.01.02.03c0-.02-.02-.03-.03-.05,0,0,0,.01,0,.02ZM48.23,18.73s-.08-.04-.14-.05c.04.08.09.15.17.21,0,0,0-.01.01-.02-.01-.05-.02-.09-.03-.14ZM48.05,18.63s.02.03.03.05c0,0,0,0,.01,0-.01-.02-.03-.03-.04-.05ZM48.28,18.92s0,0,0,.01c.06-.09.03-.15-.05-.2.02.07.03.12.03.13,0,.02,0,.03.01.05ZM43.98,22.91c.9,1.12,2.98,1.57,3.82.12.49-.86.39-2.03-.23-2.8.64-.31.86-.71.71-1.31-.01,0-.01-.02-.02-.03-.04,0-.11-.11-.18-.21-.84-.18-3.57.24-3.88.46-1.27.9-1.17,2.57-.21,3.78ZM48,18.46s.08.04.21.17c-.13-.15-.19-.2-.21-.17ZM48.24,18.73s-.01-.05-.03-.1c.01.03.01.06.02.09,0,0,0,0,0,0ZM38.29,24.65c-.06,0-.12-.01-.17-.02.42.34.75.26.96-.06-.04.04-.07.09-.14.13-.35.02-.54,0-.65-.05ZM38.11,24.62s-.01,0-.02-.01c-.15-.12.75-.66,1.07-.5.04,0,.07.02.09.05.25-.83.1-2.18-.55-2.72-1.29-1.08-3.23-1.03-4.25.4,1.53.75,2.04,2.43,3.65,2.8ZM38.29,24.65c.2.03.41.06.65.05.06-.06.11-.11.15-.16.06-.1.11-.22.16-.35,0,0,0,0,0-.01-.02-.03-.05-.05-.09-.06-.35-.05-1.29.39-.88.54ZM39.19,24.41c.1-.13.11-.22.07-.26,0,.01,0,.02-.01.03,0,.08-.03.16-.06.23ZM39.08,24.56s.09-.09.11-.15c-.03.04-.06.07-.1.12,0,0-.01.02-.02.03ZM26.75,21.53s.04,0,.06,0c-.01-.03-.1-.05-.34-.03.16-.01.25,0,.28.02ZM26.73,21.6s.05-.05.02-.07c-.09-.01-.17-.03-.28-.02,0,.13.15.12.26.09ZM27.43,22.46c.05-.53-.19-.85-.63-.93.01.02-.02.05-.08.06-.08.05-.26.08-.26-.09-.29.89.07,1.25.96.96ZM64.83,30.75c-.27.24-.54.4-.8.53-.21.28-.15.33.8-.53ZM64.8,30.51s-.07.04-.11.08c-.01.05-.02.1-.03.14.04-.07.09-.14.14-.21ZM64.03,31.28c.15-.2.45-.52.66-.68.14-.68.35-2.3.09-2.8-.46-.9-1.49-1.75-2.54-1.22-2.95,1.48-.84,5.93,1.79,4.7ZM64.83,30.75c.29-.59.13-.46-.03-.24.12-.07.16-.03.03.24ZM64.66,30.73c-.05.08-.08.15-.07.17.01.02.04-.05.07-.17ZM33.03,27.98c.03.11.04.21.06.32,0,0,0,.01,0,.02,0-.13-.02-.25-.06-.34ZM33.18,28.84c-.04-.26-.07-.42-.09-.52,0,0,0,0,0,0,.03.17.08.34.09.52ZM33.18,28.84c0,.25-.06.49-.13.7.05.49.11.63.13-.7ZM33.05,29.54c-.02-.19-.03-.42-.04-.65-.98-2.02-4.59-2.7-4.3.54.22,2.51,3.65,2.13,4.34.11ZM33.09,28.32s0-.01,0-.02c-.08-.33-.1.09-.08.59.04.09.09.18.12.28-.08-.23-.04-.57-.04-.85ZM17.84,28.56c.01-.06.03-.12.05-.17-.08.12-.12.17-.14.18.02.03.05.01.09-.01ZM17.75,28.46c-.03.11-.03.14,0,.12-.01-.02-.01-.06,0-.12ZM20.64,31.26c1.08-.84.87-2.59-.06-3.46-1.4-1.31-1.63.37-2.74.4.29,0,.13.27,0,.36-.25,1.11.59,4.41,2.8,2.69ZM37.34,28.84c.86.79,2.4.82,2.24-.96-.78-.69-2.36-.24-2.24.96ZM76.86,30.13s0,0,0,0c0,0,0,0,0,0,0,0,0,0,0,0ZM76.86,30.13c.09.05.87.3.76-.02-.24-.04-.5-.03-.76.02ZM77.62,30.11c-.36-.24-.62-.23-.77.01,0,0,0,0,0,0,.04-.06.25-.09.76-.01ZM75.6,33.08c2.42,1.62,2.46-1.72,2.02-2.97.22.61-.86.19-.76.02-1.53.25-3.04,1.76-1.26,2.95ZM32.44,32.77c.03-.09.07,0,.11.53.01-.25-.02-.49-.08-.73-.02.02-.02.1-.03.2ZM32.44,32.77c-.02.07-.05.23-.06.42.04.08.06.14.08.18-.02-.15-.03-.41-.02-.6ZM32.38,33.19c-.24-.48-.82-1.4-1.58-1.38-.91.03-1.55.84-1.44,1.73.22,1.64,2.33,1.48,3,.29,0-.16,0-.42.02-.65ZM32.46,33.38s.02.08.03.1c-.04.13-.07.26-.13.37.01.26.07.26.19-.54,0,.06-.04.1-.06.16,0-.02-.02-.05-.03-.08ZM98.19,34.09c-.23-.45-.7-1.14-1.03-1.24-.64-.19-1.33-.01-1.91.24-1.68.73-3.18,2.27-3.92,3.95-.71,1.62.06,4.79,2.46,3.37,1.26-.74,3.69-3.71,4.41-5.51-.07-.06-.07-.58-.01-.8ZM98.21,34.13c.01.17.05.36.1.37.06.01.01-.15-.1-.37ZM98.4,34.26c-.03.19-.1.4-.19.64.04.04.11-.11.19-.64ZM98.4,34.26c-.15-.51-.2-.42-.19-.21.04-.1.1-.07.19.21ZM98.21,34.05s0,.03-.01.05c0,.01.01.03.02.04,0-.03,0-.06,0-.09ZM20.5,38.09c1.3,2.82,4.33,1.23,3.95-1.16-.13-.2-.33-.58-.37-.75-.06-.12-.05-.18.15,0,.06.13.1.23.14.33-.4-1.87-5.11-1.07-3.88,1.59ZM24.24,36.17c-.14-.12-.17-.09-.15,0,.08.17.28.47.32.48-.04-.16-.1-.32-.17-.48ZM24.41,36.65c.02.09.03.18.05.27.13.2.19.2-.07-.43.01.05.03.1.04.16,0,0,0,0-.01,0ZM105.11,44.46c0,.12,0,.21,0,.28.15-.06.13-.17,0-.3,0,0,0,0,0,.01ZM105.1,44.44s0,0,0,0c-.13-.41-.16-.37-.15-.21.02-.08.06-.05.15.21ZM103.32,43.51c-.49.02-.96.12-1.41.31-.15-.54-.49-.85-1.05-.92-1.95-.27-1.74,2.95,1.05,1.55.08,1.56,2.59,1.7,3.1.46-.04-.15-.07-.44-.06-.61-.47-.36-1.42-.8-1.63-.8ZM104.97,44.32c.02.19.08.44.1.43.02-.09.04-.19.04-.3,0,0,0,0,0-.01-.04-.04-.08-.08-.14-.12ZM105.07,44.76c-.01.06-.04.11-.06.16.03.14.07.15.09-.17-.01,0-.02,0-.03.01h0ZM104.96,44.23s0,.04,0,.07c0,0,.01,0,.02.01,0-.03,0-.06,0-.09ZM97.12,46.05c-.26,1.14.68,1.58,1.28.96.1-.84-.44-1.04-1.28-.96ZM24.24,59.76c2.04.33,2.89-.52,2.56-2.55-2.26-2.31-4.87.99-2.56,2.55ZM102.87,58.8c.36-1.76-.82-3.25-2.24-2.23-.09,1.58.65,2.33,2.24,2.23ZM22,60.72c-.2-.46-.39.03,0,0h0ZM22,60.72c.19.46.39-.03,0,0h0ZM96.16,67.41c-.7,1.18-.43,3.71,1.28,3.51,1.02-1.08.16-3.09-1.28-3.51ZM86.57,69.64c-.08.27-.06.49.02.69-.03-.16-.04-.38-.02-.69ZM86.59,70.33c.02.12.05.2.08.25-.01-.04-.02-.09-.02-.13-.03-.04-.04-.08-.06-.12ZM90.5,68.94c-1.13-.64-2.73.78-3.93.7.2.01.32.08.4.17.34.3.39.88-.1.85,0,0-.01-.01-.02-.02-.06.02-.12,0-.17-.07.6,2.34,3.45,5.18,4.51,1.68.28-.93.31-2.74-.69-3.31ZM86.85,70.65c.19-.08.36-.57.12-.83-.11-.09-.24-.16-.4-.17-.01.25.02.53.08.81.05.07.12.14.2.2ZM103.19,72.19c.11-1.27.02-2.36-.64-2.87-3.43-.68-2.5,3.96.64,2.87ZM73.46,75.7c0-.32-.56-.4-.64,0,.36-.03.5.46.64,0ZM93.89,83.31c-.12-.13-.43-.15-.6.35.22.02.45-.15.6-.35ZM94.65,77.56c-1.76.69-.99,4.11-1.28,5.77.1-.29.29-.52.56-.67.27.02.18.38-.04.66.13.14.06.41-.6.35,4.61.4,4.33-7.27,1.37-6.11ZM68.35,83.03c.19-1.15.56-2.96-.96-3.19-.36.97-.45,3.07.96,3.19ZM49.81,80.8c-.72.24-.13,1.79-.32,2.55,1.38.78-.1-1.38.32-2.55ZM45.34,87.81c-.17-.18-.28-.36-.38-.54-.28-.24-.35-.24.38.54ZM45.81,88.12s-.13-.17-.29-.33c-.08-.02-.16-.05-.24-.07.05.02.33.23.53.4ZM45.66,88.06c.12.09.23.18.35.27,0-.01-.09-.1-.21-.2.01.03-.03.01-.15-.07ZM45.66,88.06c-.11-.08-.22-.16-.32-.24.15.12.25.19.32.24ZM45.52,87.8c1.64.45,4.09-.02,3.02-2.53-1.85-1.6-4.57.13-3.57,2.01.16.13.38.34.56.52ZM30.31,91.96c-.56,2.07,2.41,1.98,2.23.32-.41-.44-1.38-.31-2.23-.32ZM72.59,95.17c-.33.04.28.06.66.05-.01,0-.03,0-.04,0-.31.01-.9,0-.61-.04ZM73.26,95.22c-1.7.35-4.2,2.63-1.23,3.64,2.68.91,3.12-3.04,1.23-3.64ZM73.24,95.21s0,0,.01,0c0,0,.02,0,.03,0-.01,0-.03,0-.04,0ZM73.28,95.21c.3,0,.39-.03-.46-.07.14,0,.26.03.38.06.07,0,.13,0,.16-.01-.03,0-.05.01-.08.02ZM72.82,95.14c-.11,0-.18.02-.23.02.05,0,.13-.02.23-.02ZM46.29,102.16c.8-.68,1.11-1.87,1.28-3.19-2.16-.53-3.01,2.67-1.28,3.19ZM53.17,99.09s0,0,0,0c.03.01.06.03.1.05.26-.03.27-.09-.58-.17.18.02.33.06.48.12,0,0,0,0,0,0ZM53.27,99.14c-.08.01-.19.02-.3.02-.76.25-1.24.19-1.53,1.45-.19.83-.25,2.61.88,2.86,2.05.45,2.72-3.46.95-4.32ZM53.17,99.09c-.2.08-.5.08-.73.05.12.02.33.03.52.02.07-.02.13-.04.2-.07,0,0,0,0,0,0ZM52.69,98.97c-.33-.03-.44.02-.33.16.02,0,.06,0,.09,0-.15-.03-.16-.08.24-.17ZM64.2,101.52c.25-.07.63,0,.64-.32-.24.07-.63,0-.64.32ZM50.77,102.8c.09.09.49-.15.32-.32-.09-.09-.49.15-.32.32Z"/>
    </g>
  </g>
</svg>