<?xml version="1.0" encoding="UTF-8"?>
<svg id="Layer_2" data-name="Layer 2" xmlns="http://www.w3.org/2000/svg" viewBox="0 0 108.05 107.82">
  <defs>
    <style>
      .cls-1 {
        fill-rule: evenodd;
      }
    </style>
  </defs>
  <g id="food_icons" data-name="food icons">
    <g id="donuts2">
      <path class="cls-1" d="M13.2,31.08c-.06.14-.1.29-.09.49.27,0,.18-.42.09-.49ZM48,16.12c-.17.24-.3.51-.37.78.16.21.33-.41.37-.78ZM20.59,32.21c-.15-.02-.29-.03-.45,0-.05.03-.1.07-.14.11-.1.14.57-.03.59-.1ZM36.12,24.87c.15.03.09-.39,0-.72-.04.24-.05.49,0,.72ZM27.49,29.34c.02.12.1.35.21.62.2.15.26-1.07-.21-.62ZM32.68,15.19c-.06.29-.08.56-.07.75.54.17.24-.85.07-.75ZM42.2,10.85c.17-.07.25-.11.29-.15-.09.05-.18.1-.29.15ZM103.14,42.45c-2.23.8-3.7,2.27-6.22,2.2-1.96-.06-3.96-.5-5.55-1.69-1.67-1.27-1.4-3.32-1.72-5.28-.05-.29.22-1.57.12-1.68-.33-.36-.86-.64-.58-1.24,1.37-.49-1.62-2.96-2.53-2.9-1.54.11-3.13-.58-4.21-1.77-1.32-1.46-.59-4.84-.14-6.66.15-.6,1.19-4.3,1.62-4.51,1.31-.63,1.33-3.78.58-4.77-.92-1.21-3.5-1.35-4.26.2-1.52.26-1.74,2.13-3.52,1.91-1.91-.55-3.93-1.2-5.44-2.55-.41-1.27-.09-3.63-1.56-4.3-1.6-.73-2.92.38-4.2,1.12-.63,1.12.29,3.39-.96,4.14-1.25,1.26-3.32,1.34-4.98,1.32-3.64-.05-7.66-6.94-8.61-9.97-.2-.65.09-1.5-.41-2-.47-.47-.87-.67-.7-1.46,0-.1.37-2.47-.23-2.55.06.04-.15.2-.09,0-.4,1.39-8.66,2.11-10.13,2.52-3.81,1.06-7.51,2.54-10.72,4.85-3.23,2.31-5.83,5.36-9.17,7.46-3.03,1.91-5.81,4.2-8.27,6.8C5.98,27.21,1.45,34.48.65,42.26c-.38,3.73-.86,7.47-.56,11.22.26,3.28.82,6.26,1.31,9.45,1.17,7.77,5.71,15.65,9.86,22.2,4.24,6.69,8.92,13.21,16.05,17.07,3.06,1.66,7.01,2.53,9.77,4.6,3.66.08,7.22,1.09,10.9,1.02,1.73-.04,2.65-.72,4.21-1.19,1.91-.57,4.44-.14,6.42-.14,4.15,0,8.67-.67,12.6-2,8.27-2.81,17.18-6.18,23.57-12.35,6.87-6.64,12.67-15.98,12.6-25.85-.02-3.38,3.2-26.48-4.23-23.83ZM48,16.12c.68-.99,1.98-1.58,2.44.05.33,1.18.14,2.11-1.19,2.34-1.6.28-.92-.72-1.62-1.62.33-1.25.42-1.14.37-.78ZM41.88,10.21c.25.13.36.35.32.64-.05-.19.43-.26.29-.15.68-.41.87-1.06,1.94-.81.6.66.83,1.87.44,2.68-.92,1.89-3.17-1.75-3.63-1.72.25-.18.47-.39.64-.64ZM36.52,16.97c.64-1.76,3.92-1.56,3.19.73-.58,1.83-3.23,1.36-3.27-.44.01.02.04-.13.07-.28-.03.08-.06.16-.08.25.18-.9.14-.56.08-.25ZM36.13,24.15c.25-1.38,1.81-2.58,2.9-1.14.57.75-.07,1.75-.78,2.2-1.22.76-1.25-.17-2.13-.34-.31-1.52-.12-1.21,0-.72ZM32.68,15.19c.31-1.59,1.58-4.1,2.87-1.85,1.41,2.47-1,3.23-2.94,2.61-.04-.52,0-.72.07-.75ZM30.55,32.17c-.71,2.08-2.27-.79-2.85-2.22-.06-.05-.14-.22-.21-.62,1.58-1.48,3.57,1.34,3.06,2.84ZM28.45,41.13c-1.27,2.13-4.85,3.22-4.06-.75.26-1.31,1.01-.84,2.14-.84.5.54.36,1.44.96,1.91.16,0,1.65-.61.96-.32.46-.2-.28.47,0,0ZM19.18,22.32c1.13-.98,2.32-2.23,3.84-2.23.76,0,2.26-.26,3-.8-.52.33-1.14.14.19-.16-2.69.59-2.62-2.97-.96-4.14,1.78.04,1.96,2.67,1.28,3.83,1.91,0,2.81.19,1.63,2.26-.93,1.63-.91,1.02-2.34,1.49-1.21.4-2.31.42-3.45,1.02-1.05.55-.54.9-1.59.65-.74.35-2.52,2.47-2.85.55-.16-.9.31-2.17,1.25-2.47ZM21.43,35.21c-2.1,1.19-2.63-1.9-1.43-2.89.02-.03.06-.06.14-.11.35-.04.46-.02.45,0,1.52.18,2.5,2.04.84,2.99ZM13.2,31.08c.26-.57,1.02-.72,1.18-1.42.71.29-.23,1.82-.32,2.23-.28-.22-.6-.32-.96-.32-.02-.43.04-.53.09-.49ZM31.65,94.05c-.27,1.01-.42-.57-.32-.96.27-1.01.42.56.32.96ZM103.99,59.99c-.05,3.4,0,5.79-2.02,8.55-.12,2.09-2.69,5.25-3.88,6.92-.93,1.31-1.24,3.1-1.46,4.72-.23,1.66-1.44,3.26-2.36,4.72-1.11,1.75-3.4,2.45-4.45,4.04-.56-.23-.04-.62,0-.96-1.2.08-2.2,1.88-3.38,2.36-1.88.77-3.71,1.62-5.57,2.42-.7-.1-2.39.35-3.17.66-1.75.69.02,1.1.18,1.95.06.29-6.84,3.25-7.34.92-.39-1.78-7.17.45-8.54.58-1.87.19-3.75.31-5.62.53-1.65.2-2.13-1.57-3.51-2.54-2.37-1.67-5.7.2-6.53,2.68-1.33-.12-3.97.74-3.59-1.09.23-1.14.15-2.91-.88-3.69-.83.1-1.56.5-1.92,1.28-.5-.38-1.03-.7-1.6-.96-.83,1.01-1.57,1.32-1.98,2.65-.34,1.11-1.91.34-1.83-.55.12-1.45.5-2.87.58-4.33.07-1.18-.07-2.58-1.25-3.19-1.51.54-1.98,2.02-1.92,3.51-.96.12-.68-1.07-.96-1.59-.67.4-1.62,1.2-1.82,2.01-.1.42,0,1.19-.46,1.45-1.39.8-1.66-1.85-1.55-2.5-.84-.33-.79.84-1.36.88-.55.03-1.68-1.07-2.1-1.44-1.13-1-2.78-2.16-3.57-3.58,0-1.36.85-6.94-.32-7.97-1.22-.14-1.45,3.79-1.92,4.46-2.09-.32-1.66-1.54-1.61-3.12.04-1.5-.18-3-.44-4.47-.41-2.29-1.18-.21-1.14.85.05,1.11-.55,2.12-.64,3.25-1.09-.8-.74-3.03-.58-4.14.31-2.1.04-4.28-.38-6.38-1.32.68-1.49,2.38-2.24,3.51-.94-.71,0-3.49,0-4.46,0-1.97.88-4.86,0-6.69-2.13,1.3-2.17,4.53-2.55,6.69-1.59-2.26-2.69-5.77-2.39-8.44.26-2.29.46-6,1.52-8.05.89-1.72,1.23-2.06-.72-3.27-.97.12-1.79,1.38-1.44,2.31.5,1.32-.54,1.7-1.12,3.11-3.28-4.3.96-9.85.96-14.19,0-2.45-.18-3.71,1.91-5.26,1.79-.03,2.52.93,3.67-.01,2.98-2.45,3.82,7.2,4.69,8.49,2.08,3.05,5.7,3.86,9.16,3.56,2.16-.19,4.42-.68,6.21-1.99,1.84-1.35,1.69-2.99,1.84-5.06.16-2.01.78-3.92,1.13-5.88.37-2.09,2.73-2.67,4.3-3.89,3.75-.83,9.79,2.02,12.41-1.2,2.6-3.21,2.7-7.96,2.61-11.88,1.13.09.99,1.68,2.24,1.59.2.95,1.82,1.45,2.55,1.6,2.69.56,5.76.82,8.32-.97-.29-3.68,1.87-3.03,4.11-1.35,1.82,1.36,4.22.49,6.43.38.07-.03.34-.04.97.01.5,1.27,1.19.36.97,2.13-.15,1.23-.67,1.66-.66,2.98.03,2.26.33,4.52.97,6.68,1.55,1.67,3.73,2.55,5.71,3.59,1.26.67,1.66,3.42-.28,3.74.14.75,1.77.19,2.24.32-.43.91.09,1.28.64,1.91v2.39c0,1.51-.28,2.68.99,3.69,2.57,2.04,4.7,2.53,7.85,2.49,1.16-.01,2.83-.05,3.62,1,1.09-1.61,3.19-.47,3.48.89.75,3.5.84,7.08.78,10.64ZM77.68,17.54c-.32-.03-.64-.03-.97-.01-.19.09,1.1.34.97.01ZM89.83,6.06c-1.61-.22-2.11.66-1.92,2.23,1.54,1.68,3.5-.8,1.92-2.23ZM106.77,13.08c.15,1-.09-2.44,0,0h0ZM106.77,13.08c-.06-1.91-3.24-2.62-4.26-1.09-1.88,2.81,4.66,3.79,4.26,1.09ZM26.54,18.82c-.28-.06-.31.12-.32.32.2-.02.38-.05.32-.32ZM61.39,22.07c.31.03.63.1.95.25-.67-.31-.92-.34-.95-.25ZM62.34,26.47c.92-1.24.51-2.84,0-4.14.38.98-1.03-.03-.95-.25-1.94-.17-3.62,1.74-2.61,3.65.61,1.17,2.28,1.36,3.56.75ZM99.01,26.26c-.2.18-.09-.62.01-.94-.51-2.14-3.34-4.22-4.23-1.4-.83,2.62,2.74,4.35,4.21,2.34ZM99.02,25.32c.07.28.1.56.08.83.08-1.04,0-1.08-.08-.83ZM79.89,53.85c-.01.21,0,.43.03.67.33.35.06-.67-.03-.67ZM73.21,45.91c2.79.09-2.58-5.51,0,0h0ZM78.59,74.89c-.09-.1-.17-.2-.27-.29-.26,0,.45.54.27.29ZM59.14,78.11c-.2-.14-.41-.25-.64-.35-.02.12.84.89.64.35ZM79.05,61.88c-.04.09-.07.19-.09.29.38.53.26-.64.09-.29ZM69.83,61.18c.11-.46-1.44,1.82-1.44,1.96.45-.52.88-1.06,1.29-1.61.06-.12.09-.24.14-.36ZM89.58,51.74c-4.96-3.68-10.14-5.63-16.37-5.83-1.7-3.63-4.05-6.95-6.97-9.71-3.36-3.18-6.29-4.5-10.96-3.89-3.79.49-6.66,2.39-10.06,3.86-3.19,1.38-8.11,4.12-9.7,7.29-.35.7-.81,1.33-.95,2.12-.29,1.59-.5.64-1.43,1.78-.94,1.16-.93,2.91-1.17,4.3.54,4.27-.64,8.31,1.64,12.24,2.11,3.63,5.5,5.04,8.64,7.58,1.29,1.05,3.03,1.5,4.1,2.81v6.06c-1.46-2.37-4.21.23-3.2,2.55.74.71,1.8.27,2.62.02,1.43-.43.76.96,1.13,1.91,1.89,4.86,7.54,5.7,12.23,5.72.67-.62,1.85-.67,2.24-1.59,1.17-.72,1.47-1.82,2.73-2.43,2.3-1.1,1.71-2.81,4.91-2,5.01,1.27,9.99,3.36,13.46-1.94,1.34-2.05,2.29-6.23.74-8.47-1.07-1.55-3.17-2.52-4.07-4.11-1.5-2.64,3.45-2.92,4.89-3.08,2.8-.31,4.99-2.02,7.13-3.77,2.14-1.75,3.24-3.98,3.21-6.82-.03-2.65-3.01-3.25-4.81-4.59ZM50.19,75.24c.06-.36.32-.18.32,0-.06.36-.32.18-.32,0ZM50.83,83.21c-.71-.04-.13-1.35-.32-1.91,1.06.18.46,1.2.32,1.91ZM54.67,85.44c.52-.09.55.3.96.32.12.62-1.45.46-.96-.32ZM57.22,86.4c-.15-.68.46-.61.96-.64-.14.39-.41.66-.96.64ZM58.51,81.4c-1.24.22-2.77-.38-3.53-1.38-.42-2.23,1.82-2.95,3.52-2.26,0-.05.17.01.64.35.46,1.26,1.37,2.94-.63,3.29ZM58.18,75.24c0-.31.39-.25.64-.32,0,.31-.39.25-.64.32ZM63.78,71.82c.56-.87,2.93-.25,3.04.87-1.3-.82-.93,1.17-1.49,1.81.11-.17-.55-.08-.9.02.23.07.48.12.78.09-1.17.11-1.12,0-.78-.09-1.07-.34-1.34-1.64-.66-2.7ZM64.62,81.44c-1.32-.98-.62-2.95.96-3.28.08-.04.26-.07.59-.05,1.31,1.73,1.37,5.49-1.55,3.33ZM68.4,63.14c-1.58,1.83-3.41,3.42-5.62,4.48-1.05.5-9.57,2.07-9.16,1.17.05-.11.73-.41.73-.41-.32-.64-3.44-1.42-4.05-1.41-1.54.01-3.62.2-5.02-.61-2.85-1.64-4.77-3.85-5.56-7.07-.92-3.74-1.16-7.62-1.05-11.46.56-3.02,4.83-5.12,7.17-6.45,3.16-1.79,7.22-4.39,10.94-4.39s6.15,2.29,8.36,5.1c3.93,5,7.42,12.79,4.68,19.09-.01.06-.06.18-.14.36-.96,1.29-1.29,1.67-1.29,1.61ZM72.57,75.56c-1,1.21-2.74.46-3.13-.81-.1.11-.18-.02-.07-.78,1.49-.58,3.48-.84,3.2,1.59ZM74.01,65.97c-.05.04-.19.05-.48.02.16.02.32,0,.48-.02.18-.12-.78-.49-.58-.12-1.19-1.53-.26-2.74,1.19-2.46,1.93.37.88,2.33-.61,2.58ZM79.28,78.43c-1.82,0-2.29.3-2.78-1.53-.09-.33-1.35-2.04-.17-1.83,1.04.19.8-.46,2-.46.15.15.23.24.27.29.85.98,1.36,2.28.69,3.53ZM79.89,53.85c.07-1.17.88-1.76,2.27-1.56,1.29,1.9-.62,3.95-2.24,2.23-.07-.5-.06-.67-.03-.67ZM82.79,62.48c-1.67.27-2.45,1.59-3.83-.31.03-.15.06-.24.09-.29.62-1.65,3.32-1.67,2.79.29.79-.5,1.67-1.97,2.43-.62.58,1.02-.91.84-1.49.94ZM69.37,73.96c-.04.27,0,.53.07.78.16-.17.36-.94-.07-.78ZM66.17,78.11c-.21-.01-.4.01-.59.05-.39.19,1.22.79.59-.05ZM80.24,40.81s-.06,0-.1,0c-.13,0-.16.01.1,0ZM80.14,40.8c.05,0,.12,0,.2-.01,2.33-.26,2.58-5.06,0-4.77-2.39.27-3,4.71-.21,4.78ZM80.35,40.79s-.07.02-.11.02c1.31-.06.58-.04.11-.02ZM24.9,53.4c-.05.11-.1-.32-.11-.64-.61-1.3-2.87-1.48-3.38.05-.8,2.37,3,3.34,3.49.59ZM24.79,52.76c.07.15.12.31.15.48-.13-1.09-.16-.87-.15-.48ZM24.94,53.24c0,.06-.02.1-.03.16.01-.02.02-.07.03-.16ZM20.14,55.79c-.09-.09-.49.15-.32.32.09.09.48-.15.32-.32ZM27.83,66.86c.02-1.01-.15-2.16-1.05-2.74-1.28-.84-2.33-.53-2.5.95-.11.96-.08,2.58.99,3.05,1.4.62,1.5-.61,2.54-.85-.73.17.04-2.05.02-.41ZM24.02,71.26c.02.26.01.53-.05.79.65-2.75.25-1.7.05-.79ZM24.02,71.26c-.18-2.11-2.87-4.01-4.76-2.52-1.27,1.01-.94,2.97.29,3.83.94.65,2.23.96,3.33.56.26-.09.97-1.07,1.09-1.08-.1,0-.04-.38.05-.79ZM35.91,73.04c-.01.2-.05.4-.1.6.25-.9.2-.85.1-.6ZM35.91,73.04c.21-2.94-3.91-5.57-4.19-1.88-.16,2.11,2.28,4.41,4.08,2.49-.13.14,0-.34.1-.6ZM36.44,74.28c-.25,1.23,1.53,1.23,1.28,0h-1.28ZM22.06,86.4c0,.18.26.36.32,0,0-.18-.26-.36-.32,0ZM28.13,87.35c-.1,1.3,2.19,1.77,2.24.32,0-.93-1.8-.75-2.24-.32Z"/>
    </g>
  </g>
</svg>