<?xml version="1.0" encoding="UTF-8"?>
<svg id="Layer_2" data-name="Layer 2" xmlns="http://www.w3.org/2000/svg" viewBox="0 0 113.97 112.86">
  <defs>
    <style>
      .cls-1 {
        fill-rule: evenodd;
      }
    </style>
  </defs>
  <g id="food_icons" data-name="food icons">
    <g id="eggplant">
      <path class="cls-1" d="M8.28,75.52c-.03.12-.07.23-.08.35,0,.22,0,.44,0,.66.01.39.11-.79.09-1.01ZM22.59,91.49c.63,0,.38-1.11,0,0h0ZM106.02,4.46c.21,1.07.91-.57,0,0h0ZM40.89,92.6c.07.1.15.18.24.17.08-.35-.15-.28-.24-.17ZM109.54,0c.13,0,.26.01.38.03-.07-.02-.18-.03-.38-.03ZM113.22,14.13c.9-2.76,1.11-6.23.02-8.9-.65-1.61-1.24-4.86-3.32-5.2.51.16-2.31.86-.38-.03-1.98.92-6.3,1.79-6.05,4.57.22,2.54,1.58,4.61,1.58,7.23,0,2.93-.66,5.93-2.29,8.46-.9,1.39-1.91.26-3.02-.41-1.41-.85-2.8-.79-4.4-.72-1.6.07-3.2.49-4.77.11-1.41-.34-2.78-.84-4.25-.78-2.6.11-5.01,1.2-7.54,1.41-1.45.12-6.59.22-5.9,2.67.47,1.67,2.6,1.96,3.09,3.61-2.19.46-1.89,2.56-3.26,3.38-1.22.73-2.18,2.35-3.25,3.3-1.51,1.33-2.96,2.68-4.44,3.92-1.27,1.07-2.33,1.28-3.75,2.11-2.72,1.6-4.23,4.4-7.32,5.49-3.76,1.33-7.8,1.75-11.75,2.16-2.66.27-5.33.5-7.98.87-1.52.21-4.26,1.35-5.68.56-2.08-1.16-7.86,1.85-9.73,3.02-2.23,1.4-4.37,3.05-6.68,4.3-1.81.98-3.18,2.8-4.9,4.04-.46,1.55-1.94,3.19-2.78,4.56-1.14,1.89-1.7,3.84-2.28,5.93-1.4,5.09-3.54,9.02-1.03,14.06.78,1.56.42,3.61,1.09,5.23.72,1.77,1.24,3.47,2.32,5.08,5.37,7.94,11.44,13.56,20.71,16.67,4.88,1.63,9.63,1.72,14.73,1.99,4.85.26,8.19-.73,12.31-3.32,7.52-4.72,15.79-8.79,22.74-14.27,3.83-3.02,7.36-6.65,10.53-10.45,1.27-1.51,2.44-2.55,2.21-4.55-.16-1.39,2.17-3.75,3.2-4.68.87-2.63,2.9-4.41,3.99-6.86.96-2.12,2.05-4.19,3.33-6.12,2.41-3.65,3.56-7.99,6.1-11.57.5,1.07.75,2.34,2.24,2.23.99-.95,1.38-2.46,1.91-3.67,1.16-2.65,1.94-5.61,2.86-8.42.75-2.32.72-5.46-.77-7.36-.61-.78-1.06-1.52-1.86-2.13-.88-.68-.75-2.42-1.06-3.41-.92-2.98.01-3.62,1.17-6.23,1.21-2.73,3.33-4.9,4.3-7.88ZM108.58,34.75c.72.1,1.51,2.17,1.81,3.62.12.11.22.47.11,1.17-1.11-1.51-2.06-2.8-1.92-4.78ZM79.49,22.32c.11.29-.36,1.65.32,1.59-.66.58-.76.44-.56.25-.84.04-1.62-1.27-2.32-1.53.26-.78,2-.18,2.56-.32ZM12.68,65.99c.16.16-.23.41-.32.32-.17-.17.23-.41.32-.32ZM11.72,67.9c.17.16-.23.41-.32.32-.17-.16.23-.41.32-.32ZM9.8,67.27c-.09,0-.26-1.04-.08-.35-.02-.22.09-.28.33-.17.17.17-.37,1.19-.56,1.48-.62-.1-.15-.96.32-.96ZM9.16,68.54c.16.16-.23.41-.32.32-.17-.17.23-.4.32-.32ZM9.48,81.29c-1.05-1.32-1.28-3.1-1.29-4.76,0-.1,0-.3,0-.66.05-.38.08-.44.08-.35.34-1.24,1.4-2.14,1.51-3.47,1.26-.02-.39,2.63.64,3.35,1.19.83-.34,4.92-.96,5.9ZM11.08,69.18c-.31-1.33.95-.07,0,0,.34,1.69-.97.38,0,0ZM11.72,86.39c-.58-1.02-.46-4.06,0-5.1,1.41,1.38-.19,3.09,0,5.1ZM14.6,89.26c-.17-.16.23-.41.32-.32.17.16-.23.41-.32.32ZM16.51,84.8c-.93-.45.57-1.1.32-1.91.93.45-.09,1.58-.32,1.91ZM18.75,92.77c-.85-.97.03-2.94.32-3.83.89,1.33.55,2.82-.32,3.83ZM20.99,99.78c-1.71-.8.42-3.71,1.28-4.14-.64.32,0-.85,0,0v-2.55c.39.25.82.36,1.28.32.11,1.11-1.14,2.11-1.41,3.18-.29,1.11-.99,2.04-1.14,3.2ZM20.35,86.71c.06-.36.33-.18.32,0-.06.36-.32.18-.32,0ZM23.54,100.1c.17-.49.33-.02.32.32-.17.49-.33.02-.32-.32ZM23.87,92.13c-.84.22-.59-.63-1.28-.64.35-1.02.69-2.28,1.92-2.55-.23,1.06-.52,2.11-.64,3.19ZM25.46,87.03c-.16-.17.23-.41.32-.32.17.16-.23.41-.32.32ZM26.11,100.73c.06-.36.32-.17.32,0-.06.37-.32.18-.32,0ZM26.74,102.01c-.16-.16.23-.4.32-.32.17.17-.23.4-.32.32ZM27.38,91.17c-.17-.17.23-.41.32-.32.16.16-.23.41-.32.32ZM29.62,97.55c-1.05-.56.37-1.29.64-1.59,1,.51-.65,1.01-.64,1.59ZM32.13,94c-2.93,4.98-2.62-4.01-2.4-4.07-.38.1-.41.79-.9.67.52.1.28-.94-.08-.26.47-1.03,1.35-1.8,1.51-2.99,1.47.18,2.38,5.8,1.88,6.65ZM33.72,85.44c-.14.37-.51,2.35-.58,2.86-.89-.1-.53-1.33-1.28-1.59.7-.4.99-1.17,1.86-1.27,0,0,0,0,0,0-.83.05-.08-.32.03-.05,0,0-.02.02-.03.05.02,0,.03,0,.05,0-.02,0-.04,0-.05.01ZM34.73,92.77c-.04-.57.39-.67.32-1.28.56-.1.57,1.79-.32,1.28ZM35.37,100.1c.06-.36.32-.18.32,0-.06.36-.32.18-.32,0ZM37.61,81.93c-.03-.41.13.09-.19.77-.3.64-.89,1.08-1.09,1.79-1.38-.9.55-1.89,1.28-2.55-.73.66-.03-.38,0,0ZM39.85,98.18c-.8-.43-1.4,0-2.1.35-1.27.65-.87-.36-1.73-.99.13-.96,1.4.55.94-1.02-.13-.44-.44-.71-.56-1.1-.04-.05-.07-.17-.06-.43.49.02.8-.19.96-.64,1.2.74,1.12,2.59,2.88,2.55-.12.42-.23.84-.32,1.28ZM40.89,92.6c-.27-.4-.28-1.42.88-1.42.04.7-.5.97-.64,1.59-.3.02-.31-.09-.24-.17ZM41.45,95.31v-.95c.93-.47.93,1.43,0,.95ZM41.45,104.88c.44-.81,1.08-1.48,1.6-2.23.75.33.02,1.79.96,1.91-.26.78-2,.18-2.56.32ZM42.73,93.4c-.64-.36-.37-2.47,0-2.87.92.63-.11,1.99,0,2.87ZM43.68,100.42c-.11.42-.56.5-.64.96-.8-.13-.02-1.23.64-.96ZM51.36,100.18c-.47.63-1.19.95-1.29,1.83-.94-.21-.83-3.59-2.3-1.72-1.11,1.4-2.21.38-1.85-1.15.83-.91,2.68-1.14.15-1.66-1.06-.22.63-2.6-1.43-1.52.01-1.01.5-1.83.32-2.87,1.2.81,2.46-.47,3.2-1.28,1.49,1.69-1.23,3.62.79,5.59.75.72,3.2,1.75,2.41,2.79ZM51.68,95.31c1.15.22,1.79,1.26,2.88,1.6-.67,1.48-2.37.78-3.28-.08.31.25-.12-.57-.21-.36.1-.53.83-.37.62-1.16ZM51.99,101.69c1.23-.54.63-1.12.18-.4.45-1,1.22-1.77,2.06-2.47.75.17.64.89,1.6.64-1.11,1-2.49,1.64-3.84,2.23ZM68.62,89.9c.25-.49-.42-.45-.17-.15-.53-.51-.59-1.44-.79-2.08,2.16-.3,1.56,1.03.96,2.23ZM99.63,49.41c.13,1.17-.19,2.17-.58,3.25-.67,1.85-1.85,3.26-2.72,5.12-1.86,3.97-3.88,7.88-6.36,11.69-1.63,2.5-3.13,4.49-5.57,6.13-1.2.81-2.47,1.3-3.43,2.39-.74.85-1.53,1.67-2.45,2.33-.56.71-1.91,4.17-3.52,3.19,0-2.22.13-1.33,1.65-2.43.64-.46,1.04-1.13,1.55-1.71-1.51.31-4.03,1.46-4.53,2.88-.56,1.6-.91,3.35-1.87,4.78-.43-.02-.96-5.49-.96-6.06-2.46.4.32,6.48-2.47,6.38-1.66-.06-2.82.06-2.96,2.02-.13,1.86-.73,3.63-1.6,5.31-.92-.13-1.02-1.07-1.6-1.6-.95.22-1.18-.27-1.92-.63.11-.98,1.36-.97,1.59-1.87.4-1.51-.92-1.31-.95-2.28.1-1.59.04-3.44-.96-4.79-.92,1.15-1.6,4.57-1.6,6.06,0,1.57.9,2.63,1.78,3.86.82,1.14.83,3.65-1.09,2.62-.42-.23-.87-.26-1.33-.1-.5-.42-1.04-.77-1.62-1.07-.99-.5-2.07-.76-3.18-.85,0-1.2,2.74-2.69,1.78-3.85-.94-1.13-2.78,1.05-3.35,1.79-1.33,1.72-2.91-.11-2.15-1.38.2-.34,3.04-4.56,2.15-4.43-1.04.15-1.97,1.66-2.91,2.14-.61,1.72-2.58,2.42-3.2,4.14-.71-1.02-.24-2.48-.64-3.61-.38-1.09.58-1.81,1.36-2.69,1.67-1.86,3.43-3.64,4.08-6.14-1.99-.17-4.27,2.01-5.38,3.4-.82,1.04-1.8,1.97-2.68,2.96-.64.71-1.54,2.28-1.54.33-1.19,1.85-1.38,4.25-1.6,6.37-.72-.29-1.21-2.78-1.13-2.79-.94.1-.59-1.52-.53-2.18.19-2.25,1.46-4.22,1.64-6.47.14-1.69,1.81-2.43,2.26-4.18-.41-.85-1.29.51-1.92.32-.27.75-1.5.39-1.6,1.28-1.27.58-2.17,1.64-3.19,2.55-.5-.43.08-1.57-.2-2.15-.56-1.15-2.07,1.35-2.46,1.79-1.43,1.64-3.89,3.02-4.7,5.13-1.21-1.63,1.79-4.33,2.63-5.6,1.7-2.54-1.28-2.05-1.24-1.56-.08-.99,2.79-2.41,3.08-3.68-2.04.12-4.31,2.75-4.79,4.46-.42,1.48-1.62,2.49-2.86,3.33-.73.5.21-2.31.46-2.58.79-.9,1.86-1.73,2.08-2.97-.58-.49-3.42,1.52-3.4,1.77-.08-.97,2.11-1.87,2.12-3.04-2.21.86-3.54,2.82-5.12,4.46-.57-.86-.79-7.76-.24-7.87-.91.18-.3-.25-1.04-.42-.6.37-.36,1.38-.64,1.91-.51.45-.97.95-1.37,1.5-.84,1.13-1.47,2.38-2.15,3.6-.69.05-.21-1.3-.32-1.59-.47.55-.68,1.19-.64,1.91-.86-1.68-1.25-3.54-1.28-5.42-.15-.99,1.11-.92.96-1.91-.69,0-.44.86-1.28.64.38-2.95,2.69-4.75,3.84-7.33.71-.81,4.35-6.69,4.64-6.69-.49,0-2.22,2.16-2.55,2.5-1.17,1.21-2.83,2.83-3.36,4.51-.41-.02-.65-2.86-.61-3.3.1-1.2,3.39-3.13,4.45-4.04.73-.18,3.11-.81,2.54-2-.36-.77-.74-1.01-1.63-.91-.4.04-2.82.95-2.19.68-.46.2,1.39-2.23,0,0,1.94-3.12,8.27-3.99,11.55-3.79,4.12.26,8.95-1.53,13.39-.68-.37.74-2.28,1.23-1.2,2.14.74.63,1.95.38,2.82.25,2.43-.35,4.71-.8,6.98-1.79,4.51-1.96,7.5-5.6,11.84-7.8,4.66-2.36,7.48-6.17,11.42-9.41,1.22-1,2.42-2.04,3.49-3.22,1.16-1.27,1.32-.66,2.94-.56,2.6.17,5.18-.33,7.75-.66-.6,3.07-1.58,6.18-1.18,9.34.45,3.62,4.23.99,5.65-.42,1.75,2.73-.85,6.29.96,8.61,2.42.32,5.05-1.51,7.67-1.91-.08,1.11-.69,1.95-1.59,2.55ZM27.38,80.01c-.04-.39.46-.2,0,0,.04.38-.47.2,0,0ZM107.11,21.29c.13.72-.65,2.03-1.73,1.98.06,2.16-1.44,5.19-2.96,6.4-1.44,1.15.86,2.43,1.68,3.16.51,1.65,1.92,2.87,2.25,4.45.14.66-.02,4.07.71,4.4.9-.22,1.2.12.89,1.02.13.52.24,1.05.34,1.57.12,1.09-1.74,6.42-2.65,4.43-.68-1.5,1.05-.34-.35-2.08-.47-.59-.95-1.18-1.45-1.75-.62-.69-2.59-2.64-2.3-.26-1.5-.53-2.97.3-4.48.32.06-2.59-.94-5.04-.64-7.65-.91-3.05-3.4-.45-5.11,0-.17-2.7,2.17-6.37.61-8.87-.89-1.42-4.02-.47-5.47-.26-.67.1-3.43.94-3.96.42-.24-.24.89-1.1.82-1.5-.34-1.08-1.71-1.16-2.56-1.59.25-.79,2.19-.19,1.6-1.6-.32-.77-1.31-.44-.96-1.59,1.2.52,4.13,2.57,5.43,2.23.34-.12.3-1.12,1.04-1.58.97-.61,1.51-1.41,2.8-1.29-.05.86-.36,1.39,0,2.23,1.17.03.95-1.5.96-2.23,1.42-.06,2.92-.12,4.3.3,1.41.43,1.65,1.79,2.41,2.88.72-.05.97.43,1.28.96.6-.74,1.63-.74,2.23,0,0-1.44,1.74-2.89,3.08-3.78,1.48-.98,2.17-3.48,2.75-5.21.72-2.16.77-4.51.34-6.73-.39-2.03-1.64-3.74-2.02-5.64,1.01-.63,2.76-1.96,3.48-.92.96,1.39,1.11,3.18,1.63,4.75,0,3.24-.71,6.29-2.13,9.25-.55,1.14-2.14,2.41-1.9,3.76ZM36.33,95c0,.16.01.3.06.43.12.14.35-.42-.06-.43ZM41.45,104.88c.76-.2.45-.83,0,0h0ZM110.5,39.53c.04-.24,0-.67-.11-1.17-.21-.19-.49.36.11,1.17ZM44.96,93.08c.22,1.28,1.21.81,0,0h0ZM79.81,23.91c-.25.02-.45.14-.56.25.18,0,.37-.08.56-.25ZM92.27,24.87c-.66.66,0,1.62.96,1.59.15-1-.4-1.3-.96-1.59ZM94.19,29.33c-.24-.07-.45-.17-.64-.32.26.06,0,.32,0,0-.07.23-.17.44-.32.64.23.07.44.17.64.32.07-.23.18-.44.32-.64ZM100.33,32.03c1.38-.81.62-2.4-.8-2.38.09.05-.4.26-.31.1-.72.87-.28,3.1,1.12,2.27ZM99.31,29.65c.08-.01.15,0,.23,0-.03-.01-.08-.02-.23,0ZM97.21,30.41c-1.83-1.99-4.86,1.74-3.01,3.7,2.19.63,3.1-.93,3.18-2.95-.1.82-.61-1.11-.17-.76ZM97.21,30.41c.06.07.12.12.18.2-.07-.1-.13-.16-.18-.2ZM100.4,34.3c.25,0,.53.03.82.13-2.01-.67-1.49-.38-.82-.13ZM100.4,34.3c-1.68.04-2.38,2.2-1.29,3.65.94,1.25,2.19.12,3.07-.65.87,1.23,2.05,2.16,3.52,2.55.74-1.46-.36-2.36-1.62-2.86-.62-.25-1.26-.42-1.9-.65-.2-.67-.51-1.28-.92-1.85.01.1-.45-.04-.86-.19ZM37.61,59.61c.1.04.2.09.29.17-.07-.06-.16-.12-.29-.17ZM37.9,59.78c.43.39-.44.9-.29-.17-.21,1.54.36,2.78-.05,4.43-.17.67-.59,3.58,1,2.77,1.59-.8.79-5.93-.66-7.04ZM34.73,59.93c.51-.09.05,2.72,0,0,.04,2.13-1.25,4.04-1.22,6.16.03,1.7,1.2,2.38,1.9.6.43-1.1.91-7.04-.68-6.76ZM45.56,66.69c.24-1.24-.2-2.49-.27-3.73-.26-4.2-2.38.81-3.52,1.12-.1-.72.4-2.59-.55-2.85.62.24-.81,1.62-.41-.02-.27,1.1-1.35,6.17-.23,6.45,1.79.45,1.42-1.62,2.79-2.3-.33,1.27-1.23,6.35,1.43,5.25,1.41-.58,1.52-2.45,2.09-3.65-.86-.36-1.7,1.69-1.32-.26ZM60.31,63.12c.31-1.45-1.34-2.01-2.23-1.28.17,1.22,1.24,1.73,2.23,1.28ZM25.14,62.8c-1.81,1.42-3.64,2.26-5.16,4.02-1.6,1.86-3.03,3.85-4.43,5.86.17-.65-.04-1.07-.64-1.28-.49.46-.69,2.83-.67,3.47.02,1.14-.73,1.85.67,2.58,1.73-3.37,3.78-6.59,6.27-9.47.47-.54,4.52-4.47,4.15-5.1-.09.19-1.03.56-.2-.1ZM25.14,62.8c.11,0,.17.04.2.1.03-.06-.02-.1-.2-.1ZM50.35,63.18c-1.9.58-.99,5.53.51,4.58,1.11-.71.69-3.4-.02-4.45.1.29-.69,0-.5-.13ZM50.35,63.18c.11-.04.24-.06.37-.06-.21,0-.32.03-.37.06ZM13.32,72.68c.47-.2-.03-.39,0,0h0ZM61.27,76.19c.46-.2-.03-.38,0,0h0ZM61.27,76.19c-.07.2-.24.55-.5.99.15-.18.33-.49.5-.99ZM60.9,76.39c-1.76,1-2.84,3.11-4.11,4.58-1.38,1.59-3.1,2.93-4.16,4.78,1.72,1.08,6.53-5.76,8.14-8.57-.49.6-.75-.19.13-.79ZM30.58,92.45c.39-.48.63-2.74,0-3.19.38,1.26-.98,2.4,0,3.19Z"/>
    </g>
  </g>
</svg>