<?xml version="1.0" encoding="UTF-8"?>
<svg id="Layer_2" data-name="Layer 2" xmlns="http://www.w3.org/2000/svg" viewBox="0 0 107.95 87.72">
  <defs>
    <style>
      .cls-1 {
        fill-rule: evenodd;
      }
    </style>
  </defs>
  <g id="food_icons" data-name="food icons">
    <g id="eggs">
      <path class="cls-1" d="M55.38,31.88c-1.89-4.28,0,1.06,0,0h0ZM59.85,34.43c5.71-.38-.03-3.69,0,0h0ZM106.2,53.23c-1.45.14-2.43-2.13-3.26-3.07-1.46-1.65-3.24-2.84-4.83-4.33-3.17-2.98-6.8-5.34-11.09-6.3-3.1-2.72-9.26-5.01-13.34-4.64-4.62.42-9.2-.77-13.83-.46-.02-2.47-1.24-4.49-1.89-6.8-.59-2.13-1.1-4.19-1.95-6.27-1.06-3.04-3.4-6.15-5.23-8.81-1.52-2.2-3.18-4.12-5.03-6.06-1.75-1.84-3.75-2.4-5.78-3.89C36.76.26,31.88-.09,28.11.02c-4.7.13-9.15,4.3-12.68,6.97-3.57,2.7-6.73,7.08-8.47,11.15C3.79,25.56.38,32.62.33,40.95c-.03,4.7-.94,10.9.38,15.38,1.25,4.24,3.2,9.25,6.12,12.57,1.98,2.24,4.13,4.31,6.35,6.32,1.97,1.78,3.39,2.48,5.76,3.5,3.76,1.62,8.9,1.3,13.01,1.55,2.54.15,4.34-.21,6.06-2,.91-.94,3.11,1.49,3.93,2.07,1.51,1.06,2.58,2.49,3.95,3.71,1.44,1.28,3.11,1.94,4.69,2.98,1.59.04,3.25.09,4.8-.32.82.33,1.69.54,2.57.68,2.09.35,4.23.37,6.34.31,1.94-.06,4.31.07,6.13-.66,2.28-.92,3.5-1.47,6.02-1.61,4.55-.25,8.55-2.16,12.81-3.56,2.16-.71,3.25-2.1,5.19-3.28,1.22-.74,3.06-2.79,4.43-3.03.46-.88,1.62-.97,2.38-1.45.79-.5,1.15-1.65,1.63-2.41,1.22-1.94,2.16-4.02,3.19-6.06,2-3.95,2.94-8.61.15-12.39ZM22.45,72.04c-.16-.16.23-.41.32-.32.17.17-.23.41-.32.32ZM38.25,45.24c-1.91,1.87-2.79,3.12-3.88,5.53-1.11,2.45-.8,5.3-1.35,7.93-.33,1.56-.65,3.13-.67,4.73-.12.69.54.86.32,1.59.65.92,3.32,4.88,2.31,5.81-1.11,1.01.94,3.21,1.21,4.39-.79-.19-3.97.96-4.31.46-.66-.94,1.14-.78-1.44-.78-.61,0-1.92.31-2.18-.54-.82-2.68-2.21,1.68-3.49-.72-.49-.93-3.51-5.22-3.29-1.61-1-1.01.25-2.41.32-3.51-1.72-.22-1.34,1.71-2.59,2.16-1.72.61-1.05-2.76-.87-3.49.13-.51.73-5.5-.71-3.33-.82,1.23-1.82,1.85-2.23,3.39-1.96-1.13.15-3.83.13-5.47-.03-2.79-2.92.96-3.32,1.64-7.05-7.27-6.7-20.16-5.37-29.31.58-4,1.24-9,3.02-12.64,1.86-3.79,4.62-8.47,7.82-11.03,2.8-2.24,6.99-6.11,10.64-6.3,2.58-.13,4.27.25,6.79,1.05,2.08.66,3.47,1.88,5.46,2.71,3.84,1.59,7.38,7.51,9.04,11.2,2.96,3.67,3.88,8.53,5.75,12.75,0,1.62.62,2.96-1.05,3.37-.94.23-1.81.64-2.69,1.01-2.46,1.01-4.75,1.57-7.13,2.95-2.16,1.93-4.19,4.01-6.25,6.04ZM103.85,60.13c-.2,1.45-.03,2.73-.77,4.01-.77,1.33-1.66,2.58-2.55,3.83-1.97,2.72-3.7,4.72-6.43,6.72-2.58,1.9-4.81,4.06-7.92,4.78-1.27.3-2.57.7-3.62,1.49-.89-.36.27-1.27,0-1.91-1.46.28-4.6,3.15-6.1,2.26-1.85-1.1-2.67.68-4.77.29-.02-1.12.94-2.09.32-3.19-1.22-.13-2.32.2-3.18,1.08-1.19,1.21-2.82,3.85-4.82,2.75.31-1.01,3.6-4.73.24-3.76-2.65.77-2.02,1.58-3.87-.65-1.06-1.29-2.51.77-2.66,1.68-.36,2.25,1.9,1.6,2.14-.14.97.45.82,2.42-.32,2.55-1.11.55-1.14.6-2.54-.02-2.49-1.09-.81-3.44-.66-5.72-1.82-.09-1.7,1.82-2.56,2.87-.97-1.41.67-3.22.32-4.78-.71.25-.65.7-1.37,1.03-.83.38-1.41.98-2.09,1.58-1.58,1.39-1.57,1.32-2.61-.06-1.15,0-.73,1.59-1.95-.15-.62-.89-1.02-1.9-1.58-2.82-.71-1.15-.66-.9.16-1.83.29-.34.94-1.38.15-1.63-1.03-.32-1.15,1.94-1.86.14-.66-1.69-.12-1.47.05-3.12.16-1.51-.76-.94-1.62-.87-.63.05-.9-1.61-1-1.97-.57-2.06-.72-4.23-.72-6.36,0-2.38.49-4.34,1.3-6.57.59-1.61.75-4.96,2-5.86,1.08-.77,1.93-.29,2.85-1.07.66-.56,1.32-1.11,2-1.65,1.4-1.1,2.89-2.08,4.55-2.76,1.97-.8,4.09-1.13,6.21-1.1.59-.38,3.63-.83,4.22-.49,1.58.91,3.86.09,5.69.17,2.54-.69,5.21-.64,7.8-.3,2.08.28,3.87.73,5.4,1.58,1.33.74,2.35.1,2.77,1.91-.1-.43,4.39.3,0,0,2.79.19,5.28,1.22,7.71,2.51.49.26,2.81,1.08,2.78,1.74-.05.84-1.24.79-.09,1.76.85.72,2.03.89,3.02,1.32,1.18.99,2.59,1.83,3.48,3.07,1.8,2.51,2.91,4.51,2.48,7.66ZM31.72,16.57c.04-.3.02-.51-.02-.65.04.2.05.42.02.65ZM27.88,14.34c0,1.18,2.05,2.18,3.49,2.23-1.03-.13.1-1.45.32-.65-.29-1.59-2.38-2.23-3.82-1.58ZM41.63,22.63c.11-.01.21,0,.31,0-.05-.02-.13-.03-.31,0ZM41.94,22.64c.17.07-.39.33-.31,0-.25.39-.36.81-.32,1.27,1.85,0,1.49-1.13.63-1.27ZM74.23,42.08c-.39,1.06,2.16.78,2.24.32-.64-.3-1.52-1.04-2.24-.32ZM64.96,42.71c-.41,1.07,1.62,1.32,1.92.64-.57-.28-.81-.89-1.92-.64ZM90.54,49.73c-.84,1.68,1.54,3.72,2.88,3.19.83-1.68-.79-3.39-2.88-3.19ZM82.23,50.68c-.39,1.37,1.57,2.23,1.92.96-.52-.44-.79-1.13-1.92-.96ZM27.88,71.72c-.02.55.25.82.64.96.46-.46.47-1.23-.64-.96Z"/>
    </g>
  </g>
</svg>