<?xml version="1.0" encoding="UTF-8"?>
<svg id="Layer_2" data-name="Layer 2" xmlns="http://www.w3.org/2000/svg" viewBox="0 0 121.68 79.24">
  <defs>
    <style>
      .cls-1 {
        fill-rule: evenodd;
      }
    </style>
  </defs>
  <g id="food_icons" data-name="food icons">
    <g id="fishstake">
      <path class="cls-1" d="M49.32,42.39c0,.14.03.28.09.43.19.06.36.03.53-.06-.08-.22-.54-.57-.62-.37ZM57.08,49.51c-.32,2.34.26-.27,0,0h0ZM53.89,44.09c1.17-.1.8-.79,0,0h0ZM12.01,46.32c.2.39.37.8.53,1.21.06.03-.03-.25-.53-1.21ZM58.36,44.73c.78.6.52-.97,0,0h0ZM66.5,26.74c.15.24.31.41.49.45-.05-.6-.39-.6-.49-.45ZM116.61,35.41c-2.7-3.86-5.1-7.59-8.39-11.02-3.62-3.78-8.13-5.78-12.67-8.27-2.17-1.19-4.06-2.47-6.36-3.37-1.97-.77-3.73-2.25-5.77-2.66-2.15-.43-4.94-1.23-6.84-2.34-2.12.14-3.99-.56-6.01-1.02-2.29-.52-4.48-.52-6.77-1.21-.88-.13-1.17.43-1.92.64-1.04-.72-2.17-1.3-3.27-1.9-2.58-1.4-5.36-2.38-7.91-3.84-2.38-.27-4.77-.39-7.16-.4-5.02-.04-9.28-.21-13.3,3.22-1.81,1.55-3.58,3.28-3.89,5.7-.18,1.48.09,4.75-1.77,4.26-2.93-.77-7.45,1.14-5.54,4.76-2.15.64-3.51,2.48-5.44,3.51-.31,1.12.08,1.8.32,2.87-.73.43-1.5.81-2.17,1.34-2.94,2.38.03,7.73,3.45,6.95.25,1.27.34,2.82,1.76,3.35,1.39.52,1.76.36,1.76,1.96,0,2.34.44,3.56,2.68,4.67.9.45,1.91.63,2.92.5,1.94-.26.65-.07,1.85,1,1.29,1.15,3.47,1.23,5.02.63.33,3.04,3.95,2.7,5.91,1.67,1.91-1,5.38.07,7.52.25,1.39.19,2.21-.45,3.65.02,1.12.36,2.14.78,3.26.98.63.11,4.72.34,4.92.92-1.94.14-5.88,1.21-7.03,2.87-1.51.99-3.79.58-1.85,3.11,1.07,1.39,1.1,1.54,3,2.2,1.22.42,2.45.85,3.68,1.25,2.66.86,5.03,1.16,7.69.09,2.6-1.05,3.54-2.26,5.1-4.53.82-1.19,1.56-3.14,2.97-2.21.82.54,1.69,1.01,2.59,1.4,2.37,1.05,4.93,1.6,7.51,1.8,2.44.19,5.17-.83,7.66-1.07,2.1-.21,4.34-.58,6.15-1.75.96-.62,3.51-3.03,2.19-4.27-1.53-1.45.84-2.92-.84-3.82-1.7-.92-4.04-2.64-5.9-3.04-.88-1.41-4.23-2.56-5.75-3.2-2.65-1.11-5.2-2.37-7.72-3.78-1.39-.78-5.56-4.33-7.07-3.94-.85.22-.74,1.22-1.51.23-.43-.55-.74-1-.65-1.74,3.01.53,5.84,1.69,8.72,2.69,1.46.5,2.93.95,4.45,1.25,1.71.34.7,1.72,1.85,1.8.31-.41.3-1.18.96-1.27.18.67,2.04.53,2.72.85,1.51.69,3.04,1.34,4.51,2.09,2.22,1.12,4.62,1.72,6.81,2.86,1.44.75,1.9-1.68,1.95-2.54.09-1.81-.13-2.71-1.2-4.17-1.72-2.34-3.94-4.24-5.83-6.42,1.43-1.21,2.88-1.84,4.8-1.59.64,1.69.97,3.34,1.67,4.92.88,2.01,1.5-.08,2.87-.01,2.21.1.66,3.91.57,4.97,1.01.39.8-1.06,1.41-1.13,1.16-.14-1.07,2.41-1.11,2.45-1.08,1.33,1.17.73,1.62,1.23-1.22,1.05-1.7,1.78-3.42.83-1.46-.8-1.12,1.42-.06,1.85,1.42.58,2.78.33,3.65-.92.5-.71,1.41-.96,1.1-1.97-.24-.43-.35-.89-.31-1.38,2.12-.95.36-4.23-.08-5.58-.58-1.79-2.01-2.82-3.76-3.67-.4-3.32-3.92-4.48-6.71-3.19-.26-2.14-2.29-2.96-4.15-3.64-2.14-.78-2.05,1.34-3.2,2.37-3.21-3.55-8.07-6.89-12.4-8.96-1.45-.69-2.98-1.22-4.54-1.56-.47-.7-1.28-1.05-2.04-1.32-.61-.21-3.2-.9-3.39-1.65.03.12,7.06,1.05,7.86,1.17,2.51.36,4.45.91,6.82,1.73,4.22,1.46,8.2,3.25,12.26,5.21,3.7,1.79,8.78,4.05,11.41,7.29,2.36.42,4.25,2.15,6.07,3.51.26.51,2.29,2.63,2.12,3.02-.17.06-.34.11-.52.17.6.01.04.06,0,0,2.13,3.07,5.04,5.66,6.77,9.23.99,2.03,1.7,4.18,2.17,6.39-.75,2.19-1.03,4.52-1.37,6.8-.3,2.02-.31,5.01-2.03,6.3-1.75,1.33-3.7,2.37-5.54,3.56-1.81,1.16-3.33,3.12-5.29,3.89-1.96.78-4,1.35-6.01,1.98-4.13,1.29-8.16,2.19-12.36,3.29-5.01-.59-9.97-1.48-14.89-2.48-4.89-.99-9.8-1.33-14.64-2.61-3.75-.99-7.24-2.54-10.88-3.7-1.55-.49-2.67-1.11-4.34-.78-1.99-1-4.11-1.79-5.89-3.14-3.32-2.5-6.69-4.26-9.87-6.96-3.79-3.22-7.66-5.9-10.94-9.66-2.75-3.15-5.43-6-7.66-9.54-1.19-1.88-2.42-3.11-3.1-5.29-.42-1.35.52-5.15-.73-5.92-2.38-1.47,3.81-4.83,3.3-6.14-.47-1.17,7.47-5.31,8.68-5.96,2.15-.23,4.03-.61,6.22-.62,1.22,0,3.05-.01,3.69-1.3-2.79-.72-5.81-.24-8.63,0-2.27,1.37-4.66,2.52-6.96,3.85-3.02,1.74-4.29,3.38-6.27,6.11C2.08,18.81-.05,20.42,0,23.12c.03,1.36.23,2.71.18,4.07.33,1.16,1.06,2.15,1.24,3.36.37,2.45,2.1,4.58,2.9,7,.57,1.7,2.14,2.92,3.17,4.41.94,1.35,1.85,2.92,2.29,4.37.44,1.46.77,2.95.96,4.46.75.93,1.27,2.04,1.6,3.19,2.23,1.33,3.93,3.31,6.08,4.72,4.61,3.02,8.67,6.86,13.79,9.1,5.1,2.23,9.81,4.99,15.14,6.75,5.16,1.71,11.11.57,16.14,2.89,4.69,2.16,10.71,2.43,15.48.58,1.71-.66,2.32-2.26,4.03-3,1.82.67,3.93.29,5.8.09,1.12-.12,1.7-.85,2.83-1.05.52-.41.38-1.32,1.28-1.27,2.15-.04,4.22-.53,6.21-1.32,1.78-.71,3.49-1.6,5.29-2.24,2.28-.82,3.78-2.25,5.9-3.37,3.92-2.07,8.63-4.74,10.76-8.66.29-.53.54-1.69.24-2.26-.2-.38-.64.08-.86-.18-.41-.49,1.15-4.73,1.22-5.58.39-4.79-2.36-9.95-5.03-13.77ZM26.4,26.56c.69-.05.14,1.13.32,1.59-1.07-.29-.16-.59-.32-1.59ZM33.99,44.36c-2.32-.28-1.19-2.1-1.85-3.77-1.17.3-4.35,3.27-4.42.86-.03-.92.44-2.02-.37-2.77-.85.21-1.27.96-2,1.35-1.46.79-3.43-.22-4.11-1.58-.88-1.77.64-3.33,1.32-4.87-1.53-.97-3.1.97-4.7.63-1.77-.38-.7-2.11-.09-3.09,1.21-1.93-1.99-1.23-2.88-1.36-.19-1.73.44-3.12,1.91-4.04.9-.57,3.09-1.42,1.05-2.26-1.89-.78-.44-1.89.72-2.62.67-.42,1.37-.87,1.75-1.6.7-.03,2,.28,2.56-.32.32-1.55-1.38-1.11-1.83-2.03,0,.09-.03.07-.09-.2-.04-.92,0-.82.04-.52.33-1.66,2.74-1.43,4.11-1.4,0,3.71-.61,7.87-1.14,11.51-.21,1.42-.24,2.53-.14,4.11,1.64,1.55,3.28,3.1,4.89,4.69,1.75,1.72,3.37,3.89,5.4,5.18,1.04.66,1.52,1.95,2.81,2.24-.17,1.42-1.68,2.01-2.95,1.86ZM32.15,29.11c1.12.37.98,2,.96,3.51-.56-.93-.73-2.25-.96-3.51ZM38.86,44.41c.51-.09.55.3.96.32.12.62-1.45.47-.96-.32ZM40.14,38.03v-.96c.93-.47.93,1.42,0,.96ZM48.05,41.46c-.46.87-1.31.29-.92-.56.4-.87.96-1.51.68-2.55-1.62-.09-1.6,1.54-2.24,2.55-1.93-1.15-2.02-3.9-2.87-5.74-.91.24.19,1.91-.64,2.23-.75-.73-1.12-1.47-.96-2.55-1.34-.08-1.68.96-2.24,1.91-1.6-.47-.02-2.82-1.24-2.75-1.3.07-2.09-.95-1.96,1.15-.57-.3-1.54-3.39-1.6-4.34,0,0,0,0-.01,0-.08.92-.3.12-.08-.08,0,.02.03.05.08.08,0-.04,0-.08,0-.12,0,.04,0,.08,0,.13.31.18,1.31.51,1.69.73,1.08.64,2.11,1.36,3.29,1.82,1.38.54,2.89,1.23,4.32,1.6,1.35.35,2.14,1.36,3.41,2.02,1.42.75,3.72.83,2.3,2.61-.45.56-.69,1.21-1.03,1.85ZM52.29,43.13c-.17-.16.23-.41.32-.32.16.16-.23.41-.32.32ZM51.35,40.81c-.33.47-.78,1.63-1.41,1.94.05.14-.06.22-.53.06-.1-.23-.11-.36-.09-.43-.04-1.21,1.77-2.39,1.69-3.72,1.19.14,2,1.13,3.2,1.28.01,1.06-2.13-.18-2.86.87ZM53.89,44.09c.65-.64,1.54-1.06,1.82-2.01.51-1.71.89-.21,2.34-.54,0,1.21-1.03,1.78-1.28,2.87-.93-.31-1.91-.4-2.88-.32ZM53.63,53.4c-.98,1.44-.86,1.89-2.75.81-2.41-1.38,1.29-4.3,3.01-3.1-.93-.65.33-.13.12-.02.53-.1.38-.83,1.16-.62-.16,1.17-.89,2-1.53,2.94ZM55.11,54.18c.57-1.62,1.74-2.92,1.97-4.67.23-.24,1.17-.87,1.53-.58-.37-.3-.53,2.89-.5,3.06.22,1.21.74,2.35.89,3.58-1.39-.13-4.67.84-3.89-1.38ZM58.36,44.73c.66-1.23,1.76-2.51,2.93-2.33,1.89.28,3.82.1,5.7.42-2.91,1.55-5.56,4.26-8.63,1.91ZM61.24,54.61c-.11-.08-.18-.14-.23-.2-.91-.86-.9-2.5-1.05-3.62,1.21-.04,2.29.51,3.52.32.44,1.33-1.33,2.83-2.24,3.51ZM75.94,48.87c-.07-1.07,1-1.13-.51-1.61-.53-.17-1.71-.94-2.17-.36-.29.36-.39,2.62-1.35,1.9-.23-.17.87-1.33.19-1.98-1.24-1.18-1.51.42-2.86.46-.15-3.12-2.92.41-3.39,1.29-.98,1.81-1.22,1.66-3.4,1.4-1.17-.14-2.33-.37-3.44-.78,1.36-.66,2.42-1.38,3.95-2.01.7-.25,1.3-.64,1.8-1.18.73.11,1.43.03,2.11-.23.82-.33.54-.89,1.09-1.04-.25.07-.04-.59,0,0-.07-.92-1.11-2.21.55-1.13,1.07.7,2.66.88,3.89,1.16,2.17.5,4.78,1.43,7.07,1.24-.52,1.7-1.65,2.85-3.52,2.87ZM89.9,47.85c-.36.25-2.4.71-2.85.7-1.42-.05-1.37,1-2.61.03-.79-.61-1.47-.91-2.42-.34.1-.67-.11-1.2-.64-1.59.07-.17,9.66.25,10.87,0-.26,1.87-1.18.41-2.34,1.21ZM66.99,27.19c-.51-.11-.57-.33-.49-.45-.53-.86-.83-2.64-.43-2.7,1.47-.21.84,2.24.92,3.15ZM70.83,27.83c-.79.21-1,.13-.95,0-.96-.38-.59-2.2-.65-3.19.69-.12.86.53,1.6.32v2.87ZM89.05,33.25c.58.4-2.74-.67,0,0-1.89-.46-3.69-1.22-5.56-1.74-.55-.15-2.62-.2-2.98-.58-.12-.3-.26-.59-.41-.87-.69,0-.44.86-1.28.64.35-1.96-1.45-3.14-1.28-.64-1.8-.18-3.34-1.07-5.02-1.63-1.65-.54-1.05-1.84-1.05-3.47.81.11,1.39.47,2.24.32v2.87c1,.22,1.38-1.8.64-2.23.82-1.61,7.31,2.82,8.39,3.26,1.62.67,3.1,2.09,4.72,3.01,1.44.81,2.69,1.24,4.15,2.01-.58.66-1.98-.56-2.56-.96ZM89.05,21.45c1.49,0,2.52,1.06,2.06,2.49.14-.71-.84-.31-.14.38-.93-.92-2.08-1.3-1.92-2.87ZM80.77,18.81c3.13,2.29,6.21,4.17,9.07,7.03.99.99,1.94,2.03,2.97,2.98.99.9.23.72.71,1.25,1.16,1.3,2.94,2.25,3.2,4.14-1.88-.77-3.05-2.53-4.8-3.51-1.6-.38-2.77-1.52-4.18-2.2-2.38-1.15-4.5-2.55-7-3.75-5.17-2.5-12.71-5.88-18.34-3.89-3.84,1.35-2.12,4.08-.85,6.98,1.17,1.57,2.74,2.76,4.05,4.2,1.1,1.21,2.65,1.56,4,2.58,6.05,4.6,14.29,6.57,21.36,9.16-.4.67-4.04,0-4.79,0-1.9,0-3.45-.37-5.29-.77-1.77-.39-3.38-1.43-5.26-1.14-1.19.09-.88-1.48-1.92-1.59-4.83-.37-9.59-1.29-14.38-1.91-3.92-1.4-7.52-3.49-11.19-5.42-.06.7,1.9,1.74,1.8,1.84-.28.22-.45.14-.52-.24.06.95-1.58-.02,0,0-1.37-.02-2.47-.94-3.84-.96-.1-.76.92-.32.96-.96-2.27-1.42-4.76-2.45-7.05-3.85-2.42-1.49-4.17-4.66-5.76-6.96-2.96-4.27-6.93-9.04-4.26-14.26,2.66-5.2,7.49-4.97,12.57-4.89,4.66.07,9.48.22,13.34,2.86,8,5.47,17.67,7.65,25.41,13.3ZM73.38,74.05c-3.58,0-6.87-.52-10.41-1.03-6.85-1-13.4-2.29-19.84-4.9-4.91-2-9.22-4.52-13.81-7.03-2.44-1.33-4.56-3.3-7.09-4.57-.66-.48-6.07-3.74-6.04-3.62.05.19,1.07,1.59,1.1,1.59-.71.06-2.58-1.87-2.99-2.55-.83-1.37-1.2-2.93-1.77-4.41-.12-.06-.78-1.19-.53-1.21,1.1-.09,4.94,3.65,6.24,5.19,1.64,1.95,4.24,4.41,6.87,5.01,1.94,1.92,5.12,3.03,7.43,4.39,2.84,1.67,5.35,3.59,8.48,4.72,1.59.57,2.39-.15,3.91.14,1.42.3,2.73.89,4.09,1.39,3.04,1.13,6.19,1.56,9.35,2.19,6.84,1.36,13.86,2.08,20.77,3.44-.46.6-4.85,1.21-5.75,1.27ZM69.88,27.84c.23.09.54.1.95,0,0-.61-.87-.22-.95,0ZM21,16.16c-.03.16-.05.32-.04.52.02.08.06.13.09.2.01-.13-.02-.48-.05-.71ZM82.01,48.23c1.72-1.04.05-.79,0,0h0ZM61.01,54.41c.07.07.14.14.23.2.91-.68-.6-.69-.23-.2ZM38.38,8.58c.36-.05.74-.02,1.12.12-.71-.27-1.02-.25-1.12-.12ZM38.38,8.58c-2.45.36-4.23,4.72-1.76,6.18.68-1.31.41-2.55,1.53-3.58.66-.61,1.18-1.24,1.3-2.12-.24.78-1.31-.18-1.07-.49ZM39.5,8.7c0,.13-.03.24-.05.36.03-.1.05-.21.05-.36ZM43.02,10.62c0,.1-.03.25-.08.42.06-.1.09-.24.08-.42ZM43.02,10.62c-.33.06-.55.13-.69.21.21-.09.44-.16.69-.21ZM42.32,10.82c-1.66.68-2.25,2.53-2.5,4.25.8.07,2.7-2.77,3.11-4.04-.31.56-1.31.14-.61-.21ZM50,12.38c-.23.72-1.14-.5-.23-.51-2.43-.16-6,2.89-5.15,5.44,1.69-.13,1.91-1.84,2.88-2.87.89-.72,2.25-.88,2.51-2.06ZM50,12.38c.04-.11.06-.27.05-.49,0,.18-.02.34-.05.49ZM54.53,24.9c.15.03.35.05.63.07-.21-.01-.42-.04-.63-.07ZM49.09,21.77c1.31,1.84,3.25,2.85,5.44,3.12-1.33-.23,1.66-.73.88-.1,5.54-3.44,2.48-9.39-3.45-9.08-2.03,1.6-3.25,3.32-2.88,6.06ZM56.1,18.57c-.11-.09-.2-.16.03.02.22.18.13.1.02.01.97.79,1.19,2.03-.22,2.34-1.91.41-1.55-.14-2.66-1.42-2.28-2.64,1.39-2.06,2.83-.95ZM52.29,20.82c.28.25.72.34,1.28.32.1.56-1.79.57-1.28-.32ZM56.13,18.59s-.02-.01-.03-.02c.01.01.03.02.04.03,0,0,0,0-.02-.01ZM110.15,29.43c-.2-.46-.39.03,0,0h0ZM104.39,51.42c-.27-.06.44-1.75,0,0,.36-1.39,1.9-2.06,2.34-3.41.61-1.89-1.25-1.61-1.97-.47-2.02,3.22-4.96,5.38-7.72,8.02-1.65.44-2.86,1.91-4.36,2.67-1.91.96-1.35,2.33.29,3.31,3.55,2.11,9.3,2.39,13.1,1.07,3.83-1.34,7.46-4.53,6.49-9.02-.36-1.63-.75-3.03-1.57-4.41-.33-.55-2.73-2.99-2.99-1.11-.15,1.09,1.65,1.35,1.67,2.34.02.91-4.76.44-5.34,1.27-1.43,2.06,2.09.84,2.94,1.02.12-.2,2.28-1.43,2.68-1.49,1.01-.14-.25,4.77-.46,5.21-.81,1.67-2.17,3.08-3.82,3.93-.27-1.08-.98-2.3-1.4-3.07-.29-.53-.99-1.31-1.12-1.83-.04-.16,5.18.74,5.72-.52-1.56-1.68-4.66-1.35-6.71-1.27.28-.43,1.77-2.33,2.24-2.23ZM97.04,60.66c-1.11-.18-2.09-.77-3.2-.96.11-.4.26-.55.38-.58.82-.92,2.67-2.16,3.06-1.67.66.83-.56,2.24-.24,3.2ZM103.75,60.98h-4.79c1.13-1.75-1.09-6.06,1.92-6.06.26.39.38.6.43.71,1.03,1.68,1.85,3.48,2.44,5.35ZM101.31,55.64c-.14-.24-.28-.48-.43-.71-.25,0,.61,1.09.43.71ZM94.22,59.13c-.2.22-.33.42-.38.58.85.14.69-.64.38-.58Z"/>
    </g>
  </g>
</svg>