<?xml version="1.0" encoding="UTF-8"?>
<svg id="Layer_2" data-name="Layer 2" xmlns="http://www.w3.org/2000/svg" viewBox="0 0 114.15 77.74">
  <defs>
    <style>
      .cls-1 {
        fill-rule: evenodd;
      }
    </style>
  </defs>
  <g id="food_icons" data-name="food icons">
    <g id="fish">
      <path class="cls-1" d="M64.6,71.67c1.27.1.63-1.48,0,0h0ZM15.83,34.46c.18.39.35.78.5,1.19-.44-1.18-.54-1.37-.5-1.19ZM30.38,53.29c-.1.07-.21.13-.3.21.41-.05.44-.23.3-.21ZM55.65,10.78c.03.13.14.31.29.49.17-.05.22-.62-.29-.49ZM16.33,35.65c.01.07,0,.13,0,.19.02.01.02-.04,0-.19ZM62.96,58.89s.02.03.04.03c.02-.04.02-.06.03-.09-.02.02-.05.04-.07.06ZM114.15,40.43c-.15-2.25-.39-3.03-1.92-4.78-1.15-1.66-2.57-3.09-3.66-4.71-.99-1.47-2.45-2.79-3.54-4.16-1.25-1.57-2.48-2.8-4.02-4.07-6.74-5.57-15.65-11.36-24.63-12.17-1.92-.17-3.13-2.86-4.64-4.26-1.71-1.58-3.28-2.64-5.28-3.82-2.34-1.38-6.38-4.73-7.31-.08-.21,1.07-.27,2.16-.43,3.23-.25,1.66-1.09.92-2.49,1.17-1.97.35-4.15.47-6,1.29-4.46,1.97,3.8,6.68,5.09,7.82-1.87.83-3.62,1.93-5.43,2.87-.09,1.99-.23,2.65-1.78,4.04-2.85,2.57-6.48,3.36-9.77,5.16-1.4.77-3,1.7-4.4,2.3-.86.37.49.76-.35.93-.7.13-1.4.29-2.1.46-1.89.44-3.44.88-4.96-.56-.97-.92-1.52-1.94-2.75-2.55-2.69-1.34-5.54-3.31-7.74-5.36-1.49-1.38-4.76-3.28-6.88-2.7-1.6.44-1.41,2.14-.82,3.36.74,1.51.83,2.65,1.23,4.29.4,1.66,1.25,3.12,1.96,4.65.13,1.53.44,3.04.92,4.5.43,1.31,1,2.57,1.64,3.79-.83.56-1.51,1.29-2.13,2.06-1.18,1.45-2.33,3-3.68,4.26-.48.45-1.86,2.26-2.5,2.29-.47,1.16-1.89,3.31-2.84,4.08-1.98,1.61-3.22,2.31-2.89,5.14.29,2.45,3.05,2.06,5,1.87,4.16-.4,7.99-2.31,12.23-2.16,2.45-.88,5.27-1.13,7.56-2.35,1.77-.95,3.53-1.86,5.55-2.11,1.73.49,3.47,1.39,4.94,2.41,1.56,1.08.48,2.19-.09,3.39-.58,1.23-.09,1.65-1.19,2.8-.59.62-1.17,1.25-1.61,1.99-1.37,2.34-.65,3.46,1.96,3.71,2.38.23,4.84.06,7.23.06s4.53.74,6.78.04c2.2-.68,4.2-2.52,6.5-2.57,1.84-.04,3.61.13,5.42.4,2.77.41,1.01,2.42.12,4.18-.92,1.81-1.82,3.71-1.74,5.79.15,4.14,9.55-2.02,11.35-2.79,1.83-.79,3.37-2.05,4.94-3.25,1.97-1.5,3.15-1.77,5.48-2.22,2.44-.46,4.51-1.47,7-2,2.32-.49,4.71-.91,6.88-1.88,4.04-1.8,7.34-4.03,10.92-6.6.86-.62,1.9-1.12,2.69-1.83.76-.68.4-1.19,1.44-1.51,1.31-.41,3.03-2.09,1.25-3.24-.84-.55-1.94-.64-2.91-.69-.63-.61-1.4-1.04-2.17-1.45-1.52-.81-3.23-1.62-3.9-3.33,2.65-.14,5.18-1.25,7.57-2.33,1.14-.51,2.21-1.23,2.65-2.45.76.34,1.5.35,2.12-.21-.42.31.06-1.03.12-.1ZM68.75,8.23c.7.85,2.1.94,2.24,2.23-.62,0-1,.36-1.58.35-.02.02-.11.02-.34-.04-.07-.07-.1-.11-.1-.13-.45-.61-.19-1.78-.22-2.42ZM62.68,7.92c-.37.07-.14-1-.04-.49-.16-1.13-.72-2.14-.6-3.34,1.44.45,3.56,1.34,4.66,2.37.61.57,1.88.53,1.19,1.55-.34.33-.59.72-.74,1.18-.13.26.69,2.7-.46,1.73-.68-.58-.32-1.89-.53-2.66-.37-1.34-1.69-.34-1.84.57-.2,1.22.79,2.65-.4,3.18-1.96.87-2.21-.6-2.84-2.2-.06-.22,1.36-1.87,1.6-1.91ZM58.47,12.22c-.09,1.09-1.82-.08-2.53-.94-.09.02-.2-.09-.29-.49,1.62-.41,3.01-.7,2.83,1.44ZM26.88,51.59c.06-.36.32-.18.32,0-.06.36-.32.18-.32,0ZM26.71,51.02c-2.05,1.13-4.28,1.82-6.61,2.33-4.56,1-9.53,2.58-14.33,3.02,2.34-3.9,6.06-6.69,8.62-10.43,1.38-2.01,2.18-3.68,1.94-6.04-.08-.77-.84-1.98-.55-2.63.24-.55.57-.83.54-1.43-.08-.05-.44-1.11-.5-1.38-1.28-2.79-3.16-5.26-3.66-8.38,1.93.61,4.07,2.99,5.76,4.14-.09.5-2.93.49-1.03,1.42.48.24,2.41,1.1,2.93.87,1.32-.58.57-.63,2.13.31.86.51,1.53,1.68,2.52,1.68,2.45,0,1.12,2.28,1.12,4.32-.27,1.7-2.95,5.97.37,6.09,1.75.06,2.71,5.02.75,6.09ZM30.07,53.5c.13-.15.24-.21.3-.21.48-.31,1.01-.46,1.61-.42-.37,1.39-1.02.53-1.92.64ZM35.51,65.3c-.76-.77.66-1.75,1.16-2.38-.2.17.03-.9.12-.17-.1-.86.58-1.03,1.28-.96-.61,1.35-1.81,2.25-2.56,3.51ZM37.74,55.09c-.08-.02-.22.09-.33.2-.1.19-.18.36-.19.29,0-.05.08-.17.19-.29.07-.13.14-.25.2-.31,0-.07.06-.11.1,0-.02-.05-.06-.04-.1,0,0,.04.04.09.13.11ZM40.77,63.42c-.49.82-1,1.55-2.07,1.55.72-1.26,4.18-3.78.96-4.14.51-.42.64-.45.61-.36,1.11-.47,2.53-.16,3.55.36-.96,1.04-2.32,1.38-3.05,2.59ZM45.41,65.54c-.11.05-.4,0-.95-.24.17-1.17,2.31-2.83.64-3.83.54-1.1,2.98.7,3.51,1.02,1.72,1.05,1.52,1.11,1.6,2.8-1.61-.61-3.19.39-4.8.24ZM59.48,61.79c.28-.69,1.78-.97,1.6.32-.77.13-.7-.58-1.6-.32ZM63.32,72.63c-.13-.77.58-.69.32-1.59,1.22-.24.69,2.06-.32,1.59ZM63.64,62.74c.05-.37.58-.27.96-.32-.05.37-.59.27-.96.32ZM67.79,68.48c.1.59.04,1.16-.22,1.7-.29.94-1.7,1.59-2.98,1.49.6-1.42,0-3.11.64-4.46,1.31.07,2.51.65,3.83.64-.28,1.04-.71.04-1.28.64ZM71.31,68.48c-.17-.17.23-.41.32-.32.16.17-.23.41-.32.32ZM107.75,39.9c-1.61.67-3.31,1.19-4.79,2.13-2.65,0-4.7-.22-7.04.96-.21,1.43.18,2.59,1.14,3.65,1.34,1.48,2.19,3.17,3.98,4.13.91.49,3.84,1.78,3.22,2.75-1.33,2.09-4.6,1.3-6.11,3.18-.28-.17-1.69-2.26-1.96-.56-.09.53,1.13,1.06.36,1.51-1.66,1.21-3.49,2.18-5.44,2.87-1.21.19-1.92-.41-3.25-.01-6.85,2.02-13.88,3.13-21.04,2.88.61-1.26,2.2-1.15,3.15-.75,1.23.5,2.86-.09,3.82-.89,2.58-2.14-.78-3.96-1.54-2.5-.56-.2,0-3.39.01-3.97.01-.89.03-1.89-.33-2.73-.29.04-.51-.07-.64-.32-3,0-2.76,3.65-2.88,5.74-.72-.22-.14-1.48-.96-1.59-.96.03-1.81.36-2.57.94-.25.19-1.24.96-1.87,1.52-.01.03-.02.06-.03.09-.03,0-.07.02-.11.04-.24.22-.41.4-.41.46,0-.08.23-.37.41-.46.02-.02.05-.04.07-.07-.14-.13.29-.67.07-.06,0,0,0,0,0,0,2.14-5.52-2.86-1.64-5.15-1.82.79-.84.41-3.07-.85-3.15-1.09-.06-1.86.95-2.99.92.44-3.14-2.34-2.62-3.52-.64-.72-.12-3.58-.62-3.06-1.54.36-.63.74-.82.5-1.65-1.09-.2-2,2.04-2.88,1.27-.78.16-.67-2.2-.64-2.87.22-.24-3.37,1.73-2.59,1.94-2.05-.56-.18-1.73.28-2.71.99-2.11-2.18-2.79-2.8-.83-.72-.09-.04-1.42-.96-1.28-.69.14-.96.75-1.1,1.36-.49,2.11-.42,2.46-2.74,2.46.29-1.17,1.61-2.2.96-3.51.1-.76-.92-.31-.96-.96-2.02,0-3.74,1.25-5.75,1.28.29-1.92,2.23-3.98,1.38-5.94-.19-.47-.54-.61-1.06-.44.13-.45.03-.83-.31-1.13-.65-.58-.74-.87-.77-1.83-.11-3.84,2.51-3.11,5.45-3.83,2.38-.58,4.66-1.5,6.82-2.65,4.32-2.3,7.85-5.29,11.69-8.23,2.16-1.65,4.5-3.04,6.93-4.25.52-.26,5.37-2.88,5.03-1.36,1.51-.77,2.43-1.84,4.12-2.05,1.26-.15,2.28-.52,3.55-.52,2.44,0,5.19-.22,7.59.18,2.35.4,3.42.42,5.53,1.47,1.8.9,3.75,1.42,5.56,2.26,4.37,2.02,7.62,6.53,11.68,9.18.45,1.88,2.72,4.3,3.9,5.84,1.05,1.37.03,3.41,2.18,4.05-1.16,1.12,2.29.93-.32,2.02ZM44.46,65.3c.32.14.64.21.95.24.33-.15-.83-1.11-.95-.24ZM62.68,7.92c0-.24-.02-.39-.04-.49.02.16.04.32.04.49ZM40.27,60.48c-.21.09-.42.2-.61.36.26.03.56-.25.61-.36ZM68.97,10.65s.06.09.1.13c.12.03.23.04.34.04.06-.05-.45-.28-.44-.17ZM75.15,28c1.71-.27,1.56-3.74.64-4.78-2.47-.52-2.66,4.59-.64,4.78ZM84.23,45.98c-.23-4.07-.27-8.15-.15-12.22.03-1.18-.43-8.07,1.29-8.31-.09-1.01,1.19-1.4.2-2.11-.71-.51-1.72.87-1.97,1.33-3.12,5.54-3.1,12.6-3.44,18.76-.16,2.82-.17,11.48,4.31,10.66-.78-.11,1.91-2.61,1.54-.58.27-1.49-.43-2.24-1.16-3.4-.72-1.16-.55-2.82-.62-4.12ZM86.01,53.5c-.57.31-1.08.49-1.54.58.21.03.67-.11,1.54-.58ZM58.72,31.83c-.16.12-.33.24-.52.32.55-.24.63-.32.52-.32ZM58.21,25.13c-2.1,1.07-1.92,2.16-1.92,4.36,0,.86.44,2.47,1.66,2.63-.04-.08.61-.29.78-.29,1.97-1.52,2.2-6.02-.52-6.7ZM58.21,32.14c-.1,0-.18-.02-.26-.03.01.02.08.04.26.03ZM50.53,34.05c1.99-.28,2.19-4.17,1.28-5.42-3.15-.96-3.42,4.99-1.28,5.42ZM97.2,31.82c-2.28-.96-3.72-3.42-5.89-1.02-1.79,1.98-2.83,4.66-1.62,7.03,2.74,5.37,9.63-1.32,7.52-6.01.46,1.03-.67-.28,0,0ZM92.73,36.29c1.42.22,0-1.92-.02-.38-.08-1.73.48-3.33,2.58-3.13,1.89,1.78-.8,3.78-2.56,3.51ZM65.68,33.21c-.1-.14-.32-.75-.13-.75-2.83,0-3.44,5.03-1.97,6.93,2.3,2.97,2.38-3.66,2.1-6.17ZM65.56,32.46c.05.16.09.42.13.75.07.1.09-.02-.13-.75ZM22.58,34.62c.13.3.19.64.14,1.03.18-1.33,0-1.35-.14-1.03ZM18.13,35.61c1.02.82,3.47.48,4.59.04-.45.18-.31-.66-.14-1.03-.63-1.44-3.06-1.83-4.37-1.15-1.16.6-.98,1.42-.08,2.14ZM74.4,41.88c-.07.17-.15.33-.22.46.11-.21.18-.36.22-.46ZM71.97,37.12c-.53,1.29-.9,3-.28,4.33.68,1.46,1.42.83,2.49.89-.39-.02.44-1.07.22-.46.64-1.46,1.35-4.1.79-5.16-.77-1.45-2.61-1.09-3.22.4ZM38.38,36.61c-3.38,0-2.88,7.21,0,7.33,2.12-.82,3.02-6.84,0-7.33ZM22.72,41.71v-3.19c0,1.06-1.94-.28,0,0-1.45-.21-5.04-1.65-5.67.55-.74,2.63,4.28,2.18,5.67,2.63ZM48.71,38.95c-.01-.11-.04-.24-.1-.44.03.11.07.26.1.44ZM48.4,38.44c-2.73-1.04-2.74,6-1.11,7.11,2.26,1.54,1.81-4.58,1.42-6.59.1.77-.82-.59-.31-.51ZM57.25,40.75c-2.27,0-2.48,5.47-.7,6.5,2.22,1.29,2.2-4.49.99-6.19-.2-.13-.43-.31-.29-.31ZM57.25,40.75c.1.08.2.19.29.31.26.17.46.24-.29-.31ZM22.24,42.47c.22-.06.39-.11.48-.12-.22.04-.37.08-.48.12ZM22.24,42.47c-1.39.41-4.89,1.68-2.36,2.51,2.27.75,4.17-.36,2.83-2.64.3.52-1.1.37-.48.12ZM22.43,46.34c-1.39-1.56-6.49-1.27-7.33.04-.95,1.49.69,1.42,1,2.66.15.6-2.68.99-3.12,1.13-3.85,1.16-2.03,3.96,1.45,3.07,1.91-.49,4.06-.5,5.84-1.4,1.94-.98.16-1.5.21-2.79,1.28,0,2.08-.7,2.21-1.89-.07.22-.24-.49-.27-.81ZM22.72,46.81c0,.12-.01.23-.03.34.02-.05.03-.16.03-.34ZM22.43,46.34c.13.14.23.29.29.46-.25-.72-.31-.7-.29-.46ZM67.16,46.49c-1.62-.68-1.82-1.42-3.2.32-.06,1.17-.14,2.52.4,3.61.66,1.32,2.23,1.59,2.65-.03.33-1.26.13-2.62.15-3.9-.02,2-.67-.28,0,0ZM75.46,59.88c.42,3,6.66,2.51,5.43-1.6-1.6-1.2-5.39-.7-5.43,1.6ZM90.17,57.65c.43,0,0,.42,0,0v1.28c.94.14,1.42-.34,1.28-1.28h-1.28Z"/>
    </g>
  </g>
</svg>