<?xml version="1.0" encoding="UTF-8"?>
<svg id="Layer_2" data-name="Layer 2" xmlns="http://www.w3.org/2000/svg" viewBox="0 0 106.2 104.66">
  <defs>
    <style>
      .cls-1 {
        fill-rule: evenodd;
      }
    </style>
  </defs>
  <g id="food_icons" data-name="food icons">
    <g id="fork_knife" data-name="fork&amp;amp;knife">
      <path class="cls-1" d="M105.84,89.86c-1.01-1.1-1.09-3.02-1.96-4.26-1.03-1.46-1.66-3.1-3.29-4.1-1.19-.73-1.92-1.4-3.26-2.06-.99-.48-1.93-1.04-2.87-1.6-1.91-1.13-3.77-2.02-5.56-3.3-3.57-2.55-7.06-5.09-10.24-8.13-3.48-3.34-7.17-7.12-11.12-9.76-1.33-.89-3.04-2.15-4.1-3.37-1.14-1.3-3.16-1.33-4.26-2.95,2.58.42,6.91-5.09,7.67-7.33-.85,0-1.86-1.61-2.55-.87-.93.99-1.57,2.09-2.85,2.74-.93.48-3.01,3.91-3.87,3.87-.82-1.06-3.11-.08-1.69-2.13.77-1.1,1.7-2.1,2.88-2.78,1.45-.85,1.73-.27,2.15-1.95.18-.63.43-1.23.74-1.81.65-1.34-.01-1.64-1.18-2.19-.99-.47-1.54-1.85-1.98-2.81-.77-1.66.3-2.64,1.55-3.62,2.22-1.74,4.52-3.5,6.03-5.97.62-1.01,1.85-2.26,3-2.87.71-1.3,1.75-2.37,2.75-3.45.75-.81,1.48-1.65,2.04-2.61.64-.15,1.19-.45,1.65-.9,1.13-.96,1.59-1.29,2.37-2.59,1.08-1.8,3.14-3.04,4.11-4.75.35-.62,1.86-3.1,1.92-.77.05,1.66-1.34,2.8-2.45,3.81-1.55,1.41-2.2,3.22-3.32,4.95-1.52,2.35-3.39,4.44-5.35,6.42-.91.93-1.03,1.06-2.24.96-1.08-.09-1.66,1.26-2.41,1.83-2.01,1.54-7.15,6.31-3.68,8.82,4.44,3.22,6.51-2.2,9.39-4.4,1.57-1.21,2.56-2.83,4.05-4.15,1.02-.9,3.13-2.52,3.64-3.81,1.61-1.12,4.32-2.99,5.25-4.65.57-1.02,2.48-3.54,3.91-3.22,2.56.57-.52,2.44-.85,2.77-1.42,1.43-2.45,3-3.77,4.53-.86.99-1.58,2.23-2.65,2.99-1.07.77-1.38.54-2.08,1.75-.91,1.57-1.96,4.12-3.21,5.33-2.34,2.25-6.03,3.05-6.51,6.76,3,3.59,8.46.81,10.38-2.51,1.93-3.35,5-5.63,7.75-8.09.92-.83,1.46-.51,1.96-1.64.32-.72.86-1.28,1.65-1.46.05-.63,1.56-3.29,2.14-3.45,2.5-.69.24,3.01-.13,3.64-1.01,1.73-2.46,3.01-3.75,4.54-2.97,3.53-7.09,6.1-9.76,9.92-2.35.42-6.41,4.09-7.67,6.06-1.33.47-2.24,2.77-4.01,1.21-.96-.85-1.1-2.1-2.71-1.85-1.36,1.27.04,2.49.6,3.7.47.99,4.16.87,5.15.76,3.48-2.01,5.67-6.27,9.15-7.88,3.41-1.58,4.86-5.76,8.29-7.36,1.61-.75,3.33-1.78,3.66-3.89,1.52-1.01,3.35-2.82,4.21-4.36,1.34-2.41,4.44-6.15,2.89-9.18-1.38-2.71-6.05,3.98-6.96,4.67-.61.46-1.31.77-2.05.9-.23.84-.75,1.5-1.3,2.15-1.06,1.27-2.19,1.93-3.4,3.09-.9.85-1.83,1.07-2.67,1.96-.72.76-1.58,1.36-2.4,2.01-.99.79-1.51,1.81-2.25,2.83-.76,1.06-1.49,1.33-2.42,2.16-.47.43-4.59,2.48-3.13.39.8-1.14,2.57-1.92,3.53-2.85,2.73-2.63,5.57-5.8,7.79-9.02,2.13-3.09,6.67-4.79,6.88-9.08,1.46-1.78,2.54-3.85,1.75-6.21-.69-2.07-2.8-.76-3.86.29-1.49,1.48-2.97,3-4.28,4.64-1.4,1.04-3.19,2.28-4.28,3.54-2.9,3.35-6.93,5.81-9.46,9.53-1.46.94-2.88,2.57-3.86,3.91-1.44,1.98-1.35.79-3.17.87,1.64-4.52,6.72-6.21,9.79-9.49,3.31-3.53,7.34-7.39,9.6-11.65,1.12-2.12,2.88-3.7,3.87-5.92.66-1.49.84-5.65-1.82-5.03-2.8.65-5.25,5.5-6.65,7.72-2.66,4.23-8.35,5.46-10.95,9.71-.63.97-1.6,1.66-2.19,2.66-.6,1.02-.81.6-1.47,1.41-.41.5-.7,1.03-1.46,1.03-.34.96-.96,1.77-1.63,2.52-2.98,3.3-9,5.91-6.86,11.24.51,1.27,3.01,3.68,1.91,4.78-1.38,1.37-2.86,2.75-4.29,4.1-9.51-9.39-19-19.93-29.79-27.87-2.19-1.61-4.03-4.14-6.37-5.41-1.56-.85-4.74-2.55-5.72-4.02-1.92-1.14-3.6-2.86-5.99-2.9-3.01-.05-2.17,2.1-2.62,4.2-1.11,5.23,2.22,12.74,4.64,17.26,2.78,5.21,9.06,8.58,13.59,12.22,4.1,3.29,8.01,6.46,12,9.82,2.45,2.06,5.07,3.88,7.45,6.03,1.22,1.1,2.39,2.24,3.53,3.43.35-.03.19.45,0,0,.2.46-.91-.27,0,0-1.94-.57-3.05-.82-4.66.51-1.32,1.07-2.75,2.08-4.02,3.2-2.68,2.35-5.41,4.73-8.28,6.86-5.89,4.34-14.52,8.06-18.88,14.03-2.37,3.25-5.81,5.23-7.53,8.97-.87,1.89-1.77,7.33-.33,8.79,1.13,1.14,1.68,2.71,2.79,3.86,1.76.59,3.63.48,5.46.38,3.86-.21,7.11-.62,10.24-3.13,1.3-1.04,2.88-1.78,3.71-3.25.53-.94.99-1.91,1.49-2.88.99-1.89,2.37-3.07,3.61-4.71,2.35-3.1,5.26-5.85,7.67-9.14,1.68-2.3,3.4-4.56,4.98-6.94,1.02-1.53,2.25-4.94,3.8-5.36.41-.11,2.34-2.9,2.53-3.22.76-.77,1.31-1.71,2.06-2.49.92-.96,1.42-.54,2.57-.87.83-.24,2.3-.22,2.86-.85.39-.45.67-1.01,1.3-1.18,1.48-.4,3.52.5,4.19,1.56,1.28,2.01,2.03,3.25,2.73,5.51.28.91,1.37,4.25,2.45,4.37,1.52.16,1.28-.66,2.1,1.05.47.97,1.08,1.87,1.76,2.7,1.41,1.71,3.02,3.22,4.39,4.98,1.67,2.14,3.38,4.26,5.24,6.25.53,1.58,2.07,3.34,3.12,4.46,2.95,3.13,6.14,6.98,9.98,9.25,2.07.16,4.84,1.46,6.88.88.64-.19,1.12-.69,1.76-.88.69.01,1.1.52,1.74.66,2.06.43,3.54-3.34,4.02-4.8.22-2.25-.45-4.45-.32-6.69ZM7.06,97.19c-.24-1.73.51-2.47.32-4.14.5.69,1.47,4.09-.32,4.14ZM42.86,66.58c-.38.59,0,1.26-.32,1.91-.56.41-1.08.86-1.57,1.36-.97.98-1.83,2.06-2.8,3.04-1.06,1.06-2.43.11-3.23,1.24-.64.9-.64,2.12-1.36,2.98-.73.71-1.36-.63-2.12.56-.62.98-.64,2.21-1.08,3.26-1.05.08-.93-1.26-1.92-1.28-1.09.25-1.01,1.74-1.28,2.55.31-.96.36.07,0,0,1.96.37-2.09,5.13-2.56,5.74-1.44-1.05-.21-6.25-2.88-4.46-1.7,1.14-1.13,3.58.39,4.16,1.23.47-.92,6.77-1.92,5.98-1.1-.87-1.43.03-1.34,1.34-1.37.49-2.14,1.71-2.88,2.87-.62-.37-.08-3.6-.21-4.41-.38-2.44-2.31-.95-2.67.59-.65-.63-.12-2.01-.99-2.46-1.54-.8-1.71,1.66-1.88,2.46-.67-1.38-2.05-2.19-2.24-3.83,2.19.1,4.77-3.57,6.17-5,1.69-1.73,3.34-3.2,5.17-4.75,3.06-2.59,6.66-4.27,9.63-6.88,3.64-3.2,7.32-6.29,10.99-9.5.47-1.59,1.8-2.45,3.04-3.24.54-.35,2.45-1.52,2.39-2.18,4.28.66-1.43,9.07-2.56,7.97ZM79.94,81.57c-1-.22-.42-.85-.32-1.59.69-.06.14,1.13.32,1.59ZM87.62,90.81c-.16-.02-.22-.07-.23-.12-.41-.23-.56-.61-.41-1.16.46-.04.89.07,1.28.32-.23.3-.45.62-.64.96ZM101.75,98.21c-1.17.62-.67.72-2.14.89-3.35.41-8.13-.11-8.47-4.47-.9-.79-2.43-1.47-1.98-2.68.26-.71.25-1.17-.26-1.79.55-1.22,2.95-3.9,2.17-5.35-.46-.87-.75.54-.94-.44-.14-.74.23-1.23-.23-1.96-.95-1.55-1.64,1.81-2.29,2.33-.79-.4.08-2.09-.96-2.23-.79.57.01,2.14-.96,2.55-.09,1.05-.8,1.84-.96,2.87-1.72-.27-1.57-2.04-.58-2.73,1.11-.77,1.45-4.97,1.54-6.2-1.22.14-1.31,1.45-1.92,2.23-.6-.56-.67-1.48-.64-2.23-.48-.02-.8.19-.96.64-1.22-1.32-2.63-3.09-2.85-4.8-.13-1.03-.67-1.06-1.11-.42-.58.84.14.61-.19,1.72-.96.29-.89-1.6-.32-1.6-.09-.71-.87-.71-.96,0-1.19-1.95-2.19-4.09-3.84-5.74-.81,1.48-.22,6.36,1.92,6.38-.29.86-1.17-.27-1.28-.64.1.37-2.09-.57,0,0-2.18-.6-1.83-3.78-2.56-5.42-1.12-1.76-4.02-7.04-4.16-1.91-1.4-1.11-1.95-3.4-3.4-4.26-.42-.25-2.39-1.92-.75-2.12-.46-.4-5.39-4.04-5.43-3.51-2.26.66-3.59,2.76-6.03,1.5-1.91-.99-3.62-2.8-5.2-4.22-.64-.57-2.15-2.38-3.15-2.38-1.13-1.73-3.58-3.28-5.31-4.37-1.25-.78-2.04-2.06-3.29-2.79-4.03-2.35-7.66-6.14-11.4-9.05-3.59-2.79-7.02-5.62-10.58-8.36-2.91-2.24-4.61-8.63-5.51-12.06-.71-2.69-.65-5.33-1.3-7.99,1.27-.94,3.6,1.77,4.48,2.33,3.47,2.21,6.83,4.95,9.58,8.03,1.67,1.88,4.09,3.04,5.89,4.88,1.64,1.68,3.42,2.97,5.2,4.51,3.53,3.06,6.58,6.62,10.11,9.68,3.72,3.22,6.97,6.99,10.59,10.41,2.96,2.78,6,5.25,9.29,7.7,1.66,1.24,2.72,2.76,4.63,2.82,1.12,1.85,3.29,2.67,4.47,4.46,3.91,1.14,7.54,5.32,10.73,7.71,4.48,3.36,8.57,7.22,12.69,11.02,1.99,1.84,3.98,3.68,6,5.5,0,1.65,2.48,2.39,2.55,3.83.08,1.4.87,4.19,1.28,5.74-.84.47-.28,1.48-1.21,1.98ZM87.39,90.7c.07.04.14.09.23.12.05-.32-.24-.23-.23-.12ZM35.83,68.5c-.55.7-.24,2.59.96,2.55,1.24-.38.58-2.98-.96-2.55ZM26.88,75.83c-.79,1.14-.78,3.82,1.6,3.51.68-1.26.12-3.62-1.6-3.51ZM27.2,82.21c-.47.19.03.38,0,0h0ZM16.84,83.83c.16.14-.55.72-.35.26-.76,1.35-1.08,3.28-1.12,4.75-.01.47.51,4.02,1.39,2.07.4-.87,1.34-6.74.08-7.09ZM16.65,83.8c.07,0,.13,0,.19.03-.03-.03-.08-.04-.19-.03ZM92.73,91.77c1.54.61-.56.66-.17.15-1.06,1.1-.04,4.5.97,5.16,2.74,1.78.78-2.2.79-2.76,1.27,1.13,2.34,2.38,2.55,4.14,1.07-.47,2.18.32,3.2-.32-.85-2.4-5.05-5.46-7.35-6.38Z"/>
    </g>
  </g>
</svg>