<?xml version="1.0" encoding="UTF-8"?>
<svg id="Layer_2" data-name="Layer 2" xmlns="http://www.w3.org/2000/svg" viewBox="0 0 72.92 101.38">
  <defs>
    <style>
      .cls-1 {
        fill-rule: evenodd;
      }
    </style>
  </defs>
  <g id="food_icons" data-name="food icons">
    <g id="fries">
      <path class="cls-1" d="M41.49,11.8c.05.04.11.07.16.11-.01-.04-.06-.08-.16-.11ZM10.8,23.27c.12-.03.22-.04.3-.03,0-.03-.06-.03-.3.03ZM42.45,12.43c-.28-.16-.54-.34-.8-.53.03.12-.24.21-.16-.11-.24.39-.35.81-.32,1.27.65.17,1.08-.04,1.28-.64ZM12.08,23.91c-.59,0-.5-.62-.98-.67-.02.08-.6.33-.3.03-1.09,1.11.39,2.13,1.28.64ZM54.76,14.65c1.69,0,.39-1.26-.16-1.58.47.28,0,.63,0,0,0,.52-1.71,1.58.16,1.58ZM41.49,28.52c1.5-.29.49-1.74-.64-1.74.32,0-.27.37,0,0-.57.78-.62,1.99.64,1.74ZM10.48,27.74c0,1.5,1.5,0,0,0,.21,0,0,.21,0,0ZM36.19,1.23c.41.19.8.41,1.15.68-.71-.56-1.04-.72-1.15-.68ZM64.83,23.91c-.75-.86-2.14.53-1.28,1.28.81-.04,1.24-.46,1.28-1.28ZM50.44,11.48c.32-.01.55-.03.72-.05-.24.02-.48.04-.72.05ZM33.82,7.33c.66-.65,0-1.62-.96-1.59-.48.47-.03,1.65.96,1.59ZM27.11,4.78c.11-.01.2,0,.29,0-.06-.01-.14-.02-.29,0ZM29.82,8.29c.07.05-.24.22-.22.1-.27.45-.37.95-.26,1.49,1.3.27,1.71-1.64.48-1.59ZM29.66,8.29c.06-.01.1,0,.16,0-.02-.01-.06-.02-.16,0ZM27.4,4.79c.25.07-.29.34-.29,0v1.28c1.55.07,1.53-1.21.29-1.27ZM19.84,15.29c-1.97-.12-1.63,1.4-1.05,2.57,1.41.14,2.23-1.15,1.51-2.24.11.35-1.23-.33-.46-.32ZM53,48.78c-2.54,4.58,3.49.34,0,0h0ZM33.76,13.4c.95-.78-.34-1.61-1.28-1.85-.03.12-.58.28-.58-.07,0,.85.36,3.15,1.86,1.92ZM20.3,15.61c-.02-.06-.08-.16-.23-.31.1.1.16.2.23.31ZM72.63,40.52c-1-.9-2.5-1.15-3.33-2.26-.5.06-1.98,0-2.43-.03.33.02,1.96-14.24,2.11-15.59.51-1.45,1.9-3.57.28-4.75-1.66-1.2-4.04-1.63-6.04-1.63-.52,0-3.08.53-3.2.32.36-1.89.84-3.87.54-5.8-.54-3.47-8.49-1.23-10.77-1.21,0-1.44.55-3.75-1.24-4.02-1.43-.22-2.9-.17-4.35-.13-2.41.06-4.46.59-6.64.89-.4.05-.24-3.99-.24-4.39,0,1.01-1.44-.59-1.15-.68-2.45-1.14-5.74-.86-8.26-.97-1.22-.05-3.13-.75-4.01.38-.74,1.36.09,3.23.1,4.67,0,1.17.98,3.6.22,4.58-1.53.08-3.07,0-4.59.21-1.18.16-2.53.52-3.14,1.65-.84,1.54,1.82,1.36,2.69,1.21,1.38-.24,2.84-.78,4.27-.48,1.46.32,1.01,4.36,1.11,5.71.33,4.39.8,8.76,1.31,13.13,1.02,8.68,2.2,17.34,2.82,26.06-2.04-1.02-3.07-3.14-4.26-4.96-.93-1.42-.76-3.84-2.14-4.92-2.24-1.28-5.01-.45-7.39-.14-1.59.21-2.11.7-2.29-1.05-.11-1.1-.31-2.19-.56-3.26-1.08-4.64-1.79-9.23-2.7-13.89-.31-1.59-.7-3.08-1.27-4.6-.5-1.35-1.4-2,.14-2.75,2.11-1.03,4.41-1.61,6.72-2.05,0,6.4.37,12.62.76,19.01.11,1.77.13,5.8,1.72,7.04,2.83,2.21,2.99-2.52,2.79-4.01-.87-6.33-1.08-12.74-2.17-19.04-.25-1.42-1.92-12.05-3.09-11.92-.75,2.1-.2,4.52-.32,6.69-1.97-.27-13.63,2.17-11.69,5.34.63,1.03,1.93,1.65,2.1,2.95.35,1.61.61,3.23.83,4.86.52,3.79.82,7.61,1.41,11.4-3.48-.12-5.76,2.93-7.11,5.81-.66,1.41.76,1.81.4,3.11-.25,1.09,1.33.72.96,1.91.12,1.11.03,2.21-.31,3.27-.44,1.37.11.92.5,2.17.58,1.86.26,4.32.4,6.26.32,4.22.86,8.41,1.4,12.6.32,2.5.63,5.01.88,7.53.14,1.49.8,3.56.64,4.84-.12.99.72,1.12.65,2.23v2.71c0,2.43.33,3.14,1.92,4.94,1.8-.05,3.5.96,5.43.96,2.05,0,4.04.18,6.08.36,4.46.39,8.94.66,13.42.6,4.88-.64,9.78-1.18,14.66-1.89,2.16-.31,4.32-.66,6.46-1.06,2.07-.39,1.82-1.65,3.38-2.59,2.89-1.76,2.72-8.64,3.38-11.78.83-3.95,1.47-8,2.36-11.93,1.69-7.49,2.39-16.56,6-23.44.79-1.5,5.32-6.86,3.86-8.17ZM49.78,12.85c-.01,1.34.38-2.97.66-1.37-.06-.33,1.77-.17.72-.05,2.39-.2,4.98-.76,7.27.05-.5,2.93-.87,5.88-1.21,8.84-.77,6.74-1.03,13.28-1.03,20.07,0,.94.46,5.91,2.78,3.26,1.16-1.33.42-5.09.42-6.7,0-6.35-.29-12.79.63-19.09,1.48.88,3.47.65,5.11.86,2.4.31,2.12.78,1.65,2.87-.87,3.91-1.17,7.97-1.83,11.93-.41,2.44-1.18,4.78-1.84,7.16-.63,2.27-.1,3.63-2.63,3.63-1.72,0-3.33.46-5.15.31-1.67-.14-3.66-.48-5.22.35-.07-6.21-.22-12.42-.3-18.63-.04-3.13-.07-6.26-.06-9.4,0-1.36.01-2.72.02-4.08ZM37.34,8.61v-.96c2.78.42,5.67-.11,8.47-.05,2.1.04,1.5,4.39,1.51,6.18.02,5.56-.1,11.32-.47,16.86-.21,3.17.1,6.31.1,9.5,0,1.87-.92,6.45.63,7.82,1.37,1.21,1.32,1.1.19,2.91-.81,1.29-1.8,2.45-2.76,3.63-1.49,1.68-2.8,3.56-5.11,4.14-.52-8.38-1.19-16.75-1.28-25.15-.09-8.32-1.46-16.57-1.28-24.9-.17,7.5,0-.32,0,0ZM26.15,2.23c1-.06,1.4-.06,1.48-.03,2.51-.02,4.99.25,7.47.67.54,1.48.1,4.28.05,5.85-.18,5.78-.04,11.4.23,17.2.29,6.28-.57,12.7.3,18.93.34,2.47.3,4.93.57,7.4.2,1.78-.05,4.95,1.09,6.41-.81.61-2.18.36-3.1.31-1.58-.09-1.64.56-1.84-1.35-.34-3.16-.68-6.32-1.04-9.48-.71-6.15-1.96-12.33-2.38-18.49-.63-9.21-2.83-18.17-2.83-27.41ZM2.81,48.46c.09-.2.18-.36.27-.49,1.02-1.67,3.01-2.44,4.2-3.97,1.28.65.54,2.66,1.6,3.51-1.81.94-4.1.82-6.07.96ZM54.91,85.43c.65-1.16-.34,3.38,0,0-.21,2.03-.45,4.07-.92,6.06-.57,2.44-.67,3.2-3.21,3.54-4.21.55-8.28.56-12.54.58-4.58.02-9.16.07-13.74.08-3.56,0-8.36-.96-11.79-.05-.12-1.18,2.84-1.59,2.88-3.19-1.99-.14-2.46,1.81-4.16,2.23-.37-2.05,3.05-2.06-.35-3.22-1.38-.47.3-2.34,1-2.52,1.1-1.22.57-1.84,2.21-2.25,2.76-.7,5.77-3.97,7.8-5.85,1.49-1.38,2.09.33,3.42,1.36,1.11.86,2.3.66,3.12,1.79,2.31,3.17,5.45,1.97,8.71.72,3.52-1.34,7.05-2.66,10.5-4.15,1.34-.58,8.08-4.86,9.09-4.32,1,.53-1.47,8.2-2.03,9.2ZM60.77,59.83c-.5,1.84-.9,3.71-1.15,5.6-.28,2.13.04,2.58-2.21,3.04-3.84.78-7.43,2.72-11.14,4.06-3.46,1.25-6.94,2.43-10.3,3.92-1.7.75-2.22,1.53-3.29,0-.46-.65-1.44-1.73-2.03-2.04-.7-.37-1.1-.66-1.95-.45-.12-.47-.37-.86-.76-1.15-.92-.8-2.15-.25-3.31-.36-1.94-.19-2.79-.21-4.55.92-1.13.72-2.15,1.59-3.28,2.31-2.2,1.41-4.81,4.22-7.27,4.98-.42-1.43-1.89-6.65-1.15-7.9.35-.6,1.28-.55,1.48-1.28.47-1.73-1.29-.6-1.93-.7.1-1.85-1.05-3.12.14-4.49,1.35-1.54-.66-1.84-1.17-2.93-.7-1.51.75-1.9,1.61-2.84.82-.88.76-2.85-.9-2.49-.37-.18-3.54.5-1.91-1.44.83-.98,2.2-1.05,1.91-2.7-.35-1.71-2.53.49-3.2-.64-.55-1.56.99-1.11,1.9-1.38,2.18-.66,5.09-.35,7.44-.7,1.58-.24,3.18-.48,4.77-.66,1.62-.19,1.51.11,1.89,1.56,1.04,3.96,4.49,7.55,8.04,9.34,4.31,2.17,11.15,1.64,15.28-.5,4.05-3.19,6.81-7.67,9.27-12.11,3.62.35,7.24.63,10.87.64-.86,3.52-2.14,6.92-3.1,10.42ZM66.74,43.04c-.68.1-.98.7-1.59.88.54-.28.25-1.18-.32.08.7-1.54,1.04-3.2,1.6-4.78.46.06,2.87,2.71,2.88,3.19-.74.88-1.64.3-2.56.64ZM31.9,11.48c.15-.02.35.01.58.07.02-.06-.12-.12-.58-.07ZM41.49,37.94c0,.42-.93-.29,0,0-1.44-.44-1.92-.33-1.92,1.27,1.25,1.33,1.92-.35,1.92-1.27ZM27.63,2.2c-.49,0-.99,0-1.48.03,0,.23,1.69.03,1.48-.03ZM3.08,47.97c-.1.16-.2.31-.27.49,1.98-.14,1.12-1.7.27-.49Z"/>
    </g>
  </g>
</svg>