<?xml version="1.0" encoding="UTF-8"?>
<svg id="Layer_2" data-name="Layer 2" xmlns="http://www.w3.org/2000/svg" viewBox="0 0 125.82 112.62">
  <defs>
    <style>
      .cls-1 {
        fill-rule: evenodd;
      }
    </style>
  </defs>
  <g id="food_icons" data-name="food icons">
    <g id="fruits_veggies" data-name="fruits&amp;amp;veggies">
      <path class="cls-1" d="M71.79,13.1c.31,1.48.58-.51,0,0h0ZM124.91,24.71c.32-1.01.74-3.07-.16-3.86-1.46-1.28-1.5-1.55-1.5-3.61-.53-.03-.91-1.34-1.5-1.52-.8-.24-.37-2.41-.72-3.19-.5-1.09-1.54-1.69-2.66-1.98-2.92-.76-5.9,1.12-8.07,2.96-1.24,1.05-3.12,1.99-3.63,3.58-.31.98-.6,2.22-1.64,2.71.15-.96-.85-.8-.95-1.59.33-.58.52-1.2.57-1.87,0-1.41.54-1.79.88-3.23.56-2.41-2.58-2.99-1.77-4.9,1.01-2.36-.84-4.08-3.07-4.32-1.43-.16-1.6.07-2.72-.77-.58-.44-1.21-.52-1.88-.22-.22-1.25-1.28-1.87-1.92-2.87.58.91-1.31.04-.27,0-3.31-.14-5.24.91-7.17,3.68-1.56,2.24-2.51,4.85-3.12,7.49-1.54-.76-3.01.19-4.19-.6-1.44-.96-.98-.93-1.33-2.66-.44-2.19-2.01-2.22-3.58-.91-1.07.89-1.9-.7-3.07.8-.86,1.1-1.54,2.31-2.22,3.53-.67,1.21-1.36,2.44-2.21,3.53-1,1.28-1.04,2.85-1.4,4.44-.45,1.98-.33,2.79.07,4.66.29,1.35,1.29,2.1,1.63,3.48-.07,2.34,1,5.27,1.64,7.56.59,2.1,1.46,4.4,3.07,5.91,1.33,1.25,1.96,6.04,2,7.88-3.79-.42-7.31,2.31-9.93,4.57-.96.83-1.9,2.31-1.58,3.71-.99,1.39-1.58,3.03-2,4.67-.88,3.44-.76,7.42-2.1,10.69-1.43,3.52-2.12,6.97-2.81,10.69-.94,5.07-1.96,10.12-2.95,15.18-.45,2.3-.9,4.6-1.33,6.9-.28,1.21.4,2.28,0,3.62-.27.93.41,3.33,1.44,3.66,1.61.51,1.37-.7,2.39-1.22-.27-1.79,4.4-5.5,5.52-6.93,5.74-7.32,11.87-14.27,16.41-22.41,2.16-3.88,4.8-7.21,7.48-10.72,1.84-2.4,4.33-5.44,5.49-8.24.89-2.17.44-2.06-.58-3.46-.89-1.22-.32-3.21-1.34-4.51-1.7-2.16,0-2.38,1.79-3.71,1.53-1.13,3.04-2.3,4.65-3.33,3.3-2.12,7.04-4.04,10.8-5.17,1.48-.45,3.14-.98,4.11-2.28.23-1.31-1.56-.46-1.92-1.27,3.09-1.1,6.28-2.42,8.63-4.78-10.72,1.21-20.81,8.1-29.11,14.49-1.73,1.33-3.18,2.7-4.83,4.16-.08.07-1.45,1.64-1.55.79-.71-.95-1.34-.94-.37-2.08,1.51-1.76,3.79-2.78,4.84-4.93,2.07-.06,2.54-2.06,4.16-2.87.16,1.77,2.81-1.25,3.33-1.67,1.52-1.26,3.05-2.5,4.47-3.87,1.42-1.37,3.11-2.14,4.62-3.44.57-.49,6.14-4.68,2.77-3.9-2.93.68-4.94,2.9-7.51,4.27.59-2.89-3.64.16-4.79.64.44-.83.78-1.72,1.33-2.5.71-1.02,1.44-.59,2.54-.87,1.57-.39,2.77-1.16,4.02-2.24,2.73-2.35,4.42-5.58,5.22-9.06,1.14.57,1.42,1.09,2.38-.05.75-.89,1.66-1.56,1.78-2.82,1.6-.84,2.64-2.52,4.35-3.32,1.13-.53,4.76-2,2.77.85-.84,1.2-2.79,2.68-1.81,4.4.94,1.65,2.62,1.85,3.96,2.69,1.76,1.11-.46,3.14-.64,4.3.67.52.41,1.74,1.6,1.59.61.03.65.68.81,1.1.69,1.75,2-.62,2.7-.47-.41,1.47-1.37,2.66-2.7,3.42-1.07.61-2.99,0-3.78,1.02-.95,1.22.87,1.57,1.37,2.25,1.36-.13,2.74-.41,3.98-1.01,2.47-1.21,3.59-3.62,3.7-6.28.07-1.82-1.46-2.62-.91-4.37ZM68.59,17.56c-.94-.27.42-.8,0-1.6.75.08.18,1.4,0,1.6ZM83.3,19.15c.58.78.59,2.04-.32,1.28-.47-.4-.08-.62.32-1.28ZM73.74,37.01c-.89-2.73-1.74-5.47-2.23-8.3-.54-3.16-.6-6.39-.04-9.56-.11-1.3-.69-2.55-.08-3.83.37-.76.59-1.36.4-2.23,1.01-.88,2.73-.73,1.7.92-.61.98.15,2.65,1.48,1.98,1.47-.73,1.95,1.02,3.36-.45,1.17-1.21,1.71-2.8,3.69-2.77.07,1.55-4.01,4.62-.32,4.78-.78,1.69-2.46,2.73-3.21,4.45-1.23,2.83,1.96.81,2.89.65-.36,1.79-1.77,2.82-2.88,4.14,0,1.28-.58,3.17-1.6,4.15.22.89.95,1.36,1.6,1.91-.43,1.18-.83,2.38-1.21,3.57-.77,2.42-1.48,4.86-2.31,7.27-.72-.64-.3-2.23-.28-3.04.03-1.24-.59-2.49-.97-3.65ZM61.88,81.64c-.39-.14-.65-.41-.64-.96.39.14.65.41.64.96ZM80.74,57.41c.88-.76,1.5.09,1.6-1.44.08-1.42.87-1.21,1.92-.52,1.77,1.17,2.05,3.56,1.6,5.46-.14,1.68,1.46.74.46,2.62-.68,1.29-1.53,2.48-2.41,3.66-1.62,2.2-3.25,4.4-4.9,6.57-3.8,5.01-6.39,10.75-10.23,15.75-.71.92-1.29,2.79-2.41,1.34-.48-.63-1.52-.87-2.29-.93-1.31-.1-1.02,1.49-.27,2.02.71.49,1.72.5,2.54.53-3.03,4.93-7.47,8.8-10.55,13.71-1.13-1.27,1-5.81,1.28-7.33.99.12,2.79-.26,2.21-1.72-.45-1.14-1.48-.51-1.24-2.09.27-1.85,0-2.68,2.02-2.98,1.09-.16,1.75-1.83.53-2.45.75-.74,1.9-2.82,1.54-3.9-.29-.86-1.07-1.11-.9-2.16,1.24.07,1.52-.51,2.71-.64,1.34-.16.82-1.39.2-2.05-1.13-1.21-2.85-1.67-1.95-3.69,1.33.6,3.88.07,2.7-1.89-.57-.95-1.87-1.26-1.11-2.57,1.22,1.78,7.19,7.06,9.59,4.46-.59-2.24-3.15-2.65-5.12-2.87-.75-.74-3.38-3.6-3.83-2.23-.8-.49.4-1.78.64-2.23.73.86,1.16,2.03,2.21,2.58,1.28.66,1.46-.34,2.26-.35.05-2.13-2.97-2.87-4.47-2.87.19-1.15.48-3.34,1.77-3.06,1.33.29,2.39.55,2.39-1.08.06-1.05-1.08-1.02-1.78-1.29-.84-.33.13-2.23.49-2.86.63.84,5.38,5.13,4.72,1.57-.42-2.26-2.54-3.06-4.08-4.44,0-1.98,0-1.72,1.69-2.53,1.28-.61,1.36-1.91,2.76-1.21,1.15.58,2.16,1.41,2.9,2.46,1.38.16,2.73.47,4.11.58-.24-.07.9-.14.68.05ZM102.68,12.95c-.46,1.67-2.22,2.17-3.55,2.95-1.13.66-2.43,2.79-.17,2.94-.5,1.11-.7,2,.32,2.87,1.25-.04,1.99-1.13,3.2-1.27-.16,1.9-4.25,11.31-7.35,8.29-2.06.85-2.35,3.36-3.84,4.78-1.23,2-2.55,3.99-3.82,5.91-2.07,3.12-4.51,6.66-7.18,9.36-.96.97-.82-.29-1.55,1.37-.49,1.12-1.19,1.17-2.33,1.23-1.62.08-1.25-.76-.99-2.05.26-1.32.95-.53,1.31-1.66,1.38-4.29,2.64-8.71,5.04-12.59.52-.84,1.51-5.63.68-6.44-1.5-1.46.6-2.17,1.58-3.52.88-1.21,1.6-2.52,2.48-3.72-.15-1.19-.26-2.38-.45-3.56-.39-2.42-.47-4.34.07-6.79.43-1.96,1.14-3.88,2.2-5.59.49-.79,1.06-1.53,1.69-2.21.59-.63,1.87-.62,2.25-1.29,2.78-.42.46,2.5.31,3.24-.23,1.12.4,1.87,1.51,1.85,1.26-.02.81-.18,1.77.26.98.45,5.88-2.71,5.28,0-.33,1.48-1.76,2.04-2.58,3.17-1.07,1.45-.14,3.11,1.58,2.27.77-.38,3.08-1.67,2.55.23ZM92.25,1.94c-.27.47,1-.15,0,0h0ZM80.06,57.36c.07.02.27.04.68.05-.23,0-.46-.03-.68-.05ZM87.77,26.17c.23.11-.37.26-.24.14-2,1.2-2.95,5.46-3.78,7.41-.71,1.67-3.51,6.55-2.06,8.39,1.3-1.79,7.78-15.09,6.08-15.94ZM87.54,26.3c.08-.05.16-.1.24-.14-.14.07-.21.11-.24.14ZM71.79,26.8c.32,0,0,.43,0,0,0,1.53.46,5.12,1.92,6.06-.2-1.19-.44-2.38-.64-3.57-.22-1.36.32-2.49-1.28-2.49ZM20,38.28c.11.08.2.16.28.25.01-.01-.05-.08-.28-.25ZM24.87,43.46c-1.65.67-3.36,1.18-4.73,2.44-.65.6-2.03,2.26-1.7-.02.23-1.61.34-2.91,1.08-4.37.46-.9,1.71-2,.77-2.99-.03.03-.51-.25-.28-.25-2.58,0-4.35,4.12-4.19,6.35.18,2.42-1.12,1.13-2.92,1-2.04-.14-3.24.52-5.04,1.37-4.14,1.95-5.83,4.03-6.86,8.49-.79,3.43-1.8,8.94.08,12.09,2.01,3.37,3.55,7.18,6.46,9.92,1.87,3.44,4.36,5.55,7.06,8.31,2.3,2.36,5.43,3.88,8.33,1.62.91-.71,1.78-1.51,2.43-2.43.8-1.13,2.82.28,3.84.53,8.13,2.01,14.78-5.82,17.6-12.37,1.58-3.67,1.44-7.92,1.86-11.79.36-3.35-2.7-7.57-4.55-10.16-4.02-5.63-12.25-10.61-19.24-7.76ZM6.58,66.02c-.19.03-.4-.45-.32-.64.49-1.12.61.59.32.64ZM11.05,75.26c-.57-.23-.04-.58,0-.96.57.24.05.58,0,.96ZM14.25,77.81c.03.38-.46.2,0,0-.3-1.32.96-.07,0,0ZM17.77,81.32c-.16-.17.23-.41.32-.32.17.16-.23.41-.32.32ZM45.93,61.87c.11,1.7-.2,3.4-.03,5.1-.31,1.22-.89,2.1-1.08,3.34-.48,3.18-2.34,5.57-4.34,7.97-1.15,1.38-1.93,2.25-3.5,3.18-1.37.81-2.59.14-4.07-.08-1.48-.22-2.86.13-3.99-.93-.87-.81-1.62-1.74-2.85-2.01-2.5.47-4.48,2.6-7.03,2.87.03-1.95,2.4-1.54,3.2-2.87-.09-1.01,1.36-3.26-1.17-2.52-.91.27-2.4,1.58-3.38,1.08-.5-.25-.81-1.5-1.47-.42-.26.43-.37.94-1.01.91-.28-2.63,2.01-4.98,3.19-7.15,1.06-1.96-1.2-.66-1.79-.17-.85.71-1.61,1.8-2.05,2.85-.85-.29.91-2.22-.5-2.48-.72-.13-1.41-1.33-1.23-1.32-1.68-.11-.39.33-1.39-1.39-.93-1.59-2.29.89-2.52-1.16-.09-.77.71-3.01-.12-3.38-1.06-.47-.63-1.73-.63-2.71,3.53,1.08,1.55-3.72.18-1.96-.87,1.12-.2,3.63-1.14,4.19.03.39-.46.2,0,0-.46.2.1-.39,0,0,.07-.26-.08-1.88-.32-.96-.91-.62.79-3.43,1.04-4.17.71-2.12-1.37-.77-1.37.34-2.1-1.46,2.43-5.52,2.56-6.69.83-.03,2.51-1.52,2.19-2.32-.59-1.48,1.64-.86,2.44-.7,2.45.49,2.18,1.03,2.96,3.19.55,1.52.29,1.02-.96,1.3-2.04.46,1.12,2.72,1.77,2.89,1.69.46,3.91.34,5.36-.74,1.61-1.19,1.21-3.81-1.22-2.6-1.32.66-2.34,1.2-2.3-1.02.16-1.04,1.85-2.27,2.67-2.87.68-.5,6.25-2.6,6.29-2.87.62.66,2.79.44,3.71.66,1.58.38,3.02,1.31,4.57,2.05,2.11,1.01,4.48,3.89,5.88,5.8.99,1.35,1.62,2.9,1.82,4.56.51,1.29,1.53,1.59,1.63,3.19ZM80.42,41.15c.19.57-.94,1.33,0,1.6.18-.19.75-1.51,0-1.6ZM35.67,53.9c.94.66.49,2.69,2.23,2.55,1.16-1.4-1.12-3.44-2.23-2.55ZM31.83,55.81c.25-1.1-.35-1.35-.64-1.91-3.02-.57-1.09,3.62.64,1.91ZM36.95,62.51v-1.59c-1.63-1.07-2.06,1.76,0,1.59ZM13.93,60.91c-.79.95-.17,2.53.96,2.55.96-.65.76-2.8-.96-2.55ZM25.37,62.71c.23,0,.47.04.71.12-.37-.13-.59-.15-.71-.12ZM25.37,62.71c-1.95-.03-3.59,2.49-2.8,4.26,1.46.26,3.49-2.36,3.53-3.88-.05.75-1.18-.25-.73-.38ZM11.37,64.1c-.44.41-.44,1.51,0,1.91,1.97.31,1.89-2.13,0-1.91ZM27.36,65.06c.25.79-.94.27-.77.05-1.33.31-2.19,1.81-1.47,3.13,1.06-.57,2.63.42,2.88-1.28-1.62.2-.36-1.03-.64-1.91ZM27.36,65.06c-.49-.06-.71-.02-.77.05.24-.06.5-.09.77-.05ZM27.99,69.2c.8-.05.99.5,1.6.64.22-.79-1.36-1.35-1.6-.64ZM78.98,70.79c.09.22.16.43.17.65-.03-.73-.11-.8-.17-.65ZM79.14,71.43c-.28.3-.25-.42-.17-.65-.49-1.18-2.03-2.29-3.19-1.73-2.36,1.15,1.85,3.97,3.36,2.37ZM29.91,70.16c.21,0,0,.43,0,0,0,3.05,1.49,0,0,0Z"/>
    </g>
  </g>
</svg>