<?xml version="1.0" encoding="UTF-8"?>
<svg id="Layer_2" data-name="Layer 2" xmlns="http://www.w3.org/2000/svg" viewBox="0 0 112.39 114.38">
  <defs>
    <style>
      .cls-1 {
        fill-rule: evenodd;
      }
    </style>
  </defs>
  <g id="food_icons" data-name="food icons">
    <g id="gingerman">
      <path class="cls-1" d="M45.07,99.27c-.05-.09-.09-.19-.13-.29.08.24.12.31.13.29ZM74.03,95.79c-.32,0,.2,1.61,0,0h0ZM78.2,56.63c3.65,0,7.04-.93,10.47-1.6,3.55-.7,6.96-1.65,10.44-2.98,2.09-.79,3.7-1.71,5.32-3.27.51-.48,1.41-2.68,1.89-2.72-.11-2.55.14-5.07-.38-7.6-.17-.84-1.18-1.76-1.22-2.6-.15-2.86-6.92-3.56-8.79-3.79-8.32-1.01-16.77-.08-25.1.28.21-1.01,1.71-.59,1.92-1.59.64-.17.7-.9,1.08-1.32,1.07-1.16,1.73-3.16,2.14-4.81,1.07-4.31-.77-10.25-2.8-13.89-2.21-3.95-6.07-6.15-9.94-8.26C58.94.13,55.35-.41,50.5.28c-2.68.38-5.32.96-7.96,1.55-2.34.52-4.56,2.25-6.5,3.64-3.74,2.67-6.11,6.69-6.76,11.27,0,5.52.25,10,3.46,14.72.92,1.35,2.65,2.38,3.41,3.45.57.8,4.27-.04,5.28,0-.23-1.15-1.26-1.65-2.19-2.15-1-.53-1.87-1.67-2.66-2.5-1.84-1.95-3.29-5.29-3.42-7.89-.25-5.19.1-9.77,3.73-13.92,3.5-4,9.7-5.2,14.77-5.74,1.42.1,2.82.36,4.24.36,1.68.01,2.89.83,4.45,1.5,2.62,1.11,4.71,3.03,7.3,4.2,1.67,2.65,3.52,4.28,4.25,7.42.58,2.51,1.09,4.97.86,7.57-1.05,3.41-2.46,4.89-5.44,6.69-.62.17-2.44,2.25-2.63,2.88-.16.52.38,1.75,1.04,1.58-.21,1.53.39,1.65,1.63,1.56.64-.05,1.27.8,1.5-.22.14-.59.29-.95,1.02-.7,3.02-.34,6.45.32,9.52.32,1.4,0,4.63-.17,5.82.64-3.44-.4-7.18,5.44-4.24,7.99,1.22,1.05,2.55,1.59,2.32,3.49.26,1.09-1.47,1.54-2.08,2.13-.52.51-.47,1.45-1.44,1.37-1.14,0-2.29-.05-3.43,0-3.19.13-3.86,1.1-4.25,4.14-.34,2.59-.83,5.95,0,8.47.68,2.11,1.98,3.8,2.24,5.97.56,4.74,1.94,9.94,3.43,14.52.71,2.21,1.35,4.5,1.41,6.87.02.63.44,2.72.33,3.18-.14.55-1.61,3.26-2.54,1.11-.73-1.69-1.48-2.65-3.56-2.57-1.8.07-2.23,1.74-3.52,2.62.05.34-.29,3.49-.64,3.51-.85-1.16-.8-2.66-1.91-3.62-1.37-1.17-1.84-.2-3.19.19.11-.03-1.97-8.93-2.27-9.95-.99-3.32-4.21-17.07-9.54-9.2-2.15,3.17-2.09,7.64-2.82,11.36-.19.97-.86,10.02-2.5,7.67-1.56-2.24-4.06-4.3-6.46-1.69-.88.96-1.17,1.48-1.64,2.61-.23.55.45,2.79-.35,2.94-.04-1.79-1.03-3.3-2.42-4.28-1.39-.99-.54-3.25-.45-4.68.27-4.21.19-8.43.29-12.64.1-4.15-.12-8.24-.03-12.37.05-2.12.22-4.23.39-6.34.12-1.61,1.08-4.75-.67-5.29-4.19-1.29-8.79-1.06-13.13-1.21-1.87-.06-3.67.55-5.54.77-1.79.22-3.58-.22-5.4-.22-3.79,0-4.99-2.34-5.56-5.64-.17-.99-.37-1.99-.74-2.93.78-.35,1.57-.69,2.35-1.03,1.97-.86,3.96-1.69,5.96-2.48-.68,4.25,4.28,3.24,5.82,5.44,1.39,1.99-6.66,1.72-3.92,5.33,2.07,2.73,6.41-.48,7.27-2.58.92-2.26.6-3.89-.99-5.61-.97-1.05-3.68-.75-4.02-2.26,1.67-.13,2.54-.44,3.28-1.83.47-.88,3.22-.71,4.06-.73,3.9-.11,7.39.33,10.88.33,1.6,0,2.75.5,2.52-1.48-.09-.77-1-1.81-1.66-1.74-1.01.11-1.16-.59-1.5-1.56-1.35,0-1.21.89-1.6.96v-.32s-.45-.1-.9-.24c-3.63-.93-7.55-.66-11.25-.86-1.04-.06-2.09-.45-3,.22-.42.4-.91.7-1.47.88-2.05.06-4.08.34-6.07.8-2.15.5-4.23,1.22-6.29,1.97-2.02.73-2.05,1.44-3.39,2.95-1.52,1.72-1.97,8.88-.32,10.39,1.76,1.61,3.65,3.07,5.54,4.52,1.67,1.29,4.03,1.49,6.08,1.99,2.02.5,4.24,1.45,6.31,1.16,1.67-.24,3.68-1.08,5.37-.85,1.74.23,3.42.51,5.21.38,2.09-.15,1.5.64,1.36,2.45-.15,2.03-.24,3.47-.8,5.38-.18.6-1.12,4.66-.37,4.93.34.12.62-.51.96-.39.34.12-.15,10.98-.26,12.09-.37,3.99-.27,8.02-.23,12.02.04,4.24.02,8.55.6,12.63.61,4.2,5.25,6.12,8.89,6.31,2.32.12,3.81-.15,5.76-1.16.75-.39,1.61-1.87,2.34-2.01,2.31-3.9,3.34-8.44,4.47-12.78.52-2.01.45-4.28.63-6.35.13-1.45.51-2.76.63-4.16.15-1.71.93-3.27.96-4.93.03-1.47.22-3.18,1.3-4.29,1.81,4.87,2.92,9.96,4.16,14.98-.28,3.96.7,8.04,1.98,11.64,1.33,3.76,2.6,5.93,6.2,7.91,2.98,1.64,7.49,2.47,10.32.16,6.25-5.11,5.74-17.24,4.37-24.23-.9-4.56-2.12-9.05-3.35-13.54-.57-2.1-1.27-4.32-1.29-6.5.1-1.04.19-2.05-.23-2.74-1.25-2.04-3.46-9.32.24-9.32ZM85.9,40.24c1.48-.51,1.8-1.06,2.83-2.15-.67.71-.44-.41,0,0-.19-.18-.8-1.91-.89-1.85,1.71-1.18,7.46.16,9.39.6,1.55.35,3.5.59,3.94,2.24.39,1.45.62,2.93.67,4.43.18,5.26-11.07,6.24-14.7,7.01.13-2.04.13-4.46-.91-6.27-.22-.39-2.15-1.76-2.19-2.17-.08-.95,1.07-1.58,1.86-1.85ZM47.23,101.93c-.42,1.69-.81,3.41-1.52,5.01-1.62,3.66-4.32,3.89-8.02,3.41-3.1-.4-4.28-4.79-4.51-7.39-.15-1.62-.02-2.08,1.21-3.02.12-.63-.04-1.92.96-1.91.1,2.88.98,5.92,4.48,5.42,1.44-.07,1.75-1.45,1.83-2.64.07-1.3-.17-2.84.41-4.06,1.24-2.62,2.66.95,2.88,2.23-.17-1,.16.24.13.29.75,1.4,2.65.68,2.16,2.66ZM79.23,101.43c-.42,3.08-.82,7.36-3.92,8.81-2.97,1.39-6.03-.9-8.31-2.77-1.45-1.2-1.41-4.03-2.35-5.74-.81-1.49.94-2.25,1.06-4.03.91,1.32,3.18,6.87,5.5,3.65,1.2-1.66.18-5.56,2.81-5.56.28,2.24,1.61,3.4,3.61,3.65,1.69.21,1.88-.08,1.6,2ZM32.85,34.98c.3.08.6.15.9.24-2.61-.84-1.77-.52-.9-.24ZM62.15,19.38c-.08.18-.16.37-.26.54.3-.48.34-.59.26-.54ZM62.33,13.32c-.37-2.37-3.43-2.46-4.64-.71-1.24,1.78-1.68,4.78-.83,6.89.55,1.38,3.47,1.54,4.8.59-.13.04.36-.62.49-.72.78-1.79.47-4.27.19-6.06ZM61.88,19.92c-.07.06-.14.12-.22.18.03-.01.1-.06.22-.18ZM45.9,11.95c-2.11-.61-3.92-.02-4.47,2.4-.38,1.67-.91,5.44.15,6.75,4.8,5.93,7.96-6.01,4.62-8.92-.19-.12-.4-.26-.3-.23ZM45.9,11.95c.1.07.2.15.3.23.27.17.51.29-.3-.23ZM50.12,30.64c-1.15-.22-8.1-5.19-6.25-.68,2.06,5.02,17.71,6.18,17.51.68-.11.72-1.48-1.13-.64-1.02-1.49-.39-2.71.86-4.11,1.3-1.97.63-4.54.1-6.52-.28ZM61.24,29.8c.09.3.12.58.13.84.02-.15,0-.41-.13-.84ZM60.74,29.62c.17.04.33.09.51.18-.23-.11-.38-.16-.51-.18ZM51.84,46.29c1.23.19,2.58-.07,3.65-.73,2.06-1.28,1.94-5.12.61-6.87-1.44-1.89-6-1.06-7.96-.28-1.68,1.77-2.25,4.15-.88,6.31-.06-.25.88.6.24.38.93.31,1.9.4,2.87.32.33.54.82.84,1.47.87ZM49.64,42.64c.56.13.1-.99-.16-1.07-.1.27-.14.59-.07.98-.14-.8-.06-1.02.07-.98.51-1.38,2.9-1.38,4.19-1.09,1.69.39.08,2.17-.97,2.4-.99.22-2.12.18-3.06-.24ZM47.5,45.1c-.1-.13-.16-.26-.24-.38.01.06.08.18.24.38ZM68.91,43.51c0,.32-.73-.09,0,0-.65-.17-1.07.04-1.28.64.39.25.82.35,1.28.32v-.96ZM55.36,59.87c3.14-.96,3.47-3.48,2.61-6.34-.33-1.11-5.64-4.23-5.68-2.69-6.04,0-3.3,10.97,3.07,9.03ZM52.33,53.17c1.69-.53,3.54.59,3.6,2.26.23-.65.49-1.12-.11.83-.65.69-1.68.75-2.56.64.37-1.71-4.15-2.71-.93-3.72ZM52.29,50.84c.01-.31-.42,0,0,0h0ZM55.81,56.26c.09-.29.12-.56.11-.83-.17.48-.33,1.06-.11.83ZM64.21,54.3c-.51.02-.97.21-1.07.81-.31,1.82.64.19.67,1.14,1.67-.08.85-1.14.96-1.91-.04.28-.74.01-.55-.04ZM64.21,54.3c.18,0,.37.01.55.04-.33-.06-.49-.06-.55-.04ZM42.06,61.36c.77.19,1.46.46,2.56.32,2.62-2.63-3.65-5.07-2.56-.32ZM53.56,68.18c-.17.26-.28.54-.3.83,1.17.2.7-1.03.3-.83ZM51.48,71.63c.93.48,2.05.75,3.05.25.31.47.73.79,1.27.96,1.48.53,2.57.09,3.91-.56,1.58-.76,1.58-4.28,1.11-5.75-2.04-6.38-13.85-1.01-9.63,4.83-.19-.34.78.49.28.27ZM53.56,68.18c.98-1.55,4.03-2.39,4.39-.56.73,3.7-2.55,1.75-4.7,1.39.05-.52.17-.76.3-.83ZM40.46,73.79h-1.28c.34,0,.08.52.01.31.08,1.27,1.56,1.15,1.27-.31ZM39.2,74.1c0-.1-.02-.19-.01-.31-.02.17,0,.26.01.31ZM38.86,75.39c-2.36,2.34,1.63,4.27,3.52,4.14.56-1.32,1.62-1.98-.1-3.08-1.01-.64-2.26-.84-3.42-1.06,1.88.36-.53.53,0,0ZM23.12,79.49c.16.21.31.43.4.68-.56-1.43-.55-1.19-.4-.68ZM23.55,80.55s0-.15-.03-.38c.02.13.03.25.03.38ZM23.12,79.49c-1.76-2.27-7.02-2.28-8.16.43-1.19,2.82,1.87,4.84,4.41,4.71,1.69-.43,4.17-2.12,4.18-4.08-.04.11-.3-.59-.43-1.06ZM18.09,81.12c-.26-1,1.04-.61,1.7-.61.08-.06.4-.18.22-.02.38-.27.81-.37,1.28-.32-.76.85-2.17.88-3.2.96ZM20.01,80.49c-.06.02-.14.02-.22.02-.05.03-.02.05.22-.02ZM69.56,83.67c.28-1.42-1.44-1.91-2.24-1.28.01,1.16.94,1.4,2.24,1.28ZM100.88,91.33c-.21.78-1.59-.35-.45-.12-1.73-.44-4.67-.55-5.62,1.08-.04,1.43.96,2.56,2.24,3.06,1.18.45,2.7.42,3.66-.5,1.54-1.47-.14-2.34.17-3.52ZM100.43,91.2c.16.04.32.08.45.12-.19-.06-.33-.1-.45-.12ZM110.94,99.69c-1.72-.78-4.04-.65-5.75.09-1.96.84-2.13,4.14-.42,5.4-.11-.14.69.11.94.23.78-.05,1.2-.57,1.85-1.18.95-.9,2.02.12,3.23-.45,1.89-.89,2.3-3.12.15-4.09ZM106.96,103.12c-1.41-.46-.13-1.74,1.28-1.27-.03.82-1.25.46-1.28,1.27ZM105.04,105.35c-.09-.05-.18-.11-.26-.18.03.03.11.09.26.18ZM105.72,105.41c-.2.01-.42,0-.68-.06.77.17.84.14.68.06ZM92.41,103.51c-1.21.72-1.98,3.45-.17,4.07-.26-2.11,3.54-3.81,3.67-1.76.1,1.65-1.8,1.52-2.49,2.51.07.21.04.98-.1.81.76,1.38,3.55.64,4.25-.31,1.17-1.58,1.33-3.26.23-4.94-1.16-1.78-3.77-1.34-5.39-.38ZM93.21,108.86c.04-.21.12-.38.22-.53-.04-.13-.11-.06-.22.53ZM93.33,109.14c-.05-.09-.09-.18-.12-.28.05.15.08.24.12.28Z"/>
    </g>
  </g>
</svg>