<?xml version="1.0" encoding="UTF-8"?>
<svg id="Layer_2" data-name="Layer 2" xmlns="http://www.w3.org/2000/svg" viewBox="0 0 94.66 118.27">
  <defs>
    <style>
      .cls-1 {
        fill-rule: evenodd;
      }
    </style>
  </defs>
  <g id="food_icons" data-name="food icons">
    <g id="grapes">
      <path class="cls-1" d="M69.65,25.55c.14-.24.15-.77-.26-.07.03.08.13.1.26.07ZM58.52,32.17c-.23.08-.31.11-.3.12.1-.04.2-.09.3-.12ZM76.74,37.91c-.83.45,3.15-.2,0,0h0ZM94.57,47.44c-.09-.55-.24-3.2-.56-3.47-1.43-.18-2.21.62-3.43,1.09-1.34.52-3.2.25-4.5-.3-2.12-.9-.64-2.12.5-3.5.73-.88,1.4-1.77,2.1-2.68,4.36-5.63-12.38-3.59-13.84-3.54-1.28,1-3.09.82-4.47,1.59-1.85.74-3.74,1.55-5.47,2.52-2.09,1.17-5.16,3.58-7.64,3.54,2.26-2.58,3.3-4.03,6.54-5.43,2.24-.96,4.53-2.04,6.25-3.82,2.98-1.22,5.63-3.09,8.49-4.56,1.68-.87,4.04-.45,5.53-1.62.87-.68.87-1.82-.16-2.36-1.05-.55-2.53-.05-2.15-1.48.5-1.87-3.03-3.27-4.33-2.15-1.41,1.21-2.75,2.22-4.83,2.28-.14.39-2.19,1.85-2.94,1.99-.07.13-.17.18-.26-.07,2.7-4.52-.03-12.48-1.61-17.01C66.02,3.45,62.12-.69,56.26.1c-5.03.68-9.24,4.49-12.09,8.44-1.14,1.59-2.51,4.25-1.3,6.25,1.3,2.15,3.07,2.86,4.78,4.64-1.96,0-2.51-.16-3.73,1.38-.59.73-1.09,1.53-1.42,2.41-.53,1.45-1.84,3.66-1.71,5.13.14,1.71-8.94,1.27-7.68,4.63.53,1.42,2.26,1.67,3.43,2.32.92.51,1.66.54,2.73.63,1.95.17,1.64-.05,1.71,1.6.18,4.1,8.99,1.24,11.48.71-1.48,2.53-9.98,12.73-3,13.09,2.64.13,3.92-4.31,5.88-5.76.36.07,4.36-.98,4.47-1.27-.08,2.2,2.2,6.17,3.36,8.02,1.65,2.65,3.68,6.7,6.41,8.21,3.27,1.82,5.86,2.84,9.71,2.83,3.79-.01,7.42-1.56,5.46-6,3.33.46,6.63-2.32,8.49-4.86,1.15-1.57,1.66-3.12,1.34-5.06ZM47.39,35.09c-1.19-.83-1.6.77-2.77-.32-1.92-1.78-5.21-1.07-7.52-1.96.94-1.16,4.04-1.08,5.44-1.75,2.07-1,.67-3.5,2.24-5.26-.91,1.02-.3-1.32,0,0-.18-.49-.1-.67.25-.52.08.08-.25,2.19-.17,2.75.17,1.2.59,2.34,1.28,3.34,1.11,1.6,2.77,2.67,4.41,3.67-.49,1.22-2.38.58-3.13.05ZM54.06,33.51c-1.54-.95-3.05-1.97-4.35-3.23-3.38-3.29-.39-6.95-1.42-10.86,4.09,2.02,9.81,1.26,10.26-4.05.38-4.45-6.17-9.21-8.11-3.49-.7,2.07,1.19,3.79,2.49,1.61,1.14-1.93,3.45.55,2.6,2.15-1.64,3.1-6.23,1.42-8.33-.17-4.01-3.03.22-6.77,2.04-9.76,2.23-1.45,4.11-3.5,6.99-3.07,2.45.36,4.51,1.58,6.43,3.07,4.45,7.94,8,23.56-4.15,26.46,1.86-.44-.29.17-.3.12-1.56.71-2.34,2.34-4.15,1.22ZM92.25,49.8c-.74,1.64-1.08,1.13-2.4.89-2.17-.41-3.72,2.11-5.91,2-2.72-.14-2.95-4.61-5.87-3.12-3.01,1.54-.12,4.96-.05,7.15-4.37.29-6.06-3.11-8.45-5.85-1.07-1.23-3.48-3.49-3.06-5.31-.52-.59-1.08.13-1.6-.64-.5-.76-1.16-1.41-1.92-1.91,3.46-3.74,9.65-2.88,13.75-5.1,1-.06,10.14-.79,9.8.53-.21.81-2.13,2.59-2.77,2.97.02.32-.5,1.89-.68,2.11-.54.65-1.6.86-.21,1.85.78.55,1.59,1.25,2.47,1.59,2.23.87,5.75,1.67,7.7-.45.79.61-.49,2.62-.79,3.28ZM27.82,98.89s.03-.04,0-.09c-.03-.01-.07-.02-.1-.03.04.06.06.09.09.13ZM24.67,101.42c-.36.15-.7.43-1,.88.34,0,.74-.46,1-.88ZM20.27,45.12c-.43.24-.8.59-1.07,1.08.55.04.96-.66,1.07-1.08ZM60.76,57.68c-.03-.09-.08-.17-.12-.26.03.12.1.36.14.47,0-.07,0-.14-.02-.21ZM19.66,54.37c.06.04.12.08.18.12,0-.21-.18-.19-.18-.12ZM28.78,99.31s-.02.07,0,.13c.04,0,.07,0,.1,0-.05-.07-.08-.11-.11-.14ZM73.79,75.38c-.76-.65-2.38-1.76-3.44-1.51-1.56.37-1.28.06-.94-1.51,1.26-6.05-11.92-10.24-12.16-4.47.86-.17,1.37-.97,2.27-1.05.95-.07,1.85.47,2.72.78,1.68.6,3.62,1.3,4.28,3.14.06,3.52-1.5,6.51-5.12,7.33.16-1.25-.68-3.06-1.97-2.84-.98.17-2.81.47-1.87-1.21,1.79-3.2-.05-5.7-2.55-7.75,2.6-.59,5.51-1.62,7.01-3.84,1.75-2.6,1.38-4.49.98-7.31-1.82-1.65-3.65-3.42-6.04-4.2-3.55-1.16-4.71.37-7.07,2.61-.86-2.78-3.83-1.57-5.44-2.87.8-2.44.31-5.32-1.32-7.33-3.18-3.94-10.08-.65-12.43,2.54-1.51-4.29-9.17-5.89-12.7-3.45-1.75,1.21-2.76,3.21-3.27,5.23-.59,2.34.36,3.75,1.91,5.56-1.62-.04-1.27,1.61-3.15.91-1.23-.46-2.4-.71-3.72-.69-2.31.04-4.75.84-6.01,2.9-.77,1.26-.97,2.77-.86,4.21-.72,1.11-.96,2.36-.21,3.47,1.38,2.06,2.5,4.01,5.33,3.87-1.32,1.41-2.14,3.34-2.34,5.25-.1,1.02-.02,2.06.32,3.04.52,1.53.11.87-.67,2.1-1.1,1.74-.75,3.07-.5,4.92.66,1.26,2.36,1.53.83,2.81-5,4.19-5.35,14.54,3,14.08-.19.67.61,2.78,0,3.19-.72-.57-1.99-.33-2.81-.31-1.3.05-3.93,1.06-4.53,2.22-.7,1.34-1.15,1.56-1.25,3.35-.08,1.32-.06,2.65-.04,3.98-.03,0,1.31,2.25,1.15,2.04.87,1.11,1.44,1.95,2.72,2.55,2.23,1.05,4.38,1.62,6.76.72,1.83-.69,2.5-1.75,4.08-2.77,0-1.39,1.71-2.36,1.89-4.02.23-2.11-1.26-3.07-1.25-4.91,1.01.29,3.2-1.63,2.24-2.55.72-.21,1.8-1.76.43-1.91-.66-.07-.79,1.11-1.39,1.27.11-1.18-.81-2.01-1.79-2.25-1.01-.24-1.17-1.22-2.18-1.38-1.97-.3.61-1.51,1.27-1.71,1.28-.39,2.66-.45,3.99-.39.78,1.1,2.04,1.73,2.24,3.19-.62,1.03-1,2.18-1.25,3.35-.29,1.37-.39,2.79-.41,4.19-.02,1.48.6,2.35.69,3.62.92.15,1.56,1.04,2.61,1.17,1.22.15,2.5.41,3.73.15,2-.41,3.5-2.32,5.09-3.48,1.51-1.1,1.4-4.41.79-5.97-.46-1.21-1.16-2.3-2-3.29-.18-.21-.38-.5-.52-.68-.04,0-.07-.01-.11-.01-.07-.16-.06-.18,0-.13.11-.2.94.19.11.14,0,0,0,0,0,0,.88.1,1.58.4,2.45-.01-.4,3.53,7.96,1.53,7.67-1.91-2.01.02-3.51,1.51-5.49,1.59-1.14.05-2.86-1.28-1.1-1.31,3.69-.08,1.77-5.09.2-6.65,2.78-.64,1.04-2.45-.96-2.55-1.92-.1-2.5,1.43-3.91,1.84.25-.07-1.82-3.66-2.17-4-1.26-1.2-3-1.72-4.72-1.53-1.34.15-1.62.93-2.49-.26-.73-1-.15-1.85-.04-2.97.18-1.85.7-1.87,2.52-2.05,1.62-.16,3.19,1.36,4.83,1.61,1.47.22,1.94-.6,2.29,1,.18.81.57,1.55,1.16,2.14,2.09,2.11,5.07,2.64,7.79,2.39-.69.06-1.09,4.71-1.09,5.54,0,2.05,1.29,3.7,2.95,4.66,2.74,1.58,7.77.66,10.29-1.23,3.25-2.45,1.91-6.47-.66-8.84-2.47-2.26-5.91-2.81-9.06-1.82,1.3-1.52,1.96-6.22-1.1-3.93-1.2.9-1.69,2.47-3.38,2.65,1.15-1.62.06-3.09-.57-4.64-1.12-2.76.88-1.57,2.49-1.42-1.03-7.05-8.4,3.27-11.19.32,1.07-1.22-.18-2.61.56-3.7.82-1.2.08-1.85-.24-3,1.37.2,1.29-1.76.07-2.1-1-.28-2.07.13-2.99.49-2.16.83-4.04-.14-5.29,2.13-1,1.83-1.43,3.36-3.66,1.12-1.03-1.04.05-1.19-.39-2.4-.28-.76-.92-1.32-1.16-2.1.84-.26,1.88-.34,2.56-.96-.51-.95-1.8-.86-1.6-2.23,1.12,0,1.88.96,3.2.96,1.41,0,2.46.96,4,.96,2.42,0,5.06-2.48,5.59-4.78-.99.05-1.29,1.14-2.24,1.28.47-1.7-5.35-1-6.52-1.47-1.45-.58-1.77-1.05-1.4-2.39.22-.8.57-1.39,1.53-1.23.11-.82,1.08-1.81.46-2.38-1.07-.99.48-1.67,1.45-1.45-.24,2.59.55,4.84,2.56,6.52,1.41,1.17,4.74.48,6.46.08,5.2-1.19,5.1-4.86,4.09-9.15.99,1.14,2.53,1.57,3.77,2.35,1.18.74,2.99.44,2.67,1.9-.51,2.28,1.42,5.54,3.47,2.77.44,2.38,3.01,3.24,5.12,2.55.21,2.23,2.09,3.07,3.52,4.46-3.75.71-3.46,3.65-5.11,6.06-.37-1.65-1.88-2.38-2.84-3.63-1.27-1.66,0-2.56.36-4.24.24-1.12-.74-1.09-1.45-.86-1.25.41-1.01-.52-1.75-1.23-1.12-1.1-2.04-1.91-3.74-1.91-3.45,0-5.1,2.61-7.53,4.54.32,2.91-1.47,6.39,1.78,8.34.71.43,1.54.56,2.36.47,1.26-.14,1.65.26,2.89.44,1.62-.38,2.73-1.28,3.8-2.43.95-1.03,2.72-.51,3.24.84-1.1.93-2.11,1.97-2.67,3.32-3.08,7.44,9.93,10.4,10.34,4.97-2.07-.47-4.48-.02-6.41-1.02-2.17-1.12-1.11-4.3.43-5.54,1.52-1.23,1.72-.36,2.95.67,1.09.91,2.35,1.59,3.68,2.07,1.47,0,4.26-1.57,5.43-.96-.3,1.74-1.27,3.2,1.05,3.64.9.17,2.07.2,2.76.89.61.62-.31,1.88.1,2.95.46,1.19.81,1.79-.15,2.77-2.26,2.32-3.94.41-6.32.27.16-.6-.49-1.85-.56-2.5-.09-.96-.85-1.56-.72-2.59-1.54.49-3.08,1.3-3.63,2.93-.71,2.09,1.59,1.35,1.71,1.85-.4,1.7.95,2.86,2.14,3.77,1.86,1.42,3.11,1.33,5.38,1.33s3.61-1.44,5.27-2.87c1.46-1.69.22-1.82,2.94-1.43,2.91.42,5.89-.6,7.73-2.94,2.39-3.04,2.12-6.35-.83-8.85ZM28.15,107.41c-1.27-1.09-2.78-5.06-4.48-5.1,1.46-2.24,1.44-1.63,1-.88,2.41-1.02,5.83,3.84,3.48,5.99ZM24.55,93.66c-.72-.7-1.45-1.4-2.38-1.84-1.01.04-1.34-.38-1.02-1.26-.33-2.23-.92-1.35,1.11-2.73,1.69-1.15,1.33.26,2.37,1.09,1.72.66,1.5,2.88,1.54,4.25.04,1.5.24,3.06.9,4.44.07.14.45.81.66,1.16.03.01.06.02.1.04.08.19.06.19,0,.09-.13.09-.88-.33-.74-.35-1.5-.45-3.97-.85-5.02-.3-2.09,1.09-.24-.22-1.59-.41.84-1.32,7.05-1.29,4.07-4.18ZM45.41,88.91c1.54.13,3.74,1.64,2.93,3.38-.75,1.6-2.62,2.09-4.21,2.36,1.75-1.38,1.6-3.77,1.28-5.74ZM7.93,58.55c.56-.67,2.16-.08,2.32-.55,1.1.79,2.19.64,1.96,1.95-.07.63-.08,1.26-.03,1.89.06,1.65-2.84,1.23-3.85.31.03-.81-.79-3.13-.4-3.59ZM14.08,110.59c-1.78-1.52-3.62.39-5.5.61.38,0,.53,0-.25.02-1.33.01-.77,0-.16-.02-1.66-.08-2.57-1.61-2.72-3.14-.24-2.4.42-2.84,2.69-2.19,1.93.56,6.32,1.96,5.94,4.7ZM13.53,91.81c.25,1.08.8,2.04.88,3.16h-1.92c.32-2.37-1.53-2.96-3.45-3.35-.2-.04-1.44-1.61-1.84-2.55-.07,0-.13-.1-.14-.47.88-.78,1.19-1.97,1.92-2.87.72.5,1.7.65,2.55.58.57-.05,1.65-.92,2.06-.32.34.49.29,1.19,1.14,1.02-.52,1.77-1.67,2.82-1.2,4.8ZM12.48,79.03c1.84-.47,4.21-.91,4.48-3.19,1.16.42,1.75,1.5,2.24,2.55-1.88-.26-2.26,1.41-3.5,2.09-1.76.96-2.36,2.34-3.85,3.65-.97-.18.17-2.28-1.75-1.58-1.27.46-.86,1.64-1.81.03-1.95-3.31,1-4.97,4.2-3.55-1.03-.46,2.04-.52,0,0ZM19.84,54.49c-.14-.04-.18-.09-.18-.12-.25-.18-.51-.36-.78-.52.25-.3.56-.41.96-.32v.96ZM21.78,45.96c-.55-1.66-1.49.31-2.58.24.91-1.63,1.18-1.53,1.07-1.08,1.28-.72,3.09-.48,4.45-.12,1.04.28,2.05.68,3,1.18,1.47.77,1.07,1.6,1.07,3.19-1.52-.51-4.6-.8-5.75.64-1.06-.96-.84-2.81-1.26-4.06ZM30.16,56.55c-.45,1.07-2.56,2.46-3.76,1.72-2.34-1.44-3.29-3.57-.17-5.38.53.02.74.07.78.13,1.66.41,3.87,1.82,3.15,3.53ZM31.99,51.62c-.64-.88-1.59-1.45-2.56-1.91.91-2.57,2.7.45,2.56,1.91ZM33.59,50.03c.06-.36.32-.18.32,0-.06.36-.32.18-.32,0ZM33.9,47.79c.37,2.04-.97.7,0,0-.03-.39.46-.2,0,0ZM41.9,58c.17-.49.33-.02.32.31-.17.49-.33.02-.32-.31ZM41.58,52.26c.11.01-1.3-1.55-1.32-1.56-1.35-.86-.74-1.32-1.02-2.7-.19-.97-1.82-2.75-2.14-2.75-.17,0,4.12-1.31,0,0,2.37-.76,4.42.28,5.37,2.53.47,1.11.67,2.33.7,3.53-.74.03-1.07.55-1.6.96ZM48.33,56.83c-.05,1.26-.86,1.97-1.96,2.76-.26-.05-.73-2.95-.9-3.44-.33-.93-2.76-2.05-.46-2.25,1.35-.11,2.49,1,3.19,2.04-.39-.52.01.87.14.88,0-.23,0-.48-.04-.75.09.57.09.75.04.75ZM38.85,67.01c-.55,1.87-2.54,5.08-4.63,2.78.44-.69,1.79-.29,1.92-1.27-.32-1.18-.97-2.21-1.21-3.4,0,.12-.02.07-.07-.42,0-.33,0-.35.02-.25.22-1.45,2.65-.47,3.15.12.62.75,1.09,1.51.82,2.45ZM48.61,72.34c.06-.36.32-.18.32,0-.06.36-.32.17-.32,0ZM50.85,54.81c2.4-2.98,8.43-.44,9.79,2.61-.03-.12-.01-.11.12.26.07.3.06.31.02.21.03.64-.51.99-.34,1.7-.69-.1-1.9-2.04-1.93.09-.02,1.16-.65,1.95-.95,3.09-1.04-.83-.11-1.85-1.68-1.78-.55.02-1.02-.18-1.4-.57-.86-.86-1.28-1.92-2.67-1.16.64-1.23,1.21-4.4-.96-4.46ZM53.41,62.14c-.7-.05-.69-.8-.64-1.6,1.07-.32.5.99.64,1.6ZM53.73,73.61c.14-2.26-1.15-3.11-1.92-4.46,2.95-1.63,5.56,3.9,1.92,4.46ZM70.99,83.5c.28-.13-.83.38,0,0-.75.34-1.65.3-2.45.3-1.01.37-1.37.06-1.08-.92-.34-1.51-1.05-.16-1.6.2-1.04.68-1.9-2.1-1.9-2.77,1.25-.59,2.37-1.43,3.28-2.47,1.45-1.66,1.79-1.92,4.07-1.12,1.05.37,2.01,1,2.56,2,.28,2.15-.99,3.92-2.88,4.78ZM10.25,58c-.27.82.68.49,0,0h0ZM27.01,53.02c-.28-.07-.55-.12-.78-.13-.87.51.89.3.78.13ZM7.05,88.6c0,.12.06.29.14.47.2-.03.48-1.02-.14-.47ZM29.43,49.71c1.01.48.17-.47,0,0h0ZM8.33,111.23c.08,0,.17-.01.25-.02-.12,0-.27,0-.42,0,.06,0,.11.02.16.02ZM44.13,94.65c2.19-.37,1.57-1.24,0,0h0ZM27.73,98.76s0,0,0,0c-.4-.16-.6-.22-.65-.21.25.07.47.15.65.22ZM34.87,64.69c.02.14.04.28.07.42,0-.15-.03-.53-.05-.68-.01.08-.02.16-.02.25ZM26.55,78.08c.55.02.82-.25.96-.64-.55-.02-.82.24-.96.64ZM66.19,80.95c.09.09.48-.16.32-.32-.09-.09-.49.15-.32.32Z"/>
    </g>
  </g>
</svg>