<?xml version="1.0" encoding="UTF-8"?>
<svg id="Layer_2" data-name="Layer 2" xmlns="http://www.w3.org/2000/svg" viewBox="0 0 86.81 110.77">
  <defs>
    <style>
      .cls-1 {
        fill-rule: evenodd;
      }
    </style>
  </defs>
  <g id="food_icons" data-name="food icons">
    <g id="groceries">
      <path class="cls-1" d="M38.46,24.51c-.99.4,2.11.08,0,0h0ZM84.81,24.19c-1.17-1-3.02-2.63-3.63-4.04-2.19-5.1-3.89,1.63-6.29,2.12-.14-1.77.04-4.47-1.92-5.41-1.46-.7,1.67-3.3,1.7-4.25.08-3.22-3.29-4.1-5.85-4.36-1.6-1.86-3.01-3.05-5.66-2.3-2.63.75-4.88.13-7.07,2.35-2.1,2.12-2.29-.36-4.83-.65-7.47-.86-7.03,7.92-5.45,12.72-2.14.36-4.24.92-6.41,1.02-1.87.09-3.45-.09-5.17.72-1.69.8-3.42.82-5.16,1.41-1.16.39-1.51,2.64-1.44,3.78.21,3.17.82,6.77,1.71,9.81.19.65,1.05,6.2-.15,5.89,1.16.3-2.72.8,0,0-2.32.68-2.32-7.8-2.24-9.24-.92-5.09-1.23-9.82-2.53-14.77-.76-2.9-1.89-5.69-3.3-8.34-.67-1.25-1.39-2.47-2.16-3.67.1-.88-.1-1.63-.46-2.41C16.34-.17,10.47-1.57,6.56,2.02c-4.3,3.94-3.87,10.4-4.22,15.8.96,6.14.16,12.37,1.09,18.55.35,2.28-4.59,6.13-3.17,8.18,1.21,1.76.81,3.62.81,5.79,0,3.15.69,6.36,1.07,9.49,1.4,11.25,3.72,22.94,3.72,34.27,0,4.21-1.46,11.29,2.35,13.99,1.21.86.81,1.18,2.48,1.42,1.32.19,2.64.38,3.96.56,2.43.33,4.77.56,7.22.56,8.53,0,17.02-.16,25.53-.09,4.28.04,8.54.41,12.79.13,2.42-.16,4.89.14,7.28-.27,2.29-.4,4.54.59,5.46-1.79,1.52-3.92,4.2-7.7,6.95-10.92,1.18-1.38,1.77-2.29.62-3.72-.76-.96-.04-4.36-.08-5.59-.3-10.41-.45-20.7-.24-31.13.11-5.93.21-11.86.02-17.79-.05-1.37-.11-2.74-.18-4.12.8-.54,1.64-1.04,2.46-1.56,1.61-1.03,3.19-2.2,4.14-3.9.92-1.64-1.75-3.7-1.8-5.69ZM2.98,43c.32-.83,1.27-1.09,1.6-1.91.56.49.83,1.2.96,1.91h-2.56ZM49.93,10.19c2.75-.35,3.3,1.7,3.72,3.8.23,1.14,1.87,3.17,2.79,1.29.78-1.6-.75-3.1.71-4.54.98-.97,2.44-2.52,3.19-.83.66,1.47,2.19,1.62,2.66-.06.29-1.02.09-1.4,1.38-1.29.82.07,1.8-.02,1.51,1.04-.25.94-1.44,3.59.7,3.44,2.09.05,1.18-2.77,3.83-1.75,1.4.54,1.39.88.39,1.81-.71.66-.19,1.57-.37,2.42-.33,1.51-1.4,2.58-1.29,4.21,1.9.55,1.6-1.2,3.19-1.28.71,1.44.82,3.28.4,4.81-.46,1.69-1.53,2.6-3.24,1.84-1.72-.76-3.38.18-5.15.04.35-1.12,2.7-2.75,1.52-3.91-.87-.85-1.95-.47-2.86.28-1.64,1.35-1.91,3.74-2.81,5.54-2.02-1.55-3.88-1.45-6.02-.33-1.05.55-2.09,2.12-3.25,2.24-.18-1.67-.95-3.1-1.98-4.4-.14-.18-.33-.47-.47-.66-.04-.01-.07-.02-.11-.04-.07-.17-.06-.19,0-.12.09-.12.68.33.12.16,0,0,0,0,0,0,3.79,1.35.86-1.77.85-2.91.62.14.9.68,1.6.64-1.5-2.14-5.68-10.86-1-11.45ZM64.12,41.39c-.66.3-1.44-.27-2.1.03-.67.3-1.21-1.37-1.66-.33-.13.29-1.07,1.29-1.12.37-.14-2.59-1.29.74-2.24.58.14-.94-.34-1.41-1.28-1.27-.04-1.21.51-2.29.32-3.51-.05-.9.87-.76,1.28-1.28-.37-1.53,1.96-3.37-.64-3.51.92-3.16-2.29-.21-2.88-.32-.15-.99,1.11-.92.96-1.91-.59.08-.94.31-1.15.62-.04.11-.09.21-.13.34-.02,0-.03,0-.04,0-.36,1.03.22,2.6-.28,3.51-.9-.75-1.41-3.82.28-3.51,0,0,0-.01,0-.02-.14-.18.4-1.28.11-.23.02-.03.04-.06.05-.08,1.26-3.3,5.01-1.93,6.49.36.59.92,1.46,2.95,2.78,2.31.84-.4.77-1.34.63-2.11-.29-1.48-.86-2.29.85-2.96,1.16-.46,2.47-.52,3.7-.5,2.98.04,2.02,5.62,2.05,7.69-.26,2.41-2.34,6.17-4.75,4.1-2.16-1.86-.87,1.46-1.24,1.62ZM54.76,37.58c-.17-.17.23-.41.32-.32.17.16-.23.41-.32.32ZM54.12,39.18c-.8-.05-.09-1.08,0-1.28.96.21-.31.68,0,1.28ZM48.69,32.8c0,2.55-.31-1.28,0,0-.36-1.45-.38-2.98-.32-4.46.89-.19,2.84,13.02,2.88,14.34h-3.2c1.68-2.12.64-7.28.64-9.88ZM45.49,27.06c.17,3.38.1,2.31.04,1.18.07,4.88-.79,10.05.61,14.76h-11.08c-2.17,0-1.38-1.51-1.68-3.37-.18-1.1-.35-2.2-.34-3.32,2.62-.08,4.97.17,7.65-.23.86-.13,6.37-2.26,3.12-2.68-2.35-.3-4.48-.05-6.83.31-1.52.23-3.04.4-4.58.37.07-1.41-.52-2.72-.32-4.14,2.71,1.18,5.93-.07,8.47-.96,1.35-.48,3-.77,4.01-1.73.18-.17.71-1,.94-.17ZM38.46,24.51c1.94.07,3.81-.53,5.75-.32-1.6,3.07-9.78,3.04-12.47,1.91,1.28-1.39,5.03-.92,6.71-1.59ZM9.19,3.83c2.12-1.82,3.14-.32,4.57,1.4,1.39,1.68,2.64,3.49,3.7,5.4,4.82,8.67,5.52,18.88,6.29,28.55-.59-7.48.22,1.16,0,0,.24,1.27.43,2.53.32,3.82h-4.47c.79-2-.35-5.06-2.62-5.1-2.45-.04-4.57.19-6.51,1.91-2.42,2.14-.89-.93-.79-1.92.19-.96-.38-1.62-.32-2.55,1.06-.35,2.11-.69,3.16-1.07,3.03-1.11,10.01-4.35,6.08-8.24-1.72-1.7-4.69-.89-6.65-.07-1.15.48-3.26,2.15-4.51,2.05.1-.8.32-7.03.33-7.02-1.57-.9.9-.92,1.35-1.1.84-.32,1.4-1.04,2.16-1.48,1.4-.81,3.43-3.74,2.23-5.42-1.26-1.77-4.35-1.18-6.07-.59,0-1.02-.03-1.82-.26-2.77-.09-.37-.75-1.36-.7-1.7.87-1.38,1.43-3.02,2.7-4.11ZM13.84,39.81c1.9,0,3.86-.7,4.16,1.69.29,2.26-2.03,1.37-3.52,1.5.16-1.18-.71-2.03-.64-3.19ZM12.25,41.73c-.05-.47.05-.89.32-1.28.47.19,1.08,2.51.63,2.56-.51.06-.4-1.27-.95-1.29,0,2.83-2.34.64-2.19.46.56-.64,1.64-1.18,2.19-.46-.6-.79-.02-.56,0,0ZM8.41,31.21c-.81-1.03.79-2.03.63-.23-.05.62.32,1.22.29,1.7-.02.28-.94.27-.96-.32.04-.32.04-.65.03-.97-.08-.07-.26-.51,0-.17ZM14.81,30.57c-.83-.46-.65-1.8-.96-2.55-.79.05-.67,1.09-.64,1.59-.68-.24-.87-.97-.96-1.59.98-.36,6.39-1.68,5.02.93-.73,1.38-2.25,1.64-2.14-.29-.71.04-.19,1.52-.32,1.91ZM13.27,30.49c.17-.39.89,0,.29.68-.46.53-1.32.59-1.96.67v-3.19c.48.15,1,3.44,1.67,1.84ZM8.73,14.95c-.28-.25,0-.32,0,0,0-1.5.64-.96,1.92-.96-.35,1.46.93,1.35-.48,2.39-1,.74-1.78,1.74-3.04,2.07.08-.82-.49-5.33,1.6-3.51ZM16.72,106.44c0-.31.39-.25.64-.32-.01.31-.39.25-.64.32ZM69.15,77.27c0,4.08-.26,8.15-.46,12.23-.19,3.9-1.19,7.94-1.17,11.81.01,1.39.41,3.2-.29,4.49-1.92.27-3.86.43-5.8.47-3.19.07-6.36-.07-9.54.17.19-1.27,1.68-1.63,1.92-2.87-.21-1.28.04-2.54,0-3.83-3.04.13-5.17,3.02-6.39,5.42.17.55,1.66-.73,1.59-1.28.72.57-.14,1.39-.42,1.88-.65,1.12-1.71.67-3.05.67h-7.08c.45-.47,1.96-2.81,2.86-1.68.8,1,1.45,1.55,2.74.44,3.56-3.07-2.68-1.1-4-1.31.51-2.15-2.78-3.24-3.52-1.28-1.06-.23-1.11-1-2.44-.42-.29.13-1.16,1.31-1.36.96-.23-.4.2-1.24-.68-.86-1.31-.16-2.01.72-3.2.96.49-2.29-3.05-1.54-3.83-.32-1.26-1.21-2.72.3-4.16-.32.44-1.47,1.92-2.29,2.24-3.83-.2-1.37-1.55-1.45-2.55-1.02-1.75.75-2.36,2.83-4.48,2.93.61-1.48,1.61-2.68,1.65-4.36.03-1.02-1.9-2.41-2.3-1.06-1.47-1.28-.44-3.99-.14-5.46.58-2.87-.15-3.32-2.65-2.73-1.33.32,1.13-4.17,1.19-4.57-1.1-1.12-2.73,1.16-3.2.64.32-1.91,5.88-6.11,3.84-7.97-.58-.03-1.89.95-2.87,1.87,0,.02,0,.03-.01.04-.02,0-.04.02-.06.03-.43.41-.78.81-.97,1.09-.08.14-.14.26-.13.33,0-.07.04-.19.13-.33.24-.41.74-1,.97-1.09.02-.02.03-.03.05-.05-.06-.12.19-1.05.02-.02,0,0,0,0,0,0,.22-1.21,1.23-1.76.95-3.14-.74-.18-2.51,1.3-2.88.96-.64-4.47-1.18-8.96-1.8-13.44-.58-4.2-1.72-8.47-1.72-12.7,0-1.67-.6-2.08,1.19-2.26.69-.08,1.37-.22,2.04-.41,1.07-.28,3.38-.1,4.02-.93,1.44-1.86,6.02-.99,8.09-1.49,4.04.23,8.02,1.06,12.07,1.24,8.28.38,16.6-.31,24.87.27,3.51.25,7.46.65,10.93-.22,1.81-.45.71.9,1.04,2.21v6.6c0,7.82-1.28,15.79-1.28,23.52ZM77.81,55.23c.08,5.57-.59,11.1-.4,16.69.21,6.37,1.09,13.06.37,19.38-.07.64-.1,4.29-1.6,4.31.1,1.86-.73,3.23-1.59,4.78-.88-.11.08-2.65-1.81-1.39-.82.54-1.52,1.67-1.32-.21.18-1.61.67-3.55-.07-5.09-.3-1.03-.91.53-1.38.34-.77-.31,1-4.78.58-4.7-.13.15-.18.33-.16.53-.96-1.12-.32-4.37-.16-5.7.24-2.1.38-4.21.68-6.29.62-4.28.42-8.55,1.11-12.86.67-4.18-.12-8.37-.06-12.58.06-3.78.68-6.37,2.9-9.43-.42.58.57-.85.27-.4.74-1.11,2.68-3.95,2.87-3.68.96,1.36-.08,5.73-.18,7.33-.21,2.99-.09,5.98-.04,8.98ZM83.78,29.9c-.71.61-1.43,1.21-2.22,1.73-1.15.75-2.42,1.27-3.78,1.49-.89.73-1.52,1.7-2.15,2.64-1.49,2.23-3.27,4.23-4.56,6.61-1.22-.75.8-3.21,1.6-3.83.58-1.88.72-3.91.67-5.87-.05-1.88-.25-3.86-.99-5.61,1.2-.13,2.23-1.09,3.2-1.27-.24.05.41-.57.48-.56,1.02-1.22,1.81-2.61,2.72-3.9,2.04,1.44,3.34,3.66,4.43,5.66.64,1.17,1.82,1.89.61,2.92ZM45.53,28.24c0-.4-.02-.79-.04-1.18-.02-.09,0,.55.04,1.18ZM53.45,31.18s.02.02.04.02c.03-.1.05-.18.07-.25-.04.07-.08.15-.11.23ZM75.54,25.79c.4-.42.51-.56.48-.56-.16.19-.31.39-.48.56ZM74.9,43c.13-.2.22-.32.27-.4-.13.19-.22.34-.27.4ZM2.98,43c.85,0,.33-.84,0,0h0ZM14.49,43c1.17-.1.19-1.47,0,0h0ZM48.36,23.75s-.02.06,0,.12c.05.02.07.02.11.03-.05-.07-.09-.12-.12-.16ZM11.61,31.84c1.05-.13,0-1.06,0,0h0ZM11.6,77.09s0,.02.01.02c0-.02,0-.02,0-.04,0,0-.01.01-.02.02ZM12.25,28.02c.11.74,1.33-.48,0,0h0ZM8.41,31.21c0,.06,0,.12,0,.17.03.03.05,0,0-.17ZM11.93,7.94c-.09-.09-.48.15-.32.32.09.09.49-.16.32-.32ZM10.01,15.91c-.31-.43-.85-.64-1.28-.96-.09.84.44,1.05,1.28.96ZM16.09,14.95c.08-.02.14-.01.21-.01-.03-.01-.09-.01-.21.01ZM16.94,16.58c.94-.7.35-1.69-.64-1.64.13.04-.43.31-.21.01-.55.76-.38,2.55.86,1.63ZM7.77,16.86c-.42-.79.94-1.32,0-1.59-.19.19-.75,1.51,0,1.59ZM59.24,19.41c.86-.41.97-1.58.96-2.87-2.35-1.99-3.93,3.16-.96,2.87ZM17.04,19.41c.29-.57.89-.81.64-1.91-1.88-.45-1.91,1.71-.64,1.91ZM13.21,21.33c.05.11.09.22.12.33.03.02.02-.04-.12-.33ZM13.12,21.24c-1.14-1.06-2.67.17-2.02,1.61.77,1.73,2.6.35,2.22-1.19-.06-.05-.32-.48-.21-.41ZM21.52,26.74c-.06-.47-.77-.29-1.28-.32-.68,1.17,1.63,1.44,1.28.32ZM30.47,69.46c-.04.2-.89,2.3-1.28,1.59.15-3.86,2.06-7.73,1.59-11.59-.11-.84-.88-3.15-1.97-1.64-.41.56-.46,1.5-1.22,1.76.06-1.69.59-6.38-1.59-6.38.3,0-.69,1.79-.14.34-.91,2.27-1.79,4.97-1.61,7.34.19,2.52-1.06,4.89-1.11,7.4-.02.91-.07,2.85,1.35,2.33.93-.34.79.07.62.74-.2.81-.29,3.95,1.22,3.59,2.32-.55,1.02,2.15.73,3.81-.31,1.76,1.07,5.26,1.98,2.02.39-1.37,2.84-10.86,1.44-11.32ZM52.17,73.19c-1.08.06,1.55-11.68,1.64-13.7-.07.25-.54-.44-.58-.67-1.03-.52-2.23.23-3.21.76-.96.51-1,1.6-1,2.71,0,3.46.97,6.61,1.22,10.06.19,2.67,1.26,5.5,1.3,8.06.02,1.39.82.81.69-.42-.06-.56-.36-1.95.63-1.92-.42.98-.99,5.33.05,6.19,1.56,1.29,1.88-3.39,1.88-3.94-.02-2.59-.37-5.15-1.02-7.65-.71-2.73-.83.48-1.58.52ZM53.8,59.26s0,.13,0,.23c.01-.04.02-.11,0-.23ZM53.22,58.82c.2.1.39.23.58.44-.48-.54-.61-.58-.58-.44ZM32.06,73.6c.29.14-.38,3.76,0,0-.28,2.74-2.09,4.98-2.49,7.69-.13.88-.5,2.24.53,2.71.78.22.98.73.61,1.53-.1.67-.36,3.12,1.04,2.13,1.42-1,1.67-5.51,1.07-6.95-.69-1.66,1.01-6.24-.76-7.11ZM53.8,89.23c.12.06.15.23.11.48.14-.15.18-.34-.11-.48ZM53.39,89.7c.18-.23.33-.39.42-.48-.22.21-.35.36-.42.48ZM53.39,89.7c-1.3,1.6-4.56,6.29-3.1,6.86.45-.55,3.41-5.29,3.63-6.85-.24.26-.78.4-.53,0ZM58.6,98.47c.53,0,.13.77,0,0,.2,1.17-.95,2.19,1.38,2.24,1.62.03.53-1.52.22-2.24h-1.6Z"/>
    </g>
  </g>
</svg>