<?xml version="1.0" encoding="UTF-8"?>
<svg id="Layer_2" data-name="Layer 2" xmlns="http://www.w3.org/2000/svg" viewBox="0 0 123.91 114.14">
  <defs>
    <style>
      .cls-1 {
        fill-rule: evenodd;
      }
    </style>
  </defs>
  <g id="food_icons" data-name="food icons">
    <g id="heart">
      <path class="cls-1" d="M50.03,45.33s0,.01,0,.02c0-.23,0-.12,0-.02ZM41.72,33.87c.18.56-.19-.77,0,0h0ZM62.18,14.43c.28-.29.53-.6.78-.92.07-.18-.44.25-.78.92ZM31.09,35.89c2.8,3.59,6.11,6.61,9.03,10.09,4.34,2.59,8.04,6.19,12.27,8.96,1.91,1.24,3.93,2.04,6.27,2.2,1.41.74,2.33,2.17,3.89,2.68,2.28.74,2.44-1.79,4.42-1.72,1.89-.48,3.63-2.32,5.26-3.36,1.93-1.23,4.29-2.36,5.93-3.93,1.91-1.82,3.77-3.71,5.75-5.46,4.38-2.62,8-6.23,10.77-10.43,2.67-4.05,3.76-8.23,4.14-13.1.33-4.27-.79-11.7-4.24-14.63-3.36-2.85-7.17-4.41-11.54-4.24-4.41.18-8.58,1.46-12.44,3.58-1.57.86-3.08,1.83-4.59,2.79-1.24,1.22-2.01,2.81-3.06,4.18-.04.1-.25.38-.78.92,1.22-2.41-2.34-5.37-3.62-7.05-1.66-2.17-3.04-3.47-5.33-4.94C49.22-.12,45.44-.31,40.72.28c-4.04.51-10.12,5.27-12.11,8.73-1.92,4.22-2.72,8.1-2.29,12.71.47,5.01,1.54,10.05,4.76,14.18ZM42.04,35.78c-.71-.04-.19-1.52-.32-1.91-.22-.87-.44-1.65-.32-2.55.87,1.21,1.29,3.06.64,4.46ZM43.64,38.65c.06-.36.32-.18.32,0-.06.36-.32.18-.32,0ZM46.52,40.89c-.69.05-.15-1.13-.32-1.59.82.03.75,1.19.32,1.59ZM48.43,42.8c-.19.03-.4-.45-.32-.64.48-1.12.61.59.32.64ZM50.19,45.88c-.13-.15-.18-.32-.16-.53,0,.16,0,.07,0-.02-.25-.61-.18-1.13.2-1.53.28.06.17,2.12-.04,2.07ZM52.91,48.86c-.08-.08-.12-.14-.15-.2-.43-.56-.51-1.36-.49-2.03,2.02-.14.92,1.21.64,2.23ZM35.99,8.62c1.94-1.49,3.62-3.32,6.12-3.47,2.11-.12,4.24-.54,6.32.04.84.75,1.75,1.37,2.88,1.59.31.52.56,1,1.28.96.89,1.51,2.01,2.86,3.19,4.14.96,1.58,2.34,4.23,4.58,3.83.16-.03,1.11-.45,1.49-.62,0,0,0,0,0-.01.21-.09.18-.07.04,0,.22-.03.09.58-.01.7.16,1.39.81,4.02,1.9,2.38.66-.99,1.27-1.78,1.98-2.76,2.48-3.46,6.99-5.47,10.68-7.53,3.5-1.96,6.88-4.09,10.87-1.82,2.96,1.69,4.94,4.15,5.72,7.54,1.03,4.48,2.22,8.44.65,13.08-1.3,3.84-3.9,6.96-5.92,10.41-2.19,3.55-5.02,6.73-8.64,8.87-3.37,1.99-5.95,5.13-9.58,6.75.29-2.37,1.43-5.44,0-7.65-1.05.47-1.33,3.07-1.6,4.06-.24.86-.32,1.94-.96,2.63.02.19.89,2.18.89,2.16-.74,2.41-2.28-1.1-2.49-1.52-1.03.14-1.24,2.03-1.89.14-.43-1.23-.33-2.46-.64-3.67-.84-3.25-2.74.29-3.54,1.3-.93-1.08-.13-3.19-.32-4.46-1.58-.16-2.5,2.88-3.2,3.83-.77-.51.29-2.1,0-2.87-.37-1.4-1.38-2.4-2.24-3.51-.08-2.88.88-5.74.32-8.61-.98.33-1.85,5.7-1.92,6.7-1.54-.55-1.1-2.01-.64-3.19-.8-.6-1.6,1.92-2.56,1.91-.13-2.83.59-5.51.96-8.29-1.06-.31-2.46,2.48-2.88,3.19-.88-.36,1.71-7.41,1.6-8.61-2.41-.11-4.05,6.57-4.48,8.29-1.22-2.08-1.88-4.54-3.51-6.38-1.2,1.75-1.79,6.85-1.6,8.93-1.81-.53-1.44-1.65-.97-2.8.54-1.32-.42-4-.31-5.49.2-1.12.67-2.21.6-3.37-.05-.88-.74-1.7-1.01-.55-.26,1.1-.99,1.84-1.18,2.96-1.07-1.09,1.13-4.4,1.75-5.43,1.25-2.06,2.34-4.9,2.72-7.32-2.42.28-3.73,6.09-4.15,7.97-.82-.86.06-2.12-.03-3.1-.16-1.73-1.55.06-1.75.69-.84,2.55-.78,5.19-1.1,7.83-1.58-.96.03-3.67-.32-5.1.36-2.56.89-5.09,1.55-7.59.26-.99,1.78-5.46-.56-3.11-1,1.01-2.08,2.47-2.27,4-1.84-2.11,2.85-7.02,4.18-8.04ZM52.76,48.65c.05.07.09.14.15.2.15-.56-.28-.51-.15-.2ZM92.87,99.54v-.32c-.37.06-.18.32,0,.32ZM56.11,79.46c0-.31-.39-.24-.64-.32,0,.31.39.25.64.32ZM123.8,58.72c-.39-2-2.84-1.74-4.44-1.35-3.24.8-6.97,3.26-9.53,5.21-2.79,2.13-7.05,5.94-10.88,4.45.88-2.9,6.39-4.76,8.95-5.74,2.05.39,3.36-1.28,5.02-2.07,1.86-.88,2.81-1.88,4.41-3.15,1.33-1.06,2.71-2.14,3.38-3.76.42-1.01-.09-4.28-1.62-4.1-1.69.21-2.98.19-4.84,1.21-1.46.81-2.87,1.72-4.44,2.31-1.34,1.56-3.55,2.29-5.2,3.42-1.86,1.27-3.17,2.41-4.85,3.92-.92.82-3.89,3.29-4.15.98-.18-1.62.14-3.32,2.05-3.54,1.83-1.64,4.28-1.66,6.18-3.03,1.93-1.39,4.96-2.52,6.21-4.54.57-.93,1.07-1.9,1.36-2.95.97-.35,1.81-1.11,2.28-2.02.76-1.51-.21-2.32-.36-3.72.08.82-2.33.06-1.43-.06-3.69.08-6.52,2.17-9.38,4.43-1.79,1.41-4.07,2.41-6.1,3.44-2.08,1.05-3.67,2.13-5.6,3.38-1.97,1.28-3.57,1.4-4.99,3.47-.04.84-1.93,2.25-2.52,2.86-3.55,3.67-2.11,6.5-.66,10.79.56,1.65-2.91,2.37-4.48,2.61-1.62,1.64-3.01,2.3-5.18,3.12-2.25.85-4.42,1.51-6.5,2.72-1.74,1.01-4.06,2.56-6.04,1.72-3.8-1.61-8.13-3.28-11.55-5.63-2.16-1.48-.9-3.44-.78-5.75-.67-2.12-2.12-3.75-3.52-5.42.22-4.18-4.27-7.04-6.71-9.88-1.47-.3-3.08-1.75-4.41-2.46-1.76-.94-4.05-1.63-5.97-2.18-1.97-.56-4.08-.82-5.92-1.74-2.23.16-4.34-.29-6.45-.98-2.41-.8-4.77-.61-7.3-.61-2.29.99-3.63,1.75-5.45,3.38-2.81,2.53-3.23,9.01-.77,11.83.93,1.06,1.52,1.12,2.72,1.83,1.17.7,2.23,3.63,2.95,4.8,4.46,7.25,12.74,13.68,21.22,15.45,3.04.63,6.29.32,9.38.32,1.37-.9,2.89-1.69,4.25-2.5,1.41-.85,1.81-3.08,3.59-1.62,1.43,1.17,3.14,2.31,4.84,2.95.85.32,1.39,1.16,2.19,1.64,1.24.75.72,1.07-.24,1.64-1.96,1.15-3.46,2.78-5.5,3.81-1.99,1.01-3.72,2.46-5.79,3.31-1.84.76-3.44,1.3-5.27,2.15-4.23,1.95-8.43,1.78-12.08,5.09-3.28,2.98-.77,7.41,1.77,9.98,3.44,3.47,8.29,3.16,12.55,1.18,2.16-1,4.19-2.26,6.12-3.63,1.74-1.23,3.59-1.84,5.4-2.97,3.68-2.29,8.79-3.45,11.83-6.69,1.94-.55,3.09-2.26,4.79-3.19,1.81,1.38,3.55,2.86,5.41,4.17,3.85,2.69,7.36,5.84,11.14,8.66,1.53,1.14,3.4,3.05,5.19,3.75,1.18,1.72,3.02,1.94,4.6,3.06,3.64,2.58,7.44,2.01,10.75-.83.63-1.97,1.53-4.03.59-6.07-.83-1.79-2.33-3.1-3.75-4.43-3.79-3.55-7.66-6.84-11.54-10.29-3.34-2.96-7.98-4.51-11.84-6.63,1.09-1.62,3.39-2.12,4.87-3.32.92-.75,3.19-1.35,3.44-2.73,1.24-.07-.29-2.43-.29-2.55,0-2.25,3.29.73,3.66.94,1.74.97,3.9,1.21,5.91,1.32,2.31.13,4.13-.9,6.33-1.52,2.11-.59,4.27-.98,5.69-2.78,1.47-1.87,3.57-1.96,5.64-2.98,3.81-1.88,7.91-3.72,10.57-7.09,1.04-1.32,1.41-3.18,1.09-4.81ZM35.33,76.59c.97-1.48.44-.21,1.92-.64-.04.91-1.41.63-1.92.64ZM42.08,68.13c.25.75,1.49,2.96-.36,2.23-1.49-.58-2.54,1.4-3.19,2.4-1.09-.34-.75-1.89-2.24-1.6-1.46-.16-1.44,1.15-2.24,1.91-.68-.77-.06-2.24-.96-2.87-.3.11-1.65-.36-1.6.32-1.08-1.26,0-3.74-2.66-2.73-1.33.51-1.71,1.99-2.45,3.05-2-1.84-2.15-.53-3.52.96-.39-.71-.42-5.31-1.28-5.42-.91,0-2.11,4.04-2.24,4.78-2.25-.59-1.2-4.79-1.23-6.38-.05-3.28-2.5-1.63-2.29.96-1.03-1.1-.57-3.25-.66-4.6-.11-1.66-2.12-2.01-1.9-.5-.82-.6-1.03-2.04-2.09-.6-.64.87-.56,2.14-.47,3.15-1.47-.9-1.21-3.34-1.6-4.78-.39.45-.61.98-.64,1.59-1.64-1.37-1-4.55-.8-6.36.08-.71.54-2.12-.49-2.39-.25-.07-1.09.05-1.27-.18,1.69-8.06,17.11-.78,21.56,0,6.96,1.21,18.18,8.14,14.56,16.9.51-1.23.2.47.04.15ZM48.12,95.72c.03.38-.47.2,0,0-.04-.39.46-.2,0,0ZM57.21,89.57c-1.07.56-2.09,1.23-3.03,2.01-.84,1.46-2.75,1.66-3.83,2.87-.72-.15-.27-1.23-1.28-.96-.83.21-1.54.66-2.12,1.29-1.12,1.22-1.65,2.84-2.68,4.13-1.23-1.29-1.74-2.94-2.86-.3-.41.95-1.13,3.56-2.26,3.81.05-.87-.71-3.67-1.91-1.75-.55.88-1.02,2.62-1.28,3.66-1.5-1.42-.05-3.25-2.88-3.83-1.3-.03-3.67,1.57-4.48,2.55-.85-.52-.16-2.4-.32-3.19,1.59-.45,2.73-1.51,4.34-1.73,3.24-.44,5.82-1.73,8.88-2.76,3.18-1.07,6.08-2.78,8.9-4.5,2.28-1.39,4.85-4.72,7.62-4.72.3.2.36.27.34.28.76.62,1.37,1.42,2.21,1.95-.34.53-2.77.87-3.37,1.18ZM62.18,90.62c-.43-.21-.59-.68-.64-1.28.56.29,1.23.71.64,1.28ZM77.97,88.73c2.1,1.21,4.27,2.43,6.26,3.79,1.6,1.06,2.83,2.79,4.45,3.59,1.81.89,6.82,3,7.05,5.34-1.11-.18-1.41-1.48-2.55-1.59.56,1.24,7.66,6.73,4.06,6.71-1.92-.01-1.38-2.51-2.48-3.71-1.06-1.16-2.1-.24-2.54.83-1.99-.95-.73-4.43-1.28-6.05-1.92-.23-2.01,2.22-2.23,3.5-1.08-1.59-1.68-3.4-2.79-5.02-1.9-2.75-1.99.11-2.32,1.84-1.8.09-1.88-1.79-2.09-3.11-.27-1.74-1.56-.25-1.42.88-1.05-.24-.89-1.8-1.06-2.59-.26-1.15-1.96-1.16-1.82.04-1.5-.89-.17-3.44-1.42-4.53-1.56-1.36-1.38,2.44-1.78,2.94-.97-1.13-1.7-1.88-2.88-1.91-1.31-1.73-3.44-2.91-5.04-4.34-.77-.69-1.89-1.98-3.07-1.77-.76.14-.94,1.04-1.8,1.02-2.09-1.88-4.43-3.46-6.71-5.1.22-.35.54-.45.96-.32-.25-.02-.31-.37-.27-.49-.6-.7-1.86-.71-1.65-2.06,1.32-.08,3.4,1.12,4.48,1.91,2.44.85,4.74,1.85,7.05,3.01,4.45,2.22,8.6,4.74,12.89,7.22ZM121,59.69c.26,1.86.52,2.21-1.1,3.52-1.04.84-2.19,1.53-3.44,1.99-1.6.58-2.72.9-4.17,1.86-1.32.87-2.35,1.92-3.77,2.54-1.19.51-2.17,1.34-3.12,2.21-.98.9-2.31,1.1-3.55,1.61-1.19.48-2.6,1.01-3.86.43-.74-.34-1.91.23-2.54-.44-2.7.51-4.86,1-6.88-1.54-1.04-1.31-3.83,1.83-5.24,2.59-2.04,1.09-3.09,2.96-4.9,3.94-1.82.99-5.5,4.65-7.38,3.88-.81-.33-1.67-.51-2.46-.89.23-.34.25-.68.07-1.02-.47-.9-.79-1.63.21-2.28,1.26-.82,2.38-.39,3.65-1.26,1.43-.98,2.9-1.89,4.39-2.78,2.99-1.79,6.04-3.48,8.94-5.4-.02-.3-2.53-4.05-.96-4.14-3.98-4.17,5.57-9.68,8.28-10.88,2.28-1.01,3.65-3.36,5.97-4.06,2.37-.72,4.19-2.36,6.24-3.64.11-.09.39-.25.93-.54-.32.17-.63.35-.93.54-.42.33,1.64-.57,1.09-.56,2.82-.36,1.95,2.33.18,3.27-1.58.85-2.98,1.97-4.61,2.76-1.59.76-2.62,1.16-4.06,2.26-1,.77-2.03,1.5-3.08,2.19-1.48.98-1.06,1.54-1.06,3.24,0,.75-.39,2.52.31,3.09,3.79,3.04,7.54-3.21,10.69-4.39,2-.75,3.68-2.11,5.58-3.04,1.22-.6,3.79-1.47,4.51-2.67.61.02,4.28-2.79,3.29-.47-.61,1.43-2.2,1.94-3.42,2.71-.62.4-1.18.9-1.47,1.59-.92.2-1.83.51-2.61,1.03-1.13.75-1,1.07-2.42,1.45-1.08.29-2.1.73-3.1,1.22-2.61,1.26-10.45,4.14-7.88,8.48,1.01,1.7,2.92.68,3.97,1.71.29.28-1.74,1.21-1.72,1.73,1.47.21,3.89-1.77,4.98-2.6,1.85-1.42,3.78-2.75,5.64-4.16,1.84-1.4,4-1.78,5.9-3.01,1.85-1.2,3.55-2.33,5.85-2.35-.24.3-.56.41-.96.32ZM92.87,99.54c-.06.27.13.3.32.32.06-.27-.12-.3-.32-.32ZM55.2,78.65c.12.14.22.29.27.49-.13-.53-.23-.59-.27-.49ZM58.37,86.43c-.11-.09-.22-.19-.34-.28-.22,0,.3.3.34.28ZM61.89,15.76c-.03-.31-.04-.55-.03-.68,0,0,0,0,0,0-.08.63-.03.76.03.68ZM61.9,15.06s-.03,0-.04,0c0,0,0,0,0,.01.02,0,.03-.01.04-.02ZM111.9,40.19c.46-.01.94,0,1.43.06-.76-.09-1.2-.09-1.43-.06ZM35.33,76.59c.85,0,.17-.26,0,0h0Z"/>
    </g>
  </g>
</svg>