<?xml version="1.0" encoding="UTF-8"?>
<svg id="Layer_2" data-name="Layer 2" xmlns="http://www.w3.org/2000/svg" viewBox="0 0 87.46 106.52">
  <defs>
    <style>
      .cls-1 {
        fill-rule: evenodd;
      }
    </style>
  </defs>
  <g id="food_icons" data-name="food icons">
    <g id="herbs1">
      <path class="cls-1" d="M86.99,4.82c-1.53-2.95-1.73,3.38-1.73,3.92.01,1.71-1.15.64-2.29.96-1.07.3-1.44,2.81-1.75,3.7-1.9,5.34-3.9,11.03-7.91,15.18-2.11,2.18-4.69,2.84-7.58,3.46-.64.13-6.65,1.18-6.71.16,1.77-2.06,8-2.72,8.51-5.79.22-1.36-9.92,3.73-11.07,4.19,1.72-3.48,2.62-5.91,5.67-8.53,2.87-2.46,6.2-5.32,9.51-7.06,6.06-3.2,12.89-8.26,15.19-15.01-1.75-.19-3.99,2.75-5.29,3.64-2.42,1.66-4.39,3.96-6.88,5.64-5.22,3.51-10.61,6.5-15.13,10.92-2.21,2.16-3.66,4.56-4.9,7.35-.54,1.21-.71,2.91-.77,4.28-.07,1.65-1.42,2.12-2.68,3.17-2.48,2.07-4.98,4.35-7.25,6.61-.92.92-3.63,4.73-4.87,4.83-.12.01.41-2.83.48-3.15.3-1.36,1.86-1.95,2.87-2.8.79-1.77,2.69-3.38,3.82-4.99.8-1.14,1.55-2.34,2.57-3.3.17-1.88.24-3.76.25-5.64,0-3.23-.21-6.45-.57-9.66-2.58-4.56-5.29-9.02-8.03-13.44-1.71-2.77-1.56.74-2.09,1.22-.77.71-.93,5.04-1.29,6.54-1.21,4.99-1.84,10.03-2.91,15.05-1.3,6.12.45,11.62,1.91,17.54.45,1.83-1.04,6.58-2.27,7.89-2.21,2.35-4.49,4.63-6.73,6.96-1.59,1.82-3.21,3.93-5.02,5.51-.41.35-1.47,2.46-2.17,2.46-.21,0,1.04-5.32,1.13-5.85.35-1.99.2-2.51,2.22-3.07,1.06-2.57,3.51-4.13,4.29-6.97.97-3.5,2.74-8.4.92-11.86-1.84-3.49-2.92-7.25-4.86-10.69-.99-1.77-3.61-6.94-6.01-5.47-.53.33-2.12-3.84-3.6-3.91-2.25,1.02-1.36,6.27-1.05,8.11.69,4.15.62,8.23.72,12.41.07,2.78.24,5.57.78,8.31.44,2.21,1.67,3.79,2.61,5.81.95,2.07,1.99,4.51,1.45,6.77-.59,2.45-1.32,4.85-1.88,7.31-.68,2.98-1.24,4.65-3.01,7.15-1.16,1.63-2.31,3.27-3.42,4.92-2.29,3.38-4.4,6.89-6.1,10.61-2.03,4.47-3.39,9.21-4.01,14.07-.29,2.26,1.52,2.34,3.43,2.2,2.12-.16,3.15-.43,3.97-2.53.82-2.09,1.6-4.15,2.16-6.32.55-2.13.46-3.85,1.5-5.8,1-1.88,1.67-3.78,2.69-5.68,1.03-1.9,2.82-3.16,4.63-4.34,2.19-1.43,4.58-2.54,7.05-3.38,1.05,1.78,2.44,3.34,4.03,4.67,3.42,2.86,7.02,4.64,11.55,4.12,2.63-.3,5.11-1.31,7.67-1.59,2.18-.24,4.51-.4,6.53-1.36,2.19-1.04,1.99-2.54,2.54-4.56.22-.83,2.02-1.84.46-2.64-1.25-.63-1.81-.01-2.78-.97-.82-.8-1.73-.77-2.8-1.12-2.13-.69-4.16-1.65-6.39-1.99-2.47-3.28-8.92-3.12-12.48-2.6-2.37.35-3.88.66-5.95,1.88-1.71,1.01-1.19,2.55-3.14,3.11-.94.27-8.12,2.86-8.04,3.83-.12-1.42,4.33-5.17,5.25-6.29,1.88-2.29,3.68-4.88,5.9-6.87,2.44-2.19,6.47-3.05,9.51-4.1,1.52-.52,3.62.38,5.65.05,2.56-.42,4.75.95,7.28,1.1,1.94.12,3.92,1.03,5.82,1.61,5.47,1.66,12.02-.47,16.83-3.33,1.93-1.15,4.18-2.14,5.34-4.18,1.25-2.22-.39-3.43-2.24-4.61-1.75-5.1-10.16-4.78-14.26-4.78-5.44,0-12,2.3-16.69,4.97-1.08.61-2.49,1.27-3.07,2.43-.47.96-.72,2.28-1.79,2.8-2.84.76-5.55,1.88-8.31,2.87.04-.34.15-.66.32-.96-.25,0-1.21.41-1.43.69.15-.25.67-.72.79-.69-.27-.06.44-1.47,0,0,.71-2.39,4.58-4.89,6.27-6.64,2.31-2.4,4.66-4.73,7.03-7.06,1.99-1.96,3.84-4.17,6.08-5.8,1.77-1.29,2.74-3.95,5.22-3.57,5.78.89,12.31.1,17.62-2.3,4.49-2.03,7.71-8.6,9.78-12.89,1.57-3.25,2.78-6.68,3.62-10.19-.3-2.21.96-4.51-.16-6.66ZM6.38,96.78c-.93,1.79.31,5.98-2.66,6.17,2.14-.28.64-4.13-.18-.69.81-4.13,2.64-7.89,4.33-11.72.88.36-1.17,5.64-1.49,6.24ZM34.09,73.01c2.2.06,4.34-.81,6.55-.55,1.95.23,3.27,1.98,5.21,2.35,2.16.42,4.31,1.11,6.15,2.34-1.97-1.33,1.53-.04,0,0,2.77-.08,4.47,1.02,1.79,2.84-1.24.85-1.6,1.13-3.3,1.41-1.56.26-3.12.49-4.69.63-3.38.32-5.64-.05-8.79-1.11-1.34-.45-4.27-1.48-4.52-3.15,1.73.46,3.29,1.39,5.1,1.61.91.11,2.63.63,2.21-.88-.14-.45-.43-.77-.85-.96-1.54-.78-3.33-1.18-4.92-1.86-1.37-.58-3.16-.45-4.73-.78,1.11-1.44,3.45-.81,4.79-1.91ZM18.1,49.1c-1.21-1.41-1.28-4.68-1.28-6.42,0-5.33-.58-10.58-.64-15.89.03,2.84-.39.03,0,0-.01,0,2.07,3.66,2.61,4.68,1.31,2.45,2.77,4.72,4.18,7.11,3.2,5.44,2.15,10.26-1.36,15.31-.88-.29-.42-1.66-.96-2.23-.7.46-.74,1.52-.96,2.23-.66-.39-1.65-4.06-1.6-4.78ZM49.75,53.88c1.39-.91,4.12-1.99,5.8-2.25,1.8-.28,4.35-1.76,6.35-.94.67.27,2.98.77,3.87.25.03-.1.13-.24.28-.24h-.96c.06-1.08,5.12.6,5.45.81.95.59,2.07.9,2.93,1.64,1.62,1.38.28,1.74-.98,2.59-3,2.01-6.08,3.23-9.46,4.43-2.93,1.04-5.66.08-8.48-.86.65-1.39,3.61.68,4.16-1.91.4-1.48-1.12-1.63-1.98-1.93-1.55-.54-4.39.23-6.22.42-2.29.23-4.63.47-6.82,1.2,1.73-1.57,3.77-2.71,6.07-3.19ZM36.01,30.93c0-2.26.42-4.16.89-6.37.93-4.35,1.62-8.75,2.62-13.08-1.27,5.53,0-.32,0,0v-.96c3.27,3.23,4.58,9.46,5.76,13.71.11,4.71-1.77,8.52-4.16,12.43-1.05-1.67-.77-5.17-.55-6.92.2-1.48.34-2.94.54-4.42.17-1.22-.96-1.62-.95-2.37-2.06,2.98-.71,8.13-2.24,11.48-1.22-1.68-1.92-.92-1.92-3.51ZM66.05,50.69c-.06.1-.16.18-.28.24-.03.11.04.15.28-.24ZM32.17,59.94c.47-.2-.03-.38,0,0h0ZM52.95,80.02c-.09-.09-.49.15-.32.32.09.09.48-.16.32-.32Z"/>
    </g>
  </g>
</svg>