<?xml version="1.0" encoding="UTF-8"?>
<svg id="Layer_2" data-name="Layer 2" xmlns="http://www.w3.org/2000/svg" viewBox="0 0 89.86 87.37">
  <defs>
    <style>
      .cls-1 {
        fill-rule: evenodd;
      }
    </style>
  </defs>
  <g id="food_icons" data-name="food icons">
    <g id="herbs2">
      <path class="cls-1" d="M14.11,39.95c-.07.16-.12.33-.14.54.74-.07.38-.86.14-.54ZM14.61,36.11c-.18-.03-.38-.06-.64-.09.22.02.43.06.64.09ZM87.65,40.07c.25-1.25.77-2.42,1.26-3.59,1.41-3.35,1.27-5.86-.47-9.05-.56-1.02-.78-2.35-2.22-2.25-.02-.67-.31-.33-.58-.12-.09.11-.2.16-.31.11.09.04.2-.03.31-.11,1.28-1.56.27-17.02-3.53-12.87-.84.92-.88,1.56-1.26-.35-.44-2.16-1-3.65-1.91-5.66-.81-1.78-2.39-4.99-4.37-5.99-.3-.08-.67-.2-.49-.2-2.97,0-2.57,3.9-3.25,6.18-.75,2.52-1.86,4.92-3.14,7.21-3.31-4.5-7.37,1.85-8.57,5.04-.35.93-.71,1.74-.99,2.7-.39,1.34-.16,1.77-1.51,1.53-1.83-.33-2.76,1.65-3.63,2.85-2.4-3.29-5.72-5.76-8.32-8.88-.42-.5-6.44-6.08-6.06-3.24-.49.22,0,1.22-.64,1.28-.83-.77-1.47-1.72-2.3-2.49-1.02-.95-1.67-1.81-2.55-2.87-2.67-3.24-3.94,2.28-5.06,3.78-1.63-1.57-2.31-3.44-4.24-4.77-1.58-1.09-3.07-2.03-4.67-3.06-4.59-2.95-2.05,3.95-3.23,5.59-2.52-2.56-6.18-3.65-9.59-4.41-1.72-.39-3.56-1.41-4.41.59-.62,1.48-.62,3.2-.7,4.77-.05,1.02.56,4.23-.35,4.83-1.34.87-.85,1.5.07,2.63,1.93,2.36,4.14,4.29,4.44,7.53-1.52.05-3.05.59-3.63,2.11-.58,1.52,1.13,2.67,2.21,3.45,1.3.94,2.73,2.51,3.4,4,.62,1.38,2.03,2.36,2.5,3.82-3.12.1.12,4.7.88,5.55,2.13,2.39,4.38,4.78,6.8,6.88-1.46.32-4.14,1.89-2.72,3.58.78.92,2.18,1.06,3.27,1.32,3.24.78,6.04,2.63,9.35,3.07-.67,1.93-2.24,1.19-2.24,3.82,0,2.41,2.71,2.66,4.79,2.55,3.5,1.98,8.89,2.23,12.79,2.23-.27,1.33-1.89,4.36.56,4.71,2.76.4,5.93.36,8.9-.17,1.72-.31,3.37-.91,4.97-1.59,1.54-.65,2.17.86,2.89,2.15.73,1.33,1.26,2.76,1.87,4.15,1.16,1.12,2.19,2.38,3.12,3.69,1.15,1.62,1.43,5.59,3.97,5.24,1.93-.27,3.82-2.55,4.9-3.99,1.21-1.62.53-3.24.29-5.07-.19-1.41-1.06-2.04-1.4-3.38-2.45-1.83-5.1-3.83-6.39-6.69,2.93.96,4.82,1.04,7.82-.31,3.12-1.41,4.93-3.46,7.57-5.58,1.61-1.29,2.77-1.4,2.56-3.41-.07-.69,1.32-2.18,1.68-2.74,1.31-2.06,2.41-4.24,2.87-6.66.28-1.51-.29-3.82.31-5.16.32-.72,1.01-1.48.17-2.22-1.06-.93-2.09-.25-1.72-2.05ZM16.38,39.91c-1.11,1.9-.67.42-2.41.57.02-.29.08-.45.14-.54.6-1.33,2.9-1.12,2.27-.04ZM70.55,81.61c-1.2.06-3.16-3.78-3.65-4.64-1.28-2.25-3.04-4.39-4.86-6.23-.55-.55-1.12-1.07-1.72-1.56.41-1.14.04-1.65-1.13-1.54-1.36-.23-2.74-.12-4.08.18-2.22.51-4.32,1.49-6.61,1.68.49-1.33,2.61-5.32,1.1-6.42-1.96-1.43-2.82.34-3.98,1.63-2.69.65-4.47.92-7.25.54-2.31-.31-4.61-.75-6.82-1.49,2.78-2.78,2.33-3.74,0-6.38-.89-.12-6.59-2.69-6.6-2.68.17-.7,3.98.97,4.59,1.25,2.27,1.06,4.67-.95,2.01-2.4.05-.96,1.84-.23.46-1.62-.61-.62-1.44-.96-2.25-1.21-1.24-.39-4.44-1.76-5.56-.68-2.35-1.1-4.35-2.78-6.64-3.97-1.58-.82-.69-1-.44-2.59.19-1.21.23-2.43.38-3.64,1.09.39,2.99,2.33,4.1,1.22.79-.79.24-1.67-.48-2.22-1.84-1.41-4.08-2.38-6.5-2.73,1.54.27.15.68-.64-.09,1.11,1.07-1.36,2.2-2.47.48-1.04-1.62-2.13-3.39-2.65-5.26.94-.19,1.94-.58,2.23-1.59.1-1.79-.63-1.46-1.25-2.69-.49-.98.11-1.94-.26-3.09-.25-.77-.71-1.44-1.15-2.1-1.54-2.23-.42-3.81-.86-6.38-.44-2.63-1.63-5.09-1.91-7.75,3.02.83,5.38,3.13,7.98,4.47,1.45.75,3.25,3.54,3.21,0,1.58,1.66,1.96-2.82,2.24-3.19,1.97.64,3.21,2.29,4.8,3.51.11.93,1.62,3.41,2.47,3.91.62.38,1.48.26,1.96-.29.9-1.05-.33-1.09,1.23-1.44,1.22-.27,1.58-1.5,2.02-2.5,2.47,1.5,3.4,3.95,5.12,6.05,1.77,2.16,3.17-.72,3.51-2.23,2.83,2.98,5.53,6.08,7.98,9.37,1.24,1.67,2.42,3.39,3.51,5.17.92,1.5.12,2.01.33,3.63-5.15-.56-3.38,7.32-3.2,10.2-2.23-1.2-3.54-4.48-5.35-6.2-2.22-2.11-4.12-4.27-6.46-6.25-2.12-1.78-4.31-3.49-6.6-5.02-2.02-1.35-5-3.14-7.48-3.25.75,1.95,3.47,3.22,4.85,4.65,1.98,2.03,4.39,4.08,6.66,5.87,2.14,2.51,4.59,4.67,6.59,7.3,1.07,1.42,3.18,2.98,3.64,4.81-1.25-.85-3.46-.92-4.84-.36-1.51.62.96,2.42,1.7,2.82,1.71.92,3.81,1.11,5.7.72,1.17,1.26,1.87,2.87,3.07,4.11,1.87,1.94-.65.67-.2,2.27.12.62,1.29.31,1.63.29.7-.13,1.12.22,1.26,1.05,1.32,1.97,2.9,3.75,4.63,5.38.72.68,2.99,2.8,2.72.3,1.68,1.03,2.7,1.9,1.51,3.58-.86,1.22,1.62,4.45,2.36,5.45,1.56,2.13,8.64,6.63,6.35,9.78ZM84.95,50.23c-.67,1.67-1.66,3.19-2.63,4.7-.93,1.44-2.77.88-4.1,2.03-1.63,1.39-.7,2.01.96,2.02-.65.89-2.19.71-3.13.96-1.37.36-1.38,1.15-1.98,2.22-2.03.16-3.84-.43-3.61,2.04.04.44-3.13-.39-3.43-.46-.81.46,1.33,1.28,1.6,1.28-.38.81-1.5.44-2.09.26-.92-.03-1.21-.55-.87-1.56-.12-2.22-.19-4.45-.23-6.68-.06-4.09-.05-8.04.59-12.08.56-3.56,1.46-7,2.46-10.43.64-2.2,2.88-5.75,1.87-8.08-1.12-2.58-4.63,6.4-4.92,7.33-1.77,2.85-1.8,6.44-2.88,9.56,0,3.25-.86,6.49-.82,9.76.03,1.87.18,3.88.18,5.8,0,1.14.53,2.8.32,3.89-.71-.04-.84-1.25-1.53-1.23-.83.02-1.32-.8-2.11-1.59-1.77-1.78-2.76-4.46-3.85-6.68-.64-1.31-1.02-1.46-2.04-2.35-.8-.69-.29-3.04-.38-4.03-.24-3-.82-5.96-.64-8.98,1.17.65,1.44,2.25,2.88,2.55,1.39.21,1.52-1.44,1.45-2.21-.31-3.3-.06-6.64.47-9.9,1.2-.18,1.82.8,3.03-.08.98-.72,1.35-1.99,1.63-3.12.63-2.53,1.67-5.39,3.02-7.65,1.23.63,1.24,1.95,3.01,1.57,1.06-.23,1.55-1.3,2.74-1.26-1.67-.07,1.39-4.14,0,0,1.35-4.03,3.65-7.68,4.8-11.79,1.98,2.54,2.63,5.91,2.98,9.03.26,2.31.49,2.42,1.82,4.04,1.12-.53,2.01-1.37,2.88-2.23,2.23,2.54.03,6.62-1.06,8.88-.55,1.14-1.19,4.88,1.06,4.83,1.47.4,1.32-1.27,2.28-1.63,3.54-1.33-.04,8.01-.33,9.07-.28,1.04.33,4.9-.03,5.15-1.92,1.34,2.15.77,2.23.8-.76,2.12-.73,4.14-1.57,6.24ZM74.07,0c.16.05.33.12.49.2.39.1.66.15-.49-.2ZM11.59,32.95c-.1-.15-.18-.3-.19-.43.02.25.09.37.19.43ZM11.41,32.52c.13-.02.29-.03.47-.03-.11-.01-.26-.01-.47.03ZM11.88,32.49c.55.07.03.65-.28.46.92,1.32,5.11,2.92,4.62,1.41-.36-1.11-2.99-1.84-4.33-1.87ZM13.97,36.03c-.2-.46-.39.03,0,0h0ZM22.6,43.67c-.09-.09-.49.15-.32.32.09.09.48-.15.32-.32ZM22.91,44.31c.09.09.49-.15.32-.32-.09-.09-.48.16-.32.32ZM23.56,44.63c.09.09.48-.16.32-.32-.09-.09-.49.15-.32.32ZM19.08,45.47c.2.21.16.56-.64.12,1.49.82,3.09,1.4,4.79,1.59.05-.67-2.82-1.63-4.15-1.71ZM19.08,45.47c-.15-.15-.41-.23-.64.12.07-.11.31-.14.64-.12ZM81.1,51.96c.79.05,1.33-.17,1.6-.64-.79-.05-1.33.17-1.6.64ZM80.46,52.28c.09.09.48-.15.32-.32-.09-.09-.49.15-.32.32Z"/>
    </g>
  </g>
</svg>