<?xml version="1.0" encoding="UTF-8"?>
<svg id="Layer_2" data-name="Layer 2" xmlns="http://www.w3.org/2000/svg" viewBox="0 0 123.87 90.21">
  <defs>
    <style>
      .cls-1 {
        fill-rule: evenodd;
      }
    </style>
  </defs>
  <g id="food_icons" data-name="food icons">
    <g id="hotdog">
      <path class="cls-1" d="M34.38,46.54c1.96-.06-.18-.67,0,0h0ZM51.64,11.16c.09.16.14.34.16.53.13.12.19.07-.16-.53ZM62.88,20.54c-.04,1.8.33,5.06,3.01,3.87,4.16-1.84.08-10.04-1.44-12.33-1.23-1.86-1.54-4.46-.49-6.41.87-1.61,2.08-3.38,1.58-5.18C65.46.38,65.27,0,65.39,0,63.02,0,61.19,3.42,59.96,5.1c-.16,1.18-.32,2.22-.32,3.51,0,1.68.57,2.9.64,4.46,1.88,2.64,2.68,4.14,2.61,7.47ZM78.81,15.62c.12.16.21.33.28.5.1.06.1-.03-.28-.5ZM50.33,25.26c.02,1.02.19,2.37,1.32,2.76,3.63,1.26,2.22-5.62,1.24-7.11-1.3-1.98-1.88-3-1.88-5.39,0-1.11.95-2.68.8-3.82-.15-.15-.39-.53-.16-.53-3.58,0-5.01,6.26-3.27,8.81,1.24,1.82,1.9,3.1,1.96,5.29ZM104.07,39.21c1.94-.72-.51-1.51,0,0h0ZM97.99,37.62c-1.19-.62.72.78,0,0h0ZM65.39,0c.08.17.12.33.16.5.07.1.08.03-.16-.5ZM46.53,46.22c0,.42.53,0,0,0h0ZM77.14,28.15c-.26,1.49-.14,2.91,1.67,3.1,2.65-1.28,3.4-6,2.01-8.27-.73-1.19-1.66-1.47-1.84-3.02-.13-1.15.52-2.67.1-3.82-.15-.09-.53-.5-.28-.5-3.04,0-4.58,5.69-2.64,7.93,1.42,1.64,1.33,2.56.97,4.59ZM34.08,59.83c-.39,2.1,1.77,1.72,2.45.32-.31.57-.5-.59.09-.22-.89-.56-2.09-2.51-2.54-.1ZM65.7,63.77c-.34-1.94-2.66-3.24-4.46-1.93-.13,1.52-.13,3.07,1.59,3.43.79.17,2.09.24,2.74-.41-.21.12-.01-.74.14-1.09ZM69.86,81.29c.14,0-.06.42-.23.7-.19,1.53,2.17,1.92,3.43,2.17.69-1.24-2.44-2.87-3.2-2.87ZM69.63,81.99c.03-.21.1-.44.23-.7-.6,1.17-.44,1.04-.23.7ZM65.7,63.77c.05.3.06.62,0,.94.19-1.17.11-1.22,0-.94ZM70.46,70.08c1.44-1.42-.41-1.93-1.55-1.87.68-.04-.15.7-.1.3-.27,1.1.44,2.76,1.66,1.56ZM54.1,48.03c-.1.1-.19.23-.22.42.25.05.27-.29.22-.42ZM116.03,41.59c-.33-.29-.69-.55-1.09-.78-.75.09.9.85,1.09.78ZM76.58,66.31c.17,1.34,3.07,1.33,2.88-.32-.17-1.97-3-1.89-2.88.32ZM123.09,46.1c-.48-1.94-.69-4.91-2.51-5.82-1.79-.9-3.3-2.27-5.29-2.27-1.75,0-3.42-.5-5.16-.7-1.99.74-4.08,1.17-6.08,1.91-.49-1.43-1.55-2.5-2.88-3.19.81-.89-.2-1.81-.64-2.55-2-1.38-5.7-2.15-7.58-.39-1.86,1.75-6.18,1.58-8.59,2.11-1.07.24-1.96.91-3.01,1.14-1.51-.23-3.04-.32-4.57-.35-3.7-.08-7.4.17-11.1.03-.89-.64-3.09-1.17-4.24-1.51-1.38-.42-2.81-.65-4.23-.88-6.72-1.09-13.15-3.53-19.95-3.97-2.84-.18-5.96-.79-8.58.46-2.45,1.17-5.02,2.04-7.33,3.53-2.93,1.88-4.39,4.07-8.1,3.98-3.22-.08-5.65-.23-8.69,1.15-3.91,1.77-6.06,8.15-3.41,11.74,1.07,1.45,1.64,3.19,2.57,4.72.67,1.11,1.79,1.68,2.51,2.78,2.42.8,4.35,2.13,7.03,1.91,0,.11.5,4.33,1.26,2.64.22-.49-.46-2.2.34-2.32.86,1.1-.05,2.62,0,3.83.32,1.59.64,3.21.5,4.84-.17,2.22,1.23,6.12,2.53,7.92.47.66.77,1.35,1.67,1.76,1.06.48,1.2,1.52,2.33,2.06,1.89,2.02,4.63,3.28,7.23,4.11,2.62.85,5.77,2.36,8.44,2.58,1.18.1,5.09.13,5.76,1.27,2.94.26,6,.79,8.95,1.27,2.64,0,5.76-.67,8.31-.32,6.64,1.03,12.65.61,19.32.06,6.04-.49,10.54-2.43,15.64-5.55,2.36-1.44,4.48-2.52,6.57-4.47,2.04-1.9,3.54-4.17,5.15-6.43.75-1.06.86-2.2,1.27-3.44.21-.6.32-1.22.32-1.85.56.17,1.04.06,1.45-.31,1.47-1.47,1.01-5.12.47-7.02,2.08.19,3.73-.78,5.7-1.16,1.61-.31,2.77-1.92,3.69-3.32,1.01-1.54,2.73-2.66,3.44-4.42.67-1.67-.1-3.91-.51-5.58ZM40.85,34.42c1.56.51,3.21,1.74,4.86,1.63,1.42-.09,2.2-.07,3.62.29,3.72.95,7.47,1.75,11.28,1.9,3.79.15,7.37.71,11.2.63,3.87-.08,7.73-.28,11.59-.55,1.85-.13,4.17.06,5.88-.71,1.08-.48,2.03-1.21,3.15-1.59,2.86-.97,3.42.48,5.57,1.6.67.72,2.73,1.57,1.92,2.87-1.91.06-3.7.61-5.51,1.1-3.22.88-6.64.77-9.83,1.76-3.04-.22-5.97.64-8.97.62-1.53-.01-3.01.33-4.47.11-1.48-.22-3-.41-4.49-.41h-11.8c-3.65-.24-7.23-.99-10.87-1.28-3.09-1.66-6.72-2.18-10.16-2.53-3.82-.4-7.44-1.36-11.25-1.93,3.94-4.19,13.19-5.17,18.29-3.52ZM39.18,51.32c1.14.08,1.52-.86,2.31-1.42.75-.53,5.04-2.83,5.05-3.68,3.21,0,3.41,3.13,4.15,5.74,1.05,2.33,4.65,2.95,6.67,1.77,2.26-1.32,3.59-3.07,5.98-3.93,2.55-.92,4.42,1.63,5.54,3.32,2.82,4.26,9.79,1.57,12.4-1.9,3.88-5.16,6.56,1.05,10.34,2.66-1.16.84-3.36,1.23-4.74,1.39-2.04.24-3.93.63-6.04.76-5.06.32-10.16.78-15.24.73-5.23-.04-10.09-.66-15.21-1.72-2.52-.52-5.05-1.03-7.61-1.34-.6-.07-5.04-1.9-4.79-2.05.27-.16,1.39.35,1.21-.32ZM34.38,46.54c-.21-.75-.77-1.04-.64-1.91,2-.08,3.79.82,5.76.96-.79,1.56-3.76.91-5.12.96ZM53.88,48.45c.08-.5.17-.53.22-.42.52-.52,1.79-.05,2.34.1-.35.45-.59,1.02-1.18,1.22-1.42.47-.41-.72-1.38-.9ZM71.46,47.82c2.33.01,4.73.15,7.03-.32-.3,1.63-2.24,1.79-3.51,2.23-.8.27-1.36.88-2.24.96-.21-1.07-1.06-1.8-1.28-2.87ZM14.23,54.06c-1.81-.47-.79-1.01-1.91-2.42-.37.02-1.78,1.12-1.91.89-.34-.56.48-1.75-1-1.18-.7.27-.66,1.26-1.56,1.24.2-1.22-.47-2.29-.32-3.51.1-.76-.92-.31-.96-.96-.43-2.29-.36-3.2.98-4.97,1.83-2.42,10.04-.91,12.44.51-1.57-.92.33-.21.22-.04.72-.18,2.05-1.19,2.57-.53.18.23-3.6,3.47-1.49,4.36,1.47.62,2.74-.57,3.9-1.63,1.02-.94,3.64-2.64,4.48-.8.5,1.1.67,2.32,1.18,3.41.78.82,1.69,1.51,2.56,2.23-.48.71-6.19-.64-7.35-.64-2.55.35-6.22,1.52-7.09,3.98-1.1,3.09-2.95.49-4.74.03ZM103.84,68.69c-.91,2.18-5.2,6.14-7.33,7.08-.77.34-3.86,2.62-4.27,1.37-1.75,1.04-3.04,3.67-4.15,5.1-.69.04-2.24,1-2.88,1.27-1.03.44-1.32.78-2.68.85-1.81.09-13.12,2.4-13.3.42-.56.07-3.15.1-3.2,0-1.15.11-.99-1.21-1.28-1.91-1.06-.16-1.01.9-.96,1.59-3.19,0-3.97-1.09-6.4-2.87-1.42.27-.66,2.62-1.28,3.51-1.13-1.25-1.69-2.91-2.24-4.46-.96,1.31.2,3.09.32,4.46-2.63.43-2.8-4.68-4.47-6.06-.84.71-.67,2.23-.64,3.19-.63-.28-2.08-3.84-2.52-1.23-.21,1.21.85,2.28.92,3.46-1.05-.18-1.98-.87-2.27-1.92-.06-.22.12-1.94-.21-1.84-1.25.37-1.59,2.55-3.19,2.08-1.06-.31-1.29-2.74-1.88-2.48-.75.34-.64,1.96-1.28.21-.55-1.52-1.34-1.36-2.04-.2-1.06-.24-.4-1.81-1.28-2.23-1.11-.21-.87.86-1.4,1.4-1.35,1.36-2.96-3.6-3.07-4.27-.96.84-.35,2.14-.32,3.19-1.54-1.15-2.34-2.9-2.55-4.78-1.71.29-.47,2.22-.32,3.19-1.71.11-.94-2.15-1.92-2.87-.09-1.24-.85-2.27-.96-3.51-1.21,0-1.69.41-2.12-.76-.39-1.05-.52-1.74-.84-2.83-.2-.67-.82-1.09-1.5-.77-1.15.53-.6,2.77-.65,3.72-2.45-1.35-1.19-6.51-.64-8.53.47-1.69,1.14-3.3,1.92-4.86,1.02-.07.75,1.11,1.28,1.59,1.07-1.11,2.23-3.4,3.69-3.81,1.33-.38,2.75-.37,4.12-.35,3.42.03,5.76.78,9.21,1.44,2.02.39,4.03.87,6,1.45,1.01-.07,1.95.05,2.63.48,1.79,1.12,5,1.45,7.05,1.51,4,.13,8,.24,12,.27,3.55.02,6.95-.62,10.41-.45,6.43.32,12.77-.83,19.16-1.32.5-.05,1.36-.11,2.76-.17,1.53.58,3.19.75,4.67,1.46,1.23.59.58,1.74,1.05,2.91,1.15,2.89,0,4.53-1.14,7.26ZM116.86,52.6c-1.22,1.48-1.23,2.14-3.21,2.55-1.11.23-2.81.59-3.5-.64-.98.75-3.67.98-4.44.41-2.59-1.92-6.65-1.3-9.63-1.04.74-1,2.01-1.38,2.88-2.23.49-.7,1.05-1.35,1.77-1.82,1.43-.93,3.02-.36,4.31.5,4.08,2.72,6.35-2.52,1.91-3.78-2.97-3.09-7.53-1.35-10.16,1.09-1.17,1.08-2.78,3.3-4.38,1.77-.98-.94-2.79-1.72-3.04-3.18,5.16-.31,10.89-1.62,15.75-3.35,1.02-.36,4.11-.53,4.71-1.44.83-.26,1.88-.34,2.55-.96.87.22,1.65.43,2.56.32.95.54,1.18.75,1.09.78,2.33,2.06,3.08,5.55,3.7,8.46-.39,1.38-1.63,2.07-2.88,2.55ZM99.27,57.06c-.92.04-1.84.1-2.76.17-2.43.26,4.24.39,2.76-.17ZM20,43.67c.14,0,.2,0,.22-.04-.08.02-.16.04-.22.04ZM71.46,47.82c.22,1.15,2.46.01,0,0h0ZM48.37,63.77s.05,0,.08,0c-.55.02-.37.02-.08,0ZM48.5,63.76s-.09,0-.13,0c-.97.07-1.48.75-1.54,1.69-.12,1.68,2.34,1.2,3.54,1.17.05-1.33-.23-2.86-1.86-2.86ZM48.45,63.76s.04,0,.06,0c.39-.01.8-.03-.06,0ZM65.71,64.71c-.04.06-.09.1-.14.15.04-.02.08-.06.14-.15Z"/>
    </g>
  </g>
</svg>