<?xml version="1.0" encoding="UTF-8"?>
<svg id="Layer_2" data-name="Layer 2" xmlns="http://www.w3.org/2000/svg" viewBox="0 0 71.54 114.08">
  <defs>
    <style>
      .cls-1 {
        fill-rule: evenodd;
      }
    </style>
  </defs>
  <g id="food_icons" data-name="food icons">
    <g id="icecream1">
      <path class="cls-1" d="M53.69,38.31s.03.07.05.11c.05.05.06.05-.05-.11ZM20.45,19.5c1.78-.67-2.52-3.23,0,0h0ZM4.47,58.05c.05.34.14.68.31.98.07-.76-.23-1.13-.31-.98ZM49.57,42.85s-.03-.05-.03-.08c.03.13.04.14.03.08ZM8.04,67.02c.06.24.23.45.58.62.31-.7-.41-.82-.58-.62ZM69.27,53.81c-1.53-.39-4.21-.42-3.19-2.32,1.1-2.05,1.44-4.43,1.4-6.71-.04-2.17-.3-4.33-.77-6.45-.41-1.85-3.43-4.29-2.1-5.71,3.19-3.42,3.05-7.33,2.83-11.52-.53-.69-1.06-1.37-1.28-2.23-.78-.33-1.54-.8-1.92-1.59-1.9-.79-3.73-1.73-5.7-2.35-4.27-1.37-9.51-1.24-12.79,2.01-1.18,1.17-4.1-2.24-5.39-3.22-2.11-1.6-3.27-2.74-4.57-5.04-.59-1.19-2.85-3.35-3.72-1.05-.61,1.62-.58,3.13-1.34,4.77-1.05,2.26-3.06,2.27-4.99,3.6-1.64,1.12-3.42,2.82-5.29,3.52-2.8-3.59-5.75-6.6-8.2-10.48C10.67,6.52,8.79,1.67,5.95.34c-1.81-.85-2.9.03-4.11,1.28-.88.9-2.36,3.3-1.21,4.5.53.55,1.45.59,2.14.74,1.15.24,1.25,1.29,1.83,2.21,1.02,1.59,2.07,3.12,2.99,4.78,2.15,3.89,4.53,7.75,7.02,11.4.86,1.26,2.77,2.49,3.1,4.05.23,1.06-3.87.88-4.86,1.11-4.54,1.04-7.9,4.74-10.29,8.55-.65,3.55-.58,7.82.96,11.16-1.07,0-2.62,3.24-2.87,4.16-.65,2.41-.88,5.46-.33,8.07.5,2.4-1.67,5.66,2.56,4.99.67,2,2.71,3.85,3.94,5.56,1.57,2.18,3.97,4.51,6.29,5.92.62,1.63,1.13,2.79,2.93,2.22.82-.26,2.37,1.17,3.12,1.51,1.3.58,2.67.98,4.05,1.34,2.49.65,5.04,1.11,7.48,1.94-1.11,1.23-.64,3.48-.43,4.94.24,1.68-.45,3.39-1.05,4.95-.71,1.84-1.7,3.56-2.74,5.24-1.07,1.71-2.55,1.91-4.35,2.53-2.61.89-5.58,2.45-8.2,2.81-1.52.21-2.7,1.05-3.69,2.17-.17,1.42-.05,3.95,1.43,4.57,3.94,1.63,9,.85,13.16.85s8.16-.35,12.27-.67c2.88-.22,5.76,1.21,8.96.82,1.81-.22,3.64-.1,5.45-.23.96-.07,1.95-.18,2.85-.56.55.39,1.16.64,1.83.74,5.06.8,6.22-4.42,2.87-7.37-1.49-1.31-3.51-1.43-4.93-2.71-1.62-1.46-3.26-2.12-5.53-1.81-1.42-1.69-4.13-1.54-5.76-2.71-1.07-.76-1.93-3.43-2.92-3.73-1.49-.45-1.52-.18-1.5-1.9.01-1.22-.07-2.44-.16-3.66-.09-1.2-.19-2.41-.21-3.62,1.33-.31,2.65-.62,3.96-.99,4.88-1.35,7.58-4.95,11.95-6.92,3.86-1.74,7.24-4.54,9.66-8.03,1.75-1.07,3.65-3.8,3.54-5.86-.06-1.19-.56-1.52.13-2.59.52-.81,1.05-1.59,1.29-2.54.44-1.76,2.27-.85,2.87-2.93.47-1.6-.77-2.42-2.16-2.78ZM55.07,18.23c-1.72.07,3.03.65.94.1,2.2.55,4.41,1.33,6.21,2.73,2.07,1.61,1.67,4.22.85,6.52-.38,1.08-.94,2.07-1.57,3.03-.73,1.13-1.42.37-2.62.15-2.97-.54-6.03-.51-9.03-.42,1.24-2.93.91-7.33-1.37-9.71-1.91-2,4.47-2.35,6.58-2.39ZM41.28,49.58c.62-.22,1.2-.59,1.43-1.25.43-1.25.39-.67,1.64-.92,2.09-.42-4-7.76-3.12-9.42,1.15.28,1.64,2.43,2.23,3.3.73,1.08,1.51,2.25,2.16,3.37,1.14,1.96,2.44,3.8,4.56,4.8,2.42-.36,5.06.18,7.22.69,1.97.46,4.3-3.62,3.12-3.92-.4-.1-.59.61-1.07.36.36-2.92-.76-3.52-3.2-3.19,0-.92-.13-1.84-.39-2.72-.23-.8-1.37-1.36-1.53-.14-.66-.43-.28-1.49-.59-2.12-.13-.14-.55-.68-.05-.11-.25-.29-1.9-2.77-1.85-2.8,1.53-1.06,5.57.12,7.1.65,2,.69,2.74,3.2,3.16,5.13.67,3.13.45,11.05-4,11.08-5.25.02-10.41-.84-15.58-1.66-1.36-.22-7.21-.37-7.12-1.69.07-1.16,1.54-1.3,1.68-2.42,1.27,1.04,2.17,3.71,4.21,2.98ZM38.99,41.18c.06-.36.32-.18.32,0-.07.36-.33.18-.32,0ZM42.51,37.36c1.79-1.29,1.77.71,2.24,1.91.54,1.38,1.26,2.69,1.6,4.15-1.49-1.69-2.62-3.65-3.63-5.65.77,1.44.13-.66-.21-.41ZM52.42,40.22c-.82-.68-.77-2.21-.96-3.51.76.73.92,2.05.96,3.51ZM50.5,35.44v4.15c-.98-.96-.82-2.63-1.92-3.51,0-.1.02-.17.05-.2.24-.65,1.41-.43,1.86-.44ZM47.68,37.19c.69,1.85,1.56,3.61,1.86,5.58-.33-2.15.01-.2.03.08.25.72,1.32.68,1.88.88-1.49,1.7,1.34,2.34,1.28,3.19-2.09.73-2.47.23-3.2-1.91-1.43-.73-1.96-3.11-2.64-4.38-.75-1.41-1.75-2.66-2.16-4.22,1.66-.86,2.32-.87,2.94.79ZM21.73,27.16c0-2.02,1.72-3.19,3.2-4.46,2.85-1.44,5.14-3.54,7.03-6.06.3-.11.48-.16.59-.17,1.6-.34,3.12.34,4.52,1.12-1.38,1.81-3.22,5.68.32,6.38,2.58-.15,3.07-2.67,3.2-4.78,2.35,1.78,4.13,4.11,4.79,7.01.16.99-1.02,4.93-2.24,5.1.56-3.67-4.45-3.55-4.21-.26.15,2.22,1.05,1.74-.96,3.35-1.33,1.06-2.45,2.36-3.14,3.92-1.39-.33-1.78-2.11-2.84-2.91-1.52-1.14-2.97-2.36-4.51-3.47-1.15-.83-2.53-1.72-3.96-1.63-.74.05-2.04.19-2.62-.38.35.34.82-2.92.82-2.77ZM8.21,11.05c-1.23-1.45-2.16-3.14-2.78-4.93.8,2.29-.43.05,0,0-.45.05-.96-1.29-1.28-.32-.87-.05.39-2.62,1.09-.45.28.88,1.26,2.78,2.11,3.32.14.46,1.85,3.77,2.32,4.27-.33-.33-1.38-1.8-1.45-1.89ZM16.33,22.56c-.43-.54-.72-1.19-1.17-1.71-1.09-1.24-2.51-2.59-3.01-4.21.5,1.62-.38.03,0,0,.05,0,1.59,1.71,2.33,2.45.61.61.96,1.7,1.64,2.13.53.34,1.28.46,1.62,1.06.79,1.37-.98.81-1.41.28ZM8.31,38.43c1.4-1.45,3.66-3.52,5.64-3.89,3.3-.61,6.73-.22,10.01.27,2.15,1.53,4.4,3.02,6.09,5.06.08.09.18.2.3.35.35,2.57.54,5.23.28,7.82-.21,2.17-.73,1.69-2.76,1.59-1.71-.09-3.41-.13-5.11-.16-3.51-.05-7.02,0-10.53,0-3.04,0-4.82.34-5.39-3.1-.46-2.81-.63-5.8,1.46-7.96ZM8.62,67.64c-.6-.28-.68-.5-.58-.62-.12-.45.16-1,.37-1.51.56-1.34-.48-1.38,1.49-1.38-.05,1.33-.76,2.33-1.28,3.51ZM19.17,77.2c-.33.33-.84-.48-.32-.32.04-.62.5.14.32.32ZM56.6,69.63c-2.37,4.4-5.71,6.6-10.58,7.89-2.19.85-4.64,1.54-6.4,3.19-.92.23-2.58-.02-2.82.95-.19.76-.11,1.57-.36,2.32-.56,1.65.64,4.95.55,7.01-.1,2.44-.38,4.88-.24,7.32.18,3.05,1.52,3.94,4.47,4.4,1.56,1.21,1.56,1.62,3.62,1.61,1,0,2-.02,2.99.06,1.29.09,4.87.59,4.15,2.66-.5,1.43-2.59,1.27-3.73,1.74-3.08,0-5.63-.25-8.63-.96-2.43.33-4.89.46-7.32.83-2.91.44-5.71.44-8.67.44-1.52-.54-3.86.24-5.11-.96.12-.5,2.15-1.71,2.59-2.1,1.54-1.34,2.87-1.76,4.92-1.96,3.62-.36,6.62-.44,6.77-4.81.07-2.02-.39-3.7-.22-5.76.17-2.15.14-4.31.17-6.46.04-2.55.15-5.13.8-7.6-1.31-1.01-1.99.84-3.2.96,1.08-1.44-2.27-1.34-2.87-1.28.09-1.44.1-4.48-2.11-4.16-1.3.19-1.71,1.71-3,1.93-.56-.93-.07-2.44-.96-3.19-.89-.06-2.16-.03-2.56.96-.76-.78.27-2.82,0-3.83.83.03,4.63-1.22,2.24-1.76-1.45-.33-2.6-.47-4.16-.47-.07-.51-1.29-.26-1.58-.46-.48-.33-.45-1.03-.96-1.34-1.35-.82-2.06.61-2.58,1.48-.72-.85.61-2.74.32-3.82,1.81.1,3.85.04,5.44-.96-.62-.96-1.51-.85-.96-2.23-.45-.59-.73-1.25-1.6-1.28,1.75-2-3.69-3.02-4.83-3.15-1.93-.22-5.15-.49-5.4,2.2-.32-.58-.36-.89-.31-.98-.13-.9.07-1.89.24-2.72.33-1.55-.06-1.73,1.75-1.69,3.03.06,6.06.19,9.08.33,5.43.26,10.86.56,16.3.61,6.15.05,12.18,1.28,18.26,2.16,5,.73,10.14-.28,15.09.7-2.33,4.49-6.26,7.84-8.6,12.2ZM32.55,16.47c-.2.04-.39.09-.59.17-.81,1.08,1.2-.21.59-.17ZM48.63,35.88c-.02.06-.05.12-.05.2.88.7.25-.45.05-.2ZM30.36,40.22c-.09-.12-.2-.24-.3-.35-1.14-1.23.63,2.83.3.35ZM29.43,28.98c1.19,1.04,1.77.58,2.85-.23-.17.12-.05-.34.09-.76-.08-1.79-2.02-3.78-3.67-2.26-1.08,1-.16,2.46.73,3.25ZM32.37,27.99c.01.26-.01.52-.09.76.61-2.01.31-1.43.09-.76ZM59.77,37.36c-.03.48-.15.82-.34,1.05.1.26.26.16.34-1.05ZM55.72,37.64c.98.71,2.92,1.75,3.71.76-.16-.41-.21-1.72.34-1.05-1.39-1.71-7.13-1.95-4.05.28ZM56.89,39.59c0,.77,1.12,2.04,1.6,1.27-.74-.21-.86-1.06-1.6-1.27Z"/>
    </g>
  </g>
</svg>