<?xml version="1.0" encoding="UTF-8"?>
<svg id="Layer_2" data-name="Layer 2" xmlns="http://www.w3.org/2000/svg" viewBox="0 0 43.04 114.08">
  <defs>
    <style>
      .cls-1 {
        fill-rule: evenodd;
      }
    </style>
  </defs>
  <g id="food_icons" data-name="food icons">
    <g id="icecream3">
      <path class="cls-1" d="M11.75,50.54s0,.01,0,.02c0,0,0,0,0,0,0,0,0,0,0-.02ZM6.09,71.7c.03.19.09.37.23.53.05-.25-.11-.46-.23-.53ZM10.8,75.1c.3,1.07,1.65-.19,0,0h0ZM10.8,61.08c0-.06,0-.1,0-.12,0,.07,0,.12,0,.12ZM41.63,17.19c-1.05-4.37-1.92-8.61-5.41-11.62C30.36.49,20.5-2.17,13.47,2.21c-3.93,2.45-5.52,6.21-7.68,10.13-2.07,3.75-2.03,8.97-2.25,13.18-.29,5.75-.49,11.5-.97,17.23-.21,2.52-.48,5.04-.85,7.55-.36,2.43-.04,4.88-.38,7.31-.69,4.94-.69,9.86-1.21,14.83-.24,2.36-.26,4.28.77,6.47.39.83.89,1.62,1.58,2.25,0,.51-.27,1.88.64,1.91-.19-2.27,2.12.3,2.56.64,1.67.15,3.37.17,5.04.23,1.62.05,3.26.12,4.86.41-.04,1.81-.05,3.63-.03,5.45.04,3.91.2,7.81.49,11.71.21,2.85-.17,7.33,1.6,9.59,1.29,1.65,1.88,2.16,3.91,2.69,1.26.34,2.63.56,3.69-.32,2.45-2.04,2.46-4.71,2.45-7.66-.03-7.16.54-14.3.36-21.46,3.24-.02,7.03.51,10.08-.85,1.49-.66,2.66-4.84.07-4.24-.76.18-1,.93-1.48,1.44-.66.7-2.15.67-3.02.74-3.05.23-6.11-.11-9.17.04.51-1.47-.42-2.49-1.21-3.62-.97-1.39-.19-2.33-.62-3.78-.53-1.78-1.92-.37-1.44,1,.39,1.1.44,2.46-1.21,2.26-.04-.7.5-.97.64-1.59-1.49.12-3.76,3.69-3.96,4.83-.22,1.25-5.39.56-5.94-.05.35-2.42,2.62.81,4.26-.79,2.28-2.22-1.93-1.19-1.71-2.4,1.67,1.21,3.74-2.3,5.76-2.55,1.72-1.98,3.73-3.62,4.15-6.38-1.32.25-1.96,1.52-3.2,1.91-.56,1.22-1.58.95-2.55,1.59,0-2.41-.21-3.53,1.52-5.36,1.34-1.41,2.38-3.17,1.68-5.16-2.04.25-2.7,2.11-3.84,3.51-1.56-3.8,4.35-8.06,4.16-12.11-1.62.16-2.59-.37-3.69.78-1.5,1.56-2.18,3.71-3.67,5.28-.7-3.83,2.3-6.25,2.24-9.88-.54-.94-1.28.08-1.92-.64.03-.99.27-1.93.67-2.83.78-1.71,1.82-3.18,1.88-5.14-1.29.23-1.68,1.46-2.55,2.23-.31-4.99-1.6.44-2.95.58-.36.04,2.07-3.93,2.52-4.4.37-.38,3.9-1.1,3.24-2.12-.25-.39-.89-.28-1.26-.46-.59-.28-.16-1.17-.57-1.71-.97-1.27-1.34.26-1.81,1.03-1.16,1.93-1.57-.76-1.74-1.21-.21-.49-1.22,0-1.28-.64.37-.85.82-1.65,1.25-2.47.97-1.83,1.64-3.71,1.62-5.82,1.37-1.58,2.46-3.35,2.88-5.42-.82.13-1.34.67-1.95,1.17-.41.54-.88.57-1.41.12-1.52,0-1.53,2.63-2.4,3.49.17-.85-1.82-1.11-.64-1.91-.02-.5,1.26-2.21.52-2.6-.28-.15-.53.46-.78.36.58.23,2.61-5.02,3.13-5.49.72-.65,1.03-1.69,1.93-2.15.09-.68-.53-.58-.52-.47-.11-1.34,2-2.06,1.8-3.68-1.09-.21-4.96,3.44-5.11,3.51-.47.2,0-.11,0,0,0-3.25,4.18-6.57,6.96-7.43,4.63-1.43,10.18.04,14.14,2.64,4.02,2.65,4.98,7.36,5.96,11.94,1.34,6.33,1.04,12.56.97,19.02-.12,10.95-.23,21.92-1.07,32.83-.16,2.16-.91,5.3.82,6.75,1.07.9,2.52.72,3.02-.67,1.23-3.49.83-8.4,1.09-12.25.69-10.19.45-20.58.64-30.88.11-5.97.02-11.27-1.37-17.08ZM21.06,104.25c.19.25,1.13-5.45-.03-.13,1.4-6.45.95-13.22.96-19.76,2.8,0,2.56,0,2.56,2.78v13.88c0,2.83.02,5.53-.44,8.25-.39,2.27-1.6.94-3.07,1.24.29-.91.04-4.26,1.28-3.82-.57-.77-1.14-1.44-1.25-2.42ZM13.68,65.54c-.12-.68-.02-1.32.33-1.91.68.28,0,1.91-.33,1.91.35,1.69-.97.38,0,0-.97.38-.04-.79,0,0ZM11.75,50.56s0,0,0,0c-1,.12-.07-.36,0-.02,0-.16-.01-.22,0,.02,0,0,0,0,0,0,0,.21.01.59-.03.84-.12.69-.54,1.22-1.24,1.39.45-.71.24-2.09,1.27-2.23ZM10.92,61.91c-.11-.26-.16-.54-.12-.83-.02.39,0-.32,0-.12,0-.43,0-1.84.2-1.66.47.43-.18,2.52-.08,2.62ZM10.8,75.1c1.06-.12,1.78-.94,2.73-1.31.93-.36,2.12.17.94.99-.37.2-.54.52-.47.96-.61.05-1.21.18-1.77.4-.74.3-1.36.81-1.74,1.51-.76-.49.52-1.83.32-2.55ZM6.64,37.81c.17.16-.23.41-.32.32-.16-.16.23-.41.32-.32ZM6.64,62.35c.8.05.09,1.08,0,1.28-.96-.21.31-.68,0-1.28ZM6.32,63.95c.17.16-.23.41-.32.32-.17-.16.23-.41.32-.32ZM4.09,77.97c-.71-.13-.43-1.87.64-1.28,0,.63-.87.4-.64,1.28ZM5.36,48.33c1.66.29-.39,1.49,0,2.55-.82-.44-.07-1.95,0-2.55ZM6.01,76.38c-.01.31-.39.25-.64.32.01-.31.39-.25.64-.32ZM5.36,79.88c-.9-.72.53-1.79.64-2.55.96.78-.33,1.98-.64,2.55ZM7.29,71.28c.16,1.42-.83.22-.96.96-.44-.51-.37-.62-.23-.53-.14-.93.89-2.09.87-2.98.79.26.18,1.99.32,2.55ZM35.74,19.32c.05-1.01,0-1.92-.64-2.23.12.83.16,1.75.64,2.23ZM22.63,26.01c0,.18.25.36.32,0,0-.18-.26-.36-.32,0ZM29.34,48.01c-.34.93-1.13-.17,0,0-.96-.14-4.47-.69-2.24,1.59,1.16.06,1.86-.57,2.24-1.59ZM26.46,68.73c1.44-.15,2.43-1.03,3.2-2.18.19-.29,2.17-2.93.63-2.6.54-.12-.46.81,0,0-.56.98-2.72,1.62-3.67,2.07-1.6.75-.37,1.77-.16,2.71Z"/>
    </g>
  </g>
</svg>