<?xml version="1.0" encoding="UTF-8"?>
<svg id="Layer_2" data-name="Layer 2" xmlns="http://www.w3.org/2000/svg" viewBox="0 0 64.63 110.67">
  <defs>
    <style>
      .cls-1 {
        fill-rule: evenodd;
      }
    </style>
  </defs>
  <g id="food_icons" data-name="food icons">
    <g id="icecream2">
      <path class="cls-1" d="M64.57,31.9c-.76-3.91-2.74-6.62-5.12-8.93-1.64-.81-3.36-1.54-4.79-2.55-1.38,0-2.03-.74-3.52-.64-.48-.79-2.75.2-3.2-.64.27-1.22.42-2.56.32-4.14-.4-1.4-.17-3.44-.96-4.46-.04-1.77-1.25-2.37-1.6-3.82C41.16,2.65,35.46-.27,26.53.02c-1.42.6-3.37.67-4.47,1.59-1.61.31-2.07,1.76-3.52,2.23-.84,1.4-1.81,2.66-2.88,3.83-.58,1.55-1.16,3.09-1.92,4.46-.2,1.92-.46,3.8-.32,6.06.6.68.43,2.12,1.28,2.55.61.67.88,1.68,2.24,1.59h.64c.31-.43.85-.64,1.28-.96.26-.59.41-1.29.96-1.59.98-.4,1.68-1.09,2.56-1.59.62-.76,1.9-.87,1.6-2.55-.36-1.51-2.18-.33-2.88-.96,1.13-1.63,2.19-3.34,3.84-4.46v-2.23c1.04-.24,2.03-.53,1.92-1.91-.36-.82-1.72-.62-2.88-.64.03.38-.46.2,0,0,1.08-.94,3.04-1,4.8-1.27,5.78.92,11.28,2.14,13.74,6.37,1.18,2.36,1.06,6.15.64,9.25-1.64.7-3.11,1.57-4.79,2.23-.38.79-1.1,1.24-1.92,1.59-.97,1.47-1.98,2.91-2.87,4.46-1.03-1.21-1.8-2.68-2.88-3.83-1.2-.29-1.68-1.3-2.88-1.59-1.05-.55-2.46-.73-3.83-.96-2.5-.16-4.08.61-6.39.64-1.19.72-2.79,1.04-4.16,1.59-1.1.82-2.38,1.45-3.84,1.91-1.54,1.44-3.25,2.71-4.79,4.14C2.94,33.14.53,35.72,0,40.19v4.46c.52.65.25,2.09.96,2.55-.08,1.14.96,1.17.96,2.23,1.69,1.29,3.18,2.78,5.43,3.51,1.73,1.14,4.77.98,6.39,2.23,3.46,8.98,5.41,19.47,8.31,29.01,1.1,5.17,2.92,9.63,4.47,14.35.87,2.21,1.74,4.42,2.56,6.7.53,1.06,1.07,2.12,1.6,3.19.32.43.3,1.19.96,1.28-.14.88,1.19.3,1.28.96,1.39.22,1.77-.57,2.24-1.28,1.17,0,1.44-.91,2.24-1.27,4.41-8.03,7.29-17.6,10.55-26.78.55-1.05,1.07-2.12,1.28-3.51.59-.9.99-1.99,1.28-3.19.66-.94.89-2.3,1.28-3.51.6-.89.79-2.19,1.28-3.19,1.49-4.68,2.93-9.41,4.16-14.35.03-1.3.06-2.61-.32-3.5,4.24-4.38,8.25-8.99,7.67-18.17ZM21.42,7.67c-.02.19-.05.38-.32.32.21,1.75-1.9,2.85-2.23,3.51-.07.25,0,.63-.32.64.03.38-.47.2,0,0,.07-.25,0-.63.32-.64.28-1.52,1.26-2.35,1.92-3.51h.32c.02-.19.05-.38.32-.32-.03-.39.47-.2,0,0ZM10.55,37.32c-.13.4-.41.65-.96.64.13-.4.41-.65.96-.64-.03-.39.46-.2,0,0ZM8.95,35.09c.34-1.15,1.21-1.77,1.92-2.55.61-.88,1.36-1.62,2.24-2.23.13-.61.69-.8.64-1.59,3.21-1.26,6.03-2.91,10.87-2.55.61.45,1.39.74,2.24.96.4.67.93,1.2,1.6,1.59.27,1.22.95,2.03,1.28,3.19v2.87c-.19.76.4,2.31-.32,2.55-1.35.5.07-1.77-1.28-1.27.17-1.25,1.76-3.63.32-4.46-1.69-.2-1.3,1.67-2.56,1.91-.69.8-1.01,1.97-1.92,2.55.16,1.01-.57,1.12-.32,2.23-1.04-.45-.72-2.26-1.6-2.87-.38.47-1.21.49-1.6.96-1.15-.37-2.06-1.48-3.52-.64,1.09-1.15,2.71-1.76,3.83-2.87-.14-.71-1.58-.13-2.24-.32-.17-1.45,1.81-.75,2.55-1.28.39.68.4,1.74,1.28,1.91-.17,1.13.27,1.64.96,1.91,1.57.18,1.62-1.15,1.92-2.23.56-.29.99-.71,1.28-1.28.05-1.64-.41-2.78-.96-3.83-1.64-.21-3.74-.36-6.39-.32-1.04.13-.82,1.52-1.28,2.23-.7.47-1.72.62-2.24,1.27-.94.08-.98-.72-1.92-.64-.78.92-1.62,1.78-2.24,2.87-.96.45-1.41,2.66-2.56,1.91ZM20.46,47.52c.88-3.54-3.62-1.7-3.52-4.46.78-.81.68.67,1.92.32,1.17-.11,1.46-1.09,1.92-1.91.95.11,1.62.51,2.23.96.55.01.83-.24.96-.64.98,1.3,2.4.48,3.83.96-.04,1.76-1.27,2.34-1.92,3.51-1.64-.34-1.96,0-3.2-.64-1.54-.16-.92,1.84-2.24,1.91ZM20.78,48.47v1.28h-.64v-1.28h.64ZM23.34,40.19c.51-.24-.07-1.56.96-1.27.09.83-.11,1.37-.96,1.27ZM12.47,36.68c.07-.25,0-.63.32-.64-.31-1.32.96-.06,0,0-.07.25,0,.63-.32.64.31,1.32-.96.06,0,0ZM11.83,40.51c1.03-1.34,2.17.15,3.83,0,1.03-.24,1.67-.88,1.92-1.91,1.53.07-.24,1.13,0,1.91-1.85,1.03-3.27,2.48-4.16,4.46-.98-.59.37-1.51,0-2.55.01-1.18-1.56-.78-1.6-1.91ZM12.47,49.43c.65-.64.63.14,1.28.32.1.56-1.79.57-1.28-.32ZM15.02,50.39c-.09-1.04,1.24-.68,1.28-1.59,1.04-.08.68,1.24,1.6,1.27-.34.72-2.01.12-2.88.32ZM22.06,63.78c-.39-2.91-1.7-4.9-1.92-7.97.75-.32,1.57-.56,2.55-.64,7.9-3.45,13.5-10.69,12.15-22.31.04-1.12.47-.09,1.28-.64.85-3.08,3.21-4.66,5.44-6.38.41.44,1.39.31,2.24.32,1.02-.25,1.39-1.16,2.23-1.59,2.71-.15,5.03.09,7.03.64-.08,1.19-1.83.72-1.6,2.23.03,1.36.76,2.01,2.24,1.91,1.41-.12,1.75-1.79,1.28-2.87,2.57,1.16,3.58,3.87,4.16,7.01-.87,6.89-3.83,11.7-9.91,13.39-4.88.3-8.82-.34-12.14-1.59-.41.44-1.51.2-1.92.64-.29,2.1.47,3.15,1.6,3.83.68.28.95.97,1.92.96.1.75,1.51.19,1.28,1.28-1.33-.12-1.86-1.4-3.2-.64-.14,1.42.23,2.32.64,3.19-.3,1.29-1.49,1.71-1.92,2.87-.56,1.04-1.6,1.6-1.92,2.87-1.49-.43-1.84-2-2.88-2.87.37-1.96,1.98-2.7,1.6-5.42-2.25.2-3.4,1.49-4.48,2.87-.71-.25-1.24-.67-2.23-.64-.29,1.46.8,1.54.64,2.87-.97.84-1.26,2.35-2.24,3.19-.14.81-.45,1.47-.96,1.91-.29.55.01,1.71-.96,1.59ZM33.57,67.6c1.59.54,1.82,2.44,2.87,3.51-.73,1.82-2.44,2.66-3.19,4.46-.93-.13-1.04-1.09-1.6-1.6-.55-.41-1.26-.66-1.28-1.59,1.38-1.28,2.17-3.14,3.2-4.78ZM28.13,69.83c-1.3-.41-1.93-1.48-2.88-2.23.79-2.83,2.13-5.1,3.52-7.33.76,1.05,1.78,1.83,2.24,3.19-.49,2.59-2.52,3.65-2.88,6.38ZM36.12,64.09c.83-2.47,2.67-3.92,3.84-6.05,1,.28,1.05,1.5,1.92,1.91-1.63,1.03-.5,3.24.64,4.14-.65.74-1.15,1.62-1.92,2.23-.72.56-.74,1.82-1.92,1.91-.51-1.73-1.89-2.59-2.56-4.15ZM24.93,72.07c-.63-.86-.87-2.12-.96-3.51.56,1.06,2.43,2.3.96,3.51ZM28.13,81.95c.3,1.32-.96.06,0,0,.07-1.62,1.6-3.16.64-4.78-1.21-.14-1.46.67-1.92,1.28-.74-.65-.86-1.91-.96-3.19.7.6,2.25.12,2.56-.64,1.14.78,1.73,2.1,2.56,3.19-.12,1.2-1.35,1.67-1.92,2.55-.28.43-.33,1.81-.96,1.6ZM30.69,93.74c-1.11.15-.19-1.73-.96-1.91.25-1.2-.39-1.52-.32-2.55.6-1.95,2.25-2.85,1.92-5.74.82-.67,1.42-1.56,1.92-2.55.27-.06.3.12.32.32.87.41.92,1.63,1.92,1.91-.09,1.26,1.37.98,1.28,2.23-.25,1.45-1.73,1.68-2.24,2.87-1.12.58-1.34,2.07-2.55,2.55-.41.97-.5,2.27-1.28,2.87ZM42.83,90.23c-1.41,1.57-2.11,3.84-3.2,5.74-1.2,1.78-1.45,4.5-3.2,5.74-.69.06-1.01-.26-.96-.96-.66.09-.3,1.19-.96,1.27-2.88.21-2.45-2.87-3.51-4.46,0-1.48,1.22-1.76.96-3.51,3.76-.92,4.41-4.95,7.67-6.37.09,1.15-.59,1.54-.64,2.55,1.03-.46.84-2.14,1.28-3.19,1.73.54,2.87-1.15,3.52-.64-.43,1.17-.76,2.43-.96,3.82ZM40.92,84.82c-.75-.46.2-1.9.32-2.55-1.2.08-1.35,1.2-2.56,1.28-.88-1.78-2.23-3.09-3.2-4.78.55-1.79,2.29-2.39,2.88-4.14,1.83,1.36,2.29,4.09,3.84,5.74.41.55.66,1.25,1.6,1.28-.39,1.63-2.33,1.72-2.88,3.19ZM45.39,80.35c-.57-.36-1.09-1.2-1.6-1.91-.87-1.21-1.65-1.83-.96-3.83-.24-1.25-1.25-1.73-1.6-2.87.7-1.86,2.57-2.54,3.2-4.46,2.02.54,2.04,3.07,4.48,3.19-1.45,3.02-2.95,5.98-3.52,9.88ZM54.34,56.76c-.64,1.27-.72,3.1-1.6,4.14-.84,2.88-1.89,5.55-3.2,7.97-1.06-1.28-2.06-2.62-3.2-3.82.51-.77,1.19-1.36.96-2.87-1.14-2.8-3.36-4.51-4.79-7.01.19-1.19,1.12-1.65,1.6-2.55,1.36.02,2.24.53,3.83.32,2.23.04,4.22-1.67,6.4-.64,1,1.04.6,3.27,0,4.46ZM43.47,34.13c.89-.57.89-2.93,0-3.51-1.58-.5-2.99.18-3.19,1.91.44,1.42,1.65,2.1,3.19,1.59ZM48.59,36.68c.46-.71.8-1.54.64-2.87-1.9-1.26-3.6,1.14-2.56,2.87h1.92ZM57.22,35.09c0,.32-.26.38-.32.64.41.02.44.41.96.32.02-.55-.24-.82-.64-.96ZM39.64,39.87c.53-2.02-1.67-1.86-1.6-.32.38.27.86.42,1.6.32ZM48.59,44.33c1.42-.34,2.31-2,1.6-3.51-1.46-1.28-4.13-.42-3.84,1.91.49.79,1.1,1.46,2.24,1.59ZM38.68,90.87c.09.09.48-.15.32-.32-.09-.09-.49.15-.32.32Z"/>
    </g>
  </g>
</svg>