<?xml version="1.0" encoding="UTF-8"?>
<svg id="Layer_2" data-name="Layer 2" xmlns="http://www.w3.org/2000/svg" viewBox="0 0 102.29 87.91">
  <defs>
    <style>
      .cls-1 {
        fill-rule: evenodd;
      }
    </style>
  </defs>
  <g id="food_icons" data-name="food icons">
    <g id="jelly">
      <path class="cls-1" d="M75.47,1.62s.02.03.02.04c-.01-.02,0-.03-.02-.05,0,0,0,0,0,0ZM75.91,1.7c.08.14.13.27.18.4,0-.06-.05-.18-.18-.4ZM75.48,1.61s.04-.06.06-.08c-.08-.02-.08.02-.06.08ZM75.54,1.53c.07.01.18.06.37.17-.16-.19-.28-.24-.37-.17ZM28.36,9.48s-.02,0-.03,0c-.04.02-.07.06-.11.08.05-.03.1-.06.14-.08ZM23.1,10.77s.08.02.12.06c.02.26-.1.41-.37.44.49.03.46-.67.25-.49ZM73.7,8.23c-.64-.05-1.21-.09-1.63-.15-.26-.04,1.29.2,1.63.15ZM23.1,10.77s-.04,0-.06,0c-.04.09-.07.18-.11.27.06-.15.12-.23.17-.27ZM27.64,9.99c.22-.02.39-.07.53-.13-.15.08-.33.12-.53.13ZM73.54,8.06c-.46-.15-1.47-.25-1.46.01.78.11,1.22.08,1.46-.01ZM27.64,9.99c.18-.16.38-.3.58-.43-.15.09-.34.21-.58.43ZM28.17,9.86c.54-.21.59-.55.18-.37.07,0,.13,0,.21.02-.11.16-.24.27-.39.36ZM90.84,20.02c.06.08.21.12.1-.16-.08,0-.1.07-.1.16ZM30.66,82.49s0,0,0,0c.04.04.03.17-.14.17.19,0,.19-.14.14-.18ZM20.81,18.98s-.01-.02-.02-.03c.01.14.03.18.02.03ZM61.2,36.77c0-.16.05-.23.09-.25-.04-.02-.09.02-.09.25ZM78.42,24.81s-.03,0-.05,0c-.04.09-.04.12.05,0ZM30.64,82.49s-.09.04-.13.18c.04-.06.09-.11.14-.17,0,0,0-.01-.01-.01ZM25.06,80.88s.02-.04.02-.07c-.07-.21-.19-.26-.29-.22.14.02.27.16.27.29ZM20.64,18.88c-.03.05-.04.16-.03.35.21-.08.1-.44.03-.35ZM61.3,36.51c.05.03.07.19-.09.25.29-.11.19-.29.09-.25ZM89.42,35.38s0-.05.05-.07c0,0,.01,0,.02,0-.02-.03-.04-.06-.07-.09-.09-.02-.11.02,0,.15ZM78.41,24.71s0,0,0,0c0,0,0,0,0,0,0,0,0,0,0,0ZM89.54,35.5c.15.14.39.34.76.63-.22-.16-.4-.34-.57-.52-.08-.04-.14-.07-.19-.11ZM89.73,35.61c.22.11.51.22.79.33-.03-.06-.09-.13-.17-.2-.16-.13-.38-.26-.57-.36-.12-.05-.22-.07-.29-.06.08.1.15.2.24.29ZM90.3,36.13c.29.02.34-.06.27-.18-.02,0-.03-.01-.04-.02.06.12.03.21-.22.19ZM78.42,24.8s0,0,0,0c0,0,0,0,0,0,0,0,0,0,0,0ZM102.18,71.29c-.47-10.99-2.22-22.5-4.58-33.25-.57-2.61.78-3.65.94-6.08.14-2.22-.98-4.66-1.26-6.86-.23-1.87-.82-5.45-2.41-6.5-1.59-1.05-3.43-1.47-5.26-1.91-4.51-1.08-1.67-4.77-3.94-7.61-1.49-1.87-3.3-2.1-5.59-2.43-.98-.14-2.21-.67-3.21-.49-.36-.76-1.11-1.18-1.92-1.28.68-.84,1.5-1.7,1.14-2.79.01.2-.46-.21-.59-.44.09.21.36.5.57.56-.49-.14-1.84-1.26-2.87-1.47-1.35-.28-2.74-.39-4.12-.51-3.22-.27-6.26-.34-9.48-.04-7.33.7-14.22,3.32-21.61,3.59-4.21.16-15.46,0-17.09,5.21-.51,1.62.81,5.96-1.58,6.38-3.05.54-4.31,3.16-5.44,5.74-2.02,4.59-2.23,9.22-3.73,13.87-1.17,3.61-2.51,7.2-3.86,10.75-1.2,3.19-1.45,6.32-2.01,9.65-.35,2.02-.73,4.04-.98,6.07-.14,1.16.1,3.08-.56,3.97-1.02,1.36-1.04,3.67-1.13,5.29-.07,1.28.14,2.57,0,3.84-.14,1.25-1.34,1.44-1.54,2.58-.31,1.89.7,4.56,2.05,5.89,2.51,2.46,10.81,2.95,13.71,1.09.79-.51,1.53-1.15,2.39-1.54,1.29-.57.66.28,1.55.83,1.27.79,2.87.6,4.19,1.36,3.3,1.89,9.1,3.01,12.71,1.67,1.14-.43,2.96-1.31,4.2-.85,1.19.45,1.87,1.49,3.3,1.81,3.61.78,8.16.64,11.71-.24,2.12-.53,3.3-1.94,5.09-2.87,1.14-.59,2.5,1.41,3.86,1.87,3.38,1.13,7.27.62,10.77.8,2.1.11,3.92-.02,5.77-1.07,1.23-.7,1.43-1.13,2.64-.43.88.51,1.9.74,2.89.91,4.59.78,9.6-.82,12.91-4.1,2.93-2.91,2.52-7.2,2.36-10.97ZM90.93,19.87c2.77-.23,3.39,5.22,3.2,7.33-1.45-.28-.69-2.32-1.42-3.19-.62-.74-1.32-2.96-1.78-4.15.4,1.01-.07.46-.1.16-.05-.06-.05-.14.1-.16ZM28.33,9.48c1.73-1.05,4.2-1.06,6.03-.45-.55.97-1.78.33-2.59.26-1.42-.12-2.74.54-4.13.69.19-.33.42-.49.69-.51ZM27,9.99c.16.17-.23.41-.32.32-.17-.16.23-.41.32-.32ZM23.04,10.77c.43-.99,1.16-1.77,2.37-1.74-.3.77-.79,1.35-.64,2.23-.68-.04-1,.28-.96.96-.77.1-.29-.92-.96-.96.02-.31.08-.47.19-.49ZM26.28,14.56c-.39-2.47,4.13-2,6.07-2.27,1.21-.17,3.25-.2,4.22-1.04.67-.58.02-.99-.62-.94,1.45-1.48,3.72-1.48,5.6-2.13,2.36-.81,4.86-1.19,7.34-1.39,3.22-.26,6.47-.23,9.71-.31,1.57-.03,13.45-.81,13.47,1.59-.02-1.77,2.41-.38,1.46-.01.14.04.23.09.23.14,0,.02-.03.02-.07.03,3.15.23,8.37.45,9.64,2.25.83,1.18,1.85,6.18.19,6.79-2.47.91-2.28,3.86-4.95,1.56-1.5-1.3-3.68-2.13-3.62.73-1.91-1.39-3.08-2.23-5.44-2.23-1.69,0-3.15.12-4.48,1.27-2.98,2.56-2.95,7.35-1.56,10.84.5,1.27,1.32,2.65,1.27,4.05-.04,1.09-.79,1.28-1.36.42-1.62-2.49-.42-4.52-1.26-7.09-.33-1.03-.87-.9-.95-2.04-.03-.36-.06-.98-.46-1.18-1.3-.62-1.5.78-2.4-.72-1.83-3.04-6.23-2.28-8.43-.2-5.66,5.35-2.6,14.99-4.66,21.75-1.67-.87-.64-4.92-.64-6.38,0-2.99.4-5.28-.44-8.2-.81-2.79.45-6.34-.92-8.92-1.34-2.52-4.12-3.56-6.76-3.15-5.75.89-7.55,6.36-7.14,11.46.13,1.57,1.25,9.78-2,9.13.48-2.95.71-5.7.87-8.67.13-2.35.26-3-1.19-4.63-1-1.13-.27-3.88.16-5.11.52-1.5-1.89-.36-1.43-2.3-.64.04-1.06.36-1.28.96-.73-.21.17-1.16.13-1.56-.11-.96-2.03.94-2.19-.13-.36-2.45,4.11-1.02,3.9-2.34ZM78.15,24.46c.04-.12.21.1.26.25.19-.36.71-1.18.7-1.02.37.58.21,5.64.16,5.63-.54-.11-.46-4.06-1.12-4.68-.01-.09,0-.14,0-.18,0,.03-.01.09,0,.18.11.1.17.14.21.15.01-.02.03-.06.05-.09-.05-.14-.21-.37-.26-.25ZM62.8,36.45c.06.71-1.28.2-1.6.32v-1.59c.72.21.87,1.06,1.6,1.28ZM20.64,18.88c.03-.06.08-.03.15.08-.04-.33-.08-1.25.14-1.63,1.04-.01.25,1.6,1.28,1.59.06.71-1.29.2-1.6.32-.01-.22,0-.32.03-.35ZM28.28,82.03c-1.27.06-2.35-.66-3.55-.9.14,0,.24-.05.29-.15-.07.09-.24.14-.58.1.01-.2.18-.44.34-.49-.11-.02-.22.04-.29.22.23-.86,1.17-1.34,1.23-2.28,1.36.36-.69,2.5,1.48,2.22,2.46-.32.38-.36,1.08,1.29ZM31.48,82.67h-.96c.04-.16.09-.2.13-.18,0,0,.01,0,.02,0,.47-.57,1.1-1.09.82.18ZM42.03,82.35c.21-.96.68.3,1.28,0-.05.79-1.09.09-1.28,0ZM80.99,81.93c-1.28,1.53-3.68.51-5.4.74.94-2.16-1.14-2.99-2.78-1.82-1.12.8-.54,1.62-1.79,1.73-.89.07-1.27.98-2.15,1.05.14-1.14-1.66-1.2-1.67-2.2,0-.94,2.24-2.9,2.61-4.06.64-2-.6-2.38-1.72-.78-.62.9-.91,1.96-1.46,2.9-1.04-.95,2.85-6.94,2.56-8.61-.29-.49-1.47-.93-1.26-1.66.09-.3,1.27-1.77.19-1.73-.9.03-1.12,1.62-2.13,1.47.05-3.69-.26-7.4-.68-11.05-.18-1.54,2.83-3.28.67-3.98-1.37-.44-2.34-.89-.85-1.98.62-.46,2.9-2.3.86-2.44.26-.98,2.17-1.58.97-2.72-1.32-1.26-3.05.43-3.82,1.46-.74,1-1.52,2.72-.03,3.49-.47,1.32-1.37.68-1.63,2.29-1.1,6.96-.86,14.37-.35,21.47.13,1.74-1.07,3.95-.26,5.58-1.63.33-2.45,1.57-4.11,1.76-1.94.22-6.7.71-8.18-1.22-.33-.43,2.11-3.79,2.17-4.61.15-2.12-3.45-.99-3.8.44.13-1.48,1.96-3.85,2.36-5.21.95-3.19-3.44,1.38-3.79,2.78-1.73-1.27,1.24-5.9,1.29-7.53.04-1.19-1.55-1.52-1.02-2.59.43-.85,2.54-2.07,1.97-3.21-.33-.65-2.01-.32-1.67-1.32.26-.74,2.7-3.71,2.1-4.22-1.42-1.21-4.77-.28-4.88-2.57-.24-4.92-1.83-1.46-2.06,1.26-.41,4.91-1.16,9.79-1.59,14.7-.23,2.62-.42,5.25-.5,7.88-.04,1.28.47,3.91-.62,4.94-.81.77-2.32,1.08-3.33,1.37-1.25.36-1.62-.63-2.49-.42.29-.9,2.86-.92,2.32-2.32-.46-1.19-3.58-.92-3.48.26-.13-1.5,2.77-4.9-.76-4.32.29-3.26-3.6-2.56-4-.62.1-.69.35-1.62-.3-1.93-1.01-.47-2.33,1.43-2.98.98-.56-.38,1.13-3.9,1.66-3.8-.55-.11-1.37,1.59-1.53.27-.13-1.03.08-2.22.41-3.2.33-.95,1.54-1.18,1.62-2.23.06-.71-1.29-.2-1.6-.32.64-1.48,2.85-1.73,3.2-3.39.16-.75-1.62-.07-1.92-.11,0-3.91,2.28-1.52,4.03-3.97,1.21-1.68-4.79-1.89-4.67-2.73,1.34,0,3.02.4,4.03-.76.75-.86.35-2.03-.83-2.11.25-.77,3.81-2.19.23-2.32-3.15-.11-3.26,3.13-5.21,3.99-1.92.85-2.62,3.65-2.82,5.34-.35,3.01-1.57,5.78-1.54,8.84.03,3.35.36,6.98-.86,10.2-.43,1.12-1.28,2.26-2.61,1.6-1.24-.62.34-.96.02-1.83-.04-.87-1.17-.49-1.6-.96,1.05-1.83,1.65-3.34-.71-4.17-2.04-.73-2.98,1.48-4.09,1.94,0-.16,0-.31,0-.47,0,0,0-.01,0-.02-.06-.02-.27.46-.11.5-.19-.04.02-.59.11-.5,0,0,0,0,0,0,0,0,0,.01,0,.02.03.05.03.19,0,.47.21-1.55,2-2.79,1.17-4.46-.48-.97-.09-2.64.43-3.51-1.54-.23-2.46.69-3.2,1.91-.57-.21,2.55-15.82,2.56-16.58,1.25.34,4.59-.19,5.09-1.61.81-2.28-3.07-1.55-3.87-1.78-.58-.16-.78-.88.01-.94.32.38.72.59,1.21.62,1.23.05,2.8-.09,3.83-.86,2.72-2.02-3.43-1.61-4.05-1.48v-1.91c1.13.63,2.71.86,3.96.49.4-.12,2.2-1.3,1.15-1.77-1.41-.63-3.05.45-4.48.32.12-1.24.46-3.29,1.66-3.99,1.32-.77,3.16.5,4.41-.85,1.9-2.04-2.84-1.71-3.82-1.54-.15-.47,5.11-1.05,5.68-1.32,1.58-.74-.04-2.17-1.13-2.37-1.19-.22-2.41.03-3.6.18-.02-2.15,1.65-2.48,3.28-3.21,2.48-1.11-.1-2.71-1.68-2.53.58-1.27,2.38-8.43,4.77-6.12,3.9,3.78.4,10.34,1.74,14.92,1.17,4.02,5.77,6.4,7.79,1.41,1.56-3.85.52-8.37.85-12.4.19-2.21,1.03-4.37,3.19-5.12,1.58-.55,5.03-.78,4.69,1.92-.29,2.28-1.02,4.31-1.18,6.67-.16,2.27-.34,4.54-.41,6.82-.1,3.27-.14,7.08,1.59,9.99,1.52,2.55,5.59,3.96,7.58,1.14,4.32-6.13-3.11-21.83,6.47-24.02,2.85.4,1.94,3.14,1.84,4.92-.1,1.89.78,3.45.64,5.32-.24,3.2-.23,5.95,3.19,7.15,1.21.42,2.83.71,4,.01,1.22-.73.76-2.16,1.69-3.08,2.84-2.81,1.37-7.08.34-10.35-1.2-3.81.29-9.8,5.49-6.66,3.35,2.04,3.87,5.86,4.56,9.38,2.11,10.79,1.35,22.04,2.22,32.98.42,5.28,1.37,10.55,1.62,15.82.07,1.41,1.89,1.57.92,2.74ZM81.99,72.79c-.17-.16.23-.41.32-.32.16.16-.23.41-.32.32ZM82.31,75.02c.14-.46.28.03.64,0-.07.4-.63.32-.64,0ZM98.71,77.99c-1.41,3.87-6.79,6.07-10.65,5.64,0-.92,1.03-1.29.96-2.23-.55-.05-2.49,1.58-2.83,1.19-1.22-1.39,5.37-4.68,1.95-6.53-1.4-.76-3.28,1.95-3.74,2.91-.71,1.51.92,1.29.79,2.43-2.05-.38-2.56-3.3-2.56-5.42,3.08.47,3.48-2.37,3.6-4.57.09-1.82-1.9-1.45-1.43-2.99.37-1.21,2.41-7.54-.89-5.82.16-1.7-.68-4.37-2.56-2.23-1.36-1.02-.25-3.15-.96-4.46v-6.69c7.41,1.45,2.26-19.8,2.16-22.6-.06-1.63-.08-4.31,1.59-5.28,1.62-.94,3.68,1.31,4.25,2.62,1.4,3.28-1.23,8.24,1.04,11.29.08.01.21.06.36.14.19.08.41.22.57.36.1.08.17.15.21.22.45.17.85.3.77.29,1.03.14,2.07.33,3.11.21.52,3.07.98,6.15,1.41,9.23.87,6.28,1.6,12.57,2.38,18.85.53,4.23,1.98,9.3.47,13.46ZM52.26,10.31c-.15-.03-.25-.02-.31,0,0,0,.01.01.02.02.08-.03.17-.04.3-.03ZM52.11,10.55s-.04.08-.06.13c.07-.02.08-.06.06-.13ZM46.13,15.08c1.72.98,2.37-.25,3.69.32,4.15,1.8,1.61-2.88,2.23-4.72-.05.01-.14.01-.27-.02-.01-.13.02-.23.09-.29-.04.08.04.15.18.09-.03-.04-.06-.08-.1-.13-.02,0-.05.01-.07.03.01-.02.03-.03.06-.05-.37-.41-1.2-1.03-1.31-1.13-.56-.49-1.12-.48-1.76-.08-1.02.64-1.63,1.71-2.05,2.8-.19.65.42.96.32,1.59-1.99-1.55-3.15.38-1.01,1.58ZM52.11,10.55c.04-.09.08-.18.15-.25-.08.09-.14.13-.2.15.02.03.04.06.05.09ZM62.12,15.5c1.34.11,1.91-.47,3.21-.08.76.23,1.54-.72,1.32-1.43-.3-.99-2.84-.68-2.88-.81.34-.69.83-1.07.64-1.91.04.18.02.27-.02.34,0,.15-.09.25-.28.1-.03-.04-.05-.08-.07-.11-.05-.06-.06-.12-.02-.18-.03.05-.01.11.02.18.09.11.27.15.34.01,0-.1-.04-.22-.12-.31-.04,0-.1.02-.13.03.03-.01.08-.02.13-.03-.04-.04-.08-.08-.13-.11-.31-.18-.61-.37-.9-.58-.44-.3-1.86-1.42-2.34-.61-1.42,1.33-1.16,5.33,1.23,5.51ZM64.4,11.26c-.06,0-.1.02-.14.03,0,0,0,0,0,0,.05-.01.08-.03.14-.03ZM64.08,45.05c.84.09,1.37-.12,1.28-.96-.61.13-1.38.12-1.28.96ZM25.72,49.2c.9.42,4.13.84,4.16-.64-.39-2.01-4.19-1.34-4.16.64ZM11.02,58.76c.07,2.15,4.33,2.06,4.8.32-.79-1.12-3.68-1.34-4.8-.32ZM10.7,70.56c1.66.06,3.19,0,2.88-1.91-1.78-.18-2.89.3-2.88,1.91ZM73.03,76.93c.03.3.03.61,0,.91,0,.02.01.04.01.06.04-.03.06-.28-.02-.97ZM73,78.05s.04.05.06.06c.02,0,.01-.08-.01-.2,0,0-.01,0-.02,0,0,.05-.02.1-.02.15ZM73.03,77.9s0-.03,0-.05c-.03-.13-.08-.29-.15-.46.02.23.09.47.14.51ZM71.27,76.64c-.94.61-1.72,2.11-1.96,3.16-.46,1.99,2.09,1.27,2.87.31.47-.58.73-1.31.83-2.06-.07-.12-.12-.41-.12-.67-.26-.6-.78-1.28-1.61-.74ZM73.03,76.93c-.14-.02-.17.18-.15.41,0-.24.04-.43.15-.41ZM72.88,77.34s0,.02,0,.03c0,0,0,0,0,.01,0-.01,0-.03,0-.04ZM50.65,82.1c.26,0,.4-.02.46-.07-.05,0-.1.01-.15.02-.1.03-.21.05-.31.05ZM50.65,82.1c-.16,0-.36-.02-.63-.07.21.07.43.08.63.07ZM50.97,82.05s.09,0,.13-.02c.08-.06-.1-.25-.33-.38-.3-.13-.69-.15-.75.17,0-.02,0-.06,0-.08-.01.11-.02.21,0,.3.31.05.63.05.95.02ZM50.03,81.68c.09-.3.46-.21.74-.04.26.11.45.29.34.39,1.65-.27,3.1-1.7,2.43-3.5-1.14,0-3.32,1.86-3.51,3.16Z"/>
    </g>
  </g>
</svg>