<?xml version="1.0" encoding="UTF-8"?>
<svg id="Layer_2" data-name="Layer 2" xmlns="http://www.w3.org/2000/svg" viewBox="0 0 126 113.32">
  <defs>
    <style>
      .cls-1 {
        fill-rule: evenodd;
      }
    </style>
  </defs>
  <g id="food_icons" data-name="food icons">
    <g id="knife_spatula" data-name="knife&amp;amp;spatula">
      <path class="cls-1" d="M56.58,32.67c.02.17.04.32.04.4.02-.81-.02-.66-.04-.4ZM44.6,58.79c1.5-.07,4.15.29,5.23-.85.42-.43.85-1.78,1.49-1.91,1.9,3.31,4.69,7.43,7.72,9.78,3.53,2.74,3.26-1.53,2.81-3.06-.16-.15-.27-.32-.27-.51.07-.01.17.19.27.51.39.38,1.11.67,1.52.97.95.69,1.68-.05,2.26.07-.22-.05-.02-.35,0-.17.29-2.97-4.97-6.93-6.37-9.05-1.65-2.49-7.45-5.83-3.9-9.07.1.82-.94,2.15,0,2.79,1.24-3.16,2.23-6.42,3.09-9.71.45-1.7.87-3.41,1.27-5.13.04-.17.42-2.93-.94-1.61.21-.72-.42-.88-.31-1.55.95.58,3.59,2.38,3.62,0,.02-1.5-1.34-2.55-2.37-3.41-1.82-2.71-4.74-4.95-6.92-7.37-5.27-5.88-10.75-11.72-16.44-17.21-1.12-1.08-2.19-.57-3.32-1.64-1.27-1.2-1.91-.52-3.19.29-2.63,1.68-4.19,4-6.68,5.61-5.99,3.89-11.23,8.81-16.4,13.69-2.59,2.44-5.39,5.46-6.78,8.79,1.24,2.85,3.74,5.19,5.61,7.62,2.25,2.92,4.7,5.87,7.22,8.57,1.61,1.72,4.5,4.3,5.52,6.46,2.36,1.77,4.43,4.24,7.47,4.65,1.74,1.9,5.97,2.21,8.36,2.61,3.32.55,7.06-.01,10.43-.16ZM33.28,2.67c-.07.55-.54.71-1.24.62.08-.55.53-.71,1.24-.62ZM24.57,49.82c-1.07-2.17-3.82-4.83-5.61-6.41-2.83-2.5-5.45-5.06-8.04-7.8-1.43-1.5-7.51-6.36-6.47-8.18,1.3-2.27,3.88-3.88,5.58-5.8,1.25-1.41,2.78-2.54,4.11-3.87.86-.86,1.74-.52,2.33-1.14.82-.3.37-.79.53-1.38.36-.5.81-.89,1.36-1.2,1.25-.96,2.48-1.97,3.65-3.03,1.29-1.16,1.96-2.81,3.49-1.84,1.36-1.12,2.72-2.25,4.05-3.41,1.25-.17,2.55-.44,3.65-1.07,1.5-.85.95-.02,1.94.76,1.91.56,4.16,4.28,5.48,5.71,2.24,2.43,4.47,4.87,6.56,7.42,3.19,3.89,6.86,8.54,10.98,11.39-.59.7-1.37.59-1.27,1.76.02.28.31,1.31-.28,1.35.16,2.16-.67,4.09-.93,6.2-.88-.71.59-6.2.93-6.2-.04,0-.05-.23-.04-.4-.16-1.14-.85-3.7-1.56-1.73-.63,1.74-.4,3.8-.89,5.63-.27,1-.83,2-1.45,2.82-.85,1.13-.72,1.56-.9,2.96-.22,1.77-.53,3.51-.46,5.3-.45-.17-.76-.49-.93-.93-.62.81-.44,2.37-1.56,2.79-.06.94.93,1.26.93,2.17-.79-.12-.7.89-1.21.96-.43-.04-.85-.05-1.28-.03-1.73-.12-3.47-.18-5.21-.21-3.87-.05-7.73.11-11.59.21-2.31.02-3.84-2-5.91-2.79ZM33.38,99.68c-.05.12-.08.25-.1.4.08.36.12-.2.1-.4ZM37.95,98.53c.38.03.17-.25,0,0h0ZM121.94,8.88c-.02.15-.07.27-.09.42.01.05.04-.03.09-.42ZM125.88,2.37c-.47-3.85-4.93,2.31-5.89,3.31-5.69,5.94-11.01,12.34-16.63,18.47-6.53,7.13-13.2,14.13-20,21-3.33,3.37-6.59,6.78-9.8,10.27-1.73,1.88-3.47,3.77-5.24,5.62-.41.43-2.55,3.15-2.99,3.05.26.06-.82,1.88,0,0-1.23,2.83-4.27,4.21-6.53,5.94-1.91,1.46-3.54,3.26-5.48,4.6-4.99,3.44-9.52,7.99-14.11,12.11-2.03,2.85-4.55,5.29-6.71,8.03-1.39,1.78-3.64,2.89-4.85,4.71-1.49,2.25.33,4.55,1.48,6.45,1.48,2.44,3.72,3.45,6,5.19,5.26,4.03,8.6-.88,12.56-4.21,2.18-1.83,3.78-4.35,5.52-6.62,1.69-2.21,4.84-2.67,6.45-5.16,2.85-4.4,5.63-8.55,9.1-12.43.39-1.23-2.45-3.32-.21-3.7.95-.16,5.77-.59,6.43.28-.98.31-1.48.74-2.44.36-.75-.3-.04,1.68-.02,1.89.19,1.7,1.03,3.32,2.18,4.62,1.23,1.39,2.52,3.33,3.37,5.01.71,1.38,1.02,1.73,2.03,2.86.6.67,1.04,1.45,1.52,2.2,2.72,4.18,6.48,8.39,10.2,11.75,3.18,2.88,6.55,6.37,11.12,5.04,2.05-.6,3.62-2.01,4.56-3.89,1.04-2.08.8-3.41.64-5.6-.13-1.73.05-2.22-1.14-3.66-.68-.82-1.42-1.58-2.18-2.32-1.68-1.64-3.27-3.85-5.19-5.12-4.06-2.7-7.94-5.4-12.18-7.82-2.03-1.16-4.24-2.07-6.18-3.32-.57-.36-3.03-1.15-3.19-1.79,0,.04,5.59-.41,6.21-.53.56-.46.59-1.32.86-1.94.35-.78,1.09-.68,1.65-1.27,2.27-2.42,5.06-4.27,7.55-6.51,6.01-5.4,9.88-12.17,15.45-17.89,2.88-2.93,5.12-6.12,7.01-9.76,1.71-3.29,2.65-6.67,4.12-10.04.93-2.13,1.93-6.59,1.98-8.86.05-2.31,1.35-4.86,1.62-7.25.51-4.37,1.88-8.66,1.34-13.1ZM84.92,91.7c.06-.35.31-.17.31,0-.06.35-.31.17-.31,0ZM85.86,92.95c.03.37-.45.19,0,0-.3-1.29.93-.06,0,0ZM88.03,96.05c-.97-.56-.17-.95-.31-2.17,1.31.47.57,1.06.31,2.17ZM90.52,97.29c.06-.35.32-.17.31,0-.06.35-.31.17-.31,0ZM92.08,101.01c-.84-.56.18-1.87.31-2.48.68.4-.37,1.67-.31,2.48ZM95.5,104.73c-.26-.09-.42-.19-.52-.27-1.21-.85-1.17-2.74-1.04-4.07,2.17.61,1.56,2.55,1.56,4.34ZM97.99,107.52c-.7-.33-.12-1.95-.31-2.79.83.72.5,1.67.31,2.79ZM101.72,109.08c-.24.57-.33-.18-.31-.62.24-.56.33.19.31.62ZM80.88,83.64c1.32-.28,5.87,3.53,7.08,4.42,2.42,1.78,4.83,3.54,7.31,5.24,2.62,1.79,4.92,4,7.06,6.33,1.07,1.17,2.1,2.36,3.13,3.56-.56,1.05-.52,2.31-.93,3.41-1.01-1.14-2.33-2.72-2.5-4.1-.08-.67-1.24-3.39-1.86-1.48-.43-.53-3.87-6.49-4.04-2.79-.86-.52-3.21-5.28-3.65-4.88-.47.43-.24,1.69-1.34,1.02-.64-.4-1.16-1.13-1.79-1.58-1.77-1.26-3.7-3.17-4.65-4.88-.34-.6-2.86-2.47-3.81-3.02v-1.24ZM79.95,83.33c-.06.35-.31.18-.31,0,.06-.35.31-.17.31,0ZM34.22,101.32c-.81.09-.81-.7-.94-1.24.06-.51.09-.53.1-.4.35-.88,1.42-1.17,1.77-2.08,1.86.61-.96,3.36-.93,3.72ZM38.89,102.56c-2.82-.38.93-3.86-.94-4.03.21-.27.32-.58.31-.93,1.89,1.36-.33,3.17.63,4.96ZM42.93,100.7c-.16-.16.22-.39.31-.31.16.16-.22.4-.31.31ZM52.26,94.19c.07-.39.62-.31.62,0-.13.45-.27-.03-.62,0ZM62.23,78.19c-.76.87-2.39,2.73-2.19,3.9-1.84-.44-2.19,1.91-1.56,1.86-.59.58-1.26.91-1.25,1.86-3.27-.7-1.24.49-1.25,2.17-1.37-.85-1.38,1-2.49,1.24-.15-.89-.52-1.69-.93-2.48-2.1.82-1.77,3.07-2.18,4.96-.8-.94-.4-2.47-1.31-3.35-1.62-1.58-1.68.83-1.87,1.69-.16.74-.01,4.66-1.27,4.08-1.6-.73-.94,1.45-1.47,2.24-.7-.52-.76-2.07-1.9-1.28-.61.43-.81,1.21-.9,1.9-.79-1.52-1.51.58-1.55,1.24-4.06-1.18.27-4.89,1.74-6.12,2.35-1.98,4.6-4.1,5.48-7.14.91-3.16,4.99-4.54,7.27-6.69,2.03-1.92,4.42-4.24,6.97-5.5-2.15,1.06.11-.41,0,0,.68-2.51,2.42,1.24,2.97,1.94,2.29,2.91-.84,1.76-2.34,3.47ZM122.38,11.67c-.42,1.76-.59,3.65-1.02,5.31-.94,3.65-1.83,8.14-1.92,12.01-.11,4.33-3.16,9.09-5.54,12.5-2.98,4.26-6.06,8.19-9.6,12.01-1.95,2.1-3.79,4.3-5.57,6.55-1.72,2.17-3.23,4.89-5.37,6.65-3.33,2.76-6.11,5.85-9.42,8.57-1.07.89-5.14.12-6.52-.31-1.28-.4-2.65-.13-3.97-.59-1.22-.42-1.84-.45-3.07.04-1.16.46-1.54-.79-2.19-1.62-.92-1.17-1.77-3.11-3.5-3.12.51-.88,2.72-1.64,3.6-2.21,1.45-.94,2.85-1.96,4.15-3.1,3.05-2.69,6.26-5.1,9.19-7.99,5.66-5.58,12.1-11.45,16.53-18.09,1.1-1.64,1.82-2.95,3.18-4.36,1.19-1.25,2.45-2.39,3.67-3.6,2.15-2.15,4.15-4.02,6.1-6.31,2.12-2.48,3.73-5.34,5.77-7.79,2-2.39,4.34-3.77,4.97-6.95-.02-.1.03-.75.09-.42-.09-.52.68-1.51.93-.62.01,1.17-.22,2.29-.49,3.42ZM80.88,84.88c1.31.76,0-.42,0,0h0ZM94.98,104.46c.15.11.32.2.52.27,0-.94-.98-.68-.52-.27ZM48.24,25.48c.24.55.45,1.12.6,1.7-.37-1.41-.54-1.79-.6-1.7ZM30.8,14.15c.73,1.87,3.76,3.87,5.2,5.32,1.69,1.71,2.73,3.81,4.37,5.58,1.14,1.23,2.73,4.59,4.11,4.62,1.92.04,3.39-.87,4.35-2.49-.34.56-.72-1.53-.6-1.7-1.57-3.56-4.83-6.43-7.23-9.37-2.26-2.76-5.56-8.41-9.73-5.69-.71.47-1.46,2.02-.08,2.17.74.08,1.37-.47,2-.74,1.67-.72,4.09,3.31,4.95,4.47,1.4,1.89,2.89,3.7,4.46,5.46.92,1.04,2.91,2.85,3.04,4.32.2,2.14-3.67-1.28-3.89-1.49-1.64-1.57-2.3-4.07-4-5.56-1.59-1.39-3.64-3.14-4.79-4.9-.78-.13-1.64-1.62-2.49-.93-.6-.09.07.9.31.93ZM41.68,33.07c0,.1-.03.22-.08.35.06,0,.09-.09.08-.35ZM41.6,33.43c-.22,0-.76-1.47-.38-1.05-2.95-4.58-7.71-7.69-11.67-11.34-1.67-1.54-4.27-4.19-6.75-3.3-.91.33-1.54,1.04-2.3,1.61-.96.72.07,2.46.65,3.48,2.18,1.5,4.07,3.75,6.06,5.53,2.25,2.02,4.36,4.1,6.45,6.27,1.77,1.83,3.43,3.72,5.61,1.46.47-.49,1.96-1.82,2.32-2.68ZM37.64,34c-.58.57-2.49-1.34-2.95-1.82-1.66-1.72-3.76-3.33-5.14-5.31-1.76-.75-2.63-2.63-4.36-3.41-.36-.77-3.84-3.2-3.11-4.03.81.2.74-.82,1.55-.62.94.19,1.75.69,2.45,1.33,3.03,2.77,6.88,5.74,9.35,9.08.02.01.12.13.34.45.66,1.3,3.27,2.68,1.87,4.34ZM41.22,32.38c.15.23.32.45.46.7-.22-.38-.37-.59-.46-.7ZM35.77,29.66c-.1-.15-.23-.3-.34-.45-.09-.04.91,1.56.34.45ZM32.42,42.06c-.8-2.28-2.98-3.88-4.7-5.38-1.15-1-2.09-2.24-3.45-2.98-.44-1.37-1.3-2.51-2.18-3.61-1.37-1.71-3.26-4.28-5.38-5.14-2.66-1.08-4.44,1.56-4.88,3.79-.58.05,3.44,5.18,3.86,5.61,2.11,2.11,3.61,4.73,5.85,6.74,1.76,1.57,4.5,5.22,7.22,4.73.89-.16,1.36-.81,2.35-.63.86-.44.83-1.6,1.55-2.17-.54.42-.48-1.29-.24-.94ZM25.77,41.85c-2.78-2.39-6.05-5.28-8.13-8.37-.81-1.2-2.12-3.13-3.4-3.81-1.28-.67.41-4.11,2.44-1.87,1.1,1.22,2.28,2.36,3.54,3.41.47,1.06.99,2.09,1.58,3.08,1.19,2,2.88,3.23,4.64,4.68.93,1.62,2.89,2.29,3.11,4.34-1.66.73-2.64-.48-3.78-1.46ZM26.44,38.97c-1.42-1.17.91,1.58,0,0h0ZM32.66,43c-.09-.56-.18-.84-.24-.94.11.3.19.61.24.94Z"/>
    </g>
  </g>
</svg>