<?xml version="1.0" encoding="UTF-8"?>
<svg id="Layer_2" data-name="Layer 2" xmlns="http://www.w3.org/2000/svg" viewBox="0 0 118.82 109.4">
  <defs>
    <style>
      .cls-1 {
        fill-rule: evenodd;
      }
    </style>
  </defs>
  <g id="food_icons" data-name="food icons">
    <g id="knifes">
      <path class="cls-1" d="M68.73,5.1s0,0,0,0c0,0,0,0,0,0h0ZM18.87,52.28c.95,0,.93-1.19,0,0h0ZM72.89,0c.11.52.15,1.06.15,1.61.09,0,.1-.39-.15-1.61ZM12.68,75.32c1.13-.42,2.68-.8,3.17-1.93.47-1.08.69-1.62,1.41-2.47.96-1.11,1.58-2.42,2.71-3.32,2.52-2.03,4.4-4.66,5.94-7.58.53-1.01,1.59-3.73,2.49-4.35,1.04-.72,1.52-1.8.87-2.94-.63-1.1.51-2.81,1.67-1.83.76.64,1.63,3.32,1.66,4.24,1.1,2.12,2.23,4.63,2.24,7.01.44,2.09,2.47,1.57,3.82.73,3.01-1.89,5.64-5.88,7.66-8.69,6.17-8.61,11.68-17.22,16.76-26.53,2.56-4.7,5.33-9.25,6.65-14.47.88-3.48,3.29-7.8,3.31-11.59-.18,0-.65-1.53-.15-1.61-1.91.32-1.43-.49-3.2,1.29-1.61,1.63-3.25,3.22-4.91,4.8-3.22,3.07-6.6,5.95-9.79,9.04-3.35,3.25-6.11,7.03-9.58,10.13-3.15,2.82-6.22,5.72-9.34,8.59-4.06,3.73-8.2,7.39-12.65,10.66-1.48,1.08-3.06.77-4.26,2.28-1.37,1.72-3.05,3.17-4.46,4.85-4.44,6.28-10.52,11.28-14.58,17.58-.7,1.1,1.68,2.37,2.11,3.14-.05,1.91,1.14,2.85,2.49,3.65.37.22,3.26.62,3.91.49.77,0,1.18-.46,1.71-.92.77-.67,1.37.09,2.33-.26ZM24.59,45.88c.69-.75,2.06-.88,2.59-1.89,2.24-1.88,4.6-3.52,6.68-5.54,5.98-5.8,12.81-10.67,18.35-16.99,2.68-3.06,5.59-5.66,8.54-8.4,2.65-2.47,4.95-5.96,7.99-7.97-.08.06-.21.14,0,0,.08-.05.05-.03,0,0-.01.01-1.32,5.53-1.57,6.4-.75,2.6-1.25,4.9-2.58,7.27-2.49,4.44-4.73,8.98-7.29,13.38-1.56,2.68-2.32,4.62-4.9,6.46-1.93,1.37-3.26,3.64-4.77,5.47-3.15,3.81-6.52,7.45-10.2,10.75-1.66-1.93-2.16-5.33-3.51-7.5-1.08-1.74-4.96.25-6.12,1.09-1.03.74-4.16-1.47-3.19-2.54ZM21.74,48.77c2.22,1.15,1.45,2.43,2.59,4.41,1.1,1.9.21,2.85-.67,4.52-.8.51-.86,1.72-1.92,1.91-.52-.8-.83-1.72-1.02-2.65-.29-1.43.4-4.68-1.86-4.69.93-1.19,2.07-2.21,2.88-3.51ZM16.31,54.83c.67.31.39,3.36.6,4.05.34,1.16,2.35,3.61,1.73,4.64-.39.64-1.95,2.01-2.6,1.64-.86-.49-1.15-1.07-2.28-.78-.1-1.28.7-4.49-.96-5.1,1.18-1.49,2.52-2.84,3.52-4.46ZM6.08,66.94c-.23-.87.64-.64.64-1.28.68.1.07,1.51-.64,1.28ZM12.79,59.29c1.48.54,1.18-1.49,0,0h0ZM97.82,42.71c.04.3.04.58,0,.82.06.07.08-.1,0-.82ZM115.41,67.9c-1.55-4.43-3.95-8.38-6.32-12.34-2.07-3.46-4.42-8.59-8.09-10.26-3.65-1.66-1.64,2.88-.93,4.43.78.78,1.72-1.15,2.96.26.47.53,1.9,2.48,2,3.1.05.27,1.31,2,1.56,2.15,1.6.98,2.84,4.52,3.39,6.29.69,1.93,2.19,3.35,3.2,5.1.73,2.34,1.6,3.85,1.6,6.38-.49.86-1.21,1.55-1.92,2.23.61.03.31,1.1.29,1.38-.18,2.17-4.38,3.75-6.09,4.62-2.41,1.23-4.85,2.42-7.3,3.56-.79.19-1.18-.32-1.92-.32-.74.64-1.62,1.1-2.42,1.65-.49.33-3.79,3.76-4.41,2.62-1.09-2.01-7.01,5.31-7.55,4.34.5-.89.93-1.83,1.27-2.79.1-.29.33-2.1-.53-1.03-.91,1.14-2.58,1.67-3.3,2.87,1.01,1.15.9.45.2,2.12-.45,1.06-.76,2.46-2.12,2.67.53-1.6,1.73-2.64,1.6-4.46-2.24.2-2.43,2.57-3.84,3.82.13-1.82-1.1-.32-1.92-.32.33-2.89-3.78,1.48-4.15,1.91-.84-4.04-2.39.75-3.51,1.27-.17-.9.11-2.83-1.28-2.87-1.15.22-.51,1.96-1.28,2.55-.72-1.66-1.76-3.16-2.56-4.78-.58-.93-.88.56-1.39.54-.23-.01-.24-5.49-.85-6.28-.08.59-.72,3.62-1.6,3.51-.19-.59.6-2.74-.64-2.55-.34,1,.07,2.85-.96,3.51-1.14-2.54-1.04-5.57-.96-8.29-1.44-.19-.84,1.63-1.92,1.91-1.18-2.18-1.72-7.52-4.36-8.24-1.23-.34-1.63-1.71-3-1.96-.56-.21-2.28.61-2.55,0,5.01-2.54,9.22-6.59,14.18-9.08,4.48-2.25,9.1-5.76,13.08-8.76,4.4-3.33,10.4-4.21,15.12-7.05,2.74-1.64,5.32-3.54,8.2-4.92,1.53-.73,3.24-1.14,3.45-2.84-.1-.12-.3-1.01-.1-.91-1.98-2.18-8.17,1.63-9.5,3.28-4.2,2.03-8.02,4.34-12.36,6.07-8.18,3.25-16.65,7.68-24.12,12.42-4.02,2.56-8.34,4.7-12.11,7.64-1.93-1.29-2.48-1.99-4.71-.62-1.73,1.06-3.3,2.38-5.12,3.31-1.88.96-3.88,1.76-5.82,2.61-1.61.7-3.25,1.98-4.98,2.28-1.44.25-3.07,1.28-4.57,1.92-1.42.62-3.2.29-4.52,1.02.85,1.75.54,3.7,1.51,5.38.9,1.56,1.69,3.18,2.62,4.71,1.89,3.1,4.35,5.09,7.83,2.8,5.65-3.71,11.95-6.4,17.6-10.24,1.39-.95,6.23-4.25,7.87-2.44,1.1,1.22,1.11,3.15,1.78,4.58.87,1.84,1.34,3.6,1.88,5.54.96,3.49,2.53,6.85,4.45,9.9,1.18,1.88,1.97,6.08,4.64,6.54,3.85.62,8.61-3.61,11.94-5.23,3.95-1.92,7.1-4.99,10.96-7,7.9-4.11,14.79-9.87,23.01-13.39,3.98-1.7,7.84-4.18,11.64-6.24,3.11-1.69-.85-7.71-2.25-9.58ZM19.82,90.85c.17-.49.33-.02.32.32-.17.49-.33.02-.32-.32ZM39.64,80.01c-2.63-2.44-5.06,1.09-6.07,3.51-1.49.06-3.03.18-4.06-.3-1.75-.82-1.16,1.83-1.58,1.94-.56.14-.84-.83-1.55-.14-.37.36-.38.97-.85,1.26-1.91,1.17.6-2.92.69-3.07-1.31-.75-2.54.56-3.35,1.42-.89.93-2.21-.44-2.08,1.77-.72-.64-.3-2.23-.28-3.04.04-1.31,1.01-1.29,2.17-1.81,2.24-1,4.5-1.94,6.72-2.99,2.48-1.18,4.93-2.51,7.05-4.27,1.01-.17,2.1,2.36,2.24,3.19-.17-1.03.25.28.11.17.46.68,1.54,1.54.85,2.38ZM75.13,99.46c-.17-.16.23-.41.32-.32.17.17-.23.41-.32.32ZM38.69,77.46c.05.1.09.15.11.17-.04-.06-.08-.11-.11-.17ZM91.17,52.91c-.62,1.18-.6,2.68.1,3.83.06.09,1.12.89,1.12.96,0-.18.63-.1.78-.03,3.64-.51,8.3-5.95,3.39-7.54-2.47-.8-4.28.62-5.39,2.78ZM93.17,57.66c-.27.04-.53.05-.78.03.76.06.89.02.78-.03ZM94.94,77.78c1.62.02,1.79-1.4,1.92-2.87-1.12-.76-2.9,1.44-1.92,2.87ZM84.08,75.23c-2.8,0-4.33,11.75-1.6,12.11,1.24-2.08,3.54-8.89,1.98-11.61-.22-.18-.53-.5-.38-.5ZM84.08,75.23c.15.15.27.31.38.5.24.2.36.24-.38-.5Z"/>
    </g>
  </g>
</svg>