<?xml version="1.0" encoding="UTF-8"?>
<svg id="Layer_2" data-name="Layer 2" xmlns="http://www.w3.org/2000/svg" viewBox="0 0 113.99 83.75">
  <defs>
    <style>
      .cls-1 {
        fill-rule: evenodd;
      }
    </style>
  </defs>
  <g id="food_icons" data-name="food icons">
    <g id="leg">
      <path class="cls-1" d="M98.79,56.01c1.12.05,0-.43,0,0h0ZM102.94,59.52c.26-.07.37-.12.4-.15-.13.05-.26.11-.4.15ZM98.79,52.82c1,.17,0-1.81,0,0h0ZM79.61,41.07c0,.1,0,.19,0,.28.02-.32.01-.35,0-.28ZM72.2,2.07s.02.07.05.07c0-.1-.03-.1-.05-.07ZM87.92,29.56c-.06.9,1.31-.03,0,0h0ZM77.02,5.54c.17.15.3.29.36.42-.15-.38-.29-.46-.36-.42ZM93.03,55.06c0-.96-.81-.79,0,0h0ZM113.89,41.8c-.84-7.08-5.13-12.05-9.01-17.84-1.91-2.84-4.22-6.01-6.48-8.52-1.36-1.5-2.25-2.66-3.9-3.89-1.65-1.23-3.2-2.58-4.62-4.07-2.43-2.53-5.43-4.33-8.35-6.3-.83-1.02-6.35-1.4-7.37-.72-.03.09-.08.18-.17.27-.02-.11.06-.2.17-.27.06-.18.02-.33-.17-.47-5.05.46-9.89,3.29-13.76,6.47-4.34,3.57-9.12,6.25-12.99,10.43-6.48,6.99-11.19,15-14.16,24.06-1.3,3.99-2.68,8.71-6.59,10.79-1.51.81-4.61,2.34-6.23,1.36-1.54-.94-2.76-1.98-4.44-2.75-2.25-1.02-4.79.01-7.19-.09-.33.41-3,2.08-3.52,2.23-1.61,1.1-3.42,1.05-4.26,3.08-.81,1.97-1.15,4.03-.57,6.11,1.06,3.8,3.17,7.81,7.54,8.51,2.35.38.92,2.34.81,4.17-.12,2.03,1.25,4.16,2.53,5.67,3.2,3.74,7.64,3.7,12.17,3.7.92-.52,1.85-1.01,2.88-1.27.82-.56,1.39-1.39,2.24-1.91.61-1.7,1.48-3.77,1.93-5.41.35-1.27,1.56-2.01,2.17-3.42.39-.91.91-.99,1.29-1.97.31-.81.82-1.52,1.45-2.1,1.48-1.37,2.35-1.48,4.2-1.14,1.02.19,1.19-.54,2.09-.81,1.12-.35,2.46.07,3.58.21,5.8.75,11.6,1.46,17.41,2.04,2.75.27,5.51.51,8.27.71,2.25.16,4.27-.54,6.52-.54,10.53,0,21.53-2.9,31.64-5.74-8.44,2.37.99-1.65.13-.17,2.15-2.62,2.95-7.13,3.46-10.34.57-3.59,1.74-6.3,1.29-10.07ZM28.86,72.79c-.78,1.14-1.56,2.3-2,3.62-1.92,1.09-2.98,2.91-5.44,2.87.19-.79-.51-1.12-.32-1.91-1.64-.13-.19,2.26-1.81,1.96-.55-.1-1.62.16-2.02-.37v-3.83c-1.11.5-.89,2.25-1.28,3.19-.71-.63.32-5.04.32-6.06-1.27.09-1.79,3.55-1.92,4.46-1.04-.38.53-5.69.32-5.6-.48.2-.76,1.03-.95,1.46-.92-1.2,1.05-1.78,1.66-2.44.46-.5,2.53,0,3.45.21,1.05-.47.88-2.23,2.07-2.48,2.22-.46.95-1.13.49-2.94-.54.13-3.63.16-3.95-.1-.29-.23.89-1.31.75-1.76-.46-1.55-4.72,3.14-5.44,3.13.82-.59,2.2-2.16,1.22-3.13-1.02-1.02-3.17.85-3.92,1.62-1.34,1.39-1.7,1.89-3.47.36-.86-.74-1.43-1.74-1.85-2.78-.54-1.34-.04-3.28.16-4.72.19-1.4,1.67-1.87,2.64-2.85,1.15-1.15,1.83-2.08,3.46-2.2.36-.03,1.76-.19,2.15-.32,2.65-.93,6.12,1.43,8.01,3.48,1.39,1.51.5,2.29,1.18,3.85.49,1.01,1.6,1.44,2.53,1.94,2.88,1.53,1.12,5.88,4.5,7.31-.82.94.31,2.75-.56,4.03ZM16.92,65.49s-.07,0-.12.08c.02.02.07.03.15,0-.06.02-.13.05-.22.1-.19.34-.42,1-.42,1.17-.73-.24-.03-.91.42-1.17.02-.04.05-.07.07-.11-.07-.06.06-.21.12-.08ZM86.96,63.03c.49-3.7-2.25-.61-4.15,0,.03-.18.1-.34.2-.49.05-.78-4.01,2.83-3.4.36.42-1.69,2.72-1.9,2.24-4.34-1.49.04-2.47.87-3.55,1.77-.94.79-2.4.45-3.59.67-.96.18-2.3.05-3.08.75-.86-.49.68-1.32.64-1.91-1.14-.04-1.73.65-2.56,1.28-1.01-.85-2.38.2-3.51,0,.2-.96,3.21-3.82.37-3.89-.53-.01-3.48,1.13-3.45,1.52-.23-2.7-2.02-.69-3.32.78-.75-1.15-2.42-1.08-3.57-.75-.29.08-2.48,1.58-2.5.75-1.46.15-2.29,1.82-2.53-.45-.24-2.25-1.75-1.1-1.94.45-2.04-1.48-3.84,3.4-3.84-1.59-1.68.04-1.71,1.74-3.36,1.91-1.09.11-2.66.43-3.55,1.08-.4.29-2.55,1.18-2.68,1.47-1.06.29-.36-1-.96-1.27-1.03.05-.48,2.2-1.15,2.81-.77.7-1.77,1.2-2.05,2.29-1.7-1.49-1.69-4.07-3.04-5.81-.79-1.02-1.74-.71-1.73-2.06,0-.9-.12-2.05-1.3-2.01,1.62-2.13,7.28-2.81,7.03-6.38,2.82-.99,3.58-6.15,4.47-8.61,1.83,1.14,1.78,5.8,4.16,6.06,1.35-1.96-1.14-7.02-1.92-8.93,1.39.32,1.33-.62.96-1.59.99.64,1.1,2.05,2.15,2.64,1.97,1.12.48-2.08.26-2.58-.53-1.2-.96-2.82-1.77-3.89.12-1.29.81-2.33,1.28-3.51,1.13,1.29,1.39,3.24,3.52,3.19-.32-1.8-1.89-2.99-2.24-4.78.66-1.96,2.1-3.41,3.5-4.88,2.73-2.89,5.25-5.69,8.34-8.05,2.8-2.14,5.71-4.54,8.72-6.41,1.76-1.1,3.91-2.2,5.28-3.73.5-.56,2.1-2.55,2.83-2.72.02-.05.04-.08.05-.1-.02-.09.03-.2.05.07-.03,0-.07.02-.1.03-.13.34-.35,1.27-.6,1.65-.83,1.24-.94,2.01-1.03,3.49-.21,3.36-.5,6.68-.5,10.12.79,3.72.69,8.04,1.97,11.58.77,2.12,3.07,6.02,2.52,8.31-.33,1.38-.29,2.54.24,3.92.51,1.34.38,2.63.38,4.08s.39,2.36,1.44,3.32c.19.17,1.7,1.62,1.76,1.62.14,5.95,7.62,9.86,12.47,11.8-.82,1.07-2.75.41-3.84.96ZM79.61,41.07c-.02-.82-.27-2.01.32-2.59.67.02.32,5,.32,5.74-.23-.05-.69-2.55-.64-2.87-.09.52-.03-.12,0-.28ZM91.43,40.39c-2.35,0-3.22-2.25-3.68-4.33-.31-1.4-.42-2.85-.47-4.28.05-.81.59-1.43.64-2.23,3.99-.1,3.95,1.27,5.43,4.46-.58,1.88,1.01,6.38-1.92,6.38ZM87.92,51.23v-1.59c1.03.9,2.88.63,2.56,2.55-1-.04-1.56-.92-2.56-.96ZM89.52,57.93c-.17-.17.23-.41.32-.32.16.17-.23.41-.32.32ZM93.03,55.06c-1.02-1-1.52-2.04-1.28-3.51,1.77.62,1.28,1.86,1.28,3.51ZM96.24,56.66c-.46-.21-.78-.11-.97.31-.33-.3-.37-.46-.31-.49-.35-.95.14-2.48-.01-3.33,1.52-.18,1.99.78,1.98,1.8,0,.78.51,1.86-.69,1.72ZM98.79,56.01v-1.28c.97-.07,1.62.59,2.56.64-.62.67-1.73.68-2.56.64ZM98.79,52.82v-5.42c3.59-.58,2.56,4.07,2.56,6.38-.82-.42-1.64-.81-2.56-.96ZM106.46,59.52c-2.03.34-3.99.82-6.08.64.39-.87,1.86-.65,2.56-.64-.88-.02.52-.26.4-.15,1.07-.45,1.89-1.33,3.12-1.45-.55.56-.03.97,0,1.59ZM103.9,56.33c.38-.03.2.46,0,0-1.33.31-.07-.95,0,0ZM108.59,44.07c-2.14-2.09-1.17-6.37-1.17-9.09-3.43,2.52.26,8.86-.64,12.43,2.37.67.6-2.9,1.92-2.55,1.61.8-.09,4.64-.58,5.95-.36.94-1.25,1.83-1.01,2.98-1.1-.1-1.63.66-2.54,1.06-2.5,1.11-1.43-6.65-.66-6.48-1.92-3.14.21-7.46-.96-10.84-2.02,2.21-.83,6.25-1.6,8.93-2.33-.46-2.72-1.1-2.49-3.4.19-1.91.64-3.98-.07-5.85-2.13.35-1.6,6.37-1.6,7.73,0,1.44-.42,2.6-.36,4.03.04.86.64,4.23-1.24,2.51-.89-.81-.7-2.46-.66-3.52.02-.78,1.34-5.05.43-4.85-2.66.58-2.39,5.13-2.32,7.18-1.79-.25-1.36-2.87-1.27-4.09.09-1.42-.72-2.67-.64-3.88-1.31,1.28-.52,4.13-.64,5.74-3.04-.73-2.56-4.03-2.56-6.38,5.45,1.33,7.35-1.52,7.63-6.58.18-3.36-2.77-8.6-6.23-9.29-1.78-.35-4.52,1.41-4.74,3.14-.25,2.01-.29,4.05-.03,6.06.22,1.72.67,3.52,1.7,4.95,1.41,1.94.52,2.63.71,4.9-.99.15-.92-1.11-1.92-.96,0,1.23,1.59,1.32,1.6,2.55-1.37.56,0,2.77-.32,3.83-1.1-.12-1.31-1.23-1.46-2.11-.24-1.4-1.26-2.58-1.74-3.94.36-2.16.65-4.51.32-6.69-.03-1.13-1.25-.05-1.28-.64-.47-1.22-.62-2.53-.57-3.83.03-.78,1.03-7.92.96-7.9-.79.23-1.74,2.04-1.67,2.8-1.21-1.07-.32-6.8-.32-8.29.73.48.62,1.7,1.6,1.91-.52-2.22-.67-4.53-.62-6.8.02-.65.32-5.84.34-5.84-.44.16-.7,1.08-.69,1.48-.82-.38-.17-2.21-.32-2.87-.3-1.22-1.38-1.78-2.24-2.55-.05,0,1.33,3.01,1.31,3.62-.04,2.14-.2,2.76.61,4.67.21,4.76-1.68,9.47-1.16,14.18.09.83.7,7.3.03,6.91-.25-.14-.61-2.21-.75-2.53-1.72-4.12-.14-7.86-.35-12.19-1.25,2.05-1.14,4.73-1.6,7.01-1.79-1.33-.48-4.44-.26-6.1.37-2.94.29-5.93.26-8.88.72.09.04,1.42.96,1.28.76-.38.91-1.34.95-2.08.05-.85.36-5.06-1.27-4.93.11.69-.54.86-.32,1.59-.99-.59-1.36-1.93.32-1.59-.39-.08-.45-.37-.36-.42-.73-.64-2.16-1.45-1.17-2.04.77-.45,1.78.32,2.48.55,2.09.61,4.98,3.04,6.65,4.43,4.03,3.36,13.5,7.14,13.5,13.11,1.86,3.28,4.26,6.22,6.82,8.98.82.89,1.14,3.53,2.13,4.09,0,0,1.41,1.06,1.67,1.95.51,1.69.57,3.5.59,5.26,0,.59.35,3.6-1.08,2.21ZM26.86,76.42c.58-1.76-1.76,1,0,0h0ZM94.96,56.48c.07.19.16.36.31.49-.03-.38-.24-.53-.31-.49ZM87.92,51.23c1.13.04,0-.53,0,0h0ZM84.72,19.67c-.18,1.51-2.65,8.57,0,8.29-.76.08.66-2.87.19-.76.68-2.63,1.14-5.32,1.45-8.02.2-1.7,1.37-5.05-.05-6.53-1.15.55-1.78,5.69-1.6,7.01ZM84.91,27.2c-.07.25-.12.51-.19.76.09-.31.14-.55.19-.76ZM88.88,13.3c.74-.1,1.05,3.29,0,0,.75,2.33-.33,4.7-.71,6.99-.08.48-.56,3.54.67,2.8.53-.31.4-1.23.37-1.7-.07-1.02,1.55-8.34-.33-8.09ZM91.75,16.8c.11,1.71-.95,2.24-.64,4.14,2.1.27,2.01-3.7.64-4.14ZM63.94,19.35c.02.94.73,1.18,1.28,1.59.09-1.04-.38-1.53-1.28-1.59ZM61.38,27.01c-.73.08-.22-.82.08-1-.27-2.17-2.85-5.57-4.38-5.61-1.54-.03.71,4.16,1.09,4.5,1,.87,1.72,2.27,3.22,2.11ZM61.38,27.01c.37-.93.26-1.11.08-1,.05.38.03.72-.08,1ZM60.43,20.95c1.14.35.11,1.37,0,0,.15,1.79,2.07,4.56,3.84,5.1-.07-1.72-2.18-4.59-3.84-5.1ZM49.88,22.86c.09.09.49-.15.32-.32-.09-.09-.48.15-.32.32ZM55.99,43.05c1.05-2.27.85-10.07-2.76-9.98.56.12-.08,1.34-.16.52.01,2.01.97,4.08.97,6.16,0,.44.69,6.02,1.95,3.29ZM53.06,33.59c0-.18,0-.36,0-.53-.02.23-.02.41,0,.53ZM56.59,33.38c.2.03.39.12.57.26.06-.07-.05-.19-.57-.26ZM58.5,34.65c.04.66,1.69,4.57.96,4.78-.32-1.06-.98-4.78-2.31-5.8-.09.11-.57.13-.57-.26,0,2.65.82,5.75,1.35,8.37.71,3.45,1.55-1.65,1.84-2-.13,1.14,1.21,1.4,1.47.13.15-.78.38-1.31,1.09-.45.01-1.58-2.01-5.1-3.84-4.78ZM63.62,36.25c-.02,1.4.77,2,1.6,2.55.02-1.4-.76-2-1.6-2.55ZM71.94,47.41v-5.1c-2.02.25-2.31,4.95,0,5.1ZM40.6,51.76c.07.13.13.09,0-.53.03.13.02.32,0,.53ZM40.61,51.23c-2.41,0-2.49,4.52-1.67,4.08.72-.39,1.53-2.4,1.66-3.55-.08-.15-.17-.53,0-.53ZM43.48,51.87c-1.64,0-3.36,3.32-1.6,4.46,1.08-.87,2.1-2.36,1.82-3.79-.15-.21-.39-.67-.23-.67ZM43.71,52.54c.14.2.21.18-.23-.67.11.22.18.44.23.67ZM58.94,55.65c-.06-1.83-2.17-5.13-3.41-3.1-.79,1.3-1.61,2.91-.86,4.42,1.35.57,2.83-.48,4.16-.64-1.1.13-.14-.84.11-.68ZM58.83,56.33c.21-.44.2-.63.11-.68,0,.27-.03.5-.11.68ZM59.79,56.33c1.8.3,1.95-1.03,2.24-2.23-1.37-1.11-3.35.87-2.24,2.23ZM53.71,59.52c.46-.2-.04-.38,0,0h0Z"/>
    </g>
  </g>
</svg>