<?xml version="1.0" encoding="UTF-8"?>
<svg id="Layer_2" data-name="Layer 2" xmlns="http://www.w3.org/2000/svg" viewBox="0 0 114.27 72.99">
  <defs>
    <style>
      .cls-1 {
        fill-rule: evenodd;
      }
    </style>
  </defs>
  <g id="food_icons" data-name="food icons">
    <g id="lemon">
      <path class="cls-1" d="M85.62,46.22s4.29,3.53,0,0h0ZM97.76,26.13c1.93-.12-.89-2.94,0,0h0ZM39.92,37.04c.1.06.19.14.3.25-.2-.21-.28-.26-.3-.25ZM112.53,41.64c-1.62-1.55-2.72.12-4.21.63-.46.16-3.6-.03-3.85-.52-1.09-.19-2.22.25-3.3-.02-.99-.25-.26-1.17-.19-1.87.29-3.35,6.34-3.87,6.38-7.67.52-4.83-6.18-6.27-9.59-6.06-.22-.71-.49-1.39-.82-2.05-2-4.02-5.12-6.41-7.89-9.5-3.13-3.48-7.06-6.42-10.85-9.23-2.19-1.62-4.76-3.81-7.47-4.3-2.39-.43-4.79-.76-7.21-.94-5.15-.38-10.11.21-15.15,1.2-9.69,1.89-19.17,7.07-25.7,14.47-3.19,3.62-6.9,6.72-9.83,10.56-.73.96-2.22,2.62-1.73,4.05.5,1.46-2.32.47-3.45.51-4.19.15-6.61,1.91-7.54,6.2-.72,3.33,1.89,7.85,4.75,9.54.94.55,2.23.85,3.03,1.58.54.5.95,1.14,1.68,1.39,1.84.61,3.7-.92,4.55.81,1.83,3.69,5.34,7.07,8.17,10.01,3.45,3.61,7.82,6.49,12.34,8.57,2.79,1.29,6.92,2.97,9.98,3.06,4.56.13,9.09.71,13.67.91,2.33.1,3.95-.59,6.14-1.1,2.61-.6.4-1.76,1.7-2.71,8.88,3.94,20.02,1.78,29.05-.81,4.96-1.42,7.11-6.79,10.58-10.03.56-2.11,2.75-4.07,3.9-5.92,1.18-1.88,1.96-3.17,3.63-4.6,1.85-1.58.8-4.68-.76-6.17ZM24.24,55.46c-.56-.08-.73-.55-.64-1.27.56.07.73.55.64,1.27ZM27.43,55.78c.96-.32.56.71.64,1.28-.56-.08-.73-.55-.64-1.28ZM27.43,53.87c.06-.36.32-.17.32,0-.06.37-.32.18-.32,0ZM28.07,58.33c.39.14.65.41.64.96-.4-.14-.66-.41-.64-.96ZM29.99,58.33c-.05-.79.51-.99.64-1.59.71.23.15,1.82-.64,1.59ZM42.14,64.39c.06-.36.32-.18.32,0-.06.36-.33.18-.32,0ZM47.26,65.98c-.11-.58,0-1.11.32-1.59.89.1.53,1.33,1.28,1.59-.27.92-1.09-.17-1.6,0ZM53.65,64.07c-.7.05-.14-1.13-.32-1.6.82.03.76,1.19.32,1.6ZM55.57,66.94c0-.31.39-.24.64-.32-.01.31-.39.25-.64.32ZM58.44,66.3c.14-.46.28.03.64,0-.08.4-.64.32-.64,0ZM76.33,65.95c-2.78-.11-5.54-.48-8.24-1.08-4.81-1.07-9.02-2.79-13.06-5.57-3.72-2.57-6.97-6.13-9.67-9.81-2-2.74-5.85-8.9-5.14-12.19-.04.19-.34-.22-.3-.25-1.05-.71-1.65,1.07-1.61,1.81.06,1.42.37,2.8.83,4.14.91,2.62,2.07,4.96,3.4,7.38,1.36,2.49,3.17,4.83,5.22,6.74.84.78,1.62,1.56,2.46,2.35,1.61,1.52.09,1.64-.72,3.02-.59-.18-.46-2.49-1.45-1.23-.63.78-.45,2.39-1.75,2.51-2.35,0-.49-4.31-2.88-4.14.03-.62.55-1.04,0-1.59-.81.14-.77,3.51-2.39,3.5-.37,0,.32-5.54-1.38-4.23-.8.62-.7,2.01-1.99,2,.05-.48-.28-4.9-1.45-3.52-.67.79-.17,2.28-1.11,2.88-.72-.62-.5-2.81,0-3.51-1.09-.87-1.72,1.1-2.87.96-.04-1.87,2.09-4.7.64-6.37-1.84.9-2.48,3.04-3.2,4.78-1.04-1.42-2.18-2.75-3.31-4.09.21.24-1.86-2.11-1.48-.37-.69-.35-2.44-2.55-2.55,0-.67-.88-.67-2.15-.64-3.19-.44-1.31-1.08-2.38-.96-3.82-1.77,1.34-.87,4.82-1.28,6.69-1.62-.01-1.04-4.28-.86-5.22.53-2.76-1.8-.63-2.94-.69-2.83-.14-10.98-1.14-9.22-5.73,1.07-2.78,1.29-4.45,4.55-3.52,1.7.48,3.67-.56,3.67-2.22,0-3.33,5.22-7.02,7.03-9.72,3.05-3.65,6.19-8.09,10.42-10.33,4.14-2.19,8.11-4.36,12.71-5.81,5.21-1.65,10.53-2.35,16-2.35,5.16,0,9.5.6,13.67,3.72,3.86,2.89,9.05,5.92,11.78,9.99,1.48,1.77,2.52,3.85,3.83,5.74.69.16,1.22.63,1.94.7,1.42.15.96.32,1.6,1.6.55,1.1-.05,2.38.94,3.04.79.52,1.74.76,2.66.93.95.18,6.17.46,3.84,2.65-.83.78-3.54.99-2.43,2.95.05.09-.65,3.13-.87,3.42-1.03,2.75-2.89,2.93-5.6,2.46-2.3-.4-4.78-.1-7.15-.26-4.5-.3-8.89-1.24-13.32-2.02-9.6-1.7-19.33-2.23-28.98-3.81-2.8-.46-1.87.97-2.17,2.36,2.18.81,4.44,1.42,6.71,1.91,5.05,1.08,10.2,1.57,15.34,1.92.09,1.84-9,4.33-10.58,4.88-1.14.4-7.48,4.3-3.15,4.34,1.86.02,3.52-1.32,5.25-1.79,1.9-.51,4.28-1.32,5.89-2.36,1.79-1.16,3.88-1.66,5.67-2.71,1.29-.75,2.3-1.98,3.95-1.41-1.77,5.1-4.26,9.84-6.67,14.6-.74,1.46-.24,4.55,1.82,2.63,1.32-1.23,2.29-3.24,3.12-4.81,1.21-2.24,2.31-4.68,3.23-7.08.56-1.47,1.09-2.95,1.7-4.4,1.11-.11,2.13.1,3.2.4,2.42.67.7,5.18,1.28,7.14.66,2.24.32,4.86.32,7.2,0,1.65.04,3.29.07,4.94.04,1.71.64,3.01-1.37,2.93ZM79.54,65.66c.66-7.09.37-14.28-.32-21.36,1.98-.28,5.61,4.36,6.76,5.69,3.04,3.53,6.16,8.1,10.18,10.57-3.6,4.65-11.38,4.38-16.62,5.1ZM98.08,58.65c-3.77-4.49-7.94-8.7-12.47-12.43-.16-.14-1.12-.58-.99-.88.34-.76,9.65.24,10.8.3,3.67.19,7.36.48,10.96,1.22-2.47,3.98-5.08,8.39-8.31,11.8ZM79.54,65.66c6.36-.88.64-6.89,0,0h0ZM47.26,65.98c.57-.19-.11-.74,0,0h0ZM70.27,8.6c.72-2.56-3.59-2.56-2.87,0,.52.48,2.35.48,2.87,0ZM54.92,10.83c-.79-2.19-6.31-1.69-5.75,1.27.8,2.21,6.14,1.52,5.75-1.27ZM38.13,13.13c-.59-1.24-2.48-1.09-3.14.21-1.24,2.41,2.73,3.54,3.27.56-.06.13-.11-.41-.12-.77ZM38.13,13.13c.08.17.14.35.17.57-.14-1.14-.18-.96-.17-.57ZM38.3,13.7c0,.07-.03.13-.04.2.01-.03.03-.09.04-.2ZM71.87,15.61c.11,0,.2,0,.3.02-.03-.02-.11-.04-.3-.02ZM72.83,16.57c.05-.55-.2-.87-.66-.93.09.07-.3.21-.3-.02-.32.96,0,1.27.96.96ZM59.01,19.13c-.12,0-.3-.94.07-.64-1.72-1.36-3.56-.23-2.73,1.93.88,2.3,2.32.23,2.66-1.28ZM59.08,18.48c0,.19-.02.41-.07.64.05,0,.09-.16.07-.64ZM29.15,24.19c-.35.14-.98.3-.76.03-2.01,2.34.73,5.54,1.95,3.38.7-1.24.21-3.19-1.19-3.42ZM29.15,24.19c.33-.13.4-.24-.76.03.28-.07.53-.07.76-.03ZM85.9,26.94c-.15.43-.41-.81-.06-.33-.92-1.43-3.36-2.92-3.09.02.18,2.03,2.71,2.26,3.16.31ZM20,30.83c-.57-1.78-4.12-1.51-3.8.68.23,1.53.74,2.27,2.31,1.79.84-.26,1.33-.89,1.49-1.7-.01-.18-.01-.55,0-.77ZM20.08,31.23c0,.13-.05.24-.07.36.01.18.04.17.07-.36ZM20,30.83c.04.12.07.26.07.4-.04-.7-.06-.65-.07-.4ZM22.06,37.65c.12-.06.1-.12-.39-.04.15-.02.27,0,.39.04ZM22.06,37.65c-.17.09-.59.18-.39-.04-.81.86-.39,3.49.7,2.36.48-.49.43-2.03-.31-2.32ZM28.07,48.45c1.98-.82.15-3.52-.32-4.78-2.73-.19-1.72,4.98.32,4.78Z"/>
    </g>
  </g>
</svg>