<?xml version="1.0" encoding="UTF-8"?>
<svg id="Layer_2" data-name="Layer 2" xmlns="http://www.w3.org/2000/svg" viewBox="0 0 90.55 126.93">
  <defs>
    <style>
      .cls-1 {
        fill-rule: evenodd;
      }
    </style>
  </defs>
  <g id="food_icons" data-name="food icons">
    <g id="lobster">
      <path class="cls-1" d="M42.26,50.77c.23,1.05-.41-4.16,0,0h0ZM28.16,27.69c1.05,2.09,1.67,4.84,3.57,6.32,1.28,1,2.6,1.74,3.02,3.31.21.79.6,1.49.99,2.2.55,1,1.02,2,1.1,3.16.11,1.64,1.17,2.65,1.96,4.12.24.44,2.6,4.99,3.39,4.54.02-.19.04-.38.06-.57-.26-2.68-1.78-4.86-2.62-7.35-.48-1.43-.39-2.79-1.14-4.1-.74-1.3-1.34-2.67-1.9-4.06-.97-2.42-3.84-3.28-4.83-5.92-.72-1.92-1.7-5.25-.99-7.15.89-2.39.07-6.2,1.33-8.14,1.19-1.83,2.91-3.23,3.34-5.48.53-2.76-1.17-4.24-3-5.94-.97-.9-1.39-3.42-3.34-2.38-1.9,1.01,1.65,4.89,2.05,6.12.74,2.27-2.29,4.89-3,7.02-.43,1.28-.26,2.26.12,3.51.42,1.34,0,2.35-.21,3.68-.44,2.6-1.08,4.77.1,7.11ZM44.43,39.67c1.23,2.51,4.05,4.48,6.49,5.55,1.39.61,2.7,1.38,3.9,2.3,1.3,1,1.53.5,2.97.51.69,0,1.43,2.52,1.8,3.13.67,1.08.12,2.06-.72,3.11.16,1.29-1.43,3.33-1.94,4.44-.86,1.87-1.15,3.82-3.21,2.3-.77-.57-3.51-2.33-4.43-1.64.01,1.69,1.61,1.9,2.53,2.94,2.22,2.51,5.54,4.64,7.94,7.34.76.86,1.44,1.78,2,2.78.78.58,1.8.96,2.24,1.91.31,1.99,1.42,3.62,2.24,5.42.63,2.18.69,4.9,2.24,6.69.83.23.78-.42.97-.94.31-.82,1.41.51,1.84.7,1.24.54,9.5,1.76,6.5-1.54-1.57-1.72-4.18-.42-5.82-1.62-1.86-1.37-1.95-2.03-2.8-3.97-.27-.61-1.78-3.26-1.32-3.78,1.92,0,3.55-1.09,5.44-1.27,1.12-1.27,2.26-2.51,3.35-3.8.95-1.12.62-1.49,1.09-2.74.5-1.37,1.22-2.59,2.15-3.69,1.26-1.49-.58-2.82-1.93-1.61-1.18,1.07-1.82,3.17-2.41,4.6-.61,1.48-.63,1.87-1.68,3.15-.61.75-1.23,1.51-2.17,1.86-1.75.14-5.03,1.91-6.06.62-1.53-1.92,1.88-2.86,3.27-3.98,1.8-1.45,2.17-4.42,3.18-6.45.85-1.7,1.73-3.61,2.33-5.39.29-.88.13-3.29-1.43-2.12-.85.64-1.53,3.47-1.89,4.41-.78,2.07-1.65,4.13-2.49,6.18-.69,1.68-4.5,5.05-6.01,3.44-1.48-1.58-3.2-2.88-4.63-4.47-.82-.91.45-2.84,1.14-4.09.82-1.49,1.97-3.35,2.35-5.05.98.77,4.01,2.77,3.02,3.85-.84.93-1.69,2.24-2.63,2.98-2.23,1.74-1.65,5.64,1.23,3.36,1.62-1.27,4.43-3.89,5.18-5.8,1.38-3.47-3.1-2.81-4.25-5.02,1.7-.78,3.97-1.26,4.84-3.02-.07-.2.04-1.31.19-1.1-.58-2.09-2.97-3.98-3.74-6.08.71-2.59.67-5.28.87-8.06.52-7.1-3.61-13.17-7.71-18.64-3.64-4.85-10.46-7.82-16.49-7.1-2.61.31-2.01,1.51-.59,2.75.6.52.67,2.04,1.17,2.79.56.85,1.19,1.8,1.63,2.71,1.03,2.15,2.29,4.55,3.61,6.51.4.6.41,1.52.72,2.22.73,1.66-2.17.41-2.73.25-1.71-.46-5.76-2.81-7.32-.99-.1,1.5,1.62,4.12,2.27,5.38,1.3,2.49,2.5,5.21,3.73,7.75ZM43.91,30.69c1.64.52,6.14,1.87,7.03.2,1.12-2.12-.64-5.54-1.59-7.59-.79-1.7-1.8-3.21-2.74-4.81-.38-.65-1.24-1.65-1.46-2.15-.48-1.05-1.11-2.02-1.28-3.19,1.06.57,2.39.28,3.52.64.87.41,1.01,1.55,1.92,1.91.89-.2.81-.45,2.06-.35.65.05,1.54.02,2.08.47.91.75,1.31-.02,2.57.2,1.13.75,2.04,1.77,2.8,2.88,1.44,2.09,2.31,3.97,2.91,6.36,1.22,4.84,1,9.48,1,14.47,0,1.77-1.02,1.69-2.49,2.35-.8.36-2.4,1.19-1.87,2.32.71,1.5,3.34,1.35,4.36,0,.34.04,2.88,5.11,2.88,5.74-1.17.18-2.01,1.84-3.1.22-.79-1.18-1.77-2.04-2.66-3.19-.7-.91-1.91-1.81-3.19-1.49.11-1.62-1.99-1.26-2.62-2.36-.78-1.38-2.08-1.76-2.76-3.01-.49-.89-.36-1.51-1.33-1.63-.46-.21-.78-.11-.97.31-.94-.78-.8-2.43-.96-3.51.11-.41-.92-1.09-.96-.32-.71-.29-.42-2.13,0-2.55-1.7.23-.57,2.96-1.6,3.83-1.07-1.14-1.38-2.79-1.97-4.19-.56-1.3-1.45-2.13.42-1.54ZM45.14,16.34c.05.11-.36-.79,0,0h0ZM69.11,50.45c-.06.3-.16.56-.28.81.04.11.12-.05.28-.81ZM69.02,50.16c.03.1.07.19.09.29-.03-.16-.06-.25-.09-.29ZM89.01,106.9c-1.65-1.4-4.05-1.67-6.11-1.96-1.04-.15-2.09-.28-3.13-.47-1.15-.21-1.61-1.81-2.55-2.65-1.26-1.13.17-2.58-.96-4.11-.79-1.07-1.9-1.86-2.66-2.95-1.27-.98-1.62-.61-2.15-2.28-.38-1.16-1.11-2.13-1.98-2.97-.63-.61-1.31-1.16-1.95-1.76.25-.44.29-.88.1-1.33-.54-1.03-1.87-.68-2.66-.07-1.89,1.44-3.23,3.45-5.12,4.92.35-1.51-1.27-1.3-2.24-1.28.66-2.24-2.19-1.04-2.24-1.91.74-1.67.42-3.4-.84-4.48-1.08-.93-.47-.63-1.74-.64-.64,0-.17-1.74-.62-2.21-1.69.01-1.19,2.12-2.24,2.87-.77-1.22-.04-1.34.16-2.55.2-1.22.48-2.12.48-3.51,3.28.53,3.04-2.41.47-3.55-2.64-1.17-1.03,2.7-1.23,2.84-1.67,1.23-.4-2.98-2.35-2.51-1.53.37-1.05-.6-1.05-1.88-.68-.68-1.37.42-1.92.64.17-1.17-1.47-2.18-2.29-2.82-1.28-1-1.47-2.27-1.59-3.83-.12-1.58,1.32-2.62,1.59-4.16.33-1.89-1.01-2.19-2.18-3.22.82-.11.24-1.37.96-1.59,1.24,1.24,1.95-.74,2.94.83,1.37,2.15,5.32,2.24,5.03-.9-.18-1.97-2.12-4.38-4.29-3.09-1.11.66-1.42,1.04-2.77.66-1.02-.29-2.13-.57-3.14-.06-2.01-4.44-4.16-9.11-6.57-13.34-1.1-1.94-2.45-3.73-3.48-5.71-1-1.91-3-2.96-4.15-4.83-2-3.25-6.27-4.63-9.28-6.96-1.74-1.34-2.37-2.75-3.77-4.29-1.18-1.3-2.77-2.14-4.24-3.07-2.12-1.34-4-1.01-4,1.98,0,1.06-.66,4.78.59,5.49,2.87,1.62,1.53-4.4,2.28-5.28,1.71.72,3.26,1.82,4.28,3.39,1.25,1.93,2.55,3.08,4.22,4.72,1.36,1.33,3.45,2.24,5.08,3.35,1.74,1.19,3.05,2.51,4.71,3.87,3.4,2.8,5.87,7.98,7.29,12.09,1.07,2.28,2.39,4.43,3.53,6.67.59,1.15,1.13,2.32,1.58,3.53.25-.03,1.19,1,1.28.32,2.33,1.23-1.13,2.9-1.6,3.83-.31,1.78.25,3.08,1.23,4.52,1.14,1.69.82,4.34-1.36,4.44-1.77.08-3.65-.53-5.39-.1-1.92.47-1.22,3.72-1.39,5.34-.17,1.63-1.67,2.53-1.39,4.29,1.72,1.8,7.45-.6,9.65-.9,1.12-.15,2.28-.51,2.78.62.55,1.23.68,1.44-.68,1.68-1.81.31-3.36,1.24-5.04,1.93-2.17.89-3.74.94-5.85-.04-1.81-.84-3.31,0-5.01-.74.21,1.98,2.57,2.14,3.2,3.83,2.65.61,4.33,1.65,7.15.88,3.06-.85,9.09-5.06,10.11.08-2.2.52-4.13,1.56-5.92,2.89-1.24.92-2.89,2.79-4.15,1.98-1.94-1.25-4.75.4-2.52,1.95,1.01.7,2.29,1.5,3.64,1.47,1.35-.22,2.24-1.91,3.35-2.46,1.34-.66,2.37-1.51,3.79-2.15,1.22-.55,2.45-1.05,3.73-1.45.58.78.96,1.8,1.92,2.23,0,1.23,1.6,1.32,1.6,2.55-1.87,0-5.35-.04-6.71,1.59-1.06.13-4.78,2.16-2.11,2.86,2.2.58,4.42-1.15,6.53-1.52,1.12-.2,2.22-.62,3.25-.7-.06-.66.3-1.01.96-.96-.61,1.63-2.36,2.46-2.88,4.14-.94,1.28-1.46,2.81-1.75,4.36-.34,1.79.45,2.28,2.07,2.97.92.86,1.46,2.12,2.68,2.64,3.02,1.3-1.35-4.51-1.4-4.87.22-1.82.94-3.47,1.62-5.16.4-1.01.75-2.05.94-3.13.79-.35,1.54-.77,2.24-1.28,0,.65-.92,1.63-.32,2.23.67.67,1.83.2,2.56,0,.23,1.59,1.16,2.79,2.4,3.75,1.54,1.2,1.08,1.26,1.53,3.06.68,2.73,2.31,3.39,3.81,5.44,1.83,2.51-1.62,4.19-2.65,6.33-1.4,2.88-.77,5.19.09,8.06.33,1.09,1.08,1.97,1.74,3.02.77,1.22,2.45.25,3.47-.05,1.21-.36,2.95-1.56,4.08-.89,1.09.65,2.12.72,3.36.58,4.69-.56,8.88-3.12,10.39-7.85.24-.76-.25-3.12.24-3.6,1.34-.03,2.42-.62,3.32-1.58,1.65-1.75,1.59-4.4-.37-6.05ZM45.46,56.19c.83-.19,1.15.13.96.96-.3-.34-1.18-.1-.96-.96ZM39.06,74.36c-1.84.08-3.57.77-5.4.92-.17.02-.39.03-.67.03.31-.92.4-1.9.32-2.87,1.81,0,6.46-1.06,5.75,1.91ZM39.38,61.92c-.16-.17.23-.41.32-.32.17.16-.24.41-.32.32ZM54.09,89.34c-.17-.17.23-.41.32-.32.17.17-.23.41-.32.32ZM54.09,88.7c-.71.18-.4-.6-.96-.64.29-1.01.7-1.79,1.92-1.59-.37.83-1.08,1.2-.96,2.23ZM63.36,101.45c1.52.34,1.78,1,3.32-.51.98-.97,1.63-2.2,2.43-3.31,0-3.95-3.27-1.32-4.48.64-.65-.05-.15-1.06-.64-1.28-1.65,0-2.24.65-2.24-1.27-.84-.28-1.98.86-2.56.32.09-.69,2.58-2.11,3.07-2.57.94-.89,1.83-1.82,2.69-2.79-.23.2.72-1.02.64-.7.77-2.85,3.33,2.11,3.54,3.08.42,1.88.61,2.14,1.94,3.57.77.83,1.48,1.73,2.14,2.64.45.62.89,1.24,1.33,1.87-.44.33-.76.76-.96,1.28.27,1.38,1.91,2.05,1.61,3.52-.32,1.53-1.76,3.73-3.52,4.13.24-.9-.84-.59-1.32-.72-1.22-.34.84-2.74-.87-2.52-1.32.17-.07,2.73-1.64,2.61,1.53-2.11-4.01-5.61-4.47-7.97ZM87.5,110.18c-.52,1.3-2.2,1.46-2.83,2.68-1.22,2.39-5.81-3.92-6.89-1.17-1.28,3.23,5.93,4,5.04,5.9-1.43,3.06-3.94,5.22-7.31,5.86.77-.94.11-1.75-.39-2.59-.43-.74.53-1.56.79-2.42.66-2.28-1.29.4-2,.24.29-1.25-1.45-2.42-.64-3.51-.05-.15-2.08.61-2.29.79-1.07.92-.95,1.64-1.13,3.04-.18,1.37-.37,2.76-.09,4.13-1.1.37-2.69.31-3.51,1.28-.69-.4-1.56-4.03-1.6-4.78.12-2.4,1.37-4.41,1.92-6.7,1.67.41,3.04,2.82,4.45.53.62-1.01,2.75-1.55,3.76-2.54.74-.73,1.49-1.47,2.47-1.87,1.16-.48.61-.42,1.23-1.35.83-1.22,3.97.24,5.36.45,1.02.4,4.42.19,3.68,2.03ZM53.13,88.06c.5.03.26-.91,0,0h0ZM32.99,75.31c.23,0,.45-.02.67-.03,1.18-.14-.44-.66-.67.03ZM38.74,54.91c1.38-.7-1.59-3.51,0,0h0ZM65.6,89.98c-.21.24-.42.47-.64.7.07-.06.26-.26.64-.7ZM83.82,108.15c-1.58-.24,1.22.48,0,0h0ZM53.13,18.25c.02-.55-.25-.82-.64-.96-.02.55.25.82.64.96ZM50.89,19.85c.2-.02.43.01.66.08-.05-.08-.24-.12-.66-.08ZM52.9,22.65c1.79-.63.06-2.34-1.35-2.73.17.25-1.08.84-.78.14-.86,1.66.63,3.11,2.13,2.59ZM56.64,28.45c.8-1.62.35-2.34-1.6-2.23.68-.04-.14.74-.1.31-.26,1.06.56,1.96,1.7,1.92ZM54.95,26.53c.03-.1.05-.21.1-.31-.06.15-.09.24-.1.31ZM58.56,27.82c-.09-.09-.49.15-.32.32.09.09.48-.15.32-.32ZM3.26,38.97c.83.55.36-.38,0,0h0ZM24.67,60.34c-.18.35-.22.5-.2.53.05-.17.11-.35.2-.53,0,0,0,0,0,0ZM24.73,60.32s-.03,0-.05.01c0,0,0,0,0,.01.02,0,.04-.02.06-.02ZM27.77,75.33c.88-.72.67-1.4.42-2.25-1.35-.67-2.79.27-4.16.32.26-1.98-.82-3.29-1.28-5.1.81-.29,1.32-2.11,2.33-.9.77.93.81,2.23,1.49,3.21.61.88,2.38,1.59,2.56.01.32-2.8-2.57-6.51-5.41-6.15-1.41-.66-1.72-1.84-3.57-1.64-.78.08-1.42.54-2.19.68-.16-.44-.48-.66-.96-.64.13-1.21.13-4.63-1.68-4.48-.7.06-2.31.73-2.5-.4-.36-2.23,1.95.19,2.68-.75.75-.97,1.79.36,2.78.54,0,1.97.91,1.64,1.64,3.15.4.8,1.07,1.64,2.17.87,1.03-.72.59-1.15,1.61-1.09.1,0,.66-.23.96-.36,0,0,0,0,0-.01.25-.11.21-.08.05-.01.22-.03-.22.63-.26.55-.65,2.24,1.9,3.58,3.3,1.21,1.1-1.86,2.11-4.34,2-6.51-.15-2.91-.43-5.4-1.98-7.84-1.56-2.46-3.03-4.98-4.65-7.41-1.41-2.11-3.69-3.03-5.46-4.68-1.55-1.44-3.99-.89-2.54,1.46,1.01,1.63.98,3.17,1.94,4.77.36.59.5,3.28-.39,3.8-1.59-1.41-3.22-2.81-4.5-4.53-1.14-1.53-2.83-2.54-4.18-3.93-1.97-2.04-5.02-5.52-5.39-8.44-1.55.18-1.59,2-1.6,3.18-.01,1.93-.56,3.94-.84,5.86-.46,3.26,0,6.84.84,10.08,1.12,1.57,2.14,3.2,2.56,5.1,1.09.87,1.88,2.04,2.64,3.19,1.9,2.88,4.59,4.92,6.63,7.65,1.58.39,2.76,1.47,4.16,2.23.59,1.22.58,1.94,1.78,2.69,1.37.85,2.35,2.1,2.7,3.69-.11,1.29-.24,2.3.32,3.51,1.79.32,4.45.64,5.97-.62ZM10.85,51.5c.25-.98-.3-1.5-1.21-1.78-1.21-.36-1.15-.7-1.87-1.69-.41-.56-.43-2-1.06-2.29-.89.22-1.18-.1-.88-.96-.11-1.5-.99-1.31-.62-2.82.34-1.42-.94-2.34-1.94-2.99.34-.59.45-1.23.32-1.91.83-.18,5.14,5.34,5.95,6.14,2.05,2.06,3.47,4.44,5.8,6.28,5.43,4.3,3.91-7.04,3.6-9.24,2.36.77,4.5,5.94,5.43,7.97.97,2.11,1.92,3.48,1.92,5.84,0,2.17-.64,3.61-.96,5.63-.93-1.57-2.23-1.63-2.62-3.36-.17-.8-.96-3.49-2.4-2.68-1.47.81-.05,2.18.53,3.03.45.67.79,1.39,1.29,2.06,0,.69-.86.44-.64,1.27-2.06-.6-.75-2.38-1.6-3.19-.83-1.38-3.11-1.19-4.47-1.27-.86-1.91-1.32-1.53-3.1-2.09-1.52-.48-2.04.31-1.46-1.96ZM60.16,32.28c-1.51.13-1.02-1.74-1.92-2.23-.7,1.31.53,3.22,1.92,2.23ZM57.6,35.47c-.01.88.66,1.19.96,1.91-.29-.67.64,0,0,0,1.67,0,1.46-.09,2.55-.96-.04-.8-.28-1.6-.84-2.19-1.5-1.58-2.34-.8-3.31.6-1.07-1.13-2.64-.12-2.05,1.3.77,1.85,1.77-.14,2.69-.66ZM22.44,52.04c.7-1.01-.1-2.72-1.6-2.55.19,1.19.38,2.38,1.6,2.55ZM57.27,74.84c-.09-1.26-.7-2.52-1.83-3.16-.79-.44-2.76-.87-2.23.68.4,1.17,2.28,2.86,3.69,2.95-.89-.2.24-1.99.37-.47ZM57.28,75.31c-.12.02-.25,0-.39,0,.1.02.22.03.39,0ZM79.31,74.33c-1.05,1.41-1.92,1.29-3.53,1.75-1.09.31-4.61.94-5.03,2.33-.67,2.26,5.76-.34,6.61-.5,1.53-.28,1.99.04,3.16-1.11.62-.61,1.05-1.31,1.25-2.11-.15.1-.31-.98.13-.97-1.32,0-1.23-1.19-2.58.61ZM81.9,73.72c0,.34-.05.66-.13.97.06-.04.12-.3.13-.97ZM53.45,78.5c-.71,1.02-.18,3,1.6,2.55.78-1.09.21-3.03-1.6-2.55ZM59.89,86.74c2.85.65.87-2.78-.11-4.09.26.39-.62-.33-.26-.33-2.93,0-1.72,3.94.37,4.42ZM73.21,103.6c.1.43.21.46.05-1.19.04.45.02.84-.05,1.19ZM73.21,103.6c-.11-.49-.22-1.48.05-1.19-1.93-2.04-6.6,1.63-5.75,3.83,2.31-.06,5.21-.27,5.7-2.64Z"/>
    </g>
  </g>
</svg>