<?xml version="1.0" encoding="UTF-8"?>
<svg id="Layer_2" data-name="Layer 2" xmlns="http://www.w3.org/2000/svg" viewBox="0 0 79.7 114.19">
  <defs>
    <style>
      .cls-1 {
        fill-rule: evenodd;
      }
    </style>
  </defs>
  <g id="food_icons" data-name="food icons">
    <g id="milk">
      <path class="cls-1" d="M63.97,23.5s.04.07.05.12c-.08-.31-.08-.24-.05-.12ZM72.97,51.03c1.13,1.13.4-1.09,0,0h0ZM15.43,99.81c-.06,0-.11.02-.17.02.03,0,.07,0,.17-.02ZM7.03,77.39s.06.07.09.1c0-.07-.05-.1-.09-.1ZM45.8,8.32c-.26.09-.52.19-.78.28.15-.04.91-.28.78-.28ZM64.02,23.62s0,.04,0,.06c.01.04.02.04,0-.06ZM29.82,107.14c2.57-.15-2.1-3.13-3.56-2.43-1.14.54-.92,1-2.16.37-.91-.46-2.34-.45-2.91-1.44,5-2.62-.48-12.45-3.07-14.69-1.26-1.09-2.6-2.1-4.13-2.78-1.55-.69-1.74-.85-2.84-1.95-1.98-1.97-1.56-4-.33-6.39,1.45-2.83,1.83-5.17-.07-7.95-.88-1.29-1.46-1.64-2.95-1.91-1.46-.27-.99-1.78-.99-2.9,0-2.05.28-2.62,1.5-4.2.72-.92,1.32-1.91,1.56-3.07.66-3.14-2.34.94-3.07.25,0-1.62-.56-4.42.4-5.77.8-1.13,1.77-2,1.84-3.48-.89-.11-1.18.93-1.92,1.1-.7.16.03-3.02.09-3.4.45-2.67-.84-5.06-.41-7.58,1,.04,1.55.92,2.56.96.85.03,1.89-.19,2.71.17,1.45.64,0,5.36,1.05,6.76,2.37,3.17,6.85,2.28,9.99,1.04,1.79-.71,2.47-.55,2.86-2.57.22-1.14,2.87.22,3.74.38,1.66.3,1.83-1.46.31-1.79-1.2-.26-2.06-.69-3.2-.99-2.16-.58-4.3-1.22-6.48-1.74-2.15-.51-4.44-.19-5.4-2.2-.56-1.19-2.72-.04-3.89-.58-1.2-.55-2.57-1.26-3.78-1.81-3.56-1.64,3.54-4.57,5.33-5.11,1.88-.56,4.27-1.06,6.02-1.93,2.4-1.19,3.19-1.22,5.19.55,3.78,3.33,6.67,7.06,9.83,10.9,1.7,2.06,3.33,5.86,6.41,5.94.69-.95,1.41-.46,1.32-1.88-.04-.71-.31-1.34-.76-1.9-.67-.84-1.57-1.49-1.84-2.59-2.5-1.78-3.35-5.4-5.69-7.15-1.14-.85-2.47-2.49-3.25-3.69-1.53-.59-2.54-1.76-.34-2.04,4.17-.53,8.04-2.2,12.11-3.12,2.92-.66,5.9-.87,8.62-2,3.48-1.45,7.57-1.87,10.94-3.68-.22,1.47,1.62.78.5,2.49-.75,1.16-1.7,1.77-1.92,3.19-.38,2.44-2.2,2.24-4.22,2.3-2.26.07-3.76,3.39-2.17,5.1,1.5,1.6,3.88,2.01,5.96,2.16,1.66.12,2.89.2,4.35-.53.36-.18,2.21-1.65,2.29-1.65.67-.62-.19-4,1.28-3.82,1.53-.92,4.07,3.16,5.21,4.05,1.77,1.38,2.51,1.59,2.14,3.92-3.32-.84-8.11,1.4-11.29,2.68-4.2,1.68-8.69,3.65-13.08,4.72-2.02.49-6.77,1.45-7.23,3.89-.54,2.88,8.6-.96,10.01-1.39,4.83-1.48,9.4-3.73,14.23-5.2,1.38-.42,3.98-1.53,5.43-1.2.01-.99,1.6-1.22,1.6.64v3.82c-.45.56-1.27.53-1.76,1.12-.82.97-3.38,2.49-4.62,2.86-2.85.87-3.21,5.35-3.21,7.49.89,1.7,3,2.07,4.16,3.51,2.54.39,3.06.98,4.11,3.07,1.99,3.93.44,10.79.36,15.14-.08,4.27.27,8.36.51,12.6.07,1.26.13,2.83,1.03,3.82,1.28,1.41,1.94.04,3.26.12,1.88-2.57.33-8.68.33-11.61,0-5.66,0-11.31-.1-16.97-.17-9.89-1.21-19.88-.87-29.76,1.18.12,2.38-.15,2.24-1.59-.54-.88-1.97.72-2.24,0,1.68-1.6-3.43-4.4-4.36-5.27-1.86-1.74-3.52-3.68-5.2-5.6-1.38-1.57-3.91-3.34-4.85-5.16-.74-1.45-.99-2.94-3.21-2.19-8.39,2.84-16.8,5.31-25.22,8.01-1.85,1.14-4.45.89-6.43,1.75-2.87,1.24-3.59.58-3.97-2.41-.19-1.5-2.09-5.01.17-5.25,1.17-.12,2.35.14,3.52.17,1.02-.41,2.09-.68,3.15-1,2.44-.74,4.85-1.51,7.27-2.35,1.48-.51,2.93-.6,4.26-1.39.99-.58,2.04-1.06,3.08-1.55,2.48-1.17,5.11-1.67,7.62-2.79,2.39-1.06,4.69-2.31,7.22-3.03.28,2.28-.69,4.54-.58,6.82.07,1.54,1.87,3.57,3.2,1.7,1.36-1.9.39-5.09.58-7.25.71-1.59.54-5.14-.32-6.69.24.44-1.1.01-1.53-.22-2.96-.07-5.44,1.92-8.38,2.45-3.63,2.23-8.04,2.1-11.78,3.9-3.78,1.82-7.96,2.61-11.88,4.07-1.38-.33-3.95.36-5.39.51-1.7.18-3.4.48-5.01,1.09-2.47.94-2.75,1.89-2.18,4.47.41,1.85,1.22,3.44,1.41,5.31.1,1.01.44,1.97.62,2.97-1.12.41-2.25.75-3.39,1.08-1.87.55-3.78,1.07-5.54,1.91-1.72.82-4.02,1.46-5.45,2.74-1.15.64-2.58.59-3.67,1.35-2.13,1.49-.81,7.98-.81,10.38,0,8.97.15,17.9.5,26.92.18,4.77.4,9.54.47,14.31.06,4.63.72,8.83,1.68,13.37.64,3.05,1.67,2.27,4.07,3.48,1.4,1.3,3.01,2.37,4.66,3.32,3.83,2.19,7.88,4.12,11.95,5.81,2.2.91,4.18,1.39,6,2.86,1.24,1,2.85,1.57,4.23.45.42-3.12-1.81-4.02-4.15-5.74ZM22.46,43.7c.47-.03.89.07,1.28.32-.31.44-.73.66-1.28.64v-.96ZM16.07,44.98c.16.17-.23.41-.32.32-.16-.16.23-.41.32-.32ZM15.75,41.15c.17.17-.23.41-.32.32-.16-.17.23-.41.32-.32ZM58.59,30.63c-.56-.29-1.72.01-1.6-.96.84,0,2-.3,1.6.96ZM73.61,55.5c-1.34-.34.31-3.52-.64-4.46.45-1.22,0-2.67.64-3.83.92.03.1,7.43,0,8.29ZM63.7,22.34c.77.36,1.17,1.09,1.28,1.91-.32-.07-.53.03-.64.32-.28-.23-.39-.53-.32-.9-.01-.04-.03-.11-.04-.18-.22-.46-.82-.6-.27-1.16ZM62.74,29.99c-.06.36-.32.18-.32,0,.06-.36.32-.18.32,0ZM60.5,3.53c.01,1-3.39,1.62-4.16,1.59,1.14-.99,2.71-1.35,4.16-1.59ZM48.36,8c.7-.97,2.05.37,0,0-.38.97-1.7-.35,0,0ZM23.15,14.42c.97-.13,1.93-.18,2.89-.31,2.56-.35,4.89-.52,7.41-1.28,3.98-1.2,7.68-2.87,11.57-4.24-.09.02.05-.04.78-.28h.64c-1.56,1.47-4.07,2.5-6.05,3.26-1.8.69-3.73,2.02-5.55,2.38-2.34.47-4.76,1.48-7.05,1.68-1.7.15-3.61,1.42-5.33.96-.39-1.25-1.04-1.95.69-2.19ZM7.12,77.49c-.23-.03-.17-.1-.09-.1-.22-.23-.3-.51-.22-.86,1.1-.24.34.75.32.96ZM8.72,74.62c-1.15.3-.44-1.25-.64-1.91,1.15-.3.44,1.25.64,1.91ZM9.04,95.02c-.16-.16.23-.41.32-.32.17.16-.23.41-.32.32ZM9.04,88.33c-.16-.16.23-.41.32-.32.17.17-.23.41-.32.32ZM15.43,92.47c.87.13,1.32,1.52.64,2.23-1.2-.47-.65-.85-.64-2.23ZM13.83,100.44c.41-.35.89-.55,1.43-.61-.13-.04.4-.42.17-.02.39-.53.93-.74,1.6-.64-.15.85.21,1.43.32,2.23-.91-1.12-2.3-.64-3.51-.96ZM61.85.13c.5.01,1,.07,1.53.22-1.66-.45-1.84-.39-1.53-.22ZM22.46,44.66c.6-.05,0-.32,0,0h0ZM56.35,5.13c.99.03,1.03-.89,0,0h0ZM78.26,95.81c-1.09-.5-1.68-.18-2.95.23-4.95,1.6-9.4,4.29-14.17,6.32-.21-.73.44-.91.32-1.59-1.33.34-2.26-.81-3.49-.61-2.16.35-.37,2.83-.02,3.8-2.02.48-3.81,1.53-5.76,2.23-.19-.92-.13-2.02-1.34-2.18-.78-.11-.88,1.45-1.86,1.22-.18-.95-3.64.75-3.72-.15-.12-1.46,2.6-2.56,1.48-4.32-.36,1.29-1.64,1.75-2.56,2.55.03.35-.46.19,0,0-.46.2.2-1.5,0,0,.18-1.35,1.47-2.14,1.6-3.51-1.77-.3-2.02,2.34-3.42,2.5-.77.09,1.46-3.52,1.5-4.1-.62-.23-.86.5-1.36.57-.64.09.37-1.44.4-1.52-1.36.43-.88-1.18-.96-1.91,2.95.47,5.31,2.11,7.82-.27.76-.73.65-1.77,1.24-2.56.68-.91,2.17.78,2.8,1.19,4.35,2.81,12.34-.58,12.5-6.02.12-4.2-1.43-10.52-5.4-12.7-2.28-1.25-5.02-1.49-7.62-.45-2.09.84-3.9,2.64-6.23,2.64-2.8,0-3.17-3.87-4.01-5.73-1.02-2.27-.09-5.7-.09-8.19,0-3.26-.14-6.52-.08-9.77.02-1.35-.29-2.68-1.25-3.73,0-.48.19-1.49-.33-1.83-2.59-1.7-2.68,6.75-2.77,7.65-.47,4.62.48,9.36-.42,13.95-1.53-1.53-4.49,1.35-5.37,2.4-1.51,1.8-2.37,4.04-2.78,6.34-.46,2.6.8,3.7,2.63,5.37,1.22,1.12,2.17,1.94,2.49,3.57.18.92.09,2.14,1.16,2.46,1.87.56,1.59,1.06,1.59,2.97.01,1.22,0,2.45-.02,3.67-.04,2.85-.12,5.69-.03,8.54.05,1.51.14,3.03.33,4.53-.53.68-.62,1.64-.65,2.47-.09,2.86,3.77,2.31,5.76,2.31,4.91-1.76,9.44-4.29,14.31-6.13,4.9-1.86,9.55-4.28,14.42-6.24,2.33-.94,4.83-1.47,7.07-2.61.63-1.41.49-2.78-.78-3.36ZM56.35,79.08c-.3-1.71,2.08-.73,2.7-.18.79.71,1.15,1.76,1.46,2.73-2.17.52-2.55-3.28-3.44-.14-.22.77-1.37.51-1.41-.24-.04-.74.41-1.36.64-2.03-.08.14-.02-.59.06-.15ZM55.71,88.33c.96.14.8-.85,1.6-.96,1.61-.27,3.19,2.44.95,2.56-1.79.1-3.04-.57-4.15-1.92.48.59-1.12-.16,0,0-.84-.12-1.66-.33-2.52-.36-1.09.37-1.42-.04-1-1.24,2.05,0,2.21.29,3.52,1.59.74-.21.91.44,1.6.32ZM54.43,78.77c-.41.87-1.01,1.62-1.28,2.55-.39-.46-.61-.99-.64-1.59.73-.3,1.04-.97,1.92-.96ZM50.59,81.32c-.28.2-.57.39-.64,0,.07-.4.63-.32.64,0ZM47.08,89.92c-.32.64-.64,1.28-.96,1.91-.19-.03-.32-.06-.41-.09-1.04-.3-1.77-1.12-2.79-1.5.06-.14,3.71-.42,4.16-.32ZM42.6,79.08c-.06.36-.32.18-.32,0,.06-.36.32-.18.32,0ZM45.71,91.75c.13.04.27.07.41.09.26-.56-.97-.3-.41-.09ZM56.29,79.23s.03-.06.06-.15c-.01.05-.04.1-.06.15ZM52.51,79.72c.18.57.67-.28,0,0h0ZM66.9,98.53c1.29.23,1.82-.31,1.6-1.59-1.29-.23-1.83.31-1.6,1.59Z"/>
    </g>
  </g>
</svg>