<?xml version="1.0" encoding="UTF-8"?>
<svg id="Layer_2" data-name="Layer 2" xmlns="http://www.w3.org/2000/svg" viewBox="0 0 79.92 101.7">
  <defs>
    <style>
      .cls-1 {
        fill-rule: evenodd;
      }
    </style>
  </defs>
  <g id="food_icons" data-name="food icons">
    <g id="mushroom">
      <path class="cls-1" d="M21.68,74.95c.06.07.13.12.26.11.16-.53-.26-.28-.26-.11ZM49.76,31.07c4.5,7.73,3.69-.46,0,0h0ZM18.43,11.62c-.83,1.08.46-.17,0,0h0ZM29.85,24.79c-.27.16-.47.34-.55.53.99,0,.88-.53.55-.53ZM25.04,54.65s.06.02.1,0c0-.04,0-.06,0-.09-.04.04-.07.07-.1.09ZM22.81,80c-.08.05-.16.09-.22.16-.01.3.26-.11.22-.16ZM78.63,16.14c-1.21-1.65-2.84-2.93-4.44-4.18-1.97-1.53-3.57-2.16-5.86-3.13-4.37-1.86-8.19-4.62-12.51-6.63C52.06.46,46.12.14,41.94.14c-3.09,0-6.61-.47-9.61.28-2.29.57-4.58,1.12-6.92,1.47-1.39.21-4.31.76-5.39,1.76-1.64-.02-2.6,1.38-4.15,1.59-4.29,2.53-9.21,3.53-13.23,6.48C-1.13,14.49,0,17.81.85,21.82c1.25.79,2.75,2.71,3.56,3.7.85,1.03,2.71,1.34,4.04,1.68,2.32.61,4.7.98,7.1.99.74.72,3.46,1.31,4.47,1.27,1.38.86,4.31,1.04,5.91,1,2.74-.07,3.22-.22,2.61,2.74-.89,4.35-2.18,9.21-4.26,13.14-2.11,3.99-2.84,8.59-5.22,12.45-.42,2.32-.93,4.64-1.25,6.98-.15,1.14.28,6.04-1.31,5.77-.09.83.86.63,1.02,1.28.33,1.29-.07,3.34-.07,4.7,0,3.2,1.4,6.03,3.21,8.55,1.86,2.58,3.62,5.49,6.83,6.47,2.37.72,4.43,2.18,6.91,2.6-.76.77-2.33,4.26-.1,4.29,1.73.02.69,3.24,2.8,1.97.97-.59.87-.93,1.72-.36.59.39,1.54.19,2.06-.19,2.04-1.47,1.6.28,3.69.66,2.68.48,1.49-3.04,1.98-4.46,2.11.07,4.24-.18,6.24-.88,3.97-1.39,6.7-4.07,8.63-7.73,2.27-4.29,3.03-9.09,3.03-13.9,0-2.46.65-5.38.32-7.78-.99-2.48-2.12-4.89-3.2-7.33.41-2.3-1.05-4.56-1.97-6.54-1.07-2.3-2.06-4.64-3.02-6.99-2.08-5.03-4.08-10.13-6.83-14.85,4.98-.63,9.95-.94,14.9-1.53,2.19-.26,4.12-.82,6.23-1.3,1.75-.39,3.26-1.76,5.07-1.95,1.33-1.79,3.24-1.91,3.67-4.23.45-2.44.54-3.83-1-5.92ZM19.22,8.76s.06-.02.09-.02c-.29-.07.06-.34.09.02-.05,0-.11,0-.17,0-.31.12-1,.54-1.55.93-1.41,1.01-3.08,1.59-4.67,2.25.3-1.23,4.84-3.09,6.22-3.18ZM13.31,13.53c-.82.57-1.29,1.47-2.56,1.59.17-1.21,1.14-1.62,2.56-1.59ZM16.83,16.72c.02.45,2.3,1.25,2.56,1.28-.26,1.49-2.44,1.28-2.56,2.87-.65-.69-1.67-.75-2.55-.64.42-1.33,2.45-2.49,2.02-4.04-.51-1.8-2.23.5-3.3.53.35-1.83,2.39-2.04,3.52-3.19-.16-.32-2.87.77-1.64-.53.92-.97,2.72-.29,3.55-1.38.29-.11,1.65.36,1.6-.32.94.5-1.66,2.88.96,2.55-1.21,1.17-3.39,1.21-4.16,2.87ZM23.86,24.69c0-.31.39-.25.64-.32,0,.31-.39.25-.64.32ZM24.94,18.91c-1.18,1.83.39,1.94.52,3.55-.86-.22-1.65-.44-2.56-.32.06-.44-.1-.76-.48-.96-1.18-.82.29-1.41,1.12-1.59-.13-.69-1.13-.43-.64-.64-.47.2.91-1.43,0,0,.69-1.08,3.63-3.63,4.8-2.87.79-.28,6.44-3.42,6.49-3.29.02.07-1.19,1.44-1.2,1.46-.78,1.14-.16,1.25-.17,2.46-2.02.32-6.64.28-7.87,2.19ZM28.02,22.78c.85-.03.46-.49.14-.21.38-.58,1.1-.76,1.77-.75-.21.73.44.91.32,1.59-1.07.3-1.28-.67-2.23-.64ZM33.77,25.33h-4.47c.16-.41.38-.54.55-.53,1.26-.75,4.11-1.01,3.92.53ZM22.89,60.92c.07-.13.15-.26.21-.32,0-.07.07-.11.1.01-.02-.06-.06-.05-.1-.01,0,.04.03.09.12.11-.08-.02-.22.09-.33.21-.1.18-.18.35-.19.28,0-.05.08-.17.19-.28ZM21.94,75.06c-.2.01-.26-.04-.26-.11-.26-.31.03-1.25-.06-1.49h1.6c-.21.72-1.07.87-1.28,1.59ZM22.59,80.16c.15-.15.2-.18.22-.16.71-.41,1.93-.12,2.65-.16-.35,1.18-1.4,1.95-1.6,3.19-1.51-.04-1.32-2.08-1.28-2.87ZM36.97,96.42c-.16-.17.23-.41.32-.32.17.17-.23.41-.32.32ZM39.8,97.74c-2.12.16.37-3.47.37-.05-.19.04-.29.05-.37.05ZM50.87,43.51c2.25,4.07,5.24,7.66,7.27,11.85,2.04,4.22,3.41,8.75,4.4,13.32,0,3.83.9,9.44-2.26,12.28-1.46,1.31-2.27,2.14-3.18,3.76-.91,1.62-2.65,1.95-3.83,3.4-1-.43.6-1.41-.32-1.92-1.18.3-1.88,1.23-2.29,2.32-.79,2.14-5.51,2.52-7.62,2.79-.35-2.15-.11-5.33-3.2-5.1-.3-.61-4.24-2.36-4.16-1.27-1.25-.8-.85-2.84-2.24-3.51-.97.21-.31,3.12.32,3.51-1.04.99-2.4.58-3.52,0-.51-.52.68-1.95-.59-1.67-1.83.39-1.64,2.83-1.64,3.9.83-.31,1.04-1.22,1.55-1.85.06.27,1.22,1.34,1.74,1.52.8.29.38,1.16.55,1.92.75-.2,1.64-.55,1.6.64-1.31-.4-8.84-2.62-7.93-4.71.24-.54.68-.43,1.01-1.01.22-.29.51-.51.84-.65.72-1.56,1.03-3.3,1.92-4.78-1.32-.82-3.34-.18-4.8-.32.04-.34,1.3-2.86,1.6-2.87-.08-.89-.18-2.23.64-2.87-.71-.84-2.24-.66-3.2-.64.56-2.1,2.17-3.38,1.92-5.74-1.7-.21-3.32,1.51-3.52,3.18-.75-.85-.28-2.2.25-3.02.6-.93,2.51-.38,3.57-.59,2.3-.46,3.51-2.76.73-3.64-.76-.24-1.37-.8-.61-1.56.56-.56,1.76.11,2.44-.11,1.09.02,2.36-1.03,1.41-1.98-.93-.94-2.39-1.14-3.65-1.21.4-.71,3.41-7.14,1.66-5.59-.95.83-1.21,1.62-2,2.6-.26.32-.48.54-.62.66,0,.03,0,.07,0,.1-.15.06-.17.06-.1,0-.28-.13.06-1.6.1-.09,0,0,0,0,0,0,0-1.45.71-4.08,2.14-3.93,1.38.14,3.09-.7,4.25-1.4,1.1-.66,2.71-3.37.19-3.05-1.44.18-2.53,1.44-4.02,1.46.3-2.34,2.51-3.05,4.4-3.83.99-.41,1.54-1.43,1.36-2.54.76-.07,1.55-.18,2.26-.49,1.45-.65,2.53-3.23.5-3.9-1.73-.57-3.69.42-5.32.88.76-2.38.67-2.08,3.15-2.23,1.29-.08,2.92-.9,2.17-2.52-.53-1.15-2.72-.65-3.67-.64-1.01,0-.76-.56-1.01-1.41-.39-1.31,1.06-1,1.93-1.26,1.53-.47,3.71.92,5.42,1.05,1.84.54,4.64.03,5.52,1.57,2.13,3.73,4.37,7.4,6.46,11.18ZM75.65,22.14c-2.52.92-4.68,2.63-7.35,3.19-.64.13-5.28.49-5.43.95-.56-.23-.04-.62,0-.96-3.55-.36-6.75,1.02-10.23,1.28,0,.03-.49-3.58-1.1-1.51-.13.46-.28,2.35-1.39,1.45.09.07.85-1.73.89-1.85.61-1.5-1.75-2.75-2.88-1.92-1.49.1-.78-1.44-2.64-.18-.97.65-1.91,1.16-3.12,1.14,1.26-2.11-1.68-3.51-3.2-3.51-1.8.26-1.87,2.46-2.24,3.83-.69-.45-1.44-2.36-2.47-1.83-.71.36-.67,1.11-1.68.87.04-.83,2.67-3.2,0-2.87,1.14-2.03,4.58-1.76.83-2.6-1.38-.31,1.85-2.76,2.11-3.56.74-2.24,2.44-4.91-.68-5.47-1.02-.18-2.53-.1-2.89,1.1-.29,1.14.54,1.53.64,2.55-1.24.26-2.28,1.02-3.52,1.27.04-1.78-4.88-.8-5.76-.64,1.04-1.31,3.86-2.08,5.38-2.77,1.72-.78,3.6-1.77,5.39-2.3,2.31-.69,1.56-1.84-.53-1.07-1.57.58-3.46,1.22-5.13,1.37,1.09-1.77,3.69-1.28,5.42-2.13.16-.2.56-.56.65-.43-.22-.28-.32-.6-.32-.96,6.55,0,12.55.21,18.98,1.37,5.2.94,9,5.49,14.1,6.96,1.87.54,3.81,2.62,5.61,2.83,1.7,2.53,3.52,3.05,2.55,6.38ZM34.73,5.56c-.2.17-.42.31-.65.43-.15.18-.09.22.65-.43ZM39.8,97.74c.11,0,.23-.02.37-.05,0-.35-.74.05-.37.05ZM43.18,7.65c-2-.5-4.82-.14-4.73,2.46.13,4.18,6.43,1.82,5.31-2.02.12.93-2.01-.77-.58-.44ZM43.18,7.65c.17.04.34.09.5.15-.2-.07-.36-.11-.5-.15ZM54.23,18s.08.05.12.08c-.02-.03-.05-.06-.12-.08ZM54.23,18c-.37.73-.86.96-.64,1.91.87-.02,1.16-.69,1.6-1.28-.29-.17-.57-.36-.84-.56.09.16-.36.39-.12-.08ZM36.01,20.23c.07.39.35.2.64,0,0-.32-.56-.4-.64,0ZM44.96,20.23c.21,0,0,.21,0,0,0,1.5,1.5,0,0,0ZM62.86,22.46c.09.09.48-.16.32-.32-.09-.09-.49.15-.32.32ZM33.81,47.48c.04-.09-.02-.31-.36-.47.16.07.28.24.36.47ZM33.45,47c.52,2.18-1.37,5.15,0,7.33.1-.89.94-5.33.36-6.86-.05.1-.24.04-.36-.47ZM46.88,51.15c.23.03.44.09.63.16-.01-.04-.17-.1-.63-.16ZM49.76,53.7c-.49-1.07-1.16-2.01-2.24-2.4.03.1-.9.11-.63-.16-1.68,1.72,1.39,3.71,2.88,2.55ZM44.5,58.91c-1.06.34-1.23,1.48-1.14,2.44,1.36,1.3,1.11.29,2.18,1.02,1.21.83-1.6.92-1.54.9-.67.7-1.44,1.18-.78,2.2.67,1.05,2.57.76,2.7,2.27-1.7,0-5.02-.5-5.89,1.49-.75,1.74,2.3,2.1,3.42,2.18,1.35.09,3.79.07,4.56-1.33.85-1.55-1.76-1.46-1.45-2.98,1.19.12,6.62-1.22,3.58-3.02-.68-.4-4.69-.42-3.11-1.56,1.96-1.42,2.98-2.99,0-3.88-1.81-.54-.78-6.76-2.4-6.53.31-.04.23,1.52.09.79.13,1.19.32,2.37.44,3.57.13,1.31.59,2.04-.67,2.45ZM44.73,52.9c-.03-.26-.07-.53-.09-.79.03.39.06.64.09.79ZM40.8,84.62c1.58-.37.92-3.22.32-4.15-2.37-.38-2.69,4.27-.32,4.15ZM48.86,82.77c.15-.15.22-.35-.06-.38-.03,0,0,.15.06.38ZM48.86,82.77c-.24.25-.66.4-.06-.38-.8,1.04-2.12,1.46-3.14,2.22-1.11.83-1.28-.12-2.52.65-1.49.92.76,3.71,2.07,3.52,1.46-.21,4.81-1.13,4.56-2.9-.04-.27-.7-2.26-.92-3.11Z"/>
    </g>
  </g>
</svg>