<?xml version="1.0" encoding="UTF-8"?>
<svg id="Layer_2" data-name="Layer 2" xmlns="http://www.w3.org/2000/svg" viewBox="0 0 100.27 104.53">
  <defs>
    <style>
      .cls-1 {
        fill-rule: evenodd;
      }
    </style>
  </defs>
  <g id="food_icons" data-name="food icons">
    <g id="mustard_ketchup" data-name="mustard&amp;amp;ketchup">
      <path class="cls-1" d="M68.3,36.31c0,.1.02.15.04.17.05-.14.06-.22-.04-.17ZM82.93,20.9c-.1.12-.19.25-.24.43.54,0,.44-.52.24-.43ZM66.01,13.26c.12.03.24.05.37.1-.24-.09-.34-.11-.37-.1ZM74.06,6.98c-.47,1.34.84-.97,0,0h0ZM79.81,96.56c-.18.99,1.06-.11,0,0h0ZM99.63,65.26c0-3.3-.44-6.8-.64-10.13-.22-3.62-.75-7.21-.64-10.85-.94-3.64-1.38-7.4-2.5-10.99-.81-2.58-4.95-4.06-7.32-4.88-1.18-.41-6.07-2.72-2.9-3.38,1.73-.36,3.11-.95,3.07-2.71-.03-1.64.08-3.29.15-4.93.09-2.11.15-7.04-3.21-7.13-1.54-.04-1.9.97-2.69-.76-.55-1.22-1.41-2.25-2.05-3.41-1.21-2.18-1.5-5.06-4.29-5.9-3.06-.92-3.77,1.91-4.96,4.01-.76,1.35-1.45,2.82-2.08,4.27-.29.65-.51,1.33-.63,2.03-.63-.19-1.26-.19-1.88,0-2.53.88-.02,3.37-.36,3.5,0-.32-.26-.38-.32-.64.05.19-.46-.08-.37-.1-3.38-.86-2.68,4.86-2.34,6.96.29,1.77.41,2.72,1.96,3.56.37.2,2.34.39,2.35.73-2.98-.48-4.98,1.35-6.95,3.27-1.66,1.62-3.8,2.55-5.44,4.14-1.7,1.65-1.44,4.31-1.38,6.49.08,2.72,0,5.39-.29,8.1-.35,3.23-.9,6.43-1.41,9.64-.45,2.8-.11,5.58-.66,8.38-1.01,5.17.33,11.01.35,16.27,0,1.64.45,2.67.83,4.2.38,1.55.25,3.14.37,4.73.18,2.52.59,5.06,1.49,7.43,1,2.62,2.26,3.11,4.89,3.84,2.47.68,5.02.99,7.58.99,3.31,0,6.43,1.18,9.73,1.24,1.55.03,2.26.08,3.77-.2,1.03-.19,1.9-.32,2.93-.42,1.27-.13,2.08-.6,3.29-.36.93.18,1.77.01,2.66-.24,1.34-.38,2.92-.34,3.96-1.31.75-.7,1.34-1.53,2.08-2.24.33,2.82,4.44,1.21,4.47-.96v-12.62c0-6.56-.64-13.09-.64-19.64ZM84.92,21.33h-2.24c.07-.28.16-.39.24-.43.49-.57,1.46-.65,1.68-1.49.71.04.19,1.52.32,1.91ZM74.06,6.98c.83-.97.71-2.9,2.24-3.19.16,2.63,2.2,4.72,3.2,7.01h-7.04c.11-1.48,1.13-2.49,1.6-3.83ZM72.84,16.04c1.02-2.02-3-.51-1.56-2.28.35-.43,4.91.27,5.33.55,2.8.14,5.54-.36,8.31-.64v4.46c-1.06-.11-1.84.29-2.77.7-.5.22-2.3.21-2.76.55.12-.15.3-.32.41-.3-.27-.06.48-.9,0,0,.49-.92,1.42-1.46,1.6-2.55-2.36.03-4.72,2.18-6.35,3.71-.37.35-3.01,1.61-2.72.26.21-.99,1.87-.95,2.04-2.06-2.35-1.3-3.53,2.67-5.76,1.59.64-2.07,3.3-2.18,4.22-4.01ZM78.85,21.01c-.04.7-1.36.14-1.92.32.32-1.05,1.29-1.09,1.92-.32ZM63.19,36.95s0,0,0-.02c-.02.01-.03.02-.03.03-.39.14,0-.41.03-.03,0,0,0,0,0,0-.02-.77.17-.83,0-1.58-.97-.08-1.95,0-2.88.32.94-2.19,3.79-.28,5.44-.32-.54.37-2.3,1.39-2.56,1.58,0,0,0,.01,0,.02ZM58.07,81.26c-.37-.05-.27-.58-.32-.96.66.18.67.5.32.96ZM58.39,34.4c-.27-.06-.36-.45-.28-.48-.09-.24-.1-.51-.03-.8,2.36,0,0,.44.32,1.28ZM78.21,98.47c.09-1.03,1.42-.95,1.6-1.91.66-.07,2.17-2.02,2.24-1.28-.06,1.16,1.22,1.45,1.28,2.55-1.74-.03-3.42.31-5.12.64ZM87.16,96.56c.67-2.68,3.6-3.95,4.16-6.69-1.21-.65-2.33.04-3.23.83-1.13.99-1.51.86-2.88,1.24-2.3.65-4.49.49-6.03,2.7-.36-.3-.36-.61,0-.96-.84.04-3.9,2.07-3,.29.73-1.44-2.19-.15-2.75-.29-.11-.58,0-1.11.32-1.59-1.14.37-3.42.1-3.83,1.59-.87-.51.11-2.26-1.6-1.59,1.34-2.63,1.16-.47,2.88-.96.82-.1,1.55-.5,1.92-1.27.64.66,1.04-.05,1.6-.32-.22-.35-.54-.45-.96-.32.79-.92.71-2.39.64-3.51-1.76.22-3.67.76-4.79,2.23-.75-.14-.19-1.76-.32-2.23-2.71,1-4.11,4.9-6.71,6.38-1.19-.73,5.38-6.77,5.75-7.97-2,.29-3.87,3.19-5.43,3.19,0-.04.56-3.61.64-4.78.83.03.46,1.25,1.28,1.27,1.02-.11,1.39-.98,1.89-1.72.45-.66,4.58-4.81,1.94-4.65.07-1.14,1.1-1.77,1.28-2.87-1.52.29-1.74,2.01-2.23,3.19-1.47,1.1-2.73,2.48-3.52,4.14-1.38-1.49-2.32,1.21-3.84.32.55-1.72,2.07-2.91,2.69-4.65.74-2.05,1.03-2.14-.77-1.09-.63-.07.37-3.91.32-4.46-1.32.21-1.34,1.89-2.56,2.23-.02.25-1.11,2.87-1.32,2.03-.09-.37.8-2.41,1-2.66,0-.98-.5-3.59.64-4.14.12-.48-.62-2.1-.62-2.81,0-1.64-.09-3.28,0-4.92.16-2.71-.17-4.98-.34-7.79-.08-1.38-.47-1.28.32-2.45.36-.58.68-1.18.96-1.8-.26-.95-.9-.21-1.6-.32,0-.5.29-5.78-.32-5.74,1.05-1.88,2.55-3.48,3.52-5.42,1.15.83.73,1.65,2.46.87,1.01-.46,1.16.49,2.13-.43.33-.32,1.18-1.48,1.46-2.04,0-.11.02-.21.02-.31.38-.16.15.27.04.17-.02.04-.03.08-.06.13-.05.57-.15,1.27.3,1.63.3.35.53.35.67-.02.84-.2.76.84,1.6.64,1.87.19,3.7-1.17,4.15-2.87,1.09.18,1.19,1.07,2.04-.48.39-.72.53-1.62.2-2.39-1.09-.05-.96,1.08-1.6,1.59-.74-.06-.06-1.96-1.26-1.18-.52.34-.49.98-1.3.86-.31-1.87-2.77-1.68-4.16-1.59,1.55-1.53-.36-2.55-1.6-2.55-.6.14-1.44,1.5-.64,1.91-.79,1.42-4.96-.7-6.07-.64.72-2.31,4.64-1.58,6.39-1.6.87-.33,3.51-2.74,1.19-2.91-.92-.07-1.87.23-2.78.04-.25-.95.93-.64,1.44-.61.88.05,2.88.34,3.53-.33.92-.96.09-.52-.14-1.4.03.11,5.78.4,6.41.42,1.34.05,2.68.05,4.02.03,1.98-.02,1.2.18,2.08,1.56,1.83,2.89,5.58,3.58,8.25,5.44-.31.43-2.04,1.05-2.56,1.27-1.16.5-3.35.69-4.63.7-.78.01-3.2.56-1.66,1.75.89.68,2.65.53,3.93.49,2.25-.08,4.79-.95,6.3-2.61.95-1.04,2.17,6.88,2.2,7.8.48,16.96,1.94,33.88,1.86,50.85-3.89-.33-5.53,3.64-9.27,4.15ZM58.11,33.92c.06.17.15.33.28.48-.15-.38-.24-.49-.28-.48ZM42.62,52.54c-.09-3.15-.14-6.3-.04-9.44.07-2.38.79-5.28.17-7.54-.51-1.83-.19-3.78-.67-5.62-1.64-1.56-3.73-2.54-5.75-3.51-1.45-1.1-3.9-1.8-4.67-3.63-.56-1.36.83-3.58.84-5.07.02-1.63.28-4.02-.97-5.32-1.12-1.03-2.5.58-3.53.18-.07,0-.17-.06-.3-.18.38-2.76-1.36-4.05-2.24-6.38-.14-1.29-.77-3.86-1.6-4.91-2.3-2.93-4.48,2.95-5.71,4.28-1.2,1.31-2.69,3.04-2.91,4.89-.25,2.07,1.56,2.62,2.38.68.58-1.39,1.29-2.56,2.28-3.68.34-.39,1.33-2.21,1.89-2.21-.02,0,1.16,3.55,1.38,3.88.92,1.41,1.08,3.17,1.65,4.73-2.37.11-4.76,0-7.11-.37-1.74-.27-3.43-1.02-5.17-.72-2.46.42-3.57.77-4.01,3.38-.21,1.24-.83,3.97-.11,5.08.49.75,1.52.82,2.01,1.56-.51.95-1.02,1.89-1.58,2.8-1.08,1.78-2.34,3.48-3.98,4.79-.83.67-1.76,1.23-2.75,1.65-.04.99-.56,1.69-1.28,2.31-1.42,1.23-.64,5.42-.64,7.29,0,10.82,1.31,21.61,1.29,32.48,0,2.82.2,5.49.41,8.28.08,1,1.05,4.16.29,4.86-.92.85.65,2.55.57,3.76.22,1.76-.85,3.73.12,5.3,1.83,2.97,7.03,5.67,10.33,6.42,4.92,1.11,9.19,1.99,14.27,1.99s11.06-1.58,15.56-4.14c2.84-3.79,1.98-10.01,1.79-14.44-.47-11.17-1.89-22.21-2.22-33.4ZM10.74,16.41c.21-2.24,1.8-1.2,3.51-.8,2.9.68,5.77,1.28,8.73,1.29.81-.08,2.15-.18,1.75-.09,1.66-.29,3.29-.71,4.89-1.23-.02,1.6.47,3.69-1.04,4.7-1.85,1.24-3.12.93-5.33.8-3.69-.22-7.41-.43-11.05-1.12-1.79-.34-1.61-1.91-1.46-3.56ZM6.93,38.22c.2.83-.84.76-.64,1.59-.15-.03-.25-.08-.33-.13-.77-.43.11-1.47.97-1.47ZM5,37.58c.25-.58.34.19.32.64-.25.58-.34-.19-.32-.64ZM5.65,40.14c.08.93-.72.98-.64,1.91-1.14-.19-.42-2.04.64-1.91ZM42.09,96.88c-1.37.63-2.75,1.23-4.16,1.77-2.68,1.02-5.46,1.75-8.31,2.06,1.01-.92,2.88-.97,3.2-2.55-.93-1.59-2.75.95-3.84.39-1.56-.79-2.92-1.35-3.79.61-.93,2.1-1.99,1.55-4.2,1.55-.1-1.24,2.52-1.73,2.56-3.19-.34-1.17-2.77-.14-3.8-.83-.57-.38-1.38.19-1.82-.17-.33-.27-.12-.98-.77-.91-1.54.06-2.91,1.89-4.47,1.27.02-1.27,2.5-2.35,3.37-3.21,2.39-2.35-.7-1.89-2.08-2.21.73-1.44-1.25-1.89-2.24-1.91.3-.92,2.54-3.2,1.16-4.02-1.03-.61-2.38.36-3.4.51.51-2.31-1.54-.31-2.23-1.27.2-.68,3.67-6.54.32-5.1.23-.87.76-1.7.67-2.64-.42-.54-.46-1.1-.12-1.68.41-1,.98-1.81.5-2.9-.7-1.6-1.05,1.09-1.05-1.71-.07-.25-.23-.43-.46-.54-.91-.07-.15-.47-.5-1.38-.04-1.69-1.67.91-1.02-1.56.35-1.33.66-2.86.06-4.17.7-1.75.86-3.68,1.11-5.53.24-1.8-.86-1.6-.79-.52-.93-.38,1.56-7.01,1.6-7.97-1.08.85-1.47,2.28-1.92,3.51-1.34-2.11.5-4.25,1.3-6.16.59-1.4.25-.91-.36-1.64-.31-.37.67-1.91.8-2.25.34-.86,1.67-2.2,1.52-3.07-.08-.41-.62-.74-.61-1.15.04-1.43,2.99-.68,3.64-.73,1.78-.15,3.66,1.22,5.18.84.82-.21,2.4.19,2.98-.43.69-.75.69-.33,1.01.23,1.04,1.82,2-.45,1.8-1.53-.44-2.53-1.01-.12-1.92-.37.25-1.62-1.94-2.72-2.56-.96-.82-.07.05-1.82-1.28-1.28-1.12.46-.46.33-1.1-.38-.46-.51-2.96-.51-2.41-1.85-.86-.08-1.81.01-2.45.66-.92.94-.62-.17-1.44.52-1.16.97-2.01.77-3.46.41.5-1.44,1.82-2.2,2.88-3.19-1.05.97,1.14-2.37,0,0,1.17-2.43,2.78-4.6,3.2-7.33,1.44.08,2.76.63,4.15.96,1.69-.08,3.37.05,5.05.23,1.62.17,3.23.37,4.86.41,1.14-.14,1.99-.81,3.2-.64,1.13.24,1.19,1.55,1.92,2.23.96.62,1.87,1.32,2.78,2,2.19,1.65,5.61,2.48,5.21,5.65-2.61.28-5.55,1.22-8.07,1.97-.96.29-2.32,1.23-.77,1.95.88.42,2.04.09,2.94-.02.8-.1,5.09-1.98,5.27-1.27.67,2.64,0,6.3,0,9.02v10.99c1.06,1.6.64,5.6.64,7.41,0,2.75.53,5.53.89,8.26.83,6.47,1.59,12.95,1.71,19.48.03,1.78.02,3.56-.04,5.34ZM5.96,39.69c.09.05.19.1.33.13-.2-.84-.78-.41-.33-.13ZM24.51,16.86c-.51.04-1.02.05-1.52.04-.81.08-1.07.14,1.52-.04ZM27.71,12.4c.1.09.2.14.3.18.4.05-.14-1.33-.3-.18ZM80.5,34.57c.04.3-.52-.28-.56-.45-1.16-.34-2.24,1.04-1.41,2.18,1.25,0,2.48-.21,1.97-1.74ZM79.94,34.13c.17.05.34.14.51.27-.42-.33-.53-.35-.51-.27ZM25.14,38.54c-.88-.99-2.27.4-1.28,1.28,1,.15,1.43-.28,1.28-1.28ZM78.21,47.15c1.82-1.03,5.84-3.48,6.81-5.86-.04-.26,0-.84.22-.84-1.37,0-9.4,4.98-7.03,6.7ZM85.24,40.45c-.02.28-.1.56-.22.84.04.24.14.21.22-.84ZM35.05,49.06c.16.15.29.31.4.49.12.06.09-.04-.4-.49ZM34.76,48.96c.1.04.2.06.29.1-.18-.08-.26-.11-.29-.1ZM36.03,53.83c.03-1.28.18-3.09-.57-4.27-.2-.09-.8-.56-.69-.59-1.86-.68-4.65.1-6.55.1-2.3,0-4.45-.22-6.73-.37-3-.2-6.98-.93-9.75.39-1.81.87-1.27,2.43.64,2.34,2.44-.11,4.88-.13,7.33-.13,4.05,1.3,9.28.85,13.43.32-.4,4.35.92,8.19,2.56,12.11-2.12-.18-5.13.33-6.83,1.56-1.59,1.15-3.79,3.29-5.64,3.86-.59-1.95-3.6-2.8-5.28-3.26-1.52-.42-3.14-.25-4.7-.25-1.95,0-1.2-1.07-1.2-2.71,0-2.8-.69-5.39-.94-8.15-.06-.75-.16-2.64-.62-3.21-1-1.26-1.05,1.01-.97,1.37.63,2.79.29,5.86.29,8.72v4.11c0,1.34-.6,2.51.8,2.83,1.38.32.68.08,1.7,1.02.5.46,2.22.16,2.82.16,2.42,0,4.49,2.43,6.82,3.19,1.7-.67,4.46-1.81,5.76-2.87,1.6-1.31,3.73-2.23,5.75-2.23.77-1.52,2.2-1.46,3.52-2.23.27-.49.25-.95-.07-1.38-.53-.73-.37-1.08.48-1.07.81-.72.43-1.54.08-2.32-1.08-2.39-1.5-4.44-1.45-7.04ZM65.22,51.12c3.66-.55,7.62-.14,11.31-.14s7.38.51,10.83.28c1.73-.11.74,1.93.75,3.09.01,1.39-.13,2.85.02,4.23.12,1.09,1.1,1.82,2.14,1.09.93-.65.84-2.13.8-3.11-.05-1.31-.28-2.67-.07-3.98.02-1.29,1-2.55.32-3.83.63,1.17-6.29-.32-2.08-.15-8.03-.52-16.1.02-24.14-.17-.71.48-2.21.2-2.54,1.19-.55,1.71,1.67,1.65,2.65,1.5ZM89.24,48.59c.69.05,1.39.08,2.08.15-.89-.08-1.56-.13-2.08-.15ZM64.47,64.36c2.83,1-.02-4.02,0,0h0ZM72.73,75.24c-1.6,1.81-2.52,3.9-2.51,6.34,2.49-.82,3.75-3.13,4.94-5.28.6-1.09,1.23-1.94,1.51-3.11.2-.81-.06-1.03-.02-1.68-.03.54,2.9.14,3.27-.08,1.04-.61,2.03-1.28,3.08-1.87,1.69-.95,3.23-1.97,4.93-2.91.95-.52,1.92-1.12,2.44-2.1.61-1.15-.15-1.44-.65-2.42-1.8-.28-2.5.79-3.85,1.62-2.16,1.33-4.3,2.47-6.02,4.32-1.36,1.46-3.19.84-4.52-.52-1.67.39-3.27-1.15-4.75-1.63-2-.65-4.13-.85-6.12-1.56-.02-3.33-1.07-6.55-1.02-9.88.03-1.42-1.29-5.98-2.73-2.58-1.24,2.91.02,6.97.42,10.05.23,1.72-.69,5.64.78,6.88,1.4.25,2.17-.13,2.47-1.37.27-1.17,2.08-.09,2.74.08,2.65.71,5.22,1.65,7.69,2.61,2.95,1.15-.78,3.61-2.08,5.09ZM22.78,54.5c-.66.79-1.32,2.32-2.24,1.39-1.79-1.83-3.88-.15-4.52,1.54-.32.82-2.2,6.94.57,5.9,2.12-.8.61-4.76,1.84-5.34,1.1.74,2.42,2.47,3.95,1.77.83-.38,1.12-1.36,2.12-1.45.07,1.42,1.12,3.76,1.82,5,1.19,2.09,2.08.27,3.29.1.17-2.32-1.52-8.23-3.34-10.02.38.48-1.25.04-1.33-.16-.84.13-1.56.56-2.17,1.28ZM26.11,53.21c-.93-.12-1.19-.08-1.15.02.36-.06.74-.07,1.15-.02ZM80.9,57.96c1.22-2.85-2.24-2.15-3.52-.89-1.2,1.19-1.98,2.84-3.65,3.47-.25-1.97-.16-4-.55-5.95.18,1.13-.63-.36-.09-.42-.89.11-1.47-.62-2.24.32-.54.66-.44,2.02-.45,2.79-.03,2.4.21,5.46,1.89,7.34,1.47,1.65,2.67-1.9,4.36-.81.83.53,4.33,3.05,4.81,1.11.5-1.98-1.01-2.41-2.47-3.47-1.83-1.34,1.3-2.12,1.89-3.48ZM73.1,54.16c.03.14.06.28.09.42-.02-.12-.04-.25-.09-.42ZM90.68,72.65c1.53.04,2.11-.87,2.56-1.91-1.56-.06-2.73.25-2.56,1.91ZM87.8,75.52c.93-.66,1.69-1.5,1.92-2.87-1.19.2-2.9,1.56-1.92,2.87ZM10.12,73.61c-.01.34.15.81.32.32.02-.34-.15-.81-.32-.32ZM11.08,76.79c.09.09.48-.15.32-.32-.09-.09-.48.15-.32.32ZM82.05,77.11c.47-.19-.03-.38,0,0h0ZM72.46,83.49c1.3.4.97-.71,1.92-.96-.76.2.39-2.15,0,0,.38-2.08,2.43-3.1,2.24-5.42-2.4-.26-4.14,4.55-4.16,6.38ZM79.32,80.92c.42-1.51,1.86-2.14,2.6-3.56-.41.65-.93.37-.58.05-.94.59-1.43,1.74-2.49,2.24.34-1.57-3.29,1.83-3.7,2.17-1.27,1.06-.92,3.5.95,2.58,1.49-.74,2.76-1.84,3.22-3.49ZM81.34,77.42c.21-.13.44-.25.71-.31-.37.08-.59.2-.71.31ZM92.28,77.43c0,.18.26.36.32,0,0-.18-.26-.36-.32,0ZM88.12,79.34c-.59.8-1.21,1.59-1.93,2.29-.21.2-1.21.85-1.58,1.13,0,.03,0,.06,0,.09-.11.04-.14.05-.12.02-.22-.03.08-.6.12-.11,0,0,0,0,.02-.01.04-.68.49-1.07.31-1.82-3.7.44-6.54,5.54-8.64,8.16-1.43,1.78-.79,4.1,1.38,2.03,1.19-1.13,1.76-2.9,3.43-3.5-.41,2.93,2.01.64,2.83-.37.66-.82,2.69-1.63,2.87-2.45.52-2.36,2.34,1.52,2.82-1.22.23-1.32.04-3.21,1.07-4.25-.93.09-1.65.44-2.56,0ZM84.48,82.88s.07,0,.12-.02c0-.04,0-.05,0-.08-.07.05-.11.09-.12.11ZM89.5,85.77c-1.39.38-5.59,3.18-3.54,3.86,2.05.67,3.38-2.42,3.77-3.9-.48,1.83-1.1.33-.23.04ZM28.91,86.35c.09-.14.01-.32-.57-.31.32,0,.5.12.57.31ZM28.34,86.04c-.21,1.09-2.64,2.49-.96,3.51.39-.39,1.81-2.41,1.52-3.19-.14.22-.7.36-.57-.31ZM25.14,87.63c.42.79-.94,1.32,0,1.59.19-.19.75-1.51,0-1.59Z"/>
    </g>
  </g>
</svg>