<?xml version="1.0" encoding="UTF-8"?>
<svg id="Layer_2" data-name="Layer 2" xmlns="http://www.w3.org/2000/svg" viewBox="0 0 82.32 102.71">
  <defs>
    <style>
      .cls-1 {
        fill-rule: evenodd;
      }
    </style>
  </defs>
  <g id="food_icons" data-name="food icons">
    <g id="onion">
      <path class="cls-1" d="M34.12,92.26c0,.09-.01.17-.03.24.13-.4.08-.36.03-.24ZM79.15,60.94s0,.01,0,.02c0,.03,0,.03,0-.02ZM82.31,61.88c.12-2.41-1.14-4.24-1.93-6.49-.63-1.81-.99-2.86-1.23-4.65-1.16-1.81-2.64-3.43-3.51-5.42-1.81-1.62-3.96-2.82-5.75-4.46.42.13.74.03.96-.32-4.93-2.83-10.67-4.82-14.67-8.75-1.57-1.55-3.25-2.95-4.16-4.99-.26-.59-.03-1.77-.9-1.79-.43,0-.8.52-1.23.35-1.28-.51-.21-3.82.82-4.27,1.97-.21,3.68.96,5.65.96,4.52,0,8.69-.73,12.29-3.64,4.2-3.38,3.48-8.29,3.48-13.26-.6-1.33-.96-2.76-1.49-4.12-.55-1.39-1-.97-2.34-.97-.64.7-.66,1.81-.67,2.68,0,1.49-.51,1.92-1.46,3.05-2.98,3.57-4.45,6.14-9.31,4.26-2.62-1.01-4.67-2.35-7.49-2.35-2.56,0-4.15.19-6.45,1.38-3.79,1.96-7.22,3.32-6.2,8.28.76,3.64-.88,9.08-4.2,11.17-1.59,1-2.95,2.17-4.63,3.08-1.18.64-1.47.27-2.01,1.48-.44.99-1.28,1.12-2.22,1.45-2.57.88-4.86,2.11-7.08,3.65-1.95,1.35-3.44,2.8-5.28,4.35-3.15,2.67-8.36,5.15-9.11,9.38-.27,1.52-.09,2.26-1.07,3.56-.77,1.02-.75,1.77-.99,3.05-.37,2.04.11,4.37.77,6.34,1.44,4.34,3.66,8.49,5.98,12.41,2.62,4.44,5.87,8.73,10.33,11.33,2.18,1.28,4.05,1.89,6.66,1.65,1.11-.83-1.01-.91-1.12-1.4-.04-.24,4.07,1.03,4.53,1.18,1.22.42-.33,1.48-.57,1.99-.74,1.6,1.62,1.37.55,2.69-1.3,1.62-2.27,4.36.99,4.2,2.63-.14,4.32-1.56,6.8-1.97.11,1.28-.32,7.67,2.77,4.49,1.55-1.6,1.98-4.57,3.95-5.77-.09,1.59,0,6.83,2.24,7.01,2.29-1.44.06-7.59-.32-9.57,3.16,3.38,2.12-4.92,1.02-4.36-1.8.94,0,3.83-3.25,2.13.16-.45.47-.66.96-.64-.12-1.24-1.62-1.55-1.6-2.87-.41-1.06.86-.68.64-1.6-2.97-1.9-2.1,1.95-3.52,1.91-.1-.89-.55-5.89-1.94-2.34-.44,1.12-.33,2.48.02,3.62.56.54,1.41.66,1.92,1.27-.7.12-3.08-.01-1.92-1.27-3.45.25-.95-3.25-2.88-4.46-.98.41-.16,2.38-1.6,2.23.29-1.25-.29-1.65-1.12-1.97-1.08-.42-.68-1.59-.95-2.45-.51-1.6-1.5.76-2.8.61-.79-.09,1.66-3.45,1.98-3.76,1.11-1.09,1.98-2.34,2.25-3.91-1.85.09-2.85,1.32-3.95,2.62-.85,1-2.86.29-2.44,2.8-.34-.04-.66-.15-.96-.32-.06.61.42,2.47-.64,2.55-.19-2.24-.8-2.73,1.15-4.06,1.04-.71,1.68-1.67,1.73-2.96-1.58-.35-1.76,1.8-2.94,2.11.36-.09-.79-1.35-1.35-1.43-.31.3-.67.38-1.08.22-.15-.29-.38-.48-.7-.58-.38,1.14-.81,2.51-2.05,3-1.89.75-2.46-.79-2.31-2.3.17-1.72.33-3.77,1.48-5.16,0-.72.5-2.74.36-3.3-.02-.1-2.39,1.49-2.62-1.14-.2-2.25-2.55-.24-2.85-1.93-.73-3.74,2.6-6.09,3.83-9.25-.65-.08-1.33-.61-1.92,0,.04.46-.43-1.45-.96-1.91-.06.79-1.1.67-1.6.64-.29.56-.57,1.13-.86,1.7-.34.68-.92,2.84-1.71,3.08.14-1.06.41-3.22.32-4.14-.12-1.37-.84-.92-.17-2.4,1.23-2.75,2.21-4.64,4.27-6.86,1.09-1.18,2.12-2.42,2.94-3.81,1.28-.41,2.37-1.16,3.43-1.96,1.02-.78,2.04-1.59,3.23-2.12.03,0,1.81-.71,1.02-.38.47-.2,0,.11,0,0,0,1.01-.34,1.11,1.12.55,1.09-.42,2.57-.52,3.35-1.5,2.86-.84,5.34-3.62,7.49-5.52,1.92-1.7,2.65-2.32,3.13-4.83.29-1.52.66-3.01,1.01-4.51.46-1.93.86-3.88,1.06-5.86.13-1.29-.63-2.11-.54-3.19,2.52-.84,4.79-2.26,7.48-2.59,3.35-.4,5.3,1.23,8.25,2.37,1.62.63,3.33.94,5.07.92,1.59-.02,2.04-.97,3.5-1.34.86-1.31,2.14-2.36,3.08-3.63.29-.39.9-1.55,1.48-1.72.66-.2.11,6.86-.09,7.57-.55,1.96-2.83,2.87-4.64,3.47-2.91.96-6.08,1.12-9.1.69-1.55-.22-2.68-.96-4.32-.96s-.75.42-1.88.58c.24-.04,2.97-5.39-.55-3.48-.96.52-1.85.75-2.02,1.82-.2,1.28-.41,2.56-.56,3.85-.3,2.47-.58,5.29.35,7.67.75,1.91,1.12-1.25,2.77-.06,1.92,1.39,3.37,3.58,5.41,4.75,1.61.92,3.43,2.1,4.57,3.52,3.14,3.91,8.33,5.38,11.58,9.17,3.78,4.41,5.31,10.33,6.19,15.93.44,2.81.22,5.85-.14,8.53-.54,1.12-.81.84-1.03,2.33-.12.87-.46,1.68-.93,2.42-2.02,3.15-6.23,7.33-9.78,8.74-5.05,2.01-9.27,5.13-15.12,4.04-.13.39.39,1.88-.32,1.91-.12-1.58-1-2.78-2.56-3.19-.2,1.63.79,3.59,1.28,5.1.21.49,1.22,0,1.28.64-.41.61.05,1.78-.64,2.23-.44-2.09-2.1-2.98-2.45-.43-.18,1.35-.09,2.93.66,4.11,1.19,1.83,3.44,1.06,3.39-1.13,1.65.45,1.28-3.07,1.28-3.72,0-2.15,1.91-1.77,3.83-2.02.72-.5,1.73-.34,2.53-.58,1.7-.51,3.52-1.29,5.29-1.68,1.21-.27,1.33.15,2.32-.56.7-.52,1.58-.69,2.32-1.13,1.73-1.01,3.89-1.56,5.23-3.04.72-.8,7.75-8.91,6.24-9.55-.42-.18,1.67-5.2,1.87-5.99.57-2.23.88-4.51.99-6.81ZM41.12,90.59c-.79,1.29-1.3-.07-2.56,0,.44-.82,1.96-.07,2.56,0ZM37.92,91.55c1.87-.32,1.76,3.11.34,3.73.53-.29-.34-1.01-.34.09v-3.82ZM34.08,92.5c-.05,0,0-.15.03-.24.05-.81-.5-2.22.6-1.99,1.57.87-3.03,5.21-3.08,4.64-.05-.6,1.96-2.4,2.44-2.4ZM20.34,80.71c-.14.46-.28-.04-.64,0,.08-.4.63-.32.64,0ZM79.48,61.9c-.3-.24-.4-.55-.32-.93,0-.04-.03-.13-.05-.23-.34-1.65-.96-3.23-1.23-4.89,1.13,1.86,1.7,3.87,1.6,6.05ZM79.11,60.74c.01.07.04.14.05.21-.23-1.21-.12-.61-.05-.21ZM58.91,49.53c.14.33.38.82.75,1.54-.27-.51-.51-1.02-.75-1.54ZM59.66,51.06c0-5.75-1.75-9.47-4.92-14.11-1.28-1.87-3.83-3.39-5.62-4.9-1.41-1.19-2.88-2.27-4.8-2.34-2.93-.09,2.01,2.84,2.41,3.11,2.24,1.5,4.3,3.26,6.11,5.27,2.99,3.3,4.24,7.5,6.08,11.45-.65-1.51.75.49.75,1.54ZM34.09,41.92c-.48.45-2.49,2.67-2.57,2.45.02-.19.05-.38.32-.32-.27-.06.57-1.98,0,0,.81-2.82,5.56-7.19,4.48-10.2-3.85.84-6.67,8.32-8.02,11.45-1.16,2.69-2.15,5.45-2.87,8.3-.62,2.47-.5,4.84-1.26,7.35-.34,1.27.96.94.2,2.11-.27.4-.77,1.42-.49,1.92.95,1.68-.95,1.4-2.22,2.87-1,1.17-3.03,2.49-2.61,4.25-.99.35-2.73,2.81-1.6,3.82,1.25-2.13,3.04-3.86,4.62-5.73.92-1.09,1.77-2.24,2.41-3.51.77.6,1.38.04,1.71-.69.99-2.2.29-3.86,2.54-5.19,1.54-.91,2.5-2.16,2.46-4.01-.57-.1-2.84.73-3.6,1.28-.13.14-.22.26-.24.31-.02-.08.07-.19.24-.31.59-.64,2.12-1.94,2.45-2.24,1.09-1.01,2.23-1.91,2.42-3.5-.32-.23-1.83-.55-1.79-.15-.14-1.56,3.88-1.95,1.74-3.84-.54-.48,2.72-4.08,3.34-4.84,1.62-2,.31-3.46-1.68-1.59ZM46.87,66.05v3.35c0,1.08-.56,4.16.32,4.94.96-2.26,1.42-4.69,1.56-7.13.1-1.77.17-2.37,1-3.87.58-1.05.87-1.07.77-2.25-.15-1.6,1.53-2.62,1.47-4.29-.79-.75-2.34.12-2.56.3,0,0,0,.02,0,.02,0,0,0-.01,0-.02-.02.01-.02.02-.03.03-.41.09.05-1.92.03-.03,0,0,0,0,0,0,.03-1.29,1.22-5.63-.84-5.68-1.69-.04.04-2.6-2.48-1.76-1.12.37-1.26-.29-1.84.94-.39.81-.78,1.63-1.06,2.49-.32.99-.49,2.03-.48,3.07.1.75.98.69,1.28,1.28-2.28.82,1.97,2.81,1.92,2.55-.11.88-.05,1.9.64,2.55-.67.35-.69,1.27-.64,1.91.1.8,1.1.63.96,1.59ZM71.81,58.39c.32,0-.02.41,0,0-.09,2.1-.2,6.29,1.6,7.97.47-1.79.75-7.97-1.6-7.97ZM27.05,65.72c2,.32,4.76-1.62,5.33-3.72-.09-.07-.16-.75.11-.75-1.69,0-5.13,2.49-5.44,4.46ZM32.48,61.26c0,.25-.04.5-.11.75.05.04.11-.12.11-.75ZM24.81,72.1c-.26,0-.42.02-.53.06.16-.04.34-.06.53-.06ZM24.28,72.16c-1.24.27-1.51,1.56-1.39,2.82.81.22,1.98-2.19,1.92-2.87.07.79-1.12.24-.53.06ZM20.34,74.01c.87-.02,1.16-.68,1.6-1.28h-.96c.32,0,.24.87,0,0,.23.84-.63.59-.64,1.28ZM58.76,76.89c-.69.86-1.2,1.86-1.66,2.86,2.47.41,2.98-3.33,1.92-3.18.3-.04-.38.55-.25.32ZM58.76,76.89c.09-.11.16-.22.25-.32-.16.18-.22.27-.25.32ZM34.72,77.84c-.52.76-1.15,1.4-1.6,2.23,1.01-.07,2.14-1.67,1.6-2.23Z"/>
    </g>
  </g>
</svg>