<?xml version="1.0" encoding="UTF-8"?>
<svg id="Layer_2" data-name="Layer 2" xmlns="http://www.w3.org/2000/svg" viewBox="0 0 114.28 82.7">
  <defs>
    <style>
      .cls-1 {
        fill-rule: evenodd;
      }
    </style>
  </defs>
  <g id="food_icons" data-name="food icons">
    <g id="orange">
      <path class="cls-1" d="M109.53,54.54c-.22-4.35-.36,2.2,0,0h0ZM88.45,30.75c-.12-.04-.23-.08-.35-.11-.31-.03-.61-.02-.92-.03.18.07,1.54.26,1.26.14ZM89.71,58.37c1.03,1.1-.6-1.42,0,0h0ZM80.76,73.03c.51.52,1.7-5.1,0,0h0ZM58.38,70.48c.61-.07.25-.29,0,0h0ZM100.25,35.1c-1.85-.28,1.62,2.42,0,0h0ZM113.4,48.44c-.24-1.02-.98-2.24-1.51-3.17-.72-1.27-.74-2.77-1.29-4.13-1.97-4.82-6.03-8.35-10.77-10.38-1.38-.59-2.83-.88-3.38-1.82-.14-.24-1.4-2.18-1.63-.54-2.08.49-4.9-1.7-7.03-1.91-2.72-.15-5.38.23-7.99.96-1.21-4.56-3.75-8.53-5.75-12.75-3.37-2.06-6.84-4.81-9.59-7.65-3.98-.9-6.51-3.8-10.11-5.46C50.12-.36,45.73.03,41.2.03s-8.91.67-13.12,1.75c-4.36,1.12-7.31,3.12-11.04,5.52-4,2.58-8.32,5.21-11.83,8.46-2.7,2.5-3.9,6.94-4.69,10.41-.94,4.63-.14,9.1-.42,13.71-.27,4.5-.1,9.1,1.96,13.13,2.36,4.62,4.3,9.51,7.26,13.78,1.38,2,2.82,4.16,4.64,5.79,1.05.95,1.61,2.5,2.75,3.29,3.94,2.73,9.38,4.17,13.86,5.76,4.23-.12,8.44.5,12.68.44,3.19-.05,5.56-1.74,8.54-2.71,3.15-1.02,7.92-2.34,10.1-5.06,2.06,2.21,4.68,3.78,7.26,5.28,2.88,1.67,5.27,2.09,8.56,2.53,3.14.43,6.68.99,9.77.14,2.88-.79,5.71-1.79,8.45-2.98,4.35-1.89,9.98-3.05,13.2-6.63,1.85-2.05,2.93-3.89,4.08-6.39,1.09-2.37.74-6.04.97-8.7.29-3.3-.05-5.99-.77-9.1ZM95.46,33.5c1.93-.17,3.02,1.33,4.79,1.59,1.61,2.41,3.38,4.7,5.12,7.02-2.38,1.43-5.11,2.53-7.57,3.92-3.07,1.73-6.4,3.44-9.69,4.68,2.49-3.96,4.21-7.48,5.57-11.98.47-1.56,1.71-3.64,1.78-5.24ZM82.03,31.13c1.72-.28,3.42-.55,5.16-.52-.09-.04.1-.05.92.03.19.05.3.09.35.11,1.43.47,2.67,1.38,4.13,1.8-.69,2.05-1.37,4.1-2.05,6.15-1.19,3.54-3.06,6.64-4.34,10.11-1.29-1.09-1.76-4.55-2.54-6.14-.91-1.87-1.8-3.77-2.3-5.79-.4-1.61-1.32-5.42.69-5.74ZM12.03,56.77c-.11-.09-.17-.19-.22-.3.06.12.13.22.22.3-.12-1.02-.37-.86-.3-.5-.32-.89-.11-2.44.3-3.01,1.81.49-.16,2.22,0,3.51ZM55.97,70.84c-1.07.74-2.3,1.22-3.42,1.91-1.91,1.19-1.96.15-4.08-.03-1.34-.05-1.46,1.17-2.24,1.91-1.25.08-3.34.31-4.15-.96-.96-.14-.8.85-1.6.96h-2.35c-1.66,0-2.07.26-3.41-.64,1.19-1.01,2.5.75,2.68-1.66.13-1.74-.9-1.52.77-2.39,2.49-1.31-2.23-4.64-1.85-.41-2.37-2.3-2.89,1.62-2.88,2.87-1.55-1.2-3.06-2.46-4.47-3.82-1.08.66-.61,2.25-.05,3.08.83,1.22,1.13-.22,1.91-.13,1.08.12,1.45,2.38,1.34,3.11-2.67.02-4.86-1.21-7.36-1.91,0-2.29-.71-5.15.98-6.83.91-.89,1.74-2.98.18-3.45-.62-.19-1.89-1.11-2.47-.9-.54.19-.55.77-1.26.66.09-.39-.02-.71-.32-.96-1.91,1.98,1.38,4.15,1.07,6.09-.07.46-.96,4.06-.11,4.11-.78.76-2.11-.82-2.88-.96.14-1.08.07-3.49-.28-4.4-.12-.34-1.57-1.58-2.01-1.85-1.22-.78-.55,1.15-1.23,1.15.18.49.1.67-.24.52-.35-.35.67-4.31.56-5.3-.97-1.3-1.92-.42-1.25-2.52.38-1.19.88-2.34,1.25-3.53-.62-.6-2.38,2.21-2.48,2.12-.22-.28-.14-.46.24-.52-.96.06.35-1.78,0,0,.26-1.35,1.39-2.25,1.77-3.55.68-2.31-.8-.91-1.77-.92-.62-4.32-4.13,1.31-4.8,2.55-.99-1.9.14-4.11.32-6.06-.27-1.32-2.1.36-2.55-.96-.9.64-1.12,1.87-1.28,2.87-.56-.57.12-4.13-.29-4.08-.43.05-.51.77-.96.82-1.34.15-1.13-14.04-.84-15.41.88-4.26,1.84-7.39,3.95-11.19.45-.82,1.19-1.35,2.14-1.62,1.21-.34,1.22-.88,1.92-1.99,1.3-2.06,3.08-2.88,5.13-4.29,3.62-2.5,8.91-5.02,13.26-5.91,2.53-.52,4.92-.64,7.43-1.03,1.98-.31,4.17.23,6-.17,2.78-.61,5.07-.21,7.79.36,1.41.29,2.4,1.24,3.68,1.94,8.11,4.44,16.25,10.48,18.57,19.94-3.02-.03-6.72,2.69-8.66,4.75-1.08,1.14-1.29,2.53-2.36,3.52-1.27,1.16-2.07,2.71-2.87,4.2-.96,1.79-2.02,3.49-2.89,5.33-.97,2.06-1.15,3.56-1.44,5.79-.22,1.78-.97,3.48-.97,5.26,0,1.86.61,3.67.92,5.5.59,3.37,3.86,6.5.18,9.04ZM58.38,70.48c.27-.38.38-.81.33-1.28.94-.05.92.96.96,1.59-.42-.12-.85-.23-1.28-.32ZM77.24,74.31c-4.02-1.13-8.21-3.58-11.58-5.99-1.76-1.25-5.91-3.86-5.68-6.45,4.1.04,7.94-2.12,11.87-2.99,2.85-.64,8.49-.58,10.19-3.38-.41-1.54-11.21.25-12.65.46-1.61.23-3.03,1.09-4.3,2.1-.94-.03-1.83.16-2.72.42-1.22.36-2.38.65-3.66.53-.26-1.06-.33-2.16-.24-3.25.19-2.5,1.06-4.89,1.18-7.4.13-2.65,2.33-5.28,3.62-7.59,1.49-2.67,3.51-3.9,5.98-5.68,1.67-.46,3.42-1.11,4.66-2.36-.6.55-.29-.47.45-.51-.43.1-.84.05-1.21-.15-.13-.3,1.96-1.12,1.53.79,1.76-.83,3.23-1.25,3.7.93.49,2.21.55,4.27,1.42,6.45.8,2.04,1.85,3.96,2.71,5.98.55,1.32.81,4.49,2.72,4.49-.17,1.01-1.64.55-1.27,1.91-1.26-.83-1.48-1.72-3.02-2.26-1.04-.37-2.05-.83-3.03-1.34-1.94-1-3.8-2.11-5.88-2.81-2.63-.9-11.72-4.77-11.08,1,.39,1.01,1.56.95,2.43.8,1.02-.18,1.35.25,2.37.41,1.84.29,3.8.81,5.51,1.58,1.75.79,10.68,5.39,12.06,2.96.47.3-2.23,7.71-2.47,8.59-1.19,4.22-2.57,8.46-3.6,12.77ZM86.19,78.45c.24-.82,1.02-1.11,2.23-.96-.42.64-1.42.71-2.23.96ZM85.66,73.03c-.75,0-4.37.55-4.9,0,1.11-3.34,2.21-6.68,3.02-10.1.38-1.61.71-3.24.96-4.88.3-2.05.67-1.25,1.33.07,1.28,2.57,2.59,5.36,3.37,8.1.58,2.06,2.1,4.34,2.19,6.48-2.07,0-3.97.32-5.96.32ZM105.05,65.38c-.14,1.39-.58,2.74-.64,4.14-.54.4-.88,1.62-1.69,1.58-.03,0-1.19-.47-1.09-.58.26-.28,1.27-.49,1.19-1-.03-.22-3.25,1.28-3.65,1.33-.95.12-1.84.45-2.75.69-1.54.41-1.36-.85-1.85-2.08-1.36-3.37-2.3-8.39-4.85-11.11-.58-1.37-1.69-2.43-2.24-3.82,6.76,2.52,13.13,5.94,19.82,8.61-.3,1.14-1.44,1.52-2.24,2.23ZM108.85,58.98c-.42,1.96-.76,2.24-2.64,1.29-2.2-1.1-5.44-1.81-7.23-3.49-2.66-.7-4.92-2.32-7.49-3.25-3.74-1.35-.99-.33-.51-1.86,4.76-.83,9.19-5.25,13.5-7.04,2.19-.91,2.97.19,3.82,2.41.91,2.37,1.09,4.99,1.22,7.51-.24,1.47-.36,2.97-.67,4.43ZM79.8,27.45c2.33-.65-1.29-4.88,0,0h0ZM73.91,32.73c.12-.11.26-.26.45-.51-.14.18-.29.35-.45.51ZM33.02,17.88c2.13-1.77,2.24-4.35.74-6.69.62.98-2.5-.31-1.25-.23-2.33-.33-5.03-.12-6.81,1.42-.91.79-1.75,2.31-.92,3.45.64.87.17,1.54.73,2.22,1.93,2.31,5.32,1.65,7.5-.18ZM27.05,15.01c.83-1.06,3.32-1.89,4.79-1.27.32,2.43-3.8,2.99-4.79,1.27ZM32.52,10.96c.43.06.85.13,1.25.23-.62-.15-1.01-.21-1.25-.23ZM20.98,26.49c-.5-1.56-3.02-1.56-3.2.32-.41,2.64,3.9,2.44,3.2-.32ZM10.34,32.44c-.29.04-1.06,0-.89-.12-2.86.87-2.47,5.22.64,4.3,1.66-.5,1.64-3.36.25-4.18ZM9.79,32.23c.21.03.39.11.56.21.2-.03.18-.09-.56-.21ZM9.46,32.32c.11-.03.21-.07.33-.09-.18.03-.28.07-.33.09ZM40.02,37.08c-.04.2-.1.4-.18.57.2-.39.23-.54.18-.57ZM36.84,34.32c-1.98,2.26.56,4.42,3,3.33-.68.3.06-.65.18-.57.38-1.93-1.38-4.81-3.18-2.76ZM54.86,37.65c.61-3.13-3.48-3.13-2.87,0,.56.83,2.31.83,2.87,0ZM40.8,35.42c-.09-.09-.49.15-.32.32.09.09.48-.15.32-.32ZM30.44,37.84c.09.25.14.51.13.76.04-.96-.06-.99-.13-.76ZM30.57,38.6c-.25.1-.21-.5-.13-.76-.65-1.85-3.62-3.38-3.99-.95-.17,1.07.51,1.98,1.46,2.4,1.62.71,1.45-.21,2.66-.68ZM17.78,39.66c.1.24.2.23,0-.74.06.27.05.51,0,.74ZM17.78,38.92c-.96-.23-1.39-.55-1.91.54.23.76-.07,1.03-.9.8-.13.19-.26.38-.39.56,1.2.64,2.94.11,3.2-1.17-.11-.25-.23-.79,0-.74ZM32.17,38.92c-.25.07-.63,0-.64.32.25-.07.63,0,.64-.32ZM5.15,42.33c-.01,1.38.69.72,1.44.74.18.84.43,1.63,1.37,1.6-.62-.05.56-1.05.42-.46,1-2.72-3.21-4.56-3.24-1.89ZM8.39,44.22c-.05.15-.11.29-.2.45.12-.2.17-.35.2-.45ZM53.58,41.16c.08,0,.15.02.23.02-.05-.02-.11-.03-.23-.02ZM53.81,41.18c.27.11-.47.56-.23-.02-.64,1.59-.66,3.31,1.28,2.87,1.06-.98.27-2.73-1.05-2.85ZM11.7,42.43c-.73.89-.18,2.54,1.28,2.23.74-.89.18-2.54-1.28-2.23ZM21.65,43.05c.19,0,.38,0,.6.02-.29-.04-.48-.04-.6-.02ZM21.65,43.05c-1.51.07-2.03,1.33-1.96,2.89,1.58.37,1.85-1.07,2.3,1.09.34,1.62,1.78,1.88,1.8-.06.02-1.41-.79-2.77-1.54-3.9.7,1.06-1.34.09-.6-.02ZM28.97,44.98c-.41,1.4.8,2.03,1.6,1.28.22-1.18-.51-1.41-1.6-1.28ZM46.64,49.41c.51-1.27.21-3.29-.87-4.27.4.54-2.87-.3-.18-.16-1.56-.08-4.2-.28-4.95,1.52-.77,1.86.74,2.7,2.44,2.26,1.42-.36.31.55,1.24,1.23.72.53,1.98.26,2.32-.58ZM45.59,44.98c.06.05.12.11.18.16-.03-.05-.08-.1-.18-.16ZM73.4,45.3c-.2-.46-.38.03,0,0h0ZM73.4,45.3c.07.95,1.33-.31,0,0h0ZM33.35,47.51c-1.37-.04-2.89.28-3.31,1.78-.6,2.15,1.64.33,2.44.47-.1.87,1.06,4.37,2.02,2.28.58-1.25.22-3.25-.63-4.36.35.64-1.89-.17-.52-.17ZM49.75,51.36c0-.32-.56-.4-.64,0,.36-.03.5.46.64,0ZM19.06,52.31c.25-.07.63,0,.63-.32-.25.07-.63,0-.63.32ZM38.24,56.46c-1.08-.14-2.31-.05-2.9.89-.49.78-.81,1.6.34,1.98-.2-.88.14-1.36.96-1.6.45.48.6,1.15,1.09,1.6,2.04,1.86,1.32-1.6.61-2.73.27.49-1.11-.27-.1-.15ZM18.42,59.96c.95,1.21,3.57.71,2.88-1.59-.95-1.21-3.57-.7-2.88,1.59ZM49.11,60.6c-.6-.17-.67-.12-.55-.03.21-.02.41-.02.55.03ZM49.21,60.73c.15.25-.48,0-.66-.15-1.04.1-2.56.91-1.69,1.94,1.49-2.84,1.84.74,1.92,1.91-4.02-.58-3.62,5.72.21,4.53,1.86-.57,1.78-2.86.74-4.21.78-1.08.3-3.04-.53-4.02ZM54.22,61.56c-.05.7.26,1.01.96.96.06-.7-.25-1.01-.96-.96ZM40.48,63.15c-1.14,1.3.5,3.47,1.92,2.23-.12-1.26-.93-1.84-1.92-2.23ZM30.9,66.05c.03.21.03.41,0,.61.3-1.49.12-1.1,0-.61ZM30.9,66.05c-.22-1.58-2.26-3.17-3.21-1.3-.05,2.5,1.47,2.77,3.2,1.91-.11.06-.06-.3,0-.61ZM36.96,65.7c-.41-.02-.44-.41-.96-.32-.5.78,1.09.94.96.32ZM42.4,70.8c-.87,1.35.41,2.87,1.92,2.87.3-1.89-.85-2.34-1.92-2.87ZM45.33,73.02s-.04-.08-.38.01c.17-.04.28-.04.38-.01ZM45.33,73.02c-.06.08-.38.21-.38.01,0,.84.91,1.86,1.28.64-.56,0-.51-.55-.9-.65Z"/>
    </g>
  </g>
</svg>