<?xml version="1.0" encoding="UTF-8"?>
<svg id="Layer_2" data-name="Layer 2" xmlns="http://www.w3.org/2000/svg" viewBox="0 0 111.78 82.45">
  <defs>
    <style>
      .cls-1 {
        fill-rule: evenodd;
      }
    </style>
  </defs>
  <g id="food_icons" data-name="food icons">
    <g id="oysters">
      <path class="cls-1" d="M105.21,15.8c.03-.07.03-.12,0-.12-.05.07-.08.12-.12.18.04-.02.09-.04.13-.06ZM7.7,58.39c.39,1.31,2.4-.91,0,0h0ZM111.27,38.31c-.27-.95-1.08-1.57-1.28-2.55.11-1.04.03-2.08-.27-3.07-.53-1.76-1.1-2.11-2.44-3.14-2.65-2.05-6.54-3.02-9.81-3.5-1.65-.25-3.2.91-4.44-.12-1.17-.97-2.52-1.73-3.93-2.31-3.65-1.51-7.68-1.97-11.6-2.15-8.08-.37-16.01-1.42-24.1-1.33,1-1.26.9-2.72-.64-3.51.26-.61-.97-.5-.92-.8.03-.21,11,.67,12.23.82,1.77.21,3.57.25,5.32.62,1.15.18,3.21-.59,4.16.32-1.69.06-5.47-.58-5.75,1.91,3.74.62,7.63.41,11.35-.16.68-.1,4.28-.35,4.1-1.29-.07-.35-1.05-.66-1-.88.17-.77,11.75-1.66,11.44,1.06-2.25,0-5.11.09-7.34.58-.84.19-2.78,1.28-1.39,2.1,1,.59,2.31.57,3.43.55,2.5-.04,5.31.1,7.63-1.03,3.15-1.53-.58-1.98-1.05-2.84,1.21-.22,7.59-.61,10.08-1.72.05-.07.11-.13.15-.2.15.03.85-.64.84-.81.03.36-.29.67-.83.93-.16.43-1.27,1.73-.13.06,0,0-.02,0-.03.01-2.15,2.98-5.92,5.24-9.12,6.82-2.18.85-2.36,3.32.49,2.54,1.57-.43,3.15-1.51,4.51-2.39,3.1-2,6.13-4.35,7.96-7.53.89-1.54,1.64-2.78,1.08-4.54-.25-.79-.1-4.83-.78-5.06-.16-.06-.7-1.31-.78-1.44-.61-.98-1.19-1.19-2.29-1.65-1.77-.74-3.61-1.27-5.44-1.84-4.42-1.38-9.51-.53-14.13-.29-4.86.26-9.72.53-14.59.52-4.14.72-8.2,1.85-12.15,3.29-3.87,1.41-7.85,3.12-11.82,4.12-1.04.26-3.81.35-3.84,1.83,1.29,1.14,3.04.08,4.42-.21,3.54-.74,7.08-2.24,10.57-3.37,4.19-1.36,8.21-1.98,12.51-2.85,4.67-.94,10.03-.4,14.82-.52,3.77-.1,9.85-1.25,13.26.38,2.33,1.12,7.65,1.46,6.76,5.29-.34,1.45-2.03,1.98-2.24,3.51-.85,1.2-1.53,2.48-3.2,2.55.37-.83,1.08-1.2.96-2.23-1.35-.31-1.64.95-2.31-.33-.34-.65-1.09-1.47-1.56-2.04-1.5-1.8-3.77-2.46-6.01-2.98-2.82-.66-5.71-.97-8.54-1.54-2.67-.54-4.75-1.29-7.52-.97-1.49.17-2.96.06-4.35.61-1.16.47-2.47.86-3.71,1.08-1.89.34-4.37.55-5.96,1.71-2.12,1.54-.14,4.15.8,3,.47-.57-.39-1.26.8-1.41.88-.32,1.57-.73,2.55-.64-.66.85-.51,2.36.64,1.03,1.01-1.18,1.46-1.58,3.05-1.86,3.13-.55,6.22-1.2,9.42-1.09,3.12,1.15,6.39,1.85,9.63,2.58,2.27.52,5.63.18,6.68,2.83-1.14-.06-2.1.5-3.2.64-1.8.04-3.6.13-5.39.23-3.61.2-7.22.47-10.84.6-3.54.13-7.09.12-10.61-.26-2.93-.31-5.48-.25-8.42-.24-2.89,0-6.05-.52-8.86-1.29-1.63-.24-2.21-2.32-4-.64-1.7,1.6,3.09,5.1,4.38,5.84.68.39,3.56,1.72,3.77,2.54-.24-.94-6.89,1.26-7.25,3.18-.32,1.72-.92,1.15-1.66,2.17-.52.74.78,2.64,1.17,3.21,1.83,2.66,3.87,5.31,6.28,7.41,1.11.97,2.04,2.76,3.39,3.38.23.6,1.45.9,1.5,1.42.03.42-7.04-.97-7.58-1.37-2.15-1.57-4.73-.83-7.07-1.63-1.39-.48-2.73-1.13-4.19-1.37-1.34-.21-1.79.35-2.85-.57-1.9-1.63-4.55-2.82-6.98-1.59-.73,1.36-.59,3.6-1.67,4.39-1.2.87.76,5.65,1.19,6.77.9,2.34,2.12,4.52,3.36,6.69.35,2.14,2.15,3.62,2.56,5.74-3.6-2.03-6.97-5.1-11.32-5.1-3.89,0-8.4-.21-11.38,2.87-1.63.33-2.46,1.65-3.9,2.23-2,.81-.74,1.44.33,2.39,2.8,2.48,5.1,4.99,7.33,8.05,2.24,3.06,3.37,6.49,5.26,9.71.84,1.42.19,3.18,2.32,3.22,1.75.03,3.38-.6,4.89-1.43,1.43-.79,2.76-1.77,4.23-2.5.35-.54,1.77-2.42,2.24-2.55.76-3.62,2.88-6.78,3.2-10.52,2.31,1.66,3.01,4.83,4.76,7.05.85,1.09,1.7,2.2,2.27,3.47.67.74,1.65,1.18,1.92,2.23.92.41.9,1.61,1.59,2.23,1.26.54,2.51,1.11,3.8,1.6,3.2,1.19,6.14.96,9.44,1.38,2.65.33,5.14-1.14,7.68-2.01,2.58-.88,5.31-1.76,7.45-3.5,1.05-.86,1.56-2.4,2.01-3.66.44-1.24,1.08-2.11,1.87-3.21.33-.5.77-.87,1.32-1.11-.21-.7-.24-1.4-.07-2.11.22-1.33.22-2.79.61-4.05.28-.91-.16-1.89.1-2.77.03-.1,1.51-.43,1.92-.63,1.91,1.32,2.17,2.1,4.85,1.99,4.25-.17,9.79-2.32,12.97-4.92,1.21-.99,4.3-4.99.56-3.98-1.82.49-2.6,2.43-4.32,3.09-2.93.51-5.34,2.47-8.31,2.87-1.3.11-2.56-.08-3.83-.32-.82-.06-1.22.81-1.74.85.44-.04-2.77-5.8-3.2-6.31-.44-.52-2.83-3.7-3.23-3.67.85-.07,1.41,1.22,1.9,1.58.58.43,1.42.43,2.04.42,1.79-.03,2.71,1.82,4.54,1.7-3.12,2.57,4.56,2.58,5.47,2.56,1.39-.03,5.43.31,5.72-1.92-2.36.15-7.56-.44-8.63-2.55-2.24.34-3.37-.97-5.28-1.69-1.27-.48-1.95.07-2.85-.91-.76-.83-1.89-1.14-2.74-1.86-2.01-1.13-4.63-2.33-5.75-4.46-1.25-.17-1.97-1.06-2.89-1.79-.46-.39-.99-.64-1.59-.76.14-.47.03-.85-.35-1.14-.63-.62-1.74-.8-2.67-1.19-1.44-.59-2.31-1.92-3.43-3.03-1.21-1.2-2.46-2.36-3.65-3.59-1.19-1.23-2.36-1.83-3.58-2.91-.86-.76-1.74-1.47-2.56-2.23-.18-.17-1.53-1.11-1.59-1.29-.06-.19,10.31-.88,11.31-.96,3.15-.25,6.93-.52,9.75.89,3.33,1.66,8.19.69,11.88,1.13,1.79.22,3.58.52,5.35.92,1.76.02,2.67-.32,4.32.58,1.96,1.06,3.37,1.39,5.53,1.99,1.71.48,3.49.94,5.07,1.73,2.92,1.47,5.19,2.15,5.56,5.67.21,1.98,1.61,3.48,1.67,5.52.05,1.51-.31,2.93-.9,4.31-.54,1.25-1.16,2.45-1.43,3.79-.56.33-3.32,2.25-3.52,2.87,7.44-.37,10.02-8.14,8.31-14.03ZM106.48,14.08c.17.16-.23.41-.32.32-.17-.16.23-.41.32-.32ZM33.27,40.54c.17.17-.23.41-.32.32-.16-.17.23-.41.32-.32ZM23.04,55.84c.17.17-.23.41-.32.32-.16-.16.23-.41.32-.32ZM13.45,63.49c-1.09-.82-2.06-1.79-2.88-2.87-1.08-.54-2.49-.92-2.88-2.23,2.43-.92,4.82-1.94,7.36-2.55-.58,2.55-1.48,5.01-1.6,7.65ZM16.65,65.72c-.45-1.84-.23-1.05-.08-.42-.65-3.19-.08-6.56-.24-9.78.53,0,2.33-.3,2.77.06.75.62-.85.4,1.08,1.05.9.31,1.54.85,2.55.8.11,2.21-4.25,2.38-5.41,4.04-1.12,1.61,1.46.68,1.9,1.7-.86,1.38-1.91,2.64-2.56,4.14-.92-.27.17-1.09,0-1.59ZM20.17,61.58c-.29.2-.58.38-.64,0,.08-.4.64-.32.64,0ZM23.04,77.83c-2.8-1.08-2.53-4.93-4.16-7.01-.22-.28-.33-.6-.32-.96,3.96,0,7.61,2.87,11.5,2.87-.21,2.36-5.04,4.69-7.03,5.1ZM30.4,72.1c-2.72-1.46-5.56-2.67-8.63-3.19.13-.56,2.58-1.66,3.13-1.88,1.08-.42,2-1.31,2.63-2.27-.91-1.58-8.19,2.82-9.27,3.19.97-2.2,2.61-4.1,3.73-6.23.69-1.32,3.02-3.75,2.03-5.24.17.26-.39.03,0,0-.35.03-.19-.45,0,0,1.04.43,2.06.91,3.05,1.45,1.89,1.03,3.67,2.28,5.18,3.82,2.47,2.52-1.09,7.58-1.84,10.34ZM45.1,73.69c-.69-.14-2.26-2.8-2.67-3.47-1.22-1.99-2.46-4.22-3.87-6.14-1.74-2.37-2.81-4.92-4.07-7.55-.49-1.01-1.05-2.75-1.97-3.45-.56-.42-1.32-.53-1.8-1.07.23-2.38-2.04-2.6-2.54-4.52-.69-2.68-.79-5.48-.98-8.23.15-1.58,2.3-2.72,3.45-2.06.56.33,2.49.45,2.3,1.42-3.98-.49-2.26,2.06-1.92,4.46.37-.84,1.6-.71,1.92-1.59.75,1.1-.06,2.88.96,3.83-.19,1.94.51,3.8.32,5.74.05,1.23,1.35,2.68,1.85,3.78.61,1.35,1.14,2.73,1.7,4.1,2,4.87,5.68,10.88,7.32,14.75.2.46-.97-.2,0,0ZM50.83,78.63c-.06,0-.48-.11-1.58-.48-.28-.19-2.42-1.99-2.17-2.17.37-.26,2.42.66,2.81.89,1.76.11,3.51,0,5.27-.12,1.67-.1,3.36-.21,5.03-.05,1.21.11,2.91,1.25,4.08.8-2.99,3.08-9.24,2.27-13.45,1.11ZM72.27,75.28c.89-1.03.41-3.41,2.24-3.51-.69,1.22-.62,3.2-2.24,3.51ZM72.58,48.84c1.04.98,1.96,1.35,2.88,2.55.9,1.15,1.62,2.17,2.24,3.5.28.54.04,1.55.64,1.91-.39,1.2-.96,2.29-1.02,3.57-.07,1.62-.81,2.1-1.68,3.49-1.56,2.48-3.5,4.38-5.78,6.05-4.48,3.26-9.35,3.26-14.8,3.27-3.34,0-5.76.45-8.55-1.72-1.51-1.18-.31-1.9-1.09-3.18-.94-1.12-1.6-2.44-2.19-3.77-1.18-2.7-2.05-5.48-3.2-8.16-.94-2.17-2.2-4.18-2.61-6.55.63,3.73-1.64-2.3,0,0-1.55-2.18-2.87-4.48-3.35-7.14-.63-3.46,4.37-2.09,6.28-1.65,2.54.58,5.03.56,7.49,1.09,2.63.57,5.47,1.48,8.1,1.61,5.05.24,9.05,1.66,13.46,4.17.84.9,2.2.04,3.18.97ZM52.36,30.43c1.35,1.97,3.44,3.22,4.87,5.03,1.31,1.65,3.03,3.57,5.21,4.4,1.6.61,2.29.76,3.66,1.94,1.23,1.06,2.5,2.09,3.92,2.89.03-.07-10.15-2.41-10.8-2.93-.13-.11.57-.71.56-.9-2.72.49-4.99-4.1-6.49-5.75-1.7-1.86-5.97-5.15-5.97-7.64,0,.42-.96-.07,0,0-.96-.07.31-1.33,0,0,1.43-.13,4.15,1.68,5.02,2.96ZM49.25,78.15c.48.16,1.01.32,1.58.48.16-.01-2.17-.88-1.58-.48ZM16.57,65.3c.03.14.05.28.08.42.07.2,0-.09-.08-.42ZM18.89,70.82c1.63,2.09-.17-.26,0,0h0ZM28.8,1.65c-.06-.27-4.25.43,0,0h0ZM32.63,19.5c.34,1.79,1.88-.89,0,0h0ZM36.15,3.56c-6.14-.33,2.19.69,0,0h0ZM17.93,29.7c1.17,0-.36-2.71,0,0h0ZM27.2,20.45c.63,1.92,1.31,0,0,0h0ZM20.17,13.12c.08.91,3.79-.36,0,0h0ZM8.98,28.74c1.47.13-1.29-3.39,0,0h0ZM19.74,33.31c6.39.72,11.12-1.11,16.59-4.11,4.4-2.41,5.01-9.32,5.8-13.88.73-4.18,3.94-9.59-.73-12.55-2.21-1.4-4.1-1.4-6.78-1.5-.59-.02-5.97-.25-5.83.37-6.19.63-12.04,2.3-17.98,4.07C6.2,7.1-.45,8.66.6,14.78c.2,1.14-.66,1.27-.6,2.53.08,1.43.33,2.49.78,3.87.86,2.61,1.76,5.24,3.14,7.63,2.73,4.76,11.01,3.97,15.82,4.51ZM17.93,29.7c-.37-2.76-.66-5.52-.96-8.29h4.15c.04,1.13,0,2.26-.04,3.38-.06,1.65-.07,3.29.36,4.91h-3.52ZM20.81,15.35c.89-.92-.56-1.36-.64-2.23,3.65-.35,7.26-.93,10.87-1.59-.24.89-1.47.59-1.92,1.27-.52.36-2.25,2.56-2.67,2.02-1.59-2-3.45-.06-5.64.53ZM34.23,13.12c0-.63.88-.4.64-1.27,1.56.28-1.06,1.96-1.28,1.91-.33,1.15-3.48,1.57-4.48,1.59.81-1.65,2.24-1.47,3.83-1.27.02-.08,1.2-.98,1.28-.96-.27-.06,0-.63,0,0ZM26.58,27.25c0,1.76-2.2,1.98-3.85,1.81.82-2.36.22-5.05.31-7.52.02,1.77,1.25-.61.01-.45,1.29-.17,2.55-.47,3.84-.64-.57,2.19-.31,4.56-.31,6.8ZM30.17,26.85c-.87.37-1.72.76-2.65.94-.13-2.39.44-5.02-.32-7.33,1.12,0,2.78-1,3.83-.32v3.83c0,1.39.51,2.3-.86,2.88ZM36.49,21.24c-.15,2.45-.45,4.19-3.21,4,.19-1.98-.27-3.82-.64-5.74,1.82-.85,3.66-1.77,5.11-3.19,1.08.53-1.21,4.13-1.26,4.93ZM3.48,14.94c-1.91-.56-.32-3.33.39-4.31.49-.69,1.07-1.3,1.59-1.96.55.02.97-.2,1.28-.64,3.12-.16,6.1-.98,9.19-1.94,2.98-.93,5.93-2.31,9.1-2.65,3.69-.4,7.43-.08,11.12.12,2.12.67,4.96.94,4.8,3.83.1,2-2.66,1.44-2.88,3.19-.55-.17-.26-.96-.67-1.25-.39-.28-1.19-.09-1.7-.43-1.15-.77-3.94-.24-5.3-.24-3.69.8-7.46,1.16-11.17,1.78-3.19.53-6.72,1.17-9.44,3.01-1.14.77-1.04,1.99-2.4,2.86-1.48.11-2.54-.98-3.9-1.37ZM7.95,19.95c1.85.93,1.44,1.44,1.71,3.26.26,1.76.23,3.63,1.11,5.24.53.96,1.76.93,2.13-.13.42-1.18.02-2.53-.26-3.69-.81-3.29-.23-2.98,2.72-3.22-.95,2.28-1.02,5.97.64,7.97-.95,1.56-5.81-.53-7.03-.64-.35-.92-4.19-10.06-4.09-10.14.37-.26,2.62,1.12,3.07,1.34ZM94.97,44.68c-.17.29-.36.54-.57.78-.07.22.03.15.57-.78ZM77.1,34.69c-.09-.07-.2-.14-.35-.21.13.06.24.13.35.21ZM95.93,39.9c.05-1.72.26-3.86-.64-5.42-1.88-1.24-3.94-2.23-5.73-3.61-1.75-1.35-2.66-1.58-4.83-2.12-1.97-.49-4.38-.52-6.17-1.34-1.47-.67-3.07-.96-4.69-.9-.07-.27-2.53,0-2.88,0-.83.63-3.07,1.72-3.67,1.11-1.91-1.94-2.61,1.95-2.71,3.15-.15,2.01.04,3.14,1.84,4.21,1.84,1.09,3.67,2.16,5.5,3.32.84,1.45,1.86,3.2,3.25,3.98,1.96,1.08,3.14,3.02,5.27,3.73,1.94.65,3.85,1.41,5.86,1.86,2.68-.02,6.17-.25,8.06-2.41.11-.32.58-1.25.59-.97.09-.86-.4-1.5-.34-2.36.74-.6,1.28-1.22,1.28-2.23ZM67.16,30.66c.06-.36.32-.18.32,0-.06.36-.32.18-.32,0ZM74.19,37.03c-.19.03-.4-.45-.32-.64.48-1.12.61.59.32.64ZM75.15,34.8c-.16-.16.23-.41.32-.32.16.17-.23.41-.32.32ZM91.23,41.43c-.87.73-2.39,1.57-1.06,2.61-2.22,1.4-5.8.17-8.01-.71-1.56-.62-1.43-.93-1.74-2.38-.16-.75-.63-1.15-1.44-1.05,1.23-.7,2.84-.72,2.7-2.1-.06-.63.29-1.16.5-1.73-.85-.58-2.29.41-2.88.96-.86-.66-1.31-1.73-2.2-2.34.56.42-.15.6-.35-.21.22.86.75,1.54,1.28,2.23-.58.76-1.51-.29-2.23.32,0-.97.36-2.84-.64-3.51-.58.34-.83,1.77-1.64,1.57.64,0-.53-2.78-.6-2.53-.39.13-1.88-.39-1.92.32-.95-.25-.62-1.36-1.92-.96.82-.68-.46-1.59.32-2.23-.84-.2-.76.84-1.6.64-.43-1.98,5.76-1.68,6.66-1.49,3.56.75,6.99,2.02,10.59,2.59,1.99.31,3.16,2.05,4.86,3.17,1.45.95,3.14,1.11,3.14,2.96,0,2.2-.13,2.45-1.82,3.87ZM76.75,34.48v-.64c-.4.08-.32.63,0,.64ZM82.18,42.45c1.35.78,2.97-.54,3.2-1.91-1.96-.25-2.83.58-3.2,1.91ZM31.35,43.73c.09.09.49-.16.32-.32-.09-.09-.48.15-.32.32ZM107.75,44.68c0-.18-.26-.36-.32,0,0,.18.26.36.32,0ZM57.88,68.36c-.02.05-.03.13,0,.23.11.12.06-.09,0-.23ZM54.05,69.87c-.14-.2-.25-.41-.37-.62.06.14.18.34.37.62ZM64.6,67.32c.51-.77-1.18.28,0,0h0ZM66.53,51.26c-3.26-3.07-7.41-3.08-11.49-4.32-3.24-.99-6.82-1.94-10.26-1.94-2.67,1.09-3.61,5.33-2.22,7.63,1.11,1.83,2.12,2.56,4.05,3.4,1.32.57,2.73,1.24,3.53,2.5.64,1.02.39,2.21.39,3.36.51.97.89,2,1.27,3.03.54,1.47,1.06,2.97,1.87,4.32-.42-.96,2.04,1.24.37.62,1.53.57,4.86,1.98,6.36.69,1.45-1.24,2.66-1.57,4.44-2.46,2.78-1.39,5.92-3.07,6.22-6.38.18-2.01-.19-4.05-.56-6.02-.33-1.74-2.71-3.24-3.98-4.44ZM56.29,67.95c.01-.31.39-.25.64-.32-.01.31-.39.25-.64.32ZM57.88,68.59c-.11-.43-.06-.37,0-.23.17-.4,1.48.35,1.28-.41.18.25.39.46.64.64-.13.71-1.61.34-1.92,0ZM66.52,64.13c.91,1.07-1.4,2.39-1.92,3.19-1.06.25-2.64,1.19-3.52,0,.61-1.46,2.89-2.01,3.78-3.43,1.54-2.48-2.92-1.3-3.99-.37-1.15.99-3.9,2.1-5.54,1.9-.22-.96.68-1.94.34-2.89-.2-.54-.77-.55-.66-1.25,1.46.05,3.17.03,4.44-.81.63-.42,1.75-1.72.29-1.71-.64,0-1.55.54-2.05,0-.96-1.05-1.4-.21-2.69-.03-.18-1.51,2.53-3.79,1.28-5.1-1.74.14-2.55,1.81-4.15,2.23v-1.91c-1.58.12-1.14.59-2.82-.14-.8-.34-1.62-.65-2.35-1.13-1.84-1.2-1.75-2.81-.9-4.62,1-2.13,3.75.2,5.1,1.1,1.96-.08,3.71.79,5.63.94,1.94.15,4.1,1,5.92,1.79,1.68.73,2.25,2.17,3.61,3.08,2.04,1.36,2.15,2.84,2.14,5.31,0,.99-.5,3.83-1.96,3.86ZM64.6,66.04c1.33.31.06-.95,0,0h0ZM64.6,66.04c-.46.2.03.39,0,0h0Z"/>
    </g>
  </g>
</svg>