<?xml version="1.0" encoding="UTF-8"?>
<svg id="Layer_2" data-name="Layer 2" xmlns="http://www.w3.org/2000/svg" viewBox="0 0 122 88.86">
  <g id="food_icons" data-name="food icons">
    <g id="pan">
      <path d="M16.85,46.68c.86,1.77,1.31,4.11,3.19,4.86-.78-.52,1.96-1.53,1.38-.24,1.45-2.88-1.99-7.11-3.68-9.03-.79-.9-7.84-5.08-7.04-1.59.65,2.82,4.81,3.25,6.14,6ZM19.88,21.47c.13.16.23.33.34.5.05.01,0-.1-.34-.5ZM39.4,40.03c2.52.87,1.15-5.18.85-6.38.14-1.12-.25-5.89-1.88-5.94-1.17-1.29-2.17,1.73-2.19,2.3-.04,1.29.29,2.16.41,3.39.22,2.21.24,5.74,2.81,6.62ZM38.37,27.72c1.32.03-.75-.83,0,0h0ZM21.13,51.78c-.41-.02-.77-.11-1.09-.24.17.11.5.21,1.09.24ZM21.42,51.31c-.08.16-.17.32-.28.48.14-.19.22-.34.28-.48ZM22.41,33.01c1.51,2.24,2.48,4.43,3.36,6.96.65,1.85,1.97,3.75,3.09,1.29,1.37-3.02-1.8-8.55-4.02-10.68-1.07-1.03-2.22-2.31-2.95-3.62-.84-1.51-.81-3.52-1.68-4.99-.09-.02-.54-.5-.34-.5-2.74,0-1.56,4.25-1.25,5.94,1.17,1.93,2.53,3.73,3.78,5.6ZM47.46,72.72c.07-1.44-1.23-4.06-2.5-4.06.16,0-.05.5-.2.75-.2,1.6,1.05,3.05,2.7,3.31ZM118.28,3.97c-1.16,1.76.36-.05,0,0h0ZM43.43,56.57c.11-.28.27.25-.05.21.85.12.36,1.92,2.16,1.53,1.13-.25,1.97-.77,2.09-1.91.37-3.42-3.67-2.49-4.21.17ZM119.23.13c-1.58-.54-2.64.74-3.76,1.82-1.41,1.37-2.79,1.71-4.33,2.78-2.61,1.8-5.39,4.05-7.73,6.18-2.88,2.63-7.1,4.33-9.86,7.14-1.34,1.36-2.88,2.54-4.31,3.86-1.54,1.41-3.28,2.59-4.92,3.89-3.79,3-7.25,6.35-11.11,9.31-1.46,1.11-2.49,2.62-4.44,2.6-.38.95-.97,1.8-1.73,2.5-1.22,1.12-.62.15-1.89.02-4.69-.49-10.66,2.54-14.99,4.16-4.73,1.77-9.46,3.55-14.02,5.71-4.27,2.02-8.4,4.06-12.52,6.38-4.3,2.43-8.09,5.27-12.67,7.09-2.39.95-4.56,2.26-6.64,3.77-.61.45-3.1,2.03-3.23,2.87-1.67.92-1,2.88-.64,4.26.46,1.78.64,3.4,1.12,5.31.39,1.55,1.18,1.85,2.66,2.52,1.1.49,1.55,1.16,2.43,1.97,1.64,1.51,3.53,2.69,5.51,3.7,3.65,1.86,8.74.31,12.66-.51,4.87-1.03,9.74-2.19,14.38-4.01,4.06-1.59,7.14-4.36,10.92-6.26,2.47-1.24,4.74-2.82,7.09-4.27,1.81-1.12,3.76-1.89,4.67-3.84.42-.89,6.16-7.44,4.57-8.29-.27-.14-.52.45-.76.35-.43-.17.59-1.88.57-2.18-4.4,1.5-6.73,7.02-10.66,9.31-1.7,1-10.47,8.07-11.51,6.23-.4-.71-1.82-4.98-2.78-4.06-1.13,1.08-.3,3.47.53,4.45,1.6,1.9-.37,2.22-1.91,1.39-1.77-.96-4.27-1.63-6.27-2,.19.76,2.06,4.16,1.25,4.69-1.83-.52-2.17-3.72-3.45-5-.12-.62-1.34-.88-.63-1.56,1.33-.17,2.39-.86,3.53-1.48,2.58-1.39,5.65-2.13,7.92-3.98,1.15-.94,1.77-1.09,2.99-1.59.95-.39,1.66-1.12,2.65-1.61,1.05-.51,1.91-1.39,3.1-1.6,1.4-.25,1.81-1.11,3.25-1.44,2.65-.6,4.74-3.33,6.73-5.08.87-.77,1.35-2.06,2.42-2.58.3-.79.55-1.78,1.57-1.87.86,1.19-1.28,3.03.63,3.75.13-.38-.39-1.84.31-1.88.37,1,2.22,4.31,3.26,1.73.81-2.02-.57-4.51-.94-6.47-.28-1.46.19-2.73.75-4.07.56-1.34,2-1.79,3.1-2.73,1.1-.94,2.11-1.97,3.27-2.84,1.18-.88,2.13-.27,3.5-.31-.65-.03.64-.63.23,0,.54-.82,1.78-1.37,2.45-2.23,1.09-1.39,2.87-2.17,4.38-3.01,3.16-1.76,6.63-3.04,9.52-5.19,3.1-2.31,5.93-4.97,8.95-7.35,1.43-1.13,2.76-2.42,4.46-3.15,1.12-1.27,2.23-2.56,3.45-3.75,3.07-1.31,5.72-4.28,8.38-6.52,2.36-1.99,1.29-6.06-1.47-7.01ZM39.94,77.72c-1.65-.26-3.04,1.79-3.76-.94.2.74-.62-.22,0,0-.66-.23-.85-.95-.94-1.56.56-.12,4.63,1.64,4.7,2.5ZM15.71,79.42c-.06-.1-.13-.25-.21-.45,1.23.21,1.29-1.27,1.56.63.14,1,.86,1.79.94,2.81-.97-.83-1.76-1.83-2.29-2.99ZM24.59,76.99c-1.46.9-.34,3.57-.01,4.79-1.42-.07-1.33-1.78-2.51-2.19-.77.69.86,1.9.62,2.81-2.49.29-1.97-3.81-4.38-4.06.61-1.07,5.11-2.88,6.27-2.82-.78-.05.08-.34,0,0,.25-.17.46-.38.63-.62,1.18.63.5,2.7,1.88,3.12.09,1.33,1.79,1.48,1.88,2.81-2.46.61-2.99-4.71-4.38-3.85ZM30.85,78.66c-2.03-.54-2.21-2.95-3.76-4.07,1.38.99.33-.59.06-.18.27-.72,1.6-.24,1.82-1.06,1.58,1.13,1.06,3.74,1.88,5.31ZM63.44,44.6c-.49,1.39-1.15,2.7-1.97,3.93-1.54,2.34-3.56,4.3-5.6,6.2-4,3.75-9.84,5.53-14.8,7.71-5.85,2.57-12.03,4.42-17.99,6.73-2.77,1.07-5.54,2.43-8.39,3.28-1.02.31-1.76.71-2.78,1.02-.45.09-.72.36-.81.82-.62-.1-1.23-.02-1.81.23-1.05.41-5.64-.61-4.43-2.26,1.07-1.46,4.58-2.93,6.23-3.6,2.46-1.77,5.34-3.11,7.94-4.68,2.76-1.67,5.42-3.49,8.24-5.04,10.27-5.67,21.45-10.68,32.83-13.97-.18.02.31-.13,2.38-.68.11.01,1.57.32.94.31ZM118.82,6.77c-.41.53-1.66,1.38-2.28,1.71-1.46.77-2.96,2.28-4.01,3.71-1,1.37-2.57,2.16-3.79,3.4-1.6,1.62-3.39,2.03-5.3,3.25-1.66,1.07-2.97,2.29-4.49,3.55-3.17,2.62-5.9,5.38-10.12,5.95,4.9-5.01,10.56-9.29,16.23-13.35,2.46-1.76,4.75-3.6,6.92-5.76,1.92-1.91,4.79-2.94,6.32-5.27,1.23-.17.96,2.26.54,2.8ZM52.43,50.62c.41.21-.43.48-.27-.09-.17.63-1.22,2.99.63,2.5,1.72-.29.74-1.97-.36-2.41ZM15.5,78.97c.06.16.14.3.21.45.38.63.44-.34-.21-.45ZM44.76,69.41c.03-.25.09-.5.2-.75-.41,1-.34,1-.2.75ZM66.26,58.03c0,.17.25.36.31,0,0-.17-.25-.35-.31,0ZM20.51,68.97c.83.1,1.03-.43.94-1.25-.83-.1-.81.65-.94,1.25ZM62.5,44.28c-.79.21-1.58.45-2.38.68.32-.04,2.72-.64,2.38-.68ZM33.62,60.51c-2.05-.59-5.03,1.85-3.38,2.82,1.84,1.07,4.24.16,4.09-2.15.01.91-.98-.52-.71-.67ZM33.62,60.51c.24.07.47.17.67.33-.39-.31-.59-.38-.67-.33ZM37.74,62.4c1.7.21,2.37-1.1,1.88-2.19-1.75-.46-2.76,1.01-1.88,2.19Z"/>
    </g>
  </g>
</svg>