<?xml version="1.0" encoding="UTF-8"?>
<svg id="Layer_2" data-name="Layer 2" xmlns="http://www.w3.org/2000/svg" viewBox="0 0 114.47 93.15">
  <defs>
    <style>
      .cls-1 {
        fill-rule: evenodd;
      }
    </style>
  </defs>
  <g id="food_icons" data-name="food icons">
    <g id="pancakes">
      <path class="cls-1" d="M105.19,20.77c-.41.17-.81.36-1.21.56.38-.13,1.08-.41,1.25-.52-.02,0-.03,0-.05,0,.03,0,.04,0,.06-.01.05-.03.04-.05-.06-.03ZM52.97,26.18c-.06.02-.05.02.11.01.61-.11.09-.05-.11-.01ZM88.75,24.38s-.05.07-.03.09c.69-.21,1.73-.93,1.91-.81-.02-.01-.04-.01-.06-.02-.03,0-.05,0-.09,0-.11.04-1.11.51-1.74.74ZM68.19,10.63c.08-.03.15-.06.23-.09-.3.05-.7.16-1.27.35.35-.12.7-.2,1.04-.26ZM64.76,22.08c-.05-.13-.11-.27-.2-.39-.03-.02-.08.07-.12.2-.04.33.04.89.29.88.05-.05.09-.14.14-.26-.04-.17-.07-.31-.11-.42ZM67.15,10.89c0,1.33,2.19,0,1.85-.32-.27,0-.53.01-.81.06-.5.2-1.04.39-1.04.26ZM29.1,21.09c.23.07,0-.21,0,0h0ZM64.87,22.51c.01.06.03.11.04.18,0-.06-.03-.12-.04-.18,0,0,0,0,0,0ZM42.46,23c-.31-.07-.58-.13-.78-.17-.19-.02-.36-.05-.48-.12.03.02.21.06.48.12.1.01.2.02.31.03-.19-.05-.42-.1-.73-.17-.25,0-.47.02-.69.06-.15.14,2.36.47,1.9.26ZM32.88,32.55s-.09-.04-.13-.02c0,.01,0,.02,0,.03.04-.02.08-.02.13,0ZM37.8,42.93c.07-.06.13-.19-.07-.16.17-.03.13.09.07.16ZM43.49,65.36c-.1-.07-.22-.08-.28.06,0,.03,0,.07-.01.1.05-.15.17-.19.3-.16ZM43.77,65.6c-.06-.14-.17-.21-.28-.24.2.14.34.5-.13.41.09.02.18.05.27.06.07-.04.12-.11.13-.23ZM37.8,42.93c-.07.06-.15.06-.07-.16-.09.25,0,.23.07.16ZM32.75,32.56c-.07.03-.13.13-.13.33.11.02.19.02.26.01-.07-.04-.11-.18-.12-.34ZM33.3,59.94s0,.03,0,.04c.14-.09.44-.07.28.33.19-.45-.13-.47-.28-.36ZM35.71,38.24s-.1.11-.12.2c.02.08.04.13.04.12-.01-.06.03-.23.08-.32ZM35.71,38.24c.06-.03.12.04.1.38.03-.49-.04-.5-.1-.38ZM38.94,53.82s.02.09.08.1c0-.07-.04-.1-.08-.1ZM44.96,62.1s0,0,0,0c-.02-.03-.03-.06-.04-.08,0,.03.02.05.03.08ZM59.08,63.3c-.09.08-.26.15-.57.18.34.02.52-.05.57-.18ZM58.68,63c.09-.06.21-.07.37,0,.07.13.07.23.04.31.22-.21-.16-.49-.4-.3ZM44.93,62.02c-.02-.15.17-.24.16.19,0-.85-.26-.49-.16-.19ZM53.82,72.48c.45-.16,1.06-.16,1.18.25-.14-.5-.74-.44-1.18-.25ZM108.69,44.75s.03-.03.04-.04c-.01-.02-.03-.04-.04-.06,0,.04,0,.07,0,.1ZM108.54,44.19c-.13-.04-.04.16.15.46,0-.2-.04-.43-.15-.46ZM58.68,63c-.08.05-.13.14-.15.28.03-.14.08-.22.15-.28ZM45.83,58.05s-.08.04-.1.21c0,0,0,0,0,0,.02-.12.05-.19.1-.21ZM45.74,58.26s-.01.07-.01.13c.02,0,.04-.01.05-.02-.02-.03-.03-.06-.04-.1ZM45.83,58.05c.07.03.12.25-.06.32,0,0,0,0,0,0,.08-.01.16-.03.23-.05.02-.03.04-.05.07-.09.04-.06-.13-.25-.25-.18ZM113.93,47.12c-.51-1.22-1.28-2.12-1.14-3.53.17-1.73-.69-3.3-1.45-4.79-.66-1.29.76-1.98,1.39-2.86,2.05-2.85.52-4.86-.67-7.43-.54-1.17-3.02-2.04-3.78-.61-1.16,2.19,3.58,3.73.65,5.84-1.76,1.26-3.7,1.48-5.65,2.6-3.25,1.87-7.29,2.66-10.89,3.58-8.09,2.08-15.62,2.55-23.88,1.48-6.33-.82-13.48.96-19.27-2.46,1.04-.45-.16-1.98.42-2.68-.09.17.14.3.35.33-.16-.09-.27-.19-.3-.28.12.17.29.25.5.25.03-.03.05-.07.06-.1-.02-.08-.12-.21-.39-.39.35.11.47.24.39.39.02.11-.11.15-.27.12,1.14.66,5.16,1.39,6.11,1.49,2.71.28,5.46.12,8.17-.1,5.77-.46,11.53-.22,17.17-1.6,9.2-2.26,29.78-2.3,28.96-16.41-.29-5.01-.36-9.75-4.48-13.22-4.16-3.51-11.73-5.21-17.03-5.55-7.05-.46-13.92-1.7-21-.96-7.13.75-13.93,2.16-20.79,4.28-4.66,1.44-9.5,1.86-13.88,4.13-3.03,1.57-8.64,4.69-8.9,8.57-.14,2.05.61,4.52,2.46,5.64,1.64.99,1.34,2.01.81,3.57-1.65,4.83,3.42,6.64,4,10.87.22,1.63-.91,1.94-1.16,3.3-.14.82.09,1.75-.37,2.5-1.36,1.68-2.95,3.19-4.75,4.4-3.88,2.6-7.75,2.64-12.22,3.14-4.24.47-9.88,1.9-12.06,6.02-2.31,4.38,4.08,5.15,3.74,8.85-.33,3.6-6.1,5.88-4.51,10.24.56,1.52,2.6,1.98,3.01,3.54.26.97-.54,2.91,1.35,2.25,2.04-.71,2.95-1.07,5.25-.73,2.12.31,4.02-.15,5.93-1.06,3.83-1.83,7.28-5.14,11.44-6.16,5.69-1.38,7.96,2.39,12.39,4.92,4.61-.25,9.16,1.58,13.81.28,4.59-1.29,9.63-2.3,12.6-6.22.85-1.12,2.25-2.59,2.03-4.12-.2-1.36-1.95-2.43-1.59-3.95,3.22,1.56,6.99,1.26,10.47,1.26,3.97,0,7.95.03,11.91.25,6.97.4,12.8-2.8,18.43-6.56,2.67-1.78,5.61-4.2,7.14-7.07,0-1.75.16-3.56-.53-5.21ZM4.49,74.64c.17-.46-.37-1.65.32-1.59-.69-.05-.03-.38,0,0-.03-.31.03-.08,0-.14.12.29.25,1.78-.32,1.73ZM6.09,60.94c.95,1.07,1.21,2.83,1.6,4.46-1.11-.92-1.66-2.38-1.6-4.46ZM105.25,20.8s-.01,0-.02.01c1.81-.23,2.01.76,1.45,2.33-.22.63-.62,1.4-.54,2.09-1.07.65-2.14,1.3-3.22,1.93-4.76,2.77-9.42,5.25-15.04,5.39-3.22.08-6.33.72-9.53.93-2.87.19-5.67.12-8.52.69-6.42,1.3-12.55.13-19,.63.47-1.06,1.09-2.04,1.81-2.95,1.04-1.3,1.87-.79,3.43-.79,2.55.01,5.1-.19,7.65-.35,5.35-.34,10.73-.26,16.03-1.1,5.04-.81,10.09-1.91,15.01-3.29,3.42-.96,6.09-3.4,9.21-4.99-.43.15-.45.12,1.21-.56.3-.03.31-.01.06.03ZM52.12,25.23c1.5.08,3,.32,4.48.64-.75,1-2.52.13-3.52.32-.23.02-.21,0-.11-.01.11-.03.45-.08.47-.06-.33-.41-1.43.51-1.31-.88ZM56.92,17.58c.31-.89,2.04-1.91,2.23-.32-.75.1-1.2.5-2.23.32ZM64.73,22.77s-.06.05-.1.04c-.34-.05-.29-.61-.19-.92.03-.28.15-.38.32.19.05.13.09.27.11.41.35-.96.68-3.78,2.76-2.24,1.23.91.31,3.64-.61,4.46-.69.61-5.06,2.79-4.71.16.15-1.12,1.88-1.52,2.59-2.19-.07.06-.12.08-.18.09ZM68.99,10.57c2.16-.05,4.14,1.07,5.7,2.67.83.85.95,1.08.28,1.98-1.02,1.37-2.12.31-3.68.77.5-1.85.04-2.09-2.08-2.77-1.2-.38-2.08-.96-2.08-2.33.41-.14,1.37-.59,1.88-.59-.04,0-.3.11-.61.24.33-.06.51-.03.58.03ZM28.82,14.89c.15.56-1.52,1.95-1.63,2.69-.82-.57.89-2.7,1.6-2.55-.41-.09-.03-.38,0,0-.01-.17,0-.17.03-.14,0,0,0-.02,0-.03.02.04.03.07.03.09,0-.02-.02-.04-.03-.06ZM29.1,21.01v-.56c.67-.14.62.55.64.96-.21-.11-.43-.21-.64-.32v-.08ZM29.74,28.42c.06-.36.32-.17.32,0-.06.36-.32.18-.32,0ZM31.06,15.74c.04-3.43,4.2-3.83,6.68-4.86,3.91-1.63,7.59-3.32,11.85-3.56,4.08-.23,7.8-2.29,11.83-2.54,4.37-.27,8.63-.99,13.02-.5,4.32.48,8.71.89,13.01,1.51,5.09.74,16.57,2.3,17.71,8.72,1.04,5.84-10.37,9.1-14.6,9.13,0,0,0,0,0,0,2.93.02-1.54,1.06-1.85.83-.19.06-.36.08-.47.03.05.02.25-.03.49-.13.14-.13.64-.36,1.74-.74.02,0,.05,0,.08,0-.7-.19-4.3,1.13-5.03,1.26-2.07.38-4.17.62-6.27.86-1.75.2-3.58.27-5.31.66-.86.19-2.66.91-3.48.34.56.38,3.92-4.6,1.47-5.67,2.03-2.16,6.01-1.36,8.18-3.85,2.46-2.81-.84-6.49-3.35-7.75-6.39-3.22-14.48-1.77-21.04.11-3.6,1.03-6.71,2.6-10.49,2.99-3.2.34-6.39.43-9.51,1.4-1.32.41-4.69,3.97-4.66,1.75ZM39.33,21.73c-.26,1.21-1.84.5-1.6-.64.99-.24.62.88,1.6.64ZM37.09,41.81c.03.39-.46.2,0,0-.03-.38.47-.2,0,0ZM27.5,48.82h1.15s0-.01,0-.02c-.12-.05-.04-.16.04-.15.03-.07.07-.08.09.17h-.05c-.32.64-.52,2.66-1.55,2.55.53-.78.75-1.67.32-2.55ZM27.83,53.6c0,.31-.39.25-.64.32,0-.31.39-.25.64-.32ZM28.03,56.27c.04-.09.23-.37.18-.25.18-.29.54-.75.92-.59.39.16-1.6,2.15-2.26,1.99-.04-.8.71-.78,1.16-1.16ZM29.74,62.21c-.05.7-.8.68-1.6.64.27-.47.8-.68,1.6-.64ZM14.8,61.08c-.1.13-.18.26-.24.37,0,.22-.04.43-.16.44-.11-.3-.1-.53,0-.7.02-.29.07-.27.11-.12.05-.04.1-.08.17-.1.05.03.09.07.12.11.82-1.13,2.66-2.74,2.95-2.22.29.51-2.37,2.64-3.19,2.99.27-.14.42-.52.25-.76ZM14.72,76.24c.88-.71,1.95-1.24,3.19-1.59-.62.97-1.59,1.6-3.19,1.59ZM18.07,60.96c-.15.11-.56.36-.79.52,0,.03,0,.06,0,.09-.13.05-.16.06-.15.04-.08,0-.07-.07-.03-.13.05-.07.13-.11.16.01,0,0,.01,0,.02-.01.04-1.68,2.52-3.29,3.66-4.17.31-.24,3.9-3.02,2.92-1.28-.7,1.25-2.17,2.14-3.3,2.97-.85.62-1.65,1.32-2.5,1.95ZM22.07,62.21c-.16.07-.11-.01-.01-.11-.03.03-.06.06-.07.07.68-.9,1.61-2.02,2.96-1.88-.77.88-1.78,1.52-2.88,1.91.02.31-.46.19,0,0ZM30.2,69.9c-2.16.04-4.9,1.28-6.95.79-3.86-.93,2.16-2.71,2.66-3.06.03,0,.07.02.1.02,1.16-.42,5.12-.49,5.75-.42,2.77.28.11,2.64-1.55,2.67ZM32.62,32.88c0-.24.06-.33.13-.36-.03-.49.21-1.18.89-.33.47.59.94,1.51.9,2.29-1.03-.09-.95-1.42-1.92-1.59ZM33.58,60.3c-.12-.03-.2-.07-.25-.11.06.04.14.08.25.11-.21-.06-.28-.18-.28-.33-.04.03-.07.06-.06.11-.02-.06.01-.11.06-.15.02-.37.44-.92.28-1.23h1.6c0,1.03-1.27.8-1.6,1.59ZM35.59,38.44c-.11-.39-.48-1.69-.41-2.05.59,1.15,1.76,1.76.64,2.23-.22.09-.26-.04-.22-.18ZM36.46,63.81c.54-.64.86-1.48,1.92-1.59-.08,1.09-.95,1.39-1.92,1.59ZM38.49,54.41c-.02-.24.29-.61.44-.59,0-.09.06-.16.08.1-.25.09-.42.25-.52.49ZM35.82,52.01c.07-2.07.68-4.06.89-6.11.08-.72.1-1.45.07-2.18.46-.18.78-.5.96-.96,3.17-.44,2.71,9.95-1.92,9.24ZM40.42,25.85c-2.35-1.04-1.9-2.79.15-3.11.04-.03.24-.06.69-.06.05.01.68.1,1.14.21.2.03.37.07.47.17-.06-.06-.25-.12-.47-.17-.13-.02-.27-.03-.41-.04.25.06.4.11.48.14,3.3.73,11.71,2.68,8.63,4.72-1.21.8-.71.44-.95,1.8-.05.3-.2,1.1-.73.89-.59-.24,0-1.8-1.35-1.75-.71.02-1.29.47-2.02.4,0-2.83-3.55-2.29-5.63-3.21ZM43.64,65.83c-.1.05-.25.02-.47-.11,0-.14.01-.24.04-.31.21-1.18,1.9-.75,2.52-.65-.46.9-1.2,1.21-2.09,1.07ZM45.09,62.21s-.08-.07-.13-.11c0,0,0,0,0,0,0,0,0,0,0,0-.35-.3-.53-.68-.52-1.17,2.7,0,.65.21.64,1.28ZM48.61,73.37c-.57-.23-.05-.58,0-.96.57.23.04.58,0,.96ZM47.56,58.6c-.6-1.09-.59-.53-1.55-.28-.1.13-.18.14-.23.05-.02,0-.04,0-.06.01,0-.06,0-.09,0-.13-.15-.54,0-2.13,0-2.1,1.41,1.03,3.11,1.55,4.8,1.91-.31.41-2.72.96-2.96.54ZM50.2,74.96c0-.31.39-.25.64-.32,0,.31-.39.25-.64.32ZM53.34,72.92s0-.01,0-.02c0,0,0,.02,0,.03,0,0,0,0,0,0ZM55,72.73c.09-.03-1.25.41-1.57.24.18.06.64.02,1.57-.24-.51.15-1.01.08-1.45-.11-.1.06-.16.13-.19.19.03-.07.08-.14.17-.2-1.46-.64-2.18-2.7-.07-3.27,2.3-.62,1.3,2.55,1.54,3.39ZM58.51,63.49v-3.51c1.73.38,3.57,2.87,3.51,4.62-.04,1.05-1.04,1.24-1.91,1.12.11-1.11-.21-2.37-1.6-2.23ZM59.79,71.77c.6-1.32,1.11-2.72,2.88-2.87-.45,1.46-1.18,2.65-2.88,2.87ZM109.32,49.46c-2.66,2.07-3.57,5.21-6.85,6.74-7.24,3.38-15.3,5.2-23.29,5.29-3.8.04-8.11-.61-11.77.63-2.21.75-2.87-3.34-4.36-4.37-2.66-1.83-5.67-3.26-8.94-3.47-1.54-.1-5.13.16-5.51-1.96,5.85.29,11.4,2.53,17.25,2.84,5.91.3,11.29-.64,17.09-1.42,2.73-.37,5.32-.36,8.01-1.15,2.31-.68,4.56-1.54,6.9-2.12,1.63-.41,10.57-1.8,9.82-4.35-.61-2.09-1.24-.72-2.5-.4-1.87.48-3.73.96-5.62,1.43-5.03,1.25-10.27,1.2-15.27,2.59-2.87.8-6.23.51-9.22.75-2.69.21-5.37.43-8.06.51-5.86.17-11.59-1.22-17.44-1.22,1.34-2.05,2.1-4.62,1.28-7.01,6.06,2.07,12.52,1.94,18.84,1.93,6.15-.01,12.31-.28,18.42-1.04,2.85-.35,5.7-.8,8.48-1.52,2.62-.68,4.84-2.32,7.4-3.18,1.39-.47,2.31-1.2,3.29.21,1.23,1.78,2,3.05,1.11,5.19.68-1.64.62,0,.35.35.48.71,1.46,1.9,1.55,2.01,1.09,1.29.06,1.95-.96,2.75ZM53.53,72.62s.01,0,.02,0c.08-.05.17-.1.27-.14-.11.04-.21.08-.29.13ZM17.12,61.61s.08,0,.15-.04c-.08.03-.12.04-.15.03,0,0,0,0,0,0ZM17.26,61.5s.01.04.02.08c0-.04,0-.05-.01-.08,0,0,0,0,0,0ZM28.12,56.19s0,0,0-.01c-.03.03-.06.06-.1.09-.02.04,0,.03.09-.08ZM17.12,61.61s.07-.06.14-.11c-.03-.11-.11-.08-.16-.01-.04.05-.04.11.02.12ZM108.67,44.91s.02-.09.03-.16c-.09.07-.2,0-.31-.39-.04.32.06.5.29.55ZM28.15,56.16c.03-.07.05-.1.06-.13-.04.06-.07.12-.09.15,0,0,.02-.01.02-.02ZM14.41,61.2c-.01.15-.02.36,0,.7,0-.11.06-.26.16-.44,0-.14-.02-.29-.04-.38-.04.04-.08.08-.11.12ZM28.15,56.16s-.02.02-.03.04c-.02.05-.02.06.03-.04ZM28.75,48.79s0,.02-.01.03c.02,0,.03,0,.05,0,0-.12-.05-.16-.09-.17-.02.04-.03.1-.04.15.02,0,.05,0,.07.01,0-.01.01-.01.02-.03ZM28.73,48.82s0,0,0,0h0s0,0,0,0c0,0,0,0,0,0ZM28.72,48.82h-.07c0,.06.02.08.07,0ZM26.44,68.13c-.39,0-.82-.08-.73-.3,0,.01-.03.02-.03.04-.09.28.37.31.76.26ZM22.06,62.11c.07-.06.16-.14.23-.19-.06.04-.16.12-.23.19ZM26.91,67.94c.06.07-.18.15-.47.19.31,0,.58-.08.47-.19ZM26.08,67.67s-.05-.01-.07-.02c0,0,0,0,0,0,.03,0,.05.01.08.02ZM25.71,67.83c.04-.07.14-.13.29-.18-.04,0-.06-.01-.1-.02-.11.08-.16.14-.19.2ZM32.88,32.9s.1.02.17-.06c.01-.01,0-.04,0-.07,0,.06-.05.12-.17.13ZM26.91,67.94s0,0,0,0c0,0,0,0,0,0,0,0,0,0,0,0ZM26.91,67.94s-.17-.1-.39-.17c.13.05.26.1.39.17ZM33.04,32.77c0-.09-.07-.19-.16-.22.08.05.14.15.16.22ZM22.29,61.92c.09-.05.09-.01-.22.3.37-.37.34-.38.22-.3ZM81.21,8.34c-.3-1.1-2.98-.33-3.19.64.73,1.04,2.97.65,3.19-.64ZM88.9,10.5c.29.13.91.26.94.07-.19-.05-.39-.08-.61-.1.16,0,.36.03.61.1-.35-.13-.72-.19-1.08-.18,0,.02.02.04.06.06.11,0,.21,0,.31.01-.1,0-.17.01-.23.03ZM89.84,10.57c-.18,1.28-1.61.13-.94-.07-.03-.01-.06-.03-.08-.04-1.53-.01-3.28.63-1.85,2.35,2.22-.08,2.65-.63,2.88-2.23ZM94.96,16.63c1.48-.19,2.63-1.43,1.92-2.87-1.94-.26-3.38,1.64-1.92,2.87ZM89.52,20.45c-.22-2.21-3.48-1.84-3.52.32.36,1.7,3.51,1.68,3.52-.32ZM20.47,88.58c-.35.49-.31.95,0,1.36,0-.54,0-.98,0-1.36ZM20.63,88.47c.04-.2.1-.4.16-.58-.1-1.12-.3-1.78-.32.69.04-.05.06-.1.11-.15.01-.02.03,0,.05.04ZM20.81,89.68c-.01-.44-.11-1.05-.19-1.21-.1.46-.16.95-.15,1.47.01.02.02.04.03.05,0,0,.01.02.02.03,0,0,0,0,0,0,.06.08.11.14.14.16-.03-.03-.06-.07-.09-.1.13.11.2-.06.24-.39ZM29.07,84.97c-.07.01-.14.04-.2.06-.24.1-.45.18-.4.12-.25.26-.4.5-.46.74.36-.11,1.43-.93,1.06-.93ZM35.24,85.42c-3.92-3.15-12.69-2.74-14.45,2.47.05.6.08,1.34.02,1.8,0,.31-.03.54-.15.49,1.93,1.9,9.45,2.94,10.57,2.97,2.23.06,4.76-.03,5.83-2.39.88-1.94-.31-4.11-1.83-5.33ZM32.58,88.6c-1.28.14-5.02-1.01-4.57-2.69-.2.06-.17-.09.46-.74.13-.06.27-.09.4-.12.05-.02.09-.04.14-.06-.05,0-.1.02-.17.04.19-.08.38-.16.57-.22,0,0-.19.09-.4.17.03,0,.05,0,.07,0,3.02-.63,5.8,3.37,3.51,3.62ZM20.47,89.95s.03.04.05.07c0,0,0-.01-.01-.02-.01-.01-.02-.03-.03-.05ZM20.47,89.94s0,0,0,0c0,0,0,0,0,0,0,0,0,0,0,0Z"/>
    </g>
  </g>
</svg>