<?xml version="1.0" encoding="UTF-8"?>
<svg id="Layer_2" data-name="Layer 2" xmlns="http://www.w3.org/2000/svg" viewBox="0 0 114.28 97.21">
  <defs>
    <style>
      .cls-1 {
        fill-rule: evenodd;
      }
    </style>
  </defs>
  <g id="food_icons" data-name="food icons">
    <g id="pasta">
      <path class="cls-1" d="M56.25.01c.15,0,.31,0,.47.02-.21-.03-.36-.03-.47-.02ZM56.72.03c.06.13.09.26.12.39-.02-.1-.05-.22-.12-.39ZM54.8,32.66c-.51,1.23-2.49,10.14.5,6.49,4.26-5.2,4.34-12.41,3.53-18.59-.12-.93-.82-2.93-1.47-3.64-.32-1.93-.69-3.87-1.28-5.74,0-2.07-.28-4.37.11-6.4.27-1.37,1.05-2.94.65-4.37.14.85-1.47-.31-.6-.4-3.13.05-3.37,5.57-3.37,7.83,0,4.3,1.1,8.28,2.39,12.38,1.29,4.13,1.2,8.41-.47,12.44ZM69.65,21.45c1.59,1.78,1.46,3.44,1.46,5.68-.57,1.66-2.31,3.19-1.6,5.1,4.49-1.06,4.76-8.32,2.44-11.15-.86-1.04-3.1-2.72-3.08-4.15-.09-1.17,1.66-2.07,1.42-3.15-.15-.2-.32-.48-.14-.35-1.84-1.33-3.26,1.9-3.48,3.38-.29,2.01,1.78,3.3,2.98,4.64ZM70.15,13.42c.08.12.12.24.14.35.17.22.3.34-.14-.35ZM41.39,39.36c-.29.64-.95,3.58.31,3.71,4.18-3.09,3.16-7.57,1.52-11.69-.85-2.14-.88-3.96-.88-6.24,0-.5.59-4.9.55-4.95-.18-.02-.37-.05-.55-.07-4.14,0-2.9,9.44-2.01,11.71.95,2.43,2.18,5.03,1.06,7.53ZM42.34,20.12c1.31-.15-.32,0,0,0h0ZM69.19,49.44c-.34,1.15,1.91.2,0,0h0ZM37.51,45.84c.2.17.41.32.67.42.52-.59-.74-.7-.67-.42ZM56.4,64.74c-1.78,1.41.32,0,0,0h0ZM114.17,81.73c-1.49-5.51-12.54-3.18-16.85-3.28,1.94-4.44.96-13.76-3.3-16.48-1.92-1.22-3.85-2.39-6.11-2.83-1.42-.28-2.89-.3-4.34-.14-.89.65-2.75,1.74-3.84,1.91-.47-1.66-1.3-3.18-1.92-4.78,2.05,1.95,3.03-3.51,3.12-4.38.25-2.48.8-5.22-2.18-5.99-1.2-.31-2.91.56-3.62-.34-.43-.54-.87-1.09-1.57-1.3-1.97-.59-3.92.59-5.02,2.14-.29-.7-2.14-.42-2.56,0-1.11.82-.29,2.76-.96,3.82-2.28-1.15-5.85-2.28-8.35-1.31-3.1,1.21-5.82.66-9.12.65-1.74,0-2.71.43-3.54-1.26-.46-.94-.78-2.01-1.55-2.76-1.6-1.59-3.16-.44-4.3.86-.47-.18-.65-.32-.67-.42-.83-.71-1.22-1.87-2.16-2.49-1.57-1.03-1.76.86-2.8,1.59-1.32.93-7.24.48-6.21,3.24.45,1.21,2.5,1.87,1.4,3.29-.56.72-1.64,2.2-1.71,3.08-.29,4,3.15,3.26,5.43,5.42-2.17,1.62-4.26,2.65-6.3,4.52-2.17,1.99-4.42,3.57-6.16,5.94-1.57,2.14-3.27,4.21-4.17,6.75v2.87c.49.66,1.07.96.96,1.91-3.72-.28-7.38.4-11.08.64-1.75.11-3.31-.53-4.27,1.2-.56,1-.53,2.16-.31,3.26,2.03,2.6,4.08,3.6,7.47,3.84,3.11.22,6.13.26,9.07,1.34,1.31.48,1.06.87,2.63.87,1.01-.34,1.67-.02,2,.98,1.25,1.58,1.7,1.84,3.6,2.37,3.71,1.04,7.34.72,11.18.61,7.6-.22,15.2-.54,22.8-.79,8.2-.27,16.4-.45,24.61-.37,3.7.04,5.54-.04,8.35-2.68,1.01-.95,1.94-2,2.92-2.98,1.61-.29,3.19-.72,4.75-1.22,3.21-1.03,6.33-2.3,9.57-3.25,1.98-.58,5.89-1.1,5.09-4.05ZM80.75,62.95c.57-2.02,6.1-1.53,7.42-.95,1.34.6,2.49,1.42,3.81,2.02,1.81.82,1.52,1.9,2.79,3.28.24,3.73.59,7.44.96,11.16h-8.95c1.21-3.17.03-6.73-3.1-8.24-2.15-1.03-2.65-.11-2.65-2.82,0-1.94,2.36-1.11,3.73-.53,1.24.53,3.4,1.27,4.13,2.36.98,1.48,1.02,2.39,1.64,4.05.41,1.09.51,3.34,2.01,3.57,1.57-.05,1.28-2.16,1.28-3.19-1.08-1.71-.69-3.58-1.99-5.15-1.32-1.59-2.11-2.18-4.01-2.95-2.1-.86-3.18-1.46-5.51-1.46-.92-.15-2.06.66-1.55-1.16ZM81.02,72.72c2.94-.41,2.5,4.08,3.51,5.42-1.51.93-3.54-.12-5.11.64,1.45-1.53,1.43-4.1,1.6-6.06ZM77.27,51.91c-.07-.92-.68-1.6-.95-2.44-.03-.09-.06-.2-.09-.35,1.5-.21,2.37-1.89,2.3.88-.05,1.94-1.12,3.59-1.34,5.49-.76-.51-1.43-1.15-2.24-1.59.96-1.11,2.48.2,2.32-2ZM69.19,49.44c1.73.19,2.22-1.14,2.56-2.55.82,0,2.22,1.51,1.89,2.31-.65,1.56-1.12,1.08-2.85,1.52-.55.86.3,3.97-1.99,2.58-2-1.22-.15-2.05.39-3.85ZM57.78,54.89c2.32,3.05,3.44,7.04,5.98,9.85.71,3.49.96,6.63.96,10.2-.03,1.27-1.32,3.13,0,4.14,1.29.08,1.6-1.01,1.84-2.03.6-2.49.42-6.54-.22-9.1-.93-3.74-2.38-6.91-4.1-10.3-.98-1.94-3.73-4.12-3.92-6.3,1.64.15,3.54-.33,4.82,1.06,1,1.11,2.19,2.09,3.05,3.27,1.15,1.57,1.8,3.28,3,4.91.08,1.71.59,3.31,1.24,4.88.86,2.09-.2,4.77-.42,6.95-.12,1.23-.6,4.55,1.59,3.22,1.18-.72,1.03-3.49,1.27-4.69.08-.4-.13-2.84.61-2.64.13.23.3.42.52.57.1-2.93.11-6.37-1.24-9.07-.24-.49-3.23-4.56-.83-3.6,3.83,1.54,5.82,7.56,5.91,11.4.06,2.56.96,5.41.6,7.93-.15,1.09-.86,1.48-.49,2.67.34,1.11-.46.88-1.4.91-2.93.09-5.85.34-8.77.5-1.28.07-7.61,1.01-8.39.03.07.1,1.77-2.65,1.83-2.8.07-.94-.5-2.26-.88-3.1-.28-.6-.91-3.43-.71-2.96-.08-.2.1-.04.25.12.71-.01,0-4.58.07-4.9-.41-1.35-1.15-2.33-.96-3.83-.38-1.14-1.75-1.23-2.56-1.91-2.76-6.76-9.33-3.29-14.7-5.1,3.03-4.54,13.09-4.22,16.08-.29ZM50.79,70.73c1.26.61,3.44-2.33,4.34.7,1.36,0,1.41-.4,1.73.99.2.87.62,1.65.83,2.52-2.16-.64-3.02-.83-4.36.69-.9,1.02-2.8-.1-2.67-1.32.44-.06,1.6.33,1.28-.64.98-.13.23,1.41,1.6.76.92-.43,1.06-1.45.96-2.36-.92.07-1.2.87-1.92,1.28-.33-.36-.44-.78-.32-1.28-.88.23-2.95-.82-3.28-.24-.61,1.06-.13,2.59-.23,3.75-.33-.36-.44-.78-.32-1.27-2.48.76-4.69,3.03-6.78,4.46-1.64,1.12-2,1.28-4.09,1.28h-5.12c1.05-1.42,3.45-2.8,4.92-3.78,1.9-1.26,3.83-2.62,5.76-3.92,1.98-1.33,4.18-2.38,6.11-3.79,2.2-1.6,5.01-2.1,7.18-3.82,1.84,0,1.48,2.06,1.92,3.51-1.65-.08-3.61,1.27-5.11-.32-.46.28-4.31,1.89-2.42,2.8ZM52.25,78.77c1.28-.8,2.96.62,4.15.96.06.68-1.3.21-1.6.32.72-.92-2.23-.72-2.55-1.27ZM51.93,79.73c-1.2,1.04-3.22-.29-4.48.64-1.62.09-3.17-.52-4.8-.32,1.5-.92,5.06-3.17,6.7-3.18,0,0,.02,0,.04,0-.01,0-.02,0-.03,0,.98.05.24.02.03,0,1.08.08,1.37,1.32,2.53,1.27.17.51-.92,1.33,0,1.59ZM41.38,54.54c-.06.36-.32.18-.32,0,.06-.36.32-.18.32,0ZM30.51,51.36c-.51-.95-.77-2.11-1.6-2.87.26-.17.46-.26.61-.32,1.71-.78,4.11-.94,4.83-2.87,1.49.87,2.01,2.79,3.84,3.19,1.4.38,1.86-1.55,2.58.19.85,2.06.85,1.18-.66,2.68-1.07.4-1.31,1.78-2.56,1.91.04-1.69-1.85-.57-1.21.89.2.33.5.46.89.39-.07.52,0,1.02.21,1.49.54.96-2.42,2.57-3.72,2.34.38-1.21-1.49-1.89-.64-2.87,1.78.47,1.2,2.61,3.51.64-1.49-.88-.13-2.75-2.08-2.87-2.13-.13-.46-1.22.34-1.84,1.71-1.34-.61-1.62-.82-2.31-1,.11-1.36.92-1.92,1.59-.61.03-1.14.24-1.6.64ZM19.32,75.27c0-1.73.47-2.12,1.48-3.39,1.53-1.93,3.53-3.58,5.53-5.08,2.84-2.13,5.49-3.63,8.65-5.24,1.6-1.21,4.09-1.4,5.39-3,.12-.26.3-.6.36-.58-.03-.25-.09-.48-.21-.7.04.45,7.25.47,8.03.46,1.87-.02,2.38.17,3.93,1.03,1.01.56,1.33,2.08,2.32,2.46-2.36,2.44-6.13,3.81-8.96,5.66-3.1,2.03-6.48,3.79-9.35,6.15-2.04,1.68-3.95,3.1-5.6,5.15-.51.63-.72,1.37-.7,2.17-.76,0-1.51.07-2.25.2-1.39.23-2.74.63-4.14.75.89-1.85,1.54-3.81,2.24-5.74,1.55-1.47,3.22-2.79,4.91-4.09,1.69-1.3,3.39-2.59,5.01-3.99,1.14-.99,2.4-1.28,3.7-2.05,2.65-1.58,5.51-2.67,8.44-3.57.84-.58,2.16-.72,2.3-1.95.15-1.3-.55-1.97-1.73-1.76-5.97,1.08-12.08,5.59-16.45,9.56-1.32,1.2-2.62,1.94-3.9,3.24-1.09,1.12-2.27,2.15-3.42,3.2-1.44,1.32-2.85,2.69-3.98,4.29.2,1.16,1.24,1.79,1.6,2.87-2.53-.48-4.47,1.77-4.47-1.91,2.1-.11,1.28-2.46,1.28-4.14ZM7.81,87.7c-.63.12-1.22.03-1.78-.25.27,0,.32-.9-.14-.06.65-1.17.89-2.29,2.56-1.91.03.95-.94,1.16-.64,2.23ZM30.01,94.48c-1.88.12.62-2.12-1.68-2.13-1.13,0-1.63.93-2.6,1.28-1.79.65-.29-1.27-.33-1.79h6.07c-.31.88-.17,2.56-1.46,2.64ZM34.03,92.16c.03.39-.46.2,0,0,.06-.96,1.33.31,0,0ZM101.8,83.23c-.71.65-1.62,1.05-2.56,1.28-1.88.66-3.82,1.12-5.75,1.59-1.66.34-4.16-.32-5.92-.32-1.95,0-3.91.06-5.85-.02-1.54-.06-3.6-.42-4.98.49-1.98,1.31.56,1.77,1.72,1.83,3.91.22,7.91-.07,11.83-.07-1.33,2.04-1.78,4.46-4.58,4.46s-5.5.33-8.27.36c-4.97.05-10.02-.45-14.96.28-2.4,0-4.81-.05-7.21-.05-.88,0-1.25.5-2.12.22-.92-.31-.55-1.18-1.64-.51-1.72,1.05-2.37,1.39-3.65-.06-1.12-1.29-1.74,1.04-2.64,1.05.36-2.37-1.6-2.01-2.44-.51-.39.69-2.82,1.55-2.7.39.09-1,.12-3.82-1.52-1.61-1.07,1.45-1.25,2.84-3.57,2.37.2-.62-.1-1.33-.05-1.97.06-.84.91-.45,1.43-.8,1.66-1.11.34-2.43-1.12-2.62-4.39-.57-8.95.4-13.35-.2-3.36-.46-7.67.17-10.84-1.21-.6-.26-1.06-.71-1.24-1.35-.37-1.42,1.54-1,2.5-1.1,2.19-.23,4.39-.35,6.58-.42,5.43-.16,10.86.02,16.29-.04,2.36-.03,5.42.47,7.33-1.15,1.48-1.25,4.54-.62,6.44-.63,10.58-.06,21.16-.35,31.73-.95,7.97.81,16.01-.79,23.97.32-.83.6-1.87.85-2.88.96ZM54.8,80.05c.47-.17.85-1.08,0,0h0ZM40.74,58.05c-.1.19-.24.35-.37.51-.16.34-.2.52.37-.51ZM25.4,91.84c.07.95,2.02,0,0,0h0ZM79.42,78.77c1.29-.63,1.24-1.31,0,0h0ZM80.7,81.96c-12.1.69,7.3.74,0,0h0ZM76.22,49.12c.02.12.05.23.09.35.25.69.57-.44-.09-.35ZM94.76,67.3c-.61-.67.24,3.8,0,0h0ZM29.52,48.17c-.21.1-.42.2-.61.32.66.6,1.46-.63.61-.32ZM59.85,70.92c-.07,0-.15-.03-.25-.12.61.59.45.34.25.12ZM38.18,51.04c-.11-.95-.55-1.57-1.28-1.91-.13,1.19.25,1.87,1.28,1.91ZM73.67,74.95c.31,1.39-1.64,2.18-.64,3.19.26-.82,1.62-2.18.64-3.19ZM62.76,86.94c-3.38-1.13-9.56-.31-12.43,1.4,2.41-.17,4.98-.71,7.35,0,1.22,0,4.87.59,5.38-1.11-.28.58-1.36-.57-.31-.28Z"/>
    </g>
  </g>
</svg>