<?xml version="1.0" encoding="UTF-8"?>
<svg id="Layer_2" data-name="Layer 2" xmlns="http://www.w3.org/2000/svg" viewBox="0 0 119.34 87.41">
  <defs>
    <style>
      .cls-1 {
        fill-rule: evenodd;
      }
    </style>
  </defs>
  <g id="food_icons" data-name="food icons">
    <g id="pea">
      <path class="cls-1" d="M64.29,32.52s0,0,0,0c0,0,0,0,0,0,0,0,0,0,0,0ZM118.86.66c-.21.03-1.29-.67-.55-.65-2.41-.05-2.42.67-3.45,2.62-.82,1.55-1.92,2.79-2.93,4.19-.97,1.33-1.58,2.97-2.89,4.03-1.1-.82-3.5.24-4.82.19-1.7-.07-3.93.69-5.54-.06-1.64-.76-2.75-.73-4.59-.77-3.4-.07-6.87-1-10.09-.03-6.26,1.88-12.36,4.52-17.71,8.08-2.31,1.54-4.62,4.17-6.64,6.26-2.39,2.48-5.18,4.49-7.3,7.25-1.74,2.27-4.63,4.26-6.82,6.21-2.91,2.59-4.92,5.96-7.46,8.88-2.76,3.17-6.7,5-10.29,7.12-3.08,1.82-5.93,3.37-9.46,3.96-2.4.4-4.97,2.96-1.3,4.25,1.88.66,3.62,1.79,5.59,2.08,2.07.32,4.16.49,6.25.6,2.97.15,9.95,1.48,12.28-.6,1.99-1.78,6.77-2.2,9.39-2.75-1.2,4.22-5.97,7.96-8.86,11.07-1.73,1.87-3.94,2.73-6.08,4.1-.68.43-2.93,1.42-1.89,2.56.33.36.83.49.84,1.07-1.36.34-5.53,1.19-5.76,3.19,1.57-.21,2.66-1.27,3.72.32.77,1.15,1.75.97,3.03.88,3.37-.26,6.7-.85,10.07-1.08,2.45-.17,4.4-.69,6.7-1.41,2.94-.94,5.87-.77,8.68-2.29,3.09-1.65,5.65-3.7,8.71-5.45,2.65-1.51,5.22-3.13,7.49-5.17,2.04-1.84,3.46-3.11,4.58-5.47.66-1.37.89-2.12,1.87-3.39.94-1.21,1.78-2.48,2.66-3.73,2-2.84,4.35-5.17,5.97-8.31,1.37-2.66,2.88-5.26,4.07-8.01,1.28-2.95,1.95-5.92,3.37-8.72,1.03-2.03,3.22-4.43,3.81-6.4.19-.62,1.68-1.86,2.22-2.64.73-1.05,1.25-2.1,2.11-3.08,1.53-1.75,3.1-5.28,5.33-6.16,1.77-1.74,5.12-4.39,5.57-6.84.3-1.64,1.06-4.26.09-5.89ZM46.35,55.38c-.09.79-.29,1.59-.6,2.32-.49.48-1.34.55-1.6,1.28-.96-.05-1.08-.46-1.8.11-.71.55-1.47.69-2.35.53-1.16-.1.69-1.42.32-2.23-1.66.29-2.04,1.07-3.52,1.6-1.01-3.75,3.02-5.01,5.43-6.7,2.78,0,4.53-.28,4.12,3.09ZM101.05,21.68c-.96.7-2.28,2.7-2.56,3.83-1.26.59-2.07,1.78-2.34,2.95-.33,1.4-1.12,3.09-2.5,3.06-1.05-.03-2.33-.04-3.24.59-2.04,1.41-.28,4.47,2,3.28-.26,1.88-3.56-.39-4.96.95-2.05,1.98.61,3.44,2.4,3.83-.19,2.35-4.76.78-6.11,1.77-3.3,2.44,2.6,3.39,1.77,5.45-1.27,3.16-4.14,1.96-6.76,3.12-3.03,1.35-1.73,3.71,1.18,3.69-.13,1.68-3.14.88-4.16.95-2.87.2.37,2.32,1.93,2.24-.66,1.57-4.13.24-5.42.77-1.84.76-3.91,2.08-.69,3.04,3.48,1.03-.2,1.59-1.78,1.56-1.19-.02-2.67.22-3.8.6-1.74.58-.65,1.77-.47,2.96-.43.1-4.52-.72-2.6,1.18.47.46,3.47.34,3.47.6,0,.24-4.83.13-5.03.13.61-1.54-.94-2.54-2.23-1.59-.16,1,.09,1.95,1.27,1.91,0,1.04-1.87,1.41-1.92,1.91.24.66,1.3.1,1.61.7.5,1.01-1.68.71-2.17.81-1.42.26-2.93,1.68-4.23,1.68-.02.48.19.8.64.96.05.66-2.87-.12-2.56,1.92-1.56-.37-2.22.56-1.92,1.91-1.04.18-1.86-.31-2.88-.32-.5.08-.07.95-.64.96-2.2.52-4.46.75-6.71.96,3.73-2.9,6.99-6.56,10.11-10.25,1.92-2.26,3.74-4.6,5.42-7.05,1.49-2.18,1.3-4.14,2.72-6.34,2.64-4.11,4.63-8.56,7.96-12.21,3.2-3.51,6.67-6.61,10.56-9.43-.06-.65-1.06-.15-1.28-.64,2.38-3.16,6.9-4.96,10.25-6.93,1.94-1.14,3.8-2.4,5.85-3.35,1.17-.54,4.35-.88,5.01-2.15,1.74.03,3.69-.16,5.11-1.27.97.31-.37.82-.32,1.27ZM50.87,57.06c1.11-.25,1.04.75,1.92.96-.27.45-.51.85-1.03.93-.04.02-.11.04-.25.03-.3-.61-.52-1.25-.64-1.91ZM50.54,45.91c-1.1-5.11,7.26-5.54,6.71-.63-.76,2.87-5.19,2.45-6.71.63ZM64.29,32.52c.54-.37.2-.14,0,0,1.46-1,4.8-.33,6.38,0-1.62,1.67-4.22,6.05-6.71,6.38-.87-1.57-1.37-5.19.32-6.38-.12.08-.19.13,0,0ZM80.27,22.32c.42-.04.53-.04.48-.02,1.17,0,2.19.46,3.36.66-.12.88-2.62,2.36-3.42,2.72-1.4.63-3.92,1.69-4.88,3.02-2.83-2.29,1.89-5.5,4.05-6.25-.07,0,.01-.03.42-.12ZM87.3,18.81c.47-.5.89-1.03,1.28-1.59.61-.07.84-.06.88-.01,1.37.09,2.53.71,3.92.97-.19,1.34-4.6,2.88-5.75,3.19.11-.9-.1-1.69-.33-2.55ZM102.67,16.7c-1.46.65-1.82.41-3.42.65-1.36.2-2.2.87-3.33-.25-.52-.51-.92-1.13-1.58-1.48-2.36-.03-4.16-1.84-6.67-.6-2.06,1.01-3.29,2.67-2.92,5.06-3.35-1.19-7.34-1.07-9.92,1.65-1.93,2.04-3.17,5.61-1.21,7.77,1.05,1.15-3.78-.17-4.29-.25-2.13-.32-4.54-.46-6.21,1.09-2.17,2.01-3.99,9.26.86,9.19-1.07,1.66-2.36,3.18-3.52,4.78-2.27-3.76-3.23-5.42-7.99-5.42-2.79.12-4.92,3.81-5.01,6.09-.13,3.12,2.13,5.31,5.16,5.67,2.02.24,2.25-.33,2.03,1.74-.11,1.04-1.38,1.15-1.23,2.12-1.17-.15-.86-2.06-1.93-1.45-.53.3-.65.97-.95,1.45-.86-.56-1.08-1.71-1.44-2.6-.5-1.21-1.62-.94-2.07-1.87-2.52-.24-5.19-.02-7.4,1.31-1.78,1.06-3.24,2.89-4.13,4.74-1.25,2.6,1.31,3.53,1.62,5.75-1.54,0-2.46.39-2.78-1.36-.06-.52-.19-1.02-.41-1.51-.49.12-.92.01-1.28-.32-.65-.17-1.07.04-1.28.64-.37-.08-.73-.17-1.09-.27-1.12.03-1.39,2.09-1.47,2.82-.98.08-.69-1.24-1.59-1.27-.9.04-.61,1.36-1.6,1.27.26-1.52,2.16-1.88,2.23-3.51-1.69.38-3.07,1.62-4.82,1.82-1.15.13-1.36-.25-2.17.28-.37.16-.71.1-1-.18.06-.47.77-.29,1.28-.32-.51.03,0-.28,0,0,0-.09,8.97-3.74,10-4.32,3.57-2,6.66-3.54,9.44-6.64,2.98-3.33,5.48-6.93,8.8-9.97,3.28-3,6.29-6.07,9.5-9.15,3.13-3,6.47-5.8,9.25-9.14,3.62-1.16,6.66-3.96,10.35-5.1,4.08-1.26,7.8-2.87,12.13-2.87,2.58,0,5.26,1.03,7.78,1.61,2.34.54,4.42.62,6.82.62-.48.98-1.62,1.3-2.54,1.71ZM51.5,58.98c.1,0,.17-.02.25-.03.2-.11-.46-.46-.25.03ZM80.27,22.32c-.12.03-.27.07-.42.12.13,0,.8-.11.9-.14-.16,0-.32,0-.48.02ZM89.46,17.2c-.28-.02-.57-.02-.88.01-.27.42.98.1.88-.01ZM42.23,52.28c-2.29,1.6,1.17,0,0,0h0ZM118.31,0c.23.19.41.41.55.65.1-.01,0-.18-.55-.65ZM96.26,21.68c-.29.56,2.17.04,0,0h0ZM.35,71.09c-.14-.59-.2-1.17-.21-1.75-.18-.42-.26-.26.21,1.75ZM12.82,64.4C8.47,57.13.03,62.5.14,69.34c.25.57.68,2.2.21,1.75,2.5,2.39,6.81,2.35,9.79.94,3.35-1.58,2.52-4.61,2.69-7.63ZM4.19,66.63c.06-.36.32-.18.32,0-.06.36-.32.18-.32,0ZM4.51,65.67c.32-.85.54-1.8,1.92-1.59-.53.64-.85,1.48-1.92,1.59ZM9.9,67.66c-.13.67-.32,1.9-1.31,1.49-1.54-.64-.61-.62-1.53-1.88-.06-.67,0-.67.04-.5.21-.95,1.17-1.52.93-2.69,1.94-.21,2.12,2.24,1.88,3.58ZM7.1,66.77c-.03.15-.05.32-.04.5.15.21.09-.28.04-.5ZM22.45,70.91c-2.07-.51-3.72.83-5.5,1.67-3.75,1.77-7.05,7.88-5.26,11.76,1.91,4.13,8.63,3.62,12.05,1.24-.08-.02.82-.95.67-.6,1.63-2.71,2.41-6.69,2.01-9.76-.25-1.93-1.98-3.82-3.96-4.3ZM23.18,79.33c-1.14,1.36-1.19-.85-2.05-.9-.9-.06-1.53,1.07-2.24.96-.44-.98-.27-2.86-1.6-3.19,1.17-1.33,2.52-2.14,4.22-2.24.1-.03.36-.04.9,0,.17.11.24.18.25.23,1.22,1.11,1.52,3.96.51,5.14ZM23.74,85.57s.19-.11.59-.45c-.18.16-.38.31-.59.45ZM22.67,74.19c-.08-.08-.16-.17-.25-.23-.31-.03-.61-.02-.9,0-.33.1,1.21.48,1.15.23Z"/>
    </g>
  </g>
</svg>