<?xml version="1.0" encoding="UTF-8"?>
<svg id="Layer_2" data-name="Layer 2" xmlns="http://www.w3.org/2000/svg" viewBox="0 0 74.39 101.14">
  <defs>
    <style>
      .cls-1 {
        fill-rule: evenodd;
      }
    </style>
  </defs>
  <g id="food_icons" data-name="food icons">
    <g id="pear">
      <path class="cls-1" d="M9.91,61.02c.05.07.12.14.22.19.59-.58-.39-.5-.22-.19ZM8.53,73.33c.13-.83-.49-.58,0,0h0ZM72.93,59.55c-.56-1.74-1.09-4.28-2.7-5.36-.55-2.3-1.86-4.01-3.39-5.7-3.16-3.49-7.6-6.06-11.17-9.27-3.67-3.29-3.24-9.17-3.99-13.72.13-1.12-.98-.93-1.45-1.61-.44-.63-.38-2.04-.6-2.78-.55-1.86-1.52-3.56-2.86-4.97-3.28-3.43-8.61-2.41-12.98-2.44.13-2.53-.91-6.7,1.01-8.76.67-.72,2.24-1.38,2.22.12-.02,1.1,1.39,1.62,1.24,2.58,3,2.32,5.51,5.1,8.88,6.93,1.58.86,3.28,1.46,4.86,2.32,2.15.17,4.29.5,6.39.96,1.49-.08,3.33,1.33,4.73.57,1.42-.77.83-2.72.29-3.9-1.31-2.87-2.02-5.53-2.81-8.56-.51-1.94-1.71-4.25-3.75-4.65-2.06-.4-4.17-.45-6.26-.33-4.15.25-8.21,1.2-12.34,1.57,6.21-.55-1,.1,0,0-.91.09.76-.92-.32-.96.38-1.43-2.07-1.48-2.85-1.58-1.72-.22-5.04,1.92-5.14,3.81-.03.64-.86,1.99-1.03,2.79-.35,1.64-.47,3.32-.54,4.99-.05,1.23-.05,2.46-.03,3.69-.57,0-1.11.15-1.6.44-.95.55-1.85,1.11-2.58,1.91-4.69,5.13-7.65,12.33-7.65,19.33,0,3.45-2.55,7.04-3.83,10.2-2.54,1.41-4.27,3.81-5.63,6.31C2.92,61.06-.71,68.87.12,77.64c.87,9.21,6.97,17.8,15.76,21,1.38.5,4.09.77,5.12,1.78,2.29-.06,4.55.25,6.81.62,2.74.45,3.44-.62,5.66-2.02,1.53-.97,3.67-.82,5.43-1.79,2,2.08,3.95,2.19,6.55,2.41,2.37.2,4.54.78,6.94.78,1.79,0,3.21.36,4.53-.84.35-.32,1.42-.36,1.9-.55,1.36-.54,1.56-.07,2.08-1.51.74-2.05,2.65-3.12,4.22-4.47,1.52-1.31,2.26-3.93,3.5-5.59,1.33-1.8,2.83-3.46,4.16-5.25,1.23-1.66,1.61-4.94,1.61-7.01,0-5.34.19-10.49-1.46-15.64ZM54.77,5.43c1.69.38,2.29,6.08,2.67,7.97-2.85-.36-6.08-1.65-8.39-3.37-1.01-.75-5.11-2.54-5.04-3.97,3.55-.19,7.21-1.42,10.76-.64ZM10.45,58.98c1.1.18,1.73,1.21,2.88,1.28-.7.98-2.37.14-3.2.96-.13-.07-.19-.13-.22-.19-.4-.54.47-1.54.54-2.04ZM7.57,71.09c.79-.19,1.13.51,1.92.32,0,.86-.84,1.12-.96,1.92-.61-.72-1.12-1.17-.96-2.23ZM8.53,80.02c1.46-.29,1.3,1.05,1.6,1.91-1.53.38-2.25-1.11-1.6-1.91ZM12.05,81.93c-.11-.66-.54-.23-.22-.06-.78-.27-.71-1.53.54-1.53.21.74-.44.91-.32,1.59ZM13,88.31c.23-1.16,2.33-.44,3.51-.64-.73,1.25-2.64,2.06-3.51.64ZM14.6,83.21c.47.18,1.66-.37,1.6.32.36,1.09-2.32.94-1.6-.32ZM70.68,73.46c-.53,1.5-.76,2.4-1.5,3.78-.59,1.11-.9,2.34-1.3,3.52-1.06,3.12-2.6,5.93-4.47,8.64-.98,1.43-2.45,2.07-3.85,3.04-.54.37-1.04.79-1.49,1.28-.58-.11-1.11,0-1.6.32-.52.06-.33.96-.4,1.28-.24.47-.67.63-1.28.47-1.04.3-2.35,1.23-3.46.61-1.01-.56-1.13-1.83-2.53-1.72-.78.51-.12,2.07.64,2.23-1.48.85-3.78.24-5.11-.64,1.24-.57,1.6-2.74.96-3.82-1.45.42-1.88,2.27-1.28,3.51-1.94-1.08-2.23-3.45-4.17-4.13-1.07-.37.26-2.84-1.26-3.84-.86,1.1-1.69,1.81-3.2,1.6,1.14-.88,2.53-1.57,3.2-2.92,1.14-2.29-1.16-.14-1.6.37-1.08.41-2.09,1.52-2.82,2.18-.34.31-.9,1.42-1.34,1.32.97.67-4.23,1.96-4.8,2.23-4.22,0-7.54-.11-11.51-1.59,1.6-1.28,5.34.53,6.71,1.28,1.02-.07,2.15-.84,3.17-.48,1.14.41,1.4.34,2.61-.31,3.57-1.92,4.77-7.1,4.45-11.01-1.91.33-4.02,6.94-1.92,6.7-1.07.97-2.62,1.35-3.52,2.55-.87,0-.37-1.69-2.08-.32-.26.21-1.64.76-1.64.81-.02-.23,1.22-1.66,1.35-2.09.43-1.47-.15-1.47,1.03-2.6.42-.4,2.75-2.88,1.49-3.15-.45-.1-1.61.06-1.75.66-.54-.19.32-1.9-.87-1.19-1.75,1.04-1.43-.05-1.21-1.85.21-1.69.74-2.9-.15-4.29.02-.58.97-3.41,1.01-3.42-2.32,1.11-2.02,5.26-2.63,7.28-.47,1.53-.36,3.4-1.3,4.77-1.2,1.74-.88-.4-1.88-.02,0-1.21-.08-2.12.87-3.02.41-.38,2.37-1.62,1.48-2.36-1.24-1.02,1.78-6.64,2.44-8.02-.08-.57-1.7,1.69-1.85,1.98-.77,1.45-1.68,3.07-1.98,4.71-1.52-.74.25-2.65,0-3.82-.79.78-1.24,1.75-1.28,2.87-.97.24-1.4,1.15-2.24,1.59.29,1.89-1.02,2.93-2.88,2.55.6-1.6.85-3.27,2.37-3.62,1.21-.29,2.04-1.15,2.74-2.11-.65-.73-1.75-.67-2.56-.32.04-.37,1.31-4.64.59-4.29-1.22.59-1.97,2.88-2.51,3.97-1.44-1.06-3.13-.7-4.79-.64.07-1.53,1.03-2.45,2.23-3.24,1.4-.92,2.49-.46,3.92-1.15,3.05-1.48-3.52-.83-3.27-2.3-.09.52-.88,1.29,0,0-.94,1.38-3.47-.23-4.8.64.35-1.65.21-3.74,2.07-3.95,1.08-.12,2.16-.24,3.23-.47.94-.2,1.88-.48,2.7-1,.19-.79-.33-1.17-.32-1.91,1.37.04,2.63-.33,3.83-.96.11-.91-.89-.78-1.04-1.51-.38-1.86-2.53-.81-4.3-.84-1.79-.04-1.36-1.19-.6-2.3.79-1.15,1.11-.56,2.3-.08,2.11.85,4.83,1.93,6.84.27-.02-.27-4.11-.91-4.46-1.05-.71-.27-1.72-.25-2.25-.87-.74-.21-.91.44-1.6.32.32-.42.26-2.08,1.15-1.47.1.07.93.94,1.09,1.15,1.37-.28,2.38.55,3.78-.05,1.41-.61.46-1.44-.31-1.82-1.11-.54-2.72-.87-4.11-.68.11-.96.93-1.4,1.28-2.23.99,1.64,4.21,1.68,5.43.32-1.37-.83-3.27-.66-4.8-.63,1.81-1.54,1.69-5.65,3.69-6.38,2.01-.73,4.73-1.24,5.58-3.5-.85-1.11-5.02,1.1-6.07,1.28,0-2.93,2.99-3.22,4.2-5.38,1.06-1.91-1.25-.13-1.64-.04-.12.31-1.81,2.31-1.96,1.71-.2-.79,1.46-3.7,1.89-4.21,1.37-1.64,3.12-3.75,3.9-5.78-1.74-.83-2.82,1.62-3.2,2.87-.72-.38.3-2.54.54-3.07.79-1.68,1.7-1.74,3.44-2.14,2.31-.52,1.58-.12,3.04,1.48.83.92,1.99,1.25,3.21,1.17,4.06-.84-1.71-6.74,1.55-8.23,2.16-.98,7.05.09,8.56,1.84.95,1.1,1.79,2.22,1.99,3.71.24,1.81,1.23,3.31,1.36,5.1.13,1.68.64,3.27.92,4.92,0,1.45-.06,2.65.46,4,1.21,3.14,4.75,3.55,7,5.69,1.97,1.87,3.7,4.17,5.99,5.19,5.55,2.46,5.75,10.83,8.17,15.52,1.18,2.28,1.14,7.06.25,9.58ZM25.15,82.89c-.29.67-.5,1.42-.96,1.91-.54-.26-.04-2.14.96-1.91ZM44.01,6.06c-.04.77,3.86-.21,0,0h0ZM41.64,42.23c-.77-2.03-3.74-2.48-3.38.38.33,2.66,2.52,1.56,3.52.11-.35.5-.3-.72-.14-.49ZM41.77,42.72c-.05-.29-.1-.43-.14-.49.06.15.11.32.14.49ZM46.97,43.44c.28.1.58.27.88.56-.63-.61-.86-.69-.88-.56ZM46.97,43.44c-1.72-.58-2.96,2.09-2,3.75,2.85.38,2.9-.29,2.88-3.19,0,.95-.92-.29-.88-.56ZM20.68,47.19c1.56.61,5.02.62,5.11-1.28-1.75.03-5.7-1.9-5.11,1.28ZM64.76,62.16c.12.09.24.19.35.32-.2-.26-.3-.34-.35-.32ZM65.13,62.76c0-.07,0-.15-.02-.27.01.09.02.18.02.27ZM64.76,62.16c-1.33-.94-3.68.49-2.49,2.12,1.36,1.87,2.92.15,2.86-1.53,0,.5-.51-.55-.37-.59ZM13.72,65.07c-1.31.21,2.19.69,2.16-.03h-1.92c.06,0-.07.01-.25.03ZM13.72,65.07c.07-.01.15-.02.25-.03-1.4.13-.69.07-.25.03ZM13,66.95c-.27-.06-.3.12-.32.32.27.06.3-.12.32-.32ZM63.77,77.11c.05.25.08.49.06.68.05-.51.01-.68-.06-.68ZM63.77,77.11c-.29-1.37-1.52-3.21-2.28-1.18-.94,2.5.56,2.54,2.33,1.86-.48.19-.21-.68-.06-.68ZM57.12,80.66c1.56-.36.98-3.81.64-5.1-2.71-.78-3.31,5.33-.64,5.1ZM52.46,82.13c-2.17.68-.87,3.15.85,3.57.13-.1.88-.25.71-.03,1.34-1.21.6-4.22-1.55-3.54ZM53.92,85.76c-.21.01-.41-.01-.62-.06-.07.06.05.1.62.06ZM28.99,88.31c.37-1.23.65-4.23,0-5.42-.12,1.47-1.27,4.6,0,5.42ZM44.65,87.04c.14.6-.44,1.92.64,1.59.05-.79.06-1.55-.64-1.59ZM32.83,90.22h.32c-.06-.37-.32-.18-.32,0ZM32.51,90.54c.02-.19.11,0,0,0,.32.11.42,0,.32-.32-.23-.02-.34.09-.32.32ZM31.54,91.18c.55.02.82-.25.96-.64-.55-.01-.83.24-.96.64ZM31.23,91.5c.27.06.3-.12.32-.32-.27-.06-.3.12-.32.32Z"/>
    </g>
  </g>
</svg>