<?xml version="1.0" encoding="UTF-8"?>
<svg id="Layer_2" data-name="Layer 2" xmlns="http://www.w3.org/2000/svg" viewBox="0 0 108.04 80.61">
  <defs>
    <style>
      .cls-1 {
        fill-rule: evenodd;
      }
    </style>
  </defs>
  <g id="food_icons" data-name="food icons">
    <g id="pie">
      <path class="cls-1" d="M51.1,18.08c.44,1.54,1.6,2.37,3.21,2.33-.85-1.98-1.51-3.27-.25-5.27,1.3-2.06,2.49-3.53,2.49-5.97,0-2.57-.17-9.16-4.15-9.16.21,0,.07.6,0,0,.13,1.1-.46,1.81.05,3.03.31.74.76,1.41,1.02,2.17.63,1.83.45,5.21-.67,6.8-1.4,1.99-2.4,3.6-1.69,6.08ZM65.54,12.59c.09.05.19.09.28.16-.13-.1-.22-.15-.28-.16ZM63.36,21.66c-.28,1.09-.41,2.08.54,2.89,2.58.39,3.51-2.39,3.12-4.43-.22-1.18-.79-2.23-1.22-3.33-.58-1.44-.1-2.58.02-4.03-.08.92-.65-.24-.28-.16-1.21-.67-2.98.12-3.17,1.43-.22,1.55,0,2.82.37,4.21.37,1.39,1.01,1.89.62,3.44ZM39.69,22.43c1.72,2.25,2.55-.51,2.25-2.17-.3-1.68-1.19-3.17-2.01-4.64,1.1,1.95-.53,0,0,0-1.98,0-2.42.9-1.61,2.82.54,1.28.5,2.85,1.37,3.99ZM12.64,63.82c-.11.2-.2.39-.21.58,1.08.16.55-.82.21-.58ZM81.16,63.75c-.17.02-.33,0-.5.01-.28.05-.29.07.5-.01ZM107.92,54.42c-.19-.99-.79-3.87-2.14-4.05,0,.05-2.56-2.39-2.65-2.46-1.48-1.16-3.52-1.54-5.34-.73-.67-2.14-2.52-3.4-3.84-5.1-1.45-.15-2.83-2.92-3.76-3.9-2.81-2.94-6.66-5.23-10.35-6.97-9.5-4.48-21.17-3.71-31.46-3.52-9.98.18-18.71,7.24-27.27,11.39-3.98,1.93-8.86,4.86-11.28,8.56-.61.94-.93,1.76-1.36,2.79-.52,1.24-1.5,1.12-2.62,1.64-.54.25-3.72,1.24-3.96,1.79C-.15,54.46.05,57.35,0,59.05c-.06,1.99,1.28,3.13,2.89,4.08,1.72,1.02,3.72,1.47,5.7,1.58.65,1.78,2.22,2.87,3.33,4.33,1.35,1.77,2.9,4.16,4.66,5.55-.2,2.52.6,2.91,2.93,3.45,4.99,1.16,10.11,1.69,15.21,2.05,10.43.73,21.03.67,31.47-.1,5.23-.39,10.45-1.05,15.59-2.07,2.46-.48,4.82-.37,7.32-.51,1.81-.11,5.21.29,6.47-.77,1.01-.85,1.62-.79,2.42-2.13.55-.91,1.01-1.87,1.43-2.84.87-1.96,1.61-4,2.66-5.88.98-1.74,1.64-2.18.41-3.86-.53-.73,2.61-1.24,3.31-1.75,1.8-1.29,2.52-3.55,2.09-5.77ZM12.43,48.13c1.5-.34-.52,1.08.64,1.28-.54,1.12-.82-.62-.64-1.28ZM15.63,66.94c-.17-1.02.8-1.53.64-2.55-1.08-.12-.55,1.4-.96,1.91-1.25-.24-1.6-1.73-2.88-1.91.02-.34.11-.51.21-.58.57-1.01,2.19-2.06,2.78-1.55.63.56,1.26,2.41,2.45,2.12-.27,1.21-.99,2.21-2.23,2.55ZM17.87,68.86c.06-.36.32-.18.32,0-.06.36-.32.17-.32,0ZM98.01,65.09c-.58,2.11-1.88,3.85-3.08,5.63-1.08,1.58-.46.62-1.94.68-.44.22-.43.83-.92.99-1.14.37-2.12,1.47-3.55,1.24-.77.17-1.71-2.76-1.92,0-1.47-.09-3.53.57-5.01.78-4.66.63-9.14,1.48-13.84,1.77.13-.25.35-.36.63-.32-2.05-1.48-5.26-1.97-7.69-1.83-1.6.1-3.19.28-4.77.55-.96.23-1.62-.5-2.61-.18-1.01.32-1.71.74-2.82.5-.88.05-.71-.91-1.33-1.22-1.61-.81-2.75,1.57-4.42,1.22.46-.74,1.42-.97,1.78-1.8.76-1.76-1.63-.61-2.21-.35-.51.23-4.14,2.46-3.92,1.75.36-1.12,1.71-2.11,1.47-3.43-.67-1.01-.83-1.31-2.3-.64-.76.35-1.32.97-1.85,1.59-.97-.08.21-1.94-1.32-1.06-.57.33-.85.93-1.33,1.36-.92.82-1.26,2.57-2.79,2.57.62-2.36,2.72-3.71,2.55-6.38-2.68-.15-4.02,5.34-5.75,4.78.48-1.92,2.8-3.21,1.92-5.42-1.68-.03-1.71,1.48-2.96,1.85-1.01.3-.86-2.81-1.14-3.08-1.27-1.26-3.01,2.32-3.58,3.15-.79-.42-.16-2.12-.37-2.82-.34-1.11-1.88.58-2.5.58.59-2.58-1.4-1-1.85-1.36-1.42-1.13,3.97-.58,3.97-.58,2.24-.14,4.41-.81,6.18-2.2,1.12-1.03,1.08-2.47,2.62-1.84,1,.41,1.97.88,3,1.22,2.06.68,5.98.75,8.03-.01,1.83-.68,2.78-1.77,4.07-2.83.41-.33,1.83,1.71,2.2,2.1.86.9,1.53,1.16,2.73,1.61,3.25,1.21,11.35,2.48,13.48-1.52,1.66,1.02,2.1,2.06,4.21,2.23,1.58.13,3.25,0,4.74-.6,1.77-.7,1.6-1.5,3.54-.7,1.08.44,2.16.7,3.32.67.25-.04.72-.11,1.05-.15,2.35-.6,3.83-2.41,5.2-4.33,1.19.44,1.17,1.72,2.42,2.15,1.43.5,2.16.71,3.76.71s2.41-.64,3.61-1.63c1.46-1.2,1.78.3,3.32.36-.4,1.48-1.6,2.7-2.01,4.21ZM99.06,58.02c.37-1.61.96-1.06,1.98-1.75.67-.45.04-1.93-.39-2.33-.91-.85-2.27-.36-2.48.8-.18,1.02-1.14,1.71-1.94,2.45-1.09,1.01-4.09-.06-5.53-.2-2-.2-2.02-.19-3.21-1.47-1.35-1.46-4.37,1.22-5.38,1.22.11,0-.68,3.04,0,0-.71,3.14-5.65.94-7.67.96-.98.1-1.55.74-2.21,1.38-.8.77-1.53.54-2.58.54-1.8,0-1.96-2.77-4.13-2.21-1.42.37-.2.81-1.79.62-1.19-.14-1.65.25-2.58.87-1.74,1.15-5.37.41-7.26-.15-2.5-.74-3.29-2.47-5.32-3.94-1.56-1.13-2.45.27-4.18.02-1.41.67-1.52,2.89-2.96,3.26-1.78.44-4.03.25-5.99.25-.04-.28-3.63-2.06-4.16-2.23-1.4-.21-2.56.6-2.56,1.91,0,3.13-6.67,3.98-8.91,2.73-2.02-1.13-1.46-6.43-4.51-2.42-1.26-.63-2.06-1.75-3.19.33-1.01,1.86-2.38,1.89-4.4,1.47-2.07-.42-4.12-1.79-2.56-3.95.87-1.21,3.46-2.35,4.4-.39.75-1.42,2.95,1.35,3.25-1.39.08-.7-.89-1.62.39-1.52.82.06,1.61.04,2.44.04,2.71,0,2.06-.93,2.33-2.88.08-.59,1.62-.72.44-1.36-.52-.28-.76-.52-.54-1.18,2.29.29,5.18,1.71,7.35.32-.25-1.16-1.59-1.32-2.53-1.59.45.03,6.57-.89,2.44-2.47-.97-.37-3.23-.81-4.17-.19-.34.3-.63.66-.86,1.06-.6-.34-1.23-.45-1.92-.32-.24-.9,3.59-2,4.4-2.39,1.58-.75,3.13-1.08,4.53-2.2,1-.81,1.98-1.66,3.21-2.11.86,4.6,12.67-.61,2.88-1.91.57-1.38,4.85-2.42,6.08-2.87-.65,1.02-1.94,1.64-.45,2.55.86.53,1.97.6,2.95.48.92-.11,1.97-.41,2.62-1.12.22-.86-.6-.55-.96-.95.89-.61,2.18-.7,2.87-1.59.36-.59-.31-.69-.29-1.15.09-1.37,9.52-1.69,10.82-1.74,2.52-.09,4.72.33,6.85.38,1.67.04,3.6.59,5.32.91.61.09,3.48.7,3.83,1.28,4.38.63,7.86,2.54,11.54,4.84,3.06,1.92,7.12,4.5,9.28,7.34.8,1.06,1.55,1.43,1.55,2.8,0,1.25.49,1.89,1.6,2.55,1.48.21,2.61-.94,4.05-.43,1.66.58,2.8,2.16,2.58,3.94-.32,2.55.61.07,1.02,1.37,1.21,3.84-2.4,5-5.41,3.74ZM97.79,47.18c.96-.43-.71-2.27,0,0h0ZM81.71,63.62c-.18.05-.36.1-.55.13,1.17-.19,1.01-.19.55-.13ZM52.39,33.47c-2.06-2.18-4.26,1.12-6.08,1.91-1.41,1.22-2.58,2.04-2.23,4.14,1.01.02,1.89.45,2.88.64,1.01-.45,1.81-1.21,2.51-2.04,1.27-1.5,2.76-1.86,2.93-3.8-.1.13-.39-1.27,0-.86ZM52.39,33.47c.03.32.03.6,0,.86.04-.05.05-.28,0-.86ZM71.89,36.04c.15.29.27.59.32.94-.12-.83-.24-1.02-.32-.94ZM71.89,36.04c-.62-1.19-2.01-1.89-3.33-2.09-.85-.13-4.27-.07-2.85,1.7,1.62,2.01,4.42,3.77,6.49,1.34-.49.58-.49-.77-.32-.94ZM59.03,40.33c1.24.33,3.54.34,3.59-1.44.12-1.81-2.02-2.83-3.02-4.13-1.59-2.05-2.48.49-2.48,1.88,0,1.74.04,3.19,1.91,3.69ZM62.62,38.89c-.07,2.34.11-1.6,0,0h0ZM26.82,41.44c.69,1.52,5.63,2.17,5.76-.32-.96-1.12-5.56-2.43-5.76.32ZM82.12,56.74c-.4.23-.8.31-1.19.3,0,.19.3.21,1.19-.3ZM82.03,56.35c-.43-1.3-2.2-4.69-.18-3.11.24.18,2.54-1.43,3.3-1.99,2.52-1.87-2.98-.94-3.36-.88-1.01.41-6.33,1.47-2.88,2.23-1.43,1.65.06,4.38,2.01,4.44,0-.31.83-1.1,1.1-.68ZM82.12,56.74c0-.19-.04-.31-.09-.39.05.17.09.3.09.39ZM52.71,50.69c.2-.02.33.03.45.09-.02-.07-.14-.11-.45-.09ZM59.98,50.92c-.26.15-2.37.78-2.58.5-.89-1.15-1.13.36-1.82.86.02-.48-.2-.8-.64-.96-.31.42-.29,1.18-.96,1.27-.47-.45-.25-1.52-.83-1.82.06.18-.65.49-.45-.09-.59,1.75-.71,3.13,1.3,3.64.72.17,1.46.23,2.21.18.04.55.26,1.01.66,1.38,2.68,2.31,3.18-1.51,5.08-.73,1.78.73.8-2.09.56-2.63-.54-1.27-.94-2.54-2.56-1.6ZM32.25,53.24c-.02.22-.12.4-.29.56.12.06.25-.05.29-.56ZM32.02,53.11c-1.65-.96-4.52-.82-6.3-.76-.97.03-3.84,1.38-1.5,1.84,1.2.24,6.47.85,7.75-.39-.23-.12-.43-.87.05-.69ZM83.72,67.9c1.22.83,3.07,0,2.88-1.59-.66-1.87-3.38-.53-2.88,1.59ZM91.8,66.13c.07-.06.15-.1.23-.14-.34.15-.34.17-.23.14ZM92.03,65.99c.08-.02.16-.03.23-.04.02-.02-.03-.02-.23.04ZM92.26,65.95s-.33.14-.46.18c-1.02.8-.83,3.38.63,2.49.97-.59,1.14-2.79-.17-2.67ZM49.83,73c1.5,1.35,5.06.49,4.79-1.91-1.66-1.52-4.77-.2-4.79,1.91Z"/>
    </g>
  </g>
</svg>