<?xml version="1.0" encoding="UTF-8"?>
<svg id="Layer_2" data-name="Layer 2" xmlns="http://www.w3.org/2000/svg" viewBox="0 0 67.48 119.58">
  <defs>
    <style>
      .cls-1 {
        fill-rule: evenodd;
      }
    </style>
  </defs>
  <g id="food_icons" data-name="food icons">
    <g id="pineapple">
      <path class="cls-1" d="M32.48,16.12c.15.27.29.54.45.8.52-.51-1.13-2.21-.45-.8ZM19.82,95.97c-.13-.77-.99-.6,0,0h0ZM6.37,99.17s.02,0,.03,0c0,0,0,0,0-.01,0,0-.02.01-.03.02ZM18.54,23.93c1.26-.09.14-1.09,0,0h0ZM54.67,51.11c.5,1.92,7.84,1.65,9.21,1.55,1.6-.12,3.7.1,3.59-2.02-.08-1.62-.96-2.79-2.15-3.8-1.1-.93-2.72-1.78-3.63-2.83-.86-.86-2.51-.51-3.2-1.59,1.77-1.13,5.08-5.64,2.22-6.99-1.55-.73-3.74-1.11-5.47-.53-2.33.78-1.87-.31-1.66-2.43.25-2.53.62-5.05.92-7.58.21-1.73,1.35-2.92,1.11-4.78-2.19-2.4-6.61.62-8.69,1.81-3.19,1.82-5.66,3.9-8.15,6.58-1.08,1.16-4.61,7.29-.42,6.6.74-.07,1.66-2.97,1.98-3.55.69-1.28,1.41-2.24,2.5-3.31,1.29-1.26,2.82-2.13,4.64-2.33,1.42-.16,2.11-.78,3.39-1.25-.25.09-1.21,11.08-1.32,12.36-2.08.16-5.77,2.23-6.78,4.17-2.12,4.08,4.54.77,5.5.29,1.41-.7,3.02-.68,4.2-1.5,1.39-.97,3.09-1.33,4.75-1.37-1.39,2.02-2.89,3.97-4.33,5.96-.77,1.06-.83,2.1-2.07,1.61-.56-.2-1.12-.27-1.71-.2-4.23.48.95,3.74,1.08,5.06-2.84-1.35-5.68-2.62-8.53-3.93-1.78-.81-4.59-3.57-5.53-.22-.23.7.93,1.77,0,2.23-.8-.38-1.37-1.09-2.2-1.43-2.57-1.02-4.03,1.84-5.69,3.17-.62.49-2.81,5.68-3.86,2.27-.6-1.96,1.32-3.85.85-5.86-.58-2.5-3.38,1.46-4.11,1.9-1.45.87-2.95.66-4.52.96-2.23.43-4.87-1.05-1.79-2.32,2.39-.99,5.2.11,7.58-1.56-1.03-4.41-7.43-8.53-11.52-9.73-1.4-.41-6.06.5-6.7-.79.33-1.71,3.8-1.81,5.03-2.21,3.45-1.12,10.09-.04,12.87,2.53.08-1.33-1.92-3.92-2.68-4.98-.48-.68-.14-1.64-1.25-1.55-.43.15-.72-.02-.86-.49.21-.78-1.46-1.67-.64-2.23,1.98,1.38,5.68,5.27,8,3.41,2.77-2.22.67-6.61.1-9.65-.74-3.93.01-7.94-1.7-11.61.02-.89-.41-2.84.6-3.38,1.41-.75,1.74,2.13,1.88,2.92.67,3.89,3.02,7.27,4.23,10.98.86,1.15.95,2.67,1.73,3.86.79,1.22,2.88.37,4.03-.04.5-1.88.74-3.81.96-5.74.9-1.51,1.62-3.13,2.24-4.78.95-.57,1.84-3.82,3.04-3.82.36,0-2.42,11.59.48,12.68,2.64.99,1.95-4.4,2.08-6.12.17-2.3-.09-5.91,1.24-7.85,1.16-1.7,1.8-5.14-1.44-4.78-1.98.22-3.95,2.14-5.25,3.51-1.63,1.72-2.54,3.9-3.98,5.74-.07.86-1.3,4.18-1.92,4.78-.2-.34-.35-.6-.45-.8-1.74-3.19-2.71-6.78-4.44-9.95-.91-1.66-2.34-5.74-4.71-5.83-.3-1.05-1.89.64-1.99,1.05-.42,1.65-.13,3.81-.02,5.64.26,4.27.71,8.53,1.37,12.76-2.25-.93-3.81-2.77-6.39-2.87-.82.98-2.13.64-1.99,2.24.03.4.58,1.88.07,2.22-1.83-.97-11.1-4.02-8.94.95.66,1.51,3.67,2.92,4.85,4.1.79.79,4.17,3.13,3.45,4.52-3.47-1.39-9.55-.02-12.4,2.38C.52,34.02.08,34.97,0,36.04c.14.62.68.9.64,1.59.99,1.03,2.83.75,4.09,1.19,1.96.69-.76,2.95-.89,4.55-.89.75-1.09,2.17-.54,3.18.56,1.03,1.41.56,2.34.31,1.91-.52,3.67-1.48,5.64-1.82,1.03-.18,2.08-.19,3.12-.08.79-.33.75-1.36,1.28-1.91.52.58,1.47.68,1.6,1.6-2.43.37-8.7,2.2-9.27,5.1.92,3.97,4.81.45,6.4,2.55-2.62,3.09-4.85,6.5-6.29,10.3-.81,2.13-1.37,4.35-1.7,6.6-1.14.32-1.91,2.21-2.82,2.93-1.1.87-1.14,4.02-.18,4.84,1.37,1.19-.38,2.83-.67,4.41-.66,3.65-.77,7.11-.37,10.8.56,5.19,2.06,10.18,3.47,15.19.67,2.37.6,4.6,3.05,5.67,1.81.79,2.87,3.26,4.48,4.59,2.25,1.86,3.94,2.4,6.83,1.58,1.95-.55,3.27-.78,5.3-.91,3.08-.2,7.33-.79,10.06.34,1.82.76,4.51-.18,6.16-1.15,1.07-.63,1-1.09,2.22-.89.56.09,1.55-.05,1.96-.48.66-.7,1.43-2.28,2.52-.85,1.04,1.36,2.18.8,3.25-.37,1.48-1.61,2.15-3.89,3.96-5.22,1.49-.43,3.88-1.38,4.82-2.48,1.05-1.23,2.2-1.62,1.86-3.55-.26-1.48-1.8-2.14-2.21-3.54,1.11-2.87-1.01-11.35,2.3-11.95,2.85-.51,4.29-2.45,1.61-4.54-.85-.67-1.93-1-2.75-1.72-.88-.78-.59-2.02-.76-3.1-.2-1.32-1.87-5.04-1-6.01.92-1.02,2.4-1.37,2.51-2.96-.33-1.67-1.66-2.6-3.06-3.38-3.3-1.84-3.33-4.34-5.35-7.15-.86-1.19-1.96-2.63-1.23-4.02.74-1.4,2.1-.61,2.01-2.95-.08-2.19-1.16-3.92,1.23-5.45-.19-.8,1.02-1.52,1.21-2.14.33-1.11,2.57,1.31,3.2,1.7,1.41.85,2.96,1.7,3.58,3.31-1.4-.12-9.88-2.22-8.94,1.36ZM22.01,23.47c1.49.77,1.01,1.72,1.01,3.33-.96-.57-3.39-2.95-4.48-2.87.12-.9-.1-1.69-.32-2.55,1.34.57,2.5,1.44,3.79,2.09ZM7.03,43.05c1.25-.39.37-1.24.07-.32.3-1.13,1.29-1.89,1.21-3.19,1.92.1,3.52.93,5.12,1.91-.03.18-5.77,1.4-6.39,1.59ZM50.19,59.31c-.26,2.34-3.44.91-3.83-.32.14-2.22,3.75-1.22,3.83.32ZM16.68,55.48c1.18-1.33,2.99-3.64,5.05-3.5,0,1.48-.8,7.37,2.21,6.08,2.01-.86,3.58-3.18,5.18-4.62.65-.58,1.27-1.17,1.89-1.79.54.24,1.1.32,1.69.24,1.05-.15,1.57.24,2.42,1.07.16.16,2.27,2.17,2.27,2.19,0-.29.67-.37.9-.32,1.48-.82,1.77-2.87,1.98-4.46,2.04-.14,1.14,2.51,2.33,3.74.58.6,2.47,1.8,2.47,2.64-2.52-.09-2.89,2.15-4.47,3.51-1.27-.11-3.13-3.08-4.09-3.89-1.35-1.15-2.93-3.39-4.88-1.55-1.43,1.34-2.48,3.44-3.73,4.95-.61.73-1.69,2.83-2.73,2.18-.82-.52-1.02-1.61-2.15-1.68-1.12-.07-1.53.69-2.12,1.46-.82,1.07-1.86-.46-2.56-1.02-.89-.7-1.73-1.44-2.66-2.13-1.28-.95.2-2.2,1-3.1ZM43.81,72.03c.2-.27.3-.58.3-.92,1.8,1.04,3.82,2.36,5.44,3.82,1.55.76,3.29,1.39,4.5,2.69.34.37,1.12,1.32.23,1.71-.69.3-.49.79-1.21,1.03-.32,1.25-.9,2.93-2.44,2.27-1.7-.72-5.35-5.51-7.43-3.51-.71.68-1.16,1.24-1.79,1.96-.97,1.12-2.8-1.64-3.05-2.32,2.62-.01,4.13-5.02,5.43-6.69-.57.73-.02,0,.02-.04ZM19.82,95.97c-.97-.59-1.3-1.08-.96-2.23.96-.37.31,1,1.28.64.22.73-.44.91-.32,1.59ZM20.14,93.74c-.12-.63-.28-1.24-.5-1.84-.55-1.29-1.18-.39-1.59.38-.25.46-1.84,1.8-1.55.27.16-.84,1.39-1.33,2.04-1.68-.85.46.61-1.52,0,0,.47-1.17,1.55-1.88,2.18-2.93.71-1.2.97-.89,2.24-.2,1.92,1.04,3.34,2.81,5.49,3.45-.49,1.33-2.24,5.16-3.65,3.86-.64-.59-1.22-1.57-2.22-1.33-1.09.26-.66.45-1.2-.21-.05-.07-1,.33-1.24.23ZM22.38,64.73c-.4-2.31,2.35.51,2.62.73,1.55,1.24,3.42,1.98,5.05,3.1-1.09,1.66-2.61,3-3.52,4.78-.86-.32-2.62-1.34-2.86-2.04-.64-1.86-2.4-.89-2.25.76-1.29-.61-5.08-2.35-2.45-3.56,1.11-.51,2.57-2.76,3.41-3.77-.96,1.16-.09-.51,0,0ZM32.61,58.68c.64-2.38,3.11,1.09,3.83,1.84.65.68,2.6,1.1,2.03,2.03-.35.56-.97.84-1.08,1.56-1.41-.63-2.2-1.61-3.64-.12-1.7,1.77-1.77,2.12-4.03,1.07-2.43-1.13-1.02-1.51.12-3.06.82-1.11,1.81-2.28,2.76-3.31-.76.83.11-.42,0,0ZM22.38,76.21c.69.04,1.75.09,1.6-.96,1.45.69,2.45,1.96,3.72,2.9,1.59,1.18,2.08,1.2.64,3.05-.81,1.04-1.72,1.97-2.01,3.3-.48,2.21-.77.12-2.03.31.5-1.74-1.55-5.75-2.56-2.87-.95-.34.38-2.64-.96-2.55-1.28,0-1.19,1.38-1.99,2-1.1.86-.91-1.08.34-1.69,1.24-.6,2.65-2.24,3.25-3.51ZM30.37,94.06c.58-.92,1.21-1.82,1.88-2.67,1.1-1.39.48-.56,1.64-.51.53,1.62,1.62,2.93,3,3.91,1.62,1.16-.5,2.11-.76,3.73-1.74-.28-2.62-2.21-4.36-.46-.59.6-.95,1.36-1.4,2.05-.9-.22-1.47-.88-2.02-1.57-1.17-1.5,1.31-3.06,2.02-4.48ZM36.13,88.01c-.71-.68-1.46-1.32-2.24-1.91-.69-.12-.86.53-1.6.32-.9.8-1.26,2.82-2.88,1.91.73-1.05,1.79-1.91,2.88-1.91-.43,0,.27-.8,0,0,.26-.79,1.11-1,1.6-1.6-.15-.7-1.51-1.27-1.92-1.27.88-1.05-.53-1.44-1.28-.96,1.1-1.46,2.23-2.91,3.2-4.46,1.43,1.57,2.66,3.35,4.27,4.76,1.72,1.49-1.35,3.37-2.04,5.13ZM39.92,73.73c-.55.89-1.93,4.15-2.9,3.5-1-.67-1.07-2.19-2.49-2.29.02-.21,1.54-.92,1.79-1.4.5-.92.44-1.51.12-2.75-2.65-1.02-3.95,3.44-2.24,3.51-.48.73-1.71.62-1.92,1.59-1.16-.95.48-3.16-.64-4.14-1.36.89-1.75,2.64-1.92,4.14-.8-.2-1.21-.91-1.92-1.28,2.5-2.74,4.59-5.82,7.03-8.61,1.49,1.15,2.4,2.84,3.71,4.16,1.64,1.65,2.87,1.11,1.37,3.55ZM7.79,69.95c.66-.89,1.23-.72,2.17-1.26.77-.44.88-1.38,1.22-2.37-.43-.57-1.52-.37-1.6-1.28.11-2.27,2.95-2.19,3.52-4.15,2.17.76,3.26,3.07,5.43,3.83-.72,1.62-2.04,3.83-3.92,2.63-.68-.44-3.96-1.3-2.98.62,1.29,2.54,5.91,5.41,8.5,6.63-.69,1.54-2.12,2.48-3.22,3.69-1.21,1.33-1.68-.29-2.88-1.03-1.18-.72-1.7-1.65-2.93-.15-.88,1.08-1.12,2.57-2.15,3.54-1.29-1.32,1.53-3.36-.39-4.71-.52-.37-1.3.03-1.52.2,0,.02,0,.04,0,.05,0-.02,0-.03,0-.05-.03.03-.05.05-.06.06-.36-.03-.01-2.05.06-.06,0,0,0,0,0,0-.02-1.82,1.59-2.73,1.92-4.41-.21-1.11-1.83-.56-1.92.32-.85-.1.66-1.96.76-2.11ZM5.11,88.32c-.19.79.33,1.18.32,1.92-1.24-.03-.9-1.4-.32-1.92-.58.51.21-.96,0,0,.21-.96.5-1.84,1.6-1.91-.54.62-.73,1.59-1.6,1.91ZM6.18,89.63c.39-.98,1.23-1.79,1.63-2.77.37-.88.52-1.93,1.14-2.68-.35-.18-.55-.47-.62-.84.23.37,2.05-.4-.02-.12,2.05-.28,3.25-1.78,4.16-3.5,1.02-.18,2.34,1.79,2.93,2.42,1.14,1.21,3.35,2.9,2.19,4.39-1.01,1.29-1.88,2.8-3.52,3.4-.28-2.56-4.64-2.99-5.11-.32-.22-.49-1.23,0-1.28-.64-.78.17-.5,1.09-.5,1.61,0,.69-1.48.28-1-.93ZM7.03,104.9c-.16-.16.23-.41.32-.32.17.16-.23.41-.32.32ZM7.35,104.26c-.17-.17.23-.41.32-.32.16.16-.23.41-.32.32ZM9.27,97.25c-1.22-.09-1.59.78-2.32,1.51-.16.16-.4.3-.56.39,0,0,0,0,0,.01-.25.1-.19.09-.03,0-.4.09.17-1.9.03-.02,0,0,0,0,0,0,.1-1.21,1.7-4.66,2.33-5.04,1.42-.85,1.96-3.35,3.47-1.33,1.39,1.86,2.93,3.61,4.56,5.25,1.23,1.24-.02,3.22-1.74,3.68-.04-1.27-2.67-3.69-3.83-3.82-1.34-.14-1.73,1.35-3.2.95-.23-1.16,1.22-.66,1.28-1.59ZM14.07,109.68c-.9-.72-2.88-.87-2.88-1.59-.75.17-.64.89-1.6.64.33-.97-.84-.58-1.28-.64.05-1.36.1-3.21,1.28-4.15-.14-.25-.35-.35-.64-.32.05-.65,1.06-.15,1.28-.64-.14-.62-.68-.89-.64-1.59.64.11.84-.45,1.47-.34-.44,0,1.23,1.47.46.44-.11-.14-.22-.28-.33-.42.15.18.25.31.33.42,1.22,1.47,2.38,2.99,3.45,4.58,1.23,1.84-.07,2.04-.9,3.61ZM24.94,113.51c-1.82,0-2.65,1.09-4.36,1.84-1.51.66-2.39-.78-3.73-1.49-2.06-1.08-.02-4.6,2.02-4.5-1.05-.05.08-.25.03-.05.24-.37.34-.78.29-1.22,1.34.55,6.14,3.81,5.75,5.42ZM27.33,103.25c-.94,1.36-2.5,2.14-3.36,3.56-1.25-.86-2.11-2.2-3.52-2.87-1.31-.16-2.01.72-3.19.96-.04-.74-.55-1.07-.96-1.59.49-.85,1.31-1.4,1.97-2.1,1.07-1.14,2.63-.03,3.64-1.51-.26.34-.08-.56.04-.64-.23-.99-.7-3.27.61-2.33.73.52,1.58,1.69,2.27,2.45,1,1.1,3.54,2.53,2.49,4.07ZM48,111.11c-1.12,1.17-3.76-.47-5.3.34-2.24,1.18-4.94.74-7.53.93-2.45.18-4.9.42-7.35.49.32-.48.43-1.01.32-1.59.93.4,2.13,1.02,3.1.38.7-.47,1.41.13,1.77-.23.78-.78.04-1.68-.92-1.39-1.56.47-1.8.05-1.71-1.63-.84-.2-.76.84-1.6.64-.21-1.18.81-1.96,1.46-2.78.98-1.22-.64-1.67.29-2.68.87-.95,1.92-2.51,3.05-2.51.14,1.25,1.52,1.48,1.92,2.55-.37-.99.42.47.12.15.63.77,2,2.02,1.56,2.75-.33.56-.93.88-1.31,1.4-.81,1.07-.26,3.26,1.42,2.66,2.09-.74,3.09-2.9,4.5-4.52.74-.85,1.52-1.67,2.35-2.44.87.57,1.49,1.42,2.02,2.28.73,1.19,1.85,1.95,2.6,3.15.79,1.27.13,1.14-.74,2.05ZM37.72,100.76c1.27-2.06,2.61-4.09,3.78-6.21.6-1.09,1.16-2.2,1.65-3.35.34.04.66.15.96.32.93,1.67,2.2,3.09,3.58,4.4,1.64,1.57,3.16,1.95,1.28,3.95-1.18,1.26-1.53,2.01-2.87.51-.86-.96-2-1.14-3.1-.4-.95.65-1.42,1.76-2.34,2.46-1.85,1.41-1.59-.86-2.95-1.67ZM56.54,104.75c-.44.6-1.7,2.48-2.61,2.05-.56-.26-1.08-1.13-1.67-.3-.67.95-2.76-1.52-3.26-2.6.49.86,1.87-1.75-.1-.26,1.41-1.06,2.7-2.27,3.94-3.52.13-.14,2.83-3.14,2.49-1.23-.22,1.25-.75,1.56.31,2.61.92.92,1.87,1.94.9,3.26ZM59.49,92.34c-.14.61-.77.84-.99,1.41-.35.81-1.46,3.29-2.56,1.59-.33.36-.44.79-.32,1.27-1.07.16-1.12-1.49-2.3-.81-1.42.81-1.79.03-2.84-1.07-2.08-2.19-3.84-4.66-6.04-6.72-3.02,0-3.57,1.7-4.8,4.14-1.58-.43-3.8-2.96-1.28-3.51.11-1.94,3.24-3.92,4.38-5.3,1.19-1.43,1.32-2.1,3.02-.81.72.55,1.35,1.21,2.07,1.77,1.09.84,2.38,1.37,3.48,2.2.56.43,2.46,1.61,2.71,2.14,2.38,0,3.15.93,5.11,1.91-.11.67.53,1,.35,1.78ZM59.46,81.63c.44.59.73,1.26,1.6,1.28.05,1.17,1.43,1.2.57,2.32-.69.9-1.87,1.25-2.91,1.56-1.27.38-3.96-.11-4.65-1.17-.82-1.26-1.89-1.51-.44-2.87.84-.78,1.45-1.9,2.64-1.76,1.11.13,2.06.7,3.2.63ZM55.94,68.56c-1.89-2.47.89.39,0,0,3.55,1.55,1.36,2.57,0,4.78-1.01-.52-1.6,1.04-2.24.95-.84-.07-1.12-.82-1.79-1.19-.45-.21-.92-.24-1.41-.09-.43-.56-.91-1.09-1.44-1.57-1.02-.94-4.22-4.19-5.67-2.97-1.38,1.15-4.21-1.04-4.4-2.8,2.14-.81,3.46-2.66,4.84-4.38.98-1.22,2.08,0,3.09.86,1.16.99,1.61.07,2.96,1,2.22,1.55,4.4,3.23,6.06,5.39ZM38.3,54.85c-.26.15-.55.26-.9.32.99-.16,1.09-.28.9-.32ZM37.72,100.76c.8.48,1.91-3.09,0,0h0ZM33.89,90.87c-.41-.02.68,2.08,0,0h0ZM21.92,99.69s.08-.11.14-.21c-.04.08-.09.14-.14.21ZM22.38,76.21c-.62,1.3.91.06,0,0h0ZM27.81,74.61c.7.36,2.49-2.72,0,0h0ZM21.96,99.06c.05.23.09.39.09.43,0-.36-.04-.46-.09-.43ZM61.06,82.9c-.94-.02.03.81,0,0h0ZM59.14,90.55c-.57-.28-.09.52,0,0h0ZM37.4,40.83c.19-2.17.03-1.9-.07-1.25.07.42.11.83.07,1.25ZM28.45,35.72c1.99,1.27,3.41,3.02,4.83,4.83.57.73,1.22,1.27,2.2,1.31,1.41.05.83-.62,1.92-1.04-.21.08-.16-.71-.07-1.25-.62-3.55-4.92-7.02-7.81-8.34-2.23-1.02-5.29-.83-5.55,2.26.09,1.41.88,2.51,1.28,3.82.11,1.51.41,3.03.78,4.49.56,2.24,3.25,2.09,2.88-.45-.12-.79-1.13-5.36-.46-5.63ZM34.84,83.22c-.09,1.15-.08,2.21,1.28,1.91.08-1.15.08-2.2-1.28-1.91ZM46.99,87.37c-.44.41-.32,1.39-.32,2.23,2.29.58,2.42-2.46.32-2.23Z"/>
    </g>
  </g>
</svg>