<?xml version="1.0" encoding="UTF-8"?>
<svg id="Layer_2" data-name="Layer 2" xmlns="http://www.w3.org/2000/svg" viewBox="0 0 110.84 113.81">
  <defs>
    <style>
      .cls-1 {
        fill-rule: evenodd;
      }
    </style>
  </defs>
  <g id="food_icons" data-name="food icons">
    <g id="pizza2">
      <path class="cls-1" d="M110.3,17.23c-.61-1.8-1.64-4.59-3.4-5.44-2.16-1.04-4.2-2.32-6.57-2.86-1.29-.3-4.89-1.09-5.63.27-.48.87-2.25-1.64-2.65-2.45-2.34-1.14-4.54-2.58-7.09-3.25-5.82-1.52-12.42-1.91-18.29-.67-2.21.46-2.6,2.93-.04,3.17,2.53.24,4.99-.78,7.53-.53,1.42.16,2.81.52,4.24.62,1.35.09,1.79.89,3.05,1.03,1.99.21.77,2.27,2.89,2.41.95.06,1.69-.79,2.63-.76,1.17.04.28,1.16.53,1.93.27.83.66,1.9,1.7,1.78.08,0,1.26-.36,1.26,0-2.85,4.79,4.48,2.28,4.19-.66-.19-1.97,2.22-.92,3.82-.95,2.31-.05,5.62,2.38,7.33,3.85.71,1.88,2.79,4.88,1.49,6.82-1.11,1.66-2.99,2.56-4.32,4-.9.97-.81,2.24-2.19,2.24-1.34,0-1.24.1-1.16,1.23.11,1.66-1.47,2.85-1.5,4.52-1.94-1.59-3.91-.25-4.36,1.85-.33,1.56-1.22,2.59-1.79,4.08-1.62,4.17-1.99,9.26-4.3,13.21-2.26,3.85-2.91,8.57-5.59,12.18-.83,1.11-4.23.54-5.68.92-1.58.41-3.05,1.17-4.28,2.25-2.63,2.32-4.69,5.93-4.69,9.4,0,3.65,7.09,3.99,5.53,7.34-2.36,5.05-4.27,10.61-7.19,15.33-1.24,1.99-2.46,4.03-3.61,6.05-.93,1.64-1.5,3.65-3.04,4.86-1.87-4.13-4.01-8.14-6.87-11.68-.61-.75-1.2-1.53-1.66-2.39-.81-1.51.63-1.45,1.75-2.25,1.35-.97,2.82-2.21,2.95-3.91.32-4.08-.5-7.75-4.55-9.9-1.75-.93-4.33-.03-6.12.69-.88.35-1.71.8-2.46,1.38-.79-.73-1.67-1.36-2.46-2.1-3.41-3.2-5.44-9.25-7.52-13.39-2.33-4.65-4.81-9.23-7.1-13.88-3.53-7.15-7.44-15.01-12.65-21,7.17.08,8.36-9.04,15.66-9.48,3.58-.21,8.29,1.02,11.65-.03,1.65-.51,3.05-1.54,4.62-2.23,1.37-.6,2.67.06,4.11.24,3.9.49,7.87.31,11.75,1.05,2.87.55,5.76.28,8.33-.81,1.18-.5,3.14-.97,4.38-.42.85.38,1.06,1.28,2.16,1.16,1.86,0,3.09-.05,4.75.79.84.43.91,1.83,2.08,1.23,2.66-1.36-1.64-2.4-2.58-2.51-1.58-.19-2.98-2.12-4.31-2.95-1.66-1.02-4.63-.45-6.42,0-1.31.34-3.4,1.85-4.4,1.54-3.5-1.08-7.77-.53-11.49-1.3-1.9.75-3.9.21-5.76-.31-2.28-.64-4.02-.09-6.12.83-4.48,1.98-10.18.15-14.99.83-4.13.59-6.91,4.08-9.88,6.41-.72.57-.41,1.3-.81,1.95-.14.23-1.39.51-1.64.59-1.31.41-2.68.68-4.05.68-3.05,0-4.87-1.84-4.37-4.93.84-1.79,3.16-3.31,4.82-4.3,1.39-.83,3.37-1.22,3.82-3.03.3-1.82-2.04-1.41.47-3.21,1.6-1.15,3.5-2.18,5.29-2.97,2.44-1.07,5.09-2.11,7.77-2.11s4.3.57,6.73,1.48c1.09.41,5.48,2.01,5.65-.07.19-2.41-2.59-1.92.44-3.61,4.23-2.37,9.32-2.58,14.09-2.58,1.74,0,4.09.48,5.27,1.91-.12,1-1.81,4.88.02,5.11,1.36.17,2.87-.98,3.78.78.68,1.33,2,1.63,2.86.19.33-.55.46-1.31-.27-1.62.58-.69,1.17-1.28,1.28-2.23-.47-.24-2.23-2.69-2.24-3.19.03.94-1.04-.77,0,0-1.31-.97-1.96-2.36-3.34-3.2-1.17-.7-1.92-1.18-3.26-1.59-3.16-.96-6.47-.63-9.75-.63-3.02,0-6.14.61-8.92,1.82-1.22.53-2.37,1.19-3.41,2.02-1.22.97-.86,2.28-1.69,3.49-5.95-3.68-12.92-.66-18.44,2.16-1.47.75-2.78,1.73-3.88,2.96-.68.76-1.09.95-.9,2.05.16.4.13.77-.11,1.12-1.66.48-3.24,1.36-4.94,1.74-1.11.25-3.97,2.73-4.65,3.68-.8,1.12-1.18,2.56-1.45,3.89-.56,2.83.7,5.81,2.9,7.41,1.55,1.13,2.98,2.09,4.96,1.59,1.72-.43,3.45,3.72,4.28,5.09,2.63,4.36,4.76,8.94,7.16,13.4,2.61,4.84,4.89,9.85,7.34,14.78,2.24,4.49,5.05,8.69,7.14,13.23,2.31,5.04,5.26,9.82,8.17,14.54,1.36,2.22,2.78,4.42,4.31,6.55,1.27,1.79,1.95,3.58,3.03,5.48.84,1.48,2.01,6.98,4.23,6.73,3.84-.43,6.26,1.37,8.74-2.77,2.92-4.87,5.89-9.73,8.3-14.86,2.19-4.66,4.39-9.29,6.78-13.84,2.28-4.36,4.11-9.03,6.08-13.52,1.7-3.89,4.34-7.3,5.37-11.47.55-2.23,2.28-4.14,3.03-6.41.69-2.07,1.17-4.2,1.73-6.31.58-2.2,1.48-3.79,2.57-5.76.87-1.57,2.54-2.68,2.18-4.68,1.39,1.45,4.54-2.5,5.19-3.43,1.02-1.47,1.58-2.04,2.99-3.11.82-.62,1.56-1.35,2.2-2.16,2.04-2.58,2.54-5.09,1.48-8.23ZM48.89,93.14c-1.04-.31-.74-1.74-1.6-2.23.22-.36,2.22-1.54.57-1.94-.56-.14-1.45.76-1.85.03.15-.72,1.24-.27.96-1.27-.03-.8-1.25-.8-1.28,0-1.3-.45-1.17-2.18-2.24-2.87,3.49-3.65,8.35-.24,8.66,3.87.12-.3.19-.17-.03,1.23.06-.41.06-.82.03-1.23-.17.43-.45,1.73-.16,1.41-.81,1.2-2.19,1.87-3.07,3.01ZM74.78,81.34c-1.84-1.63-5.07-3.78-3.4-6.58,1.06-1.79,2.55-3.2,3.72-4.89-.73,1.06,1.23-.4.25-.09,1.56-.61,3.2-1.01,4.87-1.18-1.77,4.27-3.37,8.61-5.44,12.75ZM78.62,14.08c.11-.01.22,0,.32,0-.08,0-.18,0-.32,0ZM78.56,14.25c-.6,1.7,1.71,2.98,2.05,1.66.27-1.06-.5-1.81-1.67-1.83.68.07-.52.77-.38.17ZM53.04,22.37c-.38.05-.91-.05-.96.32.38-.05.91.05.96-.32ZM86.93,23.01c-.6.07-.71-.36-1.28-.32-.51.89,1.38.88,1.28.32ZM49.11,35.64c1.49-.01,3.54-1.01,3-2.5-1.2-3.27-3.54-6.28-5.46-9.17,1.06,1.6-.64,0,0,0-1.79,0-1.46.13-2.64,1.08-.74.6-1.53,1.01-1.52,2.1.83-.07,1.27-.85,2.08-.98,1.18-.19,1.64,1.81,2.3,2.67.67.86,1.27,2.27,2.17,2.88.73.49,1.65.8,1.76,1.82-.41.17-4.59,2.14-1.7,2.11ZM84.37,25.24c1.72.37,3.98-.12,4.76,1.49.48,1.01,1.42,1.63,2.3,2.26,1.76,1.25,4.35,1.72,5.47-.78.77-1.72-1.16-.56-1.98-.75-.31-.63-1.8-1.27-2.39-1.95-.56-.65-1.74-1.98-2.73-1.44-.59.33-.66,1.13-1.27,1.39-.06.04-.16.07-.33.08-.81-1.23-3.37-2.53-3.83-.32ZM88.21,25.56c.13,0,.23-.04.33-.08.38-.24-.92-.82-.33.08ZM75.74,25.56h-.96c.32,0-.09.73,0,0-.17.65.04,1.07.64,1.28.25-.39.35-.81.32-1.28ZM48.27,33.66c1.73-.53-2.82-5.87-4.49-5.87.18,0,0,.28-.02.15-.25,1.82,2.09,6.46,4.51,5.72ZM32.59,35.44c.16-1.72-3.18-2.36-3.2-.32.44.71,2.42.94,3.2.32ZM81.42,38.74c.04,1.69,1.58,2.53,2.99,1.39.97-.79,2.09-2.76,2.2-4.05-.06.73-.6-.3-.81-.91-1.8-1.18-4.42,1.51-4.37,3.57ZM86.61,36.08c-.92-1.66-1-1.45-.81-.91.3.19.57.48.81.91ZM76.96,46.18c-.68-.84-.5-3.22-.26-4.37-.18.89-.47-.78-.1-.19-1.28-2.41-4.69-4.82-7.24-4.65-2.14.14-5.97.83-7.62,2.15-1.79,1.43-4.1,2.41-5.18,4.54-.72,1.41-.9,2.53.27,3.62.87.81,1.94.42,2.93,1.22.9.17,2.86-.56,3.52.32-.31,1.04-.77,2.03-1.16,3.05-.93,2.41-1.83,5.81,1.16,6.94,1.55.59,3.3.61,4.93.58,1.73-.04,2.68-1.27,3.7-2.6.3-2.68,0-4.91-.32-7.65,1.24-.15,7.41-.48,5.37-2.97ZM71.77,45.7c-.84.29-1.6.79-2.1,1.54-.57-.15-1.16-.24-1.76-.26-2.29.11-.62,2.51.1,3.25.79.8,1.06,3.76.96,4.89-.19,2.34-3.89,1.7-5.38,1.04.04-1.55.55-2.95,1.15-4.36.77-1.8,1.27-3.55,1.09-5.53-1.99-.58-4.05-.88-6.08-1.27.78-2.07,3.81-3.16,5.64-3.73,1.41-.44,2.79-.91,4.27-1.05,1.2.12,1.75,1.07,2.61,1.72.08,0,1.06.54.27.19.84.37,1.15,1.27,1.24,2.11.19,1.75-.72,1.01-2.02,1.46ZM72.55,42.13c-.1-.06-.18-.13-.27-.19-.03,0,.03.05.27.19ZM34.45,49.21c-.22.08-.43.17-.58.25-.33.54.67-.19.58-.25ZM36.1,44.68c0-.31-1.57-.08,0,0h0ZM45.29,49.27c-.73-2.51-1.91-3.82-4.4-4.37-.52-.12-4.77-1.12-4.79-.22-4.77-.24-7.25,3.49-7.63,7.78-.53,5.86,4.62,8.85,10.08,7.34,5.01-1.38,8.26-5.3,6.74-10.53ZM38.92,55.87c-2.83,1.27-5.87,1.19-7.73-1.42-1.12-1.58,1.76-3.49,2.67-4.98.39-.22.55-.28.58-.25,1.92-.7,5.92-1.05,6.88.46,1.57,2.47,0,5.12-2.41,6.19ZM82.13,44.68c.11,0,.18.01.27.02,0-.02-.06-.03-.27-.02ZM82.03,44.76c-.92.65-1.19,2.26.42,2.15.94-.56,1.28-2.11-.05-2.21-.01.05-.42.14-.37.06ZM38.98,51.7c-.48-.32-1.02-.43-1.6-.32-.07-.55-.37-.87-.91-.95-1.48-.03-.42,1.02.03,1.28.95.55-.47,2.23,1.34,1.92.85-.14,1.08-.96,1.13-1.7-.07.8-.33-.48.01-.23ZM35.1,53.54c.1-.05.18-.22.05-.57.06.17.03.37-.05.57ZM35.14,52.97c-.59.39-3.59,1.25-1.69,2,.41.16,1.37-.69,1.64-1.43-.19.09-.49-.22.05-.57ZM77.66,61.58c.47.47,2.09.47,2.56,0,.78-3.11-3.45-3.36-2.56,0ZM60.4,62.9c.22.04.44.13.63.27-.7-.51-.77-.45-.63-.27ZM61.09,63.33c.06.3-.5-.18-.69-.43-1.1-.22-2.29.7-1.73,1.94.76,1.68,3.04.2,2.42-1.52ZM34.5,64.77c0,1.22.72,1.35.96.32-.23-.13-.48-.21-.74-.27-.03.07-.22.14-.22-.05ZM34.5,64.77c.08,0,.15.03.22.05.02-.04-.02-.08-.22-.05ZM40.9,65.08c-.17.65.04,1.07.64,1.28.25-.39.36-.81.32-1.28h-.96c.32,0-.09.73,0,0ZM52.09,69.55c2.52-2.31-2.81-6.1-3.84-2.87.24,1.99,1.3,3.17,3.84,2.87ZM43.66,74c.14.08.29.18.43.32-.29-.28-.41-.35-.43-.32ZM44.09,74.33c0,.38-.5-.26-.43-.32-1.13-.62-2.05.65-1.8,1.92,1.49,1.59,2.24-.51,2.24-1.59ZM59.76,77.2c0,.1,0,.18,0,.27.01-.03.02-.11,0-.27ZM59.49,76.75c.1.12.19.27.26.45-.19-.47-.26-.54-.26-.45ZM59.49,76.75c-.86-1.11-2.33.31-1.97,1.73,1.03.3,2.18.38,2.23-1.01-.06.13-.26-.57-.25-.72ZM68.68,86.47c.07-.04.1-.3.03-.99.04.37.02.7-.03.99ZM62.32,90.59c1.25-.48,1.98.14,3.2.32,0-2.13,2.77-2.18,3.17-4.43-.21.11-.77-1.87.03-.99-1.59-1.77-4.14-5.15-5.79-.99-.07.19-1.73,1.88-.6,1.95.93-.61,1.74-1.36,2.88-1.59.17,1.32,1.37,2.1,1.28,3.51-1.27-.3-1.48.91-2.26-.38-.42-.71-1.06-1.14-1.9-1.21-.15.99,1.11.92.96,1.91-.2.88-1.21.8-.96,1.91ZM47.61,86.76c.25-.07.63,0,.64-.32-.25.07-.63,0-.64.32ZM55.42,101.41c.59,1.22,1.14.33,1.79.02-.21.1-.15-.41-.07-.36-.42-1.26-2.42-1.13-1.71.34ZM57.13,101.07c.04.11.07.23.07.36-.02-.24-.05-.34-.07-.36Z"/>
    </g>
  </g>
</svg>