<?xml version="1.0" encoding="UTF-8"?>
<svg id="Layer_2" data-name="Layer 2" xmlns="http://www.w3.org/2000/svg" viewBox="0 0 120.84 105.84">
  <defs>
    <style>
      .cls-1 {
        fill-rule: evenodd;
      }
    </style>
  </defs>
  <g id="food_icons" data-name="food icons">
    <g id="pizza1">
      <path class="cls-1" d="M77.32,8c-1.64.05-2.88.11-4.27,1-1.34.85-2.92,2.53-3.96.99-2.03-3.02-4.36-2.97-7.76-2.63,0-2.58-.21-3.25-2.33-4.85-1.42-1.07-3.17-1.6-4.7-2.48-3.77-.17-7.45.47-10.97,1.81-2.92,1.11-5.21-.93-8.41.43-3.6,1.54-5.64,2.53-7.8,5.97-2.06,3.27,1.64,6.38.47,8.98-1.59,3.53-2.49,7.32-3.92,10.91-1.45,3.62-3.07,7.17-4.52,10.8-1.38,3.46-1.93,7.9-3.79,11.01-.98,1.64-1.53,3.8-2.18,5.51-.61,1.6-.89,3.08-1.38,4.76-.98,3.39-2.22,6.64-3.19,10.04-.94,3.29-2.17,6.59-3.66,9.72-1.26,2.66-1.59,6.36-3.4,8.68-.1,2.04-.39,4.06-.56,6.09C.88,96.26-.01,97.5,0,99.07c0,1.32.92,2.72,2.36,1.8,1.3-.84,2.32-.74,3.88-.74,3.84,0,6.54-2.42,9.8-4.12,1.65-.87,3.36-1.94,5.12-2.55,1.81-.62,3.21-1.88,5.01-2.57.4.8,1.5.9,1.6,1.91-.13.91.45,1.12.82,1.81.86,1.61-.19,4.67-.35,6.38-.32,3.3,2.12,6.69,5.26,3.69,4.61-4.4-1.27-13.98,3.62-17.4,3.28-2.29,5.08,2.18,8.88,1.69,3.39-1.22,7.35-5.59,7.35-9.25,1.43-1.62,2.51-3.59,4.29-4.87,2.12-1.53,3.55-.94,5.79-.02,4.29,1.76.62,6.58,2.47,9.39,1.23,1.87,3.18,2.48,5.35,2.19,1.67-1.25,2.69-3.11,3.2-5.1-.22-2.51-.77-4.97-1.27-7.44-.48-2.37-.9-3.44.67-5.28,1.55-1.82,3.8-.33,5.79-.29,1.75.03,2.92-1.09,4.18-2.26,2.6-2.41,4.94-5.71,8.56-2.99,3.7,2.78,8.56.26,11.6-2.11,1.63-1.28,3-2.85,3.72-4.81,1.48-1.08,2.67-2.44,4.1-3.56,1.38-1.07.62-3.22-1.2-2.68-1.6.47-2.97.23-3.27,1.83-.15.79-3.29,3.17-4.06,3.68-1.75,1.16-3.22,2.72-5.16,3.6v-1.91c-1.91-.15-2.07,2.34-4.15,1.91.27-1,2.03-2.03,1.28-3.19-1.19.08-1.84.88-2.48,1.77-.99,1.36-1.38.7-2.9.81-1.11.07-1.65.73-2.68,1.17-1.48.64-2.65.38-4.05,1.22-.9.54-1.53,1.57-2.39,2.24-.88.7-5.87,1.21-6.92,1.07.24-.87,2.46-.57,2.55-1.59-1.64-.14-2.72.33-4.07,1.04-1.26.66.2,1.3.41,1.09-.13.5-2.12,2.27-2.42,2.64-.84,1.03-1.31,1.74-1.32,3.08-.02,1.92.46,3.75,1.06,5.56.59,1.76,1.15,3.52,1.23,5.39-.41.54-1.1,2.71-1.92,1.91-.8-.22-.58-9.14-1.25-10.74-.56-1.35-1.82-2.02-3.26-1.83-2.08.29-3.89-.62-6.04-.51-2.06.77-3.63,2.32-5.44,3.51-1.68.59-3.82,1.81-4.72,3.25-.83,1.33-2.25,3.69-3.92,4.08-2.23-.09-4.56-.05-6.71.64-.62.7-.54,1.75-.96,2.55-.96.52-1.85,1.16-2.7,1.85-1.53,1.26-1.46,3.6-1.5,5.48-.05,2.86,1.18,8.21-1.24,10.52.09-2.09,1.57-6.78.21-8.5-1.18-1.49-1.74-2.79-2.12-4.58-.29-1.38.49-3.31.18-4.39-.53-1.84-1.9-1.13-3.29-.72-2.42.71-3.89,1.5-5.86,3.21-1.86,1.6-3.45,3.46-5.75,4.47-1.43.08-1.49-.58-2.55.33-.74.62-1.64,1.03-2.56,1.27-.37.42-3.65,2.87-3.84,1.91,1.7,0,4.15-2.44,5.38-3.57.89-.83,1.85-1.63,2.3-2.81.89-.31,1.68-.83,2.42-1.41,2.54-1.99,7.3-3.37,9.06-6.13,1.65-2.59-4.06.03-4.67.43-1.89,1.24-3.72,2.84-5.52,4.25-2.28,1.3-4.2,3.09-5.97,5-.76.81-1.49,1.64-2.24,2.47-1.16,1.3-.62.45-2.02.51.23,1.08-.56,1.16-1.28,1.59-.9-.98-.67-2.3-.21-3.41.93-2.23,1.93-4.19,2.68-6.5.44-1.36,4.33-13.12,5.51-12.08-.13.27-.8,1.23,0,1.27.41-2.83,4.33-1.17,6.32-1.91,1.9-.71,3.8-1.69,5.05-3.33,2.48-3.25.77-10.59-3.94-10.66-1.5-.02-3.67,2.11-1.49,2.95,2.01.77,2.37,1.6,3.08,3.71.89,2.67-3.69,4.15-5.69,4.44-2.96.42-1.45-3.88-.14-5.09.36.67.76,1.08,1.6.96-.91.74-1.24,2.1.32,2.23,1.09-.2.62-1.78,0-2.23,1.54.05,1.32-1.87,1.28-2.87-.6-.78-1.86-.31-2.55-.96.58-.61-.58-2.28-.34-3.25.36-1.49-.2-2.7.56-4,1.55-2.66,3.83-4.7,4.26-7.73.68-.37.4-1.43.83-1.98.62-.77,1.33.3,1.91.43,5.37,1.25,13.16-1.3,15.19-6.71,1.17-3.12-1.31-5.1-3.55-6.73-2.57-1.87-3.93-2.35-7.03-1.91.71-.89-.4-1.51-.78-2.2-.51-.93.79-2.3,1.15-3.17.67-1.62,1.5-4.79,3.78-4.83.19,1.46.68,1.43,2.1,2.24,1.37.77,2.87,1.29,4.41,1.64,3.83.87,7.62.4,11.4,1.54,2.83.03,5.83.38,8.71,1.27,2.75.84,5.62,2.23,8.55,2.24,1.7,2.35,6.86,2.48,9.42,3.36,3.15,1.09,6.17,2.68,9.16,4.17,3.54,1.76,7.23,3.25,10.45,5.45,1.05.72,5.58,3.05,5.51,4.55-5.08,1.11-11.21,1.57-15.73,4-2.43,1.31-5.03.99-7.57,2.01-1.36.55-2.34.64-3.02,1.93-.46.88-1.06,1.68-1.5,2.57,2.9-.48,5.39-2.48,8.31-3.19,3.05,0,6.1-1.67,8.95-2.87,3.34-.27,6.68-.78,9.89-1.73,1.08-.32,2.51-1.17,3.58-1.04.74.09,1.89.06,2.51-.42-1.39-.53-1.99-1.94-2.56-3.19-1.26-.65-2.35-1.56-3.46-2.45-2.15-1.73-4.76-3.74-7.41-4.56-1.08-2.08-4.94-2.52-6.73-3.87-1.91-1.44-4.84-2.91-7.19-3.71-2.53-.86-5.03-2.3-7.63-2.65-1.03-.14-1.85-.54-2.83-1.09-1.1-.62-1.8.01-3.12-.16-.12-.83-6.18-2.51-7.25-2.8-2.92-.77-5.88-1.03-8.88-1.34-1.56-.16-2.87-1.16-4.33-1.28-.33-.4-2.32-.2-2.84-.35-2.16-.63-4.55-.9-6.41-2.13-1.4-.92-2.63-1.36-4.23-1.76-1.9-.48-1.53-1.59-1.53-3.25,0-3.19,1.65-4.78,4.56-6.13,1.55-.71,2.91-1.45,4.34-.27.77.64,1.46,1.42,2.39,1.83,3.06,1.32,2.75-1.27,2.67-3.12-.04-1.07,7.01-1.42,8.06-1.43,2.64,0,5.83,2.16,7.07,4.5-1.17.72-2.45,1.31-2.56,2.87,1.18.59,1.16,2.53,2.74,2.22,3.62-.71,4-.28,5.33,3.19,1.12,2.92,5.8.39,5.96-1.62.3-3.52,2.01-.88,3.44-.8,2.94.16,5.5-2.94,6.84,1.59.93,3.12,1,6.35,1.64,9.5.54,2.69,3.76,4.03,5.36,1.2,1.67-2.95.59-5.25.01-8.27.36,1.87-2.02-3.72,0,0-1.25-2.31-2.13-4.81-3.61-6.99-1.9-2.81-3.66-3.3-6.94-3.2ZM29.69,32.86c1.37,1.29,3.27,1.99,4.34,3.6.95,1.41-.99,2.87-2.14,3.66-2.83,1.97-6.53,2.22-9.87,1.99.21-.59.14-1.72.96-1.91.59.14,1.11.01,1.55-.37,1-1.01.25-1.83-.37-2.66-.52-.69,1.09-3.44,1.38-4.31,1.41-.06,2.75-.17,4.15,0ZM29.69,32.86c-1.87-.23,1.59,1.5,0,0h0ZM115.6,37.67c-1.35-.9-2.25-1.16-2.74-2.72-.4-1.29-1.17-2.4-2.12-3.34-2.31-2.3-2.69-5.27-5.59-7.12-1.25-.8-2.57-1.48-3.86-2.21-1.01-.57-2.68-.45-3.51-1.2.09-2.52-1.52-5.75-4.32-5.78-2.08-.03-5.59.24-5.59,2.91,0-.15.57,0,.89.13,1.69.07,3.75-.59,5.05.49,2.11,1.75-.59,3.59-.19,5.44,1.21.96,3.04,1.07,4.47.64,1.51.89,3.05,1.72,4.6,2.56,1.33.72,1.84,1.71,2.63,2.98.8,1.27,1.52.57,2.36,1.47.39,1.38,1.88,1.95,1.92,3.51-.18.93-1.62.63-2.24.96-.9,2.13-1.18,3.45,1.7,4.04,3.16.64,4.66,2.01,5.91,5.1,1.29,3.15-.72,2.21-1.98,4.48-.81,1.44.39,2.51,1.85,2.18,1.04-.23,1.82-1.06,2.55-1.77,1.71-1.65,2.98-3.58,3.39-5.98.48-2.81-3.21-5.43-5.2-6.76ZM88.76,18.33c-.31-.01-.61-.05-.89-.13,1.3.36,1.24.26.89.13ZM58.14,37.33c-.11.62-.07.57-.03.39,0-.13,0-.26.03-.39,0,0,0,0,0,0ZM58.14,37.33s0,0,0,0c0,0,0,0,0,0,0,0,0,0,0,0ZM59.1,36.37c.99-.52,1.36-1.47,1.28-2.55-1.44-.29-2.38.49-3.49,1.09-.37.2-1.28,1.05-1.74,1.04-.41,0,2.7-3.08,2.67-3.72-2.25-.21-2.82,2.53-5.11,2.23-.04-.81,1.07-1.49.32-2.23-.79-.15-1.6-.12-2.34.21-1.31.59-2.17,1.52-3.73,1.38.17-.96,1.33-1.14,1.28-2.23-1.46-.3-4.27,1.01-5.17,2.23-1.22,1.64,3.95,3.16,4.77,3.28,1.72.27,3.46.48,5.2.55-.39,1.06.89,1.36,1.61,1.24.45-.08,2.66-1.29,3.5-1.55,0,0,0,0,0,0h.02c.18-.05.29-.06.3,0h-.3s-.01,0-.02,0c.04.01,0,.24-.03.39,0,1.45,1.4,2.81,2.58,1.26,1.43-1.87-.88-1.77-1.59-2.61ZM66.34,40.07c-.22-.29-.01-1.08-.53-1.15-2.58,6.25,10.65,8.61,14.66,4.44-.23-.17.63-2.91.73-1.97-.07-4.67-4.16-7.25-8.73-7.32-1.95-.03-4.85.56-5.22,2.89-.55,3.43,1.99.82,3.36,1,2-.08,4.71-.13,6.17,1.5,1.64,1.82.39,2.97-1.67,3.02-2.28.06-4.61.19-6.53-1.14-.56-.39-1.85-.75-2.24-1.27ZM81.16,42.43c-.18.34-.41.65-.68.94.08.06.28-.18.68-.94ZM81.2,41.4c0,.33,0,.68-.04,1.03.05-.52.06-.85.04-1.03ZM28.73,37.96c-.23,1.14,1.3.48.95-.32-1.49-.19-.94-.64-2.55-.64.43,0,.01.44,0,0,0,.36-.11.67-.32.96.43.46,1.49.46,1.92,0ZM72.21,38.92c-1.55-1.37-3.11.87-1.92,2.23,1.65.26,1.96-.81,1.92-2.23ZM27.45,40.51c-.18-.66-2.07-.4-1.92.32.23.26,2.21.86,1.92-.32ZM94.58,42.11c-1.32-.75-4.97-1.78-3.83.96,1.13.4,3.96.84,3.83-.96ZM59.08,46.73c.33.15.66.31.98.48-.5-.27-.8-.42-.98-.48ZM50.79,48.48c-.29,0-.63.03-.99.09.78.09,2.34.16.99-.09ZM60.06,47.21c.4.83-1.83-.79-.98-.48-2.5-1.11-5.31-1.47-8.02-1.5-3.06-.03-4.44.88-6.9,2.57-4.61,3.17-7.95,8.33-2.32,12.47,1.39.08,2.92.58,4.16-.32.54.82,1.59,1.12,2.51,1.25,2.11.29,4.98.09,6.7-1.25,4.24-3.31,7.41-7.48,4.86-12.75ZM56.86,51.99c-1.18,2.15-3.25,4.1-5.51,4.83-1.52.5-3.75.1-4.77,1.49-.88,1.2-1.19,1.74-2.64.62-2.82-2.18-.97-2.47.12-4.72-.72-.69-1.71,1.33-2.56,1.28-.59-3.22,5.05-6.37,8.28-6.92-.57-.06-.72-.14.99-.09,1.69.32,3.44.35,5.1.83,1.74.51,1.83,1.11.97,2.68ZM31.58,53.75c0-1.73-.62-2.53-1.89-3.36-1.84,1.41-2.68,7.96.42,8.28.03-.08.72-.28.91-.26,1.07-.99.57-3.47.57-4.66ZM31.01,58.41c-.11.1-.22.2-.36.27.42-.19.47-.26.36-.27ZM30.65,58.68c-.2.02-.37.01-.54,0-.01.04.12.05.54,0ZM52.07,50.71c.09.09.48-.15.32-.32-.09-.09-.49.15-.32.32ZM49.51,51.67c-.24.88-1.09,1.06-.32,2.23,1.09-.05,1.43-1.3.78-1.94-.06.09-.55.03-.46-.29ZM49.51,51.67c.19.06.34.17.46.29.04-.05-.05-.15-.46-.29ZM44.39,52.63c-.08,1.04.38,1.53,1.28,1.59,1.22-.63-.04-2.65-1.28-1.59ZM51.11,54.22c.09.09.49-.15.32-.32-.09-.09-.48.15-.32.32ZM47.91,55.81c-1.07-.97-.97,1.18,0,0h0ZM45.36,57.09c.25-.07.63,0,.64-.32-.25.07-.63,0-.64.32ZM58.14,63.46c-1.17,0-2.01-.63-3.04-1.04-.9-.36-1.66.2-2.59.58-3.16,1.31-6.42,2.36-9.53,3.75-1.85.83-4.68,2.38-6.25,3.72-1.34.86-2.58,1.88-3.99,2.65-1.64.89-1.12,1.93-1.12,3.72,4.7-2.32,8.83-5.56,13.55-7.89,2.49-1.23,5.15-2.06,7.72-3.08,1.43-.57,3.87-.98,5.01-2.15-.65.52-1.27-.26.24-.26ZM35.24,65.5c.22.05.4.12.52.2-.44-.28-.55-.28-.52-.2ZM34.55,67.79c1.4-.33,1.21-.81,1.21-2.09,0,.33-.47-.06-.52-.2-1.64-.41-5.48-.04-3.99,1.69.76.88,2.27.84,3.29.6ZM13.71,69.2c1.07.97.97-1.18,0,0h0ZM16.88,79.97c.05-.11.06-.28.03-.56.02.17,0,.37-.03.56ZM16.9,79.4c-.27-.13-.45-.18-.57-.19.2.04.39.1.57.19ZM16.33,79.21c-2.14-.45-4.99,1.84-4.54,4.02,1.73,1.69,4.75-1.25,5.09-3.26-.22.52-1.18-.78-.55-.75Z"/>
    </g>
  </g>
</svg>