<?xml version="1.0" encoding="UTF-8"?>
<svg id="Layer_2" data-name="Layer 2" xmlns="http://www.w3.org/2000/svg" viewBox="0 0 114.51 89.59">
  <defs>
    <style>
      .cls-1 {
        fill-rule: evenodd;
      }
    </style>
  </defs>
  <g id="food_icons" data-name="food icons">
    <g id="plate_silverware" data-name="plate&amp;amp;silverware">
      <path class="cls-1" d="M113.9,73.11c-.29-2.35.18-4.94.26-7.3.16-4.76.24-9.29-.25-14.04-.54-5.21-1.19-10.46-.81-15.7.29-4.03-1.16-8.36-1.17-12.46-.02-5.07-.31-10.12-.31-15.19,0-2.77,1.27-8.25-2.41-8.4.07.03-.32.1-.26.04-1.59.73-3.14,3.91-4.17,5.24-1.51,1.95-2.15,4.43-2.81,6.78-1.28,4.53-2.11,9.16-3.14,13.75,0,2.65.31,5.15.81,7.75.45,2.33,1.46,4.41,1.89,6.69.34,1.78,1.48,3.5,1.45,5.33.32.16,1.73,2.05,1.86,2.39.65,1.65-.19,4.68-.27,6.45-.05,1.14.56,4.91-.95,5.5-.11.71-.1,1.68-.64,2.23-.12.69.54.86.32,1.59,1.58-.13.5,1.12.61,1.71.61,3.16.44,8.1-.29,11.36,1,3.25-1.82,7.62.47,10.45.8.98,2.87,1.66,4.08,2.14.84.34,1.43.19,1.95-.47.47-.59,1.43-.27,2.08-.47,2.27-.71,2.27-7.09,2.29-9.08.02-2.21-.34-4.11-.61-6.27ZM111.62,76.51c-1.07-.48-1.59-1.61-2.55-2.23.75-2.41,1.34-4.87,1.92-7.33.79.37.77,8.4.64,9.56ZM111.21,62.7c-.13.18-1.87-1.56-1.87.26,0,1.22-.79,2.46-.6,3.67-2.59-.05.06-8.55-.32-9.88.63-2.06,1.79-3.86,1.92-6.06.48-.04,1.61,10.97.87,12.01ZM104.64,39.99c-.9-3.38-1.89-6.63-2.5-10.13-.76-4.36.38-8.22,1.27-12.48.81-3.88,1.64-7.26,3.74-10.69-1.66,2.71.12-.42,0,0,.03-.12.63-1.26.9-.89.64.91.25,3.87.28,4.97.04,1.64.04,3.27.05,4.91,0,3.7-.02,7.4.17,11.09.17,3.37,1.17,6.77,1.17,10.1,0,.86.45,8.65.48,8.67-1.23-.66-1.14-.18-2.08,1-.3-.11-1.89-2.19-1.92-2.33-.38-1.44-1.15-2.75-1.54-4.22ZM112.04,82.03c-.05.29-1.13,4.53-1.35,2.63-.16-1.3-1.89-1.41-1.62-2.73-.48-.38-1.29-.36-1.6-.96-.22-.74.44-.9.32-1.59.86.2.89,1.3,1.89,1.27.01,0,.03,0,.04,0,.81-.07,2.26-2.32,1.78-2.74.38.34.62,3.67.54,4.12ZM109.7,80.65s-.02,0-.03,0c-.27.01-.47.03.03,0ZM108.95.06s.08-.04.11-.06c-.07.03-.1.04-.11.06ZM109.72,80.65s-.01,0-.01,0c.69-.04.34-.02.01,0ZM109.07,74.27c.97.62.73-2.35,0,0h0ZM109.07,0c.05,0,.09.01.14.01-.02,0-.05-.01-.14-.01ZM108.42,56.74c.64,2.27.62-2.04,0,0h0ZM6.77,66.3c.9.48-.02-.97,0,0h0ZM13.53,38.14c1.45-1.98,2.91-3.28,4.65-5.08,1.81-1.88,1.37-6.72,1.5-9.24.18-3.39.22-6.8.19-10.19-.04-2.77.51-6.97-.76-9.34-.68-1.28-1.32-2.92-2.75-3.31-5.47-1.48-2.2,10.02-2.2,12.95,0,1.46.58,10.51-1.63,10.63,0-3.59-.34-6.97-.59-10.53-.22-3.12-.14-6.51-1.54-9.43-.8-1.68-2.18-1.78-3.66-.74-1.56,1.1-1.15,1.72-.98,3.58.32,3.45.8,6.89,1.04,10.33.05.72.39,7.94-1.32,5.5-1.26-1.81,0-4.43-.94-6.37.14-1.98.47-8-.81-9.3-1.81-1.83-3.31-3.22-3.56.52C-.1,11.96.02,15.82.07,19.68c.03,2.15.05,4.3-.02,6.46.44,1.48.99,2.92,1.44,4.39.55,1.79.91,3.28,1.67,4.94.53,1.17,1.16,1.59,1.91,2.56,1.59,2.08.24,6.98.1,9.51-.17,3.17-.3,6.57-1.6,9.51.79,3.7-.33,7.42-.6,11.11-.08,1.08.25,2.51-.3,3.51-.38.48-.61,1.03-.7,1.64-.18.78.95,1.61.32,2.23-.92,2.09-.83,4.79-.64,7.01-.15-1.78,1.09.94,0,0,1.81,1.56,3.56,3.71,5.97,4.35,2.44.64,5.21-1.2,5.57-3.67.85-5.86,1.03-12.08,1.45-18.13.45-6.38.44-12.28-.9-18.55-.38-1.77-1.36-6.87-.22-8.42ZM17,12.11c.05-2.27-.74-2.12-.44-.98-.69-2.21.23-4.87-.84-6.99,1.43-.2,1.3,6.93,1.28,7.97ZM11.4,48.78c.21,1.83.23,3.73,1.12,5.41-.03,2.18-.11,4.36-.2,6.53-.18,4.62-.35,9.25-.12,13.87-.35,1.45-1.25,2.92-1.34,4.34-.08,1.24-.04,2.67-.67,3.79-.34.61-3.08,1.72-2.7.65.22-.62,1.85-1.54,2.29-2.27,1.24-2.09-.22-1.71-.13-3.32-.27-.96-1.99-2.45-2.24-.64-1.1-.68,1.77-2.65,2.09-3.18,1.33-2.15-3.11-.01-3.37-.01.82-2.32,2.61-3.38,3-6,.41-2.82.41-5.68.61-8.52.05-.82.69-2.75-.02-3.4-.62-.57-.39-1.54-.39-2.3v-8.5c0-2.33-.64-3.96-.64-6.13,0-.65.57-3.76-1-3.24-.53.18-1,.62-1.56.16-2.7-3.68-3.51-9.65-3.51-14.03.71.46.54,2.28,1.23,3.02.8.86,1.57,1.21,2.73,1.14,2.49-.13,2.41-1.74,2.52-3.87.27-5.27-.75-10.62-1.05-15.92.27,4.83-.57-.24,0,0-.76-.31.36-1.61.64-.64.34,1.9.57,3.52.6,5.45.07,4.01.74,7.99.76,12,0,1.75-.56,3.59,1.72,3.89,1.67.22,2.92.02,3.76-1.53,1.44-2.69,1.16-5.92,1.16-8.98,1.17.16-.07,10.42-.15,11.54-.16,2.59-.92,3.32-2.69,5.17-1.21,1.26-2.9,2.64-3.25,4.32-.76,3.64.38,7.41.81,11.17ZM6.77,66.3c-.01-.88.65-1.19.96-1.91.39.09.63,2.47.66,2.85.17,1.98-.65.5-1.62.66.47-.56.87-1.13,0-1.6ZM7.41,57.06c.06-.36.32-.17.32,0-.06.37-.32.18-.32,0ZM87.01,70.77c.09-.09.15-.18.24-.26-.18.14-.93.84-.24.26ZM88.24,23.53c-2.58-3.96-4.82-8.09-9.42-10.08-2.14-.92-4.02-2.35-6.13-3.26-2.06-.88-4.6-1.12-6.81-1.35-1.35-.14-13.47-.55-13.4-.24-3.23,0-6.93,2.22-10.01,3.15-3.24.99-5.64,2.91-8.47,4.72-2.33,1.49-4.39,2.7-6.36,4.66-1.45,1.45-3.15,2.71-4.27,4.46-1.76,2.78-1.78,6.41-3.83,9.14-1.12,5.23-1.92,9.99-1.92,15.35,0,2.84.57,5.49.66,8.29.08,2.36,1.54,4.81,2.4,7.05,1.81,4.75,4.73,8.59,8.56,11.85,3.84,3.26,7.79,6.69,11.99,9.47,3.77,2.5,10.88,2.06,15.26,2.27,4.99.25,11.23.56,15.74-1.83,4.31-2.28,8.66-4.35,12.55-7.33,2.15-1.65,2.88-3.66,4.02-6.11.88-1.89.94-3.07,2.67-4.27,1.25.01,3.18-6.88,3.79-8.02,4.25-7.86,2.66-17.01-.51-24.89-1.8-4.46-3.88-9.02-6.51-13.06ZM93.34,56.24c-.28,1.11-.49,2.23-.58,3.37-.5.68-.96,1.39-1.25,2.2-1.12,3.16-1.87,6.18-4.27,8.7.08-.06.05-.02-.24.26-1.01.85-1.69,2.01-2.24,3.19-1,.17-.23-.74-.33-1.22-.36-1.8-4.88.82-.95,1.86-3.23,3.38-8.08,4.53-12.16,6.53-2.45,1.2-5.83,1.09-8.54,1.77-2.68.67-5.15.67-7.92.64-2.71-.03-5.41-.11-8.11-.26-2.01-.11-3.65-1.18-5.57-1.68-4.28-1.12-6.81-5.04-9.95-7.82-.81-.71-2.95-3.43-3.7-3.64-.81-2.2-1.65-4.38-2.45-6.58-1.81-4.99-3.37-10.08-4.22-15.33-.6-3.72-.8-8.8.61-12.26.59-1.47,1.45-2.12,1.65-3.7.13-1.03.46-1.99.9-2.93.84-1.78,1.67-2.86,3.06-4.22,2.86-2.79,5.99-4.99,9.5-7.04,7.66-4.48,16.99-9.06,26.23-6.97,2.27.51,4.55.87,6.77,1.56,2.12.66,3.69,1.79,5.68,2.83,2.11,1.11,3.71,2.31,5.5,3.87,1.79,1.56,2.56,3.08,3.83,5.09,2.6,4.14,4.36,8.36,6.49,12.71,1.53,3.12,3.57,7.82,3.57,11.27,0,2.79-.67,5.1-1.34,7.78ZM52.48,8.61c-.06-.27-.21,0,0,0h0ZM77.74,21.04c-1.01-.26-1.16-.17-1.01-.02.28-.07.61-.08,1.01.02ZM79.97,25.82c.86,1.56,2.25,3.16,2.25,0,0-2.87-2.26-2.21-4.49-2.23-.09-.86.37-1.73,0-2.55.27.59-.76.21-1.01-.02-1.03.25-1.36,1.48-1.2,2.67.26,1.99,2.71,2.22,4.44,2.13ZM77.42,66.94c1.17.86,1.32-.81,0,0h0ZM80.31,53.04c.12-.56.23-1.13.31-1.71-.49-1.38-.6,2.55-.31,1.71ZM84.77,42.71c-.61-.17-1.44-2.52-1.66-3.12-1.19-3.15-2.27-7.01-4.85-9.27-2.63-2.3-5.41-4.45-8.7-5.71-3.5-1.34-6.89-1.19-10.55-1.3-6.56-.21-12.78,1.31-18.58,4.12-2.3,1.12-3.53,2.86-5.52,4.44-.38,1.57-1.44,2.72-2.56,3.82-2.5,2.47-2.8,6.73-3.36,9.98-.78,4.58-.15,7.32,1.5,11.56,1.09,2.79,2.19,5.15,3.85,7.74,2.17,3.38,6.03,5.23,10.15,5.15,1.74,2.24,6.99,2.72,9.51,2.82,4.95.18,9.56.15,14.35-1.18,1.7-.47,3.91-.94,5.25-2.15,1.09-.99,1.89-2.2,3.49-2.36-1.78,1.21.06,2.38.54,3.74,1.05,2.97-2.31,1.08-3.42,2-.36,2.01,1.29,2.73,3.02,2.44.73-.12,1.51-.38,2.09-.85.38-.47.36-1.29.96-1.59.24-.55-.64-1.98,0-2.23,1,.1,2.17.62,2.88-.39.69-.98,1.63-3.25.32-4.14-1.76-1.19-1.33,1.96-1.83,2.65-1.18,1.61-3.46-1.38-4.24-1.95,2.99-1.83,5-6.19,6.17-9.39,1-2.74,2.78-4.88,2.31-8.04-.34-2.27-.96-4.49-1.13-6.79ZM80.31,53.04c-.84,3.78-2.64,7.26-3.53,11.04-.46-.01-.32-1.12-.32-1.28-1.14.57-1.66,2.07-2.69,2.84-1.16.87-1.91,1.34-3.23,1.94-2.43,1.11-4.09,2.49-6.96,2.18-2.95-.32-5.68-.75-8.65-.91-2.98-.16-6.39.25-8.81-1.57-2.38-1.79-4.42-4.02-7.07-5.44-.85-2.49-3.13-4.79-4.55-7-1.47-2.27-2.02-4.78-2.2-7.55-.19-2.83,1.2-5.5,1.93-8.2,1.4-5.16,5.75-6.97,9.94-10.09,2.77-.51,5.45-1.47,8.24-1.98,2.83-.52,5.45-.65,8.38-.57,2.88.08,6.49,0,8.99,1.56,2.58,1.6,4.99,3.5,6.92,5.85,2.11,2.56,2.39,6.34,3.25,9.51.7,2.59-.25,5.41.66,7.95-.13.99-.23,1.5-.31,1.71ZM28.56,34.35c-.67-3.26,4.44.44,3.53-2.97-.3-1.11-.99-2.2-.76-3.4.38-1.95,1.53.24,2.6-.88-.61.63-.15-.75,0,0-.37-1.83.31-1.54-1.28-2.55-.88-.55-1.73-.21-2.39.48-1.47,1.55-2.07,3.47-1.13,5.57-2.48.31-3.71,2.01-3.51,4.46,1.6,1.58,3.61,2.6,2.93-.71ZM27.78,30.09c-.05.18-.13.35-.24.51.24-.36.28-.49.24-.51ZM27.55,30.6c-.37,0,.15-.56.24-.51.36-1.18-.41-2.63-1.84-2.36-.71.5-.69,1.48-.4,2.19.41,1.01,1.07.67,2,.67ZM35.54,69.49c-1.69-.31-1.49-.15-.98,0,.27-.06.6-.07.98,0ZM38.4,71.97c-1.58-.23-1.93.31-2.2-1.22-.11-.48-.33-.9-.66-1.26.2.26-.52.13-.98,0-1.75.39-1.32,3.16-.3,4.47,1.45.73,3.24.59,4.8.79,1.69.22,1.16,1.04,1.86,2.23,1.54,2.6,2.39-2.15,1.96-3.34-1.23-1.06-2.93-1.44-4.49-1.67Z"/>
    </g>
  </g>
</svg>