<?xml version="1.0" encoding="UTF-8"?>
<svg id="Layer_2" data-name="Layer 2" xmlns="http://www.w3.org/2000/svg" viewBox="0 0 74.15 113.97">
  <defs>
    <style>
      .cls-1 {
        fill-rule: evenodd;
      }
    </style>
  </defs>
  <g id="food_icons" data-name="food icons">
    <g id="popcorn">
      <path class="cls-1" d="M61.31,3.38c-.38-.05-.78-.07-1.21-.04-.51.57,1.35.2,1.21.04ZM54.28,13.39s.55.52.38.47c3.76,1.08,6.83.41,9.27-2.55.69,1.17,3.18-.46,3.84-.96,1.11-2.29,1.56-3.82.53-6.27-1.58-3.78-6.39-5.04-9.93-3.34-1.41.67-2.68-.1-4.03.83-1.37.94-2.7,1.89-2.88,3.68-.37,1.88,1.28,2.25,1.6,3.83-.16,1.64.27,3.05,1.22,4.31ZM54.72,4.67c1.4-1.12,1.63.84,2.76,1.18,2.01.61,1.75-1.54,2.62-2.51.84-.06,1.16-.02,1.21.04,2.11.25,3.41,1.64,3.26,4.11-1.81,1.86-5.29-1.07-4.79,3.19-1.01,0-2.71.61-2.87-.8-.13-1.04.04-1.69-1.05-2.23-1.26-.63-3.05-1.46-1.14-2.97ZM54.66,13.86c-.14-.16-.26-.31-.38-.47,0,.02.09.14.38.47ZM34.52,17.05c.68-1.23-.97-.42,0,0h0ZM69.22,52.03c1.6-.2,2.67-1.56,3.65-2.7,2.48-2.9,1.12-6.91-1.96-8.83-2.16-1.34-1.18-3.27-2.56-5.26-.42-.6-.92-1.14-1.39-1.69-.81-.94.15-1,.86-1.73,3.08-3.2,3.35-8.26-1.27-10.08-1.34-.53-2.82-.57-4.21-.22-.4-.98-.93-1.89-1.58-2.73-.92-1.19-2.23-1.76-3.73-1.77-1.3-.01-2.69.04-3.9.58-1.24.56-.89-.17-1.75-1.1-1.27-1.36-2.98-2.28-4.7-2.96-4.71-1.84-9.55-1.16-12.15,3.51-1.07-.47-1.97-1.02-3.19-.96-.18-.92-.79-1.87-1.39-2.57-.93-1.09-2.43-1.44-3.83-1.28-2.12.24-4.15,1.21-5.98,2.25.02.48-.19.8-.64.96v1.91c-.35.66.5.65.61,1.07-.08-.29-6.48,2.74-7.07,3.25-2.76,2.43-1.59,4.73-1.85,7.79-4.34-.41-8.3,2.64-7.63,7.29.25,1.76.06,1.65-1.09,2.98-1.29,1.48-1.19,2.35-1.19,4.29,0,2.11,1.54,2.96,1.92,4.89-3.48-.53-3.73,3.17-2.59,5.33,1.23,2.36,1.14,6.16,1.93,8.82,2.09,7.05,2.3,14.32,4.05,21.48.99,4.06,2.11,8.08,3.15,12.13.53,2.04,1.03,4.09,1.5,6.14.37,1.61,1.3,2.83,1.99,4.33.83,1.84,1.51,3.74,2.44,5.53,1.99.5,4.02.82,6.06,1.02,3.75.36,7.53.28,11.29.12,4.39-.19,8.78-.5,13.18-.52,2.03,0,3.73.58,5.72.66,2.08.09,2.46-.19,4.03-1.38,4.21-3.2,5.36-11.6,6.18-16.58,1.25-7.6,2.8-15.12,4.77-22.55,1.7-6.41,4.39-13.06,5.04-19.74-2.3,0-5.2-.62-7.35-.32,0-.97-3.15-1.29-3.59-1.3-5.98-.14-11.93-.8-17.87-1.47-2.92-.33-5.83-.66-8.76-.91-2.69-.23-6.06.13-8.58-.77-1.59-.57-1.59-.52-3.13.25-1.09.54-2.14.34-3.31.52-1.39.21-1.45.39-2.45-.07-.6-.28-1.38.29-1.85.56.22-3.12-2.59-.73-3.66.17-.39.33-2.73,1.18-2.67.04.03-.53.69-.46.58-1.17-.69-.06-1.32.94-1.92.32.84-1.86,1.17-3.25-.98-1.36-.4.35-.71.26-.94-.23.51-.33.96-.74,1.32-1.23.8-1.04,1.25-2.3,1.55-3.55-2.58-1.25-2.4,2.85-3.83,3.19-.97-3.05.66-6.28,4.15-6.06-.07-1.36-1.28-1.98-1.28-3.61,0-1.89.16-2.72,1.69-3.95,1.07-.86,3.27-1.71,4.39-.41.3-.13,1.19.57,1.21.54.44-.87-.53-.78.39-1.81-1.88-.58-1.58-5.03-.32-6.06.28-.23.18-.86.78-1.28.67-.46,1.37-.89,2.09-1.27,2.38-1.27,4.52-.59,6.65.7,1.07.65,3.57,3.27,2.31,4.71,1.17-.13,1.26-1.43,1.27-2.34-.01-.6,0-1.2,0-1.8.47-.09.79-.35.97-.79.67-1.53,1.08-3.53,3.48-2.58,1.49.59,1.27,2.63,2.36,3.59,1.91,1.69,2.33-.53,1.89-1.97-1.47-4.84,5.53-8.27,9.14-5.92,3.88,2.54,6.08,8.27,4.22,12.77,1.64-.7,2.69-2.17,3.28-3.8.36-.98.4-3.91,1.47-4.13,1.83-.37,3.17-.14,3.64,1.78.26,1.06.17,3.19,1.64,2.89,2.76-.55,5.38-2.73,6.98,1.32,1.12,2.84-4.26,6.52-6.79,6.39-.06,1.5,4.49,3.14,5.43,4.14.6,1.7,1.08,3,.09,4.71-.52.91-1.44,1.88-1.69,2.94,1.09.3,2.11.55,3.04-.32.44-.42.84-.92,1.44-.32,2.11.74.18,3.2-.55,4.12-1.22,1.54-1.21,3.76,1.36,3.45ZM22.37,106.94v-.96c.94-.47.94,1.42,0,.96ZM31.33,110.13c-.17-.17.23-.41.32-.32.16.17-.23.41-.32.32ZM34.52,109.49c-.17-.16.24-.41.32-.32.16.16-.23.41-.32.32ZM6.39,52.11c8.04,1.31,16.48.64,24.61.64,7.83,1.02,15.62,1.13,23.49,1.42,3.99.15,8.32.03,12.08.54,2.47.34,2.38,1.59,1.49,3.83-.92,2.31-1.78,4.83-2.43,7.22-.6,2.22-1.44,4.24-1.82,6.57-1.15,7.11-2.76,14.04-4.27,21.08-.61,2.89-1.2,6.46-2.65,9.07-.11,1.14.16,4.61-1.92,4.14.38,1.67-2.39,3.36-3.69,2.48-1.07-.73,1.6-1.79-1.12-1.85-2.17-.05-1.4.76-2.23,1.92-.63.9-3.95-.1-5.11.32.23-.81.72-1.16,1.6-.96.5-1.07,1.18-1.52,1.27-2.67.1-1.4.73-.03.49-1.9-.15-1.12-.22-2.25-.28-3.37-.24-4.85-.11-9.55-.2-14.38-2.35-.28-1.93,1.55-1.9,3.02.04,2.18-.94,3.66-.92,5.64.04,3.08-2.14,9.47-.06,12.06-.77,1.08-6.02-1-6.07,0-.96-.56,1.27-2.02.15-2.7-1.55-.94-1.43-.38-1.43-2.78,0-3.86.73-7.47.88-11.34.04-.9-.07-1.84-.57-2.62-.76,0-2.48-.37-3.08.28-1.1,1.2-1.1,2.14-1.21,3.77-.29,4.23.51,8.16.44,12.29-.02,1.01-.06,2.15.33,3.11-.76.5-1.42,1.15-1.92,1.91-.92-.53-1.55.5-2.56.32,0-.36.1-.68.32-.96-.77.06-1.97-2.52-2.04-3.21-.23-2.61-.45-5.22-.64-7.83-.2-2.67-.36-5.33-.47-8-.11-2.68-2.26-1.23-4.21-2,.28,5.16.65,10.54,1.25,15.65.07.6.84,2.35-.1,2.58-.36.09-1.1.02-1.15.58-1.66.53-.94,2.97-.76,2.8-.28.22-.45.14-.52-.24.07.95-.43-.1,0,0-.33-.08-1.47-1.75-1.65-2.06-.58-.98-.27-2.37.13-3.35.69-1.7,1.92-3.19,1.21-5.12-1.39.26-1.73,1.68-1.92,2.87-1.49-.1.29-3.58.48-4.26.23-.84,1.26-3.6-.67-2.94-.79.27-1.08,1.01-1.09,1.78-.6-.68.84-4,.04-4.03-.64-.03-.14,2.14-1.31,1.8.31-1.13,1.01-4.87-.03-5.71-.46-.38-1.08-.06-1.57-.34-.19-.87-.38-1.74-.58-2.61-.89-3.88-1.85-7.74-2.73-11.62-.97-4.26-1.66-8.54-2.97-12.66-.51-1.6-.85-3.22-1.58-4.74-.79-1.65-.25-2.4,1.14-3.43ZM26.22,19.92c-.74-.39-1.32-1-2.16-1.2-1.5-.37-1.04-.41-1.04-1.99,1.47-.79,4.19-1.62,5.43,0-.17,1.19-1.92,1.8-2.23,3.19ZM23.02,16.73c0,.64,1.47-.79,0,0h0ZM48.59,45.74c4.14.16,6.91-4.13,5.84-7.88-1.21-4.28-6.63-3.89-9.36-1.37-1.21-4.06-5.07-4.3-8.59-3.91-1.68.19-7.86,4.12-4.52,6.14,2.33-2.76,7.31-5.69,10.04-1.94,1.12,1.54-.39,3.32.54,4.8,1.08,1.71,1.99-.24,2.25-1.22.56-2.1,5.59-4.68,6.99-1.96.2,1.78-.15,4.08-1.12,5.42-.36.51-2.08,1.33-2.08,1.91ZM45.08,36.49c.94-.87-.46-1.56,0,0h0ZM30.52,43.68c-.11-.26.7-.49.46-.15,2.23-2.33-.07-7.21-2.97-7.6-1.89-.26-3.65.51-5.09,1.68-.74.6-2.72,3-1.51,3.98.29-3.35,3.49-3.62,6.06-3.02,1.44.33,2.39.96,2.89,2.38.14.61-.38,2.17.15,2.73ZM30.69,43.82c-.07-.03-.12-.09-.17-.14.02.05.07.1.17.14ZM30.99,43.53c-.1.1-.19.2-.3.29.16-.13.25-.22.3-.29ZM19.8,71.01c2.36-.79,1.29-2.11.72-4.13-.43-1.52-.85-3.05-1.13-4.6-.29-1.57-1.31-2.88-1.92-4.42-.66-1.69-1.05-1.6-2.76-1.6.64,0,0,.32,0,0,0,3.24.47,5.33,1.36,8.35.45,1.51,2.13,6.94,3.73,6.41ZM33.13,69.92c4.27-1.8,1.46-9.64,1.71-13.03-.41,5.35-.75,0,0,0-2.02,0-2.21-.13-2.95,1.65-.59,1.44-.89,3.19-.84,4.71.06,1.79-1.3,8.09,2.07,6.67ZM47.34,62.49c-2.04-2.01,2.28-4.64-1.95-4.64.57,0-.29,2.2-.11.69-.62,3.84-.4,7.74,1.39,11.11.18-1.74,2.18-5.66.67-7.15ZM45.28,58.54c.04-.23.07-.46.11-.69-.05.29-.09.51-.11.69ZM55.62,58.17s0,0,0,0c.29-.03.88-.1,0,0ZM52.11,94.83c.97.06,2.3-5.22,2.39-5.97.5-4.19.7-8.4.78-12.62.03-1.58-.57-4.65.18-6.05.79-1.5.94-2.44.81-4.26-.13-1.75-.83-3.61-.63-5.37.03-.27.72-2.1.54-2.34-.18-.02-.36-.04-.53-.06-.14.02-.2.02,0,0-.9.11-.9-.69-1.48.12.09.4,0,.57-.29.52-.37-.01-.29,3.13-.29,3.54,0,3.41.25,6.82.22,10.23-.06,7.44-2.2,14.8-1.68,22.25ZM47.63,70.28c0,1.5,1.51,0,0,0,.21,0,0,.21,0,0ZM16.98,78.84c-.01-.09-.03-.18-.04-.27,0,.18.02.26.04.27ZM31.34,72.21c-3.87,1.3-12.73.42-14.22,5.57-.02.42-.1,1.09-.14,1.06.39,2.66,4.51,4.88,6.72,5.27,3.33.59,6.77.62,10.13.43,4.11-.23,12.96-1.34,13.79-6.6-.24-3.07-2.99-4.05-5.44-5.1-3.13-.31-7.89-1.62-10.85-.62ZM16.94,78.57c.04-.28.11-.54.18-.79.03-.46,0-.62-.18.79ZM18.54,106.62c1.99-.14,2.37-1.89,2.56-3.82-1.64-.85-3.09,2.5-2.56,3.82Z"/>
    </g>
  </g>
</svg>