<?xml version="1.0" encoding="UTF-8"?>
<svg id="Layer_2" data-name="Layer 2" xmlns="http://www.w3.org/2000/svg" viewBox="0 0 96.9 97.3">
  <defs>
    <style>
      .cls-1 {
        fill-rule: evenodd;
      }
    </style>
  </defs>
  <g id="food_icons" data-name="food icons">
    <g id="pot">
      <path class="cls-1" d="M46.48,17.51c.95,2.39-.64,4.53-.96,6.82-.09.67.84,1.87,1.36,1.49,1.12-.81,1.6-1.13,2.07-2.68,1.1-3.62.59-6.33-.97-9.68-1.47-1.1-3.01-2.22-4.37-3.46-1.31-1.19-.96-1.99-.57-3.49.43-1.7,2.72-3.28,3-4.97-.12.03-.4-.96.02-.51-2.17-2.3-4.38-.34-5.73,2.02-.76,1.33-1.13,2.86-1.26,4.38-.16,1.85.58,2.46.91,4.12,2.34,2.12,5.25,2.87,6.49,5.97ZM46.07,1.03c.02.17,0,.34-.02.51.04,0,.06-.14.02-.51ZM61.5,23.07c1.38,1.13-1.13,3.26-.59,4.91.9,2.71,3.07-1.16,3.7-1.78.04-2.23.78-3.28-.77-5.13-.99-1.18-3.82-1.36-4.03-3.16.16-1.95.87-3.77,1.21-5.68-.31,1.46-.64-.47.07-.37-.89-.12-1.09-.96-2.24-.96-.54.74-.97,1.57-1.32,2.42-.76,1.92-1.12,4.11-.61,6.14.58,2.31,2.95,2.29,4.57,3.6ZM35.26,27.34c-.44,1.09-.99,2.18-.38,3.34,1.43-.13,2.12-2.18,2.63-3.28.83-1.78-.27-2.4-1.73-3.08-1.61-.75-2.94-1.58-2.89-3.56.03-.97.66-2.54.05-3.47-.19-.12-.44-.32-.29-.32-3,0-1.96,5.6-.96,7.33,1.05.96,4.2,1.49,3.58,3.04ZM32.65,16.97c.12.09.21.21.29.32.22.14.35.18-.29-.32ZM4.2,60.32c.31.03.62.03.93.02,1.25-.11-.38-.91-.93-.02ZM72.71,36.82c-.14-.03-.29-.06-.43-.09-4.37.23,2.42.55.43.09ZM96.9,55.86c-.2-.93-.23-1.88-.28-2.83-.25-4.62-1.72-4.97-5.79-3.55-1.33-.04-3.06.77-4.06.67-1.2-.12-1.15.63-2.13.89-.17.04-.2-5.2-.23-5.72-.04-.53.07-2.12-.76-2.22-.14-.02-1.44.36-1.45,0,2.13-3.85-1.41-6.97-4.61-8.48-3.73-1.76-7.72-1.4-11.73-1.4-2.49,0-4.84.06-7.29.35-1.92.22-3.03-.23-4.92-.57-4.07-.72-8.26-.44-12.37-.07-4.21.38-8.39,1.07-12.5,2.04-3.22.76-5.71.45-8.69,1.83-1.38.64-2.28,1.45-3.5,2.28-.93.64-1.22.41-1.98,1.26-.41.41-.86.75-1.37,1.02-2.69,1.62-2.23,6.99-2.33,9.71-1.96-1.23-4.74-1.1-6.91-.7-2.48.46-3.18,1.57-3.67,4.01-.54,2.71-.58,5.27,1.11,7.4,1.82,2.3,3.47,2.03,6.27,2.03,1.87,0,3.83-.87,3.85,1.34.02,1.76.02,3.51,0,5.27-.02,3.01-.09,6.02-.19,9.03-.04,1.24-.65,3.51.33,4.45.61.58,1.33.98,1.44,1.91,2.13.66,3.58,2.42,5.51,3.43,10.63,5.57,21.68,8.04,33.65,8.04,3.08,0,6.12-.31,9.11-.32.49-.76,4.22-1.73,5.12-1.91,4.21-2.86,9.1-3.57,13.11-7.01-1.33.47-2.74.69-4.1,1.01-1.99.47-1.35.59-2.56-.53-1.47-1.36-5.69,1.16-7.08,1.75-3.2,1.36-5.97,2.35-9.46,2.52-1.26.06-3.61.53-4.69-.29-.63-.47-.95-1.19-1.83-1.28-.36.59.32.69.29,1.15,0,.12-4.46.84-4.42-1.01.02-.72-.62-3.73-2.07-2.23-.44.46.32,3.2-1.13,2.24-.58-.38-1.39-3.23-2.35-1.59-.88,1.51-1.47-1.13-1.87-1.37-1.15-.7-1.5,2.12-2.27.14-.58-1.5-2.63,1.76-1.95-1.17.21-.89.5-1.94.11-2.84-.79-.54-.4.34-.83.2.08.02.38-6.63-1.38-3.59-.59,1.03-1.31,5.78-2.67,6.2-.56.17.44-1.1-.24-1.21-.31.53-.56,1.01-1.28.96-.06-2.41,1.27-4.97.32-7.33-1.95.68-2.37,2.92-3.83,4.14-.13-1.34.49-3.27-.32-4.46-.95-.77-2.17.42-3.2-.32.75-1.68,1.42-3.21,1.28-5.1-2.03-.05-1.88,2.35-3.52,2.87.36-2.55,2.48-4.36,2.56-7.01-1.7.3-2.64,3.82-4,3.82-.01,0,2.39-5.84.59-5.03-.44.2-1.28,2.19-1.71,1.84,0-.62-.21-1.73.32-2.23-.52-.16-.64-1.05-.69-1.47-.15-1.63.43-1.95,1.82-1.18,1.13.62,3.61,2.04,3.96-.15.21-1.35-.79-2.33-1.52-3.32-1.22-1.66-4.13-.58-4.21-2.9-.05-1.38.02-2.77-.28-4.1-.44-1.99-2.37-9.62-.68-11.11.21,2.92,5.2,3.52,7.21,4.56,2.74,1.41,5.85,2.16,8.77,3.09,2.03,1.26,3,1.86,5.4,2.09,1.61.15,3.2.38,4.79.63,3.58.56,7.16,1.21,10.8,1.38,1.55.07,3.48.24,4.9-.59.9.97,2.3,1.29,3.51,1.14,3.4-.43,6.71-1.4,9.81-2.87,2.79-1.32,5.38-3,7.89-4.79,1.46-1.04,2.44-1.64,3.14-3.32.12-.29.82-1.73,1.23-1.64-.02.19-.05.38-.32.32.27.06.24,4.27,0,0,.19,3.45-.51,6.84-.62,10.28-.06,1.79-.53,1.42-1.39,2.7-.99,1.47.72.5.73,1.37-1.1.73-2.52.83-2.24,2.55.76.33,1.21-.28,1.9-.27.75.01.21,2.5.18,2.85-.36,5.32-.91,10.65-.82,15.99.04,2.29-.14,4.45,1.2,6.26,1.84,2.48,2.35-.9,2.65-2.52-.05-5.23.04-10.47.43-15.69.15-2-.13-4.31.26-6.25.26-1.26,4.9-1.18,6.2-1.44,2.12-.42,4.2-1.01,6.21-1.8-.47-.92.23-1.33.32-2.23ZM11.23,59.68c-2.1-.26-4.05.57-6.1.65-.22.02-.52.02-.93-.02.65-1.05.31-2.64.29-3.79-.03-1.64,1.12-1.05,2.42-.94,1.45.12,2.88.4,4.32.58v3.51ZM25.61,83.59c.7-.55.8-1.53,1.28-2.23.77.02-.4,4.67-1.03,4.72-1.76.13-.12-1.94-.25-2.49ZM19.86,82.32c-.03-.38.47-.2,0,0,.04.38-.46.2,0,0ZM16.66,76.58c.17.17-.23.41-.32.32-.16-.17.23-.41.32-.32ZM14.74,43.74c-.04-.57.4-.67.32-1.28.67.32.88,1.41-.32,1.28ZM25.29,46.29c-.16-.17.23-.41.32-.32.16.16-.23.41-.32.32ZM42.56,49.48c-.06-.69,1.13-.14,1.6-.32-.29.55-1.12.82-1.6.32ZM47.99,49.8c-.17-.16.23-.41.32-.32.17.16-.23.41-.32.32ZM51.19,50.09c-.66.32-2.01-.09-2.56.03.02-.6,2.56-.32,2.88-.32-.15.33-.27.35-.31.29ZM75.12,46.14c-3.25,1.49-6.73,2.42-10.22,3.12-.71.14-9.96,1.29-9.82.66,0,0,3.18-.53,3.47-.75-3.01-1.64-6.93-1.16-10.23-1.6.04-.22,3.79-.9,4.16-.96-.47-.87-1.25-1.3-2.24-1.28,1.25-1.5,6-.07,7.04,0,.19-.03.3-.14.32-.32.28-.06,1.31.38,1.6.32,3.05-.6,7.69.55,11.18-.32-2.43-3.13-9.14-2.01-12.47-1.92-5.32.15-10.53-1.05-15.89-.96-5.13.09-10.45.18-15.48,1.14-1.49.29-4.36,1.64-5.51.97-1.17-.69-3.53-2.27-1.59-3.49,6.55-4.1,14.2-3.66,21.53-5.62,5.43-.22,10.86-.92,16.14.61,4.56,1.32,10.42,1.24,15.18.99.18.03.31.06.43.09,2.68.53,5.52,1.55,6.92,4.06-.11,2.21-2.65,4.41-4.52,5.26ZM93.06,54.26c.02.83-6.44,2.75-8.28,3.13,1-.25-.64-.8-.44-.14-.66-1.32-.1-3.2-.23-4.58.17-.04,1.14,1.07,1.29,1.28,1.13.04,2.27-.01,3.39-.15,1.26-.16,4.53-1.72,4.26.47ZM85.41,53.94s-.01,0-.02,0c.06.06.05.04.02,0ZM51.19,50.09c.13-.07.25-.15.31-.29-.29,0-.36.21-.31.29ZM25.61,83.59c.18.77.65-.52,0,0h0ZM68.3,60.35c-.78.73-1.89,1.43-2.07,2.58-.29,1.87,1.36,1.96,2.52.99.95-.79,1.5-2.03,1.79-3.23-.3,1.08-.39-.8.14-.68-1.51-.34-1.05-.91-2.39.35ZM70.68,60c-.03.16-.06.32-.1.48.03-.13.06-.28.1-.48ZM45.69,80.14c-.04.08.19.11,1.02-.06-.41.08-.74.1-1.02.06ZM49.27,72.54c-.31-1.47-.82-3.25-2.04-4.13-.7-.5-2.22,1.4-2.69,1.86-.55.54-2.8,3.19-.67,2.6.02,0,.06,2.47.24,2.94.5,1.35-.31,4.08,1.58,4.34.08-.15,1.14-.5,1.02-.06.86-3.13,3.42-3.52,2.56-7.55ZM51.62,76.31c.19-.04.37-.06.53-.05-.25-.02-.42,0-.53.05ZM51.62,76.31c-1.76.35-4.72,2.62-3.55,4.01.97,1.14,3.59-2.49,4.02-3.85-.25.66-.98.04-.47-.16Z"/>
    </g>
  </g>
</svg>