<?xml version="1.0" encoding="UTF-8"?>
<svg id="Layer_2" data-name="Layer 2" xmlns="http://www.w3.org/2000/svg" viewBox="0 0 105.22 104.22">
  <defs>
    <style>
      .cls-1 {
        fill-rule: evenodd;
      }
    </style>
  </defs>
  <g id="food_icons" data-name="food icons">
    <g id="potato">
      <path class="cls-1" d="M105.22,72.05c-1.73-9.21-9.89-17.98-19.82-17.21,1.61-2.81,3.51-5.73,4.37-8.8.77-2.74,1.75-5.43,2.36-8.21,1.38-6.38,0-13.07-1.52-19.31-.46-1.88-2.25-5.63-2.01-7.34-1.35-2.38-3.04-4.09-4.47-6.38-2.87-1.34-5.4-3.08-8.48-3.97C72.39-.13,69.26,0,65.9,0,59.94,0,53.05,1.64,47.67,4.3c-5.45,2.69-9.76,6.63-14.14,10.77-4.29,4.07-8.6,7.78-12.13,12.54-1.79,2.41-3.39,4.96-4.4,7.79-.6,1.35-.29,3.04-.32,4.46-.92.67-1.92,1.2-3.04,1.44-2.21.47-1.94.21-3.05,2.28-.53.99-1.14,1.93-1.8,2.85-1.28,1.8-2.72,3.47-4,5.28-1.39,1.96-1.61,3.91-1.94,6.26-.33,2.38-.67,4.48-1.19,6.83-.56,2.54-1.37,5.6-.82,8.18C1.24,74.86.01,76.75,0,78.7c0,1.98.54,2.88,2.41,2.54,1.09-.2,1.52,3.19,1.8,4.09.74,2.41,1.45,3.77,3.46,5.48,1.74,1.47,3.4,3.06,5.16,4.52,4.3,3.13,8.12,6.04,13.43,6.85,4.87.74,9.99.35,14.73-.99,2.2-.62,3.96-1.53,5.89-2.74,1.99-1.25,3.39-2.3,5.34-.79,2.92,2.27,5.46,3.52,9.36,4.33,2.39.5,4.25.73,6.53,1.74,1.72.76,2.99-.12,4.82-.11,1.44-.3,3.04,1.5,4.18.02.85-1.11,3.02-1.44,4.27-1.86,4.04-1.37,7.72-3.69,11.62-5.39,4.51-1.97,8.3-6.61,10.45-10.86,2.29-4.54,1.65-8.61,1.77-13.46ZM30.1,24.55c-2.16,1.57-.04-.38,0,0,0-.01-1.49,2.5-1.91,3.45-.35.76-2.05,2.49-3.21,2.61,1.55-2.14,2.95-4.48,5.12-6.06ZM22.74,39.22c.75-1.62,3.04-2.63,2.45-4.54-.36-1.15.9-1.1.77.18-.22,2.18-2.3,3.97-3.22,4.36-.46.2.61-1.31,0,0ZM18.91,87.99c-.53.31-1.01.56-.96,1.27-.53-.85-.45-.96-.28-.76-.16-.86.13-1.81.33-2.62.06-.24.91-2.96.95-1.27.03,1.12-.03,2.26-.03,3.38ZM22.11,95c.14-.46.28.03.64,0-.08.4-.64.32-.64,0ZM23.38,93.09c-.16-.16.23-.41.32-.32.16.17-.23.41-.32.32ZM28.5,96.64c0,.2-.23.38-.96.27.36.05.68-.06.96-.27,0-.32-.62-.67-.88,0,.37-1.31,1.52-2.22,1.84-3.56.56.08.17,2.68-.96,3.55ZM40.96,95.32c.48-.9,1.66-1.11,2.88-1.28-.67.72-1.77,1-2.88,1.28ZM44.99,77.28c1.08,1.82.57,5.61.71,7.79.15,2.34.36,3.68,1.14,5.82,1.36,3.72-7.99,1.57-7.79,4.43-.08,0-1.66-1.26-1.68-1.33-.35-1.47-1.48-1.55-2.5-.43-2.81,3.06-3.55-2.35-2.86-4.62-1.65.38-5.95,3.56-5.44,5.42-1.74-1.23,1.52-4.51,2.18-5.37,1.42-1.85,2.54-3.9,3.26-6.11-1.3-.9-1.84,1.3-2.88,1.6-.39,1.04-1.14,1.86-1.6,2.87-.76.1-.32-.92-.96-.96-.95.81-1.07,4.67-2.55,4.78-.23-1.16.53-1.79.64-2.87-.69.22-3.18,2.85-3.21,2.62-.22-1.95,2.28-3.8,3.36-5.19,1.57-2.04,3.81-4.71,4.33-7.31-1.55.04-3.15,2.19-3.87,3.39-1.16,1.93-2.42,3.8-3.48,5.85-1.82-2.43.2-4.32,1.71-6.35,1.44-1.95,2.7-3.97,3.08-6.41-2.86.44-5.6,6.33-6.71,8.61-3.39-1.58,2.79-8.39,2.88-10.84-.21-.88-2.74,1.57-2.93,1.86-1.21,1.94-2.58,3.91-3.47,6.1-.37-.34-.48-.77-.32-1.27-.66.71-1.06,1.62-1.28,2.55-.7-.34.31-3.33.34-4.02.1-1.9,1.9-3.28,1.9-5.23-2.03.9-5.38,9.99-5.76,9.88-.07-.45.35-1.59.64-1.59-.11,0-.28-3.89,0,0-.23-3.3,1.11-6.32,1.28-9.57-2,2.03-2.48,5.11-3.52,7.65-1.71-1.4-.32-6.07.27-7.77.43-1.27,1.69-4.63,1.01-5.94-2.63,1.02-2.71,4.53-3.83,6.7-1.9-2.39,1.23-5.58,1.92-7.65.22-1.02-.44-1.19-1.12-1.64-1.06-.69.09-1.89.4-2.69,1.07-2.86,2.5-5.39,3.85-8.11,1.26-2.53,4.18-3.45,5.82-5.72.74.38.04,3.19,1.64,1.95,1.02-.79.78-2.47,1.24-3.54.93,1.05-.56,2.62-.32,3.83-.22.86.99.62.96,1.68-.04,1.12,1.4,2.42,1.6.77.17-1.37.92-1.34,1.28-2.44,1.28,2.14-1.02,4.61,0,6.7,2.04.27,1.36-2.38,1.92-3.51,0-2.49-1.37-4.66-.22-6.92.62-1.22,2.28-3.75.22-4.55.93-1.37,1.52-2.25.72-3.59-.54-.91,2.08-5.34,2.49-6.41.92-2.4,2.12-4.58,3.69-6.64.54-.72,1.07-1.45,1.29-2.35.35-1.49.76-1.51,1.94-2.53,3.37-2.9,6.53-6.28,10.35-8.58,2.37-1.43,4.51-2.69,7.22-3.24,2.4-.48,4.81-.96,7.14-1.73,4.79,0,10.34-.86,14.81,1.09,2.4,1.05,4,2.04,5.97,3.67.94.78,1.61,2.62,2.19,3.74,1.63,3.13,2.38,8.03,3.28,11.55.66,2.57,1.56,4.72,1.56,7.37,0,1.96-.38,4.01-.91,5.89-1.1,3.91-2.3,8.91-5.16,11.96-.73,1.49-1.42,3.01-2.23,4.46h-3.6c-2.06,0-3.92.64-5.99.64-1.86.85-4.23.68-6.21,1.06-2.12.41-4.16,1.12-6.11,2.03-2.13.99-4.15,2.18-6.22,3.28-1.9,1.08-2.7,2.78-3.64,4.54-.98,1.82-1.74,3.71-2.87,5.43-1.26,1.91-2.22,3.35-.97,5.46ZM73.89,95.54v.1s0-.06-.01-.09c-.06.06-.09.1-.07.11-.28.06.02-.4.07-.11,0,0,0,0,.01-.01v-1.49c1.67,0,.37,1.12,0,1.49ZM77.73,97.55c.42-.85.86-1.69,1.28-2.55.57.43.37,1.52,1.28,1.59-.33.94-1.81.78-2.56.96ZM87.32,93.73c0-.31.39-.25.64-.32,0,.31-.39.25-.64.32ZM100.75,79.7c-.42,2.37-1.86,4.25-2.82,6.39-1.01,2.23-3.79,3.33-5.49,5.08-.38.03-3.33-3.09-2.14-.18,1.13,2.77-1.27,1.46-2.87.95-1.38-.45-1.65,1.46-1.99,2.45-.52,1.5-1.32.45-1.96,1.56-.79-1.24.96-3.03.64-4.46-1.62.15-1.98,2.87-3.84,1.91.34-.93,3.2-4.9,1.53-5.13-1.23-.17-2.35,1.22-3.05,2.01-1.2,1.37-1.56,2.84-3.35,1.28-.82-.71-1.96-3.12-3.17-2.38-1.22.74-.67,2.51-.02,3.43.58.83-1.12,3.1-1.84,3.97-.68-.03-.96-2.17-1.68-.85-.04.08-1.13,3.27-1.71,1.96-.28-.62,1.26-1.51.82-2.29-.62-1.11-.78.04-.97-1.74-.21-1.93-1.61-3.27-2.21-5.05-.61.86-3.46,3.83-3.4,4.64-.16-1.86,1.08-4.12.84-6.23-.93,1.34-2.06,2.43-2.24,4.14-1.49,1.07-1.6-.09-1.6,2.23-1.7-.57,1.44-9.09.64-10.84-1.12,1.43-1.65,3.83-2.31,5.51-.16.41-.68,1.14-.9,1.55,0,.09,0,.19.02.28-.08.03-.1.01-.11-.03-.32-.31-.19-2.76.08-.23,0,0,0-.01.01-.02-.23-2.7-.06-5.33.33-8.01-1.49,0-2.78,3.69-2.88,4.78-.4-.04,1.25-7.98.97-7.82-.76.43-1.91,2.65-2.24,3.36-1.71-1.01,3.16-8.82,3.84-10.2,1.79-2.48-.3-2.96-1.79-.83-1.2,1.71-2.8,3.38-3.64,5.29-1.21-.73.07-5.25.19-6.26.24-1.96,2.86-5.28,4.51-6.37,4.15-2.74,8.19-3.37,12.94-4.31,1.49-.29,3.38-.24,4.73-.98,1.87-1.02,4.03-1.53,6.14-1.76,4.35-.48,8.23,1.09,12.41,1.18,1.05.93,2.17,1.77,3.52,2.23,1.03,1.1,2.04,2.22,2.97,3.42,1.66,2.14,3.42,4.71,3.45,7.48.03,2.96-.03,5.92-.34,8.87ZM17.95,89.26c-.02-.32-.17-.61-.28-.76.05.26.14.52.28.76ZM77.73,97.55c.94-.22.42-.85,0,0h0ZM85.4,54.84c1.85-.14,1.28-2.23,0,0h0ZM55.57,89.87s.07.05.11.03c0-.1-.02-.17-.03-.26-.05.1-.08.18-.08.23ZM51.11,28.67c1.91.62,5.27.42,7.44.34.68-.51,1.7-.71,1.92-1.66.41-1.77-1.97-.89-2.93-.83-2.68.17-5.52-2.27-7.93-3.24,2.35.95-.71,1.28,0,0-.87,1.57-.11,4.87,1.51,5.4ZM73.72,29.65c1-.96,2.09-1.09,3.36-1.59,1.92,1.93,6.42-1.17,6.07-3.51h-3.51c-.59-.27-.92-.86-1.51-1.12-1.11-.5-2.68.66-3.89,1.03-.08.04-.19.07-.36.1-2.65-4.06-4.52,1.67-3.49,4.19.57,1.41,2.12,2.06,3.32.9ZM73.89,24.55c.11-.02.24-.06.36-.1.58-.26-.84-.64-.36.1ZM87.51,29.12c-.09.02.16-.41.2-.4.34-1.81-2.04-4.87-3.6-3.64-2,1.57,1.35,5.9,3.4,4.04ZM87.64,29.02s-.08.07-.12.1c.02,0,.06-.03.12-.1ZM87.72,28.72c-.02.1-.04.2-.08.3.08-.21.1-.29.08-.3ZM38.17,40.55c-.88-1.92-3.76-1.57-5.07-3.14-.84-1.02-3.02-4.54-4.56-2.3-2.88,4.18,7.17,10.78,9.87,6.34-.34.56-.35-.68-.24-.9ZM38.17,40.55c.12.26.2.55.24.9-.09-.86-.18-1.02-.24-.9ZM29.4,44.26c.12-.09.24-.19.37-.26-.21.12-.32.2-.37.26ZM29.4,44.26c-1.35,1.02-1.93,2.95-1.23,4.52.97-.03,2.2-3.64,1.83-4.56-.2.14-.78.25-.6.05ZM29.78,44c.11.02.18.1.23.22.11-.08.11-.17-.23-.22ZM56.55,51.03c.13.11.26.21.4.3.51-.58-.86-.78-.4-.3ZM58.71,48.46c-1.96,0-.79,1.78-1.76,2.87-.2-.12-.33-.22-.4-.3-1.29-1.06-1.81-2.89-3.14-3.74-1.71-1.09-1.98,2.08-2.11,3.04-.38,2.64-.31,6.69,3.05,4.71.83-.49,3.6.87,4.78.88,1.04.01,1.27-.22,2.07.32.47.26.98.33,1.51.19.46-1.33.71-3.5,0-4.79-1.4-.4-1.43.73-2.56.96.08-1.33.25-4.14-1.44-4.14ZM36.81,56.43c-.04.39-.14.7-.27.97-.03.77.03,1.28.27-.97ZM36.76,56.28c-.83-1.94-8.36-4.34-6.39-.37.99,1.98,5.06,3.86,6.17,1.5.02-.58.1-1.3.21-1.13ZM16.41,57.42c.09.09.18.19.26.29-.11-.14-.19-.23-.26-.29ZM16.67,57.71c-.12,1.36-.9-.86-.26-.29-.77-.77-1.93-1.1-2.9-.43-1.1.77-.68,2.09-.67,3.25.02,1.55.76,3.38,1.91,4.48,1.64,1.57,4.73,1.56,3.25-1.35-.97-1.92-1.52-3.46-1.33-5.67ZM91.17,67.5c-.13-1.67-.81-4.71-3.18-3.7-.8.34-1.08,1.77-1.52-.25-.15-.67-.25-1.56-.89-1.88.6.42-.82,1.61-.51-.13-.3,1.68-.42,3.41-.3,5.1.18,2.45,1.12,1.94,3.18,2.55,1.14.56,1.35,1.8,2.88,1.59.6-1.01.43-2.17.33-3.28ZM93.07,68.23c.17,0,.32.11.46.27-.03-.13-.16-.26-.46-.27ZM93.07,68.23c.07,1.16-1.38,4.54.64,4.78.71-.23.63-3.53-.18-4.51.07.31-.4.66-.46-.27ZM60.7,71.73c.13,0,.26-.01.41,0-.19-.02-.32-.02-.41,0ZM61.11,71.73c.23.69-1.01.08-.41,0-3.61.01-1.83,5.36.01,6.81,1.96,1.54,2.17-1.17,1.51-2.41-.81-1.52-.58-2.8-1.12-4.39ZM75.49,72.05c.32.01.58.09.82.2.26-.05.25-.15-.82-.2ZM76.31,72.25c-.29.06-.92.04-.82-.2-.55,1.42-1.16,1.35-.73,3.28.22.98.6,1.9,1.04,2.79.61,1.21,2.72,4.95,4.49,2.54-.08-1.93-1.65-3.39-2.16-5.22-.34-1.21-.65-2.68-1.81-3.19ZM16.99,72.69c.46-.2-.04-.39,0,0h0ZM34.26,76.19c-2.19-.73-4.51-3.18-6.72-3.18.13,0-.04.2-.21.36-.49,1.32,1.22,4.05,2.45,4.11.63.03,1.14.74,1.6.96,1.07.5,2.36.59,3.52.64.74-.36,2.77-.49,1.93-1.61-.59-.78-1.7-.97-2.56-1.27ZM27.33,73.36c.05-.13.11-.26.21-.36-.71.73-.46.59-.21.36ZM91.47,86.71c1.59.1,2.08-.9,1.92-2.55-1.22-.97-3.06,1.15-1.92,2.55ZM85.08,92.14c.91.26.83-.45,1.6-.32-.2-.78-1.49-.05-1.6.32ZM85.08,92.14h-.64c.08.4.64.32.64,0Z"/>
    </g>
  </g>
</svg>