<?xml version="1.0" encoding="UTF-8"?>
<svg id="Layer_2" data-name="Layer 2" xmlns="http://www.w3.org/2000/svg" viewBox="0 0 83.97 97.51">
  <defs>
    <style>
      .cls-1 {
        fill-rule: evenodd;
      }
    </style>
  </defs>
  <g id="food_icons" data-name="food icons">
    <g id="preserves">
      <path class="cls-1" d="M83.01,30.34c-.73-1.7-2.38-3.16-2.93-4.88.3-1.94-1.01-2.29-1.91-3.51,2.52.22,5.24-.38,4.83-3.23-.4-2.73-7.84-1.55-9.82-1.55h-5.88c-.35-1.22-.86-2.56-2.08-3.16-3.9-1.92-.59,2.29-.55,2.93.02.34-10.57.23-11.63.23-1.63,0-4.02.72-4.58-.97-.26-.79-.76-2.95-1.94-2.41-.94.43-.92,1.77-1.29,2.59-.46,1.01-3.47.47-4.48.47h-11.16c.86-.86,1.77-1.78,2.18-2.95.43-1.21.02-2.65-1.35-1.42-.45.4-2.33,3.23-1.47,3.42-.14,1.16.88.96-1.32.96h-5.27c-.95,0-6.53.71-7.15-.32,1.29-.4,2.5-1.02,3.65-1.71,1-.61.75-1.54.82-2.75-1.36-.09.19-1.73-1.25-1.62-.34.03-1.51.33-1.63-.29.88-.36,1-.94.32-1.59,7.9-1.42,15.87-3.33,23.86-3.99,3.82-.32,7.47-.79,11.3-.79,1.97-.33,5.13,1.19,7.03.64,6.6-.04,12.28,1.9,15.35,7.97-.15,1.51.25,2.83.96,4.14,1.13.27,2.87.4,3.15-1.07.61-3.18-.62-7.1-3.07-9.21-2.73-2.35-5.19-4.28-8.79-4.98-1.87-.37-3.43-.68-5.36-.68-1.24,0-2.38.14-3.51-.32-1.51-.62-4.67,0-6.33,0h-5.68c-3.96,0-7.96.85-11.85,1.54-4.27.76-8.54,1.58-12.85,2.12-3.1.39-6.11,1.82-9.03,2.85-2.97,1.04-3.19,3.12-3.13,5.72.03,1.4,2.2,3.06,2.19,4.18,0-.36-6.67,1.15-7.37,2.09-1.54,2.08,1.91,4.58,3.54,2.85.8-.1.64-1.1,1.6-.96.88.05,1.75.09,2.62.14,2.2.11,4.41.21,6.62.29,4.05.15,8.11.24,12.16.26,15.56.09,31.09.59,46.69.59-.48,1.35-1.34,1.11-1.33,2.94,0,1.1.26,2.17.77,3.14.88,1.71,2.33,3.07,2.87,4.96.65,2.32-1.2,2.2-3.09,2.91-.99.37-2.32-.7-3.05.07-1.02-1.04-1.55-2.45-2.56-3.51-.85-.89-2.04-1.31-2.89-2.23-1.17-1.26-3.3-2.75-4.96-3.47-1.25-.54-2.78-.31-3.96.38-1.21.71-.66,2.9-.66,4.13,0,1.52.53,3.91,0,5.34-.77.32-3.1,1.78-3.61.84-1.4-2.55-2.17.83-3.1-.2.48-.59.72-2.68,0-3.19-.27.36-.77.88-.96,1.14,0,.05,0,.09,0,.14-.34.15-.18.02-.07-.02,0-.02.03-.07.07-.12,0-1.94.08-3.24-.64-5.28-.43-1.23-1.18-3.96-2.87-1.8-.6.76-.79,1.84-1.61,2.44-.79-.3-1.54-.71-2.32-1.03-2.78-1.13-3.55.31-5.99,1.03-1.87-.73-2.52-1.59-3.49,1.04-.5,1.38-2.42,3.2-4.09,3.26-2.02.07-.15-2.7-.41-3.67-1.08-1.17-1.95,1.7-2.56.96.47-.74.98-1.46,1.31-2.28.65-1.6-.37-.82-1.31-1.55-.38-.59-.81.3-.96-.32-.11-.8-.47-1.39-.32-2.23-1.33-.14-1.73,1.35-3.2.96-.84,1.76-2.74,2.44-4.25,3.41-1.56,1.01-2.88,2.36-4.66,3-1.75.63-2.82,2.01-4.83,2.51-.44-1.19,1.73-2.3-.4-2.84-.77-.19-2.22,1.42-2.79.61.82-1.2,2.04-2.03,3.2-2.87.15-.79.61-1.41,1.26-1.85,1.3-.89.14-.84.34-1.97.99.05,1.11-.88,1.28-1.59h-1.92c.51-.69,1.02-2.11-.32-2.23-1.56-1.2-3.04,1.44-3.54,2.52-.94,2.05-2.18,3.82-3.35,5.74-2.15,3.51-4.19,7.89,1.35,9.37.71.19,5.19-.2,5.22-.11.09,2.51,0,5.02-.03,7.53-.06,5.13.42,10.2.31,15.35-.12,5.53.37,11.04.37,16.58,0,2.29-.29,4.48-.32,6.77,1.07,1.82,2.19,3.4,4.22,4.26,9.66,4.1,19.16,6.58,29.69,6.58,5.07,0,9.99-.32,15-.32,2.39-.76,4.71-1.74,6.97-2.82,1.57-.76,3.66-2.24,5.5-1.96,8-4.93,6.78-18.17,7.12-26.1.22-5.14.41-10.33-.16-15.46-.23-2.11-.6-4.22-1.22-6.25-.35-1.14-.31-2.09-.31-3.29,0-1.72.49-1.17,1.83-1.9,1.6-.86,5.33-.81,5.88-2.68.68-2.32.29-4.27-.62-6.38ZM52.26,38.53c.17-.49.34-.02.32.32-.57.09-.66-.3-.32-.32ZM16.78,58.94c-.17-.17.23-.41.32-.32.17.17-.23.41-.32.32ZM16.06,54.71c-.46.03.63-3.68.72-4.07.25-.96-.47-.84-.64-1.59.11-.52,1.25-5,.51-5.11-.3-.04-.41.69-.71.65-.85-.12,1.01-4.13,1.12-4.29,1.23-1.75-.66-3.43-1.99-1.56-.42.59-1.23,3.34-1.58,1.21-.13-.77-1.67-.83-2.15-1.42,2.46-2.48,6.34-3.49,9.01-5.71,1.29-1.08.93,3.62,1.03,4.4.15,1.32.13,3.17,1.46,3.87,2.96,1.56,8.63-2.69,11.3-4.27,2.38-1.41,8.06-6.76,9.49-2.12-2.93-.28-4.7,4.3-1.78,5.49,2.87,1.16,5.38-1.9,1.14-2.3-.06-1.16,1.22-1.45,1.28-2.55,2.2,2.43,4.21,8.16,8.27,7.2,2.8-.67,7.48-1.83,9.37-4.29-.72.83.26-2.49.26-.36v-7.01c1.35-.29,5.78,4.48,6.63,5.56.96,1.22,1.51,2.39,2.84,3.32,1.12.79.9,2.8,1.06,4.31.17,1.58.56,2.1-1.25,2.13-1.29.02-2.58.02-3.87.01-2.18-.01-4.37-.05-6.55-.07-4.2-.04-8.42-.06-12.6.35-4.71,0-9.26-.13-13.9.8-1.34.27-2.95,1.16-3.22-.62-.26-1.74-2.34-1.34-3.52-1.07-3.48.81-6.21,2.73-4.66,6.46,1.52,3.64-4.3,1.15-5.07,3.36-.76-.09,0-1.37-.64-1.59-.84-.33-.79.85-1.36.88ZM22.86,88.26c0-.31.39-.25.64-.32,0,.31-.39.25-.64.32ZM27.65,87.31c.06-.36.32-.18.32,0-.06.36-.32.18-.32,0ZM49.07,87.31c-.3-1.15,1.26-.45,1.92-.64-.32.53-1.36.35-1.92.64ZM52.91,86.67c.7-.06,1.02.26.96.96-.3-.34-1.18-.1-.96-.96ZM72.34,80.68c-.4,2.4-.48,3.55-2.12,5.33-1.13,1.23-3.15,2.55-4.85,2.89-.64.05-1.23-.83-1.91-.96-.84-.18-1.6-.39-2.62-.25-1.38.18-2.71.57-4.1.58-.28-.85-.82-1.53-1.39-2.21-1.16-1.39-4.61-.88-6.18-.09-.91.45-1.7,1.73-2.68.56-.13-.16-1.16-1.48-1.3-.47-.16,1.15,1.49,1.65-.81,1.75-1.01.04-2-.2-2.98.13.19-1.42-1.36-1.05-1.92-1.91-.33.36-.44.79-.32,1.28-.75-.14-.18-1.76-.32-2.23-.16-.75-.76-1.12-1.28-1.59-1.89.49-3.16,2.19-5.11,2.55.51-.84.1-5.22-1.25-3.88-1.09,1.08-1.13,3.25-3.22,2.92.02-1.75,1.92-4.74,0-6.06-1.96-.2-2.02,1.56-3.2,2.55-.63-.55-.11-1.87-.96-2.23-.79-.19-1.12.51-1.92.32-.22-.39.49-5.32-1.53-2.48-.99,1.4-2.57.25-1.57-1.25.29-.43,1.19-.88.57-1.32-.18-.13-.21-.66-.01-.89-.09.1,2.66.52,2.86.52.89-.14,1.46-.71,1.6-1.59.59-.07,1.1-.31,1.54-.7,1.69-1.48,1.21-4.5-.47-5.91-1.79-1.5-4.36-1.43-5.92.18-2.97,3.07-1.21-4.95-1.23-5.69,1.07.75,4.95.79,4.15-1.47-.35-.98-2.56.16-2.23-1.4-.13-.5,4.33-1.68,4.98-1.82,2.54-.57,1.42-4.16.45-5.83.69,1.2.72-.8.13-.17.8-1.06,2.1-1.55,3.38-1.75-1.23,7.28-.93,14.8-.91,22.16,0,2.14-1.38,7.06.79,8.35,2.47,1.47,8.32.41,11.31.41.11,2.65.36,2.98,2.88,3.57,1.22.29,2.05-.12,3.19-.7.84.1,1.75.13,2.56-.18,2.35-.88,1.57-3.25-.96-1.73-1.73-.53-3.35.49-5.12.32.72-.48.55-.85.32-1.59,4.48-.21,8.94.33,13.42.32-.13,1.02.03,3.93,1.72,3.53,1.41-.34,2.22.21,3.68.28,1.36.06,2.93-.19,4.02-1.06.36-.29,1.49-2.1.81-2.42,1.02-.79,2.62-.67,3.83-.65,1.99.04,2.56-.25,2.18,1.99ZM21.58,72c-.89.74-.87.32-.53.09-.58-.45-.44-3.05-.38-3.39.33-1.87,3.13-.76,2.83,1.07-.79.19-2.24-1.05-2.55.34-.12.52-.01,1.69.64,1.89ZM58.99,80.09c.06-2.69,3.15.58,4.15.52-1.07.83-3.11.29-4.16-.32.75.44.09-.86,0-.21ZM64.48,79.17c.38-.21.78-.26,1.21-.15,0,.64-.49.64-.96.64.03.38-.47.2,0,0-.47.2-.69-.7,0,0-.09-.16-.17-.32-.26-.49ZM73.29,72.01c-.16,2.24-.22,2.21-2.4,2.56-1.09.17-2.17.34-3.27.46-5.59.61-11.41.16-17.04.16-6.11,0-12.4.81-18.49.17-2.09-.22-1.14-2.29-1.07-4.06.05-1.32.09-2.63.12-3.95.07-2.67.11-5.33.16-8,.05-3.11.09-6.23.17-9.34,2.27,0,6.74.87,8.78-.09.8-.38,3.21.1,4.31.12,2.36.02,4.71-.08,7.06-.34,6.13.58,12.3.29,18.44.3,2.35,0,2.77-.26,3.11,2.18.17,1.17.23,2.35.25,3.53.04,2.56-.08,5.12-.06,7.68.02,2.88.12,5.76-.08,8.64ZM61.92,38.25c.07-.08.15-.19.26-.36-.08.12-.17.24-.26.36ZM50.67,35.35s-.03-.03-.07-.02c0,.03,0,.04.07.02ZM21.05,72.1c.14.1.31.09.53-.09-.21-.06-.39,0-.53.09ZM51.63,49.69c-2.58.29,6.52.62,0,0h0ZM53.22,64.04c.27-.37-.56-.29,0,0h0ZM51.63,54.47c.02.17,0,.35-.05.54.06.06.11-.03.05-.54ZM51.2,57.85c-.9-.5.12-1.8.38-2.84-.12-.12-.3-.81.05-.54-1.54-1.22-2.2-.57-3.22.72-.97,1.21-1.91-.82-3.11-1.03-3.34-.6-.59,3.04-.38,4.14-1.23.07-3.36-.02-3.56,1.64-.27,2.29,2.77.8,3.88.59-.14.75-.71,1.19-1.04,1.83-.53.99.19.7.12,1.64-.12,1.66.83,3.85,2.07,4.95,1.47,1.3,3.64,3.49,5.7,3.46,1.55-.02,3.63-.77,3.99-2.35.95-4.15.21-6.76-1.25-10.49-1.16-.88-2.36-1.02-3.63-1.72ZM48.75,66.27c-.64-.67-.1-1.97,1.28-1.59-.2.76-.43,1.48-1.28,1.59ZM50.03,62.12c0-.31.39-.25.64-.32,0,.31-.39.25-.64.32ZM53.22,64.04c-.68-.35-1.09-.76-.96-1.59,1.34,0,1.88.33.96,1.59ZM52.91,65.95c-.14.46-.28-.03-.64,0,.08-.4.64-.32.64,0ZM53.86,69.45c-1,.15-1.42-.28-1.28-1.27,1.03-.87,1.92.33,1.28,1.27ZM72.08,63.4c-.74-.21-.91.44-1.6.32-.48-1.13-.46-1.81-1.71-1.9-1.06-.08-1.54-2.99-2.46-3.88-3.6-3.48-3.88,2.95-5.35,3.5-1.76.67-1.12,6.86,1.21,6.74,3.05-1.06.83-7.05,2.56-7.65.58,1.2.26,2.71.4,3.98.23,2.1,1.19,1.35,2.75,1.8,2.28.66,4.23.31,4.22-2.25-.09.7-.78-.88-.02-.66ZM72.08,63.4c.02.15.03.29.03.43,0-.12-.01-.25-.03-.43ZM57.7,86.03c-.51.48-.47,1.82.64,1.59.51-.48.47-1.82-.64-1.59Z"/>
    </g>
  </g>
</svg>