<?xml version="1.0" encoding="UTF-8"?>
<svg id="Layer_2" data-name="Layer 2" xmlns="http://www.w3.org/2000/svg" viewBox="0 0 115.81 77.92">
  <defs>
    <style>
      .cls-1 {
        fill-rule: evenodd;
      }
    </style>
  </defs>
  <g id="food_icons" data-name="food icons">
    <g id="pretzel">
      <path class="cls-1" d="M54.72,14.97c-.19,0-.38-.02-.57-.04.12.02.3.04.57.04ZM54.72,14.97c0-.05-.01-.09-.04-.13,0,.07.01.13.04.13ZM108.73,15.59s-.02-.03-.03-.04c0,0,0,0,0,0,.01.01.02.03.03.04ZM115.72,29.12c-1.36-1.2-1.16-1.18-1.15-3.36.06-10.54-4.47-18.65-14.84-21.94-9.6-3.04-19.6-1.12-28.74,2.4-4.62,1.78-8.64,3.67-12.62,6.63-1.94,1.44-4.45,2.52-6.01,4.32-1.57,1.81-3.36,3.42-5.13,5.04-7,6.38-13.33,14.42-17.87,22.71-1.18,2.16-1.96,1.67-3.77-.03-1.71-1.59-3.05-3.54-4.11-5.6-2.05-4.01-3.44-8.81-2.84-13.34,1.3-10.01,13.51-12.36,20.32-5.92,3.24,3.07,7.03.14,3.77-3.12-2.08-2.08-5.26-3.91-8.08-4.73-3.88-1.12-10.74-.68-14.16,1.58-3.25,2.15-5.48,6-6.32,9.74-1.84,8.22,1.49,17.49,7.06,23.6,2.1,2.3,6.76,5.79,9.34,2.04,2.67-3.89,5.19-8.15,7.69-12.18,1.5-2.42,3.69-4.28,5.49-6.46,1.3-1.57,2.46-3.36,4.14-4.58,2.94-2.13,4.59-6.08,8.1-7.44.2.97,1.52,2.65,2.12.9.29-.85-.12-1.77-.52-2.49.66-.46,1.33-.91,2.01-1.34,3.5-2.24,7.24-4.11,11.09-5.67-.08.97-.32,2.68.88,3.1.81.28,2.08-.24,2.02-1.2-.05-.78-.37-1.54-.39-2.32-.02-.57,2.92-1.24,3.42-1.39,3.89-1.13,7.93-1.7,11.97-1.7.57.1,1.96-.47,2.27.29.41.97-.78,1.03-1.39.92-1.32-.24-2.83-1.64-3.41.49-.31,1.12.35,1.99,1.41,2.31,1.96.6,4.42.04,5.21-1.95,2.02-5.04,10.31,1.22,13.03,3.32,1.47,1.13,2.39,2.44,3,3.86,0,0,0,0,0,0v.02s0,.05,0,.08c0,.01,0,.02.01.03,0-.04,0-.07-.01-.11,1.18,2.74,1.19,5.92,1.57,9.12.56,4.77,1.09,9.26-.13,13.98-1.25,4.8-4.27,8.37-6.57,12.67-.95,1.77-2.05,4.88-3.8,6.02-.61.39-1.34.31-1.97.64-.94.49-1.62,1.52-2.49,2.14-4.22,3.03-8.36,5.48-13.24,7.29-3.37,1.25-7.17,1.27-10.7,1.76-2.41.33-7.22,1.61-9.3-.22-.55-.48-1.77-2.57-2.75-1.68-.52.47-.34,1.34-.5,1.93-.28,1.08-2.25.54-3.06.54-3.1,0-4.39-3.81-7.36-4.37-.93-.17-2.03,1.42-2.01,2.2.08,2.38-4.2,1.26-4.45-.61-.11-.77-.71-4.62-2.24-2.84-.39.46-.79,3.46-.53,3.52-1.23-.27-1.81-2.08-2.23-3.03-.75-1.71-2.2-2.86-3.46-4.17-1.3-1.34-3.67-1.63-3.4,1.02-1.12.68.55,2.56-.63,3.19-1.56-.17-1.41-2.13-1.92-3.19-.04-2.15-1.65-3.71-3.27-4.86-1.38-.98-5.14-5.04-6.38-3.02-2.67,4.38-1.92-1.72-3.78-3.6v2.87c-2.12-1.78-3.57-3.61-3.34-6.51.23-2.93-1.43-1.02-2.42.14-3.94-5.3-6.71-11.93-6.71-18.6,0-1.67.32-3.32.32-4.99.69-1.3,1.44-2.57,2.02-3.94,1.12-2.7,3.4-4.76,4.37-7.54.72.9,2.4,2.03,3.02.37.56-1.49-.88-1.38-1.43-2.32-.92-1.57,4.19-3.18,5.13-3.47.03,1.49,1.57,4.13,3.21,2.47,1.22-1.24-.47-3.86,1.09-4.51,1.43-.58,3.69-1.97,5.14-.7,1.47,1.29,1.58,1.94,3.79,1.87,4.45-.13,10.07.88,14.02,2.95,3.68,1.93,7.49,6.44,11.81,6.82-.65-.11.33-.43.53-.09,0-.18.04-.42.04.13,0-1.09.87-.97.36-2.22-.35-.83-.92-1.53-1.55-2.16-1.62-1.64-3.17-3.19-5.11-4.46-3.82-2.48-8.22-4.94-12.87-5.21-4.51-.27-8.77-1.28-13.32-.78-3.93.43-8.67,3.28-11.75,5.66-1.84,1.42-3.12,3.13-4.38,5.05-1.26,1.91-2.98,3.45-4,5.52C-.17,20.96-.27,26.23.28,31.21c.53,4.83,1.49,9.69,3.27,14.23,1.76,4.46,4.85,7.95,7.29,12.02,4.43,7.41,12.83,12.43,20.68,15.5,9.9,3.88,21.1,2.11,31.27,4.47,9.65,2.24,21.44-3.82,29.67-8.22,8.9-4.75,15.26-12.27,19.31-21.54,2.19-5,1.55-9.85,2.56-15.01.13-.64,1.89-3.11,1.4-3.54ZM21.47,57.05c1.62,1.26,2.65,3.1,3.2,5.42-1.99-.88-3.14-2.61-3.2-5.42ZM33.94,66.3c-.84-.33-1.05-1.29-.96-2.55.49.66,1.5,1.85.96,2.55ZM49.92,69.48c-.16-.16.23-.41.33-.32.16.16-.24.41-.33.32ZM108.73,15.6s0,0,0,0c0,0,0,0,0,0,0,0,0,0,0,0ZM23.13,8.02c-.59.62-1.05,3.01.11,3.34,2.32.65,3.97-.68,3.36-2.53-.2-.08-.68-.54-.81-.86-.08-.04-.14-.08-.17-.13-.72-.15-2.05-.26-2.49.19ZM25.95,7.64c-.33.02-.39.1-.33.19.05.01.09.02.14.03-.02-.12.02-.21.19-.22ZM25.95,7.64c.32.41.53.81.65,1.18.19.08.14-.18-.65-1.18ZM26.09,8.01s-.1-.09-.34-.15c0,.03.02.06.03.1.12.06.26.09.31.05ZM84.27,12.57c-.65-1.37-2.9-1.97-3.16.09-.37,3.01,2.62.74,3.34.72-.23,0-.24-.49-.18-.81ZM84.45,13.38c0-.25-.04-.48-.13-.7-.03.31,0,.7.13.7ZM84.43,12.52c.02.16.03.43.02.86.04-.29.03-.57-.02-.86ZM84.27,12.57s.04.07.05.11c.01-.17.04-.3.07-.34-.04-.06-.09.05-.12.23ZM84.4,12.32s-.01.02-.02.02c.01.02.03.06.04.13,0-.05,0-.1-.02-.15ZM100.43,14.97c1.24-.76.44-2.87-.32-3.51-4.33-.86-1.9,4.84.32,3.51ZM12.75,16.9s.06,0,.09,0c-.01,0-.02,0-.03,0-.02,0-.04,0-.06,0ZM13.49,13.33c-.97-.06-1.87,1.59-1.89,2.39-.02.39.78.79.92,1.16-.35-.89.54-.28.41-.06.04.02.05.05.05.06,2.1-.11,3-3.41.51-3.56ZM12.98,16.9s0,0,0-.01c-.04,0-.09,0-.13,0,.04,0,.09,0,.13,0ZM12.52,16.88c.1,0,.19,0,.29,0,.06-.01.1-.03.12-.07-.14-.1-.52-.23-.41.06ZM48.79,15.42s0-.08,0-.12c-.04-.2-.05-.43.06-.41-.06-.11-.2-.24-.48-.38-.59-.32-1.27-.27-1.84.04-1.11.58-2,2.07-1.54,3.32,1.14,3.12,3.38-.02,3.88-2.07-.1-.14-.11-.25-.08-.37ZM48.9,15.84s-.02-.04-.03-.06c0,0,0,0,0,0,.01.02.02.03.03.05ZM48.97,14.97c-.05-.06-.09-.08-.12-.08.01.02,0,.04.02.05.03-.02.06-.02.11.03ZM48.86,14.94c-.06.04-.08.18-.08.35,0,.03.01.05.02.08.05-.14.11-.28.06-.43ZM48.97,14.97c0,.18-.02.38-.06.6.05,0,.08-.14.06-.6ZM48.8,15.37s0,.03-.01.05c.01.14.04.28.08.36.02-.07.03-.14.04-.21-.03,0-.07-.09-.11-.2ZM65.88,15.68s.02-.03.04-.04c0-.12,0-.24,0-.35-.06-.06-.11-.09-.15-.13-.04-.02-.07-.04-.11-.06-.06-.01-.08.02-.08.08.05.19.26.54.32.49ZM65.91,15.7s.01-.04.01-.07c0,0,0,0,0,0,0,.02,0,.04,0,.06ZM65.93,15.63c.18-.18.08-.34-.17-.47.04.03.09.07.15.13.02.16.02.27.02.34ZM65.91,15.7c-.07.23-.36-.3-.35-.51-.01-.05-.01-.09,0-.11-.6-.24-1.59-.36-1.74-.33-1.61.35-1.06,1.82-.84,2.97.53,2.7,2.77-.19,2.93-2.02ZM65.76,15.16s0,0,0,0c0,0,0,0,0,0,0,0,0,0,0,0ZM65.76,15.16c-.1-.08-.16-.1-.19-.08.02,0,.05.02.07.03.03,0,.07.02.11.06ZM45.56,45.27c-1.49.54-2.11,2.01-3.63,2.52-1.09.36-1.16,4.51-1.92,5.76-.43-.84,0-4.93-1.27-5.03-2.42-.2-1.87,5.94-.65,6.94-.09-.38.02-.71.32-.96-.01,1.21,1.85,1.65,1.65,2.69-.24,1.24-1.77,2.54-.33,3.77,2.93,2.52,7.37,2.51,11.01,2.45,4.93-.08,10.38.26,15.16-.91,4.54-1.12,9.06-2.43,13.43-4.11,7.43-2.86,14.94-7.18,19.17-14.16,4.12-6.79,3.32-15.49,1.61-22.89,1.49.35,1.9-1.46,1.44-2.56-.09-.04-.59-.61-.45-.54,0-.09.09-.02.29.23.09.13.14.21.16.26-.31-1.46-2.27.04-2.72.38-5.65-8.19-16.83-3.62-23.8,0-5.13,2.67-9.77,5.96-14.18,9.7-4.49,3.81-7.56,8.7-11.89,12.61-.1-2.29-2.69-1-2.53.9.12,1.4.88,2.3-.87,2.93ZM46.91,52.76c3.07-3.56,6.29-7.14,8.97-11.01.63-.91,1.72-2.93,3.04-2.91,1.52.01,3.59,2.88,4.46,3.91,1.39,1.65,2.71,3.42,3.78,5.3,1.01,1.76,1.3,3.83,2.26,5.57.48.87,1.81,2.14,2.92,1.72,1.42-.52.56-3.44.29-4.41-1.13-4.13-3.97-7.75-6.96-10.73-1.42-1.41-2.94-2.71-4.56-3.87.89-1.38,2.13-2.64,3.5-3.57.82-.55,4.05-3.14,4.94-2.93,1.61.39,3.4,2.71,4.4,3.91,2.95,3.56,5.45,7.81,7.97,11.69.79,1.22,1.5,3.47,3.13,3.8,2.01.41,3.01-1.75,2.2-3.32-.74-1.44-2.19-1.73-.72-2.8,1-.73.51-3.02-.33-3.62-1.21-.87-2.78-.21-3.94-1.04-1.06-.75-2.32-2.12-2.52-3.46-.19-1.26.8-2.67-1.08-3.05-1.38-.28-1.24.21-2.3-.98-.77-.87-1.66-1.64-2.59-2.34-3.48-2.58,1.16-3.09,3.48-4.01,1.9-.76,4.48-1.65,5.88-3.24.38-.44-1.01-1.05-1.24-1.3.55-.5,4.4-1.68,4.96-1.19.94.82.36,1.32,2.07,1.19,1.2-.09,1.06-1.08,1.96-1.39,1.29-.45,3.2.99,4,1.82,2.99,3.06,2.45,7.62,2.4,11.51-.04,3.61-.32,7.59-2.51,10.62-9.22,12.74-27.56,16.46-42.53,16.62-.13,0-.28,0-.47.01-.56.37-5.51-.49-5.97-.6-4.18-.92-.58-3.96,1.11-5.92ZM101.55,18.79s0-.02,0-.04c0,0-.02-.02-.03-.03.01.02.02.05.03.07ZM50.72,59.09c.38.01,1.16.05,1.12.15,0,.02-.03.03-.05.04.15,0,.31,0,.46,0,1.62-.07-1.24-.31-1.53-.18ZM51.21,59.28c-.16-.02-.31-.08-.46-.14.07.03.21.08.46.14ZM101.53,18.72c-.04-.09-.08-.17-.13-.24-.16-.15-.25-.21-.29-.23,0,.02,0,.03,0,.06.04.07.33.32.42.42ZM101.56,18.76s0-.01,0-.02c0,.01,0,0,0,.01,0,0,0,0,0,0ZM50.72,59.09c-.12,0-.2,0-.2,0,.07.03.15.04.23.07-.05-.03-.06-.05-.02-.06ZM51.21,59.28c.22,0,.41,0,.58,0,0,0,0,0,0,0-.19,0-.39,0-.58,0ZM108.55,15.45s.04-.03.1.04c.01.02.03.04.05.07-.51-1.1-3.26-.67-2.74,1.24.54,2.01,2.43.88,2.75-.57-.09-.16-.22-.69-.15-.78ZM108.77,15.9c0,.06,0,.13,0,.2,0,.03-.02,0-.04-.03,0,.05-.01.11-.02.16.06.1.1.06.06-.33ZM108.65,15.48c-.05-.05-.08-.06-.1-.04-.02.11.11.5.18.62.02-.12.02-.25.01-.37-.01-.05-.02-.1-.04-.14-.02-.03-.04-.05-.05-.07ZM6.5,20.84s0,.06,0,.09c.02,0,.03-.03.02-.15,0,.03,0,.04-.01.07,0,0-.01-.01-.01-.01ZM4.14,22.02c-1.09.3-1.58,1.88-.8,2.72,2.18,2.37,3.21-1.92,3.17-3.81-.05-.01-.14-.23-.15-.39.02.13.11.28.14.3,0-.17-.02-.33-.05-.45.04.18.06.31.07.39.31-1.46-2.38,1.24-2.38,1.24ZM10.61,20.71c-1.2.52-1.54,4.1.32,4.14,2.38.52,2.33-5.03-.32-4.14ZM107.55,23.32s-.04.03-.06.05c.03.01.05.03.1.05.09,0,.06-.04-.04-.1ZM107.49,23.38c-.06-.03-.06-.06,0-.08-.35-.18-1.25-.48-1.56-.37-.9.34-.85,1.99-.53,2.66.42.86,1.85.72,2.23-.11.31-.68.05-1.51.15-2.23-.16,1.1-.56.42-.3.12ZM107.79,23.26c-.15,0-.24.02-.29.04.02,0,.04.02.06.03.06-.04.13-.06.23-.07ZM57.05,28.02c.17.07.35-.01.51-.18-.05-.04-.13-.06-.23-.06-.2.06-.4.2-.29.24ZM57.6,28.04c-.32.02-.63,0-.9-.07-.02.07.2.12.9.07ZM57.6,28.04c.06-.13.04-.2,0-.25-.01.01-.02.03-.04.04.05.04.08.1.04.2ZM57,24.59c-2.9.22-2.34,2.89-.3,3.38.02-.09.38-.2.64-.19.11-.03.21-.03.26.02.71-.81,1.11-3.34-.6-3.2ZM7.84,29.19s.03.05.05.08c.07-.4-.17-.51-.52-.47.08.04.19.1.36.2.08.1.11.16.11.19ZM7.84,29.19c-.04-.06-.07-.13-.11-.19-.13-.06-.25-.13-.38-.19-.02,0-.03,0-.05.01.03.04.1.12.18.2.18.14.38.26.36.17ZM7.89,29.27s0,0,0,.01c-.02.09-.24-.09-.41-.26-.09-.07-.17-.14-.22-.19-.59.11-1.38.56-1.52.79-.43.69-.6,1.66-.26,2.42.88,1.95,3.36-.93,2.41-2.77ZM7.29,28.78s.04.02.06.03c0,0,.02,0,.02,0-.17-.08-.17-.05-.11.03.01,0,.03,0,.04,0-.02-.03-.03-.04,0-.04ZM105.23,33.78c.42-.42.42-1.19-.32-1.27-.41.42-.42,1.19.32,1.27ZM71.34,32.82c-1.72.25-2.54,2.77-1.28,4.14,3.28.97,3.73-3.88,1.28-4.14Z"/>
    </g>
  </g>
</svg>