<?xml version="1.0" encoding="UTF-8"?>
<svg id="Layer_2" data-name="Layer 2" xmlns="http://www.w3.org/2000/svg" viewBox="0 0 108.35 101.13">
  <defs>
    <style>
      .cls-1 {
        fill-rule: evenodd;
      }
    </style>
  </defs>
  <g id="food_icons" data-name="food icons">
    <g id="pumpkin">
      <path class="cls-1" d="M5.68,48.46c0-.09,0-.14,0-.18,0,.09,0,.16,0,.18ZM108,47.45c-.07-2.51-1.2-5.07-1.92-7.47-.74-2.45-1.31-4.74-3.02-6.7-1.56-1.79-2.64-3.25-3.85-5.21-4.25-6.83-11.7-12.38-19.69-14.12-4.71-1.03-10.94-1.02-15.39.99-1.81.81-3.77,2.15-5.64,2.66-1.29.35-2.84.79-3.9,1.59-2.29,1.71-2.3-2.95-2.53-4.34-.35-2.13-.32-4.94-1.4-6.84-.49-.85-1.15-1.58-1.53-2.49-.32-.77-.14-1.73-.73-2.36-.77-.82-1.63-2.11-2.12-3.15C46.65.8,45.32,0,46.28,0,44.48,0,43.29-.02,41.71.78c-.74.37-3.6,1.09-3.74,2.09-.26-.06-.84-.86-1.15-.61-.72.6,3.74,8.51,4.17,9.71,1.15,3.25,2.1,6.57,2.42,10.02-5.35-2.14-10.25-4.94-16.23-4.34-4.65.47-9.54,2.09-12.64,5.5C8.05,30.27,2.54,39.6.89,49.1c-1.94,11.14-.98,25.04,5.73,34.62,3.04,4.34,6.29,8.18,10.85,11.01,4.85,3.02,10.7,2.92,16.16,2.81,2.95-.06,5.63-.75,8.53-1.33,2.08-.42,4.92-3.44,6.68-2.16,2.98,2.18,4.97,5.29,8.61,6.34,2.39.69,4.9.86,7.38.67,2.08-.6,3.5-1.79,5.72-1.91,3.24-.17,6.92-1.12,9.82-1.93,3.71-1.04,7.11-2.5,10.2-4.71,3.03-2.17,7.54-5.36,9.25-8.68,2.21-4.3,5.04-7.61,6.53-12.3,1.49-4.73,2.05-10.76,2.01-15.72-.02-2.79-.27-5.57-.35-8.36ZM50.44,25.5c-.06-.22-.04-.3,0-.33.3-.95,3.62.33,0,.33ZM52.04,29.01c-.06.36-.33.18-.32,0,.06-.36.32-.18.32,0ZM46.84,7.38c1.29.04.46.36,1.18,1.21,1.49,1.76,1.17,5.07,1.78,7.36-.09,2.04,1.77,4.07,1.28,6.06-.64.91-2.64-.96-2.55.96-.77-.25-.21-1.89-.32-2.5-.12-.28-1.23-3.85,0-.05-1.33-4.13-1.3-9.26-4.16-12.75.54-.71,2.07-.3,2.79-.28ZM41.19,4.79c-.65.2-.94,1-1.62.31-.39-1.81,3.41-1.43,4.16-2.55,1.51,0,1.68,1.06,2.24,2.23-1.37,0-3.47-.4-4.77,0ZM5.68,48.28c-.02-.54-.07-2.13.18-2.07.49.11.03,3.55-.03,3.53-.26-.06-.19-1.11-.14-1.29-.08.33-.03-.36,0-.18ZM15.27,73.32c-1,1.38-1.99,2.72-2.24,4.46-1.46-1.7-.46-4.99-.64-7.01.39.46.6.99.64,1.59.71-.52-.04-1.97-.27-2.7-.01-.01-.03-.06-.05-.17v-3.19c.42.12.85.23,1.28.32-.54,1.18-.45,2.76,1.28,2.23-.69,1.08-3.04,4.71,0,4.46ZM16.23,79.06c-1-1.24.41-2.81.32-4.14.26-.9-.61-1.02-.64-1.73.08.42.83-.19.65-.32-.19,0-.4.03-.65.13.4-.16.59-.18.65-.13.87-.01,1.27.81,2.23,1.09-.9,1.68-2.02,3.25-2.56,5.1ZM46.28,90.86c-.16-.16.23-.41.32-.32.17.17-.23.41-.32.32ZM52.76,92.26c.13.08.31.15.55.19-.3-.05-.47-.12-.55-.19-.85-.54.35-1.9.19-2.43.23.44.4,1.84.38,2.42-.04-.51-.87-.24-.57.01ZM65.14,97.23c-.17-.17.23-.41.32-.32.16.17-.23.41-.32.32ZM67.06,95c-.17-.17.23-.41.32-.32.17.16-.23.41-.32.32ZM105.04,60.35c-.8,6.75-1.28,12.44-5.23,18.22-1.09,1.6-1.89,3.52-3.3,4.81-1.21,1.1-2.38,2.24-3.5,3.43-.56.59-1.11,1.2-1.66,1.81-.57-.08-1.09.04-1.55.36-.53.4-.87,1.41-1.53,1.52-.06.11-.11.15-.12.02.04,0,.08-.02.12-.02.16-.3.44-1.2.52-1.57-.92-.21-2.24,1.16-2.85,1.71-1.5,1.34-2.02,2.57-3.87,3.39-.72.32-3.53,2.62-4.66,1.5.58.58,3.29-5.89,1.03-3.46-.68.73-1.93,1-2.58,1.83-.84,1.08-1.56,1.91-3.07,1.72.79-1.68,2.32-2.83,2.56-4.78,1.57-.94,1.28-2.93,1.28-4.46,2.72-3.38,3.59-7.89,3.84-12.11-.96.96-1.04,2.57-1.28,3.82-1.22-.01-2.25.44-3.13,1.25-.68.63-2.17,1.45-1.24,2.36.82.81,2.22.37,3.08-.1-.71,1.84-1.94,4.3-3.51,5.42-1.09.77-2.5,2.45-2.88,3.83-.57.62-3.27.61-1.12,1.76,1.87,1.01-2.19,1.7-2.71,1.75.17-.3.28-.62.32-.96-1.22.68-2.66.88-4.01,1.1-1.67.27-1.98-1-3.18-2.05-2.1-1.82-1.53,2.09-2.07,3.18-1.22-2.26-.78-5.36-2.56-7.33-.91.23.19,1.91-.64,2.23-1.05-1.32-.6-3.3-1.28-4.78-1.39.04-1.11,1.97-1.28,2.87-.58-.11-.59-.71-1.34-.88-.47-.11-.92-.79-1.41-.72-1.28.16-.66-.91-1.72-.95-1.53.24-2.45,1.39-3.69,2.16-1.8,1.11.31,2.32-.78,3.57-1.28-1.21-2.63-.52-3.25-2.26-.35-.96-.67-1.96-1.22-2.84-.5.06-.25,1.06-.89,1.34-.33.2-.46.5-.39.89-1.16-1.03-3.2-4.87-3.2-6.21,0-1.25-.13-2.13-1.55-2.24-1.87-.14-1.32-.97-1.32-2.7-2.19,0-.26,5.72-.13,6.71.3,2.24.6,7.59,3.96,6.36-.05,1.41-2.44.61-2.24,2.23-1.11-.46-2.12-2.04-3.36-.8-.65.65-1.02,1.27-2.08,1.12-.12-.75,1.86-3.6.52-3.83-1.35-.23-2,1.41-3.07-.38-.58-.97-.09-2.57-.4-3.81-.54-2.14-2.25-.06-2.48,1.01-1.33-.96.07-3.25-1.01-4.48-1.49-1.71-.38-3.37-.13-5.52.22-1.87-.27-3.33-2.37-3.07.03-3.05-1.56-2.1-3.52-2.23.17-1.8,2.79-4.87-.32-4.46.5-2.26,2.57-3.72,2.88-6.06-1.85.2-1.97,2.2-3.2,3.19-1.02-1.04,1.88-2.2.64-3.5-.77-.04-2.15,3.08-2.23,2.87-1.54.81-.04-7.14,0-7.97.35.22.45.54.32.96,1.1-.96.76-3.79,1.03-5.14.33-1.71.53-3.52,1.36-4.99.36-.64.48-1.53,1.12-1.99-.21-.64-.24-1.29-.09-1.95.36-1.51,1.55-2.63,2.01-4.1.35.22.46.54.32.96,2.98-3.17,5.17-6.48,9-8.71,1.75-1.01,3.57-1.9,5.39-2.77,1.02.21,2.77.76,3.51-.32-.36-1.14-3.09-1.28-3.94-1.28-2.32,0-3.71.25-5.71,1.45-2.7,1.61-4.95,3.82-6.89,6.26-1.09,1.36-2.09,2.79-3.07,4.24-.97,1.44-1.12,2.78-1.91,4.26-1.55,2.9-2.21,6.82-3.01,10.01-.8,3.17-1.68,6.55-1.68,9.8,0,1.95-.88,2.63-1.92,4.14-.08,1.4-.48,2.72-.32,4.14-2.03-3.05-2.97-7.65-1.98-11.11.97-3.37,2.79-6.34,2.94-9.93-2.21.19-4.17,3.74-4.16,5.74-1.48-.94,3.2-7.6,3.88-8.89.28-.53,1.99-5.55.79-4.23-.16.18-.55.43-.79.59-.01.03-.02.06-.04.1-.2.08-.18.05-.05-.04-.07-.46,1.89-4.67.56-1.24,1.21-3.06,2.4-6.14,4.04-9,.88-1.53,1.91-2.99,3.15-4.26.03-.03,2.9-3.12,1.25-2.99,3.58-2.58,8.73-3.93,13.08-2.94,2.3.53,4.5,1.37,6.63,2.38,1,.48,2,.99,2.99,1.51.79.19,1.18-.32,1.92-.32-.06,1.83.75,4.52-1.36,4.9-1.77.32-3.15,1.37-4.63,2.32-1.96,1.26-3.4,3-4.99,4.68-1.41,1.49-1.96,3.58-3.09,5.32-.17,2.2-.96,4.15-.96,6.38.06,1.59,1.6,2.92.64,4.53-.38.63-1.39,2.46-.11,2.46.76,0,.93,1.27,2.02.98-.5,1.6-.2,3.33-.64,4.94-.35,1.3.05,1.37,1.28,1.12.09.84-1.76,3.4-.09,3.8.78.19,1.06.89,1.04,1.93.51-.17,1.33.92,1.6,0,.28.36,1.74,4.33,2.78,2.14.34-.72.3-2.9,0-3.64-.45-1.13.22-2.59-.52-3.62-.69-.95-1.1-.56-.99-1.98.12-1.73,1.19-3.59.64-5.33-.96.76-1.16,2.12-1.6,3.19-1.24-.79.82-6.89,1.07-8.07.31-1.44.54-2.89.53-4.37-.47-.13-1.01-1.92-1.6-.96-.61-.69.32-1.38.67-1.9.64-.96-.3-1.2,1.07-1.3,1.55-.12-.53-2.01-1.74-1.89,1.48-2.29,3.24-4.43,5.48-6.01,1.63-1.15,4.85-1.61,4.43-4.19.46-.07,3.13.83,3.2,1.28,1.23-.2,2.3.47,3.52.32,3.65-.68,3.98-2.69,3.84-6.06.12-.81-.96-1.78-.96-2.87,0-1.87,1.17-2.09,2.83-2.69,2.8-1.02,5.5-2.06,8.22-3.27,5.58-2.48,13.83-1.26,19.18,1.31,2.5,1.2,4.21,3.52,5.8,6.01,1.13,1.78,1.95,5.3,3.92,6.29,1.39-1.4-.03-3.56-.32-5.1,1.18,1.19,1.8,2.78,3.07,3.76,1.06.81,1.95,1.8,3,2.61,1.16,2.88,3.1,5.12,3.94,8.19.96,3.49.68,6.93,1.32,10.47.57,3.14.49,5.99.11,9.17ZM20.07,37.3c.16.17-.24.41-.32.32-.17-.16.23-.4.32-.32ZM33.18,62.49c-.16-.17.23-.41.32-.32.16.16-.24.41-.32.32ZM43.73,2.55c-.42.64.21,0,0,0h0ZM9.88,42.31s0,0,0,0c.19-.47.34-.86.47-1.18-.16.4-.31.79-.47,1.18ZM50.44,25.18c-.03.09-.04.19,0,.33.38,0,.11-.39,0-.33ZM48.2,20.4s0,.04,0,.05c.01.03.02.03,0-.05ZM9.79,42.37s.02.05.05.04c.01-.03.03-.06.04-.1-.03.02-.06.04-.09.06ZM12.72,69.5s.03.11.05.17c.06.08-.05-1.07-.05-.17ZM81.44,34.11c-1.37-1.71-3.62-3.84-5.43-5.1-2.29-1.6-5.97-3.66-8.78-4-2.9-.35-5.62-.99-8.38.28-2.13.98.37,1.78-1.27,2.66-2.39,1.3.72,2.83,2.13,2.54,1.93-.41,3.16-1.74,4.47-3.07.83,1.39,1.91.96,3.52.96,1.86,0,2.66.22,4.27,1.16,1.64.96,3.26,2.02,4.58,3.4,1.13,1.18,1.23,2.8,1.54,4.36.41,2.01.76,4.04,1.12,6.06.6.82,1.92.83,2.23,1.91.62.81.16,2,.64,2.87,1.11.32.87-.59,1.6-.96.65.58.34,1.63.96,2.23-.03-.35.46-.19,0,0,.27-.11-.1.25-.27.38-.44.88.22,1.83.27,2.8-.3.88-.35,1.83-.36,2.75-.03,2.48-.06,4.74-.35,7.19-.17,1.39-.11,1.88,1.23,2.2.76.18,1.38-.25,1.68-.92.71-1.63.69-3.6.69-5.32,0-4.75.58-9.15-.64-13.87-.95-3.69-3.03-7.53-5.44-10.52ZM58.75,27.42c0-.31.39-.25.64-.32,0,.31-.39.25-.64.32ZM59.71,27.1c-.16-.16.23-.41.32-.32.16.16-.23.41-.32.32ZM63.86,27.1c-.17-.16.23-.41.32-.32.17.16-.23.41-.32.32ZM80.81,43.04c-.17-.16.23-.4.32-.32.17.16-.23.4-.32.32ZM81.44,39.85c-.43-.1-.26-.8-.32-1.27.52.31.74.85.32,1.27ZM82.4,41.44c-.17-.16.23-.4.32-.32.16.17-.23.41-.32.32ZM82.72,41.76c.78.71.9,2.08,1.28,3.19-1.09-.4-1.17-1.81-1.28-3.19ZM84.37,49.8c.07-.13.15-.26.27-.38-.42.45-.4.48-.27.38ZM59.05,56.38c-.03-2.7-.26-5.39-.45-8.09-.06-.8.17-2.55-.26-3.26-.33-.55-.79-.55-.56-1.36-.19-.96.39-1.62.32-2.55-.1-.77-.64-1.22-1.01-1.86-.61-1.03.29-2.7-.59-3.56-.13-.52-2.85-.68-2.96.81-.17,2.3-.05,4.74.49,6.98.38,1.6-1.81,4.88-.31,6.12,1.12.94,1.18.77,1.18,2.34.21.45.93.11,1.23.44.97,1.08-1.58,4.11-.81,5.57.36.67,1.24.7,1.17,1.64v3.44c0,1.47-2.48,11.68-1.6,12.18.29-2.82,2.8-4.32,2.94-7.17.07-1.52,1.65-3.77,1.11-4.74-.92-1.63.11-5.11.09-6.96ZM56.51,35.71c.54.53-.13-.54,0,0h0ZM95.75,51.83c.36.47-.03,1.3-.24-.19.54,3.86-2.26,6.3-3.3,9.78-.8,2.68.85,6.52-.4,8.85-.77,1.43-1.03,3.04-2.02,4.36-1.32,1.76-.69,1.24.16,2.56.43.67-.9,3.01-1.47,3.46.14,1.11.14,2.08,0,3.19,5.37-2.1,6.1-12.06,6.88-16.65.3-1.77.55-3.73,1.43-5.35.25-.87-.14-1.39.16-2.39.39-1.3-.02-3.11-.41-4.37-.21-.71-.16-2.58-.79-3.25ZM18.15,54.52c.28.02.38.17.35.41.28-.11.44-.35-.35-.41ZM18.15,54.52c-.71,1.13-2.31,3.21-3.52,3.82.13.32-1.5,2.76.42,1.05.54-.48,3.34-3.38,3.46-4.47-.27.11-.66.08-.35-.41ZM82.72,59.29c-.03-.59-.35-.8-.96-.64.64-.11,0,.21,0,0-.22.75.11.96.96.64ZM81.4,91.82s.03,0,.05-.01c0,0,0,0,0-.01-.01,0-.03.02-.04.03ZM81.92,91.39c-.16.18-.34.31-.47.4,0,0,0,.01,0,.02-.06.03-.1.04-.12.06.02-.01.04-.02.08-.04-.37.11-.05-.48.04-.03,0,0,0,0,0,0,.05-.33.15-.64.32-.94-1.08.15-2.49,3-2.88,3.82,1.02.21,1.4-1.77,2.88-1.59.51-1.33,2.24-1.54,2.24-3.19-1.09-.01-1.47.79-2.08,1.5ZM80.81,92.77c-.17-.17.23-.41.32-.32.17.16-.23.41-.32.32Z"/>
    </g>
  </g>
</svg>