<?xml version="1.0" encoding="UTF-8"?>
<svg id="Layer_2" data-name="Layer 2" xmlns="http://www.w3.org/2000/svg" viewBox="0 0 89.65 88.5">
  <defs>
    <style>
      .cls-1 {
        fill-rule: evenodd;
      }
    </style>
  </defs>
  <g id="food_icons" data-name="food icons">
    <g id="raspberry">
      <path class="cls-1" d="M15.37,12.93c-.34.3-.66.61-.94.97-.07.43.63-.48.94-.97ZM87.32,23.15c-3.78-1.99-8.22-3.17-12.47-2.23,2.37-3.95,4.13-11.17-.52-14.3-4.58-3.09-11.26-1.76-15.19,1.9-1.08,1.01-2.01,3.97-.08,4.72,1.31.51,1.55-1.47,2.05-2.2.54-.43,1.14-.77,1.75-1.07,1.97-.99,4.31-1.7,6.54-1.51.99.08,1.99.39,2.73,1.07.9.83-.07.78-.15,1.83-3.73-1.37-2.22,2.91-3.84,4.46-.93-.36-1.02-1.24-2.24-.96-1.25.94-.09,2.35,0,3.51-.83.04-1.82-.74-2.56,0,.15-.51-.15-1.92-.89-1.53-.6.32-.36,1.29-1.03,1.53-2.16,2.03.61,3.17.96,4.78-1.26.57-2.28-.54-3.09-1.33-.7-.7-1.29-2.35-2.13-2.7-3.34-1.38-.46,4.52.18,5.25,2.06,2.37,5.3,2.76,8.15,2.04,1.33-.33,1.16-1.49,2.67-1.71,1.06-.16,1.91-.73,2.73-1.38,1.32-1.04,2.14-1.86,3.42-.59,1.2,1.19,3.65.71,5.34,1.14,1.32.33,1.94,1.33,2.84,1.2.87-.12,1.82.77,1.94,1.59-.2,1.67.78,3.12.64,4.78-.49,1.06-1.05,1.9-1.01,2.8.03.75-.96,2.81-1.47,3.33-.25.25-1.56.63-1.55.74-.01-.15,1.35-1.52,1.49-1.7.66-.87,1.12-1.85,1.27-2.94-1.38,1.26-3.53.41-4.48-.96-1.44.29-2.51,1.01-3.34-.33-1.03-1.66-.92-.82-.22-2.91.74-2.2-1.39-.68-1.43-1.05-.14-1.66-.54-.8-2.04-.81.46-.95,3-4.89-.23-2.96-1.43.85-3.44.47-3.91,1.86-.51,1.52-.76.56-1.88.92-1.32.42-1.35,1.48-1.66,2.73-.12,2.22.52,3.67.65,5.74-2.63.62-.91.35.08,2.31.76,1.5-.35.89-.4,1.84.87.38.65,1.86.64,2.55.72-.01,1.9-1.69,2.56-.96-1.05,2.36-2.72,4.05-5.44,4.14.22-.28.32-.6.32-.96-1.16.11-2.02,1.02-3.2,1.05-1.77.04-.38-1.41-1.91-2.01-.18.46-.5.78-.96.96.04.41.02.81-.06,1.21-.63.92-.95-1.64-.9-1.85-1.81-.1-2.55-1.77-2.55-3.51-1-.67-1.79.66-1.37-1.17.21-.61.13-1.18-.23-1.71.47-.47.83-1.02,1.06-1.65.29-.74,1.18-2.98-.53-2.25-.6.25-1.71.08-1.88.33-.44.63-.97,1.66-1.57,2.34-.67.76-.28,2.37-1.24,2.83-.4-4.29,2.77-6.45,6.49-6.67,2.53-.15,5.1-.15,7.62.16,1.49.18,3.02-1.2,1.72-2.72-1.13-1.33-3.61-.99-5.14-.96-2.07.04-1.98-.52-2.37-2.56-.55-.34-.81-.97-1.06-1.54-.84-1.89-2.56-2.12-2.75.28-.05.72-.42,2.88.39,3.23.54.23,1.4.08,1.82.57-1.88-.02-3.59.76-5.43.96-1.22,1.39-1.98.87-2.88-.32.32.43-.43,0,0,0-2.15,0-1.36,1.91-1.29,3.7.05,1.32.19,3.31-.94,4.27-.77-2.72.03-4.96-2.37-6.89-1.94-1.56-5.43-1.88-6.79-3.42-.81-.91-1.91-1.48-2.75-2.36-1.1-1.16.37-1.71,1.17-2.58.83-.88,1.12-1.87,1.64-2.91.53-1.08.4-2.49,1.11-3.52,2.08,2.88,6.82,6.11,10.59,4.93,2.28-.72,4.02-1.85,6.26-2.9,1.2-.56,1.66-.99,2.23-2.23.85-1.81-.06-.92-.87-2.04,1.47-1.27,3.82-3.44,3.01-5.63-.54-1.49-1.08-3.13-1.74-4.57C53.68.05,49.48-.46,45.97.3c-3.26.71-6.31,2.21-8.8,4.36-1.19,1.02-1.15,1.73-1.88,2.98-1.22,2.07.05,3.19.24,5.31-.98-.28-1.03.77-1.92.64-.08-1.38-.44-2.68-.93-3.96-.64-1.69-.83-1.67-2.39-2.45-2.21-1.12-5.29-.71-7.7-.56-3.33.21-7.42,1.27-9.76,3.46-1.38,1.29-2.43,3.48-2.85,5.28-.35,1.49,0,2.38-1.26,3.35-.88.68-1.7,1.44-2.45,2.26C3.08,24.41.37,28.63.37,33.35c-1.47,3.43,1.75,9.93,5.09,11.61,2.15,1.08,4.34,2.21,6.77,1.5,1.25-.36,1.15-.52,2.19-1.16.7-.43,1.5.06,2.25-.37,1.05-.61,2.55-.89,2.55-2.17,0-1.02.46-1.46,1.18-2.18.67-.67,1.33-1.32,1.06-2.45.75-.27,1.28-.74,1.28-1.59-.15-.72-1.23-.27-.96-1.28.08-1.06.37-1.33,1.24-.94,2.83,1.3,1.66-2.12,3.24-1.62-.21,1.51-1.67,3.01-2.27,4.52-.83,2.08-.85,4.1-1.37,6.2-.55,2.24-.2,4.25.52,6.31.56,1.62,2.07,1.8,3.12,3.05-1.47,1-2.79,2.22-4.47,2.87-.12-2.5-1.27-1.26-2.56-1.27.15-1.82-1.52-.48-2.03-.35-1.06.28-.19-4.01-.21-4.11-.71-.56-2.79,1.07-2.76,1.45-.06-.69,1-2.82,1.16-3.68-.36-.41-1.18-.1-.96-.96-1.9.15-2.87,1.52-3.95,2.89-.33.41-.52,2.51-.85,2.53-.29-.53.69-4.74-.68-3.62-.51.41-1.08,2.45-1.29,3.1-.91,2.79-1.38,5.59-.09,8.48,1.12,2.51,3.13,4.41,5.64,5.53,1.38.62,2.85,1.01,4.34,1.25,1.54.26,3.14-.34,4.54-.07,0,4.76,1.93,8.68,5.12,12.11,1.65.29,3.1,1.74,4.85,1.62,2.42-.16,1.86,1.19,2.15,3.2.55,3.81,6.02,4.74,9.15,4.74,2.69,0,3.85-2.59,5.77-3.81,1.81-1.15,1.67-1.99,1.42-3.84,1.83-.14,3.64-.55,5.35-1.25.91-.37,1.79-.82,2.65-1.3.2.35.51.47.92.36,2.76-.2,4.07-2.31,4.99-4.78.7-1.86,3.03-6.47-.16-7.05-.56,1.04-2.91,4.61-4.15,4.78.24-1.25,1.14-2.22,1.28-3.51-2.88.89-3.84,4.16-6.87,4.16-2.03,0-4.02-.23-6.24,1.26-.07-1.37-2.08-.93-2.24-2.23,2.85-.34,5.13-1.8,7.36-3.5,0-.28,1.28-3.82,1.6-3.83-.11.38-.88,2.5,0,2.55,1.71-1.28,2.08-3.64,2.2-5.62.1-1.68,1.05-3.15,1.03-4.93-.02-2.51-1.44-1.78-2.1-.02-.5,1.31-.89,3.04-2.4,3.55.9-1.86,2.1-3.21,1.92-5.42-.03,0-1.04-1.5-1.3-1.73-.78-.67-1.01-.2-1.47-1.16-1.04-2.16-2.66-.06-1.31,1.63,1.43,1.81,1.62,2.06.63,4.3-.83,1.87-2.9,3.68-4.53,5.05-.76.64-1.61,1.16-2.56,1.48-.26-.88-.88-1.52-1.42-2.22-1.79-2.32,1.69-3.39.46-5.75-1.65,0-1.86,1.72-3.2,2.23-.18-1.05-1.3-.44-1.92-.32-1.06-1.15-1.73-.48-2.3-1.77-.57-1.29-2.62-2.73-.39-3.21,2.65-.57,4.87-2.02,6.92-3.72.33-.27,4.2-3.62,2.69-4.42-.28-.15-.53.46-.78.36-.3-.12-.19-3.22.26-3.5,1.15,2.69,3.67,6.82,6.36,8.19.73.37,1.44.54,2.27.42.48.6,1.06,1.11,1.71,1.52,1.21.77,2.64,1.16,4.06,1.31,2.68.3,6.99-.39,8.76-2.68,1.74-2.25,4.99-4.52,4.34-7.81,1.97,1.3,4.81,1.47,7.09,1.27,1.7-.15,1.85-.59,2.5,1.12.27.72.55,1.71,0,2.39-.65-1.28-1.17-2.61-2.88-2.55-1.02.66-.71,2.59-.32,3.51-1.74-.14-.79,2.75-.56,3.62.54,2.12-.43,2.63-2.31,3.39-.06-.61.5-4.21-.81-3.93-.51.11-.26,1.33-.31,1.66-.24,1.48-.95,2.74-.87,4.06,0,0-1.54-2.19-2.32-1.14-.31.43-2.42,1.9-3.36,1.91.11-.88.05-1.9-.64-2.55.66-.09.65-.86.96-1.28-1.26-1.38-2.51-.52-3.93.07-1.27.52-1.05,2.15-2.15,2.48.02-.85-.8-.94-1.44-.96-1.29-.03-1.29,1.04-1.42,2.18-.26,2.15.4,4.36,1.5,6.2,2.05,3.45,7.27,3.7,10.96,3.1,3.58-.57,6.58-3.46,8.19-6.5.82-1.54,1.25-3.71,2.19-4.91.84-1.07.98-2.38,1.17-3.71.21-1.47.97-5.15-.36-6.25-.68-.56-.63-1.75-.96-2.53.53-.22,1.04-.47,1.54-.75,2.84-1.6,4.62-4.24,5.07-7.47.49-3.46.24-8.71-2.13-11.55ZM72.61,16.78c-.17-.17.23-.41.32-.32.17.16-.23.4-.32.32ZM73.25,16.14c-.71-.13-.25-1.69,0-1.91.97.39-.35,1.1,0,1.91ZM45.44,13.91c.06-.36.32-.17.32,0-.06.36-.32.18-.32,0ZM42.04,6.64c-.37-1.65,4.18-2.42,6.87-2.59-.16-.11.15-.18,1.64-.02.22.56.84.79.99,1.41.34,1.43-.84.58-1.63,1.14.4,1.36-.44,1.43-1.11,2.31-.68.89.29.92-.9,1.62-.48.3-.99.56-1.52.78-1.95.77-2.13.72-3.51,2.3-.59-.13-.14-1.41-.64-1.8-.9-.71-.62-.79-.04-1.45.83-.94.08-2.68-.15-3.71ZM42.24,15.5c.71.04.19,1.52.32,1.91-.96-.48-2.11-.79-2.88-1.59.6-.84,1.8.43,2.56-.32ZM38.73,11.36c.43.1.26.8.32,1.28-.74-.09-.73-.85-.32-1.28ZM9.96,54.71c.14-.46.28.03.64,0-.08.4-.64.32-.64,0ZM13.79,61.72c.09-.71.87-.71.96,0-.09-.74.87.09,0,0,.73.08,1.46.35,1.92.96-.85.82-1.99-.96-2.88-.96ZM59.5,71.93c.8.13.02,1.24-.64.96.11-.42.56-.5.64-.96ZM55.99,74.48c-.27-.06.13-.4,0,0,.13-.4.41-.65.96-.64-.41,1.25-3.91,2.61-5.12,2.87-.09-.82,3.58-2.36,4.15-2.23ZM9.64,22.2c0,.31-.39.25-.64.32,0-.31.39-.25.64-.32ZM20.82,38.45c-.16-.16.23-.41.32-.32.17.17-.23.41-.32.32ZM20.5,32.72c-.85-.79-3.32-.67-2.69.92.43,1.08,1.77,1.51,1.13,2.73-.86,1.65-2.86,3.96-4.84,3.99.4-.87,1.91-3,0-3.19.32-.52,1.27-1.56.64-2.23-1.42.3-1.98,1.6-2.88,2.55-.73-.37-.49-1.27-1.6-.96.22.84-.64.59-.64,1.27-.86-.29.27-1.17.64-1.27-.37.1.3-1.44,0,0,.74-3.55,5.58-5.56,5.43-9.56-3.61.71-4.98,6.25-7.67,8.29-.47-.62.3-4.03.46-4.04-.24.1-.39.28-.46.53-1.87-.12,1.3-5.74-2.24-5.42,1.04-1.91,1.39-1.94,3.31-2.05,1.89-.11,3.55-.44,5.4.13.97.29,1.98.64,2.79,1.28.48-.32,1.02-.43,1.6-.32.82.98,1.39,2.23,2.56,2.87-1.14,1.07-1.61,3.03-.96,4.46ZM22.39,24.97c.47-.56-3.69-2.59-4.08-2.75-1.05-.44-3.8-1.01-3.55-2.4.14-.75.46-1.28.31-2.08-.96-.12-.68,1.07-.96,1.59-2.02-.39.17-4.56.32-5.42,1.2-1.53,1.23-1.42.94-.97,3.46-3.03,9.64-2.93,13.76-2.21-.6,1.35-.28,3.04-.32,4.46-1.32.81-2.62,1.66-3.99,2.39-.61.33-3.75,1.24-3.23,1.94.43.58,1.32.43,1.15,1.4-4.73-.34.53,3.01-.35,4.05ZM28.18,17.41c-.03-.35.46-.19,0,0-.37.78-1.09,1.18-1.92,1.28.42-.64,1.05-1.08,1.92-1.28-.87.2-.04-.38,0,0ZM25.62,31.76c-.8-.78-.54-1.94-.96-2.87-.43-.95-1.25-1.58-1.83-2.42-.01,0-.02,0-.03,0,.15.3-.19.07-.17-.05-.06-.03-.05-.06.1-.07.03.05.07.08.1.13.31.08.84.16,1.12.19,1.66.18,3.22-.53,4.86-.64-.24,1.78,2.45,2.76,2.56.32.85.22.68,1.45,1.6,1.59-1.83,1.79-6.32.75-7.35,3.82ZM26.31,39.4c.08-.37.28-1.79.86-1.89,0,0,0-.01,0-.02-.2-.03-.02-.3.04-.06,0-.01-.02,0-.04.06.02,0,.03,0,.05,0-.02,0-.04,0-.05.01-.1.36-.35,1.81-.86,1.89-.02.1-.04.13-.05.01.02,0,.03,0,.05-.01ZM25.94,43.87c.75.08.19,1.4,0,1.59-.75-.08-.18-1.4,0-1.59ZM25.94,47.38c.69-.12.86.54,1.6.32v1.59c-.15-.01-.25-.03-.33-.05-.88-.2-1.32-.9-1.27-1.86ZM26.26,57.58c-.9.8-1.26,2.14-2.56,2.55.49-1.21,1.12-2.29,2.56-2.55ZM41.6,63.84c0-.42,0-1.84.2-1.67.48.43-.18,2.52-.07,2.62-.11-.27-.16-.54-.12-.83-.02.4,0-.33,0-.12ZM39.73,63.69c.23-1.42.85-2.74.91-4.19,1.34.36.38,3.35-.51,4.22-.06.13-.19.24-.44.24.14,0,.29-.09.44-.24.14-.34-.22-.84-.4-.03ZM41.92,71.29c-.23,2.48-.9,4.75,1.03,6.75,1.55,1.6,3.87,2.19,6,2.49-.6.85-1.64,1.23-2.56,1.6.02-.94-.75-1.04-1.48-.95-1.49.19-.29.85-1.81.04-1.54-.82-2.81.15-2.78,1.86-2.23-.5-1-2.62-2.88-2.87,1.34-.78,3.14-1.26,3.68-2.89.79-2.43-2.74-1.61-3.99-1.57.6-1.16,2.21-2.24.46-3.44-1.21-.84-2.64.36-3.87.73-1.65.5-2.8.59-3.43-1.02-.34-.87-.91-1.28-1.8-.74.02-1.22-.2-2.45-.83-3.5-.76-1.27.07-1.61-.13-2.87-.5-1.86-2.47.25-3.83-.32,1.21-1.88,3.14-3.12,4.58-4.81.65-.77,1.8-2.18,1.54-3.29-.12-.49-.52-.73-.64-1.18-.03-.06-.06-.14-.05-.28,1.32-.38,1.13-2.02,2.88-1.59-1.79,4.6-1.08,8.74.88,12.97,1.63,3.52,5.41,4.72,9.04,4.88ZM30.1,47.7c.16.16-.23.41-.32.32-.17-.17.23-.41.32-.32ZM40.66,37.46c-.28,3.2-1.3,6-4.76,6.37-1.64.18-3.33.12-4.96-.12-1.36-.2-.59-1.11-1.81-1.74.67-.46-.16-2.23.96-2.23-.11-1.04,1.24-1.07.96-2.23-.46-.71-.91-.46-1.6-.32-.14-.33-.36-.61-.65-.84-.24-.14-.93.07-1.1.27.09-.16.35-.42.47-.39-.27-.06-.24-.98,0,0-.18-.73.85-1.47,1.18-1.62.03-.01-.25-.82-.22-.93,1.67,0,.16-1.38,2.15-2.11,1.39-.51,2.94-.5,4.38-.22,1.39.28,2.77.82,3.92,1.66,1.5,1.1,1.22,2.71,1.07,4.44ZM48.68,41.99s-.06-.12-.04-.35c1.42.2.36-.3.96,1.28-.42-.25-.8-.47-.91-.93ZM50.87,44.83c-.69-1.05-.3-.96.96-.96-.47.71.06.96-.96.96ZM67.5,37.18c-.17-.16.23-.41.32-.32.17.17-.23.41-.32.32ZM67.82,37.82c-.16-.16.23-.41.32-.32.17.17-.23.41-.32.32ZM68.78,33.99c-1.39-.49-.13-2.28.96-2.23-.08.98-.7,1.43-.96,2.23ZM72.29,29.53c-.17-.16.23-.4.32-.32.17.16-.23.41-.32.32ZM73.89,37.82c.34-1.52,2.91.5,2.88.96-1.05-.09-1.85-.8-2.88-.96ZM76.77,35.27c.68-.96,1.19.91,1.92.96-.91,1.18-1.25-.86-1.92-.96ZM79.96,40.37c.05-.37.58-.27.96-.32-.05.37-.58.27-.96.32ZM66.22,60.45c.14-.46.28.03.64,0-.08.4-.64.32-.64,0ZM76.37,60.69c-.63.94-3.1,1.48-2.48-.24-.96-.05-1.48.57-2.3.9-1.27.5-1.47-.73-2.18-.58.1-1.23,2.42-.12,2.24-1.59.8.33,2.91-.15,2.56,0,.46-.2,0,.43,0,0v1.28c.6-.55,1.17-1.12,1.43-1.92.46-1.4,1.2-1.3,2.72-1.59-.1,1.65-1.16,2.5-1.99,3.75ZM41.6,63.84c0,.07,0,.11,0,.12,0-.06,0-.09,0-.12ZM50.55,4.03c-.32-.03-.92-.03-1.64.02.27.18,1.83.46,1.64-.02ZM48.64,41.64c0,.14.02.24.04.35.08.07.22-.31-.04-.35ZM29.13,55.03c0,.11.03.19.05.28.21.36.94-.57-.05-.28ZM73.89,37.82c1.11.17.08-.34,0,0h0ZM27.21,49.24c.1.02.21.04.33.05,0-.46-.8-.19-.33-.05ZM22.64,26.41s.09.03.17.05c-.02-.04-.03-.07-.07-.12-.07,0-.1.03-.1.07ZM42.56,17.41c-.18-.56-.99-.5,0,0h0ZM50.87,44.83c.21,0-.17-.26,0,0h0ZM38.41,27.93c-.75-1.9.58-5.89-2.24-5.74.86,1.72-.73,7.14,2.24,5.74ZM46.41,29.7c.74-.34,1.12-1.05,1.22-1.87.14-1.15-.77-.87-1.36-1.69-.88-1.23-3.19-3.02-4.67-3.62.29,1.78-1.07,3.62-.63,5.38.68,2.69,1.52-1.05,1.59-1.75,0-.04,0-.08,0-.12.01,0,0,.04,0,.12-.02,1.16.51,2.03.96,3.07.85.51,1.94-.37,2.55.64-.57-.94.72-.48.34-.15ZM46.08,29.85c.17-.04.27-.09.34-.15-.11.05-.21.12-.34.15ZM48.96,25.06c-.26.83-1.89,4.39-.45,5.01.1-.07.58-.11.45.1.57-.9,1.52-4.43,0-5.1ZM48.96,30.17c-.18,0-.32-.04-.45-.1-.06.04.01.09.45.1ZM43.2,50.89c-.19-.04-.34-.06-.47-.08.15.02.31.04.47.08ZM42.51,50.8c-2.25-.08-4.02,1.95-3.78,4.23,1.18-.21,4.25-2.98,4.47-4.14-.21,1.07-1.62-.04-.69-.08Z"/>
    </g>
  </g>
</svg>