<?xml version="1.0" encoding="UTF-8"?>
<svg id="Layer_2" data-name="Layer 2" xmlns="http://www.w3.org/2000/svg" viewBox="0 0 104.54 116.04">
  <defs>
    <style>
      .cls-1 {
        fill-rule: evenodd;
      }
    </style>
  </defs>
  <g id="food_icons" data-name="food icons">
    <g id="rice">
      <path class="cls-1" d="M11.64,5.77c.99-.1,1.66.87,2.78.61-.05.67,8.9,1.97,9.91,2.55,4.95.74,9.51,2.91,14.43,3.7,4.65.74,9.35,2.26,13.97,2.8,3.87.45,7.9,1.92,11.25,4.02,4.83.65,9.39,2.34,14.14,3.31,4.81.98,9.29,3.02,14.03,4.34,1.83.51,3.49,1.11,5.31,1.57,1.27.32,3.5,1.46,4.83,1.07,2.71-.8-1.07-2.34-1.26-2.61-.92-1.31-2.39-1.36-3.93-1.81-4.25-1.25-8.27-3.21-12.63-4.39-8.25-2.24-16.23-5.28-24.29-8.08-5.03-1.75-9.93-3.84-15.02-5.43-3.86-1.2-7.95-1.3-11.73-2.56C25,2.08,15.7,0,6.74,0c.5,0-.08.11-.36.14-1.35.73-1.11,3.56-.6,4.64,1.3.46,4.86,1.09,5.85.99ZM61.73,15.94s.05.05.07.08c.44.08,1.52.19,1.87.33,1.17.47,2.19,1.12,3.49,1.19-.59.97-4.61-.7-5.36-1.52,0,0-.02,0-.02,0,.43.63-.21.13-.13-.03-.06-.02-.04-.03.08-.04ZM7.7,2.87c-.21-.73.44-.91.32-1.59,4.68,1.39,9.66,1.53,14.3,2.95,2.69.83,5.93,1.97,8.71,2.31,4.5.54,9.19,2.23,13.75,3.03,1.42.97,3.79,1.39,5.43,1.91,1.75.79,3.56,1.47,5.43,1.91-.53,1.21-9.8-1.57-11.08-1.71-3.71-.39-7.43-1.62-11.07-2.57-5.16-1.36-10.2-3.07-15.57-3.38-1.49-1.05-4.69-1.74-6.42-1.89-.67-.06-3.77-.12-3.81-.98.05.91-.26-.9,0,0ZM6.39.14c.11-.06.23-.11.36-.14-.61.14-.56.16-.36.14ZM61.78,16.01s-.02-.04-.05-.07c-.05,0-.07.02-.08.04.03,0,.07.02.13.03ZM42.77,33.15c8.94.12,17.81.39,26.71,1.36,3.71.4,7.36.52,10.96,1.18,4.1.76,8.59-.34,12.72-.36,1.43,0,7.05.62,6.11-1.71-1.09-2.68-6.97-2.04-9.21-2.22-9.61-.75-19.25-1.77-28.86-2.18-5.21-.22-10.42.22-15.59-.04-5.02-.26-10.04-.4-15.06-.5-5.43-.11-10.87-.16-16.31-.24-3.81-.06-7.6-1.03-11.4-1.04-.45.04-1.4.1-1.2.02-3.12,1.28-1.34,5.88,1.74,5.56,4.51-.46,9.12-.1,13.64.08,8.58.34,17.17-.03,25.76.09ZM94.33,33.79c.6.69,2.89-.38,2.88.96-.49.08-4.74-.87-4.75-.84.07-.29,1.63-.12,1.87-.12ZM74.19,32.54c.97.12,12.58,1.6,12.68,1.09-.21,1.08-13.53-.45-14.92-.8,2.72.69-3.09-.21,0,0-3-.2-5.95-.77-8.95-.96.28-1.43,10.12.53,11.19.67ZM53.42,31.24c-3.41.09-.45.01.01,0,.95-.03,6.38-.41,6.06.64-1.96-1.11-6.19.86-7.82-.52-.01-.01,2.07-.12,1.75-.12ZM45.11,31.24c.16.17-.23.41-.32.32-.17-.17.23-.41.32-.32ZM2.93,31.27c.07.25.16.63-.02-.03-.14-.62-.69-.9-.64-1.59,3.51-.17,7.02.67,10.53.78,3.55.11,7.1.2,10.65.28,3.5.08,7.01.16,10.52.25,1.29.03,9.49-.55,10.04.41-.27-.47-10.24.2-11.49.2h-11.31c-2.13,0-17.67.97-18.27-.29ZM53.43,31.24s0,0-.01,0c.1,0,.09,0,.01,0ZM2.91,31.24s.02.02.02.03c-.04-.16-.07-.26-.02-.03ZM1.63,27.41c.4-.02.8-.02,1.2-.02.4-.04.4-.07-1.2.02ZM94.33,33.79c-.47,0,.59.69,0,0h0ZM51.63,46.26c1.48-.4,2.52-1.69,4.09-1.92,3.23-.48,4.47,3.92,6.96,4.39.23-.09.95-.21.9-.11.92-.6,1.18-1.94,1.16-2.93,0-.17-.58-1.79-.45-2.02-.5-.16-1-1.05-1.47-1.4-.71-.51-1.31-.78-2.1-1.09-3.35-1.32-6.98.12-9.21,2.81-.7.84-2.46,2.98.13,2.27ZM62.68,48.73c-.16.06-.09.11.65.04-.23.02-.44,0-.65-.04ZM63.57,48.62c-.08.05-.16.11-.25.15.16-.07.23-.12.25-.15ZM90.92,52.9c1.36.86,1.42,2.71,2.45,3.84,1.23.28,1.69-.4,2.85-.28,1.28.12-.43-3.38-.61-4.18-2.02-3.5-5.2-4.19-8.77-2.53-1.16.54-1.39,1.24-2.39.32-.71-.65-1.51-1.22-2.37-1.66-2.05-1.04-4.4-1.27-6.61-.6.34-3.91-4.41-5.59-7.46-4.82-1.21.3-3.68,3.22-1.35,3.49.81.09,1.61-.26,2.41-.26.9.61,1.65,1.4,2.28,2.27.57.8,1.67,4.74,3.33,3.21,1.37-1.26,1.43-1.34,3.56-1.34,1.74,0,3.3.85,4.31,2.25.49.68,1.04,1.31,1.87,1.58.38-.49.75-.76,1.37-.74,1.58.05,3.68-1.46,5.13-.55ZM75.47,47.82c4.2-1.29.12-1.4,0,0h0ZM30.12,88.96c-.02.1-.04.19-.04.3.5.79.17-.62.04-.3ZM29.76,93.72c-.11-.09-.17-.14-.22-.17.07.06.15.11.22.17ZM26.31,86.95s-.04.06-.06.08c.09-.08.1-.09.06-.08ZM49.9,49.41c-.31.17-.57.23-.82.24-.07.13.1.14.82-.24ZM98.43,56.26c-1.87,1.44.76,1.49,1.41,1.94.4.28,2.55,3.18,1.11,3.03-.94-.1-1.92.95-2.92,1.31-1.41.51-2.81,1.56-4.33,1.84-5.02-.12-10,1.13-14.95.92-10.12-.43-20.07-1.26-30.23-1.2-1.7,0-3.2-.16-4.81.38-1.24.41-2.42.6-3.73.5-1.96-.15-4.46-1.55-6.09-.73-3.48,1.75-9.85-.59-13.4-1.46-2.05.19-4.44-.16-6.41-.78-1.57-.49-1.01-2.44.28-2.87,1.07-.36,1.77-.41,2.93-.82.6-1.91-.25-2.59,1.46-3.96,1.55-1.24,2.7-.97,3.85.36,1.08,1.25,3.04-.43,3.88-1.16,2.49-2.17,6-3.18,8.65-.96,1.12.94,3.34.53,2.93-1.29-.78-2.2.19-2.17,2.34-2.85,1.57-.49,4.43-1.33,5.95-.41.98.59,1.63,1.66,2.71,1.59.12-.25,1.06-.91.82-.24,1.5-4.27-3.27-5.07-6.31-4.79-1.86.17-3.65.69-5.3,1.54-1.28.66-2.79,2.39-3.98,1.89-1.85-.77-4.12-.17-5.8.66-1.3.65-4.01,3.35-5,2.85-1.87-.95-2.93.57-4.63.71-.21.73-1.06.87-1.28,1.59-.65.58-.34,1.63-.96,2.23-1.69.28-3.25,1.11-3.99,2.71-.52,1.11-.02,1.51-1.23,1.81-.21.05-1.27.27-1.43.44-.31.33-.66,1.28-.34,1.74.69.97.46,1.32.63,2.51.31,2.2.75,4.34,1.28,6.5,2.16,8.82,7.15,18.04,12.74,25.16,2.66,3.39,5.74,5.54,9.4,7.79,1.85,1.14,3.7,2.16,5.65,3.15,2.44,1.25,1.91,2.11,2.31,4.53.47,2.89,7.66,3.4,9.86,3.55,4.41.29,8.68-.58,13.05-.58,4,0,9.65-.49,11.78-4.25.56-.97.4-1.01-.47-1.13-.74-.11-.44-1.32-.44-1.79,0-2.09,3.2-3.38,4.87-4.45,1.99-1.28,3.99-2.54,5.88-3.97,2-1.52,3.02-3.16,4.54-5.09,2.47-3.13,5.27-5.99,7.72-9.14,2.79-3.58,4.47-8.7,4.47-13.21,0-2.38-.18-4.67-.32-7.01-.07-1.25-.75-1.65.44-2.12.68-.27,1.17-.79,1.37-1.5.71-2.58-3.22-7.63-6.02-5.47ZM19.21,78.42c-.97-.85-.95-2.33-1.92-3.19.51-.77,2.11.28,2.88,0-.07,1.16-.97,2-.96,3.19ZM20.81,81.29c-.39.03-.2-.46,0,0,.96.06-.3,1.33,0,0ZM23.69,84.79c.06-.36.32-.18.32,0-.06.36-.32.18-.32,0ZM27.84,91.17c-1.67-.3-3.31-3.13-1.59-4.14-.34.2-.02-.04.06-.08.3-.38.09-1.08.89-.88-.11,1.78,1.52,3.34.64,5.1ZM29.54,93.55c-.74-.55-1.64-1-1.06-2.06.89.14,1.46,2.66,1.28,2.23.17.4-.5-.36-.22-.17ZM29.41,87.28c.47-.22-.24-.81-.29.07.05-.88-.8-1.3-.64-2.23.79-.19,1.13.51,1.92.32-.22.63-.28,1.59-.99,1.85ZM31.68,92.13c-.81-.78-1.02-1.95-1.6-2.87,0-.15.02-.24.04-.3.17-.82.88-1.36.92-2.26,1.04,1.35,1.12,3.85.64,5.42ZM35.2,94.36c1.61-.12,2.05.94,2.23,2.23-1.8.31-2.33-.65-2.23-2.23ZM98.45,79.59c-.78,1.96-2.23,3.84-3.53,5.52-1.08,1.39-1.76,2.98-2.93,4.4-.98,1.18-1.9,2.48-2.74,3.75-.85,1.28-1.3,1.21-2.53,2.02-1.67,1.12-2.97,2.72-4.85,3.53-1.5,1.52-8.29,3.08-8.31,5.42-.83.16-10.83-1.6-8.71,1.62.85,1.3,3.26.88,4.55.92,1.06,2.49.1,2.56-1.71,3.9-1.8,1.33-4.17.57-6.5.65-2.51.08-5,.38-7.5.5-3.7.17-8.58.58-8.58-3.77,1.28-.28,3.66,2.62,4.15-.64-.12-2.32-3.02-.36-4.15-1.28.05-1.19,2.16-.71,2.88-.96,1.05-.98,3.36-1.53,4.47-.32.92-.73,1.4-1.25,2.44-1.82.99-.54,1.5.11,2.67-.09.11-.68-1.4-2.7-1.93-3.1-1.53-1.17-.63,1.78-.69,1.96-.52,1.69-2.44-1.22-2.58-1.6-.46-1.31-1.69-3.42-2.8-4.27-.98,1.7,0,3.93,0,5.74-.4-.75-.8.17-1.21-.11-.44-.3-1.15-2.64-1.46-3.29-.37-.75-2.27-2.3-2.01-.4.59,4.29-1.28-.62-2.04-.98-.81.63-.56,2.05-1.54,2.53-1.56.76-2.25-1.76-.7-1.57-.14-1.46-2.31-1.04-1.92-2.87,2.43.81,5.14.68,7.68.64.27-1.03-5.35-1.44-6.08-1.59-1.37-.29-3.05-.3-2.88-2.23-.63-.22.12-1.5-.64-1.59-.86.65-.21,2.38,0,3.19-4.04,1.02-4.16-10.14-4.16-12.43-1.26.04-1.1,1.7-1.18,2.55-.13,1.38-2.62.46-3.62.32.2-1.08,1.6-5.17-1.17-3.64-1.13.63-1.1,2.18-2.03,3-.94-1.57,1.2-3.12.96-4.78-1.88.03-2.32,1.75-2.88,3.19-1.67-1.32-.63-3.4-.21-5.05.61-2.43-.62-2.19-2.5-3.08-1.48-.7-2.87-1.25-4.33-2.07-.43-1.63-.63-3.1-.32-4.78,2.09.68,4.16,1.73,6.39.96.03-1.2-1.58-.69-1.92-1.59.32.85-1.15.09,0,0-.97.07-1.62-.59-2.56-.64.84-1.78,7.4,1.27,8.68,1.33,3.51.15,7.03.35,10.54.47,7.83.27,15.65.72,23.5.7,7.95-.02,15.9-.31,23.85-.52,3.02-.08,6.03-.47,8.56-2.3.94,0,1.27,1.03,2.24.96,1.33.2,2.52-.43,3.84-.32.02.48-.19.8-.64.96,1.47,1.1,1.59,4.54,1.59,6.12,0,2.46-.08,4.52-1,6.84ZM45.74,101.37c.06-.36.33-.18.32,0-.06.36-.32.18-.32,0ZM19.21,78.42c0-1.39-.9-.8,0,0h0ZM57.57,53.87c2.12-1.96,1.75-.06,3.16.35,1.83.53.75-2.67.03-3.22.49.38-1.22.06-1.2-.04-1.35.04-2.84.42-3.54,1.56-1.41,2.28,1.79,3.03,1.54,1.36ZM59.57,50.96c.42-.01.83,0,1.2.04-.89-.1-1.19-.09-1.2-.04ZM76.47,55.42c.11.38.11.81-.04,1.32.62-2.1.33-1.93.04-1.32ZM76.47,55.42c-.44-1.5-2.64-1.95-4.17-1.32-1,.41-1.52,1.31-.98,2.32.91.12,1.69-.1,2.56-.32.83.54,1.5,1.21,2.56.64-.56.31-.26-.72.04-1.32ZM43.66,58.02c1.89,1.79,1.25-1.1,2.08-1.59.73-.43,2.67-.72,3.34-.05.32.32.56.81,1,.49.08-.1.22-.25.31-.35,2.52-3.62-11.05-2.57-6.73,1.51ZM50.22,56.74c-.05.05-.1.09-.14.12-.09.11-.1.14.14-.12ZM50.39,56.51c-.05.08-.1.15-.17.23.32-.38.29-.36.17-.23ZM33.62,58.12c.33-3.08-4.53-2.32-4.5-.1,1.11.13,1.73-.87,2.88-.64.81.03.49,1.05,1.24,1.02-.51-.02.36-.9.38-.28ZM33.24,58.4c.08,0,.2-.02.36-.07-.14.05-.26.07-.36.07ZM66.53,60.25c-.16.11-.31.17-.46.22.1,0,.25-.07.46-.22ZM61.83,59.35c1.56-.31,2.85,1.53,4.23,1.11-.53.05.35-1.5.48-.84-.28-3.99-9.43-3.02-9.53.67-.07,2.46,3.87-.76,4.81-.95ZM66.54,59.63c.01.2.01.4-.02.62.04-.3.04-.5.02-.62ZM86.02,62.43c-1.12-1.23-4.75-.62-5.12.69.36.36,4.18.39,5.21.1-.19-.06-.18-.56-.09-.79ZM86.34,63.12s-.12.07-.23.1c.06.02.13,0,.23-.1ZM86.02,62.43c.17.19.29.41.32.69-.11-.86-.24-.89-.32-.69ZM70.36,81.61c-1.37-.31-2.08-1.12-2.83.79-.6,1.56-1.8,3.41-1.35,5.15.6,2.35,2.11-.75,2.34-1.5.43-1.41,1.34-2.62,1.73-4.05-.26.75-.44-.52.1-.4ZM70.36,81.61c-.03.14-.07.27-.1.4.03-.1.07-.22.1-.4ZM78.99,80.97c.39-.07-.09.25-.13.19-.41.67-.23,1.95.77,1.73-.1-.61,1-2.2-.64-1.91ZM78.86,81.16c.04-.07.08-.14.13-.19-.12.12-.15.17-.13.19ZM71,81.61c.33.09-.33.98-.26.63-.68,1.61-.98,3.37-1.01,5.11,1.74-.34,3.02-5.27,1.28-5.74ZM70.73,82.24c.09-.21.16-.43.26-.63-.17.34-.25.53-.26.63Z"/>
    </g>
  </g>
</svg>