<?xml version="1.0" encoding="UTF-8"?>
<svg id="Layer_2" data-name="Layer 2" xmlns="http://www.w3.org/2000/svg" viewBox="0 0 109.01 91.81">
  <defs>
    <style>
      .cls-1 {
        fill-rule: evenodd;
      }
    </style>
  </defs>
  <g id="food_icons" data-name="food icons">
    <g id="salad">
      <path class="cls-1" d="M33.57,83.69c.04.07.12.13.31.17.03-.12-.17-.17-.31-.17ZM101.33,47.52c.32-1.17.86-1.03-.24-1.68-.56-.33-.56-.78-1.36-.56-1.67-.39-4.51.32-6.31.32-2.07,0-4,.64-6.15.64-1.42.25-3.43,1.19-4.8.32,1.03-.05,2.88.05,3.2-1.28-6.2-.38-12.8.62-18.95,1.48-5.61.79-11.4,1.07-16.96,1.07-6.94,0-14.03.32-21.07.32-3.56,0-6.95.05-10.46-.61-1.59-.3-3.19-.57-4.82-.67-.99-.53-1.65-1.13-2.88-.96.75-1.45,1.42-1.38,2.67-1.59,1.56-.26-1.33-2.16-1.39-2.24.88-.45.9-2.49-.38-2.29-.51.08-.75.55-1.23.69-.51.15-1.67-.77-1.84-1.34.11.37,3.03-.88,3.45-1.2.23-1.28-.96-1.45-.19-2.53,1.25-1.75-.55-4.86-.44-6.72,1.76-.18,3.42.64,5.16.51,1.48-.11,1.06-1.73,1.3-2.91.27-1.36.2-2.47.2-3.84,0-2.1,1.11-1.07,2.39-.42,1.72.87,3.46,1.71,5.33,2.2.91-.5.96-1.31,2.24-.96.96-1.09,1.58-2.43,2.56-3.51.29-.88,0-2.12.64-2.87.73.32,4.64,8.18,5.64,5.05.56-1.78-1.55-3.84-2.12-5.36-.92-.75-2.97-1.72-2.56-3.19-1.36-.23-1.56.92-2.28-1.04-.39-1.06-.72-2.59.31-3.35,2.22-1.62,5.52-.59,8.05-1.03-1.88,2-3.35,3.33-3.14,6.2.1,1.44.87,4.47,2.64,4.73,2.81.42,1.12-2.4.69-3.65-.47-1.37-.42-3.83,1.33-4.37,2.08-.64,2.34,1.8,4.05,1.93,2.75.22.63-2.79.3-3.8-.53-1.63,1.5-4.6,3.18-3.05.58.53,1.03,5.8,2.72,3.93.81-.9,0-5.22,2.79-1.93.65.77.52,3.18,1.19,3.48.98.44,1.06-.82,1.25-1.37.26-.74,1.27-.5,1.86-.5,2.05,0,1.72,1.5,1.88,3.04.21,2.14,3.35-1.1,3.79-1.42,1-.72,3.82-1.95,4.23,0,.29,1.38-1.84,3-.31,4.12,1.36.36,1.61-1.73,2.24-1.59-.27-.06,0-1.28,0,0,0-1.63.41-3.32-.66-4.6-.12-.14-1.57-1.1-1.57-1.14-2.55-.18-3.87,1.69-6.07,2.23.21-1.83-2.22-1.98-3.34-2.25-1.79-.44-.19-3.67.65-4.32,1.61-1.25,3.95-1.33,5.89-1.08,1.78.91,1.21,2.95,3.47,2.46,1.23-.27,4.08-2.68,5.07-.99.31.53,1.13,4.91,2.13,2.73,1.96-4.28-4.33-5.79-6.83-3.25C67.16-.46,62.18.02,59.45.02c-.7.82-1.84.57-2.69,1.33-.53.46-1.02.93-1.5,1.43-1.39,1.5-1.24,2.63-1.24,4.56-1.39-.78-2.75-2.09-4.47-1.27-.6-1.38-1.66-2.36-3.2-2.55-1.38-.28-2.5.7-3.12,1.67-.33.51-1.04,2.64-1.68,2.79-.04.16-3.49-2.61-3.84-3.19-.55.33-3.36-.52-4.33-.38-1.59.23-3.1.88-4.35,1.89-2.63,2.13-2.99,5.42-.78,7.92,2.08,2.35-.69,6.29-2.05,8.43-.97-1.55-3.12-1.78-4.66-2.46-1.32-.59-2.47-1.4-3.75-2.06-2.6-1.34-2.76.65-2.63,2.77.12,1.96.41,3.93.17,5.9-.32-.08-.64-.15-.95-.23-1.6-.34-6.04-1.03-5.69,1.55.24,1.79,1.12,3.42,1.22,5.24.1,1.76-.97,1.1-2.37,1.28-1.1.14-2.19.35-3.28.55-2.27.42-3.39.22-4.17,2.54-.74,2.19,3.67,3.11,5.02,3.73.56.55.65,1.41,1.28,1.91.38.3.84-.16,1.29.27.37.35,1.87,2.61.95,2.92-.34.08-1.03.59-1.41.41-.7-.32-.48-1.02-1.31-1.07-3.9-.23-1.38,10.42-1.18,12.23.27,2.43.65,4.36,1.41,6.65.56,1.69,1.46,3.25,1.99,5.03,1,3.38,4.19,6.4,6.27,9.12,2.17,2.84,5.59,5.89,9.26,6.5,1.73,2.03,3.1,3.41,5.67,4.11,2.12.58,4.3.94,6.48,1.2,4.82.56,9.71.57,14.55.29,2.63-.16,5.19.28,7.82.15,1.07-.13,1.02.98,1.86.5.63-.36.82-.73,1.66-.5,4.64.07,9.24-.59,13.69-1.91.96-.29,2.57-1.24,3.55-.83.97.4,1.25.17,2.11-.36,2.12-1.3,3.67-2.22,5.39-4.11,3.47-3.82,6.42-8.08,9.46-12.24,2.81-4.3,4.17-8.54,6.13-13.23.91-2.16,4.43-11.37-.69-11ZM16.29,72.38c-.19.03-.4-.45-.32-.64.48-1.12.61.59.32.64ZM18,72.67s-.08-.1-.11-.29c.02.11.07.19.11.29.13.11.26-.46.03-.38.68-.44,2.18-.41,2.74.09-.21,1.41-2.26,1.47-2.77.29ZM20.77,68.24c-.18-.78.95-1.61.32-2.23-1.12-.03-3.49,3.87-4.09,2.48-1.5-3.44,1.71-1.21,3.13-3.23,1.69-2.39-1.34-2.27-.96-4.36,1.12-.12,1.43.92,2.3,1.21-.17-.14.87-.33.83-.21,1.62-.96,2.63-3.03,4.86-1.95-.9,3.77,2.72,2.25,3.48,4.41,1.41,3.99-3.11-.18-3.91,2.17-.41,1.17.69,2.12-.53,2.94-.96.65-2.19.64-3.28.5-1.29-.16-1.02-1.95-2.15-1.73ZM27.16,83.22c-.93-1.02.73-1.39.96-2.23,1.21.31-.11,2.03-.96,2.23ZM29.78,82.44c-.16.23-.29.48-.38.78.11-.38.25-.63.38-.78.77-1.15,2.24-1.65,3.14-2.73.17.25.39.46.64.64-1.18,1.04-2.4,2.04-3.83,2.71.9-.53.51-1.14.06-.62ZM30.68,84.81c.17-.49.33-.02.32.32-.58.09-.66-.3-.32-.32ZM33.88,83.86c-.51-.11-.45-.17-.31-.17-.14-.26.51-.7.31-1.11.45.16.66.47.64.96-.32-.07-.53.03-.64.32ZM35.15,81.94c-.16-.17.23-.41.32-.32.17.16-.23.41-.32.32ZM37.71,85.13c.23.02.34-.09.32-.32,1.25.34-.32,1.93-.32.32ZM41.51,83.23c-.12.36-.54,2.47-1.88,1.26.07-.97,1.1-1,1.88-1.26,0,0,0,0,0,0-.68.23-.06-.32.02-.05,0,0-.01.02-.02.05.01,0,.02,0,.04-.01-.01,0-.03,0-.04.01ZM43.47,83.86c-.16-.17.23-.41.32-.32.17.17-.23.41-.32.32ZM44.75,85.45c.05-.16.11-.25.16-.31.36-.67,1.02-1.07,1.76-1.28,0,1.83-.1,1.59-1.92,1.59ZM73.2,83.22c-1.08-.53-.81-1.28.32-1.28-.13.42-.23.85-.32,1.28ZM99.73,49.11c.1,1.12.08,2.26-.07,3.37-.25,1.83-.92,3.54-1.66,5.23-.72,1.66-1.45,3.32-1.78,5.11-1.8,1-2.92.68-.96,2.23-1.09,2.22-2.55,4.22-3.99,6.22-.71.99-1.42,1.99-2.08,3.02-.62-.65-1.55-.15-2.24,0,.39.53.93.74,1.6.64-.86,1.25-1.38,2.93-2.87,3.61-1.22.56-2.35,0-3.55.66-.91.5-1.7,1.17-2.52,1.79.91.6,2.82-.67,3.83-.64-.66.56-1.32,1.19-2.17,1.44-.68.2-2.13-.56-2.5.13-.24.43.37.93-.12,1.31-.54.28-1.55.04-1.92.64-1.69-.6-.86-2.24-2.95-2.35-.02.02-2.54.04-1.7.45-2.57-1.26-.54,4.57-4.1,3.39-.87-.29-1.54-.96-2.44-1.17-1.12.16.11,1.34-.64,1.91-.65-.05-.15-1.06-.64-1.28-.68.36-.69,1.27-.64,1.91-.81.24-1.58.17-2.33-.21-1.19-.61-2.2-1.76-3.59-1.07-.73.36-1.32.92-1.75,1.6-.29-.54-.75-.11-1.07.09-.57.37-.7-.66.42-.73.04-.26-1.12-3.49-1.28-3.51-.08-.99,1.24-.69,1.28-1.59-.44-.68-1.13-1.1-1.92-1.28-1.58.42-.98,4.07.22,4.77,1.3.76-.65,1.91-.54.33-1.28.02-2,1.31-3.31.75-.96-.41-1.39-1.36-1.49-2.34.87.5,1.75,1.85,2.88.96-.33-1.15-1.42-1.64-2.29-2.31-1.03-.8-.99-2.17-1.87-3.11-1.69.47,1.51,3.88-1.92,3.82.21-.53-1.15-1.5-1.28-2.23-.69.25-3.64-.1-3.71-.38.12.45.8.8,1.16,1.02-1.76,2.93-4.01-1.15-6.08-1.59-.32-3.13-4.06-.64-5.75-1.28.03-.86,2.06-4-.59-3.08-1.32.46-2.79,1.86-3.88,2.76-1.61-1.53,1.44-3.08,1.28-4.78-1.39.09-1.85,1.26-2.56,2.23-.75-.2-1.64-.55-1.6.64-1.14-.2-.38-1.71.32-1.91,1.04-1.75,1.9-1.28,3.56-1.69,1.83-.44,2.72-2.04,3.78-3.42,4.85-.17,4.86-6.87.8-8.38-1.41-.53-.75-2.82-2.84-3.45-1.36-.41-2.93-.17-4.21.38-.65.28-1.3.67-1.74,1.25-1.13.1-1.47-.9-2.77-.46-2.07.71-2.24,3.12-1.7,4.92-3.23.15-4.04,2.95-3.84,5.74-2.07-.06-.79-4.44-.96-5.42-.41-1.1-.86-1.96-.64-3.19-.08-.5-.95-.07-.96-.64-.11-1.47,1.77-2.26,1.6-3.19-.95-1.51-3.41-.22-3.52,1.27-1.35-1.37,1.33-3.62,1.83-4.73.62-1.38-.81-1.57-1.65-.83-.53.47-.79,1.14-1.15,1.73-.87-.3-.64-5.07-.64-5.74.48.32,1.02.43,1.6.32-.15.69-1.74.67-.76,1.8.54.62,1.78.4,2.49.43,2.8.14,5.36.51,8.18-.33,7.44.29,14.88.56,22.32.89,7.34.32,14.5.68,21.84.27,2.77-.16,5.48-1.41,8.12-1.44,2.39-.03,4.87-.57,7.18-.67,7.52.08,14.91-1.31,22.38-1.91-.09.63-.87.64-.96,1.28ZM73.2,83.22c-.07-.6-.43-.21,0,0h0ZM37.71,85.13c0,.21.27.06,0,0h0ZM44.91,85.14c-.05.1-.12.19-.16.31.52,0,.39-.56.16-.31ZM78.31,49.75c-.41.02,8.19.09,0,0h0ZM22.31,61.9c-.18.11-.37.21-.58.28.41-.15.56-.24.58-.28ZM21.48,62.11s.11.05.25.07c-.09-.01-.17-.04-.25-.07ZM75.11,5.12c.21,0,0,.21,0,0,0,1.5,1.5,0,0,0ZM68.36,15.16c-.11-.08-.2-.22-.28-.48.36,1.23.39.89.28.48ZM68.08,14.68c.11,0,.22.25.28.48.64.46,1.79-1.86,2.6-.8.34,1.84-1.72,3.34-.64,5.1,2.19.26,4.19-1.62,3.2-3.83,2.13-.86,3.3-2.86,4.79-4.46,1.91.86,2.16,3.53,4.48,3.82,1.19-.61,2.57-1.99,3.62-2.87.98-.81,1.09,4.62,1.39,5.61.98,3.18,2.88.21,4.25,2.04-.7.89-1.58,2.34-1.1,3.52.42,1.02,1.53.74,1.95-.09.76-1.53,2.57-3.56,2.36-5.35-1.84-2.24-5.21,1.6-5.68-2.08-.22-1.76.21-3.91-.67-5.53-1.39-2.57-4.22.69-5.66,1.51-1.66.95-3.11-4.21-5.58-3.79-1.83,1.55-2.89,5.87-5.58,4.95-1.11-.38-2.54,0-3.38.79,0,.11-.5.95-.64.96ZM79.59,20.42c-.08.31-.14.62-.19.95-.07.75.62-.95.19-.95ZM86.69,35.62c1.53.19,1.53-.22,2.2-1.49,1.28-2.42-.13-3.54-2.58-3.51-1.49-1.57-3.23-2.93-3.84-5.1-.22-2.19.45-4.22.64-6.38-.19,2.15-1.52-.37,0,0-1.19-.29-4.11-.36-4.64.69-1.13,2.21-.79,4.5-.79,6.97,1.24,3.35,1.28,5.88,4.92,7.66,1.28.63,2.68.99,4.09,1.16ZM79.4,21.37c.02-.17.07-.47.19-.95h1.6c-.38,1.99-.38,4.04-.32,6.06.43,1.46,1.66,2.44,2.24,3.83.52.06,4.47,2.52,4.47,2.87-6.63.91-9.1-6.31-8.18-11.8ZM41.11,20c.2-.11.36-.2.44-.22-.43.15-.51.21-.44.22ZM41.55,19.78c.12,0,.23.03.34.05,0-.03-.09-.05-.34-.05ZM41.47,29.17c.11,1.25.59,2.52,1.99,2.73,1.03-.97.39-2.85.27-4.04-.17-1.66.6-7.51-1.85-8.03,0,.07-.64.2-.77.17-1.18.67-4.02,2.64-2.26,2.91.93.14,1.36-1.14,2.25-1.1,1.13.06.27,6.35.36,7.35ZM70.64,20.42c.13.04.25.09.38.14.03,0-.05-.04-.38-.14ZM72.22,25.74c.47-.28.48-.93.98-1.18.19.84.89,1.26.59,2.24-.16.53-.6.87-.67,1.44-.18,1.77,3.22.6,3.01-.31-.29-1.25-.6-3.91-1.77-4.53-1.24-.67-1.46-.36-1.97-1.63-.24-.62-.78-.98-1.37-1.22-.06,0-.57-.12-.44-.14-2.39-.04.35,2.14.38,2.87-.08.57-.05,3.21,1.26,2.45ZM71.6,31.26c-.05.81-.42-.43-.25-.35-1-1.33-2.76-1.26-4.02-2.21-1.38-1.05-3.02-1.66-4.54-2.44-2.94-1.51-6.09-4.03-9.41-4.56-4.98,0,1.27,3.22,2.58,4.05,3.2,2.02,7.56,3.43,10.21,6.15-.82.26-2.6-.05-2.56,1.28-.04.9.96,1.37,1.72,1.2,2.32-.5,1.81-2.09,4.35-1.2-3.07,5.12-10.57,4.49-14.71,1.27.28-1.03-2.04-4.71-2.4-5.89-.14-.49-.14-2.38-.27-2.63-.6-1.08-1.46,1.44-1.48,1.64-.43,5.72,3.35,11.57,9.48,11.71,2.41.06,13.64-1.55,10.01-6.11,1.08-.01,1.23-1.07,1.28-1.91ZM71.35,30.91c.08.11.17.22.25.35-.13-.23-.2-.33-.25-.35ZM108.67,34.34c-.42-.87-1.15-1.5-1.78-2.21-.94-1.06-.14-1.96-1.19-3-.88-.88-1.92-.54-2.77-1.38-.05-1.23-.59-2.21-1.28-3.19.61.88-3.05.03,0,0-2.62.03-6.91.39-7.38,3.59-.21,1.43-1.73,1.32-1.93,2.75-.16,1.09-.03,2.55-.43,3.4-.88,1.9-.57,7.23.39,9.11.64,1.25,2.48.36,3.01-.62.62-1.13.01-1.31-.36-2.22-.57-1.4,1.09-1.63.04-2.67-.38-.38-1.79-1.07-1.65-1.54-.29-1.31,1.47-1,1.28-2.23-.53-1.18-1.3-1.4-.54-2.67.78-1.3,1.69-.25,2.78-1.16.2-.96-1.37-1.74-.64-2.55.64-1.23,2.19-.94,2.88,0,.84.33.79-.84,1.36-.88.64-.04-.13,2.76-.09,3.11.84.19,1.09.75,2.13.67,2.78-.23.37,1.8,1.39,3.16,1.33.73,2.04-.82,2.79.24.61.86,1.08,1.39.31,2.41-.68.91-1.78,1.38-2.79,1.81-.09.96-.89,1.61-1.34,2.39-.63,1.1.01,2.98,1.25,1.47,1.12-1.37-.49-1.9,1.49-2.41,2.37-.61,4.19-3.05,3.06-5.38ZM36.43,29.67c-.06.09-.13.15-.19.23.06-.05.12-.11.19-.23ZM33.27,31.86c1.11-.43,2.23-1.01,2.97-1.97-.46.39-.23-1.41.01-1.04-.84-2.61-4.12-3.34-6.53-3.34-3.39,0-6.01,1.13-8.48,3.49-2.2,2.1-4.14,4.6-4.01,7.69.1,2.66.88,5.49,4.01,4.26,1.54-.6,2.87-2.37,3.9-.85.77,1.13,1.77,2.06,2.82,2.93,1.56,1.28,5.9,1.51,7.2-.18,2.13-2.76-.24-5.12-1.6-7.52-.74-1.32-1.98-2.85-.3-3.49ZM30.93,35.29c.91,1.41,2.79,4.13,2.63,5.85-2.07,0-3.02-.75-4.26-2.13-.42-.44-.81-.9-1.17-1.38-.54.23-1.08.25-1.62.04-1.35-.68-1.33-1.8-2.97-.68-.88.6-1.64,1.23-2.76,1.28-.39-2.81,1.61-4.35,3.48-6.09,1.01-.94,1.9-1.99,3.17-2.58,1.11-.52,2.43-.88,3.27-1.85-1.09,1.27,1.2.09.29,0,1.18.02,1.88.73,2.9,1.28-.88.67-1.85,1.21-2.88,1.59-.2.56-.43,1.11-.69,1.65-.76,1.24-.19,1.76.62,3.02ZM36.25,28.86c.08.25.15.52.18.81-.05-.47-.12-.71-.18-.81ZM57.21,32.85c.51-1.17.78-4.5-.96-4.46-.53,1.15-1.56,4.73.96,4.46ZM63.33,30.9c-.17.19-.85-.86-.35-.73-1.77-.61-4.22,1.94-3.85,3.64,1.5.29,4.04-1.23,4.2-2.91ZM63.33,30.9c.05-.06.06-.23-.04-.6.05.2.06.4.04.6ZM62.98,30.17c.1.04.21.08.3.13-.13-.08-.23-.12-.3-.13ZM48.53,31.55c-1.07-.73-2.64.26-3.79.35-.07,1.1,1.36,1.13,1.28,2.23-.14,1.35.93,3.29,2.27,1.95,1.16-1.15.11-2.7.6-4.18-.4,1.19-.86-.56-.37-.35ZM48.53,31.55c.13.09.26.2.37.35-.16-.21-.28-.31-.37-.35ZM81.83,43.37c-.39-.03-.72-.2-1.01-.44-.16.16,0,.36,1.01.44ZM81.83,43.37c.98-1.36-.51-3.4-1.18-4.56-1.24-2.16-1.89-3.31-4.73-2.51-5.18,1.47-2.23,5.66-.8,8.98,5.48-.99-1.35-5,1.21-6.66,2.32-1.5,2.74,2.87,4.49,4.3.3-.29,1.66-.46,1.01.44ZM47.4,39.98c.51.84.94,4.47,2.35,2,.83-1.45,2.47-.95,4-1.87,1.26-.76,1.59,2.47,2.95,2.63,3.25.39-.36-3.26-.98-3.93-2.11-2.28-3,.48-4.59,1.25-.05.03-.13.07-.3.12-.49-.32-1.02-.43-1.6-.32-.14-.59-.44-1.07-.9-1.46-.99-.81-2.41-.85-3.58-.46-.5,1.21-.64,1.75-.64,3.19.42.11.81,1.68,1.28.64-1.36-1.22.79-3.83,2.01-1.8ZM50.82,40.18c.1-.03.2-.07.3-.12.24-.15-.61-.1-.3.12ZM58.17,43.69h2.24c.35-2.22-2.73-2.53-2.24,0ZM18.85,43.37c-.73-.23-1.63-.28-2.24-.64-.25,1.23,1.96,1.85,2.24.64ZM46.25,62.03c-.44-.04-1.24.03.09.15-.02,0-.05-.05-.09-.15ZM59.15,58.49c-1.3-.68-1.54-1.98-2.9-2.87-1.26-.82-3.48-.65-4.79.18-2.3-1.89-5.47-.16-6.12,2.18-.14.48.62,3.36.91,4.05.21.02.33.07.09.15-3.27-.27-5.35,1.64-4.18,4.84.46,1.24,1.38,2.18,2.26,3.13,1.65-.38,1.83.75,2.74,1.34,2.55,1.66,5.48.79,8.24-.11,1.75-.58,2.11-2.28,4.04-2.82,1.42-.4,2.01-1.03,2.88-2.23.45-3.35.18-6.09-3.17-7.84ZM55.11,65.08c-1.36,1.38,1.12,3.15-.68,3.78-1.59.56-3.19.98-4.89.97-.17-1.06.72-2.31-1.06-2.54-1.01-.13-2.05.63-2.96.01-.6-.41-1.73-2.25-.56-2.52.84-.19,2.14.32,2.83-.3.97-.88-.26-1.52.51-2.16.95-.79,1.12-1.12.32-2.26-1.68-2.39,1.33-3.07,1.24-1.07.02-.56.26.27,0,0,2.02,2.16,5.05-3.96,5.81,1.06.29,1.89,1.01,1.95,2.53,1.28,1.19-.53,1.55,1.67,1.58,2.45.19,4.17-3.33-.04-4.67,1.3ZM78.39,56.83c-1.23-.21-2.73-.28-3.32.94-.49,1.03-.55,2.57.05,3.55.64,1.03-1.91.53-2.39.58-3.72.39-5.02,2.25-3.93,5.88.42,1.39,2.05,2.36,3.44,2.69.6.97,1.44,1.78,2.43,2.36,2.48,1.44,5.74,1.58,7.85-.29.45-.4.43-2.01.91-2.07,1.15-.56,2.58-.83,2.8-2.2.16-.99-.22-2.02.45-2.84.37-.36.57-.81.58-1.34,0-1.5.29-2.74-.64-3.93-.27-.35-1.79-2.42-2.24-2.44.27-1.01-.81-.56-.96-1.27.11.53-1.25.07-.49,0-1.59.04-3.1.63-4.55.39ZM82.15,58.99c-.54,2.66,1.13,3.03,3.2,2.23,0,2.27.16,1.92-1.6,2.55-.19,1.39,1.31,3.8-.61,4.04-1.05.13-2.67-1.21-3.12.24-.27.87.05,1.87.22,2.73-1.34.11-2.88.15-4.11-.48-1.15-.59-.36-1.19-.92-2.15-1.11-1.89-3.54.86-4.18-2.1-.45-2.08,3.32-1.23,4.66-1.41,1.58-.2,2.4-1.59.72-2.47.95-.74.33-1.89.32-2.87,1.16,0,.55,1.85,1.92,1.59,1.67.01,1.63-2.26,3.52-1.91ZM78.63,60.9c-1.45.28,1.83.02,0,0h0ZM82.94,56.44c.16,0,.32,0,.49,0-.22-.01-.37,0-.49,0ZM53.38,61.86c-1.25-.17-2.29-.92-2.75.7-.26.93-.22,2.14.44,2.91,1.94,2.23,3.07-1.16,2.52-3.07-.07.15-.77-.61-.21-.53ZM53.38,61.86c.09.16.16.34.21.53.02-.05-.02-.21-.21-.53ZM24.61,65.69c-.34.35-.16-.65-.06-.63-.26-1.46-1.38-3.53-2.49-1.35-.98,1.93,1.12,3.48,2.54,1.98ZM24.55,65.06c.04.23.06.45.06.63.02-.47-.02-.62-.06-.63ZM79.21,63.52c-1.06.43-1.16,2.06-.44,3.09.63.9,1,.63,1.74.16,1.33-.85.24-2.15-.28-3.31.22.48-.64.26-1.02.06ZM79.21,63.52c.28-.11.61-.15,1.02-.06-1.32-.27-1.34-.11-1.02.06ZM38.22,75.53c-.97-.53-2.5-.14-2.36,1.2.1,1.03,1.17,1.14,2.04,1.07,1.2-.09.78-1.1.78-1.92,0,.28-.32-.11-.46-.36ZM38.22,75.53c.17.09.33.21.46.36-.56-.67-.58-.58-.46-.36ZM49.61,78.62c.3.27-.66.43-.51,0-.86,1.28.34,2.78,1.89,2.68,2.06-.14-.28-2.05-1.39-2.69ZM49.61,78.62c-.06-.06-.18-.12-.39-.19.09.03.23.09.39.19Z"/>
    </g>
  </g>
</svg>