<?xml version="1.0" encoding="UTF-8"?>
<svg id="Layer_2" data-name="Layer 2" xmlns="http://www.w3.org/2000/svg" viewBox="0 0 114.51 55.13">
  <defs>
    <style>
      .cls-1 {
        fill-rule: evenodd;
      }
    </style>
  </defs>
  <g id="food_icons" data-name="food icons">
    <g id="salami">
      <path class="cls-1" d="M101.06,17.35s0,0,0,0c-.05-.32-.45-2.3,0,0ZM113.17,22.48c-.97-.4-2.28-.62-2.84-1.63,0-2.59.27-5.78-1.23-8.1-1.72-2.68-4.14.02-5.16,1.72.05.96-2.77,2.9-2.87,2.87,0,.05,0,.06,0,0-.42-2.16-.98-4.29-1.57-6.41-.53-1.89-2.04-3.01-2.91-4.75-2.83-1.92-5.57-4.01-8.77-5.31-4.13-1.68-8.94.44-12.97,1.49-2.43.07-4.71-.76-7.04-1.32-2.53-.61-5.19-.23-7.73.12-2.81.39-5.65.92-8.5.66-1.16-.11-1.96-.57-3.05-.11-1,.43-1.96.31-3.01.27-4.58-.19-8.97-.66-13.42-1.62-4.54-.97-9.72.05-13.93,1.91-1.81.8-2.54,2.27-3.08,4.08-.43,1.43-3.18,3.15-4.27,4.37-3.02,3.38-5.67,8.88-6.93,13.31C1.63,28.09.97,32.97.04,37.43c-.4,5.15,2.07,8.47,5.65,11.81,3.38,3.16,7.7,3.28,11.94,4.76,1.38-.14,2.52.41,3.84.64.97-.38,1.95-.15,2.95-.17,2.46-.05,4.91.34,7.4.4,4.94.12,10.39-.97,15.24-.03,4.92.95,9.12-.69,13.97-1.24,2.46-.28,4.98-.01,7.41-.42,2.35-.4,4.63-1.08,6.91-1.71,2.52-.7,5.11-.89,7.37-2.2,1.78-1.03,4.04-.85,5.5-2.12,1.81-1.57,3.76-2.98,5.5-4.62.93-2.23,2.56-4.03,3.84-6.06,2.2,1.83,2.98,4.95,6.34,4.73,1.93-.12,6.39-.3,5.04-3.22-.42-.91-.94-1.7-.94-2.74-.02-1.71,1.53-1.14,2.82-1.3,2.85-.35,3.05-4.62,3.36-6.93.25-1.77.99-3.71-.99-4.54ZM107.13,15.43c-.06.36-.32.18-.32,0,.06-.36.32-.18.32,0ZM107.13,17.98c.74.25.31,1.97-.64,1.59-.24-.98.88-.61.64-1.59ZM101.38,24.36c-.38-.05-.27-.58-.32-.96.66.18.67.5.32.96ZM39.04,3.64c-.77,1.05-1.53-.89,0,0h0ZM21.07,46.92c-1.88,2.09-2.63,2.5-5.33,2.91-2.42.36-1.34-2.45-1.63-4.11-1.31.18-1.39,3.47-2.78,2.84.12.06.21-1.73-.13-2.07-.95-.94-1.36,1.03-2.21.18.32-1.51-.93-1.79-1.04-3.11-.06-.74.43-2.01-.3-2.48-1.6-1.03-2.08-.44-1.63-2.79.26-1.38-.21-2.32.82-3.32.7-.67.88-4.23.55-5.19-.97-.15-.86.75-1.28,1.27-.79-.05.35-2.53.64-2.55.21-1.94.95-2.36.32-4.14.49-1.86,1.47-3.5,2.31-5.21.52-1.07.46-1.9,1.58-2.28.43-.12.73-.39.91-.8-1.41.4-.96-1.08,0-1.28.55-1.09,2.04-2.17,1.92-3.51.6-.47,5.31-4.67,5.31-4.64,0,.1-.36.53-.52.49.27.06-.31.97,0,0-.31.97-1.56,1.09-1.6,2.23,1.24.66,2.95-2.47,4.13-2.89,1.15-.41,1.38,1.1,2.51.59.16-.6.51-.74,1.02-.41.35.21.68.16.97-.15-.83-.92-5.17.27-2.88-2.08.77-.8.96-.6,1.46-1.57.56-1.05.75-1.19,2.01-1.22,1.96-.03,3.77.51,5.48,1.42.75.4,1.48.83,2.24,1.21-.33.73-.47,1.62.11,2.27.53.58,1.38.81,2.12.92.35,1.07.52,2.19.74,3.28.14.71.13,3.97.54,4.37-1.08,4.52-.67,9.45-2.27,13.75-.49,1.31-4.63,9.82-7.04,5.85-1.83-3.01-5.29,1.17-5.43,3.51-.06,1.01-.08,1.78.52,2.65.46.66,1.84,1.04,1.12,1.81-.52.55-.84.92-.64,1.75-.98.71-1.82,1.59-2.63,2.48ZM26.58,40.3c-2.52-.36-1.65-4.49.96-4.14,1.02,1.59-.78,2.73-.96,4.14ZM28.07,49.54c-.19.25-.61,1.38-.54,1.91-1.83,0-3.63-.5-5.43,0-.25-1.78,2.61-.27,2.88-1.59.78,1.73,2.35-.28,3.1-.32,0-.01.02-.02.03-.03-.14-.1.04-.31.07.03-.03,0-.06,0-.1,0ZM35.21,50.18c.48-1.77,1.05-.09,1.92-.32-.04.71-1.53.19-1.92.32ZM94.34,32.65c-1.05.32-.52-1.11-.64-1.59.03-.15.05-.25.07-.32.22-1.06.56-2.09.57-3.19,1.19,1.64-.97,3.52,0,5.1ZM97.08,24.33c-.51.93-1.76,2.03-3.06,1.94.08,1.05-.72,1.82-.64,2.87-1,.12-1.09-.93-1.69.36-.38.83-.52,1.77-.61,2.67-.06.55.02,4.4-1.21,3.35-.07,1.59.3.73-.64,1.91-.6.15-.67-.3-.69-.75-.08-2.04-1.32.38-1.46,1.16-.42,2.43-1.48.8-2.6,2.25-.44.57-.87.93-1.65.84-.72.26-.79,1.11-1.28,1.59-.57-.34.61-2.88.08-2.77-.9.18-2.31,2.61-2.98,3.25-1.3,1.25-1.26,2.52-3.12,3.07-4.32,1.27-8.25,1.79-12.68,2.13-4,.3-7.95,1.74-11.99,1.01-4.02.59-8.11.23-12.15.64,2.79-3.06,9.79-1.59,13.55-1.59,5.06,0,10.16-1.05,15.12-2.01,1.48-.29,4.49-.51,4.89-2.46-.65-1.42-2.04-.34-2.72-1.27-.75-1.03-4.26.26-5.42.12-1.8-.22-3.67-.02-5.4.49-2.26.66-2.21.12-4.28-.36-1.33-.3-.8.87-1.96-.29-.4-.72-.91-.8-1.53-.25-1.54.58-2.21,1.79-3.21.44-.89-1.2-2.13,1.4-2.81-.14-.77-1.73-6.47,3.17-7.07,3.93-1.12,1.41-3.17,1.17-4.35,2.68-.26.34-2.02,1.4-2.04,1.21-.03-.42,2.55-2.19.55-2.33-.44-.03-3.12.86-3.1,1.06-.1-1.23,2.89-1.26,2.76-3.04-.63-.56-3.42.86-3.39,1.13-.03-.28.91-1.18.26-1.43-.75-.29-1.49-.28-.75-1.4,1.42-2.15,3.16-4.12,4.19-6.53,1.1-2.57,3.97-3.79,4.81-6.75,1.04-.09,2.74-.06,3.2-1.27-.4-.9-1.63,0-2.24,0,.11-1.11.65-2.03,1.01-3.06.57-1.63.56-.87,2.1-1.17,1.22-.24,2.2-.97,2.64-2.14-1.07-.8-2.22.13-3.14.65-.04.03-.45.2-.7.31,0,0,0,0,0,0-.3.13-.2.09,0,0-.46.17-.63-3.17,0,0h0c-.41-2.04-.18-4.06.33-6.06.64-2.45.6-1.95,2.74-2.23,1.24-.16.83-1.68-.36-1.5-.36.05-2.18-.02-1.35-.69.46-.37,1.71-1.67.55-2.19-.45-.2-1.25.42-1.58-.09-.02-.65-.18-1.26-.46-1.84-.68-1.51-1.56-3.07.85-2.96,1.37.06,2.64.02,3.92-.51,1.22-.51.97-1.09,2.33-.87.65.09,1.31.16,1.97.21,1.87.15,3.42.27,5.14-.72,3.35-.11,6.64-.89,9.98-.99,3.71-.11,7.76.84,11.22,1.84.51.15.87,1.13,1.43.68.15-.29.38-.49.7-.58.83.19,1.61,1.07,2.24,0,1.24.64,1.63,2.1,3.2.32,1.73.82,3.25-.35,4.8-.96-.57-.93-2.1-.35-2.88-.96,1.03-1.12,3.08.28,3.75,1.05,1.03,1.18,1.67,1.02,3.07,1.19,3.03.36,5.06,5,5.59,7.62.73,3.55,2,7.01.24,10.2ZM110.41,26.27c-.23,1.28-.43,2.56-.72,3.83-.69.06-3.18-.96-3.55-.03-.53,1.35-.57,2.86-.92,4.55-.19.93-.35,1.86-.32,2.82-.31-.07-.52.03-.64.32-2.27.44-2.93-4.49-5.76-3.83.61-1.02.75-2.31,1.6-3.19.87.31.16,2.75,1.96,1.26,1.15-.95.16-2.86-.58-3.72-.76-.89.93-2.31,1.82-2.96-.91-1.59,1.05-2.12,1.28-3.51-.98-.58-2.16-.08-3.2,0-.14-.96.85-.8.96-1.59.68.16,1.22.63,1.93.7,1.6.17.54.1,1.3,1.28.61.93,2.55,1.14,3.64,1.9,1.26.87,1.51.45,1.2,2.18ZM93.77,30.74c-.02.11-.05.21-.07.32.12.52.19-.75.07-.32ZM28.1,49.51s.04.02.07.03c0-.07-.03-.06-.07-.03ZM35.21,50.18c.56-.18.12-.42,0,0h0ZM102.34,20.22c-.1.75.94.22,0,0h0ZM39.68,24.36s0,0,0,0c0,0,0,0,0,0,0,0,0,0,0,0ZM28.81,4.92c-.3.85-1.57,1.78-.64,2.87,1.2.09,1.74-2.63.64-2.87ZM56.62,7.46c-.1,1.2,2.01,2.36,2.56.96-.77-.41-1.18-1.16-2.56-.96ZM26.58,7.78c.15.07.27.17.4.26-.07-.08-.19-.16-.4-.26ZM23.1,14.7c-.02.14-.04.28-.05.42.1.07.2.11.3.15.74.21-.04-1.77-.26-.57ZM23.24,18.63c2.39-.15,5.55-2.07,5.62-4.63.05-1.99-.04-4.74-1.89-5.96.48.55-2.38.51-1.86.14-1.84.67-3.35,1.93-4.22,3.77-1.17,2.48-1.7,6.92,2.34,6.67ZM23.1,14.7c.21-1.71,1.2-3.03,2.83-3.72-.14,1.01.52,1.84.32,2.87-.59.93-1.74,1.95-2.89,1.43-.08-.02-.18-.07-.3-.15,0-.17.03-.31.05-.42ZM25.12,8.19c.47-.17.95-.31,1.46-.4-.88.16-1.3.29-1.46.4ZM55.34,29.46c-.49.12-.92.01-1.28-.32,1.7-1.28.44-1.61,1.06-3.1.69-1.66-1.81-1.09-2.02-2,2-1.21-.38-3.66.63-4.95,1.81-2.32-.82-1.32-.95-2.38-.26-.83-.36-2.05-.29-2.52.12-.82.06-1.18-.56-1.57-.07-.05-1.4-3.12-1.38-3.56-.05,1.57-1.03-.07,0,0-.93-.06-1.6.51-2.56.32-.12,1.33,1.11,1.15.07,2.25-.5.52-.42,1.38-.32,2.02.4,2.42.53,1.51,2.16,1.79-.22.7.89,1.67.91,2.67.02,1.27.86,3.23,0,4.29-1,1.23-.06,1.78-.26,2.93-1.1.97-.92,2.14-2.32,2.98-1.78,1.07-2.04,1.53-.69,3,.66.72,2.1.26,2.26.83.53,1.9,5.3-1.09,5.54-2.66ZM89.23,17.03c.31,0,0,.85,0,0v2.55c1.85-.22,1.2-3.26,1.28-4.46-1.58.1-.25-2.76-1.07-3.88-.69-.94-.67-2.57-2.22-1.95-1.1.43-1.64,3.86-1.85,5.18-.46,3.04.33,1.1,1.39,1.04.67-.04.03,2.88,1.6,2.14.36-.17,1.01-1.26,1.19-1.26-.07.25,0,.63-.32.64ZM79.44,27.33c-.57-.27-.59-.58-.05-.95.05-.66-.8-1.03-.71-1.7.45-.3.66-.73.64-1.27.11-1.48-2.03-1.43-1.62-2.57.19-.51,1.17-1.12.6-1.83-.71-.89-.16-1.73-.45-2.8-.11-.42.59-2.64-.68-1.97-1.01.54-1.07,1.44-1.55-.34-.27-.99-.84-1.85-1.82-2.2.86.38-.46,1.15-.33.25-.52,2.43,2.92,4.82,1.56,7.48-.45.89-.55,1.75-.2,2.71-.43.31-.71.71-.85,1.22-.44,1.7.4,1.44,1.53,1.61.45.07-.05,1.97-.03,2.26.42.23.72.56.91,1.01.92,1.8-.4,1.54-.28,3.32.15,2.24,3.79-1.76,4.09-2.61.3-.83-.13-1.24-.77-1.62ZM17.94,14.8c-1.11-.79-2.05.78-2.24,1.91,1.42,1.11,1.99-.85,2.24-1.91ZM27.14,19.32c-1.4,2.78,1.67.84,2.31.58-.76.31.76-1.59,0,0,.76-1.59,1.58-3.15,2.24-4.78-1.36.4-3.9,2.91-4.55,4.2ZM11.87,16.07c.46-.2-.04-.39,0,0h0ZM63.33,17.67c.32,0,0,.32,0,0,0,2.25,2.26,0,0,0ZM41.28,20.85c1.51-.3,3.23-.39,3.2-2.23-1.66.15-3.13.49-3.2,2.23ZM29.33,20.42c-.64.9.63.35.76,1.08-.32.13-.22,2.46-.4,3.08-.42,1.51.81-.18,1.05-.89-.01-.09-.02-.18-.02-.28.08,0,.08.12.02.28.1.6.54.88-.34,1.32.28-.14.04.57,0,0,.11,1.6-.93.59.64,2.23.48-.04.87-.25,1.17-.63.65-.91.3-2.32-.21-3.2,2.46.2-.61-3.81-.96-4.46-.91-.14-1.36.98-1.72,1.47ZM16.08,26.58c1.01-1.44.91-2.39.91-4.14.28-1.14-.54-1.53-.64-2.55.1.96-1.18-.2,0,0-3.07-.53-5.25-.78-7.4,2.09-1.46,1.94-1.33,6.27,1.22,7.43,2.4,1.09,4.57-.92,5.92-2.83ZM10.83,24.29c.95-2.02,4.29-3.79,3.45-.08-.27,1.21-1.03,2.18-2.25,2.54-1.69.51-.6-.99-1.44-1.75.1-.67.19-.8.23-.71ZM10.83,24.29c-.11.24-.2.48-.23.71.28.26.32-.56.23-.71ZM24.16,23.52c.47-.02.96.03,1.46.2-1.13-.37-1.48-.35-1.46-.2ZM25.94,29.78c.1-1.34.87-1.86.52-3.45-.2-.9-.58-1.73-.84-2.61.29,1.01-1.42.12-1.46-.2-3.48.17-5.97,4.96-3.79,7.92,1.03,1.4,4.57-.63,5.57-1.67ZM23.7,25.96c.98,1.31-.06,3.33-1.6,3.19-.25-1.84,1.05-2.14,1.6-3.19ZM104.57,24.04c.39.36.58.91,1.6.64.49-1.38-1.46-1.72-1.6-.64ZM89.87,24.36c-1.14.82-.41,2.73,1.6,2.23.14-1.42-.18-2.37-1.6-2.23ZM83.16,25.96c.21,0,0,.21,0,0,0,1.5,1.5,0,0,0ZM14.75,32.97c1.45-.22,2-2.68.8-2.57.58,0-.08,1.09-.16.02.12,1.64-1.51.8-.64,2.55ZM53.75,33.61c1.79-.02,2.98-.64,3.52-1.91-1.97-.16-3.18.44-3.52,1.91ZM75.17,31.69c-.52.38-1.17,2.02,0,2.23.3-.27.68-2.03,0-2.23ZM10.27,32.65c-.27.69-.83,1.09-.64,2.23,1.6.61,1.7-2.11.64-2.23ZM21.14,37.11c-.11,0-.2-.04-.3-.06.03.03.12.05.3.06ZM21.14,37.11c.95-.46.81-.52.47-.45-.11.19-.26.35-.47.45ZM17.83,39.49c.18-.99.15-2.01.11-3.02.92-.47,1.3-1.48,1.92-2.23-.02.92-.14,2.52.98,2.81-.11-.11.43-.32.77-.39.95-1.6-1.44-5.73-3.77-2.61-.22.29-.01,1.08-.53,1.15-.86-.26-1.78-.31-2.67-.15-1.64.3-3.08,1.34-3.95,2.75-.85,1.38-1.1,3.09-.49,4.61.7,1.74,3.38,1.13,4.86.76,1.46-.36,2.52-2.34,2.76-3.68ZM15.69,37.76c-.13,1.49-1.27,5.01-2.55,2.55-.8-1.55,2.28-3.62,2.55-2.89-.01.01,0,.17,0,.35.01-.12.02-.24.01-.33.04,1.23,0,.74-.01.33ZM66.53,33.61h.32c-.11,0-.09-.52,0,0,.04-.34.15-.66.32-.96-1.85-.31-3.07,1.3-4.69,1.56-.78.13-1.3.41-1.06,1.31,1,.84,1.97-.36,2.88-.64,0,1.82.98,1.43,2.48.88.97-.36,1.58-1.11,1.67-2.15-.37,0-1.88.2-1.92,0ZM7.99,33.15c-.28.01-.48.17-.6.46.47-.45,0,.74,0,0v2.23c1.73.28,1.97-1.2,1.92-2.55-1.22-.47-.46,1.84-1.32-.14ZM38.4,34.24c.48.51,1.82.47,1.6-.64-.8-.05-1.33.16-1.6.64ZM20.82,40.62c.35.08-.25,1.66,0,0-.25,1.63-3.79,2.3-1.54,4.08,1.11.88,3.19-3.71,1.54-4.08ZM23.06,41.58c-.09-.09-.48.15-.32.32.09.09.49-.15.32-.32ZM74.16,42.4c-.98,1.1.04,1.78,1.12,1.73-.23-.03.52-.33.21,0,1.08-1.1-.08-3.11-1.33-1.72ZM75.49,44.12c-.07,0-.14,0-.21,0,.04,0,.1,0,.21,0ZM22.1,42.21c.24.98-.88.61-.64,1.59,1.12.52,1.93-1.72.64-1.59ZM15.71,45.72c1.5-.41,2.13-1.7,2.56-3.19-1.43.49-2.96.87-2.56,3.19Z"/>
    </g>
  </g>
</svg>