<?xml version="1.0" encoding="UTF-8"?>
<svg id="Layer_2" data-name="Layer 2" xmlns="http://www.w3.org/2000/svg" viewBox="0 0 79.65 111.01">
  <defs>
    <style>
      .cls-1 {
        fill-rule: evenodd;
      }
    </style>
  </defs>
  <g id="food_icons" data-name="food icons">
    <g id="salt_pepper" data-name="salt&amp;amp;pepper">
      <path class="cls-1" d="M15.34,0c.21,0,0,.21,0,0,0,1.5,1.5,0,0,0ZM56.79,4.57c.75.46,1.4-.28,1.43-1.03-.08-.07-.26-.52-.11-.43-1.06-.96-2.84.53-1.31,1.45ZM58.18,3.19c.03.12.04.24.04.36.04.04.05-.03-.04-.36ZM48.52,6.94c-.19.5-.32-.76-.02-.37-1.37-2.26-3.95-.79-2.79,1.73,1.46.42,2.4.23,2.81-1.35ZM20.78,5.74c.32,0,0,.32,0,0,0,2.25,2.26,0,0,0ZM62.57,11.42c1.32-.07,2.62-1.25,2.96-2.49-.92-.23-1.64-.81-2.58-.93.54.11-1.04.56-.3-.03-1.1.87-2.78,3.59-.08,3.45ZM62.66,7.97c.1,0,.2.01.3.03-.07-.01-.16-.02-.3-.03ZM13.74,9.88c.25-.39.36-.81.32-1.28h-.96c.32,0-.09.73,0,0-.17.65.04,1.07.64,1.28ZM55.56,15.24c.92-.92.3-1.61-.58-2.49.21.21-.35.12-.78,0-1.16.2-1.81,1.41-.93,2.56.71.92,1.53.69,2.28-.06ZM54.98,12.75c-1.65-.34-1.32-.15-.78,0,.24-.04.5-.05.78,0ZM21.1,17.53c.72.09,1.2-.08,1.28-.64-.48-.5-1.43-.36-1.28.64ZM61.73,19.39c2.44.5,2.03-1.26,2.2-2.49-.02.17-.44.12-.69.05-1.48.35-3.3,2.07-1.5,2.44ZM63.93,16.89c-1.09-.16-1-.03-.69.05.25-.06.48-.08.69-.05ZM13.11,18.17c.21,0,0,.21,0,0,0,1.5,1.51,0,0,0ZM53.37,22.84c.25,1.04,1.18,1.21,2.1.86,1.26-.48.79-1.52.79-2.66,0,.4-.46-.18-.63-.5-1.24-.59-2.6.83-2.26,2.3ZM55.63,20.54c.22.1.43.26.63.5-.73-.87-.78-.77-.63-.5ZM20.46,24.23c-.03-.68-.41-1.1-1.03-1.22.13.09-.39.24-.33.06-.8.98.37,2.02,1.36,1.16ZM19.43,23s-.1-.04-.25-.05c.09,0,.17.03.25.05ZM11.83,25.82h-.96c.32,0,0,.32,0,0,0,1.79,1.11.87.96,0ZM17.9,26.46c0,.42-.74-.1,0,0-3.16-.43,0,3.21,0,0ZM79.15,98.16c-.28-2.63.12-5.07-.33-7.68-.45-2.63-.88-5.26-1.3-7.9-.84-5.25-1.67-10.5-2.67-15.72-.57-2.95-1.19-5.89-1.92-8.81-.29-1.15-1.94-4.64-1.41-5.64.9-1.72-.27-2.46-.9-4.08-.71-1.8-.41-4.14-2.13-5.36-1.76-1.24,1.83-3.2,2.61-4.49.82-1.33,1.09-2.47,1.19-3.92.21-3.13-1.11-5.51-3.24-7.77,1.03,1.1-2.13,0,0,0-5.21,0-10.22.68-15.44.93-1.78.08-5.03-.03-6.17,1.59-1.12,1.59-1.39,3.71-1.44,5.6-.06,2.06-.16,4.28,1.58,5.64.76.59,2.35,1.39,2.88,1.99.47.53-1.12,6.1-1.22,7.06-.24,2.38-.36,4.78-.66,7.15-.71,4.86-.34,9.8-.96,14.66,0,5.53-.68,10.5-1.55,15.95-.71,4.45-.52,9.2-.37,13.7.73,1.27.67,2.82,1.28,4.14-.05.68,1.3.21,1.6.32.1.74,2.53,2.11,3.15,2.44,3.6,1.9,8.96.71,12.84.43,3.08-.04,6.58-.69,9.64-1.33,2.12-.44,3.52-.75,4.85-2.64,1.14-1.62.28-4.37.08-6.26ZM48.27,90.21c.06-.36.32-.18.32,0-.06.36-.32.18-.32,0ZM51.79,41.12c-.76,1.03-1.29-1.12,0,0h0ZM53.7,32.2c-1.09-1.31-3.53-.98-4.15.64-1.26-.36.48-1.77.97-1.9,1.54-.42,3.56-.24,5.32-.38,3.47-.26,6.9-.95,10.38-.99,2.25-.03,2.62.26,2.8,2.5.14,1.63.9,2.55.28,4.18-.88,2.31-3.15,3.45-4.73,5.2-1.72.07-3.41.45-5.12,0-.66-.53.02-1.7-.64-2.23-.99.43.6,1.41-.32,1.91-.79.19-1.13-.51-1.92-.32.13-1.01,2.08-2.02.06-2.69-.66-.22-1-.9-1.34-1.45h-2.88c.51-1.7-.76-3.03,1.28-4.46ZM53.7,87.66c-.17-.16.23-.41.32-.32.17.17-.23.41-.32.32ZM54.02,87.03c-.16-.17.23-.41.32-.32.17.16-.23.41-.32.32ZM54.34,86.39c-.17-.17.23-.41.32-.32.16.17-.23.41-.32.32ZM55.84,83.41c-.08.39-.99,2.33-1.1,2.22-.22-.28-.14-.45.24-.52-.96.06,0-.32,0,0,0-2.25-.87-.16-1.92-.32.76-.96.21-2.72.32-3.82,1.39.08,2.7,1.17,2.45,2.44ZM57.93,98.66s-.02.1-.08.16c-.73-.59-1.28-1.22-1.28-2.23.69-.12.86.53,1.6.32.12.62.03,1.2-.25,1.75ZM58.18,86.39c-.27.02-.33-.07-.3-.15-.2-.35.06-1.21-.02-1.44,1.79-.31.32,1.18.32,1.59ZM62.98,105.2c-.91-.43.24-1.42.32-1.91.75.27-.27,1.4-.32,1.91ZM63.36,87.81c-.31.95-.88,1.79-1.67,2.4.03.35-.46.19,0,0-.47.2.1-1.17,0,0,.09-1.05.8-1.84.96-2.87-.5-.68-3.22,3.44-3.84,3.51.63-1.85,2.27-3.3,2.11-5.38-.1-1.27-.32-1.2-1.34-1.09-.99.11-1.38-1.27-1.91-1.86-1.4-1.55-4.35-2.91-4.36-5.18,0-1.75.77-3.28,1.03-4.98-.47-.04-.68.17-.64.64-1.21-1.07,0-5.79,0-7.2,0-3.35.32-6.51.32-9.87,0-2.03.29-3.97.34-5.96.04-1.4-.46-2.65-.34-4.06,1.22-.73.73-2.04,2.49-1.31,1.41.58-.04,1.26,1.03,2.26,1.31-.39.16-2.01.32-2.87,1.05.05,2.2.07,3.2-.32-1.38,1.46-1.76,2.61-1.24,4.61.54,2.06,1.76-.82,1.88-1.43-.08-.01,1.9,3.45,1.6.27-.12-1.31-1.47-2.16-1.6-3.46,2.13,0,4.16-.68,5.21,1.5.59,1.23.87,2.6,1.18,3.92-1.77-1.47-1.6-3.94-3.89-1.65-.86.87-1.83,2.16-1.54,3.56,2.19.19,2.06-1.99,3.19-3.19.77.56,1.75,6.55,2.56,2.87.95,1.45.91,3.44.96,5.1.56,1.3.97,2.66,1.31,4.04.83,3.43,1.19,6.96,1.56,10.46.35,3.24,1.65,7.3,1.28,10.52-.24,2.05,1.6,4.66,1.6,7.18-.56-.5-1.18-1.03-1.42-1.77-.1-.29.2-2.12-.13-1.96-.31.23-.54.52-.69.87-1.62-1.2-2.62-1.62-1.97-3.84.41-1.4,1.19-2.65,1.33-4.14-2.86.34-2.02,3.13-3.8,4.25-1.07.67-1.79,1.59-2.34,2.38-.92,1.32-2.21,2.41-2.74,4.04ZM72.24,86.39c-.82-.12-1.66,1.21-2.03.75-.28-.35-.23-1.04-.85-1.07.01-.14.04-.23.07-.3.17-.71.66-1.24.89-1.94.72.8,1.6,1.47,1.92,2.55ZM65.53,96.27c-.79-.05-.1-1.08,0-1.28.79.05.09,1.08,0,1.28ZM67.45,90.53c-.84.2-.76-.84-1.6-.64-.14,1.19,1.16,1.65.96,2.87-.39.11-1.24-1.17-1.4-1.47-.66-1.21-.07-2.16-.2-3.63,1.36-1.62,2.12-3.62,3.2-5.42,1.3.74.65,1.97-.64,1.91-.03.46.25,2.77.68,2.83.67.1,1.52.95,1.02,1.73-.51.79-1.68.86-2.02,1.81ZM69.69,101.05c.07-.98.32-1.8.64-2.55.84.32.64,2.56-.64,2.55ZM74.16,88.94c-.17.71-.95,1.07-.83.79-1.23,1.4-1.83,3.33-2.69,4.95-1.75-1.01-.91-3.02-.32-4.46.22.49,1.22-.01,1.28.64.63-1.1,1.16-2.22,1.28-3.51.81.1,2.1,1.91,1.77,2.48-.54.94-1.33,1.75-1.13,2.94,1.1-.68.67-2.72,2.23-2.87.26.39,1.01,3.8.76,3.87-1.18.3-.32-1.05-1.88.3-1.06.91-1.99,1.96-2.71,3.17-1.33-.59,1.96-7.15,2.24-8.29ZM76.4,103.92c-.78-.3.75-2.54-.69-3.2-.52-.24-1.31-.32-1.55-.95-.32.1-.66.17-.99.25-.06.05-.15.09-.29.07.1-.02.19-.05.29-.07.19-.15.09-.47-.16-.14.47-.71,1.25-1.14,1.47-2.02.6.31.58,1.12.96,1.59.72-.15.27-1.23,1.28-.96-.28,1.61,1.36,4.31-.32,5.42ZM64.57,41.44c1.93-2.12-2.02.09,0,0h0ZM73.33,89.73c.25-.28.52-.55.83-.79-.55.41-.78.66-.83.79ZM57.86,98.82c.03-.05.05-.11.08-.16,0-.24-.62-.28-.08.16ZM69.44,85.77c-.02.1-.06.19-.07.3.71.03.26-.71.07-.3ZM57.88,86.24c.06.1.15.17.3.15,0-.38-.25-.28-.3-.15ZM65.21,87.66c.1,1.16,1.31-1.56,0,0h0ZM23.65,27.73c0-.32-.56-.4-.64,0,.07.39.35.2.64,0ZM26.85,34.11c-4.04,0,.05.59,0,0h0ZM31.02,40.85c0,.41,0,.82-.01,1.23.03-.61.03-1,.01-1.23ZM32.93,106.15c.41-1.61-1.13.15,0,0h0ZM38.65,102.85c.12-2.31-.3-4.06-.76-6.29-.91-4.41-2.33-9.35-2.48-13.78-.19-5.08-.47-10.17-1.2-15.2-1.2-1.84-.87-4.77-1.54-6.84-.62-1.91-.84-4-1.38-5.99-.55-2.04-.33-3.21-2.22-4.36-.36-.23-2.41-2.82-1.25-2.89-.1-.71-1.19-.25-1.28-.96,1.49-1.33,3.27-2.42,4.3-4.18-.58.77.09-2.81.18-1.52,0-.76-.04-1.52-.14-2.28-.75-5.45-4.09-6.68-9.17-6.74-2.34-.03-4.46.66-6.79.73-2.4.07-4.79-.18-7.19-.3-1.89-.09-2.43-.28-3.11,1.6-.36.98-.56,2.01-.67,3.04-.26,2.37.14,3.94.84,6.14.85,1.1,4.54,2.66,3.84,3.89-.87,1.51-1.54,2.88-2.46,4.34-1.44,2.28-1.6,4.98-1.88,7.67-.12,1.17.11,2.35-.55,3.38-.5.78-1.06,1.45-1.19,2.4-.21,1.26,1.31,1.53.96,2.87v7.97c-.96,5.14-1.26,10.37-1.86,15.55C1.11,95.76.21,100.25,0,104.93c-.18,3.93,7.03,5.24,9.96,5.63,4.63.61,9.35.44,14,.37,4.28-1.41,9.1-1.13,13.17-3.17,2.13-1.06,1.4-2.76,1.5-4.92ZM7.99,40.17c1.12-.91.64-2.3.96-3.51-.94-.25-.95.97-1.62,1.14.03,0-.07-3.62,1.77-4.1,1.67-.43,3.47-.24,5.17-.22,4.16.04,8.36.62,12.58.63.05.65,1.06.15,1.28.64.32,1.13.33,2.33.33,3.49,0,2.52-.24,3.32-2.32,4.72-.66.44-1.32.91-1.78,1.57-.76,1.09-.96.47-2.3.41-1.68-.08-5.16,1.03-4.8-1.59-.71-.18-.39.61-.96.64-.79-.13-1.58-.25-2.37-.34-.59-.07-2.91.23-2.43-.94.24-.27.34-.59.33-.95-.99-.15-.93,1.11-1.92.96-.09-.54.72-3.43-.05-3.45-.74-.02-.98,1.14-1.86.9ZM6.84,93.46c.35-.93,1.34-1.36,1.79-2.29.68.13-.09,1.68-.32,1.91.16,1.05-.91,1-1.6.96.02-.32.07-.49.13-.58ZM7.99,96.59c-.17-.17.23-.41.32-.32.17.16-.23.41-.32.32ZM6.71,97.23c.17.16-.23.41-.32.32-.17-.16.23-.41.32-.32ZM8.76,107.46c-.73-.1-1.28-.46-2.05-.35.21-.37.52-.41.62-.34.75-.1,1.81.22,1.94-.61.64.15.67,1.46-.51,1.31ZM11.19,107.75c.54-1.05,1.96-.31,2.88,0-.36.64-2.47.37-2.88,0ZM16.94,108.07c.42-.63,2.86-1.8,2.88,0h-2.88ZM35.19,103.36c-.64,1.05-1.94,1.52-2.26,2.79-1.07.14-2.66,1.1-3.74.61-.03-.19.03-.34.18-.48.19-.56-.09-.84-.84-.85-.8-.47-1.45-1.15-2.32-1.51-2.21.59.03,2.44.32,3.51-1.09-.15-1.93.86-2.54-.45-.36-.79-1.2-.98-1.62-1.78-1.25-.39-1.89-1.52-2.56-2.55-1.47-.28-2.24-.74-3.73-.34-1.54.41-3.05.9-4.58,1.29-.06-.79-1.1-.67-1.6-.64.42-2.54-2.04-2.62-3.83-1.91-.25-.73,1.9-.85,2.47-1.37.59-.54,1.15-.92,2-.87-.16-.51-.05-.93.32-1.27-.02-1.09.18-7.59-1.6-7.01.65-1.53.65-3.8-.17-5.25-.89-1.59.6-2.36.8-3.67-.22-2.03.25-3.84.99-5.7,1.01-2.54-1.15-2.23-1.63-.35-.75-.58.59-4.16.85-4.89.63-1.71-.26-1.64-.21-3.08,1.23.07.34-7.37-.64-3.83-.28-.1.3-3.38.31-3.83.02-1.68.81-1.94.04-3.29-.68-1.2,1.18-4.12,1.72-5.15.44-.86.88-1.73,1.18-2.65.5-1.54,1.26-1.08,2.8-1.01,2.38.12,4.78.52,7.17.21,2.62-.34,2.17,1.15,3.73,2.66.02.3,1.94,1.26,2.23,1.59.36,1.88.76,3.75,1.15,5.63,1.84,8.83,3.01,17.84,3.01,26.78,0,2.31.75,4.58,1.11,6.86.18,1.16.23,1.79,1.16,2.56.97.82.56,1.82.65,3.01.13,1.87.71,4.52-.34,6.24ZM6.84,93.46c-.07.18-.12.36-.13.58.72.05.36-.92.13-.58ZM7.33,106.77c-.27.04-.5.12-.62.34.62-.09.73-.27.62-.34ZM61.7,68.86c-.01.22,0,.44.02.66.19,1.01,1.19-.65-.02-.66ZM62.57,74.44c.44-1.64-.66-3.27-.85-4.92-.03-.15-.04-.37-.02-.66,4.36.04,6.47-4.79,3.98-8.1-1.64-2.19-8.09-.46-9.1,1.99-1.26,3.05,1.54,1.49,1.92,3.24.57,2.33,1.44,4.69,1.69,7.08.13,1.2,1.66,4.05,2.38,1.37ZM59.79,63.37c.15.97,1.41-.31-.01-.25,1.25-.05,6.52-1.52,4.11,1.74-.71.96-2.06,1.2-3.15,1.45-.15-1.06-.87-1.87-.94-2.94ZM23.53,65.42c.09.26.14.55.13.88.03-.76-.04-.95-.13-.88ZM23.65,66.3c-.08.1-.17.17-.26.24.06,0,.14-.07.26-.24ZM25.03,74.18c-1.15-2.01-2.46-3.41-4.77-3.75-.72-.11-2.48.01-3.13-.49-.98-.77,1.69-3.11,2.37-3.32,1.09-.2,2.91.66,3.89-.08-.24.03-.03-1,.14-1.12-.76-2.32-4.95-2.03-6.44-.69-2.48,2.21-4.76,6.77-.24,7.92,2.15.55,3.55.23,5.05,1.8.94.98,1.16,2.36.07,3.37-2.73,2.52-4.88-1.71-7.57-.35-1.21,2.2,1.66,3.31,3.22,3.8,1.79.56,3.18-.07,4.77.03,2.14-1.93,4.43-4,2.65-7.11ZM66.26,82.93c-.01.21-.04.41-.09.59.13-.48.13-.61.09-.59ZM66.26,82.93c.08-1.43-.67-3.38-2.07-1.7-.77.93-2.85-1.33-3.77-1.85.38,1.54,1.97,1.98,2.9,3.08.83.98.03,1.38,1.57,1.38.27,0,1.15-.35,1.28-.32-.17-.04.02-.55.09-.59ZM28.13,85.43c-.03-.87.53-.64,0-1.27-1.23-.25-1.23,1.53,0,1.27ZM15.02,88.94c.1,0,.2.02.29.02.02-.04-.04-.07-.29-.02ZM15.02,88.94v.96c.65.17,1.07-.04,1.28-.64-.3-.19-.64-.27-.99-.29-.03.07-.29.18-.29-.02ZM25.57,89.9c.21,0,0,.21,0,0,0,1.5,1.51,0,0,0ZM20.78,91.49c-.18,2.05,2.15-.28,0,0h0ZM16.62,99.46c.21,0,0,.21,0,0,0,1.5,1.51,0,0,0ZM21.1,101.69c.21,0-.02.19,0,0-.25,2.69,1.87,0,0,0Z"/>
    </g>
  </g>
</svg>