<?xml version="1.0" encoding="UTF-8"?>
<svg id="Layer_2" data-name="Layer 2" xmlns="http://www.w3.org/2000/svg" viewBox="0 0 113.12 96.24">
  <defs>
    <style>
      .cls-1 {
        fill-rule: evenodd;
      }
    </style>
  </defs>
  <g id="food_icons" data-name="food icons">
    <g id="sandwich">
      <path class="cls-1" d="M48.1,73.01c.07-.01.29-.17.76-.6-.24.22-.5.41-.76.6ZM25.71,81.38s.07.02.13.03c0-.02.01-.04.01-.07-.08,0-.12.02-.14.04ZM21.86,80.1s-.04-.02-.16-.05c.05,0,.11.03.16.05ZM67.73,67.62c.1,1.49,3.22-.4,0,0h0ZM113.06,46.83c-.21-2.16.17-7.81-1.69-8.76-1.26-.65-3.85-2.55-4.51-4.12-.03.04-.07-.05-.14-.44.02.14.08.29.14.44.07-.11.02-1.1-.1-.62.35-1.88,1.08-3.25.87-5.27-.16-1.57-.62-3.07-1.33-4.48-1.23-2.45-2.59-4.69-4.91-6.1-3.77-2.3-7.32-1.8-11.58-1.62-2.03.09-4.08.1-6.1-.19-1.18-.62-2.44-1.06-3.74-1.37-3.16-.75-4.39-5.16-6.23-7.54-2.05-2.65-4.73-4.08-7.89-5.18C61.9.2,58.07-.2,53.91.09c-3.73.26-6.17,2.78-9.52,4.1-1.31,1.64-2.88,3.06-4.47,4.42-1.71,1.46-2.29,2.71-3.41,4.61-1.03,1.76-1.51,2.84-1.97,4.79-.27,1.14-.75,2.21-1.41,3.18-1.32,1.96-3.48,4.66-5.4,5.83-2.62,1.6-4.76,4.42-7.02,6.55-2.31,2.18-5.58,4.89-8.6,5.99-.46.68-.6,1.51-.96,2.23-.64.08-1.24.28-1.8.6-1.46.81-1.52,1.49-1.8,3.06-.33,1.85-.54,3.71-.56,5.59,1.03,1.25,2.81,1.59,4.33,1.79,1.15.15,6.35.99,6.54,2.35-1.25.02-5.15,1.21-5.43,2.55,3.03.92,5.52-1.21,8.31-1.91-.35,2.03-4.15,3.76-2.24,6.38,2.58-.85,2.34-5.66,5.28-4.73,3.73,1.17,7.34,2.36,10.89,4.02,1.68.78,3.3,1.71,5,2.45,1.72.75,2.32,1.38,3.72,2.52,1,.81,1.67,1.6,2.92,2.12.51.64,1.65.51,1.6,1.59-5.02.62-11.88,3.54-16.62.24-2.24-1.56-.05-4.96.69-6.56.97-2.11-1.01-3.81-2.82-2.19-1.85,1.64-2.6,4.89-2.68,7.23-.03.92.13,2.5.83,3.19.59.59,1.28,1.03,1.43,1.92-1.45.44-2.8,3.51-3.93,2.76-1.12-.75-3.64-.18-4.06-1.81,1.31-.5.12,1.59,1.81-.1,1.29-1.29.75-3.76.75-5.63-2.21.42-1.38,2.94-2.69,3.92-1.4,1.05-1.68,2.98-3.07,4.05-.88-1.9-1.74-3.58-1.6-5.74-.93.02-2.68.69-2.88,1.43-.12.45-1.36,2.15-.64,2.39.26-.88,1.81,1.13,1.6,1.91-1.14-.04-3.25-1.34-3.81-2.26-.97-1.56,1.22-3.7,1.25-5.44.03-2.95-1.93-1.44-3.55-1.2-2.25.33.09-1.86-1.24-1.94-.69,1.4-4.36,2.36-5.43.96.29-.11,1.65.36,1.6-.32-2.02-.31.4-2.62,1.09-2.89.81-.32,1.77.1,2.11-.84.2-.56.25-1.46.95-1.68,1.19,2.98,6.73,5.18,9.68,5.45,3.36.31,7.34.58,7.9-3.86-3.23-1.03-6.43.59-9.75-.79-2.3-.96-5.1-1.92-4.94-4.86.06-1.22.41-2.63-.12-3.79-.77-1.66-1.86.16-3.08.2-1.12,2.12-1.3,5.13-.32,7.33-1.91-.38-2.93,1.44-4.21,2.41-1.67,1.27-2.55,1.88-1.23,3.65-2.03-.17-.17,1.5.6,1.82,2.32.97,2.28,1.58,2.28,4.04s-.38,3.81,1.59,5.51c1.38,1.2,2.9,2.35,4.49,3.28,3.49,2.04,7.46,3.1,11.07,4.89,2.93,1.46,6.02,2.12,9.07,2.75,1.54.32,3,1.42,4.54,2.01,1.76.67,3.65,1.08,5.3,2.01,2.66,1.51,6.49,3.99,9.28,1.68.97-.81,2.05-2.05,3.29-1.09,1.19.92,2.82-.84,3.6-1.61,1.2-1.18,2.11-2.62,2.72-4.19.61-1.53,1.89-2.17,3.27-3.06,3.17-2.05,6.05-4.37,8.81-7.04,2.45-2.38,5.89-5.48,9.18-6.46,3.66-1.1,5.83-3.53,8.52-6,2.61-2.4,5.56-4.41,8.62-6.18,1.83-.76,3.27-.88,5-1.96,1.85-1.16,3.3-1.99,4.82-3.55,1.32-1.35,2.78-2.56,4.3-3.68,1.7-1.26,2.02-1.44,1.8-3.63ZM8.18,72.63c-.27.43-.39,2.06-.65,2.29-.58.51-.86-2.63-.87-3.77-.03.07-.04.02.01-.34.06-.16.08-.17.07-.1.38-.51,1.69.25,1.85-.54.92.03-.28,2.25-.41,2.46ZM16.26,78.46c-1.08.02-.97-1.28-.96-2.06-.03.7-.34-.53,0-.17-.34-.59-.45-1.23-.32-1.91.47.4,1.47,3.44,1.28,4.14ZM21.86,80.1s-1.21-.07-.16-.05c-1.09-.02-1.92-.53-2.88-.96.03-1.08,5.21,1.07,5.75,1.27-.63.82-1.93-.04-2.71-.27ZM24.89,81.01c-.16-.17.23-.41.32-.32.17.17-.23.41-.32.32ZM27.01,81.89c-.13.13-.95-.24-1.12-.48-.02,0-.03,0-.05,0-.04.14-.21.04-.13-.03-.05-.02-.02-.03.14-.04,0,.02.02.05.04.08.44.07,1.41.2,1.12.48ZM104.49,37.02c.72.02,1.39,1.03,1.57,1.28h.03c.02.06.02.07,0,.05.08.35-.69-.03-.04-.05,0,0,0,0,0,0h-2.21c0-.69.87-.44.64-1.28ZM20.42,38.3c1.18-1.5,2.31-3.08,3.81-4.28.78-.62,1.65-1.12,2.58-1.46.37-.89.99-1.63,1.67-2.3,1.79-1.77,3.51-3.57,5.27-5.38,1.5-1.55,3.48-2.57,4.89-4.11-.02-1.76-.88-3.31-.64-5.1.47-2.18,1.77-3.91,3.17-5.58,1.38-1.64,3.64-1.49,5.12-3.15.96-1.07,3.26-2.07,4.74-2.18,4.09-.3,8.07-2.36,12.18-.64,1.85.77,3.11,2.81,4.68,3.98,2.02,1.51,2.94,2.9,4.3,5.01,2.19,1.25,4.03,3,6.07,4.46,2.25.46,4.54.71,6.83.84,4.7.27,9.24.12,13.41,2.69,1.48.91,2.78,2.12,3.78,3.55,1.08,1.56,1.05,3.43,1.21,5.31.19,2.14-1.8,4.16-3.18,5.62-1.22,1.3-3.42.95-4.89,1.6-2.01.9-4.27,2.28-6.46,2.52-2.24.25-4.5.38-6.73.79-4.66.84-8.05,3.88-11.96,6.3-3.67,2.28-7.08,4.87-10.57,7.44.54-.4.25-.18-.16.13-1.75,1.43-7.25,7.34-8.62,6.47-.98-.62-2.14-.96-2.91-1.75-.72-.74-.9-1.64-1.68-2.36-1.75-1.63-4.42-3.03-6.77-3.77-1.88-1.23-3.71-2.56-5.75-3.51-2.5-2.96-7.27-4.52-10.54-6.44-1.76-1.04-3.45-1.05-5.22-2.17-2.06-1.3,1.05-2.05,2.33-2.54ZM70.6,51.68c-2.38,3.99-7.06,5.58-10.25,8.74-.7.7-6.04,4.53-7.01,3.69,1.14-1.12,1.91-2.59,3.12-3.49,1.43-1.06,2.74-2.27,4.12-3.38,2.5-2.01,5.47-4,8.36-5.51.1-.06.32-.17.7-.37.06-.01.08,0,.07.01.32.05.62.15.89.3ZM47.37,64.66c-1.29-.26-2.1-.96-3.36-1.17-.76-.13-1.25-.56-1.86-.97-1.8-1.2-3.83-2.72-5.84-3.54-.88-.35-2.08-1.22-2.47-2.2-1.11-.19-2.03-.75-2.96-1.36-.99-.65-2.69-.08-3.44-.87-1.61-.65-3.19-1.33-4.75-2.07-1.63-.77-1.84-1.09-3.4-.54-.76.27-1.66-.1-2.24-.58-1.32-1.09-3.87-1.31-4.68-2.9-1.25-2.48.94-2.8,2.6-3.48-.35-1.01-2.14-.36-2.24-1.59,1.64-.53,3.01.33,4.4,1.07,1.72.91,3.46,1.04,5.21,1.92,1.96.99,3.88,2.4,5.94,2.97,1.67.46,2.95,1.58,4.27,2.65,3.27,1.84,5.88,4.67,9.25,6.31,1.69.83,3.28,1.47,4.85,2.57.25.17.76.62,1.14.89.12,0,.25.03.42.1-.12,0-.22-.01-.3-.02.14.1.24.15.29.14-.12.12-.59.03-.73-.05-.02.04-.05.06-.06.11.56.85,3.8,3.39-.05,2.6ZM43.68,75.13c1.58-.44,3.11-1.13,4.42-2.12-.21.04.84-1.16.76-.6.12-.67.33-1.31.64-1.91.91.2,1.39.86,2.46.7.64-.1,1.04-.63,1.69-.7.48,2.61-.61,9.72-4.85,7.49-1.06-.56-4.12-2.77-5.06-.8-1.25-.63-1.21-1.05-2.71-.71-1,.22-1.78.17-2.73-.25.14-.97,4.53-.87,5.37-1.1ZM29.05,78.46c.42-.12.85-.23,1.28-.32,0,1.87-.99,1.37-1.23.68-.05-.04-.08-.14-.05-.36ZM28.41,82.61c.01.31-.38.03,0,0-.67.06.62-.29.64.32,1.66.21,3.22.76,4.79,1.28-.71.54-5.41-.69-5.44-1.59ZM32.88,80.37c-.03-1.62.5-4-1.07-4.83-1.06-.56-1.48.17-2.44.33-.08.02-.18.03-.32.04.14-.62.68-.9.64-1.59,1.52.6,7.88.88,6.56,3.1-.53.9-2.29,2.92-3.36,2.96ZM47.27,90.89c-.17-.16.23-.41.32-.32.16.16-.23.41-.32.32ZM63.57,72.41c0,1.22-.72,2.26-.64,3.51-1.61-1.16-3.11-2.46-4.8-3.51-.12,1.57,3.76,4.53,3.04,5.34-1.5,1.68-3.9,3.38-5.92,4.54-1.57.99-2.97,2.21-4.49,3.27-1.98,1.39-3.18,1.11-5.46.43-3.15-.94-5.99-2.56-8.92-4.02.86-1.6,2.85-2.02,3.84-3.51,1.07.03,1.73,1.44,2.69,1.88,1.6.73,2.54-1.02,4.5.19,1.41.88,2.9,1.06,4.49.51,3-1.03,4.88-5.09,5.26-8,.13-.99.51-5.07-.96-5.42.56-1.28,2.32-1.28,2.88-2.55,1.17,1.2,2.61,2.05,4.26,2.39,1.84.37.99,1.27,1.53,2.91.42,1.25-.07,1.71-1.32,2.03ZM64.85,75.27c0-1.5,1.51,0,0,0h0ZM60.37,64.12c1.69-2.02,4.89-5.14,7.2-6.13,2.62-1.13,4.96-2.36,5.59-5.35.55.02.97-.2,1.28-.64.52.54-.62,4.3-.71,5.15-.17,1.84-.73,3.7-1.99,5.1-3.37,3.75-7.23,1.42-11.37,1.86ZM71.04,70.45c-1.04.88-2.13,1.57-2.6.06-.3-.95-.64-1.87-.71-2.88,2.8-.35,5.19-1.72,7.03-3.83,1.24.14.12,2.46,1.92,1.91-1.17,1.86-3.94,3.29-5.64,4.74ZM78.55,68.99c-.34.3-.78.86-.79.72-.02-.27.43-.57.79-.72.06-.05.12-.1.16-.13-.16-.09.17-.27.2.04-.09,0-.22.03-.36.09ZM78.28,65.07c-.8-.13-.02-1.24.64-.96.17.71-.61.45-.64.96ZM84.99,64.12c0-1.5,1.5,0,0,0h0ZM87.21,60.2c-.22,1.91-1.7.83-2.85.41-1.27.43-2.48,1.07-3.52,1.91-1.01.15-1.64-.98-2.6-.52-.58.28-.83.84-1.56.84-.67-4.02,1.04-8.06.64-12.11,3.29-1.9,7-2.86,10.23-4.78,2.65.13,5.09-.55,7.35-1.91.59-.13-.26,5.06-.96,5.74-3.36,2.11-8.31-1.37-11.39,1.13-.83.68.12,1.64.85,2.05.5.26,1.03.37,1.59.33-.09.55-.01,1.08.22,1.58,1.02,2.05,2.31,2.55,2,5.33ZM101.89,51.23c-1.88,1.82-4.68,5.23-7.62,5.23,0,.19.02.29,0,0,0,0,0,0,0,0,0-.1,0-.21,0-.32,0,.05-.33.15-.56.21-1.35.59-2.41,1.73-3.91,2.03.02-1.95-1.49-3.05-1.92-4.78,4.28.3,9.83.2,10.55-5.1.35-2.58-1.69-5.68,1.25-6.88.99-.41,2.04-.82,2.73-1.68.39-.5.78-1.16,1.46-1.32-.17.63,2.49,2.36,2.86,3.21.61,1.38.82,2.43.33,3.9-.11.34-.93,2.55.33,2.13,0,.2-4.89,2.81-5.48,3.38ZM107.05,39.25c.54-.92,1.3.59,1.28,1.28-.82-.03-.46-1.24-1.28-1.28ZM93.7,56.35c.18-.08.37-.15.56-.21-.98.28-.86.28-.56.21ZM59.57,54.36c.05-.04.11-.1.16-.13-1.76,1.33-.81.62-.16.13ZM87.55,45.95c-1.54.91,3.26.17,0,0h0ZM84.99,64.12c.21,0,0-.21,0,0h0ZM78.72,68.86s.1.04.2.04c-.01-.12-.09-.11-.2-.04ZM73.16,52.64c-.38,1.75.59-.04,0,0h0ZM106.1,38.35s0-.03,0-.05c-.01,0-.02,0-.03,0,.02.02.03.04.04.05ZM6.67,70.81c0,.07-.01.19-.01.34.03-.09.08-.35.08-.45-.03.03-.06.06-.07.1ZM64.85,75.27c.21,0,0-.21,0,0h0ZM47.48,61.96s.03-.06.04-.08c-.09.02-.1.05-.04.08ZM29.05,78.46c-.01.12,0,.24.05.36.12.1.37-.33-.05-.36ZM69.71,51.38s-.04-.01-.07-.01c-.23.12-.47.24-.7.37-.36.21.69-.25.77-.35ZM47.92,61.87s-.08-.06-.12-.09c-.11,0-.21.03-.28.1.07-.01.19-.02.39-.01ZM29.05,75.91c.12,0,.22-.02.32-.04.48-.12-.2-.49-.32.04ZM59.1,65.07c-.55,1.26,1.31,1.35,0,0h0ZM59.35,7.53c.13.05.25.09.38.16-.18-.09-.3-.14-.38-.16ZM57.46,11.64c2.62,1.81,2.81-2.37,2.27-3.95.23.68-.85-.28-.38-.16-2.83-1.09-4.32,2.43-1.89,4.11ZM70.92,14.47c.21.05.42.12.65.24-.45-.24-.62-.28-.65-.24ZM70.15,17.71c1.93,1.01,1.77-1.92,1.42-3.01.17.54-.7-.12-.65-.24-1.91-.43-2.79,2.19-.77,3.25ZM58.46,19.49c-1.13-1.09-3.29-.6-2.88,1.59.95,1.21,3.56.71,2.88-1.59ZM47.08,19.48c.05-.11.11-.22.19-.31-.23.26-.24.33-.19.31ZM48.23,21.4c.28-1.29.76-2.23-.96-2.23.2,0-.1.28-.19.31-.33.8.2,1.97,1.15,1.92ZM83.39,22.67c.25.05.45.13.63.23-.05-.08-.23-.16-.63-.23ZM82.6,26.5c2.13.11,3.01-2.69,1.42-3.59.2.28-1.36.46-.63-.23-.87.83-4.29,3.65-.79,3.82ZM89.78,32.24c.88-2.07-.06-4.44-1.92-4.78-.51,1.56-1.07,5.67,1.92,4.78ZM64.85,31.6c1.68-.48,1.53-3.39-.11-3.78-.12,0-.25-.02-.36-.03-1.67.13-1.74,3.97.47,3.81ZM64.53,27.77c.07,0,.14.03.21.04.41.03.72.05-.21-.04ZM64.38,27.79s.1-.02.15-.01c-.57-.03-.43-.01-.15.01ZM78.15,32.79c1.65,1.11,2.57-1.05,2.68-2.5-.08.95-.6-.52-.12-.35-1.76-1-4.53,1.53-2.56,2.85ZM97.46,30.01c-.25.07-.63,0-.64.32.25-.07.63,0,.64-.32ZM46.95,33.51c.32,0-.01.44,0,0-.06,2.02,2.43,0,0,0ZM30.01,40.21c0,.13,0,.25-.02.37.03.03.05-.05.02-.37ZM29.84,39.91c.07.09.12.19.17.3-.1-.26-.15-.33-.17-.3ZM29.98,40.58c-.06-.07-.19-.62-.15-.67-.88-1.19-3.33-.23-2.1,1.39.79,1.04,2.08.42,2.24-.72ZM65.73,41.94c-.13.25-.29-.95.08-.46-.95-1.23-3.38-1.83-2.93.6.44,2.38,2.4,1.57,2.84-.14ZM65.81,41.48c-.01.16-.04.31-.08.46.03-.06.06-.2.08-.46ZM49.19,44.03c-.09-.09-.15-.21-.21-.33-.02.05.04.15.21.33ZM49.76,44.07c-.17.02-.36,0-.57-.03.36.07.52.07.57.03ZM49.76,44.07c1.4-.12,1.51-1.98.78-2.98-.93-1.27-2.11,1.36-1.55,2.62.05-.18.93.25.78.36ZM43.43,45.31c1.83-1.29-1.19.21,0,0h0ZM45.99,48.18c1.1-1.66-.7-4.18-2.56-2.87-2.13.37-.55,4.84,2.56,2.87ZM53.96,50.1c.24.07-.3.34-.3,0v1.28c1.47.17,1.58-1.21.3-1.27ZM53.66,50.09c.11-.01.2,0,.3,0-.06-.02-.14-.02-.3,0ZM94.26,56.15h.32c-.06-.36-.32-.18-.32,0Z"/>
    </g>
  </g>
</svg>