<?xml version="1.0" encoding="UTF-8"?>
<svg id="Layer_2" data-name="Layer 2" xmlns="http://www.w3.org/2000/svg" viewBox="0 0 98.7 97.75">
  <defs>
    <style>
      .cls-1 {
        fill-rule: evenodd;
      }
    </style>
  </defs>
  <g id="food_icons" data-name="food icons">
    <g id="sausage">
      <path class="cls-1" d="M40.82,43.67c1.24,3.55,0-.32,0,0h0ZM49.45,16.9c0,.12.02.23.04.35.14.48.55-1.93-.04-.35ZM54.88,41.9c-.11.05-.22.11-.32.18,0,.12.24-.09.32-.18ZM96.71,13.24c-2.7-2.93-5.18-6.65-8.84-8.41-3.68-1.76-10.44,1.45-13.84,3.02-1.55.72-1.38,1.5-2.98,2.07-2.19.77-4.27,1.79-6.57,2.19-.11-2.53-1.18-11.87-4.78-12.11.24.02,2.47.14-.02,0-2.56,0-2.32,6.23-2.47,7.92-.17,1.75-.29,3.45-.47,5.14-.23,2.09-1.68,1.6-3.45,1.6.13-1.46.14-6.61-1.78-7.26-2.51-.86-1.74,2.55-3.34,3.12-.25,1.45-.58,3.22-1.6,4.46-1.61-.33-3.23.9-3.23-1.44,0-3.73,1-7.81-.7-11.38-1.56-3.25-5.12,5.12-5.45,6.06-.42,1.21-.83,2.43-1.34,3.61-.68,1.59-.55,2.37-2.37,1.8-2.47-.77-4.93-1.59-7.32-2.58-4.6-1.91-8.27-4.27-13.48-3.72-4.28.74-7.91,1.91-10.3,5.51-2.54,3.82-3.43,8.87-.81,13.03,2.03,3.23,4.2,6.53,7.81,8.34,1.72.86,3.55,2.15,5.26,2.42,1.33.21,3.91.93,5.04,1.59,2.66,1.55,7.13,2.84,10.19,2.84.87,0,2.28.33,3.13.61,1.32.44.7,1.7.7,2.83,0,2.17.17,4.35.59,6.48.71,3.56,2.14,6.93,4.29,9.86,2.29,3.11,5.1,3.66,8.39,5.1,1.48.65.26,4.84-.09,6.1.09,2.39-.32,4.72-.32,7.09,0,5.46-.24,10.97.03,16.42.06,1.11,1.05,2.99,2.48,1.8.51-.42.38-1.37.37-1.93-.04-1.63,1.1-.03,1.29-1.4-1.06-.17-.35-.59.05-1.02.67-.72.19-2.4.14-3.27-.11-1.76-.41-4.27-.09-5.83.84-4.08.21-8.55.25-12.87.02-2.17-.78-4.04-1.01-6.23-.09-.89-.25-2.02-.94-2.66-.49-.25-.68.46-1.08.36.21.05-3.43-5.38-3.69-3.52-.08.56.78,1.3-.35,1.25-.54-.5-.32-1.61-.32-2.23-3.22.95-5.54-7.36-6.32-9.61-.54-1.58-.61-3.59-.76-5.24-.15-1.58,1.47-1.17,1.85-.08,1.23,3.52.35,7.48,2.4,10.9.84,1.39,3.81,1.63,5.39,1.48.72-.61,1.67-1.04,1.92-2.01.05-.57.26-1.07.63-1.49v-7.65c.02-1.68,1.44-2.3,1.31-.36-.16,2.62-.5,8.65,1.85,10.11.88.54,1.69,1.2,2.59,1.72,1.26-.26,2.54-.34,3.83-.21,1.9.21,2.5-.86,3.25-2.59,1.54-3.55,1.43-7.79.92-11.55,2.15,0,4.47-1.44,4.5,1.08.03,2.5.99,12.92-2.26,13.91.05.4-1.44,1.87-1.6,2.55-1.05.06-2.97,1.64-3.94,2.13-2.1,1.05-4.48,1.07-6.61,2.02-.21,2.04.6,4.43.6,6.56,0,5.27.36,10.54.39,15.81.02,2.06-.61,9.53,1.59,10.87,1.66,1.01.82-3.24.93-3.91v-7.97c0-5.1-.32-10.05-.32-15.12v-3.69c1.02-.2,2.04-.46,3.04-.8,1.81-.6,3.54-1.45,5.08-2.58,4.13-3.04,4.98-6.49,5.19-11.4.11-2.48.13-4.95.22-7.43.05-1.21.11-2.41.21-3.62,1.21-.19,2.41-.37,3.61-.58,4.2-.72,10.57-1.63,13.65-4.84,1.73-.73,3.09-2.61,4.48-3.82,1.59-1.39,3.23-3.2,4.6-4.84,2.81-3.37,4.15-8.88.78-12.53ZM51.37,11.48c2.09.56,1.8,9.65-1.6,9.56.67-1.27-.1-2.52-.28-3.79-.02-.06-.03-.17-.04-.35.67-1.8,1.22-3.63,1.92-5.42ZM27.07,34.11c-.05-.17-.05-.26-.04-.31.02-.49.46-.71.36-1.28.73.6,1.27,1.22,1.28,2.23-.7.04-.98-.5-1.6-.64ZM43.06,52.59c-2.37-1.95-1.33-6.29-2.25-8.91,0-1.75,3.86-.96,5.43-.96-.2,1.74,1.66,13.84-3.19,9.87ZM49.13,37.94c-.26-2.06,1.89-1.14,2.24-.32-.14.71-1.57.13-2.24.32ZM50.41,34.11c.08-.4.63-.32.64,0-.29.2-.58.38-.64,0ZM52.01,37.94c0-.31.39-.25.64-.32,0,.31-.39.25-.64.32ZM58.08,51.64c-2.8.94-3.55-.16-3.59-2.86-.03-2.23.08-4.47.08-6.71.34-.27.37-.26.32-.18,1-.47,2.52-.04,3.52-.14.28.96.44,1.95.54,2.95.22,2.24.23,4.89-.86,6.94ZM60.96,37.3c0-.31.39-.25.64-.32,0,.31-.39.25-.64.32ZM94.43,17.59c-.29,1.03-.15,1.13-.23,2.18-.59.16-1.65-1.42-1.84-.08-.18,1.22.39,1.92,1.84,2.63-.59,1.04-4.54,2.28-4.16,3.19.33.79-.82,2.74-1.8,2.19-1.38-.78-1.7-.52-1.71,1.31-.88.25-1.36,1.38-2.34.73-.33-.34-.72-.59-1.18-.73-.45,1.01.71.95.85,1.65.29,1.46-2.41-.74-2.4-.74-1.2-.85-2.58.4-3.24,1.32-.96-.74-.61-2.09-2.37-1.5-1.24.42-1.17,2.13-1.16,3.17.02,1.84-2.01,1.12-3.18,2.16-.72-.37-3.21-3-2.88-.32-.99-.11-1.35-.92-1.92-1.59-.85.08-1.6-.11-2.32-.56-.93-.57-2.35-1.27-2.16.56-1.01-.14-1.55-1.99-2.46-.79-.69.92-.69,2.26-.74,3.34-1.24-.99,0-1.77-1.87-1.76-.64,0-1.18-.35-1.82-.33-1.53.05-.72-.6-1.54-1.7-.37-.49-1.11-.52-1.4.04-.71,1.36-1.26,1.68-2.4.45-.4-.44-.63.64-.88-.2-.19-.63.19-1.29,0-1.92-2.89.95-2.94,7.6-5.76,7.33.74-2.06,2.38-4.06,1.6-6.38-1.86.83-2.84,2.44-2.88,4.46-.65-.05-3.26-5.66-3.45-2.34-.06,1.06.38,2.2.89,3.11.73,1.32-.53.54-1.28.82,2.02-1.89-2.95-4.66-3.2-2.87-.41-.34-2.42-3.39-2.23-.64-.67-.91-1.17-.83-2.24-.96-.2-.6-.63-.81-1.28-.64-.07-.57-.25-1.1-.54-1.59-.47-.83-.8-2.39-1.7-2.87-1.1.04-1.38.96-1.28,1.91-.96-.21-1.78-1.44-1.68.43.05.93.27,2.08-.17,2.95-.8,1.61-2.42-2.61-2.31-3.38-.72.15-.27,1.23-1.28.96-.43-.73-.65-1.65-.69-2.49-.07-1.47.66-2.23-.59-3.57-.8.05-.67,1.09-.64,1.59-.8.35-.82-2.23-2.01-.3-.29.48-.91,3.99-1.03,4.02-1.13.22.46-4.72.59-5.01,1.13-2.51-.75-2.48-1.07-.3-.6-.16-.72-1.34-1.38-1.27-.6.07-.86,1.67-.85,2.23-.8-.15,1.71-5.66,1.6-6.69-2.32.41-1.62,4.16-3.34,4.24-.99.05-.24-1.12-.5-2.01-.81-1.89-.23-1.47-1.92-1.59.51-3.26-1.77-1.12-2.88-2.23-1.11.12-.46,1.94-1.92,1.59.28-1.8,2.09-2.36,2.88-3.82-.97-.84-2.65,2.26-2.8,2.11-.41-.41,1.35-2.44,1.52-3.07,1.32-1.11,2.71-2.16,4.28-2.91,3.92-1.86,7-1.22,10.54.96,1.85,1.14,3.93,2,5.87,2.99,1.06.54,2.13,1.07,3.19,1.6,1.49.76,1.51.02,2.99,0,2.54-.02,1.46,2.35,2.86,3.09.89.78,1.96-1.66,2.24-1.21.21.34-.2.8,0,1.14.29.48,1.3-2.62,1.42-2.9.53-1.18.42-2.3.88-3.54.33-.91,1.56-4.7,2.49-4.66v7.38c0,1.51-.82,3.46.96,3.46-.32,0,.33-1.26,0,0,.37-1.4,2.95-.21,3.83-.96,1.12,1.05-.53,2.78,1.42,3.43.99.32,2.11,0,3.01-.41.46-.21,3.96-3.54,1.96-3.65.74-.58,1.82-.63,2.71-.65,1.69-.03,1.13.52,1.13,1.92,0,1.95.84,1.95,2.59,1.94,3.36-.01,4.01-3.03.29-1.94.49-4.24.64-8.5.96-12.75,2.24,1.99,1.21,6.93,1.38,9.55.06.94.3,3.64,1.89,2.74,2.04-1.14-.62-2.91,1.53-3.8,4.5-1.86,8.99-3.86,13.08-6.55,1.62-1.06,2.86-.67,4.66-.92,2.77-.38,1.21.23,1.42,1.53,3.23,0,4.58.7,6.42,3.16.99,1.33.98,1.38,1.29,2.96.32,1.6.95-.13,1.24-.38.91.47.77,2.14.55,2.92ZM27.03,33.8c0,.09,0,.19.04.31.49.11.02-.53-.04-.31ZM38.67,19.69c-1.67-.07-1.56,1.2-.19,1.77,1.15.47,3.59.94,4.66.2.75-.52,1.42-2.23.02-2.2.36.12-1.18,1.34-.1,0-1.02,1.27-3.08.3-4.38.25ZM79.57,23.61c-.05-.2-.08-.42-.07-.66-.01.59.03.72.07.66ZM79.5,22.95c.2,0,.14.57.07.66.21.92.91,1.5,1.85,1.89.86-1.01-1.27-2.55-1.92-2.55ZM69.59,24.55c0,1.58,0,3.19,1.6,3.19.04-1.63-.54-2.65-1.6-3.19ZM59.04,26.78c-.49,1.25-.72,2.46-.32,3.83,1.35.1,1.35-3.54.32-3.83ZM72.79,32.52c.25-.07.63,0,.64-.32-.25.07-.63,0-.64.32Z"/>
    </g>
  </g>
</svg>