<?xml version="1.0" encoding="UTF-8"?>
<svg id="Layer_2" data-name="Layer 2" xmlns="http://www.w3.org/2000/svg" viewBox="0 0 111.52 89.22">
  <defs>
    <style>
      .cls-1 {
        fill-rule: evenodd;
      }
    </style>
  </defs>
  <g id="food_icons" data-name="food icons">
    <g id="shells">
      <path class="cls-1" d="M13.69,25.41c1.67,1.57,3.56,2.81,5.32,4.27,3.2,2.67,7.35,4.2,10.18,7.19.98,1.03,4.17,1.7,3.1,3.28-1.16,1.73-1.32,4-1.36,6.02,2.97,2.2,8.52.75,11.97,1.16,1.79.21,3.81-.25,5.63-.24,1.39,0,4.5.73,5.12-.94.65-1.76.31-3.85.27-5.68-.04-1.44-.89-3.85-.06-4.91,2.41-3.08,4.15-6.65,6.6-9.68,1.67-2.07,5.8-5.86,5.65-8.72-2.52-3.01-6.61,3.53-7.58,5.16-2.22,3.73-4.78,7.69-7.53,11.02-2.59,3.13-4.13,7.61-7.28,10.28-.11-2.01-4.26-4.3-5.74-5.24-1.01-.65-2.64-1.89-3.21-3.05-1.34-.56-2.62-1.28-3.71-2.25-2.67-2.4-5.94-3.67-8.99-5.68-2.39-1.57-4.37-4.11-7.02-5.08-2.83-1.04.06-3.9,1.51-4.55.77-.35,1.6-.66,2.23-1.25.38-1.15-.46-2.59.64-3.51,2.31-.21,6.46.99,5.36-2.82-.75-2.6,2.61-2.9,4.51-2.47,2.68.61,5.38,1.9,6.15-1.49.46-2.02,4.93-2.01,6.67-1.83,1.57.41,1.87,1.72,3.68.93,1.29-.56,2.57-.82,3.99-.61,1.07.9,2.58,5.87,4.8,3.51.19-.56.98.65,1.6.32.14-.56-.47-2.29.32-2.55,1.39.1,2.63.62,3.84,1.27.75.49,1.24,1.67,2.22,1.77,2.49.26-.86-4.19-1.81-4.63-1.89-.88-4.28-.95-6.16,0-.08-1.15-1.52-2.54-2.23-2.87-.67-.3-.04-.64-1.28-1.06-.9-.3-1.94-.32-2.88-.41-.98-.1-2.01-.12-2.94.28-1.53.66-.69.24-2.16-.02-1.71-.3-4.01-.26-5.64.28-2.2.73-4.2,2.1-6.5,2.18-1.87.06-4.86-.05-6.45.74-1.58.79-3.22,1.68-4.03,3.42-1.07,2.27-2.62,1.92-4.26,3.57-1.29,1.29-1.97,3.05-2.55,4.73-1.49,1.15-2.7,2.61-3.19,4.46,0,2.95,1.11,3.72,3.22,5.71ZM48.82,41.7c1.14-.8,2.04-1.89,2.56-3.19,1.26,1.7.74,4.41.96,6.38-1.81.85-4.16.15-6.08.32.44-1.47,2.02-2.1,2.56-3.51ZM35.72,42.02c.96-.14.8.85,1.6.96-.08.5-.96.07-.96.64-.12,0-.19-.03-.24-.06-.52-.23-.42-1.09-.4-1.54ZM48.82,41.7c-.55,1.47,1.12-.79,0,0h0ZM36.12,43.55c.07.03.15.05.24.06,0-.43-.46-.19-.24-.06ZM54.58,4.4c3.81-1.9-.07-1.02,0,0h0ZM66.4,12.81c1.87,1.73.41,3.57.33,5.62.06-1.4,1.03.29.26.1,2.09.74,2.76-3.48,2.51-4.61-.47-2.17-2.52-4.17-4.93-4.25-3.31-.1,1.33,2.66,1.84,3.14ZM39.05,10.19c.01.1-.22.27-.14-.05-.75,3.21.94,6.3.96,9.56.93,1.42.29,5.93,2.16,6.61,2.17.79.13-6.24-.04-7.13-.23-1.16-1.91-8.47-2.93-9ZM38.91,10.14s.09.02.14.05c0-.03-.04-.06-.14-.05ZM51.42,13.72c.2-.24.4-.48.59-.71-.32.37-.5.59-.59.71ZM52.02,13.01c.25,0-.95,1.2-.59.71-1.54,1.92-3,4.39-3.8,6.55-.83,2.26-3.08,4.13-2.32,6.77,2.31-.17,4.13-5.01,4.97-6.71.33-.66,3.05-7.28,1.74-7.32ZM36.09,28.5c.86.56,2.96,1.22,1.94-.64-1.09-1.97-3.15-4.52-4.73-5.99-.99-.92-3.27-4.97-4.78-5.02.16.06-.25.36-.16,0-.7,2.98,3.11,5.73,4.69,8.12.86,1.3,1.71,2.67,3.04,3.54ZM28.36,16.84c.05,0,.11,0,.16,0-.03-.01-.08-.02-.16,0ZM19.09,17.79c-2.92-.09,1.31,3.26,1.85,3.73,1.55,1.38,3.08,2.77,4.55,4.24,2.07,2.06,4.02,4.36,6.7,5.57-.5-.32.84-.26,1.26.08-.94-2.35-12.24-13.09-14.36-13.62ZM33.47,31.82c-.45-.13-.88-.3-1.29-.48.17.11.55.27,1.29.48ZM33.47,31.82c.15-.16.11-.29-.02-.4.08.19.09.33.02.4ZM111.36,54.89c-.19-2.93-.51-5.9-1.54-8.67-1.19-3.18-2.65-5.74-4.8-8.44-2.08-2.61-3.85-3.59-7.04-4.24-5.35-1.09-12.91,2.26-17.39,4.94-3.05,1.83-5.57,3.32-7.99,5.92-2.2,2.37-4.54,4.62-7.16,6.54-1.33,2.18-4.53,3.79-6.43,5.54-.97.89-2.41,3.37-2.21,4.82.05-.19.6.6.84,1.03,1.77,1.52,4.43,1.95,6.58,2.56,2.67.75,5.1,2.08,7.77,2.86,3.33.97,6.57,2.53,9.99,2.83,3.41.31,6.81.73,10.23.81,4.51.11,15.77-1.36,16.09-7.57.1-1.83,1.88-2.51,2.75-4.19.74-1.44.42-3.18.31-4.75ZM94.22,67.52h.96c-.32,0,1.61-.42,0,0,1.68-.44,3.4-.67,5.12-.96-.58.91-5.89,2.17-6.07.96ZM108.34,59.3c-2.96,3.83-7.49,4.3-12.03,5-6.03.93-11.75.76-17.77-.08-2.8-.39-5.61-.72-8.31-1.47-1.53-.42-3.29-1.17-4.89-1.27-.19.03-2.28.05-.21-.02-2.14.07-3.76-1.1-5.75-1.59.46-1.57,2.35-3.32,3.75-4.07,2.28-1.22,4.54-3.28,6.38-5.08,2.04-1.99,4.16-3.88,6.13-5.94,1.85-1.93,4.02-3.04,6.36-4.39,4.48-2.57,9.2-3.9,14.35-4.1,5.91-.23,6.4,4.59,10.02,7.96,1.09,3.92,4.83,11.38,1.98,15.05ZM65.12,61.46c.07,0,.14.01.21.02.04,0,0-.01-.21-.02ZM56.81,61.46c.98,1.34,1.04,1.26.83.87-.3-.26-.58-.54-.83-.87ZM56.74,68.09c-.65-2.1-3.69-2.49-5.37-3.76-1.35-.91-3.14-1.61-4.38-2.57-.81-.64-.75-3.61-1.37-4.76-1.66-.79-3.56-1.01-5.36-1.26-2.25-.31-3.23-1.34-5.22-2.32-1.96-.96-3.96-1.3-6.03-2.05-2.11-.76-4.18-1.64-6.41-2.03-1.04-1.01-1.68-2.4-2.86-3.27.31.31-1.2-.18-.76-.25-1.53,0-2.85.75-4.55.51-2.09-.3-4.23-.6-6.25-1.1-2.46-.62-5.2-2.92-6.91-.07-1.77,2.96-1.33,7.12-.86,10.37.28,1.88,2.44,3.03,3,4.97-.5,1.34-.64,2.82-.7,4.25-.15,3.44-.2,8.85,4.15,9.64,1.87.34,3.62.56,3.47,2.76-.09,1.29.07,2.65.79,3.76,1.62,2.48,5.23,2.75,7.9,3.03,2.36.24,1.77,1.18,2.47,3.17.54,1.53,2.29,1.67,3.7,1.87,2.29.32,4.62.24,6.93.21,2.28-.03,4.25-.45,6.46-.63,3.63-2.03,7.02-3.68,10.87-5.1,2.22-.79,3.85-2.22,5.89-3.28,1.6-.83,3.13-1.79,3.37-3.74.29-1.2-.88-2.42-.91-3.73-.04-1.62-.6-3.1-1.07-4.63ZM5.35,55.41c-.9.05-.76-.87-1.28-1.28-.17-.75-.9-.64-.64-1.59,1.27.63,2.17,1.29,1.92,2.87ZM14.93,78.68c-.24-1.8-.38-3.61-.67-5.4-.48-2.83-1.58-5.83-4.76-6.39.51-1.04-.49-4.68-1.39-3.01-.59,1.09-.24,2.48-.21,3.65.62,1.88,3.87.7,3.2,3.51-1.34-.44-2.9-.26-4.16-.96-.34-2.99-.99-6.31,0-9.24,1.61,1.59,3.79,2.38,5.56,3.74,1.75,1.35,1.92,4.06,2.56,6.05.81,2.5,2.29,2.83,4.45,4.01,1.46.8,1.58,3.43,1.82,5.01-2.22.16-4.28-.33-6.39-.96ZM34.76,86.01c-1.12-.12-1.67.95-2.88.64-.66.08-1.07-1.46-1.74-1.77-1.32-.6-2.88-.19-4.32-.67-.07-.01-.17-.04-.33-.11.16-.51.05-.93-.33-1.28.3-.55,5.47.53,6.3.6,2.35.21,4.08,1.99,6.81,1.95-.46,1.56-2.42.54-3.52.64ZM54.65,74.93c-.75.52-2.57,1.32-2.95,2.15-1.35.1-2.58.6-3.84,1.06-2.57.93-6,2.66-8.76,2.44-1.25-.1-1.56.48-2.48-.25-.63-.5-3.29-.1-4.17-.22-2.3-.3-6.78-1.06-7.88-3.17-.74-1.43-1-2.79-.17-4.29.69-1.24-.47-1.75-1.66-2.23-1.79-.72-2.79-.85-3.78-2.63-.64-1.16-1.17-2.41-2.05-3.42-1.07-1.24-.73-3.05-1.8-4.17-.75-.79-1.81-1.2-2.8-1.6-1.29-.53-2.98-.97-2.87-2.61.09-1.38,1.13-1.82.12-3.08-.87-1.08-2.38-1.52-1.97-3.24-.89-.27-.93-1.47-1.92-1.59v-1.27c3.8.9,7.62,2.15,11.58,1.77,2.13-.21,1.92.65,3.23,1.96.94.94,1.61,1.29,2.98,1.55,3.22.61,6.08,2.37,9.38,2.7.08.53,3.47,2.4,4.15,2.87,1.59.24,3.18.48,4.76.78,2.49.47,2.5.8,2.96,3.16.23,1.18.94,1.75,2.01,2.17,2.52.98,4.63,3.12,7.24,4.3,1.94.88,2.62,5.55.68,6.89ZM5.67,48.08c1.04.13,0-.43,0,0h0ZM25.49,84.1c.11.05.22.08.33.11.38.07-.36-.54-.33-.11ZM6.94,70.07c1.1.61-.36-3.1,0,0h0ZM18.99,45.83c.14,0,.28,0,.42.01-.21-.02-.35-.02-.42-.01ZM19.41,45.84c.12.07.23.15.34.24-.05-.05-.16-.13-.34-.24ZM4.07,54.13c.47.37-.14-.61,0,0h0ZM100.6,56.36c.06-.74.06-1.11.02-1.28.02.43.01.86-.02,1.28ZM89.98,51.6c-.3,0-.6,0-.88-.01.42.03.7.03.88.01ZM100.63,55.09c-.14-2.96-1.57-6.15-4.78-5.98-2.14.11-4.37.2-6.44-.41-.92-.26-1.78-.68-2.54-1.26-1.25-.06-2.51-.06-3.76.07-4.28.46-6.48,3.33-10.07,5.08-1.53.74-3,1.56-3.11,3.46,1.42,1.04,2.2-.84,3.51-.96-1.55,2.69,1.75,2.96,3.74,3.77,2.57,1.04,5.02,1.17,7.67,1.75,2.59.56,6.04.51,8.57-.15,1.14-.3,2.07-.79,3.13-.21.74.41,1.32.52,2.15.26.14-1.56-1.39-1.16.21-2.26.72-.49,1.06-1.32,1.7-1.89-.67.59-.11-1.89.02-1.28ZM95.49,57c-.19.45-2.55,1.14-2.96.94-1.46-.68-2.1.6-4.07.33.05-.81-1.4-3.34-1.55-1.68-.29,3.22-2.28-1.04-3.35-1.83-1.89-1.38-.85,4.82-2.78.97-.23-.46-1.81-1.87-2.35-1.55-.29.17-.83,1.73-1.16,1.21-3.63,0,2.09-4.21,3.39-4.59,2.54-.74,6.41-1.79,8.44.76-.57-.71,1.99-.07.88.01,3.05-.05,7.18-.95,8,2.49.42,1.78-.59,2.88-2.49,2.91ZM16.81,54.72c-.09.12-.16.24-.27.36.2-.23.27-.33.27-.36ZM16.81,54.72c2.29-3.16-2.03-5.26-4.9-4.66-1.98.41-.82,1.7.74,1.52.87-.1,2.86.44,2.94,1.59-.74.11-3.02-.54-3.2.64.64-.11.09.88.49,1.03.98.39,2.6.64,3.66.24-.35.13.29-.46.27-.36ZM11.74,52.54c.36-.03.5.46.64,0,0-.32-.56-.4-.64,0ZM32.79,58.67c-4.32-2.34-12.46-6.8-16.38-1.93.81-.91.14,1.5-.2.25.41,1.46,1.66,2.79,2.2,4.29.47,1.32,1.17,2.11,2.46,2.65,1.3.55,2,2.43,3.18,3.38,1,.8,2.09,1.49,3.02,2.38,1.31,1.25-.41,2.07,1.01,3.1.95.69,1.93,1.33,3.09,1.59,2.39.55,5.33-.75,7.12-2.29,5.81-5-.75-10.85-5.5-13.42ZM20.05,57c1.41-.2-.5,2.55,0,0h0ZM36.77,69.92c-2.21,1.99-2.01-1.01-3.94-.8.64-.62-.74-1.77-1.3-1.89-1.38-.31-1.6-1.08-2.67-2.12-.9-.87-1.76-1.77-2.11-3-.54-1.01-1.82-1.25-1.92-2.55.1,1.39-1.23-.47,0,0-1.19-.45-2.9-.57-2.88-2.23,2.89,1.05,6.01,1.65,8.71,3.17,1.17.66,1.96,1.14,3.15,1.74,1.2.6,1.66.66,2.56,1.7,1.5,1.72,2.34,4.22.38,5.98Z"/>
    </g>
  </g>
</svg>