<?xml version="1.0" encoding="UTF-8"?>
<svg id="Layer_2" data-name="Layer 2" xmlns="http://www.w3.org/2000/svg" viewBox="0 0 119.08 102.1">
  <defs>
    <style>
      .cls-1 {
        fill-rule: evenodd;
      }
    </style>
  </defs>
  <g id="food_icons" data-name="food icons">
    <g id="shrimp">
      <path class="cls-1" d="M106.48,59.07c-.1.2-.26.33-.43.44.08.02.24-.08.43-.44ZM93.7,31.02c0-.53-1.56,3.76,0,0h0ZM76.76,24.96c.13,1.51,1.03.07,0,0h0ZM103.2,48.65s.05-.07.09-.1c-.08.07-.1.09-.09.1ZM118.65,57.46c-.5-1.59-1.23-3.09-1.68-4.7-.46-1.64-.92-.9-1.84-1.98-.05-1.85-.55-3.6-1.34-5.26-.59-1.24-.84-1.2-.39-2.3.12-.5.12-1,0-1.5-.25-1.8.32-1.75-1.13-2.89-.55-.43-.76-2.15-1.05-2.85-1.08-2.61-4.65-4.12-7.03-5.51-1.65-.96-1.62.05-2.8.73-.81.47-1.11-1.29-2.23-1.46-.19.65.18,2.21.85,2.21.65,0-1.09,2.95-1.32,3.59-.41,1.12-1.05,1.09-1.42,2.36-.3,1.07-.71,2.1-1.21,3.09-.59,1.15-1.68,3.72-2.92,2.96-3.54-2.18-.99-5.25-.04-8.08.52-1.54,1.65-2.79,2.19-4.32.44-1.24.45-2.79,2.27-2.77-.97-.01-.68-.67,0,0-1.15-1.14,1.54-1.18-.13-2.53-.77-.62-1.54-1.24-2.33-1.85-1.61-1.23-3.29-2.37-5.14-3.21-2.15-.98-3.84-1.19-6.14-1.13-1.01.03-1.62.62-2.57.75-.96.13-1.92-.14-2.89,0-1.79.27-.84-.28-2.17-1.1-.81-.5-2.42-.4-3.33-.44-2.53-.1-5.05.2-7.54.6-5.06.83-10.18,1.12-15.27,1.78-3,.38-6,.76-9.02.98-2.34.17-4.82-.23-7.09.41-1.39.39-1.63.22-2.89-.2-1.1-.37-2.42.15-3.54.21-2.7.14-5.39-.23-8.08-.33-1.84-.07-4.77-.1-5.31-2.54-.23-1.47-.01-3.06,1.1-4.14,1.98-1.94,5.5-1.67,7.86-.64-.11-3.8-5.82-3.35-8.04-2.76-3.09.82-4.11,4.42-4.11,7.22-.61,1.16.88,2.18-1.59,1.19-1.13-.46-2.03-1.3-2.62-2.36-1.27-2.28-1.3-5.15-1.26-7.69.08-4.26,6.1-8.14,10.12-6.3,2.9,1.33.2,5.6,4.94,4,.77-2.47.47-5.12-1.6-7.01C15.85-1.09,11.27.11,7.85,1.42c-3.4,1.3-4.85,2.8-6.6,5.94-2.65,4.73-.75,12.82,2.74,16.76,4.09,4.61,12.46,4.08,17.98,4.03,2.91-.03,5.88.16,8.77-.28,1.39-.21,2.47-.34,3.51.92.26.28,1.46.6,1.5,1.1-.02-.28-7.21,1.75-7.97,1.96-2.37.65-5.58,1.18-6.31,3.96-.07,2.96,2.97,4.27,4.98,5.82,1.54,1.19,3.4,1.9,5.25,2.47,1.38,1.08,2.9,1.98,4.5,2.69,3.27,1.44,6.67,2.1,10.04,3.22,3.49,1.16,7.93,2.23,11.59,1.05,3.72-1.2,7.38-2.73,10.66-4.89,1.02-.67,3.49-1.96,3.71-3.27.1-.63-.18-2.14.75-2.31,1.12,2.74,4.68,6.51,8.37,6.43,2.03-.04,3.79.63,5.91-.08,1.74-.58,2.73-1.63,4.32-.52,1.04.72,2.09,1.41,3.13,2.14-3.72,1.27-.96,4.26.33,6.32.73,1.16,1.85,1.55,3.19,1.33.96-.95.78-2.06,1.46-2.85.98-1.12,1.22-.15,1.67.84.37.84,1.58,1.82,1.71.09.09-1.02-.56-1.88-.69-2.86.61-.39,1.18-.83,1.71-1.32,1.11-.95,2.11-1.6,3.1-2.7.91-1.02,2.74-3.21,3.61-1.5.31.61,1.2,1.53.57,2.16-.38.28-.5.66-.35,1.14.46.04.97,2.2.96,2.55-1.46.49-2.81,1.22-4.14,1.99-2.24,1.29-6.14,1.14-7.41,3.54-.63,1.19-.09,2.62.03,3.99.13,1.48,1.34,2.08,2.24,3.32.7.96,2.09,1.52,2.71,2.4.31.44,1.44,1.1,1.46,1.34,2.55.05,7.88.38,9.66-1.71,2.27-2.66,3.25-5.79,2.18-9.14ZM71.97,32.64c-.95,3.35-.86,9.26-4.13,10.2-.71.21-1.02.89-1.63,1.24-1.11.19-2.09.77-3.2.96-.3.61-2.69,2.22-3.08,1.84-.1-.1,2.56-1.63,3.08-1.84-.99.4,1.45-1.43,0,0,.57-.56,5.74-3.58,4.17-4.64-1.73-1.17-3.68,1.41-5.13,1.77-1.18,1.08-2.61,1.81-3.88,2.76-1.29.96-2.27.75-3.72,1.29-1.29.48-1.21-.21-2.47,0-1,.17-2.02.09-3.03.09.33-.54,3.28-2.45,1.28-2.9-1.32-.29-2.58,1.27-3.17,2.23-1.17,1.89,1.49.25.93,1.63-1.82-.04-3.38-.91-5.12-1.27.59-.61,3.89-4.63.73-3.27-.95.41-1.58,1.43-2,2.32-1.16-.19-2.15-.77-3.19-1.28.69-.83,3.31-4.28.32-3.83,1.4-1.3-.43-2.15-1.63-1.69-1.06.4-1.74,1.35-2.71,1.9-1.76.99-1.25-.59-2.71-1.14-1.48-.56-2.73-1.54-4.14-2.25.27-1.25,4.44-1.42,5.32-1.6,2.21-.46,4.47-.76,6.73-1.18,1.39-.25,2.81.28,2.7-1.49-.05-.93-.35-1.81-.36-2.75-1.1-1.05-3.18-1.67-4.58-2.24-1.5-.62-2.28-2.33,0-2.44,1.94-.09,3.88-.12,5.82-.04,4.49.17,8.98-1.62,13.44-2.15,2.78-.33,5.58-.07,8.36-.39,1.71-.2,3.79.51,5.33,0,5.56-1.85,2.41,7.61,1.68,10.17ZM76.51,32.57c-.5,2.78.24,7.22-3.59,6.73.21-1.7.22-3.44.64-5.1.03-.5.28-.81.77-.93.64-.26.89-.77.74-1.54.57-2.52,1.92-4,1.68-6.77.93.06,1.6-.52,2.55-.32-.11,2.72-2.32,5.25-2.8,7.93ZM85.71,40.9c.66-2.38.46-2.73-2.24-3.19.41-2.22-2.76-2.33-2.88,0-1.12-1.02.56-6.01.91-7.27.5-1.78.32-3.05.59-4.93.25-1.73,1.15-1.28,2.62-2.11,1.67-.94,5.76-.07,7.07,1.57.02,2.33,1.92,3.71,1.92,6.06-1.25,3.02-2.25,6.14-3.68,9.08-2.09,4.31-1.7-.84-4.31.8ZM95.94,49.19c.97-1.18,1.08.97,0,0h0ZM98.49,52.69c-.17-.17.23-.41.32-.32.16.17-.23.41-.32.32ZM99.13,52.37c-.16-.17.23-.41.32-.32.17.17-.23.41-.32.32ZM106.5,45.11c-.58,1.54-1.75,2.7-3.21,3.44,1.53-.77-.01.15-.09.1-.53.51-.67,1.29-1.19,1.81-.93-.74.52-1.81.64-2.55-.5-.56-1.45,1.41-2.23,1.28.21-.73-.44-.91-.32-1.59-.74.55-2.72.65-2.88-.16-.32-1.67-2.81-1.92-1.43-4.07.9-1.41,1.97-2.44,2.81-3.84.89-1.47,1.25-3.19,2.1-4.68,1.13-1.97,2.82-1.42,4.39-.15,2.02,1.62,3.04,2.09,3.73,4.74.64,2.46-1.56,3.68-2.32,5.67ZM114.55,63.67c-1.07,1.9-4.79,1.1-6.79,1.14.25-.85,2.27-1.71.41-2-1.15-.18.1-1.67.23-2.14-.08-.22-3.44.91-4.16.64-.22-1.4,1.03-1.28,1.81-1.79-.14-.03-.07-.41.43-.44-4.43.24.7-1.56.32-2.87,3.1.4,8.63-3.55,8.91,1.4.14,2.64.19,3.7-1.16,6.07ZM48.31,28.47c-.07,2.42-.38,4.07,1.8,5.65,2.11,1.53,5.23.69,6.7-1.33-.5.6,0-1.36.17-1.37-.23-4.38-5.3-6.3-8.68-2.95ZM51.83,30.38c-.05-.69,1.13-.14,1.6-.32.02,1.46-.94.64-1.6.32ZM56.94,32.61c.12-.9.11-1.19.04-1.19.02.38.02.77-.04,1.19ZM97.54,28.78c.2.46.39-.03,0,0h0ZM99.13,29.74c-.2-.46-.39.03,0,0h0ZM39.68,44.09c1.33-.37,2.45-.96,2.56-2.55-1.64.07-2.49.92-2.56,2.55ZM72.53,52.89s.05.08.08.13c-.04-.1-.07-.13-.08-.13ZM72.61,53.37c-.06-.23-.11-.47-.09-.49-1.21-2.28-5.65,1.13-6.64,2.36-1.1.07-4.4,2.13-4.79,3.19-1.76.22-4.04,3.14-5.43,4.15-2.45,1.78-4.29,3.72-5.75,6.37-1.31-.17-.94-1.96-2.23-.1-.83,1.18-1.52,2.45-2.29,3.67-1.04,1.65-1.96,4.27-1.82,6.25.24,3.16,3.36,1.4,3.67-.77.34-2.35,1.12-4.65,2.16-6.85.54-1.13,2.12-1.69,3.38-1.88,1.37-1.01,2.66-2.1,3.95-3.21,2.19-1.89,4.53-3.62,6.7-5.52,1.69-1.49,9.11-4.43,9.19-7.17ZM72.6,53.01c.03.12.02.24.01.36.11.41.23.77-.01-.36ZM84.75,55.56c-.03-.27-.07-.45-.11-.57.05.18.08.37.11.57ZM67.54,68.21c.39-1.8,2.06-2.18,3.55-3.16,2.92-1.92,5.58-4.03,8.59-5.8,1.25-.73,2.53-1.36,3.79-2.09.38-.22,1.11-1.58,1.28-1.59-.48.04-.33-1.15-.14-.67-1.55-5.4-12.11,3.71-14.36,5.5-1.75,1.4-1.8,2.26-2.76,4.09-1.22-.14-1.82.61-2.88.96-1.07,2.38-2.18,5.99-1.82,8.66.39,2.88,3.43,1.41,3.76-.77.26-1.71.62-3.43.99-5.12ZM56.6,58.15c.04-.53.4-1.84.66-1.31-1.85-3.8-11.05,2.09-13.19,3.54-1.36.92-2.64,1.93-3.94,2.92-1.39,1.06-2.4,2.63-3.75,1.29-1.42-1.42-4.9-1.59-6.86-2.72-1.95-1.13-4.02-2.3-6.15-1.86-2.53.53-1.79,3.89.3,4.66,2.3.85,4.36,2.15,6.76,2.92,1.28.41,2.43,1.02,3.82,1.04,1.25.12,1.58-.81,2.56-1.28.03,4.58,10.2-3.54,11.5-4.14,2.17-2.38,6.41-2.46,8.29-5.06ZM57.26,56.84c-.16.5-.39.93-.66,1.31-.03.41.12.36.66-1.31ZM87.63,58.75c-.91.26-1.62.72-1.92,1.6,1.06-.11,1.39-.95,1.92-1.6ZM106.48,59.07h.64c-.08-.4-.64-.32-.64,0ZM85.71,60.34c-.47.2.03.39,0,0h0ZM112.98,70.71c-1.56-1.17-3.6-.97-5.39-1.58-1.79-.61-2.91-1.28-4.57-2.2-1.89-1.06-6.28-1.19-6.69,1.62-.16,1.15-2.85,2.62-3.7,3.58-.84.96-1.65,1.42-1.71,2.8.05.67.02,1.33-.09,1.99-3.83,1.66-7.76,3.07-11.78,4.19-3.52.98-6.87,1.56-10.34,1.8-4.7.32-2.1,5.23.55,6.68,2.58,1.41,5.09,2.29,8.15,2.32,1.61.01,3.22.23,4.67-.56-.07.04,2.47-2.18,1.97-.49-.27.91-1.61,1.05-2.1,1.74-.73,1.01-1.8,1.7-2.62,2.64-1.64,1.87-3.69,1.55-3.84,4.3.24,2.14,4.46,2.55,6.07,2.55,3.42,0,5.97-.46,9.02-2.06,4.57-2.4,8.94-7.44,8.59-12.95-.07-1.1-1.02-3.12.11-3.84.75-.47,1.5-.84,1.46-1.86,1.21-.35,2.23-1.5,2.23-2.71,0-.72-.64-1.2-.64-1.59,0-.96,1.24,1,1.26,1.05.23.53,1.25.89,1.74,1.11,1.74.81,2.98-.96,4.34-.74,2.07.33,3.76-5.27,3.6-7.25-.09.09-.56-.67-.29-.55ZM95.3,84.47c0-.08-.12,2.54-1.13,1.71-1.68-1.38-1.11,1.37-2.17,2.6-.37.43.12,1.58-.72,1.43-.45-.22-.92-.29-1.41-.21-.65.65-.27,2.07-.32,2.87-.64.66-.85-.44-1.6-.32-1.06.08-.57,1.94-.64,2.55-1.44-.34-1.26.96-2.56,1.59-1.22-.2-2.3.47-3.52.32,1.57-2.64,4.19-4.78,5.44-7.49.74-1.6,1.51-2.96,2.55-4.52.17-.25,3-2.52,2.88-1.06.03-.44.5-.56.54-.44.75-.86.77-2.38,1.06-3.38,1.82.87,1.6,2.68,1.6,4.36ZM98.49,78.51c-.62.74-2.76-1.45-4.16-.96-.6.2-.81.63-.64,1.27-.47-.03-.89.07-1.28.32-.74.46-1.19,1.22-1.69,1.9-1.52,2.05-3.92,3.12-5.34,5.43-.91.42-2.91,2.56-3.8,1.48-.39-.48,1.16-1.52-.23-1.61-.77-.05-2.06.27-2.37,1.09-1.17-.92-1.04-1.06-2.33.22-.44.44-1.75.43-1.5-.54-.95-.06-1.36,1.06-2.34.42-.63-.42-1.32-.57-1.93-.94-2.15-1.31,1.83-2.1,2.63-2.45,3.04-1.35,6.62-.84,9.59-2.36,1.02-.52,3.86-3.03,5.03-2.19,1.12.8,1.99-1.58,2.69-.34.14.25,6.11-5.23,7.03-6.16.11,0,.18.02.23.04.97.18.84,1.46,1.68,1.87-.65.68-3.96,2.57-1.28,3.51ZM108.04,72.73c-.67.64-2.61,3.66-3.71,2.16-1.27-1.74-3.23-3.16-4.88-4.66-.15-2.15,3.26-1.49,4.16-.32-.69-.9,2.53-.29,0,0,1.39-.16,6.53.82,4.43,2.82ZM113.2,70.86c.04.1.06.24.07.39.03-.03.02-.14-.07-.39ZM92.64,83.49c-.15.17-.32.33-.54.44.44-.22.56-.37.54-.44ZM112.98,70.71c.07.05.15.1.22.16-.1-.09-.17-.14-.22-.16ZM98.09,73.13c-.08-.01-.14-.04-.23-.04-1.5,1.51.8.26.23.04Z"/>
    </g>
  </g>
</svg>