<?xml version="1.0" encoding="UTF-8"?>
<svg id="Layer_2" data-name="Layer 2" xmlns="http://www.w3.org/2000/svg" viewBox="0 0 94.75 114.19">
  <defs>
    <style>
      .cls-1 {
        fill-rule: evenodd;
      }
    </style>
  </defs>
  <g id="food_icons" data-name="food icons">
    <g id="silverware">
      <path class="cls-1" d="M11.59,75.27c.07.13.15.25.28.3,0-.34-.22-.38-.28-.3ZM14.11.97c.21.03.39.08.58.13.8.1,1.79.17-.58-.13ZM26.71,6.65c-.2-1.91-1.38-1.27-1.76-2.65-.35-1.24-.76-1.65-2.34-1.36-2.39.44-1.35,3.69-1.64,5.5-.55,3.4-.47,6.75-.47,10.19,0,1.84.12,5.87-1.59,7.19-1.67-4.61-.73-9.84-1.28-14.62-.34-2.97.92-8.77-2.94-9.8-.42-.05-.78-.11-.58-.13-2.35.18-2.22,4.63-1.61,6.2.53,1.34-.47,4.72-.43,6.3.06,2.06.23,4.11.22,6.17,0,.69-.42,10-2.95,7.07-1.87-2.16-1.81-7.25-1.95-9.87-.2-3.81-.4-8.04-2.27-11.46-.73-1.33-2.03-1.73-3.49-1.52C.14,4.76.17,7.06.1,8.59c-.44,8.61.57,18.15,4.2,26.04,1.11,2.42,2.36,3.46,4.7,4.61.6.5,1.47.36,2.12.75.86.51.45,2.19.43,2.98-.13,4.48-.99,8.88-1.44,13.32-.28,2.81-.37,5.63-.16,8.45-.39,2.57-.71,5.15-.99,7.74-.56,5.31-.49,10.72-1.39,15.97-.95,5.53-1.1,11.16-1.54,16.74-.37,4.61,2.16,7.24,6.55,8.41,3.84,1.02,9.32,1.2,10.86-3.37,1.23-3.64.6-8.54.59-12.35-.02-5.32-.99-10.75-1.8-16.01-.75-4.9-1.02-9.89-1.07-14.84-.03-2.34-.36-4.62-.32-6.94.02-1.46-.23-3.94-.99-5.23-.71-4.77-.83-9.7-2.24-14.35,7.19.55,8.3-6.1,9.37-11.66.72-3.77.26-8.06.22-11.89-.04-3.44-.14-6.88-.5-10.3ZM12.19,71.1c.71.23.15,1.82-.64,1.59.33-.42.32-1.17.64-1.59ZM12.19,66.64c.25-.58.34.19.32.64-.25.58-.34-.19-.32-.64ZM11.87,73.02c1.19-.25.46,1.68.64,2.23-.43-.37-.64-.26-.64.32-.28-.12-.32-.24-.28-.3-.31-.62-.07-1.91.28-2.25ZM12.83,80.67c.17.17-.23.4-.32.32-.17-.17.23-.41.32-.32ZM12.19,80.03c-.17-.16.23-.41.32-.32.16.16-.23.41-.32.32ZM10.27,108.08c.23-1.05,1.48-1.07,1.6-2.23.71.74-.53,2.22-1.6,2.23ZM23.18,33.93c-.15,1.6-1.08,1.26-2.15,2.32-.96.96-3.17,1.27-4.69,1.06.08,1.29.64,2.23.63,3.62,0,1.38,0,2.75,0,4.13.02,3.17.07,6.34.14,9.51.13,6.28.32,12.56.44,18.85.1,5.55.74,11.59,2.02,17.02,1.23,5.21.28,11.64.28,17.01-.5-.03-1.54-.16-1.6.64-.35-.07-.33-4.67-1.12-4.35.02,0-1.06,1.65-1.12,1.79-.29-.36,1.79-5,.07-4.08-.74.4-1.92,3.01-1.99,3.76-.81-1.04.69-2.87.32-4.14-1.03-.12-.56,1.62-.96,2.09-.23.28-1.64-.85-1.6-1.14,2-1.14-.28-1.98-.32-2.23.32-1.01,1.58-3.31,1.22-4.3-.55-1.55.45-2.31.04-3.73-.45-1.54-.66-1.75.18-3.41.42-.84,2.12-3.46.15-3.22-1.27.16-.54-1.49-.22-2.09-.15.29,1.39,1.91,2.11.34.76-1.66.68-3.71.68-5.47v-16.5c0-4.04-.64-8.09-.64-12.1,0-1.17.24-9.79-1.28-10.09.36-.47,1.1-1.35,0-1.59.28-.52.33-1.05.15-1.59-.52-1.24-1.82-.66-2.63-.12-1.22.82-2.8.24-3.55-.96-.02-.03-.66-1.54-.36-.84-.14-.34.92-.24.8-.12,1.26-.3,2.21-1.15,2.72-2.43-2.05-.1-2.56,1.75-4.16,1.91-.62-2.27-1.27-4.55-1.98-6.79-.76-2.42-.97-4.47-1.34-7-.67-4.56-1.08-9.29-.83-13.94,1.89-.21,2.56,10.07,2.56,11.24,0,3.34-.04,9.88,2.24,12.67,2.14.65,4.4.86,6.01-.91,1.53-1.67,1.48-4.61,1.55-6.81.18-5.72-.78-11.43-.21-17.14,1.34-.45.96,9.38.96,10.27,0,2.1.52,4.93-.29,6.87-.48,1.16.37,4.49,1.24,5.26,7.18,6.29,6.08-14.12,6.08-16.66-.25-1.76-1.15-3.26-.96-5.1,1.84-.56,2.41-.62,2.27,1.61-.27,4.25.34,8.65.28,12.95-.08,4.69-.69,9.25-1.14,13.94ZM7.39,34.13c.53-.03.75-.08.8-.12-.25.06-.52.11-.8.12ZM89.06,41.02c1.88-2.5,3.26-5.35,4.23-8.31,1.26-3.84,1.65-7.97,1.37-11.78-.29-4.06-1.88-7.33-2.56-11.35C89.15,6.27,87.53.02,82.1,0c-2.95-.01-3.82.69-6.08,2.3-.86.62-1.79,1.14-2.77,1.54-.53,1.12-1.09,2.22-1.69,3.31-1.25,2.3-3.56,4.84-3.91,7.42-.31,2.37-.61,4.74-.82,7.12-.22,2.54-.33,5.09-.3,7.65.72,1.55,1.04,3.38,1.33,5.05.37,2.1,2.72,6.25,4.44,7.53,1.02.76,2.1,1.41,3.18,2.08.02,1.33.04,2.67.04,4,0,2.57-.04,5.13-.23,7.69-.34,4.54-1.14,9.12-1.04,13.61.11,5.28-.11,10.56-.43,15.83-.33,5.31-.23,10.92-1.45,16.08-.86,3.68-2.61,8.91,1.69,10.62,2.06.82,5.13,1.62,7.3,1.14.91-.21,3.98-1.05,2.42-2.59-.48-.47-1.18-.6-1.74-.94-.7-.43-.96-1.33-1.53-1.92-.72-.75.6-3.62.84-4.91.32-1.73-.72-2.5.1-4.19.58-1.18,1.31-2.72,1.01-4.08-.42-1.86-1.44-1.14-1.76.14-.47,1.87-1.48,3.49-2.67,4.99-.08-1.47,1.32-2.03,1.57-3.35.33-1.67-1.41-.83-1.25-1.43,1.25.12,1.58-.81,2.56-1.28-.87.41.41-1.51,0,0,.14-.52,2.85-6.57-.19-4.17-.83.65-1.06,2.43-1.89,2.79-.99.43,1.14-3.62,1.27-3.79.58-.81.69-1.33-.35-1.48-.74-.11-.44-1.26-.44-1.74,0-.78,1.04-4.78.65-5.01-.7-.4-.64-4.44-.01-5.09.6,1.57.28,3.87,1.6,5.1,1.27-5.68-2.35-11.14-1.23-16.79.4-2.02-1-.76-1-2.33.09-1.07.02-2.13-.09-3.19-.15-1.38-.33-2.75-.23-4.15-.4-.75-.8.17-1.21-.11-.97-.67-.07-9.04-.07-10.41-.66-.32-1.15-2.01-1.72-2.64-.83-.92-1.59-1.84-1.79-3.1.5.03,1.54.16,1.6-.64-1.35-.48-1.59.6-2.4-.96-.66-1.26-.78-1.26-1.79-1.32-.66-.04-1.8-5-1.89-5.69,1.48-1.06,3.14-2.05,3.83-3.83-1.69-1.61-3.63,3.93-3.82.51-.08-1.65-.49-1.9.86-3.15.68-.62,1.37-1.25,1.68-2.15-1.33-.52-1.3.89-2.26,1.09-.39.08-.3-6.11-.3-6.83.71-1.8,1.67-3.48,2.6-5.18,2.02-3.7,4.63-6.94,9.23-7.25,7.88,2.84,9.54,14.52,9.62,21.79.05,4.55-1.41,9.81-4.02,13.6-1.53,2.23-3.23,3.67-5.24,5.46-1.61,1.43-1.01,3.38-.53,5.33,1.14,4.58.87,9.63,1.21,14.34.33,4.46.73,8.9,1.22,13.34.52,4.72,1.14,9.44,1.89,14.12,0,4.44.96,8.76.96,13.18,0,1.33-.72,5.36.64,6.27.96.17,2.49.01,2.51-1.16.09-3.8.02-7.73-.39-11.76-.89-8.78-2.86-17.43-3.62-26.24-.38-4.36-1.06-8.78-1.51-13.16-.21-1.97-.51-3.81-.51-5.8,0-1.84-.86-3.46-.96-5.31,2.26.32,5.07-3.37,6.22-4.9ZM79.2,103.68s0-.02,0-.03c-.36.09-.08-.22.05-.14.03-.04.05-.01.06.11-.04.01-.08.04-.12.06-.11.41-.24,1.35-.2,1.53-1-.13-.41-1.22.2-1.53ZM76.76,64.09s-.02-1.99.2-1.79c.47.43-.18,2.53-.08,2.62-.12-.27-.15-.54-.12-.83-.02.45,0-.53,0,0ZM76.76,66.64c.27-1.01.43.57.32.96-.27,1.01-.42-.57-.32-.96ZM71.63,31.74c1.44.56,3.79-1.2,3.87-2.75-.06.69-.99-.14-.87-.41-1.94.12-4.45,2.6-2.99,3.16ZM79.26,103.51s-.03.07-.05.14c.03,0,.06-.01.11-.03,0-.06-.03-.09-.06-.11ZM50.87,1.29c.19.05.33.11.42.19-.02-.06-.14-.12-.42-.19ZM74.62,28.57c.31-.02.6.02.86.13-.58-.26-.81-.25-.86-.13ZM81.88,80.35c.19-.03.37-.02.54,0-.09-.03-.25-.04-.54,0ZM70.37,15.64c1.66-.48,2.57-1.69,3.19-3.19-2.19-.05-2.54,1.71-3.19,3.19ZM82.42,80.35c.4.15-.94.83-.54,0-.43.9-.18,3.48,1.4,2.35,1.1-.79.43-2.19-.86-2.35ZM85.02,91.84c.06-.39.05-1.94-.39-2.44-.01.31-.47.78-.52-.12.07,1.24-1.19,2.64-.32,3.82.77-.03,1.12-.57,1.23-1.26ZM57.26,92.78c-.95-10.68-2.79-21.32-4.03-31.97-.65-5.59-1.7-11.17-1.88-16.79-.16-5.24-.16-10.47-.18-15.71-.02-5.42-.82-11.25.07-16.6.36-2.17-.07-4.02-.11-6.16-.01-.71.27-1.73-.27-2.35-.42-.03-1.11.04-.96-.64.87.29,1.96-.61,1.39-1.08.07.18-.94.24-.42-.19-1.27,1.06-2.11.19-3.38,1.77-1.11,1.38-1.88,2.97-2.79,4.48-2.56,4.22-4.83,9.11-6.04,13.88-1.2,4.75-1.6,9.65-2.2,14.51-.67,5.46,2.01,9.46,3.09,14.59.92,4.39,3.38,8.34,3.97,12.93-.02,5.11-1.34,10.1-1.37,15.21-.02,5-1.08,9.98-1.42,15-.31,4.62-2.18,11.87.92,15.56,2.77,3.32,5.3,3.35,9.22,2.75,1.27-.19,1.51-.14,2.19-1.24.51-.83,1.22.09,2.13-.21,1.41-.46,2.42-1.97,2.58-3.3.57-4.82-.9-9.62-.5-14.45ZM43.84,106.17c-1.11.23-1.15-1.12-.64-1.59.7.05.68.8.64,1.59ZM52.72,106.21c-.79.31-1.01,1.17-1.87.77-1.05-.49-2.91.05-1.68-1.4.47-.55,2.56-4.41.25-3.39-1.09.48-1.28,2.14-2.7,2.08.13-1.32,3.11-3.12,2.64-4.29-.12-.31-.71-.08-.94-.21-.22-.13.23-1.33.22-1.56-.83-.05-1.68,2.26-2.08,2.2-.5-.08,2.96-7.16,3.27-7.8.37-.73,2.63-5.05.1-4.18-1.3.45-2.65,2.79-2.9,4.04-1.43-1.76.71-5.74,1.34-7.5.56-1.57,1.15-2.45,1.49-4.13.29-1.44.56-2.83.37-4.31-.99-.05-1.11.88-1.28,1.59-1.69-.55.15-13.16,0-14.98-1.1,1.79-.8,4.38-.96,6.38-1.73-2.05-.94-4.82-2.08-7.01-.99-1.92-1.02-4.38-1.79-6.45-1.7-4.55-3.49-9.13-4.89-13.79-1.63-5.45.06-11.16.64-16.69.53-5.04,2.72-9.85,4.92-14.39-1.21,2.51,1.19-2.54,0,0,1.15-2.47,2.75-4.69,4.16-7.01,1.21,1.41.12,5.34-.17,6.91-.5,2.71-1.14,5.33-.71,8.12.88,5.65.24,11.87.24,17.62s.19,11.29.98,17.02c.75,5.42,1.42,10.84,1.58,16.31,2.43,10.35,2.51,21.66,2.52,32.26,0,1.2.6,3.31-.67,3.8ZM81.88,104.9c1.24.06.34-2,.96-2.55-1.05.12-.78,1.56-.96,2.55ZM84.44,103.62v2.55c2.22.27.98-2.36,0-2.55ZM84.63,89.39c0-.17-.12-.29-.52-.12.22-.1.39-.03.52.12ZM81.56,105.85c-.1.43-.46.61-.32,1.28.89.51.88-1.38.32-1.28Z"/>
    </g>
  </g>
</svg>