<?xml version="1.0" encoding="UTF-8"?>
<svg id="Layer_2" data-name="Layer 2" xmlns="http://www.w3.org/2000/svg" viewBox="0 0 77.27 111.01">
  <defs>
    <style>
      .cls-1 {
        fill-rule: evenodd;
      }
    </style>
  </defs>
  <g id="food_icons" data-name="food icons">
    <g id="soda">
      <path class="cls-1" d="M15.91,35.69c-2.02-.01-4.04-.02-6.06,0-.6.57,10.39.09,6.06,0ZM77,3.18c.02-1.11-.51-3.18-1.93-3.18.11,0-.18.54,0,0-.24.73-4.25.97-5.11,1.27-1.72.59-3.43,1.55-5.25,2.04-1.57.42-5.46.45-6.26,2.11-1.37-.7-2.73-.2-4.12.06-1.6.3-1.8-.77-2.25,1.15-1.4,5.97-2.68,12.02-3.97,18.02-.42,1.95-1.32,3.88-1.16,5.9.24,3.14-3.29,1.87-5.59,1.83-6.73-.11-13.47-.16-20.2-.32-3.25-.08-6.49-.16-9.74-.3-2.97-.12-5.43-.85-5.08,2.99-1.08.54.6,3.36-1.6,2.55-2.15-.35-3.68.49-4.52,2.47-.46,1.1-.25,3.57,1.02,4.14.88.4,1.05-.34,1.78.49.32.37.88.43,1.33.49,2.11.28,1.82.96,2.29,2.87.61,2.47,1.17,4.95,1.69,7.44,1.08,5.12,1.99,10.27,2.84,15.43,1.8,10.98,3.26,22,5.07,32.98-.28,3.93,8.12,6.21,10.83,6.65,5.08.84,9.58,1.06,14.63.25,2.2-.35,4.7-.19,6.5-1.65.56-.46,1.1-.93,1.78-1.21,1.03-.42.89-.87,1.74-1.49-.29-1.42,1.16-2.41,1.16-3.84.01-2.09-.07-3.65.46-5.74,1.25-4.94,1.29-10.44,1.65-15.52.36-4.95,1.36-9.74,1.91-14.67.57-5.07.53-10.57,1.62-15.55.41-1.87.86-3.56,1.49-5.25.72-1.96,1.71.31,2.89-.94,4.46.3,4.57-2.84,3.33-6.35-.6-1.7-2.29-.97-3.33-1.94.16-2.02-.24-2.92-2.26-3.33-.75-.15-5.43.18-5.1-.82,1.03-1.33,1.14-3.66,1.44-5.26.77-4.07,1.81-8.81.8-12.91,5.56-.37,11.05-3.26,16.46-4.54,1.85-.44,2.6-.32,2.94-2.34.23-1.41-.25-2.59-.21-3.97ZM50.02,27.3c1.31-5.12,2.09-10.36,3.31-15.5-.79,3.35,0-.32,0,0v-.96c1.3-.23,1.28,5.14,1.32,6.35.13,4.23-1.23,8.69-2,12.83-.27,1.47-.89,2.88-2.6,2.89-1.82.02-.35-4.33-.02-5.61ZM53.01,80.17c0,1.81-.54,3.55-.61,5.36-.02.7-.59,5.67-.99,5.64-.04,2.72-1.6,5.08-1.6,7.65,0,1.69-1.53,3.74-2.99,4.51-1.8.95-4.66.78-6.75,1.64-2.63,1.09-5.18,1.25-8.07.93-1.59-.18-3.16-.58-4.57-1.34-.85-.13-1.36.52-2.24.32.76-2.75,4.58-4.14,5.44-7.01-1.37.12-2.37.87-3.2,1.91-.57-.46-.24-1.67-1.28-1.59-.82.23-1.49.73-2.05,1.35-1.07,1.2-1.8,2.78-3.38,3.43.57-2.7,2.82-3.03,3.88-5.28.36-.76.99-1.54-.2-2-1.17-.46-1.1.34-1.87.55-.6.16-.6-3.26-.92-3.4-1.62-.74-2.18-2.51-2.45-4.57-.62-4.78-1.68-9.49-2.2-14.28.62,4.94,1.94-.91-.07-.67.62-.07,5.13-1.91,4.73-2.49,1.11,1.6.72,4.62,1.51,6.44,1.11,2.57,1.98,5.24,3.21,7.76,1.27,2.61,1.66,3.05,4.32,3.36,4.12.49,8.57-5.54,11.35-7.98,1.83-1.6,4.19-2.53,5.96-4.11.86-.76,4.26-4.54,3.78-1.07,1.06-1.12,1.95.01,1.85,1.05-.12,1.34-.57,2.54-.57,3.89ZM54.89,57.97c-.32,2.65-1.28,4.92-4.43,4.82-2.11,1.39-4.36,2.59-6.34,4.16-1.99,1.58-3.58,3.5-5.77,4.86-1.77,1.1-3.08,3.14-5.15,3.73-.38-1.74-1.09-3.41-2.24-4.78-.19-1.7-1.07-3.06-1.84-4.55-1.08-2.11-1.76-5.82-3.76-7.24-2.77-1.96-4.19.93-5.7,2.67-.65.75-3.18,4.34-4.2,4.33-1.79,0,2.28-4.48,2.47-4.7,1.2-1.37.05-2-.97-.59-.66.9-1.44,1.76-1.98,2.74-2.08-2.7,1.73-4.46,1.71-7.03-.01-1.82-3.04.04-2.99-.31-.97-.88,3.96-5.02,1.62-5.31-1.6-.2-1.75,2.49-3.22,2.76-.35-2.73-1.68-5.22-1.92-7.97,8.74-.46,17.45-1.32,26.21-.96-9.46-.4,5.69-.7,0,0,3.43-.42,6.88-.57,10.33-.62,1.62-.03,7.78-.89,8.64.47,2.08,3.27-.06,9.99-.48,13.5ZM59.13,36.22c.62.42.6,1.39.6,2.03.55.32,1.19.43,1.8.6,1.16.33,1.91.97,1.72,2.27-2.1.66-4.48.31-6.54-.31-2.44-.73-4.63-.72-7.19-.68-5.15.08-10.32.4-15.46.08-4.89-.31-9.69.19-14.61.26-4.58.06-9.17,0-13.73.33.39-.54,2.27-1.34,2.97-1.71,1.98-1.06.07-2.31,1.19-3.39,3.13-.04,5.02-.03,6.06,0,9.17.06,18.33.42,27.49.52,2.75.03,5.51.04,8.25,0,1.7-.02,6.06-.95,7.47.01ZM71.85,6.99c-1.68.4-3.36.86-5.01,1.38-3.17.98-6.28,2.16-9.35,3.43.15-.68-.53-.61-.96-.64-.14-.96,1.74-1.21,2.37-1.94,1.04-1.19-.3-1.1,1.82-1.43.84-.13,1.67-.29,2.5-.48,3.43-.78,6.71-2.07,9.93-3.49.31.07.53-.04.64-.32.79.95.53,2.41.96,3.51-1.01.17-1.64-.32-2.9-.02ZM32.23,103.28c1.13,1.26,3.51-.11,3.51-1.91-1.73.08-2.7.92-3.51,1.91ZM73.15,3.83c-4.14,1.83.37.05,0,0h0ZM28.71,104.24c.57,1.08,2.17.25,2.24-.96-.54.53-2.34-.2-2.24.96Z"/>
    </g>
  </g>
</svg>