<?xml version="1.0" encoding="UTF-8"?>
<svg id="Layer_2" data-name="Layer 2" xmlns="http://www.w3.org/2000/svg" viewBox="0 0 45.78 114.46">
  <defs>
    <style>
      .cls-1 {
        fill-rule: evenodd;
      }
    </style>
  </defs>
  <g id="food_icons" data-name="food icons">
    <g id="sodabottle">
      <path class="cls-1" d="M22.77,8.41c.67.39.25-2.05,0,0h0ZM16.04,6.64c.1.07.2.13.33.17.08-.07.12-.15.17-.23.06-.27-.7-.16-.5.06ZM14.33,12.72c3.25.61,6.22.12,9.46.14,2.16.01,4.61.31,6.68-.48,2.6-.99.58-3.4.3-5.25.05-1.99-.65-4.45-1.92-6.06.61.77-4.09-.64,0,0C23.33.21,17.36-.57,11.84.57c-2.9.6-1.87,4.32-1.66,6.61.27,2.89,1.05,4.96,4.14,5.54ZM25.64,3.62c1.51,0,1.83-.5,2.14,1.18.22,1.21.42,2.42.58,3.63.29,2.18-1.04,1.46-2.72,1.56.72-1.98.3-4.35,0-6.38ZM23.09,3.31c.94-.22.96,2.7.96,3.19,0,.91,1.03,3.74-.36,3.65-.88-.05-.32-1.38-.92-1.74.14-1.18-1.01-5.1.32-5.1ZM20.53,3.31c-.09.96.36,2.52-.25,3.39.07-.23-.61-.02-.88.13.21.06.46.06.81-.01-.97.22-1.03.14-.81.01-1.17-.32-.39-2.52-1.43-3.2.26-.78,2-.18,2.56-.32ZM15.4,4.21c.01-1.37.45-.91,1.61-.91-.88.78.11,2.36-.47,3.28-.01.06-.06.13-.17.23-.18-.06-.28-.12-.33-.17-.69-.51-.65-1.68-.64-2.43ZM25.64,10c1-.07.64-1.75,0,0h0ZM15.09,16.06c-.32,0,3.35.83,0,0h0ZM27.88,13.51c2.29.66,0-.11,0,0h0ZM44.51,61.32c-.23-3.87-.19-8.26-3.51-10.78-3.69-2.8-1.91-6.71.45-9.82,2.3-3.02,1.54-7.93.81-11.6-.81-4.02-3.6-7.65-7.6-8.89-1.15-.35-2.82-2.12-3.91-1.94-.24-1.09-1.7.74-1.97.87-.5.24.16-3.25.2-3.49.15-.98-.04-1.85-1.11-2.16,0,.54-12.25.1-13.89.6-3.17.97-.71,4.36-2.54,6.29-2.03,2.13-4.06,2.81-6.41,4.37-3.93,2.59-4.01,6.42-3.7,11.09.23,3.37.88,5.76,2.62,8.59,1.46,2.37.81,4.74,1.56,7.26.57,1.9-2.51,4.76-3.86,6.12.11,1.65-1,3.55-1.09,5.29-.24,4.71-.02,9.3-.2,13.99-.12,3.02-.44,6.03-.37,9.05.06,2.56,1.34,4.88,1.34,7.49s-.4,5.57.26,8.11c.57,2.17,1.68,4.11,2.62,6.13,2.54,1.53,5.86,7.56,9.35,6.27,2.03-.75,3.45-.09,5.55.14,2.45.27,4.92.18,7.37.09,1.74-.06,3.48-.14,5.22-.13.93-.47,1.7-1.17,2.58-1.73,1.44-.92,2.86-2.44,4.45-3.05.61-1.2,1.59-1.83,2.41-2.86.96-1.22,1.6-2.07,2.31-3.49,1-2,.56-5.27.83-7.57.25-2.19.57-4.38.76-6.57.41-4.65.21-9.28.73-13.94-.62-4.57-1-9.1-1.27-13.71ZM6.78,63.24c.31-.62,6.28.33,7.11.32,4.19-.06,8.37-.41,12.55-.59,2.77-.12,7.39.92,9.55-.97.91-.79,2.2-.15,3.29-.36,1.11-.21,1.12-1.95.02-2.21-3.13-.74-7.24-.07-10.45-.03-4.25.05-8.51.12-12.76-.02-3.03-.1-7.11.53-9.94-.61,1.19-1.41,3.03-2.04,4.25-3.41,1.3-1.46.57-5.05.3-6.88-.5-3.46-2.88-5.92-4.43-8.91-1.11-2.14-2-8.57-.13-10.6,2.6-2.81,6.22-3.61,6.39-7.83,3.7.84.53-5.11,2.55-5.1,3.54.88,7.28.13,10.87.32.05,1.11-.5,3.39.64,4.14,1.02.45.96-.71,1.66-.84-.15.03,1.11,2.72,1.22,3.08,1.44.71,2.86,1.4,4.47,1.59,2.11,1.64,3.58,3.12,4.61,5.78,1.49,3.85,1.11,5.9-.91,9.22-1.8,2.95-2.42,5.1-2.42,8.67,0,3.09,2.62,4.27,4.8,5.98.86,2.88,1.21,5.82,1.27,8.81.09,4.26.54,8.46.6,12.74.03,2.19.52,4.47.31,6.64-.13,1.45-.42,2.86-.27,4.32-3.15-3.07-10.31-2.4-14.39-2.23-1.83.08-3.71-.17-4.74,1.49-.46.74-4.46.66-5.49.74,0-3-.38-3.55-2.61-5.05-1.3-.87-.7-1.65-2.17-1.99-.89-.2-1.1.04-1.81-.01-.6-.04.48-4.25.51-4.69.2-2.52-1.72-1.16-2.04-2.9-.75-4.01-3.82,1.25-4.26.8-.55-.55,1.69-4.01,1.95-4.74.65-1.87.98-2.87-.12-4.69ZM15.09,83.64c.05-.09.69-.59.96-.32.23.23-1.3.94-.96.32ZM13.77,83h-1.23c.17-.3.27-.62.32-.96.38.15.75.7.92.96h.04c.05.11.05.13.03.11.04.25-.36-.07-.07-.1,0,0,0,0,0,0ZM5.18,62.92c-.06.36-.32.18-.32,0,.06-.36.32-.18.32,0ZM5.18,76.31c-1-.51.66-1.01.64-1.59,1,.51-.66,1.01-.64,1.59ZM6.14,90.33c.16.17-.23.41-.32.32-.17-.17.23-.41.32-.32ZM6.14,92.25c-.57-.23-.05-.58,0-.96.57.23.04.58,0,.96ZM19.25,111.37c-.17-.17.23-.41.32-.32.16.16-.23.41-.32.32ZM41.4,90.56c-.9.79-.41,3.1-.41,4.24,0,3.23.79,6.87-1.37,9.41-2.18,2.55-4.83,4.65-7.6,6.53-.64.44-7.69,1.35-7.86.47-.27-1.34-.58-1.07-2.1-2-1.09-.66-3.31-1.86-3.12.56-.99-1.31-.76-2.97-1.92-4.3-.67-.77-1.42-1.46-2.23-2.08.46-.68.6-1.5.96-2.23-.76,0-3.52,1.5-4.47,2.57,0,.11,0,.21,0,.3-.14.03-.23.07-.29.12-.06.16-.06.3.04.4-.14-.18-.15-.31-.04-.4.02-.04.04-.09.07-.14-.48-.09.03-.65.18-.24.01-.02.02-.03.04-.05,0-.69-.04-1.64-.96-1.61,1.05-1.86,2.82-2.65,2.56-5.1-1.63.44-2.85,1.55-3.84,2.87-.82-.11-.18-1.51-1.28-1.27.06-1.44,2.75-3.98,2.2-5.29-.41-.97-2.31-1.21-1.2-2.59.37-.46,7.72.23,8.71.23,3.41,0,7,.32,10.37-.19,2.6-.39,6.36-2.2,8.75-1.85,1.22.17,3.1.48,4.25-.05.21-.1,1.07-1.1,1.3-1.1,1.12,0-.43,2.53-.7,2.77ZM11.04,104.02c.06.01.12.02.21.02,0-.11-.02-.19-.04-.25-.07.08-.13.16-.18.24ZM13.82,83s-.02,0-.04,0c.03.05.06.08.07.1,0-.03-.01-.06-.03-.11ZM22.77,21.16c.24.24.4.5.51.76.17.05.13-.11-.51-.76ZM23.28,21.92c-.26-.08-1.02-.69-.7-.76-.9,0-2.39.83-2.81,1.48-.57.9.21,1.32.11,2.02,1.99,1.24,4.13-.91,3.39-2.74ZM21.17,23.39c.28,0-.03-.5-.03-.19-.3-2.2,2.64.19.03.19ZM27.88,23.39c.12.01.23.04.33.07.18,0,.18-.01-.33-.07ZM27.54,23.42c.11-.02.22-.03.34-.03-.75-.02-.64,0-.34.03ZM27.79,27.17c1.84-.3,2.13-3.17.42-3.71-.16,0-.46-.02-.68-.04-2.08.34-2.87,4.26.25,3.75ZM27.24,24.66c1.12-.29.55,1.04.32,1.27-.93-.28-.36-.48-.32-1.27ZM18.91,28.79c.07.3.09.62.02.97.33-1.71.15-1.51-.02-.97ZM18.91,28.79c-.4-1.7-2.74-2.52-4.17-1.19-1.42,1.31.16,2.16.35,3.44,1.42.15,2.91-.09,3.84-1.28-.38.49-.2-.42-.02-.97ZM17.33,29.45c-.85-.01-2,.29-1.6-.96.92-.06,1.75-.04,1.6.96ZM25.32,36.78c1.35,1.28,4.51,1.3,4.79-.96.39-3.61-6.23-3.46-4.79.96ZM28.52,35.82c-.47.5-1.82.46-1.6-.64.48-.51,1.82-.47,1.6.64ZM18.33,44.64c.12.25.23.5.28.74-.14-.61-.23-.78-.28-.74ZM18.33,44.64c-1.1-2.19-4.6-4.39-4.6-.72,0,.85.14,2.06.72,2.74,2.12.71,2.8.29,4.15-1.28-.3.35-.39-.66-.28-.74ZM15.41,43.79c.81.04,1.24.46,1.28,1.28-1,.15-1.42-.28-1.28-1.28ZM26.94,50.05c.17.07.17-.17-.34-1.16.2.4.31.79.34,1.16ZM26.35,48.8c-3.08-1.16-5.77,3.67-3.4,4.2,2.11.47,4.16-.97,3.99-2.95-.3-.14-1.17-1.36-.59-1.25ZM24.04,51.44c-.19-1.26.72-1.41,1.6-1.59.35,1.42-.94,2.16-1.6,1.59ZM26.92,74.07c.84-.76-.26-1.12,0,0h0ZM17.65,79.17c2.12-1.01,1.19-4.35,1.09-6.13-.09-1.6,1.51-4.51,2.79-2.6,1.37,2.04,2.33,4.5,3.7,6.28,1.61,2.1,3.21-1.12,3.93-2.01.05,1.14,1.64,1.87,2.47.95.98-1.07.65-2.09,2.09-.72,2.23,2.12,5.39-1.68,3.88-2.7-1.5-1-1.41.75-2.69.56-.44-1.1-1.34-3.05-2.8-2.32-.74.37-1.12,1.11-1.67,1.68-.46-.34-.96-.4-1.47-.18-.92.43-1.32,1.45-2.04,2.09-.72-3.06-4.82-9.67-8.42-6.17-1.21,1.18-1.63,1.33-2.16,2.95-.33,1.02,0,2.35-.67,3.16-1.37,1.68-.22,4.85,1.98,5.16ZM26.28,108.18h-.96c.28,0-.2.28-.09.11-2.11,2.34,2.83,2.72,2.27,1.6-.4-.81-1.57-.44-1.22-1.71Z"/>
    </g>
  </g>
</svg>