<?xml version="1.0" encoding="UTF-8"?>
<svg id="Layer_2" data-name="Layer 2" xmlns="http://www.w3.org/2000/svg" viewBox="0 0 56.58 113.9">
  <defs>
    <style>
      .cls-1 {
        fill-rule: evenodd;
      }
    </style>
  </defs>
  <g id="food_icons" data-name="food icons">
    <g id="sodacan">
      <path class="cls-1" d="M27.83,8.66c2.61,1.79,5.47-.85,5.65-3.48-.2-1.84-.92-3.61-2.39-4.76.38.38-1.39-.27-.48-.35-.9.07-2.45-.38-3.19.32-.89.1-.53,1.33-1.28,1.59.87,2.57-1.14,4.72,1.7,6.67ZM28.66,5.06c.04-.73.5-1.32.34-2.12,2.58.71,2.47,4.75-.32,2.55-.06-.29-.05-.41-.02-.43ZM30.6.08c.17.11.33.23.48.35-.07-.07-.22-.18-.48-.35ZM28.66,5.06c0,.14,0,.28.02.43.4.32.07-.52-.02-.43ZM45.71,11.82c0,.07.06.19.24.37-.13-.14-.2-.26-.24-.37ZM44.67,12.19c.09-1.11-.52-2.06-.32-3.19.61.18,2.75.39,2.12,1.51-.28.5-.93.79-.76,1.3,0-.3,1.21.24.47.35,5.73-.42.49-10.34-4.71-6.36-2.05,1.57-1.78,4.96.05,6.71,1.23,1.17,1.99.26,3.15-.33ZM38.9,22.41s.38-.51.33-.34c.37-1.29.62-3.08-.65-4.03-.74-.55-1.59-1.02-2.52-1.12-1.61-.17-.62.35-1.63.68-3.12,1.04.87,8.2,4.47,4.81ZM37.31,20.48c-1.14.07-1.67-.46-1.6-1.59,1.16-.09,2.18.93,1.6,1.59ZM39.23,22.07c-.11.12-.22.24-.33.34,0,0,.09-.07.33-.34ZM55.9,81.01c-.06-1.81-.03-4.4-.69-6.01-.58-1.41.29-3.29-.32-4.78-.65-1.59.37-3.74-.32-5.42-.72-1.75.05-5.13-.12-7.07-.49-5.81-.42-11.65-.19-17.48-.86-1.72-1.22-2.72-3.14-3.73-1.04-.55-3.36-2.37-2.62-3.92,2.27,1.63,4.87-.87,2.38-2.82-1.56-1.22-3.91-1.17-5.78-1.5-6.98-1.21-13.47-1.74-20.58-1.74-2.75-.8-5.68.14-8.48.01-3.22-.15-6.22.29-9.47.76-2.5.36-3.85,5.47-.69,5.58,1.71.06,2.55-.89,4.14-.49,1.11.28,2.06-.67,2.99-1.08.6.28-.1,1.57.96,1.27,1.04-.18,1.86.31,2.88.32.39-.82-.95-.6-.94-1.05.02-.43,18.6.9,20.4,1,1.8.1,3.6.2,5.4.29,1.72.09,1.32.6,2.12,1.94,1.28,2.16,3.71,3.92,6.27,4.5-.57,1.06-.28,2.38-.64,3.5-1.56-1.09-9.18-1.82-9.59.96.14,4,7.98.13,9.59,0-.27,1.33.47,1.77,1.19,2.68.92,1.16.26,3.18.11,4.49-.18,1.63.51,2.11-1.1,2.88-.69.33-1.37.7-2.03,1.09-1.61.95-3.12,2.06-4.56,3.25-2.86,2.34-5.45,4.97-8.32,7.29-1.83,2.91-4.96,4.62-7.03,7.33-1.92-1.75-3.63-3.74-5.02-5.91-1.1-1.7-3.07-3.3-5.22-2.44-1.64.65-3.41,2.81-4.55,4.12-.23.26-1.87,1.87-2.29,1.9.05,0,1.21-6.92,1.14-7.96-.05-.73-.27-2.32-1.39-1.68-.71.4-.81,2.01-1.2,2.1.05-.48-.12-1.18.32-1.27-.44.1,0-2.01,0,0-.01-2.62.84-5.6-2.04-6.41-.56-.15-.61-2.09-.84-2.84-.91-.48-.62.79-1.1.89-.71.14.71-4.93.75-5.33.33-3-2.06-.09-2.53-1.61-.64-1.37,0-1.3,0-2.87,0-1.7.19-1.29,1.5-2.03,1.45-.82,2.9-1.96,3.49-3.57,2.08-5.72-5.28-.75-6.83.58-2.29,1.96-.43,10.05-.4,13.01.02,1.75-2.43,5.26-1.13,6.6,1.22,1.27.55,2.59.79,4.19.75,5,.69,10.15.92,15.21.26,5.77.57,11.55,1.1,17.31.11,1.22.42,2.17-.12,3.28-.52,1.07-.42,1.81.4,2.65,1.35,1.38,3.17,2.33,4.41,3.8,1.33,1.57,3.17,2.28,3.86,4.33,2.18.93,3.58,2.28,5.87,2.84,4.99,1.21,9.96,1.94,15.09,1.94,2.69,0,5.29.17,7.89-.6,1.45-.42,3.93-.18,4.73-1.45.31-.49,1.24-.78,1.71-1.16,1-.83.83-1.22,1.38-2.35,1.03-2.09,1.67-3.05,3.7-4.34,1.88-1.2,1.86-1.71,2.13-3.9.15-1.32.32-2.63.48-3.95.33-2.68.63-5.37.81-8.06,2.08-1.55.43-4.75.36-7.05ZM1.51,41.52c-.16-.16.23-.41.32-.32.17.16-.23.41-.32.32ZM8.22,94.76c-.73-.65-.11-2.65-.32-3.83.76,1.17.5,2.33.32,3.83ZM51.38,60.96c.72.24.12,1.79.32,2.55-.69-.61-.7-1.66-.32-2.55ZM43.07,65.11c-.29.2-.57.38-.64,0,.08-.4.64-.32.64,0ZM29.64,77.86c.17-.49.33-.02.32.32-.57.09-.66-.3-.32-.32ZM13.34,102.41c.06-.36.32-.18.32,0-.06.36-.32.18-.32,0ZM15.25,104.64c.64.22.86.85.96,1.59-.97.12-.66-1.04-.96-1.59ZM53.62,83.28c-.88,2.15-.75,6.21-.64,8.6-1.05.79-1.01,2.29-1.92,3.19-.02,1.21,1.07,1.76,1.28,2.87-.93-.73-2.77-1.25-2.88.4-.04.56-1.36,2.51-1.57,1.72.23.85,1.27.6,0,1.26-1.16.61-1.42.5-2.53-.03-1.42-.67-4.32-1.82-5.75-.66-1.83,1.48,5.61.76,3.14,2.61-.72.54-1.48,1.52-1.91,2.35-.37.96,1,.32.64,1.28-.99-.15-1.83.04-2.74.38-1.07.4-1.79-.06-2.88-.28-2.22-.44-4.49-.53-6.74-.52-2.46,0-11.49,1.75-11.62-2.13,1.72-.04,1.62-2.3,3.2-2.55.05-.66-.3-1.01-.96-.96.03-.85-.37-1.46-.64-2.23-.91-.14-1.19.36-1.88.76-.96.57-1.24-.62-1.87-1.17-1.91-1.65-.52,1.31-2.01,1.05.16-1.54-.44-2.74-.96-4.14.72-.64.3-2.23.27-3.04-.07-2.61-2.75,2.01-2.83,3.04-.96-1.2.36-3.08,0-4.46,1.11-1.04,2.41-1.85,3.6-2.78,1.53-1.19,4.94-5.77,6.77-3.31,1.21,1.62,3.38,3.02,5.16,3.99,1.13.61,1.75.99,2.81,1.66,1.12.7,1.9.93,3.18.54,5.2-1.58,7.16-8.16,11.32-11.21,2.25-1.65,3.89-3.94,5.98-5.76,1-.87.53-2.66,1.77-3.21.48-.32,2-.76,1.92.32.04-.57.33-.21,0,0,2.36-1.5,1.6,4.13,1.57,5.7-.04,1.73.36,5.19-.28,6.74ZM11.1,34.51c-.45,1.57-.9,3.14-1.6,4.46,1.53-.38,2.67-3.48,1.6-4.46ZM29.73,42.38c.32.06.59.03.55-.23.01.08-.2.15-.55.23ZM8.16,44.45c3.21,1.42,8.69-.12,11.85-1,1.02-.29,7.76-.65,9.72-1.07-.53-.1-1.17-.46-.75-.47-1.83-.24-3.7-.06-5.51.26-2.28.4-4.32.24-6.59.51-2.08.25-3.84.52-5.9.16-.77-.14-4.97.67-2.82,1.62ZM28.98,41.91c.44.06.87.13,1.3.25-.72-.19-1.11-.25-1.3-.25ZM21.01,96.35c.22,0-.15.57-.21.54-.58,1.8-.75,5.54,1.89,4,1.12-.66-.32-2.33-.72-3.27.81-1.04-.12-1.28-.96-1.28ZM20.8,96.89c.07-.21.14-.4.21-.54-.2.39-.24.53-.21.54ZM34.44,100.81c-.03.16-.1.31-.2.45.02.27.08.3.2-.45ZM34.29,100.26c-.99-2.16-6.65-1.08-8.16-.73-.76,3.18,6.76,3.63,8.11,1.73-.02-.28,0-.8.05-1ZM34.29,100.26c.07.16.13.34.15.55-.05-.66-.11-.72-.15-.55Z"/>
    </g>
  </g>
</svg>