<?xml version="1.0" encoding="UTF-8"?>
<svg id="Layer_2" data-name="Layer 2" xmlns="http://www.w3.org/2000/svg" viewBox="0 0 114.7 113.14">
  <defs>
    <style>
      .cls-1 {
        fill-rule: evenodd;
      }
    </style>
  </defs>
  <g id="food_icons" data-name="food icons">
    <g id="soup">
      <path class="cls-1" d="M48.28,1.04c.53,1.1-.27-.69,0,0h0ZM42.53,11.46c2.41,1.56,5.51,1.82,5.21,5.45-.21,2.47-2.22,4.11-2.73,6.45-.3,1.38-.09,3.02,1.78,2.34,1.31-.47,2-2.04,2.7-3.13,1.84-2.85,2.47-6.39.9-9.52-.59-1.18-1.47-2.18-2.43-3.09-1.88-.47-3.38-.9-2.83-3.14.42-1.69,3.9-4.23,3.15-5.78-1.17-2.96-5.15,1.22-5.92,2.55-1.22,2.13-2.16,6.36.17,7.87ZM59.86,19.96c.3.09.59.26.89.52-.78-.69-.96-.71-.89-.52ZM57.07,29.46c-.97,1.16-2.24,2.83-.61,4.08,3.36,2.59,5.03-4.77,4.63-6.69-.36-1.69-2.14-1.13-2.89-2.54,1-.81,2.61-2.2,2.56-3.61-.08.35-.79-.44-.89-.73-1.49-.47-2.92.99-4.02,2-1.15,1.06-1.14,3.81-.51,5.22,1.18,1.02,3.53.15,1.75,2.28ZM35.71,26.54c.09-.03-.15-.91-.23-.9-.01.2-.01.4.01.58.06.12.14.22.22.32ZM35.32,30.22c1.99.3,4.38.12,3.32,2.8-.49,1.25-2.99,5.44.04,5.55,2.04.07,3.32-2.71,3.9-4.24.88-2.35-.14-4.86-2-6.36-1.21-.98-3.84-.25-4.87-1.42-.03,0-.1-.07-.22-.32-.05-.43-.04-.58-.01-.58.09-1.73,1.15-4.11-.88-4.83-1.89-.67-2.55,3.22-2.62,4.3-.15,2.2.75,4.71,3.33,5.1ZM94.84,55.19c.05.12.09.24.12.36-.04-.16-.08-.28-.12-.36ZM75.14,47.87c-1.23-.25-2.33-.45-3.2-.61-.42,0,2.24.46,3.2.61ZM34.53,79.46c1.9-.3.25-.28,0,0h0ZM65.23,87.75c0-.74.51-1.12.32-1.91.08-.53-.77-.63-.89-1.03.13.43,10.99-3.69,12.06-4.16,4.29-1.93,7.57-4.87,10.92-8.1,2.29-2.21,3.83-4.89,5.02-7.81.76-1.86,1.98-3.81,1.98-5.83,0-.44-.34-3.22.32-3.35-.63.12-.39-.96-.12-.36-.81-2.14-4.12-4-5.93-4.95-2.65-1.39-5.26-2.74-8.13-3.45-5.85-1.45-11.51-2.69-17.38-3.7-7.19-1.24-14.64-.75-21.81.21-6.82.91-13.7,1.14-20.33,3.13-3.43,1.03-6.72,2.43-10.06,3.7-2.54.11-4.6.94-6.56,2.45C2.56,54.18-.06,56.22,0,59.02c.06,2.81.82,5.47,1.74,8.1,1.18,3.34,1.91,5.7,4.57,8.22,2.27,2.13,4.77,3.7,7.31,5.42,4.94,3.34,11.44,5.08,17.4,4.75-.22,4.97,2.63,7.2,7.03,9.07,3.98,1.69,7.96,1.2,12.21.39,3.83-.73,7.91-.92,11.09-2.97,1.86-1.2,2.61-2.51,3.88-4.26ZM25.27,81.05c-.17-.16.23-.41.32-.32.17.17-.23.41-.32.32ZM34.53,79.46c.27-.38.37-.81.32-1.27.75.04,1.5.11,2.24.21,1.49.2,2.97.43,4.47.42-1.12.63-2.33,1.48-3.63,1.07-1.14-.36-2.2-.62-3.41-.43ZM51.77,90.51c-2.76.17-5.59.17-8.28-.53-.1-.76.92-.31.96-.96-.38-.82-2.21-.17-2.88-.32,1.05-1.04,4.29-2.52,5.75-2.55-.27-.38-1.84-.83-.32-.96-.41-1.24-4.18.24-4.74.48-1.74.77-2.79-.13-4.53.16.73-.97,3.25-.08,4.37-.64.37-.19,2.51-2.66,1.07-2.55.09-.48,5.56-.92,6.07-.96.16-1.45-6.86-1.28-7.67-1.28.05-2.55,8.21-1.1,10.23-1.91,0,3.43,2.11,3.41,3.23.36.83-2.25-2.85-1.45-4.14-1.69-1.8-.33-3.82-.26-5.74-.26-1.54,0-1.73-.37-2.94-.64-1.02.4-6.56.85-6.71-.96-.67.86-5.84-.01-4.43,1.21,1.72,1.49-1.21,1.89-2.6,1.98.21-1.39.31-2.77.64-4.14-1.11.47-1.7,1.55-2.24,2.55-1.21-.17-2.05.5-3.2.64.36-1.15,1.19-2.06,1.6-3.19-.33-.95-2.77,2.06-2.88,2.23-.84-.85,1.09-1.9.96-2.87-1.44.3-2.93,3.13-4.67,1.84-.46-.34,1.35-1.29.03-1.93-.88-.43-2.15-.28-3.03.09.26-.92,1.22-1.65.21-2.57-.93-.85-2.59-.67-3.73-.62.91-.89,3.92-3.3.81-3.73-1.76-.24-3.31,1.15-4.96,1.5-.15-.99,1.11-.92.96-1.91-.45-.78-1.5-.92-2.28-1.07-1.05-.21-3.44-3.56-4.43-4.67.77-.75,1.84,1.14,2.56,1.27.52.78,3.18,1.5,3.02,1.26-.37-.55-.41-.9.53-.43.75.38,2.04.12,2.84.12,1.96.5,3.92,1.02,5.88,1.51,4.06,1.02,8.15,1.93,12.31,2.47,2.31.3,4.91-.35,7.05.71,1.5.75,3.45.65,5.14.69,1.73.04,3.55,0,5.21-.57,1.91-.65,4.12-.36,6.15-.36,4.24,0,8.34-.63,12.52-1.27,3.77-.58,7.71-.82,11.23-2.37,3.2-1.41,6.66-2.38,9.91-3.66,1.78-.7,1.9-1.74,3.23-2.89-.18-1.07-1.25-1.27-.96-2.55-1.52.07-1.87,2.76-3.08.41-1.03-1.99-1.37-2.48-3.51-3.47-1.7-.78-3.49-1.35-5.33-1.7-.64-.12-2.55-.02-3.04-.41-.15-.29-.38-.48-.7-.58-.29-1.83-9.46-1.63-10.97-1.6-4,.08-7.94-.31-11.92-.31s-7.97-.54-12.1-.07c-4.19.47-8.31,1.35-12.41,2.34-1.79.43-3.56.1-5.3.79-1.5.59-2.86,1.35-4.52,1.41-2.65,1.73-6.09,2.04-8.56,3.99-.64.51-1.26,1.05-1.99,1.43-.79.38-.49,1.53-1.28,1.91-1.36.08-2.02-1-.79-1.87,1.02-.72,2.29-1.49,3.36-2.1,1.28-.72,2.11-1.72,3.39-2.25,1.9-.79,3.79-1.62,5.54-2.7,1.09.08,3.05-.47,4.03-.87,3.03-1.23,6.56-1.64,9.79-2.39,3.27-.75,7.44-1.18,10.81-.91,3.62.29,7.15-.59,10.83-.86,7.04-.53,13.79,2.48,20.81,2.48,3.67.65,3.96.72,3.2.61,6.59,1.36,16.94,4.31,16.94,10.55-1.12,4.19-3.31,8.45-6.25,11.61-1.01,1.08-1,1.72-2.54,1.89-1.01.1-2.07.23-3.01.67-2.05.96-1.1,1.77.61,1.77-.79,2.07-5.82,2.16-7.72,2.31-1.04.08-2.56.14-3.15,1.19,0,1.26,1.26,1.37,2.24,1.28,0,.3-6.39,1.39-7.17,1.67-1.38.49-2.34,1.15-3.8,1.17-.83.01-1.79.11-2.45.67.49,1.31,3.41.33,4.32,1.59.79,1.09-1.46,3.6-2.43,4.65-1.63,1.76-6.51,1.47-8.94,1.63ZM84.4,55.87c-.44,1.16,1.77.43-.05,1.91-1.03.84-2.25,1.4-3.53,1.77-1.84.54-3.56,1.07-5.38,1.74-.88.83-2.35.41-3.2,1.27-7.92,1.02-15.74,2.55-23.75,2.19-3.46-.15-6.85-1.51-10.2-1.56-3.72-.06-7.41-.54-11.09-1.08-5.86-.86-11.79-2.21-17.29-4.02.83-1.9,5.59-3.86,7.46-4.52,1.55-.55,3.33-.82,4.93-1.15,1.08-.22,2.08-.66,3.16-.83,1.63-.26,3.46-1.08,5-1.7,1.44-.58,1.72-1.04,3.26-.76.78.13,1.56.17,2.35.13,3.7-.16,7.23-.73,10.97-.73,7.07,0,14.17.04,21.29.85,3.33.38,6.93.89,10.05,2.15,1.67.67,5.7,2.07,5.99,4.23-.08-.21-.34,1.04.02.11ZM47.5,49.99c-1.84,1.84.83,3.28,2.55,2.16-.42.21.2-.84.17-.28.16-1.59-1.14-3.45-2.73-1.87ZM67.14,53c1.71-2.16-2.41-3.88-1.92-.64.57.28.81.89,1.92.64ZM60.43,55.23c-2.07-.75-4.37-.72-6.53-.87-1.74-.12-3.18,2.9-.92,3.35,1.68.34,7.44.66,7.48-2.04-.1,1.02-1.93-1.13-.03-.44ZM53.72,55.87c.29-1.19,2.57-.42,3.83-.64-1.33.87-2.21.36-3.83.64ZM60.46,55.67c.01-.11,0-.25-.03-.44.03.16.03.3.03.44ZM32.55,59.21c-.19.06-.38.1-.57.17-.15,1.33,2.71-.7.57-.17ZM37.51,55.81c-2.04.12-6.75.44-7.88,2.62-.96,1.86.16,3.07,2.08,2.71,1.66-.3,3.32.77,5.1.57,2.79-.31,8.64,1.71,9.5-2.5.01-.1.03-.23.05-.35.44-4.65-6.09-3.22-8.86-3.05ZM43.12,60.05c-.74,1.06-11.44,2.03-11.14-.68.22-.07.41-.12.57-.17,2.22-.67,4.53-1.09,6.84-1.24,2.01-.14,5.69-.69,3.73,2.09ZM46.36,59.06c.14-1.05.08-.65,0-.19,0,.07,0,.12,0,.19ZM46.36,59.06c0,.06-.03.1-.04.16-.04.28-.05.4.04-.16ZM25.47,57.89c.1.25.15.53.12.85.12-1.24,0-1.19-.12-.85ZM25.47,57.89c-.67-1.68-3.89-1.97-4.81-.34-.26.47-.16,1.19.36,1.48.38.22.92.75,1.38.86,1.34.32,2.27-.24,3.18-1.15-.34.34-.24-.45-.12-.85ZM23.99,58.42c-.74.1-1.23-.05-1.6-.32-.06-.52,2.09-.64,1.6.32ZM68.1,56.83c.14-.03.25-.03.36-.03-.02-.03-.12-.02-.36.03ZM70.51,57.39c-1.13.57-1.08-.57-2.04-.6.07.1-1.27.66-.36.03-.99.69-4.12,2.35-3.27,3.37.74.88,2.77.48,3.27-.5.08,1.59,7.69-.53,5.81-1.97-.94-.72-2.32-.89-3.4-.34ZM51.48,59.37c-.92.6-.96,3.01.64,2.87,1.44-.24,1.22-3.23-.64-2.87ZM82.81,69.58c-.73-.09-1.2.08-1.28.64.48.5,1.43.36,1.28-.64ZM113.46,71.6c.12.07.24.13.35.21-.16-.11-.27-.17-.35-.21ZM113.93,72.08c.22.68-1.02-.71-.46-.48-4.6-2.8-12.68-.89-16.77,2.15-2.78,2.06-4.65,4.45-6.77,7.12-.81,1.02-.95,2.07-.67,3.41.24,1.18-1.31,1.78-2.29,2.64-4.32,3.82-9.18,6.36-14.38,8.8-5.72,2.69-11.25,6.21-16.63,9.56-.44.36-2.24,2.02-2.52,1.81-.47-.34-.75-.15-1.22.11-1.61.89.14,3.37,1.04,4.2,5.04,4.62,9.74-1.23,13.87-3.35,2.64-1.36,4.85-3.6,7.43-5.12,2.54-1.5,4.51-3.66,6.94-5.23,2.42-1.55,4.59-3.04,6.49-5.18.79-.89,1.65-1.86,2.3-2.84.71-1.07,2.09-1.16,2.74-2.26,2.22,2.42,5.05,1.77,7.91,1.57,2.09-.14,6.45-2.18,7.83-3.73,1.92-2.16,3.81-3.47,5.19-5.98,1.09-1.98.87-5.09-.04-7.21ZM87.92,89.66c-1.06,1.45-2.47,2.59-3.88,3.7-1.8,1.41-2.42,2.04-4.75,2.04-1.57.95-3,2.1-4.48,3.19-3.14,2.32-6.47,4.44-9.71,6.65-1.58,1.07-3.24,2.09-4.93,2.98-1,.53-1.21,1.48-1.99,2.08-.9.69-3.03-.62-3.51-1.38-.88-1.41,2.68-2.58,3.76-3.08,3.63-1.71,6.98-3.74,10.43-5.78,3.52-2.08,7.29-3.77,11.08-5.29,1.39-1.33,3.29-2.13,4.89-3.17.59-.39,2.9-2.36,3.42-2.25-.27-.06-.03-.38,0,0-.05-.64.32.46-.32.32ZM108.71,77.6c.28.82,1.18.78.95,1.85-.74,1.21-1.7.37-2.76.56-1.9.35,1.06,2.38-1.59,3-1.18.27-2.41-.15-3.64.27-.2.83.84.76.64,1.59-.17.02-2.48-2.05-2.44-1.08.03.7.97.81.52,1.72-.09-.03-2.36-3.23-1.92-.64-1.02.06-1.22-1.23-2.24-.64-.09-.43-.19-.85-.32-1.27-1.19.06-.17,1.99-1.34,2.39-1.09.37-1.19.74-2.5.8.03.38-.47.2,0,0-.47.2.1-.75,0,0,.14-1.06,1.75-1.46.6-2.83-.77-.91-.6-1.77-.6-2.91,1.52-2.56,3.52-4.8,6.2-6.04,2.78-1.29,10.82-4.03,12.94-.14,2.01,3.68-3.15,1.45-2.51,3.36ZM65.91,76.27c-.06,0-.28-.48-.14-.39-.92-.81-2.64.18-1.48,1.33.89.89,1.68-.02,1.62-.94ZM65.86,75.95c.03.1.04.21.05.31.02,0,.02-.07-.05-.31ZM57.55,76.91c.38-.03-.11.44-.23.45-.31.95.46,2.06,1.51,2.1.49-1.14.22-2.66-1.28-2.55ZM57.32,77.36c.05-.15.12-.31.23-.45-.27.35-.29.45-.23.45Z"/>
    </g>
  </g>
</svg>