<?xml version="1.0" encoding="UTF-8"?>
<svg id="Layer_2" data-name="Layer 2" xmlns="http://www.w3.org/2000/svg" viewBox="0 0 85.2 98.69">
  <defs>
    <style>
      .cls-1 {
        fill-rule: evenodd;
      }
    </style>
  </defs>
  <g id="food_icons" data-name="food icons">
    <g id="spice">
      <path class="cls-1" d="M19.03,47.98c.17-.12.33-.26.48-.39.8-.74-.36-.38-.48.39ZM84.19,26.73c0-2.53-.75-4.24-1.93-6.54-2.13-4.15-6.18-7.93-9.64-11.01-6.83-6.09-14.92-11.57-24.59-8.12-4.69,1.68-7.66,8.48-10.07,12.44-2.36,3.87-3.86,8.34-6.48,12.05-2.4,3.4-3.08,7.93-5.25,11.54-1.94,3.22-3.74,7.93-6.73,10.49-.12.11-.27.24-.48.39.14-.89-3.72-.27-4.24.12-1.87,1.38-2.44,3.86-3.48,5.81-2.51,4.71-2.17,10.53,1.19,14.79,3.22,4.09,6.18,7.74,11.7,8.44,4.35.55,11.96-2.43,13.82-6.7.44-1.01.79-2.11,1.49-2.98,1.02-1.28,1.29-.79.92-2.57-.33-1.54,5.97-4.68,7.38-5.7,5.17-3.75,10.82-6.54,16.53-9.42.7-.35,2.42-1.74,3.19-1.14.88.68,1.26.69,1.75-.46.9-2.11,3.64-3.39,5.47-4.69,1.24-.88,2.52-1.71,3.9-2.36,1.74-.81,2.17-2.6,3.02-4.29.71-1.4,1.29-3.31,2.23-4.55.48-.63,1.2-.95,1.29-1.83-1,.02-1.01-2.81-1.01-3.71ZM17.75,50.85c-.57.04-.67-.39-1.28-.32.06-.93,1.52-.77,1.28.32ZM31.82,65.1c-.62.51-.06,1.7-.01,2.33-1.14-.26-1.32.61-1.3,1.51.02,1.32-1.05.5-1.9,1.35-1,.99.02,1.72-1.5,2.02-.8.16-1.38.61-1.37,1.49-.77-.38-3.62-1.16-2.08-2.23,1.09-.76.07-2.05-.97-1.87-.6.1-2.25-.29-2.38.28-.24,1-1.17-.25-1.6-.32,1.01-.62,3.38-4.35.84-4.18-2.54.17-2.06,1.14-1.48,3.23-2.6-2.51-3.88-6.5-3.42-9.98.23-1.71.72-3.35,1.18-5,1.36.39,2.88-.05,4.15.64-1.27-.69.51-.31.13-.06.85-.35.93-1.37.83-2.17,1.93.9,3.42,2.5,5.35,3.41,1.95.93,3.15,3.16,4.77,4.67.88.83,1.81.94,1.32,2.05-.23.53-.04,1.02.28,1.45.73.96,2.03,1.73,2.02,3.07-.93-.28-1.69-2.66-2.87-1.69ZM37.25,65.83c-.47-.27-.69-.8-.64-1.59.95-.07,1.13,1.14.64,1.59ZM75.93,23.75c-1.2-.57-.81-2.55-2.24-2.87-.8,2.93.08,5.98.32,8.93-.9-1.71-1.12-3.67-1.92-5.42-1.71,1.15.22,7.49.32,9.24-.86.07-1.02-.54-1.6-.96-.84,1.31-.88,3-1.28,4.46-.79-.49-.28-2.08-1.6-1.91-1.54-.31-1.92,1.52-1.92,2.55,0,.94-.84,6.53-2.24,6.38-.09-1.33.21-2.73-.73-4.05-1.02-1.42-2.09.96-2.24,1.72-.47,2.56-3.15,6.89-5.57,7.9-2.29.96-4.47,2.14-6.62,3.39-1.85,1.07-3.5,1.28-5.46,2.02-1.87.7-3.78,1.04-4.63,3.04.12,1.15-1.54.59-1.6,1.59-2.7-1.22-4.36-3.71-6.39-5.74-2.92-1.16-5.27-3.28-7.99-4.78,3.01-2.68,4.64-7.33,6.75-10.67,2.44-3.86,3.17-7.94,5.32-11.88,2.55-4.68,4.69-9.57,7.73-13.95,1.25-1.8,2.13-4.05,3.66-5.53.7-.68,1.16-1.55,1.78-2.29.64.66,1.72.75,2.55.96-.94-.23,5.12-1.01,0,0,4.32-.85,8.63,1.09,10.55,5.1,1.74-1.72-.21-4.13-.32-6.06,4.1,1.77,7.07,4.16,10.24,7.21,1.59,1.53,3.28,3.01,4.46,4.9.91.89,2.09,1.46,2.24,2.87-2.85-.65-1.48,2.46-1.6,3.82ZM77.53,20.88c.64.42.71,1.41.96,2.23-.74-.32-1.03-1.1-.96-2.23ZM79.93,35.87c-.19.26-.36.53-.36.48,0-.08.17-.3.36-.48.13-.19.27-.35.36-.4-.05-.1.09-.22.11.07-.07-.02-.29.14-.48.33ZM80.29,35.47s.05.06.11.07c0-.1-.05-.11-.11-.07ZM54.03,9.02c.23.44.41.9.49,1.35-.15-.86-.34-1.24-.49-1.35ZM49.77,8.78c1.67-.04,3.16,1.09,4.74,1.58-.97-.3-.83-1.59-.49-1.35-1.17-2.23-4.04-4.13-6.23-2.27-2.16,1.84.43,2.07,1.98,2.03ZM45.56,10.36c.05-.37,1.68.35,0,0,1.53.32,2.59,1.39,3.84,2.23-.13-.94-3.69-3.3-3.84-2.23ZM51.36,21.42c-1.85,1.67-1.02,7.39,1.53,5.13,1.17-1.04.96-4.24-.53-5.12-.21.15-1.18.26-1,0ZM51.63,21.2c.27.02.51.1.73.23.12-.09,0-.18-.73-.23ZM51.36,21.42c.09-.08.17-.16.27-.22-.15.09-.24.16-.27.22ZM47.31,22.78c.04-.11.1-.21.17-.3-.15.2-.19.28-.17.3ZM35.84,39.97c2.12-1.99,3.58-4.41,5.51-6.55.89-1,1.53-.98,1.78-2.32.04-.59.33-1.02.84-1.29.48.27,2.13,1.61,2.49.32.22-.76.02-4.24.7-4.47-.19,1.98,1.72,3.16,2.21.8.39-1.88.23-3.99-1.89-3.99.31,0-.12.37-.17.3-.32.82.03,2.07-.79,2.56.23-1.06-.79-2.47-1.8-1.51-.66.62-1.04,1.46-1.47,2.25-1.06,1.97-3.17,2.01-3.74,3.98-.8,2.72-4.23,6.12-6.03,8.55-1.61,2.18-3.77,3.95-4.86,6.49,3.07.38,5.31-3.33,7.22-5.14ZM58.03,34.27c.24.79-.88.47-1.28.16-1.39.82-1.24,3.69-3.52,2.71-.48,1.02.02,2.74-.96,3.51.21-3.05-1.92-.65-2.64.55-.62,1.03-1.19.42-1.84,1.23-.42.52-.52,1.22-.96,1.73-1.42-.39-.94-.5-1.99.88-.85,1.11-1.22,1.73-2.37,2.74-1.3,1.15-4.47,3.89-3.31,5.94,1.86-.48,4.38-2.65,5.74-3.99,1.8-1.78,4.23-3.24,6.38-4.64,1.21-.79,2.61-.14,3.41-1.27.62-.87.63-1.5,1.53-2.18,1.55-1.18,3.32-2.24,4.03-4.17-1.85.08-1.85-1.9-2.24-3.19ZM58.03,34.27c-1.46-.29-1.58-.07-1.28.16.33-.19.73-.27,1.28-.16ZM60.91,35.55c-.02.34.15.81.32.32.01-.34-.15-.81-.32-.32ZM45.88,38.1c-.14.43-.32.82-.52,1.2.05.04.21-.24.52-1.2ZM45.36,39.29c-.09-.07.17-1.2.52-1.2-3.23,0-5.57,2.94-7.64,5.23-1.26,1.39-4.47,3.62-4.51,5.61,3.16-.06,4.47-1.54,6.51-3.9,1.69-1.95,3.9-3.46,5.12-5.75ZM10.76,73.29c-.29.11-1.03.2-.68-.13-.99.93-1.5,1.56-1.25,3.03.15.89,1.45,2.03,2.28,1.15.85-.9.93-3.45-.35-4.05ZM10.07,73.16c.26-.01.49.04.68.13.21-.08.18-.17-.68-.13ZM18.07,82.73c.09.11.17.24.24.38,0-.05-.07-.16-.24-.38ZM17.76,82.61c.1.04.2.06.31.12-.16-.08-.26-.11-.31-.12ZM17.76,82.61c-3.86-1.49-4.42,4.98-1.15,5.5,2.49.4,2.63-3.29,1.7-5.01,0,.17-.83-.52-.56-.49ZM.49,90.38c1.51.23,2.1-.45,2.88-.96.87-4.47-5.06-2.05-2.88.96ZM26.7,92.61c.11.08.2.17.3.27-.02-.05-.11-.14-.3-.27ZM26.38,92.61c-2.04.13-2.66,3.15-.56,3.88,2.4.83,2.37-2.3,1.18-3.61.1.22-.95-.2-.62-.27ZM26.38,92.61c.1,0,.21-.01.32,0-.16-.01-.26-.01-.32,0ZM14.55,94.2c-.52-.05-.73-.02-.77.03.25-.04.51-.06.77-.03ZM13.78,94.23c-2.41.37-4.1,3.42-1.07,4.35,2.41.74,3.21-2.69,1.96-4.24.27.44-1.01.04-.89-.12Z"/>
    </g>
  </g>
</svg>