<?xml version="1.0" encoding="UTF-8"?>
<svg id="Layer_2" data-name="Layer 2" xmlns="http://www.w3.org/2000/svg" viewBox="0 0 110.33 71.22">
  <defs>
    <style>
      .cls-1 {
        fill-rule: evenodd;
      }
    </style>
  </defs>
  <g id="food_icons" data-name="food icons">
    <g id="stake">
      <path class="cls-1" d="M84.75,61.23c-.1.15-.2.3-.32.42.57-.58.5-.57.32-.42ZM43.52,66.11c.75,0,.65-.84,0,0h0ZM68.45,58.46c-.25,1.03,1.76-.16,0,0h0ZM109.37,34.23c-2.63-4.04-6.23-6.38-10.6-8.1-2.46-.97-5-1.7-7.64-2-1.24-.14-3.7-.36-4.78-1.07-3.29.03-7.45-1.41-9.91-3.51-.21-3.83-1.59-7.92-3.25-11.21-1.17-2.33-4-4.21-6.27-5.61C60.47-1.24,53.93.15,46.83.61c-3.84.24-7.88,1.3-11.38,2.95-2.97,1.4-6.42,2.57-9.12,4.46-2.71,1.9-5.62,3.51-8.33,5.3-3.14,2.08-5.99,4.58-9.03,6.8C6,22.28.07,26.35.02,30.42c-.02,2.29-.17,4.81.66,7-.51,2.41-.73,4.87-.64,7.33.53,2.5.05,6.08,1.36,8.12,1.44,2.24,2.82,4.52,4.08,6.86,3.31,3.01,5.58,5.38,9.96,6.45,9.38,2.3,18.16,5.2,28.09,5.02,10.44-.18,20.62-1.15,30.91-2.96,4.87-.86,9.96-1.44,14.51-3.49,4.01-1.81,7.49-4.21,11-6.84,1.73-1.29,4.43-4.6,6.56-4.55.23,0,2.05,0,1.84-.77-.11-.42-1.08-.46-1.17-.6-.81-1.27,3.32-2.96,3.16-4.38v-8.92c0-1.56-1.05-2.96-.96-4.46ZM43.52,66.11c.75-.98,1.56-1.65,2.88-1.59.12,1.86-1.59,1.59-2.88,1.59ZM48.31,65.16c.05-.7.81-.68,1.59-.64-.04.7-.8.69-1.59.64ZM53.1,65.16c.36-.82,1.72-.63,2.88-.64.05,1.69-1.91.66-2.88.64ZM70.37,64.84c-.16-.17.23-.41.32-.32.16.17-.23.41-.32.32ZM68.19,63.78c-.69.77-1.34,1.11-2.3.42-.91.18-.92,1.28-1.28,1.91-1.53.19-2.96-.34-4.47-.32-.04-.53,2.56-2.46,3.27-3.44.92-1.27,2-3.76,3.77-3.9-.83,1.29-3.4,3.18-1.6,4.78,1.29-.08,2.62-3.71,2.87-4.78,1.06-.09,4.55-1.29,5.34-.89.39.2-2.15,2.34-2.22,2.4-1.27,1.14-2.25,2.54-3.38,3.8ZM61.1,59.42c-.04-2.62,1.62-1.08,2.88-1.28-1.03,1.22-2.77,1.7-3.52,3.19-.79-.37.36-1.61.64-1.91-.32.35-.01-.97,0,0ZM82.12,60.51c-.11.08-2.03,1.75-.88,1.78-1.3,1.12-3.28.94-4.8,1.59-.06-1.05,1.48-.76,1.28-1.91,1.07.53,2.08.64,2.99-.14-.51.35.63-1.68.21-.18.43-1.51.39-3.91,2.56-3.82-.4,1.04-.5,2.09-1.36,2.68ZM85.37,61.52c.25-.08-1.75.47-.94.13-.25.1.11-.24.32-.42,1.09-1.72,1.09-5.42,3.52-5-.4.94-1.27,3.13.32,3.51-.14.59-2.63,1.6-3.22,1.78ZM105.12,39.42c-.25.55-.43,1.13-.54,1.73-.42,2.03-.39,4.11-.64,6.16-.89-.04-3.56.37-4.16.96-.26.08-2.92-.26-1.67.85.69.62,1.87-.64,2.63-.54-1.01,2.2-2.65,5.02-2.88,1.28-1.35.06-3.32,4.02-3.83,5.1-.74-.3.45-2.23-.16-2.23-1.1,0-1.97,2.49-2.1,3.25-.17.96-.34,2.18-1.2,2.81.1-.08-.89.48-.89.49-.1-1.19.73-4.15,2.12-4.64-1.02-.45-.17-1.73-.32-2.55-1.98-.4-2.13,3.3-4.15,3.51v-1.59c-.49.12-4.66,3.62-4.68,3.36-.05-.58.9-1.37.84-2.08-.62-.01-2.86,1.06-3.71,1.87-.02.22-.12.4-.33.54-.01-.15.12-.33.33-.54.01-.17-.02-.37-.13-.59-1.89,1.59-3.24,3.71-5.04,5.39-.88.82-1.58.86-1.66,2.06-.03.3-.83,1.48-1.23.78-.1-.17,2.09-3.72,2.34-4.16,1.09-1.94,3.14-3.42,3.67-5.66-1.8-.1-2.49,1.81-4.29,1.96-2.1.18-4.12.76-6.25.59-.13-.85.52-1.36.32-2.23-1.82.86-2.27,1.93-4.34,1.93-1.91,0-.95,0-2.39.84-1.2.7-2.67,4.15-4.46,3.92.93-2.09,2.31-3.94,3.2-6.06-1.71.29-1.93,2.39-3.51,2.87.32-.48.43-1.01.32-1.59-2.81.44-2.79,4.06-5.12,4.78.24-.44,2.8-4.9,2.24-4.64-.51.23-3.4,3.13-3.39,3.22-.03-.32,1.76-4.02,1.58-3.96-.2.06-1.28,1.62-1.38,1.88-.76-.22-1.84.52-2.44.87-1.28.74-3.4,2.97-4.82,2.25.2.1,2.49-4.08,2.46-4.71-2.02.74-3.91,1.83-5.44,3.28-.72.69-2.18,2.95-3.44,1.91-2.02-1.68-2.42.37-.87.55,3.15.37-.23.4-.16.96-.86-.42-.31-1.02-1.19-1.37-.28-.23-.61-.32-.98-.29,0,0,3.93-3.77,4.08-4.08-1.34-.81-2.87-.03-3.95.82-1.1.88-1.74-.52-3.08-.19.32-.64.64-1.28.96-1.91-1.72-.05-2.63,1.62-4.47,1.27.21-1.24,1.24-1.78.96-3.19-1.95-.08-2.65,1.33-3.83,2.55-.69-1.06.99-2.17,1.24-3.14.49-1.93-1.3-.79-2.2-1.01-1.35.45-2.07,2.14-3.04,3.07-1.12,1.08-1.95-.04-2.71.43-.13-.86,1.64-1.74.09-2.42-.95-.41-2.05.33-2.97.5.77-.72.39-2.13-.76-1.79-.71.21-1.3.65-1.85,1.12-1.12.93-2.22,1.89-3.78,1.31.55-.61,6.06-4.8,1.92-4.46.07-.31,2.42-2.64.67-2.9-1.86-.28-3.59,1.02-4.83,2.26-.85-.52-.16-2.4-.32-3.19.69-.03,1.99.28,2.55-.32-.04-.58-2.18-.58-2.23,0-.7-1.02,1.31-1.52,1.75-2.16,1.47-2.15-1.93-.73-2.39-.71-.17-.74,1.14-3.73.78-3.98-.87-.6-.78-.37-.78-2.08,1.4.89,2.82,1.48,3.78,2.82.83,1.15,1.86,2.12,2.96,3,1.95,1.55,4.12,2.8,6.04,4.39-2.41-2-1.7-2.28-.83-1.36-1.42-1.83-4.14-4.15-5.56-4.37-1.23-1.81-2.45-3.52-3.86-5.18-1.04-1.23-1.38-3.3-2.8-4.01-1.47-.74-2.17-.45-1.65-2.29.44-1.56.97-1.79,2.18-2.84,1.52-1.33,3.02-2.7,4.6-3.96,3.33-2.65,7.04-4.76,10.29-7.42,3.06-2.51,7.17-4.59,10.67-6.26,3.52-1.67,7.41-3.92,11.26-4.47,7.71-1.11,16.01-2.93,22.98,1.7.82.54,1.62,1.11,2.43,1.67.98.67.79,1.15,1.52,1.97.97,1.08,1.01,2.95,1.48,4.41,1.25,3.9.91,6.57,4.45,9.12,2.99,2.16,6.84,2.37,10.34,3.24,2,.5,4.08,1.02,6.15,1.2.33.03,2,.14,2.39.37.94.56,2.76,1.1,4.07,1.53,2.01.66,3.69,1.99,5.28,3.36,1.05.91,1.98,2.18,1.87,3.59-.1,1.25.62.02-.06,1.48ZM80.71,61.83c.05-.04.12-.09.21-.18-.07.07-.14.12-.21.18ZM76.44,19.57c.81.69-.21-3.83,0,0h0ZM17.11,46.58c.24.31.43.59.59.86-.18-.34-.38-.65-.59-.86ZM51.47,18.22c-.1.13-.2.25-.28.39.67-.12.64-.76.28-.39ZM33.6,40.61c.27,1.14.88-.4,0,0h0ZM71.7,38.75c.14-1.41-.37-3.33-.37-4.83,0-2.13-.66-4.12-1.25-6.15-1.14-3.86-4.62-7.33-6.7-10.79-1.8-2.99-3.37-6.21-7.02-7.16-3.03-.79-7.97,2.02-9.53,4.52-3.75,6.03-9.41,11.61-16.42,13.83,2.87-4.09,15.17-11.94,8.63-17.53.28.24-.76.1-1.23,0-2.71.24-5.6,2.09-7.36,3.8-2.68,2.62-5.9,4.3-9.38,5.62-3.32,1.26-6.47,3.62-8.99,6.11-2.1,2.07-3.55,6.72-1.39,9.26,2.47,2.92,4.87,6,8.14,8.09,1.51.97,2.99.65,4.5,1.54,1.66.98,3.53,1.53,5.15,2.57,8.55.83,16.58.44,25.07-.34,4.03-.37,9.19-.68,12.29-3.6,1.04-.97,2.17-2.7,3.68-2.93,1.09-.17,2.04-.77,2.17-2ZM53,16.59c.95-1.3.25-.47,1.7-.53.06,1.11-2.61,2.39-3.52,2.55.11-.2.2-.31.28-.39.46-.59,1.08-1.02,1.53-1.63ZM23.06,42.2c-.09,1.26-1.41-.06,0,0-.03-.38.47-.2,0,0ZM22.35,39.63c.43-.14.11-.72-.25.03.42-.85.85-1.7,1.28-2.55.62.14.9.68,1.6.64.04.76-1.73,1.74-2.62,1.89ZM28.49,44.12c-.85.15-1.43-.21-2.24-.32.06-.11.13-.16.19-.2.42-.42,1.08-.53,1.41-1.08.53.39.74.92.64,1.59ZM27.21,40.93c.39-.54.93-1.63,1.6-.96-.22.63-.85.85-1.6.96ZM32.38,42.47c-.1-.77,1.45-.88,1.22-1.86.92-.41.91-1.61,1.6-2.23.82.03.46,1.24,1.28,1.27-.37.65-3.98,3.73-4.1,2.81ZM38.4,38.7c.12-.55,1.38-2.47,1.6-.96-.23-1.59.96.21,0,0,.88.19-.27.76,0,1.28-.69.12-.86-.53-1.6-.32ZM41.6,33.92c-.14.92-1.38.75-1.6,1.59-.72-.53.54-1.78,1.6-1.59ZM40.32,39.65c-.06.36-.32.18-.32,0,.06-.36.32-.18.32,0ZM39.04,43.48c.52-.64,1.07-1.27,2.23-1.28.15,1.32-1.49.85-2.23,1.28ZM41.92,41.57c.03.38-.46.2,0,0-.03-.39.46-.2,0,0ZM40.96,36.15c.14-.92.67-1.45,1.6-1.59-.59.47-.48,1.65-1.6,1.59ZM43.52,35.83c.03.39-.47.2,0,0-.31-1.32.96-.06,0,0ZM45.11,44.75c.65,0,.43-.52.15-.22.39-.62,1.03-.96,1.77-1.05,0,1.08-.76,1.29-1.92,1.28ZM48.63,43.16c.2-.61,1.7-2.03,2.24-1.91-.27-.06.22-.74,0,0,.22-.74,1.06-.85,1.28-1.59.66.42-2.89,3.44-3.52,3.51ZM51.89,43.83c1.2,0,.54-.92-.19-.24.91-1,2.42-1.35,3.01-2.65.59.05,1.22,2.11,1.28,2.55-1.39-.11-2.71.41-4.1.35ZM66.04,38.21c-1.21.93-1.81,2.51-3.35,3.04.9-1.21,1.93-2.33,2.88-3.51-.33-.32-2.84-.13-2.92.2-.1.39.61.58.36,1.07-.75,0-1.04.52-1.45,1.03-.81,1-2.52,1.34-3.34,2.47-1.37-.63,4.02-4.69,4.42-5.28,1.44-2.12-1.17-.08-1.42-.13-1.49-.27.24-2.23.2-2.88-1.65-.22-2.33.73-3.51,1.59-.63-.38,4.91-6.99,5.11-8.29-2.48-.68-3.63,2.52-5.43,3.51-.2,1.06-1.14,1.57-1.64,2.44-.81,1.4-1.38,0-2.83.11-.51.52,1.56,1.57,1.28,2.55-.5-.25-3.42.19-3.4.49-.05-.58.91-1.37.84-2.09-1.63-.29-2.92,1.49-4.47.64-.06-.68,2.21-2.77,2.55-3.51-1.29.05-3.36,1.35-4.1,2.36-.73.99-.93-1.39-1.01-1.72-.87-.73-1.19,1.1-2.24.32-.59-1.4,1.72-2.47,2.24-3.51-.5-.65-6.49,3.82-6.39,5.42-1.21-.55-2.1-1.16-3.52-.96.05,1.29,1.42,1.32,2.24,1.91-.09,1.07-.5,2.16-1.6,2.55v-1.59c-.98-.15-3.45.81-3.52,1.91.25.03,1.49-.36,1.47-.49.05.54-1.95,1.8-2.44,1.13.47.65-.09-.03,0,0-2.38-.71-4.45-2.15-6.7-3.23-3.08-1.49-2.5-.32-4.49,1.32-.69-.24-.24-1.68-.37-2.18-.14-.54-1.91-.64-1.87-.05-.12,0-1.09-3.77-.6-4.37.23-.28,2.32.73,2.51-.73,1.59-.29,1.79.27,2.79-1.45.11-.19,1.79-3.32.15-2.89-1.17.31-1.35,2.13-2.94,2.11.44-1.04,1.08-1.98,1.53-3.02.67-1.55,1.03-1.19,2.58-1.75,1.96-.7,3.76-1.76,5.46-2.96,2.93-2.08,5.19-5.07,8.97-5.66-.51,2.86-3.25,4.36-4.15,7.01-2.1,2.08-4.58,3.73-6.62,5.87-2.18,2.29-5.7,2.66-7.45,5.61-.66,2.46,4.93.56,5.85.29,5.74-1.66,12.32-4.04,16.85-8.17,2.41-2.2,5.19-4.22,6.81-7,.08-.15,2.28-2.5,2.33-1.87.11,1.32-4.23,4.95-4.99,6.23,1.63-.14,2.15-1.56,3.2-2.55,1.76,0,1.83,1.57,3.88.2.93-.62,5.08-5.21,6.03-3.07-1.23,1.36-2.87,2.26-4.11,3.61-1.64,1.77.66,1.43,1.64.83,1.51-.93,2.66-2.07,4.07-3.16.83.03.46,1.25,1.28,1.27-.79.81-1.66,1.56-2.24,2.55.59.55,2.29-.8,2.55-1.28,1.19.58,1.48,3.27,2.55,4.31,1.87,1.82,1.58,4.16,1.55,6.65-.02,2,.46,5.53-1.08,6.72ZM26.44,43.6c-.06.06-.14.11-.19.2.62.08.46-.36.19-.2ZM39.04,10.65c-1.6-.18-1.62-.1-1.23,0,.41-.04.82-.04,1.23,0ZM25.11,27.2c1.24.15,3.71-3.19,3.51-4.68-.06.33-.74.17-.13-.39-.34.32-6.6,4.69-3.38,5.08ZM28.49,22.12c.08.11.11.24.13.39.02-.09,0-.22-.13-.39ZM63.66,27.86c1.14-.14,1.75-.8,2.24-1.59-1,.28-1.77.79-2.24,1.59ZM76.87,42.56c2.51,1.84,6.85,1.27,9.63,1.24,2.16-.02,4.04-1.41,5.66-2.77,1.43-1.19,1.64-1.98,2.07-3.73.76-3.14-3.06-5.47-5.69-6.17-1.44-.38-3.92-1-5.07.22-.08.2-1.51,2.53-1.28,2.55-.12-2.44-4.28,1.12-4.66,1.49-1.09,1.07-1.66,4.82-1.41,6.48-.29-2,1.22.76.75.67ZM81.76,36.4c1.82-1.78,4.46-2.46,6.79-1.58,1.8.68,3.93,2.8,1.38,4.15-.53.28-2.64,1.19-2.93,1.32,0,0,0,0,0,0-.04.02-.04.02,0,0-.24.09-.12-.24-.01-.39,0-.04,0-.08,0-.12-.26-.22-3.15.74-3.17,1.15-.36-.3-.36-.62,0-.96-1.63,0-3.32-2.3-2.03-3.57ZM79.64,40.29c0-3.05,1.49,0,0,0h0ZM76.12,41.89c.41.47.63.65.75.67-.27-.2-.53-.42-.75-.67ZM79.64,40.29c.21,0,0-.42,0,0h0ZM86.98,40.29s0,0,0,0h0s0,0,0,0ZM86.97,39.91c0,.13.01.26.02.38,0,0,0,0,0,0,.15-.51.07-.51-.02-.38ZM33.29,36.78c-.2-.46-.39.03,0,0h0ZM39.68,38.06c.28.06.3-.12.32-.32-.27-.06-.3.13-.32.32ZM39.68,38.06c-.46.2.03.39,0,0h0ZM103.61,38.38c-.01.37-.09.69-.2.97.02.58.14.88.2-.97ZM86.9,46.96c-3.6,1.54-7.17,2.58-11.1,2.58-.54,0-2.85-.45-3.02.44.11.33.05.61-.18.84-2.04.01-2.45,1.24-.19,1.53,1.7.21,3.16.27,4.57-.67,1.22-.81,4.04-.5,5.54-.89,3.46-.91,5.95-2.07,9.05-3.72,2.75-1.46,5.25-3.05,7.82-4.79,1.4-.95,3.39-1.32,4.01-2.91-.01-.42.03-.98.2-.97-2.38-.1-4.96,2.65-7.1,4.13-2.78,1.94-6.5,3.11-9.61,4.44ZM31.37,38.7c.38.05.57-.07.64-.32-.38-.05-.57.07-.64.32ZM31.37,38.7c-.27-.06-.3.12-.32.32.28.06.3-.12.32-.32ZM18.26,48.26c.06-.27-.12-.3-.32-.32-.06.27.12.3.32.32ZM18.58,48.58c.06-.27-.12-.3-.32-.32-.06.27.12.3.32.32ZM18.9,48.9c.06-.27-.12-.3-.32-.32-.06.27.12.3.32.32ZM25.62,52.09c-2.15-1.15-4.45-2.16-6.71-3.19,1.46,1.83,3.49,3.1,6.71,3.19ZM60.68,52.53c-2.85-.69-5.94-.24-8.83-.15-3.08.09-6.18.02-9.26.02-2.32,0-4.78-.07-7.06.38-2.67.52,1.82,1.23,1.91,1.26,4.58,1.67,10.48,1.51,15.38,1.58,1.62.02,4.76.48,4.79-1.32.02-.83,3.44.34,3.77-1.36-.3.94-2.33-.71-.71-.41ZM60.68,52.53c.25.06.5.11.74.19-.31-.1-.54-.16-.74-.19Z"/>
    </g>
  </g>
</svg>