<?xml version="1.0" encoding="UTF-8"?>
<svg id="Layer_2" data-name="Layer 2" xmlns="http://www.w3.org/2000/svg" viewBox="0 0 81.26 113.84">
  <defs>
    <style>
      .cls-1 {
        fill-rule: evenodd;
      }
    </style>
  </defs>
  <g id="food_icons" data-name="food icons">
    <g id="strawberry">
      <path class="cls-1" d="M43.11,0c-.25.07-.63,0-.64.32.24-.07.63,0,.64-.32ZM25.56,97.21c-.02.11-.03.22-.03.34.02.05.06.08.09.12.07.02,0-.41-.06-.46ZM63.25,90.85c.14-.05.26-.11.38-.18.83-.55-.44-1.4-.38.18ZM45.67,26.14s.06.03.14.03c.23-.55.5-3.13-.14-.03ZM9.38,61.69c.13.18.29.35.48.47.19-.58-.53-.74-.48-.47ZM12.74,81.61c.21,0,0-.21,0,0h0ZM11.65,77s.08.1.14.14c0-.15-.09-.17-.14-.14ZM41.19,17.21c-.04-.18-.07-.3-.1-.39.03.13.07.26.1.39ZM80.39,49.45c-.52-2.88-1.03-4.41-3.39-6.31-1.69-1.35-3.6-2.4-5.47-3.47-2.55-1.45-7.99-1.28-9.88-3.97,2.56-.31,5.11.09,7.65.31,1.34.12,4.19.68,3.42-1.64-1.12-3.36-5.08-5.98-8.18-7.24-4.22-1.71-8.18-2.27-12.72-2.27-.71,0-5.18,1.29-6.01,1.3-.05.13-.1.15-.14-.03.51-2.46.03-4.98-.23-7.45-.31-2.88-.09-4.63-1.54-7.19-1.36-2.4-2.62-3.27-5.4-3.24-1.44.01-4.95-.54-4.66,1.94-2.02-1.43-3.58.36-2.76,2.33.46,1.12,1.93,2.75,2.78,3.97,1.62,2.33,1.71,5.92,3.61,7.69,1.03.96-2.57,1.15-3.12,1.01-1.4-.38-2.53-1.37-3.75-2.1-3.36-2.02-6.64-.34-10.23-.16-3.87.2-8.21,1.88-11.68,3.61-2.85,1.42-9.75,4.61-8.09,8.83,1.33,1.29,4.12,0,5.75,0,2.24,0,4.35-.34,6.6-.31,1.39.02,3.57-.29,4.37,1.22.82,1.56-1.95,1.51-2.85,1.7-3.83.81-7.48,4.17-10.35,6.63.04,1.2-1.85,3.88-2.27,5.28-.69,2.28-1.51,4.69-1.61,7.07-.25,5.52-.69,10.37,1.31,15.62,1.69,4.41,4.49,7.83,6.59,11.92,1.09,2.13,2.26,4.11,3.53,6.13.61.97,2.03,2.41,2.3,3.5.35,1.38.71.78,1.77,1.69.78.68,1.35,2,1.95,2.84,1.24,1.77,2.56,3.63,3.59,5.53,1.9,3.48,6.89,8.32,10.77,9.25,1.92.46,3.46.06,5.4-.02,2.28-.1,4.45.58,6.78.35,2.9-.29,4.41-2.09,7.04-3.12,1.87-.74,1.51-2.1,3.36-3.07,1.6-.84,4.29-2.25,4.38-4.24.12-2.69,1.7-3.89,3.36-5.96,2.71-3.38,5.03-6.68,7.53-10.19,2.53-3.56,5.08-7.12,6.19-11.42.59-2.25,2.3-4.14,3.04-6.47.67-2.12,1.09-4.31,1.56-6.47,1.03-4.67.55-8.71-.29-13.39ZM34.16,11.79c-.38-.05-.27-.58-.32-.96.67.18.68.5.32.96ZM15.29,31.02c-.88.15-1.72.35-2.55-.1,3.04-1.86,6.64-2.66,10.14-3.13,1.89-.26,3.68-.68,5.43.27,1.33.72,2.42,1.82,3.88,2.3,1.06.35,2.81-.1,3.57-1.03.69-.84,2.82-.99,4.15-1.28,2.83-2.57,1.08-7.45,1.28-10.84-.17,2.79-.42-1.34-.1-.39-.49-1.87-1.55-3.51-2.13-5.35,3.79,0,3.52,5.93,3.52,8.35,0,1.42.38,2.95.68,4.36.38,1.77.29,2.61-.36,4.51,2.2.62,4.32-.34,6.42-.9,2.26-.61,4.6-.31,6.88.07,3.94.66,7.68,2.12,11,4.34-1.27,1.07-3.9-.02-5.36,0-2.69.04-5.35-.32-8.07-.32.23-.3.45-.62.64-.96-.98,0-3.71-.63-3.67.75.04,1.21-.6,2.02.63,2.67.96.51,2.07.72,3.14.88,1.36.21,1.38.73,2.58,1.16,1.65.6,3.94,1.62,4.76,3.07.38.67,1.83,2.18,1.83,2.95-1.01-.16-1.78-.91-2.82-1.01-1.28-.12-1.67-.82-2.99-1.08-1.21-.24-1.19-.94-2.81-1.21-1.17-.2-2.61-.32-3.52-1.17-.5.08-.07.95-.64.96-.96.18-1.61-.5-2.56-.32-1.29.27-1.91,1.57-1.59,2.76.24.89,1.13,1.71,1.12,2.64-.01,1.63-1.03.74-1.41-.03-.71-1.45-1.47-3.1-2.54-4.48-.65-.84-1.39-.77-1.13-1.83.12-.44.15-.89.09-1.35-.17-1.25-1.54-1.68-2.58-1-1,.66-.78,2.14-1.56,2.96-.87-.94-1.47-3.02-1.91-4.23-.63-1.74-4.59-2.25-5.97-1.72-2.12.81-4.07,1.95-5.99,3.14-.94.58-1.81,2.42-3.07,2.17.27-2.29-.64-5.42-3.01-5.76-1.29-.19-2.05-1.05-3.38-.83ZM16.9,46.86c2.13-2.07,2.79,2.56.32,2.87.53-.86-.22-1.49-.33-2.34-.09.25-.18.32.01-.53ZM11.78,77.14c-.19-.03-.19-.11-.14-.14-.19-.22-.26-.49-.19-.82.19.14.41.25.64.32-.14.19-.25.41-.32.63ZM12.74,81.61c0-1.5,1.51,0,0,0h0ZM13.7,83.2c-.16-.16.23-.41.32-.32.16.17-.23.41-.32.32ZM26.8,98.82c-.52-.26-.9-.66-1.19-1.15-.02,0-.05-.04-.09-.12-.02-.29,0-.36.03-.34.14-.67.75-1.09.61-1.89,1.37-.36.64,3.03.64,3.51ZM63.63,90.67c-.1.06-.22.13-.38.18-.04-1.18-.1-2.44.24-3.59.4-1.36,1.39-1.33,1.39.17,0,1.15-.17,2.62-1.25,3.24ZM75.08,64.91c-.57,1.92-1.33,3.77-2.24,5.54,0,2.17-.4,4.32-1.2,6.34-1.27,3.18-3.45,5.86-4.88,8.96-.75-.27-.39-1.5-1.28-1.59-.88-.13-1.56.11-2.27.61-1.62,1.14-1.91,2.16-1.81,4.27.12,2.63,1.49,3.67-.81,5.79-1.35,1.25-2.96,2.05-3.83,3.59-1.02,1.8-2.76,2.92-4.68,4.18-1.48.97-3.94,1.52-4.19,3.55-1.44.06-1.57.9-2.96.25-.95-.44-1.78-1.09-2.62-1.7-2-1.45-2.52-1.14-4.01.49-.65-.72-1.66-1.01-2.55-1.28.18-.99,1.15-1.53,1.28-2.55-1.45-.87-4.32,1.46-5.42,2.24-2.49,1.78-1.41.47-3.53-.01.38-1.25,3.13-1.52,3.84-3.19-.85-1.15-2.26.89-2.88,0-.34-.63-.92-1.4,0-1.91-.7-.65-.75-1.67-.64-2.55-1.06-1.89-1.92-3.63-3.83-1.28-.85-.77,1.68-4.34-.64-4.14-.01-3.46-1.03-1.35-3.2-1.27-.38-1.63.15-5.85-2.79-5.02-3.49.99-.23,4.15.88,1.83.29.49.58,3.72.81,3.7-.8.07-2.69-2.7-3.31-3.13-.97-.67-.72-2.65-.77-3.65-.07-1.79-1.43-1.04-1.71-2.63-.16-.91.06-2.08-.47-2.9,1.27-1.54,2.68-1.54,2.24-4.14.96-.69,1.33-2.53.64-3.51-1.58-.03-2.7.86-3.68,1.96-.25.28-1.72.97-1.75,1.22-.86-.77.48-2.26.32-3.19-1.58.22-1.79,3.36-3.52,3.51.04-1.11,2.57-3.3.64-3.19.39-1.05.71-2.05.64-3.19-1.24-.12-1.51,3.02-2.27,1.38-.01-.04-.82.25-.93.22.1-1.79.75-3.43,1.92-4.78,1.25.79,1.56,1.77,2.89.5,1.94-1.85,1.38-5.08.58-7.3-1.04-2.89-3.28-1.13-3.18,1.15.11,2.38-.01,1.52-1.82,2.54-.22.12-1.56.97-1.55,1.05-.02-.23.86-2.03,1-2.35.55-1.24.24-1.85.37-3.16.19-2.01,1.17-3.87,2.42-5.44.21-.27,1.6-1.36,1.21-1.83-.3-.36-.95,0-.65-.79.29-.28,3.38-3.53,2.03-3.87-.82-.21-4.16,3.56-4.15,3.72-.06-.67,2.6-3.46,3.08-3.36-.27-.06.9-.91,0,0,1.77-1.79,4.43-3.45,6.71-4.46-.37,1.67-1.37,2.99-1.28,4.78-.2.75.66,2.52.73,3.44.08,1.16-.28,3.35,1.66,2.8,1.18-.33,1.9-1.28,2.21-2.42.4-1.49-.2-3.04.82-4.21,1.06-1.23,2.23-2.37,3.86-2.79,1.31-1.38,2.89-2.47,4.48-3.51,1.32.23,2.51.23,3.83,0,.03,2.02-.23,9.8,3.96,6.18,1.03-.89,1.64-2.25,2.96-2.79,1.13-.46,1.98,1.4,1.07,1.39.37.99,1.66,1.06,1.78,2.22.12,1.19,1.09,2.33,1.88,3.17,1.17,1.25,1.21,1.64,1.89,3.17.47,1.06,1.46,1.95,2.64,1.42,2.94-1.29,4.77-7.09,2.36-9.66.72-.79,4.52.66,5.46.83,2.13.39,4.03,1.43,6.08,2.2,1.39.53,3.75,1.18,4.67-.36.81-1.36-.46-2.15-.54-3.62,3.54-.51,6.6,6.27,7.77,8.74,2.13,4.47,1.62,9.06.23,13.77ZM8.91,57.06c1.58-.12,1.22,4.33.96,5.1-.33-.22-.46-.38-.48-.47-.85-1.19-.47-3.39-.48-4.63ZM16.88,47.39c.1-.26.21-.72.01-.53-.04.19-.04.36-.01.53ZM24.57,32.2c-.78.19-2.8.79-1.92,1.59.44-.73,1.59-.75,1.92-1.59ZM32.58,46.26c-1.42.17-1.64,1.62-2.58,2.52-.79-2.41-2.17,2.2-2.18,2.89-.01,1.6.36,3.49,2.18,3.49,3.45,0,4.11-4.96,3.27-7.9.08.85-1.6-.74-.69-.99ZM30.64,51.96c-.11-1.34-.15-2.87.48-4.11.59-1.13,1.25-.59,1.19.4-.06,1.13-.21,3.69-1.67,3.7ZM33.27,47.25c-.02-.2-.13-.52-.39-1.02.15.3.28.65.39,1.02ZM30.64,51.96c1.16,0-.17-2.08,0,0h0ZM63.89,48.46c-3.39.35-3.29,9.35.96,8.61,3.29-.99,2-8.2-.96-8.61ZM63.89,51.64c.48.59.61,1.52.64,2.55-.99-.07-.54-1.59-.64-2.55ZM51.74,55.08c.1-.09.2-.17.32-.25-.41.25-.42.29-.32.25ZM53.66,62.8c-1.3-.07-1.06,1.39-1.92,1.91-.22-.62-.42-1.37-1.17-1.3-.29.02-1.36.31-1.39-.29.78-.5,1.88-3.58.39-2.75-.38.21-1.19,1.47-1.67.83.72-.86,1.41-1.77,2.24-2.55,1.81,3.02,4.7-3.82,1.92-3.82.19,0-.18.2-.32.25-1.06.91-.74,2.27-2.38,2.6-.82.17-1.18,1-2.09.97,1.49-5-3.87.81-.96,2.23-1.41,1.34-2.13,3.71.64,2.87-.38,1.41,1.69,1.05,2.29.94,2.17-.4.51,1.37.58,2.25.84.45.84-.61,1.42-.57.91.07-.8,3.65,1.67,3.01,1.65-.43,2.03-2.19,2.08-3.66.03-.68.04-3.3-1.33-2.92ZM53.02,67.9c-.85-.87-.03-2.78.32-3.5.8.81.19,2.93-.32,3.5ZM23.29,59.93c-1.15.2-.97-.58-2.19.2-.32.21-.84,1.37-1,1.39.05.77-.12,1.58.06,2.34.25,1.12-.3.22-.38,1.37-.15,2.07,2.76,1.46,3.37.17.77-1.63.72-3.29.29-4.98.4,1.71-.84-.37-.13-.49ZM40.55,60.57c.17.27.33.6.48.97.18.22.19.13-.48-.97ZM40.55,60.57c-3.06,0-4.77,9.8-.55,8.07,2.5-1.02,1.99-4.8,1.03-7.1-.21-.26-.65-.97-.48-.97ZM39.71,66.18c-.11-.26-.15-.54-.12-.83-.01.25-.01.1,0-.02-.29-.63-.22-1.11.21-1.44.38.34.01,2.38-.08,2.3ZM39.58,65.33s0,.01,0,.02c0-.19,0-.12,0-.02ZM69.99,66.43c-.02.27-.03.47-.03.51.09.01.17-.01.26-.04.24-.17-.1-.69-.23-.47ZM69.19,64.9c-.57,2.17-2.32,2.83-.51,5.24-.32-.43.75,0,0,0,2.27,0,3.51-.1,4.25-2.45.43-1.39.54-3.1-.1-4.45-1.25-2.7-3.15-.15-3.64,1.67ZM70.22,66.9c-.05.04-.13.06-.26.04-.03-.28-.01-.44.03-.51.09-1.04.42-3.2,1.21-2.24.33.4-.22,2.4-.98,2.71ZM62.92,70.26c-2.31.75-2.57,4.34-1.82,6.43.84,2.34,3.36.5,4.39-.82.08-1.68.3-4.26-1.09-5.55.21.34-1,.13-1.48-.06ZM62.93,75.23c0-.85-.12-1.82.32-2.23.46.08.74,2.62-.32,2.23ZM64.21,70.13c.07.05.12.13.19.19-.03-.05-.08-.11-.19-.19ZM64.21,70.13c-1.59-.16-1.67-.02-1.29.13.38-.12.8-.18,1.29-.13ZM39.81,82.45c2.19-1.46,1.63-5.89-.23-7.69-.41-.17-1.18-.57-.63-.48-5.24-.8-3.42,11.03.86,8.17ZM38.95,78.74c-.47-.27-.69-.8-.64-1.6.7.05.69.8.64,1.6ZM38.95,74.28c.22.12.43.29.63.48.34.14.44.11-.63-.48ZM16.46,75.23c-1.04,1.32-.99,4.52-1.16,6.38.25-2.69.59.69,0,0,3.32,3.86,5.12-1.61,4.21-4.53-.38-1.24-1.72-3.52-3.05-1.85ZM28.08,81.29c-.03.19-.04.37-.03.55.08-.09.25-.76.03-.55ZM29.53,78.73s.1,0,.15,0c-.24-.04-.25-.03-.15,0ZM29.68,78.74c.1.02.19.05.29.08.43.08.81.14-.29-.08ZM29.97,78.82c-.17-.03-.35-.07-.44-.09-3.35-.24-6.26,8.75-2.45,9.29,4.61.66,6.9-7.97,2.88-9.2ZM28.4,84.48c.08-.92-.33-1.74-.35-2.64-.04.05-.05-.06.03-.55.32-.32.64-.64.96-.96,1.1.73.85,3.97-.64,4.14ZM50.47,81.14c.19-.09.4-.15.63-.17-.83.07-.87.13-.63.17ZM51.1,80.97c.2.03.38.09.54.18.2-.03.15-.09-.54-.18ZM50.95,87.83c1.54-.86,1.78-1.92,1.8-3.77.01-.98-.16-2.4-1.11-2.91-.25.04-.89.03-1.17-.01-2.68,1.18-1.93,8.04.48,6.69ZM50.46,83.52c1.2-.26.59,1.96.32,2.23-.72-.14-.13-1.57-.32-2.23ZM39.59,89.9c-4.04.44-3.5,6.8-2.23,9.88,5.52.95,4.95-8.09,2.23-9.88ZM38.31,97.54c-.23-1.42-.09-3.75.64-5.1.91.75,1.31,5.23-.64,5.1ZM51.62,93.78c.24-.17.49-.3.76-.38-.85.25-.95.35-.76.38ZM52.38,93.4c.25,0,.46.06.66.13.04-.06-.11-.11-.66-.13ZM53.04,93.53c-.09.13-1.12.29-1.42.25-2.84,1.99-3.24,9.56.34,8.04,2.32-.99,3.77-7.32,1.08-8.29ZM51.42,98.5c-.1-.74.05-1.22.32-1.59.53-.05.65,2.09-.32,1.59Z"/>
    </g>
  </g>
</svg>