<?xml version="1.0" encoding="UTF-8"?>
<svg id="Layer_2" data-name="Layer 2" xmlns="http://www.w3.org/2000/svg" viewBox="0 0 123.94 54.5">
  <defs>
    <style>
      .cls-1 {
        fill-rule: evenodd;
      }
    </style>
  </defs>
  <g id="food_icons" data-name="food icons">
    <g id="sub">
      <path class="cls-1" d="M16.36,48.43c0,.21.27.06,0,0h0ZM111.95,17.51c1.36-.56-1.57-2.68,0,0h0ZM45.95,20.69c-.49,0-.97,0-1.46,0,.21,1.27,7.19.04,1.46,0ZM106.83,34.41c-2.22,1.61,1.3.29,0,0h0ZM78.7,18.79c-.12.07-.24.16-.35.24.15-.08.38-.21.42-.25-.02,0-.05,0-.07,0ZM65.59,34.73c.76-.2.04-.57,0,0h0ZM7.73,33.77c-.71,2.16,1.49.61,0,0h0ZM112.39,27.48c1.7.69,2.73-.22,4.28-.59.99-.23,1.36.36,2.28-.2.44-.27.87-.53,1.3-.81,1.08-.7,2.16-1.49,2.89-2.56,3.95-5.78-7.72-7.23-11.19-5.81-1.54-2.63-3.41-5.06-5.44-7.33-1.35-.73-2.64-1.57-3.84-2.55-1.26-.22-2.5-.53-3.72-.89-2.31-.69-4.54-1.6-6.79-2.44-2.48-.92-4.81-.99-7.44-.65-1.51.2-1.75.72-3.02-.2-.91-.66-1.92-1.19-2.95-1.63-4.49-1.92-9.43-2.61-14.05-.61-1.45.63-3,1.57-4.31,2.03-.99.34-1.72,1.91-2.78,1.85-5.32-2.34-9.89-3.38-15.51-1.44-1.18.41-4.44.75-4.84,2.18-.31,1.1-3.65-.7-4.6-.87-5.43-.95-9.66.09-14.33,2.93-3.77,2.3-6.9,4.76-9.77,8.05-.47.54-3.13,4.45-1.04,4.38,1.9-.06,1.73,1.08-.23,1.04-2.03-.03-7.15,0-7.28,2.93-.11,2.6,10.23,1.11,12.15,1.26.99.08,1.99.24,2.94.57,1.09-.26,2.21-.43,3.33-.54,2.41-.23,4.84-.2,7.25-.11,2.93.11,13.7,1.99,14.83-1.63.3-.96-.85-3.45,1.11-2.83,1.06,1.34-1.73,3.16.48,4.37,2.69,1.47,5.19.71,8.02.42,2.52-.26,5.06-.21,7.59-.07,2.6.15,5.2.4,7.8.57.85.05,2.52.56,3.11-.28.35-.5.47-1.27,1.13-1.51,1.19,1.52,1,2.65,3.37,2.4,2.49-.26,5-.19,7.5-.17,2.76.02,11.46,2.41,13.31.02,1.02-1.31,1.85-2.85,3.63-3.21.85.6,1.23,1.63,1.6,2.55.75.13,1.21.65,1.68,1.19,2.04,2.34,5.36-.91,7.27,1.68-2.44-.15-4.76.9-7.21.69-1.47-.12-3.88-.9-4.94.59-.43,5.05,5.21,1.96,7.67,3.51-2.5.14-4.09,2.22-6.62,2.2-1.3-.01-2.76.03-3.93.67-.6-.92-1.67-1.33-2.71-1.49-2.29-.35-4.44,1.09-5.55-1.18-.75-1.55-3.58.43-4.53-.83.21-.64,5.44-.72,6.15-.84,3.02-.5,4.4.32,4.4-3.31-2.28-1.89-5.67-.76-8.31-.64-2.93.13-5.87.15-8.81.1-3.38-.06-6.76-.22-10.13-.45-2.44-.17-6.31-1.47-7.83.56-1.82,2.44.96,4.58,3.33,4.58.74,0,5.1-.56,5.22.64-1.21-.11-1.24.96-2.47.24-.81-.47-2.12-.41-2.83.21-.86.75-1.75.23-2.72.67-.6.27-1.02.77-1.56,1.12-1.53,2.1,1.33,3.56-2.48,3.56-.63,0-3.93-.19-4.23-.69.41-.36,6.82-2.37,3.62-3.08-1.32-.29-3.31.19-4.18-.66-.86-.85-.31-.67-1.54-.69-.44,0-.59-.22-.45-.67,2.23.26,4.56-.26,4.55-2.93-.01-3.03-5.57-4.4-7.89-4.4h-25.6c-3.06,0-6.9.07-9.8,1.09-1.47.51-1.76,1.09-1.59,2.55.18,1.66-1.62.46-1.54,2.1-.13.85.52,1.36.32,2.23-.59.11-1.1.39-1.52.82-.68.56-1.66.93-1.94,1.87-.3,1.04.25,2.27,1.22,2.73.7.61,2.08-.34,2.56.32-.53,1.62-1.96,3.48.81,3.81,1.28.16,3.12-.2,3.98-1.26,1.06,2.57,3.54,4.07,4.95,6.4,1.35,2.22,4.56,2.8,7,2.89,5.94.22,11.83,1.25,17.78,1.23,2.83.91,6.12.75,9.03.6,1.94-.11,6.52.55,8.14-.36,1.72-.96,5.45-.24,7.44-.24,2.92,0,5.75.64,8.69.63,3.4,0,6.79-.43,10.19-.59,1.69-.08,2.19,1.12,3.82,1.23,1.36.02,2.73,0,4.09-.03,5.62-.15,11.33-.76,16.69-2.52,1.67-1.67,2.58-3.85,4.79-5.1.8-2.73,2.2-3.83,4.94-3.33.95.18,3.78.2,3.56-1.46-.25-1.87-2.75-1.15-3.37-2.23,1.95-.89,3.7-1.98,5.38-3.24,2.36-1.77-.14-2.2-1.86-2.22-2.23-.03-4.42.24-6.56.36-.65.04-3,1.31-3.35.64,2.14-3.41,8.13-.44,10.37-3.73,3.81-5.59-11.57-1.2-11.97-3.28,1.64.02,2.15-1.47,3.64-.87ZM32.03,23.27c-3.05.04-6.12-.06-9.17-.06-6.01,0-11.98.08-18,.36,1.41-.97,4.23-.18,5.11-1.91,3.02.39,6.07.43,9.1.26,5.71-.31,11.38-.9,17.11-.9-1.28,0,1.52-.34,0,0,1.42-.32.76,1.6,1.92,1.59-.81,1.33-4.76.65-6.07.66ZM63.7,23.78c-2.44-.61-5.19-.47-7.7-.43-3.04.04-6.08.24-9.11.4-4.12.22-1.95-.28-2.4-3.06.56-.01,1.04-.01,1.46,0,7.4-.04,14.79.57,22.19.65-.24,2.92-2.07,3.04-4.45,2.45ZM69.75,21.97c-.17-.17.23-.41.32-.32.16.16-.23.41-.32.32ZM90.71,23.97c-1.1,1.16-3.77.81-5.32.49-3.21-.67-6.91-.25-10.21-.25-.95-.15-2.06.78-2.88,0-.21-1.03.14-1.81,1.16-2.12,1.22-.38,1.85-.2,2.8-1.18.65-.67,1.31-1.35,2.08-1.87-.18.09-.23.1.35-.24.08-.03.09-.03.07,0,.38-.05,1.58.33,1.53-.31,1.2.07-.84,1.47.5,1.58,1.44.11.76,1.13,2.47.82,1.08-.2,2.82-.85,3.91-.43,1.21.47.29.81,1.64.55.84-.16.94.54,1.98-.09.88-.54,1.72-.83,2.57-.08,3.32,2.9-2,2.46-2.65,3.15ZM98.99,18.15c-1.34.15-1.92,1.3-2.8.35-1.06-1.14-2.76-.02-3.67-.82-.97-.86-.47-1.2-2.15-1.18-2.67.04-4.41,2.01-6.87,2.61-.13-1.41,1.05-3.69-.32-4.78-1.27.04-2.36.54-3.3,1.39-2.01,1.81-4.41,3.4-7.23,3.45-6.38.11-12.76-.79-19.16-.72-6.26.06-12.46.34-18.71.36-6.32.02-12.62,1.25-18.98,1.35-1.74.03-3.48-.07-5.18-.4-.1-1.06.14-2.05.82-2.88,1.43-1.75,2.64-3.11,4.4-4.41,3.09-2.28,7.64-5.42,11.62-5.56.88-.03,5.72,1.33,5.86.74.24-1.04,4.93,2.11,5.43,2.87,1.87.5,2.86,3.26,5.11,2.23-.08-2.15-3.65-3.97-5.11-5.1,1.48-1.22,4.34-1.38,6.13-1.93,1.84-.56,3.83-.49,5.71-.11,3.49.69.92.82,1.01,2.71.04.87,1.1.94,1.58.4.46-.5.33-1.43.27-2.02,2.75.81,5.2,2.29,7.4,4.09,1.32,1.08,1.52,1.81,2.31,3.24.45.82,1.76,2.6,2.72,1.46,1.17-1.38-.41-4.26-1.43-5.35-.95-1.02-4.07-2.78-4.29-4.09,2.04-.63,3.97-1.87,6.02-2.61,2.49-.9,1.12,2.27,3.35,1.59,2.18-.67.89-2.61,4.09-2.04,1.8.31,4.41,1.12,5.74,2.25.79.67.74,1.44,1.71,1.64,1.13.24,1.23.28,1.83,1.2.76,1.16,1.4,3.17,2.47,4.08,1.87,1.58,2.23-1.4,1.61-2.54-.53-.98-1.71-2.44-1.89-3.56,1.88,0,3.99-.36,5.72.51.92.46,2.63.76.69,1.18-1,.22-.75,2.24.45,2.18,1.3-.07,1.61-1.15,1.45-2.28,1.63.47,3.08,1.39,4.79,1.59-1.84,1.26,1.37,4.51,1.28.32.32.1.54.32.64.64-.15-.28.41-.02,0,0,3.76-.16,7.52,4.9,8.95,8.29-1.49.46-6.52,2.94-7.86,1.39-.98-1.14-.02-1.96-2.22-1.72ZM69.43,33.45c0,.31-.39.25-.64.32,0-.31.39-.25.64-.32ZM67.19,33.45c-.11.84-.9,1.09-1.6,1.28-.12-.42-.23-.85-.32-1.28h1.92ZM56.9,36.15c.91-.53,1.79,2.71,2.25.76.91-3.78,1.81-.53,4.51-1.72,1.18-.52,1.12,1.94,2.99.87,1.33-.76,2.02.35,3.12-.84,1.16-1.25,2.79-1.07,3.98.03,1.17,1.08,2.63-1.04,3.98-1.17-1.55.15,1.37-.31,0,0,1.41-.31.53,1.99,2.43,1.53,1.58-.38,2.43-1.37,3.36.36.95,1.78,2.55,1.33,4.24,1.1,1.02-.14,2.04-.22,3.08-.12.4.67.93,1.2,1.6,1.59-1.31,1.48-4.37-.05-6.07.32-.53.07-.33.97-.4,1.28-.12.54-1.44,1.25-1.84,1.59-1.34.16-4.06.45-5.26-.18-.68-.36-1.01-1.01-1.9-.8-.69.16-1.21.6-1.93.11-1.62-1.1-3.82-.11-5.62-.1-1.55-.6-3.02-1.61-4.4-.56-1.77,1.35-2.57-1.07-4.17-.76-1.8.36-1.93-.56-3.24-.93-1.78-.5-2.57-1.32-.72-2.39ZM18.92,30.9c-.75,1.02-1.29-1.12,0,0h0ZM13.8,30.58c-.47,2.06-1.49,2.03-2.88.96.48.37-1.15.19,0,0-.97.16-1.41-.32-2.24-.64,1.36-.93,3.58-.12,5.11-.32ZM6.45,32.81c-.09.74-.85.73-1.28.32.09-.74.86-.73,1.28-.32ZM5.49,42.06c.3-1.2,2.02-2.49,1.28-3.82-.65-.87-2.61-.15-3.51-.32,1.22-1.68,3.78-2.01,4.47-4.14,1.63.67,5.9,2.22,7.12.17.73-1.23.44-1.35,2.27-.82.9.26,1.86.68,2.82.59,1.14-.1,1.17-1.35,2.26-.56.89.64,1.05,1.06,2.28.99,1.11-.06,1.94-.63,2.75-1.34,1.08-.17,2.16-.11,3.23.06,1.9.31,3.81.91,5.72.26.88,1.78,4.17-.56,4.73.71.67,1.54,2,1.29,3.58.89,0,1.13.75,1.4,1.28.32.64.22.72.96,1.28,1.27,1.5-.78,3.22.19,4.8,0-.78,1.32-4.37,2.23-5.75,2.23-1.23,0-6.5,1.32-6.98.11-.87-2.16-4.32.86-4.55-.15-.5-2.31-2.32.27-3.49.36.28-1.88-.97-3.35-2.44-1.48-1.27,1.63-1.61,1.52-3.67,1.44-2.32-.1-2.49.48-3.86-1.81-.84-1.39-1.68-1.68-2.96-.69-.49.38-2.02,2.06-2.55,1.25-.88-1.37-1.27-1.48-2.89-.57-2.61,1.47-4.12,4.34-7.2,5.04ZM18.02,38.99c.2-.44.82-.52.9-1.07.6.2.81.63.64,1.27h-1.6c.45,0,.2-.47.06-.2ZM13.17,39.51c-.17-.16.23-.41.32-.32.17.17-.23.41-.32.32ZM16.36,48.43c.23.02.34-.09.32-.32.88-.18-.32,2.36-.32.32ZM56.96,49.07c-.17-.17.23-.41.32-.32.16.17-.23.41-.32.32ZM103.31,49.07c.09-.63.87-.64.96-1.28-2.5-2.04-8.27-.06-11.09.31-4.33.56-8.52.65-12.88.65h-6.66c-1.47,0-2.36-.96-3.57-.96-.77.12-3.67,1.26-4.21.8-1.35-1.15-1.62-.24-3.15-.48.47-1.76-1.12-1.22-1.92-1.28-.37-2.73-3.33,1.36-3.2-.96-.98-.08-1.38,1.33-2.55,1.59-.73.23-.98.99-1.28,1.59-.58-.2-1.18-.31-1.79-.34-2.01-.1-2.86-1.59-4.81-1.38-1.79.19-3.14-.93-4.87-.06-1.3.65-2.25-.12-3.86.5-1.05.3-1.46-.91-2.72-.56-1.77.5-1.5,1.05-3.06.02-1.01-.66-2.74.86-3.82.86.51-1.98-1.5-1.94-2.7-1.36-.43.21-3.01,1.29-2.41,1.04-.47.2.07-.45,0,0,.04-.22,1.16-2-.18-1.05-.46.32-1.56.84-1.8,0-.51-1.68-2.49,1.6-2.81-.55-.98.73-2.01,1.94-3.15,1.15-.98-.68-1.53-1.74-2.28-2.61-.82-.95-3.57-2.81-.78-3.15,1.12-.14,7.16-1.22,7.43-.03.25,1.15-.21,1.88,1.35,1.77.61-.05,1.27-.91,1.8-.61,2,1.13,2.65-.85,4.59-1.63,1.17-.23,1.8.53,2.87.64,1.21-.2,2.44-.28,3.67-.3,5.76-.13,11.55-.17,17.29.18,4.84.3,9.5,1.04,14.23.83,2.78-.12,5.55.29,8.32.33,1.41.02,2.64-.45,3.6.76.62.78,1.29.83,2.26.74,1.17-.1,2.26-.55,3.14-1.34.95-.85,1.99-.08,3.29-.36,2.46-.53,4.09-1.17,6.58-.24,2.3.85,5.54.22,8.03.35,2.85.14,5.7.4,8.54.65-.31,2.6-4.08,5.11-6.39,5.74ZM116.1,41.74c.01-.31.39-.25.65-.32-.01.31-.39.25-.65.32ZM112.14,36.96c2.62-.61,5.06-1.44,7.79-.96-.55.99-3.52,1.84-4.53,2.18-.79.26-2.9.88-2.35,1.98.33.65,1.15.69,1.77.63-1.51,1.28-7.03-.13-8.72-.41-3.3-.55-6.49-.55-9.48-.56-.74,0-2.75.44-2.15-1,.46-1.1,2.83-.58,3.73-.58,2.29,0,6.72-2.44,8.63-3.83,2.06.46-.58,2.43,1.66,2.78,1.22.19,2.46.06,3.66-.22ZM110.78,25.02c-1.06.4-1.76,1.16-2.99,1.1-.99-.05-1.29-1.14-2.24-1.27-1.18-.27-1.91.78-3.09-.03-.72-.49-1.06-1.32-1.7-1.88,1.27-.77,1.19-1.6,2.75-1.58,1.11.02,2.23.04,3.34-.09,1.28-.15,2.23-1,3.47-.75.24.05,1.89.85,1.96.26.05-.47-.53-.68-.39-1.18-.06.38.97-.28.4-.23-.11.02-.23.04-.34.06.15-.04.26-.06.34-.06,1.45-.32,2.98-.3,4.46-.25-.29,2.98,1.52,2.19,2.55.32,1.13.15.32,2.06,1.92,1.59-.56,1.27-1.46,2.34-2.55,3.19-1.09-.47-2.04-.24-3.01.34-.68.41-1.9,1.27-2.76.96-.94-.33-.86-.95-2.1-.48ZM77.85,6.46c-.72.3-.91,1.14-1.06,1.8.96.18.08.97,1.42.54.58-.19.89-.67,1.05-1.21-.17.41-.3-.36.08-.29-1.04-.19.12-1.51-1.49-.85ZM79.34,7.31c-.02.1-.05.19-.08.29.03-.07.06-.15.08-.29ZM47.27,6.78c.31.25-.58.56-.22-.1-.36.67-2.01,3.74.31,2.58.97-.49.92-1.98-.08-2.47ZM32.67,12.09c1.18-.05,2.1-1.5,1.28-2.55-1.19.05-1.99,1.61-1.28,2.55ZM100.12,10.18c-.96.06.31,1.33,0,0h0ZM27.07,10.94c-1.03-1-4.5-.67-3.14,1.26.52.73,1.46,1.18,2.35,1.18.36-.73.5-1.55.96-2.23-.37.55-.44-.4-.16-.2ZM27.07,10.94c.06.06.12.13.16.2-.07-.11-.12-.17-.16-.2ZM55.05,46.52c1.69.35.37-.97,0,0h0ZM54.29,46.67c.27-.07.5-.12.64-.14-.31.02-.52.07-.64.14ZM54.29,46.67c-1.21.3-3.39.95-3.41,1.13,1.5.62,3-.47,4.16-1.27-.76.53-1.06.32-.75.15Z"/>
    </g>
  </g>
</svg>