<?xml version="1.0" encoding="UTF-8"?>
<svg id="Layer_2" data-name="Layer 2" xmlns="http://www.w3.org/2000/svg" viewBox="0 0 124.57 103.85">
  <defs>
    <style>
      .cls-1 {
        fill-rule: evenodd;
      }
    </style>
  </defs>
  <g id="food_icons" data-name="food icons">
    <g id="sushi1">
      <path class="cls-1" d="M20.67,57.16c.21,0,0-.21,0,0h0ZM84.07,34.21s-.07,0-.11,0c.07.02.1.01.11,0ZM5.97,31.34c.42-.97-.76-.84,0,0h0ZM46.37,56.83c-.06.09-.11.19-.12.32.3,0,.23-.36.12-.32ZM13.87,33.53c.13-.1.27-.2.41-.28-.18.1-.31.19-.41.28ZM39.85,33.89c-2.33.13,3.28.87,0,0h0ZM41.13,21.15c.21-.22.41-.45.64-.65-.29.26-.49.48-.64.65ZM75.33,22.73c-1.53.91,2.25-.2,0,0h0ZM25.47,57.16c.5-.82.67-1.2.68-1.32-.31.63-.55,1.1-.68,1.32ZM59.67,16.35c-1.11.38,5.64.44,0,0h0ZM62.55,43.77c.21,0,0-.21,0,0h0ZM54.55,3.28c-.25-.07.22,1.27,0,0h0ZM23.87,17.95c-.18,0-.37,0-.55,0-1.58.07,2.37.61.55,0ZM3.43,46.81c2.63,1.41,5.73,1.76,8.61,2.38-.63,2.81.54,5.7.93,8.46.23,1.57-.04,2.7.63,4.11.41.88,1,.46,1.17,1.59.28,1.83,6.05,2.28,7.5,2.41,3.2.02,6.39-.15,9.59,0,3.2-.86,6.27-2.13,9.41-3.15,1.72-.56,4.29-.67,5.7-1.78.96-.76,1.61-1.82,2.67-.91,1.97,1.71,4-1.26,3.08-3.04-1.03-1.98-.09-6.71-.09-8.97.17-1.07-.99-2.6,0-3.51,1.02.35,2.4.6,2.56,1.91,1.47-.33,1.74-.48,3.13-.24,1.52.26,2.92.56,4.48.56,3.46,0,7.16.14,10.26-1.7,3.09-1.83,4.92-4.28,7.5-6.73,1.02-.97,3.4-1.87,3.4-3.21,0,.08-.21-2.06-.02-1.69,0,.19.01.38.02.57v.32c0-.08.12-.01.11,0,2.25.33.54-6.07.32-7.48-.5-3.31-2.12-6.58-2.77-9.85-.58-2.95-6.88-3.03-9.19-3.07-3.72-.06-7.47-.67-11.17,0-.33-2.95-1.24-5.78-1.95-8.65-.5-2.02-2.34-3.18-4.17-4.09-4.4-2.19-9.11-.4-13.74.17-2.34.29-4.45,1.61-6.85,2.06-2.11.39-4.17,1.08-6.04,2.15-2.28,1.3-2.88,2.31-2.53,4.99.26,1.96,1.1,3.75,1.71,5.61-3.11.15-7.34-1.07-10.27-.15-2.35.74-4.87,1.3-7.29,2.08-2.69.87-5.93,2.3-8.16,4.05C-.43,23.91.34,27.5.24,30.35c-.06,1.86-.47,3.73-.07,5.53.34,1.57.42,3.18.49,4.78.12,2.76.17,4.76,2.77,6.15ZM4.69,27.83c.88.32,1.57.73,2.56.64-.34,1-.87,1.91-1.28,2.87-.85-.94-1.08-2.31-1.28-3.51ZM14.92,38.67c.35-1.61,1.57-2.85,1.92-4.46-1.21,1.34-2.23,2.84-3.12,4.41-1.05,1.85-1.15,1.7-.08,2.92-2.08,2.76-1.98-.23-1.86-2.07.15-2.3,1.92-3.86,2.44-6.02-.26.71-.96.58-.35.08-2.15,1.66-2.88,5.74-5.66,6.42-.03-1.66,1.11-2.67,1.6-4.14.27-.57,2.03-4.09,1.97-4.06-.7.34-1.99,1.86-2.41,2.51-.32.5-2.08,1.39-2.12,1.55-1.84-1.98,1.73-4.01.74-6.1-.82-1.75,3.42-.28,4.69-.28,3.44,0,6.64-.24,9.95-1.24,3.39-1.02,5.78-3.41,8.91-4.82-.11,1.97.05,3.93.22,5.89.12,1.33.83,2.12,1.05,3.36-1.72-.11-3.42.07-5.11.32.67-1.63,1.71-3.09,2.24-4.78-1.07-.74-1.74,1.38-2.24,1.91-.79-.71.67-2.07.64-2.87-2.46.11-1.71,3.87-1.71,5.07,0,1.55-1.16,1.46-2.54,2.16-.89.45-1.79.86-2.78,1.05-.12-.69.54-.86.32-1.59.48-.02.8.19.96.64,1.18-.51,2.79-6.05,2.72-6.05-.58,0-.89,1.24-1.22,1.49-.88.67-1.42.68-2.03,1.75-.79,1.4-2.29,5.94-4.27,5.36.18-.91.69-1.68.96-2.55-.17-.34-2.62,4.44-3.84,4.14ZM17.39,40.25c1.17-1.84,3.56-2.23,5.19-3.49,5.54-2.82,11.29-2.55,17.26-2.87,2.91.77,6.69,1.24,8.63,3.83-.34,1.81-4.47,3.05-5.99,3.51-6.48,1.99-12.3,2.97-19.12,2.44-1.91-.15-7.81-.52-5.98-3.42ZM34.35,19.48c.49-.05,1.59-2.39,1.83-2.81,1.01-1.78,1.57-4.39,3.74-4.52,5.15-.31,9.97-2.02,14.96-3.13-.63.97-2.89,3.51-4.15,3.51-1.68,1.95-3.4,3.89-4.8,6.06-1.55.36-2.79,1.69-3.52,3.19-1.14.59-1.24,2.7-2.56,2.87.54-1.28,1.34-2.43,1.78-3.75-.44,1.01-1.24,1.15-.51.26-1.58,1.61-2.86,3.5-4.47,5.08-.85-.67,1.05-3.79-.74-3.16-.79.28-.83,1.29-1.82,1.25-.1-.64.9-3.69,1.01-3.74-.31.23-.54.52-.69.87-1.72-.5-1.67-1.89-1.11-3.17.6-1.34-.23-4.63-.49-6.07h4.8c-.02.79-3.74,7.32-3.27,7.27ZM48.48,17.63c-.02-.2-.28,1.83-1.6,1.91.35-.82.81-1.53,1.6-1.91-.79.38-.03-.38,0,0ZM36.02,30.87c1.18.16,2.67.2,3.51-.81.07-.23.27-1.04.64-.96-.27-.06.36-2.09,0,0,.44-2.56,3.19-5.23,4.8-7.01.71.04.19,1.52.32,1.91,0,2.05,0,2.24-1.28,3.66-.74.82-3.58,2.61-2.56,3.98.67-.12,3.09-2.9,3.08-3.04.11,1.28-2.44,2.19-1.48,3.68,1.55-.34,1.8-2.07,2.56-3.19,1.29.42.35,1.74-.32,2.23.1,1.25.98-.26,1.28.64.3,1.81-5.9.79-6.92.77-1.64-.04-3.28,0-4.91.19-.62-1.23.26-2.21,1.29-2.06ZM34.42,25.6c.08-.4.64-.32.64,0-.28.2-.57.39-.64,0ZM39.21,26.87c.06-.36.32-.18.32,0-.06.36-.32.18-.32,0ZM20.67,57.16c0-1.5,1.5,0,0,0h0ZM23.23,57.8c-.94-.27.19-1.03,0-1.59,1.42-.05.19,1.29,0,1.59ZM26.42,59.07c-.16-.17.24-.41.32-.32.17.16-.23.41-.32.32ZM32.82,59.39c-.23-.87.64-.64.64-1.27.78.2.17,1.61-.64,1.27ZM34.73,58.75c.08-.4.64-.32.64,0-.29.2-.57.38-.64,0ZM47.52,57.16h-1.28c.03-.22.08-.31.12-.32.29-.45.96-.47.84-1.27.68-.05.21,1.3.32,1.59ZM49.12,55.56c.03.39-.47.2,0,0-.47.2-.01-.44,0,0,0-.36.1-.68.32-.96.62.1.15.96-.32.96ZM47.84,55.24c-.84-1.06,1.05-2.36.96-3.51-1.69,1.03-2.09,3.18-3.52,4.46-.91-.71,1.9-4.1,1.92-5.1-.99,1.33-1.92,2.69-2.7,4.11-.15.27-1.17,3.24-1.67,2.51-.28-.4.64-.81-.11-1.2-.89.45-1.59,1.17-2.24,1.91-1.16-1,1.01-4.54,1.92-5.42.72-2.18,2.06-4.11,2.56-6.37-2.18.74-3.79,4.28-4.63,6.23-.79,1.86-1.7,3.67-2.41,5.56-.84.2-.76-.84-1.6-.64.81-1.94,1.88-3.76,2.75-5.67.18-.39,1.64-4.6,1.17-4.46-.89.26-3.88,6.18-3.93,5.74-.06-.52.67-.71.34-1.34-.88,1.47-1.52,3.08-2.28,4.61-.81,1.64-1.21.97-2.78,1.4-1.18.32-3.82,2.32-4.11.29-.28-2.01,1.4-1.34,2.24-2.41,1.48-1.88,2.61-4.01,3.73-6.12-.08-.58-1.97,2.28-2.24,2.55-.36.45-2.77,3.49-2.75,3.68-.07-.76,4.09-7.71,4.18-7.72-1.63.13-3.44,4.68-4.3,5.79-.56.73-1.08,1.47-1.28,2.39-.36-.1-.63,0-.8.32-.31.44-1.35,1.56-2.08,1.59.04-.81.47-1.24,1.28-1.27-.6.03.7-1.66.68-1.32,1.36-2.78,4.03-8.56,4.59-8.56-1.25,0-3.43,3.33-3.99,4.14-.8-1.03,1.27-2.13,1.28-3.19-1.41.33-2.89,2.3-3.51,3.51-.43.83-1.45,2.72-2.56,2.54.59-1.99,1.82-3.66,2.88-5.42-.15-.49-2.73,2.31-2.88,2.55-.89-.16.2-1.88-1.28-1.28.21-.73,1.72-1.87.29-2.21-.56-.13-1.1-.23-.93-.98-2.31.23-2.88,1.65-2.88-1.59,5.19,1.22,11.09,2.38,16.41,1.38,3.02-.57,5.97-.97,8.85-2.18,2.17-.91,4.71-2.6,7.03-3.03-.08,2.78.3,5.54.37,8.31.06,2.81-1.12,3.12-1.97,5.39ZM51.68,40.26c1.57.24,1.44.74,1.6,1.91-1.46.29-1.3-1.05-1.6-1.91ZM54.24,34.84c-.94-.27.19-1.03,0-1.59.94.27-.19,1.03,0,1.59ZM62.55,43.77c0-1.5,1.5,0,0,0h0ZM80.45,30.38c.8,1.89-1.83,5.04-2.88,6.69-1.1-1.13,1.97-4.93,1.92-6.38-2.86,1.38-2.58,9.47-6.39,9.24,1.28-2.1,1.66-6.16,3.33-7.52,2.07-1.67,2.46-4.73,3.06-7.15-1.27-.06-1.38,2-1.87,2.83-.76,1.29-1.17,2.37-2.02,3.66-1.09,1.64-4.98,6.89-2.82,8.17-.43.43-2.15,1.71-2.24.32-1.11.18-1.41,1.48-2.56,1.59-1.02-3.5,2.62-8.3,4.16-11.48-.8-.6-1.49,2.01-2.56,1.91.66-2.67,2.46-4.9,2.88-7.65-2.43.73-1.97,4.46-3.52,6.06.13,2.22-1.14,3.3-2.24,5.39-.68,1.31-2.24,5.69-3.47,3.18-.43-.88.78-2.33,1.33-3.37.17-.33,1.62-3.72,1.17-3.42-1.99,1.35-2.54,5.99-5.1,6.51.49-2.34,1.99-4.2,2.88-6.38-.13-.5-1.69,1.55-1.85,1.66-.9.64-.36,1-1.47,1.4-.45.16-.84.41-1.16.76-1.11-2.03.39-3.85.96-5.74-1.46.28-3.7,3.49-4.15,4.78-1.03-.45-.61-2.37-.64-3.19-.43-.96-.9.61-1.6.32.3-1.19,1.61-2.23.64-3.51-.91.17-2.06,2.57-2.7,2.31-.4-.16.15-1.14-.5-1.04-.57.49-.26,1.53-.96,1.91-.92-.27.17-1.09,0-1.59-2.26.72-.07,2.02-.64,3.19-1.4.34-.74-1.56-1.02-2.26-.17-.42,1.24-3.29.61-3.21-1.1.13-1.92.18-1.51-1.54,4.3,2.05,10.38,1.7,14.84.52,4.25-1.13,9.19-2.41,12.97-4.66,1.97-.18,3.21-1.91,5.12-2.23-.59,3.15-.67,6.74,0,9.88ZM59.67,16.35c6.36.5,12.95-.81,19.18.96-.38,2.87-6.38,3.82-8.47,4.78-4.02,1.84-9.64,3.51-14.12,3.51-2.79,0-11.8-.54-6.9-4.99,2.9-2.64,6.77-3.04,10.31-4.25ZM57.63,8.5c.81.57.69,2.46.94,3.53.37,1.59,1.03,1.92-.77,2.45-.82.24-1.64.49-2.45.75-1.57.5-3.13,1.06-4.63,1.76.27-.86,1.22-3.23,2.13-3.45,1.58-.38,1.65-1.44,2.66-2.61-.69.8.39-.99,0,0,.23-.6,1.64-2.77,2.12-2.43ZM32.19,5.46c2.05-.93,4.15-1.42,6.19-2.37,4.46-2.08,11.62-1.12,16.17.19.17.98,1.26,1.1,1.72,1.86.74,1.19-2.43,1.57-3.25,1.81-2.84.83-5.74,1.47-8.64,2.02-5.42,1.03-11.23,1.02-16.67.05.02-1.68,3.19-2.97,4.49-3.56ZM4.1,22.85c.9-1.39,3.77-2.19,5.23-2.82.7-.3,6.22-3.18,6.54-1.45,2.46-.41,4.95-.63,7.44-.63.14,0,.31,0,.55,0,1.3.44,6.75.28,6.46,2.35-.31,2.22-3.63,3.34-5.25,4.18-4.55,2.35-11.46,2.76-16.42,1.5-1.49-.38-6.24-.5-4.55-3.11ZM40.28,8.4c2.55.03,5.4-.66,7.88-1.3,1.49-.39,3.9-.24,5.08-1.47-.53.39-.6-1.07.18-.58-3.15-2.51-7.98-.28-11.12-.53-.56-.04-1.3.42-1.91.57-.8.19-.65,1.24.23.87,1.8-.76,2.98.33.98,1.45-.5.28-2.48.85-2.72-.02-.08-.28.7-1.06.49-1.18-.91-.56-1.89,2.16.91,2.19ZM51.36,4.88c-.46,1.02-2.14.84-3.2,1.27-.41-1.9,1.87-1.11,3.2-1.27ZM47.52,4.88c.08,2.21-2.52,1.73-4.16,2.23.19-1.93,1.73-2.53,4.16-2.23ZM53.6,5.2c-.1.17-.22.31-.35.45.1-.07.22-.21.35-.45ZM40.49,13.48c.46-.2-.03-.38,0,0h0ZM43.69,13.17c-.1.75-1.11.59-.96,1.59.41-.27,1.82-1.12.96-1.59ZM40.31,14.02c.09-.24.16-.43.18-.54-.04.2-.1.38-.18.54ZM40.31,14.02c-.47,1-1.38,1.02-.12-.25-1.88,1.8-3.43,3.89-4.18,6.41,1.14.63,3.61-4.34,4.3-6.15ZM44.97,14.44c.46-.2-.04-.38,0,0h0ZM44.97,14.44c-.05.16-.83.8-.85.78-1.56,1.5-2.87,3.23-3.63,5.28,1.64-.24,4.07-4.65,4.48-6.06ZM44.12,15.22c.28-.27.56-.53.85-.78-.66.57-.86.77-.85.78ZM42.73,14.76c-.46.2.03.38,0,0h0ZM38.54,22.38c.63-.55,2.17-3.24,2.37-4.66-.18.03-.43-.21-.1-.73-.83,1.31-2.15,2.51-3.18,3.68-.87.98-.56,3.01.91,1.71ZM40.91,17.72c.16-.03.27-.26-.1-.73.12.15.14.41.1.73ZM62.55,21.45c1.95-.29-.04-.79,0,0h0ZM69.26,18.9c-.02.67-.21,1.21-.5,1.65.15.51.42.46.5-1.65ZM56.82,21.4c-.36.22-.62.45-.66.69.08.02.27.03.53.04.51-.08.39-.57.13-.73ZM55.7,23.12c2.91,1.1,5-.13,7.95-.53,1.82-.25,4.13-.52,5.12-2.04-.18-.61-.19-2,.5-1.65-3.74-1.93-6.59.39-10.23.32-.64.55-7.5,2.32-3.33,3.9ZM64.93,19.53c.85-.04,1.96-.15,2.73.33-1.19,1.36-3.47,1.35-5.11,1.59-.12-2.15.57-1.85,2.38-1.93ZM56.82,21.4c1.31-.78,4.12-1.32,4.53-.98,1.79,1.5-2.97,1.76-4.66,1.71-.13.02-.31.01-.53-.04.15-.73.45-.82.66-.69ZM25.14,20.82c0,.18-.04.36-.11.53.07-.1.11-.28.11-.53ZM25.04,21.35c-.39.59-1.66-.91-.84-.86-3.83-.99-14.2-1.02-13.36,3.39.41,2.17,12.97.69,14.2-2.52ZM19.71,21.45c.24-.17.34-.21.37-.2,1.1-.47,2.69-.02,3.79-.12-.83,1.3-2.83,1.31-4.16,1.59v-1.27ZM16.52,21.45c.85.13,1.36-.52,2.24-.32.03,1.63-.93,2.58-2.56,2.55-.2-.87.46-1.38.32-2.23ZM12.04,22.09c2.22.36,3.2-1.51,3.2,1.59-1.96-.17-3.34,1.12-3.2-1.59ZM12.04,22.09c-.04.79,1.39.22,0,0h0ZM24.19,20.49c.39.1.71.21.95.33-.46-.23-.76-.32-.95-.33ZM16.52,21.45c.16,1.01,1.01.16,0,0h0ZM20.08,21.26c-.13.05-.25.11-.37.2,0,.31.45-.15.37-.2ZM41.77,20.5c.47-.2-.03-.38,0,0h0ZM124.38,42.99c-1.41-5.16-4.46-2.7-7.59-.39-3.96,2.93-9.83,4.46-14.37,6.4-10.44,4.47-20.76,9.12-31.12,13.76-4.69,2.1-9.72,3.98-14.19,6.5-.49.12-7.99,3.24-7.99,3.19,3.49-3.57,8.43-6.39,12.59-9.12,1.51-1,3.92-2.5,5-3.95,1.99-.65,3.75-1.8,5.32-3.16,4.06-3.5,8.43-6.62,12.68-9.89,3.96-3.05,7.48-6.75,11.47-9.7,3.81-2.81,8.05-5.12,11.75-8.02,2.71-2.12-1.45-5.09-2.86-6.69-1.67-1.89-3.31.12-4.42,1.46-1.14,1.38-3.1,2.11-3.9,3.81-1.45.23-3.18,2.34-4.28,3.19-1.71,1.34-3.3,2.8-4.99,4.14-6.65,5.28-13.76,10.83-19.82,17.21-3.91,3.8-7.95,7.53-12.32,10.8-3.26,2.44-6.46,6.34-10.38,7.69-1,1.72-3.63,3.18-5.26,4.23-1.44.93-2.33,2.53-4.01,3.1-3.07,3.66-8.48,5.31-12.79,7.01-2.66,1.5-23.95,8.44-22.06,11.79,1.24,2.34,9.17-.39,10.55-1.91,1.89-.02,3.93-1.09,5.48-2.02.36-.22,3.05-1.4,3.03-1.66.03.38-.85.82-1.16.81.54.01-1.9,2.14,0,0-2.62,2.95-5.98,5.15-8.85,7.83-.89.83-2.78,1.7-2.85,3.11-.06,1.32,1.61,1.75,2.42.85,1.82.03,3.96-2.41,5.52-3.36,1.81-1.1,3.01-3.15,4.57-4.62,2.83-2.66,7.27-4.11,9.41-7.33,2.9-3.49,7.9-4.39,11.88-6.1,4.09-1.76,8.2-3.47,12.38-5.05,9.38-3.54,18.43-7.78,27.83-11.24,3.88-1.43,8.02-4.35,12.13-4.85,3.36-.41,7.27-2.26,10.39-3.56,4.9-2.04,9.82-4.08,14.67-6.23,1.88-.83,4.56-1.54,5.2-3.7.58-1.9,1.52-2.17.92-4.36ZM62.62,58.5c1.68-1.31,3.32-2.99,4.88-4.48,4.01-3.81,8.12-7.57,11.99-11.53,4.4-2.7,7.96-6.72,12.2-9.59,2.31-1.56,4.43-3.38,6.54-5.2.68-.58,4.27-2.83,4.28-3.71.4.11.48.19.43.24.57.48.66,1.45,1.49,1.68-1.27,1.84-3.86,3.07-5.6,4.46-2.01,1.59-4.12,2.94-6.12,4.52-4.1,3.23-8.06,6.63-12.17,9.92-4.32,3.46-8.77,7.25-12.68,11.17-1.22,1.22-3.39,2.5-4.89,3.51-.47.32-3.98,3.16-4.4,2.97-.34-.15,3.46-3.48,4.06-3.95ZM53.6,67.36c-.11.42-.56.5-.64.96-.79-.13-.02-1.24.64-.96ZM48.48,77.24c-.17-.16.23-.41.32-.32.16.17-.23.41-.32.32ZM49.12,76.92c-.17-.17.23-.41.32-.32.16.17-.23.41-.32.32ZM49.76,76.6c.01-.31.39-.25.64-.32-.01.31-.39.25-.64.32ZM51.36,75.97c-.06.96-1.32-.31,0,0,.07-.96,1.33.31,0,0ZM52.32,75.65c0-.31.39-.25.64-.32,0,.31-.39.25-.64.32ZM53.28,75.33c0-.31.39-.25.64-.32,0,.31-.39.25-.64.32ZM122.33,44.41c.02,1.21-1.43,1.12-2.24,1.28-1.27,1.78-5.14,1.87-6.97,2.98-2.46,1.49-5.54,2.28-8.19,3.55-5.85,2.8-11.9,5.21-17.95,7.57-2.92,1.14-5.33,2.88-8.32,3.66-3.04.79-5.97,1.93-8.91,3.02-2.33.86-4.7,1.82-6.84,2.68-2.3.92-4.49,2.01-7.07,2.67,1.56-.93,3.26-1.63,4.98-2.2.95-.31,2.38-1.43,3.33-1.3-.37-.05,4.44-2.58,0,0,5.86-3.41,12.48-6.14,18.68-8.88,5.64-2.49,11.74-6.03,17.76-7.38.86-1.07,2.62-1.05,3.83-1.27,1.09-.87,2.53-1.2,3.83-1.59,2.71-1.24,5.34-2.63,8.02-3.88,1.14-.53,2.04-1.3,3.23-1.7.85-.29.99-1.51,1.84-1.73.78-.2,1.06,2.01.99,2.52ZM102.93,24.24c-.12-.1-.25-.19-.43-.24,0,.25.35.3.43.24ZM76.86,23.91c.13-.18.26-.36.4-.54-.17.23-.3.4-.4.54ZM77.33,23.38c.16.19-1.31,1.72-.47.52-1.77,2.44-3.1,4.93-3.12,8.07-1.11.71-3.65,4.84-2.56,6.06,1.33-1.42,2-3.34,2.54-5.17.47-1.6.64-.8,1.3-1.92.36-.62,3.01-6.97,2.74-7.46-.14-.03-.28-.07-.42-.1ZM41.39,29.24c.6-1.06,1.5-1.98,1.34-3.32-.56.73-2.42,4.12-3.2,4.15.31,0-.03.45,0,0-.14,2.27,1.52-.22,1.86-.83ZM14.92,32.61c0-.75-.87.12-.64.64.29-.14.58-.28.64-.64ZM16.84,34.2c.46-.2-.04-.38,0,0h0ZM38.89,38.67c-.1.34-.25.64-.43.91.05.12.18-.05.43-.91ZM38.8,38.44c.03.08.07.14.09.23-.03-.11-.06-.18-.09-.23ZM31.86,42.17c1.99-.7,5.27-.69,6.6-2.6-.09-.23.11-1.51.34-1.13-1.18-3.16-7.16-1.68-9.5-1.26-2.49.45-6.9,1.13-7.03,4.36,1.11,2.35,7.6.45,9.59.64ZM25.52,39.65c3.04-2.05,8.3-1.64,11.46-1.3-.18,2.98-10.92,2.56-12.79,2.55.68-.93,1.12-1.24,1.33-1.25ZM25.52,39.65c-.51.35-.97.75-1.33,1.25,1.3,0,1.78-1.27,1.33-1.25ZM34.42,51.74c.47-.2-.03-.38,0,0h0ZM36.98,51.42c-.31,0-.25.39-.32.64.31,0,.25-.39.32-.64ZM44.01,52.38c0-.06.02-.12.03-.18-.01-.03-.03,0-.03.18ZM44.33,51.42c-.18.23-.26.49-.29.77.02.04.03.18-.03.18.47,0,.94-.85.32-.96ZM48.8,51.74c.46-.2-.03-.38,0,0h0ZM34.42,51.74c.01.24-.05.59-.18,1,.11-.22.2-.55.18-1ZM34.24,52.73c-.29.55-.73.31.18-1-1.29,1.85-2.81,3.55-3.52,5.74,1.13-.13,2.8-2.98,3.34-4.74ZM43.05,53.97c.46,0,.85-.76.94-1.31-.02-.1-.03-.28.02-.28-.54,0-.99,1.06-.96,1.59ZM44.01,52.38c0,.08,0,.18-.02.28.02.11.05.13.02-.28ZM43.05,53.97c-.46.2.03.38,0,0h0Z"/>
    </g>
  </g>
</svg>