<?xml version="1.0" encoding="UTF-8"?>
<svg id="Layer_2" data-name="Layer 2" xmlns="http://www.w3.org/2000/svg" viewBox="0 0 115.24 87.32">
  <defs>
    <style>
      .cls-1 {
        fill-rule: evenodd;
      }
    </style>
  </defs>
  <g id="food_icons" data-name="food icons">
    <g id="sushi2">
      <path class="cls-1" d="M59.58,3.22c-.35-.03-.7-.05-1.05-.07-.85.02,3.24.67,1.05.07ZM31.46,15.34c.31,1.58.48,3.2.56,4.81.1,2.09.05,4.19-.12,6.28-.12,1.41-.73,3.07-.06,4.35,1.05,2,2.66,3.63,4.56,4.83,4.45,2.8,10.07,3.35,15.21,3.15,3.71-.15,7.08-2.16,10.87-1.42,1.1-.67,1.95-1.32,2.85-2.13.63-.57,1.75-.32,2.26-1.06.04-1.36.8-2.34,1.31-3.54.59-1.39.2-3.14.29-4.62.17-2.98.75-5.92.97-8.89.13-1.72-.47-4.26.32-5.78.8-1.55.96-2.09.96-3.94,0-2.7-2.01-3.22-2.88-5.42-1.5-.56-2.7-1.25-4.28-1.31-1.86-.07-3.72-.23-5.58-.39-.85-.07-8.83-.6-8.68.1-5.56.37-11.05,2.98-15.63,6-2.15,1.42-3.04,3.97-1.96,6.43-.03,1.05-1.14,1.39-.96,2.55ZM39.13,30.32c-.98-.31.37-.85.32-1.28.98.31-.37.85-.32,1.28ZM39.77,24.9c.47-.37.37-1.32,1.28-1.27-.38.47-.28,1.42-1.28,1.27ZM40.41,22.67c.16.16-.23.41-.32.32-.17-.17.23-.41.32-.32ZM46.8,33.19c.17-.49.33-.02.32.32-.57.09-.66-.3-.32-.32ZM48.4,32.55c-.12-.49.41-1.92-.64-1.59.05-.81.59-1.43.64-2.23,1.18.19,2-.26,2.56-1.27,2.46,1.08-.7,5.24-2.56,5.1ZM51.91,33.83c-.55-1.7.79-2.28.71-3.83-.04-.88-.49-1.64-.65-2.49-.03-.02-.05-.12-.07-.37.11-.41.17-.53.2-.51.62-1.21,2.04-1.77,2.68-3,.79.89-.53,1.87-.68,2.75-.27,1.58,1.46.84,2.28,1.39-.88,1.04-1.66,2.16-2.56,3.19-.25,1.13-.6,2.54-1.92,2.87ZM65.73,23.67c-.18.81-1.65,6.65-.71,6.33-.38.49-.7,1.03-.96,1.59-1.05-.53.62-1.71-.32-2.23-.92,1.07-2.7,2.95-4.16,3.19.1-1.42,1.6-1.89,1.92-3.19,3.43,2.48,1.66-7.58-.19-2.02-.47,1.41.58,1.13-.57,2.31-.68.69-1.12,1.57-1.8,2.26-.52.1-4.18,1.73-4.15,1.59-1.48-.5,2.69-5.21,3.2-5.74.37.34.48.77.32,1.27.64-.31,1.09-1.01.96.32.43-.21.86-.43,1.28-.64-.2-.6-.63-.81-1.28-.64,1.03-1.62,1.98-3.3,3.2-4.78-2-.06-2.42,1.63-3.52,2.87-.65-.39,1.59-3.14,1.89-3.53.97-1.27.67-1.25.67-2.52,0,.08-.18.04-.14.02-1.29.08-1.51,1.24-2.49,2.15-.26.24-2.11,2.35-2.18,1.73-.13-1.17,2.32-1.95,1.48-2.96-.92-1.1-3.73,1.02-4.34,1.94.09.01-1.46-1.66-1.58-1.83-.69-.99-1.69-.66-2.26.55-.77,0-.01-1.55-1.27-.84-.67.38-1.15,1.95-.01,2.11-1.03,1.3-2.22,2.48-3.52,3.51,1.29,1.01,1.15,1.2.94,2.64-.09.61-.04,1.54.75,1.59,1.97.13-1.54,1.45-1.69,1.51.05-1.51-1.64-.77-1.63.14.01,1.52-.23.29-1.56.5-.05-.35,1.29-1.96,1.6-1.91.16-.68-1.05-2.53.64-2.23-.74-2.53,2.06-4.46,1.92-7.01-1.5.06-1.95,1.33-2.88,2.23-.84-.94,2.27-3.55.16-3.54-3.02.01.45-2.3-1.44-2.83.04-.71,1.53-.19,1.92-.32-.72,1.05-.11,3.22.8,1.57.52-.94.73-1.86,2.08-1.57-.07.48-2.22,2.29-.32,2.55-1.09,1.12.31,2.08,1.3.82.45-.56,1.63-1.82-.03-1.78-.01-1.07.97-1.53,1.9-1.6,1.7-.15,1.87.78,3.21-.63,1.73-.16,3.46-.39,5.17-.69,3.21-.56,6.38-1.36,9.53-2.18.23,3.52-1.1,6.57-1.85,9.93ZM42,26.18c.11-.42.56-.5.64-.96.79.13.02,1.24-.64.96ZM39.52,7.19c5.87-2.07,12.55-4.34,19.01-4.03.16,0,.49.02,1.05.07,1.82.5,3.67.94,5.44,1.64,1.9.74,2.31,1.19,1.85,3.16-.35,1.52.73,1.27-1.08,1.95-.71.27-1.4.59-2.06.97-1.33.75-2.9.69-4.4,1.17-3.12,1-6.3,1.45-9.53,2.02-2.38.42-6.95.63-9.22-.24-1.71-.66-4.47-.79-5.61-2.49-1.7-2.55,2.98-3.66,4.54-4.21ZM61.51,20.12c-.08,0-.12,0-.14.02.05,0,.09-.02.14-.02ZM48.4,28.73c-.06.9,1.52.24,0,0h0ZM52.12,26.63c-.08.16-.15.32-.2.51,0,.13.04.25.07.37.09.05.2-.82.14-.88ZM50,.36c-.06-.27-4.1.27,0,0h0ZM51.24,9.51c.07.15.18.28.36.41.35-.11-.18-.4-.36-.41ZM47.12,9.6c.6-.04,0-.43,0,0h0ZM49.22,11.54c1.53,1.16,8.07-.13,9.6-1.51-.52.32.07-2.21.13-.71-.08-3.5-1.93-4.97-5.55-3.87-1.42.43-2.23-.05-3.63.31-1.58.41-2.67.11-4.24.51-2.65.67-2.03,2.55-.47,4.11,1.44,1.44,2.82.15,4.16,1.16ZM53.83,6.73c1.79-1.9,4.77,1.66,2.82,2.6-1.69.81-1.63.09-2.35-1.05-.19-.32-.89-1.12-.48-1.55-.57.6.47-.49,0,0ZM51.27,7.05c1.04.35,1.2,1.55,1.92,2.23-.46.39-.99.61-1.6.64-.46-.32-.48-.42-.36-.41-.34-.73.51-1.62.04-2.46ZM47.12,8.32c.84-.22.59.63,1.28.64-.3.44-.73.66-1.28.64v-1.28ZM45.84,8.32c.17.17-.23.41-.32.32-.16-.17.23-.41.32-.32ZM58.95,9.32c0,.19,0,.39,0,.6,0-.26,0-.44,0-.6ZM87.51,34.06c-.08.09-.2.06-.38-.17,0,0,0,0,0,0,.53.73.55.44.38.17ZM87.21,33.82s-.09,0-.13.01c.02.03.03.04.05.06.03-.03.06-.06.08-.07ZM96.03,45.62c.74-.1.42-.64,0,0h0ZM104.66,39.88c-.04.73.87-.2,0,0h0ZM95.71,32.23s0,0,0,0c0,.01,0,.03,0,.04,0-.02,0-.03,0-.05ZM113.44,15.75c.5.34.99.72,1.45,1.18-.82-.83-1.25-1.14-1.45-1.18ZM114.83,35.42c-.13-4.04-.31-8.07-.27-12.11-.18-1.12.97-1.81.32-2.87.1-1.18-.63-2.38,0-3.51-.5.9-2-1.3-1.45-1.18-4.64-3.16-11.19-1.77-16.42-2.67-3.3-.57-6.03.48-9.28.69-3.47.23-5.89,1.72-8.45,4.08-.92.84-2.57,2.51-3.68,2.87-.96.31-.93,4.3-1.27,5.34-.42,1.25.85,2.32.6,3.62.08,1.67.08,3.35.02,5.03-.12,3.54-.5,7.06-.66,10.6.6.03.8,1.3,1.72,1.32,1.01.02,1.52,1.04,2.42,1.46,3.04,1.41,5.65,3.18,9.05,3.52,6.16.62,16.04,2.55,21.52-.95,1.91-1.22,3.07-3.19,4.69-4.31,2.53-1.75,1.24-8.14,1.15-10.92ZM83.56,17.57c2.47-.83,4.86-1.62,7.32-2.27,4.08-1.07,12.69-1.84,16.02,1.63-.78-.82,1.43.06,0,0,3.58.14,3.25,3.27.32,4.28-2.5.86-5.65,1.86-8.22,2.11-5.85.58-11.41.62-17.18-.63-3.69-.8.29-3.71,1.74-5.13ZM98.59,27.13c-.29.2-.57.38-.64,0,.08-.4.63-.32.64,0ZM85.8,30.96c-.03.82-1.25.46-1.28,1.27-.84-.16.11-1.65-.64-1.91-.61.97-.82,3.51-2.56,2.55.38-.38.81-.7,1.28-.96-.06-.6.07-1.15.39-1.65.34-.52.79-.93,1.05-1.49,0-.18.1-.68.14-.6-.03-.69-.25-1.38-.94-1.68.97-.71,2.95.63,4.15.32-.41.53-4.18,4.36-1.6,4.15ZM81.96,25.86c.81.81,1.46,3.07-.32,3.19-.12-1.45-.54-2.23.32-3.19ZM84.2,46.26c.34.01.05-.26,0-.13.02-.52.96-.74.96.44-.34-.04-.66-.15-.96-.32ZM88.49,43.52c-1.04,1.52-.58,1.61-.07,2.76.56,1.26-1.32.56-1.66.62.62-.68-1.07-1.45-.64-2.55-.64-.05-1.56-.04-1.92.64-.77-.04-.09-1.06.32-.96-.27-.78-1.26-.74-1.72-1.35-.37-.49-1.48-.31-1.52-.45-.1-.4.61-.58.36-1.07-.26-.72-1.12-.79-1.6-1.28.5-.79.89-1.64,1.39-2.44.87-1.39.67-.17,1.88-.17,1.35,0,2.18-1.69,2.89-2.59.19-.24.71-.62.92-.8-.02-.02-.03-.04-.05-.06.14-.06.17-.05.13-.01.12.02.23.13.3.25.25-.29.19-1.71.85-1.51-.06-1.23-3.85-.29-1.55-2.5.83-.79.94-1.65,2.09-1.66,1.09,0,1.49.08,1.34,1.26-.14,1.08-.65,2.05-.68,3.15-.04,1.52-.51,1.31-1.51,2.43-1.03,1.15-2.82.6-2.57,3.07-.65.17-1.07-.04-1.28-.64-.76.46-2.31,1.75-1.85,2.8.19.45,1.11.43,1.09.21.3,3.48,3.11,0,4.27-1.42.97,1.11-.83,2.84-.05,3.35.74.49,1.28-.25,1.65-.17.04-.55,1.83-1.12,1.8-1.45.09,1.03-2.03,1.67-2.62,2.54ZM90.91,45.94c.08-.4.64-.32.65,0-.29.2-.58.38-.65,0ZM93.47,47.22c-.72-.8-1.57-1.35-1.6-2.55.84.22.59-.63,1.28-.64-.63,0-.03-.38,0,0-.03-.41.17.07-.14.65-.64,1.17.84,1.72,1.74,1.58-.09.71-1.18.25-1.28.96ZM96.99,46.58c-.64-.04-.2-1.06-.96-.96.7-1.07,1.69-1.59,2.5-.58.56.7-1.29.82-1.54,1.53ZM100.82,47.85c-.03-.95.94-1.16.64-2.23-1.03.36-1.91,1.03-2.56,1.91-1.25-.42,2.92-6.46,2.56-7.65-1.68.49-3.86,2.66-5.11,3.83-.99-.73,2.56-3.29,2.88-3.83-1.32-1.65-5.6,1.4-6.39,2.55-.74-.54,1.68-3.24,1.94-3.8.69-1.45-.78-2.21-1.3-.98-.88-.41.69-1.43.21-1.99-.69-.82-1.32,1.58-1.8,1.99-.24-.22.91-3.36.37-3.1-.77.37-1.77,2.15-1.59,2.89.41,1.67-.91,1.39-1.34,2.77-.75-.6.95-1.65.64-2.55-1.6.07-2.33,1.65-3.84,1.91,1.38-2.09,3.13-3.88,4.79-5.74,1.44,0,1.57-.15,2.56-1.06.93-.85.74-.23,1.73-.26.27,0,.41-.08.47-.19,0-.02.02-.06.03-.08.1-.37-.49-1.01-.75-1.17-.68-.4-1.53-.46-2.29-.59-1.71-.29-.02-2.39-1.76-3.03.06-1.09,5.73.67,6.39.64,0,1.14-1,1.41-.84,2.68.09.7-.11,1.13-.76,1.46,1-.51-.23,1.23-.01.07,0,0-.02.01-.02.02-.24.77-1.78,3.03-1.43,3.44.59.71,1.38.04,1.83-.55,1.43-1.85,2.9-3.9,4.75-5.85.62.35-3.48,5.56-3.52,6.69.7.08,1.38-.09,1.28-.96,1.33.49,1.87-.29,2.88-.96-.11-.28-.33-.39-.64-.32.48-1.26,1.06-2.58,2.07-3.36.93-.72,1.97-2.07,1.45-3.34-1.26-.19-3.44,2.67-4.47,1.91.42-.85.86-1.7,1.28-2.55,1.02-.17,2.01-.44,3-.74,1.99-.6,3.96-1.25,6.04-1.44,3.1-.27-1.79,3.97-1.69,5.68,1.68.04,1.67-1.76,2.24-2.87.82.27.32,5.04.32,5.74-.37.34-.48.77-.32,1.27-.61.13-1.09.45-1.45.95-.8,1.08-.41,1.43-1.77,1.93-2.09.76-4.07,1.95-5.4,3.76-1.04,1.42-.92,1.76-.23,3.25.76,1.62.07.53,1.5.63-.08,2.52,3.04-.81,3.21,1.42.14,1.88-4.14,1.83-5.77,1.77ZM106.58,38.61c-.38,1.56-2.34,1.75-2.88,3.19-.93-.65.92-1.27.96-1.91.87-.2.89-1.33,1.92-1.27ZM109.45,45.94c-.71-.62.77-1.99.96-2.55-.5-.53-.87-.75-.64-1.59-.96-.23-1.57,1.06-1.92,1.59.03,0,.15-2.38-.96-1.91-.46.2,1.23-1.54,0,0,.44-.55,4.75-5,3.2-4.78.18-.7.43-1.48,1.28-1.59.93,3.04.76,8.85-1.92,10.84ZM84.2,28.41c-.03.14-.09.25-.15.37,0,.12.03.09.15-.37ZM84.18,28.18c0,.08.02.15.01.23,0-.14,0-.21-.01-.23ZM61.97,17.71c1.06-1.41-2.28-2.07-2.79.12-.74,3.19,2.06.06,2.64.06-.06,0,.09-.15.14-.18ZM61.97,17.71c-.04.06-.08.12-.14.18.16-.17.18-.2.14-.18ZM91.37,22.98c1.68.12,3.04-.16,4.65-.58,1.56-.41,8.1-1.04,6.8-3.99.1.46-1.25-.59-.75-.49-2.47-.97-5.95-.99-8.44-.99-1.7,0-2.13.77-3.37,1.47-.64.36-.59,1.51-1.59,1.4,0,2.26.21,3.01,2.69,3.18ZM100.82,18.84c.19,1.25-1.31.81-1.6,1.59-.71-.53.89-1.43,1.6-1.59ZM94.27,18.97c.88-.39,2.5.45,3.35.2-.49,1-1.99.92-2.88,1.27.05-.66-.3-1.01-.96-.96.32-.79.5-.73.48-.51ZM94.11,20.44c.17.17-.23.41-.32.32-.17-.17.23-.41.32-.32ZM102.07,17.93c.23.09.46.17.66.28-.35-.18-.55-.26-.66-.28ZM94.27,18.97c-.21.09-.38.25-.48.51.32-.03.47-.33.48-.51ZM61.83,17.89c.37.05-.1.75,0,0-.11.8-.47,1.39-.32,2.23,1.34-.01,1.86-2.03.32-2.23ZM65.66,17.89c-1.61-.22-2.1.66-1.92,2.23,1.36-.03,2.02-.75,1.92-2.23ZM103.74,37.79c1.16-.8.85.61,1.55-1.11.39-.98.55-1.55,1.51-1.32.97.23,2.49-1.84,1.7-2.81-.72-.11-2.51,2.25-2.56,1.91.38-.98,3.51-3.61.96-4.46-.51.84-.88,1.9-1.92,2.23.03-.08,2.21-3.96,2.12-3.99-.29-.09-.77.61-.84.16h.32c-.11,0-.06-.26,0,0-.51-2.18-2.3.9-2.25,1.94.07,1.56-.89,2.81-1.92,4.29-.92,1.34-2.93.68-3.14,2.85-.24,2.52.96.59,1.88.47-.18,2.13,2.06.19,2.6-.18ZM26.98,74.31c.44-.01.26-.8,0,0h0ZM14.83,35.42c-.83,1.51,2.75-1.31,0,0h0ZM70.23,71.12s-.08-.09-.1-.31c1.55-2.6-.69-4.71-2.4-6.49-1.61-1.67-2.88-3.62-3.94-5.69-1.06-2.09-3.61-3.13-4.88-5.25-1.09-1.81-3.54-3.48-5.24-4.89-3.86-3.2-7.93-6.08-12.09-8.93-2.22-1.52-4.48-3.01-6.94-4.13-2.3-1.04-5.06-1.25-7.16-2.49-2.8-1.66-6.03-1.35-9.13-1.35-2.34.88-4.24,2.47-6.1,4.08-1.4,1.22-1.57,1.39-1.57,3.25,0,1.49-1.03,2.14-2.4,2.26-2.16.2-3.8,1.39-5.63,2.42-2.12,1.2-3.57,3.79-1.96,6.24,1.1,1.67,1.19,1.38.74,3.13-.23.92.16,1.59.8,2.19,1.57,1.45.12,4.02,2.14,5.25,2.01,1.22,4.24,2.29,6.62,1.47-.36,2.4,1.97,3.52,2.87,5.43.61,1.29,2.51,2.72,4.15,2.45,1.27-.2,2.76-.94,2.98.64.11.79.28,1.57.55,2.32.47,1.32,1.25,2.51,2.36,3.38,1.41,1.11,3.2,1.59,4.97,1.74.96.08,1.93.06,2.89-.02-.09.75.22,1.19.65,1.74,2.19,2.82,5.97,3.8,8.98,5.07,2.18.92,4.56.3,6.54,1.44,1.94,1.12,3.39-1.47,4.83-.35,1.89,1.47,4.38.82,6.59,1.23,2.18.41,3.89.66,5.95-.34,2.49-1.21,3.28-2.58,2.84-5.23-.14-.87,3.98-2.64,4.86-3.57-.09-.3-.09-2.88,0-3.19-.45-.95-2.35-2.48-2.78-3.52ZM61.83,62.52c1.9-.43,1.79-.64,3.34,1.24,2.05,2.49,4.14,3.32,1.5,6.14-1.37,1.47-7.09,3.14-8.44,1.23-1.23-1.74-1.39-5.22-3.75-6.06,1.56-1.66,3.87-2.31,6.07-2.55-2.59.28.17-.26,0,0,.87-1.32.3-.85,1.28,0ZM58.95,55.82c.76.95,1.61,1.82,2.24,2.87-.26.57-.58,1.1-.96,1.59-.97.17-2.55.04-3.52,0-1.35.56-2.22,1.51-3.41,2.28-1.15.75-3.04-1.88-3.95-2.6,1.21-.74,1.46-2.06,2.54-2.67.85-.48.51-.7,1.62-1.14,2.25-.9,3.04-1.07,5.42-.33ZM53.19,50.08c-.32,1.19,1.35.25,1.6.96-.22-.63.66.09,0,0,1.24.17,1.06,2.07.11,2.5-1.33.6-2.47.6-3.72,1.54-.12.08-4.25,4.13-2.14,4.25-.47,1.27-6.53-4.24-7.03-4.46,0,.07,3.17-1.23,3.47-1.39,1.23-.63,3.42-.73,4.36-1.75.7-.75,2-1.65,3.36-1.65ZM49.36,48.81c.05.9-.78.92-1.6.96.22-.63.85-.85,1.6-.96ZM45.84,48.81c-.23-.09-.4-.18-.53-.26-1.37-.8-2.02-2.36-2.34-3.88,1.04.36,2.5,2.88,2.87,4.14ZM29.35,37.07c1.92.2,3.7,1.06,5.62,1.22.59.9,1.1,1.93,2.24,2.23-1.9,2-5.73,1.85-6.71,4.78,2.14.92,3.7-1.52,5.76-1.59.57-1.07,3.53-1.33,4.55-1.4,2.47-.16.74,2.22-.7,2.52-2.05.42-4.49,2.92-6.41,3.97-2.04-.76-4.14-2.53-5.84-3.84-1.73-1.34-4.86-2.4-2.89-4.87.86-1.08,3.41-3.13,4.39-3.02ZM31.78,57.42c.59.33,1.96,1.21,2.23,0,.79.31.99.98,1.76,1-.04-.08.61-.36.63-.25.59-.84.08-2.49-.15-3.31,4.77.59-1.15,5.16-1.6,6.69-1.45-.96-2.18-2.63-2.88-4.14ZM33.69,62.84c0,.31-.39.25-.64.32,0-.31.39-.25.64-.32ZM31.46,53.91c.09-.65.86-.63.96-1.27.86.37.03,1.69-.96,1.27ZM36.57,50.08c-.03-.38.46-.2,0,0-.07.96-1.33-.31,0,0ZM37.53,49.45c-.46.2.36-.6,0,0,.36-.6,1.24-.68,1.6-1.28,1.36.92-2.44,1.63-1.6,1.28ZM13.01,37.61c.57-.76,1.36-1.34,1.82-2.19,2.69-1.28,6.89-2.97,9.62-.89,1.74,1.32-.38,2.06-.99,3.12-1.32,2.13-2.22,2.16-1.6,4.78-1.68.11-3.12-.42-4.45-1.41-1.36-1-3.18.28-4.82-.5.14-1.02-.47-1.73.42-2.91ZM20.92,62.85c-.65,1.61-.67,2.54-2.56,2.54-.46-.8-.5-1.75-.96-2.55-.25-.14-4.63-1.97-3.13-2.87.59-.35,1.15.14,1.66-.4,1.08-1.15-.39-1.19-1.41-1.19-.2-1.11,1.42-1.74-.83-1.65-1.21.05-2.24.54-3.33,1.01.33-.6,3.7-3.38,1.32-3.52-.95-.06-1.7.89-2.48,1.27-1.76.85.07-1.95.49-2.34,1.2-1.12.63-2.2-.93-2.1.7-1.12,1.86-1.72,1.92-3.19-1.02-.82-2.99-.19-3.51.96-.65-.05-.15-1.06-.64-1.28h-2.56c-.08-.95.79-.84,1.09-1.57.52-1.24.28-1.6,1.69-2.36,1.48-.8,1.7-.61,2.51.46.59.79,2.09.3,2.69-.19,3.71-3.03,10.38.18,13.12,3.33-.74-.85,1.99,1.2,0,0,1.98,1.19,3.8,2.61,5.75,3.82-3.58,3.59-7.95,6.97-9.9,11.81ZM26.02,65.39c-.25-.14-.36-.35-.32-.64.13-.12.18-.13.2-.12.25-.12.51-.08.76.12-.25.17-.46.39-.64.64ZM27.94,74.63c-.28-.22-.6-.32-.96-.32.27-.83.51-1.7,1.6-1.59.13.87-.43,1.17-.64,1.91ZM26.98,66.02c.7.05.69.8.64,1.59-.48-.27-.46-1.03-.64-1.59ZM28.58,60.6c-.12-.69.54-.86.32-1.59-.52-.36-1.2-.6-1.53-1.18.16.13.25-.61.19-.74-.11.2-.2.41-.26.65.15-.6.23-.72.26-.65.68-1.2,2.19-1.67,2.94-2.86.72.28,1.27,2.15.54,2.55-.67.37,1.15,4.71,1.38,5.41-1.26-1.2-1.93-2.88-2.55-4.46-2.86.69,2.9,6.18,2.88,7.01-1.12.82-3.71-3.44-4.16-4.14ZM32.73,74.95c-.17-.17.23-.41.32-.32.16.17-.23.41-.32.32ZM68.54,76.86c0,2.34-.88,3.96-2.78,5.28-1.37.95-1.85,1.74-3.61,1.74-2.03,0-.91-1-2.23-2.23-.62.52-1.74,1.43-2.14,2.11-.66,1.11-2.03.05-2.97.12,0-1.23,1.59-1.32,1.6-2.55-.11-1.34-1.08-2.03-2.34-2.18-4.13-.51-1.51,3.14-2.45,4.73-1.4-.56-2.33-1.78-3.62-2.5-1.61-.89-1.74.6-3.09.27-.48-.83-1.29-.4-1.78-1.31-.24-.33-.49-.64-.78-.92.03-1.25-.31-2.36.32-3.51-1.34-.27-3.83,2.08-3.52,3.83-1.22-.15-2.69-1.25-2.16-2.67.32-.85,1.26-1.07,1.21-2.12.27-3.21-3.7-.55-4.8-.32.39-.84,1.27-1.19,1.28-2.23-1.25-.22-2.04.42-3.2.64.17.51-.92,1.33,0,1.59-.57.95-1.79-.17-2.56,0,.88-1.13.04-1.17,1.42-1.56.69-.19,1.06-.88.74-1.56-.48-1.04-.12-1.23.59-2.54.38-.71.78-1.42,1.17-2.12.98-1.72,2.04-3.41,3.28-4.97.73-.91,1.52-1.77,2.39-2.56-.02-.55.2-.97.64-1.27-.43.21-.09-.52,0,0,.04-.34.15-.66.32-.96,1.53,0,4.76,3.89,6.07,4.94,2.43,1.96,4.78,4,7.33,5.83,1.59,1.14,1.87,3.16,2.75,4.89.33.65.7,1.27,1.11,1.87.42-.13.74-.03.96.32,2.48,0,5.13.35,7.35-.8,1.28-.66,3.55-3.51,4.79-2.19,1.8,1.92,1.53,4.45-1.27,4.9ZM70.13,70.81c0,.1.05.2.1.31.16.04.39-1.13-.1-.31ZM25.89,64.63c-.07.03-.13.06-.2.12.05.17.23-.08.2-.12ZM36.25,58.37c-.19.04-.34.05-.48.05.02.03.14.03.48-.05ZM58.95,55.82c-.57-.18.76.94,0,0h0ZM36.41,58.17c-.05.07-.09.14-.15.2.12-.11.16-.17.15-.2ZM45.3,48.55c.17.1.34.19.53.26-.33-1.13-1.34-.79-.53-.26ZM34.97,38.29c-2.46-.2.59.9,0,0h0ZM12.89,49.55c.11.05.23.12.34.22-.19-.16-.29-.22-.34-.22ZM12.85,51.38c-.54-.06.13-.9.33-1.37-.15-.08-.41-.47-.29-.46-1.31-.63-2.23,1.49-1.49,2.58.73,1.07,2.96.48,2.8-1.09-.63-.33-.82.4-1.35.34ZM13.23,49.77c.01.06-.01.14-.06.24.08.04.12,0,.06-.24ZM18.31,54.32c-.04.13-.04.3.04.55.33,0,.09-.48-.04-.55ZM19.22,51.96c-2.74-.13-4.36,3.93-1.4,4.68,3.07.77,3.15-2.8,1.81-4.64.61.83-.92.01-.41-.04ZM19.95,54.87h-1.6c-.16-.48-.12-.59-.04-.55.15-.49.97-.32.99-1.04.8.05.67,1.09.64,1.59ZM19.22,51.96c.13,0,.27.01.41.04-.2-.04-.33-.05-.41-.04ZM19.63,59.97c-1.09,0-2.37.54-2.56,1.91.55.48,1.38-.16,1.87-.39.86-.06,1.09-.57.69-1.52,0,.43-.43,0,0,0ZM49.04,69.21c-.66-.64-1.76-.33-2.5-.82-.74-.48.62-2-.7-2.05.82.03-.65.62,0,0-1.09,1.03-2.4,2.06-.65,3.28,1.14.8,3.15,1.13,3.85-.41ZM39.77,68.89c.51-.09-.52.76,0,0-.79,1.16-1.38,2.26-.42,3.43.64.79,2.08.46,2.34-.56-2.19-.25-.13-3.18-1.92-2.87ZM50.07,72.54c.23-.12.52-.19.89-.14-.52-.08-.78,0-.89.14ZM50.96,72.4c-.19,1.3-1.19.51-.89.14-.88.47-.84,1.95-.07,2.73,1.42.15,2.84-.16,2.55-1.91-1.05.06-1.82.6-1.59-.96ZM46.8,74.95h-1.28c.43,0,0,.21,0,0,0,1.21,1.53.72,1.28,0ZM47.44,78.78c-.03-.42.05-1.11-.64-.96-2.01-.06-.34,2.48,1.12,2.54,1.19.05,2.52-.49,2.39-1.9-1.02-.14-1.85.52-2.88.32ZM46.8,77.82c.68-.15-.44-.01,0,0h0Z"/>
    </g>
  </g>
</svg>