<?xml version="1.0" encoding="UTF-8"?>
<svg id="Layer_2" data-name="Layer 2" xmlns="http://www.w3.org/2000/svg" viewBox="0 0 114.86 73.95">
  <defs>
    <style>
      .cls-1 {
        fill-rule: evenodd;
      }
    </style>
  </defs>
  <g id="food_icons" data-name="food icons">
    <g id="taco">
      <path class="cls-1" d="M79.2.2c-.19-.46-.39.03,0,0h0ZM114.35,30.18c-.74-1.98-1.47-3.94-1.58-6.08-2.78-4.24-5.73-8.03-8.99-11.87-1.72-2.04-3.1-5.25-5.45-6.51-2.15-1.16-3.82-2.18-6.14-2.93-3.83-1.22-7.88-2.02-11.98-2.48,1.58.25-.91.35-1.01-.12.24,1.08-6.48.64-7.39.64-3.18,0-6.04.07-9.15.8-1.92.46-5.78.59-7.22,1.96-1.57,1.49-2.82.9-4.83.56-2.14-.36-5.11-.04-6.58,1.58-1.47,1.64-2.09,3.81-3.66,5.31-.95.91-4.17,1.47-4.66-.34.02,0-1.12-1.33-1.27-1.44-.53-.38-1.14-1.02-1.68-1.46-2.04-1.62-4.03-1.57-6.63-1.57-2.43,1.14-3.59,2.58-4.89,4.69-2.12,3.45-.47,8.2.05,12.05.18,1.34.11,3.32-1.56,3.66-2.6.25-2.89-2.28-5.12-2.55-2.51,0-4.3-.15-6.48.99-1.68.87-2.82,2.93-2.66,4.74.11,1.14-.12,5.82,1.15,6.38,0,1.16,1.87,1.64,2.13,2.68.13.53-4.58.79-5.33.83C1.44,41.32-.12,42.71,0,45.4c.12,2.81.98,4.7,2.79,6.76,2.39.95,2.18,1.99,2.19,4.4.02,4.07.51,8.43,2.64,12,5.39,9.05,19.24,4.59,27.05,1.84,5.2-1.83,10.63-2.86,15.92-4.41,4.95-1.44,9.83-3.09,14.78-4.53,5.25-1.52,10.51-2.99,15.66-4.82,4.51-1.61,8.74-4.07,13.31-5.31,4.49-1.22,8.53-3.56,12.56-5.8,3.27-1.82,7.44-3.53,7.75-7.75.16-2.28.5-5.45-.31-7.6ZM39.88,12.31c.16.17-.23.41-.32.32-.16-.17.23-.41.32-.32ZM15.33,68.57c-1.72,1.15-2.52.17-4.22.49-1.02-.77-.78-2.11-1.64-2.99-1.31-1.34-1.24-2.93-1.24-4.66,0-2.3-.51-6.23,2.92-4.46,3.55,1.83,5.68-3.63,1.87-3.83-.53-.03-1.85-1.16-2.24-1.59-2.01-.76-3.9-1.78-5.75-2.87-.94-2.64-.48-5.55,2.8-5.34,1.22.08,2.87.48,3.91-.4.63-.57.1-2.21,1.28-2.23-.65-2.77-4.88-5.02-3.95-8.33,1.17-4.19,4.1-3.41,7.72-3.42,1.49,0,3.56.05,4.85.92.8-.62,1.6-1.24,2.55-1.59.02-.88.09-1.77.19-2.64.29-2.81-.48-5.55-.51-8.19-.04-3.39.88-5.05,3.24-7.45,1.27-1.29,2.68-.73,3.79.44,1.34,1.4,1.72,1.63,3.48,2.4,1.34.59,2.46,1.61,3.87,2.06.36.49,1.36.68,1.5,1.3,0,.32.07.61.22.89,2.23,1.99,4.38-3.5,4.87-4.35,2.12-3.7,4.58-3.41,7.47-.7,1.61.95,3.25,1.83,4.8,2.87,1.49-.29,2.53-1.4,3.48-2.43,1.55-1.68,4.4-2.33,5.79-4.26,2.14-.1,4.27.07,6.39.32.89.85,2.86,1.36,3.97,1.63,1.01.25,1.34,1.44,2.43,1.56.71-.64.3-2.28-.12-2.91-1.57-2.37-6.88-3.08-9.36-2.76-3.62.47-5.68,2.07-8.54,4.09-1.91,1.35-2.96.35-4.68-.98-.78-.85-2.33-.89-2.56-2.23,1.12.08,1.98-.35,2.88-.96.79-.15-.11-1.76.96-1.59,2.9-.91,5.97-1.11,8.95-1.59,5.22,0,10.36.36,15.5.96,1.89.22,2.59.68,4.25,0,1.06-.44,6.45,3.51,7.74,4.14,1.21.59,2.74,1.04,3.55,2.12.82,1.09.38,1.83,1.47,2.77.91.78,2.96,3.36,2.98,3.4.19.46-2.98-.43,0,0-4.35-.62-7.8-2.38-12.3-2.25-3.92.11-7.76.89-11.67.98-7.82.17-14.48,5.13-20.89,9.03-7.56,4.59-15.25,9.85-21.73,15.89-3.01,2.81-6.19,5.6-8.45,8.96-1.68,2.52-2.9,5.16-4.22,7.83-1.43,2.9-3.12,5.9-4.75,8.71-.74,1.27-1.65,2.46-2.89,3.28ZM84.96,47.06c-.17-.16.23-.41.32-.32.16.17-.23.41-.32.32ZM110.21,34.31c1.47,2.07-1.72,2.28-2.3,3.12-.33.48-3.34,1.75-3.33,1.83-.04-.44.73-1.26.84-1.77-1.57.4-2.11,1.97-2.88,3.19-1.27.38-2.14,1.46-3.52,1.59,1.56-.15-.72.66,0,0-1.17,1.06-4.57,2.3-6.08,2.55-.17-1.19,1.52-.9,2.14-1.49.82-.76,1.68-1.49,2.37-2.38,1.14-1.47,1.65-5.98-1.19-3.65-1.42,1.17-2.53,2.69-3.63,4.03-1.01,1.23-1.6,4.44-3.53,4.45,1.14-2.31,3.49-4.2,3.35-7-.15-2.92-3.17,1.08-4.15.85-4.68-1.08-4.39,8.59-7.82,9.02.19-1.04,1.18-2.17.32-3.19-2.61,1.03-4.55,4.31-7.35,4.78.11-.8.47-1.39.32-2.23-.46-.01-2.45.66-2.54.41-.32-.99-1.07-.89-1.94-.3-1.83,1.24-1.86,2.45-1.6,4.36-2.04.12-5.72,1.63-7.35,2.87-.72-.09-.04-1.42-.96-1.28-.91.18-1.62.69-2.27,1.32-1.69,1.63-4.78.7-6.71,1.73-2.08,1.11-4.23,1.93-6.46,2.68-4.99,1.66-9.82,3.91-14.6,6.07-1.43.65-2.84,1.36-4.15,2.23-.62,0-1.74-.21-2.24.32-.68.03-.91,1.55-1.83,1.84-.99.32-1.91.53-2.96.39,1.11-1.35,2.29-2.65,3.19-4.14,1.07.04,1.42.41,2.39-.59,1.4-1.44,3.49-4.12-.16-3.23,2.25-4.64,4.87-9.66,7.99-13.71.79,1.12-.53,3.11.25,4.41.96,1.59,1.08-2.07,2.3-.58v-2.23c-.31.25-.53.57-.64.96-1-.49.52-3.26-1.28-2.87.34-1,1.45-1.33,1.92-2.23.74.32-.23,4.15,1.66,2.73.9-.68.82-2.36.47-3.29-.73-1.92,1.34-1.96,2.35-3.58.85-.1,1.41,1.04,1.59-.48.19-1.63.45-1.16,1.78-2.03,1.9-1.25,3.42-3.02,5.58-3.86.43-1.36,2.38-3.33,3.51-3.93,1.75-.93,3.33-2.29,4.98-3.38,1.61-1.06,4.23-1.34,5.57-2.69.38-.42.6-.91.65-1.48.44.03.77-.13,1-.49.57-.84,1.56-.86,2.49-1.24,1.52-.63,2.9-.52,4.39-1.34,3.95-2.16,8.69-2.55,13.03-3.4,4.38-.85,9.07-1.03,13.38.17,1.96.55,4,.87,5.91,1.58,2.55.95,3.76,2.63,5.51,4.71-.85.56-4.53,1.15-2.56,3.13,1.39,1.4,2.44-.12,3.33-.77.91-.66,2.1,4.57,2.14,5.36.07,1.67-2.52,4.03-3.86,5.04.33,1.16,2.87-2.4,3.2-2.87ZM79.2.2c.34.03.67.08,1.01.12-.24-.04-.56-.08-1.01-.12ZM63.54,15.91c-.05.24-.62.09-.65-.02-1.12.28-2.39,1.36-1.59,2.48.12-1.13,2.2-1.77,2.24-2.46ZM62.89,15.89c.23-.06.45-.08.64-.07-.51-.04-.66,0-.64.07ZM54.27,21.24c-.3.14-.59.2-.88.21.1.07.35.03.88-.21ZM44.14,23.89c.9-1.27,1.24-2.23,2.36-3.39,2.48-2.57,4.5,1.07,6.89.95-.28-.21.89-1.38,1.1-1.1.1-2.25-3.62-3.81-5.36-4.19-3.32-.71-7.53,3.51-7.9,6.6-.22,1.91,1.79,2.71,2.92,1.13ZM54.49,20.35c-.01.29-.08.58-.22.89.25-.53.29-.79.22-.89ZM96.46,19.96c.43,0,0,.43,0,0v1.28c.94.14,1.42-.33,1.28-1.28h-1.28ZM85.28,26.02c-3.92-.48,2.66,3.68,0,0,.27.37-.73-.09,0,0ZM39.24,28.89c-.14.17-.31.29-.48.38.07.03.22-.06.48-.38ZM30.52,32.21c1.15-1.5,2.55-3.15,4.63-3.07,1.06.04,2.58.67,3.61.13-.2-.08.23-1.09.42-.64-.77-3.62-7.46-1.93-9.1-.08-1.73,1.94-6.41,6.33-5.37,9.38.96,2.82,5.1-4.8,5.81-5.72ZM39.18,28.63c.02.09.05.16.06.26-.01-.12-.04-.2-.06-.26ZM67.69,28.57c.7.81,2.67,1.47,3.52.32.71-2.32-4.26-3.55-3.52-.32ZM74.73,37.18c-.78-.24-.97-.19-.91-.08.27-.04.57-.03.91.08ZM73.81,37.1c-1.34.21-1.73,2.01-1.01,3.27.8-.13,1.44.99,2.01-.17.43-.88.29-2.14-.09-3.02.28.66-.8.15-.91-.08ZM102.25,38.66c.81-1.66-.7-1.72-1.76-.82-.64.55-3.03,3.22-2.52,4.14.34-.36,1.66-.77,1.06.3.82-1.44,2.49-2.12,3.23-3.62ZM97.97,41.98c-.2.22-.05.42,1.06.3-.61.07-.92-.06-1.06-.3ZM18.67,44.55c1.88-1.83,7.69-.14,8.08-3.32-.03-.34-.06-.72-.06-.88-.89-3.73-6.71.42-8.23.66-.83,1.21-.51,2.32-1.65,3.14-.59.42-.78,1.17-1.12,1.75-1.05,1.77-.74,3.85-.74,5.95.42.85.84,1.76,1.9,1.93,1.63.26,1.04-1.17.95-2.27-.19-2.42-1.07-5.07.87-6.95ZM26.78,40.68c.01.2,0,.37-.03.55.05.63.12,1.07.03-.55ZM26.69,40.35c.03.11.07.21.08.34-.06-.45-.08-.49-.08-.34ZM55.33,40.28c-1.41-1.32-3.58.4-3.46,2.39.2,3.17,3.85,1.5,3.99-1.25-.08.42-.55-.87-.53-1.15ZM55.86,41.43c.02-.08.02-.21,0-.42.01.14,0,.28,0,.42ZM55.33,40.28c.19.18.37.42.53.72-.38-.75-.52-.86-.53-.72ZM61.62,48.33c.55-.51.79-1.33.64-2.55-2.76-1.93-4.21,3.17-.64,2.55ZM42.9,48.42c-2.46-.65-3.13,3.52-.37,4.01-.16-.08.52-.18.89-.21,1.48-.86,1.37-3.31-.51-3.81ZM42.76,52.48c-.08,0-.16-.03-.23-.04.04.02.1.03.23.04ZM43.42,52.23c-.19.11-.41.2-.65.25,1.06-.22.99-.27.65-.25ZM30.93,56.62c-.92.94-.46,2.6,1.28,2.55.71-.94.31-2.91-1.28-2.55ZM40.2,57.9c.09.09.48-.15.32-.32-.09-.09-.48.15-.32.32ZM30.61,63c.32,0-.18.66,0,0-.64,2.36,1.08,1.52.96,0h-.96Z"/>
    </g>
  </g>
</svg>