<?xml version="1.0" encoding="UTF-8"?>
<svg id="Layer_2" data-name="Layer 2" xmlns="http://www.w3.org/2000/svg" viewBox="0 0 90.81 114.09">
  <defs>
    <style>
      .cls-1 {
        fill-rule: evenodd;
      }
    </style>
  </defs>
  <g id="food_icons" data-name="food icons">
    <g id="teacup">
      <path class="cls-1" d="M33.54,14.7c2.88,1.84,3.73,3.93,2.41,7.39-.55,1.44-2.7,6.96-.34,7.55,3.52.88,3.04-3.2,3.87-5.48,1.17-3.22,1.76-7.87-.84-10.46-2.42-2.42-6.09-2.99-3.62-6.94.97-1.55,2.88-3.3,3.09-5.24-.14-.38-.32-1.18-.04-.96-3.05-2.41-6.13,3.65-7.17,5.92-1.64,3.59-.67,6.11,2.63,8.22ZM38.11,1.51c.13.34.23.36-.04-.96.07.32.07.64.04.96ZM21.8,25.98c3.17,2.8-.73,8.57,2.47,10.6,2.99,1.89,2.62-9.83,1.45-11.28-.86-1.07-2.94-2.21-2.99-3.71,0-1.65,1.54-3.01,1.46-4.6-.2-.03-.89-1.15-.18-.81-2.72-1.3-3.93,1.93-4.33,4.01-.54,2.79.09,4.01,2.12,5.8ZM24.01,16.18c.12.28.17.55.18.81.09.01.08-.18-.18-.81ZM48.62,16.71c.31-.19.63-.37.97-.53-.56.27-.84.44-.97.53ZM47.02,25.42c.43.62,1.5.08,2.05.51.7.54-.57,1.9-.9,2.28-1.19,1.38-2.44,2.75-1.14,4.54,4.66,1.32,7.88-6.77,5.44-9.88-1.23-1.5-4.72-.22-1.83-2.78,1.67-1.47,1.44-3.52-.93-3.89.42.18-1.54.85-1.09.5-1.42.86-2.62,2.01-3.17,3.63-.49,1.43-.91,5.21,1.58,5.08ZM40.95,71.96c.18,2.05,3.46-.58,0,0h0ZM89.89,66.79c-1.29-4.3-2.46-6.67-5.94-9.53-3.88-3.18-7.88-5.05-12.94-4.74-.93.7-2.54,1.25-3.51,1.71-.24.11-2.05,1.63-2.22,1.2-.01.06-.02.06-.03-.04.39-3.69-2.21-6.49-3.01-9.75-.75-3.03-3.7-4.64-6.63-5.18-7.57-1.4-16.17-.73-24-.7-7.63.03-15.59-.37-23.09,1.31-2.96.66-5.99,1.9-7.83,4.44-.05,1.93.32,3.03-.39,4.71-.54,1.3-.18,2.9-.07,4.25.81,10.69,1.88,21.42,1.76,32.14-.02,1.45-.68,11.5,1.57,11.82.06.88,1.04.85,1.28,1.59-.44.78-1.15,1.25-.64,2.23.94.78-1.04,1.49-.64,2.55-.11,0,1.56,1.03,1.6,1.06.47.3.47,1.49.88,1.99,1.56,1.94,3.9,1.93,6.2,2.6,4.86,1.44,8.99,2.78,14.09,3.14,5.61.4,11.24.59,16.87.45,3.92-1.03,9.06-2.43,13.11-1.91.1-.22,3.67-1.04,4.1-1.12,2.38-.41,3.18-.76,2.95-3.37-.17-2.03-.8-3.97-.66-6.03,2.18-.6,4.25-1.51,6.39-2.23,2.79,0,4.86-.07,7.47-.97,1.33-.45,1.78-.08,2.81-1.09.75-.73,1.63-1.3,2.42-1.99,4.08-3.59,5.85-7.54,7.27-12.64,1.59-5.71,2.57-10.1.83-15.91ZM5.69,45.56c.32-.2,4.54-2.53,4.57-1.33,0-.27.32-.07.12-.02.66-.08.23-.7,1.65-.61.98.06,1.93.28,2.87.56,1.98.57,3.76.46,5.74.8,4.35.73,9.35.38,13.73-.07,4.83-.49,9.63-.13,14.25-1.61,1.67-.14,8.23.73,8.63,2.55-3.5.02-6.99.24-10.48.48-2.75.19-6.95,1.26-9.55.15-1.26-.54-3.1.44-4.59.64-3.02-.03-6.02-.33-9.02-.67-3.05-.35-6.24-.29-9.2.67-2.1-.22-4.79-1.83-6.77-.91-1.68.79-4.91,1.17-1.96-.63ZM11.22,99.06c0,.25-.11,1.02-.96.95.18-.46.5-.77.96-.95,0,0,0,0,0,0-.44.17-.05-.36,0-.02,0-.07,0-.09,0,.02,0,0,0,0,0,0ZM12.82,106.07c.12-.12-.97-.34-.96-.32-.09-.51,1.73-.45.96.32ZM14.1,106.39c.14-.61.37-.64.96-.64.15.68-.53.61-.96.64ZM16.98,107.03c.05-.37.58-.27.96-.32-.05.37-.58.27-.96.32ZM20.76,106.74c-.07.49-.28,1.9-1.23.92.3-.42.81-.62,1.23-.92,0,0,0,0,0,0-.28.18-.06-.24.02-.13.01-.04.02-.02.03.1-.02.01-.03.02-.05.03ZM22.73,108.62c-.58.11-1.12,0-1.6-.32.31-.52.56-1,1.27-.96-.01.31.59,1.91.32,1.28.19.46-.74.1,0,0ZM86.65,75.98c-.59,2.43-1.41,5.04-2.13,7.59-1.62,5.72-8.55,12.96-14.77,13.27-1.93.1-9.31.94-10.01,2.66-.4.99.07,1.82-.67,2.62-.34.35-.67.72-.99,1.09-.68.85-.96,1.82-.48,2.86-1.98.76-3.14,1.16-5.26,1.28-1.72.09-3.42.41-5.08.88-2.69.76-5.48,2.3-8.3,2.3-1.34,0-2.77.15-4.1.05-.64-.05-.95-1.02,0-.85.4.17.8.31,1.21.42,2.43.13,4.6-3.71,4.6-5.67-.88.02-5.36,2.72-5.31,3.36-.02-.22.2-1.37.2-1.77-1.05.44-2.43,1.26-3.01,2.25-.43.73-.83,1.47-1.78,1.57,1.2-1.65,2.41-2.89,2.24-5.1-2.48.4-2.87,3.4-5.12,4.14-.22-.84.63-.59.64-1.27-.37.02-2.76.78-2.75.81-.09-1.1,2.75-3.42,3-4.91.53-3.17-3.96,1.95-4.4,2.82-.94-.65.76-2.43,1.15-3,.19-.28,1.27-2.91.06-1.92-.85.7-3.92,5.52-5.25,4.53-.37-.28,1.52-1.77-.01-1.68-.97.06-1.6.95-2.66.8.63-1.53,1.51-.94,2.63-1.84.15-.12,2.32-2.69,1.24-2.53-.95.14-1.63,1.46-2.34,1.96-1.15.82-1.09-.46-2.49-.14-.24-1.61,1.59-2.18,1.28-3.83-1.51.27-2.27,1.49-3.2,2.55-.76-.68-.61-2.18-1.92-2.23.05-1.58,2.56-3.23,2.88-5.1-1.46.38-2.03,1.78-2.77,2.93-.19.29-.77.79-1.05,1.05-.01.05-.02.11-.02.16,0-.05-.01-.09-.02-.11-.09.09-.13.14-.08.14-.25.05,0-.31.08-.14.02-.02.02-.03.04-.04.11-.52.69-1.25.04-1.56-.95-.45-.64-.47-.21-1.09.49-.74.6-1.8,1.15-2.68.71-1.14.99-2.43.92-3.76-1.98.29-2.39,2.57-4.15,3.19-.12-1.14,1.34-2.41,1.84-3.37,1.01-1.95,1.08-3.72,1.68-5.87-.52-.03-2.22,2.11-2.69,2.58-.71.72-1.95,2.63-2.1,3.8-1.82.29,2.95-10.51,2.08-10.52-1.64,0-1.81,4.08-3.36,4.46-.29-2.69.94-4.8,1.46-7.33.58-2.83-.96-.04-1.58-.11-.91-.1,1.19-5.6.27-5.53-.24.1-.39.28-.47.54-.63-.33.43-2.5.64-2.98.87-2.02-.82-2.2-.64-1.48-1.19-.41-.64-7.16-.64-8.08,0-2.02.17-3.89.47-5.88.26-1.69,1.87-1.03,3.37-1.03.92.21,1.42-1.73,2.24-.64.77-.96,1.82-1.63,2.88-2.23,3.65-.2,7.26.19,10.87.64,1.46.18,9.67.27,9.85,1.22.45,2.36,2.8,4.04,3.39,6.65.71,3.11-.36,7.05.7,9.94.54,1.47,1.83,2.23-.22,2.79-.86.23-1.94.38-2.54,1.11-1.38,1.67,1.45,6.72,1.92,8.57,1.62,1.93,1.84,5.03,4.16,6.38,1.1.1,2.18-1.18,3.23-1.5,1.16-.36,2.15-1.04,3.16-1.69,1.58,0,3.14-.44,4.26-1.59,1.05-1.08.16-3.35-.08-4.72-.38-2.2-.82-4.39-1.24-6.59-.19-1.02-.17-3.85-1.02-4.53-2.22-1.78-5.71,1.27-8,2.13-.9-1.04.02-3.25-.01-4.45-.05-1.53-.23-3.05-.55-4.55-.62-2.96-1.8-5.75-2.95-8.53,4.25.15,8.48-.25,12.71-.49,3.43-.2,7.18-1.23,8.38,2.73.44,1.44.52,2.96.8,4.44.35,1.81,1.13,1.01,2.31,1.7,1.16.69,1.82.7,2.97-.39.96-.9,2.19-1.02,3.18-1.92,1.97.11,3.41-.31,5.43.48,1.42.56,2.34,1.69,3.65,2.38,2.67,1.43,4.96,4.08,5.82,6.91,1.05,3.45,2.24,6.94,1.38,10.5ZM40.95,71.96c3.12-.53,5.19-3.3,8.31-3.83.08,2.62.8,5.55,1.39,8.08.37,1.56.84,2.58-.9,2.98-1.35.3-2.69.73-3.87,1.46-1.78,1.11-1.87-1.86-2.67-3.2-.84-1.4-2.12-3.86-2.27-5.5ZM65.25,55.39s.02.02.03.04c.06-.29.18-2.01-.03-.04ZM14.1,106.39c.5-.03.06-.26,0,0h0ZM20.76,106.74s.03-.01.05-.03c0-.05-.01-.08-.03-.1,0,.02-.01.07-.02.13ZM11.22,99.06s0,0,0,0c0,0,0,0,0-.02,0,0,0,.01,0,.02ZM10.03,44.52s-.05.03-.09.02c.15.03.13,0,.09-.02ZM9.94,44.55s.05-.04.09-.02c.16-.02.25-.1.23-.3-.32-.11-.42,0-.32.32ZM9.94,44.55c-.46.2.03.39,0,0h0ZM62.93,91.21c-.43-.1-.84-.24-1.2-.44.75.41,1.09.5,1.2.44ZM61.73,90.77c-.07-.15-.11-.3-.17-.45.03.12.08.26.17.45ZM75.3,65.45c-2.93-2.44-6.12-3.88-9.87-2.5-1.68.62-2.32,1.77-2.1,3.6-.82,1.41-1.25,2.11-1.27,3.8-.04,3.75.14,8.07-.48,11.74-.43,2.57-.96,5.69-.01,8.23-.28-1.11,1.71.68,1.36.89,2.84.63,6.97-.82,8.88-2.44,2.79-2.37,4.76-4.67,6.46-7.98,1.67-3.27.79-6-.03-9.22-.6-2.37-1.07-4.58-2.93-6.12ZM75.48,77.06c-.67.57-1.55,2.61-1.81,3.46-.39,1.32-.79,1.4-.75,2.92-1.35,1.34-2.56,2.86-4.4,3.54-1.75.65-1.82-1.39-2.95-.67.72-4.78.29-9.68.06-14.48-.12-2.3,3.48-6,6.09-4.5,3.39,1.95,4.07,5.92,3.77,9.73ZM72.92,83.44c-.03-1.19-1.55,1.54,0,0h0ZM27.53,66.54c.37-.05-.94,1.3,0,0-.73,1.01-6.17,7.47-4.47,8.61,1.3-1.53,2.46-3.18,3.46-4.92.26-.47,2.58-3.9,1.02-3.69ZM30.72,71.64c-2.62-1.89-5.75,6.23-5.44,8.29,2.07-.06,3.04-2.31,3.96-3.84.52-.87,1.48-2.65,1.52-3.88-.11-.26-.23-.7-.05-.56ZM30.77,72.21c.11.26.21.34-.05-.56.05.17.06.36.05.56ZM64.61,103.52c.43.6,1.41-.18,1.28-.32-.21-.21-1.38.09-1.28.32ZM43.72,106.76c.06.25.15.17.11-1.01.01.38-.04.7-.11,1.01ZM43.83,105.75c-1.69,0-3.93,1.51-3.83,3.51,1.76-.21,3.32-.88,3.72-2.5-.07-.29-.12-1.01.11-1.01Z"/>
    </g>
  </g>
</svg>