<?xml version="1.0" encoding="UTF-8"?>
<svg id="Layer_2" data-name="Layer 2" xmlns="http://www.w3.org/2000/svg" viewBox="0 0 126 89.66">
  <defs>
    <style>
      .cls-1 {
        fill-rule: evenodd;
      }
    </style>
  </defs>
  <g id="food_icons" data-name="food icons">
    <g id="teapot">
      <path class="cls-1" d="M105.02,52.61c.5-.04,0-.45,0,0h0ZM74.21,84.24c.09.03.2.07.36.1-.14-.07-.25-.1-.36-.1ZM7.42,29.3c-.56.16,2.59.52,0,0h0ZM108.82,43.94c.99-1.09-2.56.97,0,0h0ZM125.42,38.08c.33-1.17.8-2.84.47-4.04-.64-2.34-1.11-5.06-2.62-7.04-2.92-3.8-7.32-3.67-11.73-3.67-.33.33-2.71.92-3.26,1.04-.82.18-2.41.52-3.06.99-1.31.95-4.3,1.1-5.87,1.7-1.99.76-3.94,1.66-5.75,2.78-1.6-2.35-4.23-5.36-7.07-6.24,3.37-2.3-2.9-2.51-4.17-2.46-3.51.13-6.99.43-10.51.56.1-.29,2.19-1.91,2.45-1.9h4.9c2.4-.23,4.99.86,4.61-2.4-.3-2.57-3.93-5.01-6.02-6.27-1.32-.79-2.52-1.75-4.03-2.17h-5.17c.9-1.32,2.7-4.6,2.3-6.4-.09-.16-.21-.41-.17-.41-.31-.22-2.41-1.11-2.4-1.06-1.35-.37-2.13-1.18-3.64-1.1-1.77.09-5.14-.02-6.57,1.15-2.08,1.69.68,3.73,1.52,5.1.9.35,1.78,1.55,2.37,2.28.94,1.16-.78.93-1.41,1.11-2.35.68-4.64,1.48-6.96,2.28-2.39.84-3.92,2.66-5.97,4.08-.55,1.92-3.41,4.57.04,4.89,1.22.11,5.5.58,6.21,1.61-3.45-.17-6.88.45-10.33.27-2.1,1.41-4.35,3.35-6.8,4.07-2.5,2.3-4.32,5.21-6.05,8.11-.82,1.38-2.07,2.87-2.27,4.47-.23,1.89-.94,2.3-2.86,2.37-3.16.12-3.14-4.18-3.67-6.38-.55-2.29-1.23-4.41-2.51-6.31-1.03-1.53-.68-2.72-3.09-2.54-3.04.23-6.02.26-9.06.6-1.58.17-6.69-.03-7.2,2.18-.62,2.7,2.46,2.12,3.8,3.2,2.82.39,5.47,2.38,7.45,4.28,2.51,2.4,3.3,4.64,3.18,8.06-.23,6.38-2.96,13.77,1.79,19.12,1.87,2.1,4.14,3.8,6.82,4.72,1.14.4,2.71,1.01,3.89.53.44-.18,1.04-.76,1.4-.87.5-.15,3.15,5.74,3.5,6.42.4.78.69,1.59.79,2.47.54.1,1.06.24,1.57.42.91.39,1.35,1.75,2.05,2.47.63.65,1.6,1.54,1.78,2.47.25,1.24-.51,1.24.95,1.43,1.53.21,2.65,1.37,4.26,1.33,3.16,2.03,7.57,3.01,11.25,3.57,8.53,1.3,19.02.79,27.08-2.49.16-.57,3.68-3.02,4.39-3.21,1.61-.44,1.79-1.48,3.12-2.49,2.46-1.88,4.32-4.4,6.81-6.24,1.38-1.02,2.47-3.17,3.29-4.67.67-1.22.88-4.02,1.93-4.74,1.67-1.15,1.84-3.29,2.21-5.21,1.53-1.48,2.03-3.24,3.84-4.52,2.22-1.59,4.23-2.18,6.93-2.54,2.56-.34,3.6-1.19,5.43-3,2.26-2.23,5.32-4.55,6.18-7.77.44-1.63-.73-2.65-.34-4.02ZM27.54,65.9c-4.28.29-7.3-2.68-9.79-5.69-1.66-4.46-.15-9.3.24-13.84.39-4.46-.76-8.73-4.02-11.96-1.02-1.02-1.64-1.58-3.11-1.58-.91,0-2.2.38-2.81-.45-.77-1.06-3.49-2.27-.64-3.07,2.48.49,5.12-.12,7.62-.05,1.41.04,2.25-.07,2.86,1.26.57,1.23,1.18,2.45,1.75,3.68,1.15,2.48.91,5.7,2.78,7.8.68.76,1.52,1.38,2.19,2.15.8.91,1.72.61,2.92.61-1.11,6.79-2.02,14.44,0,21.15ZM63.15,3c.43-1.9,3.32-1.91,4.3-.48,1.13,1.63-1.49,3.76-1.3,5.63-.96-.42-1.76-1.07-1.9-2.17.62.6,1.64-.68-.09-1.13-.48-.12-1.15-1.33-1-1.85-.29,1.01.52-2.28,0,0ZM63.42,5.44c-.14-.14.2-.35.28-.27.14.14-.2.35-.28.27ZM48.74,18.46c.74-1.59,2.32-2.43,3.83-3.15,1.21-.57,1.75-1.69,2.8-2.04,2.28-.75,4.42-3.85,7.18-2.25,2.36,1.37,6.14.87,8.85.9,1.91.02,6.9,1.59,7.53,3.83-.24-.85.67.33,0,0,.68.34.77,1.27,1.63,1.36-.9.87-5.23.47-6.49.58-2.78.24-5.58.15-8.36.39-5.6.48-11.37,1.47-16.97.39ZM37.66,69.32c-.12-.12.83-2.27,1.22-2.57.01-.02.02-.03.03-.05-.17-.04.02-.3.05,0-.02,0-.05.02-.08.04-.25.43-1.06,2.73-1.22,2.57ZM38.68,79.45c-.14-.14.2-.35.27-.27.14.14-.2.34-.27.27ZM39.23,80.27c-.08-.72.57-.7,1.09-.81-.23.4-.4.86-1.09.81ZM43.3,76.2c.05,1.2-1.07.08,0,0-.03-.33.4-.17,0,0ZM73.85,84.45c.09-.14.21-.21.36-.21-.72-.27.62-.53.36.1.29-.7,1.75-.24,2.17-.81.7.63-2.83,1.2-2.89.92ZM97.79,67.04c-1.19,2.26-2.34,4.33-4.07,6.26-1.33,1.49-3.46,2.29-4.95,3.78-.81.81-1.61,1.65-2.51,2.37-.89.12-.21-1.48-1.38-.49-1.33,1.11-2.23,1.62-4.06,1.85.38-1.17,1.72-2.3,1.44-3.63-.28-1.39-1.44-.5-2.05.04-1.17,1.03-2.51,4.09-4.29,3.86.57-1.37,1.23-2.52,1.09-4.07-1.32.37-3.23,3.17-4.04,3.25-.02.05-.03.06-.03,0,.01,0,.02,0,.03,0,.1-.3.41-2.22.51-2.7-.53.15-2.86,1.65-3.39,2.33-.08.15-.12.25-.09.29-.05-.05-.01-.16.09-.29.43-.79,2.11-2.87.61-2.47-1.87.5-2.91,3.33-5.11,3.39.05-.15,1.42-2.77.65-2.66-1.5.21-3.35,3.25-4.57,2.78-1.16-.45-1.85-.46-2.06.96-1.33-.1-2.53.29-3.81.54,1.03-1.71,2.41-.17,3.54-1.36-.25-.99-2.53-1.63-3.26-1.63.65-1.15,1.46-2.16,1.63-3.52-2.38.78-3.68,3.16-5.98,4.07-.42-1.19.42-2.16,1.13-3,.78-.93.6-1.39.88-2.5.86-3.51-3.26-.42-3.9,1.17-.86,0,.09-.98-1.14-.29-.53.29-.93.75-1.29,1.22-.73.96-1.41,1.98-2.73,2.06.45-2.29,2.35-3.53,3.65-5.31.31-.43,1.6-2.12.49-2.29-.8-.12-1.41.71-2.24.55.7-1.34,1.62-2.54,1.9-4.07-.98.33-5.44,4.99-5.1,5.32-.81-.8,2.68-4.98,3.2-5.86-1.51.27-2.56,1.25-3.53,2.36-.97,1.1-2.48,1.47-3.27,2.79-.66-.1,1.23-3.57,1.4-3.85,1.5-2.51,2.73-5.19,4.04-7.81-.7-.78-3.33,2.84-3.54,3.25-.74-.04-.23-1.16-1.44-.76-.5.16-.71.65-1,1.04-.74-.44.93-3.25-.55-4.34-1.72.29-2.11,2.04-2.99,3.25-.43-.06.87-3.6.99-4.05.57-2.1,1.37-3.58-1.07-4.16-.87-.21,1.29-4.02,1.4-4.97.24-2.02-1.92-1.83-2.26-1.22.32-1.09,2.21-6.89.06-5.36-.86.61-1.97,3.17-2.12,3.24-.4.17.09-1.65,0,0,.06-1.08.79-1.94.95-2.99.08-.51-.05-.96-.41-1.35.2-.64.41-1.28.65-1.91.3-.79,3.19-4.95,1.8-5.13,1.6-1.88,3.49-3.48,5.06-5.39,1.48-1.81,3.7-1.96,5.78-2.78,3.84-1.49,8.72-.46,12.9-.79,4.08-.33,7.88-2.05,11.85-2.28,4.8-.28,9.61-.54,14.42-.42-.29,1.07-.81.73.55,1.69,1.2.84,2.48,1.3,3.47,2.39.99,1.1,1.98,2.21,3.05,3.24,0,1.39.36,1.33,1.19,2.34,1.15,1.39.66,1.5.44,3.09.26.96,1.14,1.4,1.91,1.9.52,2.26,1.24,4.48,1.63,6.78.32-.29.41-.65.27-1.08,1.19,1.55.62,3.98,1.1,5.69.6,2.19.79,4.49.84,6.76.08,3.76-.6,7.61-2.36,10.93ZM102.57,54.78c.05-.31.27-.15.27,0-.05.31-.27.15-.27,0ZM102.3,48.01c-.78-.66-.64-2.84-1.01-3.74-.74-1.8-1.21-3.86-1.71-5.75,3.16.12,5.53.12,7.34-2.71,1.8-.61,4.39-3.58,6.37-2.83,2.09.8,1.88,4.15.74,5.57-1.53,1.91-3.54,3.57-5.2,5.39-2.42.92-4.66,2.28-6.52,4.07ZM105.02,52.61v-1.36c.54.08.55.74,1.09.82-.26.38-.62.56-1.09.54ZM122.36,29.23c-.23.18-.77-.47-1.03-.47-.44.69.44,2.01.55,2.71.06,1.35.03,2.71-.15,4.05-.26,1.95-.83,3.85-1.74,5.6-.47.9-1.02,1.75-1.65,2.55.04.76-.14,1.45-.44,2.14-.45,1.03-.25,1.93-1.46,1.93-.85,0-1.49,0-1.36,1.09-.6.07-1.11-.73-1.48.15-.09.42-.23.82-.43,1.2-.87-.49-1.6-.17-2.18.54-.56-.08-1.12-.05-1.67.1-1.48.33-2.5-.13-3.92-.35-.08-.01-1.5.22-.93-.02-.4.16,1.24-1.65,0,0,1.9-2.52,4.96-3.64,7.25-5.73,1.25-1.14,2.4-2.37,3.52-3.63.32-.36,2.14-3.09,2.27-3.1.18-1.81-.3-6.93-2.87-6.24-3.15.84-6.45,1.47-9.36,2.99-1.93-.13-6.89.58-7.73-1.06-.64-1.25-1.49-1.77.42-1.63.8.06,1.85-.53,2.53-.87,1.52-.76,2.9-1.41,4.37-2.35,1.36-.88,2.48-.74,4.07-.96,1.41-.19,2.72-.71,4.03-1.24,1.46-.59,3.27-.3,4.83-.3-.13-.38-.4-.56-.82-.54,1.92-1.41,6.83,2.29,5.38,3.45ZM38.9,66.7s.03,0,.05,0c0-.05-.02-.04-.05,0ZM70.76,2.19c.06.12.09.25.12.38.11.2.19.27-.12-.38ZM118.07,26.32c-.35,1.7,1.82.9,2.99,1.08-.04-1.32-1.65-1.07-2.99-1.08ZM82.45,34.45c1.18-.17.85-1.53,0,0h0ZM86.6,32.36c.1.29.14.1-.07-1.43.07.46.09.95.07,1.43ZM86.46,30.8c-1-1.82-3.92-4.18-5.95-2.51-2.24,1.86-.56,4.57,0,6.59.56,1.99,2.68,2.25,4.42,1.03,1.17-.82,1.61-2.19,1.67-3.56-.16-.44-.45-2.03-.15-1.56ZM82.45,34.45c.46-.82-1.12-6.3,1.54-3.57,1.48,1.52.21,3.32-1.54,3.57ZM83.03,40.34c-2.68-1.02-4.87-.35-6.49,2.02-1.19,1.74-.16,6.85,1.69,7.69,4.99,2.29,8.36-5.67,5.35-9.3.26.37-.99-.52-.55-.42ZM78.92,47.74c.4-2.13-.36-5.42,2.72-4.88,1.22,2.28.08,5.02-2.72,4.88ZM83.27,40.42c.11.11.21.22.31.33-.05-.07-.14-.17-.31-.33ZM83.03,40.34c.08.03.16.05.24.08-.11-.05-.19-.07-.24-.08ZM48.2,49.09c.07.07.41-.13.27-.27-.07-.08-.41.13-.27.27ZM63.7,52.61c-.41-.12-1.85.88-1.91.54h.28c-.09,0-.08-.74,0,0-.08-.72,1.13-1.55.27-2.17-1.42,1.06-3.07,2.01-4.57,2.94-1.53.95-1.69,1.46-1.14,3.02,1.64-.08,2.48.37,3.91-.57,1.41-.93,2.57-2.17,3.16-3.77ZM63.86,55.04c.17-.12.3-.21.38-.26-.19.12-.3.2-.38.26ZM64.32,54.87c.03.2-.84.49-.46.18-1.21.87-4.39,3.37-3.43,3.81.46-.39,4.19-3.38,3.89-3.99ZM65.87,56.95c.46-.1-1.03,1.05,0,0-1.04,1.05-2.42,1.81-2.99,3.25,1.05-.2,1.87-.82,2.57-1.6.14-.15,1.76-1.95.42-1.66ZM92.24,68.61c.39-.17-.03-.33,0,0h0ZM92.24,68.61c-.4.17.03.33,0,0h0ZM91.69,69.42c.08.07.41-.13.27-.27-.08-.08-.41.13-.27.27ZM91.42,69.96c.07.08.42-.13.27-.27-.08-.07-.41.13-.27.27ZM85.71,71.32c0,.15.22.31.28,0,0-.15-.22-.31-.28,0ZM60.7,78.37c-.09.37-.39.52-.27,1.08.76.44.75-1.17.27-1.08Z"/>
    </g>
  </g>
</svg>