<?xml version="1.0" encoding="UTF-8"?>
<svg id="Layer_2" data-name="Layer 2" xmlns="http://www.w3.org/2000/svg" viewBox="0 0 118.44 102.77">
  <defs>
    <style>
      .cls-1 {
        fill-rule: evenodd;
      }
    </style>
  </defs>
  <g id="food_icons" data-name="food icons">
    <g id="tentacle">
      <path class="cls-1" d="M102.38,66.62c-2.52,1.84,1.76-.37,0,0h0ZM62.74,95.32c.34-.13-.47-1.33,0,0h0ZM41.49,67.07c.04.07.09.13.14.19.04-.24-.08-.25-.14-.19ZM117.33,67.81c-.98-2.02-2.85-3.21-4.61-4.38-.54-.36-2.71-1.98-2.99-2.55-3.8-.93-7.93-1.6-11.72-.8-8.83,1.85-18.98,1.41-24.53-6.66-4.79-6.96-6.22-15.68-6.34-23.96-.09-5.59-.94-10.37-2.48-15.76-2.58-4.34-6.08-6.68-10.52-9.02-4.8-2.53-11.04-3.38-16.34-4.69-5.56,0-10.81.81-16.27,1.95-5.03,1.05-9.3,5.37-13.01,8.65-2.92,2.58-6.92,6.54-7.69,10.49-.99,5.02-.99,10.3-.54,15.38.36,4.08,3.14,7.9,5.09,11.37,1.9,3.39,4.24,6.52,6.53,9.54-.16,1.03,2.84.96,3.29.99.83.06,1.63.11,2.46-.04.57-.3.83-.95,1.45-1.19,1.08-.42,2.29-2.74,2.41-4.21.18-2.02-.95-3.04-2.12-4.47-2.22-2.7-4.42-5.38-6.16-8.46-5.15-9.15,6.76-16.32,14.76-12.8,9.2,4.05,8.76,15.54,8.54,24.13-.07,2.86-.5,5.71-.11,8.56.33,2.37.92,4.69,1.23,7.06.28,2.13,1.75,4.21,2.57,6.25.72,1.79.14,3.05.36,4.73-.01-.57.76,1.24.07.47,1.19,1.33,2.45,3.09,4.22,3.6,2.19.63,3.23,2.58,4.88,4.04,1.53,1.36,3.32,2.66,5.01,3.83,1.59,1.11,4.49,1.53,4.93,3.29.46,1.82,1.66,3.21,3.2,4.22,1.97,1.29,5.03.93,7.22.4,1.51-.36,3.75.77,5.39,1.12,3.78.81,7.44,2.36,11.31,2.75,1.84.18,3.04.65,4.84,1.02,2.05.42,4.48-.76,6.21-1.73,4.1-2.3,8.44-3.58,11.83-6.91,3.8-7.21,11.6-17.95,7.6-26.22ZM40.04,50.68c-.12-.05-.1-.08.32,0,.18.07.28.12.34.15,1.19.55,4.25,2.2,2.52,2.86-.86.33-2.94-.13-3.18,1.13-.21-.03-1.35-1.94-1.48-2.24-.38-.81.62-1.82,1.49-1.91ZM40.04,58.34c-.33-.02-.33-.1-.25-.14-.3-.38.04-1.45-.07-1.78,1.44.85.51.92.32,1.91ZM41.64,67.26c-.2-.05-.2-.15-.14-.19-.21-.32-.28-.67-.18-1.08,1.16,0,.25.25.96.32-.24.3-.45.62-.64.96ZM49.07,78.5c-1.1.6-1.51.61-2.74.02-1.42-.68-.42-.85-.67-2.18-.43-2.22.72-4.01,3.22-4.11.81-.03,2.26.63,2.66,1.42-.04-.09.49.94,0,0,1.34,2.55-.65,3.86-2.47,4.86ZM67.81,95.37c-1.07.37-2.23.69-3.38.56.17.02-1.58-.65-1.7-.61-.51-1.44-1.41-4.49.96-4.73,1.09-.11.47.29,1.19-.78.24-.38.59-.56,1.06-.54-.1-.52-.84-.65-.89-1.14-.09-.91,1.59-.85,2.05-.71,1.87.56,1.35,2.55,1.99,4.13.69,1.7.54,3.2-1.27,3.84ZM91.19,76.7c-1.12,2.34-2.18,5.31-2.91,8.06-.53,2.01-.29,4.22-.29,6.3,0,.88.67,4.25,0,4.89-1.08-.26.24-3.05-2.25-1.68-1.25.69-1.44,2.07-3.18,1.36.23-1.78,1.93-2.86,1.99-4.71.07-2.16-2.2-2.55-3.48-1-1.13,1.38-1.28-1.97-3.13.3-.51.63-2.12,3.91-2.41,3.81-1.56-.71.79-2.68-.32-3.82-1.7-.38-1.54,1.36-2.88,1.59-.58-2.07-2.43-4.73-3.84-5.74-3.97-2.84-5.68,2.8-8.63,1.91.56-2.51,3.06-4.57,2.24-7.33-1.42.19-2.14,1.3-2.56,2.55-.57-.49-.26-1.53-.96-1.91-.68.11-1.39.28-1.98-.16-1.16-.87-2.18.69-3.13-.48-1.15-.16-1.18,1.67-2.09,1.52-1.68-.27.35-1.45.77-1.72,5.28-3.38-1.54-14.18-7.95-9.68-1.01-1.03.09-5.15.44-6.15.75-2.15-2.91-3.72-3.96-1.5-.52-.27,1.92-3.69,1.92-4.46,0-1.67,1.39-.76,2.66-1.53.66-.4,1.26-1,1.7-1.62,1.28-1.85.98-4.19-.66-5.68-.87-.79-1.96-1.3-3.06-1.69-.88-.2-1.38.45-2.24.32-.01.04,1.74-1.92,1.6-1.91-.36-.99-.63-1.47-.32-2.55h-.96c.04.39-.46.2,0,0-.46.2.34-.89,0,0,.38-.99,1.51-2.09.64-3.19-.8-.7-1.76.57-2.56.64.1-.82-.96-3.44-.17-4.02-.31.23,3.19,1.48,3.93,1.25,1.03-.32,2-.88,2.52-1.86.06-.12.82-2.21.21-2.05-.33.08-.3,1-.73.95h-2.35c-1.38,0-1.3-1.04-2.45-.96.15-1.12,1.07-2.08,2.15-2.37.22-.06,2.06.18,1.92-.13-1.38-2.86-5.74-.6-5.99,1.86-1.16-1.65-1.52-3.74-2.84-5.3-1.11-1.31-2.65-2.15-3.99-3.19-1-.77-1.13-1.28-2.39-1.44-.52-.05-1-.21-1.44-.47-.72-.47-.48-1.39-1.41-.79-.39.31-.84.43-1.34.36.17-.94,1.04-2.1,0-2.87-1.26-.02-2.09.66-2.24,1.91-.81-.95,1.46-5.52-1.4-3.88-1.66.95-1.15,3.93-1.16,5.48-6.01,1.67-10.3,5.98-11.83,12.11-.83,4.73,4.52,11.42,7.67,14.47,1.54,1.49,4.07,3.05,3.51,5.61-.93.99-4.55.88-4.47-.96-1.78,1.29-2.41-1.21-3.2-2.39-.58-.87-1.16-1.75-1.59-2.71.53-.27.98-.63,1.36-1.09,2.33-2.96-2.74-1.19-2.96-1.46.24-1.38,2.21-1.14,1.92-2.87,0-1.66-2.52-.05-2.88.64-1.54-1.21-1.23-2.8-.71-4.3.69-1.97-1.16-.52-1.84-.8-.75-1.91,1.19-2.81,1.6-4.46-.13-1.14-2.11-1.28-2.56-.32-1.3-1.02-1.44-6.2-1.28-7.65,1.65,1.19,4.93-1.6,5.44-3.19-1.97-.68-4.39.66-5.11,2.55-1.28-.76.5-5.44,1.12-6.47,1.37-2.29,3.27-4.19,5.27-5.96,4.96-4.14,10.41-8.98,17.16-9.25,3.27-.13,6.39-1.19,9.69-.95,3.24.81,6.49,1.57,9.69,2.52,3.26.96,5.98,1.88,8.96,3.55,2.22,1.25,3.29,3.46,5.43,4.71,1.74,1.01,1.77,7.53,2.18,9.8.59,3.24.79,6.49,1.52,9.69,1.56,6.81,1.92,14.66,6.47,20.21,1.23,1.5,1.91,3.44,3.7,4.08,1.45.52,2.8,1.29,4.08,2.15,1.39.94,2.31,1.9,4.01,2.13,1.71.24,3.42.45,5.11.77,3.91-.63,7.86-1.09,11.83-1.27,1,.22,1.11,1.04,1.92.86.79-.18,1.95-.54,1.91.73-3.87.24-6.19,2.75-8.95,5.1-.64,1.72-2.13,2.95-2.67,4.72-.21.7-.22,1.86-.53,2.49ZM116.39,77.96c-.36,4-3.73,6.16-5.59,9.51-1.87,3.38-4.53,5.74-7.79,7.91-1.09.72-8.14,2.64-8.95,1.22-3.04-.07-1.66-6.63-1.56-8.24.15-2.36.66-4.68.6-7.06.55-1.98,1.42-3.85,1.77-5.89.66-3.83,4.45-6.55,7.5-8.78,4.38-.91,7.33-2.66,11.58.05,3.03,1.93,2.71,8.16,2.43,11.28ZM39.79,58.2c.06.07.13.13.25.14.04-.19-.16-.19-.25-.14ZM40.7,50.84c-.14-.07-.26-.12-.34-.15-.1-.02-.21-.02-.32,0,.22.1.9.29.66.16ZM40.68,78.42c-.04-.16-.05-.31-.07-.47,0,.09.02.24.07.47ZM31.54,15.82c-4.98.37-1.54,6.88,1.88,7.41-.14-.08.6-.22.91-.23,2.75-1.57.57-7.43-2.79-7.17ZM33.64,20.29c-1.24.58-1.3-.72-2.23-.84-.37-2.09-.1-1.85.08-1.23.43-1.27,1.87-1.78,2.84-.19.66,1.07.35,1.77-.69,2.25ZM31.49,18.22c-.12.36-.16.78-.08,1.23.34.04.24-.72.08-1.23ZM34.34,22.99c-.2.12-.43.21-.69.28.9-.23.93-.29.69-.28ZM33.65,23.27c-.08,0-.15-.03-.23-.04.03.02.1.03.23.04ZM55.7,24.87c-1.54.06-2.11,1.09-2.24,2.55,1.06.58,2.45-.84,2.24-2.55ZM55.06,31.24c1.41-.43,2.02-1.64,2.18-2.97-.1.27-.26-.86.06-.86-1.69,0-3.45,2.03-2.24,3.82ZM57.3,27.42c0,.29-.02.58-.06.86.03-.09.06-.35.06-.86ZM55.26,35.03c-.5,1.4,0,.73.45,1.63,1.67-.1,2.22-1.45,2.23-2.9-.08,1.19-1.13-.46-.3-.37-1.09-.23-2.02.64-2.38,1.64ZM53.14,57.88c0-.06,0-.11,0-.18-.02.1-.02.15,0,.18ZM53.14,57.7c.21-.37.46-.67.74-.95.38-.78.53-1.3-.74.95ZM63.29,60.23c.11-4.73-6.42-6.55-9.41-3.49-.28.57-.69,1.28-.74,1.14-.03.52.23.79.53,1.22.4.6.04,1.58.08,2.23.1,1.96.34,3.38,2.36,4.09,3.05,1.07,7.1-1.96,7.18-5.19ZM60.78,61.36c-2.72,2.29-5.27-3.66-4.12-3.98-.25.07,1.7-.74,0,0,2.95-1.29,7.72.95,4.12,3.98ZM95.34,65.03c-.25.07-.63,0-.64.32.25-.07.63,0,.64-.32ZM113.24,69.18c-.22,1.71-.8-1.21,0,0-1.93-2.91-4.7-2.55-7.57-1.62-.97.31-1.96.56-2.98.66-.31.58-.69,1.11-1.14,1.6-1.09,1.2-2.44,2.12-3.66,3.18.13.42-1.2,2.4-1.36,2.91-.42,1.34-.85,1.58-.71,3.02.07.77.09,1.54.05,2.32-.14,3.81-.67,7.21-.08,10.92.64,4.04,4.19-.27,6.35-1.07,3.29-1.23,4.18-7.63,7.65-8.59,1.49-.41,1.67-1.2,2.03-2.78.35-1.52.67-1.42,1.64-2.35.34-.33.39-3.75.4-4.38-.45-1.28-.82-2.44-.64-3.83ZM96.3,92.13c.05-.37.58-.27.96-.32-.05.37-.59.27-.96.32ZM97.58,92.13c-.17-.17.23-.41.32-.32.17.17-.23.41-.32.32ZM109.41,80.65c-.12.17-.2.27-.27.35-1.27,1.71-2.77,3.24-3.88,5.07-1.53-.77-1.54-1.39-3.57-.01-1.45.98-2.49,2.41-3.46,3.84-1.01-1.05-.1-5.1.06-6.32.19-1.42.03-3.05.8-4.3.26-.42,2.47-2.83,1.73-3.07-.66-.21-.85,1.21-1.43,1.15-1.24-.13,1.33-5.35,1.4-5.95,1.57-1.85,3.98-2.52,6.33-2.61,2.38-.09,5.5,1.47,5.5,4.21s-2.25,5.23-3.2,7.65ZM109.14,81c.09-.12.18-.23.27-.35.84-2.15-.94,1.13-.27.35ZM69.54,72.08c-1.52-1.96-4.04-3-6.48-2.27-1.51,1.57-3.29,4.69-2.04,6.65.88,1.37,4.11,2.14,5.87,1.96,1.79-1.33,2.79-3.06,2.88-5.21-.12,1.05-.93-1.85-.23-1.14ZM63.38,75.23c-.15-1.03-.05-1.23.07-1.1.45-1.4,2.23-1.83,3.44-.49.48,3.18-1.87,2.09-3.52,1.59ZM69.54,72.08c.07.1.16.18.23.28-.09-.13-.16-.22-.23-.28ZM63.45,74.13c-.1.32-.13.69-.07,1.1.56.17.28-.89.07-1.1ZM69.77,73.21c.02-.17.02-.44,0-.85.02.29.02.57,0,.85ZM76.35,80.36c.5-.62-.01,1.67-.25,2.09.13,1.93.96,3.74,2.73,4.81,2.49,1.52,6.19,1.83,7.95-.81,4.07-6.1-6.93-11.41-10.42-6.09ZM84.91,83.89c-.5,1.86-2.13,2.57-3.95,2.5-1.69-.3-3.14-2.67-1.92-4.14-.22-.96-1.32-1.12-.07-1.99.59-.41,1.19-.61,1.88-.59.04-.02.16-.02.43.03,1.92.96,4.32,1.65,3.63,4.19ZM76.16,80.65c-.25,1.7-.2,2.03-.07,1.8-.04-.59-.02-1.2.07-1.8ZM81.28,79.69c-.15-.02-.29-.02-.43-.03-.16.08,1.6.61.43.03Z"/>
    </g>
  </g>
</svg>