<?xml version="1.0" encoding="UTF-8"?>
<svg id="Layer_2" data-name="Layer 2" xmlns="http://www.w3.org/2000/svg" viewBox="0 0 122 73">
  <defs>
    <style>
      .cls-1 {
        fill-rule: evenodd;
      }
    </style>
  </defs>
  <g id="food_icons" data-name="food icons">
    <g id="tiramisu">
      <path class="cls-1" d="M98.63,33.67c.24-1.18-.38-1.5-.31-2.51.4-5.24.4-10.78,0-16.02-4.94-.94-8.81-2.95-12.92-4.71-.25-.07-.62,0-.63-.32-2.54.23-4.11-.51-6.62-.31-.39-.66-1.9-.2-2.21-.94-1.25.2-1.26-.83-2.52-.63-1.55-1.29-3.47-2.2-5.36-3.14-1.87-1.07-4.04-1.83-5.99-2.83-1.02.18-1.47-.21-2.2-.31-2.32.11-4.33-.08-6.3-.32-1.39-.09-.96-1.97-2.84-1.57-.37.15-.71.33-.94.63-.32,0-.38.25-.63.31-5.32,1.39-10.71,4.04-15.75,4.71-1.81.92-3.72,1.74-5.99,2.2-2.98-.89-4.54,1.31-7.24.63-1.35,1.07-3.08,1.75-4.1,3.14-1.09,1.32-3.29,1.54-3.78,3.46-.32,1.47,1.26,1.04.94,2.51-.47.58-.61,1.49-.63,2.51-.07,4.01.23,8.4-.32,11.94-.73-.53-1.34-1.17-2.52-1.26.23.85-1.48-.23-1.26.63-.79-.05-.98.5-1.58.63-.98.38-1.37,1.36-2.52,1.57-1.21,1.51-2.73,2.73-3.78,4.4-.09,1.49-.73,2.42-.63,4.09,1.2,6.56,4.33,11.19,12.92,10.37,1.94,1.42,1.08,5.63,1.26,8.8-.01,1.03-.53,1.56-.31,2.83.29,1.07.42,2.3.63,3.46.46.27,1,.47.95,1.26,1.89,1.57,4.15,2.77,7.24,3.14,2.42.01,4.92.1,6.93-.31,1.37,0,1.76.97,3.46.63,3.29-.6,5.8-1.97,8.51-3.14.65.5.62,1.69,1.89,1.57,1.34-.65,3.26-.72,4.73-1.26,1.49.78,2.85-.22,4.72,0,1.97.2,2.37.73,4.41.31,3.04.74,6.01,1.55,8.51,2.83,2.28.04,4.1.52,6.62.31,4.02-.81,7.15-2.51,10.71-3.77,1.39-1.03,3.47-1.36,4.73-2.51,1.8-.61,2.86-1.96,4.41-2.83.66-1.23,1.69-2.09,2.52-3.14.44-2.81,2.37-4.13,2.2-7.54.48-.88,1.5-1.23,1.26-2.83v-1.88c-.29-1.18-1.29-1.65-1.58-2.83-.68-.79-1.84-1.1-2.52-1.89,1.28-.19.77-2.16,1.26-3.14.58-.47.79-1.31,1.58-1.57.47-.68,1.58-.73,1.58-1.89-.26-.89.44-.81.31-1.57-.02-.43.15-.69.32-.94-.57.04-.74-.31-.63-.94ZM5.37,41.53c-.17-.16.23-.4.32-.32.16.16-.23.4-.32.32ZM9.15,45.93c-.15-.98.85-.83.94-1.57.66.28-.1,1.75-.94,1.57ZM8.52,43.73c-.02.19-.05.37-.32.31-.02.19-.04.37-.31.32.03.38-.46.19,0,0,.02-.19.05-.37.31-.32.02-.19.05-.37.32-.31.54-1.55,1.82-2.38,2.52-3.77.96,1.8-1.41,2.99-2.52,3.77ZM11.67,46.56c-.16-.16.23-.4.32-.31.16.16-.22.4-.32.31ZM12.3,37.13c-1.58.42-1.23-1.08-2.21-1.26-.62,0-.4.86-1.25.63-.02.19-.05.37-.32.31.03.38-.46.19,0,0,.02-.19.04-.37.32-.31.28-.56.75-.92.94-1.57,1.2-.06,2.07-.45,2.21-1.57.72.64.11,2.61.31,3.77ZM13.56,44.67c-.74,1.01-1.27-1.1,0,0h0ZM13.88,43.73c-1.31.3-.07-.94,0,0,.38-.03.19.46,0,0ZM14.19,46.87c.51-.09.54.29.95.31.12.61-1.44.46-.95-.31ZM45.38,10.42c.09-.85,1.32-.56,1.57-1.26,1.05.21,1.54.98,2.52,1.26-1.46.8-4.05,1.95-5.67,1.57-.11-1.16.78-1.31,1.58-1.57ZM50.74,17.34c-1.64-.35-3.02-.96-3.78-2.2.21-.54.73-.2.63.31.25.27.86.19.95.63,1.51-.17,2.46-.9,3.78-1.26-.48.89-1.39,1.34-1.58,2.51ZM51.37,20.79c-.52.62-1.24,2.07-2.21,1.26.04-1.12,1.05-1.26,2.21-1.26ZM41.28,12.94c.57-.04.66.38,1.26.31.1.56-1.77.56-1.26-.31ZM21.75,11.68c-.22.62-.84.84-1.58.94.21-.62.84-.84,1.58-.94ZM18.92,18.91c-.13.39-.4.64-.95.63-.02.19-.04.37-.31.32.03.38-.46.19,0,0,.02-.19.05-.37.31-.32.13-.39.41-.64.95-.63.37-.46.37-.79,0-1.26-.45-.94-1.64.83-1.58-.63.36-.05.34-.5.32-.94-.19-.02-.38-.05-.32-.31-.38.03-.2-.46,0,0,.19.02.37.05.32.31,2.29,1.38,4.63,2.71,7.24,3.77,2.85.62,4.84,2.09,7.56,2.83,2.45,1.49,5.11,3.16,7.24,4.4.65.37,1.07.67,1.58.94,1.45.78,3.06,1.85,5.04,1.89.38.67,1.37.73,1.9,1.26,3.88,0,7.22.54,10.39,1.26,1,.05,1.9.01,2.2-.63.62.41.3,1.28.31,1.88.07,2.37-.05,5.07,0,7.23-3.36.1-7.3-.37-9.76.63-2.57-.9-4.75-2.18-6.94-3.46-2.94-.32-4.91-1.59-8.19-1.57-.58-.68-1.69-.83-2.2-1.57-2.9-.57-4.41-2.51-7.57-2.83-.97-1.23-1.69-2.72-3.46-3.14.29-1.08.78-1.95.95-3.14-.48-.95-1.38.26-2.2,0,.09-.74.62-1.3,0-1.89-2.64-.33-2.97,1.65-4.73,2.2.77-2.69,3.25-3.66,4.41-5.97.02-1.28-1.16-1.35-2.52-1.26ZM56.41,18.59c.69-.24,1.71-.18,1.89-.94.97-.23.6.86,1.58.63,1.14-.33,1.95-.98,2.52-1.88.41.11.5.55.95.63.23,2.21-2.55,1.43-3.78,2.2h-4.72c-.05-.58-1.07-.19-1.26-.63.08-.65.84-.63,1.26-.94.89-.05.73.94,1.58.94ZM56.09,14.51c-.04-.99.81-1.08,1.57-1.26-.23.71-.95.94-1.57,1.26.04.38-.46.19,0,0ZM61.45,22.68c-.08.45-.53.53-.63.94-1.28.4-1.83,1.53-3.15,1.89-.03.81-1.22.45-1.26,1.26-.63-.07-1.35,1.33-1.58.63-.24-1.18.82-1.06,1.26-1.57.64-.3,1.25-.64,1.89-.94,1.25-.64,2.07-1.7,3.47-2.2-.04-.38.45-.19,0,0ZM53.57,22.36c.03.38-.46.19,0,0,.06-.94,1.3.3,0,0ZM16.71,30.85c1.51-.26,1.13,1.38,2.83.94-.13.39-.4.64-.94.63-.1,1.15-1.61.91-1.57,2.2-.73-.64-.12-2.61-.31-3.77ZM19.54,49.07c.08-1.13-.95-1.15-.94-2.2,1.09.17,1.67.84,2.83.94-.45.59-.7,1.39-1.89,1.26ZM23.96,52.84c-1-.26-1.6-.92-2.2-1.57.2-1.17.88-1.84,1.26-2.83,1.24.54,2.62.95,3.78,1.57-.39,1.5-1.76,2.02-2.84,2.83ZM28.05,53.78c.26-1.32.67-2.48,2.21-2.51-.44,1.13-.9,2.24-2.21,2.51ZM36.56,64.78c-.82.19-1.14-.13-.95-.94.3.33,1.16.1.95.94ZM35.61,63.21c.06-.36.31-.17.31,0-.06.36-.31.17-.31,0ZM36.56,61.64c.16.16-.23.4-.32.31-.16-.16.23-.4.32-.31ZM37.19,60.38c-.07.24,0,.62-.31.63.03.38-.46.19,0,0,.07-.24,0-.62.31-.63v-1.57c-2.2-.31-1.53,2.25-3.15,2.51.02-.54-.24-.81-.63-.94.29-.86.97-1.34,1.26-2.2,1.34.03,2.2.53,3.78.32-.2.85-.63,1.47-1.26,1.89ZM39.39,63.21c-.6.13-.79.68-1.58.63.54-.84,1.72-2.67,3.15-1.57.12.95-1.03.65-1.58.94ZM40.66,60.38c-.63-1.04-.5-.07-1.58,0,.03.38-.45.19,0,0,.29-.66.49-1.4.95-1.89.76.18,1.62.27,1.58,1.26-.38.15-.72.33-.95.63ZM43.49,55.98h-1.26c-1,.15-1.11-.57-2.2-.31-1-.68-2.88-.47-4.1-.94-1.73.05-3.39.03-4.73-.32,0-1.37,1.01-1.72,1.26-2.83.94-.02,2.58.46,3.46.94,1.18-.02,2.18.13,2.84.63,1.18-.02,2.18.13,2.84.63,1.03.12,2.04.27,2.2,1.26-.37.05-.27.57-.31.94ZM45.38,58.49c.27-.99,1.19-1.33,1.26-2.51.56-.04.67.39,1.26.32-.76.8-.86,2.28-2.52,2.2ZM47.27,61.64c.08-.4.63-.32.63,0-.28.19-.56.38-.63,0ZM47.9,60.69c-.1-.23,1.05-.52,1.26-.31.14.13-.84.9-1.26.31ZM48.85,58.81c.11-.73.38-1.3.63-1.89.93.33,2.09.43,2.84.94,1.15-.21,1.2.68,2.2.63-.34.62-2.61.54-2.2-.63-1.82-.34-1.5,1.44-3.47.94ZM51.37,61.32c.09-1.79,3.29-.49,4.41-1.26-.39,1.5-2.56,1.22-4.41,1.26ZM60.5,53.78c-.37-.57-1.64-.25-2.2-.63-1.71-.29-3.46-.53-5.04-.94h-4.1c-6-2.71-12.83-4.59-19.85-6.29-2.51-1.79-5.3-3.31-7.88-5.03-.36.05-.56-.07-.63-.31-1.3.25-1.62-.48-2.84-.31-.29-.18-.47-.87-.63-.32-.25.17-.51.33-.95.32v-3.77c2.78-.05,4.17-1.5,5.36-3.14.26-.06.29.12.31.31.83.95,1.85,1.71,2.83,2.51,3.91,1.13,7.15,2.93,10.4,4.71,6.07.01,9.53,2.64,13.55,4.71,1.81-.08,4.02.23,5.36-.32h3.78c1.06-.2,2.92.41,3.47-.31,1.1.89.72,3.26,1.25,4.71.39,1.76-.95,3.29.32,4.08-.58.96-1.5-.36-2.52,0ZM61.45,64.46c.06-.36.31-.17.31,0-.06.36-.32.17-.31,0ZM63.03,59.12v.63c-.51.09-.55-.3-.95-.32-.1-.38.91-1.08.95-.31ZM65.54,66.66c.13-.66-.22-.83-.31-1.26-1.15-.21-1.21.68-2.2.63.15-1.31.92-2.01,1.89-2.51.45.39.47,1.2.94,1.57h1.89c-.47.78-1.08,1.44-2.2,1.57ZM63.34,60.69c0-.31.38-.24.63-.31,0,.3-.38.24-.63.31ZM64.92,59.12c.13-.38.4-.64.94-.63-.27-1,.5-.97.63-1.57.59-.04,1.05-.21,1.25-.63.53.42,1.06.83,2.21.63-1.3,1.11-3.26,1.57-5.04,2.2ZM71.53,66.66c-.96-.31.14-1.06.32-1.26.97.31-.36.84-.32,1.26ZM74.36,64.15c.25-1.22.54-2.39,1.26-3.14.87,1.1.1,3.23-1.26,3.14ZM90.12,58.18v.32c.96-.23,1.15.32,1.89.31-.75,1.55-2.04,2.57-3.15,3.77-.55-.28-.52-1.16-1.26-1.26-2.92,1.06-4.72,3.26-8.82,3.14-.15-.37-.33-.71-.63-.94-.23-1.59.78-1.94,1.25-2.83-.97-.23-.6.86-1.57.63.36-1,.43-2.3,1.89-2.2.58.56-.14.92-.32,1.57,1.54-.56,2.7-1.5,4.1-2.2,1.82-1.22,2.76-3.32,4.09-5.03-1.12.14-1.38,1.14-2.21,1.57-1.04-.47.66-.77.31-1.57.56-.28.92-.76,1.58-.94-.08-.92.6-1.08.95-1.57.19-.66.66-1.02.94-1.57.55.02.98-.07,1.26-.31,1.16.17,2.3,1.01,2.53,1.57,1.07,2.68-1.56,6.44-2.84,7.54ZM76.89,55.98c1.77-1.48,3.99-2.52,5.35-4.4h1.26c.39,2.28-1.54,2.24-2.84,2.83-.99.79-2.17,1.4-3.78,1.57ZM89.49,46.87c.79-1,2.15-1.41,3.47-1.89-.17.25-.33.51-.31.94-1.19.17-1.71,1.02-3.15.94ZM95.16,33.99c-.51,1.48-1.8,2.18-2.84,3.14-.68,1.41-2.38,1.81-3.15,3.14-2.92.54-5.04,1.88-7.87,2.51-2.89,1.72-5.6,3.63-9.14,4.71-2.64,1.87-4.11,4.91-7.24,6.28,1.73-3.47-.46-7.45-.31-11.31,2.01.13,2.93-.84,4.41-1.26,1.57.1,2.89-.05,4.1-.31,1.1.16,2.05.47,3.46.31,1.69-.4,2.8-1.39,4.09-2.2,1.17-.93,2.33-1.87,3.15-3.14.97-.39,1.96-.77,2.52-1.57,1.42-.06,2.28-.65,3.15-1.26,1.95-.99,4.7-1.17,5.36-3.45.21-1.58-.84-1.88-1.58-2.51-2.38.24-4.01,1.23-5.67,2.2-1.97.65-3.73,1.51-5.36,2.51-1.99,1.67-3.64,3.7-5.98,5.03-2.49.22-4.88-.29-6.94,0-2.21.32-3.89,1.39-5.36,2.2-.71-.23-.12-1.76-.31-2.51v-2.83c.1-.73-.05-1.21-.31-1.57-.29-1.56.99-1.34.31-2.51-1.25-.74-1.52.31-2.52.63-.42-1.88-3.69-.92-5.35-1.57.54-.51,1.14-.95,2.21-.94.66-.5,1.28-1.02,2.2-1.26-.3.64-.64,1.24-.95,1.89,1.03-.12,1.39-.92,2.21-1.26.59-.66,1.81-.71,2.2-1.57,1.65-.76,2.91-1.92,4.09-3.14,1.43-.99,2.36-2.46,4.1-3.14,1.18-1.34,2.91-2.13,3.78-3.77-2.41-.31-3.36.84-5.04,1.26.14-1.19-1.64-.45-1.89-1.26-.94-1.59,1.95-1.73,1.58-3.77-.6-1.51-1.75.11-2.84,0-1.33-1.08-2.96-1.86-5.67-1.57-.44.01-.69-.15-.95-.31-.9.98-2.36-.14-2.83-.63-1.49-.12-1.44,1.29-3.15.94.45-.42.45-1.78,0-2.2-1.56-.29-2.14.38-2.84.94-1.22-.04-1.24-1.27-2.2-1.57.5-.47,1.51.21,2.2-.63,0-.83.17-1.85-.63-1.89,2.3-1.25,3.16,1.66,4.72,2.2-.07.24-.26.37-.63.31,1.69.94,3.45,1.8,5.35,2.52-1.12-2.03-2.96-3.32-4.73-4.71.44-.72,2.2-.12,3.15-.32.74.1,1.18.5,2.21.32.98.79,2.26,1.3,3.78,1.57,2.06,1.51,4.47,2.67,6.93,3.77,2.1,1.47,5.22,1.91,8.19,2.51,2.69-.06,5.2.05,7.25.63-2.12,1.65-5.06,2.49-7.56,3.77-2.27,1.62-4.08,3.69-6.93,4.71-3.44,1.81-7.87,2.63-8.51,7.23,3.12.77,4.7-2.61,7.87-2.83,2.64-1.14,5.39-2.17,7.25-4.09,1.32-.56,2.09-1.68,3.46-2.2,1.18-.71,2.85-.93,3.78-1.89,3-.89,4.87-2.9,8.19-3.46v19.17ZM55.46,7.28c-.66-.5-1.29-1.02-2.2-1.25.17.98,1.17,1.13,2.2,1.25ZM78.15,17.02c-1.92.07-2.24,1.75-3.79,2.2-.7,1.18-1.91,1.86-3.15,2.51.04.69,1.34.13,1.89.31,1.75-1.6,3.94-2.77,5.04-5.03ZM121.94,48.44c-.71-2.12-3.1-2.56-4.73-3.77h-4.41c-2.36,1.21-5.9,1.24-5.99,4.71.58,1.52,2.09,2.1,3.78,2.51,1.85.25,2.88,1.32,4.73,1.57,2.79.26,4.58-.46,5.99-1.57.29-1.07.88-1.84.63-3.46ZM115.01,50.64c-.13-.71-1.67,0-1.89-.63-.42-.32-1.17-.3-1.26-.94-.09-.72.08-1.18.63-1.26,1.81-.48,6.09-.89,5.98,1.57-.22,1.35-1.81,1.33-3.47,1.26ZM87.6,53.47c.46-.19-.03-.38,0,0h0ZM90.12,58.49c-.45.19.03.38,0,0h0Z"/>
    </g>
  </g>
</svg>