<?xml version="1.0" encoding="UTF-8"?>
<svg id="Layer_2" data-name="Layer 2" xmlns="http://www.w3.org/2000/svg" viewBox="0 0 92.57 101.91">
  <defs>
    <style>
      .cls-1 {
        fill-rule: evenodd;
      }
    </style>
  </defs>
  <g id="food_icons" data-name="food icons">
    <g id="toast">
      <path class="cls-1" d="M78.37,76.69s.07,0,.1,0c.03-.02.07-.03.11-.05-.02.02-.05.03-.07.05.1-.01.2-.05.27-.15-.14.05-.28.1-.42.15ZM89.83,14.3c-2.36-2.59-6.12-3.57-9.38-4.46-9.56-2.59-20.01-4.18-29.77-1.69-.22.06-.41.1-.54.13.18-.05.36-.09.54-.13.2-.05.4-.12.59-.19-.38.11-.79.23-1.26.36-.52-4.18-8.79-6.08-11.86-7.02C34.27.11,29.62-.47,25.5.46c-5.47,1.23-11.13,3.65-15.97,6.42-2.55,1.46-8.14,2.67-8.01,6.29.07,1.81-1.13,3.71-1.38,5.58-.32,2.4-.11,5.06.99,7.31,1.04,2.13,2.83,3.49,4.71,4.8,2.03,1.4,1.16,4.32,1.06,6.42-.59,12.82-.49,25.66.03,38.48.13,3.29.12,6.12-.46,9.36-.48,2.66-.32,4.42,1.26,6.61,2.45,3.41,3.62,5.69,7.96,6.97,8.91,2.62,19.87,4.02,29.07,2.71,5.75-.82,11.1-.46,16.86.03,4.78.41,8.05-.19,12.35-2.28,2.1-1.02,4.26-1.97,6.12-3.4.81-.62,1.55-1.32,2.19-2.1.46-.57.54-1.49,1.06-1.9,1.69-1.33,1.56-1.86,1.59-4.21.03-2.73-.07-5.46-.09-8.18-.09-11.59.48-23.17.26-34.75-.07-3.51-1.21-8.82,2.29-11.23,1.25-.86,2.26.1,3.02-1.64.66-1.52,1.19-3.35,1.66-4.93,1.08-3.66.41-9.58-2.25-12.51ZM14.21,7.36c-.03-.39.47-.2,0,0,.03.38-.46.2,0,0ZM64.09,97.9s.06-.02.09-.03c-.13.01-.26.02-.42.02.15-.3.33-.46.54-.5,1.21-.86,2.95-.74,4.25-1.42-.37,2.61-2.33,1.99-4.46,1.92ZM70.07,46.61c.08,3.29.16,6.58.23,9.88.14,7.05.22,14.11.21,21.17,0,3.47-.29,6.88-.83,10.31-.16,1-.15,5.99-1.38,6.19-2.26.36-4.57.32-6.87.81-2.9.62-5.88,1.24-8.86.71.89-1.66,2.15-4.62-1.34-2.69-2.88,1.59-4.52,3.47-8.25,3.01,1.37-2.51,5.63-.86,6.59-3.87.27-.82,2.35-3.03,1.33-3.91-1.04-.89-2.08.66-2.12,1.52-.05,1.48-.37,1.36-1.91.79-3.4-1.26-4.64,4.25-7.41,5.15.66-2.44-.42-3.66-2.87-2.98-1.36.38-2.33,1.16-3.56,1.8-.88.46-1.57-.03-.74-.81.77-.73,2.21-1.78,1.1-2.93-.82-.85-2.18-.61-3.06-.03-1.63,1.07-2.92,3.92-5.25,3.36.19-.92,5.55-3.56,3.17-4.88-1.66-.92-4.55,1.84-6.05,2.33.34-2.77-3.59.36-4.15,1.28-.97-.87,3.98-6.07.52-5.69-.71.08-6.21,3.04-6.2,3.06-.47-.56,1.64-3.53,1.88-4.02.96-1.94,1.74-3.99,2.19-6.11-1.92.61-3.86,1.63-4.8,3.51-1.11-.59.97-3.29,1.37-3.84,1-1.38,1.68-3.37,1.5-5.08-1.06.39-3.49,2.85-3.96,2.17-.57-.83.34-2.29.75-2.99,1.11-1.93,4.21-4.68,3.62-7.05-.38-1.51-2.42.22-1.08-2.5.63-1.26,2.02-3.34.96-4.75-1.33-1.76-3.18,2.16-3.46,2.96-.49,1.43.47,3.66-.34,4.83-1.75-.43-.35-8.47-.29-8.47,1.34.15,1.76.61,2.77-.92,1.27-1.92,1.58-3.69,1.67-5.92-1.98.28-3.68.41-4.48,2.55-2.11-2.17-.16-10.27.03-13.05.17-2.67-.83-4.92-.86-7.52-.02-1.74,1.23-3.31,2.2-1.16,1.22,2.71,2.85.6,5.1,1.53.25.11,3.3.83,2.42-.39-.35-.49-1.54-.13-1.2-1.12.72-2.08,1.06-3.18-1.36-3.23-.83-.02-1.08-1.01-1.97-1.15-1.13-.17-2.28.56-2.77,1.55-.73-.48-.62-1.7-1.6-1.91.74-1.41,3.69-5.18,0-4.78.22-.95-.33-1.49-1.28-1.28.15-3.46-2.24.05-3.66.14-1.36.09-.83-3.55-.68-4.19.48-1.99,2.53-3.66,4.12-4.8,4.9-3.51,11.38-.2,16.42.77,1.81.35,3.36,1.95,5.21,2.67,1.84.72,3.79,1.27,5.75,1.59.21.22-.29.16-.67.06.37.26,1.07.33,1.49,1.02.36.59.66.72,1.37.67,2.67-.19,5.29-.88,7.97-1.14,6.54-.62,11.95-.67,18.19,1.75,3.89,1.52,9.44,3.66,11.03,7.93,2.08,5.61-4.43,5.58-5.79,9.45-.9,2.55-.17,6.03-.09,8.66ZM21.56,8.32c.34-.72.97-1.16,1.92-1.28-.46.6-.71,1.41-1.92,1.28ZM72.7,96.62c-.75-.14-.36-1.6,0-1.91-.26.24-.2-1.03-.09-.69.03.03.06.05.08.08-.03-1.4.17-2.79.34-4.17,1-.06.84,1.46,1.92,1.28-.38.81-.55,2.3.64,2.55-.61,1.29-2.13,1.69-2.88,2.87ZM74.3,64.11c1.27,0,2.38,4.3.64,3.83-.14.45.35,1.88-.38,1.93-.07.01-.15.01-.26-.02-.02-.17,0-.32.05-.44.22-1.76.22-3.54-.05-5.29ZM74.95,87.06c-1.42-1.06,2.68-7.07,3.64-9.69-.17.06-.35-.42-.07-.69-.01,0-.03,0-.04,0-.61.44-.59,1.55-1.6,1.45.07-.66-.12-1.37-.96-1.28.51-1.33.64-2.76.96-4.14.53.26.97.65,1.33,1.1-.61-1.2-.29-3.03-.38-4.28-.18.03-.69.37-.91.55-.01.03-.03.06-.04.09-.55.23.15-.85.19-.64.02-.01.03-.02.02.02-.01.04-.03.07-.04.11-.02.09-.07.23-.15.43,0,0,0,0,.01,0,.65-1.42,2.74-3.18,2.36-4.85-.26-1.12-.11-2.38,1.75-2.08,0,2.75-.23,5.62.03,8.36.09.92.75,3.32-.03,4.07-1.72-1.52-.32-6.3-.32-8.29-1.98-.24-.98,6.57-.96,7.65-.55-.12-.94-.36-1.23-.68.93,1.43,1.23,3.38.95,4.95-.27,1.48-1.52,2.53-2.14,3.84-.67,1.39-1.24,2.9-2.37,4.01ZM80.7,90.24c-1.17.86-1.66,2.5-3.2,2.87-.6-2.98,1.3-5.36.64-8.29.02-.27.13-.47.32-.62,0,.03,0,.08,0,.12.03.02.05.1.06.19.6-1.11,1.24-3.95,1.54-4.8,1.13,1.89,2.17,5.03,2.04,7.23-.08,1.37-1.8,1.59-1.41,3.29ZM86.64,26.74c-1.65,4.01-5.6,6.77-5.84,11.25-.3,5.62.46,11.25.22,16.88-1.28-1.58-1.29-3.81-1.28-5.74-2.47,1.5,1.17,9.27,1.28,11.48-2.33-1.79-2.35-5.91-5.75-6.38.24-1.43,2.07-3.83,3.52-3.83.24-1.27-2.02-4.13-3.2-4.46-1.17,1.51,1.33,2.35.79,3.68-.41.99-1.51,1.61-1.75,2.7-.61-.56.65-3.17.43-3.23-.46-.11-.56.62-1.07.36,0-1.21-.33-2.49.05-3.67.38-1.21,1.75-1.74,2.23-2.91.7-1.69-.52-3.17-2.28-2.34.05-1.35,2.16-1.76,3.02-2.5.99-.85,1.74-1.95,2.29-3.12,1.52-3.2,1.13-6.51-.2-9.69,1.09.01,2.93.28,3.51-.96-.11.3-3.72.72-4.15.64.09-.79,1.94-1.06,1.65-1.96-.48-1.46-2.14.53-2.93.37.53-.56,3.33-1.79,2.42-2.89-1.33-1.59-3.13.26-4.34.98-.84-.85,3.34-1.77.88-3.19-.73-.42-.26-1.69-1.07-1.92-.7-.07-1.38.04-2.05.33-.22-.61-.65-.82-1.28-.64-1.4.4-2.7,1.78-4.25,1.17-1.45-.56-2.93-1.06-4.43-1.5-2.9-.84-6.41-.61-8.9-2.54-.83.35-.36,1.57-1.75.96-1.11.13-2.24.08-3.34.31-1.02.22-2.17.71-3.23.32-.93.42-1.82.94-2.88.96.55-.69,2.22-4.79.1-3.11-.97.77-3.5,2.93-.74,3.11-1.64.99-2.99-.91-4.47-1.28.63-1.91,2.21-3.4,2.56-5.42-1.72.33-4.79,2.52-4.8,4.46-.79-.37-3.45-.37-2.55-1.91-1.15-.28-1.61.93-2.77-.32-.86-.93-1.11-2.32-1.39-3.5-1,.7.26,1.98,0,2.87-.63.11-.95-.51-1.6-.32-.05-.55.33-.9.53-1.34-.04.02-.08.03-.13.02-.05.02-.1.03-.12-.01,0,0,0,0,0,0h0c-.03-.09.04-.27.36-.58-.57.56-2.03,1.3-2.85,1-1-.36,1.41-3.12,1.62-3.59,1.49-3.3-3.68.16-4.52.35.04-.68-.28-1-.96-.96.76-2.44,9.03-2.3,10.7-2.25,5.32.15,11.37,2.41,15.4,5.95,3.02,2.66,7.36,1.71,11.21,1.61,5.54-.15,11.4.03,16.73,1.44,3.85,1.02,10.95,2.08,12.95,6.23.76,1.58.5,3.85.66,5.56.07.73-1.9,2.19-2.26,3.06ZM78.78,76.54c0,.21-.08.49-.2.83.1-.04.2-.26.2-.83ZM78.52,84.52c-.1.18-.2.32-.29.4.12-.09.22-.39.23-.59-.06-.04-.16.08-.32.5.21.94.41.11.38-.3ZM51.79,7.64c-.08.12-.28.23-.52.32,5.59-1.61,1.67-1.05-.31-.29.41-.02.8.01.83-.03ZM27.96,8.32c-.12.19-.24.38-.36.57,0,0,0,0,0,0,.05.01.08.01.12.01.08-.04.18-.15.22-.34-.02.11-.05.21-.09.31.12-.07.17-.25.11-.57ZM35.91,18.26s-.09-.06-.12-.1c.12.13,1.01.27.79.04-1.45-.24-1.15-.06-.67.06ZM64.45,97.39c-.05,0-.11,0-.16,0-.08.06-.16.13-.24.2.14-.1.27-.17.39-.21ZM74.69,69.04s0,0,0,0c.01,0,.03,0,.04.01-.01,0-.02-.01-.03-.02ZM74.48,69.19c.05-.06.12-.11.2-.15-.06-.02-.13.02-.2.15ZM74.73,69.06c.1.08.17.3.14.5.08-.19.05-.42-.14-.5ZM64.45,97.39c.06,0,.13.01.2.04-.08.25-.25.39-.47.44,1.24-.11.91-.68.27-.49ZM50.96,7.67c-.49.03-1.01.15-.95.65-.02-.2.38-.43.95-.65ZM74.86,69.56c-.06.14-.18.27-.36.29.02,0,.04,0,.06,0,.18-.03.27-.15.3-.3ZM74.35,69.4c-.02.15-.03.3-.05.44.05-.33.11-.53.18-.65-.06.06-.1.13-.13.21ZM72.57,93.98s0,.85.13.73c-.03-.4-.06-.6-.09-.69-.01-.01-.02-.03-.04-.04ZM72.69,94.1c0,.2,0,.41.01.61.1-.26.09-.46-.01-.61ZM76.89,70.08s-.02.05-.03.08c.01-.03.02-.05.03-.08,0,0,0,0,0,0ZM76.81,70.17s.04-.04.08-.08c.05-.14.1-.29.15-.43.01-.06.02-.1.01-.13-.1.07-.43.64-.25.64ZM27.96,8.32c.46-.2-.04-.38,0,0h0ZM30.19,25.21c-.9.87-1.12,2.03-.32,3.19,2.61.49,2.21-3.18.32-3.19ZM58.99,25.6c.07.05.16.13.29.25-.09-.17-.19-.25-.29-.25ZM58.82,25.67c.06-.05.12-.07.17-.07-.18-.12-.21-.05-.17.07ZM58.82,25.67s0,0,0,0c0,.04,0,.1,0,.15.15.26.23.53.31.57-.16-.08-.28-.36-.31-.57-.22-.36-.59-.7-1.41-.31-.98.46-1.63,1.77-1.01,2.75,1.63,2.6,2.97-.96,2.88-2.42.04.64-.38.1-.46-.18ZM81.34,26.81c.46-.2-.04-.38,0,0h0ZM81.34,26.81c-1.33-.3-.07.96,0,0h0ZM24.56,31.06c.75-1.16.51-2.98-.76-2.98.11,0,.12.1.09.19,0,0,0,0,0-.01,0,0,0,0-.01.02,0,0,0,0,0,0-.06.11-.1.16-.12.15.03.01.07-.04.11-.12-.09.24-.49,1.32-.49,1.78,0,.42.64,1.81,1.18.97ZM23.75,28.42s0-.14.05-.34c-.06.21-.06.3-.05.34ZM46,30.43s-.01.05-.04.07c-.04.04-.11.04-.12-.06.01.1.08.1.12.06.02-.02.03-.04.03-.07-.04-.06-.09-.11-.15-.12-.08.44-2.27,3.24,0,2.87.29-.27.5-2.25.15-2.75ZM46,30.43s0,0,0,0c0-.05-.03-.1-.15-.12.12.02.15.07.15.12ZM55.1,35.5c.36.13.37-2.76-.69-3.45.03.05.06.1.08.17-.02,0-.03,0-.05.02-.02.05-.09.08-.19.03-.15-.02-.29-.13-.39-.37.55.75.16,3.21,1.26,3.59ZM54.24,32.28c.06,0,.13,0,.19-.03.03-.06,0-.15-.1-.23-.14-.08-.3-.12-.48-.11.16.22.29.32.39.37ZM54.41,32.06c-.11-.16-.29-.21-.56-.15.23-.02.39.04.48.11.03.01.05.03.08.04ZM35.18,36.69s-.08-.07-.12-.13c-.69-.5-1.16-1.42-2.53-.95-1.24.42-1.57,1.82-.94,2.89,1.54,2.61,3.98.34,3.6-1.81ZM34.99,36.05c-.38-.25-.13.24.07.5.03.02.06.05.09.07-.13-.09-.58-.84-.16-.57ZM34.99,36.05c.1.21.15.42.19.63.08.05.07-.08-.19-.63ZM55.65,38.4s0,.05,0,.09c.01.01.03.02.04.03-.01-.04-.03-.09-.04-.13ZM56.08,38.92c-.09-.28-.23-.51-.44-.69-.02.02-.02.09,0,.17.03-.12.14-.05.44.52ZM56.08,38.96c0,.05,0,.1,0,.15.04-.03.04-.08,0-.15ZM56.08,38.96s0-.02,0-.04c0,.01,0,.02,0,.04,0,0,0,0,0,0ZM55.68,38.53c.09.27.26.61.36.6.02,0,.03-.01.04-.02,0-.05,0-.09,0-.15-.06-.11-.21-.26-.4-.43ZM56.08,39.1s0,0,0,0c-.03.9-.42-.2-.44-.61-.58-.5-1.5-1.12-1.63-1.15-1.09-.31-2.45-.17-3.28.68-1.06,1.09.32,2.59,1.35,3.06,1.13.52-.36-3.16,1.54-2.1.75.42,2.45,3.25,2.47.12ZM23.16,40.51c.55-.68.43-2.12-.41-2.47-.03.07-.16.15-.3.17-.03.01-.07.02-.1.02-.57.76-1.26,2.83.81,2.28ZM22.73,38.03s.01,0,.02.01c.03-.08-.09-.14-.55-.08.15-.02.28,0,.41.03.05-.02.09-.03.12,0,.01.01,0,.03,0,.05ZM22.18,38.08c0,.12.07.16.16.16,0,0,0,0,0-.01-.09,0-.17-.04-.17-.14ZM22.73,38.03s-.08-.03-.12-.04c-.07.03-.16.12-.25.23.03,0,.06,0,.09,0,.12-.04.25-.13.28-.18ZM65.04,41.47c.12-1.29-.12-2.22-1.28-2.23-.45.98-.27,2.39,1.28,2.23ZM52.51,45.4c-.05.12.07.16.21.15-.14,0-.25-.04-.21-.15ZM52.73,45.54s.07,0,.1,0c0,0,0,0,.01-.01-.04,0-.07.02-.11.02ZM53,45.38s-.1.07-.16.14c.12-.03.22-.07.23-.11-.02,0-.04-.02-.07-.03ZM53.07,45.41s.03.02.04.03c.06-.06-.05-.13-.55-.14.17,0,.31.04.43.09.03-.01.06-.02.07,0,0,0,0,.01,0,.02ZM53.11,45.44s-.16.08-.29.1c-.58.65-1.7,3.04,1.02,2.63.02-.85.12-2.28-.73-2.72ZM21.55,45.78s-.06-.02-.06-.05c-.05.09-.04.11.06.05ZM21.55,45.78s.04,0,.06,0c.02-.03.05-.07.07-.09-.05.04-.09.07-.13.09ZM21.56,45.61c.27-.05.45-.04.59,0,.1-.07.02-.11-.59,0ZM22.2,47.53c-.09-.51.67-1.71-.04-1.91-.1.06-.38.15-.54.16-.34.48-.73,2.05.58,1.75ZM40.18,48.36s.08-.09.25-.19c-.19.13-.25.18-.25.19ZM40.53,48.2s0,0,0,0c0,0,0,0,0,0,0,0,0,0,0,0ZM40.47,48.24s.05-.03.06-.04c-.04-.01-.07-.02-.11-.04.08,0,.08.04.05.08ZM40.53,48.2c-.66.68-2.03,2.68-.65,3.61,1.78,1.21.87-2.86,1.5-3.33-.28-.09-.57-.19-.85-.28ZM40.18,48.36c-.04.07.22-.03.29-.12-.11.06-.29.14-.29.12ZM36.91,50.72c1.16-.01,1.4-.94,1.28-2.23-1.74-.59-1.95,1.4-1.28,2.23ZM21.84,57.88c.11-.06.08-.12-.02-.17-.06.06-.13.1-.21.15.1,0,.17.01.23.02ZM20.92,58.05c.28-.02.51-.08.69-.18-.29-.01-.7.02-.69.18ZM21.82,57.72c1.85-1.69-4.42-8.94-4.42-1.27,0,.65.5,1.57,1.27,1.23.69-.31.53-1.46.71-2.04.46-1.48.91.86.89,1.29-.06,1.26.62.38.64,1.11-.01-.44.65-.44.9-.33ZM21.84,57.88c-.12.07-.39.13-.91.16.37.09.69.04.96-.15-.01,0-.03,0-.05,0ZM62.16,53.27c-.78,1.11-.64,2.63.96,2.87.99-.68.94-3.26-.96-2.87ZM31.09,57.4c-.33-.04-.2-.4-.09-.57-.35-.6-1.23-.83-1.64-.04-.95,1.81,1.52.7,1.79.62,0-.18-.04-.34-.11-.48-.03.18-.03.42.05.47ZM31.09,56.77s0,0,0-.01c-.01-.02-.05.02-.09.08.02.03.03.06.05.1.01-.07.03-.13.04-.16ZM31.09,56.77c.02.21.04.43.07.64.02-.62-.02-.73-.07-.64ZM46.5,58.05c.81.04-.27.37,0,0-2.57,3.54,4.02.19,0,0ZM56.53,58.8c-2.6.63-2.17,5.7.31,6.23.22-.07.48-.13.71-.18.22-.1.44-.18.55-.07-.04.06-.09.1-.14.14,1.71-1.26,1.68-6.87-1.43-6.13ZM57.92,64.96c-.07.04-.15.08-.24.1-.26.05-.46.08-.63.1.32.05.61-.03.87-.2ZM57.68,65.06c.61-.29.33-.29-.12-.2-.16.08-.32.17-.45.23.18.01.38,0,.58-.03ZM57.1,65.09c-.09,0-.17-.04-.26-.05-.47.14-.7.27.21.13-.05,0-.1,0-.15-.01.04.01.11-.02.2-.06ZM18.36,62.83c0,.18.26.36.32,0,0-.18-.26-.36-.32,0ZM45.18,68.59s.06.05.07.09c0-.09-.02-.11-.07-.09ZM45.18,68.59s-.06-.01-.09-.01c-.02.05-.04.1-.06.15.06-.09.11-.12.14-.14ZM44.58,64.42c-1.68-.91-3.97.62-3.2,2.55.44-.04.76-.25.96-.64-.1.68,1.02.67,1.01,1.46-.03,1.28.95,1.09,1.87,1.09-.69,0-.36-.3-.13-.31.38-1,1.36-3.15-.51-4.15ZM25.4,71.76c.29-.03.55-.11.78-.22-.3,0-.84.15-.78.22ZM26.37,71.58s-.05-.03-.09-.04c-.06.07-.31.16-.89.22.34.01.67-.04.97-.17ZM26.06,65.65c-1.64-.99-4.33.14-4.61,2.07-.14.95.6,2.82,1.77,1.65.47-.47.57-1.11,1.21-1.44.76.85-.27,2-.06,2.95.09.4.78.57,1.02.88-.43-.55.8-.46.89-.27,1.95-1.05,1.61-4.73-.22-5.83ZM26.28,71.54s.02-.04,0-.06c-.03.02-.07.03-.11.05.04,0,.07,0,.1,0ZM34.43,65.89s.06.02.13,0c.05-.06.09-.11.13-.14-.04.03-.16.09-.26.14ZM35,65.73c-.07.06-.29.14-.44.17-.54.71-1.4,3.34-.04,2.69.7-.34,1.35-2.56.48-2.86ZM34.67,65.7c.13-.02.24,0,.34.03.06-.05,0-.08-.34-.03ZM34.67,65.7c-.51.3-.4.28-.23.2-.02-.02.04-.08.23-.2ZM61.2,70.16c-.9.58-1.11,3.43.96,2.87.06-1.34.12-2.67-.96-2.87ZM20.6,73.03c0,.75-.55.94-.32,1.91.79.19,1.55-2.1.32-1.91ZM32.11,73.35c-.5.47-.36,1.42.64,1.28.59-.56-.09-.99-.64-1.28ZM54.2,76.21s-.02,0-.04,0c.01,0,.02,0,.04,0,0,0,0,0,0,0ZM54.54,76.18c-.11,0-.22.01-.34.04,0,.03,0,.06.01.1.05.04.14.05.26.04.08-.06.13-.14.1-.16-.01,0-.02-.01-.04-.02ZM55.13,76.22c-.21.07-.46.12-.65.13-.07.06-.16.1-.23.07.13.43.49,1.07.49,1.09.38,1.01-.07,2.49-.25,3.48,2.48.68,2.83-4.19.64-4.78ZM55.13,76.22c.54-.17.84-.4-.63-.08.02.01.03.02.05.03.21-.01.41,0,.58.05ZM54.2,76.21c.11-.03.2-.04.29-.07-.23-.14-.3-.09-.29.07ZM54.16,76.22c0,.13.03.19.08.21-.01-.04-.02-.08-.03-.11-.03-.02-.05-.05-.05-.09ZM79.1,76.22c-.27-.06-.3.12-.32.32.19-.02.38-.05.32-.32ZM57.04,77.49c.1,0,.2.03.3.06-.07-.03-.16-.06-.3-.06ZM56.91,78.08s0,0,.01,0c0-.03,0-.06,0-.08,0,.03-.01.06-.02.09ZM57.04,77.49c-.02.09-.04.18-.06.27-.01.1-.01.17,0,.22.1-.16.25-.49.06-.49ZM56.99,77.74c-.02.08-.04.16-.05.24.02-.07.03-.15.05-.22,0,0,0-.01,0-.02ZM57.35,77.55c.37.2-.28.81-.36.43-.03.04-.05.07-.06.08-.14,1.03.18,2.09,1.4,2.3.89-1.02.03-2.54-.98-2.81ZM49.85,81.1c.05-.07.1-.14.16-.21,0-.02-.03,0-.08.02-.01.03-.02.06-.04.08,0,.03-.02.07-.04.11ZM49.69,81.32c.08-.09.15-.2.2-.32,0-.02,0-.04,0-.06-.18.11-.48.38-.19.38ZM48.19,78c-1.81,1.39-.53,3.1,1.18,3.3-.76-.1.39-.6.52-.36.02,0,.03-.02.04-.02.5-1.3-.37-3.96-1.73-2.91ZM19.96,78.45c-.14,1.07.67,1.88,1.28,1.28-.04-.81-.47-1.24-1.28-1.28ZM36.59,79.4c.11,0,.21,0,.32,0-.15-.01-.25-.02-.32,0ZM36.42,79.39s.04.01.08.03c.02-.01.05-.02.09-.02-.06,0-.11,0-.17,0ZM36.5,79.42c-.06.04.07.13.25.2.1,0,.19-.03.27-.07-.14.07-.39-.08-.52-.14ZM36.74,79.62c-.46.05-1.04-.15-1.38.69-.35.86.21,1.78,1.09,2,1.33.34,1.36-1.66.77-2.58-.08.02-.29-.04-.47-.12ZM37.22,79.74c.08-.02.04-.11-.31-.33.12.08.22.19.31.33ZM50.33,84.51c.04,1.02-.32,2.44.96,2.23-.16-.9.57-2.7-.96-2.23ZM29.23,85.14c-1.03.77-.92,3.77.64,3.82,1.49-.71,1.79-3.95-.64-3.82ZM63.76,88.65c-.27,2.26,2.73,1.04,2.88,0-1.03-.52-1.73-.15-2.88,0Z"/>
    </g>
  </g>
</svg>