<?xml version="1.0" encoding="UTF-8"?>
<svg id="Layer_2" data-name="Layer 2" xmlns="http://www.w3.org/2000/svg" viewBox="0 0 94.06 94.84">
  <defs>
    <style>
      .cls-1 {
        fill-rule: evenodd;
      }
    </style>
  </defs>
  <g id="food_icons" data-name="food icons">
    <g id="tomato">
      <path class="cls-1" d="M35.96,19.91c.87.68,1.79,1.29,2.77,1.81-.05.59,0,1.17.17,1.74.35,1.15,1.22,1.97,1.79,2.99.4.7.59,1.47.59,2.28.6-.08,1.18-.02,1.74.17,1.92.66,1.86,1.01,3.1-.77.83-1.18,1.36-2.08-.04-2.91,1.05-.98-.06-2.72-.33-3.71-.81-3.09-1.12-6.18-2.29-9.19-1.41-3.6-.71-7.09-.6-10.83-.12,2.01-.79-.88.02-.5-2.06-.98-1.91-1.49-4.24-.35-1.47.72-3,1.3-4.44,2.08-3.62,1.97-4.14,4.67-3.67,8.58.47,3.94,2.33,6.15,5.42,8.6ZM35.41,7.97c.56-.92,2.13-2.99,2.3-2.76.8,1.16-.08,4.46.33,5.94.52,1.88,1.5,3.58,1.97,5.47-1.54-.39-2-1.97-2.96-3.03-.91-1-1.12-.33-1.37-1.9-.17-1.03-.33-2.05-.44-3.08.1.64.25-.51.16-.64-.1.16-.17.3-.19.36.1-.33.16-.41.19-.36ZM9.75,30.46c4.41-.68,8.92-.46,13.37-.44,1.44,0,3.29-.21,4.3,1.06,1.07,1.35,3.04.84,4.6.84-1.45,1.52-2.58,3.3-3.86,4.95-1.11,1.45-2.53,2.53-3.41,4.11-1.08,1.93-2.94,3.65-3.32,5.8-.15.83-.43,1.48-.28,2.35.56.29.99.71,1.28,1.28,4.17,0,6-2.56,9.14-4.91,1.49-1.11,3.32-1.62,4.7-2.64.52-.38,1.92-2.04,2.46-2.01.3,1.47,1.38,2.62,1.63,4.11.16.96-.37,1.79.44,2.5.4.29.77.61,1.11.96,1.14,1.45.63,3.83,1.67,5.3.59.83.83,1.87,1.51,2.64,2.4,2.73,4.24-1.54,4.82-3.4.99-3.17,1.82-8.28.64-11.48,3.81,1.32,8.62,2.75,11.83,5.29,1.04.82,6.58,5.33,7.31,1.77.88-4.27-3.38-7.9-6.41-10.21-2.55-1.94-3.43-5.41-5.7-7.58-2.04-1.96,1.55-1.61,3.06-1.91,2.27-.45,4.48-1.12,6.71-1.72,2-.55,3.96-1.73,5.9-2.53.94-1.08,2.59-1.03,3.66-1.93.78-.66.63-1.64.23-2.48-.53-1.11-1.56-.88-2.69-1.05-2.43-.36-4.86-.68-7.3-.86-1.61-.12-5.14-.79-6.6.03-.37.21-1.79.55-2.19.52-.61-.04,1.95-4.41,2.24-4.68,1.47-1.37,2.54-3.29,1.63-5.2-1.73-3.64-5.57-1.17-7.94.3-1.7,1.07-7.81,5.22-5.43,7.8,1.72,1.85,3.24-.03,4.29-1.47.22-.3,2.08-2.01,2.08-1.99.13,1.52-1.79,3.77-2.33,5.22-1.19,3.18.86,3.86,3.54,4.31,2.72.46,5.62-.75,8.4-.75.84,0,5-.56,5.54.32-3.33,1.31-6.73,2.45-10.23,3.19-3.08.84-6.57,1.84-8.63,4.46-.26,2.8,1.28,4.38,2.54,6.65.65,1.17,1.93,1.5,2.89,2.45.24.24.47.58.59.78.02,0,.04,0,.05,0-.02,0-.02.02-.02.05.05.08.08.12.07.08.06.17-.05,0-.07-.08-.01-.02-.02-.03-.04-.05-2.36-.03-4.75-2.09-7.3-2.23-.83-1.4-2.61-3.06-3.73-.75-1.76,3.62,2.98,9.26-.43,12.55-.38-.49-1.13-.39-1.48-.92-.37-.55.02-1.26-.38-1.85-.56-.84-.85-1.76-1.08-2.75-.34-1.44-1.14-2.2-1.5-3.76-.58-2.52-.28-2.33-2.27-1.88-.21-2.61-5.49-2.38-3.51-5.1-.28.02-.53.09-.78.23-.65.06,1.04-2.04,1.09-2.14-1.15-.02-.83-3.1-1.56-3.94-1.21-1.38-6.63-.52-8.57-.52-1.32,0-15.28.81-15.44,0,2.6-.63,5.25-1.05,7.9-1.41,1.24-.17,4.48-2.19,5.21-.9,1.17,2.06,8.1.29,9.3-1.05,3.31-3.68-1.37-4.63-4.55-3.76-3.4.93-6.73,1.47-10.03,2.63-2.1.74-4.43.54-6.6,1.17-1.54.44-2.66,1.06-4.09,1.7-3.97,1.77-1.83,5.54,2,4.95ZM49.28,88.98c.87-.2.22-.74,0,0h0ZM88.07,39.83c-1.61-2.25-3.52-4.28-5.52-6.18-1.96-1.86-3.17-2.29-5.67-3.11-2.23-.74-9.16-2.74-10.34.43,2.4,2.06,3.82-1.21,6.72.1,3.26,1.49,6.2,3.58,8.79,5.95,2.37,2.17,4.71,6.2,6.14,9.1,1.74,3.51,2.65,6.09,2.65,10.03,0,7.21-2.65,15.89-8.31,20.72-2.67,0-3.4,1.89-5.43,3.5-1.75.94-3.52,1.83-5.33,2.66-3.83,1.75-7.82,3.15-11.94,4.04,1.49-1.42-1.61-2.02-1.92-2.55-.97-.16-1.41.32-2.24.64-.39-.53-.93-.74-1.6-.64-.05.94.96.93,1.6.96-.07.8.71,1.11.64,1.91-1.06.08-3.01.02-3.5-1.18-.34-.84-1.33-1.75-2.22-1.11-1.29.94-1.35,1.09-2.47-.06-1.49-1.55-1.74.24-2.68.44.12-1.29-.53-4.75-1.95-2.22-.36.64-.64,1.41-1.46,1.58-1.26.25-.71-.86-.94-1.72-.09-.33-.53-4.62-1.74-3.05.78.91.34,2.96-.32,3.83-.34-.37-.77-.48-1.28-.32.43-1.21,1-2.37,1.6-3.51-.42.8-.78.5-.56.24-.49.41-.61,1.22-1.36,1.36.03-1.25-2.26-.21-2.24-.64-.92-1.86-.1-3.38.64-5.1-1.54-1.07-3.19,4.46-3.84,5.1.17-2.18-.87-4.19-.64-6.37.49-1.48,1.63-2.48,1.6-4.15-1.2.13-1.46,1.31-1.87,2.22-.62,1.4-1.09-.21-1.97.65,0,1.16-.47,5.96-1.6,6.7-1.43-4.78,3.22-8.18,2.56-12.75-3.31,1.08-3.78,7.4-5.75,9.88-1.34-1.04-1.08-3.21-2.55-4.14,0,1.46.08,2.02-.77,3.14-.15.2-.75,1.14-1.15.68.8-1.31-.61-3.74-.1-5.44.53-1.77,1.56-3.12,1.38-5.08-1.19.16-2.37,1.35-3.07,2.23-.49.61-.36,1.86-1.41,1.91,0-.94.79-6.91,0-7.33-.97,2.45-1.23,8.49-3.95,9.21.22-.06.83-16.34-.21-16.55-.25,1.34-1.08,5.78-2.24,6.7-1.87-1.68-.59-4.69-.04-6.67.15-.54.81-2.15.12-2.5-.7-.35-.34-.74-.03-1.24.8-1.29.48-5.62-1.29-3.3-1.36,1.77-1.45,4.17-2.59,6.06-.17-2.35.25-4.67.32-7.01,1.31-1.03,1.45-3,1.92-4.46,3.25-1.74,5.94-3.59,9.49-4.89,1.31-.48,2.97-1.35,2.66-3.08-.72-1.62-1.82-2.46-3.58-1.95-2.05.59-4.06,1.33-6.17,1.69-2.22.38-3.42-.22-4.72,1.76C1.44,44.44-.01,53.66,0,62.48c0,2.69.48,4.96,2.05,7.2,1.33,1.89,1.53,3.7,2.41,5.85,1.35,3.33,4.07,7.68,7.32,9.4,1.99,1.05,3.75,2.48,6.01,2.93,1.77.36,2.76,1.91,4.28,2.95,3.17,2.17,6.98,3.18,10.77,3.51,4.86.44,10.22.76,15.09.24,2.04-.22,4.11-.6,6-1.4,1.95-.82,4.39-.66,6.48-1.2,2.32-.59,4.54-1.49,6.77-2.36.69-.12.86.54,1.6.32.58-.74,1.46-1.16,2.3-1.54,3.73-1.66,7.48-4.11,10.86-6.38,3.27-2.21,6.96-6.55,7.62-10.57,3.45-2.82,4.21-8.28,4.46-12.41.41-6.82-2.07-13.78-5.95-19.21ZM9,65.71c.17-.49.33-.02.32.32-.17.49-.33.02-.32-.32ZM8.68,63.48c.43.21.59.68.64,1.27-.96.32-.56-.71-.64-1.27ZM23.07,78.46c.25-.58.34.19.32.64-.25.58-.34-.19-.32-.64ZM23.38,81.01c-.17-.17.23-.4.32-.32.16.16-.23.41-.32.32ZM32.71,83.37c-.21,1.04-.87-.12-.69-.77h.64c-.21,0-.03-.38,0,0-.04-.55.13.4.06.77ZM40.01,86.75c.17-.49.33-.02.32.32-.17.49-.34.02-.32-.32ZM45.45,88.67c.65-.64.62.14,1.27.32.1.56-1.79.57-1.27-.32ZM49.28,88.98c.21-.73,1.07-.87,1.28-1.59.73.21.87,1.06,1.6,1.28-.39.82-2.21.17-2.88.32ZM38.81,80.29c.15-.12.32-.21.56-.24-.31.03-.47.13-.56.24ZM75.84,65.28c1.34.68.58-1.14.83-1.74.51-1.21,1-1.7,2.02-1.76.91-.05,1.37-1.25,1.92-1.81-1.6-.35-.92-3.25-.95-4.56-.01.9-1.04-.62-.72-.67-2.06-.89-4.16,1.8-3.66,3.84.35,1.43.34,1.28-.11,2.66-.42,1.3-.72,1.1,0,2.23-1.34.4.08,1.5.67,1.8ZM78.94,54.75c.24.1.47.24.71.44-.4-.35-.61-.46-.71-.44ZM73.57,69.22c.09-1.5-2.52-1.55-3.52-.95-.21,2,3.21,3.1,3.52.95ZM71.98,73.04c-.19.28-.42.48-.67.63-.06.23.07.23.67-.63ZM67.18,71.13c.13,1.82,2.54,3.48,4.13,2.54.08-.3.48-1,.63-.76-.43-1.37-4.55-4.87-4.75-1.78ZM68.8,76.82c.35-.6.53-1.85.02-2.5-.12,0-.38-.11-.37-.31-.17,1.85-2.79-2.96-4.25-1.05-.97,1.27-1.12.02-2.46.1-.87.4-.87,2.04-1.96,1.4-2.41-1.43-2.59.77-5.03.8-2.81.04-1.57,1.76-1.68,3.41,0,.15-2.3-2.69-2.84-.67-.41,1.54.99,2.05.96,3.35.28.02,2.86,1.49,2.88,1.59h2.88c.26-.47.57-.89.96-1.27,1.66,0,1.55-.42,2.56-1.59.93-.04,1.58-.52,2.25-1.1.77-.67,2.16-.95,3.16-1.54.81-.48,2.34.4,2.92-.6ZM68.82,74.31c.1,0,.09-.1-.37-.31.15.07.27.18.37.31ZM74.68,80.06c1.59.11,3.05-2.62,1.59-2.85.53.16-.45,1.15-.14-.02-.15.57-3.72,2.72-1.45,2.88ZM63.02,83.57c.43.57,1.85.98,2.56.32.68-2.75-3.24-3.51-2.56-.32Z"/>
    </g>
  </g>
</svg>