<?xml version="1.0" encoding="UTF-8"?>
<svg id="Layer_2" data-name="Layer 2" xmlns="http://www.w3.org/2000/svg" viewBox="0 0 114.07 102.96">
  <defs>
    <style>
      .cls-1 {
        fill-rule: evenodd;
      }
    </style>
  </defs>
  <g id="food_icons" data-name="food icons">
    <g id="turkey">
      <path class="cls-1" d="M64.81.94s0,.05.02.08c.08.24.17.52-.02-.08ZM61.93,12.74c.04,1.58-.85,2.91-.96,4.46,1.61-.18,1.39-2.16,2.56-2.87.19-2.3.3-2.65-.81-4.45-.9-1.46.08-5.47.3-7.1.22-1.62.1-1.14,1.33-1.17.41,0,.56-.2.47-.58-.02-.06-.04-.12-.05-.17-.82-2.12-2.93.28-3.57,1.19-1.04,1.46-1.19,4.13-1.19,5.91,0,1.03-.37,2.35.45,3.13.54.52,1.22.89,1.46,1.65ZM64.77.86s.03.05.04.08c-.06-.18-.06-.17-.04-.08ZM44.35,15.29c.49,1.77-1.47,3.54-.64,5.1,3.58-.07,4.66-6.52,1.8-8.07-2.26-1.23-3.62-1.51-2.76-4.36.26-.86.26-1.9.96-2.55.6.05.93-.25.94-.8-.03-.08-.08-.34-.08-.4-.91-2.29-3.72.57-4.29,1.73-.71,1.46-1.85,5.15-.62,6.47,1.28,1.37,3.57,1.3,4.68,2.87ZM44.58,4.21c.03.08.07.14.09.23-.07-.22-.09-.27-.09-.23ZM44.67,4.45c0,.06-.01.11-.01.16.02.05.03.03.01-.16ZM54.35,17.22c.81,1.2-.28,2.53-.07,3.77.27,1.6,2.05.08,2.26-.76.29-1.17-.05-2.45-.25-3.6-.25-1.51-2-1.24-2.34-2.62.27-1.12,1.13-1.96,1.48-3.03-.22.57-.42-.48.12-.47-1.43,0-.94-1.12-2.25.77-.91,1.32-1.54,2.71-1.59,4.33.7.8,2.03.71,2.65,1.61ZM55.54,10.51c-.03.16-.07.32-.12.47.04-.1.08-.25.12-.47ZM33.48,75.86c.74.22.18-.67,0,0h0ZM68.65,88.93c-1.8,1.5.37-.05,0,0h0ZM104.43,37.59c-.1-.1-.19-.22-.3-.31-.35-.12-.68-.18-.99-.2.29.21,1.3.66,1.3.51ZM107,41.11c.19-2.87-1.22-6.47-4.74-6.02-3.41.44-3.94,4.23-3.45,7,.29,1.68-3.45,2.81-4.97,3.57-1.43.71-3.84,2.4-4.78,1.07-.84-1.2-1.65-2-2.19-3.32-.43-1.06,2.22-3.43,2.87-4.21,1.31,2.36,6.12,2.37,7.51.23,1.51-2.34,1.71-6.31-1.09-7.9-.69-.39-1.48-.56-2.27-.61-1.6-.11-.64-.39-1.29-1.58-.9-1.62-1.61-1.62-3.38-1.62-2.75,0-4.77,6.65-1.71,7.33-.03-2.06-.64-6.21,2.56-6.06,2.4.14,1.6,3.99,1.28,5.42,1.62-.15,3.13-2.99,4.59-.65.76,1.23.92,3.86-.75,4.47-2.25-.13-5.52.14-7.54,1.12-1.51.73-3.73,2.13-4.93.16,1.89-.76,2.73-2.78,4.48-3.83-1.79-2.22-5.38,3.71-7.52,1.84-.81-.71-1.62-1.41-2.39-2.16-1.36,0-1.34.15-2.36-.84-1.24-1.2-2.75-2.69-4.33-3.31-3.2-1.27-5.67-3.88-9.05-4.75-1.41-.36-2.7-1.06-4.08-1.3-2.05.06-4.08.33-6.07.81-3.94.97-7.34,2.99-11.09,4.39-4.4,1.64-8.34,3.76-11.92,6.81-3.5,2.98-7.02,5.96-10.29,9.21-1.48,1.47-2.92,3-4.27,4.59-1.16,1.37-1.42,3.21-2.28,4.8-.39.72-1.06.84-1.5,1.49-.48.71-.62,2.15-.78,2.98-.38,1.95-.53,3.94-.57,5.93-.04,2.46-.34,5.44.65,7.71.84,1.93,1.1,3.57,1.66,5.57,1.58,5.62,7.08,11.12,13.29,10.85,1.93-.08,3.26,1.27,5.09,1.9,1.73.6,3.56.73,5.37.55,1.1-.75,2.38-1.69,2.49-3.06.16-1.95,1.58-1.27,3.15-1.41,2.65-.24,4.15-.44,6.57.75,1.76.87,3.28,1.16,5.18.51,2.63-.9,6-2.12,8.82-1.88-.15.72-1.24.27-.96,1.28-.69-.11-.17,1.17-.32,1.47.2-.42-5.84,1.34-5.91,1.32-.73-.17-.95-1.07-1.66-.14-.55.71-.57,1.53.18,2.36,1.5,1.67,2.96,1.76,5.11,1.99,1.47.15,2.83.06,4.13-.69,1.05-.62.82-.17,2.1-.28,2.62-.21,5.31-.83,7.29-2.73,1.33-1.28.68-5.07-1.33-5.53-1.96.48-3.56,2.42-5.43,3.19.1-1.4-.86-1.94-1.92-2.55,1.48.04,2.53-.73,3.83-1.27,1.38.14,2.52-.41,3.84-.64h10.55c2.21,1.25,4.69.64,6.83.6,2.65-.06-1.67-1.46-1.71-1.55.88.12,5.36.05,5.43-1.28-1.14-1.24-3.51.76-4.48-.32.55-.79,1.62-.88,2.24-1.59-1.66.03,1.5-1.54,1.67-1.6.66-.27.65-.84,1.53-.63.4.29.45.73,1.05.68,2.62-.2,8.17,1.26,9.18,4.42-5.78,6.58-14.05,7.05-22.08,8.59-4.36.84-8.35,3.23-12.83,3.9-2.52.38-5.1.41-7.61.9-1.43,0-4.17-.69-5.43-.32-10.49,0-21.32-.79-31.61-2.94-3.08-.64-6.05-.56-9.2-.56-2.53,0-5.03-.95-7.46-1.59-1.21-1.43-3.17-1.86-4.47-3.19-.3-2.07.86-3.33,2.34-4.47,1.66-1.27,3.9-1.89,5.8-2.72,2.29-1,.56-2.39-1.3-1.7-2.95,1.11-7.75,2.94-8.24,6.44-1.54,10.88,14.05,10.29,21.23,11.37,2.1,1.49,4.66,1.23,6.96,1.98,2.03.66,4.58.89,6.7.89,4.52,0,8.72,1.36,13.22,1.88,5.32.62,10.36.5,15.55-.84,2.07-.53,3.89-1.76,5.93-2.2,2-.42,3.93-1.09,5.91-1.59,2.59-.65,5-.68,7.46-1.68,2.23-.91,4.6-1.41,7-1.63,3.31-2.16,6.55-4.31,10.09-6.15,2.26-1.17,4.93-2.08,4.93-4.85,0-1.75-1.16-4.42-2.93-4.95-1.86-.55-3.77-1.44-5.65-1.85-.87-.19-2.52-.02-3.34-.39-1.12-.5,3-3.42,3.17-3.92.56-1.58.68.94.7-1.8,0-1.13.17-2.25.28-3.38.35-3.46-2.57-7.27-5.02-9.69-1.95,1.72,1.65,5,2.49,6.25,1.61,2.41.2,7.18-1.85,9.05-1.18-.75-1.07-2.21-3.07-.67-1.98,1.52.1,1.97.83,2.9-1.18,1.07-2.16,2.29-3.84,2.55.72-1.06,1.75-1.82,1.92-3.19-.67-.35-.65.49-1.08.61.14-.04-.84-1.2-.85-1.24-.68-1.9-1.87.86-2.23,1.41-.87,1.32-1.49,2.5-2.88,2.42-.85-.05-1.69.66-2.19,1.11-1.15,1.02-.57,1.99-2.12,2.03-.81.02-2.4.45-3.05-.28,0-.92,1.35-2.03.32-2.87-1.07.55-1.55,1.69-2.27,2.58-.83,1.02-2.27.52-3.48.93.1-1,1.34-2.26.32-3.19-1.2,1.47-3.37,3.87-5.43,3.51.32-.82.8-1.26.64-2.23-1.09.13-1.72.88-2.41,1.63-.81.89-1.79,1.08-2.81,1.66-1.1.62-2.13,1.3-3.41,1.49.03.35-.46.19,0,0-.46.2.67-1.52,0,0,.66-1.5,1.79-2.93,1.59-4.66-.23-2.04-2.32-.77-3.12.23-.78.98-1.17,2.2-1.99,3.15,0,.9.49,1.49.54,2.06.01.15-2.1.54-2.14-.14.17-1.63,1.47-2.82,1.6-4.46-2.22.14-1.8,4.66-4.16,3.83.13-1.31,1.3-2.14,1.28-3.51-2.14.23-2.19,4.38-4.73,2.87-.81-.48-1.06-1.46-2.38-.72-.99.55-1.7-1.09-2.29-1.16-.91-.11-1.43.6-2.22.51-.41-.04.17-4.84.2-5.32.14-2.23.39-4.45.24-6.69-.46-1.98-.63-4.09,0-6.06-1.46-.55-1.06.48-1.83-1.16-.36-.78-.53-1.5-.82-2.26-.57-1.47-1.9-.38-2.34.45-.57,1.07-.45,1.95-.56,3.16-.23,2.37-.8,4.8-2.12,6.82,0,2.18-.63,4.24-.96,6.38-1.83-1.23-2.79-3.41-4.8-4.42-1.32-.66-1.79-2.26-3.06-2.78-2.31-.94-.89,3.02.14,3.67.96.6,1.97,1.09,2.94,1.66,1.18.69,1.26,1.44,1.97,2.54,1.1,1.7,2.11,2.8,1.84,4.75-.15,1.08,1.27,2.63,2.02,1.22.82-1.54.62-7.03,2.48-7.61-.11,1.3,1.05,1.42,1.92,1.91-.21,1.66-.32,3.33-.48,4.99-.23,2.37.42,5.52-1.88,6.58-2.27,1.05-5.04-1.32-6.36-2.91-.55-.66-1.08-2.01-.87-2.92-.16-.45-1.02-.22-1.34-.34-.33-.11-.66-1.88-.57-2.21-.41-.74-.98.53-1.28-.32.11-2.15-.84-1.13-1.37-2.35-.19-.44-.61-.9-.92-.19-.73,1.71-2.5-2.25-3.14-3.2-.07-.83-1.03-4.29-1.92-4.14.52,2.79.6,5.06,2.05,7.62,1.19,2.09,2.14,3.19,3.88,4.79.89.82,4.32,5.83.61,4.15-1.55-.71-2.13-2.78-3.67-3.49-.86-1.27-1.79-2.5-2.55-3.83,0-.73-.33-1.86-.75-2.36-1.02-1.2-.75-2.94-1.49-4.33,0-2.02-.82-3.77-.73-5.7.04-.93.66-1.67.73-2.59-.08-.5-.95-.07-.96-.64,1.28-.98,1.72-2.73,3.2-3.51-.53-1.18.14-1.61.5-2.64.71-2,3.11-3.18,3.97-5.33-.74-.52-4.37,3.13-5.44,3.51.97-1.25,1.41-3.01,2.88-3.83.53.09,1.44-.46,1.7-.6,1.75-1.01.29-.51-.84-.69-.65-.1,3.57-4.96,4.07-5.43,1.61-1.54,3.33-2.95,4.98-4.44,1.85-1.77,3.77-3.47,5.89-4.92,1.75-1.2,4.1-1.92,5.48-3.43,1.79-1.94,4.75-2.51,7.1-3.52,2.54-1.09,4.56-2.27,7.37-2.2,3.76.09,10.84-.6,13.42,2.66,2.04,2.57,6.41,4.02,8.85,6.64,2.84,3.05,6.8,5.13,9.68,8.36.78.88,2.92,1.02,3.17,2.24.16.8-1.78-.03-1.82-.72-1.2-.19-1.84.39-3.15-.02-.92-.29-1.89-.43-2.85-.51-2.25-.17-4.52-.02-6.78-.11.21-.55,1.32-1.24.64-1.91-.55-.02-.97.2-1.28.64-2.16-1.38-2.45,1.62-4.8,1.28.15-.92,1.11-1.17.96-2.23-1.09,0-1.47.81-2.18,1.44-.81.72-1.64.38-2.6.26-3.01-.37-6.03.11-9.02.42-5.41.56-7.3,7.93-7.3,12.42,0,2.93.34,5.04,1.6,7.71.58,1.24,1.28,2.45,2.19,3.49.44.51,1.46.76,1.65,1.36,3.93.45,6.59,3.88,10.55,4.78,1-.67,4.89-.8,6.07-.64,1.47-1.39,3.91-1.65,5.6-2.83,1.14-.8,2.37-1.46,3.67-1.95.57-.7,1.12-1.43,1.83-2,.5-.41,1.07-.7,1.69-.87.13-.6.37-1.17.71-1.68.46-.72,1.08-1.32,1.61-1.98.9-1.11,1.01-2.26,2.1-3.21.92-.8,1.87-1.57,2.74-2.43,1.3-1.29.7-2.17.7-3.81,0-1,.9-.48,1.6-.72,2.2-.73,4.42-1.6,6.7-2.35,1.83-.6,3.29-2.43,5.26-3.26,1.36,5.06,10.32,2.74,9.92-2.22-.31-3.89-3.19-6.17-7.05-5.11ZM55.54,93.39c-.17-.17.23-.41.32-.32.17.17-.23.41-.32.32ZM59.69,92.75c.32-.98.86.37,1.28.32-.31.98-1.08-.14-1.28-.32ZM79.03,80.81c.73-.68,1.91-.82,2.4-1.77.99-.27.44,1.05,1.28.96-.84,1.11-2.6,1.04-3.83.96,1.59.11.82-.67.15-.14ZM68.65,88.93c1.6-.23.09,2.29-.48,2.57-1.77.87-3.2,1.78-5.28,1.57,1.59-1.79,3.93-2.63,5.76-4.14ZM62.57,88.93c.1.74-.05,1.22-.32,1.59-.95-.03-.86-1.9.32-1.59ZM34.76,65.66c.8.82.19,2.93-.32,3.51-.63-.65.26-2.49.32-3.51ZM33.48,75.86c.31-1.12.49-1.91,1.59-1.91v3.19c-.73-.21-.87-1.06-1.59-1.28ZM86.11,57.41c-.94.87-1.32.92-1.64,2.17-.21.8-.61,1.51-1.13,2.14-.99,1.19-2.33,2.06-3.17,3.38-1.84,2.89-.58.16-2.58-.07-1.08.62-.21,1.25-1.42,1.79-.5.23-1.53,1.08-2.1.44-.91,0-2.72,4.99-3.2,1.28-.91-.15.27,1.74-.64,1.59-.78.04-1.59-2.45-2.24-.64-.74-.04-1.75-2.03-1.6.64-1.5-.14-2.98-.05-4.47-.32-.2-.83.84-.76.64-1.59-1.02-.12-.69,1.35-1.92.96.12-.51,3.13-5.01.47-4-1.36.52-1.58,2.32-3.03,2.72-.56-1.34,1.74-2.63,1.6-4.14-1.22-.15-1.43.76-2.05,1.52-.34.4-.97.59-.5.39-.46.2-.26-.9,0,0-.15-.52.87-1.83-.17-1.88-.51-.03-.75.61-1.27.58-1.44-.08-.19-3.54-.55-4.36-.51-1.16-.85.59-.88-1.25-.01-.92-.55-1.24-1.43-.95-1,.33-2.17,2.78-2.42,3.73-.8-.49-.32-3.69-.32-4.46,0-1.79-.12-3.44,1.02-4.95,2.37-3.13,6.3-2.95,9.79-2.97,4.77-.03,9.54-.25,14.31-.34,1.87-.03,3.52.22,5.04-.64.61-.35,3.77.63,4.68.6-.48.91-1.13,1.4-.96,2.55.29.75,1.39.51,1.92.96.39,2.03,2.08,3.4.2,5.14ZM110.3,47.37c-1.3.59-1.11,1.83-3.03,1.2-1.52-.49-1.95-1.12-3.51-1.31-2.93-.35-6.1,1.54-8.78,2.56-1.55.59-2.96,1.61-4.55,1.84-.83.12-1.2.97-1.9.22-.25-.4-.59-.69-1.02-.9.51-1.26,4.93-2.55,6.07-2.87,1.06-.67,2.29-.98,3.42-1.51,1.22-.57,1.69-1.59,2.97-1.9,2.84-.68.09-2.11.25-4.29.13-1.89,1.16-3.44,2.92-3.35-.2-.14-.07-.17.99.2.22.17.3.26.3.31,1.35,1.41,1.21,4.01,1.62,5.75,1.96-.41,3.64-1.16,4.66,1.03.63,1.35.85,2.43-.41,3.01ZM61.29,35.37c-.19-1.05-3.36-.95-3.2.32.51,1.14,3.06,1.28,3.2-.32ZM48.93,38.62c.17-.03.34-.06.53-.06-.24.01-.41.03-.53.06ZM48.93,38.62c-1.21.24-2,1.1-2.98,1.85.95.07,3.08-.65,3.45-1.72-.27.43-1.16.04-.46-.13ZM35.4,41.11c-.94-1.23-2.91-.31-2.88,1.28,1.27.96,2.39-.45,2.88-1.28ZM26.13,48.76c1.64.04,2.41-.79,2.56-2.23-1.32-.83-2.84.45-2.56,2.23ZM35.72,49.08c-1.3-.13-2.02.33-1.92,1.59,1.2.04,1.72-.62,1.92-1.59ZM75.54,53.12c.23-.22.36-.48.37-.79-.04,0-.08-.01-.12-.02.22.23-.98.95-.43-.05-.71,1.28-2.76,2.51-1.93,4.09.42.81,1.79,2.11,2.73,1.06.69-.78,1.53-2.17.38-3.13-.45-.37-1.46-.46-1-1.16ZM75.36,52.27c.14.02.28.04.43.05-.05-.05-.18-.08-.43-.05ZM78.88,52.27c-.51.47-.36,1.42.64,1.27.09-.73-.08-1.2-.64-1.27ZM57.78,54.82c-1.02,1.47,1.7,2.31,1.28,0h-1.28ZM69.6,58.32c.15,1.66,0,3.62,1.92,3.51,2.32-.97.09-5.82-1.92-3.51ZM64.17,60.87c-1.89,1.26,1.31,4.73,2.23,2.23-.71-.77-1.28-1.7-2.23-2.23ZM89.1,69.8c-.55-.02-.82.24-.96.64.55.02.82-.25.96-.64ZM3.7,85.61c-3.66,1.87,1.61,4.76,3.77,4.52,1.35-.15,1.88.97,3,.71.92-.64,2.08-1.11,2.6-2.18,1.47-3.04-2.35-2.99-3.88-1.32-.9-1.7-3.78-2.6-5.49-1.72ZM7.81,88.56c-1.29.28-2.91-.34-3.74-1.23.85-1.06,3.71.38,4.48.96-.6.37-.77.37-.74.28ZM12.38,87.97c-.32.74-1.1,1.03-2.24.96-.13-1.19,1.45-1.64,2.24-.96ZM7.81,88.56c.26-.06.51-.14.74-.28-.25-.19-.69.14-.74.28ZM9.19,87.33c.46-.5-1.17-2.19,0,0h0ZM76.67,86.04s-.14-.02-.35.02c.15-.03.26-.03.35-.02ZM76.67,86.04c.12.07-.48.38-.46.21-.73,1.42,3.93,2.68,4.9,2.69.05-2.28-2.99-1.84-4.47-1.91.22-.34.52-.92.03-.98ZM76.21,86.24c.03-.06.06-.12.11-.18-.07.09-.1.15-.11.18Z"/>
    </g>
  </g>
</svg>