<?xml version="1.0" encoding="UTF-8"?>
<svg id="Layer_2" data-name="Layer 2" xmlns="http://www.w3.org/2000/svg" viewBox="0 0 120.19 88.02">
  <defs>
    <style>
      .cls-1 {
        fill-rule: evenodd;
      }
    </style>
  </defs>
  <g id="food_icons" data-name="food icons">
    <g id="watermellon">
      <path class="cls-1" d="M18.86,22.66c-.07,0-.1.03-.12.06.02.02.07.03.13.05,0-.04,0-.08-.01-.11ZM62.65,16.29c.85-.1.17-1.76,0,0h0ZM61.7,45.94c.56-.18.81-1.75,0,0h0ZM116.81,55.63c-1.22,3.5-2.65,8.23-5.15,10.98-1.69,1.87-3.2,3.89-4.82,5.82-1.35,1.6-2.77,2.3-4.4,3.53-3.13,2.37-6.45,3.98-10.04,5.6-7.83,3.52-17,2.46-24.96.08,0,.18-1.52-1.83-1.6-1.91-1.68.12-2.39-.94-3.53-1.77-1.04-.76-2.35-1.25-2.55-2.7-1.25-.25-.25.73-.42,1.21-.19.53-3.58-3.93-3.27-3.96.52-.04,3.21,2.32,3.69,2.75-1.06-.96,1.49.22,0,0,1.55.22,2.79,1.76,4.35,2.04,1.01.18,2.79,1,3.56,1.63,2.23,1.81,3.78,2.4,6.58,2.4.79,0,3.88.48,4.37-.32-2.73-.02-5.29-1.05-7.99-1.28-1.74-1.12-3.42-2.17-5.19-3.19-2.11-1.23-4.72-2.46-6.96-3.5-.45-.59-.73-1.25-1.6-1.28-.33-.92-.88-1.71-1.54-2.43-3.54-3.82-5.23-8.05-7.13-12.9-.64-1.63-1.54-3.6-1.62-5.33-.02-.47-.07-1.48-.24-1.91-.15-.38-.88-.65-.91-1.04,0-.15,15.12.77,16.65.84,3.21.13,6.03.1,9.16-.5,1.72.73,4.51.84,6.34.58,10.35-1.48,21.23-.01,31.53-2.16,2.33-.49,3.73.41,5.81.27,2.22-.15-.06,3.54-.55,4.54-1.11,2.25-2.56,4.04-3.45,6.37-.34.88-.77,1.74-1.32,2.51-.07,1.14-.27,2.27-.62,3.36-3.11,9.82-14.01,12.33-22.08,16.41,2.14,0,3.73-.17,5.78-.71,1.71-.45,3.02-1.53,4.66-2.3,3-1.41,5.26-3.66,8.1-5.27,1.8-2.5,4.02-4.72,5.07-7.69.68-1.91,1.02-3.42,1.93-5.25.36-.71.63-2.53,1.45-2.89,1.59-.7,1.89-4.52,2.46-6.44.31-1.05.27-3.1,1.6-3.46,1.08-.29.91-.5.91-2.01-.07-1.6-19.51.96-21.72,1.34-6.42,1.07-13.07.31-19.5.31-1.95,0-1.47-1.98-.99-3.32.36-.99.79-1.15.26-2.07-.29-.52-.37-1.08-.24-1.67,0-3.52-.42-6.82-.72-10.31-1.05-12.46-8.86-21.96-19.1-27.95-1.37-.23-2.28.39-3.6-.04-.91-.3-1.9-.29-2.84-.42-2.41-.32-4.87-.18-7.3-.18-4.91,0-9.82,1.06-14.52,2.41-4.58,1.31-7.92,3.9-11.81,6.32-3.13,1.95-5.86,4.37-8.12,7.29C3.5,22.77,0,31.84,0,40.39c0,5.43.8,10.58,2.13,15.85.59,2.32,1.27,4.61,2.07,6.86.9,2.56,1.85,3.8,3.8,5.66,1.21,1.16,4.31,4.95,6.14,4.81,1.94-.15,2.94,1.55,4.69,2.29,1.36.58,2.58,1.21,3.95,1.65.5.16.41,1.05,1.19.94.96-.29,1.96-.02,2.88.26,4.79,1.46,9.26,1.29,14.16,1.3,1.82,0,3.62-.87,5.13-1.88,1.95-1.3,4.39-1.59,6.6-2.24,1.97,1.76,3.43,4.15,5.67,5.51,1.76,1.07,3.44,2.06,5.25,3.04,4.2,2.26,8.98,3.56,13.78,3.56s9.45-1.04,13.97-2.24c2.51-.67,8.28-1.64,9.79-4.1.49-.8-1.38-.02-1.47-.03.16-.56,2.21-1.77,2.79-2.19,1.25-.9,2.38-2.14,3.45-3.25,2.42-2.54,4.57-4.93,6.53-7.89,4.02-6.11,5.86-13.47,7.7-20.46-1.78-.18-2.97,6.61-3.38,7.78ZM63.62,45.62c-.04.71-1.53.19-1.92.32.96-2.08.24-4.55.96-6.7.31.23.62.45.96.64-.96.7-1.62,6.15,0,5.74ZM64.62,26.84c-.39.03-1.15-2-1.3-2.49,0,.02,0,0-.03-.09-.15-.95-.08-.59-.02-.25-.1-1.23.44-2.35.34-3.58,1.51-.21.89,6.42,1.01,6.41ZM63.29,29.04c-.68.15-.61-.46-.64-.96.39.14.66.41.64.96ZM62.65,16.29c.14-1.52-.18-2.97-.32-4.46,1.05,1.66.96,3.87,1.28,5.74-1.27.51-.08-1.38-.96-1.28ZM65.85,46.26h-1.6c.07-.11.12-.17.17-.21.53-.56,1.33-.59,1.11-1.7.71.04.19,1.52.32,1.91ZM64.89,33.19c0-1.5,1.5,0,0,0h0ZM64.89,30.32c.06-.36.32-.18.32,0-.06.36-.32.18-.32,0ZM65.53,37.97c-.82-.03-.76-1.19-.32-1.59.69-.05.14,1.13.32,1.59ZM73.2,40.83c1.33-.3.07.96,0,0-.96-.06.3-1.32,0,0ZM75.53,43.79c-.73.63-1.74.5-1.37,1.82-.41-.01-.63-.18-.73-.37-.53-.75-.16-2.44-.23-3.13.72.37,3.62.55,2.33,1.68ZM75.76,39.88c-.7-.05-.69-.8-.64-1.59,1.07-.33.5.99.64,1.59ZM75.76,35.1c.17.17-.23.41-.32.32-.17-.17.23-.41.32-.32ZM75.12,30.95c.16.17-.23.41-.32.32-.16-.17.23-.41.32-.32ZM74.8,30.32c.17.16-.23.41-.32.32-.16-.16.23-.41.32-.32ZM75.76,40.83c-.51.51-1.35.57-1.6.32-.06-.06,1.21-.93,1.6-.32ZM73.09,27.93c.16,1.92,1.47,4.76.91,6.57-.24.77.19,1.47-.65,1.79-.41.08-.67.32-.78.71-.98-.88-.54-4.82-.7-6-.33-2.44-.26-4.91-.26-7.39,0,2.12-.38-2.17,0,0-.38-2.22-.53-4.48-.96-6.7,2.53,3.01,2.13,7.46,2.44,11.01ZM63.41,8.78c.12-.06,4.17,3.18,4.45,3.52,2.44,3.01,2.47,8.36,2.47,12.22,0,4.62.36,9.19.82,13.79.17,1.69,1.73,7.66-.5,8.59.16-.06.32-.13,0,0-.27.11-.15.06,0,0-4.65,1.92-2.22-4.59-2.92-6.57-1.03-2.89-1.23-5.25-1.23-8.48,0-4.12-1.12-8.48-1.63-12.59-.13-1.1-2.05-10.14-1.45-10.48ZM62.34,10.23c-.63-.86-.86-2.12-.96-3.51.81.68.77,2.21.96,3.51ZM60.1,14.06c0-.31-.07-3.76.16-3.72.68.13.8,8.79.8,9.78,0,5.01.46,10.04.34,15.04-.06,2.46-.3,4.91-.58,7.36-.13,1.14-.27,2.28-.4,3.43-1.09.11-2.15.01-3.23-.13-4.36-.58-8.31,1.93-12.76.77,2.67-3.56,2.96-8.29,5.12-12.11.75.27.96,2.81,2.2,1.13.96-1.31-.08-2.98,2.28-3.04-1.22,4.4-2.86,8.64-3.83,13.07,1.94,1.39,3.62-4.9,3.52-6.06,2.18-3.34,2.64-8.55,3.41-12.35.72-3.58,1.66-7.12,2.45-10.68-.06.05.53-3.3.53-2.47ZM51.15,30.95c.17.17-.23.41-.32.32-.17-.17.23-.41.32-.32ZM43.48,2.58c.26-1.36,6.99-.64,7.99-.64-.16,2.13-3.41,4.68-4.56,6.36-.93,1.36-2.01,2.16-3.75,2.25-.32,1.56-.86,3.05-1.43,4.53-.42,1.11-.3,2.17-1.61,2.17-.73-.25-1.09.02-1.06.81,0,1.83.67,2.32-1.41,2.11-.91-.09-.46,1.93.56,1.68,1.2-.3,1.4-.54,1.75-2.04.89,1.56-.85,3.07-1.28,4.46-1.42,0,.21-2.36-1.74-2.22-1.55.12-.22-1.61.14-1.61-.11,0,.22-1.37,0,0,.27-1.67,1.74-3.47,2.37-5.09.74-1.89,2.49-3.81,3.74-5.5,1.34-1.82,3.41-2.92,4.8-4.75,1.31-1.72.15-3.1-1.13-1.2-1.12,1.67-2.76,2.56-4.13,4.05-1.55,1.68-2.63,3.07-3.88,5.01-2.65,4.11-4.36,8.98-6.73,13.3-2.7,4.94-5.68,9.67-8.46,14.58-1.34,1.56-2.29,4.14-3.21,5.95-.78,1.54-2.32,2.56-2.86,4.25-.63,0-4.3.42-4.62-.16-.29-.54.31-1.07-.49-1.43-.47,0-3.24.11-3.57-.46-.55-.94,3.96-.49,4.39-.47,1.23.05,3.16.17,3.98-.99-1.9-1.63-6.4.4-6.4-2.55.44-2.14,4.04-.43,5.11-1.91-.03-.6-3.35-.47-3.83-.32.75-4.45,3.83-8.01,5.63-11.92,1.66-3.61,4.62-6.98,7.22-10,3.35-3.89,7.15-7.39,10.17-11.56,3.19-1.87,5.85-6.06,9.91-6.06-.46-.39-.99-.6-1.6-.64ZM32.29,31.59c-1.19.25-1.02,1.74-.64,2.55-.83-.09-.83.72-.96,1.28-1.49-1.36-1.3,3.44-.98,4.09.56,1.15,1.62,1.71.8,2.86-.64.9-.97.93-1.41,1.99-.86,2.08-2.2,3.71-3.63,5.3-1.26,1.4-3.33,3.2-3.41,5.21-.18-.03-.79-1.25-.72-1.42.13-.31.71-.08.94-.21.47-.27-2.08-3.4-2.36-.99-.22,1.87-1.92.45-.81-1.14.85-1.21,1.78-2.44,2.31-3.89.61.6.45,6.58,2.87,2.92.57-.86.63-.45.98-1.4.17-.3.4-.55.69-.75.46-.46-.18-4.52-.8-4.51-.53,0-2.71,2.63-1.35-.18.81-1.66,1.88-3.16,2.87-4.71,1.8-2.79,4.49-6.12,5.62-9.23.3.25.41.56.32.96,1.34-.89.01-2.23,1.92-2.23,1.36,0,1.7-.54,1.6-1.91.73.09,1.36-.97,1.83-.6.57.47-.79,4.24-1.1,4.83-.53.98-1.66,1.76-1.88,2.83-.12.63-.22,1.52-1.08,1.55-.21-1.13-.46-2.58-1.6-3.19ZM33.88,36.37c-.12.42-.23.85-.32,1.28-1.09-.53-.82-1.28.32-1.28ZM34.52,24.9c.7.05.69.8.64,1.59-1.07.33-.5-.99-.64-1.59ZM35.72,22.98c-.03-.24.08-.31.33-.2.16.16-.31,1.6-.88,1.48.15-.38.34-.72.64-.96-.27.21-.3-1.01-.09-.32ZM12.15,53.59c.04-.63,1.2-.3,1.74-.3.03-.07.46-.29.18-.02.59-.34,1.24-.45,1.92-.32-.03,1.52-1.26,2.42-1.6,3.82-1.1-.14-2.05-.7-3.2-.64.16-.21,3.32-2.23.96-2.55ZM11.83,28.72c1.03.48-.17,2.46.46,3.21.62.75,1.85,1.03,1.14,2.21-.23-.17-3.17-3.21-2.88-.64,1.32-.16.96,1.69,2.24,1.59-.53.49-.25,1.66-1.27,1.59.18-1.25-.21-2.22-.96-3.19.61.78-1.38.04,0,0-1.35.04,1.21-4,1.28-4.78ZM10.23,40.83c-.87.23.22-1.5-.64-1.27.57-1.08,1.46.86.64,1.27ZM18.86,22.66s.02.08.03.11c.39.11,1.39.26,1.57.21-.21.73-1.07.87-1.28,1.59-.61-.03-.32-1.11-.3-1.67-.05.05-.19-.1-.14-.19-.03-.03,0-.05.12-.06ZM15.66,13.74c.17.16-.23.41-.32.32-.17-.17.23-.41.32-.32ZM4.48,31.15c.35-1.6.66-2.85,1.31-4.24.26-.55.54-1.06,1.24-1.06.12-.69-.54-.86-.32-1.59,1.54-1.2,2.04-3.26,3.58-4.61.82-.72,1.61-1.49,2.24-2.39.77-1.12,1.03-.88,2-1.67.91-.74,1.9-1.53,2.7-2.3.98-.96-.27-.79,1.37-1.53.94-.42,1.79-1,2.61-1.61,1.37-1.01,2.68-2.1,4.28-2.75,3.87-1.58,7.38-3.26,11.6-3.86.1.76-.92.32-.96.96,1.36-.09,2.46-.96,3.84-.96-.5,1.77-3.91,2.99-5.06,4.26-1.6,1.78-3.84,5.13-6.13,5.94.61-4.06-3.66,1.35-.32.64-1.49,1.88-3.7,5.24-6.08,6.06-.07-1.19.55-3.64-.64-4.46-2.09,0-2.11,3.49-1.6,5.1-1.83-.1-4.52,1.86-4.54,3.37-.02,2.11,1.05,5.57-.9,7.15-1.03-1.28.83-5.32-1.28-5.74,1.49-3.37,4.62-8.84,7.99-10.52-.28.14,1.63-2.63,0,0,1.07-1.72,2.68-3,4.11-4.4.72-.7,1.41-1.45,1.96-2.29.77-.46,1.75-.77,2.24-1.59-2.87.53-7.02,3.79-8.63,6.06-1.05,1.48-2.25,2.15-3.37,3.59-1.22,1.57-2.19,2.67-3.16,4.42-2.39,4.35-4.96,8.6-7.21,13.03-2.61.26-3.41-.52-2.87-2.99ZM8.63,52.63c-.65,1.21-.92-1.1-.32-1.27,1.12.09-.81,1.19.32,1.27ZM7.67,44.66c.22-.73-.44-.91-.32-1.59-.75.06-.38,1.18-.81,1.51.32-.32-.32-1.19-.47.09.17-1.46.18-3.5,2.24-3.19.47,1.06,1.12,2.98-.64,3.19ZM7.67,38.92c.06-.36.32-.18.32,0-.06.36-.32.18-.32,0ZM4.15,39.24c-.31-.27-.34-.39-.28-.41-.41-.94.12-2.53-.03-3.41,1.67.31,3.08.24,2.17,2.16-.24.43-.42.88-.57,1.34-.51-.16-.94-.05-1.28.32ZM5.43,51.99c-.86-.81.74-.93.32.32.13,1.15-.58.44-.32-.32ZM5.43,49.12c-.04-.14-.05-.23-.06-.29-.21-1.18.77-1.19,1.65-.99-1.03,1.18.77,1.28-1.6,1.28ZM7.35,56.77c-.86-.28.15-1.29.96-.96.49,1.13-1.09.19-.96.96ZM8.31,59.64c.14-.39.41-.66.96-.64-.14.39-.41.65-.96.64ZM10.23,60.28c-.1,1.52,1.77,1.39,1.37,2.83-.22.77-.33,1.89-1.37,1.95-.07-.48.83-3.05.11-3.23-.36-.09-.55.5-.97.39.31.02-.01-.88-.1-.58,0,.18-.02.36,0,.55-.03-.3-.02-.47,0-.55.03-.97.37-1.82.96-2.64.6,0,1.84.9,2.23,0,1.36,1.26-1.58,1.41-2.23,1.28ZM14.38,67.29c.19-.79-.51-1.12-.32-1.91.78.24,1.15.24,1.92,0-.3.81-.55,1.82-1.6,1.91ZM16.64,70.48s-.04-.06-.01-.31c-.01.11,0,.21.01.31.05-.01.15-.37.05-.35.36-.24.77-.33,1.21-.28,0,1.84-1.12,1.49-1.26.63ZM17.58,59.64c-1.22-.17-1.42.76-1.92,1.59-1.15-.99.29-3.91.96-4.78-.11,0,.96,2.67.96,2.87,0-.28.28-.51.47-.59.61-1.35-.49-3.87-.16-5.15,2.15-.37,1.5,2.69,3.2,2.23-.88,2.16-2.12,4.16-2.88,6.38-.97-.34.26-2.14-.64-2.55ZM24.61,73.99c-.05-.33-.02-.42.03-.41.16-.51.84-.53.93-1.18,1.32,1.35.28,1.88-.96,1.6ZM27.17,73.03c.06-.36.32-.18.32,0-.06.36-.32.18-.32,0ZM24.3,69.72c-1.24,1.34-.98.3-2.02-.42-1.24-.87-1.97,1.1-3.1,1.19.01-1.05.91-1.22,1.92-1.28-1,.06,1.76-1.96,0,0,1.8-2,5.54-1.88,6.4-4.78-1.75-1.28-6.72,1.74-8.95,1.59.43-1.2,2.61-.51,3.51-.96,1.51-.86,3.46-1.34,4.48-2.87-.07-.59-5.33.75-6.07.63.31-1.11.78-2.15,1.28-3.19.93.08,1.81-.07,2.68-.38,1.56-.57,4.14-.88,4.99-2.49-2.15-.88-4.24.98-6.39.96,1.26-3.2,3.42-5.85,5.66-8.41,2.11-2.41,3.51-6.03,5.33-8.77,1.73-2.6,1.68-5.5,3.52-7.98,1.4-1.89,2.5-4.24,2.1-6.72,2.15-1.73,2-4.73,3.07-6.98,1.12-2.37,1.67-4.94,3.5-6.87,2.21-2.34,3.83-5.11,6-7.45,1.08-1.17,1.31-2.43,3.01-2.14,1.38.23,2.74.69,3.92,1.44-.11.58-1.2.31-1.54.37-.85.16-.25,2.36-.2,2.87.2,2.15.49,4.3.42,6.46-.02.46-.36,4.33-.84,4.22-.59-.14-1.42.66-1.87,1.18-1.06,1.21-.02,2.93-.42,4.36-.23.83-1.5,1.07-.91,2.22.55,1.05,1.37,1.4.72,2.85-.74,1.63-.4,1.1-1.72.63-2.13-.76.47-3.89.33-5.3-.18-1.69.64-6.87,1.68-8.51.11-.16,1.26.88,1.56.89,1.32.07.59-2.8.53-3.52-.15-1.7.02-2.04-.83-3.33-.62-.95.37-3.31.22-4.44-1.37,1.02-1.16,3.39-1.41,4.88-.22,1.34-1.1,2.59-1.45,3.97-.85,3.27-2.14,6.5-3,9.83-.46,1.75-.44,3.8-1.3,5.37-.79,1.45-1.31,3-1.47,4.64-2.01,2.29-1.76,5.73-3.34,8.26-2.24,3.57-3.55,7.73-5.86,11.26-2.18,3.33-4.79,6.5-7.22,9.65-2.12,2.76-4.58,4.51-6.92,7.04ZM43.48,56.77c-.01.31-.39.25-.64.32.01-.31.39-.25.64-.32ZM30.05,70.8c.17-.94-.69-1.35-.64-2.23.79-.38,1.27-1.13,1.6-1.91.67,0,1.04-1.26,1.67-1.77,1.02-.83,1.57-2.59,2.48-3.64.63-.9,3.23-5.1,4.15-5.1-.11,0,.24-1.57,0,0,.22-1.42,1.77-2.04,1.92-3.51.82.38.17,2.21.32,2.87-2.3-.41-2.89,1.98-3.9,3.52-.78,1.19-.09,3.2,1.48,2.14,1.61-1.08-.57-1.05-.45-2.15,1.34-.24,2.01-1.45,3.52-1.27-1.95,2.26-3.83,4.87-5.5,7.27-.8,1.16-2.44,2.48-3.65,3.87.09-.9-.03-2.1-.86-2.44-.18.04-.51.04-.54-.09.21.96-1.4,3.19.84,3.21-.39.52-.69,1.05-.84,1.58-.7-.43-.75-.62-1.59-.32ZM33.57,75.26c0-.31.39-.25.64-.32,0,.31-.39.25-.64.32ZM32.46,72.33c-.23-.21,1.75-2.19,1.96-2.5,2.11-3.19,5.37-5.79,7.78-8.99.16-.28.7-1.11.64-.87.8-2.96,1.82,1.71,2.06,2.3.48,1.21,2.89,5.42,1.12,6.13-1.27.51-1.97.87-3.12,1.42-1.38.67-2.25.02-3.4,1.16-.81.81-1.7,1.55-2.73,2.06-1.12-.9-3.21.28-4.3-.71ZM35.48,74.95c.88-1.67,3.41-1.26,4.7-.98-.07-.02-.07-.02.1.02.79.19,1.12-.51,1.92-.32-.06,1.69-5.85,1.28-6.71,1.28ZM42.83,72.08c-.1-.73.92-.35.96-.96.86.28-.15,1.29-.96.96ZM44.75,70.8c0-.31.39-.25.64-.32-.01.31-.39.25-.64.32ZM49.23,73.35c-.46.2.02-.55,0,0,.13-2.98-3.87.58-3.82-.37.05-1.22,1.02-1.57,1.88-1.98,1.34-.65-.38-1.31-.58-1.64-.42-.68.71-.59.6-1.11,1.1,1.57,1.9,3.35,3.2,4.78-.05.42-1.97.61-1.28.32ZM55.62,71.76c-.39.04-.2-.46,0,0,.39-.03.19.46,0,0ZM102.29,76.86c.23.02.34-.09.32-.32,1.25.34-.32,1.93-.32.32ZM64.89,33.19c.21,0,0-.21,0,0h0ZM18.05,58.74c-.1.23-.25.43-.47.59.8-.55.71-.68.47-.59ZM14.38,67.29c1.08-.1.23-.97,0,0h0ZM14.06,53.27s-.11.02-.18.02c-.01.02.03.03.18-.02ZM64.43,46.04c-.06.07-.12.13-.17.21.45,0,.43-.45.17-.21ZM3.87,38.83c.07.16.16.3.28.41.04-.27-.21-.44-.28-.41ZM18.88,22.91s.02-.06,0-.13c0,0,0,0-.01,0,0,.04,0,.08,0,.13ZM5.38,48.83c.02.09.02.18.06.29.36,0-.07-.62-.06-.29ZM73.44,45.24c.15.22.38.36.73.37-.42-1.48-.98-.86-.73-.37ZM102.29,76.86c0,.21.27.06,0,0h0ZM42.83,59.96c-.2.3-.42.58-.64.87-.11.2-.02.11.64-.87ZM24.64,73.58c-.04.11-.06.24-.03.41.29.07.12-.39.03-.41ZM63.29,24.26s.02.06.03.09c0-.04-.02-.18-.05-.34,0,.08,0,.16.02.25ZM33.57,37.65c-.07-.6-.43-.21,0,0h0ZM40.28,73.99s-.07-.01-.1-.02c.18.04.8.19.1.02ZM36.12,26.17c.07.92.73.09,0,0h0ZM60.1,14.06c-.16.83-.35,1.65-.53,2.47.03-.02.17-.65.53-2.47ZM70.65,46.89s0,0,0,0c0,0,0,0-.01,0,0,0,0,0,0,0ZM35.8,23.3c-.03-.14-.06-.24-.09-.32.01.09.04.19.09.32ZM33.95,5.22c-.28.04-.32-.29.15-.39-1.08.12-3.43.73-3.45,1.54,0,.39,2.2-.51,3.3-1.16ZM34.52,4.81c-.08.1-.29.25-.57.41.14-.02.34-.12.57-.41ZM25.15,15.07c-.95-.79-2.71.08-3.73.27.07.23.18.44.32.64-.06-.26,1.77-.45,0,0,.37-.09,5.81,1.08,3.41-.91ZM7.67,28.72c-.92-.76-2.22.14-2.55.96.8.64,2.63.26,2.55-.96ZM49.53,39.88c.1-.13.22-.24.34-.32-.35.23-.4.31-.34.32ZM49.95,39.62c.01.1-.33.27-.42.26-.68.83-.97,2.52-.2,3.22,2.02,1.84,1.24-2.94.62-3.48ZM26.85,40.83c-.78,1.03.36,3.85,1.6,2.87-.53-.96-.38-2.6-1.6-2.87ZM108.32,53.98c.55-.94-.25-2.2-.59-3.26.28.89-.53,0,0,0-1.62,0-1.68.04-2.25,1.6-.35.95-.77,2.31.02,3.18,1.25.08,2.2-.46,2.82-1.52ZM59.97,53.32c.02.23-.77.9-.19-.06-.66,1.09-2.13,4.3-.47,5.1.93.45,2.36.53,3.19-.17,1.15-.97.11-2.44-.83-3.05-.46-.3-1.24-1.55-1.69-1.83ZM59.78,53.27c.05-.01.12.01.19.06,0-.06-.06-.08-.19-.06ZM87.26,56.94c-.43-1.51-.78-1.44-2.23-1.44.53,0-.32,1.38,0,0-.36,1.54-1.38,3.27-.43,4.47.68.85,1.7.77,2.39-.12.63-.81.54-1.98.28-2.9ZM100.63,57.26c-.34.87.29,1.34.7,2.06-1.44-.38-.39,4.98,1.58,2.29,1.27-1.74.76-4.45-1.5-4.56.43.12-.92.77-.78.21ZM100.7,57.09c.26-.04.49-.05.72-.04-.11-.03-.33-.03-.72.04ZM70.65,61.87c.51-.09-.52,1.89,0,0-.62,2.27-2.24,9.41,2.82,6.73,1.98-1.04.31-2.89-.65-4.07-.6-.73-.97-2.87-2.17-2.67ZM36.76,64.74c.11-.67.04-.7-.02-.55.04.18.05.37.02.55ZM36.76,64.74c-.14-.03-.08-.4-.02-.55-.27-1.41-2.26-2.44-2.44-.62-.19,2.04,1.86,1.05,2.46,1.17ZM31.65,66.34c.21,0,.38.03.54.09.19-.04.2-.11-.54-.09ZM93.9,74.23c-.18.38-.15-.82-.05-.87-.73-2.39-4.03-4.37-4.14-.72-.09,2.96,3.11,4.85,4.19,1.59ZM93.85,73.36c.06.21.11.42.14.63-.05-.49-.1-.65-.14-.63ZM93.98,73.99c-.02.09-.06.16-.08.24.02-.05.05-.12.08-.24ZM78.22,76.71c-1.08-1.59-3.49-3.07-2.94.19.3,1.81,2.81,1.97,3.02.15-.09.37-.43-.81-.08-.34Z"/>
    </g>
  </g>
</svg>