<?xml version="1.0" encoding="UTF-8"?>
<svg id="Layer_2" data-name="Layer 2" xmlns="http://www.w3.org/2000/svg" viewBox="0 0 85.7 119.61">
  <defs>
    <style>
      .cls-1 {
        fill-rule: evenodd;
      }
    </style>
  </defs>
  <g id="food_icons" data-name="food icons">
    <g id="wheat">
      <path class="cls-1" d="M38.05,61.93s0-.03,0-.05c-.01,0-.01,0-.02,0,.01.02.02.04.03.05ZM21.76,46.53c-.31-.11-.64-.2-.97-.27-.66,0,.6.23.97.27ZM38.68,64.75c.33.92,1.39-.08,1.92,0,.56.35,1.04.79,1.45,1.32.37.38,2.13,2.61,2.71,1.87-1.63-1.75-3.13-3.61-4.46-5.6-.32-.48-1-2.52-1.81-1.9-.11.21-.28.33-.49.37-1.33-1.01.53-1.33.73-2.11.36-1.39-.97-2.01-1.01-3.2,1.83-3.87,3.66-8.04,7.03-10.84.11.8,1.1.63.96,1.59-1.87-1.97-.24,3.7-.25,3.96-.03,1.18-.51,2.23-.71,3.37.48.87,1.65-.49,1.92.32-.65.05-.15,1.06-.64,1.28h-1.6c-.91,1.3-1.71,2.02-3.22,2.3-.86.15-2.11,1.12-1.4,2.11.47.66,1.45.54,2.05,1.01-1.21,1.14.1,2.82,1.57,2.24,1.23-.49,1.92-1.83,2.59-2.88,2.85-2.28,3.83-6.26,3.83-9.67,0-2.15-.88-3.79-1.94-5.61-.49-.82-.94-1.67-1.25-2.58-.77-.18-1.52-.42-2.23-.75-1.76-.81-.28-3.07.29-4.53.66-1.7,1.22-3.41,1.31-5.25-3.54-.35-2.94,4.87-4.8,6.37,0-2.91-.59-5.16-1.28-7.97-.73-.99-1.56-3.76-2.76-3.78-1.6-.03.56-4.46.84-5.46.24-1.67,1.67-3.41.64-5.1-2.41,2.14-3.14,5.65-3.89,8.63-.28,1.12-.21,5.85-1.86,6.03,1.3-2.92,0-7.67-.61-10.63-.38-1.84-.88-3.68-1.75-5.36-.74-1.42-1.73-.92-3.08-.58-.42.56-1.03,1.11-.97,1.82.1.36.06.7-.1,1.02-.99.87-.55-1.72-.54-1.81.16-1.08.61-6.88-.95-7.09-.91,2.52-1.32,5.21-1.49,7.88-.12,1.83.32,5.63-1.7,6.78-.29-2.05.37-4.08.03-6.23-.33-2.1-.9-4.23-2.04-6.04-1.05-1.67-8.86-7.27-8.86-2.71,0,1.09.21,1.3,1.3,1.57,1.22.31.91.46,1.97,1.06,1.87,1.05,2.87,1.62,3.69,3.81.7,1.86,2.51,8.83.07,10.14-1.99-1.52.2-5.38-2.25-6.05-.61-.17-.34-3.15-.63-3.84-1.1-.38-1,.69-1.92.64.3-1.54-1.57-.39-1.6-.96,0-2.37-.1-3.59-1.44-5.57-1.62-2.39-2.33-5.15-4.08-7.41-1.39-1.78-2.77-.12-2.14,1.62.61,1.67,1.47,3.04,2.15,4.58.11.24,2.86,5.76,1.35,4.87,1.35.8,1.18,4.45,0,0,1.29,4.88.97,10.89,5.35,14.11.98.72,1.8.81,2.43,1.91.34.59.74,1.12,1.49,1.2,2.12.25,2.61-1.28,3.83-2.55.15,1.69-.2,3.4.08,5.08.2,1.19,1.56,2.88,2.46,1.11.72-1.44.28-3.38.34-4.92.57-2.28,1.61-4.39,2.67-6.48.52-1.02,1.04-2.04,1.49-3.08.19-.95-.5-1.6-.32-2.55.69.12.87-.54,1.6-.32.11,1.03.38,2.03.54,3.05.2,1.37-.12,1.18-.67,2.22-.47.89-.18,2.38-.18,3.33,0,.78.48,3.98-.32,4.46-.82-.21-.11-4.03-1.87-1.31-.56.87-1.34.12-1.34,1.53,0,1.52,1.21.96,2.25.73.23,2.26,1.64,2.91-.62,4.51-1.07.75-2.23,1.46-2.57,2.82,1.53,1.11,1.99,1.9,3.83.42.42-.34,1.54-1.49,2-1.63.05-.01-1.35,3.69-1.51,4.24-.5,1.71-.62,3.49-.48,5.26-1.28-.42-.85-2.42-2.56-2.23-1.19.84.41,1.98-.32,2.87-2.46-2.45-6.2-.92-9.06-1.97-2.44-.89-4.9-1.71-7.33-2.62-1.83-.68-6.04-.02-2.43,1.51.78.33,5.51,1.49,5.4,2.43-1.11.58-2.64-.75-3.23.61-.49,1.15-.54,2.36.31,3.29,1.7,1.88,3.92,3.21,6.3,4.07,2.8,1.02,5.8,1.45,8.77,1.61,1.18-.58,2.62-.25,3.84,0,.91-.14.75-1.37,1.6-1.59.51,3.2,4.16,2.36,5.35,4.83-.05-.11-4.71-1.55-5.45-1.77-2.35-.71-4.86-1.05-7.29-.54-3.75.79-7.77-1.48-11.8-.61.83,3.12,6.34,1.83,8.63,2.55-.52,1.23-.68,2.46-1.38,3.44-.72,1.01,1.22,2.45,1.91,3.04,2.28,1.91,5.16,2.83,8.09,3.09,3.32.3,8.85.07,11.52-2.24ZM13.53,22.89s-.08-.05-.11-.07c-.06.07-.21-.06-.08-.12-.03.03,0,.07.08.12.02-.02.03-.07,0-.15.02.06.05.13.1.22.34.18,1,.42,1.18.42-.24.73-.91.03-1.18-.42ZM11.19,47.85c-.16-.17.23-.41.32-.32.16.16-.23.41-.32.32ZM23.34,50.09c0-1.9-2.72-2.1-2.56,0-1.31-.49-2.17-1.57-2.94-2.68-1.07-1.54-1.63-.41-3.14-.51-.34-1.03,5.35-.64,6.07-.64,1.11.24,1.21.29.97.27,2.16.73,3.89,2.22,5.74,3.56.05-.11-3.76.06-4.16,0ZM38.04,34.15c1.16.22.44,2.32.64,3.51-2.28-.36-.35-1.7-.64-3.51ZM36,31.03c-.15-.77,1.4-2.16,1.4-.39-.82-.31-.48.63-.96.69.02.05-.05.05-.32-.05-.25-.24-.23-.28-.12-.24ZM33.55,52.02c-1.6-.34-.42-1.09-1.85-1.98-.63-.39-1.85-1.02-2.22-1.61-.84-1.34-.47-1.02.21-2.21,1.15-2,.68-5.24,1.72-7.56.96-2.13,2.34-4.04,3.43-6.1.8-.07,1.11.71,1.92.64-.37,1.85-2.23,3.66.09,4.69,2.1.94.75,2.21.55,3.91-1.03.07-2.17-2.04-2.27.69-.03.78-1.07,2.39-1.57,3.46-.41-.09-1.64-4.31-1.95-.93-.12,1.25-.28,4.58.99,5.07,3.84-.44,7.62-6.51,8.31-9.88,1.15.8-1.18,3.33.64,3.83-2.4,2.86-4.16,6.21-5.75,9.56-.84-.44-1.27-1.37-2.26-1.58ZM22.81,60.64c-.47.26-.37.77-1.07.6-.26-.96-2.64-1.84-.91-2.72,2.02-1.02,3.87-.91,6.08-.39,2.2.52,4.23,1.51,6.35,2.28,1.53.56,3.65,1.67,3.51-.77.27.35,1.05,1.87,1.26,2.23,0,0,.02,0,.02,0,.04.08.03.09,0,.05.07.34-.77-.12-.03-.05,0,0,0,0,0,0-.72-.08-1.57-.08-1.26.96-.55.12-1.71-2.06-2.36-.7-.83,1.76-1.7-.47-2.72-.62-1.92-.28-4.18-.6-6.25-.86-.62-.08-2.05-.35-2.62-.03ZM34.85,32.55c-2.06,3.9.94-.08,0,0h0ZM36.45,31.33c-.04-.07-.31-.25-.44-.3.02.09.05.18.12.24.14.05.24.06.32.05ZM7.36,11.83c.3-1.32-.96-.06,0,0h0ZM14.39,34.79c-.08-.5-.11,0,0,0h0ZM8.96,32.55c-.15-1-.65-.42,0,0h0ZM.02,17.78c0-.07-.02-.14-.01-.21,0,.12,0,.18.01.21ZM14.36,41.84c1.97.62,4.03.83,6.09.71,2.15-.12,1-.65,2.25-1.71-.55-1.33,1.25-.5.96-1.59-.72-1.46.03-2.49-1.14-3.75-2.46-2.67-4.92-4.64-8.03-6.5-3.29-1.98-6.19-4.84-9.04-7.4C4.05,20.33,2.08,17.57,0,17.57c.17,0,.06.34.01.21.14,2.21,3.87,4.88,5.34,6.19,1.1.98,3.89,2.63,4.24,4.12-.82-.04-10,.62-6.94,3.16,1.15.95.84,1.33,1.37,2.6.51,1.23,1.57,2.5,2.47,3.58,1.72,2.07,5.29,3.6,7.87,4.41ZM22.06,38.61c-.77,1.05-1.52-.88,0,0h0ZM18.54,37.65c-.39.03-.2-.46,0,0,.39-.03.2.46,0,0ZM10.55,30.96c3.47.65,6.12,2.75,8.63,5.1-.25.52-3.98-1.34-4.79-1.27.17.29.28.61.32.96-.37-.12-1.14-.96-.32-.96.02.1-3.4-1.04-3.84-.96v-2.87ZM9.91,30.96c-.11.8-1.11.64-.96,1.59-.68-.44-1.1-1.13-1.28-1.91.85-.15,1.43.21,2.24.32ZM25.26,31.28c-.37.48-1.12,1.34,0,1.59.19-.19.75-1.51,0-1.59ZM85.11,115.3c-1.65-1.07-3.43-2.97-4.79-4.39-1.76-1.83-3.78-3.34-5.46-5.27-3.64-4.17-6.14-9.19-9.27-13.75-.96-1.4-2.72-3.4-2.92-5.14,1.33-1.66,2.36-3.24,3.18-5.11,1.21-2.79,1.56-5.33,1.16-8.48-.25-1.91-1.55-2.56-2.35-4.02-.27-.49,1.95-4.56-.74-3.23-.37.18-1.51,1.17-1.85,1.57,0,.05-.02.1-.03.15-.06.02-.08.02-.07-.01-.25-.29.74-3.77.09-.12,0,0,0,0,0-.01.74-3.84,3.34-6.99,3.49-11.01-3.78-.07-3.4,5.49-5.43,7.33.02-3.04-1.07-6.56-2.72-9.12-.44-.68-2.21-2.69-3.18-1.86-.62.53-.29,1.85-1.45,1.74.76-3.41,2.83-6.28,2.87-9.88-2.47-.32-3.98,5.67-4.15,7.33-1.1.73-.96,4.09-.96,5.1-1.04,1.43-1.99,2.93-2.72,4.54-.85,1.86-1.58,3.86-1.42,5.92.19,2.41-.96,2.02-2.52.74-.62-.51-3.03-2.63-3.49-1.09-.24.8-2.84.42-3.62.54-2.84.42-8.83.47-9.75,3.58-1.19,4.04,2.8,5.94,6.22,7.14,3.9,1.38,7.75,1.26,11.61-.23.84-.33,1.67-.7,2.5-1.07.9.72,1.41,1.77,2.24,2.55.13.9,1.48,1.23,1.83,1.96.38.8-4.61-1.17-4.91-1.29-1.86-.73-4.56-.51-6.37-.38-3.37.26-5.74,6.06-3.16,8.12.92.74,1.81.69,2.65,1.46.67.62,1.47,1.07,2.31,1.41,2,.8,4.22,1.14,6.36,1.14,2.91,0,5.39.19,8.06-1.12.34-.17,1.54-2.01,1.28-2.47-.09-.07-.18-.11-.25-.11.13-.01.21.03.25.11,1.12.81,3.78,6.55,4.24,7.37,1.37,2.45,2.75,4.9,4.43,7.15,1.87,2.5,3.87,4.84,6.01,7.12,1.87,1.99,3.21,4.36,5.08,6.37.86.93,1.94,2.33,3.24,2.56.42.04.82-.02,1.21-.19.14.53.49.74,1.05.65,1.91.03,3.8-3.28,2.22-4.3ZM28.45,72.4c.23.02.34-.09.32-.32.88-.18-.32,2.35-.32.32ZM40.5,74.08c-1.86.06-1.04-1.17-2.58-1.24-.55-.03-.79-.42-1.16-.76-1.86-1.74-1.92,2.17-3.41,1.53-.14-.06-2.32-2.33-2.4-1.84.14-.84,4.26-1.19,4.8-1.22,2.53-.15,4.73-.15,7.08.57-.15.99,1.11.92.96,1.91-1.12.38-2.08,1-3.29,1.04ZM63.3,71.13c-1.16,1.29-.09-.51,0,0,.04-.34.15-.66.32-.96,1.21,1.16,1.62,2.84,1.6,4.46-.48-.32-1.02-.43-1.6-.32.08,1.27.61,2.2.26,3.13-.39,1.07-1.03,1.84-1.97,2.34-.58.31-2.92,1.74-3.72,1.23.28-2,2.13-3.17,2.56-5.1,1.31-1.32,1.33-3.4,2.55-4.78ZM57.22,65.39c.72.14.13,1.57.32,2.23-.41-.52-.83-1.73-.32-2.23ZM49.55,74.31c1.89-1.29,1.85-2.68-.64-3.19.02-1.83.11-2.59.21-2.77.32-2.3,1-4.52,2.1-6.59.76-1.43,2.79-6.14,4.54-3.78,1.16,1.55,1.25,4.28.3,5.95-.71,1.23-.74.83.21,2.1.13,1.01-.52,1.84-.32,2.87-2.05,0-1.78.76-2.97,1.81-.99.87-.72,2.87.73,2.97-.88,2.31-2.84,1.36-4.15.64ZM55.62,71.76c-.57.09-.66-.3-.32-.32.17-.49.33-.02.32.32ZM58.8,85.59c-.24.21-.34.49-.3.83-1.4-1.17-3.23-3.59-2.23,0-.62-.03-1.73.78-1.99-.09-.3-1-2.06-.59-2.88-.69-1.81-.21-4.94-1.81-6,.46-1.01-.52-3.19-2.35-3.2.32-1.4-.28-1.22-2.32-2.87-2.23-.47-3.83,9.48.25,10.9.03.71-.11,3.79,1.61,4.79.79,1.21-1-.33-2.35-1.31-2.73,1.67-1.61-.5-3.23-.96-4.78,1.8.03,3.96-2.76,4.95-3.99.7-.89,1.86-4.74,3.23-4.62,0,0,.01-.02.02-.03-.59-.19-.06-.3.08-.05-.02-.01-.05,0-.08.05.04.01.06.02.11.04-.04-.01-.09,0-.13-.01-.24.36-.76,1.79-.95,2.18-.89,1.8-1.79,3.6-2.79,5.34-1.05,1.84-1.88,2.78-1.88,4.91.2.7,1.72,1.46,1.92.32,1.41,1.14,2.08,2.9,2.88,4.46-.62.77-.82-.54-1.3-.52ZM62.66,93.76c-1.07-1.95-2.74-3.48-3.2-5.74.58.61,1.27.09,1.92,0,.34.67.72,1.33,1.11,1.97.78,1.32,1.57,2.63,2.08,4.08-.74,0-1.13-.51-1.92-.32ZM78,112.57c-.17-.16.23-.41.32-.32.16.16-.23.41-.32.32ZM83.23,117.44c.32-.89-1.4-.5-.45.07-1.48-.74-2.35-2.21-3.5-3.34.18-1.31,2.6,1.41,2.88,1.59.6.63,1.51.74,1.07,1.68ZM49.12,68.36c-.13.91-.2,1.84-.21,2.77.76.15.46-3.2.21-2.77ZM28.45,72.4c0,.21.28.06,0,0h0ZM61.95,67.61s.04.02.07.01c0-.05.02-.09.02-.14-.05.05-.08.1-.09.12ZM42.84,71.13c-.57-.18-.18,1.13,0,0h0ZM62.66,93.76c.98-.23-1.05-1.92,0,0h0ZM29.73,67.94c-3.04-.97-6.45-.63-9.59-.64,3.41,0-.23.87,0,0-.58,2.17,8.91,3.2,9.59.64Z"/>
    </g>
  </g>
</svg>