<?xml version="1.0" encoding="UTF-8"?>
<svg id="Layer_2" data-name="Layer 2" xmlns="http://www.w3.org/2000/svg" viewBox="0 0 50.18 114.14">
  <defs>
    <style>
      .cls-1 {
        fill-rule: evenodd;
      }
    </style>
  </defs>
  <g id="food_icons" data-name="food icons">
    <g id="wineglass">
      <path class="cls-1" d="M22.29,48.52s.05.06.12.07c0-.1-.05-.11-.12-.07ZM48.93,3.33c.13.97-.77-.48-.33-.26-1.97-1.57-5-1.85-7.34-2.48-2.92-.77-6.41-.64-9.41-.44-5.87.38-11.24.82-16.99,2.24-2.06.51-5.9.57-7.47,2.21-2.74.46-3.79,2.91-5.91,4.05C-.67,9.8.19,14.17.08,16.27c-.16,3.05-.07,5.69.23,8.73.63,6.47.75,12.94,2.68,19.2,1.67,5.39,3.84,9.64,6.94,14.28,2.67,2.13,5.53,4,8.47,5.72,2.23,1.31,1.56,7.12,1.72,9.69.42,6.65.75,13.31.68,19.97-2.6-.15-5.1.39-7.67.64-1.43,1.16-3.06,2.02-4.52,3.14-3.28,2.55-4.8,7.02-1.82,10.36,1.21,1.36,2.97,2.41,4.55,3.34,1.51.9,4.07.78,5.78,1.4,3.3,1.2,7.03,1.01,10.64,1.29,4.48.34,10.37,0,14.17-2.78.68-.5,1.38-.96,2.22-1.13.73-.87,1.41-1.77,2.24-2.55-.02-1.76.46-3.47.56-5.22.08-1.53-.25-3.1-1.84-3.7-.61.08-.16,2.03-.58,1.89-1.54-.53-.36-1.75-.89-2.76-.74-1.4-4.73-1.77-6.1-2.03-1.63-.31-3.27-.57-4.9-.92.07-.64-.35-.81-.73-1.18-.85-.83-.16-3.81-.59-5.01-1.5-4.22-.94-9.45-.93-13.83,0-2.59.03-5.18.13-7.78.11-3.02.22-4.17,2.76-5.98,3.14-2.24,5.97-4.5,7.52-7.95,3.83-8.48,8.13-16.02,8.13-25.61v-7.89c.59-2.19,1.02-4.41,1.2-6.67.29-3.61-.76-6.17-1.2-9.59ZM19.96,46.54c0-.1.36-.53.52-.49-.24-.05-.29-1.06-.09-.34-.02-.23.08-.29.33-.19.46.46-.78.86-.76,1.01ZM30.39,98.01c.73.75,1.27-1.07,2.41-1,1.35.09,2.55,1.54,3.7,1.03,1.52-.67,2.88-.05,4.14.9,1.77,1.34,1.49,1.82,1.7,3.75.27,2.41,0,2.36-2.1,3.13-1.42.52-2.64,1.41-3.77,2.39-2.09-.12-4.15.11-6.21.45-1.69.28-3.01-.18-4.66-.13-2.73-.05-5.81-1.02-8.39-1.91-1.34-.46-2.12.48-3.41-.16-1.25-.62-3.61-1.57-3.2-3.33.21-.9,1.22-2.54,1.93-2.85.78-.34,2.4-.19,1.44-1.29-1.19-1.36,1.75-1.44,2.47-1.55,1.35-.21,3-.36,4.05-1.34.85.51.16,2.4.32,3.19.29.32.27,1.33.52,1.82.33.64.58,1.31.76,2.01,1.6-.46,2.79-1.17,2.92-2.74.08-1.07-.29-1,.53-2.22,1.01-1.51.4-4.58.4-6.35v-5.58c-.25-5.94-1.61-11.76-2.08-17.67-.07-.3-.13-1.19-.16-3.05.55-.57,4.73-1.32,4.46-.41-.38,1.33-.85,3.89-.63,5.19.02,5.56-.26,11.17.47,16.7.33,2.5,1.4,4.03,1.07,6.57-.16,1.22-.66,2.48-.44,3.69.17.89.28,1.77.18,2.69.66.5.08,3.51,1.97,1.95.99-.82-.57-2.81-.37-3.86ZM30.37,53.06c-.02.24-.1.75-.47.99-.5.34-1.44,2.08-.47,2.51-2.13,2.49-5.13,3.24-8.31,2.87.13-1.24,1.51-1.48,1.92-2.55,1.33,1.43,2.77,2.62,4.07.24.44-.81,2.47-4.02,3.26-4.06,0,0,0,0,0-.01-.07-.03-.03-.29,0-.08,0-.06,0-.05.01.09,0,0-.01,0-.02,0ZM22.4,48.6c-.07-.02-.29.14-.48.33-.19.26-.36.53-.36.48,0-.08.17-.3.36-.48.13-.18.27-.35.36-.4-.05-.1.09-.22.12.07ZM26.56,38.4c.13-.4.41-.65.96-.64-.39,1.19-3.86,3.19-5.11,3.51,1.12-1.22,2.38-2.3,4.16-2.87-1.78.57.13-.4,0,0ZM26.24,44.77c-.25,1.03-.89,1.67-1.92,1.91.72-.56.74-1.82,1.92-1.91ZM41.9,24.69c0,.63-.55,6.71-.43,6.74.4.1.58-.61,1.07-.36-.14,1.39-.58,2.74-.64,4.14-.86.22-.55-.6-.96-.95-1.03.12-1.6,6.92-1.6,7.65-.76,1.2-.89,2.79-1.92,3.83-.76.99-2.24,2.51-2.24,3.82,0-.11,1.5-.66,0,0,.16-.04.33-.08.49-.12.63.16-2.56,4.4-2.72,4.59-.99-.4.97-2.27-.6-2.08-1.5.17-2.37.54-2.92-1.42-2.28-2.1-.66-4.38,1.53-5.9,2.04-1.41,1.99-7.51,2.37-9.92.54-3.47,1.11-6.96,2.17-10.32-1.11-1.21-6.74.59-8.34.67-3.54.18-7.02.76-10.58.91-.63.03-1.66-.31-1.79.56.03.34-.1.58-.4.72-1.39.09-2.78,0-4.16-.19-.85-.11-2.43-.1-3.21.35-.75.44-.86,1.42-1.89,1.43-.21-4.99-1.46-9.99-.64-14.98,2.9.89,5.95,1.32,8.99,1.31,1.63,0,3.21-.38,4.83-.43,1.49-.04,2.93.6,4.38.86,6.25,1.13,12.44-.93,18.56-2.06,1.36-.83,3.47-1.83,1.45-3.36-1.04-.78.08-1.38.96-1.08.86.29,1.27,1.33,1.71,2.04,1.13,1.8-.53,14.51-3.48,13.56ZM29.75,35.53c-.06-.7.26-1.01.96-.96-.34.3-.1,1.18-.96.96ZM45.75,5.26c-.12,1.1-1.83,2.34-2.62,3.13-.96.97-4.46,1.26-5.83,1.65-1.9.54-3.87.3-5.83.27-2.03-.03-3.64.12-5.49-.2-1.8-.31-3.43-.41-5.31-.41-3.93,0-7.71-.2-11.54-.64-2.34-.28-1.1-2.87.68-3.2,1.56-.29,3.62.03,5.05-.55.43-.17.36-1.32,1.17-1.64,1.44-.57,3.07-.64,4.75-.71,2.19-.1,4.56-.77,6.72-.59,1.69.14,3.2.73,4.92.65,1.74-.08,3.37.63,4.83.25,1.68-.44,3.79-1.12,4.96.69-.5-.77,1.19-.24,0,0,1.36-.27,3.78-.89,3.53,1.29ZM48.6,3.07c.11.09.23.16.33.26-.16-.15-.26-.22-.33-.26ZM23.68,65.49c.02,1.02.08,2.04.16,3.05.2.9.43-3.67-.16-3.05ZM30.38,53.05s0,0,.01,0c0-.04,0-.06-.01-.09,0,.02,0,.04,0,.08ZM35.19,49.55c-.47.2.03.38,0,0h0Z"/>
    </g>
  </g>
</svg>