<?xml version="1.0" encoding="UTF-8"?>
<svg id="Layer_2" data-name="Layer 2" xmlns="http://www.w3.org/2000/svg" viewBox="0 0 33.85 114.55">
  <defs>
    <style>
      .cls-1 {
        fill-rule: evenodd;
      }
    </style>
  </defs>
  <g id="food_icons" data-name="food icons">
    <g id="winebottle">
      <path class="cls-1" d="M13.81.8c.52-.12,1.35-.51.47-.57-.1.05-.17.1-.25.14-.08.12-.15.26-.22.43ZM24.96,58.23s-.02.12-.13.34c.15-.29.16-.36.13-.34ZM14.28.23c.19.01.39.02.59.02-.31-.38-.59-.27-.83.1.18-.11.33-.17.24-.13ZM16.65,7.73s.09-.08.15-.11c-.04-.05-.1-.03-.15.11ZM13.88.45c-.54.32-.48.41-.24.38-.01,0-.03,0-.04,0-.14-.07.05-.23.27-.37ZM16.53,7.9c0,.21,0,.41-.01.62.03-.41.08-.65.13-.79-.05.05-.09.1-.12.17ZM13.64.83s.09.01.15.01c0-.01,0-.03.01-.04-.06.01-.12.02-.17.03ZM16.81,7.62s0,0,0,0c0,0,.01.01.02.03,0,0,0-.02-.02-.03ZM14.03.36c-.05.03-.1.06-.16.1.04-.02.1-.06.15-.08,0,0,0,0,0-.01ZM16.52,8.52c.1,0,.18-.04.24-.11-.06.07-.14.11-.24.11ZM10.12,104.79c.11-.12.18-.24.23-.35-.13.14-.29.34-.23.35ZM4.85,95.9s-.06,0-.08.02c0,0,0,0,0,.01.02-.02.05-.03.08-.03ZM4.92,96.11c.1.07.21.07.33-.03.04-.03-.22-.22-.39-.18.08.02.15.13.07.21ZM4.78,95.93c-.05.04-.09.12-.09.25.13,0,.2-.04.24-.08-.06-.04-.1-.1-.14-.18ZM10.48,104.32s0,0,0,0c0,0-.04.03-.1.08,0,.01-.01.03-.02.04.05-.05.09-.09.12-.12ZM5.25,84.46s.03-.07.08-.07c-.31.01-.18.08-.08.07ZM10.48,104.32c-.12.16-.23.31-.35.47.39-.46.43-.53.35-.47ZM4.05,57.29c.3-.04.17-.26,0,0h0ZM30.78,41.52c-.72-3.14-4.78-6.41-7.08-8.69-1.67-1.67-.99-3.69-.91-5.78.1-2.45.29-5,.1-7.46-.09-1.11-.64-3.53.52-4.3,1.44-.96,1.99-1.27,2.08-3.15.08-1.77-.75-3.22-2.67-3.39-1.65-.15-.77-2.97-.65-4.02.19-1.52.65-4.2-1.47-4.49-1.92-.26-3.9.07-5.84.01.04.05.08.08.12.15.12.2-.77.43-1.19.44-.51,1.3-.77,3.68-.73,3.97.16,1.33.4,2.68.26,4.02-1.47.1-3.05,0-4.43.59-2.08.87-2.36,4.6.22,4.94,2.3.31,1.15,2.84,1.11,4.45-.11,3.55.05,7.11-.27,10.65-.26,2.9-3.02,5.45-4.62,7.82-3.61,5.37-3.92,11.37-4.36,17.64-.39,5.59-1.15,11.01-.95,16.63.19,5.14.16,10.25.13,15.4-.03,5.53.36,11.03.43,16.55.02,1.49-.67,4.13.39,5.38,1.38,1.61,3.44,2.62,5.35,3.46,4.09,1.78,10.93,2.9,15.28,1.72,2.57-.69,4.83-2.49,7.27-3.52,1.24-.53,2.48-.4,3.57-1.4,1.38-1.28.83-4.36.87-6.07.17-5.64.24-11.28.17-16.93-.07-5.67-.48-11.35-.37-17.03.05-2.47.13-4.92-.18-7.37-.28-2.18.64-3.9.84-6.03.48-5.26-1.88-9.28-3.01-14.2ZM21.95,12.02c-.97,1.18-1.08-.97,0,0h0ZM19.16,4.58c-.04.99-.17,1.98-.29,2.96-.2,1.55-.99.97-2.36.97-.07-.26-.06-.46.01-.62.04-1.61-.23-3.2-.34-4.8,1.57,0,3.05-.64,2.97,1.48ZM18.12,11.7c.07,1.22-2.75.61-3.2.32.44-.73,2.22-.12,3.2-.32ZM12.68,12.02c0,.31-.39.25-.64.32,0-.31.39-.25.64-.32ZM3.38,72.72c.23-4.4-.07-8.79.35-13.19,1.65.33,2.75,1.76,4.37,2.15,1.5.36,3.03.72,4.58.72,3.46,0,6.65-.26,10.03-.94,1.37-.28,4.86-.49,5.14-2.31.2-1.38-3.09-.54-3.02-.58-.17.07.07-.31.13-.34-.02-.06-.17.12-.24.24.21-.55,1.5-1.33,1.7-2.13-2.91-.64-5.55.91-8.22,1.78-.23.07-4.71.9-3.74-.1,1.41-1.46-8.77-5.66-9.77-3.92-1.03-1.05-.12-2.89-.32-4.14,1.47.99,3.02,1.96,4.73,2.48.44.14,3.74.72,2.86-.77-.93-1.58-7.57-2.08-7.14-4.29.09-.44,3.75.92,4.32,1,1.3.2,3.73-.94,1.39-1.63-1.05-.32-2.12-.3-3.13-.77-1.12-.52-1.49.52-2.23.35-.67-.16.95-4.25,1.11-4.67.38-1.02.84-2,1.39-2.94,1.06-1.81,1.55.03,2.88.48,1.06.36,2.27-.4,1.25-1.46-.77-.79-2.02-.47-2.95-.86.79-1.97,2.47-3.45,3.14-5.47.57-1.74.37-3.6.37-5.4v-7.3c-.19-.99.68-2.76-.32-3.51.62-.85,2.17.17,2.88.32h4.79c-.31,4.42-.05,9.16.48,13.56.24,2,.86,4.02,1.86,5.77.72,1.25,1.5,1.97,1.73,3.44.31,2.01.3,3.67.09,5.7-.16,1.56.22,4.12-.67,5.48-1.33,2-2.19,3.05.67,2.71-.07,1.23-2.05.87-1.92,2.23,0,.8,1.09.72,1.56.54,1.14-.43,1.38.65,2.37.79,1.56.23,2-2.24,2.43-3.23.8-1.78-.79-1.36-.62-2.58.08-.59,1.21-2.83.22-2.83-1.2,0-.42-3.12-.57-3.97-.32-1.7-2.01-1.08-2.69-2.2-.53-.88-.92-2.39-.79-3.42,3.31,1.63,3.88,6.12,5.39,9,.77,1.47.73,1.65-.16,2.83-.77,1.03.17,4.24.38,5.38,1.69,8.85.14,18.14.14,27.1-1.41-1.51-7.82,1.49-9.61,1.75-4.29.65-9.06.86-12.89-1.52-.89-.55-1.75-1.18-2.75-1.51-.02-1.13-.67-1.96-.93-3.02-.38-1.57-.13-3.24-.06-4.83ZM4.05,57.29c.06-1.19.48-1.3,1.28-.32-.12.51-.96.28-1.28.32ZM4.69,96.18c0-.15.04-.23.08-.26-.27-.5-.2-1.61.74-1.51.9.09,2.85.2,3.02,1.41.14,1-3.33.35-3.85.36ZM7.88,99.69c-.5.1-3.53.46-3.2-1.28.99.5,3.24-.25,3.2,1.28ZM6.06,84.87c-.28-.11-.52-.27-.74-.48,0,.05-.04.07-.08.07-.03.13.07.34-.88-.39.15-.9,1.35.56,1.7.8ZM4.37,100.96c1.28.11,3.18-.41,3.2.96-.8.49-3.02.19-3.2-.96ZM14.6,107.66c.17-.49.34-.02.33.32-.57.09-.66-.3-.33-.32ZM14.6,104.47c.14-.46.28.03.64,0-.08.4-.64.32-.64,0ZM15.56,106.7c-.79-.05-.09-1.08,0-1.28,1.07.29.28.71,0,1.28ZM28.02,106.7c-.16-.16.23-.41.33-.32.16.17-.23.41-.33.32ZM29.24,91.66c-.21,1.72.16,4.12-.78,5.63-.57.9-1.06,1.56-.49,2.63.63,1.17.21,3.06.09,4.4-.06.68-1.79.85-2.29,1.1-2.52,1.24-4.6,1.77-7.33,2.57-.02-.48.19-.8.64-.96-.3-.12-1.62-1.63-1.89-1.92-.68-.75-.54-2.08-.71-3-.14-.7-.26-1.48-.61-2.11-.5-.93-.65.53-.95.69-.21.12-.28-1.51-.32-1.62-3.01-.15-.41,7.54-2.33,7.28-.5-.07-.15-1.47-.86-1.65-.59-.15-1.29.41-1.72.72-.67.49-2.13,2.15-3.08,1.94.55-.98,2.1-2.86,3.52-2.55-.13-.03.11-.26.25-.39.54-1.14-1.33-1.63-1.14-2.7.18-1.01-.09-2.42.65-3.25.62-.7-.18-2.52-.08-3.86,1.71-.49,1.08-1.78.19-2.65-1.05-1.02-1.18-1.17-2.14-.4-.48.38-2.5-.62-2.83-1.06-.64-.87,1.87-.63,2.15-.73.61-.21,2.19-1.6.71-1.85.09-1.13,2.52-.62.32-1.91.06-.21,10.02.96,11.01.98.79.02,6.3-.4,6.25-.34,1.38-.62,3.78-1.86,4,.43.16,1.54-.05,3.09-.23,4.61ZM28.67,84.71c.13-.61.11-1.37.95-1.28.09.83-.11,1.37-.95,1.28ZM30.26,106.38c.17-.49.33-.02.32.32-.57.09-.65-.3-.32-.32ZM6.93,41.99c-.51,2.69,2.59,3.52,4.15,2.23.31-2.29-2.36-3.06-4.15-2.23ZM16.23,64.42s0,.03,0,.05c.07.07.21.13.25.11.07-.04-.05-.1-.25-.16ZM15.78,66.49c1.91.33,1.02-1.15.74-2.19.2.73-.27.4-.29.17-.02-.02-.03-.04-.04-.06-.43-.11-1.19-.17-1.49.19-.65.77.35,1.76,1.07,1.89ZM16.52,64.3c-.29-.01-.35.04-.33.11.01,0,.03,0,.04.01.02-.07.1-.13.29-.12ZM11.72,72.27c2.04-.21,2.83-2.23,2.24-4.14-2.91-2.72-6.15,3.64-2.24,4.14ZM16.19,68.13c-2.25,1.76.96,5.53,2.88,3.19.03-1.92-1.49-3.72-2.88-3.19ZM22.97,69.07c-.09-.09-.1.16-.07.48.06.2.11.38.22.52-.12-.16-.12-.74-.15-1ZM23.07,70.36c-.07-.14-.13-.5-.16-.81-.14-.5-.28-1.07-1.2-1.14-1.26-.09-2.17,1.11-2.05,2.3.2,1.98,2.73,1.07,3.41-.34ZM22.93,68.95s.03.06.03.13c.05.06.14.24.26.65-.06-.28-.16-.54-.3-.78ZM23.23,69.72c0,.22-.07.43-.17.64.07.15.14.05.17-.64ZM14.6,73.23c-.89.57-.89,2.93,0,3.51,3.03.54,2.65-3.9,0-3.51ZM20.67,74.88s0-.03,0-.05c0,.02,0,.03,0,.05,0,0,0,0,0,0ZM20.68,75.18c.05-.13.04-.23,0-.3,0,.11,0,.2,0,.3ZM20.08,74.96c.11.25.61.54.59-.08-.02-.02-.04-.04-.06-.06-.11-.03-.22-.06-.29-.06.08,0,.17.03.29.06-.4-.31-1.8,0-2.06.15-1.69.98,2.17,3.6,2.14.22-.02.04-.03.09-.06.14-.1.18-.46-.13-.53-.36ZM20.3,74.75c-.17,0-.24.05-.24.14,0-.09.05-.15.24-.14ZM20.67,74.83s-.04-.01-.07-.02c0,0,0,0,0,0,.02,0,.04,0,.06.01ZM18.64,78.61c-.13-.23-.46-.27-.85-.17.06.1.27.22.47.3.21.06.41.05.42-.05.02.15-.18.13-.42.05-.21-.06-.42-.17-.47-.3-1.18.33-2.83,1.97-.63,3.71,1.85.08,2.34-2.31,1.46-3.59.01.02,0,.03.02.05ZM17.76,78.39s0,0,0,0c0,.02.01.04.02.06,0,0,0,0,0,0-.01-.02-.02-.04-.02-.06ZM17.76,78.39c.07-.05.14-.06.22-.08-.14,0-.21.04-.22.08ZM17.98,78.3c.11,0,.25,0,.45.03-.17-.07-.31-.06-.45-.03ZM12.36,98.41c0,.18.26.36.32,0,0-.18-.25-.36-.32,0Z"/>
    </g>
  </g>
</svg>