<?xml version="1.0" encoding="UTF-8"?>
<svg id="Layer_2" data-name="Layer 2" xmlns="http://www.w3.org/2000/svg" viewBox="0 0 113.92 103.68">
  <defs>
    <style>
      .cls-1 {
        fill-rule: evenodd;
      }
    </style>
  </defs>
  <g id="food_icons" data-name="food icons">
    <g id="wrap">
      <path class="cls-1" d="M38.09,6.2c.1.19.19.38.31.55.87-.03-.51-1.14-.31-.55ZM15.31,26.47c.11-.11.24-.2.39-.27-.35.17-.44.25-.39.27ZM9.41,18.18c-.24-.13-.48-.24-.74-.28-.26.2.41.29.74.28ZM54.7,31.3c.74-1.6-1.47-3.81-3.18-4.12.18.18-.85.7-.73.19-.67,1.86,2.28,4.07,3.91,3.94ZM15.7,26.2c.23-.03.44-.02.64,0,.03-.05-.12-.07-.64,0ZM50.87,27.15c.2-.03.42-.02.65.02-.06-.06-.24-.08-.65-.02ZM37.76,9.94c.13.33.28.65.44.96.4.58.02-1.44-.44-.96ZM62.38,32.57c-.95-.65,1.07,2.11,0,0h0ZM49.02,45.62c1.02,1.44,3.75,3.2,4.73,2.25-1.68-1.11-3.49-2.01-5.12-3.19,1.04.75.73,1.15.39.94ZM74.52,76.88c2.58,1.25,0,.63,0,0,0,.94-1.33.76-.18,1.9.56.56,1.29.87,1.89,1.36,1.24,1.03,2.95,2.11,4.68,1.83-1.01-2.8-3.93-3.91-6.39-5.1ZM62.38,65.09c-.24.12-.53.18-.85.19-.05.13.13.16.85-.19ZM75.02,65.7c.14.14.47.27,1.1.34-.26-.03-.64-.15-1.1-.34ZM57.9,61.26c-1.89,1.93,1.5,4.09,3.64,4.01.09-.26,1.04-.91.85-.19.58-2.19-3.04-3.59-4.48-3.83ZM76.11,65.7c-.3-2.9-7.33-10.79-9.48-8.37-1.88,2.12,5.17,7.03,8.38,8.37-.43-.43.95-.94,1.09,0ZM92.74,71.46c-.3-2.29-3.84-5.74-6.07-5.74.32,0-.18.65,0,0-.28,1.03-.82.85.1,2.01.51.65,1.25,1.05,1.88,1.56.93.76,2.69,2.9,4.1,2.16ZM110.45,80.02c-1.88-1.91-3.8-3.79-5.71-5.67-3.8-3.75-7.05-7.32-10.02-11.72-2.82-4.18-6.34-7.93-10.4-10.95-3.44-2.56-6.53-5.97-10.11-8.27-.4-1.75-2.37-3.58-3.5-4.93-1.31-1.56-2.42-3.2-3.62-4.81-1.36-1.8-2.83-3.47-4.27-5.22-1.29-1.58-1.93-3.57-3.12-5.21-1.27-1.75-2.67-3.25-3.89-5.01-1.19-1.72-1.96-3.5-3.87-4.38-1.34-.62-2.08-.71-3.45-1.03-.86-.2,0-1.2-1.3-.5-.66.36-.91,1.07-1.76,1.11-.58-2.02-1.58-4.34-2.8-6.07-1.32-1.88-2.58-.67-4.23-.62-.19-.27-.28-.44-.31-.55-.99-1.91-.91-4.46-2.56-5.67-1.53-1.12-3.98-.32-5.25,1.12-1.76,1.98-2.29.63-4.22-.12-2.58-1-3.75,2.23-3.96,4.27-.79,1.06-.41,3.06-1.74,3.72-2.1,1.05-1.21-1.17-1.66-2.13-1.66-3.53-9.16-5.16-11.85-2.13-1.66,1.87-1.89,4.28-.88,6.54.54,1.19,2.83,2.87,1.31,3.5-1.73.72-2.64,2.33-2.97,4.1-.24,1.29-.22,2.63-.1,3.94-.89.05-1.78.26-2.58.68C-.39,25.07.04,26.69.04,28.74c.48,1.35,1.1,3.21,2.15,4.23.65.63,1.52,1.03,2.01,1.82.47,5.52,7.48,2.18,10.55,2.87-.5,1.71.04,3.1-.62,4.71-.67,1.61,2.54,3.08,3.18,4.21-.65-.17-1.07.04-1.28.64,1.94.32,3.78,2.35,4.76,3.94.95,1.55,3.02,2.6,4.43,3.95,3.58,3.4,7.86,6.25,11.73,9.32,3.02,2.39,6.48,7.05,10.4,7.98,3.71,3.79,7.61,7.38,11.65,10.83,3.79,3.24,7.9,6.42,12.01,9.25,2.05,1.41,4.17,3,6.62,4.26,3.93,2.02,6.66,8,12.24,5.62.64.15.76.82,1.27,1.13.86.53.78-.33,1.47-.53.94-.26,3.8-.4,4.62-.28,1.12-.25,1.53-1.34,2.42-1.92.84-.55,2.05-.49,3-.74,1.81-.49,4.3-1.14,5.53-2.59,2.46-2.88,3.92-7.2,5.35-10.7,1.33-3.26-.87-4.5-3.07-6.74ZM47.67,14.4c4.13.21,6.83,5.16,7.99,8.61,1.24,1.21,1.53,3.33,2.37,4.81,1.31,2.32,2.14,3.25,4.35,4.75,1.06,2.08,2.54,3.92,3.51,6.06-2.63-1.27-5.08-2.9-7.99-3.51-2.22-1.44-5.03-1.55-7.26-2.96-5.34-3.37-14.19-2.14-20.23-2.14.94-1.64,3.21-1.6,4.47-2.87,1.78-.51,2.83-2.12,4.48-2.87,1.43-1.87,3.08-3.56,4.66-5.3.98-1.08,3.4-3.08,3.65-4.58ZM40,8.66c1.54,1.14,4.53,6.48,2.56,7.65-.41.36-.09,1.18-.96.96-.27-1.03-.73-1.99-1.28-2.9-.7-1.16-1.5-2.26-2.11-3.46-.1-.14-.24-.44-.44-.96.59-.62,1.94-.32,2.24-1.28ZM23.16,10.25c.91-1.92.86-4.15,1.81-6.05,1.44.2,4.37,3.27,5.7,2.5.65-.37.15-1.41.69-1.87.81-.69,1.77-1.19,2.56-1.91.76,1.16,1.04,2.56,1.52,3.84.57,1.53.14,1.18-.67,2.26-.51.68.59,3.52.43,3.14.2.46-1.07-.53,0,0-2.16-1.07-2.26-3.09-5.16-1.77-1.36.62-2.75,1.14-3.75,2.39-2.32,2.9,6.16,7.61,7.99,8.55,2.71,1.4.17-2.38-.76-3.04-.82-.58-4.63-4.07-3.66-4.76,1.04-.73,1.72-1.21,2.59-.31.74.77,1.39,1.62,2.03,2.47,1.27,1.7,2.52,3.48,4.25,4.76-1.53,1.81-3.18,3.57-5.44,4.46-.57-2.27-2.84-3.08-4.79-3.83-.75-.03-1.68.04-2.24.64-1.02-.29-1.67-1.08-2.55-1.59-2.4.16-2.44-.72-3.2-2.55-.69-1.65-2.11-2.19-3.84-1.91v-3.83c2.46.23,5.2,1.15,6.5-1.6ZM15.06,8.03c-.4-.77,1.14-.08,0,0,.97-.07,1.3.96,2.24.96-.92,1.05-3.08.4-2.54,2.53.17.67.59,3.8,1.25,3.85-.7,1.06-2.52.85-2.88,2.23-.81-.65-1.05-1.8-2.24-1.91-.06-.78.82-1.24-.16-1.86-1.78-1.12-2.68-2.46-2.71-4.78-.04-3.27,5.76-3.42,7.02-1.01ZM16.9,34.72c-1.02,1.19-1.53,1.76-3.03,1.28-.65-.21-8.39-.5-6.44-1.8.49-.33,1.39-.29,1.58-.98.25-.92-.44-1.75-1.34-1.8-1.74-.11-2.17.55-3.29-1.14-.63-.96-1.24-2.27-.83-3.44,1.16-.61,2.34.31,3.52.32.02.94.46,1.71,1.44,1.88,1.18.2,2.17-.7,1.23-1.86-.9-1.11-1.29-.42-1.7-1.83-.67-2.32-1.65-5.63.63-7.43,1.07.17,1.03.27.74.28,1.88,1.06,3.35,4.48,5.75,2.33,3.21-2.88,1.16,1.71,3.41,3.14,1.5.35,1.58-1.26,2.87-1.28,1.01-.09,2.34.86,2.76,1.71,1.29,2.56,3.39,3.88,3.31-.11,1.19-.14,4,1.38,3.22,2.64-.52.84-1.47,1.27-1.94,2.14-.06.58.69.85.83,1.34-.21-.72-7.79,1.78-8.71,2.2-1.46.66-2.97,1.2-4.04,2.44ZM77.72,91.23c.06-.36.32-.18.32,0-.06.36-.32.18-.32,0ZM81.87,94.1c-.17-.17.23-.41.32-.32.16.17-.23.41-.32.32ZM110.45,86.22c-1.32,2.73-2.94,7.01-6.11,7.83-3.13.81-6.21,2.87-9.14.83-.54-.38-3.75-2-3.04-.02.3.83,1.3.89,1.85,1.47-.95.53-6.09.45-6.14-.43-.08-1.41.48-3.43-.47-4.65-1.23-1.56-1.47,1.81-1.64,2.26-.66,1.71-1.88-1.21-1.34-2.29-.73-.5-2.88-5.01-3.77-3.39-.56,1.02.85,2.62.01,3.5-1.58,1.66-1.42-3.01-1.46-3.3-.3-1.92-3.22.51-3.74,1.28-.73-.82-1.97-1.59-1.28-2.87-1.34.03-2.16-.77-3.29-1.31-1.5-.72-.5-.65-.22-1.88-1.29.25-2.53.38-3.52-.64-.05-.88.81-1.3.64-2.23-.67-.86-1.61.92-1.92,1.27-1.27-.76-2.43-1.67-3.62-2.55-2.08-1.54-1.71-1.51-.45-3.64.67-1.14,1.09-2.4.56-3.69-2.31.25-2.6,2.66-3.84,4.14-1.96-1.37-4.6-5.49-7.04-5.74,1.63-1.24,3.48-2.25,3.84-4.46-2.1-.69-3.06,1.87-4.67,2.61-.77.35-2.25.25-2.32-.91-.04-.79,1.01-1.13.91-2.02-1.12-.25-1.04.76-1.92.96-1.15-.22-1.56-1.3-2.44-1.9-1.06-.73-.67-1.14.16-2.13.39-.46,1.44-2.23.11-2.18-.8.03-1.32,1.01-1.82,1.49-1.1,1.04-1.12.15-2.08-.38-2.33-1.28,1.39-3.67.64-5.74-1.89.26-2.36,2.12-3.19,3.51-2.47-.79,2.53-5.11,1.28-7.01-.91-.04-2.9,1.4-3.84,2.58,0,.09,0,.19,0,.28-.16,0-.52.77-.52.81-.02-.24.13-.57.39-.93-.1-.25.02-.78.1-.14,0,0,.02-.02.02-.03.02-.99.5-1.88.32-2.9-1.47.51-2.33,1.8-2.88,3.19-3.31-2.03-6.08-4.78-9.26-7-2.65-1.86-3.3-4.87-3.22-8,.08-3.64,1.89-5.48,5.45-5.91,3.05-.36,6.06-.45,9.14-.45s6.17.47,9.25.59c3.22.12,5.52,1.16,8.42,2.4,6.1,2.61,12.42,5.03,17.88,8.82,1.57,1.09,3.26,2,5.02,2.73,1.94.81,3.32,2.57,4.81,4.05,2.75,2.74,5.42,5.55,7.93,8.51,5.1,6,9.44,12.49,14.85,18.26,1.49,1.58,3,3.14,4.53,4.69,1.47.6,2.78,1.13,2.05,2.64ZM91.14,78.48c.21,0,.07.6,0,0,.14,1.2-.79.87.29,2.02.66.7,1.42,1.31,1.95,2.12.87,1.08,1.97,2.61,3.52,1.59.44-1.91-4.16-5.74-5.75-5.74ZM34.56,43.09c-.19-.46-.39.03,0,0h0ZM16.34,26.2c-.06.1-.92.33-1.03.27-1.18,1.09-.48,3.76,1.35,3.55,2.57-.72,1.83-3.56-.32-3.82ZM58.79,68.62c-1.29.27-2.68,2.41-2.81,3.48,1.94-.19,2.47-2.02,3.2-3.51-.64,1.3-1.07.24-.39.03ZM36.03,54.77c.03.07.07.12.13.12,0-.1-.02-.18-.03-.26-.04.05-.07.09-.1.14ZM34.56,43.09c.57,1.23.92,2.69,2.88,2.55-.29-1.52-1.29-2.33-2.88-2.55ZM49.02,45.62c-.24-.34-.39-.67-.39-.94,0,.53.2.82.39.94ZM44.47,57.44c.23-.03-.02.21-.13.26-.56,1.76,5.28,5.88,6.84,5.8-.14-1.64-5.04-6.29-6.71-6.06ZM44.34,57.7c.03-.09.06-.18.13-.26-.21.25-.2.29-.13.26Z"/>
    </g>
  </g>
</svg>