<?xml version="1.0" encoding="UTF-8"?>
<svg id="Layer_2" data-name="Layer 2" xmlns="http://www.w3.org/2000/svg" viewBox="0 0 122.8 75.97">
  <defs>
    <style>
      .cls-1 {
        fill-rule: evenodd;
      }
    </style>
  </defs>
  <g id="food_icons" data-name="food icons">
    <g id="chips-nachos">
      <path class="cls-1" d="M57.89,22.11c-1.19.65,2.1-.98,0,0h0ZM51.17,19.56c-.09-.09-.49.15-.32.32.09.09.48-.15.32-.32ZM46.7,23.71c-2.17-.11-2.57,2.17-.8,1.91,1.53-.23.7-1.17.8-1.91-.05.37-.79-.04,0,0ZM10.84,18.48c-.62-1.36-2.62-.76-2.13.87.37,1.23,1.9.56,2.14-.44-.04-.16-.07-.5-.01-.43ZM14.41,25.3c.69-.27,1.13-.79.96-1.91-1.45-1.93-3.56,1.65-.96,1.91ZM10.89,18.61c0,.1-.02.2-.05.3.03.13.06.14.05-.3ZM68.43,32c1.02-.1,1.41-.15,1.44-.17-.48.06-.95.13-1.44.17ZM40.94,48.89c-.57.61.72-.44,0,0h0ZM61.76,53.24c8-2.6,13.92-8.94,18.98-15.2,1.75-2.17,5.61-7.72,3.95-10.34-.43-.68-2.27-1.27-2.19-2.07,1-2.03,1.93-4.1,2.55-6.28.59-2.1,1.79-6.49-.1-8.04-1.96-1.61-3.76-1.3-6.03-.51-3.2,1.12-6.68,3.81-8.72,6.54-1.12,1.49-1.08,4.76,1.23,2.68,1.36-1.22,2.53-2.5,4.03-3.63,1.43-.92,2.64-2.15,4.27-2.76.98-.37,2.04-.49,3.08-.43.11,1.11.06,2.22-.16,3.31-.59,2.94-2.67,9.88-5.68,10.39-.87.15-1.56.66-2.47.64-.14-.94-.64-1.69-1.22-2.42-1.21-1.49-2.42-2.98-3.72-4.4.45.56-1.25-.88-.18-.2-1.79-1.14-2.84-2.6-4.24-4.06-.6-.62-1.19-2-2.07-2.27-1.37-.43-2.8,1.66-3.42,2.62-1.03,1.59-2.62,2.71-3.7,4.35-.77-1.62-.4-3.54-1.47-4.91-.67-.85-1.61-1.75-2.17-2.61-2.19-3.35-4.27-.03-6.43,1.86-2.61,2.28-5.43,4.18-8.17,6.3-1.82,1.41-1.05-.91-1.06-2.06-.01-1.51-.28-3.03-.78-4.46-.79-2.27-1.87-2.36.35-3.86,1.42-.96,2.87-1.89,4.43-2.62,3.38-1.61,6.59-1.65,10.26-1.65,1.43,0,3.09.23,4.5.55,1.9.45,1.01,2.18.49,3.48-.27.67-1.61,3.85.19,3.2.89-.32,1.09-1.37,1.3-2.16.23-.86.5-2.43.97-3.15.85-1.34-.21-2.91,2.02-2.91,3.58,0,5.73.85,8.5,2.93,1.03.78,2.08,2.42,3.52,2.43,2.01.01.7-1.96-.06-2.54-2.46-1.87-4.22-3.74-7.38-4.3-2.15-.38-6.27-.93-7.45,1.21-.75,1.36-2.92-.38-3.99-.7-1.6-.48-3.02-.64-4.68-.6-5.81.16-11.57,2.01-15.25,6.71-.93-2.56-3.41-3-5.77-3.2-1.49-.13-3.28-3.38-4.53-4.63-1.26-1.26-4.27-5.14-5.57-2.61-1.46,2.85-2.93,5.7-3.63,8.85,1.33.67,4.17-6.48,4.79-7.33,1.62,1.12,3.45,2.96,4.52,4.55.91,1.34,2.55,1.98,2.83,3.74-2.19,4.15-4.16,8.37-4.8,13.07,1.72-.22,2.41-3.59,3.1-4.87,1.34-2.47,2.21-5.21,3.67-7.64,1.45-2.4,3.49,2.3,3.5,3.69.03,2.52-.75,5.89.6,8.19-1.3,1.38-3.66,1.4-3.52,3.82,1.24.65,2.59.35,3.74-.32,1.09-.63,1.43-.45,2.34-.81,5.45-2.14,10.31-6.55,14.7-10.35.87,2.15,2.87,3.9,2.54,6.42-.1.73-1.62,3.46-.68,3.9.99.47.53,1.98-.13,2.81-.85,1.06-5.96.34-7.27.31-11.38-.25-22.71-2.04-34.1-1.01-.02-.66.56-.88.69-1.46.24-1.01-.98-1.8-1.55-2.46-1.49-1.75-2.87-3.6-3.92-5.65-.94-1.83-1.26-3.73-.94-5.79.32-2.04,3.82-1.4,5.08-.89,2.46,1,4.02,2.26,5.66,4.68,1.37,2.03,2.9,6.54,5.84,6.79-1.79-7.88-8.41-17.91-17.82-14.22C.42,9.86.06,11.1,0,13.8c-.04,1.98.24,3.99,1.25,5.69.52.88,5.2,7.48,4.85,7.73-1.88-.07-4.94-2.13-4.97,1.08-.02,1.71,1.25,3.11,1.93,4.58,1.67,3.68,5.07,7.39,7.89,10.47,2.92,3.19,6.4,6.02,10.49,7.54,2.06.77,4.22,1.24,6.4,1.51,1.74,1.25,3.77,2.05,5.83,2.6,5.22,1.4,10.29.63,15.61.55,4.33-.07,8.39-.98,12.49-2.32ZM55.97,22.11c.03-1.15,1.11.44,1.92,0,2.07-.96,3.19-3.01,4.47-4.78.65.34,1.1,1.84,1.6,2.39.9,1.01,1.97,1.86,2.87,2.87,1.48,1.66,3.26,3.53,4.16,5.58-5.32.37-10.67.23-15.98.64.17-2.27,1.1-4.38.96-6.69ZM16.01,39.97c.93-1.09,2.06-1.99,3.52-2.55-.49,1.53-2.2,1.84-3.52,2.55ZM25.6,45.39c-.04-.11.25-.91.22-.93-.18,0-.36-.02-.54-.03,1.12-.05.11-.62,0-.16.06-.53.92-.21.95-.8.79.34.37,2.29-.64,1.91ZM34.23,48.89c.51-.42,1.19-1.36,1.92-.64.27,1.21-1.43,1.13-1.92.64ZM38.38,46.02c-.81-.03-.75-1.19-.32-1.59.69-.05.14,1.13.32,1.59ZM41.26,49.53c-1.02.1-1.41.92-2.56.64.68-.54,1.63-.63,2.24-1.28.27-.17,2.4-2.31,2.52-1.43.12.82.41.84.93,1.5.94,1.18-2.49,1.17-3.13.58ZM48.93,46.34c-.68.03-6.49,2.04-4.79-1.27-2.01.15-3.06,2.2-5.12,2.23-.07-2.04-.46-4.03-.64-6.06-.65.3-.32,1.62-.29,2.1.08,1.17-.49.75-1.3,1.25-1.3.82-2.16,1.68-3.85,1.42,1.36-1.19,2.93-2.21,3.84-3.83-.71-.89-1.97.54-2.88.32.03-2.05.29-4.47-.64-6.38-2.56,1.86.75,6.84-1.92,8.61-.79-.5-.55-1.68-1.28-2.23-.84-.2-.76.84-1.6.64,0-1.93.12-3.38-.73-5.28-1.33-2.92-1.46,3.22-1.5,3.69-1.57-.64-2.88,1.35-4.48,1.27.19-.69,1.09-1.58.6-2.38-.33-.53-1.18-.2-.92-1.12,1.29-.84,1.26-5.54-1.6-3.19-.57.47-4.41,3.7-4.96,2.54-.56-1.19,2.27-3.52,2.09-5.08-1.93.42-2.91,2.37-4.8,2.87,1.1-1.41.25-2.69-1.5-2.54-1.29.11-1.16.75-1.97-.62-.55-.93-1.07-1.93-1.97-2.58.31-.73,4.29-.09,4.9.05,2.56.59,5.53.27,8.21.27,5.6,0,11.2.95,16.86.97,4.9.01,9.96.7,14.8.32,5.6-.44,11.31-.33,16.94-.33-2.47,0,1.54-.25,1.44-.17,3.8-.45,7.56-1.2,11.35-1.74-1.42,3.28-3.9,5.91-5.75,8.93-2.38.97-4.7,2.8-6.79,4.29-2.25,1.6-4.74,3.12-7.25,4.32-1.44.69-7.09,3.5-8.56,2.46.03.02,1.16-1.74.41-1.79-1.91-.13-.4.17-.83-1.63-1.36-.67-2.57,1.41-3.84,1.59,0-.74.51-1.12.32-1.91ZM15.05,35.5c.09-.65.87-.62.96-1.27.81.32-.26,1.41-.96,1.27ZM20.8,9.68c.42,0-.1.74,0,0-.43,3.12,3.42,0,0,0ZM53.97,68.53c-1.15-.22-2.53.85-1.34,1.75,1.48,1.12,1.8-.42,1.74-1.62.03.63-.69-.11-.4-.13ZM102,62.6c-.19.83-.48,1.58-.83,2.29.12.17.38-.31.83-2.29ZM30.39,18.61c0-.18-.26-.36-.32,0,0,.18.26.36.32,0ZM122.78,33.59c.02.12,0,.23,0,.34.02-.06.02-.16,0-.34ZM83.14,63.56c.09.09.49-.15.32-.32-.09-.09-.48.15-.32.32ZM76.11,58.77c.14.42.29.84.45,1.25-.03-.22-.45-1.59-.45-1.25ZM121.86,32.35c.34.37.66.78.92,1.24-.76-1.31-.96-1.49-.92-1.24ZM116.39,31.04c-1.34.17.81,1.11,0,0h0ZM111.59,35.82c-.8-.26.44.63,0,0h0ZM121.86,32.35c-2.59-2.82-7.19-3.4-10.75-3.99-5.1-.85-10.86-.27-15.78,1.22-3.29.99-8.54,3.37-8.22,7.33.21,2.69.25,5.39.34,8.09.06,2.16-.61,4.35,2.03,4.52,1.9.12,3.85,1.44,5.72,1.9,2.46.62,4.98,1.29,7.52,1.29,5.07,0,9.89-1.09,14.38-3.44,2.84-1.49,4.31-2.8,4.54-6.2.13-1.97-.11-3.72-.14-5.66,0-1.38,1.26-2.14,1.28-3.49-.1.4-.85-1.17-.92-1.58ZM90.07,36.4c-.93-.31-1.62-1.59-.71-2.3,1.45-1.13,3.93-1.63,5.61-2.35,3.35-1.42,8.26-1.07,11.92-1.22,2.2-.09,4.4-.14,6.6-.13,1.04.08,1.79.78,2.88.64,1.5,2.07,4.71,3.06.77,4.22-1.39.41-1.57-.77-2.69-1.35-1.6,0-2.55-1.08-3.93-1.66-1.48-.62-3.52-.17-4.98.32-1.74.58-3.08.72-4.94.78-1.89.06-3.6-.03-5.47.31-1.06.19-2.02,1.22-3.05,1.21-.98.45-.29,2.11-2.02,1.54ZM92.09,36.78c-.16-.17.23-.41.32-.32.16.17-.23.41-.32.32ZM94.29,43.68c-.06.04-.15.07-.28.11-.34-.81-.57-1.67-.64-2.55,1.03.16,1.83.86,2.88.96-.57.62-1.17,1.19-1.96,1.49ZM95.41,35.5c2.55-1.78,5.37.34,8.09.38,1.64.02,3-.98,4.64-1.06,1.5-.08,2.14.58,3.44,1.01.46.66,1.93.18,1.92,1.28-3.37,1.49-7.25,1.56-10.86,1.33-1.94-.13-3.88-.37-5.8-.66-1.4-.21-3.5-.82-1.43-2.27ZM118.62,46.02c-1.41.06-2.75.5-4.15.64.03.35-.46.19,0,0-.47.2-.51-1.46,0,0-.61-1.74,2.64-.78,0-2.87-1.14.45-4.5,3.29-1.28,3.51-.4,1.33-3.2.47-4.16.64-.23-1.63-2.42-2.37-2.56-.32-.65-.17-.69-.98-.92-1.47-.4-.86-1.12-.19-1.82-.21-.99-.03-.28-1.38-1.42-.73-.53.3-.65.97-.95,1.45-.95-.13-.21-1.77-1.7-1.25-.79.28-.82,1.29-1.82,1.25.05-.8-1.12-.82-.32-1.59-.78-.26-.18-1.99-.32-2.55,3.84.24,8.67.16,12.36-.83,1.88-.5,3.87-1.21,5.22-2.68,1.59-.12,2.97-.84,4.47-1.27-.02,2.74-1.07,5.56-.64,8.29ZM94.01,43.79c.1-.03.18-.07.28-.11.42-.26-.55-.55-.28.11ZM101.9,62.47c-2.07-2.99-7.91-3.18-11.02-4.01-4.46-1.19-9.24-2.69-13.82-3.52-5.47.76-2.27,8.68-.32,11.38,1.31,1.82,2.9,3.14,4.96,3.76.83.25,3.82.14,4.32.8-3.38-.2.33,1.79,1.81,1.91,2.25.19,4.06-.54,6.08-1.45,3.13-1.4,5.82-3.46,7.27-6.45-.22-.33.1-3.1.73-2.42ZM96.88,67.38c-3.41,1.41-6.84,2.75-10.55,3.19.48-.73,1.71-.62,1.92-1.59-2.06.35-5.88-1.34-7.35-2.55-2.04-1.68-3.41-3.96-4.35-6.4.02.12-.08-.12-.45-1.25,0-2.42.93-1.49,2.71-.7,1.59.71,3.27,1.22,4.96,1.65,3.57.92,7.22,1.48,10.78,2.43,1.67.45,3.32.98,4.89,1.72-.44,1.47-1.72,2.31-2.56,3.51ZM39.98,14.46c.81.56,1.56.82,2.24,0,.58-2.44-2.82-2.44-2.24,0ZM75.48,20.52c0-.11-.02-.2-.01-.32-.01.17,0,.26.01.32ZM76.75,20.2h-1.28c.35,0,.09.6.01.32.07,1.59,1.52,1.55,1.27-.32ZM48.61,10.96c0,1.79,1.11.87.96,0h-.96c.32,0,0,.32,0,0ZM64.92,12.23c0,1.5,1.51,0,0,0,.21,0,0,.21,0,0ZM63,56.54c-2.5,0-6.1,4.31-8.49,5.56-1.58.83-3.15,2.32-4.76,2.08-1.21-.18-2.58.15-3.44.96-5.03,4.78,1.77,11.06,7.03,10.81,6.94-.33,12.2-4.03,15.41-10.17.63-2.54.63-5.69-1.08-7.84-.45-.57-4.96-2.7-4.68-1.4ZM64.55,66.22c-.73,1.27-3,1.85-4.43,3.08-1.67,1.43-2.87,1.96-5.14,1.87-2.09-.09-4.36-.76-5.63-2.53-1.02-1.43-.65-1.58.56-2.5.71-.54.57-1.54,1.57-1.15,1.44.56,5.05-2.51,6.17-3.38,1.64-1.26,3.38-1.89,5.02-3.15,2.37,0,4.15.55,4.23,3.38.06,1.81-1.51,2.89-2.37,4.38ZM58.52,64.83c.48.17-.13.61,0,0-.24,1.08-1.37,2.23.96,1.91-.15-1.25.68-1.34-.96-1.91ZM53.97,68.53c.14.03.27.07.4.13-.22-.11-.33-.14-.4-.13ZM63,56.54c-.06-.27-.32,0,0,0h0ZM62.68,58.46c-.9.69.85,0,0,0h0Z"/>
    </g>
  </g>
</svg>