<?xml version="1.0" encoding="UTF-8"?>
<svg id="Layer_1" data-name="Layer 1" xmlns="http://www.w3.org/2000/svg" viewBox="0 0 600 600">
  <path d="M141.21,458.79c-5.42-5.43-12.93-8.79-21.21-8.79s-15.79,3.36-21.21,8.79c-5.43,5.42-8.79,12.93-8.79,21.21,0,16.57,13.43,30,30,30,8.28,0,15.79-3.36,21.21-8.79,5.43-5.42,8.79-12.93,8.79-21.21s-3.36-15.79-8.79-21.21ZM427.07,412.93c-1.81-1.81-4.32-2.93-7.07-2.93s-5.26,1.12-7.07,2.93c-1.81,1.81-2.93,4.32-2.93,7.07,0,5.53,4.47,10,10,10,2.76,0,5.26-1.12,7.07-2.93,1.81-1.81,2.93-4.32,2.93-7.07s-1.12-5.26-2.93-7.07ZM141.21,458.79c-5.42-5.43-12.93-8.79-21.21-8.79s-15.79,3.36-21.21,8.79c-5.43,5.42-8.79,12.93-8.79,21.21,0,16.57,13.43,30,30,30,8.28,0,15.79-3.36,21.21-8.79,5.43-5.42,8.79-12.93,8.79-21.21s-3.36-15.79-8.79-21.21ZM141.21,458.79c-5.42-5.43-12.93-8.79-21.21-8.79s-15.79,3.36-21.21,8.79c-5.43,5.42-8.79,12.93-8.79,21.21,0,16.57,13.43,30,30,30,8.28,0,15.79-3.36,21.21-8.79,5.43-5.42,8.79-12.93,8.79-21.21s-3.36-15.79-8.79-21.21ZM141.21,458.79c-5.42-5.43-12.93-8.79-21.21-8.79s-15.79,3.36-21.21,8.79c-5.43,5.42-8.79,12.93-8.79,21.21,0,16.57,13.43,30,30,30,8.28,0,15.79-3.36,21.21-8.79,5.43-5.42,8.79-12.93,8.79-21.21s-3.36-15.79-8.79-21.21ZM141.21,458.79c-5.42-5.43-12.93-8.79-21.21-8.79s-15.79,3.36-21.21,8.79c-5.43,5.42-8.79,12.93-8.79,21.21,0,16.57,13.43,30,30,30,8.28,0,15.79-3.36,21.21-8.79,5.43-5.42,8.79-12.93,8.79-21.21s-3.36-15.79-8.79-21.21ZM141.21,458.79c-5.42-5.43-12.93-8.79-21.21-8.79s-15.79,3.36-21.21,8.79c-5.43,5.42-8.79,12.93-8.79,21.21,0,16.57,13.43,30,30,30,8.28,0,15.79-3.36,21.21-8.79,5.43-5.42,8.79-12.93,8.79-21.21s-3.36-15.79-8.79-21.21ZM141.21,458.79c-5.42-5.43-12.93-8.79-21.21-8.79s-15.79,3.36-21.21,8.79c-5.43,5.42-8.79,12.93-8.79,21.21,0,16.57,13.43,30,30,30,8.28,0,15.79-3.36,21.21-8.79,5.43-5.42,8.79-12.93,8.79-21.21s-3.36-15.79-8.79-21.21ZM141.21,458.79c-5.42-5.43-12.93-8.79-21.21-8.79s-15.79,3.36-21.21,8.79c-5.43,5.42-8.79,12.93-8.79,21.21,0,16.57,13.43,30,30,30,8.28,0,15.79-3.36,21.21-8.79,5.43-5.42,8.79-12.93,8.79-21.21s-3.36-15.79-8.79-21.21ZM141.21,458.79c-5.42-5.43-12.93-8.79-21.21-8.79s-15.79,3.36-21.21,8.79c-5.43,5.42-8.79,12.93-8.79,21.21,0,16.57,13.43,30,30,30,8.28,0,15.79-3.36,21.21-8.79,5.43-5.42,8.79-12.93,8.79-21.21s-3.36-15.79-8.79-21.21ZM141.21,458.79c-5.42-5.43-12.93-8.79-21.21-8.79s-15.79,3.36-21.21,8.79c-5.43,5.42-8.79,12.93-8.79,21.21,0,16.57,13.43,30,30,30,8.28,0,15.79-3.36,21.21-8.79,5.43-5.42,8.79-12.93,8.79-21.21s-3.36-15.79-8.79-21.21ZM141.21,458.79c-5.42-5.43-12.93-8.79-21.21-8.79s-15.79,3.36-21.21,8.79c-5.43,5.42-8.79,12.93-8.79,21.21,0,16.57,13.43,30,30,30,8.28,0,15.79-3.36,21.21-8.79,5.43-5.42,8.79-12.93,8.79-21.21s-3.36-15.79-8.79-21.21ZM141.21,458.79c-5.42-5.43-12.93-8.79-21.21-8.79s-15.79,3.36-21.21,8.79c-5.43,5.42-8.79,12.93-8.79,21.21,0,16.57,13.43,30,30,30,8.28,0,15.79-3.36,21.21-8.79,5.43-5.42,8.79-12.93,8.79-21.21s-3.36-15.79-8.79-21.21ZM141.21,458.79c-5.42-5.43-12.93-8.79-21.21-8.79s-15.79,3.36-21.21,8.79c-5.43,5.42-8.79,12.93-8.79,21.21,0,16.57,13.43,30,30,30,8.28,0,15.79-3.36,21.21-8.79,5.43-5.42,8.79-12.93,8.79-21.21s-3.36-15.79-8.79-21.21ZM141.21,458.79c-5.42-5.43-12.93-8.79-21.21-8.79s-15.79,3.36-21.21,8.79c-5.43,5.42-8.79,12.93-8.79,21.21,0,16.57,13.43,30,30,30,8.28,0,15.79-3.36,21.21-8.79,5.43-5.42,8.79-12.93,8.79-21.21s-3.36-15.79-8.79-21.21ZM169.47,430.43c-12.66-12.66-30.16-20.48-49.47-20.48h-.05c-38.62.03-69.92,31.33-69.95,69.95v.11c.03,38.66,31.39,69.98,70.05,69.95,38.64-.03,69.95-31.36,69.95-69.99v-.06c-.02-19.33-7.85-36.81-20.53-49.46ZM170,480.11c-.02,13.8-5.62,26.28-14.66,35.33-9.05,9.03-21.55,14.62-35.34,14.62h-.05c-27.57-.03-49.92-22.38-49.95-49.95v-.11c.03-27.61,22.44-49.98,50.05-49.95,27.59.03,49.95,22.41,49.95,49.99v.06ZM120,450c-8.28,0-15.79,3.36-21.21,8.79-5.43,5.42-8.79,12.93-8.79,21.21,0,16.57,13.43,30,30,30,8.28,0,15.79-3.36,21.21-8.79,5.43-5.42,8.79-12.93,8.79-21.21s-3.36-15.79-8.79-21.21c-5.42-5.43-12.93-8.79-21.21-8.79ZM141.21,458.79c-5.42-5.43-12.93-8.79-21.21-8.79s-15.79,3.36-21.21,8.79c-5.43,5.42-8.79,12.93-8.79,21.21,0,16.57,13.43,30,30,30,8.28,0,15.79-3.36,21.21-8.79,5.43-5.42,8.79-12.93,8.79-21.21s-3.36-15.79-8.79-21.21ZM141.21,458.79c-5.42-5.43-12.93-8.79-21.21-8.79s-15.79,3.36-21.21,8.79c-5.43,5.42-8.79,12.93-8.79,21.21,0,16.57,13.43,30,30,30,8.28,0,15.79-3.36,21.21-8.79,5.43-5.42,8.79-12.93,8.79-21.21s-3.36-15.79-8.79-21.21ZM141.21,458.79c-5.42-5.43-12.93-8.79-21.21-8.79s-15.79,3.36-21.21,8.79c-5.43,5.42-8.79,12.93-8.79,21.21,0,16.57,13.43,30,30,30,8.28,0,15.79-3.36,21.21-8.79,5.43-5.42,8.79-12.93,8.79-21.21s-3.36-15.79-8.79-21.21ZM141.21,458.79c-5.42-5.43-12.93-8.79-21.21-8.79s-15.79,3.36-21.21,8.79c-5.43,5.42-8.79,12.93-8.79,21.21,0,16.57,13.43,30,30,30,8.28,0,15.79-3.36,21.21-8.79,5.43-5.42,8.79-12.93,8.79-21.21s-3.36-15.79-8.79-21.21ZM141.21,458.79c-5.42-5.43-12.93-8.79-21.21-8.79s-15.79,3.36-21.21,8.79c-5.43,5.42-8.79,12.93-8.79,21.21,0,16.57,13.43,30,30,30,8.28,0,15.79-3.36,21.21-8.79,5.43-5.42,8.79-12.93,8.79-21.21s-3.36-15.79-8.79-21.21ZM141.21,458.79c-5.42-5.43-12.93-8.79-21.21-8.79s-15.79,3.36-21.21,8.79c-5.43,5.42-8.79,12.93-8.79,21.21,0,16.57,13.43,30,30,30,8.28,0,15.79-3.36,21.21-8.79,5.43-5.42,8.79-12.93,8.79-21.21s-3.36-15.79-8.79-21.21ZM141.21,458.79c-5.42-5.43-12.93-8.79-21.21-8.79s-15.79,3.36-21.21,8.79c-5.43,5.42-8.79,12.93-8.79,21.21,0,16.57,13.43,30,30,30,8.28,0,15.79-3.36,21.21-8.79,5.43-5.42,8.79-12.93,8.79-21.21s-3.36-15.79-8.79-21.21ZM141.21,458.79c-5.42-5.43-12.93-8.79-21.21-8.79s-15.79,3.36-21.21,8.79c-5.43,5.42-8.79,12.93-8.79,21.21,0,16.57,13.43,30,30,30,8.28,0,15.79-3.36,21.21-8.79,5.43-5.42,8.79-12.93,8.79-21.21s-3.36-15.79-8.79-21.21ZM141.21,458.79c-5.42-5.43-12.93-8.79-21.21-8.79s-15.79,3.36-21.21,8.79c-5.43,5.42-8.79,12.93-8.79,21.21,0,16.57,13.43,30,30,30,8.28,0,15.79-3.36,21.21-8.79,5.43-5.42,8.79-12.93,8.79-21.21s-3.36-15.79-8.79-21.21ZM141.21,458.79c-5.42-5.43-12.93-8.79-21.21-8.79s-15.79,3.36-21.21,8.79c-5.43,5.42-8.79,12.93-8.79,21.21,0,16.57,13.43,30,30,30,8.28,0,15.79-3.36,21.21-8.79,5.43-5.42,8.79-12.93,8.79-21.21s-3.36-15.79-8.79-21.21ZM141.21,458.79c-5.42-5.43-12.93-8.79-21.21-8.79s-15.79,3.36-21.21,8.79c-5.43,5.42-8.79,12.93-8.79,21.21,0,16.57,13.43,30,30,30,8.28,0,15.79-3.36,21.21-8.79,5.43-5.42,8.79-12.93,8.79-21.21s-3.36-15.79-8.79-21.21ZM141.21,458.79c-5.42-5.43-12.93-8.79-21.21-8.79s-15.79,3.36-21.21,8.79c-5.43,5.42-8.79,12.93-8.79,21.21,0,16.57,13.43,30,30,30,8.28,0,15.79-3.36,21.21-8.79,5.43-5.42,8.79-12.93,8.79-21.21s-3.36-15.79-8.79-21.21ZM427.07,412.93c-1.81-1.81-4.32-2.93-7.07-2.93s-5.26,1.12-7.07,2.93c-1.81,1.81-2.93,4.32-2.93,7.07,0,5.53,4.47,10,10,10,2.76,0,5.26-1.12,7.07-2.93,1.81-1.81,2.93-4.32,2.93-7.07s-1.12-5.26-2.93-7.07ZM427.07,412.93c-1.81-1.81-4.32-2.93-7.07-2.93s-5.26,1.12-7.07,2.93c-1.81,1.81-2.93,4.32-2.93,7.07,0,5.53,4.47,10,10,10,2.76,0,5.26-1.12,7.07-2.93,1.81-1.81,2.93-4.32,2.93-7.07s-1.12-5.26-2.93-7.07ZM227.07,272.93c-1.81-1.81-4.32-2.93-7.07-2.93s-5.26,1.12-7.07,2.93c-1.81,1.81-2.93,4.32-2.93,7.07,0,5.53,4.47,10,10,10,2.76,0,5.26-1.12,7.07-2.93,1.81-1.81,2.93-4.32,2.93-7.07s-1.12-5.26-2.93-7.07ZM267.07,172.93c-1.81-1.81-4.32-2.93-7.07-2.93s-5.26,1.12-7.07,2.93c-1.81,1.81-2.93,4.32-2.93,7.07,0,5.53,4.47,10,10,10,2.76,0,5.26-1.12,7.07-2.93,1.81-1.81,2.93-4.32,2.93-7.07s-1.12-5.26-2.93-7.07ZM287.07,152.93c-1.81-1.81-4.32-2.93-7.07-2.93s-5.26,1.12-7.07,2.93c-1.81,1.81-2.93,4.32-2.93,7.07,0,5.53,4.47,10,10,10,2.76,0,5.26-1.12,7.07-2.93,1.81-1.81,2.93-4.32,2.93-7.07s-1.12-5.26-2.93-7.07ZM327.07,152.93c-1.81-1.81-4.32-2.93-7.07-2.93s-5.26,1.12-7.07,2.93c-1.81,1.81-2.93,4.32-2.93,7.07,0,5.53,4.47,10,10,10,2.76,0,5.26-1.12,7.07-2.93,1.81-1.81,2.93-4.32,2.93-7.07s-1.12-5.26-2.93-7.07ZM380,150c-2.76,0-5.26,1.12-7.07,2.93-1.81,1.81-2.93,4.32-2.93,7.07v20c0,5.53,4.47,10,10,10,2.76,0,5.26-1.12,7.07-2.93,1.81-1.81,2.93-4.32,2.93-7.07v-20c0-5.53-4.47-10-10-10ZM240,130c-2.76,0-5.26,1.12-7.07,2.93-1.81,1.81-2.93,4.32-2.93,7.07v20c0,5.53,4.47,10,10,10,2.76,0,5.26-1.12,7.07-2.93,1.81-1.81,2.93-4.32,2.93-7.07v-20c0-5.53-4.47-10-10-10ZM367.07,132.93c-1.81-1.81-4.32-2.93-7.07-2.93s-5.26,1.12-7.07,2.93c-1.81,1.81-2.93,4.32-2.93,7.07,0,5.53,4.47,10,10,10,2.76,0,5.26-1.12,7.07-2.93,1.81-1.81,2.93-4.32,2.93-7.07s-1.12-5.26-2.93-7.07ZM141.21,98.79c-5.42-5.43-12.93-8.79-21.21-8.79s-15.79,3.36-21.21,8.79c-5.43,5.42-8.79,12.93-8.79,21.21,0,16.57,13.43,30,30,30,8.28,0,15.79-3.36,21.21-8.79,5.43-5.42,8.79-12.93,8.79-21.21s-3.36-15.79-8.79-21.21ZM501.21,98.79c-5.42-5.43-12.93-8.79-21.21-8.79s-15.79,3.36-21.21,8.79c-5.43,5.42-8.79,12.93-8.79,21.21,0,16.57,13.43,30,30,30,8.28,0,15.79-3.36,21.21-8.79,5.43-5.42,8.79-12.93,8.79-21.21s-3.36-15.79-8.79-21.21ZM501.21,98.79c-5.42-5.43-12.93-8.79-21.21-8.79s-15.79,3.36-21.21,8.79c-5.43,5.42-8.79,12.93-8.79,21.21,0,16.57,13.43,30,30,30,8.28,0,15.79-3.36,21.21-8.79,5.43-5.42,8.79-12.93,8.79-21.21s-3.36-15.79-8.79-21.21ZM501.21,98.79c-5.42-5.43-12.93-8.79-21.21-8.79s-15.79,3.36-21.21,8.79c-5.43,5.42-8.79,12.93-8.79,21.21,0,16.57,13.43,30,30,30,8.28,0,15.79-3.36,21.21-8.79,5.43-5.42,8.79-12.93,8.79-21.21s-3.36-15.79-8.79-21.21ZM501.21,98.79c-5.42-5.43-12.93-8.79-21.21-8.79s-15.79,3.36-21.21,8.79c-5.43,5.42-8.79,12.93-8.79,21.21,0,16.57,13.43,30,30,30,8.28,0,15.79-3.36,21.21-8.79,5.43-5.42,8.79-12.93,8.79-21.21s-3.36-15.79-8.79-21.21ZM501.21,98.79c-5.42-5.43-12.93-8.79-21.21-8.79s-15.79,3.36-21.21,8.79c-5.43,5.42-8.79,12.93-8.79,21.21,0,16.57,13.43,30,30,30,8.28,0,15.79-3.36,21.21-8.79,5.43-5.42,8.79-12.93,8.79-21.21s-3.36-15.79-8.79-21.21ZM501.21,98.79c-5.42-5.43-12.93-8.79-21.21-8.79s-15.79,3.36-21.21,8.79c-5.43,5.42-8.79,12.93-8.79,21.21,0,16.57,13.43,30,30,30,8.28,0,15.79-3.36,21.21-8.79,5.43-5.42,8.79-12.93,8.79-21.21s-3.36-15.79-8.79-21.21ZM501.21,98.79c-5.42-5.43-12.93-8.79-21.21-8.79s-15.79,3.36-21.21,8.79c-5.43,5.42-8.79,12.93-8.79,21.21,0,16.57,13.43,30,30,30,8.28,0,15.79-3.36,21.21-8.79,5.43-5.42,8.79-12.93,8.79-21.21s-3.36-15.79-8.79-21.21ZM501.21,98.79c-5.42-5.43-12.93-8.79-21.21-8.79s-15.79,3.36-21.21,8.79c-5.43,5.42-8.79,12.93-8.79,21.21,0,16.57,13.43,30,30,30,8.28,0,15.79-3.36,21.21-8.79,5.43-5.42,8.79-12.93,8.79-21.21s-3.36-15.79-8.79-21.21ZM501.21,98.79c-5.42-5.43-12.93-8.79-21.21-8.79s-15.79,3.36-21.21,8.79c-5.43,5.42-8.79,12.93-8.79,21.21,0,16.57,13.43,30,30,30,8.28,0,15.79-3.36,21.21-8.79,5.43-5.42,8.79-12.93,8.79-21.21s-3.36-15.79-8.79-21.21ZM501.21,98.79c-5.42-5.43-12.93-8.79-21.21-8.79s-15.79,3.36-21.21,8.79c-5.43,5.42-8.79,12.93-8.79,21.21,0,16.57,13.43,30,30,30,8.28,0,15.79-3.36,21.21-8.79,5.43-5.42,8.79-12.93,8.79-21.21s-3.36-15.79-8.79-21.21ZM501.21,98.79c-5.42-5.43-12.93-8.79-21.21-8.79s-15.79,3.36-21.21,8.79c-5.43,5.42-8.79,12.93-8.79,21.21,0,16.57,13.43,30,30,30,8.28,0,15.79-3.36,21.21-8.79,5.43-5.42,8.79-12.93,8.79-21.21s-3.36-15.79-8.79-21.21ZM501.21,98.79c-5.42-5.43-12.93-8.79-21.21-8.79s-15.79,3.36-21.21,8.79c-5.43,5.42-8.79,12.93-8.79,21.21,0,16.57,13.43,30,30,30,8.28,0,15.79-3.36,21.21-8.79,5.43-5.42,8.79-12.93,8.79-21.21s-3.36-15.79-8.79-21.21ZM501.21,98.79c-5.42-5.43-12.93-8.79-21.21-8.79s-15.79,3.36-21.21,8.79c-5.43,5.42-8.79,12.93-8.79,21.21,0,16.57,13.43,30,30,30,8.28,0,15.79-3.36,21.21-8.79,5.43-5.42,8.79-12.93,8.79-21.21s-3.36-15.79-8.79-21.21ZM501.21,98.79c-5.42-5.43-12.93-8.79-21.21-8.79s-15.79,3.36-21.21,8.79c-5.43,5.42-8.79,12.93-8.79,21.21,0,16.57,13.43,30,30,30,8.28,0,15.79-3.36,21.21-8.79,5.43-5.42,8.79-12.93,8.79-21.21s-3.36-15.79-8.79-21.21ZM480,50.05h-.05c-38.66.03-69.98,31.39-69.95,70.05.03,38.64,31.36,69.95,69.99,69.95h.06c19.32-.01,36.79-7.84,49.44-20.51,12.65-12.65,20.48-30.14,20.51-49.44v-.11c-.03-38.64-31.37-69.95-70-69.95ZM530,120c-.03,27.6-22.41,49.95-50,49.95h-.05c-27.61-.03-49.98-22.44-49.95-50.05.03-27.59,22.41-49.95,49.99-49.95h.06c13.78.01,26.26,5.61,35.29,14.64,9.04,9.04,14.63,21.52,14.65,35.31v.11ZM480,90c-8.28,0-15.79,3.36-21.21,8.79-5.43,5.42-8.79,12.93-8.79,21.21,0,16.57,13.43,30,30,30,8.28,0,15.79-3.36,21.21-8.79,5.43-5.42,8.79-12.93,8.79-21.21s-3.36-15.79-8.79-21.21c-5.42-5.43-12.93-8.79-21.21-8.79ZM501.21,98.79c-5.42-5.43-12.93-8.79-21.21-8.79s-15.79,3.36-21.21,8.79c-5.43,5.42-8.79,12.93-8.79,21.21,0,16.57,13.43,30,30,30,8.28,0,15.79-3.36,21.21-8.79,5.43-5.42,8.79-12.93,8.79-21.21s-3.36-15.79-8.79-21.21ZM501.21,98.79c-5.42-5.43-12.93-8.79-21.21-8.79s-15.79,3.36-21.21,8.79c-5.43,5.42-8.79,12.93-8.79,21.21,0,16.57,13.43,30,30,30,8.28,0,15.79-3.36,21.21-8.79,5.43-5.42,8.79-12.93,8.79-21.21s-3.36-15.79-8.79-21.21ZM501.21,98.79c-5.42-5.43-12.93-8.79-21.21-8.79s-15.79,3.36-21.21,8.79c-5.43,5.42-8.79,12.93-8.79,21.21,0,16.57,13.43,30,30,30,8.28,0,15.79-3.36,21.21-8.79,5.43-5.42,8.79-12.93,8.79-21.21s-3.36-15.79-8.79-21.21ZM501.21,98.79c-5.42-5.43-12.93-8.79-21.21-8.79s-15.79,3.36-21.21,8.79c-5.43,5.42-8.79,12.93-8.79,21.21,0,16.57,13.43,30,30,30,8.28,0,15.79-3.36,21.21-8.79,5.43-5.42,8.79-12.93,8.79-21.21s-3.36-15.79-8.79-21.21ZM501.21,98.79c-5.42-5.43-12.93-8.79-21.21-8.79s-15.79,3.36-21.21,8.79c-5.43,5.42-8.79,12.93-8.79,21.21,0,16.57,13.43,30,30,30,8.28,0,15.79-3.36,21.21-8.79,5.43-5.42,8.79-12.93,8.79-21.21s-3.36-15.79-8.79-21.21ZM501.21,98.79c-5.42-5.43-12.93-8.79-21.21-8.79s-15.79,3.36-21.21,8.79c-5.43,5.42-8.79,12.93-8.79,21.21,0,16.57,13.43,30,30,30,8.28,0,15.79-3.36,21.21-8.79,5.43-5.42,8.79-12.93,8.79-21.21s-3.36-15.79-8.79-21.21ZM501.21,98.79c-5.42-5.43-12.93-8.79-21.21-8.79s-15.79,3.36-21.21,8.79c-5.43,5.42-8.79,12.93-8.79,21.21,0,16.57,13.43,30,30,30,8.28,0,15.79-3.36,21.21-8.79,5.43-5.42,8.79-12.93,8.79-21.21s-3.36-15.79-8.79-21.21ZM501.21,98.79c-5.42-5.43-12.93-8.79-21.21-8.79s-15.79,3.36-21.21,8.79c-5.43,5.42-8.79,12.93-8.79,21.21,0,16.57,13.43,30,30,30,8.28,0,15.79-3.36,21.21-8.79,5.43-5.42,8.79-12.93,8.79-21.21s-3.36-15.79-8.79-21.21ZM501.21,98.79c-5.42-5.43-12.93-8.79-21.21-8.79s-15.79,3.36-21.21,8.79c-5.43,5.42-8.79,12.93-8.79,21.21,0,16.57,13.43,30,30,30,8.28,0,15.79-3.36,21.21-8.79,5.43-5.42,8.79-12.93,8.79-21.21s-3.36-15.79-8.79-21.21ZM501.21,98.79c-5.42-5.43-12.93-8.79-21.21-8.79s-15.79,3.36-21.21,8.79c-5.43,5.42-8.79,12.93-8.79,21.21,0,16.57,13.43,30,30,30,8.28,0,15.79-3.36,21.21-8.79,5.43-5.42,8.79-12.93,8.79-21.21s-3.36-15.79-8.79-21.21ZM501.21,98.79c-5.42-5.43-12.93-8.79-21.21-8.79s-15.79,3.36-21.21,8.79c-5.43,5.42-8.79,12.93-8.79,21.21,0,16.57,13.43,30,30,30,8.28,0,15.79-3.36,21.21-8.79,5.43-5.42,8.79-12.93,8.79-21.21s-3.36-15.79-8.79-21.21ZM501.21,98.79c-5.42-5.43-12.93-8.79-21.21-8.79s-15.79,3.36-21.21,8.79c-5.43,5.42-8.79,12.93-8.79,21.21,0,16.57,13.43,30,30,30,8.28,0,15.79-3.36,21.21-8.79,5.43-5.42,8.79-12.93,8.79-21.21s-3.36-15.79-8.79-21.21ZM141.21,98.79c-5.42-5.43-12.93-8.79-21.21-8.79s-15.79,3.36-21.21,8.79c-5.43,5.42-8.79,12.93-8.79,21.21,0,16.57,13.43,30,30,30,8.28,0,15.79-3.36,21.21-8.79,5.43-5.42,8.79-12.93,8.79-21.21s-3.36-15.79-8.79-21.21ZM141.21,98.79c-5.42-5.43-12.93-8.79-21.21-8.79s-15.79,3.36-21.21,8.79c-5.43,5.42-8.79,12.93-8.79,21.21,0,16.57,13.43,30,30,30,8.28,0,15.79-3.36,21.21-8.79,5.43-5.42,8.79-12.93,8.79-21.21s-3.36-15.79-8.79-21.21ZM141.21,98.79c-5.42-5.43-12.93-8.79-21.21-8.79s-15.79,3.36-21.21,8.79c-5.43,5.42-8.79,12.93-8.79,21.21,0,16.57,13.43,30,30,30,8.28,0,15.79-3.36,21.21-8.79,5.43-5.42,8.79-12.93,8.79-21.21s-3.36-15.79-8.79-21.21ZM141.21,98.79c-5.42-5.43-12.93-8.79-21.21-8.79s-15.79,3.36-21.21,8.79c-5.43,5.42-8.79,12.93-8.79,21.21,0,16.57,13.43,30,30,30,8.28,0,15.79-3.36,21.21-8.79,5.43-5.42,8.79-12.93,8.79-21.21s-3.36-15.79-8.79-21.21ZM141.21,98.79c-5.42-5.43-12.93-8.79-21.21-8.79s-15.79,3.36-21.21,8.79c-5.43,5.42-8.79,12.93-8.79,21.21,0,16.57,13.43,30,30,30,8.28,0,15.79-3.36,21.21-8.79,5.43-5.42,8.79-12.93,8.79-21.21s-3.36-15.79-8.79-21.21ZM141.21,98.79c-5.42-5.43-12.93-8.79-21.21-8.79s-15.79,3.36-21.21,8.79c-5.43,5.42-8.79,12.93-8.79,21.21,0,16.57,13.43,30,30,30,8.28,0,15.79-3.36,21.21-8.79,5.43-5.42,8.79-12.93,8.79-21.21s-3.36-15.79-8.79-21.21ZM141.21,98.79c-5.42-5.43-12.93-8.79-21.21-8.79s-15.79,3.36-21.21,8.79c-5.43,5.42-8.79,12.93-8.79,21.21,0,16.57,13.43,30,30,30,8.28,0,15.79-3.36,21.21-8.79,5.43-5.42,8.79-12.93,8.79-21.21s-3.36-15.79-8.79-21.21ZM141.21,98.79c-5.42-5.43-12.93-8.79-21.21-8.79s-15.79,3.36-21.21,8.79c-5.43,5.42-8.79,12.93-8.79,21.21,0,16.57,13.43,30,30,30,8.28,0,15.79-3.36,21.21-8.79,5.43-5.42,8.79-12.93,8.79-21.21s-3.36-15.79-8.79-21.21ZM141.21,98.79c-5.42-5.43-12.93-8.79-21.21-8.79s-15.79,3.36-21.21,8.79c-5.43,5.42-8.79,12.93-8.79,21.21,0,16.57,13.43,30,30,30,8.28,0,15.79-3.36,21.21-8.79,5.43-5.42,8.79-12.93,8.79-21.21s-3.36-15.79-8.79-21.21ZM141.21,98.79c-5.42-5.43-12.93-8.79-21.21-8.79s-15.79,3.36-21.21,8.79c-5.43,5.42-8.79,12.93-8.79,21.21,0,16.57,13.43,30,30,30,8.28,0,15.79-3.36,21.21-8.79,5.43-5.42,8.79-12.93,8.79-21.21s-3.36-15.79-8.79-21.21ZM141.21,98.79c-5.42-5.43-12.93-8.79-21.21-8.79s-15.79,3.36-21.21,8.79c-5.43,5.42-8.79,12.93-8.79,21.21,0,16.57,13.43,30,30,30,8.28,0,15.79-3.36,21.21-8.79,5.43-5.42,8.79-12.93,8.79-21.21s-3.36-15.79-8.79-21.21ZM141.21,98.79c-5.42-5.43-12.93-8.79-21.21-8.79s-15.79,3.36-21.21,8.79c-5.43,5.42-8.79,12.93-8.79,21.21,0,16.57,13.43,30,30,30,8.28,0,15.79-3.36,21.21-8.79,5.43-5.42,8.79-12.93,8.79-21.21s-3.36-15.79-8.79-21.21ZM141.21,98.79c-5.42-5.43-12.93-8.79-21.21-8.79s-15.79,3.36-21.21,8.79c-5.43,5.42-8.79,12.93-8.79,21.21,0,16.57,13.43,30,30,30,8.28,0,15.79-3.36,21.21-8.79,5.43-5.42,8.79-12.93,8.79-21.21s-3.36-15.79-8.79-21.21ZM169.55,70.51c-12.65-12.65-30.14-20.48-49.44-20.51h-.11c-38.66.03-69.98,31.39-69.95,70.05.03,38.64,31.36,69.95,69.99,69.95h.06c38.64-.03,69.95-31.36,69.95-69.99v-.06c-.01-19.32-7.84-36.79-20.51-49.44ZM155.28,155.38c-9.05,9.03-21.54,14.62-35.34,14.62h-.05c-27.61-.03-49.98-22.44-49.95-50.05.01-13.78,5.61-26.26,14.64-35.29,9.04-9.04,21.52-14.63,35.31-14.65h.11c27.61.03,49.98,22.44,49.95,50.05-.01,13.8-5.62,26.28-14.66,35.33ZM120,90c-8.28,0-15.79,3.36-21.21,8.79-5.43,5.42-8.79,12.93-8.79,21.21,0,16.57,13.43,30,30,30,8.28,0,15.79-3.36,21.21-8.79,5.43-5.42,8.79-12.93,8.79-21.21s-3.36-15.79-8.79-21.21c-5.42-5.43-12.93-8.79-21.21-8.79ZM141.21,98.79c-5.42-5.43-12.93-8.79-21.21-8.79s-15.79,3.36-21.21,8.79c-5.43,5.42-8.79,12.93-8.79,21.21,0,16.57,13.43,30,30,30,8.28,0,15.79-3.36,21.21-8.79,5.43-5.42,8.79-12.93,8.79-21.21s-3.36-15.79-8.79-21.21ZM141.21,98.79c-5.42-5.43-12.93-8.79-21.21-8.79s-15.79,3.36-21.21,8.79c-5.43,5.42-8.79,12.93-8.79,21.21,0,16.57,13.43,30,30,30,8.28,0,15.79-3.36,21.21-8.79,5.43-5.42,8.79-12.93,8.79-21.21s-3.36-15.79-8.79-21.21ZM141.21,98.79c-5.42-5.43-12.93-8.79-21.21-8.79s-15.79,3.36-21.21,8.79c-5.43,5.42-8.79,12.93-8.79,21.21,0,16.57,13.43,30,30,30,8.28,0,15.79-3.36,21.21-8.79,5.43-5.42,8.79-12.93,8.79-21.21s-3.36-15.79-8.79-21.21ZM141.21,98.79c-5.42-5.43-12.93-8.79-21.21-8.79s-15.79,3.36-21.21,8.79c-5.43,5.42-8.79,12.93-8.79,21.21,0,16.57,13.43,30,30,30,8.28,0,15.79-3.36,21.21-8.79,5.43-5.42,8.79-12.93,8.79-21.21s-3.36-15.79-8.79-21.21ZM141.21,98.79c-5.42-5.43-12.93-8.79-21.21-8.79s-15.79,3.36-21.21,8.79c-5.43,5.42-8.79,12.93-8.79,21.21,0,16.57,13.43,30,30,30,8.28,0,15.79-3.36,21.21-8.79,5.43-5.42,8.79-12.93,8.79-21.21s-3.36-15.79-8.79-21.21ZM141.21,98.79c-5.42-5.43-12.93-8.79-21.21-8.79s-15.79,3.36-21.21,8.79c-5.43,5.42-8.79,12.93-8.79,21.21,0,16.57,13.43,30,30,30,8.28,0,15.79-3.36,21.21-8.79,5.43-5.42,8.79-12.93,8.79-21.21s-3.36-15.79-8.79-21.21ZM141.21,98.79c-5.42-5.43-12.93-8.79-21.21-8.79s-15.79,3.36-21.21,8.79c-5.43,5.42-8.79,12.93-8.79,21.21,0,16.57,13.43,30,30,30,8.28,0,15.79-3.36,21.21-8.79,5.43-5.42,8.79-12.93,8.79-21.21s-3.36-15.79-8.79-21.21ZM141.21,98.79c-5.42-5.43-12.93-8.79-21.21-8.79s-15.79,3.36-21.21,8.79c-5.43,5.42-8.79,12.93-8.79,21.21,0,16.57,13.43,30,30,30,8.28,0,15.79-3.36,21.21-8.79,5.43-5.42,8.79-12.93,8.79-21.21s-3.36-15.79-8.79-21.21ZM141.21,98.79c-5.42-5.43-12.93-8.79-21.21-8.79s-15.79,3.36-21.21,8.79c-5.43,5.42-8.79,12.93-8.79,21.21,0,16.57,13.43,30,30,30,8.28,0,15.79-3.36,21.21-8.79,5.43-5.42,8.79-12.93,8.79-21.21s-3.36-15.79-8.79-21.21ZM141.21,98.79c-5.42-5.43-12.93-8.79-21.21-8.79s-15.79,3.36-21.21,8.79c-5.43,5.42-8.79,12.93-8.79,21.21,0,16.57,13.43,30,30,30,8.28,0,15.79-3.36,21.21-8.79,5.43-5.42,8.79-12.93,8.79-21.21s-3.36-15.79-8.79-21.21ZM141.21,98.79c-5.42-5.43-12.93-8.79-21.21-8.79s-15.79,3.36-21.21,8.79c-5.43,5.42-8.79,12.93-8.79,21.21,0,16.57,13.43,30,30,30,8.28,0,15.79-3.36,21.21-8.79,5.43-5.42,8.79-12.93,8.79-21.21s-3.36-15.79-8.79-21.21ZM141.21,98.79c-5.42-5.43-12.93-8.79-21.21-8.79s-15.79,3.36-21.21,8.79c-5.43,5.42-8.79,12.93-8.79,21.21,0,16.57,13.43,30,30,30,8.28,0,15.79-3.36,21.21-8.79,5.43-5.42,8.79-12.93,8.79-21.21s-3.36-15.79-8.79-21.21ZM230,80c0,2.76-1.12,5.26-2.93,7.07-1.81,1.81-4.32,2.93-7.07,2.93-5.53,0-10-4.47-10-10,0-2.76,1.12-5.26,2.93-7.07,1.81-1.81,4.32-2.93,7.07-2.93s5.26,1.12,7.07,2.93c1.81,1.81,2.93,4.32,2.93,7.07ZM232.93,67.07c-1.81-1.81-2.93-4.32-2.93-7.07,0-5.53,4.47-10,10-10h20c2.76,0,5.26,1.12,7.07,2.93,1.81,1.81,2.93,4.32,2.93,7.07,0,5.53-4.47,10-10,10h-20c-2.76,0-5.26-1.12-7.07-2.93ZM390,60c0,5.53-4.47,10-10,10h-60c-2.76,0-5.26-1.12-7.07-2.93-1.81-1.81-2.93-4.32-2.93-7.07,0-5.53,4.47-10,10-10h60c2.76,0,5.26,1.12,7.07,2.93,1.81,1.81,2.93,4.32,2.93,7.07ZM287.07,92.93c1.81,1.81,2.93,4.32,2.93,7.07,0,5.53-4.47,10-10,10h-10v10c0,2.76-1.12,5.26-2.93,7.07-1.81,1.81-4.32,2.93-7.07,2.93-5.53,0-10-4.47-10-10v-10h-10c-2.76,0-5.26-1.12-7.07-2.93-1.81-1.81-2.93-4.32-2.93-7.07,0-5.53,4.47-10,10-10h40c2.76,0,5.26,1.12,7.07,2.93ZM330,100v20c0,2.76-1.12,5.26-2.93,7.07-1.81,1.81-4.32,2.93-7.07,2.93-5.53,0-10-4.47-10-10v-20c0-2.76,1.12-5.26,2.93-7.07,1.81-1.81,4.32-2.93,7.07-2.93,5.53,0,10,4.47,10,10ZM427.07,212.93c-1.81-1.81-4.32-2.93-7.07-2.93h-70v-30c0-5.53-4.47-10-10-10-2.76,0-5.26,1.12-7.07,2.93-1.81,1.81-2.93,4.32-2.93,7.07v10h-20v-10c0-5.53-4.47-10-10-10-2.76,0-5.26,1.12-7.07,2.93-1.81,1.81-2.93,4.32-2.93,7.07v20c0,5.53,4.47,10,10,10h30v10c0,5.53,4.47,10,10,10h10v50c0,5.53,4.47,10,10,10,2.76,0,5.26-1.12,7.07-2.93,1.81-1.81,2.93-4.32,2.93-7.07v-10h20v10c0,5.53,4.47,10,10,10,2.76,0,5.26-1.12,7.07-2.93,1.81-1.81,2.93-4.32,2.93-7.07v-50h10c5.53,0,10-4.47,10-10,0-2.76-1.12-5.26-2.93-7.07ZM390,250h-20v-20h20v20ZM367.07,532.93c1.81,1.81,2.93,4.32,2.93,7.07,0,5.53-4.47,10-10,10h-20c-5.53,0-10-4.47-10-10v-10h-10c-2.76,0-5.26-1.12-7.07-2.93-1.81-1.81-2.93-4.32-2.93-7.07,0-5.53,4.47-10,10-10h20c5.53,0,10,4.47,10,10v10h10c2.76,0,5.26,1.12,7.07,2.93ZM490,480c0-2.76,1.12-5.26,2.93-7.07,1.81-1.81,4.32-2.93,7.07-2.93,5.53,0,10,4.47,10,10v20c0,2.76-1.12,5.26-2.93,7.07-1.81,1.81-4.32,2.93-7.07,2.93-5.53,0-10-4.47-10-10v-20ZM452.93,247.07c-1.81-1.81-2.93-4.32-2.93-7.07,0-5.53,4.47-10,10-10h20c2.76,0,5.26,1.12,7.07,2.93,1.81,1.81,2.93,4.32,2.93,7.07,0,5.53-4.47,10-10,10h-20c-2.76,0-5.26-1.12-7.07-2.93ZM547.07,532.93c1.81,1.81,2.93,4.32,2.93,7.07,0,5.53-4.47,10-10,10h-120c-2.76,0-5.26-1.12-7.07-2.93-1.81-1.81-2.93-4.32-2.93-7.07,0-5.53,4.47-10,10-10h30v-30c0-2.76,1.12-5.26,2.93-7.07,1.81-1.81,4.32-2.93,7.07-2.93,5.53,0,10,4.47,10,10v10h10c5.53,0,10,4.47,10,10v10h50c2.76,0,5.26,1.12,7.07,2.93ZM547.07,472.93c1.81,1.81,2.93,4.32,2.93,7.07s-1.12,5.26-2.93,7.07c-1.81,1.81-4.32,2.93-7.07,2.93-5.53,0-10-4.47-10-10,0-2.76,1.12-5.26,2.93-7.07,1.81-1.81,4.32-2.93,7.07-2.93s5.26,1.12,7.07,2.93ZM530,240c0-2.76,1.12-5.26,2.93-7.07,1.81-1.81,4.32-2.93,7.07-2.93s5.26,1.12,7.07,2.93c1.81,1.81,2.93,4.32,2.93,7.07s-1.12,5.26-2.93,7.07c-1.81,1.81-4.32,2.93-7.07,2.93-5.53,0-10-4.47-10-10ZM510,220c0-2.76,1.12-5.26,2.93-7.07,1.81-1.81,4.32-2.93,7.07-2.93s5.26,1.12,7.07,2.93c1.81,1.81,2.93,4.32,2.93,7.07s-1.12,5.26-2.93,7.07c-1.81,1.81-4.32,2.93-7.07,2.93-5.53,0-10-4.47-10-10ZM87.07,212.93c1.81,1.81,2.93,4.32,2.93,7.07,0,5.53-4.47,10-10,10h-20c-2.76,0-5.26-1.12-7.07-2.93-1.81-1.81-2.93-4.32-2.93-7.07,0-5.53,4.47-10,10-10h20c2.76,0,5.26,1.12,7.07,2.93ZM87.07,252.93c1.81,1.81,2.93,4.32,2.93,7.07,0,5.53-4.47,10-10,10h-20c-2.76,0-5.26-1.12-7.07-2.93-1.81-1.81-2.93-4.32-2.93-7.07,0-5.53,4.47-10,10-10h20c2.76,0,5.26,1.12,7.07,2.93ZM170,220c0-2.76,1.12-5.26,2.93-7.07,1.81-1.81,4.32-2.93,7.07-2.93s5.26,1.12,7.07,2.93c1.81,1.81,2.93,4.32,2.93,7.07s-1.12,5.26-2.93,7.07c-1.81,1.81-4.32,2.93-7.07,2.93-5.53,0-10-4.47-10-10ZM90,320c0,5.53-4.47,10-10,10h-10v10c0,2.76-1.12,5.26-2.93,7.07-1.81,1.81-4.32,2.93-7.07,2.93-5.53,0-10-4.47-10-10v-20c0-5.53,4.47-10,10-10h10v-10c0-2.76,1.12-5.26,2.93-7.07,1.81-1.81,4.32-2.93,7.07-2.93,5.53,0,10,4.47,10,10v20ZM130,360v20c0,5.53-4.47,10-10,10h-20c-2.76,0-5.26-1.12-7.07-2.93-1.81-1.81-2.93-4.32-2.93-7.07,0-5.53,4.47-10,10-10h10v-10c0-2.76,1.12-5.26,2.93-7.07,1.81-1.81,4.32-2.93,7.07-2.93,5.53,0,10,4.47,10,10ZM187.07,372.93c1.81,1.81,2.93,4.32,2.93,7.07,0,5.53-4.47,10-10,10h-20c-2.76,0-5.26-1.12-7.07-2.93-1.81-1.81-2.93-4.32-2.93-7.07,0-5.53,4.47-10,10-10h20c2.76,0,5.26,1.12,7.07,2.93ZM480,390h-10v-60h10c5.53,0,10-4.47,10-10,0-2.76-1.12-5.26-2.93-7.07-1.81-1.81-4.32-2.93-7.07-2.93h-20c-5.53,0-10,4.47-10,10v10h-30c-5.53,0-10,4.47-10,10,0,2.76,1.12,5.26,2.93,7.07,1.81,1.81,4.32,2.93,7.07,2.93h10v20h-40v-30c0-5.53-4.47-10-10-10-2.76,0-5.26,1.12-7.07,2.93-1.81,1.81-2.93,4.32-2.93,7.07v30h-20v-30c0-5.53-4.47-10-10-10-2.76,0-5.26,1.12-7.07,2.93-1.81,1.81-2.93,4.32-2.93,7.07v10h-20v-40h10c5.53,0,10-4.47,10-10v-20c0-5.53-4.47-10-10-10h-10v-30c0-5.53-4.47-10-10-10h-30v-10c0-5.53-4.47-10-10-10h-10v-10c0-5.53-4.47-10-10-10h-10v-10c0-5.53-4.47-10-10-10-2.76,0-5.26,1.12-7.07,2.93-1.81,1.81-2.93,4.32-2.93,7.07v60c0,5.53,4.47,10,10,10,2.76,0,5.26-1.12,7.07-2.93,1.81-1.81,2.93-4.32,2.93-7.07v-10h20v50c0,5.53,4.47,10,10,10,2.76,0,5.26-1.12,7.07-2.93,1.81-1.81,2.93-4.32,2.93-7.07v-30h20v80h-40v-30c0-5.53-4.47-10-10-10-2.76,0-5.26,1.12-7.07,2.93-1.81,1.81-2.93,4.32-2.93,7.07v10h-10c-5.53,0-10,4.47-10,10v10h-40v-20h30c5.53,0,10-4.47,10-10,0-2.76-1.12-5.26-2.93-7.07-1.81-1.81-4.32-2.93-7.07-2.93h-30v-20h30c5.53,0,10-4.47,10-10,0-2.76-1.12-5.26-2.93-7.07-1.81-1.81-4.32-2.93-7.07-2.93h-30v-10c0-5.53-4.47-10-10-10h-40c-5.53,0-10,4.47-10,10,0,2.76,1.12,5.26,2.93,7.07,1.81,1.81,4.32,2.93,7.07,2.93h10v10c0,5.53,4.47,10,10,10h10v40h-30c-5.53,0-10,4.47-10,10,0,2.76,1.12,5.26,2.93,7.07,1.81,1.81,4.32,2.93,7.07,2.93h30v10c0,5.53,4.47,10,10,10h30v10c0,5.53,4.47,10,10,10h10v30c0,5.53,4.47,10,10,10,2.76,0,5.26-1.12,7.07-2.93,1.81-1.81,2.93-4.32,2.93-7.07v-30h30c5.53,0,10-4.47,10-10v-10h20v10c0,5.53,4.47,10,10,10h10v10c0,5.53,4.47,10,10,10h10v40h-20v-10c0-5.53-4.47-10-10-10h-10v-30c0-5.53-4.47-10-10-10-2.76,0-5.26,1.12-7.07,2.93-1.81,1.81-2.93,4.32-2.93,7.07v30h-10c-5.53,0-10,4.47-10,10v10h-10c-5.53,0-10,4.47-10,10v70h-10c-5.53,0-10,4.47-10,10v20c0,5.53,4.47,10,10,10,2.76,0,5.26-1.12,7.07-2.93,1.81-1.81,2.93-4.32,2.93-7.07v-10h20v10c0,5.53,4.47,10,10,10h40c5.53,0,10-4.47,10-10,0-2.76-1.12-5.26-2.93-7.07-1.81-1.81-4.32-2.93-7.07-2.93h-30v-10c0-5.53-4.47-10-10-10h-10v-20h30c5.53,0,10-4.47,10-10v-30h40v30c0,5.53,4.47,10,10,10h10v10c0,5.53,4.47,10,10,10h20c5.53,0,10-4.47,10-10,0-2.76-1.12-5.26-2.93-7.07-1.81-1.81-4.32-2.93-7.07-2.93h-10v-10c0-5.53-4.47-10-10-10h-10v-20h20v10c0,5.53,4.47,10,10,10h80c5.53,0,10-4.47,10-10v-30h10c5.53,0,10-4.47,10-10v-20c0-5.53-4.47-10-10-10ZM270,470h-20v-20h20v20ZM370,410h-20v-20h20v20ZM450,450h-60v-60h60v60ZM90,340c0-2.76,1.12-5.26,2.93-7.07,1.81-1.81,4.32-2.93,7.07-2.93s5.26,1.12,7.07,2.93c1.81,1.81,2.93,4.32,2.93,7.07s-1.12,5.26-2.93,7.07c-1.81,1.81-4.32,2.93-7.07,2.93-5.53,0-10-4.47-10-10ZM387.07,292.93c1.81,1.81,2.93,4.32,2.93,7.07s-1.12,5.26-2.93,7.07c-1.81,1.81-4.32,2.93-7.07,2.93-5.53,0-10-4.47-10-10,0-2.76,1.12-5.26,2.93-7.07,1.81-1.81,4.32-2.93,7.07-2.93s5.26,1.12,7.07,2.93ZM530,390v20h10c2.76,0,5.26,1.12,7.07,2.93,1.81,1.81,2.93,4.32,2.93,7.07,0,5.53-4.47,10-10,10h-10v30c0,2.76-1.12,5.26-2.93,7.07-1.81,1.81-4.32,2.93-7.07,2.93-5.53,0-10-4.47-10-10v-90h-10c-5.53,0-10-4.47-10-10v-20c0-5.53,4.47-10,10-10h20c5.53,0,10,4.47,10,10v30h10c2.76,0,5.26,1.12,7.07,2.93,1.81,1.81,2.93,4.32,2.93,7.07,0,5.53-4.47,10-10,10h-10ZM547.07,312.93c1.81,1.81,2.93,4.32,2.93,7.07s-1.12,5.26-2.93,7.07c-1.81,1.81-4.32,2.93-7.07,2.93-5.53,0-10-4.47-10-10,0-2.76,1.12-5.26,2.93-7.07,1.81-1.81,4.32-2.93,7.07-2.93s5.26,1.12,7.07,2.93ZM530,280c0-2.76,1.12-5.26,2.93-7.07,1.81-1.81,4.32-2.93,7.07-2.93s5.26,1.12,7.07,2.93c1.81,1.81,2.93,4.32,2.93,7.07s-1.12,5.26-2.93,7.07c-1.81,1.81-4.32,2.93-7.07,2.93-5.53,0-10-4.47-10-10ZM430,300v-20c0-5.53,4.47-10,10-10h50v-10c0-5.53,4.47-10,10-10h20c2.76,0,5.26,1.12,7.07,2.93,1.81,1.81,2.93,4.32,2.93,7.07,0,5.53-4.47,10-10,10h-10v10c0,5.53-4.47,10-10,10h-50v10c0,2.76-1.12,5.26-2.93,7.07-1.81,1.81-4.32,2.93-7.07,2.93-5.53,0-10-4.47-10-10ZM390,320c0-2.76,1.12-5.26,2.93-7.07,1.81-1.81,4.32-2.93,7.07-2.93s5.26,1.12,7.07,2.93c1.81,1.81,2.93,4.32,2.93,7.07s-1.12,5.26-2.93,7.07c-1.81,1.81-4.32,2.93-7.07,2.93-5.53,0-10-4.47-10-10Z"/>
</svg>