<?xml version="1.0" encoding="UTF-8"?>
<svg id="Layer_1" data-name="Layer 1" xmlns="http://www.w3.org/2000/svg" viewBox="0 0 600 600">
  <defs>
    <style>
      .cls-1 {
        fill: #0a0a0a;
      }
    </style>
  </defs>
  <path class="cls-1" d="M337.38,332.15c-3.95-5.28-14.32-5.14.83-9.66l7.56,3.61,2.18-3.3c.01-.51-4.29-1.91-4.62-3.28-3.08-12.8.21-25.02-.49-37.53-.25-4.51-6.14-30.29-3.65-31.28.44-.17,4.78,1.11,5.9.3,6.58-4.75-5.71-16.89-5.86-23.43l8.95,1.64c1.89-1.64,3.06-3.61,3.03-5.75-.08-8.13-11.75-28.26-13.37-38.4-1.58-9.87-.71-18.42,9.98-25.49,1.43-.95,6.15.64,6.97-.16,4.09-3.96-6.15-15.57,8.17-13.22-18.23-9.79-16.5-20.62-8.35-29.76l8.53,2.28c-4.1-8.52,8.8-13.26,12.24-19.29,4.33-7.57,5.52-18.54,9.69-26.44l2.69,3.9,8.92-.66c-3.59,4.3,5.93,11.29,5.44,15.77-.3,2.77-4.3,3.75-4.62,5.48-2.44,13.32,7.69,24.17-.98,37.45-.99,1.51-6.47,1.87-8.43,5.24-3.66,6.31-1.93,23.83,3.56,31.35l-6.88-.29c-7.92,9.18,4.89,16.75,5.1,22.47.24,6.55-7.74,15-7.24,21.75.92,12.49,10.04,37.2,8.13,48.89-1.09,6.62-7.27,15.07-9.36,22.04-3,10.01-3.48,14.34-.66,24.49,4.9,17.68,4.02,25.98,3.77,42.18-.09,5.58,2.02,26.27,5.46,31.05,1.97,2.74,8.12,2.33,9.9,3.51,2.66,1.78,1.54,5.47,3.6,7.95,2.13,2.55,7.41,4.51,8.79,7.31,5.74,11.65-7.49,21.75-11.18,32.05-.83,2.33,2.05,6.09,1.4,6.84-1.28,1.49-9.4.15-9.78,2.82-.65,4.61,7.84,11.03,9.98,15.75,4.2,9.3,9.69,21.88,13.12,31.12,5.46,14.74.25,27.02,3.8,42.17,1.47,6.28,9.84,10.36-3.73,16.39-2-7.24-16.84-16.6-19.67-22.89-4.28-9.5-13.18-34.03-11.58-42.34.47-2.41,5.23-3.96,5.16-5.52-.13-2.71-8.41-4.5-10.59-7.12-1.27-1.53-13.13-27.29-14.53-30.92-7.31-18.96-6.17-35.93-8.8-53.66-1.28-8.65-12.04-16.23-13.86-23.71-2.88-11.78,6.15-17.36-4.6-31.7ZM217.05,455.64c1.09,4.91,14.39,26.96,18.78,31.63.98,1.04,17.15,6.3,19.34,10.03,9.45-6.25-.69-14.65-1.1-21.2-.29-4.62,3.18-10.84,2.05-16.13-2.53-11.86-18.7-26.11-12.49-37.42,2.05-3.74,9.57-6.46,8.26-10.67-1.01-3.24-7.77-3.8-9.33-6.1-1.73-2.57-.6-12.21-2.35-15.34-1.22-2.19-6.52-2.26-7.97-4.24-6.31-8.54,10.63-15.61,11.28-23.1.1-1.1-4.28-2.11-4.35-3.48-.54-11.38-3.8-24.98-3.4-35.9.45-12.36,11.23-28.41,13.76-40.96,1.1-5.47-15.32-25.65-7.54-31.79,1.08-.85,6.04.85,6.46.11,3.17-5.58,5.44-13.81,1.93-20.3-.65-1.19-5.26-2.87-6.44-4.53-5.93-8.37,5.15-12.56,7.09-19.36,4.15-14.53.95-34.27,3.68-49.39l-7.14-1.97,2.24-3.96c-14.05-5.97-5.5,3.73-17.08-.06,1.4-5.7,8.96-4.14,17.95-1.28l-.99-4.07c16.31.84,3.82-15.01,7.74-22.03,3.55-6.35,9.65-1.67,3.8-14.42-8.18-17.84-4.66-32.93-5.33-51.09-.07-1.97.29-7.13-3.88-8.59-9.1,7.1-16.19,14.63-18.55,23.91-2.19,8.6,3.99,18.31-2.36,26.08-2.05,2.51-6.88.18-7.97,1.14-7.65,6.62,8.11,26.97,4.2,34.6-1.5,2.93-13.38,5.31-12.82,12.8.38,5.1,12.44,2.97,15.21,7.65l-19.06-4.43c-6-.81-5.65,10.01-5.83,12.76-.16,2.38,3.83,4.99,3.38,7.85-.6,3.77-13.93,12.37-11.54,14.66,14.75-2.98,13.21,8.27,13.85,14.53.27,2.6.84,14.13.37,15.65-.96,3.09-8.08,4.29-8.94,8.7-2.48,12.71,14.73,27.81,3.91,39.14,12.78.24,20.46,11.82,3.28,5.61l.28-3.04-5.5.96c1.57,5.09-1.24,9.73-1.02,14.55.96,20.15,7.9,44.17,11.06,64.34.36,2.3,3.89,5.26,3.77,6.93-.28,3.98-8.44,2.43-11.9,4.48-5.81,3.45-7.65,11.57-13.86,15.45l9.54,1.1c-5.91,4.89-1.59,7.64,3.58,12.99,3.4,3.53,3.18,2.34,7.19,7.74,1.5,2.02,6.72,3.76,6.72,5.58,0,2.58-5.28,3.71-5.74,5.78-2.12,9.47,2.21,23.2,4.42,32.73,1.43,6.16-1.88,9.79-.65,15.38ZM489.02,408.09c-.98,2.8-6.18,4.11-7.16,6.96-1.51,4.4,14.39,36.52,19.52,42.54,1.85,2.16,4.27,4.28,6.29,6.42,11.51,3.26,5.11-17,6.79-19.19,16.74,1.64,2.64-16.44,3.87-21.42,3.63-14.77,1.19-11.03-2.68-25.13-3.46-12.62,8-19.67,9.97-28.43,2.05-9.13-25.06-43.67-22.83-57.63,1.25-7.79,11.67-14.11,10.13-22.75l7.88,3.76c-2.38-5.5,4.64-5.11,7.48-7.81.96-.91-.9-3.54.25-4.79.78-.84,5.5.56,5.99.38.87-.32,2.36-.13,1.38-1.39-3.89-4.93.76-8.8-1.39-13.31-1.31-2.74-8.33-7.35-10.57-10.73-3.24-4.89-4.73-11.83-9.91-16.93-3.62-3.56-3.21,2.19-5.65.79l-4.3-6.73,9.07,1.79c13.81-5.25,1.77-12.01.83-19.13-2.84-21.52-8.32-42.92-9.77-64.42-.31-4.59-3.68-9.59-3.25-14.18-9.95-.85-15.8,24.52-19.32,28.47-2.16,2.44-7.09-.37-8.88,2.09-3.83,5.25-4,21.02-3.05,27.48-10.71-1.6-5.45,5-16.01,3.38,5.3,8.09,7.35,16.11,10.83,24.15,7.71,17.82,5.09,23.53,6.54,40.57.31,3.68,6.27,11.02,5.46,12.68-.88,1.83-6.58,1.72-7.14,2.5-.61.84,4.54,4.01,4.72,6.37.85,10.94-7.86,26.92-7.77,36.45.03,2.73,6.92,6.63,7.65,9.92.86,3.87-2.59,6.61-2.19,10.06,1.2,10.26,18.37,20.08-16.29,20.47l-2.79,2.32,32.2,28.45c1.35,1.73,4.57,14.58,4.09,15.94ZM112.42,418.94c-5.93-5.18-.7-9.31-.83-14.52-.06-2.61-4.69-5.43-4.44-7.36.61-4.71,10.06-14.35,11.1-20.42.84-4.88-4.27-10.74-.52-15.17l9.24,1.77c-2.38-8.67,4.23-15.79,6.6-22.85.49-1.47-3.15-4.29-1.81-7.21,1.92-4.18,11.88-7.77,12.02-13.16-3.51-1.05-23.79,9.38-27.1,5l10.44-11.22c-3.62-1.86-5.98,4.68-10.36.24-2.1-2.13,3.37-19.88,3.18-24.25-.27-6.23-6.02-13.7-4.74-20.11.73-3.66,8.62-11.54,6.86-13.75-.2-.25-5.81.27-7.64-3.1-2.93-5.41,4.44-9.29,3.15-12.14-.5-1.1-8.5-3.73-8.34-6.86,7.26-4.6,12.8-7.85,12.29-15.04-.26-3.6-4.3-5.91-4.37-7.92-.15-4.16,5.39-7.28,6.02-11.27l-8.11-3.23c7.97-7.88,2.98-19.68,5.48-28.45,1.67-5.87,5.14-.9,1.4-9.2-3.44-7.64-3.08-10.83,3.55-16.74l-6.64-.26c1.1-9.58,13.91-18.71,11.06-28.7-.73-2.56-12.54-8.05-12.35-12.11.18-3.81,10.34-7.08,10.59-12.07.07-1.37-5.82-3.51-7.04-6.6-1.93-4.85,2.02-11.11,1.78-16.13-.1-2.1-1.22-7.86-5.27-9.62-3.91,5.17-1.85,11-6.85,16.06-4.79,4.86-23.22,14.22-25.28,18.28-1.64,3.23,2.95,6.4,1.78,8.28-1.91,3.05-9.2,2.55-9.44,11.15-.15,5.27,6.57,6.4,6.73,8.71.27,3.81-10.19,13.92-9.06,15.34l9.56,1.09c1.27,2.67-3.27,8.96-2.3,10.11.7.82,5.6,1.9,7.33,3.18,9.86,7.31-6.49,20.4-6.84,25.58-.25,3.68,9.66,10.56,10.98,13.97,1.42,3.68-5.36,9.35-5.88,13.01-.13.93,4.45,2.24,4.46,5.64.02,15.83-25.14,34.62-28.72,50.41-1.94,8.53,6.51,21.41,1.56,29.65,3.32,3.12,11.67,3.49,14.83,4.86,13.69,5.92-5.73,13.35-1.33,17.67,2.51,2.47,17.26,6.14,17.22,14.2,0,.75-4.07,12.69-4.7,13.98-1.05,2.13-6.85,3.62-6.83,5.74.03,2.46,8.21,4.9,7.77,7.03-.72,3.48-8.87,9.58-10.69,12.87-1.39,2.51,4.48,3.3,4.31,4.57-.34,2.58-4.06,4.69-4.1,7.69-.06,4.53,14.47,18,15.31,21.16.92,3.44-6.8,4.61-3.88,8.93,2.07,3.05,7.2,3.94,8.91,5.51,2.41,2.21,2.04,8.44,9.97,7.77Z"/>
</svg>