<?xml version="1.0" encoding="UTF-8"?>
<svg id="Layer_1" data-name="Layer 1" xmlns="http://www.w3.org/2000/svg" viewBox="0 0 600 600">
  <path d="M254.34,300.13c0,18.56-15.06,33.61-33.63,33.61s-33.63-15.05-33.63-33.61,15.06-33.61,33.63-33.61,33.63,15.05,33.63,33.61ZM260.45,335.2c-18.57,0-33.62,15.05-33.62,33.61s15.05,33.61,33.62,33.61,33.62-15.05,33.62-33.61-15.05-33.61-33.62-33.61ZM260.21,197.64c-18.56,0-33.61,15.04-33.61,33.6s15.05,33.6,33.61,33.6,33.61-15.04,33.61-33.6-15.05-33.6-33.61-33.6ZM339.86,335.1c-18.55,0-33.59,15.03-33.59,33.58s15.04,33.58,33.59,33.58,33.59-15.03,33.59-33.58-15.04-33.58-33.59-33.58ZM379.35,266.2c-18.54,0-33.57,15.02-33.57,33.56s15.03,33.56,33.57,33.56,33.57-15.02,33.57-33.56-15.03-33.56-33.57-33.56ZM339.51,197.61c-18.52,0-33.54,15.01-33.54,33.53s15.02,33.53,33.54,33.53,33.54-15.01,33.54-33.53-15.02-33.53-33.54-33.53ZM299.61,144.33c-10.89,0-19.71,8.82-19.71,19.7s8.83,19.7,19.71,19.7,19.71-8.82,19.71-19.7-8.83-19.7-19.71-19.7ZM298.94,416.24c-10.87,0-19.69,8.81-19.69,19.68s8.81,19.68,19.69,19.68,19.69-8.81,19.69-19.68-8.81-19.68-19.69-19.68ZM417.92,348.01c-10.87,0-19.68,8.81-19.68,19.67s8.81,19.67,19.68,19.67,19.68-8.81,19.68-19.67-8.81-19.67-19.68-19.67ZM182.09,212.63c-10.87,0-19.68,8.81-19.68,19.67s8.81,19.67,19.68,19.67,19.68-8.81,19.68-19.67-8.81-19.67-19.68-19.67ZM182.41,348.62c-10.86,0-19.67,8.8-19.67,19.66s8.8,19.66,19.67,19.66,19.67-8.8,19.67-19.66-8.8-19.66-19.67-19.66ZM417.58,212.07c-10.86,0-19.66,8.8-19.66,19.65s8.8,19.65,19.66,19.65,19.66-8.8,19.66-19.65-8.8-19.65-19.66-19.65ZM388.69,435.83c-9.25,0-16.75,7.5-16.75,16.74s7.5,16.74,16.75,16.74,16.75-7.5,16.75-16.74-7.5-16.74-16.75-16.74ZM387.94,130.32c-9.25,0-16.74,7.49-16.74,16.74s7.5,16.74,16.74,16.74,16.74-7.49,16.74-16.74-7.5-16.74-16.74-16.74ZM212.06,436.19c-9.25,0-16.74,7.49-16.74,16.74s7.5,16.74,16.74,16.74,16.74-7.49,16.74-16.74-7.5-16.74-16.74-16.74ZM476.45,282.9c-9.24,0-16.73,7.49-16.73,16.72s7.49,16.72,16.73,16.72,16.73-7.49,16.73-16.72-7.49-16.72-16.73-16.72ZM123.53,283.73c-9.24,0-16.73,7.49-16.73,16.72s7.49,16.72,16.73,16.72,16.73-7.49,16.73-16.72-7.49-16.72-16.73-16.72ZM211.49,130.78c-9.21,0-16.67,7.46-16.67,16.66s7.46,16.66,16.67,16.66,16.67-7.46,16.67-16.66-7.46-16.66-16.67-16.66ZM112.18,395.24c-7.6,0-13.77,6.16-13.77,13.76s6.16,13.76,13.77,13.76,13.77-6.16,13.77-13.76-6.16-13.76-13.77-13.76ZM299.1,503.43c-7.6,0-13.76,6.16-13.76,13.75s6.16,13.75,13.76,13.75,13.76-6.16,13.76-13.75-6.16-13.75-13.76-13.75ZM299.5,69.07c-7.59,0-13.75,6.15-13.75,13.75s6.16,13.75,13.75,13.75,13.75-6.15,13.75-13.75-6.16-13.75-13.75-13.75ZM487.74,177.29c-7.59,0-13.75,6.15-13.75,13.74s6.16,13.74,13.75,13.74,13.75-6.15,13.75-13.74-6.16-13.74-13.75-13.74ZM488.36,394.43c-7.59,0-13.75,6.15-13.75,13.74s6.16,13.74,13.75,13.74,13.75-6.15,13.75-13.74-6.16-13.74-13.75-13.74ZM111.64,178.05c-7.59,0-13.74,6.15-13.74,13.74s6.15,13.74,13.74,13.74,13.74-6.15,13.74-13.74-6.15-13.74-13.74-13.74ZM420.05,496.1c-5.96,0-10.79,4.83-10.79,10.79s4.83,10.79,10.79,10.79,10.79-4.83,10.79-10.79-4.83-10.79-10.79-10.79ZM179.95,82.33c-5.96,0-10.79,4.83-10.79,10.78s4.83,10.78,10.79,10.78,10.79-4.83,10.79-10.78-4.83-10.78-10.79-10.78ZM419.07,81.84c-5.95,0-10.78,4.82-10.78,10.78s4.83,10.78,10.78,10.78,10.78-4.82,10.78-10.78-4.83-10.78-10.78-10.78ZM539.22,288.69c-5.95,0-10.78,4.82-10.78,10.77s4.83,10.77,10.78,10.77,10.78-4.82,10.78-10.77-4.83-10.77-10.78-10.77ZM60.77,289.75c-5.95,0-10.77,4.82-10.77,10.76s4.82,10.76,10.77,10.76,10.77-4.82,10.77-10.76-4.82-10.76-10.77-10.76ZM180.78,496.56c-5.94,0-10.75,4.81-10.75,10.75s4.82,10.75,10.75,10.75,10.75-4.81,10.75-10.75-4.82-10.75-10.75-10.75Z"/>
</svg>