<?xml version="1.0" encoding="UTF-8"?>
<svg id="Layer_1" data-name="Layer 1" xmlns="http://www.w3.org/2000/svg" viewBox="0 0 600 600">
  <path d="M122.59,57.43v1.5c.33,1.5.33,3.49.66,6.49q.33,0,.33.5v2.5c.33,0,.66.5.99,4.99v1.5c0,1.5.33,3.49.66,6.49l.33.5v2s.66,1,.99,7.49c.99,7.49,1.98,17.97,3.3,32.45q.33.5.33,1v4.99c.33,0,.33.5.33,1v1.5l1.65,10.48v1.5c0,.5,0,1.5.33,2.5v1c.33.5.33,1,.33,1.5v1.5c.33,0,.33,2,.66,5.49l1.32,10.98.33.5c0,2,.33,6.99,1.32,15.48,0,1,0,2.99.33,5.49.33,0,.66,1,.66,4.99q.33,0,.66.5c-.33,1-.33,2.5,0,4.99,0,0,.33.5.66,3.99v1l.99,10.98q.33,0,.33.5v.5c.33.5.66,1.5,1.65,2.5.33-.5.99-2.5,1.32-6.99,0-1,0-3,.33-5.99l1.32-9.49c-.33-.5-.33-1,0-2,0-1.5.33-4.99,1.32-9.98,0-1.5,0-3.5.33-5.99q0-.5.33-.5c0-1.5,0-3.99.33-7.49q.33,0,.33-.5l.99-8.49c0-3.99.99-8.49,1.65-18.47q.33,0,.33-.5v-2q.33-.5.33-1l1.98-18.97.99-7.49v-2c.33-1,.33-2.99.66-5.49l.99-5.49q-.33-.5,0-1c0-1.5,0-3.49.33-5.99v-2l.33-.5q0-.5-.33-.5l2.31-14.98.66-5.49.33-.5c0-1.5,0-3,.33-4.49,0-.5,0-2,1.98-14.98h4.29c7.26-.5,23.43-.5,48.83-.5h8.91c.66,0,1.65.5,3.3,1.5.66.5,1.32.5,1.65,1,.33,0,.99,1,1.65,3,.99,2,1.32,19.97,1.32,53.42v129.8c.33.5.33,1.5.33,2,0,0,0,.5-.33,1v4.99c.33,1.5.33,2.5.33,3-.33,1.5-.33,3.99-.33,6.99v8.49c.33.5.33,1.5.33,1.99q-.33,0-.33.5c-.33,6.49-.33,8.99-.33,7.99,0,2,.33,4.99.66,8.49.33,6.49.33,12.98,0,19.47,0,.5,0,1-.33,1.5v1.5c0,.5,0,1,.33,2,.33,4.49.33,13.98,0,28.46-.33,5.99-.33,10.49,0,13.48l.33.5v1.5c-.33.5-.33,5.49-.33,15.98v64.4q-.33,0-.33.5v2c.33,6.49.33,9.49.33,8.99-.33,12.48-.33,17.97-.33,17.47,0,.5,0,1,.33,2,.33,8.49.33,16.97,0,24.46-.33,1.5-.33,2.5-.33,2.5,0,.5,0,1,.33,1.5v19.97c0,1,0,2.5-.33,4.49v4.99c0,15.48,0,21.47.33,17.97-.33.5-.33,2-.66,3.99l-1.65,3.99c-1.65.5-5.94.5-12.87.5h-37.61v-10.98c-.33-13.48-.33-31.95,0-56.42.33-4.49.66-6.99.66-8.49q-.33,0-.66-.5c.66-.5.99-2,.66-3.49-.33-1-.66-4.99-.66-11.98,0-3.49.33-15.47.66-34.95.33-14.48.33-25.96,0-35.45-.33-.5-.33-1.5-.66-2.99v-2.5l.66-4.99c-.33-2.5-.33-6.49-.66-11.48.33-4.99.33-14.48.66-28.46.33-11.48.33-20.97.33-28.46v-8.99c0-2-.33-4.99-.99-8.49-.99,0-2.31,3.5-2.64,16.98v2.99c-1.65,6.49-.99,9.98-5.61,44.93l-.99,11.48c-.33.5-.33,1.5-.66,2.99-.66,5.49-1.65,13.98-2.64,24.96v1c-.33.5-.33,1.5-.33,3,0,1,0,1.5,0,1-.33.5-.33,1.5-.33,2.99v1l-1.65,8.99v2.99c-1.32,11.48-2.64,22.47-4.29,33.45,0,1.5-.33,4.49-.66,8.49-.33.5-.66,1-.99,2.5,0,2.5-.33,5.99-.99,11.48l-.33.5v2c0,.5,0,1.5-.33,2.99,0,1,0,1.5,0,1-.33,1-.33,2.5-.66,4.49l-4.62,37.45c0,1-.33,2.99-.66,5.49v1.5l-.99,6.99c-.33,1.5-.66,3.99-.99,8.49l-1.32,6.49c-.99.5-3.96.5-9.57.5-4.95,0-7.92,0-8.91-.5-3.3-25.46-7.92-63.41-13.86-114.33-.33-2.5-.33-5.99-.66-10.48-.33,0-.66-1-.99-4.49l-.33-.5c0-1.5,0-2,0-1.5l-1.32-11.98-.99-9.49c0-1.5-.33-3.99-.66-6.49,0-1.5-.33-3-.66-5.49,0-1,0-1.5,0-1-.33-1.5-.66-3.5-.99-8.99v-1h-.33c-.33-4.49-1.32-10.98-2.31-19.97l-.33-.5c0-1.5,0-3.99-.33-7.49v-1.5c-.33,0-.66-3.99-1.32-11.98q-.33-.5,0-1h-.66c-.33-4.49-.66-10.98-1.65-19.97-.33-2.99-.66-7.49-1.65-13.48,0,0,0-1-1.32-4.49-1.32,0-.99,4.99-1.32,5.49-.33,0,0,.5.33,2-.33,12.48,0,30.95.33,54.42.33,24.96.66,42.94.66,54.42,0,2.5,0,7.49.33,14.48v19.97c-.33,2-.33,3.5-.33,4.49,0,1.5,0,3.99.33,6.49v82.88c0,6.49,0,10.48-.33,11.98h-11.22c-.33,0-.99,0-1.65.5-.99-.5-2.31-.5-3.96-.5-.33,0-.66,0-1.32.5-6.6.5-11.88.5-15.51,0h-2.31c-3.96.5-7.26,0-9.9-1-.33-1-.33-3.99-.33-8.99v-44.93c0-.5-.66-2.99-.66-3.5s.66-3.49.66-3.99c0-5.99-.66-20.97-.66-26.46v-43.93c-.33-19.47-.33-34.45-.33-44.43v-23.96q0-.5-.33-.5c.33-1.5.33-2,.33-1.5v-4.49c-.33-8.49-.33-17.47,0-25.96,0,1,0-3-.33-12.48-.33-15.48-.33-26.96,0-35.45.33-2,.33-4.99.66-8.99v-3.99l-.33-.5c.33-1,.33-1.5,0-1.5,0-.5,0-4.99-.33-13.48l-.33-.5v-2q.33,0,.33-.5c.33-3.5.33-7.99,0-13.98-.33-7.49-.33-12.48-.33-14.98v-108.34c0-1,0-3-.33-6.49v-7.99c.33-2,.33-2.99.33-2.99,0,0,0-.5-.33-1,.33-8.99.33-12.48.33-10.98v-7.49c0-.5,0-1.5-.33-2.99v-3c0-2.5.33-3.99.66-5.49h5.61c.33,0,1.32,0,2.64-.5,4.95-.5,9.9-.5,14.85,0,1.32.5,3.3.5,5.94,1h9.24c7.59.5,10.56.5,8.91.5,1.32,0,2.97-.5,4.62-1.5h9.9c4.95,0,7.92,0,8.91.5l1.32,7.99ZM71.12,289.59c.66,0,.99,0,.99-.5,0-1.5-.66-2.5-1.65-1.99-.33,1.5-.33,1.99-.33,1.99.33.5.66.5.99.5ZM138.76,526.73c0-1.5-.66-2-1.65-2.5,0,1.5.33,3,1.32,3.5q0-.5.33-1Z"/>
  <path d="M397.77,62.92l-.99,13.48v27.46c0,29.46-.33,47.43-1.32,52.92-6.93,2.5-17.16,3-31.35,2.5-13.86-1-24.09-.5-30.69,1.99-2.97-.5-6.93.5-12.21,2-2.97,8.99-4.29,21.97-4.29,38.44,0,23.97,0,36.94-.33,39.44,2.97,3.99,7.59,5.99,14.52,5.99,2.31,0,6.27-.5,11.55-1,5.61-.5,9.57-1,12.54-1,5.28,0,9.57,1,12.87,3-.33,16.97-.33,41.94,0,75.39l.99,11.48c.33,3.99,0,6.99-.99,9.49-4.29,2-11.55,2.5-22.11,1-10.56-1.5-18.15-1.5-23.1,1-.66,1-1.65,3.99-3.3,9.49l-1.32,11.48-1.65,6.49c.66.5,1.32,1,1.65,2.5-.33,0-.99,1-1.65,2.5.66,0,1.32.5,1.65,2-.33.5-.99,1-1.65,2.5,0,1.5.66,12.98,1.65,34.45.99,17.97.99,36.94,0,56.91-.33,3.49-1.65,12.48-1.65,15.98,0,4.49,1.65,19.47,1.65,27.46,0,14.98-.66,23.96-1.65,27.46-3.3,1.5-13.86,2.5-31.68,2.5s-28.05-1-31.68-2.5c-.33-.5-.33-6.49,0-17.97-.66-12.48-.66-31.95,0-57.41,0-2,1.32-6.49,1.32-8.99,0-3.5-1.32-11.98-1.32-18.47-.99-23.97-.99-43.93,0-59.41.33-4.49.99-11.48,1.32-20.97-.66-10.49-.99-26.46-1.32-47.93,0-1.5.33-8.49.99-19.97.33-8.99.66-16.98.33-23.46,0-3.5-1.32-13.98-1.32-18.47s.33-10.48.66-18.97c.33-8.49.66-15.48.66-19.97-.33-3.49-.99-9.49-1.32-17.97-.66-10.98-.66-26.96-.33-47.93.33-22.47.66-38.44.33-48.43-.66-1.5-1.32-3.49-1.65-6.99l1.65-6.99c-.33-19.97-.33-30.45,0-31.95,8.91,0,22.44-.5,40.58-2,1.65-1,3.63-2,6.27-2.5,1.98,1,4.95,2,8.91,2.5.99,0,3.96-2.5,7.59-2.5l7.59,2.5c2.97.5,7.26,0,12.54-1,6.27-1,10.89-1.5,13.2-1.5s9.57.5,21.78,2c10.23,1,18.48,1,25.08.5.99,2.5,1.32,6.49.99,11.48ZM268.1,125.33c0-4.49-1.32-6.49-4.29-5.49-.99,1.5-1.65,3.49-1.65,5.99,0,4.49,1.65,6.49,4.62,5.49.99-1.5,1.32-3.49,1.32-5.99Z"/>
  <path d="M545.26,548.2c-.66-.5-.99-.5-.99-.5h-3.3c-1.32.5-2.31.5-2.97.5h-4.29c-.33-.5-.66-.5-.33-.5h-.66q-.33.5-.66.5h-6.6c-5.61-.5-8.25-.5-8.25-.5-1.65.5-2.64.5-2.97.5-.66-.5-.99-.5-.99-.5-.66,0-1.65,0-2.97.5-2.97.5-6.27,0-9.24-.5,0,0-.33-.5-.99-1v-1.5s0-.5-.33-1.5v-1h-.33c0-.5,0-2-.33-3.5-.33,0,0,1.5-1.32-7.99q-.33,0-.66-.5c.33-2,.33-2.99,0-2.5,0-1.5-.33-4.49-.66-7.99q0-.5-.33-1v-3.99c-.33-3.99-.33-11.98-.66-23.47,0,0,0-.5-.33-1,.33-1,.33-2.99.33-5.49,0-.5,0-1.5-.33-2.99v-3.49c-.33-3.5-.33-5.49-.33-4.99,0,0,0-.5.33-1v-6.99c0-4.49,0-11.48-.33-20.47-.33-.5-.33-1-.33-1.5-.33-3.49-.33-6.99,0-10.48v-1h.33c0-1,0-2-.33-3.49v-3.5c-.33-2.5-.33-4.49,0-6.99v-3.49c.33-1.5.33-2.5.33-3-.33-.5-.33-2-.33-3.49v-16.98c.33,1.5.33-.5.33-5.49,0-.5,0-1.5-.33-2.99v-3.5c0-5.49-.33-14.48-.99-25.96v-1c.33-1.5.33-3.99,0-6.49q0-.5-.33-.5c0-1.5-.66-3.99-1.65-6.99q-.33-.5-.33-1h-1.32l-1.32-1h-2.31c-5.61-1-10.56-1.5-14.52-1h-3.63c-2.31-.5-4.29,0-5.94.5-.33,1.5-.33,5.99-.33,12.98v7.49l-.66,5.99.66,1.5v3.5c-.33,2.5-.66,4.49-.66,5.99.33,2,.66,3.5.66,4.99-.33,0-.33.5-.66,1,.33,0,.33.5.66,1v153.77c0,2.99-.33,7.49-.66,12.98-.99.5-4.62.5-10.23.5h-27.39c-.99,0-2.64,0-4.95-.5-.66-2.5-.99-4.49-.66-5.99l.66-1.5c-.33-1.5-.33-3.49-.66-6.99v-31.45c-.33-6.99-.33-12.48-.33-15.98v-46.43c-.33-6.49-.33-11.48-.33-14.98v-20.47c-.33-5.49-.33-8.49-.33-8.99v-8.99c.33-.5.33-2,.33-3.5v-3.49c-.33-1.5-.33-2.5-.33-3.5.33-16.47.33-41.44,0-74.89-.33-12.98-.33-20.47-.33-22.47,0-.5,0-1.99.33-3.49v-7.49c-.33-1.5-.33-3-.33-3.99V80.9c0-16.47,0-26.96.33-30.95h7.92c2.64,0,5.61,0,8.58-.5.33,0,.66,0,.99-.5h2.31c.99.5,1.98.5,2.31.5h14.85c.99,0,2.64,0,4.95-.5h4.62c.66,0,1.98,0,3.63.5h3.63q.33,0,.66-.5l.33.5h.66c6.6-.5,9.57-.5,9.24-.5,6.27,0,15.51.5,28.05,1l4.62,3.49c.99.5,2.64,2,4.29,3.99.66.5,1.65,1,2.64,2.5-1.32-.5,2.64,2,7.92,10.48.66.5,1.32,2,1.98,3.99.33-.5,1.65,2.5,2.97,6.49l.66,1v1s.66,1,2.31,4.49c0,1,.33,2,.66,3.49.33,0,.33,1,1.32,4.49.33,0,.33.5.66,1v1l1.65,5.49c.99,4.49,1.65,8.49,1.98,11.98v1l.33.5.66,4.99c.33,1.5.99,7.99,1.32,18.97.66,12.98.99,24.46.66,34.45v2c-.33,1-.33,1.5-.33,2,.33.5.33,1,.33,1.5v10.98c0,11.98,0,20.97-.33,26.46v2.5q.33,0,.33.5l-.66,3.99c0,5.49-.33,13.48-.66,24.46q-.33,0-.33.5c-.33,1.5-.33,3.99-.33,6.99-.33.5-.66,3-1.65,7.99-.33,2-.66,4.49-1.65,7.99-1.32,3.99-2.64,9.49-3.3,10.49v1c-1.32,3.99,0-1.5-5.61,12.48-.33,0-.99.5-1.32,1v1.5q-.33,0-.33.5c-.33,1.5.33,2.99,1.32,4.99,0,0,2.31,6.49,3.96,11.48,1.32,2,2.31,5.49,3.3,7.99v1l.33,1.5h.33l2.97,13.48c0,1,0,1.5,0,1h.33v1c0,.5.66,4.49,1.98,14.98,0,2.5,0,5.99.33,11.48v1h.33c0,5.99,0,14.98.33,27.46v2.5c.66,2,.66,2.99.33,3.49v68.9c.33,1,.66,1.5.33,1.99-.33.5-.33,2.5-.66,20.47v16.98q-.33,0-.33.5c0-.5,0,1,.33,3.5v1h.33c.33,4.99.99,12.48,2.31,21.97l.33.5v.5c.99,3.5,1.32,5.99.99,7.99-.99,1.5-2.64,1.5-4.62,1ZM483.89,253.14c0-.5,1.65,0,4.29-1.5h.99c.33,0,.66,0,2.31-1.5,0-.5.66-1.99.99-1.99v-1.5c.33-.5,1.65-2.5,2.64-20.47.33-6.49.33-13.48.33-20.47h-.33c-.33-.5,0-1,.33-1.5.33-3.49.33-9.98,0-19.47-.33-1-.33-2.5-.33-4.99,0-1,0-2.5.33-4.99,0-.5,0-1-.33-2v-20.97c-.33-9.98-1.32-15.97-3.63-17.97-.33-.5-1.32-1-2.97-1.5-5.61-1.5-11.22-2-16.83-1,0,.5-.33.5-.99.5h-4.95c-.99,0-2.64.5-4.62,1,.33,2.5.33,6.49,0,11.48,0,1.5,0,3.5-.33,5.99v2q0,.5-.33.5.33.5.33,1c.33.5.33,1,0,2.5-.33,18.97-.66,32.95-.66,41.44v13.48c.66,3.5.66,7.49.33,12.48.33,4.99.33,12.48,0,22.47v5.99c.99.5,3.3.5,7.26,1h16.17Z"/>
</svg>