<?xml version="1.0" encoding="UTF-8"?>
<svg id="Layer_1" data-name="Layer 1" xmlns="http://www.w3.org/2000/svg" viewBox="0 0 600 600">
  <defs>
    <style>
      .cls-1 {
        fill: #57fb4c;
      }

      .cls-2 {
        fill: #0a0a0a;
      }
    </style>
  </defs>
  <path class="cls-2" d="M486.83,260.55c0,142.7-98.39,297.84-186.83,297.84S113.17,403.25,113.17,260.55,196.82,41.61,300,41.61s186.83,76.23,186.83,218.93Z"/>
  <path class="cls-1" d="M309.57,112.2c.61-.1,1.45-.72,2.52-1.84,1.07-1.13,1.91-1.74,2.52-1.84l2.3-.39c1.63.36,4.26,1.02,7.89,1.98,3.62.97,5.74,1.4,6.36,1.29.77.81,1.69,1.6,2.76,2.37,1.79,1.28,2.98,1.86,3.6,1.75.61-.1,1.49-.49,2.64-1.15,1.15-.67,1.97-1.35,2.48-2.07l-.61,1.99c.66-1.68,1.6-2.63,2.83-2.84.61-.1,2.14.58,4.6,2.06,2.45,1.48,3.98,2.16,4.6,2.06l5.51,1.91,3.22,2.29,5.51-.93c1.78-2.5,3.61-5.25,5.46-8.24,1.86-2.98,2.35-5.19,1.48-6.62l6.82,1.21,5.51-.93c.3-.05,1.9,1.02,4.79,3.21,2.88,2.19,4.51,4.36,4.87,6.5l.39,2.3c-.66,1.69-2.06,3.18-4.21,4.49-2.14,1.31-4.35,2.7-6.61,4.18-2.28,1.49-4.23,2.92-5.89,4.3-1.65,1.39-2.38,2.69-2.18,3.91l4.13-.7c.36,2.15,1.95,4.56,4.76,7.23,2.81,2.68,5.64,5.04,8.51,7.07l-1.16-6.89c.87,1.43,2.98,3.2,6.33,5.31,3.35,2.12,5,3.96,4.95,5.54.26,1.54.04,3.54-.64,6.01-.69,2.48-1.51,5.06-2.48,7.74-.97,2.69-1.78,5.34-2.44,7.97-.66,2.64-.83,4.87-.53,6.7l1.23,1.69c.41.57.74,1.14,1,1.72.25.6.71.99,1.38,1.19l3.22,2.29-2.71-16.08,2.3-.39,6.78,23.42-8.71,12.8c-.97-.14-2.1-.27-3.37-.37-2.56-.2-4.19-.55-4.9-1.07l-3.22-2.29c-.77-.82-1.87-2.2-3.3-4.17-1.44-1.96-2.88-4-4.34-6.12-1.46-2.11-2.8-4.02-4.03-5.7-1.23-1.68-2.05-2.8-2.46-3.37-.21-1.22-.23-2.32-.08-3.29.15-.97.33-1.78.53-2.45l-4.13.7-3.22-2.29-3.61-4.59-5.98-4.66c-.31-1.84-1.14-3.51-2.5-5.01-1.36-1.5-2.85-2.9-4.49-4.2-1.64-1.3-3.11-2.55-4.41-3.74-1.31-1.2-2.09-2.56-2.35-4.1l-3.61-4.59-5.51.93c-.62.1-2.12-.9-4.53-3.02-2.41-2.11-3.96-3.42-4.68-3.93l-2.76.46c-.62.1-1.8-.41-3.56-1.53-1.77-1.12-2.69-1.98-2.8-2.6l-.46-2.76-2.76-2.37-.39-2.3-2.76.46-5.12,3.22c-2.46.41-4,.13-4.64-.87-.64-.99-1.78-2.61-3.42-4.86l.31,1.84-2.14,4.14.7,4.13,3.14,1.83c.26,1.54,1.16,4.06,2.69,7.58,1.54,3.52,2.53,5.72,3,6.58l1.86,11.02c.15.92.15,1.87,0,2.84-.16.97-.31,1.94-.46,2.91-.16.97-.33,1.79-.53,2.45l-2.75,3.3,4.55,21.43c.1.62.15,1.87.16,3.75,0,1.89.11,3.92.32,6.09.2,2.18.31,4.2.31,6.09,0,1.89.03,2.99.08,3.29l1.39,8.27c4.85.76,8.91,1.49,12.18,2.2,3.26.71,6.58.78,9.96.21,1.22-.21,4.53.26,9.92,1.4,5.39,1.15,11.23,2.68,17.54,4.6,6.3,1.94,12.02,4.04,17.13,6.33,5.11,2.29,7.82,4.35,8.13,6.19l3.23,5.13c2.4,1.18,5.12,2.84,8.16,5,3.04,2.17,4.74,4.32,5.1,6.46.46,2.76,1.43,5.28,2.92,7.54,1.48,2.28,3.11,4.44,4.87,6.5,1.77,2.06,3.33,3.93,4.72,5.58,1.38,1.66,2.23,3.4,2.54,5.24l.39,2.3c-.62.1-2.25,1.17-4.9,3.18-2.66,2.03-4.23,3.39-4.74,4.1l.85,5.05c.14-.97.73-2.17,1.75-3.6,1.02-1.42,1.83-2.2,2.45-2.3l5.51-.93c.3-.05,1,.3,2.07,1.07.4.57.79.97,1.15,1.23l2.24,13.32c.1.62.78,2.31,2.04,5.09,1.25,2.79,1.94,4.48,2.04,5.09-.62.1-1.56.58-2.83,1.42-1.28.85-1.86,1.58-1.76,2.19.1.62.86,2.3,2.27,5.05,1.41,2.76,2.16,4.44,2.26,5.05l1.38-.23c.72,4.29,1.04,8.09.97,11.41-.08,3.32-1.33,5.18-3.78,5.6l-1.39-8.27-.96,19.53c-.62.1-1.74-.49-3.37-1.79-1.64-1.3-2.5-2.25-2.61-2.87l-.85-5.05,1.37-5.9c-.31-1.84-1.23-2.63-2.76-2.37.1.62.04,1.17-.19,1.68-.23.51-.45,1.1-.65,1.76-.46,1.02-.79,1.87-.99,2.53l-4.36-.68c.1.62.35,1.67.77,3.18.41,1.51.82,3.01,1.23,4.52.41,1.51.81,2.94,1.19,4.29.38,1.35.6,2.19.65,2.49.51,1.18-.58,2.62-3.28,4.33-2.71,1.72-4.69,3.47-5.97,5.26l-5.05,3.68c.1.62.09,1.96-.03,4.02-.12,2.07-.13,3.41-.03,4.02l-3.67.62.46,2.76c.1.62.72,1.46,1.84,2.52,1.13,1.07,1.74,1.91,1.84,2.52-.62.1-1.46.72-2.52,1.84-1.07,1.13-1.91,1.74-2.53,1.84l-2.76.46c-.62.1-1.48-.38-2.6-1.45-1.13-1.07-1.9-1.88-2.3-2.45l1.16,6.89-4.06-1.68c-.92.15-2.07-.12-3.45-.83-.97-.15-1.81-.48-2.53-.99l-2.76.46-2.76-2.37c-.62.1-2.26.14-4.94.12-2.68-.02-4.33.02-4.94.12-.1-.61-.13-2.18-.08-4.71.05-2.52.02-4.09-.08-4.71l2.29-3.22-1.31-7.81c.25-.35.49-.86.69-1.53.76-1.07,1.3-1.64,1.61-1.69l2.76-.46-1.9,5.52,2.76-.46c.61-.1,1.49-.96,2.64-2.57,1.14-1.61,1.67-2.72,1.56-3.33-.1-.61-.97-1.56-2.61-2.87-1.64-1.3-2.76-1.9-3.37-1.79l-2.76.46c-1.84.31-3.1,1.23-3.79,2.76-.69,1.53-1.27,3.28-1.72,5.25-.46,1.97-.96,4.1-1.52,6.4-.56,2.3-1.6,4.52-3.13,6.67-.1-.61-.79-1.91-2.07-3.9-1.28-1.98-1.97-3.29-2.08-3.9l-1.31-7.81-11.03-3.81,4.4,20.52v5.66c-.04,1.59-.05,2.93-.02,4.02.02,1.1.09,1.96.2,2.57l-.98,8.2,1.31,7.81-3.29,2.91.31,4.67c.05.31-.03,1.19-.26,2.64-.23,1.45-.59,3.09-1.06,4.9-.49,1.82-.81,3.61-.99,5.36-.18,1.76-.24,2.8-.19,3.1.26,1.54.24,3.82-.03,6.85-.28,3.04-.57,4.58-.88,4.63l-6.35,1.54-1.52,7.81-8.81,1.01c-.1-.62,0-2.29.34-5.02.33-2.73.42-4.56.26-5.48l-.62-3.67-4.22-2.6,2.52-4.68-6.43,1.08,11.63-9.51-.54-3.22c-.1-.61-.5-1.57-1.19-2.87-.69-1.3-1.41-2.75-2.15-4.36-.74-1.6-1.46-3.06-2.15-4.36-.69-1.3-1.06-2.1-1.11-2.41l-.31-4.67-4.06,1.16v-2.83c-.11-.61-.04-2.04.22-4.29.25-2.24.46-4.72.64-7.43.17-2.7.4-5.1.68-7.2.27-2.09.36-3.44.26-4.06l-.62-3.67-5.66,5.68c3.05-6.18,4.39-12.23,4.03-18.16-.37-5.92-.53-10.61-.48-14.09l-2.99-3.75c-.05-.3-.23-.43-.53-.38l-2.76.46c-.62.1-1.99-.14-4.13-.72-2.15-.58-3.53-.83-4.14-.72l-5.97-1.83c-.31.05-1.19-.04-2.64-.26-1.46-.23-2.94-.61-4.44-1.14-1.51-.53-2.99-.91-4.44-1.14-1.46-.23-2.34-.31-2.64-.26l-5.97-1.83-5.05.85-3.22-2.29c-.62.1-2.52-.44-5.71-1.64-3.2-1.19-5.1-1.74-5.71-1.64l-3.22-2.29c-1.54.26-4.6-.17-9.19-1.29-4.6-1.12-8.25-2.23-10.96-3.35-.72-.51-2.2-1.36-4.44-2.56-2.25-1.19-3.68-1.74-4.29-1.64l-15.56-11.08c-2.66-2.7-4.85-4.93-6.56-6.69-1.71-1.75-3.44-3.59-5.18-5.5-1.74-1.91-3.33-3.38-4.76-4.4-1.79-1.27-3.96-3.42-6.52-6.46-2.56-3.03-5.17-6.37-7.83-10.02-2.67-3.64-5.04-7.49-7.14-11.55-2.1-4.05-3.43-7.76-4-11.14l-.46-2.76c-1.6-9.49-2.19-16.71-1.76-21.67.42-4.95,1.05-7.81,1.87-8.58l5.05-3.68c.61-.1,1.14-.67,1.61-1.69.25-.35.48-.86.68-1.53l-1.31-7.81c.91-2.05,1.93-4.42,3.05-7.13,1.12-2.7,2.19-5.25,3.21-7.62,1.02-2.37,2.19-5.25,3.51-8.62l-.93-5.51c-.15-.92.36-2.5,1.56-4.75,1.2-2.24,2.8-4.88,4.81-7.9,2.01-3.01,4.18-6.05,6.5-9.12,2.32-3.06,4.49-6.03,6.53-8.89.51-.71,2.05-2.31,4.63-4.8,2.57-2.48,4.11-4.07,4.63-4.79l2.29-3.22c6.17-6.39,13.1-11.49,20.81-15.31,7.7-3.81,14.87-6.59,21.51-8.34l2.99.91-6.26-34.38c1.43-.87,2.4-2.6,2.9-5.21.51-2.6,1.06-3.96,1.68-4.07-.67-.2.09-.88,2.26-2.03,2.17-1.15,4.63-2.43,7.38-3.84,2.75-1.41,5.29-2.7,7.62-3.88,2.32-1.17,3.43-2.07,3.33-2.69l18.29-6.38c.4.57.94.95,1.61,1.14,1.43,1.02,2.17,1.69,2.23,1.99l.39,2.3,5.14,8.11c.72,4.29.45,8.27-.82,11.95-1.27,3.68-2.8,7.24-4.58,10.69-1.78,3.45-3.36,6.71-4.73,9.77-1.38,3.06-1.85,5.82-1.44,8.27l1.24,7.35c1.02.46,2.07,1.07,3.14,1.83.71.52,1.61,1.15,2.68,1.91,1.07.77,1.99,1.55,2.76,2.37l-1.39-8.27c.25-.35.48-.86.68-1.53.77-1.07,1.3-1.64,1.61-1.69l2.3-.39c.61-.1,1.11-.42,1.49-.96.38-.54.85-1.01,1.41-1.42l-.61-.84,2.76-.46c-.26.36-.54.56-.84.61-.31.05-.74.29-1.3.69l3.07,4.21ZM201.25,380.79c-.62.1-1-.3-1.15-1.22-.15-.92.07-1.43.69-1.53.61-.1,1,.3,1.15,1.22.15.92-.08,1.43-.69,1.53ZM295.38,434.86l.46,2.76-2.29,3.22-1.9,5.52-5.05.85c-.62.1-1.34-.48-2.18-1.76-.85-1.27-1.32-2.21-1.42-2.83l-3.74,11.5-2.71-16.08c-.1-.61-.89-1.11-2.38-1.49-1.48-.38-2.53-.52-3.14-.41-1.84.31-2.6,1.38-2.3,3.22.1.62.78,1.84,2.04,3.67,1.26,1.84,1.93,3.06,2.04,3.67l.46,2.76c-1.53,2.15-3.21,3.37-5.05,3.68l-.93-5.51c-.21.67-.87,1.41-1.99,2.22-1.13.82-1.99,1.28-2.6,1.38-1.23.21-2.57-.28-4.02-1.45-1.46-1.17-2.77-2.44-3.95-3.82-1.18-1.37-2.2-2.77-3.07-4.21-.87-1.43-1.16-2.17-.85-2.22l4.13-.7,3.22,2.29,5.05-.85c-.1-.61-.97-1.56-2.61-2.87-1.64-1.3-2.76-1.9-3.37-1.8l-10.56,1.78-1.83,5.98-8.79,12.34-5.51.93c-2.87-2.04-5.02-4.59-6.48-7.65-1.46-3.06-2.47-6.27-3.04-9.64l3.67-.62.77,4.59c.2-.66.61-1.52,1.22-2.57.61-1.04.87-1.87.77-2.49l-.46-2.76-3.22-2.29c-3.94-2.8-6.77-6.57-8.52-11.32-1.74-4.74-3-9.42-3.78-14.01-.1-.61-.26-2-.46-4.17-.21-2.16-.35-4.43-.43-6.77-.08-2.35-.14-4.54-.16-6.59-.03-2.04.06-3.39.26-4.06l-3.22-2.29-1.39-8.27,11.08-15.57,5.05-.85,10.97,14.69,3.22,2.29.93,5.51c.05.31.55.93,1.5,1.87.94.95,2.04,1.86,3.3,2.75,1.25.9,2.35,1.81,3.3,2.75.94.95,1.44,1.57,1.5,1.87l.85,5.05,3.22,2.29.93,5.51c.1.62-.5,1.74-1.79,3.37-1.3,1.64-2.26,2.51-2.87,2.61.1.62,1.05,1.56,2.84,2.83,1.79,1.28,2.98,1.86,3.6,1.76l2.76-.46,1.84-3.14,2.76-.46c2.14,1.53,3.37,3.21,3.68,5.05-.2.67-.44,1.18-.69,1.53-.46,1.02-.99,1.58-1.6,1.68l-1.38.23-.99,2.53c.61-.1,2.07.13,4.37.68,2.29.56,3.75.79,4.37.68l.46,2.76,4.12-6.36c.1.62.8,1.92,2.08,3.9,1.28,1.99,1.97,3.29,2.07,3.9l3.22,2.29.39,2.3c.77-1.07,1.84-1.72,3.21-1.96,1.38-.23,2.24-1.16,2.6-2.8.66.21,1.59.6,2.8,1.18,1.2.59,1.85,1.19,1.96,1.8-.62.1-1.79.62-3.52,1.54l.31,1.84-1.23-1.68c-1.43.88-2.4,1.66-2.91,2.38l1.84,2.52,9.19-1.55ZM225.73,411.16c-.31-1.84-1.38-2.6-3.22-2.29-.62.1-1.56.58-2.83,1.42-1.28.85-1.86,1.58-1.76,2.19l7.81-1.31ZM235.55,469.5c-2.76.46-4.76-.23-6.02-2.06-1.25-1.83-2.06-3.82-2.42-5.97l4.37.68c.4.57.97,1.1,1.68,1.6.41.57.82,1.13,1.23,1.68.41.57.64,1,.69,1.3l.46,2.76ZM217.74,397.39c.61-.1.84-.61.69-1.53s-.54-1.33-1.15-1.22c-.62.1-.84.61-.68,1.53s.53,1.33,1.15,1.23ZM224.75,422.19l-2.76.46,3.61,4.59-.85-5.05ZM234.28,445.15c.2-.66.38-1.48.53-2.45.2-.66.42-1.25.65-1.76.22-.51.29-1.07.19-1.68-.31.05-.66.28-1.07.65-.4.39-.89.78-1.45,1.19-.81.77-1.5,1.36-2.06,1.77l-.68,4.37,3.9-2.08ZM186.07,175.5c.61-.1.84-.61.69-1.53s-.54-1.33-1.15-1.22c-.62.1-.84.61-.69,1.53s.53,1.32,1.15,1.22ZM224.11,401.51c.61-.1.84-.61.69-1.53-.1-.61-.47-.87-1.07-.77-.62.1-.87.47-.76,1.07.15.92.53,1.33,1.15,1.22ZM229.06,430.91c.61-.1.84-.61.69-1.53-.15-.92-.54-1.33-1.15-1.22-.62.1-.84.61-.69,1.53.15.92.53,1.33,1.15,1.22ZM235.21,450.66l-2.76.46,3.14,1.84-.39-2.3ZM229.1,414.37c.61-.1.84-.61.69-1.53-.1-.61-.46-.86-1.07-.76-.62.1-.87.46-.77,1.07.15.92.54,1.33,1.15,1.23ZM230.03,419.88c.61-.1.84-.61.69-1.53-.15-.92-.54-1.33-1.15-1.22-.62.1-.84.61-.69,1.53.15.92.53,1.32,1.15,1.22ZM233.12,438.26c.61-.1.84-.61.69-1.53-.1-.61-.47-.87-1.07-.77-.62.1-.87.47-.76,1.07.15.92.53,1.33,1.15,1.22ZM236.53,410.76c.61-.1.84-.61.69-1.53-.15-.92-.54-1.33-1.15-1.22-.62.1-.84.61-.69,1.53s.53,1.33,1.15,1.23ZM234.33,380.89c.61-.1.84-.61.69-1.53-.15-.92-.54-1.33-1.15-1.22-.62.1-.84.61-.68,1.53.15.92.53,1.33,1.15,1.22ZM240.36,416.73c.61-.1.84-.61.69-1.53-.15-.92-.54-1.32-1.15-1.22-.62.1-.84.61-.68,1.53.15.92.53,1.33,1.15,1.23ZM245.78,448.88c-.1-.61.31-.99,1.23-1.15s1.43.07,1.53.68c.05.31-.38.54-1.3.69s-1.4.08-1.46-.23ZM241.63,393.37c.61-.1.84-.61.69-1.53s-.54-1.33-1.15-1.22c-.31.05-.38.54-.23,1.46.15.92.39,1.35.69,1.3ZM251.53,452.16c-.26-1.53.22-2.4,1.45-2.6.92-.15,1.45.23,1.61,1.15.26,1.53-.38,2.42-1.91,2.68-.31.05-.47,0-.5-.15-.03-.15-.2-.21-.5-.15l-.15-.92ZM248.87,419.55c.61-.1.84-.61.69-1.53-.15-.92-.54-1.33-1.15-1.22-.62.1-.84.61-.68,1.53.15.92.53,1.33,1.15,1.23ZM253.41,429.65c.61-.1.84-.61.68-1.53-.15-.92-.54-1.32-1.15-1.22-.62.1-.84.61-.69,1.53.15.92.54,1.33,1.15,1.22ZM264.2,429.25c-.31-1.84-1.38-2.6-3.22-2.3-.62.1-1.56.58-2.83,1.42-1.28.85-1.86,1.57-1.76,2.19l7.81-1.31ZM268.04,435.21c.61-.1.84-.61.69-1.53-.15-.92-.54-1.32-1.15-1.22-.62.1-.84.61-.69,1.53.15.92.54,1.33,1.15,1.23ZM274.95,442.56c-.62.1-1-.3-1.15-1.22-.15-.92.07-1.43.69-1.53.61-.1,1,.3,1.15,1.22.15.92-.08,1.43-.69,1.53ZM289.08,515.29c.3-.05.49.07.54.38l-.38.53c-.31.05-.64-.05-.99-.3l-.15-.92c.3-.05.48.07.53.38l.46-.08ZM290.38,517.43c.82,1.12,1.25,1.83,1.31,2.14.2,1.22-.31,1.94-1.53,2.15l-.46.08c-.1-.62-.05-1.25.15-1.91.2-.67.28-1.15.23-1.46-.05-.31.05-.64.3-1ZM291.23,522.48c.3-.05.48.07.54.38.2,1.22,0,1.89-.61,1.99l.07-2.37ZM287.88,485.73c.35.25.56.53.61.84.31,1.84-.15,2.86-1.37,3.06l.76-3.91ZM278.95,213.72l-.23,1.45,2.53.99c.35-1.63.7-3.26,1.06-4.9.35-1.63.43-3.06.22-4.29l-3.91-3.59-3.01-12.25-1.99-.61,1.76-.77c-.21-1.22-.72-2.87-1.54-4.94-.82-2.06-1.67-3.81-2.54-5.24l-.38.54-.92.15-.08-.46c-.1-.61-.12-1.16-.04-1.65.08-.49.06-1.03-.04-1.65l-.46-2.76-4.24-19.6-.15-.92c-.21-1.22-.93-1.74-2.15-1.53l1.68-4.06c-.62.1-1.63-.27-3.03-1.14-1.41-.86-2.86-1.96-4.33-3.28-.21.67-.92,2.04-2.14,4.14-1.23,2.09-1.78,3.45-1.68,4.06l-2.29,3.22c-2.55,3.58-4.31,7.66-5.27,12.22-.96,4.58-2.31,9.21-4.04,13.91l-2.76.46-2.3,3.22.93,5.51,3.22,2.29c3.93,2.81,7.42,5.76,10.47,8.87,3.04,3.11,6.17,5.81,9.39,8.1l-.08-.46c1.79,1.28,3.26,2.05,4.41,2.33,1.15.28,3.07.98,5.78,2.09.51-.71.91-1.1,1.22-1.15l.99.31c-.31.05-.43.24-.38.54l.15.92,5.44,1.44-.92-2.68,1.61,1.15ZM279.59,422.41c-.62.1-1-.31-1.15-1.23-.15-.92.07-1.43.69-1.53.61-.1,1,.31,1.15,1.23.15.92-.08,1.43-.69,1.53ZM292.52,468.41c.41.56.74,1.61,1,3.14.21,1.22.21,3.11.01,5.66l.23,1.38c-1.07-.76-1.72-1.76-1.92-2.98-.1-.62-.07-1.33.11-2.14.17-.82.36-1.56.57-2.22v-2.84ZM288.27,440.31c.61-.1.84-.61.69-1.53-.15-.92-.54-1.32-1.15-1.22-.62.1-.84.61-.68,1.53.15.92.53,1.33,1.15,1.23ZM288.93,421.78l-.46.08c-.31.05-.64-.05-.99-.3l-.08-.46,1.53.68ZM251.31,175.86c1.02.46,2.87,1.17,5.56,2.13,2.68.97,4.28,2.99,4.8,6.04.15.92-.41,2.75-1.68,5.48-1.27,2.74-2.16,5.4-2.67,8.01-3.58-2.54-5.78-6.27-6.6-11.17-.72-4.28-.53-7.78.59-10.49ZM303.36,487.85c.92-.15,1.45.23,1.61,1.15.15.92-.39,1.48-1.6,1.68-.62.1-.97-.15-1.07-.76-.1-.62.25-1.31,1.07-2.07ZM306.13,498.72c1.02.45,1.59.99,1.69,1.61.15.92-.54,1.51-2.06,1.76-.62.1-.97-.15-1.07-.76-.15-.92.32-1.79,1.45-2.61ZM292.07,420.78c.92-.15,1.45.22,1.61,1.14.15.92.08,1.41-.23,1.46l.46,2.76c-1.07-.77-1.79-2.22-2.15-4.36-.05-.3.05-.63.31-.99ZM297.51,377.35c-.66,3.58-2.67,5.65-6.04,6.21-1.84.31-3.4.42-4.67.31l-.38.54c.81-2.65,1.6-4.52,2.37-5.6.76-1.07,1.75-1.71,2.98-1.92.61-.1,1.4-.07,2.37.07.97.15,2.09.28,3.37.37ZM309.97,507.52c.1.61-.16.97-.76,1.07-.92.15-1.59-.05-1.99-.61.1-1.28.61-1.99,1.53-2.15.61-.1,1.02.45,1.23,1.68ZM258.86,201.04c.3-.05.51.23.61.84l-.92.15-.54-.38.84-.61ZM293.94,398.26l.23,1.38-1.84-2.52,1.61,1.14ZM315.5,515.09c.61-.1,1.04.6,1.3,2.14.21,1.22,0,1.89-.61,1.99-.92.15-1.53-.69-1.84-2.53-.15-.92.23-1.45,1.15-1.61ZM304.12,439.06l-2.76-2.37,5.05-.85.46,2.76-2.76.46ZM313.08,486.68c.61-.1.97.15,1.07.77.15.92-.23,1.45-1.15,1.61-.97-.15-1.56-.84-1.77-2.06l.38-.54.54.38.92-.15ZM305.9,449.63l-.46-2.76,5.98,1.83-5.51.93ZM316.17,505.06c1.22-.21,1.92.15,2.07,1.07.2,1.22-.46,1.97-1.99,2.22-.31.05-.51-.23-.61-.84-.05-.31.12-1.13.53-2.45ZM328.08,483.21c-1.37,3.06-3.54,6.1-6.5,9.12-2.96,3.02-4.89,4.6-5.81,4.76l-.92.15c-.36-.25.06-1.98,1.26-5.17,1.19-3.2,1.99-5.46,2.4-6.78l9.57-2.08ZM294.05,368.01c.35.26.59.69.69,1.3.15.92-.08,1.43-.69,1.53l-.46.08.46-2.91ZM311.06,471.91c.92,1.73,1.48,2.74,1.69,3.02.2.28.33.57.39.88l-.15,1.91c-1.07-.76-1.69-1.6-1.84-2.52-.05-.31-.03-.63.07-.96.1-.33.13-.66.08-.96l-.23-1.38ZM310.71,444.57c-.62.1-1-.3-1.15-1.22s.07-1.43.69-1.53c.61-.1,1,.31,1.15,1.23s-.08,1.43-.69,1.53ZM318.79,467.3l.78,7.43-3.3-2.75-.62-3.68,3.14-1ZM296.46,343.04c.61-.1.84-.61.69-1.53-.15-.92-.54-1.33-1.15-1.22-.62.1-.84.61-.69,1.53.15.92.53,1.32,1.15,1.22ZM308.68,415.62l-.38.54.38-.54ZM310.5,403.98c-.25.36-.34.77-.27,1.23s-.19.74-.8.85l-.46.08c-.31.05-.49-.08-.54-.38-.1-.61.58-1.2,2.06-1.77ZM320.49,426.86c.92-.15,1.45.23,1.61,1.14.26,1.54-.07,2.38-.99,2.53-1.23.21-1.97-.45-2.23-1.99-.15-.92.23-1.45,1.15-1.61l.46-.08ZM310.75,368.98c.92-.15,1.48.39,1.68,1.6.15.92.08,1.41-.23,1.46-.62.1-.99-.31-1.15-1.23l-.31-1.84ZM328.14,469.5c1.27.09,2.04.91,2.3,2.45.2,1.22-.2,2.55-1.22,3.98-.31.05-.66-1.15-1.07-3.6l-.39-2.3c-.05-.31.04-.65.3-1l.08.46ZM327.88,451.12c-.31.05-.41.39-.3,1,.31,1.84.76,2.7,1.38,2.6.61-.1.84-.61.68-1.53-.26-1.53-.85-2.22-1.76-2.07ZM327.94,440.25l.15.92c.1.62.36,1.2.77,1.76.41.57.94.95,1.61,1.15.51-.71.69-1.53.53-2.45-.26-1.53-1.16-2.17-2.69-1.91l-.38.54ZM328.44,417.96c-.92.15-1.3.69-1.14,1.61.05.31.25.59.61.84l.92-.15c.61-.1.84-.61.69-1.53-.1-.61-.47-.87-1.07-.76ZM332.89,427.61c-.92.15-1.27.85-1.07,2.07.05.31.43.72,1.15,1.22,1.22-.21,1.73-.92,1.53-2.14-.15-.92-.69-1.3-1.61-1.15ZM339.45,458.15l-.61,4.83c-.92.15-1.51-.54-1.76-2.07-.1-.62.04-1.58.46-2.91l1.91.15ZM280.97,93.87c-.92.15-1.25,1-.99,2.53.15.92.53,1.33,1.15,1.22.92-.15,1.28-.84,1.07-2.07-.21-1.22-.62-1.79-1.23-1.68ZM295.04,171.8c-1.23.21-1.73.93-1.53,2.14.21,1.23.79,1.92,1.76,2.07.87-.46,1.17-1.45.92-2.99-.15-.92-.54-1.32-1.15-1.22ZM289.9,73.94c-.87.46-1.8,1.48-2.79,3.07-.99,1.58-1.82,2.28-2.48,2.07l-2.14,4.14.85,5.05,2.52-1.84c.61-.1,1.59-1.29,2.94-3.57,1.35-2.27,2.1-3.9,2.25-4.87l-1.16-4.06ZM299.24,163.07c-.62.1-.82.77-.61,1.99.26,1.54.87,2.38,1.84,2.53.51-.72.71-1.38.61-1.99-.31-1.84-.92-2.68-1.84-2.52ZM337.74,391.83c-.62.1-.82.77-.61,1.99.26,1.53.85,2.22,1.77,2.06.92-.15,1.27-.84,1.07-2.07-.26-1.53-1-2.19-2.22-1.99ZM304.22,167.42c-.31.05-.65-.05-1-.3-2.46.41-3.47,1.84-3.06,4.29.21,1.23.77,1.76,1.68,1.6.92-.15,1.68-.76,2.3-1.8.61-1.04.84-2.03.68-2.95-.05-.3-.26-.58-.61-.84ZM339.97,399.49c-.92.15-1.27.85-1.07,2.07.1.62.51,1.18,1.23,1.68.92-.15,1.25-.99.99-2.53-.15-.92-.54-1.33-1.15-1.22ZM308.32,191.77c-.92.15-1.3.69-1.15,1.61.21,1.23.77,1.76,1.69,1.6.92-.15,1.3-.69,1.14-1.61-.21-1.22-.77-1.76-1.69-1.61ZM351.99,445.65c-.62.1-.99-.31-1.15-1.23-.1-.61.14-.97.76-1.07.61-.1.97.16,1.07.76.15.92-.07,1.43-.69,1.53ZM353.67,438.75l-3.22-2.29c-.31-1.84.46-2.91,2.3-3.22l1.99.61c.66.2,1.25.42,1.76.65.51.23,1.09.45,1.76.65l3.22,2.29-7.81,1.31ZM302.38,117.19c.61-.1.84-.61.69-1.53-.1-.61-.47-.87-1.07-.77-.62.1-.87.46-.77,1.07.15.92.53,1.32,1.15,1.22ZM340.55,329.95c.61-.1.84-.61.69-1.53-.15-.92-.54-1.33-1.15-1.22-.31.05-.59.26-.84.61.15.92.58,1.64,1.3,2.15ZM356.01,421.83l2.76-.46.93,5.51-3.69-5.05ZM347.33,353.37c.61-.1.84-.61.68-1.53-.1-.61-.46-.87-1.07-.77-.62.1-.87.47-.76,1.07.15.92.53,1.33,1.15,1.22ZM350.96,374.96c-.62.1-1-.3-1.15-1.22-.15-.92.07-1.43.69-1.53.61-.1.99.31,1.15,1.23s-.07,1.43-.68,1.53ZM358.3,368.06c.61-.1.84-.61.69-1.53-.15-.92-.54-1.33-1.15-1.22-.62.1-.84.61-.68,1.53.15.92.53,1.33,1.15,1.22ZM361.93,389.65c-.62.1-.99-.31-1.15-1.23-.15-.92.07-1.43.68-1.53.61-.1,1,.3,1.15,1.22s-.07,1.43-.69,1.53ZM367.73,424.11c-.62.1-.99-.31-1.15-1.23-.15-.92.07-1.43.68-1.53.61-.1,1,.3,1.15,1.22.15.92-.07,1.43-.69,1.53ZM358.36,354.35c.61-.1.84-.61.69-1.53-.15-.92-.54-1.33-1.15-1.22-.62.1-.84.61-.69,1.53.15.92.53,1.33,1.15,1.22ZM367.33,407.64c-.62.1-1-.3-1.15-1.22-.15-.92.07-1.43.69-1.53.61-.1,1,.3,1.15,1.22.15.92-.08,1.43-.69,1.53ZM324.2,117.77l-5.51.93.46,2.76,5.51-.93-.46-2.76ZM371.12,430.15l-.85-5.05,2.76-.46,3.22,2.29.39,2.3-5.51.93ZM322.84,126.5c.05.31.54.38,1.46.23s1.35-.38,1.3-.69c-.1-.61-.61-.84-1.53-.69s-1.33.54-1.22,1.15ZM376.39,380.13l-7.35,4.07,8.27,1.44-.93-5.51ZM373.53,410.85l-.46-2.76,2.76-.46.46,2.76-2.76.46ZM377.61,418.19c-.05-.3-.16-.45-.31-.42-.16.03-.25-.11-.31-.42-.26-1.53.37-2.43,1.91-2.69.92-.15,1.43.08,1.53.69.31,1.84-.31,2.88-1.84,3.14-.31.05-.47,0-.49-.15-.03-.15-.2-.2-.5-.15ZM366.86,354.34c.1.62.61.84,1.53.69.92-.15,1.33-.53,1.22-1.15-.1-.61-.61-.84-1.53-.68-.92.15-1.32.54-1.22,1.15ZM383.64,406.31c-.62.1-2.05-.44-4.29-1.64-2.25-1.19-3.73-2.04-4.44-2.56l-.39-2.3c.61-.1,1.52.14,2.72.73,1.2.59,2.1.83,2.72.72l3.22,2.29.46,2.76ZM330.42,120.97c.61-.1.84-.61.69-1.53-.15-.92-.54-1.32-1.15-1.22-.62.1-.84.61-.69,1.53.15.92.53,1.33,1.15,1.22ZM331.11,125.11l.39,2.3,2.3-.39-2.68-1.91ZM387.48,364.57c.1.62-.13,1.6-.68,2.95-.56,1.36-.79,2.34-.69,2.95l.85,5.05-2.29,3.22c.1.62.22,1.31.35,2.07.13.77.42,1.58.89,2.45.51,1.18,1,2.2,1.46,3.06l-4.13.7-2.29,3.22,5.97,1.83,15.2-21.93-.39-2.3-2.76-2.37-2.76.46-2.3,3.22-6.44-4.58ZM378.97,361.75c.61-.1.84-.61.69-1.53-.1-.61-.47-.87-1.07-.76-.62.1-.87.47-.76,1.07.15.92.54,1.33,1.15,1.22ZM381.68,377.83c.61-.1.84-.61.69-1.53-.15-.92-.54-1.33-1.15-1.23-.62.1-.84.61-.69,1.53.15.92.53,1.33,1.15,1.22ZM390.69,414.57c-.62.1-1-.3-1.15-1.22-.15-.92.07-1.43.69-1.53.61-.1,1,.3,1.15,1.22.15.92-.08,1.43-.69,1.53ZM362.64,208.61l.09,6.13-3.29.08.91-5.82,2.3-.39ZM396.91,420.61c-.62.1-1-.3-1.15-1.22-.15-.92.07-1.43.69-1.53.61-.1,1,.3,1.15,1.22.15.92-.08,1.43-.69,1.53ZM345.8,116.96l.46,2.76,3.22,2.29-.46-2.76-3.22-2.3ZM351.26,132.58l-2.76.46,3.14,1.84-.39-2.3ZM389.72,377.89l2.76-.46-2.29,3.22-.46-2.76ZM388.73,338.37c.61-.1.84-.61.69-1.53s-.54-1.33-1.15-1.23c-.62.1-.84.61-.68,1.53.15.92.53,1.33,1.15,1.22ZM391.44,354.45c.61-.1.84-.61.69-1.53-.15-.92-.54-1.33-1.15-1.22-.62.1-.84.61-.68,1.53.15.92.53,1.33,1.15,1.22ZM400.64,409.12l7.81-1.31-4.2,5.9-3.61-4.59ZM360.1,151.41c.61-.1.84-.61.68-1.53-.15-.92-.54-1.32-1.15-1.22-.62.1-.84.61-.69,1.53.15.92.53,1.33,1.15,1.23ZM402.47,403.14c-.62.1-1-.3-1.15-1.22-.15-.92.07-1.43.69-1.53.61-.1.99.31,1.15,1.23.15.92-.08,1.43-.68,1.53ZM364.25,159.21c.61-.1.84-.61.69-1.53-.15-.92-.54-1.32-1.15-1.22-.62.1-.84.61-.69,1.53.15.92.53,1.33,1.15,1.22ZM399.25,353.14c.61-.1.84-.61.69-1.53-.15-.92-.54-1.33-1.15-1.22-.62.1-.84.61-.68,1.53.15.92.53,1.33,1.15,1.22ZM406.83,398.15c-.62.1-.99-.3-1.15-1.22-.1-.61.14-.97.76-1.07.61-.1.97.16,1.07.77.15.92-.08,1.43-.69,1.53ZM365.9,138.15l-3.22-2.29.93,5.51,2.76-.46-.46-2.76ZM370.9,151.01l-2.76.46.46,2.76,2.76-.46-.46-2.76ZM402.29,337.51c.61-.1.84-.61.69-1.53-.15-.92-.54-1.32-1.15-1.22-.62.1-.84.61-.69,1.53.15.92.53,1.33,1.15,1.22ZM407.86,370.58c.61-.1.84-.61.69-1.53-.1-.61-.47-.87-1.07-.76-.62.1-.87.47-.76,1.07.15.92.53,1.32,1.15,1.22ZM409.25,378.85c-.62.1-1-.31-1.15-1.22-.15-.92.07-1.43.69-1.53.61-.1,1,.31,1.15,1.23.15.92-.08,1.43-.69,1.53ZM411.26,390.8l-.93-5.51c-.1-.61.14-1.51.72-2.72.58-1.2.98-2.13,1.18-2.8l1.78,10.56-2.76.46ZM408.83,359.55c.61-.1.84-.61.69-1.53-.15-.92-.54-1.33-1.15-1.22-.62.1-.84.61-.69,1.53.15.92.53,1.32,1.15,1.22ZM416.87,407.33c-.62.1-1-.3-1.15-1.22-.1-.61.15-.97.76-1.07.61-.1.97.16,1.07.76.15.92-.08,1.43-.69,1.53ZM374.17,139.59c-.1-.61-.03-1.57.22-2.87.25-1.3.33-2.25.22-2.87l-3.67.62,1.39,8.27,1.84-3.14ZM417.67,381.21c-.62.1-1-.3-1.15-1.22-.1-.61.15-.97.76-1.07.61-.1.97.15,1.07.76.15.92-.08,1.43-.69,1.53ZM388.29,156.11c-.62.1-1.79.14-3.52.12-1.74-.02-2.91.02-3.52.12.15.92.43,1.66.84,2.22.41.57.79.97,1.15,1.22l5.98,1.83.93,5.51,1.83-3.14-.93-5.51-2.76-2.37ZM408.83,311.84c.61-.1.84-.61.69-1.53-.15-.92-.54-1.33-1.15-1.23-.62.1-.84.61-.69,1.53.15.92.53,1.33,1.15,1.22ZM419.12,372.94c-.62.1-1-.31-1.15-1.22-.15-.92.07-1.43.69-1.53.61-.1,1,.3,1.15,1.22.15.92-.08,1.43-.69,1.53ZM412.9,319.19l-2.76.46.46,2.76,2.76-.46-.46-2.76ZM387.16,166.22c.61-.1.84-.61.69-1.53-.15-.92-.54-1.33-1.15-1.22-.62.1-.84.61-.68,1.53.15.92.53,1.33,1.15,1.22ZM415.84,336.65c.61-.1.84-.61.69-1.53s-.54-1.33-1.15-1.23c-.62.1-.84.61-.68,1.53.15.92.53,1.33,1.15,1.23ZM389.5,149.29c.61-.1.84-.61.69-1.53-.15-.92-.54-1.33-1.15-1.22-.31.05-.38.54-.23,1.46.15.92.38,1.35.69,1.3ZM419.27,326.15c.1.62.61.84,1.53.69.92-.15,1.33-.53,1.22-1.15-.1-.61-.61-.84-1.53-.69-.92.15-1.33.54-1.22,1.15ZM383.29,95.54c-.62.1-.99-.31-1.15-1.22-.15-.92.07-1.43.68-1.53.61-.1,1,.3,1.15,1.22.15.92-.08,1.43-.69,1.53ZM389.32,131.37c-.62.1-.99-.31-1.15-1.23-.15-.92.07-1.43.68-1.53.61-.1,1,.31,1.15,1.22.15.92-.07,1.43-.69,1.53ZM390.48,138.26c-.62.1-.99-.31-1.15-1.22-.15-.92.07-1.43.68-1.53.61-.1,1,.3,1.15,1.22.15.92-.08,1.43-.69,1.53ZM423.19,332.57c.61-.1.84-.61.69-1.53-.15-.92-.54-1.33-1.15-1.23-.62.1-.84.61-.68,1.53s.53,1.33,1.15,1.22ZM431.98,367.94c-.62.1-1-.3-1.15-1.22-.15-.92.07-1.43.69-1.53.61-.1.99.31,1.15,1.22.15.92-.07,1.43-.68,1.53ZM405.2,192l-2.76.46.39,2.3,2.37-2.76ZM410.43,206.23c-.62.1-.99-.31-1.15-1.23-.15-.92.07-1.43.68-1.53.61-.1,1,.3,1.15,1.22.15.92-.08,1.43-.69,1.53Z"/>
</svg>