<?xml version="1.0" encoding="UTF-8"?>
<svg id="Layer_1" data-name="Layer 1" xmlns="http://www.w3.org/2000/svg" viewBox="0 0 600 600">
  <path d="M550,496.12h-72.37l-111.83-105.59c-36.16-35.99-95.78-35.62-131.6.63l-111.83,104.96H50c1.23-1.71,2.84-3.28,4.38-4.71,46.97-43.59,92.89-88.57,140.35-131.58,35.48-32.15,72.02-48.44,121.24-43.53,36.33,3.62,62.99,19.69,89.3,43.53,47.46,43.01,93.38,87.99,140.35,131.58,1.54,1.43,3.14,3,4.38,4.71ZM477.01,103.88c-37.27,33.42-72.65,69.09-109.95,102.45-42.69,38.18-91.13,39.04-134.1.63l-109.95-103.08H50.63l155.72,145.97c59.16,48.66,146.01,43.32,199.55-10.94l143.47-135.03h-72.37Z"/>
</svg>