<?xml version="1.0" encoding="UTF-8"?>
<svg id="Layer_1" data-name="Layer 1" xmlns="http://www.w3.org/2000/svg" viewBox="0 0 600 600">
  <path d="M410.03,281.39c12.68-7.3,24.07-16.83,30.65-30.16,9.67-19.58,9-48.12.52-68.02-16.25-38.13-63.22-47.82-100.33-50.74l-1.69-.85-1.03-71.67-.76-.58-43.62.8.6,70.35-34.8,1.15-.97-71.89-44.34.62,1.13,72.53-89.91,1.59.62,47.01c19.66.53,52.19-8.31,57.81,18.32l1.31,201.32c-2.2,9.77-7.94,12.66-17.37,13.37-10.38.78-21.13-.62-31.54.38l-8.14,52.29,88.87-.25c.54,1,.49,2.12.57,3.21,1.67,21.31-2.22,47.25.41,67.8.12.89.05,1.83.57,2.63,14.5-.17,29.22.39,43.62-.64l-.47-72.42,34.98-.23,1.31,73.13,44.02-.53-.32-73.14c12.13-1.91,24.77-2.3,37-4.42,48.36-8.41,85.42-28.08,93.89-79.67,3.34-20.37,2.8-44.08-6.5-62.86-10.74-21.68-33.41-33.51-56.12-38.46ZM386.26,367.08c-1.9,39.65-56.19,45.2-86.56,46.67-12.26.6-24.6.23-36.85.2l-.49-97.51c15.06-.15,30.13-1.06,45.19-.42,32.27,1.39,80.76,8.41,78.71,51.06ZM364.62,224.01c3.6,50.02-69.59,48.17-103.28,48.12l-.62-88.84c13.18,0,26.38-.95,39.55-.24,26.78,1.43,61.97,7.99,64.34,40.96Z"/>
</svg>