<?xml version="1.0" encoding="UTF-8"?>
<svg id="Layer_1" data-name="Layer 1" xmlns="http://www.w3.org/2000/svg" viewBox="0 0 600 600">
  <path d="M229.81,364.29s.05.05.15.1c-.1-.13-.15-.17-.15-.1ZM330.38,344.34c.05-.07.12-.14.16-.19-.07,0-.12.05-.16.19ZM344.58,336.36c.54-.14,1.06-.23,1.61-.31-.57-.07-1.12.02-1.61.31ZM331.36,282.37c-.27.09-.5.16-.72.23.5.16,1,.34,1.5.5-.24-.07-.5-.31-.78-.73ZM338.06,321.68s-.02.05-.02.07c.05.3.43.47.98-.14-.31.02-.64.05-.95.07ZM330.38,344.34c.05-.07.12-.14.16-.19-.07,0-.12.05-.16.19ZM331.36,282.37c-.27.09-.5.16-.72.23.5.16,1,.34,1.5.5-.24-.07-.5-.31-.78-.73ZM338.06,321.68s-.02.05-.02.07c.05.3.43.47.98-.14-.31.02-.64.05-.95.07ZM344.58,336.36c.54-.14,1.06-.23,1.61-.31-.57-.07-1.12.02-1.61.31ZM538.82,262.49c-.29-.38-.57-.77-.86-1.15-.58-.76-1.15-1.5-1.74-2.22-.44-.55-.9-1.09-1.34-1.63-.27-.33-.54-.64-.79-.94-.45-.51-.9-1.02-1.34-1.51-7.26-8.08-14.58-13.3-21.85-16.61-.52-.23-1.04-.47-1.56-.69-.4-.16-.78-.33-1.18-.48-.5-.2-1.01-.38-1.51-.57-.31-.12-.64-.22-.97-.34-.57-.19-1.13-.37-1.7-.55-.29-.09-.59-.17-.9-.27-.56-.15-1.13-.3-1.69-.45-.87-.22-1.75-.42-2.62-.61-.56-.1-1.11-.22-1.67-.31-1.42-.26-2.84-.45-4.25-.62-4.12-.45-8.19-.54-12.17-.44t-.01,0c-.98.02-1.94.06-2.91.1-16.02.77-30.42,3.89-41.46-3.48t-.06-.05c-2.43-1.61-4.68-3.76-6.77-6.53-22.77-30.56,73.96-48.19,42.47-132.51-5.01-13.4-10.63-22.97-16.68-29.35-.64-.7-1.29-1.36-1.94-1.98-.4-.37-.79-.75-1.19-1.09-.29-.26-.57-.5-.86-.75-.09-.07-.17-.14-.27-.21-.12-.1-.24-.2-.36-.29-.26-.21-.5-.41-.76-.59-.16-.14-.31-.26-.48-.37-.3-.22-.61-.43-.91-.64-.17-.13-.36-.26-.55-.38h-.01c-.44-.29-.89-.56-1.33-.83-.3-.17-.61-.35-.92-.52-.13-.07-.24-.14-.37-.21-.23-.12-.44-.23-.66-.35-.34-.17-.66-.33-.99-.48-.34-.15-.68-.3-1.01-.44-.44-.19-.89-.35-1.34-.51-.3-.1-.62-.21-.93-.3-.05-.02-.1-.05-.16-.06-.26-.08-.52-.15-.78-.22-.06-.02-.1-.03-.16-.05-.3-.09-.62-.17-.92-.24-.36-.09-.72-.16-1.09-.23-5.05-.99-10.21-.54-15.33,1.01h-.01s-.03.02-.03.02c-4.26,1.28-8.49,3.32-12.66,5.93-.05.02-.08.06-.13.09h-.01c-.76.47-1.49.94-2.24,1.46-.26.16-.5.35-.76.52.02-.01.05-.02.07-.03-.02.02-.03.03-.06.05-17.01,11.73-32.22,31.86-40.89,45.7,1.61-2.82,0-1.16-2.68,4.17-19.33,28.43-41.89,28.08-51.63,16.83-10.05-11.68,15.92-48.26-22.38-66.79-38.29-18.53-49.17,28.91-38.57,57.64,10.56,28.74-12.54,61.06-65.21,23.91-4.38-3.11-8.98-5.68-13.65-7.74-19.23-8.51-40.29-8.44-58.96-1.78-.02,0-.02.05-.05.05-.03.01-.06.02-.09.03.02-.01.06-.03.08-.05-1.87.66-3.72,1.41-5.53,2.21-.45.22-.9.41-1.35.62-.05.02-.09.05-.14.07-.78.36-1.55.73-2.32,1.12-.03.01-.07.02-.1.05-.49.23-.97.48-1.44.73-.87.48-1.75.95-2.61,1.44-.86.48-1.71.98-2.55,1.51-.42.27-.84.54-1.26.79-.89.57-1.76,1.16-2.62,1.78-.36.24-.72.5-1.07.76-.01,0-.03.01-.05.03-.51.37-1.02.75-1.53,1.13-.26.2-.51.4-.77.59-.37.29-.73.58-1.09.87-.75.61-1.48,1.22-2.2,1.85-.43.37-.86.76-1.29,1.15-.85.77-1.69,1.56-2.5,2.38-.22.21-.43.42-.64.64-.52.52-1.04,1.06-1.54,1.6-.2.21-.4.42-.59.64-.2.21-.38.42-.59.64l-.17.21c-.44.5-.89,1.01-1.32,1.54-.17.2-.35.4-.49.59-.23.28-.47.55-.69.83-.22.27-.45.55-.66.84-.31.4-.62.8-.91,1.2-.66.84-1.26,1.69-1.87,2.56-.43.61-.83,1.23-1.23,1.87-1.61,2.47-3.06,5.03-4.38,7.7-.26.51-.5,1.02-.73,1.54-.07.1-.12.21-.16.33-.05.1-.09.21-.15.31-.07.15-.14.3-.2.47-.64,1.41-1.23,2.85-1.78,4.31-.33.86-.64,1.72-.93,2.6-.09.28-.19.55-.27.83-.17.5-.34,1-.49,1.51v.02c-.19.64-.37,1.28-.55,1.92-.06.21-.1.42-.16.62-.01.02-.01.05-.02.07-.24.95-.48,1.92-.7,2.89-.02.14-.06.28-.09.42-.02.12-.06.23-.08.36-.08.35-.16.71-.23,1.07-.12.55-.22,1.09-.31,1.65-.03.21-.07.42-.1.64-.09.58-.19,1.16-.28,1.76-.01.03-.01.07-.01.12-.09.59-.16,1.19-.24,1.79v.03c-.01.06-.01.13-.02.19-.05.5-.12.99-.16,1.51-.03.24-.06.5-.08.76-.01.24-.03.5-.06.76-.05.56-.09,1.13-.13,1.69-.03.36-.06.75-.06,1.11-.05.72-.07,1.44-.08,2.18,0,.09-.01.19-.01.28v.7c-.01,1.02-.01,2.05.01,3.1.01.65.03,1.33.07,1.99.05,1.06.12,2.11.2,3.13.03.57.1,1.12.15,1.68.03.47.07.94.12,1.41.01.1.02.21.03.31.06.59.13,1.18.2,1.76.02.3.06.61.09.9.09.73.2,1.46.29,2.18h0c.05.26.08.49.12.72.14.95.3,1.9.47,2.83.03.23.08.47.12.7.13.7.27,1.39.41,2.06.34,1.58.7,3.13,1.08,4.65.06.22.12.44.16.65.45,1.71.94,3.38,1.48,5,.27.82.55,1.62.83,2.41.84,2.36,1.77,4.62,2.77,6.79.65,1.44,1.35,2.84,2.08,4.2.36.69.73,1.35,1.11,2.01.36.62.71,1.23,1.08,1.84.12.2.24.4.36.59.29.48.59.94.9,1.41.02.03.05.06.06.09.38.59.78,1.18,1.18,1.75.03.08.08.15.14.22.26.38.52.76.78,1.12.12.15.22.3.33.44.42.58.85,1.15,1.28,1.72.47.59.93,1.18,1.4,1.75.26.33.52.65.8.97.3.37.62.75.95,1.11.09.13.21.27.34.4.49.57,1,1.12,1.51,1.67.61.66,1.25,1.33,1.87,1.97.59.59,1.2,1.18,1.81,1.76.01.01.03.03.05.03.48.47.97.91,1.46,1.35.36.34.72.66,1.09.98.99.87,1.99,1.72,3,2.54,1.01.82,2.03,1.61,3.05,2.38,3.59,2.67,7.23,5.04,10.83,7.16,1.02.61,2.04,1.19,3.05,1.75,1.01.58,2.03,1.13,3.03,1.65.5.27.99.54,1.49.79.99.52,1.97,1.02,2.93,1.51.48.24.95.49,1.43.73,1.19.61,2.35,1.18,3.49,1.74.22.1.45.22.68.33.91.44,1.78.87,2.64,1.3.43.21.86.42,1.28.63.1.06.21.1.31.16,3.65,1.82,6.85,3.48,9.4,5.15.27.17.54.37.8.56.13.09.27.2.4.29,1.05.78,2.08,1.69,3.11,2.75.73.71,1.42,1.5,2.13,2.33.17.2.35.4.54.61h0c.17.23.35.45.51.68.69.87,1.37,1.79,2.04,2.77.06.08.12.15.16.23.64.95,1.28,1.97,1.91,3.02.23.37.45.76.66,1.14.3.51.59,1.05.86,1.58.29.54.57,1.08.85,1.63.57,1.11,1.11,2.25,1.62,3.41.27.58.51,1.16.76,1.76h0c.21.49.41.98.59,1.47.1.23.2.47.28.71.2.5.38,1,.57,1.51.09.26.19.52.28.78.08.24.17.48.24.72.07.24.15.48.23.72.12.34.23.69.35,1.04.05.13.08.26.13.38.1.3.2.61.28.91.21.66.41,1.34.59,2.03.19.69.37,1.37.55,2.06.09.38.19.77.28,1.16.16.65.31,1.33.47,1.99s.29,1.34.42,2.01c.1.54.21,1.08.3,1.62.08.48.17.97.24,1.46.09.61.19,1.21.27,1.82.06.48.13.97.17,1.44.14,1.13.26,2.26.34,3.4.05.57.08,1.14.1,1.72.02.37.05.76.07,1.13.02.35.03.71.05,1.06.05,1.49.05,2.99,0,4.48,0,.27-.01.54-.02.8,0,.13-.01.27-.02.4-.02.35-.05.72-.07,1.08-.02.45-.05.92-.09,1.37-.05.76-.12,1.51-.21,2.27-.05.49-.1.98-.16,1.47-.03.26-.07.51-.1.77-.05.4-.12.8-.19,1.2-.02.15-.05.3-.08.45-.05.31-.1.63-.16.95-.05.31-.12.63-.17.94-.1.48-.2.97-.3,1.43-.01.08-.03.16-.06.26-.08.4-.17.79-.28,1.19-.05.19-.09.38-.15.57-.09.4-.2.78-.31,1.16-.06.19-.1.38-.17.57-.24.78-.48,1.54-.73,2.33-.16.51-.36,1.04-.55,1.54-.34.92-.71,1.83-1.09,2.74-.09.26-.21.51-.33.77-.07.16-.14.34-.23.5-.06.14-.13.27-.2.4-.12.26-.23.51-.36.77-.13.26-.27.51-.4.77-.02.05-.05.1-.07.15-.01.02-.02.03-.02.05-.01.02-.02.03-.02.05-.12.23-.23.47-.36.7s-.26.45-.4.69h0c-.34.65-.71,1.29-1.09,1.91-.33.54-.66,1.06-1.02,1.58-.16.27-.34.54-.52.79-.19.26-.37.51-.56.77-.09.14-.2.28-.29.42-.1.14-.21.27-.33.41-.29.42-.62.84-.95,1.25,0,.02-.01.03-.03.05-.05.08-.12.16-.19.23-.06.07-.12.14-.17.21-.92,1.15-1.93,2.27-3,3.37-10.81,10.99-34.47,32.97-36.17,55.13v.09c-.27,3.53.02,7.03,1.01,10.49,1.42,5.02,4.26,9.95,8.96,14.69,9.76,9.85,18.65,13.77,27.01,13.74.52,0,1.05-.02,1.57-.05.51-.02,1.04-.07,1.56-.14.35-.02.71-.07,1.04-.14.34-.05.66-.1,1-.17.42-.07.87-.16,1.28-.26.97-.23,1.91-.5,2.86-.8.49-.16,1.01-.36,1.51-.55.5-.19,1.01-.41,1.51-.62h.03s.03-.01.05-.02t.02-.01h.01c.07-.03.14-.06.21-.09.26-.1.51-.22.77-.34.08-.05.17-.09.27-.13.47-.22.94-.45,1.41-.7.27-.14.52-.27.78-.41,1.27-.68,2.54-1.43,3.8-2.24.21-.13.42-.27.63-.41.49-.31.97-.63,1.44-.97.34-.24.68-.48,1.02-.73.35-.23.69-.48,1.02-.73h.01c1.58-1.16,3.17-2.41,4.74-3.73.13-.09.26-.21.38-.31.49-.42.98-.83,1.47-1.25,1.56-1.33,3.12-2.71,4.67-4.13.35-.31.69-.62,1.02-.94,1.02-.94,2.06-1.9,3.09-2.86,1.18-1.09,2.35-2.21,3.53-3.33.55-.51,1.09-1.04,1.64-1.56.35-.31.7-.64,1.04-.98.7-.66,1.4-1.33,2.1-1.97,1.94-1.82,3.91-3.62,5.89-5.39,1.14-1.01,2.29-2,3.45-2.98.85-.73,1.7-1.44,2.57-2.13.43-.36.86-.71,1.3-1.05.49-.4.98-.77,1.47-1.15.49-.37.98-.75,1.47-1.11.01-.01.02-.02.03-.03.98-.71,1.97-1.41,2.96-2.08.66-.45,1.35-.91,2.01-1.33.22-.16.44-.3.68-.44.01-.01.01-.02.02-.02.21-.13.43-.26.65-.38.34-.22.69-.43,1.04-.64.35-.2.7-.41,1.05-.61.24-.15.5-.29.75-.42.29-.16.58-.33.87-.48.19-.1.37-.2.56-.29.01,0,.03-.01.05-.01.1-.06.22-.12.34-.17.12-.05.22-.1.33-.15.05-.03.09-.07.14-.09.05-.03.09-.05.14-.06.62-.3,1.23-.59,1.85-.87.31-.14.62-.28.93-.42.79-.35,1.6-.68,2.4-.97.27-.1.55-.2.82-.29,1.27-.45,2.53-.84,3.76-1.18.62-.17,1.23-.33,1.84-.45,3.34-.75,6.52-1.07,9.51-.99,2.99.07,5.81.54,8.42,1.35.95.29,1.87.63,2.77,1.01,1.34.58,2.62,1.26,3.83,2.01.82.51,1.6,1.07,2.35,1.67.75.59,1.47,1.21,2.14,1.88,1.19,1.14,2.27,2.4,3.26,3.74.35.47.68.94.98,1.43.22.31.42.63.62.95.58.97,1.13,1.98,1.63,3.04.29.61.56,1.22.82,1.85.38.95.73,1.93,1.05,2.93.47,1.5.85,3.05,1.15,4.66h0c.29,1.62.5,3.27.63,4.97.33,4.52.83,8.75,1.49,12.66.24,1.48.51,2.9.8,4.29.2.92.4,1.83.61,2.71h0c.73,3.12,1.58,6,2.53,8.65,1.48,4.18,3.19,7.81,5.09,10.9.34.56.7,1.11,1.05,1.64,1.25,1.84,2.56,3.47,3.94,4.89.38.4.78.78,1.19,1.15,5.62,5.21,12.08,7,18.45,5.6.56-.13,1.11-.27,1.67-.44,2.48-.76,4.95-2.01,7.33-3.74.54-.38,1.06-.79,1.58-1.21.51-.43,1.04-.89,1.55-1.36.26-.23.5-.48.76-.73,2.8-2.74,5.42-6.17,7.77-10.27,4.79-8.34,10.12-16.09,16.18-23.01,1.09-1.26,2.21-2.48,3.35-3.68,1.49-1.56,3.03-3.07,4.61-4.54,1.57-1.46,3.19-2.86,4.86-4.22.84-.68,1.69-1.34,2.54-1.99,1.71-1.29,3.47-2.53,5.28-3.7s3.66-2.29,5.57-3.34c.48-.26.95-.52,1.44-.78.97-.51,1.94-1,2.93-1.48.5-.23,1-.47,1.5-.7,1-.47,2.03-.91,3.06-1.33,3.61-1.49,7.4-2.77,11.34-3.82,1.13-.3,2.28-.58,3.44-.84.7-.16,1.4-.3,2.1-.45,1.06-.21,2.13-.41,3.23-.59,1.2-.21,2.42-.38,3.66-.55,1.85-.24,3.74-.44,5.66-.59,1.92-.14,3.88-.24,5.87-.3.7-.02,1.4-.05,2.07-.08.71-.03,1.41-.08,2.11-.12.42-.03.83-.06,1.23-.09.69-.05,1.36-.1,2.03-.16.66-.07,1.33-.14,1.97-.21.12-.01.23-.02.35-.05.47-.05.92-.1,1.37-.17.52-.07,1.05-.14,1.54-.23.52-.07,1.02-.14,1.5-.23.72-.13,1.42-.27,2.11-.4h.01c.69-.14,1.36-.28,2.03-.43.49-.1.97-.22,1.44-.36.17-.03.35-.08.51-.13.48-.12.94-.24,1.4-.38.16-.05.33-.09.5-.14.47-.13.93-.27,1.4-.41,1.02-.34,1.99-.66,2.95-1.02.26-.09.51-.19.76-.29.1-.05.2-.08.3-.13.51-.2,1.01-.41,1.5-.63.06-.02.12-.05.17-.07.47-.21.93-.42,1.39-.64.27-.12.54-.24.8-.37.23-.13.47-.24.7-.37.45-.23.9-.48,1.34-.72.03-.01.07-.03.1-.06.31-.16.62-.34.93-.52.15-.09.3-.19.45-.28.92-.55,1.79-1.12,2.61-1.71.2-.15.4-.3.59-.45.1-.07.21-.15.31-.24.29-.22.58-.44.87-.68.34-.27.68-.55,1.01-.84.22-.17.43-.36.65-.56.57-.52,1.13-1.05,1.67-1.6.29-.29.58-.58.85-.89.26-.28.51-.57.76-.85.21-.23.41-.47.59-.7.92-1.11,1.76-2.26,2.52-3.42.28-.42.54-.84.78-1.26.15-.26.3-.51.45-.77h0c.07-.15.16-.28.23-.41.3-.56.62-1.15.87-1.72.27-.5.48-1,.69-1.49.12-.27.24-.5.34-.73.19-.45.35-.91.51-1.35.05-.09.08-.17.1-.24.21-.62.42-1.22.61-1.84.27-.79.48-1.6.66-2.38.17-.59.29-1.15.41-1.75.09-.38.16-.76.23-1.14.27-1.4.48-2.77.62-4.15.05-.43.07-.85.12-1.3.05-.64.1-1.26.13-1.87.33-6.81-6.11-15.7-12.71-24.88-4.1-5.68-8.25-11.48-10.8-16.98-.51-1.08-.97-2.15-1.35-3.2h0c-.16-.43-.29-.84-.42-1.26h0c-.2-.63-.36-1.25-.49-1.85v-.02c-.09-.4-.16-.79-.22-1.19-.62-4.05.23-7.77,3.33-10.95.63-.64,1.34-1.26,2.14-1.85.61-.44,1.27-.87,1.99-1.29.48-.27.98-.55,1.51-.82,1.06-.52,2.22-1.02,3.51-1.51.31-.12.64-.23.98-.35.66-.23,1.36-.45,2.08-.68,9.89-2.98,22.29-5.71,34.84-8.91,1.32-.34,2.64-.68,3.96-1.02.8-.21,1.61-.42,2.41-.64,3.82-1.04,7.6-2.12,11.31-3.28,3.2-1,6.34-2.06,9.36-3.2,1.21-.45,2.4-.92,3.56-1.39,1-.41,1.97-.83,2.93-1.25.35-.15.69-.3,1.04-.47.77-.34,1.53-.69,2.26-1.05,3.44-1.65,6.63-3.45,9.47-5.42,1.79-1.23,3.45-2.54,4.95-3.91,11.21-10.29,13.57-24.63-2.15-45.87ZM229.81,364.29c0-.07.05-.02.15.1-.1-.06-.15-.1-.15-.1ZM377.89,317.1c-.12.99-.48.87-.69,1.87-.21,1.08-.83-.22-.85,2.29-.05,1.05-.12,1.97-.38,1.71-.16.35-.28.99-.55.87,0,1.33-.21,1.42-.37,1.79-.07.89-.48-.21-.55.59-.16.31-.3.8-.41,1.44-.09.69-.09,1.97-.4,1.23-.34.21-.64.36-.76,1.49-.14,2.7-.89.29-.64,1.76.05.35-.64-1.49-1.09.16-.47-.76-.83-.21-1.28.19-.3,1.33-1.33-1.54-1.68.29-.66-.12-1.26.52-2.08,0-.8-.45-1.42.76-2.27.69-.76.49-1.76-.2-2.61.07-.87.23-1.76.59-2.7.76-.87.48-1.99-.34-2.84.64-.95.26-1.85.87-2.93.28-.15.15-.29.29-.43.38-.76.57-1.61.55-2.52.14-.87.73-1.91.43-2.89.41-.26-.07-.55-.13-.78-.13-.55.08-1.07.17-1.61.31-.13.07-.27.14-.38.23-.57.36-1.19.34-1.77.34h-.06c-.28,0-.54,0-.8.07-.85.02-1.72-.36-2.46-.09-.83-.36-1.35.92-2.04.83-.71-.36-1.3-.23-1.83-.02-.57-.19-1.04-.16-1.33.52-.9-.17-1.37.02-1.37.19-.47-1.3-.52.19-.55,1.85-.23.33-.44.63-.56,1.63-.2.66-.48.59-.55,1.92l-.34.33s-.12.12-.16.19c0,0-.02.03-.02.06-.05.14-.07.42-.05.9-.26.16-.38,1.16-.55,1.75-.14.82-.3,1.4-.55,1.57.02.14.43.49.98-.17.37.43.64-.42,1.14-.16.51.38.94-.19,1.51-.23.37-1.12,1.08-.71,1.82-.27.52-1.01,1.53.71,2.11-.37.86.57,1.57-.12,2.33-.48.78-.35,1.58-.69,2.55-.28,1.92,1.04,3.56-.55,5.4-.85,1.88-.15,3.66-1.02,5.54-.89,1.02-.73,2.13-.71,3.16-1.04,1.04-.36,2.08-.52,3.17.05,2.14.59,3.87-.21,5.33-.85,1.44-.86,2.7-1.21,3.7-.57.97.73,1.37.07,1.37-.19.02.28-.06,1.96-.64,1.7-.41,1.16-1.09,1.72-1.57,4.17-.54,1.97-1.33,2.86-1.84,4.97-.2,1.47-.55,1.88-.86,2.31-.37-.1-.4,2-.71,1.86-.58-.21-.49,2.56-.64,1.78,0,.28-.63-.09-1.65.23-1.01.38-2.61-.02-4.36.69-1.78.41-3.82,1.28-6.16.98-.8.42-1.76.19-2.61.42-1.09-1.08-1.81.16-2.7.43-.92-.05-1.82.23-2.7.5-.9.28-1.79.51-2.75.35-1.08.02-2.04.9-3.17.5-1.16-.59-2.08.05-3.02.47-.83,1.14-1.79.98-2.77.52-.49-.3-.94-.37-1.35-.3-.42.07-.78.28-1.11.62-.31.57-.66.59-.95,1.04-.26.57-.76-.44-1.04-.28-.62-.05-1.12.26-1.64-.19-.9-.17-1.27.69-1.34.21-.2.71-.36,1.65-.57,2.13-.31-.14-.41,1.04-.62,1.51-.19.5-.41.98-.62,1.26-.05,1.35-.21,1.9-.45,1.99-.07,1.11-.4.55-.44,1.68-.08,1.02-.24,1.3-.48,1.16.02,1.56-.36.48-.38,1.49-.02,1.09-.23.97-.4.92-.41-.19-.36,1.99-.57,2.42-.12,1.01-.34,1.06-.55.94-.19,1.09-.16,2.47-.37,1.19.16.99-.48.66-1.55.23-.4.52-1.22-.97-1.72.24-.64.33-1.42.16-2.22.37-.69.8-1.6.83-2.61.29-.83.56-1.83.4-2.8.56-.52-.16-1,.06-1.49.13-.5.05-.98.14-1.44.35-1.12-.55-2.11-.4-2.97.48-.99,0-1.89.33-2.86.19-.92.02-1.79.07-2.54.66-.71-.37-1.27-.23-1.82-.16-.16.05-.31.07-.48.07-.66,0-1.26.14-1.65.71-.85.69-1.41.87-1.55.29-.05,0-.4-1.14-.73-1.05-.14.19-.49-.64-.85-1.19-.26.14-.78-1.23-1.21-1.68-.26-.5-.56-1.26-.71-.98-.26-.37-.42-.21-.8-1.13-.19.12-.76-2.11-.85-1.26-.21.07-.66-1.16-.9-1.09-.36-.8-.73-1.47-1.07-1.94-.33-.47-.64-.73-.92-.73-.64-.44-1.49-2.15-2.27-3.19-.03-.2-.69.49-2.06.33-.62.36-1.55-.33-2.35.31-.87.33-1.9.47-3,.54-.66.5-1.54,0-2.31.36-.8.02-1.61.26-2.46.38-1.69.44-3.39,1.25-5.31.85-.9.09-1.87-.07-2.73.42-.87.34-1.86-.02-2.7.43-.56,0-1.22-.76-1.65-.02-.57-.09-1.02.38-1.54.52-.57-.24-1.09-.27-1.55.23-.44.34-1.06-.26-1.47.23-1.01-.19-1.99-.19-2.86-.05-.87.15-1.65.45-2.36.89-.69.49-1.28,1.2-1.99.78-.64-.14-1.02.78-1.63-.22-.79.38-1.33.06-1.33.2-.17-.89-.55-1.12-1.16-1.42-.55-1.64-1.05-2.59-1.26-1.6-.02,1.07-.59-1.3-.64-.35-.33-.76-.69-1.69-.87-1.56-.07-.08-.14-.24-.23-.41-.24-.52-.52-1.26-.62-.83-.36-.85-.45-.05-.86-1.28-.44.07-1.06-1.02-1.58-1.65-.57-.86-.85-.02-1.51-1.85-.55-1.19-.71-.05-1.26-1.63-.45-.59-.78-1.09-.97-1.33.21.12.69.3,1.18-.36.41-.41.93-.59,1.55-.66.62-.05,1.42.38,2.15.09.69-.66,1.56-.49,2.53-.21.98.41,1.85-.34,2.79-.64,1.02,0,2.06-.16,3.11-.38.52-.09,1.07-.21,1.61-.3.52-.12,1.14.14,1.64-.3.3.02.64.02.94,0,1.56-.1,3.05-.75,4.6-.89,1.75-.87,3.58-1.2,5.4-.85.92.26,1.77.19,2.57,0,.8-.14,1.64-.09,2.28-.78.85.5,1.37-.78,2.11-.34.69,0,1.25-.42,1.84-.28,1.09-.41,2.01-.35,2.66-.43.58.07.86-.27.95-.19-.4-.72-.63-.57-1-1.35-.43-.9-.85-1.97-1.04-1.42-.29-.09-.73-1.28-1.05-1.42-.43-.92-.85-1.85-1.06-1.44-.2.55-.69-.9-1.05-1.37-.48-1.16-.8-1.49-1.09-1.58,0-.05-.02-.07-.05-.07s-.05.02-.07.05c-.14.05-.28.14-.42.23-.13.02-.29.02-.48-.05-.23.62-.71.21-1.23,0-.48-.09-1.01-.12-1.54.43-1.33-.79-2.61.07-4.1.66-1.56.07-3.3.19-5.02.78-.95-.22-1.74.8-2.75.42-.93.16-1.85.31-2.79.45-1.85.57-3.7,1.26-5.64.9-1.78.85-3.8-.23-5.36.83-1.05-.3-2.01-.28-2.8.45-.89.28-1.81-.19-2.49.41-.64.87-1.37.8-1.97.92-.62.14-1.15.07-1.68-.36-.9-.02-1.35.36-1.37.22.07.4-.45-.71-1.14-1.47-.42-.78-.83-1.28-1.28-1.71-.42-.37-.87-.66-1.49-1.77-.48-.24-1.11-1.53-1.68-2.24-.57-.85-1.16-1.84-1.62-1.93-.51-.52-1.06-1.46-1.47-1.67-.57-1.13-.87-.97-1.3-1.82-.66-.86-1.11-1.48-1.15-1.48-.05-.42.42.2,1.04-.16.24-.57.66-.59,1.19-.3.55.33,1.14.57,1.63-.12.59-.08,1.51,1.47,1.94-.34.78.38,1.47-.16,2.22-.33.31-.73.84-.05,1.23-.13.34-.54.73-.73,1.26-.28.3-.83.92.33,1.33-.02.5.21.9-.16,1.33-.41.5.2.97.27,1.44.24.48-.02.92-.14,1.37-.38.87-.62,1.75-1.26,2.82-.73.9-.64,1.83-1.01,2.8-1.16.94-.14,1.97-.05,2.96.24,1.92-.14,3.91.47,5.45-.85.98-.41,2.15.87,2.89-.27.93-.07,1.76-.19,2.52-.59,1.54-.3,3.05.98,3.72-.59.91-.07,1.44.17,1.37-.21-.71-1.56-1.22-1.94-1.79-2.46-.57-.57-1.26-1.94-1.81-2.49-.69-1.26-1.26-1.87-1.82-2.49-.55-1.13-.89-1.04-1.33-1.68-.45-.64-.82-.62-1.4-2.01-.41-.41-.84-.78-1.3-1.54-.36-.16-.83-.91-1.37-2.15-.09-.05-.22-.15-.34-.24-.28-.28-.62-.78-.97-1.37-.48-.78-.98-1.65-1.37-2.01-.85-.97-1.83-2.77-2.63-3.6-.16-1.01.14-.87.73-.12.45-.16,1.19.14,1.94-.3.83-.06,1.81.07,2.77-.29,1.12.59,1.99-.83,3.12-.64.82.09,1.64.29,2.4.09.26-.07.55-.19.78-.37.99-.27,1.9-.57,2.73-.64,1.54-.43,2.68-.23,2.68-.43.35,0,.85.83,1.33,1.28.55,1,.8-.05,1.44,1.16.59.92,1.04.92,1.51.83.5.09,1.12.71,1.69,1.07.49-.13,1.15.56,1.72.66.59.26,1.19.49,1.81.56,1.4,1.49,2.6,1.37,3.74.55,1.26-.09,2.54-.43,3.91-.21.57.19,1.01-.34,1.51-.45.5-.02.9-.73,1.47-.26.45-.38,1.09.55,1.42-.45.57.48.78-1.23,1.35-.69.43-.3.87-.4,1.3-.57.45-.16.85-.4,1.21-.97-.12-.76-.29-.36-.78-1.07-.48-.56-1.35-2.5-2.08-2.89-.5-1.04-.82-.55-1.46-2.08-.58-1.23-1.08-1.77-1.58-2.08-.21-.07-.55-.69-.87-1.33-.29-.4-.57-.64-.85-1.08-.22.16-.57-.59-.84-.71-.37-.84-.69-1.3-1.01-1.83-.41-.97-.78-1.85-1.12-2.42-.33-.56-.62-.78-.8-.4-.59-.66-1.26-1.71-1.84-2.38-.45-1.29-.55-.37-1-1.7-.45-1.35-.87-2.52-.85-.85-.36-.73-.55-.48-.85-1.05-.31-.42-.59-.9-.91-1.35-.62-1.18-1.08-1.49-1.61-2.36-.59-1.26-.9-.8-1.4-1.81-.36-.02-.87-1.42-1.21-1.82-.37-.57-.69-1.05-.87-1.07-.38.09-.73-.66-.78-1.07-.55.52-1,1.43-1.6,1.28-.14.29-.3.5-.44.66-.34.38-.66.57-.98.78-.54.02-.9.91-1.27,1.6-.43.35-.79.92-1.09,1.7-.41.16-.76.5-.97,1.47-.2,1.14-.62.59-.66,2.28-.2.78-.36,1.58-.48,2.29-.14.69-.26,1.3-.36,1.75,0,.06-.56.41-1.65.27-.92.9-2.52.28-4.15.66-1.78-.34-3.44,1.23-5.4.85-.97-.05-1.84.52-2.73.78-.9.29-1.77.43-2.68.07-1.75-.33-3.1.66-4.17.64-1.08-.16-1.68.02-1.65.27-.36.35-1.21-2.31-1.58-2.19-.69-1.75-1.09-1.68-1.55-2.06-.58-1.29-1.29-3.31-1.49-2.03-.47-.64-.73.19-1.42-1.92-.52-.93-1.01-1.78-1.47-2.45s-.87-1.08-1.23-1.19c-.51-.12-1.33-1.98-1.94-2.84-.19-.26-.33-.42-.47-.42-.8-1.26-1.54-2.38-2.13-2.84-.43-1.05-.66-1.05-.93-1.09-.35-.73-.51-.48-.87-1.3-.43-1.3-.57-.97-.83-1.33-.26-.37-.64-1.63-.64-.59-.28.76-.85-.21-1.51-2.01-.41-.02-1.14-2.25-1.47-2.03-.31.35-.86-.89-1.28-1.43-.38-1.34-.57-1.49-.66-1.13-.19-.19-.41-.5-.71-1.4-.45-.87-1.21-3.82-1.16-1.87-.16.76-1.04-3.14-1.12-2.04-.09.14-.33-.59-.54-1.23-.34-1.28-.48-1.47-.52-1.11-.16.28-.52-.8-.83-1.57-.34-.99-.27.57-.76-1.68.14,1.83-.24.12-.71-2.2-.17-.36-.36-.98-.59-1.97-.36-1.83-.34-1.4-.45-1.97-.19-1.01-.16-.73-.33-1.83-.07-.56.07.15-.24-2.15-.14-1.18.2.38-.02-1.54.05-.35-.12-2.06-.05-2.54.05-.49.12-1.13.19-1.89-.09-1.74.1-1.85.24-2.33.19-.3.3-1.2.42-2.15.29.41.38-.37.48-1.28.02-.3.07-.62.09-.9.05-1.81.27-2.68.71-2.27.5.83.71-.45.85-2.25.5.44.66-1.41,1.07-1.9.36-.93.69-2.01,1.09-2.84.54,1.3.51-1.14.83-1.53.21-1.04.76-.02.92-1.42.36-.35.71-.66,1-1.51.23-1.19.58-1.65,1.13-1.08.48.28.76-.79,1.14-1.35.37-.57.76-1.09,1.26-.98.92-.37,1.77-1.26,2.68-2.06.66-.09,1.18-1.2,1.86-1.2.76.26,1.07-2.21,1.97-1.12.73.07,1.14-1.99,2.06-.73.5-1.4,1.35-.71,2.01-1.19.64-.64,1.3-1.01,2.01-1.26.69-.23,1.42-.3,2.15-.28,1.54.4,2.86-.36,4.17-1.21,1.51.62,2.77-.23,4.01-.92.85-.66,1.77-.64,2.66-.62.37,0,.76,0,1.11-.05,1.55-.23,2.97-.41,4.27-.55,1.2-.52,2.29-.87,3.33-.28.79-1.14,1.69-.22,2.24-.09.28-1.48,1.04,1.63.78-.03.14.89.42,1.37.73,1.05.59,1.4.92.14,2.04,2.86.57,1.49.94,1.58,1.4,1.99.47.45.87.26,1.63,2.29.76,1.94,1.05.84,1.74,2.11.8,1.94,1.15,1.02,2.04,3.2.33.8.62,1.26.87,1.56.26.31.5.45.73.62.55.59,1.35,2.89,1.72,2.56.24-1.35,1.12,1.3,1.64,1.87.62.94,1.01.66,1.85,3.03.42.94.49-.26,1.04,1.49.38.73.76,1.44,1.02,1.4.56.38,1.25,1.42,2,2.86.57.41,1.3,1.81,1.94,2.66.66,1.07,1.28,1.92,1.9,2.75,1.19,1.54,2.08,1.67,3.37,4.76.76-.23,2.18,4.24,2.7,3.82.62.16,1.49,2.64,1.77,2.5.36.2.66.93.66.93,0,0,1.12-.2,2.61-.43,1.35-1.05,3.32-.73,4.86-.76,1.58.37,2.63-.34,2.61-.43-.02-.16.09-.44.33-1.01.22-.57.57-1.21.89-2.84.28-.09.16-2.84.64-1.99.12-1.3.44-1.57.71-2.33.16-.23.33-.42.35-1.51.34.83.21-1.33.41-1.44.16-.33.09-2.08.42-1.44.12-.64.52.43.52-1.01.36.83.36-.66.52-1.05.4.97.26-1.33.4-1.97.27,0,.29-1.33.43-2.04.3.43.21-1.79.57-1.11-.09-2.01.28-.84.48-1.07.14-.37.28-.9.37-1.65.14-.38.16-1.67.45-1.19.26.28.12-1.94.4-1.56.12-.57.12-1.99.27-2.56.09-.69.51.55.47-1.01.36-.5.59-1.85,1-1.94.28-1,.35-3.27.85-2.68.41-.14.66-1.12.83-2.7.05-1.05.38-.31.38-1.47.19-.12.23-1.07.37-1.54.22-1.16.55-1.5.84-2.04,0-.82.07-1.28.16-1.6v-.02c.16-.47.35-.57.5-1.13.19-1.05.49-1.28.73-1.76.3-.66.56-1.37.76-2.39.21-.82.64-.15.64-2.06.28-.13.51-.31.58-1.21.17-.43.41-.29.34-1.76-.05-2.25.19-1.86.33-1.04.17,1.13.38.02.98-.31.37.2.57-1.13,1.21-.16.58.78,1.01-.05,1.54-.55.52-.14.97-.76,1.61-.54.09,0,.21.05.31.12.69-.31,1.4-.62,2.22-.5,1.61-.26,3.62.97,5.25-.83,1.09.83,1.92-.36,2.99-.09.99,0,2.04-.09,3.03-.48,1.81.02,3.62-.21,5.47-.09.34.02.64.05.98.09.56.12,1.13.28,1.63.05.59.3,1.26,1.16,1.63.02.52-.02,1.16.66,1.69.52.59.35,1.15.66,1.61.21.48.07.97.41,1.44.41.36-.59.85-.31,1.4.35.5.41.85-.23,1.37.34.62,1.15.78-.52,1.35.42.36-.47.8-.21,1.37.73.5.52.76-.44,1.3.5.07-1.97.76-.19,1.23.34.51.97.66-.64,1.28.9.49.94.8.57,1.2.85.02-2.06.76.43,1.12.57.14-1.16.78.69,1.16,1.16.42.76.64.19,1.06,1.01.5.23,1.26,2.38,1.54,1.58.48.38,1.05,1.55,1.44,1.62.08-.12.17-.16.29-.09.26.12.64.83,1.01,1.68.17-1.06,1.05,2.42,1.21,1.61.23-.4.73.89,1.07,1.28.51,1.71.47-.26,1.04,1.9.52,1.76.59.97.85,1.33.5,1.81.27-.83.86,1.87,0-1.02.62,1.86.71,1.61.4,1.76.14-.64.62,1.61.05-.21-.29-2.93.54,1.81.13.48.29,1.3.41,1.47.05.16.12.48.14.48.07.42.16.97.23,1.35v.05s0,.07.03.09v.07s.02.07.02.12v.05c.02.07.02.09.02.09.07.55.19,1.35.23,1.69v.02c0,.19.09,1.13.12,1.7.48,3.48.19,2.18.09,2.33.24,2.15.16,2.46-.05,1.97-.19-.27-.14,1.06-.14,2.18.14,2.13-.12,1.75-.26,2.13-.1.83-.02,2.63-.36,2.15.05,1.85-.21,1.79-.45,2.11-.21.45-.28,1.85-.51,2.32-.22.57-.38,1.6-.59,2.28-.45-.64-.57.85-.69,2.32-.29.57-.31,2.75-.78,2.32-.22,1.12-.76.24-.84,2.45.08,1.4-.26.52-.37.99-.41-1.3-.34.36-.41,1.28-.14.5-.28,1.12-.47,1.35-.34-.57-.22,1.83-.52,1.49-.16.5-.45.45-.57,1.47-.28-.07-.37,1.23-.57,1.9-.14.98-.44.98-.71,1.42-.05,1.69-.35,1.81-.59,2.45-.47-.83-.58.49-.66,2.32-.26.55-.54,1.02-.78,1.94-.4-.26-.57,1.06-.83,1.81-.16,1.4-.5,1.77-.73,2.86-.33.4-.5,1.84-.83,2.29-.36.43-.66,1.01-.83,2.7-.07-.5-.89-1.56-1.67.26-.57-.19-1.15.12-1.9,0-.58.78-1.42.62-2.27.66-.87-.21-1.75-.02-2.63.22-.9.26-1.79.56-2.75.63-1.01-.28-1.77.98-2.77.55-1.01-.59-1.77.41-2.62.31-.86,0-1.57.59-2.21,1.06-.4.27-.78.48-1.18.34-.5-.16-1-.34-1.5-.5-.35-.14-.73-.23-1.11-.35-.19-.22-.31.07-.76-1.5-.29-.3-.55-.09-1.12-1.72-.42-.83-.85-1.3-1.26-1.61-.59-1.26-.97-1.21-1.44-1.46-.57-.85-1.11-1.47-1.58-1.37-.36.84-.94.15-1.68-1.01-.5.19-1.12-.21-1.76-.59-.59-.12-1.21-.3-1.94-1.08-.02-.17-.21.14-.42,1.25-.06.91-.22,1.35-.38,2.06-.05,1.4-.33,1.57-.71,1.33-.26.55-.38,2.06-.64,2.91-.16.43-.41.69-.59,1.07-.14.23-.26.52-.35.92-.09.78-.27,1.21-.48,1.19-.16.41-.34.85-.45,1.63-.44.15-.73,1.42-.97,2.99-.14.57-.21,1.68-.5,1.42-.3-.29-.3,1.28-.5,1.54-.19.41-.28,1.3-.56,1.14-.17.47-.31,1.06-.41,2.01-.21.26-.3,1.22-.55,1.13-.23.09-.26,1.47-.42,1.92-.2.19-.29,1.14-.45,1.51-.09.89-.26,1.19-.48,1.26-.23-.07-.28.9-.37,1.68-.07.84-.31.75-.48.84-.09,1.86-.45,1.99-.73,2.39-.35-.14-.52.9-.62,2.04-.37-.69-.26,1.56-.5,1.33-.05.69-.09,1.12-.16,1.33.83.16,1.78.83,2.63.62,1.01.42,2.11,1.08,2.98.23,1.09.64,1.94-.64,3.06-.23.59-.5,1.33-.09,1.92-.41.76.55,1.32,0,1.86-.59.73.69,1.21-.26,1.76-.64.62-.07,1.18-.3,1.63-1.04.55-.26.95-1.35,1.51-1.35.48-.43.98-.78,1.47-.9.93-.76,1.71-1.85,2.47-2.79.85-.13,1.47-1.33,1.87-3.18.12.76.35.5.73-.12.57.43,1.19.09,1.94-.31.8-.16,1.7-.54,2.7-.73.85-1.22,2.2.43,3.19-.21,1.09-.02,2.15-.21,3.16-.43,1.01-.21,1.94-.42,2.75-.49,1.33.05,2.34.28,2.6-.07-.12.42-.26.64-.37,1.04-.14.66-.38.62-.48,1.42-.33-.57-.44.07-.55.87-.16.55-.33.93-.4,1.97-.07,1.02-.31.95-.5,1.16-.02,1.44-.26,1.44-.44,1.7-.13,1.37-.43,1.74-.72,2.17-.19.97-.37,2.08-.71,2.18-.35.02-.37,2.13-.76,1.89-.37-.16-.51,1.16-.69,2.47-.3.19-.49,1.26-.69,2.27-.02,2.19-.4,2.08-.73,2.11-.66.24-.9,3.23-1.42,4.3.31-.02.64-.05.95-.07.4-1.62,1.37-1.3,2.67-.43,1.09-.43,2.49-.43,3.98-.64.66-.8,1.54-.38,2.38-.38.83-.12,1.91,1.23,2.55-.4.89-.02,1.83.14,2.63-.8.91-.12,1.85-.15,2.82-.05,1.78-.79,3.77-.5,5.61-.89.59.13,1.23.64,1.67-.26.59.26,1.19.5,1.61-.26.55-.02,1.09-.05,1.67.19.61.5.9-1.02,1.44-.69.02,0,.02-.02.05-.02.47-.24.87-.71,1.42-.31.55.41.92-.26,1.44.07.85-.4,1.7-.47,2.48-.58.59-1.33,1.64.76,2.14-.22.51-.69,1.27.48,1.58-.37.55-.31,1.04.12,1.26.14-.07.43-.24,1.09-.52,1.4ZM70.45,389.01c-42.51-45.29-12.66-96.92,34.05-53.11,46.71,43.8-2.28,86.94-34.05,53.11ZM419.26,471.09c4.87,22.78-11.56,63.82-44.31,74.2-42.11,13.33-52.81-3.51-43.57-27.15.05-.13.09-.23.09-.29.02-.02.02-.05.05-.1,7.06-17.68,25.21-39.06,49.69-54.39,22.62-14.14,34.86-7.08,38.05,7.73ZM464.73,190.97c3-6.74,8.8-14.71,14.09-20.82,3.24-3.75,6.43-4.26,9.12-2.74h.02c8.4,4.7,11.7,28.96-5,34.41-20.82,6.85-22.84-.54-18.24-10.85ZM444.31,491.62c-21.65-8.86-19.33-32.07,3.89-22.52,24.3,9.99,15.16,30.31-3.89,22.52ZM229.96,364.39c-.1-.06-.15-.1-.15-.1,0-.07.05-.02.15.1Z"/>
</svg>