<?xml version="1.0" encoding="UTF-8"?>
<svg id="Layer_1" data-name="Layer 1" xmlns="http://www.w3.org/2000/svg" viewBox="0 0 600 600">
  <path d="M113.92,411.53c-22,23.09-40.5,57.87-61.97,82.3-5.13,7.96.54,17.01,9.76,17.24l416.84-.3,8.11-5.58c17.28-26.97,43.14-52.35,59.86-79.15,5.24-8.4,4.93-16.02-5.55-19.33l-421.07.27c-2.66.67-4.22,2.7-5.98,4.55ZM109.72,98.76c-20.25,24.24-37.76,52.35-58.01,76.78-4.62,8.21.58,17.2,10,17.48l415.97-.12,7.95-4.69,63.05-83.33c3.13-4.67.16-14.07-5.06-15.71l-423.72-.25c-3.86.87-7.63,6.77-10.18,9.83ZM51.93,264.94l63.02,83.36,6.91,3.62,415.96.11c7.67.02,13.74-6.33,11.83-14.01l-64.18-86.42-5.67-3.81-422.03.17c-6.93,2.62-10.05,10.71-5.84,16.99Z"/>
</svg>