<?xml version="1.0" encoding="UTF-8"?>
<svg id="Layer_1" data-name="Layer 1" xmlns="http://www.w3.org/2000/svg" viewBox="0 0 600 600">
  <path d="M430.66,380.7c.13.8,1.12,1.2,2.55-.4,1.03-4.14,3.59-3.36,6.97-1.1,2.84-1.12,6.46-1.07,10.39-1.64,1.68-2.11,3.96-1,6.16-.97,2.14-.33,4.97,3.17,6.64-1.05,2.32-.1,4.78.34,6.83-2.09,2.38-.36,4.84-.39,7.37-.15,4.65-2.05,9.82-1.3,14.61-2.31,1.54.34,3.22,1.67,4.31-.68,1.57.73,3.11,1.31,4.23-.67,1.42-.03,2.82-.08,4.31.52,1.59,1.28,2.33-2.66,3.8-1.8,1.24-.59,2.33-1.99,3.79-.83,1.44,1.02,2.4-.72,3.75.18,2.24-1.05,4.47-1.28,6.5-1.57,1.53-3.46,4.28,1.95,5.55-.53,1.38-1.82,3.31,1.21,4.14-1,2.17-1.27,4.02,1.96,3.62-.57-.16-1.01-.43,3.16-1.7,4.55-.34,2.57-1.27,2.27-1.83,4.9-.53,2.81-2.13-.56-2.22,5.96-.13,2.7-.31,5.15-.99,4.47-.43.91-.74,2.6-1.38,2.24-.03,3.46-.57,3.73-.99,4.72-.22,2.26-1.23-.56-1.46,1.54-.43.81-.77,2.11-1.03,3.8-.25,1.78-.24,5.07-1.03,3.15-.88.61-1.71.94-1.98,3.91-.37,7.05-2.3.75-1.69,4.55.15.96-1.65-3.87-2.83.45-1.25-2-2.16-.53-3.31.52-.78,3.43-3.46-4.03-4.38.69-1.71-.32-3.26,1.4-5.42.03-2.13-1.16-3.71,1.98-5.93,1.77-1.97,1.34-4.55-.47-6.81.21-2.27.62-4.58,1.52-7.01,1.97-2.31,1.2-5.19-.84-7.39,1.65-2.47.71-4.84,2.31-7.7.73-2.23,2.46-4.83,2.6-7.63,1.35-2.29,1.96-5,1.14-7.54,1.04-2.64-.72-5.08-.45-7.24,1.14-2.18,1.42-4.65.57-6.81,1.07-2.23,0-4.53-.98-6.43-.29-2.16-.91-3.52,2.39-5.3,2.14-1.88-.9-3.42-.58-4.74-.03-1.49-.48-2.72-.44-3.47,1.33-2.39-.39-3.62.1-3.55.56-1.29-3.52-1.4.44-1.45,4.76-.59.9-1.2,1.66-1.51,4.27-.45,1.73-1.19,1.57-1.36,5.03-.38,2.15-1.61-1.14-1.53,3.81-.65.39-.93,3.01-1.39,4.56-.37,2.08-.82,3.61-1.44,4.05.06.4,1.12,1.28,2.52-.4,1,1.07,1.68-1.1,2.97-.42,1.34.97,2.45-.54,3.93-.67,1.04-2.88,2.85-1.8,4.8-.64,1.34-2.69,3.94,1.81,5.48-.98,2.22,1.49,4.03-.3,6.06-1.25,2.02-.95,4.14-1.81,6.62-.75,5.05,2.71,9.27-1.4,14.07-2.22,4.87-.37,9.51-2.64,14.46-2.28,2.64-1.88,5.55-1.82,8.24-2.71,2.69-.89,5.37-1.32,8.24.11,5.54,1.57,10.05-.56,13.9-2.2,3.76-2.24,6.99-3.17,9.6-1.52,2.68,2.08,3.67,0,3.58-.57.06.4-.1,5.27-1.7,4.56-1.01,3.04-2.82,4.5-4.04,10.86-1.42,5.14-3.47,7.46-4.83,12.96-.52,3.78-1.42,4.85-2.22,5.96-1.02-.25-1.03,5.26-1.83,4.91-1.58-.57-1.34,6.81-1.7,4.56.13.84-1.63-.17-4.3.68-2.65.99-6.82-.05-11.35,1.79-4.66,1.02-9.93,3.31-16.09,2.54-2.09,1.1-4.52.47-6.78,1.07-2.81-2.84-4.69.47-7,1.11-2.43-.11-4.75.65-7.07,1.34s-4.65,1.3-7.11.9c-2.87.08-5.36,2.33-8.29,1.31-3.02-1.56-5.46.09-7.87,1.24-2.13,2.92-4.68,2.53-7.2,1.35-1.3-.8-2.47-1.03-3.53-.84-1.06.19-2.02.79-2.89,1.65-.78,1.44-1.73,1.54-2.46,2.67-.67,1.51-1.96-1.17-2.7-.72-1.64-.1-2.92.66-4.25-.47-2.38-.47-3.32,1.77-3.51.55-.52,1.82-.91,4.28-1.48,5.55-.83-.39-1.09,2.7-1.62,3.92-.52,1.34-1.03,2.56-1.6,3.28-.13,3.54-.57,4.96-1.17,5.21-.19,2.88-1.05,1.4-1.17,4.39-.18,2.64-.64,3.39-1.26,3.01.09,4.09-.89,1.21-.98,3.91-.07,2.79-.59,2.52-1.07,2.4-.99-.49-.91,5.17-1.45,6.29-.3,2.61-.87,2.75-1.41,2.45-.53,2.82-.48,6.39-1,3.07.41,2.58-1.24,1.73-3.99.63-1.08,1.34-3.25-2.53-4.54.61-1.64.89-3.7.45-5.77,1.02-1.83,2.07-4.13,2.13-6.78.73-2.19,1.48-4.79,1.05-7.31,1.49-1.36-.42-2.58.13-3.87.27-1.29.13-2.57.38-3.8.95-2.86-1.39-5.45-1.07-7.67,1.21-2.58.04-4.98.89-7.46.51-2.42.05-4.72.16-6.63,1.71-2.36-1.31-4.19-.26-5.97-.24-1.77.02-3.28.39-4.34,1.87-2.3,1.82-3.74,2.27-4,.63.13.85-.97-2.88-1.9-2.61-.41.5-1.35-1.66-2.28-3.06-.65.34-2.04-3.25-3.13-4.37-.67-1.31-1.46-3.31-1.85-2.58-.66-.99-1.12-.52-2.06-2.94-.51.29-2-5.47-2.25-3.24-.58.16-1.7-3.04-2.32-2.89-.97-2.07-1.91-3.82-2.79-5.04-.88-1.22-1.7-1.93-2.42-1.92-1.64-1.17-3.87-5.59-5.9-8.3-.08-.52-1.82,1.28-5.38.85-1.6.9-3.98-.83-6.13.79-2.27.88-4.9,1.27-7.81,1.41-1.74,1.3-4,0-5.98.96-2.12.08-4.23.67-6.45,1-4.35,1.15-8.78,3.25-13.79,2.18-2.38.24-4.87-.16-7.1,1.12-2.29.88-4.86-.06-7.08,1.12-1.44,0-3.18-1.98-4.3-.05-1.46-.26-2.67.96-3.99,1.36-1.48-.6-2.86-.67-4,.63-1.22.82-2.78-.7-3.87.61-2.67-.5-5.16-.53-7.44-.15-2.28.38-4.35,1.17-6.19,2.3-1.81,1.31-3.36,3.12-5.15,2.01-1.67-.35-2.7,2.07-4.26-.52-2.14,1.04-3.59.04-3.51.55-.38-2.38-1.4-2.97-3.02-3.81-1.42-4.26-2.68-6.71-3.25-4.13-.04,2.82-1.54-3.39-1.67-.88-.85-2.02-1.77-4.38-2.28-4.08-.68-.77-1.87-4.68-2.21-3.22-.93-2.25-1.18-.15-2.26-3.35-1.13.22-2.74-2.65-4.11-4.27-1.47-2.25-2.2-.12-3.92-4.81-1.46-3.1-1.88-.13-3.28-4.28-1.89-2.56-3.1-4.31-3.02-3.81-.02-.12,1.62,1.9,3.58-.57,1-1.08,2.36-1.57,3.99-1.73,1.63-.16,3.68.99,5.62.21,1.79-1.69,4.09-1.29,6.6-.54,2.55,1.05,4.78-.89,7.3-1.66,2.64-.02,5.33-.45,8.07-.98,1.37-.27,2.76-.56,4.16-.84,1.4-.28,2.97.42,4.25-.78,4.98.53,9.61-1.8,14.46-2.28,4.57-2.28,9.3-3.12,14.07-2.22,2.42.66,4.64.49,6.73-.01,2.12-.36,4.23-.22,5.94-1.99,2.19,1.26,3.55-2.06,5.5-.87,1.76,0,3.23-1.13,4.78-.76,2.83-1.04,5.26-.92,6.9-1.09,1.69.13,2.43-.94,2.52-.4-1.01-2.07-1.62-1.54-2.65-3.64-1.07-2.33-2.21-5.1-2.69-3.69-.74-.24-1.95-3.34-2.72-3.73-1.09-2.36-2.19-4.8-2.76-3.78-.49,1.46-1.82-2.33-2.74-3.54-1.21-3.02-2.08-3.9-2.86-4.14-.11-.69-.79,1.09-2.64.42-.61,1.63-1.84.58-3.18-.02-1.28-.25-2.69-.3-4.02,1.16-3.44-2.08-6.8.16-10.68,1.69-4.09.22-8.58.51-13.1,2.07-2.47-.55-4.49,2.09-7.12,1.12-2.41.38-4.86.77-7.32,1.16-4.81,1.48-9.61,3.27-14.71,2.32-4.59,2.24-9.85-.58-13.9,2.2-2.75-.83-5.25-.78-7.31,1.15-2.25.74-4.66-.51-6.46,1.02-1.67,2.32-3.56,2.11-5.14,2.46-1.58.35-3.03.14-4.37-.96-2.34-.07-3.49.93-3.55.56.16,1.03-1.22-1.85-3.02-3.81-1.07-2.07-2.16-3.36-3.31-4.49-1.13-.97-2.31-1.67-3.88-4.6-1.21-.6-2.9-3.98-4.35-5.8-1.51-2.23-3.08-4.82-4.23-5.05-1.33-1.35-2.78-3.78-3.84-4.34-1.44-2.93-2.26-2.53-3.35-4.75-1.85-2.33-3.06-4.1-3.02-3.81-.18-1.13,1.05.47,2.69-.42.65-1.52,1.73-1.57,3.11-.82,1.39.84,2.93,1.45,4.23-.34,1.57-.15,3.94,3.87,5.06-.86,2.03.99,3.8-.4,5.83-.86.75-1.89,2.11-.13,3.18-.31.88-1.41,1.93-1.89,3.26-.7.8-2.19,2.44.83,3.48-.05,1.27.54,2.31-.48,3.43-1.04,1.29.45,2.55.64,3.78.58s2.43-.38,3.6-.96c2.27-1.6,4.56-3.32,7.34-1.94,2.3-1.68,4.73-2.65,7.24-3.01,2.51-.36,5.11-.11,7.75.65,4.99-.37,10.14,1.18,14.17-2.24,2.51-1.04,5.59,2.26,7.54-.66,2.38-.2,4.59-.55,6.5-1.56,4.03-.81,7.96,2.51,9.7-1.53,2.34-.24,3.77.39,3.62-.57-1.87-4.06-3.26-5.07-4.71-6.45-1.46-1.47-3.27-5.06-4.72-6.46-1.75-3.3-3.23-4.85-4.72-6.46-1.4-2.98-2.28-2.72-3.47-4.41-1.18-1.65-2.1-1.6-3.6-5.25-1.08-1.03-2.16-2.03-3.4-4.03-.98-.42-2.2-2.32-3.63-5.56-1-.52-2.16-2.14-3.4-4.21-1.24-2.07-2.5-4.32-3.55-5.28-2.21-2.53-4.74-7.21-6.85-9.35-.42-2.67.35-2.3,1.92-.3,1.18-.43,3.1.39,5.06-.8,2.13-.11,4.68.17,7.21-.75,2.93,1.56,5.2-2.15,8.14-1.68,2.91.33,5.9,1.1,8.28-.76,2.58-.65,4.96-1.44,7.07-1.66,4.12-1.07,7.06-.59,6.98-1.1.92,0,2.24,2.18,3.47,3.37,1.44,2.55,2.11-.17,3.77,3.02,1.53,2.38,2.74,2.37,3.96,2.13,1.3.23,2.87,1.89,4.37,2.78,1.31-.29,3,1.52,4.48,1.75,1.55.67,3.14,1.29,4.69,1.49,3.66,3.87,6.81,3.53,9.79,1.42,3.27-.29,6.58-1.12,10.18-.57,1.45.5,2.59-.87,3.89-1.18,1.34-.05,2.38-1.88,3.88-.68,1.16-1,2.83,1.42,3.71-1.15,1.47,1.23,2.02-3.24,3.49-1.83,1.12-.76,2.29-1.03,3.42-1.46,1.13-.44,2.2-1.05,3.12-2.51-.32-2.02-.72-.94-2.03-2.8-1.25-1.5-3.51-6.55-5.44-7.51-1.32-2.72-2.08-1.41-3.75-5.46-1.54-3.22-2.85-4.59-4.12-5.41-.6-.19-1.44-1.83-2.29-3.44-.77-1.09-1.47-1.71-2.26-2.83-.55.41-1.48-1.55-2.16-1.9-.96-2.15-1.79-3.36-2.63-4.71-1.03-2.53-2.04-4.86-2.91-6.31-.87-1.46-1.61-2.04-2.1-1.08-1.55-1.7-3.27-4.44-4.82-6.17-1.17-3.39-1.42-.97-2.59-4.42-1.18-3.53-2.28-6.54-2.2-2.19-.91-1.92-1.41-1.27-2.24-2.77-.77-1.11-1.55-2.34-2.3-3.51-1.63-3.08-2.85-3.9-4.24-6.15-1.54-3.24-2.33-2.08-3.63-4.71-.89-.03-2.28-3.69-3.16-4.71-.96-1.53-1.77-2.74-2.28-2.8-.98.22-1.86-1.73-2.03-2.8-1.39,1.37-2.56,3.74-4.12,3.37-1.14,2.23-2.48,2.89-3.72,3.77-1.38.02-2.33,2.35-3.3,4.13-1.11.89-2.07,2.38-2.86,4.45-1.06.39-1.96,1.27-2.52,3.83-.5,2.95-1.62,1.51-1.74,5.89-.48,2.07-.88,4.13-1.23,5.96-.35,1.83-.64,3.43-.91,4.59.02.15-1.49,1.08-4.33.68-2.4,2.34-6.54.71-10.82,1.71-4.57-.86-8.92,3.21-14.07,2.22-2.51-.09-4.77,1.4-7.09,2.08-2.32.69-4.62,1.05-6.98.14-4.57-.82-8.04,1.73-10.82,1.71-2.84-.43-4.43.04-4.33.68-.96.9-3.14-6.04-4.15-5.7-1.79-4.55-2.82-4.41-4-5.37-1.57-3.4-3.41-8.64-3.89-5.35-1.26-1.67-1.89.53-3.72-4.96-1.34-2.4-2.63-4.65-3.82-6.36-1.19-1.71-2.27-2.87-3.18-3.09-1.82-.46-4.75-8.49-6.31-8.49-2.08-3.29-4-6.17-5.55-7.42-1.1-2.7-1.75-2.72-2.39-2.83-.92-1.92-1.41-1.22-2.32-3.42-1.09-3.35-1.5-2.53-2.14-3.43-.66-.98-1.65-4.29-1.66-1.56-.77,1.98-2.22-.53-3.99-5.23-1.03-.07-2.94-5.89-3.79-5.31-.81.91-2.23-2.3-3.33-3.69-1-3.55-1.49-3.9-1.76-2.97-.5-.48-1.04-1.32-1.81-3.67-1.17-2.3-3.14-9.95-3.06-4.89-.4,2.03-2.7-8.16-2.89-5.3-.26.38-.88-1.55-1.44-3.19-.82-3.3-1.2-3.84-1.33-2.91-.43.78-1.4-2.07-2.17-4.03-.88-2.64-.66,1.47-1.96-4.43.38,4.78-.66.3-1.89-5.72-.43-.95-.91-2.51-1.5-5.1-.93-4.75-.89-3.66-1.2-5.13-.5-2.65-.41-1.91-.84-4.78-.21-1.48.16.37-.64-5.61-.35-3.09.48.97-.06-4.01.11-.9-.3-5.39-.13-6.63.17-1.24.32-2.92.48-4.94-.23-4.5.26-4.81.67-6.01.47-.82.77-3.14,1.11-5.61.95,1.43,1.09-2.69,1.47-5.72.12-4.64.68-6.94,1.83-5.92,1.33,2.19,1.86-1.14,2.23-5.88,1.32,1.23,1.74-3.6,2.8-4.88.88-2.41,1.76-5.24,2.82-7.45,1.43,3.39,1.35-2.97,2.17-3.91.53-2.75,1.95-.08,2.42-3.7.89-.92,1.83-1.73,2.57-3.95.61-3.1,1.54-4.32,2.93-2.86,1.27.76,2.01-2.05,2.99-3.53.97-1.48,2-2.79,3.3-2.52,2.36-.96,4.59-3.28,6.93-5.34,1.74-.26,3.08-3.16,4.91-3.18,1.94.7,2.78-5.72,5.1-2.9,1.9.2,2.95-5.17,5.36-1.92,1.32-3.65,3.52-1.86,5.25-3.07,1.66-1.65,3.42-2.68,5.24-3.29,1.82-.61,3.72-.79,5.64-.73,4,1.08,7.47-.93,10.84-3.15,3.97,1.65,7.25-.62,10.47-2.38,3.11-2.5,6.68-1.25,9.79-1.72,4.01-.61,7.74-1.07,11.08-1.42,3.18-1.35,6.02-2.31,8.75-.73,2.01-2.97,4.35-.59,5.75-.27.74-3.85,2.74,4.24,2.07-.04.35,2.24,1.1,3.59,1.92,2.71,1.53,3.61,2.42.34,5.28,7.45,1.48,3.87,2.48,4.16,3.67,5.18,1.21,1.17,2.24.71,4.24,5.98,1.96,5.04,2.73,2.17,4.53,5.51,2.07,5.04,3.01,2.64,5.27,8.33.87,2.08,1.61,3.28,2.29,4.07.68.79,1.3,1.17,1.94,1.6,1.38,1.56,3.47,7.56,4.49,6.63.62-3.46,2.88,3.43,4.29,4.89,1.57,2.48,2.64,1.77,4.81,7.95,1.07,2.43,1.27-.72,2.69,3.88.99,1.9,1.97,3.75,2.64,3.64,1.53.98,3.32,3.66,5.25,7.42,1.51,1.07,3.41,4.71,5.06,6.93,1.74,2.81,3.35,5,4.93,7.17,3.09,4.01,5.44,4.31,8.8,12.42,1.98-.62,5.66,11.03,7.02,9.91,1.61.46,3.85,6.89,4.65,6.56.92.49,1.68,2.37,1.68,2.37,0,0,2.92-.46,6.81-1.08,3.55-2.75,8.67-1.93,12.64-2,4.15,1,6.84-.88,6.81-1.08-.07-.47.26-1.2.84-2.68.58-1.51,1.51-3.14,2.32-7.42.71-.24.39-7.39,1.62-5.2.35-3.4,1.2-4.03,1.89-6.03.41-.62.85-1.08.93-3.95.87,2.14.53-3.45,1.03-3.78.42-.83.26-5.44,1.1-3.77.32-1.66,1.34,1.11,1.35-2.62.93,2.12.93-1.71,1.39-2.71,1.01,2.52.69-3.48,1.06-5.14.63.02.73-3.44,1.08-5.31.82,1.09.56-4.69,1.49-2.91-.28-5.21.76-2.13,1.21-2.78.4-1,.74-2.34.99-4.27.4-1.01.43-4.35,1.19-3.13.68.73.33-5.04,1.05-4.03.33-1.49.3-5.22.64-6.66.28-1.81,1.36,1.41,1.27-2.71.93-1.29,1.51-4.76,2.59-5.03.72-2.57.89-8.5,2.24-6.96,1.04-.37,1.73-2.94,2.15-7.08.11-2.69.95-.75,1-3.78.47-.35.6-2.81.93-4.01.56-3.02,1.43-3.9,2.18-5.35.1-5.59,1.19-4.7,1.73-7.14.5-2.68,1.28-3.32,1.93-4.57.77-1.69,1.46-3.55,1.95-6.22.58-2.08,1.7-.34,1.68-5.37.72-.27,1.33-.8,1.57-3.15.44-1.08,1.01-.73.83-4.53-.08-5.86.53-4.9.87-2.78.47,2.98.97.11,2.57-.77.95.48,1.47-2.97,3.11-.42,1.56,2.03,2.64-.15,4.01-1.46,1.52-.4,2.93-2.45,5.02-1.09,1.75-.8,3.63-1.62,5.81-1.27,4.15-.69,9.38,2.53,13.68-2.21,2.86,2.16,4.97-.91,7.74-.22,2.65-.03,5.33-.23,7.93-1.21,5.51.02,11.03-.81,16.8,0,1.46.29,2.94.74,4.24.09,1.54.81,3.29,3.04,4.23.09,1.38-.11,3.06,1.72,4.39,1.32,1.53.91,3.04,1.73,4.22.54,1.23.22,2.55,1.05,3.73,1.05.94-1.51,2.23-.75,3.66.97,1.32,1.04,2.2-.66,3.57.83,1.61,3.03,2.05-1.32,3.54,1.11.91-1.23,2.11-.55,3.57,1.91,1.29,1.37,1.95-1.16,3.38,1.31.23-5.15,1.99-.48,3.21.88,1.4,2.52,1.72-1.71,3.32,2.34,1.35,2.46,2.13,1.45,3.16,2.18.07-5.38,1.99,1.13,2.92,1.49.39-3.03,2.01,1.83,3.01,3.04,1.13,1.98,1.69.5,2.79,2.64,1.27.63,3.26,6.15,4.02,4.17,1.22.97,2.72,3.96,3.72,4.16.78-1.21,2.07,1.08,3.43,4.15.43-2.82,2.7,6.28,3.15,4.15.62-1.05,1.89,2.33,2.75,3.38,1.39,4.4,1.23-.71,2.73,4.93,1.32,4.55,1.56,2.51,2.23,3.41,1.26,4.72.65-2.15,2.21,4.93.01-2.68,1.6,4.88,1.84,4.19,1.07,4.56.39-1.69,1.59,4.21.18-.59-.71-7.68,1.43,4.69.42,1.44,1.02,4.33,1.05,3.8-.08-.93.48,2.3.3.89.42,2.4,1.18,7.05.75,4.26-.34-2.34,1.21,7.67.74,5.2-.06.09.26,2.95.33,4.55,1.25,9.03.48,5.63.26,6.02.61,5.64.41,6.42-.17,5.16-.49-.71-.36,2.76-.37,5.68.41,5.52-.26,4.55-.66,5.53-.22,2.12-.08,6.82-.91,5.62.12,4.82-.58,4.68-1.18,5.49-.54,1.15-.73,4.82-1.34,6.04-.57,1.45-.99,4.13-1.59,5.92-1.14-1.65-1.44,2.22-1.79,6.03-.71,1.5-.8,7.18-2,6.04-.56,2.9-1.97.66-2.15,6.38.14,3.65-.69,1.38-1,2.62-1.04-3.4-.89.9-1.08,3.3-.36,1.31-.69,2.92-1.22,3.52-.86-1.48-.52,4.72-1.33,3.88-.47,1.31-1.19,1.19-1.5,3.83-.76-.19-.98,3.2-1.48,4.94-.39,2.5-1.18,2.54-1.83,3.7-.14,4.38-.94,4.68-1.56,6.32-1.21-2.14-1.56,1.32-1.73,6.08-.69,1.44-1.44,2.67-2.02,5.06-1.07-.71-1.5,2.74-2.2,4.66-.42,3.66-1.28,4.65-1.86,7.49-.87,1.02-1.32,4.82-2.2,6.01-.89,1.11-1.73,2.64-2.14,7.03-.21-1.3-2.31-4.08-4.33.68-1.47-.54-3.01.27-4.92,0-1.55,2.02-3.7,1.58-5.9,1.71-2.3-.55-4.59-.08-6.91.57-2.32.65-4.69,1.48-7.16,1.65-2.62-.76-4.6,2.5-7.19,1.42-2.67-1.53-4.62,1.04-6.87.81-2.22-.04-4.06,1.53-5.73,2.75-1.68,1.22-3.25,1.81-5.09-1.04-2.64.87-4.2,1.51-4.33.68-.83-2.37-.94.38-2.41-4.86-.77-.84-1.4-.25-2.88-4.52-1.15-2.16-2.23-3.39-3.32-4.16-1.49-3.31-2.52-3.18-3.73-3.77-1.47-2.22-2.91-3.84-4.13-3.62-.91,2.15-2.51.42-4.37-2.64-1.3.51-2.91-.54-4.56-1.5-1.55-.31-3.18-.85-5.1-2.87-.07-.43-.51.36-1.07,3.29-.14,2.36-.57,3.52-1,5.35-.14,3.62-.88,4.1-1.87,3.46-.67,1.38-1.01,5.36-1.69,7.6-.74,1.83-1.74,2.45-2.45,5.17-.25,2.02-.66,3.14-1.26,3.09-.43,1.02-.84,2.25-1.13,4.28-1.17.33-1.9,3.66-2.52,7.77-.4,1.46-.58,4.37-1.33,3.7-.76-.74-.76,3.33-1.3,3.98-.48,1.06-.74,3.43-1.45,3-.45,1.2-.84,2.78-1.09,5.24-.53.66-.76,3.19-1.42,2.96-.59.2-.64,3.81-1.07,4.97-.53.53-.74,2.98-1.18,3.96-.23,2.27-.69,3.06-1.23,3.25-.6-.19-.75,2.38-.98,4.42-.21,2.12-.78,1.88-1.25,2.15-.26,4.86-1.19,5.15-1.91,6.2-.94-.35-1.32,2.39-1.57,5.35-1-1.8-.69,4.05-1.29,3.46-.27,4.75-.89,4.43-1.07,3.29,2.33.22,5.07,2.38,7.45,1.77,2.64,1.05,5.49,2.84,7.76.61,2.89,1.67,5.05-1.68,7.97-.62,1.55-1.3,3.46-.26,5.04-1.06,1.94,1.45,3.4-.01,4.82-1.53,1.94,1.78,3.18-.69,4.62-1.68,1.57-.16,3.03-.8,4.26-2.69,1.41-.7,2.45-3.56,3.9-3.53,1.27-1.13,2.52-2.06,3.83-2.39,2.41-1.95,4.49-4.78,6.41-7.23,2.26-.3,3.85-3.46,4.92-8.31.32,2.01.92,1.3,1.92-.3,1.43,1.12,3.08.26,5.06-.8,2.08-.43,4.43-1.39,7.03-1.92,2.18-3.21,5.72,1.14,8.32-.5,2.85-.08,5.63-.6,8.22-1.14,2.6-.54,5.01-1.1,7.13-1.29,4.32.16,7.32,1.04,6.98-1.1-.32,1.7-.82,2.34-1.21,3.65-.32,1.73-.94,1.59-1.21,3.67-.83-1.46-1.17.22-1.44,2.32-.38,1.38-.83,2.39-1.01,5.08-.19,2.66-.82,2.47-1.34,3.03,0,3.78-.62,3.75-1.12,4.44-.35,3.59-1.11,4.54-1.86,5.63-.52,2.54-.98,5.42-1.87,5.66-.91.09-.97,5.55-1.98,4.98-1-.46-1.38,2.98-1.76,6.38-.84.52-1.33,3.3-1.84,5.95-.03,5.66-1,5.4-1.92,5.45-1.75.65-2.32,8.75-3.74,11.38Z"/>
</svg>