<?xml version="1.0" encoding="UTF-8"?>
<svg id="Layer_1" data-name="Layer 1" xmlns="http://www.w3.org/2000/svg" viewBox="0 0 600 600">
  <defs>
    <style>
      .cls-1 {
        fill: #57fb4c;
      }
    </style>
  </defs>
  <path class="cls-1" d="M488.89,228.67c-5.78,10.6-17.43,32.9-31.86,60.76h-56.18c-3.41-13.38-12.46-24.54-24.47-30.73l-43.43,85.39c6.47,3.24,13.76,5.08,21.48,5.08,16.5,0,31.06-8.36,39.66-21.07h42.94c-10,19.41-20.55,39.92-30.92,60.13l-19.81,38.67h-.02c-4.16,8.11-8.2,16-12.07,23.56h.02l-19.81,38.67c-12.03,23.53-19.75,38.67-19.75,38.67h-69.35s-7.72-15.13-19.75-38.67l-19.81-38.67h.02c-3.87-7.56-7.91-15.44-12.07-23.56h-.02l-19.81-38.67c-5.19-10.1-10.42-20.27-15.6-30.36-5.19-10.08-10.33-20.06-15.32-29.76h42.94c8.6,12.71,23.16,21.07,39.66,21.07,7.72,0,15.02-1.84,21.48-5.08l-43.43-85.39c-12.01,6.19-21.06,17.35-24.47,30.73h-56.18c-14.42-27.87-26.08-50.17-31.86-60.76-24.46-44.9-31.56-80.45,0-124,31.55-43.56,114-30.67,114-30.67l62.27,125.78h25.25l62.27-125.78s82.45-12.88,114,30.67c31.56,43.56,24.46,79.11,0,124ZM414.82,401.5l-66.64,126.28h38.76s7.71-13.7,19.72-34.99h89.09s21.53-35,21.53-35h-90.89c3.86-6.84,7.9-13.97,12.04-21.31h90.03l21.53-34.99h-135.18ZM50,401.5l21.53,34.99h90.03c4.14,7.34,8.18,14.47,12.04,21.31h-90.89s21.53,35,21.53,35h89.09c12.01,21.29,19.72,34.99,19.72,34.99h38.76s-66.64-126.28-66.64-126.28H50Z"/>
</svg>