<?xml version="1.0" encoding="UTF-8"?>
<svg id="Layer_1" data-name="Layer 1" xmlns="http://www.w3.org/2000/svg" viewBox="0 0 600 600">
  <path d="M313.5,419.99c0-1.32-.15,3.69-.15,4.75,0,1.71,1.36,2.89,3.64,1.62,1.14,6.33,2.5.48,4.04,2.1,1.54.68,3.24,4.52,5.06,1.93,1.46.44,2.98.8,4.56,1.38,1.57.9,3.19,2.19,4.82,2.78.82-.92,1.63-.13,2.45.89s1.64,2.25,2.45,2.2c1.63-.63,3.25,3.43,4.82,1.23,1.57,4.44,3.1,1.29,4.56,2.02,1.46-.45,2.84.54,4.12,1.83,1.28,1.57,2.46,1.07,3.51,1.77,1.05-.45,1.97-1.35,2.72.99,1.51,2.78,2.39,3.12,2.39,1.06,0-1.37.57,3.68,1.59,2.47.51.35,1.14,2.07,1.86,2.52.72-1.36,1.55.18,2.46,4.18.45,4.08.93-.11,1.43,3.09.5.44,1.01,1.5,1.54,1.52.53,1.4,1.08-1.33,1.65,2.85.57.4,1.15,3.65,1.75,2.42,1.04-.03,2.13,3.97,3.25,5.05.56.39,1.13,2,1.71,3.38.58-.44,1.16,3.34,1.75,1.99.59,1.67,1.19,1.08,1.79,2.52.6-1.14,1.21-.5,1.82,3.07.61,2.02,1.22,1.47,1.84,2.85.62-1.38,1.23-.94,1.86,2.88.62,2.57,1.24,4.52,1.86,2.06.62,3.48,1.24,1.85,1.86,3.73.31-1.32.62-1.34.93-.6s.62,2.22.93,3.91c.62,4.92,1.23.49,1.84,2.43.61-.78,1.22,2.42,1.82,3.21.6-.7,1.2,3.49,1.8,2.14.59.4,1.18,1.01,1.76,2.36.58,2.61,1.15,1.23,1.72,3.32.57-.38,1.12,2.78,1.67,2.51.27,1.75.55,4.39.82,3.65.27-.05.54,2.19.8-1.07.53.48,1.05-.6,1.55,2.41.51-2.05,1,4.33,1.48,2.3.96,1.56,1.87,1.47,2.72,4.23.85,3.49,1.64-.53,2.36,3.66.72-1.64,1.37,2.16,1.93,3,.57,1.1,1.05-.05,1.45,2.25.79,4.16,1.23.89,1.23,1.91,0,.5-2.08,2.21-2.08,2.07,0,1.37-.88,1.76-2.47-1.59-.79-2.33-1.76-1.42-2.89-1.86-1.12-.92-2.4.11-3.81-2.46-.71-1.45-1.44-1.78-2.21-1.95s-1.57-.19-2.39-1.02c-.83.47-1.68-.9-2.56-1.84-.88-.58-1.78-2.37-2.71-1.55-.93-1.94-1.87-3.23-2.84-2.02-.97-3.57-1.95,2.41-2.96-1.72-1-2.83-2.02-1.15-3.06-2.31-1.03,1.67-2.08,0-3.14-1.68-1.06-1.04-2.13-3.3-3.21-1.39-1.08,3.03-2.16.06-3.25-2.63-1.09-.48-2.19-2.8-3.29-1.83-1.1-2.87-2.2-4.7-3.3-2.56-1.1-.37-2.2-3.3-3.3-2.13-1.1-3.06-2.2-3.3-3.29-2.12-1.09,3.46-2.18-1.13-3.25-2.1-1.08-1.23-2.15-3.42-3.21-2.07-1.06-.54-2.11-2.29-3.14-2.43-1.03-3.48-2.05-3.53-3.06-1.46-1,.32-1.99-.31-2.96-1-.97,2.61-1.92-.28-2.84-2.85-.93,1.66-1.83-1.6-2.71-.41-.88.22-1.73-5.5-2.56-2.98-.83-1.92-1.63-.06-2.39-1.37-.77-.65-1.51-.12-2.21-1.6-.71-.65-1.38,2.74-2.01,1.61-.64-4.34-1.24.18-1.8-3.28-1.12-1.94-2.09-.51-2.89-2.65-.79-2.97-1.41-5.5-1.83-4.45-.42.2-.64-4.05-.64,2.86,0-1.3-.16-3.08-.46-4.12-.29-3.1-.72.86-1.24.31-.52-2.21-1.14-2.85-1.82-3.33-.34-.54-.7,1.17-1.07-3-.37-4.49-.75-1.58-1.14-2.77-.13-2.22-.26-2.05-.39,2.18-.13-2.04-.26.66-.4-3.11-.13-1.29-.27.06-.4,1.9-.13,2.65-.27,1.61-.4-5.07-.14-.22-.27.86-.41-3.46-.14-1.53-.27-6.05-.41-.39-.27,2.42-.54-2.57-.81.68-.14-2.89-.27.99-.4-5.11-.13-4.05-.27.11-.4,1.07-.27,3.88-.53-2.88-.79.45-.52-10.2-1.03,2.26-1.51-3.4-.24,3.39-.48,1.4-.7-4.49-.23-.02-.45-5.35-.66,1.42-.42-2.18-.82-6.65-1.16-2.62-1.04.73-1.69-.36-1.69-3.81,0-.56-.03-1.33-.09,2.93-.03.27-.06.84-.09,3.03-.04,2.92-.08,2.61-.12,3.94,0-.42-.01,3.46-.02,4.13,0,1.13-.01,3.72-.02,1.2-.01.71-.02,4.25-.04-.2,0,1.37,0,4.77,0,4.64,0-.56,0-.21,0,.73,0-1.96-.01-2.97-.02-2.31-.01-3.25-.03-2.09-.04-3.45-.01,2.45-.03.27-.04,2.04,0-.95-.01-2.55-.02,2.52,0,.21,0-2.01-.01,2.3,0-1.61,0-.13-.01-5.5-.01-.18-.03-2.1-.04,3.09-.01-3.38-.03,6.91-.04.95-.06,5.42-.12,2.61-.18,5.07,0-4.78-.02-4.57-.02-3.6,0-.16,0-2.44-.01-2.7,0-2.41,0,.11-.01,4.03,0,4.26,0,4.91-.01,4.75,0,7.52,0,5.15,0,4.31,0-1.05,0-2.17,0-3.58,0,2.28,0,2.07-.01,2.63,0-3.27,0-5.5,0-5.01,0-.22,0-1.13,0,1.79-.02,5.88-.03.87-.05,1.84,0-2.7-.02-2.83-.03-2.82,0,.54-.02,2.5-.03,5.65,0,2.72,0,2.77-.01.73,0,2.68,0,2.51,0-.25,0-2.66,0-.56,0-4.3,0-.89,0-.38-.01-1.36,0-3.44,0,2.61-.01,4.11-.02,2.37-.03,6.22-.05,2.61-.02,2.81-.03-2.18-.05-.05,0-3.49-.02-5.62-.03.88,0,4.11-.02,1.03-.03,4.02,0,5.21-.02,1.61-.03,5.2,0-.53-.02,2.71-.03-3.38,0-.78-.02-4.82-.03-1.7,0-1.24,0,.77-.01,2.44s0,3-.01.39c0,1.05,0-3.64-.01-2.56,0-2,0,3.81-.01,3.11,0,2.54,0,1.93-.01-1.17,0,.96,0-1.43,0,.73,0,2.69,0-.68,0,4.07-.02.95-.04,2.23-.05.19-.02.31-.04-1.09-.05-1.84,0,.17,0,4.02-.01,6.04,0,1.14,0,.53-.01-.94,0-1.52-.02-1.55-.03-.21,0-2.09,0-.08-.01-3.15,0-1.18,0,.48-.01,3.27,0,4.22,0,4.94-.01,4.89s0-.88-.01.24c0-3.69,0-6.48-.01-4.83,0-2.74,0,1.11-.01.94,0,.23,0-1.26-.01-.94,0-1.03,0,2.35-.01,3.73-.04,4.31-.07-5.14-.11,3.44-.02,3.35-.04,4.87-.05,4.17-.02,3.19-.04,4.01-.05-.72-.04,2.94-.07,3.68-.11,5.02-.02,2.47-.04,2.29-.05,2.7-.02.66-.04-2.96-.05-.81-.03,3.45-.07,4.07-.1,3.97-.02-2.48-.03,8.05-.05,3.56-.02.7-.03,4.57-.05-.86-.03,4.01-.07,1.18-.1,3.44-.03,5.57-.06,4.92-.1,3.14-.03-2.35-.06,1.24-.09,2.4-.03,4.99-.06,4.41-.09,3.18-.03,3.39-.06,2.6-.08,3.68-.03.27-.05-1.79-.08,1.94-.05.19-.1,1.77-.14,4.19-.04-.56-.08,2.74-.12,3.74-.03,3.51-.06.25-.09,2.82-.05,1.19-.07.59-.07,2.39,0-1.52-.48,3.4-1.27,1.7-.79-.69-1.9-.34-3.17-1.7-1.27,5.59-2.7-2.59-4.13-.15-1.43-.9-2.86-2.05-4.13.15-2.54,2.01-4.44.04-4.44,0,0-2.67-.04,1.59-.12-3.04-.04-3.7-.09-5.43-.15-3.75-.06-.3-.12-4.43-.19-4.5-.04.76-.07-.96-.11-1.58-.04,1.41-.08,1.24-.12-3.76-.02-2.08-.04-4.45-.06-4.46-.02,1.44-.04-2.98-.07,1.95-.04-4.66-.09-3.84-.14-4.28-.05-5.34-.09,1.37-.14-3.67-.02-1.9-.05,3.71-.07-.26-.02-.35-.05.09-.07-3.18-.03-2.84-.05-4.34-.08-4.24-.03-.18-.05.7-.08.39-.05-5.89-.1-4.55-.16-3.74-.01,2.58-.02-6.57-.03-3.93-.01.32-.02-1.43-.03-.8-.02-1.59-.04,2.26-.06,1.6-.02-6.34-.04-2.92-.06-4.56-.02-1.59-.04-1.24-.07,1.39-.04-6.93-.09-.37-.13-3.2-.02-.48-.04-1.5-.07-3.81-.02-5.65-.04-1.62-.07.59-.04,3.62-.09,5.05-.13-3.45-.02,3.8-.04-1.67-.07.71-.02-1.63-.04-2.82-.07-3.83-.04-7.66-.09-4.66-.13-3.81-.04.18-.09,1.93-.13-2.47-.02-1.49-.04,2.05-.06,2.15-.01,1.32-.02,3.16-.03-2.55-.01-2.71-.02.54-.03-3.6,0-1.29-.01-1.32-.02.32,0,3.42-.01,2.24-.02,3.01-.01,5.02-.02-4.48-.03-2.38-.01-2.7-.02-5.71-.03-5.65-.01.43-.02,1.49-.03,2.19-.02,2.41-.04,7.93-.06,1.87-.01.37-.02,1.02-.03.57,0-3.65,0-2.75,0-2.81,0-2.15,0,2.33,0-1.59,0-1.76,0,5.74,0,3.14,0,5.18,0-1.25,0-3.31,0,5.26-.01,5.43-.02,5.26,0,.18-.01-.8-.02-1.27-.01.1-.02,3.74-.03-1-.01-5.37-.02-5.09-.03-2.36-.01-1.01-.02-1.5-.03-4.29-.02-3.09-.04,1.2-.06.09-.02-1.2-.04-2.95-.06-4.33-.04-4.18-.08.05-.12-1.1,0-2.41-.02-2.6-.03-2.48,0,.37-.02-2.33-.03,4.12,0-.38,0,1.44,0,2.71s0,1.63,0-.57c0-1.3,0-.06-.01-5.12,0-4.93-.02-.51-.03-2.69-.04,1.85-.07,1.29-.11-1.7-.02-5.92-.04-4.87-.06-3.69-.02,2.99-.04-2.35-.06-.5-.02,1.94-.04,3.93-.05,3.4-.02-1.83-.04-2.46-.05-4.93-.07.01-.13-2.22-.19-4.46-.06,2.06-.11-1.15-.16-3.88-.05-2.6-.09-3.8-.12-2.92-.07-1.76-.1,1.1-.1-2.48,0,4.44-.69,2.26-1.78,4.01-.27,2.36-.57,1.62-.9,1.57-.32,1.9-.66-2.65-1.02,3.73-.36,1.9-.74.23-1.13,3.54-.39,1.96-.79,1.52-1.2.74-.21-1.71-.41.96-.62,2.41s-.42,2.33-.63-.94c-.42,1.56-.85,4.86-1.28,4.24-.11,2.07-.21,3.6-.32,3.22-.11,2.37-.21-1.2-.32-2.51-.21.32-.43-5.1-.64.9-.21,3.32-.42,5.31-.63,4.42-.21-2.06-.42-3.22-.62-.32-.21-2.99-.41,3.08-.61,2.04-.2-3.69-.4,4.11-.59.65-.39-2.57-.77,3.15-1.13,2.46-.36-3.59-.7,1.65-1.02.62-.32,6.4-.62,3.22-.9,3.81-.55,6.01-.99,4.89-1.3,4.88-.31,3.52-.48-1.08-.48-.86,0,1.27-.88,1.15-2.47,1.59-.79,2.28-1.76-.92-2.89,2.13-.56-4.79-1.16-4.7-1.8-1.46-.64-.19-1.31-2.06-2.01,3.65-.63-.59-1.28-.39-1.96,2.62-.68-.14-1.38.13-2.1,0-.72-4.92-1.47,2.03-2.24,2.13-.77.48-1.55,5.09-2.36.83-.72.2-1.45,3.32-2.19,1.44-.74.87-1.5,1.53-2.27,1.43-.77,0-1.55-.64-2.34,1.83-.79.16-1.59.07-2.4,1.23-1.62.12-3.28.74-4.96,1.84s-3.39,2.66-5.11,4.65c-1.72.18-3.46,2.35-5.2,1.77-1.74,1.28-3.49,4.07-5.22,4.95-1.74,3.58-3.47.29-5.18,2.64-1.71.4-3.41-.02-5.07,3.96-1.67.76-3.3.02-4.9,3.16-.8.84-1.59-1.76-2.36,1.1-.78-2.12-1.54-.61-2.3,1.9-2.01,3.29-3.93,1.39-5.73,3.06-1.8,1.38-3.49-1.61-5.03,3.88-1.55,2.57-2.95,1.38-4.18,2.7-1.24-2.29-2.3.73-3.18,2.05-1.75,2.23-2.73,1.76-2.73,1.76,0,0-2.07-.25-2.07-2.07,0-.98.57.15,1.59-2.47.51-3.67,1.14-3.86,1.86-2.89.72-2.06,1.55-2.92,2.46-3.81.91-2.71,1.9-7.18,2.97-4.72,1.07-3,2.2-3.25,3.4-5.16.6.7,1.21.2,1.83-1s1.26-3.13,1.91-5.29c.65-.89,1.3-5.03,1.97-2.79.67-4.4,1.34-3.03,2.02-2.91.68-1.68,1.37-3.98,2.07-3.16.69-3.53,1.39-.06,2.1-3.9.7-1.41,1.41.58,2.12-2.48.71-3.04,1.42-2.39,2.13-3.52.71,2.12,1.42,1.32,2.13-1.8.71,2.85,1.42-3.16,2.12-4.5.7-6.66,1.4-8.4,2.1-4.7.69,2.73,1.38-1.04,2.07-2.05.68-3.01,1.36-4.66,2.02-5.51.67.39,1.32-1.51,1.97-.68.65.03,1.28-4.81,1.91-4.79.62.15,1.23-2.52,1.83-1.01,1.19-.95,2.33-1.43,3.4-5.15.53.19,1.05-1.13,1.54-2.43s.97-1.76,1.43-2.3c.91-5.34,1.73-2.26,2.46-3.81.72-.02,1.35-3.62,1.86-2.89,1.02.2,1.59-.99,1.59-2.47,0,1.1.89-.47,2.42-1.08.77,2.23,1.7-1.05,2.76-1.03,1.06-2.28,2.26-1.11,3.56-1.78,1.3-.59,2.7-2.75,4.18-1.52.74-4.21,1.5-2.27,2.27-2.19.77-.9,1.56,1.72,2.36-.19.8-.36,1.61-1.59,2.42-.32.82-.87,1.64.87,2.47-1.78.83.22,1.66-1.16,2.49-2.08.83,1.69,1.66,3.43,2.49-.2.83,1.21,1.65-.36,2.47-.28.82-1.26,1.63-1.27,2.42-1.89,1.6-1.29,3.15-1.1,4.62-2.05.92.09,1.82-1.59,2.68-.95.86.3,1.68.26,2.46-1.24,1.56-1.9,2.94,1.43,4.1-1.91,2.31,1.82,3.69-1.49,3.69-1.64,0,.49-.19-2.97-.19-4.69,0,5.67-1,.52-2.79,1.08-.89,1.63-1.98,2.53-3.24,1.11-1.26-.92-2.68,2.99-4.24,1.78-.78.68-1.6,1.34-2.45,1.89-.85-5.88-1.73-.05-2.63,1.1-.91-.35-1.84.74-2.8.65-.96,1.7-1.94-.88-2.95.54-1,.66-2.03-.01-3.07,1.18-1.04,1.34-2.1,2.19-3.18,1.22-1.07-.41-2.16-.56-3.26,1.26-1.1,2.18-2.21,1.45-3.33,1.28-.93,2.36-1.87,1.89-2.8,2.1-.94,1.41-1.88,1.11-2.82,1.1-.94-1.29-1.88-1.67-2.83.09-.94,1.73-1.88-.95-2.82,1.05-.94.84-1.87-1.4-2.8.11-.93.25-1.85.28-2.77.57-.92.44-1.82.92-2.72,1.5s-1.79,1.24-2.67,2.04c-.88.19-1.75-1.98-2.6-.26-.85.89-1.7,2.79-2.52,1.72-1.65,1.47-3.24,2.44-4.75,2.34-1.51-2.31-2.95,7.11-4.29,2.13-1.34-.64-2.59-3.03-3.73.96-2.27,2.21-4.11,3.01-5.38,2.07-1.27-.27-1.96.49-1.96.76,0,.16-.69,2.74-1.98-.43-1.29-.55-3.18-2.53-5.57-1.2-1.2,1.38-2.52,1.08-3.96.35s-2.99-1.88-4.65-2.21c-1.66-.87-3.42-.53-5.27-2.33-1.85-1.52-3.8-.34-5.82-.07-1.01-1.08-2.05-1.02-3.1-.89s-2.12-.53-3.21-.47c-1.09-.94-2.19.28-3.31-1-1.12-3.43-2.26,2.45-3.41-.46-1.92.29-3.88,1.71-5.87-.89-1.99-.93-4.02-2.4-6.07-1.69-1.03.72-2.06.57-3.1.16s-2.08-3.73-3.13-1.4c-1.05.2-2.1,2.11-3.16-.08-1.06-1.88-2.12-1.34-3.19-1.4-2.37-1.58-4.75.36-7.14-1.53-1.2.17-2.39.16-3.59-.08-1.2.83-2.4.27-3.6-1.48-1.2,1.27-2.4-.68-3.59-1.51-1.2,1.29-2.39-.71-3.58-.04-1.19-.68-2.38-.02-3.57-.2-1.19,1.99-2.37.41-3.54-1.34-1.18-.46-2.35-.74-3.51-.88-1.17.91-2.32-4.82-3.48-.01-1.15.52-2.3-2.17-3.43-2.45-1.14.71-2.26-1.72-3.38.36-1.34.76-2.67.67-3.98.28-1.31-.39-2.61,2.79-3.89-1.56-.64-2.93-1.27-3.24-1.9-3.96-.63.09-1.26.27-1.88,2.08-1.24,1.43-2.46.3-3.66-.15-1.2.02-2.38-.64-3.53-.37-1.15,2.08-2.29-2.1-3.39-1.13-1.11-3.24-2.18,2.76-3.24-.4-1.05.37-2.08-1.41-3.07-.96-1.99-.54-3.86,1.25-5.6-2.33-1.74-2.68-3.34-.4-4.79.08-1.45,1.9-2.75-1.65-3.89-.84l-2.9-.63-2.43-.53v-4.44l3.15-.68c2.04-.44,5-.76,8.69-1.88,1.23-3.31,2.55-1.06,3.94-.96,1.39-1.25,2.85.82,4.38-.84,1.53-.71,3.13.67,4.79.05.83.47,1.68.18,2.53-.35.86.58,1.73-.28,2.62-1.85.89.6,1.79.05,2.7.48.91-.78,1.84.52,2.78-1.35.94-.76,1.89-.44,2.85-1.52.96,2.03,1.93-1.01,2.91-.04.98-.08,1.97.4,2.97-.17,1-2.08,2.01-.24,3.03-1.13,1.02,1.55,2.04-3.21,3.08-.8,1.03,3.3,2.07-.17,3.12-.54,3.14-1.87,6.34-2.15,9.58-2.07,1.62-2.44,3.24-3.37,4.88-3.49s3.27.57,4.91,1.38c1.64-1.41,3.28-4.16,4.93-1.07,1.64-.39,3.29-2.67,4.93-1.07,3.28,2.15,6.55-3.39,9.78-2.11,3.23-.63,6.43-.68,9.57-2.07,3.14-4.05,6.22-3.76,9.21-1.99,1.5-.22,2.98,2.61,4.43-.74,1.45.46,2.88.62,4.29-1.15,1.4,3.84,2.78-.76,4.13-.89.67-3.11,1.34-2.76,2-2.58.66.04,1.31,3.3,1.95,1.72,1.01,1.7,2.01.4,2.98.42.97.3,1.92-.23,2.85-1.51.93.74,1.83,2.91,2.71-.15.88.39,1.73-.68,2.56-1.16,1.66,2.7,3.21,1.65,4.65-.1,1.44-.47,2.76.25,3.96-1.76,1.2-2.7,2.27-.71,3.2-1.28.93-3.59,1.73-2.06,2.37.07,1.29-2.27,1.98-1.44,1.98-.43,0,.29,1,1.17,2.78,1.07.89,2.65,1.97-1.26,3.22,1.5,1.25-.16,2.67-1.54,4.22,1.37.78.85,1.59.62,2.43.53s1.72-.02,2.62,1.41c1.81,2.32,3.72,2.2,5.72,2.2,2,.47,4.08,1.08,6.22,1.89s4.33,1.8,6.56,3.04c2.22-.16,4.47,3.06,6.72,2.59,2.25.09,4.5.41,6.72,2.59,2.22-1.52,4.42,3.55,6.56,2.99,2.14-.88,4.22,1.27,6.22,1.94,2,.63,3.92,1.17,5.72,1.81s3.5,1.36,5.06,2.34c1.56,1,2.97,1.24,4.22,2.32,1.25-.07,2.33.4,3.22.55,1.78.79,2.78,1.61,2.78,1.07,0-2.14-.2-4.37-.2-4.82,0,.45-.82-.63-2.31-1.03-1.49-1.23-3.65-1.42-6.34-2.81-1.34-.23-2.81-1.06-4.4-1.94-1.58-.88-3.28-5.51-5.07-2.27-.89.84-1.81.61-2.75-.03s-1.9-1.71-2.88-2.52c-1.96,1.36-3.99-.4-6.08-2.64-2.09-1.44-4.23-3.44-6.41-2.85-2.18-2.69-4.4-4.44-6.63-2.94-3.83.41-7.72-2.09-11.57-5.14-1.92-.85-3.84-.7-5.73-2.54-1.89-2.76-3.77-1.68-5.6-2.49-2.3-1.14-4.54-2.07-6.72-2.97-2.17.85-4.27-4.21-6.27-2.8-2-2.15-3.9.86-5.68-2.73-1.78-2.09-3.44.39-4.96-1.99-1.52-2.33-2.89-.09-4.09-1.37-1.21-2.45-2.24-.26-3.09-1.82-1.7-1.18-2.64-.94-2.64-1.17,0,.28-.32-.45-.93-1.44-.3.98-.68.73-1.12-.16s-.95-2.4-1.52-3.93c-.57-1.12-1.2-2.13-1.89-3.16-.69-2.78-1.44-3.4-2.24-3.24-.8.11-1.66-2.62-2.56-4.39-.9-.7-1.86-7.37-2.85-4.01-1-.46-2.04-2.99-3.12-4.29-.54.1-1.09-3.59-1.65-2.46-.56.65-1.13-.99-1.71-3.3-.58.45-1.17-.67-1.76-3.01-.6-1.89-1.2-3.65-1.81-2.78-.61.99-1.23-4.47-1.86-3.16-.63-2.43-1.26-.39-1.9-2.43-.55-.53-1.1-.68-1.66-1.3-.56,1.32-1.12-3.31-1.69-3.16-.57-2.04-1.14-1.89-1.71-2.69-.58-.62-1.15-4.57-1.74-3.4-.58,1.78-1.17-3.55-1.76-2.85-.59,1.6-1.18-4.16-1.78-2.95-.6-.03-1.19-4.21-1.79-2.82-.6-4.68-1.2-.2-1.81-2.46-.61-.58-1.21-.64-1.82-3.99-.61.16-1.22-.92-1.83-3.09-.61-3.71-1.23,1.6-1.84-1.3-.61,2.56-1.23-2.18-1.85-3-.62,1.17-1.23-.51-1.85-2.68-.62,1.31-1.24-4.32-1.85-3.06-.62,2.14-1.24-1.77-1.85-3.55-.62-1.92-1.23-1.97-1.85-2.2-.68-4.12-1.37-.59-2.05-3.02-.68-1.64-1.36-1.32-2.04-3.39-.68-.17-1.36-8.81-2.03-3.5-.68-3.11-1.35.21-2.02-2.74-.67-1.08-1.34-1.81-2-3.41-.66,1.28-1.33-2.26-1.98-2.77-.66.81-1.31-.81-1.96-2.05s-1.29-2.8-1.93-4c-1.49-2.39-2.96-4.56-4.4-6.72s-2.84-4.15-4.21-6.64c-1.37-3.67-2.7-3.62-3.98-6.18-.64-.53-1.27-2.06-1.89-3.42s-1.23-4.99-1.82-2.35c-1.19-4.75-2.33-3.32-3.42-4.69-1.09-.12-2.11-1.85-3.08-5.39-.97.67-1.87-3.33-2.71-4.54-.84-1.95-1.6-3.56-2.3-3.23-.69.81-1.31-.12-1.85-2.4-.54-4-1-2.77-1.37-2.59-.74,1.86-1.14-1.57-1.14-1.77,0-1.93,3.79-4.02,3.79-3.79,0,2.3.5-.23,1.44.93.94-1.85,2.32,3.46,4.09,2.63.88-1.1,1.86,1.72,2.93,2.7,1.07.29,2.23,2.41,3.47,1.43,1.24,2.07,2.57-1.55,3.97,1.52,1.4.26,2.88,4.38,4.43,3.89,1.55,1.03,3.16,1.64,4.84,2.82s3.42,2.5,5.21,3.66c3.11,2.01,6.39,4.12,9.8,6.31,3.41,4.61,6.94,2.09,10.58,6.82,3.63,2.54,7.36,4.54,11.14,7.18,1.89,1.02,3.8,2.88,5.71,3.12,1.92-.65,3.84,3.27,5.77,4.28,1.93-2.77,3.87-.54,5.81,3.26.97,1.01,1.94,1.46,2.91,1.97s1.94,1.06,2.91,2.27c2.15-1.28,4.3.81,6.43,2.95,1.07.67,2.13,1.98,3.2,3.14s2.12,2.15,3.18,2.17c1.05,1.97,2.11.69,3.15,1.62,1.05-1.01,2.09,3.08,3.12,2.49,1.04.13,2.06,1.08,3.09,1.04,1.02,0,2.04,2.45,3.05,2.85,1.18,1.31,2.34,1.18,3.5,1.26s2.3.39,3.43,2.57c1.13,1.18,2.25,6.1,3.36,3.22,1.11,2.39,2.2.36,3.28,1.7,1.08,1.41,2.14,2.71,3.19,3.65,1.05,1.15,2.08,3.21,3.1,1.53,1.02.02,2.01-.36,2.99,1.3.98,2.28,1.94,2.44,2.88,1.35.94-2.67,1.86,1.12,2.76,1.63.9.72,1.78,1.34,2.64,1.85.86.22,1.69.01,2.51,1.3.81-1.77,1.6,3.32,2.37,1.84,1.53,1.01,2.96,1.91,4.29,3.16,1.32.38,2.54,1.28,3.64,1.94,1.1,3.4,2.08,1.66,2.93,1.89.85,3.23,1.58-4.27,2.17,1.4,1.18,2.91,1.8-.24,1.8,1.16,0,.39.46,2.24,1.28,2.88.41.87.91,1.75,1.48,3.63s1.23,3.84,1.94,4.1c.72.77,1.5,2.45,2.33,4.5.83,3.05,1.71,5.81,2.64,6.68.92,1.58,1.88,3.85,2.87,6.44.99,3.58,2,2.98,3.02,6.82,1.02,3.88,2.06,5.06,3.1,6.98.52,1.31,1.04,4.44,1.55,4.81.52,1.56,1.03.64,1.54,2.16.51,2.07,1.02,3.3,1.52,4.29.5.11,1,5.4,1.5,2.86.49-.37.98,2.08,1.46,4.19.48,1.45.95,4.59,1.41,1.91.92-.49,1.8,3.97,2.64,5.64.83,5.7,1.61,5.23,2.33,5.54.72,1.71,1.37,1.88,1.94,4.59.58,2.77,1.07.28,1.48,3.14.82,3.09,1.28-.4,1.28,2.88,0,2.54-.1-2.37-.19-4.71-.1-.53-.19-1.63-.19-4.71,0,.35-.38,1.94-1.05-2.73-.34-3.14-.75-4.38-1.23-3.45-.48,1.42-1.02-2.28-1.62-3.96-.3.42-.61-2.69-.94-5.19-.33-4.37-.67.36-1.02.09-.35-1.12-.72,2.61-1.09-1-.37-1.03-.76-1.05-1.15-4.83-.39-1.23-.8-2.47-1.21-3.56s-.83-2.04-1.26-2.7c-.85-2.33-1.74-4.46-2.64-7-.9-1.19-1.82-4.14-2.75-7.14-.93-3.5-1.87-6.41-2.81-7.29-.94-.59-1.88-5.2-2.81-7.06-.93-1.3-1.85-4.94-2.75-7.37-.9-1.37-1.78-3.62-2.64-6.06-.85-3.41-1.68-5.29-2.47-7.19-.39-.83-.78-1.24-1.15-1.97s-.74-2.11-1.09-3.86c-.7-4.24-1.36-6.28-1.96-5.09-.6-2-1.15-1.09-1.62-3.43-.48-.61-.89-1.53-1.23-3.98-.68-4.14-1.05-1.38-1.05-2.73,0-3.21.1.11.29-1.36.19-2.21.48-2.47.85-3.91.18-1.12.39-1.19.61-3.31.22-2.28.47-3.15.73-2.9.26-1.66.54-3.4.84-3.89.3-.39.61-1.79.94-4.36.15-3.06.3-1.56.46-4.48.16-2.58.31-1.01.48,1.05.16.66.33,2.42.49-2.02.17-4.65.34,2.78.51-3.5.35-2.66.7-1.95,1.07-4.9.18-4.04.37,1.35.56-3.58.09-.78.19-1.96.29-3.67.1,5.12.19-3.4.29,1.94.1-3.35.19.08.29-1.84.1-.05.2,6.57.3-1.82.05,2.65.1,6.28.15,3.01.05-2.67.1-1.27.15-3.1.1-.27.2-5.65.3-3.24.41-2.58.82.56,1.25-4.3.11,1.27.21-.14.32-3.9.11-3.8.21-.75.32.44.22-1.35.43-3.29.65-2.71.22.88.44-3.09.66-2.27.22-.69.45,1.07.67-3.74.23-3.68.45-4.86.68-2.78.23-5.5.46-1.33.69-3.11.23-.7.47-3.08.7-1.89.23-2.61.47-2.22.71-5.1.47-1.55.95-2.48,1.44-5.3.24-2.94.48-.76.73-4.04.24.85.49.28.73-4.07.12,2.14.25,2.91.37.99.12.2.25-1.46.37-4.4.25.02.49-2.61.74-3.43.25-5.09.5-.68.74-3.97.25-.51.5-1.06.75-2.93.27-.06.54,3.34.81-3.47.27-2.25.54-3.45.81-4.18.27-3.79.54,3.64.81-3,.27-6.35.54-5.51.81-4.38.14.58.27,4.26.41,1.52.14-2.25.27-4.59.41-3.78.14,1.6.27,5.06.41-1.18.14-5.54.27-6.3.41-3.55.13,2.69.27-.39.4.6.13.38.27-2.9.4-4.06.27-3.7.54-1.42.8-4.5.27-1.16.53-.74.8-3.05.27-.95.53,2.09.8-3.31.26,1.54.53-3.6.79-3.79.13-2.6.26,1.97.39,1.39.13-3.74.26-.7.39-5.9.26,1.62.52-4.7.78-3.51.26,1.97.51-4.71.77-3.56.25-.2.51-1.99.76-4.06.25-2.51.5-.43.75-3,.14-1.15.28-1.53.42-2.8.14-4.97.28-1.82.42-2.77.28-.79.56.36.83-3.11.27-3.59.54-4.39.81-3.63.27-1.08.53-3.02.8-2.87.26-3.52.52-3.89.78-4.16.26.33.51-3.24.76-3.15.25-.97.49-1.91.74-2.95s.48-2.18.71-3.56c.47-5,.92-5.56,1.36-7.15.44-1.51.86-2.08,1.26-4.95.53-6.16,1.03-.63,1.5-6.64.46,1.15.89-5.38,1.28-6.2.39-1.6.73-3.34,1.03-4.85.3-2.08.56-2.56.77-3.46.42-3.17.64-6.54.64-2.96,0,.41,1.62-1.86,3.24,0,1.62-.97,3.24-.8,3.24,0,0-1.14.1-.81.29,1.36.19,1.91.48,3.69.85,3.91.18.86.39-.08.61,1.78.22,2.76.47.37.73,4.43.26.19.54,2.88.84,4.36.3,1.75.61,1.02.94,3.89.33,3.64.68,3.56,1.04,5.45.36,1.77.74.46,1.13,4.59.2.36.39-2.68.6,2.77.2,2.89.41,2.74.62,2.84.21,2.68.42.4.64,2.94.21-.86.43.64.65,3.02.2,2.66.39,3.16.6,3.44s.4.34.61,2.13c.2-.4.41-.15.62,1.51.21,2.05.42,1.54.63,4.28.43-2.14.86-.81,1.3,3.77.22-1.2.44.54.66,2.24.11.8.22,1.86.34,2.95s.22,2.24.34,3.22c.23-.92.45,1.39.68,2.27.23,5.64.46,1.15.69,3.18.23-.35.46,4.43.7,3.67.23,1.33.47,3.27.7,3.72.24,5.09.47.6.71,4.54.24-1.54.48-.22.72,3.89.24.83.48,1.73.72,4.54.24-1.06.48,4.99.73.34.24,2.84.49,7.68.73,3.64.24-.85.49,4.21.73,3.33.25-2.14.49,8.89.74,3.39.25.15.49,6.8.74,3.25.13-.3.27,2.71.4,4.48.13,2.89.27-1.73.4.29.27,3.06.54.63.8,4.37.27,2.42.54,5.39.8,3.51.27,6.38.54.9.8,2.21.27.41.53-.43.8,4.63.27-1.02.53,3.1.8,3.25.13-.18.27-.59.4-1.53.13.72.27.88.4,4.6.26-3.08.53,3.97.79,3.81.26,2.36.53,6.89.79,4.4.26,4.39.52-1.32.78,3.12.26,5.29.52,3.44.78,3.72.13-1.39.26-2.57.39,3.61.13,2.33.26-1.78.38-.41.29,4.86.57,2.08.86,4.25.14,1.61.28.78.43,3.35.14-1.02.28-1.96.42-.87.14,2.95.28,2.94.42,3.66.14,3.81.28.04.42,1.17.28-1.42.55-2.08.82,4,.27,1.32.54-.02.81,2.61.27-1.23.53,3.69.79,4.81.26-1.71.52,3.88.78,3.52.26,1.25.51,3.58.76,3.61.3-1.41.6-.36.89,3.45.29,2.11.58,3.02.86,4.61.28,4.1.56,3.5.83,3.79.27-.19.54-.72.8,3.79.26,2.51.52.46.77,1.97.25,2.97.49,3.09.73,4.95.24,2.09.47,1.34.69,4.55.22,3.49.44-.53.65,1.67.21,1.17.41-1.18.61,2.03.2,1.09.39.73.57,3.93.36-.49.7,2.54,1,4.12.3,4.7.57.91.8,4.31.23,6.41.43,3.58.59,2.15.32,3.31.49-.14.49,2.28,0,3.06-.37-4.35-1.04,2.71-.34.75-.75-.58-1.22,2.96-.48,2.53-1.02,1.87-1.61,4.4-.35,1.29-.73,2.47-1.12,2.61-.39-3.08-.8,1.67-1.22,3.47-.85,3.39-1.76,5.9-2.72,7.06-.96,1.15-1.97,6-3.01,7.8-.78,2.32-1.58,3.37-2.38,7.3-.81,1.75-1.63,4.21-2.45,5.27-.41,1.67-.83,2.99-1.24,4.11s-.83,2.05-1.24,2.93c-.83,1.13-1.65,5.22-2.47,5.82-.82,1.38-1.63,6.06-2.42,6.6-.8.75-1.58.63-2.34,5.76-.76,3.37-1.5,3.3-2.21,5.73-.71-1.09-1.39,5.99-2.04,5.3-1.3,3.94-2.46,5.54-3.42,8.89-.97,2.52-1.75,4.54-2.29,5.93l-.83,2.16-.14,4.64c-.07,2.32-.14,3.85-.14,4.64,0,4.45.46-1.03,1.27-2.85s1.98-4.45,3.4-7.65,3.09-6.97,4.92-11.08c1.82-3.56,3.8-7.17,5.83-13.13,1.01,2.53,2.04-5.47,3.07-6.54,1.03-2.35,2.05-5.61,3.07-7.28,1.01-2.01,2.01-4.27,2.99-6.53.49-1.13.97-2.27,1.44-3.38s.94-2.26,1.4-3.22c1.82-6.27,3.5-7.03,4.92-11.08,1.42-2.68,2.58-4.97,3.4-7.65.81-1.23,1.27-3.58,1.27-2.85,0,.38.5,0,1.44-.93.94,2,2.32.76,4.09-2.63.88.64,1.86.03,2.93-.95s2.23-2.34,3.47-3.18c1.24,1.6,2.57-.16,3.97-2.56,1.4,1.57,2.88-4.27,4.43-2.85,2.71-.4,5.62-1.09,8.72-5.62,3.09.91,6.36-1.98,9.76-6.29,1.7-.09,3.44-.94,5.2-2.19,1.77-.73,3.56-6.14,5.38-4.63,1.82,1.45,3.67-4.29,5.53-3.57.93.92,1.87.64,2.81-.18.94.92,1.89-1.78,2.84-3.46,1.9,1.9,3.82,1.27,5.75-1.92,1.93-1.32,3.87-3.1,5.82-5.54,1.95-.41,3.9-3.47,5.86-3.61.98-1.98,1.96-3.64,2.94-4.47.98-1.15,1.96-1.35,2.94.52.98,1.76,1.96.96,2.93-1.18.98-.96,1.95-.55,2.92-2.59.97-3.07,1.94-1.79,2.91-2.33.97.36,1.94-.43,2.9-1.42,2.17-3.33,4.32-1.41,6.45-4.16,2.13-2.83,4.24-3.51,6.32-4.07,2.08-.79,4.13-2.33,6.15-3.88,2.02-1.55,4-3.1,5.94-3.92,1.94-1.44,3.84-1.73,5.69-3.67,1.85-.75,3.66-2.25,5.41-3.48,2.19-1.78,4.29-2.47,6.29-5.09,2-.95,3.91-2.88,5.7-2.65,1.79-1.25,3.48-1.41,5.04-3.55,1.56-.09,3-4.41,4.3-2.47,1.3-.25,2.46.49,3.48-1.39,1.01-1,1.88.56,2.58-2.51,1.4.45,2.16-3.61,2.16-1.39,0-1.01,3.78,3.74,3.78,3.79,0,.64-.32.65-.93,1.44-.61,1.62-1.5-.77-2.63,4.09-.57.29-1.2-.68-1.89,2.93-.69,1.13-1.44,3.18-2.24,3.47-.8-1.2-1.66.92-2.56,2.4-.9,1.94-1.86,2.99-2.85,5.99-1,1.59-2.04,3.16-3.12,4.84l-1.65,2.56-1.71,2.65c-2.01,1.39-4.12,4.73-6.31,9.8-2.2,4.54-4.48,8.08-6.82,10.58-2.34,5.65-4.74,11.16-7.18,11.14-1.22,2.58-2.45,4.35-3.68,6.02-1.23.99-2.48,1.44-3.72,5.47-1.25,4.4-2.49,2.29-3.74,5.61-.62,1.89-1.25,2.92-1.87,3.72s-1.25,1.35-1.87,2.3c-1.39,4.27-2.77,5.89-4.15,6.99-1.38,2.32-2.75,5.6-4.11,5.82-.68.75-1.36,1.42-2.03,3.57-.67-1.07-1.34,2.29-2.01,2.77-.67-.13-1.33-.32-1.99,2.05-.66,1.66-1.31,1.54-1.96,4.02-.76.07-1.51,3.7-2.26,2.46-.75,1.51-1.48,1.66-2.21,3.96-.73-1.1-1.45,3.26-2.17,2.67-.71,3.86-1.42,5.54-2.11,4.49-.7-.27-1.38,4.1-2.06,2.53-.34-1.61-.67-.68-1.01.64s-.66,3.05-.99,3.03c-.65.37-1.3-2.29-1.93,2.4-.63-2.26-1.25,1.78-1.86,3.56-.61-3.35-1.2,1.86-1.78,2.76-.58,2.15-1.15,4.42-1.7,2.65-.55,1.87-1.09,3.31-1.62,1.7-.52,3.1-1.03,4.64-1.53,3.17-.99,4.48-1.91,3.03-2.76,4.29-.85,2.09-1.64,2.91-2.34,3.64-.71,1.76-1.34,3.17-1.89,2.93-.55,3.68-1.02,5.45-1.4,2.17-.38-.29-.67-5.24-.87-1.54-.2.76-.3,2.66-.3,3.35,0,5.29-.82-3.28-2.3,1.02-.74-4.58-1.65,2.46-2.71.7-1.06.74-2.26,1.87-3.6,2.1-1.33-2.28-2.8-.46-4.37,1.94-.79-.47-1.6-.15-2.44.58-.84-2.06-1.71-.08-2.6,1.66-.79-.66-1.6-1.34-2.43-1.44-.83.27-1.67,3.35-2.53,2.09-.86.27-1.73-2.28-2.62.58-.89,1.26-1.79,1.17-2.7,3.33-.91,1.66-1.83-2.3-2.77,1.46-.93,1.71-1.88,2.54-2.83,1.02-.95,1.3-1.91-.83-2.88.7-.97,2.95-1.94-1.65-2.92,1.88-.98.78-1.96,1.55-2.95,2.14-.99,1.42-1.98,1.5-2.97,1.06-.99,1.22-1.99,1.16-2.99.7-1-.29-1.99,2.07-2.99,1.39-1.99,1.61-3.98,3.53-5.95,2.12-.98.6-1.96.71-2.94.46-.97-1.49-1.94.65-2.9,2.65-.96-1.3-1.91,2.47-2.85.66-.94-.25-1.88,2.65-2.8,1.85-.92-.74-1.83-.5-2.73,1.44-.9,2.5-1.79,3.05-2.66.95-1.16,1.77-2.3,2.15-3.41,2.38-1.11.91-2.19-.69-3.23,1.5-1.05,2.47-2.06,1.41-3.04.79-.98.65-1.92-2.22-2.81.88-1.8,1.65-3.43,1.83-4.87,1.94-.72-2.05-1.39-2.56-2.01-.94-.62,1.18-1.19.89-1.7,2.81-2.04-1.63-3.19-2.37-3.19,1.42,0-2.51-.04-1.28-.07.57-.04,3.25-.07,4.71-.07,4.27,0,1.42.76-2.05,2.13-.82.69-3.06,1.53,1.56,2.5-.6.97,1.44,2.08,2,3.31-1.63,1.22,1.51,2.57-.42,4-1.36,1.44-4.2,2.97-3.49,4.59-1.95.81,4.63,1.64,2.88,2.48.45.84-1.73,1.71-.49,2.59-2.22.88-.91,1.77-.74,2.68-.72s1.82-.09,2.75-1.56c.93,2.05,1.87-2.36,2.82-1.29.95.03,1.9-.56,2.87-.9.96,4.45,1.93,2.46,2.9.73.97.92,1.95-1.86,2.92-2.97.98-.79,1.95-3.22,2.93-4.41.98-.34,1.95.31,2.93,1.5,1.95-2.62,3.88,2.38,5.78-1.57.95,2.57,1.89,1.64,2.82.22.93.42,1.85-2.53,2.76-2.65.91-.41,1.81,1.41,2.69.7.88-.59,1.75-1.7,2.6-2.47,1.7,1.08,3.33-2.76,4.88-2.23,1.54.27,3-1.31,4.35-1.32,1.54.09,2.95.09,4.19-1.83,1.24-.07,2.32.8,3.2-1.02,1.77,2.26,2.76,2.62,2.76-1.06,0,1.66.69,1.58,1.98.43.64.61,1.44-2.66,2.37.47.93-2.59,2,1.41,3.2.74,1.2,1.22,2.52-2.96,3.96.03,1.44-1.29,2.99,1.65,4.65,1.83,1.66-1.11,3.42,1.83,5.27,1.14.93,1.23,1.88,2.88,2.85.62.97,1.25,1.96-.99,2.98.64,1.29,1.03,2.6-1.57,3.95-.34,1.35-.65,2.72,1.5,4.13,2.08,1.4-.31,2.83-1.16,4.29.68,1.45-2.28,2.93.76,4.43,1.2,1.5,1.22,3.02.51,4.55.02,1.54.58,3.09,1.48,4.66,1.97,1.57-1.66,3.15,4.9,4.75.7,1.6.59,3.2,1.82,4.82,1.37,1.62-.7,3.24-1.38,4.87.87,1.63,1.77,3.27.07,4.91,1.24.82,1.9,1.64,2.04,2.46,1.77s1.64-.96,2.46-.71c1.64-1.66,3.29.32,4.93,1.07,1.64.24,3.28,1.69,4.91,1,1.63,2.79,3.26,2.04,4.88,1.12,1.62,1.7,3.23-1.9,4.82,1.04,1.6,1.5,3.18,1.75,4.75,1.03,1.05-2.48,2.09-1.9,3.12.4,1.03-2.78,2.06,2.13,3.08.94,1.02,1,2.03,1.63,3.03-.9,1,1.48,1.99,1.37,2.97,2.2.98,1.03,1.95,2.92,2.91,1.47.96-1.54,1.91,2.51,2.85-.69.94,3.28,1.86,1.27,2.78-.23.91,1.12,1.81,2.06,2.7,1.88.89-2.18,1.76.88,2.62,2.43.86,1.29,1.7.36,2.53-1.44,1.66,3.78,3.26,3.48,4.79,1.16,2.04-1.12,3.96.57,5.75,1.95,1.78-2.32,3.43.75,4.92.36,2.99,3.32,5.36-1.27,6.99,1.51,1.63-.96,2.5-.32,2.5.54v4.44c0,1-.95-1.01-2.71.59-1.76,1.53-4.32-1.59-7.54,1.63-1.61-3.93-3.38,4.45-5.3.75-.96,1.07-1.95,1.42-2.98,1.55-1.03.46-2.09-.33-3.19.18-1.09.27-2.22-.23-3.38.55-1.16,2.04-2.34.75-3.55,1.11-1.21.36-2.45,2.41-3.71,1.08-1.26,1.22-2.55.9-3.86.39-1.05-.84-2.11,1.88-3.18,1.13-1.08.11-2.16.08-3.26.26-2.2,1.28-4.45.91-6.73,1.46-2.29.7-4.61,2.94-6.96,2.46-2.35,1.07-4.73.65-7.13.58-4.8,2.44-9.67,3.41-14.54,3.14-2.43,1.88-4.87,1.33-7.29,1.67-2.42.56-4.84,1.08-7.23,1.47-2.16.42-4.29.66-6.41,1.39-2.12-.69-4.21.53-6.27,1.36-2.06.93-4.1,1.97-6.1,1.19-2-.26-3.96,3.84-5.87,1.39-1.92.22-3.79,2.7-5.61,1.41-1.82,2.51-3.59,1.28-5.31.95-2.03,3.29-3.97.04-5.82.77-1.85,1.47-3.61-1.81-5.27,1.63-1.66-3.01-3.21-2.64-4.65.05-1.44,1.06-2.76,2.5-3.96,1.81-1.2,4.82-2.27,1.26-3.2,1.37s-1.73-.04-2.37-.16c-1.29,1.14-1.98.55-1.98.43,0,.6-.73,2.21-2.06-.79-.66-.42-1.47-1.55-2.41.03-.94-1.95-2.01-1.39-3.2-2.19-1.19.61-2.48.57-3.88-1.49-.7,2.6-1.42,3.74-2.16.84-.74,4.8-1.51-1.12-2.29-2.56-.78-3.9-1.59-.72-2.41-2.25-.82,4.4-1.66-1.63-2.51-.07-1.71-1.38-3.48-1.18-5.29-1.61-.91-2.7-1.82-2.98-2.75-2.4-.93-.26-1.86,0-2.8.63-1.88,1.05-3.79.32-5.71-2.57-.96-.42-1.92-.99-2.88-2.36-.96.12-1.92-1.12-2.88.14-.96-.4-1.92,1.35-2.87-.46-.95-.16-1.9-.58-2.84-1.74-.94-1.49-1.88-1.94-2.8-2.18s-1.84-.27-2.75-.92c-1.81-1.14-3.58.11-5.29-1.07-1-.17-1.97-1.46-2.92-1.24-.95-.41-1.88-.77-2.78-.96-1.8,2.45-3.49,1.13-5.04-1.94-1.55-1.89-2.96.88-4.21.03-1.25-.28-2.33-2.18-3.21-2.89-1.77-3.08-2.77-1.49-2.77-1.07Z"/>
</svg>