<?xml version="1.0" encoding="UTF-8"?>
<svg id="Layer_1" data-name="Layer 1" xmlns="http://www.w3.org/2000/svg" viewBox="0 0 600 600">
  <path d="M399.07,355.13l-9.13,17.97h-33.41c2.03-3.98,4.14-8.08,6.28-12.27.97-1.88,1.94-3.78,2.92-5.7h33.34ZM238.62,363.97c-1.49-2.9-3-5.85-4.53-8.84h-33.16l9.13,17.97h33.24c-1.53-2.98-3.09-6.03-4.68-9.13ZM341.44,402.59c-5.69,11.12-10.12,19.78-12.66,24.76-1.57,3.06-2.42,4.74-2.42,4.74h-52.89s-5.89-11.55-15.08-29.5h-33.33l74.94,147.41,74.94-147.41h-33.5ZM518.84,102.34c-33.2-16.91-68.36-29.94-104.52-38.72-37.21-9.04-75.68-13.62-114.32-13.62s-77.11,4.58-114.32,13.62c-36.16,8.78-71.33,21.81-104.53,38.72l-6.94,3.54,111.72,219.75h33.03c-7.91-15.41-15.96-31.06-23.59-45.86h32.76c6.56,9.69,17.67,16.06,30.26,16.06,5.89,0,11.45-1.39,16.38-3.87l-33.12-65.13c-9.17,4.73-16.07,13.23-18.67,23.44h-42.85c-1.65-3.18-3.25-6.27-4.79-9.25-1.23-2.36-2.43-4.66-3.58-6.87-7.09-13.63-12.72-24.32-15.94-30.24-.46-.85-.92-1.69-1.36-2.53-17.54-33.06-22.11-59.65,1.36-92.06,24.07-33.22,86.96-23.39,86.96-23.39l47.51,95.95h19.25l47.5-95.95s2.34-.37,6.28-.71c16.52-1.48,61.26-2.72,80.69,24.1,8.88,12.26,13.75,23.69,15.41,34.96,2.85,19.26-3.65,38.03-15.41,59.63-4.41,8.09-13.3,25.11-24.31,46.36h-42.85c-2.6-10.21-9.5-18.71-18.67-23.44l-2.26,4.45-11.58,22.76-2.23,4.39-9.52,18.73-7.53,14.8c4.92,2.48,10.49,3.87,16.38,3.87,12.59,0,23.7-6.37,30.26-16.06h32.76c-7.63,14.8-15.68,30.45-23.6,45.86h33.21l111.72-219.75-6.95-3.54Z"/>
</svg>