<?xml version="1.0" encoding="UTF-8"?>
<svg id="Layer_1" data-name="Layer 1" xmlns="http://www.w3.org/2000/svg" viewBox="0 0 600 600">
  <defs>
    <style>
      .cls-1, .cls-2 {
        fill: #0a0a0a;
      }

      .cls-2 {
        opacity: .4;
      }
    </style>
  </defs>
  <path class="cls-1" d="M287.81,188.52c-66.11,0-119.71,53.59-119.71,119.71s53.6,119.71,119.71,119.71,119.71-53.6,119.71-119.71-53.59-119.71-119.71-119.71ZM370.69,352.64l-39.64,6.94c-1.1,3.52-2.15,6.94-3.17,10.23l40.03-7.01-5.98,16.93-39.24,6.86c-3.16,10.22-5.18,16.79-5.18,16.79l-27.64,4.83s-4.13-5.49-10.57-14.03l-39.24,6.87-11.37-13.89,40.02-7.01c-2.07-2.74-4.23-5.61-6.45-8.54l-39.65,6.94-11.37-13.89,40.43-7.07c-5.55-7.33-11.19-14.77-16.52-21.8l17.12-2.99c4.32,4.46,10.7,6.77,17.27,5.62,3.08-.54,5.86-1.78,8.21-3.52l-23.26-31c-4.36,3.31-7.19,8.38-7.61,13.96l-22.39,3.92c-7.69-10.1-13.9-18.18-16.94-22-12.87-16.18-18.19-29.85-8.65-49.41,9.54-19.56,43.29-20.17,43.29-20.17l33.58,45.78,10.06-1.77,16.04-54.46s31.95-10.89,47.56,4.27c15.62,15.16,15.26,29.83,8.66,49.42-1.57,4.62-4.66,14.33-8.46,26.44l-22.39,3.92c-2.29-5.09-6.68-8.91-11.89-10.54l-11.35,37.05c2.8.85,5.83,1.07,8.91.53,6.57-1.15,11.79-5.49,14.33-11.15l17.12-3c-2.64,8.44-5.41,17.34-8.14,26.12l40.43-7.07-5.99,16.92Z"/>
  <path class="cls-2" d="M457.28,355.43c42.89-13.08,130.96-21.51,87.65-80.77-21.42-29.34-43.76-31.91-63.75-30.95-16.71.79-31.77,4.09-43.29-3.7t-.05-.03c-2.53-1.72-4.88-3.99-7.06-6.92-23.77-32.3,77.23-50.93,44.34-140.07-8.74-23.77-19.33-36.06-30.56-40.66-.9-.37-1.83-.71-2.76-.99-.05-.03-.1-.06-.15-.06-.72-.22-1.48-.4-2.23-.56-4.61-.99-9.27-.82-13.92.25-.85.2-1.68.43-2.53.71h-.05s-.05,0-.05.03c-4.46,1.35-8.87,3.5-13.2,6.24-.05.03-.1.09-.15.12-1.06.65-2.08,1.32-3.13,2.09-17.73,12.43-33.62,33.69-42.68,48.3,1.68-2.97,0-1.22-2.81,4.38-20.16,30.1-43.73,29.73-53.88,17.84-10.49-12.35,16.61-51.01-23.37-70.6-39.98-19.59-51.33,30.55-40.29,60.94,11.05,30.38-13.07,64.52-68.06,25.26-4.58-3.28-9.37-6.02-14.25-8.2-20.09-8.99-42.09-8.9-61.58-1.87-.03,0-.03.03-.05.03-1.5.54-3.01,1.13-4.51,1.78-.63.25-1.26.54-1.88.82-4.53,2.07-8.89,4.5-13,7.32-.85.56-1.71,1.19-2.56,1.81-1.08.8-2.15,1.61-3.21,2.49-.63.51-1.25,1.02-1.88,1.56-.85.74-1.71,1.5-2.53,2.29-.62.56-1.25,1.16-1.85,1.78-.05.03-.07.06-.1.09-.73.7-1.43,1.44-2.13,2.2-1.25,1.33-2.43,2.69-3.58,4.07-.53.65-1.03,1.27-1.53,1.92-.5.65-1,1.29-1.47,1.97-.98,1.33-1.9,2.68-2.78,4.07-.45.71-.88,1.41-1.3,2.12-1.76,2.94-3.33,6.02-4.74,9.19-.3.68-.57,1.35-.85,2.06-.3.74-.6,1.47-.88,2.23-.6,1.63-1.18,3.33-1.68,5.03v.03c-.22.77-.45,1.5-.65,2.29-.07.28-.15.59-.25.9-.15.59-.3,1.19-.42,1.81-.13.54-.25,1.1-.35,1.64-.33,1.38-.58,2.79-.8,4.24-.12.73-.22,1.44-.33,2.2-.07.65-.15,1.3-.22,1.95-.1.96-.2,1.9-.28,2.86-.08,1.07-.15,2.12-.17,3.19-.05,1.19-.08,2.37-.08,3.59,0,1.5.03,3,.1,4.5,3.43,71.85,59.54,84.76,79.06,97.65,12.8,8.48,25.62,36.69,24.07,64.04-.03.46-.05.93-.1,1.42-.05.65-.1,1.29-.17,1.95-.03.28-.05.56-.08.82-.08.67-.15,1.32-.25,1.97-.13.9-.25,1.78-.42,2.65-.26,1.48-.55,2.89-.9,4.33-.15.62-.33,1.24-.5,1.87-.43,1.56-.9,3.05-1.46,4.55-.22.65-.47,1.3-.75,1.95-.63,1.56-1.3,3.08-2.08,4.58-.03.03-.05.06-.05.09-.25.51-.5.98-.8,1.47-.28.51-.58,1.04-.88,1.56-.33.59-.7,1.16-1.08,1.75-1.03,1.64-2.18,3.22-3.43,4.74-.98,1.22-2.03,2.41-3.16,3.57-11.27,11.62-35.97,34.85-37.75,58.28v.09c-.28,3.73.03,7.43,1.05,11.1,1.47,5.32,4.46,10.52,9.34,15.52,10.2,10.39,19.44,14.52,28.21,14.52.55,0,1.1-.03,1.65-.06.58-.03,1.15-.09,1.73-.17.47-.03.92-.12,1.4-.17.21-.06.4-.08.6-.11.9-.17,1.78-.4,2.65-.62.05-.03.1-.03.18-.06,1.03-.28,2.08-.65,3.1-1.05.5-.2.98-.39,1.48-.59.03-.03.08-.03.1-.06h.03c.13-.05.23-.11.35-.17.42-.17.88-.37,1.3-.59.4-.2.78-.4,1.18-.59,4.33-2.23,8.59-5.26,12.83-8.71.54-.45,1.1-.9,1.65-1.38.71-.59,1.4-1.22,2.13-1.84.7-.62,1.42-1.24,2.13-1.9,7.69-6.92,15.43-14.86,23.52-21.96.45-.4.88-.79,1.33-1.16,4.89-4.21,9.92-8.06,15.18-11.17.47-.28.95-.56,1.45-.82,2.88-1.64,5.84-3.02,8.87-4.1,26.68-9.52,45.04,6.65,46.74,30.55,4.38,61.65,39.36,69.98,58.24,36.71,18.86-33.29,46.02-57.85,90.43-59.12.9-.03,1.78-.06,2.65-.12,2.63-.11,5.14-.34,7.51-.65.8-.08,1.58-.2,2.35-.31,1.38-.2,2.71-.42,4.01-.67.3-.06.6-.12.9-.2.58-.11,1.13-.22,1.68-.37,1.4-.31,2.73-.64,4.03-1.04.63-.2,1.28-.4,1.9-.59,1.33-.43,2.61-.9,3.81-1.39,1.08-.45,2.13-.9,3.11-1.38.55-.25,1.08-.54,1.58-.8.97-.51,1.9-1.01,2.78-1.58.07-.03.15-.09.22-.12.45-.28.9-.59,1.33-.88.97-.65,1.9-1.33,2.8-2.03.33-.26.68-.54,1.01-.82,1.97-1.66,3.73-3.45,5.26-5.34.28-.34.55-.68.8-1.05.3-.37.58-.73.83-1.13.55-.77,1.05-1.53,1.53-2.32.22-.39.45-.79.67-1.19.08-.14.17-.28.25-.42.43-.8.83-1.58,1.21-2.4.05-.12.1-.23.15-.37.38-.8.71-1.58,1.01-2.4.32-.88.62-1.76.9-2.66.28-.85.53-1.72.73-2.6.02-.06.02-.09.04-.14.21-.85.4-1.72.55-2.6.15-.71.25-1.44.38-2.15.12-.85.22-1.7.3-2.52.05-.43.1-.85.12-1.24.05-.68.1-1.35.13-2.03.35-7.21-6.39-16.59-13.25-26.28-4.28-6.02-8.62-12.15-11.3-17.95-5.16-11.05-4.44-20.89,13.65-26.4ZM287.81,427.95c-66.11,0-119.71-53.6-119.71-119.71s53.6-119.71,119.71-119.71,119.71,53.59,119.71,119.71-53.59,119.71-119.71,119.71Z"/>
</svg>