<?xml version="1.0" encoding="UTF-8"?>
<svg id="Layer_1" data-name="Layer 1" xmlns="http://www.w3.org/2000/svg" viewBox="0 0 600 600">
  <defs>
    <style>
      .cls-1 {
        fill: #0a0a0a;
      }
    </style>
  </defs>
  <path class="cls-1" d="M174.88,318.07c-.08-.44-.18-.79-.34-.96v-.34c0-.79-.09-1.75-.18-2.98h-.27c.09-.08.09-.26,0-.44l-.78-1.58c-.09,0-.27-.17-.53-.17-.35.08-.52-.18-1.23,2.53,0,.08-.08.18-.18.26-.44,1.75-.52,3.68-.44,5.87,0,.7.18,1.66.61,2.79,1.4.53,2.63.35,3.59-.61.17-.87.08-2.36-.27-4.37ZM222.39,293.23l-.71-3.42c-.08-.78-.17-2.01-.44-3.68-.08-.17-.26-.44-.34-.78-.09-.09-.27-.18-.35-.35l-.79-2.27c-.7-1.75-.35-.71-1.14-2.98-.34-.26-.78-.61-1.49-1.92l-.7-.35v-.79l-1.14-1.05c-.34-.08-.87-.18-1.49-.44-.26-.44-1.05-.79-3.06-1.49-.44-.26-1.05-.44-1.84-.7-.26.08-.7.26-1.13.34,0-.18-.09-.26-.35-.34h-1.14c0,.26-.44.7-.34,1.05-.09,1.39-.09,3.32,0,5.68.08.44.26,1.06.34,1.84,0,.35-.34,1.05-.34,1.49.08.44.08,1.23,0,2.27-.18.44-.09.87.34,1.13.18.09.18,1.49,0,4.11,0,.61-.34,1.84-.34,2.27,0,.27.34.61.34.7.27,1.13.27,2.63.18,4.46-.18,2.19-.26,3.59-.18,4.2.27,3.15.35,4.81.35,4.9,0,.44-.35,1.75-.35,2.18,0,.35.35.53.35.79v1.14c.08,2.01.18,4.9.08,8.48-.08,3.77-.17,6.56-.08,8.4.61,0,1.14-.7,1.92-.44.44.08.35,1.58,1.06,1.49.26-.08.26-.44.17-.96-.26-.96,1.14-.7,3.24-2.01l1.14-1.14s.79-.7,2.27-2.18l1.84-3.06c.18-.09.44-.35.79-.71,0-.44.52-1.4,1.49-3.76,0-.26.08-.61.35-1.14.26-.26.34-1.05.44-2.18.08-.96.34-1.66.7-1.93v-.79c.7-5.68.79-11.11.35-16.09ZM307.66,269.91l-.45-.91c-.39-.52-.96-.91-1.75-1.17-1.16-.32-3.36-.45-6.59-.39-1.42-.07-3.36-.07-5.87,0-.13.07-.2.07-.13.13-.45,0-1.23-.13-1.49-.13-.91-.07-1.61,0-2.2.13l-.9.26-.13.19c-.32.07-.77.19-1.29.39-.32.2-.45.45-.45.78,0,0-.06.07-.13.13v.59c-.07.06-.13.13-.19.13-.19,1.36-.07,2.13.32,2.39.19.19.45.32.91.26.84-.06,1.33-.12,1.42-.13,0,.07.07.07.13.13h1.03c4.72.06,9.76.06,15.25,0,.58.06,1.42-.07,2.52-.26.39-.65.39-1.49,0-2.52ZM333.18,293.7c-.19-.19-.19-.39-1.16-.96-.33-.19-1.36-.33-3.17-.39-3.03-.07-4.58-.13-4.65-.13-.29,0-.44,0-.44.02-.02-.02-.04-.02-.04-.02h-.17q-.07.07-.13.07t-.07-.07-.07.07h-.39c-.26,0-.71,0-1.29-.07-4.65.07-11.5.13-20.54.07h-.97c-.06.07-.19.07-.25.07h-.33c-.13-.07-.19-.07-.26-.07-.13.07-.32.07-.58.07h-.58c-.26-.07-.45-.07-.65-.07-.52.07-1.68.07-4.26.13l-.07.07c-.33.07-.77.19-1.29.26-.13,0-.26.07-.39.19h-.13l-.39.39c.07,0,.07.07,0,.13l-.26.32v.26q-.06,0-.13.07l-.26.65c0,.13.07.39.13.7,0,.13.06.33.13.65,0,.07.07.19.19.45q0,.07.07.13l.58.64c.07.07.33.2.65.26v.07l.19.07c.45.13,1.49.19,3.04.25,2.9.07,5.62.07,8.14,0,.07,0,.39-.13.45-.13,0,.07.07.07.13.13.13,0,.19-.06.26-.13h.19c-.26.07.71.07,2.84.13.58-.06,1.36-.06,2.46-.13.88.06,1.28.07,1.19.12l.35-.12c.19,0,.59.07.78.13h1.75c2.26-.06,3.88-.13,4.97-.13.45,0,1.36.13,1.69.13.25,0,.77-.13.96-.13q.07.07.07.13c.06,0,.32-.13.39-.13h3.36c.71-.07,1.29-.07,1.68-.07.72.05,1.1.07,1.17.07.45,0,.39.07.71,0,.84.07,1.23,0,1.29-.07.06-.06.25-.06.65,0q.06,0,.06-.06c.65-.07,1.04-.19,1.17-.39h.13v-.13q.07.07.13,0v-.07h.19q0-.06.07-.13c.19-.19.32-.39.44-.65,0,0,.13-.32.33-.52v-.32c0-.06,0-.07.04-.07-.04-.11-.06-.69-.11-1.75ZM373.37,279.84c-.08-.18-.08-.44-.08-.87,0-.18,0-.44.08-.88,0-.08,0-.18-.08-.34v-3.68c-.09-1.75-.35-2.8-.96-3.15-.08-.08-.35-.18-.79-.26-1.49-.26-2.97-.35-4.46-.18,0,.09-.09.09-.27.09h-1.31c-.26,0-.7.08-1.23.17.08.44.08,1.14,0,2.01,0,.27,0,.61-.08,1.05v.35q0,.09-.09.09.09.08.09.17c.08.09.08.18,0,.44-.09,3.32-.18,5.77-.18,7.26v2.36c.18.61.18,1.32.08,2.19.09.87.09,2.19,0,3.94v1.05c.26.09.87.09,1.92.18h4.29c0-.08.44,0,1.14-.26h.26c.09,0,.18,0,.61-.26,0-.09.18-.35.26-.35v-.26c.09-.09.44-.44.7-3.59.08-1.13.08-2.36.08-3.58h-.08c-.09-.09,0-.18.08-.27.09-.61.09-1.75,0-3.41ZM402.6,318.16l-.44-3.42c-.09-.44-.27-1.05-.35-2.01v-2.71c-.09-.96-.44-1.49-1.05-1.66h-.35c0,.26-.53.44-.44.79-.09.08-.18.52-.18,1.23-.08,1.31-.18,2.45-.44,3.23.08.09.08.27,0,.53l-.79,4.03c.08.34.08.87,0,1.57l-.18.26v.35c-.26,1.93-.35,3.06-.18,3.42.53.26,1.75.26,3.77,0,.08,0,.08.08.18.18.26-.09.52-.27.87-.35.08-.79,0-2.53-.44-5.42ZM402.6,318.16l-.44-3.42c-.09-.44-.27-1.05-.35-2.01v-2.71c-.09-.96-.44-1.49-1.05-1.66h-.35c0,.26-.53.44-.44.79-.09.08-.18.52-.18,1.23-.08,1.31-.18,2.45-.44,3.23.08.09.08.27,0,.53l-.79,4.03c.08.34.08.87,0,1.57l-.18.26v.35c-.26,1.93-.35,3.06-.18,3.42.53.26,1.75.26,3.77,0,.08,0,.08.08.18.18.26-.09.52-.27.87-.35.08-.79,0-2.53-.44-5.42ZM373.37,279.84c-.08-.18-.08-.44-.08-.87,0-.18,0-.44.08-.88,0-.08,0-.18-.08-.34v-3.68c-.09-1.75-.35-2.8-.96-3.15-.08-.08-.35-.18-.79-.26-1.49-.26-2.97-.35-4.46-.18,0,.09-.09.09-.27.09h-1.31c-.26,0-.7.08-1.23.17.08.44.08,1.14,0,2.01,0,.27,0,.61-.08,1.05v.35q0,.09-.09.09.09.08.09.17c.08.09.08.18,0,.44-.09,3.32-.18,5.77-.18,7.26v2.36c.18.61.18,1.32.08,2.19.09.87.09,2.19,0,3.94v1.05c.26.09.87.09,1.92.18h4.29c0-.08.44,0,1.14-.26h.26c.09,0,.18,0,.61-.26,0-.09.18-.35.26-.35v-.26c.09-.09.44-.44.7-3.59.08-1.13.08-2.36.08-3.58h-.08c-.09-.09,0-.18.08-.27.09-.61.09-1.75,0-3.41ZM307.66,269.91l-.45-.91c-.39-.52-.96-.91-1.75-1.17-1.16-.32-3.36-.45-6.59-.39-1.42-.07-3.36-.07-5.87,0-.13.07-.2.07-.13.13-.45,0-1.23-.13-1.49-.13-.91-.07-1.61,0-2.2.13l-.9.26-.13.19c-.32.07-.77.19-1.29.39-.32.2-.45.45-.45.78,0,0-.06.07-.13.13v.59c-.07.06-.13.13-.19.13-.19,1.36-.07,2.13.32,2.39.19.19.45.32.91.26.84-.06,1.33-.12,1.42-.13,0,.07.07.07.13.13h1.03c4.72.06,9.76.06,15.25,0,.58.06,1.42-.07,2.52-.26.39-.65.39-1.49,0-2.52ZM333.18,293.7c-.19-.19-.19-.39-1.16-.96-.33-.19-1.36-.33-3.17-.39-3.03-.07-4.58-.13-4.65-.13-.29,0-.44,0-.44.02-.02-.02-.04-.02-.04-.02h-.17q-.07.07-.13.07,0-.07-.07-.07t-.07.07h-.39c-.26,0-.71,0-1.29-.07-4.65.07-11.5.13-20.54.07h-.97c-.06.07-.19.07-.25.07h-.33c-.13-.07-.19-.07-.26-.07-.13.07-.32.07-.58.07h-.58c-.26-.07-.45-.07-.65-.07-.52.07-1.68.07-4.26.13l-.07.07c-.33.07-.77.19-1.29.26-.13,0-.26.07-.39.19h-.13l-.39.39c.07,0,.07.07,0,.13l-.26.32v.26q-.06,0-.13.07l-.26.65c0,.13.07.39.13.7,0,.13.06.33.13.65,0,.07.07.19.19.45q0,.07.07.13l.58.64c.07.07.33.2.65.26v.07l.19.07c.45.13,1.49.19,3.04.25,2.9.07,5.62.07,8.14,0,.07,0,.39-.13.45-.13,0,.07.07.07.13.13.13,0,.19-.06.26-.13h.19c-.26.07.71.07,2.84.13.58-.06,1.36-.06,2.46-.13.88.06,1.28.07,1.19.12l.35-.12c.19,0,.59.07.78.13h1.75c2.26-.06,3.88-.13,4.97-.13.45,0,1.36.13,1.69.13.25,0,.77-.13.96-.13q.07.07.07.13c.06,0,.32-.13.39-.13h3.36c.71-.07,1.29-.07,1.68-.07.72.05,1.1.07,1.17.07.45,0,.39.07.71,0,.84.07,1.23,0,1.29-.07.06-.06.25-.06.65,0q.06,0,.06-.06c.65-.07,1.04-.19,1.17-.39h.13v-.13q.07.07.13,0v-.07h.19q0-.06.07-.13c.19-.19.32-.39.44-.65,0,0,.13-.32.33-.52v-.32c0-.06,0-.07.04-.07-.04-.11-.06-.69-.11-1.75ZM222.39,293.23l-.71-3.42c-.08-.78-.17-2.01-.44-3.68-.08-.17-.26-.44-.34-.78-.09-.09-.27-.18-.35-.35l-.79-2.27c-.7-1.75-.35-.71-1.14-2.98-.34-.26-.78-.61-1.49-1.92l-.7-.35v-.79l-1.14-1.05c-.34-.08-.87-.18-1.49-.44-.26-.44-1.05-.79-3.06-1.49-.44-.26-1.05-.44-1.84-.7-.26.08-.7.26-1.13.34,0-.18-.09-.26-.35-.34h-1.14c0,.26-.44.7-.34,1.05-.09,1.39-.09,3.32,0,5.68.08.44.26,1.06.34,1.84,0,.35-.34,1.05-.34,1.49.08.44.08,1.23,0,2.27-.18.44-.09.87.34,1.13.18.09.18,1.49,0,4.11,0,.61-.34,1.84-.34,2.27,0,.27.34.61.34.7.27,1.13.27,2.63.18,4.46-.18,2.19-.26,3.59-.18,4.2.27,3.15.35,4.81.35,4.9,0,.44-.35,1.75-.35,2.18,0,.35.35.53.35.79v1.14c.08,2.01.18,4.9.08,8.48-.08,3.77-.17,6.56-.08,8.4.61,0,1.14-.7,1.92-.44.44.08.35,1.58,1.06,1.49.26-.08.26-.44.17-.96-.26-.96,1.14-.7,3.24-2.01l1.14-1.14s.79-.7,2.27-2.18l1.84-3.06c.18-.09.44-.35.79-.71,0-.44.52-1.4,1.49-3.76,0-.26.08-.61.35-1.14.26-.26.34-1.05.44-2.18.08-.96.34-1.66.7-1.93v-.79c.7-5.68.79-11.11.35-16.09ZM174.88,318.07c-.08-.44-.18-.79-.34-.96v-.34c0-.79-.09-1.75-.18-2.98h-.27c.09-.08.09-.26,0-.44l-.78-1.58c-.09,0-.27-.17-.53-.17-.35.08-.52-.18-1.23,2.53,0,.08-.08.18-.18.26-.44,1.75-.52,3.68-.44,5.87,0,.7.18,1.66.61,2.79,1.4.53,2.63.35,3.59-.61.17-.87.08-2.36-.27-4.37ZM174.88,318.07c-.08-.44-.18-.79-.34-.96v-.34c0-.79-.09-1.75-.18-2.98h-.27c.09-.08.09-.26,0-.44l-.78-1.58c-.09,0-.27-.17-.53-.17-.35.08-.52-.18-1.23,2.53,0,.08-.08.18-.18.26-.44,1.75-.52,3.68-.44,5.87,0,.7.18,1.66.61,2.79,1.4.53,2.63.35,3.59-.61.17-.87.08-2.36-.27-4.37ZM222.39,293.23l-.71-3.42c-.08-.78-.17-2.01-.44-3.68-.08-.17-.26-.44-.34-.78-.09-.09-.27-.18-.35-.35l-.79-2.27c-.7-1.75-.35-.71-1.14-2.98-.34-.26-.78-.61-1.49-1.92l-.7-.35v-.79l-1.14-1.05c-.34-.08-.87-.18-1.49-.44-.26-.44-1.05-.79-3.06-1.49-.44-.26-1.05-.44-1.84-.7-.26.08-.7.26-1.13.34,0-.18-.09-.26-.35-.34h-1.14c0,.26-.44.7-.34,1.05-.09,1.39-.09,3.32,0,5.68.08.44.26,1.06.34,1.84,0,.35-.34,1.05-.34,1.49.08.44.08,1.23,0,2.27-.18.44-.09.87.34,1.13.18.09.18,1.49,0,4.11,0,.61-.34,1.84-.34,2.27,0,.27.34.61.34.7.27,1.13.27,2.63.18,4.46-.18,2.19-.26,3.59-.18,4.2.27,3.15.35,4.81.35,4.9,0,.44-.35,1.75-.35,2.18,0,.35.35.53.35.79v1.14c.08,2.01.18,4.9.08,8.48-.08,3.77-.17,6.56-.08,8.4.61,0,1.14-.7,1.92-.44.44.08.35,1.58,1.06,1.49.26-.08.26-.44.17-.96-.26-.96,1.14-.7,3.24-2.01l1.14-1.14s.79-.7,2.27-2.18l1.84-3.06c.18-.09.44-.35.79-.71,0-.44.52-1.4,1.49-3.76,0-.26.08-.61.35-1.14.26-.26.34-1.05.44-2.18.08-.96.34-1.66.7-1.93v-.79c.7-5.68.79-11.11.35-16.09ZM307.66,269.91l-.45-.91c-.39-.52-.96-.91-1.75-1.17-1.16-.32-3.36-.45-6.59-.39-1.42-.07-3.36-.07-5.87,0-.13.07-.2.07-.13.13-.45,0-1.23-.13-1.49-.13-.91-.07-1.61,0-2.2.13l-.9.26-.13.19c-.32.07-.77.19-1.29.39-.32.2-.45.45-.45.78,0,0-.06.07-.13.13v.59c-.07.06-.13.13-.19.13-.19,1.36-.07,2.13.32,2.39.19.19.45.32.91.26.84-.06,1.33-.12,1.42-.13,0,.07.07.07.13.13h1.03c4.72.06,9.76.06,15.25,0,.58.06,1.42-.07,2.52-.26.39-.65.39-1.49,0-2.52ZM333.18,293.7c-.19-.19-.19-.39-1.16-.96-.33-.19-1.36-.33-3.17-.39-3.03-.07-4.58-.13-4.65-.13-.29,0-.44,0-.44.02-.02-.02-.04-.02-.04-.02h-.17q-.07.07-.13.07t-.07-.07-.07.07h-.39c-.26,0-.71,0-1.29-.07-4.65.07-11.5.13-20.54.07h-.97c-.06.07-.19.07-.25.07h-.33c-.13-.07-.19-.07-.26-.07-.13.07-.32.07-.58.07h-.58c-.26-.07-.45-.07-.65-.07-.52.07-1.68.07-4.26.13l-.07.07c-.33.07-.77.19-1.29.26-.13,0-.26.07-.39.19h-.13l-.39.39c.07,0,.07.07,0,.13l-.26.32v.26q-.06,0-.13.07l-.26.65c0,.13.07.39.13.7,0,.13.06.33.13.65,0,.07.07.19.19.45q0,.07.07.13l.58.64c.07.07.33.2.65.26v.07l.19.07c.45.13,1.49.19,3.04.25,2.9.07,5.62.07,8.14,0,.07,0,.39-.13.45-.13,0,.07.07.07.13.13.13,0,.19-.06.26-.13h.19c-.26.07.71.07,2.84.13.58-.06,1.36-.06,2.46-.13.88.06,1.28.07,1.19.12l.35-.12c.19,0,.59.07.78.13h1.75c2.26-.06,3.88-.13,4.97-.13.45,0,1.36.13,1.69.13.25,0,.77-.13.96-.13q.07.07.07.13c.06,0,.32-.13.39-.13h3.36c.71-.07,1.29-.07,1.68-.07.72.05,1.1.07,1.17.07.45,0,.39.07.71,0,.84.07,1.23,0,1.29-.07.06-.06.25-.06.65,0q.06,0,.06-.06c.65-.07,1.04-.19,1.17-.39h.13v-.13q.07.07.13,0v-.07h.19q0-.06.07-.13c.19-.19.32-.39.44-.65,0,0,.13-.32.33-.52v-.32c0-.06,0-.07.04-.07-.04-.11-.06-.69-.11-1.75ZM373.37,279.84c-.08-.18-.08-.44-.08-.87,0-.18,0-.44.08-.88,0-.08,0-.18-.08-.34v-3.68c-.09-1.75-.35-2.8-.96-3.15-.08-.08-.35-.18-.79-.26-1.49-.26-2.97-.35-4.46-.18,0,.09-.09.09-.27.09h-1.31c-.26,0-.7.08-1.23.17.08.44.08,1.14,0,2.01,0,.27,0,.61-.08,1.05v.35q0,.09-.09.09.09.08.09.17c.08.09.08.18,0,.44-.09,3.32-.18,5.77-.18,7.26v2.36c.18.61.18,1.32.08,2.19.09.87.09,2.19,0,3.94v1.05c.26.09.87.09,1.92.18h4.29c0-.08.44,0,1.14-.26h.26c.09,0,.18,0,.61-.26,0-.09.18-.35.26-.35v-.26c.09-.09.44-.44.7-3.59.08-1.13.08-2.36.08-3.58h-.08c-.09-.09,0-.18.08-.27.09-.61.09-1.75,0-3.41ZM402.6,318.16l-.44-3.42c-.09-.44-.27-1.05-.35-2.01v-2.71c-.09-.96-.44-1.49-1.05-1.66h-.35c0,.26-.53.44-.44.79-.09.08-.18.52-.18,1.23-.08,1.31-.18,2.45-.44,3.23.08.09.08.27,0,.53l-.79,4.03c.08.34.08.87,0,1.57l-.18.26v.35c-.26,1.93-.35,3.06-.18,3.42.53.26,1.75.26,3.77,0,.08,0,.08.08.18.18.26-.09.52-.27.87-.35.08-.79,0-2.53-.44-5.42ZM402.6,318.16l-.44-3.42c-.09-.44-.27-1.05-.35-2.01v-2.71c-.09-.96-.44-1.49-1.05-1.66h-.35c0,.26-.53.44-.44.79-.09.08-.18.52-.18,1.23-.08,1.31-.18,2.45-.44,3.23.08.09.08.27,0,.53l-.79,4.03c.08.34.08.87,0,1.57l-.18.26v.35c-.26,1.93-.35,3.06-.18,3.42.53.26,1.75.26,3.77,0,.08,0,.08.08.18.18.26-.09.52-.27.87-.35.08-.79,0-2.53-.44-5.42ZM373.37,279.84c-.08-.18-.08-.44-.08-.87,0-.18,0-.44.08-.88,0-.08,0-.18-.08-.34v-3.68c-.09-1.75-.35-2.8-.96-3.15-.08-.08-.35-.18-.79-.26-1.49-.26-2.97-.35-4.46-.18,0,.09-.09.09-.27.09h-1.31c-.26,0-.7.08-1.23.17.08.44.08,1.14,0,2.01,0,.27,0,.61-.08,1.05v.35q0,.09-.09.09.09.08.09.17c.08.09.08.18,0,.44-.09,3.32-.18,5.77-.18,7.26v2.36c.18.61.18,1.32.08,2.19.09.87.09,2.19,0,3.94v1.05c.26.09.87.09,1.92.18h4.29c0-.08.44,0,1.14-.26h.26c.09,0,.18,0,.61-.26,0-.09.18-.35.26-.35v-.26c.09-.09.44-.44.7-3.59.08-1.13.08-2.36.08-3.58h-.08c-.09-.09,0-.18.08-.27.09-.61.09-1.75,0-3.41ZM307.66,269.91l-.45-.91c-.39-.52-.96-.91-1.75-1.17-1.16-.32-3.36-.45-6.59-.39-1.42-.07-3.36-.07-5.87,0-.13.07-.2.07-.13.13-.45,0-1.23-.13-1.49-.13-.91-.07-1.61,0-2.2.13l-.9.26-.13.19c-.32.07-.77.19-1.29.39-.32.2-.45.45-.45.78,0,0-.06.07-.13.13v.59c-.07.06-.13.13-.19.13-.19,1.36-.07,2.13.32,2.39.19.19.45.32.91.26.84-.06,1.33-.12,1.42-.13,0,.07.07.07.13.13h1.03c4.72.06,9.76.06,15.25,0,.58.06,1.42-.07,2.52-.26.39-.65.39-1.49,0-2.52ZM333.18,293.7c-.19-.19-.19-.39-1.16-.96-.33-.19-1.36-.33-3.17-.39-3.03-.07-4.58-.13-4.65-.13-.29,0-.44,0-.44.02-.02-.02-.04-.02-.04-.02h-.17q-.07.07-.13.07,0-.07-.07-.07-.07,0-.07.07h-.39c-.26,0-.71,0-1.29-.07-4.65.07-11.5.13-20.54.07h-.97c-.06.07-.19.07-.25.07h-.33c-.13-.07-.19-.07-.26-.07-.13.07-.32.07-.58.07h-.58c-.26-.07-.45-.07-.65-.07-.52.07-1.68.07-4.26.13l-.07.07c-.33.07-.77.19-1.29.26-.13,0-.26.07-.39.19h-.13l-.39.39c.07,0,.07.07,0,.13l-.26.32v.26q-.06,0-.13.07l-.26.65c0,.13.07.39.13.7,0,.13.06.33.13.65,0,.07.07.19.19.45q0,.07.07.13l.58.64c.07.07.33.2.65.26v.07l.19.07c.45.13,1.49.19,3.04.25,2.9.07,5.62.07,8.14,0,.07,0,.39-.13.45-.13,0,.07.07.07.13.13.13,0,.19-.06.26-.13h.19c-.26.07.71.07,2.84.13.58-.06,1.36-.06,2.46-.13.88.06,1.28.07,1.19.12l.35-.12c.19,0,.59.07.78.13h1.75c2.26-.06,3.88-.13,4.97-.13.45,0,1.36.13,1.69.13.25,0,.77-.13.96-.13q.07.07.07.13c.06,0,.32-.13.39-.13h3.36c.71-.07,1.29-.07,1.68-.07.72.05,1.1.07,1.17.07.45,0,.39.07.71,0,.84.07,1.23,0,1.29-.07.06-.06.25-.06.65,0q.06,0,.06-.06c.65-.07,1.04-.19,1.17-.39h.13v-.13q.07.07.13,0v-.07h.19q0-.06.07-.13c.19-.19.32-.39.44-.65,0,0,.13-.32.33-.52v-.32c0-.06,0-.07.04-.07-.04-.11-.06-.69-.11-1.75ZM222.39,293.23l-.71-3.42c-.08-.78-.17-2.01-.44-3.68-.08-.17-.26-.44-.34-.78-.09-.09-.27-.18-.35-.35l-.79-2.27c-.7-1.75-.35-.71-1.14-2.98-.34-.26-.78-.61-1.49-1.92l-.7-.35v-.79l-1.14-1.05c-.34-.08-.87-.18-1.49-.44-.26-.44-1.05-.79-3.06-1.49-.44-.26-1.05-.44-1.84-.7-.26.08-.7.26-1.13.34,0-.18-.09-.26-.35-.34h-1.14c0,.26-.44.7-.34,1.05-.09,1.39-.09,3.32,0,5.68.08.44.26,1.06.34,1.84,0,.35-.34,1.05-.34,1.49.08.44.08,1.23,0,2.27-.18.44-.09.87.34,1.13.18.09.18,1.49,0,4.11,0,.61-.34,1.84-.34,2.27,0,.27.34.61.34.7.27,1.13.27,2.63.18,4.46-.18,2.19-.26,3.59-.18,4.2.27,3.15.35,4.81.35,4.9,0,.44-.35,1.75-.35,2.18,0,.35.35.53.35.79v1.14c.08,2.01.18,4.9.08,8.48-.08,3.77-.17,6.56-.08,8.4.61,0,1.14-.7,1.92-.44.44.08.35,1.58,1.06,1.49.26-.08.26-.44.17-.96-.26-.96,1.14-.7,3.24-2.01l1.14-1.14s.79-.7,2.27-2.18l1.84-3.06c.18-.09.44-.35.79-.71,0-.44.52-1.4,1.49-3.76,0-.26.08-.61.35-1.14.26-.26.34-1.05.44-2.18.08-.96.34-1.66.7-1.93v-.79c.7-5.68.79-11.11.35-16.09ZM174.88,318.07c-.08-.44-.18-.79-.34-.96v-.34c0-.79-.09-1.75-.18-2.98h-.27c.09-.08.09-.26,0-.44l-.78-1.58c-.09,0-.27-.17-.53-.17-.35.08-.52-.18-1.23,2.53,0,.08-.08.18-.18.26-.44,1.75-.52,3.68-.44,5.87,0,.7.18,1.66.61,2.79,1.4.53,2.63.35,3.59-.61.17-.87.08-2.36-.27-4.37ZM174.88,318.07c-.08-.44-.18-.79-.34-.96v-.34c0-.79-.09-1.75-.18-2.98h-.27c.09-.08.09-.26,0-.44l-.78-1.58c-.09,0-.27-.17-.53-.17-.35.08-.52-.18-1.23,2.53,0,.08-.08.18-.18.26-.44,1.75-.52,3.68-.44,5.87,0,.7.18,1.66.61,2.79,1.4.53,2.63.35,3.59-.61.17-.87.08-2.36-.27-4.37ZM222.39,293.23l-.71-3.42c-.08-.78-.17-2.01-.44-3.68-.08-.17-.26-.44-.34-.78-.09-.09-.27-.18-.35-.35l-.79-2.27c-.7-1.75-.35-.71-1.14-2.98-.34-.26-.78-.61-1.49-1.92l-.7-.35v-.79l-1.14-1.05c-.34-.08-.87-.18-1.49-.44-.26-.44-1.05-.79-3.06-1.49-.44-.26-1.05-.44-1.84-.7-.26.08-.7.26-1.13.34,0-.18-.09-.26-.35-.34h-1.14c0,.26-.44.7-.34,1.05-.09,1.39-.09,3.32,0,5.68.08.44.26,1.06.34,1.84,0,.35-.34,1.05-.34,1.49.08.44.08,1.23,0,2.27-.18.44-.09.87.34,1.13.18.09.18,1.49,0,4.11,0,.61-.34,1.84-.34,2.27,0,.27.34.61.34.7.27,1.13.27,2.63.18,4.46-.18,2.19-.26,3.59-.18,4.2.27,3.15.35,4.81.35,4.9,0,.44-.35,1.75-.35,2.18,0,.35.35.53.35.79v1.14c.08,2.01.18,4.9.08,8.48-.08,3.77-.17,6.56-.08,8.4.61,0,1.14-.7,1.92-.44.44.08.35,1.58,1.06,1.49.26-.08.26-.44.17-.96-.26-.96,1.14-.7,3.24-2.01l1.14-1.14s.79-.7,2.27-2.18l1.84-3.06c.18-.09.44-.35.79-.71,0-.44.52-1.4,1.49-3.76,0-.26.08-.61.35-1.14.26-.26.34-1.05.44-2.18.08-.96.34-1.66.7-1.93v-.79c.7-5.68.79-11.11.35-16.09ZM307.66,269.91l-.45-.91c-.39-.52-.96-.91-1.75-1.17-1.16-.32-3.36-.45-6.59-.39-1.42-.07-3.36-.07-5.87,0-.13.07-.2.07-.13.13-.45,0-1.23-.13-1.49-.13-.91-.07-1.61,0-2.2.13l-.9.26-.13.19c-.32.07-.77.19-1.29.39-.32.2-.45.45-.45.78,0,0-.06.07-.13.13v.59c-.07.06-.13.13-.19.13-.19,1.36-.07,2.13.32,2.39.19.19.45.32.91.26.84-.06,1.33-.12,1.42-.13,0,.07.07.07.13.13h1.03c4.72.06,9.76.06,15.25,0,.58.06,1.42-.07,2.52-.26.39-.65.39-1.49,0-2.52ZM333.18,293.7c-.19-.19-.19-.39-1.16-.96-.33-.19-1.36-.33-3.17-.39-3.03-.07-4.58-.13-4.65-.13-.29,0-.44,0-.44.02-.02-.02-.04-.02-.04-.02h-.17q-.07.07-.13.07,0-.07-.07-.07-.07,0-.07.07h-.39c-.26,0-.71,0-1.29-.07-4.65.07-11.5.13-20.54.07h-.97c-.06.07-.19.07-.25.07h-.33c-.13-.07-.19-.07-.26-.07-.13.07-.32.07-.58.07h-.58c-.26-.07-.45-.07-.65-.07-.52.07-1.68.07-4.26.13l-.07.07c-.33.07-.77.19-1.29.26-.13,0-.26.07-.39.19h-.13l-.39.39c.07,0,.07.07,0,.13l-.26.32v.26q-.06,0-.13.07l-.26.65c0,.13.07.39.13.7,0,.13.06.33.13.65,0,.07.07.19.19.45q0,.07.07.13l.58.64c.07.07.33.2.65.26v.07l.19.07c.45.13,1.49.19,3.04.25,2.9.07,5.62.07,8.14,0,.07,0,.39-.13.45-.13,0,.07.07.07.13.13.13,0,.19-.06.26-.13h.19c-.26.07.71.07,2.84.13.58-.06,1.36-.06,2.46-.13.88.06,1.28.07,1.19.12l.35-.12c.19,0,.59.07.78.13h1.75c2.26-.06,3.88-.13,4.97-.13.45,0,1.36.13,1.69.13.25,0,.77-.13.96-.13q.07.07.07.13c.06,0,.32-.13.39-.13h3.36c.71-.07,1.29-.07,1.68-.07.72.05,1.1.07,1.17.07.45,0,.39.07.71,0,.84.07,1.23,0,1.29-.07.06-.06.25-.06.65,0q.06,0,.06-.06c.65-.07,1.04-.19,1.17-.39h.13v-.13q.07.07.13,0v-.07h.19q0-.06.07-.13c.19-.19.32-.39.44-.65,0,0,.13-.32.33-.52v-.32c0-.06,0-.07.04-.07-.04-.11-.06-.69-.11-1.75ZM373.37,279.84c-.08-.18-.08-.44-.08-.87,0-.18,0-.44.08-.88,0-.08,0-.18-.08-.34v-3.68c-.09-1.75-.35-2.8-.96-3.15-.08-.08-.35-.18-.79-.26-1.49-.26-2.97-.35-4.46-.18,0,.09-.09.09-.27.09h-1.31c-.26,0-.7.08-1.23.17.08.44.08,1.14,0,2.01,0,.27,0,.61-.08,1.05v.35q0,.09-.09.09.09.08.09.17c.08.09.08.18,0,.44-.09,3.32-.18,5.77-.18,7.26v2.36c.18.61.18,1.32.08,2.19.09.87.09,2.19,0,3.94v1.05c.26.09.87.09,1.92.18h4.29c0-.08.44,0,1.14-.26h.26c.09,0,.18,0,.61-.26,0-.09.18-.35.26-.35v-.26c.09-.09.44-.44.7-3.59.08-1.13.08-2.36.08-3.58h-.08c-.09-.09,0-.18.08-.27.09-.61.09-1.75,0-3.41ZM402.6,318.16l-.44-3.42c-.09-.44-.27-1.05-.35-2.01v-2.71c-.09-.96-.44-1.49-1.05-1.66h-.35c0,.26-.53.44-.44.79-.09.08-.18.52-.18,1.23-.08,1.31-.18,2.45-.44,3.23.08.09.08.27,0,.53l-.79,4.03c.08.34.08.87,0,1.57l-.18.26v.35c-.26,1.93-.35,3.06-.18,3.42.53.26,1.75.26,3.77,0,.08,0,.08.08.18.18.26-.09.52-.27.87-.35.08-.79,0-2.53-.44-5.42ZM402.6,318.16l-.44-3.42c-.09-.44-.27-1.05-.35-2.01v-2.71c-.09-.96-.44-1.49-1.05-1.66h-.35c0,.26-.53.44-.44.79-.09.08-.18.52-.18,1.23-.08,1.31-.18,2.45-.44,3.23.08.09.08.27,0,.53l-.79,4.03c.08.34.08.87,0,1.57l-.18.26v.35c-.26,1.93-.35,3.06-.18,3.42.53.26,1.75.26,3.77,0,.08,0,.08.08.18.18.26-.09.52-.27.87-.35.08-.79,0-2.53-.44-5.42ZM373.29,278.97c0-.18,0-.44.08-.88,0-.08,0-.18-.08-.34v-3.68c-.09-1.75-.35-2.8-.96-3.15-.08-.08-.35-.18-.79-.26-1.49-.26-2.97-.35-4.46-.18,0,.09-.09.09-.27.09h-1.31c-.26,0-.7.08-1.23.17.08.44.08,1.14,0,2.01,0,.27,0,.61-.08,1.05v.35q0,.09-.09.09.09.08.09.17c.08.09.08.18,0,.44-.09,3.32-.18,5.77-.18,7.26v2.36c.18.61.18,1.32.08,2.19.09.87.09,2.19,0,3.94v1.05c.26.09.87.09,1.92.18h4.29c0-.08.44,0,1.14-.26h.26c.09,0,.18,0,.61-.26,0-.09.18-.35.26-.35v-.26c.09-.09.44-.44.7-3.59.08-1.13.08-2.36.08-3.58h-.08c-.09-.09,0-.18.08-.27.09-.61.09-1.75,0-3.41-.08-.18-.08-.44-.08-.87ZM307.66,269.91l-.45-.91c-.39-.52-.96-.91-1.75-1.17-1.16-.32-3.36-.45-6.59-.39-1.42-.07-3.36-.07-5.87,0-.13.07-.2.07-.13.13-.45,0-1.23-.13-1.49-.13-.91-.07-1.61,0-2.2.13l-.9.26-.13.19c-.32.07-.77.19-1.29.39-.32.2-.45.45-.45.78,0,0-.06.07-.13.13v.59c-.07.06-.13.13-.19.13-.19,1.36-.07,2.13.32,2.39.19.19.45.32.91.26.84-.06,1.33-.12,1.42-.13,0,.07.07.07.13.13h1.03c4.72.06,9.76.06,15.25,0,.58.06,1.42-.07,2.52-.26.39-.65.39-1.49,0-2.52ZM333.18,293.7c-.19-.19-.19-.39-1.16-.96-.33-.19-1.36-.33-3.17-.39-3.03-.07-4.58-.13-4.65-.13-.29,0-.44,0-.44.02-.02-.02-.04-.02-.04-.02h-.17q-.07.07-.13.07,0-.07-.07-.07-.07,0-.07.07h-.39c-.26,0-.71,0-1.29-.07-4.65.07-11.5.13-20.54.07h-.97c-.06.07-.19.07-.25.07h-.33c-.13-.07-.19-.07-.26-.07-.13.07-.32.07-.58.07h-.58c-.26-.07-.45-.07-.65-.07-.52.07-1.68.07-4.26.13l-.07.07c-.33.07-.77.19-1.29.26-.13,0-.26.07-.39.19h-.13l-.39.39c.07,0,.07.07,0,.13l-.26.32v.26q-.06,0-.13.07l-.26.65c0,.13.07.39.13.7,0,.13.06.33.13.65,0,.07.07.19.19.45q0,.07.07.13l.58.64c.07.07.33.2.65.26v.07l.19.07c.45.13,1.49.19,3.04.25,2.9.07,5.62.07,8.14,0,.07,0,.39-.13.45-.13,0,.07.07.07.13.13.13,0,.19-.06.26-.13h.19c-.26.07.71.07,2.84.13.58-.06,1.36-.06,2.46-.13.88.06,1.28.07,1.19.12l.35-.12c.19,0,.59.07.78.13h1.75c2.26-.06,3.88-.13,4.97-.13.45,0,1.36.13,1.69.13.25,0,.77-.13.96-.13q.07.07.07.13c.06,0,.32-.13.39-.13h3.36c.71-.07,1.29-.07,1.68-.07.72.05,1.1.07,1.17.07.45,0,.39.07.71,0,.84.07,1.23,0,1.29-.07.06-.06.25-.06.65,0q.06,0,.06-.06c.65-.07,1.04-.19,1.17-.39h.13v-.13q.07.07.13,0v-.07h.19q0-.06.07-.13c.19-.19.32-.39.44-.65,0,0,.13-.32.33-.52v-.32c0-.06,0-.07.04-.07-.04-.11-.06-.69-.11-1.75ZM222.39,293.23l-.71-3.42c-.08-.78-.17-2.01-.44-3.68-.08-.17-.26-.44-.34-.78-.09-.09-.27-.18-.35-.35l-.79-2.27c-.7-1.75-.35-.71-1.14-2.98-.34-.26-.78-.61-1.49-1.92l-.7-.35v-.79l-1.14-1.05c-.34-.08-.87-.18-1.49-.44-.26-.44-1.05-.79-3.06-1.49-.44-.26-1.05-.44-1.84-.7-.26.08-.7.26-1.13.34,0-.18-.09-.26-.35-.34h-1.14c0,.26-.44.7-.34,1.05-.09,1.39-.09,3.32,0,5.68.08.44.26,1.06.34,1.84,0,.35-.34,1.05-.34,1.49.08.44.08,1.23,0,2.27-.18.44-.09.87.34,1.13.18.09.18,1.49,0,4.11,0,.61-.34,1.84-.34,2.27,0,.27.34.61.34.7.27,1.13.27,2.63.18,4.46-.18,2.19-.26,3.59-.18,4.2.27,3.15.35,4.81.35,4.9,0,.44-.35,1.75-.35,2.18,0,.35.35.53.35.79v1.14c.08,2.01.18,4.9.08,8.48-.08,3.77-.17,6.56-.08,8.4.61,0,1.14-.7,1.92-.44.44.08.35,1.58,1.06,1.49.26-.08.26-.44.17-.96-.26-.96,1.14-.7,3.24-2.01l1.14-1.14s.79-.7,2.27-2.18l1.84-3.06c.18-.09.44-.35.79-.71,0-.44.52-1.4,1.49-3.76,0-.26.08-.61.35-1.14.26-.26.34-1.05.44-2.18.08-.96.34-1.66.7-1.93v-.79c.7-5.68.79-11.11.35-16.09ZM174.88,318.07c-.08-.44-.18-.79-.34-.96v-.34c0-.79-.09-1.75-.18-2.98h-.27c.09-.08.09-.26,0-.44l-.78-1.58c-.09,0-.27-.17-.53-.17-.35.08-.52-.18-1.23,2.53,0,.08-.08.18-.18.26-.44,1.75-.52,3.68-.44,5.87,0,.7.18,1.66.61,2.79,1.4.53,2.63.35,3.59-.61.17-.87.08-2.36-.27-4.37ZM503.21,213.82H96.79c-11.03,26.24-17.13,55.07-17.13,85.32s6.1,59.08,17.14,85.33h406.39c11.03-26.25,17.14-55.08,17.14-85.33s-6.1-59.08-17.13-85.32ZM300,226.14c3.92,0,7.1,3.18,7.1,7.1s-3.18,7.1-7.1,7.1-7.1-3.18-7.1-7.1,3.18-7.1,7.1-7.1ZM110.07,226.14c3.93,0,7.11,3.18,7.11,7.1s-3.18,7.1-7.11,7.1-7.1-3.18-7.1-7.1,3.18-7.1,7.1-7.1ZM110.07,371.93c-3.92,0-7.1-3.18-7.1-7.1s3.18-7.1,7.1-7.1,7.11,3.18,7.11,7.1-3.18,7.1-7.11,7.1ZM159.74,309.06c-.08.09-.08.96-.08,2.8v11.29q-.08,0-.08.08v.35c.07.97.08,1.5.08,1.58-.08,2.1-.08,3.07-.08,3.07,0,.08,0,.17.08.34.08,1.49.08,2.98,0,4.29-.08.26-.08.44-.08.44,0,.09,0,.18.08.27v3.5c0,.17,0,.44-.08.78v.88c0,1.93,0,3.02.03,3.26.02-.05.03-.09.06-.12-.02.17-.04.21-.06.13-.03.13-.05.34-.12.57l-.44.7c-.44.08-1.58.08-3.42.08h-9.97v-1.92c-.09-2.37-.09-5.6,0-9.89.08-.79.18-1.23.18-1.49q-.09,0-.18-.08c.18-.08.26-.35.18-.61-.09-.18-.18-.87-.18-2.1,0-.61.08-2.71.18-6.13.08-2.53.08-4.55,0-6.21-.09-.09-.09-.27-.18-.53v-.44l.18-.87c-.09-.44-.09-1.14-.18-2.01.08-.87.08-2.53.18-4.98.08-2.01.08-3.68.08-4.99v-1.57c0-.35-.08-.88-.26-1.49-.26,0-.61.61-.7,2.98v.53c-.44,1.13-.26,1.75-1.49,7.87l-.26,2.01c-.08.08-.08.26-.18.52-.18.96-.44,2.45-.7,4.38v.17c-.09.09-.09.27-.09.53v.18c-.08.08-.08.26-.08.52v.18l-.44,1.58v.52c-.35,2.01-.7,3.94-1.14,5.87,0,.26-.08.79-.18,1.49-.08.09-.18.18-.26.44,0,.44-.08,1.06-.26,2.01l-.09.09v.34c0,.09,0,.27-.08.53v.18c-.09.18-.09.44-.18.79l-1.23,6.56c0,.17-.08.52-.18.96v.27l-.26,1.23c-.09.26-.18.7-.26,1.49l-.35,1.13c-.26.09-1.05.09-2.53.09-1.32,0-2.11,0-2.37-.09-.87-4.46-2.1-11.11-3.68-20.03-.08-.44-.08-1.05-.18-1.84-.08,0-.18-.18-.26-.79l-.08-.09v-.26l-.35-2.1-.26-1.66c0-.26-.09-.71-.18-1.14,0-.26-.09-.52-.18-.96v-.18c-.09-.27-.18-.61-.26-1.58v-.18h-.09c-.08-.79-.35-1.92-.61-3.5l-.08-.08c0-.27,0-.7-.09-1.32v-.26c-.08,0-.18-.7-.34-2.1q-.09-.09,0-.18h-.18c-.09-.79-.18-1.92-.44-3.5-.09-.53-.18-1.31-.44-2.37,0,0,0-.17-.35-.78-.35,0-.26.87-.35.96-.08,0,0,.09.09.35-.09,2.19,0,5.42.08,9.53.08,4.38.18,7.53.18,9.54,0,.44,0,1.31.08,2.53v3.5c-.08.35-.08.61-.08.79,0,.26,0,.7.08,1.14v14.53c0,1.13,0,1.83-.08,2.1h-2.98c-.08,0-.26,0-.44.08-.26-.08-.61-.08-1.05-.08-.08,0-.18,0-.35.08-1.75.09-3.15.09-4.11,0h-.61c-1.05.09-1.92,0-2.62-.18-.09-.18-.09-.7-.09-1.57v-7.88c0-.08-.18-.52-.18-.61,0-.08.18-.61.18-.7,0-1.05-.18-3.68-.18-4.64v-7.69c-.08-3.42-.08-6.04-.08-7.79v-4.2q0-.08-.09-.08c.07-.19.08-.29.09-.29v-.76c-.09-1.49-.09-3.06,0-4.55,0-.14-.02-.86-.09-2.19-.08-2.71-.08-4.72,0-6.21.09-.35.09-.88.18-1.58v-.7l-.08-.09c.08-.18.08-.26,0-.26,0-.08,0-.87-.09-2.37l-.08-.08v-.35q.08,0,.08-.08c.09-.61.09-1.4,0-2.45-.08-1.31-.08-2.19-.08-2.63v-18.98c0-.18,0-.53-.08-1.14v-1.4c.08-.34.08-.52.08-.52,0,0,0-.09-.08-.18.08-1.34.08-1.99.08-1.99v-1.25c0-.08,0-.26-.08-.52v-.53c0-.44.08-.7.17-.96h1.49c.08,0,.34,0,.7-.08,1.32-.09,2.63-.09,3.94,0,.35.08.88.08,1.58.18h2.45c1.29.05,2.07.08,2.36.08h.04c.34,0,.76-.09,1.18-.26h2.63c1.32,0,2.1,0,2.37.08l.34,1.4v.26c.09.27.09.61.18,1.14q.09,0,.09.08v.44c.08,0,.18.09.26.88v.26c0,.26.08.61.18,1.14l.08.08v.35s.18.18.27,1.31c.26,1.31.52,3.15.87,5.69q.08.08.08.18v.87c.09,0,.09.08.09.18v.26l.44,1.84v.26c0,.09,0,.27.08.44v.18c.09.09.09.18.09.27v.26c.08,0,.08.35.17.96l.35,1.92.09.08c0,.35.08,1.23.34,2.72,0,.17,0,.52.09.96.08,0,.18.18.18.87q.08,0,.17.09c-.08.18-.08.44,0,.87,0,0,.09.09.18.71v.17l.27,1.93q.08,0,.08.08v.09c.08.08.18.26.44.44.09-.09.26-.44.35-1.23,0-.18,0-.53.08-1.05l.35-1.66c-.08-.09-.08-.18,0-.35,0-.26.08-.87.35-1.75,0-.26,0-.61.08-1.05q0-.08.08-.08c0-.26,0-.71.09-1.32q.08,0,.08-.08l.27-1.49c0-.7.26-1.49.44-3.24q.08,0,.08-.08v-.35q.09-.09.09-.18l.52-3.32.26-1.32v-.34c.09-.18.09-.53.18-.96l.27-.97q-.09-.08,0-.18c0-.26,0-.6.08-1.05v-.34l.08-.09q0-.08-.08-.08l.61-2.63.18-.96.08-.08c0-.26,0-.53.09-.79,0-.08,0-.35.52-2.63h1.14c1.92-.08,6.21-.08,12.95-.08h2.36c.18,0,.44.08.88.26.18.09.34.09.44.18.08,0,.26.18.44.53.26.34.35,3.5.35,9.36v22.75c.08.08.08.26.08.35,0,0,0,.08-.08.18v.87c.08.26.08.44.08.52-.08.27-.08.7-.08,1.23v1.49c.08.08.08.26.08.34q-.08,0-.08.09c-.08.97-.09,1.43-.09,1.43,0,.34.09.86.18,1.45.08,1.13.08,2.27,0,3.41,0,.09,0,.18-.08.27v.26c0,.08,0,.18.08.35.08.79.08,2.45,0,4.98-.08,1.05-.08,1.84,0,2.36l.08.09v.26ZM186.78,342.74l-1.84.44-1.92-.26-1.4.26c-1.31.09-2.71-.08-4.11-.44-.18-.26-.26-.61-.26-1.23.08-.7.08-1.13,0-1.31,0-.08-.09-.44-.18-1.05v-.35c-.26-.7-.35-2.45-.44-3.94-.09-1.05-.35-1.66-.96-1.84-.44.08-1.23,0-2.36-.18-1.32-.26-2.37-.18-3.15.26-.18.27-.34,1.58-.52,3.94l-.27,1.13c0,1.84,0,4.03-.96,4.98-.09.09-.35.09-.79.18-.35,0-1.14-.18-1.75-.18-.08-.17-.08-.26-.17-.26-.09.09,0,.18-2.45.53-.96.08-1.84.18-2.54.08-.18-.26-.18-.52-.08-.96.08-.61.18-.96.08-1.22-.08-.09-.34-.88-.79-2.37-.08-.08-.08-.35-.17-.79,0-.44.34-2.53.44-3.15-.09-.26-.09-.53,0-.97,0-.44.26-3.06.79-8.05.08-.44.08-1.14.17-2.01,0-.44.09-2.19.35-5.34l.26-1.92c-.08-.18-.08-.35,0-.61.09-.27.18-2.45.35-6.74.09-.18.09-.53.18-.96-.08-.61-.08-1.23,0-1.92.26-.26.35-.53.44-.79,0-1.66.08-4.11.35-7.35.08,0,.18-.08.26-.18-.08-.18-.08-.44,0-.79.08-.96.26-2.53.35-4.72v-1.22l.44-2.54c-.09-.44-.09-1.23,0-2.19.08,0,.08-.08.18-.17l.34-5.69.27-.18.34-5.16c0-.87.09-2.1.18-3.76.09,0,.18-.09.27-.18-.09-.35-.09-.88,0-1.58.08-.35.26-.87.34-1.58-.08-.61-.08-1.49,0-2.79l.79-7.09c0-.96,0-2.1.79-2.53.7-.18,1.92-.26,3.58-.18,2.28.08,3.68.18,4.11.18,1.23-.09,1.84-.09,1.93,0,.18.61.44,3.06.79,7.26.08.35.18,1.48.44,3.59.08,0,.08.08.18.18v.96c.08.09.08.35.17.61l.44,4.38c.08.08.08.26.17.52-.08.96-.08,1.49,0,1.58h.18l.44,5.16c.09.79.35,1.92.61,3.58.09.44.09.7.18.79-.08,0-.08.18,0,.53,0,.61.09,1.31.18,2.18.09.53.18,1.32.44,2.37v.96c.27,2.45.53,4.2.96,8.48.08,1.23.26,2.98.61,5.16v.96c.18,1.84.35,3.24.61,4.37-.08.26-.08.44,0,.35-.08.26,0,.7.18,1.23h.18c.08.52.08,1.31.18,2.36l.78,7.44.44,2.18.35,5.16.71,5.34c.26,2.19.34,4.2.34,5.87l-.26.18.26.79c.09,1.31.09,2.1,0,2.18ZM187.56,299.61h-.79v-.79h.79v.79ZM270.94,343.36c-.61,0-1.57,0-2.89.09-.08,0-.26,0-.44.08h-.44c-.08,0-.18,0-.26-.08h-7.61c-.44,0-1.05,0-1.84-.09h-15.75c-.44,0-.96-.08-1.75-.18-.09-.61-.09-2.01-.09-4.37v-12.69q-.08-.08-.08-.18.08,0,.08-.08v-1.49c-.18-.26-.18-.44-.08-.53h.08v-.61c-.04-.29-.06-.48-.07-.57,0,.02,0,.03-.02.05,0-.14,0-.16.02-.05.07-.18.07-.52.07-.91.09-3.42.09-6.3,0-8.66-.07-1.2-.08-1.9-.08-2.1,0-.27,0-.61.08-1.06v-1.84c-.08-.44-.08-.7-.08-.78.18-1.97.18-4.86,0-8.58.02,2.01-.03,3.94-.18,5.77-.09.44-.27,1.05-.35,1.84.08.08.26.18.35.35-.09.08-.27.18-.35.44.18,1.84.18,2.79,0,2.97h-.35c-.08.96-.18,2.27-.44,4.11l-1.05,3.77c-.26.44-.52,1.05-.79,1.84l-.34,1.92-.79.7c.08.27.08.71,0,1.14.18,0-1.14,1.05-1.14,1.92-.26.27-.44.7-.7,1.49,0,.08-.53.87-1.49,2.18-.27.27-.53.7-.79,1.14,0,.26-.79,1.13-2.27,2.63-.44.52-1.23,1.31-2.19,2.27l-2.63,1.84-1.92,1.57c-.09.09-1.75.71-4.9,1.84l-.7.79c-.53,0-1.4.09-2.63.35-.09.08-.18.26-.35.34h-.79c-4.63,1.06-9.71,1.58-15.31,1.58-3.68,0-6.83-.26-9.45-.79-.09-3.15-.09-7.87,0-14.26v-.79c.08-.35.26-.44.34-.35,0-.26-.34-.44-.34-.79v-5.24c-.09-.18-.09-.35-.09-.44,0-.79,1.75-.71,2.01-1.05,0-.79-1.92-1.05-1.92-1.84v-4.9c.26-.09.34-.18.34-.35-.26-.26-.34-.52-.26-.96.18-.7.26-1.13.26-1.31,0-.44-.34-1.05-.34-1.49.44-.53.61-.88.34-1.14.09-.08.09-.52,0-1.13,0-.09-.34-.88-.34-1.49.08-.26.26-.78.34-1.49-.08-.26-.26-.79-.34-1.49.17,0,.26-.08.34-.35.27-.87.27-1.4,0-1.57-.18-.09-.26-.18-.26-.27,0,0,.44-.26.44-.7,0-.26-.18-.97-.52-.87.17-.27.26-.79.34-1.49-.18,0-.26-.08-.34-.34-.09-.44,0-1.05.08-1.93.18-1.23.26-2.01.26-2.27.09-1.66.09-2.53,0-2.63-.18-.08-.26-.17-.26-.26,0,0,.44-.26.44-.7,0-.27-.18-.79-.52-.88.17-.08.26-.34.34-.78,0,0-.34,0-.34-.35.08-.44.26-1.49.34-2.98.09-1.66.09-2.79,0-3.41,0-.09-.34-.44-.34-.71,0,0,.44-.08.34-.44,0-.34-.34-.79-.34-1.05,0-.7.34-2.01.34-2.63-.08-4.11-.08-10.41,0-18.81,1.66-.44,3.24-.61,4.9-.7.35,0,.35.35.35.35.61-.26,1.66-.35,3.06-.35.08.09.34.27.7.35.44-.08,1.23-.26,2.27-.35l.35.35c.96.26,2.53.35,4.55.26,2.01-.08,3.5-.08,4.46.09.52.08,1.13.18,1.92.44.18.26.53.61,1.05,1.05.61.35,1.14-.7,1.14-.7.44-.09,1.23.34,1.49.34l1.93.35c.6.26,1.66.7,2.97,1.13.35.09.87.18,1.49.44.44.34,1.14.7,1.93,1.05.7.08,2.1,1.05,4.11,3.06.08.08.79.87,1.13.7.61.61,1.32,1.58,2.19,3.06.26-.08.52.35,1.58,1.49,0,.26.08.79.34,1.49.27,0,.53.44,1.14,1.49,0,.52.52,1.49,1.49,2.97.35.44.18.7,1.49,3.77l.79,1.13c.53,1.49,1.05,3.68,1.49,6.39l.35,3.77c.08,0,.26.08.35.34v3.42c.08,1.1.13,2.18.16,3.24.05-.47.08-.96.02-1.4.08-3.5,0-8.93-.09-16.19,0-.18,0-.44-.08-.79v-.79c0-.18,0-.44.08-.79.09-1.66.09-3.58,0-5.68,0-.27,0-.79-.08-1.4,0-.44,0-.96.08-1.75v-5.34c-.08-1.57-.08-2.71-.08-3.5v-1.84q.08,0,.08-.08c0-.35,0-.87.09-1.49,1.05-.09,2.1-.18,3.23-.09.18.09.53.09.97.09h.79c.44-.09.79-.09.97-.09,1.31.09,2.97.09,4.98,0,.7-.08,1.84,0,4.64,0,.61-.08,1.49-.08,2.62-.08.09.08.18.08.18.08l.09-.08c2.18-.09,5.5,0,9.79.18.09.08.18.08.35.08.53-.08,1.31-.08,2.27-.08,0,.08,0,.61.09,1.75,0,.09,0,.18.08.44.08.71,0,.35,0,1.05v6.91c0,1.84,0,2.98-.08,3.42h-2.01c-.79,0-1.93,0-3.32-.09h-7.7c-1.84.09-3.32.09-4.37.09-.09.08-.18.52-.18,1.23v20.91c.08.08.61.08,1.49.17h.52s.73.18,2.46.18q0,.09.08.09h6.39c.35,0,.79.08,1.4.26.08.18.08.79.08,1.75v5.34c-.08.08-.08.17-.08.26q0,.08.08.18v.18c-.08.96-.08,2.27,0,4.02.18.96.18,1.58,0,2.01h-2.97c-2.8-.08-4.64-.08-5.6,0l-.09.08q-.08,0-.08-.08c-.09,0-.18,0-.35.08-.79-.08-1.75-.08-2.97,0-.09.09-.09.7-.18,1.93,0,.34,0,.96-.09,1.84v.18l-.08.08c.08.26.08.61.08,1.05q-.08.09-.08.18v15.22c0,.35,0,.87.08,1.49-.08.27-.08.61,0,1.23.18.09.88.18,2.11.27.44.08,1.23.08,2.36.08.08,0,.18,0,.26.08h.44c.09-.08.27-.08.35-.08.09.08.18.08.44.08.79.09,1.75.09,2.89,0,1.14,0,1.58,0,1.49-.08h.17c.09.08.18.18.35.08h2.45c.09,0,.87,0,2.37-.08h1.13c.26,0,.53.08.96.26.08.35.08,1.4.08,3.24v8.4c.09.35,0,.87-.18,1.49ZM300,371.93c-3.92,0-7.1-3.18-7.1-7.1s3.18-7.1,7.1-7.1,7.1,3.18,7.1,7.1-3.18,7.1-7.1,7.1ZM343.64,337.15c-.06.06-.84.06-2.32,0-1.61.13-4.13.13-7.43,0-.26,0-.84-.26-1.17-.26-.45,0-1.54.26-2.39.26-3.1.19-5.68.19-7.69,0-.58-.07-1.48-.19-2.71-.26-1.36.13-3.42.19-6.2.26-.19,0-1.1-.07-2.58-.19-1.17-.07-2.2-.13-3.04-.07-.45,0-1.8.26-2.39.26s-1.35-.07-2.45-.13c-1.1-.06-2.01-.13-2.58-.13-.45.07-1.23.19-2.32.26-1.43.13-3.49.13-6.2.06-2.91-.06-4.98-.13-6.27-.06-.19.13-.45.25-.91.32l-.91-.32c-2.58.06-3.94.06-4.14,0,0-1.75-.06-4.4-.25-7.95-.13-.33-.26-.71-.33-1.23.13-.39.26-.96.33-1.74,0-.2-.33-.78-.33-1.49l.33-1.49c.06-.58,0-1.42-.13-2.45-.13-1.23-.19-2.13-.19-2.58s.07-1.87.26-4.26c.13-2.01.13-3.62.07-4.91.32-.19.84-.26,1.49-.19l1.75.19h3.55c3.81,0,6.13.06,6.85.26.33,1.35.39,3.36.33,6.13-.13,2.71-.07,4.72.25,6.01-.06.58.07,1.36.26,2.39,1.17.58,2.84.84,4.98.84,3.1,0,4.78,0,5.1.06.52-.58.78-1.49.78-2.84,0-.45-.07-1.23-.13-2.27-.07-1.1-.13-1.87-.13-2.45,0-1.03.13-1.88.39-2.53,2.2.07,5.43.07,9.75,0l1.49-.19c.51-.06.9,0,1.23.19.26.85.32,2.27.13,4.33-.19,2.07-.19,3.56.13,4.52.13.13.51.33,1.23.65l1.48.26.84.32c.07-.13.13-.25.33-.32,0,.07.13.19.32.32,0-.13.07-.25.26-.32.07.07.13.19.32.32.19,0,1.68-.13,4.46-.32,2.32-.19,4.77-.19,7.36,0,.45.07,1.62.32,2.07.32.58,0,2.52-.32,3.55-.32,1.94,0,3.1.13,3.55.32.2.65.33,2.72.33,6.21s-.13,5.49-.33,6.2ZM343.97,294.93c-.07.06-.07.7-.07,1.94v1.48s-.05.08-.06.08c0,.33-.07.76-.13,1.27q-.07.07-.13.07c0,.33-.13.84-.45,1.36-.71,1.1-1.81,2.45-3.3,4.2-.19.07-.39.26-.65.45-.07.07-.13.07-.26.07,0,.06,0,.13-.06.19-1.55.96-1.23.51-1.55.84-.19.13-.65.26-1.23.45h-.13c-.06,0-.45.13-1.29.39-.06.07-.13.07-.19.07h-.19c0,.06-.26.06-.77.06-.07.07-.07.13-.13.13q0-.07-.06-.13l-.26.13c-1.23,0-1.29-.07-1.81,0-1.1-.07-2.64-.07-4.77,0-.13.06-.2.13-.26.06h-1.43c-.45-.06-.58,0-1.61,0q0-.06-.07-.06c-.45-.07-.84-.07-1.03,0-.32,0-.91,0-1.81.06h-1.42c-.58.07-1.1.07-1.42.07h-5.17c-.19.07-.26.07-.26.07q0-.07-.06-.07c-.24,0-1.26.02-3.05.07q0-.07-.06-.07h-.26c-.84.07-1.42.07-1.75.07,0-.07-.07-.07-.13-.07l-.07.07c-.07-.07-.13-.13-.19-.07v.07c-3.3-.07-8.21,0-14.67.07-.84.06-1.29.06-1.35,0-.33,0-.78,0-1.36-.07l-.58-.13c-.07-.06-.33-.19-.65-.25l-.52-.19-1.16-.59-.78-.32c-.13-.13-.26-.13-.96-.71l-.33-.32c-.07,0-.32-.19-.91-.78-.58-.58-1.03-1.03-1.35-1.49l-.65-.77-.33-.59c-.06-.06-.06-.25-.26-.58l-.32-.58c-.07-.07-.07-.13-.26-.58l-.13-.13v-.13c-.07-.07-.07-.19-.13-.33,0,0-.13-1.1-.32-3.23l-.07-.06c-.07-.65-.07-1.23,0-1.75v-.58c-.07-.33-.07-.71,0-1.1q.07,0,.07-.07c.07-1.42.26-2.39.51-2.84.07-.06.13-.26.2-.58l.51-.84v-.19h.07l.58-.97c.13-.13.07-.32.65-.7.07-.19.71-1.1,2.32-2.46l1.1-.71.13-.13h.13c.07,0,.32-.13.39-.33h.13l.25-.06.26-.19h.13c0-.07.19-.13.51-.26h.13l.13-.13.26-.06s.32-.07,1.03-.26q0-.07.07-.07h.25c.07,0,.26,0,.59-.06.13-.07.84-.07,2.19-.07h3.68c.07-.07.13-.07.13-.13.06,0,.19.13.25.13,1.49,0,3.3-.07,5.56-.13.39.07.96.07,1.68,0h9.49c2.27,0,3.32,0,3.2-.05.37.05.55.12.62.05,1.1.07,2.64,0,4.77-.13.19.07.52.07.91.07.19,0,.39,0,.65-.07h10.53l.77.26c.59.07,1.17.19,1.75.39.07.07.13.07.19.07v.06l.45.13.07.07h.13q.07.06.07.13h.19l.19.07c.07.06.26.13.59.25.39.39.71.33.71.52l1.17.84c.06.13.26.33.45.52.06,0,.19,0,.25.06-.06.07-.06.13,0,.2.45.32,1.23,1.23,1.55,1.74.07,0,.13.26.65.84v.2h.07c0,.13.13.19.26.65.06,0,.13,0,.19.06v.13h.07c0,.13.06.32.13.51l.07.07c.32.71.45,2.45.51,5.17l.07.07v.19ZM315.29,271.98c.19.32.58.45,1.1.52.44-.07.9-.07,1.35-.07.26.07.65.07,1.17.13.65.07,2.2.07,4.72.13.96-.07,2.32,0,4.07.13l.19.19c.71.19,1.16.19,1.42.13,0-.06.26-.19.52-.25.26-.07.45-.07.65-.07.26.19.39.26.45.19v-.19h1.49c.19.07.91.19,1.16.19l1.88-.32c1.1-.07,1.8-.07,2.06,0,.33.06,1.1.13,2.39.13,2.39.07,3.74.07,4.07,0,.19.77.19,2.13,0,4v.84c-.07.59-.19,1.04-.33,1.36-.19.07-.51.19-.97.26h-3.81c-3.88,0-6.2.07-6.91.13-.33.13-.84.26-1.49.33-.58-.13-1.55-.19-2.91-.13-.06,0-.19.13-.25.13-.26,0-1.1-.13-1.62-.13-.39.07-.91.07-1.61.13-.45-.07-1.1-.07-1.94-.13-.19.07-.45.07-.84.13h-11.31c-.32,0-1.29-.13-1.74-.13-.71,0-2.39.13-3.1.13h-1.62c-.06,0-.19-.13-.25-.13-.07.07-.13.13-.19.13-1.36.06-2.33.06-2.91,0h-.32v-.13c-.19,0-.39.13-.59.13-1.61-.07-4.13-.07-7.43-.13h-3.1l-4.26-.19c-.13.07-.32.07-.58,0-.32-.05-.42-.1-.34-.12-.27,0-.72.12-.96.12-.39-.06-1.1-.06-2.06-.13-.07,0-.26.19-.45.13-.19,0-.52-.13-.71-.58.07-1.75.13-4.52.13-8.33,0-2.01.06-3.16.19-3.36l.58-1.49c.07,0,.13-.06.26-.13v-.26h.13v-.32c.07,0,.39-.33,1.03-1.03.19-.19.45-.39.91-.71.07-.13.26-.26.45-.45h.26c.06-.07.06-.19.13-.32.07.06.19.06.33,0v-.13h.32c.07-.07.71-.32,1.87-.71l.71-.13c.97-.39,1.68-.52,2.06-.45.07-.26.78-.39,1.62-.58.77.07,1.94.07,3.49,0,.19-.07.65-.13,1.23-.19.07.06.13.06.26,0,.13-.07.19-.07.13-.13.26,0,.71.13,1.03.13,1.1.06,1.75.06,1.94,0,.13-.07.19-.07.13-.13.19.07.51.07.9.13.2-.07.59-.07,1.04-.13.19,0,.65.13.84.13l2.64.19c.19-.07.39-.07.71,0,0,.07.19.19.91.39.58,0,1.36.07,2.32.19l.77.45c.07.19.33.13,1.17.71l.58.26c.19.32.59.64,1.17,1.03.07,0,.58-.33,1.49-1.03-.07-.07.19-.2.39-.26h.33c.06-.26.58-.65,1.61-1.17.45-.13,1.1-.13,1.87,0,.39-.19.97-.39,1.81-.58.26-.07.84-.07,1.75,0,.32,0,1.16.13,1.61.13s1.68-.13,2.01-.13c2.84-.07,4.72-.07,5.62,0,.06,0,.58.13.84.13.45,0,1.49-.13,1.94-.13s1.42.13,1.87.13c.52,0,1.87-.13,2.65-.13.45.07,1.03.07,1.87.13,1.1-.06,2.65,0,4.72.26.26,2.26.26,4.33,0,6.34-.97.19-2.78.32-5.56.44h-1.62c-.9-.06-1.75-.06-2.52,0-1.23-.06-3.1-.13-5.68-.13-.45-.07-.26-.07-.59,0,0,.07-.06.13-.13.13-.19,0-.39-.13-.45-.13-3.75-.07-6.2-.07-7.37,0-1.61.07-2.71.19-3.23.39-1.09.52-1.68,1.62-1.68,3.23,0,.33.07.58.13.91ZM414.58,341.7v1.04c-.08.35-.26.61-.61.79-.79,0-.52-2.01-1.23-2.01-.44,0-.7.27-.79.7-.18.79-.26,1.23-.34,1.31-.27.44-.79.61-1.49.61-.78,0-1.31-.26-1.75-.79-1.66.27-2.63.27-2.98.18-.26-.79-.44-1.84-.52-3.24-.18-2.1-.27-3.32-.27-3.58-.08,0-.08-.09-.17-.18l-.27-2.19c.09-.17.09-.44,0-.78-.26-.27-.52-.61-.78-1.06-1.32-.17-3.24-.17-5.78,0-.26.44-.44,1.06-.44,1.84v2.01c-.08.35-.08.87-.18,1.58.09,1.31,0,3.24-.17,5.6h-3.85l-2.63.18c-1.05.08-1.92.08-2.53-.18v-.18c-.27.27-.7.27-1.23.18-.18-.08-.27-.08-.27-.08h-.87c-.35.08-.61.08-.79.08h-1.13c-.07-.06-.13-.08-.13-.08h-.14q-.08.08-.17.08h-1.75c-1.49-.08-2.19-.08-2.19-.08-.44.08-.7.08-.78.08-.18-.08-.27-.08-.27-.08-.18,0-.44,0-.79.08-.78.09-1.66,0-2.44-.08,0,0-.09-.09-.27-.18v-.26s0-.09-.08-.27v-.18h-.09c0-.08,0-.34-.08-.61-.08,0,0,.27-.35-1.39q-.08,0-.18-.09c.09-.34.09-.52,0-.44,0-.26-.08-.79-.17-1.4q0-.08-.09-.18v-.7c-.08-.7-.08-2.1-.18-4.11,0,0,0-.08-.08-.18.08-.18.08-.52.08-.96,0-.08,0-.26-.08-.52v-.61c-.08-.47-.09-.79-.09-.87,0,0,0-.09.09-.18v-1.23c0-.79,0-2.01-.09-3.59-.08-.08-.08-.18-.08-.26-.08-.61-.08-1.23,0-1.84v-.18h.08c0-.18,0-.34-.08-.61v-.61c-.08-.44-.08-.79,0-1.23v-.61c.08-.26.08-.44.08-.52-.08-.09-.08-.35-.08-.61v-2.98c.08.27.08-.08.08-.96,0-.09,0-.27-.08-.53v-.61c0-.96-.08-2.53-.26-4.55v-.18c.08-.26.08-.7,0-1.14q0-.08-.09-.08c0-.26-.18-.7-.44-1.23q-.08-.08-.08-.18h-.35l-.35-.18h-.61c-1.49-.17-2.79-.26-3.84-.17h-.96c-.61-.09-1.14,0-1.58.08-.08.26-.08,1.05-.08,2.27v1.31l-.18,1.06.18.26v.61c-.09.44-.18.79-.18,1.05.08.35.18.61.18.87-.09,0-.09.09-.18.18.08,0,.08.08.18.18v26.94c0,.53-.09,1.32-.18,2.27-.26.09-1.23.09-2.71.09h-7.27c-.26,0-.7,0-1.31-.09-.18-.44-.26-.79-.18-1.05l.18-.26c-.08-.26-.08-.61-.18-1.23v-5.51c-.08-1.23-.08-2.19-.08-2.8v-8.13c-.09-1.14-.09-2.01-.09-2.63v-3.58c-.08-.97-.08-1.49-.08-1.58v-1.58c.08-.08.08-.35.08-.61v-.61c-.08-.26-.08-.44-.08-.61.08-2.89.08-7.26,0-13.12-.09-2.27-.09-3.58-.09-3.94,0-.08,0-.35.09-.61v-1.31c-.09-.27-.09-.53-.09-.7v-31.85c0-2.89,0-4.72.09-5.42h2.1c.7,0,1.49,0,2.27-.09.09,0,.18,0,.26-.08h.61c.27.08.53.08.61.08h3.94c.26,0,.7,0,1.31-.08h1.23c.18,0,.52,0,.96.08h.96q.09,0,.18-.08l.09.08h.17c1.66-.08,2.46-.08,2.46-.08,1.67,0,4.11.08,7.44.18l1.23.61c.26.08.7.34,1.13.7.18.09.44.18.71.44-.35-.08.7.35,2.1,1.84.18.09.34.35.52.71.09-.09.44.44.79,1.13l.18.18v.18s.18.18.61.79c0,.18.08.34.18.61.08,0,.08.18.35.79.08,0,.08.08.17.17v.18l.44.96c.27.79.44,1.49.53,2.1v.18l.08.08.18.88c.09.26.27,1.39.35,3.32.18,2.27.26,4.29.18,6.03v.35c-.08.18-.08.26-.08.35.08.08.08.18.08.26v1.92c0,2.11,0,3.68-.08,4.64v.44q.08,0,.08.08l-.18.7c0,.96-.08,2.36-.18,4.29q-.08,0-.08.08c-.09.27-.09.7-.09,1.23-.08.09-.18.53-.44,1.4-.08.35-.18.79-.44,1.4-.35.7-.7,1.66-.87,1.84v.18c-.35.7,0-.27-1.49,2.18-.09,0-.27.09-.35.18v.26q-.09,0-.09.09c-.08.26.09.52.35.87,0,0,.61,1.14,1.05,2.01.35.35.61.96.88,1.4v.18l.08.26h.08l.79,2.36v.18h.09v.18c0,.09.17.79.52,2.63,0,.44,0,1.05.09,2.01v.18h.08c0,1.05,0,2.62.09,4.81v.44c.17.35.17.53.08.61v12.08c.08.18.18.26.08.35-.08.08-.08.44-.17,3.58v2.98q-.09,0-.09.08c0,.07.02.29.09.61v.18h.08c.08.87.26,2.19.61,3.85l.08.08v.08c.12.28.2.52.25.73-.03-2.47.13-5.43.45-8.95,0-.61.08-1.66.18-2.97.26-.79.34-2.53.61-6.39l.17-1.05c.09-.7.09-1.75.18-3.16l.44-4.2c0-.96.09-2.37.18-4.2l.44-1.84c0-1.31.09-3.23.18-5.77l.61-5.16c-.08-.26-.08-.79,0-1.4l.35-3.84c.08-.09.18-.35.26-.79-.08-.18-.08-.44,0-.79.09,0,.09-.09.18-.18v-.61c.09-.44.18-1.13.18-2.01v-.79c.44-1.57.61-2.71.61-3.41.08-.26.08-.79.18-1.58.26-1.58.52-3.94.79-7.17.08-1.84.34-4.46.61-7.96.08-.08.17-.34.26-.61l.52-4.98c.09-1.48.44-3.68.88-6.65,5.16-.35,8.31-.44,9.53-.18.26,1.05.79,4.81,1.58,11.19l.61,3.59.26,3.42c.09,1.39.35,3.84.96,9.79.79,7.27,1.23,11.64,1.23,12.95l-.61.96c-.18.08-.44.53-.79,1.23-.26.26-.61.87-1.05,1.84,0,.26-.79.53-.79,1.14.44.34.96.52,1.4.44.08-.18.35-.35.61-.44.26-1.49.35-2.01.96-3.16.7.09.53,1.75.88,4.55.26.44.44,1.4.44,2.89v1.66c.08,1.32.18,1.84.52,3.68.18,2.54.35,4.72.61,6.56v.79c.09.44.27,1.14.35,2.01-.08.53-.08,1.23-.18,2.19l.61,2.27c.09.52.09,1.31.18,2.36l.44,3.42c0,.87.09,1.84.18,2.8v.34c.08.09.18,1.66.44,4.82.08,1.46.16,2.25.18,2.36h0ZM444.77,270.83c-.34,0-1.05,0-2.1.08-.87.09-1.58.09-2.19,0h-1.23c-.08.09-.18.53-.18,1.14v10.32c-.08.09-.17.44-.08,1.14v.61c.04.3.07.48.08.55,0-.04,0-.08,0-.11,0,.13,0,.18,0,.12,0,.09-.02.24-.08.4v.53c.08.79.08,1.92.08,3.42-.08.26-.08.61-.08,1.05,0,.26,0,1.4.08,3.23-.08,2.01-.08,4.9,0,8.67.05.32.08.52.08.6,0-.03,0-.06,0-.08,0,.12,0,.15,0,.1,0,.07-.02.17-.08.34v6.39c.09,1.06.09,1.84.09,2.37,0,.08,0,.18-.09.26v.27c0,.08,0,.17.09.44v3.5c0,.44,0,1.23.08,2.18v10.33q-.08,0-.08.08c.08.09.08.35.08.87v4.46c-.08,2.19-.08,3.76-.08,4.72v4.03c0,.61.08.7-1.66.7h-1.75c-1.02-.06-1.58-.08-1.7-.08-.34,0-.86,0-1.53.08-2.72.09-4.29.09-4.9,0q0-.08-.09-.08-.08,0-.08.08c-.87,0-1.4,0-1.66-.08-.09-1.14-.18-3.85-.18-7.96v-20.12c-.08-1.02-.08-1.52-.09-1.52v-1.28c0-.61,0-.87.09-.79v-2.89c-.09-.44-.09-.7-.09-.96v-24.41c0-.27,0-.53.09-.96-.07-.18-.08-.33-.09-.37.09-.25.09-.42.09-.42v-.96c-.09-.44-.09-.71-.09-.96,0-.79.09-2.98.18-6.74.09-1.23.09-1.92,0-2.1-.08-.09-.52-.18-1.23-.18h-.44c-.44.18-.79.18-.87.08,0-.08-.96-.08-2.89-.08h-2.89c-1.49,0-2.45,0-2.8-.09.09-.34.09-1.57,0-3.58.09-.87.09-2.19.09-3.85,0-.08,0-.26-.09-.52v-.44c0-.18,0-.44.09-.88-.09-.87-.09-2.18,0-3.94,0-.08,0-.18.08-.26,0-.35.18-.7.53-1.14.08.09.17,0,.26-.08l.08.08h7.88c.44-.08.78-.08,1.05-.08.18,0,.52,0,1.05.08,1.23.09,2.36.09,3.32,0,.09,0,.26,0,.53-.08h.52c.26,0,.53,0,.96.08h13.03c.7-.08,1.06-.08,1.06,0,.08.09.34.18.6.09h.27c.18-.09.96-.09,2.36-.09,2.11,0,2.11-.08,2.11,1.23v6.65c0,.26,0,.7.08,1.23v2.89c-.08.7-.08,1.31-.08,1.75.08.61.08.96,0,.96h-5.61ZM480.9,340.74c-.08.08-.18.17-.52.26v.26q-.09-.08-.18,0c-.18.18-.53.44-.96.7-.52.35.87-.26-2.53,1.23l-3.68.27c-.09,0-.18,0-.35.08h-.52c-.27-.08-.35-.08-.44-.08h-.27q-.08.08-.18.08,0-.08-.08-.08h-.08c-1.32-.09-2.37-.09-3.06,0l-.09.08h-.35c-.17-.08-.26-.08-.34-.08q0,.08-.09.08c-.08,0-.18,0-.26-.08-.35-.09-.7-.09-.96,0-.08,0-.26,0-.44.08h-.96c-.44-.08-.79-.08-.96-.08h-1.92l-1.14-.27c-.44-.26-1.23-.34-2.71-1.49-.35-.61-.88-.18-2.01-1.84-.08,0-.18-.08-.44-.34l-2.19-2.8-.44-.79c-.08-.08-.18-.18-.26-.79l-.09-.08v-.09l-.18-.17v-.27c-.08-.08-.08-.34-.17-.61l-.27-.26c-.26-.87-.44-1.84-.61-2.89-.08-.35-.26-.87-.34-1.58.08-2.18.08-5.51,0-9.89,0-.08,0-.18-.09-.35,0-.08,0-.52.09-1.13l.34-1.32c.09,0,1.05,0,2.98.09,1.48.08,4.29.08,8.58.08.96,0,1.49,0,1.66.09.08.44.18,1.4.18,2.89v1.49c-.09.7-.09,1.23-.09,1.58,0,2.27.09,4.2.35,5.68l.87.53c.26.08.7.26,2.45.35,2.19.18,3.68,0,4.37-.44,0,0,.27-.18.35-.27.61-.79.87-2.01.87-3.68,0-.44-.08-.87-.18-1.31-.26-1.05-.78-2.45-1.49-4.11-.08-.26-.52-1.05-1.4-2.53,0-.09,0-.18-.08-.35-.08,0-.18,0-.26-.09q.08-.08,0-.17l-.61-.88c-.09-.08-.18-.08-.27-.08.09-.09.09-.18,0-.26-.26-.09-.61-.7-1.39-1.75l-.09-.18c0-.08-.18-.44-.44-.52q.08-.09,0-.18l-1.31-1.49c-.09-.09-.44-.44-.88-1.06q-.08-.08-.17-.08v-.18c-.44-.44-1.23-1.4-3.24-3.76-.26-.44-.7-.96-1.32-1.66v-.18c-.26-.18-.52-.53-.61-.61v-.18l-.26-.18v-.26c-.26-.18-.52-.35-.7-.61v-.26c-.27-.27-.27-.35-1.4-1.84q-.61-.61-.97-1.4c-.18,0-.18-.26-.52-.61v-.18c-.35-.35-.27-.35-.44-.79-.09,0-.18,0-.27-.08-.18-.44-.52-1.14-1.13-2.01-.09-.08-.18-.35-.27-.7-.26,0-.7-1.06-1.05-1.75-.08,0-.18-.08-.26-.44,0-.18-.26-.18-.97-2.01l-.08-.08v-.18c0-.09,0-.26-.09-.53,0,0-.17-.08-.26-.7,0-.09-.08-.35-.18-.79-.08-.08-.08-.44-.34-1.49l-.35-1.75c-.08-.44,0-1.38.08-2.69v-.02c0-.18-.03-.68-.08-1.49-.08-.97,0-2.37.08-4.2.09-4.11.09-4.81.18-6.21l.35-2.53.18-.61v-.27s.08-.17.18-.44c.08,0,0,.09.26-.61v-.18h.08v-.17h.18q-.08-.09,0-.18h.09c0-.09,0-.27.08-.53l.18-.18v-.17l.18-.18v-.27h.08v-.17h.09v-.18c.08-.09.26-.18.34-.44l.35-.44v-.17h.08v-.18h.09v-.27h.08v-.17c.27-.18.53-.44.79-.88v-.18l1.14-1.23.44-.52,1.92-1.58.53-.34h.18c.08-.09.34-.18.78-.27l.27-.08c.08-.09.61-.18,1.66-.35.17-.08.42-.08.82-.17-.17,0-.15,0,.05,0-.02,0-.03,0-.05,0,.18.02.59.03,1.19.08.26-.09.44-.09.44-.09l.08.09c.18,0,.68-.03,1.49-.09,1.32.09,3.24.09,5.87,0,.08,0,.18,0,.35-.08h.26c.18.08.35.08.44.08,1.14,0,2.63.09,4.64.18l.79.26q.26,0,.52.27h.18c.7.52,1.13.87,1.58,1.05,0,.18.26.08,1.05.87,0,.09,0,.18.08.26.44.61,1.14,1.4,2.1,2.54,1.32,1.4,1.66,2.18,2.37,4.2v.26c0,.18,0,1.23-.09,3.06l-.26,3.5c.09.09.09.18,0,.27-.08.18-.08.52-.18,1.05l-.08.08v.88c-.09.34-.26.96-.35,1.75l-.34,1.84c0,.08,0,.18-.09.35-.08.44-.08,1.13-.18,2.01.09.78.18,2.1.18,3.84-.26.09-1.23.09-2.71.09h-1.32c-.26-.09-.7-.09-1.23-.09-.26,0-.7,0-1.31.09-.26-.09-.7-.09-1.23-.09l-.08.09c.08-.09-.27-.09-1.05-.09h-1.4c0-.08-.09-.87-.18-2.36-.05-.38-.07-.63-.08-.74,0,.02,0,.02,0,.03,0-.12,0-.13,0-.03.08-.27.08-.77.17-1.36.09-1.84.09-4.2-.18-7.17,0-.44-.17-1.06-.52-1.93-.35-.44-1.4-.7-3.24-.79h-2.01c-1.05.09-1.66.18-1.84.35-.44.26-.78.87-.96,1.75q-.09,0-.18.08c0,.26,0,.79-.09,1.4l-.08.08c0,.7-.08,1.49-.18,3.85v.26c-.08.09-.08.61-.08,1.58-.09,2.01,0,3.68.26,4.98.18.79.44,1.49.7,2.19.09.35.44,1.05,1.06,2.19.08.08.26.26.26.52.26.35.52.87.87,1.58.08,0,.26.18.71.87q.08,0,.17.08v.18c.09.09.27.27.53.7l.35.34,1.66,2.37c.08,0,.26.18.34.44l1.14,1.23,1.31,1.49c0,.27.35.35,1.23,1.58.09.08.44.26.44.35l.61.96,1.84,2.11,1.49,1.75,1.31,1.84,1.58,2.45q.08,0,.18.08v.18c.34.44.6.79.78,1.14.27.26.09.26.79,1.31l.09.09v.18c.34.34.08-.09.96,1.83.27.27.44.7.79,1.75v.18h.09v.18c0,.08.08,1.23.26,3.5.08.08.08.18.08.26v.35c.09.26.27.79.35,1.49.08,1.14.08,2.63,0,4.55-.08.96-.18,2.1-.35,3.24l-.44,2.1c0,.26-.08.61-.18,1.14q-.08,0-.08.08v.09c-.35.87-.61,1.49-.7,1.92,0,.08-.08.18-.17.35v.17h-.09c-.08.09-.08.44-.34.44l-.35.78-.44.61-.09.09-.52.79c-.7.79-1.32,1.49-1.93,2.01ZM488.85,371.93c-3.92,0-7.1-3.18-7.1-7.1s3.18-7.1,7.1-7.1,7.1,3.18,7.1,7.1-3.18,7.1-7.1,7.1ZM488.85,240.34c-3.92,0-7.1-3.18-7.1-7.1s3.18-7.1,7.1-7.1,7.1,3.18,7.1,7.1-3.18,7.1-7.1,7.1ZM402.16,314.75c-.09-.44-.27-1.05-.35-2.01v-2.71c-.09-.96-.44-1.49-1.05-1.66h-.35c0,.26-.53.44-.44.79-.09.08-.18.52-.18,1.23-.08,1.31-.18,2.45-.44,3.23.08.09.08.27,0,.53l-.79,4.03c.08.34.08.87,0,1.57l-.18.26v.35c-.26,1.93-.35,3.06-.18,3.42.53.26,1.75.26,3.77,0,.08,0,.08.08.18.18.26-.09.52-.27.87-.35.08-.79,0-2.53-.44-5.42l-.44-3.42ZM373.29,278.97c0-.18,0-.44.08-.88,0-.08,0-.18-.08-.34v-3.68c-.09-1.75-.35-2.8-.96-3.15-.08-.08-.35-.18-.79-.26-1.49-.26-2.97-.35-4.46-.18,0,.09-.09.09-.27.09h-1.31c-.26,0-.7.08-1.23.17.08.44.08,1.14,0,2.01,0,.27,0,.61-.08,1.05v.35q0,.09-.09.09.09.08.09.17c.08.09.08.18,0,.44-.09,3.32-.18,5.77-.18,7.26v2.36c.18.61.18,1.32.08,2.19.09.87.09,2.19,0,3.94v1.05c.26.09.87.09,1.92.18h4.29c0-.08.44,0,1.14-.26h.26c.09,0,.18,0,.61-.26,0-.09.18-.35.26-.35v-.26c.09-.09.44-.44.7-3.59.08-1.13.08-2.36.08-3.58h-.08c-.09-.09,0-.18.08-.27.09-.61.09-1.75,0-3.41-.08-.18-.08-.44-.08-.87ZM332.02,292.73c-.33-.19-1.36-.33-3.17-.39-3.03-.07-4.58-.13-4.65-.13-.29,0-.44,0-.44.02-.02-.02-.04-.02-.04-.02h-.17q-.07.07-.13.07,0-.07-.07-.07-.07,0-.07.07h-.39c-.26,0-.71,0-1.29-.07-4.65.07-11.5.13-20.54.07h-.97c-.06.07-.19.07-.25.07h-.33c-.13-.07-.19-.07-.26-.07-.13.07-.32.07-.58.07h-.58c-.26-.07-.45-.07-.65-.07-.52.07-1.68.07-4.26.13l-.07.07c-.33.07-.77.19-1.29.26-.13,0-.26.07-.39.19h-.13l-.39.39c.07,0,.07.07,0,.13l-.26.32v.26q-.06,0-.13.07l-.26.65c0,.13.07.39.13.7,0,.13.06.33.13.65,0,.07.07.19.19.45q0,.07.07.13l.58.64c.07.07.33.2.65.26v.07l.19.07c.45.13,1.49.19,3.04.25,2.9.07,5.62.07,8.14,0,.07,0,.39-.13.45-.13,0,.07.07.07.13.13.13,0,.19-.06.26-.13h.19c-.26.07.71.07,2.84.13.58-.06,1.36-.06,2.46-.13.88.06,1.28.07,1.19.12l.35-.12c.19,0,.59.07.78.13h1.75c2.26-.06,3.88-.13,4.97-.13.45,0,1.36.13,1.69.13.25,0,.77-.13.96-.13q.07.07.07.13c.06,0,.32-.13.39-.13h3.36c.71-.07,1.29-.07,1.68-.07.72.05,1.1.07,1.17.07.45,0,.39.07.71,0,.84.07,1.23,0,1.29-.07.06-.06.25-.06.65,0q.06,0,.06-.06c.65-.07,1.04-.19,1.17-.39h.13v-.13q.07.07.13,0v-.07h.19q0-.06.07-.13c.19-.19.32-.39.44-.65,0,0,.13-.32.33-.52v-.32c0-.06,0-.07.04-.07-.04-.11-.06-.69-.11-1.75-.19-.19-.19-.39-1.16-.96ZM307.21,269.01c-.39-.52-.96-.91-1.75-1.17-1.16-.32-3.36-.45-6.59-.39-1.42-.07-3.36-.07-5.87,0-.13.07-.2.07-.13.13-.45,0-1.23-.13-1.49-.13-.91-.07-1.61,0-2.2.13l-.9.26-.13.19c-.32.07-.77.19-1.29.39-.32.2-.45.45-.45.78,0,0-.06.07-.13.13v.59c-.07.06-.13.13-.19.13-.19,1.36-.07,2.13.32,2.39.19.19.45.32.91.26.84-.06,1.33-.12,1.42-.13,0,.07.07.07.13.13h1.03c4.72.06,9.76.06,15.25,0,.58.06,1.42-.07,2.52-.26.39-.65.39-1.49,0-2.52l-.45-.91ZM221.68,289.81c-.08-.78-.17-2.01-.44-3.68-.08-.17-.26-.44-.34-.78-.09-.09-.27-.18-.35-.35l-.79-2.27c-.7-1.75-.35-.71-1.14-2.98-.34-.26-.78-.61-1.49-1.92l-.7-.35v-.79l-1.14-1.05c-.34-.08-.87-.18-1.49-.44-.26-.44-1.05-.79-3.06-1.49-.44-.26-1.05-.44-1.84-.7-.26.08-.7.26-1.13.34,0-.18-.09-.26-.35-.34h-1.14c0,.26-.44.7-.34,1.05-.09,1.39-.09,3.32,0,5.68.08.44.26,1.06.34,1.84,0,.35-.34,1.05-.34,1.49.08.44.08,1.23,0,2.27-.18.44-.09.87.34,1.13.18.09.18,1.49,0,4.11,0,.61-.34,1.84-.34,2.27,0,.27.34.61.34.7.27,1.13.27,2.63.18,4.46-.18,2.19-.26,3.59-.18,4.2.27,3.15.35,4.81.35,4.9,0,.44-.35,1.75-.35,2.18,0,.35.35.53.35.79v1.14c.08,2.01.18,4.9.08,8.48-.08,3.77-.17,6.56-.08,8.4.61,0,1.14-.7,1.92-.44.44.08.35,1.58,1.06,1.49.26-.08.26-.44.17-.96-.26-.96,1.14-.7,3.24-2.01l1.14-1.14s.79-.7,2.27-2.18l1.84-3.06c.18-.09.44-.35.79-.71,0-.44.52-1.4,1.49-3.76,0-.26.08-.61.35-1.14.26-.26.34-1.05.44-2.18.08-.96.34-1.66.7-1.93v-.79c.7-5.68.79-11.11.35-16.09l-.71-3.42ZM174.53,317.11v-.34c0-.79-.09-1.75-.18-2.98h-.27c.09-.08.09-.26,0-.44l-.78-1.58c-.09,0-.27-.17-.53-.17-.35.08-.52-.18-1.23,2.53,0,.08-.08.18-.18.26-.44,1.75-.52,3.68-.44,5.87,0,.7.18,1.66.61,2.79,1.4.53,2.63.35,3.59-.61.17-.87.08-2.36-.27-4.37-.08-.44-.18-.79-.34-.96ZM174.88,318.07c-.08-.44-.18-.79-.34-.96v-.34c0-.79-.09-1.75-.18-2.98h-.27c.09-.08.09-.26,0-.44l-.78-1.58c-.09,0-.27-.17-.53-.17-.35.08-.52-.18-1.23,2.53,0,.08-.08.18-.18.26-.44,1.75-.52,3.68-.44,5.87,0,.7.18,1.66.61,2.79,1.4.53,2.63.35,3.59-.61.17-.87.08-2.36-.27-4.37ZM222.39,293.23l-.71-3.42c-.08-.78-.17-2.01-.44-3.68-.08-.17-.26-.44-.34-.78-.09-.09-.27-.18-.35-.35l-.79-2.27c-.7-1.75-.35-.71-1.14-2.98-.34-.26-.78-.61-1.49-1.92l-.7-.35v-.79l-1.14-1.05c-.34-.08-.87-.18-1.49-.44-.26-.44-1.05-.79-3.06-1.49-.44-.26-1.05-.44-1.84-.7-.26.08-.7.26-1.13.34,0-.18-.09-.26-.35-.34h-1.14c0,.26-.44.7-.34,1.05-.09,1.39-.09,3.32,0,5.68.08.44.26,1.06.34,1.84,0,.35-.34,1.05-.34,1.49.08.44.08,1.23,0,2.27-.18.44-.09.87.34,1.13.18.09.18,1.49,0,4.11,0,.61-.34,1.84-.34,2.27,0,.27.34.61.34.7.27,1.13.27,2.63.18,4.46-.18,2.19-.26,3.59-.18,4.2.27,3.15.35,4.81.35,4.9,0,.44-.35,1.75-.35,2.18,0,.35.35.53.35.79v1.14c.08,2.01.18,4.9.08,8.48-.08,3.77-.17,6.56-.08,8.4.61,0,1.14-.7,1.92-.44.44.08.35,1.58,1.06,1.49.26-.08.26-.44.17-.96-.26-.96,1.14-.7,3.24-2.01l1.14-1.14s.79-.7,2.27-2.18l1.84-3.06c.18-.09.44-.35.79-.71,0-.44.52-1.4,1.49-3.76,0-.26.08-.61.35-1.14.26-.26.34-1.05.44-2.18.08-.96.34-1.66.7-1.93v-.79c.7-5.68.79-11.11.35-16.09ZM333.18,293.7c-.19-.19-.19-.39-1.16-.96-.33-.19-1.36-.33-3.17-.39-3.03-.07-4.58-.13-4.65-.13-.29,0-.44,0-.44.02-.02-.02-.04-.02-.04-.02h-.17q-.07.07-.13.07,0-.07-.07-.07-.07,0-.07.07h-.39c-.26,0-.71,0-1.29-.07-4.65.07-11.5.13-20.54.07h-.97c-.06.07-.19.07-.25.07h-.33c-.13-.07-.19-.07-.26-.07-.13.07-.32.07-.58.07h-.58c-.26-.07-.45-.07-.65-.07-.52.07-1.68.07-4.26.13l-.07.07c-.33.07-.77.19-1.29.26-.13,0-.26.07-.39.19h-.13l-.39.39c.07,0,.07.07,0,.13l-.26.32v.26q-.06,0-.13.07l-.26.65c0,.13.07.39.13.7,0,.13.06.33.13.65,0,.07.07.19.19.45q0,.07.07.13l.58.64c.07.07.33.2.65.26v.07l.19.07c.45.13,1.49.19,3.04.25,2.9.07,5.62.07,8.14,0,.07,0,.39-.13.45-.13,0,.07.07.07.13.13.13,0,.19-.06.26-.13h.19c-.26.07.71.07,2.84.13.58-.06,1.36-.06,2.46-.13.88.06,1.28.07,1.19.12l.35-.12c.19,0,.59.07.78.13h1.75c2.26-.06,3.88-.13,4.97-.13.45,0,1.36.13,1.69.13.25,0,.77-.13.96-.13q.07.07.07.13c.06,0,.32-.13.39-.13h3.36c.71-.07,1.29-.07,1.68-.07.72.05,1.1.07,1.17.07.45,0,.39.07.71,0,.84.07,1.23,0,1.29-.07.06-.06.25-.06.65,0q.06,0,.06-.06c.65-.07,1.04-.19,1.17-.39h.13v-.13q.07.07.13,0v-.07h.19q0-.06.07-.13c.19-.19.32-.39.44-.65,0,0,.13-.32.33-.52v-.32c0-.06,0-.07.04-.07-.04-.11-.06-.69-.11-1.75ZM307.66,269.91l-.45-.91c-.39-.52-.96-.91-1.75-1.17-1.16-.32-3.36-.45-6.59-.39-1.42-.07-3.36-.07-5.87,0-.13.07-.2.07-.13.13-.45,0-1.23-.13-1.49-.13-.91-.07-1.61,0-2.2.13l-.9.26-.13.19c-.32.07-.77.19-1.29.39-.32.2-.45.45-.45.78,0,0-.06.07-.13.13v.59c-.07.06-.13.13-.19.13-.19,1.36-.07,2.13.32,2.39.19.19.45.32.91.26.84-.06,1.33-.12,1.42-.13,0,.07.07.07.13.13h1.03c4.72.06,9.76.06,15.25,0,.58.06,1.42-.07,2.52-.26.39-.65.39-1.49,0-2.52ZM373.37,279.84c-.08-.18-.08-.44-.08-.87,0-.18,0-.44.08-.88,0-.08,0-.18-.08-.34v-3.68c-.09-1.75-.35-2.8-.96-3.15-.08-.08-.35-.18-.79-.26-1.49-.26-2.97-.35-4.46-.18,0,.09-.09.09-.27.09h-1.31c-.26,0-.7.08-1.23.17.08.44.08,1.14,0,2.01,0,.27,0,.61-.08,1.05v.35q0,.09-.09.09.09.08.09.17c.08.09.08.18,0,.44-.09,3.32-.18,5.77-.18,7.26v2.36c.18.61.18,1.32.08,2.19.09.87.09,2.19,0,3.94v1.05c.26.09.87.09,1.92.18h4.29c0-.08.44,0,1.14-.26h.26c.09,0,.18,0,.61-.26,0-.09.18-.35.26-.35v-.26c.09-.09.44-.44.7-3.59.08-1.13.08-2.36.08-3.58h-.08c-.09-.09,0-.18.08-.27.09-.61.09-1.75,0-3.41ZM402.6,318.16l-.44-3.42c-.09-.44-.27-1.05-.35-2.01v-2.71c-.09-.96-.44-1.49-1.05-1.66h-.35c0,.26-.53.44-.44.79-.09.08-.18.52-.18,1.23-.08,1.31-.18,2.45-.44,3.23.08.09.08.27,0,.53l-.79,4.03c.08.34.08.87,0,1.57l-.18.26v.35c-.26,1.93-.35,3.06-.18,3.42.53.26,1.75.26,3.77,0,.08,0,.08.08.18.18.26-.09.52-.27.87-.35.08-.79,0-2.53-.44-5.42ZM402.6,318.16l-.44-3.42c-.09-.44-.27-1.05-.35-2.01v-2.71c-.09-.96-.44-1.49-1.05-1.66h-.35c0,.26-.53.44-.44.79-.09.08-.18.52-.18,1.23-.08,1.31-.18,2.45-.44,3.23.08.09.08.27,0,.53l-.79,4.03c.08.34.08.87,0,1.57l-.18.26v.35c-.26,1.93-.35,3.06-.18,3.42.53.26,1.75.26,3.77,0,.08,0,.08.08.18.18.26-.09.52-.27.87-.35.08-.79,0-2.53-.44-5.42ZM373.37,279.84c-.08-.18-.08-.44-.08-.87,0-.18,0-.44.08-.88,0-.08,0-.18-.08-.34v-3.68c-.09-1.75-.35-2.8-.96-3.15-.08-.08-.35-.18-.79-.26-1.49-.26-2.97-.35-4.46-.18,0,.09-.09.09-.27.09h-1.31c-.26,0-.7.08-1.23.17.08.44.08,1.14,0,2.01,0,.27,0,.61-.08,1.05v.35q0,.09-.09.09.09.08.09.17c.08.09.08.18,0,.44-.09,3.32-.18,5.77-.18,7.26v2.36c.18.61.18,1.32.08,2.19.09.87.09,2.19,0,3.94v1.05c.26.09.87.09,1.92.18h4.29c0-.08.44,0,1.14-.26h.26c.09,0,.18,0,.61-.26,0-.09.18-.35.26-.35v-.26c.09-.09.44-.44.7-3.59.08-1.13.08-2.36.08-3.58h-.08c-.09-.09,0-.18.08-.27.09-.61.09-1.75,0-3.41ZM333.18,293.7c-.19-.19-.19-.39-1.16-.96-.33-.19-1.36-.33-3.17-.39-3.03-.07-4.58-.13-4.65-.13-.29,0-.44,0-.44.02-.02-.02-.04-.02-.04-.02h-.17q-.07.07-.13.07,0-.07-.07-.07-.07,0-.07.07h-.39c-.26,0-.71,0-1.29-.07-4.65.07-11.5.13-20.54.07h-.97c-.06.07-.19.07-.25.07h-.33c-.13-.07-.19-.07-.26-.07-.13.07-.32.07-.58.07h-.58c-.26-.07-.45-.07-.65-.07-.52.07-1.68.07-4.26.13l-.07.07c-.33.07-.77.19-1.29.26-.13,0-.26.07-.39.19h-.13l-.39.39c.07,0,.07.07,0,.13l-.26.32v.26q-.06,0-.13.07l-.26.65c0,.13.07.39.13.7,0,.13.06.33.13.65,0,.07.07.19.19.45q0,.07.07.13l.58.64c.07.07.33.2.65.26v.07l.19.07c.45.13,1.49.19,3.04.25,2.9.07,5.62.07,8.14,0,.07,0,.39-.13.45-.13,0,.07.07.07.13.13.13,0,.19-.06.26-.13h.19c-.26.07.71.07,2.84.13.58-.06,1.36-.06,2.46-.13.88.06,1.28.07,1.19.12l.35-.12c.19,0,.59.07.78.13h1.75c2.26-.06,3.88-.13,4.97-.13.45,0,1.36.13,1.69.13.25,0,.77-.13.96-.13q.07.07.07.13c.06,0,.32-.13.39-.13h3.36c.71-.07,1.29-.07,1.68-.07.72.05,1.1.07,1.17.07.45,0,.39.07.71,0,.84.07,1.23,0,1.29-.07.06-.06.25-.06.65,0q.06,0,.06-.06c.65-.07,1.04-.19,1.17-.39h.13v-.13q.07.07.13,0v-.07h.19q0-.06.07-.13c.19-.19.32-.39.44-.65,0,0,.13-.32.33-.52v-.32c0-.06,0-.07.04-.07-.04-.11-.06-.69-.11-1.75ZM307.66,269.91l-.45-.91c-.39-.52-.96-.91-1.75-1.17-1.16-.32-3.36-.45-6.59-.39-1.42-.07-3.36-.07-5.87,0-.13.07-.2.07-.13.13-.45,0-1.23-.13-1.49-.13-.91-.07-1.61,0-2.2.13l-.9.26-.13.19c-.32.07-.77.19-1.29.39-.32.2-.45.45-.45.78,0,0-.06.07-.13.13v.59c-.07.06-.13.13-.19.13-.19,1.36-.07,2.13.32,2.39.19.19.45.32.91.26.84-.06,1.33-.12,1.42-.13,0,.07.07.07.13.13h1.03c4.72.06,9.76.06,15.25,0,.58.06,1.42-.07,2.52-.26.39-.65.39-1.49,0-2.52ZM222.39,293.23l-.71-3.42c-.08-.78-.17-2.01-.44-3.68-.08-.17-.26-.44-.34-.78-.09-.09-.27-.18-.35-.35l-.79-2.27c-.7-1.75-.35-.71-1.14-2.98-.34-.26-.78-.61-1.49-1.92l-.7-.35v-.79l-1.14-1.05c-.34-.08-.87-.18-1.49-.44-.26-.44-1.05-.79-3.06-1.49-.44-.26-1.05-.44-1.84-.7-.26.08-.7.26-1.13.34,0-.18-.09-.26-.35-.34h-1.14c0,.26-.44.7-.34,1.05-.09,1.39-.09,3.32,0,5.68.08.44.26,1.06.34,1.84,0,.35-.34,1.05-.34,1.49.08.44.08,1.23,0,2.27-.18.44-.09.87.34,1.13.18.09.18,1.49,0,4.11,0,.61-.34,1.84-.34,2.27,0,.27.34.61.34.7.27,1.13.27,2.63.18,4.46-.18,2.19-.26,3.59-.18,4.2.27,3.15.35,4.81.35,4.9,0,.44-.35,1.75-.35,2.18,0,.35.35.53.35.79v1.14c.08,2.01.18,4.9.08,8.48-.08,3.77-.17,6.56-.08,8.4.61,0,1.14-.7,1.92-.44.44.08.35,1.58,1.06,1.49.26-.08.26-.44.17-.96-.26-.96,1.14-.7,3.24-2.01l1.14-1.14s.79-.7,2.27-2.18l1.84-3.06c.18-.09.44-.35.79-.71,0-.44.52-1.4,1.49-3.76,0-.26.08-.61.35-1.14.26-.26.34-1.05.44-2.18.08-.96.34-1.66.7-1.93v-.79c.7-5.68.79-11.11.35-16.09ZM174.88,318.07c-.08-.44-.18-.79-.34-.96v-.34c0-.79-.09-1.75-.18-2.98h-.27c.09-.08.09-.26,0-.44l-.78-1.58c-.09,0-.27-.17-.53-.17-.35.08-.52-.18-1.23,2.53,0,.08-.08.18-.18.26-.44,1.75-.52,3.68-.44,5.87,0,.7.18,1.66.61,2.79,1.4.53,2.63.35,3.59-.61.17-.87.08-2.36-.27-4.37ZM174.88,318.07c-.08-.44-.18-.79-.34-.96v-.34c0-.79-.09-1.75-.18-2.98h-.27c.09-.08.09-.26,0-.44l-.78-1.58c-.09,0-.27-.17-.53-.17-.35.08-.52-.18-1.23,2.53,0,.08-.08.18-.18.26-.44,1.75-.52,3.68-.44,5.87,0,.7.18,1.66.61,2.79,1.4.53,2.63.35,3.59-.61.17-.87.08-2.36-.27-4.37ZM222.39,293.23l-.71-3.42c-.08-.78-.17-2.01-.44-3.68-.08-.17-.26-.44-.34-.78-.09-.09-.27-.18-.35-.35l-.79-2.27c-.7-1.75-.35-.71-1.14-2.98-.34-.26-.78-.61-1.49-1.92l-.7-.35v-.79l-1.14-1.05c-.34-.08-.87-.18-1.49-.44-.26-.44-1.05-.79-3.06-1.49-.44-.26-1.05-.44-1.84-.7-.26.08-.7.26-1.13.34,0-.18-.09-.26-.35-.34h-1.14c0,.26-.44.7-.34,1.05-.09,1.39-.09,3.32,0,5.68.08.44.26,1.06.34,1.84,0,.35-.34,1.05-.34,1.49.08.44.08,1.23,0,2.27-.18.44-.09.87.34,1.13.18.09.18,1.49,0,4.11,0,.61-.34,1.84-.34,2.27,0,.27.34.61.34.7.27,1.13.27,2.63.18,4.46-.18,2.19-.26,3.59-.18,4.2.27,3.15.35,4.81.35,4.9,0,.44-.35,1.75-.35,2.18,0,.35.35.53.35.79v1.14c.08,2.01.18,4.9.08,8.48-.08,3.77-.17,6.56-.08,8.4.61,0,1.14-.7,1.92-.44.44.08.35,1.58,1.06,1.49.26-.08.26-.44.17-.96-.26-.96,1.14-.7,3.24-2.01l1.14-1.14s.79-.7,2.27-2.18l1.84-3.06c.18-.09.44-.35.79-.71,0-.44.52-1.4,1.49-3.76,0-.26.08-.61.35-1.14.26-.26.34-1.05.44-2.18.08-.96.34-1.66.7-1.93v-.79c.7-5.68.79-11.11.35-16.09ZM333.18,293.7c-.19-.19-.19-.39-1.16-.96-.33-.19-1.36-.33-3.17-.39-3.03-.07-4.58-.13-4.65-.13-.29,0-.44,0-.44.02-.02-.02-.04-.02-.04-.02h-.17q-.07.07-.13.07,0-.07-.07-.07-.07,0-.07.07h-.39c-.26,0-.71,0-1.29-.07-4.65.07-11.5.13-20.54.07h-.97c-.06.07-.19.07-.25.07h-.33c-.13-.07-.19-.07-.26-.07-.13.07-.32.07-.58.07h-.58c-.26-.07-.45-.07-.65-.07-.52.07-1.68.07-4.26.13l-.07.07c-.33.07-.77.19-1.29.26-.13,0-.26.07-.39.19h-.13l-.39.39c.07,0,.07.07,0,.13l-.26.32v.26q-.06,0-.13.07l-.26.65c0,.13.07.39.13.7,0,.13.06.33.13.65,0,.07.07.19.19.45q0,.07.07.13l.58.64c.07.07.33.2.65.26v.07l.19.07c.45.13,1.49.19,3.04.25,2.9.07,5.62.07,8.14,0,.07,0,.39-.13.45-.13,0,.07.07.07.13.13.13,0,.19-.06.26-.13h.19c-.26.07.71.07,2.84.13.58-.06,1.36-.06,2.46-.13.88.06,1.28.07,1.19.12l.35-.12c.19,0,.59.07.78.13h1.75c2.26-.06,3.88-.13,4.97-.13.45,0,1.36.13,1.69.13.25,0,.77-.13.96-.13q.07.07.07.13c.06,0,.32-.13.39-.13h3.36c.71-.07,1.29-.07,1.68-.07.72.05,1.1.07,1.17.07.45,0,.39.07.71,0,.84.07,1.23,0,1.29-.07.06-.06.25-.06.65,0q.06,0,.06-.06c.65-.07,1.04-.19,1.17-.39h.13v-.13q.07.07.13,0v-.07h.19q0-.06.07-.13c.19-.19.32-.39.44-.65,0,0,.13-.32.33-.52v-.32c0-.06,0-.07.04-.07-.04-.11-.06-.69-.11-1.75ZM307.66,269.91l-.45-.91c-.39-.52-.96-.91-1.75-1.17-1.16-.32-3.36-.45-6.59-.39-1.42-.07-3.36-.07-5.87,0-.13.07-.2.07-.13.13-.45,0-1.23-.13-1.49-.13-.91-.07-1.61,0-2.2.13l-.9.26-.13.19c-.32.07-.77.19-1.29.39-.32.2-.45.45-.45.78,0,0-.06.07-.13.13v.59c-.07.06-.13.13-.19.13-.19,1.36-.07,2.13.32,2.39.19.19.45.32.91.26.84-.06,1.33-.12,1.42-.13,0,.07.07.07.13.13h1.03c4.72.06,9.76.06,15.25,0,.58.06,1.42-.07,2.52-.26.39-.65.39-1.49,0-2.52ZM373.37,279.84c-.08-.18-.08-.44-.08-.87,0-.18,0-.44.08-.88,0-.08,0-.18-.08-.34v-3.68c-.09-1.75-.35-2.8-.96-3.15-.08-.08-.35-.18-.79-.26-1.49-.26-2.97-.35-4.46-.18,0,.09-.09.09-.27.09h-1.31c-.26,0-.7.08-1.23.17.08.44.08,1.14,0,2.01,0,.27,0,.61-.08,1.05v.35q0,.09-.09.09.09.08.09.17c.08.09.08.18,0,.44-.09,3.32-.18,5.77-.18,7.26v2.36c.18.61.18,1.32.08,2.19.09.87.09,2.19,0,3.94v1.05c.26.09.87.09,1.92.18h4.29c0-.08.44,0,1.14-.26h.26c.09,0,.18,0,.61-.26,0-.09.18-.35.26-.35v-.26c.09-.09.44-.44.7-3.59.08-1.13.08-2.36.08-3.58h-.08c-.09-.09,0-.18.08-.27.09-.61.09-1.75,0-3.41ZM402.6,318.16l-.44-3.42c-.09-.44-.27-1.05-.35-2.01v-2.71c-.09-.96-.44-1.49-1.05-1.66h-.35c0,.26-.53.44-.44.79-.09.08-.18.52-.18,1.23-.08,1.31-.18,2.45-.44,3.23.08.09.08.27,0,.53l-.79,4.03c.08.34.08.87,0,1.57l-.18.26v.35c-.26,1.93-.35,3.06-.18,3.42.53.26,1.75.26,3.77,0,.08,0,.08.08.18.18.26-.09.52-.27.87-.35.08-.79,0-2.53-.44-5.42ZM402.6,318.16l-.44-3.42c-.09-.44-.27-1.05-.35-2.01v-2.71c-.09-.96-.44-1.49-1.05-1.66h-.35c0,.26-.53.44-.44.79-.09.08-.18.52-.18,1.23-.08,1.31-.18,2.45-.44,3.23.08.09.08.27,0,.53l-.79,4.03c.08.34.08.87,0,1.57l-.18.26v.35c-.26,1.93-.35,3.06-.18,3.42.53.26,1.75.26,3.77,0,.08,0,.08.08.18.18.26-.09.52-.27.87-.35.08-.79,0-2.53-.44-5.42ZM373.37,279.84c-.08-.18-.08-.44-.08-.87,0-.18,0-.44.08-.88,0-.08,0-.18-.08-.34v-3.68c-.09-1.75-.35-2.8-.96-3.15-.08-.08-.35-.18-.79-.26-1.49-.26-2.97-.35-4.46-.18,0,.09-.09.09-.27.09h-1.31c-.26,0-.7.08-1.23.17.08.44.08,1.14,0,2.01,0,.27,0,.61-.08,1.05v.35q0,.09-.09.09.09.08.09.17c.08.09.08.18,0,.44-.09,3.32-.18,5.77-.18,7.26v2.36c.18.61.18,1.32.08,2.19.09.87.09,2.19,0,3.94v1.05c.26.09.87.09,1.92.18h4.29c0-.08.44,0,1.14-.26h.26c.09,0,.18,0,.61-.26,0-.09.18-.35.26-.35v-.26c.09-.09.44-.44.7-3.59.08-1.13.08-2.36.08-3.58h-.08c-.09-.09,0-.18.08-.27.09-.61.09-1.75,0-3.41ZM333.18,293.7c-.19-.19-.19-.39-1.16-.96-.33-.19-1.36-.33-3.17-.39-3.03-.07-4.58-.13-4.65-.13-.29,0-.44,0-.44.02-.02-.02-.04-.02-.04-.02h-.17q-.07.07-.13.07,0-.07-.07-.07-.07,0-.07.07h-.39c-.26,0-.71,0-1.29-.07-4.65.07-11.5.13-20.54.07h-.97c-.06.07-.19.07-.25.07h-.33c-.13-.07-.19-.07-.26-.07-.13.07-.32.07-.58.07h-.58c-.26-.07-.45-.07-.65-.07-.52.07-1.68.07-4.26.13l-.07.07c-.33.07-.77.19-1.29.26-.13,0-.26.07-.39.19h-.13l-.39.39c.07,0,.07.07,0,.13l-.26.32v.26q-.06,0-.13.07l-.26.65c0,.13.07.39.13.7,0,.13.06.33.13.65,0,.07.07.19.19.45q0,.07.07.13l.58.64c.07.07.33.2.65.26v.07l.19.07c.45.13,1.49.19,3.04.25,2.9.07,5.62.07,8.14,0,.07,0,.39-.13.45-.13,0,.07.07.07.13.13.13,0,.19-.06.26-.13h.19c-.26.07.71.07,2.84.13.58-.06,1.36-.06,2.46-.13.88.06,1.28.07,1.19.12l.35-.12c.19,0,.59.07.78.13h1.75c2.26-.06,3.88-.13,4.97-.13.45,0,1.36.13,1.69.13.25,0,.77-.13.96-.13q.07.07.07.13c.06,0,.32-.13.39-.13h3.36c.71-.07,1.29-.07,1.68-.07.72.05,1.1.07,1.17.07.45,0,.39.07.71,0,.84.07,1.23,0,1.29-.07.06-.06.25-.06.65,0q.06,0,.06-.06c.65-.07,1.04-.19,1.17-.39h.13v-.13q.07.07.13,0v-.07h.19q0-.06.07-.13c.19-.19.32-.39.44-.65,0,0,.13-.32.33-.52v-.32c0-.06,0-.07.04-.07-.04-.11-.06-.69-.11-1.75ZM307.66,269.91l-.45-.91c-.39-.52-.96-.91-1.75-1.17-1.16-.32-3.36-.45-6.59-.39-1.42-.07-3.36-.07-5.87,0-.13.07-.2.07-.13.13-.45,0-1.23-.13-1.49-.13-.91-.07-1.61,0-2.2.13l-.9.26-.13.19c-.32.07-.77.19-1.29.39-.32.2-.45.45-.45.78,0,0-.06.07-.13.13v.59c-.07.06-.13.13-.19.13-.19,1.36-.07,2.13.32,2.39.19.19.45.32.91.26.84-.06,1.33-.12,1.42-.13,0,.07.07.07.13.13h1.03c4.72.06,9.76.06,15.25,0,.58.06,1.42-.07,2.52-.26.39-.65.39-1.49,0-2.52ZM222.39,293.23l-.71-3.42c-.08-.78-.17-2.01-.44-3.68-.08-.17-.26-.44-.34-.78-.09-.09-.27-.18-.35-.35l-.79-2.27c-.7-1.75-.35-.71-1.14-2.98-.34-.26-.78-.61-1.49-1.92l-.7-.35v-.79l-1.14-1.05c-.34-.08-.87-.18-1.49-.44-.26-.44-1.05-.79-3.06-1.49-.44-.26-1.05-.44-1.84-.7-.26.08-.7.26-1.13.34,0-.18-.09-.26-.35-.34h-1.14c0,.26-.44.7-.34,1.05-.09,1.39-.09,3.32,0,5.68.08.44.26,1.06.34,1.84,0,.35-.34,1.05-.34,1.49.08.44.08,1.23,0,2.27-.18.44-.09.87.34,1.13.18.09.18,1.49,0,4.11,0,.61-.34,1.84-.34,2.27,0,.27.34.61.34.7.27,1.13.27,2.63.18,4.46-.18,2.19-.26,3.59-.18,4.2.27,3.15.35,4.81.35,4.9,0,.44-.35,1.75-.35,2.18,0,.35.35.53.35.79v1.14c.08,2.01.18,4.9.08,8.48-.08,3.77-.17,6.56-.08,8.4.61,0,1.14-.7,1.92-.44.44.08.35,1.58,1.06,1.49.26-.08.26-.44.17-.96-.26-.96,1.14-.7,3.24-2.01l1.14-1.14s.79-.7,2.27-2.18l1.84-3.06c.18-.09.44-.35.79-.71,0-.44.52-1.4,1.49-3.76,0-.26.08-.61.35-1.14.26-.26.34-1.05.44-2.18.08-.96.34-1.66.7-1.93v-.79c.7-5.68.79-11.11.35-16.09ZM174.88,318.07c-.08-.44-.18-.79-.34-.96v-.34c0-.79-.09-1.75-.18-2.98h-.27c.09-.08.09-.26,0-.44l-.78-1.58c-.09,0-.27-.17-.53-.17-.35.08-.52-.18-1.23,2.53,0,.08-.08.18-.18.26-.44,1.75-.52,3.68-.44,5.87,0,.7.18,1.66.61,2.79,1.4.53,2.63.35,3.59-.61.17-.87.08-2.36-.27-4.37ZM174.88,318.07c-.08-.44-.18-.79-.34-.96v-.34c0-.79-.09-1.75-.18-2.98h-.27c.09-.08.09-.26,0-.44l-.78-1.58c-.09,0-.27-.17-.53-.17-.35.08-.52-.18-1.23,2.53,0,.08-.08.18-.18.26-.44,1.75-.52,3.68-.44,5.87,0,.7.18,1.66.61,2.79,1.4.53,2.63.35,3.59-.61.17-.87.08-2.36-.27-4.37ZM222.39,293.23l-.71-3.42c-.08-.78-.17-2.01-.44-3.68-.08-.17-.26-.44-.34-.78-.09-.09-.27-.18-.35-.35l-.79-2.27c-.7-1.75-.35-.71-1.14-2.98-.34-.26-.78-.61-1.49-1.92l-.7-.35v-.79l-1.14-1.05c-.34-.08-.87-.18-1.49-.44-.26-.44-1.05-.79-3.06-1.49-.44-.26-1.05-.44-1.84-.7-.26.08-.7.26-1.13.34,0-.18-.09-.26-.35-.34h-1.14c0,.26-.44.7-.34,1.05-.09,1.39-.09,3.32,0,5.68.08.44.26,1.06.34,1.84,0,.35-.34,1.05-.34,1.49.08.44.08,1.23,0,2.27-.18.44-.09.87.34,1.13.18.09.18,1.49,0,4.11,0,.61-.34,1.84-.34,2.27,0,.27.34.61.34.7.27,1.13.27,2.63.18,4.46-.18,2.19-.26,3.59-.18,4.2.27,3.15.35,4.81.35,4.9,0,.44-.35,1.75-.35,2.18,0,.35.35.53.35.79v1.14c.08,2.01.18,4.9.08,8.48-.08,3.77-.17,6.56-.08,8.4.61,0,1.14-.7,1.92-.44.44.08.35,1.58,1.06,1.49.26-.08.26-.44.17-.96-.26-.96,1.14-.7,3.24-2.01l1.14-1.14s.79-.7,2.27-2.18l1.84-3.06c.18-.09.44-.35.79-.71,0-.44.52-1.4,1.49-3.76,0-.26.08-.61.35-1.14.26-.26.34-1.05.44-2.18.08-.96.34-1.66.7-1.93v-.79c.7-5.68.79-11.11.35-16.09ZM333.18,293.7c-.19-.19-.19-.39-1.16-.96-.33-.19-1.36-.33-3.17-.39-3.03-.07-4.58-.13-4.65-.13-.29,0-.44,0-.44.02-.02-.02-.04-.02-.04-.02h-.17q-.07.07-.13.07,0-.07-.07-.07-.07,0-.07.07h-.39c-.26,0-.71,0-1.29-.07-4.65.07-11.5.13-20.54.07h-.97c-.06.07-.19.07-.25.07h-.33c-.13-.07-.19-.07-.26-.07-.13.07-.32.07-.58.07h-.58c-.26-.07-.45-.07-.65-.07-.52.07-1.68.07-4.26.13l-.07.07c-.33.07-.77.19-1.29.26-.13,0-.26.07-.39.19h-.13l-.39.39c.07,0,.07.07,0,.13l-.26.32v.26q-.06,0-.13.07l-.26.65c0,.13.07.39.13.7,0,.13.06.33.13.65,0,.07.07.19.19.45q0,.07.07.13l.58.64c.07.07.33.2.65.26v.07l.19.07c.45.13,1.49.19,3.04.25,2.9.07,5.62.07,8.14,0,.07,0,.39-.13.45-.13,0,.07.07.07.13.13.13,0,.19-.06.26-.13h.19c-.26.07.71.07,2.84.13.58-.06,1.36-.06,2.46-.13.88.06,1.28.07,1.19.12l.35-.12c.19,0,.59.07.78.13h1.75c2.26-.06,3.88-.13,4.97-.13.45,0,1.36.13,1.69.13.25,0,.77-.13.96-.13q.07.07.07.13c.06,0,.32-.13.39-.13h3.36c.71-.07,1.29-.07,1.68-.07.72.05,1.1.07,1.17.07.45,0,.39.07.71,0,.84.07,1.23,0,1.29-.07.06-.06.25-.06.65,0q.06,0,.06-.06c.65-.07,1.04-.19,1.17-.39h.13v-.13q.07.07.13,0v-.07h.19q0-.06.07-.13c.19-.19.32-.39.44-.65,0,0,.13-.32.33-.52v-.32c0-.06,0-.07.04-.07-.04-.11-.06-.69-.11-1.75ZM307.66,269.91l-.45-.91c-.39-.52-.96-.91-1.75-1.17-1.16-.32-3.36-.45-6.59-.39-1.42-.07-3.36-.07-5.87,0-.13.07-.2.07-.13.13-.45,0-1.23-.13-1.49-.13-.91-.07-1.61,0-2.2.13l-.9.26-.13.19c-.32.07-.77.19-1.29.39-.32.2-.45.45-.45.78,0,0-.06.07-.13.13v.59c-.07.06-.13.13-.19.13-.19,1.36-.07,2.13.32,2.39.19.19.45.32.91.26.84-.06,1.33-.12,1.42-.13,0,.07.07.07.13.13h1.03c4.72.06,9.76.06,15.25,0,.58.06,1.42-.07,2.52-.26.39-.65.39-1.49,0-2.52ZM373.37,279.84c-.08-.18-.08-.44-.08-.87,0-.18,0-.44.08-.88,0-.08,0-.18-.08-.34v-3.68c-.09-1.75-.35-2.8-.96-3.15-.08-.08-.35-.18-.79-.26-1.49-.26-2.97-.35-4.46-.18,0,.09-.09.09-.27.09h-1.31c-.26,0-.7.08-1.23.17.08.44.08,1.14,0,2.01,0,.27,0,.61-.08,1.05v.35q0,.09-.09.09.09.08.09.17c.08.09.08.18,0,.44-.09,3.32-.18,5.77-.18,7.26v2.36c.18.61.18,1.32.08,2.19.09.87.09,2.19,0,3.94v1.05c.26.09.87.09,1.92.18h4.29c0-.08.44,0,1.14-.26h.26c.09,0,.18,0,.61-.26,0-.09.18-.35.26-.35v-.26c.09-.09.44-.44.7-3.59.08-1.13.08-2.36.08-3.58h-.08c-.09-.09,0-.18.08-.27.09-.61.09-1.75,0-3.41ZM402.6,318.16l-.44-3.42c-.09-.44-.27-1.05-.35-2.01v-2.71c-.09-.96-.44-1.49-1.05-1.66h-.35c0,.26-.53.44-.44.79-.09.08-.18.52-.18,1.23-.08,1.31-.18,2.45-.44,3.23.08.09.08.27,0,.53l-.79,4.03c.08.34.08.87,0,1.57l-.18.26v.35c-.26,1.93-.35,3.06-.18,3.42.53.26,1.75.26,3.77,0,.08,0,.08.08.18.18.26-.09.52-.27.87-.35.08-.79,0-2.53-.44-5.42ZM402.6,318.16l-.44-3.42c-.09-.44-.27-1.05-.35-2.01v-2.71c-.09-.96-.44-1.49-1.05-1.66h-.35c0,.26-.53.44-.44.79-.09.08-.18.52-.18,1.23-.08,1.31-.18,2.45-.44,3.23.08.09.08.27,0,.53l-.79,4.03c.08.34.08.87,0,1.57l-.18.26v.35c-.26,1.93-.35,3.06-.18,3.42.53.26,1.75.26,3.77,0,.08,0,.08.08.18.18.26-.09.52-.27.87-.35.08-.79,0-2.53-.44-5.42ZM373.37,279.84c-.08-.18-.08-.44-.08-.87,0-.18,0-.44.08-.88,0-.08,0-.18-.08-.34v-3.68c-.09-1.75-.35-2.8-.96-3.15-.08-.08-.35-.18-.79-.26-1.49-.26-2.97-.35-4.46-.18,0,.09-.09.09-.27.09h-1.31c-.26,0-.7.08-1.23.17.08.44.08,1.14,0,2.01,0,.27,0,.61-.08,1.05v.35q0,.09-.09.09.09.08.09.17c.08.09.08.18,0,.44-.09,3.32-.18,5.77-.18,7.26v2.36c.18.61.18,1.32.08,2.19.09.87.09,2.19,0,3.94v1.05c.26.09.87.09,1.92.18h4.29c0-.08.44,0,1.14-.26h.26c.09,0,.18,0,.61-.26,0-.09.18-.35.26-.35v-.26c.09-.09.44-.44.7-3.59.08-1.13.08-2.36.08-3.58h-.08c-.09-.09,0-.18.08-.27.09-.61.09-1.75,0-3.41ZM307.66,269.91l-.45-.91c-.39-.52-.96-.91-1.75-1.17-1.16-.32-3.36-.45-6.59-.39-1.42-.07-3.36-.07-5.87,0-.13.07-.2.07-.13.13-.45,0-1.23-.13-1.49-.13-.91-.07-1.61,0-2.2.13l-.9.26-.13.19c-.32.07-.77.19-1.29.39-.32.2-.45.45-.45.78,0,0-.06.07-.13.13v.59c-.07.06-.13.13-.19.13-.19,1.36-.07,2.13.32,2.39.19.19.45.32.91.26.84-.06,1.33-.12,1.42-.13,0,.07.07.07.13.13h1.03c4.72.06,9.76.06,15.25,0,.58.06,1.42-.07,2.52-.26.39-.65.39-1.49,0-2.52ZM333.18,293.7c-.19-.19-.19-.39-1.16-.96-.33-.19-1.36-.33-3.17-.39-3.03-.07-4.58-.13-4.65-.13-.29,0-.44,0-.44.02-.02-.02-.04-.02-.04-.02h-.17q-.07.07-.13.07,0-.07-.07-.07-.07,0-.07.07h-.39c-.26,0-.71,0-1.29-.07-4.65.07-11.5.13-20.54.07h-.97c-.06.07-.19.07-.25.07h-.33c-.13-.07-.19-.07-.26-.07-.13.07-.32.07-.58.07h-.58c-.26-.07-.45-.07-.65-.07-.52.07-1.68.07-4.26.13l-.07.07c-.33.07-.77.19-1.29.26-.13,0-.26.07-.39.19h-.13l-.39.39c.07,0,.07.07,0,.13l-.26.32v.26q-.06,0-.13.07l-.26.65c0,.13.07.39.13.7,0,.13.06.33.13.65,0,.07.07.19.19.45q0,.07.07.13l.58.64c.07.07.33.2.65.26v.07l.19.07c.45.13,1.49.19,3.04.25,2.9.07,5.62.07,8.14,0,.07,0,.39-.13.45-.13,0,.07.07.07.13.13.13,0,.19-.06.26-.13h.19c-.26.07.71.07,2.84.13.58-.06,1.36-.06,2.46-.13.88.06,1.28.07,1.19.12l.35-.12c.19,0,.59.07.78.13h1.75c2.26-.06,3.88-.13,4.97-.13.45,0,1.36.13,1.69.13.25,0,.77-.13.96-.13q.07.07.07.13c.06,0,.32-.13.39-.13h3.36c.71-.07,1.29-.07,1.68-.07.72.05,1.1.07,1.17.07.45,0,.39.07.71,0,.84.07,1.23,0,1.29-.07.06-.06.25-.06.65,0q.06,0,.06-.06c.65-.07,1.04-.19,1.17-.39h.13v-.13q.07.07.13,0v-.07h.19q0-.06.07-.13c.19-.19.32-.39.44-.65,0,0,.13-.32.33-.52v-.32c0-.06,0-.07.04-.07-.04-.11-.06-.69-.11-1.75ZM222.39,293.23l-.71-3.42c-.08-.78-.17-2.01-.44-3.68-.08-.17-.26-.44-.34-.78-.09-.09-.27-.18-.35-.35l-.79-2.27c-.7-1.75-.35-.71-1.14-2.98-.34-.26-.78-.61-1.49-1.92l-.7-.35v-.79l-1.14-1.05c-.34-.08-.87-.18-1.49-.44-.26-.44-1.05-.79-3.06-1.49-.44-.26-1.05-.44-1.84-.7-.26.08-.7.26-1.13.34,0-.18-.09-.26-.35-.34h-1.14c0,.26-.44.7-.34,1.05-.09,1.39-.09,3.32,0,5.68.08.44.26,1.06.34,1.84,0,.35-.34,1.05-.34,1.49.08.44.08,1.23,0,2.27-.18.44-.09.87.34,1.13.18.09.18,1.49,0,4.11,0,.61-.34,1.84-.34,2.27,0,.27.34.61.34.7.27,1.13.27,2.63.18,4.46-.18,2.19-.26,3.59-.18,4.2.27,3.15.35,4.81.35,4.9,0,.44-.35,1.75-.35,2.18,0,.35.35.53.35.79v1.14c.08,2.01.18,4.9.08,8.48-.08,3.77-.17,6.56-.08,8.4.61,0,1.14-.7,1.92-.44.44.08.35,1.58,1.06,1.49.26-.08.26-.44.17-.96-.26-.96,1.14-.7,3.24-2.01l1.14-1.14s.79-.7,2.27-2.18l1.84-3.06c.18-.09.44-.35.79-.71,0-.44.52-1.4,1.49-3.76,0-.26.08-.61.35-1.14.26-.26.34-1.05.44-2.18.08-.96.34-1.66.7-1.93v-.79c.7-5.68.79-11.11.35-16.09ZM174.88,318.07c-.08-.44-.18-.79-.34-.96v-.34c0-.79-.09-1.75-.18-2.98h-.27c.09-.08.09-.26,0-.44l-.78-1.58c-.09,0-.27-.17-.53-.17-.35.08-.52-.18-1.23,2.53,0,.08-.08.18-.18.26-.44,1.75-.52,3.68-.44,5.87,0,.7.18,1.66.61,2.79,1.4.53,2.63.35,3.59-.61.17-.87.08-2.36-.27-4.37ZM382.25,131.23c0,2.64-2.15,4.8-4.8,4.8s-4.8-2.16-4.8-4.8,2.15-4.8,4.8-4.8,4.8,2.15,4.8,4.8ZM397.36,111.32v39.96h-39.95v-39.96h39.95ZM389.35,131.23c0-6.58-5.32-11.9-11.9-11.9s-11.9,5.32-11.9,11.9,5.33,11.9,11.9,11.9,11.9-5.33,11.9-11.9ZM225.43,131.23c0,2.64-2.15,4.8-4.8,4.8s-4.8-2.16-4.8-4.8,2.15-4.8,4.8-4.8,4.8,2.15,4.8,4.8ZM240.54,111.32v39.96h-39.95v-39.96h39.95ZM232.53,131.23c0-6.58-5.32-11.9-11.9-11.9s-11.9,5.32-11.9,11.9,5.33,11.9,11.9,11.9,11.9-5.33,11.9-11.9ZM382.25,468.71c0,2.64-2.15,4.8-4.8,4.8s-4.8-2.16-4.8-4.8,2.15-4.8,4.8-4.8,4.8,2.15,4.8,4.8ZM397.36,448.8v39.96h-39.95v-39.96h39.95ZM389.35,468.71c0-6.58-5.32-11.9-11.9-11.9s-11.9,5.32-11.9,11.9,5.33,11.9,11.9,11.9,11.9-5.33,11.9-11.9ZM225.43,468.71c0,2.64-2.15,4.8-4.8,4.8s-4.8-2.16-4.8-4.8,2.15-4.8,4.8-4.8,4.8,2.15,4.8,4.8ZM240.54,448.8v39.96h-39.95v-39.96h39.95ZM232.53,468.71c0-6.58-5.32-11.9-11.9-11.9s-11.9,5.32-11.9,11.9,5.33,11.9,11.9,11.9,11.9-5.33,11.9-11.9ZM305.27,111.32h39.81v13.6h-39.81v-13.6ZM279.07,111.32v39.81h13.61v-39.81h-13.61ZM344.95,83.41c-4.49-.93-9.03-1.73-13.61-2.37v18.23h13.61v-15.86ZM331.34,202.97h13.61v-39.81h-13.61v39.81ZM357.55,176.77h39.81v-13.6h-39.81v13.6ZM266.46,111.32h-13.6v39.81h13.6v-39.81ZM253,202.97h39.81v-13.6h-39.81v13.6ZM305.27,151.12h39.81v-13.6h-39.81v13.6ZM357.55,202.97h39.81v-13.6h-39.81v13.6ZM409.68,202.97h13.6v-39.81h-13.6v39.81ZM435.89,202.97h13.61v-39.81h-13.61v39.81ZM409.82,151.12h39.81v-13.6h-39.81v13.6ZM461.96,149.63v1.5h1.38c-.45-.5-.91-1-1.38-1.5ZM226.79,202.97h13.61v-39.81h-13.61v39.81ZM357.55,86.41v12.86h35.33c-11.29-5.24-23.1-9.57-35.33-12.86ZM148.45,202.97h39.81v-13.6h-39.81v13.6ZM253,99.27h39.81v-13.6h-39.81v13.6ZM462.09,176.77h21.31c-3.12-4.67-6.42-9.21-9.89-13.6h-11.42v13.6ZM200.59,202.97h13.6v-39.81h-13.6v39.81ZM188.12,111.32h-3.43c-3.46,2.12-6.86,4.34-10.18,6.65v33.16h13.61v-39.81ZM305.13,202.97h13.6v-39.81h-13.6v39.81ZM240.4,86.98c-4.6,1.28-9.14,2.72-13.61,4.29v8.01h13.61v-12.3ZM122.24,168.73v34.25h13.61v-39.81h-9.37c-1.44,1.83-2.86,3.68-4.24,5.56ZM161.91,127.38c-4.69,3.76-9.23,7.72-13.6,11.86v11.88h13.6v-23.74ZM491.26,189.37h-29.16v13.6h36.39c-2.25-4.62-4.66-9.16-7.22-13.6ZM109.64,202.97v-15.14c-2.9,4.93-5.61,9.98-8.12,15.14h8.12ZM214.19,96.14c-2.38,1-4.73,2.05-7.07,3.14h7.07v-3.14ZM148.45,176.77h39.81v-13.6h-39.81v13.6ZM415.3,111.32h-5.48v13.6h25.14c-6.29-4.89-12.85-9.43-19.66-13.6ZM318.73,79.61c-1.1-.09-2.19-.17-3.29-.25h-10.31v19.91h13.6v-19.66ZM253,176.77h39.81v-13.6h-39.81v13.6ZM294.73,488.68h-39.81v-13.6h39.81v13.6ZM320.94,488.68v-39.81h-13.61v39.81h13.61ZM255.05,516.59c4.49.93,9.03,1.73,13.61,2.37v-18.23h-13.61v15.86ZM268.66,397.03h-13.61v39.81h13.61v-39.81ZM242.46,423.23h-39.81v13.6h39.81v-13.6ZM333.54,488.68h13.6v-39.81h-13.6v39.81ZM347.01,397.03h-39.81v13.6h39.81v-13.6ZM294.73,448.88h-39.81v13.6h39.81v-13.6ZM242.46,397.03h-39.81v13.6h39.81v-13.6ZM190.32,397.03h-13.6v39.81h13.6v-39.81ZM164.11,397.03h-13.61v39.81h13.61v-39.81ZM190.18,448.88h-39.81v13.6h39.81v-13.6ZM138.04,450.37v-1.5h-1.38c.45.5.91,1,1.38,1.5ZM373.21,397.03h-13.61v39.81h13.61v-39.81ZM242.46,513.59v-12.86h-35.33c11.29,5.24,23.1,9.57,35.33,12.86ZM451.55,397.03h-39.81v13.6h39.81v-13.6ZM347.01,500.73h-39.81v13.6h39.81v-13.6ZM137.91,423.23h-21.31c3.12,4.67,6.42,9.21,9.89,13.6h11.42v-13.6ZM399.42,397.03h-13.6v39.81h13.6v-39.81ZM411.88,488.68h3.43c3.46-2.12,6.86-4.34,10.18-6.65v-33.16h-13.61v39.81ZM294.87,397.03h-13.6v39.81h13.6v-39.81ZM359.6,513.03c4.6-1.28,9.14-2.72,13.61-4.29v-8.01h-13.61v12.3ZM477.76,431.27v-34.25h-13.61v39.81h9.37c1.44-1.83,2.86-3.68,4.24-5.56ZM438.09,472.62c4.69-3.76,9.23-7.72,13.6-11.86v-11.88h-13.6v23.74ZM108.74,410.63h29.16v-13.6h-36.39c2.25,4.62,4.66,9.16,7.22,13.6ZM490.37,397.03v15.14c2.9-4.93,5.61-9.98,8.12-15.14h-8.12ZM385.82,503.86c2.38-1,4.73-2.05,7.07-3.14h-7.07v3.14ZM451.55,423.23h-39.81v13.6h39.81v-13.6ZM184.7,488.68h5.48v-13.6h-25.14c6.29,4.89,12.85,9.43,19.66,13.6ZM281.27,520.39c1.1.09,2.19.17,3.29.25h10.31v-19.91h-13.6v19.66ZM347.01,423.23h-39.81v13.6h39.81v-13.6ZM530.35,202.68c-12.59-29.78-30.62-56.51-53.57-79.47-22.96-22.95-49.69-40.97-79.47-53.57-30.83-13.04-63.57-19.65-97.32-19.65s-66.49,6.61-97.32,19.65c-29.78,12.6-56.51,30.62-79.46,53.57-22.96,22.96-40.98,49.69-53.57,79.47-13.04,30.83-19.65,63.57-19.65,97.32s6.61,66.49,19.65,97.32c12.6,29.78,30.62,56.51,53.57,79.47,22.95,22.95,49.68,40.98,79.46,53.57,30.83,13.04,63.57,19.65,97.32,19.65s66.49-6.61,97.32-19.65c29.78-12.59,56.51-30.62,79.47-53.57,22.95-22.96,40.98-49.69,53.57-79.47,13.04-30.83,19.65-63.57,19.65-97.32s-6.61-66.49-19.65-97.32ZM300,532.07c-128.16,0-232.07-103.9-232.07-232.07s103.9-232.07,232.07-232.07,232.07,103.9,232.07,232.07-103.89,232.07-232.07,232.07Z"/>
</svg>