<?xml version="1.0" encoding="UTF-8"?>
<svg id="Layer_1" data-name="Layer 1" xmlns="http://www.w3.org/2000/svg" viewBox="0 0 600 600">
  <path d="M256.24,396.42h-41.83l8.98-15.94h41.03c1.71-3.34,3.38-6.6,4.98-9.71h-41.42l8.98-15.95h40.6c4.96-9.7,8.15-15.94,8.15-15.94h28.59s3.18,6.24,8.15,15.94h40.6l8.98,15.95h-41.42c1.6,3.12,3.26,6.37,4.98,9.71h41.03l8.98,15.94h-41.83c4.28,8.33,8.63,16.79,12.75,24.79h-17.71c-3.55-5.24-9.55-8.68-16.36-8.68-3.18,0-6.19.75-8.86,2.09l17.91,35.21c4.95-2.56,8.69-7.15,10.09-12.68h23.16c5.95,11.49,10.76,20.69,13.14,25.06,10.08,18.51,13.01,33.17,0,51.13-13.01,17.96-47.01,12.65-47.01,12.65l-25.68-51.87h-10.41l-25.68,51.87s-34,5.32-47.01-12.65c-13.01-17.96-10.08-32.62,0-51.13,2.38-4.37,7.19-13.57,13.14-25.06h23.16c1.41,5.52,5.14,10.12,10.09,12.68l17.91-35.21c-2.66-1.34-5.67-2.09-8.86-2.09-6.81,0-12.81,3.44-16.36,8.68h-17.71c4.12-8,8.48-16.46,12.75-24.79Z"/>
  <path d="M428.75,237.54l20.25,36.6-18.3-.14-19.87-35.9c-3.76.12-7.41.24-10.91.35l20.06,36.24-18.3-.14-19.66-35.52c-10.89.35-17.9.59-17.9.59l-13.85-25.02s3.92-5.81,10-14.85l-19.66-35.52,9.6-15.58,20.06,36.24c1.95-2.91,3.99-5.94,6.09-9.06l-19.87-35.9,9.6-15.58,20.25,36.6c5.22-7.78,10.51-15.68,15.52-23.16l8.57,15.49c-2.87,5.64-2.97,12.56.32,18.52,1.54,2.79,3.66,5.05,6.12,6.73l22.14-32.71c-4.64-3.1-10.46-4.14-15.98-2.69l-11.22-20.27c7.17-10.77,12.89-19.43,15.56-23.63,11.31-17.78,22.72-27.45,44.74-24.76,22.01,2.69,33.83,35.01,33.83,35.01l-32.95,47.58,5.04,9.11,57.81-2.65s21.11,27.17,11.7,47.25c-9.41,20.08-23.66,24.62-44.74,24.76-4.98.03-15.35.28-28.29.64l-11.22-20.27c4.15-3.9,6.37-9.39,6.2-14.97l-39.48,1.38c.12,2.98.91,5.98,2.46,8.76,3.3,5.95,9.22,9.54,15.52,10.11l8.57,15.49c-9,.27-18.51.55-27.87.85Z"/>
  <path d="M170.17,237.73l-21.25,36.03,18.29.37,20.84-35.34c3.75.22,7.4.44,10.89.65l-21.04,35.68,18.3.36,20.62-34.97c10.88.65,17.87,1.08,17.87,1.08l14.53-24.63s-3.76-5.91-9.59-15.12l20.62-34.97-9.17-15.84-21.04,35.68c-1.87-2.96-3.83-6.05-5.84-9.22l20.84-35.34-9.17-15.83-21.25,36.03c-5-7.92-10.08-15.96-14.88-23.58l-8.99,15.25c2.71,5.72,2.63,12.64-.83,18.5-1.62,2.74-3.8,4.95-6.3,6.56l-21.23-33.31c4.72-2.97,10.57-3.85,16.04-2.25l11.77-19.95c-6.87-10.96-12.35-19.78-14.91-24.05-10.82-18.08-21.96-28.06-44.04-25.98-22.08,2.08-34.77,34.07-34.77,34.07l31.63,48.47-5.29,8.97-57.72-4.23s-21.85,26.58-12.99,46.92c8.86,20.33,22.98,25.25,44.04,25.98,4.98.17,15.34.7,28.26,1.41l11.77-19.95c-4.04-4.02-6.11-9.57-5.79-15.13l39.42,2.46c-.2,2.98-1.08,5.95-2.7,8.69-3.46,5.86-9.47,9.28-15.79,9.68l-8.99,15.25c8.99.51,18.48,1.06,27.83,1.61Z"/>
  <circle cx="300" cy="270.73" r="45.16"/>
</svg>