<?xml version="1.0" encoding="UTF-8"?>
<svg id="Layer_1" data-name="Layer 1" xmlns="http://www.w3.org/2000/svg" viewBox="0 0 128 128">
  <path d="M115.25,18.93v5.44c-4.42,25.9-11.06,51.14-16.46,76.76-1.45,6.87-1.1,16.35-10.14,13.8-2.02-.57-4.33-3.37-5.85-4.57-6.25-4.95-12.71-9.73-18.18-15.82-.76-.15-6.83,6.1-7.63,7.3-.72,1.09-.53,2.54-1.68,3.48-1.49,1.22-6.59,2.97-8.26,1.74-1.49-1.1.42-9.93.62-12.28.32-3.93.43-16.15,1.84-18.92.21-.42,5.47-5.52,6.33-6.34,8.69-8.24,18.87-15.06,26.78-24.48l-30.13,18.39-12.54,8.78c-.86.2-1.63-.13-2.44-.36-5.14-1.5-11.29-5.13-16.86-6.96-3.71-1.22-8.63-.61-10.25-5.17v-2.72c1.56-3.65,5.29-6.24,8.39-7.88,15.27-8.08,34.17-12.94,50.21-19.15,13.12-5.07,25.84-11.39,38.65-17.42,4.62-1.03,6.29,1.75,7.58,6.39ZM51.43,101.57c2.13-3.16,4.09-5.6,6.76-8.14,1.32-1.25,5.56-5.16,6.95-4.93.56.09,7.32,7.18,8.7,8.39,4.04,3.56,11.4,10.21,15.62,12.76,2.09,1.26,3.07.53,3.77-1.97,1.59-5.66,2.52-13.77,3.89-19.93,4.14-18.59,12.22-45.24,13.47-63.66.13-1.87.59-7.24-1.85-6.56-9.67,4.38-19.14,9.55-28.91,13.62-18.19,7.58-37.24,12.6-55.21,20.93-3.4,1.58-6.59,3.1-9.53,5.74-.2,1.3.51.66,1.17.79,8.05,1.61,15.46,5.23,23.19,8.1,13.24-9.78,27.53-17.48,41.18-26.47,3.1-2.04,11.5-9.19,14.41-9.31,2.63-.11,3.63,2.46,2.45,5.08-.69,1.55-6.36,7.7-7.85,9.32-9.64,10.41-20.76,18.55-30.93,28.08-.69.65-4.79,4.72-4.98,5.04-.49.79-.69,2.83-.84,3.91-.87,6.19-.66,12.98-1.45,19.23Z"/>
</svg>