<?xml version="1.0" encoding="UTF-8"?>
<svg id="Layer_1" data-name="Layer 1" xmlns="http://www.w3.org/2000/svg" viewBox="0 0 600 600">
  <defs>
    <style>
      .cls-1 {
        fill: #0a0a0a;
      }
    </style>
  </defs>
  <path class="cls-1" d="M253.78,329.25c-7.27,3.75-12.74,10.5-14.81,18.6h-33.99l12.09,23.4h25.99c5.2,7.69,14.02,12.75,24,12.75,4.67,0,9.09-1.11,13-3.08l-26.28-51.67ZM382.93,371.25c-6.05,11.74-12.43,24.16-18.71,36.38l-11.99,23.4h-.02c-2.51,4.91-4.95,9.68-7.3,14.25h.02l-11.99,23.4c-7.28,14.24-11.96,23.4-11.96,23.4h-41.96s-4.67-9.16-11.95-23.4l-11.99-23.4h.01c-2.34-4.57-4.79-9.34-7.3-14.25h-.02l-11.98-23.4c-3.14-6.11-6.31-12.27-9.44-18.37-3.14-6.1-6.25-12.14-9.28-18.01h-119.09v.8c0,78.27,23.26,138.04,60.75,177.95h282.54c37.48-39.91,60.75-99.68,60.75-177.95v-.8h-119.09ZM247.39,492.08s-4.66-8.29-11.93-21.17h-53.91l-13.03-21.18h55c-2.34-4.14-4.78-8.45-7.29-12.9h-54.48l-13.03-21.17h81.8l40.33,76.42h-23.46ZM438.25,436.83h-54.48c-2.51,4.45-4.95,8.76-7.28,12.9h55l-13.03,21.18h-53.92c-7.26,12.88-11.93,21.17-11.93,21.17h-23.45l40.32-76.42h81.8l-13.03,21.17ZM300,50c-90.66,0-190.97,150.73-201.16,297.85h106.14c-8.73-16.86-15.78-30.35-19.28-36.77-14.8-27.17-19.1-48.68,0-75.04,19.09-26.35,68.98-18.56,68.98-18.56l37.68,76.12h15.28l37.68-76.12s49.89-7.79,68.98,18.56c19.1,26.36,14.8,47.87,0,75.04-3.49,6.42-10.55,19.91-19.27,36.77h106.14c-10.18-147.12-110.31-297.85-201.17-297.85ZM361.03,347.85c-2.06-8.1-7.54-14.85-14.81-18.6l-26.27,51.67c3.91,1.97,8.32,3.08,12.99,3.08,9.99,0,18.8-5.06,24-12.75h25.99l12.1-23.4h-34Z"/>
</svg>