<?xml version="1.0" encoding="UTF-8"?>
<svg id="Layer_2" data-name="Layer 2" xmlns="http://www.w3.org/2000/svg" viewBox="0 0 84.99 225.72" preserveAspectRatio="none">
  <defs>
    <style>
      .cls-1 {
        fill: #0a0a0a;
      }
    </style>
  </defs>
  <g id="Layer_1-2" data-name="Layer 1">
    <path class="cls-1" d="M.73,0c.1,1.47.6,3.09.24,4.57-.24,1.02-.24,1.92-.24,3,0,1.18.29,2.24.32,3.41.02.66-.29,1.9.02,2.55s1.17.96,1.54,1.59c.39.67.37,1.6.27,2.37s-.6,1.25-.94,1.9c-.36.7-.29,1.29-.28,2.1.02,4.29-.44,8.44-1.32,12.65-.12.59-.31.87-.11,1.41.28.78.82,1.25.83,2.14s-.14,1.73.05,2.57c.16.69.25,1.18.24,1.92-.01,1.63-.01,3.01.27,4.58.38,2.11.38,4.3.34,6.44-.03,1.99.13,3.99.29,5.98.12,1.54.25,3.09.5,4.61.1.6.39,1.28.46,1.88.1.77-.39,1.34-.74,2-1.16,2.14-.19,4.65-.59,7.05-.09.53-.33,1.43-.28,1.97.07.72.74,1.54,1.09,2.06.89,1.31.22,2.45,1.07,3.78,1.13,1.77,1.85,3.3,1.91,5.37.06,1.93.35,4.2-.02,6.09-.1.52-.39,1.05-.58,1.54-.59,1.59-.75,3.28-.95,4.95-.43,3.61-1.13,7.65-.46,11.29.14.76.33,1.73.25,2.5-.07.68-.5,1.34-.81,1.9-.78,1.41,2.03,2.87,1.29,4.3-1.5,2.93-2.97,5.42-2.33,8.67.48,2.44-2.72,4.85-1.94,7.22.52,1.57,1.12,3.17,1.48,4.78.41,1.85-.3,4-.26,5.89.01.74-.16,1.09-.31,1.78-.28,1.37-.33,2.82-.32,4.21.02,2.01-.33,3.98-.31,5.98s.34,4.11.32,6.17c-.03,2.86.32,5.69.3,8.54-.01,1.9-.34,3.77-.31,5.65.01.82,0,1.63,0,2.45,0,1.2-.22,2.57-.05,3.75.14.98,1.05,1.52,1.4,2.41.28.7.19,1.39.19,2.14-.01,1.57.05,3.08-.24,4.62-.14.74-.37,1.48-.4,2.23-.05,1.06.01,2.14.02,3.19.02,2.67-.35,5.31-.32,7.98.03,2.09,1.05,4.02,1.23,6.1.04.48.1,1.06.04,1.53-.1.74-.56,1.41-.73,2.15-.28,1.27-.54,2.46-.53,3.75,0,.66-.15,1.45-.02,2.09.07.32.22,1.22.38,1.46s.58.47.87.47c.72.01.65-.59,1.08-1.02.38-.39.95-.58,1.39-.93.48-.39.89-.72,1.41-1.04.67-.41,1.39-.84,1.94-1.41.73-.75.79-1.66,1.09-2.63.19-.64.33-1.26.48-1.91.28-1.14.95-2.16,1.38-3.25.75-1.92,1.47-3.97,2.51-5.77.52-.9,1.2-1.66,1.83-2.48,1.16-1.55,2.6-2.54,4.03-3.81,1.98-1.75,3.86-3.46,5.42-5.6.63-.87.83-.88,1.7-1.2,2.53-.9,4.34-3.24,5.79-5.36,1.04-1.52,2.41-3.22,2.85-5.07.24-1.01.3-1.62.98-2.48,1.21-1.55,2.49-3.03,3.65-4.62.78-1.07,1.33-2.09,2.44-2.84.93-.63,1.73-1.33,2.58-2.07,1.26-1.11,2.12-2.65,3.43-3.66,1.38-1.06,2.56-1.99,3.7-3.34.82-.96,1.61-1.95,2.34-2.98.64-.9,1.17-1.88,2.01-2.61,2.15-1.88,3.89-3.83,4.84-6.61,1.02-2.98,1.57-6.03,3.13-8.82.84-1.51,2.28-2.78,2.98-4.36.29-.64.39-.7.97-1.14,2.43-1.86,1.7-4.95,3.41-7.18.71-.94,1.59-1.74,2.15-2.78.48-.88,1.1-1.5,1.91-2.12,1.84-1.4,3.49-2.53,4.38-4.74.58-1.44,1.24-2.87,1.94-4.26.5-.99,3.1-1.86,2.63-2.98-.29-.7-.88-1.01-1.17-1.68-.42-.94-.93-1.97-1.59-2.8-.36-.44-.98-.6-1.29-1.06-.09-.13,0-.38-.07-.53-.17-.41-.39-.78-.56-1.19-.64-1.58-3.01-3.01-3.72-4.56s-.98-3.31-1.82-4.77c-1.16-2.03-2.21-4.23-3.76-6.02-1.17-1.35-2.94-2.05-4.11-3.42-.84-.98-1.53-2.04-2.19-3.15-.89-1.48-1.92-2.89-2.56-4.51-.47-1.19-.71-1.91-1.5-2.93-.98-1.26-1.67-2.71-2.73-3.91-.45-.51-.89-.92-1.24-1.47-1.04-1.64-2.72-2.91-4.13-4.23-1.68-1.57-3.1-3.35-4.36-5.26-1.06-1.61-2.35-2.72-3.65-4.09-.45-.47-.74-1.05-1.18-1.51-.61-.64-1.29-1.26-1.92-1.89-.84-.83-2.14-1.4-2.45-2.58-.21-.83-.31-1.57-.75-2.35s-1.01-1.52-1.4-2.35c-.71-1.48-1.12-2.81-2.22-4.07-.65-.75-1.31-1.56-1.87-2.37-.19-.27-.26-.61-.45-.88-.33-.49-.53-.42-.88-.76s-.45-.69-.72-1.07c-.54-.77-1.56-1.06-2.15-1.8-.37-.46-.54-.98-.91-1.46-.93-1.21-1.57-2.72-2.45-3.97-.55-.77-.94-1.6-1.56-2.33-.77-.9-1.6-1.74-2.34-2.67-.58-.73-.82-1.31-1.13-2.14s-1.06-1.34-1.64-1.99-1.05-1.4-1.7-2.02c-.61-.59-1.24-1.2-1.71-1.91-.59-.87-.97-1.73-1.63-2.56-.41-.52-.69-1.04-.98-1.63-.46-.93-1.22-1.46-1.76-2.3-.65-1.02-2.09-1.36-2.5-2.63-.52-1.6.28-3.64-.72-5.18-.27-.42-.87-.7-1.23-1.06-.44-.45-.86-.8-1.22-1.33-.45-.67-1.04-.98-4.3-2.22Z"/>
  </g>
</svg>