<?xml version="1.0" encoding="UTF-8"?>
<svg id="Layer_2" xmlns="http://www.w3.org/2000/svg" version="1.1" viewBox="0 0 154.7 141.5">
  <!-- Generator: Adobe Illustrator 29.5.0, SVG Export Plug-In . SVG Version: 2.1.0 Build 137)  -->
  <defs>
    <style>
      .st0 {
        fill: #adfe7d;
      }

      .st1 {
        fill: #67d133;
      }

      .st2 {
        fill: #73de42;
      }

      .st3 {
        fill: #84ee43;
      }
    </style>
  </defs>
  <g id="_Шар_1">
    <g>
      <path class="st2" d="M2.6,99.9c-2.6-4.9-3.1-10.1-2.1-14.3.1-.5.3-1,.4-1.5.6-2.1,1.3-4,2.1-5.6.2-.3.3-.7.5-1,0,0,.1-.2.1-.3,10.3-19,33.2-6.3,42.1-24.3,10-20.2-11.7-39.7,6.5-50.6,11.6-6.9,23.5,13.3,33.8,10.5,9.3-2.5,43.9-20.7,53.8-8.9,1.1,1.3,1.8,2.9,2.3,4.9,4.4,20.8-29.6,43.2-18.2,55,.2.2.4.4.5.5,11.5,11.3,30.3,12.9,20.8,31.9-.6,1.1-1.3,2-2.3,2.8-11.3,9.7-48.5,1.3-45.5,18.2,1.4,8.1.6,15.1-1.9,19.4,0,0,0,.1-.1.2-3.3,5.3-9.4,6.5-17.3.4-4.8-3.6-8.3-6.8-11.3-9.5h0c-7.2-6.4-12.1-10-26.5-10.6-21.7-.9-33.1-8.8-37.7-17.4h0Z"/>
      <path class="st3" d="M135.1,15.4c-14.2-3.7-35.8,14.4-46.7,14.1-6.9-.2-17.9-8.8-24.9-6.4-17.5,6-3.6,27.5-10.4,37.2-7.1,10.2-20.5,13.7-15.9,23.9,1.6,3.6,11.5,7.5,19.4,11.3,6.9,3.4,9.3,12.5,18.2,9.3,9-3.2-2.1-30.5,36.9-24.5,17.5,2.7,5.9-17.1,5.7-27-.2-9.9,26.3-35.7,17.7-37.9h0Z"/>
      <path class="st3" d="M26.2,81.3c-17.5,10.7,9.5,23.8.5,21.9s-18.7-3.4-21.7-10c-3-6.6,3.1-23.6,16.8-24.3,23.6-1.2,9.4,9.3,4.4,12.4Z"/>
      <path class="st3" d="M49.2,27.7c-4.1-4.9-1.9-23.7,7.5-23,12.5,1-3.3,27.9-7.5,23Z"/>
      <path class="st3" d="M101.7,8.2c-4.1,3,2.5,3,13.5-1.1,12.4-4.7,23.9-5.7,12.9-6.2-9.2-.4-19.7,2.4-26.5,7.3Z"/>
      <path class="st1" d="M103.1,102.2c15.5,5.4,38.8-2.2,39.9-3.3v.3c-11.3,9.7-48.5,1.3-45.5,18.2,1.4,8.1.6,15.1-1.9,19.4,5.4-9.5-8-40,7.5-34.6Z"/>
      <path class="st1" d="M2.6,99.9s0,0,0,0c12.8,17.4,32.5,10.1,39.4,9.5,6.9-.5,14.3,5.2,24.7,18.4-7.2-6.4-12.1-10-26.5-10.6-21.7-.9-33.1-8.8-37.7-17.4h0Z"/>
      <path class="st0" d="M50.3,9.6c-3.5,3.7,2.8,10.1,4.7,4.8,2.8-8-1.3-8.4-4.7-4.8Z"/>
      <path class="st0" d="M19.6,78c4-4.5,7.9-9.6,0-7.2-12.4,3.7-4,11.7,0,7.2Z"/>
      <path class="st0" d="M8.7,78.2c-1.5,1.6-4.2,7.4-3.5,10.9,1.3,6.3,5.2,0,7.3-4,3.2-5.9-1.4-9.4-3.8-6.9Z"/>
      <path class="st0" d="M144.1,81.8c-4.6-5.3-6.1,1.4-6.1,6.9,0,5.5-8.5,6.7-6.8,8.9s20.7-6.7,12.9-15.8h0Z"/>
      <path class="st0" d="M91.8,130.2c-2.3-8.6-4.7.8-9.5-2.3-4.7-3.1-8.1-.7.2,7,8.3,7.7,11.5,3.6,9.3-4.7h0Z"/>
    </g>
  </g>
</svg>