<?xml version="1.0" encoding="UTF-8"?>
<svg id="Layer_2" data-name="Layer 2" xmlns="http://www.w3.org/2000/svg" viewBox="0 0 154.69 141.54">
  <defs>
    <style>
      .cls-1 {
        fill: #84ee43;
      }

      .cls-2 {
        fill: #67d133;
      }

      .cls-3 {
        fill: #73de42;
      }

      .cls-4 {
        fill: #adfe7d;
      }
    </style>
  </defs>
  <g id="_Шар_1" data-name="Шар 1">
    <g>
      <path class="cls-3" d="M152.11,99.93c-4.64,8.61-15.99,16.47-37.71,17.38-14.34.6-19.23,4.27-26.46,10.64h0c-3.06,2.7-6.53,5.87-11.32,9.5-7.99,6.07-14.06,4.93-17.34-.41-.04-.06-.08-.13-.12-.2-2.56-4.33-3.35-11.31-1.92-19.4,3-16.94-34.21-8.52-45.52-18.25-.95-.81-1.71-1.76-2.26-2.85C-.03,77.29,18.81,75.71,30.26,64.41c.18-.18.37-.36.54-.54C42.19,52.08,8.14,29.63,12.58,8.84c.43-2.01,1.2-3.62,2.27-4.89,9.9-11.81,44.54,6.39,53.81,8.86,10.26,2.75,22.15-17.44,33.79-10.51,18.21,10.83-3.45,30.32,6.53,50.56,8.92,18.05,31.83,5.33,42.09,24.34.04.09.09.19.14.27.16.33.33.68.49,1.02.78,1.63,1.48,3.5,2.07,5.61.15.5.27,1,.4,1.52,1.04,4.24.58,9.4-2.06,14.31Z"/>
      <path class="cls-1" d="M.1,50.79c-.19-2.43-.1-5.01.31-7.7,2-12.75,10.71-13.37,16.8-7.58,0,0,.01,0,0,.01.29.27.58.57.86.88.25.29.51.59.78.9,3.79,4.78,5.92,12.33,3.34,20.8C16.34,77.31,1.42,67.95.1,50.79Z"/>
      <path class="cls-1" d="M19.62,15.45c-8.58,2.22,17.93,27.98,17.72,37.89s-11.75,29.67,5.72,26.97c39-6.03,27.82,21.22,36.86,24.46,8.9,3.19,11.29-5.95,18.21-9.3,7.86-3.8,17.76-7.67,19.41-11.29,4.6-10.11-8.79-13.71-15.9-23.86-6.83-9.73,7.12-31.27-10.4-37.22-6.95-2.36-18.01,6.23-24.89,6.44-10.92.33-32.53-17.79-46.73-14.11Z"/>
      <path class="cls-3" d="M.1,50.79c-.02-.29,4.25,13.07,12.88,11.06,8.63-2,10.79-18.52,4.25-26.33,0-.01,0-.01,0-.01-2.76-3.29-1.53-1.88.86.9.25.29.51.59.78.9,3.79,4.78,5.92,12.33,3.34,20.8C16.34,77.31,1.42,67.95.1,50.79Z"/>
      <path class="cls-1" d="M132.89,68.9c13.69.67,19.85,17.7,16.81,24.29-3.04,6.59-12.72,8.1-21.72,10-9,1.9,18-11.13.5-21.86-5.03-3.09-19.19-13.58,4.41-12.43Z"/>
      <path class="cls-1" d="M98.03,4.7c9.33-.76,11.59,18.04,7.46,22.99-4.13,4.94-20-21.97-7.46-22.99Z"/>
      <path class="cls-1" d="M26.56.91c-10.94.46.53,1.52,12.94,6.19,10.99,4.14,17.66,4.13,13.53,1.12C46.25,3.27,35.76.53,26.56.91Z"/>
      <path class="cls-4" d="M7.65,35.63c-3.8,6.97,13.06,12.27,11.44,6.82s-9.26-10.83-11.44-6.82Z"/>
      <path class="cls-2" d="M59.15,136.84c-2.56-4.33-3.35-11.31-1.92-19.4,3-16.94-34.21-8.52-45.52-18.25v-.32c1.09,1.15,24.37,8.71,39.92,3.35,15.55-5.36,2.08,25.09,7.52,34.62Z"/>
      <path class="cls-2" d="M152.11,99.93c-4.64,8.61-15.99,16.47-37.71,17.38-14.34.6-19.23,4.27-26.46,10.64,10.34-13.21,17.72-18.91,24.66-18.39,6.93.52,26.61,7.87,39.44-9.54.02-.03.04-.06.07-.09Z"/>
      <path class="cls-4" d="M99.69,14.39c1.85,5.39,8.17-1,4.7-4.75-3.41-3.67-7.46-3.29-4.7,4.75Z"/>
      <path class="cls-4" d="M135.06,70.77c-7.89-2.37-3.97,2.73,0,7.23,3.97,4.5,12.45-3.49,0-7.23Z"/>
      <path class="cls-4" d="M142.14,85.07c2.12,3.97,5.96,10.3,7.3,4.03.75-3.47-1.96-9.33-3.47-10.9-2.46-2.56-6.99.97-3.83,6.87Z"/>
      <path class="cls-4" d="M10.57,81.82c-7.79,9.15,11.13,18,12.88,15.82s-6.85-3.36-6.8-8.9-1.54-12.26-6.09-6.92Z"/>
      <path class="cls-4" d="M62.91,130.22c-2.21,8.35.99,12.46,9.29,4.75,8.31-7.71,4.94-10.07.2-7.01-4.75,3.06-7.21-6.35-9.49,2.27Z"/>
    </g>
  </g>
</svg>