<?xml version="1.0" encoding="UTF-8"?>
<svg id="Layer_2" data-name="Layer 2" xmlns="http://www.w3.org/2000/svg" viewBox="0 0 60.99 30.52">
  <defs>
    <style>
      .cls-1 {
        fill: #84ee43;
      }

      .cls-2 {
        opacity: .65;
      }

      .cls-2, .cls-3 {
        fill: #adfe7d;
      }

      .cls-4 {
        fill: #67d133;
      }

      .cls-5 {
        fill: #73de42;
      }
    </style>
  </defs>
  <g id="_Шар_1" data-name="Шар 1">
    <g>
      <path class="cls-1" d="M57.3,23.63c-10.95,10.11-32.62,6.24-43.06,5.79-1.45-.06-2.79-.3-4.03-.69l-.18-.06C2.49,26.2-.97,18.39.23,14.26c.96-3.3,3.27-5.94,6.41-8h0C17.75-1.04,39.21-1.2,48.24,1.93c2.8.97,5.23,2.31,7.19,3.9l.02.02c6.16,4.98,7.75,12.32,1.85,17.78Z"/>
      <path class="cls-5" d="M57.3,23.63c-10.95,10.11-32.62,6.24-43.06,5.79-1.45-.06-2.79-.3-4.03-.69l-.18-.06c-4.75-1.56-7.88-5.23-9.25-8.78h0C-.02,17.81-.21,15.78.23,14.26c.96-3.3,3.27-5.94,6.41-8-.56.4-9.77,8.36,4.63,16.16,14.47,7.84,55.22-5.8,44.18-16.57,2.01,1.63,3.54,3.51,4.47,5.49,0,0,0,0,0,.03,1.92,4.08,1.33,8.59-2.63,12.26Z"/>
      <path class="cls-4" d="M57.3,23.63c-10.95,10.11-32.62,6.24-43.06,5.79-1.45-.06-2.79-.3-4.03-.69l-.18-.06c-4.75-1.56-7.88-5.23-9.25-8.78,5.14,11.05,30.13,10.6,46.37,5.23,15.62-5.18,13-13.16,12.78-13.75,1.92,4.08,1.33,8.59-2.63,12.26Z"/>
      <path class="cls-2" d="M37.8,1.47c-10.57-.59-8.79,11.49,5.15,10.86s9.08-10.06-5.15-10.86Z"/>
      <path class="cls-2" d="M14.09,4.86c-10.42,4.23.02,11.19,7.71,6.51,7.69-4.68,1.9-10.41-7.71-6.51Z"/>
      <path class="cls-3" d="M18.43,23.43c-6,1.66,3.63,2.14,8.74,1.59,5.1-.55,18.63-4.04,19.22-5.27,1.87-3.88-16.62,3.87-20.71,4.06-5.45.25-5.7-.81-7.25-.38Z"/>
    </g>
  </g>
</svg>