<?xml version="1.0" encoding="UTF-8"?>
<svg id="Layer_1" xmlns="http://www.w3.org/2000/svg" version="1.1" viewBox="0 0 279 373">
  <!-- Generator: Adobe Illustrator 29.5.0, SVG Export Plug-In . SVG Version: 2.1.0 Build 137)  -->
  <defs>
    <style>
      .st0 {
        fill: #59fd53;
        stroke: #0a0a0a;
        stroke-width: 1.5px;
      }

      .st1 {
        fill: #f8f8f8;
      }
    </style>
  </defs>
  <path class="st1" d="M92.9,42.8c.3,1.6.7,7.3,1.2,16.9l.5,5.4v5.1c0,2.1.2,5.8.5,14.8.4,10.9.6,17.5.5,19.5l-1,1.4c-.3.1-.7.7-1.3,1.8-.4.4-1,1.2-1.8,2.6,0,.4-1.2.7-1.3,1.6.6.6,1.4.9,2,.8.1-.3.6-.5,1-.6.5-2.2.7-3,1.8-4.6,1,.2.6,2.7.8,6.9.3.7.5,2.1.4,4.4l-.2,2.5c0,2,0,2.8.4,5.6,0,3.8,0,7.1.2,9.9v1.2c0,.7.2,1.7.2,3-.2.8-.3,1.8-.5,3.3l.7,3.5c0,.8,0,2,0,3.6l.3,5.2c0,1.3,0,2.8,0,4.2,0,.4,0,.7,0,.5.1.1,0,2.5.2,7.2,0,2.5,0,3.7,0,3.6v1.6c-.3.5-.6.9-1.1,1.1-1.2,0-.6-3.1-1.6-3.1-.7,0-1.1.3-1.3,1-.3,1.2-.5,1.8-.7,1.9-.4.6-1.2.8-2.3.8-1.2,0-1.9-.5-2.5-1.4-2.5.2-4,.1-4.5,0-.3-1.2-.5-2.8-.5-4.9,0-3.2,0-5,0-5.4-.1,0-.1-.1-.2-.3l-.2-3.3c.1-.3.2-.6,0-1.2-.4-.4-.7-1-1.1-1.7-1.9-.4-4.8-.6-8.6-.6-.4.6-.8,1.5-.8,2.7-.2,2.5-.2,3.5-.2,3-.2.5-.2,1.3-.4,2.3,0,2-.3,4.8-.8,8.4l-5.8-.4h-3.9c-1.6,0-2.9,0-3.8-.5.1-3.9.7-8.8,1.7-14.6,0-.9.3-2.5.6-4.4.5-1.2.8-3.8,1.6-9.5l.4-1.6c.2-1,.3-2.6.6-4.7l1.1-6.2c0-1.4.4-3.5.7-6.3l.8-2.7c.1-2,.5-4.8.9-8.6l1.5-7.7c-.1-.4,0-1.2.1-2.1l.9-5.7c.1-.1.3-.5.5-1.2-.1-.3,0-.7,0-1.2.1,0,.1-.1.3-.2v-.9c.2-.6.4-1.7.5-3v-1.2c.9-2.3,1.3-4,1.4-5,.2-.4.2-1.2.4-2.3.6-2.3,1.2-5.8,1.9-10.7.3-2.7,1-6.6,1.7-11.9.1-.1.3-.5.5-.9l1.3-7.4c.3-2.2,1-5.5,2-9.9,7.8,0,12.5.2,14.3.7ZM84.6,112l-1.7,1.1c.1.1.1.4,0,.5-.4.5-1,1.1-1.6,2,0,.1,0,.8.1,1.9.3.1.8.3,1.6.4.1-.1.6-.4,1-.9,0,0,.2-.5.6-1.4.6-1.4,1-2.4.9-3.2-.4,0-.5-.4-.9-.3ZM86.6,120.2c1.4.4,2.1,0,2.2-1.2,0-.5,0-.9-.4-1.3-1.4-.5-2.1-.1-2.2,1.2,0,.7,0,1.1.4,1.3ZM80.3,120.6h-.5c0,.4-.8.6-.7,1.1-.1.1-.3.8-.4,1.8-.3,2-.5,3.6-1,4.8.1.1.1.4,0,.8l-1.6,5.9c0,.5,0,1.3-.2,2.4l-.3.4v.5c-.6,2.9-.9,4.5-.7,5.1.8.4,2.6.6,5.6.4.1,0,.1.1.2.3.4-.1.8-.3,1.3-.4.2-1.2.3-3.8,0-8.2l-.3-5.2c0-.7-.3-1.6-.3-3l.3-4.1c0-1.4-.5-2.3-1.4-2.6ZM89.2,169.9c.7,0,1.1-.2,1.1-.7,0-.7-.3-.9-1-1.1-.1.3-.3.5-.3.9,0,.4,0,.8.2.9ZM101.8,109v-1.2c0,0,1.3,0,1.3,0v1.2c0,0-1.3,0-1.3,0ZM99.6,173.7c.2-4.7.7-11.8,1.5-21.3v-1.2c.2-.5.5-.6.6-.5,0-.4-.5-.7-.4-1.2l.5-7.9c-.1-.3,0-.5,0-.7,0-1.2,2.7-.9,3.1-1.4,0-1.2-2.8-1.8-2.7-2.9l.5-7.3c.4-.1.5-.2.6-.5-.4-.4-.5-.8-.3-1.5.3-1,.5-1.7.5-1.9,0-.7-.4-1.6-.4-2.3.7-.7,1-1.2.6-1.7.1-.1.2-.8.1-1.7,0-.1-.4-1.3-.4-2.3.2-.4.5-1.2.7-2.2-.1-.4-.3-1.2-.4-2.3.3,0,.4-.1.6-.5.5-1.3.5-2.1.2-2.4-.3-.1-.4-.3-.4-.4,0,0,.7-.3.7-1,0-.4-.2-1.5-.7-1.4.3-.4.5-1.2.7-2.2-.3,0-.4-.2-.5-.6,0-.7.1-1.6.3-2.9.4-1.8.6-3,.6-3.4.3-2.5.4-3.8.3-3.9-.3-.1-.4-.3-.4-.4,0,0,.7-.3.7-1,0-.4-.2-1.2-.7-1.4.3-.1.4-.5.6-1.1,0,0-.5,0-.5-.6.2-.6.5-2.2.8-4.4.3-2.5.4-4.2.4-5.1,0-.1-.5-.7-.5-1.1,0,0,.7,0,.6-.6,0-.5-.4-1.2-.4-1.6,0-1,.7-3,.8-3.9.3-6.2.9-15.6,1.9-28.1,2.5-.5,4.9-.6,7.4-.5.5,0,.5.6.5.6.9-.3,2.5-.4,4.6-.2.1.1.5.4,1,.6.7,0,1.9-.3,3.4-.3l.5.6c1.4.5,3.8.8,6.8.9,3,0,5.2.2,6.7.6.8.2,1.7.4,2.8.9.2.4.7,1,1.5,1.7.9.6,1.8-.9,1.8-.9.7,0,1.8.7,2.2.7l2.8.7c.9.5,2.4,1.2,4.3,2,.5.2,1.3.4,2.2.8.6.6,1.6,1.2,2.8,1.8,1,.2,3,1.8,5.8,5,.1.1,1.1,1.4,1.6,1.2.9,1,1.8,2.5,3,4.8.4-.1.7.6,2.2,2.4,0,.4,0,1.2.4,2.3.4,0,.7.7,1.5,2.3,0,.8.6,2.3,1.9,4.6.5.7.2,1.1,1.8,5.8l1.1,1.8c.6,2.3,1.2,5.6,1.6,9.7v5.7c.3,0,.5.2.6.6l-.4,5.1c0,5.7-.4,10.9-1.1,15.7-.2.6-.5,1.5-.7,2.7.1.1.4.3.5.6-.1.1-.4.2-.6.6,0,2.8,0,4.2-.3,4.5h-.5c-.2,1.4-.5,3.3-1.1,6.1l-2,5.5c-.4.6-.9,1.5-1.4,2.7l-.7,2.8-1.3,1c.1.4,0,1.1-.1,1.7.3,0-1.8,1.5-1.9,2.8-.4.4-.7,1-1.2,2.2,0,.1-.9,1.3-2.5,3.1-.4.4-.9,1-1.3,1.6,0,.4-1.3,1.6-3.7,3.7-.7.7-2,1.8-3.5,3.2l-4.1,2.5-3,2.2c-.1.1-2.7.9-7.5,2.2l-1.1,1.1c-.8,0-2.1,0-4,.3-.1.1-.3.4-.6.5h-1.2c-7,1-14.7,1.3-23.1.7-5.5-.4-10.2-1.1-14.1-2.2ZM112.1,49.3v1.2c0,0,1.1,0,1.1,0v-1.2c0,0-1.1,0-1.1,0ZM109.5,54.8c.9.2,1.8-.9,1.8-.9,0-1.1,1.6-.9,1.8-1.6-.7-.6-1.6-.9-2.8-.9-.4.5-.8,1.7-.8,3.4ZM121.8,56.2c.1-.3.2-.5.2-.6,0-.8-.7-1.1-2.3-1.1-.2,1.4.5,1.7,2.1,1.7ZM110.9,59.3c.1.4.3,1.2.4,2.4-.4,0-.7,0-1.1.5l2.7.2c0-1.7-.3-2.8-.9-3.5-.2.4-.4.6-1.1.5ZM138.3,151.5l1.8-1.6s1.3-1,3.6-3l3.1-4.4c.3-.1.7-.5,1.3-1,0-.7.9-2,2.6-5.5,0-.4.2-.9.6-1.7.4-.4.6-1.5.9-3.2.2-1.4.7-2.5,1.2-2.8v-1.2c1.7-8.4,2.4-16.5,2.3-24.1l-.7-5.2c0-1.2,0-3-.3-5.5-.1-.3-.3-.7-.4-1.2-.1-.1-.4-.3-.5-.6l-.9-3.5c-.9-2.7-.5-1.1-1.4-4.6-.5-.4-1.1-1-2-3l-1-.6v-1.2c0,0-1.5-1.7-1.5-1.7-.5-.2-1.3-.4-2.2-.8-.3-.7-1.5-1.3-4.4-2.5-.6-.4-1.5-.8-2.7-1.2-.4.1-1.1.3-1.7.4,0-.3-.1-.4-.5-.6h-1.7c0,.3-.7.9-.6,1.4-.3,2.1-.5,5-.6,8.5,0,.7.3,1.6.3,2.8,0,.5-.6,1.5-.7,2.2,0,.7,0,1.8-.2,3.4-.3.6-.2,1.3.4,1.7.3.1.1,2.2-.4,6.2,0,.9-.7,2.7-.8,3.4,0,.4.5,1,.5,1.1.3,1.7.1,4-.2,6.7-.5,3.3-.8,5.3-.7,6.3,0,4.7,0,7.2,0,7.4,0,.7-.7,2.6-.8,3.2,0,.5.5.8.4,1.2v1.7c-.2,3-.4,7.3-.9,12.7-.5,5.6-.9,9.8-1,12.6.9,0,1.8-.9,2.9-.5.6.2.4,2.4,1.4,2.3.4-.1.4-.6.4-1.4-.3-1.5,1.8-.9,5.1-2.7ZM115.6,73.2c.5-1.2,0-1.7-1.6-1.8-.7,0-1.1.2-1.2.6,1.1,1.1,1.7,1.7,1.7,1.7.4,0,.7,0,1.1-.5ZM116.7,114c-1.5-.5-2.3-.7-2.2-.7-.3,1,0,1.6.9,1.6.7,0,1.1-.3,1.3-1ZM167.4,123.1c.2.3.7.7,1.6,1.2,0-.4,1.5-1.2,1.2-2.7-1.6,0-2.5.6-2.9,1.5ZM107.1,122.2v1.2c0,0,1.6.1,1.6.1,0-1-.4-1.3-1.6-1.3ZM112.1,123.2v1c0,0,1,0,1,0v-1c0,0-1,0-1,0ZM106.7,127.3c-.2,1-.1,1.6.3,1.6.4,0,.7-.2.7-.7,0-.4-.3-.7-1-.9ZM158.6,136.6c-.5,0-1-.7-1.7-.6-.6.6.2,1.3,1.1,1.3.4-.1.5-.2.6-.6ZM159.8,143.4c.5-1.7-.2-2.6-2.2-2.9-.4.4-.6.7-.6,1.1,0,1.4.8,2,2.8,1.8ZM106.7,160.6v1c0,0,1.1,0,1.1,0v-1c0,0-1.1,0-1.1,0ZM178.6,180.3c-.5-2.5-.5-5.6-.4-9.2.2-3.3.5-6.7.6-10.1.2-.9.3-2.1.2-3.5,0-.4-.6-1.5-.4-2.5.1-1.7,1.6-5.9,1.7-7.6.1-1.7-.1-4.2-.7-7.3-.1-.4-.2-.7-.6-.7,0-.7.6-1.4.8-1.8.4-1.4.7-6.9,1.1-16.2.4-10.9.8-17.6,1.4-19.8.2-1.4.3-3,.3-4.8l-.6-.6c0-.1.3-.4.7-.6,0-3.6,0-7.1,0-10.7,0-4.6.3-8.5.8-11.7,0-.5.8-2.6.9-3.5,0-1.3,0-3.2,0-5.7,0-2.5,0-4.5,0-5.7.1-2,.5-3.8,1.2-5.4,2.1-.5,5.1-.8,8.9-.8l9.8.3c1.4,0,3.6,0,6.1-.2,0-.3,1.4-1.1,1.9-1.1,1.7.8,4.1,1.7,7.6,2.9.4.4.7,1,1.1,1.9,0,.9,1.8,1,1.7,2,.4.4.7,1.2,1,2.4.4.3.7.7,1.1,1.3v1.3c.2-.1.4,0,.6,0-.2.4-.2.8,0,1.2,0,0,.2.8.5,2.4l.3,3v1.2c.3.4.3,5.6,0,15.1,0,1.6.3,5.7.2,7.2-.1,1.6-1,5.6-1.2,7.2,0,1,0,2.4,0,3.9.1,1.9.2,3.2.1,4-.3,13.3-1.1,21.9-2.4,25.7-.2,1,.5,2,.5,2.4,0,3.3-.1,5.5-.5,6.7-.7,1.9-1,3.1-.9,3.5.3,1.9.5,4.8.3,8.8-.1,4.1-.4,7.2-.9,9.3-.8,0-.8,2.2-2.2,5.9-.1-.1-.4-.2-.5,0v1.2c-1.3.7-2.7,1.8-4.5,3.2-.3.6-.8,1.5-1.5,2.4-1,.9-2.2,1.8-3.7,2.8-1.6,0-3.2.7-5,2l-13.2-.9c-7.2-.4-11.3-.6-12-.8ZM202,71.6c-1,5.1-1.3,9.9-1,14.4,0,1.1,0,1.6-.1,1.7v1.3c0,0-1,3.5-1,3.5,0,0,0,.8-.2,2.4,0,1.2,0,2.9.2,4.9.2,2.3.4,4,.3,4.9,0,7-.9,12.6-2.3,16.7.3,1.2.6,3.1.8,5.6,0,1-1.5,4.6-1.6,5.8.1,1.9.2,4.2.2,7.2-.2.8-1.1,2.7-2.9,5.9.4.2.6.6.6,1.4,0,.5,1.3,1.8,1.3,2.7,0,.3-.2.5-.3.9-.1,2-1.5,5-1.6,5.9l.6.7c0,.8.4,1.7,1,3,.4.2.9.3,1.7.8.1.4.6.8,1.2,1.3.4-.2,1.2-.3,2.4-.4,2.2-.8,2-3.7,2.3-5.9.6-6.3,1.6-14.9,3-25.7.1-3.8.5-9.4,1.2-16.9.8-5.9,1.4-10.4,1.6-13.7-.4-.3-.6-.6-.6-.7.1,0,.4-.2.7-.6.2-1,.2-2.2,0-3.6-.1-1.7-.2-2.6-.2-3l.6-18.6c-1.8-2.1-3.6-3.3-5.2-3.4-1,0-1.9.5-2.5,1.7ZM72.9,185.6h1.3c0,0,0,.7,0,.7q-.1,0-.3.1c0,.1.4.4.5.4v.7q0-.1,0,.1v1.2c0,.1.2.3.2.4v.7c0-.1,0,0,0,.4v.5c0,.1.2.3.2.4v.7s.2.5.2.5v.8c0-.3,0-.1.2.3v.8c0,0,.2.5.2.5v.7c0,.1,0,.3,0,.5v.9c0-.3,0-.1.2.3v.9c0,0,0,.1.2.4v1c0,0,0,.1.2.3v1.2s0,0,.2.1v.9c0,0,0,.1,0,.4v1q0,0,.2.1v.8c0,0,0,.1.2.3v1c0,0,.2.4.2.4v.9c0,.1,0,.3,0,.4v.9c0,0,.2.5.2.5v.9c0-.1,0,0,.2.4v.8c0,.1,0,.3,0,.4v.9c0,0,.2.5.2.5v.9c0-.1,0,0,.2.4v.7s.2.5.2.5v.9c0,0,.2.5.2.5v.8c0,0,0,.1,0,.3-.1,0-.1.1-.2.4q.1-.1.1.3v.7c.1-.3,0-.1.2.3v.9c0,0,0,.1.2.3v.9c0,0,0,.1.2.3v.8c0,0,.2.4.2.4v.8q0,.1,0,.3v.9c0,0,0,.1.2.4v.7c0,.1,0,.3,0,.5v.7c.1-.3,0-.1.2.4v.8c0,0,.2.4.2.4v.9c0,0,.2.5.2.5v.7c0-.1,0,0,.2.4v.4c.1-.6,0,.5.1,1.7.1.1.1.3.1.3v.8c0,0,0,.1.2.4v.9c0,0,.2.4.2.4v1c0-.1,0,0,.2.4v.8c0,0,0,.1,0,.3v.5q0,0,.2.1v.8c0-.4.2.3.3.7,0-.3.6-.7.6-1.5v-.8c0-.4.3-.4.3-.4,0,0,0-.3,0-.7.1,0,.1-.1.3-.4v-.8c0,.4.2.3.6-.5,0-.5,0-1.2.1-2,.1-.1.3-.1.1-.3v-1c0-.1.4-.2.4-.4v-1.2q.2,0,.2-.1v-1c0-.1.4-.2.4-.4,0,0,0-.3,0-.7q.1,0,.3-.1v-.8c.2,0,.2-.1.3-.2v-.8c0,0,.3-.4.3-.4v-.5q.2-.1.2-.3v-.8q.2,0,.3-.1c0-.4,0-.9.2-1.6.1-.1.1-.3.1-.3v-.9c0-.1.3-.2.4-.4,0,0,0-.3,0-.7.1,0,.1-.1.3-.2v-.7c0,.1,0,0,.2-.5v-.5s.3-.4.3-.4v-.9c0-.4.4-.4.4-.4,0,0,0-.3,0-.7.1,0,.1-.1.3-.4v-.8c.2,0,.3-.4.6-1.9q-.1-.1,0-.1c.1-.1.3-.1.3-.2,0,0,0-.3,0-.8.1-.1.1-.3.2-.4v-1c.2,0,.2-.1.4-.2v-.8c0,0,.3-.4.3-.4v-.7c.2,0,.2-.1.3-.2v-.7c.2,0,.2-.1.3-.2v-.8c0,.3,0,.1.2-.4v-.5s.3-.5.3-.5v-.7c.2-.1,0-.7.6-2.1q.1-.1.1-.3v-.7c.2,0,.2-.1.3-.4v-.9c0-.1,0-.3,0-.3h.1c0-.1,0-.3,0-.6,0-.4.3-.4.3-.4v-.7c.2,0,.2-.1.3-.2-.1-.3,0-.7,0-1h.1s0-.3,0-.3c.1,0,.1-.1.3-.2,0-.4-.2-.5-.2-.5.1,0,.1-.1.3-.2,0,0,0-.4,0-1.3q.1,0,.3-.1v-.8c.2,0,.2-.1.3-.2v-.8c.2-.1.2-.3.2-.4v-1.3c.2,0,.2-.1.4-.2v-.4c0-.1.2-.1.3-.1v-.7c.2-.1.3-.2.3-.4,0,0,0-.3,0-.8.1-.1.3-.2.3-.5h.4c-.1-.1,0-.6.4-.6.7,0,.1.4.7.7,0-.3.4-.6.7-.9h.5c-.1-.1-.1-.2,0-.4h.1c0-.1,0-.4,0-.4l.3-.2c.9,0,2.1,0,3.7.3.1,0,.4,0,.5.2.3-.2.7-.2,1.2,0q.1,0,.3.1h.3c0,.1.6.3.5.4l.8-.3c-.1.1.7,1.2.7,1.2v.5c.1-.3.1-.1.2.3,0,.1.1.3.2.4h.1c.1.1.2.3.2.3v.4c.1,0,.3.3.5.3v.4q.1,0,.2.1h0c0,.1.1.1.1.1.1.1.1.3.2.3v.4q.1,0,.2.1s0,.7-.1,2.1l-1,14.5c.1.1.1.3.1.4,0,.3,0,.4,0,.4-.1,0-.1.1-.1.3l-4.9,71.1c-.1,0-.4.2-.4.4h-.5s0,.4,0,.4l-.3.2v.4c.1,0,0,.1.2.3v.3c0,.1.3.4.9.7l-.3,3.9q-.1,0-.3.1v2c-.1,0,.1.1.1.1v.9c0,0-.3,0-.3,0,0,0,0,.4,0,1.2,0,.5,0,1.1.2,1.5,0,.3-.2.5-.3.6.1,0,.1.1.2.4,0,0-.5.2-.4.4v.4q.1,0,0,.1c0,.4,0,1.1.1,2v.5q-.2,0-.3.1c.1-.1,0-.7-.2,2.5-.1,2-.2,2.9-.2,2.9.1.1.3.1.2.3-.1,0-.1.1-.3.4,0,0,0,1.2-.2,3.5l-.7,10.3-3.9-.3-.2-.5c-.1,0-.2.5-.3.5h-1.8c-2.7-.3-2.3-.6-2.5-.6-.4.1-.8,0-1.4-.2,0,0-.1,0-.3.1h-.5s.4-6.2.4-6.2c-.1,0-.1-.1-.2-.5,0-.5.2-.4.3-.5v-1.6s0-.1-.1-.3c.1-.1.1-.3.3-.6h0c0-.1-.2-.5-.2-.5l.3-.2s0-.4,0-1.3c-.1,0-.1-.1-.2-.3,0-.5.3-.4.3-.5,0-.4,0-.5,0-.5,0-.1-.1-.1-.2-.3,0-.8.2-.9.3-.5-.1-.1-.1-.3-.2-.7,0-.5.3-.4.3-.5v-.3c-.1,0-.2,0-.2-.1.1,0,.1-.1.3-.2l.6-8.1c.1-.1.1-.3.3-.6-.1.1-.1,0-.2-.4l.6-8.2c0-.1-.1-.1-.2-.3.1,0,.1-.1.3-.4l.2-2.4c-.1,0-.1-.1-.2-.3l.2-2.5c.1,0,.1-.1.3-.4v-.3c-.1,0-.2,0-.2-.1l.2-3.5c0-.1-.1-.1-.2-.3.1,0,.3-.1.3-.4v-2s0-.1-.1-.3c.1,0,.1-.1.3-.2l.4-5.6-.2-.4.2-3.5c.1,0,.1-.1.3-.2l.3-4.7v-.8c0,0-.2-.5-.2-.5-.3.1-.4.4-.4.6v.8c-.2.1-.4.8-.6,1.9h-.1c0,.1,0,1.3,0,1.3q.1.1,0,.3c-.1,0-.3,0-.3.1,0,0,0,.3,0,.7-.1,0-.1.1-.1.3v.9c0,0-.4.5-.4.5v1.6c-.1.4-.4.4-.4.4,0,0,0,.3,0,.9-.1.1-.1.3-.3.6v.9q0,.1-.2.3v.9c0,.4-.4.4-.4.4,0,0,0,.4,0,1,.1.1.1.3,0,.3-.1.1-.3.1-.3.1,0,0,0,.4,0,1.3q-.1.1-.1.3v1.6c-.1.1-.4.2-.4.4,0,0,0,.3,0,.8-.1,0-.1.1-.3.2v1c0,.1-.4.2-.4.4,0,0,0,.4,0,1.2.1.1.1.3,0,.3-.1.1-.3.1-.3.1,0,0,0,.3,0,.9-.1,0-.1.1-.1.3v1c0,0-.4.5-.4.5v1.2c0,0,0,.1,0,.1h-.1c-.1.1-.3.2-.4.6.1.4,0,.8,0,1.4-.1.1-.3.1-.3.2.1.4,0,1.1-.1,1.8-.1.1-.3.1-.1.3v1.6c-.1.1-.4.2-.4.4v.9c-.2.1-.3.1-.2.3v.7c0,.1-.3.2-.3.4,0,0,0,.3,0,.9q-.1,0-.3.1v1.6c-.1.1-.4.2-.4.4,0,0,0,.5-.1,1.7l-.3.2v1q0,.1,0,.3t-.1.1s0,.4,0,1.3c-.1,0-.1.1-.3.2v1c0,0-.4.5-.4.5v1c0,.4-.4.4-.4.4.1.4,0,.9-.1,1.6-.1.1-.3.1-.3.2v.8c-.2.1-.2.3-.2.5v.9c0,.1-.3.2-.4.4,0,0,0,.3,0,.9l-.3.5v1.4c-.1.1-.4.2-.4.4.1.4,0,1.1-.1,1.7-.1.1-.3.1-.3.2.1.1,0,.5,0,.9q0,.1-.1.3c0,.4,0,1.2,0,1.2-.1.1-.3.1-.3.1,0,0,0,.3,0,.9-.1,0-.1.1-.1.3v1.4q-.2,0-.4.1v.8c-.4,0-.6,0-.6.2-.1,0-.3,0-.3,0q0-.1-.1-.3c-.1.1-.3.2-.5.2h-1.6q-.1,0-.3-.1c0-.1,0-.3-.1-.3,0,0-.9,0-2.6-.2q-.1.1-.3,0,0-.1-.1-.1s-.5,0-1.7-.1c-.1,0-.3,0-.7,0,0,0-.3-.7-.4-.6v-.7c0-.4-.2-.5-.2-.5,0,0-.1,0-.3,0v-.4s-.2-.3-.2-.3v-1.3s0-.1-.1-.4v-1.2q0-.1,0-.3v-1.2s0-.1-.2-.4v-1.7c.1,0,0-.1-.1-.4v-.9c0,0,0-.1-.2-.4.1-.3.2-.6,0-1.3-.1-.1-.1-.3-.1-.3.2-.4,0-.8,0-1.4q-.1-.1-.1-.3v-.7c0,0,0-.1-.2-.4v-.9c0-.1,0-.3,0-.5v-1.8c.1,0-.1-.4-.1-.4v-1.2c0,0-.1-.5-.1-.5v-1.6c.1,0-.1-.4-.1-.4v-.9c0,0-.2-.5-.2-.5v-1.4q0-.1,0-.3v-2.1s0-.1,0-.4v-1q0,0-.2-.1v-1.2s0-.1-.2-.4v-2s0-.1-.1-.3v-1.2c0,0,0-.1,0-.4v-.7c0,0,0-.1-.2-.3v-1.4s0-.1,0-.3v-1.2s0-.1-.2-.4v-1c0,0,0-.1-.2-.4v-1c0,0-.2-.5-.2-.5.2-.5.2-1.2.1-1.8-.1-.1-.3-.1-.1-.3v-1.3s0-.1-.1-.4v-.9c0,.3,0,.1-.2-.3v-.8c0,.3,0,.1-.2-.4v-.7c0,0,0-.1-.2-.4v-1.4s0-.1,0-.4v-1.7s-.1-.1-.1-.3v-1.3s0-.1-.1-.4v-1.7s0-.1-.1-.3v-1c0,0-.2-.4-.2-.4v-2s0-.5-.1-1.7h0c0-.3,0-.8-.2-1.5l-.3,1-.3.5v1.6c0-.1,0,0,.1.4,0-.1-.1.1-.3.5.1.1.2.3.2.5v1c0,.1-.2.3-.4.4.1.4.2.5.2.5-.1.1-.1.3-.3.6.1-.1.1.1.2.8-.1.1-.1.3-.3.6.1.1.2.3.2.7.1.1,0,.3-.3.4,0,.1.1.1.3.1q.1.1,0,.3l-.6,8.2-.3.5v.4s.2,0,.2,0v.4c0,.4-.2.6-.3.6,0,.1.1.1.3.1q.1.1,0,.3c0,.5,0,1.3-.2,2.2,0,.1-.1.3-.3.4q.1-.1.2.3s0,.1,0,.4c-.1,0-.1.1-.3.4l-2.1,30.4.2.4v1c-.2.1-.3.1-.4.2l-.3,4.7c0-.1.1,0,.2.4-.1,0-.1.1-.3.2,0,.5,0,.8-.2.9h-1.3c-1-.2-1.6-.2-1.6-.2q-.1,0-.3-.1c-.1.1-.3.1-.5,0-.1-.1-.2-.3-.4-.2l-3.8-.3c-.2-.4-2.6-.7-1.9-1.2-.1-.4,0-.7.2-.6q0-.1-.1-.1-.1-.1,0-.3v-1.6c0-.1-.1-.3-.1-.4l.4-6.4-.2-.5c0-.4.1-.3.3-.4-.1-.1-.1-.3-.2-.7.1,0,.1-.1.3-.4l.4-6c-.1,0-.1-.1-.2-.4,0-.3,0-.7.2-1h.1c0-.1.1-2,.1-2l-.2-.4v-1.8h.3c.3-.5.3-.9,0-1.2q-.1-.1-.1-.3v-.5c0-.3.2-.5.3-.6-.1,0-.1-.1-.2-.5v-2c.1,0,.4-.5.4-.5-.1-.1-.1-.3-.2-.7v-1.6c.1-.4.4-.4.4-.4l-.2-.5c0,.1,0,0,.2-.4-.1-.1-.1-.3-.1-.4,0,0,0-.8.2-2.5l.2-2.5c.1-.1.1-.3.3-.6-.1.1-.1-.1-.2-.8v-.8c0-.1.2-.4.4-.5-.1-.1-.2-.3-.2-.5l.3-.5c-.1,0-.3-.1-.2-.4-.1-.4,0-.8.3-.9,0-.1-.2-.3-.2-.4v-.8c0-.1.3-.2.3-.4l-.2-.4.3-4.3c.2-2.9.3-4.3.3-4.3,0-.1,0-.4.2-.5-.1-.1-.1-.3,0-.5,0-1.6,0-2.9.3-3.8,0-.1.1-.1.3-.2,0,.1-.1,0-.2-.3.1,0,.1-.1.3-.4,0-.1,0-.5,0-.9h-.1c0-.1.3-4.1.3-4.1.1-.1.1-.3.3-.6l-.2-.5,1-14.1c.2-3,.3-4.6.3-4.6,0-.1,0-.4.2-.5,0-.5,0-.8.2-.9,0,0-.2-.3-.2-.4l2.8-40.7c0-.1.3-.2.3-.4,0,0,0-.3,0-.7.1,0,.1-.1.3-.2v-.9c0-.1.2-.1.3-.2h.1c0-.1.1-.1.3-.2l6.7.5c1.4,0,2.2.2,2.2.2.1,0,.4.3.5.3l2.7.2c.3,0,.6.4,1,.7h.3q0,.1.1.2ZM71.3,186.4c.1.1.3.1.4-.1-.1-.1-.3-.1-.4.1ZM66.6,236.7c-.2.5.1.4,0,0h0ZM78.5,239.4c.1,0,.2.4.6.4.2-.4.2-.5.2-.4-.4-.4-.6-.4-.8,0ZM66.1,242.1h-.7c-.1,0-.4.3-.6.7l.4.4c.4.2.8.2,1.3,0,0,0-.1-.1-.2-.4-.1,0-.1-.1-.2-.3,0,0,0-.1,0-.5ZM83.2,255.5l.4.3c.2-.4,0-.7-.2-.9,0,0,0,.3-.2.6ZM93.2,276.5h0c0,.1.1.1.1.1h0c0-.1-.1-.1-.1-.1ZM99.2,293.5c.3-.2.3-.5,0-.7-.1,0-.3.1-.3.2,0,.1.1.3.2.4ZM94.6,292.9l.4.3c-.1-.1-.2-.3-.4-.3ZM94.5,297.3v.4c.1,0,.1-.1.3-.2q-.1-.1-.3-.1ZM79.5,299.1l.2.3v.4s.6,0,.6,0v-.9c0,0-.2-.1-.2-.3h-.5c-.1,0-.3.3-.2.5ZM92.9,299.9c0-.1-.1-.3-.4-.4,0,.3.1.4.4.4ZM91.8,301.9c-.3,0-.4,0-.5,0v.3c.5.4.7.4.8,0-.1-.1-.2-.3-.2-.4ZM53.7,301.7c0,.1.1.1.4.2l.4.4h.4c0-.2,0-.5,0-.9l-.5.2c-.1-.1-.2-.3-.4-.3-.1.1-.3.2-.2.4ZM52.9,301.8c.2-.4.3-.2.3.7l.4-.4c-.1-.1-.3-.1-.2-.3-.3-.1-.4-.2-.5,0ZM98.8,307.5c.1-.1,0-.3-.1-.4-.1.1,0,.3.1.4ZM91.3,307.9c.1,0,.3,0,.4-.1l-.2-.3c-.1.1-.3.2-.2.4ZM92.4,309.3c0,.1,0,0,0,0h0ZM72.7,310c.1,0,.1.1.2.3h.8c0,0-.2-.5-.6-1.4h-.3c0,.2,0,.6-.2,1.2ZM97.3,312.8c.1-.1,0-.4,0-.5-.1.1,0,.4,0,.5ZM93.8,312.6c-.1.1-.1.3,0,.4h.5s0-.4,0-.4c-.1-.1-.4-.2-.5,0ZM166.9,191.7c.3.7.4,1.7.2,3l-.6,3.5s-.2,2.4-.5,7.2c-.5,7.7-1,12.4-1.5,13.8-2.8.5-6.9.3-12.5-.2-5.5-.6-9.5-.8-12.2-.3-1.2-.2-2.8,0-4.9.2-1.3,2.3-2.1,5.6-2.4,10-.4,6.3-.7,9.7-.8,10.3,1.1,1.1,2.9,1.8,5.7,2,.9,0,2.5,0,4.6,0,2.2,0,3.8,0,5,0,2.1.1,3.8.5,5.1,1.1-.4,4.4-.9,11-1.4,19.8l.2,3c0,1.1-.1,1.8-.6,2.5-1.7.4-4.6.3-8.8-.3-4.2-.7-7.2-.9-9.2-.4-.3.2-.7,1-1.5,2.4l-.7,3-.8,1.7c.3.1.5.3.6.7-.1,0-.4.2-.7.6.3,0,.5.2.6.6-.1.1-.4.2-.7.6,0,.4,0,3.4,0,9.1,0,4.7-.3,9.7-1,14.9-.2.9-.9,3.2-.9,4.1,0,1.2.3,5.2.2,7.2-.3,3.9-.7,6.3-1.2,7.2-1.3.3-5.5.3-12.6-.2-6.9-.5-11.1-1-12.5-1.5-.1-.1,0-1.7.3-4.7,0-3.3.3-8.4,1-15.1,0-.5.6-1.7.7-2.3,0-.9-.3-3.2-.2-4.9,0-6.3.4-11.5,1.1-15.6.2-1.2.6-3,.9-5.5,0-2.8,0-7,.3-12.6,0-.4.3-2.2.8-5.2.3-2.3.6-4.4.6-6.1,0-.9-.3-3.7-.2-4.9,0-1.2.3-2.7.6-5,.3-2.2.5-4,.6-5.2,0-.9-.2-2.5-.2-4.8,0-2.9.2-7.1.7-12.6.5-5.9,1-10.1,1-12.7-.2-.4-.5-1-.5-1.9l.8-1.8c.2-5.2.4-8,.6-8.4,3.5.2,8.9.5,16.1.6.7-.2,1.5-.4,2.5-.5.8.3,1.9.7,3.5.9.4,0,1.6-.5,3.1-.4l3,.9c1.2.2,2.9.2,5,0,2.5,0,4.3,0,5.3,0,.9,0,3.8.4,8.6,1.1,4,.5,7.3.8,9.9.8ZM113.9,209.1c.4-.4.6-.9.6-1.5,0-1.2-.4-1.7-1.6-1.6-.4.4-.7.9-.8,1.5,0,1.2.5,1.7,1.7,1.6ZM210.8,325.4c-.4.4-1.1.3-1.9.1-.3-.1-.4-.2-.4-.2h-1.3c-.5,0-.9,0-1.2,0-1.2,0-1.7-.1-1.7-.1-.1-.1-.3-.1-.1-.1h-.3q-.1.1-.3,0c-1.7-.1-2.6-.2-2.6-.2-2.2-.3-3.3-.4-3.3-.4-.7,0-1.1,0-1.2,0-.3-.1-.4-.2-.4-.2-.3,0-.7,0-1.2,0-1.2,0-2.5-.2-3.7-.4,0,0-.1-.1-.4-.3v-.4s0-.1,0-.4v-.3s-.1,0-.1,0c0-.1,0-.5,0-.9-.1,0,0,.4-.4-2.1q-.1,0-.3-.1c.2-.5.2-.8,0-.7,0-.4,0-1.2-.1-2.1q0-.1-.1-.3v-1c0-1.1.2-3.2.2-6.2,0,0,0-.1-.1-.3.1-.3.2-.8.2-1.4,0-.1,0-.4,0-.8v-.9c0-.9,0-1.4,0-1.3,0,0,0-.1.1-.3v-1.8c.2-1.2.3-3,.4-5.4-.1-.1-.1-.3-.1-.4,0-.9,0-1.8.2-2.7v-.3s.1,0,.1,0c0-.3,0-.5,0-.9v-.9c0-.7,0-1.2.2-1.8v-.9c.2-.4.2-.6.2-.8-.1-.1,0-.5,0-.9l.3-4.5c.1.4.1-.1.2-1.4,0-.1,0-.4,0-.8v-.9c.2-1.4.2-3.8.1-6.8v-.3c.2-.4.2-1,.1-1.7q0-.1-.1-.1c0-.4-.2-1.1-.5-1.9q-.1-.1-.1-.3h-.5s-.5-.3-.5-.3h-.9c-2.2-.5-4.2-.7-5.7-.7h-1.4c-.9-.3-1.7-.2-2.4-.1-.2.4-.2,1.6-.4,3.4,0,1.3-.1,2-.1,2l-.4,1.6.2.4v.9c-.2.6-.4,1.2-.4,1.6,0,.5.2.9.2,1.3-.1,0-.1.1-.3.2.1,0,.1.1.2.3l-1.1,16c-1.1,16.2-1.7,24.4-1.7,24.4,0,.8-.3,2-.5,3.4-.4.1-1.8,0-4.1-.1l-10.9-.8c-.4,0-1,0-2-.3-.2-.7-.3-1.2-.2-1.6l.3-.4c-.1-.4,0-.9-.1-1.9,0,0,0-1.4.3-4.2l.3-4.1c0-1.8,0-3.3.2-4.2l.6-8.2.3-3.9c0-1.7,0-3,.1-3.9.2-3.5.4-5.4.4-5.4,0-1.4,0-2.2,0-2.4l.2-2.4c.1-.1.2-.5.2-.9v-.9c0-.4,0-.7,0-.9.4-4.3.9-10.9,1.4-19.6.1-3.4.2-5.4.3-5.9,0-.1,0-.5.2-.9v-2c0-.4,0-.8,0-1.1,0,0,.5-7.6,1.6-22.8l1.7-24.9c.3-4.3.5-7.1.7-8.1l3.1.2c1,0,2.2.2,3.4.1.1,0,.3,0,.4-.1h.9c.4.2.8.2.9.3,0,0,2,.1,5.9.4.4,0,1,0,2,0h1.8c.3.1.8.2,1.4.4h1.4q.1.1.3,0h.1c0,.1.3.2.3.2,2.6,0,3.8.1,3.7.1,2.5.2,6.1.6,11.1,1l1.8,1c.4.2,1,.6,1.6,1.2.3.1.6.3,1,.7-.5-.2,1,.6,3,3,.3.1.5.6.7,1.1.1-.1.6.7,1.1,1.8l.2.3v.3s.2.3.8,1.2c0,.3,0,.5.2.9.1,0,.1.3.4,1.2.1,0,.1.1.2.3,0,0,0,.1,0,.3l.6,1.5c.3,1.2.5,2.3.6,3.2v.3h.1c0,.1.2,1.5.2,1.5.1.4.2,2.1.2,5,0,3.4,0,6.4-.4,9.1v.5c-.2.3-.2.4-.2.5.1.1.1.3.1.4,0,0,0,.9-.2,2.9-.2,3.1-.4,5.5-.6,6.9v.7q0,0,0,.1l-.3,1c0,1.4-.4,3.5-.7,6.4q-.1,0-.1.1c-.2.4-.2,1-.3,1.8-.1.1-.3.8-.8,2-.2.5-.3,1.2-.8,2-.6,1-1.2,2.4-1.5,2.7v.3c-.6,1,0-.4-2.5,3.1-.1,0-.4.1-.5.2v.4q-.2,0-.2.1c-.2.4,0,.8.4,1.3,0,0,.8,1.8,1.4,3.1.5.6.8,1.5,1.2,2.2,0,0,0,.1,0,.3v.4c.1,0,.2,0,.2,0l.9,3.6c0,.3,0,.4,0,.3h.1s0,.3,0,.3c0,.1.2,1.2.5,4,0,.7-.1,1.6,0,3v.3s.1,0,.1,0c-.1,1.6-.3,3.9-.4,7.2v.7c.2.5.2.8,0,.9,0,0,0,.5-.1,1.6l-1.1,16.5c.1.3.2.4,0,.5-.1.1-.2.6-.6,5.4l-.3,4.5q-.1,0-.1.1c0-.1,0,.3,0,.9v.3s.1,0,.1,0c0,1.3.2,3.3.5,5.8h.1v.3c.3.9.4,1.6.2,2.1ZM183.6,246l6.4.4c0-.1.7,0,1.7-.3,0,0,.1,0,.4,0,.1,0,.3,0,.9-.3,0-.1.3-.5.4-.5v-.4c.2-.1.7-.6,1.4-5.3.2-1.7.4-3.5.5-5.4h-.1c-.1-.1,0-.3.2-.4.2-.9.3-2.6.4-5.1-.1-.3,0-.7,0-1.3,0-.3,0-.7.2-1.3,0-.1,0-.3,0-.5l.4-5.5c0-2.6-.2-4.2-1.1-4.8-.1-.1-.5-.3-1.2-.5-2.2-.5-4.4-.8-6.7-.7,0,.1-.1.1-.4.1h-2c-.4-.2-1.1,0-1.9,0,0,.7,0,1.7-.2,3,0,.4,0,.9-.2,1.6v.5q0,.1-.2.1.1.1.1.3c.1.1.1.3,0,.7-.5,5-.9,8.6-1,10.8-.2,2.4-.2,3.5-.2,3.5.2.9.1,2,0,3.3,0,1.3,0,3.3-.4,5.9,0,1-.1,1.6-.1,1.6.4.2,1.3.2,2.9.5Z"/>
  <path class="st0" d="M73,91.2l-7.8.9c-2.3.3-4.7.5-7,.8-.3,0-.6,0-.9,0h0s-.7,0-.7,0c-.7.1-1.7.4-2.4.7-4.1,1.9-6,6.7-4.8,11.1.2.6.6,1.2.7,1.8-1.1-1.4-2.1-2.9-3.1-4.3-1.9-2.5-3.6-5.1-5.6-7.7,2.2-5,6.4-8.7,11.6-10.3,2.7-.8,5.5-1,8.3-.5,4.7.8,8.9,3.4,11.7,7.2Z"/>
  <path class="st0" d="M59,109.3c4-.4,6.9-4,6.4-8-.4-4-4-6.9-8-6.4-4,.4-6.9,4-6.4,8s4,6.9,8,6.4Z"/>
  <path class="st0" d="M76,106.3c-.5,2.2-1.4,4.3-2.7,6.1-3,4.4-7.8,7.3-13.1,7.9,1.5-3.6,3.1-7.1,4.6-10.7.1-.3.4-.6.5-.9.2-.6.4-1.2.6-1.7.6-1.5,1.3-2.6,1.4-4.3,0,0,0-.2,0-.3.1,0,0-.3,0-.4-.3-4.1-2.5-7.6-6.6-8.7-.9-.2-1.7-.3-2.6-.4,2.3-.3,4.7-.5,7-.8l7.8-.9c1.2,1.7,2.2,3.6,2.8,5.6.9,3.1,1,6.3.3,9.4Z"/>
  <path class="st0" d="M66,107c-.2.6-.4,1.2-.6,1.7-.1.3-.3.6-.5.9-1.5,3.6-3.1,7.1-4.6,10.7-4.4.5-8.9-.6-12.5-3.2-3.5-2.4-6-6-7.2-10.1-1.1-4.1-.8-8.4.9-12.2,2,2.5,3.8,5.1,5.6,7.7,1,1.4,2.1,2.9,3.1,4.3,1.5,2,3.1,3.6,5.6,4.3,3.1.8,6.7-.2,9-2.5.4-.5.8-1,1.2-1.5Z"/>
  <path class="st0" d="M67.3,102.4c0-.1,0-.3,0-.4,0,.1,0,.3,0,.4Z"/>
  <path class="st0" d="M234.1,235.4l8.9,3.3c2,1,2.8,3.4,2.1,5.5l-3.2,8.4c4.3,1.5,4.9,7.3,1.1,9.8-1.6,1.1-3.3,1.1-5.1.6-2.3-.7-4.6-1.8-6.9-2.6,2-5.4,4-10.8,6.1-16.2-1.9-.7-3.8-1.4-5.7-2.1.8-2.3,1.8-4.5,2.6-6.8h0Z"/>
  <path class="st0" d="M234.1,235.4c-.7,2.3-1.8,4.5-2.6,6.8-5.4-2-10.7-4-16.1-6l-6.9-2.6c1.2-3.2,2-6.1,6.2-5.4l8.9,3.3c1.7-5,8.9-4.8,10.5.2.4,1.3.3,2.5,0,3.7h0Z"/>
  <path class="st0" d="M215.5,236.1c1.8,2.9,3.2,5.9,2.9,9.4-.4,5.9-4.3,10.2-9.7,12l-1.4.4c1.7.6,3.4,1.3,5,1.9l-2.6,6.8c-2.9-1.1-5.7-2.1-8.6-3.3-1.7-1.1-2.5-3.1-1.9-5.1l3.1-8.3c2.2,1,5.5.5,7.2-1.3,3.2-3.5,1.1-8.4-3-9.9.7-1.8,1.3-3.5,2-5.3l6.9,2.6h0Z"/>
  <path class="st0" d="M238,263.1c-1.1,2.6-1.9,5.5-3,8.1-1,2.2-2.8,3.5-5.3,3-6.6-2.5-13.3-5-20-7.5l2.6-6.8c5.6,2.1,11.1,4.2,16.7,6.3.7-1.9,1.4-3.8,2.1-5.7,2.3.8,4.6,1.9,6.9,2.6h0Z"/>
</svg>