<?xml version="1.0" encoding="UTF-8"?>
<svg id="Layer_2" data-name="Layer 2" xmlns="http://www.w3.org/2000/svg" viewBox="0 0 112.57 156.07">
  <defs>
    <style>
      .cls-1 {
        fill: #0a0a0a;
      }

      .cls-2 {
        fill: #59fd53;
      }
    </style>
  </defs>
  <g id="Layer_1-2" data-name="Layer 1">
    <g>
      <path class="cls-1" d="M9.61,26.28c.1,6.28-.19,12.58-.38,18.85-.07,2.24-.28,4.51-.14,6.75.05.88.12,1.48-.05,2.33-.58,2.87-1.34,5.9-1.51,8.83s.02,5.81.17,8.72c.05,1.05.12,2.1.18,3.16.15,2.46,0,4.72-.12,7.17-.1,2.25.08,4.48.22,6.72.21,3.33-.1,6.71-.18,10.04s.38,6.87.34,10.3c-.08,6.12-.83,12.22-.9,18.33-.03,2.7-.05,5.45.13,8.14.08,1.29-.2,2.37-.39,3.7-.37,2.57-1.06,5.16-.86,7.77.15,2.02.31,4,.55,6.01.11.92-.08,1.06.48,1.42.66.42,5.52.26,4.43.26,3.64,0,7.29-.3,10.92-.5,1.39-.08,3.12-.4,4.52-.15,1.92.34,3.47,1.4,5.46,1.66,1.82.24,3.73.31,5.56.26,1.44-.04,2.19-.08,3.38-.78.65-.38,1.1-.48,1.83-.54,2.98-.26,6.04.27,9.01.5,1.37.1,4.42.61,5.86-.09.53-.26.73-.57,1.23-.88.81-.5,1.86-.4,2.77-.45,3.49-.2,6.83.71,10.3.74,1.54.02,2.87-.37,4.35-.71,2.39-.54,4.47.68,6.82,1.06.77.12,2.49.57,3.19.1.77-.52,1.12-1.46,1.99-1.95.99-.55,1.91-.35,2.96-.12.53.12,1.22.33,1.75.28.7-.07,1.61-.81,2.17-1.1,1.32-.69,2.94-1.63,4.47-1.45,1.74.21,5.09,1.25,6.43-.5.45-.59.23-1.57.2-2.25-.11-2.2-.09-3.74.22-6,.68-4.92,1.68-9.77,2.7-14.62.67-3.18,1.33-6.43,1.47-9.69s-.59-6.5-.61-9.79.12-6.68,0-10.01c-.17-4.98-.83-9.9-2.12-14.71-.95-3.51-2.24-6.9-2.28-10.59-.02-1.7.28-3.4.35-5.11.15-3.73-.08-7.46.06-11.2.09-2.44.25-4.77.62-7.17.43-2.76.9-5.53,1.11-8.31.09-1.25.28-2.41.61-3.6.9-3.28,1.15-6.76,1.99-10.06.37-1.43.64-2.71.66-4.23.02-2.02.11-4.01.3-6.02.15-1.33.27-2.66.35-3.99-.09-.42-.01-.77.22-1.05-.93-1.05-2.19-1.22-3.51-1.28-4.24-.22-8.09,2.38-12.28,2.8-2.24.23-4.5.2-6.74.36-1.45.1-2.84.31-4.24.72-.92.27-1.83.56-2.74.87l-1.15.4c-.93.06-1.87-.21-2.85-.15-1.07.06-2.15.14-3.22.19-1.99.09-3.75-1.06-5.67-1.03-1.81.03-3.61.65-5.39.64-.82,0-1.56-.41-2.37-.51-.5-.06-1.01.06-1.51.08-1.38.05-2.71-.25-4.07-.46s-2.45-.17-3.75-.11-2.76-.1-3.94.35c-.82.31-1.01.54-1.93.58-.64.03-1.55.28-2.16.14-.68-.16-.73-.96-1.05-1.54-.65-1.17-1.67-3.02-2.88-3.6-1.12.7-1.72,1.88-2.62,2.82-1.33,1.37-3.08,2.21-4.37,3.63-1.01,1.11-1.65,1.8-3.03,2.41-1.57.69-3.13,1.34-4.72,1.96-.69.27-2.41,1.35-3.05.76-1.4-1.3-5.44.28-7.33.38-1.02.05-2.05.11-3.07.16-.45.02-1.03-.06-1.45.05-.58.15-1.09,3.85-1.71,3.89Z"/>
      <path class="cls-2" d="M9.76,23.96c.1,6.28-.19,12.58-.38,18.85-.07,2.24-.28,4.51-.14,6.75.05.88.12,1.48-.05,2.33-.58,2.87-1.34,5.9-1.51,8.83s.02,5.81.17,8.72c.05,1.05.12,2.1.18,3.16.15,2.46,0,4.72-.12,7.17-.1,2.25.08,4.48.22,6.72.21,3.33-.1,6.71-.18,10.04s.38,6.87.34,10.3c-.08,6.12-.83,12.22-.9,18.33-.03,2.7-.05,5.45.13,8.14.08,1.29-.2,2.37-.39,3.7-.37,2.57-1.06,5.16-.86,7.77.15,2.02.31,4,.55,6.01.11.92-.08,1.06.48,1.42.66.42,5.52.26,4.43.26,3.64,0,7.29-.3,10.92-.5,1.39-.08,3.12-.4,4.52-.15,1.92.34,3.47,1.4,5.46,1.66,1.82.24,3.73.31,5.56.26,1.44-.04,2.19-.08,3.38-.78.65-.38,1.1-.48,1.83-.54,2.98-.26,6.04.27,9.01.5,1.37.1,4.42.61,5.86-.09.53-.26.73-.57,1.23-.88.81-.5,1.86-.4,2.77-.45,3.49-.2,6.83.71,10.3.74,1.54.02,2.87-.37,4.35-.71,2.39-.54,4.47.68,6.82,1.06.77.12,2.49.57,3.19.1.77-.52,1.12-1.46,1.99-1.95.99-.55,1.91-.35,2.96-.12.53.12,1.22.33,1.75.28.7-.07,1.61-.81,2.17-1.1,1.32-.69,2.94-1.63,4.47-1.45,1.74.21,5.09,1.25,6.43-.5.45-.59.23-1.57.2-2.25-.11-2.2-.09-3.74.22-6,.68-4.92,1.68-9.77,2.7-14.62.67-3.18,1.33-6.43,1.47-9.69.14-3.29-.59-6.5-.61-9.79s.12-6.68,0-10.01c-.17-4.98-.83-9.9-2.12-14.71-.95-3.51-2.24-6.9-2.28-10.59-.02-1.7.28-3.4.35-5.11.15-3.73-.08-7.46.06-11.2.09-2.44.25-4.77.62-7.17.43-2.76.9-5.53,1.11-8.31.09-1.25.28-2.41.61-3.6.9-3.28,1.15-6.76,1.99-10.06.37-1.43.64-2.71.66-4.23.02-2.02.11-4.01.3-6.02.15-1.33.27-2.66.35-3.99-.09-.42-.01-.77.22-1.05-.93-1.05-2.19-1.22-3.51-1.28-4.24-.22-8.09,2.38-12.28,2.8-2.24.23-4.5.2-6.74.36-1.45.1-2.84.31-4.24.72-.92.27-1.83.56-2.74.87l-1.15.4c-.93.06-1.87-.21-2.85-.15-1.07.06-2.15.14-3.22.19-1.99.09-3.75-1.06-5.67-1.03-1.81.03-3.61.65-5.39.64-.82,0-1.56-.41-2.37-.51-.5-.06-1.01.06-1.51.08-1.38.05-2.71-.25-4.07-.46s-2.45-.17-3.75-.11-2.76-.1-3.94.35c-.82.31-1.01.54-1.93.58-.64.03-1.55.28-2.16.14-.68-.16-.73-.96-1.05-1.54-.65-1.17-1.67-3.02-2.88-3.6-1.12.7-1.72,1.88-2.62,2.82-1.33,1.37-3.08,2.21-4.37,3.63-1.01,1.11-1.65,1.8-3.03,2.41-1.57.69-3.13,1.34-4.72,1.96-.69.27-2.41,1.35-3.05.76-1.4-1.3-5.44.28-7.33.38-1.02.05-2.05.11-3.07.16-.45.02-1.03-.06-1.45.05-.58.15-1.09,3.85-1.71,3.89Z"/>
      <path class="cls-1" d="M6.61,21.28c.1,6.28-.19,12.58-.38,18.85-.07,2.24-.28,4.51-.14,6.75.05.88.12,1.48-.05,2.33-.58,2.87-1.34,5.9-1.51,8.83s.02,5.81.17,8.72c.05,1.05.12,2.1.18,3.16.15,2.46,0,4.72-.12,7.17-.1,2.25.08,4.48.22,6.72.21,3.33-.1,6.71-.18,10.04s.38,6.87.34,10.3c-.08,6.12-.83,12.22-.9,18.33-.03,2.7-.05,5.45.13,8.14.08,1.29-.2,2.37-.39,3.7-.37,2.57-1.06,5.16-.86,7.77.15,2.02.31,4,.55,6.01.11.92-.08,1.06.48,1.42.66.42,5.52.26,4.43.26,3.64,0,7.29-.3,10.92-.5,1.39-.08,3.12-.4,4.52-.15,1.92.34,3.47,1.4,5.46,1.66,1.82.24,3.73.31,5.56.26,1.44-.04,2.19-.08,3.38-.78.65-.38,1.1-.48,1.83-.54,2.98-.26,6.04.27,9.01.5,1.37.1,4.42.61,5.86-.09.53-.26.73-.57,1.23-.88.81-.5,1.86-.4,2.77-.45,3.49-.2,6.83.71,10.3.74,1.54.02,2.87-.37,4.35-.71,2.39-.54,4.47.68,6.82,1.06.77.12,2.49.57,3.19.1.77-.52,1.12-1.46,1.99-1.95.99-.55,1.91-.35,2.96-.12.53.12,1.22.33,1.75.28.7-.07,1.61-.81,2.17-1.1,1.32-.69,2.94-1.63,4.47-1.45,1.74.21,5.09,1.25,6.43-.5.45-.59.23-1.57.2-2.25-.11-2.2-.09-3.74.22-6,.68-4.92,1.68-9.77,2.7-14.62.67-3.18,1.33-6.43,1.47-9.69s-.59-6.5-.61-9.79.12-6.68,0-10.01c-.17-4.98-.83-9.9-2.12-14.71-.95-3.51-2.24-6.9-2.28-10.59-.02-1.7.28-3.4.35-5.11.15-3.73-.08-7.46.06-11.2.09-2.44.25-4.77.62-7.17.43-2.76.9-5.53,1.11-8.31.09-1.25.28-2.41.61-3.6.9-3.28,1.15-6.76,1.99-10.06.37-1.43.64-2.71.66-4.23.02-2.02.11-4.01.3-6.02.15-1.33.27-2.66.35-3.99-.09-.42-.01-.77.22-1.05-.93-1.05-2.19-1.22-3.51-1.28-4.24-.22-8.09,2.38-12.28,2.8-2.24.23-4.5.2-6.74.36-1.45.1-2.84.31-4.24.72-.92.27-1.83.56-2.74.87l-1.15.4c-.93.06-1.87-.21-2.85-.15-1.07.06-2.15.14-3.22.19-1.99.09-3.75-1.06-5.67-1.03-1.81.03-3.61.65-5.39.64-.82,0-1.56-.41-2.37-.51-.5-.06-1.01.06-1.51.08-1.38.05-2.71-.25-4.07-.46s-2.45-.17-3.75-.11-2.76-.1-3.94.35c-.82.31-1.01.54-1.93.58-.64.03-1.55.28-2.16.14-.68-.16-.73-.96-1.05-1.54-.65-1.17-1.67-3.02-2.88-3.6-1.12.7-1.72,1.88-2.62,2.82-1.33,1.37-3.08,2.21-4.37,3.63-1.01,1.11-1.65,1.8-3.03,2.41-1.57.69-3.13,1.34-4.72,1.96-.69.27-2.41,1.35-3.05.76-1.4-1.3-5.44.28-7.33.38-1.02.05-2.05.11-3.07.16-.45.02-1.03-.06-1.45.05-.58.15-1.09,3.85-1.71,3.89Z"/>
      <path class="cls-2" d="M6.76,19.96c.1,6.28-.19,12.58-.38,18.85-.07,2.24-.28,4.51-.14,6.75.05.88.12,1.48-.05,2.33-.58,2.87-1.34,5.9-1.51,8.83s.02,5.81.17,8.72c.05,1.05.12,2.1.18,3.16.15,2.46,0,4.72-.12,7.17-.1,2.25.08,4.48.22,6.72.21,3.33-.1,6.71-.18,10.04s.38,6.87.34,10.3c-.08,6.12-.83,12.22-.9,18.33-.03,2.7-.05,5.45.13,8.14.08,1.29-.2,2.37-.39,3.7-.37,2.57-1.06,5.16-.86,7.77.15,2.02.31,4,.55,6.01.11.92-.08,1.06.48,1.42.66.42,5.52.26,4.43.26,3.64,0,7.29-.3,10.92-.5,1.39-.08,3.12-.4,4.52-.15,1.92.34,3.47,1.4,5.46,1.66,1.82.24,3.73.31,5.56.26,1.44-.04,2.19-.08,3.38-.78.65-.38,1.1-.48,1.83-.54,2.98-.26,6.04.27,9.01.5,1.37.1,4.42.61,5.86-.09.53-.26.73-.57,1.23-.88.81-.5,1.86-.4,2.77-.45,3.49-.2,6.83.71,10.3.74,1.54.02,2.87-.37,4.35-.71,2.39-.54,4.47.68,6.82,1.06.77.12,2.49.57,3.19.1.77-.52,1.12-1.46,1.99-1.95.99-.55,1.91-.35,2.96-.12.53.12,1.22.33,1.75.28.7-.07,1.61-.81,2.17-1.1,1.32-.69,2.94-1.63,4.47-1.45,1.74.21,5.09,1.25,6.43-.5.45-.59.23-1.57.2-2.25-.11-2.2-.09-3.74.22-6,.68-4.92,1.68-9.77,2.7-14.62.67-3.18,1.33-6.43,1.47-9.69.14-3.29-.59-6.5-.61-9.79s.12-6.68,0-10.01c-.17-4.98-.83-9.9-2.12-14.71-.95-3.51-2.24-6.9-2.28-10.59-.02-1.7.28-3.4.35-5.11.15-3.73-.08-7.46.06-11.2.09-2.44.25-4.77.62-7.17.43-2.76.9-5.53,1.11-8.31.09-1.25.28-2.41.61-3.6.9-3.28,1.15-6.76,1.99-10.06.37-1.43.64-2.71.66-4.23.02-2.02.11-4.01.3-6.02.15-1.33.27-2.66.35-3.99-.09-.42-.01-.77.22-1.05-.93-1.05-2.19-1.22-3.51-1.28-4.24-.22-8.09,2.38-12.28,2.8-2.24.23-4.5.2-6.74.36-1.45.1-2.84.31-4.24.72-.92.27-1.83.56-2.74.87l-1.15.4c-.93.06-1.87-.21-2.85-.15-1.07.06-2.15.14-3.22.19-1.99.09-3.75-1.06-5.67-1.03-1.81.03-3.61.65-5.39.64-.82,0-1.56-.41-2.37-.51-.5-.06-1.01.06-1.51.08-1.38.05-2.71-.25-4.07-.46s-2.45-.17-3.75-.11-2.76-.1-3.94.35c-.82.31-1.01.54-1.93.58-.64.03-1.55.28-2.16.14-.68-.16-.73-.96-1.05-1.54-.65-1.17-1.67-3.02-2.88-3.6-1.12.7-1.72,1.88-2.62,2.82-1.33,1.37-3.08,2.21-4.37,3.63-1.01,1.11-1.65,1.8-3.03,2.41-1.57.69-3.13,1.34-4.72,1.96-.69.27-2.41,1.35-3.05.76-1.4-1.3-5.44.28-7.33.38-1.02.05-2.05.11-3.07.16-.45.02-1.03-.06-1.45.05-.58.15-1.09,3.85-1.71,3.89Z"/>
      <path class="cls-1" d="M3.53,17.35c.1,6.28-.19,12.58-.38,18.85-.07,2.24-.28,4.51-.14,6.75.05.88.12,1.48-.05,2.33-.58,2.87-1.34,5.9-1.51,8.83s.02,5.81.17,8.72c.05,1.05.12,2.1.18,3.16.15,2.46,0,4.72-.12,7.17-.1,2.25.08,4.48.22,6.72.21,3.33-.1,6.71-.18,10.04s.38,6.87.34,10.3c-.08,6.12-.83,12.22-.9,18.33-.03,2.7-.05,5.45.13,8.14.08,1.29-.2,2.37-.39,3.7-.37,2.57-1.06,5.16-.86,7.77.15,2.02.31,4,.55,6.01.11.92-.08,1.06.48,1.42.66.42,5.52.26,4.43.26,3.64,0,7.29-.3,10.92-.5,1.39-.08,3.12-.4,4.52-.15,1.92.34,3.47,1.4,5.46,1.66,1.82.24,3.73.31,5.56.26,1.44-.04,2.19-.08,3.38-.78.65-.38,1.1-.48,1.83-.54,2.98-.26,6.04.27,9.01.5,1.37.1,4.42.61,5.86-.09.53-.26.73-.57,1.23-.88.81-.5,1.86-.4,2.77-.45,3.49-.2,6.83.71,10.3.74,1.54.02,2.87-.37,4.35-.71,2.39-.54,4.47.68,6.82,1.06.77.12,2.49.57,3.19.1.77-.52,1.12-1.46,1.99-1.95.99-.55,1.91-.35,2.96-.12.53.12,1.22.33,1.75.28.7-.07,1.61-.81,2.17-1.1,1.32-.69,2.94-1.63,4.47-1.45,1.74.21,5.09,1.25,6.43-.5.45-.59.23-1.57.2-2.25-.11-2.2-.09-3.74.22-6,.68-4.92,1.68-9.77,2.7-14.62.67-3.18,1.33-6.43,1.47-9.69s-.59-6.5-.61-9.79.12-6.68,0-10.01c-.17-4.98-.83-9.9-2.12-14.71-.95-3.51-2.24-6.9-2.28-10.59-.02-1.7.28-3.4.35-5.11.15-3.73-.08-7.46.06-11.2.09-2.44.25-4.77.62-7.17.43-2.76.9-5.53,1.11-8.31.09-1.25.28-2.41.61-3.6.9-3.28,1.15-6.76,1.99-10.06.37-1.43.64-2.71.66-4.23.02-2.02.11-4.01.3-6.02.15-1.33.27-2.66.35-3.99-.09-.42-.01-.77.22-1.05-.93-1.05-2.19-1.22-3.51-1.28-4.24-.22-8.09,2.38-12.28,2.8-2.24.23-4.5.2-6.74.36-1.45.1-2.84.31-4.24.72-.92.27-1.83.56-2.74.87l-1.15.4c-.93.06-1.87-.21-2.85-.15-1.07.06-2.15.14-3.22.19-1.99.09-3.75-1.06-5.67-1.03-1.81.03-3.61.65-5.39.64-.82,0-1.56-.41-2.37-.51-.5-.06-1.01.06-1.51.08-1.38.05-2.71-.25-4.07-.46s-2.45-.17-3.75-.11-2.76-.1-3.94.35c-.82.31-1.01.54-1.93.58-.64.03-1.55.28-2.16.14-.68-.16-.73-.96-1.05-1.54-.65-1.17-1.67-3.02-2.88-3.6-1.12.7-1.72,1.88-2.62,2.82-1.33,1.37-3.08,2.21-4.37,3.63-1.01,1.11-1.65,1.8-3.03,2.41-1.57.69-3.13,1.34-4.72,1.96-.69.27-2.41,1.35-3.05.76-1.4-1.3-5.44.28-7.33.38-1.02.05-2.05.11-3.07.16-.45.02-1.03-.06-1.45.05-.58.15-1.09,3.85-1.71,3.89Z"/>
      <path class="cls-2" d="M3.69,16.04c.1,6.28-.19,12.58-.38,18.85-.07,2.24-.28,4.51-.14,6.75.05.88.12,1.48-.05,2.33-.58,2.87-1.34,5.9-1.51,8.83s.02,5.81.17,8.72c.05,1.05.12,2.1.18,3.16.15,2.46,0,4.72-.12,7.17-.1,2.25.08,4.48.22,6.72.21,3.33-.1,6.71-.18,10.04s.38,6.87.34,10.3c-.08,6.12-.83,12.22-.9,18.33-.03,2.7-.05,5.45.13,8.14.08,1.29-.2,2.37-.39,3.7-.37,2.57-1.06,5.16-.86,7.77.15,2.02.31,4,.55,6.01.11.92-.08,1.06.48,1.42.66.42,5.52.26,4.43.26,3.64,0,7.29-.3,10.92-.5,1.39-.08,3.12-.4,4.52-.15,1.92.34,3.47,1.4,5.46,1.66,1.82.24,3.73.31,5.56.26,1.44-.04,2.19-.08,3.38-.78.65-.38,1.1-.48,1.83-.54,2.98-.26,6.04.27,9.01.5,1.37.1,4.42.61,5.86-.09.53-.26.73-.57,1.23-.88.81-.5,1.86-.4,2.77-.45,3.49-.2,6.83.71,10.3.74,1.54.02,2.87-.37,4.35-.71,2.39-.54,4.47.68,6.82,1.06.77.12,2.49.57,3.19.1.77-.52,1.12-1.46,1.99-1.95.99-.55,1.91-.35,2.96-.12.53.12,1.22.33,1.75.28.7-.07,1.61-.81,2.17-1.1,1.32-.69,2.94-1.63,4.47-1.45,1.74.21,5.09,1.25,6.43-.5.45-.59.23-1.57.2-2.25-.11-2.2-.09-3.74.22-6,.68-4.92,1.68-9.77,2.7-14.62.67-3.18,1.33-6.43,1.47-9.69.14-3.29-.59-6.5-.61-9.79s.12-6.68,0-10.01c-.17-4.98-.83-9.9-2.12-14.71-.95-3.51-2.24-6.9-2.28-10.59-.02-1.7.28-3.4.35-5.11.15-3.73-.08-7.46.06-11.2.09-2.44.25-4.77.62-7.17.43-2.76.9-5.53,1.11-8.31.09-1.25.28-2.41.61-3.6.9-3.28,1.15-6.76,1.99-10.06.37-1.43.64-2.71.66-4.23.02-2.02.11-4.01.3-6.02.15-1.33.27-2.66.35-3.99-.09-.42-.01-.77.22-1.05-.93-1.05-2.19-1.22-3.51-1.28-4.24-.22-8.09,2.38-12.28,2.8-2.24.23-4.5.2-6.74.36-1.45.1-2.84.31-4.24.72-.92.27-1.83.56-2.74.87l-1.15.4c-.93.06-1.87-.21-2.85-.15-1.07.06-2.15.14-3.22.19-1.99.09-3.75-1.06-5.67-1.03-1.81.03-3.61.65-5.39.64-.82,0-1.56-.41-2.37-.51-.5-.06-1.01.06-1.51.08-1.38.05-2.71-.25-4.07-.46s-2.45-.17-3.75-.11-2.76-.1-3.94.35c-.82.31-1.01.54-1.93.58-.64.03-1.55.28-2.16.14-.68-.16-.73-.96-1.05-1.54-.65-1.17-1.67-3.02-2.88-3.6-1.12.7-1.72,1.88-2.62,2.82-1.33,1.37-3.08,2.21-4.37,3.63-1.01,1.11-1.65,1.8-3.03,2.41-1.57.69-3.13,1.34-4.72,1.96-.69.27-2.41,1.35-3.05.76-1.4-1.3-5.44.28-7.33.38-1.02.05-2.05.11-3.07.16-.45.02-1.03-.06-1.45.05-.58.15-1.09,3.85-1.71,3.89Z"/>
      <g>
        <path d="M70.26,75.68c.07.42-.17.15-.29.27-.03.03-.04.19-.1.26-.12.15-.3-.07-.21.43l.62-.11-.13.55.48.49c-.28.16-.24.41-.21.84.05.67.17.12.36-.04,1.22-1,2.77-2.75,4.15-3.05.38-.08.75.07,1.08.44.17.19.21.62.45.61-.01-.52-.88-1.46-1.13-1.56-.31-.12-.63.27-.95.2.28-.45.9-.8,1.33-.68.73.2,1.15,2.59.8,3.43.11.2.29.09.25.42-.44-.24-.42.7-.75,1.13-.94,1.25-3.28,3.4-4.54,3.4-.13,0-.11-.21-.18-.24-.13-.06-.94-.32-.97-.26l-.06.6,1.01-.1-.93.35.05,1.15.23.06.05,1.33h.73c.57.98.11,1.94-.67,1.69v2.54s-.23-.24-.23-.24v.41c1.08.74.09,1.06.02,1.85s.02,1.73-.01,2.51c-.06,1.45-.31,2.81-.09,4.29l-.26-.85-.05.91c1.15.19,2.33.03,3.49.1,3.83.22,7.38,1.19,11.23,1,.79-.04,1.59-.02,2.38-.1-.05-.5.41-1.43.71-1.53,1.41-.49,1.92,2.11.74,2.93-.79.55-.89-.55-1.58-.67l.06-.6c-2.42.19-4.84.3-7.28.02l2.88.76c-.49-.04-.99.03-1.49-.02-2.95-.29-5.73-.82-8.72-.79-.42,0-1.91.08-2.15.19-.06.03-.15.2-.31.1l.23-.24c-.4-.34-1.08.86-1.05,1.37,0,.09.26,0,.17.31l-.38.18c0,.19.58.27.7.23.18-.05.16-.28.2-.28.1,0,.24.2.34.11.03-.02.08-.42.23-.52.08-.05.27.09.39-.06-.08.47.07.8.31,1.09l.02-.48c.15-.29.99.64,1.13-.11l.1.61c.22-.36.06-.91,0-1.33.17,0,.35.1.31-.24l.22.36.5.07-.23.13c-.02.5-.15.84.13,1.25-.17.24-.55-1.21-.72-.55-.07.28.19.14.24.18l-.06.41c.36.25.2.62.35,1.1l-.15.31.49-.48c.15.16-.16.52.09.48.1-.02.64-.18.69-.22.1-.08.02-.33.04-.37.02-.04.18.12.24.07.12-.11.11-.63.53-.42l-.05.72c.17.24,1.68-1.3,1.92-1.55.1-.1.01-.27.33-.22l.2-.98c.31.34-.12.69.09,1.07,1.1.25,1.92.6,2.6,2.12.14.32.19,1.02.38.78l-.05-.3c.32.26.74.39.93.92-.4.06-.66.07-.95-.44l.12,1.15-.23.18c.49-.08.14.46.12.69-.01.16.08.33.08.45,0,.05-.38.3-.21.8l3.73.3c.24-.46.28-.06.55-.04.19.02.43-.16.65-.08l-.05-.48.41.5c1.65-.16,3.32-.19,4.98.18,0,.18-.35.24-.43.24-.15,0-.28-.1-.43-.13l.02.48c-.42.05-.8.1-1.22-.14l.05.24c-.87-.12-1.72-.12-2.58.09.09.35.58.09.57.61l-.72-.31v-.3s-2.54-.12-2.54-.12l-.12.2c.13,0,.26,0,.4.06.3.16.78.5,1.04.8-.41.16-.59-.29-.92-.5-.47-.31-1.12-.76-1.61-.85-.33-.06-1.8,0-2.02.19-.04.04-.5.79-.51.85-.07.29.05.64-.13.84l-.29-.36-.05.77.18.17.29-.09-.17.84-.13-.48c-.34.17-.47.8-.5,1.32-.15.02-.07-.25-.07-.39,0-.21.02-.69.04-.86.05-.32.35-.25.28-.5-.65-.46-1.29.42-1.04,1.49l.4-.79.2-.11c.08.65-.43,1.21-.53,1.63-.23,1.01.49,5.98.6,7.44.33,4.05.45,8.19.58,12.21.02.79-.3,1.45-.38.23-.03-.36.05-.79.04-1.19-.16-6.25-.6-12.44-1.07-18.64-.03-.45-.06-1.12-.11-1.54-.03-.23-.22-1.04-.33-1.13-.41-.02-.72-.11-1.09.17v-.42s-.8-.07-.8-.07c-.08-.29.06-.45.1-.61.06-.31-.4-.25-.52-.24l.06.49-.66.17.24.06c-.07.35-.58.29-.78.17-.22-.13.07-.16.07-.36,0-.35-.26-.19-.37-.07-.1.1-.01.38-.13.49-.26.08.12-.57-.17-.49-.24.07-.28.86-.73.47-.09-.17.81-1.01.89-1.26-.13-.34-.4.21-.55-.07-.16-.32.26-.67.26-.77l-.24-.79.24.12.05-.85c-.3-.05-.32.77-.44.9-.19.2-.9.13-1.23.59-.13.18-.08.47-.14.69-.03.12-.24.15-.13.57l-.29-.61c-.19.55-.48.1-.82.11l.18.61-.46-.02c-.26-.76.38-.73.66-1.02.18-.19.07-.6.54-.29l-.17-.41.21-.43-.69.35.05-.72c-.38.13-.74.37-1.09.6-.29.19-.17.06-.4.14-.06.02-.5.23-.52.25-.1.12,0,.78-.39.79-.17-.25-.11-.56-.07-.85-.14-.19-.94.18-.99.25-.03.05,0,.28-.08.4-.09.15-.31.1-.34.42-.22.17-.28-.59-.43-.62-.1-.02-.3.17-.33.12l-.09-.43-.55-.08-.23-.71c-.59.8-1.43-.12-1.88.94l.54-.23c.03.66-.42.35-.45.38-.02.02-.01.23-.13.32-.18.14-1.37.88-1.54.94-.42.16-1.21.03-1.6.25-.09.05-.04.29-.12.42-.19.33-1.17.12-1.52.16-1.17.13-2.33.75-3.41.92s-2.37-.18-3.48.01c-.28.28.44.31.51.31,1.68-.06,3.4-.07,5.09-.06s3.21.12,4.82.07c0-.34-.12-.55.18-.48l-.02.48c.08.09.37-.37.32.13l-11.21.58c-.14.4-.39.75-.39,1.26,0,.24.02.19.16.18.02-.3.13-.73.37-.72.03.34-.05.95-.27,1.04-.15.06-.34-.15-.38.12-.03.21-.05,1.03-.05,1.31-.02,4.59.37,9.32.56,13.9.08,2.04.27,4.07.29,6.11-.28.01-.32-.59-.35-.91-.35-3.98-.05-8.31-.58-12.33-.16-3.34-.14-6.65-.18-9.98-.47,0-.89.07-1.32-.02l-.14-.48c-.35.47-.72.28-1.13.04-.11-.06-.18,0-.17-.24l.19-.4c.5.27,1.03.61,1.31-.25.29,1.02,1.02.13,1.51.5l.03-.24c-.77-.1-1.39-.62-2.17-.51-.13.02-.24.17-.39.21-.34.08-.54-.66-.88-.24l-.08.72c.1-.07.25.11.16.25-.03.05-.28-.33-.23.06l.63.58.54,3.73.23-.05c.32.21.12,1.48-.22,1.63l-.12-.24c0,.12-.03.2-.08.28-.04.07-.3.56-.37.43l.12-1.09.32.19-.27-.91-.14.48-.04-1.02-.34-1.04.31,3.45c-.29.73-.11,1.64-.11,2.47l-.22-1.84c-.16-.22-.32-.32-.34-.7-.32.13.05,1.81-.21,1.81-.31-.28.11-1.62-.02-1.81h-.31s-.21-1.46-.21-1.46c-.2.33-.35.13-.62.11-.1-.48.48-.13.54-.23l-.32-2.42c.15.05.15.24.17.42.08.58.3,2.44.45,2.85.02.05.1.15.12.12l.03-1.45.47.13c-.01-.35-.19-.6-.26-.92-.12-.59-.07-1.4-.2-1.84-.03-.11-.13-.12-.16-.19-.04-.09-.02-.25-.05-.3-.02-.03-.25.06-.36-.38-.33-.17-.29,1-.98.35-.48-.46-.43-.47-1.04-.53s-.86-1.97-.05-1.96c.24-.26-.2-1.29-.4-1.5-.09.17-.32.28-.37.47-.25.8.16,2.66.24,3.57.08.98.04,2.85.3,3.72.08.27.15.13.29.09l.29,1.39c-.08.16-.2-.48-.21-.55-.04-.16-.06-.32-.06-.48-.34-.11-.03.95-.36.84.04-.79-.3-1.5-.39-2.24-.01-.1-.04-.44.07-.24-.04.16.07.53.08.12-.19-.9-.09-1.85-.18-2.77-.05-.52-.29-1.22-.32-1.7-.06-.74.34-2.71-.41-2.74-.13.19-.34.48-.19.02l-.36-.25c-.1.38-.2.53-.49.48l.1.48.18-.09c.27.28.17.6.08.94l-.32-.18c.11.46.13.95.23,1.42.03.17.17.25.21.41.05.21-.04.8.14,1.07-.23.25-.23-.61-.26-.79-.13-.03-.07.29-.07.42.03.44.07.77.35.97-.22.08-.16.39-.13.73.06.66.29,1.52.35,2.05.03.23-.07.62,0,.91l-.4-.69c-.03-.25.02-.54.2-.52v-.24c-.49-.23-.33-1.53-.47-2.1-.04-.15-.2-.13-.24-.29-.05-.21.07-.64.05-.96-.02-.24-.19-.13-.19-.36,0-.65.24-.84,0-1.84,0-.04-.26-.18-.16-.64l-1.48.22.15.3-.18.59c.38.44.01.5.18,1.05l-.24-.12.09.36c-.81-.69-1.73-.11-2.59-.28l1.82-.7.11-.24c-.3.05-.8.25-.95-.32l.61-.29-.18-.73.28.12.03-.36.09.23.3-.1c.04-.17-.32-.11-.17-.36.02-.04.28.23.31-.12l-.89-.02c0,.62-.4.9-.77.95-.46.06-1.05-.15-1.48-.14-.36.01-.72.44-1.16.23l-.1.73-.16-.06.07-.3c-.57-.05-1.03.53-1.48.95-.07.06-.04.37-.24.23-.09-.06-.11-.3-.14-.34-.03-.03-.49.04-.61.03-.17-.02-.62-.21-.75-.19-.07,0-.06.25-.11.3-.19.2-.88-.19-1.13-.06-.17.09-.09.67-.38.71-.26.03-.22-.27-.34-.38-.24-.23-1-1.02-1.18-1.13-.47-.28-.34-.03-.53.19-.14.17-.32.03-.27.58.07.65.35.52.56.94l-.51.11c-.18,1.04.39,1.03.9,1.12.12-.05-.02-.74.26-.61l-.06.6,1.19.44c.04.31-.13.16-.24.14-.6-.1-1.2-.34-1.8-.47.14.58.07,1.39.6,1.52.15.04.27-.53.33.42-.25-.25-.33.19-.42.21-.39.06-.51-1.72-.65-2.11-.37-.47-1.85-.59-2.04-1.16-.11-.32-.01-.83-.27-1.09-.14.16-.13.25-.07.49.02.07.35.63.1.6-.03,0-.48-.57-.5-.61-.07-.18.06-.41.02-.6-.11-.18-.85,1.45-1.29,1.14-.27-.19-.65-1.13-.62.29h-.28c.01.67-.14,1.31-.36,1.87-.05.11-.19.14-.21.2-.09.26.1,1.76.06,2.19.33.03.63,1.22.57,1.54-.03.17-.2.34-.17.52.02.16.28.49.31.77.02.25-.13.49-.1.69.03.16.23.31.28.55.04.19-.05.59.07.86-.09.16-.47-.62-.64-.67-.13-.04-.32.11-.48.05-.09-.82-.57-1.12-.44-2.1.1-.77.24-1.97.27-2.8.02-.47-.1-2.12-.24-2.51-.08-.21-.57-.36-.63-.49s0-.45-.16-.58l-.16.25-.42-.13.98-1.13c-.25-.47-.44.3-.71-.13.05-.33,1.01-.62.75-1.02-.03-.05-.61.24-.69.31-.03.03-.4.53-.49.64s-.24.8-.23.91c0,.1.3.2.31.5,0,.28-.33.5.12.65-.2.24-.06.56-.1.73-.02.09-.12.15-.14.24-.08.38-.05,1.22.31,1.09-.23.56-.63.12-.41-.49l-.47-.19.22-.24c-.4-.27-.34-.82-.36-1.39,0-.02-.21.14-.23.18-.13.25.05.62-.22.54.15-.54-.38-.69-.36-1.27l.11-.16c.41.35.29-.38.67-.02l.14-.66-.31.05.2-.96-.84.59.32.3-.25.66c-.25,0-.16-.41-.25-.61-.08.19-.33.43-.38.61-.06.24.12.44-.05.59l-.35-.11-.07.53c.14.3.34-.14.33.31l.19-.36.58.13-.1.36c-.22-.46-.32,0-.59,0l.05.24.58-.11v.36c-.4-.11-.24.13-.36.42-.16.39-.49.22-.69.53-.1-.64-.53-.65-.88-.62l.09-.33c.45.07-.12-.85.42-.75l-.17-.48.46-.17-.05-.3c-.16.39-.41.05-.66.11l.09.24c-.19-.13-.25.23-.28.23-.11.01-.43-.14-.58-.12l.06-.48.16.12c-.16-.55.17-.61.2-.91.02-.21-.09-.25-.16-.18,0,0,.04.47-.15.18l.48-.76c.22.07.17.64.27.71.08.05.42.12.52.1.32-.05.37-.76-.04-.46l-.11-.71-.61.1c-.07-.5.55-.38.61-.48.02-.5-.22-.08-.37-.05-.13.03-.28,0-.42.04-.02-.03.11-.67.13-.75.05-.14.18-.02.15-.21l-1.17-.15c-.29-.91.61-.73.91-.95.09-.06.08-.27.23-.37.12-.08.88-.39,1.03-.43.37-.09,1.94.4,2.05-.06-.34-.2-.42-.47-.62-.91l-.46.58-.19-.29c.08-.21.36-.48.41-.67.06-.25-.09-.5-.02-.93.11-.59.52-.92.58-1.11.01-.05-.18-.44,0-.73l.13.36.17-.72c-.24.1-.25-.22-.38-.34-.44-.37-.73-.39-1.16-.05-.3-.24.04-1.03-.04-1.21-.15-.34-.32.11-.43.06-.03-.01-.54-.41-.56-.44-.27-.41.74-.23.8-.25.13-.05.22-.35.49-.43.13-.04.57-.1.68-.08.33.06.56.84.99.44l-.03.37c.33.12.49.34.73.7.29-.44.62-.25.89-.36.56-.23,1.34-.84,1.94-.71.22.05.49.41.75.43.35.03.95-.2,1.32-.23.27-.03.55.03.82,0-.67-.88-1.75-1.2-2.58-1.25-.11,0-1.39.22-1.22-.13,1.21-.49,2.68-.23,3.81.79.15.14.25.39.39.52.29.26,4.41.19,5.13.25s1.54.28,2.28.4c.28.05.57-.04.86.02.32.07.61.61.55,1.12-.02.15-.81,1.34-1.01,1.4-.11.28.16.54.14.88-.03.55-.26.78-.5,1.11.16.2.23-.24.36-.28.47-.17.35.73.38,1.2.19-.24.6-.8.64-1.17.08-.64-.23-1.49.07-2.08.35.38.05.95.21,1.58.09.36.32.25.31.66s-.25.46-.14.79h-.39s.09.3.09.3l4.3-.12c-.14-.49.23-.76.11-1.33l.49.49-.09-.49.16.06v-.18c-.35.11-.69-.7-.82-.8-.14-.1-.31,0-.44-.19-.21-.3,0-.75-.08-.95-.02-.04-.16-.09-.23-.2-.33-.56-.75-1.29-1.04-1.9-.42-.89-.96-2.85-1.34-3.46-.08-.13-.19-.2-.29-.3l-.26.47c-.02-.36.22-.53.21-.9,0-.25-.36-.92-.41-1.5-.39-4.5-.21-9.36-.6-13.87-.11-1.23-.59-2.31-.55-3.57-.23.01-.21-.23-.34-.34-.23-.18-.66-.46-.9-.34.06.66.78.98.87,1.29.05.16.02.75.12,1.07.17.54.56.94.56,1.59-.25.46-2.48-.59-2.92-.83-1.17-.63-2.52-1.54-3.21-3.24-.56-1.38-.45-2.18-.24-3.63.32.22.52-.44.93-.23-.07.23-.31.26-.45.42-.47.54-.55,1.23-.28,2.09.06.19.98,2.29,1.05,2.39.34.49,1.52,1.24,1.99,1.5.68.38,1.37.69,2.08.78l-.16-.3.53-.41c-.15-.02-1.65-.18-1.43-.62h.31c-.66-.45-2.48-1.31-2.89-2.15-.13-.26-.27-.85-.32-1.15-.04-.28.04-.4.03-.53,0-.03-.28-.15-.17-.55.55-.26.56-.02.95.3.11.09.23.08.35.19.03.03.63.91.44.31-.06-.18-1-1.52-1.12-1.63-.28-.25-.6-.26-.9-.39l.07-.36c.22-.1.48.33.54.36.22.11.47.1.71.24.3.18,1.14,1.32,1.34,1.24.13-.05.28-.54.59-.34l-.23.24.1.6c.32-.07.48-.14.75.26-.02-.48-.11-1.75.41-1.57.15.05.27,1.18.38,1.46.34.83,1.49.83,2.03,1.06.72.31,1.53,1.07,2.22.82v.36c.33-.25.91.8.95.01h.08c0,.09,0,.19.07.24.37.3,1.04.25,1.44.26l-.16-.24c.68-.21,1.4-.39,2.11-.21v-.36c.55.13.73.93,1.38.74,0-.26-.26-.34-.02-.6l.32.38c1.25-.04,2.51.07,3.77.05.31,0,.14-.09.55,0s.6-.23.77-.22c.11,0,.21.21.32.24.29.06.61-.02.9.02l.1-.48.13.43c1.99.08,4.01.17,6,.14,2.23-.03,4.48-.23,6.72-.4l-.18.31-1.01.28c.69.27,1.41-.16,2.09-.19.13,0,.21,0,.26.22l-2.4.7c-.02.23.02.27.16.3,1.06.18,1.85-.67,2.77-1.08.66-.29,1.35-.31,1.99-.49.21-.06,1.27-.45,1.32-.58.05-.12,0-.32.05-.44.02-.04.55-.67.15-.76-.34-.08-1.37.43-1.81.54-1.53.38-2.66,0-4.12.1-2.1.16-4.22.25-6.32.4-.8.06-1.61,0-2.41.09l-.08.24c-.08-.29-.22-.32-.41-.36-.64-.13-1.36-.2-1.96-.27-1.08-.13-2.87-.44-3.88-.26-.71.13-1.53-.2-2.3-.07-.5.08-1.27.62-1.73.67-.3.03-.66-.21-1-.11-.17.05-.25.33-.3.33-.03,0-.16-.2-.32-.23-1.35-.2-3.07.1-4.4-.22-.09-.02-.2-.31-.34-.41-.88-.61-2.06-.42-2.69-2.04-.58-1.51.85-1.48,1.44-1.82l-.27-.29c-.18.13-.34.29-.53.37s-1.07.45-1.18.44c-.51-.09-.04-.81-.07-.85-.32.06-.52-.02-.72-.43l.14-.07-.08-.35.24.12.05-.79-.19.18-.13-.48.4.13-.02.48c.1.25.37-.08.43,0,.02.02-.06.38.21.49l.18-.36.11.85c.28.15.22-.27.35-.34.23-.12.5.32.65-.07l-.18-.66c-.3-.12.08.77-.3.3.05-.14.12-.33.11-.49-.02-.28-1.41-2.86-1.65-3.28-.34-.62-1.13-1.65-1.37-2.26-.05-.12-.06-.23-.05-.36.22-.11.16.3.29.36s.24-.04.26-.23c-.39-.22-.6-.84-.97-1.18-.23-.22-.81-.33-.66-.78-.95-.61-2-2.04-2.85-3.12-.24-.3-.46-.84-.74-.92l.25.43c-.26.03-.74-.55-.97-.85-.46-.62-.36-.6-.94-1.16-3.71-3.56-5.81-7.2-8.6-12.26-.83-1.51-2.46-3.27-1.9-5.45.68-2.61,4.34-8.63,6.02-9.69.9-.56,1.9-.11,2.59,1.02-.39-.22-.7-.64-1.11-.82-.15-.06-.35-.26-.4.08.46.16.97.52,1.39.89.14.13.22.39.38.35l-.17-.36c.14-.04.19.12.29.24.77,1.04,1.69,2.91,2.41,4.15,1.65,2.83,3.48,6.01,4.76,9.29.82,2.1.65,3.8,1.07,5.93.14.7.43,1.43.56,2.15.17.95.14,1.8.36,2.73.05.22.36.59.02.54-.67-2.06-.81-4.45-1.22-6.64-.1-.53-.23-1.08-.36-1.6-.02-.09-.05-.37-.12-.18.28,1.91.7,3.8.97,5.7.01.1.05.42-.06.23l-.38-1.88c-.13-.03-.07.28-.06.42.02.92.5,2.96.76,3.88.35,1.27.96,2.53,1.08,3.94l-.32-.25.09.48-.24-.12c-.17.33.76,3.51.99,3.91.27.45.64.57.94,1.32.23.57.4,1.72.63,2.16.11.21.4.22.49.61l.27-.24c-.17.62.18.77.34,1.17.08.21.08.46.15.64.16.41.71.99.86,1.54.28.34.78-.03,1.13-.05l.03-.49c.29.2.43-.04.6-.07.2-.05.28.34.27-.25.53-.38.42.51.87.59.16-.2-.21-.79.01-.85.12-.03.2.2.28.31.02.05-.32.09-.15.3.09.11.21-.2.27-.2.08,0,.14.28.28.21l-.33-.49.11-.24.33.36c.11-.41.62-1.1.8-.42l-.36.8c.36.11.72-.1,1.05-.11,1.08-.04,2.51.24,3.52.05.15-.03.27-.19.42-.24v-.52s-.17-.13-.17-.13c.15-.71-.03-2.74-.13-3.63-.06-.57-.33-2.75-.49-3.13-.06-.14-.16-.07-.24-.08l.14-.29c-.21-.46-.31-.99-.4-1.52-.36-2.02-.64-4.09-.95-6.12.03-.5.23.35.17.42.13.03.07-.29.07-.43-.02-.29-.1-1.2-.15-1.42-.04-.18-.21-.26-.24-.52s.07-.52.06-.78c.34.47.36,1.27.54,1.87.03.09.15.51.24.38-.22-1.37-.25-3-.47-4.35-.05-.32-.21-.47-.25-.74-.07-.45-.01-1.07-.06-1.57-.09-1.04-.29-.5-.43-.75-.12-.22-.54-1.52-.64-1.87-.67-2.24-1.08-5.31-1.46-7.72-.29-1.85-.52-3.74-.76-5.6-.17.02-.1.37-.16.46-.05.07-.2,0-.21.02-.04.06.16,1.34.14,1.76-.03.65-.34,1.31-.16,2.11l.31-.12-.04.36c-.07.01-.18.02-.22.11-.08.18.36,3.39.45,3.89.13.75.23,1.31.72,1.64-.24.46-.22-.08-.4-.19-.02.34.05.99.28,1.16.12.09.42-.12.47.26.06.42-.36.39-.53.28.16.33.14.72.23,1.09.34,1.34.89,2.38,1.32,3.62.21.59.96,2.99,1,3.49.02.19-.06.35-.06.53-.11.14-.6-1.69-.65-1.81-.52-1.24-1.67-3.05-1.89-4.47-.41-2.66-.74-5.37-1.18-8.05-.09-.54-.26-1.07-.27-1.67l-.23.12.14-.4c-.46-.51-.17-.97-.16-1.46,0-.35-.15-.83-.16-1.21-.02-.61.12-1.44,0-2.12l.25.37v-.97s-.28-.19-.28-.19l.06-.77.09.36c.44-.14.19-.63.24-.96.03-.18.21-.39.25-.55.09-.32-.35.05-.47-.2,0-.82.3-1.79.69-2.34.24-.34,1.49-1.37,1.81-1.46.19-.05.38-.02.57-.02.14.2-.44.94-.09.85.28-.08.35-.46.24-.84.3.18.68-.23.89-.22.14,0,.26.23.4.23s.24-.21.39-.23c.3-.03,1.07.38,1.2.85.04.17-.08.38.02.61.09.21.54.49.67.65.6.81.85,2.86.93,2.98.03.05.15,0,.2.05.06.08.04.4.16.45l.34-.11c.01.7.26,1.16.37,1.89s.23,1.15.35,1.86c.06.35.32,1.91-.07,1.58l.11.97-.19-.11-.12.17c.04.2.09.39.1.59.18,3.65.23,7.45-.33,10.94l-.16-.12c-.13,1.47-.5,2.89-.48,4.4,0,.69.19,1.49.16,2.07-.01.23-.15.12-.16.35-.02.7.2,1.46.23,1.95.01.2-.08.41-.04.58.03.16.2.26.21.39.01.11-.09.36-.08.59,0,.68.16,2.09.23,2.79.04.43.25,1.45.52,1.65-.03-.59-.17-1.16-.14-1.76,0-.17.04-.38.15-.18-.06.53.12,1.2.13,1.65,0,.27-.11.36-.11.56,0,.53.2,1.51.13,2.06-.01.1-.36.32-.29.69l-.25-.36c.13,1,.25,2.01.37,3.01.02.18-.04.38-.01.53,0,.04.33.4.26.75-.11.22-.05-.15-.13-.18-.28-.12.02.38.04.45.06.36.06.76.14,1.12l.38-.11.5,4.24c.21.32.01-.24.27-.12l.15.49c.67-.2,1.54.44,2.05-.22-.04.64.23.31.4.06l-.06-.54c.24.26.09.64.07.96.28.24.49-.01.74,0,.15.01.3.13.47.14,2.47.14,4.93-.06,7.37-.31l1.68-3.08.21.48-.24-.12.02.48c.97.3,1.96.24,2.93.56.5.17,1.08.5,1.58.77.3.17.47.58.87.32-.14-.15-.9-.91-.93-.98-.06-.14-.14-.52.06-.48.52.11,1.39.94,1.64,1.7l.33-.13v-.59c.51-.07.48,1.26.03,1.15l.15-.3-.65.35c-.16-.53-.43-.53-.62-.73ZM45.73,26.37s.01-.25-.11-.2l-.03.36-.23-.24-.23.35-.16-.24c-.21.05-.1.5-.59.28-.15-.07-.23-.32-.41-.28-.36.08-.88,1.18-1.14,1.43-.09.09-.2,0-.27.06-.19.17-.4.48-.45.83l.38-.42c.08.13-.27.65-.25.9,0,.19.18.34.21.51.04.24-.1.59-.03.88.32-.41.15-1.1.38-1.68.21-.55.97-1.16,1.37-1.19.19-.01.37.17.53.11.26-.1.31-.99.85-.37l1.78-.07c.04-.36-.24-.28-.4-.44s-.38-.54-.58-.6c-.12-.04-.21.33-.6,0ZM47.88,50.98l-.06-1.69.21,1.16.15.17v-1.99s-.16-.14-.16-.14l-.26.19-.05-.48c.13-.05.05.25.13.25.29.01.27-.43.36-.74.03-.12,0-.31.15-.23.3.17.22,1.01.24,1.39h.16c.15-.73.17-2.02.36-2.68.05-.18.58-1.04.62-.68.16.82-.2,2.03.21,2.59.15,0,.31-2.27.33-2.61.16-2.75.23-5.78-.07-8.54l-.22-.09-.12-1.08c-.16.04-.02.57-.29.48.02-.23-.36-.76-.06-.73.13.01.32.26.27-.05l-.61-1.76c-.14-.03-.06.26-.04.39.05.39.21.76.18,1.18-.13.02-.18.03-.28-.12-.15-.23-.72-3.08-.83-3.63-.04-.2-.04-.4-.06-.6h-.23s.14-.37.14-.37c-.48.25-.36-.14-.53-.23-.21-.12-.43.09-.54.06-.1-.03-.17-.43-.24-.45-.18-.04-.02.45-.03.47-.01.02-.33.23-.35.23-.15.02-.2-.31-.37-.32s-.92.26-1.02.44c-.02.03.03.15.01.22-.01.04-.29.01,0,.39l.16-.36.68.14.04-.37c.69.23.37.91.45,1.7-.28.09-.18-.43-.22-.62-.02-.09-.25-.78-.36-.6-.08.52-.05.92.05,1.45-.86-.48-.5.43-.66,1.26l.25.13-.05.9c-.26-.17-.3-.48-.19-.84l-.23-.2.14-.36c-.18-.1-.35-.5-.48-.31l-.14-.48c-.22.28-.18.72-.07,1.11.03.11.16.1.15.15-.01.24-.21.52-.04.91-.25-.27-.27.22-.59.22l-.12-.23.15,2.05.7.14-.14.54.16.19.07-.24c.14.53.11.57.07,1.02-.02.27.22.51-.18.43l.25.19.02.78-.23.06.13,1.51-.19-.85-.3.48.24.25-.14.36c.32-.11-.04.52.22.61.09.03.31-.41.49-.36.1.21-.39.82-.27,1.12l-.24.08c.06.34.31.02.4.31.08.25-.24.22-.29.31,0,.02.04.36,0,.46l.48-.72c.11.28.53.51.72.49.03,0,.11-.45.43-.24l-.05.21c.19.05.27,1.33.21,1.57-.04.17-.01.19-.17.15l-.1-.61c-.4.06-.32.64-.2,1.09l.31-.12c-.12.33.27,1.53.45,1.64.38-.27.61-.25.57.54-.29-.21-.51.11-.76.29l.41,1.88h.19s0-.34,0-.34l.22-.02-.09-.59.22-.13c.15.23-.03,1.5.36,1.46ZM29.52,45.29c-1.16-1.93-2.03-4.28-3.23-6.21-.27-.43-1.05-1.8-1.41-1.17-.14.25-.03.75.08,1.02.11.25.28.29.34.41.07.13.07.38.16.57.2.39.85,1.34.95,1.65.02.05.03.2-.03.18-.39-.65-.95-1.35-1.13-2.19-.14.07-.16.15-.11.37.08.37.76,1.28.96,1.64.59,1.05,1.37,2.85,1.97,3.72.14.2.27.15.32.23.13.23.22.73.43,1.1.54.98.5.38,1.14.25l-.09-.48.32.24-.64-1.58-.03.24ZM27.23,47.85c-.72-1.35-2.01-3.98-2.77-5.03-.28-.39-.47-.65-.83-.38-.04.09.36,1.3.44,1.49.05.12.18.15.25.27.17.31-.24-.07-.15.24.35,1.1,1.37,2.4,1.91,3.29.24.4,1.11,2.24,1.37,2.25.14,0,.35-.23.41-.44.07-.45-.45-1.33-.63-1.68ZM26.61,51.78c.2-.34-.83-1.58-1-1.89-.54-.95-2.23-4.74-2.78-5.08-.14-.09-.23-.05-.36.05-.02.27,0,.57.05.84.15.65,2.54,5.25,2.95,5.82.47.64.61.38,1.14.27ZM49.56,61.15c-.21-.33-.14.65-.13.79.12,1.71.31,3.43.45,5.14l.18-.43-.5-5.5ZM50.15,64.66c.05-.11-.19-2.54-.25-2.84-.03-.17-.01-.38-.17-.43.06,1.03.14,2.06.26,3.09.02.17.07.38.16.18ZM50.16,67.2h-.31c.12,2.76.59,5.5.63,8.28l.26.42.26-.36.02.48c.57.23.45-.61.42-1.25-.09-.37-.43.04-.59-.33.02-.9-.22-1.49-.49-2.27.12-1.63-.05-3.33-.19-4.99ZM51.42,74.22l-.25-1.69c-.16.19-.2.33-.17.65,0,.11.29,1.28.43,1.05ZM75.34,75.51c-.23.09-1.47.25-1.46.64.1.21.21.2.35.19.1,0,.78-.29.91-.36.05-.03.22-.46.2-.48ZM48.48,75.27l-.47.05-.68.54c.46.07.88.01,1.15-.59ZM63.98,76.2c.39-.04.85.01,1.25.02.02,0,.37-.11.34-.24-.47-.06-1.01-.09-1.42-.5l-.37.78c.07.2.17-.06.19-.06ZM55.11,76.93l-.43-.24-.26.59c.04.05.68-.08.69-.35ZM58.66,77.46c-.9.02-1.8.05-2.7.08-.21,0-.4.13-.62.13-.31,0-.61-.21-.95-.14-.11.02-.24.08-.11.24l2.31.04,2.06-.34ZM73.41,78.63l-1.53.94c.56.06,1.2-.24,1.53-.94ZM74.22,79.36l-1.69,1.06c.62.09,1.27-.43,1.69-1.06ZM41.92,80.65c-.07-.06-.15-.02-.22-.03l-.09.72c-.1-.39-1.12-.74-1.03-.25l.14.36c-.42.06-1.62,0-1.87.4-.26.42.25,1.08.39,1.54.27.93.32,2.17.57,3.04.14.47.47.76.56,1.27.05.32.01.63.05.93.05.33.25.63.19,1.04l-.4-.19c.13.12.31.84.36.89.08.08.24-.02.34.15.18.3.21,1.41.29,1.82.1.49.63,1.86.94,2.06.17.05.09-.06.12-.17.24-.9.08-2.13-.07-3.1-.05-.29-.21-.64-.23-.92-.02-.22.25-.15.14-.53h-.23s-.01-.37-.01-.37l.31-.06-.36-.18-.31-1.1.58.97c-.15-.64-.05-1.24-.06-1.87,0-.43-.11-2.16-.08-2.41.02-.13.17-.14.21-.28.06-.2.03-.59.12-.82l-.47-.24-.18-.79-.23-.06.12-.85.49-.18c.15.25.28.35.23.73.19-.42.58.07.69-.42.05-.22-.1-.19-.16-.24-.2-.14-.42-.21-.6-.44-.11-.13-.21-.45-.22-.46ZM68.2,81.94l-.4-.37c-.07.64-.16.14-.33.14-.03,0-.42.19-.43.22,0,.02.08.15.06.21-.03.08-.24.13-.11.63l-.24-.12.09.36c-.24-.12-.23.23-.36.33-.4.31-2.12.3-2.24.72l.15.85-.39.06c.2.32.11,1.04.21,1.51.18-.24.46.48.48.69.04.47-.46.21-.36.7.01.07.33,0,.34.48-.43.23.09.81.11,1.1,0,.18-.1.34-.12.51-.02.33,0,1.6.06,1.82.02.05.28.24.16.75.45.14.27-.57.57-.47s.25.39.34.73l.33-.66c.07-.32-.32-.04-.25-.36s.37,0,.43-.17l.16-.91.47-.05-.13-.36-.31.12-.05-.49-.22.24-.18-.61c.27.23.39-.09.57-.33.33.46.26.03.43-.19.27-.34.33-.12.4-.91.07-.84.07-.7.21-1.3.02-.1.08-.37.08-.44-.01-.13-.2.01-.17-.19l.4.07.06-.55.39.13c0-1.42.11-2.81-.15-4.23l-.07.36ZM69.91,99.6l1.25.02-1.23-.38-.03.36ZM79.15,99.61c-1.57-.18-3.14-.43-4.71-.25.8.16,1.6.03,2.39.09.54.04,1.18.22,1.73.27.13.01.54.1.59-.12ZM33.85,102.63l-.94.05.95.31v-.36ZM28.6,102.68c-.45.02-.92-.05-1.37-.02-.29.02-.47.11-.85.11-.09,0-.3-.08-.27.12.18-.02.47.33.6.33.1,0,.21-.22.38-.19.13.02.23.27.4.26.29-.02-.03-.54.3-.37.03.02.14.19.13.24-.33,0-.11.6.17.49-.06-.12.12-.79.14-.82.07-.12.39.13.38-.14ZM30.2,103.54l-.05-.24c-.37.52-.79.23-1.17.22-.24,0-.45.3-.74.11l-.13.84c.1.15.57-.92.4.25.34.16.32-.25.43-.36.34-.34.56-.15.99-.69.08-.1.25-.11.26-.13ZM33.8,103.72c-.11-.16-.38.45-.29.6-.42.11-.05-.38-.44-.37-.29,0-1.04.13-1.3.26-.79.4-.09,1.41.52.82l-.41,1.68c.14.07.18-.17.28-.2.13-.04.35.26.42-.15l-.16-.12c.32.05.45-.26.66-.46.26-.25.52-.2.39-.98.47.3.2-.33.22-.36l.27.12.19-.41h-.31s-.01-.43-.01-.43ZM30.93,104.28c-.09-.13-1.62.97-1.75,1.37.23.41.58-.1.86-.05l-.09-.36.43.23.56-1.19ZM41.76,107.45c.11-.15-.56-1.02-.65-.85l.12.83.54.02ZM81.58,108.94l-1.19-.38c.04.53.67.5.92.5.09,0,.3.09.27-.12ZM37.43,109.08l-1.41-.02c.04.16.43.22.53.23.25.03.76.17.88-.21ZM41.04,109.13c-.32.01-.65-.04-.97,0-.09.01-.49.05-.43.28.07.27.69-.06.9-.06.18,0,.34.14.51.14v-.36ZM17.97,109.91c.32-.24.85-.28.91-.95-.19.14-1.23.13-1.15.65l.27.06-.03.24ZM22.81,110.89c-.12-.2-.13-.39-.36-.32l-.14.54c.25.48.35.51.63.13.04-.31-.07-.24-.14-.35ZM45.38,112.57c.46-.47.29-1.37-.25-1.57-.34.54.38.92.25,1.57ZM46.08,112.08c.05.12.43.22.46-.04.02-.22-.27-.63-.38-.79-.12,0-.14.67-.08.82ZM18.32,111.34c-.15.11-.36-.54-.62-.34l-.06.71c.25-.3.6.16.63.13,0,0-.02-.15.02-.2.13-.16.3-.1.35-.46-.29-.29-.3.14-.32.16ZM27.33,111.12c-.2-.11-.18.35-.27.37-.08.02-.21-.13-.31-.11-.32.04-.62.32-.97.21-.09,1.63,1.07,1.46,1.79,1.84,0-.8-.04-1.54-.24-2.3ZM24.44,111.45l-.78-.24c-.27,1.99,1.06.65.78.24ZM47.66,115.02c.05.34-.08.68-.03,1,.07.47.51.84.3.16l-.27-1.16Z"/>
        <path d="M53.48,72.56c-.03.11-.41,1.5-.5,1.32-.01-.17-.02-.34,0-.52.26-2.34,1.31-6.04,1.87-8.37,1.29-5.45,3.4-11.43,3.57-17.32.06-2.01-.27-3.93-.53-5.91-.67-5.19-1.66-8.57.7-12.88,1.14-2.08,2.72-3.77,4.65-3.04,1.22.46,2.34.85,3.24,2.42.1.18.81,1.6.83,1.7.18.69.46,1.43.61,2.09,1.13,5.01-2.24,9.96-3.99,13.33s-3.31,8.35-4.33,12.42c-.23.92-.68,1.82-.78,2.86-.06.61-.22,2.16-.45,2.77-.81,2.1-1.06,4.37-1.47,6.78-.05.32-.49,1.85-.38,2.02l3.37.17c-.05-.49-.1-.63-.42-.73v.28s-.14.09-.14.09c.06-.6-.34-.29-.34-.73.27-.14.7.15.9.14.06,0,0-.4.19-.25l.02.35h.31c0,.18.04.38.02.54-.01.13-.24,0-.15.32.2.06.39-.08.57-.07.08,0,.57.01.53.26-.25.44-.68.05-.8.66l-.17-.48-.21.6c-.19-.35-.38-.25-.47.12h-.12c-.06-.59-.35-.36-.52-.44-1.01-.45-1.68-.26-2.69-.24-.2.13-.34,1.03-.46,1.4-.07.22-.23.36-.3.6-.16.61.37,1.39-.32,1.53.12-.38-.06-.67-.02-1.12.02-.29.2-.62.23-.9.09-.67.09-1.43.2-2.14.1-.66.59-2.69.58-3.17,0-.35-.31-.23.02-.55l.51-2.56c-.4-.17-.26.89-.43,1.09l-.24-.14-.29.79-.12-.24c-.11.07-.08.28-.11.36-.24-.13.19-.97.12-1.09-.07.18-.28.13-.29.14-.23.37.24,1.5-.59,1.41l-.34-.8c-.02-.45.34-.4.36-.43.19-.36.01-1.52.52-1.18.05-.34-.25-.29-.39-.36-.15.44-.23.66-.13,1.2l-.24-.24c-.39,1.91-1,4.16-1.2,6.15ZM60.87,28.19h-.54s0,.34,0,.34c-.92.2-1.41,2.38-1.61,3.65-.15.97-.15,2.01-.27,2.99.13-.03.13-.24.16-.39.37-1.53.33-2.57,1.05-3.95.1-.19.35-.39.38-.48.05-.13-.06-.32-.02-.48.04-.17.91-1.56.84-1.68ZM57.95,54.61c.16-1,.45-1.92.64-2.9.13-.65.81-4.29.8-4.66,0-.26-.25-.74-.31-1.1-.18-1.01-.26-2.15-.36-3.18l-.1,1.51c.06,3.48-.05,7.04-.82,10.26l.16.06ZM61.57,47.93c.07-.12.39.01.28-.51l-.12.24c-.3-.15-.34-.13-.57.11l.17.48h.23c0-.09-.03-.26,0-.33ZM61.26,48.5c-.46.21-.56.48-.43,1.2.18.06.12-.02.17-.15.04-.1.28-1.01.26-1.05ZM59.4,51.25c-.21-.25-.03-.75-.34-.73l-.12,1.27.24.13-.23.12.32.19.06-.54c-.43-.05-.29-.68.06-.42ZM56.17,62.2l.93-4.7-.57,2.08c-.12.85-.35,1.63-.51,2.45l.15.16ZM58.05,59.04c-.06-.09-.09-.28-.16-.31-.21-.1-.67.75-.55.95l.29-.4.19-.08c.22.28.26.76.54.85l.2-1.09-.21.72c-.31.07-.03-.26-.13-.49-.02-.06-.13-.09-.18-.17ZM56.8,62.09c-.17-.3-.27.75-.31.81-.04.07-.18.04-.24.15-.04.08-.31.59-.32.63-.01.05-.08,1.01-.06,1.05.44-.26.42-1.12.65-1.68.35-.07.21.75.27.84.16.03.35.04.49.14.09.06.02.28.14.24l.12-1.08c-.31-.04-.43.56-.67.12s-.13-.76-.08-1.22Z"/>
        <path d="M55.66,67.75h.16s-.14.36-.14.36c.04,0,.11-.01.14.03.1.16-.06,1.97-.14,2.27h.24c-.18.59-.17,1.34-.29,1.93-.16.85-.56,1.53-.66,2.41-.3.08-.08-.7-.27-.97l.24.12c.05-.53.1-1.33.21-1.81.1-.41.49-.78.27-1.33-.08-.2-.13-.05-.2.06-.16.27-.23,1.12-.52.9.14.79-.19,1.22-.36,1.72-.26.76-.43,2.09-.82.5l.32.18c.17-.62.05-.59-.02-1.06,0-.04.06-.8-.14-.4-.14.27-.05.8-.24.96-.03-.37,0-.73.04-1.09.43-1.45.7-3.05,1.02-4.58.33.08.35.68.71.37l.17.49c.01-.43.15-.73.28-1.08Z"/>
        <path d="M84.53,35.64s.1.55.09.63c-.02.16-.39.78-.47,1.03-.09.27-.08.59-.23.8.11.12.2-.01.17.3l-.46.3.47-.05-.14.48h.27c-.38.19-.71,1.45-1.09.46l-.65.36.6-.66-.24-.12.73-1.44c.01-.08-.07-.09-.12-.06-1.12.72-2.11,3.96-3.18,5.11-.17.19-.64-.07-.82.45-.05.38.53.28.56.24.07-.09.02-.33.14-.3l-.27,1.2s-.34-.54-.31-.07l.45.55.07-.24.36.32.39-.18.12,1.21.23-.12c-.08.4-.24.58-.19,1.06l.39.27c.06.13-.76,1.36-.84,1.56-.29.75-.38,1.76-.82,2.4l.34-.36.09.25c.28.06.74-.93,1.07-1.07.15-.06.15.21.16.35-.2.18-.37.62-.51.8-.19.25-.53.52-.76.77-.12.13-.1.44-.35.34l.17.36-.19.12c-.14-.34-.1-.4-.36-.25l.25.36c-.26,0-.6.13-.53.6l-.34-.73c-.05.1-.09.59-.1.61-.29.43-.73.85-1.08,1.37-.7,1.04-1.24,2.26-2.01,3.23-.15.19-1.08,1.07-1.11,1.16-.05.15.01.41,0,.58-.15-.03-.23-.16-.39-.07-.2.11-.77.84-.98,1.09-.1.12-.12.32-.2.42-.51.6-.73.09-.82,1.51-.06.94-.02,2.06-.06,3-.06,1.23-.19,2.45-.26,3.68-.1.19-.14-.02-.16-.18-.14-1.15.16-2.31.19-3.44l-.13.72c-.31.53.02-1.2.03-1.28.04-.74-.15-1.45,0-2.22.13-.03.09.29.09.43.02.5-.05,1-.03,1.5l.19-1.04.03-1.74c-.34-.08-.47.42-.71.62-.47.4-1.3.77-1.57,1.58-.11.34-.01.57-.06.83-.01.07-.52.85-.58,1.04l-.02-.23-.11-.02c-.17.28-.36.54-.51.85-.11.22-.14.54-.21.67-.11.21-.63.72-.69.88-.06.18-.03.5-.1.77-.15.53-.43,1-.63,1.47-.13.29-.09.68-.38.76l-.14-.48c-.78.09-.58,1.88-1.37,2.03.1-.89.5-1.35.85-1.98-.1-.35-.29-.7-.55-.67-.05-.56.35-.06.45-.42.09-.33-.34-.04-.32-.3l.3-.24c.07.53.38.33.61.16.18-.14.69-1.02.76-1.29.01-.05.01-.2-.04-.18-.25.29-.58.41-.89.23l.09.48-.47-.13c.16-.16.26-.74.49-.48l.03-.24c-.31-.15-.46-.26-.79-.13-.04-.06.07-.45-.13-.36-.16.29-.28.67-.44.96-.4.72-1.68,2.43-1.9,3.05-.12.36-.09.33-.28.74-.06.13-.01.48-.14.64l1.26.2c-.47.3-.99.33-1.51.27l-.24.67c.44.97-.47.42-.67.46-.12.03-.16.38-.34.31-.1-.48.47-.88.5-.98.04-.11-.06-.31-.04-.47,0-.05.22-.8.26-.92,0-.03.37-.12-.04-.33l.07-.3.32.13-.02-.73c.16.05.29.2.39-.04,1.05-2.4,2.61-4.53,3.58-7,.65-1.65.79-3.23,1.19-5.01.6-2.66,1.53-5.72,2.34-8.24,1.07-3.3,2.74-7.33,4.91-9.04.57-.45,1-.34,1.61.07.1.07.81.67.86.73.13.16.22.65.41.81l-.13-.54c0-.22.58-.22.62-.17.03.05-.03.41.1.55.22.25.87.2,1.05-.18.14-.3.32-1.12.57-1.4.19-.21.46-.02.71-.38.41-.6.23-1.11.33-1.68.06-.32.33-.54.48-.79.05-.09,0-.26.06-.36.1-.15.53-.41.68-.49.43-.2.6.09.88-.77l.06.6c.32.08.61-.19.76-.59-.3-.2-.28.29-.42.24-.23-.4.25-.53.31-.63.07-.11.02-.42.16-.63.1-.14.84-.51.92-.41ZM81.31,39.7c-.26.31-.66.71-.78,1.2-.09.38.23.51.3.09l.48-1.29ZM80.55,45.34c-.23.21-.64-.32-.7-.22-.03.53.3.71.59.61.05-.02.09-.35.28-.24v-.36c-.21-.12-.14.17-.17.21ZM80.35,48.27l-.08-1.21c-.25.27-.19.52-.1.92.04.2-.05.34.18.28ZM67.02,63.43c.51-2.13.66-4.43,1.26-6.51-.11.03-.14.22-.19.35-.53,1.68-.8,3.94-1.13,5.79-.02.12-.09.39.05.36ZM68.42,61.04c.16-.54-.11-.78-.29-.36-.01.03-.03.53-.03.62,0,.1-.1.45.07.46.11,0,.11-.34.03-.47l.46-.13v-.47s-.23.36-.23.36Z"/>
        <path d="M75.61,115.61c-.02.05-.21-.06-.13.26l.24.06-.22.36.24.19v.18c-.22.09-.04.73-.2,1.13-.56.26-.44-.41-.79-.6l.02.48-.21-.36c-.15.11-.26.65-.38.71-.15.07-.28-.12-.38-.12-.04,0-.04.45-.19.25-.23-.31.45-1.08.02-1.57h.23c-.03-.11-.05-.21-.03-.32.11-.5.53-2.06.8-2.27l.1-.04c.14.28.41.34.54.53.08.12.37,1.06.33,1.14Z"/>
        <path d="M88.17,79.91l.07-.36.43,1.21-.39-.02-.03-.32c-.37.09-.34-.44-.63-.51l.12,1.21.62-.05c-.11.13-.23.31-.34.42-.07.08-.17,0-.18.01-.03.08,0,.3-.07.41-.06.08-.76-.15-.29.65-.24-.04-.18.57-.38.3l.04-1.14c-.19.19-.58.07-.72.14-.2.09-.26.6-.51.57-.08-.11.41-.95.6-.72.06-.51-.47.05-.63-.13.24-.57-.2-.57-.11-1.01.07-.33.37-.04.37-.31h-.47s-.01-.37-.01-.37l.7.11.07-.59-.32-.25,1.42.21.64.54Z"/>
        <path d="M35.72,89.69c-.19.53.09,3.75.21,4.66.06.46.24.94.26,1.42l-.42-1.43c-.68-3.05-.42-6.24-.65-9.28-.06-.76-.45-1.52.04-2.11.18-.06.45.92.46,1.15.01.28-.11.58-.11.86.01.86.43,4.11.21,4.73Z"/>
        <path d="M85.27,41.53l-.72.61-.15-.24c-.36.22-.7.28-.99.72-.11-.52.78-.7.7-1.14-.12-.67-.86.55-.95.77-.16.1-.25-.73-.16-.92.06-.11.56-.49.72-.67.12-.14.11-.44.35-.34v-.24c-.47-.02.2-.56.37-.64s.55-.16.69-.02c.32.67.2,1.37.13,2.09Z"/>
        <path d="M33.3,111.93c.08.12.07,2.3.09,2.72.23,3.88.25,7.74.48,11.61.05.89.14,2.54.29,3.36.09.5.35.53.35,1.36,0,1.13-.41.22-.48-.38-.54-4.27-.34-9.2-.63-13.54-.15-1.61-.32-3.35-.25-4.96,0-.17.03-.35.15-.18Z"/>
        <path d="M65.05,113.07l.1.65-.35.31c-.06.13.17.38-.17.54l.17.42-.47.12.1.42-.15.11c.17.38.05.76.03,1.15l-.55-.18-.09-.25.06-.59-.31-.2-.05-1.44c-.45.04-.22-.37.07-.36v.36c.17.06.22-.24.36-.24.12,0,.49.46.75.25l-.09-.36.4.12-.1-.71.3-.13Z"/>
        <path d="M78.07,84.88c.09.12.1.4.12.57.15-.21.93.39.96.57-.12.48-.48.63-.27,1.25-.27-.08-1.63-.47-1.3-1.15.06-.12.19-.03.24-.15.18-.39-.08-.8-.34-.91l.06-.46c.05-.05.49.22.53.28Z"/>
        <path d="M79.86,89.24c.94-.25,1.17,1.71.5,2.02-1.07.48-1.32-1.8-.5-2.02Z"/>
        <path d="M69.68,111.08c.07.32-.15.28-.28.32-1.64.51-3.72.67-5.43.93-.2.03-.44-.06-.62,0-.28.08-.25.61-.75.04-.04-.6.09-1.09.53-.83l.13.56.16.13,6.26-1.13Z"/>
        <path d="M85.71,54.53c1.34-.47,1.26,2.44.06,1.88-.5-.23-.67-1.67-.06-1.88Z"/>
        <path d="M85.47,39.61c-.37-1.33-.11-2.19.87-1.72.52,1.1.01,2.36-.87,1.72Z"/>
        <path d="M70.27,71.45c.09.15-.17.52-.3.48.42.62-.31,1.63-.76,1.41-.91-.43-.1-2.82.64-1.54l.18-.43.24.07Z"/>
        <path d="M17.41,105.59c.63.76-.24,2.55-.91,1.41-.59-1.01.39-2.04.91-1.41Z"/>
        <path d="M86.9,41.38c.49.89-.15,2.14-.83,1.4-.78-.85.24-2.47.83-1.4Z"/>
        <path d="M61.49,121.25c-.03.25.06.46.23.47s.18-.59.33-.34c.07.12-.11.33-.12.44-.01.17.1.38.08.56,0,.05-.37.64-.39.66-.17.09-.28-.22-.39.51-.14-.48-.63-.51-.61-1.12,0-.47.3-.64.34-1.05l.4.24-.09-.36h.23Z"/>
        <path d="M71.53,124.49c-.03.09-.32.28-.33.59s.4.72.14,1.25c-.16.32-.4-.02-.42-.33-.02-.25.15-.41.18-.7.06-.64-.24-1-.25-1.19-.01-.33.17-1.04.14-1.5-.01-.22-.28-1.05-.04-1.13.66-.23.18,1.17.24,1.52s.27.3.32.51c.04.15.07.86.03.98Z"/>
        <path d="M36.07,40.06l.18.73-.15.12c.34.13.66-.02.79.58.09.44-.1.71.36.76l-.21.72h-.12c-.15-.27-.22-.39-.44-.25l.07-.36h-.24c.07-.44-.02-.77-.23-1.09l.08,1.21c-.63-.09-.28-.86-.45-1.49.51-.28-.16-1.04.37-.92Z"/>
        <path d="M42.71,119.44l.35,3.13c.32-.5.53.3,0,.12l.25.31-.32,1.01c-.27-.24-.13-.59-.23-.97l-.31.12-.06-.61-.28-.12c-.15-.23.62-.98.55.13.26-.22.11-.94.09-1.36l-.43-1.79.38.02Z"/>
        <path d="M66.76,118.87s.12.02.14.11c.13.7.08,1.34-.01,2.01,1.1.93-.19,2.1-.28.85-.03-.41.11-.55.12-.84s-.03-1.53-.06-1.81c-.07-.6-.77-1.88.15-1.51.16.33-.17.91-.06,1.18Z"/>
        <path d="M48.06,124.21c-.06.09.13.79-.05.84-.05-.55-.48-1.32-.44-1.85.1-1.32,1.34-.82,1.04.5-.13.59-.51.46-.54.51Z"/>
        <path d="M35.99,126.22l-.2-1.27c-.18-2.46-.69-4.78-.8-7.25-.03-.72,0-1.41,0-2.12l.99,10.65Z"/>
        <path d="M14.42,102.63c.15.41.51.62.81.48-.14.37.28.73.28,1.02,0,.03-.23.38-.25.4-.05.04-.81.19-.84.14.18-.76-.62-1.82,0-2.04Z"/>
        <path d="M75.06,85.54l-.02-.49h.31s-.14.49-.14.49c.2-.03.36.04.48.31l-.5.4c-.24-.04-.55.13-.77.1-.32-.04-.4-.46-.68-.47l.31-.12-.17-.42c.44-.7.71.15,1.18.2Z"/>
        <path d="M73.14,113.79c.18.06.21-.26.35-.32.09-.04.33.08.46-.03l-.1.36.31.07-.22.08c-.06.43-.29,1.84-.72,1.31-.28-.34-.02-.65,0-.94.02-.38-.51-.65-.64-1.08l.39-.12.18.67Z"/>
        <path d="M40.75,121.72c.48.66.11,2.19-.59,1.52-.62-.6.03-2.29.59-1.52Z"/>
        <path d="M85.7,87.49c-.21-.6-.31-.68-.13-1.33l-.32-.18c.1-.37.41-.04.45-.08.09-.06.22-.62.28-.7.16-.25.53-.39.46.13-.32.7-.09,1.98-.75,2.16Z"/>
        <path d="M39.32,105.27c.12.22-.01.46.12.62.18.23.5.37.72.38-.15.3-.55.68-.8.61-.12-.03-.21-.46-.43-.21l-.1-.6h.22s0-.48,0-.48h-.71s.05-.73.05-.73c.16-.09.29.21.38.23.11.02.22-.41.56.18Z"/>
        <path d="M42.4,128.3c.07-.87.44-.56.46.25,0,.22-.08.44-.08.64,0,.44.12,2.58-.03,2.8-.1.15-.24-.22-.24-.3-.03-.93-.18-2.56-.12-3.39Z"/>
        <path d="M91.27,110.12c-.72-.89.17-2.09.88-.98-.18.18-.1.54-.17.78-.1.35-.5.47-.71.2Z"/>
        <path d="M40.54,114.6c-.06.06-.05.32-.17.32-.04-.26.14-.4.12-.64-.02-.23-.24-.48-.22-.72,0-.04.17-.72.18-.76.21-.43.68.12.7.38,0,.07-.17,1.07-.21,1.14-.12.21-.28.16-.4.28Z"/>
        <path d="M32.04,128.12c.68-.19.77,1.33.33,1.53-.71.33-.93-1.36-.33-1.53Z"/>
        <path d="M37.62,115.15c.88-.4.82,2,0,1.37-.36-.28-.37-1.19,0-1.37Z"/>
        <path d="M26.92,92.38l-.24-.12c.06.47-.45,1.18-.57.6l-.34.24c-.04-.24.13-.31.13-.53,0-.29-.26-.64.07-.49l.11-.43.14-.08.24.31.23-.21.22.73Z"/>
        <path d="M42.02,69.51c-.19.32-.43-.91-.48-.3-.02.25.22.84.08,1.14l-.36-.12.06-.48c-.2-.02-.27-.09-.22.28-.04.46-.39-.54-.35-.93.17-.41.41.05.44.05.06,0,.08-.29.12-.34.03-.03.25.11.33-.1l.38.82Z"/>
        <path d="M47.08,66.88c-.57.97-1.25-1.24-.37-1.3.38-.03.59.93.37,1.3Z"/>
        <path d="M62.36,111.1s-.13-.12-.24-.14c-.21-.03-.49.35-.52-.24.63-.04,1.27-.19,1.92-.1.25.03.5.11.25.49-.47-.03-.94.03-1.41-.02Z"/>
        <path d="M86.58,111.33s.12.32.11.33l-.39-.12.17.36-.27.24c-.17-.59-.55-.62-.43.05.01.08.9.41.97.81-.15-.05-.69-.2-.77-.28-.04-.04-.07-.24-.14-.34-.2-.25-.57-.5-.38-1.02.26-.73.49-.37.85-.12.09.06.22.02.3.09Z"/>
        <path d="M27.46,120.16c-.2.61-.84-.19-.94-.65.27-.53.54-.36.93-.36.09.09.04.92.02,1Z"/>
        <path d="M68.73,130.57s.25-.41.31-.4c.35.13.23,2.62-.25,1.68-.2-.39-.19-.88-.06-1.28Z"/>
        <path d="M29.91,87.75c-.21.42.05.28.15.57-.15,0-.27.27-.38.31-.09.03-.15-.15-.2-.14-.1,0-.5.3-.59-.12-.07-.34.28-.18.38-.34.12-.18.12-.5.18-.57.06-.06.76-.13.62.14-.05.06-.13.09-.17.15Z"/>
        <path d="M87.79,111.81c-.02-.09,0-.22-.05-.36-.2-.5-.85.07-.62-.86h-.24c.05-.48.8-.11.91.13.04.1-.02.26.05.42.16.4.55.32.43,1.03-.16-.15-.31-.28-.48-.37.1.4.21.23.26.61l-.26.1-.47-.84c.18-.05.31.04.47.13Z"/>
        <path d="M82.59,52.43c.54.69-.71,1.74-.74.5-.02-.68.44-.89.74-.5Z"/>
        <path d="M52.06,113.39l.28-.09c.11.03.52,2.07.55,2.39.02.22.09.32-.07.48-.32.1-.41-1.71-.45-1.95-.06-.31-.22-.55-.31-.84Z"/>
        <path d="M39.15,51.95c-.58.15-.92-.41-.64-1.23.72-.42.56.52.64,1.23Z"/>
        <path d="M67.96,120.24c-.11.03-.13-.22-.15-.33-.07-.39-.32-2.25.1-2.2.41.71.11,1.74.05,2.53Z"/>
        <path d="M76.49,66.13c.3.44-.02,1.28-.44.92-.73-.61.03-1.52.44-.92Z"/>
        <path d="M55.84,113.92c.1.93.23,1.84.25,2.78h-.31c.1-.69-.21-1.91-.17-2.48.02-.21.07-.34.23-.3Z"/>
        <path d="M36.96,43.1c-.02.31.17.5.22.73.13.54.22,1.39-.24.84l-.18.36-.22-.54c.21-.25.46-.97.27-1.39h.16Z"/>
        <path d="M20.14,122.87c.27.29.39,1.6.14,1.88-.84.13-.2-1.25-.14-1.88Z"/>
        <path d="M87.88,86.64c-.1-.16-.15-.65-.12-.86l.37-.27c.7.42.11,1.69-.26,1.13Z"/>
        <path d="M61.27,69.16l-.36,1.02c-.14.04-.67-.01-.71-.26l.22-.3.09.36.21-.95.54.12Z"/>
        <path d="M66.74,74.03c-.26.4-.61.05-.63-.52-.03-1.11,1.11-.22.63.52Z"/>
        <path d="M53.06,71.71c.09.15-.22,1.76-.31,2.01-.06.16-.08.32-.24.27-.1-.18.14-2.35.55-2.29Z"/>
        <path d="M82.78,78.53c.61-.28.73,1.21.1,1.07-.37-.08-.41-.93-.1-1.07Z"/>
        <path d="M31.83,121.45c.08.5-.03,1.04-.02,1.5,0,.32.11.67.11,1.1,0,.14,0,.54-.14.54-.17-1.04-.09-2.09-.19-3.14h.23Z"/>
        <path d="M83.14,45.04l-.29.79-.39-.08c.08-.53,0-1.24.3-1.55.25.36-.15.87.38.85Z"/>
        <path d="M22.36,94.77c.22.28.1,1.03-.3.94-.61-.15-.11-1.46.3-.94Z"/>
        <path d="M40.85,63.35c.33.82-1.28,1.29-.46-.21.08-.15.43.15.46.21Z"/>
        <path d="M65.33,114.29l-.03.36.35-.12c.05.56-.39,1.56-.74.78.13-.25.17-.59.26-.85.04-.12-.05-.24.16-.17Z"/>
        <path d="M70.22,63.98c.51-.23.7.86.22,1.01-.29.09-.63-.83-.22-1.01Z"/>
        <path d="M68.91,77.48v.36c-.68-.03-1.31.44-2.01.46l.92-.53,1.09-.28Z"/>
        <path d="M72.33,97.1l.02.48h.23s-.14.61-.14.61l-.47-.13.07-.36c-.16.11-.26.2-.39-.07.14-.1.18-.15.14-.42l.4.25-.09-.36h.23Z"/>
        <path d="M31.82,127.86c.07.13-.42,1.07-.6.9-.12-.19-.27-.68-.11-.86.06-.07.18.05.26.03.14-.04.2-.28.44-.07Z"/>
        <path d="M48.7,113.52c0-.12-.21-.4.14-.42.06.08.33,2.31-.08,2.17-.03-.58-.03-1.17-.06-1.75Z"/>
        <path d="M37.64,112.71c.03.21-.17.11-.27.12-.23.01-.47,0-.7-.01-.37-.03-.88-.09-1.25-.15-.08-.01-.37-.05-.37-.23l2.59.28Z"/>
        <path d="M72.15,116.78l-.12-.95c.65-.21.86,1.18.12.95Z"/>
        <path d="M43.33,125.83h-.23c-.02-.12-.06-.22-.07-.33-.37-2.51.42-.89.3.33Z"/>
        <path d="M74.15,111.5l-.44-.24c-.2.2.02.4-.08.66-.03.09-.44.57-.46.53.03-.38.08-.88.35-.98l-.09-.35c.34-.14.52-.18.72.37Z"/>
        <path d="M85.42,62.98s.1-.01.12-.12c.07-.34-.05-.83.3-.57.48,1.02-.66,1.47-.43.69Z"/>
        <path d="M71.2,67.1c-.08.22-.64.16-.61-.27.06-.85.86-.39.61.27Z"/>
        <path d="M47.59,131.21l-.16-.06c.2-.55-.32-1.4-.03-1.88.32-.1.25,1.64.18,1.93Z"/>
        <polygon points="15.84 112.68 15.94 112.93 15.79 113.63 15.26 113.07 15.84 112.68"/>
        <polygon points="68.24 132.93 67.84 132.23 67.79 131.12 68.17 132.08 68.24 132.93"/>
        <path d="M38.59,112.96c.31-.08.61.1.91.14.24.03.38-.21.59.12l.02-.48.2.3c-.03.32-.53.27-.73.26-.25-.01-.85-.04-.99-.35Z"/>
        <path d="M71.21,112.67l-.46.12c-.14-.42.12-.65.12-1.09l.28.12.06.84Z"/>
        <path d="M35.7,131.53c.1.57.24,1.44.03,1.93-.15,0-.29-1.79-.03-1.93Z"/>
        <path d="M25.82,74.25l-2.53.45.49-.3c.19.05.54-.17.66-.16l1.37.02Z"/>
        <path d="M24.07,121.85c.5-.22.49,1.16-.03.77-.24-.18-.21-.66.03-.77Z"/>
        <path d="M60.24,73.5l-.03.25c.06.14.26.03.2.36l-.66.12c-.08-.03-.01-.45-.21-.38-.06-.13.61-.38.69-.35Z"/>
        <path d="M22.22,124.1c.06.31.19.62-.01.84-.15.08-.1-.22-.18-.24-.17-.06-.4.03-.57,0l.06-.48.13.25.57-.36Z"/>
        <path d="M83.18,107.64c.03.21-.18.13-.27.11-.23-.03-.97-.16-1-.62.47-.13.82.4,1.27.5Z"/>
        <path d="M38.84,63.42c-.1.2-.18-.23-.26-.28-.33-.23-.81-.16-1.1-.64.14-.32.13-.07.24,0,.2.12,1.34.49,1.12.93Z"/>
        <path d="M75.95,113.95l.09.29-.22.19.08.35-.48-.25c0-.5.21-.7.52-.59Z"/>
        <path d="M83.5,48.67c.07.36-.28.44-.33.59-.03.11.08.32.02.49-.03.09-.45.42-.5.36.07-.15.64-1.69.81-1.44Z"/>
        <path d="M63.53,116.56l-.47.06c-.21-.23-.02-.93.21-.74l.26.67Z"/>
        <path d="M85.45,82.53l.44.24.04.19-.07.37c-.42.24-.43-.29-.42-.8Z"/>
        <path d="M76.33,112.26c.45.42.12,1.5-.22.78l.22-.78Z"/>
        <path d="M28.28,95.79c.14.41-.04.89-.36.84-.15-.5-.04-.95.36-.84Z"/>
        <path d="M44.88,118.36c.15.2.14,1.18-.16,1.08s-.02-1.33.16-1.08Z"/>
        <path d="M87.24,62.75c.33-.16.48.46.29.66-.33.36-.59-.52-.29-.66Z"/>
        <path d="M21.4,116.36l-.03.62c-.27.34-.98-.82.03-.62Z"/>
        <path d="M60.69,125.22c.02-.45-.02-1.04.23-1.32l.21.53-.44.79Z"/>
        <path d="M53.65,120.39c-.22-.5.22-.98.41-.46s-.29.73-.41.46Z"/>
        <path d="M58.54,65.98c.3-.14.5.75.17.84-.23.06-.41-.73-.17-.84Z"/>
        <path d="M32,72.02c-.98.14-.08-1.23.06-.39l-.06.39Z"/>
        <path d="M74.83,112.84c0-.43.13-1.05.34-1.32.05.58.07,1.13-.34,1.32Z"/>
        <path d="M65.83,119.73c-.3.6-1.15-.25-.45-.48.16.23.19.53.45.48Z"/>
        <path d="M63.24,119.58c-.07.32-.18.35-.38.24l-.02.48-.28-.25.29-.72.4.25Z"/>
        <path d="M65.89,132.9c-.14.24-.5-.84-.23-.97.38-.17.23.66.23.97Z"/>
        <path d="M18.52,123.7c.21.23-.03,1.01-.35.56-.26-.36.19-.73.35-.56Z"/>
        <path d="M72.49,110.88l-.82.31c-.07.02-.16-.09-.22-.09-.04,0-.05.47-.19.24-.32-.53,1.1-.55,1.24-.47Z"/>
        <path d="M80.54,78.85l.02.35c-.19-.21-.53.36-.63-.19-.07-.41.47-.31.61-.16Z"/>
        <path d="M68.91,109.14l.07.6-.35.24c-.15-.42-.01-.78.28-.84Z"/>
        <path d="M34.05,33.63c.01-.52-.45-.46-.15-.84l.53.55-.38.3Z"/>
        <path d="M35.8,100.36c-.17.35-.19-.66-.19-.79,0-.22-.04-.39.1-.53.28.36.05.89.08,1.33Z"/>
        <path d="M49.34,77.83c.27.25-.41,1.42-.38-.02.11.03.31-.05.38.02Z"/>
        <path d="M21.66,73.95l-.22.06c.11.85-.29.27-.33-.3.19.01.47-.1.56.25Z"/>
        <path d="M35.28,62.53l.54,1.94c-.22.07-.13-.1-.19-.27-.19-.53-.3-1.1-.5-1.61l.15-.06Z"/>
        <path d="M81.29,44.66c.26,0,.06.93-.12.96-.28-.17.02-.96.12-.96Z"/>
        <path d="M81.31,42l-.37.54.24.3-.35.12c-.34-.1.28-1.05.47-.96Z"/>
        <path d="M33.09,37.35c-.26-.6.52-.89.38-.05-.04.26-.34.14-.38.05Z"/>
        <path d="M34.92,111.22c.23.45-.47.64-.61.29.09-.16.51-.49.61-.29Z"/>
        <path d="M47.53,36.23l.41,2.72-.26.06-.08.24v-1.39s-.25-.07-.25-.07c-.04-.04.11-.19.11-.29,0-.08-.21-1.8.07-1.27Z"/>
        <path d="M45.88,41.13s-.09.03-.1.07c-.06.16-.12.65-.33.43-.03-.04-.27-1.06-.16-1.22.27-.37.69.38.6.71Z"/>
        <path d="M44.91,41.99c.1-.38-.15-.75.12-1.03.02-.09-.4-.14-.13-.42.45.17.24,1.71.01,1.45Z"/>
        <path d="M47.73,39.74c.14-.24.18.49.32.24.07-.13-.37-.6-.07-.84.11,0,.38,1.32.04,1.21-.07-.1-.37-.48-.3-.61Z"/>
        <path d="M66.85,87.96c.02-.39.07-.78.24-1.08.33.21-.08,1.25-.24,1.08Z"/>
        <path d="M41.43,84.24c.23.24-.03,1.14-.31,1.2-.27-.02.02-1.5.31-1.2Z"/>
      </g>
    </g>
  </g>
</svg>