<?xml version="1.0" encoding="UTF-8"?>
<svg id="Layer_2" xmlns="http://www.w3.org/2000/svg" version="1.1" viewBox="0 0 939.8 776.2">
  <!-- Generator: Adobe Illustrator 29.5.0, SVG Export Plug-In . SVG Version: 2.1.0 Build 137)  -->
  <g id="Layer_1-2">
    <path d="M646.2,350.3c0,.4.5.6,1.2-.3.5-2.3,1.7-1.9,3.3-.7,1.4-.6,3.1-.7,5-1,.8-1.2,1.9-.6,2.9-.6,1-.2,2.4,1.6,3.2-.6,1.1,0,2.3.1,3.3-1.2,1.1-.2,2.3-.3,3.5-.2,2.2-1.1,4.7-.8,7-1.4.7.2,1.5.8,2.1-.4.7.4,1.5.7,2-.4.7,0,1.3,0,2,.2.7.6,1.1-1.4,1.8-1,.6-.3,1.1-1,1.8-.5.7.5,1.1-.4,1.8,0,1.1-.6,2.1-.7,3.1-.9.8-1.8,2,1,2.6-.3.7-.9,1.5.6,2-.5,1-.7,1.9.9,1.7-.3,0-.5-.2,1.6-.8,2.3-.2,1.3-.6,1.2-.9,2.5-.3,1.4-1-.3-1.1,3,0,1.4-.2,2.6-.5,2.3-.2.5-.4,1.3-.7,1.2,0,1.8-.3,1.9-.5,2.4-.1,1.1-.6-.3-.7.8-.2.4-.4,1.1-.5,2-.1.9-.2,2.6-.5,1.6-.4.3-.8.5-1,2-.2,3.6-1.1.4-.8,2.4,0,.5-.7-1.9-1.3.3-.6-1-1-.2-1.5.4-.4,1.8-1.6-2-2.1.5-.8-.1-1.5.8-2.5.2-1-.5-1.8,1.1-2.8,1.1-.9.8-2.1-.1-3.2.3-1.1.4-2.2.9-3.3,1.2-1.1.7-2.4-.3-3.5,1.1-1.2.4-2.3,1.4-3.6.6-1.1,1.4-2.3,1.5-3.6.9-1.1,1.1-2.4.7-3.6.8-1.3-.3-2.4-.1-3.4.8-1,.8-2.2.4-3.2.8-1.1,0-2.1-.4-3,0-1-.4-1.7,1.4-2.5,1.3-.9-.4-1.6-.2-2.2,0-.7-.2-1.3-.2-1.6.8-1.1-.2-1.7.1-1.7.4-.6-1.9-.7.3-.7,2.7-.3.5-.6.9-.7,2.4-.2,1-.6.9-.6,2.8-.2,1.2-.8-.6-.7,2.1-.3.2-.4,1.7-.6,2.5-.2,1.2-.4,2-.6,2.3,0,.2.5.7,1.2-.3.5.6.8-.7,1.4-.3.6.5,1.1-.4,1.8-.5.5-1.6,1.3-1.1,2.2-.5.6-1.5,1.9.9,2.6-.7,1,.7,1.9-.3,2.8-.9.9-.6,1.9-1.1,3.1-.6,2.4,1.3,4.3-1.1,6.6-1.7,2.3-.4,4.4-1.7,6.8-1.7,1.2-1.1,2.6-1.2,3.9-1.7s2.5-.9,3.8-.2c2.6.6,4.7-.7,6.5-1.7,1.8-1.3,3.3-1.9,4.5-1.2,1.2,1,1.7-.1,1.7-.4,0,.2,0,2.7-.8,2.4-.5,1.6-1.3,2.4-2,5.8-.7,2.7-1.7,4-2.3,7-.3,2-.7,2.6-1.1,3.2-.5,0-.5,2.8-.9,2.7-.7-.2-.7,3.6-.8,2.5,0,.4-.7,0-2,.6-1.2.7-3.1.3-5.2,1.6-2.1.8-4.6,2.3-7.4,2.2-1,.7-2.1.5-3.1.9-1.3-1.4-2.2.5-3.2.9-1.1,0-2.2.6-3.3,1.1-1.1.5-2.1.9-3.3.8-1.3.2-2.5,1.5-3.8,1.1-1.4-.7-2.5.3-3.6,1-1,1.7-2.1,1.6-3.3,1-.6-.4-1.1-.5-1.6-.3-.5.1-.9.5-1.3,1-.4.8-.8.9-1.1,1.6-.3.9-.9-.6-1.3-.3-.8,0-1.3.5-2,0-1.1-.2-1.5,1.1-1.6.4-.2,1-.4,2.4-.6,3.1-.4-.2-.5,1.5-.7,2.2-.2.8-.4,1.5-.7,1.9,0,2-.2,2.8-.5,2.9,0,1.6-.5.8-.5,2.5,0,1.5-.3,1.9-.6,1.7,0,2.3-.4.7-.4,2.2,0,1.6-.2,1.4-.5,1.4-.5-.2-.4,2.9-.6,3.6-.1,1.5-.4,1.6-.6,1.4-.2,1.6-.1,3.6-.4,1.8.2,1.4-.5,1-1.8.5-.5.8-1.5-1.3-2.1.5-.7.6-1.7.4-2.6.8-.8,1.2-1.9,1.4-3.1.7-1,.9-2.2.8-3.3,1.1-.6-.2-1.2.2-1.8.3-.6.1-1.2.3-1.7.7-1.3-.7-2.5-.4-3.5.9-1.2.1-2.3.6-3.4.5-1.1,0-2.2.2-3,1.1-1.1-.7-1.9,0-2.7,0-.8,0-1.5.3-1.9,1.2-1,1.1-1.7,1.4-1.8.4,0,.5-.5-1.6-.9-1.4-.2.3-.7-.9-1.1-1.7-.3.2-1-1.8-1.5-2.4-.3-.7-.7-1.8-.9-1.4-.3-.6-.5-.3-1-1.6-.2.2-1.1-3.1-1.1-1.8-.3.1-.9-1.7-1.1-1.6-.5-1.2-1-2.1-1.4-2.8-.4-.7-.8-1.1-1.2-1.1-.8-.6-1.9-3.1-2.9-4.6,0-.3-.8.7-2.5.5-.7.5-1.9-.4-2.8.5-1,.5-2.2.8-3.6.9-.8.7-1.8,0-2.7.6-1,0-1.9.4-2.9.6-2,.7-3.9,1.9-6.3,1.3-1.1.1-2.2,0-3.2.6-1,.5-2.2,0-3.2.6-.7,0-1.5-1.1-2,0-.7-.2-1.2.5-1.8.7-.7-.3-1.3-.4-1.8.3-.5.5-1.3-.4-1.8.3-1.2-.3-2.4-.4-3.4-.2-1,.2-2,.6-2.7,1.2-.8.7-1.4,1.7-2.3,1.1-.8-.2-1.1,1.1-2-.4-.9.6-1.6,0-1.6.3-.3-1.3-.8-1.7-1.5-2.2-.8-2.4-1.5-3.8-1.7-2.4.1,1.6-.9-1.9-.8-.5-.5-1.1-1-2.5-1.2-2.3-.3-.4-1.1-2.7-1.2-1.8-.5-1.3-.6-.1-1.2-1.9-.5.1-1.4-1.5-2.1-2.5-.8-1.3-1-.1-2-2.8-.8-1.7-.9-.1-1.7-2.4-1-1.5-1.6-2.4-1.6-2.2,0,0,.8,1.1,1.6-.2.4-.6,1-.8,1.8-.9.7,0,1.7.6,2.6.2.7-.9,1.8-.7,3-.2,1.2.6,2.2-.4,3.3-.8,1.2,0,2.4-.2,3.7-.5.6-.1,1.3-.3,1.9-.4.6-.1,1.4.3,1.9-.4,2.3.3,4.4-.9,6.6-1.2,2-1.3,4.2-1.7,6.5-1.2,1.1.4,2.2.3,3.1,0,1-.2,2-.1,2.7-1.1,1.1.7,1.6-1.2,2.5-.5.8,0,1.5-.7,2.2-.4,1.3-.6,2.4-.6,3.2-.7.8,0,1.1-.6,1.2-.2-.5-1.2-.8-.9-1.4-2-.6-1.3-1.2-2.9-1.4-2.1-.4-.1-1-1.9-1.4-2.1-.6-1.3-1.2-2.7-1.4-2.1-.2.8-.9-1.3-1.4-2-.7-1.7-1.1-2.2-1.5-2.3,0-.4-.3.6-1.2.2-.2.9-.8.3-1.5,0-.6-.1-1.3-.2-1.8.7-1.7-1.2-3.2.1-5,1-1.9.1-4,.3-6.1,1.2-1.2-.3-2,1.2-3.3.6-1.1.2-2.2.4-3.4.6-2.2.8-4.3,1.8-6.8,1.2-2,1.2-4.6-.4-6.4,1.1-1.3-.5-2.5-.5-3.4.6-1,.4-2.2-.3-3,.5-.7,1.3-1.5,1.1-2.3,1.3s-1.4,0-2.1-.6c-1.1,0-1.6.4-1.6.2.1.6-.7-1-1.6-2.1-.6-1.2-1.2-1.9-1.8-2.5-.6-.6-1.2-1-2.1-2.6-.6-.3-1.6-2.2-2.3-3.2-.8-1.2-1.7-2.7-2.2-2.8-.7-.7-1.5-2.1-2-2.4-.8-1.6-1.2-1.4-1.8-2.6-1-1.3-1.7-2.2-1.6-2.1-.1-.6.5.3,1.2-.2.2-.8.7-.8,1.4-.4.7.5,1.4.8,2-.1.7,0,2.1,2.1,2.3-.4,1,.6,1.8-.2,2.7-.4.3-1,1,0,1.5-.1.3-.8.8-1,1.5-.4.3-1.2,1.2.5,1.6,0,.6.3,1.1-.3,1.6-.6.6.3,1.2.4,1.8.3.6,0,1.1-.2,1.7-.5,1-.9,2-1.8,3.4-1,1-.9,2.1-1.5,3.3-1.7,1.2-.2,2.4,0,3.7.4,2.3-.2,4.9.7,6.6-1.3,1.1-.6,2.8,1.3,3.5-.4,1.1-.1,2.2-.3,3-.9,1.9-.5,3.9,1.4,4.6-.9,1.1-.1,1.8.2,1.7-.3-1.1-2.3-1.8-2.8-2.5-3.6-.8-.8-1.8-2.8-2.5-3.6-1-1.8-1.8-2.7-2.5-3.6-.8-1.7-1.2-1.5-1.9-2.4-.6-.9-1.1-.9-2-2.9-.6-.6-1.1-1.1-1.8-2.2-.5-.2-1.2-1.3-2-3.1-.5-.3-1.1-1.2-1.8-2.3-.7-1.1-1.4-2.4-2-2.9-1.2-1.4-2.6-3.9-3.8-5.1-.3-1.5,0-1.3.9-.2.6-.3,1.5.2,2.4-.5,1,0,2.3,0,3.5-.5,1.5.8,2.4-1.3,3.9-1.1,1.4.1,2.9.5,4-.6,1.2-.4,2.3-.9,3.4-1,2-.7,3.4-.4,3.4-.7.4,0,1.2,1.2,1.8,1.8.8,1.4,1-.1,2,1.6.8,1.3,1.4,1.3,2,1.1.6.1,1.5,1,2.2,1.5.6-.2,1.5.8,2.2.9.8.4,1.6.7,2.3.8,1.9,2.1,3.4,1.9,4.8.7,1.6-.2,3.2-.7,4.9-.4.7.3,1.2-.5,1.8-.7.6,0,1.1-1.1,1.9-.4.5-.6,1.4.8,1.8-.7.8.7.9-1.9,1.6-1.1.5-.4,1.1-.6,1.6-.9.5-.3,1-.6,1.4-1.5-.2-1.1-.4-.5-1.1-1.6-.7-.8-1.9-3.7-2.9-4.2-.7-1.5-1.1-.8-2-3.1-.9-1.8-1.5-2.6-2.2-3-.3-.1-.8-1-1.2-1.9-.4-.6-.8-.9-1.2-1.6-.3.2-.8-.9-1.1-1-.6-1.2-1-1.9-1.5-2.6-.6-1.4-1.2-2.7-1.7-3.5-.5-.8-.9-1.1-1.1-.6-.8-.9-1.8-2.5-2.6-3.4-.7-1.9-.7-.5-1.4-2.4-.7-2-1.4-3.6-1.2-1.2-.5-1.1-.7-.7-1.2-1.5-.4-.6-.9-1.3-1.3-1.9-.9-1.7-1.6-2.1-2.4-3.4-.9-1.8-1.2-1.1-2-2.6-.4,0-1.3-2-1.8-2.6-.5-.8-1-1.5-1.3-1.5-.5.1-1-.9-1.1-1.5-.6.8-1.1,2.2-1.9,2-.5,1.3-1.1,1.7-1.7,2.2-.7,0-1.1,1.4-1.5,2.4-.5.5-.9,1.4-1.2,2.6-.5.2-.9.8-1.1,2.2-.1,1.7-.7.9-.6,3.3-.1,1.2-.3,2.3-.3,3.4s-.2,1.9-.2,2.6c0,0-.7.6-2.1.5-1.1,1.4-3.2.6-5.2,1.2-2.3-.4-4.2,2-6.8,1.6-1.2,0-2.3.9-3.4,1.3-1.1.4-2.2.7-3.4.3-2.3-.3-3.8,1.2-5.2,1.2-1.4-.2-2.2.1-2.1.5-.4.5-1.8-3.2-2.3-3-1.1-2.4-1.6-2.3-2.2-2.8-1-1.8-2.1-4.5-2.2-2.7-.7-.8-.9.3-2.1-2.5-.8-1.2-1.5-2.4-2.2-3.2-.7-.9-1.3-1.4-1.7-1.5-.9-.2-2.8-4.3-3.6-4.2-1.2-1.6-2.3-3.1-3.2-3.6-.7-1.4-1-1.3-1.3-1.4-.6-1-.8-.6-1.3-1.7-.7-1.7-.9-1.2-1.3-1.7-.4-.5-1.1-2.1-.9-.7-.3,1.1-1.1-.2-2.3-2.5-.5,0-1.8-2.9-2.2-2.5-.3.5-1.2-1-1.9-1.7-.7-1.7-1-1.9-1.1-1.4-.3-.2-.6-.6-1.1-1.7-.7-1.1-2.2-4.8-1.8-2.3,0,1.1-1.8-3.9-1.8-2.5-.1.2-.5-.7-.9-1.5-.6-1.6-.8-1.8-.8-1.4-.2.4-.8-.9-1.3-1.8-.6-1.2-.2.8-1.3-2,.5,2.3-.3.2-1.3-2.7-.3-.4-.6-1.2-1.1-2.4-.8-2.3-.7-1.7-.9-2.4-.4-1.3-.3-.9-.7-2.3-.2-.7.1.2-.7-2.7-.4-1.5.3.4-.3-2,0-.4-.5-2.6-.5-3.2s0-1.5,0-2.5c-.4-2.2-.2-2.4,0-3,.2-.5.2-1.6.2-2.9.6.6.4-1.4.4-3-.3-2.3-.1-3.5.5-3.1.8.9.9-.8.7-3.1.7.4.6-2,1.1-2.7.3-1.3.5-2.8.9-4,1,1.5.5-1.6.8-2.2,0-1.4,1-.3,1-2.1.4-.6.8-1.1,1.1-2.3.1-1.6.5-2.3,1.3-1.8.7.2.9-1.3,1.3-2.2.4-.9.8-1.7,1.5-1.7,1.1-.8,2.1-2.3,3.2-3.6.9-.4,1.4-2,2.3-2.3,1,0,1.1-3.3,2.5-2.2,1-.2,1.2-3,2.7-1.7.5-2,1.7-1.4,2.5-2.3.8-1.1,1.6-1.8,2.5-2.4.9-.6,1.9-.9,2.9-1.1,2.1,0,3.8-1.4,5.5-3,2.2.4,3.8-1.2,5.3-2.5,1.5-1.7,3.4-1.4,5-2.1,2.1-.8,4-1.4,5.7-2,1.6-1.1,3.1-1.9,4.6-1.3.9-1.8,2.3-.8,3-.7.2-2.2,1.7,2,1.1-.2.3,1.2.8,1.8,1.1,1.3,1,1.8,1.3,0,3.1,3.6,1,2,1.5,2.1,2.2,2.5.7.5,1.2.2,2.5,2.9,1.3,2.6,1.5,1,2.6,2.7,1.3,2.6,1.7,1.2,3.1,4.2.6,1.1,1,1.7,1.4,2.1s.7.6,1.1.8c.8.8,2.1,4,2.6,3.4.2-2,1.7,1.7,2.5,2.5.9,1.3,1.5.8,2.8,4.2.7,1.3.6-.5,1.6,2,.6,1,1.2,2,1.5,1.9.8.5,1.9,1.9,3,3.9.8.5,2,2.5,2.9,3.7,1,1.5,1.9,2.7,2.8,3.9,1.8,2.2,3,2.2,5,6.7,1-.4,3.3,6.1,4,5.4.8.2,2.2,3.8,2.6,3.6.5.3.9,1.3.9,1.3,0,0,1.5-.3,3.5-.7,1.7-1.6,4.4-1.2,6.4-1.3,2.2.5,3.5-.6,3.5-.7,0-.3,0-.7.4-1.5.3-.9.7-1.8,1-4.2.4-.1,0-4.2.7-3,0-1.9.5-2.3.8-3.4.2-.4.4-.6.4-2.2.5,1.2.2-2,.4-2.1.2-.5,0-3.1.5-2.1.1-.9.7.6.6-1.5.5,1.2.4-1,.6-1.5.6,1.4.3-2,.4-2.9.3,0,.3-2,.4-3,.5.6.2-2.7.7-1.7-.3-3,.3-1.2.6-1.6.2-.6.3-1.3.4-2.4.2-.6.1-2.5.5-1.8.4.4,0-2.9.4-2.3.1-.8,0-3,.1-3.8,0-1,.7.8.6-1.5.4-.7.7-2.7,1.2-2.8.3-1.5.2-4.8,1-3.9.5-.2.8-1.7.9-4,0-1.5.5-.4.4-2.1.2-.2.2-1.6.4-2.3.2-1.7.7-2.2,1-3,0-3.2.5-2.7.7-4,.2-1.5.6-1.9.9-2.6.4-1,.7-2,.9-3.5.3-1.2.9-.2.8-3,.4-.1.7-.4.8-1.8.2-.6.5-.4.3-2.5-.2-3.3.2-2.8.4-1.5.3,1.7.5,0,1.4-.4.5.3.7-1.6,1.7-.1.9,1.2,1.4,0,2.1-.7.8-.2,1.5-1.3,2.7-.4.9-.4,1.9-.8,3.1-.5,2.2-.2,5.1,1.8,7.3-.6,1.6,1.4,2.7-.2,4.1.3,1.4.1,2.9.2,4.2-.2,2.9.4,5.9.3,9,1.3.8.3,1.6.7,2.3.4.8.6,1.8,2,2.3.4.7,0,1.7,1.2,2.4,1.1.8.6,1.6,1.2,2.3.7.7.2,1.4.8,2,.9.5-.7,1.2-.2,2,.9.7.7,1.2-.1,1.9.8.9,1.8,1.1-.5,1.9,1,.5-.6,1.1,0,1.9,1.4.7.9,1-.4,1.8,1.1,0-2.8,1.1,0,1.7.8.8,1.5.9-.7,1.8,1.6.7,1.5,1.1,1,1.7,1.5,0-2.9,1.1.8,1.5,1.1.2-1.6,1.1,1.2,1.6,2,.6,1.2.9.5,1.5,1.7.7.5,1.7,3.7,2.1,2.7.6.7,1.4,2.4,2,2.7.4-.5,1.1.8,1.8,2.6.2-1.4,1.4,3.6,1.7,2.6.3-.5,1,1.5,1.4,2.1.7,2.5.6-.2,1.4,2.9.7,2.5.8,1.5,1.2,2.1.7,2.6.3-1,1.1,2.8,0-1.4.8,2.7,1,2.4.6,2.5.2-.8.8,2.4,0-.3-.4-4.1.7,2.6.2.8.5,2.4.5,2.1,0-.5.2,1.2.2.5.2,1.3.6,3.8.4,2.3-.2-1.3.6,4.1.4,2.8,0,0,.1,1.5.2,2.4.6,4.8.2,3,.1,3.1.3,3,.2,3.4,0,2.6-.3-.4-.2,1.4-.2,2.9.2,2.9-.1,2.3-.3,2.8-.1,1.1,0,3.5-.5,2.8,0,2.5-.3,2.4-.6,2.7-.3.6-.4,2.4-.7,3-.3.7-.5,2.1-.8,2.9-.6-1-.7,1-.9,3-.4.7-.4,3.7-1,3-.3,1.5-1,.2-1.1,3.2,0,1.9-.4.7-.5,1.3-.5-1.8-.4.4-.5,1.7-.2.7-.4,1.5-.6,1.8-.4-.8-.3,2.4-.7,2-.2.7-.6.6-.8,1.9-.4-.1-.5,1.6-.7,2.5-.2,1.3-.6,1.3-.9,1.8,0,2.3-.5,2.4-.8,3.2-.6-1.2-.8.6-.9,3.1-.3.7-.7,1.3-1,2.6-.5-.4-.7,1.4-1.1,2.4-.2,1.9-.6,2.4-.9,3.9-.4.5-.7,2.5-1.1,3.1-.4.6-.9,1.3-1.1,3.7-.1-.7-1.1-2.2-2.1.2-.7-.3-1.5,0-2.4-.1-.8,1-1.8.7-2.9.8-1.1-.4-2.3-.2-3.4.1-1.1.3-2.3.7-3.5.7-1.3-.5-2.3,1.3-3.6.6-1.3-.9-2.3.5-3.4.3-1.1,0-2,.8-2.8,1.4s-1.6.9-2.5-.7c-1.3.4-2.1.8-2.1.3-.4-1.3-.5.2-1.3-2.7-.4-.5-.7-.2-1.5-2.5-.6-1.2-1.2-1.9-1.7-2.4-.8-1.9-1.3-1.8-1.9-2.2-.8-1.3-1.5-2.2-2.1-2.1-.4,1.2-1.3.2-2.2-1.5-.6.3-1.5-.3-2.3-.9-.8-.2-1.6-.5-2.6-1.7,0-.2-.3.2-.5,1.8,0,1.3-.2,2-.4,3,0,2-.4,2.3-.9,1.9-.3.8-.4,3-.7,4.2-.3,1-.8,1.4-1.1,2.9,0,1.1-.3,1.8-.6,1.7-.2.6-.4,1.3-.5,2.4-.6.2-.9,2-1.1,4.3-.2.8-.2,2.5-.6,2.1-.4-.4-.3,1.9-.6,2.2-.2.6-.3,1.9-.7,1.7-.2.7-.4,1.6-.4,2.9-.3.4-.3,1.8-.7,1.7-.3.1-.3,2.1-.4,2.8-.3.3-.3,1.7-.5,2.2,0,1.3-.3,1.7-.6,1.8-.3-.1-.3,1.3-.4,2.5,0,1.2-.3,1.1-.6,1.2,0,2.7-.5,2.9-.8,3.5-.5-.2-.6,1.4-.7,3-.5-1-.3,2.3-.6,2,0,2.7-.3,2.5-.5,1.9,1.1.1,2.5,1.3,3.7.9,1.3.6,2.7,1.6,3.8.3,1.4.9,2.4-1,3.9-.4.7-.7,1.7-.2,2.4-.6,1,.8,1.7,0,2.3-.9,1,1,1.5-.4,2.2-1,.8,0,1.5-.5,2-1.5.7-.4,1.1-2,1.9-2,.6-.6,1.2-1.1,1.8-1.3,1.2-1.1,2.1-2.7,3.1-4,1.1-.2,1.8-1.9,2.3-4.6.2,1.1.5.7.9-.2.7.6,1.5.2,2.5-.4,1-.2,2.2-.7,3.4-1,1-1.7,2.8.7,4.1-.2,1.4,0,2.8-.3,4-.6s2.4-.6,3.5-.6c2.1.1,3.6.6,3.4-.5-.1.9-.4,1.3-.6,2-.1.9-.5.8-.6,2-.4-.8-.6.1-.7,1.2-.2.7-.4,1.3-.5,2.7,0,1.4-.4,1.3-.6,1.6,0,2-.3,2-.5,2.4-.2,1.9-.5,2.5-.9,3-.2,1.4-.5,2.9-.9,3.1-.4,0-.4,3-.9,2.7-.5-.3-.7,1.6-.8,3.5-.4.3-.6,1.8-.9,3.2,0,3.1-.5,2.9-.9,3-.8.4-1.1,4.8-1.7,6.2h0ZM157.5,496.7l2.9-26,12.9-62.1c-1,23.6-9.3,46.3-12,69.6-.6,4.8-.5,10.1-1,15.3,2-2.7,3-2,4.2-6.5,4.6-16.9,5.6-37,10.8-53.5,1.2-3.8,4-6.1,5.1-8.9,3.7-9.6,7.7-28.2,10.4-39,7.6-29.6,16-63.1,21.3-93,.1-.6,3-4,0-3.3-.8.2-.1,3.5-2.4,1.4,2.7-10.4,4.8-21.9,5.6-32.6,0-1,.7-3.5-.9-3.2-.7,11.6-5.1,23.8-6.5,35.1-.2,1.3.1,2.5.9,3.6l-1.8.9-4.7-2.3,1.9,2.8-2.7,1.5c-3.5,13.6-7.8,28.8-9.5,42.8,0,.8-.3,3.4.9,1.8l4.7-20,2.8.9,5.6-24.2c-3.6,32.5-11.9,64.3-19.6,96-1.7.2-.7-1.9-.5-2.8.7-3.5,2.1-7.1,2.4-10.7,0-1,.7-3.5-.9-3.2l-4.7,21.4c-1.7.2-.9-2.1-.8-3.1.9-9.2,4.6-21.1,7.1-30.2.3-1.1,1.8-.9,2.1-1.8,1-3.4,2.1-12.1,2.6-15.9.1-1,1.1-3.2-.7-3-.7,4.8-1.6,9.6-3.1,14.2-.4,1.3-1.9,2-2.3,3.3-6.2,20.2-9.9,41.3-13.3,62.2h-1.9c2.4-11.4,4.2-23,6.4-34.5,8.6-44.8,18.9-89.6,27.8-134.4,4.4-22.3,9.9-45.4,12.5-67.7.2-1.6,1.4-9,3.1-9,.9.7,1.3,1,1.3,2.2.2,4.3-4.5,24-5.8,29.7-1,4.2-3.2,7.8-3.5,12.4-.1,2.3.3,2.6,1.1.1,1.1-3.9,1.9-7.8,3.4-11.6.8-2,1.3-2.3,1.1.1l-4.6,20.1-2.8-.9-11.1,59.1,3.2,2.4,19.1-87.6,1.8,3.7,10.3-59.7c1.6-.2,1,2.2.9,3.2-.2,2.5-.7,5.6-1.1,8.3-3.6,29.4-9.9,58.7-14.7,87.9-.4,2.4-1.3,2.4-1-.1.8-9.2,3.9-19.5,4.6-29,0-1,.8-4.3-.9-4.2l-5.7,34.9,1.9,1.4h-2.8s-3.7,30.8-3.7,30.8c2.1-1.2,2.7-5.2,3.3-7.4,7.6-27.2,10-55.4,15.8-83,3.8-18.1,9.4-35.9,12.2-54,.2-1.3.5-6.2-1.4-6.6l-5.6,28.9c.1-6.5,2.2-29.4,5.7-34,1.2-1.5,3.6-2,5.5-2l-1.9,2.8,1.9.9-1.9,3.3,5.6-2.8-1.9,6.8c4.5,3.4,7.6,5.4,13,2.4v-4.5c.1,0,8.5,2.8,8.5,2.8-1.3,3.3-2.1.4-3.2.4-1.9,0-5.6.6-5.2,3.3,6.9-.1,8.3,4.4,14.9.4,2.7-1.6-2.2-1.8-1.8-3.2,1.5,0,5-.5,5.5,1.5l-.8,4.1c2.5,0,3.5-2.7,6.1-2.8s9.1,5.9,9.6.6c.2-1.7-1.6-2.9,1-5.2h-6.5c1.3-2.3,2.6-.7,2.8-3.7.7.1,4.1,5.6,5.1-.9l2.3,3.7c-4.6-1.1-2.5,2.8-.6,4.4,1.1.9,3.1-1.1,2.6,3.8l7.3.2-2.8,2.8c3.6-.7,3.9,2.9,5.3,3.8.4.3,4.1,1.2,5.7,1.7,3.5,1.3,7,2.4,10.5,3.8l-3.7-2.8c2.1-6.4,5.6-.4,5.7,3.6h3.6c-1-2.8.5-5.8.8-8.7.1-1.2-1.2-2.8-.6-4,1.3-2.4,4.8-2.5,6.4-3.5l-1.7-.6.8-2.7-2.8,1.8c-1-2.4-.4-2.8.9-4.6-5.5,2.7-4.5-2.1-9.3-2.8v3.7l-2.1-4.4c-7.7-2.3-17.1-1.8-24.5-3.9-2.2-.6-4.3-4.6-6-3.3l.9,4.2-1.9-2.8h-2.8c.4,2.1,1.1,5.4.9,7.5-1.1-.2-2.9-.1-3.8.4v2.4c0,0-2.7,0-2.7,0-1.5-6.7.2-5.4,4.1-9.4,1.7-1.7,1.1-4,5.2-5l-2.9-5c-12.8,2-10.6-15.3-18.1-21.6-.4,1.8-2.8,5-4.3,6s-3.8.7-4.1,1.4c-1.2,2.1,1.8,4-.9,5.6l-5.1-5.6c-.8,2.9,2.6,3.8,2.7,6,0,.8-.6,3.9-2.3,3.3l-2.5-4.5c-7.4,1.3-7-5.3-10.6-9.5l.9,5.6-7.9-8.4c1.6,2.5,2.8,5.5,4.7,7.9,2.7,3.5,8,6.3,7.5,10.7h-19.1c-.9,0-5.1,1.7-5.6,2.8.5,2.2-1.9,6-1.9,7,0,.5,1.1,1.3,1.1,1.8,0,1.4-3.7,2.2,1.7,3.5,1.6.4,2.7,0,4.3-.2l.2,2.6,2.6.2-3.7,22.3c-5.2-.9-14.8-2.7-19.5.6-1.4,1-1.8,4.2-3.2,6.1-2.5,3.3-9.9,7.9-13.1,11.1-1.8,1.8-6.9,9.9-8.5,10.2-4.3-3.7-13.4-5.2-17.6-.9-2,2-.8,4.7-2.2,6.2-1.1,1.2-4.1,1-4.5,1.5-.9,1.1-1.2,7.7-1.7,8.9-.6,1.6-2.4.5-2.2,2.1h3.7v3.7l7.3-.8,1.1,5.5h-7.5l1-1.8c-10,1.4-18.3,6.4-28.9,4.6v3.7l-14.9-2.8v7.5c-4.9-1.1-7.8-5.7-9.2,1.7l4.3,3.2c-1.3,2.5,0,1.5,2.1,1.7l-1.9,3.2,7.4,7.5-2.8,1.4,1.9,4.6-2.8,2.3,2.8.5-1,2.8h2.8l-.9,2.8c4.3-.2,6.9-2.5,11.5-.9,1.1.4,0,2.6,2.5,1.8l-1.8-4.7,2.3,1.8,1.4-1.8c0-.1-2.7.5-1.9-1.4.9-2.1,7.5-1.3,8.3,1,1,2.6-1.6,2.1-1.7,2.7-.1,1,.8,3.4.4,5.5-1.4,8.1-4.7,8.9-10.4,13.7-.7-.6-1.5-4.5-1.4-5,.2-.7,1.7-.6,1.8-1.3.3-1.4-.6-9.3-1.9-7.8v2.8s-3.7-.9-3.7-.9c1,3.9,2.2,13.2.3,16.5-1.5,2.6-4,2.1-5.6,3.4-2.9,2.3-4.9,10.2-3.1,13.7l-4.6-.9c-.9,3.3,3.1,1.3,3.7,1.9l-.8,2.4c3.4,1.1-.7,6.7,2.7,9.3l-1.9.9c3.1,2.6,1.5,15.4-.5,18.2-2.3,3.2-3.5-2.9-3.8-3.6-1.1-2.5-2.6-2.9-1.4-6.6-6.1-2.8-4.5,2.8-6.5,5.1-1.1,1.2-4.8,2.2-6.5,2.3l1.8,2.3c-2.1,1.7-2.7,4.1-3.8,6.3-.8,1.5-3.5.8.1,5-2.4.8-2.5,7.5-2.6,10.2,0,1.4,1,2.7.7,4.2-1.6,1.8-7.8-8.5-7.5-10.2-6,.6.1,5.7.6,8.4.2,1.5-1.8,2.2-1.5,2.8,0,0,1.2-.2,1.8.7.8,1,1.6,3.5,2.1,3.8.8.4,2.1,0,2.8.3.9.4.8,1.7,1.1,1.7,1.2,0,2.6-1.2,4.6-.9.9.2,0,2.8,2.5,1.9l.5-3.7.9,3.8c-6.6,3.3-11.6,8.9-17.2,13.5l2.8-.5v1.8c-4.7.7-4.8,9.5,0,10.3v1.4c-1.9,1.3-3.3,1.5-2.8,4.2l-4-1.7c-4.3.3-4.9,8.4-6.7,11-1,1.3-4,2.2-4.6,3.8-1,2.3,2.7,6-1.4,7,1.1,2.4,2.5,3.2.8,5.9h-3.5s0-2.7,0-2.7l-2.8.9.9-4.7-6.5.9c-.8-4.1,1.9-5.8,5.6-4.7l-2.3-6.5-9.3,5.7c-1.3-2.6-2-3.3-5.2-2.9l1,1.8c-6.3-2.6-5.5.8-9.1,3.7-5,4-10.7,7.8-16,11.2.6,2.5,4.5-.7,6.1-.9,2.4-.3,6.8.7,9.3.8.5,0,.3-1.5,1-1.7,1.5-.3,7.6-.3,8.8.4-.3,2.8,1.6,2.2,1.7,2.4,1.2,2-1.7,2-2.8,3.2-1.3,1.3-7.9,7.7-8.1,8.2-.8,2,.3,5.2-1.4,7-1.1,1.1-8,4.1-9.1,3l.7-2.8,2.9-1.5.2-7.8c-5.7-1.8-13.4,9.3-14,13.6-.5,3.7,2.8,5.9,2.9,9.3,0,1.8-2,1.2-2.5,3.1-.7,2.5,0,5.2-1.3,7.6,5.2-1.6,6.5-6.9,6.5-11.6,9.4-2.8,18.5-6.3,27.6-9.7,1.7-.6,2.6-2.3,3.9-2.7,3.1-1,6.6-.4,5.4,3.5-1.9,5.7-5.3,4.7-10.2,6.7l-1.8-1.8c-.8,1.2-3.7,1.5-4.1,2-.6.7,0,2.1-.2,2.6-.2.5-7.6-3.8-3.7,6.5.4.4,7.1-2,8.8-1.8,1.4.2,2.3,1.6,3.8,1.8,10.2,1.6,23-9.9,30.2-16.3,1.7-1.5,1.9-5,5.6-4.2.6,5.8-3.2,4.9-5.6,8.9l3.7-1.4-.9,10.2c1.3-1.8,3.9-1.1,4.7-1.5,1.7-.9,2.3-3.5,4.6-3.1v2.8l3.7-1.9.9,5.6c-2.7-2.7-2.9-.7-5.2-.3-.8.1-2-.6-2.6-.5-2.7.6.7,4.5-2.4,5.9-2.3,1.1-6.6-.5-9.3.5-.9,2.5,1.6,1.5,1.8,2.4.1.5-.9,2.9,0,4.1,1.5.4.5-3.4,2.8-1.8.2.1-.7,6,2.4.9l-1.4-1.9c1.6-.3,3-.8,4.7-.9-1.2,3.7-1.7,9.1-1.9,13l.9-3.7c2.8-.4,1.6.5,1.8,2.1.6,3,4.5-2.2,5.6-2.6l-2.8-2.3,1.9-3.7-5.6,4.6c-.9-1,4.9-7.7,0-7.5.9-2.8,2.1-3.2,4.6-4.7v1.7c.1,0,2.8-.8,2.8-.8l.9,4.7,1.9-9.3,1.4,2.8,3.3-6.5c-.6,8.5-2.2,17-4,25.3-5.4,24.4-11.8,50.3-19,74.2-2.7,8.7-7.3,16.8-7.7,26.3-4.1-1.2.5-8.6-.9-10.2-5.4,1.1-2.8,6.9-1.8,10.6l-6.6,4.3h1.7c0,.1-2.6,10.3-2.6,10.3,4.1-1.4,4.3-2.3,8.3,0l.9-2.3c4.5,1.6-1.4-5.1,1.9-7,0,10.5,6.4,11.8,13.9,16.4l-1.8,5.9c2.6.4,2.2-2.2,4.2-3.7,3.8-2.9,4.3-.3,7.4,0,2.5.3,8.9.1,9.7,2.4,3.5,25.9,4.5,53.1,2,79.1-1,11-6,24.7-.4,35,.9-3.5,1.7-7.2,2.2-10.8,1.6-12.3,4.2-27,4.8-39.1.8-16.6-2.5-35.8-1.9-52.2,0-1.7,1.9-13.2,2.5-13.6.6-.4,3.8-1.1,4.1-.8l1.4,96c6.7-22.8-.4-47.2,7-69.9l2.8,4.6-1.8-8.4,2.8,1.9v-6.5l-1.8,1.9c1.2-4.6-2.9-10.2.5-14,1.5,1.7.8,5.9,4.2,5.6.9-.7.3-9.9,2.8-7.4,1,3,1.6,6.1,2.6,9.1.3.9-.1,2.8,1.6,2.1,2.6-1.1,4.4-7.5,6-9.8l6.1-4.1c2.5,1.1,1.2,18.4,4.7,21.4l1.4-3.7,1.8.9c.2-5.2,2.7-2.9,4.5-3.9.5-.3.8-2.2,2.1-3,3.1-2,7.8-5.2,11.2-3.3l-2.8,2.3,1.9,1-1,5.1,12.2-6.2c3.8,1.7,5,4.9,7,8,.4.7,2,.7,2.2,1.6,1.1,4.6,1.4,15.1,1.8,20.4.1,1.7-.3,3,1.4,4.1,5.3-2.7,1.1-8.8,1.8-10.2s3.9-3.4,4.2-6.1l1.9,1-6.5,22.8c5.5-5.8,5-15.3,8.4-22.4,1.9-.3,2,0,1.9,1.9l2.8-1.9c-1.4,4.6.7,8.8,2.3,13.1,3.4,2.9-1.8-6.8,1.4-6.5l4.7,14.5-1.9,1.8,5,1.4c6.5-6.5.9-17.3,6.7-24.2,3.4,7.7,1.4,12.9.5,20.5l3.7-7.4,3.7,9.3.9-5.6-1.8.9-7.4-24.8,7.8-8.7,2.7,1.7,3-2.7,4.9,2.5-1.7,15.8,1.8.4-2.3,3.2,2.4,11.7c.3.2,1.2-.5,1.4-.9,2-4.1.3-16,2.3-21l-2.8,2.3c1.9-4.2-.4-8-.1-11.7.1-1.6,1.5-1.1,1.9-2s-.2-2.5.6-4c.2-.4,3.8-3.3,4.1-5.1-4.3-1.6-4.8-3.3-3.3-8,1.3-3.9,3.7-2.4,4.7-3s2.4-3.1,5.1-2.6c1,4.5,3.2,12,8.4,12.1l-.6,1.8c-6.2.1-4,4.7-6.9,8.4,4,1.2,3.1-3.3,4.4-3.7,6.1-2.2,10.1,1.8,14.8,1.4,1.1,0,9-2.6,10.3-3.2,5-2.4,6.9-7,8.8-11.8,6.7.1,3.2,4.3,4.7,8.9-2.3.5-5.5.6-7.5,1.4-1.9.7-1.6,2-2.5,2.3-2.2.8-11.8,2.2-12.9,3.8-.3,10.5,10.4,1.6,16.2,1.7l.2-4.5c4.9-.7,9.7-1.3,13.5-4.7l3.2,5.6c0-2.1-2.6-13,1.4-12.1,3,.6,0,6.2.4,7.8l1.9,1.5c-2.5,0-4.2,5.9-3.7,7.8.1.5,3.6,1.5.8,6-8.8,0-8.7,13.6-1,14.9,3.8.7,9.5,0,10-4.5.9,2.9,4.1.7,3.3,4.7l2.8-1.9c-.9,5.6-1.7,14.8,5.6,15.8.9-.9-7-9.5,0-10.3l1.9,3.7,1-6.5h-2.8c3.5-3.3,0-4.6,0-8.4h2.3s.5-2.8.5-2.8c-6.6.7,1.4-5,0-8.4l1.9,5.6,1.8-2.8,1,13c3.2-1.1,0-5.5,1.3-7.5.7-1.2,3.5-2.5,4.1-.3.6,2,.3,7.7.1,10.1-2,24.6-5.2,45.9-5.2,71.1,0,19.5,11.4-102.4,12.4-83.3.1,2.9-1.8,7.9-.2,10.9.4.8,1.7.7,2-.2,1.1-3.8,2.2-7.7,2.3-11.7.3-10.8-11.9,114.5-12.3,102.8-.6-15.4.7-31.3,1-46.6.3-15.7,2.9-28.2,5.1-43.4.5-3.5-.1-8.6.6-11.5.3-1.1,1.4-2,2.2-.6.6,1,5.8,13,5.8,13.7,1.3,13.8-1.2,32.3-1.6,46.5-.8,33.7,10.6-71.8,9.4-37.6-.9,23.7-6.2,50.2-4.7,73.7.2,2.9,1.2,5.7,1.1,8.6,0,.6.4,1.1,1.1,1.1h2.3c.6,0,1.1-.6,1-1.2-1.4-9.9-1.3-21-.8-31,1.2-22.8,4.2-45.9,4.7-68.9.5-20.9-9.2,98.3-9.5,77.6,0-4.5,1.9-7.3,2-11.2.1-4.2-1.9,3.1-1.9-1,0-8.1.7-16.2,1-24.2.4-11.8-2.1-23.7,5.1-34.1.7,1.4,2,2.1,2.9,3.2,1.1,1.1,3,4.4,4.1,5.6,2.3,2.6,4.3,1.9,4.5,7.5.2,9.3-.2,22.3-.7,31.8-.1,2-1.7,3.1-1.7,4.4,0,2.5,2.2,8.1,2.4,11.5,1,14.7-5.7,38.3-7.2,54.1-1,10.7,7.7-119.2,9.3-108.5.2,1.3.4,2.9,1.8,1.4,2.4-8.3-6.5,123.1-5.9,114.5,1.8-23.2,5.9-44.5,5.7-68,0-11.7-1.1-27,0-38.3.2-1.9,1.3-7.6,2.8-8.4,2.2-1.2,3.8.9,4.6-3.8,1-.8,2.7-.5,3.8,0,2.2,1.1.9,3.9,2.8,4.2l.9-5.6c-1.5,8.6,5.4,13.5,6.6,21.4,3.1-2,6.3-1.4,9.3-2.4,5.1-1.7,9.7-9.4,13.8-10.5,6.7-1.8,11.9,4.8,20.2-.4,2.1-1.3.5-3.8,5.3-2.2.4.1,5,2.3,4.2,3.3l-18.6,10.3c6.7-1.2,12.5-2.7,18.7-5.6,1.6-.8,2.8-2.4,4.3-3.2,2-1.1,5.2-.5,6.2-3.1.7-1.7,0-4.1,1.6-5.9,5.1-5.4,12.4,3.9,18.2.9v2.8c-2.3-1-5.1.3-7,1.8v6.5c1.7-4.4,4.4-2.9,7-4.2,2.4-1.3,6.5-4.8,4.6-7.8-1.1-1.8-5.6,1.4-4.6-2l5.2-1.8v-3.8c-.1,0,5-.9,5-.9.8-.9-1.4-4.5,1.9-3.7.9,5.1,4.2,11.3,8.4,14.4,2.9,2.1,10.4,3.4,8.4,8.9l2.8-.9c-.5,3-1,9.4,1.9,11.2,2.5-4.9.4-10.9,1.7-15.5,0-.2,1.4-3.9,1.5-4.1,3-6.7,3.4-3.1,9.1-4.9,3.2-1,15.3-6.1,17.9-5.3,1.3.4,1.2,1.3,1.5,2.3,1.3,5.1,1.4,12.8,1.9,18.1l2.8-1.8c-.9-3.1-1.7-6.2-2.4-9.3-.2-1.1-1.3-7.3-1.1-7.7.5-1.7,2.2-2.6,2.5-5,.6-3.7-1.6-8.4-.9-11.9.1-.5,3.7-2.1,2.8-4.4l-3.7,2.8c1.8-4.7-7.1-2.6-6.5-6,.5-2.8,5.9.3,6.1,2.3l1.9-3.7,2.3,1.8-.9-3.7,1.9-2.8,3.7,14c1.7-.1,1.1-5,.9-6-.4-2.1-1.9-3.2-1.8-5.2l4.7.5c3.8,7.7,6.9,13.8,5.6,22.8l.9-7.9,1.4-2.3c7.2,6.6,14.7,6.5,22.8,1.8.4,2.7,1.4,5.3,4.7,4.7l-1.9-9.3c7.7,0,.8-11.2,7.5-13.5l-3.7-.5.9-4.7c2,1.3,2.6,4.2,5.6,3.7l-2.8-2.8,1.9-1.9c8-.7,7.1,7.8,12.9,10.4l-.8,3.6-.9-2.8c-2.4.2-.9,5.6-1.9,6.5l-3.7-.9,1,1.8h-2.8c.5,6.2,2.9,2.7,5.9,3.1,4.7.6,6.1.5,10.4.7,1.2,0,2.1,1.5,2.7,1.5,1.4,0,14.3-8.3,15.4-7.1,1,10.3-.8,20.9,0,31.2.5,6.3,2.9,13.7,2.9,20.5,0,4.1-1.7,8-2,12.1-.4,6.8,1.2,14.2,1,21.5-.7,22.9,6.4-94.1,5.7-71.1-.3,8.9-3.8,24.4-.8,32.4.2.5.4,1.1.7,1.7.4.9,1.7.7,2-.2.4-1.7,1.6-3.1,1.9-5,.7-5.4-1-11.7-.7-16.8,1.6-38.1-4.5,63.4-3.1,25.4.3-7.5-2.4-14.4-2.9-21.4-.4-5.9.6-11.5,1-17.3,1.3.9,3.8.7,4.7,1.4,2.1,1.5,2,18.9,2.9,22.4-.6,10.8-3.9,24.5-.5,34.9.3,1,1,3.8,2.3,3.8,1.5-12.5,1.6-25.2,1.9-37.7,0-3.8,0-7.4,0-11.2,0-9.8.5-19.6,0-29.4,5.7,1,0,9.4,6.1,12.1l3.7-8.4h3.2c0,0,.4-3.8.4-3.8,2.6-.2,2.4-.4,3.8-2.7l1.6,5.5h2.6c.6.6-3,5.7.9,4.8-.8-4,1.8-2.3,4.3-3.6,6.3-3.5,9.9-6.3,6.9-14.1,2.1-.2,4.9-.2,4.7-2.8h1.8l.9,1.8c1-5.3,7-4.5,10.7-7.5l-.3,1.7,4.1,3.8c1.8.5,5.4-4.9,6.9-1.3.2.6-6.4,2.1-6.5,4.2,1.3-.2,11.4-3.8,10.3-4.6h-2.8s1-3.7,1-3.7l5.6,5.2v1.4c-1.7,0-4.1.4-3.7,2.8l3.7-.9c-1.2,5.1,1.5,8.1.9,13.4-2,16,3.4,29.6,1,44.8-.3,1.6-2.1,2.8-1.9,4.7,0,.6,2,.1,2,1.9.3,6.6-2.4,16.5-2.9,23.4-2.7,38.5,6.7-67.2,7.3-29.2,0,4.8-2.4,8.6,1.2,12.8.6.7,1.7.4,1.9-.4.4-2,1.8-3.8,1.9-5.8.6-13.5-2.6-28.6-2.9-41.9-.2-8-6.9,123.8-6.5,115.9.9-21.5.7-44.9,3.8-66.1,1.6-10.8,4.6-15.9,3.6-28.1-.9-12.3-1.8-14.6-.1-28,1.1-8.6-1.6-6.6-2.6-9.3-.7-1.9.1-4.8-.1-6.9,3.4,1.5,2,4.6,1.9,7.5l2.8-3.7c0,8.6-1.2,17-1,25.7.3,12.9,2.9,27.1,2.9,40.1,0,6.2-2.4,12.5-2.8,18.7-.1,1.6-1,16.2,2.8,13.5,2.3-5.6,1.2-11.6,2-17.1,1.3-9.4,1.7-11.9,1.7-21.5,0-10.7,0-21.5,0-32.2,2.3-.2,1.6-.2,1.8,1.4.4,2.5.2,5.3,1,7.9l2.8-2.8v3.7l2.7.6c-.3,20.6,2.6,40.8,6.2,61l1.4.9c1.4-5.2.2-11.5.9-16.4.2-1.4,3.5-2.4,1.9-6l-2.8,2.8-2.6-24.6,2.6-2.9-1.9-1,1-5,.9,2.8,2.8-1.9c2,2,.7,30.5,1,35.9.7,16.1,4.1,32.4,4.1,48.3s0,1.1.2,1.8c.2.9,1.5.9,1.7,0h0c.2-.9,1.6-.9,1.7,0,.2,1.7.4,3.4.4,4.9.2,31.2,4.1-78,2.3-47-.6,9.7,2.2,19.6,1.1,29.1,0,.6.4,1.2,1,1.2h3.2c.6,0,1.1-.5,1.1-1.1-.8-9.9-2.6-21.1-1.7-30.9.1-1.1,1.5-9.7,2.7-8l.3,3.3c0,.9,1.2,1.3,1.9.6,6-6.7,3.8-15.6,4.5-23.9,2.1-25.6-4.9,88.3-3,62.6.9-11.1,2.6-23.4,2.9-34.4.3-16.7-3.8-33.4-1.7-50.1.9-7,8.1-20.2,16.6-15.9,1.3,8.7,3.3,16,2.8,25-1.5,26.5-3.1,49-.9,75.6.2,2.1-.2,13.7.2,14.3.3.4,1.8.5,2.2,1,.6.9-1.9,5.6.9,2.8,4.8-8.1,0-19.2-.5-28.4-1.2-20.7.9-41.9,2-62.5.4-7.8-.3-39.5,5.6-42.9.7-.4,1.9-.5,2.8-.5-4.9-4.2-1.9-7.7-1.8-12.6,0-3.5-1.7-6.3,0-10.1,1.1-2.2,2.9-1,4.2-1.9,8.4-5.3,10-15.9,8.5-25.1-5.2-30.7-19.3-58.4-20.4-90.5-.1-4.5-3.2-9.8-2.7-14.6l3.7,3.7c.4-1.7-1.3-3.2-1.5-4.6-.1-1.3,1.4-2.1,1.4-2.4,0-1.1-5.7-4-7.3-3.3,2.5-3.3,1-3.3,0-6.5,2.1,1,3.1-1.9,3.4-1.9,1.1,0,2.7,1.6,4.2.5l.9-4.3-3.7.9v-2.8c-4.8-.6-4,2.3-6.5,4.7.1-4.1.1-6.5-4.3-7.4l-.4-6.6c3.1-.4,3.9.2,5.1,2.8l3.2-2.4c.4-2.8-1.5-.2-3.1-.4-.3,0-1.4-2.1-2.5-2.4.2-4.4,5.9,0,6.5-2.8.5-2.2-2.8-1.9-3.5-2.5-.5-.5-1.8-5.5-3-6.7,5.3-2.7,8-7,11.9-10.8,4.1-4,9.9-3.8-1.7-5.6l2.8-.9c-1.1-3.1-4.3-1.1-7-.9-1,0-3.5.6-3.3-1h4.7s-.9-1.9-.9-1.9c4.1,1.4,6.4.2,10.3-.9l1.4,4.7c.9-2.1,1.9-2.6,4.2-2.8-.9-1.8-2.3-4.6-1.7-6.7,1.1-3.3,5.4-2.3,4.4-7.2h-2.8c0,0,.5-4.8.5-4.8l-5.7-2.7c1.2-4-1.4-1.6-1.3-4.7l34,7.4.4-1.8c-4.6-.5-9.3-1.4-13.8-2.5-5-1.2-19.3-3.9-22.8-5.9-2.6-1.5-.4-5.6-2.6-6.5v6.5l-9.3.5,9.3,1.4-.9,4.2-4.7.4c1.7,2.7-1.6,4.5-1.5,6,0,3.1,6.1,4.5,7.6,7l2-1.9,6.9,1-2.7,2.4c1.6,3.5-.3,1.7-2.7,2.9-1.8,1-1.6,3-3.5,3.1-4.5.3-11.7-2.5-14.1-6.4l-13.4.7c3-3.5,2.6-4.3.9-8.4l-4.2,3.7c-2.7-5.4-5.7-7.6-11.1-10.3l-2.2-6.1,2.6-1.3c-4.3-4.4.8-3.9,1-5.2.2-1.8-1.9-5.8,0-8.7h8.3c1,3.1-4.9,2-5.6,2.7l.8,1.7-2.6,2.9,2.8-.9c-.7,3.4.9,2.3,2.4,3.2.4.3.5,1.5,1,1.5,1,0,2-.8,2.7-.8.5,0,.4,1.4,1.1,1.7,3.7,1.2,7.6,2.1,11.4,2.9.4-2.6-.5-1.6-2-2.1-3.2-1.1-9.5-1.1-9.2-5.8.2-3,2.5-1.2,2.9-1.9.8-1.5,2.4-9.4,2.8-9.8,1.6.4,5.7,1.4,6.5-.9l-8.3-1.9,1.8-8.3-13,3.7c-.3-2.4-10.1-9-3.3-10.3,8-1.5,3.4,8.5,11.6,6.5l-.9-2.8,2.8.9c1.4-1.6-5-4.5-6.7-5-4.6-1.2-9.2-.5-13.8-.6-.9,3.6,1.8,2.9,2.8,3.7,1.2,1-2.4.2-1.9,2.3.3,1,2.2,0,1.9.9-2.3,3.1-4.9.4-6.3-1.8l1.7-4.6-1.9-1.5,4-.2,9.1-3c-3.1-2.1-21.7-3.3-18.2-9.8,1.3-2.3,14.4-6,13.6-11.2l2.8,2.8c-.2-3.5,1.4-4.1,4.7-3.7l.9,6.5,1-11.2c2.8-2.6,1.5,7.8,3.7,7.4l-1-6,2-1c-2-3.4.3-10.1,4.6-9.7-5-6,2.1-9.7,7.5-11.2l-3.7-2.3,3.7-.5-2.8-.9v-2.8c2.4.6,6.6-.5,7.4,1.8l-3.7.5c2.5,2.3,11.2,4.9,13,1.4l-5.6-.5c5.9-2.7,11.2-2.6,17.4-.6l3.1-.8c-1.5,0-2.4.4-3.8-.7-8.5-6.7-18.6-6-27.1-9.9-6.6-3-10.7-7.2-19.4-6.2l1.9-2.8c-2-.2-5.1-1-6.6-2.4-.6-.6,0-1.4-.4-2.1-.1-.2-1.2-.2-1.2-.4-.4-1.3.9-.2-.8-3.1-2.4-4-1.6-1.5-4.4-3.3-.7-.4-.6-1.5-1.8-2.1-2.2-1.1-7.3-2.8-7.3,1.2l-1.8-1.4,2.7-3.8-1.3-2.2-2.8,1.9c-2.8-5.9-8.2-4.4-13.5-5.6-1.4-2.1,4.2-6.2,4.5-8.1.1-1.1-2.9-4.4-1.7-6.8.3-.3,3.6.4,4.1.8,1.2,1-.3,3.1,1.5,2.9,1.1-3.3,5.1-3.3,3.7-8.4l-1.9,2.8c-6.7-7.1,6.7-7.3,6.5,0,3.2,0,2.5-5.1,7.4-3.7l.5,4.7c4-1.4,1.4-2.4,1.8-4.2.3-1.2,1.9-1.6,1.5-3.2-3,.2-5.2-.2-4.7-3.7l5.6.4-2.8-8.8c-.8-.7-7.1,3.5-6.5,5.6-4.2-3.8-11.6-.1-9.3,5.6-2-.4-1.3-2.7-2.5-3.8-2.3-2-9.4-1.1-8.7-5.9,0-.5,1.6-.6,1.8-1.2.4-1,2.6-7.7,2.6-8.2,0-1.1-2.8-2.2-3.3-3.9-.6-1.9-.3-5.2-.2-7.3.3-6.7,6.6-35,9.5-40.9,1.6-3.1,4.4-5.7,6.8-8.1l.6,1.6,1.7-.7-1.9,4.7c6.5-3.4,17.4-.2,23.7-3.8,2.5-1.5,2-3.8,3-4.6,2.2-1.6,7.8-2.7,10.6-3.2l.9-1-1.7-5.9c7.9-4.4,18.1-6.3,19.5-16.9l-5.1,3.7c-2-2.9,2.8-4.6,3.7-6.6.7-1.6,1.1-9.2,3.8-3.7,3.9-2.5.5-3.2.6-5s3.1-5.8,1.7-9l2.8.9c.4-.4-1-4.1-1.4-4.7-.6-.9-1.9,0-2.1-.2-2.3-2.4-12.2-13.9-16.1-11.4-3.3,2.1-3.1,11.4-3.9,14.8-.6,2.2-2.6,3.1-2.6,5.3,3.1-3.6,4.4.2,5.9,0,.7-.1,1.9-2,3.1-2.5,1.8-.8,3.5-.7,4.9-1.1-.9-1.5-2.7-1.8-2.8-2.4-1.3-6.9,11.1-.4,2.8,2.4,1.1,2,1.2,4.3.8,6.4-1.3.4-3.4.3-4.3,1.3-2.2,2.4-5.8,12.9-8.2,16.5-.7,1-4.7,5.3-5.5,5.7-2.3,1.4-2.2.9-5.2,3.1-5.6,4-6.3,2.8-13,1.5,3-3.2,9.8-12.8,3.7-15.4-1.3-.6-4.1,2.1-6.2,2.3-2.6.3-4.3-1.3-6.4-1.4-4-.2-11.3.8-10.8,6.1,5.4.3,7.8-5.1,13-.5-2,4.3-8.5,4.7-10.8,6.9-1.3,1.3-1.4,3.3-2.7,4.8-4.3,4.8-9.8,8.1-13.1,13.9l-3.3-2.8c.3,3.5.1,11-4.7,8.8-3.1-10.8,4.6-15.9,11.2-22.8-5.5,1.1-5.6,7.7-13,3.7.3,5.8-.4,15.3-8,15.8-.9,5.7,3.8,11.6,9.9,9.9,2.2-.6,1.1-2.3,2.7-2.4-.6,3.7,4.5,0,3.8,3.7-4.9-.3-7.8,2.2-10.7,5.6l-.5-4.7c-.7-.9-4.4,9-4.5,10,0,1.5,2.3,2.9,1.7,5-6.5,1-11.9-2.4-17.7-4.7,3.8-3.5,7.9-7.7,9.1-12.8.8-3.1-4.3-6.9.1-10.9-3.9-3.9-8.4-1-13-1.4l.9-2.7c-3.7-1.7-8.3-7-10.6-10.4-5.1-7.5-3.5-13.5-13.3-17.5-3.8-1.5-8.8-1.4-11.3-2.7-1.9-.9-1.4-2.9-3-3.1,1.2,3.6-5.2,3.6-8.6,4.9-6.1,2.3-21.8,7.3-28,6.3-.7-.1-.2-1.7-2-2-5.5-.8-11.5,2.5-17.3,0,1.9-5.7,10.9-1.8,15-7.1-1.7-2.4-1.4-8.6-2.5-10.5-1.7-3.2-5.1-3.2-6.9-5.6.5-.6,6.4-.5,6.5-2.8l-2.8-.5c5-5.9,3.8,3,8.4,3.3l-2.8-5.6,9.7-2.8,1.9,2.7c5-2.2,6-5.1,7.7-10,.5-1.4,0-3,.3-4.2.2-.9,3.7-.3.4-4.3s-18.3-2.4-22.8.9c-11.2-18-32.6-2.1-27.5,15.9-12.9,6.3-22,10.8-25.5,25.9-.5,2.3.1,4.7-.4,7-.1.4-3.2,7.4-3.5,7.7-.6.6-3.2,1.8-3.7,1.4-4.5-15.8-5.6-2.7-8.8,0-1.4,1.2-4.8,1.3-5.7,2.7s1.2,3.4-.9,4.7l-1.8-1.9-3.8,4.7h-1.9l-.5-1.9-5.1,5.6-1.9-3.7-10.8,7.8c-7.5,1.6-14.1,6.9-20.9,8.5-1.3.3-2.2,1.5-3.7,1.4-.5,0-.4-1.5-1.3-1.8-2-.7-4.7-.4-6.7-1.9l.9,4.7,3.7-1.4c-3.2,3.9-7.5,9.7-13,8.9l.2-3.1,10.5-19.3,2.3,1.9c1.3-8.3,8.2-4.3,14.1-4.2l2.8-4.7c.6-1.4-3.9-1.6-1-2.8,1.3-.5,4,0,5.6-.4l-2.8,3.3,1.8,1.4,1.5-2.7,3.1.8,4.8-6.5c-8.1,5.6-1.7-6.6-5.1-6.5-4.7,3.3-2.6,7.5-9.3,7-.8,0-1.8-1.3-2.8-1.4-1.3-.1-12,6.1-13,7.5-.8,1-1.7,2.8-1.5,4.1.1.8,3.1,0,1.9,2.4-8.1-1.9-6.6,4.3-9.3,7-.9.9-2.7.9-3.5,1.6-1.6,1.5-1.3,6.1-5.8,5.4l2.8,5.6c-3.8.8-4.3-4.1-7.7-3.6-.8.1-5.9,3.4-6.4,4-1,1.3.3,2.5,0,3.6-.8,2.8-5.2.5-7.8.6-3.1,0-8,2.4-10.1,2-.6-.1-1.4-2.6-3.1-3.7-2.1-1.3-6.2-2.4-8.7-3-1.2-1.4,4.1-13.3,5.4-15.5,1.9-3.2,6.1-6.7,7.4-9.4,2.1-4.4,8.9-23.8,9.4-28,.2-1.8-.3-4.2-1.2-5.8l-7.8,15.5,1.8,1.3,3.7-5.6c.3,3.9-3.6,13.1-6.1,15.8-1,1.1-2.6.9-3.6,2s-2.2,4.8-2.4,6.5l-1.9-.5.9-10.7-2.8,4.6,2.8-10.2-1.9,2.8-3.7-1.9-3.7,12.1,5.6-8.4-1.9,5.1,1.8,1.7-1.8,2.5-.9-2.8c-.3,2.2-.2,4.9,2.8,4.7l1.9-4.7c.6,9.4-1.9,19.5-6.1,28-1.8.7-1.3-3.8-1.2-4,.8-2.2,3.6-4.3,2.6-8.1l-2.8,2.8c1.4-3.1-1.9-4-1.9-4.3,0-1.1,1.1-2.3.8-4.4-.6-3.7-3.3-4.1-6.3-2.5.4,3.9.9,8.5-3.3,10.1l-1.5-3.7c-3.5,1.7-4.5-1.7-5.5-4.7-2.6,1.2-1.9,5.9-5.6,5.6-.7-2.9,2.7-1.4,2.8-4.2.1-1.4-.9-2.8-1-4.2l-3.7,3.7,3.7-12.6,2.8.5-.5,2.8c3.9-4,1.4-6.3-3.3-7.4v3.3l-2.8-.5,1.9,2.3c-2.2,1.3-3.1,6-6,5.1l-1.9-3.7c-2.8,2.7-3.1,4.6-2.3,8.4l-4.6-.9v4.7s-4.7-6.5-4.7-6.5v14l2.8-.9c-1.7,2.3,3.7,8.6,2.8,9.3-.2.2-1.8-.4-2.6.2-.1.1-2,3-2,3.2-.1.9,1,1.4,0,3.6-.6,1.3-8,9.3-9,9.7-2,.8-1.5-3.8-3.9-4.1l-.3-2.5-.9,1.9c-2.9,1.2-15.2-5.3-19.1-6.6-5.1-1.7-11.7-3.7-16.8-5.1-1.3-.4-4.1,1.5-5.6-1.4h-1.4c-.6,2.2-2.1,12.1-2.8,13.3-.4.7-1.1.8-1.9.7v.9c11.3,4.5,23,7.8,33.9,13.2,8.9,4.3,11.5,7.3,21.1,9.8,6.4,1.6,8.4,10.7,12.6,12.5,1.5.6,1.9-1.2,1.4-1.8-.2-.3-2.7.8-1.8-1.9,2,1,4.2.7,6.1,1.8.7.4,10.2,11.1,10.5,11.8.5,1.2.6,2.6-1.3,2.2l-1.4-2.8h-1.9l.5,1.9-6-1.9,1.9-1.4v-2.3c-2.7.6-3.9-2.2-5.2-2.8-3.2-1.5.5,6,1.4,6.9,1.7,1.7,9.7,5.3,11,7.2.3.5-.6,2.5.1,3.5-2.3-1.1-6,1.5-5.6-1.8-1.2-.3-2.5-.1-1.8,1.4,1.2,2.9,7.2,4.3,6.6,7.8l4.1-.8c-1.6,4,1.2,3.6,1.4,4.4,1,3.9,2.9,10.6,3.5,14,1.7,9.3.2,24,1.2,34.3,2.4,27,5.9,60,10.4,86.6,1.1,6.9,1.4,9.6,8.3,12.3l-1.9,5.1-3.7-.9c1.7,4.2,1.3,6.7.9,11.2l-9.3.5,5.6,7.5-1.9.9,3.8,6,4.5-.9-1.9,1.4,5.6,3.7c-5.2.8-5.1.3-8.4-3.3l-.5,6.5c-2.7-3.6-3.1-8.9-8.9-9.3-2.3,2.6,6.6,14,7.2,16.5s0,6.2,1.1,9c-.4,1.1-4.3,2.3-5.1,2.2-1.3-.2-.6-3.5-3.2-2.6l1.8,5.6-2.8-1.9-1,5,2.9,2v1.4h-1.7c0,.1.8,2.8.8,2.8l-2.8-1.9v8.4l3.7-4.7c-1,2.2,5.9,11.8,7,12.1l.6-1.6,1.7.7c2.1-4.9-3.3-11.7.9-14.9,1.1,3.4-.2,16.7,1.8,18.3,1.4,1.1,3-.6,4.2-.6.3,0,1.3,2.5,5.9,2.5,1.2,0,2-1.2,2.6-1.2,1.7,0,3.9,2.4,5.1,3.3-.9-2.4,1.9-4.5,1.9-6,0-.6-1.7-.3-1.9-1.1-.9-3.5,0-11.9-.9-16.2l-2.8,2.8c1.3-5.3-3-15.2.9-19,.9-.9,2.4-.4,2.9-1.2,1.1-1.7,2-7.5,3.2-9.8l3.8-.9.4-5.6c2.2-.9,1.8,1.4,2.1,1.5,2.6,1.5,2.9-.7,3.6-2.8-1.3-2.8-6.1-1.3-6.6-1.5-.1,0,1-1.4,0-2.3-2.5-2.5-5.7-2.5-8,.4-3.1-.6-2-7.7-2.3-8.3,0-.1-2.2,1.2-2.8-.5,4-.5,3.4-3.1,5.6-5.6h-4.6c0,0-1.8-2.7-1.8-2.7,1.1-10.6,3-22.3,3.3-32.9.3-8.9-2.2-18.4.3-27.3-1.3-1.5-3.9,5.5-7.9.9-4.3-4.9,2.8-8.6,3.2-10.8.2-1.1-5.1-4.8-2.1-11.3.8-1.8,2.9-1.4,3.1-3.4.6-5.2-1.1-10.2-1.1-15,0-10.4,2.2-23.1,1.6-33.4-.2-2.7-2.3-6.1-2.2-8.4.2-3.6,5.3-12.5,5.4-17,0-1.2-4-3.1-2.9-6-1.6-.4-.2,2.8-2.3,1.8-.7-.3-1.4-1.4-1.4-2.2l1.8-9.9,2.8.9c-1.3-3,1.6-3.8,1.8-4.4,1.2-4.2.3-9.8,1-14.2h4.6s1.4-4.6,1.4-4.6l.5,2.8,5.2-.9.4-3.8-.9,2.8h-2.8c1.8-2-.8-3.8-.9-4.2,0-.7,9.8-9.1,12-7l-1.9,4.6c2.7,1.9,7.3-5.9,8.7-7.2.7-.6,6.7-5.2,7.1-5.4,1.4-.5,3.6.9,5.9.2.3,0,5.6-3.3,5.8-3.6.6-.9.3-2.6.5-2.8.2-.2,3.5,1,5,.9,2.8-.2,12.5-2.6,14.6-4.2,2.7-2.1,3-5.3,7.5-6.5,3.9-1,12.9,0,16.8-1.8.4-.2,1.2-1.2.9-1.4l-2.8-.9,3.7-2.8v1.7c.1,0,12.1-2.6,12.1-2.6l-5.1-2.6c-2.6,2.8-1.9,3.6-6,3.6,0-4.6,7.8-2.7,6.5-7.5l-3.7.9.5-1.9-5.5,1-1-1.9-3.3,1.9,6.8-9.9c3.8-2.5,6.9-9.5,10.1-2.3l2.7-.9-1.9,4.7h2.8l-.9,3.7,3.7,1c-.2,2.3-2.7.8-2.8.9-1.5,2.4,2.2,1.3,1.8,2.8-3.1,0-4.1,3.8-.4,3.4s9.4-2.7,13.1-3.3c13.1-2.2,25.3-7.4,36.5-9.1,19.4-3,35.6-7.8,54.3-12.8,2.4-.6,7.9-2.3,9.9-2.3,4,0,.9,8.5,4.1,10.2.1-3.7-1-7.3-1.7-10.9-.3-1.8,0-1.1,1.6-1.2l8.3,45.3-.8,3.2c-.1-2-.4-4.1-.9-6.1-.6-2.6-1.2-2.6-1,0,.7,10.6,5.7,19,8.7,28.6,3.6,11.6,6.3,23.7,10,35.3,3.9.7,0-4.4-.5-6.5-2-8.7-2.6-17-6.9-25.2,3.5-.6,5.2,2.8,5.6,5.6l.9-3.7,2.3.9c2.1,16.3,8.9,32.2,11.4,48.3.2,1,1,3.2-.7,3l-9.1-36.2-4-9.5c.8,7.8,2.8,15.4,4.4,23.1.2,1.1-.3,2.4,0,3.7,1.3,6,6.2,17.4,5.8,23.1,0,1.4-1.4,2.7-2.7,3.2,1.2-5.4-3.3-10.6-3.7-16.3-1.3-1.5-1,1-.9,1.8,5.3,26.6,17.1,51.6,23.3,77.9l1.8-3.7,16.8,73.2h-4.7l6.3,5.8,19.8,62.2c-.5,1-1.2,1.3-2.3,1.5-8.1,1.4-18,.3-26.1.9-18.3,1.5-36.7,4.8-55,6.5-9.2.8-10.8,0-19.8,2.6-2.5.7-6,.7-8.6,1.2l2.8,2.8-3.7.9,96-6.5c1.9,1.4-11.2,2.7-12.6,2.8-16.1,1-32.3.4-48.5,1.9-12,1.1-24.1,4-35.6,5.3-2.3.3-7.6-2.8-7.8,2.1l14.9-.9c.3,1.2-1.7,1.5-2.5,1.6-4,.7-8.7.6-12.7,1.3-4.3.7-12.6,3.7-16.7,2.7-.7-.2-.6-1.8-1.2-1.9-2.3-.1-5.8,2.2-7.6,2.5-2.1.4-10.5-1.2-10.6,3.1,4.7-2.1,4.6.7,5.3.9,5.5,1.4,6-1.7,6.3-1.7,21.8,1.3,45.1-2.9,67.1-2.9,5.9,0,11.9-.3,17.8,0,1.1,0,3.5-.7,3.2.9-12-.8-23.9,1.2-35.9,1.9-31.2,1.7-62.4,2.4-91.4,11.9-.4.1-1.5-.8-3.6.3-.8.4-3.8,3.2-3.4,3.6l1.6.2-.7,1.7,2.8.9-19.6,4.7c8.8.2,17.3-3,25.9-4.4,25.5-4.1,51.3-7.8,77.1-8.7,10.7-.3,22.9-.4,33.6,0,1.1,0,3.5-.7,3.2.9-32.4-.7-64.5,2.3-96.4,7.6-8.4,1.4-17.8,2.9-26,4.8-1.7.4-11.4,2.7-11.9,3-.4.3-1.2,1.2-.9,1.4,12.4-1.1,24.6-5.8,37.1-7.2,1-.1,3.2-1.1,3,.7-12.5,2.8-25.3,4.7-37.5,8.5-10,3.1-18.1,3.2-28.5,6.2-13.8,4-29.2,10.2-41.7,17-2.8.2-.8-1.1.2-1.7,4.2-2.8,10.1-5.7,14.7-7.6,8.1-3.4,18.9-6.7,27.7-9.6,1.3-.4,15.3-3.2,13.8-4.4-4.2,1-1.7-1.9-3.7-2.8.4,4.3-4,4.6-7.5,4.6l4.6-3.3-6.5-.5c0-1.4,2.3-1.5,2.6-2,.6-.9-2.5-5.9,1.1-5.9l-1.9-.9c.8-2.3,20.3-9.2,23.7-9.9,1.7-.3,5,.3,5.2.1.2-.2-.5-2.2.6-2.9,1.3-.9,5-.3,6-2.2l-1.8-2.8,4.7-4.2c-9.9,1.8-19.6,4.4-29.2,7.7-18.8,6.4-37.4,15.5-53.7,27.4-5.4,3.9-10.6,12.5-17.8,9.7l1.7,2.3c-10.8,12.1-22,24.6-26.5,40.6,0-4.7-.4-9.7-.2-14.4.3-8.8.9-10-.3-18.7-.7-4.9-.9-18.9,0-23.1.2-.8,1.9-.3,1.9-2,0-4.6-4.9-7.8-4.7-11.3.1-2.4,9.2-11.4,3.2-17.2l-3.3,2.8c-1-2.3,1.4-1.6,1.7-2.3.6-1.8.6-8.3,1.1-10.8-1.4-.5-.7,3.6-2.8,1.9-.8-.7-1.5-10.1-7.5-4.7v-1.7c-3.5,1.9-2.4-2.3-6.5-1.1.6,2.4.8,4.4,2,6.7.4.8,1.7,1,1.8,1.2.9,3.5-1.6,1.7-2.6,2.5-.3.3-.2,1.5-.6,2.2-.3.4-1.3.5-1.4,1.1-1.7,7.4,2.2,15.8,4.6,22.6,3.2.9.9-4.2,4.6-3.7,0,3-1.8,4.7-1.9,7.9-.4,7.5,4,18.8,3.7,25.2,0,1.2-1.3,2.1-1.4,2.7,0,.9,4.3,9.9,4.9,12.4.3,1.1,2,6.2.3,6.7-7.6-24.1-27.7-39.9-48.2-53-33.5-21.3-77-36.2-115.9-44.5-11.2-2.4-22.6-2.5-33.8-4.4-9.1-1.6-18.6-4.9-27.7-6.8-19.3-4-37-4-56.4-6.1.4,4.1,5.5,2.3,8.2,3,2.4.6,4.4,1.9,6.8,2.5l36,5,9.1,2.5-58.2-7.5-2.4,1.9,23.8,1.9,17.3,2.8c-14.3-.7-28.4-2.8-42.9-1.9v4.7c15.2.8,30.8-.8,46.2,0,13.2.6,29.7,2.8,42.7,4.8,8.9,1.4,30.3,7.8,37.3,7.3,1.5-.1,4.7-1,5.2-2.7-16-3.4-32.6-4.7-48.5-7.9-7.2-1.4-14.2-4.3-21.4-5.2l3.2-.9c44.1,9.1,88.4,14.2,130.1,32.2,14.4,6.2,27.6,15,40.4,21.9,2.1,1.1,3.4,1.2,3.5,1.3.8.6.5,2.5,1.5,3.4.8.7,3.4,1.3,4.9,2.3,4.5,3.3,8.7,6.7,12.6,10.7.7.7,2.5,1.8,1,2.8-20.8-14.5-44.3-32.6-68.5-40.6-46.3-15.2-120.8-26.1-169.3-24.8-3.6.1-9.3,3-11.6-.9,4.1-.4,9.4.2,13.4-.1,1.3-.1,5.7-.5,6.2-1.7h-30.3c-.8,0-5.1,2.5-5.1,3.3,0,3.4,7.5.8,9.6,1.4s-1.5,1,4.8.9c8.3,0,16.4-.8,24.7-.9l-7,1.8c-9.1-.5-18.6,1-27.1,1.8-2.9.3-5.9-.1-8.8,0-.8,4,5.3,1.7,5.6,1.9l-.9,3.7h7.5c-3.1,4.2-10.8-1.6-11.2,4.7h6.5c0,.1.6,2.9.6,2.9l14.4-1-11.2,2.8v2.8c29.2-4.2,58.7-5.9,88.1-3.7l8.9,1.8c-28.4-3-56.9-1.6-85,3.1-2.8.5-15.4,2.6-16.9,3.4-.7.4.1.9-2.4,2.5-2.8,1.8-5.6,3.6-8.4,5.4l3.1,1.4c.6,0,1.1-2,2.1-2.7,16.2-11.4,77.4-11.5,99.4-11.6,1.2,0,2.1-.8,2.6,1.3l-53.2,1.9.9,1.8-15.8,2.8c7.6.7,15.2-1,22.8-1,1.1,0,4.4-.7,4.2,1l-63.4,10.3c23.1-.8,46.4-6.4,69.5-8.4,8.6-.7,18.5-1.3,27-.9,1.1,0,3.5-.7,3.2.9-13.8.3-27.7,1.4-41.5,2.8-19.1,2-43.4,7.9-61.6,8.4-1.3,0-2.1-.6-3.2-1l.9,3.3,6.5,1.4c-4.9-.5-8,3.9-13,2.8-.4-1.5,1.6-.4,1.9-1.5.4-1.6-.2-4.1,0-5.9-.7.9-2.4,7-2.8,3.3h0ZM628.9,104.7c4.8,1.2,9.5-1,14.2-1.6,1-.1,3.2-1,3,.7l-18.1,3.6c-2.7-1.5-1.6-4.8,1.3-4.5l-.5,1.8h0ZM617.2,116.3c2.4,2.2,4.1,2.3,3.3,7-.8,4.9-5.8,4.6-9.5,6.3l-5.4-4.6c-3.4-.3-7.1,5.9-11.1,4.7l-5.7-9.2c-3.4,2.8,1.2.9.5,3.2l-3.3,4.2-.9-2.8-4.2.9.9,1.8-2.7,1c1.2-2.7-.3-3.4-1.3-5.5-.7-1.5,1.4-1.5-3.3-3.3,0-3.7,6.4,1.9,7.5,1l3.7-10.8c1.8,0,.7,3,.9,4.2.5,3.9,5.8,1.9,2.9-3.3l2.5,2.8c3.1,1.2,5.5-.7,7.3-.6,3.9.2,8.7,4.4,8.9-4.1,1.8.8,2.6,4.3,4.7,5.2,1.7.7,3.4-.6,3.6-.4.2.1.4,1.7,1,2.2h0ZM702.4,112.8c1.3.6,2.8.1,4,1.2s1.5,5.1,3.2,6.6c-4.5,2.2-7.6,2-12.1,0l2.8-9.3h1.8c.1.1-.1,1.4.3,1.6h0ZM325.4,141.5l-1.9.5c2.2,9.3-2.3,10-1.9,0l-2.8.5,3.3-6c1,.2.1,1.8.7,2.5.7.9,2.8.7,2.6,2.6h0ZM228.4,179.7l3.7-20.1c.6,8.5-2.9,16.6-2.8,25.2l-.9-5.1h0ZM221,203.1c.7-8.9,5.4-17.5,3.8-27l-2.9-.5v-2.8l3.7-.4,3.7-9.9-7.5,43.8c-1.6.2-1-2.2-.9-3.2h0ZM121.3,544.4c-1.5.2-3-.7-4.1-.4-3.6.9-4.3,9.2-3,9.2,2.7.3,0-1.9.6-4,1.3-4.4,6-1.4,8.7-1.5,3.6-.2,7.6-1.7,11.2-1.9,9.1-.6,18.4-.2,27.5-.9.2,1.4-2.4,1.7-3.3,1.8-10.9,1.1-27.2.3-37,2.2-1.7.3-3.1.4-2.5,2.5,2.1,0,4,1,6.1,1,14.1,0,31.4-4.3,45.7-5.7,27.7-2.6,57.2-5,84.9-6.3,2.5-.1,5.3.2,7.9-.2l-.9,1.8,12.6.9c1.7.2-.6,4.3-1.9,4.7l1.4-3.7h-7.5l1.9,1.9c-.9,2.7-5.3.4-7.5.9,0,1.9-.5,1.8,1.3,1.7,3.6-.2,7.2.3,10.8.1l-2.3,5.6c-1.6,2.2-29.4.8-33.6.9-17.3.4-34.8,2-52.2,1.9l-79.7,6.6,9.1-35.2-1.6-.2c-.2-2.3.9-6.6,1.9-8.7,1.9-4.1,2.1-3.7,3.2-8.1.8-3.1,2-6.1,2.4-9.3l.8,4.1-6.4,32.7c-.6,2.6,7.2,5.6,7.4,2.8.1-1.6-3.3-2.9-3.6-3.9-1.1-3.4,4.6-25.3,5.9-30.2,4.4-15.9,12.1-32.8,14.2-49.2.1-1,1.1-4.1-.7-3.9l-5.6,24.2c-1.7.2-1-3.2-.8-4.1,1.2-6.8,4.5-14.8,6-21.9,2.3-10.5,2.7-21.4,6.7-31.6l25.5-150.3c1.8-.2.7,2,.7,3-1.4,15.6-5.4,31.5-8,47-8.2,50.2-15.9,100.6-24.6,150.7-.6,3.5-1.9,7.2-2.4,10.6-.1,1-.8,3.4.8,3.2,2.6-8.9,3.1-18.6,5.7-27.4,6.3-21.6,8.9-31.5,12.1-54.1,1.3-9.4,4-19.6,4.6-28.9,0-1.1.8-5.1-.9-5.1l-9.6,63.6-4.4,18c-1.3,1.5-1-1-.9-1.8,1.7-8.2,3.9-16.3,5.3-24.6,7.6-48,14.1-94.7,25.2-141.7.9-3.9,1-8.7,2.2-12.8.5-1.7,2.7-3.3,1.3-4.3l-3.3,1.9c-.5-3.6-.1-4.2,2.6-6.2l4.9-22.7,1.8,4.7c-.8-3.9,1.8-8.2-.9-11.2h2.8c-1.7-7.1,1.6-15.7,2.7-23,.6-4-.1-8.5,1.1-12.5l1.8.4c-3.1,3.8,3.2,5.6-.9,6.7-.7,18.9-5.5,37.5-9.1,56.1-1.4,7.4-2,15.1-3.7,22.4-.8,3.6-1.6,11.8-5,12.3,1,2.9,2.9-.4,2.7,2.2-.3,4.3-2.7,5.5-2.8,5.8-1.9,24.8-6.4,56.4-10.4,82.6-7.6,48.9-23.6,96.4-32.4,144.8-.3,2.6,1.3.8,1.7-.1,5.4-11.8,5.9-27.1,8.8-39.7,2.8-12.7,7.9-23.8,10-36.2l.8,4.1-10.2,49.5.9,1.8,6.5-32.2c2,.8,0,5.2,0,7,0,1-.6,3.5,1,3.3l3.8-23.6c6.5-6.3,4.3-17.7,5.5-24.3,0-.3,3.5-2,1.9-5.3l-1.4,2.8-1.4-2.8-4.7,24.2c-1.8-.6-1-5.4-.8-6.9,2.3-21.2,9.5-45.4,13.6-66.6,3.6-18.7,6.4-37.7,9.5-56.5l2.9-1.1c.4-2.5,0-5.4.4-7.8,5.9-36.9,13.9-73.7,20-110.6,1.1-6.7.8-13.5,2.9-19.9,1.7,1.3,4.8-1.1,4.7,1.4-.9,13.4-5.3,35.2-7.7,49.2-1.6,9.7-5.9,18.7-7,29.4-.1,1-1.1,3.2.7,3,3.7-17,7.7-34,10.9-51.1,2.7-14.6,2.4-30.9,9.2-44,1.9-.8,1.2,3.8,1.1,4-.6,2.7-2.4,2.5-2.5,3.2-.8,3.6.2,10.1-.9,14.3l2.4-6.5c-1.2-4.3.6-2.7,1.3-5.2l-1.9.5c-.7-2.6,1.3-2.7,2.3-4.7,1.5,1.1,1.5,2.6,1.5,4.2,0,8.4-1.8,17.4-3.2,25.8-1.6,9.9-4.1,19.7-5.7,29.7l-1.4.4c.1-3.7,1.6-7.6,1.9-11.2,0-1,.7-3.5-.9-3.2-2.7,15.9-5.4,31.9-8.7,47.7-1.1,5.2-3.1,10.5-4.1,15.4-.2.9-1,4.1.7,4l4.7-17.7c1.7-.2,1,3.2.8,4.1-.8,4.8-3.3,10.1-4.3,15.3-7.7,39.6-16.2,78.3-25.2,117.5-.9,4.1-.9,9.1-2.1,13.3-2-.8,0-5.2,0-7,0-1,.6-3.5-1-3.3-3,30-11.1,59.2-12.1,89.5,2.6.7,2.2-2,2.8-3.7,4.6,1.8,8.4.5,13,0l-10.8,3.6-.9,2c9.8-1.6,19.4-4.6,29.1-6.3,4.1-.7,8.8-.7,12.7-1.3,15.5-2.5,32-6.2,47.7-7.3,1,0,4.3-.7,4.2.9l-50,7.4c-2.1.4-4.3-.2-6.4.2-8,1.4-32.6,5.9-38.6,9-1.3.7-2.5-.4-2,2.2,8.3-1.6,16.9-1.7,25.4-3,28.6-4.4,57.1-11.4,86-13.7,5.8-.5,19.1-1.7,24.2-.9,2.5.4,4.2,2.3,6.6,2.7,8,1.3,17.8.9,26,1.9,39.5,5,97.7,17,126.6,45.7.5.5,1.9,2.6,1.6,2.8l-22.4-16.2c-59-32.4-129.3-35.9-195.1-26.5-6.9,1-14.1,3.3-20.9,4.3-24.5,3.4-49.2,6.7-73.9,5.8v3.7c16.6-1.1,33.3-1.7,49.9-3.3,4.1-.4,7-.1,10.2-.4,17.2-1.4,32.9-9.8,49.9-7.5l-.9-2.8c5.1.2,10.5-1.6,15.4-1.9,50.4-3.1,139,4,177.6,39.6.8.8,4.7,4.1,3.7,5.1-4.2-3.3-9.3-7.3-14.1-9.7-5.6-2.8-4.4,0-8.8-5.1-1.8-2-20.6-9.8-24.4-11.1-39.1-12.8-70.5-13.5-111.7-12.3-1.4,0-2.8.8-4.2.9-.5-2.8.8-1.5,2.2-2,2.1-.7,4.2-1.1,6-2.4,18.9-2.5,38.9,1.5,58,2.5l-11.8-2.7c-19.9-1.7-40.1-3.2-60-1-.3.3.5,2.6.9,3.1,1.1,1.4,3.6-.6,2.8,2.5l-2.8-.5-8.4,1.4h17.2s11.7,1.9,11.7,1.9c-12.2.5-24.6-.6-36.8,0-28.8,1.6-57.7,6.9-86.7,8.4-12,.6-24.2.7-35.9,0v2.8h18.6c.3.3-1.2,1.9-1.4,1.9h-15.8c-1.3,0-5.1,2-7,1.9-.2,1.4,2.4,1.7,3.3,1.8,9.4,1,19.8-1.3,29.8-.8,1.1,0,3.5-.7,3.2.9-11,.2-22.1.6-33.1.9-2.6,0-7.6,2.7-7.9-1.4,0-1.4,2.1-4.8,0-5.1-1.8,4-.8,9.4-3.7,12.6,0,2.6,9.9.2,12.1,1.4l-6.5,1.9h25.2v.9c-10.1.6-21.2-.9-31.2,0-.6,0-2,1.3-3.2,1.5h0ZM171.6,264.6c.4-3.2,2.3-7,2.5-9.5,1-14.3,2.5-29.3,6.1-43.5.3-1.3,2-7.2,3-7.2,2.2,1.4.9,2,.8,3.5-.5,7.3-2.1,19.2-3.6,26.3-1.6,7.6-2.5,8.8-3.3,17.1-.2,2.2-3.7,9.2-4.4,12.4-.4,1.9-.2,3.9-.2,5.8-1.7,0-1-4.1-.9-5.1h0ZM730.3,218.8c0,1,1.2,2.1,1.3,3.2.6,4.8,1.7,9.4,2.1,14.2l-6.3-22.1c.1-2.2.6-4.4.5-6.6,0-1.6-1.6-5.1,2-2.9,2.4,1.4.1,11.9.4,14.3h0ZM778.6,352.2c1.3,7.9,1.5,16,3.2,23.8,9.8,45.6,23.7,90.6,32.4,136.3l10,34.2c-.4.4-9.7-2.6-11.6-2.8-6.3-.7-17,0-24.2,0-14.1-.2-28.3.2-42.5,0l1.4-1.9h69.5c.4-2.5-.4-3.4-2.8-3.7l2.8-.9c1.2-1.8-8.1-6.5-10.2-6.5l3.3-2.8-1.1-1.7c-9.6-.3-19.2-1.5-28.7-2-6.7-.4-13.9.6-20.5,0-3.7-.3-8.5-.5-9.8-4.2,5.3-.5,11-.9,16.3-.4,7.3.6,13.6,2.9,21.4,2.8,4.5,0,8.4.4,12.5-2.1,1-1.1-1.5-7.8-1.8-8.1-.8-.6-3,.4-4.3-.4-.5-.3-.7-2.4-2.9-3.1l-32.7-1.3c.6-1.7,5.5-1,7-1,2.6.1,5,.9,7.4,1,7,.2,14.1-.5,21,0,.3-4.2-3.5-2.6-3.7-2.8-1.6-2.1,2.7-1.7,2.8-4.1,0-1.9-1.6-10.1-2-12.9-.6-3.8-1.2-8.1-1.9-12.1-.9-4.9-2-9.9-3.5-14.7-1.8-.2-.7,2-.7,3,1,10.6,4,20.9,5.3,31.5l-3.2-2.8c-16.9.1-33.5-.5-50.4-.9-1.8,0-3.6-.9-5.6-1-33.7-.7-67.3,1.7-100.6,6.7l-.6,2.6-9.3-.9c.3-1.8,1.9-1.5,3.2-1.9,18.9-5.2,55.2-7.4,75.5-8.4,28.6-1.3,57.7,2.7,86.3,1.9,1-1.8-3.9-3.4-4.2-3.4-.6,0-1.9,1.5-3.7,1.6-10.1.3-20.3-1.1-30.4-1.9l3.7-3.7-10.2-1c-.2-1.6,2.2-1,3.2-.9,2.7.2,5.6,1.3,8.4,1.4,1.5,0,3.1-1,4.6-.9,8,.4,15.8,1.9,23.8,1.4l-4.7-22.4-3.7-.5,2.8-.5-.4-4.7-1.1-.7-83.3,3.6c0-1.4,3.4-1.6,4.3-1.7,8-.8,17.8-1.5,26-2,20.6-1.3,41.6.6,61.4-5.5,1.4.3,3.2,5.7,3.8,7.3,5.6,16.3,7,33.5,10.3,50.3,2.2,2,1.2.4,1-1-1.1-9.4-3.6-19-4.3-28.4,0-1-.8-4.3.9-4.2,2.7,9.6,4.1,19.6,6.6,29.3.9,3.2,5.2,18,6.4,19.7.6.8,2.1,2.3,2.8.9-4.8-9.3-9-22.3-10.1-32.8-.1-1-.8-3.4.8-3.1,2.1,9.3,4.1,19.4,7.7,28.2.3.8,2.9,8,4.4,6.3l-76.4-284,.8-3.2,10.8,35.4,23.7,57.8c-1.2-7.5-3.5-14.8-5.4-22.1-.4-1.7,0-3.5-.5-5.1-1.5-6.1-3.6-13.6-5.8-19.3-.3-.7-.4-2.9-1.4-1.4.7,4.4,2.8,8.9,3.5,13.3.2,1,1,3.2-.7,3-3.3-11.7-5.5-23.6-9.1-35.2-4.2-13.7-11.1-26.6-13.3-40.7,0-1.1,1.2,0,1.4.4,2.2,3.9,4.8,11.4,6.5,15.9,8.3,22.4,17,48.6,23.5,71.6,4.4,15.4,7.4,31.3,11.5,46.8l-2.8-2.4h0ZM741.5,246.6c-2-8.4-6-16.5-5.9-25.4l11.4,31.9,7.2,27.7-12.8-34.3h0ZM169.2,251c-.6,2.6-.4,7.7-1.3,9.7-.5,1.2-2.3,0-2.9,1.2-1.5,3.4-.5,8.3,0,11.8l-3.7,15.5,1.9-15.4-1.9,1.4c2.6-13.9,6.7-28.2,10.9-41.8.5-1.6-.4-2.5,2.1-2-1.6,6.5-3.7,12.9-5.2,19.5h0ZM172.8,328.3c.6-6.7,1.6-14,2.6-20.7,3.5-23.6,9.5-46.8,12.5-70.5,1.5,1.3,1.4,4.1,1.2,5.8-1.8,14.9-6.2,29.6-8.9,44.4s-4,29.5-6.8,44c-1.8.2-.7-2-.7-3h0ZM127.4,485.3c12-62,18.4-125.3,32.7-186.7.9-3.7,3.5-8.9,4.5-13,1.9-7.7,2.9-15.6,4.6-23.3.2-1,0-3,1.4-2.8l-9.6,56.1c-11.9,46.1-14.7,94-25.2,140.8-2.4,10.5-6.3,20.6-7.2,31.5l-1.3-2.6ZM748,312.9c-1.7-4.2-4.2-12.5-5.3-17-2.5-9.8-3.8-20-6-29.8l10,33.3c-.6,6.2,2.8,11.2,3.9,17-1.6-.4-2-2.2-2.6-3.5h0ZM749.2,302.4c-1.3-9.4-6.1-18.5-6-28l5.1,13,7.9,31.7-7-16.8h0ZM749.6,322.4l1.9-.9-1.9-3.3c2.3-.4,2.5,1.4,3.1,3,2.2,5.6,3,13.4,3.4,19.4l-6.5-18.2h0ZM765.9,385.4l.5-4.7,3.8,13c1.5.3,1-1.3.9-2.3-1.1-10.7-7.2-22.9-7.5-34l3.3,9.3c1.9,9.3,3.8,18.5,5.8,27.8,3.7,17.4,8.7,31.6,13.1,48.5,1.7,6.7,3.2,13.8,4,20.7l-23.8-78.3h0ZM132.4,438.9c0-11,3.6-22.2,5.4-32.9,2.2-13.8,3.8-27.7,6.1-41.5.1-.8.4-2.8,1.6-2.6-2.6,26.9-8.8,53.4-12.1,80.2l-.9-3.2ZM117.2,378.8c-.3.4,0,1.6-.2,1.9-.7.9-2.5-.2-3.2,1.3l1.8,2.3-10.7,5.6-1-2.8,6.1-8.3-2.7-.3c-4.3,5.3-14.8,1.7-6.2-1.7,4-1.6,9,.9,8-3.6l5.8,1.6,7.2-3.5c.7.8-4.1,6.4-4.9,7.5h0ZM773.2,389.2l-2.1-15.1,3.4,12.9,2.1,15.1-3.4-12.9ZM124,386.8c-2.1,1.1-4.5-1.7-1.6-3.5,3.5-2.2,5.6-4.8,9.1-6.3l-7.4,9.8h0ZM793.5,398.4l1.9,10.7-1.9.5v1.8c2.9-.3,1.5,2.7,2.3,4.7,2.4,5.9,3.4,8.6,4.9,14.7,5,20,8.8,40.5,12.4,60.8l-9.3-42-1.8,3.7-12.8-55.7.7-3,1.9,8.4,1.8-4.6h0ZM826.1,399.3c1.4,3.1,5.9.4,8.4.9,0,1.2-3.9,2.3-4.6,2.4-2.3.3-3.9-1.5-5.6-2.9l8.4-2.3-6.5,1.9ZM785.8,437.3c-4-10.7-5.5-23.6-10-34.3,2.1-.4,2.2.9,2.8,2.3,4.2,10.4,5.9,24.1,9.3,34.9-1.6-.3-1.7-1.8-2.1-3h0ZM176.5,418.7c.4-2.9,1.3-6.3,2.1-9.1.4-1.5.9-5.1,2.3-5.6l-3.7,19.6c-1.9,0-.8-3.8-.7-4.9h0ZM68.4,417.4c-.4.4-.3,1.5-.7,2.1-.5.7-1.9-.2-1.5,1.3,2.4-.3,2.4,2.8,2.8,4.7l-10.3,1.9c.3-3.3,4-4.4,5.4-7.2,1.2-2.4,1.9-6,1.1-8.6h8.4c-.3,2.6-3.7,4.1-5.2,6h0ZM80.3,421.6c1.8.2,3.2-.7,2.7,1.9-3.1-2.2-6.7,2.1-7.9,1.9-1.6-.3-1.1-1.4-.7-2.5s4.5-7.4,5.7-5.9v4.6h.1ZM169.2,448.7l4.2-23.3c.1,8.9-2,17.5-3.7,26.1l-.5-2.8ZM50.8,431l.5,1.9-13,5.6,6.5-3.7-2.3-1.9,3.8-2.8.6,1.7,4-.7h0ZM70.9,439.4v2.7c0,0-7.5,0-7.5,0,0-3.1,4.6-4.1,2.8-7.4,3.9,1.8,5.6-2.7,6.2-2.8.7-.1,2.9.8,4.1.4l.9,7.9c-2.8-1.1-3.9,2-6.5-.9h0ZM109.6,445.9c-4.5-2.3-3.8-4.2-2.3-8.4.8.6,3.2,1.6,3.5,2,.2.3.1,6.2-1.2,6.3h0ZM769.7,459.9l1.4,4.7c-1.6-1.7-5.1-2.5-6.5,0,4,.3,7.8,2.2,8.4,6.5-3.1.9-4.9-2.1-7.2-2.6-5.8-1.3-10.7.4-16.1-4.9l16.4-3.6,3.2,1.8.5-1.9h0ZM418.2,509.3l-15.4-7.5.9-1.8c-10.4-3.6-19.8-9.4-30.3-13.1-42.5-15-93.8-23-139-21.5-6.4.2-13.9,1.5-20.4,1.9-1.3,0-5.8.7-6.1-1,9.5,0,19-2.4,28.4-2.8,18.7-.8,40.8,1.6,59.5,3.8,43.3,5.2,83.7,15.4,121.6,37.3l.7,4.5h0ZM726.8,463.6h2.4c-1.5,2.8-6.8,1.6-9.8,1.9-1.2.1-2.5,1-2.8,1h-13.5l23.8-2.8ZM122.5,492.4c1.1-5.8,1.7-11.8,2.9-17.6l2.4-7.4c0,10.7-4.4,20.9-4.7,31.7-5.2,1-1.2-3.7-.6-6.7h0ZM762.2,477.6c-11.1.5-22.1-1-33.1-1.4,12.1-1.4,24.3,0,36.4.5.2,1.6-2.1.9-3.2.9h0ZM384.1,484.7l-15.8-7c6.6.9,12.3,4.6,18.6,6.5l-2.8.5h0ZM317.5,483.2c-9.9-.6-19.9-2.1-29.9-2.8-9.3-.6-18.7-.6-28-.9-1.1,0-3.5.7-3.2-.9,22.8-1.1,45.4,2.5,68.1,3.7-.6,1.7-5.5,1-7,.9ZM394.2,502.7c3.9,1.9,9.2,2.8,12.8,5.7l.6-1.6,2.6.7c.6,1.3-2.9.8-1.8,1.8,1,1,16.5,5.9,19.8,7.7,3.2,1.8,18.3,14.4,19.3,17,.2.4,0,.9,0,1.4l-4.6-1.4,13,11.2.9,4.2c-1.4,0-1.2-1.8-2.3-2.8-7.1-6.4-22-16.3-30.4-21.8-32-21-70-32.4-108.1-36-.2-1.7,3.1-1,4.2-.9,6.5.5,14.6,1.9,21.2,3.1,28.9,4.9,56.5,15,81.4,30.5,2.8.2.7-1.1-.2-1.7-4.3-3.2-12.8-7.9-17.7-10.3-10.1-4.8-26.2-12.2-36.5-15.8-13.2-4.6-29.3-7.5-43.1-9.6-.2-1.6,2.2-1,3.2-.9,12.5.9,27.9,4.1,39.9,7.7,4.9,1.5,13.8,4.5,18.2,6.6.9.4,6,4.4,7.6,5.2h0ZM310,487.9l-17.3-2.8,22.4,1.9-5.1.9ZM632.4,486.7c-11.4,2.4-23.3,3.6-34.7,5.8.7-1.8,4.6-2.1,6.3-2.5,10.2-2.2,20.7-3,30.9-4.9.2,1.3-1.7,1.4-2.6,1.6h0ZM175.3,496.3l29.5-5.5,33.9-2.9-63.4,8.4h0ZM315.6,491.7c-9.6-2.4-19.2-1.4-28.9-1.9-2.2-.1-4.2-.9-6.4-1-4.3-.2-8.7.2-13.1,0-1.1,0-3.5.7-3.2-.9,20.6-.9,41,1.2,61.5,2.8l-9.8,1h0ZM310.9,493.5c-5.2-1.3-10.6-.6-15.8-1-1.3-.1-5.6-.4-6.1-1.8l25.2,1.9-3.3,1ZM710.1,497.3c18,.1,35.9,1.9,54,2.8l8.9,1.8c-10.8,1-21.5-1.2-32.2-1.8-57.8-3.3-107.3,1.8-163.6,14.4-9.1,2-17.9,5.3-27,7l11.2-4.2c30.4-8,60.5-14.5,91.9-18.2,3.7-.4,24.2-3,25.4-2.5,3.8,1.6,24.3.6,31.5.7h0ZM826.8,547.3c-2.6-10-4.5-19.2-6.5-28.9-1.5-7.3-4.2-14.6-4.5-22.1,1.3-.2,1.3,1.6,1.6,2.6,2.1,7.5,3.3,15.7,5.4,23.5,2.1,7.8,7.5,20,8.7,26.8.4,2.2-1,5.1.2,7.7-5.5.6-4-6.2-4.9-9.6h0ZM718.4,502.8c-12.7.5-25.6.2-38.3.9-14.4.8-28.8,3.7-43.3,2.8l10.7-1.8c17.1-1.4,34.3-2.7,51.2-2.8,7.6,0,15.3.1,22.9,0,.2,1.6-2.1.9-3.2.9h0ZM778.6,505.6c-2.2,1-5.7-.9-7-.9h-17.2v-.9c6.5.4,13.6-.5,20,0,.6,0,5.3,1,4.2,1.9h0ZM737.1,505.6c-5,.2-10,0-15,0-1.6,0-3.1.8-4.6.8-42.1.9-79.3,4.2-120.9,11.6-18.8,3.4-37,9.2-55.7,12.8,1.2-2.1,5.2-2.6,7.5-3.3,5.4-1.5,17.4-2.6,21.5-4.6.4-.2,1.2-1.2.9-1.4l-26.6,5.6c-1.5-1,.7-1.2,1.4-1.4,12.1-3.8,25.6-6.9,38-9.5,27.9-5.8,57-7.2,85.5-9.6,4.4-.4,9.6-1.7,14-1.9,18.9-.9,38.4.7,57.4,0,.2,1.6-2.1.9-3.2.9h0ZM456.9,537.8l-1.4.5c-5.7-4.4-10.4-10.3-15.9-14.9-6.1-5.1-12.7-8.2-18.7-13.1l.5-3.7c2.1.5.8,2.4,2.2,3.7,2.1,1.9,6.4,3.4,8.9,5.2,4.2,3.1,8,6.6,11.9,10.1,4.1,3.7,8.2,8.6,12.4,12.3h0ZM691.4,510.3l-1.4-1.9c11.3.3,22.7-.3,34.1,0,8.4.2,17.7,1.7,26,1.9,12,.4,26.8-1.4,38.3,0,1.4.2,2.9.2,3.2,1.9l-100.2-1.8h0ZM644.3,513.1l16.3-2.8,17.2-.9-33.6,3.7h0ZM564.6,512.2c-9.8,3.1-19.9,5.9-29.4,9.8-13,5.3-25.4,12.4-38.2,18.2,1.1-2.1,3.8-3.7,5.9-4.8,8.3-4.6,18.9-9.8,27.7-13.3,11.7-4.7,25-9.1,37.3-11.7.1,1.3-2.2,1.6-3.2,1.9h0ZM798.1,518.7c-3.8,1.3-7.8-1.7-10.8-1.8-21.1-.9-42.9-2-64.3-2.8l-40.6.5c6.9,0,14.3-1.2,20.9-1.4,31.2-.9,62.5.9,93.6,1.1l1,4.5ZM668,516.7c-18.4,2.7-37.3,4-55.8,5.7l-47.1,7.4,24.1-5.3c27.4-5.1,55.4-6.5,83.1-9.6,0,1.4-3.3,1.6-4.3,1.7h0ZM290,517.7l3.7,1.4-3.6,2.7c-15.4.8-30.9,1-46.3,2.4-19.8,1.8-39.2,6.5-59.2,6.5l55-6.5-8.4-1.8c7-.3,14-1,20.9-2,3.3-.5,6.9-2.1,10.5-2.6,10.4-1.4,21.6-.9,32.1-1l-4.7.9h0ZM249.3,519.5c-10.5,1.6-21.4,2.2-32,2-.2-1.6,2.1-.9,3.2-.9,11.7-.4,23.3-2.3,35-2.8-.6,1.3-4.7,1.5-6.2,1.7h0ZM709.6,523.3c-.3,1.8.7,2.5,2.3,2.8,5.7,1,15.1-.4,21.5,0,20,1.1,39.5,2.7,59.7,1.9l9.7,1.9h-41.5c-15.1-3.5-34,.2-48.5-1.8-2.2-.3-2.7-1.4-4.6-1.9l.5,2.8c-4.3.7-8.9-.8-13-.7-3,0-4.2,2.2-7.1,2.6-6.8.9-16.7-1.1-24.2-1-22.9.5-49,4.5-71.8,7.6-25.6,3.5-53,7.4-77.8,14.5-6,1.7-13.2,5.2-18.4,8.7-.9,2.2,1.4.4,2,.2,1.7-.6,3.3-1.4,4.9-2v1.8c-2.8,1.3-6.2,3-8.4,5.1-1.7,1.6-6.4,6.8-4.6,8.9-3.9-.4-6-3.6-9.6-4.8-6-2.1-13-1.7-19.3-1.7l7.9-1.8h7s-3.7-3.3-3.7-3.3c-.5-2.1,15-26.8,17.7-29.8.8-.8,7.4-6.8,7.9-7,.4-.2,1.5-.2,1.4.5-8.4,8.3-15.9,14.1-18.4,26.4-.1.7-.7,3.1.7,1.6,1.4-5.2,4.2-10.1,8.4-13.5-1.5,4.6-5,7.5-6.7,12.4-.3.8-2.7,11.1-.5,6.9.7-1.2.8-3.1,2.6-3.5l.9,3.7c1-5.1,2.8-9.4,7.5-12.1.2,2.7-9.2,9.2-1.9,7.9-2.1,2.3-2.6,5.6-3.8,8.2-.4.8-1.6.7-1.6.8-1.4,2.9,3.1,2.8,4.5.3l-1.9-1.8c1.8-1.3,2.5-3.8,4.4-5,27.8-16.7,60.8-17.8,92-21.8,17.9-2.3,35.8-6.3,53.7-6.4l-4.7-1.8,43.8-1.9-.5-3.7-27.9,1.9c-35.8,2.4-70.5,6.6-106.2,12.2-11.4,1.8-22.6,5.2-33.2,9.7-4.1,1.7-14.9,5.1-14,9.8l-3.7-1.4c2.8-2.2,5.6-4.4,8.7-6.2,31.9-19,93.3-22.1,130.7-26,28.4-2.9,56.6-7.2,85.3-5.6-1.5,5.7-2.3,6.3-8.4,5.6h0ZM728.2,523.3l3.3-4.5c4.2,1,9,.2,11.6,4.5h-14.9ZM274.5,528.9c-29.6,2.6-59.1,5.6-88.5,6.6-19.1.6-38.3-.6-57.4,1.8l1.4-1.9,62.5-1.9,75.5-5.6c14.2,1.3,30.9-1.6,44.8,0,1.4.2,2.9.2,3.2,1.9l-41.5-1h0ZM391.6,537.3c7.4,1.3,14.8,3.2,21.9,5.6.3.1,6.5,2.4,2.8,2.8-33.7-11.9-70.8-12.3-106.4-12.1l-13.4-1.9,61.1.9,33.1,4.6-13.6-3.6c-16.6-2.7-33.8-.4-49.8-5.2,17.2-.2,35.4,1.5,52.4,4.5,5,.9,9.6,3.1,14.7,2.5l-2.8,1.8h0ZM415.6,540.8c-3.5-2-7.6-2.7-11.2-4.7l-28.7-8.1,32.6,7.1c.6,1.4,12.3,5.6,10.2,7.8-1.3,1.4-2.1-1.6-3-2.1h0ZM591.1,532.6l20-3.7,21-.9-41,4.6h0ZM657.3,535l22.9-2.3.4,1.8c-2.2-.8-23.3,2.2-23.3.5h0ZM711.4,533.6h-22.8c-1.2,0-3.5,1.4-5.1.9,0-.6,1.2-1.9,1.4-1.9h26.6v.9ZM776.3,537.3c-12.7,1.4-28.5-2.1-41.5-1.9l4.1-1.9,40.6,1.9c-.4,1.7-1.8,1.7-3.2,1.9h0ZM381.9,541c-27.2-3.7-54.8-2.8-82.1-5.6-45.9.9-91.2,5.9-137.1,6.5-1.9,0-4.2,1.2-5.4,1-.6,0-.5-1.7-1.2-1.9-1.4-.4-13.4-.7-13.4-1.4,6.6.2,15.6-2.3,21.6-.4.7.2.7,1.6,1.4,1.8,8.8,2.1,37.5-2.1,48.3-2.8,50.4-3.3,98.6-5.2,149.2-.9,6.7.6,13.2,2.8,20.1,1.9,0,1.5.5,2-1.3,1.8h0ZM640.1,537.3c-15.8-.6-31.3,3.8-47.1,3.7.6-1.4,4.7-1.5,6.2-1.7,18.7-3,37.2-4.7,56.3-3.9l-15.4,1.8h0ZM802.5,537.2c-.9,0-4.4-.4-4.3-1.8,4.2.7,11.2-1.9,14,1.8-3.2-.7-6.6.2-9.6,0ZM680.2,541c-7.2,1.3-13.5.5-20.5.9-38.9,2.5-79.8,9.3-118.1,16.1-11.9,2.1-23,7.5-35.2,8.1l10.3-5.1c15.1-7.2,31.4-8,47.5-11.2,16.1-3.2,31.3-7.7,47.1-8.9,1,0,4.3-.7,4.2.9l-71.8,13.1c-.2,1.6,3.2,1,4.2,1,22.2-1.3,46.5-11.1,69-13.1l52.1-3.9,2.5-2.7c.5,4.8,6.8,2.2,10.3,2.8.2,2.4.1,1.5-1.4,1.8h0ZM692.4,538.6l18.1,2.5h-28c1.8-3.3,6.8-.5,9.9-2.5h0ZM105.8,555.1c-.7,1.3,0,2.3-2.3,1.8l6.5-15.8c-.4,4.4-2.1,10.2-4.2,14h0ZM406.5,550.3c15.3,4.5,30.7,7.8,38.2,23.3l-8.4,2.8,5.6-3.7c1.1-1.2-2.7-3.5-3.3-3.7-2.8-1.2,0,3.3-.5,3.7l-3.7-.9.5,2.8-2.8,1c-4.4-8.2-15.7-11.9-24.6-13.7-5.6-1.2-9.8-.2-13.5-.6-10.3-1-21.7-3.3-32-3.5-8.5-.1-20.4,2.5-28.9,1-1.6-.3-2.6-1-2.3-2.8l3.7-.9-14-1c-.2-1.2,1.5-1.4,2.5-1.8,8.4-3.5,12.8-1.1,21.3-1,11.9.2,24.3-1.1,36.3,1l9.8-1-42.4-2.8c-11.2-.7-22.5.6-33.6,1-1.4,0-17,.7-13.6-2.8,6.6,2.1,13.6.3,20.3.3,20.2-.2,40.1,1.2,60.3,1.6,2,0,5,2.3,6.1-.9-.9,0-1.7-.5-2.6-.7-13.7-2.6-36.6-2.1-50.9-1.8-3,0-8.4,2-11.2.6-6.7-3.3-13.4-.6-21.6-1-1.4,0-3.7.9-3.2-1.4,1.1-1.7,2.5-1.3,4.1-1.5,6.7-.6,13.9.7,20.4.6,14-.2,28.2-1.7,42-1.2,15,.6,29.8,3.2,44.4,6.2l-2.8,2.8h0ZM641.9,547.6l-15.7,1-24.8,5.5c22.1-2.4,44-7.7,66.2-5.6.2,1.4-2.4,1.7-3.3,1.8-11.2,1.2-24,.9-35.3,2-25.8,2.5-52,9.3-77.4,9.3l-20.1,1.9c.7-1.8,4.6-2.2,6.3-2.5,6.6-1.3,13.4-1.3,20-2.4,21.7-3.5,44.9-9.7,66.6-11.8,9.3-.9,19.8-.3,29.3-1l-11.7,1.8h0ZM758,546.6h-29.8v-.9h29.8v.9ZM825.2,553.2l-59.7-3.3c10.3-.5,20.9-.9,31.3-.5,4.1.2,8.8,1.7,13,2,3.7.3,9.3-.7,13.3-.4.3-3.9,3.1,1.1,2.1,2.1h0ZM240.1,563.4c-5.7.2-10.6-.9-15.8-1-25-.5-49.8,2.7-74.6,2.9-1.3,0-2.5.5-3.7.9v-2.9c0,0,1.8-.9,1.8-.9l155.3-6.5v-5.6h6.9c1.2,3.3,2.2,5.7,3.3,9.3-7.2.5-14.5-.3-22,0-13.6.6-32.2,3.8-45.1,3.3-1.5,0-2.4-1.4-4.2-1.4-3.9-.2-7.8.2-11.7,0v.9h13c.2,1.6-2.1.9-3.3.9h0ZM428.9,551.3c5.5,2.2,13.7,3,15.8,9.3l-15.8-9.3ZM687.2,552.2h26.6c0,0,19.1,1.9,19.1,1.9h-39.6l-6.1-1.9h0ZM599.1,559.7c-5.7,1.6-16.3,2.8-22.5,3.6-8.1,1-16.4,1.9-24.6,2l50.3-7.4c-.3,1.8-1.9,1.5-3.2,1.9h0ZM108.2,568.1l1.9,2.8c-6.7,1.3-14.6-3.2-7.5-9.3.5,6.6,7.2,5.1,12.1,5.6l-6.5.9h0ZM294.6,562.5h-14.4c-1.1,0-6.6,1.3-7,.9v-1.9h21.4v.9ZM494.9,591.2c-4.4.3-9.2,2.4-13.4,2.9s-8-.5-11.7-.3c-.9,0-3,0-2.7,1.3,8.2,3.4,19.4,1.8,27.5-1.8,5.5-2.5,5.4-4.1,5.1-10.3,1.7.6,1.1,6.5.7,7.7-1.9,6.4-26.1,7.9-32.1,9l-.8-1.7c-2.6,1.8-5.9-.5-8.5-1.9-.9-.5-1.8.5-1.3-1.9,2.8,0,5.8-.8,8.5-1.5,1.5-.4,2.4-1.9,4.2-2.2,5.8-1.1,14.3,1.2,20.2-1.9,2.3-1.2.7-6.4-.6-7.5-.4-.3-8.2-3.4-8.7-3.5-3.6-.8-8.7-.9-12.8-1.6-2.5-.4-1.5-2-5.2-.5l7.5-1.9c-.4-1.6-5.9-1.1-7-.9-1.6.3-2.3,1.2-3.3,2.3l1.9.9c-1,7.2-9.9,2.7-14,6.2l.9,2.7h-2.3s-4.2-5.6-4.2-5.6h-1.4c-3.2,6.1-9.7,4.1-8.9-2.8,2.4-.5,3.5,1.9,5.8,1.7,5-.5,10.1-6.4,14.9-7.7,7.9-2.1,22.8.9,30.3,4.8.8.4,7.6,4.9,7.8,5.2,1,1.4.5,3.5,1,4.1,1,1.2,6.1,0,2.4,6.5h0ZM424.2,573.7l2.2-.8c.9.1,1,.7,1.3,1.4.6,1.3,2,12.3,2,13.9,0,1.1-1.2,2.7-1.8,2.2l-3.7-4.7c-.6,4.3,3.3,3.6.8,8.3h-2.7c-.6-5.7-1.3-11.9,0-17.6.6-1.1,1.3,4.2,2.8.4.9-2.3-2.3-1-2.8-1.4,1.7-1.9-1.9-6.3,1.9-5.6v3.7h0ZM511.9,575.5c.9,1.9-3.8,2.7-5.2,2.7s-.3-1.4-.8-1.6c-1-.3-5.7,1.2-6.1.8v-3.1c1-2.7,15.2-2.1,15.8.8.4,1.5-2.1,2.9-2.8,2.3-.3-.3.7-2.3-.9-1.8h0ZM567.8,573.7h1.8l.4,1.8,4.3-.8-6.2,5.4c-1.4.5-3.1-.2-4.4.1-1.1.2,0,2.3-1.5,1.9l-.2-2.7h-2.7c0-.1.5-2,.5-2l3.2.9v-3.7l-2.8-1,7.3,1.7.2-1.7h0ZM413.5,586.7l-5.1-8.4,3.7.5.9-2.4-1.8-.9,2.3-.9c2.4,2.3-1.1,6.7,4.2,7.5l-4.2,4.6ZM437.8,592.3v3.7c-2.1-.8-1.4-4-1.7-4.5-1-1.5-5.7-4.1-5.3-7.7,6.6,9.4,17,9.6,26.7,12.9,1.2.4,2.8.3,3.1,2-7.6-.2-16.2-2.8-22.8-6.5h0ZM337.5,602.6l-2.8-1.8c.8,1.2.9,4.3-1.4,3.7-3.1-.8.6-12.8,1.4-15.2l2.8-.6c-.4,5.5-2.1,8.5,0,14ZM258.3,601.6l-2.8-1.9c-.4,2.6-1.4,5.3-4.7,4.7-1.2-4.2,2.6-5.8,3.4-9.3.6-2.5-2.1-5.3,1.3-4.7l2.8,11.2h0ZM674.1,624.5c0,.4,3.6.4,1.4,2.3l-4.2-1c.7-3.3-2-12.5.8-14.5l4.5.8c1.9,1.8.3,10.7-2.6,12.4ZM803.7,732.7h0c-1-14.7.3-31.3-.9-45.8-.5-6.5-3.6-13.3-2.8-20.1l1.8,1.9c3.7-7-.4-10.3-1-16.3-.8-7.6,1.4-15.5,2.4-22.9,2.8,0,2.9,7.5,3.1,10.1,1,13.4-1.1,27.4,1.2,40.7l-1.7,52.3c0,1.3-2,1.4-2.1,0h0ZM427,638.9c1.4,0,1.9,4.3,1.9,5.2,0,2.5-.7,4.5-1,6.9-3.8-2.4-1.3-8.5-.9-12.1h0ZM310.5,660.9c2.6-32.8-37-28-32.6-2,.5,2.9,3.1,4.1,2.7,7-4.8-.4-3.5,4.2-4.9,5.4s-7,.9-7.4,4.8l-2.2-.8-.4,1.8c3.9.4,7.1-2.6,10.5-4.7,2-1.2,3.2-1.4,4.2-2,.6-.4.8-2.3,1.7-2.6,1.6-.4,4.6,3.1,6.4,3.8,4.9,1.9,17.8.8,18.3-5.7l2.8.9c-1.3-2.5.8-3.7,1-6h0ZM26.5,476.8c-5.8-2.8-11.9-4.8-16.2,1.3-3.4,4.9-1.5,7.3-10.1,8.1v4.5c-.1,0,4-.9,4-.9l2.4,2.8c.3-1.9-.2-6.2,2.8-5.6,3.1,11.9,16.1,7.6,22.9.9l-2.3-1.4c4.1-5,10.9-4.4,14.9-9.3-1.8-2.4-1.5-.7-2.8,0-2.1.9-9.4,5.1-11,4.1-.4-.3-1.1-2.8-4.4-4.4h0ZM810.7,137.3c-1.9-3.2-16.6-1-20.5-1.8l-4.2,3.2,3.7-.5c-2,2.6-1.2,4.5-.9,7.4,1.4-1.7,4.7-4.4,7-4.3.9,0,1.7,1.4,2.6,1.8,1,.4,5.1-.7,1.3,1.8-4.3,2.9-2.6,2.6-5,5.3-1.5,1.8-4.2,3-5,5.7,4.3-1,8.8.2,13-1.5.7-.3,4.5-2.5,3.8-4.1l-10.2,1.9.9-4.2c2.6-1.7,8.1,1.1,10.7,2.3l6.2-6.4c-.4,0-1.3,0-1.5-.3-1.6-2.2-.8-4.6-1.8-6.3h0ZM548,86.2c-3.2.6-7.2,5.5-7.2,8.7,0,4.8,4.6,8.1,1.9,12.6l4.7-2.8-2.8,5.6c5.3,1,4.6-3.1,6.5-5.8s4.7-1.2,2.8-7.2l2.8.9-1.8-2.8c6-1.4,3.5-2.7,4.6-7.5-4.6,2.6-7.3-2.5-11.4-1.7h0ZM649,78.1c-1,1.2-2.5,2-3.2,3.3-4.6,8.3,9.9,18.2,15.7,9.2,3.2-5,.4-7-2.7-10.2-2.7-2.8-3.4-1-3.4-6.4-5.7-1.3-4.5,1.7-6.5,4.1h0ZM850.3,618.9l2.8,4.7c1.2,1.2,2.4-1.1,3.3-1.1,5.2-.2,17.1,19.7,19.6,19.2,1.4-.3,1.2-1.7,1-2.8-1-5.5-7.2-17.6-11.8-20.9-3.1-2.2-7.5-3.3-11.1-4.3l3.7,3.7c-2.6.2-5.7-.9-7.5,1.4ZM460.3,85.6l-1.6-4.6,9.4-46.2-3.4,6.4-7.8,33.7,1.8-1-7.4,28.9,9-17.2h0ZM417.7,416.6c.9,3.5,2.8,9.2,0,12.1l2.8.9-2.8,2.3,2.8.6v8.8s3.7,0,3.7,0l-.9-6.5,1.8.9,1.9-3.4-.9-2.2,5.6,1.4c-1.7-3-2.3-7.5-5.2-9.8-2.2-1.8-6.6-1-7-5.6l-1.9.5h0ZM79.2,246.4l5.6,5.6c-3.6,0-5.5-3.3-8.4.5l5.6,6-11.2,2.8,5.6,5.1-2.8,1.4c4.9-1.1,4.4-.5,7.4,2.8l1.9-3.7c-6.2-1.4.4-4.1.8-4.8.1-.3-1.6-4.9-.8-6.4l4.2,1.8c3.8-3.3-.5-2.8-.5-5.6l3.7.9c1.8-1.8-9.7-6.2-11.2-6.5h0ZM226.1,704.7c-.3-1.4-2.1-2.4-1.3-4.5.4-1.4,2.8-1.4,3.5-3.1,1.9-4.6,2.1-12.4,3.2-17.3.9-4,4.1-8.6,3.5-13.7-2.7,1.5-2.2,5.6-3.3,8.3-2.5,5.8-2.1,5.4-3.6,11.3-.6,2.1-4.5,15.4-5.2,15.8l-2.8-3.7c-.5,3.8.4,6.6,4.7,6.5l-.9,4.6h3.7c.4-1.6-1.3-.6-1.7-1.1-.6-.8.5-2.2.3-3.1h0ZM228.4,315.4l1.9,2.8c-4.5-.4-10.8,4.9-10.9,9,0,1.8.6,3.7,2,5l2.3-9.3c2.9,2.4,2.1,6.6,7.4,5.6l-.9-5.6c4.4,4.3,6.3-3.1,2.5-6.2-1.2-1-2.9-1.3-4.4-1.2h0ZM593.9,478.6l3.7.9c.5,2.6-.9,1.7-2.7,1.9v4.6c4.7.3,8.2-3.3,11.8-4.4,4.9-1.5,12.7-1.7,17-3.5,1.3-.5,1.5-1.5-.5-1.4-7.1.2-15,2.2-21.9,3.8l.9,2.8h-4.7l1.8-1-.9-2.7c6.8-1,14.5-2.5,21.1-4.6,1.5-.5,2.6.8,2.2-2l-28,5.6h0ZM393.5,182c3.5,0,2.2,3.7,2.8,5.9.3.8,2.5.8,1.3,5.3l10.7,10.3c.4-5.9-4.3-13.3-8-17.7-.5-.6-4.1-4.3-4.3-4.5-.6-.4-2.9-.8-2.6.7h0ZM486.7,416.1l-1.9,7.4h-3.7c1.7,2.6-.7,4.6-.9,7.1-.2,4,2.8,7,3.7,10.6,2.5-1-.5-5.4-.7-7.1-.1-1.5.9-3.4.6-5,3.9,1-1.5,6.2,2.8,5.6v-18.6ZM32.6,304.2l5.6,3.7-7.5,1.9,10.2.9c-1.8-5.9,8.3-2.4,10.5-3.7,1.3-.8.5-1.6.6-2.8-6.4,1-12.8-1.6-19.6,0h0ZM31.9,456.5c1.7.5,3.4,2.9,4.9-.4.5-1.1-.3-2.2-.1-3.1.4-1.9,1.3-3.8,1.5-5.8,0-.3,1.7-2-.5-2.3-3.2-.5-8.4,10.1-11.6,11.7,1.2,1.8,3.1-1.9,3.7-1.4.1.1-.2,1.3.2,1.6.3.3,1.4-.5,2-.3h0ZM603.8,62.8c-1,.6-7,1.6-5.7,4.6,1.4,3.2,7.2,1.3,9.8.9l-2.8-2.3c5.3-2.3,5.3-4.9,7.5-9.8-.8-.8-7.4,5.7-8.8,6.6h0ZM544.6,196.2c-4.2,6,1.4,12.1-2.9,18.1l1.8.5c-.1-5.8,12.7-18.2,1.1-18.5h0ZM345.9,103.7c-1.9.4-1.7,2.8-2.8,4.2-2.1,2.8-7.3,5.1,0,6.1l-1.8,5.2,1.5.6-.7,1.7c4.8,1,2.3-2.4,3.1-4.4s5.3-1.6,4.4-4c-6-.1-4.2-5.2-3.7-9.3ZM599.5,471.1l3.7,1.8-5.6,1.9,26.1-3.7c.2-1.7-2.1-.9-3.1-.8-4.5.4-9.1,2.1-13.6,1.7l14.9-4.6-22.4,3.7h0ZM74.6,304.2l2.8,5.6h-2.8s1,1.9,1,1.9c-.5.4-9.4-2.3-7.5,2.3,1.4,3.3,8.4-.3,10.5-1.4.6-.3.6-1.8,1.2-1.9,3.5-.4,6.9,6,8.8,1.9l-14-8.4h0ZM21.4,463.1c-.9.7-12.2,8-10.2,9.8,6.4.5,6.6-6.1,10.7-8.4,1,3.8,4.3,1.3,5.7-1.4l-.8-3.1c-3.5-2.6-3.5,1.4-5.4,3ZM211.2,664.3c0-1.5,0-4.9.4-6.2.8-2.8,4-4.1,2.7-8-4.2,2.1-3,4.9-3.9,7.7-.4,1.3-1.8,2.2-2.1,3.4-.3,1.3.8,13.7,1.4,14.1,4.8,0,1.5-7.9,1.5-11h0ZM697.9,271.6c1.6-3.6-8.9-7.8-10.3-1-1.4,3.6,6.8,5.2,7.8,4.6.2-.1,2.4-3.4,2.5-3.6h0ZM227.5,662.3c-3.9,2.1-1.8,6.9-2.3,9.4-.4,2-3.7,6.1-4.7,8.4-2.3-2.3,2.9-13.4,2.3-14-4.1-.1-4.4,3.6-6.5,6.1,5.1,2.4-3.2,6.2,0,10.7l-2.8.9c2.1-.3,2.5.1,3.3,1.9l2.4-5.6,2.8,1.9c1.5-7.3,8.6-11.2,5.6-19.6h0ZM777.2,181.1c-2.6,1.9-.3,4.2-.5,6.5h-6.5v3.2c2.2,2.8,4.5-1.3,6.1,3.4l4.1-1-3.3-12.1h0ZM711.4,633.4c1,2.4.1,3.2-1.9,4.3-.7,3.7,6.5,10.2,9.3,4.5-3.2-2.3-4-5.1-4.7-8.8h-2.7ZM863.4,418.9l2.8,1.9v1.4l-2.6,1.6.8,1.7-2.8.5c1.9,4.8,4.3,4.6,8.4,7l-2-12.9-4.5-1.1h0ZM479.3,296.3c0-1.1.7-3.5-.9-3.3l-2.8,13h2.4c0,0,1.8,10.2,1.8,10.2,3-3.3-1.9-7.6,2.3-11.2-5-.6-2.7-4.9-2.8-8.9h0ZM36.2,485.4c-1,.3-2.8.2-2.6,1.6l27-5.1,1.9-3.3c-8.4,3.4-17.7,4.1-26.3,6.8h0ZM49.7,588.4c1.5-5.4-6.9.2-7.8,1.8-.9,1.4-1,3.3-.9,4.9,3.7.3,7.7-3.3,8.7-6.7h0ZM803.7,162.5c3.1-.4,3.4,1.9,5.2,3.7l6-2.8-.5-1.9c-5.1,2.8-7.6,2-3.3-3.3,1.3-1.6,3.3-1.7,3.8-3.2-4.8,0-7.8,4.7-11.2,7.4h0ZM758.5,81.3c-2,1.9.9,1.9,1.8,2.8,1.8,1.7,3.2,4.3,6.1,3.8l2.8-8.4c-4.6.8-5.2,4.1-10.7,1.8ZM477.5,229.1l-1.9-.9-3.8,1.4c-.4.4,2.4,2.6,2.8,3.3,1.5,2.5-3-.7-1.8,1.8,2.1,4.4,3.4,1.9,6.5,4.2l-1.8-9.8h0ZM18.6,313.5c-.5,2.6.6,1.5,2,2.1,4.2,1.7,9,2.1,13.4,3.5,2.2.7,9.5,6,8.8,1.9-8-2.3-15.9-7-24.2-7.5h0ZM852.2,399.8c-6.3-4.2-13.8,5.1-1,6,0-2,3.2-4.6,1-6ZM638.6,661.6c-1.4,5.1-1.1,10.4-.8,15.5l4.7-8.9-1.4-3.2-2.3,2.8,1.9-8.4c-2.7-.4-1.6.5-2,2.2h0ZM31.7,417.5c-2.9-4.5-6.9-1.2-9.9,1.6-.2.2.5,1.5-.2,2.1-1.2,1.1-3.7.7-3.8,2.3,2.3.6,14-5,14-6h0ZM759.5,417c-6.3,6.5-1.5,7.3,5.1,8.4,1-1.1-3.3-8.9-5.1-8.4ZM565,449.7c-3.6,1.8-9.4,3.1-9.3,8.4,4.8,1,9.8-3.7,9.3-8.4ZM75.2,597l.8,5.6c2.3-5.5,7.2-9.7,5.1-15.8l-5.9,10.2h0ZM726.9,644.5c-2.2,1.8,2.1,2.3,2.7,4.7l2.3-1-.9-1.8,8.4.9c.5-.6-2.8-4.3-3-4.4-3-1.3-6.4,1.5-9.4,1.6h0ZM540.4,121.4c-.9,1.5-5.3,1.9-4.2,5.6,2.5.7,2.4-2.4,2.8-2.8,3.1-2.3-.4,2.9,2.8,1.9-.3-5.3,2.1-8.3,2.8-13-4.9-.1-3.6,7.5-4.2,8.4h0ZM616.3,645.2l1.9,9.6.9-2.8,1.8,1-.9-11.2-3.7,3.5ZM803.7,200.2l1.9,4.2,2.8-1.9.5,2.8,7-5.6c-4.5-1.7-7.6,1.1-12.1.4h0ZM841.5,427.2l-5.1,3.3,6.4,1.6.2,2.6c2.3,1.2,1.6-1.9,2.4-1.9,1,0,4.2,2.3,4.1,0l-8-5.7h0ZM689.9,639.5l-1.8-3.3c1.3,3.4-3.3,7.1-1,9.8.5.5,2.6,1.9,3.3.5l2.3-7.5-2.8.5h0ZM696.5,91.6c2.2.5,2.8-2.3,4.4-2.6.9-.2,10.8,1.5,11.2,2,.7.7.2,2.8,1.6,3.5l2.3-4.6c-5.8.2-17.6-5.2-19.6,1.8ZM752.2,366.7c-.6.1-.6,1.1-.8,1.1-1.5.7-4.7,1.4-1.8,2.3,3.1.9,4.5,2.4,7.5,3.1,2.1-4.2-.2-7.5-4.9-6.5h0ZM33.2,384.5c-4,1.4.8,7.7,2.7,9.2,1.8-3,1.2-6.1.4-9.3h-3.1ZM315.4,320.2c-8.2-.3-2.1,6.6,2.5,7.3-.8-2.8,1.2-5.9-2.5-7.3ZM802.8,242.7c-1.8-.2-.4,2.3-1.8,3.3-.6.5-2,.4-2.8.4.4.7,4.8,3.8,5.1,3.8,2.5.1,4.1-1,6.9-.5,2,.3,1.9-.5,1-1.4-1.2-1.2-9.1,1.3-8.4-5.6h0ZM473.1,373.2l5.7,4.6c3.5-3,0-6.8-3.6-7.3l-2.1,2.7h0ZM737.2,411.5l-1.1-8.4c-3.4,1.8-.1,8.1-.5,8.4-.3.3-3.7-.2-3.7,1.9l4.6,3.7.6-5.5h0ZM822.3,136c-.1,7.1,11.4.3,9.4-1.5l-9.4,1.5ZM435.4,278.1c.9,4.4-4.3,6.8-7.5,8.8,2.6,3.3,5.3-.1,8.2-.6.3-.3.9-8-.8-8.2h0ZM306.8,369.9c-2.9-3.6-7.4-1.9-5.2,1.5.3.4,7.6,4.9,8,4.6-1.3-1.8-1.5-4.5-2.8-6.1h0ZM525,126.7l2.3,4.1h1.9c2.5-2.5,2.6-4.2,1.4-7.4l-5.5,3.4ZM64.8,279l-.6,1.7-2.7-.8c2.4,3.8,8,7.8,11.2,2.8l-7.9-3.7h0ZM244.3,652.4c.7,2.1,2.1,6.5,3.7,7.9-1-2.8,2.7-3.6,2.9-4.4.2-.8-.3-5-1.9-5l-1.9,3.7c.9-3.1-3.7-5.3-2.8-2.4ZM844.8,597.4c2.3,3.4,5.7,2.8,8.4,0-1.5-2.2-4.2-3-6.8-2.2-.9.3-1.8,1.1-1.5,2.2h0ZM856.8,458.7c-4.3-4.3-5.3,1.4-5.5,5h4.5c0-.1,1-5,1-5h0ZM336.6,643.3l-6.6,4.9c3.1.5,6.1-2.8,7,1,1.6.6,5.1-2.4,4.2-3.8l-3.7.5,1.9-3.2-2.7.7h0ZM101.6,618c-.8,1.5-6.1,2.8-4.2,5.1l3.3-1.8-.9,4.6,1.9-4.7,2.8.9v-3.7l-1.8,1c.3-5.7-6-3.7-1-1.4h0ZM227.5,284.6c-4.1,4.7-3.1,12.8-4.6,18.6,4-4.6,3-12.8,4.6-18.6ZM864.3,412.4c0,4.5,1.7,6.2,6.5,5.6.1-4.5-2-5.9-6.5-5.6ZM46.6,459v1.9c2,.9,5-.9,6.1-.9h13.5c-.7-3.2-4.7-1-6.1-.9-4.5,0-9,0-13.5,0ZM84.8,277.2c-1.5,3.1.2,4.6.9,7.4,5.8-.9,3.9-6.7-.9-7.4ZM728.7,662.2c-1.4-.3-7.1-3.5-8-2.7,1.4,6.9,11.7,2,16.8,4.6-1.5-3.3-6-1.3-8.8-1.9h0ZM34.5,250.1c2.5,4.4,6.5,5.8,11.2,6.5,1.7-2.4-9.5-6.2-11.2-6.5ZM94.7,321.9l-5.2-3.7c4.1,3.9-1.8,2.7-.9,5.1.9,1.3,2.9,3.2,4.5,2.2.2-.1,1.8-3.1,1.6-3.6h0ZM188.7,617.4l.5,5.6c1.7,2.2,5-7.7,5.6-8.4l-6.1,2.7h0ZM845.7,356.4l15.6,3.5,1.2-1.7c-6,.8-11.3-4.2-16.8-1.9h0ZM284.8,614.7l4.2-4.2c-1,0-1.9-1.9-2.1-2-4.5-1.8-6.8,3.9-2.1,6.2h0ZM273.2,613.3l6.5,8.9-.9-10.2c-3.1-1-1.2,2.8-2.3,2.8-2.8,0-.5-1.6-.5-2.8l-2.8,1.4h0ZM720.7,374.1c1.2,4.4,6.7,3.4,3.7,9.3l1.8-2.2,1.9.3c-1.7-3.2-3-8.6-7.4-7.5h0ZM804.1,173.7l-4.9.9.5,2.8c2.1,1.1,3.8.6,6,0l-1.5-3.6h0ZM143.6,623.6l-2.8-14.5.9,17.7,1.9-3.2ZM392.5,466c.8,4.3,5.4.7,8.4,1.4.6-4.1-8-3.4-8.4-1.4ZM403.2,106.7l-1.1,1.1,6.3,12.8-2.8-13.1-1.7.8-.7-1.6h0ZM574.4,494.4c1.5.6,13.9-2.2,11.2-4.6-.5-.4-10.6,2.8-11.2,4.6ZM697.4,653.3l-.9,4.3c5.9.9,8.2-5.9.9-4.3ZM484.9,184.4l4.2,2.3,1.4-5.6c-2.7-.5-4,1.6-5.6,3.3h0ZM696.5,642.7l.9,4.2c4,1.7,5.1-.5,3.7-4.2h-4.6c0,0,0,0,0,0ZM192.6,549.5c-23.9,2.8-47.6,7.1-71.9,7.4-3.2,0-6.2-1.4-9.3-1-2.1,4.8,4.5,3.9,7.5,3.8,36.3-1,72.7-5.9,109-7.5,14.4-.6,29,1,43.4-.9l-7.8-1.8c-13.8,2-28.1.1-42.1.8-11.6.5-23.3,3.4-34.9,2.8.2-1.4,4-1.5,5.3-1.7,4.5-.7,9.3-.6,13.7-1.2,1.1-.1,5.1-.4,5.2-1.7-5.9,1.3-12.2.3-18.1,1h0ZM195.8,269.7l-9.1,38.9c-4.6,25.7-9.2,51.2-13.5,76.9-1.6,9.4-4.4,18.8-5.2,28.3,0,1-.9,3.3.8,3.1,7.4-49.4,19.3-97.9,27-147.3h0ZM132.4,496.3l-6.3,19.3.7,3,5.6-22.4h0ZM778.6,384.8c2.5,10.9,4.8,21.8,7.5,32.6,8.6,35.2,17.1,74.3,28.6,108.5.8,2.4,1.9,6.2,4,7.7-1.8-7.3-3.8-14.6-5.7-21.9-4.3-16.8-9.7-33.6-14.7-50.5l-17.8-76.9-1.8.5h0ZM783,461.5l-2.6-6.3,2.1,17,3.5,11-3-21.7h0ZM769.2,346.7l-2.7-6.1,3.3,14,3.2,8.4-3.8-16.3ZM682.1,523.3c-.2,0-2.7.9-2.3,1.9l25.7,1,2.3-2.9h-25.6ZM293,201.8c.3-.5.5-1,.6-1.9,0-.8-.3-3.2-.3-4.2,0-1.4.7-5.6.8-7.1-.1-.8-.3-1.6-.4-2.4-.2-2.4-.2-3.7-.3-4,0-.6,0-1.1,0-1.7,0-1.9,0-3.3-.2-4.1,0,0,0-.1,0-.5-.6-2.5-1-3.2-1.2-3.3-.3-1.3-.3-2.3-.4-2.9-.2,0-.3-.1-.5-.1,0-.4,0-.7,0-1.1-.1,0-.3,0-.4-.1,0-.4,0-.7,0-1.1-.3-.4-.7-.7-.9-.9-.3-.8-.3-1.4-.3-1.8-.3-.3-.6-.6-1-.9-.2-.7-.3-1.3-.3-1.8-.3,0-.6-.2-.9-.3-.2-.4-.4-.8-.5-1.2-1.4-1.7-3.1-3.4-3.5-4.8-1-.4-1.8-1-2.6-1.8-.2-.2-.9-1-1.9-2.3-1.8-.7-3.6-1.4-5.4-2.1-2.1-.9-3.8-1.5-5.1-1.8-2.1-.5-4.7-.8-5.5,0-.3,0-.6,0-.9-.2-1.2,0-2.1.4-2.7,1.1-.3,0-.6,0-.9-.2-1.3.7-1.9,1.2-2.2,1.2-2,1.5-3.3,2.7-4.1,3.6-2,2.1-3.1,3.6-3.2,4.4,0,.3-.3.5-.5.5-.3.9-.6,1.7-.9,2.6-1,2.6-1.6,4.3-1.8,5.3-.3,2.2-.5,3.8-.5,4.9-.3,1.6-.6,3.2-1,4.7-.4,3.2-.5,8.6-.6,16.2-.2,7.8-.6,13.2-.8,16-.2.9-.7,3.4-.8,4.4-.1,1.3,0,4.3,0,5.1-.3,3.4-.6,6.8-.9,10.2-.5,4.2-.6,7-.4,8.4.4,4.8.7,6.7,1,8.1.3,1.6.5,2.8.5,3.5.3.3.5.5.8.6.3.6.5,1.2.8,1.8,0,.5,0,.9-.1,1.2.3.8.8,1.2,1.2,1.3.9.3,1.2,1.1,1.1,2.5,0,.4.2.7.3.6.8,1,1.3,1.7,1.7,2,.7,1.1,1.2,1.8,1.7,2,.3.4.5.8.8,1.3.9.8,1.7,1.3,2.1,1.6,0,.2,0,.3,0,.5,1,1.3,3.1,1.4,3.9,2.5.3.2.6.2.9.2,0,.3,0,.5,0,.6.3,0,.7.1,1,.2,1.1.4,2.8.7,5.3,1.2,2.5.4,4.3.8,5.3.7.6.1,1.2.3,1.8.4.5,0,.8-.2.9-.3.9.1,1.5.3,1.9.5.4-.3.8-.7,1-1,.5.5,1.4-.5,1.5-.7.9-.7,1.7-1.4,2.6-2.1.3,0,.6,0,.9.3.2-.3.5-.6.6-.9.8-.9,1.4-1.4,2-1.8.8-.6,1.4-1,2-1.1.5-2.3,2.3-3.4,2.1-3.4.6-1.5,1-2.8,1.3-3.5.3-.4.7-.7,1-.8.2-.7.4-1.4.7-2.1.2-1.4.5-2.9.7-4.3.5-1.9.9-3.4,1.3-4.1.2-2.6.4-5.3.6-7.9.2-4.5.3-7,0-7.9-3.1-1.5-5.7-2.4-7.5-2.8-4.2-1.4-6.7-1.8-7.6-1.7-.6,1.3-.8,3.2-.9,5.7-.1,3.1-.3,5-.4,5.9-.4,1.4-.8,2.4-1.1,3.1-.4,1.7-.6,2.9-.8,3.7-2.2,1.5-3,2.3-3.4,3.2-1-.1-1.8-.3-2.3-.6-1.5-.2-2.5-.6-3-1.1-.4-.8-.8-1.5-1.3-2.3-2.5-3.5-2.8-6-2.5-11.3,0-1.8.4-4.4.7-7.9.4-4.2.6-7.2.7-8.8,0-.4.3-5.2.7-14.4.2-5.4.4-9.7.8-12.7.7-6.2,1.5-10,2.2-11.3.3-.3.6-.6.9-.9.1-1,.8-1.6,2.3-1.7.7,0,1.6.2,2.8.7,1.3.4,1.9.6,2.2.6,1.1,1.6,2,2.7,2.6,3.4.6,2.4.9,4.3,1,5.9.3,6.1.1,10.8-.1,14,1.3,1,2.1,1.4,2.2,1.2.1,0,.4,0,1,.3,6.6,2.5,10.7,3.8,12.4,3.8h0ZM325.9,203.6c0-.2,0-.3-.2-.3.1-2.3.2-4.7.3-7,0-.1-.2-.3-.2-.7,0-.1.1-.3.2-.4,0,0,0-.8.1-2.5,0-.7,0-1.5.1-2.2,0-.2-.1-.4-.2-.6,0-.6,0-1.3,0-1.9,0-.1,0-.2,0-.4,0-.4,0-.9,0-1.3,0-.2-.1-.4-.2-.6,0-.2,0-.4,0-.6,0-.4,0-.5-.2-.4,0-.2,0-.5,0-.7,0-.4,0-.5-.2-.4,0-.2,0-.3,0-.5,0-.4,0-.5-.2-.4,0-.2,0-.5,0-.7,0-.2,0-.2,0-.3,0-.2,0-.3,0-.2,0-.2-.2-.3-.2-.3,0-.2,0-.4,0-.6h0c0-.3,0-.4,0-.5,0-.2-.2-.3-.2-.4s0-.2,0-.4c0-.2-.2-.2-.2-.3,0-.1,0-.2,0-.4,0-.1-.1-.2-.2-.2,0-.4,0-.5,0-.5,0-.2,0-.3-.2-.3,0-.2,0-.3,0-.5q0-.1,0,0t0-.2c0-.2-.2-.2-.2-.2,0-.2,0-.3,0-.5-.3-.5-.3-.7-.4-.8,0,0,0-.2,0-.2q0-.2-.2-.2c0-.2,0-.4,0-.6,0,0-.2-.2-.3-.5,0,0,0-.2,0-.2-.5-.6-.5-1.5-.6-1.4,0-.1,0-.2,0-.4-.2,0-.4-.9-.8-1.3,0-.1,0-.2,0-.4,0,0-.5-.7-.5-.8,0,0-.2,0-.3-.1-.8-1.4-1-1.9-1-1.9-.5-.2-.5-.7-.6-1,0,0-.2,0-.3-.1,0-.1-.3-.4-.3-.5-.2-.2-.3-.2-.3-.2,0-.2-.3-.4-.4-.4h0c-.2-.4-.3-.5-.3-.4-.6-.4-1-1-1-1-.3-.1-.5-.3-.5-.4-.3-.1-.5-.3-.6-.5,0,0-.1,0-.2.2-.7-.3-1-.4-1-.4,0,0-.3.1-.4,0-.3-.2-.5-.3-.6-.5,0,0-.1,0-.2,0-.6-.1-1.1-.3-1.4-.4,0,0,0-.2-.2-.3q0-.1,0,0c-1.6-.6-3.3-1.2-4.9-1.8-.3,0-.4,0-.2.2,0-.1-.3-.1-.4,0-.1,0-.3,0-.4-.1-.1,0-.2.2-.3.1-.3,0-.4.1-.5,0v.2c0,0-.2,0-.3-.1,0,.1-.1.2-.4.1,0-.1,0,0-.2.2v.2c0,0-.2,0-.3-.1h0c0,.1,0,.1,0,0v.2c-.4.2.4-.2-1.9,1.3,0,0,0,0,0,0h0c-.8.4-.3.4-.7.7,0,.1,0,.2,0,.4-.2,0-.3,0-.3.1-.8.4-.8.9-1.1,1.1,0,.1,0,.2,0,.4-.2,0-.3,0-.4.1v.2c-.1,0-.1.2-.2,0,0,.2,0,.3,0,.5-.4-.1-.4.3-.5.4,0,.6-.3,1.2-.5,1.1,0,.2,0,.3,0,.5-.3,0-.2.5-.3.5,0,.2,0,.3,0,.5-.7.4-.4,1.8-.8,1.6,0,.2,0,.4,0,.6s0,.2-.1.2c0,.3,0,.6,0,.8q-.1,0-.2,0c-.1.4-.2.4-.2.5,0,.2,0,.5,0,.7-.1,0-.1.2-.2.2,0,.4,0,.8,0,1.2,0,0-.1.2-.2.3,0,.2,0,.3,0,.5,0,.1,0,.2-.1.3-.1,1-.3,1.6-.3,1.6,0,0,0,.1,0,.4-.1,0-.1.2-.1.3-.1.7-.1,1.3,0,1.7-.1.6-.1.7-.2.3,0,1.3-.1,2.6-.2,3.9,0,.1-.1.3-.2.4,0,.2.1.4.2.5-.1.2-.2.3-.2.4,0,0,0,.5,0,1.4-.3,7.2-.7,14.4-1,21.6,0,.1.2.4.2.5,0-.1-.1,0-.2.5,0,0,0,.6,0,1.7,0,1.5-.2,3-.3,4.5,0,.6,0,.9.1.8-.1.3-.1.4-.2.4-.6,9.7-1.2,19.4-1.9,29.1,0,.1.1.3.2.4,0,.4,0,.8,0,1.2-.1.2-.1.3-.2.3,0,.3.2.4.2.4-.1,1.6-.2,3.2-.4,4.8,0,.2.1.4.2.5,0,.6,0,1.3-.1,1.9,0,.1,0,.2,0,.4,0,.2,0,.4,0,.6,0,.2.1.4.2.5,0,.6,0,1.2-.1,1.8,0,.1,0,.2,0,.3,0,.2,0,.5,0,.7,0,.1.2.3.2.4,0,.1,0,.2,0,.4,0,.1,0,.1.2.2,0,.3,0,.6,0,1,0,0,.1.2.2.2,0,.1,0,.2,0,.4,0,.5,0,.6.2.4,0,.2,0,.4,0,.6,0,.4,0,.5,0,.3,0,.2,0,.3,0,.5.1.2.2.4.4.6,0,.2,0,.4,0,.6,0,0,.3.2.4.5,0,.1,0,.2,0,.4,0,.1.2.4,0,.8.2.2.3.3.2.4.1.2.2.3.4.5,0,0,0,.2,0,.2h0c0,.3,0,.3,0,.3,0,.1,0,.1.2.2,0,.1,0,.2,0,.4.1,0,.2,0,.2.4,0,0,.4.5.6.9,0,.1,0,.2,0,.4.1,0,0,.1.2.3.8,1.4,1.3,2,1.1,2.1.1,0,.3,0,.4.1,0,.1.3.5.4.6,0,0,0,0,0,.1,0,0,0,0,.1,0,0,.1.2.3.2.3,0,0,0,.2,0,.2,0,.1.2.2.2.2.4.4.6.7.6,1,.3,0,.7.5.7.6,0,0,.1,0,.2,0,0,.1.2.2,0,.3.2.2.3.2.4.1,0,.5.6.6.4.9.1,0,.2,0,.3.1.1,0,.3.2.5.5,0,0,0,0,.1,0,0,.1.2.2.2.2.1,0,.3,0,.4.1,0,.2.2.2.2.3.5.2.7.2.7.2,0,0,0,.2.3.3,2.4.9,4.9,1.7,7.3,2.6.2,0,.3,0,.3-.1.3.1.6.2.9.3,1.2.3.7-.1.8,0,0,0,.2,0,.3.1.3,0,.4,0,.3-.1,0,0,.2,0,.3.1.1,0,.1,0,.1,0,0,0,.1,0,.2,0,.1-.1.2-.2.3-.4.2,0,.3.1.5.2,0-.2,0-.2.3-.1.1-.3.1-.6.1-.6.2,0,.4.1.6.2.1-.1.2-.2.3-.4,0,0,.2,0,.3.1.3-.4.6-.6.9-.8,0,0,.2,0,.3.1.1,0,.1-.2.1-.3,0,0,.1,0,.2,0,.1,0,.1-.2.1-.3,0,0,.1,0,.2,0,.1-.2.1-.3.2-.2,0-.2,0-.3,0-.5,0,0,.2,0,.2-.2,0,.1.1,0,.2,0,0,0,0,0,.1,0,0,0,0-.2,0-.2,0,0,.1,0,.2,0,.2-.4.1-.6.5-.6,0-.2,0-.4,0-.6,0,0,.1,0,.2-.2,0,0,.1,0,.2,0,.1-.2.4-1.2,1-1,0-.2,0-.4,0-.6.1,0,.2-.3.2-.4,0,0,0,0,0,0,.2-.2.3-.2.2-.3,0-.2,0-.4,0-.6q.1,0,.2,0c0-.2,0-.5,0-.7q.1,0,.2,0c0-.1,0-.2,0-.2,0-.1.3-.2.3-.4,0,0,0-.1,0-.5q0-.1.1,0c.1,0,.1,0,0-.2,0-.2,0-.3,0-.5,0,0,.1-.1.2-.2.1,0,.1-.3,0-.5.1,0,.1-.2.2-.2,0-.2,0-.3,0-.5.1-.4.1-.6.2-.4,0-.2,0-.4,0-.6,0,0,.1-.2.2-.3,0-.4,0-.5,0-.5q0-.1.1-.2,0,0,0-.1c0-.3,0-.6,0-1,.1-.3.1-.4.2-.4,0-.2-.2-.3-.2-.6.1-2.4.3-4.9.4-7.3q.1,0,.2,0c0-.3,0-.6,0-.8,0-.1-.2-.4-.2-.6.1,0,.2-.2.2-.4,0-.2,0-.4,0-.6,0-.1-.1-.3-.2-.4,0-.5,0-1,0-1.5.1-.3.1-.4.2-.5,0-.2-.1-.4-.2-.6,0-.4,0-.9,0-1.3.1,0,.1-.2.2-.2,0-.8,0-1-.2-.7.1-.3.1-.6.2-.6,0-.2-.1-.4-.2-.6,0-.4,0-.9,0-1.3,0,0,.1,0,.2-.2,0-.7,0-1.4.1-2.1,0-.6,0-1.3.1-1.9,0-.2-.1-.4-.2-.6.1-2.3.2-3.5.2-3.5,0-.1.1,0,.2,0q.1,0,0-.2c0-1.7.2-3.4.3-5.1,0-.2-.1-.4-.2-.6,0-1.4.1-2.1.1-2.1.1-.3.1-.4.2-.5,0-.4,0-.8-.1-.9.1-.3.1-.4.2-.4.5-9.2.9-18.5,1.4-27.7,0-.1.2,0,.2-.2h0ZM292.9,256.5s0,0,.2.2c-.1.3-.2.4-.5.2,0-.4.3-.3.3-.4h0ZM294.1,258c0-.1.2-.3.2-.4.2.2.3.3.3.5,0,.1,0,.2,0,.4-.1,0-.2,0-.3,0,0-.1,0-.3-.2-.3h0ZM296,253.9s0,0,0,0h0c0,.1,0,.1,0,0h0ZM297.7,244.1c.2,0,.4.1.6.2,0,.2,0,.3,0,.5,0-.1-.2,0-.3,0h0c0-.3,0-.3-.2-.2,0-.2,0-.3,0-.5h0ZM298.6,232.8c.1,0,.2,0,.3.1,0,.1,0,.4,0,.5,0-.2-.2-.4-.3-.6ZM297.6,271.7c0-.1-.2-.3-.2-.4,0,.1.2.3.2.4ZM299,256.2s0,0,0,0c0,0,0,.2,0,.2,0,0,0,0,0,0,0,0,0-.2,0-.2ZM309.8,178.2c.6.2,1.3.5,1.9.7q-.1,0,.2.3c.2,0,.3.1.5.2-.1,0,0,.2.3.3.3.5.5,1,.8,1.5,0,.4,0,.5.2.6,0,.3.2.4.3.5,0,.2,0,.4,0,.6,0,.2,0,.3.2.2,0,.2,0,.4,0,.6,0,.3,0,.4.2.4,0,.8,0,1.6-.1,2.4,0,.2,0,.4.2.4-.3,5.7-.5,11.3-.8,17,0,0,0,0,0,.3,0,.1,0,.2-.1.3,0,.9,0,1.8-.1,2.7,0,.2,0,.4,0,.4,0,.8,0,1.5-.1,2.3,0,.1,0,.2,0,.2,0,0-.1.1-.1.2h0c-.5,10.1-1.1,20.3-1.7,30.4,0,.2.1.4.2.6,0,.3,0,.6,0,.8,0,.2-.1.3-.2.3-.1,2-.2,4.1-.4,6.1,0,.2,0,.4-.1.3l-.6,9.8q0,.1-.1.2h0c0,.2,0,.4,0,.7,0,0-.1,0-.2.3,0,.2,0,.4,0,.6,0,.1-.1.2-.2.3,0,0,0,.2,0,.2-.2.3-.4.8-1.4,1.7,0,0-.1,0-.2,0q-.1,0-.1.2c-.1,0-.3,0-.4-.1h-.1c-.3,0-.5-.1-.8-.2-.3-.1-.4,0-.4,0-.4-.3-.5-.4-.5-.4-.2,0-.4-.2-.7-.3,0-.1-.4-.4-.4-.4-.1-.7-.3-.6-1.2-1.5.1-.3,0-.5-.3-.7,0-.2,0-.4,0-.6,0,0,0,0,0,0,0-.2,0-.3,0-.4,0-.2,0-.2-.2-.2,0-.8.1-1.7.2-2.5,0,0-.1,0-.2-.3.1,0,.1-.2.2-.2.1-1.8.2-3.5.4-5.3,0-1.1.1-1.5.1-1.5,0-.4,0-.5-.2-.6,0,.3,0,.1.2-.2,0-.2,0-.4,0-.6,0-.1,0-.3-.2-.4,0-.3,0-.6,0-.8,0-.2.1-.3.2-.3.1-2.2.3-4.4.4-6.6,0-.2-.1-.4-.2-.6,0-1,.1-2.1.2-3.1,0-.1.1-.3.2-.4,0-.4,0-.8,0-1.2,0-.2,0-.4-.2-.4.2-3,.4-6,.5-8.9,0,0-.1,0-.2,0,0-.1.1,0,.2,0,0-.1,0-.2,0-.4,0-.4,0-.5-.2-.7.1-.6.2-.8.2-.8,0-.2,0-.3-.2-.3,0-.4,0-.5,0-.5,0-.4.2-.2.2-.3.1-2.2.2-4.5.4-6.7,0-.1.2,0,.2-.3,0-1.8.2-3.6.3-5.4,0-1.3.1-1.9,0-1.9,0-.2-.2-.3-.2-.4,0-.4.1-.4.2-.5,0-.5,0-1,0-1.5,0-.2.1-.3.2-.4.1-2.1.2-4.2.3-6.3,0-.3,0-.4-.2-.4,0-1.2.1-2.4.2-3.6q.1,0,.2,0c0-.2,0-.3-.2-.3,0-.2,0-.3,0-.5,0-.4.2,0,.2-.4,0,0,0-.2,0-.2,0-.1-.1-.3-.2-.4,0-.2.1-.3.2-.4,0-1.1.1-2.3.1-3.4,0-.1-.2-.6-.2-.7,0-.4.2,0,.2-.4,0-.6,0-1.1,0-1.7,0-.2-.1-.4-.2-.5,0-.2.1-.3.2-.4,0-1,0-1.9.1-2.9h0c0-.2,0-.4.1-.4,0-.2,0-.3,0-.5.2-.2.4-1.2,1.1-1.4,0-.3.4-.8.3-.7.1,0,.3,0,.4.1.1,0,.2-.2.2-.2h0s0-.1,0-.2h0ZM302.4,269.3c0-.2,0-.4,0-.5.1,0,.2,0,.3.2,0,.2-.1.3-.3.3h0ZM306.4,266.6c.1,0,.3-.1.4,0-.1.2-.1.3-.1.4,0,0-.2-.3-.3-.3ZM312.5,250.6s0,0,0,0h0c0,.1,0,0,0,0h0ZM312.6,257.5c-.2,0-.2-.2,0-.3.2,0,.2.2,0,.3ZM314.6,233.9c0,0,.1,0,.2,0,0-.2,0-.1,0,.3,0,.2-.1.3-.2.3,0,0-.2-.3-.2-.3h0c0-.2.1-.2.2-.2h0q0-.1,0-.1ZM345.9,176.2c-3.2-1.2-4.8-1.7-4.8-1.7-.2,0-.4,0-.5,0,0,0-.1,0-.2,0,0,0-.1,0-.2.1-.7,0-.8,0-.9,0-.3,0-.6.1-.9.2-.5.1-.8,0-.9,0-.3,0-.6.1-.9.2-.4.2-.8.4-1.2.7-.7.3-1.4.8-2.3,1.5-.9.7-1.2,1-1.2,1.1-.2.1-.3.3-.5.4-.9.9-.9,1.2-1.1,1.3-.2.4-.4.8-.5,1.2-.3.6-.6,1.2-1,1.8-.1.3-.2.6-.3.8-.1.6-.3.9-.4,1,0,.3-.2.7-.2,1-.1,1-.2,1.9-.2,2.4-.1,0-.1.9-.1,2.5-.4,11.9-.8,21-1.2,27,0,0,0,0,0,0,0,.2,0,.2-.1.3,0,.2,0,.2,0,.2,0,.1,0,.2-.1.2,0,.6,0,1.7,0,3.2,0,.2,0,.3,0,.5s0,.1-.1,0c-.1,4.3-.2,6.2-.2,5.6q0,.1-.1,0s0,.1,0,.5c0,0-.2,3.2-.5,9.5,0,.6,0,1.5,0,2.7,0,.9,0,1.7-.1,2.6,0,1.7,0,2.8,0,3.4,0,.4,0,1.1-.1,1.9,0,0,0,.1-.1,0-.1,1.9,0,2.2-.2,3,0,.9,0,1.7-.1,2.6-.1,0,0,.2,0,.5-.1,4-.3,6.8-.5,8.8,0,1,0,1.1-.2,3.3,0,.2.1.4.2.6q-.1,0-.2,0c0,.1,0,.2.2.3,0,1,0,1.4,0,1.5,0,0,0,.1,0,.4,0,.1,0,.2,0,.4.3,1.7.5,2.5.4,2.6,0-.1,0,0,0,.2.2,1.2.4,2.1.6,2.6.5.8-.2,0,1.1,3.4,0,.2.2.2.3.2,0,.2,0,.4,0,.5.3.6.5,1.1.6,1.5,2.5,3.9,4.5,6.8,6.1,8.9.8,1,1.5,1.5,2.1,1.8,0,0,0,.2,0,.3.8.5,1.5.9,2,1.1-.1,0,0,0,0,.2,0,0,.8.4,2.3,1,1.9.9,2.9,1.3,3,1.5.2,0,.3.1.3.1.1,0,.1,0,.1,0,4.2,1.8,7,2.9,8.1,2.8h.1c.3,0,.6,0,.8,0h0c0,0,.1,0,.2,0,.1,0,.1-.2.1-.3.7.1.8,0,1,0h0c.1,0,.2,0,.3,0,1-.5,1.4-.4,1.4-.6.8-.2,2.3-.9,2.8-1.5.1,0,.2,0,.3.1.1,0,.1-.3.1-.4.3-.2.6-.4.8-.4.5-.5.9-1,1.4-1.5.3.1.2-.5.8-.9.2-.5.3-.8.4-.9,0-.1,0-.2.1-.3,0-.1,0-.2,0-.4,0,0,.1,0,.2,0v-.2h.1c0-.3.1-.6.2-.8,0,0,0,0,.1,0,0-.1,0-.2.1-.3.3-.9.6-1.9.7-2.9.1-.4.3-.8.4-1.2,0,0,0-1.7.1-5.1,0-1.7,0-3.4.1-5.1.2-6.1.3-9.1.3-9.1,0-.5,0-.9,0-1.2,0-.7,0-1.3.1-1.6,0-4-.1-6.9,0-8.9,0-.2,0-.5.1-1.1-.1.4,0-1.5,0-5.9.1-4.3.3-8.6.4-12.9.1-2.9.1-4.5.1-4.5,0-1.4,0-2.4.1-3.1,0-4.2,0-7.5.2-10.3,0-.1.2-.3.2-.4,0,0,0-.2-.2-.3,0,0,0-2.2.3-6.7,0-2.5.1-3.8,0-4.1,0-.6,0-1,0-1.1,0,0,0-.1,0-.5q0-.1,0-.2c-.2-1.5-.3-2.1-.3-2.1,0-.2,0-.3,0-.5,0-.1-.1-.2-.2-.3,0,.1,0,0,0-.2-.2-.7-.2-1.1-.3-1.2,0,0,0-.2,0-.2,0-.2-.2-.4-.3-.6,0-.2,0-.3,0-.5,0,0,0-.2,0-.2-.3-.3-.4-.8-.4-1s0-.2,0-.2c0-.1-.1-.2-.2-.3-.3-.9-.6-1.7-1-2.6-1.9-4-3.2-5.9-3.4-6.2-.5-1.4-.8-1.4-1-1.7-.5-.6-.9-1.2-1.4-1.8h0c0-.2-.2-.2-.3-.3-.4-.5-.8-1.1-1.2-1.6-.5-.4-.7-.6-.8-.8-.6-.8-2.1-1.9-4.1-3.1q0,0,0-.2c-.6-.4-1.1-.7-1.6-.8-.3-.1-.6-.3-.9-.4-.8-.5-1.6-.9-2.6-1.3h-.1c0,0,0,.1,0,.1ZM347.4,275.5c-1,1.4-1.3,1.2-1.6,1.4-2-.8-2.9-1.2-2.7-1q0-.1,0-.2c-.2,0-.3-.1-.5-.2-.3-.5-.8-1-.8-1-.4-.4-.7-.8-1-1.3q0-.2-.2-.2c0-.1,0-.2,0-.4,0,0,0,0,0,0q0-.2,0-.2c0,0-.1,0-.2,0,0,0,0-.2,0-.2-.3-.4-.4-1.2-.5-2.4,0,0,0,0,0-.2.1-.7.1-1,0-1.2s-.2-.9,0-2.4c0-.6,0-.5,0-1.3,0,.1,0-.6.2-2.1,0-.7,0-1.8,0-3.1,0-1,0-2.1.1-3.1,0-2,.1-3.1.1-3.1,0-.1-.2-.7-.2-.8q0,0,.2,0c0-.4-.1-1.4-.1-1.9,0-.6.3-2.2.3-3,0-2,.1-5,.2-9.2,0-1.1,0-2.1.1-3.2.1-.3.2-1,.3-1.3,0-.3-.1-.5-.2-.8,0,.4.1-.3.3-2,0-2.1,0-3.5,0-4.6.3-3.9.3-5.6.4-5.1,0-.1,0-.2,0-.4,0-.2-.2-.3-.2-.6.1,0,.1-.2.2-.1,0-.1-.2-.8-.2-.9.1-4.7.3-9.6.7-14.9.2-2.8.4-4.6.6-5.4,0-.1,0-.2.1-.3,0,0,0,0,0,0,.1-.5.3-.9.4-1,.3-.2.7-.4,1-.6q.1,0,.2,0c.4,0,.6,0,.7,0,.5.1.8.1,1,.2.5.1.9.2,1.1.3.3.3.6.6.9,1,0,.1,0,.2,0,.3.1,0,.3.1.4.2.1.2.3.5.5.7,0,.2.2.2.2,0,.2.3.4.7.5,1,0,0,0,.2,0,.2.2.3.3.6.3.8,0,1,.2,1.9.3,2.6v.2c0,4.8-.1,6.9,0,7.9,0,.4,0,.7-.1,1.1,0,.4,0,.7,0,1.1,0,.5,0,.8,0,1.1,0,.1,0,.2-.1.4,0,.2,0,.4,0,.6,0,.1,0,.4,0,.5,0,.6,0,1.2,0,1.8-.8,16.5-1.2,29.1-1.4,37.8-.1,1-.2,1.9-.2,2.3,0,.2,0,.5,0,.7q0,0,0,.2,0,.1-.1,0,0,.1,0,.3c0,.1,0,.2,0,.4,0-.1,0,0-.1,0,.1-.2.1,0,0,.8,0,.1-.2,2.9-.5,8.5-.2,3.3-.5,5.1-.8,5.6h0ZM395.9,206.6c-1-1.8-2.7-3.7-5-5.2,1.3,1-.9-.5-6.5-3.9-4.6-2.8-9.1-5.5-13.7-8.1-.4-.2-.8.1-1.1.1-.4.4-.8.6-1.1.6.4,2.9.4,6,0,9.3,0,.4-.5.6-.5.4.1,1.4.2,2.8.3,4.2,0,2.6,0,4.5-.2,5.8.3,1.1.6,2.1,1,3.2,0,.4.1.9.1,1.3,0,1.8.2,2.8.3,2.9,0,.5,0,1,0,1.3.5,1.8.9,3.6,1.4,5.5,0,.5,0,1.3-.2,2.3-.3,1.1-.5,2-.5,2.6,0,1.9-.1,3.9-.2,5.8-.4,1.8-.9,3.1-1.2,4-.2,2.4-.2,4.3-.2,5.8-.1,1.4-1.2,4.6-1.3,5.9,0,1.1,1,5.1.9,6.4-.5,2.7-.9,4.7-1.3,5.9-.1,1.7-.2,4.6-.2,8.4s0,6.7-.2,8.6c-.2,1.7-.5,2.9-.7,3.6,0,1,.5,3.4.5,4.2,0,1.1-.8,3.4-.8,4.5,0,.8.2,1.8.6,2.8,1,.3,2-.3,2.9-1.7,1-1.4,2-1.8,3.3-1.1.3.2.7.4,1.1.7.3,2.3,0,3.8-.9,4.6-.3.4-1.3.7-2.6.9-.5.2-.8.5-1.2.7-.1,0-.5-.3-1.1-.7-.6-.4-1-.6-1.2-.6-.3,0-.5.4-.4,1.2-1.1,1-1.1,3.4-.2,7.2,1.5.7,4.7,3.6,5.6,4.2,3.3,1.6,5.6,2.7,6.9,3,.8.6,1.4,1.1,1.7,1.5.7.5,1.4,1,2.1,1.4,2,1.1,6.4,2.3,8.5,3.5.7.4,1.5,1,2.2,1.6.4-1.7.9-2.7,1.2-3.3-.1-2.2-.3-3.9-.5-4.9.2-.5.4-1.1.5-1.6.1-3.5.1-6.1,0-7.8,0-.4.2-.5.6-.3,0-1.8,0-3.7,0-5.6.1-2.1.9-2.8,2.4-2.2,1,.6,1.8,1.6,2.2,3.2.2,1.2.4,2.5.6,3.7.2.1.4.3.6.4v1.3c1.2,5.9,1.6,8.7,2.4,10.5.4,2.8.8,5.7,1.2,8.5,0,.1.2.8.8,2,.3.9.4,1.6.4,2,.8.7,1.2,1.2,1.2,1.3,1,1.1,2.2,2,3.8,3,3.1,1.8,4.6,2.8,4.6,2.8,1.2.9,2.4,1.8,3.5,2.7,3.6,2.4,7.9,5.1,13,8,.8.6,1.6,1.1,2.4,1.6,1,.6,1.5.5,1.3-.6.4,0,.7-.2.7-.6,0-.8-1.4-3.4-1.5-3.7-.2-.5-.5-.9-.6-1-.1-.9-.2-1.6,0-2-.2-.7-.5-1.4-.7-1.7.1.2.1-.4,0-1.7,0-.6-.1-1.3-.7-1.9-1.3-4.2-2-7.9-2.2-11-.1-1.4-2.4-4.5-2.6-6.1.4-3.4-.3-7.2-2-10.9-1.4-4.1-1.7-6.4-2-7.7-.2-.5-.4-.7-.6-.9-.3-1.7-.6-3.3-.8-5-.4-2.1-.7-3.4-1.1-4,0-.4,0-.9,0-1.3-.4-.9-.9-1.6-1.2-2.1-.4-2-.5-3.3-.6-4.2-.6-2.7-.9-3.7-1.2-3.9-1.4-5-2.1-9.2-1.8-12.1.6-1.9,1.1-3.4,1.6-4.1.4-1,.7-2.1,1.1-3.1.4-1.5.7-2.9,1.1-4.4.2,0,.3-.2.5-.2.2-.7.4-1.4.6-2.2,0-.7,0-1.4,0-2,3.4-.7,2.1-3.2,3.3-3.4.4-1.1.6-2.4,1.1-2.5.3-.5.4-1,.5-1.5.4-.9.6-1.5.6-2.1.4-.3.8-.4,1.1-.5.3-1.4.4-2.6.5-3.5.1-.3.6-.8,1.4-1.9.6-.8.9-1.7.9-2.5s0-.6-.1-1c-3.5-2.8-6.2-4.7-8.2-5.9-2-1.6-4-3.3-5.9-4.9-3.1-2.1-5-3.2-6-3.4-.9,1.1-1.4,2.3-1.7,3.4,0,1.4-1.1,2-1.1,2.4-.2.3-.4.4-.6.3-.4,1.5-.8,2.9-1.2,4.4-.5.4-.8.7-1.1.6-.3.9-.4,1.7-.5,2.2-.4,1.5-.8,3-1.2,4.4-.4.2-.7.4-1.1.6-.1.5-.1.9,0,1.3-.6,1.6-1.2,2.8-1.7,3.4v.7c-.2.2-.4.3-.5.3-.3,1.5-.6,3-1,4.5-.5,1.6-1.5,1.9-3,.8-1.2-1.8-1.8-3.5-1.7-5s1.3-5.1,1.4-7c0-.5-.5-1.2-.6-1.7,0-1.1,0-2.1,0-2.6,0-.4-.2-.6-.5-.9.1-.9.3-1.5.5-1.7,0-.6-.3-2.1-.6-4.1-.3-1.6-.3-2.8-.3-3.6.1-1,.5-2.4,1.1-4.3s1-3.4,1-4.7c0-.7,0-1.5-.1-2.2h0ZM378.1,239.1c0-1.4.2-2.3.7-2.8,1,.4,1.5,1.3,1.4,2.6,0,1.1-.4,1.3-1.3.8-.3-.2-.5-.3-.8-.6ZM378.6,301.3c.5-.2,1.3,0,2,.4,2.2,1.2,3,2.7,2.6,4.8-.4.2-1.2,0-2.3-.5-1.1-.6-1.9-1.3-2.3-2,0-.9,0-1.7,0-2.6h0ZM388.2,309.3c.5,0,1.1.1,1.5.3.5.3,1.6,1.5,3.2,3.6-.4,1.3-1.4,1.5-2.8.7-1.6-.9-2.2-2.4-1.9-4.6h0ZM271.6,357.3c.3-1.6,3-3.4,3.9-3.2.4,0,.7-.2.7-.3,1.8-.8,2.9-1.8,3.4-3.2.4-.3.7-.3.9-.1.4-.5.7-1.2.8-1.8.4-.8.9-1.7,1.4-2.5.2-.5.4-1.1.6-1.6.6-.7,1.3-2,2-4,.9-2.1,1.3-3.6,1.4-4.5.1-1.1-.5-4.7-.3-6,0-.9.6-2.1.6-2.2.2-.9.3-1.9.2-3.1,0-1.4-.1-2.2-.1-2.2-.2-.4-.3-.7-.4-.8-.2-1.5-.2-2.7-.2-3.5-.3-1.6-.7-2.7-1.1-3.3-.1-.7-.3-1.2-.3-1.8-.3-1.1-.6-1.8-.7-2-.2-.8-.3-1.4-.3-1.8-.3-.7-.9-1.6-1.7-2.9-.6-.5-1.1-.8-1.4-1,0-.1-.1-.5-.2-1.2,0-.4-.2-.7-.5-.8-.5-.3-1.1-1-1.7-2.2-.4-.2-.7-.3-1-.3-.4-.6-.6-1-.8-1.5-2-1.5-2.8-2.2-3.1-3.2-.3,0-.6-.2-.9-.2-1.1-.5-2.2-.9-3.4-1.4-7.2-2.8-15.8-5-26-6.1-1.1,0-2.3,0-3.4,0,.1,0-.9-.1-2.9-.6-1.1-.2-2.1,0-2.9.2-.5,1.1-.9,2.2-1.3,3.8-.2.4-.4,1.8-.8,4.1-.2,1.8-.2,3.2,0,4.1-.2-.1-.4,0-.6.5-.6,1.5-.8,3.6-.5,6.4.1,0,.3,0,.4,0,.1,1.1.2,2.1,0,3,.5,1.3.7,2.5.5,3.5-.5,1.1-2.6,4.3-3,6.1-.2.6,0,2.2,0,2.9,0,1.7-.5,3.6-1.1,5.5-.9,2.4-1.4,3.9-1.5,4.8-.1.9.1,1.9.2,2.4-.6,4.7-1.2,8.1-1.7,10.4-.2,1-.2,3.8-.4,5.3-.1.7-.3,1.7-.6,3.1-.5,1.6-.8,2.7-.8,3.2-.4,1.6-.6,2.7-.6,3.6-.3.8-1,2.8-1.1,3.4-.1.9,0,2.9,0,3.5-.8,8-2.2,16.4-4,24.9-.3,1-1.1,3.4-1.2,4,.4,2.7.8,4.7,1.3,6-.7,1-1.3,2-1.6,2.8-.4,0-.6.3-.7.6,0,.4.6,1.8.2,2.4,2.2,1,5,1.7,8.7,2.4-2.2-.4,1.2,0,10.3,1.5,12.2,2.1,19.6,3.7,22.2,3.9.9,0,1.8,0,2.7.1.5,0,1.1-.2,1.6-.2,2-.1,2.7-.2,2.8-.6,1.3-.3,2.9-.9,4.5-1.8.4-6.2,2.3-9.9,5.6-11.1.9-.5,1.6-.7,2.2-.7,1.7-.2,2.6-.3,2.8-.4-.1-.9,0-1.9.6-2.9.7-1.4,1.1-2.4,1.1-2.6.3-1.4.4-2.7.4-3.6.2-.6.8-2.1.9-2.7-.1-1.9-.4-3.4-.6-4.4.1-1.1,1.4-3.4,1.1-5.1-.7-2.1-1.1-3.6-1.1-4.5-.4-3.2-.3-3-.8-3.1-.6-2.2-1.3-4.1-1.9-5.4-1-2-2.4-4.1-4.1-5.9,0-.4-.6-1.1-1.5-1.9-.8-.6-1.1-1.4-1-2.3h0ZM239.2,304.4c-.4.3-.7.4-1,.3-.9-.1-1.2-.9-.7-2.3,1.4,0,2,.6,1.7,2h0ZM246.3,313.8c-1,.7-2.5,1.7-4.1,1-.3-.9-.4-1.9-.2-2.8.3-2.4,2.3-3.8,4-3.1.3.5.5.9.8,1.4,0,1.4-.3,2.6-.5,3.4ZM248.5,390.1c-3.1-.3-5.3-1-6.5-2.5-.2-1.6-.1-3.8.4-6.7.7-4.3,1-6.6,1-7.3.4-3.6.7-6,1.1-7.5.2-.8.4-1.7.3-2.3.4-.3.6-.5.6-.5.2-.6,1.2-.8,3-.7,1.7,0,3.2.4,4.3,1,.3.4.3.7.5.7,1,.8,1.8,1.5,2.2,2.2,1.7,1.6,2.5,2.6,2.8,3-.1.2,0,1.3,0,2.9.4,3.9.2,6.9-.6,8.8-1.6,4.3-2.7,6.6-3.1,7-.4.4-1.2.9-2.6,1.2-1.4.3-2.6.6-3.5.5h0ZM256.6,341.8c-2.5,0-4.6-.1-6.5-.8-.9-1.3-1.3-3.1-1.3-5.5,0,0,.3-2.3,1-6.9,1-7.4,1.8-11.8,2.3-13,2.1-.3,3.9-.3,5.4,0,1.7.4,3.2,1.3,4.2,2.7.6.8,1.2,1.6,1.7,2.6.3.5.6,1,.9,1.5,0,.4,0,.7-.1,1.1,0,1.9.1,3.4-.2,4.7-.1,3.7-.5,6.4-1,8-1,3.3-2,4.8-3.1,4.7-.6.2-1,.5-1.2.9-.3,0-.7,0-1-.2-.5.3-.8.3-1.1.4h0ZM272.5,319c1.2,0,2.2.7,3.2,2.1-.3,2.3-1.3,3.1-3.3,2.6-1-1.4-.9-2.9,0-4.8h0ZM274.8,308.5c0-1.9.7-2.6,2-2.2.7.2,1.2.7,1.5,1.4-.5,1.2-1.4,1.6-2.7,1.2-.3,0-.6-.3-.8-.5h0ZM310,307c-3.4-.9-5.1-1.2-5.1-1.2-.2,0-.4,0-.5,0,0,0-.1,0-.2,0,0,0-.1.1-.2.2-.7.1-.8,0-.9.2-.3,0-.6.2-1,.3-.5.2-.8,0-.9.2-.3,0-.6.2-1,.3-.4.3-.9.5-1.3.8-.8.4-1.5,1-2.5,1.8-1,.8-1.4,1.2-1.4,1.3-.2.1-.4.3-.6.4-1,1-1.1,1.3-1.3,1.4-.2.4-.4.9-.6,1.3-.4.6-.7,1.3-1.1,1.9-.1.3-.3.6-.4.9-.2.6-.4,1-.5,1.1-.1.3-.2.7-.3,1-.2,1.1-.3,1.9-.3,2.5-.1,0-.2.9-.2,2.5-1.1,12.2-1.9,21.4-2.7,27.6,0,0,0,0,.1,0,0,.2,0,.2-.1.3h0c0,.3,0,.4-.1.4,0,.6-.2,1.7-.2,3.3,0,.2,0,.3,0,.5,0,.1,0,.1-.1,0-.4,4.4-.6,6.4-.5,5.8q0,.1-.1,0s0,.1,0,.5c0,0-.3,3.3-1,9.8,0,.6-.2,1.6-.2,2.7,0,.9-.2,1.8-.3,2.7,0,1.8-.2,2.9-.3,3.5,0,.4,0,1.1-.2,2,0,0,0,.1-.1,0-.2,2-.1,2.2-.3,3.1-.1.9-.2,1.8-.3,2.7-.1,0,0,.2,0,.5-.3,4.1-.7,7.1-1,9.1,0,1-.1,1.1-.4,3.5,0,.2.1.4.2.6q-.1,0-.2,0c0,.1,0,.2.2.3-.1,1-.2,1.5,0,1.5,0,0,0,.1,0,.4,0,.1,0,.2,0,.4.3,1.7.4,2.5.4,2.7,0-.1,0,0,0,.3.2,1.2.3,2.1.5,2.6.5.8-.2,0,1.1,3.4,0,.2.2.2.3.2,0,.3,0,.4,0,.5.3.6.6,1.1.6,1.5,2.7,3.8,4.8,6.6,6.6,8.6.8.9,1.7,1.4,2.3,1.6q0,.1,0,.3c.9.4,1.7.8,2.2,1-.1,0,0,0,.1.2,0,0,.9.3,2.6.9,2.1.7,3.3,1.1,3.4,1.3.2,0,.3.1.3.1h.1c4.7,1.4,7.8,2.3,9.1,2.1h.1c.4,0,.7,0,.9,0,0,0,0,0,0-.1,0,0,.1,0,.2,0,.1,0,.1-.2.1-.3.8,0,.9-.2,1.2,0,0,0,0,0,0-.1.1,0,.2,0,.3.1,1.1-.6,1.6-.6,1.6-.7,1-.3,2.7-1.2,3.3-1.9.1,0,.2,0,.3.1.1,0,.1-.3.1-.5.4-.2.7-.5,1-.5.5-.6,1.1-1.1,1.6-1.7.3.1.3-.5,1-1,.3-.5.4-.9.5-.9,0-.1,0-.2.1-.3,0-.1,0-.3,0-.4q.1,0,.2,0c0,0,0-.2,0-.3h.1c0-.3.2-.6.3-.9,0,0,0,0,.1,0,0-.1,0-.3.1-.3.4-1,.7-2,.9-3.1.2-.4.4-.9.6-1.3,0,0,.1-1.7.4-5.3.1-1.8.2-3.5.4-5.3.4-6.3.7-9.5.7-9.5,0-.5,0-.9,0-1.3,0-.7,0-1.4.2-1.7,0-4.2.1-7.1.4-9.2-.1-.2,0-.5.2-1.2-.1.4,0-1.5.3-6.1.3-4.5.6-8.9.9-13.3.2-3.1.3-4.6.3-4.6,0-1.4,0-2.5.2-3.2.2-4.3.3-7.7.4-10.5,0-.1.2-.3.2-.4-.1,0,0-.2-.2-.3,0,0,.1-2.3.4-6.9.1-2.5.2-3.9.1-4.2,0-.6,0-1,0-1.1,0,0,0-.1,0-.5,0-.1,0-.1,0-.2-.2-1.5-.3-2.1-.3-2.1,0-.2,0-.4,0-.5,0-.1-.1-.2-.2-.3,0,.1,0,0,0-.2-.2-.7-.3-1.1-.4-1.1,0,0,0-.2,0-.2,0-.2-.2-.4-.3-.6,0-.2,0-.4,0-.5,0,0,0-.2,0-.2-.3-.3-.5-.8-.5-.9s0-.2,0-.2c0-.1-.1-.2-.2-.3-.3-.8-.7-1.7-1-2.5-2-3.9-3.3-5.7-3.6-5.9-.5-1.3-.9-1.3-1-1.7-.5-.6-1-1.1-1.5-1.7h0c-.1-.2-.2-.2-.3-.2-.4-.5-.8-1-1.3-1.5-.5-.3-.8-.6-.9-.7-.7-.8-2.2-1.7-4.4-2.7q-.1,0,0-.2c-.6-.4-1.2-.6-1.7-.7-.3-.1-.6-.2-.9-.3-.8-.4-1.7-.8-2.7-1-.1,0-.1,0-.1,0h0ZM308,408.6c-1.2,1.5-1.5,1.4-1.8,1.6-2.2-.7-3.2-1-3-.8q0-.1-.1-.2c-.2,0-.4-.1-.6-.2-.3-.5-.8-.9-.8-.9-.4-.4-.7-.8-1-1.2,0-.2-.1-.2-.2-.2,0-.1,0-.3,0-.4,0,0,0,0-.1,0q-.1-.2,0-.3c0,0-.1,0-.2,0,0,0,0-.2,0-.2-.3-.4-.5-1.2-.4-2.4q-.1,0,0-.2c.2-.7.2-1.1.1-1.2-.1-.2-.1-.9.1-2.5,0-.7,0-.5.1-1.4,0,.1,0-.6.3-2.2,0-.7.2-1.8.2-3.2.1-1.1.2-2.1.3-3.2.2-2.1.3-3.2.3-3.2,0-.1-.2-.7-.1-.8q.1,0,.2,0c0-.4,0-1.4,0-1.9,0-.6.4-2.3.5-3.1.2-2.1.4-5.2.6-9.5.1-1.1.2-2.2.3-3.3.1-.3.3-1,.3-1.4,0-.3,0-.5-.1-.8,0,.4.1-.3.4-2.1,0-2.1.2-3.6.2-4.7.5-4,.6-5.8.7-5.3,0-.1,0-.2,0-.4,0-.2-.2-.3-.2-.6.1,0,.1-.2.2-.2,0-.1-.1-.8-.1-.9.3-4.8.8-9.9,1.3-15.3.3-2.9.6-4.8.9-5.6,0-.1,0-.2.1-.3,0,0,0,0,.1,0,.1-.6.4-1,.5-1.1.4-.2.7-.5,1.1-.7q.1,0,.2,0c.4,0,.6-.1.7-.1.5,0,.8,0,1,.1.5,0,.9.1,1.1.2.3.3.7.6,1,.9q0,.2,0,.3c.1,0,.3.1.4.1.2.2.3.4.5.7,0,.2.2.2.2,0,.2.3.4.6.6,1,0,0,0,.2,0,.2.2.3.3.6.3.8,0,1,.2,1.9.2,2.6v.2c-.2,4.9-.3,7.1-.3,8.1,0,.4,0,.7-.2,1.2,0,.4,0,.7,0,1.1,0,.5,0,.8,0,1.1,0,.1,0,.2-.1.4,0,.2,0,.4,0,.6,0,.1,0,.4,0,.5,0,.6,0,1.2-.1,1.8-1.4,17-2.4,30.1-3,39-.2,1.1-.3,1.9-.3,2.4,0,.2,0,.5,0,.7q.1,0,.1.2c0,.1,0,.1-.1,0q0,.1,0,.3c0,.1,0,.2,0,.4,0-.1,0,0-.1,0,.1-.2.1,0,0,.8,0,.1-.4,3-1,8.8-.4,3.4-.8,5.3-1.2,5.8h0ZM366.8,369c-.1-.2-.1-.3-.2-.3,0-2.4.1-4.8.2-7.2,0-.1-.2-.3-.2-.7,0-.1.1-.3.2-.4,0,0,0-.8,0-2.5,0-.8,0-1.5,0-2.3,0-.2-.1-.4-.2-.6,0-.6,0-1.3,0-1.9,0-.1,0-.2,0-.4,0-.4,0-.9,0-1.3,0-.2-.1-.4-.2-.6,0-.2,0-.4,0-.6,0-.4,0-.5-.2-.5,0-.2,0-.5,0-.7,0-.4,0-.5-.2-.5,0-.2,0-.3,0-.5,0-.4,0-.5-.2-.5,0-.2,0-.5,0-.7,0-.1-.1-.2-.1-.3-.1-.2-.1-.3,0-.2-.1-.2-.2-.3-.2-.3,0-.2,0-.4,0-.6h-.1c0-.3,0-.5,0-.5-.1-.2-.2-.3-.2-.5s0-.2,0-.4c-.1-.2-.2-.2-.2-.3s0-.2,0-.4q-.1-.2-.2-.2c0-.4,0-.5,0-.5-.1-.2-.1-.3-.2-.3,0-.2,0-.3,0-.5q0-.1-.1,0-.1-.2,0-.2c-.1-.2-.2-.2-.2-.2,0-.2,0-.3,0-.5-.3-.5-.3-.8-.4-.8v-.2c0-.1-.1-.2-.2-.2,0-.2,0-.4,0-.6-.1,0-.2-.2-.3-.5v-.2c-.5-.6-.6-1.6-.7-1.4,0-.1,0-.2,0-.4-.2-.1-.5-1-.9-1.4,0-.1,0-.2,0-.4,0,0-.5-.7-.5-.9-.1,0-.2-.1-.3-.2-.9-1.5-1.1-2-1.1-2-.5-.3-.5-.7-.7-1.1-.1,0-.2-.1-.3-.1,0-.1-.3-.4-.3-.5-.2-.2-.3-.3-.3-.3-.1-.2-.3-.4-.4-.4h0c-.2-.5-.3-.5-.3-.4-.6-.4-1.1-1.2-1.1-1.2-.3-.1-.5-.4-.5-.5-.3-.1-.5-.4-.6-.5-.1,0-.1,0-.2.1-.7-.3-1-.5-1-.5-.1,0-.3,0-.4,0-.3-.3-.5-.4-.6-.5,0,0-.1,0-.2,0-.6-.2-1.1-.4-1.5-.6-.1,0-.1-.2-.2-.3,0,0,0,0-.1,0-1.8-.8-3.5-1.6-5.3-2.4-.3,0-.4,0-.2.1,0-.2-.3-.1-.4,0-.1,0-.3,0-.4-.2-.1,0-.2.1-.3.1-.3,0-.4,0-.5-.1,0,.1,0,.2,0,.2-.1,0-.2,0-.3-.1,0,.1-.1.2-.4,0,0-.1-.1,0-.2.1,0,0,0,.2,0,.2-.1,0-.2,0-.3-.1h0c0,.1,0,0-.1,0,0,0,0,.2,0,.2-.4.2.4-.2-2,1.1,0,0,0,0-.1,0h0c-.8.4-.3.3-.8.6,0,.1,0,.2,0,.4-.2,0-.3,0-.3.1-.9.4-.9.8-1.2,1,0,.1,0,.2,0,.4-.2,0-.3,0-.4,0,0,0,0,.2,0,.2-.1,0-.1.2-.2,0,0,.2,0,.3,0,.5-.4-.2-.4.3-.6.4,0,.6-.4,1.2-.6,1.1,0,.2,0,.3,0,.5-.3,0-.2.5-.3.5,0,.2,0,.3,0,.5-.8.3-.5,1.8-.9,1.6,0,.2,0,.4,0,.6,0,.1,0,.2-.1.2,0,.3,0,.6,0,.8,0,0-.1,0-.2,0-.1.4-.2.4-.2.5,0,.2,0,.5,0,.7-.1,0-.1.2-.2.1,0,.4,0,.8,0,1.2,0,0-.1.2-.2.3,0,.2,0,.3,0,.5,0,.1,0,.2-.1.3-.2,1-.3,1.6-.4,1.6,0,0,0,.1,0,.4-.1,0-.1.2-.1.3-.1.7-.2,1.3,0,1.7-.1.6-.1.7-.2.3,0,1.3-.2,2.7-.2,4,0,.1-.2.3-.2.4,0,.2.1.4.2.6-.1.2-.2.3-.2.4,0,0,0,.5,0,1.5-.4,7.3-.9,14.7-1.3,22,0,.1.2.5.2.6-.1-.2-.1,0-.3.5,0,0,0,.6-.1,1.7-.1,1.5-.2,3.1-.3,4.6,0,.7,0,.9.2.8-.1.3-.1.4-.2.4-.6,10-1.3,20-2,30,0,.1.1.3.2.5,0,.4,0,.8,0,1.2-.1.2-.1.3-.2.3,0,.3.2.5.2.5-.1,1.7-.2,3.3-.3,5,0,.2.1.4.2.6,0,.7,0,1.3-.1,2,0,.1,0,.3,0,.4,0,.2,0,.4,0,.6,0,.2.1.4.2.6,0,.6,0,1.2-.1,1.9,0,.1,0,.3,0,.3,0,.3,0,.5,0,.7.1.2.2.3.2.5,0,.1,0,.3,0,.4q.1.2.2.2c0,.3,0,.7,0,1,0,.1.1.2.2.2,0,.1,0,.3,0,.4,0,.5,0,.7.2.5,0,.2,0,.4,0,.6,0,.4,0,.5,0,.3,0,.2,0,.3,0,.5.1.2.3.4.4.7,0,.2,0,.4,0,.6.1,0,.3.3.4.6,0,.1,0,.3,0,.4.1.2.2.5,0,.8.2.2.3.4.2.5.1.2.3.4.4.6,0,0,0,.2,0,.3v.2h.1q.1.3.2.3c0,.1,0,.3,0,.4.1,0,.2,0,.2.5,0,0,.4.6.7,1.1,0,.1,0,.3,0,.4.1,0,.1.2.2.3.9,1.5,1.5,2.3,1.4,2.3.1,0,.3.1.5.2,0,.1.3.5.4.7h0c0,.1,0,.1.1.2.1.2.2.3.2.3,0,0,0,.2,0,.3.1.2.2.2.2.2.4.4.7.8.7,1.1.4,0,.8.6.8.7,0,0,.1,0,.2,0,.1.2.2.2.1.3.2.2.3.3.5.2,0,.5.7.7.5,1,.1,0,.2,0,.3.1s.3.3.6.6c0,0,0,0,.1,0,.1.2.2.2.2.2.1,0,.3.1.5.2.1.2.2.2.2.3.6.2.8.3.8.3,0,0,0,.3.3.4,2.8,1.2,5.7,2.4,8.5,3.6.2,0,.4,0,.4-.1l1,.4c1.4.5.8,0,.9,0,.1,0,.2.1.3.1.4,0,.5,0,.4-.1.1,0,.2.1.3.1,0,0,.1,0,.1,0,0,0,.1,0,.2.1.1-.1.3-.2.4-.3.2,0,.4.2.6.3-.1-.2,0-.3.4-.1.1-.3.1-.6.1-.6.2.1.5.2.7.3.1-.1.2-.2.4-.3.1,0,.2.1.3.1.4-.3.6-.6,1-.7.1,0,.2.1.3.2.1,0,.1-.2.1-.3,0,0,.1,0,.2.1.1,0,.1-.2.1-.3,0,0,.1,0,.2.1.1-.2.1-.3.2-.1,0-.2,0-.3,0-.5.1,0,.2,0,.2-.1,0,.1.1,0,.2,0,0,0,0,0,.1,0,0,0,0-.2,0-.3,0,0,.1,0,.2.1.3-.4.1-.6.6-.6,0-.2,0-.4,0-.6,0,0,.1,0,.2-.1,0,0,.1,0,.2.1.1-.2.4-1.2,1.1-.9,0-.2,0-.4,0-.6.1,0,.2-.3.3-.4,0,0,0,0,.1,0,.2-.1.4-.2.2-.3,0-.2,0-.4,0-.6q.1,0,.2,0c0-.3,0-.5,0-.7.1,0,.1,0,.2,0,0-.1,0-.3,0-.3,0-.1.4-.2.4-.3,0,0,0-.1,0-.5q0-.1.1,0,.1,0,0-.3c0-.2,0-.3,0-.5,0,0,.2,0,.2-.1.1,0,.1-.3,0-.5.1,0,.1-.2.2-.1,0-.2,0-.3,0-.5.1-.4.1-.6.3-.4,0-.2,0-.4,0-.6,0,0,.2-.2.2-.3,0-.4,0-.5,0-.5q0-.1.1-.2.1,0,0-.1c0-.3,0-.7,0-1,.1-.3.1-.4.3-.4-.1-.2-.2-.4-.2-.6.1-2.5.2-5,.3-7.6q.1,0,.2,0c0-.3,0-.6,0-.9,0-.1-.2-.5-.2-.6.1,0,.2-.1.2-.4,0-.2,0-.4,0-.6,0-.2-.1-.3-.2-.5,0-.5,0-1.1,0-1.6.1-.3.1-.4.3-.5,0-.2-.1-.4-.2-.6,0-.5,0-.9,0-1.4.1,0,.1-.2.2-.1,0-.8,0-1-.2-.7.1-.3.1-.6.3-.6,0-.2-.1-.4-.2-.6,0-.5,0-.9,0-1.4,0,0,.1,0,.2-.1,0-.7,0-1.5,0-2.2,0-.7,0-1.3,0-2,0-.2-.1-.4-.2-.6,0-2.3.1-3.6.1-3.6,0-.1.1,0,.2,0,.1,0,.1,0,0-.2,0-1.8.1-3.5.2-5.3,0-.2-.1-.4-.2-.6,0-1.5,0-2.2,0-2.2.1-.3.1-.4.2-.5-.1-.4,0-.8-.2-1,.1-.3.1-.4.2-.4.3-9.5.6-19,.9-28.4,0-.1.2,0,.2-.1h0ZM330,420.1s.1,0,.2.2c-.1.3-.3.4-.6.1,0-.4.4-.2.4-.4ZM331.3,421.8c0-.1.3-.3.3-.4.2.2.3.4.3.5,0,.1,0,.3,0,.4-.1,0-.2,0-.3-.1-.1-.2,0-.3-.2-.3h0ZM333.4,417.8s0,0,.1,0h0c0,.1,0,0-.1,0h0ZM335.2,407.7c.2,0,.4.2.7.3,0,.2,0,.3,0,.5-.1-.2-.2,0-.3,0s-.1,0-.1-.2c0-.1-.1-.2-.2,0,0-.2,0-.3,0-.5h0ZM336.2,396.1c.1,0,.2,0,.3.1.1.2,0,.4,0,.5-.1-.2-.2-.4-.3-.6ZM335.7,436.6c-.1-.2-.2-.3-.2-.5.1.2.2.3.2.5ZM337,420.5s0,0,.1,0c0,0,0,.2,0,.3,0,0,0,0-.1,0,0,0,0-.2,0-.3ZM348.4,341.1c.7.3,1.4.6,2.1,1,0,0,0,.2.2.3.2,0,.4.2.5.2-.1,0,0,.2.3.4.3.6.6,1.1.9,1.7,0,.4,0,.5.2.6,0,.3.2.5.3.5,0,.2,0,.4,0,.6.1.2,0,.3.2.2,0,.2,0,.4,0,.6,0,.3,0,.4.2.5,0,.8,0,1.6,0,2.4,0,.2,0,.4.2.5-.2,5.8-.5,11.6-.7,17.4,0,0,.1,0,0,.3,0,.1,0,.2-.1.3,0,.9,0,1.9-.1,2.8,0,.2,0,.4,0,.4,0,.8,0,1.5-.1,2.3,0,.1,0,.2,0,.2q-.1,0-.1.2h.1c-.4,10.4-.9,20.8-1.4,31.3,0,.2.1.4.2.6,0,.3,0,.6,0,.9,0,.2-.1.3-.2.3-.1,2.1-.2,4.2-.3,6.3,0,.3,0,.4-.1.3-.2,3.4-.3,6.8-.5,10.2,0,0,0,.1-.1.2h-.1c0,.2,0,.4,0,.7,0,0-.1,0-.2.3,0,.2,0,.4,0,.6,0,.1-.1.2-.2.3,0,0,0,.2,0,.3-.2.3-.5.8-1.6,1.6,0,0-.1,0-.2,0q-.1,0-.1.2c-.1,0-.3-.1-.5-.2,0,0-.1,0-.1,0-.3-.1-.6-.3-.9-.4-.3-.1-.5,0-.5,0-.4-.3-.6-.5-.6-.5-.3-.1-.5-.2-.8-.3,0-.1-.4-.4-.4-.4-.2-.7-.3-.6-1.4-1.7.1-.3,0-.5-.3-.8,0-.2,0-.4,0-.6,0,0,0,0-.1,0-.1-.2,0-.3,0-.4q-.1-.2-.2-.2c0-.9.1-1.7.1-2.6q-.1,0-.2-.3c.1,0,.1-.2.2-.1.1-1.8.2-3.6.3-5.5,0-1.1,0-1.6,0-1.6,0-.4,0-.5-.2-.6,0,.3.1.2.2-.1,0-.2,0-.4,0-.6,0-.1,0-.3-.2-.5,0-.3,0-.6,0-.9,0-.3.1-.3.2-.3.1-2.3.3-4.5.4-6.8,0-.2-.1-.4-.2-.6,0-1.1.1-2.1.2-3.2,0-.1.2-.3.2-.4,0-.4,0-.8,0-1.2,0-.2,0-.4-.2-.5.2-3.1.3-6.2.5-9.2,0,0-.1,0-.2,0,0-.1.1,0,.2,0,0-.1,0-.2,0-.4,0-.4,0-.5-.2-.7.1-.6.3-.8.3-.8-.1-.2,0-.3-.2-.3,0-.4,0-.5,0-.5,0-.4.2-.1.2-.3.1-2.3.2-4.6.4-6.9,0-.1.2,0,.2-.3,0-1.8.2-3.7.3-5.5,0-1.3.1-2,.1-2-.1-.2-.2-.3-.2-.5,0-.4.1-.4.2-.5,0-.5,0-1.1,0-1.6,0-.2.1-.3.2-.4.1-2.2.2-4.3.3-6.4,0-.3,0-.4-.2-.5,0-1.2.1-2.4.2-3.6q.1,0,.2,0c-.1-.2,0-.3-.2-.3,0-.2,0-.3,0-.5,0-.4.2,0,.2-.4,0,0,0-.2,0-.2,0-.1-.1-.3-.2-.5,0-.2.1-.3.2-.4,0-1.2.1-2.3.2-3.5,0-.1-.2-.6-.2-.7,0-.4.2,0,.2-.4,0-.6,0-1.1,0-1.7,0-.2-.1-.4-.2-.6,0-.2.1-.3.2-.4,0-1,0-1.9.1-2.9,0,0,0-.1,0-.1,0-.1,0-.2.1-.3,0-.2,0-.3,0-.5.2-.1.5-1.1,1.2-1.3,0-.3.5-.8.4-.7.1,0,.3.1.4.2.1,0,.2-.1.2-.1h.1s0-.1,0-.2h0ZM341.2,434.7c-.1-.2,0-.4,0-.5s.2,0,.3.3c0,.3-.1.3-.4.2h0ZM345.8,432.2c.1,0,.4-.1.5,0-.1.2-.1.3-.1.4-.1,0-.2-.3-.3-.4ZM352.4,416.2s0,0,.1,0h0c0,.1,0,0-.1,0h0ZM352.7,423.5c-.2-.1-.2-.2-.1-.3.2.1.2.2.1.3ZM354.5,399.1c0,0,.1,0,.2.1,0-.2,0-.1.1.3.1.2-.1.3-.2.3-.1,0-.2-.3-.2-.3h-.1c0-.2.1-.2.2-.2h0c0-.1,0-.1,0-.1ZM399.5,351.3c-1.2-1.9-3.2-3.7-5.8-5.3,1.5,1-1-.5-7.4-3.9-5.1-2.8-10.2-5.4-15.3-8-.4-.2-.9.2-1.2.1-.4.4-.9.7-1.2.6.5,2.9.6,6.2.3,9.5,0,.4-.6.6-.6.5.1,1.4.3,2.8.4,4.2,0,2.7,0,4.6-.1,5.9.4,1.1.7,2.2,1.1,3.2,0,.4.1.9.2,1.3,0,1.9.3,2.8.4,3,.1.5,0,1,0,1.3.5,1.9,1.1,3.7,1.6,5.6,0,.5,0,1.3-.2,2.4-.4,1.2-.5,2.1-.5,2.7,0,2-.1,4-.2,6-.5,1.9-1,3.2-1.3,4.2-.2,2.5-.2,4.5-.2,6-.1,1.4-1.4,4.8-1.4,6.1,0,1.1,1.1,5.2,1,6.6-.5,2.9-1.1,4.9-1.5,6.2-.2,1.8-.3,4.8-.3,8.8,0,4-.1,7-.3,8.9-.3,1.8-.6,3-.8,3.8,0,1,.6,3.5.5,4.4,0,1.1-1,3.6-1,4.7,0,.9.2,1.8.7,2.9,1.2.3,2.2-.4,3.4-1.9s2.3-2,3.8-1.2c.3.2.8.4,1.3.7.3,2.4-.1,4-1.1,4.8-.4.5-1.4.7-3,1-.6.2-1,.6-1.3.8-.1,0-.6-.3-1.3-.7-.7-.4-1.1-.7-1.4-.6-.4,0-.6.5-.5,1.3-1.2,1.1-1.3,3.6-.3,7.5,1.7.7,5.3,3.7,6.3,4.4,3.7,1.6,6.3,2.8,7.7,3.1.9.6,1.5,1.1,1.9,1.5.8.5,1.5,1,2.3,1.4,2.2,1.1,7.2,2.3,9.4,3.4.8.4,1.6,1,2.5,1.6.5-1.8,1-2.9,1.4-3.5,0-2.3-.3-4.1-.5-5.2.2-.6.4-1.1.6-1.7.2-3.7.3-6.4.2-8.2,0-.4.2-.5.7-.4,0-1.9,0-3.8,0-5.9.2-2.2,1.1-2.9,2.7-2.3,1.2.6,2,1.7,2.4,3.3.2,1.3.4,2.6.6,3.8.2.1.5.2.7.4,0,.5,0,.9,0,1.4,1.2,6.1,1.6,9,2.4,10.9.4,3,.8,5.9,1.1,8.9,0,.1.2.9.8,2.1.3.9.4,1.6.4,2.1.8.7,1.3,1.2,1.3,1.3,1.1,1.1,2.3,2,4.1,3,3.3,1.8,5,2.7,4.9,2.7,1.3.9,2.5,1.8,3.8,2.7,3.8,2.3,8.4,4.9,13.6,7.7.8.6,1.6,1.1,2.5,1.5,1.1.6,1.5.4,1.4-.7.5,0,.7-.2.7-.7,0-.9-1.4-3.4-1.3-3.8-.2-.5-.5-.9-.6-1-.1-.9,0-1.7,0-2.1-.2-.8-.4-1.4-.7-1.8.1.2.1-.4.1-1.8.1-.7-.1-1.3-.7-1.9-1.2-4.3-1.8-8.1-1.9-11.4-.1-1.4-2.4-4.5-2.5-6.2.6-3.6,0-7.4-1.8-11.3-1.4-4.3-1.6-6.6-2-7.9-.2-.5-.5-.8-.6-1-.3-1.7-.5-3.4-.8-5.1-.3-2.2-.7-3.5-1.2-4.1v-1.3c-.5-.9-.9-1.6-1.3-2.1-.4-2-.5-3.4-.6-4.4-.6-2.8-.9-3.8-1.3-4-1.5-5.1-2.2-9.4-1.9-12.5.7-2,1.3-3.5,1.8-4.3.4-1.1.8-2.2,1.2-3.2.4-1.5.8-3,1.2-4.6.2,0,.4-.2.6-.3.2-.7.4-1.5.7-2.2.1-.8,0-1.5,0-2,3.9-.8,2.4-3.4,3.7-3.6.4-1.2.6-2.5,1.2-2.6.3-.5.4-1,.5-1.6.4-.9.7-1.6.6-2.2.4-.3.9-.4,1.3-.5.3-1.5.4-2.7.5-3.6.1-.3.7-.9,1.6-2,.7-.9,1-1.7,1-2.6,0-.4,0-.6-.1-1-4.1-2.8-7.2-4.7-9.5-5.9-2.3-1.6-4.6-3.3-6.9-4.9-3.5-2.1-5.8-3.2-6.9-3.4-1,1.2-1.5,2.4-1.7,3.5,0,1.4-1.2,2-1.2,2.5-.2.3-.4.5-.7.3-.4,1.5-.8,3.1-1.2,4.6-.6.4-.9.7-1.2.6-.3.9-.4,1.8-.6,2.3-.4,1.5-.8,3.1-1.2,4.6-.4.2-.8.4-1.2.6-.1.5-.1.9,0,1.3-.7,1.7-1.3,2.9-1.9,3.5v.7c-.2.2-.4.4-.6.3-.3,1.5-.7,3.1-1,4.6-.6,1.6-1.7,2-3.4.9-1.4-1.8-2-3.5-2-5.1s1.4-5.3,1.5-7.2c0-.5-.6-1.3-.7-1.7-.1-1.1-.1-2.1,0-2.7,0-.4-.2-.6-.6-.9.1-.9.3-1.5.6-1.7-.1-.7-.3-2.1-.8-4.2-.3-1.6-.4-2.9-.4-3.7.1-1,.4-2.5,1.1-4.4.7-1.9,1-3.5,1-4.9s-.1-1.5-.2-2.3h0ZM380.3,385.1c0-1.4.2-2.4.7-2.9,1.1.4,1.7,1.3,1.6,2.7,0,1.1-.5,1.4-1.5.8-.3-.2-.6-.3-.9-.6h0ZM380.6,449.7c.6-.2,1.4,0,2.2.3,2.4,1.2,3.3,2.8,2.8,4.9-.5.3-1.3.1-2.6-.5-1.3-.6-2.1-1.3-2.5-2,0-.9,0-1.8,0-2.7h0ZM391.4,457.8c.6,0,1.2,0,1.7.3.6.3,1.7,1.5,3.5,3.7-.5,1.4-1.6,1.6-3.1.8-1.8-.9-2.4-2.5-2-4.8h0Z"/>
  </g>
</svg>