<?xml version="1.0" encoding="UTF-8"?>
<svg id="Layer_2" data-name="Layer 2" xmlns="http://www.w3.org/2000/svg" viewBox="0 0 450.68 163.81">
  <defs>
    <style>
      .cls-1 {
        fill: #0a0a0a;
      }

      .cls-2 {
        fill: #0a0a0a;
      }

      .cls-3 {
        fill: #59fd53;
      }
    </style>
  </defs>
  <g id="Layer_1-2" data-name="Layer 1">
    <g>
      <path class="cls-1" d="M448.93,103.66c.76,3.58,1.73,7.21,1.07,10.83-.23,1.18-.49,2.34-.8,3.49-.31,1.15-.66,2.29-1.06,3.41-.51.99-1.05,1.98-1.6,2.95-1.66,2.92-3.47,5.79-5.23,8.73-.32.76-.55,1.52-.7,2.3-.78,3.86.21,7.89-.6,11.68-.65,2.44-2.27,3.84-4.63,4.34-1.03.44-2.07.8-3.13,1.12-6.33,1.9-13.02,2.24-17.82,7.52-.73.49-1.52.85-2.3,1.06-1.07.51-2.17.93-3.28,1.29-5.53,1.79-11.28,2.1-16.99-.17-.13-.05-.27-.1-.4-.14-7.28.57-14.05-.95-20.18-4.04-1.03,0-2.06.03-3.1.09-.95-.02-1.87-.12-2.77-.37-.87-.22-1.73-.6-2.56-1.16-.95-.6-1.81-1.32-2.64-2.07-4.08-3.85-7.56-8.65-11.75-12.36-.69-.76-1.32-1.55-1.88-2.39-1.66-2.47-2.74-5.38-2.87-9.01-.16-1.14-.28-2.29-.41-3.45-.07-.65-.14-1.31-.22-1.96-2.15-4.86-3.9-9.96-5.22-15.11-1.35-2.61-2.5-5.36-3.01-8.43-.17-1.04-.36-2.08-.56-3.12-.82-4.15-1.87-8.25-3.17-12.45-.33-.7,0-1.74.32-2.44.41-1.1.89-2.17,1.42-3.22,1.01-2.01,2.2-3.96,3.4-5.92.24-1.21.53-2.39.86-3.54,1.24-4.41,2.97-10.12,5.3-16.33-.02-.29-.04-.57-.06-.86-.32-3.79-1.07-7.59-2.14-11.37-.33-1.57.32-2.79,1.32-3.8,1-1.01,2.34-1.81,3.4-2.53.8-.46,1.62-.89,2.44-1.29,2.06-.99,4.16-1.87,6.11-2.98,5.4-8.56,12.22-16.28,20.8-21.15.45-.48.91-.96,1.36-1.45,3.25-3.14,7.15-6.29,11.76-6.35,1.01-.02,2.03.04,3.05.17,2.55.34,5.13,1.2,7.64,2.62,6.49.83,12.44,3.48,17.81,7.4,1.42.43,2.41,1.33,3.17,2.5,6.7,5.72,12.39,13.39,16.98,21.75.45.65.86,1.34,1.23,2.09.13.32.26.65.38.97,4.07,8.03,7.15,16.54,9.13,24.47.41.57.85,1.12,1.31,1.66.4.92.73,1.85,1.01,2.78,1.97,6.44,2.03,13.1.42,19.69.01,4.6-.13,9.52-.61,14.55Z"/>
      <path class="cls-3" d="M449.07,88.66c-.28,1.92-.93,3.67-.94,5.78-.01.94.05,1.87.17,2.81.6,4.68,2.56,9.47,1.69,14.24-.23,1.18-.49,2.34-.8,3.49-.31,1.15-.66,2.29-1.06,3.4-.51,1-1.04,1.98-1.59,2.96-1.66,2.92-3.47,5.79-5.23,8.73-.33.76-.55,1.52-.71,2.3-.78,3.87.22,7.89-.59,11.68-.65,2.45-2.28,3.84-4.63,4.35-1.02.43-2.07.79-3.13,1.11-6.33,1.9-13.02,2.24-17.82,7.52-.73.49-1.53.85-2.3,1.06-1.07.51-2.17.93-3.28,1.29-5.53,1.79-11.28,2.1-16.99-.17-.96-.35-1.92-.68-2.89-1-6.75-2.22-13.58-3.54-20.79-3.09-.95-.02-1.87-.12-2.77-.36-.87-.23-1.73-.6-2.57-1.17-.95-.6-1.8-1.31-2.63-2.07-4.08-3.85-7.56-8.65-11.76-12.36-.68-.76-1.31-1.55-1.87-2.38-1.67-2.47-2.75-5.39-2.87-9.02-.16-1.14-.29-2.29-.41-3.45-.49-4.62-.99-9.23-3.45-13.39-.53-.94-1.06-1.88-1.56-2.84-1.52-2.86-2.87-5.87-3.44-9.26-.17-1.04-.36-2.09-.57-3.12-.81-4.15-1.87-8.26-3.17-12.45-.33-.7,0-1.75.33-2.45.41-1.09.89-2.16,1.42-3.22,3.73-7.39,9.92-14.11,9.66-22.86,0-1.26-.06-2.52-.17-3.78-.31-3.79-1.07-7.6-2.14-11.37-.33-1.57.33-2.8,1.32-3.81s2.34-1.81,3.4-2.52c.8-.47,1.62-.89,2.44-1.29,4.14-2.01,8.48-3.5,11.27-7.49.73-.9,1.45-1.79,2.19-2.66,2.14-2.63,4.43-5.14,6.95-7.47.66-.64,1.32-1.28,1.98-1.92,1.97-1.94,3.92-3.94,5.87-6.04,3.25-3.14,7.15-6.29,11.76-6.36,1.01-.02,2.02.04,3.04.17,3.06.41,6.14,1.55,9.11,3.5.94.45,1.87.9,2.81,1.35,3.12,1.5,6.26,2.97,9.63,4.11.84.28,1.7.55,2.56.79,6.93.63,5.63,10.06,9.85,14.25,4.55,4.19,10.08,6.64,12.88,12.35.44,1.04.81,2.09,1.14,3.16.67,2.06,1.25,4.17,1.77,6.31.52,2.14.99,4.3,1.45,6.46.41,1.02.85,2.02,1.31,2.99,1.37,2.91,3.01,5.67,5.15,8.18.41.92.73,1.85,1.02,2.78,1.99,6.51,2.03,13.23.37,19.89-.14.8-.28,1.58-.42,2.35Z"/>
      <g>
        <path class="cls-1" d="M47.99,55.14c0,.55.04,1.1.08,1.65.05.55.07,1.1.08,1.65.01.65-.78,1.46-2.37,2.44-1.6.98-3.45,1.92-5.55,2.83-2.11.91-4.2,1.71-6.28,2.39-2.08.69-3.63,1.06-4.65,1.13-.59.06-1.17.12-1.75.18-.59.06-1.17.1-1.76.11-.81.01-1.96-.15-3.47-.5-1.51-.35-3.02-.8-4.53-1.35-1.51-.55-2.84-1.15-3.99-1.8-1.15-.65-1.8-1.25-1.95-1.8l-.02-.9c-.01-.85-.23-1.62-.64-2.31-.42-.69-.63-1.46-.64-2.31-.02-1.15-.29-2.18-.82-3.09-.53-.91-1.09-1.82-1.69-2.7-.6-.89-1.17-1.78-1.69-2.67-.53-.89-.8-1.88-.82-2.98-.04-2.05.02-3.87.18-5.47.15-1.6.59-3.08,1.3-4.44.71-1.36,1.77-2.65,3.17-3.87,1.41-1.22,3.34-2.5,5.81-3.84,1.59-.88,3.36-1.79,5.28-2.75,1.92-.96,3.46-1.99,4.62-3.11.79-.76,1.58-1.54,2.38-2.33.79-.79,1.64-1.5,2.54-2.14.9-.64,1.96-1.17,3.16-1.59,1.2-.42,2.57-.64,4.11-.67.88-.02,1.83.04,2.86.18,1.03.13,1.96.35,2.81.66.85.31,1.57.72,2.16,1.24.59.51.9,1.12.91,1.82.02.9-.3,1.6-.95,2.11-.65.51-1.47.92-2.45,1.24-.98.32-2.04.56-3.17.73-1.13.17-2.17.36-3.12.58-.8.16-1.48.36-2.02.6-.54.23-1.14.48-1.8.74-3,.35-5.6,1.28-7.81,2.79-2.21,1.51-3.92,3.18-5.13,4.99-.43.66-.98,1.59-1.65,2.8-.68,1.21-1.35,2.47-2.02,3.78-.67,1.31-1.26,2.57-1.75,3.77-.49,1.21-.73,2.11-.72,2.71l.03,1.8c.01.85.14,1.72.37,2.61.15.45.61,1.28,1.36,2.49.75,1.21,1.6,2.47,2.54,3.78.94,1.31,1.89,2.46,2.86,3.47.97,1.01,1.71,1.56,2.23,1.65.73.09,1.28.13,1.65.12.37,0,.69-.05.99-.13.29-.08.62-.12.99-.13.44,0,.86.04,1.27.13.4.09.83.14,1.27.13,1.02-.02,2.35-.4,3.99-1.15,1.64-.75,3.25-1.57,4.85-2.44,1.59-.88,3.05-1.69,4.35-2.43,1.3-.75,2.18-1.12,2.62-1.13.44,0,.95.02,1.54.09.59.06.88.3.89.7ZM8.25,37.77l-.11.08v.07s.11,0,.11,0v-.15ZM15.01,60.35v-.07s-.11.08-.11.08v.07s.11-.08.11-.08ZM17.97,60.07c0-.1-.11-.15-.33-.14l.33.14ZM18.08,60.07c0,.15.08.22.22.22,0-.15-.08-.22-.22-.22ZM18.31,60.29c0,.15.11.22.33.22,0-.15-.11-.22-.33-.22ZM20.96,61.44c-.3-.14-.61-.29-.94-.43-.33-.14-.68-.26-1.05-.36l-.33-.14c.37.29.63.53.78.7.15.17.52.35,1.11.54l.44-.08v-.22ZM29.39,21.01l-.11-.07v.07s.11,0,.11,0ZM40.4,16.55l1.43.13.33-.08c0-.2-.12-.37-.34-.52-.22.1-.42.11-.6.01-.19-.1-.39-.14-.61-.14l-.65.39.44.22ZM40.77,18.41l-.33-.14-.11.15.22.07.22-.08ZM41.82,16.07h.11s0-.08,0-.08l-.11.08ZM44.2,58.35l-.22.08.11.15.22-.08-.11-.15Z"/>
        <path class="cls-1" d="M94.19,13.9c1.76-.03,3.79.14,6.11.49,2.31.36,4.54.91,6.67,1.65,2.14.74,3.95,1.65,5.43,2.75,1.48,1.1,2.24,2.37,2.26,3.82,0,.25-.08.64-.25,1.17-.17.53-.37,1.09-.58,1.7-.21.6-.44,1.17-.69,1.7-.25.53-.44.94-.58,1.25-.21.5-.47,1.27-.78,2.3-.31,1.03-.62,2.12-.93,3.27-.31,1.15-.58,2.25-.82,3.27-.24,1.03-.35,1.77-.35,2.22.01.85.18,1.7.48,2.54.31.84.47,1.69.48,2.54.02,1.05-.24,2.11-.77,3.2-.53,1.08-1.25,2.11-2.14,3.07-.9.96-1.95,1.84-3.14,2.64-1.19.8-2.49,1.4-3.87,1.83-.73.26-1.4.54-2.02.82-.62.29-1.22.61-1.8.97-.87.57-1.81,1.04-2.83,1.43-1.02.39-2,.85-2.94,1.36-1.09.62-2.32,1.33-3.7,2.12-1.38.8-2.81,1.53-4.3,2.21-1.49.68-3.02,1.25-4.58,1.73-1.57.48-3.08.73-4.55.75-1.25.02-2.46-.08-3.63-.31-1.18-.23-2.28-.53-3.31-.92-2.06-.76-3.69-1.72-4.88-2.87-1.19-1.15-2.09-2.42-2.7-3.81-.61-1.39-1-2.83-1.17-4.32-.17-1.49-.27-2.97-.3-4.41-.05-2.7.46-5.31,1.51-7.85,1.06-2.54,2.4-5.02,4.05-7.45.29-.4.54-.82.75-1.25.21-.43.42-.84.64-1.25,1.13-2.12,2.64-4.24,4.5-6.37,1.87-2.13,4.03-4.08,6.49-5.84,2.46-1.76,5.22-3.21,8.28-4.34,3.06-1.13,6.38-1.72,9.97-1.78ZM61.61,55.5c-.15-.35-.25-.72-.29-1.12-.04-.4-.29-.72-.73-.96-.15.1-.22.23-.21.38,0,.35.14.66.4.93.26.27.54.53.84.77ZM107.51,34.87c-.01-.65-.06-1.22-.14-1.72-.08-.5-.53-.94-1.34-1.32-1.55-.72-3.32-1.39-5.31-2.01-1.99-.61-4.07-1.14-6.23-1.58-2.17-.44-4.34-.77-6.5-1.01-2.17-.24-4.2-.34-6.1-.31-1.98.03-3.95.18-5.92.44-1.97.26-3.5,1.05-4.57,2.36-1.87,2.33-3.62,4.59-5.27,6.79-1.65,2.2-2.71,4.65-3.17,7.36-.2,1.25-.51,2.49-.92,3.72-.42,1.23-.62,2.47-.6,3.72.01.8.19,1.61.54,2.42.34.82,1.07,1.42,2.17,1.8,2.14.71,4.31,1.34,6.51,1.87,2.21.54,4.38,1.21,6.52,2.02,1.03.38,2.01.76,2.93,1.15.92.38,1.9.72,2.93,1l-1.21.02.22.22c.37.14.7.21.99.21.36,0,.8-.19,1.31-.55.51-.36.98-.62,1.42-.77,1.89-.68,3.65-1.6,5.28-2.75,1.63-1.15,3.17-2.24,4.61-3.26.79-.61,1.33-1.31,1.61-2.09.28-.78.48-1.57.62-2.37.34-1.75,1.02-3.23,2.07-4.42,1.04-1.19,2.12-2.27,3.24-3.24,1.12-.97,2.13-1.88,3.03-2.75.9-.86,1.34-1.82,1.32-2.87l-.04-2.1ZM65.6,57.16c-.08-.15-.22-.22-.44-.22l-.44.08.88.13ZM65.33,35.14l.11.15.11-.15h-.22ZM79.4,61.19c-.3-.14-1.11-.44-2.43-.89-1.33-.45-2.74-.9-4.25-1.35-1.51-.45-2.91-.85-4.2-1.2-1.29-.35-2.08-.53-2.37-.52h-.44c.44.25,1.27.58,2.49,1.01,1.22.43,2.56.85,4.03,1.28,1.47.42,2.89.82,4.25,1.2,1.36.38,2.37.66,3.04.85l-.12-.37ZM66.08,34.3c.22-.05.4-.17.54-.35.14-.18.21-.34.21-.49v-.07c-.51.06-.84.31-.98.77l.22.15ZM69.08,29.39l.33.14c.29-.2.43-.41.43-.61l-.33-.07-.43.53ZM79.63,61.56c.59.09,1.03.13,1.32.13.15,0,.27-.02.38-.04.11-.03.24-.04.38-.04-.59-.09-1.03-.13-1.32-.13-.37,0-.62.04-.77.09ZM96.62,15.06c0,.15.15.27.45.37,1.18.28,2.26.55,3.25.81.99.26,2.04.58,3.15.96.07,0,.11.01.11.04,0,.03.04.04.11.04.15,0,.24-.07.27-.19.03-.12.05-.24.05-.34-.3-.29-.74-.55-1.33-.76-.59-.21-1.21-.39-1.88-.53-.66-.14-1.32-.24-1.98-.3-.66-.06-1.25-.09-1.76-.08h-.44ZM109.77,19.25c.15,0,.22-.05.22-.15-.22-.25-.56-.54-1-.88-.44-.34-.95-.66-1.5-.95-.55-.29-1.13-.53-1.72-.72-.59-.19-1.1-.28-1.54-.27-.15,0-.2.05-.16.15.04.1.06.17.06.22v.07c.3.19.54.42.73.66.19.25.5.42.94.51.22.05.53.14.94.28.4.14.81.3,1.22.47.4.17.79.31,1.16.43.37.12.59.18.66.18ZM104.45,48.47c-.07,0-.11.03-.11.08l.11.07c.15,0,.22-.03.22-.08v-.07s-.22,0-.22,0ZM108.46,39.12h-.22c-.15,0-.31.11-.49.31-.18.2-.36.43-.54.68-.18.25-.32.5-.43.76-.11.25-.16.43-.16.53v.37s.67.14.67.14c.58-.16.93-.5,1.03-1.03.1-.53.22-.99.36-1.39l-.23-.37ZM108.95,29l-.55-.29-.11.23c0,.2.11.3.33.29h.11s.22-.23.22-.23ZM109.55,32.43s-.04-.07-.11-.07c-.07,0-.11.03-.11.08v.15s.22,0,.22,0v-.15Z"/>
        <path class="cls-1" d="M157.68,20.22c.95.03,2.45.1,4.51.18,2.05.09,4.12.24,6.22.45,2.09.21,3.93.54,5.51.99,1.58.45,2.38,1.04,2.39,1.79,0,.55-.35,1.07-1.07,1.55-.73.49-1.6.93-2.61,1.32-1.02.39-2.04.73-3.06,1.03-1.02.29-1.86.52-2.52.68-.95.27-1.86.57-2.73.91-.87.34-1.82.57-2.84.69-.29.11-.62.26-.98.47-.36.21-.65.39-.87.54-.37.16-.76.33-1.2.51-.44.18-.88.25-1.31.21l-.44-.14.1-.38c.51-.26,1-.54,1.47-.85.47-.31,1.04-.47,1.69-.48.44,0,.73.04.88.13h.22c-.08-.4.15-.82.69-1.25.54-.43.81-.88.8-1.32-.01-.8-.41-1.52-1.19-2.15-.78-.64-1.72-1.17-2.83-1.6-1.11-.43-2.3-.75-3.59-.95-1.29-.2-2.44-.3-3.46-.28-1.76.03-3.42.35-4.98.95-1.57.6-3.04,1.35-4.41,2.25-1.38.9-2.62,1.88-3.74,2.95-1.12,1.07-2.07,2.06-2.86,2.97-.22.25-.43.52-.65.8-.21.28-.32.59-.31.94.02,1,.56,1.83,1.64,2.48,1.07.66,2.27,1.05,3.59,1.17l.11.15-.11.15c-.44.11-.8.16-1.1.17-1.03.02-2.02-.24-2.98-.77-.96-.53-1.74-1.07-2.33-1.61.23.85.9,1.52,2.01,2.03,1.11.51,2.28.75,3.53.73.8-.01,1.61-.13,2.41-.34.8-.21,1.49-.52,2.07-.93-.29,0-.55.05-.77.13-.22.08-.48.07-.77-.02.14-.15.8-.47,1.96-.97,1.16-.49,2.45-.99,3.87-1.49,1.42-.5,2.77-.95,4.04-1.34,1.27-.4,2.09-.6,2.46-.6.29,0,.51.04.66.14-.29.5-1.19,1.13-2.71,1.88-1.52.75-3.14,1.55-4.85,2.41-1.71.85-3.25,1.77-4.62,2.74-1.37.97-2.05,1.96-2.04,2.96,0,.4.09.86.24,1.38.15.52.42.95.79,1.3.15.1.28.21.39.33.11.12.17.26.17.41l.33.22c.37.14,1.09.38,2.15.71,1.07.33,2.21.67,3.42,1.03,1.21.35,2.33.66,3.37.92,1.03.26,1.65.38,1.87.38,1.02-.02,2.44.03,4.23.15,1.8.12,3.58.35,5.34.69,1.76.34,3.29.82,4.58,1.42,1.29.6,1.95,1.4,1.96,2.4.02.9-.36,1.57-1.12,2-.76.44-1.77.67-3.01.69-2.56.04-4.49-.2-5.78-.72-1.29-.53-2.36-1.16-3.22-1.89-.85-.73-1.73-1.47-2.62-2.2-.89-.73-2.22-1.26-3.98-1.58-1.18-.23-2.32-.55-3.42-.95-1.1-.4-2.21-.8-3.32-1.18-1.1-.38-2.26-.72-3.48-1.03-1.21-.3-2.52-.44-3.91-.42-.22,0-.6.02-1.15.06-.55.04-.82.15-.82.35l-.11.15c-.44-.09-.88-.08-1.32.02-1.6.58-2.84,1.21-3.7,1.9-.87.69-1.53,1.42-2,2.21-.46.78-.8,1.64-1,2.56-.2.93-.44,1.94-.72,3.05-.21.7-.49,1.54-.84,2.52-.35.98-.81,1.95-1.38,2.91-.57.96-1.29,1.81-2.15,2.55-.87.74-1.92,1.19-3.16,1.36l-.66.09c-1.17.02-1.91-.32-2.21-1.01-.31-.69-.46-1.34-.47-1.94-.05-2.85.82-5.61,2.6-8.28,1.64-2.47,2.95-5.12,3.93-7.93.56-1.61,1.3-3.18,2.23-4.72.92-1.54,1.87-3.05,2.83-4.54.96-1.49,1.87-3,2.72-4.54.85-1.54,1.52-3.11,2.01-4.72.48-1.7.97-3.36,1.45-4.97.48-1.61,1.08-3.24,1.78-4.9.56-1.36,1.48-2.57,2.74-3.64,1.26-1.07,3.06-1.63,5.41-1.67,1.76-.03,3.17.24,4.24.83,1.07.58,2.04,1.25,2.89,2.01.85.76,1.67,1.51,2.46,2.24.78.74,1.76,1.24,2.94,1.52-.15.1-.33.16-.55.16-.22,0-.44.03-.66.09.96.48,1.99.71,3.09.7.37,0,.69-.09.98-.24l.66-.16ZM119.38,60.8l-.22-.22-.33.23.22.22.33-.23ZM126.71,46.07c-.65.26-.98.57-.97.92v.15c.22,0,.48-.13.76-.39.29-.25.43-.46.43-.61l-.22-.07ZM134.79,43.24l.66.06.11-.15-.34-.37-.55.08.12.37ZM146.74,16.37c-.38-.49-1.05-1.09-2.01-1.8-.96-.71-1.89-1.05-2.76-1.04-.29,0-.48.08-.54.23-.07.15-.1.3-.1.45.01.7.07,1.12.19,1.27.11.15.68.21,1.71.2.44,0,1.03.11,1.76.34.73.24,1.33.43,1.77.57v-.22ZM149.47,47.33l.11.07c-.15,0-.22-.02-.22-.07h.11ZM149.69,47.4c.29,0,.44.07.44.22-.15,0-.33-.07-.55-.22h.11ZM150.24,47.61c.15,0,.29.05.44.14-.22,0-.4-.04-.55-.14h.11ZM150.79,47.75c.15,0,.22.07.22.22l-.22-.22ZM151.13,47.97v.07s-.11-.07-.11-.07h.11ZM151.13,47.97c.22-.05.44,0,.66.14l-.66-.14ZM151.9,48.11c.29,0,.48.07.55.22l-.55-.22ZM152.75,20.83l-.11-.15h-.22s.11.15.11.15h.22ZM154.93,19.97l-.11-.07.22.07h-.11ZM157.85,49.35c.89.63,1.78,1.01,2.66,1.12.88.11,1.91.28,3.08.51l.55-.08c-.22-.15-.59-.31-1.11-.5-.52-.19-1.07-.37-1.66-.53-.59-.16-1.16-.29-1.71-.38-.55-.09-1.01-.13-1.38-.13h-.44ZM171.45,22.38l-.33-.22c-1.33-.48-2.72-.81-4.19-1.01-1.47-.2-2.94-.34-4.4-.41.37.24.79.47,1.28.69.48.22.94.45,1.39.69l.55.07h.22c.8-.02,1.63.04,2.48.18.84.14,1.71.2,2.58.18l.44-.16ZM164.18,53.07l-.22-.15-.11.15.22.15.11-.15ZM167.76,25.29l-.22-.22-.43.31.33.14.33-.23Z"/>
        <path class="cls-1" d="M226.44,19.57c.51,0,.9.1,1.16.32.26.22.46.48.62.78.15.3.25.62.29.97.04.35.07.65.07.9.02,1.1-.23,2.35-.76,3.76-.52,1.41-1.16,2.83-1.9,4.26-.74,1.44-1.53,2.85-2.34,4.23-.82,1.39-1.51,2.64-2.08,3.74-.42.86-.72,1.72-.89,2.6-.17.88-.39,1.74-.67,2.59-.35,1.01-.72,2.02-1.1,3.05-.39,1.03-.57,2.07-.55,3.12.01.75.26,1.44.75,2.08.49.64.74,1.24.75,1.78,0,.4-.15.81-.47,1.24-.32.43-.48.92-.47,1.47,0,.25.05.51.12.78.08.27.12.54.12.78,0,.4-.17.8-.53,1.21-.36.36-.59.8-.69,1.32-.1.53-.26,1.04-.47,1.54-.21.5-.52.93-.91,1.29-.4.36-1.11.54-2.13.56-1.25.02-2.44-.48-3.6-1.51-1.15-1.03-2.22-2.22-3.19-3.58-.98-1.36-1.8-2.71-2.49-4.08-.68-1.36-1.21-2.36-1.59-3.01-.6-.99-1.59-1.68-2.95-2.08-1.36-.4-2.78-.59-4.24-.56-1.76.03-3.22.22-4.38.56-1.17.35-2.15.82-2.94,1.44-.8.61-1.46,1.34-2,2.17-.53.83-1.01,1.75-1.44,2.76-.28.55-.69,1.32-1.22,2.31-.53.98-1.18,1.96-1.93,2.92-.75.96-1.6,1.8-2.54,2.51-.94.72-1.92,1.08-2.95,1.1-.88.02-1.56-.24-2.04-.75-.49-.52-.73-1.05-.74-1.6-.03-1.55.35-3.15,1.13-4.81.78-1.66,1.74-3.15,2.89-4.47,1.15-1.32,2.24-2.91,3.27-4.77,1.03-1.86,1.95-3.82,2.76-5.85.81-2.04,1.43-4.04,1.87-6.02.44-1.98.65-3.74.62-5.29-.03-2-.45-3.92-1.25-5.78-.8-1.86-1.22-3.74-1.25-5.63-.01-.8.03-1.65.12-2.55.09-.9.35-1.73.78-2.48s1.09-1.38,2-1.87c.91-.49,2.17-.75,3.78-.78,1.9-.03,3.45.39,4.64,1.27,1.19.88,2.12,1.94,2.8,3.17.68,1.24,1.14,2.54,1.39,3.91.24,1.37.37,2.53.39,3.48.02.9-.04,1.79-.17,2.66-.13.88-.19,1.76-.17,2.66.02,1.05.2,2.03.54,2.95.35.92.87,1.72,1.58,2.41.71.69,1.65,1.22,2.83,1.6,1.18.38,2.61.55,4.29.53,2.12-.04,3.97-.32,5.53-.84,1.56-.53,2.52-1.57,2.86-3.12.21-.75.52-1.87.93-3.35.41-1.48.99-2.95,1.74-4.41.74-1.46,1.66-2.75,2.73-3.87,1.08-1.12,2.31-1.69,3.71-1.71ZM194.95,15.69c-.23-.54-.64-1.09-1.24-1.63-.6-.54-1.37-.8-2.32-.78-.44,0-1.04.13-1.81.37-.77.24-1.14.53-1.14.88,0,.35.21.61.62.78.4.17.83.25,1.27.24.29,0,.53-.03.71-.09.18-.05.42-.11.71-.16,1.1.23,2.02.46,2.76.7h.33s.1-.31.1-.31ZM196.48,47.19c.15,0,.29-.05.44-.16.14-.1.25-.2.32-.31l-.55-.22c-.15,0-.33.13-.54.38l.33.29ZM219.42,33.39l-.76.31c-.65.66-1.24,1.23-1.78,1.72-.54.48-1.16.88-1.85,1.19-.69.31-1.47.54-2.35.68-.88.14-1.97.22-3.29.24-1.54.03-3.15-.13-4.84-.48-1.69-.34-3.09-.91-4.2-1.69-.15-.1-.28-.19-.39-.29-.11-.1-.28-.12-.5-.07.01.65.39,1.22,1.13,1.7.74.49,1.64.9,2.71,1.23,1.07.33,2.15.57,3.25.73,1.1.16,2.02.23,2.75.22,1.02-.02,2.14-.14,3.34-.36,1.21-.22,2.32-.55,3.33-.99,1.02-.44,1.87-.98,2.55-1.62.68-.64,1.06-1.38,1.11-2.23l-.23-.3ZM214.33,62.99l-.11-.15-.44.23.11.22.43-.31ZM226.25,21.22l-.23-.37c-.07-.05-.18-.07-.33-.07-.59.01-1.15.29-1.69.85-.54.56-.81,1.04-.8,1.44,0,.1.04.21.12.34.07.12.19.18.33.18.29,0,.8-.29,1.52-.85.72-.56,1.08-1.02,1.08-1.37v-.15Z"/>
        <path class="cls-1" d="M268.49,11.73c.66-.01,1.9-.06,3.73-.14,1.83-.08,3.73-.11,5.71-.1,1.98.02,3.72.15,5.23.4,1.5.25,2.26.72,2.28,1.42.02.95-.56,1.66-1.72,2.13-1.16.47-2.66.83-4.49,1.09-1.83.26-3.84.47-6.03.63-2.19.16-4.31.41-6.36.75-2.05.33-3.87.83-5.47,1.48-1.6.65-2.72,1.56-3.36,2.72-.21.4-.48.87-.8,1.4-.32.53-.64,1.07-.96,1.63-.32.56-.59,1.1-.8,1.62-.21.53-.31,1.02-.3,1.47.02,1.05.25,1.84.7,2.38.45.54,1.06.96,1.83,1.24.77.29,1.64.51,2.59.67.95.16,1.95.4,2.98.74.52.39,1.46.66,2.82.81,1.36.15,2.77.3,4.24.45,1.47.15,2.84.36,4.13.64,1.29.28,2.12.74,2.5,1.38,0,.3-.3.54-.92.73-.62.19-1.07.41-1.36.66-.07.05-.13.11-.16.19-.04.08-.13.11-.27.12-.15,0-.35-.03-.61-.1-.26-.07-.46-.1-.61-.1-.95.02-1.9.08-2.85.2-.95.12-1.94.18-2.96.2-1.61.03-3.22-.02-4.84-.14-1.61-.12-3.23-.17-4.84-.14-2.05.04-3.86.42-5.42,1.14-1.56.73-2.88,1.64-3.96,2.73-1.08,1.09-1.88,2.29-2.41,3.6-.53,1.31-.78,2.56-.76,3.76.01.75.08,1.43.2,2.06.12.62.38,1.17.8,1.63.41.47,1,.83,1.78,1.09.77.26,1.78.38,3.03.36.37,0,.68-.04.93-.09.25-.05.56-.08.93-.09.66-.01,1.21.13,1.66.42s1.07.43,1.87.42c1.24-.02,2.32-.2,3.23-.54.91-.34,1.73-.7,2.45-1.09.72-.39,1.4-.74,2.01-1.05.62-.31,1.26-.47,1.91-.48.58-.01,1.08.07,1.49.24.4.17.85.36,1.33.58.48.22,1.07.42,1.77.61.7.19,1.63.27,2.81.25.81-.01,1.59-.06,2.36-.15.77-.09,1.55-.14,2.36-.15,1.83-.03,3.25.36,4.25,1.16,1,.81,1.51,1.78,1.53,2.93,0,.5-.19.99-.58,1.47-.4.48-1.03.73-1.91.74-2.05.04-3.93.24-5.65.62-1.72.38-3.19.8-4.43,1.27-1.24.47-2.26.89-3.05,1.25-.8.36-1.38.55-1.75.55-.44,0-.95-.07-1.54-.24-.59-.16-1.2-.35-1.82-.57-.63-.21-1.23-.44-1.82-.68-.59-.24-1.11-.43-1.55-.57-.88-.28-1.51-.62-1.89-1.02-.37-.39-.82-.75-1.34-1.06-.52-.31-1.27-.59-2.27-.82-.99-.23-2.48-.33-4.45-.3-1.9.03-3.75.24-5.54.62-1.79.38-3.6.59-5.43.62-2.05.04-3.56-.44-4.53-1.42-.97-.98-1.46-2.1-1.49-3.34-.02-1.3.4-2.56,1.25-3.8.86-1.24,1.57-2.46,2.13-3.67.57-1.16,1.05-2.56,1.47-4.22.41-1.65.78-3.37,1.12-5.15.34-1.78.58-3.52.73-5.22.15-1.7.22-3.15.2-4.35-.01-.85-.16-1.66-.43-2.43-.27-.77-.56-1.54-.86-2.31-.31-.77-.59-1.54-.86-2.31-.27-.77-.41-1.55-.42-2.35,0-.4,0-.79.04-1.16.03-.38.08-.76.14-1.16.13-1.05.45-1.77.95-2.15.5-.38,1.49-.76,2.95-1.14,1.9-.48,3.79-.93,5.69-1.33,1.9-.41,3.83-.63,5.81-.66,2.64-.05,5.29.05,7.97.27,2.68.23,5.33.32,7.97.28ZM251.13,18.02c-.16-.45-.29-.79-.4-1.04-.11-.25-.57-.36-1.38-.35-.44,0-1.01.12-1.7.33-.69.21-1.04.52-1.03.92,0,.35.27.52.78.51.44,0,.88-.04,1.32-.1.44-.06.84-.14,1.2-.25l.88.21.33-.23ZM249.24,55.2c.15.1.33.14.55.14.22,0,.44,0,.66-.01,1.83-.03,3.48.19,4.95.66l.66-.09-.33-.22c-.29-.04-.86-.18-1.71-.42-.85-.23-1.34-.35-1.49-.35-.29,0-.88.03-1.76.07-.88.04-1.39.11-1.54.21ZM250.91,56.22l-.33-.07c-.22,0-.33.06-.33.16l.33.14.33-.23ZM279.6,12.51c-.22-.15-.92-.23-2.09-.26-1.17-.03-2.49-.03-3.96,0-1.47.03-2.87.06-4.23.11-1.35.05-2.25.08-2.69.08-2.34.04-4.69-.04-7.04-.25-2.35-.21-4.69-.29-7.04-.25-.59.01-1.17.17-1.75.48l-.11.15.22.15c.36-.06.77-.09,1.21-.1.44,0,.84-.01,1.21-.02,2.64-.05,5.25,0,7.86.13,2.6.13,5.22.17,7.86.13,1.68-.03,3.4-.07,5.16-.13,1.76-.05,3.48-.1,5.16-.13l.22-.08ZM265.97,56.86l.44-.08.11-.23-.33-.22-.65.31.44.22ZM265.9,53.19c0,.25.17.36.5.33.33-.03.6-.02.82.02v-.07c0-.15-.12-.3-.34-.44-.22-.15-.44-.22-.66-.21h-.11s-.22.16-.22.16v.22ZM267.9,35.11h.55c-.07-.06-.26-.08-.55-.07v.07ZM272.41,54.88c.37.04.71.06,1.04.06.33,0,.68-.01,1.04-.02,1.17-.02,2.34-.12,3.51-.28l.22-.15-.22-.15c-1.83.03-3.62.14-5.38.32l-.22.23Z"/>
        <path class="cls-1" d="M333.5,17.2c.95.03,2.45.1,4.51.18,2.05.09,4.12.24,6.21.45,2.09.21,3.93.54,5.51.99,1.58.45,2.38,1.04,2.39,1.79,0,.55-.35,1.07-1.07,1.55-.72.49-1.6.93-2.61,1.32-1.02.39-2.04.74-3.06,1.03-1.02.29-1.86.52-2.52.68-.95.27-1.86.57-2.73.91-.87.34-1.82.57-2.84.69-.29.11-.62.26-.98.47-.36.21-.65.39-.87.54-.37.16-.76.33-1.2.51-.44.18-.88.25-1.31.21l-.44-.14.1-.38c.51-.26,1-.54,1.47-.85.47-.31,1.04-.47,1.69-.48.44,0,.73.04.88.13h.22c-.08-.4.15-.82.69-1.25.54-.43.81-.88.8-1.32-.01-.8-.41-1.52-1.19-2.15-.78-.64-1.72-1.17-2.83-1.6-1.11-.43-2.3-.75-3.59-.95-1.29-.2-2.44-.29-3.46-.28-1.76.03-3.42.35-4.98.95-1.57.6-3.04,1.35-4.41,2.25-1.38.9-2.62,1.88-3.74,2.95-1.12,1.07-2.07,2.06-2.86,2.97-.21.25-.43.52-.65.8-.21.28-.32.59-.31.94.02,1,.56,1.83,1.64,2.48,1.07.66,2.27,1.05,3.59,1.17l.11.15-.11.15c-.44.11-.8.16-1.1.17-1.03.02-2.02-.24-2.98-.77-.96-.53-1.74-1.07-2.33-1.61.23.85.9,1.52,2.01,2.03,1.11.51,2.28.75,3.53.73.81-.01,1.61-.13,2.41-.34.8-.21,1.49-.52,2.07-.93-.29,0-.55.05-.77.13-.22.08-.48.07-.77-.02.14-.15.8-.47,1.96-.97,1.16-.49,2.45-.99,3.87-1.49,1.42-.5,2.77-.95,4.04-1.34,1.27-.4,2.09-.6,2.46-.6.29,0,.51.04.66.14-.29.5-1.19,1.13-2.71,1.88-1.52.75-3.14,1.55-4.85,2.41-1.71.85-3.25,1.77-4.62,2.74-1.37.97-2.05,1.96-2.04,2.96,0,.4.09.86.24,1.38.15.52.42.95.79,1.3.15.1.28.21.39.33.11.12.17.26.17.41l.33.22c.37.14,1.09.38,2.15.71,1.07.33,2.21.67,3.42,1.03,1.21.35,2.33.66,3.37.92,1.03.26,1.65.38,1.87.38,1.02-.02,2.43.03,4.23.15,1.8.12,3.58.35,5.34.69,1.76.34,3.29.82,4.58,1.42,1.29.6,1.95,1.4,1.96,2.4.02.9-.36,1.57-1.12,2-.76.44-1.77.67-3.01.69-2.56.04-4.49-.2-5.78-.72-1.29-.53-2.36-1.16-3.22-1.89-.85-.73-1.73-1.47-2.62-2.2-.89-.73-2.22-1.26-3.98-1.58-1.18-.23-2.32-.55-3.42-.95-1.1-.4-2.21-.8-3.32-1.18-1.1-.38-2.26-.72-3.48-1.03-1.21-.3-2.52-.44-3.91-.42-.22,0-.6.02-1.15.06-.55.04-.82.15-.82.35l-.11.15c-.44-.09-.88-.08-1.32.02-1.6.58-2.84,1.21-3.7,1.9-.87.69-1.53,1.42-2,2.21-.46.78-.8,1.64-1,2.56-.2.93-.44,1.94-.72,3.05-.21.7-.49,1.54-.84,2.52-.35.98-.81,1.95-1.38,2.91-.57.96-1.29,1.81-2.15,2.55-.87.74-1.92,1.19-3.16,1.36l-.66.09c-1.17.02-1.91-.32-2.21-1.01-.31-.69-.46-1.34-.47-1.94-.05-2.85.82-5.61,2.6-8.28,1.64-2.47,2.95-5.12,3.93-7.93.56-1.61,1.3-3.18,2.23-4.72.92-1.54,1.87-3.05,2.83-4.54.96-1.49,1.87-3,2.72-4.54.85-1.54,1.52-3.11,2.01-4.72.48-1.7.97-3.36,1.45-4.97.48-1.61,1.08-3.24,1.78-4.9.56-1.36,1.48-2.57,2.74-3.64,1.26-1.07,3.06-1.63,5.41-1.67,1.76-.03,3.17.24,4.24.83,1.07.58,2.04,1.25,2.89,2.01.85.76,1.67,1.51,2.46,2.24.78.74,1.76,1.24,2.94,1.52-.15.1-.33.16-.55.16-.22,0-.44.03-.66.09.96.48,1.99.71,3.09.7.37,0,.69-.09.98-.24l.66-.16ZM295.2,57.78l-.22-.22-.33.23.22.22.33-.23ZM302.53,43.05c-.65.26-.98.57-.97.92v.15c.22,0,.48-.13.77-.39.29-.25.43-.46.43-.61l-.22-.07ZM310.61,40.22l.66.06.11-.15-.34-.37-.55.08.12.37ZM322.56,13.35c-.38-.49-1.05-1.09-2.01-1.8-.96-.71-1.89-1.05-2.76-1.04-.29,0-.48.08-.54.23-.07.15-.1.3-.1.45.01.7.07,1.12.19,1.27.11.15.68.21,1.71.2.44,0,1.03.11,1.76.34.73.24,1.33.43,1.77.57v-.22ZM325.29,44.31l.11.07c-.15,0-.22-.02-.22-.07h.11ZM325.51,44.38c.29,0,.44.07.44.22-.15,0-.33-.07-.55-.22h.11ZM326.07,44.59c.15,0,.29.05.44.14-.22,0-.4-.04-.55-.14h.11ZM326.62,44.73c.15,0,.22.07.22.22l-.22-.22ZM326.95,44.95v.07s-.11-.07-.11-.07h.11ZM326.95,44.95c.22-.05.44,0,.66.14l-.66-.14ZM327.72,45.09c.29,0,.48.07.55.22l-.55-.22ZM328.57,17.81l-.11-.15h-.22s.11.15.11.15h.22ZM330.75,16.95l-.11-.07.22.07h-.11ZM333.67,46.34c.89.63,1.78,1.01,2.66,1.12.88.11,1.91.28,3.08.51l.55-.08c-.22-.15-.59-.31-1.11-.51-.52-.19-1.07-.37-1.66-.53-.59-.16-1.16-.29-1.71-.38-.55-.09-1.01-.13-1.38-.13h-.44ZM347.27,19.37l-.33-.22c-1.33-.48-2.72-.81-4.19-1.01-1.47-.2-2.94-.34-4.4-.41.37.24.79.47,1.28.69.48.22.94.45,1.38.69l.55.07h.22c.8-.02,1.63.04,2.47.18.84.14,1.71.2,2.58.18l.44-.16ZM340,50.05l-.22-.15-.11.15.22.15.11-.15ZM343.59,22.27l-.22-.22-.43.31.33.14.33-.23Z"/>
      </g>
      <g>
        <path class="cls-1" d="M40.9,95.8c-1.27.02-2.53.26-3.79.73-1.26.46-2.39,1.07-3.39,1.82-1,.75-1.81,1.65-2.43,2.69-.62,1.04-.92,2.15-.9,3.32.02,1.25.4,2.22,1.13,2.9.73.69,1.69,1.26,2.88,1.71,1.19.46,2.53.91,4.02,1.36,1.49.45,2.98,1.05,4.47,1.8,1.49.75,2.93,1.71,4.3,2.9,1.37,1.19,2.54,2.77,3.51,4.73.35.66.53,1.42.55,2.31,0,.37,0,.7-.05.99-.04.3-.05.63-.05.99.03,1.47-.25,2.87-.82,4.2-.57,1.33-1.27,2.63-2.09,3.89-.83,1.26-1.71,2.49-2.67,3.68-.95,1.19-1.8,2.38-2.54,3.57-.41.6-.87,1.28-1.36,2.06-.49.78-1.05,1.54-1.67,2.29-.62.75-1.29,1.38-2,1.91-.71.53-1.53.87-2.46,1.03l-9.49,1.49c-.16.81-.37,1.7-.65,2.66-.28.96-.69,1.85-1.22,2.67-.54.82-1.2,1.49-2,2.02-.8.53-1.78.8-2.97.82-1.69.03-3.16-.22-4.39-.75-1.24-.53-2.33-1.45-3.28-2.75-1.13-1.67-2.36-3.39-3.71-5.17-1.34-1.78-2.58-3.61-3.71-5.5-1.13-1.89-2.1-3.82-2.89-5.79S.04,132.43,0,130.45c0-.51.04-1.08.16-1.71.12-.62.34-1.22.67-1.77.33-.56.72-1.02,1.18-1.4.46-.37,1.07-.57,1.83-.58.84-.01,1.91.35,3.19,1.1,1.28.75,2.71,1.7,4.3,2.85,1.58,1.15,3.25,2.39,5.01,3.72,1.76,1.33,3.53,2.57,5.33,3.71,1.8,1.15,3.61,2.09,5.44,2.83,1.83.74,3.55,1.1,5.16,1.07,1.44-.02,2.7-.47,3.78-1.33,1.08-.86,1.98-1.91,2.67-3.13.7-1.22,1.23-2.54,1.58-3.94.36-1.4.53-2.62.51-3.65-.08-4.55-.83-7.94-2.27-10.15-1.43-2.22-3.22-3.8-5.35-4.76-2.13-.95-4.4-1.56-6.82-1.81-2.42-.25-4.69-.75-6.81-1.48-2.13-.73-3.9-1.97-5.33-3.71-1.43-1.74-2.17-4.55-2.24-8.45-.05-2.79.69-5.34,2.22-7.64,1.52-2.3,3.5-4.28,5.93-5.94,2.42-1.66,5.15-2.95,8.18-3.89,3.03-.93,6.02-1.43,8.98-1.48,1.94-.03,4.12.06,6.54.27,2.41.22,4.69.67,6.81,1.37,2.13.7,3.92,1.71,5.38,3.05,1.46,1.34,2.21,3.14,2.25,5.42.04,2.5-1,4.31-3.14,5.45-2.14,1.14-4.48,1.73-7.01,1.77-1.19.02-2.39-.05-3.62-.21-1.23-.16-2.44-.23-3.62-.21ZM5.41,127.93c.34.14.66.3.96.48.3.18.66.26,1.08.26-.1-.59-.42-1-.97-1.25-.56-.25-1.05-.51-1.47-.8l-.24.56.65.76ZM7.72,128.99l-.26-.22.14.55.12-.33ZM15.64,95.36l-.13-.11-.25.33.26.22.12-.44ZM20.19,138.36l1.39-.13h-.76c-.34.02-.55.06-.63.13v-.66s0,.66,0,.66ZM21.58,138.45c0,.22.11.38.33.49.21.11.4.23.58.38l-.26-.55-.64-.54v.22ZM23.25,139.52h.25s-.64-.32-.64-.32l-.38.12.77.21ZM31.16,141.7c.42,0,.76-.12,1.01-.35-1.44-.27-2.86-.54-4.27-.81-1.4-.27-2.82-.61-4.27-1.03l.13.44c1.19.57,2.38,1.01,3.58,1.32,1.19.31,2.46.45,3.81.43ZM33.4,109.71c.43.21,1.11.53,2.05.96.94.42,1.92.89,2.94,1.38,1.02.5,1.96.94,2.81,1.33.85.39,1.41.58,1.66.58,0-.29-.39-.67-1.16-1.14-.77-.46-1.62-.91-2.56-1.33-.94-.42-1.88-.81-2.81-1.16-.94-.35-1.58-.6-1.92-.74l-1.01.13ZM51.46,82.62c-1.28-.93-2.71-1.48-4.28-1.63-1.57-.16-3.16-.29-4.77-.41l8.41,2.17.63-.12ZM42.86,113.95l.39.43h.38s-.26-.33-.26-.33l-.51-.1Z"/>
        <path class="cls-1" d="M136.18,87.56c.76-.01,1.63.07,2.61.23.97.17,1.89.45,2.74.83.85.39,1.58.84,2.18,1.34.6.5.91,1.09.92,1.75.02.88-.29,1.59-.92,2.11-.63.53-1.34.94-2.14,1.25-.8.31-1.6.51-2.4.59-.8.09-1.37.13-1.71.14-1.02.02-2.05-.06-3.11-.22-1.06-.16-2.06-.24-2.99-.22-.34,0-.61.05-.82.12-.21.08-.48.19-.82.34-.25.15-.48.23-.69.23-.21,0-.44.05-.7.12-2.27.55-4.22,1.56-5.85,3.02-1.62,1.46-3.1,2.97-4.43,4.54-.91,1.05-1.91,2.02-3,2.92-1.08.9-2.17,1.84-3.25,2.81-1.25,1.12-2.55,3.04-3.9,5.74-1.35,2.71-2.76,5.74-4.22,9.11-1.46,3.37-2.99,6.87-4.58,10.49-1.59,3.63-3.24,6.94-4.97,9.95-1.73,3-3.48,5.5-5.26,7.47-1.79,1.98-3.61,2.98-5.47,3.01-1.19.02-2.27-.4-3.26-1.27-.99-.86-1.49-1.77-1.51-2.73-.02-1.1.13-2.3.45-3.59.31-1.29.74-2.58,1.27-3.88.53-1.29,1.14-2.54,1.84-3.72.7-1.19,1.38-2.23,2.04-3.12.33-.45.86-1.34,1.6-2.67.74-1.33,1.58-2.85,2.52-4.56.94-1.71,1.88-3.54,2.82-5.5.94-1.96,1.82-3.81,2.63-5.55.81-1.74,1.47-3.28,1.95-4.61.48-1.33.72-2.22.72-2.66-.01-.59-.09-1.32-.23-2.2-.14-.88-.31-1.79-.49-2.75-.19-.95-.39-1.85-.62-2.69-.23-.84-.43-1.52-.61-2.03-.97-2.48-2.53-4.53-4.67-6.15-2.14-1.62-4.45-2.97-6.92-4.07-2.47-1.1-4.92-1.99-7.34-2.68-2.42-.69-4.4-1.28-5.93-1.77-1.96-.7-3.11-1.43-3.46-2.2-.35-.77-.53-1.51-.55-2.25-.03-1.47.8-2.55,2.48-3.24,1.68-.69,3.49-1.05,5.44-1.08,1.52-.03,3.02.08,4.51.31,1.48.23,2.99.33,4.51.31.76-.01,1.69,0,2.79.06,1.1.06,2.2.13,3.3.22,1.1.09,2.16.22,3.18.39,1.02.17,1.91.35,2.67.56l.89.32c1.36.57,2.64,1.02,3.83,1.37,1.19.35,2.51.69,3.95,1.03,1.96.55,4.1.98,6.43,1.27,2.33.29,4.39.79,6.18,1.49.42.14,1.15.37,2.17.68,1.02.31,2.1.62,3.25.94,1.15.31,2.25.57,3.31.77,1.06.2,1.76.3,2.1.29,1.61-.03,3.19-.15,4.75-.36,1.56-.21,3.14-.33,4.75-.36ZM83.91,80.74l-.77-.32c-1.19-.05-2.39-.11-3.62-.16-1.23-.05-2.44-.14-3.62-.27l-.38.12c1.36.57,2.74.87,4.14.92,1.4.05,2.81.06,4.25.04v-.33ZM137.35,89.19c-.18-.36-.5-.56-.96-.59-.47-.03-.87-.04-1.21-.03-.68.01-1.29.13-1.83.36-.55.23-1.07.35-1.58.36-3.04.05-5.9-.14-8.58-.57-2.67-.43-5.28-.96-7.83-1.57-2.55-.62-5.1-1.27-7.65-1.96-2.55-.69-5.27-1.27-8.15-1.73-1.27-.2-2.4-.47-3.38-.82-.98-.35-1.96-.68-2.94-1-.98-.31-2.02-.57-3.12-.77-1.1-.2-2.42-.33-3.94-.37l-.76.34v.11c0,.15.24.29.71.43.47.14.79.21.96.2,1.44.12,2.8.25,4.07.37,1.27.13,2.59.43,3.95.92,1.62.56,3.93,1.25,6.95,2.08,3.02.83,6.22,1.62,9.62,2.37,3.4.75,6.64,1.39,9.74,1.93,3.1.54,5.49.79,7.18.76,1.44-.02,2.89-.12,4.37-.3,1.48-.17,2.93-.34,4.37-.52ZM91.59,128.76l.12-.11v-.22s-.13.11-.13.11v.22ZM119.26,92.8l-.89-.21-1.01.13-.25.22.13.44c.17.15.51.21,1.02.2.34,0,.67-.08,1.01-.24v-.55ZM129.4,91.86l-.76-.21-.37.45.76.1.38-.34ZM135.74,91.75l-.26-.33-.63.23.26.22.63-.12Z"/>
        <path class="cls-1" d="M181.54,76.42c2.03-.03,4.38.22,7.06.76,2.67.54,5.25,1.36,7.72,2.46,2.47,1.1,4.57,2.46,6.29,4.08,1.72,1.62,2.6,3.5,2.63,5.63,0,.37-.09.94-.29,1.71-.2.77-.42,1.6-.65,2.49-.24.89-.5,1.72-.78,2.49-.28.78-.51,1.39-.67,1.83-.24.74-.54,1.87-.89,3.38-.35,1.51-.71,3.12-1.06,4.81-.35,1.7-.66,3.3-.93,4.81-.27,1.51-.4,2.6-.39,3.26.02,1.25.21,2.49.57,3.74.36,1.24.55,2.49.57,3.74.03,1.54-.26,3.11-.87,4.7-.61,1.59-1.43,3.09-2.46,4.5-1.03,1.41-2.24,2.7-3.61,3.86-1.38,1.16-2.86,2.05-4.46,2.67-.84.38-1.62.78-2.33,1.2-.71.42-1.4.89-2.07,1.41-1,.83-2.09,1.52-3.26,2.09-1.18.57-2.31,1.23-3.39,1.99-1.25.9-2.67,1.94-4.26,3.1-1.59,1.17-3.24,2.24-4.96,3.23-1.72.99-3.48,1.82-5.29,2.52-1.81.69-3.56,1.05-5.25,1.08-1.44.02-2.84-.13-4.2-.48-1.36-.34-2.64-.8-3.83-1.37-2.39-1.13-4.27-2.55-5.66-4.26-1.38-1.7-2.43-3.58-3.14-5.62-.71-2.04-1.17-4.17-1.38-6.37-.21-2.2-.33-4.36-.37-6.5-.07-3.97.5-7.81,1.71-11.54,1.2-3.73,2.75-7.38,4.63-10.93.33-.59.61-1.2.86-1.83.24-.63.49-1.24.73-1.83,1.3-3.11,3.02-6.22,5.17-9.34,2.14-3.12,4.63-5.98,7.47-8.56,2.83-2.58,6.01-4.69,9.54-6.33,3.52-1.64,7.36-2.5,11.5-2.57ZM144.14,137.45c-.18-.51-.29-1.06-.35-1.65-.05-.59-.34-1.06-.85-1.42-.17.15-.25.33-.24.56,0,.51.16.97.47,1.37.3.4.63.78.97,1.14ZM197.05,107.34c-.02-.95-.07-1.8-.17-2.53-.1-.73-.62-1.38-1.56-1.96-1.79-1.07-3.84-2.06-6.14-2.98-2.3-.91-4.7-1.7-7.21-2.36-2.51-.65-5.01-1.16-7.51-1.52-2.5-.36-4.85-.52-7.05-.49-2.28.04-4.56.24-6.84.61-2.28.37-4.03,1.52-5.27,3.45-2.14,3.42-4.16,6.74-6.05,9.97-1.89,3.23-3.1,6.83-3.62,10.81-.22,1.84-.57,3.66-1.05,5.47-.48,1.81-.7,3.63-.67,5.47.02,1.18.23,2.37.63,3.57.4,1.21,1.24,2.09,2.52,2.66,2.47,1.06,4.98,1.99,7.53,2.79,2.55.8,5.06,1.8,7.54,3.01,1.19.57,2.32,1.14,3.39,1.71,1.07.57,2.2,1.06,3.39,1.48l-1.4.02.26.33c.43.21.81.32,1.15.31.42,0,.92-.27,1.51-.8.58-.52,1.13-.9,1.63-1.13,2.18-.99,4.21-2.33,6.08-4.02,1.87-1.69,3.64-3.28,5.31-4.77.92-.9,1.53-1.92,1.85-3.06.32-1.14.55-2.3.7-3.48.38-2.58,1.17-4.74,2.36-6.49,1.2-1.75,2.44-3.33,3.73-4.75,1.29-1.42,2.45-2.76,3.48-4.03,1.04-1.27,1.54-2.67,1.51-4.21l-.05-3.08ZM148.75,139.9c-.09-.22-.26-.33-.51-.32l-.51.12,1.02.2ZM148.32,107.51l.13.22.12-.22h-.25ZM164.72,145.91c-.34-.21-1.28-.66-2.81-1.33-1.53-.67-3.18-1.34-4.92-2.01-1.75-.67-3.36-1.26-4.85-1.79-1.49-.53-2.4-.79-2.74-.78h-.51c.51.37,1.47.86,2.88,1.5,1.41.64,2.96,1.27,4.66,1.9,1.7.63,3.34,1.23,4.92,1.79,1.57.56,2.75.98,3.51,1.26l-.14-.55ZM149.19,106.29c.25-.08.46-.25.63-.51.16-.26.25-.5.24-.72v-.11c-.59.08-.97.46-1.12,1.12l.26.22ZM152.62,99.06l.38.21c.33-.3.5-.6.49-.89l-.38-.1-.49.78ZM164.98,146.46c.68.14,1.19.2,1.53.19.17,0,.32-.02.44-.06.13-.04.27-.06.44-.06-.68-.13-1.19-.2-1.53-.19-.42,0-.72.05-.89.13ZM184.36,78.13c0,.22.18.4.52.54,1.36.42,2.62.82,3.76,1.2,1.15.38,2.36.86,3.64,1.43.08,0,.13.02.13.05,0,.04.04.05.13.05.17,0,.27-.1.31-.28.04-.18.06-.35.06-.5-.35-.44-.86-.81-1.54-1.13-.68-.32-1.41-.58-2.17-.79-.77-.21-1.53-.36-2.29-.46s-1.44-.14-2.03-.13h-.51ZM199.57,84.37c.17,0,.25-.08.25-.22-.26-.36-.65-.8-1.17-1.3-.52-.5-1.09-.97-1.74-1.4-.64-.43-1.3-.79-1.99-1.07-.68-.28-1.28-.42-1.78-.41-.17,0-.23.08-.19.22.04.15.07.26.07.33v.11c.34.29.62.61.84.98.22.36.58.61,1.09.75.25.07.62.21,1.09.42.47.21.94.44,1.41.69.47.25.92.46,1.34.64.43.18.68.26.77.26ZM193.58,127.34c-.09,0-.13.04-.12.11l.13.11c.17,0,.25-.04.25-.11v-.11s-.26,0-.26,0ZM198.17,113.6h-.25c-.17,0-.36.16-.56.45-.21.3-.41.63-.62,1-.21.37-.37.74-.49,1.11-.12.37-.18.63-.18.77v.55s.77.21.77.21c.67-.23,1.07-.73,1.18-1.51.11-.77.25-1.45.41-2.05l-.26-.55ZM198.67,98.71l-.64-.43-.12.33c0,.29.13.44.39.43h.13s.25-.34.25-.34ZM199.39,103.77c0-.07-.05-.11-.13-.11-.08,0-.13.04-.12.11v.22s.26,0,.26,0v-.22Z"/>
        <path class="cls-1" d="M254.92,86.07c1.1.06,2.84.15,5.21.3,2.37.14,4.76.38,7.18.7,2.42.33,4.54.82,6.37,1.49,1.83.67,2.75,1.55,2.77,2.65.01.81-.4,1.57-1.23,2.28-.83.71-1.84,1.35-3.01,1.92-1.18.57-2.35,1.07-3.53,1.49-1.18.42-2.14.75-2.9.99-1.09.39-2.14.83-3.15,1.32-1.01.5-2.1.83-3.28.99-.34.15-.71.38-1.13.68-.42.3-.75.56-1,.79-.42.23-.88.48-1.38.74-.5.27-1.01.37-1.52.3l-.51-.21.12-.55c.58-.38,1.15-.79,1.69-1.24.54-.45,1.19-.68,1.96-.69.51,0,.85.06,1.02.2h.25c-.1-.59.17-1.2.79-1.84.62-.63.93-1.28.92-1.94-.02-1.17-.48-2.23-1.39-3.17-.9-.94-2-1.73-3.28-2.37-1.28-.64-2.66-1.11-4.15-1.42-1.49-.31-2.82-.45-4-.43-2.03.03-3.95.49-5.75,1.37-1.81.88-3.5,1.97-5.08,3.28-1.59,1.31-3.02,2.75-4.3,4.32-1.29,1.56-2.38,3.02-3.29,4.35-.25.37-.49.76-.74,1.17-.25.41-.37.87-.36,1.38.03,1.47.66,2.69,1.9,3.66,1.24.97,2.63,1.55,4.15,1.75l.13.22-.12.22c-.5.16-.93.24-1.27.24-1.19.02-2.33-.36-3.45-1.15-1.11-.79-2.02-1.58-2.71-2.38.27,1.25,1.05,2.24,2.33,2.99s2.64,1.11,4.08,1.09c.93-.02,1.86-.18,2.78-.49.92-.31,1.72-.76,2.39-1.36-.34,0-.63.07-.88.18-.25.11-.55.1-.89-.04.16-.22.92-.69,2.26-1.42,1.34-.72,2.83-1.44,4.47-2.17,1.64-.73,3.19-1.38,4.66-1.95,1.47-.58,2.42-.87,2.84-.88.34,0,.59.06.76.21-.33.74-1.37,1.66-3.12,2.75-1.76,1.1-3.62,2.27-5.59,3.51-1.97,1.25-3.74,2.58-5.32,4-1.58,1.42-2.36,2.87-2.34,4.34.01.59.11,1.27.29,2.03.18.77.49,1.41.92,1.91.17.15.32.31.45.49.13.18.2.38.2.6l.39.32c.43.21,1.26.57,2.49,1.06,1.23.49,2.56,1,3.96,1.53,1.4.53,2.7.98,3.89,1.37,1.19.38,1.91.57,2.17.57,1.18-.02,2.81.06,4.89.25,2.07.18,4.13.53,6.17,1.05,2.04.52,3.81,1.22,5.3,2.11,1.5.89,2.26,2.07,2.28,3.54.02,1.32-.4,2.3-1.28,2.94-.88.64-2.04.97-3.47,1-2.96.05-5.19-.31-6.68-1.1-1.49-.78-2.74-1.72-3.73-2.8-.99-1.08-2-2.17-3.04-3.25-1.03-1.08-2.57-1.87-4.61-2.35-1.36-.34-2.68-.82-3.96-1.42-1.28-.6-2.56-1.19-3.84-1.75-1.28-.56-2.62-1.07-4.02-1.53-1.4-.45-2.91-.67-4.52-.64-.25,0-.7.03-1.33.08-.63.05-.95.22-.94.51l-.12.22c-.51-.14-1.02-.13-1.52.03-1.85.84-3.27,1.76-4.27,2.77-1,1.01-1.76,2.09-2.29,3.23-.53,1.15-.91,2.4-1.14,3.77-.23,1.36-.5,2.86-.81,4.48-.24,1.03-.55,2.27-.95,3.71-.4,1.44-.92,2.86-1.58,4.27-.65,1.41-1.48,2.65-2.47,3.73-1,1.08-2.21,1.75-3.65,1.99l-.76.12c-1.35.02-2.21-.47-2.56-1.5-.36-1.02-.54-1.97-.56-2.86-.07-4.19.92-8.24,2.96-12.17,1.88-3.63,3.38-7.51,4.49-11.65.64-2.36,1.48-4.67,2.55-6.93,1.06-2.26,2.14-4.48,3.25-6.67,1.1-2.18,2.15-4.41,3.12-6.67.98-2.26,1.74-4.56,2.29-6.93.55-2.51,1.1-4.94,1.65-7.3.55-2.36,1.23-4.76,2.03-7.2.64-1.99,1.69-3.78,3.14-5.34,1.45-1.57,3.53-2.37,6.24-2.42,2.03-.03,3.66.38,4.91,1.24,1.24.86,2.36,1.85,3.35,2.97.99,1.12,1.94,2.23,2.85,3.31s2.04,1.84,3.4,2.26c-.17.15-.38.23-.63.23s-.51.05-.76.12c1.11.72,2.3,1.06,3.57,1.04.42,0,.8-.12,1.14-.35l.76-.23ZM210.9,145.56l-.26-.33-.38.34.26.33.38-.34ZM219.28,123.92c-.75.38-1.13.83-1.12,1.34v.22c.26,0,.55-.19.88-.57.33-.37.5-.67.49-.89l-.26-.11ZM228.6,119.8l.76.1.12-.22-.39-.54-.63.12.14.55ZM242.26,80.33c-.44-.73-1.21-1.61-2.33-2.66-1.12-1.04-2.18-1.56-3.2-1.54-.34,0-.55.12-.63.34-.08.22-.12.44-.12.66.02,1.03.09,1.65.22,1.87.13.22.79.32,1.97.3.51,0,1.19.16,2.04.52.85.35,1.53.64,2.04.85v-.33ZM245.58,125.9l.13.11c-.17,0-.25-.03-.26-.11h.13ZM245.84,126c.34,0,.51.1.51.32-.17,0-.38-.1-.64-.32h.13ZM246.48,126.32c.17,0,.34.07.51.21-.25,0-.47-.06-.64-.21h.13ZM247.12,126.53c.17,0,.25.11.26.33l-.26-.33ZM247.5,126.86v.11s-.13-.11-.13-.11h.13ZM247.5,126.86c.25-.08.51,0,.77.21l-.77-.21ZM248.39,127.06c.34,0,.55.1.64.32l-.64-.32ZM249.23,86.94l-.13-.22h-.25s.13.22.13.22h.25ZM251.74,85.68l-.13-.11.26.11h-.13ZM255.28,128.93c1.03.94,2.06,1.49,3.07,1.66,1.02.17,2.21.42,3.57.77l.63-.12c-.26-.22-.69-.47-1.28-.75-.6-.28-1.24-.55-1.92-.79-.68-.24-1.34-.43-1.98-.57-.64-.14-1.17-.2-1.59-.19h-.51ZM270.84,89.32l-.39-.32c-1.54-.71-3.15-1.21-4.85-1.51-1.7-.3-3.39-.51-5.09-.63.43.36.92.7,1.48,1.02.55.32,1.09.66,1.6,1.02l.64.1h.25c.93-.02,1.88.07,2.86.28.97.2,1.97.3,2.99.28l.5-.23ZM262.6,134.42l-.26-.22-.12.22.26.22.12-.22ZM266.6,93.58l-.26-.33-.5.45.38.21.38-.34Z"/>
        <path class="cls-1" d="M322.5,75.21c.76-.01,2.2-.07,4.31-.18,2.11-.11,4.31-.15,6.6-.11,2.28.04,4.3.24,6.04.61,1.74.37,2.62,1.08,2.64,2.1.02,1.4-.64,2.44-1.98,3.12-1.34.68-3.07,1.21-5.18,1.58-2.11.37-4.43.66-6.96.89-2.53.23-4.98.58-7.34,1.06-2.36.48-4.46,1.2-6.31,2.15-1.85.95-3.13,2.28-3.87,3.98-.24.59-.55,1.28-.92,2.05-.37.78-.73,1.57-1.1,2.39-.37.82-.67,1.61-.91,2.38-.24.78-.35,1.49-.34,2.15.03,1.54.3,2.71.82,3.51.52.8,1.23,1.41,2.13,1.84.9.43,1.89.76,3,1,1.1.24,2.25.6,3.45,1.1.6.58,1.69.98,3.26,1.21,1.57.23,3.2.46,4.9.69,1.7.23,3.29.55,4.78.96,1.49.42,2.45,1.1,2.89,2.04,0,.44-.35.8-1.06,1.06-.71.27-1.24.59-1.57.96-.08.08-.15.17-.19.28-.04.11-.15.17-.31.17-.17,0-.4-.05-.7-.15-.3-.11-.53-.16-.7-.15-1.1.02-2.2.11-3.29.28-1.1.17-2.24.26-3.42.28-1.86.03-3.72-.05-5.59-.23-1.86-.19-3.73-.27-5.59-.23-2.37.04-4.45.59-6.25,1.65-1.8,1.06-3.32,2.39-4.56,3.99-1.24,1.6-2.16,3.36-2.76,5.28-.6,1.92-.89,3.76-.86,5.52.02,1.1.1,2.11.24,3.03.14.92.45,1.72.93,2.41.48.69,1.16,1.23,2.06,1.62.89.39,2.06.57,3.5.55.42,0,.78-.05,1.08-.13.29-.08.65-.12,1.08-.13.76-.01,1.4.2,1.91.63.51.43,1.24.64,2.17.62,1.44-.02,2.68-.28,3.73-.78,1.05-.49,1.99-1.03,2.83-1.59.83-.57,1.61-1.07,2.32-1.53.71-.45,1.45-.69,2.21-.7.68-.01,1.25.11,1.72.36.47.25.98.53,1.54.86.55.32,1.24.62,2.05.9.81.28,1.89.41,3.24.39.93-.02,1.84-.09,2.72-.21.89-.13,1.79-.2,2.72-.21,2.11-.04,3.75.54,4.92,1.73,1.16,1.19,1.76,2.63,1.79,4.32.01.74-.21,1.46-.66,2.16-.45.71-1.19,1.07-2.2,1.08-2.37.04-4.54.34-6.52.88-1.98.55-3.68,1.17-5.11,1.85-1.43.69-2.6,1.29-3.52,1.82-.92.53-1.59.8-2.02.81-.51,0-1.1-.11-1.78-.36-.68-.24-1.38-.53-2.11-.85-.73-.32-1.43-.65-2.11-1.01-.68-.35-1.28-.64-1.79-.85-1.02-.42-1.75-.92-2.18-1.51-.43-.58-.95-1.1-1.55-1.57-.6-.47-1.47-.87-2.62-1.22-1.15-.35-2.86-.5-5.15-.46-2.2.04-4.33.33-6.39.88-2.06.55-4.15.84-6.27.88-2.37.04-4.12-.66-5.24-2.11-1.13-1.45-1.7-3.09-1.73-4.93-.03-1.91.44-3.77,1.43-5.59.98-1.82,1.8-3.61,2.45-5.39.65-1.7,1.2-3.77,1.67-6.2.47-2.43.89-4.95,1.27-7.57.38-2.61.65-5.17.82-7.67.17-2.5.24-4.63.21-6.4-.02-1.25-.19-2.44-.51-3.57-.32-1.13-.65-2.26-1.01-3.4-.36-1.13-.69-2.26-1.01-3.4-.32-1.13-.48-2.29-.5-3.46-.01-.59,0-1.16.03-1.71.03-.55.09-1.12.16-1.71.14-1.55.5-2.6,1.09-3.16.58-.56,1.71-1.11,3.4-1.66,2.19-.7,4.37-1.34,6.56-1.93,2.19-.59,4.43-.9,6.71-.94,3.04-.05,6.11.1,9.21.45,3.09.35,6.16.5,9.21.45ZM302.48,84.37c-.18-.66-.34-1.17-.47-1.53-.13-.36-.67-.54-1.59-.52-.51,0-1.16.17-1.96.47-.8.31-1.19.76-1.18,1.34,0,.51.31.77.9.76.51,0,1.01-.05,1.52-.14.51-.08.97-.2,1.39-.35l1.02.31.38-.34ZM300.5,139.06c.17.15.38.21.64.21.25,0,.51,0,.76-.01,2.11-.04,4.02.3,5.73,1l.76-.12-.39-.32c-.34-.07-1-.28-1.98-.63-.98-.35-1.55-.52-1.72-.52-.34,0-1.01.04-2.03.09-1.01.06-1.6.16-1.77.31ZM302.43,140.57l-.38-.1c-.25,0-.38.08-.38.23l.38.21.38-.34ZM335.33,76.42c-.26-.22-1.06-.35-2.42-.4-1.35-.05-2.88-.06-4.57-.03-1.69.03-3.32.08-4.88.14-1.56.06-2.6.1-3.11.11-2.71.05-5.42-.09-8.13-.41-2.71-.32-5.42-.46-8.13-.41-.68.01-1.35.24-2.02.7l-.12.22.26.22c.42-.08.89-.13,1.39-.13.51,0,.97-.02,1.4-.02,3.04-.05,6.07.02,9.08.23,3.01.21,6.03.28,9.08.23,1.94-.03,3.93-.08,5.96-.16,2.03-.07,4.01-.12,5.96-.16l.25-.11ZM319.83,141.59l.51-.12.12-.33-.39-.32-.75.45.51.32ZM319.74,136.19c0,.37.2.53.58.49.38-.04.7-.03.95.04v-.11c0-.22-.14-.44-.39-.65-.26-.22-.51-.32-.77-.32h-.13s-.25.23-.25.23v.33ZM321.94,109.6h.63c-.09-.08-.3-.12-.64-.11v.11ZM327.27,138.71c.42.07.83.1,1.21.09.38,0,.78-.01,1.21-.02,1.35-.02,2.7-.16,4.05-.4l.25-.22-.26-.22c-2.12.04-4.18.18-6.21.44l-.25.33Z"/>
      </g>
      <g>
        <path class="cls-3" d="M48.1,52.51c0,.55.04,1.1.08,1.65.05.55.07,1.1.08,1.65.01.65-.78,1.46-2.37,2.44-1.6.98-3.45,1.92-5.55,2.83-2.11.91-4.2,1.71-6.28,2.39-2.08.69-3.63,1.06-4.65,1.13-.59.06-1.17.12-1.75.18-.59.06-1.17.1-1.76.11-.81.01-1.96-.15-3.47-.5-1.51-.35-3.02-.8-4.53-1.35-1.51-.55-2.84-1.15-3.99-1.8-1.15-.65-1.8-1.25-1.95-1.8l-.02-.9c-.01-.85-.23-1.62-.64-2.31-.42-.69-.63-1.46-.64-2.31-.02-1.15-.29-2.18-.82-3.09-.53-.91-1.09-1.82-1.69-2.7-.6-.89-1.17-1.78-1.69-2.67-.53-.89-.8-1.88-.82-2.98-.04-2.05.02-3.87.18-5.47.15-1.6.59-3.08,1.3-4.44.71-1.36,1.77-2.65,3.17-3.87,1.41-1.22,3.34-2.5,5.81-3.84,1.59-.88,3.36-1.79,5.28-2.75,1.92-.96,3.46-1.99,4.62-3.11.79-.76,1.58-1.54,2.38-2.33.79-.79,1.64-1.5,2.54-2.14.9-.64,1.96-1.17,3.16-1.59,1.2-.42,2.57-.64,4.11-.67.88-.02,1.83.04,2.86.18,1.03.13,1.96.35,2.81.66.85.31,1.57.72,2.16,1.24.59.51.9,1.12.91,1.82.02.9-.3,1.6-.95,2.11-.65.51-1.47.92-2.45,1.24-.98.32-2.04.56-3.17.73-1.13.17-2.17.36-3.12.58-.8.16-1.48.36-2.02.6-.54.23-1.14.48-1.8.74-3,.35-5.6,1.28-7.81,2.79-2.21,1.51-3.92,3.18-5.13,4.99-.43.66-.98,1.59-1.65,2.8-.68,1.21-1.35,2.47-2.02,3.78-.67,1.31-1.26,2.57-1.75,3.77-.49,1.21-.73,2.11-.72,2.71l.03,1.8c.01.85.14,1.72.37,2.61.15.45.61,1.28,1.36,2.49.75,1.21,1.6,2.47,2.54,3.78.94,1.31,1.89,2.46,2.86,3.47.97,1.01,1.71,1.56,2.23,1.65.73.09,1.28.13,1.65.12.37,0,.69-.05.99-.13.29-.08.62-.12.99-.13.44,0,.86.04,1.27.13.4.09.83.14,1.27.13,1.02-.02,2.35-.4,3.99-1.15,1.64-.75,3.25-1.57,4.85-2.44,1.59-.88,3.05-1.69,4.35-2.43,1.3-.75,2.18-1.12,2.62-1.13.44,0,.95.02,1.54.09.59.06.88.3.89.7ZM8.37,35.14l-.11.08v.07s.11,0,.11,0v-.15ZM15.13,57.72v-.07s-.11.08-.11.08v.07s.11-.08.11-.08ZM18.09,57.44c0-.1-.11-.15-.33-.14l.33.14ZM18.2,57.44c0,.15.08.22.22.22,0-.15-.08-.22-.22-.22ZM18.42,57.66c0,.15.11.22.33.22,0-.15-.11-.22-.33-.22ZM21.08,58.82c-.3-.14-.61-.29-.94-.43-.33-.14-.68-.26-1.05-.36l-.33-.14c.37.29.63.53.78.7.15.17.52.35,1.11.54l.44-.08v-.22ZM29.5,18.38l-.11-.07v.07s.11,0,.11,0ZM40.52,13.92l1.43.13.33-.08c0-.2-.12-.37-.34-.52-.22.1-.42.11-.6.01-.19-.1-.39-.14-.61-.14l-.65.39.44.22ZM40.88,15.79l-.33-.14-.11.15.22.07.22-.08ZM41.94,13.45h.11s0-.08,0-.08l-.11.08ZM44.31,55.72l-.22.08.11.15.22-.08-.11-.15Z"/>
        <path class="cls-3" d="M94.3,11.27c1.76-.03,3.79.14,6.11.49,2.31.36,4.54.91,6.67,1.65,2.14.74,3.95,1.65,5.43,2.75,1.48,1.1,2.24,2.37,2.26,3.82,0,.25-.08.64-.25,1.17-.17.53-.37,1.09-.58,1.7-.21.6-.44,1.17-.69,1.7-.25.53-.44.94-.58,1.25-.21.5-.47,1.27-.78,2.3-.31,1.03-.62,2.12-.93,3.27-.31,1.15-.58,2.25-.82,3.27-.24,1.03-.35,1.77-.35,2.22.01.85.18,1.7.48,2.54.31.84.47,1.69.48,2.54.02,1.05-.24,2.11-.77,3.2-.53,1.08-1.25,2.11-2.14,3.07-.9.96-1.95,1.84-3.14,2.64-1.19.8-2.49,1.4-3.87,1.83-.73.26-1.4.54-2.02.82-.62.29-1.22.61-1.8.97-.87.57-1.81,1.04-2.83,1.43-1.02.39-2,.85-2.94,1.36-1.09.62-2.32,1.33-3.7,2.12-1.38.8-2.81,1.53-4.3,2.21-1.49.68-3.02,1.25-4.58,1.73-1.57.48-3.08.73-4.55.75-1.25.02-2.46-.08-3.63-.31-1.18-.23-2.28-.53-3.31-.92-2.06-.76-3.69-1.72-4.88-2.87-1.19-1.15-2.09-2.42-2.7-3.81-.61-1.39-1-2.83-1.17-4.32-.17-1.49-.27-2.97-.3-4.41-.05-2.7.46-5.31,1.51-7.85,1.06-2.54,2.4-5.02,4.05-7.45.29-.4.54-.82.75-1.25.21-.43.42-.84.64-1.25,1.13-2.12,2.64-4.24,4.5-6.37,1.87-2.13,4.03-4.08,6.49-5.84,2.46-1.76,5.22-3.21,8.28-4.34,3.06-1.13,6.38-1.72,9.97-1.78ZM61.73,52.87c-.15-.35-.25-.72-.29-1.12-.04-.4-.29-.72-.73-.96-.15.1-.22.23-.21.38,0,.35.14.66.4.93.26.27.54.53.84.77ZM107.63,32.24c-.01-.65-.06-1.22-.14-1.72-.08-.5-.53-.94-1.34-1.32-1.55-.72-3.32-1.39-5.31-2.01-1.99-.61-4.07-1.14-6.23-1.58-2.17-.44-4.34-.77-6.5-1.01-2.17-.24-4.2-.34-6.1-.31-1.98.03-3.95.18-5.92.44-1.97.26-3.5,1.05-4.57,2.36-1.87,2.33-3.62,4.59-5.27,6.79-1.65,2.2-2.71,4.65-3.17,7.36-.2,1.25-.51,2.49-.92,3.72-.42,1.23-.62,2.47-.6,3.72.01.8.19,1.61.54,2.42.34.82,1.07,1.42,2.17,1.8,2.14.71,4.31,1.34,6.51,1.87,2.21.54,4.38,1.21,6.52,2.02,1.03.38,2.01.76,2.93,1.15.92.38,1.9.72,2.93,1l-1.21.02.22.22c.37.14.7.21.99.21.36,0,.8-.19,1.31-.55.51-.36.98-.62,1.42-.77,1.89-.68,3.65-1.6,5.28-2.75,1.63-1.15,3.17-2.24,4.61-3.26.79-.61,1.33-1.31,1.61-2.09.28-.78.48-1.57.62-2.37.34-1.75,1.02-3.23,2.07-4.42,1.04-1.19,2.12-2.27,3.24-3.24,1.12-.97,2.13-1.88,3.03-2.75.9-.86,1.34-1.82,1.32-2.87l-.04-2.1ZM65.71,54.53c-.08-.15-.22-.22-.44-.22l-.44.08.88.13ZM65.45,32.52l.11.15.11-.15h-.22ZM79.52,58.56c-.3-.14-1.11-.44-2.43-.89-1.33-.45-2.74-.9-4.25-1.35-1.51-.45-2.91-.85-4.2-1.2-1.29-.35-2.08-.53-2.37-.52h-.44c.44.25,1.27.58,2.49,1.01,1.22.43,2.56.85,4.03,1.28,1.47.42,2.89.82,4.25,1.2,1.36.38,2.37.66,3.04.85l-.12-.37ZM66.2,31.68c.22-.05.4-.17.54-.35.14-.18.21-.34.21-.49v-.07c-.51.06-.84.31-.98.77l.22.15ZM69.19,26.76l.33.14c.29-.2.43-.41.43-.61l-.33-.07-.43.53ZM79.74,58.93c.59.09,1.03.13,1.32.13.15,0,.27-.02.38-.04.11-.03.24-.04.38-.04-.59-.09-1.03-.13-1.32-.13-.37,0-.62.04-.77.09ZM96.74,12.43c0,.15.15.27.45.37,1.18.28,2.26.55,3.25.81.99.26,2.04.58,3.15.96.07,0,.11.01.11.04,0,.03.04.04.11.04.15,0,.24-.07.27-.19.03-.12.05-.24.05-.34-.3-.29-.74-.55-1.33-.76-.59-.21-1.21-.39-1.88-.53-.66-.14-1.32-.24-1.98-.3-.66-.06-1.25-.09-1.76-.08h-.44ZM109.88,16.62c.15,0,.22-.05.22-.15-.22-.25-.56-.54-1-.88-.44-.34-.95-.66-1.5-.95-.55-.29-1.13-.53-1.72-.72-.59-.19-1.1-.28-1.54-.27-.15,0-.2.05-.16.15.04.1.06.17.06.22v.07c.3.19.54.42.73.66.19.25.5.42.94.51.22.05.53.14.94.28.4.14.81.3,1.22.47.4.17.79.31,1.16.43.37.12.59.18.66.18ZM104.56,45.85c-.07,0-.11.03-.11.08l.11.07c.15,0,.22-.03.22-.08v-.07s-.22,0-.22,0ZM108.58,36.49h-.22c-.15,0-.31.11-.49.31-.18.2-.36.43-.54.68-.18.25-.32.5-.43.76-.11.25-.16.43-.16.53v.37s.67.14.67.14c.58-.16.93-.5,1.03-1.03.1-.53.22-.99.36-1.39l-.23-.37ZM109.06,26.37l-.55-.29-.11.23c0,.2.11.3.33.29h.11s.22-.23.22-.23ZM109.67,29.81s-.04-.07-.11-.07c-.07,0-.11.03-.11.08v.15s.22,0,.22,0v-.15Z"/>
        <path class="cls-3" d="M157.8,17.6c.95.03,2.45.1,4.51.18,2.05.09,4.12.24,6.22.45,2.09.21,3.93.54,5.51.99,1.58.45,2.38,1.04,2.39,1.79,0,.55-.35,1.07-1.07,1.55-.73.49-1.6.93-2.61,1.32-1.02.39-2.04.73-3.06,1.03-1.02.29-1.86.52-2.52.68-.95.27-1.86.57-2.73.91-.87.34-1.82.57-2.84.69-.29.11-.62.26-.98.47-.36.21-.65.39-.87.54-.37.16-.76.33-1.2.51-.44.18-.88.25-1.31.21l-.44-.14.1-.38c.51-.26,1-.54,1.47-.85.47-.31,1.04-.47,1.69-.48.44,0,.73.04.88.13h.22c-.08-.4.15-.82.69-1.25.54-.43.81-.88.8-1.32-.01-.8-.41-1.52-1.19-2.15-.78-.64-1.72-1.17-2.83-1.6-1.11-.43-2.3-.75-3.59-.95-1.29-.2-2.44-.3-3.46-.28-1.76.03-3.42.35-4.98.95-1.57.6-3.04,1.35-4.41,2.25-1.38.9-2.62,1.88-3.74,2.95-1.12,1.07-2.07,2.06-2.86,2.97-.22.25-.43.52-.65.8-.21.28-.32.59-.31.94.02,1,.56,1.83,1.64,2.48,1.07.66,2.27,1.05,3.59,1.17l.11.15-.11.15c-.44.11-.8.16-1.1.17-1.03.02-2.02-.24-2.98-.77-.96-.53-1.74-1.07-2.33-1.61.23.85.9,1.52,2.01,2.03,1.11.51,2.28.75,3.53.73.8-.01,1.61-.13,2.41-.34.8-.21,1.49-.52,2.07-.93-.29,0-.55.05-.77.13-.22.08-.48.07-.77-.02.14-.15.8-.47,1.96-.97,1.16-.49,2.45-.99,3.87-1.49,1.42-.5,2.77-.95,4.04-1.34,1.27-.4,2.09-.6,2.46-.6.29,0,.51.04.66.14-.29.5-1.19,1.13-2.71,1.88-1.52.75-3.14,1.55-4.85,2.41-1.71.85-3.25,1.77-4.62,2.74-1.37.97-2.05,1.96-2.04,2.96,0,.4.09.86.24,1.38.15.52.42.95.79,1.3.15.1.28.21.39.33.11.12.17.26.17.41l.33.22c.37.14,1.09.38,2.15.71,1.07.33,2.21.67,3.42,1.03,1.21.35,2.33.66,3.37.92,1.03.26,1.65.38,1.87.38,1.02-.02,2.44.03,4.23.15,1.8.12,3.58.35,5.34.69,1.76.34,3.29.82,4.58,1.42,1.29.6,1.95,1.4,1.96,2.4.02.9-.36,1.57-1.12,2-.76.44-1.77.67-3.01.69-2.56.04-4.49-.2-5.78-.72-1.29-.53-2.36-1.16-3.22-1.89-.85-.73-1.73-1.47-2.62-2.2-.89-.73-2.22-1.26-3.98-1.58-1.18-.23-2.32-.55-3.42-.95-1.1-.4-2.21-.8-3.32-1.18-1.1-.38-2.26-.72-3.48-1.03-1.21-.3-2.52-.44-3.91-.42-.22,0-.6.02-1.15.06-.55.04-.82.15-.82.35l-.11.15c-.44-.09-.88-.08-1.32.02-1.6.58-2.84,1.21-3.7,1.9-.87.69-1.53,1.42-2,2.21-.46.78-.8,1.64-1,2.56-.2.93-.44,1.94-.72,3.05-.21.7-.49,1.54-.84,2.52-.35.98-.81,1.95-1.38,2.91-.57.96-1.29,1.81-2.15,2.55-.87.74-1.92,1.19-3.16,1.36l-.66.09c-1.17.02-1.91-.32-2.21-1.01-.31-.69-.46-1.34-.47-1.94-.05-2.85.82-5.61,2.6-8.28,1.64-2.47,2.95-5.12,3.93-7.93.56-1.61,1.3-3.18,2.23-4.72.92-1.54,1.87-3.05,2.83-4.54.96-1.49,1.87-3,2.72-4.54.85-1.54,1.52-3.11,2.01-4.72.48-1.7.97-3.36,1.45-4.97.48-1.61,1.08-3.24,1.78-4.9.56-1.36,1.48-2.57,2.74-3.64,1.26-1.07,3.06-1.63,5.41-1.67,1.76-.03,3.17.24,4.24.83,1.07.58,2.04,1.25,2.89,2.01.85.76,1.67,1.51,2.46,2.24.78.74,1.76,1.24,2.94,1.52-.15.1-.33.16-.55.16-.22,0-.44.03-.66.09.96.48,1.99.71,3.09.7.37,0,.69-.09.98-.24l.66-.16ZM119.5,58.17l-.22-.22-.33.23.22.22.33-.23ZM126.82,43.44c-.65.26-.98.57-.97.92v.15c.22,0,.48-.13.76-.39.29-.25.43-.46.43-.61l-.22-.07ZM134.9,40.61l.66.06.11-.15-.34-.37-.55.08.12.37ZM146.85,13.74c-.38-.49-1.05-1.09-2.01-1.8-.96-.71-1.89-1.05-2.76-1.04-.29,0-.48.08-.54.23-.07.15-.1.3-.1.45.01.7.07,1.12.19,1.27.11.15.68.21,1.71.2.44,0,1.03.11,1.76.34.73.24,1.33.43,1.77.57v-.22ZM149.58,44.7l.11.07c-.15,0-.22-.02-.22-.07h.11ZM149.8,44.77c.29,0,.44.07.44.22-.15,0-.33-.07-.55-.22h.11ZM150.36,44.99c.15,0,.29.05.44.14-.22,0-.4-.04-.55-.14h.11ZM150.91,45.13c.15,0,.22.07.22.22l-.22-.22ZM151.24,45.35v.07s-.11-.07-.11-.07h.11ZM151.24,45.35c.22-.05.44,0,.66.14l-.66-.14ZM152.01,45.48c.29,0,.48.07.55.22l-.55-.22ZM152.86,18.21l-.11-.15h-.22s.11.15.11.15h.22ZM155.05,17.35l-.11-.07.22.07h-.11ZM157.97,46.73c.89.63,1.78,1.01,2.66,1.12.88.11,1.91.28,3.08.51l.55-.08c-.22-.15-.59-.31-1.11-.5-.52-.19-1.07-.37-1.66-.53-.59-.16-1.16-.29-1.71-.38-.55-.09-1.01-.13-1.38-.13h-.44ZM171.57,19.76l-.33-.22c-1.33-.48-2.72-.81-4.19-1.01-1.47-.2-2.94-.34-4.4-.41.37.24.79.47,1.28.69.48.22.94.45,1.39.69l.55.07h.22c.8-.02,1.63.04,2.48.18.84.14,1.71.2,2.58.18l.44-.16ZM164.29,50.44l-.22-.15-.11.15.22.15.11-.15ZM167.88,22.67l-.22-.22-.43.31.33.14.33-.23Z"/>
        <path class="cls-3" d="M226.55,16.94c.51,0,.9.1,1.16.32.26.22.46.48.62.78.15.3.25.62.29.97.04.35.07.65.07.9.02,1.1-.23,2.35-.76,3.76-.52,1.41-1.16,2.83-1.9,4.26-.74,1.44-1.53,2.85-2.34,4.23-.82,1.39-1.51,2.64-2.08,3.74-.42.86-.72,1.72-.89,2.6-.17.88-.39,1.74-.67,2.59-.35,1.01-.72,2.02-1.1,3.05-.39,1.03-.57,2.07-.55,3.12.01.75.26,1.44.75,2.08.49.64.74,1.24.75,1.78,0,.4-.15.81-.47,1.24-.32.43-.48.92-.47,1.47,0,.25.05.51.12.78.08.27.12.54.12.78,0,.4-.17.8-.53,1.21-.36.36-.59.8-.69,1.32-.1.53-.26,1.04-.47,1.54-.21.5-.52.93-.91,1.29-.4.36-1.11.54-2.13.56-1.25.02-2.44-.48-3.6-1.51-1.15-1.03-2.22-2.22-3.19-3.58-.98-1.36-1.8-2.71-2.49-4.08-.68-1.36-1.21-2.36-1.59-3.01-.6-.99-1.59-1.68-2.95-2.08-1.36-.4-2.78-.59-4.24-.56-1.76.03-3.22.22-4.38.56-1.17.35-2.15.82-2.94,1.44-.8.61-1.46,1.34-2,2.17-.53.83-1.01,1.75-1.44,2.76-.28.55-.69,1.32-1.22,2.31-.53.98-1.18,1.96-1.93,2.92-.75.96-1.6,1.8-2.54,2.51-.94.72-1.92,1.08-2.95,1.1-.88.02-1.56-.24-2.04-.75-.49-.52-.73-1.05-.74-1.6-.03-1.55.35-3.15,1.13-4.81.78-1.66,1.74-3.15,2.89-4.47,1.15-1.32,2.24-2.91,3.27-4.77,1.03-1.86,1.95-3.82,2.76-5.85.81-2.04,1.43-4.04,1.87-6.02.44-1.98.65-3.74.62-5.29-.03-2-.45-3.92-1.25-5.78-.8-1.86-1.22-3.74-1.25-5.63-.01-.8.03-1.65.12-2.55.09-.9.35-1.73.78-2.48s1.09-1.38,2-1.87c.91-.49,2.17-.75,3.78-.78,1.9-.03,3.45.39,4.64,1.27,1.19.88,2.12,1.94,2.8,3.17.68,1.24,1.14,2.54,1.39,3.91.24,1.37.37,2.53.39,3.48.02.9-.04,1.79-.17,2.66-.13.88-.19,1.76-.17,2.66.02,1.05.2,2.03.54,2.95.35.92.87,1.72,1.58,2.41.71.69,1.65,1.22,2.83,1.6,1.18.38,2.61.55,4.29.53,2.12-.04,3.97-.32,5.53-.84,1.56-.53,2.52-1.57,2.86-3.12.21-.75.52-1.87.93-3.35.41-1.48.99-2.95,1.74-4.41.74-1.46,1.66-2.75,2.73-3.87,1.08-1.12,2.31-1.69,3.71-1.71ZM195.07,13.06c-.23-.54-.64-1.09-1.24-1.63-.6-.54-1.37-.8-2.32-.78-.44,0-1.04.13-1.81.37-.77.24-1.14.53-1.14.88,0,.35.21.61.62.78.4.17.83.25,1.27.24.29,0,.53-.03.71-.09.18-.05.42-.11.71-.16,1.1.23,2.02.46,2.76.7h.33s.1-.31.1-.31ZM196.6,44.57c.15,0,.29-.05.44-.16.14-.1.25-.2.32-.31l-.55-.22c-.15,0-.33.13-.54.38l.33.29ZM219.54,30.77l-.76.31c-.65.66-1.24,1.23-1.78,1.72-.54.48-1.16.88-1.85,1.19-.69.31-1.47.54-2.35.68-.88.14-1.97.22-3.29.24-1.54.03-3.15-.13-4.84-.48-1.69-.34-3.09-.91-4.2-1.69-.15-.1-.28-.19-.39-.29-.11-.1-.28-.12-.5-.07.01.65.39,1.22,1.13,1.7.74.49,1.64.9,2.71,1.23,1.07.33,2.15.57,3.25.73,1.1.16,2.02.23,2.75.22,1.02-.02,2.14-.14,3.34-.36,1.21-.22,2.32-.55,3.33-.99,1.02-.44,1.87-.98,2.55-1.62.68-.64,1.06-1.38,1.11-2.23l-.23-.3ZM214.45,60.36l-.11-.15-.44.23.11.22.43-.31ZM226.36,18.59l-.23-.37c-.07-.05-.18-.07-.33-.07-.59.01-1.15.29-1.69.85-.54.56-.81,1.04-.8,1.44,0,.1.04.21.12.34.07.12.19.18.33.18.29,0,.8-.29,1.52-.85.72-.56,1.08-1.02,1.08-1.37v-.15Z"/>
        <path class="cls-3" d="M268.6,9.1c.66-.01,1.9-.06,3.73-.14,1.83-.08,3.73-.11,5.71-.1,1.98.02,3.72.15,5.23.4,1.5.25,2.26.72,2.28,1.42.02.95-.56,1.66-1.72,2.13-1.16.47-2.66.83-4.49,1.09-1.83.26-3.84.47-6.03.63-2.19.16-4.31.41-6.36.75-2.05.33-3.87.83-5.47,1.48-1.6.65-2.72,1.56-3.36,2.72-.21.4-.48.87-.8,1.4-.32.53-.64,1.07-.96,1.63-.32.56-.59,1.1-.8,1.62-.21.53-.31,1.02-.3,1.47.02,1.05.25,1.84.7,2.38.45.54,1.06.96,1.83,1.24.77.29,1.64.51,2.59.67.95.16,1.95.4,2.98.74.52.39,1.46.66,2.82.81,1.36.15,2.77.3,4.24.45,1.47.15,2.84.36,4.13.64,1.29.28,2.12.74,2.5,1.38,0,.3-.3.54-.92.73-.62.19-1.07.41-1.36.66-.07.05-.13.11-.16.19-.04.08-.13.11-.27.12-.15,0-.35-.03-.61-.1-.26-.07-.46-.1-.61-.1-.95.02-1.9.08-2.85.2-.95.12-1.94.18-2.96.2-1.61.03-3.22-.02-4.84-.14-1.61-.12-3.23-.17-4.84-.14-2.05.04-3.86.42-5.42,1.14-1.56.73-2.88,1.64-3.96,2.73-1.08,1.09-1.88,2.29-2.41,3.6-.53,1.31-.78,2.56-.76,3.76.01.75.08,1.43.2,2.06.12.62.38,1.17.8,1.63.41.47,1,.83,1.78,1.09.77.26,1.78.38,3.03.36.37,0,.68-.04.93-.09.25-.05.56-.08.93-.09.66-.01,1.21.13,1.66.42s1.07.43,1.87.42c1.24-.02,2.32-.2,3.23-.54.91-.34,1.73-.7,2.45-1.09.72-.39,1.4-.74,2.01-1.05.62-.31,1.26-.47,1.91-.48.58-.01,1.08.07,1.49.24.4.17.85.36,1.33.58.48.22,1.07.42,1.77.61.7.19,1.63.27,2.81.25.81-.01,1.59-.06,2.36-.15.77-.09,1.55-.14,2.36-.15,1.83-.03,3.25.36,4.25,1.16,1,.81,1.51,1.78,1.53,2.93,0,.5-.19.99-.58,1.47-.4.48-1.03.73-1.91.74-2.05.04-3.93.24-5.65.62-1.72.38-3.19.8-4.43,1.27-1.24.47-2.26.89-3.05,1.25-.8.36-1.38.55-1.75.55-.44,0-.95-.07-1.54-.24-.59-.16-1.2-.35-1.82-.57-.63-.21-1.23-.44-1.82-.68-.59-.24-1.11-.43-1.55-.57-.88-.28-1.51-.62-1.89-1.02-.37-.39-.82-.75-1.34-1.06-.52-.31-1.27-.59-2.27-.82-.99-.23-2.48-.33-4.45-.3-1.9.03-3.75.24-5.54.62-1.79.38-3.6.59-5.43.62-2.05.04-3.56-.44-4.53-1.42-.97-.98-1.46-2.1-1.49-3.34-.02-1.3.4-2.56,1.25-3.8.86-1.24,1.57-2.46,2.13-3.67.57-1.16,1.05-2.56,1.47-4.22.41-1.65.78-3.37,1.12-5.15.34-1.78.58-3.52.73-5.22.15-1.7.22-3.15.2-4.35-.01-.85-.16-1.66-.43-2.43-.27-.77-.56-1.54-.86-2.31-.31-.77-.59-1.54-.86-2.31-.27-.77-.41-1.55-.42-2.35,0-.4,0-.79.04-1.16.03-.38.08-.76.14-1.16.13-1.05.45-1.77.95-2.15.5-.38,1.49-.76,2.95-1.14,1.9-.48,3.79-.93,5.69-1.33,1.9-.41,3.83-.63,5.81-.66,2.64-.05,5.29.05,7.97.27,2.68.23,5.33.32,7.97.28ZM251.24,15.39c-.16-.45-.29-.79-.4-1.04-.11-.25-.57-.36-1.38-.35-.44,0-1.01.12-1.7.33-.69.21-1.04.52-1.03.92,0,.35.27.52.78.51.44,0,.88-.04,1.32-.1.44-.06.84-.14,1.2-.25l.88.21.33-.23ZM249.36,52.57c.15.1.33.14.55.14.22,0,.44,0,.66-.01,1.83-.03,3.48.19,4.95.66l.66-.09-.33-.22c-.29-.04-.86-.18-1.71-.42-.85-.23-1.34-.35-1.49-.35-.29,0-.88.03-1.76.07-.88.04-1.39.11-1.54.21ZM251.02,53.59l-.33-.07c-.22,0-.33.06-.33.16l.33.14.33-.23ZM279.71,9.89c-.22-.15-.92-.23-2.09-.26-1.17-.03-2.49-.03-3.96,0-1.47.03-2.87.06-4.23.11-1.35.05-2.25.08-2.69.08-2.34.04-4.69-.04-7.04-.25-2.35-.21-4.69-.29-7.04-.25-.59.01-1.17.17-1.75.48l-.11.15.22.15c.36-.06.77-.09,1.21-.1.44,0,.84-.01,1.21-.02,2.64-.05,5.25,0,7.86.13,2.6.13,5.22.17,7.86.13,1.68-.03,3.4-.07,5.16-.13,1.76-.05,3.48-.1,5.16-.13l.22-.08ZM266.08,54.23l.44-.08.11-.23-.33-.22-.65.31.44.22ZM266.02,50.56c0,.25.17.36.5.33.33-.03.6-.02.82.02v-.07c0-.15-.12-.3-.34-.44-.22-.15-.44-.22-.66-.21h-.11s-.22.16-.22.16v.22ZM268.02,32.48h.55c-.07-.06-.26-.08-.55-.07v.07ZM272.53,52.25c.37.04.71.06,1.04.06.33,0,.68-.01,1.04-.02,1.17-.02,2.34-.12,3.51-.28l.22-.15-.22-.15c-1.83.03-3.62.14-5.38.32l-.22.23Z"/>
        <path class="cls-3" d="M333.62,14.58c.95.03,2.45.1,4.51.18,2.05.09,4.12.24,6.21.45,2.09.21,3.93.54,5.51.99,1.58.45,2.38,1.04,2.39,1.79,0,.55-.35,1.07-1.07,1.55-.72.49-1.6.93-2.61,1.32-1.02.39-2.04.74-3.06,1.03-1.02.29-1.86.52-2.52.68-.95.27-1.86.57-2.73.91-.87.34-1.82.57-2.84.69-.29.11-.62.26-.98.47-.36.21-.65.39-.87.54-.37.16-.76.33-1.2.51-.44.18-.88.25-1.31.21l-.44-.14.1-.38c.51-.26,1-.54,1.47-.85.47-.31,1.04-.47,1.69-.48.44,0,.73.04.88.13h.22c-.08-.4.15-.82.69-1.25.54-.43.81-.88.8-1.32-.01-.8-.41-1.52-1.19-2.15-.78-.64-1.72-1.17-2.83-1.6-1.11-.43-2.3-.75-3.59-.95-1.29-.2-2.44-.29-3.46-.28-1.76.03-3.42.35-4.98.95-1.57.6-3.04,1.35-4.41,2.25-1.38.9-2.62,1.88-3.74,2.95-1.12,1.07-2.07,2.06-2.86,2.97-.21.25-.43.52-.65.8-.21.28-.32.59-.31.94.02,1,.56,1.83,1.64,2.48,1.07.66,2.27,1.05,3.59,1.17l.11.15-.11.15c-.44.11-.8.16-1.1.17-1.03.02-2.02-.24-2.98-.77-.96-.53-1.74-1.07-2.33-1.61.23.85.9,1.52,2.01,2.03,1.11.51,2.28.75,3.53.73.81-.01,1.61-.13,2.41-.34.8-.21,1.49-.52,2.07-.93-.29,0-.55.05-.77.13-.22.08-.48.07-.77-.02.14-.15.8-.47,1.96-.97,1.16-.49,2.45-.99,3.87-1.49,1.42-.5,2.77-.95,4.04-1.34,1.27-.4,2.09-.6,2.46-.6.29,0,.51.04.66.14-.29.5-1.19,1.13-2.71,1.88-1.52.75-3.14,1.55-4.85,2.41-1.71.85-3.25,1.77-4.62,2.74-1.37.97-2.05,1.96-2.04,2.96,0,.4.09.86.24,1.38.15.52.42.95.79,1.3.15.1.28.21.39.33.11.12.17.26.17.41l.33.22c.37.14,1.09.38,2.15.71,1.07.33,2.21.67,3.42,1.03,1.21.35,2.33.66,3.37.92,1.03.26,1.65.38,1.87.38,1.02-.02,2.43.03,4.23.15,1.8.12,3.58.35,5.34.69,1.76.34,3.29.82,4.58,1.42,1.29.6,1.95,1.4,1.96,2.4.02.9-.36,1.57-1.12,2-.76.44-1.77.67-3.01.69-2.56.04-4.49-.2-5.78-.72-1.29-.53-2.36-1.16-3.22-1.89-.85-.73-1.73-1.47-2.62-2.2-.89-.73-2.22-1.26-3.98-1.58-1.18-.23-2.32-.55-3.42-.95-1.1-.4-2.21-.8-3.32-1.18-1.1-.38-2.26-.72-3.48-1.03-1.21-.3-2.52-.44-3.91-.42-.22,0-.6.02-1.15.06-.55.04-.82.15-.82.35l-.11.15c-.44-.09-.88-.08-1.32.02-1.6.58-2.84,1.21-3.7,1.9-.87.69-1.53,1.42-2,2.21-.46.78-.8,1.64-1,2.56-.2.93-.44,1.94-.72,3.05-.21.7-.49,1.54-.84,2.52-.35.98-.81,1.95-1.38,2.91-.57.96-1.29,1.81-2.15,2.55-.87.74-1.92,1.19-3.16,1.36l-.66.09c-1.17.02-1.91-.32-2.21-1.01-.31-.69-.46-1.34-.47-1.94-.05-2.85.82-5.61,2.6-8.28,1.64-2.47,2.95-5.12,3.93-7.93.56-1.61,1.3-3.18,2.23-4.72.92-1.54,1.87-3.05,2.83-4.54.96-1.49,1.87-3,2.72-4.54.85-1.54,1.52-3.11,2.01-4.72.48-1.7.97-3.36,1.45-4.97.48-1.61,1.08-3.24,1.78-4.9.56-1.36,1.48-2.57,2.74-3.64,1.26-1.07,3.06-1.63,5.41-1.67,1.76-.03,3.17.24,4.24.83,1.07.58,2.04,1.25,2.89,2.01.85.76,1.67,1.51,2.46,2.24.78.74,1.76,1.24,2.94,1.52-.15.1-.33.16-.55.16-.22,0-.44.03-.66.09.96.48,1.99.71,3.09.7.37,0,.69-.09.98-.24l.66-.16ZM295.32,55.15l-.22-.22-.33.23.22.22.33-.23ZM302.65,40.42c-.65.26-.98.57-.97.92v.15c.22,0,.48-.13.77-.39.29-.25.43-.46.43-.61l-.22-.07ZM310.73,37.59l.66.06.11-.15-.34-.37-.55.08.12.37ZM322.68,10.72c-.38-.49-1.05-1.09-2.01-1.8-.96-.71-1.89-1.05-2.76-1.04-.29,0-.48.08-.54.23-.07.15-.1.3-.1.45.01.7.07,1.12.19,1.27.11.15.68.21,1.71.2.44,0,1.03.11,1.76.34.73.24,1.33.43,1.77.57v-.22ZM325.41,41.68l.11.07c-.15,0-.22-.02-.22-.07h.11ZM325.63,41.75c.29,0,.44.07.44.22-.15,0-.33-.07-.55-.22h.11ZM326.18,41.97c.15,0,.29.05.44.14-.22,0-.4-.04-.55-.14h.11ZM326.73,42.11c.15,0,.22.07.22.22l-.22-.22ZM327.07,42.33v.07s-.11-.07-.11-.07h.11ZM327.07,42.33c.22-.05.44,0,.66.14l-.66-.14ZM327.84,42.46c.29,0,.48.07.55.22l-.55-.22ZM328.69,15.19l-.11-.15h-.22s.11.15.11.15h.22ZM330.87,14.33l-.11-.07.22.07h-.11ZM333.79,43.71c.89.63,1.78,1.01,2.66,1.12.88.11,1.91.28,3.08.51l.55-.08c-.22-.15-.59-.31-1.11-.51-.52-.19-1.07-.37-1.66-.53-.59-.16-1.16-.29-1.71-.38-.55-.09-1.01-.13-1.38-.13h-.44ZM347.39,16.74l-.33-.22c-1.33-.48-2.72-.81-4.19-1.01-1.47-.2-2.94-.34-4.4-.41.37.24.79.47,1.28.69.48.22.94.45,1.38.69l.55.07h.22c.8-.02,1.63.04,2.47.18.84.14,1.71.2,2.58.18l.44-.16ZM340.12,47.42l-.22-.15-.11.15.22.15.11-.15ZM343.7,19.65l-.22-.22-.43.31.33.14.33-.23Z"/>
      </g>
      <g>
        <path class="cls-3" d="M41.02,93.18c-1.27.02-2.53.26-3.79.73-1.26.46-2.39,1.07-3.39,1.82-1,.75-1.81,1.65-2.43,2.69-.62,1.04-.92,2.15-.9,3.32.02,1.25.4,2.22,1.13,2.9.73.69,1.69,1.26,2.88,1.71,1.19.46,2.53.91,4.02,1.36,1.49.45,2.98,1.05,4.47,1.8,1.49.75,2.93,1.71,4.3,2.9,1.37,1.19,2.54,2.77,3.51,4.73.35.66.53,1.42.55,2.31,0,.37,0,.7-.05.99-.04.3-.05.63-.05.99.03,1.47-.25,2.87-.82,4.2-.57,1.33-1.27,2.63-2.09,3.89-.83,1.26-1.71,2.49-2.67,3.68-.95,1.19-1.8,2.38-2.54,3.57-.41.6-.87,1.28-1.36,2.06-.49.78-1.05,1.54-1.67,2.29-.62.75-1.29,1.38-2,1.91-.71.53-1.53.87-2.46,1.03l-9.49,1.49c-.16.81-.37,1.7-.65,2.66-.28.96-.69,1.85-1.22,2.67-.54.82-1.2,1.49-2,2.02-.8.53-1.78.8-2.97.82-1.69.03-3.16-.22-4.39-.75-1.24-.53-2.33-1.45-3.28-2.75-1.13-1.67-2.36-3.39-3.71-5.17-1.34-1.78-2.58-3.61-3.71-5.5-1.13-1.89-2.1-3.82-2.89-5.79s-1.21-3.95-1.24-5.93c0-.51.04-1.08.16-1.71.12-.62.34-1.22.67-1.77.33-.56.72-1.02,1.18-1.4.46-.37,1.07-.57,1.83-.58.84-.01,1.91.35,3.19,1.1,1.28.75,2.71,1.7,4.3,2.85,1.58,1.15,3.25,2.39,5.01,3.72,1.76,1.33,3.53,2.57,5.33,3.71,1.8,1.15,3.61,2.09,5.44,2.83,1.83.74,3.55,1.1,5.16,1.07,1.44-.02,2.7-.47,3.78-1.33,1.08-.86,1.98-1.91,2.67-3.13.7-1.22,1.23-2.54,1.58-3.94.36-1.4.53-2.62.51-3.65-.08-4.55-.83-7.94-2.27-10.15-1.43-2.22-3.22-3.8-5.35-4.76-2.13-.95-4.4-1.56-6.82-1.81-2.42-.25-4.69-.75-6.81-1.48-2.13-.73-3.9-1.97-5.33-3.71-1.43-1.74-2.17-4.55-2.24-8.45-.05-2.79.69-5.34,2.22-7.64,1.52-2.3,3.5-4.28,5.93-5.94,2.42-1.66,5.15-2.95,8.18-3.89,3.03-.93,6.02-1.43,8.98-1.48,1.94-.03,4.12.06,6.54.27,2.41.22,4.69.67,6.81,1.37,2.13.7,3.92,1.71,5.38,3.05,1.46,1.34,2.21,3.14,2.25,5.42.04,2.5-1,4.31-3.14,5.45-2.14,1.14-4.48,1.73-7.01,1.77-1.19.02-2.39-.05-3.62-.21-1.23-.16-2.44-.23-3.62-.21ZM5.53,125.3c.34.14.66.3.96.48.3.18.66.26,1.08.26-.1-.59-.42-1-.97-1.25-.56-.25-1.05-.51-1.47-.8l-.24.56.65.76ZM7.83,126.36l-.26-.22.14.55.12-.33ZM15.76,92.73l-.13-.11-.25.33.26.22.12-.44ZM20.3,135.74l1.39-.13h-.76c-.34.02-.55.06-.63.13v-.66s0,.66,0,.66ZM21.7,135.82c0,.22.11.38.33.49.21.11.4.23.58.38l-.26-.55-.64-.54v.22ZM23.37,136.9h.25s-.64-.32-.64-.32l-.38.12.77.21ZM31.27,139.07c.42,0,.76-.12,1.01-.35-1.44-.27-2.86-.54-4.27-.81-1.4-.27-2.82-.61-4.27-1.03l.13.44c1.19.57,2.38,1.01,3.58,1.32,1.19.31,2.46.45,3.81.43ZM33.51,107.08c.43.21,1.11.53,2.05.96.94.42,1.92.89,2.94,1.38,1.02.5,1.96.94,2.81,1.33.85.39,1.41.58,1.66.58,0-.29-.39-.67-1.16-1.14-.77-.46-1.62-.91-2.56-1.33-.94-.42-1.88-.81-2.81-1.16-.94-.35-1.58-.6-1.92-.74l-1.01.13ZM51.57,79.99c-1.28-.93-2.71-1.48-4.28-1.63-1.57-.16-3.16-.29-4.77-.41l8.41,2.17.63-.12ZM42.98,111.33l.39.43h.38s-.26-.33-.26-.33l-.51-.1Z"/>
        <path class="cls-3" d="M136.29,84.93c.76-.01,1.63.07,2.61.23.97.17,1.89.45,2.74.83.85.39,1.58.84,2.18,1.34.6.5.91,1.09.92,1.75.02.88-.29,1.59-.92,2.11-.63.53-1.34.94-2.14,1.25-.8.31-1.6.51-2.4.59-.8.09-1.37.13-1.71.14-1.02.02-2.05-.06-3.11-.22-1.06-.16-2.06-.24-2.99-.22-.34,0-.61.05-.82.12-.21.08-.48.19-.82.34-.25.15-.48.23-.69.23-.21,0-.44.05-.7.12-2.27.55-4.22,1.56-5.85,3.02-1.62,1.46-3.1,2.97-4.43,4.54-.91,1.05-1.91,2.02-3,2.92-1.08.9-2.17,1.84-3.25,2.81-1.25,1.12-2.55,3.04-3.9,5.74-1.35,2.71-2.76,5.74-4.22,9.11-1.46,3.37-2.99,6.87-4.58,10.49-1.59,3.63-3.24,6.94-4.97,9.95-1.73,3-3.48,5.5-5.26,7.47-1.79,1.98-3.61,2.98-5.47,3.01-1.19.02-2.27-.4-3.26-1.27-.99-.86-1.49-1.77-1.51-2.73-.02-1.1.13-2.3.45-3.59.31-1.29.74-2.58,1.27-3.88.53-1.29,1.14-2.54,1.84-3.72.7-1.19,1.38-2.23,2.04-3.12.33-.45.86-1.34,1.6-2.67.74-1.33,1.58-2.85,2.52-4.56.94-1.71,1.88-3.54,2.82-5.5.94-1.96,1.82-3.81,2.63-5.55.81-1.74,1.47-3.28,1.95-4.61.48-1.33.72-2.22.72-2.66-.01-.59-.09-1.32-.23-2.2-.14-.88-.31-1.79-.49-2.75-.19-.95-.39-1.85-.62-2.69-.23-.84-.43-1.52-.61-2.03-.97-2.48-2.53-4.53-4.67-6.15-2.14-1.62-4.45-2.97-6.92-4.07-2.47-1.1-4.92-1.99-7.34-2.68-2.42-.69-4.4-1.28-5.93-1.77-1.96-.7-3.11-1.43-3.46-2.2-.35-.77-.53-1.51-.55-2.25-.03-1.47.8-2.55,2.48-3.24,1.68-.69,3.49-1.05,5.44-1.08,1.52-.03,3.02.08,4.51.31,1.48.23,2.99.33,4.51.31.76-.01,1.69,0,2.79.06,1.1.06,2.2.13,3.3.22,1.1.09,2.16.22,3.18.39,1.02.17,1.91.35,2.67.56l.89.32c1.36.57,2.64,1.02,3.83,1.37,1.19.35,2.51.69,3.95,1.03,1.96.55,4.1.98,6.43,1.27,2.33.29,4.39.79,6.18,1.49.42.14,1.15.37,2.17.68,1.02.31,2.1.62,3.25.94,1.15.31,2.25.57,3.31.77,1.06.2,1.76.3,2.1.29,1.61-.03,3.19-.15,4.75-.36,1.56-.21,3.14-.33,4.75-.36ZM84.02,78.11l-.77-.32c-1.19-.05-2.39-.11-3.62-.16-1.23-.05-2.44-.14-3.62-.27l-.38.12c1.36.57,2.74.87,4.14.92,1.4.05,2.81.06,4.25.04v-.33ZM137.46,86.56c-.18-.36-.5-.56-.96-.59-.47-.03-.87-.04-1.21-.03-.68.01-1.29.13-1.83.36-.55.23-1.07.35-1.58.36-3.04.05-5.9-.14-8.58-.57-2.67-.43-5.28-.96-7.83-1.57-2.55-.62-5.1-1.27-7.65-1.96-2.55-.69-5.27-1.27-8.15-1.73-1.27-.2-2.4-.47-3.38-.82-.98-.35-1.96-.68-2.94-1-.98-.31-2.02-.57-3.12-.77-1.1-.2-2.42-.33-3.94-.37l-.76.34v.11c0,.15.24.29.71.43.47.14.79.21.96.2,1.44.12,2.8.25,4.07.37,1.27.13,2.59.43,3.95.92,1.62.56,3.93,1.25,6.95,2.08,3.02.83,6.22,1.62,9.62,2.37,3.4.75,6.64,1.39,9.74,1.93,3.1.54,5.49.79,7.18.76,1.44-.02,2.89-.12,4.37-.3,1.48-.17,2.93-.34,4.37-.52ZM91.7,126.14l.12-.11v-.22s-.13.11-.13.11v.22ZM119.38,90.18l-.89-.21-1.01.13-.25.22.13.44c.17.15.51.21,1.02.2.34,0,.67-.08,1.01-.24v-.55ZM129.52,89.23l-.76-.21-.37.45.76.1.38-.34ZM135.86,89.12l-.26-.33-.63.23.26.22.63-.12Z"/>
        <path class="cls-3" d="M181.66,73.79c2.03-.03,4.38.22,7.06.76,2.67.54,5.25,1.36,7.72,2.46,2.47,1.1,4.57,2.46,6.29,4.08,1.72,1.62,2.6,3.5,2.63,5.63,0,.37-.09.94-.29,1.71-.2.77-.42,1.6-.65,2.49-.24.89-.5,1.72-.78,2.49-.28.78-.51,1.39-.67,1.83-.24.74-.54,1.87-.89,3.38-.35,1.51-.71,3.12-1.06,4.81-.35,1.7-.66,3.3-.93,4.81-.27,1.51-.4,2.6-.39,3.26.02,1.25.21,2.49.57,3.74.36,1.24.55,2.49.57,3.74.03,1.54-.26,3.11-.87,4.7-.61,1.59-1.43,3.09-2.46,4.5-1.03,1.41-2.24,2.7-3.61,3.86-1.38,1.16-2.86,2.05-4.46,2.67-.84.38-1.62.78-2.33,1.2-.71.42-1.4.89-2.07,1.41-1,.83-2.09,1.52-3.26,2.09-1.18.57-2.31,1.23-3.39,1.99-1.25.9-2.67,1.94-4.26,3.1-1.59,1.17-3.24,2.24-4.96,3.23-1.72.99-3.48,1.82-5.29,2.52-1.81.69-3.56,1.05-5.25,1.08-1.44.02-2.84-.13-4.2-.48-1.36-.34-2.64-.8-3.83-1.37-2.39-1.13-4.27-2.55-5.66-4.26-1.38-1.7-2.43-3.58-3.14-5.62-.71-2.04-1.17-4.17-1.38-6.37-.21-2.2-.33-4.36-.37-6.5-.07-3.97.5-7.81,1.71-11.54,1.2-3.73,2.75-7.38,4.63-10.93.33-.59.61-1.2.86-1.83.24-.63.49-1.24.73-1.83,1.3-3.11,3.02-6.22,5.17-9.34,2.14-3.12,4.63-5.98,7.47-8.56,2.83-2.58,6.01-4.69,9.54-6.33,3.52-1.64,7.36-2.5,11.5-2.57ZM144.26,134.82c-.18-.51-.29-1.06-.35-1.65-.05-.59-.34-1.06-.85-1.42-.17.15-.25.33-.24.56,0,.51.16.97.47,1.37.3.4.63.78.97,1.14ZM197.16,104.71c-.02-.95-.07-1.8-.17-2.53-.1-.73-.62-1.38-1.56-1.96-1.79-1.07-3.84-2.06-6.14-2.98-2.3-.91-4.7-1.7-7.21-2.36-2.51-.65-5.01-1.16-7.51-1.52-2.5-.36-4.85-.52-7.05-.49-2.28.04-4.56.24-6.84.61-2.28.37-4.03,1.52-5.27,3.45-2.14,3.42-4.16,6.74-6.05,9.97-1.89,3.23-3.1,6.83-3.62,10.81-.22,1.84-.57,3.66-1.05,5.47-.48,1.81-.7,3.63-.67,5.47.02,1.18.23,2.37.63,3.57.4,1.21,1.24,2.09,2.52,2.66,2.47,1.06,4.98,1.99,7.53,2.79,2.55.8,5.06,1.8,7.54,3.01,1.19.57,2.32,1.14,3.39,1.71,1.07.57,2.2,1.06,3.39,1.48l-1.4.02.26.33c.43.21.81.32,1.15.31.42,0,.92-.27,1.51-.8.58-.52,1.13-.9,1.63-1.13,2.18-.99,4.21-2.33,6.08-4.02,1.87-1.69,3.64-3.28,5.31-4.77.92-.9,1.53-1.92,1.85-3.06.32-1.14.55-2.3.7-3.48.38-2.58,1.17-4.74,2.36-6.49,1.2-1.75,2.44-3.33,3.73-4.75,1.29-1.42,2.45-2.76,3.48-4.03,1.04-1.27,1.54-2.67,1.51-4.21l-.05-3.08ZM148.87,137.28c-.09-.22-.26-.33-.51-.32l-.51.12,1.02.2ZM148.44,104.89l.13.22.12-.22h-.25ZM164.83,143.28c-.34-.21-1.28-.66-2.81-1.33-1.53-.67-3.18-1.34-4.92-2.01-1.75-.67-3.36-1.26-4.85-1.79-1.49-.53-2.4-.79-2.74-.78h-.51c.51.37,1.47.86,2.88,1.5,1.41.64,2.96,1.27,4.66,1.9,1.7.63,3.34,1.23,4.92,1.79,1.57.56,2.75.98,3.51,1.26l-.14-.55ZM149.3,103.66c.25-.08.46-.25.63-.51.16-.26.25-.5.24-.72v-.11c-.59.08-.97.46-1.12,1.12l.26.22ZM152.73,96.44l.38.21c.33-.3.5-.6.49-.89l-.38-.1-.49.78ZM165.1,143.83c.68.14,1.19.2,1.53.19.17,0,.32-.02.44-.06.13-.04.27-.06.44-.06-.68-.13-1.19-.2-1.53-.19-.42,0-.72.05-.89.13ZM184.48,75.51c0,.22.18.4.52.54,1.36.42,2.62.82,3.76,1.2,1.15.38,2.36.86,3.64,1.43.08,0,.13.02.13.05,0,.04.04.05.13.05.17,0,.27-.1.31-.28.04-.18.06-.35.06-.5-.35-.44-.86-.81-1.54-1.13-.68-.32-1.41-.58-2.17-.79-.77-.21-1.53-.36-2.29-.46s-1.44-.14-2.03-.13h-.51ZM199.69,81.75c.17,0,.25-.08.25-.22-.26-.36-.65-.8-1.17-1.3-.52-.5-1.09-.97-1.74-1.4-.64-.43-1.3-.79-1.99-1.07-.68-.28-1.28-.42-1.78-.41-.17,0-.23.08-.19.22.04.15.07.26.07.33v.11c.34.29.62.61.84.98.22.36.58.61,1.09.75.25.07.62.21,1.09.42.47.21.94.44,1.41.69.47.25.92.46,1.34.64.43.18.68.26.77.26ZM193.7,124.71c-.09,0-.13.04-.12.11l.13.11c.17,0,.25-.04.25-.11v-.11s-.26,0-.26,0ZM198.28,110.97h-.25c-.17,0-.36.16-.56.45-.21.3-.41.63-.62,1-.21.37-.37.74-.49,1.11-.12.37-.18.63-.18.77v.55s.77.21.77.21c.67-.23,1.07-.73,1.18-1.51.11-.77.25-1.45.41-2.05l-.26-.55ZM198.79,96.09l-.64-.43-.12.33c0,.29.13.44.39.43h.13s.25-.34.25-.34ZM199.51,101.14c0-.07-.05-.11-.13-.11-.08,0-.13.04-.12.11v.22s.26,0,.26,0v-.22Z"/>
        <path class="cls-3" d="M255.04,83.44c1.1.06,2.84.15,5.21.3,2.37.14,4.76.38,7.18.7,2.42.33,4.54.82,6.37,1.49,1.83.67,2.75,1.55,2.77,2.65.01.81-.4,1.57-1.23,2.28-.83.71-1.84,1.35-3.01,1.92-1.18.57-2.35,1.07-3.53,1.49-1.18.42-2.14.75-2.9.99-1.09.39-2.14.83-3.15,1.32-1.01.5-2.1.83-3.28.99-.34.15-.71.38-1.13.68-.42.3-.75.56-1,.79-.42.23-.88.48-1.38.74-.5.27-1.01.37-1.52.3l-.51-.21.12-.55c.58-.38,1.15-.79,1.69-1.24.54-.45,1.19-.68,1.96-.69.51,0,.85.06,1.02.2h.25c-.1-.59.17-1.2.79-1.84.62-.63.93-1.28.92-1.94-.02-1.17-.48-2.23-1.39-3.17-.9-.94-2-1.73-3.28-2.37-1.28-.64-2.66-1.11-4.15-1.42-1.49-.31-2.82-.45-4-.43-2.03.03-3.95.49-5.75,1.37-1.81.88-3.5,1.97-5.08,3.28-1.59,1.31-3.02,2.75-4.3,4.32-1.29,1.56-2.38,3.02-3.29,4.35-.25.37-.49.76-.74,1.17-.25.41-.37.87-.36,1.38.03,1.47.66,2.69,1.9,3.66,1.24.97,2.63,1.55,4.15,1.75l.13.22-.12.22c-.5.16-.93.24-1.27.24-1.19.02-2.33-.36-3.45-1.15-1.11-.79-2.02-1.58-2.71-2.38.27,1.25,1.05,2.24,2.33,2.99s2.64,1.11,4.08,1.09c.93-.02,1.86-.18,2.78-.49.92-.31,1.72-.76,2.39-1.36-.34,0-.63.07-.88.18-.25.11-.55.1-.89-.04.16-.22.92-.69,2.26-1.42,1.34-.72,2.83-1.44,4.47-2.17,1.64-.73,3.19-1.38,4.66-1.95,1.47-.58,2.42-.87,2.84-.88.34,0,.59.06.76.21-.33.74-1.37,1.66-3.12,2.75-1.76,1.1-3.62,2.27-5.59,3.51-1.97,1.25-3.74,2.58-5.32,4-1.58,1.42-2.36,2.87-2.34,4.34.01.59.11,1.27.29,2.03.18.77.49,1.41.92,1.91.17.15.32.31.45.49.13.18.2.38.2.6l.39.32c.43.21,1.26.57,2.49,1.06,1.23.49,2.56,1,3.96,1.53,1.4.53,2.7.98,3.89,1.37,1.19.38,1.91.57,2.17.57,1.18-.02,2.81.06,4.89.25,2.07.18,4.13.53,6.17,1.05,2.04.52,3.81,1.22,5.3,2.11,1.5.89,2.26,2.07,2.28,3.54.02,1.32-.4,2.3-1.28,2.94-.88.64-2.04.97-3.47,1-2.96.05-5.19-.31-6.68-1.1-1.49-.78-2.74-1.72-3.73-2.8-.99-1.08-2-2.17-3.04-3.25-1.03-1.08-2.57-1.87-4.61-2.35-1.36-.34-2.68-.82-3.96-1.42-1.28-.6-2.56-1.19-3.84-1.75-1.28-.56-2.62-1.07-4.02-1.53-1.4-.45-2.91-.67-4.52-.64-.25,0-.7.03-1.33.08-.63.05-.95.22-.94.51l-.12.22c-.51-.14-1.02-.13-1.52.03-1.85.84-3.27,1.76-4.27,2.77-1,1.01-1.76,2.09-2.29,3.23-.53,1.15-.91,2.4-1.14,3.77-.23,1.36-.5,2.86-.81,4.48-.24,1.03-.55,2.27-.95,3.71-.4,1.44-.92,2.86-1.58,4.27-.65,1.41-1.48,2.65-2.47,3.73-1,1.08-2.21,1.75-3.65,1.99l-.76.12c-1.35.02-2.21-.47-2.56-1.5-.36-1.02-.54-1.97-.56-2.86-.07-4.19.92-8.24,2.96-12.17,1.88-3.63,3.38-7.51,4.49-11.65.64-2.36,1.48-4.67,2.55-6.93,1.06-2.26,2.14-4.48,3.25-6.67,1.1-2.18,2.15-4.41,3.12-6.67.98-2.26,1.74-4.56,2.29-6.93.55-2.51,1.1-4.94,1.65-7.3.55-2.36,1.23-4.76,2.03-7.2.64-1.99,1.69-3.78,3.14-5.34,1.45-1.57,3.53-2.37,6.24-2.42,2.03-.03,3.66.38,4.91,1.24,1.24.86,2.36,1.85,3.35,2.97.99,1.12,1.94,2.23,2.85,3.31s2.04,1.84,3.4,2.26c-.17.15-.38.23-.63.23s-.51.05-.76.12c1.11.72,2.3,1.06,3.57,1.04.42,0,.8-.12,1.14-.35l.76-.23ZM211.01,142.93l-.26-.33-.38.34.26.33.38-.34ZM219.4,121.3c-.75.38-1.13.83-1.12,1.34v.22c.26,0,.55-.19.88-.57.33-.37.5-.67.49-.89l-.26-.11ZM228.72,117.17l.76.1.12-.22-.39-.54-.63.12.14.55ZM242.38,77.71c-.44-.73-1.21-1.61-2.33-2.66-1.12-1.04-2.18-1.56-3.2-1.54-.34,0-.55.12-.63.34-.08.22-.12.44-.12.66.02,1.03.09,1.65.22,1.87.13.22.79.32,1.97.3.51,0,1.19.16,2.04.52.85.35,1.53.64,2.04.85v-.33ZM245.7,123.27l.13.11c-.17,0-.25-.03-.26-.11h.13ZM245.95,123.38c.34,0,.51.1.51.32-.17,0-.38-.1-.64-.32h.13ZM246.59,123.7c.17,0,.34.07.51.21-.25,0-.47-.06-.64-.21h.13ZM247.23,123.91c.17,0,.25.11.26.33l-.26-.33ZM247.62,124.23v.11s-.13-.11-.13-.11h.13ZM247.62,124.23c.25-.08.51,0,.77.21l-.77-.21ZM248.51,124.43c.34,0,.55.1.64.32l-.64-.32ZM249.34,84.31l-.13-.22h-.25s.13.22.13.22h.25ZM251.86,83.05l-.13-.11.26.11h-.13ZM255.39,126.3c1.03.94,2.06,1.49,3.07,1.66,1.02.17,2.21.42,3.57.77l.63-.12c-.26-.22-.69-.47-1.28-.75-.6-.28-1.24-.55-1.92-.79-.68-.24-1.34-.43-1.98-.57-.64-.14-1.17-.2-1.59-.19h-.51ZM270.96,86.69l-.39-.32c-1.54-.71-3.15-1.21-4.85-1.51-1.7-.3-3.39-.51-5.09-.63.43.36.92.7,1.48,1.02.55.32,1.09.66,1.6,1.02l.64.1h.25c.93-.02,1.88.07,2.86.28.97.2,1.97.3,2.99.28l.5-.23ZM262.72,131.79l-.26-.22-.12.22.26.22.12-.22ZM266.71,90.95l-.26-.33-.5.45.38.21.38-.34Z"/>
        <path class="cls-3" d="M322.61,72.58c.76-.01,2.2-.07,4.31-.18,2.11-.11,4.31-.15,6.6-.11,2.28.04,4.3.24,6.04.61,1.74.37,2.62,1.08,2.64,2.1.02,1.4-.64,2.44-1.98,3.12-1.34.68-3.07,1.21-5.18,1.58-2.11.37-4.43.66-6.96.89-2.53.23-4.98.58-7.34,1.06-2.36.48-4.46,1.2-6.31,2.15-1.85.95-3.13,2.28-3.87,3.98-.24.59-.55,1.28-.92,2.05-.37.78-.73,1.57-1.1,2.39-.37.82-.67,1.61-.91,2.38-.24.78-.35,1.49-.34,2.15.03,1.54.3,2.71.82,3.51.52.8,1.23,1.41,2.13,1.84.9.43,1.89.76,3,1,1.1.24,2.25.6,3.45,1.1.6.58,1.69.98,3.26,1.21,1.57.23,3.2.46,4.9.69,1.7.23,3.29.55,4.78.96,1.49.42,2.45,1.1,2.89,2.04,0,.44-.35.8-1.06,1.06-.71.27-1.24.59-1.57.96-.08.08-.15.17-.19.28-.04.11-.15.17-.31.17-.17,0-.4-.05-.7-.15-.3-.11-.53-.16-.7-.15-1.1.02-2.2.11-3.29.28-1.1.17-2.24.26-3.42.28-1.86.03-3.72-.05-5.59-.23-1.86-.19-3.73-.27-5.59-.23-2.37.04-4.45.59-6.25,1.65-1.8,1.06-3.32,2.39-4.56,3.99-1.24,1.6-2.16,3.36-2.76,5.28-.6,1.92-.89,3.76-.86,5.52.02,1.1.1,2.11.24,3.03.14.92.45,1.72.93,2.41.48.69,1.16,1.23,2.06,1.62.89.39,2.06.57,3.5.55.42,0,.78-.05,1.08-.13.29-.08.65-.12,1.08-.13.76-.01,1.4.2,1.91.63.51.43,1.24.64,2.17.62,1.44-.02,2.68-.28,3.73-.78,1.05-.49,1.99-1.03,2.83-1.59.83-.57,1.61-1.07,2.32-1.53.71-.45,1.45-.69,2.21-.7.68-.01,1.25.11,1.72.36.47.25.98.53,1.54.86.55.32,1.24.62,2.05.9.81.28,1.89.41,3.24.39.93-.02,1.84-.09,2.72-.21.89-.13,1.79-.2,2.72-.21,2.11-.04,3.75.54,4.92,1.73,1.16,1.19,1.76,2.63,1.79,4.32.01.74-.21,1.46-.66,2.16-.45.71-1.19,1.07-2.2,1.08-2.37.04-4.54.34-6.52.88-1.98.55-3.68,1.17-5.11,1.85-1.43.69-2.6,1.29-3.52,1.82-.92.53-1.59.8-2.02.81-.51,0-1.1-.11-1.78-.36-.68-.24-1.38-.53-2.11-.85-.73-.32-1.43-.65-2.11-1.01-.68-.35-1.28-.64-1.79-.85-1.02-.42-1.75-.92-2.18-1.51-.43-.58-.95-1.1-1.55-1.57-.6-.47-1.47-.87-2.62-1.22-1.15-.35-2.86-.5-5.15-.46-2.2.04-4.33.33-6.39.88-2.06.55-4.15.84-6.27.88-2.37.04-4.12-.66-5.24-2.11-1.13-1.45-1.7-3.09-1.73-4.93-.03-1.91.44-3.77,1.43-5.59.98-1.82,1.8-3.61,2.45-5.39.65-1.7,1.2-3.77,1.67-6.2.47-2.43.89-4.95,1.27-7.57.38-2.61.65-5.17.82-7.67.17-2.5.24-4.63.21-6.4-.02-1.25-.19-2.44-.51-3.57-.32-1.13-.65-2.26-1.01-3.4-.36-1.13-.69-2.26-1.01-3.4-.32-1.13-.48-2.29-.5-3.46-.01-.59,0-1.16.03-1.71.03-.55.09-1.12.16-1.71.14-1.55.5-2.6,1.09-3.16.58-.56,1.71-1.11,3.4-1.66,2.19-.7,4.37-1.34,6.56-1.93,2.19-.59,4.43-.9,6.71-.94,3.04-.05,6.11.1,9.21.45,3.09.35,6.16.5,9.21.45ZM302.59,81.74c-.18-.66-.34-1.17-.47-1.53-.13-.36-.67-.54-1.59-.52-.51,0-1.16.17-1.96.47-.8.31-1.19.76-1.18,1.34,0,.51.31.77.9.76.51,0,1.01-.05,1.52-.14.51-.08.97-.2,1.39-.35l1.02.31.38-.34ZM300.61,136.43c.17.15.38.21.64.21.25,0,.51,0,.76-.01,2.11-.04,4.02.3,5.73,1l.76-.12-.39-.32c-.34-.07-1-.28-1.98-.63-.98-.35-1.55-.52-1.72-.52-.34,0-1.01.04-2.03.09-1.01.06-1.6.16-1.77.31ZM302.54,137.94l-.38-.1c-.25,0-.38.08-.38.23l.38.21.38-.34ZM335.45,73.8c-.26-.22-1.06-.35-2.42-.4-1.35-.05-2.88-.06-4.57-.03-1.69.03-3.32.08-4.88.14-1.56.06-2.6.1-3.11.11-2.71.05-5.42-.09-8.13-.41-2.71-.32-5.42-.46-8.13-.41-.68.01-1.35.24-2.02.7l-.12.22.26.22c.42-.08.89-.13,1.39-.13.51,0,.97-.02,1.4-.02,3.04-.05,6.07.02,9.08.23,3.01.21,6.03.28,9.08.23,1.94-.03,3.93-.08,5.96-.16,2.03-.07,4.01-.12,5.96-.16l.25-.11ZM319.94,138.97l.51-.12.12-.33-.39-.32-.75.45.51.32ZM319.85,133.57c0,.37.2.53.58.49.38-.04.7-.03.95.04v-.11c0-.22-.14-.44-.39-.65-.26-.22-.51-.32-.77-.32h-.13s-.25.23-.25.23v.33ZM322.06,106.97h.63c-.09-.08-.3-.12-.64-.11v.11ZM327.38,136.08c.42.07.83.1,1.21.09.38,0,.78-.01,1.21-.02,1.35-.02,2.7-.16,4.05-.4l.25-.22-.26-.22c-2.12.04-4.18.18-6.21.44l-.25.33Z"/>
      </g>
      <polygon class="cls-2" points="361.48 163.54 361.48 163.53 361.49 163.53 361.48 163.54"/>
      <path class="cls-3" d="M424.66,147.89c.16-.08.33-.15.5-.23l-.15-.16c-.1.15-.21.28-.34.39Z"/>
      <path class="cls-3" d="M410.25,153.54s.09-.03.14-.04c-.06.01-.12.02-.18.03h.04Z"/>
      <path class="cls-3" d="M421.66,149.43s.08-.04.12-.05c-.08-.01-.16-.02-.26-.04l.14.1Z"/>
      <path class="cls-3" d="M388.8,2.84c37.36-5.15,59.98,49.5,60.65,76.84s-.94,71.7-55.73,79.15c-41.13,5.59-66.59-55.34-56.61-90.71,5.28-18.71,19.17-60.79,51.68-65.27Z"/>
      <path class="cls-3" d="M366.4,60.66c-.38.04-.67.06-.94.37-.2.23-.34.46-.62.61-.4.21-.69.41-.98.78-.26.32-.48.66-.76.96-.12.12-.21.18-.35.3-.39.31-.75.68-1.08,1.07-.16.19-.28.39-.47.56-.49.42-1.08.68-1.55,1.14-.32.31-.34.7-.51,1.1-.48,1.11-1.01,2.1-1.09,3.32-.02.34.04.74-.02,1.07-.05.31-.11.63-.17.94-.07.34-.24.62-.34.94-.03.09-.01.17-.03.27-.02.08-.09.17-.1.26-.02.12.02.23,0,.35s-.06.26-.1.38c-.12.37-.2.73-.37,1.08-.13.27-.17.4-.13.68.05.36.08.73.07,1.1,0,.46-.12.89-.07,1.35.04.4.08.8.12,1.21.05.48.09.96.14,1.44.04.36.02.63-.01.99-.03.34-.07.69-.08,1.04,0,.2-.03.29-.1.46-.15.37-.3.86-.28,1.25.03.47.09.93.1,1.41,0,.67.03,1.34,0,2-.02.38.01.81-.05,1.2s-.35.62-.47.97l-.1.35c-.08.18-.17.36-.28.52-.04.1-.06.21-.09.32-.08.28-.24.56-.3.84-.12.53.18,1.23.33,1.7.3.9.62,1.8.86,2.72.09.34.15.68.28,1s.16.66.27.98c.19.55.48,1.05.73,1.57.3.61.61,1.23,1.02,1.78.27.36.54.85.89,1.13.4.31.78.62,1.22.9.32.21.56.34.88.5.2.1.09.06.22.19.11.12.46.11.59.13.27.05.21.07.39.19.15.09.28.03.47.05.12,0,.28.05.39.1.07.03.11.1.19.12.12.04.25-.04.37-.03.06,0,.15.04.21.06.3.05.59.13.88.22.09.03.25.09.36.1.04,0,.2-.03.23-.02.25.11.21.51.43.64.17.1.34.05.49.23.1.12.07.22.23.3.06.03.15.03.2.06.1.05.12.13.2.2.08.07.18.12.26.18.03.02.08,0,.11.03.09.07.1.23.23.28.08.03.15-.01.2.01.11.04.09.24.11.34.12.49.37.96.52,1.45.12.4.26.79.32,1.2.04.29.12.57.18.86.09.43.15.85.26,1.28.14.55.33,1.08.44,1.64.05.23.09.48.2.69.04.08.07.13.12.2.1.13.19.26.28.39.17.2.34.38.53.55.06.08.07.21.12.29.15.25.39.47.58.68.33.37.66.74,1.02,1.07.09.08.22.17.29.28.12.18.06.2.26.36.29.22.66.4.98.58.38.21.79.36,1.16.57.14.08.24.15.39.2.21.07.27.25.46.34.29.14.62.17.92.26.81.23,1.67.38,2.51.46.29.03.57.05.86.08.26.02.46-.03.72,0,.53.07,1.06.11,1.59.2.73.12,1.46.23,2.18.36.34.06.62.27.92.35.16.05.34,0,.51.04.21.05.32.1.48-.06.12-.12.25-.24.39-.34.21-.16.48-.25.64-.48.09-.12.15-.26.18-.41.02-.1,0-.13.05-.24.05-.13.09-.26.14-.38.13-.33.35-.54.35-.91.18-.04.32-.12.5-.13.19-.02.39-.03.58-.06.23-.03.33.03.5.19.21.2.33.32.65.19.11-.05.23-.1.33-.15.09-.05.16-.11.25-.16.16-.08.36-.15.53-.22.13-.05.39-.11.5-.22.05-.05.07-.13.12-.19.07-.09.19-.15.28-.21.18-.12.39-.16.57-.28.13-.08.27-.16.41-.24.13-.08.12-.09.17-.22.1-.21.17-.24.33-.38.07-.06.09-.16.15-.24.08-.11.21-.16.3-.25.14-.14.37-.37.4-.57s.05-.23.15-.39c.12-.22.09-.23.36-.25s.55-.11.83-.16c.49-.08.99-.06,1.48-.07.07-.18.36-.34.51-.46.23-.19.4-.35.55-.6.02-.04.07-.06.09-.1.05-.09.08-.2.14-.29.06-.08.17-.14.22-.23.06-.1.05-.22.14-.3.08-.08.22-.12.33-.15.25-.06.58-.21.74-.41.1-.12.05-.06.18-.12.08-.04.13-.11.21-.16s.21-.07.3-.11c.06-.03.12-.04.17-.07.06-.04.08-.09.14-.12.37-.15.85-.01,1.24-.05.53-.05,1.12-.04,1.55-.39.29-.25.8-.37,1.02-.67.07-.1.13-.22.2-.33.18-.31.31-.64.52-.92.09-.12.13-.24.21-.38.16-.27.4-.49.57-.75.15-.23.27-.53.34-.79.06-.25.11-.45.21-.69s.03-.48.14-.73c.08-.18.23-.46.36-.63.06-.08.14-.12.19-.21.04-.07.06-.14.11-.21.11-.15.29-.26.41-.4.08-.09.09-.14.2-.21.13-.07.14-.11.22-.25s.17-.17.3-.26.21-.21.31-.33c.21-.26.44-.48.7-.7.21-.17.37-.43.57-.62.3-.29.58-.61.9-.88,1.02-.86,1.99-1.81,2.74-2.92.3-.45.56-.94.88-1.38s.67-.89.98-1.36c.48-.74.8-1.54,1.21-2.31.36-.67.48-1.36.72-2.07.19-.55.47-1.04.69-1.57.18-.44.31-.91.44-1.37.25-.9.41-1.78.56-2.7.07-.44.19-.83.13-1.27-.04-.32-.07-.64-.1-.96-.12-1.23-.14-2.47-.66-3.62-.15-.33-.3-.69-.53-.98-.36-.43-.78-.88-1.23-1.21-.4-.29-.77-.57-1.14-.88-.45-.39-.98-.65-1.5-.95-1.13-.65-2.28-1.31-3.29-2.15-.62-.51-1.22-1.06-1.86-1.54-.83-.63-1.69-1.23-2.4-2-.21-.23-.42-.47-.63-.7-.19-.21-.45-.44-.59-.69-.21-.35-.34-.7-.62-1.01-.1-.11-.22-.21-.33-.3-.32-.28-.61-.61-.94-.87-.21-.17-.47-.26-.66-.45-.14-.14-.2-.22-.39-.28-.22-.07-.44-.1-.68-.09-.44.03-.88.14-1.32.24-.47.11-.93.2-1.35.43-.27.15-.57.22-.86.32-.32.1-.66.24-.99.28-.23.03-.47.04-.71.07-.46.05-.92.11-1.39.07-.19-.02-.38-.04-.58-.06-.42-.03-.83-.08-1.25-.13-.16.01-.3-.02-.44-.09.05-.23-.26-.45-.32-.66-.01-.1-.03-.2-.06-.3-.03-.02-.05-.05-.07-.09-.04-.15,0-.24.04-.38.04-.17.05-.29.03-.47-.04-.38-.03-.78-.17-1.13-.19-.49-.52-.99-.81-1.43s-.64-.82-.99-1.22c-.63-.7-1.22-1.43-1.95-2.04-.46-.38-.92-.79-1.32-1.24-.16-.18-.23-.24-.46-.32-.15-.06-.23-.11-.36-.21-.18-.14-.24-.14-.48-.19-.29-.06-.57-.18-.85-.28-.44-.15-.83-.23-1.29-.3-.88-.13-1.77-.32-2.66-.37-1.14-.06-2.3-.21-3.44-.17-.85.03-1.71-.03-2.56-.01-1.3.02-2.59.09-3.89.11-.75.01-1.53.09-2.27.2-.48.07-1,.23-1.46.37-.26.08-.42.18-.65.3-.17.08-.34.17-.51.26-.06.05-.12.11-.18.16-.18.11-.41.11-.58.25s-.18.3-.38.42c-.18.11-.21.09-.31.29-.06.13-.15.24-.21.37-.08.17-.04.34,0,.23Z"/>
      <path class="cls-2" d="M419.51,144.11c.07-1.28,1.28-2.3.1-3.74h-.9c-.42,1.08-.63,2.36-.44,3.51.13.79.65.86.77,1.42.36,1.61-.75,4.78-1.77,6.04-.24.3-.75.18-.97.55l.08.05c.36-.11.71-.23,1.06-.36,1.26-2.15,2.08-3.71,2.28-6.31.03-.31-.24-.73-.21-1.18Z"/>
      <path class="cls-2" d="M366.22,149.18c-2.17-3.7-4.31-7.24-4.7-11.63-.17-1.94.14-3.8.14-5.59,0-.45-.47-.2-.54-.68-.6-3.91-1.06-13.33-.58-17.11.05-.39.37-.73.4-1.28.07-1-.48-1.98-.32-3.02.95.25.95,2.5,1.06,2.61.14.15,1.45-.03,1.69,1.09.17.78-.66.61-.84,1.32-.12.46.26,1,.19,1.53-.03.17-.41.2-.56.48-.37.76-.9,2.14.48,1.42l.34.34c-.09.72-.02,4.2.48,4.19.73-.11-.22-4.98.98-4.13.07,2.11,2.09,2.84,2.95,4.46,1.52,2.86,1.68,6.32,1.36,9.5-.15,1.53-1.19,3.89-.71,5.13.12.3.64.03.94.54.53.92-.06,1.87.14,2.57.18.58,1.28.93,1.45,1.71.42,1.93.06,3.76.9,6.01.6,1.62,1.79,3.11,2.52,4.67l-6.77-3.39c5.85,4.16,12.75,6.1,19.89,6.58-1.68-.24-3.36-.51-5.07-.72.53-1.07-.37-2.14-.53-3.28-.2-1.31.2-2.51-.61-3.71-1.44.01-.57,2.49-.27,3.4.18.53.67.92.82,1.37.15.47.53,2.24-.12,2.1-2.13-.45-4.18-1.16-6.11-2.25-1.13-2.01-2.62-3.32-2.98-5.74-.27-1.84.43-4.4-.21-6.03-.48-1.21-2.44-2.02-2.73-3.58-.3-1.56.39-3.28.37-4.83-.05-2.33-.21-7.13-.66-9.25-.27-1.27-.77-3.35-2.03-3.73l.09-4c.5-.1.95.16,1.23.56.08.13.87,1.7.9,1.8.26.85.23,1.31.66,2.51.57,1.63.18,2.14.36,3.34.1.71,1.09,1.43,1.15,1.75.06.32-.28.76-.15,1.15.11.31.66.29.73.54.3,1.03.03,3.94.11,5.28.05.8.56,2.03.54,2.66-.02.36-.39.58-.39.92.01.63.87,1.82.99,2.67.45,3.02-.23,6.92.22,9.93.08.49.92,2.47,1.29,1.43.35-.98-.59-5.54-.7-7.01-.1-1.37.25-3.42.08-4.56-.13-.92-.78-2.14-.92-3.24-.16-1.28.08-5.35.42-6.56.15-.54.62-1.3,1.25-1.28l.07,2.74.5.27c.04.22-.35.06-.42.17-.2.32.08,7.2.36,7.45l.72-.02c.26-3.21-.59-6.48-.23-9.67l-.73-.11c.71-.86.06-2.28.54-3.02.34-.51,2.82-1.36,3.23-1.05-.66.57.57,3.64,1.27,2.86.09-1.85.07-2.89-1.31-4.2-.06-.17.19-.16.37-.13.2.03,3.25,1.97,3.54,2.23.97.82-.03,1.89-.14,2.91-.31,2.86.61,6.09.7,8.91.04,1.26-.72,6.27.52,6.88.48.11.53-.59.56-.88.43-3.91-1.31-9.58-1.05-13.74.1-1.58,1.05-3.11.62-4.72.56.04,1.9-.28,2.18.31.27.54-1.06.34-1.13.99-.07.78.86.57,1.38.61.43.25.03,3.8.39,4.56l.98-.18c.57-1.11.29-2.21.41-3.34.09-.84.47-2.49,1.17-1.04.33.67.56,5.52.64,6.76.06,1.04-.05,6.59.4,6.9,1.37-.26.67-1.73.65-2.54-.07-3.32-.18-6.62-.22-9.93-.01-1.11-.37-1.34.42-2.54l.75.34c.27.19-.01.41-.01.48.03,1.13-.09,2.85.1,3.87.07.43.54.85.96.57.63-.41-.13-3.02-.07-3.71.12-1.32,4.52-6.06,5.88-6.46,1.28-.39,1.89.31,2.8.27.86-.05,1.38-1.12,2.39-.79.98.34.57.77.86,1.09.63.7,2.53,2.11,2.84,2.73,1.02,1.97.55,7.16.6,9.52.07,3.23.36,6.71.25,9.91-.06,1.52-.69,3.12-.37,4.73l-.74-1.63c.45,2.75.76,5.2.18,8l-.58.2c.62-.14,1.24-.29,1.85-.44-.16-1.11-.19-2.32-.15-3.38.23-6.35,1.26-12.7.5-19.12l.71-.95c-.35-3.89.1-7.98,0-11.88-.04-1.02-.79-1.41-.47-2.53.38-1.32,1.35-1.34,2.51-1.75.07.65-.21,1.46.41,1.92.62-.68-.35-1.5,1.04-1.71l-.65-.83.72-1.34c.57.74.97,1.7.91,2.64l1.28-.7c.88,0,1.73,2.43,2.12,3.23.18.33.1.79.22,1.02.24.41.77.59,1.03,1.13.43.89.01,1.96.11,2.82.06.46-.04.41.51.36l.35-5.08-.57.98c-.2-.5-.85-.76-1.08-1.09-.37-.54-2.55-4.65-2.66-5.15-.18-.85.54-3.52.46-4.56.58.06.17,1.21.98.94l.57-2.7,1.32.24.04,1.69.47-.26c.26.62-.42.41-.47.65-.37,1.76.18,4.26.27,6.02.02.51-.46,1.56-.06,2.29l.72-.43v-9.51s1.61,1.41,1.61,1.41c.31-.69-.97-1.08-1.12-1.66,1.48.4,1.19,1.97,3.17,1.36.52-.54-1.66-1.59-1.86-2.12-.12-.32.25-.79-.02-1.23-.22-.34-1.16-.35-1.34-.84-.3-.84.66-1.29.65-1.43-.01-.06-.53-.47-.68-.77-.18-.35-1.02-2.29-.84-2.46l4.11.14c.18-.79-1.09-.41-1.72-.55-.36-.08-.72-.18-.96-.48.18-.67,1.04-1.52,1.75-1.38.44.08.31,1.95,1.15,1.68l-.03-1.45.97-.03c-.35-.53-.75-.09-1.16-.88-2.13-4.08,1.61-2.59,3.85-2.55,1.99.03,4.31-.03,6.3-.17.29-.02.9.16.83-.26l-4.59.12c-.1-.1.36-.86-.9-.94-1.63-.1-2.49,1.14-4.02.27-1.5-.85-1.13-2.75.34-2.61.57.06,3.84,2.04,4.05,1.84-.11-.72-1.05-1.37-1.72-1.17l.47-.38-.62-.59-2.32-1.03c.55-.64,1.36-.26,2.1-.6.57-.25.6-.79.83-.97,1.07-.83,2.35-1.49,3.76-1.37l-.24-.7.46-.27-2.39.03-.35-1.38-.49-.03-.2-.59c.21-.55,3.17-.36,3.85-.58-.66-.81-1.51.35-2.07-.55l-.26.5c-.91.29-.81-.43-1.09-.57-.49-.26-2.01-.55-2.2-.67-.24-.14-.3-1.18-.74-1.7-.78-.91-1.56-.11-1.41-2.08.18-2.28,1.77-2.4,3.55-3.41l9.97-2.89c-1.22-.09-2.42.57-3.55.74-1.82.29-4.36.27-6.2.71-1.73.41-1.67.68-3.82.89-4.39.42-3.67-.67-6.95-1.27-.86-.16-1.83.09-2.5-.09-.76-.2-.96-1.58-2.13-.87-.41-1.22.24-2.11.64-3.16-.84.22-1.49,1.02-2.37,1.16-1.87.3-2.62-1.41-3.83-2.45-.78-.67-1.61-.5-1.63-1.77-.02-1.24.07-2.43-.06-3.64-.07-.6-1.63-.84-.8-2.52-.8.39-.57,1.7-.89,2.28-.11.2-2.88,2.85-3.32,3.27-1.12,1.05-2.45,1.91-3.44,3.1l-.33-.04c0-.69-.42-.13-.75-.29-1.04-.48-.1-1.22-.16-1.58-.11-.62-2.42-3.34-3.01-4.05-1.29-1.52-1.16-1.78-2.01-3.06-.5-.74-1.9-1.85-2.6-2.5,1.1-.42,1.15-1.53.91-2.55-1.89.47-2.1,2.6-4.42,2.77-.97.07-.36-.3-.76-.73-1.31-1.37-3.88-.01-4.58-.85-.52-.62-.34-1.7-.95-2.48-.41-.51-1-.58-1.35-.93-1.3-1.27-.94-5.01-.77-6.74l-.7-.63c-.06.66.13,1.43.07,2.07-.04.45-.44.33-.49.52-.31,1.58.37,3.39-.75,4.92-.12.16-1.4,1.58-1.5,1.62-.52.26-2.28.57-2.82.85-.8.41-1.76,1.35-2.58,1.81l-.84-.45-.13.49-.7-.25c-.35,1.05-.84.49-1.05.59-.05.03-.03.38-.2.42-.45.11-2.52-.49-3.06-.72-.55-.24-2.55-2.03-2.38-.85l.98.7c-1.31-.14-3.07-1.47-4.22-2.31-.23-.16-1.2-1.61-1.66-1.17-.18.16.92,1.32.99,1.56.78.72,2.24,1.16,2.96,1.85.38.36,1.8,3.17,1.73,3.52-.03.21-.83,1.82-1,1.91l-.85-.47c.3,1.52-1.31,1.96-1.7,2.78-.2.41.05,1.65-.42,2.05-.24.21-.9.15-1.2.33-.35.2-.43,1.04-1.13,1l.99.58c0,.37-1.01,1.78-1.29,2.08-.27.27-.79.19-.85.4-.23.88.94,1.57.4,2.46-.19.44-1.56.75-1.91,1.14-.38.41-1.11,4.16-1.16,4.92-.05.97.26,1.79.25,2.59,0,.82-.01,3.61-.21,4.06-.03.07-.82,1.14-.88,1.18-.28.17-.83,0-1.03.31-.14.24-.02.67-.15.92-.06.1-1.55,1.44-1.71,1.56-.97.7-2.64.42-2.72,1.9-.16,2.48,2.62,5.59,4.19,2.44h.28c1.37.25,1.9,1.39,3.05,2.02.61.35,3.27,1.17,3.5,1.6.21.36.26,1.69.38,2.17,0,.04.36.04.4.21.19.84.2,2.08.31,2.97l-.49-.47c-.29,1.23,1.34,2.9,1.5,3.76.15.81-.54,4.27-.56,5.52-.04,1.82.07,3.66.38,5.44.39.07.5-.11.69-.4.86-1.39-.42-6.49.12-8.38.07-.23.53-.77.65-.68.49.81.1,1.65.15,2.33.41,5.51,1.7,10.94,1.29,16.62l1.25,11.57-.48.26c-.45-.29-.34-1.45-.98-.94l1.13,2.03.59-.5c-.3,3.38,1.91,6.02,2.87,9.06.67.61,1.34,1.2,2.04,1.74ZM366.4,119.4c-1.3.11-1.5-3.15-.9-3.35,1.7-.58.75,2.44.9,3.35ZM366.21,108.57l-1.55-1.23.97.22.1-.49c.74,1.13,2.09,1.16,2.84,2.11l-2.36-.61ZM401.58,114.07l3.12-.92c-.3,1.62-1.92,2.3-3.12.92ZM409.05,122.95c-1.12-.42-.42-1.29-.55-2.26-.18-1.38-1.55-2.23.04-3.77,1.08,1.83.52,4.03.51,6.03ZM409.47,110.24c-.58.27-.81.84-1.43.88.12-1.87,2.43-1.31,3.45-2.5l.1.93c-.07.12-1.71.5-2.12.69ZM413.46,105.44c-.42.15-.09-.77-.5-.36h0c-1.12,1.16-1.07,3.12-2.57,3.57.41-.69,1.12-1.73.3-2.42-.24.3-1.39,2.06-1.77,1.73-.06-.97,4.58-5.1,4.96-4.71l-.43,2.19ZM415.08,112.4c-.6-1.69-1.05-2.57-.52-4.39.08-.25.04-.73.39-.69.1,1.4,0,2.83.1,4.23.02.15.61.83.02.85ZM415.63,103.9l.18-1.43c.98-.69,2.89,2.96-.18,1.43ZM416.61,100.98c.06-.3.45-.83.76-.93.2-.06.44-.09.64-.04.37.12,1.34,3,1.41,3.53.25,2.22-3.04-1.36-2.81-2.57ZM365.17,58.97c.41.37-2.82,2.83-3.19,3.22-.91.97-1.55,2.26-2.46,3.21.83-2.98,2.56-5.52,5.65-6.43ZM355.69,86.78c.22-.96-.76-2.21-.69-3.01.02-.2.31-.44.34-.74.1-.99-.27-1.92.67-2.67l-.73-.11v-.47c.91-.07.3-2.23.48-3.18.07-.43.31-.34.4-.23.46,2.47-.13,4.89-.06,7.38.02.52.3,1.02.3,1.45,0,.3-.37,1.41-.7,1.58ZM356.8,93.41l.73-.4.5.94-.79-2.76.49.11c-.62-1.61-.13-3.03.13-4.61l-.47.26-.28-.8c.62-.31.65-.84.7-1.51.24-3.46-.72-6.71.31-10.09.18-.59.78-2.27,1-2.82.15-.4.75-.48.79-.69.05-.34-.84-.54.19-1.93.39-.52,1.02-.77,1.29-1.13,1.42-1.86,1.07-2.16,3.16-4.07.4-.36,2.32-2.25,2.51-2.34.1-.05.4-.07.36.11l-1.18,1.25c-.45,1.11,1.82-.86,1.98-.95,1.07-.6,5.19-2.11,6.31-2.21,1.39-.13,3.35.37,4.81.31l.59-.76.05.94,1.31.24-.37-.47,1.21.21-.56.47-.15.51,1.21.34-.49-.59c1.8-.07,2.47,1.17,3.22,2.56l.7-.24c-.05,1.03.86,1.27,1.65,1.61.32.15,2.02.98,1.29.01l.97.09c-.29-.66-1.38-.64-1.66-.86-.25-.2-.26-.84-.33-.9-.03-.02-.42.28-.71.15-.33-.16-.54-.81-.88-1.08-.64-.51-1.45-.76-2.09-1.28.84-.72,2.88,1.83,3.18,1.49l-.65-1.68c1.27.83,1.27,2.24,2.26,3.09l.22-.49c.79,1.23,2.18.75,3.19,1.61,1.58,1.36,2.09,4.51,2.57,6.47l.37.23-.27-1.2c1.5-.35,1.52,3.32,1.92,3.6,1.24.42,2.12-.69,3.49-.11-.61-1.48,2.57-.8,2.88-1.04l-.51-.95.72-.26-1.23-.7,1.19-.06v-.52c.3-.78.83.75,1.24.88l-.48.25c.27.39.64.08.97.44.27.28,1.62,2.55,1.87,3.03,1.18,2.28,2,5.01,2.99,7.4.98-.41-.17-1.53-.42-2.18-.25-.68-.44-1.45-.66-2.15.32.11.68.44.85.73.4.66.82,2.02,1.18,2.66.13.25.48.31.73.42l-.84-2.73-.7-.62c.89.16.14-.87.7-.99,1.01,2.09,2.09,4.18,2.57,6.46l-.42.07,1.51,4.5c.41.05.25-.6.22-.86-.05-.62-.69-3.48-.32-3.71h.91s1.32,2.83,1.32,2.83c.43.05.23-.56.16-.8-.09-.3-.78-1.78-.71-1.85l.48-.02c.62,1.56,1.16,3.23.23,4.83-.42.72-.99-.15-.83.97l-.69.16c.57.85-.23,1.22-.19,2.06l.23-.49.46.34c-.78,1.34-.91,4.15-1.91,5.28-.19.22-.6.02-.72.23-.06.09-.36,1.78-.5,2.12-.41.99-2.2,4.88-2.94,5.23l-.38-.71c.19,2.56-2.43,2.85-2.54,4.9-1.63-.97-3.08,3.86-3.43,3.94l-1.33-.68-.71.73.46-.73c-.35-.26-1.07.87-1.43,1.1-.51.35-3.01,1.37-2.9.47h-.46s-.6.74-.6.74l-.37-.47c-.82,1.27-1.17,3.88-2.16,4.9-.33.34-.61.33-.9.51-.53.34-.12.65-1.4,0l.16.72c1.35.16,1.79-.35,2.74-1.15l1.41-1.61c.2,1.93-1,2.34-2.07,3.34-.54.49-.67,1.36-1.65,1.48-.72.1-2.11-1.6-2.97-1.87.56-.29,1.73.93,2.18.07-1.27-.15-2.03-1.24-3.41-.88l.73.46-3.61.82,3.34-2.02-.86-.7c-.43,1.61-2.14,1.75-3.36,2.71l-.94-.43.14.48c-.44.11-.69-.32-1.09-.35-.54-.04-1.31.43-1.92.41-1.99-.04-5.3-2.56-6.64-3.94-.28-.29-.8-.04-.63-.7l.72-.14c-.46-.99-1.96-1.06-1.75-2.11.03-.15.4-.16.41-.21.04-.18-.16-.46-.07-.67.39-.89.82-1.39,1.47-2.09l-1.21-2.15.43-.17-.2-.44.61.14.34-.64c-1.5-.14-2.26,1.05-3.72.56-.24.03-.09,1.21-.84,1-.27-1.43-2.36-2.26-3.43-3.21-2.62-2.3-7.08-6.7-8.32-9.86-.41-1.04-.52-2.15-.99-3.17Z"/>
      <path class="cls-2" d="M361.88,92.67l.62-3.07.5-.34c2.71,6.12,4.67,11.35,11.24,14.1,6.78,2.84,12.38,3.21,18.67-1.09,2.84-1.95,7.3-6.86,8.5-10.08.48-1.29.51-5.75,2.41-4.52.74.48.89,1.3,1.5,1.76-.55-2.32-2.26-5-4.89-5.15-.25-.01-1.43.4-1.5.48-.56.62.72.29.91.36.55.21,2.33,1.13,2.51,1.62v.33c-.86.37-1.13,1.9-1.66,2.79-2.12,3.56-6.28,8.44-10.23,9.86-2.18.78-4.82,1.12-7.1,1.62.05.53.09,3.56-.76,3.4-.45-.08-1.98-3.56-2.16-4.18-6.6-1.49-12.1-4.71-15.69-10.53-.26-.42-1.12-1.86-1.2-2.2-.21-.97,1.2-1.11,1.43-1.5.44-.72-.49-1.22-1.18-1.14-2.27.25-3.08,3.41-2.71,5.34l.47-.26.31,2.42Z"/>
      <g>
        <path class="cls-2" d="M387.35,69.12c-1.49.38-2.16,3.62-2.23,4.95-.13,2.34-.04,10.8,3.54,10.7,3.56-.1,3.52-7.51,3.25-9.89-.28-2.58-1.23-6.61-4.56-5.76Z"/>
        <path class="cls-2" d="M387.13,72.22c-1.04.34-.9-1.24-.63-1.44.77-.55,1.47,1.17.63,1.44Z"/>
      </g>
      <path class="cls-2" d="M375.21,71.6c-.76-2.02-2.47-2.69-4.11-1.07-2.26,2.19-2.91,10.37-.85,12.75,1.05,1.21,2.92.8,3.94-.25,2.05-2.03,2-8.83,1.02-11.43ZM372.65,83.22c-.87-.16.54-1.26.67-1.49.73-1.27,1.07-2.91,1.24-4.37l.26.72.47-.26c.22,1.32-.85,5.7-2.64,5.4Z"/>
    </g>
  </g>
</svg>