<?xml version="1.0" encoding="UTF-8"?>
<svg id="Layer_2" data-name="Layer 2" xmlns="http://www.w3.org/2000/svg" xmlns:xlink="http://www.w3.org/1999/xlink" viewBox="0 0 127.62 139.33">
  <defs>
    <style>
      .cls-1 {
        fill: none;
      }

      .cls-2 {
        fill: #0a0a0a;
      }

      .cls-3 {
        fill: #59fd53;
      }

      .cls-4 {
        clip-path: url(#clippath);
      }
    </style>
    <clipPath id="clippath">
      <path class="cls-1" d="M9.14,12.84c.75,2.6.88,5.22,1.31,7.87.27,1.68.63,3.35,1,5.01.43,1.9.58,3.77.85,5.69.16,1.17.33,2.26.31,3.44-.01.72-.09,1.49.21,2.18s.78,1.36,1.1,2.08c.67,1.52,1.04,3.15,1.78,4.65,1.63,3.29,3.84,6.59,4.53,10.16.46,2.36.97,4.71,1.41,7.08.8,4.28,1.49,8.57,2.3,12.84.57,3.04,1.21,6.07,1.97,9.06.27,1.05.5,2.1.79,3.15.31,1.14.78,2.39.96,3.54.24,1.46.37,2.82,1.01,4.21.53,1.15.75,2.18.99,3.39.33,1.7.92,3.33,1.14,5.07.19,1.54.38,3.05.62,4.58.35,2.21.48,4.71,1.34,6.8s.48,4.49.94,6.68c.34,1.62.81,3.31,1.23,4.96.22.88.27,1.8.64,2.64.45,1.04,1.24,1.89,1.82,2.85.66,1.1,1.43,2.23,2.33,3.19.22.23.25.34.49.5l1.74.14c2,.2,4,.33,6.01.38,4.29.17,8.53-.09,12.79.4,2.86.33,5.75.17,8.63.2.95,0,1.79-.24,2.73-.29,1.58-.09,3.16.09,4.74-.04.99-.08,2.03-.2,2.99-.43.37-.09.78-.31,1.15-.36,1.51-.22,3.24.01,4.78.01,3.42,0,6.89.16,10.31,0,1.5-.07,2.15-.8,2.66-1.97.94-2.18,2.66-3.9,4.25-5.7.7-.79,1.07-1.53,1.37-2.51.37-1.32.67-2.66.91-4,.43-1.76.89-3.5,1.4-5.24,1.21-5.52.75-11.26.75-16.86,0-4.44.02-8.87,0-13.31,0-1.91.28-3.78.33-5.69.05-2.01-.22-4.08.02-6.08.31-2.52,1.27-4.95,1.62-7.47.42-3.1.97-6.17,1.38-9.27.26-1.95.42-3.74.42-5.7,0-1.38-.08-2.79-.02-4.17.06-1.22.5-2.4.64-3.61.2-1.65.33-3.21.32-4.88,0-.96.16-1.62.4-2.55.31-1.16.25-2.35.61-3.51.64-2.05,1.54-4.23,1.51-6.38-.01-1.01.23-1.71.55-2.67.27-.81.61-1.41,1.04-2.15.36-.62.37-1.5.54-2.17.21-.84.41-1.51.39-2.38-.03-1.15.36-2.4.94-3.39.35-.6.26-.76.3-1.43.05-.81.55-1.43.65-2.18s-.03-.98-.54-1.45c-.97-.9-1.92-1.34-3.23-1.73-1.53-.46-3.16-.41-4.75-.5-2.44-.15-4.83-.22-7.27-.22-3.06,0-6.12.04-9.17,0-1.04-.01-1.92-.14-2.97-.28-1.47-.2-2.93-.22-4.41-.34-2.93-.24-5.87-.24-8.81-.41-4.05-.24-8.13-.66-12.19-.64-3.32.01-6.64,0-9.97,0-5.04,0-10.15-.26-15.17.21-3.14.29-6.29.32-9.44.55-2.53.19-5.05.53-7.57.63-1.24.04-2.96.31-4.03.91-.99.55-2.2.9-3.15,1.54-.9.6-1.9.77-2.89,1.23-.58.27-1.04.68-1.57,1-.47.29-1.41.43-2.84,3.12Z"/>
    </clipPath>
  </defs>
  <g id="Layer_1-2" data-name="Layer 1">
    <g>
      <path class="cls-2" d="M9.25,15.82c.75,2.6.88,5.22,1.31,7.87.27,1.68.63,3.35,1,5.01.43,1.9.58,3.77.85,5.69.16,1.17.33,2.26.31,3.44-.01.72-.09,1.49.21,2.18s.78,1.36,1.1,2.08c.67,1.52,1.04,3.15,1.78,4.65,1.63,3.29,3.84,6.59,4.53,10.16.46,2.36.97,4.71,1.41,7.08.8,4.28,1.49,8.57,2.3,12.84.57,3.04,1.21,6.07,1.97,9.06.27,1.05.5,2.1.79,3.15.31,1.14.78,2.39.96,3.54.24,1.46.37,2.82,1.01,4.21.53,1.15.75,2.18.99,3.39.33,1.7.92,3.33,1.14,5.07.19,1.54.38,3.05.62,4.58.35,2.21.48,4.71,1.34,6.8s.48,4.49.94,6.68c.34,1.62.81,3.31,1.23,4.96.22.88.27,1.8.64,2.64.45,1.04,1.24,1.89,1.82,2.85.66,1.1,1.43,2.23,2.33,3.19.22.23.25.34.49.5l1.74.14c2,.2,4,.33,6.01.38,4.29.17,8.53-.09,12.79.4,2.86.33,5.75.17,8.63.2.95,0,1.79-.24,2.73-.29,1.58-.09,3.16.09,4.74-.04.99-.08,2.03-.2,2.99-.43.37-.09.78-.31,1.15-.36,1.51-.22,3.24.01,4.78.01,3.42,0,6.89.16,10.31,0,1.5-.07,2.15-.8,2.66-1.97.94-2.18,2.66-3.9,4.25-5.7.7-.79,1.07-1.53,1.37-2.51.37-1.32.67-2.66.91-4,.43-1.76.89-3.5,1.4-5.24,1.21-5.52.75-11.26.75-16.86,0-4.44.02-8.87,0-13.31,0-1.91.28-3.78.33-5.69.05-2.01-.22-4.08.02-6.08.31-2.52,1.27-4.95,1.62-7.47.42-3.1.97-6.17,1.38-9.27.26-1.95.42-3.74.42-5.7,0-1.38-.08-2.79-.02-4.17.06-1.22.5-2.4.64-3.61.2-1.65.33-3.21.32-4.88,0-.96.16-1.62.4-2.55.31-1.16.25-2.35.61-3.51.64-2.05,1.54-4.23,1.51-6.38-.01-1.01.23-1.71.55-2.67.27-.81.61-1.41,1.04-2.15.36-.62.37-1.5.54-2.17.21-.84.41-1.51.39-2.38-.03-1.15.36-2.4.94-3.39.35-.6.26-.76.3-1.43.05-.81.55-1.43.65-2.18s-.03-.98-.54-1.45c-.97-.9-1.92-1.34-3.23-1.73-1.53-.46-3.16-.41-4.75-.5-2.44-.15-4.83-.22-7.27-.22-3.06,0-6.12.04-9.17,0-1.04-.01-1.92-.14-2.97-.28-1.47-.2-2.93-.22-4.41-.34-2.93-.24-5.87-.24-8.81-.41-4.05-.24-8.13-.66-12.19-.64-3.32.01-6.64,0-9.97,0-5.04,0-10.15-.26-15.17.21-3.14.29-6.29.32-9.44.55-2.53.19-5.05.53-7.57.63-1.24.04-2.96.31-4.03.91-.99.55-2.2.9-3.15,1.54-.9.6-1.9.77-2.89,1.23-.58.27-1.04.68-1.57,1-.47.29-1.41.43-2.84,3.12Z"/>
      <path class="cls-3" d="M9.14,12.84c.75,2.6.88,5.22,1.31,7.87.27,1.68.63,3.35,1,5.01.43,1.9.58,3.77.85,5.69.16,1.17.33,2.26.31,3.44-.01.72-.09,1.49.21,2.18s.78,1.36,1.1,2.08c.67,1.52,1.04,3.15,1.78,4.65,1.63,3.29,3.84,6.59,4.53,10.16.46,2.36.97,4.71,1.41,7.08.8,4.28,1.49,8.57,2.3,12.84.57,3.04,1.21,6.07,1.97,9.06.27,1.05.5,2.1.79,3.15.31,1.14.78,2.39.96,3.54.24,1.46.37,2.82,1.01,4.21.53,1.15.75,2.18.99,3.39.33,1.7.92,3.33,1.14,5.07.19,1.54.38,3.05.62,4.58.35,2.21.48,4.71,1.34,6.8s.48,4.49.94,6.68c.34,1.62.81,3.31,1.23,4.96.22.88.27,1.8.64,2.64.45,1.04,1.24,1.89,1.82,2.85.66,1.1,1.43,2.23,2.33,3.19.22.23.25.34.49.5l1.74.14c2,.2,4,.33,6.01.38,4.29.17,8.53-.09,12.79.4,2.86.33,5.75.17,8.63.2.95,0,1.79-.24,2.73-.29,1.58-.09,3.16.09,4.74-.04.99-.08,2.03-.2,2.99-.43.37-.09.78-.31,1.15-.36,1.51-.22,3.24.01,4.78.01,3.42,0,6.89.16,10.31,0,1.5-.07,2.15-.8,2.66-1.97.94-2.18,2.66-3.9,4.25-5.7.7-.79,1.07-1.53,1.37-2.51.37-1.32.67-2.66.91-4,.43-1.76.89-3.5,1.4-5.24,1.21-5.52.75-11.26.75-16.86,0-4.44.02-8.87,0-13.31,0-1.91.28-3.78.33-5.69.05-2.01-.22-4.08.02-6.08.31-2.52,1.27-4.95,1.62-7.47.42-3.1.97-6.17,1.38-9.27.26-1.95.42-3.74.42-5.7,0-1.38-.08-2.79-.02-4.17.06-1.22.5-2.4.64-3.61.2-1.65.33-3.21.32-4.88,0-.96.16-1.62.4-2.55.31-1.16.25-2.35.61-3.51.64-2.05,1.54-4.23,1.51-6.38-.01-1.01.23-1.71.55-2.67.27-.81.61-1.41,1.04-2.15.36-.62.37-1.5.54-2.17.21-.84.41-1.51.39-2.38-.03-1.15.36-2.4.94-3.39.35-.6.26-.76.3-1.43.05-.81.55-1.43.65-2.18s-.03-.98-.54-1.45c-.97-.9-1.92-1.34-3.23-1.73-1.53-.46-3.16-.41-4.75-.5-2.44-.15-4.83-.22-7.27-.22-3.06,0-6.12.04-9.17,0-1.04-.01-1.92-.14-2.97-.28-1.47-.2-2.93-.22-4.41-.34-2.93-.24-5.87-.24-8.81-.41-4.05-.24-8.13-.66-12.19-.64-3.32.01-6.64,0-9.97,0-5.04,0-10.15-.26-15.17.21-3.14.29-6.29.32-9.44.55-2.53.19-5.05.53-7.57.63-1.24.04-2.96.31-4.03.91-.99.55-2.2.9-3.15,1.54-.9.6-1.9.77-2.89,1.23-.58.27-1.04.68-1.57,1-.47.29-1.41.43-2.84,3.12Z"/>
      <path class="cls-2" d="M5.36,3.66c.8.07,1.6-.27,2.4-.29,1.75-.05,3.39-.3,5.13-.49,2.84-.32,5.94-.33,8.8-.35,5.32-.04,10.64.01,15.96.01,16.26,0,32.57.28,48.84.01,7.87-.13,15.74-.78,23.61-.86,1.92-.02,3.84.01,5.76.01,1.28,0,2.69.14,3.96-.06,1.5-.24,2.99-.48,4.53-.51.61-.01,1.67-.12,2.3,0,.76.14.64.58.63,1.2-.02.83.16,1.45.28,2.26s0,1.7-.13,2.53c-.09.57.03,1.42-.13,1.95-.17.57-.55.42-1.18.43-1.3.02-2.57.22-3.87.27-3.47.13-7.07.58-10.51.93-3.87.39-7.72.5-11.61.69-2.23.11-4.45.06-6.68.06-4.91,0-9.72.07-14.59-.52-4.27-.52-8.48-1.4-12.81-1.45-3.56-.04-7.17-.11-10.72.13-4.8.32-9.59,1.45-14.34,2.13-4.2.6-8.57.56-12.8.55-1.9,0-3.8,0-5.7,0-1.52,0-3.05-.04-4.57-.02-1.19.02-2.24.25-3.4.31-2.74.14-5.49-.21-8.23-.29-.86-.03-1.71-.3-2.57-.41-.99-.13-2.06-.02-2.71-.76-.1-.12-.06-.35-.13-.48-.25-.45-.47-.6-.66-1.13C0,8.88,0,8.36,0,7.72c0-.76-.43-2.72,5.36-4.06Z"/>
      <path class="cls-3" d="M5.36,2.58c.8.07,1.6-.27,2.4-.29,1.75-.05,3.39-.3,5.13-.49,2.84-.32,5.94-.33,8.8-.35,5.32-.04,10.64.01,15.96.01,16.26,0,32.57.28,48.84.01,7.87-.13,15.74-.78,23.61-.86,1.92-.02,3.84.01,5.76.01,1.28,0,2.69.14,3.96-.06,1.5-.24,2.99-.48,4.53-.51.61-.01,1.67-.12,2.3,0,.76.14.64.58.63,1.2-.02.83.16,1.45.28,2.26s0,1.7-.13,2.53c-.09.57.03,1.42-.13,1.95-.17.57-.55.42-1.18.43-1.3.02-2.57.22-3.87.27-3.47.13-7.07.58-10.51.93-3.87.39-7.72.5-11.61.69-2.23.11-4.45.06-6.68.06-4.91,0-9.72.07-14.59-.52-4.27-.52-8.48-1.4-12.81-1.45-3.56-.04-7.17-.11-10.72.13-4.8.32-9.59,1.45-14.34,2.13-4.2.6-8.57.56-12.8.55-1.9,0-3.8,0-5.7,0-1.52,0-3.05-.04-4.57-.02-1.19.02-2.24.25-3.4.31-2.74.14-5.49-.21-8.23-.29-.86-.03-1.71-.3-2.57-.41-.99-.13-2.06-.02-2.71-.76-.1-.12-.06-.35-.13-.48-.25-.45-.47-.6-.66-1.13C0,7.81,0,7.28,0,6.64c0-.76-.43-2.72,5.36-4.06Z"/>
      <g class="cls-4">
        <g id="Layer_1-2" data-name="Layer 1-2">
          <g>
            <path class="cls-2" d="M69.81,139.32l-.11-26.52c-.5-1.44-.29-3.14-1.08-4.46.5-.11.09-.93.49-1.16.22-.12.03.35.25.35,0,.36.17.27.45.25l-.11.48-.22.06c.3.16.37.27.32.66l.32-.12-.32.6c.18.1.36-.29.43-.24,0,0-.02.12.04.19.47.48.08.37.02,1-.03.39.13.95.05,1.39l-.22.08.22.24c-.08-.01-.17,0-.22.08-.32.68-.02,4.32-.02,5.4.02,6.22-.04,12.48-.1,18.74l.11,2.96h-.32Z"/>
            <path class="cls-2" d="M63.54,139.32v-23.27c-.13-2.45.12-4.81-.32-7.24-.03-.18-.23-.35.05-.3l.16.85.16-.72c.52.04.32.58.81.41l.23.48-.22-.06c-.08.69.27,1.64-.5,1.81l-.05,28.03h-.32Z"/>
            <path class="cls-2" d="M83.76,139.32h-.22c.02-.31-.11-.59-.12-.91-.02-.56-.04-4.03.02-4.23.03-.08.21-.02.21-.12l-.22-.48.22-.12-.23-.24c-.04-.47.18-1.29.18-1.69,0-.87-.08-1.93-.08-2.9,0-1.4-.24-4.17.12-5.33l-.19-.12-.02-5.53.34-.21v21.86h-.01Z"/>
            <path class="cls-2" d="M58.35,56.57l.19-.16.03-4.19c.24.13,1.45-.65,1.51-.8.02-.04.04-.3-.05-.3l-.38.36v-.48l-.54.36.32-.36c.1-.31-.22-.23-.22-.3-.05-.4.61-.83.81-1.15.19.02-.74,1.21-.22.97.05-.02.69-.83.93-1.01,1.25-.98,3.26-1.22,4.75-1.4v1.08c.27.05.49.24.65-.05l-.22-.12c.5-.43.12-1.69.97-1.46.42.66.09,1.33-.11,2.01l-.65-.36c-.1.39-.3.37,0,.72l-.43-.12c.02.28-.06.47-.32.48l.32.18c-.08.65-.44,1.24-1.08,1.03.23.6-.06,1.1-.11,1.63s.1,1.1-.11,1.63l-.32-.24c.02.24-.04.53,0,.76.01.08.35.11.22.45l-.22-.24-.11.48-.43-.36c-.04.47.21.47.28.85.09.45-.05,1,.05,1.45.16-.01.16-.53.17-.69.03-.34-.19-.69.21-1l-.05.36.43-.06v-.42c.59.01-.04,1.16.43,1.45l.22-.42-.22-.06c-.14-.53.21-.68.35-1,.25-.6.39-1.28.83-1.74l-.21-.46.11-.12c.37.23,1.1-1.17,1.35-1.14l.49,1.09c0-.27-.03-.57.08-.82s.34-.18.36-.39l-.65-.05c-.43-.34.63-2.86.67-3.43h.85s-.43.41-.43.41l.28.3.37-.18-.32-.12.22-.42.22.06c-.26.35.11.29.11.36.04.41-.81,1.16-.96,1.59l.19,1.12.05-.86.48-.12c-.08-.64.15-.39.39-.59.64-.56.53-.85.89-1.34.42-.57,1.31-.47,1.94-.82s1.04-1.03,1.65-1.35l-1.19,3.81h-.23s-.22-.66-.22-.66c-.59.05-.87.71-1.29,1.15-.59.62-1.24,1.2-1.84,1.81.41.05,1.08-.42,1.44-.69.28-.22.97-1,1.1-1.06.14-.07.18.01.15.17-.08.36-.81,1.63-.64,1.88,2.16-1.7,4.95-3.26,6.64-5.57.57-.8,1-1.8,1.52-2.65l.38.72c-.3-.57.28-.33.32-.56-.27-.4.11-.94.1-1.05-.01-.1-.15-.19-.18-.3-.09-.34.68-1.59.91-1.94,1.64-2.57,4.38-4.42,6.26-6.78l.16.36c.24-.39.12-.72.22-1.14.67-2.52,2.92-4.61,5.01-5.65.36-.18.62-.3,1-.1l-.05-.36c.36-.12.14.54.49.48.43-.08-.18-.7-.16-.72l1.84-.24v.83s-1.03.16-1.15.14c-.26-.02-.06-.28-.26-.25.11.53-.45.45-.78.64-2.03,1.2-3.21,3.78-4.67,5.65-.38.48-.9.68-1.3,1.09-1.9,1.96-3.96,5.39-5.05,8.01-.3.74-.58,1.96-.93,2.59-.13.24-.44.42-.45.48-.05.28.03.74,0,1.06-.15,1.51-.41,3-.43,4.53l-.64-.8c.01-.35.49-.7.42-.95,0-.04-.4-.17-.22-.66l-.32.36-.22-.48c-.32.27-.96.08-.87.72.19-.17.35-.3.54-.04,0,.5.04.88-.44.95v.77c.44.06-.02-.57.58-.34.32.12.5.81,1.14.59l.12.59c-.87-.31-1.68-.68-2.6-.36-.03-.35.06-.8-.02-1.12-.1-.37-.68-.41-.63-.93-.39.16.09.58-.22.91-.34.37-.81-.07-1.28.14s-1.93,3.52-2.17,4.22c-.06.17-.16.31-.12.53.13.16,1.07-1.11,1.19-1.27.41-.58,1.36-2.59,2-2.6l.81.18c-.59.39-1.1.82-1.24,1.63-.58,3.24.58,7.11-1.5,9.92-.54.72-2.41,2.42-3.23,2.4-.7,0-.09-.51-.5-.72-.03,1.08-1.17,1.14-1.95,1.21l-.11-.66.19-.08-.06-.31.21-.08c.01-.34-.45-.29-.65-.42l.11.6c-.4.11-.14-.48-.38-.6l-.27.24.32.24c.1.35-.26.21-.32.48h.43l-.22.18.22.42c-1.18,0-3.11.17-3.03-1.69h-.76c-.14.33.21.36.22.45.01.12-.1.27-.04.41.55,1.56,1.32,1.64,2.67,1.76.8.07,1.67.12,2.43-.16.26-.1.85-.71.87-.13,0,.1-.09.99-.11,1.03-.03.06-.41.21-.47.39l-.05-.48-.87.12.54.13-.11.72.38-.36,1.29.95c.48-1,.89-1.47,1.95-1.57,1.35-.12,2.25.92,3.56.99l.23.46c.01-.59.84-.63.49.12.32.12.29-.17.41-.23.24-.12.54-.17.77-.33.31-.22.42-.65.88-.65.1.14-.02.89.22.97-.05-.46.3-.47.5-.72.74-.94,1.32-2.13,1.88-3.21.38-.42.67-.22,1.04-.19.03,0,.02-.39.52-.22.32.11,0,.3,0,.41,0,.16.28.51.17.79-.64.13-1.87.31-2.16.97l-.22-.36-.11,1.21c.23.24,2.51-1.18,2.95-1.35,1.83-.72,4.09-.18,5.59,1.17.4.36,1.64,1.94,1.84,2.42.12.3-.31.02-.32.24l.75,3.26,2.27,1.39-.65-1.27.16-.3.59.48c.15-.19-.28-1.59-.31-1.87-.04-.3.13-.63,0-1.08-.41-1.24-1.89-3.45-2.51-4.82-.06-.13-.09-.29-.09-.45l-.22.12v-.36l.43-.06-.11-.66c-.21.12-.8-.12-.84.18.05.72.37,1.62.4,2.32,0,.21,0,.28-.15.41-.84-.75-1.76-1.55-2.87-1.69v-.97c.8.04,1.49-.14,2.3-.1.09,0,.25.23.19-.1-.17-.93-2.04-.87-2.64-.92-.34-.02-.61-.43-.88,0l-.16-.24.43-.36-.43.12c-.02-.59.31-.69.76-.48v-.7s-.43-.1-.43-.1l-.27.68-.16-.48c-.25-.06-.31.28-.51.34-.48.16-.72-.46-1.22-.34l.05-.48c-.61.29-.55,1.21-1.24,1.21l-.11-.36-.16.48c-.39-.36-.02-.29.04-.46.02-.06,0-.22.04-.35.02-.06.27.01.08-.52l.32.24.22-.97-.32.43-.32-.07-.11.85-.32-.36v1.69l-1.84.48c.25-1.18.35-2.26.97-3.29.12-.19.43-.17.32-.58-.39.27-.51-.37-.97-.24-.02-.17,0-.34.02-.51.13-.66.75-1.06.95-1.65-.36.01-1.14-.02-1.44-.24-.22-.16.04-.68-.51-.29l-.32-.31c.27-.08.57-.4.54-.72l.11.36.32-.3c.08-.22-.21-.18-.22-.24-.12-.47.29-.13.38-.54l.27.24-.32-.97c1.01-.19,1.61.87,2.33,1.45-.29.29-.05.91-.08.95-.02.04-.19.05-.25.14-.19.33-.08.71-.5.95l.32.18-.22.6.43.18-.21.71c.4.06.24.48.48.74l.11-.36.38.36c.31-.59-.03-1.08.11-1.69.27.06.08.93.11.97l.43-.12v.36h-.27l-.05.6c.21.02.13-.4.24-.47s.34.04.4-.02c.03-.02.06-.47.13-.63.04-.11.27-.05.21-.27l-.32-.18-.11.36c0-.36.01-.75.38-.81.23.3.67.39.59.81l.22-.24c-.04.34.29.27.4.4.13.16.15.43.32.58.28.24,1.04.43,1.38.71,1.17-.51,3.05-2.11,4.32-1.92.26.04.58.25.9.33.26.06.82-.05.95.14l.04.36c-.96.28-1.94.41-2.92.24-.29.33.88.85,1.08.91.56.18,1.25.18,1.84.3l-.11.97c-.34-.12-.38-.19-.32-.6l-.11.36c-.22.25-1.75-.93-2.05-1.03-.18-.06-.67-.21-.66.13.03.63,1.62,1.85,2.13,2.21.47.33.95.23.79.99l.22-.48v1.33l-.22.06c.32.11.22.33.22.66-.47-.19-.94-.35-1.41-.54-.49-.22-.83-.68-1.41-.54v.85c.52.11-.14-.65.27-.6.72.66,2.31,2.02,2.63,2.98.09.27.16,2.11.14,2.5-.02.53-.23,1.12-.21,1.68,0,.22.16,1.79.23,1.92.08.18.23.31.36.45.29-.22.3-.53.27-.91.69-.25.32.6.38.92.08.42,1.82,1.38,2.25,1.69,3.98,2.95,8.46,7.37,10.58,12.22.1.22.24.41.19.69-.24.04-.28,0-.42-.19-.42-.63-.8-1.7-1.21-2.39-2.74-4.69-6.98-8.54-11.28-11.32-.14-.1-.37-.06-.51-.16-.23-.17-.21-.59-.76-.54-.04.06.52,1.34.16,1.33-.15,0-1.99-1.88-2.54-1.81.37,1.27,1.04,2.1.16,3.38l-2-3.02c-.42.1-.06.8-.11.85-.35-.12-.53.3-.11.18.22.54-.02,1.18,0,1.68.03,1.11,2.03,4,2.62,5.18.3.6.89,1.49.74,2.14l.32-.12.43,1.03c0,.51-.58-.29-.69-.43-.17-.24-.28-.56-.5-.77l.22-.3c-.16-.14-.95.1-.98.19v15.55l-.31.21c-.24-.8-.01-1.62-.03-2.36-.08-4.4-.16-8.83-.02-13.23l-.61-.24-.11,10.91-.22.14.22.06c-.11.77.27,2.84-.32,3.32-.21.17-.03-.18-.16-.18l-.05.48c-.26-.22-.36-1.41.05-1.45l.16.24c.15-.6-.25-.8-.32-1.27l.3-.08c.15-.39.13-.98-.3-1.06l-.11.23-.11-.3c.17-.22.42-.23.49.06l.05-.48.22-.06c-.32-.1-.22-.33-.22-.66l-.22.24c.21-.5-.12-.54-.19-.81-.38-1.37-.05-6.11-.08-7.78-.01-1.21.85-3.56-1.06-3l-.12.14c-.29,1.76-.13,3.59-.19,5.39l-.3.14-.11-5.32c-.26-.06-.24.1-.28.33-.11.66.16,1.57-.15,2.03.23.12.25.11.22.42l-.41-.14c-.09-.17.09-.86-.24-.94,0,1.11-.28,2.21-.32,3.32-.06,1.39.28,3.44.06,4.7-.06.4-.39.81-.39.39v-6.52c0-.68-.52-.6-.54-.75-.01-.08.08-.24.06-.35-.02-.19-.14-.4-.11-.56.06-.36.45-.23.38-.59l-.43.12c.18-.94-.54-2.44-.96-.79l.15,2.72c-1.14.59-2.14,1.44-3.03,2.43-.17.19-.77,1.14-.88,1.2-.23.13-.13-.3-.27-.42-.1-.08-.51-.01-.32-.3.02-.04.32.1.22-.24l-.43-.18.22-.06c.06-.3-.08-.18-.23-.31l.23-.65c-.42-.07-.49-.23-.71.23l-.37-.17.43-.18c0-.22-.1-.39-.06-.6.11-.62,1.36-3.49,1.7-4.26,1.1-2.59,2.69-4.96,3.23-7.8.19-.02.11.27.1.41-.04.51-.19,1.85-.32,2.28-.03.12-.19.11-.22.16v.3c.55-.34-.06.48,0,.6h1.19v.72h-.65c-.01.53-.36.99-.11,1.51h.22l.38-1.27c.21.17.22.65.16.88-.01.06-.74.52-.11.57-.03-.47.54-.52.22-1.09l.65.12v-.36l-.43.12.05-.24-.27-.12,1.06-.27.24-.95.32.12c-.19-.59.41-1.1.7-1.57l.31.36.71-.54-.65.18.09-.34-.19-.08c.5-1.01,1.24-2.05,1.41-3.2-.79-.23-1.6-.35-2.36-.7-.16-.07-.29.07-.24-.27l3.35.85-.08-.36-.45-.31c.77-.87-.41-2.91-1.03-3.55-.1-.1-1.42-.94-1.64-1.06-1.04-.59-1.73-.41-2.82-.29-.28.04-.4.01-.65.06-.11.02-.16-.01-.24.13l.1.42c-1.06-.56-.71.25-.92.85-.12.33-1.08,1.67-1.35,1.99-.18.23-.4.45-.59.66-.23.11-.22-.46-.27-.6-.06-.05-.51.3-.65-.06-.17-.47.34-.17.32-.42-.51,0-.16-.68-.54-.85l-.65,2.78c-.19.19-.56-.66-.54-.85-.12-.02-.21,0-.27.12s-.16,1.44-.23,1.8c-.3,1.46-.91,3.02-1.77,4.18-.13.17-.75.91-.87.97-.39.23-.23-.57-.49-.42-.19.1-.02.43-.27.48-.21-.42.14-.45.19-.69.04-.18-.29-1.05-.41-1.2-.19-.24-.62-.06-.45-.64-.28-.34-.89.31-1.02.59-.23.47.32.23.08.71l.19.07-.32.36.7.79.38-.24c.22.97-.76,1.74-1.48,1.91-.14.04-.36-.04-.35-.16,0-.13.41-.1.32-.36-.29-.17-.43-.18-.59-.54-.16.19-.21.5-.34.71-.08.13-.27.17-.31.25-.09.17.35.6-.43.62-.48,0-.55-.3-.87-.36-.32-.07-.74.05-1.07,0s-2.27-.42-2.38-.6c-.05-.1-.05-.24-.05-.36l-.43.24,2.27-2.78c.23.05.18.56.11.72h.43c-.08.41.25.86.61.85.57-.01.02-.69.05-.72,0,0,.13.04.22-.08.34-.47-.38-.45-.56-.52-.09-.04-.09-.21-.1-.22-.05-.02-.63.34-.21-.46s.98-.94.98-2.17c0-.81-1.68-2.13-2.31-2.49-.16-.1-.44-.33-.62-.16.21.59,1.29.93,1.07,1.67-.05.19-1.15.72-1.36.77-.54.11-.9-.11-1.38-.11-.53,0-1.01.29-1.57.01l-.06.34c-.39-.01-.8.19-1.18.16-.19-.02-.14-.22-.24-.24-.77-.24-1.56-.36-2.35-.5.06.5-.87.95-.7.24l.37.11c.4-.31.09-.91-.37-.83l.11.48c-.7-.05-.68.1-.92.72l-.27-.36c.35-.14.58-.76.88-1.11.25-.3.92-.77.96-1.12.04-.3-.18-.18-.32-.12-.68.35-1.2,1.58-2.05,1.63-.22-.22,1.4-1.55,1.14-1.93-.63.43-1.7,1.2-2.11,1.87-.21.35-.26.85-.44,1.2-.4.79-1.62,1.65-.52,2.56.67.11,1.03-.46,1.35-1.03l.16.24-.22.24c.38-.23.62.13.87.42-.64.35-.94,1.24-.64,1.98l.52-.1.06.23.12-.25.58.13-.11-.72c.27.43.81-.04.97.05.53.29-.12,1.01,0,1.16s.31-.05.4-.22c.05-.1-.03-.36.18-.27.32.14-.12.69.22.85.43.21.18-.42.32-.6l1.62,1.45-.39,1.09-.32-.24c-.05.1,0,.45-.02.47-.12.13-1.1.35-1.33.37-1.64.17-3.5-.17-5.03-.85-.11-.47.52-.13.65-.24-.1-.53-.69-.54-.65-1.09l-.22,1.21c-.74-.13-1.4-.51-2-.97.15-.75.96.18.81-.85-.47.14-.35-.27-.65-.24-.04.37-.16.37-.47.34-.54-.07-.06-.45-.36-.58-.08.35-.31.36-.23,0l-.34-.18.13-.42.16.36.11-.42-.34-.12.38-7.07,1.03-.72c-.03,1.39-.14,2.79-.17,4.19-.01.52.26,1.62-.15,1.79l.32.3.22-2.69c.26-.21.4-.28.32-.69l-.32.24c.23-.47,0-1.2.11-1.62.03-.12.21-.07.22-.08.03-.05-.21-.23-.22-.42s.12-.4.11-.6c0-.39-.24-.54,0-.97.28-.53.74-.42,1.08-.6.23-.12.42-.82.61-.89.29-.12.04.41.27.36-.11-.58.15-.47.49-.72l.16.85c.3-.37.53-.07.89-.14.21-.04,1.31-.65,1.56-.81.37-.22,1.36-1.12,1.55-1.18.31-.11,1.29.36,1.41-.59.11-.82-.4-.6-.65-.85-.1-.1-.41-.65-.22-.79l-.54-.24c-.13,2.5-2.27,2.59-3.96,3.12-.17.06-.11.24-.31.27-.16.01-1.7-.23-1.82-.28-.3-.14-.22-.34-.3-.46-.1-.13-.13.51-.32.24-.26-.35.34-.4.38-.47.08-.13.04-.34.05-.5l.37.24.49-.66-.22-.25.12-4.4.54.6c0-.54-.48-.69-.54-1.27-.03-.3-.08-2.74,0-2.84l.22.12v-.66l-.16.18-.15-.21-.02-7.1c-.03-.35,1.24-.98,1.3-.92.09.36-.87.98-.88,1.04-.08.59.31.74.77.7l.09.13.08,2.34.27-.48.22.6c-.16-.51.08-.83.11-1.33l-.43.48c-.18-.43.24-1,.22-1.26,0-.05-.51-.35-.43-.72.59-.31.91-1.2,1.61-1.16.03.36-.38.47-.48.72-.02.05-.06.91-.06,1.03v3.68h0l.06.02ZM83.11,41.11l.22-.6c-.49.35-.66.39-.49,1.09l-.27.12-.11-.24.11.54-.11.13-.32-.06.22.3-.27.3-.05-.48-.65.66.23.54c.23-.08.34-.35.32-.6l.43.07c.06-.69.32-.52.48-.68.08-.08.76-1.05.71-1.09h-.44ZM68.41,50.65c-.66.01-.23.41-.54.85h.54l-.11.42.22.06.11-.72-.22.12v-.72h0ZM67.43,53.79c-.76-.1-1.18.89-.22.6.03.04-.1.5.16.36.36-.18-.21-.65.05-.97h0ZM62.78,55.97c.64-.08.02-1.14.32-1.69l-.39.93.06.76h0ZM67.65,57.42v-1.87l-.43-.54c.23.43-.04.63-.09.93-.04.28.21.51-.18.76l-.11-.24-.27.42.38-.06.16.36.32-.24.22.48h0ZM57.05,59.23c.23-.05.15-.21.17-.36.05-.51-.03-1.06-.06-1.57-.14.05-.17.66-.17.81,0,.35.13.75.06,1.12h0ZM60.64,58.85s.3-.99.09-1.3c-.36.34-.14,1.21-.22,1.69.68-.28.17-.31.13-.39h0ZM68.3,60.07h-.54c-.35,1.26.78,1.1.54,0ZM65.7,60.8h-.43v.36l-.54-.12.11.72h-.32l.11-.36-.43.3.21.11.02.79.11-.6c.34-.13.16.29.22.35.12.11.77-.07.92-.23l.19.23c.28-.14.55-.31.5-.71l-.32.36-.22-.48.11.48c-.18.1-.37-.3-.43-.24-.04.04.09.29-.11.24v-.97c.21.12.36.05.32-.24h0ZM68.08,62.13c-.34-.1-.23.37-.43.54l.32.18c-.55.07-.19.45-.24.76-.02.21-.25.34-.19.57l.61-.71.03-.8-.21-.12.12-.42h-.01ZM57.21,64.74c-.14-.27-.38-.71-.59-.92-.1.45.21.58.35.88.06.14.17.66.21.68.58.42.13-.48.04-.64h0ZM89.82,63.94l-.71.59-.15.37c.28-.14.42-.4.75-.24l.12-.72h0ZM57.7,64.3c-.45-.08-.06.5-.05.71.01.28-.1.58-.05.86.57-.43.1-1,.11-1.57ZM68.51,65.51c.51-.14-.15-.92-.22-.85l-.22.48-.11-.36c-.11.41.15.42.22.72l.27-.48.05.48h0ZM58.67,66.84l-.54-1.93c-.18.66-.19,1.69.54,1.93ZM71.95,65.98c.17-.62-.27-.71-.58-1.06l-.64.59-.27-.36c-.14.37.3.62.31.68.05.24-.15.82.01,1.14.54-.18.58-.88,1.17-.98h0ZM56.51,67.68c-.31-.04-.37.28-.32.54.06.46.51.11.43.54-.43.16-.61-.66-.76.12l1.08.12c.18-.8-.68-.66-.43-1.33h0ZM70.14,72.03l.11-1.38-.49-1.51c-.37-.06.06.56-.05.72-.19.28-.18-.31-.32-.24.12.33-.11.71.22.79l-.71,1.26c-.27.11-.95-.34-1.32-.43-1.29-.36-4.33-.53-5.46.23-.22.14-.54.51-.05.42,1.04-.19,3.26-.6,4.24-.39.61.13,1.27.66,1.96.66l.06.5c.16-.07.27-.22.47-.22s1.48.42,1.27.82h.87c-.23-.93-1.05-.41-1.06-1.51,0-.12.04-.75.19-.79l.11,1.09h0v-.02ZM74.89,69.37c-.39-.06-.14.24-.11.48l.48-.12.05.48.65-.42c-.39-.04-.74-.56-1.03-.06l-.05-.36h.01ZM77.17,71.31c.16,0,.59-.18.54-.42l-.43-.3c.23.57-.16.36-.3.51-.29.31.18.76.25,1.05.06.27-.24.56.15.48v-.85l.32.12.11-.48c-.35,0-.59.51-.65-.12h.01ZM55.88,72.01c-.03-.08.13-.3.09-.46-.39.17-.13.8-.22,1.14l-.22.19.27.12.28-.79c.05-.18-.19-.18-.21-.21h0ZM67.76,72.39c-1.27-.43-2.63-.56-3.95-.48-.54.02-1.43.12-1.95.24-.17.04-.38,0-.38.3,1.25.06,2.57-.16,3.84-.11.66.02,1.52.3,2.05.3.16,0,.34-.04.38-.24h0ZM73.45,74.38c-.21-.1-.92-.3-1.08-.27-.27.06-.59.93-1.04.82l.31.12c-.09.59.09.58.43.91l-.32.06c.19.51-.29.85-.32,1.33.52-.33.45.35.56.46s.49,0,.68.14c.23.17.36.51.54.72.65-.25-.12-.42-.16-.91,0-.06.17-.05.22-.13.21-.39-.03-.86,0-.88.01-.01.18.04.28-.04.24-.18.7-1.17.7-1.47,0-.56-.4-.51-.68-.68-.08-.05-.11-.17-.13-.18h.01ZM55.29,78.47c-.04-.06-.39-.29-.44-.28-.19.33-.49.39-.38.85l.22-.12-.22,1.33h.42s.06-.36.06-.36l.38.3-.22.54.48-.12c.26.1.04.6.39.48-.09-.22.12-.5.27-.48.29.04-.05.68.27.72-.02-.29.3-.34.37-.51.05-.17-.05-.41.03-.66.05-.14.25-.14.26-.23.01-.11-.09-.6-.11-.64-.22-.23-.17.42-.43.24l-.05-.36-.7.48-.05-.24-.05.16c-.27.3-.38-.04-.43-.33l.23-.12c-.14-.18-.12-.46-.25-.64h-.03ZM57.95,80.04c.09-.13.36-.18.38-.48l-.3-.88c-.5.25-.15.41-.15.54s-.1.71-.11.85c0,.04-.55.79-.12.54.15-.08.21-.41.31-.57h-.01ZM72.6,79.56c-.42-.16-.74.12-.87.56-.22-.14-.27-.14-.13.13.01.02.25,0,.15.36l-.71.11c-.17.53.34.68.71.62l.11-.48c-.02.46.16.53.54.48v-.47l-.43-.07-.11-.29.32-.36c.28-.11.28.33.32.36.19.14.64-.6.32-.97l-.22.24-.02-.21h0ZM69.21,81.01c-.13.17-.19.3.01.45.27-.24.56-1.27.43-1.57-.25-.59-.89.22-.16.12-.03.69-.23.25-.54.54l.29.12-.06.17.19.13c-.05,0-.14,0-.17.04h.01ZM89.71,80.37c-.68-.04-.38.69-.47.94s-.76.28-.4.99h.42l.13-.83.53-.13-.22.3.32.06c-.13.27-.42.41,0,.53-.29.53.09.37.28.68.34.51-.13.42.52.6.15.05,0,.29.18.24-.05-.74.27-.6.44-.8s.12-.68.42-.65l-.32-.12.21-.41c-.35-.64-.74-.58-1.33-.43l-.12-.23-.27.11c.08-.45-.42-.42-.32-.85h-.01ZM57.24,81.38c-.08-.02-.5,0-.52.14.1.97.47.69,1.01,1.05.18.12.12.34.29.34l.11-1.2c-.28-.21-.59-.1-.79-.13-.09-.01-.08-.19-.1-.21h0ZM59.97,82.66l-.27-.82c-.34.08-.53.34-.7.65l.54-.3v.54l.43-.06h0ZM85.82,86.89l.05-1.81c-.19.36-.03.6-.5.66-.05.3.25,1.55.65,1.27v.72c.24-.04.17-.91.11-.97l-.32.12h.01Z"/>
            <path class="cls-2" d="M36.5,35.19l-.23.76c.02.12.22.11.27.21.09.14-.29.29.48.27l.17.46.16-.48.12.22.21-.1c.16.12-.02,1.16,0,1.37,0,.02.25.31.27.31.32-.04.71-.51.91-.8-.34-.5.04-1.18-.64-1.38.29-.99.82-.8,1.3-.06.65.99,2.67,5.64,2.89,6.8.19,1.01.18,2.73-.22,3.67s-1.99,1.92-2.73,2.63c-.3.29-.52.64-.78.93-.28.31-.4.18-.42-.22-.04-.65.12-1.98.25-2.63.09-.42.27-.72.36-1.05.04-.16-.02-.24-.16-.18s-1.02,1.21-1.12,1.4c-.62,1.23-.49,4.42.08,5.68.82,1.85,3.08,2.74,3.61,4.06.16.42.31.95-.08,1.27-.35-.4-1.56-.23-1.74-.59-.11-.19.08-.42.04-.47-.06-.1-.12-.12-.25-.34-.17-.29-.47-.41-.27-.76-.35.29-.39-.41-.43-.48-.01-.01,0,.12-.31-.11-.23-.17-.3.04-.23-.63-.05-.07-.17.25-.32.18-.21-.08-.8-.51-1.1-.68-.51-.29-1.04-.63-1.61-.89-.4-.18-1.01-.06-1.08-.66l-.16.37-.78-.16c-.63-1.61-1.34-3.18-1.91-4.81-.91-2.61-1.51-3.81-.57-6.55.17-.5.53-1.45.95-1.65l-.22-.18.43-.18-.32-.18c.39-.74.79-1.55,1.25-2.22.18-.27,1.38-1.82,1.52-1.92.1-.07.25-.1.37-.08.23.04.14.31.35.3.56-.04.71-.46.8-.48.24-.07.63.05.9,0h0v.05ZM36.8,36.9l-1.28-.14-.11,1.21c-.15-.12-.41-.42-.54-.06-.18.53.72.19.85.43.35.64-.62-.08-.54.65.27.47.83.39.66,1.15h.32c-.47-.94.63-.52.65-1.28l-.21-.22.53-.63-.35-1.11h0ZM33.47,40.38c.08-.27.13-.51-.22-.48.15.3.03.36-.11.6l.32.12-.32.36h.37l.12-.24.27.3c.03.08-.36.05-.48.3-.05.1-.14,1.53.15,1.09v-.48l.11.36.11-.24.11.24.32-.19-.22-.53c.75-.17.06-1.37-.54-1.21h0ZM35.13,40.59c-.06-.05-.12-.31-.19-.33-.42.5-.08.83.22,1.21l.49-.54c-.13-.19-.35-.22-.51-.34h0ZM36.76,41.54c-.22-.24-.29-.51-.69-.43-.11.34.18.21.21.25.14.25-.13.23-.17.27-.19.27-.15.48.17.33v.48l-.32-.12v.3l.32.24-.32.42.63-.14.02-.34.32.12c-.03-.33-.25-.4-.23-.79.01-.25.24-.51.23-.54,0,0-.11.02-.17-.05h.01ZM33.36,43.52l-.11-.72-.22,1.39.22-.06-.11.48c.54-.18.62-.85.97-1.27l-.49-.29-.27.48h0ZM33.69,48.23l.3-.06c-.04-.56-.11-1.03.13-1.51-.65.31-.13,1.24-.76,1.75l.21.07-.1.29.22.06v-.6h0ZM32.71,47.99l-.43.79.49.27c.34-.13.1-.53.37-.75l-.42-.3h0ZM35.53,48.11c-.31-.06-.17.1-.25.27-.3.75-.43,2.05-.51,2.87.25.34.65-1.56.68-1.72.05-.23-.18-.5.17-.46v-.24l-.23-.07.12-.65h.01Z"/>
            <path class="cls-2" d="M95.75,53.16l-2.25,1.59c.38-.64.67-1.59.75-2.37.03-.36.16-1.86-.26-1.86-.06,0-.55,1.03-.66,1.2-.56.88-1.18,1.75-1.83,2.55.14-.76-.24-.59-.49-.8-.11-.08-.21-.4-.27-.4-.04,0-.36.42-.7.12.5-.41.77-.8,1.05-1.43.15-.34.13-.99.47-.99l-.23-.19c.22-1.09-.95-2.07-1.44-2.96-.57-1.04-.77-2.07-1.58-3.07-.13-.17-1.19-1.17-1.3-1.03,0,.83.16,1.63.11,2.48-.01.18.09.35-.16.3-.71-.83-1.38-2.09-1.22-3.29.24-1.8,2.41-5.42,3.59-6.74.65-.72,1.78-1.49,2.33-2.23.19-.27.89-1.85,1.03-1.86,1.05.76,2.43.76,3.55,1.22.13.05.17.12.18.28-.06,1.97.05,3.95,0,5.93,0,.25-.11.5-.11.72-.08,2.38-.19,4.77-.32,7.13-.1,1.91-.23,3.81-.25,5.71h0l.02-.02ZM95.77,34.46c-.21-.39.29-.69-.05-.97-.21.27-.67.37-.7.72l-.32-.24c.15.69.63.36,1.08.48ZM93.67,38.6c-.61.4-.37,1.22.09,1.64.65-.21.24-.81.36-1.35l-.44-.3h0ZM95.23,46.3l.43-.18-.16-.29c-.27.14-.45.06-.38.48-1.04-.74-.67.47,0,.24,0,.34-.44.52-.05.85l.16-.24.05.24c.32.07.23-.08.38-.3l-.32-.12.43-.06v-.36c-.21-.19-.63.17-.54-.24h0Z"/>
            <path class="cls-2" d="M48.4,44.85c-.29.14-.15-.36-.38-.24-.31.17-.03.58-.05.6-.52-.04-.9.3-.38.72.42.34.87-.41,1.14-.24-.05.16-.05.25,0,.42.5,1.69,1.31,3.21,2.08,4.76.12.07,1.17-.56,1.36-.69.22-.14,1.08-1.11,1.01-.51-.26.07-1.35,1.5-1.19,1.69l1.73-.6c.11.13-.84,2.32-.42,2.77.66.12.76-.35,1.18-.71-.09,2.57-.38,5.17-.11,7.73.18.02.1-.28.11-.42.02-.48-.03-.97,0-1.45.08-1.21.35-5.65.67-6.5.06-.16.19-.27.3-.39.04-.39-.21.07-.38-.18-.15-.22.19-1.14.49-1.21l.17,6.12c-.41,3.26.44,7.05.04,10.26-.09.71-.31.46-.49.79-.13.24-.04.72-.27.85.03-.7.12-1.4.15-2.11.03-.6-.15-.74.38-1.27l-.34-.07c0-.33-.06-.66-.09-.97-.01-.17.22-.66-.17-.41-.26,1.57-.03,3.36-.27,4.89-.09.59-.71-.1-.96-.37.02-.22.16-.35.18-.59.11-1.37-.1-3,.03-4.34.02-.23.12-.45.1-.68l.43.12c.1-.45-.48-.36-.52-.56l.19-3.19c-.32-.06-.17.1-.23.28-.1.31-.17.58-.12.91l-.19.02c-.02.22.21,0,.23.29s-.09.57-.08.83c.03,2.27-.02,4.57-.26,6.85l-1.23-1.34c-.17-.29-.28-.5-.17-.83-.39-.11-.23.14-.43.24.16-.65.42-1.22.32-1.93-.54.01-.64.74-1.08.97,0-.23.25-1.11.39-1.22.1-.07.3.01.35-.02.17-.14,0-.53.45-.08-.11-.75-.47-.28-.87-.12.01-.4-.17-.63-.54-.6-.08-.08.32-.59-.11-.48v.6l-.32-.12-.16.36c-.05-.16-1.51-2.22-1.57-1.63.02.18.03.76-.16.79-.43.04-2.03-1.64-2.65-1.69-.04-.18.04-.21.11-.3.35-.56,1.27-1.2,1.73-1.81.37-.48.78-.88.65-1.57l-.26-.05-1.54,1.43c-.21.05-.22-.1-.11-.24.75-1.03,2.48-2.73,3.48-3.48.83-.63,1.8-1.03,2.63-1.65.03-.13-1.07-1.27-1.38-1-.37,1.06-1.32,1.47-2.01,2.16-1.28,1.24-2.26,2.62-3.3,4.03-.25.34-.66,1.01-.93,1.28-.11.11-.24,0-.25.01-.17.24.06.88-.66.59.34,1.12-.39.58-.87.97-.1-.13.94-1.84,1.1-2.09.79-1.26,1.93-2.83,2.95-3.83,1.16-1.12,2.71-1.78,3.41-3.38-.36-.06-.59.22-.92,0-1.14-.72.04-2.44-1.35-2.31-.08-.8.21-1.52-.06-2.28-.17-.5-.5-.39-.58-.58-.26-.56-.48-1.73-.74-2.42-1.41-3.61-3.29-6.72-6.08-9.16l-.1-.54c.23-.06.29.08.43.18,1.46.95,4.73,3.85,5.72,5.33.5.72.41,1.21.68,2.02.28.86.81,1.67.95,2.62h-.01ZM55.21,59.59l-.16.66.11,1.63.13-.51-.08-1.79Z"/>
            <path class="cls-2" d="M46.69,64.52c.08.1.28.12.41.16l-.34.54-2.04.85c.36.68,1.96.88,1.84,1.69-.1.7-.64-.14-.98,0,.19.87.9.51,1.17.99.35.63-.4.76-.15,1.12.18.27,1.35.08,1.57.54-.62,1.08-1.8.41-.76,2.11l.12-.22c.63.13,1.23-.31,1.83-.02.17.27-1.03.98-1.08,1.33l2.05-.06c-1.01.71-1.46,1.64-1.89,2.84-.26-.21-.21-.92-.29-1.06-.11-.19-1.75-.58-1.93-1.05-.16-.42,1.07-.17,1.03-.54-.18-.29-1.84-1.09-2.16-1.1-.76-.04-1.46,1.65-1.62,1.7-.32.08-.37-1.08-.92-.79-.12.06-1.54,1.92-1.64,2.15-.16.35-.37.83-.03,1.17.37-.24,3.07-.99,3.19-.85v.36l-3.23.86c-.22.31.02,3.31.09,3.79.04.34.25.5.12.89l.31.13c-.15-.45.16-1.15.43-1.51.08-.1.25-.35.21-.01-.36,1.5-1.23,2.8-1.45,4.36-.12.83.02,1.65-.06,2.46l-.54-1.69c-.55.04-.26.95-.32,1.39l1.51,4.65c-.08.08-.58-.48-.63-.56-1.3-1.98-2.04-4.65-1.85-7.11.16-2.14,1.54-4.32,1.41-6.58-.05-.06-1.25.43-1.44.51-.43.19-2.26.98-2.5,1.2-.49.45,0,1.62-1.04,1.44l.11-.85c-.1-.11-.87.41-1.01.51-1.2.76-2.38,1.75-3.57,2.54l-3.75,3.24c-.04-.23.12-.29.22-.42,1.31-1.74,3.86-3.62,5.59-4.87.52-.37,2.15-1.24,2.44-1.58.14-.17.3-.85.53-1.06l.5.28-.14.54c1.33-.88,2.8-1.45,4.27-1.93v-1.69c-.29-.11-.16.19-.29.24-.39.13-.62.07-1.04.39-.08.06-.87.95-.71.41.08-.3.77-.98,1-1.43.54-1.08.93-2.39,1.56-3.45.47-.81,1.33-1.21,1.45-2.19-.23-.05-.28.02-.43.18-.9.92-1.76,2.5-2.65,3.56s-2.6,3.06-3.84,3.21c-.84.11-.96-1.06-.49-1.64.44-.54,2.21-1.47,2.91-2.07s2.5-2.55,3-3.3c.24-.37.43-.81.28-1.28-.45-.72-2.1,1.4-2.63,1.56-.64.18-.95-.54-1.28-.59-.42-.05-.38.68-.91.5-.22-1.28,1.27-2.81,2.26-3.19.53-.19,2.43-.27,2.61-.37.09-.06.13-.27.23-.35.31-.28.72-.47.85-.92l-1.41-.36c.78-.27,1.49-.14,2.22-.6.92-.58,1.69-1.75,2.49-2.54.68.48.96,1.15,1.1,2.02.06.35-.02,1.21.16,1.45h0v-.02ZM45.89,63.61c-.31-.14-.59.1-.57.46l1.25.48s-.63-.91-.67-.93h-.01Z"/>
            <path class="cls-2" d="M98.15,37.97c-.05.02-.15-.01-.22,0l.22.97.54-.12.02.58.19.02-.22.36c.3.05.56.29.78.48s0,.39.56,0l.16.24c.08-.23-.16-.42-.17-.54,0-.19.3-.62.24-1.03-.08-.54-.52-.87-.93-.47-.02-.47-.06-.86.32-1.15-.71-.39-.26-1.05.17-1.5l.58.23-.22-.42c.22-.18.45-.3.43-.66l-.26.11-.16-.28.48-.68.15.41.22.07c0-.42.12-.59.43-.79l-.22-.18c.39.04.16-.59.54-.48.24.58.92.79.87,1.57-.62-.05-.64-.6-1.24,0-.53.53-.94,1.27-.7,2.05-.56-.16-.52.21-.76.41-.05.05-.27-.19-.32.37-.02.3.16.08.32.25.44.48,1.41,2.95,1.41,3.6v3.32l-.15-.86-.48-.1c-.05.17-.14.34-.17.53-.03.22-.11,1.29.16,1.22h.42s-.66,2.49-.66,2.49l-1.88,2.03-.18-.59h-.3s.11-.37.11-.37l-.32.24c-.21-.31.08-.74.08-.79,0-.12-.39-.37-.29-.66-.28-.1-.38.27-.49.34-.03.02-.26-.07-.36.05-.02.02-.21.6-.21.65-.03.41.27.86.27,1.05,0,.42-.59.95.35.93v.36l-.22-.12-.32,1.03-.28-.06c-.24-.41.11-.72.12-.92,0-.1-.13-.23-.12-.35.01-.34.11-.68.05-1.04l-.32.18c.18-.56,0-1.55.11-2.03.03-.12.24-.11.3-.29.36-.93-.03-1.82-.08-2.65-.05-1.22.18-2.92.21-4.22.02-.86-.19-3.53-.08-4.06.04-.21.23-.29.26-.45.1-.4-.06-.93.13-1.37l.16.6c.19-.6.47,0,.65-.6l.59.66-.32.42c.19.08.28-.22.38-.22.16,0,.63.68.49.94l-.32.06.32.25-.1.39.19.02c0,.62-.43-.06-.44-.36h-.53c-.12.3-.05.53,0,.85.59-.22.62.08.65.72l-.11-.36c-.32-.14-.09.4-.43.18-.16-.14-.08-.37-.11-.54h0l.05.02ZM97.5,40.62c.67-.42.19-1.46.32-2.17-.35.13-.14.48-.16.74-.01.11-.15.24-.15.41-.01.31.18.63,0,1.03h-.01ZM100.1,40.62c-.05.45-.47.92-.05,1.33.77-.7.55-1.8.49-2.78-.18-.02-.11.28-.11.42,0,.47.09.92,0,1.39l-.32-.36Z"/>
            <path class="cls-2" d="M32.28,54.64c-.18.11-.19.31-.24.34-.39.25-1.61-.79-2.03-.89-.22-.06-1.07-.05-1.29.02-.18.06-.35.29-.51.29-.06,0-.04-.23-.13-.24-1.07-.29-3.26-.02-4.39-.02s-2.26-.29-3.43.02c.13-.28.76-.34,1.03-.36,1.41-.13,2.95.1,4.33.1.48,0,1.15-.01,1.51-.34l-.05.36,1.12-.12.11.23,1.36-.11c.17-.14-.64-.66-.71-.77-1.62-1.94-1.17-5.15-1.67-7.56h.42c-.05-.57.59-.23.44-.97l.43.12v-.85l-.43-.12.06.48-.39.12.11.48-.65.06.43-1.45-.21-.11c.21-1.58.83-3.06,1.34-4.54.28-.83.39-1.79.97-2.5l.39.14c-.31.45-.59,1.04-.75,1.58-.13.46-.4,1.59.22,1.44.19-.7.58-2.44,1.22-2.73.13-.06.28-.1.29.08,0,.11-.71,1.59-.83,1.97-1.46,4.45-2.25,7.48.21,11.67.59,1.01,1.84,2.39,2.14,3.53.11.42-.56-.1-.65.24.13.12.19.24.22.42.08-.05.63-.23.67-.23.43.1.43.82.89.46l.5.48c-.68-.06-.71.48-1.14.97l-1.24-.6c.24-.35.39-.63.32-1.09h-.01ZM28.83,42.06v-.29c-.42.02.1.69-.39.88l-.38-.22.05.5.81.23c-.02-.23-.01-.4.22-.36v-.12c-.13.07-.32-.22-.32-.3,0-.23.47.08.32-.3h-.31Z"/>
            <path class="cls-2" d="M55.32,95.1c2.12,1.06,2.62,4.8,4.49,6.4,1.02.87,2.27,1.16,3.47,1.57.09.52-.22,1.88-.82,1.15-.12-.14-.09-.37-.12-.42-.02-.02-.36.07-.57,0-.7-.24-2-.87-2.55-1.39-.18-.17-.04-.54-.28-.64-.27-.1-.16.12-.58-.36-.38-.45-1.42-2.39-1.62-2.5-.17-.08-.36-.07-.54-.06l.11,1.75c-.01.31-.59-.52-.66-.6-.08-.1,0-.27-.01-.29-.15-.13-.72-.13-.41-.62-.25.05-.63-.39-.82-.6-.15-.17-1.14-1.63-1.12-1.74l.21-.33-.43-.06.22-.79-.38.36c-.34-.04-.14-1.65-.16-1.93.71,0,.28.34.27.54-.02.37.12.75-.16,1.15.59,0,.28-.85.49-1.22l.49-.17-.54-.06.11-1.09.22.6.27-.24c.28.51,1.29,1.1,1.46,1.57-.15-.07-.56-.14-.76-.24l.11.36h-.32v-.6l-.32.18c.15.46.23.66.65.85l-.22.06c-.05.41.26.74.38.24l.8.12c.03-.28-.22-.34-.3-.57-.05-.13,0-.33-.02-.4h.02ZM55.54,96.19l-.65.06c-.36.77.31.65.43.74.06.05.06.22.19.29.08.04.65.16.67.12.11-.69-.94-.53-.65-1.21h0Z"/>
            <path class="cls-2" d="M48.55,86.96c1.49,1.65,2.76,3.23,3.94,5.21l.02,2.81c-.54-.59-1.29-2.59-2.05-1.27-.02.06.17.04.25.21s.68,1.72.62,1.79h-.49c-.48-.83-.96-1.65-1.47-2.46-.13-.21-.56-.69-.61-.8-.05-.13.32-.41.12-.74-.12-.18-.81,0-.93-.47.64.08.24-.6-.11-.12-.11-.4-.51-.85-.87-.97v-.24l.65.12-.11-.48c-.27.23-.26.64-.43,0l-.32.24v-.53l.31-.08.06-.35c.27.11.16.45.17.47.08.07.52.18.77.37.27.22.61.72.9.97.82.69,1.78,1.23,2.76,1.57-.42-.79-1.23-1.09-1.83-1.64-1.04-.97-1.58-3.02-2.28-4.34,0-.17.12-.17.27-.06.26.19.43.58.64.8h.02Z"/>
            <path class="cls-2" d="M64.38,84.86c.36-.02.74.12,1,.39.87.89.52,3.7.75,4.95-.14.79-2.35.71-2.81.13-.24-.3-.44-1.86-.56-2.39-.14-.62-.52-1.01-.25-1.67.35-.82,1.06-1.37,1.88-1.43h0Z"/>
            <path class="cls-2" d="M53.26,72.88c-.36,1.86-.32,3.78-.43,5.68l-.11-.42v-1.15c-.19-.04-.06.19-.14.33-.03.06-.17.02-.17.04-.04.07.17.18.17.3,0,.06-.13.16-.13.24,0,.17.34.24-.15.6l.54.18c.04.35-.31.28-.43.66-.1.33.26-.02.31.25v.89c-.87-.07-1.09.04-1.6-.81-.47-.79-.67-1.34-1.1-2.03s-.28-1.57.12-2.3c.09-.14.28-.19.29-.21.03-.06-.32-.82.17-1.32.42-.42.65-.1.97-.18.22-.05.98-.4,1.22-.51.17-.08.11-.4.45-.28h.01ZM52.72,74.81c-.52-.02-.38.18-.54.31-.21.17-.48.05-.43.41l.32-.12.05.36c.21-.22.45-.22.38-.6l.22.24v-.6h0Z"/>
            <path class="cls-2" d="M51.5,101.23s-.12-.02-.18.21c-.02.07-.02.45.12.25l.11-.24v3.32c-.12.02-.21,0-.27-.12-.22-.39.05-3.85-.04-4.66-.03-.23-.22-.14-.23-.24,0-.08.11-.21.09-.27-.02-.07-.68-.97-.84-1.28-.8-1.56-1.46-3.36-2.25-4.86-.09-.17-.13-.33-.35-.28.24,1.23.01,2.55,0,3.81-.03,1.94-.15,4.53,0,6.4.01.19.09.36.11.54l.27-.12.05.54-.32-.3c-.05.22-.1.42-.12.66-.31,5.05.11,10.51-.1,15.59l-.16,4.05c-.19-.16-.25-.27-.28-.53-.37-3.07.4-7.11.16-10.27l-.05-9.53.44-.31h-.38c-.09-.17.05-1.2.06-1.51,0-.36-.12-.81-.09-1.11.03-.28.42-.46-.02-.57.28-.98.05-2.05.05-3.03,0-1.1.25-4.11-.18-4.93-.06-.13-.51-.65-.59-.68-.41-.08-.23.91-.74.85-.09-.42-.31-.08-.44-.24-.15-.18-.1-.5-.17-.64-.05-.12-.17-.12-.24-.25-.26-.52-.5-1.05-.7-1.59.04-.6,1.21,0,1.47.13,2.25,1.2,4.14,5.56,5.09,8.08.27.72,1.02,2.45.72,3.16h0v-.04Z"/>
            <path class="cls-2" d="M81.17,90.63c-.06.29.12.6.09.91,0,.06-.15.06-.15.08-.08.4-.17.64.17.88l-.22.06.22.48c-.29.07-.52.24-.65.54l.54.36-.54,1.15c-.18-.01-.09-.33-.21-.54-.23-.41-.38.08-.3.46.06.34.25.29.11.77-.05.21-1.46,2.03-1.6,2.09-.22.1-.15-.14-.18-.27-.05-.22-.15-.71.18-.7l.38.19c.24-.23.14-.48.11-.79-.29-.07-.21.31-.49.36-.26.05-.14-.18-.16-.36-.42.22-.15.81-.54,1.21l.32.06-.27.54-.05-.48h-.32l-.09.66.19.13h.42c-.84.35-1,1.41-1.51,2.16l-1.19,1.75v-1.51l-.32-.24c1.56-2.11,2.89-4.31,4.06-6.7.29-.6,1.01-2.57,1.3-2.91.13-.14.34.21.27-.35h.44Z"/>
            <path class="cls-2" d="M95.73,54.48s-.13.01-.17.12.02.35,0,.39c-.02.02-.45,0-.65.25l.22.36c.05.06.42-.66.43-.18l-1.62,2.17c-.68.41-2.02,2.46-2.66,2.6-.83.18-1.5-1.15-1.55-1.91-.08-1.17,3.05-1.97,3.72-2.68l.27.24c-.05-.57.45-.53.76-.8.42-.37.8-.91,1.25-1.26.08.13.04.56,0,.69h0Z"/>
            <path class="cls-2" d="M69.24,90.12c-.31.36-1.28.63-1.7.47-.69-.25-.32-1.79-.43-2.42-.05-.31-.37-.43-.42-.86-.03-.25-.08-2.04,0-2.1.61-.47,1.01,1.74.96,2.16.15-.01.19-.54.21-.68.05-.62-.09-1.26.14-1.84.45-.17,1.71.23,1.88.71.1.27-.25,1.01-.27,1.39-.04.53.12.99.1,1.56-.02.43-.18,1.29-.45,1.61h-.01Z"/>
            <path class="cls-2" d="M42.12,86.41c-.31-.06-.23-1.69-.32-2.05l.43.12c.13-.45-.34-.43-.41-.68-.28-.91.65-1.68.88-2.37.11-.34-.04-.91.3-.81,0,1.75.81,3.53,1.73,4.89-.21.12-.43.07-.43.42h-.11c.03-.28-.08-.28-.31-.23-.34.7-.21,1.51-.34,2.27l.37.14.17-.25.05.24c.3-.57.72.04.87,0,.05-.01.31-.62.69-.51l.06-.34,1.14,1.27c-.36.47-.26-.11-.48-.06l-.45.48c-.98-.51-2.11-.99-3.13-.25-.44-.75-.62-1.41-.7-2.3.24.05.93-.94.87-1.27l-.32-.07.3-.29-.09-.43c-.15-.17-.75.95-.79,1.09-.09.24,0,.7.03.97h-.01Z"/>
            <path class="cls-2" d="M81.36,55.99l.13.7c-.3-.04-.5,0-.56.35l-.3.07.65.3-.1-.4.31-.19c.43.76.04.88-.49,1.32-.28-.19-.32-.39-.16-.71-.55.24-.44-.1-.87-.12.34.8-.26.99-.54,1.57-.18.04-.11-.17-.1-.3.02-.52.11-1.04.06-1.57l-.29-.12c-.59,1.18-.64,2.75-1.41,3.81.25-1.39-.42-3.64-.22-4.89.03-.21.12-.34.32-.3.05.31.13.71.43.85l-.12-.52c.37-.19.25-.3.34-.68l-.32.24v-.48l.38.12.05-.24-.65-.24c-.06.22-.03.57-.32.48l-.22-.54c.28-.39.79-.08,1.14.06.96.37,1.85,1.16,2.84,1.47h0v-.02Z"/>
            <path class="cls-2" d="M91.22,84.49l-.09.79.22.12c-.31.52-.11.85-.11,1.32.01,9.52-.01,19.06.11,28.51,0,.16,0,.86-.28.79l-.05-9c-.02-1.98.01-3.95,0-5.93-.03-3.88-.04-7.83-.11-11.72,0-.62-.32-4.83-.11-5.01l.41.13h.01Z"/>
            <path class="cls-2" d="M85.38,94.73h-.64c-.12,6.06.15,12.15,0,18.2,0,.23-.1.42-.11.62-.01.3.31,1.14-.23,1.14v-19.27l.32-2.42c-.05-.47-.89-.43-.76-.72l1.14-.91c.35-.12,0,.59.27.6v-.83l.43-.21.22.13-.66,3.66h.01Z"/>
            <path class="cls-2" d="M70.81,103.78c-.09-.06-.08-.42-.35-.34-.05.25.17.82-.22.72-.05-.42-.24-.76-.66-.56l-.31.68.76-.06-.54.18v.85h-.43l.11-.72c-.3-.11-.22.29-.38.36-.31.13-.26-.27-.32-.24l-.43.36c-.05.01-.09-.33-.31-.42-.3-.14-1.48-.02-1.14.54.18.06.04-.23.17-.25.11-.01.26.11.41.1.11-.01.64-.28.71-.21.22.24-.38.19-.22.48h.76c-.19.31-.63.13-.54.72l1.24-.48.05.36.11-.36c.34-.06.48.47.14.58-.28.1-.65-.1-.8-.04-.39.17-1.42,1.99-1.84,1.63-.08-.12.22-.42.25-.45.21-.12.48.12.4-.28l-.32-.1-.05-.16-.05.24h-.16c-.02-.54-1.35-.43-1.35-.66.42-.12.57-.94.7-1.03.36-.23-.16.72.22.36l.04-.41c-.54-.22-.4-.52-.66-1.01-.81.17-.85-.17-.95-.98,1.2.24,2.41.1,3.62.11.22,0,.49.16.63.13.06,0,.05-.21.15-.24.94-.29,1.89-.45,2.73-1.1-.09.28.01,1.09-.1,1.27-.17.3-.79.57-1.07.39h0v.02Z"/>
            <path class="cls-2" d="M72.19,103.08l-.05-1.09c.4-.46.92-.71,1.29-1.21.48-.65.75-1.63,1.12-2.37,1-1.9,2.13-3.62,3.48-5.23,0,.22.02.42-.02.64-.25,1.26-3.43,6.46-4.3,7.63-.44.59-1.01,1.11-1.51,1.63h0Z"/>
            <path class="cls-2" d="M83.41,95.5c.28.39.12,4.98.13,5.83,0,.29.11.54.12.83.06,5.04.03,10.05.11,15.09l-.32.21c-.03-1.59.03-3.19,0-4.77-.09-4.71.05-9.54-.12-14.24-.02-.63-.02-1.93-.11-2.42-.04-.27-.34-.59-.54-.72.12-.16.67.13.72.22h0v-.02Z"/>
            <path class="cls-2" d="M96.29,66.95h-.19s.43.37.43.37c-.02-.48-.19-.85,0-1.33.24.08.32.35.32.6l.22-.24c0,.08.01.19.08.24.71.56,2.07,1.9,2.51,2.73.47.89.02,1.68-.84,1.06-.78-.54-1.42-2.09-2.09-2.67-.03-.02-.62-.17-.71-.3l-.02-1.79.39.24-.09,1.08h0Z"/>
            <path class="cls-2" d="M64.44,101c-.19-.23-.24-2.15-.36-2.63l2.49-.31c.08.06.22,1.52.18,1.68-.01.07-.63,1.23-.67,1.28-.31.37-1.35.33-1.64-.02h0Z"/>
            <path class="cls-2" d="M69.22,97.04c.27.02.32,2.19.22,2.54-.11.36-1.31,1.3-1.61,1.2-.22-.07-.47-1.72-.48-2.02-.02-1.27,1.08-1.3,1.86-1.72h.01Z"/>
            <path class="cls-2" d="M26.38,86.7c-2.38,3.15-4.61,5.47-6.37,9.25-.28.62-.47,1.4-.72,1.97-.16.36-.55.28-.43-.11.62-1.96,2.29-4.76,3.44-6.44.43-.63,3.89-5.18,4.21-5.21.45-.02-.1.48-.12.52h0Z"/>
            <path class="cls-2" d="M82.9,112.74c-.3.06-.18-.07-.23-.28-.38-1.56-.38-4.81-.42-6.54-.03-1.61-.09-3.61,0-5.19.02-.46.09-1.24.28-1.63l.38,13.65h-.01Z"/>
            <path class="cls-2" d="M67.76,107.91l.05.36.05-.36h.32l-.27,1.21-.16-.24c.02.25.01.28-.22.24l.11-.29-.22-.31-.32.24-.11-.24c.01.28-.05.47-.32.48v.24l.32-.12c.03,1.23-.04,2.46,0,3.68.04,1.49.28,3.09.23,4.59,0,.22.02.4-.17.54-.22-.14-.13-.34-.16-.54-.39-2.71-.03-5.93-.34-8.7l.39-.66.27.36c-.08-.43.22-.47.54-.48h0Z"/>
            <polygon class="cls-2" points="85.93 114.67 85.93 127.24 85.59 126.93 85.6 114.75 85.93 114.67"/>
            <path class="cls-2" d="M80.19,115.64l-.32-.07c-.11-1.38-.41-2.72-.54-4.1-.3-3.14-.29-6.44-.44-9.53-.02-.57-.02-1.22.12-1.76l.22,1.15c-.03,4.71.34,9.37.81,14.01.01.12.22.25.17.3h-.01Z"/>
            <path class="cls-2" d="M103.02,33.5l-.59-.36-.05.23h-.21c-.04-.54-.39-.66-.61-.94-.74-.97-1.42-1.72-2.33-2.49,0-.27.15-.28.32-.18l-.11-.85c.15-.21,2.25,2.44,2.43,2.66l1.14,1.93h0Z"/>
            <path class="cls-2" d="M39.53,62.25l.11.36.43-.12.06.48c-.22.51-2.1.25-2.55.06-.42-.18-.7-.62-1.08-.85.1-.24,1.17-.16,1.46-.18.41-.05,1.62-.36,1.89-.18.36.25.17.72-.32.42h0Z"/>
            <path class="cls-2" d="M36.61,33.38c-1.65-.3-3.08-.05-4.49.97-.08-.39.4-.77.59-1.03.02-.08-.11-.08-.16-.06-.14.07-1.06,1.06-1.25,1.27-.42.47-.77,1.04-1.18,1.51.69-1.72,2.14-3.48,3.95-3.39.7.04,2.02.22,2.54.74h0Z"/>
            <path class="cls-2" d="M40.83,60.56l-.32-.48-.22.24c.04-.4-.44-.23-.63-.39-.1-.1-.12-.47-.3-.58l-.05.36-.38-.24c-.17-.21.43-.02,0-.36-.12.16-.23.24-.42.24-.79-.04-3.41-1.3-4.08-1.86-.12-.1-.27,0-.21-.31l5.54,2.09c.5.25.87.72,1.06,1.29h.01Z"/>
            <path class="cls-2" d="M64.51,107.06c.21-.08.3.18.31.31.02.31-.23.05-.21.29l.32.12.11-.72c.9.64-.42,1.11-.49,1.93-.36-.29.18-.58.05-.97l-.32.24c0-.95-.51.07-.58.08-.14.02-.57-.16-.66-.33-.28-.34.1-.79.05-1.12,0-.05-.48-.42-.32-.81.83-.01,1.23.71,1.57,1.45l.16-.48h0Z"/>
            <path class="cls-2" d="M27.63,54.88c.02.31,0,.19-.16.23-.74.16-1.08-.07-1.73-.1-1.72-.04-4.35-.3-5.94-.14-.31.04-.51.36-.82.35.59-.98,1.46-.52,2.33-.52,1.88,0,3.69.21,5.54.23.27,0,.49-.25.79-.08h0v.04Z"/>
            <path class="cls-2" d="M86.9,70.46l-.22.48c1.28-.16,1.71,1.45,1.03,2.42.02-1.53.03-2.56-1.65-1.97-.53.19-.83.59-1.24.79-.13.06-.25.12-.29-.08.29-.85,1.15-.83,1.75-1.17.25-.14.34-.46.63-.45h0Z"/>
            <path class="cls-2" d="M84.41,128.32l.27.12c-.09.21.05.45.05.54v5.32l-.16.18-.16-.18v-5.98Z"/>
            <path class="cls-2" d="M96.85,63.46l-.16-.36c-.11.19-.35.27-.45.4-.11.12.13.43-.36.33.23-.23-.05-1.15.26-1.08.44.11,2.38,1.46,2.18,1.92s-.95,0-1.24-.19c-.4-.27-1.14-1-.23-1.01h0Z"/>
            <path class="cls-2" d="M73.6,106.76c.02-.1.38-.4.32-.66l.32.12c.06.06-.32.37-.32.42v4.83l-.16.18-.16-.18v-4.71Z"/>
            <path class="cls-2" d="M73.16,103.8c.01.17.01.33-.05.48-.13.3-1.98,1.33-2.37,1.47-.35.12-.23-.18-.39-.45l1.57-1.03.27.36-.11-.48c.22-.01.44.11.43.36l.5-.35c.09-.11-.26-.46.15-.37h0Z"/>
            <path class="cls-2" d="M35.63,71.67c.02.18-.28.22-.39.23-.44.05-1.21.13-1.5-.23l-.11.24-.16-.6-.26.23c-.47-.3-1.18-.57-1.15-1.32.61-.16.69.68.94.82.17.1,1.16.41,1.42.47.37.1.83.05,1.21.16h0Z"/>
            <path class="cls-2" d="M98.26,73c-.27.28-2.24-1.55-1.84-2.3l-.32.12v-.97c.17.06.15.37.27.59.21.36.59.88.85,1.22.12.16,1.17,1.18,1.03,1.33h.01Z"/>
            <path class="cls-2" d="M35.42,56.45s.1.02.14,0c.12-.08,0-.28.17-.24.13.31.28.33.11.72h.32v-.72c.26.24.45.27.76.12v.36l.22-.12v.6l.32-.24v.3c-.16.45-1.64-.19-1.96-.39-.04-.12-.1-.27-.1-.4-.17.1-.29.3-.54.24.1-.39.03-.71.38-.97l.26.19c.04.17-.11.39-.11.53h.02Z"/>
            <path class="cls-2" d="M66.46,49.56l.05.23.28-.05c-.23.97-.45,1.97-.92,2.84-.09.16.02.3-.27.24.25-.81.32-1.76.55-2.56.03-.12.39-.1.1-.63l.22-.06h-.01Z"/>
            <path class="cls-2" d="M97.39,32.29c-.42-.16-.78-.48-1.19-.66-.74-.33-1.54-.41-2.27-.72.47-.7.67-.02,1.03.06.32.07.71-.11.93-.06.21.05,1.23,1.16,1.5,1.39Z"/>
            <path class="cls-2" d="M90.04,53.79v1.09l-.54-.36c-.04.42.27.12.29.59.03.71-.75.95-.63-.06.03-.29.27-.06.23-.35-.22-.12-.26-.1-.22-.42l.32.12c-.22-.46.14-.65.54-.6h0Z"/>
            <path class="cls-2" d="M76.95,81.33c-.02.33-.04.6-.34.77l-2.04,1.15c-.13-.13,2.25-2.08,2.38-1.93h0Z"/>
            <path class="cls-2" d="M75.02,101.12l.19-.1c.13.56-.72.76-.74,1.17-.01.28.15.24.3.17-.05.37-.41.29-.11.85l-.32.12-.11-.68-.43-.11,1.14-1.63.08.22h0Z"/>
            <rect class="cls-2" x="50.99" y="110.2" width=".32" height="3.02"/>
            <path class="cls-2" d="M75.33,94.5l-1.84,2.9c.1-.56.98-2.54,1.34-2.79.17-.12.3-.14.5-.11h0Z"/>
            <path class="cls-2" d="M64.5,103.21l.23,1.2-.16-.24-.16.24v-.6c-.12,0-.24-.02-.36.02-.19.07-.29.46-.45.22l-.16-.97,1.07.13h0Z"/>
            <path class="cls-2" d="M76.65,83.04c.36-.12.75-.43,1.1-.52.1-.02.24-.17.28.08.09.45-.97.89-1.24,1.15l-.14-.7h0Z"/>
            <path class="cls-2" d="M33.47,77.35c.35.36-1.35,1.27-1.62,1.21-.32-.35,1.31-1.38,1.62-1.21Z"/>
            <path class="cls-2" d="M25.21,91.31c-.05.1-.22.16-.31.31-.13.21-.23.83-.51.64.81-1.3,1.35-2.83,2.38-3.93-.04.24-.22.57-.34.77-.41.68-.76,1.47-1.21,2.21h-.01Z"/>
            <path class="cls-2" d="M87.66,95.65c-.04.19-.22.19-.32,0-.17-.29-.28-2.54.32-1.81v1.81Z"/>
            <path class="cls-2" d="M88.46,60.04c.02.06.27.01.17.34-.3.37-.41.41-.85.43.12-.51-.34-.47-.22-.97.37.04.13.42.65.12l-.32-.12.11-.48c.45.12.35.36.48.69h-.01Z"/>
            <path class="cls-2" d="M95.88,79.64c-.72.13-1.04-.62-.76-1.33.63-.04.75.77.76,1.33Z"/>
            <path class="cls-2" d="M46.23,75.29c-.17.18-1.37-.86-1.61-.98l.1-.35c.1-.1,1.73,1.1,1.51,1.33Z"/>
            <path class="cls-2" d="M28.5,56.81c.09.42-.43.19-.69.25-.54.12-.87.37-1.47.11-.09-.41.43-.19.69-.25.54-.12.89-.31,1.47-.11h0Z"/>
            <path class="cls-2" d="M99.12,51.13l-1.03,1.21-.05-.24-.32.48.22-.06v.18l-.32.12c-.38-.59,1.03-1.68,1.51-1.69h0Z"/>
            <path class="cls-2" d="M96.85,36.28c-.13.19-.19,0-.22-.18-.09-.74.11-1.59,0-2.36.1-.12.56.35.54.54l-.32.06v1.93h0Z"/>
            <path class="cls-2" d="M51.97,97.52l-.1.3.17.08-.08.22h.31v.6c-.21-.14-.76-.41-.83-.69-.15-.53.1-.75.52-.52h0Z"/>
            <path class="cls-2" d="M47.75,77.35l-.27.36-1.24-1.45c.26-.23,1.19,1.09,1.51,1.09h0Z"/>
            <path class="cls-2" d="M81.28,78.07c-.01.24-.9,2.04-1.08,1.81.09-.3.71-2.14,1.08-1.81Z"/>
            <path class="cls-2" d="M23.63,95.1c-.53-.3.12-.92.24-1.24.16-.45.15-1.15.63-1.41l-.87,2.66Z"/>
            <path class="cls-2" d="M97.24,78.24c.49.51.52.82.36,1.52l-.5-1.32-.37-.43c.11-.17.42.14.5.23h.01Z"/>
            <path class="cls-2" d="M38.34,35.31l-.59.31c-.41-.33-.75.19-1.24.05l.11-.36h1.73Z"/>
            <path class="cls-2" d="M51.32,81.33c-.37-.4-.89-.99-.97-1.57.44.36.94.93.97,1.57Z"/>
            <path class="cls-2" d="M31.42,65.51c-.01.17-.49.22-.61.23-.48.06-.97-.02-1.45.13-.05-.36.09-.19.26-.24.59-.17,1.18-.12,1.8-.12Z"/>
            <path class="cls-2" d="M63,75.9c.1.42-.41.07-.64.23l-.06-.23-.06.22-.52.02-.12-.48,1.41.24h0Z"/>
            <polygon class="cls-2" points="70.46 106.94 70.46 107.55 69.7 107.3 69.92 107.67 69.66 107.67 69.38 107.24 70.46 106.94"/>
            <path class="cls-2" d="M86.03,136.42c.02.23-.11.45-.11.66,0,.24.29.92-.04.91-.26-.4-.11-1.1-.16-1.57h.32-.01Z"/>
            <path class="cls-2" d="M96.74,27.82c.02.18-.12,1.08-.27,1.09-.29-.27-.13-.72-.16-1.09h.43Z"/>
            <path class="cls-2" d="M20.28,53.55c-.19.34-.93.28-1.25.25-.19-.01-.42.02-.48-.25h1.73Z"/>
            <path class="cls-2" d="M88.74,73.6v.36l-1.19-.24c.02-.35,1.16-.18,1.19-.12h0Z"/>
            <polygon class="cls-2" points="87.11 64.45 87.33 64.9 87.01 65.03 87.44 65.15 86.79 65.27 86.89 64.95 86.68 64.72 87.11 64.45"/>
            <path class="cls-2" d="M70.57,82.66c.02.22-.25.11-.38.12-.51.02-1.02,0-1.51-.12-.18-.05-.32.13-.27-.24l2.16.24h0Z"/>
            <path class="cls-2" d="M52.73,99.56v-.59c.83-.08.82.87,0,.59Z"/>
            <path class="cls-2" d="M71.1,108.74l-.42-.05c.55-.27.03-1.21.54-1.51l-.12,1.56h0Z"/>
            <path class="cls-2" d="M51.75,64.54c-.14.34-.1.71-.18,1.06-.05.22.03.31-.25.27,0-.4-.09-1.27.43-1.33h0Z"/>
            <path class="cls-2" d="M63.65,78.92l.71,1.2v.37c-.31-.45-.67-.99-.71-1.57Z"/>
            <path class="cls-2" d="M53.37,48.48c-.05.21-.77.58-.87.48-.22-.23.38-.51.34-.71l.53.24h0Z"/>
            <path class="cls-2" d="M72.62,75.29l.49-.24c.49.64-.09.82-.59.6l-.11.36-.22-.85.32.24.11-.6v.48h0Z"/>
          </g>
        </g>
      </g>
    </g>
  </g>
</svg>