<?xml version="1.0" encoding="UTF-8"?>
<svg id="Layer_2" data-name="Layer 2" xmlns="http://www.w3.org/2000/svg" viewBox="0 0 53.28 96.37">
  <g id="_Шар_1" data-name="Шар 1">
    <path d="M34.77,12.4c.13,0,.32-.1.58-.29.26-.19.45-.29.58-.29h.48c.32.13.84.36,1.55.68.71.32,1.13.48,1.26.48.13.19.29.39.48.58.32.32.55.48.68.48.13,0,.32-.05.58-.14.26-.1.45-.21.58-.34l-.19.39c.19-.32.42-.48.68-.48.13,0,.42.19.87.58.45.39.74.58.87.58l1.06.58.58.58h1.16c.45-.45.92-.95,1.4-1.5.48-.55.66-.98.53-1.31l1.36.48h1.16c.06,0,.35.27.87.82.52.55.77,1.05.77,1.5v.48c-.19.32-.53.58-1.02.77-.48.19-.98.4-1.5.63-.52.23-.97.45-1.36.68-.39.23-.58.47-.58.73h.87c0,.45.24,1,.73,1.65.48.65.98,1.23,1.5,1.74v-1.45c.13.32.5.76,1.11,1.31.61.55.89.99.82,1.31,0,.32-.11.73-.34,1.21-.23.48-.48.99-.77,1.5-.29.52-.55,1.03-.77,1.55-.23.52-.34.97-.34,1.36l.19.39c.06.13.11.26.15.39.03.13.11.23.24.29l.58.58v-3.39s.48,0,.48,0l.58,5.04-2.23,2.32c-.19-.06-.42-.13-.68-.19-.52-.13-.84-.26-.97-.39l-.58-.58c-.13-.19-.31-.52-.53-.97-.23-.45-.45-.92-.68-1.4-.23-.48-.44-.92-.63-1.31-.19-.39-.32-.64-.39-.77,0-.26.03-.48.1-.68.06-.19.13-.35.19-.48h-.87s-.58-.58-.58-.58l-.58-1.07-1.06-1.16c0-.39-.11-.76-.34-1.11-.23-.35-.48-.69-.77-1.02-.29-.32-.55-.63-.77-.92-.23-.29-.34-.6-.34-.92l-.58-1.06h-1.16c-.13,0-.4-.26-.82-.78-.42-.52-.69-.84-.82-.97h-.58c-.13,0-.36-.15-.68-.44-.32-.29-.48-.5-.48-.63v-.58s-.48-.58-.48-.58v-.48s-.58,0-.58,0l-1.16.48c-.52,0-.82-.11-.92-.34-.1-.23-.28-.6-.53-1.11v.39s-.58.77-.58.77v.87s.58.48.58.48c0,.32.1.87.29,1.65.19.77.32,1.26.39,1.45v2.32c0,.19-.03.39-.1.58-.07.19-.13.39-.19.58-.07.19-.13.36-.19.48l-.68.58.19,4.55c0,.13-.03.39-.1.77-.07.39-.11.81-.15,1.26-.03.45-.08.87-.15,1.26-.06.39-.1.61-.1.68v1.74c.97.32,1.78.61,2.42.87.64.26,1.32.39,2.03.39.26,0,.92.21,1.99.63,1.07.42,2.21.94,3.44,1.55,1.23.61,2.32,1.24,3.29,1.89.97.65,1.45,1.16,1.45,1.55l.48,1.16c.45.32.95.76,1.5,1.31.55.55.82,1.05.82,1.5,0,.58.11,1.13.34,1.65.23.52.48,1.02.77,1.5.29.48.55.92.77,1.31.23.39.34.77.34,1.16v.48c-.13,0-.5.16-1.11.48-.61.32-.99.55-1.11.68v1.07c.06-.19.23-.42.48-.68.26-.26.45-.39.58-.39h1.16c.06,0,.19.1.39.29.06.13.13.23.19.29v2.81c0,.13.08.5.24,1.11.16.61.24.99.24,1.11-.13,0-.34.06-.63.19-.29.13-.44.26-.44.39,0,.13.1.5.29,1.11.19.61.29.99.29,1.11h.29c0,.9-.07,1.69-.19,2.37-.13.68-.45,1.02-.97,1.02v-1.74s-.87,3.97-.87,3.97c-.13,0-.34-.16-.63-.48-.29-.32-.44-.55-.44-.68v-1.07s.48-1.16.48-1.16c0-.39-.16-.58-.48-.58,0,.13-.03.24-.1.34-.07.1-.13.21-.19.34-.13.19-.23.36-.29.48l-.87-.29c0,.13.02.36.05.68.03.32.06.65.1.97.03.32.06.63.1.92.03.29.05.47.05.53.06.26-.21.52-.82.77-.61.26-1.08.55-1.4.87l-1.16.58c0,.13-.05.4-.15.82-.1.42-.14.69-.14.82h-.77s0,.58,0,.58c0,.13.1.32.29.58.19.26.29.45.29.58-.13,0-.32.1-.58.29-.26.19-.45.29-.58.29h-.58c-.13,0-.29-.13-.48-.39-.19-.26-.32-.45-.39-.58v1.45s-.77-.48-.77-.48c-.19,0-.42-.1-.68-.29-.19-.06-.36-.16-.48-.29h-.58s-.48-.58-.48-.58c-.13,0-.47-.05-1.02-.14-.55-.1-.89-.15-1.02-.15,0-.13.05-.45.15-.97.1-.52.15-.84.15-.97l.58-.58v-1.65c.06-.06.13-.16.19-.29.19-.19.32-.29.39-.29h.58s-.58,1.07-.58,1.07h.58c.13,0,.34-.15.63-.44.29-.29.44-.5.44-.63,0-.13-.15-.35-.44-.68-.29-.32-.5-.48-.63-.48h-.58c-.39,0-.68.14-.87.44-.19.29-.37.63-.53,1.02-.16.39-.34.81-.53,1.26-.19.45-.48.87-.87,1.26,0-.13-.1-.42-.29-.87-.19-.45-.29-.74-.29-.87v-1.65s-2.13-1.16-2.13-1.16l.19,4.36-.19,1.16c-.07.32-.11.6-.15.82-.03.23-.05.4-.05.53l-.48,1.65v1.65s-.77.48-.77.48l-.1.97c0,.06-.05.24-.15.53-.1.29-.23.61-.39.97-.16.36-.29.71-.39,1.07-.1.36-.15.57-.15.63,0,.32-.08.79-.24,1.4-.16.61-.28.92-.34.92l-1.36.1-.58,1.55-1.84-.1c0-.13.08-.47.24-1.02.16-.55.24-.92.24-1.11v-.77s-.77-.68-.77-.68l.68-.87h-1.36s2.71-1.55,2.71-1.55v-.68c0-.13-.05-.34-.14-.63-.1-.29-.19-.61-.29-.97-.1-.35-.19-.68-.29-.97-.1-.29-.15-.47-.14-.53l.1-.97-.87.1.1-.58c0-.13.06-.42.19-.87.13-.45.26-.95.39-1.5.13-.55.26-1.03.39-1.45.13-.42.19-.69.19-.82v-.77s-1.36.97-1.36.97c.84-1.16,1.32-2.36,1.45-3.58.13-1.23.26-2.19.39-2.91l-.48-.87c0-.06-.03-.1-.1-.1h-.58c-.13,0-.4-.1-.82-.29-.42-.19-.69-.29-.82-.29l-1.16-.58c-.07,0-.24-.05-.53-.15s-.58-.23-.87-.39c-.29-.16-.58-.29-.87-.39-.29-.1-.47-.14-.53-.14l-1.16-.58h-1.07s-.58-.58-.58-.58c-.13,0-.5-.18-1.11-.53-.61-.35-.99-.53-1.11-.53l-.58-.58c-.32,0-.94-.19-1.84-.58-.91-.39-1.61-.74-2.13-1.07-.13-.13-.4-.35-.82-.68-.42-.32-.7-.48-.82-.48l-2.81-2.81c-.45-.64-.82-1.18-1.11-1.6-.29-.42-.58-.85-.87-1.31-.29-.45-.57-.81-.82-1.07-.32-.32-.69-.84-1.11-1.55-.42-.71-.84-1.48-1.26-2.32-.42-.84-.77-1.71-1.07-2.62C.14,39.19,0,38.39,0,37.67v-.58c0-2,.13-3.5.39-4.5.26-1,.48-1.57.68-1.7l1.16-.58c.13,0,.26-.1.39-.29.06-.06.13-.16.19-.29v-1.65c.26-.39.55-.84.87-1.36.32-.52.63-1,.92-1.45.29-.45.63-1,1.02-1.65v-1.16c0-.19.16-.5.48-.92.32-.42.74-.9,1.26-1.45.52-.55,1.07-1.1,1.65-1.65.58-.55,1.13-1.08,1.65-1.6.13-.13.5-.4,1.11-.82.61-.42.98-.69,1.11-.82l.58-.58c1.48-1.1,3.08-1.9,4.79-2.42,1.71-.52,3.28-.84,4.7-.97l.58.29-.1-7.26c.32-.13.58-.45.77-.97.19-.52.35-.78.48-.78-.13-.06.05-.18.53-.34.48-.16,1.03-.34,1.65-.53.61-.19,1.18-.37,1.7-.53.52-.16.77-.31.77-.44l3.97-.68c.06.13.16.23.29.29.26.26.39.42.39.48v.48s.77,1.84.77,1.84c0,.9-.19,1.71-.58,2.42-.39.71-.82,1.39-1.31,2.03-.48.65-.92,1.26-1.31,1.84-.39.58-.58,1.13-.58,1.65v1.55c.19.13.39.29.58.48.13.13.29.29.48.48.19.19.35.39.48.58v-1.74c.06-.06.13-.16.19-.29.19-.19.32-.29.39-.29h.48c.13,0,.24-.05.34-.15.1-.1.21-.18.34-.24l-.1-.19h.58c-.07.06-.13.1-.19.1-.06,0-.16.03-.29.1l.48.97ZM3.29,63.73c-.13,0-.19-.1-.19-.29,0-.19.06-.29.19-.29.13,0,.19.1.19.29,0,.19-.07.29-.19.29ZM20.73,78.06v.58s-.58.58-.58.58l-.58,1.07h-1.07c-.13,0-.26-.15-.39-.44-.13-.29-.19-.5-.19-.63l-1.16,2.23v-3.39c0-.13-.14-.26-.44-.39-.29-.13-.5-.19-.63-.19-.39,0-.58.19-.58.58,0,.13.1.4.29.82.19.42.29.7.29.82v.58c-.39.39-.78.58-1.16.58v-1.16c-.07.13-.23.26-.48.39-.26.13-.45.19-.58.19-.26,0-.52-.15-.77-.44-.26-.29-.48-.6-.68-.92-.19-.32-.36-.64-.48-.97-.13-.32-.16-.48-.1-.48h.87s.58.58.58.58h1.07c0-.13-.15-.35-.44-.68-.29-.32-.5-.48-.63-.48h-2.23s-.58,1.16-.58,1.16l-2.23,2.23h-1.16c-.52-.52-.87-1.11-1.07-1.79s-.29-1.37-.29-2.08h.77s0,.97,0,.97c.06-.13.18-.29.34-.48.16-.19.24-.35.24-.48v-.58s-.58-.58-.58-.58c-.71-.71-1.16-1.58-1.36-2.61-.19-1.03-.29-2.03-.29-3,0-.13.02-.42.05-.87.03-.45.08-.92.14-1.4.06-.48.13-.94.19-1.36.06-.42.13-.69.19-.82l-.58-.58v-1.74s2.81-2.81,2.81-2.81h1.07s1.74,3.39,1.74,3.39l.58.58v1.16c0,.06.08.21.24.44.16.23.35.45.58.68.23.23.42.45.58.68.16.23.24.37.24.44v1.07s.58.58.58.58v1.16c0,.13-.16.34-.48.63-.32.29-.55.44-.68.44,0,.13.16.36.48.68.32.32.55.48.68.48h.58s.48-.58.48-.58h.58c.39.39.58.77.58,1.16-.06.13-.13.23-.19.29-.13.19-.26.29-.39.29h-.29s-.29.48-.29.48c.13,0,.42.1.87.29.45.19.74.29.87.29v.58s1.06-1.16,1.06-1.16c0,.13.1.42.29.87.19.45.29.74.29.87l.58.58v.48c.19-.19.44-.29.73-.29.29,0,.5-.16.63-.48.13.07.31.18.53.34.23.16.34.31.34.44-.13,0-.39.07-.77.19v.39s-.19-.39-.19-.39c-.32.13-.55.26-.68.39l.29.58h1.94ZM7.26,70.8c0-.39-.19-.58-.58-.58-.13,0-.34.06-.63.19-.29.13-.44.26-.44.39h1.65ZM7.26,83.1c-.58,0-.97-.21-1.16-.63-.19-.42-.29-.86-.29-1.31l.87.29c.06.13.16.26.29.39.06.13.13.26.19.39.06.13.1.23.1.29v.58ZM6.1,67.7c.13,0,.19-.1.19-.29s-.06-.29-.19-.29c-.13,0-.19.1-.19.29s.06.29.19.29ZM6.68,73.03h-.58s.58,1.07.58,1.07v-1.07ZM7.84,78.06c.06-.13.13-.29.19-.48.06-.13.13-.24.19-.34.06-.1.1-.21.1-.34-.07,0-.15.03-.24.1-.1.07-.21.13-.34.19-.19.13-.36.23-.48.29l-.29.87.87-.29ZM7.26,21.11c.13,0,.19-.1.19-.29s-.07-.29-.19-.29c-.13,0-.19.1-.19.29s.06.29.19.29ZM7.26,68.76c.13,0,.19-.1.19-.29,0-.13-.07-.19-.19-.19-.13,0-.19.07-.19.19,0,.19.06.29.19.29ZM7.26,74.96c.13,0,.19-.1.19-.29,0-.19-.07-.29-.19-.29-.13,0-.19.1-.19.29,0,.19.06.29.19.29ZM7.84,79.22h-.58s.58.48.58.48v-.48ZM7.84,71.57c.13,0,.19-.1.19-.29,0-.13-.07-.19-.19-.19-.13,0-.19.06-.19.19,0,.19.06.29.19.29ZM7.84,72.73c.13,0,.19-.1.19-.29s-.07-.29-.19-.29c-.13,0-.19.1-.19.29s.06.29.19.29ZM7.84,76.61c.13,0,.19-.1.19-.29,0-.13-.07-.19-.19-.19-.13,0-.19.07-.19.19,0,.19.06.29.19.29ZM9.49,71.09c.13,0,.19-.1.19-.29s-.07-.29-.19-.29c-.13,0-.19.1-.19.29s.06.29.19.29ZM10.07,64.89c.13,0,.19-.1.19-.29,0-.19-.06-.29-.19-.29-.13,0-.19.1-.19.29,0,.19.06.29.19.29ZM10.07,72.44c.13,0,.19-.1.19-.29s-.06-.29-.19-.29c-.13,0-.19.1-.19.29,0,.19.06.29.19.29ZM10.07,79.22c0-.13.1-.19.29-.19s.29.06.29.19c0,.07-.1.1-.29.1s-.29-.03-.29-.1ZM11.14,67.7c.13,0,.19-.1.19-.29s-.07-.29-.19-.29c-.06,0-.1.1-.1.29,0,.19.03.29.1.29ZM11.14,80.1c0-.32.13-.48.39-.48.19,0,.29.1.29.29,0,.32-.16.48-.48.48-.07,0-.1-.02-.1-.05,0-.03-.03-.05-.1-.05v-.19ZM11.72,73.32c.13,0,.19-.1.19-.29,0-.19-.06-.29-.19-.29-.13,0-.19.1-.19.29,0,.19.06.29.19.29ZM12.3,75.54c.13,0,.19-.1.19-.29,0-.19-.06-.29-.19-.29-.13,0-.19.1-.19.29,0,.19.06.29.19.29ZM14.53,75.83c0-.39-.19-.58-.58-.58-.13,0-.34.07-.63.19-.29.13-.44.26-.44.39h1.65ZM15.11,77.19c.13,0,.19-.1.19-.29,0-.19-.07-.29-.19-.29-.13,0-.19.1-.19.29,0,.19.06.29.19.29ZM16.27,78.93c-.13,0-.19-.1-.19-.29,0-.19.06-.29.19-.29.13,0,.19.1.19.29,0,.19-.07.29-.19.29ZM16.66,94.33c.06,0,.1.03.1.1l-.1.1c-.06,0-.13-.03-.19-.1v-.19c.06,0,.1.03.1.1h.1ZM16.85,94.82c.13.26.19.42.19.48,0,.26-.13.39-.39.39h-.1c0-.13.03-.26.1-.39.06-.13.1-.23.1-.29,0-.07.03-.13.1-.19ZM16.85,95.88c.06,0,.1.03.1.1,0,.26-.07.39-.19.39l.1-.48ZM17.43,88.23c.06.06.1.13.1.19,0,.39-.13.58-.39.58l.29-.77ZM24.99,32.15l-.1.29.48.29c.13-.32.26-.64.39-.97.13-.32.19-.61.19-.87l-.68-.87-.19-2.61-.39-.19.39-.1c0-.26-.05-.61-.15-1.07-.1-.45-.21-.84-.34-1.16l-.1.1h-.19s0-.1,0-.1c0-.13.02-.24.05-.34.03-.1.05-.21.05-.34v-.58s-.19-4.16-.19-4.16v-.19c0-.26-.13-.39-.39-.39l.48-.77c-.13,0-.32-.11-.58-.34-.26-.23-.52-.5-.77-.82-.07.13-.26.39-.58.77-.32.39-.48.65-.48.77l-.58.58c-.65.65-1.15,1.42-1.5,2.32-.36.9-.79,1.81-1.31,2.71h-.58s-.58.58-.58.58v1.16s.58.58.58.58c.71.71,1.32,1.44,1.84,2.18.52.74,1.07,1.4,1.65,1.99v-.1c.32.32.6.53.82.63.23.1.6.31,1.11.63.13-.13.23-.19.29-.19l.19.1c-.06,0-.1.03-.1.1v.19s1.06.48,1.06.48l-.1-.58.29.29ZM17.92,74.96c-.13,0-.19-.1-.19-.29,0-.19.06-.29.19-.29.13,0,.19.1.19.29,0,.19-.07.29-.19.29ZM18.98,84.84c.06.13.1.35.1.68,0,.26-.06.64-.19,1.16v.29c-.19-.19-.29-.42-.29-.68,0-.13.03-.28.1-.44.06-.16.13-.31.19-.44l.1-.58ZM19.08,78.93c.13,0,.19-.1.19-.29,0-.19-.06-.29-.19-.29-.13,0-.19.1-.19.29,0,.19.06.29.19.29ZM19.85,75.16h-.1c-.06,0-.13-.03-.19-.1v-.1s.29.19.29.19ZM20.63,23.44c.19.13.55.34,1.07.63.52.29.77.76.77,1.4,0,.19-.18.55-.53,1.07-.36.52-.63,1.03-.82,1.55-.65-.64-.97-1.48-.97-2.52,0-.9.16-1.61.48-2.13ZM20.53,89.2c.19,0,.29.1.29.29,0,.19-.13.29-.39.29-.13,0-.19-.06-.19-.19,0-.13.1-.26.29-.39ZM20.73,91.52c.19.13.29.26.29.39,0,.19-.16.29-.48.29-.13,0-.19-.06-.19-.19,0-.19.13-.36.39-.48ZM20.53,75.06c.19,0,.29.1.29.29,0,.19-.03.29-.1.29v.58c-.19-.19-.29-.52-.29-.97,0-.06.03-.13.1-.19ZM23.15,66.34c-.26.71-.74,1.07-1.45,1.07-.39,0-.71-.03-.97-.1l-.1.1c.26-.52.48-.87.68-1.07.19-.19.42-.29.68-.29.13,0,.29.03.48.1.19.06.42.13.68.19ZM21.21,93.46c0,.13-.07.19-.19.19-.19,0-.32-.07-.39-.19.06-.26.19-.39.39-.39.13,0,.19.13.19.39ZM21.31,28.86c.06,0,.1.06.1.19h-.19s-.1-.1-.1-.1l.19-.1ZM21.69,70.51v.29s-.29-.58-.29-.58l.29.29ZM22.08,95.2c.13,0,.19.16.19.48,0,.26-.06.39-.19.39-.19,0-.29-.19-.29-.58,0-.19.1-.29.29-.29ZM22.37,79.22l-.48-.58h1.07s0,.58,0,.58h-.58ZM22.57,89.3c.13,0,.19.06.19.19,0,.19-.1.29-.29.29-.19-.06-.29-.23-.29-.48l.1-.1.1.1h.19ZM22.37,81.45v-.58s1.16.58,1.16.58h-1.16ZM22.57,93.17c.26,0,.39.1.39.29,0,.26-.16.39-.48.39-.06,0-.1-.06-.1-.19,0-.07.06-.23.19-.48ZM25.76,89.1c-.39.58-.94,1.13-1.65,1.65-.71.52-1.16.77-1.36.77h-.19c-.07-.06.08-.4.44-1.02.35-.61.6-1.05.73-1.31l2.03-.1ZM22.76,64.31c.06.06.1.16.1.29,0,.19-.07.29-.19.29h-.1s.19-.58.19-.58ZM22.66,86.2c.13.39.21.61.24.68.03.06.05.13.05.19l-.1.39c-.19-.19-.29-.39-.29-.58,0-.07.01-.13.05-.19.03-.06.05-.13.05-.19v-.29ZM23.53,80.58c-.13,0-.19-.1-.19-.29s.06-.29.19-.29c.13,0,.19.1.19.29s-.07.29-.19.29ZM24.41,85.52l-.1,1.55-.58-.68v-.77s.68-.1.68-.1ZM24.12,59.27c.13,0,.19-.1.19-.29,0-.19-.07-.29-.19-.29-.13,0-.19.1-.19.29,0,.19.06.29.19.29ZM24.12,74.57l-.1.1.1-.1ZM24.89,72.25c-.06.07-.1.15-.1.24s-.06.15-.19.15h-.1c-.07,0-.1-.03-.1-.1,0-.13.16-.23.48-.29ZM26.15,77.29c.19,0,.29.1.29.29,0,.32-.1.48-.29.48-.26,0-.39-.16-.39-.48,0-.19.1-.29.29-.29h.1ZM26.15,65.08c.19,0,.29.13.29.39,0,.19-.03.29-.1.29-.13,0-.19-.1-.19-.29v-.39ZM26.25,86.29c.26.06.39.26.39.58,0,.26-.13.52-.39.77-.06,0-.1-.26-.1-.77v-.48c0-.07.03-.13.1-.19v.1ZM26.83,82.52c-.07,0-.1.07-.1.19,0,.39.06.58.19.58.13,0,.19-.1.19-.29,0-.32-.1-.48-.29-.48ZM27.21,80.29v.19c0,.13.03.26.1.39.06.13.16.23.29.29.13-.13.19-.29.19-.48,0-.32-.16-.48-.48-.48l-.1.1ZM28.09,75.74c-.19,0-.29.1-.29.29,0,.07.03.13.1.19h.19c.13,0,.19-.1.19-.29,0-.13-.07-.19-.19-.19ZM28.67,77.87c-.19,0-.29.13-.29.39,0,.06.06.16.19.29.26,0,.39-.13.39-.39,0-.19-.1-.29-.29-.29ZM28.96,84.36l-.29.97c-.19,0-.29-.16-.29-.48,0-.13.06-.32.19-.58l.39.1ZM29.54,7.65c-.19,0-.29.16-.29.48,0,.19.06.29.19.29.19,0,.29-.13.29-.39,0-.26-.06-.39-.19-.39ZM29.73,24.12c-.26,0-.39.13-.39.39,0,.26.1.42.29.48.19-.06.29-.26.29-.58,0-.19-.07-.29-.19-.29ZM32.06,3.87c-.19.06-.42.24-.68.53-.26.29-.45.4-.58.34l-.58.77v1.06s.58-.29.58-.29c.13,0,.37-.21.73-.63.35-.42.57-.73.63-.92l-.1-.87ZM30.9,22.47c-.13,0-.19.13-.19.39,0,.32.1.52.29.58.13-.13.19-.26.19-.39,0-.39-.1-.58-.29-.58ZM30.9,70.7c-.13,0-.19.13-.19.39,0,.32.1.48.29.48.19,0,.29-.13.29-.39,0-.32-.13-.48-.39-.48ZM31.77,23.53c-.07,0-.13-.03-.19-.1-.52,0-.77.26-.77.77,0,.26.1.39.29.39.19,0,.37-.1.53-.29.16-.19.24-.39.24-.58,0-.06-.03-.13-.1-.19ZM31.09,72.35c-.19,0-.29.13-.29.39,0,.13.06.26.19.39.19,0,.29-.16.29-.48,0-.19-.06-.29-.19-.29ZM31.77,28.67c-.19,0-.29.1-.29.29,0,.26.1.39.29.39.19,0,.29-.1.29-.29,0-.26-.1-.39-.29-.39ZM31.96,82.23c-.13,0-.19-.1-.19-.29,0-.13.06-.19.19-.19.13,0,.19.07.19.19,0,.19-.06.29-.19.29ZM32.54,80.87l-.58-.58c0-.39.19-.58.58-.58l.39.19c.13.06.24.13.34.19.1.07.21.13.34.19l.58.58h-1.65ZM33.12,13.17c.13,0,.19-.1.19-.29,0-.13-.07-.19-.19-.19-.13,0-.19.06-.19.19,0,.19.06.29.19.29ZM33.61,58.11c.13,0,.19-.1.19-.29s-.06-.29-.19-.29c-.06,0-.13.03-.19.1,0,.19.06.36.19.48ZM33.61,77.48h.58s0,1.16,0,1.16l-.58-1.16ZM34.19,63.15c.13,0,.19-.1.19-.29,0-.13-.06-.19-.19-.19-.13,0-.19.07-.19.19,0,.19.06.29.19.29ZM34.19,67.7c-.13,0-.19-.1-.19-.29,0-.19.06-.29.19-.29.13,0,.19.1.19.29s-.06.29-.19.29ZM35.93,66.54c.13,0,.19-.1.19-.29,0-.19-.06-.29-.19-.29-.13,0-.19.1-.19.29,0,.19.06.29.19.29ZM35.93,71.09c-.13,0-.19-.1-.19-.29,0-.19.06-.29.19-.29.13,0,.19.1.19.29s-.06.29-.19.29ZM35.93,78.35c-.13,0-.19-.1-.19-.29,0-.19.06-.29.19-.29.13,0,.19.1.19.29s-.06.29-.19.29ZM36.42,63.73c.13,0,.19-.1.19-.29s-.07-.29-.19-.29c-.13,0-.19.1-.19.29s.06.29.19.29ZM36.42,74.96c-.13,0-.19-.1-.19-.29,0-.19.06-.29.19-.29.13,0,.19.1.19.29,0,.19-.07.29-.19.29ZM37.58,14.04h-1.16s0,.58,0,.58h1.16s0-.58,0-.58ZM36.42,79.71v-1.07s.58,0,.58,0l.58.58v.48s-1.16,0-1.16,0ZM37,15.79c0,.07.1.1.29.1s.29-.03.29-.1c0-.13-.1-.19-.29-.19s-.29.07-.29.19ZM39.22,69.64l-1.65.58,1.65.58v-1.16ZM37.58,75.83v-.58s.58,0,.58,0v.58s-.58,0-.58,0ZM38.16,77.48c0-.06-.02-.1-.05-.1-.03,0-.05-.03-.05-.1,0-.32.16-.48.48-.48.19,0,.29.07.29.19,0,.39-.16.58-.48.58-.06,0-.1-.01-.1-.05,0-.03-.03-.05-.1-.05ZM38.16,64.02c0,.13.1.19.29.19.19,0,.29-.06.29-.19,0-.13-.1-.19-.29-.19-.19,0-.29.06-.29.19ZM39.81,75.25c-.13,0-.4-.16-.82-.48-.42-.32-.69-.55-.82-.68v-.48c.13,0,.31.08.53.24.23.16.4.24.53.24l.58.58v.58ZM38.74,14.91c.13,0,.19-.1.19-.29,0-.19-.07-.29-.19-.29-.13,0-.19.1-.19.29,0,.19.06.29.19.29ZM38.74,15.79v.48s.48,0,.48,0l-.48-.48ZM42.03,66.83c0,.13-.08.32-.24.58-.16.26-.24.45-.24.58v1.07s-.58.58-.58.58c0,.13,0,.28,0,.44,0,.16.03.34.1.53.06.26.13.48.19.68h-.87s-.58.58-.58.58l1.16.58,3.87-3.97v-.48s-.48-.58-.48-.58h-.58s-.58.58-.58.58l-1.16-1.16ZM40.39,65.96c.13,0,.19-.1.19-.29,0-.13-.07-.19-.19-.19-.13,0-.19.07-.19.19,0,.19.06.29.19.29ZM40.39,69.35c.13,0,.19-.1.19-.29,0-.19-.07-.29-.19-.29-.13,0-.19.1-.19.29,0,.19.06.29.19.29ZM40.97,77.19c-.13,0-.19-.1-.19-.29,0-.19.06-.29.19-.29.13,0,.19.1.19.29,0,.19-.07.29-.19.29ZM42.32,33.99l-.19,1.26-.68-.1.39-1.16h.48ZM42.03,78.64c-.13,0-.19-.1-.19-.29,0-.19.06-.29.19-.29.13,0,.19.1.19.29,0,.19-.07.29-.19.29ZM42.03,14.62v.58s.58.58.58.58v-.58s-.58-.58-.58-.58ZM42.61,18.01h-.58s.58.48.58.48v-.48ZM42.03,69.64h.58s-.58.58-.58.58v-.58ZM43.2,61.5c.13,0,.19-.1.19-.29s-.06-.29-.19-.29c-.13,0-.19.1-.19.29,0,.19.06.29.19.29ZM43.2,64.89c.13,0,.19-.1.19-.29,0-.19-.06-.29-.19-.29-.13,0-.19.1-.19.29,0,.19.06.29.19.29ZM43.2,76.42h1.65s-1.06,1.07-1.06,1.07l-.58-1.07ZM43.78,22.18c.13,0,.19-.1.19-.29,0-.19-.06-.29-.19-.29-.13,0-.19.1-.19.29,0,.19.06.29.19.29ZM43.78,75.25c-.13,0-.19-.1-.19-.29,0-.19.06-.29.19-.29.13,0,.19.1.19.29,0,.19-.06.29-.19.29ZM44.36,23.92c.13,0,.19-.1.19-.29,0-.19-.07-.29-.19-.29-.13,0-.19.1-.19.29,0,.19.06.29.19.29ZM44.84,64.89c.13,0,.19-.1.19-.29,0-.19-.06-.29-.19-.29-.13,0-.19.1-.19.29,0,.19.06.29.19.29ZM44.84,74.38c-.13,0-.19-.1-.19-.29,0-.13.06-.19.19-.19.13,0,.19.07.19.19,0,.19-.06.29-.19.29ZM45.42,19.66l-.58-.58v1.16s.58,0,.58,0v-.58ZM46,22.47h-.58s0,.58,0,.58h.58s0-.58,0-.58ZM46,61.79c.13,0,.19-.1.19-.29,0-.19-.07-.29-.19-.29-.13,0-.19.1-.19.29,0,.19.06.29.19.29ZM46,68.76c.13,0,.19-.1.19-.29,0-.13-.07-.19-.19-.19-.13,0-.19.07-.19.19,0,.19.06.29.19.29ZM46,70.51c-.13,0-.19-.1-.19-.29,0-.19.06-.29.19-.29.13,0,.19.1.19.29,0,.19-.07.29-.19.29ZM46,73.03v-1.16c0-.13.08-.31.24-.53.16-.23.27-.4.34-.53v2.23s-.58,0-.58,0ZM46.59,66.54c.13,0,.19-.1.19-.29,0-.19-.07-.29-.19-.29-.13,0-.19.1-.19.29,0,.19.06.29.19.29ZM46.59,76.61c-.13,0-.19-.1-.19-.29,0-.13.06-.19.19-.19.13,0,.19.07.19.19,0,.19-.07.29-.19.29ZM47.07,20.24c0-.13.05-.32.15-.58.1-.26.15-.45.15-.58h-.77s0,1.74,0,1.74l.48-.58ZM47.65,71.28c-.13,0-.19-.1-.19-.29,0-.13.06-.19.19-.19.13,0,.19.06.19.19,0,.19-.07.29-.19.29ZM49.39,24.12c-.13,0-.37-.03-.73-.1-.36-.06-.6-.1-.73-.1,0,.19.03.36.1.48.06.13.13.23.19.29l1.16.58v1.16s.48-.58.48-.58v-1.16s-.48-.58-.48-.58ZM48.23,56.75c.13,0,.19-.1.19-.29,0-.19-.07-.29-.19-.29-.13,0-.19.1-.19.29,0,.19.06.29.19.29ZM48.23,69.64c-.13,0-.19-.1-.19-.29,0-.19.06-.29.19-.29.13,0,.19.1.19.29,0,.19-.07.29-.19.29ZM48.81,58.4h-.58s0,.58,0,.58h.58s0-.58,0-.58ZM48.81,26.15c.13,0,.19-.1.19-.29,0-.19-.06-.29-.19-.29-.13,0-.19.1-.19.29,0,.19.06.29.19.29ZM48.81,62.08c.13,0,.19-.1.19-.29s-.06-.29-.19-.29c-.13,0-.19.1-.19.29,0,.19.06.29.19.29ZM49.88,22.76c.13,0,.19-.1.19-.29,0-.19-.07-.29-.19-.29-.06,0-.1.1-.1.29,0,.19.03.29.1.29ZM49.88,60.05c0,.13.1.19.29.19.19,0,.29-.06.29-.19,0-.13-.1-.19-.29-.19-.19,0-.29.07-.29.19ZM50.46,11.52c-.13,0-.19-.1-.19-.29,0-.19.06-.29.19-.29.13,0,.19.1.19.29,0,.19-.06.29-.19.29ZM50.46,19.08c-.13,0-.19-.1-.19-.29,0-.19.06-.29.19-.29.13,0,.19.1.19.29,0,.19-.06.29-.19.29ZM50.46,20.53c-.13,0-.19-.1-.19-.29,0-.19.06-.29.19-.29.13,0,.19.1.19.29,0,.19-.06.29-.19.29ZM50.46,61.5c.13,0,.19-.1.19-.29,0-.19-.06-.29-.19-.29-.13,0-.19.1-.19.29s.06.29.19.29ZM51.04,69.05c-.13,0-.19-.1-.19-.29,0-.19.06-.29.19-.29.13,0,.19.1.19.29,0,.19-.06.29-.19.29ZM51.62,32.06h-.58s0,.48,0,.48l.58-.48ZM52.2,35.16c-.13,0-.19-.1-.19-.29,0-.19.06-.29.19-.29.13,0,.19.1.19.29,0,.19-.07.29-.19.29Z"/>
  </g>
</svg>