<?xml version="1.0" encoding="UTF-8"?>
<svg id="Layer_2" data-name="Layer 2" xmlns="http://www.w3.org/2000/svg" viewBox="0 0 1137.28 1116.17">
  <defs>
    <style>
      .cls-1 {
        fill: #59fd53;
      }
    </style>
  </defs>
  <g id="Layer_1-2" data-name="Layer 1">
    <path class="cls-1" d="M120.13,23.61c32.37-.49,68.36,20.1,91.5,41.53,24.08,22.3,39.43,56.81,30.63,88.43-4.57,16.42-15.07,30.55-26.69,43.02-12.46,13.37-26.44,25.32-41.6,35.53-14.24,9.59-32.74,9.15-49.88,8.19-19.2-1.07-38.62-2.39-56.94-8.21-18.33-5.82-35.73-16.67-45.78-33.06s-11.35-38.83-.1-54.42c6.07-8.41,15.03-14.18,22.65-21.22s14.29-16.56,13.33-26.88c-1.06-11.38-10.97-20.1-13.55-31.24-9.54-41.24,51.56-41.28,76.44-41.65ZM471.96,33.89c-10.72,5.08-22.61,12.7-23.26,24.54-1.08,19.62-2.16,39.23-3.23,58.85-1,18.11-1.9,36.86,4.64,53.78,8.84,22.89,30.33,39.02,53.43,47.27,23.1,8.25,47.99,9.72,72.49,11.11,20.12,1.14,40.53,2.26,60.23-2.02,19.69-4.28,38.92-14.71,49.36-31.95,11.98-19.79,10.59-44.58,8.81-67.65-1.82-23.62-3.81-47.87-14.04-69.24-16-33.41-49.32-50.42-84.29-57.21-38.11-7.41-90.27,16.44-124.13,32.5ZM877.95,66.96c-10.21,11.33-19.06,25.17-19.14,40.43-.07,12.87,6.12,24.94,13.21,35.68,36.49,55.26,102.73,89.51,168.91,87.34,16.9-.55,33.99-3.4,49.17-10.85,15.18-7.45,28.37-19.86,34.42-35.65,7.12-18.57,3.74-39.85-4.68-57.86-8.42-18.01-21.47-33.39-34.36-48.54-13.86-16.28-27.91-32.74-45.32-45.14-52.62-37.47-122.29-9.69-162.22,34.6ZM35.14,473.1c-25.08,25.15-38.12,61.82-34.56,97.16,2.62,25.95,14.64,51.78,35.92,66.85,15.31,10.84,34.13,15.47,52.7,18.1,49.34,7,104.61-.66,139.24-36.49,32.7-33.84,39.21-90.06,15.11-130.48-41.17-69.03-154.95-68.78-208.42-15.15ZM469.06,432.85c-6.4,1.39-12.99,3.05-18.18,7.24-9.85,7.96-11.99,22.46-13.38,35.49-3.31,31.07-6.62,62.57-2.13,93.47s17.78,61.66,41.75,79.93c33.73,25.71,79.43,21.54,120.71,16.24,13.01-1.67,27.54-4.24,35.25-15.45,12.71-18.49-.23-50.32,16.94-64.21,8.78-7.1,21.22-5.29,31.72-8.93,19.65-6.81,28.91-32.67,24.25-53.98-4.66-21.32-19.73-38.36-35.93-51.95-14.06-11.79-28.94-25.69-44.02-35.8-12.14-8.15-28.39-7.96-42.47-9.21-38.23-3.41-76.93-1.01-114.51,7.15ZM946,446.19c-2.29,8.22-2.82,16.85-5.24,25.03s-7.27,16.29-15.15,19.55c-14.87,6.14-34.86-6.74-46.76,4.08-20.12,18.3-31.03,46.28-28.59,73.37,2.44,27.09,18.16,52.67,41.23,67.09,15.74,9.83,34.08,14.45,52.09,18.93,23.85,5.93,47.69,11.86,71.54,17.79,16.36,4.07,32.24-8.86,41.18-23.15s14.42-31.08,26.49-42.84c9.92-9.67,23.38-14.97,33.72-24.19,18.49-16.49,24.43-44.18,18.64-68.27-5.8-24.09-21.84-44.72-40.99-60.44-14.16-11.63-30.18-19.52-45.49-29.34-9.52-6.11-17.47-15.89-28.25-19.78-30.9-11.13-66.11,12.34-74.42,42.19ZM62.74,915.48c-.54.48,0,0-1.37.88-18.61,12.03-29.06,24.77-44.84,45.63-16.17,21.37-21.04,56.22-11.7,83.79,7.61,22.47,23.3,38.84,40.47,48.46,17.17,9.62,35.9,13.21,54.43,16.06,10.2,1.57,20.42,2.94,30.65,4.11,25.19,2.89,52.03,4.13,74.14-12.07,25.54-18.72,39.18-56.69,47.48-93.64,5.49-24.44,9.26-51.4,1.74-74.88-5.52-17.26-16.69-30.62-29.27-39.31-12.58-8.7-26.59-13.15-40.56-16.53-21.96-5.32-45.03-8.1-66.3.89-20.92,8.84-19.74,5.16-54.86,36.61ZM541.66,859.69c-30.36,34.37-59.79,68.32-85.72,108.96-7.53,11.8-15.02,24.58-17.25,39.81-2.55,17.47,2.22,35.24,7.29,51.7,4.26,13.81,11.48,29.82,22.62,28.85,7.09-.61,12.71-8.4,16.12-16.74,3.41-8.34,5.37-17.71,9.28-25.64,9.5-19.24,28.92-26.07,45.93-22.41,17.01,3.67,32.22,15.87,46.88,28,11.53,9.55,24.01,19.57,37.55,18.48,7.13-.57,13.92-4.24,20.32-8.49,17.16-11.41,32.77-27.73,43.51-48.97,10.74-21.24,16.31-47.63,13.43-72.99-4.72-41.58-31.38-74.09-61.06-87.89-30.41-14.14-73.09-21.9-98.9,7.32ZM948.44,837.69c-22.31,6.62-43.82,20.19-57.98,41.98-15.65,24.09-20.87,55.4-25.62,85.44-4.21,26.6-8.07,55.92,3.24,79.32,11.22,23.21,34.03,33.67,55.1,42.46,17.44,7.27,37.4,14.35,53.57,3.63,18.71-12.4,25.55-44.82,46.06-51.97,18.77-6.54,37.22,12.14,56.73,13.29,22.44,1.32,42.28-22.66,46.03-49.35,8.29-58.89-37.53-90.66-66.86-126.05-29.43-35.5-68.94-51.02-110.28-38.76Z"/>
  </g>
</svg>