<?xml version="1.0" encoding="UTF-8"?>
<svg id="Layer_2" data-name="Layer 2" xmlns="http://www.w3.org/2000/svg" viewBox="0 0 274.2 171.91">
  <defs>
    <style>
      .cls-1 {
        fill: #84ee43;
      }

      .cls-2 {
        opacity: .65;
      }

      .cls-2, .cls-3 {
        fill: #adfe7d;
      }

      .cls-4 {
        fill: #67d133;
      }

      .cls-5 {
        fill: #73de42;
      }
    </style>
  </defs>
  <g id="_Шар_1" data-name="Шар 1">
    <g>
      <path class="cls-1" d="M256.4,5.76c-18.55,6.19-33.57,0-62.73-2.65s-30.93.89-56.55,2.65-30.93,1.76-60.97,0S38.94-1.64,16.95.46c-2.16.21-4.09.55-5.79,1.01-.04.01-.07.01-.11.03-1.17.31-2.24.69-3.21,1.14-.02,0-.05.02-.07.03-2.45,1.1-4.24,2.57-5.48,4.31v.02c-.59.81-1.04,1.69-1.39,2.62v.03c-.12.28-.22.56-.3.86h0c-1.39,4.73-.26,10.74,2.22,17.34.55,1.46,1.19,2.77,1.92,3.94,0,.01,0,.01,0,.02,5.55,8.9,16,10.25,26.34,14.98,1.48.67,2.95,1.41,4.41,2.26,16.54,9.59,19.07,27.13,16.96,46.01-2.37,21.36-10.68,44.45-11.34,59.67v.02c-.41,9.55,2.21,16,11.22,16.98,8.75.95,13.61-2.05,16.08-7.67,1.57-3.58,2.17-8.22,2.19-13.58v-.02c0-.79-.01-1.58-.03-2.4,0-.06,0-.13-.01-.19,0-.61-.04-1.22-.07-1.84-.97-20.79-8.3-49.84-3.38-70.58.01-.03.01-.06.02-.1.13-.56.28-1.12.43-1.67,0-.01.01-.03.01-.06,1.75-6.24,4.72-11.65,9.45-15.73,6.43-5.55,14.41-2.62,15.17,14.4.06,1.27.08,2.61.05,4.03-.08,3.92-1.2,8.83-2.71,14.16-.01.02-.01.03-.01.04-5.45,19.23-15.91,43.86-.21,47.13,27.7,5.77,24.62-18.97,22.79-42.07-1.26-15.88-1.94-30.98,8.38-34.85,1.83-.69,3.3-.93,4.48-.79.04,0,.08,0,.14,0,8.83,1.22.3,24.22,3.16,36.81,1.91,8.35,16.55,13.82,24.33,3.89,43.77-55.94,53.43,18.67,71.99,16.44,31.64-3.81,11.49-54.78,18.56-68.91,4.86-9.75,6.86-1.79,11.34,3.47,2.02,2.38,4.55,4.2,8.09,3.59,19.53-3.36,12.38-55.67-6.18-49.48ZM114.64,51.89c-1.26,1.25-2.61,1.84-3.9,1.92h-.03c-1.31.09-2.56-.36-3.61-1.19-.01,0-.01-.01-.02-.01-3.18-2.52-4.62-8.51-.63-14.09,0-.01.01-.01.01-.01,0-.01.01-.02.02-.03,0,0,.01-.01.01-.02.39-.55.83-1.09,1.33-1.62,7.8-8.33,13.64,8.32,6.82,15.05ZM198.79,71.61c-7.65-6.44-14.81-2.41-17.92-5.95h-.01c-.68-.78-1.16-1.9-1.41-3.58-.21-1.39-.27-3.16-.14-5.42.72-12.7,14.61-28.15,20.45-14.51,4.69,10.93,8.12,29.08,3.77,31.17-1.07.53-2.62.07-4.74-1.71Z"/>
      <path class="cls-5" d="M262.58,55.24c8.21-4.04,9.04-7.88,6.51-24.61-2.53-16.72-19.97-13.91-33.44-9.21-13.47,4.71-15.43-9.43-30.12-10.08s-20,3.8-29.02,12.37c-9.02,8.58-24.61,16.66-34.66,8.76-10.05-7.9-13.6-19.43-40.7-11.05-27.11,8.39-47-6.28-70.09-15.81C21.39,1.62,15.33.67,11.16,1.47c1.7-.46,3.63-.8,5.79-1.01C22.1-.03,26.44-.1,30.45.11c.02,0,.04,0,.06.01,13.08.68,22.68,4.29,45.64,5.64,30.04,1.76,35.35,1.76,60.97,0,9.24-.64,15.38-1.5,20.82-2.22.04,0,.07,0,.11-.02.35-.05.7-.09,1.05-.14h.01c9.1-1.19,16.68-1.89,34.56-.27,29.16,2.65,44.18,8.84,62.73,2.65,2.92-.97,5.56-.5,7.86,1.01.58.38,1.15.83,1.68,1.34,0,0,0,.01,0,.01.83.78,1.6,1.71,2.31,2.75,8.61,12.53,8.79,41.88-5.68,44.37Z"/>
      <path class="cls-5" d="M70.61,150.48c-.04,13.77-3.94,22.8-18.27,21.25-36.03-3.9,30.18-95.41-16.84-122.68-11.67-6.76-24.41-7.07-30.75-17.24,0,0,0,0,0-.02v-.02s21.64,16.61,36.31,13.65c14.68-2.95,15.69,4.91,16.76,21.74s-19.25,77.93-11.98,89.94c6.86,11.34,24,7.29,24.78-6.62Z"/>
      <path class="cls-5" d="M70.57,147.87c-.07-.77-.09-1.38-.07-1.84.03.62.06,1.23.07,1.84Z"/>
      <path class="cls-5" d="M254.49,51.65c-3.54-4.16-5.53-10-8.61-7.45-.82.67-1.71,1.93-2.73,3.98-7.07,14.13,13.08,65.1-18.56,68.91-3.6.43-6.87-2.03-10.11-5.87h0c-13.48-15.97-26.61-55.64-61.87-10.57-7.78,9.93-22.42,4.46-24.33-3.89-2.86-12.59,5.67-35.59-3.16-36.81,1.61,0,9.29-4.4,9.63,13.73.34,18.71,8.27,24.06,19.55,16.13,11.27-7.93,25.52-31.93,48.39,3.46,18.2,28.15,30.53,5.01,32.97-16.85,2.44-21.86,5.33-42.12,15.71-33.09,1.58,1.37,2.57,4.32,3.13,8.32Z"/>
      <path class="cls-5" d="M89.32,137.65c-15.7-3.27-5.24-27.9.21-47.13,0-.01,0-.02.01-.04,1.51-5.33,2.63-10.24,2.71-14.16.03-1.42.01-2.76-.05-4.03-.76-17.02-8.74-19.95-15.17-14.4-4.73,4.08-7.7,9.49-9.45,15.73,0,.03-.01.05-.01.06-.15.55-.3,1.11-.43,1.67.44-2.43.77-26.33,12.94-33.37,12.36-7.14,20.96,2.87,16.22,25.01-4.75,22.13-13.92,51.51-3.87,54.47,10.05,2.96,15.15-4.83,18.41-21.85.34-1.78.77-3.1,1.27-4.03,1.83,23.1,4.91,47.84-22.79,42.07Z"/>
      <path class="cls-4" d="M77.03,57.89c-4.73,4.08-7.7,9.49-9.45,15.73.35-1.62,3.44-27.2,18.63-23.97,6.11,1.3,7.06,10.88,5.99,22.64-.76-17.02-8.74-19.95-15.17-14.4Z"/>
      <path class="cls-4" d="M89.32,137.65c-15.7-3.27-5.24-27.9.21-47.13-2.37,12.84-6.7,24.49-6.58,28.86.3,10.68,13.06,13.64,21.07,3.26,8.01-10.39,5.63-49.98,5.63-49.98,0,0,1.86-10.86,10.84-11.94-25.32,9.49,15.57,86.66-31.17,76.92Z"/>
      <path class="cls-4" d="M245.88,44.2c-.82.67-1.71,1.93-2.73,3.98-7.07,14.13,13.08,65.1-18.56,68.91-3.6.43-6.87-2.03-10.11-5.87.38.38,9.69,9.58,17.69-.58,14.82-18.82,4.01-66.85,13.71-66.44Z"/>
      <path class="cls-4" d="M137.12,5.76c9.24-.64,15.38-1.5,20.82-2.22-11.15,1.71-59.12,13.28-85.08,7.8C46.18,5.71,32.36.34,30.51.12c13.08.68,22.68,4.29,45.64,5.64,30.04,1.76,35.35,1.76,60.97,0Z"/>
      <path class="cls-4" d="M264.26,6.77c-6.42-2.6-23.26,9.04-40.4,3.15-18.98-6.53-56.28-7.46-64.75-6.54,9.1-1.19,16.68-1.89,34.56-.27,29.16,2.65,44.18,8.84,62.73,2.65,2.92-.97,5.56-.5,7.86,1.01Z"/>
      <path class="cls-4" d="M268.26,10.87c-.83-.81-1.62-1.72-2.31-2.75.83.78,1.6,1.71,2.31,2.75Z"/>
      <path class="cls-4" d="M35.5,49.05c-1.46-.85-2.93-1.59-4.41-2.26,1.11.52,16.6-.7,19.25,8.51,2.65,9.2,6.34,23.74,2.12,39.76,2.11-18.88-.42-36.42-16.96-46.01Z"/>
      <path class="cls-4" d="M68.42,164.06c-2.47,5.62-7.33,8.62-16.08,7.67-9.01-.98-11.63-7.43-11.22-16.98.94,9.12,12.58,20.48,26.46,9.91.28-.21.56-.42.84-.6Z"/>
      <path class="cls-5" d="M110.74,53.81c1.29-.08,2.64-.67,3.9-1.92,6.82-6.73.98-23.38-6.82-15.05-.5.53-.94,1.07-1.33,1.62.37-.71,5.52-10.39,11.16-5.05,5.16,4.88,1.55,20.99-6.91,20.4Z"/>
      <path class="cls-5" d="M203.55,73.32h-.02c4.35-2.09.92-20.24-3.77-31.17-5.84-13.64-19.73,1.81-20.45,14.51-.13,2.26-.07,4.03.14,5.42-1.21-4.55-1.75-13.27,5.55-25.25,11.06-18.15,18.49-.14,20.53,8.59s6.9,27.71-1.98,27.9Z"/>
      <path class="cls-2" d="M55.09,128.16c-11.46,29.43,12.28,35.03,14.05,20.49,1.77-14.54-6.06-41.02-14.05-20.49Z"/>
      <path class="cls-2" d="M139.12,73.68c.14,9.39,2.13,22.55,9.78,13.08,7.65-9.47,5.82-12.37,0-14.08-5.82-1.71-10.16-24.32-9.78,1.01Z"/>
      <path class="cls-2" d="M209.01,90.04c3.54,14.19,10.48,16.39,14.06,4.29,1.79-6.05-4.18-1.18-8.58-2.52-4.4-1.34-7.24-8.87-5.47-1.77Z"/>
      <path class="cls-2" d="M257.43,39.7c-3.66,10.87,6.88,19.04,8.52,7.83,1.65-11.21-5.23-17.63-8.52-7.83Z"/>
      <path class="cls-2" d="M11.16,7.01c-13.14,6.6,4.64,10.91,10.42,16.68,5.77,5.77,11.55,18.17,18.42,13.9s13.25,4.57,16.51-4.17c3.01-8.08-6.49-11.85-18.83-19.68C27.4,7.21,17.05,4.05,11.16,7.01Z"/>
      <path class="cls-3" d="M43.17,151.65c.25,2.53-.47,7.48,6.54,11.49,7.01,4,13.77-.49,14.58-1.18.81-.69-9.07,3.27-13.45-.85-4.38-4.13-7.67-9.45-7.67-9.45Z"/>
      <path class="cls-3" d="M83.29,120.27c.81,5.6,3.31,10.47,11.22,8.66,7.92-1.81,5.69-4.86,1.94-3.89-3.75.97-10,.42-10.55-3.06-.56-3.47-3.14-5.38-2.61-1.72Z"/>
      <path class="cls-3" d="M194.4,24.88c4.83-3.04,8.7,1.01,12.7,12.48,3.99,11.47,3.85,19.49,2.29,16.78s-3.16-17-8.26-22.36c-5.1-5.37-13.44-2.68-6.73-6.9Z"/>
      <path class="cls-3" d="M113.24,31.77c-.59.79.6.07,1.73.41,2,.6,4.26,2.97,4.69,6.07.57,4.13-1.01,9.29-1.01,9.29,0,0,2.97-6.42,2.22-10.54-.82-4.52-6.37-6.93-7.62-5.23Z"/>
    </g>
  </g>
</svg>