<?xml version="1.0" encoding="UTF-8"?>
<svg id="Layer_2" data-name="Layer 2" xmlns="http://www.w3.org/2000/svg" viewBox="0 0 154.63 153.21">
  <defs>
    <style>
      .cls-1 {
        fill: #74ed26;
      }

      .cls-2 {
        fill: #67d133;
      }

      .cls-3 {
        fill: #73de42;
      }

      .cls-4 {
        fill: #adfe7d;
      }
    </style>
  </defs>
  <g id="_Шар_1" data-name="Шар 1">
    <g>
      <path class="cls-1" d="M135.37,25.19c-12.27,3.32-2.36,51.88-9.01,58.95-.49.52-1.06.82-1.74.86-23.15,1.37,4.75-42.12-15.04-43.75-8.11-.66-13,8.62-14.55,20.36-1.28,9.7.97,19.49,2.04,29.06,1.14,10.11.97,19.97-6.05,29.2-11.17,14.7-19.35-2.34-16.77-25.51,2.57-23.17,14.21-48.5-2.41-53.61-2.93-.9-23.7-2.32-30.68,15.2-7.4,18.61,17.93,94.84-9.54,97.21-.06.01-.12.02-.18.02-22.09,1.63-3.31-76.56-8.73-98.88C16.58,29.14-8.31,14.68,2.84,6.36c.6-.45,1.31-.89,2.13-1.3,5.95-3.01,9.73-3.72,13.28-3.27t.02.01c12.62,1.62,22.48,17.96,117.1-1.3,7.94-1.62,14.68.87,17.64,4.94.01.01.02.03.03.04,4.18,5.78.74,14.73-17.67,19.71Z"/>
      <path class="cls-4" d="M41.83,129.86c-.16-1.42-.1-2.87-.45-4.27-.33-1.3-.75-2.72-1.27-3.95-.25-.6-1.1-.34-1.27.17-.38,1.1-.66,2.25-1.02,3.36-.37,1.14-.46,2.33-.74,3.49-.57,2.35-1.66,4.54-2.37,6.85-.31,1.03-.53,2.08-.89,3.1-.03.1-.35.9-.39,1.03-.2.42-.43.82-.67,1.23-.05.07-.08.11-.11.16-.15.17-.31.34-.47.49-.07.06-.12.1-.16.14-.18.12-.36.24-.56.34-.05.02-.07.04-.11.05-.22.09-.44.17-.67.23-.64.24-1.17.54-1.76.86-2.26,1.2-2.05,4.48,0,5.74,3.09,1.89,6.74.28,9.11-2.04,2.14-2.1,3.3-4.96,3.85-7.86.58-3.11.3-6.01-.05-9.12Z"/>
      <path class="cls-4" d="M95.47,98.84c-.22-1.94-.46-3.85-.85-5.77-.34-1.68-.68-3.72-1.52-5.22-.36-.64-1.3-.61-1.66,0-.74,1.25-1.15,2.95-1.47,4.37-.36,1.62-.7,3.21-.93,4.86-.44,3.15-.49,6.41-1.12,9.52-.47,2.3-1.37,3.89-2.73,5.93-1.25,1.87-3.46,3.54-4.05,5.66-.17.6.1,1.45.71,1.74.4.19,1.15.6,1.94.57.7-.03,1.39-.29,2.06-.48,1.49-.42,2.98-1.45,4.15-2.44,2.46-2.06,4.08-4.86,5.07-7.9,1.14-3.52.82-7.25.41-10.86Z"/>
      <path class="cls-4" d="M126.1,74.16c-.05-.71-.03-1.47-.47-2.05-.24-.31-.48-.52-.88-.58-.35-.05-.77.04-1.02.33-.13.15-.26.32-.37.49-.07.12-.13.3-.19.45-.08.18-.18.35-.27.52-.14.13-.27.27-.38.45-.08.13-.15.27-.22.41-.16.27-.33.53-.52.78.11-.15.23-.29.34-.44-.27.35-.55.69-.77,1.08-.3.5-.44,1.07-.5,1.63.02-.17.05-.35.07-.52-.06.24-.12.45-.12.71s.06.48.15.69c.03.24.14.47.3.63.15.15.31.23.49.27.46.23.97.31,1.48.14.3-.1.6-.19.86-.37.55-.36,1.05-.84,1.36-1.43.45-.88.94-2.2.66-3.2Z"/>
      <path class="cls-4" d="M92.1,76.51c-.11-.64-.22-1.24-.56-1.76-.25-.89-.54-1.79-1.01-2.58-.34-.57-1.33-.36-1.3.35.04.85.14,1.68.16,2.53-.17.54-.16,1.1-.22,1.69,0,.03-.02.24-.03.3-.01.06-.04.27-.05.29-.07.4-.14.8-.18,1.2-.01.11-.03.23-.04.34,0,.03-.02.15-.03.21-.05.31-.11.62-.18.92-.08.38-.15.76-.18,1.15-.04.52.09.97.33,1.43.36.69,1.41.98,2.06.54.88-.6,1.17-1.4,1.31-2.4.09-.7.16-1.41.17-2.11.01-.7-.14-1.42-.26-2.11Z"/>
      <path class="cls-4" d="M40.85,114.04c0-.28-.07-.54-.21-.78-.08-.17-.24-.32-.36-.47-.05-.06-.11-.12-.17-.17-.06-.06-.11-.11-.17-.17-.2-.18-.41-.32-.67-.39-.06-.02-.12-.01-.18-.02-.03-.01-.06-.03-.1-.05-.11-.06-.22-.07-.34-.08-.13-.08-.25-.16-.38-.23-.24-.15-.56-.11-.77.05-.21.16-.34.47-.25.73.05.14.1.29.15.43,0,.06-.01.11-.02.17,0,.11.02.2.05.3,0,.04-.02.07-.02.1,0,.08,0,.15.02.23,0,.2.07.38.18.55.04.07.08.14.12.2.11.17.21.31.35.48.05.06.09.13.16.18.19.19.42.32.68.4.27.07.54.07.82,0,0,0,0,0,0,0,.05,0,.09,0,.14-.02.16-.04.3-.11.42-.22.17-.13.29-.3.36-.48.14-.24.2-.49.21-.76Z"/>
      <path class="cls-4" d="M81.5,36.29c-.44-.82-1.29-1.56-2.09-2.02-1.87-1.08-4.07-1.37-6.17-1.61-3.91-.45-7.92-.07-11.71.98-3.76,1.04-7.24,2.96-10.27,5.4-2.94,2.37-5.97,5-8.05,8.19-.29.44.2,1.15.72.94,3.13-1.27,5.94-3.3,8.93-4.86,3.12-1.63,6.39-2.77,9.84-3.46,3.1-.62,6.41-.62,9.54-.19,1.74.24,3.44.78,5.2.89.91.06,1.9,0,2.74-.39,2.03-1.17,1.48-3.56,1.3-3.86Z"/>
      <path class="cls-4" d="M148.39,10.33c-.21-.72-.57-1.18-1.04-1.65-.37-.37-.87-.46-1.34-.6-.45-.14-.91.16-1.04.59.06-.19-.05.05-.15.18-.12.15-.28.47-.29.52-.13.17-.27.34-.38.53-.03.05-.22.41-.14.32-.29.41-.62.79-.88,1.24-.1.15-.1.15.02.02-.06.07-.12.14-.19.22-.16.18-.33.34-.5.51-.54.5-1.09.85-1.91,1.39-.9.6-1.82,1.18-2.75,1.73-1.76,1.05-3.51,2.13-5.27,3.17-.93.55-1.86,1.07-2.74,1.68-.88.61-1.33,1.2-1.85,2.12-.08.14,0,.28.14.33.52.21,1.02.48,1.59.52.6.04,1.22-.1,1.81-.19,1.22-.19,2.4-.58,3.58-.96,2.42-.79,4.71-1.85,6.94-3.06,2.19-1.19,4.4-2.47,5.81-4.6.76-1.14,1-2.67.6-4.01Z"/>
      <path class="cls-4" d="M33.15,9.69c-2.56-.12-4.91-1.38-7.29-2.22-2.39-.84-5.04-1.32-7.54-1.67-2.56-.37-5-.52-7.56-.11-1.17.19-2.36.49-3.41,1.07-1.11.62-1.74,1.46-2.45,2.47-.62.88.22,2.06,1.19,2.07,1.07,0,2.09.13,3.18.05,1.13-.08,2.25-.15,3.39-.09,2.07.11,4.06.39,6.08.85,2.44.55,4.86,1.17,7.34,1.18,2.57,0,4.92-.43,7.43-.96,1.53-.32,1.1-2.56-.36-2.63Z"/>
      <path class="cls-3" d="M153.01,5.44c-9.98-11.45-51.78,9.73-76.83,11.34C51.21,18.4,20.35,2.25,18.27,1.8c12.62,1.62,22.48,17.96,117.1-1.3,7.94-1.62,14.68.87,17.64,4.94Z"/>
      <path class="cls-3" d="M32.09,56c-.17,20.94-20.34,92.82-2.88,96.51.94.2,1.74.42,2.41.65-.06.01-.12.02-.18.02-8.35.62-10.86-10.18-11.04-25.05,0-.29-.02-.59,0-.9v-.07c-.02-2.76.04-5.66.15-8.64h0c.9-23.38,5.12-52.07,2.17-64.22-2.66-10.9-8.84-19.8-14.08-27.05C1.78,17.76-3.48,11.07,2.84,6.36c0,0-7.98,8.98,8.49,16.79,16.47,7.81,20.94,11.92,20.76,32.85Z"/>
      <path class="cls-2" d="M20.39,127.23c.03.37.03.66,0,.9,0-.29-.02-.59,0-.9Z"/>
      <path class="cls-2" d="M20.54,118.51c.9-23.37,5.12-52.06,2.17-64.21-2.66-10.9-8.84-19.8-14.08-27.05.51.71,14.03,8.69,16.43,20.95,2.03,10.36-3.34,50.31-4.52,70.31Z"/>
      <path class="cls-2" d="M126.36,84.14c-.49.52-1.06.82-1.74.86-23.15,1.37,4.75-42.12-15.04-43.75-8.11-.66-13,8.62-14.55,20.36-1.28,9.7.97,19.49,2.04,29.06-.17-1.44-11.55-38.4.6-53,12.14-14.61,23.73-2.63,20.51,22.09-3.22,24.72,2.76,25.06,8.18,24.38Z"/>
      <path class="cls-4" d="M81.42,44.09c-.24,2.68,4.89,5.03,4.13.58-.76-4.44-3.77-4.53-4.13-.58Z"/>
    </g>
  </g>
</svg>