<?xml version="1.0" encoding="UTF-8"?>
<svg id="Layer_2" data-name="Layer 2" xmlns="http://www.w3.org/2000/svg" viewBox="0 0 69.09 206.98">
  <defs>
    <style>
      .cls-1 {
        fill: #84ee43;
      }

      .cls-2 {
        opacity: .65;
      }

      .cls-2, .cls-3 {
        fill: #adfe7d;
      }

      .cls-4 {
        fill: #67d133;
      }
    </style>
  </defs>
  <g id="_Шар_1" data-name="Шар 1">
    <g>
      <path class="cls-1" d="M57.27,29.27c-26.25,18.38-24.8,76.1-19.96,97.29,2.97,12.98,8.78,43.23,7.19,62.71-1,12.31-4.95,20.32-14.45,16.94-13.31-4.74-1.37-71.92-.77-88.74.61-16.81,3.19-53.74-6.71-77.93C18.06,28.52-3.22,22.16.41,11.1c.35-1.08,1.2-2.11,2.45-3.07h0C13.04.17,49.96-3.29,64.56,4.03c8.79,4.41,3.91,17.4-7.29,25.24Z"/>
      <path class="cls-4" d="M44.5,189.27c-1,12.31-4.95,20.32-14.45,16.94-13.31-4.74-1.37-71.92-.77-88.74.61-16.81,3.19-53.74-6.71-77.93C18.06,28.52-3.22,22.16.41,11.1c.35-1.08,1.2-2.11,2.45-3.07-.11.35-2.72,9.25,10.74,13.22,13.72,4.05,17.5,17.04,17.5,32.33s1.71,86.1-1.38,103.89c-3.08,17.79-2.02,36.15,4.82,40.44,6.83,4.28,9.96-8.64,9.96-8.64Z"/>
      <path class="cls-3" d="M28.09,178.67c.08,1.03-.56,18.75,9.73,20.44,2.44.4,3.68-2.25,3.98-2.95.98-2.27-6.87,2.97-11.04-8-1.77-4.66-3.15-15.45-2.67-9.49Z"/>
      <path class="cls-2" d="M41.88,4.76c-11.06,6.36.96,3.63,2.62,8.59,1.66,4.96-5.49,18.25,5.24,10.59,10.73-7.67,14.82-17.91,9.2-19.18-5.62-1.27-12.74-2.49-17.06,0Z"/>
    </g>
  </g>
</svg>