<?xml version="1.0" encoding="UTF-8"?>
<svg id="Layer_2" data-name="Layer 2" xmlns="http://www.w3.org/2000/svg" viewBox="0 0 283.98 154.17">
  <defs>
    <style>
      .cls-1 {
        opacity: .65;
      }

      .cls-1, .cls-2 {
        fill: #adfe7d;
      }

      .cls-3 {
        fill: #74ed26;
      }

      .cls-4 {
        fill: #67d133;
      }

      .cls-5 {
        fill: #73de42;
      }
    </style>
  </defs>
  <g id="_Шар_1" data-name="Шар 1">
    <g>
      <path class="cls-3" d="M276.08,28.29c-3.78,4.78,5.22,24.25,4.3,35.01-.43,5.15-3.14,8.3-10.59,6.9-9.8-1.85,2.54-27.73-5.23-32.45-7.78-4.71-25.5-5.41-28.05,7.31-2.56,12.71,17.16,60.32,5.22,75.51-7.19,9.14-21.23,9.08-23.33-5.32-.12-.83-.21-1.67-.27-2.54-1.1-13.2,3.37-30.61,5.57-45.04,1.74-11.37,2.07-20.89-2.78-25.07-6.73-5.81-13.67,1.51-13.1,29.45.12,5.92-.42,10.56-1.41,14.11-.57,2.05-1.29,3.74-2.11,5.1-4.45,7.37-11.9,4.98-15.15-1.53-4.92-9.86-3.44-41.06-12.33-44.67-8.89-3.61-6.42,16.77-19.52,19.57-19.45,4.15-22.22-25.37-31.09-14.49-.01.01-.01.02-.01.02-8.89,10.95,0,29.37,2.22,49.04.79,6.97,2.33,15.25,3.35,23.25.58,4.53,1,8.97,1.01,13.03v.05h0c.03,8.97-1.91,16.04-8.32,18.06-14.44,4.54-19.15-18.61-13.15-39.99,6-21.39,5.11-59.92,0-65.1-5.11-5.17-15.11-8.15-25.1,0-10,8.16-20,8.71-23.33-7.11-2.84-13.5-14.92-16.85-18.98-10.16t0,.02c-.71,1.15-1.17,2.6-1.31,4.34-1.56,19.55-1.42,31.07,2.63,49.09.88,3.92,1.6,7.72,2.04,11.26.49,3.87.66,7.44.39,10.55,0,.02,0,.04-.01.06-.02.23-.05.46-.07.69,0,.04-.01.09-.02.14-.8,6.61-3.81,10.93-10.36,11.3-13.49.75-8.85-21.71-6.63-34,2.22-12.29,12.32-55.31,4.54-51.81-7.78,3.51-9.33,7.84-17.11,9.79C11.55,44.27,1.29,34.43.1,22.52c-.03-.35-.04-.6-.05-.74H.05c-.01-.09-.01-.13-.01-.13-.14-2.21.05-4.48.63-6.76.88-3.44,2.14-6.09,4.04-8.13h.01C10.19.84,20.89.01,42.58.01,71.76.01,141.75,5.41,171.74,3.82S220.18.01,236.51.01s42.26-.72,45.85,9.1c3.89,10.63.02,13.12-3.84,16.63h0c-.84.77-1.68,1.59-2.44,2.55Z"/>
      <path class="cls-5" d="M278.52,25.74c5.68-21.57-22.03-11.15-26.73-18.98-4.7-7.82-37.12-5.82-46.79,12.07-9.67,17.9-35.13,7.88-44.58-3.43-9.44-11.3-28.11-5.05-35.45,6.25-7.33,11.31-26.59,3.85-44.58-12.37C62.43-6.91,6.07,5.62,4.72,6.76,10.19.84,20.89.01,42.58.01c7.4,0,17.42.35,28.75.84h.01c33.35,1.45,78.02,4.16,100.4,2.97,21.76-1.15,37.45-2.64,50.66-3.36,4.99-.28,9.63-.45,14.11-.45,16.32,0,42.26-.72,45.85,9.1,3.89,10.63.02,13.12-3.84,16.63Z"/>
      <path class="cls-4" d="M47.54,107.38c-.8,6.61-3.81,10.93-10.36,11.3-13.49.75-8.85-21.71-6.63-34,2.22-12.29,12.32-55.31,4.54-51.81-7.78,3.51-9.33,7.84-17.11,9.79C11.55,44.27,1.29,34.43.1,22.52c-.03-.35-.04-.6-.05-.74.03.24.1.81.24,1.59.78,4.37,3.73,15.4,13.23,12.31,11.78-3.84,20.58-14.88,24.93-8.22s-10.79,66.57-6.03,78.89c4.49,11.63,14.03,6.71,15.12,1.03Z"/>
      <path class="cls-4" d="M47.25,95.94c.49,3.87.66,7.44.39,10.55v-.14c0-1.23-.15-5.07-.39-10.41Z"/>
      <path class="cls-4" d="M132.78,135.54c.03,8.96-1.91,16.03-8.32,18.05-14.44,4.54-19.15-18.61-13.15-39.99,6-21.39,5.11-59.92,0-65.1-5.11-5.17-15.11-8.15-25.1,0-10,8.16-20,8.71-23.33-7.11-2.84-13.5-14.92-16.85-18.98-10.16.23-.62,3.64-9.18,12.35-7.33,9.04,1.92,8.16,29.18,18.14,27.59,9.99-1.59,10.08-10.61,23.78-14.99,13.69-4.38,23.28-.82,19.99,33.15-3.28,33.97-11.64,66.1-.82,73.96,10.64,7.73,15.28-7.55,15.44-8.07Z"/>
      <path class="cls-4" d="M131.77,122.45c.58,4.53,1,8.97,1.01,13.03l-1.01-13.03Z"/>
      <path class="cls-4" d="M204.3,91.26c-4.45,7.37-11.9,4.98-15.15-1.53-4.92-9.86-3.44-41.06-12.33-44.67-8.89-3.61-6.42,16.77-19.52,19.57-19.45,4.15-22.22-25.37-31.09-14.49.12-.37,2.32-6.77,7.74-5.97,5.58.82,14.07,21.67,25.3,17s7.95-24.67,19.73-23.57c11.78,1.09,6.27,39.86,12.32,49.03,4.51,6.83,9.97,8.08,13,4.63Z"/>
      <path class="cls-4" d="M220.92,42.6c-6.73-5.81-13.67,1.51-13.1,29.45.12,5.92-.42,10.56-1.41,14.11,0-.02.01-.04.01-.06,1.32-8.81-7.45-37.27.5-46.04,7.94-8.76,18.35-6.52,19.45,5.23.39,4.19-.94,12.71-2.67,22.38,1.74-11.37,2.07-20.89-2.78-25.07Z"/>
      <path class="cls-4" d="M280.38,63.3c-.43,5.15-3.14,8.3-10.59,6.9-9.8-1.85,2.54-27.73-5.23-32.45-7.78-4.71-25.5-5.41-28.05,7.31-2.56,12.71,17.16,60.32,5.22,75.51-7.19,9.14-21.23,9.08-23.33-5.32-.12-.83-.21-1.67-.27-2.54,3.06,9.83,11.62,14.45,19.47,5.42,7.86-9.04-9.32-75.88-3.84-83.27,5.48-7.4,24.93-4.29,30.41,0,5.48,4.28,2.46,23.56,5.2,28.21,2.74,4.66,8.05,7.03,11.01.23Z"/>
      <path class="cls-1" d="M37.08,86.16c-1.98,18.51,4.46,26.53,6.82,15.06,2.36-11.48-5.45-27.85-6.82-15.06Z"/>
      <path class="cls-1" d="M118.71,124.98c-.23,12.43,9.04,24.28,10.14,10.5,1.1-13.79-9.86-25.56-10.14-10.5Z"/>
      <path class="cls-1" d="M120.91,108c-.79,5.15.62,7.94,2.91,3.56,2.29-4.38-1.82-10.68-2.91-3.56Z"/>
      <path class="cls-1" d="M198.28,75.55c-3.01,11.34,5.24,16.36,6.68,6.44,1.46-10.05-5.14-12.24-6.68-6.44Z"/>
      <path class="cls-1" d="M221.99,94.02c-5.94,15.07-2.6,29.87,4.45,22.47,7.05-7.4-.58-32.31-4.45-22.47Z"/>
      <path class="cls-2" d="M144.35,54.58s9.11,12.75,17.35,5.18c3.56-3.27,5.36-7.76,5.36-7.76,0,0-7.03,6.81-10.94,6.84-8.42.08-11.77-4.26-11.77-4.26Z"/>
      <path class="cls-2" d="M272.57,65.77c2.45,3.46,5.49,1.7,6.96-1.1,1.48-2.8-.24-2.55-2.44-.97-2.2,1.58-6.86-1.23-4.52,2.07Z"/>
      <path class="cls-2" d="M31.51,97.12c.24,6.37-1.37,11.74,6.36,15.84,7.73,4.1,9.68-5.57,9.68-5.57,0,0-3.81,8.87-10.83,1.88-7.02-6.99-5.2-12.14-5.2-12.14Z"/>
      <path class="cls-2" d="M187.54,62.53c.11,1.66,1.28,23.09,6.56,27.27,5.28,4.18,10.21,1.46,10.21,1.46,0,0-5.17,6.77-11.06-.15-5.89-6.92-5.71-28.58-5.71-28.58Z"/>
      <path class="cls-2" d="M3.45,21.78c-.45,8.6,4.29,12.81,13.7,8.62,9.41-4.19,5.38-13.05,0-8.62-5.38,4.43-12.96-14.18-13.7,0Z"/>
      <path class="cls-1" d="M72.97,40.95c-2.2,4.62.34,10.27,9.41,4.97,9.07-5.3,10.08-15.15,4.71-10.56-5.38,4.59-10.55-1.92-14.12,5.6Z"/>
      <path class="cls-1" d="M242.99,23.64c-9.37,2.21-15.49,11.54-8.75,8.4,6.74-3.14,17.84-3.16,23.55-1.64,5.71,1.52-6.75-8.66-14.8-6.76Z"/>
      <path class="cls-4" d="M222.4.46c-14.68,1.57-19.32,6.66-33.12,8.69-16.82,2.48-39.67-5.12-47.29-4.06-7.62,1.06-18.14,4.47-31.28,1.67-12.97-2.75-38.72-5.83-39.37-5.91,33.35,1.45,78.02,4.16,100.4,2.97,21.76-1.15,37.45-2.64,50.66-3.36Z"/>
    </g>
  </g>
</svg>