<?xml version="1.0" encoding="UTF-8"?>
<svg id="Layer_2" data-name="Layer 2" xmlns="http://www.w3.org/2000/svg" viewBox="0 0 704.82 672.12">
  <g id="Layer_1-2" data-name="Layer 1">
    <g>
      <path d="M335.95.05l.51,2.01,1.46-.07,1.44-1.98c10.47,4.71,24.3,1.65,32.24,10.92l24.35-5.88c1.13,2.77-3.83,1.64-1.98,3.97.11.14,1.31.07,1.88.67.7.74,1.11,2.29,1.78,2.41,3.95.71,7.92-4.08,10.77-4.12,4.32-.07,15.04,3.09,20.4,3.81,3.23.43,7,.85,10.15.26l-2,1c-.4.48.91,1.5,1.74,1.75,5.22,1.6,16.22,3.4,21.88,4.12,9.78,1.25,18.61.88,28.38.13-.67,2.77-7.04-1.24-5.99,2.99l12.99,1-2.99-3.99c17.54.14,34.23,6.96,51.99,5,.47,3.63-10.23-.39-7,2.97,2.07,2.15,7.38-.07,9.49.02,9.15.38,14.22,9.33,24.5,5.01l-.99,2.98,9.99.02-3.99,1.98c3.43.46,8.16-.69,11.36.15,5.84,1.53-5.72,3.26-5.36,4.85,2.9,0,7.4.63,9.38-1.97.64-.84-.05-4.75,4.04-4.09,2.24,4.63,8.03,4.94,12.49,6.17l.09,3.91c2,.18,4.52-.49,6.38.15,1.23.42,1.27,2.23,2.42,2.81,8.15,4.06,16.96,5.63,25.45,7.3,7.23,1.42,14.74,2.23,21.99,3.76,1.51.8,12.17,16.89,12.61,18.75.73,3.05-1.79,4.01-1.67,5.57.07.99,5.84,11.3,6.85,5.17,0-.57-4.22-1.75-4.85-4.19-1.71-6.54,4.42-1.05,5.48-.46,3.79,2.1,6.31.63,5.36,7.14,20.13-2.5,15.7,7.19,14.89,21.89l-42.89,8.11c-.78,3.23,3.03.87,1.84,4.32-4.03,5.14-6.48,8.27-8.55,14.46-2.19,6.54-1.46,11.57-2.48,16.43-18.32,87.6-32.23,175.88-50.51,263.58-3.37,16.17-4.41,29.92-13.86,44.14-.91,1.37-2.35,2.33-3.42,3.57,11.32,6.05,7.9,21.17,6.97,31.99-1.44,16.79-3.44,28.25-10.46,43.54-1.37,2.98-5.37,7.84-6.03,10.03-.5,1.65.75,3.28.42,3.79-.48.74-14.08,6.99-15.94,7.62-9.17,3.1-19.62,2.35-29.01.06-4.32-1.05-11.67-5.67-15.23-5.33-4.82.47-18.17,6.44-23.41,8.62-16.2,6.73-31.71,15.36-48.32,21.19-.29,1.49,3.98.82.98,2.47-8.63,4.75-20.4,7.86-29.67,12.34-4.34,2.1-8.96,5.45-13.3,7.7-4.83,2.51-19.92,8.41-22.76,10.74-.82.67-7.23,15.63-9.45,19.05-4,6.14-21.71,24.6-28.13,26.96-.78.29-15.17,2.82-16.18,2.81-5.44-.07-20.73-3.11-26.77-4.31-14.22-2.82-28.18-7.79-42.44-10.56l-2.28-3.21,9.99,1.99c-1.7-4.31,3.67-4.27,7-4-2.94-3.88-9.65-3.68-14-6.01l2.51-1,.48-1.98c-39.35-5.9-76.38-21.65-115.17-30.33-16.23-3.63-34.54-1.46-45.52-17.48l-12.31-2.18,1.99.99c.09,1.79.51,2.12-1.48,2-3.44-.21-7.47-1.58-11.03-1.99-2.62-.3-19.2.58-13.48-5.51,1.41-1.5,6.73-2.89,8.89-4.11,5.69-3.23,11.19-6.94,16.98-10.03-.92-11.96-1.09-26.6,2.94-38.05,1.54-4.39,7.15-11.11,7.94-14.05,1.28-4.73-1.51-8.82.25-13.25-4.99.64-3.24-3.45-4.92-5.6-1.03-1.32-6.51-2.96-8.08-4.92-4.45-28.27-8-57.34-11.01-85.99-.64-6.05-.38-13.04-1.01-18.99-6.47-61.08-13.4-122.04-21.12-182.88-1.85-14.54-5.49-29-5.88-43.63-8.6,3.76-10.35-19.03-14.14-21.92-.29-.22-5.83,1.42-6.77-1.7-.62-2.04,3.65-15.08,3.61-19.08-.03-2.84-6.75-8.45-9.4-9.08C15.41,114.1.29,115.85,0,109.58c-.11-2.33,3.77-14.08,4.72-17.29.41-1.38.23-2.85.24-4.25,12.76,3.78,23.98-2.55,35.99-5.5,80.7-19.8,164.9-32.88,245.01-54.99,13.4-3.7,26.72-8.11,38.66-15.34,4.61-2.79,10.86-5.28,9.32-11.67l2-.49ZM359.96,10.03c-1.82-2.82-15.68-5.24-18.02-4.59s-5.01,4.45-6.96,6.13l2.98,3.46-8.24.23-24.75,11.77c3.68-.5,9.49-1.2,12.75-2.7,2.77-1.27,6.28-5.89,11.14-6.73.79-.14,5.28-.14,5.1,1.42l-10.99,4.52c-.15.77.91.6,1.5.51,7.89-1.22,22.24-5.34,30.27-7.73,2.1-.63,4.66-1.18,6.22-2.78l-5.99-.5,4.99-3ZM405.95,14.04c-2.24.24-5.29-.54-7.34.15-1.87.64-2.03,3.95-4.35,4.65-2.57.78-6.44-.1-9.58.42-8.24,1.39-18.8,5.47-26.74,8.08-3.52,1.16-8.66-.06-10.59,4.72l-2.4-1.02c2.6.48,1.5-2.37,2.65-3.04,3.51-2.06,23.46-8.04,28.35-9.26,3.34-.83,7.54-.3,10.98-1.72.18-1.95-2.12-.73-3.22-.66-8.78.48-16.89,1.78-25.26,4.69-1.87-1.18,2.26-4.58-.99-4l-202.28,46.73-5.24-.73,15.99-3.02c.26-1.73-2.34-1.04-3.38-.89-11.66,1.72-25.23,5.34-36.82,8.19-9.85,2.42-19.43,7.23-29.79,6.72l7.99,1.49-10.99,4.49c6.15.66,11.82-2.12,17.51-3.97l.48,1.97-13,3.02,4.99,1.98-11.34,1.98c-.94,3.93-2.73,4.1-6.65,4.02-.74-1.51,6.88-2.21,2.6-2.91l-12.6,3.91,15.33,2.06c4.37-9.38,3.92-1.18,6.89.23,2.4,1.14,6.98.95,9.78,1.71-2.8-2.16-1.12-6.74,2-5.49l-1.99,2.5,6-.98.49,3c.42-2.96,1.94-3.73,4.5-5.01.6.74-3.33,8.01.49,7.99,2.65-2.65,1-8.81,6.51-7.98l-2.99,5.99,5.98-1.99c-.35,2.37-5.59.76-3.99,4.48.92,2.14,9.55,1.51,11.3.5,5.65-3.25,12.3-2.28,19.13-5.04l1.93,2.06,43.63-11c.24,1.47-1.74,1.33-2.79,1.68-7.27,2.47-34.01,7.48-37.75,11.26-.94.95-1.79,1.52-1.44,3.05l23-2.99-1.03,1.99,3.02,2c-2.19-.13-6.07.71-7,2.99,9.86,2.97,19.98,4.9,29.94,7.57,5.84,1.56,9.89,3.32,15.2,4.8,3.92,1.09,28.91,6.1,31.31,5.65,1.82-.34,4.87-3.36,7.55-4.48,43.28-18.08,96.53-28.89,141.98-42.02,15.75-4.55,31.07-10.54,47-14.51.25-1.77-2.25-.98-3.26-.76-9.68,2.1-20.05,6.56-29.74,9.27-12.94,3.62-32.87,10.06-45.62,11.38-1.11.11-3.6.9-3.37-.87,35.18-6.27,68.77-18.64,102.94-28.56,13.49-3.92,25.83-7.53,39.03-12.97,4.7-1.94,11.52-5.3,15.02-8.47-3.46-.22-7.03.29-10.49-.02-9.34-.85-29.4-6.05-37.04-5.52-3.84.27-17.93,5.84-23.26,7.25-15.22,4.04-30.52,8.47-45.79,12.21-6.01,1.47-12.22,3.21-18.42,3.06l68.99-18c.22-1.83-2.13-.86-3.22-.72-13.82,1.77-29.97,6.5-43.29,10.72l-.48-1.97,54-12.02c.21-2.64.1-1.65-1.52-1.96-7.43-1.39-30.78-5.78-36.78-4.83-1.54.25-2.58,1.88-4.19,1.8l-2-2.02c-.34,4.35-3.74,4.58-1.51.02l-3-.02-.17,4.84-2.82,1.16-1.02-7-6.98,1.99.99-3.99ZM525.95,26.05c-7.52-.22-14.72-2.84-22.2-3.33-.79-.05-3.86-1.19-3.78.82.1,2.39,19.67,3.62,22.49,3.5,1.22-.05,3.71.77,3.48-.99ZM541.95,36.05c-1.48-.28-2.63-.99-4.25-.81-5.3.61-21.46,5.66-27.55,7.49-36.9,11.12-73.22,26.16-110.22,36.78-18.55,5.32-38.2,8.05-56.97,14.03-19.48,6.2-38.43,12.69-57.79,18.19-6.7,1.9-18.64,6.21-24.89,9.12-1.53.71-3.75,1.39-4.32,3.17,6.23,3.08,11.57-4.01,17,.52l-1.99,1.48c4.17-.39,10.31,3.21,13.95,1.5,7.48-3.52,11.89-1.54,19.34-5.24l11.7,4.26-14.99,3.5c.92,1.86,7.75,3.06,9.45,2.95,5.84-.4,9.7-7.45,11.23-7.82,1.37-.34,4.27.99,6.73.83,3.86-.25,2.89-3.65,6.59-2.96-2.52,7.17-4.18,5.35-8.95,7.58-1.94.91-3.04,2.92-3.37,3.07-8.77,4.05-17.88.37-27.19-.66-16.64-1.84-32.27-4.32-48.27-7.72-8.02-1.71-19.25-5.58-27.02-6.06-3.21-.2-6.98,1.88-8.57,1.55-1.23-.25-3.05-2.94-6.36-3.54-25.57-4.63-52.06-6.97-77.78-12.22l-8.48.97c15.79,4.13,31.92,7.4,47.97,10.53,47,9.18,94.43,16.57,141.23,26.77,7.7,1.68,31.53,9.78,37.27,8.73,1.14-.21,2.04-.42,2.44-1.65,2.68-8.31-14.45-11.72-19.84-13.44l-.09-3.92,9-2c.03,1.55-.35,3.36,1,4.52.52.44,11.7,5.62,12.38,5.53.53-.07,5.38-6.42,9.14-1.06l1.49-1.49-1.99-.99,42-16.49c-6.21,4.7-14.46,8.48-21.64,11.85-2.65,1.24-5.64,2.57-8.34,3.68-1.53.62-3.7.07-4.79.7-.26.15-3.62,4.52-3.75,4.8-1.08,2.29.12,3.75.54,5.97l7.98-1.99-5.97,3.53-4.03.46c-1.13,1.07,4.28,6.91,5.36,7.7.84.62,2.49.15,2.65.3.65.6-2.79,4.59.5,4.01,2.6-.46,6.42-2.78,9.29-3.72,9.4-3.1,19.45-6.1,29.2-7.28l-1.53,1.98c21.79-2.65,42.34-10.48,63.52-15.5,68.99-16.35,139.24-27.62,208.01-44.5l-8.24-13.77c-5.22-5.27-34.45,9.33-39.26,14.76-3.56-2.29,4.91-6.04,6.83-7.15,6.89-3.99,12.82-5.53,19.67-8.33,3.37-1.38,6.35-3.79,10-4.51-1.48-4.18-5.17.36-6.98-2.49l1.47-3.51-27.48,8.01c-1.77-1.51,3.79-3.7,4.47-4.01,3.6-1.67,20.56-4.41,17.52-8.97-6.7-1.61-13.59-2.19-20.41-3.13-1.28-.18-2.38-1.4-3.11-1.46-2.21-.18-10.54,2.63-13.03,2.68-2.17.04-.5-2.68-3.7-1.94-5.46,1.26-5.52,6.64-10.76,5.82l1.02-1.98-11,4,2.99,1.97-65.99,23,8.64-4.85c20.66-8.52,42.54-13.77,62.03-24.97,1.51-.87,11.47-7.53,11.86-8.14.67-1.03.51-1.91.47-3.03-5.66.87-16.42-5.38-21.55-4.61-1.03.15-3.75,4.11-5.45,2.6-2.13-1.89,3.5-1.7,2-3.99l-20-3,1,2.98c-2.36.12-4.14-1.86-6.49-1.86-5.19,0-46.52,22.7-55.14,26.73s-17.9,8.58-27.35,11.13l22.72-10.76c12.31-9.89,27.96-14.62,41.52-22.54,4.88-2.85,10.4-7.34,15.76-7.7.74-3.98-5.07-.87-7.5-.91s-4.64-1.31-6.92-1.09c-2.66.26-13.56,6.37-17.32,7.77-1.7.63-3.37,1.42-5.26,1.23l6.67-5.82,10.32-5.16ZM57.72,83.3l-17.76,2.72,23.99,3-6.24-5.72ZM3.96,109.04h16c-1.4-2.42-8.18-1.53-9.52-3.96-.39-.71.7-2.06.33-2.8-.14-.28-1.66-.31-2.13-1.44-.81-1.98-.74-4.19-.68-6.29,6.43-2.39,2.73,6.6,4.49,9.51,1.04,1.72,7.21,2.78,9.27,3.73l61.73,9.27.52-3.02,1.36.12,220.18,45.86.46-2.97c4.14-.49,7.95.61,10.99,3.5l-1.99,1.48c6.69,2.48,18.94,2.58,24.74,5.79,1.94,1.07,2.37,3.27,4.64,4.3s4.88.49,6.6,2.43l-2.99,1.01c1.41,7.69,8.24,5.36,13.07,6.93,2.13.7,3.3,3.34,5.45,3.56,1.9.19,8.33-1.67,10.7-2.29,25.91-6.72,48.06-18.96,75.02-21.88,5.79-.63,16.05-5.05,22.56-6.54,22.87-5.23,45.88-9.64,68.63-15.37,13.58-3.42,27.89-8.78,41.32-11.69,1.01-.22,3.51-1.01,3.26.76l-36.99,10.02c-.17,1.78,3.37,1.06,4.47.97,16.29-1.31,33.18-6.28,49.52-7.99l-4.99-1.98,88-18.02c.7-.8-1.69-5.32-3.51-5.02-57.85,7.65-115.51,17.47-172.31,30.7-26.09,6.08-54.77,12.44-80.38,19.62-18.8,5.27-37.21,12.67-56.12,17.68l-.67,3.04-3.99-1,.99,3.99c-3.35.89-2.57-1.26-3.68-2.01-.96-.65-3.06-.78-3.29-1.07-.32-.41,1.15-2.03.09-3.45-2.56-3.45-9.46-6.11-12.65-8.45l.02-11-5.48,2.5,3.97,1.99-4.48,5.49.5-5.97c-7.78-.65-16.1-.21-24-2.02l5-2c-.44-1.4-2.01-2.61-3.29-3.2-13.46-6.3-40.43-8.74-55.92-12.08-57.03-12.29-114.43-23.9-171.59-35.41-18.27-3.68-38.04-3.02-55.45-6.55-1.03-.21-8.94-3.07-4.24-2.78,12.23.74,27.65,2.48,39.86,4.16,12.9,1.78,25.4,5.41,38.1,7.88,2.45-2.54-3.25-1.52-1.47-4,.38-.53,3.68,3.03,3-1-14.82-1.09-29.18-5.41-43.76-7.75-13.35-2.15-29.21-5.32-41.85-3.35-8.15,1.27-15.29,2.89-23.38.09l-4.02,18.01ZM680.71,96.24c-56.29,12.37-113.66,20.91-169.76,34.29-19.17,4.57-34.66,10.73-52.77,16.23-10.99,3.34-23.09,3.34-34.44,5.56-5.26,1.03-50.58,11.41-50.75,14.22,1.58,2.22,2.94,5.76,6.19,5.33,18.8-5.7,37.55-12.66,56.57-17.54,52.44-13.45,107.74-26.03,161.01-35.99,29.84-5.58,66.76-8.22,95.04-15.96,2-.55,4.1-.78,5.7-2.3l-.51-2.54c-3.99-2.55-8.32.3-10.5.1-1.23-.11-3.41-2.78-5.76-1.39ZM166.95,100.05c-1.07-.71-10.54.59-7.99,2.99l4.99-.99-1.01,2.51,9.01,1.48c.19-3.54-4.56-3.63-6.98-4.01l1.99-1.98ZM193.95,109.05l-19.99-4,6.76,2.73c3.47-.08,6.68,1.48,9.99,2.02,1.06.17,3.48,1.05,3.24-.74ZM101.95,166.03c-1.95-12.42-2.23-24.97-2.05-37.56.05-3.19,2.55-5.77-2.94-5.43,1.9,9.66.65,19.66,1,29.48.06,1.66.92,3.27,1,5.01.11,2.4-2.01,5.1-.09,7.91l3.08.58ZM287.96,129.03c5.58-.4,12.34,1.49,16.97-2.49-2.03-3.06-4.05.2-6.53.45-2.96.3-6.17-.31-8.97.05-1.46.19-3.09.77-1.48,2ZM35.94,138.03c1.66-3.74.69-7.02-2.97-9-.62,1.1.29,11.56,2.97,9ZM136.95,130.05l-5.99-1.01c1.45,15.27,1.84,30.84,5.18,45.87l2.77.15c.78.76-3.37,13.15,2.03,13.97l.9-13.43c-8.74-3.61-2.55-6.74-2.88-14.04-.29-6.46-1.16-16.58-2.09-22.94-.34-2.33-1.14-4.46-2.9-6.1l-.02-1.48,3-.99ZM57.95,135.03c-1.74.06-2.1-.67-1.77,1.26,1.46,8.78,2.66,17.41,3.79,26.25.17,1.36.69,3.18,1.99,1.49l-4-29ZM76.27,136.72c-.56-.39-.11-2.9-1.32-1.18,1.54,14.51.14,29.34,2.25,43.76.13.87.45,3.01,1.74,2.73l-1.98-19.99,3,11.48c1.36,1.64,1.07-1.19,1.02-2.02-.55-9.72-2.46-19.44-4.1-29.04-.35-1.58,1.85-1.32,2.07-2.07,1.28-4.3-1.41-2.79-2.68-3.67ZM71.96,162.04v-25l-1.11,1.87-1.88-.87c.98,2.84,1.99,4.34,1.99,7.5v16.5h1ZM38.94,138.04c-1.28-.89-4.64,2.23-3.61,4.02l11.61,23.97c-.3-9.81-3.64-19.28-8.01-27.99ZM175.96,246.04c-.92.16-2.04-.12-3,0l.61,2.27-1.61,11.72v-15c-3.18.45-14.02-5.81-15.87-2.86l-1.12,4.86c-.05-3.95-.25-7.98-.5-11.91-.12-1.89-.72-2.3-2.51-2.08l1.98,25.99c-1.06.4-1.99-3.29-1.99-3.49v-16c0-1.21-6.95-2.03-4.5-4.5l3.5,1.99c1.61-5.03-4.21-5.96-5.43-7.97-.5-.83.91-2.44-.98-4.06-.99-.85-6.01-2.57-6.58-1.96l-.04,3.48c.13.83,6.73.52,7.04,3.51-13.01-.53-7.66-7.94-9.39-15.05-.47-1.92-2.48-1.84-2.63-2.63-.57-3.01,1.75-5.56.58-9.34-.79-2.54-4.24-4.95-4.58-7.96l-1,5.99c-1.64.21-1.14-2.37-2.49-2.99-2.13-.99-2.27.68-2.99,2-.76-.29-4.51-10.88-4.51-11.5v-19.5l5.91,14.48c-1.11,4.27-3.29,6.9-1.91,11.52,2.27.75,3.09-3.63,3.48-5.01.88-3.1,3.33-10.87,3.57-13.44.11-1.16-.13-2.39-.07-3.55l-1.48,2.99-2.49-5.99c.22,1.99-.44,4.48,0,6.34.08.35,5.4,2.05-1,3.65l-4.02-41.99c-2.83-.63-2.08,1.41-2.02,3.53.28,9.86,3.02,20.49,3.03,30.46l-1.1-4.93-2.78-.12-1.12-18.43-1.98-9.5,1.98,31.99-2.98.49c4.21,7.93,3.88,19,3.99,28.01l-2.99-4.49c-1.23,11.96.62,25.44,3.27,37.22,2.78,12.41,9.73,23.87,9.71,36.78-2.03,2.81-2.21-15.27-4.98-15l2.98,39-1.51-.98c-1.7-17.23-.95-37.32-6.21-53.84-.54-1.69.43-2.63-2.27-2.18l7.01,52.48-1.91-2.09-6.09-38.39c.2,5.78-.37,11.66.13,17.43.54,6.29,2,15.45,2.91,22.01.73,5.29,4.81,10.36.93,15.55l-1.99-.49c-.42-2.6.63-6.5.03-8.8-.26-.98-2.18-.88-2.82-2.37-1.15-2.7-2.55-13.78-2.15-16.77.24-1.84,1.74-3.24,1.82-5,.18-4-3.05-11.64-2.35-16.57-2.58-2.25-1-.12-1.08,1.03-.47,6.47-.66,13.02-1.43,19.5-.18,1.49-.79,3.07-2,1.48,2.99-22.26.02-44.74-2.01-66.99-10.74,5.19-10.37-3.06-9.99-11.52.05-1.22-.76-3.72.99-3.48l2.04,14.98,6.04-1.57-3.08-18.42-2.94.04c-.09,1.8-.45,4.39-3.05,3.95,1.51-2.46-.16-5.37.22-7.23.19-.96,1.53-1.93,1.78-3.35.45-2.52-1.03-6.47,0-9.4l-3.99,2c-.27-4.51-1.12-9.09-2.04-13.5-.36-1.73,1.1-2.98-1.97-2.49l4.9,23.93-2.97.61,1.06,15.45c-.98,0-1.48-.89-1.74-1.75-2.54-8.28-.72-20.64-1.26-29.75s-3.31-18.79-2-28.5c-5.83-1.2-4.14,9.21-3.99,13.49,1.34,37.14,3.52,74.93,7,112,.71,7.53,3.03,14.89,2.98,22.51l-3.98-17.51-6.21-84.79-1.78-1.69-4,4.98c-.64-2.91-1.23-6.41-2.1-9.21-1.25-4-1.36-4.25-2.18-9.01-.17-.98-1.52-5.41-2.72-5.77-.04,2.47,2.72,16.06-2.49,14.99-2.32-.48-1.68-4.72-3.51-4.99,1.14,3.17-3.7,4.49-3.81,5.45-.09.76,1.8,3.75,1.81,6.03,0,2.11-1.1,4.42-1.11,7.01,0,2.32.83,4.43.83,6.73,0,.7-.38,5-1.72,4.77.35-8.69-1.6-17.35-3.87-25.65-.73-2.67-1.21-2.26-1.17.17,4.91,29.53,9.09,59.19,12.03,88.99,2.49,25.2,2.41,53.01,7.09,77.91.58,3.1,7.51,12.84.92,9.59-.64.89,1.11,9.01,1.94,10.3.88,1.37,4.83,1.71,2.54,4.71l-3.5-.5c3.5,31.29,10.79,62.09,13,93.48-2.52-1.47.75-7.12-2.98-7.99-.68,5,1.44,9.67,1.97,14.52.48,4.36.76,25.9,3.74,27.5,5.65.43,13.66,4.63,18.87,4.96s2.11-3.9,2.32-7.5c.52-8.9,2.42-17.95.18-26.87l1.9-12.61v47.5l9.01,2.99c.26-1.74-1.95-2.25-2.44-3.45-2.56-6.33-2.55-15.6-3.17-22.17-.94-9.9-2.78-20.97-3.38-29.41-.48-6.8-1.67-13.55-1.01-20.46l3,3.49c.67-2.26-2.51-4.44-2.73-5.01-1.13-2.97,3.45-5.17,1.71-9.47l-1.98,1.99c2.24-5.04.9-8.63.98-13.99l-1.98,6.99-2.82-66.4,1.8-1.6.02,10,1.85-1.67.64-57.32c1.66,1.14,1.44,2.73,1.56,4.44,1.01,14.53-.16,30.02.96,44.55,4.66-6.35,8.92,7.96,9.04,11.53s-2.42,6.75-2.06,10.46l-7.01-3.01v-10.98c-2.22.6-1.94,2.73-2.07,4.5-.56,7.99,8.88,19.6,5.15,28.96.93,1.79,2.75.3,3.82,2.06,1.01,1.66,3.89,10.93-.41,8.5-1.31-2.46.91-6.73-2.47-8.02-.91,11.04,1.5,21.81,2.53,32.7,2.28,24.19,5.77,48.53,6.55,72.8.24,7.45-4.54,15.13,8.91,13.48-3.08-3.9-1.53-8.13-2.01-12.48-.67-6.19-1.19-12.8-2.07-18.93-.44-3.05-3.1-6.45-1.43-9.57,5.65,10.27,2.71,25.4,5.73,36.27.23.83.84,1.72,1.76,1.72l1-8.99,1,11.51,23.37,4.45.64,3.05c2.93-1.49,5.68.9,8.94,1.55,4.77.94,9.84.85,14.51,2.46,1.49-2.91,2.27-5.8,2.54-9.02-7.79-.16-3.08-17.62-3.02-22.29l3-1.71c1.76,3.7-.96,5.67-1.09,9.49-.14,4.51,1.56,9.16,1.1,14.51.31,0,1.14-1.15,2.01-.54.96.68,1.63,2.98,2.94,4.09,5.19,4.41,11.14,2.69,16.05,6.95-3.73,2.33-19.2-6.18-19.99-5.5-.86.73,3.01,4.57,3.26,4.71,1.32.73,8.74.8,8.74,1.79-3.45,1.59-7.22,0-10.6-.43-1.98-.25-1.44.23-1.42,1.93,23.85,3.73,48.16,7.03,70.99,15-1.93-4.21,0-8.27-.09-11.61-.05-2-.91-3.83-.95-5.85-.15-6.83,1.4-15.51-1.46-21.53l-.5,5-2.01-.5c2.27,10.47-.33,20.97,3.01,31.48-2.98,1.24-9.99-5.63-9.99-7.49v-23.5l1.95,11.45c.67,5.62-2.24,12.64,4.04,15.55l-.11-6.88c-1.37.42-2.54.72-2.87-1.1l2.03-.67c-.3-15.37-.4-32.46.98-47.83.4-4.48,2.56-8.49,3.04-11.96.56-4.07-.9-10.15-.03-13.87.19-.81,1.81-.27,2.06-2.12,1.51-11.52-2.69-25.63-1.09-37.56l-5.98,20.99c.23-8.82-.32-17.71-.05-26.54.33-10.71.72-15.86.09-26.91-.48-8.34-.9-16.71-1.05-25.06l2-1.49,4.06,46.45c6.52,37.99,8.61,78.88,9.99,118.01.2,5.75-1.23,21.89.12,25.88.71,2.1,10.14,4.45,12.48,4.61,2.08.14,7.83-1.38,8.35-.94,2.18,1.84-3.53,1.74-1.99,3.99l10.99.99-6-3,1.5-2.97c5.16,4.3,12.23,4.03,18.47,4.96,2.04-4.53-1.71-5.08-3.97-7.97l7.99,1.99v-5.99s-1.98,2.99-1.98,2.99c.58-9.25-12.13-6.48-18.36-6.09l-4.63-4.9c-.72,3.2-5.37,7.6-8.54,8-1.97.25-1.57-.36-1.48-1.99l4-1.52-2.99-.51c.55-2.73,2.77-.79,4.26-1.2,3.12-.84,5.8-6.9,3.74-9.78l4.01,1.01c-2.5,5.36,1.47,8.86,6.93,7.88l.59-2.96c5.5-1.1,4.69,2.66,6.05,2.98,2.35.55,4.31-1.7,3.28-4.29-.69-1.74-4.01-1.13-2.86-4.62,6.12-.26,2.26,4.67,5.98,6.99.28-2.85-.69-13.4,1.02-15,2.15-1.99,1.55,2.52,2.98,1.99,2.41-15.34,1.13-30.65,2.5-45.99l.55,30.54-3.04,44.45,2-1.48,2.01-46.51c1.74-.23.94,2.27.99,3.48.27,6.61-.5,13.12-.62,19.61-.11,6.1-.36,12.26-.41,18.38,0,1.15-.66,3.77,1.02,3.51,2.9-15.78,4.24-31.93,4.02-47.99l2,19.99c4.81-4.65.29-13.57-.05-19.46-.96-16.73-.57-34.59-.97-51.03-.26-10.82.2-21.69.02-32.5l1.98,12.99,5.02-63.99c2.86-.47,1.66.6,2.13,2.31.99,3.6,1.02,6.98.87,10.68l2-6.99,1.98,2.99,3-61.99c2.2,14.89-1.25,30.5-2.03,45.46-2.83,54.16-3.64,107.91-10.08,161.92-.49,4.14-2.47,8.26-2.89,12.11s.29,19.39,1.22,22.79c.23.83,1.39,2.11,1.78,1.71l5.02-18.99,1.98,2.99,12.02-97,1.84,1.34-11.84,89.66,3.69-8.79,7.3-59.2c2.63-.36,2.05.27,1.89,2.38-.35,4.76-2.15,10.36-2.75,15.26-2.89,23.45-3.37,45.81-13.16,67.84l10.01-3.99c-3.93,3.63-9.41,7.17-14.83,7.7-.74,2.6-2.05,5.1,1.89,4.38,6.89-1.26,18.83-9.23,25.96-12.07,5.23-2.08,10.85-2.76,16.02-4.97l.97-12.53c-.45-.52-6.51,2.21-7.95,2.55-1.01.24-3.27,1.32-3.04-.54,9.03-2.19,14.23-3.22,14-14.01,2.83.92-1.04,7.98-.02,8.99l4,.99-5.55,2.03-.44,11.97c3.56-1.37,7.44-2.11,10.98-3.51,3.35-1.33,7.35-4.46,10.01-5.49-2.64.22-1.65.12-1.97-1.5-.71-3.59.91-11.1-4.08-6.83l.04,7.34h-3.98c1.4-2.64-2-6.16-1.99-6.51.01-.62,5.22-2.49,3.99-5.49l2.55,2.91,7.44-1.9c-2.64,3.38-1.89,7.9-2,11.99,58.42-22.66,110.12-46.21,166.64-72.86,3.49-1.65,21.44-8.2,22.44-9.81,1.4-2.26.72-6.92,3.92-8.84l-2.56-1.46c2.28-12.09,6.08-24.32,8.44-36.65,10.96-57.27,20.44-115.45,29.83-173.17.83-5.12,2.2-12.74,2.32-17.69.05-2.16-.22-1.91-1.55-.53l-7.5,40.01c-1.85.16-.99-3.26-.87-4.37.6-5.44,7.97-46.53,9.85-48.12.43-.36,1.62.75,2.08-.04,3.46-5.89,3.22-20.07,5.96-26.97,0-2.96-1.32-1.06-1.76.25-1.24,3.72-2.17,8.3-2.27,12.24-2.51-.92.2-8.71-3.99-7.99,1.3,3.22,2.12,8.22-.51,10.99l-2.51-9.99c-2.69-1.11-1.97,2.56-3.41,2.78l-3.44-.92c-1.54-5.35,2.79-2.58,4.37-6.87,2.38,5.49,2.33,0,3.4-1.35.84-1.07,3.1-.68,4.61-2.65.53-.69,5.28-15,5.51-16.5.09-.59.26-1.65-.51-1.5l-7.5,15.99,4.01-16.48-3.01-.52-4,17-1.06-6.44,1.95-.98-.91-5.58-3.98,5.99c.65-3.39,1.04-6.79,1.25-10.25.05-.77,1.93-2.34-.77-1.76-7.13,1.52-8.29,23.96-11.5,30.01-1.8.24-.91-2.17-.74-3.24,1.15-7.31,4.71-14.39,5.74-21.76-5.35,5.58-5.6,14.89-8.99,22,1.28-7.16,2.99-14.03,5-20.99-2.86-.53-1.63.72-2.25,2.2-3.1,7.46-5.55,15.66-5.74,23.8,1.8-.88,2.18-3.31,2.99-5-.22,1.22.16,2.71-.22,4.23-1.43,5.64-3.29,2.5-6.06,2.97-1.46.25-12.12,5.57-12.71,4.8-.42-4.18,1.93-7.88,2.97-11.53.89-3.1-2.37,1.07-1.95-1.93.93-6.61,4.65-12.91,5.97-19.53l-2.46,1.98-6.53,21,2.97-18.51-.97-8.48c-.33,7.66-2.83,14.97-3.63,22.55-.35,3.28,1.76,9.89-1.36,12.97-1.27,1.25-3.62-1.54-3.7-1.79-.58-1.81.47-4.73-1.31-4.73-.23,2.43,1.08,9.34-3,8.99.67-10.74,6.4-21.2,4.5-31.99l-7.99,33.01-1.5.99c-1.13-10.21,3.28-19.24,4.98-28.99h-3c.41.9.57,1.75.3,2.74-2.45,8.63-4.97,13.59-9.09,20.94-1.33,2.37-2.81,5.61-3.21,8.32-1.96.29-3.81-1.68-3.99-3.52-.4-4.14,3.86-19.79,4.98-25.01l-1.97-.48-5.52,28.99c-1.57,2.16-15.47,4.48-18.75,6.06-.87.42-.83,1.12-.76,1.93h-1.98c0-2.98,1.47-5.68,1.89-8.59.15-1.05.84-3.64-.89-3.38l-3.51,15.99c-1.99-1.34-1.11-2.11-.87-3.78,1.6-11.36,4.7-22.66,4.87-34.21-5.16,11.87-4,26.38-7.52,38.99-3.71.99-.28-4.05-3.99-3,4.65-6.77,7.03-25.3,7.52-33.99.39-6.91-3.42-2.71-4.85,1.17s-7.16,32.78-5.67,34.82c1.17-.18,1.86-1.68,2.99-2-.25.37.14,1.55-1,2.46-.51.41-8.63,3.83-9,3.53,6.31-11.64,8.23-26.97,9.99-39.99l-2.49,5.01-2.49-5.01-5.02,28-1.64-9.35c.86-5.14,3.38-11.02,3.66-16.16.11-2-.19-1.55-2-1.49.38,3.89-2.57,6.22-3.56,9.95-1.97,7.37-1.8,16.55-4.45,24.05-1.77.26-.99-2.26-.76-3.26,1.18-5.33,3.85-11.17,2.27-16.74-1.28,0-1.66,18.53-5.49,20.01l5.98-38c-1.69.28-1.79,1.95-2.27,3.22-3.82,10.03-4.44,23.18-6.73,33.78l-2.55-2c3.74-10.79,6.26-22.58,5.07-34l-2.52,6.99-1.98-4.99c.07,1.77.16,3.47-.28,5.23-2.01,8.11-6.49,28.26-6.76,36.33-.09,2.56,1.26,5.39,1.08,6.81-.09.66-1.84.53-2.03,1.31-1,4.02.28,12.55-1.02,17.32-2.63-1.69-.11-7.05,0-9.51.18-4.26-.37-8.82.02-12.98,1.23-13.03,5.17-25.99,5.98-39.03.13-2.04,1.03-5.27-1.97-4.48l-4.79,18.73c-1.12,5.6-2.25,23.89-4.23,27.52-.39.72-2.88,1.89-2.99,1.75l.98-5c-2.99,1.77-4.36,3.14-8.02,2.41l-.98,4.58-1-2c-3.81,1.89-1.49,6.73-1,10-4.83-1.91-1.3-6.01-2-10l-7.98,7c-.33-3.48-2.28-7.22-.02-10.52l-1.97-.48c.34,2.63-2.29,5.04-2.05,7.45.15,1.49,2.86,3.54,2.03,4.54-1.63,1.95-2.21-2.01-2.5-2.04l-4.48,2.05-1-1.99-1.02,4.99-3.43-2.09-9.04,3.09-1.11-2.04,2.58-17.95h-3.99c-1.43,1.38,4.84,17.21-2.99,16.04l1,4.94c-3.05.33-9.31,1.72-11.34,3.93-1.68,1.83-1.16,9.79-7.66,4.57l3.98-.49-1.49-3.97-38.23,10.74-4.26-3.76-.44,5.06-8.11,2.95-3.44-4.01-1.02,7.99c-1.22,1-.74-3.96-2.47-.98-1.95,3.36-5.52,16.59-5.55,20.46-.02,2.05-.59,2.93,2.02,2.52.79-2.29,4.61-12.88,6.52-12.98s.9,2.97.83,3.79c-.42,5.21-2.07,10.29-3.85,15.17-2.78,7.63-9.03,16.08-8.99,24.01l10.52-14.99c1.57-.29,1.1,1.37.81,2.3-1.72,5.35-10.37,13.37-13.32,18.68-7.84-7.34-4.1-14.89-3.51-23.49.44-6.48,1.61-17,1.06-23.04-.48-5.29-4.35-10.6-4.06-16.45l-1.97.48-.07,5.51c-3.57-1.4-7.82,1.59-9.45-3.01l-2.99,3.01-3.51-8.99v34h-1v-21.5c0-.29-.93-1.9-1.32-2.2l-5.67-3.29c.71,11.88-.21,23.66-.05,35.54.04,2.61,1.04,5.06,1.09,7.91.16,10.42.38,21.69-.05,32.06-.05,1.21.76,3.72-.99,3.48-.56-16.8-.35-33.74-.99-50.54-.28-7.46-.69-11.48-.29-18.73.25-4.48-1.14-14.94-7.58-12.87-1.54-8.81-1.48-18.28-1.95-27.36-.07-1.4.97-2.99.79-4.49-1.55.62-2.98,4.77-3.32,6.21s.2,2.46.32,3.78c-7.44-7.71-4.57-20.28-5.97-30.52-.2-1.5-.14-3.08-2.02-3.47,1.12,11.26-.34,22.32-.05,33.54.1,4.04,2.41,11.37,1.17,15.03-.5,1.49.27,1.71-2.13,1.43l-3.06-46.47,1.12-12.91-6.05-1.61,1.38,46.01,1.61,2.99v-34l2,15.43,1,29.56-2-3.99-4.98,3.99v-24s-2.02.5-2.02.5l.98-33.96c-1.11-3.59-2.94-4.51-4.72-.91,1.1,7.76,2.58,16.97,2.4,24.74-.14,6.18-.65,11.23-.61,18.1.03,5.98.2,12.09-.05,18.06-.05,1.21.76,3.72-.99,3.48l-2.02-34.99-1.98,1.99c.6-2.87-1.83-9.31,1.98-9.01l-1.98-2.5,1.98-.48-1-22.01c-1.97,1.23-2.82.2-3.01-2-.36-.29-1.69.94-1.81,1.59-.54,2.99,2.67,12.68,2.87,16.87.28,5.78-.08,12.83,0,18.99.1,7.17-.16,14.37-.04,21.54l2.98-3.99-.2,4.28-4.78,7.71c-1.99-19.64.39-39.49-3.02-58.99-2.94,1.25.01,7.32.01,8.49v33c0,.74,1.75,2.85.99,4.5-1.94.3-2.66-.77-2.98-2.51-1.57-8.68-1.27-19.01-2.07-27.93s-3.16-17.34-1.95-26.55l-2,1.48c-.41,18.21,3.19,36.58-1.01,54.52-3.66-1.09.01-4.93.01-6.5v-25c0-.25-.98-4.79-1.99-4.49l.98,14.99-3.98-1c-.49,1.83-.91,3.52-1.05,5.45-1.62,21.51,3.98,49.11,5.09,71,.66,12.96-1.46,23.72-2.09,36.01-.25,4.98,1.63,15,1.11,18.04-.4,2.31-2.37,1.92-3.03,3.28s-.61,4.53-1.05,6.22c-2.42-.56-1.21-1.73-1.3-2.8-.32-3.9-1.5-7.35,2.29-9.69-6.89-2.91-2.33-9.98-1.99-16.01.38-6.79-.26-13.7.02-20.49l1.98,1.01c-1.3-4.06,2.21-4.32,2.77-5.21.38-.61-.56-12.45-.84-14.22-3.15-19.61-5.4-39.92-8.89-59.12-.8-4.42.14-10.73-1.04-15.46-2.56-3.25-2.09,7.53-2.04,8.55.37,7.9,1.16,16.09,2.06,23.96l-2,1.48-1.94-34.38-9.06-1.61v3.99s4-.99,4-.99l2,50.99c-1.74.23-.94-2.27-.99-3.48-.54-13.17,0-26.58-2.5-39.52h-3.49c-1.09,12.38.47,24.51-.01,37l-1.98-13.5c-.19-2.74.41-12.21-.17-13.82-.11-.32-3.97-4.59-4.83-3.67-1.03,2.37.06,5.23-.26,7.22-1.55,9.63-1.93,14.8-1.44,24.99.04.78,1.28,3.77-.8,3.76s-1.74-12.98-3-14.97l-4.73,9.79-5.79,1.73.49,4.48-4.46-2.5,2.97-4.5c-3.94,1.88-2.93-.98-5.27-2.32-4.27-2.45-6.91-.79-10.28-1.13-1.19-.12-1.75-2.17-3.45-1.55l.06,5.94c3.53.34,8.63,2.09,10.94,5.05l-10.99-2.99c-.03,2.12.17,4.26-.13,6.37-.18,1.27-.41,5.44-1.87,5.62l-.91-13.41-4.1-.59.99,19-1.98-11.5v-8.5s-3,0-3,0c.55,2.01-1.01,4.99-1.01,6.51v18c0,1.1,2.03,4.29.99,6.5h-.98c.62-1.57-1.01-3.75-1.01-4.5v-23c0-.31,1.11-1.14.96-1.92l-4.02-1.07-.94-2.51c.61-.11,1.35.08,1.99,0l-1.04-6.95c-1.35-.68-7.46-.07-7.78-.3-.41-.29-.38-1.76-1.88-2.52-.75-.38-5.03-1.45-5.3-1.22l.92,5.49,9.07,2.51.99-3.01,3.01,5.99ZM468.78,139.4l-28.13,7.44.47,1.76,28.13-7.44-.47-1.76ZM66.96,164.04v-20.5c0-.15-1.02-2.24-1.49-2.5-4.43,1.96-.38,10.35-1.45,14.44l2.95,8.55ZM606.95,142.04c-2.92-.5-1.62.69-2.12,2.32-2.48,8.21-3.96,15.88-5.98,24.07-.83,3.38-3.95,6.38-2.89,10.6l2-5.99,1.98,4.99,7.01-35.99ZM636.96,167.03c2.06.32,3.46-1.7,4.22-3.27,2.61-5.47,3.72-14.69,5.77-20.71-1.34-.14-1.75,2.26-2.16,3.32-2.68,6.84-4.13,14.23-7.83,20.67ZM214.95,145.05c-2.59-.53-6.08-2.46-7.9.57,1.14,6.35,2.85,14.57,2.96,20.89.07,4.01-1.01,7.22-1.1,10.98-.21,8.56,2.31,10.91-2.52,19.48-2.45,4.35-6.59,7.08-9.44,11.05,3.62.16,7.88-4.9,9.83-7.66,5.53-7.84,8.51-17.29,8.21-26.87-.28-8.85-3.85-20.43-.04-28.44ZM613.95,145.04c-2.28-.29-3.32,1.68-4.06,3.43-1.32,3.11-7.98,25.16-6.92,26.57,5.95-1.89,5.24-10.24,6.52-14.97s4.2-9.7,4.47-15.02ZM163.31,155.76c-1.84-1.63-1.65-3.56-1.85-5.72-2.55,2.26-1.26,6.04-1.5,8.99l3.99-2,2,3c.99-5.46-1.47-3.24-2.64-4.27ZM179.95,151.04c-2.63-.45-1.77.42-2.28,2.16-.84,2.85-.83,5.96-1.71,8.8l5,1.02c-2.73-3.89-2.36-7.66-1-11.98ZM246.96,188.54c-.96-8.24.71-18.08,0-26.5,2.34-.13,1.77-.34,2,1.48.67,5.26-.52,11.61,0,17.01l1.98,14.5c.05-1.9,1.62-3.84,1.69-5.62.43-9.95-2.18-21.78-1.2-31.9.15-1.51,1.14-2.17,1.52-3.46l-11-3.01-1.01,40h7c.38-1.13-.95-2.08-1-2.51ZM572.95,155.05c-2.52-.49-1.78.45-2.52,1.93-3.21,6.41-2.75,16.01-4.47,23.05,1.48-.17,2.36-3.57,2.7-4.78,1.82-6.57,1.81-13.76,4.29-20.2ZM547.16,186.84c-.97-1.16,5.68-25.64,3.79-29.8l-2,8-1.98-1.01c.35,8.03-6.46,19.65-6.97,26.56-.12,1.59-.27,1.61,1.46,1.45l.52-4,.99,3,5.99-2.02c.85-2.56-1.38-1.69-1.79-2.18ZM559.95,158.04c-2.04-.23-4.07,2.07-4.73,3.76-.49,1.24-5.15,22.51-5.21,23.86-.15,3.63,2.44,4,4.03,1.69s6.93-28.2,5.92-29.31ZM238.95,191.04c-.47-9.67.39-19.38.59-29.02.03-1.51.49-2.46-1.57-2.98l-.51,3.99-2.49-1.99c-1.24,9.85,1.48,19.88-.03,29.48l4.01.52ZM557.94,187.03c2.56-8.52,3.94-17.18,5-25.99-1.99.41-1.7,2.05-1.98,3.51-1.23,6.45-2.38,12.98-3.57,19.44-.19,1.04-1.32,3.28.55,3.04ZM167.61,165.41c-1.72-.54-13.03-2.86-13.65-2.37l.99,2.99c-2.91-2.3-8.41,1.55-8.98,4.51-.29,1.49-1.25,15.22-1.07,16.97.15,1.55.1,2.57,1.58,3.53l8.93-3.87,44.08,7.48c.38-.05,5.76-4.13,5.99-4.6,1.42-2.97,2.04-15.4-1.57-17.47-2.42-1.38-21.75-4.82-25.72-5.29-6.13-.72-4.45.03-10.58-1.88ZM482.95,195.04l3-28c-1.37-.25-1.51,1.78-1.72,2.75-1.74,8.03-1.02,16.78-3.25,24.76l1.98.49ZM491.96,167.05l-2.98.68-7.01,36.3c2.39.4,1.9-.25,2.46-1.98,3.61-11.11,3.63-24.05,7.53-35ZM112.95,183.03l-3.49-13.99c-2.12,1.33-.89,2.31-.85,3.75.1,3.68-.55,10.07,4.34,10.24ZM231.96,170.04c-2.34-.13-1.77-.34-2,1.48-1,7.85-.43,22.74-.05,31.07.18,3.99.72,9.8,1.3,13.71.13.87.45,3.01,1.74,2.73,1.09-2.4-.99-6.15-.99-7.5v-41.5ZM473.95,173.03l-3.87.06c-.85.63-3.2,11.6-3.2,13.45,0,2.64,1.17,4.98,1.11,7.94-.1,4.78-2.91,10.42-2.02,15.55.68.04,2.83-2.6,2.89-2.8,1.1-3.45,6.09-32.39,5.09-34.2ZM477.95,173.04c-3.08-.49-1.59.79-1.96,2.5-2.33,10.89-3.07,22.51-5.03,33.49.13.17,2.95-1.42,3.45-2.04,2.99-3.71,4.76-24.36,4.53-29.96l-1.98,2.99.98-6.99ZM460.97,194.03l.98-16.99c-1.94.41-1.76,2.01-2,3.49-.81,5.06-1.02,10.44-2,15.5-1.79.23-.97-2.25-.87-3.37.25-2.81.95-4.87.89-8.12-.02-1.19.71-3.74-1-3.5.59,3.87-1.45,8.11-1.66,11.64-.19,3.04.89,6.99.63,10.84-.3,4.38-2.24,9-1.97,13.51,1.37.25,1.51-1.79,1.72-2.75,1.34-6.26,2.07-12.93,3.28-19.24l1.03,8.54c-1.29,4.31-3.96,7.57-3.03,12.45l6.55-15.93,2.43-23.06-2.29,2.16-2.7,14.83ZM301.96,180.04v35h3c.96-.92-1.97-22.52-2.09-26.51-.1-3.07,2.61-7.08-.9-8.49ZM449.97,218.04c2.52-1.26,2.38-6.01,2.82-8.67,1.61-9.7,1.03-19.67,3.16-29.33-5.35,6.52-3.21,17.11-4.04,25.45-.42,4.2-1.83,8.31-1.94,12.55ZM307.95,181.03c-2.79-.61-2.19,1.38-1.98,3.48.35,3.66.55,7.45.95,11.06.16,1.49.22,3.08,2.03,3.46l-.99-18ZM449.97,181.04c-1.15,11.19-6.03,24.86-6.76,35.77-.39,5.85,3.06,4.4,3.26,1.17.67-10.84,3.85-20.65,4.54-31.4.07-1.16.72-5.54-1.03-5.54ZM113.95,246.03c-1.04-6.52,1.09-14.28.94-20.33-.11-4.24-2.37-9.91-2.8-14.28-.64-6.48.17-13.15-1.41-19.59l-2.7-8.79,2.91,27.58-1.85.84,3.06,26.94,1.85,7.63ZM445.95,183.04c-3.3-3.87-6.98,17.26-2.49,18.99l2.49-18.99ZM142.95,200.04c1.15-1.73-8.16-15.45-11.98-13.99-2.09,2.12,8.36,19.88,12.99,20.5l52.01,10.5-1,2.98,6.99-3.5-2.99-2.49,2-4.99c-14.3.35-29.44-5.24-43.51-5.99-7.41-.4-13.34,3.18-18.48-3.53l3.98.51ZM437.95,190.04l-2.14,2.31-5.85,29.68c2.99.52,1.57-.81,2.1-2.34,3.27-9.58,3.39-19.87,5.89-29.64ZM196.95,198.04l-41.55-6.83c-4.54.02-7.81,7.79-1.92,8.8l40.04,4.7,3.43-6.67ZM420.95,191.04c-2.71-.75-3.21,3.99-3.71,5.79-2.67,9.66-2.93,21.18-4.28,31.2,1.56.24,1.12-1.85,1.46-3.01,3.15-10.75,5.41-22.84,6.52-33.98ZM423.95,194.04c-1.2-1.59-1.82-.01-2,1.48-1.24,10.53-2.23,21.07-3.99,31.52,1.79-.31,1.71-2.02,2.14-3.35,2.12-6.64,2.05-14.7,2.86-21.65,3.77,1.1-1.3,7.39,1.98,9l1-11.99-1.98,1.99-.02-6.99ZM408.95,199.04c-2.84-.47-1.67.59-2.13,2.31-1.42,5.29-1.66,12.15-1.85,17.68l2.72-8.76,1.26-11.23ZM202.97,215.04c4.83-3.49,8.51-9.6,10.98-15-4.33,3.82-9.13,9.58-10.98,15ZM378.97,227.04c1.79-.31,1.72-2.02,2.14-3.35,2.2-7.03,2.78-14.4,3.84-21.65-2,.38-1.64,2.11-1.99,3.5-1.75,6.94-2.12,14.53-3.99,21.5ZM391.95,204.05l-5.51,7.98c-.61,3.45-5.42,19.05-3.48,21.01,2.44.56,2.19-.92,2.68-2.77,1.36-5.19,1.86-11.83,2.32-17.22,1.67-.26,1.07,2.41,1.04,3.53-.09,2.85-.92,5.23-1.09,7.93-.07,1.09-.64,3.79,1.03,3.52l3.01-23.98ZM334.96,227.04v-21l-1.67,7.93c1.14,3.49.16,6.87.25,10.19.03.94-.01,3.17,1.41,2.87ZM379.95,207.04c-3.45-.29-3.89,5.86-4.01,7.99l-1.98-1.99.13,4.86,3.85,1.14,2.01-11.99ZM371.86,229.96l1.08-12.92c-1.46-.01-1.92,3.04-2.27,4.21-.45,1.5-3.1,9.39-.22,8.79l1.41-.08ZM146.97,219.04l-1.51,2.98c-.62-1.38-8.19-5.43-8.48-2.49,1.43,4.04,7.44,2.95,10.97,4.5l-.98-4.99ZM309.96,218.04v25c3.98,1.33,3.94-4.05,4.05-7.46.12-3.8-.36-9.13-1.32-12.78-.31-1.17-1.28-4.61-2.73-4.77ZM210.96,246.02l6.01.57c4.59-4.71,4.24-9.21,5.21-14.83.41-2.4,3.78-5.03.27-7.72-3.72,7.72-9.66,14.01-11.49,21.98ZM320.96,241.04v-17c-4.15,3.5-1.13,10.79-1.72,15.74-.27,2.27,1.46,1.61,1.72,1.26ZM197.95,235.05l-35.98-10.01c-.49,2.61.49,1.76,1.98,2.46,6.3,2.93,21.72,7.75,28.51,8.53,1.08.12,5.52.8,5.49-.98ZM159.95,227.04c-2.98-.68-2.08,1.85-1.86,3.88l15.86,5.12-.67-3.02c-4.48-.44-8.19-5.18-12.81-2.97l-.52-3.02ZM369.81,241.88c.96-2.86,3.96-6.3.63-8.84-3.6-.78-1.74,7.05-3.47,8.51l2.84.32ZM185.57,241.44c-1.16-.77-2-1.75-3.61-1.39l1.01,2.98-3.01.5c1.91,2.19,4.31,3.98,7.37,3.43l1.62-2.42c-1.4-.46-2.65-2.61-3.39-3.11ZM355.97,275.04c-6.66-8.34,2.02-18.33,1.97-28-1.24,2.75-5.93,4.32-6.76,5.25-1.87,2.12.66,15.8.81,19.3s-2.01,7.27-.03,11.45l4.98-7-4.98,15c2.14-1.6,3.43-5.52,4.48-8.01,1.69-4.04,4.02-9.64,5.3-13.71.25-.8.62-3.37-.79-1.77l-4.98,7.49ZM339.95,369.03c-1.19-1.59-1.82,0-2,1.49-2.26,19.25-2.14,38.74-4.04,57.98l.05,65.54,2.01-19.45c.59-15.47.04-31.68,1.03-47.03,1.27-19.69,7.58-38.73,2.94-58.52ZM256.97,415.04c4.84-3.91,2.45-11.64,2.98-17-3.92,3.68-1.1,11.79-2.98,17ZM337.95,482.03l5-77.99c-1.81.37-1.87,1.96-2.03,3.46-2.34,21.77-1.69,44.23-4,66l1.03,8.54ZM85.95,453.03l-2.28-20.2-2.7-9.79c.66,8.43,1.76,17.02,3.12,25.36.19,1.17.31,4.66,1.86,4.63ZM584.96,465.05c-3.95,1.52-9,4.58-12.04,7.45-.84.8-6.62,7.83-5.95,8.54,6.46-4.69,12.95-9.77,17.99-15.99ZM565.96,476.05c-6.88,2.89-11.17,9.79-14.17,16.32-4.54,9.88-7.52,20.8-7.82,31.67,1.54.24,1.17-1.87,1.47-3.01.94-3.61,1.07-7.57,2.02-10.99,1.59-5.68,6.23-13.93,9.09-18.91s7.12-9.56,9.41-15.09ZM541.94,504.03l3.84-11.67,8.16-14.33c-6.85,3.63-11.98,15.16-12.89,22.61-.13,1.08-.86,3.63.89,3.38ZM577.95,486.04h-3c.41.99.89,1.78.51,2.91-1.4,4.16-6.73,11.29-8.69,16.39-4.5,11.72-6.2,23.18-3.8,35.68l.99-3,1.98.02,2.01,2.99,4.01-7.5c-1.98-1.06-4.15-.04-5.47-2.51-.69-1.3-1.44-11.53-1.29-13.24,1-11.29,11.44-20.57,12.76-31.74ZM502.9,513.99c2.01-6.31,4.44-12.7,8.92-17.67l-1.88-8.28-47.98,23.01c.69,1.76,5.94,1.12,7.54,1.04,8.76-.49,19.13-1.93,27.8-1.08.34.03,2.65,4.47,5.6,2.99ZM582.94,524.03c1.94-11.83,3.44-24.24.51-36-3.55,7.69-.54,16.87-.41,24.51.05,2.78-.96,5.24-1.13,7.96-.07,1.09-.64,3.79,1.03,3.53ZM535.95,528.03l2-23.99-2.98,13.51c-.04,2.32-.11,4.68,0,7,.05,1.22-.76,3.71.99,3.48ZM557.95,519.03c.47-4.28,1.2-8.61,1.62-12.9.15-1.55,1.32-3.26-1.12-1.11-5.84,11.8-9.53,26.07-1.98,38.01-1.53-9.25-1.96-17.64-.49-26.99l1.98,2.99ZM102.94,511.04c-1.37-1.34-1.88.1-2.02,1.51-.33,3.34,1.69,6.96,1.04,10.48l4.89-3.64-3.91-8.35ZM135.96,516.05c-7.83-.86-15.94-3.2-14.97,7.96l9.02,1.61,5.95-9.58ZM160.95,566.04c.45-5.59-.63-11.94.1-17.41.36-2.7,3.59-8.61,3.59-9.1,0-.98-2.88-2.78-2.67-5.92.47-6.91,11.49-13.04-7.01-13.58.2,4.4.76,8.24.23,12.65s-4.34,12.99-4.18,16.77,3.71,9.88,3.12,14.41l6.83,2.16ZM566.78,553.9c.64-2.62,3.19-3.11,4.63-4.91,4.76-5.96,6.62-13.51,7.54-20.95-3.58,2.79-2.83,8.38-5.14,12.35-2.69,4.63-12.8,11.58-16.84,5.65-1.42,1.45,7.32,9.24,9.81,7.86ZM91.95,560.03c-1.38-9.16,3.04-17.12,4.98-25.54.17-.72,1.72-3.64-.47-3.44-4.65.43-7.05,23.2-6.5,27.5.19,1.46.76,3.09,2,1.48ZM124.95,531.04c-1.69-.1-3.56.63-4.32,2.24-.92,1.95-4.66,13.88-2.17,14.75l6.49-16.99ZM237.95,542.05c-12.02-4.25-24.34-8.16-37-10.01,3.43,6.65-.29,13.94,0,20.99l37.99-6.01-4.99-1c.27-2.42,5.02-.6,3.99-3.97ZM545.95,551.03l-.97-4.53-6.02-12.47c-.55,6.04.27,14.86,6.98,16.99ZM149.95,535.04c-2.77-3.23-5.11,11.97-3.99,12.99,2.46.17,1.73.27,1.98-1.5.55-3.96.93-7.63,2.01-11.49ZM329.68,549.31c-.21-.26-2.61-1.38-2.72-1.27l-1.02,8h5.01c.01-2.15.18-4.96-1.28-6.73ZM101.95,582.03l-2.19-20.29-3.79-6.69c-2.51,7.27-.31,15.07,2.6,21.88.51,1.19,2.17,4.56,3.38,5.1ZM106.96,573.54c-.49-5.1.36-10.81,0-16l-2-1.01c-4.12,1.81-2.47,15.99-1.74,19.75,1.05,5.43,3.64,14.13,9.75,15.25-2.99-5.56-5.4-11.64-6.01-17.99ZM359.95,576.03c-3.66-7.23-19.87-.22-24,3.79-2.16,2.1-4.7,8.86-5.13,9.16s-1.94-.78-2.89-.4c-4.22,1.68-11.52,15.27-13.17,19.76-4.39,11.99-5.22,28.12-3.8,40.69,1.94-.41,1.76-2.01,2-3.49,1.31-8.14.8-16.38,2.46-24.54,1.34-6.6,4.56-11.83,6.32-17.68.59-1.95-.31-4.64.68-6.37.54-.95,2.46.17,4.04-.8,2.85-1.75,5.11-6.46,7.46-8.64,5.87-5.44,13.78-9.81,22.03-8.47l-.99-3.99,5,.98ZM311.95,575.04c-2.07-.45-2.28,1.07-3.22,2.27-6.49,8.24-11.88,15.68-12.76,26.72l4.17-6.31c2.09-8.81,8.49-14.91,11.81-22.68ZM151.95,577.04l-11.99,4.48c3.92,6.54,11.02,1.57,11.99-4.48ZM364.75,577.26c-.73-.39-3.37-.71-3.78.27,22.32,27.13,5.7,61.09-18.01,80.5,5.44-.45,12.08-7.85,15.42-12.07,10.02-12.7,19.38-36.1,15.31-52.15-.71-2.8-7-15.5-8.94-16.54ZM289.95,581.05c-1.96-.47-4.08,3.35-4.84,4.65-4.23,7.2-8.24,27.81-7.23,35.91.5,4.01,4.26,2.69,3.08,7.43,1.66.27,1.07-2.42,1.04-3.53-.25-7.23-.97-14.24.21-21.71,1.24-7.83,4.72-15.51,7.74-22.75ZM284.97,612.04l10.98-31c-7.39,7.29-9.85,20.89-10.98,31ZM274.95,599.04l6-17c-4.3,3.09-6.86,10.6-7.8,15.71-.36,1.94.13,1.25,1.8,1.29ZM309.97,600.04l2.85-2.64,6.13-12.35c-4.61,3.02-8.03,9.67-8.98,15ZM365.96,593.04v14.5c0,1.38-3.2,12.02-3.96,14.04-3.02,8.03-18.64,31.61-28.39,30.5-.7-.08-.77-1.6-1.39-2.01-8.21-5.3-10.46-11.02-10.26-21.03-4.25-.3-3.23,9.5-2.75,12.26,2.43,14.17,19.4,14.42,28.77,6.25,12.07-10.52,20.82-31.14,20.03-47.05-.08-1.69-.39-6.59-2.04-7.46ZM102.94,594.06c-4.37-1.03.26,4.63,1.36,5.63,1.83,1.66,5.09,3.51,7.65,3.34l-9.01-8.97ZM303.95,623.03c.13-8.96,6.52-15.31,3-24.99l-3.88,13.6c-.18,2.62-.22,5.29-.1,7.91.05,1.22-.77,3.71.99,3.48ZM340.97,625.04c.42-4.57,5.12-7.59,5.93-12.56.73-4.52.85-13.75-4.93-12.94,4.38,3.43,3.94,6.26-2,4.51,4.31,6.57,1.99,14.92-4.46,19.05-2.44,1.56-5.54-.14-5.52,4.54s2.48,3.75,5.45,4.44c4.26.98-.32,2.15-1.22,3.27-.72.89.59,4.1-2.72,2.66-1.72-.75-3.16-6.54-6.53-5.96,7.36,25.87,21.65,12.11,30.96-3.52-.11-1.46-13.05-6.89-14.95-3.49ZM353.97,606.03l-5.01-5.99c.98,4.86,1.7,9.15-.01,13.99.52.49,3.72-1.14,3,1.49l-5.97,6.01,11.96,4.51c.4-2.43,4.65-10.72,3.71-12.55-.62-1.2-2.45-1.1-2.71-2.16-.68-2.69.7-7.1-1.98-9.8l-1,4.01-1.99.5ZM298.95,619.04l3-15c-2.94,1.83-4.2,7.48-4.73,10.76-.33,2-1.37,4.95,1.73,4.24ZM273.95,630.03c-.96-5.69.21-13.03-.54-18.46-.13-.97.03-2.8-1.43-2.53-1.15,4.41-.56,10.76,0,15.49.15,1.28.35,5.31,1.98,5.5ZM336.95,610.04c-6.98-.22-3.73,6.57-3.99,10.99l3.49-6,.5-4.99ZM294.96,635.54c-.47-6.35.34-13.11,0-19.5-1.94.2-1.95,4.01-2.04,5.46-.11,1.63.59,20.63,3.03,17.54.61-1.5-.94-2.78-.99-3.5ZM278.94,645.04c-1.06-.23-2.66-.27-1.97,1.48.5,1.29,8.25,12.25,9.98,10.51-1.62-4.48-7.59-6.65-8.01-11.99ZM315.94,647.04c-3.56-1.02-1.97,6.2-1.25,7.77,1.03,2.23,9.75,6.91,11.94,7.04,1.66.1,4.92-3.16,7.32-2.81l-10.94-3.54c-3.01-2.15-7.19-4.18-7.07-8.44Z"/>
      <path d="M78.92,596.08c.09.07-.2,1.42.75,1.93,6.27,3.39,19.77,5.89,27.04,7.75,1.8.46,2.68-.34,2.23,2.28-4.67-.69-10.17-1.53-14.66-2.83-2.77-.8-4.42-2.67-6.63-3.38-2.6-.84-7.09-.65-10.01-1.98s-.3-4.96,1.27-3.76Z"/>
      <path d="M328.96,387.04h.99c-.07-4.3,1.28-8.43,1.88-12.63,2.8-19.66,5.48-42.14,7.12-61.88s.95-38.38,2.01-57.49c4.14-.56,1.03,7.15.95,9.45-.99,31.32-.47,62.1.03,93.54-1.75.23-.94-2.27-.99-3.48-.16-3.99.18-8.01-.01-12-.08-1.7-.91-3.32-.98-5.02-.2-4.66.18-9.35-.01-14-.05-1.22.76-3.72-.99-3.48-1.93,14.94-2.13,30.61-4.03,45.48-2.27,17.85-7.64,35.41-7.99,53.51-1.84-.36-1.04-5.11-1-6.57.23-7,1.65-14.94,2-21.93.23-4.65-.18-9.35.01-14,.05-1.23-.76-3.71,1-3.49v14Z"/>
      <path d="M286.96,386.04c1.76-.22.95,2.26,1,3.49.44,10.62-.08,21.39,0,31.95.06,7.11,1.23,14.84,1.02,22.08-.03,1.01-1.07,15.05-4.03,11.48l-6-80.99,1.61,1.48,4.39,66.01,1.99,11.51v-67Z"/>
      <path d="M149.96,351.54c-.09.34-1.36,1.53-1.99,1.5l-.47-19.05-8.53-.96c-.83-3.93,4.81-.86,7.05-2.43l.98-2.09-5.04-36.46c2.68-.93,2.45,4.04,2.7,5.79,1.04,7.19,2.13,25.64,4.84,31.16,1.91,3.9,11.45,6.88,14.45,10.04-5.24-.25-9.76-2.43-13.52-5.98-3.05-.26-.48,1.08-.48,1.49,0,4.09.8,13.87,0,17Z"/>
      <path d="M183.97,452.04c1.24-32.64-6.54-64.7-9-96.99,1.49-.25,1.24,1.87,1.49,2.98.57,2.49.92,5.15,1.33,7.68,2.97,18.31,5.61,39.37,7.16,57.84.5,5.99,1.67,19.45,1.04,25.03-.17,1.49-.21,3.08-2.02,3.46Z"/>
      <path d="M274.95,317.04l1.51,94c-1.69-7.07-2.21-15.99-2.51-23.44-.53-13.6-.79-27.48-1.03-41.01-.14-8.11-.94-20.48.03-28.08.19-1.46.76-3.1,2-1.48Z"/>
      <path d="M167.96,487.04c1.37,3.07,3.29,7.52,4.97,10.27.62,1.01,2.6,1.17,2.93,2.35.44,1.6-1.38,4.41-.91,6.38-1.08,0-2.26.18-3.31-.18-3.24-1.11-14.24-26.03-17.67-30.34-.18-2.95,1.14-.84,1.83.18,5.18,7.72,9.81,17.24,14.67,25.36.76,1.27-.2,2.53,2.48,1.97l-17.99-36.99c1.84-.53,4.26,3.54,4.84,4.65,1.53,2.95,4.91,15.85,8.15,16.34-2.42-5.42-3.72-11.37-6.75-16.52l2.26-2.48,1.1,3.14,16.4,4.87-.48,1.97c-9.65-2.07-13.77-7.33-9.67,7.43-.56,1.31-1.43,1.8-2.85,1.59Z"/>
      <path d="M585.95,201.03l-2.98-4-4.02,13-1.03-8.53c.65-4.07,2.55-18.45,8.39-17.31,5.34,1.04-1.09,13.18-.37,16.84Z"/>
      <path d="M101.95,363.03l-1.98-13.51c.61-22.36-3.07-44.43-5-66.48,1.55-.03,1.66,3.45,1.86,4.63,4.11,24.8,4.72,50.28,5.12,75.36Z"/>
      <path d="M249.95,292.04c.25,7.15-.3,14.38-.04,21.54.64,17.29.59,34.62.99,52,.07,2.94,2.71,6.93-.94,8.46-.23-11.17.27-22.4,0-33.57-.31-12.5-1.5-25.36-2.05-37.88-.12-2.61-.27-6.6.05-9.07.19-1.46.76-3.1,2-1.48Z"/>
      <path d="M425.96,513.08l.99,3.96c-4.16-1.8-6.5,3.62-10.99,3l10.47-11.02c9.53-2.44,17.01-7.33,25.52-11.97.5,2.15-1.09,2.28-2.32,3.17-7.27,5.31-15.45,9.25-23.67,12.87Z"/>
      <path d="M433.95,393.03l-1.99-1.47c1.09-9.98.27-20.1.96-30.06.55-7.94,2.43-16.01,3.03-23.97.42-5.51-.49-11.43.1-16.9.1-.97.44-3.76,1.9-3.58-.82,7.71-.37,15.82-1,23.48-1.19,14.48-2.03,28.76-2.98,43.02-.21,3.15.12,6.34-.01,9.48Z"/>
      <path d="M240.97,508.03c2.49-1.21.17-6.36,0-8.51-.09-1.1-.73-3.73.98-3.48l4,25.99c-1.86.36-2.48-.87-3.21-2.28-2.31-4.5-6.72-25.65-7.51-31.49-.28-2.08-.44-4.13-.27-6.22,1.45-.26,1.29,1.89,1.51,2.97,1.54,7.66,2.93,15.38,4.49,23.02Z"/>
      <path d="M244.96,381.04c-1.23,1.62-1.81-.01-2-1.48-1.19-9.31.62-19.6.65-28.89.02-7.79-1.02-15.72-.63-23.62,1.01-.43,1.99,2.33,1.99,2.49v51.5Z"/>
      <path d="M270.95,451.04c-.92,12.61,1.12,25.01,1.99,37.51.64,9.23-.47,19.81,3.01,28.48-2.49,2.68-3.9-7.59-3.98-8.51-1.52-16.76-2.29-35.98-3.06-52.95-.09-2.05-.93-5.35,2.03-4.53Z"/>
      <path d="M99.95,229.04l2.99,52.99c-1.61-.16-1.88-4.29-1.98-5.51-.41-4.86.29-10.06-.02-14.98-.64-10.3-2.36-20.75-3-31.02-.12-1.99.22-1.56,2-1.49Z"/>
      <path d="M251.95,247.04c-1.15,13.22-1.51,25.9.99,38.99l-1.49-3.01-2.49,3.01.99-37.52,2-1.48Z"/>
      <path d="M256.96,446.03h-3s0,3,0,3l1.98-1.99v5.99c-1.15.12-2.6-3.13-2.72-3.76-1.94-9.85-1.04-29.28-.32-39.79.12-1.71-.1-3.31,1.56-4.44l-1.13,27.31,3.62,13.68Z"/>
      <rect x="384.14" y="275.34" width="60.72" height="2.44" transform="translate(18.68 579.25) rotate(-71.12)"/>
      <path d="M330.95,345.03c-1.74.23-.94-2.27-.99-3.48-.3-7.31.35-14.71,0-22.02-.41-8.68-2.06-11.53.49-21.5.33-1.3.93-4.81,2.49-4.99-2.34,17.23-2.11,34.6-2,51.99Z"/>
      <path d="M90.95,328.04c.3,15.4,3.85,30.55,3,45.99l-1.98-10.5c.25-11.07-2.43-22.04-3-33.01-.11-2.08-.58-2.88,1.99-2.48Z"/>
      <path d="M515.95,472.04c.56,2.89-.84,1.6-2.19,2.25-6.29,3.05-12.61,6.02-18.82,9.22-5.07,2.61-10.21,7.46-15.98,7.51,5.3-3.69,12.1-7.48,17.98-10.51s12.56-6.93,19.02-8.47Z"/>
      <path d="M294.96,362.04l1,3.49c-.71,18.99.88,38.01.63,56.85-.01.85-.2,3.94-1.63,3.66v-64Z"/>
      <path d="M474.95,347.03l-3-2.5,3.13-34.86,2.86-12.62c-1.17,16.38-5.81,33.74-2.99,49.99Z"/>
      <path d="M193.95,440.03c-2.71.46-1.72-.5-2.27-2.18-3.04-9.38-3.08-22.92-3.72-32.82,3.54,2.06,1.61,7.87,2,11.49.86,7.89,2.41,15.75,3.99,23.5Z"/>
      <path d="M237.95,510.06c.49.56.27,2.67-1.43,1.93-6.08-1.7-14.16-19.06-16.56-24.94,2.06-.42,2.36.95,3.19,2.3,3.7,6.05,5.92,12.47,10.82,18.18,1.52,1.78,3.82,2.34,3.98,2.52Z"/>
      <path d="M305.96,325.04c-1.76.22-.95-2.26-1-3.49-.49-11.83-.31-23.69-.99-35.51.64-.07,1.99,1.33,1.99,1.5v37.5Z"/>
      <path d="M247.96,448.04h-1v-19c0-.13-1.78.02-2.44-1.02l-6.55-12.98c2.1.65,9.99,11.69,9.99,12.5v20.5Z"/>
      <path d="M588.07,204.98l2.76.13c.66,4.11.18,10.3-4.87,10.93l1-16.99,1.1,5.93Z"/>
      <path d="M624.81,195.21l-6.85,22.82c.63-7.81,4.92-14.98,3.99-23-2.21.71-4.14,1.24-3.99-1.99l6.85,2.17Z"/>
      <path d="M125.94,425.03c-1.88.2-.8-2.1-.7-3.2,1.05-11.59,2.67-23.16,3.21-34.79l.5,12.49-3,25.5Z"/>
      <path d="M310.96,469.04c3.2,1.28.19,5.37.97,8.3.28,1.03,2.02.96,2.49,1.68,1.11,1.72.87,9.09-.97,8.99-.66-.64-2.5-2.93-2.5-3.48v-15.5Z"/>
      <polygon points="397.95 317.04 396.17 315.77 402.95 287.04 397.95 317.04"/>
      <path d="M531.56,345.67c-.19.48-2.01,1.07-1.62,2.36-1.21.29-1.22-.47-.98-1.47.62-2.6,2.14-4.79,2.71-8.31.87-5.36.77-11.24,1.53-16.48.13-.87.45-3.01,1.74-2.74-1.82,7.68-.61,19.67-3.38,26.63Z"/>
      <path d="M103.95,470.04v7.99s5.02-3.48,5.02-3.48c.18,3.3-2.06,6.03-5.51,5.51-1.05-.16-.02-2.01-.7-2.76-.64-.71-4.44-.39-3.81-2.75l4.99-4.5Z"/>
      <path d="M496.95,222.04l-4.98,28.99c.81-8.53,1.22-18.17,3.03-26.49.37-1.7-1.12-2.99,1.96-2.5Z"/>
      <path d="M240.97,462.04c1.29-6.08-1.58-14.02-1.07-19.51.14-1.49.28-3.13,2.05-3.49.11,4.15-.12,8.33.02,12.49.11,3.18,3.08,8.4-1,10.51Z"/>
      <path d="M600.94,243.03c-.36.36-2.73.4-1.83-1.32,2.06-5.83,4.09-11.72,6.67-17.34.69-1.52,1.65-4.78,3.16-5.32-1.21,5.91-4.4,11.37-6.47,17.02-.55,1.5-1.02,6.46-1.54,6.98Z"/>
      <path d="M206.96,335.03c2.27-.11,4.5.28,6.68.87,1.71.47,2.78-.72,2.31,2.13l-9.82-1.17-.68-10.82c2.75,1.39.89,8.4,1.51,8.99Z"/>
      <rect x="546.73" y="203.64" width="27.22" height="1.66" transform="translate(267.64 724.19) rotate(-80.66)"/>
      <path d="M385.96,357.04l2.99,2,1-4.99-1,13.99c-3.54-1.16,2.57-9-1.98-7.99-.09,2.49.1,5.01,0,7.51-.05,1.23.76,3.71-1,3.49v-14Z"/>
      <path d="M446.96,331.02l-3.24,2.27-4.75,16.74c-.31-7.24,2.73-14.01,4-21l3.99,1.98Z"/>
      <path d="M314.95,279.03c-2.86.48-1.66-.6-2.13-2.31-1.5-5.45-1.31-12.25.15-17.68l1.98,19.99Z"/>
      <path d="M273.96,246.04v15.5c0,.17-1.35,1.58-2,1.5v-17h2Z"/>
      <path d="M579.97,232.04l1.11-11.38,2.87-13.62c-.19,7.17-1.1,14.42-1.95,21.53-.18,1.5-.19,3.08-2.03,3.46Z"/>
      <path d="M486.95,284.03l-.87-4.37,4.87-23.62c.41,9.49-3.65,18.5-4,27.99Z"/>
      <rect x="285.96" y="348.04" width="1" height="32"/>
      <path d="M102.96,310.54c.07,1.28,3.29,6.15-.99,5.49l-.44-14.49,1.44-10.5c.27,6.46-.37,13.04,0,19.5Z"/>
      <path d="M285.96,480.04c3.22,1.91,2.19,9.11,1.88,12.37-.11,1.13-.45,5.52-1.88,5.63v-18Z"/>
      <path d="M323.96,310.04c2.05.35,1.26,1.58,1.46,2.63.97,5.02.41,10.27.53,15.36-1.01.43-1.99-2.33-1.99-2.49v-15.5Z"/>
      <path d="M121.95,206.04l.99,17c-4.13-3.3-.66-10.73-3-15.51l2-1.49Z"/>
      <path d="M283.95,259.04l-2.01-3-2.97,2c1.03-4.92,4.12-8.5,3-13.99l1.98,14.99Z"/>
      <path d="M85.95,333.04c-4.32-2.69-4-12.21-1.49-15.99l1.49,15.99Z"/>
      <path d="M543.95,328.03c-1.87.15-.97-3.23-.86-4.36.33-3.52,1.2-8.58,1.88-12.12.28-1.46,0-3.1,1.98-3.51l-3,20Z"/>
      <path d="M196.96,271.04l-2.05-13.45.06-4.55c.64-.07,1.99,1.33,1.99,1.5v16.5Z"/>
      <path d="M440.96,75.05c-.38,2-2.11,1.64-3.5,1.99-20.98,5.29-42.16,9.78-62.46,17.54-10.87,4.15-20.51,11.25-32.04,13.45l30.22-14.26c22.38-6.95,44.45-15.19,67.77-18.72Z"/>
      <path d="M575.96,64.05l-41.98,16.52c-2.5,4.14,4.4.32,4.98,3.46h-14.99c1.17-1.68,4.68-2.94,6.63-3.85,14.36-6.69,29.51-14.2,45.36-16.13Z"/>
      <path d="M572.96,98.05c-2.32,2.11-6.13,4.01-8.98,5.51-20.85,11.06-45.62,17.07-68.02,24.47l10.04-4.44c14.16-5.32,29.27-8.97,43.22-14.78,7.96-3.32,15.39-8.78,23.73-10.76Z"/>
      <path d="M437.95,117.05l-21.73,16.76-39.26,11.22c.77-1.8,4.45-2.6,6.22-3.26,9.88-3.7,24.65-5.71,33.04-9.95,2.97-1.5,5.2-5.12,7.36-6.6,4.2-2.88,9.63-6.29,14.37-8.16Z"/>
      <path d="M621.96,101.03l31-10.48,11.99-1.51-1-4.99,2.69-.87c2.57-.17,2.81,3.51,2.21,5.25-.81,2.33-12.87,3.3-15.9,4.11-10.28,2.74-20.37,8.46-30.99,8.5Z"/>
      <path d="M466.96,109.05l-28,14.98c1.23.92,8.63-3.21,10.73-3.76.98-.26,3.51-1.01,3.26.76-5.94.73-10.8,4.68-16.54,5.98-.73.16-3.61,1.73-3.44-.47.31-4.06,28.98-15.54,33.98-17.49Z"/>
      <path d="M453.96,136.03c-.68-2.41,2.44-2.88,4.02-3.45,5.14-1.84,10.67-2.96,15.96-5.06,21.13-8.37,41.89-18.06,63-26.49l-2.45,3.04-80.54,31.95Z"/>
      <path d="M493.96,106.05c-.28,1.73-1.99,1.74-3.23,2.26-7.16,3.07-16.23,4.39-23.77,6.72.77-1.78,4.66-2.43,6.47-3.01,6.74-2.18,13.7-4.06,20.52-5.97Z"/>
      <path d="M420.95,112.04c-.57,4.26-9.32,4.23-11.99,6.49-1.64,1.39-.4,4.81-2.99,5.5l.41-6.01,14.58-5.98Z"/>
      <path d="M356.96,62.04c2.6-.91,6.56-1.78,9.38-3.12,1.02-.48,2.98-2.17.14-1.87l-21.51,6.98c4-.46,8.04-1.25,12-1.99-11.43,3.98-23.93,6.04-35.77,9.73-22.75,7.09-45.97,18.97-69.02,25.98-15.47,4.71-32.14,6.74-48.21,8.28.88-2.24,4.73-2.42,6.78-2.71,53.96-7.62,99.05-29.36,150.22-46.78,7.84-3.37,15.63.46,4.22,4.22-3.09,1.02-5.48.77-8.22,1.28Z"/>
      <path d="M297.96,49.05l1.99,1.98c-11.64,1.06-23.47,7.02-34.75,8.76-1.07.17-3.47,1.06-3.24-.74,8.75-2.37,19.1-3.95,27.54-6.96,2.6-.93,4.3-2.75,6.45-3.55,9.2-3.43,19.15-5.73,27-12-8.79-1.54-17.97,3.24-26.77,5.23-6.34,1.44-12.89,2.29-19.24,3.76-15.62,3.61-31.02,8.76-46.98,10.5l73.02-17.47c3.32-.36,6.03-3.25,8.78-4.22,5.01-1.75,8.88.61,13.65-1.26l1.54,2.44c-.58,2.77-24.42,13.5-28.99,13.52Z"/>
      <path d="M404.96,20.05c-2.87,3.8-10.83,3.28-16.01,4.48-6.4,1.48-12.72,3.11-19.01,5.01-1.93,1.2,1.51,5.87-1.49,6.5-4.57.95.51-5.24-1-6.01l-25.48,7,33.3-11.2c9.82-1.84,19.75-5.29,29.69-5.78Z"/>
      <rect x="222.77" y="64.28" width="79.54" height="2.16" transform="translate(-8.01 67.03) rotate(-14.33)"/>
      <path d="M165.95,69.05l-9.99,1.99,1.99,2.98-43.99,2c.56-2.29,1.5-1.32,2.76-1.34,16.67-.22,32.86-3.09,49.23-5.64Z"/>
      <polygon points="241.95 81.05 230.17 85.75 204.96 91.03 241.95 81.05"/>
      <path d="M157.95,121.05c.22,1.8-2.24.96-3.36.87-17.25-1.5-34.36-6.8-51.25-9.76-25.07-4.39-50.46-8.05-75.6-12.41-1.74-.3-5.62-.05-4.78-2.7,16.64-.05,32.56,5.74,48.73,8.76,9.7,1.81,19.74,2.67,29.47,4.53,18.9,3.6,37.57,8.72,56.79,10.72Z"/>
      <rect x="190.18" y="95.53" width="2.3" height="65.84" transform="translate(31.54 294.5) rotate(-79.98)"/>
      <path d="M346.95,634.04l-6,.58c-9.32-15.54,9.41-4.77,6-.58Z"/>
    </g>
  </g>
</svg>