<?xml version="1.0" encoding="UTF-8"?>
<svg id="Layer_2" data-name="Layer 2" xmlns="http://www.w3.org/2000/svg" xmlns:xlink="http://www.w3.org/1999/xlink" viewBox="0 0 290.1 29.74" preserveAspectRatio="none">
  <defs>
    <style>
      .cls-1 {
        fill: #84ee43;
      }

      .cls-2 {
        fill: none;
      }

      .cls-3 {
        fill: #b9fd90;
      }

      .cls-4 {
        fill: #67d133;
      }

      .cls-5 {
        fill: #73de43;
      }

      .cls-6 {
        clip-path: url(#clippath);
      }
    </style>
    <clipPath id="clippath">
      <rect class="cls-2" width="290.1" height="29.74"/>
    </clipPath>
  </defs>
  <g id="_Шар_1" data-name="Шар 1">
    <g class="cls-6">
      <g>
        <path class="cls-1" d="M281.83,15.24c-2.44.41-4.48.33-6.26-.08t-.02,0c-10-2.32-11.7-15.11-28.66-10.99-1.49.36-2.93.7-4.32,1.02l-.12.03c-49.32,11.33-38.98-3.02-75.68-1.78-3.64.12-7.76.4-12.43.86-23.35,2.35-27.83,22.49-45.25,24.42-.58.07-1.15.11-1.73.15-5.87.34-11.75-.89-17.48-2.82-.03-.01-.05-.02-.08-.03-14.76-5.02-28.52-14.77-38.49-14.98-8.3-.17-8.68,2.87-14.5,5.33-.01,0-.02,0-.03.01-2.97,1.25-7.35,2.36-14.89,2.81C7.86,20.04.58,14.72-2.84,10.18c-2.05-2.72-2.71-5.16-2.62-5.84.06-.45.15-.88.25-1.27.09-.34.19-.67.31-.97.07-.18.14-.35.22-.52.07-.16.15-.31.23-.45.17-.3.35-.58.55-.85.1-.14.2-.26.31-.39.14-.17.29-.32.45-.47.11-.11.23-.21.35-.31.14-.12.29-.24.45-.35.12-.09.25-.17.39-.25.19-.13.41-.25.65-.38.14-.08.28-.15.43-.22.55-.25,1.15-.48,1.8-.66.38-.11.79-.21,1.2-.3.4-.08.82-.16,1.25-.23h.04s.01,0,.01,0c.2-.03.41-.06.62-.09s.42-.04.64-.07c.23-.03.47-.05.71-.07.11,0,.22-.01.34-.02.38-.03.77-.06,1.18-.07.28-.02.56-.03.84-.03.28-.02.57-.02.87-.03.19,0,.38,0,.58-.01,6.81-.09,15.82.66,26.71.57,19.74-.17,42.07-.28,59.6.16,17.52.44,24.52,1.64,51.86,2.5,1.7.06,3.33.1,4.91.13.53.01,1.05.02,1.56.03.82.02,1.62.03,2.41.04.4,0,.79.01,1.18.02h.04c.78.01,1.54.01,2.29.02,1.79.01,3.51.01,5.17,0,.42,0,.83,0,1.25-.01h.99c.65-.02,1.3-.04,1.94-.05.9-.02,1.79-.04,2.67-.07.44-.01.88-.02,1.31-.04l1.29-.05c.43-.01.86-.03,1.28-.05.85-.03,1.69-.07,2.53-.11.42-.02.84-.04,1.25-.06.41-.03.83-.05,1.24-.07.42-.02.83-.04,1.25-.07.41-.02.83-.04,1.24-.07,1.66-.1,3.32-.2,5.02-.32.81-.06,1.63-.11,2.45-.17,1.36-.09,2.75-.19,4.18-.29l.42-.03c.73-.06,1.48-.1,2.24-.16,1.2-.08,2.43-.17,3.7-.25l.63-.05c.87-.06,1.76-.12,2.68-.18.12,0,.24-.01.36-.02.25-.02.48-.03.68-.04.02,0,.05,0,.07,0,.06,0,.12,0,.17-.01.06,0,.12,0,.18-.01.09,0,.18-.01.27-.02.04,0,.09,0,.14,0,1.11-.07,2.26-.15,3.44-.22,24.55-1.51,40.1-4.34,56.85-5.34,1.85-.11,3.54-.2,5.09-.26,1.02-.05,1.99-.08,2.89-.11.34-.01.68-.02,1-.03,1.69-.03,3.17-.04,4.47-.01.27,0,.54.01.79.02.28.01.56.02.83.03.19.01.38.02.55.03.25.02.5.04.74.06.16.01.32.03.48.04s.31.03.46.05c.3.03.59.07.87.1.27.04.54.08.79.12.25.04.5.09.74.14.01,0,.02,0,.03,0,.2.04.4.09.59.14.27.07.52.14.76.21.14.04.27.09.41.14l.39.14c.65.24,1.24.51,1.83.81.2.1.39.2.59.31.52.28,1.04.58,1.61.9,4.88,2.76,5.42,17.67-10.74,20.37Z"/>
        <path class="cls-5" d="M281.83,15.24c11.83-3.92,20.88-15.34-10.35-20.64-10.83-1.84-24.59,9.56-69.56,6.3-44.98-3.26-76.12,6.73-80.37,4.26-4.26-2.48-20.37-1.63-33.8,1.11S45.56,4.44,25.65.83C5.73-2.79-4.59,7.32-1.88,10.27l-.96-.09c-2.05-2.72-2.71-5.16-2.62-5.84.06-.45.15-.88.25-1.27.09-.34.19-.67.31-.97.07-.18.14-.35.22-.52.07-.16.15-.31.23-.45.17-.3.35-.58.55-.85.1-.14.2-.26.31-.39.14-.17.29-.32.45-.47.11-.11.23-.21.35-.31.14-.12.29-.24.45-.35.12-.09.25-.17.39-.25.19-.13.41-.25.65-.38.14-.08.28-.15.43-.22.55-.25,1.15-.48,1.8-.66.39-.11.79-.21,1.2-.3.4-.08.82-.16,1.25-.23h.03s0,0,.02,0c.2-.03.41-.06.62-.09s.42-.04.64-.07c.23-.03.47-.05.71-.07.11,0,.23-.02.34-.02.38-.03.77-.06,1.18-.07.28-.02.56-.03.84-.03.28-.02.57-.02.87-.03.19,0,.38,0,.58-.01,6.81-.09,15.82.66,26.71.57,19.74-.17,42.07-.28,59.6.16,17.52.44,24.52,1.64,51.86,2.5,1.7.06,3.33.1,4.91.13.53.01,1.05.02,1.56.03.82.02,1.62.03,2.41.04.4,0,.79.01,1.18.02h.04c.78.01,1.54.02,2.29.02,1.79.01,3.51.01,5.17,0,.42,0,.83,0,1.25-.01h.99c.66-.02,1.3-.03,1.94-.05.9-.01,1.79-.04,2.67-.07.44-.01.88-.02,1.31-.04.44-.01.87-.03,1.29-.05.43-.01.86-.03,1.28-.05.85-.03,1.69-.07,2.53-.11.42-.02.84-.04,1.25-.06.42-.02.83-.04,1.24-.07.42-.02.83-.04,1.25-.07.41-.02.82-.04,1.24-.07,1.66-.1,3.32-.2,5.02-.32.81-.05,1.62-.1,2.45-.17,1.36-.09,2.75-.19,4.18-.29l.42-.03c.73-.06,1.48-.1,2.24-.16,1.2-.08,2.43-.17,3.7-.25l.63-.05c.87-.06,1.77-.11,2.68-.18.12,0,.24-.01.36-.02.25-.02.48-.03.68-.04.02,0,.05,0,.07,0,.06,0,.12,0,.17-.01l.45-.03s.09,0,.14,0c1.12-.07,2.26-.15,3.44-.22,24.55-1.51,40.1-4.34,56.85-5.34,1.85-.11,3.54-.2,5.09-.26,1.02-.05,1.98-.09,2.89-.11.34-.01.68-.02,1-.03,1.69-.04,3.17-.04,4.47-.01.27,0,.54.01.79.02.28.01.56.02.83.03.19.01.38.02.55.03.25.02.5.04.74.06.16.01.32.03.48.04s.31.03.46.05c.3.03.59.07.87.1.28.04.54.08.79.12.25.04.5.09.74.14.01,0,.02,0,.03,0,.2.04.4.09.59.14.27.06.52.14.76.21.14.04.27.09.41.14l.39.14c.65.24,1.24.51,1.83.81.2.1.39.2.59.31.52.28,1.04.58,1.61.9,4.88,2.76,5.42,17.67-10.74,20.37Z"/>
        <path class="cls-3" d="M3.44,12.22c-1.06,4,12.48,5.52,19.53,4.15,7.05-1.37,17.42-3.78,13.35-5.08-4.07-1.3-11.48,1.67-16.66,1.3-5.18-.37-15.44-3.32-16.22-.37Z"/>
        <path class="cls-3" d="M82.51,18.48c-2.36,4.72,18.52,8.52,24.44,7.04,5.93-1.48,17.03-4.81,11.48-6.11-5.55-1.3-10.72,2.96-18.14.93-7.42-2.04-15.93-5.55-17.79-1.85Z"/>
        <path class="cls-3" d="M197.09,3.43c-7.89.04,3.72,4.58,9.66,4.58s15.85-.28,21.95-1.77c6.1-1.49,8.52-3.76,3.32-2.81-5.2.95-13.01,3.25-18.39,2.29-5.39-.96-11.71-2.31-16.54-2.29Z"/>
        <path class="cls-3" d="M243.28,1.2c-6.87.18-6.87,3.25-1.11,2.04,5.76-1.21,4.65-2.14,1.11-2.04Z"/>
        <path class="cls-3" d="M270.67,9.4c-.8,4.56,7.06,5.85,9.48,3.99,2.42-1.86-8.93-7.15-9.48-3.99Z"/>
        <path class="cls-4" d="M156.26-.22c.4,0,.79.01,1.18.02-14.62.63-27.73,1.19-31.34,1.4-8.7.49-29.53-2.52-38.35-1.72-8.82.81-22.49-.19-39.98,0C30.32-.35,10.04-3.65,3.42-3.26h0s0,0,.02,0c.2-.03.41-.06.62-.09s.42-.04.64-.07c.23-.03.47-.05.71-.07.11,0,.23-.02.34-.02.38-.03.77-.06,1.18-.07.28-.02.56-.03.84-.03.28-.02.57-.02.87-.03.19,0,.38,0,.58-.01,6.81-.09,15.82.66,26.71.57,19.74-.17,42.07-.28,59.6.16,17.52.44,24.52,1.64,51.86,2.5,1.7.06,3.33.1,4.91.13.53.01,1.05.02,1.56.03.82.02,1.62.03,2.41.04Z"/>
        <path class="cls-4" d="M166.77,3.43c-3.64.12-7.76.4-12.43.86-23.35,2.35-27.83,22.49-45.25,24.42-.58.07-1.15.11-1.73.15-.14-.07-.22-.12-.22-.12,1.95-.02,14.63-3.22,18.96-13.5,4.32-10.27,41.33-12.74,40.67-11.81Z"/>
        <path class="cls-4" d="M89.8,26.01c-14.76-5.02-28.52-14.77-38.49-14.98-8.3-.17-8.68,2.87-14.5,5.33,1.41-.73,11.42-10.39,19.3-8.36,7.91,2.04,22.95,14.03,33.69,18Z"/>
        <path class="cls-4" d="M275.55,15.15c-10-2.32-11.7-15.11-28.66-10.99-1.49.36-2.93.7-4.32,1.02,4.49-1.11,14.25-6.42,17.88-3.93,3.66,2.5,6.61,10.67,15.1,13.9Z"/>
      </g>
    </g>
  </g>
</svg>