<?xml version="1.0" encoding="UTF-8"?>
<svg id="Layer_2" data-name="Layer 2" xmlns="http://www.w3.org/2000/svg" viewBox="0 0 977.58 988.76">
  <defs>
    <style>
      .cls-1 {
        fill: #fff;
      }

      .cls-2 {
        fill: #59fd53;
      }
    </style>
  </defs>
  <g id="Layer_1-2" data-name="Layer 1">
    <g>
      <path class="cls-1" d="M498.6,129c178.43,0,243.76,293.42,229.44,384.99s-45.63,260.01-232.12,258.07-254.62-190.83-228.6-340.56,111.82-302.5,231.29-302.5Z"/>
      <path class="cls-2" d="M408.53,355.01c13.7-3.43,28.03-5.05,41.97-2.77,14.01,2.29,27.35,8.57,38.07,17.89,6.97,6.06,12.89,13.44,16.6,21.9,2.05,4.66,3.49,9.74,6.84,13.57,4.56-.82,9.11-1.63,13.67-2.45,12.15-2.18,25.5-4.17,36.18,2.03,5.56,3.23,9.72,8.34,13.75,13.35,6.81,8.45,13.62,16.9,20.43,25.35,6.42,7.97,13.15,16.7,13.57,26.93.28,6.73-2.25,13.24-5,19.39-8.88,19.85-20.54,38.45-34.52,55.1-5.6,9.01-11.19,18.02-16.79,27.03-2.74,4.41-5.94,9.17-10.96,10.5-3.3.87-6.59,1.74-9.89,2.61-4.78,1.26-9.8,2.66-13.28,6.16-5.76,5.79-5.46,15.21-9.36,22.38-4.18,7.67-12.91,11.99-21.58,13.01-8.67,1.02-17.4-.78-25.92-2.71-11.54-2.46-23.04-4.93-34.53-7.4-11.99-11.93-23.96-23.88-35.93-35.82-12.25-12.21-24.64-24.61-33.36-39.55-5.61-9.61-9.58-20.08-13.52-30.49-5.49-14.52-11.03-29.23-12.81-44.65-1.51-13.13-.09-26.56,3.89-39.15,3.44-10.88,9.02-26.11,19.82-31.45,5.35-2.64,7.88-4.26,10.68-9.9s5.57-11.07,10.49-15.62c8.66-8.01,20.21-12.44,31.49-15.26Z"/>
      <g>
        <path d="M252.27,326.16l.29-1.18c-.16.44-.25.83-.29,1.18Z"/>
        <path d="M700.61,914.45c-1.04-24.2-3.56-51.79-6.05-75.95-1.01-9.75-8.33-24.57-10.99-34.5,2.55-.58,1.75.67,2.59,1.87,4.67,6.65,7.45,14.78,13.91,20.12.74.16.68-1.05.49-1.48-.63-1.39-5.8-6.94-7.41-9.59-3.69-6.06-10.58-18.57-10.58-25.42v-14.5c1.93-.45,1.92.7,2.82,1.68,4.25,4.66,6.5,11.31,11.17,15.32-1.45-8.19-9.31-14.15-12.72-21.61l.74-26.39,2.33,1.16c9,13.64,21.73,24.78,31.62,37.38,9.51,12.12,14.8,19.83,25.55,31.45,2.29,2.48,4.93,9.54,8.5,8.63,5.18-1.32,1.11-5.13.91-9.09-.18-3.45,1.08-6.56,1.13-9.97.16-10.59-1.41-20.97-1.06-31.54l-1.98,16.51-1.51,30.49c-1.73-3.59-6.03-6.08-7.96-9.04-12.92-19.75-25.12-33.19-39.51-51.49-1.97-2.51-11.3-14.4-11.83-16.19-1.14-3.8,1.23-6.48,1.73-9.85.38-2.6-.33-5.43.12-7.88.41-2.25,2.97-4.6,3.58-7.52.38-1.86-.42-4.56-.13-5.07.83-1.46,5.27-2.06,5.53-6.53.24-4.22-3.43-1.9-3.01-5.41,7.72.89,14.98,11.85,20.67,14.92,2.01,1.08,4.13-.06,4.32.08-6.8-4.54-3.47-3.02-5.75-7.66-2.16-4.4-6.78-8.2-8.25-13.33,1.7-1.59,9.59,8.22,10.98,9.51,2.03,1.9,4.67,2.24,6.49,4.51.66.82,5.99,11.49,5.53,11.96l-8.99-4.99c.17.11.39,2.2,1.94,3.54,2.04,1.77,9.58,7.83,11.58,8.44,3.03.92.83-4.58.72-5.74-.47-5.01,2.41-.66,4.44.58,4.04,2.47,9.39,4.15,12.82,7.18,5.85,5.18,9.16,13.11,13.99,19.01,4.29,5.23,11.09,8.63,14.53,12.47,2.26,2.53,3,7.48,5.97,9.51,2.32-9.31-12.61-15.69-18.38-22.1-4.98-5.53-9.22-14.37-14.08-19.92-7.41-8.47-20.08-14.69-28.05-22.95l.77-2.8c4.4-.62,7.46-2.91,10.74-5.72-1.12-2.15-4.21-2.2-5.47-3.51-3.17-3.3-.63-8.79-10.37-7.12-2.19-2.47.62-4.55.42-5.93-.52-3.59-7.02-8.89-8.09-12.92-2.73-10.29,3.14-24.65,14.03-15.05,2.71,0-.85-5.19,1.98-3.97,5.26,2.28,2.95,5.32,3.96,10.05.87,4.07,2.98,7.26,7.55,6.94l.5-4.99,18,13,17.51,9.98c1.2-1.08-16.62-13.2-18.02-14.47-2.32-2.1-3.67-4.82-5.95-7.05-4.58-4.49-12.49-8.12-12.6-15.5,9.76-5.71,12.35,4,20.57,6.03-.59-2.37-3.99-2.93-5.12-4.45-1.03-1.39,1.17-3.46-2.88-5.53l18,2.98-3.99-3c-.27-1.64,1.31-.98,2.36-.87,11.98,1.2,22.16,11.53,33.63,14.88-8.83-6.22-18.72-10.75-27.72-16.77-3.39-2.27-6.32-5.55-9.36-7.64-11.18-7.67-27.61-16.86-37.41-25.59-.97-.87-5.47-6.2-4.5-6.99,1.25-.34,8.99.34,8.98-1.51-1.89-2.09-5.26-2.24-7.56-3.41-1.06-.54-1.88.52-1.43-2.09,3.85.98,7.38-2.99,10.47-3.07,1.66-.04,11.44,3.15,12.53,2.06,2.07-2.08-2.53-1.6-1.99-2.99l3.99-.02-11.98-6.49,5.99-2.52.97-1.97c.37,2.08,3.51,6.67,6.01,5.5-3.1-4.76-8.29-7-10.99-11.49l14.99,7.99c1.16-1.44-5.54-8.82-7.02-9.47-4.57-2.04-17.75-.64-15.8-9.8,2.25-10.53,14.22-2.73,19.92-.32,1.05.44,2.28-.02,3.48.54,3.44,1.6,5.55,7.46,7.45,8.62,1.46.89,3.36-.59,4.04-.13,1.23.84.67,4.22,2.92,4.57-.12-1.41-.36-4.24-.97-5.33-.61-1.1-2.21-.3-3.09-1.3-1.38-1.58-3.71-7.34-5.04-9.53-.85-1.4-3.53-2.2-2.89-4.83,4.08,1.84,8.95-2.98,12.44-3.06,1.01-.02,7.63.34,8.59.5,3.69.61,7.29,2.8,10.96,3.55-1.7-3.14-5.96-2.89-9.06-4.47-1.46-.75-2.42.01-1.94-2.51l7.51,2.97,3.51-3.53-.22-2.3-2.54-1.57.74-3.58c.4-.4,5.28,2.67,5.99-.98-2.57-2.4-12.05-.74-12.81-1.19-2.98-1.74-2.61-9.37-3.2-9.82-1.93.3-4.73,2.76-3.74,4.77.12.24,3.08.59,1.74,4.22-1.54.35-.72-1.36-1.68-2.04-.84-.59-2.39-.49-3.07-1.18-2.33-2.31.39-12.24-8.24-10.79l1.01-3.99h-3.02c1.3-4.2-1.8-7.76,0-13l-3.84,2.64c1.75,3.48,1.59,5.54.8,9.3-3.41-1.15-5.79,1.44-7.73,1.87-1.47.32-10.7-2.54-9.14-4.75.25-.35,2.88.68,1.92-2.06l-4.89-1.58,2.38-8.42,3.74,8.77,11.77.22-2.01-4.99-4.98,2c.47-3.84-3.29-5.79-1.04-9.48l-3.96-1.02c3.86-2.8,9.44-7.66,13.99-5.51l-1.01-2.98,4.01-2c-6.66-3.07-8.2,4.81-12.6,5.01-2.25.1-4.01-2.24-4.35-1.98-.17.13.26,2.87-3.05,1.97-.4,1.82,1.69.63,2,1,1.04,1.23-7.44,5.1-5.99,1.51.91-2.25,4.39-4.32,3-8.52l2.98,2-.82-8.78c4.3-1.82,6.43-5.49,2.83-9.21,8.23,1.19,13.44,7.36,16.21,14.77,7.17.88,12.08,5.82,19.78,4.21-.9-2.2-5.11-1.25-6.96-2.52-1.65-1.13-1.54-3.88-2.22-4.31-2.1-1.33-1.76-.36-5.28-3.15-6.79-5.4-9.36-9.76-14.53-16.51l6.99-.48-7.99-2.52.51-2.49,19.48,4.99-11.99-4.5-10.01-1.5,3-2-1.57-3.98c2.81-3.4,7.23-5.11,11.57-5l-2.81,3.64c-.65,3.04,11.3,9.69,14.09,10.57,2.61.82,5.14.38,6.98,1.02,9.1,3.12,18.01,7.53,27.74,8.75l-40.97-15.51c-4.19-5.62,9.03-3.69,8.96-5.98l-12.99-4.51c-1.29-6.94,14.34-11.91,19.74-12.75,4.34-.68,21.5,1.21,23.62-.31,1.72-1.24,1.91-1.79,1.64-3.93-3.81-1.69-4.47,2.55-5.41,2.71-2.15.38-5.37-1.21-5.6-3.71l3.01-.02c-3.46-4.1-11.4-1.78-16.5-1.99-2.41-.34,1.86-6.34,5.11-6.72,6.67-.79,17.09,7.14,24.39,3.71.11-4.19-5.5-3.87-7-6.98l7.01-1.51c-3.72.48-3.98-3.18-6.34-2.36-1.96.69-7.09,8.25-8.66,6.85l-1.67-5.04-13.34,1.03,3.99-1.98c-5.85-1.02-11.15-1.61-17,0l1.93,3.4c-1.03,3.34-6.95,8.95-10.41,9.18-4.12.28-.79-4.65-5.02-3.61-.32.08-.79,3.33-3.49,2.01l3.99-9.99c-3.62,1.67-13.57-1.98-11-7-13.85,1.95-9.6-11.9-.07-15.14l-.93-3.86,2.52-1.02c.65.96.26,2.09,1.91,2.1,4.45.03,10.94-2.77,13.55-6.58l-5.92-2.57-.05-6.45c-5.04.49-8.46.16-12-3.98l4.98-5.49c-5.25,1-7.64,5.7-13.99,3.98l1.99-2.99c-5.71,2.63-6.73-.34-3.02-4.31,1.43-1.53,25.64-16.7,27.8-17.61,2.07-.87,6.35.13,8.22-2.59-5.15.45-10.31.33-15.49.46-1.17.03-3.72.84-3.5-.94l10.99-4.51c2.24-2.07.5-5.97,1.9-8.02,1.7-2.47,5.6-3.13,7.09-5.48-4.28-1.71-13.85,8.29-16.35,7.88-2.83-.98-2.91-4.32-4.38-5.93-3.87-4.23-11.85-5.6-15.26-11.47,3.29-2.61,8.95,4.46,9.49,4.48,2.51.13-1.04-8.15.51-9.97-1.73.41-3.99-1.01-5.39-.76-2.37.43-5.48,5.77-6.94,5.65-5.77-.45-3.11-5.93.32-7.89-5.32-.34-7.41,2.51-11.99,3.99l.89-3.88-2.87-1.61c3.15-1.3,2.07-4.49,2.63-5.5,5.84-10.49,12.56-9.16,23.35-9.99l-1,2.98c4.66-.91,8.97-3.34,13.51,0,1.36,1.82-4.59,3.58-5.24,4.29-1.57,1.74-3.31,8.37-6.27,10.23l1.47,1.47,20.18-18.84,1.82-.2,1.89,1.97c4.65-2.56,8.58-8.13,14.21-8.88,6.12-.81,13.37,3.55,19.41.95l-17-1.99c-.04-7.02,10.05-4.08,13-9.99l-17.99,3.98.48-2.01,135.51-109.49c-.93-1.6-2.24.37-3.1.91-3.63,2.26-7.33,4.7-10.81,7.19-26.17,18.69-50.08,40.03-74.59,60.41-15.83,13.16-32.32,25.64-48.01,38.99l-3.42-4.49-4.05.5,1.99-4.99-11,4.01c1.23,3.76,3.44,7.99,8.01,8l-1.01,5.99h-2.98s-1.03-6.01-1.03-6.01c-6.45,3.59-13.54,3.47-15-5l-3.92,3.6-4.57-1.59c-4.04-6.68,9.54-12.73,7.5-15.01-4.44,3.41-7.53,6.25-12.99,8,.33,1.41,6.15,4.21,3.99,9-4.17-2.7-7.47-1.57-11.98-1.01-1.02-3.52,6.03-2.28,5.98-4.5-.03-1.24-4.72-.99-1.99-3.02,1.16-.84,3.1-.19,4.01-.48-.39-1.63.29-4.18-.01-6-3.25,4.62-18.2,1.5-18.9,4.58l.91,3.37-12,4.05,3,2.49-5.99,2.51-.13-3.93c-9.15-.78,2.71-14.6,1.63-20.06-10.78,4.12-10.59,23.27-23.5,22.99-.89-2.85,2.37-4.87,2.78-6.74.28-1.26-.7-2.75-.47-3.62,1.35-5.2,2.4-9.35,5.68-13.63-2.31-1.73-6.46,5.64-9.06,6.49-.97.32-4.56-.26-4.85-.59-1.98-2.24,3.38-7.31,1.41-9.9-3.86,3.35-2.51,11.19-9.5,10.99l3.99-4.01c-.35-1.82-1.64-1.66-2.99-.99v-5.01s1.85.88,1.85.88c.79-5.58,12.3-9.87,5.71-14.94-4.15-3.2-3.36,1.74-6.56,3.07-1.31-3.8.37-8.41-5.02-4.49-.5,2.18,1.78,1.1,2.02,2.14.2.87.15,5.09-.06,5.3l-6.94.04,1.99-3.97-3.97-2.62,1.96-4.4-3.99.99,4-3.49c-1.91-3.49-4.38.86-4.98.49-.2-.12-.51-3.04-3.01-3l-.99,3c.51-2.59-2.75-1.88-3.59-2.93-1.03-1.27.18-3.2.06-4.61-.06-.74-1.21-1.52-1.18-1.96.1-1.42,3.74-2.64,3.47-4.8-.96-3.98-4.1-4.66-2.77-9.7-3.06-.69-1.53,2.31-2.94,4.54-2.76,4.38-6.05,2.41-4.06-2.55-3.15,2.9-6.91-2.29-7.56-4.96-1.19-4.92,4.64-14.4,4.58-20.52l-3.01-1.5c7.82.15-1.15-6.28-3.86-7.17l.86-1.83c-3.66-.65-.15,3.89-4.82,3.12l-.21,3.38,3.03.5-2,2.98,3.73-.26,1.26,2.25h-4.99s-.01,3.02-.01,3.02l-2.99-1.02-1.49,3c-2.48-2.79-1.91-5.69-6.37-6.12,1.1-8.04-1.83-16.62,2.09-24.14.99-1.89,3.81-3.44,3.79-5.23,0-.54-1.63-.36-1.96-1.24-.43-1.16-2.91-10.75-2.86-11.48.19-3.03,2.95-5.88,1.8-8.77,3.45,1.24,6.71-1.02,9.5,1.97,4.98-4.94-.76-7.1-1.92-12.15-2.26-9.88,7.34-16.41,5.4-26.82l-14.76,28.72c.41,7-4.84,10.47-5.74,15.28-.42,2.25.79,5.04.36,6.3-.73,2.11-8.9,4.54-2.81,7.2l-2.07,3.99c3.13.89,1.95,3.07,2.1,5.95-4.12.55-3.52,2.9-4.08,6.55-3.55-1.27-2.99-6.62-6.98-7.01l6.99-1c.42-1.58-1.24-.6-1.7-1.29-.62-.92-.15-2.5-.32-2.67-.62-.64-17.86,3.22-6.99-6.53l-2.49-2.5-2.09,2.96-5.4-1.96c.91,2.87,1.04,4.92-1.51,6.98-1.59-1.15-2.91-3.58-4.57-4.44-1.97-1.03-7.41-1.57-9.9-4.07-1.54-1.55-2.19-5.58-5.02-6.98l2.48-.47.51-2c-2.86.28-2.67-4.41-4.93-2.94-.33.21.7,2.87-2.05,1.91-.25-2.28,2.26-2.73,1.88-5.26-.6-3.94-6.63-4.97-.88-9.71l-4.51-4.02-1.48,4.49-2-.51c-1.01,2.52,1.86,1.92,2.02,2.5.96,3.65-1.54,1.88-2.69,2.79-.87.68-1.02,2.23-2.58,3.02-4.21,2.13-11.63-2.58-7.21-3.26.9-.14,3.33,1.95,4.45-.56.83-1.88-3.22-2.6-4.28-2.34-2.65.64-3.48,5.86-6.2,5.45-1.13-.17-1.44-1.82-3.46-1.15-3.36,1.11-4.82,5.83-7.58,6.54l-10.48,1.01c-.57-1.78,1.47-2.33,1.6-3.47.12-1.06-3-8.68-3.29-11.12-.34-2.78,2.65-6.46-2.3-8.4l-1.02,5-6.93-1.96-1.64,7.08c-2.04.58-4.7,1.39-6.77.91-1.01-.23-.08-3.07-2.65-2.01,3.75,7.34-3.73,10.27-9.98,9.54-2.63-1.66-4.26-8.59-4.94-9.13-1.92-1.5-10.34,1.49-8.07,5.58l1.62-2.03c3.13-.75,7.16,1.47,7.36,5.04-.97-.74-3.42-.75-3.81-1.21-.72-.86.71-3.11-1.17-2.78-.9,1.46-2.25,5.24-3.03,6.26-.95,1.23-3.37.21-3,2.72l-2.57-5.54,1.07-5.47c-1.37,1.19-5.98-.07-6.3.14-.48.32-.4,2.26-1.82,2.75-.87.3-2.33-.55-3.46-.3-5.34,1.2-3.53,4.06-3.9,4.42-.42.41-3.08-.84-4.32-.68-2.57.33-5.32,4.4-7.17,3.67l-.98-4-2.05-.19c-1.15-.59-.76-3.97,1.01-4.5,1.01-.3,3.05,2.4,2.51-1.29l-7.54-.94-.45-11.04-4.04-.54c-1.2,3.67-9.28,11.95-12.98,9-3.24-2.58.94-3.78,1.02-4.15.37-1.74-.13-3.66-.46-5.39-.41-2.18-5.36-13.85-6.52-15.47-1.93-2.72-12.41-7.07-15.4-6.53-.99.18-.03,3.15-2.62,2.06l-1.51-3.98c-3.57,3.92-10.26-.52-3.94,6.97,2.6-1.35,3.45-2.36,6.44-.98l-3.99,3.47,4.48,2.56,1.5-2.04,1.02,3.99c-7.3-.07-11.88,7.49-19.01,8.02l2.02,5.99,1.97-.48-.98-2.51,7.99-2c-.1,2.36,1.22,3.66,2.01,5-.06-2.45,1.17-6.55-1.99-6.01v-.97c3.32,1.52.73-5.05,3.48-4,5.87,2.24.51,9.89.48,11.49-.01.69,2.74.08,2.03,1.99l-1.98,1.51c.47-2.18-1.66-3.41-2.01-4,.19,8.08-.39,9.52-5.02,15.99-7.12-1.01-2.97-7.62-4.47-10.97-1.25-2.79-5.93-3.54-6.43-4.16-.25-.31,1.26-7.11-1.53-7.62-.23-.04-4.54.57-3.54,2.25.6,1.01,2.49,1.13,2.79,1.7.62,1.16-.1,2.86.21,4.12.21.86,1.88.65,1.86,1.12-.19,5.25-2.65,7.82-7.83,6.51l-.05-5.94c-2.25.45-1.45,2-1.68,3.2-.96,5.12-2.85,3.85-6.3.8-.16,2.22.53,4.96-.5,7.01-1.46,2.92-6.62,1.07-2.73,8.71,1.27,2.49,3.89,4.21,5.72,6.27l-.5-3.99,2.5-.02,3,6.01.52-1.97c3.31.09,3.07,4.91,6.71,6.42.3,1.48-1.64,3.24-1.73,3.55-.95,3.36.01,8.79,1.54,11.96.85,1.77,4.11,2.61,3.34,5.31l-9.91,14.71c-3.4-.65-5.79-2.49-7.95-4.98,1.77,2.54-.74,4.83-.56,6.05.2,1.37,2.39,3.59,2.56,4.47.1.53-1.52.34-1.96,1.22-.88,1.76-.05,4.53-3.03,4.28v1.96c5.65,1.87,1.11,3.26,1.03,3.65-.45,2.08,1.1,6.03-4.04,6.37l-.3-7.53-4.7-1.46,1.99,1.98-4.99-.99,1.98,1.99c.07,1.67.55,2.21-1.44,1.97-6.47-.77-9.05-7.01-15.55-7.96.62,4.46,5.33,4.96,7.05,6.7.51.52,4.94,11.18,4.97,11.88-2.13,3.79-1.15,8.88-4.52,11.33l-2.49-1.92c2.71,5.61-3.05,4.99-4.03,8.98l-1.96-.46c2.64-4.41-1.52-5.44-3.96-8.13l1.93-6.38-5.49,8.99.47-5.95-5.98-1.62c-3.04,3.3-3.08,7.27-2.98,11.58l5.53-4.97c4.55.86-.76,2.44-1.62,3.41-.8.91.39,2.35-1.53,3.37-2.08,1.11-5.05,1.25-7.39,1.18.81-3.71.31-5.72-1.55-8.96l-.68,1.81-1.85.7c-.13,1.52,3.66,5.94.58,5.45l-9.5-10.51,2.88-2.83c-2.18-5.25-5.65-6.68-10.88-7.66-1.27,1.26,7.43,7.75,2.49,7.01-2.68-.4-15.28-8.02-16.49-7.01,1.78,5.68,6.16,4.66,8.73,6.26,1.48.92,8.51,11.29,7.26,12.73l-2.99-1c.87,3.57-3.63,3.3-3.04,6.99-1.56,1.51-19.34-13.26-22.41-15.04-2.27-1.31-6.89-3.2-9.55-3.94,2.45,1.54,3.21,5.76,4.42,6.98,4.65,4.7,15.49,9.27,20.57,14.52-6.16,1.48-12.01-6.91-15.51-8.5-.43-.2-1.64-.25-1.48.49l7.99,7.01c-4.33,1.09-7.35-3.57-9.97-6.04-2.77-2.61-6.76-4.96-7.62-8.46-3.06-12.41-12.76-20.81-20.43-30.74-1.1-1.42-1.34-4.07-2.95-5.79-2.72-2.91-6.93-2.39-9.56-4.44-2.35-1.83-4.8-7.65-8.46-9.03-.42,2.02,1.81,2.53,1.91,4.43.07,1.37-1.05,3.25-1,5.06.18,6.62,2.69,12.9,3.08,20.02.2,3.82-.14,7.68.01,11.49,3.95-2.97.22-12.09.09-16.57l1.94-1.05c.77-5.09-1.91-5.15-2.84-7.06-.64-1.32-1.77-8.67-1.2-9.32,6.67,2.66,10.24,8.83,10,15.99,4.25-.17,3.71-1.54,4-4.99,2.42-1.88,8.15,10.68,9.99,11.98l-3.95.11-.56,2.95c-3.25.66-6.05-1.86-7-1.79-1.69.13-2.46,5.11-6.47.74l-1.02,3.99,3.05.52c.13,1.54,3.47,6.88,4.9,7.03,9.46-4.97,15.35-5.7,20.87,4.14,2.76,4.91,2.13,8.28,3.74,12.26,1.79,4.43,7.28,11.28,8.21,15.79,1.2,5.78-1.07,10.53-.84,15.79.12,2.75,2.4,7.53,2,8.87-.72,2.45-6.78,1.89-8.34.73-1.21-.89-.28-6.8-3.59-4.62l1.99,3.5c-7.45.07-12.94-7.31-20.52-8.97-2.49-.55-.87,1.12-.46,1.97-2.35,1.28-18.78-9.69-21.91-11.59-.85-.52-2.15-2.52-3.09-.91,1.92,2.21,4.59,3.41,6.89,5.11,7.38,5.43,15.12,9.27,22.98,14.02,4.95,2.99,16.89,8.96,18.66,14.35.17.5.13,4.85-.02,5.05-1.99,2.59-4.45-.77-6.5.47,5.32,5.5,13.91,9.31,18.46,15.54,1.19,1.63,5.94,8.7,6.74,10.26,1.85,3.57,1.6,7.7,4.73,11.07l-7.1,8.45-2.34.21-.65-1.82-2.84,1.29,2.98,1.99c-.31,2.9-3.73,3.05-4.82,1.3-.94-1.5,1.03-3.78-3.68-5.78-1.47.56-2.42,5.63-3.97,4.98-2.01-.85-.29-2.82-.77-3.7-.2-.38-2.34-.72-2.04-3.12l-.7,2.82-5.99-2.99,1.99,3.99-3.99.5,4.97,2c-2.4,1.63-.97,4.11-1.29,5.3-.05.18-1.66-.09-1.81,1.67-.21,2.6,1.11,4.98,1.12,7.54h-3c-.69,3.17,2.85.99,2.04,4.48-.19.71-7.88,4.87-9.07,6.07-.76.77.29,3.08-2.94,3.94l2.95,1.58c-2.35,7.27-6.77,1.28-11.96,1.93l8.99,7.98c-2.53.12-3.63.67-4.49-1.99-3.13,3.17-7.06,4.54-11.5,4l1.99,3.99c-7.21-2.07-4.88,1.24-6.27,3.72-.22.39-2.95,1.83-3.23,3.28l-2.49-4.98c2.74-.36,4.41-2.15,3.98-5.02-4.21,4.13-6.9-.81-7.7-.98-3.25-.7-6.27,1.86-9.28-.02,3.03,7.06-3.84,11.97.96,18.51l-3.97,1.98c2.5,1.5,1.49,4.15,2.32,6.22.11.27,1.35.31,1.83,1.66,1.2,3.34,1.6,7.25,2.83,10.62-1.51,1.59-16.41-10.76-15.01-14.99-1.63-.44-.61,1.41-1.16,1.75-1.1.67-2.59.18-3.82.26,2.02,2.71,4.22,1.28,2,5.47l2.99.52-1.75,4.52c.03,1.42,6.76,6.22,8.43,6.29,1.44.06,6.35-4.34,8.32-.3,1.47,3.01-7.9,2.47-8.99,1.49l3,4.47c-1.96.96-7.97,6.54-4.99,8.52,3.13,2.08,3.79-3.81,5.68-4.81,1.28-.68,6.22-1.43,7.75-1.2,4.54.68,3.08,5.4,3.63,5.94.27.27,3.5-.02,4.98.51,4.02,1.44,10.51,8.53,13.95,3.05l-3.01-1.01c1.52-5.08,4.74-5.98,8.99-7.99l-3.3-1.47-.67-3.03,15.01,2.48-2,8.04c-2.37,1.89-2.93.95-5.01-.53l-2,3c-.01-4.27-3.04-4.08-6-6l.99,6.98-2.99,1.01,2.74,2.53c-8.05,10.51-25.55,1.6-36.38-.45l-21.38-.57c4.49,1.7,10.95,1.55,15.28,2.73,8.39,2.29,29.1,8.91,36.27,12.73,6.24,3.33,3.23,5.44,3.56,5.94,1.09,1.61,9.34,2.54,11.14,3.16,1.13.39,9.81,8.26,7.77,9.93-2.14-.07-4.47-.79-4.02,2-1.92.02-1.28-4.26-2-4.99-2.35-2.4-1.13,2.78-2.51,3-6.18-5.54-10.2,2.03-4.96,2.98,4.59.83,9.17.7,13.48-.98l.55,3.02-1.56,1.47c-4.99-.33-5.87,3.78-10.55,4.45-3.03.43-6.36-.14-9.43.05,1.02-2.62,5.76-1.87,7.99-2-.05-1.49-4.66-2.06-5.55-2.06-3.33.03-3.8,5.08-9.44,3.08l6.86,2.15.76,3.9c4.82,1.18,8.4,2.2,13.37.93v4.01s5-1.99,5-1.99c-.98,1.44-1.24,5.7-1.88,6.52-.43.55-13.73,9.44-8.6,9.49l5.49-1.51c-4.66,3.7-9.89,7.61-15.99,8.52l1.99,1.48-5.99,3.01c-1.54,3.31,4.21,3.17,5.99,3.49.78-1.23-4.02-.91-1-2.5,1.76-.92,1.91-.18,3,1.03l-3,6.46,4.99-.99c1.45,3.67,1.05,6.33.02,10,2.93-1.1,3.83-6.45,2.99-8.99,3.41-.39,4.65,1.02,3,3.98.8.69,6.41-3.12,5.99.49-.51,1.25-14.03,9.71-13,4.52h-.98c.91,6.17-10.29,3.79-14.22,4.28-4.99.62-9.87,1.78-14.79,2.73v2.97c.49.61,6.96.7,8.29,1.06.84.23.68,1.79,1.4,1.96,1.26.3,6.03-.04,6.31-2-4.48,1.58-4.81-1.76-6.2-2.33-1.62-.67-4.72.08-4.79-1.67,4.14,1.36,7.19-.58,10.58-.93,7.75-.8,15.23.45,21.94-5.08l.93,2.01,11.54-3c-.35,2.46,1.23,8.91-1.61,9.89l-3.33.06-1.56-5.96c-2.91.04-4.19,4.84-2.49,7-2.31.65-4.48-1.98-6.35-1.81-2.37.21-3.57,4.07-4.67-1.18-2.37-.46-1.67.33-2.4,1.9l-5.58-.92,2.99-1.98c-2.45.01-4.92-.19-7.38.11-1.07.13-4.68.38-4.61,1.87l7.99.02-2.99,2.98c4.86-.39,6.64,6.09,11,4.01l-1-4.99c5.36,1.78,9.13,4.82,14.54,1.89l2.92,2.14,3.05-1.79,4.56,3.34-2.09,4.91,2,1-3.99,3.5,6.99-1.98-1.14,3.85-7.86,1.16c-.81,3.19,1.96,1.35,2.74,2.17.63.66.28,2.55,1.21,3.39l-1.95.44,2.02,3.49-2.01.52c3.01,1.9.08,7.66-2.12,5.33-1.01-1.06-.38-3.16-3.89-2.36l-.93,4.58-4.99.56c.24,4.34-9.23,6.53-13.08,6.87.93,6.28,4.64-.46,7.99,0l-1.98,2.49,3.98,1.49-1-2.98c5.73,2.39,8.25.83,14,0l-2.1,5.88-3.9.11c1.31,3.14,3.16,3.06,5.99,1.99.02,2.15-1.47,3.23-1.65,5.51-.2,2.59,1.34,5.11,1.18,6.97-.2,2.34-3.39,7.41-3.62,10-.33,3.66,2.42,7.98.61,11.53-1.31,2.57-18.8,9.74-21.79,13.2l-6.72.78c-.53,3.21,4.32,2.06,2.91,5.4-.49,1.16-5.21,3.8-5.86,6.15l-22.05,12.44c6.76-1.06,13.48-4.9,20.04-7.45,3.12-1.21,6.69-1.7,9.94-3.06,15.39-6.45,29.86-17.92,46.91-15.06,1.13.19,2.02-.38,3.1-.41-2.07,4.29-6.85,5.64-10.25,8.02-4.11,2.87-6.39,8.56-10.74,1.97v6s10.99-1.99,10.99-1.99c-1.29,5.29-1.64,9.5,2,13.98-8.81.86-18.15,1.64-25.98-3.49l2.97-3.5-7.99,5.99c9.19.67,18.09,4.66,26.8,6.71,4.57,1.08,21.71,1.38,22.27,6.82.36,3.5-4.3,3.5-4.34,7.2-4.9,4.04-10.99-2.57-13.23,3.26-1.74-3-6.79-1.01-7.56-1.47-.73-.43-1.03-2.43-1.95-3.02-5.13-3.31-5.46,5.23-7,8.49l7.99-1.99-.75,3.01-2.24.97,6.98,1.01c-2.13,3.76.91,6.61.64,9.01-.33,3.01-3.01,5.64-4.63,7.98,3.46-.26,5.78,2.68,5.99,6.01l-12,1.99,5-6.49c-4.47-.38-5.81,7.67-12.01,7.52l1.02,2.98-41,8,9.99.02-7.48,2,2.01,1.03c6.62-2.01,14.25-1.93,20.72-3.29,11.92-2.51,24.05-6.98,36.36-9.65,4.42-.96,20.94-5.02,23.93-4.94,2.2.06,4.39,1.68,6.99,1.87,2.2.16,10.35-2.2,8.99.96l-2.51,2.99,3.94.99,2-7.47,8.06-1.52c0,3.33.19,14.08,3.96,14.54l2.01-1.03-1.98-3.5,3.01.7,1.61,3.18,11.38-.87c-4.43,4.56-11.31,11.42-10.51,18.49.1.89,1.36,1.91,1.47,3.04.26,2.84-1.76,6.4,1.03,7.45,2-5.81.03-13.46,3.98-18.53,3.29-4.21,17.78-14.8,22.8-16.19,8.3-2.3,7.86,6.38.29,5.79l-.05,3.93c2.2-1.68,4.45-2.72,7.34-2,.9.22.23,2.6,2.14,1.99,3.29-1.06-1.59-3.83-.48-4.99,3.08.07,4.52,2.4,3,4.99,1.46,1.62,5.26-7.12,5.99-2.48.5,3.19-7.66,4.01-8,4.49-.26.37,2.54,5.43-1.99,7.98l3.5-1.99c1.46,3.06-4.79,12.9-7.98,12.98-2.64.07-10.81-5.35-7.51-8.97-6.42-.03-2.19-5.18-6.51-8l-2.48,2.48,2.91,3.13c.2,1.16-10.45,13.8-13.92,13.38l1.98.97-1.99,7c1.75.36,2.47-.9,3.51-1.98,2.99-3.11,8.01-10.87,10.96-13.04.87-.64,1.06-1.34,2.52-.97.75,4.7.85,9.47,5,12.5-2.48.48-1.82,2.96-2.96,3.96-.36.31-1.67-.46-1.87-.26-.17.18-1.9,4.26-1.93,4.5-.18,1.28,4.21,8.9,4.75,8.29l.5-3.09,2.5.1.02-4.01c2.36,1.36,2.9,3.89,5.98,1.99.1,2.82-.11,5.68,0,8.51.06,1.54-.94,3.96,1.48,3.48,1.77-1.16,1.42-2.68,1.57-4.44.2-2.52-1.65-10.3,1.95-9.55v30.5c0,1.46-6.17,12.42-6.99,15.02-.24,2.9,1.23.84,1.84-.16,1.48-2.43,1.65-5.92,4.13-7.36-.16,4.49.24,9.05.06,13.55-1.57,38.95-2.48,78.02-4.04,116.96-.5,12.49-.53,25.12-1.05,37.64.98.04,1.97.06,2.95.09-.02-2.26-.02-4.53.04-6.78,1.13-45.74,2.8-92.22,5.03-137.97.99-20.22.72-40.6,4.51-60.48l-2.41,205.39c1.34.02,2.67.04,4.01.04.07-31-.52-62.02-.14-92.98.03-2.36,1.05-4.55,1.08-6.92.48-34.15-2-75.7,2.07-108.93.75-6.15,3.55-15.58,11.61-13.19.19.06.98,2.51,3.28,1.59-3.26,3.75-.45,8.14-1.09,13.41-.33,2.77-2.01,10.53-2.85,13.14-1.13,3.49-4.25,5.75-5.06,9.43,3.78-.18,3.8-5.12,8-2.99-1.28-9.05,1.85-17.04,4.02-25.5.75-2.92-3.06.93-2-1.99.59-1.62,2.46-3.18,2-5.52,3.47-.79,2.16,3.96,3.27,5.72.74,1.18,8.42,4.86,7.68,6.73-2.63,2.12-3.46,4.11-2.97,7.55h4.01s-2,2.98-2,2.98c5.85.99,2.09,10.1,1.96,14.48-1.79,59.92,6.05,121.87,2.8,182.08,1.18-.06,2.36-.12,3.54-.19,1.29-41.39-1.59-83.46-2.33-124.79-.38-21.18-1.55-47.37-.02-68.1.14-1.92.53-3.63,1.08-5.44l4.39,1,1.58-2.51c-7.96-.44-6.31-7.78,2.38-7.16,5.35.38,11.51,7.23,17.73,7.27l.89,23.39c-3.07.76-1.74-2.45-2.99-4.29-.62-.91-2.99-1.98-3.51-3.7l-.93,1.98-5.05-2.98-1.52,2.99c2.98-.64,3.39,1.43,4.82,3.52.03,1.75-13.43,7.56-11.81,12.49l5.49-5,.99,2c1.71-.6,3.84-4.01,4.8-4.33,1.48-.49,4.75,1.72,7.7-.67.44,2.79,3,7.36-.98,8.49l6.99,8.01c-3.17,1.38-4.55-4.11-6.6-5.4-1.78-1.12-4.45-1.01-6.39-2.1-.34,2.77,3.21,2.38,5.5,3.99,1.19.84,2.8,2.66,3.49,4l-4.38-1.08-1.19,2.13-4.43-1.03,10.01,11.48c-.01,7.02,0,14.04.01,21.06,0,5.35-.01,10.58.02,15.91.26,35.73,1.14,71.48,1.08,107.25,1.21-.08,2.42-.16,3.62-.24l-1.74-134.47c7.1,1.53,3.84,5.63,4.08,9.39.61,9.32,3.51,18.69.87,28.06,1.35,13.84-1.68,30.61.04,44.06.18,1.37.75,3.14,2,1.49,2.03-13.39.46-27.04.96-40.55.17-4.41,1.92-9.5,2.08-13.92.22-5.74-3.65-15.94,3.94-16.58l.02-2.95h-2.28c-2.68-4.59,5.95-5.03,7.27-9.51l-4.99,2.49c2.54-5.81-3.99-5.06-4.84-7.65l-.16-10.34c5.57-1.61,13.16,7.84,13.95,12.56.41,2.45.37,8.39,0,10.88-.97,6.35-7.35,11.45-4.93,18.56,4.55-3.33,2.59-11.69,6.98-15,.23,21.16-.25,42.37-.03,63.54.2,19.18,1.88,39.01,1.77,58.39,1.08-.06,2.16-.12,3.23-.17.25-5.86.13-11.74.08-17.3-.16-20.58-1.08-41.33-1-61.92.12-29.38-2.56-60.01,3.25-88.27,3.36-2.2,3.25-6.98,8.7-6.26.57.42-6.95,11.54-2.01,12.98l4.68-11.07c3.78-2.06,9.09,0,12.65-1.1,2.13-.66,2.08-2.98,2.95-3.55,1.33-.87,6.01-.94,8.45-2.05,4.3-1.97,7.06-7.86,12.29-7.22-1.21-2.33-4.86-2.96-7.19-4.1-.8-.39-.83-1.88-1.41-1.88-2.4,0-4.5,2.57-6.4-2.01h15c-2.16,6.08,4.49,6.5,5.01,7.71.71,1.65,2.08,15.29,2.07,17.79-.04,15.28-5.08,33.45-6.07,49.01-.51,7.91.5,16.07-.02,23.98-1.44,22.03-7.13,43.75-5.94,65.95l2.93,9.55c.18-11.56-1.38-22.85.11-34.4,4.12-31.94,5.77-63.93,8.9-96.1,1.03-10.66.76-22.49,2.11-32.92.49-3.75,1.13-3.99,4.9-3.58.38-2.61-.11-2.55-2.03-3.59-.72-3.51,2.46-6.26,4.57-3.41,1.01,1.36-1.23,6.36,1.44,6.99,1.76-1.65-.78-10.66,3.5-8.98,3.22,1.26-.2,3.7-.27,5.29-.25,5.57,6.61.09,6.86-1.78.18-1.39-.21-3.06-.07-4.53l-4-.98c2.55.33,5.95-.55,8.31.01.74.18.59,1.73,1.4,1.94,5.72,1.47,11.41-.31,8.3,9.04,2.63-.83,5.28-1.13,6.99,1.51l-2.99-.5,4,10.99-2.95.05c1.64,11.89-4.41,23.69-6.98,35.28-2.6,2.67-5.38,1.39-8.07-.33-.19.21,1.52,6.17-1.49,4.99-2.44-.96.83-4.69-2.02-5.97l-10.48,6.48,8.92.59.55,2.9,11.49-6c-.12,1.55,2.39,4.96,3.93,3.92.12-2.26,2.81-2.71,3.46-4.19.91-2.08-.5-4.99.82-6.49.97-1.1,3.17-1.51,3.7.39,1.91,6.79-6.54,24.97-3.9,33.37l-2.98-4.99-1,4.99c-.94-7.78,3.37-14.02,1.98-21.99l-3.48,2.76c-2.16.17-6.31-6.96-7.5-3.24-.59,1.83,8.44,5.19,8.81,8.2.82,2.78-.15,4.62-2.33,6.28l-.43-3.48-4.59-2.5c-1.38-.31-1.87.06-1.46,1.46,1.48,5.1,8.79,12.03,9,18.51l1.98-1.99v6.99c-3.29-1.78-4.53-4.72-9-2.5l7,7c1.79,5.76-.02,12.1.11,17.11.05,2.01.91,3.83.95,5.85.2,11.11-1.15,22.7.45,33.53,1.67-1.14,1.43-2.73,1.56-4.44,1.8-24.25,1.48-48.11,2.02-71.89.11-4.74,3.26-9.63,3.63-12.31.56-4.04-.54-13.02.28-17.64l3.01-3.7.91,5.57c-2.85.72-.94,1.55-1.36,3.43-.6,2.68-1.76,5.23-2.31,7.73-.22,1.01-1.01,3.51.76,3.26.63-4.62,4.05-10.46,4.8-14.72.63-3.55-.63-10.4,1.25-14.73l-1.03-10.53-2.02,17.99-1-7.99-4.1,12.91-3.75-1.05c-1.86-1.98,5.05-23.07,6.68-26.55,2.86-6.13,10.46-12.98,8.15-19.75l2.05-1.04-1.05-2.5-1.96.99-.55-5.96c15.12-12.19,8.33,8.34,9.55,16.95,1.44.26,1.3-1.89,1.51-2.96.8-4.02.51-6.63,2.32-10.7,1.91-4.28,2.68-3.31,5.57-5.38,1.15-.83,1.06-3.79,4-2.9,5.18,1.58.28,21.9.58,26.43.06.94,2.97-1.76,2,.99-.59,1.66-3.73,6.31-5.49,6.53-2.49.31-5.99-1.22-9.5.98l-.48-2.96c-3.99,1.68-13.97,2.69-8.54,7.97,3-8.46,8.07-1.01,8.66-.95.97.11,10.94-2.58,11.36-2.06l1.93,6.39c-.16.93-11.76,9.44-13.58,10.46-3.22,1.8-7,.64-8.33,4.67l5.94,1.53c-.45,5.66,2.52,11.09.15,16.58-1.03,2.4-3.71,2.35-3.86,5.07l-4.22,44.68,1.99,1.12-2.02,2.5,3.02.5-2.94.55-.06,7.94,2.98-4.99-.07,6.54,2.59,2.45c.3-3.56-1.31-6.89-1.54-10.46-.56-8.46-.1-18.62.36-26.6.76-13.03,1.06-22.31,8.48-33.63,4.29-6.55,9.91-8,6.63-18.33,1.45-1.99,5.32.36,7.47-2.56,4-5.42-2.54-11.38,1.6-13.41,2.87-1.4-.12,4.59,2.99,4.01,2.69-.5,5.91-4.2,9.48-2.01v-3.01c3.68-1.07,3.45,5.25,5.57-.06l4.43,1.05c-5.29-4.74-13.49-.93-19.97-5.05,1.42-5.76-3.76-8.18,1.42-13.99,2.17-2.44,2.91-2.75,5.19-5.87.65-.89,4.44-2.03,1.74-4.13-2.88-2.25-5.44,2.05-6.38,1.05-1.97-7.28,17.06-10.17,20.51-8.08,11.27,6.83,7.29,28.64,8.74,39.33.63,4.6,3.14,8.52,4.25,12.75,3.95,15.18.33,34.68.45,50.55.02,3.14,1.31,6,1.12,8.94-.54,8.23-8.32,20.65-5.08,31l-1.6,68.68c1.01.06,2.03.12,3.04.18l2.57-85.34,5.14,85.77c.97.05,1.93.09,2.9.14l-4.1-61.38-1-41.09c3.04-18.77-.61-39.2,1.06-57.93.39-4.42,1.83-12.49,4.97-15.51,1.67,7.67,4.24,15.05,5.72,22.79,9.59,50.22,2.87,102.53,4.22,153.67,1.38.07,2.75.12,4.13.17.01-1.72.02-3.44,0-5.16-.33-25.75.92-51.92.91-78-.01-40.82-1.31-82.13-4-122.92-.38-5.76.35-11.76.05-17.54,5.68,6.95,10.3,18.28,8.75,27.26-.65,3.76-4.36,8.33-3.79,12.19.41,2.74,6.21,8.29,6.82,10.25,1.39,4.4.28,9.04.31,12.91.24,33.09-1.63,66.62.94,99.93-1.46,20.32-1.16,40.83-2.73,61.22.95,0,1.9,0,2.85,0,.72-9.07,1.21-18.16,1.84-27.25,3-43.2.45-85.79,2-129,.17-4.77,1.78-11.35,1.88-16.12.19-9.4-2.65-19.1-3.88-28.39,2.83,1.06,3.2,4.23,3.73,6.76,6.76,32.45,4.53,74.54,3.22,107.69-.94,23.87-1.25,47.07-1.92,71.08-.14,5-.86,10.04-1.27,15.13.91-.02,1.81-.05,2.72-.08-.3-2.46-.57-4.86-.57-7.13.01-5.01,1.56-2.94,2.54-4.45,2.4-3.71-1.15-11.4-1.46-15.52-1.49-19.82,2.44-42.86,3.03-62.95l.46-81.55c5,13.08,6.34,25.63,7.49,39.52,2.82,34,3.49,66.88,3.05,101.03-.03,2.41-1.15,4.63-1.12,6.96.07,7,2.01,15.37,3.22,23.06.86-.08,1.72-.15,2.59-.24-.63-2.97-1.28-5.94-1.6-8.94-2.31-21.55,1.85-42.29.92-63.92ZM747.57,344.98c-4.94.93-8.94,5.37-13.99,3-1.06-1.34,14.5-9.36,13.99-3ZM222.57,411.98c-3.79-.04-7.46-1.3-8-5.47,2.32-4.71,8.45,5.12,8,5.47ZM232.58,522l1.99,2.99h-6.99c.57-2.86-.37-7.88,3.98-7.99.61,3.89,4.71,4.87,8.01,2.99v3s-6.99-.99-6.99-.99ZM216.57,652.98l2.67-2.82,18.33-12.16c-5.35,6.29-13.12,12.66-21,14.98ZM590.06,836.99c-4.6,1-.95-8.25-4.48-7.01l2.9-1.87c1.48,1.67,5.39,8.05,1.58,8.88ZM714.57,685.5c-1.63-2.25-4.91-1.89-3.99-5.5,3.18.56,6.23,5.23,5.45,8.06l3.55.94c.14,6.22-11.37-1.44-5.01-3.5ZM721.56,684.99c-2.29.57-1.64-.44-2.27-1.26-2.07-2.66-9.39-10.92-10.18-12.8-.77-1.85.52-5.08.29-6.48-.16-.97-2.25.25-1.82-1.45,4.51-.85,3.73,3.43,5.53,5.95,3.89,5.43,12.41,8.01,8.45,16.03ZM726.31,277.74c.93-.83.61-2.74,1.51-3.5.83-.7,3-.23,3.75-1.75l-2.99-2.49c7.39-1.01,6.93,2.99,2.85,7.35-1.86,1.99-4.62,2.51-4.79,2.73-.12.16,1.85,2.96-.58,3.91-2.75,1.08-2.91-2.13-4.34-3.5.69-2.15,3.72-1.97,4.59-2.75ZM715.57,294.98l-1.99-2.97,3.98-2.01-2.09,12.55,2.09,2.44-5.99,2.01c1.93-4.74-3.94-11.64,4-12.01ZM584.59,146.46l9.96,2.03c-1.06,1.9-3.5,1-4.72,1.77-.69.43-.85,2.48-1.7,2.59-2.66.34-8.86-3.28-3.53-6.39ZM557.23,133.36c.89.65,4.69,4.12,2.83,4.65-1.94.15-12.78-6.79-14.49-9,3.53-.09,8.83,2.3,11.66,4.35ZM465.1,125.15l1.47,4.84c-4.63-1.41-3.62,2.73-7.01,2.99,1.74-2.68-.71-3.42-1-5.98l6.53-1.85ZM400.58,80.99l8.77,4.22.24,7.78.97-3.42c.53-4.08,12.6,8.11,6.02,12.41l2.99-1c.69,3.55,1.76,6.3-1.51,9-2.33.17-.74-2.83-1.71-5.19-1.36-3.31-4.97-5.28-3.79-9.8-1.44-.2-1.54,2.74-1.71,3.77-.41,2.53.94,8.09-2.28,7.22-.3-4.45-.46-12.34-2.25-16.25-1.7-3.7-8.12-3.78-5.75-8.75ZM380.36,140.2c-.19-.32-2.93-1.5-4.23-3.27-2.3-3.13-5.54-8.35-6.57-11.93l-1,3.99c-4.34-2.14.8-8.02.02-12,4.99-1.41,5.53,3.57,7.7,5.05,1.45.99,4.63,1.17,6.28,2.95l-1.23-5.83-2.76-.18,1.01-4.33,2.49-.66,4.48,10.51-.97,1.02c-3.7-.48-4.45.86-5.02,4.47l-4.49-4.99c-3.6,5.31,4.26,10.19,6.89,15.11.97,1.81,3.97,8.74,3.51,10.26-.39,1.3-3.34,1.48-2.92,3.62-5.04-2.37-1.75-11.31-3.2-13.78ZM344.57,198c4.69.95,10.22,3.65,4.5,7.97l-4.5-7.97ZM260.08,554c2.4,2.77.93,5.84.48,8.99-4.06-1.85-4.11-6.44-.48-8.99ZM256.56,523.99c1.17,4.16-3.12,3.82-1.99,8.01-4.97-.15-6.2-2.69-7.01-7l9-1.01ZM247.58,544.99c-.88-3.98,4.02-6.72,0-9.5l5.98-1.49c-3,3.43-1.22,8.84-5.99,10.99ZM254.07,567.99l3.01-2.98c2.78,2.09,1.72,4.76-1.5,5,2.13,2.31,4.53,3.06,3.99,6.96l-10.98,3.02.88-3.88-2.67-1.54c.61-3.62,4.5-12.54,7.28-6.58ZM263.57,663.98l-6.99,4.01-.02-9,8-.99-2.99,3.01,1.99,2.98ZM256.58,655.49c2.57-1.44,4.61-4.31,7.97-3.47l.59,2.99c-2.38,2.03-6.22,3.21-8.56.48ZM263.71,586.12l-2.15,7.87c-1.76.04-.21-3.24-3.42-1.93-1.7.69-2.82,4.14-2.55,5.9l4.98,1.02c-2.15-9.11,6.24,1.76.62,1.95-1.27.04-3.05-1.27-4.61-.93l1.99,3.48-3.13,4.44-3.85-.92v3s1.98-1.02,1.98-1.02c.26,1.86.02,3.47-1.98,4-.76-4.59-3.57-1.56-4.03,2l3.6.97-.59,4.04,7.99-1.99-2.99,4.99c4.03-.78,4.65-6.61,9.99-4.49-2.16.67-3.7,6.02-4.2,6.33-.77.48-2.39-.1-2.98.25-.99.58-1.01,1.54-1.6,1.85-1.18.6-3.52.65-4.1,1.2-.13.12.91,2.55-.37,3.62-.52.44-1.94.29-2.63.88-2.77,2.35-4.23,5.09-9.12,4.37l2.03-4.49c-3.8-1.12-1.61-6.84-1.91-10.39l6.87-1.12-1.01-3.99-4.98,1.99c-1.08-2.55,3.05-4.22,3.03-4.51-.11-1.48-1.64-2.23-1.85-3.22-.47-2.18,2.28-4.78-1.18-6.78l2.07-1.12-.06-9.38c4.03-.93.73,3.79,1,4,5.01-.82,4.71.29,8-2.99-2.11.42-3.47,1.8-5-.51l2.03-1-2.04-3.96,6-4.54-.99,10c1.79-1.79,3.49-1.24,1.98-5,3.44.47,4.57-.62,6.01-3.51l-3.99-.5c1.62-6.78,6.54-2.15,11-1.99.82,3.51-2.54,1.21-3.87,2.12ZM287.53,716.95c-5.53.79-12.21,2.34-16.46,6.04l-1.01-2.06c-5.18,2.59-9.81,2.22-15.49,2.05l.02-3,2.98,2c-2.57-5.1-3.71-10.65-.05-15.56,1.42-1.9,9.62-5.58,11.86-4.23.48.29,1.04,2.79,2.18,3.29l-3.98,1.51.02,1.97,1.84.19c-1.51,3.44.59,2.1,1.16,4.82l.98-1.98h1.98c3.65,8.12,9.51,1.16,14.01-2.01l-.03,6.96ZM292.74,706.18c-1.2,2.05,2.86,8.99-2.17,8.81-.07-5.41-1.32-9.58,4.5-11.99,2.22,1.92-1.93,2.49-2.33,3.18ZM379.56,731.51c-8.86-16.02-17.81-31.23-19.03-49.97-.52-8.04.97-15.67,1.12-23.11.04-1.86-1.91-.86-2.16-2.86-2.09-16.26-3.08-55.23-.65-70.8.25-1.61,1.59-3,1.79-5.26.38-4.13-1.78-8.24-1.05-12.5,3.91,1.08,3.71,10.43,4.1,10.89.56.67,6.01.05,6.91,4.68.63,3.26-2.82,2.48-3.61,5.37-.52,1.91,1,4.18.61,6.36-.12.68-1.71.78-2.32,1.94-1.63,3.1-3.94,8.79,1.83,5.92l1.41,1.41c-.46,2.95-.53,17.4,1.55,17.4,3.03-.39-.37-20.6,4.49-16.98.08,8.71,8.38,11.98,11.77,18.74,6,11.97,6.28,26.3,4.66,39.39-.79,6.36-5.29,16-3.44,21.19.45,1.27,2.65.16,3.84,2.34,2.1,3.83-.46,7.69.34,10.61.66,2.4,5.2,3.96,5.82,7.25,1.53,8.02-.16,15.52,3.07,24.93,2.31,6.74,7.08,13.03,9.95,19.54l-31-16.49ZM347.56,489.5l2,.5c-2.36-6.7-.21-12.54,1-19.02l-1.95.98-1.07-3.34c2.58-1.21,2.76-3.4,3.02-6.14,1.35-14.32-2.28-27.87,2.28-41.72.79-2.39,3.42-9.31,4.4-11.53.7-1.6,3.18-1.9,3.34-2.77.27-1.42-3.43-2.32,1-7.96,1.66-2.12,4.26-3.07,5.44-4.55,6.06-7.56,4.66-8.84,13.48-16.52,1.68-1.46,9.81-9.09,10.58-9.43.44-.19,1.64-.26,1.48.49l-4.99,5.02c-1.96,4.56,7.64-3.37,8.29-3.71,4.47-2.37,21.68-8.17,26.33-8.48,5.77-.39,13.79,1.89,19.84,1.75l2.52-3.07.11,3.89,5.38,1.13-1.48-2.01,4.99,1-2.36,1.88-.63,2.09,4.99,1.52-1.99-2.49c7.47-.08,10.1,5.1,13.09,10.92l2.9-.94c-.3,4.25,3.45,5.33,6.66,6.86,1.35.65,8.26,4.24,5.34.16l4,.5c-1.15-2.78-5.63-2.79-6.75-3.74-1-.84-.99-3.52-1.29-3.74-.12-.09-1.76,1.12-2.93.54-1.36-.68-2.13-3.4-3.52-4.56-2.61-2.19-5.91-3.29-8.49-5.51,3.53-2.87,11.75,7.83,12.99,6.5l-2.5-6.99c5.17,3.52,5.03,9.37,9.01,12.99l.99-1.99c3.12,5.16,8.91,3.29,13.02,6.99,6.41,5.78,8.19,18.84,9.97,27.03l1.51.98-.99-4.99c6.26-1.29,5.97,13.89,7.59,15.1,5.05,1.85,8.83-2.64,14.41-.12-2.38-6.16,10.71-3.05,12-4l-2.01-3.98,3-1-4.99-3,4.94-.12.07-2.14c1.29-3.19,3.34,3.18,4.98,3.75l-1.99.99c1.1,1.63,2.66.43,4,1.91,1.06,1.17,6.42,10.68,7.4,12.69,4.68,9.58,7.78,20.91,11.61,30.9,4.07-1.57-.53-6.3-1.49-9.02-1-2.84-1.69-6.06-2.51-8.98,1.3.49,2.74,1.9,3.41,3.08,1.58,2.8,3.17,8.41,4.62,11.13.53,1,1.94,1.31,2.96,1.79l-3.17-11.33-2.81-2.66c3.66.77.64-3.56,2.98-4.01,3.98,8.76,8.25,17.47,10,26.99l-1.75.25,5.77,18.75c1.67.27,1.09-2.44,1.03-3.53-.16-2.58-2.49-14.5-.96-15.38l3.76.09,5.17,11.82c1.78.24,1.01-2.27.76-3.26-.33-1.27-3.08-7.46-2.77-7.73h1.98c2.41,6.5,4.49,13.47.45,19.97-1.82,2.92-4.05-.74-3.52,3.92l-2.9.63c2.26,3.56-1.05,5.03-1,8.48l.99-1.99,1.91,1.43c-3.37,5.47-4.22,17.06-8.45,21.6-.82.88-2.47.04-3.01.92-.24.38-1.65,7.33-2.27,8.72-1.8,4.01-9.6,19.93-12.69,21.32l-1.48-2.99c.49,10.6-10.33,11.53-11.02,20.01-6.62-4.19-13.12,15.64-14.55,15.97l-5.42-2.98-3.02,2.99,2-2.98c-1.44-1.12-4.56,3.48-6.05,4.44-2.11,1.37-12.6,5.37-12.01,1.63l-1.93-.06-2.53,2.98-1.48-1.99c-3.53,5.16-5.23,15.93-9.44,20.07-1.4,1.38-2.54,1.29-3.77,2.03-2.23,1.35-.56,2.67-5.8-.11l.58,3.01c5.54.78,7.45-1.29,11.42-4.5l5.99-6.5c.61,7.98-4.36,9.59-8.9,13.59-2.26,1.99-2.87,5.54-6.98,5.95-3.01.29-8.52-6.85-12.1-8.04,2.34-1.14,7.06,3.99,8.99.52-5.23-.77-8.29-5.32-13.99-4l2.99,1.98-14.99,3,13.99-8-3.49-2.97c-1.92,6.6-9.02,7.02-14.15,10.86l-3.85-1.88.51,2c-1.84.41-2.82-1.4-4.46-1.56-2.24-.21-5.43,1.6-7.98,1.49-8.2-.35-21.65-11.13-27.05-16.95-1.13-1.22-3.31-.26-2.51-2.97l2.98-.49c-1.8-4.12-8.01-4.61-7.01-8.91.14-.6,1.65-.62,1.7-.8.21-.77-.61-1.93-.22-2.78,1.68-3.65,3.53-5.69,6.31-8.5l-4.78-9.03,1.76-.65-.76-1.82,2.52.62,1.48-2.62c-6.21-.72-9.49,4.11-15.42,1.92-1,.13-.49,5.02-3.56,4.08-.98-5.92-9.55-9.6-13.9-13.61-10.61-9.77-28.61-28.43-33.39-41.61-1.57-4.33-1.93-8.94-3.75-13.19l3.01-1.6,2.01,4-3-11.49ZM359.58,382.99c3.76-12.24,11.11-22.56,23.99-25.99,1.66,1.6-11.94,11.39-13.51,12.98-3.83,3.89-6.62,9.17-10.48,13.01ZM592.06,535.89c.27-1.23,1.95-3.38,3.2-3.74.85-.25,1.83-.36,2.68-.07,1.51.51,5.23,12.51,5.43,14.7.82,9.22-12.4-5.93-11.32-10.89ZM587.69,547.87l.89-5.87c4.13-2.77,11.67,12.52-.89,5.87ZM584.57,579.49c.04.63,2.46,3.48.01,3.49-2.35-7.04-4.11-10.72-1.71-18.2.34-1.06.24-3.02,1.7-2.79.25,5.79-.34,11.71,0,17.5ZM556.52,616.6c-.59-5.73-6.16-9.4.55-15.59,4.28,7.7,1.75,16.7,1.49,24.98-4.57-1.85-1.63-5.37-2.05-9.39ZM555.58,576.99c.67-7.72,10.19-5.17,14.5-9.99l.36,3.86c-.34.5-7.15,1.87-8.88,2.62-2.44,1.05-3.42,3.42-5.98,3.51ZM565.57,566.98c1.77-2.82,4.84-7.04,1.49-9.99-1.04,1.23-5.97,8.38-7.49,6.99-.17-4.02,19.47-20.64,20.99-18.99l-2.01,8.99c-1.74.58-.31-3.16-1.99-1.51-4.75,4.67-4.77,12.8-10.99,14.5ZM541.57,585c-1.4,6.68-8.18,9.32-12.99,3.49l12.99-3.49ZM382.56,606.99c-5.39.32-5.87-13.15-3.41-13.93,7.07-2.22,2.87,10.16,3.41,13.93ZM382.87,562.2l-6.29-5.2,4,.99.48-1.98c2.93,4.75,8.55,5,11.51,8.98l-9.7-2.78ZM436.59,783.58c2.08,6.62,2.61,19.03-2.02,24.42.58-6.49-.8-14.18,0-20.5.38-3.06,1.9-7.29,4.99-8.5l.05,2.49-3.02,2.09ZM453.57,832c6.33.95,5.35,9.11,5.99,13.99l-5.99-13.99ZM459.57,831.99c-8.87-.18-4.39-14.47-2.99-20,1.43.11,2.99,4.88,2.99,5.5v14.5ZM549.56,756.25l-8.99,2.76,7.99.98c-2.13.68-6.41,2.13-8.52,1.82-.66-.1-.08-1.83-1.93-1.93-3.05-.17-5.91,1.85-9.04,2.13-4.99.44-10.45-.34-15.5,0l5.99,1.98c-26.04,5.63-50.45-1.17-75.99-5,2.28-4.38-1.33-8.86-1.89-13.6-.64-5.45,1.1-10.39-2.13-15.38-5.99-.11-2.62,10.23-1.48,13.99.69,2.26,2.67,3.91,3.24,5.76.6,1.96,1.96,9.33-.73,8.69-8.78-2.08-17.2-5.2-25.02-9.94-4.46-8.44-10.53-13.99-11.73-24.01-.91-7.64,2.23-18.16-.3-24.96-1.89-5.07-9.85-8.59-10.92-15.08-1.07-6.46,1.98-13.53,2.02-19.93.06-9.64-.15-29.47-1.8-38.32-.98-5.25-2.87-13.92-8.04-15.63l.77-16.55c2.1-.34,3.93.76,5.03,2.46.32.49,3.44,7.09,3.55,7.49.97,3.58.82,5.45,2.46,10.5,2.22,6.8.56,8.87,1.15,13.82.35,2.95,4.35,6.04,4.57,7.33.23,1.32-1.21,3.1-.7,4.76.4,1.3,2.68,1.23,2.96,2.32,1.1,4.29-.28,16.3-.06,21.84.13,3.32,2.12,8.44,1.93,11.02-.1,1.45-1.69,2.35-1.69,3.76,0,2.61,3.39,7.65,3.82,11.15,1.55,12.55-1.68,28.62-.07,41.07.26,2.04,3.55,10.29,5.17,6.04,1.54-4.05-1.88-22.99-2.16-29.05-.26-5.68,1.39-14.1.82-18.82-.46-3.83-3.03-8.94-3.5-13.5-.55-5.26.87-22.09,2.38-27.07.67-2.2,2.72-5.28,5.33-5.16l-.02,11.35,2.04,1.14c.15.92-1.45.19-1.76.68-.83,1.3-.37,29.77.75,30.83h2.99c1.35-13.25-1.8-26.85,0-40.01l-3-.52c3.05-3.5.49-9.4,2.54-12.43,1.42-2.09,11.8-5.34,13.46-4.03-2.78,2.27,2,15.11,5,11.99.55-7.65.59-11.96-4.99-17.5-.21-.69.8-.65,1.5-.51.86.18,13.25,8.51,14.44,9.56,3.94,3.51-.3,7.82-.86,12.04-1.58,11.8,1.91,25.22,1.98,36.9.04,5.24-3.6,25.9,1.44,28.5,1.98.53,2.23-2.37,2.39-3.58,2.18-16.14-4.44-39.75-2.94-56.95.57-6.53,4.68-12.74,3.04-19.45,2.32.21,7.84-.97,8.99,1.51,1.04,2.25-4.45,1.3-4.76,3.96-.39,3.23,3.47,2.47,5.63,2.66,1.77,1.06-.25,15.69,1.14,18.87l4.1-.61c2.47-4.57,1.41-9.12,2.01-13.78.45-3.46,2.23-10.26,4.97-4.2,1.26,2.78,1.77,22.86,1.96,28.05.15,4.26-.86,27.2.96,28.53,5.7-.93,2.93-7.09,2.95-10.45.05-13.7-.07-27.39.08-41.09.05-4.57-1.39-5.6,1.98-10.45l3.09,1.49c1.09.83-.11,1.68-.11,2,0,4.69-.66,11.73,0,16,.28,1.81,2.17,3.55,3.93,2.45,2.64-1.65-.23-12.51.08-15.35.61-5.48,19.28-24.62,24.96-26.14,5.36-1.44,7.8,1.52,11.56,1.41,3.57-.11,5.84-4.5,9.97-2.98,4.04,1.48,2.28,3.22,3.46,4.6,2.52,2.95,10.22,8.97,11.48,11.55,4.02,8.26,1.53,29.66,1.5,39.4-.04,13.39.82,27.81.03,41.03-.37,6.27-3.15,12.82-1.99,19.51l-2.98-6.99c1.63,11.51,2.68,21.69-.02,33.25ZM561.06,789.99c-2.34.56-5.81-7.1-5.49-8.99,2.37-.27,3,1.09,2,2.98l3.75-.81,2.24,1.36-2.5,5.45ZM603.57,806.99c-3.38,3.63-3.88-14.49-3.13-16.56.52-1.42-.31-1.76,2.13-1.43l-.82,2.79,1.87.76c-1.8,4.64-1.3,9.73-.05,14.43ZM660.56,855.99l-3.45-21.03-5.58-20.56,2.04-1.9-3.97-1.59-.56-10.95c.79-1.38,2.49-.36,3.25.35,1.32,1.23,2.94,4.79,3.3,6.7l2.98-1,2,49.99ZM652.74,777.24c-.38-2.23.74-4.09.84-6.24,1.54-.24,1.17,1.87,1.47,3,1.1,4.22,2.72,10.59,3.44,14.57.64,3.53.94,7.8,1.07,11.41l-3.56-8.95c1.04-4.62-2.44-8.96-3.27-13.8ZM615.3,733.22c-4.66,3.17-19.59,12.59-24.25,13.76-.55.14-1.63.29-1.47-.47,5.84-9.42,9.62-15.79,10.8-27.01.13-1.29-.92-3.04-.77-4.89.43-5.29,5.56-9.39.81-15.44l-3.71-.04c-1.85,4.37-2.85,9.66-2.18,14.42.46,3.29,2.58,3.63,3.04,5.95,1.32,6.72-3.57,19.7-7.92,24.8-1.05,1.24-3.13.67-4.06,2.19l1.99,1.49c-4.39-.55-5.5-1.5-7.49,3.02l-2-2.99c-2.49,2.8-6.53,2.76-9.75,4.05-1.25.5-.52,3.09-5.75.94l1.99,1.98-7.05,1.45-1.93,3.55c-1.36-5.67-1.41-12.64-1.05-18.53,1.6-26.22,6.47-52.38,3.96-79l3.03-3.86c-1.06-16.13,1.2-33,1.15-49.11-.01-4.23-3.09-5.93-1.65-10.52,1.7-5.43,5.73-5.39,10.55-6.96.22,2.69-1.01,6.02,1.51,7.97,2.64-2.77-1.29-6.22,4.49-6.99l-2.63-3.5,3.14-5.48c2.29,3.12,3.83,7.13,3.51,11l5.35-2.76c3.63.09,6.88,10.23,8.46,13.53.67,1.41.3,3.3.81,4.25.92,1.71,3.12,2.51,4.13,4.76,1.69,3.74-.15,8.12.21,11.69.19,1.89-.23,1.66,2.02,1.52l2-20.99-2.49,3.99c-.77-2.11-3.42-3.22-4.34-4.62-1.51-2.28-10.1-19.51-10.5-21.59-.67-3.53,2.57-14.47,2.35-18.79,2.42.28.59,5.02,3.98,4l2.63-11.08,5.39,1.1v6.99s1.98-1.01,1.98-1.01c1.03,2.58-1.75,1.63-2,2.66-1.69,7.19.31,17.62.5,24.91.06,2.09-2.07,6.39-.49,9.44l3.03-1.68.97-39.32,6.49,5.99c1.35-2.84-3.92-4.57-4.5-6.99,6.12,1.84,4.74,8.27,13,5.99,2.18-2.22-6.68-6.75-7.46-8.94-.48-1.35,1.13-3.26.02-5.07-.89-1.46-4.78-1.56-5.46-3.64-1.14-3.49,2.88-5.29,2.87-5.84,0-.21-2.11-2-2.73-3.25-.73-1.48-3.99-9.55-3.24-10.25l16.99.99c.83-3.22-4.44-1.8-7.06-2.43-1.46-.35-2.97-.83-3.94-2.08.82-2.78,4.43-6.2,7.4-5.55,1.8.39,1.1,8.11,4.59,7.07v-6s4,0,4,0c-1.42-2.24-3.1-.43-4.73-3.76-8.37-17.08,6.96-10.54,16.19-10.19,8.26.32,17.8.3,26.05-.04,1.23-.05,3.71.76,3.49-1h-19c-.4-.41,1.59-3.49-3.61-3.95-6.73-.59-10.41,4.42-16.63.68-6.1-3.67-4.43-11.45,1.66-10.73,2.39.28,15.68,8.78,16.58,8-.4-2.97-4.18-5.74-6.99-5l1.99-1.49-2.5-2.5-9.48-4.49c2.34-2.58,5.67-.94,8.74-2.26,2.38-1.01,2.54-3.21,3.54-3.95,4.51-3.33,9.86-5.93,15.7-5.31l-.94-2.91,1.94-1.07-9.86-.14-1.32-5.75-2.04-.16-.77-2.45c.94-2.22,13.12-1.15,15.99-2.01-2.63-3.42-6.3,1.28-8.5-2.5l-1.11,2.02c-3.79,1.14-3.31-1.82-4.42-2.46-1.98-1.15-8.28-2.5-9.03-2.99-.96-.63-1.14-4.93-2.9-7.1-3.12-3.84-6.46-.63-5.6-8.75,1-9.41,7.57-9.76,15.04-13.74l41.51-10.97c-5.01-.46-10.06,2.13-14.75,2.74-7.54.99-18.04.68-25.69,2.3-7.18,1.52-6.96,2.67-15.89,3.32-18.18,1.32-15.06-3.16-28.61-5.94-3.54-.73-7.53.18-10.35-.65-3.07-.9-3.8-6.61-8.7-3.79-1.58-5.05,1.22-8.7,2.99-13-3.51.8-6.27,4.05-9.94,4.56-7.77,1.07-10.68-6.11-15.58-10.54-3.18-2.87-6.62-2.23-6.58-7.51.05-5.09.51-10.01.12-15.02-.2-2.51-6.64-3.65-3.03-10.49-3.36,1.49-2.56,6.93-3.93,9.31-.48.84-12.17,11.51-14.05,13.2-4.73,4.23-10.32,7.61-14.53,12.48l-1.37-.18c.05-2.89-1.7-.61-3.08-1.28-4.25-2.08-.27-5.07-.48-6.58-.36-2.56-9.66-14.07-12.03-17.01-5.18-6.42-4.62-7.51-8.03-12.87-1.99-3.12-7.63-7.84-10.5-10.58,4.6-1.66,4.93-6.24,3.99-10.49-7.86,1.77-8.94,10.53-18.53,11.01-4.04.2-1.48-1.26-3.11-3.08-5.24-5.81-16.04-.46-18.81-3.96-2.1-2.65-1.23-7.09-3.68-10.33-1.64-2.18-4.07-2.49-5.52-3.99-5.22-5.4-3.34-20.83-2.49-27.97l-2.83-2.7c-.33,2.72.41,5.96.07,8.57-.24,1.85-1.88,1.32-2.06,2.12-1.46,6.48,1.17,14.01-3.6,20.24-.51.66-5.98,6.4-6.39,6.59-2.14,1-9.47,2.14-11.75,3.24-3.33,1.61-7.38,5.41-10.85,7.21l-3.41-1.93-.57,2.03-2.87-1.11c-1.53,4.27-3.53,1.93-4.39,2.34-.2.1-.16,1.59-.84,1.74-1.91.4-10.37-2.28-12.59-3.3-2.26-1.03-10.36-8.61-9.76-3.75l3.99,3.01c-5.4-.7-12.55-6.43-17.24-9.97-.93-.7-4.78-6.76-6.75-5.02-.72.63,3.7,5.59,3.93,6.56,3.15,3.07,9.18,5.04,12.07,7.93,1.52,1.53,7.1,13.3,6.8,14.74-.17.84-3.62,7.41-4.32,7.76l-3.48-1.99c1.1,6.33-5.62,8-7.3,11.3-.87,1.71.03,6.81-1.95,8.47-1,.83-3.72.54-5,1.24-1.46.8-1.88,4.26-4.76,4.01l4.02,2.52c-.03,1.53-4.36,7.26-5.58,8.45-1.11,1.08-3.26.71-3.52,1.6-1.05,3.6,3.73,6.57,1.41,10.21-.84,1.79-6.53,2.92-8.06,4.49-1.61,1.65-5.01,17.1-5.26,20.23-.33,3.99.85,7.43.74,10.73-.12,3.4-.41,14.9-1.27,16.75-.13.27-3.49,4.61-3.75,4.76-1.14.67-3.44-.1-4.3,1.23-.62.95-.11,2.75-.7,3.77-.24.41-6.53,5.78-7.23,6.27-4.09,2.81-10.94,1.51-11.46,7.58-.88,10.24,10.26,23.36,17.09,10.51l1.14.03c5.65,1.18,7.74,5.96,12.4,8.7,2.54,1.49,13.42,5.16,14.34,6.94.8,1.53.88,7.02,1.32,9.02.04.17,1.48.2,1.62.9.7,3.49.63,8.65,1.02,12.32l-1.98-1.99c-1.32,5.1,5.24,12.14,5.81,15.69.54,3.37-2.63,17.64-2.86,22.76-.34,7.51-.08,15.15,1.05,22.54,1.62.33,2.08-.42,2.87-1.62,3.71-5.64-1.09-26.86,1.35-34.66.3-.96,2.26-3.09,2.76-2.71,1.95,3.43.24,6.83.38,9.67,1.13,22.8,5.93,45.42,3.64,68.82l3.99,47.99-2.01,1.04c-1.82-1.27-1.24-6.06-3.99-4.02l4.5,8.51,2.49-1.99c-1.58,14.01,7.41,25.19,11,37.99-1.27,1.28-12-7.64-13.52-8.97-43.52-37.93-75.98-103.4-85.02-159.98-1.44-8.99-.46-17.3-1.54-25.49-.57-4.34-2.77-3.35-2.9-3.58-.32-.55,1.72-1.53,1.75-3.25.07-3.43-1.67-8.54-1.8-12.2-2.88-81.73,23.18-184.22,64.2-254.88,22.49-38.74,56.55-80,94.54-103.42,18.47-11.39,31.33-14.94,52.94-18.1,48.34-7.07,87.27,7.77,122.88,39.83,23.3,20.98,38.79,47.56,55.67,73.34,3.84,5.87,4.38,10.69,6.92,16.08,1.51,3.21,8.39,13.75,8.72,15.36.57,2.85-3.05,2.68,2.26,3.87l17.49,36.38c-.96,17.43,9.15,34.04,14.14,50.78,3.69,12.39,5.65,25.12,8.33,37.63l-2.79,2,.74,5.59,1.98-.49v-4.51c.88,4.88,2.15,9.71,2.88,14.64,2.18,14.8,1.79,27.39,2.11,41.83.15,6.62,1.87,13.66,1.04,20.52l1.98-3.99c1.58,6.59.78,12.74.59,19.31-1.09,38.77-11.42,80.27-22.15,118.62-2.54,9.07-2.01,10.88-7.49,19.54-21.96,34.7-43.82,69.69-79.22,93.75ZM344.63,464.54c-.04,1.21-1.66,5.8-3.05,6.45,1.02-3.95-2.9-9.21-2.54-12.49.09-.84,1.31-1.82,1.46-3.03.52-4.09-.93-7.95,3.06-10.98l-3-.5.03-1.98c3.77-.17,1.47-9.19,2.28-13.07.37-1.77,1.36-1.38,1.69-.95,1.63,10.25-1.05,20.19-1.04,30.54,0,2.17,1.15,4.24,1.1,6.01ZM675.58,766c-2.13-10.07-4.84-21.16-4.06-31.55.13-1.71-.11-3.31,1.56-4.44,1.92,9.53,6.8,18.54,7.12,28.65.1,3.1-.47,8.43-4.62,7.35Z"/>
        <polygon points="367.58 141.98 372.06 140.98 372.56 142.98 364.58 146.99 376.57 144.99 372.56 138 367.58 141.98"/>
        <path d="M263.57,740c-1.71,1.52-2.54,10.9-.51,10.97,4.4-4.35,9.87-2.79,15.5-2.97l-3.99,1,.91,3.87c-2.96,2.61-11.69,3.24-12.72,6.82-1.41,4.9-1.28,15.37-.8,20.64.16,1.76,1.26,3.39,1.54,5.25.68,4.57-.97,17.78,6.07,10.91l-2.03-1c2.06-2.07.79-4.87,1.5-6.44.25-.55,7.6-7.85,8.5-8.59,2.17-1.79,4.19-2.24,6.59-3.45l1.03,2.07,3.42-1.09c-4.49-6.34,1.25-8.34,2.01-.99,1.53-1.09,7.61-1.25,7.97-1.46,3.64-2.12,5.76-14.59,11.52-16.54,2.21,3.2-.8,3.59-1.45,4.79-.35.65.3,2.36-.22,3.03-.33.43-8.42,3.33-6.34,7.17l4.5-2.99c-.82,3.5-4.21,4.62-2.98,9,2.83-2.7,7.22-1.16,10.98-.99l-2.1,2.44c.57,10,5.67-.43,10.1,1.05-2.92,1.88-.43,4.65-1.06,7.44l-7.53,2.1-1.91-2.05-.49,2.01c-5.75-.43-14.67,1.93-16.52-4.98l-.47,1.98-6.01-.98,1.01,2.98c-4.17.52-9.4,3.58-12.01,7,2.4.18,3.42-2.36,5.74-2.83,4.52-.91,13.13,3.09,17.77-2.16,2.07,4.44-5.71,5.64-8.86,7.13-1.12.53-2.53,2.69-3.13,2.69-.5,0-2.19-1.99-3.45-2.4-1.94-.62-5.9-.36-4.57,1.57,1.63,2.37,6.07.57,5.51,3.99-5.93.39-10.99-1.59-16.71.8-5.66,2.36-8.86,8.37-13.28,12.21l2.96-7.55-2.96,1.55,1.98-7.99c-2.49-.53-1.77.56-2.59,1.87-1.84,2.92-2.3,7.83-6.4,4.63l11-11.99c-.26-12.73-2.58-25.98,0-38.5l-3.01-.5c5.65-2.22,1.94-5.98,2-10,.02-1,1.33-13.34,4-10.49Z"/>
        <path d="M856.26,651.32c.66.34,1.39,2.99,3.3,2.69.27,1.61-1.33,1.02-2.38.89-19-2.36-40.38-15.12-58.58-20.44-3.38-.99-7.15-.72-11.02-1.98-12.23-3.97-25.71-8.85-36.01-16.48,4.55,1.17,8.52,4.07,13,5.49,28.35,8.96,65.49,16.27,91.69,29.82Z"/>
        <path d="M156.57,684c-6.8,5.88-16.54,10.27-24.99,13l1.99,1.48c-3.08,4.83-5.08,1.79-7.06,1.96-4.76.42-15.45,9-20.27,11.71-16.54,9.32-26.98,14.61-41.68,27.32-4.07,3.52-7.48,9.46-12.99,10.5,6.48-4.92,9.92-12.26,15.99-17.5,11.12-9.61,39.26-25.45,52.99-33.01,11.45-6.3,23.65-11.26,36.02-15.47Z"/>
        <path d="M781.36,492.16c.18.2-.84,1.74.12,2.34.71.44,14.49,5.03,15.83,5.25,1.42.24,2.82.36,4.25.25v-4.02c9.77-1.02,18.75,3.26,27.99,5.5-1.33,2.12-2.31.9-3.75.86-7.34-.2-14.5-1.21-21.73-2.36l1.49,3c-11.19-1.32-24.33-3.16-35.56-2.06-2.51.25-3.39.43-5.42,2.07l-.02-3.03-1.98-.46,3.99-1.53v-1.98s-2-.5-2-.5c1.84-3.72,14.71-5.72,16.79-3.34ZM787.56,498.01c-5.22-2.59-10.3-2.11-15.99-2l9.6,2.88,6.39-.88Z"/>
        <path d="M809.57,598.99c-3.98-6.79,8.47.37,9,1.51-5.45,1.45,5.88,5.09,6.98,7-1.91,2.44-1.47.97-2.97,0-1.19-.78-5.18-4.4-6.01-3.49l-.14,2.84-2.87.17,2,3.98-4.4.85-4.61-6.83-4.34,2.92c-1.94-3.84-9.04-4.55-9.62-7.45l4.97-1.49-2.99-2.98,2.99-.5c-2.69-2-6.45-5.22-9.29-6.71-3.11-1.64-9.8-1.26-8.7-5.79,2.5,3.62,5.22,1.93,7.02,2.59,3.54,1.29,11.63,7.91,15.66,10.22,1.17.67,6.52,3.76,7.31,3.18Z"/>
        <path d="M723.07,198.01c1.42-.06,1.55,2.57,1.06,4.03-1.07,3.22-11.06,19.02-13.57,22.43-1.31,1.78-4.99,4.44-7,3.04-1.6-1.12,2.15-8.21,1.5-10.53,5.15-5.63,8.11-8.92,14-14,1.06-.91,3.13-4.94,4-4.98Z"/>
        <path d="M350.56,783.99c2.41,4.53-8.21,18.34-9.56,23.03-2.17,7.54-3.77,9.47-6.62,16.29-3.43,8.21-4.87,18-10.8,24.69l19-51.01,1.99,1.02c-2.06-4.02,1.48-3.12,2.35-5.31l-2.23-7.23,5.87-1.47Z"/>
        <path d="M370.56,57.99l-3.49-4c-3.93,6.03.7,2.42,1.5,4.5-3.04,1.45-5.89,8.07-1.01,8.51v.96c-1.1.09-2.54.48-2.9,1.64-.69,2.23,1.42,7.08,1.41,9.37-3.51-2.98-4.06-6.86-2.5-10.99h-4.01c2.05-3.58-.34-21.05,1.02-22,2.8-1.96,9.31,9.29,9.98,12Z"/>
        <path d="M620.57,92l-4.49,39.99c-2.55-1.13-2.81-2.07-3.23-4.73-1.35-8.6.22-19.31,3.03-27.46l4.69-7.8Z"/>
        <path d="M847.58,580.99l8.35-.9,26.64,6.89c-10.57.22-19.52,1.74-29.79-1.69-3.51-1.17-9.62-3.41-8.45-8.01,1.19-3.76,5.63.06,3.26,3.71Z"/>
        <path d="M188.57,691l-7.99,5c-.12,1.95,3.68.07,1.02,2.51-.88.81-8.26,5.7-9.09,6-2.17.79-3.67-.73-5.95-.13-5.76,1.5-15.86,12.85-23.98,11.6-.48-2.51.45-1.78,1.93-2.52,2.93-1.46,5.66-1.35,8.46-2.58,4.15-1.82,12.61-6.65,16.92-9.08,6.22-3.5,11.36-9.27,18.67-10.82Z"/>
        <path d="M317.56,911.99c-.77-.4-1.71-.86-2.47-.07-3.05,3.18-4.39,12.44-7.33,16.77-.87,1.28-1.12,2.74-3.19,2.3l11.01-31.99c1.36-.31,1.46,2.07,1.51,2.97.19,3.21-.5,6.59.47,10.03Z"/>
        <path d="M143.57,463.98c-.38-2.16.19-2.03,1.98-2.47,4.51-1.11,23.74-1,16.55,6.52-4.12,4.31-13.48-3.17-18.53-4.05Z"/>
        <path d="M40.57,758c-3.49,3.33-18.26,14.58-22.38,14.04-.73-.1-.22-2.11-2.09-2.18-2.03-.07-3.58,1.16-5.53,1.12,2.01-2.1,13.97-11.52,16-9.98l-1.98,3.51c-.32,1.36.08,1.89,1.47,1.47,3.87-1.2,9.78-7.39,14.52-7.98Z"/>
        <path d="M754.56,213.98l-1.71.16c2.29,2.77-6.31,8.48-7.99,8.73-1.18.17-5.94-3.5-6.23-4.44-1.33-4.34,13.9-9.13,15.93-4.45Z"/>
        <path d="M825.57,679.98l-11.06-2.47c-.17-4.08-2.03-5.39-4.93-8.03-7.01-6.38-16.47-10.4-23.01-17.48,14.59,6.74,26.75,17.83,39,27.98Z"/>
        <path d="M932.57,508.98c-10.07-3.94-20.88-2.56-31.38-4.11-1.12-.17-4.66-.36-4.61-1.87,12.09-.49,26.44-3.32,35.99,5.98Z"/>
        <path d="M505.57,100.99v-16.5c0-.53,3.61-5.84,2.01-8.5,3.94,1.47.96,5.93,1.29,8.34.16,1.11,1.51,2.34,1.77,5.09.53,5.63.6,9.29-5.07,11.57Z"/>
        <path d="M899.57,726.99c-2.12.35-3.51-.3-5.34-1.15-5.31-2.48-14.47-10.37-19.76-14.26-1.13-.83-2.49.01-1.89-2.57l24.9,14.59,2.09,3.4Z"/>
        <path d="M99.57,594c-.72,7.19-5.25,3.86-9.49,3.91-5.84.06-11.57.63-17.51.07l22.8-4.73,4.2.75Z"/>
        <path d="M199.57,232.98c-4.19-1.24-8.5-6.63-12.25-8.24-1.89-.81-4.56-.45-5.82-1.23s-.14-2.62-.54-3.55c-2.06-4.78-14.11-8.56-17.39-12.97,13,5.77,26,16.02,36,25.98Z"/>
        <polygon points="230.57 695 221.02 697.94 202.58 697.98 208.03 693.97 230.57 695"/>
        <path d="M816.42,742.15c.61.94-.16,4.29,1.15,5.83-1.89,1.43-16.62-9.41-18.42-12.07-.81-1.21-1.85-2.29-1.58-3.91,4.06.81,5.7,5.33,9.29,7.2,1.94,1.01,9.18,2.37,9.55,2.95Z"/>
        <path d="M744.57,250.98l5.42-8.06,7.57-1.92c.47,1.81-1.31,2.23-1.67,3.65-.3,1.18,1.22,2.43-.26,3.83-1.8,1.71-9.06,4.65-11.05,2.5Z"/>
        <path d="M757.57,604.98l-1.99-2.5,1.48-.48,15.52,9.98-28.99-9c.05-1.36,6.83-.73,7.33-.62,2.55.58,4.09,2.62,6.66,2.62Z"/>
        <path d="M213.57,604c-.95,3.93-3.17,3.07-4.5,3.92-7.2,4.6-13.92,8.5-22.49,10.06,1.79-1.02,5.03-6.03,5.94-6.45,1-.47,8.17-1.02,11.59-2.51,1.65-.72,8.8-5.63,9.47-5.02Z"/>
        <path d="M311.73,874.85l1.85.77c-1.07,5.82-.09,9.49-7,11.37l7-22.99c1.88-.23.68,1.97.53,3.02-.42,2.77-.98,5.38-2.38,7.82Z"/>
        <path d="M183.56,501.99c-5.4-.68-9.82-1.57-14.35,1.89l-2.62-2.39,5.61-3.43,3.37,1.93c-1.03-10.75,9.72-.36,8,1.99Z"/>
        <path d="M220.57,456.98l-3.87.12-.17,4.82c-2.89.26-8.6,5.09-6.96-1.28.26-1,3.03-.08,1.99-2.65l-4.99-.51,6.01-2.51-1.01-2.99c1.77.38,2.56,2.89,4.02,3.52,1.55.67,4.26-1.5,4.97,1.47Z"/>
        <path d="M129.43,567.13c2.01,3.51.08,9.47-4.6,7.17-3.09-1.52-1.36-5.2-8.26-2.31,1.51-3.36,10.2-6.5,12.86-4.86Z"/>
        <path d="M827.56,802.99l-18.49-15-2.5-3.99c1.47-1.17,7.65,4.31,9.01,5.48,2.94,2.5,7.51,7.06,9.99,10.01.94,1.12,2.43,1.63,1.99,3.5Z"/>
        <path d="M927.57,699.99c-2.57-1.7-7.7-.05-9.05-.53-.86-.3-7.12-6.6-6.94-8.45,2.71-2.35,13.84,6.75,15.99,8.99Z"/>
        <path d="M837.57,379l-8.17,5.32-7.82.67c-.35-6.7,11.23-5.72,15.99-5.98Z"/>
        <path d="M977.57,512c.23,1.74-2.27.94-3.49.99-3.42.14-7.68.29-11.04.03-4.26-.32-6.31-3.37-11.78-.36l-11.68-2.67c5.16,1.27,13.01-1.42,17.4-1,2.43.23,4.47,2.5,7.15,2.93,4.13.66,9.18-.35,13.43.07Z"/>
        <path d="M221.29,220.74c-.2.36-2.66.83-2.22,4.25l-4.36-8.5c2.3-2.26,3.74-3.26,1.85-6.48,5.15-1.65,5.67,9.03,4.72,10.74Z"/>
        <path d="M102.57,733c.69,4.89-4.03,4.66-6.94,6.55-5.24,3.42-9.48,8.09-15.06,10.43,6.78-6.36,13.13-13.48,21.99-16.99Z"/>
        <path d="M896.57,615.99c-1.08.95-9.29-1.9-10.98-2.55-1.27-.48-2.45.02-2.01-1.94,3.16-6.5,14.99,2.71,12.99,4.48Z"/>
        <path d="M210.57,593c1.45,6.83-10.22,6.75-14.99,7.99l8.07-6.41,6.92-1.57Z"/>
        <path d="M796.86,366.34c-.52.7.17,2.18-.95,2.67-2.71,1.18-8.27.88-11.33.97.79-2.45,3.77-1.6,5.56-2.93,1.13-.84,1.95-3.86,3-4.05s2.18,1.65,2.96,1.66,2.89-3.38,2.99.35c-.74.41-1.7.63-2.23,1.33Z"/>
        <path d="M181.79,167.81c-.49-.85-.14-1.89-.22-2.81,2.49-.21,11.65-.75,10.94,3.37-.79,4.58-9.78,1.07-10.72-.56Z"/>
        <path d="M628.58,154l2.98,1c-.82-4.01,1.72-2.75,3.33-3.95.95-.71.13-2.39,1.67-2.05,0,3.74.84,8.21-2.48,10.9l-5.05-1.8-.45-4.1Z"/>
        <path d="M837.56,552.99c-4.75-1.25-7.54-5.29-11.51-7.98-2.29-1.56-6.59-1.53-6.48-5.01,1.56-1.33,9.18,4.24,10.93,5.56,1.1.82,8.28,6.17,7.05,7.44Z"/>
        <path d="M325.57,812.49c.24-1.13,2.9-4.89,4-3-.38.61-2,1.7-2,2v17c0,1.15-2.23,4.67-2.01,6.49h-.98c-.78-1.65.99-3.84.99-4.49,0-4.71-.83-14.08,0-18Z"/>
        <path d="M171.58,486.99l3-2-1.01-2.99c3.82-.81,7.76-3.05,10.99.49-3.45,3.37-8.45,3.85-12.97,4.49Z"/>
        <path d="M783.46,355.12c.59.5,2.56,6.58,1.03,7.8-11.1.94-5.48-11.61-1.03-7.8Z"/>
        <path d="M809.58,34.99c-1.8-2.03,8.68-14.25,10.98-15.99-.2,2.27-1.71,4.69-2.82,6.67-.59,1.06-6.55,11.15-8.17,9.32Z"/>
        <path d="M783.57,303c-5.46,6.44-14.27,5.89-20.99,9.99-.05-4.05,5.11-3.58,7.7-4.79,4.25-1.99,8.15-5.2,13.29-5.2Z"/>
        <path d="M327.56,794c-1.07,4.09-.88,9.11-4.49,11.98l-2.39-2.69,2.43-7.32,4.46-1.97Z"/>
        <path d="M232.58,695.98c-.03-2.22,3.82-.2,4.86-1.14.23-.21,1.39-6.78,3.66-3.85,1.31,1.69-3.33,12.95-4.02,12.98-2.4.1.44-5.28-.92-7.06l-3.58-.93Z"/>
        <path d="M279.57,962c-7.94,2.04-5.81,8.83-8.99,13.98,2.33,2.28,8.92-12.17,8.99-13.98Z"/>
        <path d="M208.57,750c-1.4,2.44-5.65,2.06-7.93,3.56-.9.59-1.22,2.35-2.14,2.86-2.77,1.52-7.8,3.6-10.93,4.56,6.11-4.93,12.66-11.17,20.99-10.98Z"/>
        <path d="M200.92,558.64c.27.46,1.67.23,1.68.85.06,3.37-8.38,4.48-11.02,4.49,3.38-2.79,4.13-6.89,8.99-8-.09.93-.15,1.8.36,2.66Z"/>
        <path d="M534.57,99l-6.58,2.98-10.41-1.01c-.24-1.44,1.74-1.35,2.79-1.68,5.36-1.71,8.77-1.32,14.2-.29Z"/>
        <path d="M762.34,225.22l2.23,3.76-5.97,3.01-2.51-3.82-4.51,1.82c.74-2.45,9.4-5.36,10.77-4.77Z"/>
        <path d="M133.57,416c3.55-.61,10.75,0,8.53,4.98-2.36,5.3-9.16-4.52-8.53-4.98Z"/>
        <path d="M178.58,447.98l4.94-1.09.06-2.89c.73-.77,6.4,1.2,6.04,3.48.02,4.94-8.54,1.15-11.03.5Z"/>
        <polygon points="17.56 200.01 11.53 201.57 1.58 194 17.56 200.01"/>
        <path d="M780.56,560.02v1.99s-1.99-.5-1.99-.5v1.47c8.2,2.46,1.51,8.45-2.99,2.5l1.91-1.9-.9-6.58,3.98,3.02Z"/>
        <path d="M809.57,470c-.01,1.75-4.34,1.09-5.54,1.04-5.82-.24-8.73-.58-11.46-6.04,1.57-1.25,13.61,6.74,17,5Z"/>
        <path d="M880.56,460.01l-9.5,2.08-3.49-2.57c.77-3.5,10.73-.01,12.99.5Z"/>
        <path d="M141.87,442.67l7.7,3.31-13.56-2.97.59-2.99c2.73-.48,4.31.07,5.27,2.65Z"/>
        <path d="M770.68,393.93l1.88,1.05c-3.09.13-3.24,2.32-3,5.01-2.57.41-2.93-2.03-3.04-3.96l-7.95.95v-4.98c2.06-1.85,10.61,7.05,9.82,1.65-.26-1.8-3.87-6.75,2.73-3.68l-.44,3.95Z"/>
        <path d="M814.57,208.98c1.89-4.24,4.99-1.86,7.54-1.95,2.92-.09,4.24-3.68,6.43-.54-3.87,5.51-8.49,1.94-13.98,2.49Z"/>
        <path d="M683.1,214.01l2.35,1.63-.36,4.37c-2.51,2.53-4.58,2.03-5.55-1.52l3.56-4.48Z"/>
        <path d="M172.34,374.21l-.76,3.78c.89-4.71-4.67-3.48-8.36-5.15-1.22-.55-8.05-5.29-6.64-6.85,3.41.9,6.08,5.44,9.05,6.47,1.72.6,4.65-.68,6.71,1.75Z"/>
        <path d="M830.56,225.01c-3.51,4.52-10.25,1.36-14.99.98l7.55-2.02,7.44,1.05Z"/>
        <path d="M170.57,556c-2.4,4.16-7.57,5.36-11.99,3.98,2.87-3.65,7.62-4.51,11.99-3.98Z"/>
        <path d="M787.57,224c-1.46,6.22-9.47,3.67-13.99,4.99l9.04-4.43,4.95-.56Z"/>
        <path d="M841.57,264l-10.78,2.69-7.21.29c4.64-4.05,12.27-3.48,18-2.98Z"/>
        <path d="M827.56,349.01l-10.55,3.02-4.43-1.54c5.08-.49,9.99-3.67,14.99-1.48Z"/>
        <path d="M377.57,90.99c-2.23,2.65-6.69-12.34-5.98-13.99l5.21,9.28.78,4.71Z"/>
        <path d="M244.58,834.99c1.03-2.18,5.33-14.89,6.49-14.98,2.43-.19.49,2.67.32,3.28-1.16,4.15-2.95,9.29-6.81,11.7Z"/>
        <path d="M872.56,262.98l-5.34.93c-5.23-3.63,2.63-7.04,4.9-3.97l.44,3.03Z"/>
        <path d="M786.57,14.98l7.99-14.98c.73,2.04-5.31,17.71-7.99,14.98Z"/>
        <path d="M214.58,370v3s-2.8-.82-2.8-.82l-.73,1.87c-2.13.38-4.18-1.46-4.51-3.55l1.56-2.51,6.48,2.01Z"/>
        <path d="M319.33,167.19c.5.86.17,1.88.23,2.8-2.89.74-7.94-.83-7-4.48.8-3.08,6.32.92,6.76,1.68Z"/>
        <path d="M853.57,619.01l-3.48,2.99c-2.17-5.32-7.62-4.06-10.52-7.99l14,5Z"/>
        <path d="M33.57,458c-2.36,3.99-9.32,4.36-11.99.49l11.99-.49Z"/>
        <path d="M209.57,352.99c-.33.36-8.07-2.36-6.98-5.48,1.27-3.66,8.62,1.92,6.98,5.48Z"/>
        <path d="M203.34,293.19c.5.85.15,1.89.22,2.8-2.16,1.25-9.6-2.91-7.99-4.99,1.29-1.66,7.22,1.24,7.77,2.19Z"/>
        <path d="M264.57,735.98c-1.71-3.83,6.46-6.38,7.01-3.47l-2,4.05-5-.58Z"/>
        <path d="M150.4,408.84c-1.78,1.04-6.4-2.03-5.83-2.83l6.48-3.01c2.7.67.06,5.44-.65,5.85Z"/>
        <path d="M84.33,406.26c1.89,1.85-.04,6.16-2.22,5.72-4.34-.87-2.64-10.5,2.22-5.72Z"/>
        <polygon points="794.57 469 788.33 469.74 772.58 465 794.57 469"/>
        <path d="M806.57,473c1.24,3.13-6.99,2.26-8.48,1.97-1.6-.31-3.02-1.4-3.52-2.97l12,.99Z"/>
        <path d="M897.57,563.99c-.56.5-8.78-2.96-6.99-5.99l7.56,2.98-.57,3.01Z"/>
        <path d="M895.57,103c-1.53,3.72-4.61,7.22-8.99,6.98-1.45-1.3,7.91-7.96,8.99-6.98Z"/>
        <path d="M366.42,99.84l-4.84,4.15c1.75-4.42.74-6.03-.99-9.99,2.77,1,5.02,2.92,5.84,5.84Z"/>
        <path d="M369.81,89.25c.1-.2,1.19-.18,1.41-.58.65-1.21-.32-2.94,1.34-2.66,5.35,16.84-4.55,6.68-2.75,3.25Z"/>
        <path d="M626.58,74.99c.48-2.95.07-8.27,2.98-9.99.79,3.54,2.35,9.17-2.98,9.99Z"/>
        <path d="M201.58,722.99c-1.77-1.63,5.22-4.18,6.03-4.46,1.85-.64,3.49-2.35,4.94-.04-2.61,3.65-7.28,2.9-10.97,4.5Z"/>
        <path d="M6.57,716c-.52,1.95-3.06,7.46-5.48,6.99-3.58-.69,2.59-8.53,5.48-6.99Z"/>
        <path d="M650.57,587.98c-4.05-.89-4.86-5.44-10-3.98.83,2.5,3.54,2.94,5.34,4.15,1.02.68,3.12,2.02.18,1.83l-24.04-14.98h5.5s.51-3,.51-3c1.88,1.61,4.58,5.73,7.5,4.5-2.11-2.98-5.59-4.68-8.04-7-.76-.72-.63-2.47-1.67-3.56-1.47-1.55-5.42-1.95-6.28-3.94,9.38-2.84,13.87,8.03,19,13.48,3.67,3.9,9.43,6.93,11.99,12.5Z"/>
        <path d="M525.57,252l-2.42-.87-2.07,2.86c-5.29-3.67-3.23-8.8,2.49-4,1.34-5.85-1.26-11.89,2.55-16.96,2.77-3.68,4.69-1.97,4.4,2.32-.48,6.93-6.48,9.58-4.94,16.64Z"/>
        <path d="M618.27,627.71c-1.24,1.06-4.38,1.18-4.76-.37-.16-2.9-.27-5.9,2.75-7.25l5.24,3.4c-1.49.9-2.26,3.39-3.23,4.22Z"/>
        <path d="M325.83,555.73c-.71-.69-1.08-2.07-1.07-3.09.77-3.69,8.62-2.5,8.81-1.13-.58,3.84-4.44,7.45-7.74,4.22Z"/>
        <path d="M300.83,361.74c-4.86-4.64,5.31-7.09,6.6-2.08,1.04,4.04-4.48,4.11-6.6,2.08Z"/>
        <path d="M641.58,405.99c-.56-3.36,2.49-5.45,5.35-5.83l2.63,2.33c-2.16,2.85-4.25,4.11-7.98,3.49Z"/>
        <path d="M318.1,520c4.35-1.25,6.07,6.23,1.84,6.92-2.99.49-4.93-6.03-1.84-6.92Z"/>
        <path d="M507.57,302c-2.72,4.46.85,6.74-5.99,6.99l1.94-7.59,4.05.6Z"/>
        <path d="M338.57,335.99l-4.55-.94-.44-5.05c3.69-.75,5.12,2.92,4.99,5.99Z"/>
        <path d="M454.57,534c9.47-1.85,20.42-2.98,29.51-5.99,16.49-5.46,34.16-25.2,43.29-39.71,2.27-3.61,3.55-9.94,7.13-11.37l.05-1.4c-.73-2.01-7.96-6-10.22-6.91-.82-.33-6.14.89-3.75-1.6.31-.32,5.19-1.92,6.24-1.83,10.88.91,17.65,12.14,19.74,21.81-2.52-1.98-3.07-5.42-6.04-7.44-7.76-5.28-8.33,13.15-10.45,18.44-5.28,13.22-24.24,33.05-36.19,40.81-26.42,17.16-49.56,15.06-77.28,2.66-26.86-12.02-34.48-33.89-45.05-59.46l-2.09,1.39-2.89,12.6-1.03-10-1.97,1.01c-1.34-8.01,2.33-20.99,11.74-21.81,2.86-.25,6.7,1.91,4.8,4.85-1.01,1.57-6.85,2.01-6.07,6.04.28,1.42,3.7,7.48,4.72,9.22,14.28,24.46,36.68,38.33,63.83,45.17.68,2.61,6.64,17.14,8.49,17.52,3.48.71,3.64-11.84,3.49-13.99Z"/>
        <path d="M474.28,401.21c13.84-3.18,17.37,13.61,18.28,24.3.84,9.86-.13,40.49-14.48,40.54s-14.3-34.92-13.54-44.59c.43-5.51,3.54-18.82,9.74-20.25ZM470.59,408c-1.11.76-1.87,7.28,2.47,5.98,3.48-1.04.77-8.2-2.47-5.98Z"/>
        <path d="M406.92,405.34c6.97-6.48,13.99-3.54,16.93,4.87,3.79,10.86,3.26,38.93-5.38,47.18-4.34,4.15-12.15,5.67-16.36.56-8.21-9.99-4.76-43.72,4.81-52.61ZM421.58,437.01l-1-3.01c-.86,5.96-2.44,12.78-5.57,17.93-.56.91-6.5,5.35-2.92,6.07,7.33,1.47,12.22-16.56,11.47-22.01l-1.98,1.02Z"/>
        <path d="M585.56,490.99c2.05,1.99-2.94,19.72-4.49,23-1.83-1.23-1.02-1.96-.65-3.57,1.3-5.77,5.9-14.29,2.15-19.42l2.99-.02Z"/>
        <path d="M569.57,517l-4.59,8.9-7.41,7.08c2.45-3.69,4.62-7.7,7.18-11.3,1.12-1.57,2.61-5.05,4.82-4.68Z"/>
        <path d="M571.56,509.99c-2-.95-.1-4.29-.63-6.76-.91-4.23-4.71-7.86-5.34-12.24,4.83,5.15,8.58,11.8,5.98,18.99Z"/>
        <path d="M581.58,483.99l-3-12c2.66,1.31,6.97,10.47,3,12Z"/>
        <path d="M580.44,918.07c1.44,2.07,2.24,6.32,3.64,7.98.68.81,3.14.04,3.48,1.46.29,1.23-.4,3.25-1.51,3.49-2.19.47-3.83-3.94-5.22-5.03-2.14-1.68-6.07-1.53-7.26-5.47l4.98,1.51-1.98-2.99,3.87-.94Z"/>
        <path d="M544.57,651l-.91,5.41c-2.86,3.87-7.78-6.93.91-5.41Z"/>
        <path d="M375.57,806l-2.03,6.47c9.66,3.66,3.29,13.57-3.52,7.58-2.05-1.8-1.33-8.69-.23-9.85.45-.48,2.05-.22,2.75-.72,1.74-1.24-.18-4.26,3.02-3.48Z"/>
      </g>
    </g>
  </g>
</svg>