<?xml version="1.0" encoding="UTF-8"?>
<svg id="Layer_2" data-name="Layer 2" xmlns="http://www.w3.org/2000/svg" viewBox="0 0 119.7 163.81">
  <defs>
    <style>
      .cls-1 {
        fill: #0a0a0a;
      }

      .cls-2 {
        fill: #0a0a0a;
      }

      .cls-3 {
        fill: #59fd53;
      }
    </style>
  </defs>
  <g id="Layer_1-2" data-name="Layer 1">
    <g>
      <path class="cls-1" d="M117.95,103.66c.76,3.58,1.73,7.21,1.07,10.83-.23,1.18-.49,2.34-.8,3.49-.31,1.15-.66,2.29-1.06,3.41-.51.99-1.05,1.98-1.6,2.95-1.66,2.92-3.47,5.79-5.23,8.73-.32.76-.55,1.52-.7,2.3-.78,3.86.21,7.89-.6,11.68-.65,2.44-2.27,3.84-4.63,4.34-1.03.44-2.07.8-3.13,1.12-6.33,1.9-13.02,2.24-17.82,7.52-.73.49-1.52.85-2.3,1.06-1.07.51-2.17.93-3.28,1.29-5.53,1.79-11.28,2.1-16.99-.17-.13-.05-.27-.1-.4-.14-7.28.57-14.05-.95-20.18-4.04-1.03,0-2.06.03-3.1.09-.95-.02-1.87-.12-2.77-.37-.87-.22-1.73-.6-2.56-1.16-.95-.6-1.81-1.32-2.64-2.07-4.08-3.85-7.56-8.65-11.75-12.36-.69-.76-1.32-1.55-1.88-2.39-1.66-2.47-2.74-5.38-2.87-9.01-.16-1.14-.28-2.29-.41-3.45-.07-.65-.14-1.31-.22-1.96-2.15-4.86-3.9-9.96-5.22-15.11-1.35-2.61-2.5-5.36-3.01-8.43-.17-1.04-.36-2.08-.56-3.12-.82-4.15-1.87-8.25-3.17-12.45-.33-.7,0-1.74.32-2.44.41-1.1.89-2.17,1.42-3.22,1.01-2.01,2.2-3.96,3.4-5.92.24-1.21.53-2.39.86-3.54,1.24-4.41,2.97-10.12,5.3-16.33-.02-.29-.04-.57-.06-.86-.32-3.79-1.07-7.59-2.14-11.37-.33-1.57.32-2.79,1.32-3.8,1-1.01,2.34-1.81,3.4-2.53.8-.46,1.62-.89,2.44-1.29,2.06-.99,4.16-1.87,6.11-2.98,5.4-8.56,12.22-16.28,20.8-21.15.45-.48.91-.96,1.36-1.45,3.25-3.14,7.15-6.29,11.76-6.35,1.01-.02,2.03.04,3.05.17,2.55.34,5.13,1.2,7.64,2.62,6.49.83,12.44,3.48,17.81,7.4,1.42.43,2.41,1.33,3.17,2.5,6.7,5.72,12.39,13.39,16.98,21.75.45.65.86,1.34,1.23,2.09.13.32.26.65.38.97,4.07,8.03,7.15,16.54,9.13,24.47.41.57.85,1.12,1.31,1.66.4.92.73,1.85,1.01,2.78,1.97,6.44,2.03,13.1.42,19.69.01,4.6-.13,9.52-.61,14.55Z"/>
      <path class="cls-3" d="M118.09,88.66c-.28,1.92-.93,3.67-.94,5.78-.01.94.05,1.87.17,2.81.6,4.68,2.56,9.47,1.69,14.24-.23,1.18-.49,2.34-.8,3.49-.31,1.15-.66,2.29-1.06,3.4-.51,1-1.04,1.98-1.59,2.96-1.66,2.92-3.47,5.79-5.23,8.73-.33.76-.55,1.52-.71,2.3-.78,3.87.22,7.89-.59,11.68-.65,2.45-2.28,3.84-4.63,4.35-1.02.43-2.07.79-3.13,1.11-6.33,1.9-13.02,2.24-17.82,7.52-.73.49-1.53.85-2.3,1.06-1.07.51-2.17.93-3.28,1.29-5.53,1.79-11.28,2.1-16.99-.17-.96-.35-1.92-.68-2.89-1-6.75-2.22-13.58-3.54-20.79-3.09-.95-.02-1.87-.12-2.77-.36-.87-.23-1.73-.6-2.57-1.17-.95-.6-1.8-1.31-2.63-2.07-4.08-3.85-7.56-8.65-11.76-12.36-.68-.76-1.31-1.55-1.87-2.38-1.67-2.47-2.75-5.39-2.87-9.02-.16-1.14-.29-2.29-.41-3.45-.49-4.62-.99-9.23-3.45-13.39-.53-.94-1.06-1.88-1.56-2.84-1.52-2.86-2.87-5.87-3.44-9.26-.17-1.04-.36-2.09-.57-3.12-.81-4.15-1.87-8.26-3.17-12.45-.33-.7,0-1.75.33-2.45.41-1.09.89-2.16,1.42-3.22,3.73-7.39,9.92-14.11,9.66-22.86,0-1.26-.06-2.52-.17-3.78-.31-3.79-1.07-7.6-2.14-11.37-.33-1.57.33-2.8,1.32-3.81s2.34-1.81,3.4-2.52c.8-.47,1.62-.89,2.44-1.29,4.14-2.01,8.48-3.5,11.27-7.49.73-.9,1.45-1.79,2.19-2.66,2.14-2.63,4.43-5.14,6.95-7.47.66-.64,1.32-1.28,1.98-1.92,1.97-1.94,3.92-3.94,5.87-6.04C47.92,3.22,51.82.07,56.43,0c1.01-.02,2.02.04,3.04.17,3.06.41,6.14,1.55,9.11,3.5.94.45,1.87.9,2.81,1.35,3.12,1.5,6.26,2.97,9.63,4.11.84.28,1.7.55,2.56.79,6.93.63,5.63,10.06,9.85,14.25,4.55,4.19,10.08,6.64,12.88,12.35.44,1.04.81,2.09,1.14,3.16.67,2.06,1.25,4.17,1.77,6.31.52,2.14.99,4.3,1.45,6.46.41,1.02.85,2.02,1.31,2.99,1.37,2.91,3.01,5.67,5.15,8.18.41.92.73,1.85,1.02,2.78,1.99,6.51,2.03,13.23.37,19.89-.14.8-.28,1.58-.42,2.35Z"/>
      <polygon class="cls-2" points="30.5 163.54 30.5 163.53 30.51 163.53 30.5 163.54"/>
      <path class="cls-3" d="M93.68,147.89c.16-.08.33-.15.5-.23l-.15-.16c-.1.15-.21.28-.34.39Z"/>
      <path class="cls-3" d="M79.27,153.54s.09-.03.14-.04c-.06.01-.12.02-.18.03h.04Z"/>
      <path class="cls-3" d="M90.68,149.43s.08-.04.12-.05c-.08-.01-.16-.02-.26-.04l.14.1Z"/>
      <path class="cls-3" d="M57.82,2.84c37.36-5.15,59.98,49.5,60.65,76.84s-.94,71.7-55.73,79.15C21.62,164.42-3.84,103.49,6.14,68.12,11.42,49.41,25.31,7.32,57.82,2.84Z"/>
      <path class="cls-3" d="M35.42,60.66c-.38.04-.67.06-.94.37-.2.23-.34.46-.62.61-.4.21-.69.41-.98.78-.26.32-.48.66-.76.96-.12.12-.21.18-.35.3-.39.31-.75.68-1.08,1.07-.16.19-.28.39-.47.56-.49.42-1.08.68-1.55,1.14-.32.31-.34.7-.51,1.1-.48,1.11-1.01,2.1-1.09,3.32-.02.34.04.74-.02,1.07-.05.31-.11.63-.17.94-.07.34-.24.62-.34.94-.03.09-.01.17-.03.27-.02.08-.09.17-.1.26-.02.12.02.23,0,.35s-.06.26-.1.38c-.12.37-.2.73-.37,1.08-.13.27-.17.4-.13.68.05.36.08.73.07,1.1,0,.46-.12.89-.07,1.35.04.4.08.8.12,1.21.05.48.09.96.14,1.44.04.36.02.63-.01.99-.03.34-.07.69-.08,1.04,0,.2-.03.29-.1.46-.15.37-.3.86-.28,1.25.03.47.09.93.1,1.41,0,.67.03,1.34,0,2-.02.38.01.81-.05,1.2s-.35.62-.47.97l-.1.35c-.08.18-.17.36-.28.52-.04.1-.06.21-.09.32-.08.28-.24.56-.3.84-.12.53.18,1.23.33,1.7.3.9.62,1.8.86,2.72.09.34.15.68.28,1s.16.66.27.98c.19.55.48,1.05.73,1.57.3.61.61,1.23,1.02,1.78.27.36.54.85.89,1.13.4.31.78.62,1.22.9.32.21.56.34.88.5.2.1.09.06.22.19.11.12.46.11.59.13.27.05.21.07.39.19.15.09.28.03.47.05.12,0,.28.05.39.1.07.03.11.1.19.12.12.04.25-.04.37-.03.06,0,.15.04.21.06.3.05.59.13.88.22.09.03.25.09.36.1.04,0,.2-.03.23-.02.25.11.21.51.43.64.17.1.34.05.49.23.1.12.07.22.23.3.06.03.15.03.2.06.1.05.12.13.2.2.08.07.18.12.26.18.03.02.08,0,.11.03.09.07.1.23.23.28.08.03.15-.01.2.01.11.04.09.24.11.34.12.49.37.96.52,1.45.12.4.26.79.32,1.2.04.29.12.57.18.86.09.43.15.85.26,1.28.14.55.33,1.08.44,1.64.05.23.09.48.2.69.04.08.07.13.12.2.1.13.19.26.28.39.17.2.34.38.53.55.06.08.07.21.12.29.15.25.39.47.58.68.33.37.66.74,1.02,1.07.09.08.22.17.29.28.12.18.06.2.26.36.29.22.66.4.98.58.38.21.79.36,1.16.57.14.08.24.15.39.2.21.07.27.25.46.34.29.14.62.17.92.26.81.23,1.67.38,2.51.46.29.03.57.05.86.08.26.02.46-.03.72,0,.53.07,1.06.11,1.59.2.73.12,1.46.23,2.18.36.34.06.62.27.92.35.16.05.34,0,.51.04.21.05.32.1.48-.06.12-.12.25-.24.39-.34.21-.16.48-.25.64-.48.09-.12.15-.26.18-.41.02-.1,0-.13.05-.24.05-.13.09-.26.14-.38.13-.33.35-.54.35-.91.18-.04.32-.12.5-.13.19-.02.39-.03.58-.06.23-.03.33.03.5.19.21.2.33.32.65.19.11-.05.23-.1.33-.15.09-.05.16-.11.25-.16.16-.08.36-.15.53-.22.13-.05.39-.11.5-.22.05-.05.07-.13.12-.19.07-.09.19-.15.28-.21.18-.12.39-.16.57-.28.13-.08.27-.16.41-.24.13-.08.12-.09.17-.22.1-.21.17-.24.33-.38.07-.06.09-.16.15-.24.08-.11.21-.16.3-.25.14-.14.37-.37.4-.57s.05-.23.15-.39c.12-.22.09-.23.36-.25s.55-.11.83-.16c.49-.08.99-.06,1.48-.07.07-.18.36-.34.51-.46.23-.19.4-.35.55-.6.02-.04.07-.06.09-.1.05-.09.08-.2.14-.29.06-.08.17-.14.22-.23.06-.1.05-.22.14-.3.08-.08.22-.12.33-.15.25-.06.58-.21.74-.41.1-.12.05-.06.18-.12.08-.04.13-.11.21-.16s.21-.07.3-.11c.06-.03.12-.04.17-.07.06-.04.08-.09.14-.12.37-.15.85-.01,1.24-.05.53-.05,1.12-.04,1.55-.39.29-.25.8-.37,1.02-.67.07-.1.13-.22.2-.33.18-.31.31-.64.52-.92.09-.12.13-.24.21-.38.16-.27.4-.49.57-.75.15-.23.27-.53.34-.79.06-.25.11-.45.21-.69s.03-.48.14-.73c.08-.18.23-.46.36-.63.06-.08.14-.12.19-.21.04-.07.06-.14.11-.21.11-.15.29-.26.41-.4.08-.09.09-.14.2-.21.13-.07.14-.11.22-.25s.17-.17.3-.26.21-.21.31-.33c.21-.26.44-.48.7-.7.21-.17.37-.43.57-.62.3-.29.58-.61.9-.88,1.02-.86,1.99-1.81,2.74-2.92.3-.45.56-.94.88-1.38s.67-.89.98-1.36c.48-.74.8-1.54,1.21-2.31.36-.67.48-1.36.72-2.07.19-.55.47-1.04.69-1.57.18-.44.31-.91.44-1.37.25-.9.41-1.78.56-2.7.07-.44.19-.83.13-1.27-.04-.32-.07-.64-.1-.96-.12-1.23-.14-2.47-.66-3.62-.15-.33-.3-.69-.53-.98-.36-.43-.78-.88-1.23-1.21-.4-.29-.77-.57-1.14-.88-.45-.39-.98-.65-1.5-.95-1.13-.65-2.28-1.31-3.29-2.15-.62-.51-1.22-1.06-1.86-1.54-.83-.63-1.69-1.23-2.4-2-.21-.23-.42-.47-.63-.7-.19-.21-.45-.44-.59-.69-.21-.35-.34-.7-.62-1.01-.1-.11-.22-.21-.33-.3-.32-.28-.61-.61-.94-.87-.21-.17-.47-.26-.66-.45-.14-.14-.2-.22-.39-.28-.22-.07-.44-.1-.68-.09-.44.03-.88.14-1.32.24-.47.11-.93.2-1.35.43-.27.15-.57.22-.86.32-.32.1-.66.24-.99.28-.23.03-.47.04-.71.07-.46.05-.92.11-1.39.07-.19-.02-.38-.04-.58-.06-.42-.03-.83-.08-1.25-.13-.16.01-.3-.02-.44-.09.05-.23-.26-.45-.32-.66-.01-.1-.03-.2-.06-.3-.03-.02-.05-.05-.07-.09-.04-.15,0-.24.04-.38.04-.17.05-.29.03-.47-.04-.38-.03-.78-.17-1.13-.19-.49-.52-.99-.81-1.43s-.64-.82-.99-1.22c-.63-.7-1.22-1.43-1.95-2.04-.46-.38-.92-.79-1.32-1.24-.16-.18-.23-.24-.46-.32-.15-.06-.23-.11-.36-.21-.18-.14-.24-.14-.48-.19-.29-.06-.57-.18-.85-.28-.44-.15-.83-.23-1.29-.3-.88-.13-1.77-.32-2.66-.37-1.14-.06-2.3-.21-3.44-.17-.85.03-1.71-.03-2.56-.01-1.3.02-2.59.09-3.89.11-.75.01-1.53.09-2.27.2-.48.07-1,.23-1.46.37-.26.08-.42.18-.65.3-.17.08-.34.17-.51.26-.06.05-.12.11-.18.16-.18.11-.41.11-.58.25s-.18.3-.38.42c-.18.11-.21.09-.31.29-.06.13-.15.24-.21.37-.08.17-.04.34,0,.23Z"/>
      <path class="cls-2" d="M88.53,144.11c.07-1.28,1.28-2.3.1-3.74h-.9c-.42,1.08-.63,2.36-.44,3.51.13.79.65.86.77,1.42.36,1.61-.75,4.78-1.77,6.04-.24.3-.75.18-.97.55l.08.05c.36-.11.71-.23,1.06-.36,1.26-2.15,2.08-3.71,2.28-6.31.03-.31-.24-.73-.21-1.18Z"/>
      <path class="cls-2" d="M35.24,149.18c-2.17-3.7-4.31-7.24-4.7-11.63-.17-1.94.14-3.8.14-5.59,0-.45-.47-.2-.54-.68-.6-3.91-1.06-13.33-.58-17.11.05-.39.37-.73.4-1.28.07-1-.48-1.98-.32-3.02.95.25.95,2.5,1.06,2.61.14.15,1.45-.03,1.69,1.09.17.78-.66.61-.84,1.32-.12.46.26,1,.19,1.53-.03.17-.41.2-.56.48-.37.76-.9,2.14.48,1.42l.34.34c-.09.72-.02,4.2.48,4.19.73-.11-.22-4.98.98-4.13.07,2.11,2.09,2.84,2.95,4.46,1.52,2.86,1.68,6.32,1.36,9.5-.15,1.53-1.19,3.89-.71,5.13.12.3.64.03.94.54.53.92-.06,1.87.14,2.57.18.58,1.28.93,1.45,1.71.42,1.93.06,3.76.9,6.01.6,1.62,1.79,3.11,2.52,4.67l-6.77-3.39c5.85,4.16,12.75,6.1,19.89,6.58-1.68-.24-3.36-.51-5.07-.72.53-1.07-.37-2.14-.53-3.28-.2-1.31.2-2.51-.61-3.71-1.44.01-.57,2.49-.27,3.4.18.53.67.92.82,1.37.15.47.53,2.24-.12,2.1-2.13-.45-4.18-1.16-6.11-2.25-1.13-2.01-2.62-3.32-2.98-5.74-.27-1.84.43-4.4-.21-6.03-.48-1.21-2.44-2.02-2.73-3.58-.3-1.56.39-3.28.37-4.83-.05-2.33-.21-7.13-.66-9.25-.27-1.27-.77-3.35-2.03-3.73l.09-4c.5-.1.95.16,1.23.56.08.13.87,1.7.9,1.8.26.85.23,1.31.66,2.51.57,1.63.18,2.14.36,3.34.1.71,1.09,1.43,1.15,1.75.06.32-.28.76-.15,1.15.11.31.66.29.73.54.3,1.03.03,3.94.11,5.28.05.8.56,2.03.54,2.66-.02.36-.39.58-.39.92.01.63.87,1.82.99,2.67.45,3.02-.23,6.92.22,9.93.08.49.92,2.47,1.29,1.43.35-.98-.59-5.54-.7-7.01-.1-1.37.25-3.42.08-4.56-.13-.92-.78-2.14-.92-3.24-.16-1.28.08-5.35.42-6.56.15-.54.62-1.3,1.25-1.28l.07,2.74.5.27c.04.22-.35.06-.42.17-.2.32.08,7.2.36,7.45l.72-.02c.26-3.21-.59-6.48-.23-9.67l-.73-.11c.71-.86.06-2.28.54-3.02.34-.51,2.82-1.36,3.23-1.05-.66.57.57,3.64,1.27,2.86.09-1.85.07-2.89-1.31-4.2-.06-.17.19-.16.37-.13.2.03,3.25,1.97,3.54,2.23.97.82-.03,1.89-.14,2.91-.31,2.86.61,6.09.7,8.91.04,1.26-.72,6.27.52,6.88.48.11.53-.59.56-.88.43-3.91-1.31-9.58-1.05-13.74.1-1.58,1.05-3.11.62-4.72.56.04,1.9-.28,2.18.31.27.54-1.06.34-1.13.99-.07.78.86.57,1.38.61.43.25.03,3.8.39,4.56l.98-.18c.57-1.11.29-2.21.41-3.34.09-.84.47-2.49,1.17-1.04.33.67.56,5.52.64,6.76.06,1.04-.05,6.59.4,6.9,1.37-.26.67-1.73.65-2.54-.07-3.32-.18-6.62-.22-9.93-.01-1.11-.37-1.34.42-2.54l.75.34c.27.19-.01.41-.01.48.03,1.13-.09,2.85.1,3.87.07.43.54.85.96.57.63-.41-.13-3.02-.07-3.71.12-1.32,4.52-6.06,5.88-6.46,1.28-.39,1.89.31,2.8.27.86-.05,1.38-1.12,2.39-.79.98.34.57.77.86,1.09.63.7,2.53,2.11,2.84,2.73,1.02,1.97.55,7.16.6,9.52.07,3.23.36,6.71.25,9.91-.06,1.52-.69,3.12-.37,4.73l-.74-1.63c.45,2.75.76,5.2.18,8l-.58.2c.62-.14,1.24-.29,1.85-.44-.16-1.11-.19-2.32-.15-3.38.23-6.35,1.26-12.7.5-19.12l.71-.95c-.35-3.89.1-7.98,0-11.88-.04-1.02-.79-1.41-.47-2.53.38-1.32,1.35-1.34,2.51-1.75.07.65-.21,1.46.41,1.92.62-.68-.35-1.5,1.04-1.71l-.65-.83.72-1.34c.57.74.97,1.7.91,2.64l1.28-.7c.88,0,1.73,2.43,2.12,3.23.18.33.1.79.22,1.02.24.41.77.59,1.03,1.13.43.89.01,1.96.11,2.82.06.46-.04.41.51.36l.35-5.08-.57.98c-.2-.5-.85-.76-1.08-1.09-.37-.54-2.55-4.65-2.66-5.15-.18-.85.54-3.52.46-4.56.58.06.17,1.21.98.94l.57-2.7,1.32.24.04,1.69.47-.26c.26.62-.42.41-.47.65-.37,1.76.18,4.26.27,6.02.02.51-.46,1.56-.06,2.29l.72-.43v-9.51s1.61,1.41,1.61,1.41c.31-.69-.97-1.08-1.12-1.66,1.48.4,1.19,1.97,3.17,1.36.52-.54-1.66-1.59-1.86-2.12-.12-.32.25-.79-.02-1.23-.22-.34-1.16-.35-1.34-.84-.3-.84.66-1.29.65-1.43-.01-.06-.53-.47-.68-.77-.18-.35-1.02-2.29-.84-2.46l4.11.14c.18-.79-1.09-.41-1.72-.55-.36-.08-.72-.18-.96-.48.18-.67,1.04-1.52,1.75-1.38.44.08.31,1.95,1.15,1.68l-.03-1.45.97-.03c-.35-.53-.75-.09-1.16-.88-2.13-4.08,1.61-2.59,3.85-2.55,1.99.03,4.31-.03,6.3-.17.29-.02.9.16.83-.26l-4.59.12c-.1-.1.36-.86-.9-.94-1.63-.1-2.49,1.14-4.02.27-1.5-.85-1.13-2.75.34-2.61.57.06,3.84,2.04,4.05,1.84-.11-.72-1.05-1.37-1.72-1.17l.47-.38-.62-.59-2.32-1.03c.55-.64,1.36-.26,2.1-.6.57-.25.6-.79.83-.97,1.07-.83,2.35-1.49,3.76-1.37l-.24-.7.46-.27-2.39.03-.35-1.38-.49-.03-.2-.59c.21-.55,3.17-.36,3.85-.58-.66-.81-1.51.35-2.07-.55l-.26.5c-.91.29-.81-.43-1.09-.57-.49-.26-2.01-.55-2.2-.67-.24-.14-.3-1.18-.74-1.7-.78-.91-1.56-.11-1.41-2.08.18-2.28,1.77-2.4,3.55-3.41l9.97-2.89c-1.22-.09-2.42.57-3.55.74-1.82.29-4.36.27-6.2.71-1.73.41-1.67.68-3.82.89-4.39.42-3.67-.67-6.95-1.27-.86-.16-1.83.09-2.5-.09-.76-.2-.96-1.58-2.13-.87-.41-1.22.24-2.11.64-3.16-.84.22-1.49,1.02-2.37,1.16-1.87.3-2.62-1.41-3.83-2.45-.78-.67-1.61-.5-1.63-1.77-.02-1.24.07-2.43-.06-3.64-.07-.6-1.63-.84-.8-2.52-.8.39-.57,1.7-.89,2.28-.11.2-2.88,2.85-3.32,3.27-1.12,1.05-2.45,1.91-3.44,3.1l-.33-.04c0-.69-.42-.13-.75-.29-1.04-.48-.1-1.22-.16-1.58-.11-.62-2.42-3.34-3.01-4.05-1.29-1.52-1.16-1.78-2.01-3.06-.5-.74-1.9-1.85-2.6-2.5,1.1-.42,1.15-1.53.91-2.55-1.89.47-2.1,2.6-4.42,2.77-.97.07-.36-.3-.76-.73-1.31-1.37-3.88-.01-4.58-.85-.52-.62-.34-1.7-.95-2.48-.41-.51-1-.58-1.35-.93-1.3-1.27-.94-5.01-.77-6.74l-.7-.63c-.06.66.13,1.43.07,2.07-.04.45-.44.33-.49.52-.31,1.58.37,3.39-.75,4.92-.12.16-1.4,1.58-1.5,1.62-.52.26-2.28.57-2.82.85-.8.41-1.76,1.35-2.58,1.81l-.84-.45-.13.49-.7-.25c-.35,1.05-.84.49-1.05.59-.05.03-.03.38-.2.42-.45.11-2.52-.49-3.06-.72-.55-.24-2.55-2.03-2.38-.85l.98.7c-1.31-.14-3.07-1.47-4.22-2.31-.23-.16-1.2-1.61-1.66-1.17-.18.16.92,1.32.99,1.56.78.72,2.24,1.16,2.96,1.85.38.36,1.8,3.17,1.73,3.52-.03.21-.83,1.82-1,1.91l-.85-.47c.3,1.52-1.31,1.96-1.7,2.78-.2.41.05,1.65-.42,2.05-.24.21-.9.15-1.2.33-.35.2-.43,1.04-1.13,1l.99.58c0,.37-1.01,1.78-1.29,2.08-.27.27-.79.19-.85.4-.23.88.94,1.57.4,2.46-.19.44-1.56.75-1.91,1.14-.38.41-1.11,4.16-1.16,4.92-.05.97.26,1.79.25,2.59,0,.82-.01,3.61-.21,4.06-.03.07-.82,1.14-.88,1.18-.28.17-.83,0-1.03.31-.14.24-.02.67-.15.92-.06.1-1.55,1.44-1.71,1.56-.97.7-2.64.42-2.72,1.9-.16,2.48,2.62,5.59,4.19,2.44h.28c1.37.25,1.9,1.39,3.05,2.02.61.35,3.27,1.17,3.5,1.6.21.36.26,1.69.38,2.17,0,.04.36.04.4.21.19.84.2,2.08.31,2.97l-.49-.47c-.29,1.23,1.34,2.9,1.5,3.76.15.81-.54,4.27-.56,5.52-.04,1.82.07,3.66.38,5.44.39.07.5-.11.69-.4.86-1.39-.42-6.49.12-8.38.07-.23.53-.77.65-.68.49.81.1,1.65.15,2.33.41,5.51,1.7,10.94,1.29,16.62l1.25,11.57-.48.26c-.45-.29-.34-1.45-.98-.94l1.13,2.03.59-.5c-.3,3.38,1.91,6.02,2.87,9.06.67.61,1.34,1.2,2.04,1.74ZM35.42,119.4c-1.3.11-1.5-3.15-.9-3.35,1.7-.58.75,2.44.9,3.35ZM35.23,108.57l-1.55-1.23.97.22.1-.49c.74,1.13,2.09,1.16,2.84,2.11l-2.36-.61ZM70.6,114.07l3.12-.92c-.3,1.62-1.92,2.3-3.12.92ZM78.07,122.95c-1.12-.42-.42-1.29-.55-2.26-.18-1.38-1.55-2.23.04-3.77,1.08,1.83.52,4.03.51,6.03ZM78.49,110.24c-.58.27-.81.84-1.43.88.12-1.87,2.43-1.31,3.45-2.5l.1.93c-.07.12-1.71.5-2.12.69ZM82.48,105.44c-.42.15-.09-.77-.5-.36h0c-1.12,1.16-1.07,3.12-2.57,3.57.41-.69,1.12-1.73.3-2.42-.24.3-1.39,2.06-1.77,1.73-.06-.97,4.58-5.1,4.96-4.71l-.43,2.19ZM84.1,112.4c-.6-1.69-1.05-2.57-.52-4.39.08-.25.04-.73.39-.69.1,1.4,0,2.83.1,4.23.02.15.61.83.02.85ZM84.65,103.9l.18-1.43c.98-.69,2.89,2.96-.18,1.43ZM85.63,100.98c.06-.3.45-.83.76-.93.2-.06.44-.09.64-.04.37.12,1.34,3,1.41,3.53.25,2.22-3.04-1.36-2.81-2.57ZM34.19,58.97c.41.37-2.82,2.83-3.19,3.22-.91.97-1.55,2.26-2.46,3.21.83-2.98,2.56-5.52,5.65-6.43ZM24.71,86.78c.22-.96-.76-2.21-.69-3.01.02-.2.31-.44.34-.74.1-.99-.27-1.92.67-2.67l-.73-.11v-.47c.91-.07.3-2.23.48-3.18.07-.43.31-.34.4-.23.46,2.47-.13,4.89-.06,7.38.02.52.3,1.02.3,1.45,0,.3-.37,1.41-.7,1.58ZM25.83,93.41l.73-.4.5.94-.79-2.76.49.11c-.62-1.61-.13-3.03.13-4.61l-.47.26-.28-.8c.62-.31.65-.84.7-1.51.24-3.46-.72-6.71.31-10.09.18-.59.78-2.27,1-2.82.15-.4.75-.48.79-.69.05-.34-.84-.54.19-1.93.39-.52,1.02-.77,1.29-1.13,1.42-1.86,1.07-2.16,3.16-4.07.4-.36,2.32-2.25,2.51-2.34.1-.05.4-.07.36.11l-1.18,1.25c-.45,1.11,1.82-.86,1.98-.95,1.07-.6,5.19-2.11,6.31-2.21,1.39-.13,3.35.37,4.81.31l.59-.76.05.94,1.31.24-.37-.47,1.21.21-.56.47-.15.51,1.21.34-.49-.59c1.8-.07,2.47,1.17,3.22,2.56l.7-.24c-.05,1.03.86,1.27,1.65,1.61.32.15,2.02.98,1.29.01l.97.09c-.29-.66-1.38-.64-1.66-.86-.25-.2-.26-.84-.33-.9-.03-.02-.42.28-.71.15-.33-.16-.54-.81-.88-1.08-.64-.51-1.45-.76-2.09-1.28.84-.72,2.88,1.83,3.18,1.49l-.65-1.68c1.27.83,1.27,2.24,2.26,3.09l.22-.49c.79,1.23,2.18.75,3.19,1.61,1.58,1.36,2.09,4.51,2.57,6.47l.37.23-.27-1.2c1.5-.35,1.52,3.32,1.92,3.6,1.24.42,2.12-.69,3.49-.11-.61-1.48,2.57-.8,2.88-1.04l-.51-.95.72-.26-1.23-.7,1.19-.06v-.52c.3-.78.83.75,1.24.88l-.48.25c.27.39.64.08.97.44.27.28,1.62,2.55,1.87,3.03,1.18,2.28,2,5.01,2.99,7.4.98-.41-.17-1.53-.42-2.18-.25-.68-.44-1.45-.66-2.15.32.11.68.44.85.73.4.66.82,2.02,1.18,2.66.13.25.48.31.73.42l-.84-2.73-.7-.62c.89.16.14-.87.7-.99,1.01,2.09,2.09,4.18,2.57,6.46l-.42.07,1.51,4.5c.41.05.25-.6.22-.86-.05-.62-.69-3.48-.32-3.71h.91s1.32,2.83,1.32,2.83c.43.05.23-.56.16-.8-.09-.3-.78-1.78-.71-1.85l.48-.02c.62,1.56,1.16,3.23.23,4.83-.42.72-.99-.15-.83.97l-.69.16c.57.85-.23,1.22-.19,2.06l.23-.49.46.34c-.78,1.34-.91,4.15-1.91,5.28-.19.22-.6.02-.72.23-.06.09-.36,1.78-.5,2.12-.41.99-2.2,4.88-2.94,5.23l-.38-.71c.19,2.56-2.43,2.85-2.54,4.9-1.63-.97-3.08,3.86-3.43,3.94l-1.33-.68-.71.73.46-.73c-.35-.26-1.07.87-1.43,1.1-.51.35-3.01,1.37-2.9.47h-.46s-.6.74-.6.74l-.37-.47c-.82,1.27-1.17,3.88-2.16,4.9-.33.34-.61.33-.9.51-.53.34-.12.65-1.4,0l.16.72c1.35.16,1.79-.35,2.74-1.15l1.41-1.61c.2,1.93-1,2.34-2.07,3.34-.54.49-.67,1.36-1.65,1.48-.72.1-2.11-1.6-2.97-1.87.56-.29,1.73.93,2.18.07-1.27-.15-2.03-1.24-3.41-.88l.73.46-3.61.82,3.34-2.02-.86-.7c-.43,1.61-2.14,1.75-3.36,2.71l-.94-.43.14.48c-.44.11-.69-.32-1.09-.35-.54-.04-1.31.43-1.92.41-1.99-.04-5.3-2.56-6.64-3.94-.28-.29-.8-.04-.63-.7l.72-.14c-.46-.99-1.96-1.06-1.75-2.11.03-.15.4-.16.41-.21.04-.18-.16-.46-.07-.67.39-.89.82-1.39,1.47-2.09l-1.21-2.15.43-.17-.2-.44.61.14.34-.64c-1.5-.14-2.26,1.05-3.72.56-.24.03-.09,1.21-.84,1-.27-1.43-2.36-2.26-3.43-3.21-2.62-2.3-7.08-6.7-8.32-9.86-.41-1.04-.52-2.15-.99-3.17Z"/>
      <path class="cls-2" d="M30.9,92.67l.62-3.07.5-.34c2.71,6.12,4.67,11.35,11.24,14.1,6.78,2.84,12.38,3.21,18.67-1.09,2.84-1.95,7.3-6.86,8.5-10.08.48-1.29.51-5.75,2.41-4.52.74.48.89,1.3,1.5,1.76-.55-2.32-2.26-5-4.89-5.15-.25-.01-1.43.4-1.5.48-.56.62.72.29.91.36.55.21,2.33,1.13,2.51,1.62v.33c-.86.37-1.13,1.9-1.66,2.79-2.12,3.56-6.28,8.44-10.23,9.86-2.18.78-4.82,1.12-7.1,1.62.05.53.09,3.56-.76,3.4-.45-.08-1.98-3.56-2.16-4.18-6.6-1.49-12.1-4.71-15.69-10.53-.26-.42-1.12-1.86-1.2-2.2-.21-.97,1.2-1.11,1.43-1.5.44-.72-.49-1.22-1.18-1.14-2.27.25-3.08,3.41-2.71,5.34l.47-.26.31,2.42Z"/>
      <g>
        <path class="cls-2" d="M56.37,69.12c-1.49.38-2.16,3.62-2.23,4.95-.13,2.34-.04,10.8,3.54,10.7,3.56-.1,3.52-7.51,3.25-9.89-.28-2.58-1.23-6.61-4.56-5.76Z"/>
        <path class="cls-2" d="M56.15,72.22c-1.04.34-.9-1.24-.63-1.44.77-.55,1.47,1.17.63,1.44Z"/>
      </g>
      <path class="cls-2" d="M44.23,71.6c-.76-2.02-2.47-2.69-4.11-1.07-2.26,2.19-2.91,10.37-.85,12.75,1.05,1.21,2.92.8,3.94-.25,2.05-2.03,2-8.83,1.02-11.43ZM41.67,83.22c-.87-.16.54-1.26.67-1.49.73-1.27,1.07-2.91,1.24-4.37l.26.72.47-.26c.22,1.32-.85,5.7-2.64,5.4Z"/>
    </g>
  </g>
</svg>