<?xml version="1.0" encoding="UTF-8"?>
<svg id="Layer_2" data-name="Layer 2" xmlns="http://www.w3.org/2000/svg" viewBox="0 0 693 809.31">
  <g id="Layer_1-2" data-name="Layer 1">
    <path d="M85.98,248.99l-.29,1.18c.04-.35.14-.74.29-1.18ZM188.37,809.15c-.09.05-.18.08-.27.12.59-18.59,1.19-37.17,1.94-55.73.18-4.49-.22-9.06-.06-13.55-2.48,1.43-2.65,4.93-4.13,7.36-.61,1-2.08,3.06-1.84.16.81-2.6,6.99-13.56,6.99-15.02v-30.5c-3.6-.75-1.74,7.04-1.95,9.55-.14,1.75.2,3.27-1.57,4.44-2.42.48-1.42-1.94-1.48-3.48-.12-2.83.09-5.69,0-8.51-3.08,1.9-3.62-.63-5.98-1.99l-.02,4.01-2.5-.1-.5,3.09c-.55.61-4.93-7-4.75-8.29.03-.24,1.77-4.32,1.93-4.5.2-.21,1.51.57,1.87.26,1.14-1,.48-3.48,2.96-3.96-4.15-3.03-4.26-7.8-5-12.5-1.46-.37-1.65.32-2.52.97-2.95,2.17-7.96,9.94-10.96,13.04-1.04,1.08-1.76,2.34-3.51,1.98l1.99-7-1.98-.97c3.47.41,14.12-12.23,13.92-13.38l-2.91-3.13,2.48-2.48c4.32,2.82.1,7.97,6.51,8-3.3,3.62,4.87,9.04,7.51,8.97,3.19-.08,9.44-9.92,7.98-12.98l-3.5,1.99c4.53-2.55,1.73-7.61,1.99-7.98.34-.48,8.51-1.31,8-4.49-.73-4.65-4.54,4.1-5.99,2.48,1.53-2.58.09-4.91-3-4.99-1.11,1.16,3.77,3.93.48,4.99-1.9.61-1.24-1.77-2.14-1.99-2.88-.71-5.14.32-7.34,2l.05-3.93c7.57.59,8.01-8.08-.29-5.79-5.02,1.39-19.51,11.98-22.8,16.19-3.96,5.06-1.99,12.72-3.98,18.53-2.79-1.05-.77-4.61-1.03-7.45-.1-1.14-1.37-2.15-1.47-3.04-.8-7.08,6.08-13.93,10.51-18.49l-11.38.87-1.61-3.18-3.01-.7,1.98,3.5-2.01,1.03c-3.77-.46-3.95-11.21-3.96-14.54l-8.06,1.52-2,7.47-3.94-.99,2.51-2.99c1.36-3.16-6.79-.8-8.99-.96-2.6-.19-4.79-1.82-6.99-1.87-3-.08-19.51,3.98-23.93,4.94-12.3,2.67-24.43,7.14-36.36,9.65-6.48,1.36-14.11,1.28-20.72,3.29l-2.01-1.03,7.48-2-9.99-.02,41-8-1.02-2.98c6.19.15,7.54-7.9,12.01-7.52l-5,6.49,12-1.99c-.22-3.33-2.53-6.27-5.99-6.01,1.62-2.34,4.3-4.97,4.63-7.98.27-2.41-2.77-5.26-.64-9.01l-6.98-1.01,2.24-.97.75-3.01-7.99,1.99c1.54-3.26,1.87-11.8,7-8.49.92.59,1.22,2.59,1.95,3.02.77.46,5.82-1.53,7.56,1.47,2.23-5.83,8.32.78,13.23-3.26.03-3.71,4.7-3.7,4.34-7.2-.56-5.44-17.7-5.74-22.27-6.82-8.71-2.05-17.61-6.04-26.8-6.71l7.99-5.99-2.97,3.5c7.83,5.13,17.17,4.35,25.98,3.49-3.64-4.49-3.29-8.69-2-13.98l-10.99,1.99v-6c4.35,6.59,6.63.9,10.74-1.97,3.4-2.38,8.18-3.73,10.25-8.02-1.08.04-1.97.6-3.1.41-17.05-2.85-31.53,8.62-46.91,15.06-3.25,1.36-6.82,1.85-9.94,3.06-6.56,2.55-13.28,6.39-20.04,7.45l22.05-12.44c.65-2.35,5.37-4.99,5.86-6.15,1.41-3.34-3.44-2.19-2.91-5.4l6.72-.78c2.99-3.46,20.48-10.63,21.79-13.2,1.81-3.55-.94-7.88-.61-11.53.23-2.6,3.42-7.66,3.62-10,.16-1.86-1.38-4.38-1.18-6.97.18-2.28,1.66-3.36,1.65-5.51-2.83,1.06-4.68,1.15-5.99-1.99l3.9-.11,2.1-5.88c-5.75.82-8.27,2.39-14,0l1,2.98-3.98-1.49,1.98-2.49c-3.36-.47-7.07,6.27-7.99,0,3.85-.34,13.32-2.53,13.08-6.87l4.99-.56.93-4.58c3.51-.8,2.88,1.3,3.89,2.36,2.2,2.33,5.14-3.43,2.12-5.33l2.01-.52-2.02-3.49,1.95-.44c-.93-.83-.58-2.72-1.21-3.39-.78-.82-3.55,1.02-2.74-2.17l7.86-1.16,1.14-3.85-6.99,1.98,3.99-3.5-2-1,2.09-4.91-4.56-3.34-3.05,1.79-2.92-2.14c-5.42,2.94-9.18-.11-14.54-1.89l1,4.99c-4.37,2.08-6.14-4.4-11-4.01l2.99-2.98-7.99-.02c-.07-1.49,3.55-1.74,4.61-1.87,2.45-.3,4.93-.1,7.38-.11l-2.99,1.98,5.58.92c.73-1.57.03-2.36,2.4-1.9,1.1,5.24,2.31,1.39,4.67,1.18,1.87-.17,4.03,2.46,6.35,1.81-1.7-2.16-.42-6.96,2.49-7l1.56,5.96,3.33-.06c2.84-.97,1.26-7.43,1.61-9.89l-11.54,3-.93-2.01c-6.71,5.53-14.19,4.28-21.94,5.08-3.38.35-6.43,2.29-10.58.93.08,1.75,3.17,1,4.79,1.67,1.39.57,1.72,3.91,6.2,2.33-.28,1.96-5.05,2.29-6.31,2-.72-.17-.56-1.73-1.4-1.96-1.32-.37-7.79-.45-8.29-1.06v-2.97c4.92-.95,9.79-2.11,14.79-2.73,3.93-.49,15.13,1.89,14.22-4.28h.98c-1.02,5.19,12.5-3.27,13-4.52.42-3.62-5.19.2-5.99-.49,1.65-2.96.41-4.37-3-3.98.84,2.54-.06,7.89-2.99,8.99,1.03-3.67,1.44-6.33-.02-10l-4.99.99,3-6.46c-1.09-1.21-1.25-1.96-3-1.03-3.02,1.58,1.78,1.27,1,2.5-1.78-.31-7.53-.18-5.99-3.49l5.99-3.01-1.99-1.48c6.1-.91,11.33-4.82,15.99-8.52l-5.49,1.51c-5.13-.05,8.17-8.94,8.6-9.49.64-.82.91-5.08,1.88-6.52l-4.99,1.99v-4.01c-4.98,1.27-8.57.25-13.38-.93l-.76-3.9-6.86-2.15c5.64,2,6.11-3.05,9.44-3.08.9,0,5.5.56,5.55,2.06-2.23.13-6.97-.62-7.99,2,3.07-.19,6.4.38,9.43-.05,4.68-.66,5.56-4.78,10.55-4.45l1.56-1.47-.55-3.02c-4.32,1.69-8.89,1.81-13.48.98-5.23-.95-1.22-8.51,4.96-2.98,1.38-.23.16-5.4,2.51-3,.72.73.08,5,2,4.99-.45-2.78,1.88-2.06,4.02-2,2.04-1.67-6.64-9.53-7.77-9.93-1.8-.63-10.04-1.56-11.14-3.16-.34-.5,2.68-2.61-3.56-5.94-7.17-3.82-27.87-10.44-36.27-12.73-4.33-1.18-10.78-1.03-15.28-2.73l21.38.57c10.82,2.04,28.32,10.95,36.38.45l-2.74-2.53,2.99-1.01-.99-6.98c2.97,1.92,5.99,1.73,6,6l2-3c2.08,1.47,2.64,2.42,5.01.53l2-8.04-15.01-2.48.67,3.03,3.3,1.47c-4.25,2.01-7.47,2.91-8.99,7.99l3.01,1.01c-3.44,5.48-9.93-1.61-13.95-3.05-1.48-.53-4.71-.25-4.98-.51-.55-.54.91-5.26-3.63-5.94-1.53-.23-6.47.52-7.75,1.2-1.89,1.01-2.55,6.89-5.68,4.81-2.98-1.98,3.03-7.56,4.99-8.52l-3-4.47c1.09.97,10.46,1.51,8.99-1.49-1.97-4.04-6.88.36-8.32.3-1.67-.07-8.4-4.88-8.43-6.29l1.75-4.52-2.99-.52c2.22-4.19.02-2.76-2-5.47,1.23-.08,2.72.42,3.82-.26.56-.34-.47-2.18,1.16-1.75-1.4,4.23,13.5,16.58,15.01,14.99-1.23-3.37-1.63-7.29-2.83-10.62-.49-1.35-1.73-1.39-1.83-1.66-.83-2.07.18-4.72-2.32-6.22l3.97-1.98c-4.8-6.54,2.06-11.45-.96-18.51,3.01,1.88,6.03-.69,9.28.02.8.17,3.49,5.11,7.7.98.43,2.87-1.24,4.66-3.98,5.02l2.49,4.98c.27-1.45,3.01-2.89,3.23-3.28,1.38-2.47-.94-5.79,6.27-3.72l-1.99-3.99c4.44.54,8.37-.83,11.5-4,.85,2.66,1.96,2.12,4.49,1.99l-8.99-7.98c5.19-.65,9.61,5.34,11.96-1.93l-2.95-1.58c3.24-.86,2.19-3.18,2.94-3.94,1.19-1.21,8.88-5.37,9.07-6.07.82-3.5-2.73-1.31-2.04-4.48h3c-.01-2.56-1.34-4.94-1.12-7.54.14-1.76,1.76-1.48,1.81-1.67.32-1.19-1.11-3.67,1.29-5.3l-4.97-2,3.99-.5-1.99-3.99,5.99,2.99.7-2.82c-.3,2.4,1.84,2.74,2.04,3.12.48.88-1.25,2.85.77,3.7,1.55.66,2.51-4.42,3.97-4.98,4.71,2,2.74,4.28,3.68,5.78,1.09,1.75,4.52,1.59,4.82-1.3l-2.98-1.99,2.84-1.29.65,1.82,2.34-.21,7.1-8.45c-3.13-3.37-2.88-7.5-4.73-11.07-.81-1.55-5.55-8.63-6.74-10.26-4.55-6.23-13.13-10.05-18.46-15.54,2.05-1.24,4.51,2.12,6.5-.47.15-.2.19-4.55.02-5.05-1.76-5.38-13.71-11.36-18.66-14.35-7.86-4.75-15.6-8.59-22.98-14.02-2.31-1.7-4.97-2.89-6.89-5.11.94-1.61,2.24.39,3.09.91,3.13,1.9,19.56,12.87,21.91,11.59-.41-.85-2.02-2.52.46-1.97,7.58,1.67,13.07,9.04,20.52,8.97l-1.99-3.5c3.3-2.19,2.38,3.72,3.59,4.62,1.56,1.15,7.62,1.72,8.34-.73.39-1.34-1.88-6.12-2-8.87-.23-5.26,2.04-10.01.84-15.79-.94-4.5-6.43-11.36-8.21-15.79-1.61-3.98-.99-7.34-3.74-12.26-5.52-9.83-11.4-9.11-20.87-4.14-1.44-.16-4.78-5.49-4.9-7.03l-3.05-.52,1.02-3.99c4.01,4.37,4.79-.62,6.47-.74.95-.07,3.75,2.45,7,1.79l.56-2.95,3.95-.11c-1.84-1.3-7.58-13.86-9.99-11.98-.29,3.45.25,4.83-4,4.99.24-7.17-3.33-13.34-10-15.99-.57.65.56,8,1.2,9.32.93,1.9,3.61,1.97,2.84,7.06l-1.94,1.05c.13,4.48,3.86,13.61-.09,16.57-.15-3.81.19-7.67-.01-11.49-.38-7.13-2.89-13.4-3.08-20.02-.05-1.81,1.07-3.69,1-5.06-.1-1.9-2.33-2.41-1.91-4.43,3.65,1.38,6.11,7.2,8.46,9.03,2.63,2.05,6.83,1.53,9.56,4.44,1.61,1.72,1.84,4.37,2.95,5.79,7.68,9.93,17.38,18.34,20.43,30.74.86,3.5,4.85,5.85,7.62,8.46,2.62,2.46,5.64,7.13,9.97,6.04l-7.99-7.01c-.16-.74,1.05-.68,1.48-.49,3.5,1.59,9.35,9.97,15.51,8.5-5.08-5.25-15.92-9.82-20.57-14.52-1.21-1.22-1.97-5.43-4.42-6.98,2.66.74,7.28,2.62,9.55,3.94,3.07,1.77,20.86,16.54,22.41,15.04-.59-3.69,3.91-3.42,3.04-6.99l2.99,1c1.25-1.43-5.78-11.81-7.26-12.73-2.57-1.61-6.95-.58-8.73-6.26,1.21-1.01,13.82,6.61,16.49,7.01,4.95.74-3.76-5.75-2.49-7.01,5.23.98,8.7,2.41,10.88,7.66l-2.88,2.83,9.5,10.51c3.07.49-.72-3.93-.58-5.45l1.85-.7.68-1.81c1.86,3.24,2.36,5.25,1.55,8.96,2.33.07,5.31-.08,7.39-1.18,1.92-1.02.73-2.46,1.53-3.37.86-.98,6.16-2.55,1.62-3.41l-5.53,4.97c-.11-4.31-.07-8.28,2.98-11.58l5.98,1.62-.47,5.95,5.49-8.99-1.93,6.38c2.44,2.7,6.61,3.72,3.96,8.13l1.96.46c.98-3.99,6.73-3.37,4.03-8.98l2.49,1.92c3.37-2.45,2.4-7.54,4.52-11.33-.03-.71-4.46-11.36-4.97-11.88-1.72-1.74-6.43-2.24-7.05-6.7,6.5.94,9.08,7.18,15.55,7.96,1.98.24,1.51-.3,1.44-1.97l-1.98-1.99,4.99.99-1.99-1.98,4.7,1.46.3,7.53c5.14-.34,3.59-4.29,4.04-6.37.08-.39,4.62-1.78-1.02-3.65v-1.96c2.97.25,2.14-2.51,3.02-4.28.44-.87,2.06-.69,1.96-1.22-.17-.88-2.36-3.1-2.56-4.47-.17-1.22,2.33-3.51.56-6.05,2.16,2.48,4.55,4.32,7.95,4.98l9.91-14.71c.78-2.7-2.49-3.54-3.34-5.31-1.53-3.17-2.48-8.6-1.54-11.96.09-.31,2.03-2.07,1.73-3.55-3.64-1.51-3.4-6.33-6.71-6.42l-.52,1.97-3-6.01-2.5.02.5,3.99c-1.82-2.06-4.45-3.78-5.72-6.27-3.89-7.64,1.27-5.79,2.73-8.71,1.02-2.05.33-4.79.5-7.01,3.45,3.04,5.35,4.32,6.3-.8.22-1.19-.58-2.74,1.68-3.2l.05,5.94c5.18,1.31,7.64-1.27,7.83-6.51.02-.47-1.65-.26-1.86-1.12-.31-1.27.41-2.96-.21-4.12-.3-.57-2.19-.68-2.79-1.7-1-1.68,3.31-2.29,3.54-2.25,2.79.51,1.28,7.3,1.53,7.62.5.62,5.18,1.37,6.43,4.16,1.5,3.35-2.64,9.96,4.47,10.97,4.63-6.47,5.21-7.91,5.02-15.99.35.59,2.48,1.82,2.01,4l1.98-1.51c.71-1.91-2.04-1.3-2.03-1.99.03-1.59,5.39-9.24-.48-11.49-2.74-1.05-.16,5.52-3.48,4v.97c3.16-.54,1.93,3.57,1.99,6.01-.79-1.34-2.12-2.64-2.01-5l-7.99,2,.98,2.51-1.97.48-2.02-5.99c7.13-.52,11.71-8.09,19.01-8.02l-1.02-3.99-1.5,2.04-4.48-2.56,3.99-3.47c-2.99-1.38-3.83-.37-6.44.98-6.32-7.5.37-3.05,3.94-6.97l1.51,3.98c2.59,1.09,1.63-1.88,2.62-2.06,2.99-.54,13.46,3.82,15.4,6.53,1.15,1.62,6.1,13.29,6.52,15.47.33,1.73.83,3.65.46,5.39-.08.37-4.26,1.57-1.02,4.15,3.7,2.95,11.78-5.33,12.98-9l4.04.54.45,11.04,7.54.94c.54,3.69-1.49.99-2.51,1.29-1.77.53-2.16,3.91-1.01,4.5l2.05.19.98,4c1.84.73,4.6-3.34,7.17-3.67,1.24-.16,3.9,1.09,4.32.68.36-.35-1.44-3.22,3.9-4.42,1.13-.25,2.59.6,3.46.3,1.43-.5,1.35-2.43,1.82-2.75.32-.21,4.93,1.04,6.3-.14l-1.07,5.47,2.57,5.54c-.37-2.51,2.05-1.49,3-2.72.78-1.02,2.13-4.8,3.03-6.26,1.88-.33.45,1.91,1.17,2.78.39.46,2.83.48,3.81,1.21-.2-3.57-4.23-5.79-7.36-5.04l-1.62,2.03c-2.27-4.09,6.15-7.07,8.07-5.58.69.54,2.31,7.47,4.94,9.13,6.25.73,13.73-2.2,9.98-9.54,2.57-1.05,1.64,1.78,2.65,2.01,2.08.48,4.73-.33,6.77-.91l1.64-7.08,6.93,1.96,1.02-5c4.95,1.94,1.97,5.62,2.3,8.4.3,2.44,3.42,10.06,3.29,11.12-.14,1.15-2.18,1.69-1.6,3.47l10.48-1.01c2.77-.71,4.22-5.43,7.58-6.54,2.01-.66,2.32.98,3.46,1.15,2.71.41,3.55-4.81,6.2-5.45,1.06-.26,5.11.46,4.28,2.34-1.11,2.51-3.55.42-4.45.56-4.42.68,3,5.39,7.21,3.26,1.56-.79,1.7-2.34,2.58-3.02,1.15-.9,3.65.86,2.69-2.79-.15-.58-3.03.02-2.02-2.5l2,.51,1.48-4.49,4.51,4.02c-5.75,4.74.28,5.77.88,9.71.38,2.53-2.13,2.98-1.88,5.26,2.76.96,1.73-1.7,2.05-1.91,2.26-1.47,2.08,3.21,4.93,2.94l-.51,2-2.48.47c2.83,1.4,3.49,5.43,5.02,6.98,2.49,2.51,7.93,3.05,9.9,4.07,1.66.86,2.97,3.29,4.57,4.44,2.55-2.06,2.42-4.11,1.51-6.98l5.4,1.96,2.09-2.96,2.49,2.5c-10.86,9.75,6.37,5.89,6.99,6.53.17.17-.29,1.75.32,2.67.46.68,2.11-.29,1.7,1.29l-6.99,1c4,.39,3.43,5.74,6.98,7.01.56-3.65-.04-6.01,4.08-6.55-.15-2.88,1.03-5.06-2.1-5.95l2.07-3.99c-6.09-2.66,2.08-5.09,2.81-7.2.43-1.25-.78-4.04-.36-6.3.9-4.81,6.15-8.27,5.74-15.28l14.76-28.72c1.94,10.4-7.66,16.94-5.4,26.82,1.16,5.05,6.89,7.22,1.92,12.15-2.79-2.98-6.05-.73-9.5-1.97,1.15,2.89-1.61,5.74-1.8,8.77-.05.73,2.43,10.32,2.86,11.48.33.89,1.96.7,1.96,1.24.02,1.79-2.81,3.34-3.79,5.23-3.92,7.51-.99,16.1-2.09,24.14,4.47.44,3.89,3.33,6.37,6.12l1.49-3,2.99,1.02v-3.03s5,0,5,0l-1.26-2.25-3.73.26,2-2.98-3.03-.5.21-3.38c4.67.78,1.16-3.77,4.82-3.12l-.86,1.83c2.71.89,11.68,7.32,3.86,7.17l3.01,1.5c.06,6.13-5.78,15.61-4.58,20.52.65,2.67,4.4,7.86,7.56,4.96-1.99,4.96,1.3,6.93,4.06,2.55,1.41-2.24-.12-5.23,2.94-4.54-1.33,5.04,1.82,5.72,2.77,9.7.27,2.15-3.37,3.37-3.47,4.8-.03.43,1.12,1.21,1.18,1.96.11,1.41-1.09,3.33-.06,4.61.84,1.04,4.1.34,3.59,2.93l.99-3c2.49-.03,2.81,2.88,3.01,3,.6.38,3.07-3.98,4.98-.49l-4,3.49,3.99-.99-1.96,4.4,3.97,2.62-1.99,3.97,6.94-.04c.21-.21.26-4.43.06-5.3-.24-1.04-2.51.04-2.02-2.14,5.39-3.92,3.71.69,5.02,4.49,3.19-1.33,2.41-6.26,6.56-3.07,6.59,5.07-4.91,9.36-5.71,14.94l-1.85-.88v5.01c1.35-.67,2.64-.83,2.99.99l-3.99,4.01c6.99.2,5.64-7.64,9.5-10.99,1.97,2.59-3.39,7.66-1.41,9.9.29.33,3.88.91,4.85.59,2.59-.85,6.75-8.22,9.06-6.49-3.28,4.28-4.33,8.43-5.68,13.63-.23.87.75,2.36.47,3.62-.41,1.87-3.67,3.89-2.78,6.74,12.91.28,12.72-18.87,23.5-22.99,1.08,5.46-10.79,19.28-1.63,20.06l.13,3.93,5.99-2.51-3-2.49,12-4.05-.91-3.37c.7-3.08,15.64.04,18.9-4.58.3,1.82-.38,4.37.01,6-.91.29-2.85-.35-4.01.48-2.73,2.03,1.96,1.78,1.99,3.02.06,2.22-7,.97-5.98,4.5,4.51-.56,7.82-1.69,11.98,1.01,2.16-4.79-3.66-7.59-3.99-9,5.46-1.75,8.55-4.59,12.99-8,2.04,2.28-11.54,8.33-7.5,15.01l4.57,1.59,3.92-3.6c1.47,8.47,8.55,8.59,15,5l1.03,6h2.98s1.01-5.98,1.01-5.98c-4.57,0-6.78-4.23-8.01-8l11-4.01-1.99,4.99,4.05-.5,3.42,4.49c15.69-13.36-10.05,8.31,5.78-4.85,24.51-20.38-19.33,20.64,6.84,1.96,3.48-2.49,7.18-4.92,10.81-7.19.85-.53,2.17-2.51,3.1-.91l-25.52,12.99-.48,2.01,17.99-3.98c-2.95,5.91-13.03,2.96-13,9.99l17,1.99c-6.04,2.6-13.29-1.77-19.41-.95-5.63.75-9.56,6.32-14.21,8.88l-1.89-1.97-1.82.2-20.18,18.84-1.47-1.47c2.96-1.86,4.7-8.49,6.27-10.23.64-.71,6.6-2.47,5.24-4.29-4.54-3.34-8.85-.91-13.51,0l1-2.98c-10.79.83-17.51-.5-23.35,9.99-.56,1.01.52,4.2-2.63,5.5l2.87,1.61-.89,3.88c4.58-1.47,6.67-4.32,11.99-3.99-3.42,1.96-6.08,7.44-.32,7.89,1.46.11,4.57-5.22,6.94-5.65,1.4-.26,3.66,1.17,5.39.76-1.56,1.82,1.99,10.11-.51,9.97-.55-.03-6.21-7.1-9.49-4.48,3.41,5.87,11.39,7.24,15.26,11.47,1.48,1.61,1.55,4.95,4.38,5.93,2.5.41,12.07-9.59,16.35-7.88-1.49,2.35-5.39,3.01-7.09,5.48-1.41,2.05.34,5.94-1.9,8.02l-10.99,4.51c-.22,1.79,2.33.97,3.5.94,5.18-.13,10.34,0,15.49-.46-1.87,2.72-6.14,1.72-8.22,2.59-2.17.9-26.38,16.08-27.8,17.61-3.7,3.97-2.69,6.94,3.02,4.31l-1.99,2.99c6.35,1.72,8.74-2.98,13.99-3.98l-4.98,5.49c3.53,4.14,6.96,4.46,12,3.98l.05,6.45,5.92,2.57c-2.62,3.81-9.1,6.62-13.55,6.58-1.65-.01-1.26-1.14-1.91-2.1l-2.52,1.02.93,3.86c-9.53,3.24-13.78,17.09.07,15.14-2.57,5.02,7.38,8.67,11,7l-3.99,9.99c2.71,1.31,3.18-1.93,3.49-2.01,4.23-1.04.9,3.89,5.02,3.61,3.46-.23,9.38-5.84,10.41-9.18l-1.93-3.4c5.84-1.61,11.14-1.02,17,0l-3.99,1.98,13.34-1.03,1.67,5.04c1.58,1.4,6.7-6.17,8.66-6.85,2.36-.83,2.62,2.84,6.34,2.36l-7.01,1.51c1.5,3.12,7.11,2.79,7,6.98-7.3,3.43-17.72-4.5-24.39-3.71-3.25.39-7.52,6.39-5.11,6.72,5.09.2,13.03-2.11,16.5,1.99l-3.01.02c.23,2.5,3.45,4.08,5.6,3.71.94-.16,1.6-4.4,5.41-2.71.27,2.14.09,2.69-1.64,3.93-2.12,1.52-19.28-.37-23.62.31-5.41.84-21.04,5.81-19.74,12.75l12.99,4.51c.07,2.29-13.14.36-8.96,5.98l40.97,15.51c-9.73-1.21-18.64-5.63-27.74-8.75-1.84-.63-4.38-.19-6.98-1.02-2.79-.88-14.73-7.53-14.09-10.57l2.81-3.64c-4.34-.11-8.76,1.6-11.57,5l1.57,3.98-3,2,10.01,1.5,11.99,4.5-19.48-4.99-.51,2.49,7.99,2.52-6.99.48c5.17,6.76,7.74,11.12,14.53,16.51,3.52,2.79,3.18,1.82,5.28,3.15.68.43.57,3.18,2.22,4.31,1.85,1.27,6.06.33,6.96,2.52-7.7,1.61-12.61-3.33-19.78-4.21-2.77-7.41-7.98-13.58-16.21-14.77,3.6,3.72,1.47,7.4-2.83,9.21l.82,8.78-2.98-2c1.39,4.2-2.09,6.27-3,8.52-1.45,3.59,7.03-.28,5.99-1.51-.31-.37-2.39.82-2-1,3.3.9,2.87-1.83,3.05-1.97.34-.26,2.1,2.08,4.35,1.98,4.4-.19,5.94-8.07,12.6-5.01l-4.01,2,1.01,2.98c-4.55-2.15-10.13,2.71-13.99,5.51l3.96,1.02c-2.25,3.69,1.5,5.64,1.04,9.48l4.98-2,2.01,4.99-11.77-.22-3.74-8.77-2.38,8.42,4.89,1.58c.96,2.74-1.67,1.71-1.92,2.06-1.56,2.21,7.66,5.07,9.14,4.75,1.93-.42,4.32-3.01,7.73-1.87.79-3.77.95-5.83-.8-9.3l3.84-2.64c-1.81,5.24,1.3,8.8,0,12.99h3.02s-1.01,4-1.01,4c8.63-1.45,5.91,8.48,8.24,10.79.69.68,2.23.59,3.07,1.18.97.68.14,2.39,1.68,2.04,1.34-3.63-1.62-3.98-1.74-4.22-.99-2.01,1.81-4.47,3.74-4.77.6.45.23,8.09,3.2,9.82.76.44,10.24-1.21,12.81,1.19-.71,3.65-5.6.58-5.99.98l-.74,3.58,2.54,1.57.22,2.3-3.51,3.53-7.51-2.97c-.49,2.53.47,1.77,1.94,2.51,3.1,1.58,7.36,1.33,9.06,4.47-3.67-.75-7.27-2.94-10.96-3.55-.96-.16-7.59-.52-8.59-.5-3.49.08-8.36,4.9-12.44,3.06-.64,2.63,2.03,3.43,2.89,4.83,1.34,2.2,3.66,7.95,5.04,9.53.88,1,2.47.2,3.09,1.3.61,1.1.84,3.92.97,5.33-2.26-.35-1.69-3.73-2.92-4.57-.68-.46-2.59,1.02-4.04.13-1.9-1.16-4.01-7.01-7.45-8.62-1.19-.55-2.43-.1-3.48-.54-5.71-2.41-17.68-10.21-19.92.32-1.96,9.16,11.23,7.76,15.8,9.8,1.48.66,8.18,8.04,7.02,9.47l-14.99-7.99c2.7,4.49,7.89,6.74,10.99,11.49-2.5,1.17-5.65-3.42-6.01-5.5l-.97,1.97-5.99,2.52,11.98,6.49-3.99.02c-.54,1.39,4.06.91,1.99,2.99-1.08,1.08-10.86-2.1-12.53-2.06-3.09.08-6.62,4.05-10.47,3.07-.45,2.6.36,1.55,1.43,2.09,2.3,1.17,5.67,1.32,7.56,3.41.02,1.85-7.73,1.16-8.98,1.51-.97.8,3.53,6.12,4.5,6.99,9.8,8.73,26.23,17.92,37.41,25.59,3.04,2.09,5.97,5.37,9.36,7.64,9,6.02,18.89,10.55,27.72,16.77-11.47-3.35-21.64-13.68-33.63-14.88-1.05-.11-2.64-.76-2.36.87l3.99,3-18-2.98c4.05,2.07,1.85,4.15,2.88,5.53,1.13,1.52,4.53,2.08,5.12,4.45-8.22-2.03-10.81-11.73-20.57-6.03.11,7.38,8.02,11.01,12.6,15.5,2.28,2.23,3.63,4.95,5.95,7.05,1.4,1.27,19.22,13.39,18.02,14.47l-17.51-9.98-18-13-.5,4.99c-4.57.32-6.68-2.87-7.55-6.94-1.01-4.73,1.3-7.77-3.96-10.05-2.83-1.22.73,3.96-1.98,3.97-10.89-9.6-16.76,4.76-14.03,15.05,1.07,4.02,7.57,9.32,8.09,12.92.2,1.38-2.61,3.45-.42,5.93,9.74-1.68,7.21,3.82,10.37,7.12,1.26,1.31,4.35,1.36,5.47,3.51-3.28,2.81-6.34,5.1-10.74,5.72l-.77,2.8c7.97,8.26,20.64,14.49,28.05,22.95,4.86,5.55,9.1,14.39,14.08,19.92,5.77,6.41,20.71,12.78,18.38,22.1-2.97-2.03-3.71-6.98-5.97-9.51-3.43-3.85-10.24-7.25-14.53-12.47-4.84-5.89-8.14-13.83-13.99-19.01-3.43-3.03-8.78-4.71-12.82-7.18-2.02-1.24-4.9-5.58-4.44-.58.11,1.16,2.31,6.66-.72,5.74-2-.61-9.54-6.67-11.58-8.44-1.54-1.34-1.77-3.43-1.94-3.54l8.99,4.99c.46-.47-4.87-11.14-5.53-11.96-1.82-2.27-4.45-2.62-6.49-4.51-1.39-1.29-9.28-11.1-10.98-9.51,1.47,5.14,6.09,8.94,8.25,13.33,2.28,4.63-1.05,3.12,5.75,7.66-.2-.14-2.31,1-4.32-.08-5.69-3.06-12.95-14.03-20.67-14.92-.42,3.51,3.25,1.19,3.01,5.41-.25,4.47-4.7,5.07-5.53,6.53-.29.52.51,3.21.13,5.07-.61,2.92-3.17,5.26-3.58,7.52-.45,2.46.26,5.29-.12,7.88-.49,3.37-2.86,6.06-1.73,9.85.54,1.8,9.86,13.69,11.83,16.19,14.4,18.3,26.6,31.74,39.51,51.49,1.93,2.95,6.23,5.45,7.96,9.04l1.51-30.49,1.98-16.51c-.35,10.57,1.22,20.96,1.06,31.54-.05,3.42-1.31,6.53-1.13,9.97.21,3.96,4.27,7.77-.91,9.09-3.57.91-6.21-6.15-8.5-8.63-10.75-11.62-16.05-19.33-25.55-31.45-9.89-12.61-22.62-23.74-31.62-37.38l-2.33-1.16-.74,26.39c3.41,7.46,11.27,13.42,12.72,21.61-4.68-4.01-6.92-10.66-11.17-15.32-.89-.98-.89-2.13-2.82-1.68v14.5c0,6.86,6.89,19.36,10.58,25.42,1.62,2.66,6.78,8.2,7.41,9.59.2.43.25,1.64-.49,1.48-6.47-5.34-9.24-13.46-13.91-20.12-.84-1.2-.04-2.45-2.59-1.87,2.66,9.93,9.98,24.75,10.99,34.5.54,5.21,1.08,10.59,1.6,16.05-.9.3-1.79.59-2.69.87-1.13-13.46-2.53-25.71-7.4-38.44l-.23,40.56c-.64.16-1.28.33-1.93.48.22-21.91-.64-44.24-4.61-63.26-.53-2.54-.9-5.71-3.73-6.76,1.22,9.29,4.06,18.99,3.88,28.39-.09,4.77-1.7,11.35-1.88,16.12-.32,9-.47,17.98-.52,26.94-1.53.28-3.06.55-4.6.79.14-10.9.29-21.78.21-32.62-.03-3.86,1.08-8.51-.31-12.91-.62-1.97-6.42-7.51-6.82-10.25-.57-3.86,3.15-8.43,3.79-12.19,1.54-8.98-3.07-20.32-8.75-27.26.3,5.78-.43,11.78-.05,17.54,1.72,26.13,2.87,52.47,3.48,78.77-1.67.17-3.35.31-5.03.42-.81-9.03-1.99-18.02-3.69-26.94-1.48-7.74-4.05-15.12-5.72-22.79-3.14,3.03-4.58,11.09-4.97,15.51-1,11.21-.1,23.02.14,34.72-1.16.04-2.34.07-3.53.09.76-11.78,1.56-24.05-1.12-34.34-1.1-4.24-3.62-8.15-4.25-12.75-1.45-10.69,2.53-32.49-8.74-39.33-3.46-2.1-22.49.8-20.51,8.08.93,1.01,3.5-3.3,6.38-1.05,2.69,2.11-1.1,3.25-1.74,4.13-2.28,3.11-3.02,3.43-5.19,5.87-5.18,5.81,0,8.23-1.42,13.99,6.48,4.12,14.68.32,19.97,5.05l-4.43-1.05c-2.13,5.31-1.89-1.02-5.56.06v3.01c-3.59-2.19-6.8,1.51-9.49,2.01-3.12.58-.12-5.41-2.99-4.01-4.15,2.03,2.4,7.98-1.6,13.41-2.15,2.92-6.02.57-7.47,2.56,3.28,10.33-2.34,11.78-6.63,18.33-6.7,10.22-7.59,18.78-8.26,29.94-.73.61-1.45,1.24-2.16,1.91-.09.09-.19.18-.29.27l2.15-22.73c.15-2.72,2.83-2.68,3.86-5.07,2.37-5.49-.61-10.93-.15-16.58l-5.94-1.53c1.32-4.03,5.11-2.87,8.33-4.67,1.82-1.02,13.43-9.53,13.58-10.46l-1.93-6.39c-.41-.52-10.38,2.18-11.36,2.06-.59-.07-5.66-7.51-8.66.95-5.44-5.28,4.54-6.29,8.54-7.97l.48,2.96c3.51-2.19,7.01-.67,9.5-.98,1.76-.22,4.9-4.88,5.49-6.53.97-2.75-1.94-.05-2-.99-.3-4.53,4.6-24.85-.58-26.43-2.93-.89-2.84,2.07-4,2.9-2.89,2.07-3.66,1.1-5.57,5.38-1.82,4.07-1.53,6.68-2.32,10.7-.21,1.07-.07,3.23-1.51,2.96-1.22-8.62,5.57-29.14-9.55-16.95l.55,5.96,1.96-.99,1.05,2.5-2.05,1.04c2.32,6.77-5.29,13.63-8.15,19.75-1.63,3.48-8.54,24.58-6.68,26.55l3.75,1.05,4.1-12.91,1,7.99,2.02-17.99,1.03,10.53c-1.88,4.33-.62,11.18-1.25,14.73-.75,4.26-4.17,10.1-4.8,14.72-1.77.25-.98-2.24-.76-3.26.54-2.5,1.7-5.06,2.31-7.73.42-1.87-1.48-2.7,1.36-3.43l-.91-5.57-3.01,3.7c-.83,4.61.28,13.6-.28,17.64-.37,2.68-3.52,7.57-3.63,12.31-.15,6.42-.23,12.85-.31,19.28-1.61.23-3.27.34-4.97.36l-6.81-6.81c4.47-2.22,5.71.72,9,2.5v-6.99s-1.98,1.99-1.98,1.99c-.2-6.48-7.51-13.41-9-18.51-.41-1.41.09-1.77,1.46-1.46l4.59,2.5.43,3.48c2.18-1.65,3.15-3.5,2.33-6.28-.37-3.01-9.4-6.37-8.81-8.2,1.19-3.72,5.34,3.41,7.5,3.24l3.48-2.76c1.39,7.97-2.92,14.22-1.98,21.99l1-4.99,2.98,4.99c-2.64-8.39,5.81-26.58,3.9-33.37-.54-1.9-2.73-1.49-3.7-.39-1.32,1.5.09,4.41-.82,6.49-.65,1.48-3.34,1.93-3.46,4.19-1.54,1.04-4.04-2.37-3.93-3.92l-11.49,6-.55-2.9-8.92-.59,10.48-6.48c2.85,1.28-.43,5.01,2.02,5.97,3.01,1.18,1.31-4.77,1.49-4.99,2.69,1.71,5.47,2.99,8.07.33,2.57-11.6,8.62-23.4,6.98-35.28l2.95-.05-4-10.99,2.99.5c-1.71-2.64-4.36-2.34-6.99-1.51,3.11-9.35-2.58-7.57-8.3-9.04-.81-.21-.66-1.76-1.4-1.94-2.35-.56-5.76.32-8.31-.01l4,.98c-.14,1.47.25,3.13.07,4.53-.25,1.87-7.11,7.35-6.86,1.78.07-1.6,3.5-4.03.27-5.29-4.29-1.68-1.74,7.33-3.5,8.98-2.67-.63-.43-5.64-1.44-6.99-2.11-2.85-5.3-.1-4.57,3.41,1.92,1.04,2.42.98,2.03,3.59-3.78-.41-4.42-.17-4.9,3.58-1.35,10.43-1.08,22.26-2.11,32.92-1.47,15.19-2.62,30.33-3.86,45.45-.69-.13-1.38-.25-2.07-.35-.13-4.71-.35-9.44-.05-14.08,1-15.56,6.04-33.73,6.07-49.01,0-2.5-1.37-16.14-2.07-17.79-.52-1.21-7.17-1.63-5.01-7.71h-15c1.9,4.59,4.01,2.02,6.4,2.01.58,0,.6,1.49,1.41,1.88,2.33,1.14,5.98,1.77,7.19,4.1-5.23-.64-7.99,5.25-12.29,7.22-2.43,1.12-7.12,1.18-8.45,2.05-.87.57-.82,2.89-2.95,3.55-3.56,1.11-8.88-.96-12.65,1.1l-4.68,11.07c-4.93-1.44,2.59-12.56,2.01-12.98-5.45-.72-5.35,4.06-8.7,6.26-4.68,22.73-3.86,46.99-3.42,70.91-1.29.22-2.57.42-3.86.58.05-8.59.07-17.18-.02-25.76-4.39,3.31-2.43,11.67-6.98,15-2.42-7.11,3.96-12.21,4.93-18.56.38-2.49.42-8.43,0-10.88-.79-4.72-8.38-14.17-13.95-12.56l.16,10.34c.85,2.59,7.38,1.84,4.84,7.65l4.99-2.49c-1.33,4.48-9.95,4.92-7.27,9.51h2.28s-.02,2.95-.02,2.95c-7.59.65-3.72,10.85-3.94,16.58-.1,2.72-.8,5.69-1.37,8.6-1.17-.16-2.34-.36-3.49-.59,2.22-9.07-.5-18.13-1.09-27.16-.25-3.76,3.02-7.86-4.08-9.39l.46,35.4c-1.13-.32-2.24-.66-3.36-1.04-.02-2.3-.05-4.61-.06-6.91-.04-5.33-.02-10.56-.02-15.91,0-7.02-.02-14.04-.01-21.06l-10.01-11.48,4.43,1.03,1.19-2.13,4.38,1.08c-.69-1.34-2.3-3.16-3.49-4-2.29-1.61-5.84-1.23-5.5-3.99,1.94,1.09,4.61.98,6.39,2.1,2.04,1.29,3.42,6.78,6.6,5.4l-6.99-8.01c3.98-1.14,1.43-5.71.98-8.49-2.95,2.4-6.22.18-7.7.67-.96.32-3.09,3.73-4.8,4.33l-.99-2-5.49,5c-1.62-4.93,11.83-10.73,11.81-12.49-1.43-2.08-1.84-4.15-4.82-3.52l1.52-2.99,5.05,2.98.93-1.98c.52,1.73,2.89,2.8,3.51,3.7,1.25,1.84-.08,5.05,2.99,4.29l-.89-23.39c-6.22-.05-12.38-6.9-17.73-7.27-8.69-.61-10.34,6.73-2.38,7.16l-1.58,2.51-4.39-1c-.54,1.81-.94,3.52-1.08,5.44-1.53,20.74-.36,46.92.02,68.1.06,3.53.15,7.06.24,10.6-1.12-.49-2.24-.97-3.37-1.42-.91-22.24-1.54-44.4-.89-66.28.13-4.38,3.89-13.49-1.96-14.48l2-2.98h-4.01c-.49-3.44.34-5.43,2.97-7.56.74-1.87-6.94-5.55-7.68-6.73-1.11-1.76.2-6.51-3.27-5.72.46,2.34-1.41,3.9-2,5.52-1.07,2.92,2.75-.93,2,1.99-2.17,8.45-5.3,16.45-4.02,25.5-4.19-2.13-4.22,2.81-8,2.99.81-3.67,3.93-5.94,5.06-9.43.85-2.61,2.52-10.37,2.85-13.14.63-5.27-2.17-9.66,1.09-13.41-2.3.92-3.09-1.54-3.28-1.59-8.06-2.39-10.86,7.04-11.61,13.19-3.82,31.18-1.87,69.68-2.01,102.53-1.27.82-2.53,1.64-3.79,2.44l1.19-101.58c-3.78,19.89-3.52,40.27-4.51,60.48-.72,14.7-1.37,29.47-1.97,44.27-.88.49-1.76.96-2.63,1.4ZM421.89,752.11l-2.9,1.87c3.53-1.24-.13,8.01,4.48,7.01,3.81-.83-.11-7.22-1.58-8.88ZM566.98,271.99c5.06,2.37,9.05-2.07,13.99-3,.51-6.36-15.05,1.66-13.99,3ZM47.98,330.52c.54,4.17,4.21,5.43,8,5.47.45-.35-5.68-10.18-8-5.47ZM72.97,447v-3c-3.3,1.88-7.4.9-8.01-2.99-4.34.11-3.41,5.13-3.98,7.99h6.99s-1.99-2.98-1.99-2.98l6.99.99ZM70.98,562.01l-18.33,12.16-2.67,2.82c7.88-2.32,15.65-8.69,21-14.98ZM243.97,672c-2.86-6.51-7.63-12.8-9.95-19.54-3.23-9.41-1.54-16.92-3.07-24.93-.63-3.29-5.16-4.84-5.82-7.25-.8-2.91,1.76-6.78-.34-10.61-1.2-2.18-3.39-1.08-3.84-2.34-1.85-5.19,2.65-14.83,3.44-21.19,1.62-13.1,1.35-27.43-4.66-39.39-3.39-6.76-11.69-10.03-11.77-18.74-4.86-3.62-1.46,16.59-4.49,16.98-2.08,0-2.01-14.44-1.55-17.4l-1.41-1.41c-5.77,2.86-3.46-2.82-1.83-5.92.61-1.15,2.19-1.25,2.32-1.94.38-2.18-1.14-4.46-.61-6.36.79-2.89,4.25-2.11,3.61-5.37-.9-4.63-6.35-4.01-6.91-4.68-.39-.46-.19-9.81-4.1-10.89-.73,4.25,1.42,8.36,1.05,12.5-.21,2.26-1.54,3.65-1.79,5.26-2.42,15.57-1.44,54.55.65,70.8.26,2,2.2,1,2.16,2.86-.16,7.44-1.65,15.07-1.12,23.11,1.22,18.74,10.17,33.95,19.03,49.97l31,16.49ZM183.97,424.99l-2.01-4-3.01,1.6c1.81,4.25,2.18,8.86,3.75,13.19,4.78,13.18,22.78,31.84,33.39,41.61,4.36,4.01,12.92,7.69,13.9,13.61,3.07.94,2.56-3.95,3.56-4.08,5.93,2.2,9.21-2.64,15.42-1.92l-1.48,2.62-2.52-.62.76,1.82-1.76.65,4.78,9.03c-2.78,2.82-4.62,4.85-6.31,8.5-.39.85.43,2.02.22,2.78-.05.18-1.56.2-1.7.8-1,4.31,5.21,4.79,7.01,8.91l-2.98.49c-.8,2.72,1.38,1.76,2.51,2.97,5.4,5.82,18.85,16.6,27.05,16.95,2.55.11,5.74-1.7,7.98-1.49,1.64.15,2.62,1.96,4.46,1.56l-.51-2,3.85,1.88c5.13-3.84,12.23-4.26,14.15-10.86l3.49,2.97-13.99,8,14.99-3-2.99-1.98c5.7-1.32,8.76,3.23,13.99,4-1.93,3.47-6.64-1.66-8.99-.52,3.58,1.19,9.1,8.34,12.1,8.04,4.12-.4,4.72-3.96,6.98-5.95,4.54-4,9.52-5.61,8.9-13.59l-5.99,6.5c-3.97,3.22-5.88,5.28-11.42,4.5l-.58-3.01c5.24,2.77,3.57,1.46,5.8.11,1.23-.75,2.36-.65,3.77-2.03,4.21-4.14,5.91-14.91,9.44-20.07l1.48,1.99,2.53-2.98,1.93.06c-.59,3.74,9.89-.26,12.01-1.63,1.49-.96,4.61-5.56,6.05-4.44l-2,2.98,3.02-2.99,5.42,2.98c1.43-.33,7.93-20.16,14.55-15.97.68-8.48,11.51-9.4,11.02-20.01l1.48,2.99c3.09-1.39,10.89-17.31,12.69-21.32.62-1.39,2.03-8.34,2.27-8.72.54-.87,2.19-.03,3.01-.92,4.23-4.54,5.08-16.13,8.45-21.6l-1.91-1.43-.99,1.99c-.04-3.45,3.27-4.91,1-8.48l2.9-.63c-.52-4.65,1.7-.99,3.52-3.92,4.04-6.49,1.96-13.47-.45-19.98h-1.98c-.31.28,2.44,6.46,2.77,7.73.26.99,1.02,3.5-.76,3.26l-5.17-11.82-3.76-.09c-1.53.88.81,12.8.96,15.38.07,1.09.64,3.79-1.03,3.53l-5.77-18.75,1.75-.25c-1.75-9.52-6.02-18.22-10-26.99-2.34.44.68,4.78-2.98,4.01l2.81,2.66,3.17,11.33c-1.02-.48-2.42-.78-2.96-1.79-1.45-2.72-3.04-8.33-4.62-11.13-.67-1.18-2.11-2.59-3.41-3.08.82,2.92,1.51,6.14,2.51,8.98.96,2.72,5.56,7.44,1.49,9.02-3.83-9.99-6.93-21.33-11.61-30.9-.98-2.01-6.34-11.52-7.4-12.69-1.34-1.48-2.9-.28-4-1.91l1.99-.99c-1.64-.57-3.69-6.94-4.98-3.75l-.07,2.14-4.94.12,4.99,3-3,1,2.01,3.98c-1.28.95-14.38-2.16-12,4-5.58-2.53-9.36,1.96-14.41.12-1.62-1.21-1.33-16.39-7.59-15.1l.99,4.99-1.51-.98c-1.78-8.19-3.56-21.25-9.97-27.03-4.1-3.7-9.9-1.82-13.02-6.99l-.99,1.99c-3.98-3.62-3.84-9.47-9.01-12.99l2.5,6.99c-1.24,1.33-9.46-9.37-12.99-6.5,2.58,2.22,5.88,3.32,8.49,5.51,1.39,1.17,2.16,3.88,3.52,4.56,1.17.58,2.81-.63,2.93-.54.31.22.29,2.9,1.29,3.74,1.12.94,5.61.96,6.75,3.74l-4-.5c2.92,4.08-3.99.49-5.34-.16-3.21-1.54-6.95-2.61-6.66-6.86l-2.9.94c-2.99-5.82-5.62-11-13.09-10.92l1.99,2.49-4.99-1.52.63-2.09,2.36-1.88-4.99-1,1.48,2.01-5.38-1.13-.11-3.89-2.52,3.07c-6.06.15-14.07-2.13-19.84-1.75-4.65.31-21.86,6.11-26.33,8.48-.65.35-10.25,8.28-8.29,3.71l4.99-5.02c.16-.74-1.04-.68-1.48-.49-.77.34-8.9,7.97-10.58,9.43-8.83,7.67-7.43,8.95-13.48,16.52-1.19,1.48-3.78,2.44-5.44,4.55-4.43,5.64-.73,6.54-1,7.96-.17.86-2.64,1.16-3.34,2.77-.97,2.23-3.61,9.14-4.4,11.53-4.57,13.85-.93,27.4-2.28,41.72-.26,2.74-.44,4.93-3.02,6.14l1.07,3.34,1.95-.98c-1.21,6.48-3.36,12.32-1,19.02l-2-.5,3,11.49ZM203.47,293.99c1.56-1.59,15.17-11.39,13.51-12.98-12.87,3.44-20.23,13.76-23.99,25.99,3.86-3.84,6.65-9.12,10.48-13.01ZM436.78,470.78c-.19-2.19-3.92-14.19-5.43-14.7-.85-.29-1.83-.18-2.68.07-1.25.37-2.94,2.52-3.2,3.74-1.08,4.96,12.13,20.11,11.32,10.89ZM421.99,466l-.89,5.87c12.56,6.65,5.02-8.65.89-5.87ZM417.98,486c-1.46-.23-1.35,1.73-1.7,2.79-2.4,7.48-.64,11.16,1.71,18.2,2.44-.01.02-2.86-.01-3.49-.34-5.79.25-11.71,0-17.5ZM391.97,550c.26-8.28,2.79-17.28-1.49-24.98-6.72,6.19-1.15,9.86-.55,15.59.42,4.02-2.52,7.54,2.05,9.39ZM394.96,497.48c1.73-.75,8.54-2.12,8.88-2.62l-.36-3.86c-4.31,4.82-13.83,2.27-14.5,9.99,2.56-.09,3.54-2.46,5.98-3.51ZM409.97,476.49c1.68-1.66.26,2.08,1.99,1.51l2.01-8.99c-1.52-1.65-21.16,14.97-20.99,18.99,1.53,1.4,6.45-5.75,7.49-6.99,3.34,2.94.28,7.16-1.49,9.99,6.23-1.7,6.24-9.83,10.99-14.5ZM361.98,512.5c4.81,5.83,11.59,3.19,12.99-3.49l-12.99,3.49ZM212.56,517.07c-2.46.77-1.98,14.25,3.41,13.93-.53-3.77,3.67-16.15-3.41-13.93ZM225.98,488.99c-2.96-3.98-8.59-4.23-11.51-8.98l-.48,1.98-4-.99,6.29,5.2,9.7,2.78ZM273.02,705.49l-.05-2.49c-3.09,1.21-4.61,5.44-4.99,8.5-.8,6.32.58,14.01,0,20.5,4.63-5.39,4.1-17.8,2.02-24.42l3.02-2.09ZM292.97,770c-.64-4.87.34-13.04-5.99-13.99l5.99,13.99ZM292.98,741.5c0-.62-1.56-5.39-2.99-5.5-1.4,5.53-5.88,19.82,2.99,20v-14.5ZM382.99,647l2.98,6.99c-1.16-6.69,1.62-13.24,1.99-19.51.79-13.23-.07-27.65-.03-41.03.03-9.74,2.51-31.14-1.5-39.4-1.26-2.58-8.95-8.6-11.48-11.55-1.18-1.38.57-3.12-3.46-4.6-4.13-1.52-6.4,2.87-9.97,2.98-3.76.11-6.2-2.85-11.56-1.41-5.68,1.52-24.34,20.66-24.96,26.14-.32,2.84,2.56,13.7-.08,15.35-1.76,1.1-3.65-.65-3.93-2.45-.66-4.27,0-11.31,0-16,0-.32,1.2-1.17.11-2l-3.09-1.49c-3.37,4.85-1.93,5.88-1.98,10.45-.15,13.69-.03,27.39-.08,41.09-.01,3.37,2.75,9.53-2.95,10.45-1.83-1.33-.81-24.27-.96-28.53-.19-5.19-.7-25.27-1.96-28.05-2.74-6.06-4.52.74-4.97,4.2-.61,4.66.45,9.22-2.01,13.78l-4.1.61c-1.39-3.19.62-17.81-1.14-18.87-2.16-.18-6.02.57-5.63-2.66.32-2.66,5.8-1.71,4.76-3.96-1.14-2.48-6.67-1.3-8.99-1.51,1.64,6.71-2.47,12.92-3.04,19.45-1.5,17.2,5.12,40.82,2.94,56.95-.16,1.21-.41,4.11-2.39,3.58-5.04-2.61-1.41-23.27-1.44-28.5-.08-11.69-3.56-25.1-1.98-36.9.56-4.21,4.81-8.53.86-12.04-1.19-1.06-13.58-9.39-14.44-9.56-.7-.15-1.72-.18-1.5.51,5.58,5.54,5.54,9.85,4.99,17.5-3,3.13-7.78-9.71-5-11.99-1.66-1.31-12.04,1.94-13.46,4.03-2.06,3.03.5,8.94-2.54,12.43l3,.52c-1.8,13.15,1.36,26.75,0,40.01h-2.99c-1.13-1.06-1.59-29.53-.75-30.83.31-.49,1.91.24,1.76-.68l-2.04-1.14.02-11.35c-2.61-.13-4.66,2.95-5.33,5.16-1.51,4.97-2.93,21.8-2.38,27.07.47,4.56,3.05,9.67,3.5,13.5.56,4.72-1.09,13.13-.82,18.82.28,6.06,3.7,25,2.16,29.05-1.62,4.25-4.9-4-5.17-6.04-1.61-12.45,1.62-28.53.07-41.07-.43-3.5-3.82-8.55-3.82-11.15,0-1.4,1.58-2.3,1.69-3.76.18-2.58-1.8-7.71-1.93-11.02-.22-5.54,1.16-17.55.06-21.84-.28-1.09-2.56-1.02-2.96-2.32-.51-1.66.93-3.44.7-4.76-.23-1.29-4.22-4.38-4.57-7.33-.59-4.95,1.06-7.02-1.15-13.82-1.65-5.05-1.5-6.92-2.46-10.5-.11-.4-3.23-7-3.55-7.49-1.1-1.7-2.93-2.8-5.03-2.46l-.77,16.55c5.17,1.71,7.05,10.38,8.04,15.63,1.66,8.85,1.86,28.68,1.8,38.32-.04,6.41-3.09,13.47-2.02,19.93,1.07,6.49,9.03,10,10.92,15.08,2.53,6.8-.62,17.32.3,24.96,1.2,10.03,7.26,15.58,11.73,24.01,7.83,4.75,16.24,7.86,25.02,9.94,2.69.64,1.33-6.73.73-8.69-.57-1.85-2.55-3.5-3.24-5.76-1.15-3.76-4.51-14.09,1.48-13.99,3.23,5,1.48,9.94,2.13,15.38.56,4.74,4.17,9.22,1.89,13.6,25.55,3.83,49.95,10.63,75.99,5l-5.99-1.98c5.05-.34,10.51.43,15.5,0,3.13-.27,5.99-2.29,9.04-2.13,1.85.1,1.27,1.83,1.93,1.93,2.11.31,6.39-1.15,8.52-1.82l-7.99-.98,8.99-2.76c2.7-11.56,1.64-21.74.02-33.25ZM396.96,708.54l-2.24-1.36-3.75.81c1-1.89.37-3.26-2-2.98-.32,1.88,3.15,9.55,5.49,8.99l2.5-5.45ZM437.02,716.56l-1.87-.76.82-2.79c-2.44-.33-1.61,0-2.13,1.43-.76,2.07-.25,20.19,3.13,16.56-1.25-4.7-1.75-9.79.05-14.43ZM491.97,730l-2.98,1c-.36-1.91-1.98-5.46-3.3-6.7-.76-.71-2.45-1.72-3.25-.35l.56,10.95,3.97,1.59-2.04,1.9,5.58,20.56,3.45,21.03-2-49.99ZM489.41,715.04l3.56,8.95c-.13-3.61-.43-7.89-1.07-11.41-.72-3.98-2.34-10.36-3.44-14.57-.3-1.14.07-3.25-1.47-3-.1,2.15-1.23,4.01-.84,6.24.83,4.84,4.31,9.17,3.27,13.8ZM513.61,682.65c-.32-10.1-5.2-19.12-7.12-28.65-1.67,1.14-1.43,2.73-1.56,4.44-.77,10.39,1.93,21.48,4.06,31.55,4.15,1.08,4.71-4.25,4.62-7.35ZM552.98,613.01l-3.55-.94c.78-2.83-2.26-7.51-5.45-8.06-.92,3.61,2.36,3.25,3.99,5.5-6.37,2.07,5.15,9.73,5.01,3.5ZM546.52,592.96c-1.81-2.52-1.02-6.8-5.53-5.95-.43,1.7,1.66.47,1.82,1.45.23,1.4-1.06,4.63-.29,6.48.78,1.88,8.11,10.13,10.18,12.8.64.82-.02,1.83,2.27,1.26,3.97-8.02-4.56-10.6-8.45-16.03ZM555.13,204.49c1.43,1.37,1.59,4.57,4.34,3.5,2.43-.95.46-3.75.58-3.91.17-.22,2.93-.74,4.79-2.73,4.08-4.36,4.53-8.35-2.85-7.35l2.99,2.49c-.75,1.52-2.92,1.05-3.75,1.75-.9.76-.58,2.67-1.51,3.5-.87.78-3.9.59-4.59,2.75ZM544.99,230.99l5.99-2.01-2.09-2.44,2.09-12.55-3.98,2.01,1.99,2.97c-7.93.37-2.07,7.27-4,12.01ZM421.53,76.86c.85-.11,1.01-2.16,1.7-2.59,1.23-.77,3.66.13,4.72-1.77l-9.96-2.03c-5.32,3.11.87,6.73,3.53,6.39ZM378.98,53.01c1.71,2.21,12.55,9.15,14.49,9,1.87-.53-1.94-4-2.83-4.65-2.83-2.05-8.13-4.44-11.66-4.35ZM291.98,51.01c.29,2.56,2.74,3.3,1,5.98,3.38-.26,2.38-4.4,7.01-2.99l-1.47-4.84-6.53,1.85ZM239.74,13.74c1.79,3.91,1.95,11.8,2.25,16.25,3.21.88,1.87-4.69,2.28-7.22.17-1.04.27-3.98,1.71-3.77-1.18,4.52,2.43,6.49,3.79,9.8.97,2.36-.62,5.36,1.71,5.19,3.26-2.7,2.2-5.46,1.51-9l-2.99,1c6.58-4.3-5.49-16.49-6.02-12.41l-.97,3.42-.24-7.78-8.77-4.22c-2.37,4.97,4.05,5.05,5.75,8.75ZM216.96,77.99c-.42-2.14,2.53-2.32,2.92-3.62.46-1.52-2.54-8.45-3.51-10.26-2.64-4.92-10.49-9.8-6.89-15.11l4.49,4.99c.56-3.61,1.32-4.94,5.02-4.47l.97-1.02-4.48-10.51-2.49.66-1.01,4.33,2.76.18,1.23,5.83c-1.65-1.78-4.83-1.96-6.28-2.95-2.17-1.49-2.71-6.46-7.7-5.05.79,3.98-4.36,9.87-.02,12l1-3.99c1.03,3.59,4.26,8.8,6.57,11.93,1.3,1.77,4.04,2.94,4.23,3.27,1.45,2.47-1.84,11.41,3.2,13.78ZM182.48,129.98c5.72-4.32.19-7.02-4.5-7.97l4.5,7.97ZM93.97,487c.45-3.15,1.91-6.22-.48-8.99-3.62,2.56-3.57,7.15.48,8.99ZM80.97,449.01c.8,4.31,2.04,6.85,7.01,7-1.13-4.19,3.16-3.85,1.99-8.01l-9,1.01ZM86.98,458.01l-5.98,1.49c4.02,2.78-.88,5.52,0,9.5,4.77-2.15,2.99-7.56,5.99-10.99ZM80.19,498.57l2.67,1.54-.88,3.88,10.98-3.02c.54-3.9-1.86-4.65-3.99-6.96,3.22-.24,4.28-2.91,1.5-5l-3.01,2.98c-2.78-5.96-6.67,2.96-7.28,6.58ZM94.99,585.01l2.99-3.01-8,.99.02,9,6.99-4.01-1.99-2.98ZM98.55,579.02l-.59-2.99c-3.36-.84-5.41,2.03-7.97,3.47,2.34,2.73,6.18,1.55,8.56-.48ZM100.99,508.01c-4.46-.16-9.38-4.79-11,1.99l3.99.5c-1.44,2.89-2.57,3.98-6.01,3.51,1.5,3.76-.19,3.21-1.98,5l.99-10-6,4.54,2.04,3.96-2.03,1c1.53,2.3,2.88.92,5,.51-3.29,3.28-2.99,2.18-8,2.99-.26-.21,3.03-4.93-1-4l.06,9.38-2.07,1.12c3.47,1.99.71,4.59,1.18,6.78.21.99,1.74,1.74,1.85,3.22.02.29-4.11,1.96-3.03,4.51l4.98-1.99,1.01,3.99-6.87,1.12c.31,3.55-1.89,9.27,1.91,10.39l-2.03,4.49c4.89.72,6.35-2.02,9.12-4.37.68-.58,2.11-.44,2.63-.88,1.27-1.07.24-3.5.37-3.62.58-.55,2.93-.6,4.1-1.2.59-.3.61-1.26,1.6-1.85.59-.34,2.2.23,2.98-.25.5-.31,2.04-5.66,4.2-6.33-5.34-2.11-5.97,3.71-9.99,4.49l2.99-4.99-7.99,1.99.59-4.04-3.6-.97c.45-3.55,3.26-6.59,4.03-2,1.99-.52,2.24-2.14,1.98-4l-1.98,1.02v-3s3.85.92,3.85.92l3.13-4.44-1.99-3.48c1.55-.33,3.33.98,4.61.93,5.63-.19-2.76-11.06-.62-1.95l-4.98-1.02c-.28-1.76.85-5.21,2.55-5.9,3.21-1.31,1.66,1.96,3.42,1.93l2.15-7.87c1.33-.9,4.69,1.39,3.87-2.12ZM120.97,634c-4.5,3.17-10.36,10.13-14.01,2.01h-1.98s-.98,1.98-.98,1.98c-.57-2.71-2.67-1.38-1.16-4.82l-1.84-.19-.02-1.97,3.98-1.51c-1.15-.5-1.7-3-2.18-3.29-2.23-1.35-10.44,2.33-11.86,4.23-3.66,4.91-2.53,10.46.05,15.56l-2.98-2-.02,3c5.68.16,10.31.54,15.49-2.05l1.01,2.06c4.26-3.7,10.93-5.25,16.46-6.04l.03-6.96ZM128.49,627.01c-5.82,2.41-4.57,6.58-4.5,11.99,5.03.18.97-6.76,2.17-8.81.4-.69,4.55-1.26,2.33-3.18ZM203.98,646.99c-3.59-12.79-12.58-23.98-11-37.99l-2.49,1.99-4.5-8.51c2.74-2.04,2.16,2.75,3.99,4.02l2.01-1.04-3.99-47.99c2.29-23.4-2.51-46.02-3.64-68.82-.14-2.84,1.57-6.24-.38-9.67-.51-.37-2.47,1.75-2.76,2.71-2.44,7.8,2.36,29.02-1.35,34.66-.79,1.2-1.25,1.96-2.87,1.62-1.13-7.39-1.38-15.03-1.05-22.54.23-5.13,3.4-19.39,2.86-22.76-.57-3.56-7.13-10.6-5.81-15.69l1.98,1.99c-.4-3.67-.32-8.82-1.02-12.32-.14-.7-1.58-.73-1.62-.9-.44-2.01-.52-7.5-1.32-9.02-.93-1.78-11.81-5.45-14.34-6.94-4.66-2.73-6.75-7.52-12.4-8.7l-1.14-.03c-6.83,12.85-17.97-.27-17.09-10.51.52-6.07,7.37-4.77,11.46-7.58.7-.48,6.99-5.85,7.23-6.27.59-1.02.08-2.82.7-3.77.86-1.32,3.15-.55,4.3-1.23.26-.15,3.62-4.48,3.75-4.76.86-1.85,1.15-13.35,1.27-16.75.12-3.3-1.07-6.73-.74-10.73.26-3.12,3.65-18.57,5.26-20.23,1.54-1.57,7.22-2.71,8.06-4.49,2.31-3.64-2.47-6.61-1.41-10.21.26-.88,2.41-.51,3.52-1.6,1.22-1.19,5.55-6.92,5.58-8.45l-4.02-2.52c2.87.25,3.29-3.21,4.76-4.01,1.28-.7,4-.41,5-1.24,1.99-1.65,1.08-6.75,1.95-8.47,1.68-3.3,8.39-4.97,7.3-11.3l3.48,1.99c.7-.35,4.15-6.92,4.32-7.76.3-1.44-5.28-13.21-6.8-14.74-2.89-2.89-8.92-4.86-12.07-7.93-.23-.97-4.65-5.92-3.93-6.56,1.97-1.74,5.82,4.31,6.75,5.02,4.69,3.54,11.84,9.27,17.24,9.97l-3.99-3.01c-.6-4.86,7.5,2.71,9.76,3.75,2.22,1.02,10.68,3.7,12.59,3.3.68-.14.64-1.64.84-1.74.86-.42,2.86,1.93,4.39-2.34l2.87,1.11.57-2.03,3.41,1.93c3.46-1.8,7.51-5.6,10.85-7.21,2.28-1.1,9.6-2.23,11.75-3.24.42-.19,5.88-5.93,6.39-6.59,4.77-6.22,2.13-13.75,3.6-20.24.18-.8,1.82-.26,2.06-2.12.34-2.61-.4-5.84-.07-8.57l2.83,2.7c-.85,7.13-2.73,22.57,2.49,27.97,1.45,1.5,3.88,1.81,5.52,3.99,2.45,3.25,1.58,7.68,3.68,10.33,2.77,3.5,13.57-1.85,18.81,3.96,1.64,1.82-.92,3.28,3.11,3.08,9.59-.48,10.67-9.24,18.53-11.01.94,4.25.61,8.83-3.99,10.49,2.86,2.74,8.51,7.46,10.5,10.58,3.41,5.36,2.85,6.45,8.03,12.87,2.37,2.94,11.67,14.45,12.03,17.01.21,1.51-3.77,4.5.48,6.58,1.38.67,3.12-1.6,3.08,1.28l1.37.18c4.21-4.87,9.8-8.25,14.53-12.48,1.88-1.69,13.57-12.36,14.05-13.2,1.37-2.38.57-7.82,3.93-9.31-3.62,6.84,2.83,7.98,3.03,10.49.39,5.01-.07,9.92-.12,15.02-.05,5.28,3.4,4.64,6.58,7.51,4.9,4.43,7.81,11.61,15.58,10.54,3.68-.51,6.43-3.76,9.94-4.56-1.77,4.3-4.57,7.95-2.99,13,4.9-2.83,5.63,2.89,8.7,3.79,2.82.83,6.81-.08,10.35.65,13.55,2.78,10.43,7.26,28.61,5.94,8.93-.65,8.71-1.8,15.89-3.32,7.65-1.62,18.15-1.31,25.69-2.3,4.69-.62,9.73-3.21,14.75-2.74l-41.51,10.97c-7.48,3.98-14.05,4.33-15.04,13.74-.86,8.12,2.48,4.91,5.6,8.75,1.76,2.17,1.94,6.47,2.9,7.1.75.49,7.04,1.84,9.03,2.99,1.11.64.63,3.6,4.42,2.46l1.11-2.02c2.21,3.78,5.87-.92,8.5,2.5-2.86.85-15.04-.22-15.99,2.01l.77,2.45,2.04.16,1.32,5.75,9.86.14-1.94,1.07.94,2.91c-5.84-.62-11.19,1.98-15.7,5.31-1.01.74-1.17,2.94-3.54,3.95-3.08,1.31-6.41-.32-8.74,2.26l9.48,4.49,2.5,2.5-1.99,1.49c2.81-.73,6.59,2.03,6.99,5-.9.78-14.19-7.71-16.58-8-6.08-.72-7.76,7.07-1.66,10.73,6.23,3.74,9.9-1.27,16.63-.68,5.2.46,3.22,3.54,3.61,3.95h19c.22,1.76-2.26.95-3.49,1-8.25.34-17.8.36-26.05.04-9.24-.35-24.56-6.88-16.19,10.19,1.63,3.33,3.31,1.52,4.73,3.76h-4s0,6,0,6c-3.49,1.05-2.79-6.67-4.59-7.07-2.97-.65-6.58,2.78-7.4,5.55.96,1.25,2.48,1.73,3.94,2.08,2.62.63,7.89-.79,7.06,2.43l-16.99-.99c-.75.7,2.51,8.77,3.24,10.25.61,1.24,2.73,3.04,2.73,3.25,0,.56-4.02,2.35-2.87,5.84.68,2.08,4.58,2.19,5.46,3.64,1.1,1.81-.5,3.71-.02,5.07.78,2.19,9.65,6.72,7.46,8.94-8.26,2.29-6.89-4.15-13-5.99.59,2.42,5.86,4.14,4.5,6.99l-6.49-5.99-.97,39.32-3.03,1.68c-1.58-3.05.54-7.34.49-9.44-.2-7.29-2.19-17.72-.5-24.91.24-1.03,3.03-.08,2-2.66l-1.97,1.01v-6.99s-5.4-1.1-5.4-1.1l-2.63,11.08c-3.39,1.02-1.56-3.71-3.98-4,.22,4.31-3.02,15.26-2.35,18.79.4,2.08,8.99,19.3,10.5,21.59.92,1.39,3.57,2.5,4.34,4.62l2.49-3.99-2,20.99c-2.25.14-1.83.37-2.02-1.52-.36-3.57,1.48-7.95-.21-11.69-1.02-2.25-3.21-3.05-4.13-4.76-.51-.95-.14-2.84-.81-4.25-1.58-3.3-4.83-13.45-8.46-13.53l-5.35,2.76c.31-3.87-1.23-7.88-3.51-11l-3.14,5.48,2.63,3.5c-5.79.77-1.85,4.23-4.49,6.99-2.52-1.96-1.28-5.29-1.51-7.97-4.83,1.57-8.85,1.53-10.55,6.96-1.44,4.59,1.64,6.29,1.65,10.52.06,16.11-2.21,32.98-1.15,49.11l-3.03,3.86c2.51,26.62-2.36,52.78-3.96,79-.36,5.89-.3,12.87,1.05,18.53l1.93-3.55,7.05-1.45-1.99-1.98c5.24,2.15,4.5-.44,5.75-.94,3.21-1.29,7.25-1.25,9.75-4.05l2,2.99c1.99-4.52,3.1-3.57,7.49-3.02l-1.99-1.49c.93-1.52,3.01-.96,4.06-2.19,4.35-5.1,9.24-18.08,7.92-24.8-.46-2.33-2.58-2.67-3.04-5.95-.66-4.76.34-10.05,2.18-14.42l3.71.04c4.74,6.05-.39,10.15-.81,15.44-.15,1.85.91,3.6.77,4.89-1.17,11.21-4.95,17.58-10.8,27.01-.16.76.92.61,1.47.47,4.66-1.16,19.59-10.59,24.25-13.76,35.4-24.06,57.26-59.05,79.22-93.75,5.48-8.66,4.96-10.47,7.49-19.54,10.73-38.34,21.05-79.84,22.15-118.62.18-6.57.99-12.72-.59-19.31l-1.98,3.99c.84-6.86-.89-13.9-1.04-20.52-.32-14.44.07-27.03-2.11-41.83-.73-4.93-1.99-9.75-2.87-14.64v4.51s-1.98.49-1.98.49l-.74-5.59,2.79-2c-2.69-12.51-4.64-25.24-8.33-37.63-4.99-16.74-15.11-33.35-14.14-50.78l-17.49-36.38c-5.31-1.2-1.69-1.02-2.26-3.87-.32-1.61-7.2-12.15-8.72-15.36-2.54-5.38-3.08-10.2-6.92-16.08-16.88-25.78-32.36-52.35-55.67-73.34-35.61-32.06-74.55-46.9-122.88-39.83-21.61,3.16-34.47,6.71-52.94,18.1-37.98,23.42-72.05,64.68-94.54,103.42-41.02,70.66-67.08,173.15-64.2,254.88.13,3.65,1.87,8.76,1.8,12.2-.03,1.72-2.07,2.7-1.75,3.25.13.22,2.33-.76,2.9,3.58,1.08,8.19.1,16.5,1.54,25.49,9.05,56.57,41.51,122.05,85.02,159.98,1.52,1.33,12.25,10.24,13.52,8.97ZM176.94,382.54c-.01-10.35,2.67-20.29,1.04-30.54-.34-.43-1.32-.83-1.69.95-.81,3.88,1.48,12.9-2.28,13.07l-.03,1.98,3,.5c-3.99,3.03-2.54,6.89-3.06,10.98-.15,1.21-1.37,2.19-1.46,3.03-.36,3.28,3.56,8.54,2.54,12.49,1.38-.64,3.01-5.23,3.05-6.45.05-1.76-1.1-3.84-1.1-6.01ZM200.99,65.99l4.48-1.01.5,2-7.98,4.02,11.99-2-4.01-6.99-4.98,3.98ZM597.98,545.5c-4.48-1.42-8.45-4.32-13-5.49,10.3,7.63,23.78,12.51,36.01,16.48,3.87,1.26,7.64.99,11.02,1.98,18.19,5.31,39.58,18.08,58.58,20.44,1.05.13,2.66.71,2.38-.89-1.91.3-2.64-2.35-3.3-2.69-26.2-13.55-63.34-20.86-91.69-29.82ZM597.98,419.5l1.99.5v1.98s-3.98,1.53-3.98,1.53l1.98.46.02,3.03c2.03-1.64,2.91-1.82,5.42-2.07,11.23-1.11,24.37.73,35.56,2.06l-1.49-3c7.23,1.15,14.4,2.16,21.73,2.36,1.45.04,2.43,1.26,3.75-.86-9.24-2.25-18.23-6.52-28-5.5v4.02c-1.43.11-2.83-.01-4.25-.25-1.34-.22-15.13-4.81-15.83-5.25-.96-.6.06-2.14-.12-2.34-2.08-2.38-14.95-.38-16.79,3.34ZM614.58,422.89l-9.6-2.88c5.69-.11,10.77-.58,15.99,2l-6.39.88ZM635.67,519.81c-4.03-2.31-12.12-8.93-15.66-10.22-1.8-.66-4.52,1.03-7.02-2.59-1.1,4.53,5.59,4.16,8.7,5.79,2.84,1.49,6.6,4.71,9.29,6.71l-2.99.5,2.99,2.98-4.97,1.49c.58,2.9,7.68,3.61,9.62,7.45l4.34-2.92,4.61,6.83,4.4-.85-2-3.98,2.87-.17.14-2.84c.83-.91,4.82,2.72,6.01,3.49,1.49.97,1.06,2.45,2.97,0-1.1-1.91-12.44-5.55-6.98-7-.53-1.15-12.98-8.3-9-1.51-.79.58-6.13-2.51-7.31-3.18ZM174.41,731.03c1.35-4.69,11.97-18.5,9.56-23.03l-5.87,1.47,2.23,7.23c-.88,2.19-4.41,1.29-2.35,5.3l-1.99-1.02-19,51.01c5.93-6.68,7.37-16.47,10.8-24.69,2.85-6.82,4.45-8.75,6.62-16.29ZM449.29,23.81c-2.8,8.14-4.38,18.86-3.03,27.46.42,2.66.67,3.6,3.23,4.73l4.49-39.99-4.69,7.8ZM619.98,576.01c6.54,7.08,16,11.1,23.01,17.48,2.9,2.64,4.76,3.95,4.93,8.03l11.06,2.47c-12.25-10.16-24.41-21.24-39-27.98ZM344.05,13.43c-.26-2.75-1.61-3.98-1.77-5.09-.34-2.4,2.65-6.87-1.29-8.34,1.6,2.66-2.01,7.97-2.01,8.5v16.5c5.67-2.28,5.61-5.94,5.07-11.57ZM41.44,617.97l-5.46,4.01,18.44-.04,9.55-2.93-22.53-1.04ZM589.04,172.49c1.48-1.4-.04-2.66.26-3.83.36-1.42,2.15-1.84,1.67-3.65l-7.57,1.92-5.42,8.06c1.99,2.15,9.25-.79,11.05-2.5ZM584.32,526.37c-.5-.11-7.28-.74-7.33.62l28.99,9-15.52-9.98-1.48.48,1.99,2.5c-2.57,0-4.12-2.04-6.66-2.62ZM37.51,533.03c-3.42,1.49-10.59,2.04-11.59,2.51-.91.42-4.15,5.43-5.94,6.45,8.57-1.56,15.3-5.46,22.49-10.06,1.34-.86,3.55,0,4.5-3.92-.67-.61-7.82,4.3-9.47,5.02ZM8.98,424.01l-3.37-1.93-5.61,3.43,2.62,2.39c4.53-3.46,8.95-2.56,14.35-1.89,1.73-2.35-9.02-12.75-8-1.99ZM49.01,379.52c-1.46-.63-2.26-3.13-4.02-3.52l1.01,2.99-6.01,2.51,4.99.51c1.03,2.57-1.74,1.65-1.99,2.65-1.64,6.37,4.07,1.54,6.96,1.28l.17-4.82,3.87-.12c-.71-2.97-3.41-.81-4.97-1.47ZM49.98,134.01c1.88,3.22.44,4.22-1.85,6.48l4.36,8.5c-.44-3.41,2.02-3.88,2.22-4.25.94-1.71.43-12.39-4.72-10.74ZM37.06,518.58l-8.07,6.41c4.77-1.23,16.43-1.16,14.99-7.99l-6.92,1.57ZM632.49,289.01c-.11-3.73-2.18-.35-2.99-.35s-1.89-1.85-2.96-1.66-1.88,3.22-3,4.05c-1.79,1.33-4.77.48-5.56,2.93,3.06-.09,8.63.2,11.33-.97,1.13-.49.43-1.97.95-2.67s1.48-.93,2.23-1.33ZM462.44,82.1l5.05,1.8c3.32-2.68,2.48-7.16,2.48-10.9-1.54-.35-.71,1.34-1.67,2.05-1.61,1.2-4.15-.06-3.33,3.95l-2.98-1,.45,4.1ZM158.98,754.5c0,.66-1.77,2.84-.99,4.5h.98c-.22-1.83,2.01-5.35,2.01-6.5v-17c0-.3,1.61-1.4,2-2-1.09-1.89-3.75,1.87-4,3-.83,3.92,0,13.29,0,18ZM17.96,406.5c-3.23-3.55-7.17-1.31-10.99-.49l1.01,2.99-3,2c4.52-.64,9.53-1.13,12.97-4.49ZM617.9,286.93c1.54-1.22-.44-7.3-1.03-7.8-4.45-3.81-10.07,8.75,1.03,7.8ZM603.69,232.21c-2.58,1.21-7.75.74-7.7,4.79,6.72-4.1,15.53-3.55,20.99-9.99-5.14,0-9.04,3.21-13.29,5.2ZM156.51,719.97l-2.43,7.32,2.39,2.69c3.61-2.87,3.42-7.89,4.49-11.98l-4.46,1.97ZM69.56,620.92c1.36,1.79-1.48,7.17.92,7.06.69-.03,5.33-11.29,4.02-12.98-2.26-2.93-3.43,3.64-3.66,3.85-1.04.94-4.89-1.08-4.86,1.14l3.58.93ZM33.97,479.99c-4.86,1.11-5.61,5.21-8.99,8,2.64-.02,11.08-1.12,11.02-4.49-.01-.61-1.4-.39-1.68-.85-.5-.85-.45-1.72-.36-2.66ZM353.77,23.3c-1.05.33-3.03.24-2.79,1.68l10.41,1.01,6.58-2.98c-5.43-1.03-8.84-1.42-14.2.29ZM23.02,371.48c.36-2.28-5.31-4.26-6.04-3.48l-.06,2.89-4.94,1.09c2.49.64,11.05,4.44,11.03-.5ZM609.99,481l.9,6.58-1.91,1.9c4.49,5.94,11.19-.05,3-2.5v-1.47s1.98.5,1.98.5v-1.99s-3.98-3.02-3.98-3.02ZM625.98,389.01c2.73,5.46,5.63,5.8,11.46,6.04,1.2.05,5.53.71,5.54-1.04-3.38,1.74-15.43-6.24-17-5ZM604.53,313.98c-6.6-3.07-2.99,1.88-2.73,3.68.78,5.41-7.77-3.5-9.82-1.65v4.98s7.95-.95,7.95-.95c.11,1.93.48,4.37,3.04,3.96-.24-2.7-.09-4.89,3-5.01l-1.88-1.05.44-3.95ZM512.95,142.5c.96,3.55,3.03,4.05,5.55,1.52l.36-4.37-2.35-1.63-3.56,4.48ZM645.99,274.49l4.43,1.54,10.55-3.02c-5-2.19-9.91.99-14.99,1.48ZM41.51,291.99l-1.56,2.51c.32,2.09,2.38,3.93,4.51,3.55l.73-1.87,2.79.82v-3s-6.47-2.01-6.47-2.01ZM145.98,89.52c-.95,3.65,4.11,5.22,7,4.48-.06-.92.27-1.94-.23-2.8-.44-.76-5.96-4.77-6.76-1.68ZM35.99,271.51c-1.08,3.13,6.65,5.84,6.98,5.48,1.63-3.57-5.72-9.14-6.98-5.48ZM28.99,215.01c-1.61,2.07,5.83,6.24,7.99,4.99-.07-.91.27-1.95-.22-2.8-.55-.95-6.48-3.85-7.77-2.19ZM605.99,389.01l15.75,4.73,6.24-.73-21.99-4ZM627.98,396.01c.51,1.57,1.92,2.66,3.52,2.97,1.49.29,9.72,1.16,8.48-1.97l-12-.99ZM45.96,642.5c-1.45-2.31-3.09-.61-4.94.04-.81.28-7.8,2.83-6.03,4.46,3.69-1.6,8.36-.84,10.97-4.5ZM471.99,499.49c-5.13-5.45-9.62-16.32-19-13.48.86,1.99,4.81,2.39,6.28,3.94,1.04,1.09.91,2.84,1.67,3.56,2.45,2.32,5.93,4.01,8.04,7-2.92,1.23-5.62-2.89-7.5-4.5l-.51,3h-5.5s24.04,14.98,24.04,14.98c2.94.19.84-1.14-.18-1.83-1.8-1.2-4.52-1.64-5.34-4.15,5.14-1.46,5.95,3.09,10,3.98-2.56-5.56-8.32-8.6-11.99-12.5ZM363.92,159.36c.29-4.29-1.63-6-4.4-2.32-3.81,5.07-1.21,11.11-2.55,16.96-5.71-4.81-7.78.33-2.49,4l2.07-2.86,2.42.87c-1.53-7.07,4.47-9.72,4.94-16.64ZM454.91,547.5l-5.24-3.4c-3.02,1.34-2.91,4.35-2.75,7.25.38,1.55,3.52,1.43,4.76.37.97-.83,1.74-3.32,3.23-4.22ZM166.98,475.52c-.2-1.37-8.04-2.56-8.81,1.13,0,1.01.37,2.4,1.07,3.09,3.3,3.23,7.16-.37,7.74-4.22ZM140.84,283.66c-1.29-5.01-11.46-2.55-6.6,2.08,2.12,2.02,7.64,1.95,6.6-2.08ZM482.96,326.5l-2.63-2.33c-2.86.38-5.91,2.47-5.35,5.83,3.73.61,5.82-.64,7.98-3.49ZM153.35,450.93c4.23-.69,2.51-8.17-1.84-6.92-3.1.89-1.15,7.41,1.84,6.92ZM336.93,225.41l-1.94,7.59c6.84-.25,3.27-2.53,5.99-6.99l-4.05-.6ZM166.99,254l.44,5.05,4.55.94c.13-3.07-1.3-6.74-4.99-5.99ZM284.49,471.99c-1.85-.38-7.81-14.91-8.49-17.52-27.15-6.85-49.54-20.71-63.83-45.17-1.02-1.75-4.44-7.8-4.72-9.22-.78-4.03,5.06-4.47,6.07-6.04,1.9-2.95-1.94-5.1-4.8-4.85-9.41.82-13.09,13.81-11.74,21.81l1.97-1.01,1.03,10,2.89-12.6,2.09-1.39c10.57,25.58,18.18,47.44,45.05,59.46,27.72,12.4,50.85,14.5,77.28-2.66,11.95-7.76,30.91-27.6,36.19-40.81,2.12-5.3,2.69-23.72,10.45-18.44,2.97,2.02,3.52,5.46,6.04,7.44-2.09-9.68-8.86-20.9-19.74-21.81-1.05-.09-5.93,1.51-6.24,1.83-2.39,2.5,2.94,1.28,3.75,1.6,2.26.91,9.49,4.9,10.22,6.91l-.05,1.4c-3.58,1.43-4.85,7.76-7.13,11.37-9.13,14.51-26.8,34.26-43.29,39.71-9.09,3.01-20.04,4.14-29.51,5.99.16,2.16,0,14.7-3.49,13.99ZM297.94,345.46c-.76,9.67-1.24,44.64,13.54,44.59s15.32-30.68,14.48-40.54c-.91-10.69-4.44-27.47-18.28-24.3-6.21,1.42-9.31,14.74-9.74,20.25ZM306.47,337.99c-4.34,1.29-3.59-5.22-2.47-5.98,3.24-2.21,5.95,4.95,2.47,5.98ZM235.52,381.96c4.21,5.11,12.02,3.6,16.36-.56,8.63-8.25,9.17-36.32,5.38-47.18-2.94-8.41-9.96-11.35-16.93-4.87-9.57,8.89-13.02,42.62-4.81,52.61ZM256.97,359.99c.75,5.45-4.14,23.48-11.47,22.01-3.59-.72,2.36-5.15,2.92-6.07,3.14-5.15,4.71-11.97,5.57-17.93l1,3.01,1.98-1.02ZM415.98,415.01c3.75,5.13-.85,13.64-2.15,19.42-.36,1.61-1.18,2.34.65,3.57,1.55-3.28,6.54-21.01,4.49-23l-2.99.02ZM398.16,445.69c-2.56,3.61-4.74,7.62-7.18,11.3l7.41-7.08,4.59-8.9c-2.21-.37-3.7,3.1-4.82,4.68ZM398.99,415c.64,4.38,4.43,8.01,5.34,12.24.53,2.47-1.37,5.81.63,6.76,2.6-7.19-1.14-13.84-5.98-18.99ZM411.99,396l3,12c3.97-1.53-.34-10.69-3-12ZM377.07,580.41l.91-5.41c-8.69-1.52-3.77,9.28-.91,5.41ZM205.95,733.49c-.71.5-2.3.25-2.75.72-1.1,1.16-1.82,8.04.23,9.85,6.81,5.99,13.18-3.93,3.52-7.58l2.03-6.47c-3.2-.78-1.29,2.24-3.02,3.48Z"/>
  </g>
</svg>