<?xml version="1.0" encoding="UTF-8"?>
<svg id="Layer_2" data-name="Layer 2" xmlns="http://www.w3.org/2000/svg" viewBox="0 0 398.07 652.81">
  <g id="Layer_1-2" data-name="Layer 1">
    <path d="M203.03,0v4s4,0,4,0v7.99h4s0,4,0,4h3.64s.36,7.99.36,7.99h4s0,4,0,4h3.64s.36,7.99.36,7.99h4s0,7.99,0,7.99h4s0,4,0,4h3.64s.36,7.99.36,7.99h4s0,7.63,0,7.63h3.63s.36,7.99.36,7.99l3.84.34.16,3.66h3.64s.36,7.99.36,7.99h3.64s.36,7.99.36,7.99l3.84.34.16,3.66h3.64s.36,7.99.36,7.99h3.64s0,4,0,4h4s0,7.99,0,7.99h4v7.99h4s.36,7.63.36,7.63h3.64s0,4.36,0,4.36h4s.36,7.99.36,7.99h3.64s.36,7.63.36,7.63h3.64s0,4.36,0,4.36h4s0,7.63,0,7.63h4v7.99h4s0,4.36,0,4.36h4s0,7.63,0,7.63h4v7.99h4s0,4,0,4c.28.28,3.47-.54,4,.54v7.45h4v7.99h4s0,4,0,4h3.64s.36,7.99.36,7.99h4s0,7.63,0,7.63l3.84.34.16,4.02h3.64s.36,7.99.36,7.99h3.64s.16,3.65.16,3.65l3.84.34.36,8h3.64s.36,7.63.36,7.63h3.64s.36,7.99.36,7.99l3.84.34.16,4.02h3.63s0,7.63,0,7.63h4s.16,4.02.16,4.02l3.84.34v7.45c.53,1.09,3.71.26,4,.54l.36,7.63h3.64s0,4,0,4h4s0,7.99,0,7.99h4v7.99h4v11.99h-4s0,3.63,0,3.63l-7.99.36v4s-7.63,0-7.63,0l-.34,3.84-4.02.16v3.64s-7.99.36-7.99.36v3.64s-7.63.36-7.63.36v3.64s-7.99.36-7.99.36l-.34,3.84-4.02.16v3.64s-7.63.36-7.63.36v3.64s-7.99.36-7.99.36v3.64s-4.02.16-4.02.16l-.34,3.84-7.63.36v3.64s-7.99.36-7.99.36v3.64s-4,0-4,0v4s-7.99,0-7.99,0v4h-7.45c-1.09.53-.26,3.71-.54,4l-7.63.36v3.64s-4.36,0-4.36,0v4s-7.99,0-7.99,0v4h-7.63v4h-7.99v4s-4.36,0-4.36,0v4s-7.63,0-7.63,0v4h-7.99v4s-4,0-4,0v3.64s-7.99.36-7.99.36c-.28.29.54,3.47-.54,4h-7.45v4h-7.99v4s-4,0-4,0v3.64s-4,0-4,0v-3.63s-7.99,0-7.99,0v-4s-7.99-.36-7.99-.36v-3.64s-7.63-.36-7.63-.36v-3.64s-4.36,0-4.36,0v-4s-7.99,0-7.99,0v-4h-7.63v-4s-4.36,0-4.36,0v-4s-7.99,0-7.99,0v-4h-7.63v-4s-4.36,0-4.36,0v-3.64s-7.63-.36-7.63-.36v-3.64s-7.99-.36-7.99-.36c-.28-.29.54-3.47-.54-4h-7.45v-4s-4,0-4,0v-3.64s-7.99-.36-7.99-.36v-4s-7.99,0-7.99,0v-3.63s-7.63-.36-7.63-.36l-.34-3.84-4.02-.16v-3.64s-7.99-.36-7.99-.36v-3.64s-7.63-.36-7.63-.36l-.34-3.84-4.02-.16v-3.64s-7.99-.36-7.99-.36v-3.64s-7.63-.36-7.63-.36v-3.64s-7.99-.36-7.99-.36v-3.64s-4,0-4,0v-4s-7.99-.36-7.99-.36v-3.64s-7.99-.36-7.99-.36v-3.64s-4,0-4,0v-4s-7.99-.36-7.99-.36v-11.62h4s0-4,0-4h4s0-7.99,0-7.99h4s0-4,0-4h3.64s.36-7.99.36-7.99h4s0-7.99,0-7.99h4s0-4,0-4h3.64s.36-7.99.36-7.99h3.64s.36-7.63.36-7.63h3.64s.36-7.99.36-7.99l3.84-.34.16-4.02h3.64s.36-7.63.36-7.63h3.64s.16-4.02.16-4.02l3.84-.34.36-7.63h3.64s.36-7.99.36-7.99h3.64s0-4,0-4h4s0-7.99,0-7.99h4s.36-7.99.36-7.99h3.64s.36-7.99.36-7.99h3.64s.16-3.65.16-3.65l3.84-.34.36-8h3.64s0-4,0-4h4s0-7.99,0-7.99h4v-7.63h4v-7.99h4s0-4.36,0-4.36h4s0-7.63,0-7.63h4v-7.99h4s0-4,0-4c.28-.28,3.47.54,4-.54v-7.45h4v-7.99h4s0-4,0-4h3.64s.36-7.99.36-7.99h4s0-4,0-4h3.64s.36-7.99.36-7.99h3.64s.36-7.99.36-7.99h3.64s.16-3.65.16-3.65l3.84-.34.36-8h3.64s.36-7.63.36-7.63h3.64s.16-4.02.16-4.02l3.84-.34.36-8h3.64s.36-7.63.36-7.63h3.64s.36-7.99.36-7.99h3.64s0-4,0-4h4s.36-7.99.36-7.99h3.64s.16-4.02.16-4.02l3.84-.34v-7.63h4s.36-7.99.36-7.99h3.64s0-4,0-4h4s0-7.99,0-7.99h7.99ZM4,382.17h4s0,4,0,4l3.84.34.16,4.02h3.64s.36,7.63.36,7.63l3.84.34.16,4.02h3.64s.36,7.63.36,7.63h4s0,4,0,4h4s0,7.99,0,7.99h4s0,4,0,4h3.64s0,4,0,4h4s.36,7.99.36,7.99h3.64s.16,3.65.16,3.65l3.84.34.36,7.63,3.66.16.34,4.2h3.64s.16,3.65.16,3.65l3.84.34v7.63h4s.16,4.02.16,4.02l3.84.34.36,7.63h3.64s.16,4.02.16,4.02l3.84.34.36,7.63h3.64s0,4,0,4h4s0,4.36,0,4.36h4s0,7.63,0,7.63h4s0,4,0,4h4s0,4,0,4h4s0,7.99,0,7.99h4s0,4,0,4h4s0,7.99,0,7.99h4s0,4,0,4h3.64s.36,7.63.36,7.63l3.84.34.16,4.02h4s0,4,0,4h3.64s.36,7.99.36,7.99h4s0,4,0,4h3.64s.36,7.63.36,7.63l3.84.34.16,3.66h3.64s.34,4.2.34,4.2l3.66.16.36,7.63,3.66.16.5,3.86,3.48.34.36,7.63,3.84.34.16,3.66h3.64s.34,4.2.34,4.2l3.66.16.36,7.63h3.64s0,4,0,4h4s.36,7.99.36,7.99h3.64s0,4,0,4h4s0,4,0,4h4s0,7.99,0,7.99h4s0,4,0,4h4s0,3.63,0,3.63h4v-7.63h4s0-4,0-4h4s0-4,0-4h3.64s.36-7.99.36-7.99h4s0-4,0-4h3.64s0-4,0-4h4s.36-7.99.36-7.99h4s0-4,0-4h3.64s.36-7.63.36-7.63l3.84-.34.16-4.02h3.64s.36-7.63.36-7.63l3.84-.34.16-4.02h3.64s.34-3.84.34-3.84l3.66-.16.36-7.63h3.64s.16-4.02.16-4.02l3.84-.34.36-7.63h3.64s0-4,0-4h4s.16-4.02.16-4.02l3.84-.34v-7.63h4s.16-4.02.16-4.02l3.84-.34.36-7.63h3.64s0-4,0-4h4s0-4,0-4h4s0-7.99,0-7.99h4s0-4,0-4h4s0-7.63,0-7.63h4s0-4.36,0-4.36h4s0-4,0-4h4s0-7.99,0-7.99h4s0-4,0-4h3.64s.36-7.63.36-7.63l3.84-.34.16-4.02h4s0-7.63,0-7.63h4s0-4,0-4l3.84-.34.16-4.02h3.64s.36-7.63.36-7.63l3.84-.34.16-3.66h3.64s.36-7.99.36-7.99l3.84-.34.16-3.66h3.64s0-4,0-4h4s.36-7.99.36-7.99h3.64s0-4,0-4h4s.36-7.99.36-7.99h3.64s.34-3.84.34-3.84l3.66-.16v-4s4,0,4,0l.36-7.63h3.64s0-4.36,0-4.36h4s0-4,0-4h4s0-11.62,0-11.62h-3.63s-.34,3.84-.34,3.84l-4.02.16v3.64s-7.99.36-7.99.36v3.64s-7.63.36-7.63.36v3.64s-4.02.16-4.02.16l-.34,3.84h-7.63v4s-7.99.36-7.99.36v3.64s-4.02.16-4.02.16l-.34,3.84h-7.63v4h-7.99v4s-4.36,0-4.36,0v4s-7.63,0-7.63,0v4h-7.99v4s-4,0-4,0v4s-7.99,0-7.99,0v4h-7.63l-.34,3.84-4.02.16v3.64s-7.99.36-7.99.36v3.64s-7.99.36-7.99.36v4s-7.63,0-7.63,0v4s-4.36,0-4.36,0v3.64s-7.63.36-7.63.36v3.64s-4.02.16-4.02.16l-.34,3.84-7.63.36v3.64s-7.99.36-7.99.36v3.64s-4.02.16-4.02.16l-.34,3.84-7.63.36v3.64s-7.99.36-7.99.36v3.64s-7.99.36-7.99.36v3.63s-7.99,0-7.99,0v-4h-7.63v-3.63s-4.02-.16-4.02-.16l-.34-3.84-7.99-.36v-3.64s-7.99-.36-7.99-.36v-3.64s-3.65-.16-3.65-.16l-.34-3.84-7.99-.36v-3.64s-7.63-.36-7.63-.36v-3.64s-4.36,0-4.36,0v-4s-7.63,0-7.63,0v-4s-7.99-.36-7.99-.36v-3.64s-4.02-.16-4.02-.16l-.34-3.84h-7.63v-4s-7.99-.36-7.99-.36v-3.64s-4,0-4,0v-4s-7.99,0-7.99,0v-4h-7.99v-4h-7.63v-4s-4.36,0-4.36,0v-4s-7.99,0-7.99,0v-4h-7.63v-4s-4.36,0-4.36,0v-3.64s-7.99-.36-7.99-.36v-4s-7.63,0-7.63,0l-.34-3.84-4.02-.16v-3.64s-7.63-.36-7.63-.36c-.28-.29.54-3.47-.54-4h-7.45l-.34-3.84-4.02-.16v-3.64s-7.63-.36-7.63-.36v-3.64s-3.99,0-3.99,0v7.63Z"/>
  </g>
</svg>