<?xml version="1.0" encoding="UTF-8"?>
<svg id="Layer_2" data-name="Layer 2" xmlns="http://www.w3.org/2000/svg" viewBox="0 0 105.67 41.95">
  <defs>
    <style>
      .cls-1 {
        fill: #0a0a0a;
      }

      .cls-2 {
        fill: #59fd53;
      }
    </style>
  </defs>
  <g id="Layer_2-2" data-name="Layer 2">
    <g>
      <polygon class="cls-1" points="63.43 40.45 42.75 40.45 31.64 12.29 74.5 12.29 63.43 40.45"/>
      <g>
        <g>
          <path class="cls-2" d="M68.99,14.88c-.49.91-1.49,2.81-2.72,5.19h-4.8c-.29-1.14-1.07-2.1-2.09-2.63l-3.71,7.3c.55.28,1.18.43,1.84.43,1.41,0,2.66-.71,3.39-1.8h3.67c-.85,1.66-1.76,3.41-2.64,5.14l-1.69,3.31h0c-.36.69-.7,1.37-1.03,2.01h0l-1.69,3.31c-1.03,2.01-1.69,3.31-1.69,3.31h-5.93s-.66-1.29-1.69-3.31l-1.69-3.31h0c-.33-.65-.68-1.32-1.03-2.01h0l-1.69-3.31c-.44-.86-.89-1.73-1.33-2.6-.44-.86-.88-1.72-1.31-2.54h3.67c.74,1.09,1.98,1.8,3.39,1.8.66,0,1.28-.16,1.84-.43l-3.71-7.3c-1.03.53-1.8,1.48-2.09,2.63h-4.8c-1.23-2.38-2.23-4.29-2.72-5.19-2.09-3.84-2.7-6.88,0-10.6,2.7-3.72,9.75-2.62,9.75-2.62l5.32,10.75h2.16l5.32-10.75s7.05-1.1,9.75,2.62c2.7,3.72,2.09,6.76,0,10.6Z"/>
          <path class="cls-1" d="M61.58,1.5c2.3,0,5.72.43,7.41,2.77,2.7,3.72,2.09,6.76,0,10.6-.49.91-1.49,2.81-2.72,5.19h-4.8c-.29-1.14-1.07-2.1-2.09-2.63l-3.71,7.3c.55.28,1.18.43,1.84.43,1.41,0,2.66-.71,3.39-1.8h3.67c-.85,1.66-1.76,3.41-2.64,5.14l-1.69,3.31h0c-.36.69-.7,1.37-1.03,2.01h0l-1.69,3.31c-1.03,2.01-1.69,3.31-1.69,3.31h-5.93s-.66-1.29-1.69-3.31l-1.69-3.31h0c-.33-.65-.68-1.32-1.03-2.01h0l-1.69-3.31c-.44-.86-.89-1.73-1.33-2.6-.44-.86-.88-1.72-1.31-2.54h3.67c.74,1.09,1.98,1.8,3.39,1.8.66,0,1.28-.16,1.84-.43l-3.71-7.3c-1.03.53-1.8,1.48-2.09,2.63h-4.8c-1.23-2.38-2.23-4.29-2.72-5.19-2.09-3.84-2.7-6.88,0-10.6,1.69-2.34,5.11-2.77,7.41-2.77,1.36,0,2.34.15,2.34.15l5.32,10.75h2.16l5.32-10.75s.97-.15,2.34-.15M64.55,23.38h0M59.18,33.84h0M61.58,0c-1.46,0-2.52.16-2.57.17-.48.08-.9.38-1.11.82l-4.91,9.92h-.3L47.78.99c-.22-.44-.63-.74-1.11-.82-.04,0-1.11-.17-2.57-.17-2.81,0-6.59.59-8.62,3.39-3.39,4.67-2.05,8.62-.1,12.2.45.82,1.36,2.56,2.71,5.17.26.5.77.81,1.33.81h4.8c.69,0,1.28-.47,1.45-1.13.05-.19.12-.37.2-.54l1.91,3.75c-.7-.11-1.34-.51-1.74-1.11-.28-.41-.74-.66-1.24-.66h-3.67c-.52,0-1.01.27-1.28.72-.27.45-.29,1-.05,1.47l1.31,2.54.8,1.56.53,1.04,1.69,3.3s.02.04.04.06l.43.84.53,1.04s.02.04.03.07l1.69,3.31,1.69,3.3c.26.5.77.82,1.34.82h5.93c.56,0,1.08-.32,1.34-.82l1.69-3.3,1.66-3.24c.03-.05.06-.11.08-.17l.53-1.03.42-.82s.02-.04.03-.06l1.69-3.31c.87-1.7,1.76-3.43,2.61-5.07.13-.22.2-.48.2-.75,0-.83-.67-1.5-1.5-1.5h-3.68c-.5,0-.96.25-1.24.66-.41.6-1.04,1-1.74,1.11l1.91-3.75c.09.17.16.35.2.54.17.66.77,1.13,1.45,1.13h4.8c.56,0,1.07-.31,1.33-.81,1.35-2.61,2.26-4.35,2.71-5.17,1.95-3.58,3.28-7.53-.1-12.2-2.03-2.81-5.81-3.39-8.62-3.39h0Z"/>
        </g>
        <g>
          <path class="cls-2" d="M104.17,12.29l-4.8,7.8h-20.08c-.92,1.64-1.82,3.23-2.68,4.75h20.27l-4.8,7.8h-19.87c-2.68,4.75-4.4,7.8-4.4,7.8h-8.64l14.86-28.16h30.14Z"/>
          <path class="cls-1" d="M104.17,12.29l-4.8,7.8h-20.08c-.92,1.64-1.82,3.23-2.68,4.75h20.27l-4.8,7.8h-19.87c-2.68,4.75-4.4,7.8-4.4,7.8h-8.64l14.86-28.16h30.14M96.88,24.84h0M104.17,10.79h-30.14c-.56,0-1.07.31-1.33.8l-14.86,28.16c-.25.46-.23,1.02.04,1.47.27.45.76.73,1.28.73h8.64c.54,0,1.04-.29,1.31-.76,0,0,1.54-2.73,3.97-7.04h18.99c.52,0,1-.27,1.28-.71l4.77-7.75c.16-.24.26-.53.26-.84,0-.83-.67-1.5-1.5-1.5h-17.7l.99-1.75h19.2c.52,0,1-.27,1.28-.71l4.8-7.8c.28-.46.3-1.04.03-1.52-.27-.47-.77-.77-1.31-.77h0ZM104.17,13.79h0,0Z"/>
        </g>
        <g>
          <path class="cls-2" d="M1.5,12.29l4.8,7.8h20.08c.92,1.64,1.82,3.23,2.68,4.75H8.79s4.8,7.8,4.8,7.8h19.87c2.68,4.75,4.4,7.8,4.4,7.8h8.64s-14.86-28.16-14.86-28.16H1.5Z"/>
          <path class="cls-1" d="M31.64,12.29l14.86,28.16h-8.64s-1.72-3.05-4.4-7.8H13.6l-4.8-7.8h20.27c-.86-1.52-1.76-3.11-2.68-4.75H6.3L1.5,12.29h30.14M31.64,10.79H1.5c-.54,0-1.04.29-1.31.77-.27.47-.25,1.06.03,1.52l4.8,7.8c.27.44.76.71,1.28.71h19.2l.99,1.75H8.79c-.54,0-1.04.29-1.31.77s-.25,1.05.03,1.52l4.8,7.8c.27.44.76.71,1.28.71h18.99c2.43,4.31,3.96,7.04,3.97,7.04.27.47.77.76,1.31.76h8.64c.53,0,1.01-.28,1.28-.73.27-.45.29-1.01.04-1.47l-14.86-28.16c-.26-.49-.77-.8-1.33-.8h0Z"/>
        </g>
      </g>
    </g>
  </g>
</svg>