<?xml version="1.0" encoding="UTF-8"?>
<svg id="Layer_2" data-name="Layer 2" xmlns="http://www.w3.org/2000/svg" viewBox="0 0 937.92 765.64">
  <g id="Layer_1-2" data-name="Layer 1">
    <g>
      <path d="M162.08,610.64c-1.2-.46-1.04-1.7-2.25-2.3-7.18-3.57-12.9-.18-20.25-.13-8.57.07-17.81-1.5-26.5-.59.38-1.82,1.97-1.86,3.46-2.03,4.25-.48,26.97,1.1,28.54.03l-1.01-1.98,5.02-.02-1.02-1.98c4.93,1.78,9.05.65,14-.02-1.36-3.93-11.09-3.78-14.32-2.98-.77.19-.64,1.95-1.31,2.03-1.54.2-5.8-1.24-8.9-1.1-7.3.34-15,2.78-22.46,2.06l12.99,1.99h-15v-4h17.5c1.68,0,6.08-2.46,8.5-2.01-5.1-6.1-17.02-.32-24.07-.33-3.56,0-7.37-1.31-10.93-1.67l1.51-2c-2.63-1.9-6.92-2.94-9.44-4.6-2.27-1.49-8.49-8.15-10.09-8.87-3.02-1.37-7.67-.1-10.98-.53,1.27-2.54,6.98.81,7.99-2.98l-26,2.98,24.57-4.96-.59-5.03c-1.65-.39-.38,1.51-1.69,1.97-6.5,2.29-18.28,1.7-25.29,2.01l22.27-4.21,1.72-2.77c-7.54-.73-14.93,1.23-22.43,1.16-1.33-.01-2.36,1.33-3.56-.67l22-2.5-2-4.98,4.99-2.01c-8.8,2.54-17.27,4.21-26.49,4.02-1.19-.02-3.74.7-3.5-1.01,4.39.32,27.6-2.52,28.99-5.52-4.35-5.42-9.96.75-15.99-.48l5.99,1.98-33.99,4.51,25.99-5.5h-14c.87-2.21,5.3-.54,7.34-1.01.78-.18.62-1.92,1.09-1.88,9.35.63,9.52-.78,17.45-2.58,2.64-.6,4.87,2.62,4.12-2.52l-8-1.01c.54-3.18,6.51-1.51,7-1.99l-3.05-27.97c-7.58,2.47-9.27-2.93-13.88-5.61s-12.69-5.77-17.89-6.62c-3.24-5.19-2.02-10.97-2.19-16.81H10.58c-.66,0-1.43-1.67-1.55-2.53-.11-.77,1.25-14.74,1.5-15.52,1.13-3.46,3.38-3.11,6.55-2.95l-.34-57.4c-.3-4.93-9.99-3.19-12.66-7.11l1.93-.53.06-1.94c-7.54-1.56-2.48-13.78-3.98-19.37-.31-1.16-2.53.18-2.02-2.14,9.15-2.96,11.27-8.81,11.99-18.02,1.57-20.08-.93-43.61-1.03-63.94-.05-9.43,1.08-18.7,1.07-28.02,0-12.41-2.53-25.84-.52-38.5,2.87-2.99,6.75-4.41,9.95-7.05,4.62-3.81,16.36-12.83,19.58-16.5,1.19-1.36-.32-2.52.13-3.23,2.31-3.66,7.23-7.78,10.93-10.62,34.49-26.53,73.94-49.77,109.21-75.79,20.25-14.94,39.46-31.34,59.77-46.23C253.36,46.63,287.2,25.3,318.82.89c5.77-2.64,12.78,1.35,19.03,2.49,137.26,25.05,275.25,44.31,412.63,68.38l4.62,2.61c.26,2.55-.35,5.25,0,7.78,4.85,34.58,10.4,70.25,18.66,104.34.93,3.82,6.18,25.2,8.08,26.21s6.28-.16,8.58.34c4.86,1.05,11.31,5.19,12.46,10.33,3.06,13.71-3.25,38.64,1.47,51.53.53,1.44,2.71,3.02,2.72,3.26.12,2.56-4.28.63-4.97-.5,2.06,20.85,12.59,39.71,19.14,59.35.95,1.5,7.39,3.5,9.51,4.99,12.56,8.77,24.34,18.55,37.65,27.85,5.6,3.91,11.29,8.02,16.2,12.81l1.47-3.98c.68,4.91,3.95,11.66,9,6.99-.54,4.06,4.83,6.73,5.62,8.43,1.06,2.29,3.48,20.8,3.48,24.07,0,4.22-1.92,8.18-2.09,12.08-1.51,35.32,1.26,71.04,0,106.42,7.29-2.74,15.36-.56,22.88.11l.11,51.89-129.86,27.14c-1.23,14.71-7.24,29.36-17.12,40.36l7.03,3.06,10.95-1.55c-2.78-.08-5.58.18-8.37-.13-1.43-.16-6.08-.52-6.62-1.87l14.12.53c6.99,5.29,16.02,4.28,24.11,5.74,4.82.87,9.19,4.03,14.77,2.73,0,1.74-4.37,1.1-5.54,1.04-5.16-.27-9.8-2.33-14.94-.03l.5-2.01h-7c-.57,3.18,1.07,1.47,2.48,1.97,2.59.91,5.74,2.7,8.13,2.97,8.29.94,19.89-3.85,28.38-.93l-10.47,2.99.49-2-14,1c.58,2.58,5.15,1.35,6.75,2.26.48.27.56,1.83,1.93,2.52,3.48,1.75,10.72,1.43,13.32,5.21-4.71-1.38-8.29-.7-12.99,0l3.99-2.98c-3.19-.06-5.57-2-8.55-2.95-3.8-1.22-7.28-.54-9.92-3.17l-25.53,3.13c.91,2.07,5.52.73,7.53.95,1.5.17,3.08.21,3.46,2.03l-23,2.01c-.32,2.44.02,1.58,1.39,2.1,6.93,2.63,17.56-2.63,25.07-3.14,8.87-.6,15.33,4.37,24.54,2.04-1.59,2.93-9.6,2.42-12.55,2.04-3.11-.4-4.44-2.82-6.89-2.92-2.05-.08-18.69,2.37-20.92,3.01-.72.21-1.14.85-1.62,1.36,6.48,4.5,14.66-1.99,21.97-.49l-13.99,3,5,1-1.01,1.98h3.01s-1.01-1.98-1.01-1.98c20.58.26,40.48-6.82,61-4l-6.99,1.98,7,.02-1.02,1.99c4.49.94,7.87-1.85,11.96-2.55,5.91-1.02,14.06-1.29,20.33-1.81,1.65-.14,4.44-2.31,7.71-.62l-12.79,3.69c-11.02,1.73-22.19,2.61-33.2,4.3,1.62-.85,4.3-1.6,5-2.99-4.15,1.39-8.07-1.94-11.35-1.95-.82,0-6.35.73-6.64,1.93l6.99,1c-2.43-.89-5.74,1.09-7.42,1.03-.67-.02-.13-2.05-2.03-2.14-1.99-.09-4.06,1.02-6.05,1.11-6.11.27-11.04-.15-16.97,2.02.48-5.34-1.58.03-2.97.11-3.42.19-6.97-1.76-10.54-1.11-.24,1.87,1.98.6,3.28,1.01.92.29.32,1.82,2.16,2.06,4.96.65,11.21-2.22,16.56-1.07l-13.58,2.91-9.41.07,1.99-1.98-11.43-1.03-.99,1.93c-5.47-1.57-12.6,1.89-18.57,2.59,3.2,2.55,8.41,2.03,10.7,5.47l32.3-2.98-3-3.98,7.43,3.06.99-1.98c4.19.29,12.34-.58,17.1-1.26.42-.06.8-3.05,3.48-1.82l-1.99,1.98,3.99,1.01-1-2.99c4.1-.22,7.98-1.39,12.01-2.01-.36.19-1,1.89-2.99,1.01v.98s6.99,1,6.99,1l-12.99.02c1.93,3.94,7.11,1.28,10.52,1,1.1-.09,3.73-.73,3.48.98l-38,3.01c-1.04,4.22,5.32.21,5.99,2.99-3.72-1.26-10.75,1.38-13.38,1.07-.32-.04-2-5.05-4.04-.15l-5.57-.89,2.99,1.98-10.99-.98,1.99,1.98c-3.91-.4-7.64.67-11.45.99-7.05.59-17.25,1.71-25.79,3.28-12.23,2.24-24.57,5.74-36.76,8.25.01,1.09,3.2.36,4.23.22,23.46-3.13,46.94-6.5,70.4-9.6,4.97-.66,10.72-.57,15.75-1.25,10.03-1.36,19.99-4.05,30.1-4.91.8-.07,3.65-.3,2.02,1.04-26.82,3.96-53.33,9.49-80.49,11.01-.26,1.67,2.41,1.07,3.53,1.04,3.4-.1,6.52-1.27,9.93-1.11l.58,3.04,25.95-1.99-8.99-1.98c20.3-1.18,41-3.71,60.53-8.99l1.45,1.98c-.11-2.03.99-2.33,2.72-2.74,22.81-5.42,49.68-3.96,72.78-10.27,4.25.7-2.91,2.28-3.45,2.61-.77.46-.79,2.2-1.74,2.44-10.39,2.57-23.87,4.17-35.09,6.69-32.96,7.39-66.61,12.85-100.82,18.18-83.55,13-167.86,24.03-251.76,34.24-5.35.65-9.94,3.25-15.15,3.87-.81.1-3.6.36-1.96-.99.65,1.21,8.45-2.4,4.01-2-13.18,1.21-26.26,5.04-39.52,4.98l41.99-6c-.29-1.77-5.2-1.11-6.54-1.03-8.7.54-18.19,3.09-26.97,4.03-6.04.65-13.04.39-18.98,1.02-13.32,1.42-25.38,4.54-39.02,3.99-1.21-.05-3.72.75-3.48-.99l139.38-15.13,4.11-1.89c-7.42.46-15.81,3.25-22.93.96l-.57,2.05-1.07-1.88c-4.25,1.74-8.93.52-13.4.9-12.28,1.06-24.91,4.47-37.14,5.86-6.57.75-13.52-.45-19.89,2.09l.14-2.84,127.37-14.14-4.99-1.98c6.35.6,11.63,1.24,17.99-.02l-3.99-1.98,5.44-1.06,1.05,2.05c15-3.89,32.14-6.03,48.02-7.99,2.14-.26,4.36.12,6.5-.02v-2.99s-54.68,7.61-54.68,7.61c-10.45-2.54-19.99,2.07-30.32,1.39l10.99,1.99h-14.5c-2.64,0-10.24,2.95-13.47,3.57-6.26,1.21-12.48.8-19.47,1.56-23.65,2.55-47.67,6.02-71.04,9.88l.49-2c-2.45,0-4.92-.16-7.38.12-5.88.67-13.11,3.84-17.09,4.66-7.87,1.61-16.28,1.4-23.99,4.19l-.56-3.49c3.02-1.37,7.52-.76,10.32-1.52,1.1-.3-.16-3.05,4.1-.88l1.02-1.96c40.78-2.5,83.05-6.67,123.81-13.38,9.88-1.63,19.66-5.24,29.75-4.76l-.99-1.52-41.59,5.44c-2.52-5.56-1.65.64-2.93,1.08h-2.5s.5-2,.5-2c-5.39.18-10.93,2.14-16.1,2.9-13.61,2.02-28.55,3.1-43.6,5.4-7,1.07-21.95,5.68-28.17,4.76-.68-.1-.51-1.97-1.26-2.09-3.39-.56-25.91,2.64-31.75,3.14-8.59.74-17.19,1.06-25.61,2.88.35-1.92,2.08-1.65,3.46-2.03,6.84-1.89,15.09-1.08,21.92-2.08,3.9-.57,7.99-2.3,11.22-2.78,16.03-2.39,31.09-3.16,46.62-8.39,1.05-.35,3.03-.22,2.79-1.68l-93.98,14.99c-.5-2.77.6-1.68,2.19-2.28,3.3-1.25,4.46.49,3.81-4.71-4.88-.07-10.66-.25-15.44-1.07-8.51-1.46-20.76-6.01-29.12-6.86-12.18-1.24-24.39.94-36.45,1.92.41-1.94,2.01-1.75,3.49-2,7.21-1.17,14.64-1.32,21.88-2.11,1.16-.13,5.48-.45,5.61-1.87-4.85.45-7.69-7.64-10.51-8.07-15.4,2.68-30.74,6.75-46.47,7.04l37.03-6.46c5.58-1.44,10.98-1.56,5.26-7.55h-11.29s8.49-.99,8.49-.99c4.96.13-.3-8.95-2.12-9.73l-34.37,1.72,34-4c-4.73-11.53-5.29-22.9-21.01-17l.49-2-18.48,2,3.99-1.98-11,.98c.01-1.37,2.6-1.99,3.5-1.99h15.5l-2.01-3.48c-21.61-.8-43.33,3.1-64.98,3.47l10.5-1.98,63.49-4.02c.23-1.34-4.07-1.72-4.77-1.72-2.31,0-4.33.9-6.68.77-4.02-.21-8.2-2.92-12.54-2.03l1.99,1.98c-13.33-1.99-27.1,1.08-40.5,2-8.13.56-16.52-.42-24.48,2.01-.48-3.06.74-1.64,2.51-1.95,15.73-2.81,31.3-1.62,47.08-4.94,3.44-.72,6.3,1.43,7.91-3.13l2.55,1.33,2.94-.31-5.99-3,1.99-1.98c-14.51-1.09-28.61,1.9-42.99,2.98l6.63-1.85c10.25.23,20.62-5.33,30.36-2.14.43-2.56-.38-1.81-2.16-2.29-5.24-1.41-13.22-.11-18.83-.71,1.04-3.04,9.76,1.61,8.99-2.99l-19.99,1.99c-1.59-1.21,0-1.82,1.47-2,3.43-.42,15.34-.1,17.6-1.45l.91-6.54-12.99,1.01,5.48,2.99c1.65,1.3-1.31,1.15-2.02,1.05-5.83-.84-3.67-2.87-6.69-4.32-3.28-1.57-20.66,1.13-26.29,1.16-4.85.03-9.63-.65-14.48-.91-.23-1.75,2.27-.94,3.49-.99,11.19-.46,22.44-1.67,33.51-1.01.33-1.9-1.97-.41-2.84-1.18-.63-.56,1.01-3.35-3.66-3.81-2.51-.24-.96.82-.49,1.99l-76,6c-.41-2.79.48-1.86,2.48-1.99,21.37-1.41,42.64-2.46,63.91-5.12,3.14-.39,5.5-.46,4.6-3.86-1.61-1.92-19.77,1.66-23.51,1.97-7.6.64-15.36.7-22.98,1.02-4.17.18-7.81,1.93-12.51-.02-.03-1.7-.56-2.17,1.41-1.92,4.72.59,8.19,1.16,13.13.97,7.33-.28,19.73-.96,26.68-2.32,1.6-.31,4.32-2.49,6.79-2.21,2.1-3.65-2.03-1.51-3.49-1.5-9.32.08-18.7.61-28.02.99-6.12.25-12.3,1.91-18.84.58-1-.2-2.92-.14-2.66-1.58,15.59,1.9,30.3-3.1,45.51-4.01,2.01-.12,2.88.77,2.48-2l-39.49,2,8.51-2.5c-17.94-1.08-36.04,2.53-54.01,2.49l37.45-4.03c6.84-.3,15.09.15,20.02.84,1.24.17,3.81-.6,5.52.21v-4.01c2.24.16,1.37,3.73,2.62,4.06,1.6.43,8.65.07,10.8-.16.95-.1,3.76-.44,3.58-1.89-2.96-.77-3.99-4.34-7.62-4.71-1.38-.14-4.98.58-6.81.78-14.7,1.62-32.92,1.2-49.05,1.92-12.19.55-24.26,3.34-36.51.98l35.99-3.98-4.99,1.98c3.02-.48,13.86,1.31,14.99-1.49l-1.99-1.48h4.99s-1.99,1.98-1.99,1.98l29.99-2c1.66-1.27-.12-1.82-1.48-2-5.06-.67-11.12,2.09-16.51,1l14.49-2.99-40.49,2.99,15.62-2.86c6.63-.78,13.24-.72,19.9-1.12,2.01-.12,2.88.77,2.47-2-6.4,1.88-12.25.02-18.45-.03-22.57-.16-44.99,2.97-67.54,3.01-.24-1.74,2.27-.95,3.48-.99,9.51-.36,19.07-.91,28.51-2.01l-7.99-1.98,25.99-1.01c.08-.65-.1-1.38,0-2,5.11,1.94,12.53.59,17.99.99,1.05-3.96-5.76-1.07-6.99-2-1.05-4.22,5.32-.21,5.99-2.98l-16.35.95c-1.32.46-.48,2.08-.65,3.04ZM48.09,202.64c60.37-39.51,119.44-80.99,179.47-121.02,15.79-10.53,33.79-19.99,48.85-31.15,10.16-7.53,19.21-16.81,29.73-24.27,3.91-2.77,16.25-8.27,16.94-12.13.43-2.37.09-9.43-3.99-6.92C231.57,73.79,140.71,135.8,50.14,198.2l-2.05,4.44ZM337.12,18.66c10.44,4.22,23.47,6.87,34.75,8.69,15.11,2.45,30.53,2.43,45.58,4.41,28.88,3.8,57.98,12.92,86.26,16.74,18.08,2.45,36.6,2.92,54.75,5.25,23.31,2.99,46.09,8.32,69.2,11.8,36.33,5.47,72.92,9.29,109.07,16.03,7.28-1.26.38-6.42-3.42-7.67-10.83-3.56-30.89-5.89-43-8.01-93.63-16.39-187.76-28.63-281.48-44.52l-82.32-14.7c-1.59-.19-1.62-.23-1.39,1.39.48,3.5,1.43,6.68,1.09,10.43l9.38,3.11,1.53-2.96ZM285.08,46.63l37.95-21.55c3.08-2.84.81-4.18.04-7.44l-1.65,3.08-36.34,25.9ZM739.95,87.78c-53.62-4.45-106.35-15.92-159.47-24.03-69.38-10.59-138.59-20.06-207.64-32.36-12.58-2.24-23.12-5.63-35.96-6.94-2.82-.29-6.32-3.09-8.84-.14l5.06,32.33c1.89.2.8-2.09.7-3.2-.21-2.3-.52-4.87-.85-7.16-.59-4.14-3.87-16.3-3.54-19.18.07-.62.95-1.5,1.67-1.46l3.02,24.99,1.98-7.99c.21,3.12-.29,6.37.02,9.48,2.17,21.61,5.8,45.31,9.12,66.88,1.5,9.75.15,12.19,11.11,11.36,18.66-1.42,24.62.62,42.28,2.26,27.95,2.6,56.08,4.18,83.98,7.02,34,3.46,68.09,7.41,101.99,12.01l1.01-3.01c1.67,3.76,3.78,3.26,7.27,3.77,22.76,3.34,46.77,4.59,69.72,7.23,30.18,3.47,60.32,7.38,90.5,10.99.74-.69-4.53-16.61-4.89-19.6-.76-6.29-.32-13.08-1.25-19.75-2.04-14.5-4.31-29.12-6.99-43.51ZM330.09,78.64c1.06-3.64,2.36-5.42,2.05-9.53-.15-1.93-1.45-3.12-1.63-4.42-1.82-13.01-3.42-26.06-5.43-39.05-21.29,14.54-45.51,25-65.82,40.7l1.63,21.8c-2.64,82.66,1.04,165.41,2.15,248.05l1.01,3.01,5.03.45c.3-4.8-2.59-3.91-3.03-9.46-2.37-29.67-.39-62.06-.93-92.1-.25-13.87-1-27.96-1.3-41.9-.15-6.91-2.39-21.71-.54-27.85,1.16-3.85,5.83-2.55,7.81-3.37,14.61-6.07,33.89-15.43,48.02-22.8,2.95-1.54,19.86-11.19,20.76-12.73,1.81-3.13-1.58-6.86-1.65-9.24-.05-1.5,1.12-3.3.97-5.06-.76-8.53-2.11-17.26-4.1-25.5l-4.99,3.99c3.17-5.21,3.44-9.98,2.99-15.99l-2.98,1ZM490.08,47.65l-79.99-13,14.79,3.7c19.95,2.1,40.78,9.09,60.67,10.33,1.08.07,4.72.69,4.53-1.03ZM521.4,50.52l-.56,3.73,212.67,32.13.56-3.73-212.67-32.13ZM250.58,53.95l-16.93,12.07.93,1.31,16.93-12.07-.93-1.31ZM255.09,79.65c-.18-2.06.84-10.86-1.5-10.98-34.67,23.36-69.63,46.3-104.23,69.75-28.75,19.49-59.64,39.24-87.61,59.39-2.61,1.88-10.72,7.21-12.19,8.81-1.25,1.36-1.83,1.99-1.47,4.02l31.07-20.42c54.97-31.27,105.6-69.46,157.38-105.62l7.54-1.97-4.99-2.98c5.27-2.13,10.38.87,16,0ZM765.07,174.64c-1.75-18.73-6.43-37.23-9.7-55.79-2.17-12.27-3.04-25.31-5.53-37.47-.79-3.87-3.13-6.27-7.2-6.73l-1.56,1.97c1.34-.16,4.77,4.29,5.29,5.28,4.67,9.05,4.26,33.68,5.82,45.14,1.11,8.13,3.46,16.93,4.73,25.27.69,4.58.94,19.24,3.84,21.16.66.44,4.09,1.44,4.32,1.17ZM248.08,501.64v-56c-1.76-.22-.95,2.26-1,3.49-.72,17.31.6,34.76-.09,52.09l2.09,2.91-2.01,1c4.64,5.1-.54,11.81-1.04,16.96-.71,7.31-.26,18.48.05,26.06.05,1.22-.75,3.72.99,3.48l.02-22.48,1.98-10.51-1,36.99-1.98-2.99-1,8.99-.05-59.54c-1.67-120.88-5.61-242.76-4.74-363.97.09-12.71,1.27-25.74,1.78-38.49-2.92-.79-2.91,3.48-3.04,5.45-1.82,27.46-.66,60.08-.94,88.06-.52,51.27.8,102.81-.05,153.95-.27,16.05-.1,32.1-.97,48.03.75,1.68,2.01-1.85,2.01-1.99v-19.5c1.82.5,1.93,4.94,2.04,6.46,2.01,28.98-.22,62.89-1.03,92.05-.94,33.66-1.04,67.33-1.95,101.05-.05,1.7-.3,2.94-1.06,4.43l6.95-1.03,2.06-11.95c1.32.17,1.64,4.66,1.76,5.83.17,1.61-.38,2.73-.33,4.19l8.55,1.97v-4.01s-1.98,1.01-1.98,1.01v-4s2.01,1.48,2.01,1.48l-1.89-9c3.59-2.53-1.05-16.48-.14-20.8.16-.76,1.81-.62,2-1.37.63-2.55-.39-6.52,0-9.33l-2-.48,1.92-.93c-3.14-20.86.73-42.18,1.12-63.1.46-24.68-.18-49.56-.04-73.99.51-90.73-1.38-181.46-1.09-271.89l-.91-13.6-1.67,6.83-1.33,1.65c1.7-3.33-.55-12.58.2-14.91.38-1.18,1.72-1.54,2.82-1.6l-3-2.96c3.73.62,3.12-9.92,1.01-11.02l-1,3.99c-.23-3.76-2.5-2.21-5-3,.22,1.98-.45,4.5,0,6.34.19.77,1.97.64,2,1.24.27,4.7-2.81,17.7-3.09,23.94-3.75,82.33-.16,164.56,1.04,247.02.18,12.53-.38,25.44,0,38,.72,23.58,3.67,45.34,3.08,70-.06,2.36-1,4.55-1.08,6.92-.21,6.33.3,12.72.04,19.05-.05,1.23.76,3.71-1,3.49ZM746.07,84.65c-1.48-1.42-1.8.1-1.99,1.48-1,7.46,3.67,15.81,2.99,23.51l-2-7.48c-1.34-1.64-1.09,1.15-.99,1.97.83,6.86,2.41,13.64,3.01,20.52l1.98-3.99,5.7,48.81,2.3,3.19-11-88ZM243.08,86.65l-2.82,1.67-.17,7.34h2.99s0-9,0-9ZM44.09,370.64l189.53-14.93-1.06-263.07c-36.64,23.18-71.11,49.91-107.56,73.42-13.68,8.82-28.06,16.52-41.83,25.17-11.45,7.19-22.43,16.68-34.98,21.52l-3.15,93.36-.94,64.54ZM356.08,132.65c-2.17,0-7.04-.87-7,2.45,3.27,7.93,2.93,16.73,4.13,24.92,7.81,53.22,17.13,106.16,29.64,158.36.77,3.21-.32,7.07,1.76,10.24l72.48,2.55.99-1.51c-.9-1.13-22.39-.82-25.49-1.02-6.23-.42-27.59-1.51-31.94-2.98-11.05-3.72-16.46-15.51-19.12-25.98-9-35.44-13.77-76.22-18.47-112.52-1.93-14.89-5.51-29.32-3.98-44.51l1.8,1.6c-2.08,11.58.31,24.12,2.53,35.57.25,1.31.11,4.84,1.66,4.83,1.12-7.75-2.36-14.96-2.97-22.51-.57-6.94.77-14.11-.55-21.02.4-4.85,4.98-2.26,7.51-4.97-2.5-5.22-10.32-.47-11.66,3.16-.45,1.22,1.3,6.28-.82,6.32-2.28.04.27-6.88-.51-7.98l-3.01,4c-5.38-1.41,4.17-8.01,3.01-9ZM407.08,136.65l-37.99-4c-.48,3.08.79,1.59,2.5,1.96,8.26,1.76,21.4,3.89,29.59,3.39,1.37-.08,5.76.26,5.9-1.34ZM365.63,324.22c5.16-6.9,3.24-14.85,2.33-22.95-4.85-42.77-13.47-87.82-20.6-130.4-2.02-12.05-2.56-24.4-5.76-36.23l-72.5,35.98,71.99-30.98-1.99,9.99,2.98-2c.91,3.58-2.32,2.12-2.06,5.42.2,2.41,1.45,4.23,1.82,6.33,5.35,30.84,9.15,61.64,13.37,92.63,2.59,19.02,5.06,31.84,5.83,51.15.12,3.08,1.79,6.69,1.75,9.18-.13,7.4-13.1,12.23-18.68,14.8-.04,2.91,17.15.15,19.17-.61.37-.14,2.03-1.88,2.36-2.32ZM524.08,150.64l-2.5-2.99c-31.21-2.55-62.19-7.87-93.49-8.99l8.62,1.87c11.86,1.38,23.9,1.7,35.74,3.26,17.22,2.27,34.12,7.68,51.64,6.85ZM337.08,144.64l-69.37,31.91-.62,4.09c3.52-.3,5.5-3.37,8.61-4.88,9.59-4.64,22.35-9.62,32.42-13.58,7.94-3.12,16.35-5.05,23.92-9.11,1.13-.65,1.85-.57,2.56.56.4.64,3.14,12.8,3.41,14.59,6.64,43.6,11.63,88.21,16.62,132.13.38,3.3-.17,9.34.45,11.65.25.93,1.93.59,2,.67.47.62-4.32,4.22-2.49,5.97,1-1.42,3.54-1.91,4.12-3.48.21-.56.46-10.93.39-11.99-1.74-26.28-8.6-54.3-10.12-80.9l-11.89-77.62ZM410.08,147.65c-3.63.51-6.99-.73-10.51-1.09-1.76-.18-3.56.71-5.03.63-2.09-.12-3.17-2.54-6.43-1.05-2.63,1.2-18.79,24.01-18.99,27.07-.06.9.78,7.31,2.94,5.44l18.59-27.93,3.42-3.07c-3.14,9.32-8.68,19.54-14.98,27l.98-5.51-9,16,2-.5c-.96,6.35.29,12.88,1.28,19.24,1.65,10.58,4.53,20.37,7.45,30.57.44,1.54-1.38,3.67,1.27,4.2l3-5.99c.12,4.17-3.67,7.37-3.82,11.46-.17,4.74,5.69,25.36,4.57,27.3-.16.27-1.77.23-1.81.78.91,2.17,1.4,4.48,2.13,6.7.4,1.2,2.31,4.86,2.86,7.33.65,2.95,2.75,20.41,4.08,21.42,4.1-2.64,7.1-7.13,9.08-11.5,3.55-7.81,2.61-5.57,7.92-12.27,3.55-4.48,6.03-9.64,8.99-13.73,2.08-2.88,5.07-6.43,7.99-8.5l-9.98,19,3.99-1.5-20.99,32.5c1.99.35,2.82-1.33,3.96-2.53,4.32-4.49,12.37-16.89,16.43-22.57,4.44-6.21,7.8-12.84,12.19-18.81,1.85-2.52,10.84-13.14,12.93-14.08.53-.24,1.7-.19,1.48.49-13.5,17.11-22.66,37-33.01,55.99l2,.51c7.31-9.54,12.7-20.28,19.18-30.33,14.91-23.13,30.23-44.43,45.02-67.98,8.07-12.86,17.25-26.04,24.36-39.64,2.67-5.1,3.78-11.59,8.44-15.54-1.82-2.72-5.36-.93-7.43.55l-45.54,64.95c2.99-6.84,7.65-13.49,11.77-19.72,10.51-15.93,21.88-31.41,33.2-46.78l-74.86-6.36c-11.26,19.55-22.19,39.33-35.11,57.86l32.97-57.53c.74-2.35-2.96-1.72-4.01-1.01-1.12.76-2.21,5.88-3.07,7.46l-1.73-.76-2.15,2.83,3.99-10.99c-5.94-1.13-5.48,4.39-7.6,7.89-2.87,4.71-6.38,9.07-9.2,13.8-6.98,11.73-12.53,24.58-21.19,35.3,3.16-8.19,7.6-16,11.82-23.67,4.58-8.32,12.95-19.51,16.33-27.67.6-1.46,2.44-4.24,1.35-5.65l-8.5,8.99,4.99-8.99ZM585.07,160.64c.19-2.61.37-5.55-2.44-6.54-17.69-2.33-35.59-3.3-53.34-5.16-1.43-.15-3.6-1.38-3.2,1.2l50.99,7.53-3.52,1.01-.48,1.97c5.39-.37,5.5,8.11,7.51,12l24.5,99,1.98-1.99c2.29,13.05,4.29,28.49,8.49,41.02.88,2.63,3.21,4.82,3.43,5.69.46,1.87-1.39,2.79-1.5,3.81-.18,1.67,2.25,4.1,1.47,6.79-.62,2.13-5.22,2.78-4.95,6.17l1.99.98-.91,2.55,12.99-1-4.01-16.99-.98,8.99-28.28-118.23c-2.98-5.02-5.05-16.11-5.71-22.3-.28-2.63,1.03-.71,1.97-.46.75-8.86-9.08-12.65-5-22.01l-1.98,1.02c.49-3.65-5.1-7.11-1.02-10.01l2,4.99ZM616.08,159.65c-6.43-.88-13-1.29-19.44-2.05-3.05-.36-5.27-3.17-9.46-.87l3.92,21.91,4.16-16.82,9.32-.18,11.5-1.98ZM767.06,177.64c-8.51.6-17.91-2.6-26.62-3.85-31.83-4.56-63.98-7.19-95.87-11.13l-8.49.98c16.41,2.1,32.95,3.1,49.38,5.13,4.89.6,10.19,2.11,15.24,2.76,9.17,1.18,54.59,4.73,58.87,9.13l48.51,154c6.91-2.08.8,2.01,3.02,5.99l4.93-1.06c-18.44-53.04-35.31-107.24-48.98-161.94ZM505.09,185.64c5.22-5.72,10.52-12.55,12.98-20-5.2,5.59-9.95,12.98-12.98,20ZM726.08,184.65c-32.62-4.11-65.35-7.67-97.62-13.89l-26.37-2.11c.32,1.52,4.47,2.54,5.73,2.76,23.36,4.04,47.26,5.37,70.76,8.24,13.31,1.63,26.7,4.82,40.05,5.94,2.09.18,6.51,1.66,7.46-.94ZM328.08,188.14v47.5l1.11-1.84,1.88.85c1.78-4.05-1.72-6.15-1.84-6.51-.26-.81,1.72-7.19.84-9,3.02,1,2.97-1.32,0-1.99,3.55-3.31.96-10.11,1-14.01.06-7.37,1.73-14.57-.55-22.44-1.61-5.56-5.61-5.78-10.91-6.09-8.61-.51-12.55.82-19.56,5.54l.53,2.51c3.14-.03,6.08-1.28,9.15-1.65s4.68,2.74,6.8-2.24c5.98,1.77,10.43,1.88,11.55,9.39ZM561.08,183.64c.35-1.32,1.02-2.58,1-3.99l-2.45,1.04c-4.83,10.53-13.63,19.63-16.54,30.95l17.99-27.99c-2,7.51-7.5,11.77-9.99,19,2.85-1.58,14.16-18.74,12.98-19.99l-2.99,1ZM275.08,181.64v24h1v-19.5c0-.71,1.76-2.85.99-4.5h-1.99ZM631.07,311.64l-37.98-129.99c1.01,16.08,8.05,31.57,12.49,47,6.52,22.67,13.96,46.41,18.6,69.4.33,1.62.78,2.87,1.89,4.11-.07,3.6-2.3-1-2.48-1.53-3.34-9.9-4.27-21.69-8.02-31.98-.19-.52-2.41-5.13-2.47-1.53,2.54,6.67,4.79,14.12,5.89,21.17.42,2.7-.54,5.02-.09,7.97.81,5.29,5.68,11.97,6.94,17.12,1,4.1.93,14.1,2.43,17.55.13.3,4.15,4.73,4.47,4.78,1.38.21,3.64-1.35,5.33-1.08.63-.63-5.22-7.48-5.84-8.65-3.05-5.74-1.69-12.2-4.15-18.33l2.98,3.99ZM271.08,182.64h-2.99c.08,45.51,2.13,90.97,1.95,136.55l2.53,11.46-1.49-148.01ZM567.08,187.65c-1.47-1.56-9.4,9.72-10.41,11.08-11.76,15.91-22.05,33.79-30.18,51.83-.75,1.67-.87,3.2,1.08,1.07,9.73-15.72,19.63-32.62,30.29-47.71,1.06-1.5,2.23-3.22,3.39-4.61.74-.89,1.97-3.23,1.82-.19l-61.98,104.51c5.13.27,18.54,4.01,22.58,1.09l50.89-80.12.54-3.35c-3.98-10.85-6.68-22.11-8.01-33.6ZM318.08,193.14c.33,5.8-.24,11.7,0,17.5l1.99-9.51-1-12.49c-4.16-.59-1.05,3.29-.99,4.5ZM487.68,216.25c2.84-4.21,6.67-10.13,8.9-14.6.51-1.02,2.41-3.1,1-4l-19.34,25.66-30.16,48.33c11.23-12.28,19.31-27.17,28.57-40.92,3.34-4.96,7.75-9.62,11.02-14.48ZM763.03,331.59c0-3.13,1.63-6.22,1.05-9.41-.43-2.41-4.04-4.94-4.76-9.28-1.79-10.71.65-21.42.8-31.72.39-26.35,1.49-53.31-10.54-77.54-.44-.89-.71-1.88-1.48-2.58l-8.95,1.66c-3.91,18.27-1.29,37.05-1.34,55.47-.03,11.61.4,23.41.35,34.95-.02,4.05-1.98,8.41-1.09,13.01.27,1.4,8.46,7.92,10.55,12.44,1.83,3.96,1.3,8.72,4.47,10.64l-1.02,2.39,11.95-.04ZM798.08,327.63c-1.08-3-2.64-5.9-3.51-8.98-9.51-33.93-18.31-67.74-30.95-101.05-1.46-3.84-2.23-8.24-3.79-12.21-.53-1.33-1.23-4.51-2.74-4.74,2.86,21.61,13.29,41.43,19.43,61.89.36,1.21-.66,3.11-.04,5.11,6.15,19.8,12.51,39.48,18.62,59.3l2.98.68ZM299.08,242.63c-2.62-12.27-1.63-25.09-2.96-37.53-.16-1.5-.22-3.09-2.03-3.46,1.27,12.74,1.51,25.64,3,38.5.22,1.92-.92,2.93,1.99,2.49ZM720.08,201.65c-4.76.19-9.62-.34-14.37.12-5.97.58-14.73,2.1-20.85,3.15-2.29.39-15.69,2.76-15.75,4.23,2.11,2.86,5.76-.28,8.59-.44,1.55-.09,2.84,1.07,4.4.93l-.5-2.01c1.38.12,2.57.96,3.97,1.03,7.41.34,24.73-2.84,32.21-4.87,1.71-.47,2.78.71,2.31-2.13ZM312.07,234.64c-.96-10.66-.54-21.46-2.48-31.99l-.67,3.56c.99,7.49.57,15.54,1.17,22.92.1,1.21.37,5.35,1.98,5.51ZM728.08,205.65c-5.4.38-2.12,6.34-2,9.51.55,15.42-.91,32.35-1.03,47.94-.1,12.59.97,25.61-.96,37.96.1,1.11,5.46,2.66,5.76-.05l-1.76-95.36ZM721.08,206.64l-49.76,9.24c-2.75,2.32-.56,14.4-.62,18.1-.35,22.13-1.03,44.46-.62,66.67,8.76-1.2,17.61-2.52,26.5-2.44,8.24.08,16.57,2.33,24.5,1.44v-93ZM321.09,241.64c7.92.75,4.1-4.76,3.95-9.45-.24-7.82.27-15.72.03-23.54-1.53.21-1.61,4.3-1.82,5.66-1.41,9.01-.75,18.3-2.16,27.34ZM43.08,211.65c-.62-.67-9.72,5.7-10.91,6.58-2.34,1.72-16.46,12.86-16.86,14.16.09,46.07,1.44,92.55,1.22,138.33,1.82,2.57,17.94-.95,21.57-.06l4.99-159ZM302.08,216.14c.14,5.99,0,12.01,0,18,0,.78,1.77,3.24,1.01,4.91l2,.08-2.02-27.49c-3.61,1.23-1.01,3.52-.99,4.5ZM500.73,251.29l22.34-37.65c-11.63,14.23-22.91,30.06-30.98,46.51,3.15,1.57,4.36-4.92,6-7.04.67-.86,2.2-1.17,2.64-1.81ZM798.08,253.64v14c1.78.06,2.13.52,2.01-1.49-.31-4.91-1.79-11.14-2-16.02-.56-13.36,5.03-29.73-12.6-32.46l-2.17,1.42,2.77,12.54,1-9.99h5.98s0,3.01,0,3.01l-1.98-1.01,3.95,29.4,3.04.61ZM733.09,304.64c1.82-.38,1.86-1.97,2.03-3.46.5-4.48.14-11.35.01-16.08-.07-2.85-1.04-5.31-1.09-7.91-.34-19.17,1.28-38.65-1.46-57.55-.65-.01-1.31,3.67-1.3,4.51.25,12.92.5,26.22.89,38.99.42,13.75,3.47,27.83.91,41.51ZM381.07,279.64c-.35-13.96-5.1-27.41-6.13-41.35l-2.85-11.64,1.28,15.2,7.7,37.79ZM582.08,261.64c-1.19-9.43-2.81-21.59-6.04-30.45-.39-1.06-.47-2.4-1.95-2.54l-42,69c3.69-3.94,7.24-8.77,10.22-13.27,5.01-7.56,10.21-18.12,16.26-24.74,1.09-1.2,4.56-5.23,4.5-1.5-4.73,7.23-9.68,14.53-14.01,21.99-.55.94-1.93,2.72-.48,3.52,5.94-6.44,9.15-14.98,13.67-22.33,2.93-4.77,9.29-9.23,8.84-15.68l4.97,1.51-38.97,59.49c1.91.38,2.71-.4,4.06-1.43,5.11-3.9,17.33-24.63,22.54-31.45,3.73-4.89,7.9-10.69,12.91-14.06l-.5-7.04c2.89-.49,1.64.66,2.13,2.32.68,2.33.3,6.89,3.86,6.67ZM487.08,250.63c1.81.37,2.49-.87,3.44-2.05,2.69-3.36,6.1-9.76,7.55-13.94l-10.99,15.99ZM292.07,237.64l-1.97.48c1.69,4.64,1.27,10.61.99,15.52,3.72-.74,1.59-15.44.98-16ZM500.09,262.64c6.22-5.58,13.74-11.52,15.98-20-3.1,2.5-4.04,6.64-6.95,9.54-3.46,3.44-8.12,4.25-9.03,10.46ZM782.08,305.64l-16.98-54.99,3,49.99,2.02-1.51-2.08-22.94,1.03-8.54c1.34,11.43,1.04,22.72,4.02,33.99l1.98-3.99,3.01,6.99c-1.47-4.3-2.72-10-3.01-14.5-.13-2,.23-1.55,2-1.49.62,4.25.91,10.48,2.06,14.45.49,1.7.78,2.88,2.94,2.55ZM366.08,251.64l-1.98.48c3.5,17.12,5.04,34.53,8.3,51.71,1.19,6.29,3.36,21.46,5.6,26.4,1.9,4.18,5.55,2.7,4.85-.86s-2.29-7.64-2.02-11.98l-4.73-13.75c.04,6.32,3.01,12.55,3.88,18.6.15,1.04.93,4.57-.88,4.38l-13.02-75ZM307.08,259.65c-9.59-1.71-8.18,3.6-8.75,11.23-.4,5.33.2,11.42.77,16.77,1.29,1.61,1.82-.11,2-1.49.78-6.14-.89-13.15,1.05-19.46l7.96-.05v-5s-7,1.01-7,1.01l2,1.49c-2.9,2.27-4.5-1.37-2.03-3.02,1.41-.94,4.15.45,4.01-1.47ZM322.07,366.64c-.54-7.77-.48-15.72-1-23.49-1.47-21.73-1.3-41.44-1.94-63.06-.2-6.75-1.25-13.68-1.54-20.45l-1.5,19.48-2.01.02,3.02,2c.29,2.01-1.05,4.04-1.03,5.99.18,14.4-1.56,66.11,3.51,76.5.57,1.16.99,2.75,2.49,3ZM327.9,261.83l-4.82-1.18c-1.04,2.44,1.63,4.47,1.81,5.69s-3.13,4.76-1.83,7.3h4.02s-1.02,12-1.02,12l-2.49-5.99c-2.18,5.68-3.45,13.51,5.57,10.56,2.61-1.81-.96-24.02-1.24-28.37ZM555.09,293.64l22-28.49-.51-3.49-7.91,10.07-13.58,21.91ZM568.09,284.64c3.13-.94,3.44-4.54,4.99-6.5,3.03-3.83,8.83-6.67,5.99-12.5-3.51,4.4-6.76,10.03-9.52,14.97-.72,1.29-2.03,1.99-1.46,4.03ZM489.08,266.65c-1.68-1.73-6.11,7.46-7.41,8.08l-9.58,16.91,6.01-5.75,10.98-19.25ZM469.08,272.65c-1.17-1.19-5.64,4.16-6.42,5.07-4.3,5.05-8.82,12.9-11.57,18.92l5.5-6,.5,1.99c1.3,1.23,11.44-18.22,11.99-19.99ZM667.08,300.64v-28c-1.76-.22-.95,2.26-1,3.49-.21,5.36.1,10.72-.69,16.01l1.7,8.5ZM563.08,306.64c1.93.42,2.39-.98,3.4-2.09,6.41-7.06,10.14-16.53,16.09-23.96,1.63-2.61-.94-4.52-1.51-6.94-1.71.48-1,3.35-2.12,5.36-4.92,8.81-14.38,16.77-15.86,27.63ZM244.08,278.64h-1v43h1v-43ZM307.09,288.64l-1.52-9.99c-3.07,9.15-1.9,11.1,7.5,10.99l-2-10.99c-3.72,2.5,1.11,8.06-3.98,9.99ZM341.08,381.64v-21l-3.99-1-1.01,5.49,1.01-20.49.99,3c4.66.67,4.36-16.35.3-14.27-2.37,1.33-3.29,3.71-2.31,6.26l-1.79-.74-.78,1.77-2.42-1.04.98,26.99c-2.95-1.7-.38-6.81-.97-9.46l-2.02-10.54v18.5c0,.52,1.24,2.25,1.16,3.33l3.84.16c-1.84-2.77-1.47-29,1.5-27.99l-1.12,19.66.63,9.33,2.98-3,.99,7.98c-16.93,3.64-23.75-3.02-25.02-19.44l-.97-59.53c-1.23-1.62-1.81.02-2,1.48-1.23,9.6-.26,25.81-.04,36.06.05,2.36,1,4.55,1.08,6.92.42,12.4-4.06,36.43,11.14,40.85,1.17.34,5.68,1.87,5.81-.3l-8.99-3.03c-.48-4.51,3.61.1,5.6.91,2.25.91,4.73,1.14,6.72,2.1.65.31.59,2.06,1.24,2.07,1.94.02,4.64-2.68,7.44-1.06ZM767.07,300.65c-1.71-.04-2.16-.57-1.91,1.4.52,4.18,1.38,8.63,2.34,12.72.24,1.01-1.82,2.31,1.58,1.87.34-5.68.08-10.68-2.01-15.99ZM676.08,304.64h16.5c.74,0,2.93-1.63,4.49-1.01l-3.54-1.02-17.45,2.03ZM721.08,305.63c-.37-1.8-1.96-1.87-3.46-2.03-5.46-.58-11.96-.44-17.54-.95l1.01,2.99c6.4-2.41,13.42-.38,19.98-.01ZM510.09,310.63c4.66.65,8.67,2.07,11.97-2.49-1.2-1.81-2.64-1.42-4.43-1.55-3.1-.22-15.07-1.37-16.89-.79-.76.24-1.16.78-1.65,1.35.46,3.65,2.39,1.52,4.47,1.48,3.17-.07,6.36.03,9.52.01l-2.99,1.98ZM684.58,310.64c-5.5-.02-11.01.01-16.5,0l15.49,2c-.98,3.03,1.34,2.94,2.01-.01l1.15,2.06,14.34-.04c-.76,2.93-8.11-.81-6.99,2.98,2.4,1.94,17.16-1.9,20.75-1.79,3.83.12,7.77,2.1,12.24.8.16,2.38.32,1.76-1.49,1.99-3.11.39-7.52,1-10.5,0-.62,4.26,6.16,1.06,7.98,1l-4.99,3.01c3.95,5.88,10.36-4.87,15.53-5.98l.45-3.04c-1.81,1.06-3.31-.12-3.99-1.99l3.99-2.01c-4.95,2.41-4.23-2.78-10.6-2.9-7.68-.16-17.12.75-24.85.94-5.17.13-10.38-.18-15.54-.03l6.99.99c.42,4.4-4.33,2-5.49,2ZM740.06,313.65c-3.47-.82-1.33,3.9-3.21,5.77-1.34,1.34-7.78,1.94-8.77,5.21,4.82,1.19,12.96-7.77,14.05.47l-5.04,4.52c3.21,1.11,6.45,1.74,8.76-1.45l-5.78-14.53ZM650.09,334.65c-3.7.39-9.51-3.97-11.9-6.61-3.38-3.75-3.34-8.35-7.1-11.39-.93,5.2,7.53,16.82,11.44,19.05,1.77,1.01,8.4,2.59,7.56-1.05ZM778.08,331.64l-2.49-10.99c-3.35,3.02-1.2,7.14-1.49,11h3.98ZM346.08,441.14c.9-9.02-.66-19.33,0-28.5l1.98.48-2.02,33.98,1.03,25.54-1.98-10.5c.05-3.56-.02-7.13-.39-10.64-.15-1.41,1.64-2.17-1.62-1.85v36.5c0,3.41-4.96,5.1-7.4,7.6-1.46,1.5-4.2,4.77-4.59,6.9,5.62-4.83,14.06-13.02,21.09-15.42.87-.3,12.65-2.67,13.34-2.64.56.03.46,1.85,1.23,2.05,4.81,1.19,10.18-.82,16.6,1.24,17.3,5.55,22.32,14.06,33.04,26.47,1.22,1.41,4.3,2.53,5.68,4.82,1.58,2.61-3.39-.64-1.98,1.97.95,1.77,3,3.69,4.16,5.85,13.33,24.8,22.33,55.11,27.84,82.67l5.99-1.01c-1.63-5.61,1.9-12.76-2.01-17.51l2.07-1.11c.25-1.3-.7-2.78-.71-4.05s.83-2.82.7-3.65c-.1-.65-2.31-1.3-3.29-2.92-4.33-7.18-6.29-15.67-9.78-23.24.71-1.38,1.96,1.3,2.2,1.8,2.99,6.05,5.09,15.07,8.56,20.4.63.96-.11,1.8,2.24,1.29.39-12.47-.49-25.06-.04-37.54,1.38-37.62,2.81-75.18,2.08-113-.15-7.8-2.91-20.55-1.49-27.92.37-1.9,3.18-4.66,2-6.53-15.98-12.61-30.66-26.75-46.09-39.98-4.29-3.68-18.39-12.88-20.02-17-.49-1.25-.45-2.71-.46-4.03-2.5,2.09-15.4,1.91-16.04,2.41-1.56,1.23-.37,7.72-4.46.61-1.01.57-1.04,2.41-1.99,2.79-3.76,1.51-18.26-.22-23.52,1.74l-.99-2.54c8.37-3.59,17.44-.23,25.58-3.95.63-.86-.36-7.85-.61-9.55s.53-1.68-1.97-1.52c-.29,12.73-14.38,9.69-23.37,11.15l-1.41,1.48-2.23,113.88c1.77.74,2.9-5.96,3-7ZM341.08,326.65c-4.07-.16-8.22.46-12.18,1.32-1.1.24-4.72.26-3.81,2.16,1.42,2.02,3.19,1.62,5.24,1.31,2.33-.35,11.24-1.85,10.74-4.79ZM471.08,328.64h30.5c.17,0,1.57-1.35,1.5-1.99l-16.55-.06-15.45,2.05ZM600.08,331.65c-11.13.19-22.29-1.42-33.51-2.09-10.43-.62-28.17-2.73-37.71-1.64-1.99.23-4.76,1.58-6.78,2.22,0,.93,16.47.43,18.5.51,12.15.53,23.91,1.85,35.98,1.94,6.65.05,13.41.32,20.05.05,1.22-.05,3.72.76,3.48-.99ZM307.08,331.65c-1.2-1.1-28.61,2.43-32.4,3.11-1.78.32-4.28.34-3.59,2.88l34.32-1.95,1.67-4.04ZM425.06,335.62c-2.79-2.7-6.03-.94-9.21-1.26-5.76-.57-12.43-1.93-18.26-2.74l-.51,2c1.24-.03,2.5.19,3.51.96,18.78,14.38,34.47,31.33,50.96,48.07,6.33,6.43,23.8,20.41,27.08,28.01.8,1.85-.53,3.15-.3,4.34.15.79,7.14,13.59,7.71,14.16,6.78,6.82,27.66,9.71,37.05,8.46-1.6-5.93-2.59-13.55-4.27-19.24-5.23-17.7-52.17-44.81-67.85-57.18-1.05-.83-2.52.03-1.88-2.58,10.63,7.08,21.95,13.73,32.3,21.18,10.91,7.86,33.25,23.69,38.56,35.44,1.8,3.97,2.53,8.1,3.14,12.37l1.98-6.99c.81,5.46,3.7,10.37,2.02,15.99,2.94.5,1.61-.71,2.11-2.32,2.43-7.78,1.78-17.29-1.61-24.68-1.11-2.41-3.38-3.46-3.5-5.99,4.63,2.74,6.9,9.62,7.89,14.66.41,2.1,1.77,14.35,1.58,15.5-.39,2.35-2.55,1.08-2.47,2.83l67.51-5.98c39.49-.14,79.62-5.49,118.99-6,6.44-.08,3.5.75,5.93,1.08,4.65.63,10.73-.63,15.58-.08.43-11.3.05-22.1-3-33,4.44,4.8,4.35,13.7,5,19.99l1.98-9.99,4.63,22.06,150.24-5.7c1.28-4.63-.96-21.68-4.34-25.39l-27.03-21.97-.99,1.99c-5.96-6.89-15.67-13.55-23.59-18.44-.83-.51-2.24.17-2.94-.18-2.31-1.15-5.4-5.39-9.08-6.88-1.6-.65-3.22.4-3.95-.01-.85-.49-1.21-2.74-3.2-3.74-4.11-2.08-12.61,0-13.78-5.74-2.9,4.91-7.61,2.89-12.27,3.24-1.67.12-3.18,2.36-5.71.75l1.48-2c-4.29,2.76-6.48.92-9.95,1.12-38.13,2.15-82.55,2.31-120.68.31-8.28-.43-17.35-2.53-25.86-2.4l14.65,7.83,3.83,3.17c-6.22-2.05-12.47-5.6-18.22-8.74-2.83-1.55-8.78-3.84-12.77-4.27-5.93-.64-9.89,1.35-15.5,2l.49,3c-3.31-1.89-7.17-2.68-11.01-2.99-40.39-3.33-84.56-2.37-124.94-2.97-15.59-.23-32.01.24-47.12-3l-.44,1.94ZM741.08,335.65c-6.89.42-13.65-.78-20.48-1.09s-14.1-.76-20.98-.96c-9.82-.28-19.72.29-29.54.05-.91.69-.62,1.97,1.4,1.86,11.05-.6,22.9-.12,34.08.15,1.89.05,3.84.97,5.97,1.03,8.38.22,17.7.3,26.05-.04,1.22-.05,3.72.75,3.48-.99ZM318.3,386.32c-.31-.2-4.43-4.83-4.88-5.52-6.98-10.71-6.17-29.83-6.35-42.16l-44,4.99-1.85,231.37,5.85,2.63c.55-2.89-3.15-2.89-3.98-4.51-1.72-3.34,6.98,1.63,8.04,1.97,4.17,1.32,8.58,1.91,12.74,3.26,2.51.81,13.95,6.49,15.21,5.29-.67-7.93,6.26-18.17,0-23.99,6.82-.34,5.35-8.16,6.65-12.86,4.95-17.94,13.16-33.88,24.13-48.87,3.03-4.15,5.96-7.82,10.22-10.78-2.38-.56-7.73.76-8.06-3l4.05-11.49-.98,10.99c2.41-.9,3.06-.43,4.99,1.01-.75-23.19.96-46.41,1-69.53,0-5.61-.8-2.64-1.08-4.9-.58-4.72.61-10.67.08-15.57-3.42,1.48-.8,5.97-.95,8.45-.48,8.26-2.4,16.7.04,25.04l-1.58,41.49-2.51-1.57c.22-1,.91-2.1.91-3.08.06-16.8-.06-33.94.04-50.86.03-4.53,2.13-10.73.91-14.87-.58-1.96-2.65-.57-2.77-.74-.37-.56.37-2.15-.7-2.97-1.37-1.05-6.32-1.31-7.16-2.15-.73-.73-.22-2.99-1.74-3.75l-1.49,3.99c1.46-8.46-2.58-5.87-4.79-7.32ZM438.08,370.63l-17.99-17.5-17.01-12.48c10.27,9.35,20.82,18.99,31.5,27.99,1.12.95,1.63,2.42,3.5,1.99ZM234.08,358.65h-6.48s-49.51,5.98-49.51,5.98l24.49-1,31.5-4.98ZM234.06,363.61l-.46-2.95c-5.88,1.21-12.1,2.28-18.06,2.94-45.57,5.07-91.16,5.02-136.94,8.05-9.94.66-20.05,2.44-30.02,2.98-4.65.25-9.35-.18-14,.01-1.22.05-3.72-.76-3.48.99,16.19.09,32.39-.03,48.48-1,19.61-1.19,41.09-6.04,60.03-2.99l.9-1.93c21.96.69,49.27,2.82,70.84-2.14.84-.19.71-1.87,1.34-1.92,1.59-.12,3.98.98,6.73.56,4.86-.75,9.74-2.11,14.66-2.61ZM228.08,389.14c.79-4.86-.57-11.42,0-16.5h1v21l4,1,1-27.99-5.5,3.99-.97-2c-7.22,1.95-6.24,10.05-5.44,16.42.12.96,1.71,6.34,1.99,6.53,1.75,1.13,3.64-.64,3.93-2.44ZM62.09,380.64c32.26.44,64.29-2.21,96.54-1.95,16.93-2.46,36.06-.01,52.98-2.03,4.16-.5,6.58-2.91,7.47-7.02l-156.99,10.99ZM218.09,378.64c-34.14,1.64-68.34,2.15-102.55,2.96-26.79.63-54.19-.07-81.03,1.04-9.43.39-19.86.76-28.28,5.14-1.21,1.9.86,6.3,2.43,7.88,1.59-.58,3.14-1.04,4.87-1.07,62.29-1.1,124.85,3.49,187.08.09,3.2-.17,15.16-1.42,16.99-3.02,2.47-2.17-.49-9.63.48-13.02ZM24.08,379.65c-4.9,1.19-10.5.41-15.26,1.27-1.73.31-3.3.43-2.73,2.72,5.4-.51,9.96-1.6,15.5-2.01,1.98-.15,2.91.84,2.49-1.98ZM472.08,427.64c-.16-.15-1.47.44-2.09-.59-3.6-5.91.43-16.81-3.9-21.92l1.99-.99-5.5-7.49-1.56,2.49.06,186.5c7.3-.08,13.61-2.27,21-1.01-.5-1.91-4.6-1.56-5.72-3.27-.81-1.25-1.71-8.52-1.31-10.02.31-1.14,2.32-.58,2.86-2.98.28-1.25-.84-6.3-.84-8.15-.07-22.33,1.12-44.42.02-66.56l2.5,13.66c-1.64,22.19.34,43.57,1.05,64.83.14,4.23,1.33,9.43,5.93,11.01,6.88,2.37,21.4.6,29.07,3.51,3.2-1.62,5.09.75,6.99.96,5.27.58,8.59-4.35,13.44-1.98l1-36.99-1.99,6.49v17.5c-2.36.14-1.76.33-2-1.48-.63-4.78.88-8.68,1.04-12.98.15-3.94-.2-7.85-.34-11.77-.04-1.03-1.34-1.4.8-2.75,3.53,2.15,4.73,3.71,3.5,7.98l6,.02c-.75,2.44-6.97.01-5.99,3.98,1.61,1.3,12.95-1.05,15.55-1.04,2.96.01,9.16,3.81,13.44,2.06l-11.5,1.98c-2.72.17-17.46.62-17.47,2.51,5.8,3.63,14.15-.17,20.98,1.51l-11.26,1.22-7.73,2.78c-.59,4.19,3.29.33,5.55.03,2.75-.36,5.68.12,8.45-.04l-.47,1.98-3.85-.94-6.66,1.94c11.25.31,22.5-.41,33.48-3.01,2.25.55-6.97,3.44-2.02,3.01,8.37-.73,17.25-3.46,25.52-4.99.52,3.09-.84,1.56-2.44,2-10.64,2.94-22.07,3.82-32.97,5.08-2.05.24-4.75,2.04-6.01,1.98-.39-.02-1.96-3.95-6.56-2.04l4.99,1.98-19,1.02,1.61,4.92,3.38-.96-.99-1.96c10.75-3.33,22.39-1.9,33.38-4.03l1.61,2.01.57-2.05c8.5,2.9,17.74-1.84,26.45-1.95l-.48-1.98-3.51-1.01,5.99-.5-4.51-.52-.48-1.98,12-1c.33.25-2.86,4.43.48,3.98,6.27-.84,13.73-5,20.52-3.98l-20.65,5.85c-2.72.65-2.32,1.12.16,1.16,5.82.1,13.15-2.17,19.13-2.89,8.04-.96,16.28-1.22,24.36-2.13l-39.99,7c2.38,3.82,7.77.25,10.63.04,6.72-.5,7.56-.55,14.18-1.74,12.3-2.22,24.72-4.19,37.18-5.32l-12.99-1.98c35.49-1.38,70.59-7.5,105.99-10.02l-9.49-.98-125.51,12-1.05-29.34,4.12-2.33c.16-11.98-1.94-24.64,2.94-35.82.01-1.44-13.73.37-3.46-3.44,1.49-3.79-.16-7.93-.28-11.61-.1-3.06,1.91-7.39-1.29-7.97-.53-2.3,1.71-.99,2.03-2.14.99-3.55-1.31-5.37-2.02-8.35l3.07-.55c.37-6.29-2.14-11.34,2.51-16.38,9.01-9.78,39.53-5.18,52.86-7.13,3.47-.51,9.27-4.45,11.17-4.67,2.86-.33,11.81.28,15.91.23,21.48-.22,43.57.26,64.99-.44,3.28-.11,7.19-2.22,9.77-1.86,3.79.52,13.28,4.22,16.23,6.79,5.59,4.86.83,5.68.54,6.72-1.67,5.97.72,7.68.89,10.87.52,9.45-2.77,18.79,2.07,27.41l-172.01,13.02v3.99s165.51-10.01,165.51-10.01c.86.03,1.48.29,2.01.99,2.29,3.05.62,20.5.92,25.02,3.41,3.08,7.6,2.1,11.56,1l.55,3.07,11.45-.06-12.99,2.98c14.5-1.27,29.15-2.9,43.62-2.64,3.33.06,6.41,1.54,9.99-.33l3.38,2.97,1.51-5.99,1.39,3.54,5.7-.29c1.76,4.14,3.5,1.14,6.4,3.75l1-78c-1.74-.23-.94,2.27-.99,3.48-.21,5.24.88,13.41-.01,18-.43,2.21-2.51,2.8-2.97,5.03-.58,2.85-.18,6,1.85,8.15-.98,5.12-4.65.26-6.17.51-8.16,1.35-13.16,1.07-21.14,1.87-6.81.68-7.6,2.53-16.13,2.06-.46-.03-.32,1.71-1.09,1.88-.72.16-10.94.8-11.72.72-.52-.06-7.45-3.03-7.7-3.37-4.33-5.62-2.01-18.33-1.88-24.81.08-3.81-.81-22.06,1.07-23.5l29.43-1,3.46-2.03-8.5.99h-19c-.74,0-2.85,1.75-4.5.99-.38-2.13.96-2.39,2.5-2.99,3.65-1.4,13.53-1.86,17.94-2.03,5.34-.21,33.9-.7,36.56,1.5l-.05,45,2.03,1.52,2.02-48.51c-.39-3.08-5.72-3.28-8.48-3.52-28.44-2.47-66.65.46-96.1,1-66.09,1.2-132.59,3.67-197.78,11.4-12.05,1.43-24.01,3.54-36.17,4.43-9.25.68-20.67,2.59-28.98-1.85-1.81,4.31-9.9-.03-13.29-.67-10.92-2.04-21.75-3.34-32.22-7.27l1.79,8.5-1.79,16.49v-18h-1v20.5c0,.36,1.3,4.36-1,3l.76-29.88c-4.3-3.32-4.82-2.43-6.76-7.62,1.61,1.46,1.83,2.92,2.98,2.99-.6-3.52,3.93-1.69,4.02-2.51-1.09-7.43-4.41-15.48-10-20.48-.58,1.8,1.77,3.19,1.65,4.47-.08.81-1.48,1.46-1.46,3.71.02,2.7,1.78,9.07,2.81,11.82ZM230.08,405.65l-145.99-5c-.42,2.8.47,1.87,2.47,2,45.16,3.01,91.84,3.05,137.06,3.95,2.36.05,7.29,2.75,6.45-.95ZM233.95,410.77l-189.93-5.69c-2.9,2.06-1.77,36.2-1.9,42.12-.29,13.61-1.32,27.43-1.49,40.93-.04,3.5.78,7.67.62,11.35l15.83,7.15c-.42-20.59.59-39.56,7.52-58.98,1.48-4.14,2.84-7.57,4.21-11.7.37-1.1,4.08-7.37,4.86-8.24,4.1-4.54,11.25-3.53,16.8-2.95,17.49,1.81,36.08,7.38,53.61,9.89.28,1.68-2.58.99-2.9,2.54-.18.89,1.01,2.61.91,3.94-.15,2.02-.96,3.83-1.05,5.96-1.29,31.4.44,63.19-.95,94.52l94.99,35.02,1.01-79.49-2.01,1.99-.13-88.37ZM37.08,410.65l-16.06,5.6c.28,9.3-.17,18.63.03,27.94.14,6.38,1.88,14.19,1.79,20.18-.03,1.67-2.11,2.79-1.76,3.25l14.48,4.03c2.51-16.14-3.03-31.98-.48-48.02l1.98,1.01v-14ZM898.07,439.65c.76-4.79,1.61-9.37-.49-14l-2.52,2.49c3.57.97,2.31,7.88,1.03,11.03l1.98.49ZM82.08,433.64l.5-3.99c-2.91,2.16-8.17,2.37-8.5,6.99l59.55,12c1.6,2.18-1.65,3.86-1.39,5.3.15.82,1.6,1.73,1.77,3.27.21,1.9.29,8.79-1.93,9.43l-1-6.99c-.02,4.16,0,8.35,0,12.53,0,4.4,1.4,7.69,1.83,13.12.57,7.23-.92,14.1-.85,20.86.09,9.2,2.53,19.08.03,28.02,2.99,2.35,3.83-8.27,4.02-10.98,1.18-16.91-.34-35.86-.08-53.08.06-4.23,1.95-27.22,1.03-28.45l-2.99.5,2.99-3.5-7.98,3.99,3.99-4.98-7.48-2.03-.52,4.02c-2.53-1.86-4.71.73-6.67.79-1.36.04-2.46-1.62-3.86-1.75-4.54-.43-9.21.17-13.79-1.24l-.66-2.8c-6.23,2.47-11.74-.7-18-1.02ZM106.08,445.65l-31.99-5.01c-.47,2.85.59,1.67,2.31,2.13,5.3,1.43,16.69,3.19,22.31,3.73,1.6.15,6.7,1.08,7.37-.86ZM838.08,458.14v17.5c-3.52-1.7-1.54-6.9-2.01-9.99l-1.98,2.99c-.52-5.7,1.26-11.93.56-17.52-.15-1.18.25-2.16-1.57-2.47v30.5c0,4.67,17.48-.44,21,.49.26-1.67-2.41-1.07-3.53-1.04-.78.02-14.78,2.36-10.46-.95l38.02-3.48c3.39-10.61,2.18-21.81,3.99-32.52l1.35,2.75,1.63,16.24-.57-20.05-5.42.06v19.99s-2.63-10.5-2.63-10.5l1.64-2.49c-1-.83-13.69.98-16.04,1.46-.62.13-2.99.62-1.45,1.53,3.78.59,7.31-.76,10.97-1.04,1.06-.08,3.8-.63,3.53,1.03-12.64,1.14-25.73,1.01-37,7.51ZM877.07,444.66c-5.54-.67-13.62.22-19.37,1.11-3.84.6-10.14.88-12.62,3.87,8.37-1.48,16.94-1.99,25.37-3.11,1.51-.2,6.04-.49,6.62-1.86ZM117.85,529.4c-1.2-14.65-.05-29.75-1.15-44.43-.32-4.23-2.6-25-4.16-27.29-1.32-1.95-16.66-4.5-20.47-5.53-4.13-1.12-16.68-6.69-19.99-5.05-12.34,16.04-13.7,40.01-11.99,59.54,1.81-.37,1.87-1.97,2.03-3.46,1.09-10.14-.13-39.09,8.04-44.96,3.8-2.73,17.57.12,22.12,1.72,2.54.89,11.26,6.11,12.83,8.17,3.6,4.74,1.77,12.39,8,15.23l.98,50.3,2.98-1.01,1,3.01-1.98-3.99,1.76-2.25ZM806.79,452.98c-19.67-.31-39.51,2.7-59.13,3.67-13.17.65-26.44-.23-39.58,1l-.04,3.36c.42,1.81,6.9,1.69,8.57,1.69,25.89.02,56.08-3.46,81.98-6.04,3.72-.37,7.73.24,11.48-.02l-3.29-3.66ZM128.08,516.64v16c2.01-.4,1.59-1.77,1.78-3.16.88-6.45.47-15.39-.67-21.76l1.9-.58-1.95-.92,1.89-5.15-1.84-.85.88-14.58-1.98,1.02c-.28-1.55.87-3.08.81-4.5-.23-5.29-.04-15.71-.85-19.97-.46-2.4-3.28-4.4-3.06-7.43-.71-.62-8.36-.33-7.98,2.37,3.79,23.68,3.7,48.02,3.13,72.06-.04,1.6-1.12,4.31-1,4.91.49,2.42,4.82,1.86,2.95-1.44l4.13-.59,1.88-15.42ZM683.58,462.64h23.5v-5c-6.39,1.69-17.62-.49-23.33.96-1.24.32-2.04,3.58-.17,4.04ZM681.08,462.64l-1.57-3.89c-5.18,3.1-21.68-2.97-19.92,4.9l21.49-1.01ZM810.07,481.64c.52-.48.51-10.51.42-12.13-.19-3.09.28-7.55-1.9-9.85-3.46.06.78,17.99-.5,20.5l1.99,1.48ZM78.07,531.64c-.86-5.89.83-11.9,1.05-17.45.33-8.52-1.61-19.44,3.11-27.9,1.08-1.93,5.29-3.73,2.35-5.63-9.94,12.11-8.12,32.49-7.5,47.49.05,1.22-.76,3.72.99,3.48ZM384.69,490.06c-39.44-15.36-65.53,21.58-74.55,55.14-3.42,12.72-6.62,32.77-7.1,45.9-.12,3.22-.86,10.19,2.55,11.53,2.26.42,1.37-.99,1.48-2.47.38-4.88-1.09-9.15-1.05-14.04.2-22.86,7.94-61.82,25.02-78,6.65-6.3,22.22-14.35,31.45-13.47,2.63.25,4.28,2.61,6.59,3.5,11.12,4.29,22.68,7.32,32.52,14.51l.98-2c6.81,4.91,11.62,12.04,15.68,19.33,3.72,6.68,8.45,16.6,11.31,23.69,5.09,12.61,7.69,26.32,13.52,38.51l-1.92,1.85c3.93,4.77,3.18,14.48,8.91,16.63,1.94-2.62-9.75-41.85-11.7-47.79-9.62-29.2-23.38-60.99-53.67-72.8ZM99.07,502.64c-1.02-4.11-4.43-12.43-9.69-10.28-1.38.56-5.51,3.95-3.81,5.27,6.12-7.34,9.54.25,13.49,5ZM810.08,516.64v-19.5l-2.49-1.51c-1.41.18.49,1.28.49,1.51v19.5h2ZM800.08,505.65c-2.65-.45-1.76.43-2.28,2.16-.79,2.61-1.48,6.14-.71,8.83l-74.55,7.97c-1.5.16-3.09.23-3.46,2.03l78.34-8.15c2.85-.95.49-3.23.86-5.12.44-2.26,2.82-4.62,1.8-7.72ZM642.08,535.64v25c2.19.54,4.16,1.15,6.5,1.09,18.47-.46,37.57-3.47,56.01-5.08,30.56-2.67,61.69-7.29,92.02-7.96,3.11-.07,13.89-1.37,16.74-2.1.29-.07,1.92-2.54,3.79-2.54l.93-20.41-176,11.99ZM95.08,554.64l-3.5-8.99-4.48-20c.37,8.76,1.63,19.08,5.55,26.98.7,1.42-.24,2.52,2.44,2ZM848.08,527.63c-.46-1.86-1.59-1.84-3.19-1.78-4.54.17-14.53,1.87-19.3,2.8-1.45.28-3.1-.02-3.51,1.98l26-3ZM882.08,527.65l-38.48,5.01.11-1.92c-6.21,1.69-13.37,1.67-19.44,3.63-1.68.54-2.64-.44-2.17,2.27,5.4-.61,12.37-3.97,17.54-4.03,2.44-.03,4.61,1.22,6.9,1.07,10.61-.71,23.62-2.12,34.04-4.07,1.63-.3,1.73.65,1.5-1.96ZM94.07,567.64c.29-4.56-3.31-7.23-5.02-11.47-1.88-4.66-3.4-10.55-4.52-15.48-.62-2.75.23-7.67-2.44-9.05.61,12.39,4.38,26.18,11.98,36ZM882.08,532.65l-10.03,1.46-23.96,6.52,34-5v-2.99ZM89.07,567.64l-7.27-18.22-3.71-14.78c-.17,11.19,4.43,24.08,10.98,32.99ZM116.08,560.14c.61-5.49-.45-11.89,0-17.5l-4.02,28.49c1.03,1.59,1.27-.79,1.49-1.5.71-2.3,2.3-7.43,2.53-9.49ZM398.07,557.64c-.7-6.66-8.9-12.56-14.99-13.99l14.99,13.99ZM915.08,543.65l-28.99,2,6.99,1.98c-2.53-.62-5.29.84-7.49.8-2.73-.04-7.23-3.05-8.5.19,5.21,1.13,14.27,1.99,17.68-1.97l20.31-3.01ZM424.09,630.64c2.96-1.12.96-7.44.53-10.04-2.36-14.3-8.42-27.67-11.11-41.89-5.16-6.13-9.99-13.66-16.51-18.49-5.64-4.17-5.55-2.86-10.47-8.53-5.28-6.08-8.95-5.42-16.44-6.05,5.2,3.94,11.47,5.41,16.49,10,4.04,3.69,13.98,14.07,16.69,18.31,1.62,2.54,3.15,4.88,4.68,7.28,5.09,7.93,5.13,30.48,7.43,40.61,1.45,6.37,4.94,12.2,5.72,18.79,1.87-.23,1.05-5.15.88-6.39-.47-3.28-2.14-6.4-2.66-9.34-.6-3.44.49-6.99-1.24-10.25,2.77-.49,1.69.56,2.26,2.18,1.48,4.23,3.05,9.38,3.75,13.81ZM430.07,611.64c-2.64-13.65-4.72-26.66-11.47-39.02-4.75-8.7-13.45-22.14-22.52-25.97,3.22,6,12.21,11.96,14.91,17.67,1.42,3,.49,11.1,5.08,13.32v-5.99c2.1,10.4,7.18,20.2,10.53,29.97,1.06,3.1-.08,8.18,3.47,10.02ZM914.08,546.65c-5.91-1.13-11.42,1.85-16.77,2.72-31.82,5.13-63.68,8.92-95.43,14.57-7.51,1.34-16.06,3.36-23.33,5.69l-.47-1.98-1.54,2.05-7.44-2.05,78.91-14.59,1.57-2.43c-25.54,3.92-51.29,6.5-76.87,10.13-64.1,9.09-127.5,17.68-192.1,24.9-25.56,2.86-57.88,10.45-83.01,8.97-9-.53-23.51-5.85-31.01-3.96-1.48.37-1.77-.72-1.49,1.96,32.58,14.3,69.07,9.57,103.49,6.01,20.85-2.16,42.27-4.09,62.85-6.36,19.25-2.12,39.2-7.82,58.65-9.62l-3.94,1.1-.63,2.96-14.91,1.95,2.48-2c-3.33-1.47-4.16,1.86-4.67,1.97-6.37,1.43-16.03,1.03-22.7,2.13-10.14,1.67-19.88,5.09-30.13,5.88-1.11.08-3.73.73-3.48-.98l7.99-2-10.99.99,1.99,2.99h-7.99s4.49-.99,4.49-.99l.03-1.99c-1.34,1.29-3.37.6-4.79,1.05-6.54,2.07-8.99,1.09-16.22,1.94-21.29,2.52-42.45,6.2-63.84,8.16l-1.66,2.83c7.55,1.6,14.29-.31,21.69-.57,2.9-.1,7.33.53,9.8.37,19.88-1.35,39.8-4.99,59.5-7.78l-11.81,3.67-28.18,3.33,9.48.98c11.42-3.02,25.86-.15,35.51-7.49l-3.99-1.49c25.82.39,51.05-6.03,76.48-10.02l-.5,2.01,2.51.03c.74-3.18,2.15-1.21,4.31-1.69,9.43-2.09,18.91-3.91,28.42-5.6l10.77-3.72c-8.68,1.93-17.91,1.2-26.48,2-5.72.53-12.13,2.24-17.61,2.66-1.1.08-3.15,1.16-2.89-.65,4.1-1.38,8.34-2.21,12.62-2.89,11.54-1.83,24.15-2.31,35.64-4.36,10.19-1.82,15.27-5.1,26.19-5.72,2.71-.15,5.56-1.71,8.54-1.03l-18.99,5,4.57.09.98,1.96,51.23-11.79,3.22.72-94.99,21.02c-.25,1.74,2.3,1.02,3.38.88,6.79-.84,24.82-7.78,30.3-6.67,1.17.24,3.02,1.14,3.12,2.26.11,1.22-3.57,4.04-.41,3.42l125.6-26.92c-1.04-2.76-7.29-.03-8.58-.26-1.18-.21-.98-3.31-2.86-2.81l-56.16,11.98c-4.44-1.06,4.31-1.79,4.89-1.97.84-.25.63-1.69,1.2-1.75,22.18-2.34,44.01-10.82,66.79-11.42l29.73-7.76ZM357.08,549.65c-.63-.72-8.4,5.61-9.02,6.47-1.32,1.82-1.95,4.28-1.97,6.52,2.12-1.17,2.14-4.56,3.97-6.52,1.56-1.66,9.4-3.75,7.02-6.47ZM416.09,678.65c-.41-.73,2.14-13.99,2.1-16.54-.07-4.04-1.66-15.89-2.23-20.85-3-25.91-11.36-59.34-28.91-79.1-4.22-4.75-9.22-9.57-15.48-11.47l-9.49,2.96,10.27,2.21c7.91,3.87,23.6,23.84,28.11,31.89,3.75,6.68,5.27,15.46,8.6,22.4l-1.98-.93c-.88-1.59-1.19-.26-.95.84,2.35,10.77,5.46,19.58,6.94,31.08,3.41,26.6,3.71,48.55-6.2,73.78-1.09,2.79-3.59,4.7-3.79,7.7,2.14.39,2.74-1.43,3.56-2.93,4.78-8.83,9.9-30.44,11.34-40.67.35-2.5-.88-.69-1.9-.38ZM796.08,551.65l-119.45,15.92-1.16,3.12c-5.29.84-11.48,1.12-16.63,2.22-.97.21-3,.36-2.75,1.72l131.02-20.47,8.97-2.51ZM921.08,551.65l-33.99,4.99c8.56,1.11,16.43-1.73,24.62-2.87.99-.14,12.8.51,9.37-2.12ZM104.09,573.64c4.06-4.03,2.74-11.76,2.98-16.99-1.42.61-1.62,5.05-1.85,6.63-.51,3.39-.55,6.97-1.13,10.36ZM407.07,593.64c-2.35-7.2-2.1-17.53-8.98-21.99-.84,2.63,2.41,3.67,2.92,4.78,1.78,3.91,2.62,9.52,4.06,13.74.38,1.11.57,3.62,2.01,3.47ZM611.08,572.65c-11.21-.62-23.17,2.65-34.51,3.97-3.71.43-8.3-1.86-8.96.8l-24.53,3.2c19.06,1.58,37.81-4.25,56.99-3l-1-2.98c4.2-1.72,5.2,2.04,5.54,2.05,1.24.05,5.89-2.4,6.46-4.05ZM917.07,572.65l-21.99,5.99,21.33-2.97.66-3.01ZM288.94,583.87c-.82-.27-3.5,1.58-5.1.6-5.86-1.42-14.18-5.37-19.71-6.4-4.17-.78-2.79,2.76-1.8,5.34,11.57,3.46,23.22,13.43,34.27,17.23,2.5.86.85-1.03.75-1.77-.54-4.02-.55-8.04-1.48-12-1.82-1.62-4.63-1.04-6.32-1.43-.53-.12-.45-1.51-.61-1.56ZM817.08,577.65c-6.42.73-14.12,1.08-20.4,2.09-18.38,2.96-40.84,10.46-59.12,15.88-1.76.52-5.73,1.27-6.48,3.01l42.76-11.72,43.23-9.26ZM903.08,579.65c-6.23,1.43-15.87.93-21.52,2.22-16.48,3.75-38.13,7.92-55.26,12.69-1.59.44-7.52,2.24-8.22.1l2.99-1c-5.45-1.33-3.22,2.27-4.63,3.04-3.07,1.67-18.44,4.2-23.36,5.47-1.13.29-3.24-.05-3,1.47,27.06-3.55,53.83-9.09,80.42-15.11,2.14-.48,6.47-.81,6.93-.96.7-.23,4.02-3.54,8.09-4.43,4.56-.99,10.38-.81,15.1-1.88,1.06-.24,2.22.17,2.46-1.6ZM795.08,592.64c4.36-1.68,10.71-3.74,15.75-4.75,1.63-.33,5.7.02,6.14-.42.27-.26-.12-1.73.42-2.52.48-.71,2.09.26,1.68-1.31l-7.01.98-.47-1.97-34.97,9.04-12.55,4.93c10.34-2.32,20.46-2.45,31-3.99l-3,1.99,4.51-.97.49,1.98-3,.99,20.99-3-6.99-1.98c7.96-1.68,16.3-2.59,24.24-4.28.97-.21,3-.36,2.75-1.72-13.51,1.31-26.61,5.03-40,6.99ZM748.06,583.6l-64.98,13.05.54,2.67,64.98-13.05-.54-2.67ZM402.07,606.64c-1.46-7.48-4.34-16.8-9.98-21.99l9.98,21.99ZM347.08,587.65l-3.26,2.27-1.73,10.71c1.46-.22,2.28-3.44,2.76-4.73s2.52-7.95,2.23-8.26ZM162.08,593.66c-.96-.99-18.25-.3-20.51-.02-1.39.18-2.88.53-1.48,1.99,5.73,1.36,14.64,1.11,20.47,0,1.63-.31,1.75.65,1.52-1.96ZM180.08,593.65l-14.99-1,5.47,2.82,9.52-1.82ZM437.07,654.64c4.72-18.69,1.11-39.8-5.94-57.54-.65-1.62-1.1-3.88-3.03-4.45l9.86,36.62-.88,25.37ZM761.08,593.65c-8.25,1.08-15.64,5-23.77,6.72-14.4,3.04-30.27,3.87-44.73,7.22-1.74.4-2.99-.94-2.49,2.05,3.38-.98,6.96-.64,10.37-1.12,14.28-1.98,36.04-5.61,49.7-9.35,2.82-.77,3.28-2.53,3.51-2.54,1.54-.05,4.26,1.77,6.41.99l-3.99-1.98,4.99-2ZM348.8,627.37c2.38-3.01.17-6.27.49-9.94.57-6.64,4.82-12.62,6.79-18.79-7.86,7.19-8.34,19.54-10,29.49.04,1.04,2.64-.65,2.73-.76ZM650.08,602.63l-.48-1.97c-10.79,2.32-21.16,3.2-32.02,5.98-1.39.36-3.11-.02-3.5,1.99l36-6ZM366.07,613.64c-.25-6.09,3.86-6.23,7.98-8.49-3.25-9.62-12.28,3.85-13.96,8.01-.75,1.86.72,1.28,1.44,1.51,2.66.83,6.93,1.57,9.54.48l-5-1.51ZM748.08,601.65c-13.4,1.76-26.54,5.2-39.81,7.67-6.51,1.22-17.91,1.44-23.19,3.86-1.51.69-2.47-.15-1.99,2.46l49.5-8.53,15.48-5.46ZM341.08,646.64c-3.44-13.13,1.03-26.5,2.21-39.39.14-1.51,1.14-2.43-.71-3.6-.4-.16-1.97,4-2.22,4.77-5.44,16.56-5.21,39.4-.56,56,1.91,6.81,5.24,15.48,7.8,22.22.27.72.46,3.08,1.5,1.48l-12.01-43.48,3.99,1.99ZM690.08,603.65c-6.69-.3-12.94,2.03-18.97,4.51l-28.02,5.47,25.01-3.48,21.98-6.5ZM756.86,604.43l-66.23,11.58.48,2.77,66.23-11.58-.48-2.77ZM430.47,621.41c-.64-2.13-.44-5.62-1.71-7.95l-3.69-6.31,4.53,28.05-1.02,2.87,2.01,18.58c2.71-10.06,1.28-20.39.48-30.52-.11-1.45,1.07-2.93,1.05-3.93-.01-.62-1.59-.61-1.65-.79ZM646.08,607.65c-9.53-.39-18.5,4.17-28,5l1.01,2.99-7,2,16.99-3-1.99-1.98,18.99-5ZM517.08,613.65c-10.52.42-20.84-.23-30.99-3,1.75,3.68,19.26,7.17,21.01,5.98l-1.01-1.98c1.33-.92,9.42,2.65,11-1ZM379.98,612.74c-2.29-1.5-4.62,4.22-7.91,2.92,1.24,2.9,1.21,6.09,2.49,9,1.2,2.73,4.5,5.11,5.16,7.67.39,1.51.05,4.93.64,7.54,1.27,5.62,3.5,5.47,1.62,13.18s-9,8.88-10.89,16.59c5.37-.48,4.93-11.04,11.58-6.08,4.85,3.62-6.51,12.83-9.56,13.69-2.47.7-4.42-2.18-7.03-1.6,2.26,4.61,17.23,11.17,17.01,2.99l2.99,1c1.22-8.16.84-16.27,1-24.5.03-1.42,1.09-3.15,1.03-3.91-.05-.6-9.42-4.44.99-7.1-1.39-4.36-6.7-29.81-9.11-31.39ZM745.08,612.65l-64.43,9.07-14.56,3.91c6.11-.48,12.16-1.52,18.25-2.23,3.34-.39,3.94-2.19,8.13.25l52.61-10.99ZM443.08,645.64v-20.5c0-.48-2.32-8.02-2.76-9.25-.89-2.47-1.37-1.91-1.27.26.15,3.2,1.29,6.02,1.93,9.09l2.1,20.4ZM743.08,617.65c-15.54.49-30.72,4.11-46.02,6.47l-8.97,2.51,30.23-4.26,24.76-4.72ZM366.09,629.64l6.95-5.42c-2.63-3.13-5.47-6.18-9.96-5.57l3.01,10.99ZM361.08,620.65c-4.52.35-6.9,3.94-4.97,7.98,6.68.13,5.11-3.25,4.97-7.98ZM409.07,665.64c-1.67-13.75-3.46-27.48-6.49-41.01-.25-1.1-.01-3.23-1.49-2.98l5.27,35.22,2.71,8.77ZM511.08,623.64h-15.5c-1.58,0-5.36-2.32-7.5-1.99,2.04,3.42,8.66,3.85,12.45,4.03,2.87.13,8.97.72,10.55-2.04ZM617.08,622.65c-12.25-1.01-23.92,3.84-35.79,5.7-15.32,2.4-34.3,5.03-49.66,5.34-7.86.16-15.38-1.32-23.06-1.05-1.21.04-3.72-.75-3.48.99l9.99.02-6.49,1.99c5.98-.23,12.02.31,17.99-.01,18.32-.98,36.43-2.87,54.73-5.27l35.77-7.71ZM531.08,623.65l-18.99,2.98c3.77-.14,7.62.31,11.39-.1,1.81-.2,6.7-1.04,7.6-2.88ZM659.08,623.65c-9.38-.07-18.75,2.03-27.99,3.48l8.36.37,19.63-3.85ZM452.08,624.64v18c3.67.82,1.44-4.44,2.05-6.55l-2.05-11.45ZM395.07,652.64l-1.29-15.2-3.69-10.79,4.98,25.99ZM627.08,626.65h-9.99s4.99,1.98,4.99,1.98c-9.34,2.13-19.12,1.66-28.48,3.05-1.84.27-2.96-1.03-2.51,1.96l34.99-4.01-2.99-1.98,3.99-1ZM519.68,629.05c-3.54-1.51-6.29-.22-10.08-.37l-7.52,1.96,19.99,1c.1-.6-2.23-2.52-2.4-2.59ZM249.08,629.65c-3.44,1.09-7.08.59-10.51.99-1.49.17-3.05.8-1.48,2h7s-.49,2.02-.49,2.02c5-.5,9.46-.31,14.51-1.5.65-.15,3.01-.57,1.47-1.52l-14.49.99,3.99-2.99ZM620.08,632.65l-30.35,4.13-28.64,5.85c14.5-.65,28.68-4.91,43.18-6.3l15.81-3.67ZM347.78,642.41c.66-1.16.34-1.82.03-2.97-.07-.25-1.85-5.59-2.74-4.3-.3,9.27.59,18.59,2.3,27.7,2.11,11.2,6.42,24.05,14.19,32.81,4.37,4.93,8.49,8.64,15.51,8.98-.78-1.75-3.29-1.83-5.05-3.44-.65-.59-3.26-4.25-2.95-4.54,2.89.09,3.74,3.11,6.71,3.78,15.18,3.43,13.84-7.77,16.28-18.79-4.04,1.16-3.23,16.72-7.04,13.54-.85-.71-.4-2.84-1.94-2.54l-.5,4.99c-2.4-1.6-3.71-4.57-5.62-6.39-8.21-7.8-8.33-6.96-14.13-16.89-.92-1.58-1.46-4.3-3.77-3.7l6.99,14.5c-3.98.99-3.83-6.31-7.98-6.51l2.5,8.99c-6.76-7.65-7.37-17.83-9.79-27.21-.93-3.61-5.33-14.56-4.72-17.12.17-.72,1.58-.66,1.71-.9ZM363.82,635.91c-1.09-1.06-3.24-1.32-4.74-1.26l3.07,5.5-1.07,6.49c3.41.96,3.04-2.49,5.87-3.14.24-.33-2.62-7.08-3.14-7.59ZM371.08,640.64c3.55.33,8.26.56,7-4.48-.71-2.82-5.04,1.52-6.92.57l-.08,3.92ZM426.09,669.64c1.14-10.89,2.1-22.27-.51-33.01-1.85-.01.55,11.91.54,13.46-.02,1.65-.99,3.36-1.03,5.06-.39,14.69-1.03,27.65-5.02,41.98,1.14,1.37,1.74-1.44,1.92-2.08,2.32-8.26,2.71-17.08,5.87-25.14l-1.77-.27ZM775.09,651.64c1.5,1.71,7.16-8.71,7.64-9.86.4-.96,2.33-2.28-.15-3.13-.72-.25-8.56,11.78-7.49,12.99ZM554.08,639.65c-3.9-.92-7.14,1.41-10.61,1.87-8.06,1.08-15.79,1.56-23.87,3.13-1.45.28-3.1-.02-3.51,1.98,4.15.69,9.32,1.08,13.42-.07,4.18-1.17,5.32-4.87,10.91-2.99l13.66-3.92ZM444.07,675.64c.44-7.47,2.5-15.04,3.05-22.45.26-3.49.08-9.25-1.55-12.54l-2.54,26.45,1.03,8.54ZM264.58,648.64c5.13.62,11.24-.45,16.5,0-6.8-8.96-14.01-2.03-23-2.99.52,1.7,5.13,2.82,6.5,2.99ZM366.64,654.08c.8.76.96,2.29,2.51,2.07,2.73-1.04,3.45,3.37,5.95,2.06,3.42-1.79,3.18-8.26,2.97-11.57-3.29,1.97-8.41,1.91-8,7.01l-4.48-1.03c-1.61,1.05.52.95,1.05,1.45ZM451.07,678.64l3-21.99c-1.45-.26-1.29,1.89-1.51,2.97-.78,3.87-1.84,8.84-2.38,12.63-.18,1.24-.99,6.16.88,6.39ZM294.08,657.65c-3.5-.19-7.09.29-10.49,1.03-1.7.37-2.99-1.12-2.5,1.96,3.71-.49,7.85-.54,11.5-1,1.37-.17,3.18-.71,1.49-1.99ZM782.08,659.65c-5.46-1.73-8.04-1.04-11,3.98l11-3.98ZM787.08,664.64c-1.97-.11-3.91-1.14-6.5-1.08-1.38.03-19.36,2.64-15.5,6.08l24.99-1.98-11.99,2c.38,1.87,5.07,1.02,6.56.99,7.51-.15,15.02-1.92,22.43-3.01.2-1.88-2.1-.81-3.2-.7-5.74.54-12.36,2.25-16.79-2.29,3.58.2,7.52.21,10.97.98l1.02-3.97h-13.99c-.18.14,1.63,2.61,2,2.99ZM429.09,688.64c5.37-5.94,5.63-17.33,5.98-25-2,.56-2.18,3.25-2.54,4.95-1.39,6.58-1.33,13.55-3.44,20.05ZM394.09,689.64c2.33-.94,2.31-4.64,2.71-6.78.81-4.38,1.11-9.72,1.27-14.21l-3.98,20.99ZM790.08,676.64c-.59-2.25-2.69-1.91-4.44-2.05-4.22-.34-12.77.06-15.56,3.04,1.87.87,4.6-.99,5.5-.99h14.5ZM764.02,676.34l-24.1,4.35.28,1.57,24.1-4.35-.28-1.57ZM718.08,679.65l-20.44,3.05c-.99-1.41-.04-2.6-2.56-2.04,1.99,3.71-2.91,2.1-4,4.98,7.73.65,17.27-1.49,24.83-3.7,1.74-.51,2.6.34,2.16-2.28ZM775.8,680.98l-27.72,3.66c3.91-.03,6.4,2.46,10.5,2.46,7.05,0,16.04-3.48,23.49-2.44l-18.48,3-3.51,1.98,27.99-1.99c2.88-3.62-12.55-4.08-12.27-6.67ZM752.07,686.66c-2.72-.41-5.7-1.22-8.48-1.08-3.92.2-8.27,2.29-11.01,2.56-2.91.29-7.08-.73-10.88-.37-1,.1-4.71.4-4.61,1.87,3.25.16,6.19-.89,9.45-1.04,1.1-.05,4.72-.67,4.54,1.04l-16.99,3c11.49-1.04,24.26-2.26,35.48-4.57.97-.2,2.78.09,2.51-1.41ZM754.08,692.64c.29-.05,4.92-2.18,4.99-2.99-5.99-1.97-11.44,1.1-17.62,1.86-8.48,1.05-17.79.77-26.06,2.99-1.72.46-2.78-.71-2.31,2.13,3.26-.07,6.41-1.57,9.62-1.86,9.44-.84,22.22-.38,31.37-2.14-.06,0-.13.82-.82.92-8.28,1.14-16.8,1.92-25.18,2.09-3.37,2.58,7.45,2.05,8.48,1.98,13.77-.92,27.34-4.42,41.13-5.9,2.6-.28,3.71,2.52,5.05-1.08l13.33-1.99c-1.51.04-3.02-.83-4.49-.81-10.59.16-26.39,3.28-37.5,4.8ZM677.08,693.65c-1.04-1.16-11.16.26-12.99,1.48,2.24,2.17,8.33.89,11.5.5,1.41-.17,2.85-.46,1.49-1.98ZM771.87,695.89c-3.4-2.02-42.52,6.66-49.78,5.76l2.99,2.98c-2.88.47-5.53-1.08-8.36-.94-9.77.48-33.83,4.92-43.84,7.28-1.75.41-4.48-.05-3.8,2.66,17.22-1.33,34.29-3.94,51.42-6.07,14.44-1.8,29.44-4.75,44.09-5.91,5.7-.45,11.75.31,17.48-.02l-8.42-3.1c-1.07-.71-1.34-2.38-1.79-2.65ZM697.08,698.65c-5.58,0-11.87.3-17.38,1.11-1.12.17-4.66.36-4.61,1.87l10.37-.11,11.62-2.87ZM715.08,700.63c-.38-1.73-1.92-2.02-3.46-2.03-8.59-.09-24.64,4.55-34.16,5.93-5.48.79-11.9.99-17.48,1.75-1.08.15-3.16-.19-2.9,1.35h9.48s48.51-7,48.51-7ZM608.08,700.65c-2.76-.07-5.48-.11-8.24.25-1.55.2-6.16,1.01-6.75,2.73,4.33-.47,9.27-.49,13.51-.99,1.49-.17,3.06-.79,1.48-2ZM674.08,701.65l-22.99,2.48c3.98,3.69,9.59-1.25,14.39.39l8.6-2.87ZM646.08,704.65c-2.45,0-4.92-.18-7.38.11-1.06.13-4.69.39-4.61,1.87,3.96,1.4,9.27,2.04,11.99-1.98ZM884.08,704.65c-22.73-.43-44.79,6.43-67.37,7.11l-7.62,1.87,14.99-.98-3.99,1.98,24.37-2.12,39.62-7.86ZM757.08,706.65c-11.83-2.9-22.46,3.2-34.35,1.97l-.66,2.01-1.12-1.82-48.86,7.33c1.42,1.87,3.43,1.61,5.45,1.52,12.49-.56,26.94-5.92,39.54-7.01l-1.48,2.01c8.34-1.08,16.74-3.04,25.09-3.92,3.99-.42,8.12.5,13.42-.58,1.08-.22,3.23-.06,2.97-1.51ZM624.08,708.65l-6.42-1.01-9.58,2.99c3.29.76,6.53-.87,9.5-.99,2.17-.09,7.22,3.06,6.5-.99ZM580.08,710.63c-2.47-4.27-8.25-.76-12-.98-1.63,1.32.13,1.81,1.49,1.99,3.58.49,7.06-.47,10.52-1.01ZM400.08,725.64c-2.38-5.55,4.12-9.36,4-14.99l-10.55,16.94-4.44,3.56c3.37.92,7.24-3.59,8.08-6.44l2.91.93ZM384.08,712.65c-1.98-.27-2.58,1.59-4.52,1.97-5.49,1.06-10.25-1.95-15.49-2.46,3.37,6.59,17.41,8.9,20,.5ZM562.08,711.65c-4.51.16-11.54-.76-14.99,2.98,4.08.23,8.27-.18,12.2-1.3,1.03-.3,3.03-.23,2.8-1.68ZM736.08,711.65l-42.33,5.16-17.66,3.82c18.62-2.21,38.83-2.8,56.98-7.51,1.14-.3,3.25.07,3.01-1.47ZM631.08,716.65c-6.82.32-13.62,1.32-20.41,2.08-.97.11-3.76.44-3.58,1.9,3.47,1.73,6.29-.57,9.6-.88,4.25-.41,7.71.23,12.08-.97,1.71-.47,2.79.73,2.31-2.13ZM670.08,717.66c-3.86-2.21-6.4.71-9.61.96-2.56.2-5.13-1.72-7.38-.48,3.17,3.16,9.34,2.11,13.52,1.53,1.5-.21,3.08-.13,3.47-2.01ZM792.08,716.65c-2.84.36-5.69.37-8.52.9-52.02,9.64-107.89,12.95-158.83,23.27l-31.64,6.81c2.12.08,4.24.09,6.37-.12,45.37-4.39,90.96-18.17,137-19.99,16.68-4.31,36.45-4.03,52.88-7.93.2-.05,2.71-2.27,2.74-2.94ZM571.08,717.65l-5.37.12-13.62,2.86c4.96-.5,10.69-.42,15.54-.95,1.5-.16,3.08-.22,3.46-2.03ZM719.08,717.65l-52.99,6.48c1.34,2.05,2.32,1.14,3.96,1.06,4.87-.22,9.24-1.92,13.63-2.46,9.57-1.18,19.21-1.83,28.76-3.24,1.58-.23,6.03-.44,6.64-1.85ZM767.96,717.69l-76.03,9.25.29,2.4,76.03-9.25-.29-2.4ZM606.08,720.65l-9.45.04-13.55,3.44c1.3,1.96,2.15,1.08,3.79.89,5.08-.57,10.61-1.56,15.71-2.38,1.49-.24,3.09-.05,3.49-2ZM639.08,721.65h-9.99s1,2.99,1,2.99c-3.72-.91-5.86-.96-9.57-.01-1.66.43-2.92-1.01-2.43,2.01l13.48-1-.49-1.98,3.99,1.98c-.67-3.89,4.7,0,4.01-3.98ZM658.07,722.66c-5.22-1.77-10.54,1.23-15.99.48,2.01,2.23,5.79,1.63,8.54,1.54,1.65-.06,6.58-.41,7.45-2.02ZM578.08,726.63l-2.98-2.99c-.62,4.6-8.47,3.45-12.26,4.27-.97.21-3,.35-2.75,1.72l17.99-3ZM597.08,726.64c4.74,1,2.26,1.34,3.99,2.48,2.51,1.66,12.36-1.79,16.01-1.49-5.93-7.11-12.53-2.02-19.46-3.02-.93-.05-.57,1.34-.54,2.03-5.92-1.25-23.57,1.85-29.83,3.71-1.73.52-2.61-.36-2.16,2.28l33.99-3c-.2-1.96-1.89.15-2-2.99ZM653.08,727.63l-.48-1.97c-7.4,1.88-15.28,2.09-22.78,3.23-.88.13-3.01.44-2.73,1.74,8.79.55,17.3-2.18,26-3ZM501.08,726.65c-7.45,1.4-17.68,1.53-24.7,3.79-2.51.81-2.48,1.16-4.01,3.21l-15.28,1.98c7.93.89,15.25-1.05,22.99-2l-3.99-1.98c6.99-.95,14.29-1.85,21.18-3.33,1.16-.25,3.98-.13,3.81-1.67ZM558.08,730.63c-.46-1.84-1.58-1.86-3.19-1.79-3.57.16-12.45,1.38-16.07,2.05-.92.17-2.99.4-2.73,1.73,7.2,1.13,14.56-2.92,21.99-2ZM563.08,731.65l-8.37.12-40.62,6.86c15.26.11,30.1-4.65,45.41-5.08l3.58-1.9Z"/>
      <path d="M339.08,687.65l-2.5,2.99c-30.56.65-60.87,5.69-91.49,7l93.99-9.99Z"/>
      <path d="M338.08,695.65l-3.99,1.98,4.99,1c-9.45.21-19.07.17-28.48,1.02-8.25.74-17.17,3.01-25.26,3.76-1.96.18-3.76-.97-5.71-.81-5.68.46-11.71,2.45-17.54,2.03l19.62-3.86c18.83-1.29,37.46-5.44,56.37-5.12Z"/>
      <path d="M682.08,741.65c-.39,1.88-1.97,1.81-3.47,2.02-14.24,1.94-28.68,2.84-42.89,5.11-12.7,2.03-25.25,4.99-38.05,6.97-2.58.4-3.55,3.19-6.58-.62,1.35-1.04,3.49.19,3.01-2.48l1.54,2.05c28.12-7.39,57.64-8.84,86.44-13.05Z"/>
      <path d="M268.08,661.65l-32.5,3.97c-7.72-.8-12.32.79-20,2.01l-14.48-.5c-.5-2.25,4.21-1.83,5.69-2.03,12.18-1.6,27.95-3.23,40.18-3.83,6.99-.34,14.07.78,21.11.39Z"/>
      <path d="M920.08,690.63l-26.49,4.02,5.49-2.02-1.46-1.65-28.54,2.65,1.99-1.98-10.01-.51c-.01-.82,8.19-.57,9.55-.55,13.85.28,27.89-.79,42-.91,2.66-.02,6.16-2.52,7.46.94Z"/>
      <path d="M848.08,715.65c-.86,1.61-5.16,2.14-6.96,2.53-14.53,3.14-30.24,5.14-45.03,6.45-.25-1.49,1.87-1.24,2.98-1.49,16.17-3.66,32.75-4.44,49.01-7.49Z"/>
      <path d="M302.08,685.65l-18.77,4.71-34.22,4.27c-.48-3.06.74-1.64,2.51-1.95,11.66-2.07,23.3-2.56,34.9-4.12,4.82-.65,10.25-3.8,15.57-2.91Z"/>
      <path d="M270.09,669.65l-1.02,1.98,4,1c-16.4-.99-32.64,1.19-48.99,2l27.5-3.98,18.5-1Z"/>
      <path d="M342.08,709.65l-34.99,3.99c-.47-3.05.74-1.64,2.52-1.95,10.87-1.92,21.47-3.33,32.47-2.03Z"/>
      <path d="M52.08,545.65c-1.02,2.62-5.76,1.87-7.99,1.99-2.86,2.06,7.69,3.09,6.99,4.99-7.98-2.42-13.44-4.51-21.99-3l22.99-3.98Z"/>
      <path d="M500.58,763.64c1.24-.07,6.35-2.9,7.5,0l-26.99,2c-1.05-2.59,2.7-1.99,4.49-1.99,4.96,0,10.05.26,15,0Z"/>
      <path d="M293.08,685.64c-7.58-.73-15.03,1.43-22.5,2-2.61.2-7.38,1.09-9.49-.5l31.51-3.48.48,1.98Z"/>
      <path d="M245.08,657.65l-8.5,1.98-16.49,1c-.18-1.46,2.62-1.8,3.58-1.9,6.79-.71,14.52-.68,21.41-1.08Z"/>
      <path d="M359.08,729.65l-9.5,1.98-14.49.99c.18-1.46,4.35-1.69,5.62-1.87,5.97-.85,12.33-1.18,18.37-1.11Z"/>
      <path d="M451.08,750.65l-11.75,2.74-11.24,1.24c-.18-1.49,2.69-1.48,3.79-1.69,6.26-1.18,12.8-2.28,19.2-2.29Z"/>
      <path d="M135.08,614.64v1h-19.5c-.5,0-2.13,1.57-3.49.99v-1.99s22.99,0,22.99,0Z"/>
      <path d="M891.07,679.65c.23,1.75-2.26.93-3.48.99-4.15.19-8.4.5-12.51-.01l7.48-2.06,8.5,1.08Z"/>
      <path d="M201.09,662.63c-.05-1.51,3.49-1.7,4.61-1.86,4.56-.65,9.76.77,13.37-2.13l-2.49,3-15.49.99Z"/>
      <path d="M885.09,410.65c1.18-.1,2.14.85,1.78-1.27-.77-4.6-2.27-9.55-4.25-13.77-1.78-3.8-6.41-8.2-6.05-11.95,7.25,8.37,13.01,18.52,12.5,29.99l-2.98-1.01-2,4.01-7.78-19.73-17.22-18.27c13.46,3.64,23.56,18.74,26,32Z"/>
      <rect x="506.98" y="322.03" width="2.16" height="77.8" transform="translate(-25.92 682.27) rotate(-66.43)"/>
      <path d="M582.08,383.63c-22.98-10.91-46.8-20.44-70.95-28.55l-3.04.55,26.99,12.03c.23,1.85-2.09.87-3.03.53-8.17-2.96-16.86-8.95-25.42-11.67l-1.09-2.93-13.45-5.93c14.42,4.61,28.79,9.18,42.98,14.5,11.36,4.26,25.66,9.4,36.39,14.61,3.32,1.61,7.95,4.31,10.62,6.87Z"/>
      <path d="M837.08,410.64c-2.61.49-1.76-.5-2.45-1.99-3.23-6.92-3.82-12.21-9.57-18.48-4.17-4.54-10.13-6.67-13.97-11.52,13.54,4.43,24.79,17.64,25.99,31.99Z"/>
      <path d="M830.08,405.64c-1.57,1.67-7.19-9.65-8.46-11.03-5.49-6.02-15.06-9.48-19.54-16.95l17.52,11.97c4.71,4.33,8.81,9.71,10.47,16.02Z"/>
      <path d="M518.07,371.66c.15,1.92-1.98.89-2.95.44-13.24-6.08-26.06-13.64-39.36-19.64-3.05-1.38-6.41-2.13-9.49-3.55-1.41-.65-2.73.6-2.18-2.26l53.98,25.01Z"/>
      <path d="M704.08,375.63c-14.84-6.57-30.04-13.17-44.02-21.47-1.09-.65-2.75-1.01-2.98-2.51,8.6,2.44,15.75,7.89,23.62,11.87s16.89,6.53,23.38,12.11Z"/>
      <path d="M732.07,394.64c-6.2-4.85-13.53-8.25-18.99-13.99,3.82,1.59,9.01,4.75,12.33,7.16,1.17.85,8.04,5.35,6.66,6.83Z"/>
      <path d="M111.08,283.65l-2,2.98c3.37.2,2.06-4.21,5.99-3l-.98,59.31c-.71,2.89-11.61.88-14.01,2.19l11.99,1.5c-9.84,1.02-19.76,2.27-29.66,2.63-4.03.15-9.33-.71-13.87-.66-3.78.04-10.16,2.83-13.49-.44-1.97-1.93,2.96-48.41,3.93-55.12,2.25-3.02,16.51-3.17,20.89-5.08,1.07-.47,1.28-1.23,1.22-2.3l1.95.04.49,1.95c8.61-3.59,18.28-3.88,27.54-3.99ZM111.08,291.65c-3.8.16-26.27-.88-27.79,1.22l-2.21,48.78c6.78-1.04,17.22.15,23.48-1.03,1.33-.25,2.37-.73,3.03-1.97l3.5-46.99ZM59.08,342.64h18l2-49.99c-3.05-.09-15.85,1.28-16.99,3.74l-3.01,46.25Z"/>
      <path d="M536.08,73.64c-9.47,1.76-18.93-1.54-28.34-2.15l-4.53-10.14c1.24-5.1,21.83-2.08,25.61.06s1.29,4.69,2.76,7.24c.84,1.44,5.15,2.02,4.5,4.99ZM526.94,66.78c-5.67-2.15-12.68-6.02-16.84.37-.04,1.85,14.23,2.74,16.4,2.51l.44-2.88Z"/>
      <path d="M583.08,81.63c-10.39,2.02-20.64-1.43-30.88-3.1l-.96-8.19c5-5.51,14.4-3.08,20.84-1.2,9.8,2.87,4.02,5.87,6.45,9.55.86,1.3,4.18.68,4.55,2.94ZM573.08,77.64c2.41-6-15.27-6.6-15.99-5.99,2.04,6.71,10.19,5.87,15.99,5.99Z"/>
      <path d="M626.29,80.48c.73.81,4.95.68,3.78,2.65-.97,1.64-5.49,1.13-5.1,6.41l-23.69-4.1-3.2-9.79c8.01-.06,17.42-.87,25.23,1.25,4.75,1.29,2.71,3.28,2.97,3.58ZM620.08,84.64l-1.64-4.85c-4.78.29-11.33-1.63-15.35,1.36,1.9,1.86,16.19,4.31,17,3.49Z"/>
      <path d="M373.99,56.56c-2.39,2.57-21.34-.63-24.26-2.83-1.68-1.27-1.91-7.79-1.54-9.97,1.81-2.15,23.51-.66,25.89,1.38,2.61,2.25-.46,8.26-.09,11.43ZM370.08,51.64c.23-7.28-12.8-4.95-18-6-.51,3.16-.24,6,3.5,6h14.5Z"/>
      <path d="M736.99,95.57l-1.9,2.07,3.99.52c2.08,9.82-18.94,5.45-22.95,2.93-2.92-1.84-4.86-9.64-.55-10.45,3.6-.68,19.87.18,21.49,3.51l-.08,1.42ZM732.08,98.64c2.88-2.4-12.06-8.78-13.98-1.47-.71,1.94,4.95,2.19,5.76,2.21,2.73.06,5.41-1.22,8.22-.74Z"/>
      <polygon points="351.08 126.64 348.08 124.14 343.09 72.65 348.22 112 351.08 126.64"/>
      <path d="M537.08,471.14c.21-2.67,2.99-18.54,3.93-19.81.58-.78,1.06-1,1.97-1.25l55.6-6.42,25.5.98c.82,16.41,1.69,33.25,1.65,49.64,0,4.78-1.99,13.89-1.64,17.83.2,2.29,2.94,3.65,2.99,6.03-2.97.05-5.93-5.21-7.47-.66l-75.11,8.25-2-2.11c-5.02-.25-6.52,4.15-6.92,4.02s-1-1.29-1.95-1.5c-2.74-.6-6.63-.23-8.09-3.52-1.37-3.09,1.58-3.2,1.52-5.97-.38-.43-1.78,1.57-2.71,1.78-5.28,1.15-29.07-3.88-32.85-7.71-3.5-3.55-2.85-29.43-2.48-35.61.15-2.56,1.15-12.46,2.12-13.88,1.14-1.65,3.64-2.22,5.51-2.49,4.88-.68,18.16-1.75,22.44-.63,2.6.68,4.29,3.39,6.96,3.53-.98-2.81,1.13-8.43.74-10.36-.23-1.15-2.96-2.43-1.24-3.63,2.12,3.3,6.61,1.94,7.48,6.52l-.92,65.41,57.31-6.06c10.83-1.17,21.81-6.12,32.62-3.88l-2-59.99c-1.26-1.65-1.82.1-2,1.48-.42,3.31.12,7.49,0,11.01-.07,1.96-1.07,3.88-1.07,6.01-.02,9.21,2.39,21.72,1.61,31.04-.56,6.67-6.42,5.65-11.52,5.47l4.99,1.98c-3.78-.6-6.92,1.64-10.48,2.01-4.9.51-8.95-1.13-12.96-1.04-6.74.15-19.37,2.24-27.04,3.04-4.9.51-19.16,4.05-22.49,2.47-.47-.22-2.01-1.81-2.01-1.98,0-12.75-.98-27.55,0-40ZM542.08,472.64v32l59.97-4c1.45-10.43,1.95-21.14.98-31.54.63-5.83,2.68-11.44-1.59-16.55-4.67.23-17.95,4.17-21.72,3.02-.97-.3.04-2.96-3.02-.95-4.01-4.19-16.64.68-22.33.73-1.65.01-2.7-1.33-4.39-1.25-2.52.13-4.52,2.01-6.89,2.55l.49,1.99c6.92.77,52.97-4.26,55.26-1.79,3.99,4.31-.18,16.56-.75,22.3-.46,4.63-.16,10.13-.1,14.83l-1.61,1.46c-16.37,3.03-32.98,5.25-49.66,5.05-2.13-.69-1.67-3.1-1.63-4.86,2.73,3.48,2.99,3.28,7.52,3.04,5.38-.29,39.08-3.46,41.23-5.27,1.34-3.57,3.29-23.82,1.14-25.65-5.24-.44-10.36.98-15.46,1.82-8.24,1.35-21.44,2.18-28.67,5.14-1.29.53-.47,3.05-5.76.94v7.99s-3-11-3-11ZM614.07,499.64c2.01-3.86.05-6.81-.03-10.46-.21-8.85.86-18.28-.23-27.01-.15-1.18-.08-4.58-1.71-4.52l-1.06,39.46,3.03,2.53ZM521.98,512.54l2.67-27.6c-1.59-11.35,3.85-23.42-12.21-24.25-1.49-.08-14.9,2.43-15.71,3.01-1.28.93-1.56,1.56-2.16,2.93-2.41,5.48-2.35,33.4.25,38.76s21.33,9.13,27.16,7.15ZM594.08,461.65c-10,1.4-19.93,1.83-29.97,2.45-1.32.08-2.48-.76-3.02,1.53,9.71-.27,20.54-.54,30.03-2.47,1.08-.22,3.23-.06,2.97-1.51ZM595.08,464.65l-20.99,2.98c5.79.12,11.78-.06,17.5-.98,1.49-.24,3.09-.05,3.49-2Z"/>
      <path d="M889.08,487.65c-.25,1.32-1.81,2.15-2.97,2.52-9.93,3.19-18.89,2.37-28.52,3.48-8.3.96-17.5,2.95-25.73,3.36-1.26.06-1.7.84-2.77-.88-1.12-3.51,8.75-4.99,11.57-5.41,11.92-1.8,31.12-3.75,43.03-3.98,1.86-.04,3.54.92,5.39.92Z"/>
      <path d="M530.08,567.64v14.5l-2,1.01c-1.8-1.28-1.25-11.95-.26-14.27.62-1.44.26-1.49,2.26-1.24Z"/>
      <path d="M412.08,405.64c-.88,2.71-1.6,5.67-4.04,7.5-7.69.02-11.69,4.84-19.31.35-10.7-6.3-9.81-35.85-1.64-44.34,5.55-5.77,20.77-5.03,24.22,2.76,1.23,2.76,3.55,14.82,3.8,18.2.29,3.93.44,12.99-3.03,15.54.77-2.39,1.91-7.01,2.05-9.47.24-4.18-2.55-20.18-4.28-23.8-.57-1.19-3.63-4.82-4.77-3.72,7.57,10.52,8.61,25.04,4.99,37.48-.09,1.08,1.68-.25,2.01-.49ZM383.08,380.14c-.95,5.67.69,13.54,0,19.5,1.81.21.89-2.25.98-3.5.74-10.42-.52-23.66,12.02-27.51l-2.29-1.84c-4.72.39-10.01,9.22-10.71,13.35ZM386.07,404.64c.69,13.32,18.58,9.11,22.78.28,4.55-9.59.4-27.29-5.71-35.78-21.06,1.51-15.75,21.18-19.07,35.99l2.01-.49Z"/>
      <path d="M324.29,483.49c2.87.19,1.5,1.22.78,3.15,6.88.14,1.21,2.06.33,3.3-1.49,2.1-1.77,6.36-5.31,4.71,3,5.8-4.87,8.29-3.8,2.65.2-1.05,1.86-1.79,2.22-2.73,1.56-4.09,2.86-8.3,4.71-12.28l1.08,1.22Z"/>
      <path d="M277.02,387.69l3.05,5.44c-4.94,5.96-7.91-.07-5.97-5.48l2.92.04Z"/>
      <path d="M317.99,406.55c-1.89,3.03-7.95-2.78-3.4-5.9,3.34-1.12,4.48,4.18,3.4,5.9Z"/>
      <path d="M286.08,432.65c.25,2.02-2.5-.21-2.01,2.48.07.36,6.04,3.1-1.48,4.49-2.45-1.67-1.43-4.13-.61-6.4l4.09-.58Z"/>
      <rect x="450.25" y="179.18" width="58.59" height="1.86" transform="translate(48.67 457.14) rotate(-53.33)"/>
      <path d="M305.76,137.34c-1.2,1.77-5.7,5.12-7.18,7.3-.42-2.62,3.44-5.81,5.04-8.96,3.5-6.85,3.44-11.95,3.51-19.39l-2.04-1.64,2.01-.66.97-9.35c.08,6.66,1.82,15.02,1.04,21.53-.21,1.7-2.59,10.03-3.35,11.17Z"/>
      <path d="M249.07,145.64l-1.04-13.55,1.06-14.45c2.22.55,1.36,1.44,1.34,2.75-.09,8.39-.66,16.91-1.36,25.24Z"/>
      <path d="M35.08,256.65l-3.01,4.98,3.08.56-.1,63.93c-1.08,5.67-10.87,2.86-14.48,6.51l-2.05-5.68.36-63.89.92-1.44,15.28-4.97ZM27.08,269.14v51c0,.27,3.09,3.26,3.99,3.5.57-14.47-.25-29.15-.61-43.67-.07-2.82,1.76-11.26-.39-13.33-1.34-1.29-2.87,1.74-2.99,2.5ZM21.08,273.64v50.5c0,.56,1.46,2.24,1.02,3.5l5.99-1.5-4.93-.59c-1.12-8.95-1.19-18.27-1.12-27.45.06-7.51,1.67-15.33.46-22.81-.18-1.1,1.63-2.37-1.41-1.65Z"/>
      <path d="M421.08,159.65c-12.64,14.88-18.57,34.29-29.99,49.99.11-2.68,2.27-5.05,2.97-7.52.85-3-2.83,1.05-1.96-1.95,1.11-3.86,5.02-11.2,7.18-14.83s14.81-22.53,17.09-24.39c1.3-1.06,3.06-1.41,4.71-1.3Z"/>
      <path d="M813,543.56l-18.91,3.08c-.24-1.41,1.77-1.46,2.77-1.7,4.01-.97,8.64-1.1,12.71-2.3,1.64-1.35-1.14-1.08-1.96-.98-6.73.78-13.56,3.02-20.15,3.87-38.87,5.03-77.67,7.57-116.87,10.13-6.86.45-18.74,4.69-24.86.07-2.22-1.67-.04-11.9-.52-14.95,13.36-3.87,27.64-3.12,41.36-4.14,25.32-1.88,50.7-3.11,76-5,14.98-1.12,33.64-4.95,48.02-5.08,8.64-.07,1.98,11.2,2.41,17Z"/>
      <path d="M866.08,471.65l-17.64,3.85c-1.31-.5-9.41,2.09-9.34-.36.04-1.47,3.33-1.47,4.43-1.55,7.57-.54,15-1.36,22.54-1.94Z"/>
      <path d="M777.08,578.65l-11.94,3.55c-3.84.12-6.64.87-10.05,2.44-.34-2.17.85-2.44,2.55-2.94,5.48-1.6,13.61-1.61,19.44-3.04Z"/>
      <path d="M771.08,697.65c.2,1.45-2.72,1.53-3.77,1.71-7.67,1.3-15.63,1.51-23.21,3.28-.46-2.98.65-1.7,2.5-1.97,8.12-1.17,16.37-1.84,24.48-3.02Z"/>
      <polygon points="802.08 693.65 788.3 697.45 784.09 696.14 802.08 693.65"/>
      <path d="M513.6,467.19c13.85.49,11.73,28.77,2.84,34.38-1.18.74-7.06.89-8.41.63-5.7-1.12-9.09-5.53-9.86-11.14-1.43-10.34,3.33-24.29,15.43-23.87ZM516.94,497.51c1.93-3.53,3.28-23.42-.5-24.73-5.8-2-9.89.53-8.37,6.86l-2.98-3.99c-3.52,11.27-3.85,24.47,11.85,21.86Z"/>
    </g>
  </g>
</svg>