<?xml version="1.0" encoding="UTF-8"?>
<svg id="Layer_2" data-name="Layer 2" xmlns="http://www.w3.org/2000/svg" viewBox="0 0 685.75 910.61">
  <g id="Layer_1-2" data-name="Layer 1">
    <g>
      <path d="M90.99,778.77l31.99-4.01c.25-1.7-2.31-.99-3.5-1.01-3.2-.06-7.23.12-10.38.6-2.07.31-1.34.2-1.11-1.57l35.99-3.02c-2.14-6.11-2.5-13.01-2.99-19.5-2.22-29.16-3.48-58.84-5-88-10.28-197.5-11.54-395.48-18.05-592.94-.15-4.44-.48-9.17,2.03-13.05,4.24-6.54,24.42-12.23,32.24-14.76,36.67-11.91,74.92-21.21,111.79-32.21,10.43-3.11,18.3-.78,26.28-2.54.75-.17.77-1.68,1.96-2.26,14.47-7.09,36.59.35,52.31-1.64,1.91-.24.95-1.92,2.87-2.16,9.5-1.2,25.86-.45,36.24-.52,11.53-.08,24.26.13,35.83.6,1.22.05,3.72-.75,3.48.99-25.14-.13-50.49,2.51-75.48,0l2.94,2.05c76.8-.5,153.64-.12,230.18,1.8,15.97.4,53.78-1.99,67.04,3.98,4.84,2.18,6.68,3.01,11.42,4.75,7.67,2.83,12.22,9.85,12.94,17.89,1.17,13.06-.35,28.63-.07,42.1,1.78,85.66,3.78,171.91.82,257.73l-5.65,7.04c3.24,5.18,7.55,8.41,7.87,15.17-.12,147.2,6.55,294.82,10.75,441.32-4.97,6.36-10.96,21.51-17.82,26.62-1.99,1.48-4.6,1.92-6.5,3.56.67,6.12,2.87,17.24-1.4,22.54-3.23,4.01-26.86,9.26-32.81,10.19-55.46,8.64-115.65,15.09-171.77,20.23-32.04,2.94-66.31,2.68-97.84,7.16-11.16,1.59-14.91,3.33-23.17,10.85-1.37,1.25-1.05,3.18-2.13,4.1-.63.53-12.38,6.71-13.61,7.14-18.22,6.44-43.88.78-56.72-13.7-3.11-3.5-1.43-5.61-8.98-5.52l4.99-.99-.98-2.54-9.01.54,4.99-1.98c-22.23-1.69-44.78.06-66.99.98l1.48-2,65.51-1.01c.23-1.74-2.27-.94-3.48-.99-21.59-.89-42.96,1.53-64.51.99-.23-1.74,2.27-.94,3.48-.99,5.67-.23,11.39.24,17.05.04,2.37-.09,4.55-1,6.92-1.08,12.68-.45,25.4-.59,37.94.11l1.6-4.07h-77c-.22-1.76,2.26-.95,3.49-1,13.38-.56,27.7-1.04,41.04-1.01,5.61.01,2.64-.8,4.9-1.08,6.17-.76,20.15-.3,26.09,1.07l.48-1.98-44.99-.02,13.51-1.98,18.48-.02-13.32-2.73-97.67.73c-.23-1.74,2.27-.94,3.48-.99,32.07-1.32,64.49.63,96.51-2.01-.37-1.9-1.4-1.39-2.66-1.48-3.57-.24-8.15.92-11.84.92-19.6.02-38.98-.51-58.49.55-.09-1.47,3.59-1.76,4.62-1.87,16.66-1.7,34.15-1.53,50.84-2.16,4.36-.17,20.1.93,22.56-.44,1.97-1.1-.09-2.3-1.51-2.52-9.19-1.45-23.07.55-33.05.05-7.3-.37-14.71-2.48-22.13-2.66-14.7-.36-30.37,3.03-45.33,1.61-.23-1.74,2.27-.94,3.48-.99,9.33-.39,18.67-.45,28-1.01l14.51-1.98-72.99,1.98,13.51-1.98,60.49-2.02c-.75-2.79-1.92-.99-2.5-.99h-26c-1.19,0-3.24.33-2.49-1.99l73.54-.96,9.45-2.03c-15.86,2.63-31.86-.24-47.54-.05-2.36.03-4.55,1.04-6.91,1.08-30.68.45-61.47,1.37-92.04,2.55l-2.5-1.58c16.83-1.02,33.68-2.23,50.49-3.05,21.12-1.03,42.21-1.3,63.05-1.84,1.79-.05,1.32-1.91,2.14-2.1,6.49-1.52,18.72-.55,25.83-1.02,2-.13,2.89.79,2.48-2l-66.48,2-73.97,6.03-8.54-1.03,49.48-3.02,37.51-3.98-75.54,1.95c-5.9,1.22-11.94,1.29-17.97,1.04-1.22-.05-3.72.75-3.48-.99l78.99-4.02c.23-1.74-2.27-.94-3.48-.99-15.99-.66-33.09-.26-48.96,1.05l-9.54-1.04c11.77-.2,23.55-1.34,35.23-2.29,22.83-1.85,46.23-2.79,69.28-4.71,1.16-.1,4.48-.32,4.49-2-13.89-1.67-27.66,1.23-41.45,1.94-21.87,1.12-43.52,1.03-65.05,1.47-15.12.31-30.34,1.53-45.5,1.57-.24-1.74,2.27-.94,3.48-.99,20.72-.78,41.29-1.92,61.86-4,1.48-3.92,1.25-.58,3.1-.44,4.82.35,11.82-1.42,17.06-.56l3.49-1h-18v-.99s33.5-2,33.5-2c1.54-.9-.78-1.42-1.38-1.45-6.41-.26-13.23,1.17-19.58,1.48-29.28,1.44-58.75.49-88.04,2.96l10.01-1.99,29.94-.94,1.12-3.13,20.42-.95c.23-1.74-2.27-.94-3.48-.99-3.78-.15-9.46-.46-13.04-.03s-7.02,2.5-11.09,2.88c-1.76.16-6.51.27-5.39-1.84h-.97c.35,3.32-10.15,2.13-13.52,1.99-1.23-.05-3.71.76-3.49-1h16v-1h-16v-.99c14.2.81,28.36-1.5,42.45-2.03,5.67-.21,11.39.25,17.06.02,1.22-.05,3.72.75,3.48-.99l-48.99.98,4.99-2.99c-5.88,1.58-13.29,1.25-19.5,1-1.22-.05-3.72.76-3.48-.99,6.23-.49,13.3.68,19.41-.09,4.46-.56,8.79-2.29,13.96-3.04,3.35-.49,6.81-.96,10.07-1.92l1.05,2.05c2.84-2.92,8.76-1.6,12.98-2.03s8.92-1.65,13.03-1.96c16.8-1.24,33.71-.58,50.48-2.02.23-1.74-2.27-.94-3.48-.99-26.6-1.1-53.42.02-79.97,2.04-26.32-1.4-52.34,2.59-78.54,2.95l32.5-4.44c8.39.95,16.13-1.47,24.49-1.56l-12.99-2.98,75.99-2.02-.48-1.98-3.96,1.04-9.56-1.05,49.99-2.02c-.38-1.82-1.97-1.86-3.46-2.03-4.21-.47-10.64-.13-15.08,0-24.64.68-49.44,4.89-73.97,6.03-6.14.28-12.35-.18-18.48,0l18.35-1.97.66-2.01,1.48,2.02c2.72.93,2.56-2.09,3.02-2.08,1.41.03,2.64,1.57,3.94,1.6,3.43.09,7.82-1.2,11.54-.56l-.48-1.98-2.51-1.01,74.99-6.02c-.69-1.78-5.93-1.13-7.54-1.03-2.12.12-4.08.96-5.97,1.03-15.51.6-30.98,1.02-46.48,2l10.51-1.98,46.48-3.02c.25-1.71-2.37-1.07-3.48-.98-1.99.15-3.85.95-5.98,1.03-4.66.17-9.37-.3-14.03-.03-14.53.84-30.77,3.82-44.98,4.03-2.07.03-2.93.57-2.52-2.04l10.48-.02,12.51-1.99h-14ZM578.99,22.77h-14v1h25c.08,1.34-3.65,2.48-4.46,2.53-10.91.66-22.97.2-34,.51-15.21.44-30.4-.27-45.54.95l5.49-1.99-58.49,1.01,2.99,2.99h-22v-1h14.5c1.37,0,4.39.5,3.49-1.99-5.23-.9-10.58.87-15.45,1.04-17.41.6-35.7.65-53.04,1.99-6.35.49-23.81,1.6-28.74,3.25-3.87,1.29-9.46,6.61-13.28,8.71l.5-3.99c-3.59-.43-8.65.73-8.99,4.99l5.5.45c11.14-3.4,21.28-4.87,32.95-5.49,1.35-.07,6.25-.72,6.54,1.04l-9.99,1.02,6.99,1c-1.46,3.28-6.19,1.62-9.38,2.11-11.75,1.81-24.45,3.26-29.82,15.18-1.18,2.63-2.71,11.01-3.08,11.47s-1.73.13-1.73.22v39l1.98-.48-.99-24.09,2-11.42c-.03,5.5.06,11.02.06,16.53-.01,28.03.22,56.72.99,84.92.47,16.97-2.17,33.63,4.95,49.54l-5.97-8.52-1.02-25.48c-1.23-1.61-1.81,0-2,1.48-.79,6.3-.76,14.54-.99,21.03-.04,1.21.75,3.72-.99,3.48-1.09-11.89,2.48-25.84.99-37.51-.19-1.46-.76-3.1-2-1.48l.04,41.45-2.04,10.54v-28c-1.76-.22-.95,2.26-1,3.49-.5,12,1.02,23.66-1.99,35.51,3.05.44,4.31-5.59,6.48-5.75,1.32-.1,3.75,2.76,4.01,2.76h36.5c-.56,1.39-5.12,1.68-6.62,1.88-1.79.24-3.59.15-5.38.13l1.01,1.98c-2.58.34-5.87-.51-8.3.04-.74.17-.8,1.65-1.48,1.89-6.98,2.52-12.81-.3-19.25.59-4.49.62-8.43,2.75-13.05,2.92l-.93,5.56c3.61-3.05,5.04-5.44,10-2.49l-7.5,6.5-1.5,13.98c1.79-.45.82-4.03,1.46-6.03,1.83-5.71,10.78-13.5,17.04-13.47,7.9.04,21.21,3.6,30,4.49,32.96,3.35,63.85,5.06,97.03,5.06,3.66,0,10.27-2.16,13.53,1.38,1.7,1.85,2.48,7.48,1.74,9.87-1.02,3.32-15.29,7.72-19.05,8.96-18.16,6-37.94,11.4-56.76,14.75-.24,1.73,2.37,1.03,3.53,1.01,4.38-.08,9-1.1,13.36-1.63,1.6-.2,3.23-1.25,1.12,1.13l-84.01,19.49c-.92,3.11,3.48,2.14,5.39,1.89,11.12-1.47,23.81-6.96,34.84-8.25,1.5-.18,2.18-.78,2.77,1.35l-28.99,6.02,4.99,1.98-8,2.04,1.02,2.97c-2.42.61-5.09.63-7.48,1.05-1.77.32-2.99-1.1-2.52,1.95,5.2-.91,10.53-1.22,15.79-1.71,1.1-.1,3.41-1.18,3.2.7-5.59.87-11.04,2.94-16.59,3.91-2.46.43-5.74-.47-7.78.25-1.21.42-1.21,2.1-1.9,2.59-.99.7-3.03-.55-2.71,1.25,5.16-.11,10.37.18,15.54.03,80.92-2.31,168.16-8.42,248.94-16.03,11.28-1.06,24.15-4.44,34.98-5.02,1.1-.06,3.78-.65,3.52,1.02-22.85,5.08-46.41,4.47-69.5,8l-79.48,5.02c-.23,1.75,2.26.93,3.48.98,3.62.15,5.77-.13,9.25-.78,1.93-.36,1.21.08,1.26,1.78-11.86.15-23.69.43-35.53.97-6.3.28-14.99,2.04-21.02,1.6-1-.07-1.85-1.92-2.42-1.54-.09.06.25,1.76-.67,2-4.8,1.24-16.11-.95-19.73.04-.75.21-.57,1.84-1.06,1.83-18.01-.4-36.88.55-55.05,2.12-1.22.11-5.35.37-5.51,1.98,35.34.44,70.35-3.65,105.51-5.98,24.62-1.63,49.4-2.12,73.98-4.02,6.24-.48,12.65-1.31,18.83-2.17l.68-2.81c2.57.33,5.96-.54,8.34,0,.77.18.62,1.88,1.09,1.87,2.05-.05,5.9-1.79,8.21-1.81s3.79,1.56,5.36,1.56c7.02.02,15.61-.56,22.49-1.64l-.5,2.01,33,.02c.23,1.74-2.27.94-3.48.99-10.62.44-21.4.33-32,1.01-5.01.32-11,1.65-16.02,1.98-27.45,1.83-54.99,3.4-82.49,5.02l1.99,1.98-117.49,9,.02,2.01c42.76-2.32,85.24-6.92,127.94-10.04,36.32-2.65,72.72-4.75,109.07-7.03,7.75-.49,18.77-2.86,25.99-1.93,1.5.19,2.55.35,1.47,2-27.12,1.66-54.35,5.6-81.5,8-75.16,6.64-150.7,11.88-226.04,14.96-13.51.55-33,5.06-45.46-.46-1.46-.65-7.3-5.29-7.99-4.5v11c5.15-.17,10.37.2,15.54.04,91.12-2.97,182.07-10.99,272.97-18.03,22.17-1.72,46.19-1.39,67.97-4.03,3.6-.44,25.29-4.42,26.34-6.15l-5.83-250.34,2-.48.07-48.4-4.06-2.12c-.25-.65,4.57.19.02-4.02-5.56-5.15-18.96-8.66-26.49-8.47-4.32.11,3.45,2.28-1.05,2.03-7.23-.4-10.72-.48-18.05-.14-.53.02.31-2.16-2.96-1.97-2.03.12-.97,2.18-2.9,2.16s-4.41-1-6.1-2.09l-.88,1.93c-48.01-1.69-95.89,1.31-144.04.04-10.03-.26-20.04-.04-30.06.04l-1.48-1.99,28.01-1,.49,2,1.15-2.03,32.35-1c.31-1.41-1.94-1.38-2.87-1.4-19.81-.53-39.76-.81-59.67-.55-40.57-2.18-85.68-4.27-125.61-.47-7.97.76-16.82,10.18-19.15,17.63-3.89,57.7-.77,116.4.34,174.26.29,15.01.63,30.08.98,44.99.75,31.66.61,63.29,2.17,94.85l7.81,4.68-4.07-11.44,2.11-1.11c-.57-1.61-1.06-3.15-1.1-4.89-.63-27.18-.59-54.36-.94-81.54,2.22.55,1.36,1.44,1.35,2.75-.05,6.53-.49,13.25-.32,19.73.45,17.68.29,36.37,1.97,54.01.15,1.57.31,6.39,2.99,5.5-1.97-5.44-.71-11.74-.96-17.53-2.45-57.37,1.54-115.02-.6-171.96-.18-4.81-1.27-9.67-.45-14.49l-2.99,4.99c.24-22.58.9-45.05,2.98-67.51,1.18-12.8-.86-30.93,13.46-37.56,1.42-.66,2.82-.07,4.19-.69,4.6-2.07,16.8-9.03,20.32-9.79,2.8-.6,5.93,1.57,8.36,1.22,4.89-.69,12.28-3.77,18.25-3.59l.84,1.84c14.39-2.09,28.39-.75,43.12-.88,2.95-.03,5.38-1.69,8.45-.03l-2.99,1.98,3.5.05,1.05-3.1c2.85.22,5.18-1.12,5.95,2.08l1.49-2c-.64,4.64,7.75-.67,7.01,3.99l-41.49-1,7.01,1.99,52.48,1.02-2.49,1.99c5.38.93,11.03-.94,16.02-1.06,19.45-.48,36.4,3.71,55.96,4.06,6.95.13,22.76,1.13,28.99.04,2.69-.47,1.65-2.85,3.98-3.13,4.84-.58,9.76,1,14.08.97,5.71-.05,12.41-1.78,18.45-.87v.99ZM275.99,16.78c-7.56.54-14.29,6.02-20.61,9.97-2.45,4.98-4.15,10.38-4.38,16.02,3.47-3.09,2.94-11.47,8.99-11v3.01c3.54-.24,6.03-4.38,6.99-7.53s-6.08.93-7.72,1.29c-1,.22-3.51,1.01-3.25-.76,4.69.18,7.16-3.86,10.06-5.44s8.21-1.37,9.93-5.56ZM439.99,20.77h-38v1h38v-1ZM447.99,23.78l-72.52,3.01-.47,1.98,37.51-1.98c10.37-.55,21.67.16,32.03-.97,1.5-.16,3.09-.21,3.46-2.03ZM246.99,24.78l-35.99,13.98c8.51-2.13,17.61-4.68,26.02-7.47,1.69-.56,4.61-4.29,4.49-1.53-.1,2.23-.49,5.5-1.49,7.52l1.98.49c-1.05-2.99,1.32-4.92,1.8-6.78.31-1.24-.83-2.81-.66-3.11.19-.32,3.89-1.26,3.87-3.11ZM235.99,32.77c-.99-.92-23.11,7.69-25.56,8.93-1.44.73-2.84.93-2.43,3.06l25.95-8.54,2.04-3.45ZM192.99,36.78c-16.27,4.01-33.09,7.99-48.95,13.53-1.47.51-21.5,7.24-18.04,10.45l20.01-8.48,46.98-15.51ZM198.01,41.76l-.51-3.99c-1.01,1.17-2.24,1.83-3.7,2.3-15.49,5.05-32.34,8.4-47.49,14.51-2.93,1.18-20.19,9.39-21.33,10.71-.5.58-1.11.96-.95,1.88l.96,6.59,3.84-1.15.16-3.84.99,1.99c3.14,2.54,3.63-8.6,4.01-8.99,4.25-1.08-.11,5.28,3.47,4.99l1.52-5c3.24-1.12,1.36,3.21,2.48,2.99,5.44-1.06,3.34-4.96,4.67-5.85.69-.46,3.31-.03,4.87-.61,13.34-4.96,26.45-11.94,40.16-15.86,2.31-.66,4.45-.86,6.83-.69ZM327.98,174.76c.88-18.17.6-36.33.99-54.54s-1.4-45.55,4.84-62.13c1.35-3.58,3.37-6.61,5.04-10,.6-3.1-7.57-2.65-7.87-2.33-.25.28.28,3.07-.02,4.3-.18.73-1.62.42-2.09,2.2-1.49,5.68-.69,14.48-2.1,19.8-.21.8-.89,1.7-1.78,1.71l-2.01-5.99-1.01,10.98-3.98-14.99c.1,7.19-.34,14.39-1,21.52-1.68,18.06-4.14,40.68-2.9,58.89.07.99.39,3.75,1.88,3.59l1.01-23.51,1.01-1.98c.14,40.24-3.12,80.16-2,120.49,6.28.13,6.54-3.69,5.98-8.99l-1.98,2.99-2-7.99-1,9.99c.31-8.8-.43-17.73-.05-26.54.83-19.02,1.84-54.4,5.74-71,1.82-7.74.24-16.2,2.32-23.95l-1.53.28-.48-1.79h2.99s.34,43.63.34,43.63l1.65,15.36ZM262.99,850.76l-3.96-90.53c-5.43-123.8-7.88-247.92-10.05-371.95-1.21-69.3.54-140.06-1.96-209.07-.41-11.28-2.6-22.63-3.02-33.87-1.03-27.58.25-55.58-.96-83.11-.21-4.65-1.49-9.71-1.54-14.45l-1.51,6.99-1.98-4.99c.34,15.55.59,30.98.99,46.56,1.88,73.96,3.86,148.01,6.01,221.92.8,27.39.82,54.64.43,82.05-.77,54.28,4.73,109.13,4.6,164-.18,82.22,4.45,163.79,8.95,245.97.45,8.22,1.25,20.08,1.07,27.98-.03,1.44-.29,6.01-2.05,6.5l-1.5-23.99c-2.85,5.36.6,12.44-.51,18.49-.32,1.72-1.06,2.81-2.99,2.5l-2.05-24.45-1.97-68.54-1.43,9.49c1.07,9.96.07,20.05.4,30.04.07,2.13.95,4.04,1.03,5.97.66,16.2-.29,34.21,4.43,49.57l9.58,6.91ZM234.99,50.77h-3.99c-1.62,13.76,4.15,27.61,1,40.99,2.87.43,1.8-.53,1.99-2.47,1.3-12.8-1.43-25.79,1-38.51ZM219.99,53.78c-1.85-.14-3.04-.37-3.78,1.71-2.29,6.44,1.19,11.93-1.21,18.28l3.76-1.63,1.23-18.36ZM195.99,56.78l-4.99,2.5,2.01,1.99c-3.07.76-1.95,2.73-2.02,5.5h4c.18,1.71-2.26.85-2.87,2.62-.44,1.28-.05,2.99-.12,4.38,3.43.61,4.75-.19,4.8-3.79.03-2.21-1.31-2.86-1.39-3.72-.11-1.24,1.22-2.61,1.18-4.02s-1.97-3.18-.59-5.46ZM205.99,57.77c-3.89-.68-5.39,1.48-8.01,3.5l1.68,2.41,4.33-.91-.41,7.05-3.59,1.45,4,.49.02,5c2.06-.47,1.64-1.76,1.76-3.24.4-4.95-.83-10.69.22-15.75ZM188.99,60.77c-5.49-.32-7.84,3.98-5.02,8.56l4.97-.62.05-7.94ZM213.99,60.77l-4.56.94-.43,9.06,4.98-2.5-2.99-2,2.94-.56.07-4.95ZM165.99,61.77c-4.46,1.19-12.65,1.89-9.98,7.99,3.49-2.93,10.45-1.84,9.98-7.99ZM180.99,63.77l-3.05.44-.79,1.21-.15,7.34,4.06-1.61-.07-7.39ZM153.99,65.77c-3.98-.12-6.77,1.69-5.99,5.99,3.98.12,6.77-1.69,5.99-5.99ZM173.99,65.76c-6.53-1.23-4.87,4.63-3.99,9.01l3.84-1.16.15-7.84ZM165.99,68.76h-2.99s1,12.01,1,12.01c3.18-2.26,1.45-8.59,1.99-12.01ZM136.99,204.76l-5.46-130.8-6.23,3.28,1.7,6.02,1,70.5c2.13-.78,1.43-6.23,1.43-8.5.01-22.36-1.58-44.66-1.44-67.02l2-1.49c-.03,2.55.86,4.93,1.05,7.47,2.83,39.02,1.39,79,3.96,118.05.13,2-.79,2.89,2,2.48ZM303.99,124.27c1.18-14.29-.87-30.05,0-44.5-1.76-.22-.95,2.26-1,3.49-.61,14.7-.66,29.35-.95,44.06-.03,1.73-.49,3.33-1.06,4.94h2.02c-1-2.82.83-6.04.99-7.99ZM213.98,195.76l-1.99-101.56-1.5-13.41c-2.11,1.34-1.31,2.54-1.35,4.37-.42,17.9,1.25,38.05,1.89,56.07.61,17.05,1.29,34.01,1.96,51.05.05,1.22-.75,3.72.99,3.49ZM195.99,81.77c-5.22.31-2.38,6.72-2.36,9.66.14,18.44,1.83,37.17,1.33,55.88l2.54,69.47.54-40.55-2.05-94.46ZM136.99,88.27c.6,10.97,0,22.9,0,34,0,1.54.88,3.85,1.01,5.49,1.59.27,1.03-1.4,1.03-2.52,0-13.43-1.67-26.93-1.05-40.47-3.98-.6-1.05,2.41-.99,3.49ZM180.99,109.27c.78-7.05-.57-15.31,0-22.5-4.85,2.45-1.53,6.3-1.39,9.7.23,5.71-.34,11.55-.6,17.3,1.02.28,1.94-4.07,1.99-4.5ZM218.99,165.77v-78l-1.66,6.93c1.59,22.5-.43,45.13.66,67.58.06,1.23-.77,3.7,1,3.48ZM234.98,165.76l-.95-60.54-2.03-12.45.95,52.54,2.03,20.45ZM255.99,128.77v19c-1.76.22-.95-2.26-1-3.49-.54-12.98,1.16-26.2-1.07-39.02l1.07-12.48c-3-.46-1.69.66-1.96,2.5-1.26,8.44-.25,21.99-.08,31.03.79,41.56,2.82,83.41,4.03,124.97.99,34,1.92,67.95,2,102,1,5.28,16.01,2.15,20,4.49l-1-18.99c-2-.83.16,14.13-2.98,9.99l-1.02-48.99c-1.74-.23-.94,2.27-.99,3.48-.64,15.62,2.08,31.16.79,46.8l-1.77,1.71-2.02-17.99c-3.02,1.29,1.56,9.87-2.98,8.99l-3.02-35.99c-2.63,1.69-.1,7.05,0,9.51-1.43,8.28,1.69,19.35.96,26.99-.17,1.82.48,1.64-1.94,1.5-.17-3.13.25-6.35-.02-9.48-4.9-58.47-4.62-117.42-4.95-176.06-.04-7.51.24-15.48,0-23-.05-1.63-.41-6.62-2.04-7.46ZM190.75,140.58c.21-.48-1.43-8.05-1.48-10.33-.24-12.01-.03-24.31-.29-36.49l-2.99,1.01,1.9,2.65-1.89,3.32,2.03.67,2.46,166.36-1.59-125.58c-.34-1.47,1.79-1.5,1.84-1.61ZM264.98,159.76l-1.49-63.01-.54,48.55,2.03,14.45ZM218.99,576.77v-27l10,197.99c-2.16-13.62-.46-27.75-1-41.56-2.94-74.6-6.68-149.16-9.04-223.89-.29-9.24,1.02-22.63.09-30.91-.08-.72-1.87-.14-2.13-2.06-1.32-9.67-.5-23.05-.88-33.11-1.75-46.18-2.95-92.77-4.08-138.92-.39-15.82,1.45-31.62-1.94-46.23-1.45-6.24-.6-21.16-1.01-28.82-1.7-31.62-1.96-63.46-3.99-95.04-.13-1.98.07-6.62-2.01-7.45l2.03,60.46-1.04,40.54,2.01-4.99c1.5-.28,1.35,2.85,1.39,3.87,2.32,59.08,3.34,118.36,4.63,177.57s4.93,121.96,4.97,183.13l2.01,16.43ZM299.99,135.77v-35c-1.76-.22-.95,2.26-1,3.49-.81,19.61.45,39.43.03,59.07-.16,7.79-1.7,15.56-1.02,23.43,1.47-.4,1.52-5.12,1.62-6.55.1-1.58-.39-2.92-.63-4.44l3.07-.55.93-41.45-2.99,2ZM173.98,276.76c.62-17.2-1.58-34.32-2.03-51.45-.95-36.26.61-72.38-2.46-108.55-.69,14.11-.78,28.41-.55,42.56.53,32.08,1.46,64.89,3.05,97.02.28,5.66.78,11.21.99,16.95.05,1.21-.75,3.72.99,3.48ZM154.98,274.76c-.18-8.82.27-17.71.05-26.54-.79-32.49-1.1-65.43-2.08-97.92-.33-10.87.9-21.89-1.46-32.55l1.46,137.55,2.03,19.45ZM228.98,265.76c1.32-19.13-1.65-37.92-2.4-56.86-.97-24.52-.23-50.13-1.58-74.68-.11-1.95.06-6.64-2.01-7.45l2,108.99,1.98-6.99c.49,11.15.55,22.33,1.01,33.51.05,1.22-.75,3.72.99,3.48ZM204.98,322.76c-1.07-64.69-1.21-129.46-4.49-194.01l4.49,194.01ZM177.99,160.77v-28h-1v28h1ZM309.99,187.76c-.71-12.97.76-25.64,2.04-38.44l-.54-14.56c-.81,16.17-3.42,32.53-2.58,48.62.08,1.44.14,2.74-.9,3.9l1.98.47ZM156.99,166.27c-1.1-8.02.81-18.22,0-26.5h-1v28h2c.48-.41-.96-1.21-1-1.5ZM230.99,228.77v40c4.05.65,1.46-7.82,1.42-10.02-.03-1.51-.49-2.46,1.57-2.98.57,8.1-.54,16.46-.43,24.5.04,3.16.11,15.86.92,17.52.23.46,1.3,1.27,1.51.98-1.12-52.58-.95-105.45-5-157.99-1.67-.26-1.07,2.41-1.04,3.53.09,2.85.99,5.27,1.09,7.92.58,15.71.46,31.4.95,47.12.37,12.02,1.8,24.26,1,36.42l-1.99-6.99ZM136.01,320.76l-5.02-159.99c-2.61,1.66-.89,6.96-1.2,9.54-.3,2.43-1.61,4.3-1.79,7.89-.98,19.68,2.38,39.39.91,59.14-.35,1.6,2.13,1.34,2.12,1.93-.04,3.06-3.82,1.56.06,4.92,2.08,148.66,7.47,296.77,14.87,445.12.29,5.9,1.48,12.41,1.54,18.47.7-14.11.77-28.41.53-42.57-1-57.82-6.5-115.23-7.08-172.89-.23-22.46,1.79-44.64.05-67.05l1.99,1.49c1.13-40.15-3.33-79.96-5-119.99-2.57,1.52-.87,7.31-1,10.52-.05,1.21.76,3.72-.98,3.48ZM184.98,291.76c.08-42.39-.9-84.78-3.49-127.01-1.31,37.84,1.05,75.71,1.51,113.5l1.98,13.51ZM195.98,320.76c.23-51.44-.14-102.78-3.49-154.01-1.13,0-.6,20.4-.54,22.55.3,10.79,1.84,22.12,2.08,32.92.5,22.32-1.03,44.82.99,66.98.23,9.34-.41,18.75-.03,28.07.05,1.22-.75,3.72.99,3.48ZM157.99,168.77h-1.99c-.77,1.65.99,3.79.99,4.5v17.5h1v-22ZM164.98,271.76c.26-24.88-3.18-49.58-1.95-74.54l-2.03-19.45c-.62,26.9.52,53.7,2,80.48l1.98,13.51ZM221.99,184.77c-.42-.54-1.94-.98-1.73,1.27,2.2,23.56-.01,48.91,2.23,72.74,1.78-24.7-1.45-49.27-.51-74ZM229.99,191.77v28.5c0,.2.93,3.9,1.99,3.49-.48-9.51-.59-18.97-.99-28.51-.05-1.23.76-3.71-1-3.49ZM173.99,213.77l1.92-3.38-1.92-17.62v21ZM308,251.77l2.53-2.96,1.45-52.04c-1.75-.23-.94,2.27-.99,3.48-.32,7.85-.37,15.68-1.01,23.51-2.96-.83,1.51-8.87-2.99-7.99l1.01,35.99ZM318.98,222.76c1.25-8.59,2.32-17.29,2-25.99l-2.97,17.51.97,8.48ZM301.99,205.27c-1.24,16.3.92,34.05,0,50.5l1.59-16.13,1.41-3.42-1.92-.87.91-34.58c-1.53.15-1.91,3.44-1.99,4.5ZM140.99,252.77v-27h-.99s0,9.5,0,9.5v17.5h1ZM295.99,228.77v27h1v-24.5c0-.37,1.34-1.47,1-2.49h-2ZM219.99,257.77v-25h-1v25h1ZM138.98,301.76l-.95-44.54-2.03-20.45c-.03,20.54,1.14,40.95,1.99,61.51.05,1.22-.76,3.72.99,3.48ZM217.98,344.76c1.75-35.06.46-70-1.49-105.01-2.08,0,.47,37.57.53,41.45.28,19.88-.84,40.3-.03,60.07.05,1.22-.75,3.72.99,3.48ZM233.98,584.76c.26-34.6-.83-69-1.95-103.54s-3.12-69.98-4.06-104.91c-.21-8.02.17-16.07.06-24.09l-2.08-26.92-.46-79.55c-1.12,14.8-.23,29.73-.49,44.58-.07,4.06-1.02,8.97-1.05,12.89-.72,91.47,5.8,182.69,8.05,274.02l1.98,7.51ZM239.99,247.78c-2.79-.42-1.87.47-2,2.47-1.07,16.22-.14,51.79,1.92,68.09.24,1.91,1.92.95,2.16,2.87.95,7.52.76,20.67.95,29.01.21,8.94-.3,17.88-.38,26.81-.01,1.31-.88,2.2,1.34,2.75l.91-32.6-1.91-61.39-1,2-1.97-1.5c2.4-1.89.1-6.47-.04-9.95-.32-8.12-.41-16.08-.9-24.17-.11-1.8.15-2.8.91-4.37ZM334.99,258.77c-11.23,1.88-14.49,16.66-7.49,24.99.81-3.03,2.72-1.98,5.49-2.01l-.99-5.99,2.98,2v-19ZM464.99,272.76c.31-.42-3.92-8.26-5.48-8.01-16.98-.52-34.1.74-51.06.06-18.31-.74-36.71-4.14-54.97-5.03-3.49-.17-7.01.08-10.48,0-.9.68-.67,1.97,1.4,1.86,2.92-.15,5.68,0,8.59.15-.81,3.77-9.63,1.61-10,1.99l1,16.99c2.83.93,1.7-2.21,3.6-2.85,4.48-1.52,13.4,2.65,18.39,2.87l-3.99,2.98c26.11-.42,50.29-10.34,76.51-10.46,2.76-.01,5.61,2.03,8.47.47,1.91,2.2-5.97,3.27-6.98,3.51-19.27,4.69-40.69,7.5-60.36,11.07-.99.18-2.36-1.62-1.64,1.41,29.53-2.41,58.59-8.86,86.99-17.01ZM471.88,263.89c-1.73-.35-7.48-.61-7.89,1.4l3.52,5.47c3.31.36-1.49-4.59-.5-5.99l5.99,4.99-1.11-5.87ZM310.99,273.77v21.5c0,.38,2.37,5.82,2.88,7.13,1.02,2.64,1.03,2.46,1.15-.15l-4.04-28.48ZM236.98,403.76c-2.49-30.75-1.16-61.75-2.95-92.54-.54-9.35-1.69-18.54-2.04-27.97-.05-1.21.75-3.72-.99-3.48.26,28.61-2.03,56.92-1.06,85.53.42,12.27,2.14,24.68,2.77,36.99.78,15.12,1.28,30.27,1.29,45.46,1.74.23.94-2.27.99-3.48.57-13.8.67-30.28.04-44.05-.46-10.2-2.63-20.67-3.08-30.92s.41-20.4.05-30.54c1.74-.23.94,2.27.99,3.48.56,13.66.58,27.33,1.01,41l2.98,20.5ZM177.98,553.76c.78-75.02-4.69-149.54-3.95-224.54l-3.54-41.47-.54,55.55c4,62.46,4.15,125.18,6.2,187.81.05,1.61.81,3.29.88,5.11.19,4.66-.24,9.38-.05,14.05.05,1.22-.75,3.72.99,3.48ZM373.99,287.78c-9.03.64-17.8,3.05-26.78,2.29-1.42-.12-3.6-1.43-3.2,1.19,1.2,1.79,2.49,1.53,4.33,1.45,5.95-.27,17.26-2.13,23.21-3.45.98-.22,2.73-.05,2.45-1.47ZM165.99,298.77c-2.57-1.04-2.75,5.19-2.87,6.62-3.96,45.89,3.41,102.07,5.92,148.83.81,15.15.51,30.46,2.46,45.55l-5.51-201ZM194.99,596.77c-.09-4.8-.94-9.62-1.02-14.44-1.05-60.17-1.34-120.12-3.93-180.1-2.22-32.63-5.26-65.25-5.04-97.97l-.99-3.48c-.45,48.28,2.79,96.47,5,144.48,1.23,26.83,2.39,53.09,2.95,80.05.42,20.35-1.15,48.89,1,68,.17,1.5.21,3.09,2.03,3.46ZM152.98,414.76l-3.44-98.29-1.54-4.7c0,33.18,2.38,66.32,3.99,99.51l.99,3.48ZM154.99,313.77l-1.98.48,2.99,51.01,1.98,17.51c.45-23.09-.32-46.08-2.99-69ZM207.99,567.76c-.37-8.07.17-16.34.03-24.43-1.07-61.92-3.41-124.08-6.07-186.02-.47-11.05-.54-22.01-.96-33.05-.05-1.21.75-3.72-.99-3.48l5.99,245.51,2,1.47ZM208.99,331.77c-3.31-.37-1.42.59-1.61,1.85-.26,1.68-.42,3.92-.46,5.65-1.01,47.62,1.18,101.15,3.07,149.01.05,1.36-.84,4.15,1.49,3.5l-2.5-160ZM218.99,331.77v30l1-3.49c-1.13-7.23,1.31-16.22.76-23.01-.09-1.08-.15-3.64-1.76-3.5ZM198.98,537.76c-1.17-23.13-.25-46.39-.99-69.56-.4-12.59-2.6-25.25-3.04-37.89-1.08-30.8.37-61.85-2.49-92.53l-1.46-5c.13,7.83-.21,15.72,0,23.56,1.22,47.26,3.04,94.75,4.99,142.01.29,7.08,1.64,14.86,2,21.94.23,4.65-.18,9.35.01,14,.05,1.22-.75,3.72.99,3.48ZM582.99,332.78c-45.29,1.91-90.21,7.21-135.48,9l-21.51,2.98c45.28-1.58,90.25-6.81,135.49-9l21.5-2.98ZM237.99,336.78c-1.43-1.44-1.82.07-2,1.47-.76,5.96.9,11.52,1.04,16.98.24,8.75.57,17.41.95,26.05.58,13.49.7,27.05,1.51,40.5,1.98-28.39-1.34-56.71-1.5-85ZM184.99,417.79c-4.55-.45-1.63-3.27-1.89-6.51-1.8-22.62-1.42-45.62-4.14-67.96-.14-1.18-1.93-4.35-1.99-1.03l6.53,205.5c1.2-33.01-2.31-66.24-1.96-99.29.11-9.89.56-19.89,1.47-29.73l1.98,1.02v-1.99ZM667.99,423.27c.15-22.33,0-44.67,0-67,0-1.06-1.47-7.12-2.58-7.4l-207.93,17.89-169.49,9,1.05,44.46c1.73,73.6,2.02,147.7,2.93,220.98.84,68.45,1.4,136.63,6.28,204.82,2.02,6.08,5.92,10.33,9.76,15.23l65.48-4.51,20.51-2.98c-10.02-.33-19.96,1.18-29.96,1.45-4.12.11-25.24,1.03-27.35.56-.79-.17-.58-1.88-1.3-1.98-2.38-.34-10.49,1.53-12.26-.23l-.13-2.83c-4.64,2-9.1-3.57-11.5-6.98l-.48,4.99c.85-3.22-4.98-7.22-5.08-7.69-.53-2.54,2.47-11.49,1.06-15.3l-1.98,3.99c.7-8.17.65-16.29.99-24.51.05-1.23-.76-3.71,1-3.49v19.5l3.99,18.49c.97-5.54-1.04-11.29-1.08-16.49-.02-2.46,1.04-5.12,1.13-7.97.04-1.12.63-3.8-1.04-3.53l-1,6.99c-.38-19.47-.97-38.86-1.14-58.37-.21-24.21-.67-48.8-.92-73.08-.38-38.06-.25-76.04-.94-114.05-1.42-1.62-.98,1.12-1.01,1.98-.74,25.04-.12,50.95-.03,76.08.04,9.99-.03,19.9-.02,29.89s.37,19.42,1.04,29.07c.14,2.01-.22,1.54-2,1.49v-59l-1.44,10.49c.1,3.45.7,8.52.35,11.83-.11,1.06-.4,4.73-1.89,4.67l-2.02-151.99-1.98,3.99c.9-6.53-1.81-13.64-1.5-19.94.17-3.35,2.86-9.09,1.58-13.63l-2.08-2.42c3.73.47,1.14-2.99.99-5.51-1.11-18.2-.77-39.38-2.93-57.06-.2-1.65-1.91-1.12-2.46-4.28-2.91-16.88,2.61-35.36-.61-52.16l4.99,3.51-1.98.48-1,33.01,2.29-13.19,4.69-7.8,1,1.99c-.41-2.78,6.78-10.69,9.01-8.98l-.5,2.99,3.5-3.99-.5,3.99,14.99-8.01.02,1.81c-2.5-.96-3.3,2.68-4.51,4.2.93.76,7.74-3.78,9.55-3.95.4-.04.28,1.6,1.18,1.91,1.81.61,7.62-.09,8.27,1.56-6.2,2.89-11.53,6.79-15.99,12,1.68,2.25,4.22-4.19,5.5-1.51.68,1.41-2.89,3.4-3.5,4.51-.16.74,1.05.68,1.48.49,2.12-.96,4.82-4.22,8.48-5.53.95-.34,3.25-1.32,3.03.53-1.56.05-2.49.96-3.44,2.06-7.32,8.54-15.75,19.7-17.54,30.95,3.06-4.26,6.91-9.54,9.42-14.07.81-1.46.39-3.53,1.51-5.49.4-.7,8.77-7.07,9.57-7.44.43-.2,1.64-.25,1.48.49l-3.99,4.02,1.86,1.58.13,1.9c-2.97.36-5.61,2.39-7,5.01,2.83.11,5.15-2.22,7.73-2.76,15.85-3.31,46.31,3.42,63.78,4.76,19.18,1.48,40.84,2.65,60.03,2.05,3.7-.12,11.86-3.09,14.38.53,2.18,3.12,3.74,13.03-1,14.85-29.74,9.45-59.51,18.93-89.94,26.06l1.01,2.5c-2.34.11-5.46-1.12-5.01,2l-1.98-2.99c.85,4.45-3.64,3.91-7.01,4l7.99,1-4.45.92-.55,3.06-1.98-1.99-.66,2.02c-5.98.1-12.86.26-18.74,1.09-10.04,1.42-18.87,6.13-28.61.88-.37,1.8.87,2.5,2.05,3.44,5.72,4.57,16.6,5.12,23.46,3.58.92.74,8.57-1.74,8.46.48-.14,2.74-5.61-.64-6.52,1.46-1.55,2.41.33,10.14-.47,13.37-.33,1.32-.81-1.1-1.24,4.2-.34,4.17-.45,8.29-.74,12.47l1.98-1.99c-.03,3.44-3.4,4.16-1.98,9l2-.51v29.49s-1.99-8.99-1.99-8.99v14.99s3-1.49,3-1.49c.37,2.12-2.71,1.85-3.03,3.19-.85,3.56.66,9.82.02,13.79l3-1.49c-.33,1.84-.98,3.53-1.05,5.44-.62,17.62.26,35.59.14,53.04-.07,9.51-2.58,22.79-.07,31.84.3,1.09,1.88.27,2,1.18.97,2.78-3.3-.8-2,1.98,4.39,9.36,3.18,71.25,5,88,.76,6.97,2.61,17.58,4.85,24.15.45,1.31.29,3.05,2.12,3.37-2.9-23.49-4.96-47.77-3.99-71.51.05-1.22-.76-3.72.99-3.48.38,19.49.26,38.98,2.02,58.49.36,3.98,3.07,28.56,3.96,29.85.41.6,1.32.68,2.01.67l-.49,2-5.48-1.01v3.99c2.7-.48,14.26,1.29,14.74-1.45l-2.75-31.54-2.98,1v-7.99s1.98,4.99,1.98,4.99l.51-14.01,1.51,19.01,1.98-6.99-.98,12,2.01-.5c-1.24,4.16-2.38,23,.97,25,2.68,1.59,5.82-.41,8.52-.5,13.33-.46,26.77-.55,39.99-2.03l4.49,2.52-68.99,2.5c1.11,1.71.93,4.15,1.68,5.74,3.1,6.56,29.28,1.63,35.83,1.26,14.29-.82,28.64-.97,42.9-2.09,2.59-.2,4.68-2.42,7.58-.91.27,1.44-1.89,1.29-2.96,1.51-16.65,3.33-36.38,2.28-53.52,3.49-8.98.63-17.33,4.19-25.99,1l-1.03,2c2.55,3.67,10.91-.21,15.01,1.01l9.51,1.99h-21c-.69,2.6,1.82,2.4,3.49,2.44,12.27.29,25.59-2.52,38-2.45l7.51-1c-.57-2.85-5.73,0-6.5,0h-14.5l17.47-2.06c15.24.12,30.75-1.47,46.07-2.97,3.26-.32,5.97-.56,8.99-.9,42.77-4.84,85.27-11.75,127.96-17.1,2.9.07,2.8.41.07,1.07-7.84,1.89-16.53,4.31-24.38,5.64-4.99.84-9.24,2.13-14.19.33l1.02,1.98c-4.37.19-8.01-1.18-12.48-.99-10.29.45-26.1,3.54-36.89,5.13-6.19.91-12.31,2.77-18.63,2.87l8.99,1.98c-21.2,1.02-42.11,4.91-63.01,8.5-2.14,2.43-.44,1.28,1.12,1.12,25.79-2.54,51.86-2.76,77.43-7.72,2.22,2.09,3.24,2.03,6.46,2.11l-1-2.98c2.62-1.08,1.74,2.02,2.56,2.04,4.5.1,13.77-1.56,18.78-2.22,23.72-3.14,47.03-8.66,70.32-13.69l43.35-2.13c-2.77,4-8.69,4.17-13,4l.72,2.49-1.33,1.29-6.39.26v2.94s11-.98,11-.98l-12.99,4,7.99.98c-4.19.19-8.63,2.19-12.63,2.67-15.46,1.84-30.6,5.91-47.15,9.05-19.97,3.79-40.27,6.32-60.2,10.3-.25,1.72,2.37,1.06,3.48.98,4.79-.36,10.11-1.89,14.98-2.04,1.12-.03,3.8-.63,3.53,1.04l-86.99,12.02,3.53,1.03c17.5-2.84,35.3-3.67,52.83-6.17,15.56-2.22,31.07-6.29,46.63-7.87l-7.99-1.98c4.12.11,8.27-.55,12.33-1.18,17.81-2.74,36.29-5.5,53.93-9.07,7.28-1.48,14.56-5.09,22.27-5.75,2.29-.2,2.57.4.22,1.23-9.88,3.51-21.39,5.28-31.75,6.77l17.99,1.98c-12.59,1.13-25.05,4.15-37.66,5.63-1.82.21-4.14-.86-6.73-.58-3.35.37-7.89,2.76-11.59,2.97.89,3.05,9.71-2.61,8.99,1.98-22.17.75-43.96,6.48-65.99,9.02l3.47.97c35.36-5.96,71.51-8.41,106.71-15.3,20.63-4.04,37.55-5.61,47.27-26.73,1.92-49.55-.81-99.19-2.46-148.52-.67-20.16-2.11-40.21-1.01-60.43l-2.98,22.99c-.18-8.83.2-17.71.02-26.55-.53-25.51,1.82-51.37-.04-76.93-.16-2.24-.54-9.39-2.98-8.53v-.97c2.93.7,2.38-4.3-.02-4.51l2.01-1c-2.46-1.71-1.79-2.97.01-5.03-1.47-.95-2.53.13-2-2.47l1.99-.49c-1.06-.77-1.53-1.5-1.71-2.81-1.48-10.5.86-25.3-.25-36.24l-4.08-56.92,1.03-10.54,2.02,45.99c2.79-.74.99-1.94.99-2.5ZM284.98,575.76l1.05-71.54c-3.18-32.29-2.78-64.67-4-97-.18-4.72-1.37-30.94-2.97-32.03l-23.08-2.43,3.01,119c1.84.08,2.11.52,1.97-1.49-.65-9.67.2-19.35.05-29.06-.26-16.84-1.96-33.96-.99-50.98l-2.03-31.46c1.92.35,1.65,2.09,2.04,3.45,3.2,11.1,2.79,24.06,2.96,35.54,1.74.23.94-2.27.99-3.48.46-11.29-1.18-22.35.01-33.51l1.98,9.5.02,8.49,2-6.99,2.98,5.99,3.02-9.99.99,5.99c3.4,1.04,1.56-3.71,3.98-3.99-.82,36.41,2.31,72.73,3.02,108.99l1.98-6.99c1.34,26.67-1.09,53.67.01,80.51.05,1.22-.75,3.72.99,3.48ZM221.99,383.77l-3.01.52,7.51,167.49-4.5-168.01ZM238.98,473.76l-.95-54.54-2.03-14.45c-.34,21.89,1.09,43.63,1.99,65.51.05,1.22-.76,3.72.99,3.48ZM406.99,422.78c-20.46-.25-40.56-5.26-60.99-5,.33,1.52,4.47,2.54,5.73,2.76,6.78,1.18,14.06.71,20.76,1.24,10.33.82,20.61,2.41,31.02,1.99,1.22-.05,3.72.75,3.48-.99ZM337.99,442.77v-23c-7.74,1.71-13.22,10.94-13.03,18.46.04,1.69,3.37,15.33,6.03,12.54l-.98-6.99,3.98,6-3.05-14.49,1.05-1.99,2,.49.5-4.01,3.5,12.99ZM183.99,421.77v23.5c0,.29,1.06,5.56,1.99,5.49l.04-12.55-2.03-16.44ZM463.87,434.65c-.11-3.21,1.71-9.21-2.37-9.88-21.99.4-43.97,1.59-66.04,1.04-11.44-.28-26.89-3.39-37.98-2.07-4.99.6-7.7,5.58-13.48,4.02l1.14,13.86c3.67.69,11.63-.29,10.87,5.15,11.74-3.3,24.8-4.81,36.99-4.02l-4-1c2-3.55,7.71-1.54,11.42-2.07,4.53-.65,10.77-3.15,15.17-3.83,14.7-2.29,29.83-2.68,44.41-6.08l-3.45,2.04-38.54,6.96,7.99,1.98-34.99,8.02c-.26,1.74,2.32,1.02,3.38.89,4.62-.6,9.75-2.72,14.6-2.89l-12.99,4.98c23.21-3.23,45.51-10.57,67.87-17.11ZM471.86,424.91l-3.86-.15v8s6-2.01,6-2.01l-2.14-5.84ZM413.99,440.78c-7.44-.26-16.23,3.95-23.55,4.02-2.96.03-5.49-1.24-8.91-1.05-8.61.47-23.92,4.1-32.36,6.74-1.7.53-2.63-.41-2.17,2.27l14-2-1.01-1.98c4.76-1.12,9.62-1.21,14.52-1.01,1.21.05,3.72-.76,3.48.99l-20.99,5,23.22-3.27,33.77-9.71ZM163.98,485.76c.25-12.9-.46-25.66-.99-38.51-.05-1.22.76-3.72-.99-3.48l-.05,24.53,2.03,17.46ZM152.99,451.77c-3.7-.85-1,4.09-.95,6.45.49,22.88.1,45.83,2.45,68.56,1.52-24.99-2.02-49.99-1.51-75ZM185,487.77c1.9-.37,1.39-1.4,1.48-2.66.63-9.61-1.3-21.59-1.99-31.35-1.86-.01,1.12,31.18.51,34.01ZM247.98,553.76c.17-31.92-1.74-63.63-2.99-95.5-.05-1.22.75-3.72-.99-3.49l-.05,14.54c2.82,26.89,1.93,53.98,3.04,80.97.05,1.22-.75,3.72.99,3.48ZM143.99,489.27v-29.5c-1.56-.21-1.32,2.84-1.46,4-1.26,10.29,1.78,23.25.47,33.99l.99-8.49ZM301.98,513.76c-.75-15.85.53-34.88-3.28-50.21-.25-1.01-.28-3.01-1.7-2.78.28,5.04,1.61,10.54,1.98,15.5.79,10.49.12,22.73,1.26,32.95.13,1.15.14,4.61,1.74,4.53ZM329.99,545.77v24h2v-72c1.76-.22.95,2.26,1,3.49.17,3.99-.18,8.01.01,12,.11,2.22.96,4.38,1.04,6.96,1,33.02-.62,68.72-1.08,102.11-.06,4.01,1.94,6.25-1.05,8.88l1.09,39.57c2.08-.52,1.85-3.83,1.95-5.53.57-9.89-.72-20.12-.47-30,.07-2.92,1.94-6.61.52-10.47l1.98,1.01c.1-2.82-.11-5.69,0-8.52.05-1.22-.75-3.72.99-3.48.1,19.45,2.77,39.54-.99,58.51,1.8,14.58,2.39,29.29,3,43.99.05,1.22-.76,3.72.99,3.48l1.05-43.45c-.11-50.56-3.61-102.3-2.09-153.1.09-2.92.94-5.7.36-8.65l1.68-7.8c.27,57.11-1.07,113.7,3.02,170.49l1.99,8.51v-47l2.99,17.99c.79-40.8-1-81.74-.03-122.54.28-11.64.22-24.31,1.05-35.95.35-4.95,3.21-10.03,1.99-15.51l-8.98,3.5,3.97,3.5c-2.26-.54-6.07-2.84-7.99-.49l7.41,1.5.11,1.97c-4.99-1.81-10.49-1.71-15.49-3.51-5.57-2.01-8.83-6.27-14.03-8.46,1.44,3.4,3.47,6.75,6.51,8.98,2.04,1.5,9.43,3.82,9.47,4.51.03.49-1.27,3.5-2.98,2.49l1-2.98-6.99-1c-.81,1.18,7.94,3.2,3.5,3.99l-10.51-3.99,9.01,6.49c-3.09.4-5.88.56-7.04,3.96l2.04.04-.24,94.97.2,46.06,2.05,27.45c1.75.23.94-2.27.99-3.48.51-12.34.17-25.63.04-38.05-.36-33.37.02-66.27,1-99.92.26-8.83-.28-17.72-.03-26.54l1.8,1.6-.72,104.9c-3.28,25.87,1.64,52,.91,78.01l.99,3.48c1.17-21.22-1.32-42.37-1.43-63.49-.14-26.35,1.88-52.64,1.44-79.01l1-3.49ZM169.98,578.76l-1.97-76.54-2.01-13.45c.69,25.19,2.3,50.3,1.95,75.54l2.03,14.45ZM313.99,599.77v-27c1.76-.22.95,2.26,1,3.49,1.01,24.28-.75,48.78,0,73.08l2,19.43v-24h1v23c1.76.22.95-2.26,1-3.49.48-11.66-.42-23.41.08-35.08-.04-1.82-1.91-.94-2.16-2.87-3.4-26.86-.68-75.42.03-104.11.16-6.51,1.38-14.25,1.88-20.86l-4.83-2.58-1.05,58.34,2.05,1.15c.06.38-5.22,1.1-.01,2.99-1.81.87-2.31,5.27-1.92,6.87.22.9,2.81.45,1.92,3.14l-2-.5-.99,28.53,1.98.48ZM210.99,504.77v14.5c0,1.26.7,2.87,0,4.49,2.24.14,1.83.37,2.02-1.52.17-1.72-.26-9.55-.46-11.76-.12-1.29-.04-5.61-1.57-5.72ZM305.98,547.76v-28.56s-1.98-14.43-1.98-14.43c1.16,13.12.45,26.37.99,39.51.05,1.22-.75,3.72.99,3.48ZM215.98,637.76l-3.03-87.45c-.21-6,.28-12.05.04-18.05-.05-1.22.75-3.72-.99-3.48-.4,35.19,1.67,70.38,2.99,105.5.05,1.21-.75,3.72.99,3.48ZM201.98,595.76l-.95-41.54-2.03-15.45.95,43.54,2.03,13.45ZM308,622.77c2.22-.55,1.36-1.44,1.34-2.75-.24-24.48-.03-48.97-1.85-73.26-1.48,25.34,1.55,50.6.51,76.01ZM175.99,601.77v-38h-1v38h1ZM155.98,633.76l-2-51.48-1.98-16.51c-.9,17.92,2.73,35.57,2,53.48l1.98,14.51ZM270.98,808.76l-8.98-239.99c-.22,22.23.4,44.31,1,66.48,1.43,52.6,4.34,105.22,6,158l1.98,15.51ZM185.98,742.76l.05-53.54c-3.3-39.3-.64-79.09-4.54-118.47-2.7,56.27,3.95,112.28,3.5,168.52l.99,3.48ZM230.98,666.76c-.55-18.45.76-37.09.05-55.54-.38-9.93-2.78-19.93-2.05-29.95l-1.98-8.51.95,64.54,3.03,29.45ZM238.98,682.76l-.88-23.61c.4-27.75,1.92-55.67-1.61-83.4-1.62,13.35-1.74,27.02-1.51,40.58.2,11.49,1.45,23.47,1.99,34.94.45,9.35.65,18.64,1.01,28,.05,1.21-.75,3.72.99,3.49ZM188.99,631.77v-41.5c0-.17-1.35-1.57-1.99-1.5.5,13.15.44,26.3.99,39.51.05,1.23-.76,3.71,1,3.49ZM161.98,647.76c-.84-16.49-1.31-33-1.99-49.51-.05-1.22.76-3.72-.99-3.48l1,43.49,1.98,9.5ZM204.01,609.76l-1.02-12.99-1.03,8.54c2.39,9.05,1.53,17.93,2,27,2.19,42.24,3.65,84.67,6.03,126.97.24,4.18-.5,9.05,0,13.01.19,1.46.76,3.1,2,1.48-1.08-40.1-1-80.39-2.97-120.54-.86-17.45-2.92-34.9-3.03-52.45-4.52-.97,1.65,7.66-1.98,8.99ZM303.99,635.77v-35.5c0-.12-1.88-2.34-2.01-.98.75,8.38,1.24,16.91.57,25.32l1.45,11.16ZM314.99,822.76l-1-222-1.57,2.96c-2.06,16.91-.41,33.71-.39,50.48.06,49.6-1.14,99.61,1.01,149.02.25,5.71-.74,12.63-.04,18.06.18,1.38.74,3.13,2,1.48ZM179.99,723.76c-2.91-33.78-2.88-67.74-4.04-101.54l-2.94-20.45c-.85,7.53.68,15.29.98,22.51,1.33,32.37,1.89,64.72,4.01,97.01.13,2-.79,2.89,2,2.48ZM212,649.77c2.22-.55,1.36-1.44,1.34-2.75-.14-14.78-.14-29.62-1.85-44.26-1.89,15.72,1.18,31.29.51,47.01ZM352.98,698.76l-1.49-83.01c-.98,13.12-.43,26.38-.46,39.55s-1.07,26.17-.05,38.96c.09,1.17.31,4.48,2,4.49ZM170.98,661.76v-18.48s-1.98-14.51-1.98-14.51c.09,9.83.58,19.67.99,29.51.05,1.22-.76,3.72.99,3.48ZM309.99,669.27c-1.24-12.13.92-26.16,0-38.5-2.79.75-1,2.02-1,2.5v39.5h1.99c.55-1.44-.92-2.81-.99-3.5ZM282,686.76l-2.02-48.99c-1.75-.23-.94,2.27-.99,3.49-.38,9.02.83,17.26,1.03,25.95.84,36.85,1.05,73.71,2.47,110.57.16-13.8,1.07-27.71,1.55-41.46.1-2.91.29-5.84-1.05-8.54,2.79-.42,1.87.47,2,2.47.15,2.32-.1,4.7,0,7.03.05,1.22-.76,3.72.99,3.48l-1-65c-1.32-1.62-1.81.12-1.99,1.48-.36,2.65-.39,6.61.98,9.04l-1.98.48ZM219.99,671.77v68c3.88.79.99-5.07.95-7.53-.35-18.89.84-38.02.05-56.98-.05-1.23.76-3.71-1-3.49ZM236.98,747.76c-.43-14.8.6-29.74.05-44.54-.09-2.36-.94-4.55-1.08-6.92-.28-4.71,1.73-12.45-1.95-15.54,1.41,21.16,1.12,42.35,1.99,63.51.05,1.22-.75,3.72.99,3.48ZM321.99,759.77v-71h-1v71h1ZM167.98,747.76l-.95-39.54-2.03-15.45.98,39.57,2,15.42ZM245.99,699.77l-1.98.48c1.99,8.54.72,18.18.95,27.08s1.41,17.68,1.53,26.45c1.76-18.04-.62-36.02-.51-54.01ZM308.99,705.77v65.5c0,1.96-.76,6.61,1.99,5.49-.41-19.48.54-39.06.06-58.54-.06-2.33-.86-4.2-.96-6.06-.12-2.28,2.89-7.12-1.1-6.39ZM352.98,743.76l-1-25.49-1.98-8.5.04,12.51,2.94,21.48ZM199.99,775.76c-2-16.92-.54-34.43-2.01-51.48-.12-1.38-.48-6.04-1.98-6.51,1.29,18.42.77,37.05,1.99,55.51.13,2-.79,2.89,2,2.48ZM153.99,749.27c.07-8.83-.05-17.68,0-26.5-1.76-.22-.95,2.26-1,3.49-.28,7.37-1.24,16.84-.8,23.93.1,1.57-.31,4.08,1.79,4.58.57-1.86,0-3.9.01-5.5ZM191.98,753.76v-11.48s-1.98-12.51-1.98-12.51c-.13,6.88.72,13.63.99,20.51.05,1.21-.74,3.72.99,3.48ZM350.99,801.76c-2.87-5.94.39-11.33-2.92-17.57l-5.07-48.42c-.18,12.89.52,25.81,3.03,38.46l-1.03,8.53c-.09-2.49.1-5.01-.01-7.51-.05-1.22.76-3.72-.99-3.48l-.08,15.45,3.06.56-2.04,1.64.06,6.35,2.99.5-2.99,1.48,5.99,4.01ZM149.99,752.27c.05-5.16-.03-10.35,0-15.5-3.69,1.97-1.09,6.8-1,9.51.12,3.82-.08,7.67.01,11.48,2.27-.26.98-4.35.99-5.49ZM231.99,736.77v41.5c0,1.25.25,4.27,1.99,4.5-1.26-14.1-.4-28.34-.99-42.51-.05-1.23.76-3.71-1-3.49ZM221.99,740.77h-2c-.45.43,1,3.74,1,4.5v22.5h1v-27ZM352.98,783.76l-2-33.49-1.98-9.5c-.24,13.44.08,26.97,2.24,40.25.15.9.43,3,1.74,2.74ZM331.99,781.77v-25h-.99s-.01,4.5-.01,4.5v20.5h1ZM245.98,819.76l-2-54.48-1.98-6.51,1,31.48,2.98,29.51ZM219.98,804.76c.1-13.53-.44-26.98-.99-40.51-.05-1.21.76-3.72-.99-3.48.8,12.52-.74,26.62.38,38.88.11,1.24-.09,5.06,1.6,5.11ZM335.99,787.27c-.13-8.49.09-17.02,0-25.5l-1.44,13.5.44,16.5c3.32.91,1.02-3.03.99-4.5ZM281.99,832.76c-1.98-7.08-.73-15.11-1-22.56-.3-8.22-1.66-16.67-2.04-24.89-.23-4.99.25-10.05.04-15.05-.05-1.22.75-3.72-.99-3.48.15,21.14.59,42.51,1.99,63.51.13,2-.8,2.89,2,2.47ZM211.99,808.27c-.52-8.77.38-17.72,0-26.5l-3.05,25.55,2.57,4.44c3.3.34.53-2.78.48-3.49ZM233.99,783.77h-2c-.48.41,1,1.27,1,1.5v38c0,.61-2.4,3.13-2,3.49,7.96-.56,3-6.48,3-10.49v-32.5ZM356.98,797.77c1.28-1.79-2.77-13.46-4.98-10.99.49,3.92,1.08,9.04,4.98,10.99ZM618.99,800.78c-8.18-.75-15.87,2.32-23.81,3.67-18.9,3.22-41.73,7.14-60.69,8.11-1.04.05-2.94-1.17-3.5-.79l1.02,1.98-32,4c2.29-.22,2.12.17.99,2,22.99-.4,45.37-6.96,68.21-9.28l49.79-9.7ZM635.99,801.77l-30.99,5.98c8.75.1,18.63-1.34,27.19-3.32,1.75-.41,4.48.05,3.8-2.66ZM229.99,824.77v-16l-2.01,12-2-3.99-2.98,1.99-.02-15.99c-2.65.81-1.4,7.97-2.14,8.85-.34.4-4.2.62-4.83,2.64l13.98,10.5ZM167,804.78c-20.17-.58-40.43,2.81-60.51,3.98-12.54.73-25.42.49-38,1.01-1.22.05-3.72-.75-3.48.99,33.65,1.31,66.94-3.31,100.51-3.99l1.48-1.99ZM240.99,823.77v-17c-2.96,1.77-.79,7.53-.93,10.48-.16,3.45-1.72,6.86-1.08,10.51-.53.65-4.66-2.77-4.01.51.49,2.48,10.85,10.59,12.01,9.48-1.2-2.59-.46-5.7-1.03-8.28-.09-.42-4.52-4.38-2.97-7.71l-1.99,1.99ZM448.99,813.76c-1.44-2.31-8.72-1.19-11.49-.99-19.23,1.4-38.35,6.68-57.5,6.49,3.22,2.35,10.04,1.57,14.17,1.3,17.82-1.17,36.7-6.17,54.82-6.8ZM173.99,813.78c-31.9.73-63.74,2.09-95.51,3.99-2.01.12-2.88-.77-2.47,2,11.74-.54,23.71-2.45,35.45-3.04,18.51-.93,38.81.56,57.03-.97,1.21-.1,5.35-.37,5.51-1.98ZM500.99,814.78c-12.95.6-25.71,3.65-38.54,5.01-14.63,1.56-28.62,1.32-43.7,4.25-.94.18-1.79.75-2.76.75l1.01,1.97c-1.48.94-7.02-2.82-6,1,2-.22,4.46.43,6.34,0,17.1-3.89,38.01-4.4,57.02-7.13l26.64-5.85ZM535.99,817.78c-14.7.37-29.29,4.48-43.76,6.72-7.94,1.23-20.17,1.13-27.03,3.04-1.72.48-2.64-.52-2.19,2.23,9.32-2.98,19.8-1.9,29.37-3.12,11.93-1.52,25.28-4.36,37.12-6.88,1.71-.36,5.87-.38,6.49-1.99ZM436.99,818.78c-12.85,1.22-25.67,3.6-38.51,4.98-4.91.53-9.77.07-14.98,1.04-1.63.3-1.73-.65-1.5,1.96,15.59.7,30.72-3.4,46.02-5.47l8.97-2.51ZM614.99,821.76c-.59-2.13-1.27-1.52-2.77-1.35-3.87.46-10.63,1.71-14.45,2.65-1,.25-3.01.28-2.78,1.7l19.99-3ZM179.99,820.78c-15.8.87-31.69.34-47.51.99-1.22.05-3.72-.75-3.48.99,12.8-.39,25.74.55,38.54.05,2.17-.08,4-.92,6.01-1.09,2.18-.18,5.34,2.36,6.45-.94ZM429.99,827.78l-34.99,4.98,8.37-.12,26.62-4.86ZM634,849.76l20.52-5.9-.51-15.65c-7.8,2.31-16.95,1.79-24.01,6.06l17.99-2.5c-2.52,3.23-6.05,5.67-9.99,7,.89,2.28,6.01.39,7.99,1l-2.99,2.49,1.99,1.48-10.99,6ZM155.99,831.77h36.5l7.49-1.99c-13.53.25-26.97.42-40.51.99-1.23.05-3.71-.76-3.49,1ZM507.99,830.78c-20.96,2.93-41.89,7.88-62.99,9-.7.57-.85,1.32.94,1.69,3.63.77,9.18-1.45,11.06,1.29l-14.37.14-43.62,7.86,17-1-1.02-1.98c13.9,2.02,28.44-4.15,42.46-3.94l1.15-3.12c15.36-2.82,31.25-4.6,46.38-8.47,1.14-.29,3.25.06,3-1.47ZM287.99,832.77c-2.34-.14-1.77-.33-2,1.48-.78,6.07.88,12.47,0,18.52-2.48-1.35-3.08-4.47-5.09-6.4-2.35-2.25-4.57-1.59-4.74-1.8-.75-.96.06-3.53-2.15-3.8-.18,17.23,5.52,26.83,23.99,19.99-1.16-4.14-5.17-6.64-6.79-10.69-1.91-4.78-2.89-12.15-3.21-17.3ZM515.99,838.78l-6.24.24-20.75,4.73,13.26-1.23,13.73-3.75ZM419.99,842.76l-1.01-3-34.36,5.14-12.62,2.86c16.11.11,31.92-4.66,47.99-5ZM466.99,844.78c-10.75,1.41-21.63,2.54-32.36,4.13-1.58.23-6.02.44-6.63,1.85,11.86-1.33,24.38-1.82,36.01-4.49,1.11-.25,3.23,0,2.98-1.49ZM397.99,851.76l-.48-1.98c-7.83,2-16.85,1.37-24.89,2.11-1.11.1-5.51.46-5.62,1.86l30.99-2ZM177.99,853.77h51.5c.17,0,1.57-1.35,1.5-1.99-16.47.96-33.01.3-49.51.99-1.23.05-3.71-.76-3.49,1ZM577.99,852.78l-230.99,24.98c14.68.4,29.28-2.19,43.86-3.4,58.21-4.81,116.48-10.45,174.49-18.74l12.64-2.85ZM474.99,853.78l-40.37,4.11-8.62,1.87,41.37-4.11,7.62-1.87ZM577.99,859.76l-.48-1.98c-22.62,3.05-45.35,6.46-68.03,8.97-50.2,5.56-100.9,8.6-150.98,15.02-3.8.49-8.42,1.07-12.08,1.96-1.7.41-2.92-.99-2.42,2.02l233.99-26ZM385.99,869.78c-12.68-.15-25.41,1.13-37.99,2.48l11.49.5,26.5-2.98ZM295.99,878.78l-12-1.01c.48,2.54-1.82,11.99,2.95,10.47,3.87-1.24,7.76-2.38,12.06-2.47,2.72-2.23-8.17-3.3-9-3l5.99-3.98Z"/>
      <path d="M578.99,361.77l-22.51,3.99c-13.76-.98-27.31,3.45-40.89-.06l-1.09,2.08-2.51-3.01c16.29.56,32.47-5.26,48.99-4l-7.99,1c1.43,3.5,7.65-.01,9.49-.01h16.5Z"/>
      <path d="M398.99,470.78l-51.99,8.98c.43-1.86,2.49-2.04,3.98-2.51,8.54-2.67,20.18-3.23,29.27-4.75,2.39-.4,6.83-2.57,8.31-2.7,3.13-.28,6.95,1.82,10.43.98Z"/>
      <path d="M674.99,686.76c-2.77.41-1.88-.46-2-2.47-1.1-18.36-4.34-42.25-3.05-60.07.12-1.71-.11-3.31,1.56-4.44l3.49,66.99Z"/>
      <path d="M531.99,795.78l-7.61,1.87-49.38,4.11c-.74-3.74,2.81-1.21,4.52-1.48,17.11-2.66,35.02-3.43,52.47-4.5Z"/>
      <path d="M366.98,556.76c-1.74.23-.94-2.27-.99-3.48-.77-18.75-.25-37.93,1.5-56.52.88,20.08-.2,40.05-.51,60.01Z"/>
      <path d="M654,436.77l-2-51.99c1.43.15,1.72,4.4,1.87,5.62,1.35,10.68,1.89,23.99,2.14,34.83.08,3.34,1.16,9.76-2.01,11.55Z"/>
      <path d="M367.99,673.76c-2.78.42-1.88-.46-2-2.47-1.32-21.79-1.98-43.72-2.99-65.52l1.98,10.51c.19,19.2.78,38.43,3.01,57.48Z"/>
      <path d="M412.99,787.77v1h-22c1.14,1.91,4.36,3.77,6.44,4.06,13.04,1.78,30.13-2.58,43.55-2.05-.92,1.66-5.71,1.91-7.46,2.03-6.57.44-14.42.86-20.98.99-4.19.08-16.5.72-19.53-.55-4.33-1.81-1.79-5.22-2.02-5.46s-5.23-.4-6.01-2.52l5.99,1.5-2.99-20.99,4.25,18.23,2.24,3.76h18.5Z"/>
      <path d="M644,774.76c2.21,2.29,10.36-13.21,11.99-13.99-1.88,7.59-7.59,15.13-14.98,18l5-20c4.56,1.72-3.22,14.73-2.01,15.99Z"/>
      <path d="M522,787.76l-42.99,5c-.42-2.77.46-1.89,2.47-2,13.39-.78,26.79-2.7,40.04-4.98l.48,1.98Z"/>
      <path d="M418.99,399.78c.23,1.74-2.27.94-3.48.99-12.49.51-25.25-1.76-37.5,1-.42-2.77.46-1.89,2.47-2,12.97-.76,25.53-1.02,38.52.01Z"/>
      <path d="M550.99,369.78l-28.5,3.98h-16.48c-.24-1.74,2.27-.95,3.48-.99,13.9-.53,27.65-2.2,41.51-2.99Z"/>
      <path d="M412.99,411.78c.23,1.74-2.27.94-3.48.99-11.2.46-23.72-.05-34.88-1.12-1.12-.11-5.51-.46-5.62-1.86l43.99,2Z"/>
      <rect x="358.99" y="488.77" width="1" height="47"/>
      <polygon points="456.99 781.78 430.35 786.63 418 787.76 450.62 781.9 456.99 781.78"/>
      <path d="M353.14,407.61c.81.73,8.75-.29,9.85,2.15-3.24-.22-16.89,1.51-15.52-4.09.79-3.24,3.07-3.34,4.97-.8.55.73.33,2.41.69,2.74Z"/>
      <path d="M643.99,537.27c.15,1.28,2.83,2.89-1,2.5v-38h1c.94,11.28-1.26,24.47,0,35.5Z"/>
      <path d="M547.99,380.78c.23,1.74-2.26.94-3.48.99-9.22.41-18.31,1.64-27.51,1.99l18.5-2.98h12.49Z"/>
      <rect x="668.99" y="528.77" width="1" height="35"/>
      <path d="M569.99,801.78l-5.93,2.34-21.05,3.65c-.49-3.07.77-1.61,2.49-1.97,8.04-1.69,16.36-2.9,24.5-4.02Z"/>
      <path d="M650.99,365.76l-21.99-4.98c6.92.04,16.54.4,21.99,4.98Z"/>
      <polygon points="610.99 781.78 592.05 787.32 586 787.76 610.99 781.78"/>
      <polygon points="613.99 825.78 596.37 829.65 590 829.76 601.76 827.04 613.99 825.78"/>
      <path d="M369.99,788.77h-1v-21.5c0-.77-1.72-2.88-.99-4.5.25-.33,1.99,1.27,1.99,1.5v24.5Z"/>
      <path d="M602.49,359.77c-.5.02-4,3.56-1.51-.51,3.67-1.83,7.61-.73,11.48-1.21l7.53,1.72c-5.81.19-11.69-.27-17.5,0Z"/>
      <path d="M641.99,638.27c.04.29,1.48,1.09,1,1.49h-2s0-15.49,0-15.49c0-1.47-1.4-5.51-.99-6.49h.98c-.22.95,1.01,2.03,1.01,2.49,0,5.39-.69,12.99,0,18Z"/>
      <path d="M644.99,28.78l-8,3.98c4.87-.4,9.45.75,13.82,2.74,1.44.65,2.72-.58,2.18,2.27-4.93.04-7.85-2.01-11.98-3.99l2.99,3.02-1.49,1.95c-10.76-6.23-19.42-10.94-32.5-8.97l2.49,2-122.51,1.49,10.02-1.51-1.01-1.98c26.76-1.54,53.65-.73,80.55-.97,2.61-.02,5.06-1.07,7.91-1.09,19.35-.1,38.31.59,57.55,1.06Z"/>
      <path d="M288.99,112.76c-2.79.42-1.87-.47-2-2.47-1.43-22.06-2.35-44.92,1.29-66.73l6.7-15.78c.39,5.27-2.1,10.98-2.86,16.62-1.3,9.59-1.41,19.28-2.13,28.87-1,13.29-2.66,26.27-.99,39.5Z"/>
      <polygon points="475.99 41.76 414 44.76 426.5 42.78 475.51 39.79 475.99 41.76"/>
      <polygon points="343.99 207.78 342 206.76 342.01 213.76 338.98 194.28 341.98 198.76 343.49 178.76 343.99 207.78"/>
      <path d="M644.99,104.77v32h-2v-28.5c0-.93.73-2.12,0-3.49h2Z"/>
      <path d="M574.99,36.76c-13.59-3.11-27.38,1.3-41-.49l38.46-2.52,2.55,3.01Z"/>
      <path d="M645.99,289.27c1.62-5.54,1.64-11.44,2.95-17.06.64-2.73,1.03-2.76,1.08.08l-4.03,34.48v-17.5Z"/>
      <path d="M663.98,75.76c-1.15-.28-2.82-4.77-2.93-5.56-.66-4.75-.42-11.53-.05-16.43,1.38.59,1.66,5.1,1.86,6.62.67,4.94,1,10.38,1.11,15.37Z"/>
      <path d="M603,53.78c.03,1.7.56,2.17-1.41,1.92-9.26-1.17-18.22-2.21-27.6-2.43.02-1.93,26.03.46,29.01.51Z"/>
      <path d="M637.99,120.77c2.33.31,3.28,11.29,3,12.37-.19.73-1.66.58-1.78.78-.55.91,2.64,3.48-1.23,2.84v-16Z"/>
      <path d="M611.99,45.77l-10.43,1.77c-4.29-1.44-8.51-.46-12.81-.41-1.32.02-2.21.88-2.75-1.35h26Z"/>
      <path d="M359.99,62.78c-1.01,1.91-3.6,2.32-5.38,4.1-7.25,7.24-8.21,18.69-7.74,28.33l-1.86,7.55c.47-13.35-.86-35.35,14.98-39.98Z"/>
      <path d="M525.99,324.78l-12.51,1.98h-14.48c-.24-1.74,2.27-.94,3.48-.99,7.86-.3,15.65-.99,23.51-.99Z"/>
      <path d="M616.99,300.78c-3.85,4.9-7.08,9.75-14,9.98l14-9.98Z"/>
      <polygon points="558.99 330.78 543.48 332.76 534 332.76 546.51 330.78 558.99 330.78"/>
      <path d="M373.99,53.78l-18.99,4.98c4.1-4.35,13.26-4.69,18.99-4.98Z"/>
      <path d="M347.98,616.76c-1.74.23-.94-2.27-.99-3.48-.49-11.97.25-24.07.05-36.06-.33-19.17-2.01-38.68-1.05-58.02.09-1.89-.21-5.75,1.99-6.43v103.99Z"/>
      <path d="M335.01,504.76l1.98-1.99,1,59.99c-1.74.23-.94-2.27-.99-3.48-.81-19.69-1.71-39.34-3.03-58.99l1.02-3.52.02,7.99Z"/>
      <path d="M403.99,433.77v1h-45v-2c.41-.48,1.27,1,1.5,1h43.5Z"/>
      <rect x="371.99" y="272.77" width="41" height="1"/>
      <path d="M278.99,376.78c.31,1.28-1.85,1.64-2.64,1.66-4.11.07-12.81-.57-16.36-2.21-1.51-.69-2.48.15-1.99-2.46,6.46,2.78,14.01,2.57,20.99,3.01Z"/>
    </g>
  </g>
</svg>