<?xml version="1.0" encoding="UTF-8"?>
<svg id="Layer_2" data-name="Layer 2" xmlns="http://www.w3.org/2000/svg" viewBox="0 0 781.18 947.49">
  <g id="Layer_1-2" data-name="Layer 1">
    <g>
      <path d="M548.94,633.73l-10.02,222.48c-1.09,11.64-3.39,21.03-16.8,22.2-123.76,23-246.63,52.75-371.46,69.08-6.39-1.13-12.37-8.97-17.2-12.8-1.36-1.08-3.55-.85-5.07-1.93-9.39-6.68-38.59-51.28-47.28-63.72-23-32.9-45.49-66.47-66.13-100.87-1.56-15.65-.56-31.31-1.01-46.99C7.98,513.56,5.31,305.1,1.89,97.27c-.38-23.04-3.37-55.24-.96-77.05.6-5.47,1.9-8.6,7.6-9.4,16.3-2.31,35.33-1.32,51.95-2.05,67.28-2.98,134.46-4.74,202-6,32.26-.6,70.15-4.32,101.95-2.03,43.02,3.09,113.74,17.97,155.28,30.72,9.74,2.99,24.34,10.57,32.79,12.21,15.27,2.95,36.72,2.49,52.94,4.06,32.58,3.16,65.4,6.13,97.88,10.12,16.97,2.08,39.39,3.76,55.4,8.6,13.24,4,7.57,12.77,7.18,23.74-1.04,29.58-2.01,59.37-3.92,88.92,25.64,54.25,18.92,120.47,16.92,179.08-2.23,65.32-1.55,135.31-23.96,197.04-1.38,37.67.62,76.53-.95,114.05-.19,4.58-.56,15.86-1.51,19.49-1.7,6.5-17.96,18.57-24.76,17.79l-178.76-72.81ZM106.93,29.72h26v1h-23c-.22,1.76,2.26.95,3.49,1,8.12.34,15.14-.43,23.02-.99,14.34-1.02,28.44-1.99,42.97-3.03,12.2-.87,25.52-4.25,38.03-4.97,5.79-.34,11.69.21,17.49,0l-42.37,4.12-31.14,4.86-42.49,3.02c-.12,1.6,2.51,1.63,3.62,1.86,13.28,2.79,25.89-1.13,38.89-1.86,3.48-.2,7.01.1,10.49,0l-8.51,1.98c-9.58-.87-18.74,1.76-28.17,2.61-1.9.17-4.41-1.7-5.32,1.39,6.89,2.15,12.28,1.85,19.35,1.03l1.15-2.03c.89,2.23,1.6,2.36,3.97,2.46,21.41.89,43.11-3.46,64.52-2.44l-14.51,1.98-63.48,3.02,13.99,10.98c-10.37-3.36-17.52-15.39-30-10.98l1.53,2.98-12.53-4,3-2.98c-5.12-2.37-11.77,1.89-14.99-3l2.99-.51-5.99-2.5,1.01,2.98-3.01.02c-2.08,1.66,16.32,8.98,18,9.01,1.3,2.52-4.07,1.88-1,3.49,3.73,1.95,16.6,6.35,21.2,7.8s9.33,1.68,13.79,2.71c-.19,2.64-3.92-.01-4.49-.01h-24.5c.97,2.31,5.31,2.77,7.51,2.99,19.65,1.9,41.08-2.73,61.03-.95,84.4-1.15,168.69-9.49,253-12,22.6-.67,46.3-2.55,69-1.08,4.68.3,10.87,4.96,9.46-2.95l8.49-.02,12.5-1.98-112.77-25.74-4.21.71,11.99,3-25-3c-1.03-4.22,5.33-.21,6-2.98-11.73.42-23.91-3.34-35.45-4.05-1.17-.07-5.54-.72-5.54,1.03,2.56.19,7.64-.84,8.99,2-7.9-1.28-14.99-1.55-22.99-.99-.94-4.56,6.93.57,5.99-3.99l-63.99.98c.38-1.82,1.97-1.86,3.46-2.03,15.54-1.74,34.18-.58,50.08-.92,5.41-.12,10.51-2.05,16.45-.05l-5.45-2.03L106.94,16.73c-.23,1.74,2.27.94,3.48.99,6.43.26,13.6.22,20.05.04,18.91-.53,38.08-2.27,56.92-3.08,1.51-.07,12.55-.24,12.55.54-22.94,2.61-45.84,5.7-69.01,5.51-.23,1.74,2.27.94,3.48.99,8.35.34,17.68.27,26.06.05,5.69-.15,10.79-1.31,16.96-1.05,1.22.05,3.72-.76,3.49.99l-54,4.03,1.01,1.97c-5.39.33-11.17-.43-16.51,0-1.17.09-4.49.31-4.49,2.01ZM59.93,29.71l-12.7-9.84-4.29,1.36,16.99,8.49ZM41.93,785.72c-1.79-1.38-3.62-2.73-5.51-3.99-.68-.21-.68.82-.48,1.47,1.19,3.87,8.91,15.25,11.57,19.44,19.29,30.3,40.07,63.1,60.6,92.4,5.91,8.43,12.13,17.97,19.81,24.68-1.72-42.44-1.28-84.98-1.95-127.54-3.05-193.87-5.93-388.05-9.08-581.92-.66-40.69-.13-81.44-2-122-.25-5.35,1.58-18.69-2.01-21.99-11.65-5.76-23.42-11.42-35.28-16.72-15.17-6.78-50.03-23.72-64.41-26.6-2.09-.42-3.82-1.05-3.27,1.77,16,2.22,28.83,13.23,44,18.02.27,1.46-3.71,1.81-4.35,1.7-1.25-.2-5.39-3.46-7.61-4.26-.95-.34-3.25-1.32-3.03.53,13.91,6.99,27.98,13.58,42.99,18.03.23,1.86-2.03.79-3.04.55-17.23-4.11-33.84-13.81-50.94-18.55l52.99,26.98-49.99-20.98,2.09,4.4,36.9,18.58-38.99-16.99-.99,6.99c-.33-3.13,1.58-8.97-3-8.99l.04,9.95c10.84,2.27,20.42,9.78,30.97,13.54-.67,1.32-2.73,0-3.71-.3-3.31-1.04-26.3-12.29-27.29-11.2l.98,34.99-2.98-13.51c-.59-3.25,1.34-23.47-1.51-23.47-2.95,2.96-.98,8.43-1.5,12.5-.23,1.82.34,1.62-2,1.48v-15c-2.34-.13-1.77-.34-2,1.48-1.67,13.12,1.22,29.56.04,43.06l-3.04,23.46v-56c-1.76-.22-.95,2.26-1,3.49-.33,7.99.21,16.05.04,24.05v9.92c2.5,180.7,15.42,361.5,19.91,542.08.06,2.37,1.03,4.55,1.08,6.92l-.03,65.54.99-3.48c-.62-31.29,1.3-62.82-1.05-93.96l1.04-10.54c2.47,23.8,1.07,47.67,1.97,71.54.31,8.29,1.71,17.61,2.08,25.92.76,16.84-.19,33.91,2.97,50.53,1.65-.91,1.92-5.72,2.03-7.45.22-3.48.03-7.49-.05-11.03-2.37-109.57-8.72-219.37-12.03-328.97-.78-25.72-2.34-51.44-3-77-.28-10.63-.39-22.46.04-33.05.05-1.22-.75-3.72.99-3.48.68,14.81,1.23,29.67,2.02,44.48.87,16.19,2.37,32.77,3.03,48.97s.27,33.43.96,50.05c.05,1.23-.76,3.71,1,3.49v-25h.99c-.9,7.82.83,15.99,1.05,23.46,2.68,90.08,8.8,180.05,13.95,270.05.69,12.13-.17,46.33,3.83,55.17.96,2.12,3.29,5.85,5.17,7.32.88-6.84-.74-14.02-.98-20.51-5.68-151.02-18.95-301.99-23.05-452.95-.31-11.26-.42-23.83.04-35.05.05-1.22-.75-3.72.99-3.48l10.02,227.48c6.05,86.26,10.6,172.65,16.03,258.97.64,10.24-2.73,22.39,6.95,29.54-.23-13.19-.42-26.37-.95-39.54-1.83-45.9-5.85-92.12-7.08-137.92-.33-12.22-.46-25.87.04-38.05.05-1.22-.75-3.72.99-3.48-.23,49.59,3.23,99.09,7,148.51.8,33.35,3.82,67.01,5.01,99.99.14,3.82,1.9,8.26.99,12.5-3.26-3.28-4.82-8.75-6.75-12.72-.61-1.26-.83-2.6-2.22-.79,1.99,9.44,7.85,15.67,12,24l-5.51-6.49-1.48,1.99c-.36-6.01-15.02-19.18-15.03-23.48l1.99-.51,5.01,6.99c.56-9.16-3.48-15.45-9.5-21.99l2.5,7.99c-3.58-1.61-4.31-5.05-4.88-8.61-4.39-27.29-3.79-57.21-5.07-84.93-.81-17.55-2.31-35.31-2-53l-6.05-116.45c-1.74-.23-.94,2.27-.99,3.48-.22,5.46-.22,11.59-.04,17.05,2.36,73.96,6.31,148.33,12.02,221.98.46,5.97-.88,12.08,1.09,17.88l-2,1.04-.08,3.07c-3.02-5.87-9.32-10.75-9.99-17.51,4.5,3.46,3.34,4.35,6.23,9.29.92,1.58,1.46,4.3,3.77,3.7-1.28-6.45-5.24-10.95-9.01-15.98-1.58-.32-1.08,2.04-.99,2.99ZM11.92,33.71l-3.98-2.98-.07,7.37,6.06,2.62-4.05-3.54.04-2.84,2-.64ZM108.93,47.71c-3.8-4.13-11.02-5.21-16-7.49-6.28-2.89-11.88-7.54-19-8.49l17.29,10.2,17.71,5.78ZM128.93,42.71c-2.34-2.99-7.44-4.2-11-3.98,2.03,3.99,7.11,4.16,11,3.98ZM106.93,55.72c.45-2.19-1.08-2.27-2.45-3.04-3.23-1.8-7.91-4.33-11.54-4.95.23,1.5,1.89,1.86,2.98,2.51,1.25.74,10.57,5.89,11.02,5.47ZM129.93,56.74l-28.99-9,8.76,5.73,11.23,2.27c.69,2.89-14.95-1.77-11,1.98l5.5,1.01,14.49-1.99ZM675.93,64.73l-132.5-14.99-10.49,1.01,1,1.96-8,2.03,8.5,1.98c41.45,4.59,82.49,7.63,123.95,9.05,4.52.15,9.53.14,14.05-.04,1.22-.05,3.72.75,3.48-.99ZM515.43,52.72c-6.86-1.75-20.8,1.3-28.5,0l17.5,2.09c4.49-1.48,8.01-.37,12.5-.1.03-.63-1.16-1.9-1.5-1.99ZM517.92,100.72l.51-43.01c-1.23,0-.39,22.13-.46,24.55-.14,4.96-1.28,9.4-1.04,14.97.05,1.22-.76,3.72.99,3.48ZM525.93,60.72v39.5c0,.52-1.58,2.16-1,3.5l5,1-.56-32.06c2.88-4,41.12-.49,48.06.07,35.58,2.88,73.42,6.83,108.88,11.12,6.48.78,30.57,3.49,34.61,6.39,1.19.85,2.01,2.09,2.57,3.43-3.33,114.15-2.88,228.22-3.5,342.6-.13,23.82-1.06,48.17-1.09,71.91-.01,13.51.09,27.04.05,40.54l2.03-15.45c4.43-128,6.72-256.02,8.92-384.08.32-18.94,3.26-40.08,1.06-58.98-.42-3.58-1.67-5.56-5.02-6.98-8.38-3.55-33.29-5.98-43.63-7.37-51.86-6.98-104.33-9.7-156.37-15.13ZM182.93,633.72c-7.56.51-16.85,2.67-23.89-.6-5.65-2.62-14.37-13.67-15.13-19.87-2.44-20.01,1.76-49.09,2.07-69.98.76-52.52-1.79-104.68-3-157.08-1.85-80.04-3.33-160.86-1-240.92.37-12.84-1.18-27.22,1.22-39.78,1.26-6.58,3.15-9.95,10.24-10.76,13.23-1.5,30.35-.44,44.04-.96,78.55-2.98,157.4-4.36,235.92-7.08,23.82-.83,48.01.14,71.54-2.97l-2.5-2.98c-97.13.75-194.12,3.2-290.95,7.03-15.32.61-28.15.1-43.49,2.53-5.79.91-4.42-3,.4-3.62,20.89-2.69,45.66-1.92,67.04-2.96,76.05-3.68,151.87-6.74,228-10,6.74-.29,15.4-2.01,22-2.06,4.57-.04,8.9,1.68,13.52,1.07l-1.95-10.56-372.05,8.56,4.95,439.54c5.79,126.7,6.85,254.05,13.08,380.92.49,9.88-.08,21.31.96,31.04,1.66,15.63,11,8.3,20.79,5.78,30.98-7.99,62.32-13.66,93.84-19.16l4.37.87c-30.35,7.04-61.57,11.73-91.65,19.87-2.55.69-2.55,1.24.12,1.13,46.34-11.33,93.9-16.59,140.73-25.29,7.25-1.35,14.33-4.07,21.59-5.41,58.71-10.87,117.45-21.69,176.2-32.3l-3.37-.87c-49.91,9.21-99.97,17.63-149.81,27.2-15.23,2.92-31.21,7.44-46.42,9.59-1.04.15-2.66.7-2.38-.89,8.57-2.72,17.02-5.59,25.8-7.7,57.98-13.97,118.41-19.38,176.7-31.3,1.37-.28,2.57-.04,3.48-1.53l-169.97,26.01c16.96-8.45,36.84-8.63,55.31-11.67,38.25-6.28,76.62-12.07,114.56-19.94l.15-144.44c-4.27-12.52-2.51-26.31-4.3-38.7-.37-2.58-1.38-7.97-4.73-7.76-1.05,12.93,2.32,25.69,2.98,38.51,2.2,42.09,1.21,84.81,1.97,127.03.11,5.97,2.91,13.24-.2,19.22l-348.76,59.25c.54,2.16,1.4,1.39,2.76,1.35,12.45-.38,27.37-4.64,40.03-6.08,1.1-.12,3.42-1.15,3.2.7-18.92,7-39.22,9.33-58.99,13.01-.34-3.85,5.71-3.02,6.01-6.48,0-.57-9.75-4.83-4.51-8.51l2.51,2.49-2.02-24.48-1.98,4.99-1.05-7.46-.96-178.04c.91-1.2,3,2.78,3,3v14.5h1v-15l25-3.01c.26-1.67-2.41-1.07-3.53-1.04-2.76.08-24.93,3.75-20.01-4,1.78-1.35,4.13-2.23,6.29-2.72,17.3-3.93,42.09-4.74,60.62-7.38,86.25-12.27,175.08-29.57,261.29-38.71,15.74-1.67,32.85-1.36,37.88,16.84,3.66,13.26,2.04,47.51,2.52,63.48.98,32.49-.2,68.03,1.97,100.03.19,2.74,1.54,5.54,1,8.51h3.99s1.01-49,1.01-49l1.99,7.49v45.5c1.76.22.95-2.26,1-3.49.17-3.99-.18-8.01.01-12,.09-1.94.96-3.84,1.03-5.97.45-13.99-.59-28.1-.08-42.08,1.34-36.96,7.24-75.49,3.01-111.93-.74-6.41,1.38-34.77-1.94-38.06-7.71-2.01-24.66-10.6-25.98-19.02-.31-1.96-.43-12.77-1.06-13.44-5.78.16-11.73.45-17.48.99-101.67,9.51-204.55,28.95-305.51,38.99,25.82-1.73,51.59-4.98,77.49-6.01l221.5-19.98-13.61,2.87c-91.38,11.24-185.94,15.98-276.74,30.26-6.17.97-12.37,2.19-18.47,3.53-2.92.64-13.18,4.39-14.69,4.29-.62-.04-1.95-1.22-.48-2.46,3.06-2.58,12.79-3.75,16.99-4.52.24-1.74-2.27-.94-3.48-.99-2.95-.11-7.3.54-9.87-.14-1.11-.29-2.21-1.38-.66-2.38l22.02-4.48ZM725.93,68.73l-31.54-.05-11.45,2.03,27.99,2-2.99-1.98,9.48-.02,8.51-1.98ZM614.94,119.71l47.53,3.05,37.82-5.18c4.01-1.31-1.39-19.3,5.62-22.36l-165.32-19.34c-1.99.67-2.47,3.46-2.68,5.32-.36,3.1-.39,23.15.95,24.08l115.06,9.45c.23,1.74-2.27.94-3.48.99-15.42.63-30.68-1.19-46.06-1.05-8.17.08-18.51-.38-25.97-.07-3.9.16-4.5,3.2-7.47.12l.59,3.09c3.37.74,7.58,2.91,10.97,2.97,3.07.06,4.2-1.74,6.88-2.11,6.73-.95,15.56.81,22.55.04l-2.99-1.98c12.77-.62,25.35.63,37.99,2,.23,1.74-2.27.94-3.49.99-6.4.26-12.67-.02-18.96-1.05l-9.54,1.04ZM738.93,685.22v-27.5c1.47-.18,1.81,2.62,1.91,3.59.79,7.58.97,15.78,1.1,23.41.21.28,1.28-.52,1.51-.98,1.79-3.62-.24-16.51.41-21.58.24-1.91,1.92-.95,2.16-2.87,2.92-23.1.53-52.23.88-76.11,2.05-139.31,2.74-278.69,6.08-417.92.49-20.25,1.96-40.91,2.02-61.01.02-6.84-2.89-17.11-2.14-23.06.06-.45-.04-.92.22-1.33l3.88-1.64-.54-2.52-11.48,1.01c-.31,3.67,2.93,35.1-.49,35.02l-1.51-35.01-9.99,1c-.49,3.04,3.31,2.41,4.48,5.01,2.05,4.56-.42,12.66-.53,17.44-2.73,121.37-2.33,243.61-3,365-.4,72.65.37,145.32.06,217.97l-6.03,1.08c-.01.6,10.13,3.96,11.01,1ZM462.93,102.22c-1.67,19,1.24,40.26,0,59.5-1.76.22-.95-2.26-1-3.49-.37-8.99.26-18.06.04-27.05-.06-2.37-1.02-4.55-1.08-6.92-.26-10.16.28-20.38.04-30.54-1.23-1.62-1.81.02-2,1.48-.51,4,.27,8.89.04,13.06-.13,2.37-1,4.56-1.08,6.92-.45,13.14.43,26.4.03,39.54l-2.04-19.47c3.03-14.1-1.43-26.63-.95-40.52-3.58-.61-.99.48-.99,1.5v22.5c-1.41.21-1.94-2.8-1.96-3.62-.07-3.35,1.07-6.94,1.01-10.93-.06-3.54-1.44-6.88-1.06-10.45-3.45,3.66-2.48,12.08-3,16.99-1.74,0-1.1-4.37-1.04-5.54.14-2.7,3.02-11.1-.95-10.45v23c-.77.58-2-2.02-2-2.5v-19.5l-3.01,11.49c1.54,8.45-2.43,35.13.95,41.06.73,1.28,5.71,5.77,7.05,4.45l.99-4c-1.28,6.26,2.55,10.53,3.05,16.45.71,8.46-1.91,14.76-5.97,21.92.65,3.68,26.73,14.01,30.89,17.19l2.04-1.07v-41.5c0-.25-3.05-.47-4.54-1.95-3.02-3-1.83-6.38-1.45-10.05l2.49,4.99,1.4-3.59,1.1-32.92,2-1.48v39c55.7,13.2,112.14,23.15,168.55,33.03,4.39.06,16.9-5.04,19.45-9.02l-4.99,3-1.99-3c.05,5.74-6.57,4.68-11.01,4.99l2-2.98-168-32.01-.99,3c-1.54-3.14,1.89-4.24,1.97-4.67.43-2.18.85-8.19,1.01-10.83.22-3.56.67-17.39-.15-19.83-1.05-3.12-7.18-2.78-9.84-2.67l-1.49,26c-1.66-1.14-1.44-2.73-1.56-4.44-.67-9.55.61-19.92.04-29.56l-2,.5v-9.49s1.99,3.99,1.99,3.99l.94-7.37-3.92-1.62c-.17,7.51-2.2,14.49,0,21.99-2.84.47-1.67-.59-2.13-2.31-1.18-4.41-1-9.2-1.87-13.68l-2.98,12.99,1.98-18.99c-1.92-.3-2.69.77-2.98,2.51s-.87,5.37-1.01,6.99ZM434.94,108.73c-1.09-1.04,2.59-15.92-3.49-14-3,.95-.54,7.17-.47,9.45.24,7.65-1.31,20.3-.02,27.02.14.73,5.78,9.81,6.75,11.21.61.88-.16,1.86,2.23,1.3l-1-47.99c-1.74-.23-.94,2.27-.99,3.48-.13,3.16.1,6.36,0,9.52h-2.99ZM718.79,96.86l-9.86-2.13c1.49,2.22,2.66,2.5,3.05,5.44,2.03,15.27-.88,32.73-1.09,48.01-2.32,166.76-4.76,333.33-5.91,500.09-1.18,8.67-8.76,2.93-14.06,3.95,6.29,3.27,16.9,3.69,16.96,12.9l-2.27,1.44c-46.08-14.38-90.79-32.52-136.16-48.87-8.75-3.15-37.56-10.94-42.57-15.43-.91-.82-5.23-6.16-5.8-7.2-3.17-5.72-1.44-9.31-2.14-14.87-.18-1.47-.77-3.09-2-1.48,1.07,14.64-1.77,23.24,12.62,30.87,21.02,11.16,54.58,20.75,77.86,29.14,23.53,8.49,47.29,17.08,71,25,6.24,2.08,20.34,7.91,26.02,8.06,6.15.16,8.02-1.72,8.55-7.53,1.76-19.33-.34-43.12-.09-63.09,1.93-150.62,4.26-301.41,6.08-451.92.21-17.45-.12-34.96-.18-52.4ZM423.93,124.72v-26.5c0-.21-2.44-2.87-3.48-2.49l-3.51,6.99v-6s-10.07.44-10.07.44c-1.74,1.21-.73,9.18-1.03,11.97-.1.98-.44,3.76-1.91,3.59v-16l-2.69,1.45c1.19,5.65-.48,11.83-1.32,17.54l10.01,1.01c.21-3.79-.31-7.7,0-11.49.1-1.22.37-5.36,1.99-5.51v19l12,6ZM511.82,96.82c-.83-.59-15.29,2.43-16.87,4.41-.04,2.37,16.3,1.54,17,1.02,1.54-1.16.58-4.93-.12-5.43ZM389.93,97.72v14.5c0,.35-1.32,1.48-1.01,2.5-.38.29-1.99-1.31-1.99-1.5v-14.5c-3.03-.48-1.6.75-2.02,2.43-1.4,5.52-.97,10.92-.97,16.56l13.85-2.14c.8-.65,3.48-18.81-1.85-17.86l-2,13.99c-.39-3.57.21-9.41-.73-12.7-.63-2.2-1.44-1.2-3.28-1.3ZM429.93,130.72v-27.5c0-.91-1.83-3.64-1-5.51-3.76-1.21-3.81,3.15-4.04,6.47-.26,3.74-.51,20.16.56,22.52.53,1.17,3.21,3.29,4.48,4.02ZM348.93,122.22c1.06-6.98-.78-16.24,0-23.5-1.75-.23-.96,2.26-1,3.49-.28,7.54-1.08,14.98-1.01,22.51-1.78-.37-1.91-2-2.06-3.49-.65-6.78,2.76-15.63-.44-21.5l-1.51,13.99c-1.46.18-1.79-2.62-1.9-3.58-.37-3.45.06-6.97-.09-10.42l-9.58.97c.16,6.15,1.54,14.52.53,20.49-.2,1.18-.59,2.37-1.95,2.54.99-2.14-1.01-5.41-1.01-6.5v-17.5c-2.34-.13-1.77-.34-2,1.48-.77,6.02.59,12.55.99,18.52l-1.98-1.01.98,22.01c-1.81-.38-1.86-1.97-2.03-3.46-1.29-11.73-.12-23.3.05-35.04l-1.51-2.47-2.5.98v25h-2v-25h-3v21.5c0,.9,1.86,3.63.99,5.5-.98,1.34-2.99-6.67-2.99-7.5v-19.5c-3.59-.8-1.69,6.06-1.96,8.54-.17,1.5-.21,3.09-2.03,3.46v-12.01s-3.01,0-3.01,0v19c-.65.08-2-1.33-2-1.5v-17c0-.12-1.45-2.01-1.99-1l-1.92.6-.59,3.91-.49-4.02-53,2.02,39.99,16.49v15.5h3s-.5-16-.5-16c4.25,4.1,1.97,10.7,2.51,15.99l3.98-3.99.06,5.95,15.98,3.52c1.4,4.9-.33,10.89.98,16.53,19.37-.97,9.41,19.24,9.99,31.01l16.01-1.01c-3.19-12.56,1.8-22.28,7.48-33.02,2.05-3.88,9.92-14.58,10.47-17.52,1.03-5.47-1.02-16.36-1-23,.01-3.14,1.11-5.84,1.14-8.95,0-1.32-.26-5.37-2.09-5.5v28.5c0,.79-1.32,3.35-3,2.5v-4c-8.37,2.18-3.33-1.33-3-3.5ZM381.93,118.22c1.16-4.55-.85-13.39,0-18.5-5.96,4.16-.32,13.53-1.99,20,.63.03,1.9-1.16,1.99-1.5ZM157.93,100.73l-8.89.1c-.21,1.5-.82,3-.98,4.5-2.14,19.65-.34,47.44-.17,67.94.82,98.99,4.42,197.88,4.09,296.99-.13,39.36-2.25,80.56-.08,120,.55,10.01,1.82,23.93,8.22,31.78,4.09,5.02,5.98,3.77,12.32,3.67l319.51-35.99-1.26-1.78-136.73,10.79,134.24-15.26c2.46-.58,7.81-2.32,7.79-5.24l-1.6-2.47c-20.52,5.66-42.82,8.39-64.06,10.84-29.2,3.38-58.64,4.99-87.87,8.13l-148.5,18c0,1.82,4.29,1.06,5.48.98,9.95-.7,20.07-2.98,30.02-3.98,36.25-3.65,72.76-5.79,109.01-9l3.48.99c-5.78-.09-11.64.48-17.37,1.13-49.99,5.72-100,12.82-150.11,16.86-11.53-.88-17.65-12.99-18.55-23.45-4.81-55.78,4.53-117.75-1.01-173.99-.27-76.07-1.27-151.96-1.92-228.08-.22-25.82-3.58-57.55-1.03-82.94.17-1.7.73-5.12,1.52-6.48,1.63-2.78,5.02-.72,4.46-4.03ZM236.43,103.72c-20.66-.18-41.34,0-62,0-.21,0-1.82,1.68-1.5,1.99,3.92,1.7,6.95,0,10.46-.04,19.5-.2,39.14,1.69,58.21,1.43,2.33-.03,4.84,1.11,7.33.61l-9.76-4.83c-1.07-.52-2.33.85-2.74.84ZM491.92,109.72c-3.33-4.95-6.34-4.91-11.5-6.97-2.3,1.06-1.7,6.1.26,6.96l140.24,25.02c.17,1.78-3.37,1.06-4.48.98-7.53-.57-14.95-2.71-22.52-2.99l-1.57,26.07c13.22,4.88,27.15,6.92,40.79,10.22,3.81.92,20.96,8.43,22.64,3.07l1.15-36.36c-2.45-.04-4.93.2-7.38-.12-17.76-2.35-38.02-6.7-55.81-10.19-33.92-6.64-67.41-16.27-101.82-19.69v4.01ZM371.93,105.72h-2v20c.65.08,2-1.33,2-1.5v-18.5ZM212.93,108.72h-17l12.46,2.05c2.09-.33,5.26,1.25,4.54-2.05ZM167.93,170.72v-61l-1.99,14.51c1.29,14.06-3.49,30.4-.03,44.06.43,1.68-1.01,2.91,2.02,2.43ZM219.43,113.72c-8.89,1.24-20.32-.92-29.5,0,4.47,5.27,13.31,3.56,19.48,5.08l57.51-3.09-11.74-4.75c-13.47-1.26-26.78-1.46-40.25-.23l6.99,1c.37,1.01-2.08,1.93-2.49,1.99ZM174.93,110.73h-2.99s-1.04,60.31-1.04,60.31l2.54,1.67c1.27-1.34,1.4-3.68,1.54-5.44,1.31-16.38-1.65-33.53-1.1-50.09.07-2.25,1.02-4.23,1.04-6.45ZM178.93,112.72v70.5l7,3.49c-1.51-3.12-.05-5.47.05-8.45.49-14.31-.64-28.75-.05-43.05.05-1.23-.76-3.71,1-3.49v50c1.7,0,1.91-3.32,2.01-4.49.57-7.11-.44-14.87-.05-22.05.36-6.73,4.4-31.87,1.03-35.94-.41-.49-5.45-4.11-5.98-3.51l-1.5,44.99c-1.66-1.14-1.44-2.73-1.56-4.44-.85-12.14-.17-24.49-1.04-37.05-.15-2.16,2.43-5.39-.91-6.5ZM567.94,113.73c-3.52.64-7.16-1.37-10.49-1.04-1.41.14-3.02.81-1.52,2.03l12,2v-2.99ZM492.05,148.6l3.41.93,9.31-31.34c-.33-1.89-11.43-2.3-13.85-2.47l1.13,32.88ZM523.93,122.22c.08,6.33,0,12.67,0,19,0,1.66-6.06,7.52-9,5.49l6.84-8.73-1.99-17.62-1.5-1.5-11.28-1.07c-.93,7.9-9.43,24.04-6.95,31.3.65,1.91,7.17,2.49,9.33,2.66,4.46.35,19.95,1.32,21.42-3.75.97-3.34-4.47-6.26-.38-9.27,4.16,1.26.89,2.32,1.94,3.96,2.01,3.16,13.15,8.04,17.1,8.86,2.76-.28,2.89-20.29,2.52-23.39-.54-4.59-4.09-4.52-8.05-4.44l.98,3.51-1.97.48v-4.99s-18.5-3-18.5-3c-2.37,1.45-.52,2.12-.51,2.5ZM278.93,125.71l4.98-4.49c.04-3.42-15.97-.52-18.44-.46-9.68.22-19.4-.22-29.08-.08l-36.51,2.51.06,4.54c5.39-2.28,11.55,1.1,17.53.03l34.47-1.54c-11.16.95-22.36,2.34-33.52,3.49-4.68.48-8.78-1.18-12.97,2.02l-.52-3-4.86,1.14-1.14,56.84c7.51-1.73,10.3-3.72,8.98-11.99l-1.15,4.85-4.35,2.12c-2.4.06-.55-14.15-.25-16.24.13-.87.45-3.01,1.74-2.73l2,15.99c-1.02-7.77,1.01-16.11,1.1-23.49.07-5.37-1.69-10.97-1.15-17.05.23-2.59,2.76-3.89,1.06-6.44l73-4-2.5,2.99-67.49,4.01c-.03,1.71-.57,2.16,1.41,1.92,6.49-.79,13.53-2.58,20.05-2.97,14.25-.86,28.95,1.33,42.95.95,5.68-.15,10.11-2.64,8.6-8.92h-4.01ZM414.93,130.71c-4.2-.02-3.35-4.9-6.61-6.88-8.57-5.19-27.55-1.77-33.39,6.88,5.76-1.2,9.77-6.64,15.73-7.76,4.47-.84,16.84-1.01,18.26,4.76-8.87-3.03-21.69-3.61-28.99,2.99,8.84-2,16.77-4.7,25.99-1.98l-6.99,1c2.32,3.94,8.09,2.42,12.03,3.46s15.11,7.89,17.62,10.88c1.82,2.16,1.92,5.31,4.33,6.66-.49-4.69-2.52-8.46-5.48-12.01-1.56-1.87-13.01-12.19-14.51-10.98l2,2.98ZM196.93,153.72v-19.5c0-.29-.9-1.72-1.04-2.96-.33-2.75,1.35-7.14-1.95-8.54-.12,8.44.05,16.99,1.11,25.38.15,1.22.43,5.48,1.88,5.62ZM554.93,125.72v23.5c0,.43,1.18,3.12,1.69,3.56,2.12,1.84,17.54,5.54,20.93,5.82,4.02.32,7.29-1.01,10.9.04l1-1.93-2.51-1.97c3.65.25,1.67-8.08,2-11.5.36-3.73,1.33-7.8,1.99-11.5l-36.01-6.01ZM657.93,128.74l-4.49-1.02-34.5-1.98,31.63,6.91c1.53.6,8.05-2.99,7.36-3.91ZM696.93,127.73c-6.23.36-10.71-.53-16.34,3.16-1.23.81-15.21,15.31-15.66,16.35-.51,1.18.29,1.99,1.48,1.48,1.62-.7,10.99-12.58,12.51-10.99-1.52,2.98-1.05,6.6-3.99,8.5l2,.99c-2.09,4.14-4.04,7.24-8.99,8.52.26,2.73,5.15-.68,5.99,0l-2,2.98c.93.74,7.1-4,7.94.64.62,3.46-8.2,4.72-7.93,8.36,1.39,1.31,8.11-5.2,9.04-6.48.74-1.02.89-3.68,1.45-3.51,7.35,2.13-5.81,7.85-5.48,12,.47.51,9.56-8.34,11.99-5.5l-5.99,7.5,10.5-6.99c1.95,2.84-3.29,3.09-3.5,4.98l5.56-.92c2.55-7.87-.97-15.9-.6-23.52.27-5.56,2.39-11.6,2.03-17.54ZM12.92,200.72c.44-24.08-.54-48.01-1.49-72.01-.71,8.42-.75,17.08-.54,25.55.06,2.37,1.04,4.55,1.08,6.92.23,11.99-.53,24.08-.04,36.05.05,1.22-.75,3.72.99,3.48ZM700.93,129.73c-2.86-.47-1.66.6-2.13,2.31-3.06,11.12.79,25.21.15,36.68,1.74.23.94-2.27.99-3.48.48-11.81.71-23.69.99-35.51ZM676.93,130.73c-5.37,1.25-10.2,5.37-10.99,10.99,1.14-1.4,12.55-9.45,10.99-10.99ZM660.93,140.22c-.9,6.51.66,14.77,0,21.5,1.7,0,1.91-3.33,2.01-4.49.44-5.68.34-12.06.2-17.77l5.8-7.23c-4.92-1.37-7.48,4.14-8.01,7.99ZM162.93,163.22c-.56-9.77.41-19.72,0-29.5h-1v34.5c0,.6,1.39,2.26,1.01,3.49h.98c1.04-2.89-.88-6.53-.99-8.49ZM386.93,133.73c-8.98,3.41-16.34,8.63-22.5,15.99l-1.48-1.99-3.52,4.99-.99-2.99c-3.1,4.47-6.19,9.94-6.52,15.49,3.04,2.24,1.44-3.33,4-3.49,1.6,4.45,6.66,6.73,10.04,10.47,2.52,2.78,6.4,8,7.49,11.51.7,2.26.82,8.64,1.69,9.8.4.54,11.42,4.81,12.42,4.88,12.84.97,34.12-13.03,40.83-23.71,2.35-3.75,2.8-8.66,6.54-11.95l-5.86.13-5.63,12.86c-2.53-.94.82-11.94.5-14.42-.29-2.32-2.91-3.67-3.02-6.07l4,3.49c.45-8.98-6.1-11.09-11.98-15.5l2.99-1.48-16.99-3.02c3.03-4.36,15.85-.28,19.36,2.15,1.72,1.19,2.63,3.99,5.14,4.86,2.01-3.41-6.96-8.44-9.51-9.49-12.53-5.14-22.41.06-34,4.49l7-6.98ZM285.66,142.02c-6.18-4.8-37.07-2.83-46.11-3.35l-2.22,4.01-4.38-.97,2.99-2.98c-5.31-.92-8.9,3.68-14,2,2.15,2.75,8.21,3.33,11.63,3.86,10.99,1.69,25.51,2.49,36.82,3.18,1.15.07,6.56.29,6.55-.54l-8.01-2.51,1.52-2,5.47,2.01,3-2.99-.99,3.99,3.99-.99-1.98,2.01.49,2c7.31.42,14.57-.73,21.49-3.02l-10.53-4.06c-3.77.05-3.35,3.37-3.96,3.07-.93-.55-1.12-2.19-1.78-2.7ZM293.93,172.72v21.5c0,.31-1.38,1.41-1,2.49h2.99c1.64-9.69-1.06-29.57,2.67-37.76,1.07-2.35,6.94-2.01,5.34-8.24l2,5c4.53,0,2.72-5.77,2.99-9-12.88,4.39-27.89,5.55-41.54,5.04-17.18-.63-34.28-5.02-51.46-5.54l.02,8.49,1.98-3.99c1.84,4.41.16,10.3,1.05,14.27.16.7,1.51.81,1.84,1.55,3.36,7.55,2.13,16.31,3.25,24.54,19.57,10.62,45.16,8.71,66.86,6.61-.2-2.45,1.34-6.5-1.97-6v-.97c6.7-1.81-.31-14.28,4.99-18.01ZM430.92,161.72c1.38-4.84.47-14.8-5.99-14.98l3.73,5.76,2.26,9.22ZM438.93,175.22c.74-5.22,0-13.36,0-19,0-.16-.98-2.92-1.99-2.5,1.36,9.55-.61,19.45-4.02,28.48l8.01-1.99-3.99-.51c-.27-.2,1.89-3.7,2-4.49ZM446.67,175.46c2.81-3.03,2.03-18.76-3.73-20.74.84,7.43,1.85,14.59,0,21.99.47.47,3.23-.71,3.73-1.26ZM193.93,187.72v-21.5c0-1.57-2.08-5.81-1.01-8.49-1.3-.27-1.6,1.85-1.74,2.74-1.27,8.09,1.97,17.34.74,25.78l2,1.48ZM311.71,163.94l-5.77-2.21c.71,3.82-3.42,21.58.6,22.91l3.47-.35c1.99-1.42,2.75-18.53,1.71-20.36ZM317.93,162.73c-2.49-.18-1.71-.24-1.97,1.5-.95,6.45-.95,13.07-2.01,19.5,4.64-4.89,3.61-14.61,3.98-21ZM487.93,209.72v-44.5l-6-1.5v42.5l6,3.5ZM492.93,212.22v-46c0-1.06-2.84-1.9-4-1.5v42.5c0,.41,3.72,4.49,2.01,7.5.36.88,1.86-1.66,1.99-2.5ZM494.93,255.72v-39l-2.01,15.99-.99-6.99c-3.45-.74-1.65,5.2-3,7l-4.96-.98-1.04,5.97-.99-7.99c-3.59-1.27-2.32,6-3.49,6l-.51-6c-3.9-1.26-.86,6.02-2.5,6-4.48-.27-.42-6.88-4.48-6-2.29,20.7-.14,41.7-1.01,62.51-.05,1.23.76,3.71-1,3.49v-62.5c0-.6-1.39-2.25-1.01-3.49l-4.84,3.13c.75,2.6-1.15,6.82-1.15,8.36v21.5h-1v-31c-8.66.8-6.91,8.3-7.01,14.99-1.74.23-.94-2.27-.99-3.48-.13-3.16.1-6.36,0-9.51-2.36-.08-4.33,1.85-6.61,2.03-1.9.15-.83-2.08-2.84-2.15-2.91-.09-6.32,1.83-9.55,1.11.25,7.47-.32,15.02.02,22.49.39,8.64,1.2,25.01,3.02,32.98.7,3.07,5.13,6.48,6.8,9.2,4.85,7.86,6.75,18.7,7.17,27.83.18,4.02-3.41,7.52,2.99,10.5v-69c1.76-.22.95,2.26,1,3.49.33,7.99-.28,16.06-.04,24.05.07,2.37,1,4.55,1.08,6.92.32,9.49-.28,19.07.47,28.52l4.48,3.01c-2.09-3.24-.08-6.07.05-9.45.48-12.64-.57-25.41-.05-38.05.05-1.23-.76-3.71,1-3.49v49.5c0,2.83,4.53,6.35,7,7.5v-17.5c0-.74,1.63-2.93,1.01-4.49h.99s0,23.49,0,23.49c0,3.97-8.27-5.06-8.99-.99-.42,2.38,12.77,7.73,14.98,9.48-.9-22.83-.67-45.63-1.04-68.54-.03-1.81,1.03-3.66.95-5.02-.14-2.37-3.81-7.66-1.74-11.84l6.67-2.78c1.42-2.26-1.68-10.27,1.67-12.82l.5,12,22.06-2.44c1.59-1.07,1.37-14.12.02-15.96-.56-.77-4.08-.45-4.08-3.1v-28.5h-1v36c-3.53.81-1.74-5.97-2.01-8.49-.87-8.05-3.28-16.63-1.76-24.78.5-2.69,2.44-4.37,2.82-7.18,1.62-12.02-1.34-27.5.02-39.93-.23-.81-4.81-2.17-5.58-.63-.14,28.49,2.71,57.01,1.52,85.52-.05,1.23.76,3.71-1,3.49ZM504.92,212.72l2.02-42.49c-.32-3.24-3.5-2.54-6.01-2.51,1.81,13.69-.03,27.6,2.28,41.22.18,1.06.26,3.97,1.71,3.77ZM511.93,169.72h-3.99c-1.17,29.73-.54,59.24,1,89l2-1.48.99-87.52ZM359.93,175.71c.17-3.41-10.05-5.33-6.98-2,.15.17,1.62-.36,1.93.65.19.61-.68,3.14.04,4.36l-5.49-5.98c-4.61,2.14-3.39,18.64-.54,20.52,2.82.84,13.59.95,15.12-1.18,1.03-2.41,1.97-6.25-1.07-7.36l-.5,4.99c-2.13-1.66-8.29-12.22-6.51-13.99h4.01ZM529.93,173.73c-1.21-1.59-1.82,0-2,1.47-1.65,13.55-.66,27.44-.95,41.06-.12,5.53-3.18,13.32.46,18.45,3-20.07,2.48-40.61,2.49-60.99ZM558.93,222.72v-42.5l-6-1.51-2.99,41,.03-41.33-8.59-2.4-1.46,2.24-1.04,53.84c6.06,2.33,8.24,7.45,9.08,13.63,10.01-2.52,17.25-3.77,27.4-.9,3.14.89,7.53,3.87,10.05,4.03,4.33.27,12.92-4.03,19-4.15,8.02-.17,18.2,2.06,18.42,11.68.13,5.81-4.71,6.48-4.91,11.39,5.42-1.55,9.56-4.4,15.5-4.99,4.39-.44,19.59-.53,22.56,2.42,1.82,1.8,3.63,9.51,3.87,12.22.19,2.09-1.15,4.17-.79,5.66.46,1.93,8.37,8.81,6.86,13.69l31.86-9.63,2.18-95.84-.99-2.09c-13.4-1.38-28.37,4.56-41.55,3.54-6.35-.49-13.7-3.04-20.15-3.85-25.1-3.12-50.55-4.05-75.36-9.14-1.61,13.11-1.46,26.35-2,39.52-.05,1.23.76,3.71-1,3.49ZM685.93,176.73c-3.77-.93-4.29,3.64-6.29,5.71-1.2,1.24-4.45.83-4.7,4.28l5.93-2.56,5.07-7.43ZM339.89,189.77c-7.16-.5-14.15.24-21.22,1.19-2.78.37-4.19,2.88-8.26.07l-4.47,7.68,37-2c-1.76-2.34-3.47-3.61-3.05-6.94ZM474.93,209.71l-32.99-18.99c-3.17,3.43,17.62,12.7,19.01,14.48.86,1.09,1.43.85,0,2.04-10.06.73-18.98-1.82-29.56-1.56-47.53,1.19-95.41,5.47-142.92,7.08-34.58,1.17-66.54-1.02-100.28,5.72-6.95,1.39-15.14,1.81-22.26,2.25v2.99c14.36-.71,31.3-3.81,45.52-2,1.46.19,3.1.76,1.48,2-6.13.32-12.41-.4-18.54-.04-7.87.46-17.17,1.16-25,2-1.5.16-3.09.23-3.46,2.03l309-18ZM440.93,203.71l-8.49-7,.5,2-30.02,5.51c-.01,1.91,34.96-1.85,38.01-.51ZM210.43,204.72c7.04-1.21,17.09.89,24.5,0l-19.5-2.8-24.5,2.81,6.99,1.98-29.99,4.02,8.54,1.04c5.02-.27,9.94-1.65,14.93-2.09.81-.07,3.65-.3,2.02,1.05l-1.99,1c18.95-1.51,37.99-.5,57.04-.96,38.64-.94,77.24-3.37,115.92-5.08,5.38-.24,15.36,1.07,19.83-.17.81-.23,1.71-.87,1.71-1.78-9.37-1.96-19.04-.25-28.48-1.03-5.53-.46-11.73-3.08-17.02-3.07-14.44.03-29.7,1.99-43.43,4.65-25.78,5-51.11-.52-75.59,2.41-8.56,1.02-12.63,3.44-22.98,3.03-1.21-.05-3.72.75-3.48-.99,5.3.69,11.61-3.35,15.49-4.01ZM759.93,208.72v18.5c0,.29,2.55,3.05,3.19,4.81,6.33,17.39,6.05,45.3,6.82,64.18,2.62,63.89,1.6,140.68-9.3,203.72-2.19,12.67-7.45,24.86-6.7,37.79l4.45-10.03c13.42-42.29,12.48-87.49,14.5-131.5,2.34-51.08,9.34-117.43-4.24-166.67-1.87-6.78-4.26-15.48-8.72-20.78ZM165.93,232.72h23.5c.17,0,1.57,1.35,1.5,1.99l-14.36,1.15-8.63,1.85,97.54-.95c59.09-5.02,118.82-4.99,177.95-10.05,11.52-.99,26.84-1.96,37.91-4.11.9-.17,3.5-.5,3.66-1.49l-1.55-4.42-2.01-1.01c-22.77,3.91-45.95,3.79-68.99,5.04-79.22,4.28-158.69,5.94-238,10l-8.51,1.99ZM432.93,235.72l-14,1,.99,17c-1.5-.47-1.87-5.14-1.98-6.51-.28-3.47.17-7.02,0-10.49h-6.01s-.76,33.39-.76,33.39c8.18,5.33,16.89,9.47,23.75,16.62l-1.99-51ZM371.93,267.72v-31c-1.49-.08-1.76,3.56-1.88,4.62-.42,3.56-1.92,26.24-1.11,27.38l2.99-1ZM398.93,266.72v-30c-5.59-1.85-5.46,6.26-5.98,10.51-.26,2.13.11,4.35-.03,6.48l-1.98-2.99-.02,8.99c-1.74.23-.94-2.27-.99-3.48-.25-6.22-.03-12.39.99-18.51l-3.92.08c.44,1.5-1.08,3.68-1.08,4.42v21.5c-1.31.26-1.61-1.85-1.75-2.74-1.25-8.09.73-16.19.74-24.26l-5,1.5v22c0,.37,1.34,1.47,1,2.49h-2s0-23.49,0-23.49c0-.67-1.66-3.76-2.99-2.5s-3.08,28.93-2.01,30c8.29-1.29,16.73-2.07,25,0ZM409.93,236.72l-6.36.14c-1.79.58-2.52,8.97-2.68,11.32-.42,6.22.44,12.68-.02,18.93l9.06,2.61v-33ZM365.93,262.22c-.42-8.12.3-16.38,0-24.5h-1v32h1.99c1.02-2.57-.91-5.85-.99-7.5ZM337.93,270.72c-.03-.05-.9.3-1.03-.6-1.25-8.48,1.49-20.65.02-28.89-.73-4.09-4.24-2.73-4.04.95-.45,10.01-.54,20.05-.95,30.06-.05,1.23.76,3.71-1,3.49v-35.5c0-1.66-4-2.37-4,1v23.5h-1v-25l-39,1v14l-2.67-14.04-55.61,2.07-1.22,1.98c-.76-3.07-2.73-1.96-5.5-2.02l-.5,13.01-.5-13.01-15.96,1.05c-1.03.99-.56,10.49-1.19,12.34-.44,1.3-2.32,1.32-2.62,1.82-.96,1.53.91,4.79-1.22,4.79l-2-16.99c-.91,15.76-.27,31.2,0,46.99.93.43,2.99-.89,2.99-1.49v-20c0-.17,1.35-1.58,2-1.5v17.5c0,.63,1.86,5.49,2.5,5.48.67-.62,2.5-2.94,2.5-3.48v-16.5h2v19l3.4.93,1.6-1.43v-35.5l1.8,15.5.21,21.5h2.99s1.5-15.02,1.5-15.02l.49,13.02,18,2.02v2.98c-3.86-2.58-8.4-1.79-12.29-2.38-.38-.06-7.54-3.65-5.69-.13,1.49,2.84,5.47,1.26,6.69,1.78.23.1.4,1.26,1.12,1.62,1.8.91,12.59,6.68,12.96,7.32.69,1.2.06,3.35.2,4.79l-1-3c-3.99,2.78-1.14,10.07-2.06,14.45l2.89.73.18,2.82c2.9.88,1.73-2.41,3.99-3-.64,4.29,2.11,6.8,6,4.99.05,1.98-.8,3.58,2,3.01l.06-9.44,2.93-7.55-1.98,18.99,3.84-1.65,1.16-17.35c4.24,1.2,3.77-1.68,5.61-2.84s8.74-4.4,9.38-5.67c.42-2.23-.99-1.42-2.5-1.51-3.48-.2-6.42.41-9.48,2.02-1.83-2.19,5.74-3.75,7.58-3.92,1.68-.16,3.33,1.08,4.76.97.31-.02,1.65-2.92,3.16-3.05.23-.02.99,2.54,3.47,2.02v-8.01s-12.99-3.5-12.99-3.5c3.64-1.42,7.69-.09,10.98,1.5l-.98-42.99c1.74-.23.94,2.27.99,3.48.52,12.59.65,25.22,1.2,37.81,1.1,3.71,5.58,1.73,7.8,4.21l-2.92.55.07,6.79,4.85,1.15.02-26.99,2.97,20.5c3,1.63,4.26,3.19,7.01.49-.87,3.78,6.03,5.22,9,7l-.98-12c4.08,2.99.66,10.25,2.98,15-.34.41-7.91-4.5-9.65-4.73-.89-.12-3.98.35-3.32,2.18l1.16,3.38,12.81,2.16c-3.04,1.13-6.59.82-9.61,1.9-1.42.51-1.68-.28-1.39,2.11,10.7.98,20.21,6.25,30,10-3.7-7.34-4.81-15.28-3.99-23.48.94-9.39,7.86-15.7,6-25.51,4.86,1.39-1.86,8.56,2.98,7.99.05-3.32-.05-6.67,0-9.99,1.68,2.96,2.19,4.12,2.48,8.02l1.02.96,1.5-1.48v-20c0-.74,1.63-2.93,1.01-4.49h.99s0,23.49,0,23.49c0,.55,2.24,2.08,3,1.49l-1.04-10.53,2.04-19.46v29h3.99s-1.99-1-1.99-1v-38l-3.01,6c-2.23-.26.04-4.17-1.92-5.57-1.68-1.19-5.1-.1-6.93.72-.31,10.31-.97,20.53-1.14,30.85ZM357.94,238.72h-6s2,38.01,2,38.01h2.99s1.01-38.01,1.01-38.01ZM513.94,243.72c1.66,7.53-.22,10.78,8.61,11.88,10.74,1.34,25.52-2.32,18.91-15.9-3.57-3.51-14.63,2.2-13.53,3.01.72.53,4.21-1.1,3.99,1-6.09-1.46-13.16,3.46-17.99.01ZM30.92,746.72L12.94,239.73c.17,6.49-.25,13.04-.05,19.54,4.95,157.91,9.18,315.87,16,474l2.03,13.45ZM753.94,494.72c1.98-.41,1.7-2.05,1.98-3.51,9.76-51.02,11.32-108.26,9.97-159.95-.8-30.33-.69-60.89-7.46-90.55l-4.49,254.01ZM189.93,294.73l-1.01-38.5-1.98-9.51c.38,16.05-2.39,32.02,0,48h2.99ZM183.93,289.73c-.49-12.8-.47-25.71-1-38.52-.05-1.22.75-3.72-.99-3.48-.76,14-1.37,27.96-1.01,42h2.99ZM573.93,250.74c-7.53-2.91-15.24-5.38-21.99.48.92,2.23,20.15,4.29,21.99-.48ZM614.93,248.73c-4.77-.29-9.55.33-14.2,1.29-1.8.37-6.05.8-6.79,2.69,6.43-.65,15.86.37,20.99-3.98ZM616.93,251.72c-9.14,1.97-18.24,3.52-27.49,5.02-1.33.22-1.75-.67-1.53,1.49,1.17,2.89,2.46,6.25,6.07,4,1.09-.68.22-3.44,2.94-2.5-3.35,8.83,18.56,4.05,20.55-.02l-.55-7.99ZM191.93,254.72v34h4c.74-11.42-1.43-22.61-1-34.01h-3ZM547.93,270.72c-2.77-5.37-1.52-10.33-2.49-15.99-7.77,5.77-3.34,7.62.07,13.97.71,1.32-.31,2.57,2.42,2.02ZM570.63,267.03c.51.35.66,1.79,1.28,2.19,4.9,3.14,15.39-7.45,11.03-13.06-10.36,2.98-20.29,2.81-31.01,2.56l.97,3.48c1.84-.3,4.24-.02,5.01,2.03,1.03,2.72-3.36.37-2.98,2.47h11c1.01-4.15-4.07,0-5-.99l.51-3.01c2.94-.14,6.68,2.59,9.19,4.32ZM542.92,276.72c-.66-6.4-3.07-12.49-7-17.55-6.6.73-12.17,2.65-18.89.62l-3.11,7.92,2.91.07.22,3.79,25.87,5.15ZM174.94,291.72c1.93.31,2.66-.78,2.98-2.5,1.28-6.83-2.7-18.81-1-26.49l-1.98,13.51v15.48ZM646.93,320.22c-1.72,16.82,1.28,36.38,0,53.5-2.31.12-1.79.36-2-1.48-1.49-12.69-.64-25.32-.96-38.06-.13-5.17-1.15-10.3-1.09-16.01.02-2.32,1.29-5.7,1.14-6.85s-2.53.09-2.08-1.59l8.4-1.92.55-3.02-156.95-34.08c-.25-1.36,1.79-1.52,2.75-1.72,3.41-.73,7.71-.89,11.25-1.27v-2.99c-4.41-.49-24.28.11-23.98,6.5l121.97,33.5-7,.98c.71,12.89-.95,26.71.02,39.49.31,4.1,2.57,17.48,4.21,20.79,1.47,2.97,26.46,13.68,31,15s18.99,5.72,19.8-.84l-1.03-66.94c-3.49-7.07-5.64,3.53-5.99,6.99ZM650.93,266.73c-5.67-.2-10.54-1.49-16.37-.88-3.09.33-8.73.84-8.62,4.87,6.97-1.69,14.34-1.34,21.41-2.08.96-.1,3.76-.45,3.58-1.9ZM591.94,268.73c1.36,5.73.35,11.98-1.78,17.53l.72.96c1.58,1.36,20.5,5.16,23.7,5.41,8.68.69,5.01-4.25,4.42-8.46-.72-5.18-.55-10.4-4.05-14.99l-23.01-.44ZM428.93,296.72c-7.92-22.7-42.34-34.7-61.99-19.98l.5,1.99,4.49.98c-5.99,1.19-9.66,8.33-15.5,11-.74-4.07,6.42-6.17,7-10-2.98.55-6.37,3.15-9.01,3.99-2.83.91.06-2-.99-2-10.71,1.04-18.88,10.58-17.44,21.46.24,1.8,1.53,3.18,1.9,5.1.22,1.11-.92,2.68-.72,3.83.07.38,3.37,4.77,3.82,5.06,1.55.99,4.35.2,4.94,2.55-1.32-.36-4.18,1.4-4.85.92-.54-.38-.57-2.94-2.13-2.91-1.01,8.99,6.53,13.25,11.5,18.99,2.26,2.61,4.08,6.15,6.44,8.56,12.13,12.33,35.22,13.9,51.53,12.44,15.35-1.37,20.51-7.51,24.22-21.78,3.44-13.27,4.12-28.47-3.7-40.2.64,1.82,1.76,5.65,2.03,7.48.14.95.62,3.81-1.02,3.51-.93-3.1-1.61-6.46-3.17-9.34-2.95-5.44-9.59-10.54-11.83-16.66,5,4.13,10.4,9.62,13.99,15ZM625.43,280.72c4.79,1.22,21.67,0,28,0,2.57,0,1.42-9.09-.46-10.54-5.22.09-12.25-.04-17.45.62-3.31.42-7.89,1.74-7.58,5.91,4.04-.7,10.95-2.83,11.99,3l-15.99-.98c-.03.63,1.16,1.9,1.5,1.99ZM562.92,283.71c8.16,1.98,30.64,9.44,20.21-6.69-4.03-6.24-8.37-2.29-13.71-2.5-4.05-.16-10.39-1.79-14.1-1.75-2.96.03-2.91,5.41-2.37,5.92.26.24,2.3-.18,3.28.22,1.96.79,1.17,3.89,4.69,2.83l3-5-1,6.98ZM485.8,343.57c2.22-6.46.18-12.36.09-18.3-.24-15.48-1.42-30.61-1.96-46.05-.04-1.21.74-3.72-.99-3.48l-.98,67.51,1.96.98,1.88-.65ZM172.93,298.72v-15.5c0-1.08-2.01-4.35-1.01-6.5h-.99s0,15.5,0,15.5c0,2.21-.35,5.94,2,6.5ZM493.93,285.72c4.55-.14,8.64,1,12.98,2l.99-5.97-19.96-5.03.43,7.06c1.15,1.59,3.94.49,5.44,1.09.23.09.09.83.13.85-1.69.05-3.42-.33-5.04.45l-.99,2.05,2.47,55.6c1.19,4.29,15.24,4.41,19.56,4.91-3.98-19.58-3.01-39.47-2.94-59.38-.4-1.49-10.3-1.85-12.39-2.63-.88-.33-.62-.96-.67-.98ZM539.94,290.73l-27-7c1.16,11.53-1.5,23-1.05,34.54.38,9.6,3.17,19.53,2.09,29.42l9.44,2.04c2.99-2.09-.35-2.92-1.81-4.17-.86-.74-3.23-1.93-.23-1.78,1.34.79,16.48,3.26,13.56,5.94-2.4.74-7.48-2.77-8.99,0l10.04,2.6c5.21-17.53,4.72-36.56,1.74-54.38l-23.78-7.19,24.46,6.02,1.54-6.03ZM624.94,286.73l.12,7.37c.77,2.26,16.26,4.49,19.34,4.66,13.85.78,24.87,1.87,10.83-12.87-10.11.51-20.24,3.69-30.29.84ZM595.82,304.83l-51.89-12.11.12,5.87,8.88,2.63-10.01-.5c.57,17.99-1.38,36.24,1.46,54.05,6.21,1.66,10.04,7.18,15.89,9.11,3.42,1.13,23.26,5.65,26.23,5.78,1.33.06,9.52-1.22,10.01-1.89.34-4.29-2.01-8.18-2.57-12.56-1-7.85-.61-17.49-1.02-25.49l-3.03.52-.95,4.49,1.98-1.01v4.01s-1.98-1.01-1.98-1.01c-.34,5.13.58,13.62-1.16,18.36-.44,1.2-1.67,1.63-2.85,1.66l3.99.99c-.39,3.96-1.94,7.91-4.5,2.96l-3.49,2.03.82-2.88-1.82-.61c1.2-1.88,2.28-.82,3.99-.51-2.26-4.33,1.41-4.36,2-8l-2.98,2c-.21-1-.38-2.66-.91-3.42-.96-1.38-3.91.68-3.11-2.57,1.58.78,8.62-1.4,6-4-1.82-1.8-3.82,3.49-5.98,2l-1.06-6.47c1.3.16,6.97-4.79,7.07-5.23,1.01-4.12-2.58-16.18-.05-17.86l3.02.56-1-2.99h6c-2.57,3.71-.89,7.22-1.41,10.08-.39,2.14-2.93,1.45-2.62,3.38l1.54,2.53.65-1.76,1.83.77,2.9-22.9ZM698.93,357.22c1.44-17.32-1.07-36.47,0-54l-2-1.01-4.99,5.51-1.02-7-4.98,2c.07-5.48,5.86-5.5,8.99-8.5.15-.77-.91-.6-1.5-.51-5.2.82-29.46,8.71-33.5,11.51-.5.35-1.68,1.44-.49,1.51,4.26-.12,7.96-2.22,11.74-3.34,1.73-.51,3.52.01,5.24-.59,2.95-1.02,6.09-5.07,9.51-3.58l-25.99,13c1.53,2.11,1.79,1.36,3.69.72,3.12-1.06,7.44-3.86,10.31-5.7.87-.56,2.57-2.63,2.97,0,.46,3.01-14.63,8.02-15.92,11.06-.21.49-.46,2.42.42,2.42l6.51-3.99-.78,1.82,1.78.65-2,5.52,7.99-4.99c-2.18,4.87-7.07,7.19-10.7,10.79-.99.98-2.84.97-2.3,3.19,3.97,3.46,14.71-9.76,17.51-10.99,1.24-.54,1.89.27,1.48,1.48l-12.5,11.51-.99-1.99c-2.09,2.76-7.86,4.88-8.52,8.49-.89,4.88,7.1-3.53,8.01-2.48,1.06,5.65-5.34,6.5-7.99,10.5l6.99-3.5-7,8.98,7.01-2.48-7.01,8.48,7.99-5.99-5.98,13c3.08-3.72,6.75-6.94,10.01-10.49,2.29-2.5,4.13-7.86,8.98-8.5l-19,24.98c1.88.44,2.38-1.04,3.5-1.99,5.27-4.42,9.01-10.32,14-15,1.64,1.01-.34,2.21-1,3-3.3,3.99-6.74,7.92-10.5,11.5,6.31,1.39,19.48-10.44,21.91-15.17,1.26-2.45.12-6.66.09-9.33l3.98,4.99.02-43h2.99c-.25,18.67-2.27,37.39,0,56,2.33.14,1.78.35,1.99-1.48.26-2.28.85-5.21,1-7.01ZM196.79,304.59c.81-4.4-.29-7.27-4.72-4.71l-.16,4.85c-2.37-1.01-3.66,1.19-4.49-2.01l-1.5,2.99,10.86-1.13ZM202.93,298.73c-8.85-1.45-3.71,9.78-.48,5.02l.48-5.02ZM215.94,299.73l-7.99-1v4.99s6.42.9,6.42.9l1.46-1.5.12-3.38ZM222.94,299.72h-6.01s.14,6.87.14,6.87l5.86,2.13.02-9ZM230.93,313.72c-2.03-5.09,3.24-13-4.97-12.98l-1.91,9.36,6.88,3.62ZM429.93,354.71c1.72,1.63,7.07-6.48,7.8-7.69,8.01-13.19,9.28-33.08.69-46.3,2.86,17.68-.36,37.96-8.49,53.99ZM238.93,304.72l-6-2v14l6,2v-14ZM293.93,308.72l-1.55-2.98c-8.97,3.6-17.79.15-24.45,9.48-4.95,6.92-1.33,8.22-1.31,14.19.01,4.26-4.23,8.68,3.31,11.31-.13-3.2-2.94-4.71-2.78-8.23.51-11.41,15.91-23.17,26.79-23.78ZM260.6,340.05c-10.71-7.1-21.12-14.83-32.37-21.12s-21.37-13.42-34.26-8.15l.76,1.44c-4.65.73,2.44,4.2,3.19,3.5-.09-3.15,1.6-5.46,5.01-4.99-2.03,2.76-6.56,2.85-1.94,6.44,4.14,3.21,14.25,8.82,19.27,11.72,13,7.5,27.61,15.27,42.16,18.84.89.01.78-1.29.03-2.03-1.31-1.31-14.74-5.65-18.21-7.79-1.67-1.03-3.52-2.31-4.31-4.18l21.5,9.99-.84-3.67ZM185.93,317.72c-.28-.09-2.7-2.19-4.97-2.59-3.94-.69-11.26,3.44-12,7.1-1.25,6.17.54,8.63,5.98,10.98l9,2.99c-1.04,3.35-12.66-4.53-15-2.99,11.13,7.44,23.92,12.5,36.78,16.22s33.09,8.66,45.99,10.01c3.76.39,12.05,1.65,13.2-3.24.74-3.16-3.96.22-5.46-.48l-1.03-2,1.5-1.5c-10.54-4.8-21.77-9.43-32.34-14.64-14.93-7.36-25.57-14.45-41.64-19.86.58.54.48,12.94-3.99,12l-1.01-11.99h5ZM278.94,345.72c8.81,21.01,34.52,27.66,55.24,23.75,5.73-1.08,12.25-3.19,15.52-8.36-1.55-3.72.2-9.11-1.28-12.36-.65-1.42-3.98-3.68-5.32-5.68-2.81-4.21-3.97-8.3-7.65-12.35-7.8-8.57-24.17-15.75-35.77-13.75-1.07.18-13.94,5.27-15.12,5.88-5.15,2.69-11.67,13.67-5.13,17.89.78,1.57,2.32.26,2.5-.52.72-3.26-2.34-2.93-2.77-3.68-1.58-2.73.86-7.69,4.78-6.8l-2.99,4.99,4.98-3-.98,6c7.01-5.12,2.68,1.1,1.98,5l-3.47-2-1.52,2.49,10.99,9.53-4.99.48,10.64,7.36,15.35,5.13c-15.28.81-26.16-8.86-34.99-19.99ZM475.93,362.71l-30.99-17.99,2.98,4.99c-1.9.17-5.65-2.41-5.51,1.01,7.54,2.8,14.34,8.74,22.51,9-.18,1.39-1.36,1.72-2.55,1.94-4.92.9-10.95.53-15.82,1.18-87.79,11.63-175.44,23.29-264.12,27.88l-12.5,1.98c82.85-2.9,165.35-10.62,247.35-22.13,19.51-2.74,38.94-7.66,58.64-7.87ZM698.93,379.72c-1.61-1.6-38,8.72-44.53,9-3.85.17-7.99-.59-11.82-1.15-31.49-4.63-68.39-17.31-99.44-25.56-20-5.31-40.24-9.89-60.21-15.28l.1,4.89c45.73,8.23,88.16,28.38,133.89,36.11.15,1.87-3.23.97-4.36.86-29.45-2.79-57.19-18.66-86.65-21.4l-.97,84.52,6.91-20.58c2.36-6.38-3.99-18.53-2.51-23.45,1.75-5.8,9.35-7.06,14.59-6.98.27-1.31-1.84-1.6-2.74-1.74-3.78-.6-6.4-.02-10.26-1.79-1.51-.69-2.47.15-1.99-2.45l22.99,4.99-21.99-6c-3.78-3.73,9.23-.55,9.96-.44,1.05.17,3.26,1.34,3.03-.53-1.37-.43-16.8-4.59-13.99-7.01,20.4,1.71,37.69,14.33,56.99,20.01h-5.99s7.99,5.49,7.99,5.49c-4.94,2.24-34.53-10.66-35.99-9.5,3.42,5.66,1.33,12.33,2.01,18.48,2.53,22.72,13.39,44.44,19,66.51l10.68-37.8c.93-7.58,3.87-16.25,4.35-23.75.22-3.49-2.02-6.52-.12-9.78,7.59-4.9,18.48-2.93,24.9,2.82-3.86,3.45-.72,7.54-.78,11.06s-1.97,6.98-.79,10.71l18.77,46.74c2.78-2.04,3.13-6.26,5.93-8.56,5.86-4.82,20.01-1.97,24.98,3.14,5.79,5.94,7.07,34.69,9.21,43.79.79,2.39,8.42,2.74,10.87,2.64v-8s1.92,7.57,1.92,7.57l3.47.34,1.45-1.57-.84-49.34c1.74-.23.94,2.27.99,3.48.23,5.67-.25,11.39-.04,17.05.09,2.37,1,4.55,1.08,6.92.21,6.33-.3,12.72-.04,19.05.05,1.22-.76,3.72.99,3.48l1.51-111.01c2.93,37.24.24,74.83,2.5,112.01h3.99s1-148.01,1-148.01ZM260.93,365.73c-26.81-1.24-51.67-12.1-77.55-18.04-5.34.17-7.58,4.25-12.81,6.28-2.3.9-4.1-1.09-4.65,2.26-1.77,10.59,15.1,12.76,22.78,14.23,19.16,3.68,35.65,4.91,54.83,2.37,6.18-.82,16.61,1.31,17.4-7.1ZM692.87,366.67c.29-.31.95-7.23.96-8.34,0-.76-.48-4.77-1.89-4.6l-5.99,12.5c.12,1.99,6.67.71,6.92.44ZM353.93,364.72h16c.51-2.87-.71-1.63-2.2-2.25-5.61-2.32-13.83-7.38-13.8,2.25ZM448.93,360.71c-4.21-4.3-15.43-.94-20.76.75-1.21.38-4.23.75-4.23,2.25l25-3ZM509.92,465.72c-.83-24.96,1.13-50.65.05-75.54-.26-6.06-.74-18.4-2.3-23.7-1.72-5.84-14.32-6.64-19.75-7.74,1.13,2.47,4.98,2.91,5.79,5.7.27.92,1.2,12.27,1.14,13.72-.19,4.92-4.04,8.67-7.93,11.09l4,1.48.99,15.49-2,1.03-2.5-13.51c.43,3.44-1.87,6.87-2.19,9.27-2.27,17.36.9,38.28-.12,56.04l5.8,4.69c1.65-12.04.54-24.48,2-36.52.18-1.48.79-3.06,2-1.47,1.44,5.72-2.9,38.83.02,40.99.9,0,1.55-.9,1.77-1.71,1.58-5.68-.1-20.75.17-27.83.57-14.85,1.04-30.19,2-45,.11-1.74.38-6.55,2.03-7.46l1.02,83.99c2.26-.81,2.77-3.4,3.01-5.48,1.88-15.98-1.81-35.06.02-50.98l-.04-21.53,1.98,14.51.97,44.03,2.03,16.45ZM484.93,364.73c-3.08-2.68-68.15,8.57-77.64,9.85-55.79,7.55-111.71,13.6-167.86,18.14-20.25,1.63-40.7,3.24-61,4.01-1.21.05-3.72-.75-3.48.99,16.83.07,33.68-.86,50.48-2,81.81-5.55,170.07-13.97,250.87-27.13.94-.15,11.51-1.35,8.64-3.85ZM386.93,366.73c-3.59.34-6.89-.94-10.45-1.06-6.14-.21-16.01.26-22.09,1-3.7.45-6.71,4.17-10.48,5.52-14.23,5.12-29.03.88-43.47,1.53-20.41.93-45.2,4.28-64.97,8.03-20.38.87-40.73,2.36-61.05,3.95-1.16.09-4.48.32-4.49,2,18.82-1.09,37.69-2.75,56.51-3.98,47.03-3.08,110.73-3.22,155.53-14.47,1.23-.31,4.8-1.03,4.96-2.53ZM516.93,365.72v100l1.99-10.51c-3.61-27.06,1.89-56.45.05-83.03-.11-1.53-.22-5.96-2.04-6.46ZM684.72,367.97c-2.24-1.11-7.7,4.81-8.79,6.74l17-4v-1.98c-2.06.95-4.29,1.35-6.56,1.1-1.85-.2-1.41-1.73-1.66-1.85ZM299.93,372.71c-2.46-4.79-7.86-4.2-12.49-3.98-7.02.35-19.89,1.71-24.51,6.98l37-3ZM486.93,369.72c-105.61,14.42-211.63,29.65-318.33,32.96-1.71.42-1.51,4.66-.53,5.92l80.35-.88c74.43-8.19,152.03-10.28,225.87-22.13,12.41-1.99,13.5-1.88,12.64-15.86ZM668.93,374.73c-1.85-1.2-13.02,4.1-10.99,5.99,3.88-.85,8.9-2.36,10.99-5.99ZM475.93,455.22v-40c0-.17.98-2.92,1.99-2.49,1.24,7.12-2.16,38.62.51,43,.51.84,3.97,2.58,4.5,1.99-.18-19.44,1.34-38.57,0-57.99-4.36,1.24.54,9.61-3.98,8.99.44-1-.31-17.28-2-14.99-.3,2.1,1.01,10.46-1.53,10.99-4.74,1-.1-9.84-4.48-8.99,1.54,5.63-.8,11.01-1.05,16.45-.62,13.97-.08,28.91,1.05,42.81l11.5,8.73c2.54-3.25-5.72-5.72-6.51-8.49ZM565.93,399.74l-19.99-5,16.73,5.76,3.26-.76ZM445.93,402.22c-.71,4.26.51,10.03,0,14.5l-3-1.5v-14.5h-4s-.85,15.34-.85,15.34c.86,2.56,16.53,7.84,19.85,11.16,4.91,4.92,4.73,15.2,4.97,21.8l4.53,3.69,1.36-51.36-1.87-1.15c-2.06,7.62-3.68.88-6.98-1.48.19,2.63-.18,5.16-.87,7.68-.47,1.71.72,2.78-2.13,2.31.1-.62.64-13.49-2-10l-2.5,12.98c-2.43-.06-1.26-10-1.5-11.98-2.48-.32-4.53-.28-5,2.51ZM434.93,401.72l-5.86,1.14-.81,8.43,6.18,4.42c1.93-1.25,1.09-1.59,1.03-2.98-.15-3.58-1-7.32-.53-11ZM424.92,402.73l-6.55,1.93-.29,3.94,6.85,2.12v-7.99ZM541.71,405.01c-2.87.3-6.78.98-8.76,3.22,0,2.66,17.96,4.44,15.97-1.99-.72-2.34-5.42-1.42-7.21-1.23ZM348.93,406.73c-4.98.11-34.91,1.37-36.77,3.22-.84.84-.81,2.6-1.31,3.69l-5.91-.93-1.02,5.01c-3.92-1.04,2.01-8.61-2.98-7.99l-2.02,11.99c-1.45.17-1.55-3.66-1.61-4.66-.16-2.67,2.56-7.17-2.37-7.33-1.28,9.65-1.87,19.36-1.01,29h12.01c.21-5.36.19-15.47,2.22-20.29.98-2.33,7.21-4.42,8.81-7.19l31.97-4.52ZM415.92,414.74c-7.52-2.65-7.86-7.26-16.54-7.07-17.1.38-38.8,2.25-55.95,4.06-4.31.45-9.73,1.23-13.99,2.03-1.63.3-1.74-.68-1.52,1.96l7.46,1.04,30.54-3.03-15.99,2.98,23.99-.98-16.99,2c-.23,1.75,2.27.94,3.49.99,2.92.12,6.14.17,9.05.04,9.53-.41,21.98-3.32,30.99-3.15,3.21.06,4.53,2.1,6.92,2.17s5.34-1.8,8.05-1.05l.5-1.98ZM290.93,409.72c-2.37-.72-2.7,1.78-2.9,3.57-.98,8.73-1.18,17.7-2.09,26.42l4.99-1v-29ZM282.93,410.72v27.5c0,.17,1.35,1.57,1.99,1.5-.57-9.74,1.69-19.28,1.01-29.01h-3ZM270.93,430.72v-17.5c0-.17-1.35-1.57-1.99-1.5,1.25,6.14-4.53,15.25,1.99,19ZM272.93,411.72v21.5c0,.25,3.25,3.85,4.01,2.99-2.07-7.14-1.1-15.78-2.01-23.01-.19-1.48-.79-3.09-2-1.48ZM279.93,411.72h-2v26.5l2.99,1.5c1-2.14-.99-5.39-.99-6.5v-21.5ZM264.93,412.73l-2,3.99-2.98-2.99c-.63,2.59-2.51,6.53.98,8l1-2.99c-.04,2.11.75,7.36,4,6.99l-1.9-3.42.9-9.57ZM323.83,413.83h-4.79s-1.65,9.89-1.65,9.89l4.54,3.5-1.99.99c5.38,3.55,9.18,8.94,13.98,13.02,1.05.9,4.21,3.62,5.06,4.04,2.63,1.32,8.88-6.17,10.94-8.05-6.3-7.62-15.93-12.27-24.98-15.51l2.99-1.48c-2.98-1.63-3.84-2.92-4.1-6.4ZM187.93,438.22c-.33-6.54,0-13.41,0-20,0-.55-1.47-2.2-1.01-3.5-3.24,1.33-1.69,5.98-2,8.99l-1-5.99c-.21-.28-1.28.52-1.51.98-.86,1.74-1.76,19.66-1.49,22.52.15,1.56.72,2.97,1.06,4.47,3.03-2.2.66,1.73,3.95,1.02v-29h1v28h1.99c1.02-2.57-.91-5.85-.99-7.5ZM196.94,415.73c-1.49,2.92,0,18.96-2.51,18.97-4.05-5.68.4-13.58-1-19.97-3.5,8.81-3.2,19.61-3.49,28.99l1.98-7.99c.24,3.99-1.32,8.37,2.52,10.99-.38-10.87,7.6-18.78,5.48-29.99l-1.98,1.99-1-2.99ZM201.94,423.72c3.68.97,7.99-6.64,4.49-7.99l-2,2.99-2.49-1.99v6.99ZM173.93,431.72c.09,4.43-.25,8.9.17,13.33l2.83,1.67v-30c-4,2.82-1.21,10.13-1.96,14.42l-1.04.58c-.09-4.32.08-8.68-.01-12.99-1.01-.43-1.99,2.33-1.99,2.49v16.5h.99s-.03-5.42-.03-5.42l1.04-.58ZM340.94,484.72c22.15.19,44.48-1.37,66.49-4,7.82-.94,15.97-1.9,23.72-3.28,4.63-.83,17.53-2.57,19.68-6.32,1.77-3.07,1.52-23.16,1.15-27.93-.36-4.51-1.98-12.39-5.67-15.33l-25.2-10.58c-16.42,1.82-33.13,4.77-49.67,5.42-6.22.25-8.35-1.85-11.98-2.08-4.74-.3-13.3,2.15-18.51,2.11.46,1.86,3.68,1.91,5.25,2.97.96.65,1.28,2.23,2.34,2.9,2.82,1.78,15.37-1.57,19.91-1.87,9.15-.6,18.41.78,27.49-1,.83,2.79-3.87,2.46-5.67,2.82-11.04,2.17-23.09,3.07-34.32,4.19.06,1.51,4.61,2.04,5.54,2.03,12.87-.16,27.85-3.05,40.96-4.03,10.76-.8,21.75-1.08,32.5-1.51-6.72,1.84-14.42,2.76-21.52,3.49-16.85,1.73-36.57,1.13-52.88,4.12-5.99,1.1-16.87,8.77-18.37,14.63-2.32,9.1,1.87,23.57-1.24,33.25ZM592.94,418.74l.44,3.04c1.13,1.54,11.83,1.71,12.55-.56,1.69-5.38-10.39-3.52-12.99-2.48ZM179.93,437.22c.58-5.17-.43-11.22,0-16.5h-.99c1,2.15-1.01,5.42-1.01,6.5v14.5h.99c-.56-1.69.89-3.44,1.01-4.5ZM258.93,427.71c-2.36-3.38-10.66-5.61-13.99-2.49l13.99,2.49ZM222.93,424.73c-2.29.14-6.35,1.05-8.03,2.51-.8.69-.26,2.16-.94,2.98-2.45,2.97-5.06,5.29-9.02,3.5-.39,1.47-.02,1.27.6,2,1.3,1.5,3.75,3.1,4.65,5.28.6,1.44-.84,3.23.74,4.23l2.5-2.51,4.49,3.49-4.97.5c-1.05,2.74,2.5,4.13,2.77,5.6s-1.26,3.31-.63,5.67c.81,2.98,6.58,4.81,7.85,7.72l-7.5-4.99c-.74-.16-.68,1.05-.49,1.48.55,1.22,13.46,13.72,15.52,15.49,7.88,6.73,26.96,20.19,36.93,21.07,13.46,1.19,22.43-4.27,17.58-18.58-6.21-18.34-33.15-43.02-50.12-51.87-9.25-4.83-10.21-.15-12.39-.58-3.66-.71,0-1.85.47-3ZM337.93,480.72c-1.09-9.88,3.52-22.61-.57-31.92-1.36-3.1-17.44-19.33-20.46-20.55-1-.4-1.84-.77-2.95-.52-3.67,10.54-2.25,23.16.76,33.71,6.72,3.98,13.96,14.62,19.68,18.32,1.23.79,1.99,1.24,3.54.95ZM300.93,496.71c5.54-.55,8.93-6.49,5.86-11.35-11.64-10.04-34.69-50.39-46.83-55.16-2.43-.95-9.21-2.68-10.02.51l10,2.02-1.59,2.85-3.4-.36c14.28,9.26,25.8,22.48,33.17,37.83,2.29,4.77,6.35,12.81,4.82,17.67l5.02,1.04.5,3.96,4.48-2.99-1.99,3.99ZM545.93,453.72v-22.5c-.78-1.61-5.73-1.48-5.95.03l.96,32.47,1.98-1.01,2,32c-1.54.14-1.69-2.52-1.88-3.6-.98-5.48-1.12-11.82-1.12-17.39l-1.98,1.99c1.08-6.35-1.08-13.65-1.1-19.5,0-2.21,2.58-23.51.59-23.51-2.57,9.38.76,22.16-7.49,29.01l3.94-10.55-.94-9.44c-2.69,17.48-12.65,33.98-10.02,51.99l-2.98-1c.08.83-.16,1.77-.06,2.54.06.44-.06.81.23,1.29.52.88,15.84,8.28,18.15,9.34,2.85,1.3,19.15,8.36,20.67,6.82l-3.01-17.99c-1.73,0-1.1,4.37-1.04,5.54.15,2.92.97,5.56,1.04,8.45l-3.9-9.58-2.07-28.41c1.45-.26,1.29,1.89,1.51,2.97.67,3.3.7,6.75,1.49,10.02,1.75,0,1.1-4.38,1.03-5.53-.43-6.58-3.18-12.81-3.05-19.46l-1.98,9.99-3.02-18.99-1.99,3.99ZM603.93,433.73l-11.41-1.02-.6,2.51c.47,1.49,12.66,3.53,12.01-1.5ZM590.93,462.72v-20.5c0-.2-.93-3.9-1.99-3.49l.98,33.99c-3.95.74-.38-3.32-.95-5.44l-2.03-12.55c-3.13,21.86-11.55,42.57-7,64.99,1.67.26,1.07-2.42,1.04-3.53-.27-8.5-1.71-14.9.05-23.87.36-1.81,4.25-12.97,4.92-13.59.15-.14,2.34-.45,1.97.76l.09,2.13,2.91.63c.68,5.7-7.13,11.61-7.98,16.01-.45,2.31,1.45,21.69,2.48,23.48.28.48,1.29,1.29,1.5.99l3-12.99c.07,2.45-.2,4.92.13,7.37.2,1.51.49,6.04,1.87,6.62.74-3.67.67-7.6,1.26-11.25.15-.9.42-3,1.74-2.74.53,1.73.55,20.83,4,16.99v-9.99s2.27,1.23,2.27,1.23l1.75,9.75c3.81-.89-.29-9.61,3.99-8.99-2.18,5.68,1.87,17.19,9.4,15.06l2.67-6.51-3.14-3.06,1.08-11.5,1.97,1.01,2.01-4.01,2,5.99c-.23-5.84.14-13.81-1.05-19.44-.89-4.24-4.5-8.93-3.95-14.05,1.34-1.65,1.42,2.45,1.77,3.24,2.12,4.85,5.46-5.59,1.25-6.75l-1,2.99-3.02-9.99-1.98,1.99c-3.07-9.97-9.75-19.13-9.02-29.99l-1.02,8.52c-.52,1.69,2.76,5.56,2.02,6.46-1.38,1.68-2.2-1.04-2.48-1.96-1.27-4.21.03-8.5-2.02-12.03-.17.92-1.83,16.26-3.49,13.99l-.51-7.01c-1.62,0,1.41,7.26-2.5,6.01v-14l-3.08,15.42-1.92,3.58ZM566.92,513.72l-3.48-27.01-12.5-44.98c.69,13.06,5.62,25.33,8.5,37.98,2.35,10.34,3.55,20.93,5.76,31.25.21.97.36,3,1.72,2.75ZM300.93,449.72l5.02-1.48-.53-2.52-15.48,2.01c1.86,3.36,7.59,1.81,11,1.99-.45,2.42-5.93-.64-7,2.99l7.99,1.51-4.99,2.48,10,1.01-.44-7.07c-1.03-1.46-3.96-.85-5.57-.94ZM202.93,457.73c-1.43-1.09-25.4,1.69-29.2,2.29-1.18.19-4.85.25-4.79,1.7,6.91.5,13.72-1.41,20.5-1.98,3.87-.33,8.29.47,12.01,0,1.38-.18,3.13-.74,1.48-2ZM204.93,461.73l-15.99,2.98c4.65-.12,9.3.55,13.83-.7,1.77-.49,2.6.32,2.16-2.28ZM481.93,478.72l-1.52-2.97-18.47-13.02-.84,8.84,13.83,7.14c-4.15.33-7.93-1.92-11.7-2.79-1.5-.35-2.68-.81-2.29,1.29.86,1.77,7.65,3.95,9.7,5.27.98.63,1.79-.1,1.28,2.24-5.81.28-11.74-.34-17.55-.04-17.98.91-37.46,2.62-55.93,4.06-21.32,1.66-42.78,3.7-63.9,6.75-3.5-.68-13.75-17.33-18.05-19.82-1.54-.89-2.82-1.11-4.56-.95l1-2.98h-3.99c-.69,2.71,1.41,1.49,2.3,3.22,11.77,22.67-2.84,31.53-23.6,21.87-9.55,7.91-13.28,12.17-25.98,7.68-14.16-5.01-27.31-15.84-38.78-25.28-2.16-.95-7.76.03-8.94,2.49,2.65.85,7.74,3.85,9.89,5.62,1.53,1.25,2.28,3.44,4.08,4.92,5.93,4.9,12.4,9.21,18.03,14.46-3.64-.85-7.28-3.97-10.33-6.16-3.96-2.84-11.84-10.99-16.1-10.88s-9.2,2.66-13.57,3.05c1.27,6.78,10.53-.29,15,1-.87,2.98-10.17,2.92-11,4,2.58,7.72,14.21,2.51,21.02,2.41,1.5-.02,2.46-.5,2.98,1.57-7.65.02-14.57,2.41-21.88,4.19l-.12,2.83c-1.22-1.1-10.26-1.17-8.98,1.48,2.31,4.79,8.46-.9,10.53-1.44,8.67-2.26,19.5-1.81,28.45-3.03.06,1.45-3.61,1.51-4.79,1.7-10.75,1.68-19.96,3.14-30.2,7.31l6.99,2-3.99,2.98c44.06-2.65,87.63-10.4,131.5-14.98,44.43-4.64,89.22-6.7,133.51-12.49l.96-1.02c-3.09-3.09-.87-7.17-.06-10.85l6.08-1.66ZM208.93,468.72l-2.45-3.59-29.54,5.59c10.74-.18,21.19-2.94,31.99-2ZM213.93,471.71c-.36-1.74-2.01-1.96-3.5-2.07-4.2-.3-18.66,2.42-23.73,3.35-3.36.61-9.62,1.39-11.77,3.72l39-5ZM517.93,471.73c-1.66-1.62-20.12,4.88-23.25,6.24-4.84,2.08-9.32,6.59-1.33,5.74,1.97-.21,18.41-6.05,20.86-7.21s4.33-1.29,3.72-4.77ZM201.94,475.73c-.38,2.31,1.94,3.16,3.66,3.82,4.96-4.72,9.65.35,14.31-3.33-4.72-5.14-11.97.16-17.98-.49ZM655.94,485.74c8.6-3.01-4.86-6.67-8.64-6.95-4.29-.32-7.76,1.02-10.35,4.46-.93,2.3,4.74,2.49,5.99,2.49l-4,2.98c6.21.69,13.65,2.84,18.99-1.49l-1.99-1.48ZM196.56,498.11c-8.47-6.67-17.83-13.78-27.62-18.38,7.08,6.73,14.62,13.15,22.25,19.25,1.39,1.11,3.52,1.3,4.42,2.06,2.66,2.22.82,6.16,6.92,4.84,1.43-.31,2.84.57,2.4-1.65-3.79-1.39-5.76-4.07-8.37-6.13ZM514.93,480.73c-3.14-.32-6.03.72-8.99,1.5-2.23.59-6.66,1.57-8,3.48,3.75-.13,7.44-1.41,10.99-2.5,1.63-.5,5.42-.95,6-2.48ZM218.92,485.74c-5.6-2.9-11.96-.8-18.01-.53l-.97,3.5c1.14,1.73,13.83-.75,16.24-1.25.95-.2,3-.37,2.75-1.72ZM638.43,541.72c5.46.64,11.92-.47,17.5,0l-15.45,3.04c-11.8-.81-22.24-3.97-33.32-7.77-36.35-12.46-79.52-32.09-114.9-48.1-3.36-1.52-5.79-3.38-8.88-5.22-2.87-.29-4.96,2.33-4.46,5.04,34.4,10.65,66.73,26.95,100.02,40.5,13.03,5.3,47.64,21.01,59.57,21.42,14.09.49,36.45-13.81,51.41-14.92l-8.37-.87-18.62,4.87c.4-1.92,5.63-3.28,6.01-4.7s.17-6.91-.02-8.78c-.37-3.57-6.5-22.99-8.17-25.83-.39-.66-.57-1.4-1.45-1.61-7.87,1.76-16.43,4.68-24.36,1.92-1.95,12.59-8.27,24.2-7.05,37.35.22.94,9.11,3.49,10.54,3.66ZM190.93,488.74c-.47.62,6.34,6.46,7.97,2.49l-2.64-3.42-5.33.92ZM627.25,504.45c-.9-3.13-.92-7.2-1.84-10.72-.3-1.14.07-3.25-1.47-3.01-.33,2.8.24,20.96,2.49,20.97,2.08-1.49,3.13-3.72,2.5-6.3-.17-.68-1.6-.69-1.68-.95ZM638.93,493.72h14.5c.41,0,3.48-1.94,3.5-2.99-6.17,1.56-11.72-.56-18.01,0v3ZM484.93,555.72v-53.5c0-1.29-1.26-8.31-3-8.5v60.5l3,1.5ZM657.93,494.73c-3.27-.24-6.14.99-9.44,1.03-4.06.05-12.66-2.61-12.55,1.95,6.06,1.22,12,1.24,18-.49.96-.28,4.04-1.21,3.99-2.49ZM201.72,511.9c-.72-.48-2.68,0-3.72-.71-4.84-3.24-9.84-7.85-14.76-11.28-2.15-1.5-4.75-3.71-7.32-4.17,2.53,3.93,22.54,19.91,25.51,19.97,1.51.03,1.27-3.15.29-3.8ZM645.93,597.72v-35.5c0-.73-1.52-2.93-1.06-4.44l-3.94-.07,4-2.99h-16.5c-.93,0-10.33-3.28-12.03-3.97s-9.65-5.94-10.46-5.02l.5,19.99c-3.78-6.33-2.58-14.96-3.96-22.04l-25.53-10.96c-.05,3.38,1.36,6.43,3.99,8.5l-2.99-.5c-.64,9.02-.21,5.4,3.94,7.52.27.14,4.84,3.27,5.05,3.5.51.58.34,2.57-1.43,1.93-1.13-.41-6.78-4.86-7.56-3.94-1.63,4.03,1.88,5.12,1.86,5.44-.09,1.97-1.54,3.84.15,6.55l.97-2.3,2.01-.69c-.97,3.4,4.03,3.75,5.99,6.5-1.92,2.51-5.27,1.3-7.98,1.49l1.99-3.98-3.98,1.99c-4.53-10.64-6.64-22.3-7.14-33.87-.58-.86-8.61-1.76-10.26-3.05-1-.78-.22-2.41-1.22-3.16-6.57-4.97-54.87-22.91-65.44-26.37-2.09-.69-4.23-1.35-6.44-1.56-1.17,3.52,2,5.93,4.48,7.52l-4.99.5c0,5.08,2.61,5.04,5.99,7.5-7.72-.07-7.76,5.33-1,6.51l-4,.99c-.43,3.29.17,4.19,3.02,5.5l-2.99,2,2.99,3.99-3.02,2.02,2.98,3.99-2.97,2.99,4.98,5.51-3.98-2c-.81,2.72,1.64,1.85,3.03,3.41,2.22,2.49,2.62,6.08,5.95,6.6l-5.99.48c1.58,1.8,10.69,4.48,12,3.5-1.78-2.59.94-3.75.96-6.34.02-3.51-1.83-8.95-2.02-13.11-.05-1.1-.67-4.72,1.04-4.54l5.6,23.95c5.76,6.59,13.83,6.02,21.41,8.03-2.63-3.11-7.5-8.58-9.42-12.07-2.14-3.91-4.28-36.05-3.58-41.44.18-1.38-.54-1.75,1.46-1.45l4.53,1.98-3.46.98c-2.95.37,4.32,5.17,4.44,5.73.47,2.18-.24,4.98.04,7.28l2.99-.99-1.99,4.99c4.88-1.89,7.95,1.9,1.41,3.03l-2.41-2.02c.92,3.91-.24,7.92,3.99,9.5l-2.99,3.49,3.99-.99-2.99,5.99,5.98-1.99-2.79,13.39c4.29,4.57,7.67,8.07,11.24.69,14.12,7.67,30.03,14.11,46.08,17.9,2.29.54,1.34-.49.64-1.65-.84-1.4-5.01-5.31-4.16-6.33,4.76-2.06,7.05,4.55,11.6,5.01,3.25.33,4.4-2.25,7.39-2.01.62,3.37-9.15,4.24-4.97,7.47l46.98,15.52ZM476.94,500.72l-120.51,11c-36.71,1.72-73.39,4.77-109.86,9.14-14.71,1.76-32.82,6.65-47.17,6.91-10.25.18-23.26-16.87-30.96-23.03-1.72,2.5-2.38,7.09-.56,9.57l26.33,22.18,282.68-28.81.06-6.96ZM194.93,550.22v45.5h.99c.02-2.17.12-6.38,1.52-8.02,1.18-1.38,3.49-.8,3.49-.98v-21c1.76-.22.95,2.26,1,3.49.43,10.16.81,20.35,1,30.51l5.99-1.52-2.99-3.46,3.03-2.49-.02-16.52,1.99,17.99c4.1.39,1.59-7.11,4.5-8.99l1.5,7,3.01-.52c.33-3.07-2.02-7.93-2.08-9.94-.05-1.73,1.09-3.84,1.11-6.01.02-3.03,1.49-17.16-3.91-12.08.61,4.18,1.98,9.92,1.9,14.01-.04,2.04.62,2.94-2.03,2.52l-2.06-16.95c-4.4.38-7.62.06-7.96-5.04l26.51-4,54.49-3.99c-.63,1.46-5.02,1.57-6.66,1.83-14.4,2.28-28.95,3.85-43.33,6.17l11.99,1.98-28,2.02c1.75,2.98-.34,5.87,0,8.42.19,1.48,1.73,2.73,2.06,5.02.73,5.04-1.4,10.41-.04,15.56h2.99s3.52-12,3.52-12c4.75.94,3.05,5.3,3.48,8.52.2,1.48-.57,1.63,1.5,1.48l221.87-22.15c1.29-.35,1.48-1.24,1.68-2.4.53-3.18-.47-9.92-.03-13.95.16-1.44.45-6.02,1.99-6.51v16.5c0,.91,1.83,3.64,1,5.51h2.99c-.99-11.66-1.25-22.73.12-34.39.12-1.05.4-4.69,1.87-4.61-2.67,14.4.7,28.61,1.01,43,5.09,1.12,11.84-1.19,10.85-7.27-.78-4.8-.84-3.86-.8-9.2.09-12.51-.16-25.04-.05-37.54-18.09,2.24-36.35,3.19-54.49,5.01-41.58,4.16-86.71,7.88-127.76,14.25-.48.07-3.87.69-2.24,1.75,10.93-1.06,22.08-.33,32.99-1.02,31.55-1.98,62.9-8.13,94.51-8.98.21,1.42-2.75,1.56-3.77,1.71-62.75,9.54-131.27,15.74-194.74,19.27-2.82.16-5.67-.06-8.49,0l3.99-2.99c-5.05,1.93-19.63-.94-20.99,5.5ZM207.93,518.73l-5.52-1.73-7.48,4.71c3.77-.16,7.76-.47,11.49-1.01,1.35-.2,3.17-.48,1.51-1.96ZM179.93,589.72v-19.5c0-.88-1.86-3.63-1.01-5.5l-2.49,2.98c-4.28-4.64-1.94-10.4,2.98-3.96l3.51,12.97-.98-15.99c.21-.28,1.28.52,1.5.98,1.25,2.56,2.22,13.95,2.48,17.52.4,5.75-.69,12.51,0,18.01.19,1.46.76,3.1,2,1.48l.55-51.05-19.06-18.94c-2.26-.42-1.38.99-1.49,2.48-.27,3.65.22,7.4-.05,11.06l3.06,37.45c1.75.23.94-2.27.99-3.48.35-8.45.02-16.83-2.03-25.05l2.03-10.46c-1.5,3.29,2.08,3.98,2.12,5.46.05,2.09-1.08,4.11-1.14,6.08-.34,11.15,1.53,22.31,2.03,33.45,1.75.23.94-2.27.99-3.48.04-.97-.68-13.09,1.99-9.51l2.01,16.99ZM694.93,536.22v46.5c1.76.22.95-2.26,1-3.49.19-4.67-.24-9.39-.04-14.05.11-2.66,1.01-5.06,1.09-7.91.21-7.5-.24-15.06-.06-22.55-.63-.03-1.9,1.16-1.99,1.5ZM657.93,577.72c3.03-3.5,9.18-11.03,12.33-13.67,5.6-4.68,11.35-5.74,17.18-12.32,1.23-1.39,4.66-5.01,3.99-7.01-3.48,2.55-7.14,8.36-10.49,10.51-1.5.96-2.67.58-2.01-1,.58-1.38,11.05-9.12,11.99-12.5-1.73-1.66-10.9,12.06-14.99,7.99v5c-9.08-.05-18.49,7.57-25,13.5.88,1.57,2.26-.33,3.11-.89,5.1-3.34,9.47-8.45,15.89-9.6l-18.04,19.48c0,3.56,3.91,1.47,6.04.51-1.88,2.17-6.49,6.41-6.98,8.52-.29,1.23-.36,3.22,1.47,2.47,7.15-6.8,13.34-17.64,22.84-20.97l.67-3.01c-7.56,1.98-11.55,10.11-17.99,13ZM691.93,554.73c-1.63-1.69-7.48,6.87-8.33,7.65-1.16,1.07-2.93,1.48-4.01,2.48-10.36,9.51-19.31,18.98-27.64,30.37,4.07.74,6.17-6.43,10-7l-10,13.49c12.52-4.77,21.29-15.74,30.49-24.98,1.46,1.17,1.59,1.25,1.09,3.05-.85,3.06-10.85,11.09-13.59,14.43-.93,1.13-2.43,1.61-1.99,3.5,4.85-1.69,10.15-2.74,14.95-4.54,3.11-1.17,7.75-2.11,7.04-6.45l-5.5,2.99c-.58-3.42,4.55-3.5,5.46-8.55.57-3.16-4.45,1.16-2.94-1.93.61-1.26,3.11-2.66,3.98-4.03l-1.99-1.98,1.99-3.5-5,2.49,4-9.49-4.5,4.99c-2.34-5.57,6.58-7.48,6.5-12.99ZM526.92,566.74l-27.99-8c1.04,1.91,4.99,2.86,6.98,3.5,5.3,1.7,12.6,3.84,17.96,5.04,1.02.23,3.26,1.34,3.04-.54ZM584.93,586.74c-8.94-2.65-17.54-6.47-26.55-8.95-10.53-2.89-21.53-5.39-32-8-8.77-2.19-17.56-4.39-26.44-6.05l31.99,10.5,49.77,13.24,3.24-.74ZM456.93,571.72c.29-2.16-.09-3.8-2.49-4.03-73.1,8.98-146.56,15.66-219.53,25.51l-.98,3.51,223-25ZM557.92,573.74l-17.99-6c3.19,3.71,10.29,5.49,14.95,6.54,1.02.23,3.26,1.34,3.04-.54ZM699.93,606.72c-16.83,3.4-32.91,11.26-50.39,10.89-39.54-11.94-78.4-26.2-118.6-35.89-.45,8.43,4.41,9.24,10.75,11.74,42.89,16.93,91.69,32.37,135.73,47.27,3.22,1.09,20.65,7.42,22.44,5.9,2.77-13.08-1.2-26.59.07-39.92ZM646.93,606.72c2.69-2.99-8.15-6.73-10.01-7.48-15.97-6.47-34.33-12.08-50.98-16.51l60.99,23.99ZM652.94,609.72c7.81-1.29,16.39-2.61,23.69-5.8,1.58-.69,15.26-8.17,13.3-10.19-12.25,4.25-23.9,10.3-36.93,12.06l-.05,3.94ZM467.93,661.73l-217.35,27.13-42.64,6.85,162.37-20.12,97.62-13.86ZM167.93,708.74c9.89,18.72,19.99,31.11,42.51,32.97,62.45-5.21,125.63-9.98,187.86-18.11,24.04-3.14,54.5-7.72,77.14-15.86,4.97-1.78,19.46-7.28,20.46-12.54.85-4.47-.29-18.91-1.04-23.91-.3-2.02-1.13-4.33-3.43-4.56-43.51,2.21-86.71,8.48-129.86,14.14-47.6,6.24-95.28,13.24-142.63,20.87l3,.99c-2.76,3.49,4.47,9.93,7.41,11.07,5.43,2.11,19.98,2.32,26.06,1.91,33.55-2.27,72.81-12.34,107.15-16.85,27.49-3.61,55.2-5.49,82.67-9.33l1.56-1.44.14-8.38c-.74-.73-6.08,1.71-5.01-1.98,4.07.89,4.49-3.99,6.69-4.82,1.32-.5,21.65-3.41,22.79-3.24,1.2.18,1.79.61,2.5,1.55-4.8,4.34-12.05,2.95-17.97,4.51-.27,1.66,2.42,1.07,3.53,1.04,4.13-.14,8.18-1.35,12.26-1.76,1.1-.11,3.4-1.18,3.19.7l-14,2.02c9.44,17.49-15.31,23.16-27.78,26.71-39.18,11.16-90.77,15.51-131.73,18.27-23.08,1.56-51.24,3.45-73.99,1.01-11.79-1.26-19.03-17.25-25.05-18.04-3.16-.42-8.51,2.12-12.8.1l-21.65,2.95ZM451.93,678.72h-2.99c.99,2.18-2.09,10.46.51,11,3.79.79,2.24-9.1,2.48-11ZM441.93,695.73l-136.99,20.98c43.06-4.5,89.95-2.38,130.95-17.53,1.95-.72,5.15-1.43,6.04-3.45ZM479.93,781.72v-22c1.76-.22.95,2.26,1,3.49.32,7.63-.46,15.39,0,23,.75,12.18,4.61,24.24,3.99,36.51l12.99-2.01c-3.45-6.99-4.84-13.64-7.01-20.99l-.97,6.99-2.01-11.99c4.01-.25,5.26,3.98,6.47,7.02,3.2,8.01,6.79,18.77,4.32,27.28-.86,2.95-7.41,5.56,3.19,5.69-.8-4.42-1.5-9.03-2.01-13.49-.36-3.13,2.68,1.17,1.95-1.93-1.27-5.42-2.7-10.26-2.98-16.03-.06-1.18-.7-5.54,1.04-5.54.86,5.84.88,12.54,2.3,18.21.25,1.01.28,3.01,1.7,2.78-.19-16.16.27-32.37.05-48.54-.03-2.36-1.05-4.55-1.08-6.92-.24-14.98.66-30.1.04-45.05-.05-1.23.76-3.71-1-3.49v69c-1.82-.5-1.93-4.94-2.04-6.46-.66-9.45-.66-19.55-1-29-.48-13.49.02-27.06-.96-40.54-.66-.7-17.29,5.85-18.02,6.47-1.3,1.12-.98,3.01-.98,4.53-3.55.77-1.09-2.53-2.48-3.99-69.79,18.11-141.81,25.23-213.51,31.99l7.49.98c31.02-2.28,63.95-8.26,95.02-6.99,1.22.05,3.72-.75,3.48.99-30.75-.18-61.06,5.74-91.5,9-27.28,2.92-60.31,8.28-87.04,9.05-2.72.08-4.87-.78-7.45-1.05l1.65-3.84,43.84-3.16,13.51-1.98c-7.16.09-14.36-.13-21.54-.05-5.69.07-11.31-.09-16.95-.04-6.67.06-14.55,3.6-21.51,3.08.28,2.7-.39,5.95,0,8.54.23,1.55-.6,1.53,1.52,1.51,7.87-.09,17.78-2.83,25.97-3.1,5.16-.17,7.81,2.29,12.99,2.07,18.8-.79,39.86-6.27,59.04-8,2.18-.2,22.51-1.72,22.5-.51-39.46,4.43-78.42,13.5-118.02,16.5v-2.97s14-3.01,14-3.01l-18,1.99c-1.32,27.86,2.14,55.72,1,83.51-.05,1.22.75,3.72-.99,3.48l-3.99-103.52c-.53-2.82-2.68-2.1-3.01-2.49-1.91-2.23,3.13-1.28,2-3.97l-3.99-1.01c-1.2,25.42.03,51.11-1.01,76.51-.05,1.22.75,3.72-.99,3.48-2.01-30.5-1.76-60.92-2.06-91.53-.04-4.2,2.38-8.07-2.94-11.46,1.18,11.11,1.23,22.33,1.03,33.54-.15,8.21-.14,21.26-1,29-.17,1.5-.21,3.09-2.03,3.46.89-6.84-.83-13.97-1.05-20.46-.52-15.43,1.07-31.83.08-47.08-.11-1.74-.38-6.55-2.03-7.46,1.36,23.12.71,46.3.95,69.54.27,25.88-.35,52.03,2.05,77.95,1.19,12.79,5.15,25.49,4,38.51,60.6-9.13,120.6-21.46,180.81-32.69,46.95-8.75,94.46-14.91,140.55-27.45l1.12-2.88c-21.63,6.35-44.16,9.05-66.48,12l72.52-17.97c1.06-1.17.76-2.52-1-2.01-2.65.78-6.26,2.95-9.31,3.69-17.81,4.35-36.94,6.48-55.2,8.28l49.33-12.15c2.35-.96,1.66-3.65,1.66-5.83l-49.99,10.99c-.24-1.44,1.76-1.4,2.79-1.69,9.5-2.66,19.34-4.37,28.84-7.13,3.46-1.01,2.54-.61,6.6-1.35,1.39-.25,9.91-3.18,10.31-3.78,1.68-10.38-1.19-20.7-1.55-31.05-6.53,2.67-3.07-4.79-2.95-8.45.41-12.48-.4-25.06-.03-37.54l2.08,11.5c-1.05,8.54-1.83,18.4-1.09,27.01.16,1.86.38,5.27,3,4.49ZM149.93,831.72v-111h-1v111h1ZM184.93,739.71l-13.99-12.99c-.52,2.41.39,2.54,1.63,3.86,1.56,1.65,4.97,5.24,6.46,6.54,1.61,1.41,3.61,2.85,5.9,2.59ZM202.93,747.71c-5.5-5.07-15.18.28-22-.99v2.99c7.41-.4,14.52-2.81,22-2ZM58.91,778.73l-1.99.5c-.71,5.21,2.78,14.12,7,17.49-.59-6.94-.67-12.17-5.01-17.99ZM73.92,795.72c.09-5.4-3.17-9.58-6.98-12.99l.75,4.74,6.23,8.25ZM74.92,810.72c.54-7.34-1.41-14.06-7.98-17.99l1.77,7.72,6.21,10.27ZM159.6,893.43c-.22-30.13-1.58-60.1-2.68-90.2l-1.98-10.5.99,103.99,3.66-3.29ZM133.93,821.72v96.5c0,1.16-3.33,6.18.99,5.5,1.37-22.95,1.56-46.45,1.05-69.55-.06-2.85-1.01-5.27-1.09-7.91-.21-7,.33-14.06.04-21.05-.05-1.23.76-3.71-1-3.49ZM527.93,843.73h-2.99c-1.34,8.71-4.04,17.01-3,25.99,2.63,3.46,1.97-8.4,2.12-9.37.36-2.38,4.51-16.01,3.87-16.62ZM515.92,871.74l-3.99-.55-184.99,32.52c52.33-5.61,104.21-15.36,156.02-24.47l32.97-7.51Z"/>
      <path d="M103.94,839.72c1.66.27,1.08-2.43,1.03-3.53-.12-3.07-.99-5.85-1.09-8.92-.49-14.32-.54-30.76.05-45.06.05-1.22-.76-3.72.99-3.48.34,9.14-.4,18.39-.03,27.54s1.89,39.99,5.5,46.5c.62,1.11,1.09,2.72,2.53,2.96-.1-4.14.19-8.34,0-12.49-.31-6.92-1.78-15.08-2.03-21.97-.18-4.8-.16-10.25.04-15.05.05-1.22-.76-3.72.99-3.48.69,8.88.28,18.72,1.02,27.48,1.27,15.04,3.05,30,4.02,44.89.14,2.08,1.85,4.18,1.96,5.16.05.43-1.79.33-1.98,1.12-.91,3.74,1.15,8.49-.01,12.33-1.8,1.3-7.93-6.67-6.5-8.99l5.5,6.99-1.57-6.92-20.02-31.07.61-5,4.99,3.98c-.67-6.69-5.36-10.39-8.21-15.28-2.4-4.12-3.19-9.71-7.78-12.71-2.17,6.71,2.46,12.4,2.49,19-3.71-2.58-2.33-5.44-2.96-8.03-3.12-12.84-3.07-25.38-3.5-38.52-.16-4.87-1.95-10.23-1.03-15.45,1.61.16,1.88,4.3,1.98,5.51.48,5.75-.31,15.49,1.21,20.79.81,2.82,8.52,6.36,5.31,11.69l-4.49-6c-.56,5.76,2.98,11.2,6.98,15-.91-17.35-4.14-34.5-2.98-51.99l1.87,8.61c.93,8.09.84,21.07,3.73,28.27.28.69,2.35,3.92,3.38,4.11l-.98-63.99c1.74-.23.94,2.27.99,3.48.34,8.32-.41,16.74-.04,25.05.63,14.08,1.66,30.97,3.05,44.95.53,5.35,2.51,8.06,5,12.5ZM96.92,831.72c.29-2.7-.12-5-.93-7.56-.56-1.79-2.33-5.48-4.05-6.43.6,4.92-.23,11.61,4.98,14ZM109.92,866.72c-1.97-.41-1.71-2.04-1.98-3.51-.6-3.19-2.54-9.25-2.71-11.12-.17-1.99,1.11-3.82.52-6.64-.45-2.17-3.72-6.5-5.81-7.73.29,3.86,1.61,7.68,1.99,11.52.85,8.56-.39,11.62,4.79,20.19,1.93,3.2,5.41,4.71,6.23,8.28l1.99-.5c-2.48-6.05,1.48-13.37-5-17.49l-.02,7Z"/>
      <path d="M34.92,583.72l-2.03-14.45c-2.78-106.39-7.17-212.74-11-319-1.63-45.2-4.12-90.15-2.95-135.54l2.03,15.45c3.8,138.37,9.21,276.73,12.92,415.08l1.03,38.45Z"/>
      <path d="M62.92,530.72l-1.98-8.51c-1.94-43.58-5.58-86.89-7-130.48l1.98,13.51c1.98,41.86,6.54,83.55,7,125.48Z"/>
      <path d="M27.93,181.73c1,11.15.57,22.36.96,33.54.47,13.52,2.6,28.43,1.08,42-.17,1.5-.21,3.09-2.03,3.46l-2.06-38.45c1.22-12.29-1.48-27.12.05-39.07.19-1.46.76-3.1,2-1.48Z"/>
      <path d="M38.92,251.72l-2.03-3.46c-1.35-35.49-3.69-70.92-2.95-106.53,1.74-.23.94,2.27.99,3.48.7,16.96.31,34.08.96,51.05.08,2.13.96,4.05,1.03,5.97.64,16.48.47,33.14,2,49.49Z"/>
      <path d="M125.92,905.72c-1.4.24-1.35-1.68-1.74-2.73-2.59-6.94-2.09-36.9-2.29-46.72-.22-11.17.24-22.38.05-33.54,1.74-.23.94,2.27.99,3.48.56,13.65-.21,27.41,2.04,40.97l.95,38.54Z"/>
      <path d="M27.92,173.72c-1.46.18-1.79-2.61-1.9-3.58-.6-5.54.53-11.26-1.13-16.87l-.95-62.54,2.03,17.45c-.87,21.94,1.84,43.62,1.95,65.54Z"/>
      <path d="M77.92,567.72c-1.74.23-.94-2.27-.99-3.48-1.03-24.88-2.44-49.59-1.99-74.51l.99,3.48,1.99,74.51Z"/>
      <polygon points="85.92 756.72 83.94 751.21 82.94 702.73 84.92 718.23 85.92 756.72"/>
      <path d="M80.93,671.72v28c-1.76.22-.95-2.26-1-3.49-.25-6.03-.79-12-1.05-17.96-.09-1.99-1.06-7.56,2.05-6.55Z"/>
      <path d="M31.92,292.72c-4.56-4.39-.82-13.34-.98-18.99l2.08,13.5-1.1,5.49Z"/>
      <path d="M460.93,625.73l-141.62,18.87c-40.24.66-82.78,13.76-122.16,15.86-1.88.1-2.82.87-4.19-1.24l22.97-4.51-1.99-1.98,246.99-27Z"/>
      <path d="M448.93,616.73l-279.98,39.47c-.79-2.06,6.72-3.49,8.15-3.83,44.88-10.42,97.89-12.26,144.2-18.8,16.77-2.37,33.43-6.35,50.28-8.72,25.62-3.6,51.63-6.05,77.35-8.13Z"/>
      <path d="M306.93,631.73l-63.64,9.85c-17.86,2.39-35.88,3.88-53.73,6.27-6.03.81-13.97,3.43-19.26,3.82-4.81.35-6.34-2.23-1.17-4.25,8.58-3.36,24.89-5.29,34.43-6.57,34.25-4.59,69.05-5.08,103.37-9.12Z"/>
      <path d="M263.93,900.73l-42.98,11.5c-19.02,3.68-38.69,9.41-57.8,12.2-4.3.63-19.17,4.18-16.71-2.72l117.49-20.98Z"/>
      <path d="M142.92,852.72c-1.74.24-.94-2.27-.99-3.48-.27-6.66.25-13.39.04-20.05-.08-2.37-1.03-4.55-1.08-6.92-.91-39.13.76-78.41.05-117.54,2.69,1.07,2.82,4.04,3.04,6.45,2.79,30.44-.52,69.02-1.09,100.01-.25,13.83.28,27.71.03,41.54Z"/>
      <path d="M447.93,620.73l-34.63,5.85-40.36,5.13c-.25-1.37,1.78-1.51,2.75-1.72,4.13-.89,9.53-1.47,13.89-2.12,19.34-2.92,38.89-5.13,58.35-7.13Z"/>
      <path d="M274.93,866.73l-13.78,4.7-78.21,15.27c.31-1.79,2.02-1.71,3.35-2.14,5.37-1.7,12.92-3.09,18.64-4.36,23.15-5.18,46.61-9.51,70.01-13.48Z"/>
      <path d="M486.92,814.72l-1.98-9.51c-.14-15.73-3.19-31.17-2.06-47.04.12-1.71-.1-3.31,1.56-4.44l2.49,30.5c-2.77,10.07.81,20.3,0,30.49Z"/>
      <path d="M430.93,831.73l-38.97,9.51c-7.31,1-14.6,2.86-22.02,2.47l43.97-9.51,17.02-2.47Z"/>
      <path d="M476.93,799.73c-.44,1.69-2.05,2.35-3.45,3.04-14.85,7.42-37.17,11.25-53.55,13.94l56.99-16.98Z"/>
      <path d="M176.93,877.72c1.46.64,1.58,4.97,1.87,6.65.26,1.44.13,2.91.12,4.36l30.01-3.51-32.01,6.5v-14Z"/>
      <path d="M315.93,851.73c.23,1.44-1.76,1.39-2.79,1.68-12.12,3.41-24.88,6.04-37.2,8.29l27.97-8.52,12.02-1.46Z"/>
      <path d="M172.93,892.72c-1.23,1.63-1.81-.02-2-1.48-.36-2.8.23-6.07,0-9.01-.8-9.82-2.51-19.65-2.98-29.51,1.49.2,1.65,4.31,1.85,5.64.73,4.73,4.59,32.44,3.13,34.35Z"/>
      <path d="M494.92,730.72c-1.44.23-1.39-1.76-1.68-2.8-1.25-4.46-1.65-9.6-2.3-14.2,4.77,3.71,3.94,11.53,3.98,16.99Z"/>
      <path d="M487.92,738.72c-1.88-.4-1.81-1.97-2.01-3.47-.89-6.52-.39-13.62-3.97-19.51,2.14-.39,2.4.94,2.99,2.5,2.36,6.18,1.48,14.07,3,20.49Z"/>
      <path d="M454.93,794.72l.49,2.99c5.98-3.56.24,7.75-2.48,5.01.65-2.19-1.84-8.78,1.99-8Z"/>
      <path d="M475.93,807.73c-.38,2-2.11,1.64-3.5,1.99-4.59,1.17-9.87,1.34-14.49,3-.48-2.88.63-1.65,2.31-2.13,4.83-1.37,10.66-2.47,15.68-2.86Z"/>
      <path d="M495.93,41.72l-.1-2.88-50.89-12.61,4.19-1.29,71.8,17.8c.26,1.73-2.34,1.04-3.39.89-7.54-1.11-13.45-4.31-21.61-1.9.06.01.12.78.82.92,2.31.45,7.08-.71,8.17,2.07-4.71.42-8.51,1.17-13.37.88-1.18-.07-6.19-.57-6.62-1.86,3.61-.38,6.88.93,10.46,1.04,1.12.03,3.79.63,3.53-1.04l-6.26-.25-11.73-3.75c4.76.58,10.35,1.09,15,1.99Z"/>
      <path d="M239.93,28.73l-13.45,2.03-47.54.95c.51-1.81,4.93-1.92,6.46-2.03,11.28-.78,23.62.4,35.08.08,6.11-.17,12.97-1.99,19.45-1.03Z"/>
      <path d="M345.93,12.73c-.18,1.46-4.35,1.69-5.62,1.87-6.37.9-13.04.75-19.37,2.11-.24-1.42,1.77-1.45,2.78-1.7,6.75-1.68,15.22-2.01,22.21-2.28Z"/>
      <path d="M474.93,35.73l-.48,1.97c-4.68-1.78-9.72-2.06-14.52-3.48-1.35-.4-4.79-.89-5-2.49l20,4Z"/>
      <path d="M663.92,422.74l-3.04.54c-24.15-7.67-49.01-13.22-73.17-20.84-13.45-4.24-26.51-9.58-39.83-14.17-2.66-.92-16.77-3.95-16.94-6.04-.19-2.3,5.89,0,6.75.23,42.1,11.32,83.79,29.34,126.23,40.28Z"/>
      <path d="M636.93,421.71c-10.63-2.36-23.41-3.7-32-10.98,9.62,2.47,19.49,5.2,28.78,8.71,1.27.48,2.94.59,3.22,2.27Z"/>
      <rect x="680.93" y="461.72" width="1" height="33"/>
      <path d="M691.93,202.22c.09-.85.77-6.59,2.99-5.49.93,5.52-.89,11.31-1.04,16.45-.54,18.65-.18,37.41-.96,56.05-.05,1.23.76,3.71-1,3.49v-70.5Z"/>
      <path d="M608.93,190.73c-.3,1.77-5.19,1.11-6.54,1.03-8.54-.51-26.63-2.88-34.46-5.54-1.5-.51-3.57-.59-4-2.49,15.14.74,29.75,6.31,44.99,7Z"/>
      <path d="M300.93,544.73l-12.51,1.98c-21.22.11-42.92,4.88-64,6-2.39.13-17.45.78-17.47-1.49,2.16-1.77,6.76-2.25,9.49-2.49,16.23-1.38,32.71-1.17,48.98-2.02,11.81-.62,23.62-2.79,35.51-1.98Z"/>
      <path d="M447.93,528.73c.04,1.49-3.56,1.46-4.8,1.68-30.27,5.34-60.74,10.33-91.19,14.3.47-1.82,4.37-2.12,5.98-2.5,29.43-7.04,59.99-9.98,90.01-13.48Z"/>
      <path d="M473.93,517.73l-7.63,1.85-40.36,5.13c-.23-2.62-.13-1.66,1.5-1.96,14.87-2.78,31.43-3.56,46.49-5.02Z"/>
      <path d="M453.93,558.73l-20.5,2.99c-10.58-.02-20.92,2.68-31.49,1.99l30.5-3.98,21.49-1Z"/>
      <path d="M191.93,707.73c.03,1.55-3.45,1.66-4.63,1.86-4.5.75-9.78,1.1-14.36,1.12.18-1.46,4.35-1.69,5.62-1.87,4.19-.59,9.1-.74,13.37-1.11Z"/>
      <path d="M227.92,287.72c-1.74.23-.94-2.27-.99-3.48-.43-10.49-.74-21.02-.99-31.51l1.98,13.51v21.48Z"/>
      <path d="M249.92,316.72l-1.98-1.99-1,4.99c1.5-6.37-4.91-10.15-2-15.99l3.48,6,1.5,6.98Z"/>
      <path d="M291.93,246.73l1,17.99c-2.36-1.55-2.8-8.59-2.98-11.51-.06-1.06-.42-9.64,1.99-6.49Z"/>
      <path d="M222.93,276.71c-1.88.91-3.59-2.85-3.69-3.64-.36-2.92,1.65-8.75.7-12.34l2.99,15.99Z"/>
      <path d="M258.93,297.73l-.49,12.99c-1.66-1.14-1.43-2.73-1.56-4.44-.07-1.03-.47-11.86,2.05-8.55Z"/>
      <path d="M751.93,86.73l-4.99,165.99.96-163.51c.24-2.4,1.86-2.78,4.03-2.48Z"/>
      <path d="M739.92,640.72c-1.82-.38-1.86-1.97-2.03-3.46-1.75-15.54,1.41-34.19-.01-50.08l2.55-35.46c1.63,29.69-.31,59.38-.51,89.01Z"/>
      <path d="M741.93,131.22c.13-1.31,1.77-3.47,1-5.51h2.99c.76,13.77-2.86,27.24-2.01,41.01-.64.07-1.99-1.33-1.99-1.5,0-10.53-1.04-23.89,0-34Z"/>
      <path d="M340.92,295.73c-.29,2.37,1.98,7.95,1.96,9.49-.02,1.63-1.66,3-1.59,3.99.1,1.4,2.74,4.09.63,7.51l-2.98-3.51,2.98-.98c-3.65-2.29-4.51-11.47-3.11-15.11.52-1.35-.35-1.73,2.1-1.39Z"/>
      <path d="M393.94,349.73c.75,4.01-3.84.18-6,1,.24,3.25,7.4,2.94,5.51,5.98l-12.51-8.48c1.7-3.97,9.66,2.77,13,1.5Z"/>
      <path d="M378.93,347.74l-3.99,1,4.99,3.49c-2.84,2.53-14.38-5.23-11.99-7.5l10.99,3.01Z"/>
      <path d="M370.93,341.71c-5.84-1.65-14.92-6.06-14.99-12.99l14.99,12.99Z"/>
      <path d="M355.93,337.72c-4.86-.28-5.76-4.96-7.97-7.52-1.74-2-5.04-2.57-5.02-5.47.92-.87,9.96,8.25,10.99,9.5.93,1.13,2.42,1.62,1.99,3.5Z"/>
      <path d="M392.93,344.74l-1.85,1.1c-.25.22,2.18,2.51-.62,1.87s-9.26-4.76-11.52-6.97l13.99,4Z"/>
      <path d="M365.94,294.72c-1-1.02,7.21-10.91,9.98-6.49l-9.98,6.49Z"/>
      <path d="M426.93,342.71l-2.99-.66-1-13.32c1.29-.27,1.61,1.86,1.74,2.73.6,4.03-.48,7.74,2.25,11.25Z"/>
      <path d="M380.93,288.73c2.2,2.46-2.83,3.8-2.99,4.02-.45.63,3.28,3.66,1.5,4.97l-4.5-4.49c1.37-.1,4.92-5.71,5.99-4.5Z"/>
      <path d="M496.92,512.73l6.01,38.99c-5.3.39-6.45-8.52-6.87-12.62-.82-7.99-.26-16.79-1.12-24.9l1.98-1.48Z"/>
      <path d="M544.93,538.73c-2.93,3.72,1.97,3.35,1.99,4.49,0,.18-1.79,1.3-1.9,2.94-.22,3.24,3.45,9.81.41,13.56-2.14-5.89-2.92-12.24-2.49-18.51.14-2-.8-2.89,2-2.47Z"/>
      <path d="M560.05,556.61l1.82.15.04,1.94-3.27,2.26c-5.12,1.93-.54-3.26-.3-4.2.5-1.93-1.63-4.39,1.11-6.03l2.37,2.35-1.77,3.53Z"/>
      <path d="M610.44,566.73c5.29-1.57,2.65,6.5,0,7.97-3.15-.87-1.88-7.41,0-7.97Z"/>
      <path d="M370.93,424.73l-12.47,2.04-9.52-1.06c-.26-1.33,1.81-1.56,2.74-1.74,1.74-.33,7.4-1.18,8.81-1.12,2.59.1,6.66,3.32,10.44,1.88Z"/>
      <path d="M377.93,468.73c.28,1.29-1.86,1.61-2.74,1.74-9.2,1.35-18.97,1.28-28.26,1.24-.24-1.74,2.27-.95,3.48-.99,9.22-.35,18.34-1.23,27.51-1.99Z"/>
      <path d="M367.71,459.93c.47.8,1.04,6.96-1.27,5.79l-6.51-9.99c1.07-1,7.56,3.82,7.78,4.2Z"/>
      <path d="M386.93,468.71l-3.88-.12-3.11-9.87c5.72-.76,3.52,7.04,6.99,9.98Z"/>
      <rect x="468.93" y="121.72" width="1" height="42"/>
      <path d="M620.92,320.74c.35,4.05-4.3-.21-2.99,4.98l2.98.02c.19,1.91.28,4.38-1.97,4.98l-1-2.99c-1.2,3.95-3.28,10.38-1.87,14.38.48,1.37,2.43,1.35,2.71,1.81.54.89-.54,2.29-.38,3.29.37,2.24,3.51,4.31-2.47,5.51l1-3.97-3-1.03c-.69.97,1.43,9.23-1.49,7.99l-5.51-2.98c1.36-.21,2.87,1.14,3.04-1.45.8-12.41,3.5-24.27,4.97-36.55,2.41,1.64,1.94,5.89,5.98,6.01Z"/>
      <path d="M633.92,373.74c-.81,2.17-6.75-.65-8.25-1.25-2.4-.96-25.4-11.94-21.73-15.76,10.56,4.77,18.11,14.95,29.99,17.01Z"/>
      <path d="M633.93,347.73c1.89,2.01-1.71,4.76-2.99,5.99l3.99-.99-.92,2.91,2.91,1.59c-3.31,2.33-.13,2.64.02,5.5h-3.01s1.01,3,1.01,3c-3.03,3.07-5.86-13.47-4.28-16.77.77-1.6,2.7-1.84,3.28-1.22Z"/>
      <path d="M257.91,183.72c.21,3.63,3.12,3.17,6.02,3.01l-1.68,4.03-10.31-.05,5.99-2c.27-1.31-1.83-1.58-2.73-1.74-5.81-1.03-11.35-1.78-17.26-1.26,2.54-2.04,2.38-2.57,3.49-4.97,4.96,2.27,11.57,7.51,16.48,2.98Z"/>
      <path d="M279.93,188.73c.38,2.21-.17,2-1.95,2.49-4.1,1.14-8.79.23-13.04.49l9.75-2.73,5.24-.25Z"/>
      <path d="M338.93,120.72c-1.76.22-.95-2.26-1-3.49-.13-3.16.1-6.35,0-9.51-2.99-3.93-1.66,9.54-2,9.99-3.11,1.02-2.12-4.56-2.04-6.54.11-2.91.91-5.57,1.06-8.45l1.49,4,2.5-4.01v18Z"/>
      <path d="M239.93,512.73c.17,1.48-2.58,1.77-3.58,1.9-7.07.9-14.29,1.79-21.41,2.08.35-1.92,2.09-1.65,3.46-2.03,6.66-1.87,14.57-.45,21.54-1.95Z"/>
      <path d="M233.93,464.71c-5.23-2.47-16.59-5.07-15.99-11.99l15.99,11.99Z"/>
      <path d="M399.93,184.73c-4.47,5.31-13.59,4.04-20,4.98-.24-1.53,1.87-1.18,3-1.47,5.52-1.42,11.38-2.48,16.99-3.51Z"/>
      <path d="M360.87,160.7l-4.45-.38c-3.31-1.25.64-7.98,2-2.6l4-3.98-1.56,6.96Z"/>
      <path d="M560.69,303.97c3.02,3.95.09,7.45-.31,10.72-.24,1.97.49,3.51-.03,5.86-.56,2.52-2.09,3.85-2.41,6.17,3.7-.49,6.84,4.61,5.01,8l2.99-.99c.98,3.23-3.68,1.92-3.99,3.51l2.93,4.11-1.97,3.87,2.06,1-3.02,3.49,4,.02c-1.24,2.54-4.73,3.6-4,6.98.57.68,8.73.22,9,3-1.04,1.3-10.23.14-12.11-.41-1.98-.58-1.89-3.46-4.88-2.59,2.66-2.75,5.31-3.62,4.01-8.34-.27-.99-3-.1-2-2.65l3.53-1.01c1.29-2.57-1.4-4.71-1.06-7.13.23-1.66,2.99-2.24,3.5-4.38,1.18-4.9-7.01,4.24-7.97,4.52-.74-2.04,1.62-3.51,1.81-4.7s-1.52-2.04-1.4-3.37c.14-1.44,3.58-8.82,3.58-10.42,0-1.28-1.59-2.32-1.72-3.3-.48-3.55-1.94-10.81,1.74-11.7l-2.01-1.49,4.75,1.23Z"/>
      <path d="M616.92,491.72c-5.88-4.74-5.27-13.42-7.98-20,5.1,4.64,6.88,13.38,7.98,20Z"/>
      <path d="M613.93,531.72l-3.05-.44c-2.38-3.62-.57-8.05,2.56-10.55l.49,10.99Z"/>
      <path d="M687.92,318.72c-.19,3.56,4.71,12.47-.98,13v-4s-3,.5-3,.5c3.15-2.23,4.17-5.59,2.01-9.02l1.97-.48Z"/>
      <path d="M550.93,498.72c-2.69.77-2.81-2.72-3-4.48-.97-8.93-.71-18.04-1-27-.09-2.82-2.58-6.09.51-8.51l3.49,39.99Z"/>
      <path d="M530.93,498.72c-5.56-.59-2.23-8.49-1.98-11.99,3.76,2.2,1.37,8.37,1.98,11.99Z"/>
      <path d="M530.94,486.72c-.15-4.25,1.1-9.07,2.3-13.2.3-1.03.24-3.02,1.68-2.79-.65,4.84-.59,12.35-3.98,16Z"/>
      <polygon points="190.93 350.73 189.92 353.72 192.93 354.71 184.07 354.59 182.94 351.22 190.93 350.73"/>
      <path d="M529.94,125.72c2.61,2.31,2.49,5.68,4.46,9.04.81,1.38,2.6.97.03,2.94-3.92-2.77-4.54-7.43-4.49-11.98Z"/>
      <path d="M522.3,307.42c.27.54,1.81-.06,1.64.8l-2.01,1c3.37,1.68-1.12,5.99,2.99,5.52l-5.99,6.48c1.8,2.98,3.95-.05,5.99,1l-6.98,4.5c-2.82-4.35.44-8.6.52-11.46.15-5.9-1.83-12.56.48-18.54,3.26,1.98,1.4,6.8,3.36,10.7Z"/>
      <path d="M529.94,338.73c-2.59-.36-9.94,1.14-11-1.51-2.04-5.11,4.85-.27,6.96.12,5.7,1.04,1.39-7.49,2.05-10.6,3.38,2.38,1.56,8.45,1.99,12Z"/>
      <path d="M499.93,305.22c.06-.41.98-2.86,1.99-2.49.98,3.61,1.18,5.34-.95,8.54l-1.04,9.45c.48-4.87-.66-10.78,0-15.5Z"/>
      <path d="M327.93,460.72l-1.99.5,4.99,3.5c1.31-1.45-4.61-9.89,0-9l1.01,11-4.99-.5c1.58,2.46,7.61,3.9,6.5,7.5-6.72-3.98-14.27-9.31-16.5-16.99l2.98.99.02-9.99c1.84.12.65,3.11,1.5,4.98.4.87,6.96,7.51,6.48,8.01Z"/>
      <path d="M604.93,57.73c-.68,1.78-5.93,1.13-7.54,1.03-7.89-.46-16.03-1.64-23.92-2.08-9.68-.54-18.93.15-28.78-1.25-1.59-.22-4.5-.2-3.75-2.71l63.99,5Z"/>
      <path d="M259.93,142.73c1.62,1.24-.02,1.81-1.48,2-6.19.79-12.39-.87-18.52-1.01-.03-1.71-.57-2.16,1.41-1.92,6.55.8,11.77,2.65,18.59.93Z"/>
    </g>
  </g>
</svg>