<?xml version="1.0" encoding="UTF-8"?>
<svg id="Layer_2" data-name="Layer 2" xmlns="http://www.w3.org/2000/svg" viewBox="0 0 1266.14 972.56" preserveAspectRatio="none">
  <defs>
    <style>
      .cls-1 {
        fill: #0d0c0b;
      }

      .cls-2 {
        fill: #1f1f1f;
      }
    </style>
  </defs>
  <g id="Layer_1-2" data-name="Layer 1">
    <g>
      <path class="cls-1" d="M101.77.34l1058.95-.34c56.09,3.55,101.23,48.45,105.42,104.5v762.08c-4.18,55.72-48.72,100.32-104.42,104.5-298.74-.48-597.87.48-896.33.01-51.75-.08-110.1,3.34-160.97-.01-55.37-3.65-100.49-49.29-104.42-104.5L.05,104.55C3.98,49.95,47.23,5.41,101.77.34ZM379.75,96.04c.1-1.86.29-4.4-1.98-5-.1,1.86-.29,4.4,1.98,5ZM227.87,135.04c-1.35-2.7-2.39-3.2-3.48-5.06-.66-1.13-.19-3.28-.72-3.81-.45-.44-2.28.15-2.65-.24-.53-.56.23-2.52-.38-3.64-.2-.36-4.74-5.55-5.35-6.16-2.44-2.42-8.98-4.67-9.4-5.11-1.92-2.05,3.08-1.96,1.99-2.97-2.05-1.91-6.21-3.01-6-7.01-1.63-.5-.55,1.7-1.48,2.02-3.07,1.04-2.21-1.98-3.01-2.04-1.04-.08.4,2.56-1.92,1.96-3.12-.8-4.72-4.88-5.08-4.98-2.98-.81-2.28,1.67-2.59,1.89-2.1,1.45-2.78-3.57-5.36-3.91-7.33-.98-7.8,2.46-10.17,2.92-1.32.26-2.92-1.66-4.8-1.74-.99-.04-11.31.73-11.89.88-1.02.27,0,4.21-4.64,0-.09,3.68-2.59,7.16-6.45,7.07-1.06-.03.1-2.61-1.54-2.06-.16,1.18-3.48,5.27-3.95,5.5-.91.43-2.8-.85-3.05-.51-.34.45.58,3.56-.46,5.05-.59.85-2.84.89-3.99,2.01-11.24,10.95-18.71,29.32-21.42,44.56-.57,3.19-2,8.38-2.19,9.81-.63,4.61.23,15.52.18,21.18-.23,26.46-.78,52.26-1.06,78.93-.35,33.25-1.98,68.27-1.09,101,.09,3.23,3.04,7.95-.97,8.96-.02.94,1.77,0,2.04,1.14.24,1.03,1.02,8.55,1.05,9.93.04,1.87-1.99.9-2.18,2.88-.4,4.17,2.4,7.99.1,11.87-.37.62-1.97.58-2.05,1.32-.29,2.92,2.12,10.23,2.14,13.87.09,15.48,1.14,32.09,0,47.11-.12,1.55.94,2.89.93,3.87,0,.5-4.56-.5-4.13,6.02.16,2.44,3.47,1.92,3.73,3.94.21,1.59-.52,9.62-.74,11.93-.32,3.32-1.99,6.78-1.96,10.14.04,4.56,2.98,7.86,2.17,14.06-.31,2.34-2.13.94-2.1,1.92s2.09.03,2.07,1.05-1.16,2.45-1.08,3.94c.21,3.89.06,6.62.15,10.06.06,2.24,2.55,4.71,2.46,6.96-.07,1.86-2.51,3.79-2.53,5.99-.01,2.02,1.64,3,1.94,4.02.2.66-2.19-.09-2.04,1.87.27,3.64,3.02,7.02,3.11,12.09.1,6.05-1.67,13.61-2.02,20-.15,2.71-1.13,10.9-1.07,11.94.04.6,1.81.48,2.01,1.25,1.13,4.45-2.09,17.96-2.02,22.87.04,3.14,3.24,10.68,3.99,14.01.4,1.8-.37,4.16.17,5.82.8,2.44,4.37,1.23,4.83,1.67,2.56,2.46-3.19,10.54-3.01,12.42s2.35,2.68,2.85,4.25c.29.9,2.37,13.11,2.32,13.81-.14,2-2.05,1.62-2.92,3.14-1.66,2.89-1.26,6.85.81,9.33-6.74-.29-3.63,6.03-4.18,8.44-.27,1.2-2.29,1.31-2.88,2.26-2.37,3.82.08,8,.1,11.77.1,17.48-1.99,36.24.02,52.99.28,2.37,2.13,3.85,2.02,7.03-.16,4.38-4.44,6.02-4.15,9.01.31,3.23,3.98,1.91,4.16,3.08.33,2.14-1.44,5.72-1.14,8.94.2,2.19,2.12,4.82,1.92,5.86-.23,1.2-2.51,2.3-3.28,3.71-4.36,8.02,2.42,6.05,3.28,8.57,4.15,12.22-.8,25.06,8.11,36.61,1.3,1.68,4.52,2.65,5.71,4.05,1.41,1.67,1.48,4.66,3.37,6.13.36.28,7.2,3.37,7.62,3.41.73.06,5.5-3.33,5.81-3.85,1.26-2.11-.17-5.23.71-6.8.4-.71,4.25-1.83,5.45-2.56.8-.48.63-2.38,2.83-2.71,5.64-.83,11.25,4.85,15.14,8.42,2.8,2.56,5.39,9.34,10.68,7.52,1.76-.61,2.04-3.58,3.66-4.37,6.82-3.31,14.96-6.18,22.19-9.79,9.25-4.62,18.7-11.05,27.77-15.2,1.83-.84,6.62-1.39,6.86-1.64.65-.69,2.95-10.88,2.13-11.86l-17.07,12.41c-19.02,9.16-41.32,15.04-60.29,2.46-1.52-1.01-1.45-2.78-1.58-2.88,2.67.48,2.04-.64,2-3,2.79.8,7.26.47,8.77-2.21.95-1.67-.5-4.95.43-6.59.41-.73,4.25-1.82,5.45-2.55.82-.5.7-2.56,2.84-2.74.95-.08,6.81,2.43,8,3.12,4.57,2.65,10.68,13.65,15.82,11.88,1.48-.51,1.62-2.75,2.67-3.39,6.62-4,18.23-7.19,25.65-11.33,8.45-4.71,10.38-7.98,10.04-18.41-.11-3.18-1.19-14.43-1.74-17.26-.45-2.3-2.72-2.84-2.75-4.77-.07-4.39,1.69-10.36.7-15.19l3.13-1.1c-.75-7.91.5-15.98.56-23.79.02-2.5-1.58-5.34-1.52-8.06s1.89-6.21,1.88-9.11c-.01-6.17-5.4-13.06-5.09-21.01.14-3.75,2.37-5.27,3.43-8.66,3.13-10.08-.77-24.39-.37-35.37.26-7.08.8-13.95,1-20.91.09-3.29,1.65-20.05-.23-21.35-.84-.58-2.68.33-2.74-.7-.14-2.31,2.85-1.91,3.09-3.17.31-1.63-1.01-3.49-1.02-4.97-.09-9.19,1.85-17.69.88-26.69-.25-2.27-1.75-5.48-1.69-7.38.1-3.49,1.87-.14-.24-4.28-.08-.16-.09-1.74,0-2,.02-.07.8-.83,1-1,.21-.18,5.86-.87,0-2,.1-1.08.8-3.13.71-3.56-.15-.71-5.82-5.26-5.82-7.93,0-2.32.75-3.36,3.11-3.52.54-1.65-2.05-.47-2.05-1.54,0-.95,1-2.47,1.06-3.94.18-4.07-.74-10.5-.07-13.95.24-1.23,2.89.08,3.11-1.06.42-2.18-1.03-4.36-.95-6.05.09-1.9,2.35-3.23,2.75-5.17.18-.89-.53-12.9-.81-13.65-.45-1.19-2.3-.25-2.83-.77-.39-.38-3.09-9.46-3.12-10.45-.12-3.93,1.47-10.9,3-14.61.32-.77,1.81-.81,1.93-1.48.4-2.23-1.6-5.06-1.04-7.63.17-.8,1.84-.24,2.09-2.11.91-6.9-1.15-14.43-1.14-21.07.1-75.41,1.45-151.19,2.1-227.05.13-15.35-2.66-33.37-4.67-49.13-.77-6.06-.4-2.37-1.67-5.55-2.4-5.99-4.11-12.59-6.69-17.78ZM408.74,138.04c-.07-3.08,1.35-5.88.99-9l-3.99,3.99c1.05-7.49-1.56-3.76-4.04-5.46-.33-.23-3.3-5.9-4.11-6.89-1.49-1.82-8.45-7.24-6.84-9.63,3.03-.68,8.38-.64,5.85-4.86-.95-1.58-5.75.05-8.18-1.25-3.96-2.12-4.14-5.47-6.17-8.9-1.2,4.36,1.1,6.47-4.48,3.99,2.44,4.25-7.64,3.39-8.01,3.01-.31-.32.23-3.89,0-5.01-5.29-1.45-.94,4.92-5.99,5,1.35-7.94-3-4.19-8.57-4.92-1.85-.24-1.31-1.87-2.12-2.06-1.38-.32-7.26-.33-8.62,0-.74.18-.56,1.73-1.41,1.95-1.24.32-2.95-.38-4.08.23-.71.38-1.64,4.14-2.4,4.59-1.62.95-5.78-.4-8.13.37s-2.15,4.27-2.81,4.69c-1.29.82-6.38-.36-6.84.16-.28.32.32,2.3-.04,3.23s-1.77.75-1.94,1.46c-.39,1.6.36,5.81-.03,6.3-1.8,2.26-1.63-2.79-3.48-1.99-3.65,1.59-6.24,11.15-5.5,14.99,7.75-2.96,2.34,3.14.77,6.31-.5,1.01-.66,3.43-.86,3.6-1.34,1.18-7.46-1.76-8.82-.83-1.84,3.33-.4,9.27-2.06,12.22-.73,1.29-3.28.46-3.92,2.31-.55,1.6.21,4.03-.15,5.85-.39,1.98-2.11,3.05-2.48,4.52-3.05,12.35-1.34,29.45-1.44,42.56-.31,38.7.03,77.68,0,115.92s.02,72.95,0,110.08c-.01,29.71-.23,60.02-.1,90,.02,4.96,1.54,9.06,0,14.74-.25.91-2,.4-2.08,2.18-.2,4.87,5.48,8,6.72,12.52,1.59,5.77.69,23.64-.87,30.24-.5,2.1-4.86,6.91-3.47,8.58.37.44,2.55-.36,1.73,2.17-6.4,1.67-2.46,5.5-2.23,8.77.41,5.87-.8,20.29,1.2,24.6.64,1.38,3.01,0,4.53,1.66.56.62,2.6,5.52,2.62,6.51.05,2.03-1.93,1.5-2.53,2.51-.72,1.21-.45,2.85-1.13,3.92s-2.8,1.24-3.3,2.7c-3.71,10.93-.16,39.26-.1,51.8.07,14.39-2.88,42.55-.03,54.87.2.88,2.09.29,2.08,2.14-.02,3.75-2.79,3-3.12,4.24-.95,3.69,1.02,16.55,1.07,21.85.17,18.22-1.65,33.23,4.46,51.45,1.57,4.7,6.32,16.32,8.45,20.36.57,1.08,2.23.26,3.1,1.28,3.8,4.44,5.64,10.83,10.99,14.8,8.45,6.27,14.71,1.46,19.92,4.06,3,1.5,1.06,6.6,3.59,7.45,2.36.79,3.64-1.33,5.09-1.57,6.09-1.01,14.69-2.3,20.52-.29.89.31.86,1.81,1.31,1.92,2.75.71,2.1-1.34,3.22-1.93,7.26-3.78,16.07-9.01,21.25-15.55,1.16-1.46,1.69-5.16,2.09-5.42.96-.62,3.35.41,4.68-.32.89-.49,4.61-9.01,5.79-10.7.95-1.35,3.25-1.77,3.93-3.09,1.54-3-1.07-5.69-.38-8.28.48-1.83,5.29-6.15,6.6-8.48.94-1.68,3.73-7.5,2.25-9.25,1.17-3.58-.11-6.56.21-8.39.35-1.99,3.59-2.16,3.84-3.3.46-2.05-1.04-4.18-.96-5.86.08-1.47,1.82-2.68,1.96-4.89.94-15.01-.97-35.11-3.13-49.92-.27-1.85-1.86-3.58-1.87-5.13-.02-2.5,3.49-4.97,3.96-8.97.81-6.84.02-16.8.02-24.07,0-1.65-1-3.64-.79-4.83.18-1.01,2.14-2.11,1.74-2.61-.13-.17-1.9.24-1.91-.43-.02-1.45,1.1-4.29.98-7.12-1.22-28.7,3.09-57.36-.97-86.03-.93-6.58,1.84-7.42,1.81-7.86-.52-6.2-.46-12.65-.74-19.12-.03-.59,1.86-.02,1.97-1.91.24-4.03-3.64-12.47-4.91-16.24-2.93-8.68-1.46-27.53,1.09-36.5s3.6-14.13,2.74-24.33c-.37-4.39-.48-6.86-5.1-8.07-1.23-18.94-.95-37.89-.93-56.89,8.07,1.14,3.81-3.04,4-7,.13-2.78,1.12-8.89,2-11.5.04-.11,1.89-.97,1-1.99-.21-.24-1.65.22-1.99,0-.9-.59-1.13-.53-1.79-1.67-2.67-4.59,2.4-24.99,2.83-31.79,2.13-33.73-.48-74.59-.99-109.08-.03-2.03-1.26-4.51-1.09-5.83.09-.65,1.76-.48,2.01-1.34,3.12-10.88-1.94-21.14-2.04-30.87-.02-1.88,1.99-.9,2.18-2.87.34-3.54-.26-16.53-.46-20.9s-3.52-5.99-3.73-9.13c-.4-5.87,4.1-3.92,4.12-5.05.02-.99-1.09-2.58-1.08-4,.12-10.49-1.73-20.85-2.94-31.46-.61-5.37-.29-6.76-4.41-10.61-.55-.51-2.07-.19-2.66-1.01-1.08-1.5-.61-3.74-.93-5.38-.27-1.41-.98-3.93-1-5ZM604.59,188.04c3.06.89,2.2-4.06,2.05-5.55-2.05-20.24-10.84-50.72-25.47-63.5-9.61-8.4-20.95-14.97-33.99-16.99-1.51-.23-2.65-1.94-3.84-1.77-1.48.22-4.34,2.24-7.47,2.54-5.68.55-12.37-1.59-18.5.48-2.41.81-2.2,3.15-2.92,3.65-.46.32-5.23.58-9.9,3.48-9.36,5.81-7,7.35-12.88,14.89-2.78,3.56-11.06,9.57-12.8,12.92-.23.44.96,1.96.6,3.08-.57,1.81-2.23,3.04-2.49,5.41-.14,1.24.92,2.82.77,3.71-.19,1.1-2.42.8-2.73,2.1-1.11,4.61-5.62,31.61-5.26,34.97.2,1.87,1.5,3.59,1.61,5.22.21,3.02-1.42,6.9-.64,10.64.36,1.74,6.69,2.11,2.94,9.72-1.13.84-1.02-4.06-2.49-1-.5,1.05-1.09,3.47-1.14,4.66-1.38,29.34.38,59.66-.31,88.81-.24,10.16-1.94,25.2-.03,35.03.47,2.41,2.93,2.87,3.09,6.01.21,3.99-3.39,8.3-3.78,11.18-.97,7.15-.44,24.74-.23,32.73.16,6.1,6.19,12.27,3.22,19.4-.49,1.18-2.23,1.11-2.35,1.87-.08.54.85,7.79,1.08,8.63.27,1.02,2.29.33,2.01,2.15-.31,2.02-2.67,3.5-2.85,5.2-.19,1.83,2.09,3.8,1.78,4.31-.07.11-1.63-.31-2.3,1.24-2.29,5.26.31,13.73.37,19.25.19,17.13.28,33.72-.05,51.04-.36,18.33.54,36.6-.09,55.12-.67,19.91-1.24,42-.94,61.93.12,7.65,2.61,20.26,2.15,27-.13,1.93-2.17,1.03-2.22,2.92-.23,8.29,3.08,12.25,5.56,18.58s-2.15,4.55-2.52,7.46c-.3,2.4,1.4,5.67,1.12,8.99s-2.85,5.52-2.92,7.96c-.12,3.84,4.69,7.79-1.14,8.05,2.92,7.4.31,15.45.39,23.16.02,1.73.31,8.85.55,9.73.33,1.22,6.46.01,3.03,5.88-1.57,2.7-4.16,7.41-3.98,11.15.03.65,1.84.09,2.1,2,.94,6.9-1.94,14.61-1.98,21.18-.02,3.63,1.83,9.37,1.71,12.91-.25,7.4-1.18,14.36-.88,22,.48,12.08,4.52,25.6,9.88,36.17,8.17,16.12,4.91-1.72,15.36,2.42,5.97,2.37-1.09,13.57-.02,18.71,8.53,3.73,15.01,12.68,25.14,11.2,1.39,3.61,4.3,1.28,7.04,1.96.94.23.56,1.92.66,1.99,2.11,1.54,1.88-1.94,2.58-2.05.99-.14,2.41.95,3.74.79,5.55-.67,9.89-14.87,11.27-15.81,1.21-.82,3.83-.46,5.32-1.46,1.13-.75,1.43-3.02,2.67-3.41,1.93-.6,4.74,3.09,6.34,1.93.14-.1.45-2.3,1.18-3.3,1.09-1.5,5.11-5.36,5.29-5.7,2.29-4.25.2-9.41,8.55-8.98-.35,3.59-.17,6.93,4.34,6.01.66-.14.69-1.62,1.41-1.93,1.26-.53,4.94-.93,5.14-1.16.64-.77-.31-4.52.09-4.91.33-.33,4.35.76,5.58-.95s-.97-3.83-.43-4.86c.64-1.2,5.98-3.73,6.32-4.18,1.6-2.09.92-7.02,1.56-9.28.17-.59,3.06-2.41,3.72-6.46,1.65-10.19,2.15-16.43,1.24-26.26-.62-6.7,1.74-16.03,1.91-23.4.97-43.15-.7-86.75-.86-130.06-.11-31.56.3-62.9.15-94.04-.05-10.66.52-20.2.84-30.96.99-33.93-.72-69.05-1.08-103-.51-47.96,1.64-96.49-1.63-144.16-.76-11.14,2.25-31.31,2.3-44.04.04-8.96.9-23.79-.63-32.34ZM656.55,786.04c.07,5.58-1.77,12.76-.95,19.45.64,5.2,3.9,9.75,5.17,15.82,1.02,4.9,2.45,8.92,3.57,13.44,1.83,7.38-.92,16.56,1.21,24.3l2.98-1.01c-.65,5.73,3.34,4.71,5.58,6.95,1.19,1.19,1.1,3.05,1.75,3.73,2.51,2.62,6.62,4.41,8.33,8.39,2.3-1.42,5.04.14,6.77-.1,2.01-.28,2.8-2.06,5.98-2.01,6.14.09,8.11,4.33,10.19,4.8.43.1,8.31.31,8.72.17,2.72-.89,2.27-11.13,7.13-11.97.7,0,6.06,4.93,6.26,5.29,2.12,3.67-3.69,7.41,5.57,7.4,5.18,0,20.36-2.07,23.14-6.63,1.39-2.28-.19-6.06.63-8.37.62-1.75,3.16-1.31,4.34-2.66.91-1.04.74-4.49,3.03-3.96,7.2,8.91,8.3-6.01,9.66-6.85.81-.5,2.82.06,4.08-.37,3.87-1.31,3.11-4.94,4.69-7.34,1.02-1.54,3.86-2.18,4.08-3.14,1.23-5.49,2.73-19.17,2.04-24.85-.32-2.64-2.19-3.79-2.13-6.89.08-4.22,4.51-10.09,5.1-15.03,2.03-17-.11-42.08-.07-60.07.04-21.75.17-43.23.08-64.92-.23-56.53.06-113.52,0-170-.04-34.05.06-67.64,0-101-.02-10.83-2.32-29.87-1.13-39.11.26-2,2.2-1,2.16-2.86-.15-7.48-1.06-14.08-1.04-22.03.11-35.25.69-70.32.58-105.21-.05-14.98-6.95-24.26-6.71-39.82.09-5.7,3.48-6.99,4.07-10.02,2.42-12.55-8.79-41.95-16.61-52.39-2.68-3.58-9.77-8.73-11.42-11.54-.94-1.6-.78-4.11-1.07-4.42-.31-.33-5.65-.89-6.86-1.13v25.5c0,.48-1.23,3.08-2,2.5v-27c0-.14-2.24.46-2.82-.18s.32-2.68-.73-2.89c-1.67-.34-5.1.7-6.31-.06-.68-.43-.85-3.62-1.17-3.85-.76-.55-3.3.96-4.52.89-2.62-.13-9.46-3.13-13.83-2.63-2.14.24-4.13,3.2-6.32,3.56-2.43.4-4.96-1.8-7.76-1.84-3.73-.05-10.04,1.71-13.06,4-.91.69-1.19,2.55-1.64,2.8-1.97,1.11-5.55.68-9.75,3.93-8,6.2-14.55,17.5-18.74,26.04-.56,1.14-2.12,1.18-2.28,1.93-.5,2.32.45,5.25-.04,7.6-.31,1.47-7.17,4.92-5.87,6.63.12.16,1.88-.12,1.95.63.21,2.28-2.12,8.54-2.67,11.11-1.51,7.1-2.49,12.07-2.39,19.85.02,1.69-.64,4.44,1.02,5.49-.82,4.81-2.45,26.06-.51,29.05.76,1.16,3.06.15,2.52,2.45-.21.88-2.02.24-2.07,1.06s1.12,2.34,1.01,3.87c-.19,2.77-1.96,5.13-2.02,9.06s1.81,6.68,1.8,8.83c-.02,3.19-2.42,6.71-1.82,11.26.26,1.93,2.06,1.36,2.15,2.04.18,1.46-1.82,5.01-2.11,7.84-.43,4.27.93,8.53.85,12.06-1.17,51.3-1.07,103.61-.84,154.96.06,14.2-1.21,31.35,0,45.08.83,9.45,6.15,9.68,6.94,12.13.54,1.69-1.09,5.18-.96,7.79s1.8,4.83,2.02,7.15c.36,3.87-2.29,8.83,0,12.73.6,1.02,2.11.35,2.75.93.18.16,2.38,3.95,2.39,4.19.05,1.32-.94,6.67-1.61,7.53-.85,1.1-2.92.87-3.96,2.03-5.2,5.8-7.22,21.79-7.58,29.44-1.1,23.53-1.29,54.67-.04,78.07.22,4.11,3.49,6.78,3.21,10.98-.16,2.4-3.08,1.48-3.14,3.93s5.98,8.58,5.11,13.98c-.15.93-4.16-.18-5.01,5.14-2.08,13.06,3.11,28.79-.07,41.77-.2.83-2.06.57-2.03,1.17.06,1.77,4.08,8.48,4.13,10.97.04,2.26-1.83,4.32-2.12,6.99-.47,4.37.75,14.75.06,17.88-.16.74-2.06.66-2.09,1.21-.07,1.29,1.77,3.95,1.97,6.02.62,6.38,1,15.92,1.08,22.42ZM949.33,596.04c2.22-.15,3.53-.04,4,2.5,1.01,5.4.2,14.28.96,20.04.46,3.49,2.45,7.09,2.91,11.09,1.17,10.11.69,22.16,2.18,31.82.55,3.56,3.76,6.72,3.99,11.1.39,7.46,1.2,11.8,1.93,18.98.57,5.61-2.89,16.99,5.01,15.49-.02-4.48.06-9,0-13.49-1.28-103.07-.68-208.91-.62-312.18.03-42.1,1.32-84.94.58-126.79-.5-28.22,2.38-57.42,0-84.98-.85-9.77-5.61-19.51-8.87-28.32-.7-1.88-.55-4.46-1.04-5.59s-2.2-.34-2.76-.84c-1.03-.92-2.25-8.72-5.71-10.87-1.58-.99-3.58-.62-4.33-1.14-.64-.44-.79-2.67-1.74-3.75-.38-.44-8.25-6.37-9.08-6.93-2.45-1.63-6.41-1.29-9.04-2.49-1.75-.79-2.5-4.57-2.9-4.68-4.4-1.23-4.7,2.06-5,2.08-2.06.1-14.74-1.32-16.66-2.09-1.01-.41-.31-1.97-2.25-1.95s-1.15,1.65-2.23,1.96c-2.08.59-6.68.3-8.29,1.56-1.12.87-.73,5.42-2.96,3.49-.24-.2.21-1.78-.01-1.98-2.23-1.94-1.73,1.91-2.25,2.67-1.18,1.71-11.84,9.4-14.21,11.31-4.56,3.68-11.01,7.18-13.94,12.14-4.62,7.84-8.24,17.57-10.57,26.88-.95,3.8-1.39,10.13-2.14,12.39-.47,1.42-2.8,1.33-2.95,2.23-.3,1.8,1.63,3.5,1.8,5,.36,3.25-.89,10.53-.75,14.92.34,10.74,2.11,23.36,2.11,33.97,0,7.53-1.32,16.35-2.05,23.94,1.21,2.71,4.43-.37,5.9.62.9.61,2.22,8.11-.54,8.87-1.86.51-5.83-3.33-6.34,4.61-.35,5.44,1.81,16.67,2.06,22.95.08,1.96-1.34,4.28-.95,5.81s2.9,2.24,2.87,4.17c-.01.98-1.78,3.14-2.09,5.95-.75,6.86,1.06,13.66,1.17,20.07.26,16.11-.11,32.02.7,48,.14,2.79-1.33,6.34-.83,10.04.42,3.16,3.78,6.64,3.12,9.82-.3,1.44-3.82.79-4.15,2.29-.45,2,1.04,4.57.97,6.74-.92,31.47-2.02,62.61-1.94,94.06.02,6.64,4,42.45,2.82,44.34-.33.53-2.27.54-2.67,1.83-1.5,4.83.98,18.45.93,23.83s-3.05,13.82-.81,18.81c.59,1.32,2.31,2.32,2.62,3.47.57,2.13-1.04,4.53-.97,6.81.05,1.72,1.73,1.26,2.04,2.21.62,1.94,1.34,8.67-.2,10.05-.56.5-2.26-.32-2.76.84-.14.33-1.75,6.67-1.75,7.03-.03,1.27,1.78,3,1.9,5.8.95,22.02-3.27,47.35-1.74,69.85.37,5.38,3.46,8.39,3.66,10.2.32,2.9-3.06,5.54-3.07,8.94-.02,7.2,3.65,16.24,3.91,22.98.05,1.32-.68,13.17-.87,13.84-.31,1.13-3.75,1.34-3.87,5.17-.31,9.81,1.18,22.64,1.49,32.87.26,8.74-.92,19.04.82,27.78.18.91,4.69,9.37,5.17,9.78,2.28,1.92,6.86,3.2,9.29,4.7,6.98,4.32,15.34,11.38,24.58,10.51,2.1-.2,3.2-1.54,5.05-2.02,4.51-1.19,8.72.6,8.43-7.07,3.37-.82,4.32,3.43,7.48,3.1,2.39-.25,2.09-2.52,2.67-2.89,2.69-1.67,5.06,2.05,7.24,2.88,3.72,1.42,12.13,1.95,15.35-.3.49-.34,1.93-4.75,3.2-6.31,16.42-20.26,16.17-31.79,16.97-56.93,1.84-58.13.08-115.68.04-173.55ZM1123.21,703.04c1.45,9.32,1.29,9.83.96,19.46-1.31,37.51,4.05,91.13-19.97,122.02-5.55,7.14-20.98,17.54-29.67,19.3-5.47,1.11-13.48.28-18.77,1.22-3.02.53-3.22,3.85-1.99,4.01,6.91.05,14.96-1.54,21.74.23,2.76.72,5.49,4.56,7.04,5.47.88.52,2.29.05,3.32.66.68.4,3.81,3.52,4.08,3.59,4.88,1.34,2.44-1.78,3.79-3.92.99-1.57,4.78-1.64,3.5-6.03,1.99-.78,3.88,3.02,4.49,2.98.76-.05,1.13-2.44,1.69-2.77.79-.45,6.7-.58,9.79-1.73,3.73-1.39,10.92-6.15,11.8-10.19.62-2.82-.35-6.04.41-8.59.53-1.78,3.04-2.58,3.59-4.39,1.13-3.71-1.29-9.59-.36-11.3.17-.32,4.93-4.95,5.28-5.03,1.09-.24,7.34.88,8.26,0,.38-.36-.11-8.4.09-10.4.72-7.09,3.72-14.35,1.43-21.6-2.04-6.49-5.15-8.86-3.49-17.46.92-4.76,5.83-5.5,6.51-6.46s.84-11.09.35-12.45c-.74-2.03-5.04.01-4.57-7.02.17-2.57,2.48-2.44,2.66-3.29.47-2.18-.26-5,.03-7.3,1.75-.39,1.4,7.51,3.97,4.99,2.63-2.58.41-17.79,3.01-22.31,2.82-4.91,1.15-2.21.94-8.15-.18-5.11,1.51-7.31-1.96-12l4-1.59c-.37-6.76-.15-13.67-.02-20.48.03-1.61,1.1-4.12.94-4.89-.32-1.5-3.26-1.33-4.36-2.59-.32-.37-3.89-8.26-4.07-8.96-.86-3.29.02-6.33,1.56-9.3.89-1.72,6.62-6.48,6.79-6.93.37-.98-.72-2.08-.49-3.09,1.87-8.4.42-8.28.6-15.19,1.92-71.23.3-142.92-.96-213.96-.43-24.09,1.26-48.05-2.04-71.96-.51-3.72-2.55-6.72-2.96-11.04-3.48-37.54,8.62-78.43,4.12-114.11-.24-1.91-1.92-.95-2.16-2.87-.97-7.7,2.41-14.81,2.15-20.06-.12-2.5-1.87-4.1-2.07-6.09-.25-2.44,1.19-5.11,1.09-7.91-.17-4.6-1.89-9.11-1.03-13.94-7.06-1.04-2.98-9.6-3.37-13.93-.05-.55-3.66-9.9-3.97-10.36-.61-.92-2.95-.88-3.55-2.95-.8-2.74,1.1-5.78-2.21-7.59-3.51-1.91-3.73-.23-1.98,2.78-2.64,2.09-2.19-2.42-3.56-4.44-1.08-1.59-3.91-3.38-4.28-4.74-1.06-3.86,3.48-2.96,3.84-3.39,2.68-3.11-6.4-4.66-8.27-5.91-1.12-.75-1.26-2.53-2.73-3.51-1.36-.9-3.68-.82-4.73-1.79s-1.73-5.16-2.41-5.59c-1-.63-9.9.04-13.38-1.08-4.62-1.48-5.42-1.12-9.77-2.1-.94-.21-.25-2.77-3.16-2-.39.1-.37,1.84-1.17,2.01-4.69,1.02-10.78.48-15.32-.98v4.99c-7.86-1.85-4.45-.81-6.21,1.73-.59.85-5.57,2.23-7.05,3.25-1.11.76-1.32,2.49-2.24,3.03-.48.28-1.07-2.79-2.48-3.51-5.16-2.66-3.51,1.6-5.03,4.81-.63,1.33-5.2,3.93-6.45,5.74-.94,1.36-9.39,15.36-9.74,16.25-.8,1.99-.61,5.42-.78,5.72-.09.15-2.77-.43-2,2-2.93,2.67-4.22,6.8-4.73,10.75-.63,4.87,1.32,9.71.79,12.73-.43,2.45-3.28,2.35-4.4,5.67-3.38,10.04.61,32.43,1.33,43.36.56,8.51-2.72,11.96-3.03,18.02-.15,3.04,1.12,5.81,1.13,8.94.14,28.95-.52,58.55-1.04,86.97-.07,3.57-2.83,8.55-2.58,12.08.15,2.11,2.61,4.08,2.59,5.95-.01,1.07-2.5-.22-2.05,1.51,5.99-1.28,1.95,8.78,1.91,12.51-.09,8.08-.93,16.52-.92,24,0,1.03.71,8.2,1,8.51.77.81,6.45-2.32,6.99.52.4,2.11-3.24,4.44-3.78,6.2-2.63,8.65-3.53,25.59-4.1,34.9-.99,16.15,1.02,32.18.84,47.83-.02,1.42,1.02,2.94.97,4.14-.08,1.86-2.54,2.58-2.99,5.86-1.04,7.55.05,19.88.01,28.1-.11,25.28.08,51.28.09,77,.01,45.62-2.07,92.6-.67,138.8.21,6.96,4.17.6,5.61,4.18.9,2.23-2.6,1.21-3.54,2.42-3.2,4.11,3.31,2.28,4.55,4.58.55,2.26-2.15.74-2.1,2.94.08,3.24,3.57,7.34,2.11,11.54,4.91-1.71,3.69-1.09,5.01,3.49-3.26.49-5.47-2.91-8.98.05-2.16,1.83-2.96,18.66-3.05,22.92-.11,5.09-.66,13.32.08,17.99.19,1.2,4.58,15.26,5.03,15.96,1.21,1.91,3.22,1.77,4.62,2.89.79.63.99,2.59,2.26,3.22,4.06,2.01,15.22-.75,20.3.7,2.58.74,4.97,4.95,5.99,5.52s2.39,0,3.42.55c.47.25.36,1.75,2.18,2.28,6.77,1.97,4.19-.27,5.13-2.8.38-1.02,1.56-.84,1.99-1.48.66-.98.82-3.1,1.03-3.27.84-.66,3.94,1.2,5.33,1.03.66-.08.5-1.84,1.3-2.04,5.41-1.33,11.5-.48,16.34-5.47,4.72-4.87,2.97-7.73,4.17-12.85.46-1.96,2.4-3.18,2.77-5.25.54-3.04-1.44-7.79-.07-9.77.82-1.19,2.31-.99,3.37-1.68.7-.46.57-1.83,1.42-2.01,1.19-.26,7.21.87,8.29-.02.2-.17-.02-2.2.01-2.98l3.99,1c-.14-4.53,1.67-6.89-3.99-6,.58-6.59,2.5-14.62,1-21,1.84-.04,3.36-.99,2.99-2.99h-3.99c-.16-.72-1.6-1.82-1.95-3.53-.84-4.12-1.68-14.31,3.95-14.47-.2,5.61,1.66,6.51,2,0,.14-2.63.56-11.69.07-13.39-.37-1.28-3.7.13-4.14-3.14-.21-1.56,1.61-5.81,2.07-8.47h4c.06,1.98-.73,3.42,1.49,3.01,1.65-.31-.48-2.84-.49-3.01-.01-.22.78-1.78,1-2,.15-.15,1.75.51,2.04-.61.55-2.16.25-4.08-2.04-3.39,0-1.59-.28-8.65,0-9,.22-.28,2.7.88,1.99-1.49-.21-.7-.98-.46-.99-.51-.35-2.15-.36-3.55,2-3ZM423.72,410.05h-1.99s0,2.99,0,2.99c1.45-.34,2.29-1.61,1.98-2.99ZM1116.2,781.04c.72-1.4-.63-2.67-.98-1.99-.72,1.4.63,2.67.98,1.99ZM958.87,849.6c4.81-9.26,8.91-19.77,10.48-30.03.16-1.06.71-6.36-1.02-6.53,1.37,5.72-2.33,5.27-4.56,7.94-20.53,24.55-43.19,44.07-77.87,42.04-3.36-.2-19.25-5.07-9.44,2.45,4.44,3.4,14.96,7.4,20.47,7.6,2.03.07,12.24-2.26,13.82-3.14,2.89-1.61,2.82-3.86,2.62-6.89,3.47-.65,4.1,3.12,7.49,3.12,3.69,0,3-2.55,3.64-2.94,3.02-1.84,4.13,3.06,5.64,3.79,2.14,1.03,9.15,1.36,11.65.98.4-.06,6.04-1.98,6.31-2.17.56-.38,1.91-4.7,3.22-6.29,3.62-4.37,4.57-4.18,7.55-9.92ZM865.39,856.05c-1.09-1.09-3.08.9-1.99,1.99s3.08-.9,1.99-1.99Z"/>
      <path class="cls-1" d="M151.93,817.04c.3.36,6.58,5.78,6.99,6v4c-1.84-1.39-13.53-5.56-6.99-10Z"/>
      <path class="cls-2" d="M158.92,827.04c.13.1.05,1.87,1.58,2.88,18.97,12.58,41.27,6.7,60.29-2.46l17.07-12.41c.82.98-1.48,11.17-2.13,11.86-.24.26-5.03.8-6.86,1.64-9.07,4.15-18.52,10.58-27.77,15.2-7.24,3.62-15.38,6.48-22.19,9.79-1.62.79-1.9,3.76-3.66,4.37-5.29,1.82-7.88-4.96-10.68-7.52-3.89-3.56-9.5-9.25-15.14-8.42-2.2.33-2.03,2.22-2.83,2.71-1.2.73-5.05,1.84-5.45,2.56-.88,1.57.56,4.69-.71,6.8-.31.52-5.08,3.91-5.81,3.85-.42-.04-7.26-3.13-7.62-3.41-1.89-1.47-1.96-4.46-3.37-6.13-1.19-1.41-4.41-2.37-5.71-4.05-8.91-11.56-3.96-24.39-8.11-36.61-.85-2.52-7.64-.55-3.28-8.57.77-1.41,3.05-2.51,3.28-3.71.2-1.03-1.71-3.67-1.92-5.86-.3-3.21,1.47-6.8,1.14-8.94-.18-1.17-3.85.14-4.16-3.08-.29-2.99,3.99-4.63,4.15-9.01.12-3.18-1.73-4.66-2.02-7.03-2.01-16.75.08-35.51-.02-52.99-.02-3.77-2.47-7.95-.1-11.77.59-.95,2.6-1.06,2.88-2.26.55-2.41-2.56-8.73,4.18-8.44-2.07-2.48-2.47-6.44-.81-9.33.87-1.52,2.78-1.14,2.92-3.14.05-.7-2.03-12.9-2.32-13.81-.5-1.57-2.66-2.28-2.85-4.25s5.58-9.95,3.01-12.42c-.46-.44-4.03.77-4.83-1.67-.55-1.67.23-4.02-.17-5.82-.74-3.33-3.94-10.87-3.99-14.01-.07-4.9,3.15-18.41,2.02-22.87-.19-.77-1.97-.65-2.01-1.25-.06-1.04.92-9.23,1.07-11.94.35-6.39,2.12-13.95,2.02-20-.08-5.08-2.83-8.45-3.11-12.09-.15-1.96,2.24-1.21,2.04-1.87-.3-1.01-1.95-1.99-1.94-4.02.02-2.2,2.45-4.13,2.53-5.99.09-2.25-2.41-4.72-2.46-6.96-.09-3.44.06-6.18-.15-10.06-.08-1.49,1.06-2.9,1.08-3.94s-2.04-.08-2.07-1.05,1.79.42,2.1-1.92c.81-6.2-2.13-9.5-2.17-14.06-.03-3.35,1.64-6.82,1.96-10.14.22-2.31.95-10.34.74-11.93-.26-2.02-3.56-1.5-3.73-3.94-.44-6.52,4.13-5.52,4.13-6.02,0-.98-1.05-2.32-.93-3.87,1.15-15.02.09-31.63,0-47.11-.02-3.64-2.42-10.95-2.14-13.87.07-.74,1.68-.7,2.05-1.32,2.3-3.88-.5-7.7-.1-11.87.19-1.98,2.22-1.01,2.18-2.88-.03-1.38-.81-8.9-1.05-9.93-.27-1.13-2.06-.2-2.04-1.14,4.01-1.01,1.06-5.73.97-8.96-.89-32.73.74-67.75,1.09-101,.28-26.66.83-52.47,1.06-78.93.05-5.67-.81-16.58-.18-21.18.2-1.44,1.63-6.62,2.19-9.81,2.71-15.24,10.17-33.62,21.42-44.56,1.15-1.12,3.39-1.16,3.99-2.01,1.04-1.49.12-4.6.46-5.05.26-.34,2.15.94,3.05.51.47-.22,3.79-4.31,3.95-5.5,1.64-.55.48,2.04,1.54,2.06,3.86.09,6.36-3.39,6.45-7.07,4.64,4.21,3.62.26,4.64,0,.58-.15,10.9-.92,11.89-.88,1.88.08,3.48,2,4.8,1.74,2.37-.46,2.84-3.91,10.17-2.92,2.57.35,3.26,5.36,5.36,3.91.31-.21-.39-2.7,2.59-1.89.36.1,1.96,4.18,5.08,4.98,2.32.6.88-2.04,1.92-1.96.8.06-.07,3.08,3.01,2.04.92-.31-.16-2.52,1.48-2.02-.2,4,3.95,5.1,6,7.01,1.09,1.01-3.91.92-1.99,2.97.41.44,6.96,2.69,9.4,5.11.61.61,5.15,5.79,5.35,6.16.61,1.12-.15,3.08.38,3.64.37.39,2.2-.2,2.65.24.53.52.06,2.67.72,3.81,1.08,1.86,2.13,2.35,3.48,5.06-4.5,4.14-3.81.43-4.15.26-.61-.3-2.26,1.46-5.63-.93-1.43-1.01-1.12-2.24-1.23-2.31-2.23-1.41-1.92,1.75-2.06,1.87-1.82,1.59-3.1-3.22-4.18-3.58-5.78-1.92-8.01,1.79-11.24,1.8-2.41.01-3.42-2.11-4.99-2.15-.61-.02-.36,1.84-1.16,2.04-1.88.47-4.59-.32-6.8.04-1.96.32-3.58,2-5.02,2-1.08,0,.24-2.5-1.51-2.04-1.47,8.59-3.77,4.62-8.36,6.14-1.66.55-1.73,3.27-3.25,3.65-.68.17-2.28-.94-2.39-.81-.23.28.38,3.1-.9,4.63-1,1.2-3.09.95-3.82,1.67-28.55,28.51-18.2,62.03-21.28,97.2-1.7,19.45-2.87,39.28-2.95,59.03-.07,15.67,2.93,35.71,1.05,51.05-.23,1.88-.77.89-1.02,5.87-.36,7.16.62,4.21,1.01,6.98.6,4.27-1.2,8.7-1.15,13.08.07,5.23,2,12.61,1.97,17.88-.04,7.05-1.73,13.78-1.85,21.07-.27,16.65,2.88,37.45,1.03,53.08-.29,2.41-4.01,1.51-3.1,5.85.15.7,1.85.14,2.1,2.04,1.02,7.91-2.34,15.6-2.14,21.12.13,3.59,2.88,6.73,2.14,13.03-.25,2.15-2.47,1.12-2.08,1.91,1.58,3.19,2.87,15.96,2.7,20.22-.13,3.1-2.32,7.1-1.58,11.67.6,3.7,2.91,6.33,2.96,10.1s-1.87,8.84-2.13,12.97c-.61,10.02.33,20.87.08,31.08-.07,3-1.51,5.91-1.15,8.98.27,2.26,2.49,1.61,2.96,3.1s-.15,3.36.19,4.84c.8,3.48,2.92,2.68-.04,7.54,4.72.13,8.53,3.94,6.7,8.76-.16.42-4.57,3.28-4.7,3.77-.42,1.55,2.36,2.55,2.81,4.17.53,1.91-.18,3.96.2,5.64.18.77,1.86.57,1.95,1.29.75,6.32-3.02,9.11-3.06,11.92-.02,1.33,3.53,1.81,2.17,6.89-.07.27-4.47,1.74-4.82,2.84-.48,1.46.67,2.73.25,3.8-.63,1.58-3.25,1.64-3.57,5.43-.36,4.3,2.26,12.72,2.11,16.94-.02.45-2.97,1.3-1.96,8.03,1.43,9.58.25,9.77.09,18.03-.1,5.17,4.14,16.22,2.62,21.78-.6,2.2-3.88,4.35-2.77,7.74l4.02.52c-2.45,4.35.28,9.64-.03,12.95-.18,1.97-4.49,6.69-3.94,8.97.4,1.63,3.43.96,3.97,2.26,3.13,7.48.36,17.35,2.19,23.59.3,1.02,7.71,13.41,8.79,14.71-6.54,4.44,5.15,8.61,6.99,10Z"/>
      <path class="cls-2" d="M160.92,824.04c.04,2.36.67,3.48-2,3v-4c.61.33,1.4.83,2,1Z"/>
      <path class="cls-2" d="M1032.27,146.04c.17-.3-.02-3.73.78-5.72.36-.89,8.81-14.89,9.74-16.25,1.25-1.81,5.83-4.42,6.45-5.74,1.52-3.21-.13-7.46,5.03-4.81,1.41.72,1.99,3.79,2.48,3.51.92-.53,1.12-2.27,2.24-3.03,1.49-1.01,6.46-2.4,7.05-3.25,1.76-2.53-1.65-3.58,6.2-1.73v-4.99c4.55,1.46,10.64,2,15.33.98.79-.17.78-1.9,1.17-2.01,2.92-.77,2.22,1.79,3.16,2,4.35.98,5.15.61,9.77,2.1,3.48,1.12,12.38.45,13.38,1.08.67.42,1.32,4.58,2.41,5.59s3.37.88,4.73,1.79c1.47.98,1.61,2.76,2.73,3.51,1.86,1.25,10.94,2.8,8.27,5.91-.36.42-4.9-.47-3.84,3.39.37,1.35,3.2,3.14,4.28,4.74,1.37,2.02.92,6.53,3.56,4.44-1.76-3.01-1.53-4.69,1.98-2.78,3.3,1.8,1.41,4.84,2.21,7.59.6,2.07,2.94,2.03,3.55,2.95.31.46,3.92,9.8,3.97,10.36.39,4.33-3.69,12.88,3.37,13.93-.86,4.83.86,9.34,1.03,13.94.1,2.81-1.34,5.48-1.09,7.91.2,1.99,1.95,3.59,2.07,6.09.26,5.25-3.12,12.36-2.15,20.06.24,1.91,1.91.95,2.16,2.87,4.5,35.68-7.6,76.56-4.12,114.11.4,4.32,2.44,7.32,2.96,11.04,3.3,23.91,1.62,47.86,2.04,71.96,1.26,71.04,2.87,142.73.96,213.96-.19,6.91,1.27,6.8-.6,15.19-.22,1.01.86,2.11.49,3.09-.17.45-5.91,5.22-6.79,6.93-1.54,2.97-2.41,6.01-1.56,9.3.18.7,3.75,8.59,4.07,8.96,1.1,1.26,4.04,1.09,4.36,2.59.16.77-.91,3.28-.94,4.89-.13,6.81-.35,13.72.02,20.48l-4,1.59c3.48,4.69,1.78,6.89,1.96,12,.21,5.94,1.88,3.25-.94,8.15-2.6,4.52-.38,19.73-3.01,22.31-2.57,2.52-2.22-5.38-3.97-4.99-.29,2.3.44,5.12-.03,7.3-.18.85-2.49.72-2.66,3.29-.48,7.03,3.83,4.99,4.57,7.02.49,1.36.36,11.45-.35,12.45s-5.59,1.7-6.51,6.46c-1.66,8.6,1.45,10.97,3.49,17.46,2.28,7.25-.71,14.51-1.43,21.6-.2,2.01.29,10.05-.09,10.4-.93.87-7.17-.24-8.26,0-.36.08-5.11,4.71-5.28,5.03-.93,1.7,1.49,7.59.36,11.3-.55,1.81-3.07,2.61-3.59,4.39-.75,2.55.21,5.77-.41,8.59-.88,4.04-8.07,8.81-11.8,10.19-3.09,1.15-9,1.28-9.79,1.73-.56.32-.93,2.72-1.69,2.77-.62.04-2.5-3.76-4.49-2.98,1.28,4.38-2.51,4.46-3.5,6.03-1.35,2.15,1.09,5.26-3.79,3.92-.26-.07-3.39-3.19-4.08-3.59-1.04-.61-2.44-.14-3.32-.66-1.55-.91-4.28-4.75-7.04-5.47-6.79-1.77-14.83-.18-21.74-.23-1.24-.16-1.03-3.48,1.99-4.01,5.29-.93,13.3-.11,18.77-1.22,8.7-1.77,24.12-12.16,29.67-19.3,24.01-30.89,18.66-84.5,19.97-122.02.34-9.63.49-10.14-.96-19.46-.5-3.21-2.32-15.23-2.04-17.36.05-.42,2.47-2.68,2.91-7.28.22-2.31,1.19-16.92.97-17.78-.27-1.1-2.69-1.8-3.69-3.23-.84-1.19-4.9-7.88-4.9-8.65.05-8.21,7.26-10.12,8.55-14.4,1.16-3.85-.07-13.08.16-17.84.68-13.91,0-25.57.11-38.99.25-30.57.27-62.63-.02-94.01-.07-7.11-2.09-16.87-1.84-23.96.94-26.46,2.47-56,.84-83.04-.64-10.61-4.24-21.78-5.07-31.92-2.28-27.82,2.99-60.63,4.07-88.99.37-9.67-3.3-17.05-2.12-26.11.24-1.85,1.86-1.31,2.05-2.12,1.41-5.88-2.24-9.04-2.09-12.84.07-1.81,1.89-1.33,2.1-2.15,1.09-4.45-1.26-5.86-1.93-8.86-.37-1.67.38-5.86-.16-6.4-.42-.41-2.73.54-2.96-.61-.69-3.46.5-8.18-.37-12.52-.18-.89-2.58-8.29-2.83-8.67-.5-.76-2.61-.91-3.25-2.23-1.26-2.6.71-7.94-4.47-8.04l-1.98,3c.12-3.26-6.06-7.38-6.06-9.48,0-2.65,2.23-1.91,3.34-2.51,3.33-1.79-5.91-4.09-7.49-5.04-.9-.54-6.25-3.93-6.57-4.18-1.05-.87-.77-4.36-2.19-5.32-2.4-1.62-10.19.38-13.33-.43-1.14-.29-1.03-2.58-2.3-2.95-1.53-.45-3.87,1.47-5.77.87-1.57-.5-1.23-3.01-2.13-2.97-1.37.06-2.41,1.76-4.01,2-3.87.57-8.47-.33-12.45.04l.99,4.99c-2.32.72-3.76-1.93-5.48-2.03-.65-.03-.36,1.58-1.75,2.34-2.37,1.3-5.95,1.72-7.76,2.69-.16.08-1.11,1.19-2,2-.77-2.43,1.91-1.85,2-2Z"/>
      <path class="cls-2" d="M416.73,817.04c1.48,1.75-1.31,7.57-2.25,9.25-1.3,2.33-6.12,6.65-6.6,8.48-.68,2.59,1.92,5.28.38,8.28-.68,1.31-2.98,1.73-3.93,3.09-1.18,1.68-4.9,10.21-5.79,10.7-1.33.73-3.71-.29-4.68.32-.39.25-.93,3.95-2.09,5.42-5.18,6.54-13.98,11.77-21.25,15.55-1.13.59-.47,2.64-3.22,1.93-.45-.12-.42-1.62-1.31-1.92-5.83-2.01-14.42-.72-20.52.29-1.46.24-2.74,2.36-5.09,1.57-2.53-.85-.6-5.96-3.59-7.45-5.22-2.6-11.47,2.21-19.92-4.06-5.35-3.97-7.19-10.36-10.99-14.8-.88-1.02-2.53-.2-3.1-1.28-2.13-4.04-6.88-15.66-8.45-20.36-6.1-18.22-4.28-33.23-4.46-51.45-.05-5.3-2.02-18.16-1.07-21.85.32-1.24,3.09-.49,3.12-4.24.01-1.84-1.87-1.25-2.08-2.14-2.85-12.32.1-40.48.03-54.87-.06-12.54-3.61-40.87.1-51.8.5-1.46,2.6-1.58,3.3-2.7s.41-2.71,1.13-3.92c.6-1.01,2.59-.48,2.53-2.51-.03-.98-2.06-5.89-2.62-6.51-1.51-1.67-3.89-.28-4.53-1.66-2-4.31-.79-18.74-1.2-24.6-.23-3.27-4.17-7.1,2.23-8.77.82-2.52-1.36-1.72-1.73-2.17-1.39-1.67,2.97-6.48,3.47-8.58,1.56-6.6,2.45-24.48.87-30.24-1.24-4.52-6.92-7.66-6.72-12.52.07-1.78,1.83-1.27,2.08-2.18,1.54-5.69.03-9.78,0-14.74-.14-29.98.08-60.29.1-90,.02-37.13-.03-73.6,0-110.08s-.31-77.22,0-115.92c.1-13.11-1.6-30.21,1.44-42.56.36-1.47,2.08-2.54,2.48-4.52.36-1.82-.4-4.25.15-5.85.64-1.85,3.19-1.02,3.92-2.31,1.66-2.95.22-8.89,2.06-12.22,1.36-.93,7.48,2.01,8.82.83.19-.17.35-2.58.86-3.6,1.57-3.17,6.99-9.28-.77-6.31-.73-3.84,1.86-13.4,5.5-14.99,1.85-.8,1.67,4.25,3.48,1.99.39-.49-.36-4.7.03-6.3.17-.71,1.58-.53,1.94-1.46s-.24-2.91.04-3.23c.46-.52,5.55.65,6.84-.16.66-.42.54-3.95,2.81-4.69s6.51.58,8.13-.37c.76-.45,1.69-4.21,2.4-4.59,1.13-.6,2.84.1,4.08-.23.84-.22.67-1.78,1.41-1.95,1.36-.33,7.24-.32,8.62,0,.81.19.27,1.82,2.12,2.06,5.57.72,9.92-3.02,8.57,4.92,5.04-.08.69-6.46,5.99-5,.23,1.12-.31,4.69,0,5.01.37.38,10.45,1.24,8.01-3.01,5.59,2.48,3.28.37,4.48-3.99,2.03,3.43,2.21,6.78,6.17,8.9,2.43,1.3,7.24-.33,8.18,1.25,2.53,4.22-2.82,4.18-5.85,4.86-1.61,2.4,5.35,7.81,6.84,9.63.81.99,3.78,6.66,4.11,6.89,2.48,1.71,5.09-2.03,4.04,5.46l3.99-3.99c.36,3.11-1.06,5.91-.99,9-3.89,1.69-8.6-.37-10.46-4.06-1.34-2.63,1-4.76-3.52-3.93,6.85,5.78-8.14,6.9-9,6-.34-.36.35-3.66,0-4.02-.11-.11-2.89-.11-2.99,0-.35.35.34,3.67,0,4.02-.11.11-2.89.11-2.99,0-.35-.36.34-3.65,0-4.02-.26-.27-5.81.26-7.45-.04-3.44-.63-4.74-2.8-10.11-2.02-1.7.25-1.14,1.44-2.24,2-.64.33-2.08-.2-2.94.3-.6.35-.79,2.1-1.68,2.8-4.15,3.26-8.27.45-9.41,1.09-.61.35-1.53,4.59-2.86,4.9-1.25.3-4.98-.36-5.29-.01-.27.3.33,2.3-.03,3.23-.43,1.12-3.63,2.29-1.97,6.76-7.4-3.08-6.24,2.95-8.05,7.26-.42,1-1.75.52-1.96,1.25-.68,2.33,3.53,2.08,4.92,2.59,1.28,1.15-4.11,9.61-4.6,9.9-4.1,2.5-4.15-.39-4.57-.63-4.34-2.5-2.27,5.54-3.78,8.83-.66,1.45-3.84,2.49-4.7,5.56-9.47,33.85-1.18,75.72-3.21,110.78-.16,2.84-2.58,10.01-1.57,11.48.48.71,2.46.66,2.62,1.63.18,1.09-1.04,3.26-1.08,4.86-.67,28.97.13,57.15.04,85.95-.11,34.01-.27,67.43,0,101,.05,5.79-1.55,17.84-1.09,21.91.08.74,2.09.21,2.17,2.1.1,2.15-4.98,15.38-4.12,16.5.17.22,3.47.6,5.03,2.5,2.19,2.68,1.2,5.53,1.99,7.83.37,1.08,1.8.33,1.99,1.21.49,2.27-1.74,1.09-2.04,2.1-1.07,3.63,2.02,3.49,2.08,3.98.26,1.95-1.75,3.91-2.01,5.96-.4,3.13.54,6.83-.27,9.73-.42,1.49-7.33,7.17-4.02,7.73,5.63.95.23,2.06-.8,3.68-2.47,3.9.5,5.07.71,6.99.54,4.79-.59,18.54,1.31,21.61.73,1.18,2.79.73,4.08,2.14.41.45,3.01,5.7,2.94,6.02-.22.95-2.33,1.24-2.69,1.81-.81,1.25-4.22,6.04-4.31,6.43-1.9,7.73-.84,22.31-.99,30.79-.05,2.94-1.72,7.01-1.51,10.06.3,4.4,2.85,11.67,2.57,16.9-.03.64-2.01.54-2,.98.04,1.42,1.94,4.46,1.95,7.07.01,4.25-2.09,10.71-2.07,14.99.01,3.4,1.81,6.93,1.98,10.11.11,1.94-1.29,4.12-.98,5.72.2,1.06,2.84,1.22,3.09,2.19.2.79-3.1,4.31-3.1,7.98.01,17.31-.41,46.6,4.59,62.5,2.95,9.39,17.28,34.72,27.2,36.82,4.04.85,8.52-1.76,13.24.71,3.12,1.64,1.64,6.07,2.02,6.48,1.13,1.2,15.87-3.81,20.43-2.94,2.44.46,5.1,3.47,7.84,2.78,1.77-.45,5.76-4.38,7.5-5.52,5.18-3.39,8.84-4.51,13.23-10.05.93-1.18,1.37-4.48,2.19-5.05,1.12-.78,4.06-.09,5.53-1.47.24-.23,3.13-5.44,3.23-5.76Z"/>
      <path class="cls-2" d="M656.55,194.04c-1.66-1.04-.99-3.79-1.02-5.49-.1-7.78.88-12.75,2.39-19.85.55-2.57,2.88-8.83,2.67-11.11-.07-.75-1.82-.47-1.95-.63-1.3-1.71,5.56-5.17,5.87-6.63.49-2.35-.46-5.28.04-7.6.16-.76,1.72-.8,2.28-1.93,4.19-8.54,10.74-19.84,18.74-26.04,4.19-3.25,7.77-2.82,9.75-3.93.45-.25.74-2.12,1.64-2.8,3.02-2.29,9.33-4.04,13.06-4,2.8.03,5.33,2.24,7.76,1.84,2.19-.36,4.18-3.31,6.32-3.56,4.37-.5,11.21,2.5,13.83,2.63,1.21.06,3.76-1.44,4.52-.89.33.24.49,3.42,1.17,3.85,1.21.76,4.64-.27,6.31.06,1.05.21.16,2.24.73,2.89s2.82.04,2.82.18v27c.77.58,2-2.02,2-2.5v-25.5c1.22.24,6.55.8,6.86,1.13.29.31.13,2.81,1.07,4.42,1.65,2.81,8.74,7.97,11.42,11.54,7.82,10.44,19.03,39.84,16.61,52.39-.59,3.03-3.98,4.32-4.07,10.02-.25,15.56,6.66,24.84,6.71,39.82.12,34.89-.47,69.96-.58,105.21-.02,7.95.88,14.55,1.04,22.03.04,1.86-1.9.86-2.16,2.86-1.19,9.24,1.11,28.28,1.13,39.11.05,33.37-.05,66.96,0,101,.06,56.48-.23,113.47,0,170,.09,21.69-.04,43.16-.08,64.92-.04,17.99,2.11,43.07.07,60.07-.59,4.94-5.01,10.81-5.1,15.03-.06,3.1,1.81,4.25,2.13,6.89.7,5.68-.81,19.36-2.04,24.85-.21.96-3.06,1.6-4.08,3.14-1.59,2.4-.82,6.03-4.69,7.34-1.27.43-3.28-.13-4.08.37-1.36.84-2.47,15.76-9.66,6.85-2.29-.54-2.12,2.92-3.03,3.96-1.17,1.35-3.72.91-4.34,2.66-.81,2.31.77,6.09-.63,8.37-2.78,4.56-17.96,6.62-23.14,6.63-9.26.01-3.46-3.73-5.57-7.4-.2-.36-5.56-5.3-6.26-5.29-4.86.85-4.4,11.08-7.13,11.97-.41.14-8.3-.07-8.72-.17-2.08-.47-4.06-4.71-10.19-4.8-3.18-.05-3.97,1.73-5.98,2.01-1.73.24-4.48-1.32-6.77.1-1.71-3.98-5.82-5.77-8.33-8.39-.65-.68-.56-2.54-1.75-3.73-2.24-2.24-6.23-1.22-5.58-6.95l-2.98,1.01c-2.13-7.74.62-16.92-1.21-24.3-1.12-4.51-2.55-8.54-3.57-13.44-1.26-6.08-4.52-10.62-5.17-15.82-.82-6.68,1.01-13.86.95-19.45,3.95-.23,2.55-.31,2.96,2.49,1.04,7.11,2.13,10.01,3.82,16.22,2.07,7.62-1.75,13.83.23,21.29l2.98-1.01c-.85,6.33,4.22,4.76,5.76,6.27.55.54.43,2.42,1.19,3.26,2.17,2.41,5.86,4.01,7.25,7.33,4.64.37,16.21-2.34,19.4.07.94.71,1.03,2.98,2.05,3.14,1.55.24,6.79-1.06,9.22-.17.55-2.46,3.71-10.96,6.61-10.96,1.26,0,4.59,4.15,4.96,5.1,1.86,4.73-2.17,6.58,5.87,6.59,5.38,0,19.6-1.34,22.16-6.61,1.19-2.45-.04-5.18.46-7.32.1-.43,5.9-5.64,6.33-5.57,1.49.27,2.59,3.29,6.02.95,1.81-1.24,1.65-5.81,2.9-6.84,4.19-3.47,4.19,1.52,9.43-8.01.55-1.01,2.15-1.14,2.31-1.92,1.18-5.88,3.2-17.02,2.92-22.86-.1-2.08-2.75-3.4-2.8-5.91-.07-3.7,5.22-12.17,5.53-18.19.28-5.47-.8-12.84-.68-18.89,1.02-52.32,0-104.1,0-156.99,0-29.4.11-59.83.08-88.92-.04-49.92.01-99.81,0-149,0-32.5,3.07-73.76-.05-105.03-.66-6.61-5.43-12.46-5.99-15.22-.17-.86.24-16.49.47-17.33.6-2.12,2.84-4.01,3.28-5.7,2.3-8.93-6.02-33.37-10.91-41.6-4.26-7.16-8.79-10.38-14.37-15.59-2.55-2.39-3.31-6.7-7.46-6.07v24.5c0,.65-2.14,1.92-3,1.5v-23.5c0-.24-1.95-4.19-2.14-4.35-.85-.76-4.54.28-6.17-.12-.76-.19-3.56-3.09-9.31-3.9-9.14-1.29-10.52,1.49-15.92,1.84-4.44.28-9.65-2.47-15.22-.28-.52.21-4.9,4.71-5.47,5.03-1.22.67-3.13.03-4.69.82-6.53,3.32-9.6,10.28-13.99,14.8-.91.94-2.52.46-2.82.84-2.95,3.62-5.28,14.24-6.9,18.62-.42,1.13-5.31,5.41-5.34,5.8-.05.78,1.05,2.27.95,3.8-.16,2.4-1.7,4.3-1.92,5.61Z"/>
      <path class="cls-2" d="M603.59,790.04c.91,9.83.42,16.07-1.24,26.26-.66,4.06-3.55,5.87-3.72,6.46-.65,2.26.04,7.2-1.56,9.28-.35.45-5.69,2.98-6.32,4.18-.54,1.02,1.63,3.2.43,4.86s-5.25.62-5.58.95c-.4.4.55,4.15-.09,4.91-.2.24-3.88.63-5.14,1.16-.72.3-.75,1.79-1.41,1.93-4.51.93-4.69-2.42-4.34-6.01-8.35-.43-6.26,4.73-8.55,8.98-.18.34-4.2,4.2-5.29,5.7-.72.99-1.03,3.19-1.18,3.3-1.59,1.16-4.41-2.54-6.34-1.93-1.24.39-1.54,2.66-2.67,3.41-1.49.99-4.11.63-5.32,1.46-1.38.94-5.72,15.15-11.27,15.81-1.33.16-2.76-.94-3.74-.79-.7.1-.47,3.59-2.58,2.05-.1-.07.28-1.76-.66-1.99-2.74-.68-5.65,1.65-7.04-1.96-10.12,1.48-16.61-7.46-25.14-11.2-1.07-5.14,5.99-16.34.02-18.71-10.44-4.14-7.19,13.7-15.36-2.42-5.36-10.57-9.4-24.1-9.88-36.17-.3-7.64.63-14.6.88-22,.12-3.53-1.73-9.28-1.71-12.91.04-6.57,2.93-14.28,1.98-21.18-.26-1.92-2.07-1.35-2.1-2-.18-3.74,2.41-8.45,3.98-11.15,3.42-5.87-2.7-4.66-3.03-5.88-.24-.88-.53-8-.55-9.73-.09-7.7,2.52-15.75-.39-23.16,5.83-.26,1.02-4.21,1.14-8.05.08-2.44,2.64-4.66,2.92-7.96s-1.43-6.6-1.12-8.99c.37-2.91,4.93-1.31,2.52-7.46s-5.79-10.28-5.56-18.58c.05-1.89,2.09-.99,2.22-2.92.46-6.73-2.04-19.35-2.15-27-.3-19.93.27-42.02.94-61.93.63-18.52-.27-36.79.09-55.12.34-17.32.24-33.9.05-51.04-.06-5.52-2.66-13.99-.37-19.25.67-1.54,2.23-1.13,2.3-1.24.31-.51-1.97-2.48-1.78-4.31.18-1.7,2.54-3.19,2.85-5.2.28-1.82-1.74-1.13-2.01-2.15-.22-.84-1.16-8.09-1.08-8.63.12-.77,1.86-.69,2.35-1.87,2.97-7.12-3.06-13.29-3.22-19.4-.21-7.99-.74-25.58.23-32.73.39-2.88,3.99-7.19,3.78-11.18-.16-3.14-2.62-3.59-3.09-6.01-1.91-9.83-.22-24.87.03-35.03.7-29.15-1.07-59.47.31-88.81.06-1.18.64-3.61,1.14-4.66,1.47-3.06,1.36,1.84,2.49,1,3.75-7.61-2.58-7.98-2.94-9.72-.78-3.75.85-7.62.64-10.64-.11-1.62-1.41-3.35-1.61-5.22-.35-3.36,4.16-30.36,5.26-34.97.31-1.3,2.54-1,2.73-2.1.15-.89-.91-2.47-.77-3.71.26-2.37,1.91-3.6,2.49-5.41.36-1.13-.83-2.64-.6-3.08,1.73-3.34,10.02-9.35,12.8-12.92,5.88-7.54,3.52-9.08,12.88-14.89,4.67-2.9,9.44-3.16,9.9-3.48.72-.49.51-2.83,2.92-3.65,6.13-2.07,12.82.08,18.5-.48,3.13-.31,5.99-2.33,7.47-2.54,1.19-.18,2.32,1.53,3.84,1.77,13.05,2.01,24.38,8.59,33.99,16.99,14.63,12.78,23.42,43.27,25.47,63.5.15,1.49,1,6.43-2.05,5.55-.2-1.12-4.41-11.12-5.28-13.22-1.04-2.51-8.88-18.56-9.71-19.28-.71-.62-2.5-.57-3.54-1.5-11.75-10.45-20.9-17.2-37.13-19.82-1.2-.19-2.38,1.63-3.84,1.78-16.44,1.74-18.45-.88-33.18,8.05-7.21,4.37-4.01,2.8-8.4,8.33-6.88,8.66-10.66,10.2-15.83,20.98-.32.66-1.78.7-1.83.83-.21.54,1.36,3.26.88,5.16-.26,1.01-2.17.85-2.67,2.13-.68,1.76-.08,8.42-.47,10.98-1.61,10.6-5.98,24.01-2.72,34.87.66,2.21,4.21,2.92,3.88,6.19-.3,2.95-2.88,1.85-3.82,2.76-1.82,1.74-.05,6.86-.22,9.2-1.09,15.21-1.05,26.84-.99,42.09.02,5.68.87,7.6,1.06,11.94s-2.03,9.57-2.16,14c-.33,10.79-.14,22.27-.03,33.02.05,5.26,4.08,10.13,3.95,14.05-.1,2.79-3.29,6.22-3.55,8.12-.78,5.73-.65,24.54-.27,30.79.21,3.5,4.37,9.08,4.05,14.07-.21,3.27-2.87,3.79-3.1,5.99-.28,2.61,2.2,6.14,1.98,8.94-.26,3.33-2.54,9.61-3.02,12.99-.71,4.91,1.1,9.48,1.13,14.04.09,14.19.2,27.98-.02,42.02-.39,26.06,0,51.77-.02,77.95,0,10.76-1.11,21.32-1.09,32.09,0,4.06,2.17,26.26.77,28.25-.38.55-2.22-.56-1.74,1.7.2.93,1.94.18,2.09,1.11.19,1.22-1.08,3.3-1.13,4.95-.19,6.6,4.9,6.58,5.15,8.94.54,5.05-2.59,5.21-3.13,8.07-.58,3.07,2.01,2.29,2.05,3.01.26,5.08-4.79,10.17-4.02,13.74.16.77,1.58.79,1.96,1.42,2.78,4.58-1.28,2.86-1.89,4.88-.33,1.09.93,4.01.98,5.85.14,5.2-1.15,19.29-.11,22.93.31,1.1,2.81.55,3.64,1.54,1.82,2.17-1.92,5.41-2.76,7.38-2.71,6.37.74,9.96.28,16.2-1.05,14.43-2.09,30.94-.96,45.87.66,8.74,6.05,27.67,11.41,34.57,4.95,6.36,4.61-7.43,12.41-1.42,4.48,3.44-.93,11.37-.89,16.34l18.63,10.95c4.04-1.72,5.57.8,8.76,1.23,10.24,1.36,11.41.96,17.47-7.55,1.21-1.7,1.37-4.3,2.26-5.25s3.64-1.23,4.99-2.29c4.2-3.26,1.37-6.02,8.74-.95-.43-3.81,4.77-6.69,5.71-8.29,2.33-3.97.67-8.98,9.29-8.72.36.39-1.01,6.4,2.34,5.88.37-.06,6.43-3.07,6.69-3.34,1.46-1.47.69-4.18.99-4.5.48-.49,4.62.34,4.97-.03.23-.25-.25-3.08.02-4.29.15-.65,4.96-3.98,5.78-5.42,2.1-3.71-.41-7.72,4.19-10.3Z"/>
      <path class="cls-2" d="M846.41,161.04c2.33-9.31,5.95-19.04,10.57-26.88,2.93-4.96,9.38-8.46,13.94-12.14,2.36-1.91,13.02-9.6,14.21-11.31.52-.75.02-4.61,2.25-2.67.22.19-.23,1.77.01,1.98,2.23,1.92,1.84-2.62,2.96-3.49,1.61-1.25,6.21-.96,8.29-1.56,1.09-.31.26-1.94,2.23-1.96s1.25,1.55,2.25,1.95c1.92.77,14.6,2.19,16.66,2.09.31-.01.61-3.31,5-2.08.4.11,1.16,3.89,2.9,4.68,2.64,1.19,6.59.86,9.04,2.49.83.55,8.7,6.49,9.08,6.93.95,1.08,1.1,3.31,1.74,3.75.76.52,2.75.15,4.33,1.14,3.45,2.15,4.68,9.96,5.71,10.87.56.5,2.26-.31,2.76.84s.35,3.71,1.04,5.59c3.26,8.81,8.02,18.55,8.87,28.32,2.39,27.56-.49,56.77,0,84.98.74,41.85-.56,84.69-.58,126.79-.06,103.27-.66,209.11.62,312.18.06,4.49-.02,9.01,0,13.49-7.89,1.5-4.44-9.88-5.01-15.49-.73-7.18-1.53-11.52-1.93-18.98-.23-4.37-3.44-7.54-3.99-11.1-1.49-9.66-1-21.71-2.18-31.82-.46-4-2.45-7.59-2.91-11.09-.76-5.76.05-14.64-.96-20.04-.47-2.54-1.79-2.65-4-2.5-.06-87.43,1.24-173.78-.9-260.39-.47-19.08,1.98-41.77,1.86-61.07-.14-22,1.81-44.76.15-66.15-1.48-19.03-3.45-27.67-12.95-44-1.63-2.81-2.25-7.37-5.21-8.86-1.18-.59-3.04-.25-3.72-.73-.73-.51-.55-2.63-1.44-3.56-.83-.87-4.14-1.63-5.75-2.78-1.37-.98-1.69-2.89-2.7-3.52-1.79-1.11-5.61-1.31-8.22-2.56-2.38-1.14-4.31-4.31-4.62-4.38-1.08-.22-2.15,1.71-3.73,1.75-5.45.15-13.19-2.49-17.17-2.64-.5-.02-9.34,1.67-9.86,1.85-1.26.44-.56,2.83-1.61,3.62-.59.44-2.03-.74-2.81-.39-.65.29-6.71,6.88-8,7.81-2.86,2.07-8.67,4.61-10.94,6.29-1.74,1.29-1.35,5.95-5.29,4.71Z"/>
      <path class="cls-2" d="M958.87,849.6c-2.98,5.75-3.93,5.55-7.55,9.92-1.32,1.59-2.66,5.9-3.22,6.29-.27.19-5.91,2.11-6.31,2.17-2.49.38-9.51.06-11.65-.98-1.51-.73-2.62-5.63-5.64-3.79-.64.39.05,2.94-3.64,2.94-3.39,0-4.02-3.77-7.49-3.12.2,3.03.27,5.28-2.62,6.89-1.58.88-11.79,3.21-13.82,3.14-5.5-.2-16.02-4.19-20.47-7.6-9.82-7.52,6.07-2.64,9.44-2.45,34.68,2.03,57.34-17.49,77.87-42.04,2.23-2.67,5.93-2.22,4.56-7.94,1.73.17,1.18,5.47,1.02,6.53-1.57,10.26-5.67,20.76-10.48,30.03Z"/>
      <path class="cls-2" d="M409.74,143.04c.31,1.64-.15,3.88.93,5.38.58.82,2.11.5,2.66,1.01,4.12,3.84,3.8,5.24,4.41,10.61-3.86-.31-4.86-5.76-6.6-7.89-2.87-3.5-12.68-7.73-1.39-9.11Z"/>
      <path class="cls-2" d="M1112.21,790.04c5.66-.9,3.85,1.47,3.99,6l-3.99-1c.06-1.65-.14-3.36,0-5ZM1113.71,792.04v1c.65-.33.65-.67,0-1Z"/>
      <path class="cls-2" d="M1112.21,766.04h3.99c.37,2.01-1.15,2.96-2.99,3-.27-1.14-.8-2.15-1-3Z"/>
      <path class="cls-2" d="M379.75,96.04c-2.27-.6-2.08-3.14-1.98-5,2.27.6,2.08,3.14,1.98,5Z"/>
      <path class="cls-2" d="M1120.21,717.04c2.29-.69,2.59,1.23,2.04,3.39-.29,1.12-1.89.46-2.04.61v-4Z"/>
      <path class="cls-2" d="M1116.21,748.04c-.34,6.51-2.2,5.61-2,0,.67-.02,1.33.01,2,0Z"/>
      <path class="cls-2" d="M1114.21,723.04c.17-.99-.54-2.81.51-3.01,2.22-.41,1.42,1.02,1.49,3.01h-2Z"/>
      <path class="cls-2" d="M1119.21,723.04c.01.17,2.14,2.7.49,3.01-2.22.41-1.42-1.03-1.49-3.01h1Z"/>
      <path class="cls-2" d="M423.72,410.05c.31,1.38-.54,2.66-1.98,2.99v-2.99s1.98,0,1.98,0Z"/>
      <path class="cls-2" d="M420.73,414.04c.34.23,1.79-.23,1.99,0,.89,1.02-.96,1.89-1,1.99l-1-2Z"/>
      <path class="cls-2" d="M238.86,553.04c5.86,1.13.21,1.82,0,2,.04-.66-.06-1.34,0-2Z"/>
      <path class="cls-2" d="M865.39,856.05c1.09,1.09-.9,3.08-1.99,1.99s.9-3.08,1.99-1.99Z"/>
      <path class="cls-2" d="M1121.21,706.04c0,.05.78-.19.99.51.71,2.37-1.77,1.21-1.99,1.49l1-2Z"/>
      <path class="cls-2" d="M1116.2,781.04c-.35.68-1.7-.59-.98-1.99.35-.68,1.7.59.98,1.99Z"/>
      <path class="cls-2" d="M237.86,558.04l-.99-.5.99-1.5c-.09.26-.08,1.84,0,2Z"/>
      <path class="cls-1" d="M1113.71,792.04c.65.33.65.67,0,1v-1Z"/>
    </g>
  </g>
</svg>