<svg width="64" height="63" viewBox="0 0 64 63" fill="none" xmlns="http://www.w3.org/2000/svg">
<path d="M41.1554 15.5903L51.1036 19.3384C53.3063 20.5013 54.2504 23.1453 53.5026 25.4868L49.9483 34.9546C54.7564 36.6261 55.3956 43.1409 51.2178 45.9889C49.4752 47.1775 47.5425 47.2755 45.5572 46.6547C42.9733 45.8476 40.4076 44.6004 37.8235 43.7514C40.1016 37.7072 42.3583 31.6505 44.6354 25.606C42.5219 24.8114 40.4015 24.02 38.2888 23.2235C39.1373 20.6709 40.3431 18.1428 41.1548 15.5889L41.1554 15.5903Z" fill="#59FD53" stroke="#0A0A0A" stroke-width="1.72293"/>
<path d="M41.1559 15.5905C40.3442 18.1444 39.1384 20.6725 38.2899 23.225C32.2794 20.9597 26.258 18.7083 20.2446 16.4508L12.5109 13.5476C13.8917 9.96863 14.7726 6.69408 19.4922 7.45905L29.4568 11.1998C31.3932 5.6348 39.3909 5.80682 41.2596 11.3907C41.7368 12.8165 41.6062 14.177 41.1569 15.5909L41.1559 15.5905Z" fill="#59FD53" stroke="#0A0A0A" stroke-width="1.72293"/>
<path d="M20.244 16.4507C22.2141 19.7547 23.7771 23.0553 23.5216 27.0115C23.0948 33.6239 18.7338 38.4846 12.5954 40.4472L11.0518 40.9401C12.9322 41.6505 14.8209 42.3539 16.702 43.0623L13.836 50.6969C10.6265 49.483 7.39703 48.3102 4.20429 47.0517C2.33625 45.7962 1.43255 43.5508 2.06437 41.3615L5.54901 32.0881C8.06091 33.2166 11.7522 32.6589 13.6307 30.5959C17.1832 26.6954 14.8461 21.1358 10.2757 19.4971C11.0333 17.5212 11.7484 15.5227 12.5094 13.5471L20.2431 16.4503L20.244 16.4507Z" fill="#59FD53" stroke="#0A0A0A" stroke-width="1.72293"/>
<path d="M45.5571 46.6547C44.3009 49.5791 43.4446 52.8425 42.1538 55.7324C41.0347 58.2376 38.9935 59.6761 36.1961 59.0942C28.7494 56.2761 21.2817 53.5112 13.8353 50.6954L16.7013 43.0609C22.9438 45.4134 29.1984 47.7455 35.4416 50.096C36.2362 47.9825 37.0276 45.8622 37.8241 43.7495C40.4082 44.5985 42.9739 45.8456 45.5578 46.6527L45.5571 46.6547Z" fill="#59FD53" stroke="#0A0A0A" stroke-width="1.72293"/>
</svg>
