<svg width="44" height="44" viewBox="0 0 44 44" fill="none" xmlns="http://www.w3.org/2000/svg">
<path d="M43.1088 22.6221L43.0736 22.7413C43.0782 22.7255 43.0707 22.7417 43.0726 22.8506C43.0737 22.9129 43.0752 22.9451 43.0775 23.0323L43.0756 23.2891C42.5439 32.8644 34.7175 41.0849 25.2582 42.2842L25.2445 42.2852L25.2318 42.2872L23.1927 42.4815L23.1381 42.4864L23.0834 42.4844C22.8779 42.4779 22.6683 42.482 22.4301 42.4864C22.3148 42.4885 22.1925 42.491 22.0668 42.4913L21.681 42.4844C15.6743 42.2309 10.0579 39.4245 6.29724 34.7774L5.93884 34.3223C3.56641 31.2169 2.12127 27.4581 1.78455 23.5538L1.70447 22.6182H28.016V21.0167H1.70935L1.78455 20.086C2.50284 11.1528 9.13922 3.60364 17.8597 1.66608L18.4525 1.54303C30.882 -0.850728 42.6994 8.37208 43.1088 21.1085V22.6221Z" fill="#59FD53" stroke="#0A0A0A" stroke-width="1.72293"/>
</svg>
