<svg width="48" height="37" viewBox="0 0 48 37" fill="none" xmlns="http://www.w3.org/2000/svg">
<path d="M20.3758 35.6697C10.3831 35.9859 1.82493 28.873 1.30387 19.4237L1.30332 19.4229L1.28545 18.9743C1.02537 9.56923 8.91484 1.69897 18.953 1.14739L18.9527 1.14875C23.0786 0.920202 27.3578 1.48883 31.2679 2.68184L32.9344 3.18993L32.8977 3.22456C36.4785 4.50922 39.7101 6.33727 42.1202 8.59631C44.5239 10.8494 46.1588 13.578 46.4178 16.64L46.4393 16.9368C46.7127 21.8978 43.6781 26.412 39.0111 29.7198C34.3268 33.0396 27.8563 35.2626 20.8531 35.6488L20.3758 35.6697Z" fill="#59FD53" stroke="#0A0A0A" stroke-width="2"/>
</svg>
