<svg width="46" height="46" viewBox="0 0 46 46" fill="none" xmlns="http://www.w3.org/2000/svg">
<path d="M39.546 11.0263L30.8232 11.9956C28.2026 12.2806 25.5634 12.519 22.95 12.8518C22.6296 12.8929 22.3021 12.9161 21.9752 12.9454L21.964 12.9467L21.2117 13.0409C20.3809 13.183 19.2687 13.4964 18.5066 13.8524C13.8571 16.0206 11.7461 21.3921 13.1599 26.2489C13.3695 26.9679 13.78 27.5937 13.9751 28.3122C12.7792 26.7434 11.626 25.1111 10.4538 23.5222C8.36776 20.6939 6.37469 17.7882 4.12117 14.9326C6.55482 9.36051 11.3311 5.15172 17.1661 3.43807C20.1738 2.55539 23.3446 2.37196 26.4347 2.90288C31.6945 3.80619 36.396 6.71939 39.546 11.0263Z" fill="#59FD53" stroke="#0A0A0A" stroke-width="1.72293"/>
<path d="M23.835 31.2428C28.2985 30.7574 31.5234 26.7455 31.0379 22.282C30.5525 17.8186 26.5407 14.5937 22.0772 15.0791C17.6137 15.5646 14.3889 19.5764 14.8743 24.0399C15.3597 28.5034 19.3716 31.7282 23.835 31.2428Z" fill="#59FD53" stroke="#0A0A0A" stroke-width="1.72293"/>
<path d="M42.9624 27.8725C42.3855 30.321 41.3644 32.6429 39.9487 34.7223C36.5778 39.6773 31.2126 42.9135 25.258 43.5838C26.9341 39.5415 28.7468 35.6043 30.4575 31.6223C30.6053 31.2793 30.8512 30.9143 30.9847 30.6007C31.2508 29.9748 31.4482 29.2881 31.7048 28.6602C32.3767 27.0186 33.1331 25.697 33.2494 23.8365C33.2547 23.7428 33.2186 23.6298 33.216 23.5298C33.3616 23.4415 33.2853 23.2439 33.2738 23.1096C32.8898 18.5226 30.4704 14.6267 25.8948 13.3086C24.9347 13.0323 23.9393 12.9553 22.9504 12.8518C25.5638 12.519 28.2029 12.2806 30.8236 11.9956L39.5464 11.0263C40.9415 12.9334 41.9969 15.0657 42.6664 17.3311C43.6797 20.7592 43.782 24.393 42.9624 27.8725Z" fill="#59FD53" stroke="#0A0A0A" stroke-width="1.72293"/>
<path d="M31.7046 28.6602C31.448 29.2882 31.2506 29.9749 30.9845 30.6008C30.851 30.9143 30.6051 31.2793 30.4572 31.6224C28.7466 35.6043 26.9339 39.5415 25.2578 43.5839C20.2926 44.1435 15.293 42.8746 11.1945 40.0158C7.27489 37.2804 4.43185 33.266 3.15194 28.6606C1.88827 24.1092 2.23009 19.2612 4.12132 14.9327C6.37484 17.7883 8.36791 20.6939 10.454 23.5222C11.6262 25.1111 12.7793 26.7435 13.9752 28.3122C15.7103 30.5869 17.3956 32.3559 20.2906 33.1087C23.7976 34.0196 27.8327 32.9372 30.3332 30.3105C30.8142 29.8051 31.1809 29.1341 31.7046 28.6602Z" fill="#59FD53" stroke="#0A0A0A" stroke-width="1.72293"/>
<path d="M33.2156 23.5294C33.2114 23.3955 33.1228 23.1994 33.2733 23.1096C33.2849 23.2448 33.3612 23.4423 33.2156 23.5294Z" fill="#59FD53" stroke="#0A0A0A" stroke-width="1.72293"/>
</svg>
