<svg width="211" height="211" xmlns="http://www.w3.org/2000/svg" viewBox="0 0 211.05 211.05">
  <defs>
    <style>
      .cls-1 {
        fill: #111;
      }

      .cls-2 {
        opacity: .4;
      }

      .cls-2, .cls-3, .cls-4 {
        fill: #141414;
      }

      .cls-5 {
        fill: #1e1e1e;
      }

      .cls-4 {
        opacity: .65;
      }

      .cls-6 {
        fill: #59fd53;
      }
    </style>
  </defs>
  <g>
    <g>
      <g>
        <path d="M165.37,132.49c1.08,2.31,2.84,4.76,4.57,7.17,2.77,3.87,5.5,7.62,5.36,10.5-.38,8.1-4.9,17.67-22.86,18.17-17.96.51-28.93,10.31-36.56,23.61-7.64,13.28-21.77,9.95-23.55-14.66-.69-9.55-8.11-16-18.9-12.2-17.01,6-27.86,35.05-45.7,17.06-1.97-2-3.18-4.07-3.78-6.2-.42-1.47-.54-2.95-.43-4.44v-.03c.72-9.36,10.7-18.63,15.26-23.27.46-.46.88-.94,1.28-1.42,10.68-12.97,3.1-34.86-4.5-39.83-7.89-5.15-30.57-10.3-31.96-38.99-.8-16.43,9.49-28.86,22.6-33.54.01,0,.01-.01.02-.01,7.88-2.81,16.77-2.84,24.89.74,1.97.87,3.91,1.96,5.76,3.27,22.23,15.68,31.98,2.04,27.52-10.09s.12-32.15,16.28-24.33c16.16,7.82,5.21,23.26,9.45,28.19,4.25,4.93,14.34,4.9,22.69-8.5,3.63-5.85,10.17-14.59,17.49-19.66.43-.3.84-.58,1.27-.84.02-.01.04-.03.06-.05,1.75-1.09,3.53-1.95,5.34-2.49.02-.01.04-.02.06-.01,1.79-.54,3.61-.77,5.39-.58,5.74.56,11.28,5.29,15.68,17.07,13.3,35.59-27.54,43.03-17.93,55.93.88,1.17,1.83,2.08,2.86,2.76t.02.01c4.66,3.11,10.74,1.79,17.5,1.48,8.08-.38,17.12.64,25.77,12.36,17.51,23.67-18.1,27.03-35.44,32.25-7.31,2.2-7.61,6.13-5.52,10.54Z"/>
        <path class="cls-5" d="M137.16,209.06c-17.77,5.63-22.29-1.48-18.39-11.45.02-.06.04-.1.04-.12.01-.01.01-.02.02-.05,2.98-7.46,10.64-16.49,20.97-22.95,9.55-5.97,14.71-2.99,16.06,3.26,2.06,9.61-4.88,26.94-18.71,31.32Z"/>
        <path class="cls-5" d="M166.44,186.41c8.04,3.29,11.9-5.29,1.64-9.5-9.8-4.03-10.78,5.76-1.64,9.5Z"/>
        <path class="cls-1" d="M8.63,143.09c13.41,14.28,34.09-3.92,14.37-22.41-19.72-18.49-32.32,3.3-14.37,22.41Z"/>
        <path class="cls-5" d="M182.75,64.09c-8.79,2.89-9.64-.23-7.7-4.58,1.27-2.84,3.72-6.21,5.94-8.79,1.37-1.58,2.71-1.79,3.85-1.15h.01c3.54,1.99,4.94,12.22-2.11,14.52Z"/>
        <path class="cls-1" d="M137.16,209.06c-17.77,5.63-22.29-1.48-18.39-11.45-.38,1.28-2.34,9.52,12.03,7.78,15.61-1.91,26.19-17.82,25.08-27.5-.01-.05-.01-.09-.01-.14,2.06,9.61-4.88,26.94-18.71,31.32Z"/>
        <path class="cls-4" d="M134.99,178.3c-8.06,7.17-1.39,15.02,9.98,5.09,11.36-9.93,1.95-15.71-9.98-5.09Z"/>
        <path class="cls-4" d="M124.01,191.14c-7.36,5.05-2.99,14.46,2.79,8.61,5.79-5.85,7.38-15.6-2.79-8.61Z"/>
        <path class="cls-3" d="M129.8,205.37c.04.17,4.62.29,12.97-3.7s11.74-14.95,10.65-12.96-6.59,10.78-11.71,12.76-12.51,1.13-11.91,3.89Z"/>
        <path class="cls-3" d="M164.13,176.78c-3.8,1.29-1,3.32,3.64,4.76,2.73.85,4.8.4,4.45-.78-.61-2.08-5.67-4.81-8.1-3.98Z"/>
        <path class="cls-5" d="M151.58,3.2c-.53.43-.95.7-1.27.84.43-.3.84-.58,1.27-.84Z"/>
        <path class="cls-1" d="M175.3,150.15c-.13,2.78-.75,5.73-2.23,8.43-.03.06-.07.11-.1.17-2.87,5.09-8.86,9.24-20.53,9.57-17.96.51-28.93,10.31-36.56,23.61-7.64,13.28-21.77,9.95-23.55-14.66-.69-9.55-8.11-16-18.9-12.2-11.1,3.92-19.57,17.63-29.08,21.71h-.01c-5.06,2.18-10.42,1.6-16.62-4.65-1.97-2-3.18-4.07-3.78-6.2-.23-2.07-.35-3.58-.41-4.19.51,2.84,7.23,18.08,18.28,7.56,11.49-10.94,24.97-27.74,31.16-35.75,6.18-8,23.83-30.55,28.61-10.59,4.79,19.96.05,46.85,11.89,38.3,11.83-8.55,16.89-18.86,32.1-15.97,15.21,2.9,33.14,1.21,24.35-15.65,2.77,3.87,5.5,7.62,5.36,10.5Z"/>
        <path class="cls-1" d="M170.89,121.95c-7.31,2.2-7.61,6.13-5.52,10.54-8.21-10.91-16.49-14.59-3.03-23.25,11.72-7.53,53.97-4.69,40.24-22.88-.33-.44-.67-.87-1.01-1.28-6.16-7.2-13.63-7.85-21.01-7.75,8.08-.38,17.12.64,25.77,12.36,17.51,23.67-18.1,27.03-35.44,32.25Z"/>
        <path class="cls-5" d="M172.97,158.75c-2.87,5.09-8.86,9.24-20.53,9.57-17.96.51-28.93,10.31-36.56,23.61-7.64,13.28-21.77,9.95-23.55-14.66-.69-9.55-8.11-16-18.9-12.2-11.1,3.92-19.57,17.63-29.08,21.71,1.73-.89,19.81-20.26,27.03-29.08,7.24-8.84,18.49-14.23,22.51,2.57,4.02,16.82-1.41,34.14,9.45,35.77,10.85,1.64,15.9-24.01,28.04-29.22,12.15-5.2,33.82,4.94,41.57-8.08Z"/>
        <path class="cls-1" d="M40.07,146.77c.84-1.02,1.57-2.1,2.18-3.22.12-.19.22-.38.32-.59,0-.01.01-.02.02-.03,6.75-13.06-.13-31.49-7.02-35.99-7.89-5.15-30.57-10.3-31.96-38.99-.2-4.16.3-8.07,1.4-11.65h0c3.2-10.59,11.41-18.39,21.21-21.89-9.93,5.58-18.48,15.46-9.97,34.71,8.52,19.25,29.4,4.49,33.79,35.75,4.4,31.26-8.43,39.75-9.98,41.89Z"/>
        <path class="cls-5" d="M42.59,142.94c6.75-13.06-.13-31.49-7.02-35.99-7.89-5.15-30.57-10.3-31.96-38.99-.2-4.16.3-8.07,1.4-11.65-4.1,38.02,23.7,27.13,37.24,47.09,12.67,18.68,2.58,35.62.34,39.53Z"/>
        <path class="cls-1" d="M131.4,71.98c5.55,14.18-18.87,22.38-13.93,8.45,4.93-13.94.47-27.12-10.17-34.23-10.62-7.11-9.65,25.57-26.89,11.64-17.24-13.94-27.69-21.92-29.46-22.22,0,0,.06-.16.17-.46,1.97.87,3.91,1.96,5.76,3.27,22.23,15.68,31.98,2.04,27.52-10.09s.12-32.15,16.28-24.33c16.16,7.82,5.21,23.26,9.45,28.19,4.25,4.93,14.34,4.9,22.69-8.5,3.63-5.85-14.01,16.13-1.42,48.29Z"/>
        <path class="cls-5" d="M174.23,22.61c-1.3-17.24-9.89-23.28-17.24-21.96,7.57-2.28,15.29,1.05,21.06,16.5,13.3,35.59-27.54,43.03-17.93,55.93.88,1.17,1.83,2.08,2.86,2.76-2.49-1.05-4.8-2.73-6.82-5.41-11.64-15.44,19.69-25.99,18.06-47.83Z"/>
        <path class="cls-5" d="M87.28,9.23c-6.43,9.44-1.93,20.24,4.86,9.17,6.79-11.08,2.68-20.24-4.86-9.17Z"/>
        <path class="cls-4" d="M150.95,6.03c-17.75,12.7,1.47,43.26,9.17,28.38,7.7-14.88,11.31-43.03-9.17-28.38Z"/>
        <path class="cls-4" d="M29.2,38.41c-25.33,4.94-7.46,25.81,19.31,33.83,10.04,3.01,16.45,7.38,19.43,12.83,9.06,16.58-8.86,29.51-6.71,34.15,6.86,14.76,34.55-16.48,22.94-23.3-13.32-7.82,5.85-17.57-2.03-23.68-7.88-6.11-18.48-40.54-52.94-33.83Z"/>
        <path class="cls-3" d="M38.27,152.99c-11.47,10.64-15.42,26.87-4.11,19.27,11.31-7.6,17-31.22,4.11-19.27Z"/>
        <path class="cls-4" d="M176.84,79.68c-27.36,4.81-2.18,17.34,13.53,13.29,15.71-4.05,12.12-17.79-13.53-13.29Z"/>
        <path class="cls-4" d="M112.64,139.66c-1.12,12.35-2,28.45,4.83,19.09,6.83-9.36,15.71-17.57,26.18-15.19,10.47,2.39,4.72-14.61-6.8-20.43-11.52-5.82-22.49-2.37-24.2,16.53Z"/>
        <path class="cls-3" d="M146.23,155.18c0,1.89,15.55,5.01,21.48,1.4,2.4-1.46,3.45-3.76,4.11-5.42,1.81-4.55-.56-8.58-1.32-5.59-1.94,7.62-6.26,10.4-10.82,10.19-5.67-.26-13.46-2.88-13.45-.58Z"/>
        <path class="cls-3" d="M39.99,41.82c-17.28.39-2.87,6.17,8.52,8.76,11.39,2.59,2.87-9.02-8.52-8.76Z"/>
        <path class="cls-3" d="M63.7,56.31c-5.66-3.13-3.25,4.68,2.56,7.27,5.81,2.59,3.95-3.66-2.56-7.27Z"/>
        <path class="cls-4" d="M97.41,64.2c-5.28,10.1,16.97,3.4,12.09-4.31-4.88-7.7-7.67-4.15-12.09,4.31Z"/>
        <path class="cls-3" d="M91.13,5.87c-5.64,4.27-1.72,9.64,1.43,4.8,3.02-4.63.6-6.34-1.43-4.8Z"/>
        <path class="cls-4" d="M4.75,118.18c-3.41,5.46,14.55,20.88,19.77,17.31,8.56-5.86-11.98-29.81-19.77-17.31Z"/>
        <path class="cls-3" d="M16.25,69.13c3.14.18,6.74,8.78,17.04,12.85,10.29,4.07,15,11.22,13.3,10.71-1.69-.51-6.36-5.9-15.46-7.61-9.1-1.72-17.58-16.1-14.88-15.95Z"/>
        <path class="cls-3" d="M48.17,96.19c-.18-3.68,3.25,4.39,4.22,8.53,1.07,4.56-.62,9.79-1.3,9.04-.55-.6-.35-4.4-.78-8.02-.63-5.34-2-6.76-2.14-9.55Z"/>
        <path class="cls-3" d="M172.65,105.11c-5.45,3.72.22,4.14,12.74,1.34,12.53-2.79,21.01-10.95,16.54-8.41-4.95,2.82-14.06,5-21.19,6.28-4.22.75-7.08.09-8.1.79Z"/>
        <path class="cls-3" d="M185.04,80.34c-10.29.16-3.88,8.41,1.82,7.29,5.7-1.12,10.36-7.47-1.82-7.29Z"/>
        <path class="cls-3" d="M136.43,132.32c-8.07,3.58,12.69,9.28,9.07,5.25-3.62-4.03-2.83-8.01-9.07-5.25Z"/>
        <path class="cls-2" d="M103.4,101.08c-8.03,7.11-7.02,26.37,3.91,17.99,10.93-8.38,31.93-.93,26.02-9.31-5.91-8.38-19.43-17.99-29.93-8.69Z"/>
        <path class="cls-5" d="M182.75,64.09c-8.79,2.89-9.64-.23-7.7-4.58-.28,3.23,4.25,5.95,8.76.64,5.27-6.21,1.03-10.59,1.03-10.59h.01c3.54,1.99,4.94,12.22-2.11,14.52Z"/>
        <path class="cls-3" d="M181.79,50.9c-4.21,3.29-4.31,8.69-1.04,6.49s5.09-9.64,1.04-6.49Z"/>
      </g>
      <path class="cls-6" d="M121.58,114.7c.02.13.18.19.41-.07.17-.67.58-.54,1.13-.18.46-.18,1.05-.17,1.68-.27.27-.34.64-.16,1-.16.35-.05.81.51,1.08-.17.38-.02.78.06,1.11-.34.39-.06.79-.06,1.19-.02.75-.33,1.59-.21,2.37-.37.25.06.52.27.7-.11.26.12.5.21.69-.11.23,0,.46-.01.7.08.26.21.38-.43.62-.29.2-.1.38-.32.61-.14.23.17.39-.12.61.03.36-.17.72-.21,1.05-.25.25-.56.69.32.9-.09.22-.29.54.2.67-.16.35-.21.65.32.59-.09-.03-.16-.07.51-.27.74-.05.42-.21.37-.3.79-.09.45-.35-.09-.36.97-.02.44-.05.83-.16.72-.07.15-.12.42-.22.36,0,.56-.09.6-.16.76-.04.37-.2-.09-.24.25-.07.13-.12.34-.17.62-.04.29-.04.82-.17.51-.14.1-.28.15-.32.63-.06,1.14-.37.12-.27.74.02.16-.27-.63-.46.07-.2-.32-.35-.09-.54.08-.13.56-.56-.65-.71.11-.28-.05-.53.23-.88,0-.35-.19-.6.32-.96.29-.32.22-.74-.08-1.1.03-.37.1-.74.25-1.14.32-.38.19-.84-.14-1.2.27-.4.12-.78.37-1.25.12-.36.4-.78.42-1.24.22-.37.32-.81.18-1.22.17-.43-.12-.82-.07-1.17.19-.35.23-.75.09-1.1.17-.36,0-.73-.16-1.04-.05-.35-.15-.57.39-.86.35-.3-.15-.55-.09-.77,0-.24-.08-.44-.07-.56.21-.39-.06-.59.02-.58.09-.21-.57-.23.07-.24.77-.1.15-.19.27-.24.69-.07.28-.19.26-.22.82-.06.35-.26-.18-.25.62-.1.06-.15.49-.22.74-.06.34-.13.58-.23.66.01.07.18.21.41-.06.16.17.27-.18.48-.07.22.16.4-.09.64-.11.17-.47.46-.29.78-.1.22-.44.64.29.89-.16.36.24.65-.05.98-.2.33-.15.67-.29,1.07-.12.82.44,1.5-.23,2.28-.36.79-.06,1.54-.43,2.34-.37.43-.3.9-.29,1.34-.44.44-.14.87-.21,1.34.02.9.25,1.63-.09,2.25-.36.61-.36,1.13-.51,1.56-.25.43.34.6,0,.58-.09.01.06-.02.85-.27.74-.16.49-.46.73-.66,1.76-.23.83-.56,1.21-.78,2.1-.08.61-.23.79-.36.97-.16-.04-.17.85-.3.8-.26-.09-.22,1.1-.27.74.02.14-.26-.03-.7.11-.43.16-1.11,0-1.84.29-.75.17-1.61.54-2.61.41-.34.18-.73.08-1.1.17-.46-.46-.76.08-1.14.18-.39-.02-.77.11-1.15.22s-.75.21-1.15.15c-.46.01-.87.38-1.34.21-.49-.25-.88.02-1.27.2-.35.47-.76.41-1.17.22-.21-.13-.4-.17-.57-.14-.17.03-.33.13-.47.27-.13.23-.28.25-.4.43-.11.24-.32-.19-.44-.12-.27-.02-.47.11-.69-.08-.39-.08-.54.29-.57.09-.08.29-.15.69-.24.9-.13-.06-.18.44-.26.63-.08.22-.17.41-.26.53-.02.57-.09.8-.19.84-.03.47-.17.23-.19.71-.03.43-.1.55-.2.49.01.66-.14.2-.16.63-.01.45-.1.41-.17.39-.16-.08-.15.84-.23,1.02-.05.42-.14.45-.23.4-.09.46-.08,1.04-.16.5.07.42-.2.28-.65.1-.18.22-.53-.41-.74.1-.27.14-.6.07-.93.16-.3.33-.67.35-1.1.12-.36.24-.78.17-1.18.24-.22-.07-.42.02-.63.04-.21.02-.42.06-.62.15-.46-.23-.88-.17-1.24.2-.42,0-.81.14-1.21.08-.39,0-.76.03-1.07.28-.38-.21-.68-.04-.97-.04-.29,0-.53.06-.7.3-.37.3-.61.37-.65.1.02.14-.16-.47-.31-.42-.07.08-.22-.27-.37-.5-.11.06-.33-.53-.51-.71-.11-.21-.24-.54-.3-.42-.11-.16-.18-.08-.33-.48-.08.05-.32-.89-.36-.53-.09.03-.28-.49-.38-.47-.16-.34-.31-.62-.45-.82-.14-.2-.28-.31-.39-.31-.27-.19-.63-.91-.96-1.35-.01-.08-.3.21-.87.14-.26.15-.65-.13-.99.13-.37.14-.79.21-1.27.23-.28.21-.65,0-.97.16-.34.01-.69.11-1.04.16-.71.19-1.42.53-2.23.35-.39.04-.79-.03-1.15.18-.37.14-.79-.01-1.15.18-.23,0-.52-.32-.7,0-.24-.04-.43.16-.65.22-.24-.1-.46-.11-.65.1-.2.13-.45-.11-.63.1-.43-.08-.84-.09-1.21-.02-.37.06-.7.19-1,.37-.29.21-.54.51-.84.33-.27-.06-.44.33-.69-.08-.35.17-.58,0-.57.09-.06-.39-.23-.48-.49-.62-.23-.69-.44-1.09-.53-.67,0,.46-.25-.55-.27-.14-.14-.33-.29-.71-.37-.66-.11-.12-.3-.76-.36-.52-.15-.36-.19-.02-.37-.54-.18.04-.44-.43-.67-.69-.24-.36-.36-.02-.63-.78-.24-.5-.3-.02-.53-.69-.31-.41-.5-.7-.49-.62,0-.02.26.31.58-.09.16-.18.38-.25.65-.28.26-.03.6.16.91.03.29-.27.66-.21,1.07-.09.41.17.77-.14,1.18-.27.43,0,.86-.07,1.31-.16.22-.04.45-.09.67-.14s.48.07.69-.13c.81.09,1.56-.29,2.34-.37.74-.37,1.51-.51,2.28-.36.39.11.75.08,1.09,0,.34-.06.69-.04.96-.32.35.2.58-.33.89-.14.29,0,.52-.18.77-.12.46-.17.85-.15,1.12-.18.27.02.39-.15.41-.06-.16-.33-.26-.25-.43-.59-.17-.38-.36-.83-.44-.6-.12-.04-.32-.54-.44-.61-.18-.38-.36-.78-.45-.61-.08.24-.29-.38-.44-.57-.2-.49-.34-.63-.46-.67-.02-.11-.13.18-.43.07-.1.26-.3.09-.51,0-.21-.04-.44-.05-.65.19-.56-.34-1.1.03-1.73.27-.66.04-1.39.08-2.12.34-.4-.09-.73.34-1.15.18-.39.06-.79.12-1.19.19-.78.24-1.56.53-2.38.38-.74.36-1.6-.09-2.25.36-.45-.13-.85-.13-1.18.19-.36.12-.76-.08-1.05.17-.27.38-.58.34-.83.4-.26.06-.49.02-.71-.16-.38-.01-.57.15-.58.09.03.17-.2-.3-.49-.62-.17-.34-.35-.54-.54-.73-.18-.16-.37-.27-.63-.75-.2-.1-.47-.64-.71-.94-.25-.36-.5-.78-.69-.82-.21-.22-.45-.61-.62-.7-.23-.47-.37-.41-.54-.77-.3-.38-.5-.66-.49-.62-.03-.18.17.08.44-.07.1-.25.28-.25.5-.13.23.14.47.23.69-.06.25-.02.64.63.82-.14.33.16.62-.07.95-.14.12-.31.34-.02.52-.05.14-.23.31-.31.53-.11.13-.36.4.13.56,0,.21.09.37-.08.56-.17.21.07.41.1.61.09s.39-.06.58-.16c.37-.26.74-.54,1.19-.31.37-.27.77-.43,1.17-.49.41-.06.83-.02,1.26.1.81-.06,1.64.19,2.3-.36.41-.17.91.37,1.22-.11.39-.03.74-.09,1.05-.25.65-.13,1.29.41,1.57-.25.38-.04.61.06.59-.09-.3-.66-.53-.82-.76-1.04-.24-.24-.53-.82-.76-1.05-.28-.53-.52-.79-.77-1.05-.23-.48-.37-.44-.56-.71-.19-.27-.34-.26-.58-.85-.18-.17-.35-.33-.55-.65-.16-.07-.36-.38-.59-.9-.16-.08-.35-.35-.55-.68-.2-.34-.4-.7-.58-.86-.36-.41-.77-1.17-1.11-1.52-.07-.43.06-.37.31-.05.19-.07.5.06.82-.13.35-.02.76.03,1.17-.12.47.25.84-.35,1.32-.27.47.05.96.18,1.34-.12.42-.1.8-.23,1.15-.27.67-.17,1.14-.1,1.13-.18.15,0,.36.35.56.55.23.41.34-.03.61.49.25.39.44.38.64.34.21.04.46.31.71.45.21-.05.49.25.73.28.25.11.51.21.76.24.59.63,1.1.57,1.59.23.53-.05,1.07-.18,1.65-.09.24.08.42-.14.63-.19.22,0,.39-.3.63-.11.19-.16.46.23.6-.19.24.2.33-.53.57-.3.18-.12.37-.17.55-.24s.36-.17.51-.41c-.05-.33-.12-.15-.33-.45-.2-.24-.57-1.06-.88-1.22-.21-.44-.34-.23-.61-.89-.25-.52-.46-.74-.67-.88-.1-.03-.23-.3-.37-.56-.12-.18-.24-.28-.37-.46-.09.07-.24-.25-.35-.31-.16-.35-.29-.55-.43-.76-.17-.41-.33-.79-.47-1.02-.14-.24-.26-.33-.34-.17-.25-.27-.53-.72-.78-1-.19-.55-.23-.16-.42-.72-.19-.57-.37-1.06-.36-.35-.15-.31-.23-.21-.36-.45-.12-.18-.25-.38-.37-.57-.26-.5-.46-.63-.69-1-.25-.53-.38-.34-.59-.76-.14,0-.37-.6-.51-.76-.15-.25-.29-.44-.37-.45-.16.04-.3-.28-.33-.45-.22.22-.42.61-.67.55-.19.36-.4.47-.6.61-.22,0-.38.38-.54.67-.18.14-.33.39-.46.72-.17.06-.32.21-.41.62-.08.48-.26.24-.28.95-.08.34-.14.67-.2.97-.06.3-.1.56-.15.74,0,.03-.24.18-.7.11-.39.38-1.06.12-1.75.28-.74-.14-1.45.52-2.28.36-.41-.01-.77.23-1.15.34-.38.11-.75.17-1.13.02-.74-.13-1.3.28-1.75.28-.46-.07-.72,0-.7.11-.16.15-.51-.98-.67-.92-.29-.74-.46-.71-.65-.87-.25-.55-.55-1.4-.63-.87-.2-.27-.31.09-.6-.8-.22-.39-.43-.75-.62-1.03-.19-.28-.37-.46-.51-.5-.3-.08-.77-1.38-1.02-1.38-.34-.53-.65-1-.9-1.2-.18-.44-.28-.44-.39-.46-.15-.31-.23-.2-.38-.56-.18-.54-.24-.41-.35-.56-.11-.16-.27-.69-.27-.25-.13.32-.36-.09-.65-.85-.17-.01-.48-.95-.61-.86-.13.15-.36-.37-.54-.6-.16-.58-.24-.63-.29-.48-.08-.08-.17-.21-.29-.59-.19-.37-.51-1.61-.5-.79-.07.33-.44-1.32-.47-.86-.04.06-.14-.25-.23-.52-.13-.54-.19-.62-.21-.47-.07.13-.23-.33-.35-.65-.14-.43-.11.24-.32-.72.06.77-.11.05-.31-.93-.07-.15-.15-.41-.24-.83-.15-.77-.14-.59-.19-.83-.08-.43-.07-.31-.14-.78-.03-.24.03.06-.1-.91-.06-.5.08.16,0-.65.02-.15-.05-.87-.02-1.07.03-.2.05-.47.08-.8-.04-.73.04-.78.11-.97.08-.13.12-.51.18-.91.15.23.18-.44.24-.93.02-.75.11-1.12.3-.96.22.35.3-.18.36-.95.21.2.28-.58.45-.79.14-.39.29-.85.46-1.21.23.55.22-.48.35-.63.09-.44.32-.01.39-.6.14-.15.3-.28.42-.64.1-.5.25-.7.47-.46.21.12.33-.33.48-.57.16-.24.32-.45.53-.41.38-.16.74-.53,1.12-.86.28-.04.5-.51.8-.52.31.11.45-.93.83-.47.31.03.48-.84.87-.31.21-.59.57-.3.85-.5.27-.27.55-.43.85-.53.3-.1.6-.13.91-.12.65.18,1.21-.15,1.76-.51.64.27,1.17-.1,1.7-.39.5-.41,1.08-.2,1.59-.28.65-.1,1.25-.17,1.8-.23.52-.22.98-.38,1.42-.12.33-.48.7-.1.93-.04.12-.62.44.69.33,0,.06.36.18.58.31.44.25.58.39.05.86,1.21.24.63.4.67.59.84.2.19.36.12.69.97.32.82.44.35.73.89.34.82.49.43.85,1.35.14.34.26.53.37.66.11.13.21.19.31.26.22.25.56,1.22.73,1.07.1-.56.47.56.69.79.25.4.43.29.78,1.29.17.39.21-.12.44.63.16.31.32.61.43.59.25.16.54.59.85,1.2.25.17.55.76.82,1.12.28.46.54.81.8,1.16.5.65.88.7,1.43,2.01.32-.1.92,1.79,1.14,1.61.26.08.62,1.12.75,1.06.15.08.27.38.27.38,0,0,.47-.07,1.1-.17.58-.45,1.4-.31,2.05-.32.67.16,1.11-.14,1.1-.17-.01-.08.04-.19.14-.43.09-.24.24-.51.38-1.2.11-.04.06-1.2.26-.84.06-.55.19-.65.31-.98.07-.1.14-.18.15-.64.14.35.09-.56.17-.61.07-.14.04-.88.18-.61.05-.27.22.18.22-.42.15.34.15-.28.23-.44.16.41.11-.56.17-.83.1,0,.12-.56.17-.86.13.18.09-.76.24-.47-.04-.84.12-.34.2-.45.06-.16.12-.38.16-.69.06-.16.07-.7.19-.51.11.12.05-.82.17-.65.05-.24.05-.85.1-1.08.05-.29.22.23.21-.44.15-.21.24-.77.42-.82.12-.42.15-1.38.36-1.13.17-.06.28-.48.35-1.15.02-.44.15-.12.16-.61.08-.06.1-.46.15-.65.09-.49.23-.63.35-.87.02-.91.19-.76.28-1.16.08-.43.21-.54.31-.74.12-.27.24-.58.32-1.01.09-.34.28-.06.27-.87.12-.04.22-.13.25-.51.07-.18.16-.12.13-.73-.01-.95.09-.79.14-.45.08.48.16.02.42-.12.15.08.24-.48.5-.07.25.33.43-.02.65-.24.25-.06.47-.4.81-.18.28-.13.59-.26.94-.21.67-.11,1.52.41,2.22-.36.46.35.81-.15,1.25-.04.43,0,.86-.04,1.28-.2.89,0,1.79-.13,2.72,0,.24.05.48.12.69.01.25.13.53.49.69.01.22-.02.5.28.71.21.25.15.49.28.68.09.2.04.41.17.6.17.15-.24.36-.12.59.16.21.17.36-.11.58.14.26.49.33-.21.57.18.15-.2.34-.09.58.31.21.22.32-.19.55.21.04-.84.32-.08.52.14.23.41.28-.28.54.38.22.4.35.23.51.35.01-.87.32.18.47.24.06-.49.32.3.49.49.18.32.27.08.45.43.21.1.53,1,.65.68.2.16.44.64.6.67.13-.2.34.18.56.67.07-.46.44,1.02.51.67.1-.17.31.38.45.55.23.71.2-.12.44.8.21.74.25.41.36.55.2.77.11-.35.36.8,0-.43.26.79.3.68.17.74.06-.27.26.68.03-.1-.12-1.24.23.76.07.23.17.7.17.62-.01-.15.08.37.05.14.07.39.19,1.14.12.69-.06-.38.2,1.24.12.84-.01.01.04.48.05.74.2,1.46.08.91.04.97.1.91.07,1.04-.03.84-.08-.12-.06.45-.06.92.07.89-.04.74-.11.9-.04.34-.01,1.1-.15.91.02.78-.09.76-.19.89-.09.19-.12.78-.22.98-.09.24-.16.67-.26.96-.18-.27-.23.36-.29.98-.12.24-.13,1.16-.32.98-.09.47-.32.11-.35,1.03.02.59-.11.22-.16.42-.17-.55-.14.15-.17.53-.06.21-.11.47-.2.57-.14-.24-.08.77-.22.63-.08.21-.19.19-.24.62-.12-.03-.16.52-.24.8-.06.4-.19.41-.3.6-.02.71-.15.76-.25,1.02-.2-.35-.25.21-.28.99-.11.23-.23.43-.33.82-.17-.12-.24.44-.36.75-.07.59-.21.75-.3,1.21-.14.16-.21.78-.36.97-.14.18-.28.43-.35,1.14-.03-.21-.37-.66-.7.11-.24-.09-.49.04-.8,0-.25.33-.6.26-.96.28-.37-.09-.74-.01-1.12.09-.38.11-.76.24-1.16.27-.42-.12-.74.41-1.17.23-.43-.25-.75.17-1.11.13-.36,0-.66.25-.93.44-.27.2-.53.29-.82-.17-.43.14-.68.24-.7.11-.13-.38-.15.06-.39-.79-.12-.14-.23-.04-.47-.73-.19-.35-.36-.55-.54-.67-.24-.54-.41-.52-.6-.61-.24-.36-.47-.62-.67-.59-.15.35-.41.07-.71-.43-.21.08-.47-.09-.74-.24-.25-.05-.52-.14-.83-.47-.01-.07-.08.06-.17.53-.02.38-.09.57-.16.87-.02.59-.14.66-.3.56-.11.22-.16.87-.27,1.23-.12.3-.28.4-.4.84-.04.33-.11.51-.2.5-.07.17-.14.36-.18.69-.19.05-.31.59-.41,1.26-.07.24-.09.71-.22.6-.12-.12-.12.54-.21.65-.08.17-.12.56-.24.49-.07.19-.14.45-.18.85-.09.11-.12.52-.23.48-.1.03-.1.62-.17.81-.09.09-.12.48-.19.64-.04.37-.11.5-.2.53-.1-.03-.12.39-.16.72-.03.34-.13.3-.2.35-.04.79-.19.83-.31,1-.15-.06-.21.39-.25.87-.16-.29-.11.66-.21.56-.04.77-.14.72-.17.53.38.04.82.39,1.21.29.43.17.89.46,1.26.1.47.27.82-.27,1.29-.1.25-.21.56-.04.82-.17.31.23.55,0,.78-.25.31.29.52-.11.75-.27.25-.03.49-.13.69-.44.23-.11.4-.58.63-.57.21-.18.41-.33.62-.39.39-.32.73-.78,1.04-1.17.37-.05.62-.56.8-1.35.05.33.15.21.31-.05.23.18.5.04.82-.13.34-.07.72-.23,1.14-.31.35-.52.93.18,1.35-.08.46-.01.91-.1,1.33-.18.42-.09.81-.18,1.16-.21.7.03,1.19.17,1.13-.18-.05.28-.13.38-.2.59-.05.28-.15.26-.2.59-.13-.24-.19.04-.23.38-.06.22-.13.39-.16.82-.03.43-.13.4-.22.49,0,.61-.1.61-.18.72-.06.58-.18.74-.3.91-.08.41-.16.88-.3.92-.15.01-.16.9-.32.81-.16-.07-.22.48-.29,1.03-.14.08-.22.53-.3.96,0,.92-.16.87-.31.88-.28.11-.38,1.42-.61,1.84Z"/>
    </g>
  </g>
</svg>