<svg width="141" height="144" viewBox="0 0 141 144" fill="none" xmlns="http://www.w3.org/2000/svg">
<path d="M6.17126 97.2292C-5.69791 84.2821 2.63462 69.5236 15.676 82.0504C28.7173 94.5695 15.0396 106.898 6.17126 97.2292Z" fill="#59FD53"/>
<path d="M103.549 120.693C104.909 127.205 100.321 138.937 91.1777 141.902C79.4224 145.716 76.435 140.901 79.0138 134.145C79.0272 134.106 79.0406 134.076 79.0406 134.06C79.0473 134.053 79.0473 134.045 79.054 134.03C81.0233 128.978 86.0938 122.864 92.9259 118.484C99.2423 114.441 102.658 116.459 103.549 120.693Z" fill="#59FD53"/>
<path d="M110.542 126.563C104.501 124.025 105.144 117.391 111.627 120.127C118.413 122.978 115.861 128.787 110.542 126.563Z" fill="#59FD53"/>
<path d="M116.242 40.6181C117.08 38.6921 118.701 36.4145 120.174 34.6643C121.079 33.5942 121.969 33.449 122.72 33.8847H122.726C125.071 35.2298 125.995 42.162 121.333 43.7211C115.519 45.6777 114.956 43.5683 116.242 40.6181Z" fill="#59FD53"/>
<path d="M109.839 90.0449C110.556 91.6117 111.714 93.2702 112.86 94.8981C114.695 97.5196 116.497 100.057 116.403 102.006C116.396 102.189 116.383 102.373 116.37 102.556C116.37 102.663 116.349 102.778 116.336 102.893C116.316 103.114 116.289 103.344 116.256 103.573C116.222 103.764 116.195 103.963 116.155 104.154C116.115 104.391 116.061 104.628 116.008 104.857C116.001 104.872 116.001 104.88 115.994 104.895C115.941 105.132 115.874 105.369 115.8 105.598C115.727 105.843 115.646 106.08 115.559 106.317C115.479 106.538 115.392 106.752 115.291 106.966C115.278 107.005 115.264 107.035 115.251 107.066C115.15 107.287 115.043 107.501 114.929 107.715C114.909 107.754 114.883 107.792 114.862 107.83C114.802 107.937 114.742 108.044 114.682 108.151C114.554 108.365 114.42 108.571 114.273 108.778C114.206 108.885 114.132 108.984 114.052 109.083C113.985 109.183 113.911 109.274 113.838 109.366C113.429 109.878 112.96 110.36 112.431 110.811C112.344 110.887 112.25 110.964 112.163 111.032C111.922 111.223 111.674 111.407 111.413 111.583C111.299 111.659 111.178 111.743 111.058 111.82C111.038 111.827 111.018 111.842 110.998 111.85C110.763 112.003 110.515 112.141 110.254 112.278C110.12 112.347 109.979 112.423 109.832 112.492C109.571 112.622 109.29 112.744 109.002 112.867C108.68 112.997 108.338 113.126 107.983 113.241C107.816 113.295 107.642 113.348 107.474 113.402C107.126 113.509 106.771 113.6 106.396 113.684C106.249 113.723 106.101 113.753 105.947 113.784C105.867 113.807 105.786 113.822 105.706 113.837C105.358 113.906 105.003 113.967 104.634 114.021C104.427 114.051 104.219 114.082 104.005 114.105C103.368 114.189 102.699 114.25 101.995 114.281C101.761 114.296 101.526 114.304 101.285 114.311C89.4094 114.655 82.1486 121.297 77.1048 130.3C72.0544 139.296 62.7037 137.041 61.5316 120.372C61.0761 113.906 56.1663 109.534 49.0328 112.11C48.2223 112.4 47.4319 112.775 46.6616 113.218C46.5276 113.287 46.4004 113.363 46.2731 113.44C44.8665 114.281 43.5202 115.32 42.214 116.459C42.0934 116.558 41.9796 116.665 41.859 116.772C39.6955 118.691 37.6258 120.838 35.5694 122.711C35.3819 122.887 35.1876 123.055 35.0001 123.223C34.8058 123.391 34.6183 123.559 34.4307 123.72C34.2834 123.85 34.136 123.972 33.9886 124.094C32.8567 125.027 31.718 125.844 30.5592 126.448C30.452 126.502 30.3515 126.555 30.2444 126.609C30.1305 126.67 30.0099 126.723 29.8961 126.769C29.8626 126.784 29.8358 126.8 29.8023 126.815H29.7956C29.7956 126.815 29.7755 126.823 29.7688 126.83C29.6348 126.884 29.5076 126.937 29.3736 126.991C29.099 127.098 28.8177 127.197 28.543 127.274C28.5229 127.281 28.5095 127.281 28.4961 127.289C28.2617 127.35 28.0273 127.411 27.7861 127.457C27.7325 127.465 27.679 127.472 27.6254 127.488C27.4981 127.503 27.3775 127.526 27.2503 127.533C27.0962 127.556 26.9422 127.572 26.7881 127.579C26.6407 127.587 26.4934 127.595 26.346 127.595C24.0017 127.595 21.53 126.479 18.8039 123.666C17.4977 122.313 16.7006 120.907 16.3055 119.47C16.0308 118.477 15.9505 117.475 16.0241 116.466V116.444C16.4997 110.108 23.1041 103.825 26.1183 100.684C26.4197 100.37 26.701 100.049 26.9623 99.7208C27.2972 99.3081 27.6053 98.8801 27.8799 98.4368C27.9804 98.2763 28.0809 98.1234 28.1679 97.9629C28.2483 97.8254 28.3287 97.6801 28.4024 97.5426C28.4827 97.4126 28.5497 97.2827 28.6167 97.1451C28.6167 97.1451 28.6167 97.1299 28.6301 97.1222C28.8377 96.7171 29.0186 96.3044 29.1861 95.8841C29.2597 95.7083 29.3267 95.5325 29.387 95.3567C29.5344 94.9516 29.6616 94.5465 29.7755 94.1262C29.8224 93.958 29.8693 93.7899 29.9095 93.6218C30.0032 93.232 30.0836 92.8498 30.1506 92.4524C30.1975 92.2155 30.231 91.9785 30.2645 91.7339C30.2913 91.5582 30.3113 91.3824 30.3314 91.1989C30.3314 91.1302 30.3448 91.0537 30.3515 90.9773C30.3716 90.8015 30.385 90.6257 30.3984 90.4499C30.4118 90.32 30.4185 90.1901 30.4252 90.0678C30.8405 82.6694 27.411 75.0418 23.9883 72.7489C18.7704 69.2638 3.76646 65.7709 2.84881 46.3426C2.82872 45.9376 2.82202 45.5325 2.82202 45.1274C2.82202 44.7988 2.82872 44.4778 2.84212 44.1568C2.84881 43.8663 2.86891 43.5835 2.889 43.2931C2.9091 43.0333 2.93589 42.781 2.96268 42.5212C2.98278 42.3454 3.00287 42.1696 3.02297 41.9938C3.04976 41.7875 3.07655 41.5964 3.11004 41.3977C3.17033 41.0079 3.23731 40.6257 3.32438 40.2512C3.35118 40.106 3.38467 39.9532 3.41816 39.8079C3.45165 39.6398 3.49184 39.4793 3.53203 39.3188C3.55882 39.2347 3.57892 39.1507 3.59901 39.0742C3.6526 38.8602 3.71288 38.6615 3.77316 38.4551C3.90713 37.9889 4.06118 37.5304 4.22194 37.0871C4.29562 36.8807 4.376 36.682 4.45638 36.4833C4.53006 36.2922 4.60374 36.1088 4.68412 35.9253C5.05921 35.0693 5.4812 34.2363 5.95007 33.4414C6.06394 33.2503 6.17781 33.0592 6.29838 32.8682C6.53281 32.4937 6.78064 32.1268 7.04187 31.7676C7.16914 31.5842 7.3031 31.4084 7.43707 31.2326C7.57103 31.0568 7.70499 30.8887 7.84566 30.7129C8.15377 30.3384 8.46859 29.9715 8.8035 29.6123C8.99104 29.4059 9.17859 29.2072 9.37284 29.0161C9.37954 29.0085 9.38624 29.0009 9.39963 28.9932C9.56039 28.8251 9.72784 28.6646 9.8953 28.5117C10.1163 28.2977 10.3441 28.0913 10.5718 27.8926C10.7393 27.7474 10.9067 27.6098 11.0742 27.4723C11.3555 27.2353 11.6435 27.0137 11.9315 26.7997C12.1593 26.6315 12.387 26.4634 12.6148 26.3105C13.7133 25.5463 14.8787 24.889 16.0911 24.331C16.2586 24.2546 16.426 24.1782 16.5935 24.1094C16.9954 23.9336 17.3973 23.7731 17.7991 23.6279C17.8058 23.6279 17.8058 23.6202 17.8125 23.6202C23.0237 21.7171 28.9047 21.6942 34.2767 24.1247C35.5828 24.7132 36.8622 25.4545 38.0879 26.3411C52.7904 36.9571 59.2408 27.7245 56.2869 19.5083C53.333 11.2922 56.3673 -2.26634 67.0576 3.0302C77.7478 8.32675 70.5004 18.7823 73.307 22.1222C76.0197 25.3399 82.3227 25.4392 87.7147 17.2995C88.4649 15.7862 88.9137 15.3124 88.4649 16.1149C90.8897 12.1635 95.1363 6.41602 99.8786 3.05313C100.16 2.84677 100.435 2.66334 100.716 2.48755C100.729 2.47991 100.743 2.46463 100.756 2.45698C101.915 1.71562 103.094 1.13476 104.286 0.767898C104.286 0.760255 104.293 0.760255 104.299 0.760255H104.313C104.541 0.683825 104.762 0.622682 104.989 0.569182C106.235 0.278751 107.481 0.232893 108.714 0.500395C108.914 0.546253 109.115 0.59211 109.31 0.653254C109.323 0.653254 109.336 0.660897 109.35 0.66854C109.598 0.744969 109.846 0.836684 110.087 0.936042C113.087 2.18184 115.921 5.50651 118.258 11.9342C127.053 36.04 100.046 41.0767 106.403 49.8125C106.985 50.6074 107.615 51.2188 108.292 51.685C108.292 51.685 108.296 51.6876 108.305 51.6927C111.386 53.8021 115.412 52.9079 119.879 52.6939C125.225 52.434 131.199 53.1296 136.926 61.0629C148.507 77.0901 124.957 79.3677 113.489 82.9064C108.653 84.3967 108.459 87.0565 109.839 90.0449Z" fill="#59FD53"/>
<path d="M108.897 90.3937C109.606 91.9503 110.751 93.598 111.884 95.2154C113.698 97.8199 115.48 100.341 115.387 102.277C115.135 107.729 112.182 114.168 100.441 114.502C88.6995 114.844 81.5211 121.442 76.5345 130.387C71.5414 139.324 62.2968 137.084 61.1379 120.523C60.6876 114.1 55.8336 109.756 48.7809 112.315C37.6556 116.355 30.5632 135.9 18.8949 123.796C17.6036 122.452 16.8156 121.055 16.4248 119.627C16.1533 118.64 16.0739 117.646 16.1467 116.643V116.621C16.6169 110.326 23.1464 104.084 26.1264 100.963C26.4244 100.652 26.7025 100.333 26.9608 100.007C33.9472 91.2821 28.9872 76.5514 24.0205 73.2104C18.8618 69.7479 4.02809 66.2778 3.12085 46.9759C2.5977 35.9203 9.32585 27.5602 17.9016 24.409C17.9016 24.409 17.9016 24.4014 17.9148 24.4014C23.0669 22.5107 28.8812 22.4879 34.1922 24.9026C35.4835 25.4872 36.7484 26.2238 37.9602 27.1046C52.496 37.6515 58.8731 28.479 55.9528 20.3163C53.0324 12.1536 56.0322 -1.31667 66.6012 3.9454C77.1703 9.20747 70.0051 19.5949 72.7798 22.9132C75.5611 26.2314 82.1568 26.2086 87.6135 17.1955C89.9842 13.2622 94.2622 7.37752 99.05 3.96818C99.3282 3.76317 99.5997 3.58093 99.8778 3.40629C99.891 3.39869 99.9043 3.38351 99.9175 3.37591C101.063 2.63938 102.229 2.06229 103.407 1.69782C103.421 1.69023 103.434 1.68264 103.447 1.69023C104.619 1.32576 105.805 1.17389 106.97 1.30298C110.725 1.68264 114.347 4.86418 117.221 12.7915C125.916 36.7403 99.2156 41.7442 105.5 50.4232C106.076 51.2129 106.699 51.8204 107.368 52.2836C107.368 52.2836 107.372 52.2836 107.381 52.2836C110.427 54.3793 114.407 53.4909 118.824 53.2783C124.108 53.0201 130.015 53.7111 135.677 61.5928C147.127 77.5157 123.844 79.7785 112.506 83.2941C107.725 84.7748 107.533 87.4172 108.897 90.3861V90.3937Z" fill="#84EE43"/>
<path d="M90.448 141.913C78.826 145.702 75.8725 140.919 78.422 134.206C78.4353 134.168 78.4485 134.138 78.4485 134.123C78.4485 134.115 78.4485 134.108 78.4618 134.092C80.4087 129.073 85.4217 122.999 92.1764 118.648C98.4211 114.631 101.798 116.636 102.679 120.842C104.023 127.312 99.4873 138.967 90.448 141.913Z" fill="#84EE43"/>
<path d="M109.593 126.674C114.851 128.891 117.374 123.12 110.665 120.28C104.255 117.57 103.613 124.161 109.593 126.674Z" fill="#84EE43"/>
<path d="M6.39873 97.5313C15.1665 107.137 28.689 94.8889 15.7956 82.4513C2.90221 70.0136 -5.33581 84.6685 6.39873 97.5313Z" fill="#73DE42"/>
<path d="M120.261 44.3715C114.513 46.3153 113.957 44.2196 115.228 41.2887C116.056 39.3752 117.659 37.1124 119.115 35.3736C120.009 34.3105 120.89 34.1663 121.632 34.5991C123.95 35.9355 124.863 42.8225 120.254 44.3715H120.261Z" fill="#84EE43"/>
<path d="M90.448 141.913C78.826 145.702 75.8725 140.919 78.422 134.206C78.1704 135.064 76.8923 140.615 86.2892 139.438C96.494 138.155 103.414 127.448 102.686 120.933C102.686 120.903 102.686 120.873 102.686 120.842C104.03 127.312 99.4939 138.967 90.4546 141.913H90.448Z" fill="#73DE42"/>
<path opacity="0.65" d="M89.0242 121.214C83.753 126.036 88.117 131.321 95.5471 124.639C102.977 117.957 96.8186 114.069 89.0242 121.214Z" fill="#ADFE7D"/>
<path opacity="0.65" d="M81.8457 129.855C77.0314 133.257 79.8855 139.582 83.6734 135.649C87.4613 131.716 88.501 125.155 81.8457 129.855Z" fill="#ADFE7D"/>
<path d="M85.6336 139.43C85.6601 139.544 88.66 139.628 94.1167 136.94C99.5734 134.259 101.792 126.879 101.077 128.223C100.361 129.559 96.7722 135.474 93.4213 136.811C90.0705 138.147 85.2429 137.57 85.6336 139.43Z" fill="#ADFE7D"/>
<path d="M108.076 120.197C105.593 121.063 107.427 122.429 110.46 123.401C112.248 123.971 113.599 123.675 113.374 122.877C112.977 121.48 109.666 119.643 108.076 120.197Z" fill="#ADFE7D"/>
<path d="M99.8778 3.40628C99.5335 3.69482 99.2553 3.87706 99.05 3.96818C99.3282 3.76316 99.5997 3.58092 99.8778 3.40628Z" fill="#67D133"/>
<path d="M115.387 102.277C115.301 104.145 114.897 106.134 113.93 107.949C113.91 107.987 113.884 108.025 113.864 108.063C111.99 111.488 108.07 114.282 100.441 114.502C88.6997 114.844 81.5212 121.442 76.5347 130.387C71.5416 139.324 62.297 137.084 61.1381 120.523C60.6878 114.1 55.8337 109.756 48.7811 112.315C41.5231 114.95 35.987 124.176 29.7687 126.924C26.4576 128.39 22.9545 128.003 18.9017 123.796C17.6104 122.452 16.8223 121.055 16.4316 119.627C16.2793 118.238 16.1999 117.22 16.1667 116.81C16.4979 118.724 20.895 128.975 28.1198 121.898C35.636 114.54 44.4502 103.234 48.4963 97.8426C52.5359 92.459 64.0783 77.2879 67.204 90.7202C70.3363 104.153 67.2371 122.239 74.9785 116.491C82.7132 110.736 86.0243 103.803 95.9709 105.747C105.917 107.699 117.639 106.56 111.891 95.2154C113.705 97.8198 115.486 100.341 115.394 102.277H115.387Z" fill="#73DE42"/>
<path d="M112.506 83.3017C107.725 84.7824 107.533 87.4248 108.897 90.3937C103.527 83.0511 98.1164 80.5757 106.917 74.7518C114.579 69.6871 142.207 71.593 133.227 59.3604C133.009 59.0643 132.79 58.7757 132.565 58.5024C128.539 53.6579 123.652 53.2175 118.824 53.2859C124.109 53.0277 130.016 53.7187 135.678 61.6004C147.127 77.5233 123.844 79.786 112.506 83.3017Z" fill="#73DE42"/>
<path d="M113.864 108.063C111.99 111.488 108.07 114.282 100.441 114.502C88.6997 114.844 81.5213 121.442 76.5348 130.387C71.5416 139.324 62.297 137.084 61.1382 120.523C60.6878 114.1 55.8338 109.756 48.7811 112.315C41.5232 114.95 35.987 124.176 29.7688 126.924C30.9012 126.325 42.7218 113.295 47.4434 107.357C52.1783 101.411 59.5356 97.7819 62.1646 109.088C64.7936 120.402 61.2441 132.057 68.3431 133.158C75.4355 134.259 78.74 117 86.68 113.5C94.6266 109.999 108.792 116.826 113.864 108.063Z" fill="#67D133"/>
<path d="M26.9608 100.007C27.5105 99.3233 27.9873 98.5943 28.3846 97.8426C28.4641 97.7135 28.5303 97.5844 28.5965 97.4478C28.5965 97.4402 28.6031 97.4326 28.6097 97.425C33.0268 88.6397 28.5237 76.24 24.0206 73.2103C18.8619 69.7479 4.02814 66.2778 3.1209 46.9759C2.98846 44.174 3.31957 41.5468 4.03477 39.1398C6.12738 32.0174 11.498 26.7629 17.9016 24.409C11.4053 28.16 5.81614 34.8116 11.3854 47.7656C16.9547 60.7196 30.6096 50.7877 33.4837 71.8208C36.3577 92.8539 27.974 98.564 26.9608 100.007Z" fill="#73DE42"/>
<path d="M28.6097 97.425C33.0268 88.6397 28.5237 76.24 24.0206 73.2104C18.8619 69.7479 4.02814 66.2778 3.1209 46.9759C2.98846 44.174 3.31957 41.5468 4.03477 39.1398C1.35277 64.7212 19.5307 57.3938 28.3846 70.8261C36.669 83.3928 30.0733 94.7902 28.6097 97.425Z" fill="#67D133"/>
<path d="M86.68 49.6791C90.3089 59.2161 74.3428 64.7364 77.5744 55.3588C80.7994 45.9812 77.8791 37.1124 70.9257 32.3287C63.9791 27.545 64.6148 49.5348 53.3438 40.1573C42.0728 30.7797 35.2387 25.4113 34.0798 25.2063C34.0798 25.2063 34.1196 25.1 34.1924 24.895C35.4837 25.4796 36.7486 26.2162 37.9604 27.097C52.4962 37.6439 58.8733 28.4714 55.953 20.3087C53.0326 12.146 56.0324 -1.32427 66.6014 3.9378C77.1705 9.19987 70.0053 19.5873 72.78 22.9056C75.5613 26.2238 82.157 26.201 87.6137 17.1879C89.9844 13.2546 78.4486 28.0461 86.68 49.6791Z" fill="#73DE42"/>
<path d="M114.685 16.459C113.838 4.85658 108.215 0.79423 103.414 1.68263C108.361 0.14881 113.414 2.3888 117.188 12.7839C125.883 36.7327 99.1826 41.7366 105.467 50.4156C106.043 51.2053 106.666 51.8128 107.335 52.276C105.706 51.5698 104.196 50.4384 102.878 48.6388C95.2689 38.2514 115.751 31.1518 114.685 16.459Z" fill="#67D133"/>
<path d="M57.8335 7.46102C53.6284 13.8165 56.5686 21.0832 61.0121 13.6267C65.4556 6.17777 62.767 0.00452176 57.8335 7.46102Z" fill="#84EE43"/>
<path opacity="0.65" d="M99.4606 5.31218C87.8519 13.8545 100.421 34.4244 105.46 24.409C110.493 14.3936 112.857 -4.54376 99.4606 5.31218Z" fill="#ADFE7D"/>
<path opacity="0.65" d="M19.8553 27.097C3.29321 30.4152 14.9748 44.4626 32.4839 49.8613C39.0465 51.8811 43.2449 54.8273 45.1852 58.4948C51.1055 69.6491 39.3908 78.3509 40.8013 81.4717C45.2912 91.4036 63.3963 70.3857 55.8006 65.7994C47.0924 60.5373 59.6283 53.9768 54.4696 49.8689C49.3175 45.761 42.384 22.5866 19.8553 27.1046V27.097Z" fill="#ADFE7D"/>
<path d="M25.7822 104.191C18.2793 111.343 15.6966 122.27 23.0936 117.16C30.4906 112.042 34.2057 96.1569 25.7822 104.191Z" fill="#ADFE7D"/>
<path opacity="0.65" d="M116.394 54.8652C98.5004 58.0999 114.97 66.5284 125.241 63.81C135.512 61.0916 133.168 51.8356 116.394 54.8652Z" fill="#ADFE7D"/>
<path opacity="0.65" d="M74.4156 95.2154C73.6805 103.522 73.1044 114.358 77.5677 108.063C82.0311 101.761 87.8388 96.2405 94.6861 97.8426C101.533 99.4524 97.772 88.017 90.236 84.099C82.6999 80.1809 75.5347 82.5044 74.4089 95.2154H74.4156Z" fill="#ADFE7D"/>
<path d="M96.3814 105.664C96.3814 106.932 106.546 109.035 110.427 106.605C111.99 105.626 112.685 104.077 113.116 102.96C114.301 99.9004 112.751 97.1896 112.255 99.2018C110.99 104.335 108.156 106.195 105.176 106.058C101.467 105.884 96.3747 104.122 96.3814 105.664Z" fill="#ADFE7D"/>
<path d="M26.9078 29.3901C15.6103 29.6559 25.0337 33.5436 32.4771 35.29C39.927 37.0365 34.3512 29.2155 26.9078 29.3901Z" fill="#ADFE7D"/>
<path d="M42.4105 39.1398C38.7087 37.0289 40.2848 42.291 44.0859 44.0298C47.8871 45.7762 46.6686 41.562 42.4105 39.1398Z" fill="#ADFE7D"/>
<path opacity="0.65" d="M64.4557 44.4398C61.0055 51.2357 75.5545 46.7254 72.3626 41.5392C69.1707 36.3531 67.3496 38.7449 64.4557 44.4398Z" fill="#ADFE7D"/>
<path d="M60.3434 5.19826C56.6549 8.06848 59.2176 11.6828 61.2771 8.43295C63.2506 5.31975 61.6679 4.16559 60.3434 5.19826Z" fill="#ADFE7D"/>
<path opacity="0.65" d="M3.8626 80.7656C1.63754 84.4407 13.3787 94.8206 16.7958 92.4059C22.3915 88.4575 8.96169 72.3523 3.8626 80.7656Z" fill="#ADFE7D"/>
<path d="M11.3854 47.7656C13.4382 47.8871 15.7958 53.6731 22.5239 56.4142C29.2521 59.1554 32.3314 63.9619 31.2255 63.6202C30.1196 63.2785 27.0667 59.6489 21.1134 58.4948C15.16 57.3406 9.61724 47.6593 11.3854 47.7656Z" fill="#ADFE7D"/>
<path d="M32.2521 65.974C32.1329 63.4911 34.3779 68.9278 35.007 71.7145C35.7023 74.7821 34.5964 78.2978 34.1593 77.7966C33.8017 77.3866 33.9275 74.8353 33.6494 72.3979C33.2388 68.8063 32.3448 67.8496 32.2521 65.974Z" fill="#ADFE7D"/>
<path d="M113.652 71.9727C110.089 74.4708 113.791 74.7518 121.983 72.8763C130.175 71.0008 135.717 65.5109 132.804 67.2193C129.565 69.1176 123.612 70.5831 118.95 71.4412C116.188 71.9499 114.321 71.5019 113.652 71.9727Z" fill="#ADFE7D"/>
<path d="M121.758 55.3056C115.03 55.4119 119.221 60.9626 122.95 60.2108C126.678 59.4515 129.724 55.1842 121.758 55.3056Z" fill="#ADFE7D"/>
<path d="M89.9646 90.2798C84.6867 92.6868 98.2622 96.5214 95.8981 93.8106C93.534 91.0999 94.0439 88.4195 89.9646 90.2798Z" fill="#ADFE7D"/>
<path opacity="0.4" d="M68.3696 69.2619C63.1182 74.0456 63.7804 86.9996 70.9258 81.3654C78.0711 75.7313 91.8056 80.7428 87.9382 75.1011C84.0775 69.4669 75.2368 62.9975 68.3696 69.2543V69.2619Z" fill="#ADFE7D"/>
<path d="M120.261 44.3715C114.513 46.3153 113.957 44.2196 115.228 41.2887C115.043 43.4603 118.01 45.2903 120.956 41.7215C124.4 37.5452 121.632 34.5991 121.632 34.5991C123.95 35.9355 124.863 42.8225 120.254 44.3715H120.261Z" fill="#67D133"/>
<path d="M119.632 35.495C116.877 37.7047 116.811 41.3418 118.95 39.8611C121.089 38.3804 122.281 33.369 119.632 35.495Z" fill="#ADFE7D"/>
<path d="M82.7309 80.5446C82.7374 80.6293 82.838 80.6793 83.0016 80.5237C83.1446 80.0996 83.4067 80.202 83.742 80.4664C84.0497 80.3728 84.4287 80.4084 84.8454 80.3812C85.0389 80.1743 85.2698 80.3094 85.5001 80.3306C85.7276 80.3136 85.9947 80.7027 86.2054 80.2761C86.4496 80.2842 86.7046 80.3514 86.9399 80.1143C87.1921 80.0965 87.4514 80.1133 87.7147 80.1595C88.2204 79.9835 88.7564 80.1054 89.2668 80.0396C89.4252 80.0878 89.5906 80.2406 89.7249 80.0042C89.8842 80.093 90.0408 80.1673 90.1742 79.9694C90.324 79.9782 90.4714 79.9839 90.6215 80.0597C90.7776 80.2072 90.8883 79.8015 91.0354 79.9029C91.1706 79.8517 91.2965 79.7144 91.4393 79.8469C91.5817 79.9657 91.6975 79.7912 91.8317 79.8975C92.076 79.8065 92.3115 79.8004 92.5271 79.7876C92.7167 79.4386 92.9594 80.027 93.1143 79.7786C93.2745 79.6001 93.4511 79.9329 93.5575 79.708C93.7961 79.5933 93.9626 79.9462 93.9419 79.6783C93.9336 79.5712 93.8704 80.0045 93.7257 80.14C93.6689 80.4062 93.5736 80.3668 93.4928 80.637C93.4134 80.9259 93.2736 80.5605 93.2101 81.2408C93.1739 81.5224 93.1338 81.7763 93.0682 81.6989C93.0155 81.7899 92.9682 81.964 92.9042 81.9217C92.8713 82.2834 92.8129 82.3071 92.7604 82.4063C92.7188 82.6406 92.6357 82.3373 92.5945 82.555C92.5427 82.636 92.4961 82.7689 92.4543 82.9432C92.4133 83.1267 92.3868 83.4703 92.32 83.2637C92.2227 83.3208 92.1325 83.3475 92.079 83.6558C91.9809 84.3889 91.8316 83.7145 91.8627 84.1175C91.8706 84.2192 91.7226 83.6988 91.5623 84.1407C91.4481 83.9213 91.3405 84.0671 91.2102 84.1679C91.0993 84.5197 90.8805 83.7187 90.745 84.2038C90.5684 84.157 90.3918 84.323 90.176 84.162C89.9619 84.0229 89.7697 84.3381 89.5383 84.2971C89.3203 84.4212 89.0648 84.211 88.8218 84.2628C88.5783 84.308 88.3284 84.384 88.0697 84.4106C87.8165 84.517 87.5319 84.28 87.2804 84.5216C87.0149 84.5751 86.7534 84.7229 86.4659 84.5345C86.2113 84.7725 85.9373 84.7662 85.6542 84.6126C85.3972 84.798 85.1204 84.6902 84.8539 84.659C84.5828 84.5623 84.3243 84.5702 84.0849 84.7185C83.8436 84.8488 83.5921 84.7395 83.3616 84.7744C83.127 84.7562 82.8949 84.6344 82.6894 84.691C82.4707 84.5781 82.2997 84.9114 82.1154 84.8706C81.9257 84.761 81.7615 84.7819 81.6181 84.8282C81.4664 84.7662 81.3365 84.7592 81.2426 84.9381C80.9953 84.8769 80.8615 84.9186 80.8653 84.9672C80.7592 84.5882 80.7144 85.002 80.6729 85.4524C80.6036 85.5413 80.5336 85.616 80.4788 85.8859C80.4167 86.0623 80.3405 86.0407 80.2937 86.4002C80.2362 86.6219 80.1348 86.2678 80.1008 86.7852C80.03 86.821 79.9775 87.0918 79.9168 87.2505C79.8604 87.4644 79.8006 87.6202 79.732 87.6618C79.7353 87.7045 79.8386 87.8049 80 87.6411C80.096 87.7608 80.1856 87.5399 80.3157 87.6217C80.4481 87.7341 80.5775 87.585 80.7333 87.5845C80.8665 87.2926 81.0476 87.4199 81.2422 87.5572C81.4054 87.2872 81.6401 87.7795 81.8262 87.5C82.0474 87.6738 82.2518 87.5018 82.472 87.4193C82.6921 87.3369 82.9213 87.2642 83.173 87.396C83.6804 87.7209 84.1572 87.3265 84.668 87.2804C85.1826 87.2825 85.6882 87.0839 86.2053 87.1617C86.4985 86.9872 86.8031 87.0176 87.0926 86.9462C87.3821 86.8749 87.6677 86.8529 87.9568 87.0263C88.5245 87.236 89.0157 87.0512 89.4343 86.9122C89.8474 86.7092 90.1944 86.6384 90.4548 86.8333C90.7186 87.0731 90.84 86.864 90.8354 86.8039C90.8387 86.846 90.7812 87.3537 90.6191 87.2656C90.4878 87.5755 90.2856 87.7121 90.1036 88.3669C89.9116 88.8922 89.6771 89.1176 89.4886 89.6811C89.4027 90.0716 89.2992 90.1759 89.2059 90.2849C89.1016 90.25 89.0538 90.8257 88.9731 90.7824C88.8122 90.7102 88.7753 91.483 88.7568 91.2441C88.7637 91.3332 88.5876 91.2132 88.3004 91.2794C88.0144 91.3603 87.5851 91.2175 87.0943 91.3726C86.5967 91.4407 86.025 91.6356 85.3845 91.5047C85.1555 91.6016 84.9063 91.5163 84.6633 91.5604C84.3921 91.2398 84.1674 91.5701 83.9191 91.6179C83.6647 91.5864 83.4158 91.6469 83.1663 91.6997C82.9168 91.7526 82.6677 91.7977 82.4126 91.7343C82.1108 91.7186 81.8312 91.9327 81.5316 91.8024C81.2281 91.6141 80.9581 91.767 80.6956 91.867C80.4477 92.1546 80.1837 92.0925 79.9284 91.9483C79.799 91.8538 79.6781 91.8202 79.5652 91.8311C79.4522 91.8421 79.3465 91.897 79.2479 91.9794C79.154 92.1231 79.0537 92.1264 78.9673 92.2381C78.884 92.3903 78.7715 92.0993 78.6901 92.1402C78.5192 92.116 78.3781 92.1852 78.2482 92.0561C78.0025 91.9871 77.8853 92.214 77.8753 92.0849C77.8062 92.2701 77.7441 92.5246 77.6738 92.6521C77.5905 92.6041 77.5375 92.9256 77.4707 93.0479C77.4054 93.1833 77.3409 93.3065 77.2751 93.3771C77.2317 93.7456 77.1739 93.8909 77.1081 93.9119C77.0638 94.2112 76.9867 94.05 76.9483 94.3604C76.907 94.6342 76.8526 94.7094 76.7911 94.6641C76.7661 95.0917 76.687 94.7832 76.6557 95.0639C76.6251 95.3551 76.5723 95.3217 76.5235 95.3057C76.4233 95.2458 76.384 95.8385 76.3192 95.9513C76.2661 96.2216 76.2044 96.2313 76.1508 96.1953C76.0715 96.4852 76.0469 96.8595 76.0197 96.5079C76.0408 96.7807 75.8754 96.678 75.5951 96.5407C75.4705 96.6719 75.2748 96.2498 75.1137 96.5669C74.9342 96.6462 74.7215 96.5829 74.4999 96.6253C74.2906 96.8263 74.0482 96.8142 73.7821 96.6456C73.5396 96.7815 73.2704 96.7159 73.0027 96.741C72.8636 96.6858 72.7309 96.7334 72.5941 96.7369C72.4573 96.7403 72.3209 96.7552 72.1871 96.804C71.8989 96.6349 71.6241 96.6473 71.3715 96.8671C71.1005 96.8501 70.8418 96.919 70.584 96.8586C70.3299 96.8442 70.0878 96.8365 69.8743 96.9828C69.6373 96.8267 69.4369 96.9209 69.2502 96.9083C69.0636 96.8958 68.9027 96.922 68.7791 97.0674C68.5227 97.2384 68.368 97.2741 68.3545 97.1002C68.3615 97.1904 68.277 96.791 68.1769 96.8114C68.1299 96.8601 68.0494 96.6266 67.9635 96.4726C67.8918 96.5029 67.7768 96.1163 67.672 95.9897C67.6134 95.8468 67.546 95.632 67.4992 95.7049C67.4377 95.5958 67.3859 95.6411 67.3078 95.3809C67.2518 95.4067 67.1441 94.7929 67.0995 95.0235C67.038 95.0354 66.9462 94.6916 66.8802 94.7022C66.7955 94.4778 66.7117 94.2879 66.6295 94.1529C66.5472 94.0179 66.4675 93.9372 66.3913 93.9315C66.2294 93.7955 66.0321 93.3152 65.8415 93.0153C65.8373 92.9606 65.6397 93.1343 65.2703 93.0594C65.0948 93.1401 64.8594 92.9394 64.6203 93.0915C64.3751 93.1644 64.0953 93.1832 63.789 93.1739C63.5951 93.2956 63.3693 93.1409 63.1537 93.2246C62.9308 93.2149 62.7039 93.2599 62.4686 93.2759C62.0022 93.3598 61.5196 93.5429 61.0033 93.3891C60.7517 93.3943 60.4933 93.3323 60.2486 93.4475C60.0007 93.5205 59.7389 93.4005 59.4967 93.5056C59.3456 93.4947 59.1792 93.2721 59.0466 93.465C58.8955 93.4255 58.7581 93.5428 58.6163 93.5736C58.4657 93.4983 58.3217 93.4797 58.1912 93.6064C58.0567 93.6823 57.9052 93.5097 57.7803 93.6382C57.5044 93.5633 57.2434 93.54 57.0009 93.5609C56.7583 93.5819 56.5346 93.6475 56.332 93.7501C56.1309 93.8723 55.9534 94.0483 55.7742 93.917C55.6012 93.8671 55.4736 94.1107 55.3318 93.8274C55.0985 93.9186 54.9547 93.8015 54.9589 93.8562C54.9394 93.6041 54.8374 93.5345 54.6743 93.4332C54.5616 92.9766 54.4488 92.7098 54.3676 92.9751C54.3395 93.2693 54.2353 92.6075 54.2003 92.8692C54.1282 92.651 54.0516 92.3967 53.9957 92.4241C53.9311 92.3384 53.8391 91.9198 53.7909 92.0693C53.7125 91.8262 53.6686 92.0446 53.5812 91.7005C53.4613 91.7141 53.3161 91.4014 53.1855 91.2201C53.0504 90.9726 52.9555 91.1889 52.8149 90.685C52.6873 90.3494 52.6187 90.6561 52.507 90.211C52.3299 89.9282 52.2183 89.7355 52.2223 89.788C52.2213 89.7749 52.3769 90.0005 52.603 89.7586C52.7175 89.6541 52.8636 89.6142 53.0358 89.6108C53.2079 89.6074 53.4141 89.7444 53.6234 89.6798C53.8253 89.5184 54.0637 89.5787 54.3206 89.6782C54.5799 89.8088 54.8297 89.6245 55.1009 89.5656C55.3781 89.5849 55.6637 89.5628 55.9562 89.5303C56.1025 89.5141 56.2502 89.495 56.3996 89.4768C56.5491 89.4587 56.7083 89.5459 56.8524 89.4303C57.3704 89.5267 57.8762 89.322 58.3897 89.3115C58.8886 89.1107 59.3921 89.0624 59.8848 89.196C60.1325 89.2846 60.3679 89.2851 60.5918 89.2502C60.8167 89.2301 61.0374 89.262 61.2315 89.0919C61.4508 89.2416 61.6215 88.9056 61.8164 89.0467C62.0016 89.0621 62.1646 88.9555 62.3245 89.0075C62.6301 88.9222 62.8845 88.9548 63.0577 88.9508C63.2338 88.9779 63.3213 88.8727 63.3257 88.9301C63.2366 88.706 63.1681 88.7564 63.0781 88.5279C62.9857 88.276 62.8896 87.9771 62.8267 88.1205C62.7508 88.089 62.6504 87.7552 62.5721 87.7079C62.4778 87.4523 62.3822 87.188 62.315 87.2905C62.2508 87.439 62.1437 87.032 62.057 86.8979C61.9557 86.5725 61.8712 86.4734 61.7919 86.4416C61.7863 86.3683 61.6997 86.5488 61.5118 86.4632C61.434 86.6287 61.3137 86.5088 61.1787 86.435C61.0466 86.3991 60.8989 86.3819 60.7473 86.5223C60.4034 86.2766 60.0321 86.4829 59.612 86.61C59.1813 86.5987 58.7072 86.5919 58.2202 86.7175C57.9656 86.6399 57.7315 86.8994 57.4639 86.776L56.6862 86.8361C56.1696 86.9502 55.6507 87.0987 55.1236 86.9568C54.6227 87.1523 54.095 86.8152 53.6462 87.071C53.3648 86.9618 53.1017 86.9458 52.869 87.131C52.6271 87.1899 52.384 87.0393 52.1825 87.1841C51.9874 87.4126 51.7911 87.3744 51.6222 87.3984C51.4533 87.4225 51.3026 87.3879 51.1713 87.2622C50.9267 87.2355 50.797 87.3302 50.794 87.2914C50.8024 87.4007 50.6816 87.0877 50.5094 86.8684C50.4146 86.6431 50.3112 86.4993 50.1997 86.372C50.0895 86.2617 49.9715 86.1784 49.8308 85.8593C49.7091 85.7862 49.5598 85.4193 49.4226 85.2176C49.2826 84.9716 49.1397 84.6884 49.0206 84.6553C48.8928 84.5034 48.7606 84.237 48.6538 84.1704C48.5276 83.8524 48.438 83.8874 48.3421 83.6467C48.1674 83.3885 48.0551 83.1931 48.0575 83.2237C48.0482 83.1035 48.1641 83.281 48.3431 83.2017C48.424 83.0475 48.5376 83.0524 48.676 83.1419C48.8152 83.2416 48.9708 83.3171 49.123 83.1414C49.2885 83.1391 49.5037 83.5779 49.6613 83.0932C49.8656 83.2133 50.0638 83.0825 50.2802 83.052C50.3748 82.8604 50.5026 83.0557 50.6162 83.0458C50.7203 82.9058 50.8343 82.8645 50.964 82.9992C51.0662 82.7768 51.2132 83.1064 51.3299 83.0226C51.4583 83.0897 51.5762 82.9915 51.6989 82.9424C51.8298 82.9994 51.9604 83.0305 52.09 83.0343C52.2196 83.038 52.3487 83.0143 52.4763 82.9637C52.7278 82.815 52.9823 82.6546 53.2631 82.8215C53.519 82.6648 53.7818 82.5834 54.0485 82.5667C54.3151 82.5499 54.5857 82.5972 54.8565 82.6984C55.3826 82.7006 55.9101 82.9057 56.3625 82.582C56.6341 82.4939 56.9296 82.8644 57.1587 82.5755C57.41 82.5742 57.6445 82.5561 57.8542 82.4668C58.2834 82.4149 58.6686 82.7949 58.8846 82.3872C59.1317 82.3818 59.2769 82.4586 59.2691 82.3574C59.1069 81.9179 58.9697 81.8009 58.8289 81.6451C58.6874 81.4795 58.5285 81.0891 58.3881 80.9317C58.2316 80.5725 58.0894 80.3982 57.9468 80.2183C57.8252 79.8955 57.7305 79.9149 57.62 79.7288C57.5098 79.547 57.4135 79.5445 57.2869 79.1506C57.1818 79.0339 57.0769 78.9204 56.9643 78.7014C56.8647 78.6492 56.7531 78.4411 56.6304 78.0903C56.5299 78.0277 56.4211 77.8485 56.3091 77.6218C56.1965 77.3951 56.083 77.1492 55.9808 77.041C55.7705 76.7581 55.5444 76.2487 55.3401 76.007C55.3183 75.7249 55.3963 75.77 55.5438 75.9913C55.6715 75.9561 55.8661 76.0577 56.0815 75.9497C56.3058 75.9561 56.571 76.006 56.8448 75.9315C57.1389 76.1194 57.4087 75.7504 57.7128 75.8237C58.0157 75.8828 58.3222 75.9878 58.5882 75.8127C58.8642 75.7666 59.1207 75.7034 59.344 75.6977C59.7855 75.6195 60.0896 75.6939 60.0855 75.6404C60.1816 75.6472 60.3023 75.8871 60.4216 76.0214C60.5513 76.2996 60.6448 76.0212 60.792 76.3684C60.9327 76.6298 61.0593 76.6387 61.1896 76.6232C61.3239 76.6584 61.4747 76.8442 61.6243 76.9493C61.7642 76.9297 61.9263 77.1333 62.08 77.1693C62.2372 77.2517 62.3985 77.3306 62.5602 77.3643C62.912 77.7985 63.2451 77.7893 63.5764 77.5938C63.922 77.5902 64.276 77.5309 64.6496 77.6181C64.7977 77.6825 64.9293 77.5481 65.0674 77.5264C65.2082 77.532 65.3328 77.3497 65.4805 77.4879C65.6101 77.3926 65.7661 77.6594 65.8791 77.3988C66.0231 77.5395 66.1189 77.0766 66.2605 77.2368C66.3844 77.1661 66.5101 77.1482 66.6316 77.1118C66.7531 77.0755 66.8715 77.0207 66.9802 76.8753C66.9637 76.6621 66.9125 76.7711 66.7905 76.566C66.6715 76.3987 66.4774 75.8527 66.2828 75.7368C66.1671 75.4416 66.0761 75.5718 65.9352 75.135C65.8005 74.7863 65.6742 74.6321 65.548 74.5363C65.4864 74.5113 65.4119 74.3334 65.3364 74.1577C65.2653 74.0378 65.1968 73.9672 65.1237 73.843C65.0631 73.8818 64.982 73.6686 64.9135 73.6261C64.8304 73.3938 64.7543 73.26 64.6766 73.1125C64.5892 72.8399 64.5035 72.5885 64.4243 72.4291C64.3452 72.2697 64.2731 72.2026 64.2132 72.2991C64.0643 72.1093 63.9073 71.8085 63.7597 71.6148C63.6653 71.2508 63.6189 71.5013 63.5251 71.1313C63.4307 70.753 63.341 70.4294 63.3127 70.8848C63.2331 70.6764 63.175 70.7403 63.1005 70.5772C63.0292 70.4546 62.9579 70.3193 62.8884 70.1916C62.7432 69.8568 62.6214 69.7606 62.4951 69.5135C62.3602 69.1615 62.268 69.2775 62.1536 68.991C62.0599 68.9801 61.945 68.5869 61.8622 68.4734C61.7747 68.3058 61.6997 68.1725 61.6459 68.1618C61.5409 68.1765 61.4649 67.9657 61.4562 67.8525C61.2995 67.984 61.156 68.2222 60.9957 68.1708C60.8566 68.3944 60.7108 68.4524 60.5734 68.5334C60.4284 68.5237 60.3091 68.7601 60.1919 68.9374C60.0674 69.0213 59.9551 69.1691 59.8547 69.3788C59.7406 69.4107 59.6383 69.495 59.5575 69.7581C59.4799 70.0628 59.3747 69.9021 59.326 70.359C59.2584 70.5716 59.1991 70.783 59.1468 70.9713C59.0945 71.1596 59.0503 71.3247 59.0125 71.4437C59.0138 71.4601 58.8468 71.5445 58.5528 71.4792C58.2812 71.7037 57.8604 71.4997 57.4033 71.568C56.931 71.4406 56.4406 71.8299 55.9088 71.6835C55.6463 71.6537 55.3965 71.7896 55.1475 71.8424C54.8986 71.8952 54.6542 71.9141 54.4143 71.799C53.9423 71.6754 53.5557 71.9137 53.2648 71.8878C52.9705 71.8198 52.7998 71.855 52.805 71.9233C52.6968 72.0092 52.5267 71.2667 52.4172 71.2938C52.2677 70.8038 52.1588 70.81 52.0425 70.7002C51.9064 70.3323 51.7568 69.7696 51.6792 70.1095C51.561 69.9244 51.4762 70.1494 51.3307 69.5605C51.2104 69.2987 51.0936 69.0525 50.983 68.8647C50.8723 68.6769 50.7689 68.5463 50.6753 68.5156C50.4881 68.4519 50.2485 67.5893 50.0845 67.5767C49.8936 67.2158 49.7172 66.8983 49.5646 66.755C49.4714 66.4641 49.4035 66.4567 49.3375 66.4393C49.2567 66.231 49.2002 66.2997 49.1233 66.0626C49.037 65.7035 48.9875 65.7854 48.9273 65.6861C48.8665 65.5786 48.79 65.2242 48.7662 65.5099C48.6684 65.7105 48.5372 65.4357 48.3921 64.9305C48.2843 64.9146 48.1333 64.2905 48.0385 64.3445C47.9465 64.4336 47.8241 64.0861 47.7204 63.9313C47.6452 63.5521 47.5973 63.5113 47.561 63.6065C47.5132 63.5519 47.463 63.4601 47.4016 63.2085C47.2983 62.9585 47.1557 62.1429 47.1214 62.6719C47.0619 62.8811 46.9069 61.7974 46.863 62.0945C46.8322 62.1321 46.7842 61.9257 46.7391 61.7494C46.6804 61.3975 46.6459 61.338 46.6241 61.4343C46.5721 61.5126 46.4949 61.2067 46.43 60.9955C46.3595 60.7128 46.3486 61.1432 46.2609 60.5169C46.2605 61.0191 46.1894 60.5428 46.1108 59.9042C46.0736 59.801 46.0369 59.6344 45.9963 59.3592C45.9386 58.8549 45.9336 58.9697 45.9133 58.8134C45.8833 58.5325 45.8865 58.6098 45.8658 58.3067C45.8565 58.1507 45.8799 58.3463 45.845 57.7154C45.8336 57.389 45.8869 57.8211 45.8723 57.2964C45.8911 57.2036 45.8861 56.731 45.9137 56.6029C45.9414 56.4748 45.9722 56.3008 46.0057 56.0914C46.0195 55.6196 46.0737 55.5906 46.1267 55.4694C46.1834 55.3875 46.2339 55.1471 46.2899 54.8925C46.3777 55.0496 46.4269 54.6206 46.4922 54.307C46.5438 53.8234 46.6217 53.5875 46.734 53.7042C46.8553 53.944 46.9387 53.6004 47.0179 53.1086C47.1458 53.2484 47.2308 52.7468 47.3526 52.6219C47.4653 52.3778 47.5816 52.0888 47.7109 51.8671C47.832 52.2334 47.8779 51.5682 47.9713 51.4763C48.0501 51.1941 48.177 51.4846 48.2557 51.1094C48.3566 51.0208 48.4622 50.9433 48.5592 50.718C48.6489 50.3992 48.7574 50.2797 48.8905 50.4433C49.0179 50.5335 49.1189 50.2458 49.2335 50.0989C49.3481 49.952 49.4664 49.8235 49.6004 49.8632C49.856 49.7824 50.1095 49.5587 50.3723 49.363C50.5564 49.3498 50.7227 49.0576 50.9144 49.0714C51.1125 49.16 51.2546 48.4973 51.4739 48.8109C51.6718 48.8478 51.8264 48.2958 52.0525 48.6545C52.2222 48.2839 52.4375 48.4895 52.6288 48.3768C52.8166 48.2187 53.0099 48.1251 53.2062 48.077C53.4025 48.0288 53.6028 48.0254 53.804 48.0473C54.2142 48.1938 54.5958 48.0125 54.9674 47.8083C55.3705 48.0131 55.7334 47.8041 56.0864 47.6465C56.4334 47.4112 56.7978 47.5717 57.1286 47.5478C57.5538 47.5172 57.9492 47.4998 58.3033 47.4912C58.6486 47.3765 58.9548 47.2995 59.2278 47.4868C59.4638 47.1936 59.6894 47.4605 59.8332 47.5061C59.943 47.1104 60.0853 47.9722 60.0503 47.519C60.0685 47.7557 60.1352 47.9029 60.2292 47.8181C60.3598 48.2073 60.4799 47.8735 60.7204 48.6404C60.8432 49.0571 60.9456 49.096 61.0618 49.2119C61.1791 49.3436 61.2911 49.3047 61.4559 49.8717C61.6188 50.4146 61.7237 50.1205 61.885 50.4848C62.0596 51.0284 62.179 50.786 62.3684 51.3984C62.4426 51.6231 62.5102 51.7543 62.575 51.8422C62.6399 51.9302 62.7019 51.9749 62.7649 52.0261C62.8961 52.2008 63.0658 52.8444 63.1805 52.7563C63.274 52.4004 63.4537 53.1383 63.589 53.3022C63.7332 53.5743 63.8514 53.5091 64.0264 54.1721C64.1191 54.4344 64.1656 54.1074 64.2755 54.6C64.3633 54.8066 64.4507 55.0083 64.522 55.0017C64.674 55.1165 64.8394 55.4117 65.0107 55.8198C65.1606 55.944 65.3294 56.3402 65.4837 56.5857C65.6428 56.8935 65.7936 57.1359 65.9403 57.3754C66.2311 57.8205 66.4753 57.8709 66.7595 58.746C66.9724 58.6976 67.261 59.9448 67.4131 59.8395C67.5781 59.901 67.7596 60.5915 67.8459 60.5634C67.9389 60.6228 68.0026 60.8252 68.0026 60.8252L68.7259 60.7693C69.122 60.5116 69.6513 60.6395 70.0693 60.6655C70.4961 60.8047 70.7943 60.6304 70.7927 60.6096C70.7889 60.5599 70.8296 60.4869 70.9031 60.3365C70.9764 60.184 71.0876 60.0209 71.2088 59.5809C71.2847 59.5623 71.3124 58.8122 71.4232 59.0517C71.4882 58.6991 71.5826 58.6406 71.6718 58.4368C71.7196 58.3759 71.7703 58.3308 71.8025 58.0324C71.8755 58.2627 71.8871 57.6766 71.9422 57.6459C71.9938 57.5622 72.0156 57.0798 72.0899 57.2616C72.137 57.0913 72.2212 57.3884 72.2536 56.9992C72.3337 57.2285 72.3663 56.8277 72.4227 56.7277C72.5077 56.9989 72.5243 56.3695 72.5769 56.1999C72.6433 56.2074 72.6822 55.8458 72.7348 55.6541C72.8115 55.7747 72.8327 55.1692 72.9161 55.3624C72.9308 54.8156 73.0138 55.1464 73.0668 55.0818C73.1165 54.9811 73.1639 54.8433 73.2071 54.6441C73.2571 54.5413 73.2888 54.1934 73.3577 54.3267C73.4225 54.408 73.4349 53.8032 73.502 53.914C73.5494 53.7613 73.5778 53.3708 73.6255 53.2236C73.6702 53.0364 73.756 53.3824 73.7813 52.9514C73.8891 52.8237 73.9797 52.4664 74.0948 52.4476C74.1917 52.1849 74.26 51.5669 74.3887 51.739C74.5013 51.7088 74.5948 51.4459 74.6739 51.0174C74.7081 50.7375 74.78 50.947 74.8103 50.6306C74.863 50.5979 74.8974 50.3417 74.9421 50.2195C75.0258 49.9083 75.1248 49.8236 75.2158 49.6786C75.2729 49.0955 75.3803 49.1978 75.4571 48.9471C75.5319 48.6713 75.6195 48.6106 75.6982 48.4852C75.7933 48.3145 75.8809 48.1262 75.9547 47.851C76.0333 47.6381 76.1365 47.8298 76.176 47.3042C76.2544 47.2817 76.3229 47.2313 76.3671 46.9886C76.4217 46.8793 76.479 46.9206 76.4924 46.5224C76.5335 45.9093 76.5897 46.0155 76.607 46.2397C76.6314 46.5546 76.7074 46.2589 76.8826 46.181C76.9778 46.2396 77.0613 45.8828 77.2128 46.1632C77.36 46.3883 77.4912 46.1697 77.6461 46.0439C77.8085 46.0148 77.9741 45.8123 78.1815 45.9717C78.3718 45.9031 78.5757 45.8323 78.802 45.8869C79.2433 45.849 79.7655 46.2288 80.256 45.7696C80.5383 46.019 80.7856 45.716 81.0698 45.8112C81.348 45.8299 81.6311 45.8317 81.9121 45.7511C82.4899 45.7989 83.0763 45.7579 83.6755 45.8899C83.8257 45.9321 83.9778 45.9913 84.1204 45.9347C84.2748 46.0316 84.4404 46.2795 84.5631 45.9791C84.7089 45.9788 84.8701 46.1842 85.0125 46.1534C85.1655 46.2609 85.3168 46.3598 85.4505 46.245C85.578 46.2786 85.7093 46.3762 85.8332 46.3859C85.9449 46.2359 86.0734 46.3261 86.2092 46.5174C86.3394 46.6372 86.4456 46.4673 86.5768 46.6342C86.7205 46.9641 86.8028 46.5134 86.9383 46.7796C87.0444 46.6581 87.1645 46.7401 87.2975 47.0087C87.4215 47.1624 87.512 46.9035 87.6412 47.174C87.708 46.6376 87.854 47.14 87.9703 47.2927C88.096 47.5679 88.1647 47.1281 88.2991 47.5649C88.4203 47.8327 88.5105 47.7339 88.6126 47.8184C88.6648 47.2572 88.812 47.9531 88.906 47.9981C88.9725 47.685 89.1012 48.2064 89.1966 48.3409C89.299 48.5568 89.3697 48.4067 89.4678 48.64C89.5953 48.7165 89.7582 49.3095 89.8538 49.1091C89.974 49.2202 90.1057 49.545 90.2092 49.575C90.3016 49.4551 90.4171 49.7057 90.5344 50.0377C90.6037 49.7469 90.7653 50.7156 90.8302 50.4977C90.9039 50.393 91.0094 50.7572 91.0908 50.8742C91.1996 51.3454 91.2262 50.8098 91.3356 51.4113C91.4362 51.898 91.4784 51.6863 91.5403 51.7865C91.6334 52.2903 91.6272 51.567 91.7307 52.3196C91.7544 52.0395 91.8573 52.8428 91.8884 52.7728C91.9624 53.2582 91.9441 52.5996 92.0201 53.2257C92.0436 53.1656 92.0096 52.4174 92.1307 53.7275C92.1625 53.8818 92.2017 54.189 92.2095 54.1329C92.2091 54.035 92.2411 54.3774 92.2335 54.2284C92.2575 54.4828 92.2983 54.9747 92.2766 54.6793C92.2603 54.432 92.3393 55.4902 92.3107 55.2284C92.3031 55.2372 92.3126 55.5384 92.3068 55.7066C92.3617 56.6605 92.3095 56.2993 92.2831 56.3371C92.2998 56.9315 92.2716 57.0106 92.2219 56.8748C92.1766 56.7963 92.1611 57.16 92.1354 57.4645C92.1316 58.0445 92.0698 57.9376 92.0195 58.0372C91.9784 58.2571 91.954 58.7485 91.8769 58.6169C91.8491 59.1212 91.7763 59.1016 91.7067 59.1806C91.6399 59.2963 91.5899 59.6781 91.5159 59.8004C91.4433 59.9473 91.3773 60.2231 91.2996 60.4056C91.1939 60.224 91.1293 60.6256 91.061 61.0208C90.9737 61.1716 90.9162 61.7641 90.8002 61.6355C90.7166 61.934 90.5882 61.6876 90.521 62.2841C90.5047 62.6665 90.4367 62.4226 90.3939 62.5491C90.3133 62.1852 90.2923 62.6356 90.253 62.8851C90.2048 63.0191 90.1557 63.1846 90.0956 63.2432C90.0184 63.0808 90.0008 63.7323 89.9233 63.6376C89.8629 63.7705 89.788 63.7521 89.7334 64.0252C89.6551 63.9994 89.6038 64.3509 89.5358 64.5294C89.4745 64.7872 89.3903 64.7843 89.3126 64.9004C89.2616 65.3564 89.1746 65.3813 89.0963 65.5479C88.9871 65.3144 88.9214 65.6731 88.8636 66.1693C88.7792 66.3144 88.6903 66.4362 88.6092 66.6812C88.5028 66.5981 88.4282 66.9553 88.3393 67.1492C88.2647 67.5279 88.166 67.624 88.0809 67.9166C87.9808 68.0156 87.9013 68.409 87.7993 68.5263C87.6961 68.6355 87.5952 68.788 87.5153 69.2424C87.5047 69.1046 87.3074 68.7964 87.0556 69.2779C86.9056 69.2092 86.7376 69.281 86.5391 69.2364C86.3594 69.434 86.1374 69.3714 85.9061 69.3667C85.6686 69.2899 85.4252 69.3208 85.1764 69.3692C84.9276 69.4176 84.6721 69.4852 84.4116 69.4822C84.1435 69.3808 83.9084 69.7053 83.6449 69.5706C83.3779 69.3894 83.1514 69.6412 82.9171 69.5977C82.6839 69.5755 82.4787 69.7234 82.2925 69.8368C82.1062 69.9502 81.9364 69.9985 81.7676 69.6865C81.4839 69.7552 81.3146 69.8095 81.3079 69.722C81.2407 69.4676 81.2059 69.7541 81.0964 69.195C81.0228 69.1005 80.9515 69.1572 80.8315 68.6984C80.7293 68.4632 80.6254 68.326 80.5178 68.2359C80.3891 67.8784 80.2806 67.8824 80.1585 67.811C80.023 67.5663 79.8853 67.3855 79.7553 67.3983C79.6411 67.6156 79.4885 67.4211 79.3184 67.0861C79.1775 67.1289 79.0177 67.0054 78.8531 66.8916C78.6932 66.8462 78.5265 66.776 78.3415 66.5489C78.338 66.5035 78.2844 66.5824 78.2016 66.8836C78.1675 67.1288 78.112 67.247 78.0519 67.4348C78.0065 67.8123 77.9254 67.856 77.8273 67.781C77.7452 67.9199 77.676 68.3323 77.5864 68.5609C77.4929 68.7452 77.383 68.8021 77.2857 69.0802C77.2421 69.2893 77.1901 69.4027 77.1275 69.3927C77.0736 69.4959 77.0202 69.6205 76.9729 69.8304C76.8472 69.8549 76.7432 70.1974 76.6433 70.6209C76.5885 70.7698 76.5457 71.0729 76.4729 70.996C76.3995 70.912 76.3655 71.3376 76.3031 71.4018C76.2445 71.5081 76.196 71.7538 76.1253 71.7032C76.0678 71.8248 76.0134 71.9863 75.9674 72.2418C75.9061 72.3064 75.8607 72.569 75.7931 72.539C75.7292 72.555 75.6937 72.9317 75.6392 73.0492C75.5796 73.1 75.5363 73.3547 75.482 73.453C75.4383 73.6885 75.3836 73.7669 75.3251 73.7825C75.2635 73.7575 75.2257 74.0255 75.185 74.236C75.1451 74.4564 75.0875 74.4262 75.0352 74.45C74.9666 74.9558 74.8672 74.9778 74.7829 75.0817C74.6866 75.0369 74.624 75.32 74.5737 75.628C74.484 75.4315 74.4668 76.0455 74.4086 75.9791C74.3406 76.4727 74.278 76.4347 74.2687 76.3138C74.5112 76.3556 74.7802 76.6049 75.0353 76.5604C75.3041 76.6925 75.5872 76.9027 75.8447 76.6887C76.1341 76.8869 76.3891 76.5548 76.6857 76.6897C76.8596 76.5663 77.0505 76.6912 77.2241 76.6206C77.4155 76.7879 77.5809 76.6475 77.7424 76.5003C77.931 76.7029 78.082 76.4548 78.2413 76.3633C78.4073 76.3592 78.5661 76.3052 78.7107 76.1174C78.865 76.0555 78.9979 75.7658 79.1499 75.781C79.2925 75.6737 79.4321 75.5865 79.5718 75.5636C79.8405 75.38 80.0831 75.1011 80.3049 74.8612C80.5448 74.8482 80.738 74.5313 80.8907 74.0333C80.9071 74.246 80.9763 74.1769 81.0944 74.0176C81.2348 74.1464 81.4156 74.0698 81.6321 73.976C81.8538 73.9485 82.1088 73.8671 82.3858 73.8336C82.6409 73.5164 82.9766 74.0003 83.2634 73.85C83.5629 73.8648 83.8589 73.8342 84.1357 73.7991C84.4126 73.7639 84.6709 73.7253 84.8946 73.7239C85.3462 73.7765 85.6536 73.8935 85.6361 73.6666C85.5877 73.8414 85.5307 73.9047 85.4791 74.0379C85.431 74.216 85.367 74.1962 85.3212 74.4115C85.2465 74.2523 85.1974 74.4249 85.1511 74.6413C85.099 74.7823 85.044 74.8845 85.0026 75.1638C84.9609 75.4398 84.8954 75.4152 84.8366 75.4687C84.8036 75.8639 84.7399 75.8551 84.6816 75.9228C84.6148 76.2949 84.5269 76.3874 84.4392 76.496C84.3637 76.757 84.2905 77.0536 84.1958 77.0714C84.0998 77.0733 84.0476 77.6427 83.9463 77.5752C83.8458 77.5186 83.7766 77.8749 83.7077 78.2278C83.6147 78.2752 83.5407 78.5614 83.465 78.834C83.414 79.4253 83.3151 79.3895 83.2183 79.3871C83.0296 79.4407 82.9018 80.2822 82.7298 80.5452L82.7309 80.5446Z" fill="#0A0A0A"/>
</svg>
