<?xml version="1.0" encoding="UTF-8"?>
<svg id="Layer_2" data-name="Layer 2" xmlns="http://www.w3.org/2000/svg" viewBox="0 0 260.58 74.61">
  <defs>
    <style>
      .cls-1 {
        fill: #84ee43;
      }

      .cls-2 {
        fill: #77df42;
      }

      .cls-3 {
        fill: #67d133;
      }

      .cls-4 {
        fill: #adfe7d;
      }
    </style>
  </defs>
  <g id="_Шар_1" data-name="Шар 1">
    <g>
      <path class="cls-1" d="M250.78,46.09c-2.38,1.33-5.08,2.22-7.94,2.86h-.01c-.32.07-.64.14-.96.2-11.14,2.24-17.82-6.74-17.07-14.04.04-.43.05-.86.01-1.27-.02-.26-.05-.51-.1-.76-1.23-6.3-10.87-10.6-16.24-2.47-5.94,8.99,10.99,41.38-15.59,43.81-.26.02-.52.04-.77.06-9.54.72-18.16-1.53-23.1-5.75-2.97-2.52-4.61-5.75-4.34-9.48.56-7.62,6.15-23.26-7.42-21.9-8.28.83-13.27,2.89-16.46,5.48l-.03.03c-2.27,1.84-3.61,3.96-4.55,6.09-1.18,2.64-1.74,5.31-2.71,7.5-.57,1.29-1.39,2.54-2.4,3.73-.06.07-.13.16-.21.25-8.34,9.5-29.3,14.78-40.44,3.88-12.62-12.36-9.65-33.7-21.53-27.52-4.65,2.42-6.45,5.26-7.68,7.83t-.01.02c-1.91,3.99-2.45,7.31-10.12,7.31-3.62,0-5.53-1.66-6.71-4.05-2.94-5.93-1.37-16.32-10.36-16.72-12.62-.57-.75,27.51-8.91,35.94-2.71,2.79-5.91,4.47-9.11,4.98-6.45,1.02-12.91-2.72-15.39-11.72-2.64-9.6,3.76-22.63,6.04-32.57,0-.02.02-.04.02-.07.05-.2.1-.42.14-.65,0-.03,0-.07.02-.11.62-2.92.83-5.55.29-7.71-.14-.55-.33-1.08-.57-1.57C2.12,8.71,2.86,1.41,18.45.29c18.47-1.33,24.49,2.25,49.73,3.37,25.24,1.12,29.69,1.12,51.21,0,21.53-1.12,23.01-3.37,47.51-1.68,24.49,1.68,37.11,5.61,52.7,1.68,4.33-1.09,9.29-1.71,14.23-1.61,5.99.12,11.94,1.3,16.7,3.98,5.44,3.04,9.32,8.03,9.89,15.6,1.06,13.96-3.13,20.84-9.64,24.46Z"/>
      <path class="cls-2" d="M151.21,26.56c-3.39,1.7-4.6,6.43-7.5,9.33-.66.66-1.43,1.13-2.27,1.42-.02,0-.03.01-.05.01h-.01c-2.84.94-6.48-.24-9.57-3.6-1.17-1.27-3.41-4.34-6.69-4.05-4.29.38-7.78,4.77-12.79,4.77-.43,0-.88-.04-1.34-.11-2.45-.39-4.74-3.8-7.06-5.89-2.6-2.32-5.1-3.27-5.1-3.27,0,0,1.18-1.62,4.25-1.06,3.29.6,6.6,4.67,8.85,4.99,4.35.63,7.94-5.2,13.83-5.95,7.93-1.02,14.35,11.96,17.82,8.5,5.75-5.75,7.63-5.09,7.63-5.09Z"/>
      <path class="cls-4" d="M104.59,23.01c2.66,2.34,6.96,4.91,10.48,4.29,3.52-.62,4.07-5.7,1.11-4.29-2.96,1.41-5.83,1.59-7.89-.25s-6.49-2.21-3.7.25Z"/>
      <path class="cls-4" d="M136.23,23.3c-2.88.59,2.75,9.19,6.99,7.06,2.43-1.22-.51-2.5-2.95-4.16-1.81-1.23-2.81-3.16-4.03-2.9Z"/>
      <path class="cls-4" d="M85.88,45.13c-4.06,4.77,11.41,23.09,24.05,20.89,12.64-2.2,15.54-15.43-2.86-13.17-11.64,1.43-15.23-14.74-21.19-7.72Z"/>
      <path class="cls-4" d="M169.32,54.5c-2.99,10.67,19.24,20.34,19.52,12.64.11-2.99-6.53-4.72-9.89-7.61-5.31-4.57-8.44-9.24-9.62-5.03Z"/>
      <path class="cls-4" d="M247.46,26.99c-3.5-.23-3.17,3.59-5.94,6.41-4.29,4.36-10.19,8.65-4.12,9.91,13.38,2.77,22.44-15.5,10.07-16.32Z"/>
      <path class="cls-4" d="M4.17,48.71c-2.53,12.44,4.67,22.56,13.19,15.41,1.74-1.46-5.89-2.9-6.64-7.56-1.33-8.27-5.33-13.85-6.55-7.85Z"/>
      <path class="cls-3" d="M44.4,47.9c-2.94-5.93-1.37-16.32-10.36-16.72-12.62-.57-.75,27.51-8.91,35.94-2.71,2.79-5.91,4.47-9.11,4.98h-.01s8.08-1.41,8.53-10.73-7.05-33.76,3.23-35.7c10.27-1.95,14.65,4.75,16.63,22.23Z"/>
      <path class="cls-3" d="M130.89,60.43c-8.34,9.5-29.3,14.78-40.44,3.88-12.62-12.36-9.65-33.7-21.53-27.52-4.65,2.42-6.45,5.26-7.68,7.83,1.8-8.4,5.43-13.82,11.52-13.82,6.39,0,7.04,3.1,10,15.29,2.96,12.18,11.67,22.91,26.94,22.07,13.85-.75,19.63-5.98,21.19-7.73Z"/>
      <path class="cls-3" d="M131.24,60c.37-.48,1.59-5.49,4.97-11.05-1.18,2.64-1.74,5.31-2.71,7.5-.57,1.29-1.39,2.54-2.4,3.73.06-.07.1-.13.14-.18Z"/>
      <path class="cls-3" d="M130.89,60.43c.07-.08.14-.17.21-.25-.06.07-.13.16-.21.25Z"/>
      <path class="cls-3" d="M169.01,68.73c-2.97-2.52-4.61-5.75-4.34-9.48.56-7.62,6.15-23.26-7.42-21.9-8.28.83-13.27,2.89-16.46,5.48,4.15-4.44,10.04-8.3,18.35-9.43,22.2-3.01-.15,21.75,9.87,35.33Z"/>
      <path class="cls-3" d="M224.71,33.08c-1.23-6.3-10.87-10.6-16.24-2.47-5.94,8.99,10.99,41.38-15.59,43.81-.26.02-.52.04-.77.06,5.76-1.79,10.35-5.12,11.19-7.99,1.95-6.66-13.33-28.46-3.33-39.5,9.92-10.95,22.96-7.3,24.74,6.09Z"/>
      <path class="cls-4" d="M45.07,3.73C28.12.21,12.76-.73,8.6,7.36c-1.5,2.92-1.5,7.56-1.46,11.91-.14-.55-.33-1.08-.57-1.57C2.12,8.71,2.86,1.41,18.45.29c18.47-1.33,24.49,2.27,49.73,3.37,27.69,1.21,30.27,1.14,51.21,0,21.53-1.17,23.01-3.37,47.51-1.68,24.49,1.68,37.11,5.61,52.7,1.68,4.33-1.09,9.29-1.71,14.23-1.61-10.9,1.29-23.98,6.79-38.3,6.95-24.45.28-40.84-9.16-67.22-4.44-26.39,4.72-56.12,4.79-83.24-.83Z"/>
      <path class="cls-3" d="M242.83,48.95c-.32.07-.64.14-.96.2-11.14,2.24-17.82-6.74-17.07-14.04.04-.43.05-.86.01-1.27,1.37,9.46,10.43,15.07,18.02,15.11Z"/>
      <path class="cls-4" d="M250.78,46.09c6.91-6.85,15.07-20.98,2.55-37.09-.89-1.15-1.82-2.13-2.8-2.97,5.44,3.04,9.32,8.03,9.89,15.6,1.06,13.96-3.13,20.84-9.64,24.46Z"/>
      <path class="cls-2" d="M44.49,15.28c3.14,1.64,3.38,10.11,12.57,10.78,9.19.67,6.1-6.58,10.99-6.28,4.89.3-2.76-4.5-6.33-1.71s-9.17,3.38-12.57-.85c-2.18-2.71-4.66-1.94-4.66-1.94Z"/>
      <path class="cls-4" d="M49.81,14.38c-3.58,1.04,4,6.55,7.01,4.07,1.85-1.52-.65-1.86-3.13-2.6-1.56-.46-2.89-1.76-3.87-1.47Z"/>
      <path class="cls-4" d="M43.79,41.6c-.8,3.14.3,7.55,3.13,8.97,4.32,2.18,11.2-.08,9.87-4.58-.93-3.16-5.12-.94-7.42-2.35-3.11-1.92-4.46-6.43-5.58-2.05Z"/>
      <path class="cls-3" d="M141.44,37.31s-.02.01-.06.02c-2.84.93-6.48-.25-9.57-3.61-1.17-1.27-3.41-4.34-6.69-4.05-4.29.38-7.78,4.77-12.79,4.77h-.01c.91-.06,6.5-2.93,9.36-5.66s6.56-3.12,8.61-.65c2.04,2.46,4.63,10.9,11.1,9.19.02,0,.03-.01.05-.01Z"/>
    </g>
  </g>
</svg>