<?xml version="1.0" encoding="UTF-8"?>
<svg id="Layer_2" data-name="Layer 2" xmlns="http://www.w3.org/2000/svg" viewBox="0 0 795.2 205.75">
  <defs>
    <style>
      .cls-1 {
        fill: #84ee43;
      }
    </style>
  </defs>
  <g id="Layer_1-2" data-name="Layer 1">
    <g>
      <path class="cls-1" d="M43.46,10.86v.59c.22.59.24,1.38.46,2.56q.2,0,.2.19l.02.99c.2,0,.4.19.63,1.96v.59c.02.59.23,1.38.45,2.56l.2.19.02.79s.4.39.65,2.95c.65,2.95,1.32,7.09,2.22,12.8q.2.19.2.39l.04,1.97c.2,0,.2.19.2.39v.59s1.08,4.13,1.08,4.13v.59c.02.2.02.59.23.98v.39c.21.19.21.39.22.59v.59c.21,0,.22.79.45,2.16l.87,4.33.2.19c.02.79.25,2.76.91,6.11,0,.39.02,1.18.24,2.17.2,0,.4.39.43,1.97q.2,0,.4.19c-.19.4-.18.99.04,1.97,0,0,.2.19.43,1.57v.39s.68,4.33.68,4.33q.2,0,.2.19v.2c.2.19.41.58,1.01.97.19-.2.57-1,.74-2.78,0-.39-.02-1.18.15-2.37l.72-3.77c-.2-.19-.21-.39-.02-.79-.01-.59.16-1.98.71-3.96-.01-.59-.03-1.38.15-2.37q0-.2.19-.2c-.01-.59-.03-1.58.14-2.97q.2,0,.19-.2l.53-3.37c-.03-1.58.53-3.37.85-7.32q.2,0,.19-.2l-.02-.79q.19-.2.19-.4l1.04-7.53.54-2.97-.02-.79c.19-.4.18-1.19.35-2.18l.55-2.18q-.2-.19,0-.39c-.01-.59-.03-1.38.15-2.37l-.02-.79.19-.2q0-.2-.2-.19l1.27-5.95.35-2.18.19-.2c-.01-.59-.02-1.18.16-1.78,0-.2-.02-.79,1.07-5.95l2.57-.05c4.34-.28,14.01-.46,29.22-.76,3.55-.07,5.33-.1,5.33-.1.39,0,.99.18,1.99.55.4.19.79.18.99.38.2,0,.6.38,1.01,1.17.61.78.94,7.88,1.19,21.11l.21,10.86.02.99.2,10.46.54,28.43v.59c.21.19.22.59.22.79,0,0,0,.2-.19.4l.04,1.97c.21.59.22.98.22,1.18-.19.6-.17,1.58-.15,2.77l.05,2.76v.59c.21.19.22.59.22.79q-.2,0-.19.2c-.15,2.57-.13,3.56-.14,3.16.02.79.23,1.97.46,3.35.25,2.56.3,5.13.15,7.7,0,.2,0,.39-.19.6v.59c.02.2.02.39.22.79.23,1.77.3,5.52.21,11.25-.15,2.37-.12,4.15.1,5.33l.2.19v.59c-.18.2-.14,2.18-.07,6.32l.49,25.47q-.2,0-.19.2l.02.79c.25,2.56.27,3.75.27,3.55-.1,4.94-.06,7.11-.07,6.91,0,.2,0,.39.21.79.26,3.35.33,6.71.18,9.67-.19.6-.18.99-.18.99,0,.2,0,.39.21.59l.15,7.9c0,.39.02.99-.16,1.78l.04,1.97c.12,6.12.16,8.49.33,7.1-.19.2-.18.79-.37,1.59l-.96,1.6c-.98.22-3.55.27-7.7.34-12.83.25-19.15.37-19.15.37l-3.36.06-.08-4.34c-.3-5.33-.44-12.63-.43-22.31.16-1.78.34-2.77.33-3.36q-.2,0-.4-.19c.39-.21.58-.8.37-1.39-.2-.39-.43-1.97-.48-4.73-.03-1.38.08-6.12.13-13.83.09-5.73,0-10.27-.27-14.02-.2-.19-.21-.59-.42-1.18l-.02-.99.36-1.98c-.22-.98-.25-2.56-.48-4.53.16-1.98.09-5.73.18-11.26.11-4.54.04-8.3-.02-11.26l-.07-3.55c-.02-.79-.23-1.97-.66-3.35-.59.01-1.36,1.41-1.45,6.74l.02,1.18c-.94,2.59-.52,3.96-3.02,17.83l-.5,4.55c-.19.2-.19.6-.37,1.19-.35,2.18-.88,5.55-1.39,9.9v.39c-.19.2-.18.6-.17,1.19,0,.39.01.59,0,.39-.19.2-.19.6-.18,1.19v.39s-.91,3.57-.91,3.57l.02,1.18c-.7,4.56-1.41,8.92-2.31,13.28.01.59-.16,1.78-.33,3.36-.19.2-.39.4-.57,1,.02.99-.15,2.37-.5,4.55l-.19.2.02.79c0,.2.01.59-.17,1.19,0,.39.01.59,0,.39-.19.4-.18.99-.36,1.78l-2.48,14.86c0,.39-.18,1.19-.35,2.18v.59s-.53,2.78-.53,2.78c-.19.6-.36,1.59-.53,3.37l-.74,2.58c-.59.21-2.37.24-5.72.31-2.96.06-4.74.09-5.33-.1-2.17-10.03-5.22-24.99-9.16-45.06-.22-.98-.24-2.37-.47-4.14-.2,0-.4-.39-.63-1.77l-.2-.19c-.01-.59-.02-.79-.01-.59l-.88-4.72-.66-3.74c-.01-.59-.23-1.58-.44-2.56-.01-.59-.22-1.18-.44-2.16,0-.39-.01-.59,0-.39-.21-.59-.42-1.37-.66-3.54v-.39s-.2,0-.2,0c-.23-1.77-.87-4.33-1.53-7.87l-.2-.19c-.01-.59-.03-1.58-.25-2.96v-.59c-.21,0-.44-1.57-.89-4.72q-.2-.19,0-.39h-.39c-.23-1.77-.48-4.33-1.14-7.87-.22-1.18-.45-2.95-1.09-5.31,0,0,0-.39-.82-1.76-.79.02-.55,1.99-.75,2.19-.2,0,0,.2.21.79-.1,4.94.23,12.24.61,21.52.39,9.87.72,16.97.81,21.51.02.99.06,2.96.31,5.72l.12,6.12.03,1.78c-.18.79-.17,1.39-.16,1.78.01.59.03,1.58.25,2.56l.05,2.57.58,30.21c.05,2.57.08,4.15-.11,4.74l-6.71.13c-.2,0-.59.01-.98.22-.6-.19-1.39-.17-2.37-.15-.2,0-.4,0-.79.21-3.94.27-7.1.33-9.28.18l-1.38.03c-2.36.24-4.34.08-5.93-.28-.2-.39-.23-1.58-.27-3.55l-.34-17.77c0-.2-.42-1.18-.42-1.37s.37-1.39.36-1.59c-.05-2.37-.55-8.29-.59-10.46l-.33-17.38c-.35-7.7-.46-13.62-.53-17.57-.12-6.32-.18-9.48-.18-9.48q0-.2-.2-.19c.19-.6.18-.79.19-.6l-.03-1.78c-.26-3.35-.33-6.91-.2-10.27,0,.39-.02-1.18-.29-4.93-.32-6.12-.4-10.66-.27-14.02.18-.79.16-1.98.33-3.56l-.03-1.58-.2-.19c.19-.4.19-.6-.01-.59,0-.2-.04-1.97-.3-5.33l-.2-.19-.02-.79q.2,0,.19-.2c.17-1.39.14-3.16-.11-5.53-.25-2.96-.29-4.93-.31-5.92C.79,41.89.52,27.68.52,27.68c0-.39-.02-1.18-.25-2.56-.04-2.17-.06-3.16-.06-3.16.18-.79.17-1.19.17-1.19,0,0,0-.2-.2-.39.13-3.56.1-4.94.11-4.35l-.06-2.96c0-.2-.01-.59-.22-1.18L0,10.7c-.02-.99.17-1.58.35-2.18l3.36-.06c.2,0,.79-.02,1.58-.23,2.96-.25,5.92-.31,8.89-.17.79.18,1.98.16,3.56.33l5.53-.11c4.55.11,6.32.08,5.33.1.79-.02,1.77-.23,2.75-.64,0,0,1.97-.04,5.92-.11,2.96-.06,4.74-.09,5.33.1l.85,3.14ZM14.41,103.26c.4,0,.59-.01.59-.21-.01-.59-.41-.98-1-.77-.19.6-.18.79-.18.79.2.19.4.19.6.19ZM56.68,196.27c-.01-.59-.41-.78-1.01-.97.01.59.22,1.18.82,1.37q0-.2.19-.4Z"/>
      <path class="cls-1" d="M149.43,21.54c.21.79.46,3.35,1.14,8.08.2,0,.2.19.4.39l.04,2.17c.2.19.21.79.42,1.37l1.18,9.85c.2.19.21.59.42,1.18-.16,2.18-.13,3.36.07,3.55h.39s1.21,11.62,1.21,11.62c.23,1.77.87,4.33,1.54,8.07.22.98.23,1.58.43,1.77-.2,0-.19.4.02,1.18.03,1.38.25,2.96.49,4.93.22,1.18.45,2.95,1.09,5.31l.04,2.17c.7,5.52,1.36,9.45,2.54,19.11.25,2.76.72,6.7,1.6,11.62l.04,2.17c.47,4.14.93,7.29,1.57,9.85-.19.6-.18.99.02.79-.19.6.03,1.58.45,2.76h.4c.22,1.17.25,2.95.5,5.32l2.1,16.75,1.08,4.92,1.01,11.63,1.81,12.01c.69,4.92.97,9.46,1.04,13.21l-.58.41.63,1.77c.25,2.96.29,4.73.09,4.94l-4.13,1.07-4.36-.51-3.15.65c-2.96.25-6.12-.08-9.3-.81-.41-.59-.62-1.37-.65-2.75.17-1.58.15-2.57-.06-2.96,0-.2-.22-.98-.44-2.36l-.02-.79c-.62-1.57-.89-5.51-1.16-8.87-.24-2.37-.86-3.74-2.25-4.1-.98.22-2.76.05-5.34-.29-2.97-.54-5.34-.29-7.1.73-.38.6-.72,3.57-1.01,8.91l-.54,2.58c.08,4.15.17,9.08-1.96,11.3-.19.2-.79.21-1.77.43-.79.02-2.57-.35-3.96-.32-.2-.39-.21-.59-.41-.59-.19.2,0,.39-5.51,1.29-2.17.24-4.14.47-5.72.31-.41-.59-.42-1.18-.24-2.17.17-1.39.35-2.18.15-2.77-.2-.19-.83-1.96-1.88-5.3-.2-.19-.21-.79-.43-1.77-.02-.99.68-5.74.85-7.13-.21-.59-.22-1.18-.04-2.17-.02-.99.46-6.92,1.43-18.2.18-.99.15-2.57.31-4.55-.02-.99.1-4.94.56-12.06l.51-4.35c-.2-.39-.21-.79-.03-1.38.19-.6.29-5.54.5-15.22.19-.4.17-1.19.35-2.18-.22-1.38-.25-2.76-.08-4.34.58-.6.77-1.2.95-1.8-.07-3.75.02-9.28.47-16.6.2,0,.39-.21.58-.41-.2-.39-.22-.98-.03-1.78.16-2.18.48-5.74.59-10.68l-.05-2.76.88-5.74c-.22-.98-.25-2.76-.09-4.94.2,0,.19-.2.39-.4l.55-12.85.58-.41.57-11.66c-.04-1.97.11-4.74.23-8.5.2,0,.39-.21.59-.41-.21-.79-.23-1.97-.07-3.55.18-.79.55-1.99.72-3.57-.22-1.38-.26-3.35-.12-6.32l1.47-16.03c-.04-2.17-.09-4.74,1.67-5.76,1.57-.43,4.33-.68,8.09-.55,5.14.1,8.3.24,9.29.22,2.76-.25,4.14-.28,4.34-.08.42,1.37,1.12,6.89,2.09,16.35ZM143.85,143.12l-.02-.79c-.03-1.78-.27-3.95-.52-6.71h-.59c.19-.19.19-.59-.02-.98l-1.84-3.52c-.2,0-.6-.38-1.19-.37-.79.21-1.19-.37-2.66,5.78,0,.2-.19.4-.38.6-.91,3.97-1.03,8.32-.73,13.25.03,1.58.47,3.74,1.5,6.29,3.18,1.12,5.94.68,8.07-1.54.36-1.98.1-5.33-.78-9.86-.22-.98-.43-1.77-.83-2.16Z"/>
      <path class="cls-1" d="M167,100.97l1.78-.03.03,1.78-1.78.03-.03-1.78ZM171.64,167.84l-.03-1.78c.18-.79.57-1,.77-.8-.01-.59-.81-.97-.82-1.76l-.23-11.85c-.2-.39-.21-.79-.22-.98-.03-1.78,3.92-1.65,4.5-2.46-.03-1.78-4.39-2.29-4.42-4.06l-.21-11.06c.59-.21.78-.41.77-.8-.6-.58-.81-1.17-.63-2.16.37-1.59.54-2.58.54-2.97-.02-.99-.84-2.35-.85-3.34.97-1.2,1.34-2,.74-2.58.19-.2.18-1.19-.05-2.57,0-.2-.83-1.96-.85-3.34.19-.6.56-1.79.73-3.37-.21-.59-.63-1.77-.85-3.34.39,0,.59-.21.77-.8.55-1.99.53-3.17-.07-3.55-.4-.19-.6-.38-.6-.58,0,0,.98-.61.96-1.6-.01-.59-.44-2.16-1.22-1.95.38-.6.56-1.79.73-3.37-.4,0-.6-.19-.8-.77-.22-.98-.05-2.37.11-4.35.34-2.77.51-4.55.49-5.14.13-3.76.09-5.73-.11-5.92-.4-.19-.6-.38-.6-.58,0,0,.98-.61.96-1.6-.01-.59-.43-1.77-1.22-1.95.39-.21.58-.8.76-1.79,0,0-.79.02-.8-.77.18-.99.53-3.37.66-6.73.13-3.76.08-6.32-.15-7.7,0-.2-.81-.97-.82-1.56,0,0,.98-.22.77-1-.02-.79-.82-1.76-.84-2.35-.03-1.58.7-4.56.68-5.94-.37-9.28-.65-23.49-.81-42.45,3.73-1.06,7.28-1.52,11.03-1.79.79-.02.8.77.8.77,1.37-.62,3.74-.86,6.9-.92.2.19.8.58,1.59.76.98-.22,2.75-.64,5.12-.89l.8.77c2.18.55,5.74.68,10.28.4,4.54-.28,7.89-.35,10.07,0,1.19.17,2.58.35,4.36.9.41.58,1.21,1.36,2.41,2.32,1.4.76,2.54-1.63,2.54-1.63.98-.22,2.78.74,3.37.73l4.36.71c1.39.57,3.78,1.51,6.76,2.44.79.18,1.98.36,3.37.92,1,.77,2.6,1.53,4.39,2.29,1.58.17,4.78,2.28,9.41,6.73.2.19,1.81,1.94,2.6,1.53,1.41,1.36,3.03,3.5,5.07,6.82.59-.21,1.2.77,3.62,3.29.01.59.23,1.77.85,3.34.59-.01,1.2.96,2.63,3.31.02,1.18,1.25,3.33,3.49,6.65.81.97.42,1.57,3.52,8.43l1.83,2.53c1.25,3.33,2.53,8.25,3.63,14.35l.95,8.48c.2,0,.6.19.8.77l.15,7.7c.76,8.48.91,16.38.45,23.69-.18.99-.55,2.38-.71,4.16.2.19.6.38.8.77-.19.2-.58.41-.77,1,.47,4.14.52,6.31.13,6.71l-.79.02c-.16,2.18-.3,5.14-.81,9.3l-2.21,8.54c-.57,1-1.14,2.39-1.7,4.18l-.71,4.36-1.75,1.61c.21.59.23,1.58.05,2.57.4,0-2.52,2.42-2.48,4.39-.58.6-.96,1.6-1.52,3.39,0,.2-1.15,2-3.26,5-.58.6-1.16,1.6-1.73,2.6.01.59-1.73,2.6-5.02,6.02-.96,1.2-2.71,3.01-4.84,5.23l-5.84,4.26-4.28,3.64c-.19.2-3.92,1.65-10.98,4.36l-1.55,1.81c-1.19.02-3.16.26-5.91.9-.19.2-.38.6-.77.8l-1.78.03c-10.42,2.57-21.85,3.97-34.48,4.21-8.29.16-15.41-.3-21.36-1.37-.33-7.1-.54-17.77-.61-32.18ZM173.93,18.87c-.23-1.58,2.34-1.62,2.52-2.62-1.2-.77-2.59-1.14-4.36-.9-.58.8-.94,2.59-.69,5.15,1.39.17,2.54-1.63,2.54-1.63ZM174.94,30.7c-.59.01-.98.22-1.56.82l4.15-.08c-.25-2.56-.87-4.13-1.88-5.1-.19.6-.57,1-1.56.82.21.59.63,1.77.86,3.54ZM177.47,131.98c.59-.01.98-.41.96-1.2-.01-.59-.61-.98-1.6-1.15-.17,1.58.05,2.37.64,2.36ZM174.62,13.72l1.78-.03-.03-1.78-1.78.03.03,1.78ZM176.72,123.7l2.57-.05c-.03-1.58-.83-1.96-2.6-1.73l.03,1.78ZM180.35,44.82c-.99.02-1.57.43-1.76,1.02,1.81,1.55,2.81,2.32,2.81,2.32.59-.01.98-.22,1.56-.82.56-1.79-.25-2.56-2.62-2.52ZM181.17,181.09l1.78-.03-.03-1.58-1.78.03.03,1.58ZM184.44,124.34l1.58-.03-.03-1.58-1.58.03.03,1.58ZM186.68,107.51c-.36,1.59.24,2.37,1.63,2.34.99-.02,1.57-.62,1.75-1.61-2.38-.55-3.57-.72-3.37-.73ZM190.14,19.94c-.02-1.18-1.22-1.56-3.58-1.31-.16,2.18,1.04,2.55,3.4,2.31.19-.4.18-.79.18-.99ZM229.93,159.03s1.75-1.61,5.04-5.03l4.02-6.99c.39-.21.97-.81,1.75-1.61-.02-.99,1.12-3.18,3.19-8.55-.01-.59.17-1.39.74-2.58.58-.6.74-2.38.89-4.95.16-2.18.72-3.77,1.5-4.37l-.03-1.78c1.33-12.86,1.3-25.11.1-36.34l-1.73-7.67c-.23-1.77-.48-4.53-1.15-8.27-.2-.39-.61-.98-.82-1.76-.2-.19-.6-.38-.8-.77l-1.88-5.1c-1.66-3.92-.82-1.56-2.7-6.66-.8-.58-1.8-1.35-3.44-4.28l-1.59-.76-.03-1.78-2.61-2.32c-.79-.18-1.98-.36-3.38-.92-.61-.98-2.4-1.73-6.97-3.22-1-.57-2.39-.94-4.18-1.5-.59.21-1.57.62-2.55.84,0-.39-.21-.59-.8-.77l-2.57.05c.01.59-.96,1.6-.75,2.38-.14,3.16-.05,7.51.25,12.83.22.98.64,2.36.87,4.13.02.79-.75,2.38-.73,3.37.22.98.25,2.76.1,5.13-.38.99-.16,1.98.84,2.55.4.19.46,3.35.18,9.28.03,1.38-.71,4.16-.69,5.15.01.59.82,1.37.82,1.56.64,2.56.7,5.91.59,10.06-.3,4.94-.44,8.11-.21,9.48.73,7.1,1,10.84,1,11.04.02.99-.71,3.96-.69,4.95.02.79.81,1.17.82,1.76l.05,2.57c.28,4.54.61,11.05.56,19.15-.04,8.49-.11,14.82.16,18.96,1.38-.03,2.54-1.63,4.33-1.07.99.18.86,3.54,2.43,3.31.59-.21.57-1,.35-2.18-.63-2.16,2.54-1.63,7.22-4.68l2.52-2.62ZM253.19,135.87c-.77,1,.43,1.97,1.81,1.74.59-.21.78-.41.77-1-.79.02-1.6-.96-2.58-.74ZM254.9,142.55c-.58.6-.77,1.2-.76,1.79.04,2.17,1.44,2.93,4.39,2.29.54-2.58-.67-3.94-3.63-4.08ZM269.81,116.79c-.01-.59,2.13-2.02,1.5-4.18-2.37.24-3.73,1.26-4.1,2.65.4.39,1.2.96,2.6,1.53Z"/>
      <path class="cls-1" d="M353.75,5.91c0,.2,0,.39.21.98.22,1.58.01.79.04,2.37l.26,15.6c.07,4.15.11,6.71-.07,7.7l-4.54.07c-1.78.03-4.34.07-7.51-.07l-7.7.13-9.68.16c-4.14.27-7.5.32-9.87.36-.19.2-.37,1.19-.35,2.77,0,0,.12,7.5.37,22.31l.37,22.31.04,2.57c.2.19,1.38.17,3.36.34l1.18-.02c-.2,0,1.39.37,5.54.3q0,.2.2.19l14.41-.24c.79-.01,1.78.17,3.17.54.2.39.23,1.77.26,3.95.08,4.94.12,7.31.12,7.31l.07,4.34v.39c-.19.2-.18.4-.18.6s0,.2.2.39v.39c-.15,2.18-.11,5.14.16,9.08.43,2.17.45,3.55.07,4.54l-6.71.11c-6.32-.09-10.47-.03-12.64.21l-.19.2q-.2,0-.2-.19c-.2,0-.39,0-.79.21-1.78-.17-3.95-.13-6.71.11-.19.2-.17,1.58-.32,4.35.01.79.04,2.17-.13,4.15,0,.39,0,.59,0,.39l-.19.2c.21.59.22,1.38.24,2.37q-.19.2-.19.4s.15,9.28.46,27.64c.07,4.54.11,6.71.11,6.71.01.79.03,1.97.25,3.35-.19.6-.17,1.39.05,2.76.4.19,1.98.36,4.75.51.99.18,2.77.15,5.33.11.2,0,.39,0,.6.19l.99-.02c.19-.2.59-.21.79-.21.2.19.4.19.99.18,1.78.17,3.95.13,6.52-.11,2.57-.04,3.55-.06,3.35-.25h.39c.2.19.4.38.79.18,0,0,3.69-.13,10.6-.24.2,0,1.97-.03,5.33-.29l2.57-.04c.59,0,1.19.18,2.18.56.21.79.25,3.16.32,7.3.21,12.64.31,18.96.31,18.96.21.79.03,1.97-.34,3.36-1.38.02-3.55.06-6.51.3-.2,0-.59,0-.98.21l-.99.02c-.2,0-.39,0-.59-.19h-.59s-7.64.2-12.57.28l-9.08.15c-.99.02-2.37.04-4.15-.13l-4.34.07-31.2.51c-.99.02-2.17-.16-3.96-.33-.22-1.38-.27-4.54-.36-9.87-.32-19.15-.47-28.63-.47-28.63q-.2-.19-.2-.39.2,0,.19-.2c-.04-2.17-.06-3.36-.06-3.36-.4-.59-.41-.98-.22-1.18h.2s-.02-1.39-.02-1.39c-.22-1.38-.23-1.77-.22-1.18.19-.4.18-1.19.16-2.17.07-7.7-.04-14.22-.32-19.55-.26-3.75-.29-5.33-.28-4.74,0-.59-.02-1.38.16-2.37l-.07-4.15c-.21-.98-.22-1.58-.23-1.77.32-4.55.21-11.26-.33-19.94-.21-.98-.22-1.58-.22-1.58.17-1.39.35-2.97.13-4.35.07-7.9-.33-20.14-.8-36.53,0-.39-.02-.99-.23-1.77l-.03-1.78c0-.39-.02-.99.17-1.78.14-3.75.06-8.1-.21-12.83,0-.59-.03-1.78-.25-3.16-.02-.99-.04-2.17.13-3.95l-.07-3.95-.13-8.1c-.26-3.55-.3-6.12-.33-7.89l-.07-4.15q.2,0,.19-.2c-.01-.79-.03-1.97.14-3.36,2.37-.24,4.73-.47,7.3-.32.4.19,1.19.18,2.17.16l1.78-.03c.98-.21,1.77-.23,2.17-.23,2.96.15,6.72.09,11.26-.19,1.58-.22,4.15-.07,10.46-.17,1.38-.22,3.35-.25,5.92-.29.2.19.4.19.4.19l.19-.2c4.93-.28,12.44-.21,22.12.03.2.19.4.19.79.18,1.18-.22,2.96-.25,5.13-.28,0,.2.02,1.38.26,3.95ZM324.15,175.46c.57-1,.56-1.79-.25-2.56-.59.01-.98.22-1.56.82.22,1.38.83,1.96,1.81,1.74ZM339.34,19.53l-.61-.78c-.39.4-.58.8-.37,1.39.6.19.99-.02.98-.61ZM357.97,180.88c.19-.6.18-.99-.03-1.58-1.19-.17-1.97.24-2.15,1.42.41.59,1.2.77,2.18.16Z"/>
      <path class="cls-1" d="M457.09,49.15c-.69-1.13-2.44-2.48-5.27-4.06-1.15-.85-2.8-1.85-5.03-3.06-.18.04-.23,0-.24.14-.38-.24-.92-.85-1.15-.98-.7-.58-1.38-.84-2-.94l-1.03-.06-.3.24c-.34-.06-.85-.09-1.48-.04-.46.14-.83.49-1.15,1.01,0,0-.12.07-.23.14l-.57.94c-.13.06-.24.13-.3.1-1.49,2.08-2.14,3.39-2.06,4.01-.03.42.07.76.52.89.82.37,1.31.53,1.35.53-.07.11-.02.14-.02.28l.88.54c3.98,2.56,8.29,5.18,13.06,7.95.43.4,1.27.63,2.41.89.96-.84,1.79-2.19,2.46-4.05l.51-1.69c.17-1.04.05-1.96-.36-2.78ZM456.17,101.84c-.09-.48-.85-1.22-2.33-2.27-2.54-1.69-3.81-2.6-3.86-2.63-.25-.15-.37-.23-.4-.19,0-.03-.01-.05-.01-.06l-.14-.09q-.12.07-.18.04t.01-.14-.12.07l-.33-.21c-.21-.13-.61-.36-1.04-.77-4.04-2.32-9.97-5.79-17.65-10.6l-.84-.51c-.11.07-.22,0-.27-.03l-.29-.17c-.04-.17-.1-.2-.15-.24-.18.04-.34-.06-.56-.2l-.5-.3c-.16-.24-.33-.34-.49-.44-.51-.17-1.5-.77-3.78-2.01l-.12.07c-.34-.06-.85-.1-1.35-.26-.11-.07-.29-.03-.53.11l-.11-.07-.71.43c.05.03,0,.13-.13.2l-.54.39-.25.41s-.05-.03-.17.04l-.86.91c-.12.2-.31.65-.58,1.2-.13.21-.26.56-.52,1.11-.07.1-.13.34-.27.83q-.07.1-.08.24l-.14,1.34c0,.14.1.48.3.76l-.06.1.1.2c.27.44,1.08,1.09,2.35,2,2.42,1.62,4.75,3.03,6.97,4.25.05.03.46-.01.52.02-.07.11,0,.15-.02.28.11.07.22,0,.35-.08l.16.1c-.29-.02.55.49,2.3,1.69.57.21,1.23.61,2.24,1.07.7.57,1.03.78.92.82h.41c.16.09.43.4.53.61l1.49.91c2,1.07,3.45,1.8,4.39,2.38.39.23,1.04.92,1.31,1.08.22.14.8.2.96.29q-.01.15-.07.25c.05.04.4-.04.46-.01,0,0,.5.31,1.44.88l1.44.88c.67.26,1.16.56,1.5.77.55.45.86.67.92.7.4.24.27.32.62.38.65.55,1.05.64,1.16.57.13-.07.29.03.56.33q.05.04.11-.07c.62.24,1.08.23,1.38,0l.11.06.13-.2q0,.13.11.07l.06-.11.16.1q.07-.11.19-.17c.35-.21.66-.46,1.02-.8,0,0,.43-.46.79-.67l.32-.52c.04-.08.05-.09.08-.08.05-.14.61-1.09,1.62-2.86.03-.41.22-.72-.04-2.17ZM457.09,49.15c-.69-1.13-2.44-2.48-5.27-4.06-1.15-.85-2.8-1.85-5.03-3.06-.18.04-.23,0-.24.14-.38-.24-.92-.85-1.15-.98-.7-.58-1.38-.84-2-.94l-1.03-.06-.3.24c-.34-.06-.85-.09-1.48-.04-.46.14-.83.49-1.15,1.01,0,0-.12.07-.23.14l-.57.94c-.13.06-.24.13-.3.1-1.49,2.08-2.14,3.39-2.06,4.01-.03.42.07.76.52.89.82.37,1.31.53,1.35.53-.07.11-.02.14-.02.28l.88.54c3.98,2.56,8.29,5.18,13.06,7.95.43.4,1.27.63,2.41.89.96-.84,1.79-2.19,2.46-4.05l.51-1.69c.17-1.04.05-1.96-.36-2.78ZM456.17,101.84c-.09-.48-.85-1.22-2.33-2.27-2.54-1.69-3.81-2.6-3.86-2.63-.25-.15-.37-.23-.4-.19,0-.03-.01-.05-.01-.06l-.14-.09q-.12.07-.18.04.07-.11.01-.14t-.12.07l-.33-.21c-.21-.13-.61-.36-1.04-.77-4.04-2.32-9.97-5.79-17.65-10.6l-.84-.51c-.11.07-.22,0-.27-.03l-.29-.17c-.04-.17-.1-.2-.15-.24-.18.04-.34-.06-.56-.2l-.5-.3c-.16-.24-.33-.34-.49-.44-.51-.17-1.5-.77-3.78-2.01l-.12.07c-.34-.06-.85-.1-1.35-.26-.11-.07-.29-.03-.53.11l-.11-.07-.71.43c.05.03,0,.13-.13.2l-.54.39-.25.41s-.05-.03-.17.04l-.86.91c-.12.2-.31.65-.58,1.2-.13.21-.26.56-.52,1.11-.07.1-.13.34-.27.83q-.07.1-.08.24l-.14,1.34c0,.14.1.48.3.76l-.06.1.1.2c.27.44,1.08,1.09,2.35,2,2.42,1.62,4.75,3.03,6.97,4.25.05.03.46-.01.52.02-.07.11,0,.15-.02.28.11.07.22,0,.35-.08l.16.1c-.29-.02.55.49,2.3,1.69.57.21,1.23.61,2.24,1.07.7.57,1.03.78.92.82h.41c.16.09.43.4.53.61l1.49.91c2,1.07,3.45,1.8,4.39,2.38.39.23,1.04.92,1.31,1.08.22.14.8.2.96.29q-.01.15-.07.25c.05.04.4-.04.46-.01,0,0,.5.31,1.44.88l1.44.88c.67.26,1.16.56,1.5.77.55.45.86.67.92.7.4.24.27.32.62.38.65.55,1.05.64,1.16.57.13-.07.29.03.56.33q.05.04.11-.07c.62.24,1.08.23,1.38,0l.11.06.13-.2q0,.13.11.07l.06-.11.16.1q.07-.11.19-.17c.35-.21.66-.46,1.02-.8,0,0,.43-.46.79-.67l.32-.52c.04-.08.05-.09.08-.08.05-.14.61-1.09,1.62-2.86.03-.41.22-.72-.04-2.17ZM484.56,15.9c-37.16-22.62-87.15-8.34-111.65,31.91-34.47,56.63-34.24,124.08,2.92,146.7,23.62,14.38,57.95,4.76,87.74-17.15-.34-5.14-1.46-12.88-1.6-14.72,0,0-15.58-4.67-16.03-4.98-.45-.31,0-13.26,0-13.26l-17.66-14.03,21.31,12,.75,12.37,16.25,3.88,2.15,14.78c15.06-12,28.67-27.09,38.75-43.66,24.51-40.25,14.24-91.21-22.93-113.84ZM431.58,157.8c1.66,1.01,2.54,1.82,2.73,2.36-.46,1.15-2.37,4.54-5.79,10.15-3.35,5.51-5.49,8.76-6.35,9.8-.12.07-.78-.33-1.99-1.21-1.51-.64-3.67-1.95-6.37-3.87-.22-.14-.46-.86-.73-1.02-.4-.24-1.59-.4-2.31-.83-2.84-1.31-5.05-2.66-6.58-4.01-.44-.41-1.08-1.09-2.06-1.83-1.29-.5-3.14-1.47-5.57-2.82-.17-.1-.88-.67-2.02-1.66-.94-.71-1.76-1.35-2.54-1.69-.39-.23-1.81-.52-2.3-.82-.5-.3-1.1-.81-1.97-1.49-.88-.68-1.59-1.25-2.09-1.56-.46-.13-1.24-.32-2.24-.79-1.35-.54-3.12-1.61-5.38-3.13-2.42-1.62-4.14-2.8-5.3-3.37-.3.1-.64.18-1.1.05l-.45-.99c-2.28-1.25-3.44-1.96-3.54-2.16,1.71-2.81,4.25-7.09,7.55-12.91.21-.59.48-1.28.93-2.14.49-.56,1.18-1.43,1.99-2.64.18-.31.48-1.42,1.18-2.56l1.72-2.22c.63-.9,1.4-2.29,2.3-4.02,1.09-2.04,1.92-3.53,2.36-4.25.45-.73,1.89-2.99,4.4-6.73,2.07-3.15,3.65-5.75,4.86-7.86.47-.14.97.02,1.46.46l1.3,1.23s1,.61,3.05,1.85c3.26,1.99,5.19,3.3,5.61,3.98-1.05,2.35-2.96,5.61-5.73,10.04-2.77,4.3-4.68,7.55-5.66,9.8-.63.9-1.28,2.22-2.12,3.98.42,1.54,1.61,2.83,3.43,3.94,2.66,1.61,4.1,2.49,4.31,2.76,1.01-.66,2.12-1.98,3.45-4.16.44-.73,1.14-2.01,2.11-3.71,1.01-1.8,1.71-3.07,2.29-4.01,1.01-1.66,1.94-2.94,2.79-3.85,1.82,1.25,4.59,2.93,8.35,5.08l1.46.46c.51.17.78.47.86.95-.6,1.49-1.93,3.81-4.12,7.03-2.19,3.23-3.64,5.62-4.32,7.34-.02.28.13.79.42,1.68l1.02,1.2.4.94c.19-.16.36-.34.6-.34-.07.11-.08.38-.04.68.12-.2.31-.37.53-.37,0,.13-.07.37-.03.68.16.1,1.56.67,4.12,1.81,2.19.89,4.3,2.18,6.31,3.84.33.34,1.07,1.35,1.46,1.59.5.3,2.47.8,3.35,1.34ZM470.63,94.28c.07.76-.15,2.61-.38,3.61.06.03-.14.48-.26,1.69l-.19.31.05.03c-.13.21-.08.38-.41,1.17.05.03.11.07.1.2l-.13.22.06.03c-.13.21-.27.56-.39.9l-.02.13c-.41,1.32-2.01,4.2-4.61,8.58v.15s-.07.1-.2.31c-.12.07-.75,1.11-1.95,3.08-.95,1.56-1.46,2.39-1.46,2.39-.07.05-.13.12-.14.12-.31.51-.8,1.18-1.35,1.96q-.12.07-.17.04c-.32.52-.93,1.28-1.72,1.94-1.68,1.39-3.95,3.01-6.93,5.04-.23,0-.59.21-1,.38-.11.08-.17.04-.28-.03-.07.11-.13.22-.25.29-2.27.74-1.55.19-2.14.54-.3.1-.81.08-1.5.08l-.11-.06c-.06-.04-.52-.03-1.49-.05-.11.07-.17.03-.22,0-.11-.07-.17-.1-.17-.1-.07.11-.29-.03-.74-.3-.11.07-.17.18-.22.14q.06-.1.06-.24l-.34.07c-1.06-.64-1.04-.77-1.55-.94-.88-.67-2.21-1.48-4.09-2.49-.18.04-.3.1-.29-.03l-1.22-.75c-.32-.33-.49-.3-1.38-.84q.06-.1,0-.13c-.32-.34-.66-.54-.89-.54-.27-.17-.77-.47-1.61-.84l-1.22-.74c-.56-.2-1-.47-1.27-.64-2.93-1.78-4.43-2.69-4.43-2.69-.23-.01-.28-.04-.28-.04.05-.09.06-.1.02-.13-.21-.11-1.1-.62-2.68-1.48q.06-.11.01-.14l-.22-.13c-.78-.34-1.28-.64-1.56-.81.06-.1,0-.13-.05-.17l-.11.07c0-.14.01-.27-.11-.21l-.06.11c-2.76-1.82-7.02-4.28-12.63-7.54-.78-.33-1.16-.56-1.16-.7-.27-.17-.66-.41-1.09-.82l-.37-.51c0-.14-.1-.48-.3-.75l-.26-.58-.42-1.55-.35-.91c.02-.28-.09-.35-.13-1.65l.04-.69c-.06-.04-.09-.48-.02-1.72.07-1.23.13-2.21.3-3.1l.2-1.58.29-1.1c.01-.14.2-.46.35-1.08l.29-1.1c0-.13.07-.23.35-1.06l.02-.28.13-.21c0-.13.13-.35.2-.58,0,0,.97-1.84,2.88-5.37v-.13c.59-1.08,1.15-2.01,1.72-2.81l.57-.93c.26-.56.64-1.19,1.08-1.77q.05.03.11-.07c1.45-2.26,2.56-3.71,3.23-4.3.12-.07.36-.35.73-.84l1.27-1.08.18-.31.06.04,1.45-1.27c.24-.13.38-.48,1.25-.8.24-.28,1.68-1.39,4.39-2.74l1.64-.57.24-.14.11.07c.05.03.4-.04.65-.32l.11.07.28.03.41-.17.11.06c.06-.11.3-.11.69-.15l.12.07.23-.14.29.04s.34.05,1.14.12q.06-.1.11-.07c.17.1.22.13.22.13.06.04.23.14.56.2.18-.04.8.33,1.96,1.04,2.1,1.28,3.15,1.92,3.15,1.92.11-.07.17-.04.24-.14.05.03.03.31.09.34,1.27.77,2.88,1.62,4.88,2.69.27.3.77.61,1.44.88,0,0,.72.43,2.1,1.28l6.03,3.67c2.04,1.24,2.93,1.78,2.77,1.54.27.31.37.51.49.44.88.68,2.27,1.38,4.22,2.29.1.2.38.37.72.58.16.09.33.2.6.23,0,0,1.45.87,4.27,2.59l2.38,1.45c1.6.97,2.38,1.45,2.38,1.45l.41.81c.43.41.8.92,1.12,1.54-.02.14.03.17.09.21l-.06.1.26.44v.14l.11.06q0,.14-.08.24l.17.1.1.21c0,.14.1.34.25.71-.05.83.29.9.1,1.22l.17,1.95c-.07.24-.1.66-.12,1.06.06.04.17.11.16.24-.11.07-.18.17-.19.32ZM490.75,68.08c-1.02-.2-2.7-.93-5.2-2.17l-1.38-.84c-.72-.58-1.43-1.01-2.16-1.32-.99-.74-2.53-1.82-4.75-3.17-.31-.34-.15-.24-.49-.3-.06.1-.18.18-.24.14-.16-.1-.21-.41-.26-.44-3.14-2.07-5.24-3.35-6.3-3.84-1.45-.74-2.51-1.1-3.14-1.07-1.45.27-3.03,1.73-4.61,4.33-.31.51-.51.96-.78,1.52-.14.62.07,1.03.44,1.4.46.13.84.37,1.22.6.16.24.5.44.88.81.49.45,1.81,1.26,3.91,2.68.89.4,1.99,1.21,3.36,2.32l-.03.42c.42.68.81.91,1.1.95.06-.1.4-.19.69-.16.28.04.45.14.61.24.03.45.08.62.2.55l.19-.32,1.27.78c.11.2.59.79.81.92l1.92.46c1,.47,1.61.84,1.77,1.08.21.26.81.77,1.92,1.45,1.98,1.34,3.14,2.05,3.49,2.12-.6,1.35-1.92,3.52-3.92,6.44l-.82,1.35c-.64.9-1.19,1.56-1.62,2.02-.22,0-.63.03-1.07-.1,0,0-1.11-.67-3.27-1.99-3.32-2.02-5.37-3.13-6.05-3.39-.4.04-.96-.02-1.58-.26-.37-.5-1.14-1.11-2.36-1.72-.06-.03-.3.11-.35.07-.22-.13-.81-.77-1.26-1.04-.39-.1-.84-.37-1.51-.64-.32-.34-.87-.68-1.53-1.21-.23-.01-.45-.14-.84-.24,0,0-2.66-1.61-7.92-4.82-1.15-.7-1.77-1.07-1.77-1.07-.27-.17-.97-.88-1.37-1.12-.6-.37-2.16-1.04-2.77-1.4l-1.38-.85c-.06-.03-.05-.31-.1-.34-.12.07-.24.14-.3.1-1.23-.59-2.06-1.1-2.48-1.51-.17-.1-.28-.17-.28-.17l.13-.2c-.17-.1-.46,0-.63-.1-1.32-.95-3.47-2.26-6.23-4.08l-2.66-1.61-3.47-2.54c-.17.04-.33-.06-.49-.3-.21-.24-.25-.38-.18-.38-.24-.11-.73-.17-.92-.29-.27-.31-.88-.69-1.65-1.29-.05-.04-.41.18-.51-.02-.17-.1-.32-.49-.04-1.31,1.76-2.77,4.54-7.2,8.27-13.34,1.96-3.22,3.15-5.06,3.45-5.3l1.95-2.09c.06.04.17-.03.35-.07l.25-.42.11.07.32-.52c.06.04.65-.32,1.9-1.12.35-.21.76-.38,1.47-.67.18-.18.47-.29.83-.49l.22.14c.12-.08.24-.29.43-.46-.01.14.1.2.27.17l.13-.21.28.18c.12-.08.92-.16,2.29-.18l.75.16c1.21-.11,1.94.05,2.21.35.3-.37,1.04-.22,1.95-.08.59.5,1.59,1.11,2.98,1.81.23,0,.68.13,1.24.32,0,.14.05.17.22.14.18-.04.24,0,.24-.14.22.14.48.58.76.75.88.67,1.44,1.01,1.66,1.01.17-.04.23,0,.24-.14.1.2.38.37.65.68.22,0,.56.2,1,.33.18.1.43.54.61.65l2.07,1.69c.22,0,.39.1.6.37-.06.1,0,.41.4,1.09.5.31,1.1.81,1.8,1.52l.23,1.14c-.14.34.14.38.29,1.74l.25.73c-.15.62-.13,1.33-.02,2.26.06.04.81-.21,2.28-.88.02-.14.37-.22.59-.22l.28.17c.31-.38,1.13-.73,2.52-1.03.52.03,1.06.37,1.6.98.52-.11,1.21-.12,2.12.01.28.03.79.34,1.49.91.28.17.88.81,1.26,1.04.39.24,1.56.67,1.84.84,2.5,1.38,4.11,2.36,4.81,2.93.06.04.38.51.59.64.4.24,1.4.57,1.8.81.38.24,1.08.95,1.47,1.18.44.27,1.73.77,2.39,1.18.33.33.83.64,1.49,1.18,1,.47,2.26,1.38,3.78,2.88-2,3.76-4.02,7.09-6.2,10.18ZM451.82,45.09c-1.15-.85-2.8-1.85-5.03-3.06-.18.04-.23,0-.24.14-.38-.24-.92-.85-1.15-.98-.7-.58-1.38-.84-2-.94l-1.03-.06-.3.24c-.34-.06-.85-.09-1.48-.04-.46.14-.83.49-1.15,1.01,0,0-.12.07-.23.14l-.57.94c-.13.06-.24.13-.3.1-1.49,2.08-2.14,3.39-2.06,4.01-.03.42.07.76.52.89.82.37,1.31.53,1.35.53-.07.11-.02.14-.02.28l.88.54c3.98,2.56,8.29,5.18,13.06,7.95.43.4,1.27.63,2.41.89.96-.84,1.79-2.19,2.46-4.05l.51-1.69c.17-1.04.05-1.96-.36-2.78-.69-1.13-2.44-2.48-5.27-4.06ZM453.84,99.57c-2.54-1.69-3.81-2.6-3.86-2.63-.25-.15-.37-.23-.4-.19,0-.03-.01-.05-.01-.06l-.14-.09q-.12.07-.18.04t.01-.14-.12.07l-.33-.21c-.21-.13-.61-.36-1.04-.77-4.04-2.32-9.97-5.79-17.65-10.6l-.84-.51c-.11.07-.22,0-.27-.03l-.29-.17c-.04-.17-.1-.2-.15-.24-.18.04-.34-.06-.56-.2l-.5-.3c-.16-.24-.33-.34-.49-.44-.51-.17-1.5-.77-3.78-2.01l-.12.07c-.34-.06-.85-.1-1.35-.26-.11-.07-.29-.03-.53.11l-.11-.07-.71.43c.05.03,0,.13-.13.2l-.54.39-.25.41s-.05-.03-.17.04l-.86.91c-.12.2-.31.65-.58,1.2-.13.21-.26.56-.52,1.11-.07.1-.13.34-.27.83q-.07.1-.08.24l-.14,1.34c0,.14.1.48.3.76l-.06.1.1.2c.27.44,1.08,1.09,2.35,2,2.42,1.62,4.75,3.03,6.97,4.25.05.03.46-.01.52.02-.07.11,0,.15-.02.28.11.07.22,0,.35-.08l.16.1c-.29-.02.55.49,2.3,1.69.57.21,1.23.61,2.24,1.07.7.57,1.03.78.92.82h.41c.16.09.43.4.53.61l1.49.91c2,1.07,3.45,1.8,4.39,2.38.39.23,1.04.92,1.31,1.08.22.14.8.2.96.29q-.01.15-.07.25c.05.04.4-.04.46-.01,0,0,.5.31,1.44.88l1.44.88c.67.26,1.16.56,1.5.77.55.45.86.67.92.7.4.24.27.32.62.38.65.55,1.05.64,1.16.57.13-.07.29.03.56.33q.05.04.11-.07c.62.24,1.08.23,1.38,0l.11.06.13-.2q0,.13.11.07l.06-.11.16.1q.07-.11.19-.17c.35-.21.66-.46,1.02-.8,0,0,.43-.46.79-.67l.32-.52c.04-.08.05-.09.08-.08.05-.14.61-1.09,1.62-2.86.03-.41.22-.72-.04-2.17-.09-.48-.85-1.22-2.33-2.27Z"/>
      <path class="cls-1" d="M594.14,199.09c-.4-.2-.59-.2-.59-.2h-1.97c-.79.2-1.38.2-1.78.2-1.78,0-2.57,0-2.57,0-.2-.2-.4-.2-.2-.2h-.4q-.2.2-.39.2h-3.95c-3.36-.19-4.94-.19-4.94-.19-.99.2-1.58.2-1.78.2-.39-.2-.59-.2-.59-.2-.4,0-.99,0-1.78.2-1.78.2-3.75,0-5.53-.19,0,0-.2-.2-.59-.39v-.59s0-.2-.2-.59v-.4s-.2,0-.2,0c0-.2,0-.79-.2-1.38-.2,0,0,.59-.79-3.16q-.2,0-.4-.2c.2-.79.2-1.18,0-.99,0-.59-.2-1.78-.4-3.16q0-.2-.2-.39v-1.58c-.2-1.58-.2-4.74-.41-9.28,0,0,0-.2-.2-.39.2-.4.2-1.18.2-2.17,0-.2,0-.59-.2-1.18v-1.38c-.2-1.38-.2-2.17-.2-1.97,0,0,0-.2.2-.4v-2.76c0-1.78,0-4.54-.21-8.1-.2-.2-.2-.39-.2-.59-.2-1.38-.2-2.76,0-4.15v-.4s.2,0,.2,0c0-.4,0-.79-.2-1.38v-1.38c-.2-.99-.2-1.78,0-2.76v-1.38c.2-.59.2-.99.2-1.19-.2-.2-.2-.79-.2-1.38v-6.71c.19.59.19-.2.19-2.17,0-.2,0-.59-.2-1.18v-1.38c0-2.17-.2-5.73-.6-10.27v-.4c.2-.59.2-1.58,0-2.57q0-.2-.2-.2c0-.59-.4-1.58-.99-2.76q-.2-.2-.2-.39h-.79s-.79-.39-.79-.39h-1.38c-3.36-.39-6.32-.58-8.69-.39h-2.17c-1.38-.19-2.57,0-3.55.2-.2.59-.19,2.37-.19,5.13,0,1.97,0,2.96,0,2.96l-.39,2.37.4.59v1.38c-.19.99-.39,1.78-.39,2.37.2.79.4,1.38.4,1.97-.2,0-.2.2-.4.4.2,0,.2.2.4.39l.02,24.09c.02,24.49.04,36.73.04,36.73,0,1.19-.19,2.96-.39,5.14-.59.2-2.76.2-6.12.2l-16.39.02c-.59,0-1.58,0-2.96-.19-.4-.99-.59-1.78-.4-2.37l.39-.59c-.2-.59-.2-1.38-.4-2.76v-6.32s-.01-6.12-.01-6.12c-.2-2.76-.2-4.94-.2-6.32v-12.44s-.02-5.92-.02-5.92c-.2-2.57-.2-4.54-.2-5.92,0-5.33,0-8.1,0-8.1-.2-2.17-.2-3.36-.2-3.55v-3.55c.19-.2.19-.79.19-1.38v-1.38c-.2-.59-.2-.99-.2-1.38.19-6.52.18-16.39-.03-29.62-.2-5.13-.21-8.1-.21-8.89,0-.2,0-.79.2-1.38v-2.96c-.2-.59-.2-1.18-.2-1.58l-.03-34.36-.04-37.52c0-6.52-.01-10.66.19-12.24h4.74c1.58,0,3.36,0,5.13-.21.2,0,.4,0,.59-.2h1.38c.59.2,1.18.19,1.38.19,0,0,2.96,0,8.89,0,.59,0,1.58,0,2.96-.2h2.76c.4,0,1.19,0,2.17.19h2.17q.2,0,.39-.2l.2.2h.39c3.95-.2,5.73-.2,5.53-.2,3.75,0,9.28.19,16.79.38l2.77,1.38c.59.2,1.58.79,2.57,1.58.4.2.99.39,1.58.99-.79-.2,1.58.79,4.74,4.14.39.2.79.79,1.19,1.58.2-.2.99.99,1.78,2.57l.39.39v.4s.4.39,1.38,1.78c0,.4.2.79.4,1.38.2,0,.2.39.79,1.78.2,0,.2.2.4.39v.39s.99,2.17.99,2.17c.59,1.78.99,3.36,1.19,4.74v.4l.2.2.4,1.97c.2.59.6,3.16.8,7.5.4,5.13.6,9.68.41,13.63v.79c-.2.4-.2.59-.2.79.2.2.2.39.2.59,0,0,0,1.38,0,4.34,0,4.74,0,8.29-.19,10.47v.99q.2,0,.2.2l-.39,1.58c0,2.17-.19,5.33-.39,9.68q-.2,0-.2.2c-.2.59-.2,1.58-.19,2.76-.2.2-.39,1.19-.98,3.16-.2.79-.39,1.78-.98,3.16-.79,1.58-1.58,3.75-1.97,4.15v.4c-.79,1.58,0-.59-3.35,4.94-.2,0-.59.2-.79.4v.59q-.2,0-.2.2c-.2.59.2,1.18.79,1.97,0,0,1.39,2.57,2.37,4.54.79.79,1.38,2.17,1.98,3.16v.4s.2.59.2.59h.2s1.78,5.33,1.78,5.33c0,.4,0,.59,0,.4h.2s0,.39,0,.39c0,.2.4,1.78,1.19,5.92,0,.99,0,2.37.2,4.54v.4s.2,0,.2,0c0,2.37,0,5.92.21,10.86v.99c.4.79.4,1.18.2,1.38v2.37s.03,24.88.03,24.88c.2.39.4.59.2.79-.2.2-.2.99-.39,8.1v6.71q-.19,0-.19.2c0-.2,0,.39.2,1.38v.4s.2,0,.2,0c.2,1.97.6,4.94,1.39,8.69l.2.2v.2c.59,1.38.79,2.37.6,3.16-.59.59-1.58.59-2.76.4ZM557.3,82.42c0-.2.99,0,2.57-.59h.59c.2,0,.39,0,1.38-.59,0-.2.39-.79.59-.79v-.59c.2-.2.99-.99,1.57-8.1.19-2.57.19-5.33.19-8.1h-.2c-.2-.2,0-.39.2-.59.2-1.38.19-3.95,0-7.7-.2-.39-.2-.99-.2-1.97,0-.4,0-.99.2-1.98,0-.2,0-.4-.2-.79v-8.29c-.21-3.95-.81-6.32-2.19-7.11-.2-.2-.79-.39-1.78-.59-3.36-.59-6.71-.78-10.07-.39,0,.2-.2.2-.59.2h-2.96c-.59,0-1.58.2-2.76.4.2.99.2,2.57,0,4.54,0,.59,0,1.38-.19,2.37v.79q0,.2-.2.2.2.2.2.39c.2.2.2.39,0,.99-.19,7.5-.38,13.03-.38,16.39v5.33c.4,1.38.4,2.96.21,4.94.2,1.97.2,4.94,0,8.89v2.37c.6.2,1.98.2,4.35.39h9.68Z"/>
      <path class="cls-1" d="M637.38,26.13l1.39,8.1.6,7.7c.2,3.16.8,8.69,2.19,22.12,1.79,16.39,2.79,26.26,2.79,29.22l-1.38,2.17c-.4.2-.99,1.19-1.77,2.77-.59.59-1.38,1.98-2.37,4.15,0,.59-1.78,1.19-1.77,2.57.99.79,2.17,1.18,3.16.98.2-.4.79-.79,1.38-.99.59-3.36.78-4.54,2.16-7.11,1.58.2,1.19,3.95,1.98,10.27.59.99.99,3.16.99,6.52v3.75c.2,2.96.4,4.15,1.2,8.29.4,5.73.8,10.66,1.4,14.81v1.78c.2.99.6,2.57.8,4.54-.2,1.18-.2,2.76-.39,4.94l1.39,5.13c.2,1.18.2,2.96.4,5.33l1,7.7c0,1.97.2,4.15.4,6.32,0,.59,0,.99,0,.79.2.2.4,3.75,1,10.86.2,3.75.4,5.53.4,5.33v2.37c-.2.79-.59,1.38-1.38,1.78-1.78,0-1.19-4.54-2.77-4.54-.99,0-1.58.59-1.78,1.58-.39,1.78-.59,2.77-.79,2.96-.59.99-1.78,1.38-3.36,1.39-1.78,0-2.96-.59-3.95-1.77-3.75.6-5.92.6-6.71.4-.59-1.78-.99-4.15-1.19-7.31-.4-4.74-.6-7.5-.6-8.1-.2,0-.2-.2-.39-.39l-.6-4.94c.2-.4.2-.99,0-1.78-.59-.59-1.19-1.38-1.78-2.37-2.96-.39-7.31-.39-13.03.01-.59.99-.98,2.37-.98,4.15,0,3.75,0,5.33,0,4.54-.2.79-.2,1.97-.39,3.56.2,2.96,0,7.31-.38,12.64h-8.69s-5.92.41-5.92.41c-2.37.2-4.34.2-5.73-.39-.2-5.92.18-13.23.97-22.12,0-1.38.19-3.75.39-6.71.59-1.78.78-5.73,1.37-14.42l.39-2.37c.2-1.58.19-3.95.39-7.11l.98-9.48c0-2.17.19-5.33.39-9.48l.98-4.15c0-2.96.19-7.31.38-13.03l1.37-11.65c-.2-.59-.2-1.78,0-3.16l.78-8.69c.2-.2.39-.79.59-1.78-.2-.39-.2-.99,0-1.78.2,0,.2-.2.4-.4v-1.38c.19-.99.39-2.57.39-4.54v-1.78c.98-3.56,1.37-6.12,1.37-7.7.2-.59.2-1.78.39-3.56.59-3.56,1.17-8.89,1.76-16.2.19-4.15.78-10.07,1.36-17.97.2-.2.39-.79.59-1.38l1.17-11.26c.19-3.36.98-8.29,1.96-15.01,11.65-.8,18.76-1.01,21.52-.42.6,2.37,1.79,10.86,3.58,25.27ZM622.26,118.96c0,.59-1.18.99-.99,1.78-.2.2-.39,1.18-.39,2.77-.19,2.96-.39,5.53-.98,7.31.2.2.2.59,0,1.18l-1.77,9.09c.2.79.2,1.97,0,3.55l-.39.59v.79c-.59,4.34-.78,6.91-.39,7.7,1.19.59,3.95.59,8.49,0,.2,0,.2.2.39.39.59-.2,1.18-.59,1.97-.79.2-1.78,0-5.73-1-12.24l-1-7.7c-.2-.99-.59-2.37-.79-4.54v-6.12c-.21-2.17-1-3.36-2.38-3.75h-.79ZM626.2,107.3c.2.2.2.59,0,.79-.59.79-1.38,1.78-2.17,3.16,0,.2.2,1.18.4,2.76.4.2,1.19.39,2.37.39.2-.2.79-.59,1.38-1.38,0,0,.2-.79.79-2.17.79-2.17,1.18-3.75.98-4.94-.59,0-.79-.59-1.38-.39l-2.37,1.78ZM635.69,115.59c0-.79-.2-1.38-.79-1.97-2.17-.59-3.16,0-3.16,1.98,0,.99.2,1.58.79,1.97,2.17.39,3.16-.2,3.16-1.98ZM643.26,190.82c0-.99-.59-1.38-1.58-1.58-.2.4-.39.79-.39,1.38s.2,1.18.4,1.38c.99,0,1.58-.4,1.58-1.19Z"/>
      <path class="cls-1" d="M716.83,18.39c.03.59.07,1.58.32,2.75l.29,6.51c-.13,1.59-.06,2.97-.02,3.95.26,1.37.29,2.16.1,2.17l-12.63.56c-.79.04-2.37.11-4.73.41-1.96.29-3.54.36-4.93.22l-2.76.12c-.19.21-.34,1.2-.28,2.58l.99,22.1.05,1.18c-.19.21-.35,1-.08,2.57l.06,1.38c.26,1.37.27,1.57.24.98,0,.2.03.59-.14,1.19l.05,1.18c.28,1.77.39,4.33.54,7.69-.17.6-.14,1.39-.09,2.38.03.59.14,3.16.52,7.29,0,4.55.3,11.06.87,19.53.26,1.37.28,1.77.25,1.17,0,.2.02.39-.15,1l.05,1.18.36,8.09.23,5.13c.3,2.36.38,4.13.44,5.32,0,.2.02.39-.17.6l.03.59c0,.2.02.39.24.98l.35,7.89c.04.99.12,2.76.42,4.92l.22,4.93.82,18.35q-.2,0-.19.21c.21.19.23.78.29,1.96l.45,10.06c.02,4.94.18,8.49.28,10.66.27,6.12.41,9.07.41,9.07.06,1.38.27,1.57-3.68,1.75l-3.95.18c-3.17-.06-4.35,0-3.76-.03-.79.04-1.97.09-3.54.36-6.11.47-9.66.63-11.05.49q0-.2-.21-.19t-.19.21c-1.97.09-3.16.14-3.76-.03-.31-2.56-.78-8.66-1.2-17.94-1.08-24.07-1.62-36.1-1.62-36.1l-.41-9.27c-.33-2.95-.37-3.94-.34-3.15l-.04-.99-.1-2.17c-.06-1.38-.09-1.97.12-1.78,0,0-.06-1.38-.19-4.34l-.1-2.17c-.24-.98-.27-1.57-.29-2.16,0,0-.68-15.19-2.05-45.77l-.41-9.27c-.03-.59-.05-1.18.1-2.18-.22-.58-.24-.98-.23-.78.17-.6.15-1,.15-1l-.1-2.17c-.24-.98-.27-1.57-.29-2.16-.08-1.78-.1-6.72-.28-15.21.07-2.77,0-4.35-.21-4.73-.21-.19-1.2-.34-2.78-.27l-.99.04c-.97.44-1.76.47-1.96.29,0-.2-2.18-.1-6.52.09l-6.51.29c-3.35.15-5.52.25-6.32.09.16-.8.04-3.56-.36-8.09.11-1.98-.02-4.94-.19-8.69,0-.2-.03-.59-.25-1.17l-.04-.99c-.02-.39-.04-.99.11-1.98-.29-1.96-.42-4.92-.4-8.88,0-.2-.02-.39.17-.6-.04-.79.32-1.6,1.07-2.62.21.19.4-.02.58-.22l.21.19,15.39-.69,2.37-.11c.98-.24,1.77-.28,2.36-.3.39-.02,1.18-.05,2.38.09,2.77.07,5.34-.04,7.5-.34.2,0,.59-.03,1.17-.25l1.18-.05c.59-.03,1.18-.05,2.18.1l29.39-1.32c1.57-.27,2.36-.3,2.37-.11.21.19.81.36,1.39.14.59-.03.79-.04.59-.03.39-.22,2.16-.29,5.32-.44,4.73-.21,4.73-.41,4.86,2.55,0,0,.22,4.93.67,14.99ZM652.2,9.62c-.19.21.02.39.42.57,0-.2-.21-.39-.42-.57ZM706.18,32.11c.19-.21.37-.61.15-1s-.41-.38-.99.04c.02.39.23.78.83.95ZM707.13,26.73s-.22-.39-.46-1.36l-.79.04c-.19.21-.18.4-.16.8.03.59.04.79.24.98.2,0,.58-.22,1.17-.45Z"/>
      <path class="cls-1" d="M783.31,64.75h-2.96c-.59-.19-1.58-.19-2.76-.19-.59,0-1.58,0-2.96.2-.59-.2-1.58-.2-2.76-.2l-.2.2c.2-.2-.59-.2-2.37-.2h-3.16c0-.19-.2-1.97-.4-5.33-.2-1.58-.2-2.17-.2-1.58.2-.59.2-1.78.39-3.16.19-4.15.19-9.48-.41-16.19,0-.99-.4-2.37-1.19-4.34-.79-.99-3.16-1.58-7.31-1.77h-4.54c-2.37.2-3.75.4-4.15.8-.99.59-1.77,1.98-2.17,3.95q-.2,0-.4.2c0,.59,0,1.78-.19,3.16l-.2.2c0,1.58-.19,3.36-.39,8.69v.59c-.2.2-.2,1.38-.19,3.55-.19,4.54,0,8.29.6,11.26.4,1.78.99,3.36,1.58,4.94.2.79.99,2.37,2.37,4.93.2.2.59.59.59,1.18.59.79,1.19,1.97,1.98,3.55.2,0,.59.39,1.58,1.97q.2,0,.4.2v.4c.2.2.59.59,1.19,1.58l.79.79,3.76,5.33c.2,0,.59.39.79.99l2.57,2.76,2.96,3.35c0,.59.79.79,2.77,3.55.2.2.99.59.99.79l1.38,2.17,4.15,4.74,3.36,3.95,2.97,4.14,3.56,5.53q.2,0,.39.2v.39c.79.99,1.38,1.78,1.78,2.57.59.59.2.59,1.78,2.96l.2.2v.4c.79.79.2-.2,2.18,4.14.59.59.99,1.58,1.78,3.95,0,.4,0,.59,0,.4h.2s0,.39,0,.39c0,.2.2,2.76.6,7.9.2.2.2.39.2.59v.79c.2.59.59,1.78.79,3.36.2,2.57.2,5.92.01,10.27-.2,2.17-.39,4.74-.78,7.31l-.98,4.74c0,.59-.2,1.38-.39,2.57q-.2,0-.2.2v.2c-.79,1.98-1.38,3.36-1.58,4.35,0,.2-.2.4-.39.79v.4s-.2,0-.2,0c-.2.2-.2.99-.79.99l-.79,1.78-.99,1.38-.2.2-1.18,1.78c-1.58,1.78-2.96,3.36-4.34,4.55-.2.2-.39.39-1.18.59v.59q-.2-.2-.39,0c-.4.4-1.18.99-2.17,1.58-1.18.79,1.97-.59-5.72,2.77l-8.29.6c-.2,0-.4,0-.79.2h-1.19c-.59-.2-.79-.2-.99-.2h-.59q-.2.2-.4.2,0-.2-.2-.2h-.2c-2.96-.19-5.33-.19-6.91,0l-.2.2h-.79c-.4-.2-.59-.2-.79-.2q0,.2-.2.2c-.2,0-.39,0-.59-.2-.79-.2-1.58-.2-2.17,0-.2,0-.59,0-.99.2h-2.17c-.99-.19-1.78-.19-2.17-.19h-4.35s-2.57-.59-2.57-.59c-.99-.59-2.77-.79-6.13-3.35-.79-1.38-1.98-.39-4.55-4.14-.2,0-.39-.2-.99-.79l-4.94-6.31-.99-1.78c-.2-.2-.39-.39-.59-1.78l-.2-.2v-.2s-.4-.39-.4-.39v-.59c-.2-.2-.2-.79-.4-1.38l-.59-.59c-.59-1.97-.99-4.15-1.39-6.52-.2-.79-.59-1.97-.79-3.55.19-4.94.19-12.44-.02-22.32,0-.2,0-.4-.2-.79,0-.2,0-1.19.2-2.57l.79-2.96c.2,0,2.37,0,6.72.19,3.36.19,9.68.19,19.35.18,2.17,0,3.36,0,3.75.19.2.99.4,3.16.4,6.52v3.36c-.19,1.58-.19,2.76-.19,3.55,0,5.13.21,9.48.8,12.84l1.98,1.18c.59.2,1.58.59,5.53.78,4.94.39,8.29,0,9.87-1,0,0,.59-.4.79-.59,1.38-1.78,1.97-4.54,1.97-8.3,0-.99-.2-1.97-.4-2.96-.59-2.37-1.78-5.53-3.37-9.28-.2-.59-1.19-2.37-3.16-5.72,0-.2,0-.39-.2-.79-.2,0-.4,0-.59-.2q.2-.2,0-.4l-1.38-1.97c-.2-.2-.39-.2-.59-.2.2-.2.2-.4,0-.59-.59-.2-1.38-1.58-3.16-3.95l-.2-.39c0-.2-.4-.99-.99-1.18q.2-.2,0-.4l-2.97-3.35c-.2-.2-.99-.99-1.98-2.37q-.2-.2-.39-.2v-.4c-.99-.99-2.77-3.16-7.32-8.48-.59-.99-1.58-2.17-2.97-3.75v-.4c-.59-.39-1.19-1.18-1.38-1.38v-.4s-.59-.39-.59-.39v-.59c-.59-.39-1.19-.79-1.58-1.38v-.59c-.59-.59-.59-.79-3.16-4.14q-1.38-1.38-2.17-3.16c-.39,0-.4-.59-1.19-1.38v-.39c-.79-.79-.59-.79-.99-1.78-.2,0-.4,0-.59-.2-.4-.99-1.19-2.57-2.57-4.54-.2-.2-.4-.79-.59-1.58-.59,0-1.58-2.37-2.37-3.95-.2,0-.4-.2-.59-.99,0-.4-.59-.39-2.18-4.54l-.2-.2v-.4c0-.2,0-.59-.2-1.18,0,0-.4-.2-.6-1.58,0-.2-.2-.79-.4-1.78-.2-.2-.2-.99-.79-3.36l-.79-3.95c-.2-.99,0-3.16.19-6.12,0,.59,0-.59-.2-3.36-.2-2.17,0-5.33.19-9.48.19-9.28.19-10.86.38-14.02l.78-5.73.39-1.38v-.59s.2-.4.39-.99c.2,0,0,.2.59-1.38v-.4s.2,0,.2,0v-.4s.39,0,.39,0q-.2-.2,0-.4h.2c0-.2,0-.59.2-1.19l.4-.39v-.4s.39-.4.39-.4v-.59s.2,0,.2,0v-.39s.2,0,.2,0v-.4c.2-.2.59-.4.79-.99l.79-.99v-.39s.2,0,.2,0v-.4s.2,0,.2,0v-.59s.2,0,.2,0v-.4c.59-.4,1.18-.99,1.78-1.98v-.4s2.56-2.77,2.56-2.77l.99-1.19,4.34-3.56,1.18-.79h.4c.2-.2.79-.4,1.78-.59l.59-.2c.2-.2,1.38-.4,3.75-.79.39-.2.99-.2,1.97-.4-.99,0,0,0,2.57.2.59-.2.99-.2.99-.2l.2.2c-.59,0,.59,0,3.36-.2,2.96.19,7.31.19,13.23-.01.2,0,.4,0,.79-.2h.59c.39.2.79.2.99.2,2.57,0,5.92.19,10.47.38l1.78.59q.59,0,1.19.59h.39c1.58,1.18,2.57,1.97,3.56,2.37,0,.4.59.2,2.37,1.97,0,.2,0,.39.2.59.99,1.38,2.57,3.16,4.74,5.72,2.97,3.16,3.76,4.93,5.34,9.47v.59c0,.4,0,2.76-.19,6.91l-.58,7.9c.2.2.2.39,0,.59-.2.4-.2,1.19-.39,2.37l-.2.2v1.97c-.19.79-.59,2.17-.78,3.95l-.79,4.15c0,.2,0,.4-.2.79-.2.99-.19,2.57-.39,4.54.2,1.78.4,4.74.4,8.69-.59.2-2.76.2-6.12.2Z"/>
    </g>
  </g>
</svg>