<?xml version="1.0" encoding="UTF-8"?>
<svg id="Layer_2" xmlns="http://www.w3.org/2000/svg" version="1.1" viewBox="0 0 959.7 500.1">
  <!-- Generator: Adobe Illustrator 29.5.0, SVG Export Plug-In . SVG Version: 2.1.0 Build 137)  -->
  <defs>
    <style>
      .st0 {
        fill: #1b3811;
      }
    </style>
  </defs>
  <g id="Layer_1-2">
    <path class="st0" d="M121.9,262c-.2.6,0,4.7,0,4.9,1.9.2,3.4-.8,2.9,2l-3,.5,1,3.5h-3c3.9,4.6.6,17.4-7,14l1,3c-2-1.4-7.9,5.2-5.5,5l4.5-1-2.8,4.7,2.4,3.3c2.6.5,0-3.8,1.5-5,.8-.6,2.4.6,3,1.5-3.8,2.7-.2,4.2,0,7.5-1.9-.8-3.8.1-5.8-.6-1.7-.7-.5-3.2-3.2-2.4l-2,7,4.4-1.1.6,2.1,3.5-4,1.6,1.8,2.8-.8c.7,3.4-6.9,1.9-1.2,4.1l-3.8,6.4,1.9.5v1.4l-2.9.6-1.1,12.9,3.8-1.1.2-4.9,4,4,1.5-2,4.5,3.5c-3.2,2.1-2.4,5.3-3.1,8.9-.3,1.6-1.5,3.1-1.6,4.2-.2,2,1.3,4.4.7,6.7,0,.4-4.3,3.3-5,5.2l2,2.5c-2.9-.6-3.3.9-4,3.5-.4,1.3,5.1-1.1,4,2.5l-4,1c-1.8-.1-1.2-5.4-.9-6.4.5-2.3,2.6-4.5,2.7-7.3,0-3.5-4.3-10.4,1-13.8-2.5-2.9.3-9.9-4.7-3.9,3.2,4.1.8,4.4.4,6.9-.2,1,.6,2.2.3,3.7-.5,2.6-3.4,2.8.2,7.3l-4,4,2,1.1v6.9l-2-.5c-1.1,1.7,1.8,15-3,17l1-6c-5.6,1.6-1.2,8.4-2.1,9.8-.3.6-4.2,1.6-4.7,2.4-.2.3.5,4.6-.2,5.8l-1.9-1c-1.5,3.6-.8,7.9-4,10.5l1.5.7.5,2.8c3.4-1.5,1.6-6.7,2-10l1.1,1.9,2.9-.9-2,6c4,.5-.2-4.3,5-3,.4,4.1-6.3,7.2-2,9l2-3c-2,5-4.1,5.5-2.5,12l-3.6-1.6,2-7.4-4.5,6-1.5-4-1,4.6,2,1.8-3,7.5,4.5-2c1.7-1.6-2.5-.3-1.5-2.5.4-1,1.8-1.8,3-1.5-.8,2.9.4,8,0,10.4-.5,2.8-4.9,5.1-1.5,7.6l1.5-5,3,2,1-6c-6.3.2-1.3-2.2-.5-4,.8-2,0-4.5,2-6l1,2,3.5-2-1,5c6.2,1,4.8-.4,7.4-3,2.2-2.2,3,1.1.6,3l2,.5c-2.1,2.3-.3,6.8-4,6.5-.2-.2,2.6-6.3-1-5,1.3,6.2-6.6,4.5-5.5,9l3.5-2c.7.7-3.7,4.8-4,5.5-1.5,3,4.2-1.1,3,2-.2.4-3.5,6.2-3.9,6.8-.9,1.4-3.4.2-3,1.2,3.6,3.8,5.9-4.2,7-6.5,1.5-.1,2.3-.4,2,1.5-.5,3-4.7,7.5-8,7.5-1.5,2.3,3.1,2,2,3-3,2.7-9.1-.1-8,5l-1-3c-5-.6-6,5-6,9h-3l2-2-1.5-2c-.8,4.6-7.1,2.8-7.4,3.1-.3.4-.2,2.3-1.1,3.4-2.9,3.8-1.7.8-3.7,5.5-2.3,5.5-4.7,3.7-9.4,3,1.3,1.2,1,2.8,1.4,3.8,0,.2,4.1,1.9-.7,2s-1.3.2-4.3,2.1c-1.7,1.1-4.1.8-5.4,2.6l11-2.5c-1.8,5.3-4.7,4.7-9.4,3.9-.9,5.2-3.2,3.1-5.3,4.4-.6.4-.7,1.9-1.3,2.2-.4.2-7.4.4-9,1.5,2-4.2,6.5-2.5,8.3-2.9,1.1-.2.9-2,1.6-2.5.8-.6,4.6,1.4,4-2.5l-3,.5,3-5.5c-2.9.9-6,2.9-8.9,3.6-1.4.4-2.9-.6-4.3-.3-2.5.4-5.3,2.9-8.7,1.8,1.2-2.5,5.1-.7,4-5h3l-.5,2,4-2c1.6-1.7-1.9-.5-1.5-1.5.6-1.5,2.8-.5,4-1.9.7-.8.7-3.5,2-4.6-1.4-1.4-7.6,6.3-8.2,6.7-.5.3-2.3-.4-3.2.2-.8.5-.3,4.6-5.1,4.7-4.3.1-5.9-5.8-10.5-4.6l1-2h-5l3-2c-1.2-3.6-4.2-.8-6.5-1-3-.2-2.6-2.6-3.6-4.2-1.4-2.2-2.5-.6-.9-5.8l2,1c1-3.5-1.9-2.1-2-4.5h4.1v4.5l5-.5c-3.2-2.1-4-7.3-3.9-10.9,0-1.7,1.6-2.9,1.5-4.7-.2-2.5-2.8-8.3-4.5-10.5l2-2-2-2.5,2.1-1.5-2.1-7.5h-2.9v2.9h-4c-.8,3.9,5.6.6,5,5.1h-5l1,2-8-1,.4-6,3.6-1-2.7-3.5.7-1.9c2.4-1.4,5.4-3.1,8.4-2.7.7.1.6,1.6.9,1.7.4.3,1.6-.8,1.7-.7.4.4-.2,3.8,2.1,4,2.7-5.8-.6-16.9,7-17l-1.5-3-2.5,1.5c3.3-2.6,1.1-6.2,1.5-8.6,1.8-9.6,4.9-21,7.3-29.5.8-2.9-1.3-7.3,2.9-6.5l.5-1.1c1.7-4,.3-12.4,1.2-15.3.5-1.4,1.9-2.2,2.5-4,1.8-5.8.6-10.9,1.6-16.3.4-2.2,2.1-2.1,2.9-4.1,2.4-5.8,0-11.7,4.5-16.6l-2-.5c3.6-3.4,0-5,0-9l-3.5,2c-1.4-1.6-2.2-5.7-3-7-.6-.9-2.3-.9-2.4-1.1-.7-.9,1.4-2.5,1.5-3.4,0-1.4-.9-3.1-.6-5,0-.6,4.9-9.9,5.3-10.3.9-.9,3.7-.6,5-1.3,1-.5,1.3-5,3.3.1,4.8.2,4.4-7.5,4.4-11.1l-4,4c.8-5.2,5.2-11.4,1-16l5.3,1,.7,3,1-4,3,4,1-3c3.7-.1,4.3,3.9,3.1,6.6-.7,1.5-4.4,3.3-3.1,4.4,1.2,1,2.9-1.9,4-2,.3.4.4,10.9,3,8-1.6-2.2,1.1-4.3.9-5.4s-2.4-1.9-2.7-3.3c-.5-2,1.3-10.4,3.3-11.3l2.5,4,1.1-5.9h3.9c0-.1-2,5.4-2,5.4l2,1.1c1.4,3.6-3.3,4.5-4.4,6.5-1.8,3.1-2.7,8.4-5.6,11.5l5.5,4.5,3.5-8.5c-1.9-.9-3.1-2.1-3-4.5l3,3v-3.9l5-1.1-1-5,2,4,4-2-2.8-3.5,1.8-3-6-2.5,3-1.5-4-4.5-1,3c-3.9-2.7-7.3,3.1-10.1-.5-.7-.9-.4-7.8-.9-9.8-.3-1.1-3.5-1.2-3-6.2l2-.5.5,2,3.5-4,3,4c-.8-2.1,1.8-4.8,1.6-6.1-.7-4.4-8.3-13.2-1.6-17.9l3,3c-1.5-1.8-1.2-8.9,0-10,2.1-2,1.6,2.5,3,2,.4-.6,0-8,0-9.4-.2-1.7-1.6-2.9-1.5-4.7.3-4,6.3-8.6,3.6-13.9l2,3,2-1.5-2-2.1.8-2.3-1.8-.2v-1.9c4-.2,2-2.8,2.5-4.1s3.6-5.7,4.5-6.6l-1.1-3.4c6.1.5,3,7.3,8,9-3.1-5.9-.5-7,4-10.5l-5-3.5c1.4,1.9-1.5,3.7-3,5l-1-7c-1.2,0-1.3,5.7-4,3-2-2.1,8.4-5.4,2.1-6.1v-1.4c5.4-2.2,1.8-4.7,2-8.1,0-1.9,2.9-3.3.9-6.4l-4,1c.4-3-.7-4.8-3-6.5l2-1.5-5-2,2-1.5c-4.2-1.6-5.6-4.4-8-8,3.2-2.2,2.9,1.6,5,2.5l1.8-4.7c-2.7-3.4-2.3-5.2-2.8-9.3,3.2-.7,2.9,3.2,2,5l3-.5,1.5,1.5-.6,4h4c.4-5.8-6.1-6.9-8-12l4.5,2,1-2,3.5,3,2-8-2.4.9c-1.7-.2-.3-4.5-3.1-3.9-2.2.5,0,4.6-2.5,5,0-3.7-5.2-10.3-1-12l1,3c1.7-4-2-5.2-2-5.6,0-1.1,1.4-2.9,1-4.4l3,1c0-2.7-.9-6.7,0-9.2.4-1.2,2-1.1,2.5-2.2,1.2-2.9,1.2-7.7,2.6-10.8.5-1.1,3.2-1.7,2.9-4.2,5.2-1.3.7,3.2,1,5.4l-2,1,4,2.6-2,4.4h5l-1-7,2,2,2-1.5-5-5,2.1-2.1-1.1-6.4,3,1,2-8c2.2,1,4.9,1,5,4l2-3,2,2c.6-1.5,0-5.5.3-6.4.7-1.5,3.8-1.5,2.8-4.6,3,1.2,5.2.3,6,4l-3,.5c.4,1.1,2.6,4.1,4,3l2-6.5-7-1v-3l5,1-2-3,6.9,1.1-.9,6.9c2.8-.9,4.1,1.4,5.5,2,1.9.8,1.3-3.9,2.5-4.4l-2-1.5h3l-2-2.5c1.2-1.7,1.9-1.7,3.1,0,1.7,2.5-2.1,5.5-1.8,7.8l2.8,6.7,4.9-10.5c-4.2-2.9-8.5-8.2-6.9-13.4l1,2c3.2-.9.3-4.3,1-7,3.1-.7,1.1,2.8,2.2,5.2,1.4,2.8,4.6,5.6,7.7,3.8.2,2.2.4,3.2-2,3l3,5,1.5-2h2l6.3,5.2-2.8,5.8c2-.2,3.4,2.6,4.6,2.8,1.9.3,4.6-2.7,4.4,1.2l5.9-2.5-6-1.5,1-2.4-2.1-1.2c2.2-5,2.9-10,4.1-15.4,3.7,2.1-.5,10.2,5,10l-1-5,5,1c-1.7-1.9.7-2.2,1.5-4l2.5,5,3-1-1,6c3.3,1.1,1.4-4.6,4.5-4,2.3.5,4.2,6.7,3.5,9l2-2,1.5,6-2.5-2c-.4.4,5.5,13.8,1,9.5-4.1-3.8-.3-10.9-5-11.5l2-3.9c-2.6.4-1.4-1.7-2.5-3-3.3,2.2-1.2,6.2-1.7,8.3-.3,1.1-2.1,2.2-1.8,2.7,0,0,1.7,0,2.5,1,2.9,3.6,3.8,5.4,2.6,10l4-2,2.1,5,2.9-1c0,2.2,1.2,4.3,1.1,6.5,0,2-2.4,1-2.2,2.9.3,2.5,2.9,4,2.8,5.9-.1,3.3-4.3,6.9-3.9,10,0,.4,5.1,3.9,5.9,6.3,1.2,3.5-1.4,1.7-2.6,2.5-1.3,1-1.7,8.1.7,8.8.7-2.2-1.8-8.8,2-8-.5,4.7,8.4,5.8,1.5,9l-1-2-.6,1.8-1.9-.8c-.1,5-6.1-2-7.5,4l-1.5-5-1.9.8-1.1-1.8c-.2,3-.4,7.8-4,6-.9,1.4,8.6,10,1,9l2,6,4-2-.5,3,5.1-2.9.9-3.1c2.1,1.5,2.9,2.7,1.5,5l11,2-1.1,2.9-1.9-.9-1,9-6.9-3-3,10,2.5-3,1.5,6-3-1c.4,5.1-4.1,4.2-7.5,5-1.6.4-1.7-.7-1.5,2l5.8,1.2.2,4.8c3.9.6.5-5.7,5-5v9c4.3.3,1-2.7.5-4-.7-2.1,4.3-4.7,5.4-1.3,1.4,4.5-5.8,7.2-3.9,13.4l2-1c-2.4,5.7.9,9.9-3,15,2.1,2.1,6.6-9.2,5-11l3,6,2-1.5c-2.2-1.6-2.1-4-2-6.5l-2.9-.5,3-6c-3.1.4-4.8-3-1-2.1l2.5-4.4c-.9,3.6,2.2,8.2,2.3,10.7,0,1.2-2.4,6-1.8,8.3l4-1c2,3.5-3.6,7,1,9l2-7,2,1c1.1-2.6-1.8-1.7-2-2.6-.3-1.5.4-4.9,1-6.4-.9,0-2.4,2.5-2-.5.4-2.6,2.2-3.9,2-6.5l-6,4v-9l1,5c3.2-.2.1-9.1,2.5-9,3.2,2.8,7.9.2,11.6,4.6v2.4l-1.5-2c-1.5.6-1.1,5-2,7-1.4,3.3-1.2-2.6-3.5-1-.1.1.7,1.7.3,2.7s-1.8,1-2.3,2.3h2v6l1.1-3h2.9l1,9.5-2.9.6-1.1,6.4,3-1.5c.4.5-4.4,6.7-3.7,10.6.3,1.8,5.6,1.5,2.2,5.4-7.3-4.8.4-14.9-4.5-20l.5,4c-4.9,0-5,6.7-.5,5,1.9,5.6-6.8,4.6-4,10l-2.5-3-4.4,3.5,4.9,4.5-2-3,4,2,2-4c-1.9,4,5.6,8.6,5.7,9.4.2,1.2-1.4,4.6-.7,6.6l-3-2v3l-2-1.5-2,1c2.8,1.9,1.2,3.8,1,6.5l2-1c-.4,3.8,2.7,7,3.5,10,.6,2.1-.6,3.9,0,6,.7,2.9,3.4,4.4,1.5,7.5h2l-2.1,2.1,1.1,7.4-4-4,1,12-3.7-7.6.7-5.3c-1.2-.2-2.4,3.4-2.5,4-.8,4.6,2.5,4.8,2.6,6.5.3,3.8-2.3,6.5-1.9,8.8.2,1.1,1.4,2.2,1.6,3.5.5,2.5-.7,6.2,2.2,7.3,1.2-4,1-23.7,4.6-24.8,1.3-.4,2,2.2,3.9-2.2l-.5,4,4-1c.2-.4-1-6.8-1-8-.6.2-1.8,1.3-2,1,.8-3.4-1.7-3-3-4.5-2.1-2.5,2.9.6,2-2-.6-1.6-2.8-4.5-2.9-6.1,0-.4,4.6-2,2.1-6.3l4.9-2.2c-.8,2.7,1.8,5.3,1.8,7.4s-2.6,2.6-2.8,3.4c-.2,1,0,7.7,0,9.3.5-.2,1.4.2,2,0-1-4.6,3.5-8.5,2-14,4.5-1.4-1.7,8,2.5,7,.2,0,2.3-2.1,2.3-2.2.5-1.1-1.7-3.3,2.9-5-1.4-5,2.1,1.6,4.2.1.2-.1.5-2.4,1.2-3.3,2.6-3.3,4-4.1,6.2-7.3,1-1.4,3.7-1.4,2.7-5.3l3,1c-.6-3.8.2-5.1,2-8l2,3c.7-6.1,3.4-11.5,8.5-15l1,2,1.5-3,4,2,2-4c-.4,4.8-1.4,7.9-5.8,9.6l.4,6.4.5-5,3,2,3.5-11c1.2-1.5,7.9,1.3,6.5-4,2.9,1.6,4.7-2.1,3-5l3,1c-.4-3.8,2.9-3.9,4-5.4.6-.8,3.7-5.4,3.8-5.7.2-.6-1.1-2.6-.9-4.2,0-.4,4.3-3.3,4.9-5.4.6-2.3-3.4-5.6-.5-12,.2-.4,3.4-1.8,2.7-4.3,4.6,2.9,6.5-3.1,8-6,1.4-.3,1,4.1,2.5,1,1.5-3.3,3.9-4.6,4.2-5.2.8-1.8-.2-8.5,4.3-8.7l1,1.9,2-11,1.5,2c2.2-1,4.2-12.7,9.5-10v-3l1.9.8c.3-2.8,2.8-2,3.2-2.4.8-.7.8-2,1.4-3,.3-.4,1.6-.5,1.6-1,.2-2-1.7-3.1-1.7-3.9,0-1.8,3.6-3.8,3.7-4.2.1-1.1-.8-2.5-.7-3.7.8-5.8,5.6-8.9,6.7-14.7l2,.5c-1.3,2.4-.7,5.3,2,6.5l.5-3,3.5,1-2-5c2.6,1.5,2.3-1,3.8-1.9,3-1.8,6.3.6,2.2,1.4l1,2.5,5-2c-4-4,3.1-6.5,2-8-.4-.5-1.5,1.6-2,.3-.2-.6.4-1.6-.6-2.4-2.7-2.2-8.2-.4-7.4-6.9l2,2,1.5-5,4,3,1-4c2.5.9,6,13.2,8.5,11,.7-2.8-1.8-1.6-2.8-3.7s-.6-13.9.8-15.3l3,1c0-1.8.4-4.4,3-4l.5,3,1-2,1.5,2.6,3-.6c.6.6-.6,5.7,2,6l-1-7,2.5,2c1.8-2.3-4.5-5.1-3-8,2.1,2.9,4,5,7.5,6.3s5-4.2,8.5,2.7l.5-1.9c3-.4,3.2,2.5,2.9,4.9l-3-1,1.1,5.4-2.1,1.1c5.1,3.5,2.4,10.2,3,15.5,4.2.4-.6-2,3-4,.2.7-.4,2.2.1,2.8.6.7,3.1.6,4.1,1.2,1.1.6,0,2.8,2.7,2l-2-10c-1.9-.3-.5,1.9-1.2,2.8-.3.4-2.7.6-3.8,1.2-1.8-5.4-1.4-10.5-3-16l4,1-1,1.9,4,1-.5-4,4,4,1-2,2.5,3.5-2,3,6.5,4.5,1-2c4.9,3.7,1,6.8,2.6,11.3.4,1.1,4.1.6.4,3.7l-5-10-4.5,3v1.9c3.3-.2,1.7,3.6,2,6.1l1-5c5.5,2.3.3,7.2,3,11.5l-1.5,1.3-12.5-.3c1.8.6,5.7,4.1,6.7,4.3,2,.5,5.3-2.3,6.9,0l1.5,11.1,3-1,1,8-3-3c-1,4.7-.9,8.3,0,13l-2-1c.5,6.3-.2,14.3-2.5,20l-.5-3c-4.9,2.7,1.9,7.1,1,11l-1.5-3c-3.1,2.4-4.5,5.1-4,9h-3.5v10h-2.5l-.5,3.1-1-2-1.1,1.9-2.9-.9c-1.9,6.5-.7,12.4-3.1,18.4l2.1,1.1-3,7.5,2,3c.7-2.2,6.8-5.1,6-1.5-.4,1.9-3,7.6-5,5.5l-1-3-2,7,4-1c-.3,2.8-2.5,3.9-1,7l3-4,2.2,14.9,3.8,2.1,2-3c1.1,2.7-2.6,4.3-2.7,5.5-.1,1.3,1.8,3.3,1.5,4.9-.3,1.3-3.6,3.1-2.8,5.6l-1.5-3-3,6-1.5-2c-.2,2.6-.7,3.6,2,4.5-2.3,5.4-7.5,10.3-7,16.5l4.5-9,2.5,7h-3.9c0,5.4-6.5,2.9-5.1,9l-2-1v4l4.5-3c1.5,2.5-3.2,4.5-5,6-3.5-5.7.7-9.3,3.5-14l-5,4,1-7-1,3-2-2.5c4.7-5,.7-10.1,3-16.5-1.5.1-2.3,3.9-2.5,5-.5,2.8.4,5.1.1,7.3,0,.9-1.4,2-1.6,3.2-.7,5.4,1.1,10.1,2.9,15-4.9,2.6-8.2,11.3-4.8,15.9,1.5,2,3.8.7,3.9,2.5-6.3,1.9-4.3,8-5,13l-1.2-1.8c.8-2.5-1.5-.4-1.5.5-.3,3.7,1.6,7.6,1.6,9.7s-2.6,2.5-2.8,3.3c-1.1,5,3.3,8.9-2,10.8,4.5,2,3.3-4.6,7-4.5-2.8,2.8-.6,5.5-2,9l3-1-.8,2.9h1.8v2.1l-6,4.5,3-.5-1,7,2-1v3l-3,.5,3,2v2l-2,1v1.5c4.4,0,3.1,9.6,0,10.5v2.5l2-.5-2,8,3,3c-4.6,2.3-2.8,5.6-3.6,7.5-.3.6-1.5,1.2-1.8,2-1.1,2.5,0,4-3.6,5.4l4,.5-4,14-3-3-3.5,7-.6-1.9c-7.1,1.1,4.1,3.6-1.7,5l.3,2.9-2.5,1.1.9,2.9-3.5,1,.5,2-2-.6-2-5.4-1,6c-4.7-1.8-9.3,4.1-14,1l3,5-7,3,1-3-4-1.5,2-1.5c-7.4-2.5-4.5-9.7-.9-14.4l-5.1-4.6c-1.1,1.8.3,4.2,0,5.3,0,.3-5.9,2.5,1,2.7-1.9,4,0,8.5-.3,11.7-.1,1.7-2.4,3-.8,5.2l-11.9,3.1,1,5c-1.3-.6-5.4-.1-6-.6-1-.7-.4-3.3-3.5-2.5-.4.1-.4,2-1.1,2.1-2.2.3-12.6-1.1-12.4-5,3,.7,4.9,1.6,8,1.7,1.6,0,3,1,1-1.2l-10.6-2.6-3.4,2.1-1-2.5,1.9-.9-.9-2.5,5,2-2-3c2.9.8,7,0,9.6.8,1.8.6,10.8,9.2,7.5.6l1.9-.4-1.5-2c-1.9-.7-1.3,1.9-2.1,2-2.2.4-7-2-8.4-3.6-.9-.9-1.2-7.1-3.5-1.5-3.9-2.6.4-8.7-5.5-9l-1,2c-.9-3.6,1.2-2.1,2-4l-3-1h4l-3-6,4-.5c-2.5-2.3-8.9-8.5-4-10l-2-3.5,11,5-3-2,2-3-4-1,3-1c-2.5-2.8-2.2-5.5-2-9,3.3,1.2-.4,3.9,2.9,4.5l-.9,2.5h4c.3-.3-1.6-8-4-7v-1c4.7-.7.1-4.3,0-4.6-.1-.6.4-5,1.5-5.4,2.8-1.1,0,4.8,3.5,2.5l-1.6-3.6h-3.4l1-2.9c-1.2-1.5-3.9,5-5,1l1-4,5,2-1-3h3c-7.2-6.9,5.2-13.7,3-23l3,3c.8-2.4-1.4-3.3-2-4.5-1.4-2.8,2.4.8,2-2-.4-2.4-2.3-5.4-2.1-6.9.1-.6,2-.5,2-1.2.1-1-1.4-4.3-.4-5.4,1-1.2,3.3-.3,2.4-2.9l-2-.6c-.3-3.4,6.1-9,1-10.9,3.1-2.4,1-7.5,2.5-10.5.7-1.5,3.5-1.6,3.6-2.6.2-1.2-1.2-3.1-1.1-4.8.2-3.5,3.9-7.7,4.4-9.7.7-2.7-.5-5.2.6-7.9l2,2c-.3-5.6-.8-8.3,3.5-12l1.5,2,4-6.5-3-2,5.8-8-2.8-4,1.8-.6-.8-3.9,2,2c0-5.3,1.8-11.1-2-15.5l2.1-1.1-1.1-3.9,2.1-1.2-1-3,2-.9-1.5-2.5c0,2.5-3,1.6-3.5,1-1.7-2.2,4.1-2,2-4-.6-.6-10.9,6.1-9,8l-2-.6-1.5-4.4c-2.1,5.3-5.4,2.2-8.5,5.5l2,1.5-4-1v7l-2-2-1,3.5,3,1.5-4.5,2c-3.3-1.5,2.4-3.7-1-5-1-.4.9,4.1-3.5,0v3l-2-1c-1.1,1.7,3.5,10.6,6,6.5l-2-.5-.5-3c3.2-.4,4.9,6.2,7.3,2.8.6-.9-.7-3.1,1.1-2.8,1,2-3,9.7-4.2,10.8-.2.2-1.5-.6-2.4.1-.8.7-1,2.3-1.8,2.8-3.2,2.4-7.1-.4-9.7,1.8l5,1.5-3,11c-2,.2-.5-2.1-1-3.3-.4-.9-1.6-.7-1.7-1.2-.7-3.3,1.8-10.4-4.2-9.5,5.4,2.9,2,7.7-2,4-1.9,2.9.6,4.9.6,6.5s-2.2,4.8-1.6,6.5l-3-2v4.9h-3l2,3.5c-1.8,2.7-3.1,2.5-6,1.5-3,4.6.8,11.3-3,14-.5-.6,1.1-5-1.5-4-4.9,1.8-5.6,7.8-7.5,12l-3-2c-.9,1.3,0,3.9-.2,4.5-.2.8-2.4,0-1.8,2,1,3.3,3.9-1.6,5-.5l-2,7c-6.2-7.8-3.9,1-9,4.5l2,2-9,12c-1.4,2.1-.6,5.9-3.9,5.5l1-6c-2.5,7.1-10.6,12.6-11.8,19.8-.4,2.5,2.5,6.6-3.2,4.2l1,4h-2.5c0-.1-1.5,7.5-1.5,7.5l5-1.5c-1,2.4-2.2,4.8-5,5l.6,2,3.4,1c-.2,3.9-4.2,5.2-5.5,9-.5.3-.4-3.7-2.5-2-.4.3-4.6,6.8-5.4,8-1.2,1.9.9,4.9-5.1,5l-.5-2.5-2,1c.6,1.6,1,3.2,1,4.9.5,32.1-2.4,64.1-4.1,96-.5,8.8,4.2,18.8-3.5,24.5-2.2.4-1.5-1-1.5-2.5,0-3.6,1.8-7.1,2.1-11,.9-12.9,1.3-51.7-1.5-63.6-.8-3.4-3.8-5.5-4.5-8.5-2.1-8.9-.9-18.8-1.6-27.6-.3-3.3-2.8-5.6-1.4-8.9h-5c-.2-1.8,2.5-1.3,3.4-1.9,2.3-1.7-.9-5.2-3.4-4.1l2,3c-3.5-.8-2.8,2.8-6.1,2.5-1.5-.1-5.9-1.7-7.1-2.5-1.8-1.2-1.9-4.3-4.8-3.9l2,3-3.5,2-1.5-2,2-1-7-1,2-3h-4.5l.5-2-8,1,4-2-2-2,7,1-1.2-2.8c-5.2,0-10.7-.5-13.8-5.1l5,.5-8-4c2-2.3,5.9,0,8.6.4,1.1.1,3.6.9,3.4-.9l-5.9-1.1v-3.9h-3.1l2,4c-3.4-.9-4.4-5.4-6.5-8l-1.1,2.1-3.4-1.1c-.9-3.4,3.1-.6,5-2-4.1-2.5-1.7-3.3-2.5-4.9-.6-1.3-3.1-2.5-3.5-3.6-1.6-3.8,4.8,1.7,5,0-2.1-4-5.7-1.8-8-5,2-1,4.2,2,6-1l-2-1,2-1c-1.8-1.5-1.5-6.8-2.1-7.4s-2.2,1.1-2.9-.6l4-.5-1-4.3-3-.7,2-1c1.3-3.3.6-5.1-2-7.5l3-2-3-5.5,3-1-4-1.5,4-.5c-1.2-4-2.2-4,0-8l-4-2.5,3,.5-1-6-4,.5c7.9-8.2,12.2,4.4,17,9,1.1,1.1,1.3,0,1-1-1-4-5.4-8.5-7.2-12.8-.7-1.6-.6-4.2-.8-4.7-.1-.2-3,1.3-3.9-1.6l2-2.9-4.5-1.5.5-2.9c-5.9-.6-3.7-3.5-4.5-5.2-.4-.9-7.1-6.5-8.1-9.2l-1.3-12.8c-5.6,5.9,1.4,14.7,3,21l-3-4c-2,.5,0,5.3-3.8,2.7-.4-.3.2-2.7-2.2-1.7-.1,1.4-.2,3.1-1,4.3-.5.9-5.6,5.4-6.1,6.7,1.3-4.9,2.3-5.3,3.7-8.2.5-1,.7-15.2,1.2-18.2l3.1-.6c.4-1.7-1.3-.6-1.8-1.1s-.2-11.8-.2-13.4c-.1-5.6.1-1.9.9-4.3,1.2-3.8,1.8-7.2,2.1-11.2-2.8-.5-1.7.6-2.1,2.3-.6,2.2-.4,5.5-1,7-.6,1.5-2.6,1.3-2.8,2.3-.6,2.4.4,6.9,0,9.8-.4,3.5-2.6,23.4-3.2,24.8-.6,1.2-5.9,4.4-.9,5.8v1.9c-5.5.6,0,5.2-3.9,7.5l4,1.5c-.9-2.8.7-4.8,1-6h0l-.7.5h0ZM152.9,55c2.3-4.2-.9-8.2.5-12,1.1-3,1.2,1.9,3.9.9,4.4-1.8,1.6-7.2-2.3-4.1l-1,1.2c0-1.8-.4-4.4-3-4l-.5,4-2.5-3c-1.6,5.1.6,5,3,8.5l-3-.5v5.9c4-.7,2.4,1.7,3.3,2.8.5.6,1.7.2,1.7.3.9,1.5.4,5.4,3,6-.6-3,1.2-3,2.9-4.6l-.9-3.4-5,2h0ZM124.9,42c-6,.5-4.2,3.5-4.3,7.3,0,.8-1.4,1.7-1.3,2.2,0,1.8,4.4,4.1,4.3.4l-1.6-7.9,7,6c-.3-3.9-4.6-4.5-4-8h0ZM140.9,45c-3.7-.5-5.3,2.9-9,1v3l3-1,3.5,8,2.5-11h0ZM101.9,73l-2-5v7.3l2,1.2-3,3.5c3.7.8,7.8-5.7,6-8l-3,1h0ZM142.9,103c-5.2,0-1.6,5.1-1.4,6.5,0,.5-1.6,2.7-1.1,5,.8,3.5,3.7,3.7,3.6,8-.1,3.9-3.4,6-4.1,9.5,3.9.2,3.4,3.8,5.5,6l2.5-4.5-1.8-.6.6-2.7-1.7-.6c2.8-4.4-.5-8.8.4-13.6h4.4l1.1-2.5,3.4.6,1.1-2.1c2.5,1.5-.4,3.9,1,6l2.5,1c1.3-7.1-5.5-10.4-11.4-10.9l-.6-3.1-3,2-1-4h0ZM169.9,109c-2.6-.7-2.4,1.6-2.1,3.6.3,1.6,5.7,4.3-.8,6.5l.9,2.4-3,.5,4,5,1-6c4.5-1.1,2.7,2.7,5,4-1-4.6-.4-9.3,2-13.5-2.2-3.3-4.1,1.8-7,1.5v-4h0ZM166.9,112c-4.9.2-6.5,5.3-8,9l3.5-4,1.5,4,2-4.4-2-1.1,3-3.5h0ZM196.9,119c.9-1.4-2.8-4.9-4-4l-1,12-2-1,1,4c3.3-2.7,4.6-6.4,3-10.5l3-.5h0ZM93.8,116.2l-3.9-.2c-.4,1.7,1.6.4,2,1.7.2.9-.2,2.1,0,3.1,6.7,2.3,13.4-.2,2-2.1l-.2-2.6h0ZM120.5,133.7c1-2.4.6-4.5,3.4-6.2l-8-.5c-1.4,5.8,3.5,0,3,3.5-.5,3.4-2.5,3.2-2.9,4.3-1.2,2.9-2.4,12.2-4,13.8l-11,.4,1-4-5,1c-.3,1.5,1.5.9,2.4,2,.8,1,.7,2.4,1.6,3.4.4.5,6.3,1.1,7.6,3.6l.5,12-3,.5c2.3,4.1,8.5,3,7,8.5l2.1-13.2,1.9-2.8,2,2c-.5-2.9,1-3.1,3-4.5v-1.5l-1.9-.4.9-2.6h-5c-1.8-4.5,2-6.2,2-6.6,0-5.9.4-7.5,2.6-12.8h-.2ZM152.9,132c-2.4-.3-2.3.1-1.8,2.3.5,2.3,1.7,6.2,2.5,8.5.6,1.6-.5,2.7,2.3,2.2l-3-13h0ZM169.9,133c-1.4-1.1-2.3.6-2.5,2-.3,1.8.5,3.2.5,5l-3,.6-2,9.4-5-5v4l-3,.5,4,4.5-2.9-.5,1,1.5c-1.5,0-2.6-1.7-3.7.5-1.9,4,4.6,4.7,3.7,9.5,4.5,1.2,3.5-4.2,7-4v16l3-5,2,4c1.3,1.2,5.8-11.3,2-13l2.1-.6-1.1-4.8c5-1.6-2.6-12.1-2.6-16.1s1.8-2.9,1.6-4.5l3,.5c-2.4-.4-3.7-4.2-4-4.5h-.1ZM209.9,167c-4.4.3-4,6.9-4,10,3.5-1.9,3.8-6.3,4-10ZM105.9,173l-2,.5,1,2.5c-2.9-.6-3.1,1-4.5,3l-2.5-2,1.1,5.4-2.1,1.6,3,1.5-3,7.5h-3.9l4,3c-4,.2-2,2.7-2.6,4-.4.9-1.8,1.5-2.2,2.7-.9,3.2.8,6.2-3.1,9l1.9,4.3,4-2,.5,3,2-4,4.5,5c.6-4.6-3.3-5.1-5-7.5-4.5-6,2.1-5.9,0-11.5l3,1,7.2-14.9,1.8.9c.2-2.5-2.3-3.8-2-6.5.2-1.9,2.4-2.5,2-4.5l-3,1v-3h-.1ZM367.9,212v-4l-3,1c3.1,3.1.5,2.7,0,6l3-.5,1.5,3.5,4.5-3.5c-2.7,0-2.4-3.9-3-4.5-2.2-1.9-1.5,2.5-3,2h0ZM45.9,278l-2.5-5-2.5,4.5c4.3-.2,8.6,2,4.5,6.5l-2.5-2c-1.3,10.2,7.5,5.6,12.4,6.9.3,0,.8,3.6,4.1,5.1l2.5-4,3,4c-3.5-4.6,1.8-5.3,2-7.5,0-.6-1.5-.4-1.6-.7-.4-.9.7-1.9-.9-2.8l-1,2-5-5c-.8-.4,0,3-2,2-2.7-1.3,0-5.7-3.5-5-.4,3.5,3.2,8.7-1,11l1-5-5,2,2-5.5-2.1-1,1.1-2.4-3,2h0ZM98.6,371.8c.4-.6.7-2.6-.2-2.8-5.7,4.9-6,13-6.5,20,1.5.1,1.6-2.5,1.9-3.6,1-3.4,1.2-9.2,2.3-11.8.6-1.5,2.3-1.5,2.5-1.9h0ZM384.9,383h-5l2,4-2-.5c0,4.7,1.1,6.8-3,9.5h5l-1-2.4c3.8-1.2,1-2.6,1.3-4.9.2-1.7,3.3-3.3,2.7-5.6h0ZM97.9,390l-4-1,1.9,2.4-1.4,3.6-2.5-.5-1-3.5c-1.6,5.3,4,5,2,10l5-11h0ZM85.9,400c-5.1-.4.2,5.6,0,5.9l-3.9,4c3.5.7,7.9-5.6,7.5-8l-3.5,2v-4h0ZM214.9,428c5.3-3.4.6-6,0-9.5-1-6.3,2.2-12.7-.6-18.5-.9,4.8-1.8,9.6-1.5,14.5s2.8,9,2,13.5h.1ZM32.9,481h5.5c1-7.9-5.5-7.3-11.5-7,2.3,3.8-.8,2.6-2,5l9-1-2-2c4.5-.7,3.7.4,5,4l-4,1ZM419.9,384c-.7-.6-2.8-2.4-3-2.8-1.1-2.6,1-8.8-5-6.2v-3l3,1c-2.5-2.2.2-8.5-.1-8.9-.3-.4-2.2-.3-2.7-1.7,0-.2-.2-4.5-.1-4.8,0-.4,4.5-4.3,2.9-7.6l2,3c1-2.8-2-5.6-2-7.5s4.7-1.9,2.1-5.5l3,1-1-4h3c-3.8-6.6,4.2-10.4,3.1-15.5l2.9-.5-2.1-2.4,2.1-13.6h4c1.3-2.6-2-3.3-2-3.5.1-1.5,2.9-2.7,3-3.1.1-.9-1.2-5.2-.9-5.4,2.4-1.7,1.4,2.4,3,2l-2-8,3,2c-1.3-3.9,1.6-3.7,2.3-5.2.6-1.3.2-3.4,1-4.5.7-1.1,3.9-1.3,2.7-5.3l2,1.5,2-1c-3.8-1.4.3-7.8-2-11.5l4,1c.9-2.9-2.1-4.9-2-7.4,0-1.4,1.1-3,1.5-4.5.5-2.5-.6-2.8,2.6-5.6l-2-1,2-1-2-3c4.5-1.8,2.9-4.6,2.5-8.6l10.5-5c-1.6-2.9-3.3-5.8-7-6l4-2.5c-2.2-1.1-.8-3-1.2-4.2-.1-.3-1.8,0-1.9-1.8-.1-2.5,1.5-5.3,1.1-7.9l3-1.1-3-.5c.5-4.8,3.5-8.8,5.4-13.1.6-1.4-.8-3.5,1.6-3.9l1,3,3-21,2,1c.9-4.4,1.4-9.1,2.2-13.5.7-3.5.5-5.3,1.1-8.9.5-3.1,6.4-9.5-1.3-9.6l3-6,2,3c-.2-3.4,1.9-5.3,5-4-3-9.8,6.8-17.9,4-27l-1.5,2.1-4.2-2.5c2.4-5.8,1.8-12.3,6.7-16.6l1,14,3-2,2,2-3-3c-.6-2.1.9-2.7,2.4-1.9,1.9.9,3.1,6.5,6.5,5.9-1.5-4.9-2.9-8.5-9-8l1.1-3.4-3.1-4.6,4,3,1-3.6,5-.3,2.1,3.9c-.4-3.1.1-7,4-7l1,2,.9-5.8-8.9-3.7,2-.5c.5-2.6-.6-1.6-2-2.5l3-8.5,3,4,1-5c2.4,3.4,6.4-.2,7.8.2.5.2,3.5,6.6,6.1,4.6l1.1-1.8v4l5-1-3,3.5,3.5,3.5c3.3-6.2,4.7-2.1,7,2,1.7-2.5-4.3-7.8-1.5-9.5,1.4-.8,12.3.7,14,2.5v-4l3,1,.5-3,1.5,4c2.7.5,1.4-.6,2.5-2,1.9,2.6,5.2,1.4,8,2l-.5-2h5l.5,2,2-2c.8,0,1.1,2.8,2.2,3,12.3,2.8,31-.8,43.9,2.8,1.6.4,1.5,2.1,1.9,2.1,5.7-.4,6-.8,12.4-.5,26.8,1.2,54.7,3.1,81.3,6.9,12.3,1.8,27.1,3.9,31.8,17.2,3.7,10.5,2.3,25-11.6,25.3-4.1,0-29.9-2-32.7-3-1.2-.4-1.6-1.7-1.7-2.8h-1c.5,2.9-2.3,2.1-4.5,2-31.5-.8-62.4-4.7-93.8-5.6-7.1-.2-15.8,1-23.2.7-8.1-.4-20.1-4.9-27.5-.5-1.7,1-5.3,15.6-4.9,18.5l2.5-2-.5,5-2-1c2.3,6.4,1.9,13.8,0,20.5l2-.5-1,8-3-1c-.6,2,1.4,4.9.9,6.4s-4.7,1.3-2.5,3.5l2.5.6-2,5.5-2.5-5c-1.5,1.8-4,3-4.5,5.5-.8,4,1.3,1.2,2.5,2.3s1,2.7,1.8,3.8c.5.7,1.9.8,2.3,1.8.5,1.1-1.6,4.9,2.6,8.2,3,2.3,16.5,1.2,21.2,1.5,13.3.8,26.7,2.1,40,2.8,11,.6,32.6-1.8,41.5,4.6,12.7,9.1,8.5,34.9-6.9,35.9-1.1,0-1.9-1-3.1-1-19,.4-38.3,1.4-57.5-.6l-33.9,1.1-1.6,1.4c1.6,1.8,2,3.2.9,5.4h-4.9c-.9,3.7,1.2,2.2,2,4.1-2.7-.5-5,2.1-7,2.6-2.2.5-3.2-.9-6.3.5-3.3,1.4-1.7,4.4-2.6,6.6-.8,2-3.1,2.2-3.2,4.4l-1-4.5,3.1-2.5-4,.5v-5.5l-4,.5-1,3c2.5-.6,2.4,8.6,2.1,9.8s-2.4-.2-2,2.1c.1,1,3-.3,2,2.5l-3-1c-.5,4.2,0,9.1-1.3,13.2-.6,1.9-4.3,7.5-4.3,9.3s3,4.4.6,10c-1.4,3.4-5.9,3.6-4.5,6.5l2.5-2,1,5-3-1c.3,2.4-2,5.1,1,6l2-3c1,6.3-4.7,9.8-6.2,14.3-1.2,3.6.4,6.8-3.8,8.2l1,2.5,3-.5c-1,1.9-2.9,3.4-3.7,5.3-1.3,3.1-1.5,10.2-4.3,10.2l2,1.5c-2.7,3-5.6,8.4-6.7,12.3-.6,2,.1,4-.2,5.6-.2.9-3.3.4-2,2.7.1.2,2.5-2.5,2,.5l-3,.5,2,6c1.4-3.8,3.9-7.1,5.9-10.6,1-1.8,0-1.8,3.1-1.4.4,1.7-1.7.5-1.8,1.5,0,.7.8,1.4,0,3.2-1,2.5-3.5,5.1-3.8,8.4h-3.5c-.8,3.7,3.6,1.1,5,3.5l-3,5h-2l.5-5.5c-2.4,3-2.6,8.5-7.5,9,2.2-3.2,4.4-6.7,4.9-10.6.2-1.5.7-2.8-1.4-2.4-2.4,2.7-4.2,9-8.5,7l-1.1,4c2.6,1,1.6-1.8,2.6-2s3.7-.4,4.3.5c-4,1.7-2.2,4.5-4.1,8.9-2.1,4.9-4.8,5-6.9,8.6h-2l.5-5c-.8,3.6-4.7.7-7.5,2l2,3h-7c.6-2.6,5.8-2.5,3.5-6-1,1.7-3.4,2.4-4.5,3.6s.2,4.2-4.5,4.3c-3.4.1-4.2-4.1-7.2-4.7-2.1-.5-3.7.8-5.6.7-7-.2-3.2-5.1-8.6-7.4v-1.4c3.4.2.9-2,1.5-3.1.5-.8,2.9-.6,2.5-3.9h-3l2-1.6-7-4.5c2,1.3.9,5.5,1.2,5.8.4.6,2,.4,2.5,1.7.7,2-1,8.2-3.2,9.6l-5.4-2.1v-6.4l2-1.6-3-.5,3-3-3-2.5,6-1h-.3ZM692.9,104c-3-5.1-8.9-1.7-12.5-6-.7,2.8-5.3,7.7.4,5.1l1.1,2.5,2.5-.4.5,1.8,2-.5v-3.5l6,1h0ZM479.9,232l-4-1c.5,5.7-6.4,4-10,5.5,1.7,3.2,6.5,2.4,9.3,1.3,2.6-1,1.1-4,1.8-4.7s3.2.8,2.9-1.1h0ZM448.9,401c-.7-5.2-2.3-1.2-4.5-1s-4.7-2-6.5-2.5c-3.9-1-3.1,3.8-1.5,4.5,3.2,1.4-1.1-3.9,2-3,.6.2,5.1,2,5.3,2.2.8.8.8,5.4,3.2,3.2l-2-2,4-1.5h0ZM855.4,85c1.5.4,2.7,3.4,2.5,5,2,.3,0-2.2,1.6-3.1,2.5-1.5,7.6-.9,10.4,0l-1,4c3.3.3,2.5-2,2.5-4,2.9-.3,6.5,1.7,9,1.8,2.8.2,8.2-.6,11.1-.3,5.7.6,13.2,3.8,18.9,5.4l1.5-2-5-2.5,2-.5.5-3,6,6h1.4c0-3.3,4.7-2.2,7-1.4,3.7,1.2,2.8,3.8,3.2,4.2.6.5,2.8.2,4.9,1.7,2.4,1.7,2.6,4.9,3.2,5.4.7.6,2.5,0,2.7.2.4.4-2.5,4.6.5,6l2.5-2c1,6.6,8,9.1,6,17l2-2v8l3.1.6c-.4,3.6.3,7.5,0,11-.3,3.4-2.9,11.1-2,14.8.2.8,2.8.8,2.8,4.1s-.6,6.8-.8,7.9c-.2,1-4.6,1.9-3,5.7l2-1-.7,5-7.3,1c-1.1,3.6,7,2.2,7,3.5l-5.3,17.7c1.2,4.2-2.7,7.1-3.2,9.3s1.8,6.2-2.5,7.5v-2h-2l-1,2-1-4-4,1v-4l-4.7,7.1-4.3-1.1.5-3c-3.7,1.8.9,9.7.5,10-4.8.4-2.9,4.2-9,2l1,3.4-5.5,3.6-5.5-6,3,7c-4,.8-6.8,3.5-10.9,4.4-4.9,1.1-19.1-.1-19.8,6.2-.3,3.1,3,7-.3,9.9l2,1.5,1.5-3c1.5,1.1,1.4,3.4,2.5,4.5,18.3,20.1,34.8,41.9,53,62.1,2,2.2,2.6,7.5,6.1,6.4-1.8,4.2,1.8,5-3,8,6.1-1,4.5,1.2,6.3,3.7,1.7,2.2,3.9.8,1.7,6.3,6.5-3.7,7.9-1.9,5,5l3-3c.8,6.1,6,6,4,13.4-.2.8-3.4.4-2,2.6,1.2,1.8.2-1.1,1.8,3.6,2,6.2,3.4,7.7-.3,14.4-4.9,2.8-3.7-8.6-5.5-12-3.5-.8-.7,3.6-4,3v1c5.4-.2,2.9,11.2,0,6.4-1.5-2.6,1.1-4.6-1.6-4.4-1.5.5,1.2,5.8-2.5,5v1c3.8.7,2.7,8.1,6,11-2.8-1.4-5.9.5-8.3,0-.3,0-2.7-4.2-5.7-3l8-2.5c-.6-3.5-4.5-2.4-5.8-3.7-.2-.2,1-2.2-.7-2.8l-1.2,3-4.3-.5c2.6-.6,3.2-.7,4-3.5-4.9.3-5.4-5-7-8.5l2.5-.6.5-1.9c-2.4.3-5.7-2.8-6-4.5l2,.5v-2c-2.9.3-.9-5-5-6,.6,2.4-1.4,4.2-1.5,6.1-.6,9.5,2.9,23.5,3.5,33.5.2,3.1,0,6.3,0,9.5-1.6-.6-2.9-3-3.5-4.5-4.1-11.2-3.3-28.8-6.2-40.5-.8-3.3-2.2-8.7-6.3-8,0-2,2.9.1,2-3l-2-.6,1.1-3.5-2,.5,3-4-6-3c-.5-2.6,2-.9,3.7-1.8.3-.1.2-1.5,1-1.7,2.5-.5,6.7,1.5,9.3-.5-2.3-3.2-3.4-2.5-6.5-.8-3-2.3-9.9-.5-12.5-3.1-2.1-2.1-2.1-5.5-3.3-7.3-5.1-7.5-12.1-16.7-18-24-3.4-4.2-8.6-8.7-12.5-12.5l.8-3.8c-2.9-.3-6.9-2-8.6-4.4-1.3-1.9-1.3-4.5-1.8-5.3-1.6-2.6-6.4-11.5-6.8-12.1-.3-.4-1.9.1-2.8-.8-2.4-2.5-4.7-6.4-6.7-9.3l-10.3-2c-.3.4,0,9,.2,9.4.6,1.4,2.7,1.3,2.8,2.3.4,1.9,1.9,14.7,2,16.8.2,6.2-2.1,13.4-1.1,20l-2,1.5c-1.5-1.6-1.8-21.4-2.3-25.2-.7-4.8-3.2-10.7-4.5-15.5-1.4-5,.5-2.9-2.9-7.6-2.9-4-.4-4.3-7.7-2.6l-1.1-2c-4.6.4-7.7,5.9-8.3,6-4.2,1-10,.2-14.3.4l-4,9.6-3-1v3l-4-1-.5,12-2-2-5.5,2,2-1.5c-4.1-6.7-2.1-15.4-3.2-22.8,0-.9-.4-3-1.7-2.7,2.2,12-1.1,23.1,2,35l1-5c9.1,1.4,4.1,8.7,5.1,14.9l2.7.2,1.7,4.9,1.5-4c-1.5,6.8-.7,14.5-1.6,21.1-.5,3.8-1.8,10.4-2.6,14.2-.9,4.4-6.2,9.9-4.8,15.7l-2-.5c1.7-2.2.6-5.3-.5-7.5-2.6,2,.2,7.3-.7,9.4-.7,1.5-2.4,1.4-2.6,1.7s2.1,6.4-1.1,8.5c-7.2.4-2.8-6.1-6.6-9.6-2.2-.5-4,10.2-9.5,9,0,2.2,3.8,1.8,4,2,.4.4-3.3,6.5,3,4,.6,2.5-2,2.2-2.7,3.3-.6.8,0,2.5-.3,2.6-.6.6-8.6-2.5-7,3l-1.5-2c-4.4,4.6-8.6,1.5-13.5,0,.2,8.9,1.4,18.1,0,27h-3c-.4-.4.3-9.7,0-11.6s-2-1.4-2-1.9c.3-4.6,1.7-7.9-.2-13-1-3-2.5-2.3-4-4-2-2.3,3.8.4,2-2-.3-.4-4.7-4.9-5-5.1-1.5-.8-3.3.9-4,.6l-1-3.5,3-3.5c-3.1,1.1-5.2-3.7-4.5-6l3.5,2c-3.1-2.6-.6-4.6-1.2-7.2-.3-1.4-2.6-3-2.5-4.2,0-.9,1.6-1.9,1.9-2.8.4-1.3-.3-2.9.2-3.7,1.4-1.8,3.3.7,1.5-5h2.9c-.9-5.1,1.8-7.1,5-10.6.8-.9,2.8-1.3,3-1.5.2-.3-1-2-.8-3.2.3-1.4,2.8-2.6,3.4-4.7.4-1.3,0-5.1.5-7.4.6-2.9,4.1-4.9,0-8.1l2.9-1.6c-2.2-4.9,1.8-8.4,1.6-14.1-.2-6.5,0-1.9.6-4.5.5-2.3-1.1-6.1,1-9.4,7.3,3.2,4.7-6,2-9.5,5.4-1.5-.3-8.1,0-8.5.2-.3,3.5.1,2-5l3,1c-2.6-2.9,1.2-9.5,1-9.9-.3-.5-3.8-.4-3-3.1,4.2,2,4.4-.8,3-4l-1,3c-4.3.7-.3-5.8-1-8l2,2c-.7-2.6,2.9-1.6,3.1-2.6-1.8-4,1.7-8.7,1.8-10.9,0-2-1.7-5.1-.9-7.6l2,2c2.4-2.6-2-13-1-14,2.1-2.1,1.6,2.5,3,2,.2-1.1.6-2.2.7-3.3.3-4.4-.2-8.9,3.3-13.2l-2-1c.4-3,1.8-5.1,3.1-7.7.6-1.2.9.3,1.9.3l-2-4.5,2-.5-1.9-2.5c7.5-6.3-5.9-16.1,3.8-22.5,0,2.4,1.1,4.6,1.6,7s-2.1,4.7,1.4,4c-.2-6.8.3-13.7,0-20.5-.3-5.6-3.8-14.7,0-19-4.8-2,0-9.3-1-13.5,3.4,1.1,1,4,1.2,6.2,1.3,12.1,2.9,23.9,4.2,35.8,2.8-1.9.4-4.1.7-6.3.5-3.9,1.7-7.3,1.4-12,0-2.5-.8-5.3-1.6-7.7l2.5,4c4.4-2.2,2.5-12.6,2.5-17l-3,2,.9-4.5c-.2-.7-2.9,0-1.9-2.5l4.6-2-.6-4c3.1,2,3.5-.9,5.6-1.7,3.5-1.3,25.5,1.5,26.8,4.6l-.5,7.1c6-.6-1.7-6.5,6.1-5.5,2.6.3,5.9,3.9,6.9,6.5,2.3,0,.6-4.3,0-5.5l1.4-1.3c4,.9,7.3-.9,11.5.3,4.8,1.4,4.6,13.5,6.4,13.5,3.3-3.3-1.5-8.4-1.5-12h17.2,0ZM883.5,118.6c3-4.8,2-8.9,2-14.6-1.5,1.3-2.9,10-3.5,10.5-2.8,2.4-1.7-3-3.5-3.5l-3.5,2.5,3,.5c-1.4,3.2,1.8,7.3,2.8,10.7l-1.5,2.2c-4.2.4-6.9-1.4-8.9-4.9l-5.1,4.9c-2.6-1.6-5-1.7-8-1.8-3.8,0-11.5,1.3-14.9.9-1.8-.2-2.4-1.4-2.5-3.1l-3,4c-.9.6-5.5-2.2-5-4h-2l-2.5,3c-3.2-1.2-5.2-2.7-6-6.1-.7,0,0,6.9-5,6.1-.5,0-.5-4.7-4,0-2,2.7-5.3,13-5.6,16.5-.2,2.7,1.3,5.3.2,8-1.3,3.3-1.5.7-2.7,6.5-2.2,10.5-2.9,17.3-6.8,27.2-1.3,3.4-.6,9.3-5.8,9.7l-2-3c-2,5.1,3.7,4.1,4,5.7.4,1.8-.4,4.6,0,6.8.6,3.5,3.3,5.2,1.4,9.5-.4.9-2,1.5-2.3,2.8-.8,3,2.6,7.7-3.1,9.8l3.9,3.1-3.4,9.5c-6.8.2,1.3,3.2.5,3.9l-3-.5,1,3.5h-2.9v5l3.5-3.9h2l1,1.9,2.2-1.8,9.3-.2c.5-3.1-.9-1.6-2.5-1.9-2.6-.6-5-.9-7.5-2.1l3-1c.9-3.2-2.2-1.4-2.8-2.1-3.3-3.9,3.8-8.8,2.8-12.9l5.5,3c.9,1.3-2.5,4.7,1.5,4l-1.1-7.4c1.4-1.1,2.6,0,2.1-2.6-3.4.3-5.3-.2-5-4l-4,2c1.5-3.6-3-5.1,1.5-8l1.5,4c4.7-2.2-.5-3.8-.9-5.7s2.5-3.8.9-6.3l2.7,3.1,12.7-.9,3.1,5.9c3.2-.2.3-6.1-.5-7l12-1,1.5,4,3.5-2c-3,4.1-2,7.4-.2,11.8.6,1.5-.6,2.7,2.2,2.2-.3-2.2.5-5.3,0-7.3-.2-.8-2.1-.6-2-1.2,0-1.3,2.1-3.1,1.6-5.6,2-1.3,27-3.4,31-3.4s4.5,1.5,5.9,1.5.5-1.9,1.8-2.4c1.4-.5,6.1,0,9.2-.8,4.2-1.2,9.3-4.9,14.2-4.8.3,0,1.6,3.1,5.5,3.3,4.5.2,0-4.6,0-5.9,0-2.4,3.4-5.8,6-5.5l-1.5-3c-1.9-.4-12.2,8.2-14.5,3,2.1.3,2.2-1.3,2-3l4,1,2.5-8,1.1,2.1,7.4-1.1c.5.6-2.6,7.8,2,7-2.3-3.6,1.6-4.9,2.4-7.1,4.2-10.4,6.1-20.8,3.5-31.9h-4c2.2-3.8-.8-4.4-1.3-6-.6-2-2.1-8.9-3.8-9.9-1-.6-2.8.8-4.2.6-2.4-.3-10.8-4.3-14.7-5.3-2.2-.5-4.6.5-6.8-.7-.5-1.9-1.4-4.3-1.3-6.3,0-1.7,1.4-1.5,1.7-1.9h0v.2h0ZM790.7,110.2c-1.7-1.1-6.6.2-6.8-4.2h-1c.3,2.2-1.1,2.2-3,2v2.9c1.7.8,3.3-2.4,3.9-2,0,0-.4,1.4.8,1.9,1.5.7,5.3,1.2,7.3,2,0,0-1.1-2.7-1.2-2.8h0v.2ZM808.9,117c0-4.3-3-7.1-6-10l1,3.4c-2.9.9-2,2.7-1.1,5.1l6.1,1.4h0ZM759.9,242l-7.4-2.1-3.6,3.6c1.4,2.1,1.6.9,2.8.7,2.5-.3,5.5-.2,7.2-.5s2.3-.4,1-1.7h0ZM771.9,286v37l1-3.5c-.8-5.3.7-11,.8-16,0-3.2.3-6.9.3-10s-.2-6.8-2.1-7.5h0ZM207.9,117l1,4-3-2-1,7,4-3-1.1,5.4,2.1,1.1-4.5,4.5-.5-3-4,3-1-5-1,7-3-1,1,4,4-1.9v1.9c3.1,1,1-1.9,3-2l.6,2c3.7-2.4,1.1,1.6,4.4,1,.9-6.2,3.6-11.5,2-18,2.9.9.6,4.9,4,3.5l1,1-1,5.5,4-4,1,5c2-6-1.9-10.1-2-16-1.9.7-3,2.2-2,4h-4c1.7-4.7.5-5.7-4-4h0ZM927.9,413.5c-.3-2.9-1.2-9.5-5-9.5-1.4,1.6,2.5,10.3,2.7,12.6.4,6.3,0,15.7.4,22.8.2,4.9-1,24.4.9,27l3.1.6c-2.2-17.6,0-35.8-2-53.5h-.1ZM126.9,0l2,4-6-2,2,11h3l-.5-4c5.1.5,2.3,3.9,5.5,6l1-8c-.7-.7-6.1,1.7-5-2,8.4-.7,2-3.9-2-5h0ZM153.9,9.5c-.4,2.4.3,5-2.1,7l2,1-2,4.5,4-3,2,4-3-1c-.2,3.9,4.3,3,7,3,.6-3.2-2.5-5.4-2.9-6.7s0-4.6-1-6.9c-1.1-2.7-4.1-1.8-2.1-4.4-3.1-.5-1.7.7-2,2.5h.1ZM140.9,11.5l5-.5-.5,4,4.5-1-2-4.5,4-2.5c-2.6.2-3.7.6-4.5-2l-2.5,3c0-2.5-1.7-3.1-4-3l4-4c-7.8-.6-5.7,5.6-4,10.5h0ZM6.3,387l1.6,7H3.9v5l1-3,2.5.9.9-1.9,2.4,1.6,2.1-1.1-2-1.1v-4.4h3l-1-5-6.6,2h0ZM930.4,214c0,2.9-3.2,4.2-4,6-.8,1.6,1.5,3-3.5,5.5l4.6-.4.4,1.9c4.6-3.5,8.5-8.9,2.5-13h0ZM.9,411l-.9,2.9,11.4,7.1,3.5-5.5c-.1-3.8-1.8,1.1-2.1,1.3-.2.1-3.7-.5-4.8.2l2-5c-1.1.8-5.8,2.5-6.8,1.8-.7-.5-.7-2.8-2.2-2.8h0ZM331.9,438l3.6-.9c.5,3.1,3.6.3,6.4,1.9l1-3-3,1c-1-3.6,1.7-2.6,3-5-5.3-.5-10,0-11,6h0ZM760.5,112.9l-3.5-7.9-2,12,3-6c.2,2.6-1.1,6.7,2,8l.6-6h0ZM896.9,87l-2,1,8,2c.8-5.9-6.1-12.7-6-3ZM392.4,313c6.1-3,4.5-7,4.5-13-2.3.6-.8,5.5-2.2,6.8-.9.9-2.6.8-3.7,1.3-.4,2-.4,3.7,1.4,4.9h0ZM436.9,410l5,2-3,2c1.4,3.7,5.2.6,8,1v-3l-10-2h0ZM10.8,377.5c0,7.1,8.7.9,2.1-2l3-4.5c-3.1-.1-5.1,4-5.1,6.5h0ZM43.9,249.5l2.5,3.5c1.9-1.3.7-2.7,1.2-4.6.3-.9,2-2,2-2.8s-1.6-3.4-1.7-3.5c-3.2-2.9-1,8.5-4,7.5h0ZM92.9,466h3.9v-3l6,2-2.1-1.6,1.1-2.4c-6.3-.5-6.7-.7-9,5h0ZM58.9,234c-5.1,2.7,1.9,4.4,0,9,6.4-.2,3.2-2.6,1.4-5.4-.8-1.2-1.5-2.1-1.4-3.6h0Z"/>
  </g>
</svg>