<?xml version="1.0" encoding="UTF-8"?>
<svg id="Layer_2" data-name="Layer 2" xmlns="http://www.w3.org/2000/svg" viewBox="0 0 630.14 449.13">
  <defs>
    <style>
      .cls-1 {
        fill: red;
      }

      .cls-2 {
        opacity: .15;
      }
    </style>
  </defs>
  <g id="Layer_1-2" data-name="Layer 1">
    <g class="cls-2">
      <path class="cls-1" d="M609.14,49.12l-57.98,14.52-6.47,3.53c-.78,4.39-4.08,7.61-5.11,11.89-1.33,5.52-2.68,43.81-.43,46.06,18.02-10.59,36.58-19.83,57.5-22.99,3.02-.46,6.37.23,9.73-.27,7.94-1.18,15.7-7.03,23.76-3.24l-10.93,9.14c4.81,5.09,2.49,8.32,2.91,13.82.26,3.37,2.84,10.46-.39,13.57-1.84,1.78-12.39,4.63-15.57,5.48-12.49,3.33-40.69,7.08-49.58,16.42-1.84,1.93-1.04,4.39-2.94,6.06l-2.49-3.99c1.06,26.79,7.8,52.96,10.98,79.51.84,7.03,5.13,51.3,2,53.5l-2.98-1.01v4.99s1.49-1.99,1.49-1.99c3.28,5.07-.33,11.4-1.71,16.78l-22.08,3.2-2.21,6.02c-1.37-25.77-1.62-51.63-5.79-77.22-1.39-8.52-3.96-17.02-5.44-25.56-.49-2.86.2-6.51-.93-9.02-.88-1.96-3.72-1-4.3-2.82-.53-1.63,1.02-3.61.79-4.25-.04-.12-1.51-.1-2.13-1.38-.71-1.45-4.64-9.74-4.72-10.31-.12-.8.79-10.15,1.16-10.76,1.36-2.27,4.63-2.89,6.86-1.69,2.3-2.56-5.99-24.94-4.97-29.99l2.96-.04c-2.65-16.63-2.03-33.64-2.99-50.47-1.62-28.42-8.93-55.88,10.6-80.42C534.31,7.93,554.5-.48,564.67.02c3.73.19,2.96,2.81,4.17,3.12,7.38,1.92,24.93-.71,33.58,1.2,1.43.31,2.77,1.12,3.68,2.27l-2.95,5.51,5.99-.99-.92,2.55,1.93.92c-.59,3.22-9.32,5.57-9.04,1.55l-1.97-.03-3.01,8.99c5.38-.12,10.62-.85,12.2,5.39.17.66.62,6.13.52,6.44-.8,2.65-13.49,6.76-16.69,6.22l1.46,5.96h15.5ZM564.15,31.13c-3.98-.71-8.11-1.2-6.01,3.98-2.51,1.21-1.69-1.89-2.6-2.05-1.66-.3-4.46,1.05-5.97,1.96-.63.38-3.17.31-1.43,2.09.1.1,2.03.35,2.78.74.55-3.85,2.34-.33,3.95.06,1.75.43,6.74-1.16,9.29-.27l1.02-3.03-2.08-1.07,1.05-2.42ZM535.14,199.11c-.62-2.58-3.02-.99-4.54-1.92-2.51-1.53-1.17-5.07-4.97-6.06l-2.49,3.5c3.05.83,1.97,2.72,2,5.5l10-1.02Z"/>
      <path class="cls-1" d="M42.14,278.12c-1.73.86-.97,4.79-1.49,7.02-.18.78-1.3,4.09-2.5,3.98-.6-8.53-.6-14,5.99-19.98-3.97.31-4.62-1.77-6.99-4.01l-2,5c-2.15-9.8-1.4-20.08-4.91-29.6-.51-1.38.36-1.71-2.1-1.4-2.61,14.28-2.23,29.07-4.13,43.37-1.3,9.79-1.62,12.11-1.8,22.14-.35,19.96-6.24,48.27-9.09,68.97-1.02,7.4-2.55,14.84-4.9,21.92l-3.08.59,3.06-18.41-3.65-1.52-.37-1.47c.95-12.02,2.97-24.12,3.95-36.1,1.89-22.96,2.6-46.06,5.01-68.99.62-5.92,5.68-31.85,4.99-34.82-.18-.75-1.78-.61-1.97-1.37-1.81-7.36,4.74-19.27,3.98-27.31l1.98,2.99c.72-2.84-1.01-5.85-.88-8.38.43-8.38,3.77-22.49,6.9-30.13l-2.04-1.99c.27-2.29,4.32-3.97,3.03-7.49l-1.49,1-7.99,13.99c-4.43-5.32,1.4-11.65,2.53-16.98l3.95,1,4.51-14.99c2.27,3.82,3.92-1.64,5.98,1,1.5,1.94,2.37,8.34,3.54,10.97,4.91.81-.94-9.81,3.97-8.99.61,3.47,3.45,9.26,1.1,12.4-.71.95-2.35.11-3.09,1.27-3.43,5.36,1.83,3.86,2.75,5.8.69,1.45-6.16,14.32,1.35,10.93l1.9-6.41c1.04,10.74-1.41,23.99.1,34.41.49,3.37,2.78,6.52,3.64,10.36,2.47,10.99,1.25,24.31,3.39,35.61l2.87,11.61,1.02-4.99,2.98,2c.03-2.16.56-5.25-1.98-6l-1,3c2.28-13.01,5.12-26.32,8.25-39.23.7-2.89,3.03-5.17,3.68-8.32.42-2.06.72-6.59.94-9.07.1-1.12.92-3.59-.87-3.37l-6.02,25.99c-3.15-1.42-1.25-6.65-.69-9.2,4.32-19.77,14.58-42.74,17.61-62.38.12-.77.55-2.32-.41-2.4l-5.5,2.99c1.74-5.19.32-10.58,4.6-14.89,6.1-2.68,22.92-22.18,27.94-22.11,4.56.06,1.32,8.51.99,11.12l-2.52-.1.07,1.94c2.75-.22,2.07,2.32,1.97,4.57-1.05,23.21-4.39,47.65-6.03,71-1.18,16.82-1.32,33.7-3.02,50.48l-1.98-10.99.82,127.32-2.82,1.67c-2.4-4.66.97-7.92,1.08-12.5.09-3.8-1.68-7.86-1.22-11.88l-.86-1.11c-3.47,1.38-1.46-2.81-4-3.5l-5.08,28.93-3.93.07c.58-20.13-.77-40.42-.05-60.55.3-8.3.84-20.14,2.05-27.87.52-3.35,4.82-6.76,1.5-11.59l-3.49,7.99c-3.79-9.53,2.97-17.92,2.65-26.7-.09-2.54-1.58-4.69-1.7-7.76-.25-6.21.06-12.42,1.03-18.53l-2.68,7.8-3.32,20.19c-1.72.25-1.06-2.36-.97-3.47.24-3.33,3.42-9.72,0-11.52-.51,5.48-3.7,10.1-5.3,15.21-4.6,14.75-5.91,30.34-9.79,45.21-.86,3.29-6.85,27.02-12,18.9-2.84-4.48-4.36-19.95-5.06-25.7l-2.86-.63v-16ZM33.7,233.54c.57.66,1.1,1.27,1.43,2.1,3.46.28.73-3.1,1.15-4.82.47-1.89,5.4-3.62,1.35-6.68-.66,4.78-3.95,2.05-5.29,6.76-.78,2.75.62,1.8,1.35,2.65ZM74.13,242.11c1.41-5.2,4.05-9.28,3-14.99-1.28.48-2.4,4.51-2.72,5.77-.41,1.65-.8,4.28-.99,6.02-.12,1.1-1.17,3.41.7,3.2ZM63.13,291.12l3-20.99-3.88,14.6.88,6.39ZM9.13,367.12c.05-4.88,4.99-8.98-.49-12.97l-1.18,9.66,1.67,3.31Z"/>
      <path class="cls-1" d="M500.15,105.12c-.87,2.78,1.84,1.72,2.63,3.41,1.55,3.32,3.64,17.82,1.83,20.6-.47.73-2.25.65-2.5,1.68-2.72,11.17-5.59,39.33-4.96,50.8.39,7.16,2.18,15.29,3,22.5l-16.02,3.51c0,1.85,14.21-1.93,16.29-1.34,3.8,1.07,3.67,8.15.38,7.66-2.08-.31-.83-2.25-5.63-.31-2.99,1.21-6.15,5.17-6.66,5.33-3.07.96-10.15.58-14.43,1.6-4.8,1.14-9.88,7.09-7.94-3.43-9.03,0-15.85-.33-16.02,10.48l3.01-.48c.97,2.66-1.78,1.62-2.01,2.65-.89,4.12.67,10.86.02,15.35,3.31.93.85-4.68.98-7.45.05-1.08.46-5.42,2.01-5.53,3.07,7.7,5.88,15.54,6.02,23.99l1.98-4.99c1.57,7.33,4.22,15.49,13.46,14.01,1.37-.22,6.68-4.72,8.08-5.99,9.49-8.65,17.1-22.45,19.49-35.02,4.4-.56.71,6.74,1,8.99,1.91-.37,1.26-2.93,3.64-3.87,3.11-1.23,2.71,2.96,4.85,3.87l1.48-2.99,1,9-1.98-1.01c-2.04,6.57-3.59,14.17-5.97,20.55-1.95,5.24-7.03,17.95-9.85,22.15-1.29,1.93-6.38,7.18-8.17,7.78-1.6.54-3.03-1.19-4.51-1.06-.74.06-1.77,1.32-3.06,1.51-6.95,1.05-21.16,4.76-21.49-4.91l-8.96.98c-.92,9.4,1.7,19.93-.77,28.72l-2.23,1.27c-1.4-8.05-.28-16.45-1.02-24.48-.92-9.86-1.66-6.12-6.92-10.08-.95-.72-4.3-5.46-4.66-5.49l-4.42,1.58c-4.68-3.33-2.61-31.13-3-38.01-.47-8.34-2.99-15.62-3.86-23.14-.67-5.81,1.15-12.84,1.88-18.87,1.41-11.53,3.06-23.06,4.42-34.6l4.56-2.91.99,3.99c-1.46-4.14,2.84-5.88,3.33-7.2,1.01-2.71-.37-5.22,2.66-6.48l3.03-35.31c3.62,1.65,1.2,6.66,1.32,9.67.06,1.57,1.83,3.04.75,5.18l2.9,1.15c-1.65-11.43,7.48-24.78,18.28-28.23,3.47-1.11,6.05-.29,9.03-.97,1.8-.41,3.21-2.18,5.25-2.75,8.91-2.52,17.43-4.68,20.43,6.46l-2.96.49ZM458.15,166.12l2.98-30.99c-4.07,3.47-6.33,8.38-6.89,13.62l2.9-.13c-4.14,14.53-7.88,29.18-6.99,44.51,3.23-.48,5.44-5.37,7.71-7.03,1.65-1.2,9.4-5.19,11.6-6.14,3.98-1.72,8.27-3.24,12.68-2.82l-1.99,4.98,3.98,2.02c4.65-6.61-.76-6.29-1.78-9.7s.33-8.25-.63-12.37c-.71-3.05-4.7-13.67-6.07-16.92-1.8-4.28-4.6-7.31-9.79-6.03-.39.1-5.05,5.69-5.22,6.05-1.68,3.57,2.03,4.77,1.51,8.35l-3.98,12.63ZM460.14,258.13l-2.98,2.5,1,10.49c6.09-.88,1.3-9.11,1.98-12.99Z"/>
      <path class="cls-1" d="M300.14,311.12l-1.99,4.99c-.29-5.34-.48-11.12-1.09-16.42-1.9-16.64-4.12-34.06-4.96-51.03-.17-3.38,1.08-6.98.97-9.12-.09-1.68-3.09-3.84-3.69-7.16-3.55-19.53-2.83-71.21-.87-91.6.53-5.52,6.31-23.61,3.72-27.07-.81-1.09-2.85-.04-3.16-1.15.11-5.17-.77-10,2.6-14.4,2.15-2.8,1.11,1.42,1.96.96.33-.33.69-.64,1.02-.98,2.49-2.52,17.66-20.37,18.56-22.43,1.89-4.36-.41-8.09,1.94-12.58l1.98,6.99,2.02-17,3.08.6c2.23,3.23.46,6.76,1.08,9.66.46,2.17,3.03,4.45,3.9,7.18,2.69,8.48-1.9,26.62-3.04,36.07-.3,2.45.14,5.03,0,7.49l-3.97.03c.58,5-4.3,9.05-4.98,13.52-1.34,8.75-.5,19.11-1.07,27.93-.65,9.99-3.31,20.1-1.98,30.51,6.19-1.1,6.57-8.69,9.47-14.02,1.53-2.81,3.88-6.7,5.69-9.31,1.59-2.29,11.29-14.36,12.83-15.17,2.08-1.1,3.36-.94,3.01,1.49h.98c1.54-9.76,9.17-2.12,11.78,2.74s7.29,29.88,6.21,34.58c-.19.83-1.69.82-1.98,1.39-2.06,4.09-.84,14.64-.96,19.85-.42,18.24,1.08,35.87,2.05,53.96l-2.1,35.5-1.47-9.02-3.52-.98v16.5c0,.85-3.02,14.84-3.46,16.54-.89,3.39-5.33,7.76-5.56,11.98l-2.97-1.01,1.99,3.99-2.99.02c.09-17.5-.11-35.03-.05-52.55s-.14-33.4,2-50c.05-.36-1.63-.34-2.14-1.81-3.91-11.27-.54-28.06-14.8-34.15l2.96-3c-5.06-6.03-8.93,2.06-7.97,7.49l.99-4,3.99.02-2.99,2.98,2.99.5c-5.05,7.54-12.97,21.04-14,30-1.81,15.84,1.46,34.92.04,51.04-.4,4.57-2.63,6.55-3.08,9.92-1.89,14.13.61,33.21.09,48.09-.17,4.87-1.06,10.38-1.05,15.46-2.74,3.48-1.99-8.85-2.22-9.52-.39-1.11-5.77-9.92-5.77-10.99v-23.5ZM325.14,81.13c-2.06-.03-1.96-.57-1.86,1.4.29,5.94-1.18,9.32-1.73,14.59-.18,1.77-.79,2.7,1.1,4,2.55-6.11,1.38-13.43,2.49-19.99ZM310.14,143.13c-2.94-.19-3.23,1.89-2.01,3.94l-3.93,1.66.95,5.39c5.24-.83,4.28-7.08,4.99-10.99ZM311.15,201.12l-1.51-3.97c-5.61,7.98.37,6.97,4,11.96,3.13-2.55,1.62-6.87,2.28-10.34l-2.26-1.63-2.5,3.99ZM306.12,244.12l-3.97-2.99c-2.65,10.08,3.08,3,3.98,4,.49,2.08-1.58,6.82,2.01,5.99-2.05-4.09,4.15-3.85,2-9.99-2.64-.45-3.68.5-4.01,2.99ZM350.13,260.12c-.54-5.59,4.56-11.14-.98-15.99,1.04,4.46-.56,9.2-.5,13.51.01.87.15,2.78,1.48,2.48Z"/>
      <path class="cls-1" d="M216.14,318.62c-1.21,6.8-9,20.13-14.5,24.5-4.25,3.38-8.81,2.76-11,9l-1.48-5.99-3.52,10.99-1.46-12.57c-1.17-.86-11.29,2.85-14.44,2.56-5.3-.5-12.42-8.57-13.36-13.72-.81-4.47-.14-20.06,1.21-24.33.61-1.93,2.87-3.05,3.35-4.65,1.19-3.97-.15-9.06,4.71-12.27l7,9.98c.91-2.38.52-4.34,2.49-6.5,4.02-4.39,1.89,2.94,1.96,4.05.28,4.25,2.68,8-1.46,11.44-.74-.04-1.74-5.08-4.51-2.47.48,4.28,4.62,4.79,6.56,6.43,3.27,2.77.19,7.47.46,11.06,3.16-.94,3.43-1.71,2.99-5.01h16s-3.09-28.55-3.09-28.55l2.08-4.44-3.48.05c-7.25-14.42-22.02-25.06-27.47-40.46l2.95-2.08c-3.68-9.14-9.44-22.17-10.04-31.97-.21-3.37-.71-12.93,2.55-14.54l2.48,1.99c2.28-4.13,4.58-8.37,7.19-12.32,1.46-2.21,4.21-3.83,5.26-5.74,3.69-6.73,1.25-6.84,9.55-11.45,6.49-3.61,9.96-3.44,16.13-5.03,1.91-.49,2.71-2.78,4.88-2.45.68,7.6.89,15.75,2.26,23.24.82,4.47,5.28,12.8,3.26,16.78-1.33,2.64-6.54,1.01-1.53,8.41-5.5,2.53-11.44,8.97-16.89,4.45,5.92-19.46-17.41-26.62-17.71-3.22-.25,19.41,18.37,33.01,27.15,48.29,5.83,10.13,10.42,22.52,12.47,34.04,1.96,0,.92-4.11.73-5.23-.93-5.45-6.06-13.81-4.01-18.5.62-1.42.25-1.53,2.26-1.26,1.89,10.95,5.81,21.73,5,33l-2.99-2.99c-.65,5.3.89,12.48,0,17.5ZM169.1,308.08c1.7-4.25-.55-6.48-5-5.53l-.85,4.48,5.86,1.05Z"/>
      <path class="cls-1" d="M280.13,192.12l-2.98-1c-.79,1.88.08,6.7-.51,7.96-.51,1.1-2.29,1.92-2.95,3.1-3.06,5.56-5.83,15.15-9.06,2.93l-7.48,6.01c.38-2.66-2.1-6.64-.53-9.02,2.29-3.47,3.27,1.77,3.55,2.02.6.54,2.7.18,1.97-1.48-.27-.62-1.76-1.53-2.38-2.62-2.76-4.83-4.48-10.4-9.11-13.87-12.48,14.94-13.79,38.78-12.54,57.52.53,7.88,3.73,27.27,13.5,28.5,17.25,2.18,13.07-8.35,18.56-20.03l4.97,3.99c-.05-2.13.86-4.27,3-5l.49,2.86,2.53-.41.99,2.97c-3.09,7.98-4.42,16.33-7.82,24.26s-7.14,12.01-11.38,18.62c-2.7,4.21-6.45,14.9-12.36,15.72-3.74.52-9.39-3.05-13.02-4.07l-2.92,2.04c-8.83-13.54-13.22-29.99-14.53-45.99l-1.97,1c-1.23-6.14-1.01-12.3-1.06-18.54-.09-10.93,1.68-21.91,2.09-32.92.2-5.41-1.54-17.84-.59-21.55,1.84-7.27,11.66-14.14,15.56-20.51-2.82-.89-2.27-1.85-1.58-4.54,2.31-8.95,17.83-26.56,27.62-19.48,13.92,10.07,16.76,25.83,19.94,41.54ZM234.13,260.13c-2.57-.29-1.59-.01-2.02,1.45-1.45,4.97-3.66,14.81,4.03,13.54-1.49-2.94.43-3.77,1-5.52.18-.56-1.8-.29-2.01-1.13-.56-2.25.4-5.74-1.01-8.34Z"/>
      <path class="cls-1" d="M416.14,290.12l-4.11.59.11,6.4c-1.42,1.5-5.93-4.43-3.1-7.6,1.14-1.28,3.36-.89,4.12-2.1,2.34-3.77-1.09-9.19.98-13.29-5.78.73-12.71,1.79-18.45,2.03-3.54.15-7.75-1.22-10-1.02-2.77.25-5.78,4.5-8.47,5.55-6.18,2.41-2.07-5.55.93-7.07l-2.98-1.01c-3.29-4.96,3.88-4.66,5.46-6.52,1.42-1.67,4.27-11.73,4.59-14.42.09-.76.25-3.67-1.08-2.05l-.98,3.49.87-6.56c.03-.51-1.74.05-1.97-1.86-1.91-15.63.34-43.38,1.05-60.11.3-7.19,1.69-15.19,2.03-22.46-3.42,1.74-7.26,5.97-8.04-.45-.49-4.08,1.54-11.84,4.08-15.02,3.98-4.99,16.13-6.72,15.98-14.53l2.47,2.98c.55-.14,7.44-5.3,8.04-5.96,2.88-3.16.77-7.3,6.48-6.03,1.3,14.95-4.07,29.78-5.04,44.46-1.85,28.11.95,56.35,1.04,84.05,0,3.21.74,12.09-.89,14.09-1.91,2.34-5.71-.12-5.11,3.39l5.06.54,2.44-6.53,2.49,7.99,2.01-5.99v25ZM407.14,138.13c-.89-.91-7.97,4.79-7.98,5.5,0,.78,2.39,2.95,4.29,1.56.64-.47,4.11-6.62,3.69-7.05Z"/>
      <path class="cls-1" d="M150.14,183.13c-.54,14.08-.24,28.48-.95,42.54-1.22,23.98-3.98,48.1-4.94,72.07-.21,5.23,3.01,9.06-3.09,13.91l4.99.49-.98,7.3-6.94,1.82-.08,2.89c-4.6-3.35-18.25,9.65-20.99,6.98,1.41-6.43,7.17-9.23,8-16.49,2.05-17.9-2.39-36.52-2.05-54.05.06-2.85,1.06-5.32,1.09-7.91.16-14.62-1.02-29.65.97-44.03.09-2.4-7.04,3.49-7.52,3.46-1.43-1.28-2.76-4.51-2.34-6.28.9-3.76,16.84-12.69,20.78-15.27,5.24-3.43,3.85-2.11,8.04-3.91,1.73-.75,2.8-4.55,6.02-3.52ZM128.13,222.11c2.55-3.95,2.31-9.03-.49-12.97-2.27-.06-1.5,8.63-1.25,10.24.14.88.43,3.01,1.73,2.74ZM138.26,282.24c.49-.46,2.95.1,3.92-.56,1.66-1.12,1.45-6.66-.54-7.56l-2.47,2.02,1.98,3.97c-6.48-.51-5.87,3.19-5.5,8.01,2.94.6,1.89-5.21,2.61-5.89Z"/>
      <path class="cls-1" d="M411.72,95.73c-.09.29-1.94,5.01-2.11,5.34-1.04,2.01-3.06,3.56-3.58,5.93-3.57,2.08-5.03-5.92-6.88-3.87l.96,3.37c-1.31,4.73-10.54-1.11-12.51-3.33-2.54-2.86-5.52-11.71-5.48-15.5.07-6.23,2.3-14.92,9.02-16.54l-1.61,5,.6,7.99c2.6-5.66,2.13-13.46,6.39-17.67.85-.84,7.52-3.2,5.11-5.34l-6.48,1.01c-2.46-2.19,9.74-10.68,15.21.29s5.05,21.97,1.36,33.33ZM409.14,75.12c-3.09-.26-1.62.2-1.67,1.91-.09,3.06-.42,6.72-.37,9.56.04,2.06-.62,2.93,2.04,2.53v-14Z"/>
      <path class="cls-1" d="M146.79,136.46c3.63,5.32,2.83,14.85,1.06,20.87-1.59,5.41-5.83,7.35-11.19,8.8-2.33-2.61,2.43-1.39,1.48-3.5-1.65-3.65-5.43-3.09-5,1.49-16.78-2.66-8.05-36.05,6.45-34.03,1.3.18,6.39,5.16,7.21,6.36Z"/>
      <path class="cls-1" d="M420.14,258.62c.05-.4.93-3.87,1.99-3.49.64,13.74-1.67,27.24-1,40.99-4.01.64-.99-2.53-.99-3.49,0-10.34-1.13-24.18,0-34Z"/>
      <path class="cls-1" d="M1.13,449.12c-1.74.23-.94-2.27-.99-3.48-.45-10.93.86-21.62,1.01-32.51,2.06.52,1.6,1.47,1.57,2.98-.22,10.99-1.22,22.04-1.59,33.01Z"/>
      <path class="cls-1" d="M94.14,374.13c1.18,1.34-5.75,14.46-7.98,16-.09-5.64,2.01-14.13,7.98-16Z"/>
      <path class="cls-1" d="M241.14,314.13l1.14,4.93,3.86-.93-2,6.01-1.98-1.02v3.37s1.28.74,1.28.74l-.3,2.9c-5.99-3.44,2.05-10.31-4.98-15.51l2.99-.48Z"/>
      <path class="cls-1" d="M82.15,389.12l.49-12.99c2.64,2.82,4.81,12.61-.49,12.99Z"/>
      <path class="cls-1" d="M264.15,327.12c1.08-3.96,3.58-9.28,5.72-12.72.48-.77,2.32-2.89,3.26-3.28-1.47,5.6-5.2,11.67-8.98,15.99Z"/>
      <path class="cls-1" d="M441.15,111.12c.31-3.34-2.91-4.25-3.08-7.48-.08-1.56,2.02-2.5,2.57-2.5,1.24,0,3.45,9.31.51,9.98Z"/>
    </g>
  </g>
</svg>