<?xml version="1.0" encoding="UTF-8"?>
<svg id="Layer_2" data-name="Layer 2" xmlns="http://www.w3.org/2000/svg" viewBox="0 0 211.05 211.05">
  <defs>
    <style>
      .cls-1 {
        fill: #84ee43;
      }

      .cls-2 {
        opacity: .65;
      }

      .cls-2, .cls-3, .cls-4 {
        fill: #adfe7d;
      }

      .cls-3 {
        opacity: .4;
      }

      .cls-5 {
        fill: #67d133;
      }

      .cls-6 {
        fill: #73de42;
      }
    </style>
  </defs>
  <g id="_Шар_1" data-name="Шар 1">
    <g>
      <g>
        <path class="cls-1" d="M165.37,132.49c1.08,2.31,2.84,4.76,4.57,7.17,2.77,3.87,5.5,7.62,5.36,10.5-.38,8.1-4.9,17.67-22.86,18.17-17.96.51-28.93,10.31-36.56,23.61-7.64,13.28-21.77,9.95-23.55-14.66-.69-9.55-8.11-16-18.9-12.2-17.01,6-27.86,35.05-45.7,17.06-1.97-2-3.18-4.07-3.78-6.2-.42-1.47-.54-2.95-.43-4.44v-.03c.72-9.36,10.7-18.63,15.26-23.27.46-.46.88-.94,1.28-1.42,10.68-12.97,3.1-34.86-4.5-39.83-7.89-5.15-30.57-10.3-31.96-38.99-.8-16.43,9.49-28.86,22.6-33.54.01,0,.01-.01.02-.01,7.88-2.81,16.77-2.84,24.89.74,1.97.87,3.91,1.96,5.76,3.27,22.23,15.68,31.98,2.04,27.52-10.09s.12-32.15,16.28-24.33c16.16,7.82,5.21,23.26,9.45,28.19,4.25,4.93,14.34,4.9,22.69-8.5,3.63-5.85,10.17-14.59,17.49-19.66.43-.3.84-.58,1.27-.84.02-.01.04-.03.06-.05,1.75-1.09,3.53-1.95,5.34-2.49.02-.01.04-.02.06-.01,1.79-.54,3.61-.77,5.39-.58,5.74.56,11.28,5.29,15.68,17.07,13.3,35.59-27.54,43.03-17.93,55.93.88,1.17,1.83,2.08,2.86,2.76t.02.01c4.66,3.11,10.74,1.79,17.5,1.48,8.08-.38,17.12.64,25.77,12.36,17.51,23.67-18.1,27.03-35.44,32.25-7.31,2.2-7.61,6.13-5.52,10.54Z"/>
        <path class="cls-1" d="M137.16,209.06c-17.77,5.63-22.29-1.48-18.39-11.45.02-.06.04-.1.04-.12.01-.01.01-.02.02-.05,2.98-7.46,10.64-16.49,20.97-22.95,9.55-5.97,14.71-2.99,16.06,3.26,2.06,9.61-4.88,26.94-18.71,31.32Z"/>
        <path class="cls-1" d="M166.44,186.41c8.04,3.29,11.9-5.29,1.64-9.5-9.8-4.03-10.78,5.76-1.64,9.5Z"/>
        <path class="cls-6" d="M8.63,143.09c13.41,14.28,34.09-3.92,14.37-22.41-19.72-18.49-32.32,3.3-14.37,22.41Z"/>
        <path class="cls-1" d="M182.75,64.09c-8.79,2.89-9.64-.23-7.7-4.58,1.27-2.84,3.72-6.21,5.94-8.79,1.37-1.58,2.71-1.79,3.85-1.15h.01c3.54,1.99,4.94,12.22-2.11,14.52Z"/>
        <path class="cls-6" d="M137.16,209.06c-17.77,5.63-22.29-1.48-18.39-11.45-.38,1.28-2.34,9.52,12.03,7.78,15.61-1.91,26.19-17.82,25.08-27.5-.01-.05-.01-.09-.01-.14,2.06,9.61-4.88,26.94-18.71,31.32Z"/>
        <path class="cls-2" d="M134.99,178.3c-8.06,7.17-1.39,15.02,9.98,5.09,11.36-9.93,1.95-15.71-9.98-5.09Z"/>
        <path class="cls-2" d="M124.01,191.14c-7.36,5.05-2.99,14.46,2.79,8.61,5.79-5.85,7.38-15.6-2.79-8.61Z"/>
        <path class="cls-4" d="M129.8,205.37c.04.17,4.62.29,12.97-3.7s11.74-14.95,10.65-12.96-6.59,10.78-11.71,12.76-12.51,1.13-11.91,3.89Z"/>
        <path class="cls-4" d="M164.13,176.78c-3.8,1.29-1,3.32,3.64,4.76,2.73.85,4.8.4,4.45-.78-.61-2.08-5.67-4.81-8.1-3.98Z"/>
        <path class="cls-5" d="M151.58,3.2c-.53.43-.95.7-1.27.84.43-.3.84-.58,1.27-.84Z"/>
        <path class="cls-6" d="M175.3,150.15c-.13,2.78-.75,5.73-2.23,8.43-.03.06-.07.11-.1.17-2.87,5.09-8.86,9.24-20.53,9.57-17.96.51-28.93,10.31-36.56,23.61-7.64,13.28-21.77,9.95-23.55-14.66-.69-9.55-8.11-16-18.9-12.2-11.1,3.92-19.57,17.63-29.08,21.71h-.01c-5.06,2.18-10.42,1.6-16.62-4.65-1.97-2-3.18-4.07-3.78-6.2-.23-2.07-.35-3.58-.41-4.19.51,2.84,7.23,18.08,18.28,7.56,11.49-10.94,24.97-27.74,31.16-35.75,6.18-8,23.83-30.55,28.61-10.59,4.79,19.96.05,46.85,11.89,38.3,11.83-8.55,16.89-18.86,32.1-15.97,15.21,2.9,33.14,1.21,24.35-15.65,2.77,3.87,5.5,7.62,5.36,10.5Z"/>
        <path class="cls-6" d="M170.89,121.95c-7.31,2.2-7.61,6.13-5.52,10.54-8.21-10.91-16.49-14.59-3.03-23.25,11.72-7.53,53.97-4.69,40.24-22.88-.33-.44-.67-.87-1.01-1.28-6.16-7.2-13.63-7.85-21.01-7.75,8.08-.38,17.12.64,25.77,12.36,17.51,23.67-18.1,27.03-35.44,32.25Z"/>
        <path class="cls-5" d="M172.97,158.75c-2.87,5.09-8.86,9.24-20.53,9.57-17.96.51-28.93,10.31-36.56,23.61-7.64,13.28-21.77,9.95-23.55-14.66-.69-9.55-8.11-16-18.9-12.2-11.1,3.92-19.57,17.63-29.08,21.71,1.73-.89,19.81-20.26,27.03-29.08,7.24-8.84,18.49-14.23,22.51,2.57,4.02,16.82-1.41,34.14,9.45,35.77,10.85,1.64,15.9-24.01,28.04-29.22,12.15-5.2,33.82,4.94,41.57-8.08Z"/>
        <path class="cls-6" d="M40.07,146.77c.84-1.02,1.57-2.1,2.18-3.22.12-.19.22-.38.32-.59,0-.01.01-.02.02-.03,6.75-13.06-.13-31.49-7.02-35.99-7.89-5.15-30.57-10.3-31.96-38.99-.2-4.16.3-8.07,1.4-11.65h0c3.2-10.59,11.41-18.39,21.21-21.89-9.93,5.58-18.48,15.46-9.97,34.71,8.52,19.25,29.4,4.49,33.79,35.75,4.4,31.26-8.43,39.75-9.98,41.89Z"/>
        <path class="cls-5" d="M42.59,142.94c6.75-13.06-.13-31.49-7.02-35.99-7.89-5.15-30.57-10.3-31.96-38.99-.2-4.16.3-8.07,1.4-11.65-4.1,38.02,23.7,27.13,37.24,47.09,12.67,18.68,2.58,35.62.34,39.53Z"/>
        <path class="cls-6" d="M131.4,71.98c5.55,14.18-18.87,22.38-13.93,8.45,4.93-13.94.47-27.12-10.17-34.23-10.62-7.11-9.65,25.57-26.89,11.64-17.24-13.94-27.69-21.92-29.46-22.22,0,0,.06-.16.17-.46,1.97.87,3.91,1.96,5.76,3.27,22.23,15.68,31.98,2.04,27.52-10.09s.12-32.15,16.28-24.33c16.16,7.82,5.21,23.26,9.45,28.19,4.25,4.93,14.34,4.9,22.69-8.5,3.63-5.85-14.01,16.13-1.42,48.29Z"/>
        <path class="cls-5" d="M174.23,22.61c-1.3-17.24-9.89-23.28-17.24-21.96,7.57-2.28,15.29,1.05,21.06,16.5,13.3,35.59-27.54,43.03-17.93,55.93.88,1.17,1.83,2.08,2.86,2.76-2.49-1.05-4.8-2.73-6.82-5.41-11.64-15.44,19.69-25.99,18.06-47.83Z"/>
        <path class="cls-1" d="M87.28,9.23c-6.43,9.44-1.93,20.24,4.86,9.17,6.79-11.08,2.68-20.24-4.86-9.17Z"/>
        <path class="cls-2" d="M150.95,6.03c-17.75,12.7,1.47,43.26,9.17,28.38,7.7-14.88,11.31-43.03-9.17-28.38Z"/>
        <path class="cls-2" d="M29.2,38.41c-25.33,4.94-7.46,25.81,19.31,33.83,10.04,3.01,16.45,7.38,19.43,12.83,9.06,16.58-8.86,29.51-6.71,34.15,6.86,14.76,34.55-16.48,22.94-23.3-13.32-7.82,5.85-17.57-2.03-23.68-7.88-6.11-18.48-40.54-52.94-33.83Z"/>
        <path class="cls-4" d="M38.27,152.99c-11.47,10.64-15.42,26.87-4.11,19.27,11.31-7.6,17-31.22,4.11-19.27Z"/>
        <path class="cls-2" d="M176.84,79.68c-27.36,4.81-2.18,17.34,13.53,13.29,15.71-4.05,12.12-17.79-13.53-13.29Z"/>
        <path class="cls-2" d="M112.64,139.66c-1.12,12.35-2,28.45,4.83,19.09,6.83-9.36,15.71-17.57,26.18-15.19,10.47,2.39,4.72-14.61-6.8-20.43-11.52-5.82-22.49-2.37-24.2,16.53Z"/>
        <path class="cls-4" d="M146.23,155.18c0,1.89,15.55,5.01,21.48,1.4,2.4-1.46,3.45-3.76,4.11-5.42,1.81-4.55-.56-8.58-1.32-5.59-1.94,7.62-6.26,10.4-10.82,10.19-5.67-.26-13.46-2.88-13.45-.58Z"/>
        <path class="cls-4" d="M39.99,41.82c-17.28.39-2.87,6.17,8.52,8.76,11.39,2.59,2.87-9.02-8.52-8.76Z"/>
        <path class="cls-4" d="M63.7,56.31c-5.66-3.13-3.25,4.68,2.56,7.27s3.95-3.66-2.56-7.27Z"/>
        <path class="cls-2" d="M97.41,64.2c-5.28,10.1,16.97,3.4,12.09-4.31-4.88-7.7-7.67-4.15-12.09,4.31Z"/>
        <path class="cls-4" d="M91.13,5.87c-5.64,4.27-1.72,9.64,1.43,4.8,3.02-4.63.6-6.34-1.43-4.8Z"/>
        <path class="cls-2" d="M4.75,118.18c-3.41,5.46,14.55,20.88,19.77,17.31,8.56-5.86-11.98-29.81-19.77-17.31Z"/>
        <path class="cls-4" d="M16.25,69.13c3.14.18,6.74,8.78,17.04,12.85,10.29,4.07,15,11.22,13.3,10.71-1.69-.51-6.36-5.9-15.46-7.61-9.1-1.72-17.58-16.1-14.88-15.95Z"/>
        <path class="cls-4" d="M48.17,96.19c-.18-3.68,3.25,4.39,4.22,8.53,1.07,4.56-.62,9.79-1.3,9.04-.55-.6-.35-4.4-.78-8.02-.63-5.34-2-6.76-2.14-9.55Z"/>
        <path class="cls-4" d="M172.65,105.11c-5.45,3.72.22,4.14,12.74,1.34,12.53-2.79,21.01-10.95,16.54-8.41-4.95,2.82-14.06,5-21.19,6.28-4.22.75-7.08.09-8.1.79Z"/>
        <path class="cls-4" d="M185.04,80.34c-10.29.16-3.88,8.41,1.82,7.29,5.7-1.12,10.36-7.47-1.82-7.29Z"/>
        <path class="cls-4" d="M136.43,132.32c-8.07,3.58,12.69,9.28,9.07,5.25-3.62-4.03-2.83-8.01-9.07-5.25Z"/>
        <path class="cls-3" d="M103.4,101.08c-8.03,7.11-7.02,26.37,3.91,17.99,10.93-8.38,31.93-.93,26.02-9.31-5.91-8.38-19.43-17.99-29.93-8.69Z"/>
        <path class="cls-5" d="M182.75,64.09c-8.79,2.89-9.64-.23-7.7-4.58-.28,3.23,4.25,5.95,8.76.64,5.27-6.21,1.03-10.59,1.03-10.59h.01c3.54,1.99,4.94,12.22-2.11,14.52Z"/>
        <path class="cls-4" d="M181.79,50.9c-4.21,3.29-4.31,8.69-1.04,6.49s5.09-9.64,1.04-6.49Z"/>
      </g>
      <path d="M107.93,67c.13-.02.3-.15.52-.38.22-.23.4-.36.52-.38l.48-.08c.34.07.89.21,1.64.41.75.2,1.19.29,1.32.27.16.17.35.33.57.49.37.27.62.39.75.36s.31-.1.55-.24c.24-.14.41-.28.52-.43l-.13.41c.14-.35.33-.55.59-.59.13-.02.45.12.96.43.51.31.83.45.96.43l1.15.4.67.48,1.15-.19c.37-.52.75-1.09,1.14-1.71.39-.62.49-1.08.31-1.38l1.42.25,1.15-.19c.06-.01.39.21,1,.67.6.46.94.91,1.01,1.35l.08.48c-.14.35-.43.66-.87.93-.45.27-.9.56-1.38.87-.47.31-.88.61-1.23.89-.34.29-.49.56-.45.81l.86-.14c.08.45.4.95.99,1.5.58.56,1.17,1.05,1.77,1.47l-.24-1.43c.18.3.62.67,1.32,1.1.7.44,1.04.82,1.03,1.15.05.32,0,.74-.13,1.25-.14.52-.31,1.05-.51,1.61-.2.56-.37,1.11-.51,1.66-.14.55-.17,1.01-.11,1.39l.25.35c.08.12.15.24.21.36.05.12.15.21.29.25l.67.48-.56-3.34.48-.08,1.41,4.87-1.81,2.66c-.2-.03-.44-.06-.7-.08-.53-.04-.87-.11-1.02-.22l-.67-.48c-.16-.17-.39-.46-.69-.87-.3-.41-.6-.83-.9-1.27-.3-.44-.58-.83-.84-1.19-.26-.35-.43-.58-.51-.7-.04-.25-.05-.48-.02-.68.03-.2.07-.37.11-.51l-.86.14-.67-.48-.75-.95-1.24-.97c-.06-.38-.24-.73-.52-1.04-.28-.31-.59-.6-.93-.87-.34-.27-.65-.53-.92-.78-.27-.25-.43-.53-.49-.85l-.75-.95-1.15.19c-.13.02-.44-.19-.94-.63-.5-.44-.82-.71-.97-.82l-.57.1c-.13.02-.37-.08-.74-.32-.37-.23-.56-.41-.58-.54l-.1-.57-.57-.49-.08-.48-.57.1-1.07.67c-.51.09-.83.03-.96-.18-.13-.21-.37-.54-.71-1.01l.06.38-.44.86.14.86.65.38c.05.32.24.84.56,1.58s.53,1.19.62,1.37l.39,2.29c.03.19.03.39,0,.59-.03.2-.06.4-.09.61-.03.2-.07.37-.11.51l-.57.69.95,4.46c.02.13.03.39.03.78,0,.39.02.82.07,1.27.04.45.06.87.07,1.27,0,.39,0,.62.02.68l.29,1.72c1.01.16,1.85.31,2.53.46.68.15,1.37.16,2.07.04.25-.04.94.05,2.06.29,1.12.24,2.34.56,3.65.96,1.31.4,2.5.84,3.56,1.32,1.06.48,1.63.91,1.69,1.29l.67,1.07c.5.24,1.06.59,1.7,1.04.63.45.99.9,1.06,1.34.1.57.3,1.1.61,1.57.31.47.65.92,1.01,1.35s.69.82.98,1.16c.29.34.46.71.53,1.09l.08.48c-.13.02-.47.24-1.02.66-.55.42-.88.71-.99.85l.18,1.05c.03-.2.15-.45.36-.75.21-.3.38-.46.51-.48l1.15-.19c.06-.01.21.06.43.22.08.12.16.2.24.25l.47,2.77c.02.13.16.48.42,1.06.26.58.4.93.42,1.06-.13.02-.32.12-.59.29-.27.18-.39.33-.37.45s.18.48.47,1.05c.29.57.45.92.47,1.05l.29-.05c.15.89.22,1.68.2,2.37-.02.69-.28,1.08-.79,1.16l-.29-1.72-.2,4.06c-.13.02-.36-.1-.7-.37-.34-.27-.52-.47-.54-.6l-.18-1.05.28-1.23c-.06-.38-.26-.55-.57-.49.02.13,0,.24-.04.35-.05.11-.09.23-.13.37-.1.21-.16.39-.21.53l-.91-.14c.02.13.07.35.16.66.08.31.17.63.26.94.08.31.17.61.25.89.08.28.13.45.14.52.11.24-.12.55-.68.9-.56.36-.98.72-1.24,1.09l-1.05.77c.02.13.02.41,0,.84-.03.43-.03.71,0,.84l-.76.13.1.57c.02.13.15.3.38.52.23.22.36.4.38.52-.13.02-.3.15-.52.38-.22.23-.4.36-.53.38l-.57.1c-.13.02-.31-.08-.54-.3-.23-.22-.39-.39-.48-.51l.24,1.43-.84-.35c-.19.03-.43-.02-.72-.17-.2-.03-.38-.1-.53-.21l-.57.1-.57-.49c-.13.02-.47.03-1.03.03-.56,0-.9,0-1.03.03-.02-.13-.03-.45-.02-.98.01-.52,0-.85-.02-.98l.48-.67-.27-1.62c.05-.07.1-.18.14-.32.16-.22.27-.34.33-.35l.57-.1-.4,1.15.57-.1c.13-.02.31-.2.55-.53.24-.33.35-.57.33-.69s-.2-.32-.54-.6c-.34-.27-.57-.39-.7-.37l-.57.1c-.38.06-.64.26-.79.57-.14.32-.26.68-.36,1.09-.1.41-.2.85-.32,1.33-.12.48-.33.94-.65,1.39-.02-.13-.17-.4-.43-.81-.27-.41-.41-.68-.43-.81l-.27-1.62-2.29-.79.91,4.27v1.18c0,.33-.01.61,0,.84,0,.23.02.41.04.53l-.2,1.7.27,1.62-.68.61.07.97c.01.06,0,.25-.05.55-.05.3-.12.64-.22,1.02-.1.38-.17.75-.21,1.12-.04.37-.05.58-.04.65.05.32.05.79,0,1.43-.06.63-.12.95-.18.96l-1.32.32-.32,1.62-1.83.21c-.02-.13,0-.48.07-1.04.07-.57.09-.95.05-1.14l-.13-.76-.88-.54.52-.97-1.34.23,2.42-1.98-.11-.67c-.02-.13-.1-.33-.25-.6-.14-.27-.29-.57-.45-.91-.15-.33-.3-.64-.45-.91-.14-.27-.22-.44-.23-.5l-.07-.97-.84.24v-.59c-.02-.13,0-.42.05-.89.05-.47.1-.98.13-1.54.04-.56.08-1.06.14-1.5.06-.43.08-.72.05-.84l-.13-.76-1.18,1.18c.63-1.29.91-2.54.84-3.78-.08-1.23-.11-2.21-.1-2.93l-.62-.78c-.01-.06-.05-.09-.11-.08l-.57.1c-.13.02-.41-.03-.86-.15-.45-.12-.73-.17-.86-.15l-1.24-.38c-.06.01-.25,0-.55-.05s-.61-.13-.92-.24c-.31-.11-.62-.19-.92-.24s-.49-.07-.55-.05l-1.24-.38-1.05.18-.67-.48c-.13.02-.52-.09-1.19-.34-.66-.25-1.06-.36-1.19-.34l-.67-.48c-.32.05-.96-.04-1.91-.27-.96-.23-1.72-.46-2.28-.7-.15-.11-.46-.28-.92-.53-.47-.25-.77-.36-.89-.34l-3.24-2.3c-.55-.56-1.01-1.02-1.36-1.39-.36-.36-.72-.75-1.08-1.14-.36-.4-.69-.7-.99-.91-.37-.26-.82-.71-1.36-1.34-.53-.63-1.07-1.32-1.63-2.08-.55-.76-1.05-1.56-1.48-2.4-.44-.84-.71-1.61-.83-2.32l-.1-.57c-.33-1.97-.45-3.47-.37-4.51.09-1.03.22-1.62.39-1.78l1.05-.77c.13-.02.24-.14.33-.35.05-.07.1-.18.14-.32l-.27-1.62c.19-.43.4-.92.63-1.48.23-.56.46-1.09.67-1.59.21-.49.45-1.09.73-1.79l-.19-1.15c-.03-.19.08-.52.32-.99.25-.47.58-1.01,1-1.64.42-.63.87-1.26,1.35-1.9.48-.64.93-1.25,1.36-1.85.11-.15.43-.48.96-1,.53-.52.86-.85.96-1l.48-.67c1.28-1.33,2.72-2.39,4.33-3.18,1.6-.79,3.09-1.37,4.47-1.73l.62.19-1.3-7.15c.3-.18.5-.54.6-1.08.11-.54.22-.82.35-.85-.14-.04.02-.18.47-.42.45-.24.96-.51,1.54-.8.57-.29,1.1-.56,1.58-.81.48-.24.71-.43.69-.56l3.8-1.33c.08.12.2.2.33.24.3.21.45.35.46.41l.08.48,1.07,1.69c.15.89.09,1.72-.17,2.48-.26.77-.58,1.51-.95,2.22-.37.72-.7,1.39-.98,2.03-.29.64-.39,1.21-.3,1.72l.26,1.53c.21.1.43.22.65.38.15.11.33.24.56.4s.41.32.57.49l-.29-1.72c.05-.07.1-.18.14-.32.16-.22.27-.34.33-.35l.48-.08c.13-.02.23-.09.31-.2.08-.11.18-.21.29-.3l-.13-.17.57-.1c-.05.07-.11.12-.18.13s-.15.06-.27.14l.64.87ZM85.41,122.84c-.13.02-.21-.06-.24-.25s.01-.3.14-.32.21.06.24.25-.02.3-.14.32ZM104.98,134.08l.1.57-.48.67-.4,1.15-1.05.18c-.13.02-.28-.1-.45-.37-.18-.26-.27-.46-.3-.59l-.78,2.39-.56-3.34c-.02-.13-.19-.23-.49-.31-.31-.08-.53-.11-.65-.09-.38.06-.54.29-.48.67.02.13.16.38.42.76.26.38.4.64.42.76l.1.57c-.32.45-.67.7-1.05.77l-.19-1.15c-.04.14-.18.29-.41.46-.23.17-.41.27-.54.29-.25.04-.53-.06-.84-.3-.3-.24-.58-.51-.82-.79-.24-.29-.46-.58-.64-.87-.18-.3-.24-.45-.18-.46l.86-.14.67.48,1.05-.18c-.02-.13-.2-.32-.54-.6-.34-.27-.57-.39-.7-.37l-2.2.37-.38,1.24-1.83,2.57-1.15.19c-.6-.42-1.04-.95-1.35-1.59s-.51-1.3-.63-2.01l.76-.13.16.96c.04-.14.13-.32.25-.53.13-.22.18-.39.16-.52l-.1-.57-.67-.48c-.82-.58-1.41-1.37-1.77-2.35-.36-.99-.62-1.96-.79-2.91-.02-.13-.05-.42-.1-.87-.04-.45-.07-.92-.09-1.41-.02-.49-.03-.94-.03-1.37,0-.42.01-.7.05-.84l-.67-.48-.29-1.72,2.3-3.24,1.05-.18,2.28,3.05.67.48.19,1.15c.01.06.11.19.31.39.2.2.42.39.69.57.26.19.49.38.69.57.2.2.3.33.31.39l.18,1.05.67.48.19,1.15c.02.13-.1.36-.37.7-.27.34-.47.52-.6.54.02.13.22.32.59.59.37.27.62.39.75.37l.57-.1.38-.65.57-.1c.45.32.7.67.77,1.05-.04.14-.09.25-.14.32-.1.21-.21.33-.33.35l-.29.05-.21.53c.13-.02.43.03.91.14.48.12.78.16.91.14l.1.57.86-1.32c.02.13.17.4.43.81.27.41.41.68.43.81l.67.48.08.48c.16-.22.38-.36.67-.41s.47-.24.54-.58c.14.04.33.13.58.25.25.12.39.25.41.37-.13.02-.37.13-.73.32l.06.38-.26-.35c-.3.18-.5.35-.6.49l.38.52,1.91-.32ZM90.5,129.15c-.06-.38-.29-.54-.67-.48-.13.02-.32.12-.59.29-.27.18-.39.33-.37.45l1.62-.27ZM92.54,141.28c-.57.1-.99-.05-1.25-.43-.26-.38-.43-.8-.5-1.24l.91.14c.08.12.2.23.35.33.08.12.17.23.26.35.08.12.13.21.14.27l.1.57ZM88.84,126.29c.13-.02.18-.13.14-.32s-.11-.28-.24-.25-.17.13-.14.32.11.28.24.25ZM90.3,131.45l-.57.1.75.95-.18-1.05ZM92.28,136.22c.04-.14.08-.31.11-.51.04-.14.09-.26.13-.37.05-.11.06-.22.04-.35-.06.01-.14.06-.22.14-.08.08-.19.16-.3.25-.17.16-.31.28-.43.37l-.14.91.81-.43ZM82.26,80.16c.13-.02.18-.13.14-.32s-.11-.28-.24-.25-.18.13-.14.32.11.28.24.25ZM90.16,127.15c.13-.02.18-.13.14-.32-.02-.13-.1-.18-.22-.16s-.18.1-.16.22c.03.19.11.28.24.25ZM91.19,133.26c.13-.02.18-.13.14-.32s-.11-.28-.24-.25-.18.13-.14.32.11.28.24.25ZM92.47,137.36l-.57.1.65.38-.08-.48ZM91.2,129.82c.13-.02.18-.13.14-.32-.02-.13-.1-.18-.22-.16s-.18.1-.16.22c.03.19.11.28.24.25ZM91.4,130.97c.13-.02.18-.13.14-.32s-.11-.28-.24-.25-.18.13-.14.32.11.28.24.25ZM92.04,134.79c.13-.02.18-.13.14-.32-.02-.13-.1-.18-.22-.16s-.18.1-.16.22c.03.19.11.28.24.25ZM92.75,129.07c.13-.02.18-.13.14-.32s-.11-.28-.24-.25-.18.13-.14.32.11.28.24.25ZM92.29,122.86c.13-.02.18-.13.14-.32s-.11-.28-.24-.25-.17.13-.14.32.11.28.24.25ZM93.54,130.31c.13-.02.18-.13.14-.32s-.11-.28-.24-.25-.17.13-.14.32.11.28.24.25ZM94.67,137c-.02-.13.06-.21.25-.24s.3.02.32.14c.01.06-.08.11-.27.14s-.29.02-.3-.05ZM93.81,125.45c.13-.02.18-.13.14-.32s-.11-.28-.24-.25c-.06.01-.08.11-.05.3s.08.28.14.27ZM95.87,137.68c-.05-.32.05-.5.3-.54.19-.03.3.05.33.24.05.32-.08.5-.4.56-.06.01-.1,0-.1-.03s-.04-.04-.1-.03l-.03-.19ZM95.31,130.9c.13-.02.18-.13.14-.32s-.11-.28-.24-.25-.17.13-.14.32.11.28.24.25ZM96.26,133c.13-.02.17-.13.14-.32s-.11-.28-.24-.25-.18.13-.14.32.11.28.24.25ZM98.5,132.91c-.06-.38-.29-.54-.67-.48-.13.02-.32.12-.59.3-.27.18-.39.33-.37.45l1.62-.27ZM99.3,134.15c.13-.02.18-.13.14-.32s-.11-.28-.24-.25-.18.13-.14.32.11.28.24.25ZM100.73,135.68c-.13.02-.21-.06-.24-.25s.01-.3.14-.32.21.06.24.25-.02.3-.14.32ZM103.67,150.8c.06-.01.1.01.11.08l-.08.11c-.06.01-.13-.01-.21-.06l-.03-.19c.06-.01.1.02.11.08l.1-.02ZM103.94,151.25c.17.23.26.38.27.45.04.25-.06.4-.32.45l-.1.02c-.02-.13-.01-.26.03-.4.04-.14.06-.24.05-.3s.01-.13.06-.21ZM104.12,152.3c.06-.01.1.01.11.08.04.25,0,.39-.13.41l.02-.49ZM103.42,144.66c.07.05.12.11.13.18.06.38-.03.59-.29.64l.16-.81ZM101.57,88.1l-.05.3.53.21c.07-.34.15-.68.22-1.02.07-.34.09-.64.05-.89l-.81-.75-.63-2.55-.41-.13.37-.16c-.04-.25-.15-.6-.32-1.03-.17-.43-.35-.79-.53-1.09l-.08.11-.19.03-.02-.1c-.02-.13-.03-.24,0-.34.02-.1.01-.21,0-.34l-.1-.57-.88-4.07-.03-.19c-.04-.25-.19-.36-.45-.32l.35-.84c-.13.02-.34-.06-.63-.24-.29-.18-.59-.41-.9-.68-.04.14-.19.42-.45.86-.26.44-.37.72-.35.84l-.48.67c-.53.74-.9,1.59-1.09,2.54-.2.95-.48,1.91-.84,2.89l-.57.1-.48.67.19,1.15.67.48c.82.58,1.54,1.2,2.18,1.84.63.65,1.28,1.21,1.95,1.68l-.02-.1c.37.27.68.43.92.48.24.06.64.2,1.2.44.11-.15.19-.23.25-.24l.21.06c-.06.01-.09.05-.08.11l.03.19,1.13.3-.19-.56.34.24ZM101.7,131.49c-.13.02-.21-.06-.24-.25s.01-.3.14-.32.21.06.24.25-.02.3-.14.32ZM104.39,141.06c.08.12.15.33.21.65.04.25.04.65,0,1.18l.05.29c-.22-.16-.36-.37-.4-.62-.02-.13-.01-.28.02-.45.04-.17.08-.32.12-.46v-.59ZM103.5,135.21c.13-.02.18-.13.14-.32s-.11-.28-.24-.25-.17.13-.14.32.11.28.24.25ZM103.64,131.36l-.1.02c-.06.01-.13,0-.21-.06l-.02-.1.32.14ZM95.82,80.23c.21.1.6.24,1.16.44.56.2.89.62,1,1.26.03.19-.08.57-.35,1.14-.26.57-.45,1.12-.55,1.66-.74-.53-1.2-1.3-1.37-2.32-.15-.89-.11-1.62.12-2.18ZM106.64,145.1c.19-.03.3.05.33.24s-.08.31-.33.35c-.13.02-.2-.03-.22-.16s.05-.27.22-.43ZM107.22,147.36c.21.09.33.21.35.33.03.19-.11.31-.43.37-.13.02-.2-.03-.22-.16-.03-.19.07-.37.3-.54ZM104.29,131.15c.19-.03.3.05.33.24s.02.29-.05.3l.1.57c-.22-.16-.37-.46-.45-.91-.01-.06,0-.13.06-.21ZM105.43,122.12c-.14.74-.56,1.17-1.26,1.29-.38.06-.71.09-.97.07l-.08.11c.17-.55.33-.94.49-1.16s.36-.36.62-.4c.13-.02.29-.02.49.02.2.03.44.06.7.08ZM108.02,149.19c.02.13-.03.2-.16.22-.19.03-.33-.01-.41-.13.02-.27.13-.41.32-.45.13-.02.21.09.26.35ZM97.39,85.47c.06-.01.11.05.13.18l-.19.03-.11-.08.18-.13ZM104.68,126.47l.05.29-.38-.52.33.24ZM109.17,150.76c.13-.02.22.13.27.45.04.25,0,.39-.13.41-.19.03-.32-.14-.38-.53-.03-.19.05-.3.24-.33ZM106.8,134.95l-.57-.49,1.05-.18.1.57-.57.1ZM108.66,144.85c.13-.02.2.03.22.16.03.19-.05.3-.24.33-.2-.03-.32-.18-.37-.43l.08-.11.11.08.19-.03ZM107.17,137.15l-.1-.57,1.24.38-1.15.19ZM109.31,148.67c.25-.04.4.03.43.22.04.25-.1.41-.41.46-.06.01-.11-.05-.13-.17-.01-.06.03-.23.11-.51ZM111.78,144.13c-.29.64-.74,1.27-1.35,1.9-.62.63-1.02.96-1.21.99l-.19.03c-.08-.05.01-.41.26-1.07.25-.66.41-1.13.5-1.41l1.99-.43ZM104.71,120.18c.07.05.12.14.14.27.03.19-.02.3-.14.32l-.1.02.09-.61ZM108.24,141.78c.19.36.31.57.35.63.04.06.07.12.08.18l-.03.4c-.22-.16-.35-.33-.38-.52-.01-.06,0-.13.02-.2.02-.07.03-.14.02-.2l-.05-.29ZM108.17,136.1c-.13.02-.21-.06-.24-.25s.01-.3.14-.32.21.06.24.25-.02.3-.14.32ZM109.85,140.82l.16,1.54-.69-.57-.13-.76.65-.21ZM105.21,114.99c.13-.02.18-.13.14-.32s-.11-.28-.24-.25-.18.13-.14.32.11.28.24.25ZM107.75,130.08l-.08.11.08-.11ZM108.13,127.66c-.05.08-.07.16-.06.25s-.04.15-.17.18l-.09.02c-.06.01-.1-.02-.11-.08-.02-.13.12-.25.43-.37ZM110.2,132.42c.19-.03.3.05.33.24.05.32-.02.49-.21.53-.26.04-.41-.09-.46-.41-.03-.19.05-.3.24-.33l.1-.02ZM108.18,120.38c.19-.03.31.08.35.33.03.19.02.29-.05.3-.13.02-.21-.06-.24-.25l-.06-.38ZM111.79,141.28c.26.02.43.19.48.51.04.25-.04.53-.25.83-.06.01-.14-.24-.22-.75l-.08-.48c-.01-.06,0-.13.06-.21l.02.1ZM111.74,137.46c-.06.01-.08.08-.06.21.06.38.16.56.29.54s.17-.13.14-.32c-.05-.32-.18-.46-.37-.43ZM111.75,135.2l.03.19c.02.13.07.25.16.37.08.12.2.2.34.24.11-.15.14-.32.11-.51-.05-.32-.24-.45-.56-.4l-.08.11ZM111.86,130.57c-.19.03-.27.14-.24.33.01.06.05.12.13.18l.19-.03c.13-.02.18-.13.14-.32-.02-.13-.1-.18-.22-.16ZM112.78,132.57c-.19.03-.26.18-.22.43.01.06.09.15.24.25.25-.04.36-.19.32-.45-.03-.19-.14-.27-.34-.24ZM114.15,138.92l-.13,1c-.19.03-.31-.11-.37-.43-.02-.13,0-.33.09-.61l.4.03ZM101.99,63.18c-.19.03-.26.21-.21.53.03.19.11.28.24.25.19-.03.27-.17.22-.43s-.13-.37-.26-.35ZM104.91,79.39c-.25.04-.36.19-.32.45s.16.4.37.43c.18-.1.24-.3.19-.62-.03-.19-.11-.28-.24-.25ZM103.84,59.04c-.18.1-.37.31-.58.64-.21.33-.38.47-.52.43l-.44.86.18,1.05.52-.38c.13-.02.33-.27.61-.74.28-.47.44-.81.47-1.01l-.24-.84ZM105.78,77.57c-.13.02-.17.16-.13.41.05.32.18.49.38.53.11-.15.15-.29.13-.41-.06-.38-.19-.56-.38-.52ZM113.79,125.13c-.13.02-.17.16-.13.41.05.32.18.46.37.43s.26-.17.22-.43c-.05-.32-.21-.46-.46-.41ZM106.82,78.48c-.06.01-.13,0-.21-.06-.51.09-.72.38-.64.89.04.25.16.37.35.33s.35-.16.48-.38c.13-.22.17-.42.14-.61-.01-.06-.05-.12-.13-.18ZM114.25,126.73c-.19.03-.26.18-.22.43.02.13.11.25.26.35.19-.03.26-.21.21-.53-.03-.19-.11-.28-.24-.25ZM107.67,83.54c-.19.03-.27.14-.24.34.04.25.16.37.35.33s.27-.14.24-.33c-.04-.25-.16-.37-.35-.33ZM116.75,136.32c-.13.02-.21-.06-.24-.25-.02-.13.03-.2.16-.22s.2.03.22.16c.03.19-.02.3-.14.32ZM117.1,134.89l-.67-.48c-.06-.38.09-.61.48-.67l.41.13c.14.04.26.09.37.13.11.05.23.09.37.13l.67.48-1.62.27ZM106.44,68.03c.13-.02.18-.13.14-.32-.02-.13-.1-.18-.22-.16s-.18.1-.16.22c.03.19.11.28.24.25ZM114.37,112.27c.13-.02.18-.13.14-.32s-.11-.28-.24-.25c-.06.01-.12.06-.17.13.03.19.12.34.27.45ZM117.59,131.37l.57-.1.19,1.15-.77-1.05ZM115.78,117.14c.13-.02.17-.13.14-.32-.02-.13-.1-.18-.22-.16s-.18.1-.16.22c.03.19.11.28.24.25ZM116.54,121.63c-.13.02-.21-.06-.24-.25s.01-.3.14-.32.21.06.24.25-.02.3-.14.32ZM118.06,120.19c.13-.02.18-.13.14-.32s-.11-.28-.24-.25-.17.13-.14.32.11.28.24.25ZM118.82,124.68c-.13.02-.21-.06-.24-.25s.01-.3.14-.32.21.06.24.25-.02.3-.14.32ZM120.03,131.84c-.13.02-.21-.06-.24-.25s.01-.3.14-.32.21.06.24.25-.02.3-.14.32ZM118.08,117.34c.13-.02.18-.13.14-.32s-.11-.28-.24-.25-.18.13-.14.32.11.28.24.25ZM119.94,128.42c-.13.02-.21-.06-.24-.25s.01-.3.14-.32.21.06.24.25-.02.3-.14.32ZM110.98,68.15l-1.15.19.1.57,1.15-.19-.1-.57ZM120.73,133.1l-.18-1.05.57-.1.67.48.08.48-1.15.19ZM110.69,69.97c.01.06.11.08.3.05s.28-.08.27-.14c-.02-.13-.13-.18-.32-.14s-.28.11-.25.24ZM121.83,122.7l-1.53.85,1.72.3-.19-1.15ZM121.23,129.09l-.1-.57.57-.1.1.57-.57.1ZM122.08,130.61c-.01-.06-.03-.09-.06-.09s-.05-.02-.06-.09c-.05-.32.08-.5.4-.56.19-.03.3.02.32.14.06.38-.06.6-.38.65-.06.01-.1,0-.1-.03s-.04-.04-.1-.03ZM119.84,117.34c.02.13.13.18.32.14s.28-.11.25-.24-.13-.17-.32-.14-.28.11-.25.24ZM123.33,128.14c-.13.02-.43-.09-.89-.34-.47-.25-.78-.42-.92-.53l-.08-.48c.13-.02.32.03.57.15.25.12.44.17.56.15l.67.48.1.57ZM112.27,68.82c.13-.02.18-.13.14-.32s-.11-.28-.24-.25-.18.13-.14.32.11.28.24.25ZM112.41,69.68l.08.48.48-.08-.56-.4ZM124.13,119.47c.02.13-.03.33-.14.61-.12.28-.16.49-.14.61l.18,1.05-.48.67.07.43c.03.16.09.33.18.51.11.24.21.46.3.64l-.86.14-.48.67,1.24.38,3.16-4.56-.08-.48-.57-.49-.57.1-.48.67-1.34-.95ZM122.36,118.88c.13-.02.18-.13.14-.32-.02-.13-.1-.18-.22-.16s-.18.1-.16.22c.03.19.11.28.24.25ZM122.92,122.22c.13-.02.18-.13.14-.32s-.11-.28-.24-.25-.18.13-.14.32.11.28.24.25ZM124.8,129.86c-.13.02-.21-.06-.24-.25s.01-.3.14-.32.21.06.24.25-.02.3-.14.32ZM118.97,87.04l.02,1.27-.68.02.19-1.21.48-.08ZM126.09,131.12c-.13.02-.21-.06-.24-.25s.01-.3.14-.32.21.06.24.25-.02.3-.14.32ZM115.47,67.99l.1.57.67.48-.1-.57-.67-.48ZM116.6,71.23l-.57.1.65.38-.08-.48ZM124.6,122.24l.57-.1-.48.67-.1-.57ZM124.39,114.02c.13-.02.18-.13.14-.32s-.11-.28-.24-.25-.17.13-.14.32.11.28.24.25ZM124.95,117.36c.13-.02.18-.13.14-.32s-.11-.28-.24-.25-.17.13-.14.32.11.28.24.25ZM126.87,128.73l1.62-.27-.87,1.23-.75-.95ZM118.44,75.15c.13-.02.17-.13.14-.32s-.11-.28-.24-.25-.18.13-.14.32.11.28.24.25ZM127.25,127.49c-.13.02-.21-.06-.24-.25s.01-.3.14-.32.21.06.24.25-.02.3-.14.32ZM119.3,76.77c.13-.02.18-.13.14-.32s-.11-.28-.24-.25-.18.13-.14.32.11.28.24.25ZM126.58,117.09c.13-.02.18-.13.14-.32s-.11-.28-.24-.25-.17.13-.14.32.11.28.24.25ZM128.15,126.45c-.13.02-.21-.06-.24-.25-.02-.13.03-.2.16-.22s.2.03.22.16c.03.19-.02.3-.14.32ZM119.64,72.39l-.67-.48.19,1.15.57-.1-.1-.57ZM120.68,75.06l-.57.1.1.57.57-.1-.1-.57ZM127.21,113.84c.13-.02.18-.13.14-.32s-.11-.28-.24-.25-.18.13-.14.32.11.28.24.25ZM128.37,120.72c.13-.02.18-.13.14-.32-.02-.13-.1-.18-.22-.16s-.18.1-.16.22c.03.19.11.28.24.25ZM128.66,122.44c-.13.02-.21-.06-.24-.25s.01-.3.14-.32.21.06.24.25-.02.3-.14.32ZM129.07,124.92l-.19-1.15c-.02-.13.03-.31.15-.57.12-.25.2-.44.25-.58l.37,2.2-.57.1ZM128.57,118.42c.13-.02.18-.13.14-.32s-.11-.28-.24-.25-.18.13-.14.32.11.28.24.25ZM130.24,128.36c-.13.02-.21-.06-.24-.25-.02-.13.03-.2.16-.22s.2.03.22.16c.03.19-.02.3-.14.32ZM121.36,72.69c-.02-.13,0-.33.05-.6.05-.27.07-.47.05-.6l-.76.13.29,1.72.38-.65ZM130.41,122.93c-.13.02-.21-.06-.24-.25-.02-.13.03-.2.16-.22s.2.03.22.16c.03.19-.02.3-.14.32ZM124.3,76.13c-.13.02-.37.03-.73.03-.36,0-.61,0-.73.02.03.19.09.35.18.46.08.12.17.2.24.25l1.24.38.19,1.15.38-.65-.19-1.15-.57-.49ZM128.57,108.5c.13-.02.18-.13.14-.32s-.11-.28-.24-.25-.18.13-.14.32.11.28.24.25ZM130.71,121.21c-.13.02-.21-.06-.24-.25s.01-.3.14-.32.21.06.24.25-.02.3-.14.32ZM129.42,110.03l-.57.1.1.57.57-.1-.1-.57ZM124.06,78.23c.13-.02.18-.13.14-.32s-.11-.28-.24-.25-.17.13-.14.32.11.28.24.25ZM130.03,113.66c.13-.02.18-.13.14-.32s-.11-.28-.24-.25-.17.13-.14.32.11.28.24.25ZM124.55,74.71c.13-.02.18-.13.14-.32s-.11-.28-.24-.25c-.06.01-.08.11-.05.3s.08.28.14.27ZM130.74,111.48c.02.13.13.18.32.14s.28-.11.25-.24-.13-.18-.32-.14-.28.11-.25.24ZM123.26,63.53c-.13.02-.21-.06-.24-.25s.01-.3.14-.32.21.06.24.25-.02.3-.14.32ZM124.51,70.98c-.13.02-.21-.06-.24-.25s.01-.3.14-.32.21.06.24.25-.02.3-.14.32ZM124.76,72.41c-.13.02-.21-.06-.24-.25s.01-.3.14-.32.21.06.24.25-.02.3-.14.32ZM131.55,112.81c.13-.02.18-.13.14-.32s-.11-.28-.24-.25-.17.13-.14.32.11.28.24.25ZM133.38,120.17c-.13.02-.21-.06-.24-.25s.01-.3.14-.32.21.06.24.25-.02.3-.14.32ZM127.81,83.59l-.57.1.08.48.49-.57ZM128.9,86.55c-.13.02-.21-.06-.24-.25s.01-.3.14-.32.21.06.24.25-.02.3-.14.32Z"/>
    </g>
  </g>
</svg>