<?xml version="1.0" encoding="UTF-8"?>
<svg id="Layer_2" data-name="Layer 2" xmlns="http://www.w3.org/2000/svg" viewBox="0 0 609.96 869.22">
  <g id="Layer_1-2" data-name="Layer 1">
    <g>
      <path d="M384.13,55.09l6.36,2.16,1.51-2.05,2.62,10.05,16.39-3.05c-.63,3.01-5.79,1.65-4.99,4.98h6.99s-2.99-1.49-2.99-1.49l5.5-6.51c1.84,7.63,11.46,3.4,13.8,4.91,2.78,1.8,3.68,11.99,5.64,14.66,4.75,6.44,25.83,2.66,33.57,2.55,11.25-.17,22.77.45,34.02-.06,9.56-.43,19.19-3.03,28.88-1.98l6.84-19.39c4.38.73,8.67.7,13.19.28,6.2-.57,12.32-3.07,17.53-6.5.95-.63.72-2.5,1.53-2.48,1.36.04,2.44,1.79,4.04,2.05,2.1.34,4.81-.99,5.28-.82.29.1,2.85,4.53,3.89,4.81,2.21.59,5.8-.4,8.26.01l-4.99,2.98c2.24.19,8.02-.85,9,1.52-6.72,4.38.04,6.55,1.46,9.54.4.83,3.32,11.05,3.3,11.66-.04,1.54-1.73,2.42-1.73,4.65.01,5.39,3.73,47.49,5,49.87,1.5,2.82,5.66,4.6,5.9,10.36.18,4.21-1.97,22.68-3.05,26.81-.83,3.16-1.67,5.74-4.95,6.18-.13,6.3.39,12.69.11,18.98-.54,12.01-4.11,32.19-2.64,43.11.81,6.08,3.34,8.17,2.59,15.84-.97,9.91-5.86,8.26-7.96,12.29-1.29,2.47-.31,6.71-1.92,8.82-1.18,1.55-5.52,2.08-7.46,3.54s-2.73,4.91-5.14,4.91c-2.64-.06-2.96-3.28-4.49-4.46-1.23-.94-6,.71-8.27.25-3.17-.63-4.74-4.6-7.16-4.75-5.14-.32-10.92,5.29-16.96,4.63-2.71-.3-4-3.57-7.61.29l-1.45-17.06c-2.29-2.99-42.76-1.02-49.1-.89-12.53.25-24.53.78-37.17,1.5-6.17.35-14.67-2.73-16.63,3.61-2.77,8.96.59,16.23-10.66,21.34,3,.96,2.48,4.79,2.99,7.49-3.92.65-5.49-6.14-6.26-6.79-1.3-1.11-4.14,1.56-1.74-3.19-4.25-.83-3.46,8.49-4.01,9h-2.98s-.02-14-.02-14c-3.41,2.67-5.2-.73-7.44-.9-3.32-.26-8.19,3.43-11.89.98-2.69-1.78-2.59-12.66-6.29-15.05-7,1.35-18.16-1.59-24.69,0-.23.06-2.14,1-3.77,1.57-4.29,1.49-5.01,2.55-4.93,7.42l-3.02-.5-1.95-2.5-1.45,9.06c-4.59,2.81-5.09.13-5.68-3.94-2.21.26-4.73-.82-6.62-.84-1.35-.02-2.14,1.52-3.32,1.3-4.27-.78-8.18-10.6-8.95-14.57l-2.98,6.99v-8c-10.51-.09-21.04.12-31.55.05-7.43-.05-10.8-.18-18.36.38-11.59.86-23.53-1.55-34.42-.03-2.65.37-23.69,5.8-24.49,6.79-.53.66.08,2.71-.65,3.82-.28.42-6.7,3.67-8.52,5.51-3.9,3.93-13.68,22.59-9.71,27.2.83.97,5.68,2.8,5.68,3.79l-7.06,4.09.11,19.38c4.98.71,9.43,1.46,13.95-.97l2.01,3.5-4.98,6.02c6.31,3.35.99,5.68.94,6.09-.16,1.31,1,3.24,1.06,4.89.14,4.16-.09,8.34,0,12.49,4.93-1.64,5.34,2.52,7.23,3.34,2.23.97,5.91-.27,6.77,1.65-3.24-1.33-6.74,1.65-8.68,1.81-1.2.1-3.76-2.46-6.23-.71l1.02,22.21c-1.33,2.05-4.54,1.15-6.35,1.75-1.04.35-.76,2.09-2.58,2.41-2.28.4-8.18-.66-10.37.51-.53.28-3.54,4.27-3.62,4.67-.75,3.61,4.56,4.91,7.24,5.26l.57,3.09-8.98-3-1.02,16.99c3.2.76,12.8,1.27,14.5,4.01,3.37,8.65-2.76,17.41,2.58,25.42l-12.93,8.2c-1.78,7.11,1.19,16.03-.15,22.85-.41,2.08-2.16,2.63-2.75,4.25-1.14,3.1-.59,24.35-.22,28.75.12,1.37,1.1,8.1,1.42,8.58.87,1.34,3.54.62,4.91,1.13s1.24,2.16,2.45,2.76c1.87.92,13.38.48,15.7.03,2.19-.42,2.97-2.57,4.12-2.77s2.77,1.04,4.63.61,3.89-3.76,6.71-2.8c2.29,5.39,4.05,8.68,3.04,14.97,5.45.09,15.57-.56,19.74,3.25.9.82,1.09,3.63,2.25,5.27,4.71,6.66,19.39,2.06,26.69,1.85,8.6-.25,21.25,1.53,29.59-.62,2.58-.66,4.62-4.23,7.27-4.73,2.22-.42,9.61.55,10.38-.12l2.53-15.96c1.33-1.88,5.55-.3,6.44-1.08.35-.3.22-2.43,1.03-3.43,2.92-3.57,14.16-1.62,18.58-3.44,7.81,7.27,13.43,2.88,22.52,3,.26-5.1,1.63-18.96,6.4-21.09,6.65-2.97,17.31,3.47,24.58.09l.98,4.58,5.02-.56c.8,3.54-3.21,1.07-4.58,2.93-1.1,1.5.49,7.03,1.54,8.61,1.73,2.59,6.53,3.83,8.28,7.72,2.98,6.63,1.83,20-.71,26.75-1.52,4.03-5.06,3.15-5.58,7.42-.99,8.1,2.05,16.71,1,24.93.26.93,4.87,1.35,6.11,3.33,3.36,5.38,2.88,38.55-1.53,43.31-2.59,2.8-5.14-1.54-5.51-1.02l-1.55,41.99c11.83,5.33,3.96,17.18,6.29,26.56-.27,1.51-8.26,2.01-9.75,5.96-.84,2.81,4.01.23,3,2.98-.4,1.08-2.34-.2-3.06,1.14-1.07,2.01-2.23,8.68.05,10.35-3.62,1.86-14.6,6.38-16.02,1.03h-.97c-1.82,6.78-6.49,3.94-8.28-1.33-1.32-3.89.65-11.59-6.73-8.69l3-10.99c-5.68.55-13.79,1.12-18.36-2.94-1.72-1.53,1.16-3.11-5.25-3.93-6.31-.81-13.86,1.12-20.38.43-2.59-1.28-1.08-3.76-1.58-4.59-.75-1.25-3.56-1.42-4.25-3.66-.95-3.05.82-9.12-.65-11.35l-8.59-2.41-1.51-4.61c-8.45-.96-16.79,2.04-25.02,1.89-6.71-.12-33.17-4.68-36.91,2.17-.85,1.57-.49,3.33-.51,5-2.64.1-3.67.62-4.49-2.01l-3.44,5.49c-7.58-1.47-15.43-.53-23.07.51,1.59,2.74.41,12.45-2.6,12.95-2.85-.04-2.92-3.98-5.02-4.71-1.03-.35-20.69-.42-21.72-.09-2.61.84-1.97,4.69-2.92,5.59-.63.6-2.59.3-3.31,1.17-.59.72-1.37,16.06-1.48,18.53-.72,16.05,2.13,36.92.35,51.17-.36,2.89-1.16,6.46-1.34,8.84-.8,10.13.66,21.28.04,31.52l4-.49-3.03,3.19c.7,11,.25,21.79.03,32.73-.06,2.71,1.89,5.52-.52,8.56-13.73,4.09-27.34,8.88-41.45,11.54-24.6,4.64-56.08,6.07-79.27-4.8-2.69-1.26-5.3-5.12-7.82-7.18-2.86-2.33-7.41-2.51-8.72-7.32-.07-8.29.87-17.51.2-25.67-.29-3.49.35-7.85-2.41-10.08-.13-.26,3.32-.28,2.01-4.85-.32-1.11-2.55.12-2.02-2.14-.08-.91,1.44-.25,1.74-.72.96-1.49.06-14.04.23-17.33.38-7.24,1.6-14.66,1.47-21.95-.04-2.25.3-7.25-2.42-6.52l2.02-1.55c.21-1.76-1.63-6.56-1.71-8.04-.1-1.83.88-3.77.78-5.89-.34-7.92-4.52-20.7,3.57-24.94-1-17.96-2.66-36.09-3.11-54.07-1.18-47.64-1.19-95.6.47-142.98.25-7.16,2.38-18.51,1.94-24.98-.17-2.44-2.49-3.78-2.93-6.08-1.59-8.32,3.6-17.66-5.27-23.73-4.03-2.76-4.35-1.14-9.09-5.42-2.2-1.99-5.01-.25-3.69-7.31l-3,2.49c2.31-3.3.68-15.13,1.9-17.04,1.74-2.71,10.58-7.11,13.85-8.22,1.87-.64,5.35.6,6.17-1.88l-.84-23.92c-3.79-2.68-7.13,2.55-7.57,2.55-.36,0-1.73-2.31-3.21-2.78-3.85-1.21-10.46-.64-14.56-1.44-2.82-.55-12.73-2.9-11.6-6.11.36-1.21,2.27-1.92,2.46-3.1.57-3.56-2.27-16.1-3.61-20.04l5.87-3.96c-1.55-7.57-2.15-15.29-1.8-23.02.1-2.18,2.76-3.25-.05-7.52,5.63-2.27,11-2.25,17-2.01.99-.99-.86-16.84-.57-19.56.18-1.67,1.64-2.38,2.05-3.53,2.24-6.34.34-30.8,1.15-41.6.1-1.29-.83-2.77-.69-3.65.06-.41,4.09-2.55,4.83-6.41.62-3.21-.63-5.35-.4-7.6,1.56-15.36,4.6-29.56,11.16-43.63s18.41-27.18,24.46-42.04l-1.98.48-1.01-3.47,4.86.89c.61-3.29,3.76-3.69,5.6-5.94,14.63-17.82,32.05-28.82,50.87-42.13,20.28-14.34,27.47-20.28,52.45-27.55,25.04-7.28,53.72-3.55,79.79-3.28,3.68.04,8.1-1.12,11.86-1.01,11.52.33,27.72,6.25,38.27,1.2,2.33-1.11,4.86-5.14,7.3-3.7l-2.99,3.49,3.77-.24,12.88-14.64c3.02-.35,13.21,1.97,14.73.85,4.17-3.09-.25-12.14,1.03-13.99l16.59-2.96c.42-11.15,1.73-22.35,1.01-33.55-.46-7.17-1.34-5.1-3.47-9.5-7.78-16.09,23.33-14.21,31.93-10.93,3.25,1.24,4.42,3.54,4.08,7.01-.52,5.26-3.81,4.82-4.41,6.61-.43,1.3-.89,7.61-1.14,9.86-.43,3.76-1.87,28.28-.89,29.38ZM384.01,10.2c3.83-3.89-16.19-5.85-17.99-4.99,4.38,6.03,12.95.32,17.99,4.99ZM381.02,18.21l-13.99-.02v3c4.45-.25,10.94,1.29,13.99-2.98ZM378.52,25.2c-4.81.59-10.56-.43-15.5,0l-1,2.99c1.51,2.02,18.7,1.81,19-3.98-1.36-.51-2.17.95-2.5.99ZM378.02,32.19c-1.12-2.28-9.04-1.9-11.77-1.77-1.7.08-2.88-.87-4.21,1.28,4.71,3.54,10.9,1.22,15.98.49ZM378.02,38.21l-14.99.99c-.26,8.14,11.41,2.54,14.99-.99ZM379.02,48.21l-17,1.99v5.01c5.84.49,11.17-.51,16.46-2.94l.54-4.06ZM351.02,62.2l-7.05,1.67,1.02,9.66c3.26,1.48,4.6,1.31,4.04,5.67l1.98-9.5v-7.5ZM366.02,76.2c.53.89,2.88,5.02,3.5,4.98l1.52-2.98c2.16,2.01,3.25,1.47,5.98.99l-1-2.99h4.01s-.5,2-.5,2c2.37-1.43,8.25-1.34,6.29-4.83-.35-.62-4.59-2.28-5.79-2.19l3.83-1.15,1.25-3.28-2.08-1.56,1.99-1c-6.68-1.33-12.04,2.67-19,.99v3.99s3.01.49,3.01.49c-3.4,1.23-2.64,3.58-3.01,6.51-1.28-2.14-1.15-4.85-3.99-6l.98,4.97-2.98,1.03,1.14-8.88,2.85-.61c-10.32-8.39-5.26,7.79-7.99,13.49l2.5-2.01,1.02,2.06,4-2.06c.95,1.48-.13,2.52,2.47,2,.13-1.3-.16-2.71,0-3.99ZM555.01,67.21c-4.13-.85-2.43,1.36-3.95,3.5s-3.97,2.69-3.04,6.49l2-4,1,2.52,1.97.48,2.01-8.99ZM553.66,85.83c2.24-5.46,5.43-10.43,4.35-16.63-2.69,1.21-2.43,5.21-3.95,7.27-1.36,1.84-5,1.91-4.03,5.73l3,.49c-8.46,3.98-1.42,16.88-3,24.51l3-8.5-2.02-1.01c1.88-3.41.33-7.65,1.03-10.8.17-.79,1.53-.82,1.63-1.06ZM423.01,70.21l-4.99,1.01,2.01,2.49-2.01,1.99c5.88,3.71,2.83,2.32,2.07,6.09-.9,4.48-3.06,12.25,1.95,13.93.82,2.81-1.85,2.29-2.05,3.15-.79,3.55,2.7,7.01.95,10.69l2.05,1.63c-3.26-1.25-1.27,7.45,2.01,7.03-1.44,1.98-2.13,2.81-2.06,5.41.22,7.36,2.78,15.93,2,22.94l2.12,1.18-2.13,5.89,2.13,1.16c-1.56,6.7-1,13.81-.41,19.92.12,1.28-2.23,2.68-1.65,4.47,5.7-2.09.52-9.34,4.98-12,.5,2.3-.77,4.55-.85,6.63-.09,2.43.83,6.88.71,8.92-.04.61-1.71-.02-1.94,1.88-.51,4.21.37,9.65.13,14.11-.42,7.74-1.83,15.58-1.03,23.45,2.78-.45-1.27-6.97,2.99-5.99-.61,2.18-.94,4.16-1.05,6.45-.05,1.09-.61,3.81,1.04,3.53,1.34-8.43.45-17.04,1.02-25.49.81-11.94,2.81-23.96,3.04-35.96.12-6.33-1.45-12.21-.05-18.54-.5-.69-3.44,2.72-2.99-.49.5-3.58,3.59-6.69,2.99-10.52l-2,.5c1.05-2.41,1.97-2.98,2.09-5.97.46-11.28-4.05-29.36-4.72-41.87-.12-2.29.36-4.38.62-6.65l-1.98,1.99-2.02-8.99-3.99.99.99-4.99ZM339.02,110.2c2.4.27,3.55-.02,4-2.5.74-4.11.57-20.56.05-25.05-.13-1.11-.03-2.19-.99-3.01l-3.06-.44v31ZM583.01,79.2l-5.99,2.51h3.99c-2.38,2.06-5.51,1.24-5.01,5.49l-1-3.99c-3.41,1.69-2.96,6.67-3.99,9.99l12.99-2.01-3-.99.02-2.99,3.99,1.99-2-10ZM410.01,81.21c-1.63.46-7.01-.18-8,.47-3.67,2.42,6.53,2.64,6,4.51l-2.99.75-.5,1.27-.55-1.24-2.95-.76v2.99s8.99,2.01,8.99,2.01c-1.38-3.73-.73-6.25,0-9.99ZM567.02,151.2v-14.5c0-.17-1.35-1.57-1.99-1.5-.63,3.53,1.27,7.33-3,8l2-11.99,1.98,2.99v-5.99s-2.98,2-2.98,2c-.14-2.83,1.73-4.65,2.05-7.52.52-4.59-2.23-9.32-1.06-13.47-3.48-.77-.67,3.61-3.99,3.01v.97c2.58-.35,2.08,1.3,2.01,3.52l-2.9.56c-.69.73.85,5.42-2.11,5.93,0-8.67,6.4-15.78,4.98-24.99-1.91.28-1.09,7.31-4.01,6.48,1.95-7.42,4.63-12.62,3.01-20.49-3.88,1.37-2.48,5.12-3.48,8.01-3.26,9.42-7.53,15.98-7.56,26.45,0,2.09-.97,5.32,2.04,4.55.74-.8-.37-7.02,3.01-5.99-1.45,4.18-2.69,9.03-3.03,13.45-.48,6.12-.17,31.66,1.01,36.87.18.81,2.06.69,2.02,1.12-4.09,4.36.1,9.67-.51,13.71-.3,1.97-2.54,1.36-2.59,3.3-.06,2.41,1.09,5.12,1.15,7.98.18,8.56.09,17.09-1.04,25.55l3.49-6.01-.49,8.01c4.22-1.69,2.75-6.62,3.27-10.22.14-1,.29-3.99,1.71-3.77,1.94,10.22-4.04,19.24-.98,28.99,1.46.18,1.79-2.62,1.89-3.58,1.11-10.34.46-21.5,3.11-31.9l-4.01-2,2.99-.84v1.32s1.99-1.99,1.99-1.99l.51,9.01c3.25-9.31-.39-18.73.52-28.31l-3.02-2.69,3.11-.59.87-10.41c-2.73,1.47-.31,9.08-4,9.48,1.57-3.19.9-7.77,2.05-10.71.32-.83,1.87-.89,1.98-1.31.75-3-1.83-1.77-2.09-3.91-.51-4.11.52-9.29.09-13.56l1.99,6.99ZM515.52,86.2c-6.94.32-14.04,0-21,0-.79,0-3.35,1.32-2.5,2.99l6.57,1.95-.58,8.05-4.01-7c-2.61,2.56-4.9,1.23-7.97,0,.29,4.57,3.15,7.9,1.98,12.99l-4-11.99-4.98,3.99,2.99-4.99h-7.99s.99,4.98.99,4.98c-3.55.99-1.36-3.39-2-4l-8,.02,2.99,9.99-4.5-7.99-.49,3.98-2.99-2.99,1.98,14.99-2.99-3.99c.75,1.46.54,2.23.37,3.73-.18,1.6.22,5.92-1.36,6.26l-1-9.99-4.02,38.99-1.04-4.54c-.11-4.81,2.3-12.53,2.02-16.91-.41-6.46-1.47-13.61-.95-21.07l-4.02-9.47,1.98,15.99-1.74-2.74-1.24-8.25,1.06,24.45-3.12,1.15-.96,25.39-1.71-12.52c1.55-9.67-.3-17.82-2.26-26.16-.44-1.87.07-4.7-.02-6.83-.05-1.21.74-3.71-.99-3.48.29,5.4-.43,11.14-.02,16.5.78,10.09,2.76,20.64,3.09,30.99.07,2.22-1.13,4.28-1.08,6.49l1.98-1.99c.6,3.92-1.92,12.27,2.99,13.01v1.98s-1.97.99-1.97.99l2.99,1.52-4,.49-1.99,27c2.98.46,1.7-.65,1.97-2.5.63-4.41,1.09-9.02,1.04-13.48l1.43,9.49c-2.8,7.82.14,17.64-1.49,24.94-.32,1.41-2.1,3.31-1.93,3.53.06.08,1.74-.27,2,.66.4,1.43-1.01,4.47.97,4.35.74-3.16,1.41-6.42,1.87-9.64,2.1-14.66,2.42-29.8,2.75-44.48.02-1.04-.11-5.05,1.39-4.87l-1.98,48.99,1.99-2.48.99-9.51-.98,28.99,1-3.01,2.98,1.01c.71-13.54,1.44-26.95,2.01-40.51.05-1.23-.76-3.71,1-3.49v38l1.88-8.62c1.07-2.01-1.91-9.04,2.12-8.37l-1.99,22.99c4.38.94.11-6.35,2.98-6.99l.02,9.99c1.31.27,1.59-1.84,1.74-2.74,2.42-14.91.9-31.13,2.26-46.25,1.74-.23.94,2.27.99,3.49.6,15.37.07,30.12-.99,45.5l1.85-7.63,1.15-17.36.99,3.48v12.51s2-1.99,2-1.99v14.5c0,.7-1.75,2.87-.99,4.5,1.42.24,1.45-1.77,1.7-2.78,1.17-4.67,1.83-11.8,2.28-16.73,1.12-12.38.92-25.06,1.02-37.48l1.98,4.99,1.02-18.99c1.74-.24.94,2.27.99,3.48.24,6.37.98,14.41-1.99,20.05l2,.96-2.04,1.14.03,6.35,2.05-.45-3.19,4.94,1.13,25.5c2.86.48,1.66-.6,2.13-2.31,2.15-7.79.33-18.1,2.88-26.17l-2.01.5,1-26,1.1,4.94,2.9.06c-1.86,8.28-.82,17.04-.98,25.54-.07,3.68-1.72,10.74-1.01,13.77.18.75,1.78.61,1.96,1.37.51,2.13-.28,5.03.03,7.31l2.49-4.97c3.05,1.5-1.58,6.78,2.49,5.98.29-4.81.55-9.72.97-14.53.11-1.29,1.04-2.64,1.04-2.96v-16.5c3.51,1.94.96,7.94.92,11.48-.02,1.88,1,3.66.98,5.12-.06,5.11-1.14,10.23-.9,15.9.05,1.23-.76,3.71,1,3.49v-14l2.01,16c3.17-.99.88-4.01,1.06-6.41.26-3.44,1.63-6.81,1.93-10.1.75-8.31.65-16.68,1-25,.05-1.22-.76-3.72.99-3.48l.02,31.99,1-5.99c1.7-.19,1.09,3.46,1.03,4.53-.27,4.6-1.63,9.01-2.04,13.9-.38,4.52-.11,8.65-.61,13.46-.17,1.57-1.3,3.25,1.13,1.12l5.49-55.01c2.55,1.24.09,6.35,0,8.51-.39,9,.74,18.05-1.06,26.94l1.04,10.54,4.02-73.99c4.03.92-.89,5.91,1.98,6.99.36-6.1,1.88-7.32,7.55-7.92l.47-7.07,1,7.99c2.01.26,2.02.18,2.16-1.77l1.83.78,1.02-7,1,6h7.99c-2.86-5.42,3.35-4.02,3.01-9l1,4.99,2.98-1,1,3.99-1-21.99c-3.45.71-1.47,6.71-4.98,5.99l-.02-13.99-2.89,1.09c.54,1.49.91,6.28-1.09,6.91,1.02-18.13-2.65-35.99-1.02-53.99l-2,6.99-1.98-3.99.61,9.33-1.62,10.67v-18h-1v18h-1v-21c-.77-.58-2,2.02-2,2.5v26.5h-1v-21.5c0-.62-.64-1.43,0-2.49h-2s0,26.99,0,26.99c-1.76.22-.95-2.26-1-3.49-.44-10.54-.13-21,0-31.51,1.94,1.68,3.68,2.06,5.99.51-1.78-1.6-7.84-3.91-8.84-.85s.76,14.71.89,18.8l-1.04,8.54-1.02-16.99-1.98,4.99-2.02-12c-3.72-1-1.22,3.97-1.99,5l-4.77.2-2.22,4.79c-.23-7.38,1.1-14.38,10-12.45l.98-1.07c.25-3.05-1.03-.51-1.49-.48ZM542.01,128.2v-14.48s-2.98-27.51-2.98-27.51l.99,40.51,2,1.48ZM361.02,135.2v-19h-1v19h-1v-15.5c0-.17-1.35-1.57-1.99-1.5-.19,10.92,1.44,21.57.99,32.51-.05,1.22.76,3.72-.99,3.48.74-7.55-.61-15.11-1-22.51-.46-8.55-.03-18.64-.97-27.03-.17-1.5-.21-3.09-2.04-3.46v19h-1v-15.5c0-.16-.98-2.92-1.99-2.5.03,10.87-3.72,21.11-1.02,31.99l-3.98-.99c1.39,11.75.28,23.73,1.01,35.48.18,2.97,1.41,6.29,1.69,9.31.93,10.12-.35,17.48-.71,27.63-.27,7.7.6,15.37,0,23.07l1.97-7.02,1.04-24.47,1.98,2.99-.98-13,1.98,1.02,1.01-6.01v21.5c0,1.11-2.01,4.35-.99,6.49,4.35,1.03.12-6.11,2.98-6.99l.02,9.99,1-3.99c2.78.75.99,2.02.99,2.5v34.5l1.89-9.61-.63-4.61,2.74-19.77v17h.99c-1-2.15,1.01-5.42,1.01-6.5v-21.5h1v37l3.01-2.52-2.1-1.91,2.08-13.56.02,11.99.97-5.41,3.02-.58c-1.87,3.98-2.49,9.18-2.88,13.62-.1,1.12-.93,3.59.87,3.37,3.21-12.79,3.25-25.97,5.02-39l1.98,1.01,1.02-5.49-3,2.48c.35-10.13-3.39-18.92-1.92-29.41,1.22-8.72,1.56-11.76,1.88-21.15.14-4.14,1.06-8.15,1.18-12.3,7.66-3.26,12.69-4.49,20.85-2.15l-2-12-1.98,1.01v-5.01s-3,0-3,0v4c-1.92.15-1.52-3.65-2.02-3.98-3.39-2.29-6.48,6.98-8.97,7.99,1.4-6.37,4.79-10.16,10.5-12.97l3.48,3.97c-.9-6.79-1.03-16.01-3.09-22.4-.36-1.11-.32-2.42-1.89-2.6-.73,1.63.99,3.73.99,4.5v14.5l-2.07-18.43-1.94-6.58-11.99,2.01v-4.01s-2.02,3-2.02,3l-3.5-3.09c-5,3.31-6.78.18-11.48,1.11l5.61,2.69,4.39-.7-1.07,5.94-2.79.68-.13,6.38,1-5.99,2.98,3.99v-6.99s5,1,5,1v13.99c-2.67.48-.95-13.23-3.98-10l-1.02,20.99c-1.72-.56-1.91-5.92-1.99-7.52-.13-2.54,2.6-6.23-.99-5.47l-1.01,24.51c-.05,1.23.76,3.71-1,3.49ZM491.01,87.21l-24.99.49c2.76,1.97,9.04,2.04,12.54,2.03,1.09,0,2.33-1.2,3.77-1.26.6-.02,12.5,1.63,8.68-1.26ZM137.02,210.2c2.69,2.18,5.14,4.47,7.5,7l.99-1.99,18.01,15.99c1.43-2.49.31-5.4-1.11-7.54l1.6-7.45c2.29,4.78.61,10.36,5.52,13.99.33-3.26-1.35-6.12-1.54-9.47-.06-1.09-.65-3.78,1.02-3.52,1.32,6.78,3.22,11.89,10.99,8.98-.16,2.71,1.66,4.91,4.01,6.01l-7.98-16,9.98,12.99c.17-6.64-5.43-11.32-7.99-16.99l4.51,3,.49-3h2.99c-.24,3.16-.27,3.36,3,2.99.5-.43-2.76-6.55,0-6.99l3.02,12.99c4.28-1.39-2.81-7.88.98-9.99l5.03,22.99c1.89.2.8-2.09.7-3.2-.33-3.62-1.43-7.78-1.7-11.32-.09-1.1-.74-3.73.98-3.48,2.25,8.96,4.15,18.49,7.09,27.23.28.82,1.06,3.38,1.15,3.59.07.17,1.57.09,1.77.83.4,1.47-.96,4.45.99,4.34l-1-11-1.98,1.01c-1.95-4.14.02-7.96-.09-11.41-.07-2.24-1.6-4.8-1.82-7.19-.43-4.78-.67-9.62-1.09-14.39l2.06,8.24c3.41,1.84,1.46,7.07,2.94,10.75,1.89.2.81-2.1.7-3.2-.19-2.08-2.21-7.45.27-8.79l3.28,25.22,2.72,8.77-3.98-34.99,3.98,19.99-1.98-23.99,3.98,17.99-.87-9.56c4.12-2.15.79-11.21.89-15.43,1.8.68,2.42,5.04,2.73,6.75.44,2.4.26,4.82.27,7.24,1.71.25.98-2.31,1-3.5.06-3.31-.81-6.31-.52-9.49,1.82,2.12,1.95,5.88,2.37,8.63,1.56,10.1,2.3,20.42,4.62,30.4.28,1.19,1.13,3.87,1.55.45-.49-6.49-1.71-13.52-2.08-19.95-.06-1.09-.64-3.79,1.03-3.53l4,26.99c-.12-7.16.19-14.37.05-21.54-.05-2.6-1.02-5.07-1.09-7.91-.03-1.15.35-14.85,2.04-12.55l2.02,26.99c1.76-.29,1.11-5.2,1.04-6.54-.25-4.5-1.67-8.85-1.04-13.45l3.98,16.99c-1.36-8.93-.89-17.07,0-25.99l-1.98,5.99-1.04-9.48,2.02,2.48.02-10.99c2.24,1.32.47,6,1,8.3.19.83,1.84.7,2.28,1.94,2.23,6.27,2.47,15.02,2.72,21.75,1.58.26,1.13-1.8,1.33-2.9.6-3.45-.69-6.72.16-10.09,3.28,2.22.42,12.56,1.51,13.99,3.88,1.05-.42-7.06,2.98-7.99l1,8.99c.76-12.26-1.49-24.26-.99-36.51.05-1.21-.76-3.72.99-3.48l1.02,22.99,2.92-5.53,1.06-9.46c1.92,9.67,2.16,19.62,3.14,29.37.14,1.36.53,6.13,1.88,6.62v-20h1v14h.99c.61-9.61-.76-20.04-.04-29.55.14-1.89,1.59-3.29,1.65-4.16.37-5.54.64-11.21.4-16.8-.05-1.23.76-3.71-1-3.49v15h-.99c-.38-28.07,2.25-56.02-1.02-83.99l-2.88,14.61-2.1,1.39c-2.93-6.21,2.99-14.74-3-19l-1.5,3.99-4.5-3.99c.18,2.81.92,5.66.92,8.48,0,1.2.89,3.73-.92,3.51l-1.07-12.38c4.15-2.64,7.55-1.6,11.05,1.38.49-9.06-10.24-4.26-15.99-4.99-.27,2.37,1.18,3.04,2.99,2-.52,5.18,1.92,12.38-2.98,15.99l-2-6.99.43,12.5-1.44,10.5v-19.5c0-.94-1.44-5.56-2.5-6.48l-.51,7.98c-3.24-.67-1.31-6.03-2.15-6.9-.44-.46-3.4.29-3.34-2.11l-2.5,2c.28-3.87,2.27-3.33,3.13-4.11.99-.9,1.56-3.62,2.86-1.18.97,1.82-.1,4.02,4,3.31.6-3.42,2.31-7.05-2.52-7.97-2.58-.49-13.2-.43-15.05.92-5.22,3.81-4.02,10.87-1.43,16.05l-4.99-6.6-2.99.6.99-7-3.99,5.99-.02-6h-5.99s7-2.01,7-2.01l-1.68-4.06-14.38,1.55-1.95,13.51c-1.78-.72-1.12-5.9-1.05-7.55.09-1.92.82-3.58,1.05-5.44l-5.99,1,3,6.98c-2.12.18-3.17.43-3.01-1.97l-1.98-.03-.99,3-1.01-2.5-2.01,10.5c-1.75.23-.94-2.27-.99-3.48-.1-2.5.08-5.02-.01-7.51l-1,4.99-1-3.99c-.64-.07-1.99,1.33-1.99,1.5v20.5h-1v-23l-3,16v-15c-4.96.99-2.37,4.58-3.08,8.43-.53,2.88-2.27,5.47-1.93,8.57l-2-14.99-1,5.99c-3.15-.99.3-5.44-3.99-4.99l-1.01,8.99c-3.15-.99-.02-8.88-3.99-8v4c-1.71.45-.49-1.92-1.54-2.06-4.2-.57-7.27,5.66-9.54,7.49-.64.52-1.68.38-1.93.58.41-.57.33-4.61,3-5.5l-1.48-.48-19.52,14.98c2.46-1.01,17.41-8.18,18-8.99-9.98,7.91-20.39,13.35-31.72,18.78-5.71,2.73-9.37,7.98-12.61,12.9-.57.86-2.92.88-2.69,2.81,1.18,6.29,5.21-2.99,6.19-3.24.74-.19,2.08.91,3.85.38,2.34-.69,3.36-3.8,5.98-3.61-1.39,4.59-11.58,7.55-12.99,10.5-1.11,2.33,2.65,1.19,3,1.5l-2,6.99,16.99-9.99c-1.23,4.21-18.58,9.02-14.99,13.99l12.5-8.99c2.08,1.61-.1,1.7-.78,2.29-1.05.9-9.44,6-7.72,7.7l12.99-6.98-6.5,8.99-1.01-2.06-4.53,3.54,1.53,2.49,3.5-1.98-2.98,6,4.98-4c1.27,1.39-6.05,5.36-.99,7.56,1.04.45,2.64-1.64,3.91-1.71l-.91-3.84,5.99,4.01-4.97,5.48c.02.62,8.76,5.49,7.97,8.5l-5.5-4.99c-4.48.86.2,2.23.99,2.96,3.32,3.06,6.9,5.76,10.03,9.02,2.32,1.38.69-5.35,3.51-2.51,1.08,1.09,1.56,5.05,3.54,7.46,1.72,2.09,6.51,3.54,4.94,6.06l-2.49-1.99c-.06.66.05,1.34-.01,2-8.47-6.88-16.66-13.97-24.99-21-1.44,1.61,9.01,10.66,10.52,11.97,4.41,3.85,9.69,6.97,13.98,11.02.91.04.43-1.32.49-1.99ZM303.02,155.2v-29h-1v41.5c0,.35,3.55,3.85,1.99,6.5-4.42-.82-3.83-5.65-3.98-9.43-.23-5.68.97-10.68,1.04-16.03.21-16.15.45-32.52-1.07-48.53h-3.97s0,28.99,0,28.99h-1v-20.5c0-.59-3.75-6.61-2.01-9.5h-1.99s0,17,0,17h-1v-17c-5.38.36-2.23,5.94-2.11,8.57.02.47-1.71.31-1.88,1.09-.44,2.01-.57,7.32-.68,9.85-.1,2.25,2.38,7.34-1.32,6.5v-23.5c0-.27,1.06-.66.78-1.27l-2.77-2.22c-.32,16.86,1.68,33.58.99,50.51-.05,1.22.76,3.72-.99,3.48l-1.97-53.32-3.03-1.68c-.88,2.93,2.16,1.17,2.08,3.43-.32,8.97-4.42,61.22-1.86,65.36.79,1.28,4.9,1.01,1.78,6.19h1.98s3.01-8.99,3.01-8.99l1,13.99-2.98-2.99,4,53.99,1.03-8.54-2.03-23.45,3.49,19.01-.49-16c1.46-.18,1.79,2.62,1.9,3.58.39,3.6-.35,7.53.09,10.93.18,1.37.75,3.15,2,1.49l1.99-19,1.02,26.99c1.39.16,1.9-3.89,1.92-4.65.17-7.08.06-14.63.12-21.79.06-7.28-.93-14.31-1.04-21.54,1.49.46,1.87,5.16,1.98,6.51.6,7.84-.24,16,.17,23.84.54,10.16,3.06,20.3,1.85,30.64,1.69-.01,1.89-3.31,2-4.48.88-9.45,1.14-19.01,1-28.51l2,9.99,1.99-5v32h2v-35.5c0-.6,1.39-2.25,1.01-3.49h.99s0,17.99,0,17.99l2.99-3c-1.19,4.7-.95,9.59-1,14.46-.02,2.01.05,1.63,2.01,1.53-.34-11.81.46-23.73.05-35.54-.09-2.61-.94-5.09-1.09-7.91-.06-1.17-.7-5.54,1.04-5.54l2.02,29.49,1.98,8.5c1.93-15.35-.13-31.23.96-46.55.12-1.71-.1-3.31,1.56-4.44l2.5,31.49,1.98,8.5-2.13-39.36c-1.1-3.61-8.91.7-10.37,2.36-1.61-3.17,3.42-4.93,2.67-8.88l2.84-.12-1-4.99,5.98,3c-.11-16.86,2.63-33.47,2.05-50.53-.06-1.86-.84-3.46-.94-5.07-.28-4.64,1.67-11.43-2.61-15.38-1.65,1.41.35,4.35.38,5.56,0,.27-3.28,1.01-1.88,4.44l-3.49-3.98c-1.78,2.21-6.83,1.78-8.28,3.2-1.59,1.56-.15,5.34-2.22,5.77l-.02-5.99h-4.98s3.06,2.54,3.06,2.54c0,16.39-.39,32.64-1.07,48.97-.05,1.23.76,3.71-1,3.49ZM402.98,91.26c-2.47-.94-1.69,1.25-2.28,1.64-1.35.9-3.34-.76-2.67,2.3l3.9.59.08,3.41-2.98-2.99,1,7,3.98-1.99c1.37,3.6-1.68,8.17,1.51,10.97,2.05,0,4.26-16.94,3.54-19.31l-5.05-1.66.5,2-1.46-.06-.07-1.89ZM414.02,105.2v15l-1.75-13.55.74-13.45c-1.94.41-1.76,2.01-2,3.49-.4,2.51-2.07,11.45-2.01,12.93.03.66,1.84.09,2.1,2,.57,4.25-.05,10.39-1.1,14.56-1.67.27-1.09-2.44-1.03-3.52.23-3.78,1.71-7.48,1.03-11.46-4.44-.57-1.21,5.22-3.5,6.99l-.5-4.99c-.42-.44-5.78.5-5.1,2.49.89,4.59,2.95,21.33,6.31,23.28,1.41.82,4.21.23,5.81-.26l-2.02-3.51,8,2.98c-1.54-5.12-2.53-11.18-2.99-16.5s1.78-13.07-2.01-16.49ZM590.02,134.2v-14.5c0-.49-1.14-7.37-2.99-5.5l-1.42,9.04-3.6.97.52,2,3.48-1.01-.48,2.98-7.51-2c-.3-1.55,1.74-.95,2.52-2,.62-.84-.2-2.73.33-3.85l-4.85-1.15,4.4-2.06,2.08,2.07,3.5-4.5-2.99-1.99,3.01-2.49h-4.01c-1.06-3.72,4.27-1.27,5.01-2.01l-2.01-15.01c-4.04.51-9.13.16-11.99,3.53l3.99.49-.48,4.99c4.26-.43,3.66-3.02,5.14-5.78,1.08-2.01,1.54-2.14,1.34.25-.44,5.24-2.25,6.01-5.99,9.03l2.03,2-.05,2.49-1.98-1.99-.02,7.99-1-7.99c-4.96,1-5.2,7.32-3.94,11.28.23.73,3.33,1.36,1.95,4.73l1.98-1.01c2.66,2.49-6.56,10.01,1.01,11.02l-1.99,2.98,10.99-.98c-2.14,4.81-7.7.07-11.9,4.1l1.91,13.88c3.45-.31,11.83,1.36,13.65-2.47.59-1.24-.93-11.56.4-13.99l-3.06-.53,1-3.99c-2.26-.29-4.33.81-6.51.98-1.1.09-3.73.73-3.48-.98,3.15-.44,6.31-1.45,9.56-1.11,2.41.26.62,2.28,2.43,2.09ZM596.01,96.21c-1.9-.02-2.07-.59-1.87,1.42.61,5.82-.62,11.72-.12,17.57,4.23.61,1.19-7.27,1.2-9.49,0-2.79,1.57-6.31.79-9.5ZM277.02,120.2v-17.5c0-.18,2.24-5.59-.98-2.5-1.69,1.61-.35,6.37-.34,8.37,0,.63-1.32,1.51-1.32,2.14,0,.92,2.19,1.83,1.64,3.49l-2.01.5c3.92.46.48,4.49,3.01,5.5ZM448.01,123.2c-.11-4.79-.38-10.56-1.25-15.24-.32-1.72-.92-6.06-2.73-6.75,1.92,6.62-.92,14.07,1.55,19.99.65,1.57-.15,2.46,2.44,2ZM331.03,188.2c4.96-4.92,2.17-13.59,2.37-19.33.25-7.22,1.51-15.21,1.66-22.13.32-14.49-.32-29.05-.05-43.54-2.02,1.07-1.91,7.13-2.01,9.45-.77,18.39-1.61,36.77-2.43,55.04-.28,6.36,1.13,13.93.46,20.51ZM304.02,118.7c.53-4.53-.39-9.86,0-14.5-3.85,3.5-.2,11.63-2.02,16.49.77,1.66,2-1.82,2.02-1.99ZM543.02,107.2v17.5c0,2.07,2.01,7.34,2.01,9.99l1.04-2.01-3.05-25.47ZM270.01,205.2c.08-17.88-.92-35.66-1.03-53.56-.04-6.67,1.21-13.23,1.08-19.98-.11-5.31-1.6-11.87-1.53-17.45-2.55,3.7-.38,9.78-.5,13.5-.33,10.21-2.15,20.72-2.07,30.99.11,13.9,2.53,28.79,3.06,43.02.04,1.21-.75,3.72.99,3.48ZM343.01,115.2l-3.52.9-.63,112.54.67,3.56c1.51-8.97,3.04-18.35,3.54-27.45.89-16.27-.36-32.86-.09-49.09.05-3.28,2.52-4.89-.99-6.09l1.03-34.36ZM273.02,118.7v53c0,.18,1.61,1.78,1.99,1.5,2.62-6.17.07-12.61-.04-18.52-.25-12.75.32-25.68.04-38.47-1.01-.37-1.93,2.08-1.99,2.49ZM597.02,141.2c4.33-3.03.59-9.91,1.9-14.32l-1.9-10.68v25ZM439.02,147.2v-25h-.99c-.18.22-1.01,4.78-1.01,5.5v19.5h2ZM329.02,162.2v-30h-1v21.5c0,1.9-1.8,5.33.01,8.49h.99ZM390.87,143.02c-4.46-2.92-6.29-.17-10.78.24.47,4.56-1.52,28.32,1.65,29.99l8.27.95c.6-2.85-2.33-3.48-3.14-5.38-4.07-9.48,2.19-14.71,8.66-20.65,1.67-1.53,4.48-1.06,5.48-5.48l-5.43-1.54-.69,1.87-3.37-1.82-.65,1.81ZM410.64,142.62c-2.26-1.26-6.7-2.5-6.63,1.57,3.87-1.45,13.67,7.93,14.5,7.99,2.93.2-.54-3.67-.54-4.48,0-.73,3.17-.01,2.03-2.51-2.17-.07-6.44-.53-8.27-1.04-.9-.25-.82-1.39-1.09-1.54ZM441.02,161.7c.79-5.97-.58-13.35,0-19.5l-3.01,23.49,1.98-.18c-.4-1.42.91-2.89,1.03-3.81ZM412.7,154.52c-.89-1.2-5.58-3.11-6.68-2.31-.04,1.32,1.17,6.01,2.61,5.98.92-.02,2-1.02,2.84-1.05s-.08,3.15,2.55,2.05c-.27-1.38-.52-3.6-1.32-4.68ZM587.02,156.21l-12.01-1.02v6.5s3-.49,3-.49l-2.99,5.99,8.84-7.16-.85-1.83c1.87-.95,4.75,1.21,4-2ZM585.02,164.21c-.78-.46-8.98,4.72-9.67,6.65-.31.89-1.33,13.7-1.33,15.84-.01,5.94,2.02,13.13,1,19.5,3.02.49,1.6-.75,2.02-2.43.55-2.17.79-9.14,1.12-9.48.3-.31,2.02.22,2.59-.29.73-.65.23-3.05,1.77-3.78l1.24,5.73,2.26,1.24c-.57-3.74-.79-9.89,1.51-12.99,1.11,3.87-1.05,7.51-.51,11.51.18,1.36.74,3.15,2,1.48l1-14.99c-4.87-.53-8.56.19-12.99,1.99-.46-2.71.5-1.72,2.18-2.27,3.3-1.07,7.33-1.62,10.81-1.74-.33-2,1.01-14.36-2.04-13.58l-2.93,1.59v-3.99ZM538.01,169.21l-7.02-.55c-2.09,1.65-.37,4.48.08,6.5l5.93-.98-1.99-2.48,2.99-2.5ZM521.01,169.21c-1.5-1.49-1.8.1-1.98,1.48-.97,7.28.52,15.14,0,22.5,1.49-.45,1.88-5.17,1.97-6.51.35-4.87-.75-9.67.03-14.48,1.64-.43.45,1.74,1.63,2.02,1.8.43,4.39-.28,6.36-.02v-5.01c-2.58.41-7.5-1.55-7.02,1.99l-.99-1.98ZM330.02,200.2v-28.5c0-.23-1.73-1.83-1.99-1.5-.62,1.46.99,2.9.99,3.5v26.5h1ZM276.02,199.2v-17.5c0-1.01,2.59-6.97,2-7.49-6.69-.99-4.29,15.38-3.73,20.14.13,1.09.3,4.93,1.73,4.85ZM528.02,176.2l-6-1v18l2-8.5c-.87,15.72-1.7,31.18-3.04,46.98l2.03,1.51,3.02-48.99,1.99,7.99v-16ZM517.02,214.7v-37c0-.17-1.35-1.57-1.99-1.5l-2.06,47.45,1.04,9.54,3.01-18.49ZM533.02,176.2l-4.04,1.53.52,2.25,2.37.85c.41,3.28.02,6.59.14,9.88.05,1.23-.76,3.71,1,3.49v-18ZM537.01,176.2h-2.99s0,27,0,27l2.03-1.48-1.03,10.48c1.69,0,1.9-3.32,1.99-4.48.37-4.56-1.01-8.38-.96-12.03.1-6.37,2.14-12.74.95-19.49ZM540.02,176.2v14.5c0,.95-2.92,6.63-.01,7.49l1.02-14.99c1.82.38,1.86,1.97,2.03,3.46,1.3,11.56-.47,26.32-1.08,37.99-.09,1.62-.73,6.86,1.04,7.54,1.24-13.79,1.67-27.65,2.02-41.48.09-3.46,2.12-6.59-.02-10.52l-3.98,1c-.72-.71,3.25-5.94-1.01-5ZM393.49,182.68c-.41-.42-.52-1.31-.94-1.31-3.29.02-7.47,3.23-11.53.84l2.27,8.7c2.52,2.8,8.33-1.83,11.73-.71-.96-3.65.99-4.93-1.53-7.53ZM145.02,223.2c-1.36-.71-2.29-1.7-3.52,0l.02,4c-2.57-2.75-3.27-6.56-5.52-9.52-6.41-8.46-23.45-20.42-31.71-27.73-.85-.75-1.08-2.59-1.29-3.74l-1,1.99-5-1.5,6,7.5c-2.27.15-3.74-3.75-4.56-3.95-2.39-.6-5.29,4.92-8.43,3.94l3.91-5.38c-.5-1.7-4.48-1.55-3.09-4.49l-4.81-2.12c-1.8,4.35,1.2,4.43,1.99,7.99l-5.98-2.99c.76,3.69-10.82,7.06-10.91,8.48l1.91,4.51,3.13-3.89,2.86.91c-4.65,3.31-5.23,6.61-3,11.98l-8.52-6.79c-6.86,7.76-12.45,13.17-12.43,24.25l2.44,1.55c1.56-3.16,2.2-2.76,5.51-2.99-1.83,2.78-6.33,9.73-6.83,12.74-.55,3.29,2.49,6.95,1.39,9.77-2.35,6-11.59,10.21-14.55,15.98l4.98-1.5,1.01,4c-2.82-2.71-11.58,8.24-12.01,10.49-1.06,5.6,6.87-4.54,7.42-5.1.64-.67,3.69-4.38,4.59-3.38,1.26,1.41-6.7,7.42-6.99,9.5l3.99.5-1,2.98,6.01-.6,19.98,7.6c-7.84.63-14.14-4.95-21.44-6.06l-1.5,3.66c-1.37,1.08-7.76-1.75-7.04,2.41,8.87-.81,21.12-.05,29.64,2.9,1.52.53,2.87-.9,2.35,2.1l-26.38-.06c-1.47,2.75-2.82,5.87-1.44,8.9l11.82.15-5.99-1,1.99-1.98c-4.92.37-9.39.07-4.49-5.01.33,5.57,7.07,3.12,10.72,3.26,1.44.05,3.13,1.05,4.78.75l-1.01,1.98c21.7,2.08,43.25-.5,65,0l-9.5-1.98-8.49-.02c.37-1.77,2-1.92,3.49-2.05,5.95-.55,16.7,2,23.41,2.4,3.04.18,6.08.31,9.1-.35-.11-1.25.91-2.08-1.28-1.72-5.11.86-9.86-1.73-14.71.73l2.99-3.99c-5.58.52-10.07,3.07-16,1.98l5-1c-.62-3.01-5.79-1.65-4.99-4.99l20.99.98-6.99-2,3.99-1.98-23-.51c.02-1.53,8.55.57,9.01-2.49-2.76-.35-7.49-.16-9-3,8.76,1.35,16.87,5.3,26.01,3.98l-1.02-1.98c1.05-.75,15.13,4.07,18,.49-11-1.88-22.81-3.02-33.99-3.5l10.35-3.23,10.65.23c-3.07-4.31-11.87-5.08-12.01-10.98l-1,2-1.97-1.5,3.47-4.47c3.68,3.15,7.81,3.96,12.51,3.95l-1.51-2.98c1.5.73,3.1,1.85,4.63,2.43,3.82,1.45,6.1.6,10.18.96,2.63.23,5.01,1.71,7.7,1.59-2.25-5.42-8.27-2.23-11.98-6.49l1.51-2.51c-1.18-1.6-14.67-6.3-12.52-8.99,1.63.31,2.86,2.3,4.47,2.52.54.07,4.87-.1,4.52-1.51-3.35.92-13.33-10.37-11.98-12.01,3.65,2.06,6.56,5.11,9.99,7.5.81.56,1.94,2.69,2.99,1.01l-25.99-32.01c1.27-1.26,4.73,1.79,5.43,2.57,4.51,5.04,4.37,9.14,10.56,14.27,4.5,3.73,8.28,6.36,12.56,11.61,1.77,2.17,3.03,8.04,6.45,6.55l-3.98-6.5,7.98,7c-.32-2.23-2.76-5.85-4.97-6.02v-1.98s2.98.5,2.98.5c-5.99-5.71-14.17-11.25-17-19.5,2.64,1.38,14.75,16.98,18,13.99.43-1.88-1.07-2.37-1.99-3.5-1.43-1.75-12.66-12.29-14.02-12.98-1.01-.52-1.87-.66-2.98-.51.52.95.66,2,1,2.99ZM336.02,183.2h-2v17.5c0,.6,1.39,2.25,1.01,3.49h.99s0-20.99,0-20.99ZM426.02,228.21l-.96-18.49,1.95-25.52c-1.73.3-1.77,2-2.14,3.35-3.63,13.07-.89,28.86-2.94,42.15l2.08,8.49,2.03-5.99-.02,4.48c3.25-.59,2.02-6.97,3-9.49l-2.99,1.01ZM61.01,186.21c-2.23-.46-2.24,1.11-3.03,2.46-2.94,5-6.68,9.22-8.95,14.54,5.06-5.02,13.17-8.64,11.98-16.99ZM550.02,200.7v19c0,1.34-2.07,5.1-.99,7.5,3.7-3.29,1.66-11.49,1.95-16.54.31-5.32,1.85-10.84,1.03-16.45l-1.99,6.49ZM59.01,199.21c-3.59-.19-3.66,3.98-5.44,6.05-2.45,2.85-6.61,3.13-5.54,7.95,2.5-.46,11.81-13.17,10.98-13.99ZM572.02,209.7c-.57,5.76,0,13.02,0,19,0,.52-2.05,2.79-.5,3.51,2.8-8.63,2.46-18.85,2.49-28.01-.95-.05-1.94,5.01-1.99,5.49ZM581.01,204.21l-3.5,4.99-1.49-1.99v15.99c5.39-.48,2.69-9.13,3.03-12.37.24-2.33,1.87-4.25,1.96-6.62ZM411.01,228.2v-18.5s-.98-3.49-.98-3.49c-.79,4.82-.44,9.44-.54,14.15-.05,2.24-2.99,5.48,1.52,7.84ZM405.02,217.7v15.5l3.01-25.49c-3.99.71-.56,7.31-3.01,9.99ZM566.01,232.2l1-23.99-2.03,11.45c.13,3.01-.09,6.05.04,9.05.05,1.22-.76,3.72.99,3.49ZM375.02,210.2v32l1.99-13.51c-.93-5.47,2.24-14.35-1.99-18.49ZM189.92,217.3l-5.9-.09.17,2.32,10.82,17.67-5.09-19.9ZM557.02,224.21c-2.13-2.04-8.48,9.44-6.99,11.99,3.56-2.8,4.58-8.24,6.99-11.99ZM175.74,229.49c-.84-.67-4.33-2.71-3.7.2,1.24,1.16,8.24,11.38,8.97,10.52l-5.27-10.72ZM417.01,229.21l-6.85,6.64c-1.21,3.79-5.56,5.98-5.14,10.35,2.04-1.62,3.05-4.4,4.94-6.54,2.77-3.13,7.52-4.62,7.04-10.45ZM557.02,237.19l-.99-7.98c-.63,5.39-6.5,8.52-6,13.99,2.31-.54,3.03-4.93,4.3-5.75.87-.56,2.5-.09,2.69-.26ZM53.02,246.19c2.44-2.65,2.03-4.68,0-7.51l-1.98,1.01,1.98,4.49c-5.3.93-8.26,4.09-10,9l5.99-2.49-5,6.49c2.11,1.65,13.65-9.92,11.99-11.99l-2.99.99ZM151.02,271.22c-3.9-.66-7.06-3.69-10.75-4.75-1.55-.45-6.03-1.64-7.22.24,3.87,3.1,16.36,13.43,17.98,4.51ZM150.02,290.21c-2.06-.23-4.03.09-6.05.44-1.42.24-5.57.88-5.94,2.54l10.4,1.08,1.6-4.06ZM32.69,296.88c.61-.51,2.44-3.5,2.33-4.15-1.21-1.77-1.47-1.22-3.01-1.07-4.75.47-2.11,1.46-2.53,2.98-.6,2.14-2.23,3.82-1.46,6.56l3.5-1-2.5-1.5c.81-1.46,2.72-1.04,3.67-1.83ZM76.82,303.99c-.67.28-10.04-2.07-14.34-1.83-1.5.09-5.95.23-6.45,2.03l35,2-1.01-1.98,2.5-.03c.74,3.32,3.32,1.58,5.97,2.08,2.42.46,4.02,2.35,7.53.92l-9.99-2,6.99-1c-.17-1.35-1.36-1.75-2.54-1.95-3.83-.65-18.02-.62-22.03-.13-1.89.23-1.42,1.79-1.62,1.88ZM119.01,302.21c-4.62,1.5-11.92-2.25-15,1.98,4.17.12,8.41-.58,12.39.99l2.61-2.97ZM118.02,310.2h-34c.41,1.51,5.47,1.38,6.87,1.4,2.83.04,5.65-.57,8.67-.44,5.51.23,11.04,1.8,16.97,1.05,1.47-.19,3.1-.78,1.48-2ZM91.02,314.2h-34.5c-1.37,0-4.39-.5-3.49,1.99,11.66-.98,25.08,1.46,36.51,0,1.47-.19,3.1-.78,1.48-2ZM125.01,314.2h-32.99c1.28,3.63,4.46,1.08,6.5,1.2,8.81.52,17.57,2.73,26.5,1.8v-3ZM61.01,320.21h-13.99s1.99,1.49,1.99,1.49l-5,4.5c4.18,1.34,5.97-4.28,7.67-4.87,2.88-1,9.77,3.46,9.32-1.11ZM131.02,329.2c1.19-.97,4.39-2.09,4.99-3.99-.76-.13-11.8.94-8.99-2,3.36-1.45,6.92-.62,10.27-1.24.9-.17,4.66-1.46,4.72-2.76-3.14.49-13.74-1.33-14.99,1.49l1.49,1.5-6.49-.02,2.99-2.98-34.99,1,1.5,1.96,10.49,2.02-38.99.02,1.99,2.97-3.98,2.02-.51-3-10.5,7.51c-1.44,2.91,5.27.67,5.51-.52,1.52,4.14,10.32.57,13.96.53,8.07-.09,16.39,1.07,24.51.47l-10.99-2.98c5.64-.18,11.36.21,16.99-.01-1.5.65-3.05,1.25-4.52,1.99.47,4.41,5.91-.2,8.96.03,2.19.16,3.67,2.09,7,2.02,4.41-.09,15.43-1.04,18.55-3.59.94-.77.87-2.34,1.01-2.45ZM61.01,324.21c-6.32-.09-12.27,5.36-15.99,9.98l3.9-1.59,12.09-8.39ZM68.18,344.08c-.4-.32-.44-1.9-1.14-2.36-1.28-.85-5.69-.83-7.36-.48-.74.15-.56,1.57-1.16,1.74-4.96,1.38-7.21-1.48-14.39,1.8-3.83,1.75-7.26,4.73-11.11,6.45l.51,2,4.48-2.01.49,3.97,10.51-5.97c-3.31,4.25-7.81,7.61-11.66,11.31-.38.37-2.55,3.3.15,2.66,5.2-2.38,11.27-9.97,16.04-11.97,2.68-1.13-.72,3.51,1.97,1.98,1.73-.99.5-2.73.67-2.85.9-.68,8.07-3.15,9.85-4.13-4.98,4.44-10.63,8.43-15.49,13-2.9,2.72-5.41,10.42-10.01,5.01l-1.49,2.98c9.15,2.77,11-6.36,17.99-6.5l-2.5,4.5,10-6-4.49,5,17.99-1.49c-2.72,3.68-5.72,1.19-9.23,1.68l-6.76,2.81h35.5c3.9-.42,7.52-1.89,10-4.99.61-.24.43,3.88,4.86,3.02l6.13-4.03c4.58,1.18-5.38,2.58-4.49,4,5.84,3.04,8.72-2.09,12.36-5.62.58-.57,2.14-.4,3.06-1.4,1.77-1.94,5.39-11.96,7.84-14.69,1.09-1.22,3.81-.44,3.73-2.26-9.51.15-19.02.09-28.48,1.01-5.98.58-13.09,2.92-18.99,3.02-2.05.03-2.93.57-2.52-2.03l3.99-2c-4.48-1.89-6.19,1.99-6.57,2.01-1.86.1-5.56-1.25-8.97-1.06-2.17.12-10.84,2.27-11.29,1.91ZM140.02,349.21c-2.21-1.94-10.82,12.69-12.48,14.06-1.34,1.1-5.96.02-5.51,3.93l5.49-2.03c.56,2.84,4.05,2.8,6.11,1.14,1.8-1.45,1.17-4.73,2.18-6.82.81-1.67,5.04-6.22,4.21-7.28l-2.98,2,2.99-4.99ZM147.03,353.21l.5-4c-2.78,4.77-8.6,7.46-10.68,12.34-.46,1.08-1.39.99.17,2.19l9,.46-.49-1.79c-1.03,1.01-2.12,1.09-1.5-.68.79-2.26,4.05-5.43,4.97-8.04l-1.98-.47ZM52.02,387.2c-.48,1.88-6.37,2.72-7,4.99l7.53-2,.92,2,11.54-3.99c-1.37,2.22-4.63,1.29-5,4.98,4.56.78,9.14-.7,13.39-.89,5.09-.23,5.91-.06,11.35-.85,7.07-1.03,14.09-1.59,21.25-1.23l-14.72,2.29-6.27,4.69c3.3,0,6.54-2.4,9.56-2.93,1.31-.23,6.92-.88,7.43.93l-6.06.45-7.93,3.55c4.18,1.18,9.14-1.79,12.51-2.05,7.98-.6,17.03,1.74,24.49-1.93l-1.99,2.5c4.37,1.15,10.05-6.52,13.03-7.97,1.46-.71,3.33-.36,4.89-1.12,3.02-1.45,4.66-4.03,6.04-6.93-1.35-2.02-1.52-.96-2.77-.82-5.35.57-12.72,2.85-16.85-1.34l-10.34-.31,12.98-3.01-.99,2.99h6s-2-2.98-2-2.98c2.09.08,4.14.06,6.22-.29,1.06-.18,3.97-.26,3.77-1.71l-17.44-.94c-.22-4.02-4.25-3.82-8.02-4.11-3.33-.26-7.64-.1-11.05.04-1.21.05-3.72-.75-3.48.99l11.48.02,9.51,1.98c-9.17.12-18.36-.11-27.54-.03-2.63.02-5.12,1.12-7.96,1.13-4.8.03-9.49-1.34-15.01-1.09-1.22.05-3.71-.76-3.48.99,8.8-1.5,16.12,2.44,24.46,3.05,3.65.27,8.33.11,12.05-.04,1.23-.05,3.71.76,3.49-1h-16v-1h35l-1.48,2.01c-12.3,1.23-24.72,1.11-37,2.01-5.17.38-10.67,3.91-15.58.48l.07-3.49c-4.41-1.35-8.36,1.22-11.64,1.7-1.22.18-2.81-.77-4.6-.52-5.44.75-10.35,6.67-15.76,7.83-.22,1.87,2.03.78,3.04.54,5.37-1.27,8.98-4.68,13.95-6.54l-6.99,5.49,4.99,1.48c-2.33-.19-4.04,1.21-5.99,2.01.15-.57.33-2.06-.51-2.01-7.37.34-10.78,6.96-16.53,9.48-1.84.81-4.85-.27-4.96,1.53,6.86.93,12.35-5.39,18.32-8.2,1.42-.67,2.94-.48,3.68-.79ZM169.01,375.22l-5.34-.95-11.65,2.92c3.46-.16,7.02.28,10.48,0,1.36-.11,6.04-.48,6.51-1.97ZM160.02,381.21c-3.81.09-5.83,3.86-8.67,5.82-4.38,3.02-10.08,5.06-13.33,9.16,8.38-2.93,15.79-8.76,22-14.98ZM89.02,392.21l-18.01,2.99v2.99c4.12,1.76,6.08-1.73,6.75-1.93,3.27-.96,9.06-.47,11.25-4.06ZM115.52,418.2c-7.98.22-16.02,0-24,0-2.05,0-4.94-1.85-7.5,1.51l2.06,1.06-1.06,2.43h6.5c.98-2.61-6,1-4.49-2.99l35.99-1.02c-1.46-3.69-6.1-1.03-7.49-.99ZM154.01,417.21c-5.57.69-11.27,1.2-16.66,2.87-1.62.5-2.83-.82-2.33,2.12,5.31-1.08,10.73-2.17,15.99-3.51,1.13-.29,3.25.06,3-1.47ZM91.02,425.2h15l-18,4.01c-.23,1.75,2.27.94,3.48.99,3.16.13,6.36-.08,9.51-.01l-1.99-1.48c1.26-3.13,20.37-.69,24.42-1.58l26.57-4.93c.23-1.83-2.13-.87-3.22-.72-3.47.46-6.49,1.81-10.23,1.77-3.35-.04-7.69-1.98-11.54-1.04l2.99-1.98-24.45,1.04-12.55,3.95ZM80.02,429.19c-2.54-4.62-8.69-1.97-13-2.98,2.53,4.02,8.87,1.55,13,2.98ZM77.02,437.2c1.12-.77,14.26.57,17,0v-.99s-7.99-.02-7.99-.02v-.99s20.49,0,20.49,0l10.5-3.99c-7.73,1.17-15.65-1.29-23.23,1.07-2.79.87-2.1.51-5.01,1.14-4.63.99-11.73,1.58-14.75,4.77l2.52,1.03c.76-.32.34-1.92.48-2.02ZM140.01,435.21c-8.11.61-16.46.99-24.53,1.95-1.5.18-3.08.2-3.46,2.03l12.39-.1,15.6-3.88ZM75.86,451.05l-.29-5.91-4.55-.93,4,2.01-1.01,2.98-2.98-1.99v4.99s4.84-1.15,4.84-1.15ZM101.02,446.21c-5.14,1.29-11.98-2.46-16,.5,4.42.82,4.92,3.59,6.99,7l-2.98-.51v7.99c2.58,3.09,5.49-11.68,5-12.99,1.62-.26.61,1.73,2.23,2.34,1.36.51,3.24-.25,4.66-.45l.11-3.89ZM114.02,460.19c-4.69-6.81,5.91-10.68-.98-14.99-.81,5.53-3.64-.35-8.02,1.01.07,2.1,2.82,3.04,3.32,4.27.72,1.78-.14,4.34.67,5.91.19.37,4.11,4.72,5.01,3.8ZM101.01,451.22l-2,.49.17,5.33,3.28,1.25,1.06-2.08,2.49,3.99,1.01-8.99-5.5,2.03-.51-2.02ZM75.82,455.45l-7.8-1.25,3.99,2.49-4.99,2c.93,1.45,2.05,1.28,3.49,1.51,1.27.2,10.24,1.39,8.02-1.02-2.79-.23-2.22-3.24-2.71-3.74ZM117.01,488.22c-9.9-2.6-20.51-.36-30.45.03-6,.23-13.36-.77-19.06-.04-1.37.18-3.15.76-1.49,2,5.31-.04,11.41,1.8,16.55,2.04,9.46.44,21.34-.69,31.02.07l.86,1.83,3.57-.94c-.27-5.18-5.03-2.08-7.5-2.19-1.61-.07-3.19-.8-4.96-.85-8.33-.25-16.73.39-25.05.04-1.22-.05-3.72.75-3.48-.99,6.14.94,12.64-1.01,18.45-1.06,6.28-.05,12.07,1.21,18.06,1.05,1.2-.03,3.73.74,3.48-.99ZM125.02,497.2h-24c-.21,2.62-.14,1.66,1.51,1.97,7.51,1.39,15.96,1.6,23.49,1.02l-1-2.99ZM99.01,510.2c1.04-12.7-1.5-12.07-12.99-9.99l5.99,1.98-15.99,1.02c-1.05,4.07,4.53.33,4.99,2.98h-8.99s2.99-1.98,2.99-1.98l-3.5-.04-.5,3.03-.99-1.99-10.01,1,6,2-1.99,1.48c.79,2.06,11.37-.35,13.99.49l-5.99-1c-4.4-3.35,9.74-.92,10.49-.9,2.54.07,4.96-1.19,6.95-1.06,1.61.1,8.84,3.77,9.54,2.96ZM145.02,504.2h-19l4.99-1.99-29.99-2.02-.9,9.89c13.49,4.45,28.09,1.32,41.89.1l-11.99-1.98c6.16.16,12.39-.32,18.5-1.02,1.92-.22,2.93.92,2.49-1.99-9.87,1.36-20.53,2.4-30.5,2-1.22-.05-3.72.75-3.48-.99,8.19.03,16.31-.7,24.51-1.01,1.23-.05,3.71.76,3.49-1ZM64.02,691.2c.47-.21,1.49-3.03,3.98-1.99,1.25,4.93,1.06,8.84,7.02,10-.56,2.94-5.7-1.27-5.98-1.01l2.99,3.99-4,1.99,24.99,5.03c.23,1.75-2.27.93-3.48.99-7.44.32-13.88-.67-20.51-3.99.65,1.58,2.21,3.05,3.76,3.73.9.39,9.06,2.26,9.74,2.26h17.5v1h-18c-.23,1.46,1.73,1.36,2.79,1.7,2.83.91,12.23,2.29,14.75,1.91,4.47-.67.18-17.27,1.46-20.61-4.01.12-8.09-.06-12.06-.44-1.31-.13-2.68,1.14-3.93-1.07-.38-2.72,1.69-1.13,3-1,2.38.24,13.26,1.83,13.73-.94-.42-1.29-.78-2.6-.8-3.98-.28-20.99-1.15-42.39-1.51-63.01-.1-5.81.74-11.24-4.44-14.54h7.99c.9.87-1.94,8.1,1.99,6.99.4-12.43,11.06-19.99,17.06-29.47,1.46-2.3,2.36-6.84,4.93-9.04l-2.98-2.47c3.95-.07,2.61-4.15,3.93-6.34.17-.27,3.11-3.89,3.74-4.69,2.14-2.69,6.05-5.7,8.32-8.51.58-3.12-2.92.42-3.99-.49-2.18-1.86,3.9-2.6,2.48-4l-17.48,4.01c-.48-2.58.46-1.77,1.98-2.46,3.96-1.79,12.69-2.13,15.37-4.47,1.19-1.03.17-4.41,4.63-4.08.3-1.72-2.52-1.12-3.29-.79-2.77,1.16-4.81,6.1-8.69,5.8l2.99-6.98c-1.44-.62-2.93.99-3.5.99h-15.5l9.51-1.99c4.39.19,12.64-.05,15.34-3.86.32-.45,2.34.34.17-1.66l-9.01-.47,12.99-2.02c.22-1.8-2.24-.96-3.36-.86-6.47.57-13.58,2.55-20.1,2.92-1.1.06-3.79.64-3.53-1.03l34.99-5.02c0-1.81-4.32-1.08-5.48-.97-6.55.58-12.78,3.91-19.51,2.97l20.99-4-7.99-1.98,8.99-1.02c.25-1.72-2.36-1.06-3.47-.97-9.96.76-20.29,4.92-30.52,3.97.12-1.41,4.49-1.75,5.62-1.86,3.12-.31,6.26-.05,9.37-.13.07-.64-1.33-1.99-1.5-1.99h-14.5c-.23-1.76,2.27-.96,3.49-1,7.05-.26,16.01-.25,22.73-2.09.77-.21.75-1.7,1.49-1.87,4.43-1.04,10.7-.26,15.28-2.05.26-1.82-1.79-.73-2.89-.65-3.24.22-6.56,1.46-9.62,1.65-9.32.58-18.23-1.82-27.48,0l24.99-5c.25-1.72-2.37-1.06-3.47-.98-4.89.37-9.59,2.15-14.1,2.91-2.8.47-6.35-.5-8.75.09-.77.19-.64,1.98-1.25,2.01-.34.02-6.35-.92-6.42-2.01,4.66-1.07,9.53-.84,14.17-1.35,1.31-.14,5.65-.19,5.82-1.66h-23.5c-.51,0-2.1-1.59-3.49-1,.02,2.78-1.02,4.66,1.99,5.49-3.93,6.1-1.04,16.61-.92,24.01.09,5.84-1.01,13.12-.77,18.9.13,3.17,3.12,1.8,2.69,4.09l-3-.49-.08,4.45,3.08,1.05c-5.81.32-3.86,9.24-3.74,14.21.05,2.02,2.27,2.91-.36,6.76.21,4.19,5.87.63,5.09,4.52l-3.07.64-.94,7.36c-3.26.63-1.53-1.58-1.91-3.38l-3.08-.62c-.56-2.79,1.02-1.95,3-2l-2-4.5,1.96-1.11-.93-30.77,1.94-1.22-.12-22.77-2.86-2.12c.06-.94,1.7.03,2.02-1.17,1.85-7.07-.64-14.93-.11-22.23-9.54-3.5-18.19-.09-27.89-.09l7.99,2-1.98,2.49,6.97,3.5c-1.75-.72-6.95-2.4-7.99,0l7.99,2-9.99.02c-.3,2.07-.13,1.65,1.29,2.28,2.27,1,4.23-1.77,3.7,1.71-3.62.41-5.02.21-6.58-3.04l-13.41,3.06c-.23,1.83,2.13.87,3.22.72,2.63-.35,5.14-1.45,7.78-1.72l-.96,1.91c1.56,1.13,4.24.92,5.47,1.32.61.2.42,1.73.92,1.7,1.4-.1,3.95-1.78,6.17-1.85,2.57-.07,5.54,1.57,8.4.91.82,3.61-5.68.77-8.52.91-3.19.16-4.65,1.67-7.03,2.02-4.16.62-8.32-.91-12.45.07-1.53,1.42.12,1.81,1.49,1.98,2.09.26,6.18.81,8.02.81,4.28,0,6.86-6.2,10.49-.81l-4.99.02,1.99,1.98-5.99,1c3.21,1.02,9.1-2.17,10.99,1l-11.99,2.02c.09,2.39,2.8.99,3.49.99h14.5l-11.51,1.99-7.49.02c-.88,4.55,7.7-.03,8.99,2.98-6.31,2.78-14.55-3.39-18.99,3l7.01-.98-1.02,1.98,10,.02-10.99,2.98,10.99.02-7.99,2.98,12.99,2-9.48,2.03,1.48-2.01c-2.6-1.09-22.01,6.85-18.99,9.99l14.48-7.02-9.48,6.01,12.48-1c1.2.08.02,1.15-.49,1.51-2.01,1.43-14.79,5.2-18.05,6.04-2.78.72-6.6-.88-8.95,1.96l15.99-1.5-4.99,3.01c1.33,3.62,7.47-1.29,11.2-2.31,1.59-.44,3.1-.93,4.79-.69l-9.99,4.98,3.99,1c-4.19-.26-4.62,5.4-9.99,5.02,1.03,2.93,6.84-1.93,7.99-1-2.08,4.76-8.58,2.16-11.99,5.5l10.99-1.5-.92,2.94,1.92,1.04c-5.79,2.09-11.8,6.45-17.99,6.02,1.64,3.43,8.65,2.02,11.48.97,4.23-1.58,10.01-7.29,14.52-8.97l-15.99,12.49c3.91,1.9,7-2.96,10.99-2.49l-7.99,4,6.99,2.98-5.99.02,1,3.98c-.54.57-6.1-.32-5,3l8.99-.98-7.99,3.48c1.22,2.97,10.54-1.17,12.99-.48-1.02,2.62-5.76,1.87-7.99,2l5.99,2.98-12.99-.98c-.28,5.1,4.76.04,4,3.99l-11,.02c.56,3.18,6.47,1.51,7,2l-.92,2.56,1.89.46.02,1.47-2.99,1.53,1.99,3.48-1.99,1.49c3.16.37,4.52-2.45,7.55-2.94,3.24-.52,7.11.24,10.44-.04l-12.99,3.5,1.96,1.99,8.03,1.49-17.99,1c-1.72-3.76,4.77.36,2.99-2.48-2.15-3.42-11.19-3.59-9.96,2.99l5.97-2.5-2.99,5.99c3.65-4.39,4.94-1.84,8.39-2.09,5.69-.42,9.73-1.95,15.53,1.17l.08,3.91h-8.01s1,3,1,3l-5.01.51,12.01,1.49h-12.99c-.48,2.87.6,1.68,2.31,2.15,2.53.69,5.06,1.07,7.68.87-1.47,3.8-8.13-.06-7.99,4.98l10.99-.98-4.99,2,2.99,2.98-6.99.99c6.48,2.34,12.35,1.15,18.99,1.02l-7.55,2.03c-4.21-.68-6.55-.95-10.44.97l3.49,2.99-.49-3h3s-.82,2.38-.82,2.38l1.47,1.51,9.34-.88-9,2,1.5,3h-5.49s1.99-2.99,1.99-2.99l-7.42-1.98c-.85.65-1.74,1.15-1.58,2.45.37,2.99,4.85-1.52,5.99-.48l-3,2.49,5,3.49-9.36-3.89-3.64,3.4c.77.77,8.3-2.99,7,.99-.2.62-6.82,1.56-7.01,4.5l7-2.49c-2.22,2.42-11.13,8.42-12.42,10.48-.38.61.29,2.89-.58,4.01l2.21-3.77c6.1-2.77,8-11.03,15.8-9.21l-.85,1.88,1.84,1.1c-3.36.06-8.25,3.1-11.27,5.05-.58.37-.67,1.38-.98,1.58-.25.17-2.73-.45-2.72.88.01,5.03,9.3-3.47,10.08-3.94,1.09-.65,2.37-.32,2.9-.56-1.33,4.3-8.33,5.63-11,9.99,5.45-.26,9.41-6.39,13.96-7.02l.04-2.96h-2.99ZM382.01,514.21c-3.18-.46-4.45,1.03-3.98,4l3-1.49-3,11.49c3.18-1.15,5.12-12.82,3.99-14ZM394.01,533.2c-.67-4.14.33-8.52-2.49-11.99l-3.5,7c2.91-1.65,1.55-.84,2.19,1.8,4.26-.44,1.59,2.25,3.79,3.19ZM382,554.19l4.1-8.49-2.1-14.5-3.99,8.5,3,.5c-.44,2.82-2.11,4.8-2.43,7.84-.1.95-.09,6.09,1.43,6.15ZM349.01,534.21l-20.95-.95-1.04,8.95c6.82-2.33,13.98-1.47,20.99-1l.99-6.99ZM372.02,541.2c.43.64,0,13.11,0,15.5v4.49s-1,0-1,0v-15.5c0-.83.2-4.58-1.99-3.5.35,12.48-.47,25.06-.05,37.54.46,13.63,5.6,29.7-.95,42.44l2.99-.99,1.01,12.99c-2.99.45-1.69-.66-1.96-2.51-.39-2.66-.53-5.81-.04-8.47l-3.06-.56c-.61-4.31.68-7.17,2.18-10.98-2.99-2.84-1.05-2.36-1.05-5.92,0-11.52-.13-23.05-.07-34.55l-1.98,4.99-3.02-37.99c-3.99,1.76-1.22,6.24-1.1,8.57.02.46-1.7.31-1.88,1.09-.55,2.38.36,5.77-.02,8.34l-1.99-5.49c.29,2.13-.47,4.86.02,6.82.19.77,1.95.64,2.03,1.3.59,4.57-1.57,16.33-1.09,22.91.23,3.14,2.65,10.04,2.65,10.98,0,.88-2.37,3.7-.6,6.49l3-2.5-1.01,24.49c-1.74.23-.94-2.27-.99-3.48-.12-2.83.09-5.69-.01-8.51-2.57,1.47-2.67,9.72-2.52,12.54.11,2.19,2.03,4.08,1.61,8-.28,2.61-1.99,3.18-2.06,5.46l2.99-.99-1.99,31.99c2.55-.42,1.41-3.94,2.2-4.8.65-.71,2.78.19,3.63-1.87.94-2.25.45-5.91.17-8.33,4.18-.63,1.09,6.55.96,8.56-.21,3.39,1.49,6.12-.97,9.43,2.07.94,3-2.85,3-3.49v-20c0-.16.98-2.92,1.99-2.5l-.98,14.99c1.46.18,1.79-2.62,1.9-3.58.37-3.45-.49-7.09.59-10.42,1.82,0,.8,10.87.64,12.6-.19,2-.1,1.42,1.86,1.41.67-7.56-.41-15.1,2.06-22.45l-2.05-1.05c3.13-2.41,1.62-6.72,2.9-10.01l-2.89-.5c-.85-6.67,3.29-12.89.9-19.25-.27-.71-1.58-.72-1.75-1.27-.18-.6,1.29-4.5-.17-5.98l3,1.48,1-21.49-4.99-40.51c-7.07,2.47-1.2,3.69-.99,4ZM198.01,564.2c-1.07-7.84,5.08-14.49,3-21.99l-3.86,15.62.86,6.37ZM394.01,545.21c-2.6-.28-2.8,1.43-3.04,3.44-.91,7.54,1.56,15.77,2.07,23.1.29,4.15-.79,9.09,0,13.45,5.53-5.99,4.55-16.59,2.98-23.99l-2.98,3.99,1-6.48-2,.49c.23-2.38,1.93-3.51,2.34-6.15.39-2.49-.74-5.26-.36-7.85ZM383.02,597.19c4.98-4.69,5.92-7.71,5.96-14.52.07-10.66-2.18-22.64-1.97-33.47-1.35,1.01-3.85,4.67-4.41,6.07-3.05,7.6.4,17.62.43,25.43.02,5.14-.49,11.48-.62,16.94-.25,11.18-2.08,22.32-1.38,33.56l6.01-.49-2.02,3.49-1.98-1.99-1,7.99,2.49-1.99c-.18,5.75-4.05,11.46-3.5,17.99,6.95-7.31,7-18.75,7.04-28.54,0-2.62-1.18-5.1-1.13-7.95.05-3.16,2.77-20.49,2.08-21.51l-1.98,1.01-.02-4.01-3.99,1.99ZM172.02,594.7c-.75-6.77,0-15.9,0-23,0-.79-1.32-3.36-2.99-2.49l-1.99,18.99.43-21.49-1.43-7.5-.02,8.99-1.98-2.99-2.01,17.99v-16.5c0-1.11,2.88-4.15-.99-5.5l-3.02,26.99c-1.99.84.15-14.15-2.98-9.99l.98,16.99-2-8.99-1.98,1.99.98-12.99c-3.85-.81-1.17,5.19-2.12,7.37l-1.87,7.62c-1.56-6.99,4.07-14.95-3-18.99-.38,4.2-1.28,9.15-2.26,13.24-.85,3.58-4.02,5.21-1.76,9.75l-2-5.01-1.99,1.02c.22-6.46-3.07-1.72-3.96,1.54-.37,1.34.05,3.03-.06,4.45l-2.94-.92-1.07,1.41c5.2-10.28,10.55-20.66,16.62-30.42.4-.64,1.81-.92,2.4-1.82,1.88-2.9,4.07-6.86,5.78-9.96.49-.88,2.21-2.5.72-3.28-9.11,12.35-19.26,24.48-27.38,37.65-.77,1.25-.71,2.81-1.46,4.03-1.55,2.51-5.14,1.52-1.73,7.23-5.55,2.77-8.06,8.48-10.93,13.59,3.46,1.2,5.37-5.05,6.01-7.5h1.98c.28.24-4.83,6.76-.01,6l3-7-1.99,6.98,3.41.95,2.58-2.94c-.32,5.5,3.92,3.75,7.93,4.08l.09,5.91,9-.99-1.02,2.99c-2.84-1.06-7.59-2.63-8.48,1.01-.92-5.21-1.53-7.44-7.5-7.01l1.99,4.98c-2.61.81-2.54-2.51-3.11-2.88s-11.83,3.16-13.89,1.9c6.67,8.81,11.09,20.38,17.16,29.33,1.45,2.14,6.02,8.51,8.85,7.15-2.2-3.21-1.48-7.25-2.69-10.29-.53-1.34-3.93-1.75-2.31-6.21l1.98,1.01.02-5.01c3.33,1.49,1.64,6.16,2,8.99l1.98-1.99,1,3.5-2.98-.51,1,7,1.98-.49-.48-4.53,2.49,5.01-2.97-18.52,1.97-.48,4.02,22c1.77.24.99-2.27.87-3.37-.49-4.56-2.1-9.97-2.88-14.61l2.99-1.02c-2.03,3.84.76,2.65,1,3.66.67,2.82-.46,7.24.02,10.34l2-14.99c2.6.08.65,4.24,1.19,4.77.43.44,1.8.13,1.8.22v14l1.01-4,2.98,1.99c.2-5.91-1.92-11.17.02-16.99l1.96,13.56,2.02,2.42-.99-8.99,2.99,2.99v-12.99c3.16,2.11.58,8.11,1.61,11.45l1.39,8.55v-18l1.99,11.51.02,7.49c1.75.23.94-2.27.99-3.48.3-6.7-.67-13.42-.52-20.08.04-1.96,2.36-3.25-.04-6.36-1.53-1.98-4.27-1.05-2.43-5.07-2.21-.17-3.26-.41-3.02,1.99h-.97c-.14-5.53-8.71-1.07-10.02-2l1.01-1.98-15-.5c5.74-4.05,14.51,1.59,19.51-4.49l1.37.15.14,1.81c2.71-2.99,3.35-.38,4.43-.4,2.02-.03,5.71-4.49,6.53-3.57-3.66,6.93-2.73,6.36.02,13.01l1.97-1.02c.91,2.85-1.91,5.45-2.02,7.6-.1,2.01,1.75,3.46,2.08,5.86.82,5.95-.29,13.47-.05,19.55l1-5.99,1,2.99c.64.07,1.99-1.33,1.99-1.5v-22.5h1v28h.99s.02-5,.02-5h1.99c-1.76,2.04,0,3.71,0,4.5v17.5h1v-36l1.99,10.51.02,20.5,1.98-1.01.02,11,1.79-9.49c.03-5.35-2.26-14.21-1.91-19.04.14-1.93,3.23-1.32,2.1-4.46l-1.98,1.99v-16.99c1.75-.23.94,2.27.99,3.48.11,2.49-.08,5.02.01,7.51l1.98-2.99,1.06,5.44-2.05,1.01c1.92,2.41,1.53,4.75,1.01,7.54,3.61-.87-.1-8.87,3.99-7.99l1.01,23.99c4.01.64.99-2.53.99-3.49v-27c0-.17,1.35-1.57,1.99-1.5l1.01,35.99c2.79.42,1.87-.47,2-2.47,1.09-16.49,1.11-33.93.36-50.2-.07-1.46.79-2.84.63-4.33l-1.83.78c-1.13-5.34-2.21,1.71-4.16.21-.12-.09,1.29-2.26-.49-2.96l-11.52,2.98c1.98,3.15-.49,5.8-1.01,8.99-2.9-.85.74-8.31,0-8.99h-2.99s-.01,10.99-.01,10.99c-3.62-1.45,0-6.09-1-9l-2,6c-3.17-.86-.13-8.81.97-9.54,1.18-.78,3.03-.43,4.42-.44l.64-4.01.99,4c7.78-2.06,14.22-2.96,21.99,0l1-28.99-2.98,5.99c-.92-3.97,3.64-11.25,0-14l-2,12.99c-.35-6.26-.01-12.05,2-18l1.98,1.01c.81-2.6-1.28-1.58-1.98-2.76-1.34-2.27,1.21-6.1-1-7.24l-3,12.99,3.98-22.99c-6.12,5.97-3.97,17.16-4.51,24.52-.62,8.44-2.35,16.87-1.49,25.47-1.75.23-.94-2.27-.99-3.48-.37-8.98.18-18.06.04-27.05-.04-2.36-1.04-4.55-1.08-6.91-.09-5.42.76-10.23,1.03-15.55-1.99.41-1.7,2.06-1.98,3.51-2.75,14.19.43,30.02-2.02,44.48-1.75.23-.94-2.27-.99-3.48-.17-4.19-.19-8.86-.05-13.06.31-9.03,1.91-18.25,1.04-27.45l-3.98,13.99.98-17.99-3.91,14.57-.09,7.42-2.98-21.99-2.02,19.99-1.98-10.99c-.58,4.62-.07,11-2.51,14.99-.31-5.47,1.19-11.03,1.55-16.45.08-1.15.72-5.54-1.03-5.54-2.54,15.48-3.62,31.33-2.02,46.99-1.02.29-1.94-4.07-1.99-4.49ZM321.01,599.2c-.93-3.71,2.03-8.57,2.05-11.47.02-3.12-.06-7.88-.16-11.08-.15-4.88-1.66-10.28-.89-15.46-1.81.37-1.87,1.96-2.03,3.46-.54,4.97-.88,12.86-1.01,18-.12,4.65-1.26,13.46,2.04,16.54ZM346.01,565.2c-4.87,2.09-6.9-1.16-11.47-1.06-.94.2.15,3.82-2.51,3.08l2.98,3.98-2.98-1-1.02,15.99-1.98-13.5-2-3.49c1.35,5.51-1.07,19.86,1.01,24.25.78,1.63,5.4,1.54,5.58,5.84l13.41-.09-.54-3.03,5.02-2.96,3.5,8.99c-.25-5.44.38-11.05,0-16.48-.26-3.7-1.38-14.79-2.19-17.81-.2-.76-1.26-2.02-1.78-1.69.27,2.54-3.03,2.63-5.01,2.99v-4.01ZM230.01,634.21c-3.1-9.89,1.13-20.89-.22-31.28-.18-1.4-1.53-2.92-1.8-5.2-1.21-10.39,2.71-21.15.53-31.54-1.52,12.15-6.06,23.6-4.51,36.01l-2.49-2-.99,1.99c-.85-.69-1.46-1.36-1.55-2.52-.19-2.61,5.01-16.01,5.8-20.21.23-1.23,1.22-6.03-.75-6.26l-6.02,27.99-1.98-3.99c-1.53,11.54-2.46,21.87-1,33.5.23,1.81-.39,1.64,1.99,1.49.41-7.08,3.72-12.41,1.01-20,4.22,1.78,3.07,6.78,2.86,10.38-.51,8.58-4.4,17.05-2.87,26.12l.99-1.99,1.02-12.5c1.72-.01,1.14,4.44,1.06,5.56-.15,2.03-.92,3.52-1.06,5.43,3.7-2.08,1.4-8,1.99-11.5l1.45,1.38-1.43,32.11c1.5-.2,1.65-4.31,1.85-5.63,1.16-7.5,2.08-15.11,3.14-22.63.42-1.35,2.48-1.12,2.99-2.24,1.03-2.23-2.61-.56-2-2.98l2,.5ZM314.03,620.2c3.98-1.89,1.09-6.55,1-9.51l-1.02-33.98-1.98-10.51.99,10.99c-3.51.74-1.25-2.93-2.46-5.1l-2.59-.41-.96-4.47c-1.75.64-1.16,6.03-1.03,7.53.19,2.22.83,4.27,1.05,6.46l2-3.01c2.36,1.26,4.89,3.58.98,4.48l2,5.52-4.99-3.99,1.08,11.92,2.44.07-.53,2,2.99-.99c-1.51,5.98.83,11.71-1.99,17l2.9.06.11,5.94ZM246.02,576.2v30.5c0,.71-1.2,2.16.25,3.26l3.74,1.25,1-3.01,1,2.99,1-2.99c.07,1.48-.1,3.08,1.61,3.78.87.36,17,.34,18.88.19,2.82-.21,5.84-1.06,8.51-1.98v4s-28.94.05-28.94.05l.96,39.95,2.06-9.26c.18-.82,1.69-.65,1.75-1.2.28-2.49-.81-7.57.19-10.52,1.75-.23.94,2.27.99,3.48.12,2.83-.09,5.69.01,8.51,1.75.23.94-2.27.99-3.48.11-2.49-.08-5.02.01-7.51l1,9.99c4.08,1.05.32-4.55,2.99-4.99v14l1.99-7.99,1,9.99c2.05-8.86,1.12-17.02,1.02-25.99,1.45-.26,1.29,1.89,1.51,2.97,1.67,8.23,2.2,17.66,1.49,26.03,3.51-1.72,1.53-6.9,2-9.99l1.98,3.99c-.62-1.57,1.01-3.75,1.01-4.49v-23.5c1.76-.22.95,2.26,1,3.49.25,6.15-.38,13.66.63,19.61.12.7.37,2.95,1.38,1.4l.98-8.49,1.01,8.99v-20l1.64,9.38-.63,11.62,1.98-7.51.02-9.49c2.48,1.66,1.15,8.58,1.03,11.49-.08,2.03-.02,1.56,1.96,1.51v-28c1.76-.22.95,2.26,1,3.49.44,10.51.27,21.03,1.01,31.51l1.98-11.51c.18-4.32-.17-8.68.01-13,.05-1.23-.76-3.71,1-3.49v39.5c-2.24,6.01.71,2.25.96-.04.99-8.96.51-17.97,1.05-26.95,1.17-19.5,2.32-38.13,1.03-58.05-.11-1.74-.38-6.54-2.03-7.46-.48,5.34.38,10.66.63,15.92.07,1.5,1.2,3.23-1.16,1.09l-1.49-19.01-1.49,12.99-1.17-3.06-1.33-12.94v20l-1.99-11.51-.02-8.49-1.49,7.01-1.49-7.01v9s2.01-.5,2.01-.5c-2.08,4.87,1.39,9.45-2.05,13.98l2.05,1.01-2.04,3.49-1.99-10.99c-2.99-2.97-2.65,9.24-4.98,9l-.02-22.99c-2.22.55-1.36,1.44-1.34,2.75.04,4.37.72,8.85.34,13.24l-2.98-6.99-1,7.99c-.1-2.82.11-5.68-.01-8.51-.05-1.21.76-3.72-.99-3.48l-.02,8.99-2.98-6.99v12.99c-1.22,1.07-5.87-5.3-5.97-5.72-.24-.99-1.08-17.96-3.03-15.28l-.02,6.99-1.99-3.99v14l-2.99-17.99-.02,35.99c-3.04-1.04,1.61-9.76-2.99-8.99.96,1.87,1.11,3.34,1.04,5.44-.04,1.05-.5,5.44-2.03,5.55l-.02-17.48-1.99-11.51ZM297.02,569.7c-1.74,12.45,1.29,28.63,0,41.5l5.06-1.62c0-4.63-.16-9.28-.11-13.92.03-2.13,1.06-4.09,1.04-5.96-.06-6.83-6.14-14.71-4.01-22.49-1.01-.37-1.93,2.08-1.99,2.49ZM224.02,570.21c-2.85-.52-1.64.68-2.25,2.19-1.82,4.52-2.45,9.92-2.74,14.79l4.99-16.99ZM240.02,608.2c.65.08,2-1.33,2-1.5v-25.5h-.99c1.06,2.41-1.01,6.16-1.01,7.5v19.5ZM397.01,595.21c-2.16-.27-3.64,1.69-3.97,3.52-1.08,5.9-.76,15.75-.69,21.85.04,3.49.52,7.85.58,12.03.02,1.66-1.37,3.68-.9,5.6,1.88-1.14,3.57-6.89,3.81-8.77.33-2.68-.81-4.21-.74-5.8.09-1.93,2.42-2.49,1.92-4.43l-3,1.49c2.43-8.04,2.36-17.01,3-25.49ZM403,599.2c-1.78-.08-2.12-.5-1.99,1.49.22,3.63,1.8,7.53,1.02,11.51l1.98-4.99,1,6.99-2-14.99ZM52.02,603.21c-5.58-1.01-3.23,1.6-4.21,2.72-1.53,1.74-6.74.7-4.78,8.27,2.4-1.09,4.41-2.4,6.98-1-1.26-2.36.24-5.14,2.74-5.85s4.54,1.64,6.26-.66l-3.48-2.5-5.5,3,1.99-3.99ZM304.02,611.2v22l2.05-18.48-2.05-3.52ZM244.7,626.93c.81-1.74,1.34-13.58-1.67-14.73l-1,18.99c1.88.24.6-1.98,1.01-3.28.26-.82,1.54-.74,1.66-.99ZM248.02,639.2v-15.5c0-.64.93-4.43,2.99-3.49.1,3.15-.13,6.35,0,9.51.05,1.23-.76,3.71,1,3.49v-20c-1.79-.41-.66,1.68-1.01,2-.3.27-3.21-2.96-4.99-1.99,2.23,8.01-.05,16.35.02,24.49l1.98,1.5ZM299.02,639.2v-26c-4.06,3.2-1.19,10.94-1.99,15.49l1.99,10.51ZM56.01,615.21c-1.88-.22-14.93,6.19-12.99,7.99l5.24-2.03,7.74-5.96ZM302.02,630.7c.33-4.79-.24-9.71,0-14.5l-2.05,13.45.06,7.54c1.19-.28,1.92-5.46,1.99-6.49ZM115.98,634.16c.54-.63-5.17-6.45-5.84-7.58-1.65-2.78-.27-7.27-5.12-6.37.92,5.49-.53,6.88-3.99,10.5,1.32,2.73,3.48-.26,4.84.58.34.21,3.42,5.33,4.49,6.57,1.59,1.84,4.17,5.4,5.16,6.41,1.11,1.13,3.52-.58,4.49,1.44l-1.99,1.48,4.98-.47-8.85-12.42,1.82-.14ZM353.97,635.15l1.04-13.94c-1.93.94-.61,4.44-1.71,6.79-.88,1.87-4.27,2.73-4.26,6.73l4.93.43ZM336.02,630.21l-4.99,3.48c2.8,3.66,6.38-1.47,9.99-.5-1.43-4.57-5.76.27-5.99,0l.99-2.99ZM105.4,635.82c-1.12-1.05-1.07-3.14-3.37-2.61l2.14,61.85,6.87,1.65-8.12,1.08c-2.68,6,2.34,11.33.11,17.41,1.22,1.02,25.29-1.04,28.54-1.95,1.37-.38,3.11-.11,3.46-2.03l-7.99-1,25.99-3.02-10.99-1.98,6.26-.25,10.73-3.75c-6.98-.88-13.85,2.2-20.5,2.98-1.08.13-5.52.8-5.49-.98,8.07-1.63,18.86-1.17,24.99-7-8.14,2.95-16.9.46-25.37.33-5.48-.09-11.87,1.41-17.63.65-.1-1.61,3.69-1.24,4.92-1.33,2.26-.17,4.47.37,6.42.18,7.53-.73,15.02-2.78,22.65-2.85-1.3-4.45-6.73,1.46-6.01-2.98l9-1.5c-3.63-1.49-3.99-4.7-5.99-7.01-7.98-9.21-17.88-16.81-24.41-25.78-1.27-1.74-2.22-5.86-4.84-7.53-.72-.46-2.74,1.39-3.75-.68l1.99-1.48c-2.42.36-1.97-2.2-2.97-3.5-1.78-2.32-4.48-4.87-6.64-6.9ZM354.01,637.21c-5.81-.55-10.54.26-15.99,2l3.99,1.98-6.99,3c5.63-1.87,10.26-1.61,15.99-1.98-3.39,4.59-10.53-1.64-14,4.98l16.01-.99.99-9ZM394.16,654.07c-.2-.25,1.64-2.89,1.8-4.42.34-3.12-.1-6.32.04-9.44-1.27.43-2.36,4.82-2.59,5.99-.62,3.15-1.85,10.56-2.19,13.74-.2,1.91,1.42,3.92-.19,5.78l1.96.48c.64-2.42,3.8-10.07,2.77-11.78-.19-.31-1.45-.14-1.61-.35ZM48.6,652.79c1.42-1.47,2.52-3,4.4-4.08l-4.98-1.49,1.01,2.98c-4.26-.51-4.81,3.57-5,7.01,1.52-1.41,3.14-2.93,4.57-4.42ZM353.01,647.21l-13,3v2.99s10.01,1.99,10.01,1.99l-2-2.98,4.99.99v-5.99ZM230.02,672.2v-17.5c0-.6,1.55-1.25.52-3.51-.48-1.06-1.93-1.74-1.52.34l-1-1.82c-1.35-1.63-1.12,1.21-1.05,2.02.19,2.09.94,4.11,1.03,5.99.2,4.17-.49,9.07,0,13.01.19,1.47.78,3.11,2,1.48ZM97.01,724.22l-22.98-3.01,2.47,2,20.51,1.01ZM84.01,727.21c-4.37-1.2-9.06-.5-13.44-1.06-1.06-.14-9.06-4.27-6.66-.44l-2.88-.51c-.44,2.59.38,1.81,2.15,2.29,3.79,1.03,7.56.46,11.34,1.51l9.49-1.79ZM88.02,750.2h-17.5c-.82,0-3.88,1.48-1.49,2.49l9.98,2.5c-3.15.11-6.35-.12-9.51.01-1.21.05-3.72-.76-3.48.99,6.54.14,12.96.7,19.51,1.01,1.22.06,3.71-.76,3.48.99-5.96.9-13.44-.96-19.04-.55-.67.05-5.79,1.37-5.95,2.55,6.64,3.35,13.83,2.8,20.99,3.51-6.09,4.21-12.93-.78-18.55-1.46-1.97-.24-1.51.28-1.45,1.95l6.75,1.75,18.24,2.26h-15c.1,1.54,4.6,1.34,5.89,1.41,1.4.07,2.71-.46,4.11-.4-3.79,4.27-12.82.34-18,1,1.36,2.33,7.84,2.81,10.51,2.98,8.98.58,15.78-2.24,24.49-1.99l-.1-3.9-2.9-1.08c15.04.16,30.13-.37,44.99-3.02-1.44-2.47-6.76-.29-9.06-.32-4.1-.07-8.6-1.28-12.93-.68l21.01-3.48,4.98-2.5c-1.89-.92-4.6.99-5.5.99h-17.5v-2h23.5c.74,0,6.98-2.92,6.5-4.99l-13.99.98,1.99-1.98h-6.99c6.5-2.21,15.83-1.62,20.99-6-10.86,1.89-20.36,3.45-31.51,2.99-1.22-.05-3.72.76-3.48-.99l26.99-2.02c-.69-1.77-5.93-1.12-7.54-1.04-2.82.15-5.26.94-7.92,1.09-1.1.06-3.79.64-3.53-1.03l23-4.02c-.04-1.66.65-2.16-1.29-1.8-5.19.97-10.19,3.67-15.7,2.8l15.99-4.98-35.99,2.98,28.99-4c-.29-1.77-5.2-1.11-6.54-1.03-4.86.3-9.95,1.84-14.91,2.09-1.35.07-6.25.72-6.54-1.04,5.1-.29,28.62-1.82,30.51-6.01l-1.05-1.99-13.46,1,3.99,1.98c-3.26-.45-6.28.85-9.46,1.05-1.08.07-4.72.69-4.53-1.03l8.99-2c-3.95-.81-7.83.96-11.48,1.07-6.36.19-15.96-2.98-16.51,6.92l9.01.5-10.02.49,1,29-3.99-1.01,2.08-2.42-.56-28.54c-.97-1.39-8.36-4.1-9.95-4.06-.61.02-.48,2.03-2.47,2.6-2.97.84-6.1.31-9.11.44l1.01,1.98-4,.5,7.3,2.52.69,2.98-19.99-.99,2.99,1.98-4.99,2c7.28-.24,14.34,2.29,21.61,2.91,2.32.2,5.22-2.43,6.39,1.09-6.51,1.68-14.25-2.06-19.99,1.51l17,2.49ZM145.01,765.21c-13.27,2.76-26.98,2.27-40.51,2.99-2.27.12-1.49.48-1.47,2.49l19.38,1.4,7.6-1.9-4.99-1.98c5.86.06,11.5.3,17.19-1.32,1.03-.29,3.03-.23,2.8-1.68ZM134.01,778.21c-5.9.26-12.55.42-18.38,1.11-1.05.12-4.69.4-4.61,1.87l14.49-1,8.5-1.98ZM79.02,817.2c-.9,1.9-1.88,4.87-1.99,7,3.12-3,3.31-5.87,7.99-7.5l-1.99-.99c.58-1.5,5.36-2.98,6.99-2.01l-7.99,9.5c4.66.78,6.34-6.79,11-5.49-3.07,1.36-5.62,5.58-8.07,6.93s-9.95,1.7-8.43,5.57l5.5-2.5c-1.56,2.31-5.86,4.92-7.11,6.99-1.08,1.79.13,3.15-.08,3.4-.39.47-2.21-.6-1.79,1.1,4.99,2.67,6.78-4.01,11.99-2.98l-7.99,14.99,15.5-18.99c1.41.69-.13,2.48-.68,3.32-1.39,2.14-13.01,15.33-11.82,16.67,3-2.48,6.47,1.58,8.96.54.84-.35,7.51-8.02,8.02-9.05,1.51-3-4.47,1.43-2.99-2.48l6.76-.23,1.35-7.32-2.11-2.44c2.64.3,2.15-2.24,3.28-3.74.52-.69,2.21-.84,2.71-1.79.79-1.51-1.25-2.06-1.99-1.48-.3.23.87,2.92-2,1.99l2.01-6.99,3.58,1.99-.62,3.44,2.02.59c-.62,2.4-3.84,2.06-5.03,3.67-.93,1.26-.67,3.4.54,3.3.72-.06,9.36-7.76,12.5-6.97-4.87,6.03-13.69,3.87-10.97,13.48.67,2.39-.25,1.44,1.96.5l-2.99,2.01c-.28,2.13-.08,2.15,1.99,2.02-3.08,3.03-1.13,5.26-.98,8.97l7.49-9.99c.86,3.19,2.13-.2,2.99,2.99l5.5-4.99.5,5.99,9.52-14.99c3.23,1.79-2.78,5.54-2,7.99,5.89-4,7.74-12.29,11.99-17.99-10.58.5-19.26,5.41-24.02,14.99l-1.91-2.41,5.93-5.1-2.99-1.48c7.68-1.97,14.48-6.25,21-10.54,1.17-.77,2.59.25,1.98-2.48l-21.99,7.5,20.91-9.09,7.08-6.4c-7.1,2-17.91,7.32-25.23,6.79-.74-.05-3.06-.54-2.76-1.79,2.07,2.9,32.58-7.05,29.99-9l-13,4.98,4-3.49-1.76-.65.77-1.84-15,4.5c1.37-2.34,2.9-4.44,5.51-5.49,2.8-1.13-.85,3.06,1.96,1.97,4.46-1.72,10.76-5.54,14.51-8.49l-13.48,4.52c-5.11-.33,9.18-8.96,9.2-10.01l10.28-4c-5.34,1.21-11.29-.03-15.99,2.99l1.99-3.99c-8.13-3.84-17.75-.13-26.55-.5-2.67-.11-2.47-2.57-2.93-2.52-1.33.13-2.95,1.52-2,3l-1,.96c-4.49-1.33-13.87-1.57-18.31-.25-3.14.94-6.67,4.53-8.98,5.1-2.08.52-3.79-.58-5.34-.25s-8.41,3.11-9.9,3.94c-4.78,2.68,4.41-.19,4.74-.26,3.97-.77,8.23-.98,12.26-2.23l-6.99,4.99c.25-.43,1.17-1.86,1-1.99-2.18,1.41-9.32,2.33-10.74,3.27-1.84,1.22-.51,3.87-6.26,1.73l1.99,1.49-4,3.49,18-7.99c-2.36,4.09-5.23,3.62-6.76,5.17-.25.26-1.47,5.71-2.23,6.82.42.43,8.7-3.68,9.66-4.33,1.62-1.1,2.41-3.99,6.14-5.45,2.97-1.16,5.94.82,6.22-3.22l3.98,7.99-3.99,1.53,1.99,1.98-2,2.49,3.99,1c-2.08-.4-2.95,3.01-3.65,3.1-1.31.16-2.95-1.39-4.14-.91-.33.13-3.83,5.05-4.2,5.83.42-.88.19-2.7-1.49-1.99-2.97,3.2-6.83,5.81-8.51,9.98,1.73.14,3.08.13,4.57-.92.36-.26,5.24-6.67,5.43-7.07ZM84.01,798.21c-5.34.64-7.87,6.34-11.6,9.39l-6.39,10.61c6.71-1.88,8.22-8.37,12.5-12.99.41,4.32-6.09,8.24-5.01,11.99,4.79-5.44,8.78-11.9,10.5-18.99ZM69.01,820.21l-6.53,2.9-.51,1.58c-.04,8.56,7.93-3.62,7.04-4.47ZM168.01,828.21c-.88-.72-18.36,7.48-15.98,10,4.13-3.54,9.45-4.81,14.01-7.51.55-.32,3.85-.93,1.97-2.48ZM144.01,833.18l-.49-1.97c-2.78.63-19.04,15.55-17.51,16.98,8.19-2.41,10.49-7.84,14.97-13.56.92-1.18,2.87-1.28,3.02-1.45ZM101.01,843.21c-2.54-.45-2.12.03-3.3,1.23-.72.73-7.15,9.38-6.7,9.76,5.26-1,10.2-4.99,9.99-10.98ZM86.63,854.63c-4.13-1.81-5.17-1.53-7.62,2.56,4.53-1.37,11.39,3.41,14-.98-1.72-.15-3.63.32-5.29-.05-.7-.16-.79-1.41-1.09-1.54ZM92.76,859.54c-3.49-1.58-13.39.46-17.73-.32.2,1.66,3.78,2.01,5.15,2.33,13.69,3.27,29.06,1.63,42.84-.35,1.36-1.29-.08-1.9-1.52-2.03-1.89-.16-7.07.38-9.29.64-7.65.92-12.02,3.1-19.45-.27Z"/>
      <path d="M131.02,329.2c-10.31.53-20.69,1.59-31,2,7.19-3.13,11.13-1.65,18.54-1.96,3.78-.16,9.03-2.65,12.46-.04Z"/>
      <path d="M198.34,97.95c.67.47,1.84.26,2.67.26l-1,8.99-1.98-3.99-2,10.99.98-14.99c-1.26-1.68-1.82.11-1.99,1.48-.34,2.76.31,5.67-1.02,8.5-1.71-.21-1.61-4.81-1.51-6.02.24-3.06.61-6.89,3.03-8.95,1.44.7,1.9,3.07,2.82,3.73Z"/>
      <path d="M230.01,147.21l4,37.99-4.98-26.5c.6-3.62-.52-6.76-.94-10.08-.25-1.98.23-1.45,1.93-1.41Z"/>
      <path d="M252.01,165.21l-1.99-1.02c1.23,2.81-3.1,5.33-3.88,2.38l-.13-5.36,4.99,1.99c-1.47-4.17.06-8.59-2.99-11.99,6.02,1.05,3.53,9.61,3.99,14Z"/>
      <path d="M213.02,152.2l.91-2.56c-5.51-2.96,2.7-4.57,5.08-.92.51,2.13-4.52,3.53-5.99,3.48Z"/>
      <path d="M225.01,96.21c.21,3.34.03,6.44-.86,9.68-.47,1.71.73,2.79-2.13,2.31l.45-9.93,2.53-2.06Z"/>
      <path d="M470.01,171.19l.02-1.98,1.57,2.1,2.94-1.08c2.16,5.11-1.66.96-3.02,2.96l-1.51,9.02c-3.11-1.29,1.17-8.21-.94-9.53-4.25-1.91-7.22,3.61-11.03-.96l2.1-3.38,9.88,2.87Z"/>
      <path d="M503.26,123.06c3.22.28,2.21,2.78-.25,1.65.05,1.98.45,4.77-1.99,5.5l-1.01-10.99c3.34-.39,4.38.86,3.24,3.85Z"/>
      <path d="M472.02,207.2v-19l2.06,11.5c-.9,2.16.57,6.46-2.06,7.5Z"/>
      <path d="M98.01,689.21c.23,1.75-2.26.93-3.48.99-6.3.28-17.61-.75-23.73-2.29-1.01-.25-3.01-.28-2.78-1.7,10.18,0,19.77,3.97,29.99,3Z"/>
      <path d="M127.87,550.06l-5.85,1.14,3.48-3c-1.88.6-18.5,3.4-18.5,1.51l21-3.5-.14,3.85Z"/>
      <path d="M66.02,250.21l-2,2.98,3.5-1.97c1.53.76,1.08,2.92,1.75,3.72,1.01,1.21,3.84.41,3.75,2.26-1.86.6-13.21-4.84-11.99-5.98l5-1Z"/>
      <path d="M352.02,156.2c-1.76.22-.95-2.26-1-3.49-.43-10.28-1-21.5.01-31.5,1.48.24.99,5.07.99,6.49v28.5Z"/>
      <path d="M364.02,125.2h2c.22.23-1,4.58-1,5.5v23.5h-1v-29Z"/>
      <path d="M103.03,801.21c1.9-1.45,9.55,10.07,3.49,11.97-2.63-3.57-5.58-7.57-3.49-11.97Z"/>
      <path d="M101.76,785.54c.16.07,2.48,2.43,2.25,2.64-5.99,1.26-.67,7.63-.99,8.01s-2.39-.82-2,1l3.99,1-4.99,1.01-1-13.99c.99-.07,1.77-.12,2.73.34Z"/>
      <path d="M124.02,391.19l.99,1.5-1.61,1.24-20.38.25,16.28-2.2c2.07-.55,3.08-4.77,4.71-.8Z"/>
      <path d="M84.02,328.21c-1.95,3.85-7.12,2.62-10.63,3.87l.63-1.87c-3.84-1.52-7.12,4.18-9.98.49.05-1.72,10.99-2.61,12.97-2.51l-1.99-2.98,9,3Z"/>
    </g>
  </g>
</svg>