<?xml version="1.0" encoding="UTF-8"?>
<svg id="Layer_2" data-name="Layer 2" xmlns="http://www.w3.org/2000/svg" viewBox="0 0 886.52 784.03">
  <g id="Layer_1-2" data-name="Layer 1">
    <g>
      <path d="M349.99,726.47c-5.93,3.59-21.44,4.6-29.4,6.1-7.12,1.35-14.71,4.54-22.6,3.91-.19,1.72,3.45,1.1,4.53,1.03,12.45-.79,24.97-2.61,37.46-3.03l-7.51,1.98-25.48,2.02,5.99,2.98c-3.82,1.17-6.31-1.6-9.44-2.04-3.75-.53-9.52.87-12.88.04-.77-.19-.64-1.95-1.31-2.03-1.31-.17-3.8,1.07-5.83,1.1-5.17.08-10.37-.14-15.54-.06l16.99-2.98-24.99,2c-.06.93,5.2,1.99,5.5,1.99h20.5v1h-27l7.99,1.99c-7.14.71-14.51-1.58-21.49-1.79-5.73-.17-13.34,1.78-19.5.79.11-1.53,4.49-2,5.54-2.03,1.82-.05,3.5.91,4.96.85,3.27-.15,6.91-1.5,10.5-.82-.46-1.86-1.58-1.85-3.19-1.78-3.38.15-6.39.96-10.32.79-1.22-.05-3.71.77-3.48-.99,11.77-1.5,23.24.82,34.99-1.02l-8.54-1.04-9.45,1.04,17.51-2.99,1.48-2-25.5-3-57.5,3,1.02,1.98h-11.01s0-2.99,0-2.99l36-1.01-1.99-1.98,30.99-1.02c.23-1.75-2.26-.93-3.48-.99-6.02-.27-11.18,1.09-17.06,1.04-7.37-.05-15.71-2.06-23.45-1.06l17.2-2.29,3.29-1.71-34.49,3,4.61-1.87,21.38-2.1c-19.87-2.3-38.28,7.42-57.99,2.98-.23-1.79,2.25-.97,3.37-.87,8.92.82,15.84.99,24.62-1.61-1.13-1.66-2.73-1.43-4.44-1.56-10.88-.84-21.81-2.39-32.55-1.95-.27-1.3,1.85-1.6,2.74-1.74,8.63-1.32,18.96.42,27.8-.21l14.45-2.03c-7.03-1.5-15.24-1.3-22.53-1.05-10.41.35-21.59,2.69-32,2.08-1.72-.1-6.55-.38-7.46-2.03l43.48-1.02,8.51-1.98c-28.95-1.1-57.54,4.37-86.49,3.99-1.62-1.41,1.12-.99,1.98-1.01,12.46-.32,24.69-2.03,37.03-2.99,5.37-.42,13.75,1.78,17.49-2-35.56-3.67-71.32-1.3-106.99-1.02l14.45-2.03,47.03-.97,27.5-3.98-49.54,1.03-76.45-4.05,135.85-4.63-.81-54.9c-5.58-66.1-5.15-132.78-5.08-198.92.05-46.74.27-93.3,1.1-139.96l-27.05-3.58.93,36.38,8.91,1.76,1.15,4.35-2,98.51h-18.5c-.78,0-3.22-1.48-4.51-1.49l-1-2-4.04-95.93,11.12-3.19-1.06-46.4,35.01,2.01c-.51-12.18-1.25-25.16-3.3-37.21-2.57-15.18-8.85-29.8-10.51-45.03,16.74-31.57,31.2-64.24,48.63-95.44C185.75,73.34,211.07,38.58,230.69.38l2.37-.38c27.92,9.27,57.22,13.23,85.76,20.15,38.9,9.43,77.2,21.47,116.17,30.83,74.17,17.82,148.75,34.53,223,52,8.73,2.05,60.15,11.75,63.02,14.97.55.62,1.07,1.13,1.04,2.04-2.06,17.67-9.46,35.23-9.1,53.02.12,5.9,1.79,13.08,2.04,18.96,3.59,85.53,1.89,171.42,6.99,256.79,15.15,12.36,30.46,24.88,47.35,34.87,3.92,2.32,22.2,10.66,23.68,12.31.84.93,1.18,1.73,1.09,3l-2.2,25.42c-27.02,5.02-54.65,3.64-81.96,4.53l-.76,1.24c-.96,9.6-2.32,19.24-3.16,28.84-1.58,18.09-2.56,36.9-3.05,54.95-.67,24.46-.03,49.17,1.04,73.55l33-1.01c-2.09-3.26-.09-6.06.05-9.45.22-5.49-.25-11.06-.05-16.54h18l-.14-5.87c-3.45-1.14-12.66-4.18-13.66-7.84-.9-3.27,1.32-6.28-3.23-7.8l.03-2.5,3,.49c-.25-4.11-4.25-4.69-4.95-9.05-.47-2.96-.65-11.95,2.45-13.44.97,1.36,4.37,8.44,6.44,6.96,2.63-4.89,8.45-7.96,14.06-5.97-1.92-3.5,3.6-5.9,5.5-8.99l-.5,2.99,5-1.98c-5.13,5.53,4.09,10.24,8.91,12.11l-.9,4.88,4.99-.49c-2.17,1.54-4.41,2.51-6.99,1.5l2.04,2.57-1.06,2.42,3.01.5c-1.53,2.18-7.14,7.16-7.99,9.02-.2.43-.25,1.64.49,1.48,2.86-1.8,8.04-10.23,11.02-9.96,1.89,1.46,1.2,1.15.68,2.63-1.23,3.53-4.88,5.52-5.19,9.33,1.84,1.99,4.45-6.8,6.99-4.5l-4.99,7.5c3.46-1.67,8.24,1.99,10-1.98l-1.99-1,3.99-1.02c-4.6-6.5,1.6-9.37,1.99-15.99l-4.98,1.99.99-12.99c-13.33,7.02-1.5-11.83-11.39-9.2l-1.14-.75-.47-8.06c-8.09,5.81-6.88-3.71-9.5-4.99-1.64-.8-2.38,3.39-4.55,4.47-1.18.58-3.23.26-3.75.7-.76.64-.47,5.86-2.74,6.81l-5.44-1.97v6.99s-6-1.99-6-1.99c-.99,3.23,3.46,2.25,3.99,3.01s-.76,2.82-1.51,2.98c-4.92,1.07-10.19-16.51,1.51-9l.48-6.03c2.06-2.89,4.53,1.31,6,1.03,2.83-2.5.15-6.89,4.04-9l3.48,3.98v-5c5.38-.61,9.18.03,10.02,6,7-6.55,7.53-1.15,6.98,6.01l4.13.57,1.88,11.43,5.95-1.97.97,11.37,3.62,1.53c2.47,4.41-2.18,8.19-2.59,11.67-.22,1.86,2.64,1.26,2.76,4.03.19,4.79-6.86,9.24-8.94,13.73-4.27,2.69-24.46-.27-25.7,3.25-2.23,6.34,6.53,3.65,9.28,4.54l1.5,1.5-2.44,29.32,1.08,2.04h37.5c-.33,1.86-1.58,1.53-2.89,1.71-3.28.45-18.33-.24-19.12.3l1.01,1.98-8,.5c1.14,1.66,2.73,1.44,4.44,1.56,7.97.54,16.07.63,24.06.95,1.21.05,3.72-.75,3.49.99l-63.99,2.02c-.24,1.74,2.27.95,3.48.99,3.52.13,9.57-1.36,11.51,1.99-7.5.11-15.03-.09-22.54-.04-17.99.13-34.22,2.2-51.92,3.09-14.07.71-29.1-1.02-43.07-.08-3.12.21-5.64,2.56-9.47,1.04-1.91,3.13,10.09,3.44,6.99,5.99-1.02.84-4.51-2.28-5.94-2.49-.83-.12-1.33.49-1.56.49h-18.5v-1h18c.82-2.38-2.41-2.69-3.75-2.73-4.3-.11-9.6,1.55-14.24.72l7.99-1v-.98c-2.42.24-5.23-.36-7.57-.08-3.09.37-4.42,1.79-6.87,2.13-5.82.8-12.5-1.8-18.98-.97-3.34.43-7.08,2.6-10.59,2.93l1.01,1.98c-2.68.23-4.04-2.52-6.56-2.96-1.96-.34-10.54-1.01-12.97-1.12-4.32-.2-3.59,2.11-3.93,2.07-1.89-.22-4.31-1.78-8-2.03-1.14-.08-5.55-.7-5.54,1.03l7.99,1c-11.47.81-22.66-1.74-33.99.02,1.26,3.13,5.41,1.77,7.99,2l-1.99,1.98,18.99,6.02-3.99,1.98,13.48,5.03c-11.19-.17-20.22-8.66-29.6-12.4-8-3.19-35.05.86-45.35,1.42-28.45,1.56-57.23,2.94-86.04,4.76l-15.49-1.79c7.47-.32,15.06.38,22.54.03,14.12-.67,31.07-1.48,45-3,1.5-.16,3.09-.21,3.46-2.03l-71.42,3.07-10.58,3.91,8,.02-1.01,1.98c3.28,1.7,4.07-1.2,6.71-1.79,2.91-.65,6.3,0,9.29-.19l-10.99,2,1.01,1.47c10.03,3.58,20.01,7.3,29.99,11.03.72.27,3.07.47,1.48,1.5-11.47-1.26-22.87-9.88-34.1-10.92-7.14-.66-15.1,2.62-22.38,1.89l16.99-3.98c-5.61-2.88-9.31,1.99-14.99.98l4.99-1c-1.88-3.97-7.21-2.24-11-1.99.22-.13,3-1.66,1.48-2.02l-67.48,9.01c22.16.57,43.99-5.53,65.99-6.99ZM713,122.49L246,15.47l6.99,8.5-1.99.99c3.53,3.92,8.19,6.86,9.99,12.01l-6.98-3.51c-1.71,1.82,6.49,6.49,6.99,7.99l-6.5-3.99-.99,1.99-1.52-2.99-1.99.51c.03,5.68,12.56,7.05,17.01,7.5l-5.99,1.98c38.04,7.64,75.76,17,113.81,24.7,19.84,4.01,46.27,10.4,65.82,12.19,1.12.1,3.59.93,3.36-.87-.99.47-5.21-.46-1.52-1,88.25,17.7,177.56,30.34,265.18,50.95,4.57.38,4.08-6.66,5.36-9.94ZM180.99,108.47c3.14-10.09,15.99-19.76,20.99-29.52.28-2.84-1.24-.83-1.97.04-4.53,5.35-7.81,12.84-13.53,17.47l-.49-1.48,24.1-33c1.04-8.16,7.22-14.79,11.09-21.81.42-.75,2-3.25-.2-2.2-11.88,19.24-25.31,37.51-37.41,56.6-12.68,20-23.78,40.34-34.76,61.24-7.36,14.01-13.99,28.42-21.81,42.19l1.5.72.5,2.76c1.28-.28,2.12-1.65,2.83-2.67,13.75-19.94,22.86-44.49,35.36-65.64,1.78-3.01,5.73-6.85,5.31-9.69l-5.5,5.99c.33-1.25.72-5.22,1.23-5.82.33-.39,1.87.07,2.82-.83,2.42-2.3,7.01-10.64,9.94-14.35-.5,1.61-1.08,3.28-.99,5l4.66-3.33,13.32-21.66c-1.05-1.17-11.97,15.17-13.01,16.48-1.21,1.51-3.25,2.6-3.98,3.52ZM265.99,67.48l-4.51.99,1.19,1.82,71.32,13.19c0,1.81-4.33,1.08-5.48.97-3.34-.3-6.67-1.58-10.03-1.97-2.55-.29-5.2.23-7.86-.14-11.91-1.65-24.53-5.62-36.26-6.74-1.13-.11-4.51-1.01-4.36.86l33.28,6.06c77.35,14.37,156.96,34.99,236.08,45.1,12.21,1.56,24.36,4.35,36.63,4.87l-7.99,1.98c14.95,1.35,29.66,5.35,44.55,7.05,2.15.25,4.3-1.13,6.79-.96,5.66.38,11.82,3.11,17.65,2.94l-1.99,1.98c13.57-1.33,27.91,4.63,41.53,5.03,3.45.1,6.02-1.08,8.96-1.1,5.4-.02,11.62,3.37,17.5,2.07l-30.6-4.82c-102.07-19.91-208.16-32.99-309.24-56.83-25.19-5.94-55.72-18.15-80.33-21.67-7.16-1.03-12.78.92-19.82,1.32l2.99-1.98ZM707.99,137.48l-186.66-30.84c-32.97-5.6-66.57-7.94-99.52-13.48-39.56-6.65-78.21-18.19-117.81-24.67l11.57,3.91c108.67,25.55,218.93,46.04,328.21,63.79,21.17,3.44,42.36,6.71,63.21,11.3v-6.01s-5.99-.98-5.99-.98c2.77-.01,7.13.95,6.99-3ZM469.99,123.48l-218.99-38,9.96,4.52,11.04,1.48-1.02,1.98c7.05-2.01,14.07.97,21.24,1.28l81.78,16.23c0,1-3.31.5-4.38.38-24.09-2.69-47.9-9.96-72.11-11.84-1.76-.14-3.66,1.02-5.88.91-5.06-.24-12.98-3.59-19.15-3.95-2-.12-1.56.22-1.48,2.01l5.73.64,4.26,2.34c-9.69-2.27-18.73.02-28.33,1.18l-1.53,1.47c-.05,29.29-.39,58.61-.18,87.91.2,27.52-.58,58.8,1.05,85.95.82,13.61,3.52,27.29,4.03,40.97l-.04,34.04c-1.42,1.62-.98-1.12-1.01-1.98-.37-13.61-1.02-27.44-2.01-41.01-.32-4.39-1.66-9.63-1.98-14.02-1.33-18.14-2.47-36.34-3.02-54.49-1.74-.23-.94,2.27-.99,3.48-.38,9.31.28,18.69,0,28.01l2-.5c.34,7.1-.44,14.41.02,21.5.57,8.69,2.7,18.93,3.02,28.07.15,4.24.02,9.95-1.09,13.88l2.05.57c-4.21,4.75-.23,3.11.09,5.41-2.08,19.86-.96,39.67-1.08,59.57l1.98-1.99,1.02,15.99,1.47-2,2.55,1.69-.03,12.31,3.57-18.92c1.71-2.87,6.53-5,9.8-4.99,39.28,1.94,78.11,7.99,117.13,11.9,55.43,5.56,111.42,5.34,166.95,7.05,32.4,1,63.76,2.97,96.05,1.97,10.63-.33,23.51-1.9,33.62-1.41,8.76.43,16.72,10.65,23.97,15.8.91.65,4.12,3.36,4.9,2.59l-11.01-274.98-9.99-1.02,6.99-1.98c-4.53-.48-9.81-.55-14.22-1.28-13.68-2.25-32.74-8.95-45.59-9.5-3.41-.15-6.7,1.37-10.17.76l4.99-1.98c-18.66-1.27-38.02-6.64-56.51-8-1.11-.08-4.65-.81-4.48.98l25.99,3.02-8.37.86-114.62-17.88c-.25-1.72,2.37-1.06,3.48-.98,8.46.63,16.96,2.94,25.51,2.98l-30.39-4.89-9.6,1.89,21.99,5-35.99-6,5.99-1.98-36.99-5.02,3.99-1.98-5.99-1c14.92.7,29.65,4.93,44.51,5.98,1.2.08,5.47.84,5.48-.98ZM132,220.47l78.98-128c-2.09,1.74-5.8,5.03-7.34,7.1-11.71,15.67-24.46,37.09-35.06,53.98-13.47,21.44-27.42,43.27-36.57,66.91ZM231.45,94.99c-.66-.83-.09-1.82-1.44-1.51-.12,1.09-.5,2.47-1.15,3.35-7.3,9.91-14.03,20.5-22.69,28.32l-59.19,94.32c-1.92.15-.89-1.98-.44-2.95,2.34-5.09,6.21-10.32,8.29-15.72l20.16-31.85c.19-2.97-1.14-.77-1.84.17-17,22.69-27.73,49.13-42.87,72.96,6.04,35.93,8.73,69.64,7.76,105.93-2.91,108.86-1.99,217.43,3,325.92.29,6.27-.43,12.62.1,18.9.68,2.1,3,1.68,4.87,1.63-1.97-6.16,2.14.86,2.49,1.01,3.14,1.3,1.7-1.79,3.49-1.99l2.01,3,.99-4,.59,4.12,7.42,1.87v-7.99s2.14,8.86,2.14,8.86l4.8.05,1.05-2.91c.19,2.84,1.28,4.27,4,4.99.44-3.02-2.17-1.27-2.76-4.69-.4-2.32.09-4.69-.29-6.76-.4-2.19-3.9-6.95-.96-8.55,1.7,3.41,3.3,20.87,7.51,20.97,2.32.06.66-4.45.8-5.32.21-1.27,1.92-2.67,2.19-4.51.4-2.66-2.27-5.63-1-8.14,5.38,3.58-1.29,15.73,1.45,17.55l4.05.44-.5-8.99,2.51,10,5.86-.14,1.12-1.87c.15,3.49,4.22,3.35,7.01,3.99.22-3.35-2.84-6.16-3.76-8.73-.32-.9-1-3.52.76-3.26l5.25,11.75,11.76,1.24c.78-.7-2.57-10.54-2.92-12.58-.17-1-.79-3.68.91-3.41l3.12,15.89,7.89,1.1-.5-3.99c1.92,1.03.43,5.32,3.99,3.99,3.11-1.17-1.12-4-.48-5.99,1.37.53,2.88,4.89,4.99,2.99.98-.88-4.21-5.74-2.99-7.99,2.34,1.29,2.07,6.34,5.98,5.99.75-.81-3.86-11.98-4.52-13.97-.32-.98-1.36-3.22.51-3.01l9.51,22c2.15-3.72-1.89-5.84-2.49-9.47l1.98-1.54,1,2.99c1.16-19.86,1.06-39.72,1.97-59.54,4.83-104.81-.26-200.7-5.97-304.95-4.06-74.05-4.82-149.04-6.89-223.12-.12-4.3,1.42-11.2,1.92-15.72-.07-.61-1.23-.72-1.57-1.16ZM245.99,121.47v34h-1v-18.5c0-.18-1.15-4.71-2-3l-1.04,123.04,3.03,29.45c1.95-16.29-3.18-35.75-1.07-51.56.25-1.86,1.83-1.3,2.05-2.09.11-.38-.99-6.15-1-7.79-.04-11.26.8-22.89.05-34.06-.14-2.02.15-1.55,1.98-1.5v31c1.76.22.95-2.26,1-3.49.8-19.29.44-40.66.04-60.05-.05-2.36-1.02-4.55-1.08-6.92-.22-8.33.39-16.73.04-25.05-.05-1.23.76-3.71-1-3.49ZM566.99,141.48c-11.07-.66-21.92-3.95-32.99-4l19.62,3.86c3.38-.41,6.64.87,9.89,1.12,1.11.08,3.73.73,3.48-.98ZM248.99,350.97c-.3-5.64.22-11.35,0-17l-1.99-7.49c.2,10.65.47,21.58,2.49,32.01,1.96-2.22-.42-5.93-.5-7.51ZM98.47,347.82c-.76.08-2.65,1.96-2.95,2.67-1.65,3.99,1.27,28.86,7.55,20.56,3.41-4.5-2.18-11.12-1.92-12.91.22-1.47,3.17-2.98,2.86-6.13-.22-2.25-3.6-4.4-5.55-4.19ZM102.74,376.72c-.47-.5-4.69-2.35-5.21-2.25-4.51.85.48,14.56.33,15.35-.22,1.11-2.39,1.9-2.84,4.16-.76,3.8-.99,13.69,4.54,13.46,5.8-.24-2.66-6.54-.55-9.97l3,5.99c4.92-2.28-3.12-11.47-2.79-13.54l3.77-2.97-1.99-3.49,2.98,1c-.01-2.2.35-6.07-1.25-7.75ZM256.99,655.47v47.5c0,1.03-2.93,6.42-.01,7.49.99-5.76,1.21-11.69,2.04-17.48.27-1.85-1.01-2.96,1.97-2.5-2.05,6.15,1.12,13.27.01,19.99,1.3.28,1.61-1.86,1.74-2.74,1.67-11.29.7-22.96,1.75-34.27,1.96,8.36.55,16.53.51,25.01,1.82-.38,1.85-1.97,2.03-3.46.2-1.73-1.07-6.05.95-6.53v21s4.87-1.64,4.87-1.64c.41-3.85.83-7.32-1.85-10.35h9.99s-7,.98-7,.98v9.01c29.32-1.63,58.49-7.23,88-6.99.24,1.74-2.27.95-3.48.99-9.99.37-20.07,1-30,2.01-14.9,1.52-35.54,3.16-49.75,6.25-1.73.38-3.57.74-4.74,2.24.02,2.03,6.77,1.56,8.47,1.49,17.3-.73,36.44-4.58,54.02-5.98,24.25-1.92,48.69-2.59,72.98-4.02,4.25-.25,9.89-2.06,14.01-2.08s8.21,1.84,12.5,1.09v-7s-11.01.5-11.01.5l11.02-1.5-.02-128-2.03,11.45-.97,48.54c-1.74.23-.94-2.27-.99-3.48-.41-9.99.34-20.06.04-30.05-.07-2.37-1-4.55-1.08-6.92-.4-11.84-.28-23.72-.97-35.54l-1.98,9.5-1.02,30.98-1.99,11.51v-33h-.99s-.02,9.99-.02,9.99h-.99s0-23.99,0-23.99c-1.76-.22-.95,2.26-1,3.49-.64,15.31-.48,30.73-.96,46.05-.2,6.47-1.97,13.63-1.03,20.45l1.98-2.99c.27,8.82-.31,17.71-.03,26.54.36,11.34,3.68,12.33-11.42,13.49-31.89,2.45-69,3.53-100.99,4.01-7.23.11-24.25,1.14-29.91-2.17-4.58-2.67-1.65-5.45-1.58-9.33.39-22.88-1.29-45.24-2.09-68-.64-18.15-.8-36.38-.97-54.54-2.02,1.15-2.74,6.31-2.98,8.51-1.36,12.7-2.14,26.35-2.99,39.01-.76,11.27-1.01,22.67-1.03,33.97l-1.98,16.51c.24-31.09,4.05-62.31-.26-93.24l-2.75-7.75v50.5c0,1.71,1.13,6.6-.99,7.49l-.97-53.54-2.04-9.46v37c-1.76.22-.95-2.26-1-3.49-.4-9.93-.65-19.65,0-29.5-2.69-3.53-1.95,8.53-1.99,9.51-.05,1.22.75,3.72-.99,3.48-.99-17.5,2.08-35.04,1.03-52.53-.55-9.23-3.61-19.39-3.04-28.96l2.01.03,1-2.52-3.07-.55c-.18-6.73,1.29-12.99-.92-19.47l2.01.5-2-9.49,2.98,3.99c1.49-3.83-1.59-7.07-1.94-9.54-.52-3.66.11-8.12-.05-11.96-.05-1.23.76-3.71-1-3.49v20l-2.07-14.51,1.07-20.49c-1.24-1.62-1.81.02-2,1.48-1,7.86-.31,21.69-.04,30.06,1.01,31.37,4.73,62.64,5,93.92.15,17.03-.05,34.05.08,51.08l-4.08,58.92-.96,83.04c1.41,1.62.99-1.11,1.01-1.98.11-4.02.82-7.48.98-11.03,1.31-27.8,1.9-55.29,4-83,.36-4.8-1.92-12.05,3-14.49l-1,36.99-1.98-12.99-1,55.99,2.99-24.99ZM100.11,414.43c-.56-1.86-1.65-4.27-4.11-3.96.19,5.6-1.05,12.13,2.5,16.99l.51-8.99,4.98,6.99-1-12.01-2.88.97ZM284.99,426.47c-1.82-4.55-5.84-12.26-10.99-12.99l10.99,12.99ZM340.99,491.47c4.12,1.23,13.66,1.63,18.51,1.99,6.05.45,12.43.42,18.48.52l-41.99-44.01c.99-1.62,2.21.33,3.01.99.92.78,9.55,9,9.98,8.51.44-1.88-1.05-2.38-1.99-3.5-2.69-3.23-5.8-6.28-8.51-9.48-.67-.79-2.62-2.01-.99-3.01,9.29,10.01,18.91,19.8,28.02,29.98,6.58,7.35,11.91,16.23,19.99,22.01l-.02-2.98c-22.15-24.64-46.48-47.35-66.17-74.08l-12.31-1.93,4.99,5.49c-5.62.33-9.54-7.82-15.99-6.5-1.04,3.76,2.63,3.9,3.69,5.29,2.1,2.76,4.98,7.5,6.9,10.61.53.85,2.51,2.16.91,3.09-3.53-5.89-8.63-9.32-13.07-13.95-1.22-1.27-1.08-3.2-2.12-4.11-1.95-1.71-8.57-3.18-11.32-2.92,4.73,6.04,9.6,12.08,14.49,18,1.95,2.36,7.05,5.33,6.02,7.98l-7.01-6.99-.49,1.48,46.99,57.51c-6.27-1.87-13.28-16.89-18.58-21.92-6.05-5.74-14.86-12.35-20.43-18.57-7.9-8.83-13.93-19.64-22.98-27.5l14.17,21.32,42.81,56.68,2.83-5.49-4.82-6.5c1.27-1.14,5.37,3.41,5.02,4.99l1.98-3ZM358.99,429.47c-3.58-1.51-5.15-6.63-8.49-8-3.77-1.55-16.82-2.23-22.05-2.96-1.29-.18-2,.06-1.44,1.45,1.62,4.02,10.27,14.72,13.48,18.53,13.53,16.06,30.54,32.37,45.02,47.98,2.16,2.33,3.89,5.58,5.92,8.08l30.57,1.92c.98-.86-3.62-6.96-4.48-8.01-13.88-16.94-32.18-32.73-47.03-48.97-2.79-3.06-12.94-17.13-15-18.01-4.96-2.11,4.35,7.17,3.5,7.99ZM383.99,422.46c-.37-1.8-1.96-1.87-3.46-2.03-5.99-.64-13.74-1.13-19.78-1.31-1.45-.04-2.43-1.26-3.75.85l26.99,2.49ZM501.49,500.47c7.11.46,14.38-.34,21.5,0-3.41-5.7-8.77-10.95-12.46-16.04-1.19-1.64-1.33-3.8-2.55-5.45-10.61-14.21-23.01-27.03-34.49-40.51-1.34,3.39,5.6,6.35,4.01,8.99-5.2-3-11.65-19.68-15.1-21.9s-18.58-.84-23.94-1.06c-2.37-.1-4.56-.98-6.93-1.08-.91-.04-4.43-.67-3.52,1.52,17.74,20.25,35.36,40.75,52.5,61.51.65.79,2.64,1.99,1,3l-34.01-37.99.99,3.01,24.5,30.99c-9.95-9.02-18.59-19.05-27.5-28.99-1.38-1.54-4.1-2.87-6-5-2.66-2.99-15.78-20.6-16.76-23.29-.62-1.7.3-3.06.28-4.72-11.11-1.11-22.32-2.42-33.52-2-1.21.04-3.72-.75-3.48.99l10.99,1.02-5.99,1.48c20.79,24.23,44.49,45.47,67.02,67.98,1.37,1.37,2.23,3.6,3.44,4.56,6.16,4.85,20.42-.49,27.52,2.97l-1.5-4.99c3.2,5.97,5.55,3.43,11.05,3.96,1.3.13,2.5,1.01,2.96,1.04ZM454.99,498.46c-22.15-24.92-46.82-47.58-68.05-73.44-4.86-3.05-20.54-1.78-26.95-2.54,2.96,4.6,6.82,8.98,10.49,13,9.76,10.71,19.86,21.66,29.98,32.02,9.56,9.79,21.44,17.86,28.75,29.74l25.79,1.21ZM534.99,473.47c-13.55-14.06-25.16-29.96-37.05-45.44-9.96-2.4-20.68-2.06-30.94-2.55l51.41,62.08c1.24,3.07,4.48,5.5,6.02,7.98,1.22,1.97-.11,5.43,4.02,4.98l77.55-1.06c-.66-1.7-1.68-3.22-2.96-4.53-9-9.21-24.12-19.09-32.07-28-1.02-1.15.05-2.52-.52-3.38-9.15-13.78-30.16-18.58-34.5-36.06-10.56,2.57-21.24-1.06-31.96-.01l43,45.49-1.99.99c1.83,3.38,20.06,23.3,17.99,25.5-1.98.17-3.65-1.23-4.99-2.5-7.47-7.06-15.08-20.55-22.03-28.97-5.11-6.2-10.71-11.94-16.48-17.52l1.01,3,14.49,20ZM575.79,429.69c-.66-.39-12.97-1.14-15.25-1.26-4.41-.22-9.61-.14-14.05.04-1.21.05-3.72-.76-3.48.99,1.96.08,4.07,0,5.71,1.31,5.82,4.6,13.04,17.28,19.76,23.73s15.94,11.47,22.2,17.31c.47.44.45,2.13,1.36,3.08,1.26,1.33,3.84,2.18,4.96,4.08.16.74-1.05.68-1.48.49-4.3-1.95-10.25-9.57-15.51-10.98,8.15,10.01,19.29,17.17,29.02,25.47,1.66,1.42,3.37,4.93,4.64,5.36,1.6.55,6.86.36,8.89.22,4.92-.36,4.59-.05,8.92-.02,6.17.04,12.36-.1,18.52-.04.25-2-1.69-3.31-2.98-4.51-21.67-20.04-44.11-39.22-66.02-58.98-1.58-1.43-4.84-6.09-5.2-6.29ZM602.84,431.63c-.88-.56-18.2-1.06-20.84-.66,8.93,8.35,16.97,17.77,25.98,26.02,15.95,14.61,33.53,28.07,49.97,42.03,31.21-.05,62.91,1.83,93.89-.98l22.15-.57c.39-1.87-.93-2.42-2.07-3.42-6.13-5.36-16.04-8.74-22.42-13.58-2.47-1.87-4.52-4.99-7.03-6.97-16.54-13.04-32.92-26.25-47.92-41.08-3.53-2.23-7.83.03-11.55.54l17.99,18.5c-1.87.44-2.38-1.04-3.5-1.99-4.01-3.38-7.49-8.15-11.49-11.51-.79-.66-2-2.62-3-1l14.98,15.02,51.01,43.48c-1.81.26-2.92-1.27-4.29-2.2-15.03-10.15-30.14-24.11-43.72-36.28-4.81-4.31-9.12-9.85-13.97-14.03-1.49-1.28-9.01-7.44-10.03-7.97s-1.88-.65-2.99-.5l18.99,20.49c.16.74-1.05.68-1.48.49-4.02-1.79-15.18-16.28-19.25-20.02-7.98-4.78-15.44-3.56-24.26-2.47l44.99,46.5-32.51-27.98-1.48.49,19.99,19.01c.16.74-1.04.68-1.48.49-.94-.42-13.78-11.75-15.55-13.45-4.37-4.2-8.34-10.66-13.46-14.54-1.05,2.98,4.69,5.83,6.5,8.5-1.25.83-3.1.37-1.51,2.51l29.01,27c-14.66-10.49-27.47-23.14-40.49-35.51l1.99-.99c-1.15-1.56-3.12-2.21-4.39-3.61-1.96-2.17-6.92-8.33-.28-6.52,1.77.48,2.84,1.78,4.67,1.62-1.35-3.44-8.85-3.77-12.53-4.02-2.55-.17-4.7.74-6.8.65-5.83-.26-12.09-.33-17.66-1.62v1.98c1.17.13,2.16.64,3.01,1.46,19.11,18.36,35.75,40.6,54.97,59.07l-1.48.49c-19.4-19.73-41.27-37.71-58.98-59.04-.87-1.05-1.3-3.54-1.69-3.79ZM274.99,449.97c.32,6.8-.23,13.7,0,20.5,1.76.22.95-2.26,1-3.49.37-8.93-.46-17.64-1.01-26.51-1.67-.21-1.13,3.53-1.05,4.55.15,2.01,1.02,4.14,1.06,4.94ZM273.98,477.47v-21.48s-1.98-12.51-1.98-12.51c.03,10.17.57,20.34.99,30.51.05,1.22-.76,3.72.99,3.48ZM270.99,461.97c-.27-5.14.2-10.36,0-15.5h-1v20.5c0,.74,1.63,2.93,1.01,4.49h.98c1.03-3.19-.87-7.21-.99-9.49ZM259.99,466.97c-.46-6.35.34-13.11,0-19.5h-1v21.5c0,.61,1.58,3.36,1.99,2.5.73-1.71-.92-3.59-.99-4.5ZM284.98,499.47c1.69-16.09.62-32.35-1.08-48.41-.1-.96-.45-3.76-1.9-3.58-.46,7.72,1.71,15.87,2.03,23.45.35,8.31-.38,16.73-.04,25.05.05,1.22-.76,3.72.99,3.48ZM281.98,495.47c-.22-13.81-.42-27.7-.99-41.51-.05-1.22.75-3.72-.99-3.48l-.05,26.54,2.03,18.45ZM290.98,499.47c-.64-14.17-1.41-28.32-1.99-42.5-.05-1.22.76-3.72-.99-3.49.12,13.6-.28,27.85,1.11,41.37.11,1.02.4,4.7,1.87,4.62ZM292.99,485.47v-21.5c0-.29-1.06-5.56-1.99-5.49l-.06,6.54,2.05,20.45ZM306.99,498.47l.99-17.99-2.92,16.59,1.92,1.41ZM261.98,518.47c-.23-10.47,1.81-20.69-.49-31.01-1.38,0-.6,25.09-.5,27.52.05,1.21-.76,3.72.99,3.48ZM426.49,499.47h-31.5l-1.01,15h-.99s0-16,0-16l-1.88,6.63-1.11,10.37.99-16.99c-10.15-.73-20.31-.7-30.49-1.02-4.99-.15-14-3.39-17.51,1h4.01s-1.01,26.02-1.01,26.02l77.96.94,3.67-23.88-1.12-2.07ZM429.99,500.47v23.5c0,.21-1.5,1.13-1,1.49l28.89.9,3.12-24.38c-10.05-2.72-20.7-1.09-31.02-1.51ZM490.99,526.47c-.8-7.41,1.33-14.68,1.58-22.01.03-.9.84-1.64-.56-2.51l-30.01-.48v25h29ZM786,501.47l-32.01,1,.44,19.03,5.08,1.04,25.43-2.12,1.06-18.95ZM524.99,502.47h-30c-.37,1.08,1,2.19,1,2.5v20l1.5,1.5h25.5l2-24ZM568.99,502.47h-42l1,24h38.5c.99-.63,1.29-1.38,1.5-2.5,1.06-5.8.19-15.28,1-21.5ZM611.99,502.47h-41l.99,24.01c12.64-.73,25.28-1.38,38.01-1-.19-7.71.02-15.52,1.99-23.01ZM663.99,502.47h-49v23l45.07-1.43,3.93-21.57ZM706.99,502.47h-41l-1,22c13.36.48,26.5-1.52,39.86-1.14l2.14-20.86ZM751.99,502.47h-43v21l41-.99,2-20.01ZM318.99,506.48h-15.48s-13.51,1.98-13.51,1.98c8.5-.2,16.99-.65,25.5-.99,1.21-.05,3.72.75,3.48-.99ZM304.99,514.47h16.5c2.68-2.45,9.28.98,9.99-3.01l-26.49,3.01ZM331.99,518.47h-19.5c-.17,0-2.92.98-2.49,1.99l5.54.06,16.45-2.05ZM661.99,653.47c-22.76-.14-45.75,1.21-68.46.96-6.29-.07-26.6,1.34-30.52-1.48-1.9-1.37-3-3.67-3.09-5.99l4.11-44.94-.04-38.04-3,13.5v-22l-5,33v-39l-5.01,47c-1.76-.29-1.11-5.19-1.04-6.54.61-11.43,1.71-22.9,1.04-34.45l-2.03,8.45,1.04,121.55c16.17-.39,32.36-.57,48.55-.96,2.37-.06,4.55-1.03,6.92-1.08,18.77-.38,39.38-.72,58.05.04,1.22.05,3.72-.75,3.48.99l-114.5,2.01-2.36,1.64-.13,7.36c5.14-2.57,4.25,1.02,7.43,1.11,5.5.15,12.55-2.28,18.56-1.1.23,1.74-2.26.94-3.48.99-5.88.26-11.64,1-17.51,1.01-.23,1.75,2.27.94,3.49.99,8.57.36,15.05-1.5,23.02-1.99,12.27-.75,24.74-.21,37.03-.97,25.13-1.55,50.22-5.02,75.46-5.04,1.96-48.95,4.72-98.08,4.98-147h-.98s-1,6.99-1,6.99l-1-9.99c-1.36,6.43-.55,13.01-1.02,19.48-.18,2.49-1.21,4.88-1.42,7.37-.22,2.67.98,5.67.41,8.63-.72,3.73-5.63,3.51-2.46,8.98l-1.51,11.53-.02-10.99-1.98,7.99-.02-36.49-2.98-18.5-1.05,70.54,3.06,36.9c-.92,6.03-19.27,6.2-24.44,6.52l-.58,1.04c2.82.02,5.69-.12,8.51,0,1.22.05,3.72-.76,3.48.99l-38.99,4,26.42-3.95.58-1.04ZM690.01,576.47c4.11-4.17,1.59-13.56.98-18.99-1.75-.23-.93,2.27-.98,3.48-.22,5.26.95,10.3,0,15.51ZM642.99,570.48l-15.46,11.03c-7.64,5.29-13.93,12.27-20.63,18.37-1.7,1.54-4.24,2.37-5.92,4.08-1.98,2.01-.61,1.97,1.02,1.02s3.95-4.18,5.99-3.01l-8.99,8.5,9-4.98-2,2.98h1.49c9.34-9.82,21.77-17.32,31.53-26.48.88-.83,3.68-3.33,3.98-4.03,1.3-3.02-6.77.98-7.52,1.48-2.18,1.45-4.45,6.54-7.46,5.54l14.99-14.5ZM489.98,688.47c.4-30.37,2.12-61.05,1.05-91.54-.08-2.36-.95-4.55-1.08-6.92-.28-5.01,1.76-13.15-1.95-16.54-3.02,24.68-4.04,50.63-3.05,75.54.44,11.21,1.5,24.88,3.02,35.98.2,1.5.14,3.08,2.02,3.47ZM288.99,577.47h-1v53h1v-53ZM531.98,672.47c1.69-30.33,4.85-60.66,1.51-91.01-1.16,20.52-.94,41-1.46,61.55-.06,2.37-1.02,4.55-1.08,6.92-.17,6.13-.21,12.94.04,19.05.05,1.22-.75,3.72.99,3.48ZM357.99,583.48c-8.8,1.25-18.36,3.8-26.78,6.7-1.73.6-5.46,1.53-6.21,3.28l32.99-9.98ZM333,639.46c3.49.41,5.92-1.16,8.74-2.75,10.49-5.92,49.9-36.01,54.45-45.56.99-2.08,2.41-6.63-.64-6.66s-23.79,15.21-27.87,18.16c-10.17,7.36-19.97,15.43-29.68,23.32,2.45,1.44,5.79-4.53,8.99-3.01l-19.99,17.01c3.39,1.33,6.35-5.6,8.99-4.01l-2.99,3.49ZM449.92,599.43l-1.49,71.01,2.19.05,1.49-71.01-2.19-.05ZM640.99,616.48c-5.64.65-14.99,2.05-20.2,4.09-.8.31-.91,1.45-1.64,1.78-4.93,2.21-12.07,4.95-15.16,9.12l29.99-9c.25-1.77-2.28-1.02-3.26-.76-3.44.9-6.89,2.63-10.68,3.33-1.04.19-3.27,1.32-3.04-.55l23.99-8ZM751.68,623.24c1.01-.77,3.41-5.84.81-6.74-1.55,3.52-5.1,4.58-7.44,6.52s-.99,4.1-4.84,3.74c-5.27-.49,1.81,2.48,2.11,2.68.97.64.1,2.63,2.14,2.02,4.08-1.74,4.15-7.19,4.74-7.82.38-.4,1.91.03,2.48-.4ZM537.99,618.47h-1v31h1v-31ZM326.99,622.48c-3.63-.5-7.13.34-10.67.62-1.28.1-2.67-.8-3.68-.67-.73.1-.54,1.82-1.32,2.02-1.47.38-4.45-.94-4.32,1,4.6-.16,9.83.35,14.33-.39,1.38-.23,5.32-.93,5.66-2.59ZM637.99,623.48l-11.82,2.67-14.18,6.31c8.4-2.12,19.34-3.51,25.99-8.98ZM639.99,626.48c-6.06.3-10.35,3.55-14,7.98,5.64.57,6.18-5.09,10.99-3l-1.99-1.49,5-3.49ZM392.99,638.48l-21.54-.05-16.45,2.03,25.54.05,12.45-2.03ZM540.99,687.97c.75-11.91-.55-24.52,0-36.5h-.99c1,2.15-1.01,5.42-1.01,6.5v36.5h.99c0-2.11.89-4.52,1.01-6.5ZM764.86,668.62l-7.86-1.14c-.85,3.76,3.44.95,4.99,2.49l-5.99,2.52,3.97,2.49-4.99,1.5c-.86,2.9,2.41,1.73,3.01,3.99l-5.99,2,5.99.02-3.99,3.98,7.99,3-6.99.02,4.99,1.98-6.99,1,11,1.01.86-24.86ZM155.99,705.48c-15.15-2.07-30.72-4.41-45.99-2l3.48.99c12.73-.49,25.33,1.23,37.97,2.04,1.08.07,4.72.69,4.53-1.03ZM715.99,704.48c-15.9-1.73-31.5.79-47.37,2.11l-6.62,1.87c16.81-1.72,33.64-2.29,50.51-2.99,1.22-.05,3.72.75,3.48-.99ZM505.99,708.48c-26.87.08-53.91.19-80.5,3.98l-49.49,3.02.99,2.98c-6.49-2.57-13.23-.07-19.46.05-4.53.09-10.38-1.03-14.04-.84-18.4.94-36.48,5.7-54.86,6.94l-7.63,1.85c13.26-.14,26.34-2.75,39.5-3.98,16.67-1.55,33.44-2.67,49.95-3.05,5.5-.13,11.04.18,16.54.03l-7.99-1v-.98c19.46-1.3,39.11-3.49,58.66-4.63,1.86-.11,3.87.89,5.88.75,1.89-.13,1.4-2.06,1.88-2.02,3.2.22,7.17,2.05,10.99,1.9,13.48-.53,28.1-4.63,42.07-3.01l7.51-1.98ZM484.99,714.47h18.5c1,0,4.75-1.62,6.52-1.48l-.5-2.49c-9.81,2.88-20.04,1.41-30.06,1.93-10.37.53-21.15,3.54-31.47,1.05l1.02,1.98c-18.86.87-37.72,1.23-56.52,2.01-1.22.05-3.72-.76-3.48.99l61.49-.99v2.01s4.99-2.02,4.99-2.02l-1.48,2.01c21.29-1.28,42.58-3.8,63.99-3-1.59-4.13-5.95-.99-7.5-.99h-23c-.37,0-1.47,1.34-2.49,1v-2ZM536.99,710.48l-10.44.12-9.55,1.86h9.49s10.5-1.98,10.5-1.98ZM336.99,723.48l-63.38,6.11-4.61,1.87c8.06,1.25,15.56-1.2,23.5-1.98,10.58-1.04,21.26-1.52,31.85-3.15l12.64-2.85Z"/>
      <path d="M885.99,715.46c-.85,1.3-26.67,4.38-30.62,4.89-167.99,21.61-337.46,29.45-505.75,48.25-57.96,6.47-116.42,18.14-174.62,14.87-.23-1.75,2.27-.94,3.49-.99,19.73-.81,39.26-2.02,58.89-4.12,36.18-3.87,72.12-10.38,108.24-14.76,158.91-19.26,318.8-27.83,477.87-45.13,18.6-2.02,38.61-5.9,57.04-7.01,2.04-.12,7.74.53,5.46,4Z"/>
      <polygon points="711.99 742.48 683.33 748.31 664 750.46 711.99 742.48"/>
      <polygon points="256.99 731.48 246.48 733.46 225 733.46 239.51 731.48 256.99 731.48"/>
      <polygon points="721.98 319.47 720.01 302.96 720.01 283.48 721.98 302.98 721.98 319.47"/>
      <path d="M170.99,731.48l-14.51,1.98h-21.48c-.23-1.74,2.27-.94,3.48-.99,10.82-.45,21.68-.8,32.51-.99Z"/>
      <rect x="78.99" y="353.47" width="1" height="38"/>
      <polygon points="127.99 717.48 115.48 719.46 103 719.46 115.51 717.48 127.99 717.48"/>
      <path d="M353.99,729.48c0,1.63-3.41,1.56-4.67,1.81-5.98,1.21-12.18,2.27-18.32,2.17l22.99-3.98Z"/>
      <path d="M333.99,144.47l122.99,18.01-1.98,23.99c-2.16.71-10.41-1.97-11.05.66l-3.84,170.76,1.53,1.43c2.75-.55,17.59,1.93,18.01,4.58l-4.27,21.63-126.9-8.06c-1.32-.05-1.84-.48-2.3-1.7-.97-2.6-4.16-25.4-3.19-26.31l5.05-.46.87-1.16c.15-.84-.92-1.6-.92-1.89v-139.5c1.76-.22.95,2.26,1,3.49.25,6-.25,12.05-.04,18.05.08,2.37,1.02,4.55,1.08,6.92.79,31.83-1.62,66.63,1.92,98.08.17,1.5.21,3.09,2.03,3.46-1.08-3.25,1.01-8.29,1.01-10.5v-27.5c1.76-.22.95,2.26,1,3.49.64,15.29-.85,30.33-2,45.51h6.01c.48-43.2-1.4-86.34-1.05-129.55.02-2.86,1.06-5.3,1.09-7.91.13-13.02-.11-25.92-.99-38.88l-3.92-1.79c.73-2.33-1.12-6.12-1.12-7.37v-17.5ZM393.99,163.48c-4.07,1.72-5.93-.52-8.57-.93-12.68-1.96-25.58-3.65-38.42-4.07l25.99,4c.18,1.71-3.43,1.08-4.54,1.04-4.66-.2-9.46-1.69-13.98-2.04-1.11-.08-3.72-.74-3.47.98,27.4,4.62,54.59,12.38,82.46,14.05,1.09.07,3.79.64,3.52-1.03l-39.99-7.02,5.99-1.98-11.99-1.02,2.99-1.98ZM359.99,261.97v-67.5c3.26.99,1,2.8,1,3.5v65.5l16,2,2.01-71.01-6.02-.49c6.17-.88,7.54.7,4.87-6.36-5.41.41-10.25-1.42-15.42-2.17-3.05-.44-5.87,2.34-7.44-1.96,6.8.08,13.82,2.53,20.52,2.97,1.21.08,4.31.73,3.47-1.47-1.02-1.42-1.82-2.02-3.55-2.46-6.16-1.55-14.17-.94-20.38-3.68l-1.92,1.26-2.15,82.36,6.97.58,2.04-1.09ZM395.99,189.47c2.66-.01,5.34.01,8,0,.28-1.5-.32-2.27-1.7-2.79-5.36-2.05-15.45-1.19-21.29-3.2v3.99s14.38.99,14.38.99l.61,1.02c-5.19.02-9.89-.7-15-.99,1.91,25.5,1,51.65-2.01,76.98l21.01,4.02c2.32-21.77,2.28-43.66,2.96-65.55.1-3.33,1.54-6.37,1.1-10-.77-6.35-5.57-1.51-8.06-4.46ZM424,189.48l-18-2v2.99s8.99.5,8.99.5l-9,.5.04,36.55-3.13,39.97,1.07,3.01,15.02,3.47c.11-3.15-.12-6.35,0-9.51.05-1.22-.75-3.72.99-3.48l.14,12.37,4.86,2.63-.98-83.01-9.02-1.49,9.01.49v-2.99ZM374.99,277.47h-24c1.76,8.73.63,17.66,1,26.51.05,1.23-.76,3.71,1,3.49v-14h.99c1.61,15.75-.95,34,9,47l1-2.99,2.01,2.99-3.99-11.99,2,3.99,1.97-2.99c.73,2.41,1.72,7.06,5.01,6.99,1.24-1.38-3.84-7.79-1.01-8.99l3,7.99,2.01-57.99ZM397.88,280.58l-19.89-2.11-.99,62,4.99-2.5-3.99-1.49,4.58-.92.88,1.92,5.54-2-1,2.98c13.01-1.24,9.41-14.13,11.12-23.53-3.27-2.68-.35-5.33-.09-9.92.44-7.59-2.12-16.49-1.14-24.43ZM423.99,333.47v15.5c0,.53-1.61,2.18-1,3.49l4,1-1.13-67.36-1.53-1.47-22.34-3.17.95,37.54.06,22.47,2-.5-3,6.49c.85-.48,3.58-.12,3.79-.28.81-.61,7.39-9.52,7.75-10.67,1.79-5.77,1.81-14.86,3.46-21.04,1.47-.08,1.76,3.58,1.87,4.61,1.39,13-6.21,17.84-9.87,29.38l3.49-3.01c1.98,8.26,3.58-1.58,4.66-2.78.2-.22,4.73-.31,5.68-1.37l1.16-8.84ZM357.99,340.47l-3.98-14.99c.68,3.8-.9,14.26,3.98,14.99ZM388.99,339.48c-3.39.78-8.09-1.02-9.99,2.99,2.79.03,4.66-1.02,5.49,2.01l4.5-4.99ZM446.99,370.48l-63.5-8-41.49-2c.38,1.81,1.97,1.86,3.46,2.03,6.8.75,15.11.27,22.03.97,14,1.42,27.9,3.97,42.02,4.98,3.62.26,7.31-.11,10.94-.06l1.1,3.14,7.45-.08-5.99-1.98c6.95.08,13.88,1.07,20.79,1.71,1.11.1,3.4,1.18,3.2-.7Z"/>
      <path d="M650,187.47v17.01s-8.36.91-8.36.91c-1.03.73-1.5,4.22-1.63,5.6-3.62,38.72,2.69,80.48,4.03,118.95.4,11.64.04,23.38-1.1,34.93l20.06,3.62-7.16,15.83-132.91-1.27-2.92-21.55,20.99-2.01c.8-4.28-.91-8.49-1.05-12.46-1.64-47.99,2.38-97.22.06-145.09-.11-2.18-.75-4.31-.48-6.51-1.58-1.85-9.05-.42-10.34-4.63-1.58-5.17,2.26-14.44.8-20.32l120.01,17ZM637.99,197.46c-.39-2.02-2.12-1.63-3.5-1.99-27.05-7.07-54.61-13.23-82.49-15.99l6.99,2-5.99,1.98c28.08,5.73,56.2,12.61,84.99,14ZM619.99,206.48l-40.99-1.99c-.18,1.46,2.61,1.79,3.58,1.9,10.82,1.23,24.65,2.71,35.38,2.65,1.83-.01,2.24-.96,2.03-2.55ZM566.99,208.48l-5.99,1.98c4.33.83,8.78,1.95,13.18,2.35.88.08,3.77,1.17,3.8-.83.02-1.8-12.46-1.46-13.97-1.51l2.99-1.98ZM604.99,215.46c-.4-1.88-1.97-1.81-3.47-2.01-5.6-.77-12.13-2.03-17.49-2.53-1.83-.17-2.61-1.09-4.02,1.06.07,2.31,22.19,4.14,24.98,3.49ZM615.99,210.48h-9.99c1.41,3.69,8.54-.69,9,3.48-2.77,1.41-9.01-2.28-9,2.5l10.99,1-1-6.99ZM577,219.47l-.12-3.38-1.53-1.47-17.35-2.14v4.97s19,2.02,19,2.02ZM604,217.47l-23.11-1.39.12,70.39,20.59,2.96,2.33-1.57.07-70.38ZM620.95,218.47l-12.92-.59-2.02,1.14.98,68.95c.89,4.83,6.87,1.73,9.57,1.61.47-.02.32,1.7,1.09,1.88,2.61.6,6.5-.39,9.35.01l-6.05-73.01ZM552.99,283.47l1.51-65c-.71-.02-1.34,2.83-1.41,3.6-.83,8.83-1.78,19.11-2.13,27.87s-1.01,23.85.04,32.06c.19,1.46.76,3.1,2,1.48ZM576.99,220.47l-18.99-2c-1.2,21.31-1.17,42.83-1.57,64.05l20.56,2.94v-65ZM556.99,311.47l-1.04-.58-.1-13.78-4.85-1.64c-.11,16.13-.25,32.38,2.13,48.36.24,1.59.43,6.02,1.85,6.63l-2.98-41.99h.98c.1,2.49-.1,5.01.01,7.51.05,1.23-.76,3.71,1,3.49v-17h1v22.5c0,3.88,2.55,9.85,3.06,13.94l2.93,6.55c-3.3-11.99-4.08-21.58-3.99-34l1.04.58c-.99,10.5.86,19.69,4.46,29.37l2.51,1.03c-2.14-1.51-2.77-12-1.5-12-.26,11.04,4.82,11.58,14.39,10.9,2.45-5.41.17-10.32.07-15.35-.2-9.5.23-19.05.05-28.55l-21.01-1c-.02,4.99.04,10.02,0,15.01ZM580.99,297.47v50c5.66.58,9.37-4.93,13.5-8,2.28,2.98-7.34,4.7-2.02,5.99l10.02-10.99c1.18,1.43-1.66,4.41-2.53,5.47-2.55,3.11-5.74,5.66-8.97,8.03,2.55.79,6.74-2.81,8.52-4.48,6.48-6.09,2.97-7.76,4.56-15.41l-2.09-1.11,2.1-1.93-.14-25.52-22.95-2.05ZM623,300.47l-16.01-1c-1.12,7.28.91,13.93,1.66,20.64.29,2.6-2.6,5.8,1.23,6.79l-.88,6.56,3.83-7.75c-1.42-3.83.62-5.26,1.08-7.82.13-.7,1.31-13.82,3.07-11.42l1,4.99.02-8.99,1,4.99,1.98-3.99c.36,2.84-1.33,7.5,2,8.99v-12ZM627.85,301.61l-3.85-1.14c2.07,13.42-2.25,25.7-3,38.99,1.71-.58,2.55-5.24,2.73-6.75.53-4.4-1.16-10.96,2.25-13.24.01,12.06-.76,24.18-2.98,36h5.99s-1.14-53.86-1.14-53.86ZM578,342.47l-12,.5,2.85,1.66-.86,1.84c3.44-1.16,6.67,1.13,9.99,2.01v-6ZM613.98,353.47l3-10.99c-1.85-.13-1.21,2.93-2.16,3.76-.17.15-1.38-.51-1.8-.13-1.02.92-1.37,2.24-3.05,2.87l4.01,4.49ZM577.99,351.48h-9s0,2.99,0,2.99h9s-2.01-1.5-2.01-1.5l2.01-1.49ZM651.99,372.48l-51.45-4.05-63.54.05c-.23,1.74,2.27.94,3.48.99,16.67.69,33.33,1.25,50,2.01,6.56.3,14.43,1.8,20.97,2.03,11.79.41,25.28.43,37.05-.04,1.22-.05,3.72.75,3.48-.99ZM538.99,375.47h65c.22-1.76-2.26-.95-3.49-1-5-.21-10.06.24-15.05.04-2.66-.11-5.06-1.01-7.91-1.09-10.4-.27-27.31-1.2-37.07.05-1.47.19-3.11.78-1.48,2Z"/>
      <path d="M530.99,265.47c1.76-.22.95,2.26,1,3.49.75,17.96-.58,36.08-.04,54.05.06,2.13.95,4.04,1.03,5.97.36,8.87-.41,17.69,1.01,26.49l2-1.48c-.56-30.96.42-61.69,2.01-92.51,1.74-.23.94,2.27.99,3.48.17,4.19.19,8.86.05,13.06-.82,23.78,1.23,54.47-2.03,76.97-1.16,8.03-6.02,1.59-6.02-4.02v-85.5Z"/>
      <rect x="278.96" y="211.48" width="2.07" height="103.99"/>
      <path d="M663.98,323.47c-1.74.23-.94-2.27-.99-3.48-.67-16.29.46-32.74.04-49.05l-2.08-26.92.54-12.55,3.54,50.47-1.05,41.54Z"/>
      <path d="M693.98,405.47l-1.03-10.54c1.39-12.18,1.56-24.65,2.04-36.97.05-1.22-.75-3.72.99-3.49l-2,50.99Z"/>
      <path d="M277.99,399.48c-.01,1.9-4.19.99-5.37.86-13.38-1.43-12.5-8.44-11.62-19.87l1.24,10.25c2.61,6.06,9.57,8.33,15.75,8.76Z"/>
      <path d="M337.99,134.49c-.1,1.78-3.04.85-4.74,1.74-3.55,1.86-7.4,6.11-9.46,9.54-1.15,1.91-1.12,4.93-2.78,5.7.66-7.64,7.71-21.03,16.98-16.98Z"/>
      <rect x="648.99" y="307.47" width="1" height="48"/>
      <path d="M610.99,394.48c.23,1.74-2.27.94-3.49.99-8.85.35-17.65,1.03-26.5.99l15.51-1.98h14.48Z"/>
      <rect x="700.99" y="357.47" width="1" height="30"/>
      <rect x="268.99" y="247.47" width="1" height="29"/>
      <rect x="447.99" y="333.47" width="1" height="25"/>
      <path d="M169,650.48l1.99,3.98-3,.02c1.23-3.69-1.85-5.66-2.56-7.96-1.78-5.79.49-12.04.59-17.51.79-41.53,1.95-83.32.12-124.89,12.11-7.15,23.59-16.53,36.17-22.82,2.53-1.26,5.08-3.24,8.03-2.75,1.63.54,2.32,3.94,2.55,5.52,1.43,10.16,1.81,24.46,2.14,34.86,1.35,42.61-2,85.3-1.17,127.91-.16.93-.88,1.06-1.57,1.43-6.26,3.35-34.55.68-43.3,2.2ZM198.99,502.48l-9.04,3.66,1.05,64.33c3.01-1.27,9.44-1.21,10.04-4.52l-3.09-44.94,1.04-18.53ZM183.99,570.97v-30.5h1v32c5.01-.88,2.66-7.07,3.01-11.49,1.49-18.58-.02-35.89-.02-54.51-4.57,1.99-7.11.87-6,6.99-2.19.37.31-5.3-2.48-3.99-1.45.69-2.52,3.83-2.53,5.47l-.97,60.52,6.71-2.26,1.28-2.23ZM205.98,624.47c2.36-7.02.3-13.72-.03-20.45-.16-3.2,1.2-16.92-1.56-17.46l-3.4.93,4.99,36.99ZM195.99,622.47v-20l3.01,22.99,2.07-17.51c-2.66-5.38,2.69-26.51-6.94-17.86-1.06,4.42.96,8.65.96,12.87,0,4.63-1.45,8.7-1.08,13.99.08,1.19.38,5.37,1.98,5.51ZM192.99,589.47c-2.29-.12-1.79-.37-2.01,1.48-.91,7.77-.75,19.13.1,26.93.11.98.43,3.76,1.91,3.59v-32ZM184.99,590.48h-1.99s-.17,1.78-.17,1.78l-1.86-.28,1.03,12.48,1.98-8.99c.27,2.89-1.04,8.31,2,9.99l1-14.99-1.49,2.01-.5-2Z"/>
      <path d="M176.12,390.35c-2.42-1.52-2.85-36.75-3.13-42.36-1.9-37.18-2.56-74.55-1.97-111.99,9.14-10.92,18.69-22.15,28.46-32.54,2.62-2.78,6.81-8.37,7.56-1.53,5.29,47.93,2.78,98.89.91,147.01-.26,6.66,1.14,17.13.02,23.02-1.06,5.56-27.79,20.95-31.85,18.4ZM195.99,228.48c-3.19-.02-4.88,3.75-5.02,6.47l1.03,81.52c.38.43,9.33-3.81,8.09-6.48-2.07-27.12-4.39-54.3-4.1-81.51ZM190.99,316.97v-17c0-.6-1.39-2.25-1.01-3.49h-.99s0,19.99,0,19.99c-1.76.22-.95-2.26-1-3.49-.32-7.77-.18-16.24-.04-24.05.18-9.87,1.75-20.51,2.1-29.91.3-8.15-.33-16.4-.07-24.55-1.54,1.23-5.2,3.97-6.04,5.45-2.1,3.65-.69,17.7-.9,23.1-.42,10.81-1.83,22.11-2.08,32.92-.2,8.67.24,17.37.04,26.04.23,1.93,9.16-4.34,10.01-5ZM193.99,331.97c-.07,8.83.05,17.68,0,26.5l1.99-5.99.02,9.99c1.35-.17,1.75-1.36,1.95-2.54,1.14-6.74-.22-17.59,0-25,.17-5.75,4.22-12.66-4.78-4.81-.1.92.83,1.58.83,1.85ZM183.99,357.97c-.4-7.46.29-15.04,0-22.5h1v21.5c0,.35.84,4.71,1.03,5.99.27,1.84-1.02,2.96,1.97,2.51-1.37-9.43-2.39-18.94-2-28.5.05-1.23-.76-3.71,1-3.49v14.5l2.99,10.49-.98-23.99,2.98,13.99c.43-6.19-1.67-11.93,0-17.99l-10.06,3.6,2.07,31.39c2.89-1.15.06-6.26,0-7.5Z"/>
      <path d="M143.99,640.47c-2.79.42-1.87-.48-2-2.48-1.31-19.82.59-40.28,1.04-59.97.7-30.58,1.3-60.99,2.46-91.55l.54,46.55c-.04,2.36-1.03,4.55-1.08,6.92-.68,31.55.5,64.97-1.87,96.15-.12,1.56.8,2.88.91,4.38Z"/>
      <rect x="158.99" y="442.47" width="1" height="96"/>
      <path d="M213.99,369.97c-.49,3.9-3.14,10.21-5.5,13.5-.84-3.43,3.5-9.67,3.5-12.5v-29c0-.6,1.39-2.25,1.01-3.49h.99c-.89,9.93,1.21,21.82,0,31.49Z"/>
      <rect x="216.99" y="589.47" width="1" height="60"/>
      <path d="M187.98,679.47c-1,2.95,2.79,3.78,3.03,4.71.38,1.51-.27,3.65.22,5.56.91,3.56,2.69,6.95,2.76,10.73-2.93.5-1.62-.7-2.12-2.33-.86-2.78-1.47-5.79-1.89-8.67l-1.21,3.68c.68,2.68-1.42.58-1.56-.4-.64-4.48.69-9.1-1.21-13.28h1.99Z"/>
      <path d="M229.99,114.48l-1.94,10.39-2.86.74c-.76.71-.97,10.04-4.19,10.87-.04-6.47,3.47-14.23,6.56-19.97.71-1.32-.32-2.57,2.42-2.02Z"/>
      <rect x="225.99" y="135.47" width="1" height="39"/>
      <rect x="165.99" y="240.47" width="1" height="30"/>
      <rect x="240.99" y="508.47" width="1" height="27"/>
      <path d="M269.98,644.47c-3.66-1.53-1.01-5.52-.94-8.46.27-11.7.72-23.33.96-35.03l1.98-8.51-2,51.99Z"/>
      <path d="M258.98,663.47c-1.74.23-.94-2.27-.99-3.48-.58-14.11,1.54-28.37,1.5-42.52,1.73,15.37-.55,30.69-.51,46.01Z"/>
      <path d="M452.99,75.48c-.66,1.94-5.77,1.02-7.37.86-15.35-1.49-31.38-6.72-46.93-7.91-1.4-3.74-4.18-.14-7.7-.98l2.99-1.98-11.99-.02,3.99-1.98c-4.35-.73-7.65-1.27-11.99,0l-.55-3.07-48.46-6.94,1.01-1.98-8-2,134.99,26Z"/>
      <path d="M352.61,48.89c21.88,7.49,42.32,10.87,66.12,14.34,21.24,3.1,42.06,8.99,63.26,12.25l-1.99,1.98,12.99.02-4.99,1.98,28.99,7-198.99-42c-.25-1.7,2.32-.99,3.49-1.01,12.32-.14,19.56,1.48,31.11,5.44Z"/>
      <path d="M642.99,109.48c.21,1.86-2.1.82-3.2.7-13.01-1.41-25.73-7.17-38.81-7.11l-13.98-4.59c5.12-1.41,10.36,2.56,14.18,3.32,1.71.34,3.32-.43,4.98-.09,12.28,2.52,24.39,5.98,36.83,7.77Z"/>
      <path d="M488.99,85.48c.25,1.72-2.36,1.06-3.47.98-4.78-.35-9.96-2.04-14.86-2.15l-22.65-4.83c13.85.83,27.29,4.15,40.99,6Z"/>
      <polygon points="655.99 115.48 651.75 116.22 626 109.48 655.99 115.48"/>
      <rect x="327.25" y="447.96" width="1.8" height="22.79" transform="translate(-216 309.08) rotate(-39.02)"/>
      <path d="M564.99,118.48c0,1.9-4.2,1-5.37.87-13.98-1.54-35.71-5.8-49.16-9.83-1.34-.4-3.11-.08-3.46-2.03l57.99,11Z"/>
      <path d="M675.99,135.48c-.01,1.82-4.29,1.06-5.48.98-14.93-1.05-29.89-4.95-44.84-6.16l-12.66-2.82,62.99,8Z"/>
      <rect x="415.99" y="200.47" width="1" height="63"/>
      <path d="M420.98,339.47l-1.98-3.99-.51,5.01c-2.74-3.45,1.22-6.15,1.27-6.51,2.05-14.05-1.47-31.15.73-45.51,1.01,17,2.32,33.99.49,51.01Z"/>
      <path d="M406.98,337.47c-2.15-.68-1.66-1.14-1.31-2.75.98-4.51,4.51-10.06,4.87-15.2l2.44-17.05c.66,12.13-2.32,23.65-6,34.99Z"/>
      <path d="M618.99,220.48l1,23.99c-1.85-.34-1.52-1.58-1.7-2.89-.86-6.33.2-12.95-1.07-19.85-.36-1.93.08-1.21,1.78-1.26Z"/>
      <rect x="185.99" y="276.47" width="1" height="42"/>
    </g>
  </g>
</svg>