<?xml version="1.0" encoding="UTF-8"?>
<svg id="Layer_2" data-name="Layer 2" xmlns="http://www.w3.org/2000/svg" xmlns:xlink="http://www.w3.org/1999/xlink" viewBox="0 0 780.31 807.65">
  <defs>
    <style>
      .cls-1 {
        fill: #77df42;
      }

      .cls-2 {
        opacity: .41;
      }

      .cls-2, .cls-3, .cls-4 {
        fill: #adfe7d;
      }

      .cls-5 {
        fill: none;
      }

      .cls-3 {
        opacity: .65;
      }

      .cls-4 {
        opacity: .4;
      }

      .cls-6 {
        fill: #67d133;
      }

      .cls-7 {
        fill: #abff83;
      }

      .cls-8 {
        clip-path: url(#clippath);
      }

      .cls-9 {
        fill: #81ed4c;
      }
    </style>
    <clipPath id="clippath">
      <path class="cls-5" d="M0,0h760.58s44.39,166.65,0,257.74l-348.86,241.34-124.23,308.57H0V0Z"/>
    </clipPath>
  </defs>
  <g id="_Шар_1" data-name="Шар 1">
    <g class="cls-8">
      <g>
        <path class="cls-9" d="M532.03,14.18c50.94,3.4,42.56,44.03,80.61,58.54,18.62,7.12,18.84,22.04,111.24,2.54,34.09-7.2,39.08,47.86,72.28,17.01.86-.79,1.07-2.01,1.47-3.22,6.13-20.03,3.76-53.19,17.15-70.27,4.33-5.5,10.19-9.4,16.17-11.36,13.26-4.48,27.27.12,27.62,16.02.94,45.57-82.41,102.01-25.59,91.76,1.07-.2,2.17-.52,3.27-.99.81-.29,1.67-.71,2.55-1.17,14.51-7.7,33.01-32.73,48.76-50.51,4.47-5.11,10.53-10.78,17.24-15.84.04-.01.08-.03.1-.07,1.03-.78,2.12-1.53,3.16-2.28,18.59-12.92,41.46-20.32,53.6-.43,15.79,25.86-172.83,125.83-215.93,137.39-42.53,11.35-30.12-12.14-67.12-5.01-105.74,20.46-14.4,94.48-74.32,96.65-44.27,1.57-74.76-33.37-95.85-35.88-.01-.03-.05-.02-.05-.02-7.39-.87-13.65,2.29-18.92,12.48-17.39,33.76,49.42,110.67,10.96,99.16-77.43-23.22-64.86,26.76-101.54,21.32-44.34-6.57-27.75-57.59-61-26.4-33.3,31.18-114.69,137.63-59.05,192.45,14.21,13.98,25.44,27.54,33.58,39.92,23.95,36.09,21.68,61.65-10.32,55.87-17.1-3.09-21.04-13.75-24.48-24.12-5.29-15.65-9.49-30.59-56.45-17.46-68.49,19.15-35.08,87.58-81.34,143.03-.04.01-.07.06-.09.11-6.44,7.66-14.39,15.11-24.35,22.11-81.92,57.63-100.96,13.88-64.44-10.84,36.56-24.74,90.84-47.97,63.09-85.14-27.72-37.22-108.31-64.15-43.9-89.12,64.45-24.95,96.4-98.45,87.12-140.67-9.25-42.27-22.25-65.21,8.78-97.72,37.69-39.43,67.06-82.6,45.69-94.69-35.63-20.21-149.14,3.66-137.75-34.76,1.97-6.72,5.48-11.56,10.2-14.98,33.44-24.17,128.3,25.43,177.9,13.36,178.05-43.46-48.42-75.47,144.03-111.03,25.66-4.74,39.92-14.6,49.9-25.7-.01-.03.03-.05.03-.05,3.56-3.97,6.59-8.08,9.37-12.17.12-.15.2-.29.32-.45,13.88-20.47,22.49-40.28,66.26-37.38Z"/>
        <path class="cls-1" d="M908.08,44.33c18.59-12.92,41.46-20.32,53.6-.43,15.79,25.86-172.83,125.83-215.93,137.39-17.84,4.75-26.05,3.4-32.26.71q-.05-.02-.1-.04c-5.69-2.47-9.76-6.04-18.28-6.88-4.21-.41-9.45-.17-16.48,1.2-105.74,20.46-14.4,94.48-74.32,96.65-.6.03-1.17.01-1.79.01-6.77.13-13.21-.64-19.32-1.96-.24-.06-.48-.12-.72-.19-1.41-.36-2.83-.75-4.25-1.18-10.32-2.85-19.79-7.21-28.34-11.88-.21-.11-.43-.22-.59-.31-8.72-4.83-16.58-9.84-23.7-13.73-.11-.07-.22-.14-.34-.21,0,0-.01-.03-.05-.02-6.15-3.38-11.73-5.82-16.76-6.42-.01-.03-.05-.02-.05-.02-7.39-.87-13.65,2.29-18.92,12.48-17.39,33.76,49.42,110.67,10.96,99.16-77.43-23.22-64.86,26.76-101.54,21.32-3.87-.57-7.25-1.47-10.25-2.65-.04.01-.05-.02-.06-.05-31.49-12.2-20.34-52.15-50.68-23.7-33.3,31.18-114.69,137.63-59.05,192.45,14.21,13.98,25.44,27.54,33.58,39.92,25.37,38.72,15.34,48.55,9.43,53.91-1.09.98-3.25,1.9-6.06,2.5-11.97,2.47-35.6-.57-38.18-24.66-5.29-15.65-9.49-30.59-56.45-17.46-68.49,19.15-35.08,87.58-81.34,143.03-.04.01-.07.06-.09.11-14.46,13.11-23.1,20.96-24.23,21.95,2.46-3.02,41.61-52.8,44.96-136.86,3.46-86.8,83.68-32.78,68.98-94.59-14.71-61.84-52.12-120.05,10.27-157.26,62.39-37.21,90.89-34.36,104.33-74.54,13.44-40.18,56.29,25.83,79.39,8.9,23.1-16.93,39.32-11.28,34.27-49.51-5.1-38.25-.57-52.35,49.1-41.99,49.66,10.32,86.8,24.12,98.81-10.86,12.02-34.98,6.63-71.21,53.47-58.73,46.84,12.47,57.48,24.15,106.64,17.66,49.21-6.47,157.92-57.5,170.64-91,12.68-33.48-28.18-21.14-28.18-21.14,0,0-.05-.39-.13-1.1Z"/>
        <path class="cls-7" d="M600.51,271.98c27.89.76-1.2-18.06-23.48-22.61-22.28-4.55-20.48,21.41,23.48,22.61Z"/>
        <path class="cls-7" d="M182,225.47c-10.91,3.62-78.34-.08-89.34-6.78-11-6.69-8.07-18.85-.37-24.25,7.7-5.4,6.83,12.28,18.61,16.83,35.09,13.55,74.91,12.93,71.1,14.2Z"/>
        <path class="cls-7" d="M298.56,627.36c17.61,7.1,20.55-.37,4.98-11.17-15.57-10.8-18.97-29.53-29.3-32.28-10.33-2.76,5.72,10.66,7.24,19.01,1.52,8.35,3.96,19.15,17.09,24.44Z"/>
        <path class="cls-7" d="M38.29,774.73c-8.82-7.25.01-18.77,17.87-29.03,17.86-10.26,40.64-23.31,48.29-31.98,7.65-8.68-2.59,12.45-13.74,18.28-11.14,5.82-33.03,21.89-36.6,28.43-5.89,10.79,14,8.49,8.73,13.15-7.05,6.25-18.11,6.46-24.56,1.16Z"/>
        <path class="cls-6" d="M549.89,257.74c8.54,4.44,18.46,8.92,28.34,11.88-10.32-2.85-19.79-7.21-28.34-11.88Z"/>
        <path class="cls-6" d="M582.48,270.8c-1.41-.36-2.83-.75-4.25-1.18,1.42.39,2.8.85,4.25,1.18Z"/>
        <path class="cls-6" d="M278.87,536.05c14.21,13.98,25.44,27.54,33.58,39.92,25.37,38.72,15.34,48.55,9.43,53.91-1.09.98-3.25,1.9-6.06,2.5l-.28-.16c1.96-.26,21.04-5.45.35-26.9-20.69-21.45,3.53-26.82-53.87-62.33-13.82-8.58-20.4-74.7-18.9-103.04,1.5-28.34,18.61-40.85,52.31-68.59,33.7-27.74,52.42-80.4,68.17-61.62,13.31,15.85,10.14,48.08,24.98,57.55-31.49-12.2-20.34-52.15-50.68-23.7-33.3,31.18-114.69,137.63-59.05,192.45Z"/>
        <path class="cls-6" d="M500.45,348.67c-77.43-23.22-64.86,26.76-101.54,21.32,26.89-.34,26.51-16.56,33.85-29.16,7.3-12.58,56.67,7.56,63.25,2.37,6.57-5.23-47.15-63.47-28.17-95.33,18.96-31.81,49.51-8.94,57.38-4.4-6.15-3.38-11.73-5.82-16.76-6.42-.01-.03-.05-.02-.05-.02-7.39-.87-13.65,2.29-18.92,12.48-17.39,33.76,49.42,110.67,10.96,99.16Z"/>
        <path class="cls-6" d="M678.62,176.29c-105.74,20.46-14.4,94.48-74.32,96.65-.6.03-1.17.01-1.79.01,7.94-.66,14.94-3.57,20.02-9.89,10.5-13.17-26.27-40.51,1.52-76.1,19.16-24.53,50.77-18.62,71.05-11.87-4.21-.41-9.45-.17-16.48,1.2Z"/>
        <path class="cls-6" d="M532.03,14.18c50.94,3.4,42.56,44.03,80.61,58.54,18.62,7.12,18.84,22.04,111.24,2.54,34.09-7.2,39.08,47.86,72.28,17.01,0,0-11.44,30.23-41.19,14.72-29.75-15.52-9.39-36.2-90.11-16.51-80.72,19.65-83.45-53.42-123.03-66.09-39.61-12.66-54.67-2.33-76.07,27.18,13.88-20.47,22.49-40.28,66.26-37.38Z"/>
        <path class="cls-7" d="M772.42,111.35c-5.12-4.28-18.63-1.85-27.55-11.21-15.72-16.48,5.42,14.69,14.68,15.81,15.17,1.83,12.87-4.6,12.87-4.6Z"/>
        <path class="cls-7" d="M726.48,89.21c8.94,3.13,10.47.99,3.26-3.28-7.21-4.27-14.78-.75-3.26,3.28Z"/>
        <path class="cls-7" d="M616.81,95.7c23.72,10.11,26.38,1.5,11.49-2.74-14.89-4.23-23.26-2.28-11.49,2.74Z"/>
        <path class="cls-7" d="M600.73,85.63c6.14,5.64,11.42,4.09,3.78-1.62-7.65-5.71-7.49-1.8-3.78,1.62Z"/>
        <path class="cls-1" d="M456.05,64.22c-.99,1.39-3.95,21.61-51.45,33.45-47.91,11.95-79.14,15.65-74.64,35.83,4.46,20.19,31.45,46.3-45.79,71.2-77.19,24.89-164.56-37.66-199.96-17.11,33.44-24.17,128.3,25.43,177.9,13.36,178.05-43.46-48.42-75.47,144.03-111.03,25.66-4.74,39.92-14.6,49.9-25.7Z"/>
        <path class="cls-3" d="M85.74,618.63c26.09,22.47,53.68,58.02,43.18,17.73-11.43-43.82,33.82-95.06,16.76-94.52-16.84.53-18.27,20.36-31.57,33.89-17.13,17.42-42.75,30.52-28.37,42.9Z"/>
        <path class="cls-2" d="M159.17,397.35c-21.83-7.96-6-39.56,13.01-56.46,19.02-16.9,39.49-44.44,51.54-67.28,12.05-22.84,28.91-11.93,25.24,8.32-3.67,20.25-24.23,56.33-38.04,57.48-13.81,1.15-35.9,5.31-37.3,22-1.4,16.69-3.99,39.75-14.45,35.94Z"/>
        <path class="cls-4" d="M357.12,173.66c-2.19-31.27-41.53-35.42-15.07-49.86,26.46-14.44,75.32-21.93,57.98-4.53-17.34,17.4-28.11,18.76-26.1,29.25,2.01,10.49-16.02,36.31-16.81,25.13Z"/>
        <path class="cls-4" d="M465.08,81.58c25.14-27.86,47.63-41.86,69.76-37.31,22.13,4.55,17.02,48.72-9.57,35.8-26.59-12.92-43.23,15.22-56.86,13.98-13.62-1.25-11.63-3.27-3.33-12.47Z"/>
      </g>
    </g>
  </g>
</svg>