<?xml version="1.0" encoding="UTF-8"?>
<svg id="Layer_2" data-name="Layer 2" xmlns="http://www.w3.org/2000/svg" viewBox="0 0 583.23 790.99">
  <defs>
    <style>
      .cls-1 {
        fill: #12100f;
      }
    </style>
  </defs>
  <g id="Layer_1-2" data-name="Layer 1">
    <g>
      <path class="cls-1" d="M262.23,743c-.04-.14-.25-.3-.47-.47.15.19.3.38.47.47Z"/>
      <path class="cls-1" d="M261.76,742.53c-.16-.2-.34-.42-.53-.53.02.15.28.34.53.53Z"/>
      <path class="cls-1" d="M341.22,790.99c.51-2.01,1.81-3.2,2.06-5.45.08-.75.13-1.54.19-2.33-1.22-.1-2.44-.21-3.65-.33l1.41,8.1Z"/>
      <path class="cls-1" d="M223.24,769.99l.06-.33s-.03,0-.04-.01c0,.11-.01.22-.02.34Z"/>
      <path class="cls-1" d="M362.46,184.45c.54-.04,1.13-.17,1.76-.44l-1.76.44Z"/>
      <rect class="cls-1" x="217.24" y="322.01" width="1.99" height="2.99"/>
      <path class="cls-1" d="M205.32,143.64l-.59-.62c.19.21.39.42.59.62Z"/>
      <path class="cls-1" d="M544.24,598.51c.48-10.38,4.03-20.96,1-31.52l1.98,1.02c1.1-3.84-2.8-2.99-3.99-6,2.89.45,3.29-.82,4.36-3.11,5.83-12.59,11.05-30.21,15.34-43.67,6.49-20.37,11.28-45.29,16.27-65.92,1.71-7.06,2.22-47.52,4.03-49.31-1.52-21.34-2.02-42.69-4-64-.06-.66.07-1.34,0-2-.19-1.83-.76-3.87-1-6-.07-.65.08-1.35,0-2-.28-2.37-.67-4.65-1-7-.93-6.6-1.64-12.44-3-19-.07-.32.07-.68,0-1-.52-2.43-1.35-5.53-2-8-11.66-44.22-32.97-92.3-62.49-127.01-2.23-2.62-11.52-13.25-13.59-14.41-3.06-1.72-15.26-2.49-18.29-1.45-.97.33-1.02.88-1.45,1.55-3.77,5.8,3.46,6.93,1.81-.69.47-.48,11.94.68,13.34,1.02,1.03.24-.16,3.08,3.66.99.19,1.59-.24,3.49,0,5,.96,5.76,5.03,12.07,8.17,17.33,1.04,1.74,6.52,8.66,5.82,9.64-.1.14-1.91.33-3.05,1.47-.78.78-.7,2.28-.94,2.56h3c-1.51,7.07,6.51,12.23-.02,18.49-1.75,1.68-4.9.42-3.99,4.5-1.16.19-1.52-1.94-1.99-2.99-2.5,2.85-7.64,4.73-8,0-.14,0-.23-1.26-.99-1,.11,1.25-.7,7.71-1.02,8.01-.29.28-6.33-1.88-7.99-1-.2,1.88,2.6.58,3.57,1.91.85,1.16.32,3.6.43,5.08l-10-.99c-.6,1.92,2.34,2.96,2.01,4.48-.3,1.39-4,.71-3.01,3.51l5.99-.99c.14-.27,3.43-2.64,4.44-4.07,1.55-2.19,2.03-5.04,4.08-6.93,2.86-1.42-.42,7.18,1.49,7.99,1.24,1.16,7.23,6.57,7.5,7,2.39,3.91-3.02,15.52-7.01,17.99-2.29.7-1.72-3.51-1.55-4.44.26-1.42,3.41.5,3.06-1.54-1.32-.07-2.67.06-3.99-.01.29,1.4-1.53,8.88-2.25,9.75-.6.72-2.97,1.02-4.28,2.22-3.29,3.01-2.96,7.51-7.47,9.03-.22.07-.13,1.81-1.48.02-1.92-2.54-1.01-4.83-1.78-7.26-.51-1.6-2.04-2.62-2.52-4.48-1.83-6.98-1.6-9.22,3.2-13.92.7-.69,2.04-1.87,2.58-2.36l-5.51-1.98c3.97,7.64-3.16,3.64-3.48,3.98-.71.77,2.33,4.08,0,3.99-4.2-5.98-9.98-11.56-16.01-15.5l4.99-.48-10.98-6.03c-.03-2.09,3.82-.62,4.81-.3,4.91,1.56,9.69,4.68,14.18,6.31-.69-3.86-2.83-2.46-4.88-3.57-3.49-1.89-7.8-4.01-11.06-6.03-1.3-.81-1.56-1.99-2.06-2.39-.39-.31-2.03.57-2.01-.5-.07-.8,1.53-.62,2.01-.5-.19-.1-2.98-2.33-3-2.99l3.99-1c-4.15-1.56-7.94-4.36-10.99-7.52l5.48.52c2.01-1.78-.49-1.76-1.39-2.85-.28-.33.12-1.66-.7-2.25-1.56-1.14-5.2.28-4.38-2.92,4.82,1.29,10.72,3.26,15.6,3.89,1.06.14,4.56.94,4.38-.88-11.03-2.3-22.53-4.38-30.99-12l9,.49c-4.1-3.23-8.9-5.42-13.99-6.52l4.99-1-2-3.99c-2.51-.4-7.71-1.07-9.52-2.98-2.21-2.33,1.4-1.9,1.49-2.04,1.75-2.46-2.08-1.23-1.96-2.98,7.25,1.54,14.03,4.61,20.99,6.99-4.4-3.89-9.43-5.63-15-7-.89-.22-3.03.53-3.01-.5.14-.87,2.36-.64,3.01-.5v-1c-.2-.02-1.11-.95-2.42-1.04-2.84-.2-5.74.22-8.57.03l1.99-1.98c-2.44-1.11-6.74-.17-7.99-3l6-1.01c-.09,0,.19-.77-1.49-.97-2.5-.3-6.35,1.03-7.51-2.02,3.11,1.5,4.24-1.89,4.69-1.99,2.07-.47,5.93,1.5,5.31-2.02-3.95-.28-8.03.21-11.99-.01l4.68-6.01c1.92-.16,7.1,2.8,8.31.03l-17.99-3.02c1.08-4.35,9.45.57,8.99-3.98l-7.99.98,3.99-2.98-5-.02,2.99-2.98-4.99-2,4.99-.5-6.99-3.01,3.99-1.48-7.99-1.02,7-2.98c-2.16,0-5.24.55-6-2l2.99-1-10.99-2.02c-.19-1.34,3.97-1.7,4.78-1.73,1.89-.07,3.87,1.31,5.21.25-1.69-2.08-4.59-1.3-6.78-2.19-1.3-.53-2.22-3.91-5.21-3.33l3.99-1.98-6.74-1.78.75-1.23c-.27-.18.28-3.5-5-2.01-.58-1.93.91-1.88,1-1.99,2.04-2.7,2.81-2,6-2-.04-.96.34-1.4,1-2,9.55-8.71,14.09-10.12,18.72-23.78,5.76-17.01,6.4-27.59-5.72-41.22.04.66-.07,1.34,0,2,.25.16,1.08-.43,2.07.64,1.61,1.73,3.66,7.74,3.92,10.36l-5.43-8.1c-.64-.89-.46-1.9-.56-2.9-9.23-5.74-13.73-12.67-26.62-13.9-8.51-.81-13.88,3.48-21.38,5.89,3.17-4.41,9.09-4.6,12.99-7.99-15.32,1.44-16.35,12.01-25.97,16.57-1.87.89-5.85,2.03-8.12,2.84-2.18.78-4.63.89-6.43,2.57l1.51-3.97c-.96-.73-6.42,3.31-6.06-2.39.07-1.15,3.5-.78,2.57-2.6-2.34,1.03-10,6.37-11.95,5.95-2.99-.65-.35-4.78-.56-4.96-.41-.34-5.21,1.07-7,.99-2.6-.11-2.35-1.78-3-2-.92-.32-2.83.23-4.01,0l1.01-1.98-6.52.97,2.51-4.97c-1.8-2.18-10.67.97-12.5,2.98-1.48-.51.5-1.89.5-2,.05-.9-.8-.83-1-1-.81.67-2.3.61-3,1-1.68.93-3.98,4.33-4,0-2.29.44-5.54-.31-8,0l-.49-2.98c-2.97,3.02-7.35,4.25-11.51,3.98-.59-1.27,4.24-1.12,1.99-2.99-.46-.38-2.76.47-3.51.96l.52-3.96c-3.94-.64-11.65,6.05-14.88,2.85-.23-.23,1.39-1.32.39-1.84l-12.51,6.97,8.99-12.22,6.99-7.28c-3.23.23-5.16,3.91-6.98,5.51-1.04.91-1.47,1.29-3,1-4.26,7.09-6.71,8.15-13,13-.29.22.59,1.61-.51,2.01-2.76.99-.74-1.17-.49-2.01-.66.34-3.59,1.3-4,.99l.5-4.99c-.64,1.83-9.89,10.46-10.51,7.49-.53-2.55,3.53-.54,1.51-3.48-4.35.99-8.95,8.36-11.54,9.52-1.65.74-3.06-.63-3.97-.53-1.06.12-1.9-.03-2,0-.95.25-2.54,2.38-2.99,2-.37-.31.82-2.39-1-1.99-.67,3.86-8.29,10.33-7.02,1.99l-3.98,3.99v-5.99s-2.52,7-2.52,7l-1.48-7-2.02,7.99c-1.98.22-.05-2.47-1.98-1.98-1.74,4.65-11.1,2.99-9.02,10.99-2.13.35.29-3.96-2.47-2.98-1.23.43-3.96,3.75-5.52,3.99-.38.06-1.45-.8-2-1-.21.65-.69,1.34-1,2-1.06,2.28-2.03,4.62-3.64,1.01h-1.36c-.53,1.41-.46,1.46-.48,2.96-.97-1.4-3.31.08-3.45-.02-1.4-1.05-8.22-28.48-10.05-33.46-1.97-5.34-4.16-12.49-8.01-16.48,5.87,17.13,13.41,33.98,15.98,52-8.55-4.88-8.69-18.72-14.98-26,1.53,10.07,8.81,18.87,9.98,28.99-2.66.55-1.72-.68-2.48-1.97-3.07-5.22-4.75-11.66-9.02-16.01-.43,4.16,9.4,17.06,7.41,19.87-.28.4-3.38,1.18-4.21.98-2.46-.59-2.52-5.26-5.69-4.87-.27,2.14,1.88,3.1,2.56,4.93,1.58,4.22-.48,2.36-2.18,3.42-.52.32-.22,1.79-1.85,1.76-2.73-.06-11.38-5.94-15.53-7.11-1.82-.51-4.69-1.37-6,0,6.72,2.04,12.57,5.39,19,8.01l-2,3.99c1.09-.19,5.71-.8,6-1,.09-.06-.41-1.72.66-2.02,3.69-1.01,7.88.78,7.34,5.02,3.41.45,1.42,1.23,2,2,.64.84,2.67.87,2,3-.76.19-2.77-.22-3,0-.18.17.58,2.25-.6,3.08-6.77,4.78-14.88.6-13.4-8.08-1.26-.45-1.88.99-1.99,1l-1.94,7.59c-.89.69-5.35-.41-7.06-.59v2c5.57-.41,8.05-.73,9,5.48l-15,1.52v2c2.83-.05,6.99,1.22,8.37,1.05.5-.06,4.49-6.44,6.62,1.47-4.48,1.58-9.38,1.45-13.99,2.49v1c1.14-.22,12.73-1.22,13.39-1.07,1.21.27.4,1.72.61,2.07,1.51,2.49,3.26,3.62,1,7,3.62.49,3.13,1.97,0,2.01.58,2.53,2.32-1.11,3,2.99.1.61-.17,1.8,0,2,.1.12,1.8-.22,2.03.49,1.13,3.59-1.81,1.93-2.75,2.75-.56.49-.16,1.66-.27,1.75,2.35-2.01,3.56-1.91,6-1,2.12.79,2.61-.34,2,4h1c3.77-3.63,4.3,3.31,5.17,3.85.99.63,3.45-.18,3.84.15.29.23-.29,2.4,0,3,.05.1.66-.06,1,0,.6.11,1.8-.2,2,0,.18.18-.07,1.4,0,2,.55.1,1.89-.16,2,0,2.67-.46,2.04.63,2,3,.76,1.03-.58,17.05.01,19.99l2-18.99c3.61.08,4.12,3.05,3.99,6h1c2.44-2.79,5.28,4.35,5.01,6.99,1.78.17,1.12-3.56,3.48-2.99,1.35.33,2.42,5.06,4.02,5.99l1.48-1.99c-.57,1.41,1.88,2.08,1.88,2.46,0,.69-1.46,2.86-.85,3.52.33.36,2.23-1.45,2.88-.96.27.2.36,1.8,1.09,2.48,1.14,1.08,4.9,4.48,5.48,5.5.86,1.53.35,3.69.56,3.99.08.11,1.52-.81,2.32-.68,6.42,1.01,4.58,4.3,4.68,9.67l3.98-1.99-.97,6.51,3.97-3.51c-5.03,11.99-1.61,6.27,3.99.99-1.08,4.19-1.14,10.04,4.01,10v1.48s-3,3.02-3,3.02c3.59,1.16,2.38,2.03,0,3.49,2.18,7.16,4.17.65,8.99,2.49l-11.99,6.51v1c.24-.19,6.19-.66,5.99.99-2.7,1.59-5.83,1.8-8.69,2.82-.98.35-3.45.91-3.29,2.19,1.91-.11,6.91-2.61,7.99,0l-10.99,3.51c2.27,2.24,6.52-.22,9.52-.48,1.09-.09,3.72-.74,3.47.97-6.19,3.46-8.3,6.56-15.99,8.01.9,2.12,3.01,2.04,4.74,2.78,2.6,1.11,1.79,1.5-.26,1.26-2.32-.27-6.09-2.01-7.48-4.04-2.04.33-6.96-.35-8,1.99l3.96.54,7.03,4.46-4.99.02,1.99,1.98c-7.59,2.76-10.59-5.17-14.94-6.55-6.41-2.03-6.63,3.99-11.26-4.77-.55-1.04-.62-3.33-.91-3.56-.71-.57-3.05.37-3.77-.25-.28-.24.39-3.66-3.86-4.59-7.8-1.7-5.03.51-12.25-4.27-.6,1.98-6.17-.43-7.34-1.2-1.87-1.24-1.54-2.7-1.66-2.8-2.96-2.35-8.51-4.45-8.01-8-2.81,3.24-7.45,1.6-8.98,5.51,1.46,1.45,2.75-1.24,4.54-1.52,4.99-.78,3.53,2.33,5.05,3.92,2.05,2.15,4.74,2.69,5.95,6.05,1.91,5.28-1.37,3.83-1.55,4.05-1.31,1.65.38,2.68-3,3-2.15.2-11.59-.44-12,0-.46.49,1.22,6.71-2.99,6-.47-3.31-.77-7.98-2.01-11-1.3-.08-3.6-1.06-4.72-1.75-3.43-2.13-.13-1.92.31-2.61,4.11-6.37,3.72-2.65,7.16-4.93.51-.33.13-1.59.25-1.71h-6c0-1.91-.87-8.45,2.38-7.91.27.04,4.47,2.68,4.62,2.91,9.94,1.37-2.1-8.73-5.3-7.9-2.2.57-9.75,9.14-11.67,11.43C27.45,249.55,4.44,317.96,4.15,376.5c-.02,4.25,2.97,10.27.08,14.5,2.36.88,1.86,2.13,2,4,.05.66,0,1.34,0,2,0,1.68-1.01,2.84-1,3,1.49,22.09,6.61,55.33,12,74,12.24,42.38,28.3,84.18,54.82,119.71,1.29,3.72-1.58,3.11-1.79,3.97-1.12,4.53,1.65,12.98,1.98,18.32.04.66-.04,1.34,0,2,.07,1.33-.08,2.67,0,4,.83,14.16,2.54,24.8,3.99,38.51.77,7.29.08,15.98,1.01,23.49.37-.03,1.72,1.43,1.99,1-.15-10.89,1.67-21.57.99-32.48-.45-7.35-3-16.43-3.05-24-.01-2.2,1.01-16.85,1.51-17.57.93-1.34,3.11-.92,4.56-.93-2.45,4.38,1.01,4.08,1.06,4.51.22,1.99-1.67,3.17-1.67,3.97,0,1.64,2.42,7.03,5.05,6.47,1.51-.32,1.01-3.89,3.06-2.95,1.46.66,12.79,15.64,13.11,17.97.36,2.63-1.61,3.89-1.64,6.49-.02,1.81,1.06,3.84,1.08,5.99.11,9.84-.18,19.71-.04,29.54l2.82-1.67,1.16-10.32c-.74,4.3.86,8.42,1.05,12.45.84,17.28.2,34.57-.98,51.81,1.75.8,3.47,1.62,5.17,2.47,2.58-26.67.1-55.91,1.73-82.28.08-1.31.75-8.16,1.04-8.46.68-.7,2.51.23,3.45,1.05,4.17,3.61,8.85,10.41,13.49,14.53,1.29,1.15,3.51,1.25,3.84,1.64.72.85,3.03,12.33,3.2,14.3.6,6.92-.41,14.49.02,21.48,2.52,3.32,1.99-7.36,2.2-8.29.42-1.83,2.21-3.24,2.75-5.25.87-3.26.86-7.14,1.94-10.07,1.67-4.53,5.81,1.85,7.33,2.86,5.58,3.72,17.06,7.44,15.79,14.74,1.65.43.48-1.73,1.6-2.03,3.96-1.06,5.22,4.72,9.12,5.83,3.03.87,1.93-1.64,2.9-1.84,4.11-.85,6.28,2.97,8.86,5.05,2.54,2.05,5.24.37,4.51,5.99,1.1.27,2.76-.19,4,0-2.58,4.44,2.64,2.46,3.02,6.99,1.68.26.95-2.52,2.54-2.89.32-.08,6.2.69,6.43.91.35.34-.2,3.86.02,4.99l3.99-1,.02,4,2.98-4c.41,18.27,5.39,36.23,4.04,54.66.01,0,.03,0,.04.01l2.92-16.18c.7-10.46-2.26-21.33,4.52-30.48.61.71,1.51,3.88,1.39,4.44-.21,1.07-4.87,1.93-2.89,3.55.47.38,2.73-1.26,2.99-1l1.02,6,1.48-4.99c.81,2.95,6.29,4.83,6.85,6.21,2.4,5.96.61,14.56,1.67,20.78l2.43-14.06,2.06-3.92c1.97.89,1.07,4.29,1.63,4.85.21.21,5,1.72,5.55,1.83,1.21.25,2.56-.82,3.68-.74.39.03,3,4.77,6.64,3.05.52-5.28.3-4.17-3-6,.35,1.29.33,2.39-1.38,1.9-2.91-.84-7.27-2.56-9.12-4.9l-1.49,1.99.99-3.99c-8.9,2.82-6.02-4.25,2.28-2.78,4.05.72,2.37,3.92,4.22,4.77l1.49-1.99c-.78,5.15.81,3.29,2.01,4-.73-5.4,2.57-1.01,2.99-4.48l-3.98-4.51c9.76,2.86,19.14-3.94,15,10.99,1.31-.38,3.08-5.35,4.2-5.79,1.23-.49,4.05,1.31,5.79.8,1.04,2.05-4.03,2.81-2,4.99.99,1.07,3.99-3.06,4.99-1.99,2.03,2.18-3.04,2.94-2,4.99,5.07-.57,4.62,1.51,6.43,4.63.14.25,3.17,1.69,1.57,3.37-.28.3-6.27-2.02-5.99,3,4.99,1.76,5-2.57,7.5-3.05,3.21-.61,1.92,2.22,3.97,2.16,2.62-.08,3.11-1.76,4.05-2.09.89-.32.34,1.93,1.48,1.98-.51-2.3,1.42-3.54-2.99-3.01v-.98c.92-.19,3.76.24,3.99-.01,2.14-2.27-2-4.3-2.01-4.58-.06-1.29,1.54-3.62,1.02-5.43l2.49,2.02c.76-.17.01-3.24,3-2.01,1.01.42,3.52,8.01,3.5-1l2,3c3.32.89,1.5-2.59,2-3,2.88-2.37,2.98,2.55,3.17,2.77.4.46,8.29,2.94,6.84-.76l-3-.99c5.76-3.78,4.65-.25,5.65,0,1.53.37,4.25-.52,5.22.12,2.24,1.48,4.47,27.2,2.22,31.27l1.48,8.5c1.22.11,2.43.22,3.65.33.55-8.08-.26-17.61.7-25.67,7.52-1.2-.69-4.08,1.08-6.54.29-.41,7.76,2.32,9.99.99.67-2.75-1.42-1.33-2.17-3.35-.75-2.01-.88-4.51-.81-6.64,2.11,0,.31,3.27,1.2,4.8.46.8,6.28,3.55,7.79,3.21l-3.99.98v3c5.17-2.81,5.86.74,6.66.98,3.53,1.06,4.67-2,3.2-3.89-.49-.63-3.75,1.16-2.86-2.09,5.94,2.65,4.98-1.49,6.55-1.9,3.88-1,6.95,6.55,8.44,4.89-1.02-5.97,5.55.2,4.01-7.01,3.71-.83.65,3.87,3.64,4.91,1.01.35,7.12-.63,7.36-.92,1.67-2.05-1.74-3.21-2.03-3.7-1.85-3.07,1.31-8.3,1.85-11.01.3-1.49-.85-2.75-.82-3.69,0-.28,3.46-1.35,2-4.59h2.99c-.51,8.63.7,17.98.01,26.52-.6,7.46-.97,14.88-1.26,22.34.79-.25,1.58-.5,2.38-.74.93-8.54,2.34-17.26,4.82-24.67l1.05-8.44,1.59,31.73c2,.1,4.08.46,6.07.53l-1.15-57.28c.99,2.39.58,5.31,3.01,7l7.48-5.99c3.53,17.13,2.48,34.62,2.11,52.11,1.74-.94,3.45-1.86,5.13-2.67l.27-16.46c2.55.11,2.94,3.89,3.22,5.78.44,2.96.77,5.92,1.04,8.89,1.42-.41,2.82-.66,4.23-.66,1.77.1,3.53.15,5.28.17-.6-18.16-1.19-36.71.07-52.53.16-2.05,1.96-11.07,3.29-11.51,1.48-.49,4.96.17,5.36-.14,2.2-1.71-3.96-2.13-1.99-3.99.41-.39,4.36,1.64,4.99.99,1.99-2.06-3.57-3.56-1.99-4.99.63-.57,3.82,1.06,4.99.99,1.06-3.15-3.93-1.71-3.97-3.5-.06-2.3,5.98-.49,5.97-2.49-2.6-.17-10.69-2.97-5.48-5,4.19-1.64.75,3.86,4.49,2.99l.13-3.87c2,.73,4.78-4.31,5.87-3.13.48.53-1.62,3.53-.87,4.83.57,1,6.9,3.02,7.88,2.15-2.21-4.59,3.21-8.33,1-12.99,1.97.69,4.25-.85,5.58-.91.21-.01,1.57,3.77,3.42,1.9.11-.11.55-2.85-.68-3.01-2.9-.38-3.81,1.32-3.31-2.98l4.51.97-1.02-2.96c2.9.6,2.56,3.81,3.44,4.52,4.04,3.23,2.44-2.94,4.01-4.09,2.64-1.92,10.62-.13,11.01-.52.25-.25-.34-2.02.26-2.71.25-.29,4.13-.9,5.28-4.27,1.21-3.56-.88-.99,2.25-5.27.46-.63.29-5.21,2.3-2.11,1.25,1.93-.29,6.17,2.96,5.43-2.23-7.2.29-10.75,1.46-16.85.39-2-2.2-5.9,1.54-5.14.31,7.81-.38,15.73-.04,23.54.49,11.04.61,21.53.61,32.31,0,6.14-.3,15.99.43,21.67.19,1.46.76,3.1,2,1.48.62-10.76.38-21.73,1.02-32.48.24-4.07,1.85-8.85,2.03-12.97.41-9.72-1.85-45.99,1.18-51.82,1.38-2.64,4.56-2.38,3.76-.24-.58,1.58-3.5,3.87-2.98,6.51,1.55.76,6.57-1.3,6.98-1,2.64,1.9-.43,23.4-.61,27.67-.08,1.98,1.37,9.86-.29,10.88-1.74,1.06-4.96-.58-5.08,1.45,7.11-.7,5.09,4.29,6.2,8.3.96,3.44,6.11,5.01,6.7,9.26,2.16,15.4,2.65,31.57,2.84,47.78,1.8-1.19,3.59-2.38,5.39-3.57-.45-20.45-.93-40.89-1.18-61.3-.26-20.9-1.93-41.98-.95-62.95ZM106.24,121c.25-2.22.83-6.83,2.98-8,.2,2.84.05,6.6-2.98,8ZM104.24,97c-.01,3.64,3.29,6.85-2.01,6v-9c2.12.67,5.31,2.21,7.46,1.98,1.39-.15,4.42-3.01,5.53-1.98,2.52,2.33-8.16,7.36-10.99,3ZM74.23,199.01l-1.99,1.99c-.29-2.09-.1-2.28,1.99-1.99ZM68.21,209.99c-3.86,3.4.2-8.49,3.01-7.99.42,1.35-2.56,7.59-3.01,7.99ZM376.24,234.99c-1.09-1.09.9-3.08,1.99-1.99s-.9,3.08-1.99,1.99ZM367.23,212c-.08.79.42,2.03-.51,2.01-1.4.29-4.49-2.96-5.49-2.01-3.37,3.18,15.34,8.83,12.99,10.99-.71.65-14.96-7.71-17.99-7.01l3.01-1c-2.57-4.93.83-2.2,1.99-2.99.09-.06-.32-2.05.56-2.07.7-.02,3.92,1.6,5.44,2.07.07-.65-.06-1.34,0-2,3.83,1.48,8.77,1.86,10.99,5.99-3.96-1.14-6.88-2.71-11-3.99ZM375.23,231.01c.64.59.59,2.13-1.42,1.92-4.04-.42-7.84-2.45-10.56-5.45,1.69.53,11.52,3.1,11.98,3.52ZM373.24,218.99c-1.09-1.09.9-3.08,1.99-1.99s-.9,3.08-1.99,1.99ZM368.25,214.49c.86.09,3.84.38,3.98.52,2.18,2.04-2.48,2.9-3.98-.52ZM352.72,203.01c-9.89-3.87-20.64-3.03-30.98-5.03-1.45-.28-3.1.01-3.51-1.98,8.73-1.18,16.32,2.96,24.99,1.98l-4.99-3.49c1.74-1.54,4.2,1.22,6.17,1.83,3,.93,7.32.33,8.82,3.67l-5.99-.98c.2,2.52,7.92.44,5.48,4ZM329.24,234c-.28-.29.27-2.68,0-3-.3-.34-6.75-.85-8.01-3.5,2.1.12,6.23,1.56,8.01,2.5-.13-1.18.44-2.68-.22-3.78-.27-.45-5.04-2.1-1.3-2.22,3.25,1.38,7.01,7.4,8.81,8.69,2.45,1.76,8.61,1.19,10.68,4.81-3.82.58-10.15-4.22-12.56-4.53-1.67-.22-5.13,1.31-5.42,1.02ZM332.74,242.98c-1.52-.69-7.34-4.92-5.51-6.97,1.33-1.5,5.9,5.58,5.51,6.97ZM307.23,273.01l-5.98,7.99c-1.24-2.32,4.49-9.47,5.98-7.99ZM300.78,276.05c-.91,1.08-1.91,2.26-3.54,1.94l7.5-8.97c-1.33,2.12-2.4,5.17-3.96,7.03ZM296.24,271c.59-6.26,6.4-9.45,11.97-10.51-3.23,5.11-5.71,8.84-11.97,10.51ZM294.74,271.02l-1.52,6.98c-4.79.37.04-6.08,1.52-6.98ZM293.74,267.02c.36,1.21-1.19,3.14-2.02,3.96-.36-1.21,1.19-3.14,2.02-3.96ZM279.25,269.51c4.05-3.75,11.49-7.05,16.98-5.5l-16.98,5.5ZM288.24,277v-5.99s1.98,0,1.98,0c.05,2.19.55,5.22-1.98,5.99ZM235.24,104.01c4.41.23,11.78-.47,14.99,2.98l-6.25-.24-8.75-2.74ZM237.73,125v-1c.65.33.65.67,0,1ZM216.24,138.01c3.96-.2,4.8,3.51,6.94,5.54,1.06,1,7.47,5.02,6.04,6.45-.79.79-2.96-1.07-3.4-2.09l-9.59-9.9ZM220.21,158.51l-.47.47-2.49-2.49.47-.47,2.49,2.49ZM212.24,115l6.99,2.01c-.32,2.04-8.26.62-6.99-2.01ZM215.73,154v-1c.65.33.65.67,0,1ZM214.22,152.99l-8.9-9.35c-.21-.2-.41-.41-.59-.62l.59.62c3.01,2.94,8.02,4.95,8.9,9.35ZM229.24,151.01c.62.06,1.79-.16,1.98,0,.16.13.94,3.23,1.01,3.99-1.15-.63-3.93-3.05-2.99-3.99ZM222.98,119.74c-1.06-.42-2.98-.29-2.75-1.73,2.77-.25,5.25.85,7.78,1.71,2.33.79,6.62,2.41,8.22,4.27-4.33-.97-9.12-2.62-13.25-4.25ZM231.24,94.01c1.52-.23,8.39,1.41,8.99,2.01,2.25,2.23-3.34,2.23-4.3,1.96l-4.7-3.97ZM247.29,127.53c.92.67,0,1.95.24,2.25,2.59,3.39,21.18,9.45,24.7,14.2-11.66-3.66-23.66-11.1-33-18.98,2.07.19,6.54,1.42,8.06,2.52ZM253.24,124.01c2.19-.06,5.22-.56,5.99,1.98l-5.99-1v-.98ZM264.22,127.99c-1.52-.26-4.27-.53-3.99-1.98.34-.15,3.84.86,3.99,1,.14.13-.05.66,0,.98ZM265.73,129v-1c.65.33.65.67,0,1ZM285.22,163.02c4.27,5.06-8.87-2.19-9.75-2.71-.91-.54-1.12-1.63-2.04-2.22-1.96-1.26-6.83-2.19-8.2-5.07,3.06,1.23,18.69,8.47,19.99,10.01ZM278.23,104.01c2.96.48,8.28.05,10,2.98-3.05-.14-8.21.01-10-2.98ZM286.73,166v-1c.65.33.65.67,0,1ZM292.76,256.03l-4.53.96c3.97-3.58,10.75-5.51,15.99-5.98l-11.46,5.02ZM291.73,140l4.5,4.98c-3.24,1.68-5.93-.39-7.99-2.98,1.04-.09,3.37,1.5,3.99.98.41-.34-1.91-2.54-.5-2.99ZM304.23,158.99l-10-3.98c3.53-.36,7.96.79,10,3.98ZM297.73,151v-1c.65.33.65.67,0,1ZM299.73,152v-1c.65.33.65.67,0,1ZM301.72,152.02c.55.64,2.01,1.3,1.02,1.96-.48-.59-2.01-1.26-1.02-1.96ZM312.21,211.51c-6.44-1.11-6.85-9.57-13.97-9.52-.15-1.97,3.12-.93,3.97-.47,3.08,1.66,8.05,6.93,10,9.99ZM304.73,155v-1c.65.33.65.67,0,1ZM323.74,185.99c3.89,1.83,9.91-.11,12.49,4-6.1-.95.11,2.82-3.51,3.03l-4.69-2.31-14.79-3.69,11.99.98-1.48-2ZM311.75,260.99c.34-.07.44,1.64.71,1.78,1.15.6,2.02-1.15,2.75-.28-2.85,4.81-9.75-.22-3.46-1.5ZM311.73,267v-1c.65.33.65.67,0,1ZM309.21,272c-.09.08-2.11.37-1.98-.49,1.67-.98,1.46-3.74,2.99-3.5.13.31-.86,3.85-1.01,3.99ZM305.24,213.01c1.8-1.98,5.44,7.46,4.99,7.99-1.72,2.03-5.6-7.32-4.99-7.99ZM313.23,259.99c-.55-.55,1.44-5.2,1.99-3.99v3.99s-1.99,0-1.99,0ZM306.24,155.01c.49-.46,11.16,4.4,11.99,5.98-1.41-.24-14.4-3.74-11.99-5.98ZM310.71,272.94c.34-.67,1.05-3.71,2.51-1.94.41.5-4.02,13.04-6,10.98,1.8-2.79,1.99-6.12,3.48-9.05ZM313.24,268.99c-.68-.35.59-1.7,1.99-.98.68.35-.59,1.7-1.99.98ZM315.24,264.99v-.98c1.81.29,6.77-3.25,7.99-2.01,2.42,2.48-3.88,4.05-5.03,5.46-1.71,2.1-.91,5.47-2.95,6.53-.6-2.79,3.88-9.83,0-9.01ZM337.24,225.01l8.99,5h-2.5s-6.48-5-6.48-5ZM336.73,194v-1c.65.33.65.67,0,1ZM339.23,190.01c.68.35-.59,1.7-1.99.98-.68-.35.59-1.7,1.99-.98ZM340.24,191.01l5.99,2-2.91,1.9-3.09-3.91ZM331.22,182.51l6.01-.52-4.99-2.98c1.98.09,4.03-.17,6-.01l-6-2.99c4.24.58,10.49.9,14.44,2.04,1.7.49,2.88.78,2.55,2.94-3.98-.09-6.88-1.66-11-1.99,1.36,2.25,5.48,2.55,7.99,3.01l-3.99,1c3.8,6.84,13,2.9,18,7.98-10.71-.25-18.87-6.35-29.01-8.48ZM346.82,173.91c-1.84-.28-4.89-.84-5.59-2.9l12.99,2c-.57,1.85-5.99,1.11-7.4.9ZM357.22,179.01c.09,1.54-5.94.03-6.23-.08-1.02-.39-.93-1.66-1.45-1.93-1.55-.79-4.26-.34-4.3-1.99,4.76-.97,7.91,2.58,11.99,4ZM359.73,210v-1c.65.33.65.67,0,1ZM378.23,191.99l-30.99-8h6.99s-.48-1.97-.48-1.97l-2.51-1.01c2.45-.36,4.42.66,6.61,1.41.5.17,2.05,2.21,4.61,2.04l1.76-.44c-.63.27-1.22.4-1.76.44l-2.23.56c-1.8,1.32,12.56,4.34,13.77,4.72,1.21.39,4.22.75,4.23,2.25ZM367.23,182.5c.81,1.34,4.03,1.61,3.51,3.48l-12.5-4.99c-.2-1.68,4.07-1.11,4.99-.99,0-.47-.02-.79.51-.98.51.06.44.97.49.98,1.22.2,2.74-.23,4.01.48,2.73,2.19-1.5,1.2-1.01,2.01ZM374.22,178.01l-4.25.75-9.74-3.75,13.99,3ZM391.18,53.93c.52-.46-.98-3.75,1.53-2.92,3.28,1.09,3.12,10.02,2.18,12.69-.08.23-1.02.31-1.28.72-.55.88-.08,2.4-.96,2.65-3,.85-13.45.66-14.42-3.58-.23-.99,2.49.26,2-1.47-2.6-.9-9.86-1.58-8.98-5.45.67-2.96,5.28-.16,7.27-.69,1.39-.37,2.12-2.61,4.27-2.9,2.05-.28,7.27,1.98,8.41.96ZM374.85,68c-.87,3.55-3.89,7.58-4.43,9.76-.56,2.22,1.55,7.42-1.36,9.13-.64.38-2.2-.77-3.16-.57-2.56.53-4.86,2.16-7.66,1.68l3.62-5.87c6.04-5.66,11.15-11.27,9.39-20.12l4.99,1.01c.4,1.74-1.49.63-1.85,1.08-.12.15.89,2.2.47,3.92ZM388.73,50c.65.33.65.67,0,1v-1ZM343.56,36.98c.76.18.59,1.95,1.32,2.05,3.57.47,10.68-1.32,13.87-1.13,2.36.14,3.71,2.12,6.02,2.21,1.43.06,2.16-3.65,5.47-2.12l-1-2.98c1.49.13,3.46-.48,4.76.25.71.4,4.17,5.54,4.96,5.75,2.32.62,6.01-.87,8.27.49l-20.63,6.41c-12.07-.79-20.01-11.65-33.37-5.92,1.39-3.34,7.01-5.81,10.33-5.01ZM334.26,30.53l2.96-2.53c.43,1.83-.62,2.77-1.35,4.14-1.13,2.13-9.05,15.15-11.64,12.85-1.01-.9,9.24-12.65,10.03-14.46ZM323.22,95c-.28-2.11.33-7.24,2.58-7.93,3.53-1.08,2.75,2.61,3.69,3.69.51.59,1.57.11,1.74.24,9.83-9.4,15.08-12.87,9-27-.23-.54-2.98-1.04-1.89-4.37.12-.37,5.21-5.39,5.59-5.5,4.2-1.24,5.05,2.26,7.05,3.93.67.56,2.22.44,3,1.19.96.93,2.5,5.21,3.27,6.75l-.03-6.48,1.99-.5c5.54,8.15,10.63,10.7,2.02,18.99-8,7.7-19.78,6.25-28,14,.21.19-.53,1.91.58,2.02.71.07,2.1-.96,3.64-.78,2.01.24,5.97,1.9,7.21,1.8.77-.06.03-2.27,1.93-1.96,3.32.53,2.26,3.04,2.84,3.65,2.37,2.46,13.91-.61,16.32-2.69,2.79-2.4,1.87-6.1,7.47-4.03-1.67-3.58,3.11-13.29,6.99-7.99.19-7.02,5.05-11.02,12.01-9.99-3.46,16.72-27.98,28.36-43.52,28.05-6.96-.14-14.99-3.51-20.22-3.82-2.24-.13-4.23,1.24-6.53.61-3.82-1.06-3.98-6.78,1.27-1.84ZM324.24,114.99c-.68-.35.59-1.7,1.99-.98.68.35-.59,1.7-1.99.98ZM323.23,113.99c-4.05-.06-9.49-1.56-12-4.98l12,4.98ZM313.21,39.49c-1.86,1.46-3.26,4.62-5.97,4.5,1.27-1.6,4.08-3.74,5.97-4.5ZM318.25,133.48c5.84,2.69,12.08,4.95,17.98,7.53l-5.27-.24-33.72-15.76c7.82-.11,14.21,5.33,21.01,8.47ZM298.22,100.01l-8.44,2.01-2.55-1.53v-2.48c4.13-.87,7.13,1.54,10.99,2ZM289.23,31.01c1.09,1.09-.9,3.08-1.99,1.99s.9-3.08,1.99-1.99ZM283.21,36.49c-2.52,2.86-6.64,2.51-9.97,3.5,1.92-2.82,6.89-3.07,9.97-3.5ZM276.2,53.48c4.63-.91,9.39-1.6,14.03-2.48.48,2.88-.63,1.65-2.31,2.13-4.69,1.33-9.81,2.12-14.68,1.86-.26-1.44,1.89-1.3,2.96-1.51ZM283.23,108c.76,3.02-2.37,2.13-4.39,1.88-3.78-.48-10.81-2.24-14.86-3.14-4.29-.95-8.71-1.99-12.98-3.03-1-.24-3.01-.3-2.77-1.71,4.97-.21,9.97,2.13,14.57,2.91,2.84.48,5.99-.3,8.86.14,3.6.55,7.25,3.96,11.57,2.94ZM271.23,96.01c.47,2.86-.6,1.66-2.31,2.13-4.57,1.26-9,.86-13.68.85,3.31-3.38,11.39-2.39,15.99-2.98ZM255.18,37.49c2.81-1.52,6.78-3.54,10.04-3.48l-5.81,3.89c-1.38.07-5.48,2.68-6.18,2.1-1.81-1.5,1.32-2.16,1.95-2.5ZM265.26,75.55c.18,12.02-10.83,13.78-19.87,16.26-.25-3.21-4.51-1.37-7.46-2.02-.7-.15-8.25-4.32-9.06-4.94-3.66-2.78-5.23-8.81-10.64-8.87.05-2.02,5.14-1,5.99-.48.8.49,3.92,5.17,6.09,6.91,16.73,13.33,40.52,3.68,30.1-19.1-4.89-10.69-16.93-12.69-27.18-9.31-.46-2.71.5-1.72,2.18-2.27,17.22-5.59,29.59,6.82,29.85,23.82ZM220.24,69.99c-.6-.66,3.43-9.85,5.98-9.99.29,1.56-4.33,11.81-5.98,9.99ZM226.24,70c3.46-.92,6.25,9.23,3.49,8.98-1.36-.13-4.61-7.03-3.49-8.98ZM219.25,62.51l1.49-1.49c1.01.9-1.51,2.54-1.49,1.49ZM241.23,59.48c5.36,2.7-.56,10.08-4.86,7.39-2.51-1.58-.94-10.31,4.86-7.39ZM231.02,34.33c1.58-.92,2.08-4.3,6.22-1.82.18,2.03-5.45,3.61-5.78,4.66-.26.84,1.33,3.19.76,3.82-.12.13-2.1.12-3.48,1-2.27,1.45-6.87,6.51-8.03,7.01-1.18.51-1.99-.3-1.48-1.48,1.29-2.92,6.05-5.16,6.99-8.51-2.82,1.07-5.32,2.1-7.98,3.51,2.13-2.67,4.87-3.57,7.98-4.51.66-3.13,1.75-1.9,4.79-3.67ZM228.23,30.01c-2.34,4.32-7.96,4.23-11.99,5.98,2.48-3.68,7.69-5.27,11.99-5.98ZM218.74,64.02c.11.81-1.42,4.71-1.63,4.85-4.56,3.06-2.47-4.23,1.63-4.85ZM233.23,98.01c1.62,1.23-.02,1.81-1.48,2-9.4,1.2-22.62-2.19-32.53-1.5,11.24-3.28,22.56.26,34-.49ZM195.23,90.99c.6-2.26,3.13-2.13,5-1.98,1.24.58-3.61,2.49-5,1.98ZM207.73,48c.65.33.65.67,0,1v-1ZM210.22,81.01c-.57,1.38-4.13,2.39-5.58,2.91-3.49,1.26-7.75,2.46-11.42,3.07,3.8-4.45,11.58-4.61,16.99-5.98ZM193.74,58c.87-.13.56,1.92.49,1.99-1.16,1.14-3.22-.43-.49-1.99ZM192.73,74v-1c.65.33.65.67,0,1ZM202.74,61.02c-1.36,2.5-3.11,5.4-4.92,7.57-.39.47-4.41,5.29-4.58,2.42l9.5-9.99ZM203.73,60v-1c.65.33.65.67,0,1ZM201.73,29c.65.33.65.67,0,1v-1ZM204.23,44.01c2.25,1.81-3.15,1.78-1.99,3.48,1.11,1.9,4.83.73,3.98,3-.34.91-10.3,7.18-10.98,6.51l5.99-8.98c-5.82-.34-5.57,2.29-8.5,5.98-2.32-3.71,9.51-11.59,11.5-9.99ZM192.74,41.02l-.52,2.97c-1.97.18-1.01-1.96.52-2.97ZM190.24,45.01c1.97-.18,1.01,1.96-.52,2.97l.52-2.97ZM188.24,49.01c1.97-.18,1.01,1.96-.52,2.97l.52-2.97ZM186.74,53l.49,2.99h-1.99c-.32-1.47.44-2.08,1.5-2.99ZM184.73,57c.65.33.65.67,0,1v-1ZM180.74,45.02c.5,3.85-.21,6.7-2.86,9.63-.66.73-3.5,2.84-4.63,2.85l7.49-12.49ZM172.73,59c.65.33.65.67,0,1v-1ZM164.73,49c.65.33.65.67,0,1v-1ZM164.22,51l-3,10.99v-4.99s-3.97,2.51-3.97,2.51l6.97-8.51ZM152.73,49c.65.33.65.67,0,1v-1ZM150.74,50.02c-.07,2.02-1.63,4.53-3.02,5.96.07-2.01,1.63-4.52,3.02-5.96ZM147.23,57.01c.6.59-2.56,5.97-2.99,4.99.32-1.69,1.04-6.93,2.99-4.99ZM133.56,96.37c-.52.24-1.07,2.92-4.33,1.62-.34-1.95,2.31-.43,2.93-1.05.33-.34-.46-8.33,6.06-3.42.49,2.52-3.27,2.21-4.66,2.86ZM135.24,89.99l3.01-10.99c1.96-.32.54,2.48.99,3,2.5,2.84.88-4.26,3.99-3,.82,8.91.33,9.55-7.99,10.99ZM148.41,92.26c-1.22,1.4,1.46,3.95-6.18,2.74-.96-3.67,10.54-7.5,10.99-6.99,1.42,4.67-3.57,2.82-4.81,4.25ZM152.24,102.99c-.56-3.98,4.59-6.56,6.99-3.98,1.52,1.64-4.98,5.71-6.99,3.98ZM157.24,111.01c3.26-.6,5.61,1.22,6.99,3.98-1.95-.2-7.54-.96-6.99-3.98ZM168.23,102.99c-1.74-.25-6.22.12-6.98-1.97l6.5-2.99c.76,1.13-2.55,2.69-1.51,3.97.27.34,2.42-.78,1.99.99ZM169.23,97.99c1.24-2.39,5.33-2.99,7.79-3.7,5.36-1.56,11.63-2.81,17.21-3.28.24,1.44-1.73,1.35-2.78,1.69-6.95,2.26-15.06,3.34-22.21,5.29ZM117.72,224.02c.55.64,2.01,1.3,1.02,1.96-.48-.59-2.01-1.26-1.02-1.96ZM116.23,223.99c-5.83.23-9.54,1.18-12-4.98.51-.41,11.37,2.76,12,4.98ZM97.23,231.99c.39-2.07,4.48-6.91,6.79-5.74.18.09.14,1.58.88,1.74,1.64.37,3.62-.16,5.34.02-1.32,3.83-4.92.73-7.27,1.18-1.76.34-3.35,3.32-5.73,2.8ZM153.24,367v-3.99s1.98,0,1.98,0c.26,1.87,0,3.46-1.98,3.99ZM153.24,360.01c.35-.68,1.7.59.98,1.99-.35.68-1.7-.59-.98-1.99ZM157.73,369v-1c.65.33.65.67,0,1ZM159.73,370v-1c.65.33.65.67,0,1ZM255.24,734.99c-.68-.35.59-1.7,1.99-.98.68.35-.59,1.7-1.99.98ZM253.56,306.34c-2.09,1.3-5.75,6.6-7.98,7.5-1.18.48-3.09.46-2.34-1.33,6.6-6.16,16.23-11.37,16-21.51-1.43.44-4.13-1.04-5.04-.5-1.79,1.05-6.71,7.73-10.03,9.93-3.9,2.58-7.5,2.82-10.48,4.52-1.43.81-6.73,6.33-7.46,8.04-2.14.49-2.58-.47-1.84-2.34.21-.53,6.55-7.97,7.32-8.68,5.34-4.98,14.81-4.82,15.54-12.95-2-1.57-14.27,5.46-16.79,6.7-5.02,2.48-8.54,2.02-12.2,7.29-.53-2.43.41-2.54,1.64-3.85,1.39-1.48,7.61-6.43,9.42-7.58,3.08-1.96,9.72-3.77,11.49-5.51,1.14-1.12,2.18-4.21,1.43-5.06-.35-.4-9.87,1.74-10.36,1.96-1.33.59.01,2.73-1.22,3.1-3.28.99-9.51.72-13.63,2.03-.71.23-.78,1.44-1.59,1.81-1.26.57-3.52.26-4.63.99-1.1.73-.35,2.84-.58,3.1-1.9,2.24-1.62-2.96-3.48-1.99-1.82.94-4.09,7.58-5.49,9.51,1.84.13,2.25-2.17,4.53-2.53,2.3-.37,4.29.62,6.44,1.03l-4.99,4.49c5.17,1.3-1.59,2.94-1.99,3.53-.22.31,2.75,6.72,3.05,6.95.66.51,12.86-3.21,14.93-3.97-2.24,2.65-5.65,5.17-5.99,8.99l10.99-1.98c-.52,2.23-4.38,1.44-5.97,2.52-.22.15-2.88,4.13-3.03,4.47-1.12,2.52,2.2,4.17-4.99,2l.99,7.99c-5.43-2.95-4.34,4.97-10.98,1-1.03,3.73,2.17,2.81,2.98,4.99-3.18-1.07-5.28-2.82-8.99-1.98.37,2.35,3.99-.6,2.99,2.99l-1.99.99,2.99,1c-6.93.09-6.7,6.26-9.5,11.01-2.75-13.73-5.23-.3-6.5,6.01-2.39.47-8.55-5.31-8.97-5-.14.1-.19,2.11-1.43,3.07-1.27.98-3.95,1.23-5.81,2.24-1.35.73-1.88,2.57-2.47,2.69-4.88,1.01-5.67-3.9-10.3-3l-.99,6c-1.55-9.06,6.03-19.9-.61-27.44l1.6-20.54c-2.75-.46-1.77.53-2.17,2.36-1.36,6.25.19,15.39-.83,21.63,1.08.32,2.5.05,2.92,1.63.1.37-.76,6.99-.95,7.67-.31,1.08-3.26.05-.97,4.69h-3.99c.62-2.59-.05-6.73.45-9.01.33-1.48,2.15-2.59,2.54-4.98-2.83-.83-5.16.06-8,.01-.1,1.76,3.66.47,1.96,2.97-.11.17-2.96-.49-1.99,2.53.07.22,4.29,1.54.51,2.49-3.44.86-3.8-4.01-6-4.99-3.34-1.48,1.38,4.94-1.98,3.99-2.25-3.48-5.73-5.81-8.51-8.76-.61-.65-.52-2.31-1.23-3.01-1.11-1.11-5.13-.85-4.84-4.67.03-.43,6.09-3.39-.93-5.56,1.1,2.16-1.46,4.48-3,3.01-.2-.19-1.08-5.17-1.06-5.45.06-1.08,2.51.15,2.05-1.54-.86-.12-2.79.58-3.05-.62-1.74-8.11-5.92-28.96-.36-35.31,2.87-3.28,17.74-5.61,22.42-6.08,3.09-.31,8.92,1.47,8-2-9.74,0-20.04.54-29.24,4.26-2.03.82-2.6,3.12-4.75,2.75.43-2.89-.11-3.45-3.01-3.01-.47-.39,2.2-6.55,1.98-8.46-.3-2.69-2.71-3.92-2.03-9.09.77-5.81,6.32-8.03-3.94-4.45l3.01-8.48-3.01-1.5,3-2.01-3.02-.52,1.01-4.48-5.97,1.51,3.97-7.51c-.2-.22-5.16,4.52-4.98.51,1.1-1.17,2.86-2.46,4.5-2.45.53,0,9.53,2.39,10.24,2.69,4.39,1.85,3.09,8.55,7.81,9.27,1.78.27,7.61-.75,9.86-1.1,3.45-.54,6.93-3.53,11.96-1.79.6.21,4.07,8.23,4.63,9.87,1.62-2.72,1.94-.31,2.46,1,2.64,6.56,2.95,10.47,10.52,13.5l-10.98,8.5c.08.29-.06.66,0,1,.4,2.26-1.32,4.97,2.46,4.01.85-.22,5.27-9.73,12.08-10.96,1.51-.27,12.87-1.78,13.76-1.78,8.27.04,7.63,1.83,17.92-.55,1.83-.42,3.15-2.02,2.78,1.28,1.46.04,5.38,1,7,1,6.62,0,5.55-3.44,9.75,3.74.42.71.05,1.94.25,2.26,1.2,1.92,2.96,4.24,5.42,4.02.5-.04,8.36-3.32,9.29-3.81,2.57-1.37,4.04-4.33,7-5,9.65-2.18,21.85,2.98,30.82,1.87,2.22-.28,2.12-3.6,5.42-4.63,1.3-.41,7.06-1.06,7.06.05l-9,2.51h6.99s1,2,1,2c-2.06,4.29-6.44,2-9.99,3-.4,1.81,1.68.63,1.99,1,.49.57-2.49,2.41-2,2.98.32.37,2.39-.82,1.99,1-5.9-.21-8.49,5.5-14,5.01-1.83,1.85,5.37,8.77,1.77,13.76-1.06,1.47-7,2.68-8.44,3.58ZM210.23,308.99c1.56-2.31,3.71-5.44,6.99-4.98,1.59,1.46-4.93,6.08-6.99,4.98ZM282.23,358.99c-.23.21-2.18-.11-2.99,0v-4s2.99,2.51,2.99,2.51c-.1.54.16,1.33,0,1.48ZM332.81,365.08c-2.96,4.13-4.14,9.94-8.38,11.64-1.17.47-2.28.1-3.2.28-3.17.62-5.81,1.6-9.57,1.08-1.92-.27-1.33-2.09-2-2.1-1.17-.02-2.41,1.09-4.62.82-1.72-.21-10.64-1.58-7.8-4.79.67-.76,3.18,1.7,4.55,1.97,1.65.32,3.7,0,5.45.03-6.92-5.15-15.02-1.52-20-10-1.46-1.25-4.6-4.27-3-6,.96-1.03,4.61-.97,3-2.99-.18-.23-2.59-.3-3.39-.92-.89-.69-.32-2.24-.84-2.8-.22-.23-5.17-3.1-5.47-3.17-1.27-.31-3.09,1.1-3.28.88-.27-.31-1.97-7.46-2.01-8-3.06-.35-1.47-1.12-2-2-.94-1.56-1.83-4.1-2.31-4.7-1.48-1.87-6.52-4.08-8.17-6.33-3.93-5.37-.71-4.32,2-5.91,1.75-1.02,9.52-6.78,10.12-6.9,2.44-.48,4.09,2.56,5.35,3.84,6.76.25,13.28,3.02,19.74,4.77,1.62.44,4.13-.17,5.09.4.68.4,1.73,5.41,2.74,6.75,1.28,1.68,4.74,2.57,5.18,3.32.53.89,1.15,7.11,1.24,8.77,4.52-.03,20.15,2.97,24.33,5.21,1.4.75,1.55,2.74,2.31,2.87,1.65.29,9.46-5.2,9.34-1.58-.04,1.06-12.39,12.78-14.4,15.58ZM349.74,239.98c-.48-.59-2.01-1.26-1.02-1.96.55.64,2.01,1.3,1.02,1.96ZM347.24,232c.98.15,5.77,1.78,5.99,2.01,3.07,3.17-7.19,1.32-5.99-2.01ZM411.23,364c.47-.44,4.15,1.39,3-3-2.13-4.17.13-6.93-5.99-5-.66-.63,1.51-3.96,1.99-5,.58-2.13-1.33-2.22-2.99-3l.98,4c-1.02-.32-1.86-.92-2.99-1,.26.58,1.25,1.82,1,1.99-4.85.4-11.44-.12-15.56-2.94-1.44-.99-1.85-3.08-2.78-3.72-1.73-1.2-5.52-2.62-7.67-3.33-.76,2.24-7.86,8.44-10.27,9.23-3.71,1.21-6.13.26-9.23.76-1.11.18,1.15,1.36,0,1.98-.84-.44-1.82-1.66-2.51-1.98-2.02-.92-4.44-.33-5.01-3.49-.64-3.56,5.89.6,5.01,2.49,4.73.79,5.33-3.34,7.48-5.02,1.56-1.22,3.52-1.71,5.02-2.98,1.81-1.52,8.44-9.87,10.49-8,.36.33-.83,3.04-1,3.99,4.31-2.15,9.5.71,13.27,3.02.65.4.78,1.47,1.44,2,.89.71,3,.72,3.27,1.07,1.24,1.63-4.55,4.07,7.02,4.91-1.37-3-2.43-3.97-5-6,3.33-1.43,6.18-9.04,8.51-9.99,2.93-1.2.38,3.17.49,3.99.07.6,2.46,5.96,3,8,1.35,5.12,3.21,8.56,3,14-.23,5.89-1.65,9.67.99,16-2.22-.49-5.51-12.51-4.99-13ZM412.23,713.99c-.27-.33,1.03-8.67,3.99-5.99.46.42-2.36,7.97-3.99,5.99ZM421.22,714h-.98c-.5-4.16,1.48-4.16.98,0ZM424.16,328.56c-1.4-.96-.79-3.17-.93-4.56-3.92,1.53-1.41,8.16-6.01,5.49,1.22-4.6.98-8.83,6.01-10.49.84-.28,2.27.12,3.92-.54,3.21-1.29,6.42-6.57,10.1-5.95-.91,4.81-5.93,20.96-13.08,16.04ZM440.24,208.99c-.68-.35.59-1.7,1.99-.98.68.35-.59,1.7-1.99.98ZM467.24,679.99c-.13-2.96,2.02-5.12,4.99-4.99-1.61,3.87-.2,5.94-4.99,4.99ZM473.17,294.44c-.3,1.98-3.03,7.9-5.31,7.49-.46-.08-6.87-5.55-7.15-5.92-1.81-2.46,4.17-1.16,4.57-1.41.98-.62.68-2.21.95-2.59-4.84,3.49.98-5.8,1.23-6.33.81-1.68-1.54-4.3,2.78-2.16-.45,2.38-1.62,4.56-3.01,6.49,1.2-.48,4.54,1.5,4.99,1l.02-8c1.92-2.06,1.08,10.44.93,11.44ZM476.73,667v-1c.65.33.65.67,0,1ZM473.24,277c-1.28-5.64-8.19-10.3.8-12.78.12,1.73,5.15,3.35,5.18,4.4.12,3.33-3.83,6.15-5.99,8.38ZM514.73,632v-1c.65.33.65.67,0,1ZM530.24,618.01l-1.99-7.45,2.98-1.55c-1.06,2.43,3.47,9.59-.99,9Z"/>
      <path class="cls-1" d="M187.23,699c-9.51,1.81-5.5,5.45-7.13,10.39-.54,1.63-4.38,1.37-2.76,3.53.13.18,1.34-.08,1.65.28,1.05,1.17-7.15,26.32-4.75,30.8,3.7.77,1.32-4.76,2.16-7.36.44-1.36,2.56-1.38,3.18-2.85,2.01-4.76-.32-12.88,3.07-16.88.9-1.06,3.09-1.63,3.36-2.1.77-1.36.27-6.68,1.23-8.78l6.47,5.01c.5,0,2.38-3.98,2.52-5.02-1.85-.45-3.12-1.27-4.75-1.77-4.06-1.22-4.81,1.92-4.25-5.23Z"/>
      <path class="cls-1" d="M502.29,188.56c-.23,1.01,1.35,4.57,2.44,5.44l.5-6.99c-.19.22-2.61.12-2.94,1.56Z"/>
      <path class="cls-1" d="M226.23,38c.95-.29,3.4-1.46,4.01-.5-.77,1.13-2.81,1.04-4.01,1.5.08-.3-.07-.67,0-1Z"/>
      <path class="cls-1" d="M466.23,292c.09-.07.41-1.18,1-2-.1.04-.54,1.34-1,2Z"/>
      <path class="cls-1" d="M363.23,180c.34.04.95-.09,1,0,.4.75-1,1.63-1,0Z"/>
      <path class="cls-1" d="M307.22,760c.3-1.67,1.02-5.17,2.53-5.99,1.86-1.01,1.55,4.21,3.48,1.99,1.25-1.44-5.12-6.35-4.01-8.99-2.26.2-.35,5.15-.99,6-.17.22-1.84-.22-2,0-.44.6.91,4.09-1,4,.29,1.3.29,2.71,1.99,3Z"/>
      <path class="cls-1" d="M419.23,165c-.09-.04.05-.68,0-1,.35.08.97-.1.98.5-.21.39-.59.68-.98.5Z"/>
      <path class="cls-1" d="M329.23,231c-.13-.06.13-.93,0-1,0,.05.91-.15.98.5l-.98.5Z"/>
      <path class="cls-1" d="M207.23,27c-.13.16-.72-.14-1,0,.21-.71-.49-2.05.5-2.01.85.03.64,1.83.5,2.01Z"/>
      <path class="cls-1" d="M447.23,212c.7.35,3.03-.62,3.01.5-.15.86-2.38.63-3.01.5-.07-.01.07-.98,0-1Z"/>
      <path class="cls-1" d="M478.23,174c2.01-.03,4.05-.34,5.98.52,3.55,1.58,2.56,7.53,7.02,6.48-.83.92-.86,4.85-3.89,2.89-1.25-.81-3.7-12.52-10.1-7.9-.51-1.53.98-1.88.99-2Z"/>
      <path class="cls-1" d="M65.23,50l1-1c9.55,3.44,18.98,6.97,26.98,13.51l-27.98-12.51Z"/>
      <path class="cls-1" d="M97.23,28c1.98,4.01,5.2,8.87,6.58,12.92.41,1.19,1.05,2.75-1.07,2.08-.81-.25-7.37-13.24-7.51-15.01h2Z"/>
      <path class="cls-1" d="M459.23,166c4.76,1.51,8,7.15,13.01,6v2.99c-8.24-1.92-12.86-4.09-20.39,1.17-2.22,1.55-.32,2.79-4.62,2.84-2.34.02-3.49.69-3-2,.61-.16,1.56.17,2,0,2.61-1.06,1.31-1.87,1.48-3.98,4.17,2.9,5.87-1.06,8.25-3.04.79-.65,2.67-.57,3.13-1.16.57-.74-.08-2.25.14-2.83Z"/>
      <path class="cls-1" d="M472.23,165c.52,2.94-1.35,2.16-3.26,1.77-2.28-.46-8.65-3.7-9.74-.77-3.06-.97-4.17.89-3-3,5.48-.51,10.56,2.24,16,2Z"/>
      <path class="cls-1" d="M54.23,51c4.72,1.4,10.29,1.82,14.99,4.51l9.01,5.49-24-9v-1Z"/>
      <path class="cls-1" d="M2.23,391c-.72-2.47-2.95-4.67-1.99-8,3.31-.7,2.74,4.09,2.99,6v2h-1Z"/>
      <path class="cls-1" d="M103.23,0c1.41,2.11,2.99,5.38,2.99,8-3.17-1.5-3.19-5.34-3.99-8h1Z"/>
      <path class="cls-1" d="M87.23,218c-.45-.18-1.38.14-2,0-1.68-2.2,6.01-5.39,5-1-1.04.17-2.43-.37-3,1Z"/>
      <path class="cls-1" d="M95.23,107c.02.66-.03,1.33,0,2-2.14.17-5.11,1.09-7,2,1.56-1.01,2.34-.89,2-3l5-1Z"/>
      <path class="cls-1" d="M84.23,218.01c-.53,1.99-2.13,2.24-3.99,1.98v-1.99s3.99,0,3.99,0Z"/>
      <path class="cls-1" d="M107.22,34c-1.99-.53-2.25-2.13-1.98-4,1.99.53,2.25,2.13,1.98,4Z"/>
      <path class="cls-1" d="M100.22,66.01c-.02,2.01-7.22-1.23-5.99-3.01l5.99,3.01Z"/>
      <path class="cls-1" d="M234.23,2c-.72.97-.9,3-3.51,3.98-.39-1.38,1.72-2.99,2.51-3.98h1Z"/>
      <path class="cls-1" d="M103.23,59.01c1.09,1.09-.9,3.08-1.99,1.99s.9-3.08,1.99-1.99Z"/>
      <path class="cls-1" d="M103.23,25c.18.32,1.54.13.99,1.99h-.98c-.1-.65.12-1.42-.01-1.99Z"/>
      <path class="cls-1" d="M81.23,62c-.82-.15-1.7,0-2-1,.86-.1,1.71.05,2,1Z"/>
      <path class="cls-1" d="M98.24,56.99c-.18-1.97,1.96-1.01,2.97.52l-2.97-.52Z"/>
      <path class="cls-1" d="M104.73,28c.65.33.65.67,0,1v-1Z"/>
      <path class="cls-1" d="M104.73,44c.65.33.65.67,0,1v-1Z"/>
      <polygon class="cls-1" points="490.22 728 491.23 717.58 487.24 711 487.49 716.24 490.22 728"/>
      <path class="cls-1" d="M552.52,678.23c.29-.41,1.58-.16,1.67-.28.12-.17-1.97-3.6-2.15-3.71-4.58-2.7-2.72,6.87-1.79,7.76,2.33,2.22,1.82-3.14,2.27-3.77Z"/>
      <path class="cls-1" d="M490.22,698c.13-1.28-.63-7.59-1-8-2.77-2.93-3.09,9.25,1,8Z"/>
      <path class="cls-1" d="M531.24,692.99c3.83.8,1.33-5.8,1.99-7.99-3.83-.8-1.33,5.8-1.99,7.99Z"/>
      <path class="cls-1" d="M488.24,704.01c-2.03,3.25.8,5.36,2.98,7.99.09-2.37-.67-6.74-2.98-7.99Z"/>
      <path class="cls-1" d="M497.2,671.51c.3-9.25-6.41-4.64-2.7-.78.1.11,2.33,1.35,2.7.78Z"/>
      <path class="cls-1" d="M500.22,677c.68-3.37-1.99-1.28-3.77-2.27-.17-.09-.32-3.43-1.72-.73-1.84,3.54,3.84,2.49,5.5,3Z"/>
      <path class="cls-1" d="M470.24,689.99c1.52,1.52,7.05-2.04,0-3.99.13.96-.25,3.75,0,3.99Z"/>
      <path class="cls-1" d="M474.23,693.99l-2.99-2.99c-.33,3.25-.26,3.32,2.99,2.99Z"/>
      <path class="cls-1" d="M324.72,759.98c3.4.86,6.12.82,9.5.03.07,4.01-5.64,4.27-6.01,7.99l-1.5-3c-8.08,1.97.3,3.6,2.5,7.01-.59-4.87,1.21-1.82,1.8-2.26.17-.13,2.76-2.89,2.87-3.07.76-1.34,3.01-7.22,1.37-8.19-.34-.21-7.3-2.26-7.7-2.29-1.15-.1-7.09,2.72-2.83,3.79Z"/>
      <path class="cls-1" d="M146.64,771.84c-.15.04-.29.09-.41.15l.41-.15Z"/>
      <path class="cls-1" d="M279.22,750l-2.99,2.99c4.66-1.84,3.31.53,6.94,1.99l2.05-5.98c-2.81.12-5.7-.19-8.51,0-2,.13-2.89-.79-2.48,2l4.99-.99Z"/>
      <path class="cls-1" d="M328.23,763.99c-2.86-4.13-9.61,0-8-7-3.86-.61-.69,1.9-1.22,2.84-.16.28-3.02.33-1.78,4.16h11Z"/>
      <path class="cls-1" d="M141.24,715c1.33-.26,1.8-5.52,1.79-6.49-.03-2.03-1.22-4.28-.8-6.51-2.29-.13-1.79-.34-2.02,1.51-.47,3.86,1.6,7.61,1.03,11.49Z"/>
      <rect class="cls-1" x="272.24" y="736.01" width="1.99" height="2.99"/>
      <path class="cls-1" d="M322.23,768.01c-1.09-1.09-3.08.9-1.99,1.99s3.08-.9,1.99-1.99Z"/>
      <path class="cls-1" d="M195.22,713.99c.72-1.4-.63-2.67-.98-1.99-.72,1.4.63,2.67.98,1.99Z"/>
      <path class="cls-1" d="M197.73,714v1c.65-.33.65-.67,0-1Z"/>
      <path class="cls-1" d="M483.23,228c-2.73,5.61-1.78,3-5,6l-4-3.99c1.71-.56,4.21,1.14,5.45.85,1.35-.31,1.1-3.62,3.55-2.86Z"/>
      <path class="cls-1" d="M498.23,198c-1.44.28-2.92-.83-3.48-2.01-3.02-6.42,5.27-5.1,3.48,2.01Z"/>
      <path class="cls-1" d="M434.23,174c2.81.92,7.62,4.44,10.37,6.18,1.27.81,3.21.32,2.63,2.82-1.15.15-2.36-.58-3.36-1.13l-9.64-7.87Z"/>
      <path class="cls-1" d="M457.24,197.99c.06-1.84,5.92.84,6.43,1.08,1.43.66,2.59.94,3.54,2.45l-9.97-3.52Z"/>
      <path class="cls-1" d="M477.79,206.46c.57.36.98,1.39,1.85,1.58,1.75,1.42-.79.97-1.5.56-1.8-1.05-4.69-2.92-5.91-4.58,1.85.31,3.98,1.46,5.55,2.45Z"/>
      <path class="cls-1" d="M468.24,202.99c-.18-1.97,1.96-1.01,2.97.52l-2.97-.52Z"/>
      <path class="cls-1" d="M470.23,232.01c.68.35-.59,1.7-1.99.98-.68-.35.59-1.7,1.99-.98Z"/>
      <path class="cls-1" d="M453.23,213.01c.68.35-.59,1.7-1.99.98-.68-.35.59-1.7,1.99-.98Z"/>
      <path class="cls-1" d="M472.73,229c.65.33.65.67,0,1v-1Z"/>
      <path class="cls-1" d="M435.23,172c1.54.51,7.88,1.72,5,3-1.84-.67-4.26-1.11-5-3Z"/>
      <path class="cls-1" d="M154.23,316c3.35-3.46-.98-21.39,1.01-23.99,3.19-.83,1.89,2.93,1.99,4.99.04.66-.02,1.34,0,2,.01.33-.01.67,0,1,.03.67-.02,1.33,0,2,.03,1,0,2,0,3,0,4.36.91,8.62,0,13-.11.15-2.79-1.31-2.99-2Z"/>
      <path class="cls-1" d="M485.23,249.01c.89.97-2.33,4.33-2.98,3.98-.68-2.5-3.04-2.55-2.01-5.99l4.99,2.01Z"/>
      <path class="cls-1" d="M387.23,59c-1.2-.09-5.56-.45-6-1.01-.68-.88,1-3.41,2.49-2.99,1.02.29,1.24,2.63,1.62,2.89.26.18,4.07-1.48,6.3-.95,1.2.29.38,1.48.59,2.06-1.66-.09-3.35.13-5,0Z"/>
      <path class="cls-1" d="M419.23,168.01v.98c-4.16.5-4.16-1.48,0-.98Z"/>
      <path class="cls-1" d="M332.23,189.01v.98c-4.16.5-4.16-1.48,0-.98Z"/>
      <path class="cls-1" d="M340.23,182.01c.68.35-.59,1.7-1.99.98-.68-.35.59-1.7,1.99-.98Z"/>
    </g>
  </g>
</svg>