<?xml version="1.0" encoding="UTF-8"?>
<svg id="Layer_2" data-name="Layer 2" xmlns="http://www.w3.org/2000/svg" viewBox="0 0 845.12 921.23">
  <g id="Layer_1-2" data-name="Layer 1">
    <path d="M636.11,637.38c0,1.55,1.75,2.6,4.93,0,3.18-7.51,7.78-5.28,13.48,0,5.7-1.27,12.51-.09,20.09,0,3.79-3.49,7.78-.71,11.92,0,4.14.01,8.43,7.46,12.84,0,4.41.49,8.93,2.07,13.52-1.91,4.59.03,9.26.7,13.96,1.91,9.4-2.49,18.93.48,28.26,0,2.8,1.1,5.58,4.11,8.34,0,2.76,1.84,5.49,3.41,8.18,0,2.7.37,5.36.68,7.97,2.27,2.62,2.9,5.19-4.32,7.71-2.27,2.52-.74,4.99-3.06,7.39-.45,2.41,2.36,4.75-.65,7.03,1.47,4.55-1.31,8.82-1.09,12.74-1.02,3.92-6.08,7.49,4.96,10.64.66,3.15-3.02,5.88,3.28,8.12-.66,4.48-1.75,7,4.9,7,0,0-1.96-1.75,5.83-4.56,8.09-1.4,4.76-3.07,3.91-4.91,8.71-1.84,5.14-3.86-1.7-5.96,10.58-1.05,5.07-2.13,9.63-3.21,8.13-1.08,1.58-2.18,4.68-3.28,3.82-1.1,6.53-2.19,6.88-3.28,8.61-1.08,4.2-2.16-1.43-3.21,2.47-1.05,1.4-2.08,3.75-3.08,6.86-1,3.28-1.96,9.49-2.88,5.64-1.84.9-3.51,1.26-4.91,6.79-2.8,13.19-4.56.72-4.56,8.09,0,1.86-1.95-7.81-5.47,0-1.76-4.15-3.91-1.65-6.41,0-2.5,6.24-5.34-8.63-8.47,0-3.13-1.1-6.56,1.67-10.24-1.56-3.68-2.83-7.6,2.63-11.73,1.56-4.12,1.95-8.45-2.23-12.92-1.63-4.47.48-9.1,1.51-13.82,1.63-4.73,1.58-9.55-3.13-14.44.91-4.88.6-9.82,2.92-14.76-.91-4.94,3.97-9.89,3.47-14.8.28-4.91,3.01-9.77.66-14.55-.28-4.77-2.14-9.46-2.36-14,0-4.55,2.03-8.95-.31-13.17,0-4.22-.66-8.25-3.2-12.05-2.46-3.8-2.36-7.36,3.46-10.64,2.46-3.28-2.26-6.28-2.11-8.94-1.47-2.66-1.34-5-1.65-6.95,1.47-4.39-1.46-6.87-.89-6.87,0-1.39-7.04-2.78.42-4.16,8.55-1.38,1.52-2.75,2.78-4.12,7.61-1.37,3.12-2.72,2.62-4.07,9.09-1.35,3.95-2.69-2.63-4.03,6.73-1.33.55-2.66,5.4-3.98,8.2-1.32,3.81-2.62,6.56-3.92,7.22,0,.78,1.73,2.75,4.88,0,1.57,2.31,3.5-1.58,5.74.09,2.24,2.23,4.79-.3,7.61-.09,2.82-5.12,5.92-2.55,9.25.22,3.33-4.68,6.89,4.6,10.65-.22,3.76,3.47,7.7.63,11.8-.56s8.35-2.19,12.72.56c8.73,6.62,17.91.12,27.22,0,9.31.76,18.74-2.14,27.99,0,5.55-2.76,11.02-1.78,16.36-2.67s10.54-.89,15.53,2.67c9.98,4.61,19.13,1.94,26.9,0,7.76-3.11,14.14-3.91,18.58,0,4.44,4.73,6.93,1.1,6.93,0,0,.77-1.75,9.92-4.56,8.09-2.81,5.45-6.66,7.65-10.87,19.3-4.21,9.28-8.77,13.05-12.97,23.03-2.1,6.98-4.12,8.73-5.96,10.58-1.84-.78-3.51,9.62-4.91,8.72-2.81-1.54-4.56,12.46-4.56,8.09,0,1.63-3.02-.8-8.31,0-5.29,1.07-12.86-2.13-21.96,0-9.1.54-19.72,3.28-31.13,0-4.28,1.44-8.67-.46-13.13,0-4.46-6.21-8.99-.52-13.55,0-4.56-.93-9.15-.18-13.74.43s-9.16,1.08-13.69-.43c-5.44-.71-10.8,2.79-16.04,0-5.23-3.85-10.33-1.45-15.22,0-4.89,4.88-9.58,3.38-14,.4-2.21-1.9-4.35-2.68-6.41-2.64s-4.05.89-5.95,2.25c-1.9,2.48-3.72,2.4-5.44,4.31-1.72,2.65-3.35-2.8-4.88-2.17-3.06-.68-5.71.38-7.88-2.15-4.35-1.6-6.79,2.36-6.79,0-1.51,3.27-2.99,7.81-4.44,10.03-1.44-.99-2.85,4.78-4.23,6.91-1.37,2.37-2.71,4.52-4,5.71-1.3,6.64-2.55,9.2-3.77,9.49-1.22,5.38-2.39,2.34-3.52,7.93-1.13,4.92-2.22,6.21-3.27,5.3-1.05,7.74-2.05,2.02-3.01,7.08-.96,5.25-1.87,4.57-2.73,4.21-1.73-1.23-3.27,9.49-4.6,11.45-1.34,4.84-2.47,4.93-3.39,4.2-1.84,5.16-2.81,11.93-2.81,5.5,0,4.99-2.85,2.89-7.73,0-2.44,2.21-5.39-5.74-8.75-.2-3.36,1.19-7.12-.26-11.19.2-4.07,3.36-8.44,2.8-13.02-.64-4.58,2.13-9.36.56-14.24.64-2.44-1.2-4.91-.52-7.39-.65s-4.97-.05-7.46.65c-4.98-3.48-9.97-3.64-14.85,0-4.88-.69-9.66.2-14.24-1.26-4.58-.62-8.95-1.1-13.02,1.26-4.07-3.17-7.83-1.74-11.19-2.23s-6.31-.24-8.75,2.23c-4.88,2.75-7.73,3.18-7.73,0,0,1.65-.97-5.73-2.81-5.5-.92.82-2.05-3.54-3.39-6.46-1.34.45-2.88-6.74-4.6-9.19-.86-2.68-1.78-6.68-2.73-5.42-.96-2.07-1.96-1.32-3.01-6.16-1.05.39-2.14-10.92-3.27-6.79-1.13.13-2.31-6.25-3.52-6.15-1.22-4.2-2.47-7.77-3.77-10.34s-2.63-4.15-4-4.36c-2.74-2.7-5.64-11.71-8.67-17.43,0-1-3.82,1.88-10.4,0-3.29,1.22-7.27-2.76-11.81-.33-4.54.98-9.63.93-15.16.33-3.68,1.94-7.55-1.19-11.57.03-4.02-.49-8.19.01-12.47-.03-8.56.87-17.55,3.52-26.68,0-4.56-.26-9.15-1.75-13.74,0-4.59.98-9.16-1.57-13.69,0-2.72-.41-5.42-4.69-8.09-1.37-2.68-.93-5.33,1.01-7.94,1.37-2.62-1.58-5.2-2.12-7.74,0-2.54,1.19-5.04-2.16-7.48,0-4.89-1.75-9.58-2.54-14-2.5s-8.56.92-12.37,2.5c-3.81,1.94-7.27,4.89-10.33,2.25-3.06-1.15-5.71,3.1-7.88-2.25-4.35,1.33-6.79-1-6.79,0,0-4.61-1.75-6.02-4.56-8.09-1.4-8.46-3.07-13.47-4.91-8.76-.92,5.31-1.88-6.87-2.88-2.16-1-4.07-2.03-8.8-3.08-8.38-1.05-1.65-2.13-9.39-3.21-6.74-1.08-4.53-2.18-.62-3.28-7-2.19.08-4.38-5.81-6.49-9.29-2.1-4.69-4.12-.89-5.96-10.25-1.84-6.28-3.51-.8-4.91-9.05-2.81-5.39-4.56-9.05-4.56-8.09,0-.24,2.5,4.08,6.93,0,2.22-1.74,4.92-2.26,8.04-2.08s6.66,2.96,10.54,2.08c3.88-2.65,8.11-1.22,12.62.95,4.51,2.74,9.29-.26,14.28-.95,4.99.74,10.19.74,15.53.56,2.67-.09,5.37-.23,8.1-.35s5.49,1.69,8.26-.21c9.24,2.48,18.68-.53,27.99,0,9.31-2.95,18.49-3.12,27.22,0,4.36,1.96,8.62,2.3,12.72,1.98,4.1-.05,8.05.84,11.8-1.98,3.76,3.03,7.32-2.84,10.65,0,3.33.54,6.43-1.17,9.25,0,5.65-1.12,10.21-.17,13.35,0,3.15.74,4.88-1.05,4.88,0-1.3-4.2-2.61-3.38-3.92-7.66-1.32-4.71-2.64-10.28-3.98-7.76-1.33-.68-2.68-6.89-4.03-7.86-1.35-4.78-2.71-9.72-4.07-7.95-1.37,2.61-2.74-4.94-4.12-7.5-1.38-6.06-2.77-7.98-4.16-8.67,0-1.34-1.82,1.82-5.1,0-1.64,2.9-3.65.55-5.99-.98-2.34-.84-4.99-1.36-7.93.98-5.88-4.95-12.89-1.72-20.67,0-7.78-.81-16.35-1.6-25.34,0-4.5-1.77-9.1,2.62-13.77,0h-14.16c-9.51,1.35-19.11,3.32-28.45,0-9.34,2.85-18.42-4.02-26.9,0-4.94-2.38-9.68-3.04-14.15,0-4.46.73-8.65-2.35-12.5,0-3.85,3.88-7.35,2.91-10.44,3.11s-5.77-.64-7.97-3.11c-4.39-.83-6.87.71-6.87,0,0,2-1.75-3.86-4.56-8.09-1.4-4.23-3.07-6.99-4.91-9.46-1.84-2.16-3.86-3.84-5.96-9.84-2.1-1.5-4.29-8.38-6.49-12.24-2.19-4.67-4.38-10.02-6.49-10.79-2.1-2.94-4.12-7.97-5.96-9.33-1.84-5.96-3.51-5.45-4.91-9.96-2.8-4.94-4.56-8.65-4.56-8.09,0-2.2,1.85,1.19,5.2,0,1.68-2.69,3.73-2.44,6.11-.62,2.38,2.01,5.09,3.6,8.09.62,3,.19,6.28,8.47,9.81-.12,3.53,2.47,7.3.37,11.26.12,1.98-3.35,4.02.38,6.09.36,2.08-2.4,4.2-2.99,6.36-.36,2.16-3.9,4.36,2.3,6.59.94,2.23,1.4,4.5-.22,6.79-.94,2.29,1.22,4.61,1.97,6.95,2.22s4.71,0,7.09-.74c4.76-2.35,9.59-4.91,14.44-1.48,4.85-2.49,9.72-3.6,14.57-3.53s9.68,1.31,14.44,3.53c9.52.78,18.78,5.25,27.42,0,5.04-1.22,9.87,5.93,14.42,1,4.55.33,8.82.33,12.74-1,7.84-.34,14.28,7.11,18.76,0,4.48.25,7,1.85,7,0-2.32-8.22-4.64-10.54-6.97-13.57-2.33-3.21-4.66-10.53-6.98-13.59-2.33-6.75-4.66-10.12-6.99-13.59-1.75-6.04-3.49-5.82-5.23-9.36-1.74-3.46-3.48-3.64-5.22-10.98-1.74-2.27-3.48-4.48-5.21-8.62-1.73-1.09-3.46-5.03-5.19-11.58-1.73-1.28-3.45-4.69-5.16-8.97s-3.43-8.91-5.13-11.02c-3.41-5.44-6.79-15.02-10.15-19.7,0-5.16,1.35-4.23,3.71,0,2.36-.46,5.74,1.66,9.79,0,4.05.43,8.78,1.71,13.84.74,5.06,3.83,10.46-2.5,15.86-.74,5.4,1.5,10.8,3.84,15.86,1.03,5.06-.45,9.79-1.24,13.84-1.03,8.1-.8,13.5.98,13.5,0,1.73.26,3.58,4.79,5.55,7.4,1.96,5.24,4.04.31,6.22,6.83,2.18,4.95,4.46,5.29,6.84,5.19,2.38.83,4.85,4.42,7.41,6.54,2.56-.16,5.21,3.77,7.94,4.64,2.73,1.72,5.54,3.38,8.42,4.22,5.76,8.39,11.8,8.69,18.07,5.6,6.26.42,12.75-.16,19.39,1.95,2.59,1.38,5.16-.88,7.69-1.08,2.54.3,5.05-2.84,7.53-.12,2.48-1.55,4.93,3.52,7.34-1.06,2.41,2.76,4.79-5.52,7.13-2.41,2.34-1.11,4.64-1.26,6.89-1.75s4.47-1.32,6.64-3.81c0-3.9-1.08-1.99-3-5.89-1.92-3.21-4.67-13.41-8.03-15.79-1.68-5.53-3.51-3.29-5.45-11.43-1.95-6.53-4.02-9.51-6.17-11.43-1.08-.54-2.18-3.88-3.3-7.18-1.12-2.28-2.26-3.66-3.41-6.02-1.15.62-2.32-3.37-3.5-4.24-1.18-4.34-2.37-6.88-3.57-9.67-1.2-5.08-2.4-9.77-3.61-12.78s-2.42-4.33-3.64-2.66c-2.43-3.66-4.85-9.35-7.25-13.08-1.2-6.75-2.39-2.26-3.57-9.12-1.18-7.01-2.35-13.02-3.5-4.78-1.15-3.9-2.29-2.82-3.41-5.89-1.12-2.33-2.22-4.89-3.3-7.31-2.16-6.29-4.23-8.21-6.17-12.88-1.95-6.59-3.78-4.61-5.45-9.98-1.68-.33-3.21-7.64-4.55-9.82-1.35-3.17-2.52-5.7-3.48-5.97-1.92.12-3-3.82-3-5.89-3.02,2.17-5.95,6.3-8.78,5.14-2.83,3.87-5.55,4.72-8.15,6-2.61-.38-5.1,3.75-7.47,6.81-2.37,1.35-4.61,3.88-6.72,7.55-2.11.42-4.08,1.81-5.91,6.48-1.83,5.43-3.51,2.36-5.03,10.6-1.52,3.77-2.89,7.53-4.1,10.88s-2.24,6.29-3.09,8.4c0,.3-3.14,1.6-8.37,0-5.23,3.7-12.56-.6-20.93,0-8.37-2.98-17.79,3.41-27.21,0-4.71-.91-9.42,1.21-14,1.82s-9.03.61-13.21-1.82c-8.37-2.91-15.7.88-20.93,0-5.23-1.65-8.37-1.25-8.37,0-2.08,1.41-4.12-12.33-6.14-11.99-2.02-9.12-4-9.16-5.95-11.32-1.95-6.88-3.87-17.32-5.75-11.25-1.88-3.53-3.73.44-5.54-10.47-1.81-4.93-3.58-9.57-5.32-13.14s-3.43-6.09-5.08-6.78c-3.3-1.42-6.43-17.44-9.38-17.9-2.95-6.83-5.7-12.85-8.26-15.67-1.28-5.42-2.5-5.65-3.67-6.06-1.17-3.9-2.29-2.73-3.35-7.15-1.06-6.65-2.07-5.23-3.02-7.12-.95-2.04-1.84-8.59-2.67-3.43-2.05,3.51-4.04-1.67-5.96-11.06-1.93-.44-3.79-12-5.58-11.15-1.79,1.49-3.52-5-5.18-7.96-.83-7-1.64-7.81-2.43-6.13-.79-1.06-1.57-2.8-2.33-7.46-1.52-4.69-2.96-19.72-4.32-10.15-1.37,3.72-2.66-16.2-3.87-10.86-.61.64-1.19-3.18-1.76-6.45-.57-6.48-1.11-7.61-1.64-5.89-1.05,1.35-2.02-4.32-2.9-8.25-.88-5.24-1.68,2.57-2.39-8.94-.71,9.13-1.33.37-1.86-11.35-.53-1.93-.96-5.01-1.31-10.07-.34-9.25-.59-7.17-.74-10.04-.15-5.15-.2-3.74-.15-9.28.05-2.85.2.74.45-10.78.25-5.95.61,1.98,1.08-7.58.47-1.66,1.04-10.26,1.72-12.55.68-2.29,1.48-5.41,2.38-9.17.91-8.56,1.93-9.01,3.06-11.14,1.14-1.41,2.39-5.71,3.76-10.26,1.37,2.98,2.86-4.75,4.48-10.36,1.61-8.72,3.35-12.9,5.22-10.62,1.86,4.53,3.85-1.6,5.97-10.43,2.12,2.72,4.36-6.28,6.74-8.38,2.38-4.28,4.89-9.37,7.54-13.22,1.68,6.83,3.44-5.2,5.26-6.74,1.82-5.02,3.71.44,5.66-6.27,1.95-1.47,3.97-2.73,6.04-6.69,2.07-5.67,4.2-7.69,6.38-4.53,2.18,1.82,4.41-3.27,6.69-5.78s4.6-4.68,6.97-3.77c4.74-1.11,9.64-4.82,14.67-8.01,3.35.02,6.77-5.06,10.22-4.54,3.46,1.89,6.96-9.96,10.49-3.95,3.53.95,7.1-8.87,10.69-2.03,3.59-6.5,7.2-2.46,10.82-4.24,3.62-2.61,7.25-4.04,10.87-4.64s7.25-.38,10.86.3c7.22,3.24,14.38.48,21.39-2.71,7.01,4.29,13.87,1,20.48-1.37,6.61-3.79,12.98-.36,19-.33,7.74.04,14.92.28,21.34.62,6.41-1.6,12.06-2.57,16.74,1.22,4.68-5,8.39.17,10.93,1.2,2.54-7.04,3.91,8.83,3.91.54,0,4.33,1,7.1,2.82,5.69,1.82,7.26,4.46,1.36,7.74,15.64,1.64,7.75,3.44,8.6,5.38,10.87,1.94,2.56,4.02,2.01,6.21,12.55,2.19,10.1,4.5,4.9,6.91,11.75,2.4,10.13,4.9,5.89,7.47,17.29,1.03,4.19,2.07,6.67,3.12,8.36s2.11,2.59,3.18,3.61c2.13,3.36,4.3,15.3,6.5,13.86,2.19-6.34,4.41,7.33,6.63,10.5,2.23,5.15,4.46,4.13,6.7,16.43,1.31,4.9,2.61-.98,3.91,8.13,1.3,3.88,2.6,7.67,3.9,7.65,2.59,2.3,5.17,7.9,7.7,15.56,2.54,2.47,5.04,9.91,7.49,14.59,2.45,5.82,4.84,10.44,7.16,15,4.64,8.5,8.99,9.76,12.91,26.07,3.92-.58,7.4,22.5,10.3,20.8,2.9,1.35,5.22,14.16,6.82,13.77,1.6,1.21,2.47,4.98,2.47,4.98h13.17c7.53-4.13,16.93-1.06,24.46,0,7.53,3.13,13.17.38,13.17,0,0-.91.84-2.18,2.38-4.81,1.54-2.67,3.78-5.48,6.59-13.31,1.4-.23,2.95-13.83,4.62-9.32,1.67-6.32,3.46-7.25,5.36-10.83.95-1.04,1.93-1.79,2.93-7.17,1,4.29,2.03-6.35,3.07-6.83,1.05-1.45,2.12-10.19,3.21-6.78,1.09-3.03,2.2,2.49,3.33-4.54,1.13,4.28,2.28-2.96,3.44-4.7,1.16,5.05,2.34-6.37,3.53-9.38,1.19.23,2.4-6.29,3.62-9.7,1.22,2.3,2.45-8.68,3.69-5.05,1.03-9.92,2.07-3.79,3.12-4.89,1.04-1.76,2.09-4.2,3.15-7.76,1.05-1.8,2.11-8.08,3.17-5.56,1.06,1.57,2.13-9.41,3.19-7.3,1.07-2.71,2.13-9.77,3.2-12.38,1.07-3.34,2.14,3.07,3.2-4.73,2.13-2.17,4.27-8.54,6.38-8.72,2.12-4.64,4.22-15.78,6.31-12.47,2.08-.39,4.14-5.04,6.17-12.72,1.01-5.04,2.02-1.13,3.01-6.84,1-.52,1.98-5.13,2.96-7.29,1.95-5.54,3.86-6.94,5.71-9.45,1.85-10.52,3.65-8.51,5.39-12.96,1.74-4.91,3.41-5.89,5.01-8.06,1.96-2.97,3.81-6.27,5.53-11.17,1.72-3.76,3.32-.13,4.77-9.63,1.45-.3,2.76-1.12,3.9-5.47,1.14-1.91,2.12-1.08,2.92-8.3,1.6-11.09,2.47-9.08,2.47-4.98,0,5.76,1.79.49,5.07-.68,1.64,1.2,3.65-5.17,6,.14,2.35,4.3,5.03.51,8.01-1.56,2.98-.3,6.26-3.75,9.79-.56,3.54-.98,7.33-1.98,11.35-.67,8.04-.07,16.96,7.57,26.48-.09,4.76,4.93,9.66-.23,14.67,1.9,5.01.73,10.13,1.16,15.33.09,10.39,1.68,21.06,1.76,31.72,5,2.66.98,5.33,2.27,7.99,1.44,2.66,1.98,5.31,6.72,7.95,1.43,2.64.2,5.27,4.16,7.89,3.8,2.62,2.17,5.22,4.18,7.8,2.28,2.26.79,4.5,2.75,6.73,3.1,2.23-2.57,4.43-.75,6.62,2.92,2.19,2.36,4.35-.58,6.49,2.64,2.14,6.2,4.26-1.88,6.34,3.15,2.09-2.06,4.15-.4,6.18,4.67,2.03,2.97,4.03-1.61,5.99,3.49,1.96-9.66,3.9-.32,5.79,2.62,1.89,5.18,3.75-2.72,5.57,5.41,1.82,5.04,3.59,3.37,5.32,5.05,1.73-10.13,3.42,2.73,5.06,3.68,1.64-5.6,3.24,4.06,4.78,6.64,1.55,4.07,3.04,1.44,4.49,5.82,2.2,1.57,4.32,12.58,6.33,9.07,2.02,2.19,3.95,8.28,5.78,8.97,1.84-2.05,3.58,2.67,5.24,8.87,1.66-5.19,3.23,12.65,4.71,8.78,1.48-1.8,2.88,4.97,4.19,7.21,1.31,8.72,2.54-.98,3.68,10.11,1.14,8.99,2.2,5.2,3.18,7.11.98,9.29,1.88-3.87,2.7,9.96.82-5.06,1.56,9.69,2.22,8.46.66,8.93,1.25-3.07,1.75,8.42.51-1.06.94-14.71,1.3,9.28.36,2.85.64,8.49.86,7.48.13-1.78.23,4.49.3,1.77.08,4.66.13,13.66.15,8.26.05-4.52,0,14.83-.15,10.03-.15.15-.4,5.64-.74,8.69-.34,17.42-.78,10.78-1.31,11.43-.53,10.83-1.15,12.23-1.86,9.69-.71-1.49-1.5,5.1-2.39,10.6-.88,10.54-1.85,8.51-2.9,10.25-1.05,3.94-2.18,12.84-3.39,10.34-1.21,9.13-2.5,8.67-3.87,10.01-1.37,2.01-2.81,8.88-4.32,11-1.52,2.57-3.1,7.49-4.76,10.7-1.66-3.45-3.39,3.76-5.18,10.85-1.79,2.62-3.66,13.31-5.58,10.81-1.93,5.31-3.91.65-5.96,11.4-.83,6.93-1.72,2.4-2.67,4.64-.95-6.73-1.96,1.43-3.02,5.91-1.06,2.37-2.18,5.31-3.35,6.29-1.17-3.06-2.4,8.76-3.67,6.93-1.28,2.33-2.61,1.89-3.98,6.78-1.38-.58-2.8,5.74-4.28,8.89-1.47,4.6-2.99,4.43-4.56,6.43-1.56,8.22-3.17,8.55-4.82,11.47-1.65-4.4-3.34,2.03-5.08,10.97-1.73,2.52-3.51,4.61-5.32,8.95-1.81-1.66-3.66,4.73-5.54,8.13-1.88,6.78-3.8,8.39-5.75,13.59-1.95,1.66-3.94,8.7-5.95,10.69-2.02,1.84-4.06,4.47-6.14,12.62,0-2.52-3.14-8.4-8.37,0-2.62-1.46-5.76-.39-9.29-1.48-3.53,3.34-7.46,1.89-11.64,1.48-4.19-1.73-8.64-1.51-13.21-.98s-9.29,1.4-14,.98c-4.71-2.22-9.42,3.35-14,.53-4.58-3.67-9.03.59-13.21-.53-4.19-.73-8.11,1.67-11.64,3.47s-6.67,2.44-9.29-3.47c-5.23.85-8.37,1.6-8.37,0-.86-4.72-1.89.44-3.09-9.88-1.2-1.82-2.57-.89-4.1-9.4-1.52-4.42-3.21-7.06-5.03-8.85-1.83-6.68-3.8-6.76-5.91-8.23-2.11-4.64-4.35-8.12-6.72-8.07-2.37,3.79-4.86.04-7.47-6.29-2.61.58-5.33-1.89-8.15-4.19-2.83-1.05-5.75-2.56-8.78-6.95,0-.83-1.08.53-3,5.89-.96,4.41-2.13,6.48-3.48,9.81-1.35,6.8-2.88,7.48-4.55,5.98-1.68,2.41-3.51,9.81-5.45,13.84-1.95,3.22-4.02,4.1-6.17,9.02-1.08,3.74-2.18,5.73-3.3,5.46-1.12,1.8-2.26,3.99-3.41,7.74-2.31.27-4.67,6.35-7.07,13.91-1.2,2.63-2.4,8.08-3.61,6.58-1.21-1.63-2.42,6.06-3.64,7.14-1.21,1.85-2.43,6.25-3.64,5.23-1.21,2.13-2.42,4.99-3.61,9.57-1.2,1.09-2.39,5.8-3.57,5.16-1.18.2-2.35,7-3.5,9.06-1.15.84-2.29,5.41-3.41,7.12-1.12,4.22-2.22,5.57-3.3,5.77-1.08-.54-2.14,4.28-3.17,8.05-1.03,3.95-2.03,3.32-3.01,3.68-1.95,9.1-3.78,9.36-5.45,11.13-1.68-.95-3.21,4.11-4.55,9.64-1.35-3.7-2.52,7.44-3.48,6.15-1.92,8.88-3,8.1-3,5.89,4.33,1.1,8.85,6.01,13.53,5.56,4.68,2.78,9.51,7,14.47,3.47,4.96,4.01,10.04-1.67,15.22,1.2,3.32-2,6.6.54,9.84-.5,3.23,3.31,6.42.99,9.55-1.46,3.13,3.95,6.21-.35,9.22-1.79,3.01.16,5.96-.6,8.84-3.81,2.88-.91,5.69-5.99,8.42-5.5,2.73-1.75,5.38-3.14,7.94-3.36,5.12-2.96,9.9-7.69,14.25-11.74,4.36.1,8.3-5.39,11.76-14.23,0,3.89,1.35,2.73,3.71,0,2.36,2.54,5.74,1.4,9.79,0,4.05-.19,8.78-1.31,13.84-1.53,5.06-5.41,10.46,3.86,15.86,1.53,5.4.69,10.8.55,15.86.3s9.79-.59,13.84-.3c8.1,1.59,13.5,4.15,13.5,0-1.12,3.11-2.24,4.18-3.36,6.53-1.12,3.17-2.25,2.72-3.38,6.57-1.13-3-2.26.07-3.4,3.94-1.14,2.49-2.28,4.27-3.42,9.29-1.14,4.96-2.29,4.42-3.43,5.31-1.15,7.14-2.29,6.89-3.44,8.04-1.73,6.67-3.45,8.23-5.19,10.08-1.73,4.64-3.47,9.93-5.21,10.12-1.74-.1-3.48,10.18-5.22,8.81-1.74-1.17-3.49,5.21-5.23,11.53-1.75.73-3.49,5.83-5.24,10.68-1.75,10.68-3.49,9.89-5.24,9.71-3.49.71-6.98,15.83-10.46,20.37Z"/>
  </g>
</svg>