<?xml version="1.0" encoding="UTF-8"?>
<svg id="Layer_2" xmlns="http://www.w3.org/2000/svg" version="1.1" viewBox="0 0 845 923">
  <!-- Generator: Adobe Illustrator 29.5.0, SVG Export Plug-In . SVG Version: 2.1.0 Build 137)  -->
  <defs>
    <style>
      .st0 {
        fill: #8fefa4;
      }

      .st1 {
        fill: #495638;
      }
    </style>
  </defs>
  <g id="Layer_1-2">
    <g>
      <path class="st1" d="M474,923l-1-219.5c-4.6-11.9-2.7-26-10-36.9,4.6-.9.8-7.7,4.5-9.6,2-1,.3,2.9,2.3,2.9,0,3,1.6,2.2,4.2,2.1l-1,4-2,.5c2.8,1.3,3.4,2.2,3,5.5l3-1-3,5c1.7.8,3.3-2.4,4-2,0,0-.2,1,.4,1.6,4.3,4,.7,3.1.2,8.3-.3,3.2,1.2,7.9.5,11.5l-2,.7,2,2c-.7,0-1.6,0-2,.7-3,5.6-.2,35.8-.2,44.7.2,51.5-.4,103.3-.9,155.1l1,24.5h-3Z"/>
      <path class="st1" d="M416,923v-192.6c-1.2-20.3,1.1-39.8-3-59.9-.3-1.5-2.1-2.9.5-2.5l1.5,7,1.5-6c4.8.3,3,4.8,7.5,3.4l2.1,4-2-.5c-.7,5.7,2.5,13.6-4.6,15l-.5,232h-3Z"/>
      <path class="st1" d="M603,923h-2c.2-2.6-1-4.9-1.1-7.5-.2-4.6-.4-33.4.2-35,.3-.7,1.9-.2,1.9-1l-2-4,2-1-2.1-2c-.4-3.9,1.7-10.7,1.7-14,0-7.2-.7-16-.7-24,0-11.6-2.2-34.5,1.1-44.1l-1.8-1-.2-45.8,3.1-1.7v181h-.1Z"/>
      <path class="st1" d="M368,238l1.8-1.3.3-34.7c2.2,1.1,13.4-5.4,14-6.6.2-.3.4-2.5-.5-2.5l-3.5,3v-4l-5,3,3-3c.9-2.6-2-1.9-2-2.5-.5-3.3,5.6-6.9,7.5-9.5,1.8.2-6.8,10-2,8,.5-.2,6.4-6.9,8.6-8.4,11.6-8.1,30.1-10.1,43.9-11.6v8.9c2.5.4,4.5,2,6-.4l-2-1c4.6-3.6,1.1-14,9-12.1,3.9,5.5.8,11-1,16.6l-6-3c-.9,3.2-2.8,3.1,0,6l-4-1c.2,2.3-.6,3.9-3,4l3,1.5c-.7,5.4-4.1,10.3-10,8.5,2.1,5-.6,9.1-1,13.5s.9,9.1-1,13.5l-3-2c.2,2-.4,4.4,0,6.3.1.7,3.2.9,2,3.7l-2-2-1,4-4-3c-.4,3.9,1.9,3.9,2.6,7,.8,3.7-.5,8.3.5,12,1.5-.1,1.5-4.4,1.6-5.7.3-2.8-1.8-5.7,1.9-8.3l-.5,3,4-.5v-3.5c5.5.1-.4,9.6,4,12l2-3.5-2-.5c-1.3-4.4,1.9-5.6,3.2-8.3,2.3-5,3.6-10.6,7.7-14.4l-1.9-3.8,1-1c3.4,1.9,10.2-9.7,12.5-9.4l4.5,9c0-2.2-.3-4.7.7-6.8s3.1-1.5,3.3-3.2l-6-.4c-4-2.8,5.8-23.7,6.2-28.4h7.9c0-.1-4,3.4-4,3.4l2.6,2.5,3.4-1.5-3-1,2-3.5,2,.5c-2.4,2.9,1,2.4,1,3,.4,3.4-7.5,9.6-8.9,13.2l1.8,9.3.5-7.1,4.4-1c-.7-5.3,1.4-3.2,3.6-4.9,5.9-4.6,4.9-7,8.2-11.1,3.9-4.7,12.1-3.9,17.9-6.8s9.6-8.5,15.3-11.2l-11,31.5h-2.1c0-.1-2-5.5-2-5.5-5.5.4-8,5.9-11.9,9.5-5.5,5.1-11.5,9.9-17,15,3.8.4,10-3.5,13.3-5.7,2.6-1.8,9-8.3,10.2-8.8,1.3-.6,1.7.1,1.4,1.4-.7,3-7.5,13.5-5.9,15.6,20-14.1,45.8-27,61.4-46.1,5.3-6.6,9.2-14.9,14.1-21.9l3.5,6c-2.8-4.7,2.6-2.7,3-4.6-2.5-3.3,1-7.8.9-8.7,0-.8-1.4-1.6-1.7-2.5-.8-2.8,6.3-13.2,8.4-16.1,15.2-21.3,40.5-36.6,57.9-56.1l1.5,3c2.2-3.2,1.1-6,2-9.4,6.2-20.9,27-38.2,46.3-46.8,3.3-1.5,5.7-2.5,9.2-.8l-.5-3c3.3-1,1.3,4.5,4.5,4,4-.7-1.7-5.8-1.5-6l17-2v6.9c-.4.4-9.5,1.3-10.6,1.2-2.4-.2-.6-2.3-2.4-2.1,1,4.4-4.2,3.7-7.2,5.3-18.8,9.9-29.7,31.3-43.2,46.8-3.5,4-8.3,5.6-12,9-17.6,16.2-36.6,44.6-46.7,66.3-2.8,6.1-5.4,16.2-8.6,21.4-1.2,2-4.1,3.5-4.2,4-.5,2.3.3,6.1,0,8.8-1.4,12.5-3.8,24.8-4,37.5l-5.9-6.6c0-2.9,4.5-5.8,3.9-7.9,0-.3-3.7-1.4-2-5.5l-3,3-2-4c-3,2.2-8.9.7-8,6,1.8-1.4,3.2-2.5,5-.3,0,4.1.4,7.3-4.1,7.9v6.4c4.1.5-.2-4.7,5.4-2.8,3,1,4.6,6.7,10.5,4.9l1.1,4.9c-8-2.6-15.5-5.6-24-3-.3-2.9.6-6.6-.2-9.3-.9-3.1-6.3-3.4-5.8-7.7-3.6,1.3.8,4.8-2,7.5-3.1,3.1-7.5-.6-11.8,1.2s-17.8,29.1-20.1,34.9c-.6,1.4-1.5,2.6-1.1,4.4,1.2,1.3,9.9-9.2,11-10.5,3.8-4.8,12.6-21.4,18.5-21.5l7.5,1.5c-5.5,3.2-10.2,6.8-11.5,13.5-5.4,26.8,5.4,58.9-13.9,82.1-5,6-22.3,20-29.9,19.9-6.5,0-.8-4.2-4.6-6-.3,8.9-10.8,9.4-18,10l-1-5.5,1.8-.7-.6-2.6,1.9-.7c.1-2.8-4.2-2.4-6-3.5l1,5c-3.7.9-1.3-4-3.5-5l-2.5,2,3,2c.9,2.9-2.4,1.7-3,4h4l-2,1.5,2,3.5c-10.9,0-28.8,1.4-28-14h-7c-1.3,2.7,1.9,3,2,3.7.1,1-.9,2.2-.4,3.4,5.1,12.9,12.2,13.6,24.7,14.6,7.4.6,15.4,1,22.5-1.3,2.4-.8,7.9-5.9,8-1.1,0,.8-.8,8.2-1,8.5-.3.5-3.8,1.7-4.3,3.2l-.5-4-8,1,5,1.1-1,6,3.5-3,11.9,7.9c4.4-8.3,8.2-12.2,18-13,12.5-1,20.8,7.6,32.9,8.2l2.1,3.8c0-4.9,7.8-5.2,4.5,1,3,1,2.7-1.4,3.8-1.9,2.2-1,5-1.4,7.1-2.7,2.9-1.8,3.9-5.4,8.1-5.4.9,1.2-.2,7.4,2,8-.5-3.8,2.8-3.9,4.6-6,6.8-7.8,12.2-17.6,17.4-26.6,3.5-3.5,6.2-1.8,9.6-1.6.3,0,.2-3.2,4.8-1.8,3,.9,0,2.5,0,3.4,0,1.3,2.6,4.2,1.6,6.5-5.9,1.1-17.3,2.6-20,8l-2-3-1,10c2.1,2,23.2-9.8,27.3-11.2,16.9-6,37.8-1.5,51.7,9.7,3.7,3,15.2,16.1,17,20,1.1,2.5-2.9.2-3,2l6.9,27,21,11.5-6-10.5,1.5-2.5,5.5,4c1.4-1.6-2.6-13.2-2.9-15.5-.4-2.5,1.2-5.2,0-8.9-3.8-10.3-17.5-28.6-23.2-39.9-.6-1.1-.8-2.4-.8-3.7l-2,1v-3l4-.5-1-5.5c-1.9,1-7.4-1-7.8,1.5.5,6,3.4,13.4,3.7,19.2,0,1.7,0,2.3-1.4,3.4-7.8-6.2-16.3-12.8-26.5-14v-8c7.4.3,13.8-1.2,21.3-.8.8,0,2.3,1.9,1.8-.8-1.6-7.7-18.9-7.2-24.4-7.6-3.1-.2-5.6-3.6-8.1,0l-1.5-2,4-3-4,1c-.2-4.9,2.9-5.7,7-4v-5.8l-4-.8-2.5,5.6-1.5-4c-2.3-.5-2.9,2.3-4.7,2.8-4.4,1.3-6.7-3.8-11.3-2.8l.5-4c-5.6,2.4-5.1,10-11.5,10l-1-3-1.5,4c-3.6-3-.2-2.4.4-3.8.2-.5,0-1.8.4-2.9.2-.5,2.5.1.7-4.3l3,2,2-8-3,3.6-3-.6-1,7-3-3v14l-17,4c2.3-9.8,3.2-18.7,9-27.2,1.1-1.6,4-1.4,3-4.8-3.6,2.2-4.7-3.1-9-2-.2-1.4,0-2.8.2-4.2,1.2-5.5,6.9-8.8,8.8-13.7-3.3.1-10.5-.2-13.3-2-2-1.3.4-5.6-4.7-2.4l-3-2.6c2.5-.7,5.3-3.3,5-6l1,3,3-2.5c.7-1.8-1.9-1.5-2-2-1.1-3.9,2.7-1.1,3.5-4.5l2.5,2-3-8c9.3-1.6,14.9,7.2,21.5,12-2.7,2.4-.5,7.5-.7,7.9-.2.3-1.8.4-2.3,1.2-1.8,2.7-.7,5.9-4.6,7.9l3,1.5-2,5,4,1.5-1.9,5.9c3.7.5,2.2,4,4.4,6.1l1-3,3.5,3c2.9-4.9-.3-8.9,1-14,2.5.5.7,7.7,1,8l4-1v3h-2.5l-.5,5c1.9.2,1.2-3.3,2.2-3.9s3.1.3,3.7-.2c.3-.2.6-3.9,1.2-5.2.4-.9,2.5-.4,1.9-2.2l-3-1.5-1,3c0-3,0-6.2,3.5-6.7,2.1,2.5,6.2,3.2,5.5,6.7l2-2c-.4,2.8,2.7,2.2,3.7,3.3,1.2,1.3,1.4,3.6,3,4.8,2.6,2,9.6,3.6,12.8,5.9,10.8-4.2,28.2-17.5,39.9-15.9,2.4.3,5.4,2.1,8.3,2.7,2.4.5,7.6-.4,8.8,1.2l.4,3c-8.9,2.3-17.9,3.4-27,2-2.7,2.7,8.1,7,10,7.5,5.2,1.5,11.6,1.5,17,2.5l-1,8c-3.1-1-3.5-1.6-3-5l-1,3c-2,2.1-16.2-7.7-19-8.5-1.7-.5-6.2-1.7-6.1,1.1.3,5.2,15,15.3,19.7,18.3,4.3,2.7,8.8,1.9,7.3,8.2l2-4v11l-2,.5c3,.9,2,2.7,2,5.5-4.3-1.6-8.7-2.9-13-4.5-4.5-1.8-7.7-5.6-13-4.5v7c4.8.9-1.3-5.4,2.5-5,6.7,5.5,21.4,16.7,24.3,24.7.8,2.2,1.5,17.5,1.3,20.7-.2,4.4-2.1,9.3-1.9,13.9,0,1.8,1.5,14.8,2.1,15.9.7,1.5,2.1,2.6,3.3,3.7,2.7-1.8,2.8-4.4,2.5-7.5,6.4-2.1,3,5,3.5,7.6.7,3.5,16.8,11.4,20.8,14,36.8,24.4,78.2,61,97.8,101.2.9,1.8,2.2,3.4,1.8,5.7-2.2.3-2.6,0-3.9-1.6-3.9-5.2-7.4-14.1-11.2-19.8-25.3-38.8-64.5-70.7-104.3-93.7-1.3-.8-3.4-.5-4.7-1.3-2.1-1.4-1.9-4.9-7-4.5-.4.5,4.8,11.1,1.5,11-1.4,0-18.4-15.6-23.5-15,3.4,10.5,9.6,17.4,1.5,28l-18.5-25c-3.9.8-.6,6.6-1,7-3.2-1-4.9,2.5-1,1.5,2,4.5-.2,9.8,0,13.9.3,9.2,18.8,33.1,24.2,42.9,2.8,5,8.2,12.3,6.8,17.7l3-1,4,8.5c0,4.2-5.4-2.4-6.4-3.6-1.6-2-2.6-4.6-4.6-6.4l2-2.5c-1.5-1.2-8.8.8-9.1,1.6v128.7l-2.9,1.7c-2.2-6.6,0-13.4-.3-19.5-.7-36.4-1.5-73.1-.2-109.5l-5.6-2-1,90.3-2,1.2,2,.5c-1,6.4,2.5,23.5-3,27.5-1.9,1.4-.3-1.5-1.5-1.5l-.5,4c-2.4-1.8-3.3-11.7.5-12l1.5,2c1.4-5-2.3-6.6-3-10.5l2.8-.7c1.4-3.2,1.2-8.1-2.8-8.8l-1,1.9-1-2.5c1.6-1.8,3.9-1.9,4.5.5l.5-4,2-.5c-3-.8-2-2.7-2-5.5l-2,2c1.9-4.1-1.1-4.5-1.8-6.7-3.5-11.3-.5-50.6-.7-64.4,0-10,7.9-29.5-9.8-24.8l-1.1,1.2c-2.7,14.6-1.2,29.7-1.8,44.6l-2.8,1.2-1-44c-2.4-.5-2.2.8-2.6,2.7-1,5.5,1.5,13-1.4,16.8,2.1,1,2.3.9,2,3.5l-3.8-1.2c-.8-1.4.8-7.1-2.2-7.8,0,9.2-2.6,18.3-3,27.5-.6,11.5,2.6,28.5.6,38.9-.6,3.3-3.6,6.7-3.6,3.2v-54c0-5.6-4.8-5-5-6.2,0-.7.7-2,.6-2.9-.2-1.6-1.3-3.3-1-4.6.6-3,4.2-1.9,3.5-4.9l-4,1c1.7-7.8-5-20.2-8.9-6.5l1.4,22.5c-10.5,4.9-19.8,11.9-28,20.1s-7.1,9.4-8.1,9.9c-2.1,1.1-1.2-2.5-2.5-3.5-.9-.7-4.7,0-3-2.5.2-.3,3,.8,2-2l-4-1.5,2-.5c.6-2.5-.7-1.5-2.1-2.6l2.1-5.4c-3.9-.6-4.5-1.9-6.6,1.9l-3.4-1.4,4-1.5c0-1.8-.9-3.2-.6-5,1-5.1,12.6-28.9,15.7-35.3,10.2-21.4,24.9-41.1,29.9-64.6,1.8-.2,1,2.2.9,3.4-.4,4.2-1.8,15.3-3,18.9-.3,1-1.8.9-2,1.3v2.5c5.1-2.8-.6,4,0,5h11v6h-6c0,4.4-3.3,8.2-1,12.5h2l3.5-10.5c1.9,1.4,2,5.4,1.5,7.3,0,.5-6.8,4.3-1,4.7-.3-3.9,5-4.3,2-9l6,1v-3l-4,1,.5-2-2.5-1,9.8-2.2,2.2-7.9,3,1c-1.8-4.9,3.8-9.1,6.5-13l2.9,3,6.6-4.5-6,1.5.8-2.8-1.8-.7c4.6-8.4,11.5-17,13-26.5-7.3-1.9-14.8-2.9-21.8-5.8-1.5-.6-2.7.6-2.2-2.2l31,7-.7-3-4.2-2.6c7.1-7.2-3.8-24.1-9.5-29.4-.9-.8-13.1-7.8-15.2-8.8-9.6-4.9-16-3.4-26.1-2.4-2.6.3-3.7.1-6,.5-1,.2-1.5-.1-2.2,1.1l.9,3.5c-9.8-4.6-6.6,2.1-8.5,7-1.1,2.7-10,13.8-12.5,16.5-1.7,1.9-3.7,3.7-5.5,5.5-2.1.9-2-3.8-2.5-5-.6-.4-4.7,2.5-6-.5-1.6-3.9,3.1-1.4,3-3.5-4.7,0-1.5-5.6-5-7l-6,23c-1.8,1.6-5.2-5.5-5-7-1.1-.2-1.9,0-2.5,1s-1.5,11.9-2.1,14.9c-2.8,12.1-8.4,25-16.4,34.6-1.2,1.4-6.9,7.5-8,8-3.6,1.9-2.1-4.7-4.5-3.5-1.8.8-.2,3.6-2.5,4-1.9-3.5,1.3-3.7,1.8-5.7.4-1.5-2.7-8.7-3.8-9.9-1.8-2-5.7-.5-4.2-5.3-2.6-2.8-8.2,2.6-9.4,4.9-2.1,3.9,3,1.9.7,5.9l1.8.6-3,3,6.5,6.5,3.5-2c2,8-7,14.4-13.7,15.8-1.3.3-3.3-.3-3.2-1.3,0-1.1,3.8-.8,3-3-2.7-1.4-4-1.5-5.5-4.5-1.5,1.6-1.9,4.1-3.1,5.9-.7,1.1-2.5,1.4-2.9,2.1-.8,1.4,3.2,5-4,5.1-4.4,0-5.1-2.5-8-3-3-.6-6.8.4-9.9,0s-21-3.5-22-5c-.5-.8-.5-2-.5-3l-4,2,21-23c2.1.4,1.7,4.6,1,6h4c-.7,3.4,2.3,7.1,5.6,7,5.3-.1.2-5.7.5-6,0,0,1.2.3,2-.7,3.1-3.9-3.5-3.7-5.2-4.3-.8-.3-.8-1.7-.9-1.8-.5-.2-5.8,2.8-1.9-3.8s9.1-7.8,9.1-18-15.5-17.6-21.4-20.6c-1.5-.8-4.1-2.7-5.7-1.3,1.9,4.9,11.9,7.7,9.9,13.8-.5,1.6-10.6,6-12.6,6.4-5,.9-8.3-.9-12.8-.9s-9.3,2.4-14.5.1l-.6,2.8c-3.6-.1-7.4,1.6-10.9,1.3-1.8-.2-1.3-1.8-2.2-2-7.1-2-14.4-3-21.7-4.1.6,4.1-8,7.9-6.5,2l3.4.9c3.7-2.6.8-7.5-3.4-6.9l1,4c-6.5-.4-6.3.8-8.5,6l-2.5-3c3.2-1.2,5.4-6.3,8.1-9.2,2.3-2.5,8.5-6.4,8.9-9.3.4-2.5-1.7-1.5-3-1-6.3,2.9-11.1,13.1-19,13.5-2-1.8,12.9-12.8,10.5-16-5.8,3.6-15.7,9.9-19.5,15.5-1.9,2.9-2.4,7-4.1,9.9-3.7,6.5-15,13.7-4.8,21.2,6.2.9,9.5-3.8,12.5-8.5l1.5,2-2,2c3.5-1.9,5.7,1.1,8,3.5-5.9,2.9-8.7,10.3-5.9,16.4l4.8-.8.6,1.9,1.1-2.1,5.4,1.1-1-6c2.5,3.6,7.5-.3,9,.4,4.9,2.4-1.1,8.4,0,9.6s2.9-.4,3.7-1.8c.5-.8-.3-3,1.7-2.2,3,1.2-1.1,5.7,2,7,4,1.7,1.7-3.5,3-5l15,12-3.6,9-3-2c-.5.8,0,3.7-.2,3.9-1.1,1.1-10.2,2.9-12.3,3.1-15.2,1.4-32.4-1.4-46.5-7-1-3.9,4.8-1.1,6-2-.9-4.4-6.4-4.5-6-9l-2,10c-6.8-1.1-12.9-4.2-18.5-8,1.4-6.2,8.9,1.5,7.5-7-4.3,1.2-3.2-2.2-6-2-.4,3.1-1.5,3.1-4.3,2.8-5-.6-.6-3.7-3.3-4.8-.7,2.9-2.9,3-2.1,0l-3.1-1.5,1.2-3.5,1.5,3,1-3.5-3.1-1,3.5-58.5,9.5-6c-.3,11.5-1.3,23.1-1.6,34.7-.1,4.3,2.4,13.4-1.4,14.8l3,2.5,2-22.3c2.4-1.7,3.7-2.3,3-5.7l-3,2c2.1-3.9,0-9.9,1-13.4.3-1,1.9-.6,2-.7.3-.4-1.9-1.9-2-3.5s1.1-3.3,1-5c0-3.2-2.2-4.5,0-8,2.6-4.4,6.8-3.5,10-5,2.1-1,3.9-6.8,5.6-7.4,2.7-1,.4,3.4,2.5,3-1-4.8,1.4-3.9,4.5-6l1.5,7c2.8-3.1,4.9-.6,8.2-1.2,1.9-.3,12.1-5.4,14.4-6.7,3.4-1.8,12.6-9.3,14.3-9.8,2.9-.9,11.9,3,13-4.9,1-6.8-3.7-5-6-7-.9-.8-3.8-5.4-2-6.5l-5-2c-1.2,20.7-21,21.4-36.6,25.8-1.6.5-1,2-2.9,2.2-1.5.1-15.7-1.9-16.8-2.3-2.8-1.2-2-2.8-2.8-3.8-.9-1.1-1.2,4.2-3,2-2.4-2.9,3.1-3.3,3.5-3.9.7-1.1.4-2.8.5-4.1l3.4,2,4.5-5.5-2-2.1,1.1-36.4,5,5c0-4.5-4.4-5.7-5-10.5-.3-2.5-.7-22.7,0-23.5l2,1v-5.5l-1.5,1.5-1.4-1.7-.2-58.8c-.3-2.9,11.5-8.1,12-7.6.8,3-8,8.1-8.1,8.6-.7,4.9,2.9,6.1,7.1,5.8l.8,1.1.7,19.4,2.5-4,2,5c-1.5-4.2.7-6.9,1-11l-4,4c-1.7-3.6,2.2-8.3,2-10.4,0-.4-4.7-2.9-4-6,5.5-2.6,8.4-9.9,14.9-9.6.3,3-3.5,3.9-4.4,6-.2.4-.6,7.5-.6,8.5v30.5h0l.6.2h0ZM597,110l2-5c-4.5,2.9-6.1,3.2-4.5,9l-2.5,1-1-2,1,4.5-1,1.1-3-.5,2,2.5-2.5,2.5-.5-4-6,5.5,2.1,4.5c2.1-.7,3.1-2.9,3-5l4,.6c.6-5.7,3-4.3,4.4-5.6.7-.7,7-8.7,6.6-9h-4.1ZM461,189c-6.1.1-2.1,3.4-5,7h5l-1,3.5,2,.5,1-6-2,1v-6h0ZM452,215c-7-.8-10.9,7.4-2,5,.3.3-.9,4.1,1.5,3,3.3-1.5-1.9-5.4.5-8h0ZM409,233c5.9-.7.2-9.4,3-14l-3.6,7.7.6,6.3h0ZM454,245v-15.5l-4-4.5c2.1,3.6-.4,5.2-.8,7.7-.4,2.3,1.9,4.2-1.7,6.3l-1-2-2.5,3.5,3.5-.5,1.5,3,3-2,2,4h0ZM356,260c2.1-.4,1.4-1.7,1.6-3,.5-4.2-.3-8.8-.6-13-1.3.4-1.6,5.5-1.6,6.7,0,2.9,1.2,6.2.6,9.3h0ZM389.2,256.9c-.3-.4,2.8-8.2.8-10.8-3.3,2.8-1.3,10-2,14,6.3-2.3,1.6-2.6,1.2-3.2h0ZM460,267h-5c-3.2,10.4,7.2,9.1,5,0ZM436,273h-4v3l-5-1,1,6h-3l1-3-4,2.5,1.9.9.2,6.5,1-5c3.1-1.1,1.5,2.4,2,2.9,1.1.9,7.1-.6,8.5-1.9l1.8,1.9c2.6-1.2,5.1-2.6,4.6-5.9l-3,3-2-4,1,4c-1.7.8-3.4-2.5-4-2-.4.3.8,2.4-1,2v-8c1.9,1,3.3.4,3-2h0ZM458,284c-3.1-.8-2.1,3.1-4,4.5l3,1.5c-5.1.6-1.8,3.7-2.2,6.3-.2,1.7-2.3,2.8-1.8,4.7l5.6-5.9.3-6.6-1.9-1,1.1-3.5h-.1ZM357.5,305.6c-1.3-2.2-3.5-5.9-5.5-7.6-.9,3.7,1.9,4.8,3.2,7.3.6,1.2,1.6,5.5,1.9,5.6,5.4,3.5,1.2-4,.4-5.3h0ZM659,299l-6.6,4.9-1.4,3.1c2.6-1.2,3.9-3.3,6.9-2l1.1-6h0ZM362,302c-4.2-.7-.6,4.1-.5,5.9.1,2.3-.9,4.8-.5,7.1,5.3-3.6.9-8.3,1-13ZM462,312c4.7-1.2-1.4-7.6-2-7l-2,4-1-3c-1,3.4,1.4,3.5,2,6l2.5-4,.5,4h0ZM371,323l-5-16c-1.7,5.5-1.8,14,5,16ZM493.8,315.9c1.6-5.1-2.5-5.9-5.4-8.8l-5.9,4.9-2.5-3c-1.3,3.1,2.8,5.1,2.9,5.6.5,2-1.4,6.8.1,9.4,5-1.5,5.4-7.3,10.8-8.1h0ZM351,330c-2.9-.3-3.4,2.3-3,4.5.6,3.8,4.7.9,4,4.5-4,1.3-5.6-5.5-7,1l10,1c1.7-6.6-6.3-5.5-4-11h0ZM477,366l1-11.4-4.5-12.5c-3.4-.5.6,4.6-.5,6-1.8,2.3-1.7-2.6-3-2,1.1,2.7-1,5.9,2,6.5l-6.6,10.4c-2.5.9-8.8-2.8-12.2-3.6-11.9-3-40-4.4-50.5,1.9-2,1.2-5,4.2-.5,3.5,9.6-1.6,30.1-5,39.2-3.2,5.6,1.1,11.7,5.5,18.1,5.5l.6,4.1c1.5-.6,2.5-1.8,4.3-1.8s13.7,3.5,11.7,6.8h8c-2.1-7.7-9.7-3.4-9.8-12.5,0-1,.4-6.2,1.8-6.5l1,9h0v-.2h-.1ZM521,344c-3.6-.5-1.3,2-1,4l4.4-1,.5,4,6-3.5c-3.6-.3-6.8-4.6-9.5-.5l-.5-3h0ZM542,360c1.5,0,5.5-1.5,5-3.5l-4-2.5c2.1,4.7-1.5,3-2.8,4.2-2.7,2.6,1.7,6.3,2.3,8.7.6,2.2-2.2,4.6,1.4,4v-7l3,1,1-4c-3.2,0-5.5,4.2-6-1h0ZM345.2,365.8c-.3-.7,1.2-2.5.8-3.8-3.6,1.4-1.2,6.6-2,9.4l-2,1.6,2.5,1,2.6-6.5c.5-1.5-1.8-1.5-1.9-1.7h0ZM455,369c-11.7-3.6-24.3-4.6-36.5-4-5,.2-13.2,1-18,2-1.6.3-3.5,0-3.5,2.5,11.6.5,23.8-1.3,35.5-.9,6.1.2,14.1,2.5,19,2.5s3.1-.3,3.5-2h0ZM507.6,385.4c-1.9-.8-8.5-2.5-10-2.2-2.5.5-5.5,7.7-9.6,6.8l2.9,1c-.8,4.9.8,4.8,4,7.5l-3,.5c1.8,4.2-2.7,7-3,11,4.8-2.7,4.2,2.9,5.2,3.8s4.5,0,6.3,1.2c2.1,1.4,3.3,4.2,5,6,6-2.1-1.1-3.5-1.5-7.5,0-.5,1.6-.4,2-1.1,1.9-3.2-.3-7.1,0-7.3.1-.1,1.7.3,2.6-.3,2.2-1.5,6.5-9.7,6.5-12.2,0-4.6-3.7-4.2-6.3-5.6-.7-.4-1-1.4-1.2-1.5h.1ZM339.7,419.3c-.4-.5-3.6-2.4-4.1-2.3-1.8,2.7-4.5,3.2-3.5,7l2-1-2,11h3.9c0-.1.6-3,.6-3l3.5,2.5-2,4.5,4.4-1c2.4.8.4,5,3.6,4-.8-1.8,1.1-4.1,2.5-4,2.7.3-.5,5.6,2.5,6-.2-2.4,2.8-2.8,3.4-4.2.5-1.4-.5-3.4.3-5.5.5-1.2,2.3-1.2,2.4-1.9.1-.9-.8-5-1-5.3-2-1.9-1.6,3.5-4,2l-.5-3-6.5,4-.5-2-.5,1.3c-2.5,2.5-3.5-.3-4-2.7l2.1-1c-1.3-1.5-1.1-3.8-2.3-5.3h-.3ZM364.3,432.3c.8-1.1,3.3-1.5,3.5-4l-2.8-7.3c-4.6,2.1-1.4,3.4-1.4,4.5s-.9,5.9-1,7c0,.3-5.1,6.5-1.1,4.5,1.4-.7,1.9-3.4,2.9-4.7h-.1ZM499.8,428.3c-3.9-1.3-6.8,1-8,4.6-2-1.2-2.5-1.2-1.2,1.1.1.2,2.3,0,1.4,3l-6.6.9c-1.6,4.4,3.1,5.6,6.6,5.1l1-4c-.2,3.8,1.5,4.4,5,4v-3.9l-4-.6-1-2.4,3-3c2.6-.9,2.6,2.7,3,3,1.8,1.2,5.9-5,3-8l-2,2-.2-1.7h0ZM468.4,440.3c-1.2,1.4-1.8,2.5.1,3.7,2.5-2,5.2-10.5,4-13-2.3-4.9-8.2,1.8-1.5,1-.3,5.7-2.1,2.1-5,4.5l2.7,1-.6,1.4,1.8,1.1c-.5,0-1.3,0-1.6.3h.1ZM658,435c-6.3-.3-3.5,5.7-4.3,7.8s-7,2.3-3.7,8.2h3.9l1.2-6.9,4.9-1.1-2,2.5,3,.5c-1.2,2.2-3.9,3.4,0,4.4-2.7,4.4.8,3.1,2.6,5.6,3.1,4.2-1.2,3.5,4.8,5,1.4.4,0,2.4,1.7,2-.5-6.1,2.5-5,4.1-6.6s1.1-5.6,3.9-5.4l-3-1,1.9-3.4c-3.2-5.3-6.8-4.8-12.3-3.6l-1.1-1.9-2.5.9c.7-3.7-3.9-3.5-3-7h-.1ZM357.8,443.4c-.7-.2-4.6,0-4.8,1.2.9,8,4.3,5.7,9.3,8.7,1.7,1,1.1,2.8,2.7,2.8l1-9.9c-2.6-1.7-5.5-.8-7.3-1.1-.8-.1-.7-1.6-.9-1.7h0ZM383,454l-2.5-6.8c-3.1.7-4.9,2.8-6.5,5.4l5-2.5v4.5l4-.5h0ZM622,489l.5-15c-1.8,3-.3,5-4.6,5.5-.5,2.5,2.3,12.8,6,10.5v6c2.2-.3,1.6-7.5,1-8l-3,1h0Z"/>
      <path class="st1" d="M166,61l-2.1,6.3c.2,1,2,.9,2.5,1.7.8,1.2-2.7,2.4,4.4,2.2l1.6,3.8,1.5-4,1.1,1.8,1.9-.8c1.5,1-.2,9.6,0,11.3,0,.2,2.3,2.6,2.5,2.6,3-.3,6.6-4.2,8.4-6.6-3.1-4.1.4-9.8-5.9-11.4,2.7-8.2,7.6-6.6,12-.5,6,8.2,24.7,46.7,26.7,56.3,1.8,8.4,1.7,22.6-2,30.4s-18.4,15.9-25.2,21.8c-2.8,2.4-4.8,5.3-7.2,7.7s-3.7,1.5-3.9-1.8c-.4-5.4,1.1-16.4,2.3-21.8.8-3.5,2.5-6,3.3-8.7.4-1.3-.2-2-1.5-1.5s-9.4,10-10.4,11.6c-5.7,10.2-4.5,36.6.7,47,7.6,15.3,28.5,22.7,33.4,33.6,1.5,3.5,2.9,7.9-.7,10.5-3.2-3.3-14.4-1.9-16.1-4.9-1-1.6.7-3.5.4-3.9-.6-.8-1.1-1-2.3-2.8-1.6-2.4-4.3-3.4-2.5-6.3-3.2,2.4-3.6-3.4-4-4-.1-.1,0,1-2.9-.9-2.1-1.4-2.8.3-2.1-5.2-.5-.6-1.6,2.1-3,1.5-1.9-.7-7.4-4.2-10.2-5.6-4.7-2.4-9.6-5.2-14.9-7.4-3.7-1.5-9.3-.5-10-5.5l-1.5,3.1-7.2-1.3c-5.8-13.3-12.4-26.3-17.7-39.8-8.4-21.6-14-31.5-5.3-54.2,1.6-4.1,4.9-12,8.8-13.7l-2-1.5,4-1.5-3-1.5c3.6-6.1,7.3-12.8,11.6-18.4,1.7-2.2,12.8-15.1,14.1-15.9.9-.6,2.3-.8,3.4-.7,2.1.3,1.3,2.6,3.2,2.5,5.2-.3,6.6-3.8,7.4-4,2.2-.6,5.8.4,8.3,0h0v.4h0ZM168.8,75.2l-11.8-1.2-1,10c-1.4-1-3.8-3.5-5-.5-1.7,4.4,6.7,1.6,7.9,3.6,3.2,5.3-5.7-.7-5,5.4,2.5,3.9,7.7,3.2,6.1,9.5h3c-4.3-7.8,5.8-4.3,6-10.6l-1.9-1.8,4.9-5.2-3.2-9.2h0ZM138,104c.7-2.2,1.2-4.2-2-4,1.4,2.5.3,3-1,5l3,1-3,3h3.4l1.1-2,2.5,2.5c.3.7-3.3.4-4.4,2.5-.5.8-1.3,12.7,1.4,9v-4l1,3,1-2,1,2,3-1.6-2-4.4c6.9-1.4.6-11.3-5-10h0ZM153.3,105.7c-.6-.4-1.1-2.6-1.8-2.7-3.9,4.1-.7,6.9,2,10l4.5-4.5c-1.2-1.6-3.2-1.8-4.7-2.8h0ZM168.4,113.6c-2-2-2.7-4.2-6.4-3.6-1,2.8,1.7,1.7,1.9,2.1,1.3,2.1-1.2,1.9-1.6,2.2-1.8,2.2-1.4,4,1.6,2.7v4l-3-1v2.5l3,2-3,3.5,5.8-1.2.2-2.8,3,1c-.3-2.7-2.3-3.3-2.1-6.5.1-2.1,2.2-4.2,2.1-4.5,0,0-1,.2-1.6-.4,0,0,.1,0,.1,0ZM137,130l-1-6-2,11.5,2-.5-1,4c5-1.5,5.7-7,9-10.5l-4.5-2.4-2.5,4h0ZM140,169l2.8-.5c-.4-4.6-1-8.5,1.2-12.5-6,2.6-1.2,10.3-7,14.5l1.9.6-.9,2.4,2,.5v-5h0ZM131,167l-4,6.5,4.5,2.2c3.1-1.1.9-4.4,3.4-6.2l-3.9-2.5h0ZM157,168c-2.9-.5-1.6.8-2.3,2.2-2.8,6.2-4,17-4.7,23.8,2.3,2.8,6-12.9,6.3-14.2.5-1.9-1.7-4.1,1.6-3.8v-2l-2.1-.6,1.1-5.4h0Z"/>
      <path class="st1" d="M713.8,209.8l-20.8,13.2c3.5-5.3,6.2-13.2,6.9-19.6.3-3,1.5-15.4-2.4-15.4s-5.1,8.5-6.1,9.9c-5.2,7.3-10.9,14.5-16.9,21.1,1.3-6.3-2.2-4.9-4.5-6.6-1-.7-1.9-3.3-2.5-3.3s-3.3,3.5-6.5,1c4.6-3.4,7.1-6.6,9.7-11.8,1.4-2.8,1.2-8.2,4.3-8.2l-2.1-1.6c2-9-8.8-17.1-13.3-24.5-5.3-8.6-7.1-17.1-14.6-25.4-1.2-1.4-11-9.7-12-8.5,0,6.9,1.5,13.5,1,20.5,0,1.5.8,2.9-1.5,2.5-6.6-6.9-12.8-17.3-11.3-27.2,2.2-14.9,22.3-44.9,33.2-55.8,6-6,16.5-12.3,21.5-18.5,1.8-2.2,8.2-15.3,9.5-15.4,9.7,6.3,22.5,6.3,32.8,10.1,1.2.4,1.6,1,1.7,2.3-.6,16.3.5,32.7,0,49.1,0,2.1-1,4.1-1,6-.7,19.7-1.8,39.5-3,59-.9,15.8-2.1,31.5-2.3,47.3h0l.2-.2h0ZM714,55c-1.9-3.2,2.7-5.7-.5-8-1.9,2.2-6.2,3.1-6.5,6l-3-2c1.4,5.7,5.8,3,10,4ZM694.6,89.2c-5.6,3.3-3.4,10.1.8,13.6,6-1.7,2.2-6.7,3.3-11.2l-4.1-2.5h0ZM709,153l4-1.5-1.5-2.4c-2.5,1.2-4.2.5-3.5,4-9.6-6.1-6.2,3.9,0,2,0,2.8-4.1,4.3-.5,7l1.5-2,.5,2c3,.6,2.1-.7,3.5-2.5l-3-1,4-.5v-3c-1.9-1.6-5.8,1.4-5-2h0Z"/>
      <path class="st1" d="M276,141c-2.7,1.2-1.4-3-3.5-2-2.9,1.4-.3,4.8-.5,5-4.8-.3-8.3,2.5-3.5,6,3.9,2.8,8-3.4,10.5-2-.5,1.3-.5,2.1,0,3.5,4.6,14,12.1,26.6,19.2,39.4,1.1.6,10.8-4.6,12.6-5.7,2-1.2,10-9.2,9.3-4.2-2.4.6-12.5,12.4-11,14l16-5c1,1.1-7.8,19.2-3.9,22.9,6.1,1,7-2.9,10.9-5.9-.8,21.3-3.5,42.8-1,64,1.7.2.9-2.3,1-3.5.2-4-.3-8,0-12,.7-10,3.2-46.8,6.2-53.8.6-1.3,1.8-2.2,2.8-3.2.4-3.2-1.9.6-3.5-1.5-1.4-1.8,1.8-9.4,4.5-10l1.6,50.7c-3.8,27,4.1,58.4.4,84.9-.8,5.9-2.9,3.8-4.5,6.5-1.2,2-.4,6-2.5,7,.3-5.8,1.1-11.6,1.4-17.5.3-5-1.4-6.1,3.5-10.5l-3.1-.6c0-2.7-.6-5.5-.8-8-.1-1.4,2-5.5-1.6-3.4-2.4,13-.3,27.8-2.5,40.5-.8,4.9-6.6-.8-8.9-3.1.2-1.8,1.5-2.9,1.7-4.9,1-11.3-.9-24.8.3-35.9.2-1.9,1.1-3.7.9-5.6l4,1c.9-3.7-4.4-3-4.8-4.6l1.8-26.4c-3-.5-1.6.8-2.1,2.3-.9,2.6-1.6,4.8-1.1,7.5l-1.8.2c-.2,1.8,1.9,0,2.1,2.4s-.8,4.7-.7,6.9c.3,18.8-.2,37.8-2.4,56.7l-11.4-11.1c-1.6-2.4-2.6-4.1-1.6-6.9-3.6-.9-2.1,1.2-4,2,1.5-5.4,3.9-10.1,3-16-5,.1-5.9,6.1-10,8,0-1.9,2.3-9.2,3.6-10.1.9-.6,2.8.1,3.2-.2,1.6-1.2,0-4.4,4.2-.7-1-6.2-4.3-2.3-8-1,.1-3.3-1.6-5.2-5-5-.7-.7,3-4.9-1-4v5l-3-1-1.5,3c-.5-1.3-14-18.4-14.5-13.5.2,1.5.3,6.3-1.5,6.5-4,.3-18.8-13.6-24.5-14-.4-1.5.4-1.7,1-2.5,3.2-4.6,11.7-9.9,16-15,3.4-4,7.2-7.3,6-13l-2.4-.4-14.2,11.8c-1.9.4-2-.8-1-2,6.9-8.5,22.9-22.6,32.2-28.8,7.7-5.2,16.6-8.5,24.3-13.7.3-1.1-9.9-10.5-12.8-8.3-3.4,8.8-12.2,12.2-18.6,17.9-11.8,10.3-20.9,21.7-30.5,33.4-2.3,2.8-6.1,8.4-8.6,10.6-1,.9-2.2,0-2.3.1-1.6,2,.6,7.3-6.1,4.9,3.1,9.3-3.6,4.8-8,8-.9-1.1,8.7-15.2,10.2-17.3,7.3-10.4,17.8-23.4,27.3-31.7,10.7-9.3,25.1-14.7,31.5-28-3.3-.5-5.5,1.8-8.5,0-10.5-6,.4-20.2-12.5-19.1-.7-6.6,1.9-12.6-.6-18.9-1.6-4.1-4.6-3.2-5.4-4.8-2.4-4.6-4.4-14.3-6.8-20-13-29.9-30.4-55.6-56.2-75.8l-.9-4.5c2.1-.5,2.7.7,4,1.5,13.5,7.9,43.7,31.9,52.9,44.1,4.6,6,3.8,10,6.3,16.7,2.6,7.1,7.5,13.8,8.8,21.7h-.1ZM339,263l-1.5,5.5,1,13.5,1.2-4.2-.7-14.8Z"/>
      <path class="st1" d="M260.2,303.8c.7.8,2.6,1,3.8,1.3l-3.1,4.5-18.9,7c3.3,5.6,18.1,7.3,17,14-.9,5.8-5.9-1.2-9.1,0,1.8,7.2,8.3,4.2,10.8,8.2,3.2,5.2-3.7,6.3-1.4,9.3,1.7,2.2,12.5.7,14.5,4.5-5.7,8.9-16.6,3.4-7,17.5l1.1-1.8c5.8,1.1,11.4-2.6,16.9-.2,1.6,2.2-9.5,8.1-10,11l19-.5c-9.3,5.9-13.5,13.6-17.5,23.5-2.4-1.7-1.9-7.6-2.7-8.8-1-1.6-16.2-4.8-17.8-8.7-1.5-3.5,9.9-1.4,9.5-4.5-1.7-2.4-17-9-20-9.1-7-.3-13.5,13.7-15,14.1-3,.7-3.4-8.9-8.5-6.5-1.1.5-14.2,15.9-15.2,17.8-1.5,2.9-3.4,6.9-.3,9.7,3.4-2,28.4-8.2,29.5-7v3l-29.9,7.1c-2,2.6.2,27.4.8,31.4.4,2.8,2.3,4.1,1.1,7.4l2.9,1.1c-1.4-3.7,1.5-9.5,4-12.5.7-.8,2.3-2.9,1.9-.1-3.3,12.4-11.4,23.2-13.4,36.1-1.1,6.9.2,13.7-.6,20.4l-5-14c-5.1.3-2.4,7.9-3,11.5l14,38.5c-.7.7-5.4-4-5.8-4.6-12-16.4-18.9-38.5-17.1-58.9,1.5-17.7,14.2-35.8,13-54.5-.5-.5-11.6,3.6-13.3,4.2-4,1.6-20.9,8.1-23.1,9.9-4.5,3.7,0,13.4-9.6,11.9l1-7c-.9-.9-8,3.4-9.3,4.2-11.1,6.3-22,14.5-33,21l-34.7,26.8c-.4-1.9,1.1-2.4,2-3.5,12.1-14.4,35.7-30,51.7-40.3,4.8-3.1,19.9-10.3,22.6-13.1,1.3-1.4,2.8-7,4.9-8.8l4.6,2.3-1.3,4.5c12.3-7.3,25.9-12,39.5-16v-14c-2.7-.9-1.5,1.6-2.7,2-3.6,1.1-5.7.6-9.6,3.2-.7.5-8,7.9-6.6,3.4.7-2.5,7.1-8.1,9.2-11.8,5-8.9,8.6-19.8,14.4-28.6,4.3-6.7,12.3-10,13.4-18.1-2.1-.4-2.6.2-4,1.5-8.3,7.6-16.3,20.7-24.5,29.5s-24,25.3-35.5,26.6c-7.8.9-8.9-8.8-4.5-13.6,4.1-4.5,20.4-12.2,26.9-17.1s23.1-21.1,27.7-27.3c2.2-3.1,4-6.7,2.6-10.6-4.2-6-19.4,11.6-24.3,12.9-5.9,1.5-8.8-4.5-11.8-4.9-3.9-.4-3.5,5.6-8.4,4.1-2-10.6,11.7-23.3,20.9-26.4,4.9-1.6,22.5-2.2,24.1-3.1.8-.5,1.2-2.2,2.1-2.9,2.9-2.3,6.7-3.9,7.9-7.6l-13-3c7.2-2.2,13.8-1.2,20.5-5,8.5-4.8,15.6-14.5,23-21,6.3,4,8.9,9.5,10.2,16.7.6,2.9-.2,10,1.5,12h0v-.2h0ZM252.8,296.3c-2.9-1.2-5.5.8-5.3,3.8l11.6,4c.4-.3-5.8-7.5-6.2-7.7h-.1Z"/>
      <path class="st1" d="M736,84c-.5.2-1.4,0-2,0l2,8,5-1,.2,4.8,1.8.2-2,3c2.8.4,5.2,2.4,7.2,4s0,3.2,5.2,0l1.5,2c.7-1.9-1.5-3.5-1.6-4.5,0-1.6,2.8-5.1,2.2-8.5-.7-4.5-4.8-7.2-8.6-3.9-.2-3.9-.6-7.1,3-9.5-6.6-3.2-2.4-8.7,1.6-12.4l5.4,1.9-2-3.5c2-1.5,4.2-2.5,4-5.5l-2.4.9-1.5-2.3,4.4-5.6,1.4,3.4,2,.6c0-3.5,1.1-4.9,4-6.5l-2-1.5c3.6.3,1.5-4.9,5-4,2.2,4.8,8.5,6.5,8,13-5.7-.4-5.9-5-11.5,0-4.9,4.4-8.7,10.5-6.5,17-5.2-1.3-4.8,1.7-7,3.4-.5.4-2.5-1.6-3,3.1-.2,2.5,1.5.7,3,2.1,4.1,4,13,24.4,13,29.8v27.5l-1.4-7.1-4.4-.8c-.5,1.4-1.3,2.8-1.6,4.4-.3,1.8-1,10.7,1.5,10.1h3.9c0-.1-6.1,20.6-6.1,20.6l-17.4,16.8-1.7-4.9h-2.8c0-.1,1-3.1,1-3.1l-3,2c-1.9-2.6.7-6.1.7-6.5,0-1-3.6-3.1-2.7-5.5-2.6-.8-3.5,2.2-4.5,2.8-.3.2-2.4-.6-3.3.4-.2.2-1.9,5-1.9,5.4-.3,3.4,2.5,7.1,2.5,8.7,0,3.5-5.5,7.9,3.2,7.7v3l-2-1-3,8.5-2.6-.5c-2.2-3.4,1-6,1.1-7.6,0-.8-1.2-1.9-1.1-2.9,0-2.8,1-5.6.5-8.6l-3,1.5c1.7-4.6,0-12.8,1-16.8.3-1,2.2-.9,2.8-2.4,3.3-7.7-.3-15.1-.7-21.9-.5-10.1,1.7-24.2,1.9-34.9.2-7.1-1.8-29.2-.7-33.6.4-1.7,2.1-2.4,2.4-3.7.9-3.3-.6-7.7,1.2-11.3l1.5,5c1.8-5,4.3,0,6-5l5.5,5.5-3,3.5c1.8.7,2.6-1.8,3.5-1.8,1.5,0,5.8,5.6,4.5,7.8l-3,.5,3,2.1-.9,3.2,1.8.2c0,5.1-4-.5-4.1-3h-4.9c-1.1,2.5-.5,4.4,0,7,5.5-1.8,5.7.7,6,6l-1-3c-3-1.2-.8,3.3-4,1.5-1.5-1.2-.7-3.1-1-4.5h0l.5.2h0ZM730,106c6.2-3.5,1.8-12.1,3-18-3.2,1.1-1.3,4-1.5,6.1,0,.9-1.4,2-1.4,3.4,0,2.6,1.7,5.2,0,8.5h0ZM754,106c-.5,3.7-4.3,7.6-.5,11,7.1-5.8,5.1-14.9,4.5-23-1.7-.2-1,2.3-1,3.5,0,3.9.8,7.6,0,11.5l-3-3Z"/>
      <path class="st1" d="M127,222c-1.7.9-1.8,2.6-2.2,2.8-3.6,2.1-14.9-6.5-18.8-7.4-2-.5-9.9-.4-11.9.2-1.7.5-3.2,2.4-4.7,2.4s-.4-1.9-1.2-2c-9.9-2.4-30.1-.2-40.6-.2s-20.9-2.4-31.7.2c1.2-2.3,7-2.8,9.5-3,13-1.1,27.3.8,40,.8s10.6-.1,14-2.8l-.5,3,10.4-1,1,1.9,12.6-.9c1.6-1.2-5.9-5.5-6.6-6.4-15-16.1-10.8-42.6-15.4-62.6h3.9c-.5-4.7,5.5-1.9,4.1-8l4,1v-7l-4-1,.6,4-3.6,1,1,4-6,.5,4-12-1.9-.9c1.9-13.1,7.7-25.3,12.4-37.6,2.6-6.9,3.6-14.8,9-20.7l3.6,1.2c-2.9,3.7-5.5,8.6-6.9,13.1-1.2,3.8-3.7,13.2,2,11.9,1.8-5.8,5.4-20.2,11.3-22.6,1.2-.5,2.6-.8,2.7.7,0,.9-6.6,13.2-7.7,16.3-13.5,36.8-20.8,61.9,1.9,96.6,5.5,8.4,17,19.8,19.8,29.2,1,3.5-5.2-.8-6,2,1.2,1,1.8,2,2,3.5.7-.4,5.8-1.9,6.2-1.9,4,.8,4,6.8,8.2,3.8l4.6,4c-6.3-.5-6.6,4-10.5,8l-11.5-5c2.2-2.9,3.6-5.2,3-9h-.1ZM95.1,117.9v-2.4c-3.9.2.9,5.7-3.6,7.3l-3.5-1.8.5,4.1,7.5,1.9c-.2-1.9,0-3.3,2-3v-1c-1.2.6-3-1.8-3-2.5,0-1.9,4.3.7,3-2.5h-2.9Z"/>
      <path class="st1" d="M340,557c19.6,8.8,24.2,39.7,41.5,53,9.4,7.2,21,9.6,32.1,13,.8,4.3-2,15.6-7.6,9.5-1.1-1.2-.8-3.1-1.1-3.5-.2-.2-3.3.6-5.3,0-6.5-2-18.5-7.2-23.6-11.5-1.7-1.4-.4-4.5-2.6-5.3-2.5-.8-1.5,1-5.4-3-3.5-3.7-13.1-19.8-15-20.7-1.6-.7-3.3-.6-5-.5l1,14.5c-.1,2.6-5.5-4.3-6.1-5-.7-.8,0-2.2-.1-2.4-1.4-1.1-6.7-1.1-3.8-5.1-2.3.4-5.8-3.2-7.6-5-1.4-1.4-10.5-13.5-10.4-14.4l1.9-2.7-4-.5,2-6.5-3.5,3c-3.1-.3-1.3-13.7-1.5-16,6.6,0,2.6,2.8,2.5,4.5-.2,3.1,1.1,6.2-1.5,9.5,5.5,0,2.6-7,4.5-10.1l4.5-1.4-5-.5,1-9,2,5,2.5-2c2.6,4.2,11.9,9.1,13.5,13-1.4-.6-5.2-1.2-7-2l1,3h-3v-5l-3,1.5c1.4,3.8,2.1,5.5,6,7l-2,.5c-.5,3.4,2.4,6.1,3.5,2l7.4,1c.3-2.3-2-2.8-2.8-4.7-.5-1.1,0-2.7-.2-3.3h.2ZM342,566l-6,.5c-3.3,6.4,2.9,5.4,4,6.1.6.4.6,1.8,1.8,2.4.7.3,6,1.3,6.2,1,1-5.7-8.7-4.4-6-10h0Z"/>
      <path class="st1" d="M277.4,489.6c13.8,13.7,25.5,26.7,36.4,43.1l.2,23.3c-5-4.9-11.9-21.4-19-10.5-.2.5,1.6.3,2.3,1.7s6.3,14.2,5.7,14.8h-4.5c-4.4-6.9-8.9-13.7-13.6-20.4-1.2-1.7-5.2-5.7-5.6-6.6-.5-1.1,3-3.4,1.1-6.1-1.1-1.5-7.5,0-8.6-3.9,5.9.7,2.2-5-1-1-1-3.3-4.7-7-8-8v-2l6,1-1-4c-2.5,1.9-2.4,5.3-4,0l-3,2v-4.4l2.9-.7.6-2.9c2.5.9,1.5,3.7,1.6,3.9.7.6,4.8,1.5,7.1,3.1,2.5,1.8,5.6,6,8.3,8,7.6,5.7,16.5,10.2,25.5,13-3.9-6.5-11.4-9-16.9-13.6-9.6-8-14.6-25-21.1-35.9,0-1.4,1.1-1.4,2.5-.5,2.4,1.6,4,4.8,5.9,6.6h.2Z"/>
      <path class="st0" d="M423.8,472.2c3.3-.2,6.8,1,9.2,3.2,8,7.4,4.8,30.6,6.9,41-1.3,6.5-21.7,5.9-26,1.1-2.2-2.5-4.1-15.4-5.2-19.8-1.3-5.1-4.8-8.4-2.3-13.8,3.2-6.8,9.8-11.3,17.4-11.8h0Z"/>
      <path class="st1" d="M321,373c-3.3,15.4-3,31.3-4,47l-1-3.5v-9.5c-1.8-.3-.6,1.6-1.3,2.7-.3.5-1.6.2-1.6.3-.4.6,1.6,1.5,1.6,2.5s-1.2,1.3-1.2,2c0,1.4,3.1,2-1.4,5l5,1.5c.4,2.9-2.9,2.3-4,5.5-.9,2.7,2.4-.2,2.9,2.1v7.4c-8-.6-10.1.3-14.8-6.7-4.3-6.5-6.2-11.1-10.2-16.8s-2.6-13,1.1-19c.8-1.2,2.6-1.6,2.7-1.7.3-.5-3-6.8,1.6-10.9,3.9-3.5,6-.8,9-1.5,2-.4,9.1-3.3,11.3-4.2,1.6-.7,1-3.3,4.2-2.3h0ZM316,389c-4.8-.2-3.5,1.5-5,2.6-1.9,1.4-4.4.4-4,3.4l3-1,.5,3c1.9-1.8,4.2-1.8,3.5-5l2,2v-5h0Z"/>
      <path class="st1" d="M304.7,607.7c-.1.3-1.1-.2-1.7,1.7-.2.6-.2,3.7,1.1,2.1l1-2v27.5c-1.1.2-1.9,0-2.5-1-2-3.2.5-31.9-.4-38.6-.3-1.9-2-1.2-2.1-2,0-.7,1-1.7.8-2.2-.2-.6-6.3-8-7.8-10.6-7.4-12.9-13.5-27.8-20.8-40.2-.8-1.4-1.2-2.7-3.2-2.3,2.2,10.2.1,21.1,0,31.5-.3,16.1-1.4,37.5,0,53,.1,1.6.8,3,1,4.5l2.5-1,.5,4.5-3-2.5c-.5,1.8-.9,3.5-1.1,5.5-2.9,41.8,1,87-.9,129.1l-1.5,33.5c-1.8-1.3-2.3-2.2-2.6-4.4-3.4-25.4,3.7-58.9,1.5-85l-.5-78.9,4.1-2.6h-3.5c-.8-1.4.5-9.9.6-12.5,0-3-1.1-6.7-.8-9.2.3-2.3,3.9-3.8-.2-4.7,2.6-8.1.5-17,.5-25.1s2.3-34-1.7-40.8c-.6-1.1-4.7-5.4-5.5-5.6-3.8-.7-2.1,7.5-6.8,7-.8-3.5-2.9-.7-4.1-2-1.4-1.5-.9-4.1-1.6-5.3-.5-1-1.6-1-2.2-2.1-2.4-4.3-4.6-8.7-6.5-13.2.4-5,11.2,0,13.6,1.1,20.8,9.9,38.3,46,47.1,66.9,2.5,6,9.4,20.3,6.7,26.2h0v-.3h0Z"/>
      <path class="st1" d="M579,520c-.6,2.4,1.1,5,.8,7.5,0,.5-1.4.5-1.4.7-.7,3.3-1.6,5.3,1.6,7.3l-2,.5,2,4c-2.7.6-4.8,2-6,4.5l5,3-5,9.5c-1.7,0-.8-2.7-1.9-4.5-2.1-3.4-3.5.7-2.8,3.8.6,2.8,2.3,2.4,1,6.4-.5,1.7-13.5,16.8-14.8,17.3-2,.8-1.4-1.2-1.7-2.2-.5-1.8-1.4-5.9,1.7-5.8l3.5,1.6c2.2-1.9,1.3-4,1-6.5-2.7-.6-1.9,2.6-4.5,3-2.4.4-1.3-1.5-1.5-3-3.9,1.8-1.4,6.7-5,10l3,.5-2.5,4.5-.5-4h-3l-.8,5.5,1.8,1.1h3.9c-7.8,2.9-9.2,11.7-14,17.9l-11,14.5v-12.5l-3-2c14.4-17.5,26.7-35.7,37.5-55.5,2.7-5,9.3-21.3,12-24.1,1.2-1.2,3.1,1.7,2.5-2.9h4.1Z"/>
      <path class="st1" d="M713.6,220.7c0,.1-1.2.1-1.6,1s.2,2.9,0,3.2c-.2.2-4.2,0-6,2.1l2,3c.5.5,3.9-5.5,4-1.5l-15,18c-6.3,3.4-18.7,20.4-24.6,21.5-7.7,1.5-13.9-9.5-14.3-15.8-.7-9.7,28.2-16.3,34.4-22.2l2.5,2c-.5-4.7,4.2-4.4,7-6.6,3.9-3.1,7.4-7.5,11.6-10.4.7,1.1.4,4.6,0,5.7h0Z"/>
      <path class="st0" d="M468.7,515.7c-2.9,3-11.8,5.2-15.7,3.9-6.4-2.1-3-14.8-4-20s-3.4-3.6-3.9-7.1c-.3-2.1-.7-16.9,0-17.4,5.6-3.9,9.3,14.4,8.9,17.9,1.4-.1,1.8-4.5,1.9-5.6.5-5.1-.8-10.4,1.3-15.2,4.2-1.4,15.8,1.9,17.4,5.9.9,2.2-2.3,8.4-2.5,11.5-.4,4.4,1.1,8.2.9,12.9-.2,3.6-1.7,10.7-4.2,13.3h0Z"/>
      <path class="st1" d="M218,485c-2.9-.5-2.1-14-3-17l4,1c1.2-3.7-3.1-3.6-3.8-5.6-2.6-7.5,6-13.9,8.1-19.6,1-2.8-.4-7.5,2.8-6.7,0,14.5,7.5,29.2,16,40.5-1.9,1-4,.6-4,3.5h-1c.3-2.3-.7-2.3-2.9-1.9-3.1,5.8-1.9,12.5-3.1,18.8l3.4,1.2,1.6-2.1.5,2c2.8-4.7,6.7.3,8,0,.5-.1,2.9-5.1,6.4-4.2l.6-2.8,10.5,10.5c-3.3,3.9-2.4-.9-4.4-.5l-4.2,4c-9.1-4.2-19.5-8.2-28.9-2.1-4.1-6.2-5.7-11.7-6.5-19,2.2.4,8.6-7.8,8-10.5l-3-.6,2.8-2.4-.8-3.6c-1.4-1.4-6.9,7.9-7.3,9-.8,2,0,5.8.3,8h-.1Z"/>
      <path class="st1" d="M580.8,233.2l1.2,5.8c-2.8-.3-4.6,0-5.2,2.9l-2.8.6,6,2.5-.9-3.3,2.9-1.6c4,6.3.4,7.3-4.5,10.9-2.6-1.6-3-3.2-1.5-5.9-5.1,2-4.1-.8-8-1,3.1,6.6-2.4,8.2-5,13-1.7.3-1-1.4-.9-2.5.2-4.3,1-8.6.6-13l-2.7-1c-5.5,9.8-5.9,22.8-13,31.5,2.3-11.5-3.9-30.1-2-40.5.3-1.7,1.1-2.8,3-2.5.5,2.6,1.2,5.9,4,7l-1.1-4.3c3.4-1.6,2.3-2.5,3.1-5.6l-3,2v-4l3.5,1,.5-2-6-2c-.6,1.8-.3,4.7-3,4l-2-4.5c2.6-3.2,7.3-.7,10.5.5,8.9,3.1,17.1,9.6,26.3,12.2h0v-.2h0Z"/>
      <path class="st1" d="M671.9,469.1l-.8,6.5,2,1c-2.9,4.3-1,7-1,10.9,0,78.8,0,157.8,1,236,0,1.3,0,7.1-2.6,6.5l-.5-74.5c-.2-16.4,0-32.7,0-49.1-.3-32.1-.4-64.8-1-97,0-5.1-3-40-1-41.5l3.8,1.1h0Z"/>
      <path class="st1" d="M617.9,553.9h-5.9c-1.1,50.2,1.4,100.6,0,150.7,0,1.9-.9,3.5-1,5.1,0,2.5,2.9,9.4-2.1,9.4v-159.5l3-20c-.5-3.9-8.2-3.6-7-6l10.5-7.5c3.2-1,0,4.9,2.5,5v-6.9l4-1.7,2,1.1-6.1,30.3h0Z"/>
      <path class="st1" d="M483.2,628.8c-.8-.5-.7-3.5-3.2-2.8-.5,2.1,1.6,6.8-2,6-.5-3.5-2.2-6.3-6.1-4.6l-2.9,5.6,7-.5-5,1.5v7h-4l1-6c-2.8-.9-2,2.4-3.5,3-2.9,1.1-2.4-2.2-3-2l-4,3c-.5,0-.8-2.7-2.9-3.5-2.8-1.2-13.7-.2-10.5,4.5,1.7.5.4-1.9,1.6-2.1,1,0,2.4.9,3.8.8,1,0,5.9-2.3,6.6-1.7,2,2-3.5,1.6-2,4h7c-1.8,2.6-5.8,1.1-5,6l11.5-4,.5,3,1-3c3.1-.5,4.4,3.9,1.3,4.8-2.6.8-6-.8-7.4-.3-3.6,1.4-13.1,16.5-17,13.5-.7-1,2-3.5,2.3-3.7,1.9-1,4.4,1,3.7-2.3l-3-.8-.5-1.3-.5,2h-1.5c-.2-4.5-12.5-3.6-12.5-5.5,3.9-1,5.3-7.8,6.5-8.5,3.3-1.9-1.5,6,2,3l.4-3.4c-5-1.8-3.7-4.3-6.1-8.4-7.5,1.4-7.9-1.4-8.8-8.1,11.1,2,22.3.8,33.5.9,2,0,4.5,1.3,5.8,1.1.6,0,.5-1.7,1.4-2,8.7-2.4,17.5-3.7,25.2-9.1-.8,2.3.1,9-.9,10.5-1.6,2.5-7.3,4.7-9.9,3.2h0v.2h.1Z"/>
      <path class="st1" d="M496,623l-.5-9c3.7-3.8,8.5-5.9,11.9-10,4.4-5.4,6.9-13.5,10.4-19.6,9.2-15.7,19.7-30,32.2-43.3,0,1.8.2,3.5-.2,5.3-2.3,10.4-31.7,53.5-39.8,63.2-4.1,4.9-9.3,9.2-14,13.5h0Z"/>
      <path class="st1" d="M599.7,560.3c2.6,3.2,1.1,41.2,1.2,48.3,0,2.4,1,4.5,1.1,6.9.6,41.7.3,83.2,1,124.9l-3,1.7c-.3-13.2.3-26.4,0-39.5-.8-39,.5-79-1.1-117.9-.2-5.2-.2-16-1-20-.4-2.2-3.1-4.9-5-6,1.1-1.3,6.2,1.1,6.7,1.8h0v-.2h0Z"/>
      <path class="st1" d="M718.8,323.9h-1.8c0,.1,4,3.1,4,3.1-.2-4-1.8-7,0-11,2.2.7,3,2.9,3,5l2-2c0,.7,0,1.6.7,2,6.6,4.6,19.1,15.7,23.2,22.6,4.3,7.4.2,13.9-7.8,8.8-7.2-4.5-13.1-17.3-19.3-22.1-.3-.2-5.7-1.4-6.6-2.5l-.2-14.8,3.6,2-.8,8.9h0Z"/>
      <path class="st0" d="M424.3,605.8c-1.8-1.9-2.2-17.8-3.3-21.8l23-2.6c.7.5,2,12.6,1.7,13.9-.1.6-5.8,10.2-6.2,10.6-2.9,3.1-12.5,2.7-15.2-.2h0Z"/>
      <path class="st0" d="M468.5,573c2.5.2,3,18.1,2,21-1,3-12.1,10.8-14.9,9.9-2-.6-4.3-14.2-4.4-16.7-.2-10.5,10-10.8,17.2-14.2h0Z"/>
      <path class="st1" d="M72.4,487.4c-22,26.1-42.6,45.3-58.9,76.6-2.6,5.1-4.3,11.6-6.7,16.3-1.5,3-5.1,2.3-4-.9,5.7-16.2,21.2-39.4,31.8-53.3,4-5.2,36-42.9,38.9-43.1,4.2-.2-.9,4-1.1,4.3h0Z"/>
      <path class="st1" d="M595,703c-2.8.5-1.7-.6-2.1-2.3-3.5-12.9-3.5-39.8-3.9-54.1-.3-13.3-.8-29.9,0-43,.2-3.8.8-10.3,2.6-13.5l3.5,113h0Z"/>
      <path class="st1" d="M455,663l.5,3,.5-3h3l-2.5,10-1.5-2c.2,2.1.1,2.3-2,2l1-2.4-2-2.6-3,2-1-2c.1,2.3-.5,3.9-3,4v2l3-1c.3,10.2-.4,20.4,0,30.5.4,12.3,2.6,25.6,2.1,38,0,1.8.2,3.3-1.6,4.5-2-1.2-1.2-2.8-1.5-4.5-3.6-22.4-.3-49.1-3.1-72l3.6-5.5,2.5,3c-.7-3.6,2-3.9,5-4h0Z"/>
      <polygon class="st1" points="623 719 623 823 619.9 820.5 620 719.6 623 719"/>
      <path class="st1" d="M570,727l-3-.6c-1-11.4-3.8-22.5-5-33.9-2.8-26-2.7-53.3-4.1-78.9-.2-4.7-.2-10.1,1.1-14.6l2,9.5c-.3,39,3.1,77.6,7.5,116,0,1,2,2.1,1.6,2.5h0Z"/>
      <path class="st1" d="M781,47l-5.5-3-.5,1.9h-1.9c-.4-4.5-3.6-5.5-5.6-7.8-6.8-8-13.1-14.2-21.5-20.6,0-2.2,1.4-2.3,3-1.5l-1-7c1.4-1.7,20.8,20.2,22.5,22l10.5,16h0Z"/>
      <path class="st1" d="M194,285l1,3,4-1,.6,4c-2,4.2-19.4,2.1-23.6.5-3.9-1.5-6.5-5.1-10-7,.9-2,10.8-1.3,13.5-1.5,3.8-.4,15-3,17.5-1.5,3.3,2.1,1.6,6-3,3.5h0Z"/>
      <path class="st1" d="M167,46c-15.3-2.5-28.5-.4-41.5,8-.7-3.2,3.7-6.4,5.5-8.5.2-.7-1-.7-1.5-.5-1.3.6-9.8,8.8-11.6,10.5-3.9,3.9-7.1,8.6-10.9,12.5,6.4-14.2,19.8-28.8,36.5-28.1,6.5.3,18.7,1.8,23.5,6.1h0Z"/>
      <path class="st1" d="M206,271l-3-4-2,2c.4-3.3-4.1-1.9-5.8-3.2-.9-.8-1.1-3.9-2.8-4.8l-.5,3-3.5-2c-1.6-1.7,4-.2,0-3-1.1,1.3-2.1,2-3.9,2-7.3-.3-31.5-10.8-37.7-15.4-1.1-.8-2.5,0-1.9-2.6l51.2,17.3c4.6,2.1,8,6,9.8,10.7h0Z"/>
      <path class="st1" d="M425,656c1.9-.7,2.8,1.5,2.9,2.6.2,2.6-2.1.4-1.9,2.4l3,1,1-6c8.3,5.3-3.9,9.2-4.5,16-3.3-2.4,1.7-4.8.5-8l-3,2c0-7.9-4.7.6-5.4.7-1.3.2-5.3-1.3-6.1-2.7-2.6-2.8.9-6.5.5-9.3,0-.4-4.4-3.5-3-6.7,7.7,0,11.4,5.9,14.5,12l1.5-4h0Z"/>
      <path class="st1" d="M84,224c.2,2.6,0,1.6-1.5,1.9-6.8,1.3-10-.6-16-.8-15.9-.3-40.2-2.5-54.9-1.2-2.9.3-4.7,3-7.6,2.9,5.5-8.1,13.5-4.3,21.5-4.3,17.4,0,34.1,1.7,51.2,1.9,2.5,0,4.5-2.1,7.3-.7h0v.3h0Z"/>
      <path class="st1" d="M632,353l-2,4c11.8-1.3,15.8,12,9.5,20,.2-12.7.3-21.2-15.3-16.3-4.9,1.6-7.7,4.9-11.5,6.5-1.2.5-2.3,1-2.7-.7,2.7-7,10.6-6.9,16.2-9.7,2.3-1.2,3.1-3.8,5.8-3.7h0Z"/>
      <path class="st1" d="M609,832l2.5,1c-.8,1.7.5,3.7.5,4.5v44l-1.5,1.5-1.5-1.5v-49.5Z"/>
      <path class="st1" d="M724,295l-1.5-3c-1,1.6-3.2,2.2-4.2,3.3-1,1,1.2,3.6-3.3,2.7,2.1-1.9-.5-9.5,2.4-8.9,4.1.9,22,12.1,20.2,15.9s-8.8,0-11.5-1.6c-3.7-2.2-10.5-8.3-2.1-8.4h0Z"/>
      <path class="st1" d="M509,653.5c.2-.8,3.5-3.3,3-5.5l3,1c.6.5-3,3.1-3,3.5v40l-1.5,1.5-1.5-1.5v-39Z"/>
      <path class="st1" d="M505,629c.1,1.4.1,2.7-.5,4-1.2,2.5-18.3,11-21.9,12.2-3.2,1-2.1-1.5-3.6-3.7l14.5-8.5,2.5,3-1-4c2,0,4.1.9,4,3l4.6-2.9c.8-.9-2.4-3.8,1.4-3.1h0Z"/>
      <path class="st1" d="M158,363c.2,1.5-2.6,1.8-3.6,1.9-4.1.4-11.2,1.1-13.9-1.9l-1,2-1.5-5-2.4,1.9c-4.3-2.5-10.9-4.7-10.6-10.9,5.6-1.3,6.4,5.6,8.7,6.8,1.6.8,10.7,3.4,13.1,3.9,3.4.8,7.7.4,11.2,1.3h0Z"/>
      <path class="st1" d="M737,374c-2.5,2.3-20.7-12.8-17-19l-3,1v-8c1.6.5,1.4,3.1,2.5,4.9,1.9,3,5.5,7.3,7.9,10.1,1.1,1.3,10.8,9.8,9.5,11h0Z"/>
      <path class="st1" d="M156,237c.3-.1.9.2,1.3,0,1.1-.7,0-2.3,1.6-2,1.2,2.6,2.6,2.7,1,6h3v-6c2.4,2,4.2,2.2,7,1v3l2-1v5l3-2v2.5c-1.5,3.7-15.2-1.6-18.1-3.2-.4-1-.9-2.2-.9-3.3-1.6.8-2.7,2.5-5,2,.9-3.2.3-5.9,3.5-8l2.4,1.6c.4,1.4-1,3.2-1,4.4h.2Z"/>
      <path class="st1" d="M443,180l.5,1.9,2.6-.4c-2.1,8-4.2,16.3-8.5,23.5-.8,1.3.2,2.5-2.5,2,2.3-6.7,3-14.6,5.1-21.2.3-1,3.6-.8.9-5.2l2-.5h-.1Z"/>
      <path class="st1" d="M729,37c-3.9-1.3-7.2-4-11-5.5-6.8-2.7-14.2-3.4-21-6,4.3-5.8,6.2-.2,9.5.5,3,.6,6.6-.9,8.6-.5,1.9.4,11.4,9.6,13.9,11.5Z"/>
      <path class="st1" d="M661,215v9l-5-3c-.4,3.5,2.5,1,2.7,4.9.3,5.9-6.9,7.9-5.8-.5.3-2.4,2.5-.5,2.1-2.9-2-1-2.4-.8-2-3.5l3,1c-2-3.8,1.3-5.4,5-5h0Z"/>
      <path class="st1" d="M540,443c-.2,2.7-.4,5-3.1,6.4l-18.9,9.5c-1.2-1.1,20.8-17.2,22-16h0Z"/>
      <path class="st1" d="M522.2,606.8l1.8-.8c1.2,4.6-6.7,6.3-6.8,9.7,0,2.3,1.4,2,2.8,1.4-.5,3.1-3.8,2.4-1,7l-3,1-1-5.6-4-.9,10.5-13.5.7,1.8h0Z"/>
      <rect class="st1" x="300" y="682" width="3" height="25"/>
      <path class="st1" d="M525,552l-17,24c.9-4.6,9.1-21,12.4-23.1,1.6-1,2.8-1.2,4.6-.9h0Z"/>
      <path class="st1" d="M424.9,624.1l2.1,9.9-1.5-2-1.5,2v-5c-1.1,0-2.2-.2-3.3.2-1.8.6-2.7,3.8-4.2,1.8l-1.5-8,9.9,1.1h0Z"/>
      <path class="st1" d="M537.2,457.1c3.3-1,6.9-3.6,10.2-4.3.9-.2,2.2-1.4,2.6.7.8,3.7-9,7.4-11.5,9.5l-1.3-5.8h0Z"/>
      <path class="st1" d="M138,410c3.2,3-12.5,10.5-15,10-3-2.9,12.1-11.4,15-10Z"/>
      <path class="st1" d="M61.6,525.6c-.5.8-2,1.3-2.9,2.6-1.2,1.7-2.1,6.9-4.7,5.3,7.5-10.8,12.5-23.4,22-32.5-.4,2-2,4.7-3.1,6.4-3.8,5.6-7,12.2-11.2,18.3h-.1Z"/>
      <path class="st1" d="M639,561.5c-.4,1.6-2,1.6-3,0-1.6-2.4-2.6-21,3-15v15Z"/>
      <path class="st1" d="M646.4,266.7c.2.5,2.5.1,1.6,2.8-2.8,3.1-3.8,3.4-7.9,3.6,1.1-4.2-3.1-3.9-2-8,3.4.3,1.2,3.5,6,1l-3-1,1-4c4.2,1,3.2,3,4.4,5.7h0Z"/>
      <path class="st1" d="M715,429c-6.7,1.1-9.6-5.1-7-11,5.8-.3,6.9,6.4,7,11Z"/>
      <path class="st1" d="M256,393c-1.6,1.5-12.7-7.1-14.9-8.1l.9-2.9c.9-.8,16,9.1,14,11Z"/>
      <path class="st1" d="M92,240c.8,3.5-4,1.6-6.4,2.1-5,1-8,3.1-13.6.9-.8-3.4,4-1.6,6.4-2.1,5-1,8.2-2.6,13.6-.9h0Z"/>
      <path class="st1" d="M745,193l-9.5,10-.5-2-3,4,2-.5v1.5l-3,1c-3.5-4.9,9.5-13.9,14-14h0Z"/>
      <path class="st1" d="M724,70c-1.2,1.6-1.8,0-2-1.5-.8-6.1,1-13.2,0-19.5.9-1,5.2,2.9,5,4.5l-3,.5v16h0Z"/>
      <path class="st1" d="M309,577l-.9,2.5,1.6.7-.7,1.8h2.9v5c-1.9-1.2-7-3.4-7.7-5.7-1.4-4.4.9-6.2,4.8-4.3h0Z"/>
      <path class="st1" d="M270,410l-2.5,3-11.5-12c2.4-1.9,11,9,14,9h0Z"/>
      <path class="st1" d="M580,416c0,2-8.3,16.9-10,15,.8-2.5,6.6-17.7,10-15Z"/>
      <path class="st1" d="M47,557c-4.9-2.5,1.1-7.6,2.2-10.3,1.5-3.7,1.4-9.5,5.8-11.7l-8,22Z"/>
      <path class="st1" d="M727.6,417.4c4.5,4.2,4.8,6.8,3.3,12.6l-4.6-10.9-3.4-3.6c1-1.4,3.9,1.2,4.6,1.9h.1Z"/>
      <path class="st1" d="M183,62l-5.5,2.6c-3.8-2.7-6.9,1.6-11.5.4l1-3h16Z"/>
      <path class="st1" d="M303,443c-3.4-3.3-8.2-8.2-9-13,4.1,3,8.7,7.7,9,13Z"/>
      <path class="st1" d="M119,312c0,1.4-4.5,1.8-5.6,1.9-4.4.5-9-.2-13.4,1.1-.5-3,.8-1.6,2.4-2,5.5-1.4,10.9-1,16.6-1Z"/>
      <path class="st1" d="M411,398c.9,3.5-3.8.6-5.9,1.9l-.6-1.9-.6,1.8-4.8.2-1.1-4,13,2h0Z"/>
      <polygon class="st1" points="480 655 480 660 473 658 475 661 472.6 661 470 657.5 480 655"/>
      <path class="st1" d="M624,899c.2,1.9-1,3.7-1,5.5s2.7,7.6-.4,7.5c-2.4-3.3-1-9.1-1.5-13h3,0Z"/>
      <path class="st1" d="M723,0c.2,1.5-1.1,8.9-2.5,9-2.7-2.2-1.2-6-1.5-9h4Z"/>
      <path class="st1" d="M16,213c-1.8,2.8-8.6,2.3-11.6,2.1-1.8-.1-3.9.2-4.4-2.1h16Z"/>
      <path class="st1" d="M649,379v3l-11-2c.2-2.9,10.7-1.5,11-1h0Z"/>
      <polygon class="st1" points="633.9 303.2 636 307 633 308 637 309 631 310 631.9 307.4 630 305.5 633.9 303.2"/>
      <path class="st1" d="M481,454c.2,1.8-2.3.9-3.5,1-4.7.2-9.4,0-14-1-1.7-.4-3,1.1-2.5-2l20,2h0Z"/>
      <path class="st1" d="M316.1,593.9v-4.9c7.7-.7,7.6,7.2,0,4.9Z"/>
      <path class="st1" d="M485.9,669.9l-3.9-.4c5.1-2.2.3-10,5-12.5l-1.1,12.9h0Z"/>
      <path class="st1" d="M307,304c-1.3,2.8-.9,5.9-1.7,8.8-.5,1.8.3,2.6-2.3,2.2,0-3.3-.8-10.5,4-11h0Z"/>
      <path class="st1" d="M417,423l6.6,9.9v3.1c-2.9-3.7-6.2-8.2-6.6-13Z"/>
      <path class="st1" d="M322,171c-.5,1.7-7.1,4.8-8,4-2-1.9,3.5-4.2,3.1-5.9l4.9,2h0Z"/>
      <path class="st1" d="M500,393l4.5-2c4.5,5.3-.8,6.8-5.5,5l-1,3-2-7,3,2,1-5v4h0Z"/>
    </g>
  </g>
</svg>