<?xml version="1.0" encoding="UTF-8"?>
<svg id="Layer_2" data-name="Layer 2" xmlns="http://www.w3.org/2000/svg" viewBox="0 0 845.12 916.78">
  <g id="Layer_1-2" data-name="Layer 1">
    <path d="M636.11,635.94h204.14l-43.82,77.81h-200.23c-8.36,16.32-16.49,32.19-24.28,47.4h202.15l-43.83,77.82h-198.14c-24.23,47.35-39.77,77.81-39.77,77.81h-139.54s-15.54-30.46-39.77-77.81H114.88l-43.83-77.82h202.15c-7.79-15.21-15.92-31.08-24.28-47.4H48.69l-43.82-77.81h204.14c-20.88-40.66-42.11-81.94-62.24-120.99h86.41c17.32,25.57,46.62,42.38,79.83,42.38,15.54,0,30.22-3.68,43.22-10.22l-87.38-171.83c-24.18,12.48-42.39,34.91-49.25,61.86h-113.04c-29.05-56.08-52.5-100.96-64.13-122.3-49.19-90.33-63.5-161.89,0-249.54C105.93-22.35,271.85,3.59,271.85,3.59l125.31,253.12h50.8L573.27,3.59s165.92-25.94,229.42,61.71c63.5,87.65,49.19,159.21,0,249.54-11.63,21.34-35.08,66.22-64.13,122.3h-113.04c-6.86-26.95-25.07-49.38-49.25-61.86l-87.38,171.83c13,6.54,27.68,10.22,43.22,10.22,33.21,0,62.51-16.81,79.83-42.38h86.41c-20.13,39.05-41.36,80.33-62.24,120.99Z"/>
  </g>
</svg>