<?xml version="1.0" encoding="UTF-8"?>
<svg id="Layer_2" data-name="Layer 2" width="121" height="109" xmlns="http://www.w3.org/2000/svg" viewBox="0 0 121.01 109.74">
  <g id="Layer_1-2" data-name="Layer 1">
    <g>
      <path d="M49.91,78.21h-10.12l2.17-3.86h9.93c.41-.81.82-1.6,1.2-2.35h-10.02l2.17-3.86h9.83c1.2-2.35,1.97-3.86,1.97-3.86h6.92s.77,1.51,1.97,3.86h9.83l2.17,3.86h-10.02c.39.75.79,1.54,1.2,2.35h9.93l2.17,3.86h-10.12c1.04,2.02,2.09,4.06,3.09,6h-4.29c-.86-1.27-2.31-2.1-3.96-2.1-.77,0-1.5.18-2.14.51l4.33,8.52c1.2-.62,2.1-1.73,2.44-3.07h5.61c1.44,2.78,2.6,5.01,3.18,6.06,2.44,4.48,3.15,8.03,0,12.37-3.15,4.35-11.38,3.06-11.38,3.06l-6.21-12.55h-2.52l-6.21,12.55s-8.23,1.29-11.38-3.06c-3.15-4.35-2.44-7.9,0-12.37.58-1.06,1.74-3.28,3.18-6.06h5.61c.34,1.34,1.24,2.45,2.44,3.07l4.33-8.52c-.64-.32-1.37-.51-2.14-.51-1.65,0-3.1.83-3.96,2.1h-4.29c1-1.94,2.05-3.98,3.09-6Z"/>
      <path d="M91.66,39.76l4.9,8.86-4.43-.03-4.81-8.69c-.91.03-1.79.06-2.64.08l4.85,8.77-4.43-.03-4.76-8.6c-2.64.09-4.33.14-4.33.14l-3.35-6.05s.95-1.41,2.42-3.59l-4.76-8.6,2.32-3.77,4.85,8.77c.47-.7.97-1.44,1.47-2.19l-4.81-8.69,2.32-3.77,4.9,8.86c1.26-1.88,2.54-3.79,3.76-5.61l2.07,3.75c-.69,1.37-.72,3.04.08,4.48.37.67.89,1.22,1.48,1.63l5.36-7.92c-1.12-.75-2.53-1-3.87-.65l-2.71-4.9c1.74-2.61,3.12-4.7,3.77-5.72,2.74-4.3,5.5-6.64,10.83-5.99,5.33.65,8.19,8.47,8.19,8.47l-7.97,11.52,1.22,2.2,13.99-.64s5.11,6.58,2.83,11.44c-2.28,4.86-5.73,5.96-10.83,5.99-1.21,0-3.72.07-6.85.15l-2.71-4.9c1-.94,1.54-2.27,1.5-3.62l-9.55.33c.03.72.22,1.45.59,2.12.8,1.44,2.23,2.31,3.76,2.45l2.07,3.75c-2.18.06-4.48.13-6.74.2Z"/>
      <path d="M29.08,39.8l-5.14,8.72,4.43.09,5.04-8.55c.91.05,1.79.11,2.64.16l-5.09,8.63,4.43.09,4.99-8.46c2.63.16,4.33.26,4.33.26l3.52-5.96s-.91-1.43-2.32-3.66l4.99-8.46-2.22-3.83-5.09,8.63c-.45-.72-.93-1.46-1.41-2.23l5.04-8.55-2.22-3.83-5.14,8.72c-1.21-1.92-2.44-3.86-3.6-5.71l-2.18,3.69c.66,1.38.64,3.06-.2,4.48-.39.66-.92,1.2-1.53,1.59l-5.14-8.06c1.14-.72,2.56-.93,3.88-.55l2.85-4.83c-1.66-2.65-2.99-4.79-3.61-5.82C27.7,1.98,25.01-.44,19.66.07c-5.34.5-8.42,8.25-8.42,8.25l7.66,11.73-1.28,2.17-13.97-1.02s-5.29,6.43-3.14,11.35c2.14,4.92,5.56,6.11,10.66,6.29,1.2.04,3.71.17,6.84.34l2.85-4.83c-.98-.97-1.48-2.31-1.4-3.66l9.54.6c-.05.72-.26,1.44-.65,2.1-.84,1.42-2.29,2.25-3.82,2.34l-2.18,3.69c2.18.12,4.47.26,6.74.39Z"/>
      <circle cx="60.5" cy="47.79" r="10.93"/>
    </g>
  </g>
</svg>