<?xml version="1.0" encoding="UTF-8"?>
<svg id="Layer_2" data-name="Layer 2" xmlns="http://www.w3.org/2000/svg" viewBox="0 0 942.92 959.01">
  <g id="Layer_1-2" data-name="Layer 1">
    <g>
      <path d="M551.9,5.01c-.16,1.29.2,1.7,1.37,2.17,10.49,4.17,30.53,5.53,42.66,8.31,61.59,14.11,139.47,62.45,186,105,65.72,60.09,112.99,152.47,145,235,6.36,16.4,11.69,33.5,15.99,50.5-2.18,1.38-6.13-9.33-7.06-11.44-1.54-3.5-2.4-7.31-4.19-10.8-.84-1.64-2.29-4.78-3.74-5.75l6.14,53.27,1.35,1.72,2.51-1.49c-.65,2.74-2.67,3.95-3.06,6.95-1.69,13.26.46,31.99.08,46.1-2.82,104.63-52.11,230.82-123,307.97-21.28,23.16-45.08,40.82-67.17,61.87-.57.54-2.17.32-2.65.86-1.23,1.41,1.78,3.22-3.15,2.21-35.3,27.33-73.09,48.34-115.28,62.61-42.77,14.47-102.58,31.39-148.24,32.95-4.66.16-9.37-.2-14.04-.04-.93-.11-.88-1.21.15-2.11,2.32-2.02,10.5-2.36,13.83-2.94,1.78-.31,2.98,1.09,2.52-1.95-9.91,2.9-19.57.98-29.45.94-67.16-.26-110.6-7.11-172.53-34.47-17.14-7.57-34.15-17.36-50.54-26.47l-1.48.48,2.71,2.99-.96,2.27c-4.16,2.7-10.3,1.2-8.28-4.77l5.52-2.98c-2.96.42-3.53-2.16-4.74-2.98-4.39-2.98-9.8-5.56-14.19-8.6-75.42-52.22-134.06-121.22-167.81-207.19-2.88-7.34-4.5-16.87-7.34-23.46-4.64-10.8-9.33-15.23-12.47-28.73-1.51-6.49-1.82-11.19-3.83-17.13-3.13-9.23-2.61-17.33-5.61-26.4l4-2.02-3.96-3.14c-.48-1.76,1.4-2.76,1.54-3.9.46-3.74-4.72-25.36-5.41-31.12-4.27-35.52-4.52-87.68,1.95-122.71,1.76-9.51,8.6-26.97,8.86-35.28.08-2.64-2.08-3.03-1.98-5.35.91-.03,2.3.03,2.99-.49,1.86-1.4,10-35.63,11.75-41.29,18.03-58.02,43.78-100.23,81.23-146.99,5.29-6.6,9.42-13.18,15.07-19.7,48.93-56.46,114.05-102.71,185-127.01C377.2,6.83,447.25-5.05,520.39,2.03c8.89.86,20.08,4.14,28.46,4.53,1.68.08,2.46-1.89,3.04-1.55ZM783.92,803c-.06.09-1.16-.28-1.99.73-23.31,28.41-57.14,49.86-85.84,72.17l-31.17,18.6c.62,1.03,3.26.57,4.25.25,18.29-5.82,55.79-34.24,72.29-46.75,33.74-25.57,70.46-58.5,92.36-94.5,1.29-2.12,4.52-3.39,5.76-4.84.95-1.11,1.07-4.17,3.33-5.17l-1.99-.5,1.98-1.98c-2.24.32-2.69-2.19-2.43-4.05,3.69-3.07,9.33-17.67,13.88-17.9,1.05-.05,2.82,1.28,3.43.87.81-.55,8.1-14.96,9.27-17.29,6.72-13.38,11.82-27.71,19.35-40.65l12.49-34c-9.96,9.1-10.92,23.66-20.49,32.98-1.91-1.31-1.56-2.26-1.29-4.24.82-5.94,9.01-25.48,12.82-30.21,1.11-1.37,6.31-6.22,7.58-6.45,3.25-.58.5,4.48,3.39,4.92.65-4.83,3.43-9.66,5.04-14.47,17.51-52.04,26.24-117.19,21.96-172.03-2.9-37.18-15.43-110.8-35.14-141.86-8.25-13-12.58-24.67-19.69-38.31-17.41-33.44-53.09-77.29-79.11-104.85-30.84-32.67-96.4-90.72-137.07-106.96-1.56-.62-4.46-2.21-5.97-1.03,11.02,9.98,23.72,17.76,36.13,25.87,19.64,12.84,38.54,25.91,55.36,42.65l3.76,2.02c14.37,13.79,30.47,25.68,43.74,40.48.28,1.46-.02,1.79-1.5,1.5-2-.4-8.75-5.41-10.71-7.01-7.86-6.4-15.77-15.33-23.57-21.99-30.17-25.75-55.35-46.58-90.85-64.87-17.38-8.96-35.82-16.21-53.57-24.43-11.41-5.29-18.93-11.08-31.75-14.25-48.66-12.04-116.62-22.49-165.61-13.53-1.77.32-9.57.37-10.31,1.21l-.13,2.85h-.98c-.93-5.11-11.45-.02-14.78.74-54.93,12.53-116.16,30.97-162.56,63.43-18.2,12.73-41.33,30.24-57.88,44.89-2.71,2.4-5.64,4.96-7.79,7.93,2.72-.62,5.65-2.93,7.92-4.57,20.61-14.9,41.25-35.11,62.77-48.23,3.15-1.92,6.4-4.58,10.31-4.18-3.93,10.25-14.27,14.12-22.24,20.03-19.96,14.78-41.84,29.65-60.24,45.94-2.42,2.14-11.17,9.15-11.54,11.51l4.02,1.52c-.6,3.18-3.47,4.85-4.11,1.15l-1.87-.15-28.52,38.99c-.88-15.51,17.89-25.38,25.2-37.9.47-.81,5.6-11.78,1.27-8.63-4.07,2.97-13.38,13.81-16.94,18.06-18.99,22.64-40.88,50.99-55.4,76.6-5.06,8.92-10.53,19.19-13.62,28.87,1.41-.26,2.04-1.7,2.72-2.77,9.57-15.14,19.24-38.39,30.42-51.58,1.76-2.07,4.77-3.77,6.84-5.65-.35,2.24-1.96,6.33-3.03,8.2-1.56,2.72-6.23,7.75-7.92,10.56-9.78,16.23-18.56,33.14-28.56,49.25h-5.43c-10.49,23.56-18.47,48.18-25.55,73-3.73,13.09-8.17,28.37-10.91,41.55-1.2,5.77-1.38,17.8-2.74,21.84-.46,1.38-2.69,1.48-2.89,2.12l.05,2.5,2.01-.5c-2.54,21.47-3.42,43.25-2.84,64.84,1.34,50.09,14.14,92.75,30.4,139.57,32.12,92.52,83.68,165.23,160.93,225.07,4.5,3.48,8.91,8.06,13.52,11.55,1.2.52,2.86-2.5,3.98-1.55,2.39,2.05-4.08,1.68-.95,3.45,25.77,14.65,47.62,30.79,75.78,42.23,4.06,1.65,13.98,5.82,17.7,6.31,1.56.21,1.7.1,1.46-1.48-1.15-4.14-4.85-2.75-7.89-4.11-74.66-33.25-135.24-79.9-185.05-144.18-3.95-5.1-17.58-23.47-19.49-28.28-.41-1.02-.79-1.76-.55-2.94.8-.1,1.49-.02,2.28.21,6.07,1.81,24.35,31.61,29.74,38.26,9.15,11.29,22.89,26.1,33.39,36.07,2.76,2.62,6.92,7.22,10.59,7.44,1.37-1.07-20.16-24.6-25-23-.06-4.74,6.72-2.01,9.16-.64,7.09,3.97,9.39,10.2,13.84,15.16,9.05,10.07,20.2,17.73,29.99,27.01-3.5,2.17-17.06-9.32-17.99-8.5,7.82,11.51,18.15,19.25,29.53,26.96,21.79,14.77,64.35,41.83,88.5,49.5,2.92.93,7.93,3.25,7.97-1.46-7.01-3-14.43-5.86-21.23-9.28-11.03-5.55-29.12-14.35-38.65-21.35-1.64-1.21-4.2-3.07-4.11-5.38.31-.27,6.92,1.09,8.03,1.46,7.36,2.49,21.63,12.97,29.75,17.25,25.7,13.56,52.24,23.41,80.21,31.29l-3.24.74-46.25-12.76.5,5.01,2.83-.26,1.16-1.74c.03,1.21,0,2.63.99,3.51.9.79,12.02,5.3,14.02,5.98,32.51,11.1,69.53,14.21,103.44,17.54l32.6-.57c4.08,2.64-4.09,4.17-5.65,4.41-33.94,5.24-99.72-7.55-133.39-17.37-5.2-1.52-10.12-4.45-15.55-5.46-2.83-.53-.13,2.86.62,3.38,4.67,3.25,27.39,9.11,34.18,10.82,41.23,10.4,71.18,15.64,114.3,14.8,55.87-1.1,126.27-8.39,175.3-36.7,5.84-3.37,11.52-9.17,16.18-11.78,2.66-1.49,8.24-1.03,9.97-5.56l-4.51,1.97c-2.95-1.94-.23-4.77,1.47-6.51,7.75-7.96,28.71-10.58,39.96-17.04,21.48-12.34,47.27-36.22,66.54-52.42,4.71-3.96,8.98-8.42,14.04-11.98.86.61,2.11,2.04,1.5,2.98,9.7-13.42,25.35-25.75,33.36-40.14,2.8-5.03,7.18-17.17,11.94-20.56,1.74-1.24,4.46-.14,5.2-3.3,1.79,1.62,3.76,3.82,3.5,6.43-.11,1.13-5.94,8.86-7,10.07-14.9,16.91-30.33,34.6-45.97,51.03-.47.49-5.26,5.57-5.01,1.97.03-.43,2.42-2.1,3.02-3s.71-2.16.96-2.5Z"/>
      <path d="M597.79,948.13l1.12,6.87-7.95-.99c0,2.36-1.15,5.19-4.04,4.99.21-5.67,4.32-12.54,10.87-10.87Z"/>
      <path d="M647.91,86.01c-.86,2.69-1.44,1.34-2.7,1.14-2.99-.48-6-1.72-9.3-1.14l.48,2.01c6.92,3.13,13.86,6.76,20.4,10.6,20.56,12.08,41.92,30.1,59.7,45.74,19.5,17.16,37.23,37.17,54.06,55.04,6.65,7.06,17.53,16.39,23.29,23.16,5.29,6.21,9.62,17.14,14.46,24.04,1.8,2.57,5.48,5.26,7.11,8.39.85-1.55-1.08-4.68-1.8-6.2-1.81-3.85-11.12-20.76-13.65-23.14-1.06-.99-2.67-.47-2.92-.74-.38-.41-.65-8.61-1.43-11.13-1.86-6-14.13-18.36-19.1-23.41-20.59-20.9-45.69-41.83-69.2-63.82-8.02-7.5-10.47-11.9-20.12-17.33s-22.9-13.65-32.23-20.8c-1.5-1.15-8.57-7.58-2.76-6.25,3.6.83,34.56,16.41,37.22,18.79,2.87,2.57,6.53,7,10.14,10.37,6.42,5.99,12.63,13.05,19.33,19.17,8.88,8.12,18.39,15.7,27.52,23.48,1.62-1-.33-2.21-1-3-6.62-7.85-14.87-15.82-21.15-22.85-1.42-1.59-3.66-2.71-4.36-5.13.8-.72,5.98,3.63,7.02,4.47,19.97,16.12,45.44,47.53,61.96,68.04,36.48,45.31,74.45,122.36,90.29,178.71,4.84,17.23,7.06,34.84,6.73,52.76-1.55.01-1.4-3.52-1.66-4.83-1.31-6.65-1.58-13.58-2.84-20.18-4.95-25.79-16.97-51.07-28.12-74.86-8.63-18.44-20.47-35.12-32.88-51.12-2.61,13.47-3.05,18.23-17.95,19.04-10.5.57-22.3-1.78-32.98-2.04-18.5-.46-53.28,2.29-69.77-4.3-9.71-3.88-11.32-12.16-12.53-21.55-3.46-26.76-1.63-61.33-1.22-88.61.14-9.58-.97-22.86,0-31.91.39-3.57,3.06-7.19,6.02-9.06,1.21-.76,5.52-.52,4.92-3.06l-50.5-28.51,5.45,14.55c3.85,20.44,1.32,41.66,2.07,62.44l4.99-6.49c-2.1,27.13,2.61,60.14-1.61,86.6-2.36,14.8-7.41,20.66-22.12,22.46-36.44,4.47-78.94.4-115.82-.51-7.99-.2-32.29,2.48-38-3.01-2.94-2.82-1.5-6.57-1.7-6.88-3.94-6.01-4.21-5.72-4.69-13.65-1.33-21.8-.42-44.86-1.5-66.81-1.87-38.08-5.89-72.7-4.51-111.22.1-2.92-1.24-6.09-1.07-7.98.23-2.51,3.33-2.93,3.01-5.51-5-2.26-4.79.66-5.74.93-4.38,1.24-16.35,3.34-21.01,3.83-2.69.28-6.34-2.51-8.18.86,4.46,30.17.39,60.63.48,90.87s4.37,64.23,3.47,95.06c-.21,7.34.38,13.22-7.13,16.84-15.31,7.38-58.24,7.43-76.43,7.53-19.71.1-48.92.5-67.98-1.92-2.36-.3-5.62-1.24-7.74-2.26-3.93-1.89-7.17-6.36-7.42-10.68-1.41-24.19,1.63-52.05,1.72-76.53.55-18.9-1.21-66.18,10.96-80.03,3.92-4.47,11.93-7.67,17-11.03,1.15-.76,2.59.25,1.98-2.47-2.59,1.29-5.29,2.47-8.03,3.45-11.82,4.27-40.04,19.02-49.9,27.11-1.35,1.11-3.16,2.73-3.66,4.41-1.55,5.27,4.84,22.07,5.89,29.21s.19,15.87.72,23.31c.76,10.8,6.07,52.17,4.3,59.26-1.1,4.39-2.35,2.12-3.8-.76l-5.5-50.99c-.98,14.42-.87,28.89-.58,43.3.04,2.12,1.13,4.34,1.16,6.42.25,18.88-2.02,33.43-24.05,35.32-29.14,2.5-65.35-3.73-94.94-4.13l-6.09-2.91c-3.28,10.01-15.78,1.92-1.51,0l-2.5-5c-.94,4.11-5.25,5.33-7.89,9.12-1.25,1.8-7.64,15.05-7.6,16.42.21,7.05,18.01,9.69,23.51,10.43,26.26,3.56,88.79-3.43,107.95,11.06,3.39,2.56,7.87,7.89,9.01,11.99,1.92,6.91-.48,21.75-.57,29.5-.32,26.37,2.86,55.4,1.64,80.77-.71,14.77-2.63,22.7-18.55,25.18-28.66,4.47-72.66,1.44-102.56.59-17.98-.51-37.79-1.07-56.91-3.11-2.15-.23-5.11-3.3-8.6-.38l.06,36.43c25.16-3.27,50.14-4.13,75.54-4.05,2.37,0,4.52,1.1,6.9,1.07,6.66-.07,8.6-3.74,13.74-5.35,10.97-3.43,35.37-3.03,47.38-2.71,3.1.08,7.81.16,10.75.56,1.14.16,2.3-.61,2.69,1.45l-53.59,4.15-1.4,1.86c16.15-.18,32.31-1.65,48.54-1.05,7.38.27,23.09.95,29.17,3.84,5.08,2.41,6.72,8.59,6.87,13.82.69,23.38-2.07,47.83-1.14,71.69.85,21.64,4.46,44.24,5.01,65.43.26,9.98-.01,20.61-11.05,24.24-14.18,4.67-45.18,1.62-60.95,1.52-10.68-.07-22.67,1.13-34,.55s-22.28-2.57-32.45-7.04c-.71.7,5.05,13.59,5.97,15.52,1.79,3.79,7.49,15.32,9.98,17.75,1.03,1,9.07,4.89,10.83,5.44,10.99,3.44,18.42.47,28.68.24,20.4-.45,40.73-.59,61.04-.53,6.81.02,13.69-3.3,18.5,3.06,3.59,4.74.32,6.71.49,11,1.07,25.77,2.29,46.57,1.85,72.85-.03,1.77,1.41,3.7,1.14,5.8-.37,2.95-4.48,7.08-6.51,9.38-2.24.94-5.85-1.46-7.97-2.04-1.01-.28-3.18-1.43-3,.5l47.95,25.58,2.01-1.05c-1.97-6.84-.69-14.81-.93-22.06-.8-24.21-3.61-48.71-4.01-72.99-.29-17.63-2.77-29.06,17.96-32.96,27.05-5.09,57.08-2.99,84.51-3.08,7.05-.02,16.54-1.62,23.15-1.04,1.06.09,3.51-.04,3.35,1.59-18.51.75-36.99,2.46-55.49,3.11-2.88.1-6.03-1.83-8.5.4,6.53,3.21,17.8,2.62,25.48,2.46,15.29-.33,31.9-2.84,47.06-1.99,16.46.93,25.48,4.01,28.35,21.64,3.91,23.94,2.56,53.23,3.55,77.69.77,18.99,2.17,38.07,2.56,57.2.13,6.27,3.22,12.99-6.39,14.58-3.01-2.45-.1-4.78.17-6.79.33-2.42-1.02-4.82,1.14-7.84l-1.94-52.43-3.47,21.47c-.66,10.76,3.71,27.79-.64,36.7-.2.41-2.4,2.74-2.61,2.78-11,.42-21.05,1.2-31.79-1.61l-2.94,3.75-11.53-2.11c1.13-2.31,6.48.53,5.99-3.97-4.67-2.27-9.98-2.22-14.8-3.71-7.39-2.3-18.76-8.02-25.95-9.12-3.02-.47-5.09,2.81-7.33,2.36-.88-.18-11.25-4.52-9.92-5.52l2.99-1c-4.81-1.44-9.85-4.57-14.53-6-.98-.3-2.4.11-.95.98,3.76,1.13,6.15,7.33,1.49,8.5,23.63,11.29,49.94,19.38,75.75,24.25,15.39,2.91,34.58,6.53,49.7,6.79,2.19.04,13.54-.39,13.53-2.03-2.4-3.33-5.67-19.64-4.83-22.77.31-1.16,1.58-1.89,2.35-2.71,5.29,0,6.17,22.52,4.49,26.97,2.71.89,5.81,1.69,8.08-.59-.07-2.86-2.58-5.42-2.85-8.12-1.09-10.65,1.45-27.11,1.22-38.78-.33-17.23-2.03-34.73-3.48-51.95,1.55-20.87-3.98-45.8-2.01-66.09.65-6.7,7.32-15.24,13.81-17.19,2.88-.86,12.24-1.18,15.7-1.31,11.98-.44,24.08.33,36.08.09,29.17-.58,62.91-3.33,91.79-1.67,11.09.64,27.08,2.28,30.42,15.38,2.18,8.56-.21,30.34.2,40.8.61,15.26,2.75,30.67,3.08,45.98.16,7.48,1.14,31.35-1.62,36.4-4.62,8.45-20.34,17.46-29.22,20.78-22.07,8.25-58.71,18.12-81.98,23.02-10.64,2.24-21.39,2.95-32.22,3.28.68,7.15,10.66,6.48,15.99,8.01,1.27,1.73-9.91,2.93-11.46,3.03-7.87.52-26.72,1.53-34.1.59-1.67-.21-1.83-2.76-2.72-3.36-3.91-2.63-18.09-.9-23.26-1.21-40.31-2.4-78.4-8.11-116.98-20.04-30.55-9.45-58.96-26.42-87-41l-1.46,1.46c2.28,2.74,3.82,8.92,5.54,11.46,1.25,1.86,4.76,1.21,2.45,5.05l5.97-1.97,1.04,2.97-3.01,1c16.23,5,32.6,13.45,44.99,25l-48.85-19.85-2.14,2.85c1.27-3.66,1.04-4.29-2.53-5.98l-.48,2.98-4.97-1.06c1.52-6.94.34-8.63-5.53-11.91-3.21-.08,1.22,9.49,3.5,9.48l-4.49,4.5c-.98-1.37-3.51-3.94-3.52-5.51,0-1.78,2.48-2.49,2.01-4.49-8.09.55-8.56-5.48-9.02-12.02-.86.41-1.8.63-2.74.32-5.43-1.79-22.33-14.16-27.45-18.36-5.83-4.79-10.98-13.7-18.8-13.95-2.96-2.33,6.46-1.93,7.21-1.78,7.76,1.56,19.64,15.41,26.44,20.6,6.82,5.19,14.17,9.45,21.86,13.18,1.24-1.01.36-3.46-.43-4.57-.5-.71-10.88-6.38-13.01-7.99-31.61-23.8-59.2-52.57-84.07-82.94-5.86-7.16-11.65-14.34-17.51-21.49l-1.58,4.91c-12.47.25-3.1-8.1-4.08-12.15-4.63-6.29-8.6-12.98-12.21-19.89-48.93-93.53-67.29-199.11-45.96-303.64l18.46-74.63c.57-.87,1.08-1.89,2.37-1.61,4.14.9-.95,17.64-2.33,20.66l1.84,1.33c2.25-9.72,6.37-19.06,10.3-28.21,17.33-40.39,38.27-69.71,64.75-104.03,22.69-29.41,46.46-43.33,77.05-63.17,8.39-5.44,17.28-10.07,25.91-15.09-.92-1.29-3.33.11-4.53.47-8.44,2.61-21.43,9.91-28.72,15.06-3.92,2.76-7.88,8.15-12.03,10.19s-12.17,2.66-7.28-3.28c15.62-11.7,30.61-20.74,48.58-28.42,18.77-8.02,37.99-14.66,56.34-23.65,9.19-4.5,13.4-10.31,24.97-15.03,68.72-28.08,168.01-31.57,239.5-13.15,25.43,6.55,49.15,16.79,74.17,24.34ZM528.92,58c-4.56.16-9.06-1.58-13.52-1.99-47.74-4.36-128.02,4.39-172.15,22.82-1.09.45-3.45.78-3.33,2.15,14.19-1.74,27.89-7.55,41.98-10.5,30.58-6.4,64.18-8.49,95.46-9.51,13.84-.45,37.77,2.55,50.04-1.42.81-.26,2.35,1.36,1.51-1.56ZM565.92,74.99c-3.81-4.02-10.77-4.69-15.99-4.98,3.79,4.79,10.29,5.34,15.99,4.98ZM532.92,81.01c-12.39-2.72-24.71-4.96-37.45-5.05-5.17-.04-17.23-.78-19.97,4.13s-1.77,29.4-1.58,36.5c.58,22.07,3.93,44.24,4.01,66.42,1.86.07,2.09.52,1.97-1.49-.66-10.49-.08-21.44-.02-32.05.11-17.75-1.45-32.05-2.4-49.62-.53-9.9-1.55-19.58,10.94-20.85,6.96-.71,20.41-.15,27.63.61,5.59.58,10.31,2.22,15.58,3.21,1.94.37,1.26-.15,1.3-1.81ZM420.92,84c-5.3-.45-9.95-1.42-15.4-.9-14.61,1.41-56.16,10.18-69.15,15.84-1.42.62-5.88,2.85-5.44,5.05l89.99-19.99ZM643.91,122.99c-1.67-5.98-8.08-12.01-13.25-15.24-8.93-5.59-52.73-18.98-64.49-21.51-1.75-.38-3.5-.32-5.26-.23,0,1.4,2.89,2.04,4.03,2.45,23.83,8.68,48.49,15.78,71.47,26.53l7.49,8ZM328.91,104.01c-18.65,2.33-42.84,12.11-43.99,33.99,4.76-5.21,6.8-12.52,12.04-17.45,2.34-2.19,6.82-4.07,9.23-6.77l22.71-9.77ZM535.91,128.01l-5.99,1,2,2.97c-1.65.06-10.81,8.42-10,9.01l5.53.11,8.46-13.1ZM732.57,174.35c-8.6-8.14-18.04-16.32-29.34-20.18l-3.31,2.82c3.71.81,7.95,3.15,11.15,5.14,13.07,8.14,27.59,24.06,37.82,35.35,6.11,6.74,10.26,16.44,20.01,18.52l-14.34-18.65c-5.21-4-9.73-10.7-13.98-15.01-2.4-2.44-5.61-5.72-8.01-7.99ZM227.91,156.01c-5.01.8-13.62,3.96-17.9,6.64-7.27,4.55-31.03,29.17-37.74,36.71-9.97,11.19-19.31,22.31-29.3,33.45-8.52,9.49-17.62,22.28-19.05,35.2,1.9.61,3.25-2.22,3.97-3.5,20.59-36.77,57.01-70.38,88.56-98.47,2.02-1.8,3.49-4.92,4.94-6.06,2.42-1.9,6.94-.74,6.53-3.97ZM693.89,164h-2.68s.07,91,.07,91h2.68s-.07-91-.07-91ZM283.91,274.99l-2.49-92.99c-1.66,1.14-1.44,2.73-1.56,4.44-.79,11.28.61,22.83-1.01,34.05l.99,24c.04,6.71-2.63,24,.62,28.46.86,1.18,1.76,2.37,3.45,2.04ZM808.91,282c-9.31-23.38-22.55-46.87-39.98-64.99-.96,3.38,1.92,2.61,2.56,4.9,1.98,7.13.98,6.84,5.9,13.16,4.07,5.23,9,10.29,12.56,16.41,4.31,7.41,9.13,21.98,13.96,27.78.64.77,4.3,3.47,5.01,2.75ZM230.59,260.68c1.6-1.84,2.47-5.23,2.31-7.68l-8.98,7.51c-1.23,2.3,4.56,2.6,6.67.17ZM650.92,257.01c-3.28-.68-1.83,5.27-2.49,8-.99,4.08-4.41,7.12-5.5,10.99,7.53-4.62,6.5-11.45,7.99-18.99ZM237.91,260.01c-3.09-.6-1.49,1.08-2.08,2.36-.69,1.5-4.56,7.98-3.91,8.62,6.28-.02,4.46-6.63,5.99-10.99ZM779.91,262l-4.91,1.1.92,6.9c2.74-3.07,5.73-3.51,3.98-8ZM696.21,270.72c-1.17-1.25-.54-3.75-2.28-3.72-1.33,9.76,8.02,13.7,15.98,14.98-1.42-2.26-5.22-3.27-7.23-4.97-1.23-1.04-5.3-5.05-6.47-6.3ZM215.92,322.99c-.21-1.24-1.78-2.21-2.89-2.45-12.59-2.71-35.73-.68-49.66-1.58-18.03-1.17-43.49-7.04-60.84-4.84-11.59,1.47-13.59,9.09-17.25,18.75-10.79,28.46-14.7,49.48-16.37,79.61-.43,7.82-1.34,15.63-.98,23.53,2-.44,1.71-1.85,1.88-3.37,2.26-19.97,3.19-39.89,7.57-59.67,2.49-11.26,8.6-34.47,13.83-44.17,11.11-20.6,41.2-9.08,59.21-7.81,3.56.25,7.1-.73,10-.56,18.5,1.04,37.02,1.9,55.5,2.57ZM189.83,352.1c-.24-.32-2.69-1.33-3.44-.1-.53.86.16,2.08-.16,2.98-1.21,3.33-4.33,8.87-7.3,10.03l1.99,1-2.01,3.98-2.47-1.98c-2.44,2.42-7.1,4.09-7.51,7.98.44.42,11.08-3.55,11.51-3.98,1.66-1.61,1.31-5.88,2.38-7.38.96-1.34,3.88-.73,4.86-1.88s3.08-9.43,2.14-10.66ZM147.91,352.01c-5.58.06-3.02.45-4.79,3.67-.61,1.12-5.35,6.62-1.69,7.32,5.45,1.04,4.98-8.02,6.48-11ZM130.93,385l2.49.1,2.49-8.1-3.88,2.15.81,3.76-4.84,2.2.92,5.89,3.98-2.02-1.98-3.98ZM234.91,449c1.69-16.55,1.31-33.55-.49-50.01-2.21,15.1-1.24,31.08-.5,46.52.06,1.22-.76,3.71.99,3.48ZM154.91,415.01c-2.7-.59-1.7.78-2.48,1.98-1.97,3.06-2.96,6.46-4.59,9.25-.7,1.2-2.27.25-1.93,1.75l3.99,1.02,5-14ZM226.91,502.01c-32.9-2-65.54.53-98.54.04-18.88-.28-32.68-3.34-51.99,2.93-2.69.87-10.03,3.58-11.4,5.67-.81,1.25-.83,10.77-.68,12.68,3.2,41.09,20.56,77.1,33.89,115.15,6.78,8.39,7.99,21.17,21.71,19.03l-10.68-9.72c-15.03-36.12-33.46-74.01-40.2-113.39-.79-4.61-2.95-21.24.15-24.11,2.59-.28,4.45-2.2,6.53-2.98,13.93-5.19,44.69-.69,60.87-.67,27.4.03,54.48-2.09,81.83-3.06,2.26-.08,9.28,2.33,8.5-1.56ZM165.9,573.01l-1.96.47,4.48,13.51,2.52-2.49c-3.64-1.94-1.42-7.81-5.03-11.5ZM231.91,591c-.87-.94-1.91-.81-1.72,1.27.31,3.37.44,6.75.83,10.13l5.89,18.59c1.9-10.98-1.38-19.86-5-30ZM200.92,629.99c-4.49-9.98-4.89-21.59-8.11-32.38-.4-1.34-1.53-5.08-2.87-5.6-5.09,5.07,2.45,11.01,2.85,15.75.24,2.84-1.77,6.58.21,11.45.35.87,2.96,1.72,2.7,3.31-.17,1.02-4.17,3.19-1.68,7.39l6.91.08ZM227.91,625.01c-5.52.57-1.73,4.07-1.48,6.01.45,3.6.69,6.83,1.51,10.49.35,1.55-.68,1.75,1.97,1.49l2.02-14h-4.02s0-4,0-4ZM182.52,637.38c-.67-.83-2.61-2.8-3.59-3.38-.93,2.67,2.09,13.4,5.28,12.84l3.7-2.34c-2.48-1.88-3.52-4.83-5.39-7.12ZM238.93,664c4.33-3.61,3.83-13.3,1.49-18-1.4,6.13-2.69,11.7-1.49,18ZM197.93,664c-.21,1.61.18,2.54,2.04,2.55,4.06.03,8.44.1,12.47-.07,1.11-.05,2.07-1,3.12-1.08,6.41-.46,17.61,2,17.36-7.4-.21-.28-4.39,3.22-5.96,3.56-7.05,1.52-17.21,2.23-25.07,3.03-1.64.17-2.41.28-3.95-.58ZM628.91,703.01l-130.01,1.49c4.9,2.16,9.86,1.16,14.51,1.43,24.53,1.47,49.26,1.74,73.84.69,12.73-.54,25.41-2.01,38.18-2.62,1.22-.06,3.71.76,3.48-.99ZM485.92,704.01c-8.22.44-14.04,5.06-15,13.49-2.27,19.95,4.27,45.31,2.39,65.83,2.36,21.98,1.5,44.19,2.59,66.22.86,17.44,3.93,23.17,21.38,28.34l6.63-5.88c-6.19,4.21-20.12.23-23.41-6.08-5.06-9.68-1.3-38.59-1.5-50.41-.37-22.25-3.08-44.7-4.12-66.97-.4-8.64-2.04-25.36-1.01-33.09.35-2.65,3.82-6.47,5.99-8.01s4.92-1.1,6.06-3.43ZM431.92,719.99c-5.68-9.9-12.91-11.87-23.99-10.98.87,2.13,5.47.88,7.29,1.39,4.64,1.28,11.7,6.21,13.83,10.51l2.87-.92ZM201.92,711h-32.5c-2.6,0-6.07,1.56-8.97,1l-.02,2.02c12.6-2.11,25.3-1.5,38-2.01,1.23-.05,3.71.76,3.49-1ZM155.91,717.99c-10.46.06-3.76,12.09.61,16.9,12.89,14.19,29.95,32.33,44.92,44.08,8.23,6.46,18.57,14.15,28.47,17.02-6.53-7.22-16.64-12.02-24.24-18.02-12.69-10.03-44.62-41.32-49.47-55.78-.46-1.36-.32-2.8-.29-4.2ZM279.92,720.5c-1.22,4.78.9,14.13,0,19.5,1.59.23,1.28-2.75,1.37-3.88.46-5.42-.06-11.58.62-17.12-.63-.03-1.9,1.16-1.99,1.5ZM647.93,801l1.71-3.8c-.78-8.16-.33-16.51-.69-24.75-.66-15.16-1.18-34.12-3.17-48.89-.21-1.59.27-4.06-1.84-4.57.77,4.41-1.34,10.27-.91,14.41.36,3.46,2.22,7.09,2.46,11.28,1.1,18.62,1.21,37.59,2.44,56.31ZM358.73,730.23c-.86-.51-1.89-.16-2.82-.22,2.4,3.57-.56,6.25-.95,9.59-.31,2.63.72,4.69.59,6.74-.2,3.17-3.02,7.2-.13,9.65,1.72-1.49.97-4.6,1.55-6.27.32-.93,2.03-.67,1.99-1.24-.09-1.3-1.47-2.05-1.58-2.96-.19-1.68,1.41-4.13-.44-6.04l2.96-.48-1.09-4.4,2.05-.65c-.53-.71-1.94-3.6-2.14-3.73ZM635.91,735c-1.49-1.63-1.7-.13-1.85,1.4-.37,3.65.15,7.98.87,11.6,3.83-2.24.76-9.31.98-13ZM489.92,737.5c-.98,3.85.72,11.17,0,15.5l2.44-7.46-.45-9.54c-.27-.29-1.89,1.12-1.99,1.5ZM309.91,799c-.51-6.12.68-12.33.68-18.37,0-1.58-1.55-3.24-1.51-5.11.21-10.72,3.87-22.04.34-32.54-1.62,0-3.81,26.93-3.56,30.54.28,4.09,1.73,7.31,2.05,10.97.43,5.03-2.46,11.34,2,14.49ZM298.13,842.68c.57.24,1.91-.66,3.47.02.55.24,6.45,5.84,6.29,1.8-.02-.5-5.25-7.35-5.94-8.04-4.25-4.22-11.81-4.57-14.83-10.17-2.29-27.09-1.98-54.35-5.7-81.29-1.43,2.88-.69,8.22-.56,11.54.65,15.99-.22,56.52,3.3,69.72,1.03,3.86,4.58,6.89,3.91,11.58,2.95,1.19,6.15,2.01,9.07,3.26.71.3.82,1.51.99,1.58ZM606.92,753.01c-1.36-1.06-2.28-.11-3.12,1.4-1.66,3.01-4.14,5.99-3.87,9.59,3.5-2.59,4.95-7.33,6.99-10.99ZM515.91,820.01c-3.12-3.18-6.55,7.47-4.99,9.99,2.66.43,1.73-.36,2.3-1.9.73-1.98,3.71-7.04,2.69-8.09ZM636.91,828.01c-3.42-.28-6.42,2.16-7.99,4.98,3.85.69,8.17-.21,7.99-4.98ZM608.92,834.02c.65,1.89,1.23,1.98,3.02,1.53,1.27-.32,10.9-4.54,8.97-6.56-2.54,2.48-5.9,1.33-8.25,2.01-1.09.31-1.55,3.32-3.74,3.02ZM315.26,841.77c-.34-.44.87-1.78-1.37-3.2-1-.64-5.29-2.09-5.98-1.56l2,2.98c-2.07-.18-2.29-.12-2,2,2.03.04,5.91-.67,6.99,1.52,1.31,2.66-5.92.36-5.99,3.47l6.49,2.03.52-3.02,2.99,1.01c.69-3.06-2.72-4.01-3.65-5.23ZM594.61,848.69c1.29-.9,4.35-6.24,3.3-7.69-3.73,3.29-9.13,3.39-9.99,8.99.62.47,5.69-.6,6.69-1.3ZM631.91,842.01c-32.81,15.28-68.65,23.91-104.51,28.98-1.73.24-3.45.09-3.48,2.5,1.39,2.16,1.96.88,3.59.65,28.24-3.86,74.74-14.14,99.72-27.32,1.66-.87,4.92-2.5,4.67-4.82ZM491.92,856.99c6.16,2.43,13.85,5.3,19.95,1.53l-3.55-6.45c-6.15,4.13-7.51,2.4-13.76,0l-2.64,4.93Z"/>
      <path d="M832.53,670.63c-2.4,2.99-11.56,10.79-13.13,4.46-.87-3.51,3.35-3.38,5.05-5.06,1.83-1.81,6.58-7.36,5.98-10.03-16.2,10.9-32.22,14.64-51.7,13.68-13.39-.66-30.51-4.81-43.31-4.78-3.6,0-5.45,1.99-8.44,2.64-12.58,2.71-26.71-2.24-34.03-13.06-8.4-12.41-3.91-19.65-3.98-33.04-.13-24.43-1.81-49.45-2.62-73.87-.48-14.5-5.69-40.1,5.95-51.21,3.92-3.74,11.27-5.11,16.63-5.84,34.97-4.71,79.86-1,115.53.24,10.47.36,35.7-1,44.32,1.9,2.7.91,3.55,3.13,6.15,3.33.65-.59,2.15-15.32,2.07-17.49-.18-4.96-5.86-30.69-11.58-30.26-6.67,8-8.41,12.11-19.28,14.46-28.57,6.18-66.01,2.78-95.74,3.26-20.37.32-53.44,9.13-60.81-18.1-6.42-23.75-6.72-85.82-2.64-110.28,2.71-16.22,7.9-19.99,24.49-20.38,28.69-.67,58.6,3.82,87.98,1.78,13.53-.94,16.52-.68,30.02,1.01,7.57.95,13.86-1.48,19.89,5.11,10.52,11.48,22.26,55.38,26.11,71.89,20.88,89.41-4.09,169.54-35.97,252.05-2.36,6.1-2.33,11.85-6.93,17.59ZM832.91,341c1.82-2.36-7.5-8.51-9.24-9.25-9.8-4.12-65.58-1.12-80.29-.8-9.86.22-20.38-.39-29.95.06-3.43.16-13.17.96-15.77,2.22-3.65,1.77-3.38,3.75-3.74,7.25,2.01.53,4.83-4.07,5.78-4.41,6.92-2.49,26.12-.7,34.72-1.02,26.61-.97,57.67-4.29,83.94-2.08,6.7.57,9.11,4.56,14.56,8.02ZM694.91,342.01c-3.02-.49-1.6.75-2.02,2.43-3.15,12.52-1.83,60.18-.03,74.12.22,1.71.26,3.44,2.54,3.46l-.5-80ZM861.9,445.99c2.22-11.22-.12-23.88-2.43-35.05-3.24-15.61-8.41-30.88-13.31-45.92l-6.24-11.02c1.72,11.16,7.09,21.39,10.27,32.21,4.45,15.12,6.47,30.62,8.81,46.18.7,4.65-.21,6.01.03,7.85.07.54,1.83,5.5,2.86,5.75ZM792.84,409.08l-8.92-2.07c-.32,2.16-1.61,14.01,1.49,13.98,2.03-2.01.54-4.87,4.5-3.98l-4-2.99,6.88-1.12.04-3.82ZM800.19,422.77c-.67-1.53-.2-3.18-.28-4.77-2.25.52-6.62,15.37-6,15.98l11.01.02c-1.38-1.89.17-3.83,0-5.32-.04-.4-4.58-5.53-4.74-5.9ZM745.91,419.01c-4.6.37-2.66,8.59-4.99,11.98l4.93-2.04.06-9.94ZM819.92,436c2.87,3.07,2.9-9.5,2.84-10.6-.08-1.59-.43-2.89-.86-4.39-2.23-.11-.15,2.62-.11,3.54.02.47-1.51.44-1.8,1.2-1.49,4.02-.53,6.21-.07,10.25ZM825.92,435.99c7.9-.84,13.59-2.76,10.99-11.99-4.54,3.25-6.05,8.93-10.99,11.99ZM849.92,443.01c-2.44-.27-4.58-1.27-6.87.13l-1.12,8.86,8-8.99ZM856.91,450.01l-13.98,8.49c-.28,3.72,9.45-1.98,10.32-2.66,1.82-1.43,3.76-3.22,3.66-5.83ZM729.92,464.99c-.35-1.91-2.08-1.66-3.45-2.04-7.06-1.96-14.64-1.86-21.54-5.46-3.08-1.6-4.77-4.26-8-5.49,3.19,13.61,21.76,13.11,32.99,12.99ZM861.91,505c-.68-4.69-9.92-4.39-13.77-4.72-36.23-3.12-85.23-3.33-121.71-1.27-5.66.32-19.73,1.51-24.71,3.29-10.91,3.91-10.55,20.67-10.74,30.16l.94,32.53c2.79.42,1.87-.48,2-2.48.75-11.41-1-28.73.53-38.98.34-2.26,3.52-8.28,2.44-9.51-.47-.54-3.62,1.16-2.95-1.5,10.12-14.05,32.28-8.71,47.48-9.08,37.03-.91,76.77-3.09,113.81-.02,2.27.19,4.58.69,6.68,1.59ZM824.57,642.66c16.07-16.8,18.68-36.73,24.85-57.65,2.7-9.16,6.88-18.82,9.22-27.78,1.27-4.87,7.62-34.81,7.1-37.48-.28-1.41-1.26-2.79-2.33-3.74-5.72,14.17-7.01,29.67-10.8,44.25-2.67,10.25-7.01,20.13-9.4,30.53-3.05,13.25-2.42,29.03-12.46,39.54-5.92,6.2-6.4,4.14-11.09,12.39-.38.67-4.21,2.97-4.73,4.79,2.55.7,8.01-3.13,9.65-4.85ZM802.91,535.01c-.76-.89-4.55,3.04-4.68,3.29-1.26,2.37-1.96,7.34-2.63,9.5-.06.18-1.55.19-1.7.87-.58,2.62,1.68,7.19.02,10.33,2.8.56,1.61-.76,2.32-2.13,2.98-5.74,2.24-10.45,3.98-16.06.44-1.43,3.56-4.78,2.69-5.8ZM800.91,572.01c-2.59-.47-1.79.43-2.44,2-2.01,4.8-2.41,10.24-4.55,14.98l3.01-.66,3.99-16.32ZM766.91,622.01c-3.86-3.48-8.78,13.74-8.99,15.99.28.34,7.42-3.63,7.8-4.23.79-1.23-.22-9.71,1.18-11.76ZM824.32,658.41c9.12-6.13,14.98-17.86,17.59-28.41l-15.93,21.53-13.05,9.97c-.32,2.37.63,1.34,2.1,1.1,4.52-.74,6.07-2.03,9.3-4.2ZM809.92,664.99c-2-3.38-6.78-.84-10.21-1.2-3.91-.41-6.35-2.68-9.79-3.78l1.96,2.49c-1.22,2.71-5.35,1.02-4.95,4.5l22.99-2.01Z"/>
      <path d="M650.58,661.66c-4.14,3.43-22.43,5.98-28.21,6.37-1.63.11-3.2-.73-4.78-.66-36.85,1.61-73.23,1.64-109.91,2.99-12.55.46-26.17,4.7-37.38-3.78-2.8-2.11-3.49-6.75-3.98-10.27-4.21-29.71-.85-63.82-.43-93.83.24-16.88-3.72-52.13,3.53-66.49,4.48-8.87,25.39-9.23,35.01-9.99,35.67-2.81,89.17-3.11,123.74,3.25,5.53,1.02,23.25,5.53,26.74,9.26,1.45,1.55,2.85,10.45,3.06,13.02,1.98,24.41-3.53,54.09-3.1,78.93-2.24,17.76,2.88,42.25.71,59.03-.35,2.74-3,10.52-5,12.18ZM636.92,499.99c-.43-1.87-2.49-2.03-3.98-2.51-4.34-1.38-12.81-2.19-17.52-2.48-22.8-1.36-48.04-1.74-70.93-2.04-18.05-.24-45.7-1.89-62.62,2.47-10.9,2.81-10.25,10.13-10.98,20.02-1.28,17.34.09,34.73-.12,51.98-.31,25.43-3.21,55.72.65,80.58,1.97,12.69,4.34,17.53,18.01,18.05,1.12.04,11.54-.7,11.52-1.57-11.87-2.93-23.55.88-26.89-14.12s.96-31.79.53-47.43c-.85-30.97-3.36-61.11.34-92.45.68-5.72,1.41-8.75,7.01-10.99,19.41-7.75,76.16-3.19,99.48-2.42,14.98.49,30.97-.03,45.9,1.03,3.1.22,6.5,1.54,9.62,1.88ZM640.9,570.99c1.31-3.84.93-8.73.35-12.75-.17-1.18.23-3.49-1.33-3.23-.69,4.35-1,8.93-.64,13.33.07.91.26,2.93,1.62,2.66ZM648.91,618c-.08-3.97,2.36-37.02.51-37.01-2.79,9.29-1.27,18.88-2.38,28.4l1.87,8.61ZM649.92,646.01l-8.39,8.09-2.6,3.89c8.62,1.06,8.81-5.66,11-11.98Z"/>
      <path d="M439.9,635c-3.4-2.02-.98-8.03-.94-11.45.19-16.36-.27-32.74-.07-49.1.25-19.97,2.96-43.15,1.07-62.98-.28-2.98-2.01-8.83-4.08-10.92-7.26-7.3-42.46-2.79-53.41-2.52-24.54.61-50.83-.42-75.04,1.07-9.79.6-26.8,1.36-27.93,13.75-1.06,29.72-.26,59.82-.52,89.64-.15,16.91-2.27,35.06-1.5,52.02.14,3.07,1.18,10.13,5.46,8.98-.67-2.71-1.78-5.24-2.02-8.06-.73-8.76,2.01-23.1,2.06-32.95.06-13.27-1.47-26.58-1.62-39.86-.21-18.8-2.45-48.53-.32-66,1.48-12.16,14.37-12.94,24.39-13.61,26.95-1.79,56.33-.73,83.6-1.64,12.13-.4,27.21-3.64,39.16-1.15,8.64,1.8,8.51,13.15,8.75,20.22.93,26.43-1.47,51.89-2.06,78-.36,15.97,2.52,37.25,1.06,52.01-.61,6.21-6.8,12.23-12.76,13.32-13.35,2.44-28.63.92-42.04,1.47-4.6.19-9.42,1.37-14.23.77-.31,1.41,1.94,1.38,2.87,1.4,4.73.13,9.72.18,14.45.19,13.96.02,27.9-1.87,41.67-1.59-4.64,5.09-13.01,6.14-19.51,6.97-16.81,2.16-34.18,1.73-51.04,2.95-4.43.32-2.76.62-7.75.33-2.57-.15-5.1.83-7.69.73-.37-4.76,7.74-1.17,8.99-4.99l-51.99,2.99,2.72-3.77,13.27-3.22c-7.59.49-15.66-.69-20.64,5.84-7.37-2.17-17.04-3.17-19.88-11.82-3.49-10.64.36-32.28.56-44.47.51-32.46-1.86-67.08.95-99.11,2.04-23.23,7.78-27.95,31.48-29.49,20.59-1.34,43.19.47,64.09.09,17.71-.32,39.77-3.65,56.99-2.09,10.41.94,17.58,8.1,18.4,18.58-3.13,38.69.5,79.42-1.94,118.04-.28,4.44-.92,7.43-3.02,11.42ZM310.92,591.01c-2.58-2.3-3.87,6.71-3.97,7.51-.66,5.5.42,11.56.41,16.98-.01,4.36-1.13,34.84,2.07,35.51,7.41,1.54.05-13.09-.21-15.64-.82-8.22.48-21.93.71-30.78.06-2.34.09-3.78.11-6.09s.26-5.29.87-7.49Z"/>
      <path d="M634.91,311.01l-11.64,2.84c-11.21,1.22-22.65.83-33.88,2.15-1.49.17-3.06.79-1.48,2,16.14,1.14,58.25-1.9,67.2,14.3,4.93,8.93.94,25.21,3.59,35.3-2.08,23.32,2.69,51.17.24,73.87-.35,3.25-4.25,11.54-6.83,13.46-4.34,3.24-9.63,4.87-14.9,5.63-20.47,2.92-51.02,2.72-71.76,2.4-5.17-.08-10.37.16-15.53.04-.87-2.7,3.89-2.81,5.5-2.99,20.7-2.32,43.1-1.84,63.85-4.17,1.12-.13,4.68-.26,4.64-1.83-18.14.9-37.53-1.56-55.53-.05-3.29.28-5.41,1.37-8.45,2.03l-.52-5.01c-1.69.01-2.17,1.81-4.01,2-7.65.79-22.31-1.52-31.03-1.5s-22.23-.25-29.96.41c-2.68.23-4.45,2.84-7.48,2.09l2.99-2.98c-6.15,1.74-13.31-10.47-14.5-15.45-3.04-12.77.69-28.08,1.1-40.96.48-14.95-2.56-33.63-.64-48.15,1-7.6,5.32-4.89,7.84-6.67,1.35-.95.96-5.34,6.99-6.6,5.59-1.17,13.23-1.09,18.85-1.53,25.8-2.02,51.54-2.46,77.37-4.67-1.04-2.95-3.93-2.92-6.58-2.83-25.52.83-56.86,1.02-81.8,3.96-10.96,1.29-21.82,4.89-24.34,16.65-4.64,21.64-1.29,51.37-.84,73.72.2,10.15-3.45,22.35,4.14,30.42,2.17,2.3,4.68,2.91,6.42,5.07-3.8.27-10.15-2.13-12.04-5.44-2.66-4.66-3.06-20.28-3.37-26.41-1.21-24.18-3.31-66.02,2.56-88.55.88-3.38,2.01-7.95,4.88-10.07,11.05-8.15,46.95-2.81,60.97-4.53,1.1-3.54-5.83-.95-4.99-4.48,1.44-6.07,26.98-2.33,32.5-2.42,7.51-.12,16.45-1.88,24.09-1.94,15.41-.13,30.92,1.2,46.41.85ZM623.91,331.01l-19-1.01v2.99c4.43-1.24,8.74-.48,13.13-.59,1.19-.03,5.8.11,5.87-1.39ZM538.91,408.01c-.45-.51-5.83,4.1-6.05,4.41-1.09,1.52-1.08,2.83-.94,4.59,3.37-1.93,7.41-4.41,6.98-8.99ZM542.91,416.01c-4.42-.32-2.47,6.26-5.98,6.01l2.49,2.96c2.35-3.16,5.08-4.78,3.49-8.98ZM645.78,439.14c-5.29-1.75-6.94,3.76-9.86,6.85,4.55,1.47,6.77-1.08,10.98-2.03l-1.11-4.82Z"/>
      <path d="M431.57,322.39c3.41,2.21,3.57,7.61,5.29,11.16l4.05,75.44c-1.37.25-1.51-1.78-1.72-2.75-1.43-6.61-1.13-13.85-1.87-20.47-.13-1.17.78-2.33-1.39-2.78l-1.01,35.99c2.84.52,1.64-.67,2.25-2.19.86-2.15,1.57-4.47,1.76-6.79,1.85-.03,1.04,4.29.88,5.39-1.36,9.29-3.8,22.83-6.54,31.68-1.8,5.81-5.01,14.2-12.08,14.72-1.77.13-3.41-.92-4.77-.78-32.15,3.2-56.73-1.42-87.95-3.96-14.66-1.19-32.58.77-46.06-5.03-12.57-5.41-13.06-9.33-13.21-22.48-.3-26.16-.3-54.91.68-81.09.66-17.78-.75-30.75,20.56-32.44,12.96-1.03,26.61-.14,39.62-.59,24.9-.86,49.13-2.27,74.35.59,7.28.83,21.27,2.57,27.17,6.38ZM405.91,324.01c-7.48.53-14.87-.85-22.43-1.04-25.97-.65-52.59-1.44-78.1-1-15.35.26-31.11-.43-28.45,20.03l3.97-11.52c2.84-2.79,6.78-4.04,10.69-4.41,12.65-1.19,28.82,1.69,41.83,1.73,19.97.05,51.75.71,70.63-2.22,1.21-.19,2.24,1.79,1.87-1.57ZM430.92,351.01l-11-3c7.13,4.62,6.47,10.34,7.01,17.99l3.06-1.67c-.38-5.62-3.21-8.27.93-13.32ZM278.91,442l-2.49-91.01c-.58,0-1.03,9.98-1.08,11.51-.6,17.59.07,35.43.62,52.96.24,7.59.29,15.42-.07,22.98l3.02,3.56ZM312.91,388.01c-2.84.18-5.48-1.23-6.47,1.86l-2.52-.87c.91,3.94-2.09,2.63-4.08,4.41-.73.66-6.54,7.99-5.91,8.59l12.96-2.48,6.02-11.51ZM363.42,409.02c-1.72,3.49-3.38,5.19-6.48,7.48,3.46,4.56,6.09.47,7.29-3.7.55-1.9,1.21-2.35-.81-3.78ZM424.91,452.01l-46.99,3.48c1.81,1.46,6.25,1.48,8.47,1.46,8.49-.06,27.97-1.07,35.72-3.27,1.03-.29,3.03-.23,2.8-1.68Z"/>
      <path d="M812.27,704.34c-4.69,6-6.81,12.16-10.53,17.99-22.99,36-56.94,68.55-89.48,96.02-16.48,13.91-28.16,19.46-46.69,29.81-11.47,6.4-32.53,21.02-44.68,23.42-2.14.42-3.02-.11-4.97-.59,3.92-7.42,9.95-11.28,17.1-15.39,17.75-10.2,38.64-15.01,54.9-28.12.4-1.71-3.47-3.8-4.36-5.47-3.29-6.13,3.27-36.24,3.93-45.71,1.21-17.22-.94-35.94.42-52.79.42-5.17,1.5-10.15,5.54-13.5,13.36-11.07,34.73-7.35,50.82-8.18,17.45-.9,34.89-2.61,52.32-3.47,4.8-.24,9.56,1.83,14.76-1.31l3.55,5.44c-.02.65-2.14,1.22-2.61,1.83ZM784.91,709.99c-1.14-6.6-5.11-.16-7.73.81-1.26.47-4.01-.03-4.26.22-.31.32.42,2.62-.22,3.76-.18.31-4.82,3.11-5.78,3.77-1.08.75-2.63-.3-2,2.45l19.99-11.01ZM775.45,732.55c2.19-2.92,5.35-6.05,6.45-9.55-3.23,1.67-4.83,4.89-7,7.53-2.92,3.57-1.49,2.11-3.21,5.23-.52.93-3.5.71-2.77,3.23,4.85-.48,4.44-3.65,6.53-6.44ZM775.91,746.01l-9.36,9.69c-17.96,16.61-34.32,36.95-54.16,52.28-4.02,3.11-9.62,5.53-13.42,8.58-1.17.94-2.41,1.64-2.05,3.44,3.26,2.87,19.21-12.89,22.12-15.34,16.3-13.69,35.3-30.13,48.88-46.43,2.68-3.21,6.69-8.43,7.99-12.22ZM748.52,766.62c3.17-3.59,5.89-7.73,9.37-11.12-10.48-5.18-7.69-1.14-10.39,4.54-2.26,4.76-7.68,8.57-10.33,13.26-.42.73.52,1.9.18,2.73-.68,1.64-3.94,2.44-3.43,4.98,1.93-1.96,5.57-4.19,7.26-5.96,1.98-2.06,5.11-5.91,7.33-8.43Z"/>
      <path d="M18.9,456c2.58,4.61-3.14,23.62-1.73,25.8.31.47,1.91-.21,1.74.69l-3.03,2.09c1.77,3.39.03,19.63,2.15,21.3,1.51,1.19,4.63-2.16,6.62,3.91,3.47,10.56,3.31,31.92,5.51,44.46,4.02,22.85,10.35,45.95,15.82,68.1.17.68,4.28,2.46,1.94,6.64l1-2,1.07,1.94,2.91-.94-1.94,2.43c7.61,22.68,17,46.11,27.23,67.79,1.55,3.29,13.36,22.97,11.71,24.78-1.77.35-2.5-.87-3.44-2.05-12.53-15.9-22.01-43.11-30.07-61.93-4.44-10.38-10.27-20.32-13.97-31.03-2.51-7.29-4.02-19.3-7.3-25.7-1.28-2.5-3.87-3.63-4.96-6.05-2.21-4.89-7.82-26.34-9.77-33.22-8.46-29.96-12.38-75.44-3.52-105.56.43-1.46-.56-1.74,2.02-1.45Z"/>
      <path d="M65.52,289.63c-.09.23-1.22.38-1.53,1.14-1.32,3.16-5.31,11.6-5.86,13.98-1.05,4.59,2.73,2.6,1.78,4.74-4.47.57-9.8,12.43-8.85,15.8.36,1.26,2.22,2.04,2.65,3.42,1.55,4.93-3.85,18.3-5.18,24.18-2.48,10.96-4.08,22.2-6.63,33.12-3.22-1.36-1.69-5.75-2.05-8.45l3.07-.57c-4.77-7.74,1.65-19.4.99-26.46-.17-1.8-1.99-3.81-3.99-3.51-2.28,11.72-7.44,22.47-10.52,33.99-2.4,8.99-3.61,24.7-8.01,32.03-.76,1.27.2,2.54-2.48,1.97,3.13-10.36,2.54-21.38,4.61-32.11,2.9-15.03,9.12-35.52,15.2-49.56,3.65-8.42,9.21-16.03,12.17-24.83-5.17-.29-4.72-6.81-3.78-10.78.41-1.75,1.95-2.83,2.54-4.46.49-1.35.03-3.14.48-4.52,1.36-4.16,12.34-9.37,15.18-13.82s5.24-12.64,8.07-17.93c9.51-17.8,19.33-35.86,31.51-51.98-1.62,7.87-4.13,15.66-7.51,22.98-9.91,21.47-22.21,38.56-31.89,61.64Z"/>
      <path d="M398.92,29.99c-2.67.07-5.03,1.32-7.58,1.92-9.5,2.26-20.03,3.63-29.65,6.35-6.7,1.89-21.59,11.91-23.26,1.74l-97.5,35.99c-1.62-1.52,6.2-5.08,6.98-5.51,28.42-15.81,68.94-29.73,100.35-37.65,15.54-3.92,27.9-6.41,44.22-5.85,2.29.08,6.9-.26,6.44,3.01Z"/>
      <path d="M668.92,467.98l.57-2.03c9.91-4.24,24.25,3.38,23.09,14.74-2.56,25.16-41.6,8.46-19.69-10.18l-3.97-2.52ZM671.92,482c2.92,3.06,6.64-7.71,3.49-8.99-1.17,1.48-4.84,7.58-3.49,8.99Z"/>
      <path d="M465.37,678.56c3.93,5.29,4.77,11.42,1.01,17.39-3.49,5.56-16.19,8.87-18.45,1.53,7.63-3.33,18.83-2.92,12.49-14.48-1.16,4.17-5.21,6.81-9.49,6.99l.93-2.84c-2.08-.47-4-2.54-3.93-4.7.09-2.77,4.52-2.35,4-5.45-8.6-.75-10.06,3.36-14.98,9-.69-16.12,19.94-18.87,28.44-7.44Z"/>
      <path d="M270.58,466.33c.93.98,2.31,3.55,2.66,4.84,6.03,22.78-25.52,25.41-26.86,2.86-.78-13.18,16.07-16.28,24.2-7.71ZM262.63,469.31c-9.72-7.86-18.57,16.18-.39,14.47,6.51-.61,4.53-11.12.39-14.47Z"/>
      <path d="M661.67,683.22l-1.8-.74c.94-6.48,9.03-7.28,14.49-6.42,14.53,2.29,15.09,31.77-4.86,28.9-2-.29-6.24-2.97-7.58-4.46-6.43-7.12.59-15.67-.24-17.29ZM669.9,680.01c-.18-.15-2.26-.43-1.97.68l-6.04,12.77c.59,6.25,17.57,4.63,16.76-1.79-.54-4.3-4.82-6.83-7.68-9.27-.91-.78-.96-2.3-1.07-2.39Z"/>
      <path d="M261.37,298.56c-7.83-8.31-16.29-6.76-19.46,4.44-.38.29-1.56-.76-1.64-1.45-2.07-17.83,33.85-18.94,33.31.16-.31,11.1-16.4,21.08-24.63,10.8-.02-2.4,11.02-.23,14.05-4.93,2.66-4.13.96-6.27-1.62-9.01Z"/>
      <path d="M501.91,921.01c.07,1.45-3.61,1.51-4.79,1.7-23.35,3.61-46.95,5.53-70.7,4.28-5.91-.31-14.29-.91-19.49-3.49l94.97-2.49Z"/>
      <path d="M815.56,187.35c7.54,6.81,24.37,27.9,29.77,36.73.96,1.57,5.37,8.1,2.07,8.92-2.29.57-4.13-2.06-5.46-3.53-9.57-10.56-22.66-28.22-30.86-40.14-1.27-1.85-3.12-4.01-3.16-6.33.88-.89,6.66,3.47,7.64,4.35Z"/>
      <path d="M744.91,812.01c2.21,1.96-11.87,10.64-13.11,11.38-3.86,2.32-11.15,2.76-10.88,8.61l2.98-1c2.19,2.54-7.27,7.01-8.94,7.55-2.14.69-4.39.12-6.3.7-2.73.82-11.8,6.33-12.68,1.13-.64-3.77,13.97-10.81,17.59-11.31,1.93-.27,4.27.8,5.4.4,1.67-.6,9.17-9.86,8.99-12.44,3.06,2.23,15.21-6.56,16.95-5.02Z"/>
      <path d="M896.63,340.31c2.87,2.69,6.62,19.65,9.72,24.76s8.48,5.13,2.93,12.99c-6.28,1.52-10.51-8.74-12.4-13.53s-7.5-21.67-3-25.09c.63-.61,2.28.43,2.74.87Z"/>
      <path d="M286.92,71.01c-1.31,3.18-3.16,2.99-6,2l.99,2.99-3.99-.99v3.99c1.83.37,4.07-1.82,5.51-1.66.99.11,3.03,1.68,1.44,3.11-2.28,2.04-8.21,4.5-11.25,5.76-1.85.77-4.59.52-5.73,1.27-1.24.81-1.53,4.67-2.56,6.44-1.8,3.12-12.76,9.17-15.51,5.67l-.73-4.42,13.3-10.23,14.52-4.96v-2.97c-.24-.29-8.67,2.79-6.99-.49,1.3-2.52,8.95-.27,8-6.51,3.59,3.94,4.7-1.15,8.99,1.01Z"/>
      <path d="M103.91,249.01c-4.85,11.89-11.76,23.07-16.48,35.01-1.13,2.86-4.84,17.35-5.61,17.88s-2.98.09-3.91-.4c-4.72-2.47-.05-11.72,1.61-15.39,3.88-8.57,13.06-24.92,18.55-32.45.64-.87,4.67-5.92,5.83-4.66Z"/>
      <path d="M461.35,464.55c1.35,1.18,2.16,2.56,3.56,3.45v-4.99s2,10.99,2,10.99l-1.98-3.99c-1.13,10.24-8.37,17.71-17.01,8.49,4.15.09,15.96-1.58,10.58-7.58-.35-.39-6.8-4.72-7.22-4.79-4.62-.81-7.29,8.91-12.35,7.88-2.79-11.7,10.77-17.52,20.38-11.85.9.53,1.3,1.74,2.05,2.4Z"/>
      <path d="M272.9,698l-2.97-2c-1.87,10.98-21.42,14.85-21.52,1.99,2.11-3.39,6.09,4.4,8.14,4.81,5.44,1.07,10.75-6.5,8.94-11.79-1.67-4.86-7.59-6.24-7.62-.05l-2.86-.04-2.57-4.89-6.5,4.96c-.92-7.31,3.81-8.11,9.82-8.74,10.16-1.07,21.46,3.83,17.15,15.74Z"/>
      <path d="M453.25,312.65c-5.84-2.93-6.89-14.1-4.32-19.65,2.88-.65,2.68,3.33,3.97,5.26.55.83,1.9,1.06,2.41,1.81,1.7,2.5.98,6.77,5.6,5.93,4.33-6.99-2.69-9.52-3.01-10.68-1.75-6.38,5.9-1.86,7.87,1.33,6.37,10.33-2.54,21.01-12.52,16Z"/>
      <path d="M533.91,30.01c.3,1.33-1.62,1.48-2.48,1.48-19.89.16-41.23-5.99-61.25-8.09-3.8-.4-9.37,2.3-12.26-2.4,3.96-2.09,6.96-.17,10.5-.01,22.01.95,43.88,3.81,65.49,9.01Z"/>
      <path d="M525.92,905.01c-1.96,2.52-9.01,2.66-12.51,2.98-15.49,1.45-32.82,1.83-48,1.93-8.83.06-18.07.88-27.02.9-3.62,0-4.23-1.33-1.81-3.91l89.34-1.9Z"/>
      <path d="M660.26,321.63c-4.69-2.89-10.61-13.82-2.35-15.63,1.36,12.95,25.36,17.3,24.93,1.61-.02-.76-3.53-9.58-.42-6.6,10.18,15.53-9.11,28.65-22.15,20.63Z"/>
      <path d="M677.7,298.76c.22-.08.42-2.91,3.21-1.75l-1.95,2.42c1.82,3.03,1.91,7.06-.14,9.98-4.27,6.07-12.26-7.3-15.62-8.25-1.24-.35-16.34,2.36-8.82-4.21,6.42-5.6,20.9,2.75,23.33,1.81Z"/>
      <path d="M853.5,683.6c-1.38,1.69-2.07,3.46-2.99,4.47-3.2,3.47-10.45,6.23-10.6,11.93l-4.98-2.51,5.99-2.51c.42-2.85-3.97-3.41-2.57-6.01.69-1.29,5.8-4.05,7.44-5.64,4.05-3.93,10.84-10.63,14.13-15.04.63-.84.89-2.23,1.01-3.3,2.69.93,2.22,3.9,1.54,6.04-.58,1.82-7.26,10.45-8.97,12.56Z"/>
      <path d="M45.91,583c-1.17,4.15-.83,4.93,2.01,7.99l-3.04-.58-.96,3.59c-3.83-1.22-2.09-3.98-2.69-5.98-2.36-7.99-2.57-12.55-3.31-20.55-.31-3.32-2.13-19.53-.98-20.47,1.42.24,1.95,1.71,2.39,2.9,3.35,9.05,5.19,22.93,3.68,32.54l2.91.56Z"/>
      <path d="M257.91,354l.5,47.54-2.49,4.47c-.45-1.53.07-4.3-.25-5.51-2.85-10.97-2.66-27.7-1.8-40.02.23-3.31.28-7.68,4.04-6.47Z"/>
      <path d="M678.86,634.96l-2.93.04c-1.99-7.41-1-15.1-1.37-22.66-.44-8.76-2.76-17.68-.64-26.34,3.99-3.83,3.08,14.26,3.17,15.39.38,5.07,4.2,32.06,1.77,33.57Z"/>
      <path d="M596.91,883.01c2.33,4.5-8.41,17.86-11.54,13.04l-.46-5.04c-5.4,1.72-12.39,4.37-18.04,2.54-1.99-.64-4.55-3.3-2.33-4.55s14.95.39,19.38-.5c4.85-.98,8.59-3.7,12.99-5.48Z"/>
      <path d="M806.91,204c-.68.74-6.23-3.75-6.99-4.5-2.4-2.39-18.81-23.57-17-25.49,6.91-.7,26.49,27.24,23.99,29.99Z"/>
      <path d="M563.91,294.01c.24,1.74-2.27.94-3.48.99-13.35.49-26.72,1.54-39.97,2.04-13.28.51-16.8-2.84-1.9-5.7l45.35,2.67Z"/>
      <path d="M666.92,855.01c-2.85,6.44-8.28,7.79-13.26,10.97-1.01.65-1.31,2.26-3,3.24-7.17,4.15-17.5,7.33-25.74,7.77l41.99-21.98Z"/>
      <path d="M890.33,309.61c.12.24,1.11.4,1.5,1.19,2.89,5.85,5.02,12.76,3.07,19.2-5.85-4.52-5.64-12.95-8.25-19.24-1.02-2.44-11.72-19.76-10.73-20.76,1.75-.35,2.47.9,3.51,1.98,4.24,4.41,8.08,12.06,10.9,17.62Z"/>
      <path d="M589.91,906.01c.4,2.39-.25,1.9-1.98,2.46-17.54,5.7-39.71,5.24-58.01,8.53-.22-2.6-.15-1.66,1.5-1.96,19.4-3.56,38.88-7.45,58.49-9.03Z"/>
      <path d="M98.91,239c.18,1.77.07,3.25-.55,4.94-2.71,7.47-15.5,29.28-20.25,36.75-.78,1.23-1.51,2.4-2.7,3.28-2.12-1.23-.61-4.34.02-5.96,2.12-5.39,6.81-14,9.76-19.24,3.66-6.51,8.76-14.5,13.71-19.78Z"/>
      <path d="M856.45,702.55c-4.36,6.57-4.15,4.21-10.86,5.47-.68.13-.87,3.21-3.66,1.98l2.01-1.49-2.01-.99c.62-2.52,8.65-8.73,10.64-10.86,1.37-1.47,6.67-11.51,8.27-6.01,1.03,3.54-2.48,9.03-4.39,11.91Z"/>
      <path d="M250.92,353v37.5l-1.99,7.5c-1.58-14.88-3.29-30.09-1-45h2.99Z"/>
      <path d="M260.91,160c-4.02.73-.88-6.06-1.51-8.46-.49-1.87-2.6-4.16-3.46-6.05,1.42-2.65,5.34-.75,6.82-1.65,2.39-1.45,3.22-13.56,6.64-12.84,3.02,3.21,1.81,12.93-1.39,15.59-2.08,1.73-5.23,1.11-6.6,3.43l-.5,9.97Z"/>
      <path d="M783.26,789.35c-3.33,3.48-12.34,13.7-15.79,15.71-1.59.92-2.72,1.17-4.55.94-.18-.13,1.45-2.91,1.99-3.5,6.1-6.66,13.16-12.93,19.37-19.63.62-.67.43-2.25,1.3-2.92,1.78-1.37,5.65-1.23,5.25,1.45-1.53,3.78-5.27,5.57-7.56,7.97Z"/>
      <path d="M800.92,750c-10.77,5.98-18.16,20.32-29.99,24.99-1.61-1.55,5.53-6.16,6.39-7.1,3.82-4.13,15.27-18.56,19.64-20.44,1.7-.73,4.7.35,3.96,2.54,1.28-.71,3.45-3.13,4.99-1.51-2.71,3.81-4.79,9.44-7.39,13.12-1.59,2.26-10.44,12.23-12.57,13.93-1.82,1.45-3.49,2.81-6.03,2.46l21-27.99Z"/>
      <path d="M436.72,899.78c.15-.07.13-1.64.85-1.82,2.05-.49,4.1.87,5.97.94,7.11.26,14.46-.25,21.88,1.13,1.64.3,1.73-.65,1.5,1.96-3.46-.56-7.31.55-10.53.52s-9.19-1.52-12.97-1.61c-3.51-.08-8.98,1.54-12.89,1.07-3.07-.38-6.52-3.31-10.61-1.98-.28-2.77,2.15-3.39,4.43-3,1.65.28,11.77,3.05,12.37,2.79Z"/>
      <path d="M677.61,130.3c.96,1.35,1.07,4.01,1.32,5.69,3.23.22,3.65-3.49,4.11-5.87l3.88-.12c.47,5.69-4.35,9.66-7.67,13.38-.82.92-.4,4.22-4.32,3.61l-1-18.99c.13-.17,3.44,1.97,3.68,2.3Z"/>
      <path d="M912.93,378c1.45-1.08,4.24,7.95,4.52,8.96.79,2.76,3.06,11.42,3.27,13.81.34,3.88-1.97,4.05-4.24,1.16-4.58-5.81-5.68-16.93-3.55-23.94Z"/>
      <path d="M251.91,596h-2.99c-.21-17.41-.41-34.66,1.01-51.99,1.43-.27,1.37,1.56,1.44,2.51,1.23,16.05-1.21,33.39.55,49.48Z"/>
      <path d="M666.79,756.88l-1.86.13,1.98.99v1.98c-.75-.06-1.56,0-1.95.74-3.29,6.19,1.66,5.6,1.96,6.78.41,1.58-1.94,2.28-2.43,3.45-.17.41-1.34,8.3-1.34,8.74.01,3.07,5.06,4.29-2.22,7.3,1.15-4.16-.1-8.35-.05-12.51.1-7.15,1.14-15.23,2.12-21.82.23-1.57.9-3.06.93-4.66l2.86,8.87Z"/>
      <path d="M769.53,146.39c4.14,3.76,7.77,8.38,11.75,12.31.92.91,4.06.3,3.63,5.29-3.33,3.25-21.54-19.31-23.64-21.91-.96-1.19-3.93-1.19-1.87-4.08,3.11,3.07,6.9,5.47,10.12,8.39Z"/>
      <path d="M595.92,912.01c-.92,2.24-4.18,2.6-6.24,3.23-7.05,2.17-18.13,4.34-25.55,5.47-2.21.34-15.08,2.78-15.19-.21l46.98-8.49Z"/>
      <path d="M373.91,306.01l-11.26,2.05c-1.76,3.91-2.84.48-5.18.39-10.27-.39-21.35,3.35-31.54.54-.28-1.29,1.87-1.61,2.73-1.74,14.15-2.07,30.82-.11,45.25-1.24Z"/>
      <path d="M188.92,699.01c-.93,2.29-4.54,2.49-6.63,2.86-6.34,1.13-12.73.56-18.86,1.14-1.31.13-23,4.99-13.89-.89,4.03-2.6,6.59-.89,9.86-1.15,9.84-.78,19.69-.89,29.52-1.96Z"/>
      <path d="M452.9,874c-1.34-.17-1.76-1.36-1.95-2.53-.64-3.98-1.57-15.19-.82-18.74.31-1.47,1.16-2.73,2.28-3.71.71,2.44,2.08,5.04,2.42,7.58.31,2.31.9,9.09.82,11.14-.09,2.15-2.96,3.81-2.75,6.27Z"/>
      <path d="M527.91,482.01l-31.68,3.61-4.32-.63c-.51-2.84.72-1.62,2.2-2.24,1.99-.83,4.18-1.5,6.33-1.81l27.47,1.07Z"/>
      <path d="M450.9,118c3.84,7.17.78,15.31,5.01,21.99-7.64.45-9.15-16.33-7.25-20.75.61-1.42.24-1.51,2.24-1.24Z"/>
      <path d="M155.92,482.99c-4.2.58-8.95,2.65-12.04,5.52-1.19,1.1-.25,3.28-2.96,2.48l.99-2.99c-2.58.73-5.08.65-6.99-1.52-.85-1.63,3.74-2.89,4.77-3.21,3.78-1.16,13.82-4.04,16.22-.29Z"/>
      <path d="M921.91,454.01c0,3.33-.84,16.29-6.29,14.88-1.62-.42-4.08-3.37-3.6-5.19.18-.69,6.31-6.95,7.61-8.42.6-.68-.06-1.92,2.28-1.27Z"/>
      <path d="M570.91,690.01c.23,1.75-2.27.94-3.48.99-4.66.19-9.38-.05-14.05-.05s-7.48-.88-9.96-.9c-2.29-.02-3.65,2.4-5.01,2.55-.73.08-7.17-2.23-9.48-.61-.47-2.99.71-1.67,2.53-2,5.26-.95,9.75-.83,14.92-.95,8.63-.2,15.91-.3,24.54.96Z"/>
      <path d="M671.91,730.01l-1.74,6.97-4.74,9.01-2.57-3.54c2.96-6.12-.44-12.32,9.05-12.44Z"/>
      <path d="M175.91,298l-19.37,1.93-1.63-3.92c2.74.83,6.27-1.23,8.48-1.01,1.85.18,2.52,2.36,4.51,2.01l1.54-4c1.26-.11,8.2,3.55,6.47,4.99Z"/>
      <path d="M818.92,315.01c.22,2.65.09,1.65-1.52,1.95-7.47,1.42-15.86.8-23.48,1.03l7.59-2.89,17.41-.09Z"/>
      <path d="M263.93,550c5.25,2.24,4.41,9.51,4.03,14.54-.13,1.79.28,3.24-1.55,4.44-2.1-.04-3.63-16.7-2.49-18.98Z"/>
      <path d="M670.91,627c1.39,5.46-.07,11.53,2.72,16.51l-2.21,2.47c-4.15.09-5.08-16.87-.51-18.98Z"/>
      <path d="M675.9,752c-4.23,3-.66-24.4,3.35-11.84,2.16,6.78-.97,6.57-3.35,11.84Z"/>
      <path d="M466.92,40.99c-5.7-.45-10.96,2.54-16.61,2.89-1.42.09-6.19-.13-7.37-1.38.06-2.29,18.78-3.42,21.5-3.07,1.18.15,2.16-.25,2.48,1.56Z"/>
      <path d="M667.9,157c2.7,2.66,1.87,15.5-1.98,18-1.06-3.99-1-7.36-.87-11.44.03-.87.57-8.8,2.85-6.55Z"/>
      <path d="M86.91,470.01l-21.66,3.92-4.33-1.44c7.88-3.9,17.43-3.16,25.99-2.48Z"/>
      <path d="M508.92,32.01c.02,1.7.56,2.17-1.42,1.92-8.26-1.03-16.76-1.1-24.9-2.38-1.13-.18-3.89.04-3.69-1.54,10.09-.51,20.04.64,30,2Z"/>
      <path d="M669.92,358.5c.48-1.95,2.58-.92,3.89-.38l.6,6.42-4.49,10.46v-16.5Z"/>
      <path d="M462.92,77v15c-2.8.47-1.68-.6-2.26-2.2-1.25-3.42-2.25-6.92-3.79-10.24l6.05-2.57Z"/>
      <path d="M711.92,854.01c-1.17,3.38-19.11,11.74-19.99,10.99-1.78-1.51,1.38-2.19,1.89-2.57,5.24-3.9,11.6-7.39,18.1-8.41Z"/>
      <path d="M183.78,298.86c-10.21,2.77-5.29-12.16-.31-7.97,2.42,2.03,1.44,5.44.31,7.97Z"/>
      <path d="M804.92,305c.79,4.66-5.48,5.56-9,5.99l2.01-2.98h-3.01c-.47-6.86,5.91-2.5,10.01-3.01Z"/>
      <path d="M459.91,188.01l-.5,31c.21-9.57-2.72-20.01-1.5-29.53.18-1.4.57-2.93,2-1.47Z"/>
      <path d="M871.9,659c-1.64,1.51-1.74-.63-2.21-1.3-1.86-2.69-5.85-7.11-2.27-9.67,3.61,1.37,7.74,7.98,4.49,10.98Z"/>
      <path d="M673.92,870.99c-4.47.19-8.24,2.9-11.99,5.01-.14-6.55,5.82-6.42,9.5-9.99l2.49,4.98Z"/>
      <path d="M549.81,467.9c-1.4,1.09-8.75-.62-10.61-1.67-1.13-.64-1.71.06-1.28-2.23l11.34.16,1.64,1.33-1.09,2.41Z"/>
      <path d="M455.91,108c-6.33-.76-2.91-8.63-4.99-12.99,2.19-2.28,7.51,10.54,4.99,12.99Z"/>
      <path d="M451.91,77l-1.03,7.98-4.87-1.08c-.52-4.21,1.21-7.77,5.9-6.9Z"/>
      <path d="M125.92,295.99c-5.42-.4-10.9,2.4-16-.49,3.2-3.8,9.28-2.19,13.52-1.1,1,.26,2.24-.24,2.48,1.59Z"/>
      <path d="M173.64,147.27c1.74,1.7,1.03,3.01-.83,4.17-3.36,2.08-2.51-.6-2.91,5.57l-2.93-1.09,2.95-9.91c.45-.4,3.08.65,3.72,1.27Z"/>
      <path d="M602.05,297.87c1.48.9,6.03-1.18,6.87,2.12-3.83.86-7.13,1.59-10.58-.95-1.2-1.72.59-5.39,2.57-6.04l1.14,4.87Z"/>
      <path d="M454.92,183.01c-2.8-15.18,9.56-4.09,3.01-.48-1,.55-1.92.56-3.01.48Z"/>
      <path d="M148.92,296.01c2.33,2.18-4.51,1.85-5.23,1.74-.94-.15-1.87-1.51-3.33-1.72-1.69-.24-6.92,2.33-6.44-2.03,5.23.27,10.04.29,15,2.01Z"/>
      <path d="M666.91,391c.22,3.98.41,8.01.57,12.02.08,1.85.45,2.78-2.05,2.98l-.56-11.54,2.03-3.46Z"/>
      <path d="M462.91,918.01c.3,1.33-1.62,1.48-2.48,1.48-5.81.04-13.22.31-18.52-1,6.95-.23,14.17-2.13,21-.49Z"/>
      <path d="M163.56,786.37c.58.37,5.28,4.81,4.35,5.62-5.81,1.5-13.6-11.6-4.35-5.62Z"/>
      <path d="M667.91,217c.33,3.78,2.77,8.8-.49,11.98-1.87,0-2.88-11.1.49-11.98Z"/>
      <path d="M42.91,390.01c-.89,3.15-1.01,6.52-1.86,9.68-.46,1.72.7,2.78-2.14,2.3l.92-11.37,3.08-.61Z"/>
      <path d="M258.91,547.01c-.82,3.89,1.64,6.01,1.01,10.51-.19,1.34-.67,3.13-2,1.49-.11-3.53-1.5-6.9-1.02-10.51.18-1.38.59-2.96,2.01-1.48Z"/>
      <path d="M194.91,299.01c-.66,3.92-9.63,2.57-8.99-.5.7-3.34,7.33.48,8.99.5Z"/>
      <path d="M689.91,858c1.02,1.66-6.34,8.26-7.98,4.48-.83-1.92,5.79-5.28,7.98-4.48Z"/>
      <path d="M799.91,772.01c.5.53-4.61,10.37-5.99,8.99-.11-4.12,1.32-8.08,5.99-8.99Z"/>
      <path d="M260.92,229v-15c1.93.39,1.67,1.74,1.82,3.2.25,2.35.59,10.99-1.82,11.8Z"/>
      <path d="M596.91,296.01c.43,2.48-.36,1.91-2.21,2.31-3.85.84-7.7-.21-8.78-4.31,3.83,1.77,6.61,2.57,10.99,2Z"/>
    </g>
  </g>
</svg>