<?xml version="1.0" encoding="UTF-8"?>
<svg id="Layer_2" data-name="Layer 2" xmlns="http://www.w3.org/2000/svg" viewBox="0 0 841.54 912.03">
  <g id="Layer_1-2" data-name="Layer 1">
    <g>
      <path d="M3.55,693.03c-1.31-7.79-4.12-17.14,1-23.63.98-3.33-1.46-2.9-2.1-4.82-1.49-4.49.51-7.97.05-10.99-.34-2.2-2.7-3.3-2.49-5.65.32-3.51,2.25-9.5,3.55-12.9l2.98,2.99c.55-2.28-1.1-4.99-.57-7.03.78-3,3.79-3.29,4.64-4.65.37-.59,4.6-11.26,5.1-12.68,1.03-2.93,1.88-8.18-.67-10.62l-.51,4.99c-5.15-2.89-1.21-12.01-.99-16.99-4.39-.95-.11,6.35-2.99,6.99-1.68-6.88-.87-13.65-1.2-20.23-.08-1.55-1.64-3.47-1.78-5.38-.33-4.45,1.95-11.87,2.02-16.84.18-11.79-3.25-22.33.17-34.83,3.72-13.61,5.03-21.45,6.19-35.59.14-1.71-.55-3.4-.4-5.12,3.59-.58,1.45,3.31,3.98,4l-.98-50.99c3.5-.85,1.72,4.03,2.4,5.57.54,1.21,2.99,1.41,2.61,3.41,2.48,1.41,2.24-12.14,1.92-13.35-.21-.79-1.83-.71-1.95-1.15-.85-3.04,3.07-1.94,2.01-5.5l-2.01.49,1.01-3.49-2-.48,2.99-2.01-3.98-.5c1.85-6.51-1.03-12.46-1-19l2.87.1c1.07,1.32-.29,6.76,3.12,5.9v-25.5c0-.62-5.7-8.14-4.01-11.49l-1.98,1.99c.85-7.17-3.74-12.5-1.06-20.38l3.05-.62-2-1.5.03-1.48,1.96-.03v-1.98s-1.87-.42-1.87-.42c1.03-1.45.53-3.41.98-4.85.27-.86,1.6-.67,1.72-1.24.18-.83-.58-15.95-.78-17.03-.49-2.6-2.83-1.63-3.11-3.93-.8-6.65,2-12.59,1.89-18.06-.06-3.17-2.23-6.31-1.89-9.99.28-3.08,3.55-6.77,3.1-10.49l2.98,9.99c2.23-9.57,2.58-19.65,2-29.48-1.59-27.09-12.86-56.42-4.1-82.12l4.1-24.38.02,55.99c1.39-.18,1.72-1.36,1.94-2.55,1.05-5.75.99-51.23-.48-53.48-.46-.71-1.97-.56-2.27-1.48-.87-2.68,1.83-17.18,1.81-21.92-.02-5.41-1.56-12.63-1.63-17.91-.1-8.2,1.34-17.27.63-25.66l1,6.99c1.49-.27,2.6-4.59,2.75-5.73,1.62-12.06,2.05-21.84-1.51-33.03-1.99-6.25,1.27-11.44,1.97-17.55l10.45-12.52c12.21-1.98,24.54-.64,36.83-1.17,4.59-.2,10.3-1.78,14.97-2.03,11.13-.6,20.68,1.83,31.54,2.03l-4.99-2.98c10.12,3.62,21.42-.81,31.49-.8,7.35,0,18.05,2.51,25.96,2.84,17.13.7,29.75-.65,46.12-2.95,10.5-1.48,24.05,2.35,33.89,1.95,8.18-.33,1.86-8.28,11.02-8.06l-.5,2.01,5-.5c-.4,1.48-11.39,2.92-8.99,5.49,1.06,1.13,26.98,4.37,30.66,4.64,44.57,3.27,89.67.16,134.03,1.94,13.33.54,27.74,2.44,40.75,2.48,6.12.02,13.46-1.88,18.89-1.68,5.9.22,13.46,3.35,20.11,3.67,4.55.21,10.62.37,13.54-3.03h-3.01c-.6-5.25,3.48-4.34,5.98-1.45,1.01,1.16.76,3.27,1.63,3.51s9.21.92,10.85.97c3.8.11,11.37.16,14.89-.1,4.44-.33,20.58-4.25,22.93-2.97,8.01,4.4,17.54,1.53,27.18.98h29.08s39.45,3.04,39.45,3.04c.49-3.08-.79-1.6-2.5-1.96-2.09-.45-4.39-.58-6.49-1.05-.6-1.24,4.27-1.17,1.99-2.98-2.14-1.7-3.63,3.48-5.98,2,.31-1.52-1.03-3.23-1.03-4.41,0-.32,4.39-4.31,4.69-4.41,2.14-.66,5.04.02,7.33-.17.6,5.05-1.16,9,4.94,10.07l-.94,2.91c8.67-4.01,17.58,3.4,26-.99l-.51,2c22.58,1.88,44.99,4.09,67.53,1.41.41,2.4,6.63,10.98,6.61,12.1-.01.6-1.32,1.4-1.31,1.98.02,1,2.04,1.83,1.66,2.49-.07.12-1.45-.22-1.77.47-.27.58-.41,11.71,1.79,10.06l3.51-2.53,2.98,15c3.53.06-2.62-13.56,1.49-14.98-2,5.75,2.32,9.67,2.96,13.55,1.09,6.61-1.61,27.03-2.29,34.81-.36,4.1-3.03,8.54-3.52,13.27-.4,3.84.57,7.22-.14,10.86l3.02-3c-5.17-1.84-.17-2.46,0-3.13.53-2.11-1.02-7.22,1.97-8.35l-1.04,10.44,2.05,1.01c-2.07,3.23-2.78,5.58-.01,8.53-3.37-.33-.76,1.31-1.19,3.25-.23,1.01-1.6,1.81-1.7,3.21-.17,2.23,1.89,6.59.92,9.55l.99-7h3.99c-4.55,11.44,2.65,21.83-.99,34,3.41.77,1.63-2.95,2-5,3.29-3.22,11.43,10.74,11.94,13.56.27,1.5.78,4-1.46,3.46-4.33-3.12-6.44-5.23-12.39-3.91-.06,2.79-3.4,8.48-1.84,10.69.28.4,1.6.1,1.7.23,1.48,2.01-1.49,1.87-1.75,2.43-.09.18-.22,3.76-.17,4.02.69,3.96,5.05,2.29,6.8,5.19,1.19,1.97,1.54,7.61,1.25,9.91-.24,1.9-1.99,1.36-1.97,1.86.14,3.12,2.25,14.55,5.66,13.73l.06,9.69c-3.28.14-4.35,2.58-5.83,5.13l2.8,1.7c1.34,9.46,5.7,18.56,7.08,27.97.91,6.2-.29,11.59.13,17.85.75,11.18,6.39,22.94,4.13,34.13-.37,1.84.64,2.83-2.14,2.37.36-7.16.14-13.97-2.91-20.57-.56-1.22-.3-3.03-2.11-.92,1.54,6.49.66,13.28,1.12,19.88,1.27,18.38,5.59,37.01,4.27,55.27-.28,3.93,1.89,6.63-.97,11.3-.5.81-2.28.83-2.29,1.48-.12,11.24,3.7,21.91,4.82,32.2.68,6.22-1.54,15.27-.87,21.73s5.28,13.64,5.46,19.12c.03.79-.22,2.82-1.52,2.5-.13-2.23.62-6.97-2-7.99-.67,13.12,2.92,26.66.51,39.47l.48,5.52h4c.54.51-1.37,11.31,2.98,11.02.44,1.62-1.4.62-1.74,1.16-.76,1.23-.1,3.34-.24,4.81l1.98-3.99c.82,2.28-.79,4.91-.86,6.56-.02.45,1.63.32,1.82,1.16,1.41,6.37,2.05,13.07,2.01,19.62,6.78,1,9.49,15.42,8.62,20.64-.09.56-1.42,4.18-2.56,4.01-1-4.5-2.15-9.01-4.53-13.02-.76-1.29.18-2.52-2.48-1.97,1.86,11.94.87,24.38,1.03,36.53.23,16.37.66,33.18,2.31,49.64,1.3,12.97,4.42,25.73,4.66,38.83l1.98-1.01v5.01s-1.99.99-1.99.99h3.99c-1.33-4.26,2.09-4.58,2.01-7.99,2.8-3.1.32,11.28.33,12.07.03,3.28,2.18,14.15,1.56,16.25-1.56,5.25-7.86.38-9.3.6-.75.11-.85,2-1.63,2.49-3,1.89-10.19,4.24-12.5,6.55-4.23,4.23-3.46,16.75-11.15,16.84-5.37.07-1.74-10.92-5.56-14.54-1.96-1.85-5.76-.88-8.19-1.31-5.43-.97-3.9-1.02-10.02-.89-3.07.07-7.61-1.75-8.53.93l6,3c-6.45.45-16.2-.8-15.99,8.01,2.02-1.31,5.03-3.14,6.97-.5-1.53,4.12-6.86,3.3-7.93,3.99-2.28,1.47-5.52,6.25-2.3,8.26,7.01,4.36,2.05,3.11.35,5.81-2.17,3.47-.82,12.34-1.11,16.92-.46,7.11-1.12,14.44-2,21.51l-2.82-1.17c-2.2-7.13,1.26-13.96,1.84-20.32.38-4.19.55-10.8.51-15.04-.02-1.67-1.47-3.52-1.44-4,.09-1.28,3.99-.71,2.92-3.46-8.42-.1-15.12.66-20.46,8.03-1.13,1.56-1.2,3.93-2.06,4.94-1.57,1.84-5.04.68-5.41,5.6-.93,12.37-2.57,26.01-3.11,38.89-.27,6.54-1.21,22.16-.44,27.7.33,2.4,3.2,1.22,2.48,3.33l-3.01.51c-1.13,2.68,2.52,1.95,2.76,3.41-2.99,6.44,2.03,23.42-7.75,22.58-.1-3.12.21-6.26-.13-9.38-.11-1.03-.39-4.7-1.87-4.61-1.81,13.82,2.6,30.13,1.01,43.52-.34,2.89-1.27,4.62-3.53,6.47l-.49-51h-4.01s1.13-2.95,1.13-2.95l2.37.92,1.47-1.47c-2.06-1.56-2.07-2.44,0-4l-1.97-1.5-3,5c-.05-2.35,1.61-3.64,1.46-6.15-.2-3.39-3.87-3.34-4.25-7.58-.23-2.6,2.22-15.14.77-16.26l-1.98,1.01v-19.01s-3,1.01-3,1.01c-.13-2.54-.89-3.57-3.07-4.55l3.56-6.44c5.99,7.47,8.7-2.42,7.51-8.02l2.98-.52-2-16.49h-2.99c.13,5.28-2.25,8.97-5.02,13l-1.5-3-8.33,3.18c-.35,2.38-.27,8.78-3.61,8.84-5.12.1-4.02-4.28-4.83-7.22-.31-1.11-1.53-2.04-1.72-3.36-.68-4.84,4.87-11.76,3.35-15.17-.34-.76-5.2-3.41-6.58-4.32-1.14-.75-.58-2.82-3.77-1.93,2.61,2.25,2.47,5.77-1.49,4.98-2.24-.45-.89-2.76.47-3.49l-4.98-2.49,5.98-2.51c-1.72-1.44-4.47-6.19-7.07-3.87l-5.91,8.87,1.99,1.48c-4.43.53-8.21,5.91-11.99,5.52,3.31-2.29,12.58-9.6,12-13.98-.43-3.22-4.23,1.21-5.48,1.12s-3.67-3.01-6.34-1.43l-7.2,14.79-1.98-4.99c.25,3.33-.92,5.93-3.51,7.97-3.39-3.11-.68-7.92-.49-11.48.22-4.21.22-4.98.77-9.23.21-1.59,1.36-9.12,1.28-9.6-.11-.69-5.36-5.26-7.06-3.68.5,9.51-3.22,19.22-3.99,28.52-.45,5.49.89,12.96-.05,17.94-.54,2.85-3.11,7.57-6.33,6.42-3.3-1.18.12-10.22.35-13.39.7-9.43.39-19.07,1.57-28.47-3.8-.59-3.13-5.44-4.2-6.07-.61-.36-4.93-1.14-5.72-1.01-.88.15-.15,3.11-2.62,2.05-.19-7.83.09-4.94-4.95-7.55-4.75-2.46,1.35-5.7-1.07-9.44-2.06-1.5-7.83,4.22-7,7l-1.97-.04c-.23-4.86-2.68.04-3.97.51s-3.2-.94-3.96-.42c-.61.41-5.5,11.44-6.32,13.24-.9,2,.04,5.09-2.77,4.72-.51.67,2.7,1.74,1.5,3.98-1.71,3.17-1.19-2.87-3.5-.98.16,3.24-5.02-.31-6.6,5.05l-5.4-3.07c-1.14,3.95,1.37,9.98.83,13.25-.93,5.57-7.96,12.76-8.56,16.48-.82,5.07.54,8.86.39,13.33-.66,20.67-1.09,43.98-2.68,64.42-1,12.89-6.28,25.69-5.8,39.02.23,6.56,4.16,13.01-.19,20.49h-8c-.47-6.09,2.85-11.33,2.05-17.55-.45-3.49-4.57-8.37-3.76-13.04.18-1.07,2.47-.97,2.75-2.1.39-1.56-.35-3.87.04-5.73,1.98-9.51,5.23-17.97,5.91-28.09.83-12.3-2.52-25.08-2.09-36.99.32-8.65,3.29-17.55,2.09-26.5l-1.98,7.51c1.38,5.84-1.03,11.16-1.99,15.18-.59,2.46.33,6.11-.02,8.83-.23,1.81.34,1.63-2,1.48.64-3.96-1.12-7.67-1.09-11.49.08-10,4.52-24.27,3.17-34.08-.27-1.92-2.06-1.34-2.13-2.05-.15-1.43,1.15-3.2,1.06-4.87-.22-3.99-2.62-11.82-5.55-14.56-.97-.9-2.31.08-2.37-.02-.5-.82-1.77-6.61-1.07-7.93l-10.6-1.92c-2.36-1.8-1.63-6.11-2.69-7.81-.45-.72-4.91-3.1-6.21-4.29-3.84-3.51-4.56-7.76-12.03-7.52-4.78.15-18.45,2.02-23.31,3.21s-9.89,4.77-15.09,5.41l-.1,3.92c-3.8-2.07-7.33,2.05-10.92,2.51-1.07.14-5.28-2.19-6.06-1.51-2.05,1.76,2.2,2.08,1.99,2.49l-4.5,6.5-.5-4.99c-4.93-1-5.54,4.22-7,5.46-1.89,1.61-5.94.96-8,2.05-1.52.81-1.82,3.28-2.5,3.51-5.74,1.93-.31-6.08.06-7.02s-.53-2.22-.25-2.81c.11-.24,3.53-.6,1.21-4.23-2.19-3.44-2.36,1.85-4.01,1.02-2.09-2.05-2.52-5.22-4.99-7.02-2.98-2.18-10.61-.93-11.54-5.96l-1.59,2.08c-7.61-2.99-12.98-.95-20.07-.17-8.92.99-19.38-.38-29.48.62-1.53.15-3.17,1.5-4.85,1.48l4.99,1.48-8.04,5.17c-1.32,5.28,3.75,10.51,2.14,12.87-4.36,6.37-9.81,1.15-11.25-4.37l-4.23-.22c-2.56.74-2.96,18.03-2.41,21.26.68,3.94,1.82,6.36,5.79,5.79l-1.5-3.99,2.5,6-1.98-1.01-8.1,56.41c-1.12,2.07-3.81,2.29-5.43.61-4.38-4.55-.65-17.25-.5-23.55.43-18,.07-35.8.06-53.91,0-1.17.68-3.79-1.02-3.54.71,2.57-2.35,4.98-2.56,6.46-.74,5.51,1.99,14.43,1.58,21.07-.45,7.21-2.63,16.85-4.77,23.22-1.35,4.02-3.23,8.12-3.27,12.24l-2.98-4.99c0,4.26-1.77,9.62-1.91,13.61-.04,1.06.27,5.31,1.89,5.38.16-2.09-.34-4.4.07-6.43.2-1,1.73-5.17,2.93-5.56l1.02,4.99-3.01,1,4.52.13.48,2.38-5-1.49c.49,3.29.83,7.94.42,11.15-.81,6.31-4.29,15.32-4.48,21.39-.13,4.05,2.99,10.67-1.43,14.47-10.39,8.94-7.14-22.03-7.52-26.5l-1.98-17.51c-.52,6.45-.64,12.98-1.06,19.44-.1,1.58-1.53,2.91-1.66,4.18-.79,7.88,2.5,19.55,2.32,27.71-.02,1.17-.76,2.42-.63,3.67l-3.99-1-1.01,39h-9c1.6-7.22-.83-14.29-.03-21.53,3.01-27.25-1.84-37.91-3.41-63.01s3.54-43.23-.54-70.06c-.76-4.98-.75-8.5.98-13.39l-2,4c-1.66,1.59-10.58-6.92-11.85-8.65-1.76-2.4-2.12-6.11-3.57-7.43-.43-.39-8.43-3.55-9.33-3.72-2.13-.39-15.5,1.44-17.26,2.28-.41.19-1.23,1.2-.98,1.51,4.64,1.46,12.76-1.57,14.02,5.01,3.04-2.61,11.32-3.6,13.98,0-2.62-.71-7.8-.8-10.27,0-1.27.42-1.07,2.58-2.28,2.86-2.82.66-12.62-1.13-15.96-.95-4.64.25-2.53,2.39-3.59,4.3-.51.92-1.71.87-1.86,1.5-1.57,6.46,2.91,21.67,2.87,28.91-.01,2.38-1.62,4.54-1.5,5.86.11,1.14,1.99,2.23,1.64,4.96-.27,2.09-5.19,6.45-6.55,8.54-5.74-5.01-1.73-11-1.42-17.5s-.44-18.68-1.09-24.96c-.18-1.77-.9-7.41-1.47-8.53s-9.47-6.37-11.52-6l4.01-1.99c3.05-3.25-10.32-7.45-13-6-1.53-2.34,3.11-1.96,1.99-2.98-1.24-1.13-8.66-2.99-10.5-2.87-.52.03-.14,2.78-2.48.85-3.01,3.14,9.01,1.29,8,4.5-.21.67-2.95.58-2.05,3.47-2.25.64-10.24-4.4-11-1.31.64,7.35-.77,14.54-.98,21.82-.82,28.46,3.04,60.49.92,87.92-.43,5.55-3.07,10.41-3.4,15.63-10.86-1.38-4.1-16.74-3.47-23.5.9-9.71-.1-19.45-.06-28.97.08-21.47.39-42.98-1.11-64.39l-5.83-3.16c-.67.93,3.72,17.23,3.97,20.51.35,4.68-.94,8.18-.98,11.99-.08,7.36,4.43,15.75-7,18.5-2.12-7.89-1.48-15.91-.52-24.02.26-2.2,2.47-6.33,2.11-8.53-.15-.95-1.56-1.58-2.01-2.52-.6-1.26-.48-3.06-1.1-3.93-.93-1.31-3.9-.87-4.42-2.63-.29-.99.81-2.55.61-3.71-.34-1.96-3.3-5.46-4.21-7.64-.4-.96-1.02-9.23-3.21-4.25-1.82,4.13-1.74,9.67-5.76,11.97-3.17.24-8.84-10.7-12.01-12.74-1.35-.87-2.42-.9-2.47.49,3.72,4.29.39,7.28.05,11.09-1.14,13.09,2.65,28.17,1.96,41.96-.15,3.08-1.65,27.17-7.91,18.82-4.85-6.46-1.36-8.16-.43-15.15,2.1-15.8-.51-28.38-.77-43.7-.1-5.62,4.14-13.66-2.93-16.07-2-.68-2.62,1.95-4.52-2.45l-4.47,2.02,3.99,1c-6.77,11.66-22.35,6.23-32.95,5.04-2.62,9.11.04,18.49,0,27.4-.09,21.52-.76,46.7,3.01,68,.59,3.35,5.41,6.84.51,10.62-3.88,3-7.2-4.39-7.25-7.75-.17-10.29-1.4-19.67-3.01-30.13-2.56-16.67-.17-34.73-1.32-51.68-.42-6.2-1.46-11.16-4.05-16.48-2.35,1.73-1.84-.48-2.17-.65-4.1-2.03-2.47,2.16-3.89,3.48-.1.09-1.63-.46-2.61-.15-4.99,1.56-12.46,2.66-17.77,2.36-4.23-.24-8.22-2.1-12.49-2.06-1.16,4.16,4.09,3.42,3.99,6.99-4.86,2-5.09-.86-5.64-1-5.05-1.3-5.21,2.95-5.92,3.08-2.08.36-9.02-4.84-7.43-7.07l3.98,1.99c.87-2.61-2.86-2.78-2.99-3.02-.23-.4,3.5-2.38.41-6.89-3.85-5.64-4.22,3.13-6.4.92-.77-4.76-4.62-5.7-2.06-11.4-8.38-3.11-3.79-12.29-3.88-19.12-.03-2.04-.76-3.64-1.07-5.48,5.07-.79,3.87-8.41,3.99-11.99-1.47-.23-1.32,1.74-1.68,2.79-.97,2.83-1.95,6.23-2.31,9.21ZM129.55,527.03c-2.34.7-1.68,3.76-3.5,4.98l-3.01-3.98c-2.18-.97-.3,3.25-4.56,1.58-1.12-.44-5.49-4.72-7.02-6.01-1.08-.91-2.85-1.07-3.64-1.85-2.46-2.4-2.24-9.81-4.56-12.94l-7.7-13.78-1,18c6.75-1.55.03,10.75-.64,13.65-1.22,5.27,1.17,39.72,1.59,47.88.65,12.47,4.06,27.82,2.91,39.84-.11,1.12-.45,5.52-1.88,5.63v-17.5l-2.99-9.5c-.77,7.5.19,14.99.03,22.54-.1,4.61-2.34,8.09-.28,13.2.63,1.57,7.85,10.12,9.26,10.74,2.34,1.03,4.87.13,7.25.74.95.25,9.26,4.58,7.73,5.76-3.89.18-7.31-1.45-10.88-2.61-1.72-.56-3.2-.96-1.12,1.13l10.38,4.36c2.84-2,2.07-5.01,6.63-3.87.63.54-2.4,5.18-2.95,5.48-1.26.7-4.95-1.88-6.68,3.6l-9.37-3.59c4.82,4.72,10.91,6.61,17.52,6.39l.48-2.89c2.32,2.07,4.87,2.85,7.5,4,.73.32.21-1.75,1.14-2,6-1.58,2.7,3.28,7.87,3.99.97.56-.9,2.01-1.02,2.01h-15c-7.1,0-14.91-3.73-21.29-5.61-8.56-2.53-12.33-.13-18.46-8.64-12.88-17.89-6.4-45.18-5.71-66.21,1-30.79,5.35-69.8,2.05-99.18-.13-1.19.94-2.96.77-3.23-.96-1.49-5.65-2.67-3.87-8.13l3.9-.1c1.17-5.24,1.52-10.8-.37-15.92l-1.01-.97c-1.99,2.95-5.1,1.76-6.5-1.01l3.01-.51-2.8-1.93.81-3.05-3.02.47c4.39-2.58,1.4-4.67,3.09-9.22.3-.82,1.76-.75,1.9-1.48.1-.52.85-9.38.65-9.84-.67-1.57-1.04-.71-2.31-4.42-1.47-4.26-3.23-5.43-1.11-10.3.56-1.29,2.28-2.24,2.52-3.37.39-1.88-1.82-5.21,1.76-7.35,1.87,5.28,5.22,2.72,5.49,2.97.29.27,1.17,9.74,3.53,6.02.85-1.34-.84-9.94.46-12.39l-2-1.12c5.12-1.93.15-3.59.01-4.18-.27-1.15.63-4.42.85-5.86l-1.84-.96c2.01-1.64,3.09-3.67.5-5.49-.94,1.61-3.17,2.21-4.21,3.27-2.01,2.06-3.91,8.1-5.77,9.73-1.54,1.34-1.22.78-2.52-.54l3.01-14.48,3.98,1v-2.99s-3.99.99-3.99.99l1.01-3.99,3.98,1.99-.99-3.99,2.01,1.99c2.8-.8,3.67-5.44,3.53-7.96-.11-2.02-1.66-2.1-1.96-2.98-.39-1.13.6-2.4.3-3.41-.45-1.52-2.67-.81-2.96-3.11-.21-1.7.28-3.75.09-5.54l2.99.99v-6.98s-3-.51-3-.51l3.07-1.13,1.93-25.37-1.98,1.01c-1.41-3.17,1.42-6.86,1.56-8.54,1.34-15.37.12-33.52-.53-49.05-.08-1.88,1.18-3.51.95-5.42-2.22.37-3.82,7.74-3.94,9.57-.02.29,2.85.59,1.73,4.82l-1.37,1.51-2.4-.89c.52,2.89.56,5.81.81,8.72.16,1.92.08,1.25-1.81,1.29-3.52-12.35,1.59-24.74,0-37l2.99,1.99,1.01-3.98c-4.46-.66-6.02,2.08-9.48,3.98l-2.47-5.59c-1.48-1.15-3.76,2.48-4.54-1.43-7.34,3.86,3.17,4.2,4.04,6.03.84,2.14-.69,3.89-.36,6.21.58,4.02,5.73,13.16,2.16,15.86-3.3,2.49-7.22-1.03-9.34-3.59,4.81-2.38,1.7-7.54.49-11.5l-.99-.98c-2.75,2.62-5.22,2.01-8.5.97.23,4.22-3.6,7.83-3.81,11.78-.17,3.11,3.18,8.31.8,12.2l5.58,3.03-1.57,3.99c2.59.55,3.62-3.31,5.45-3.59.49-.07,3.94.23,3.54,1.58-4.67-.39-2.98,3.89-5.98,4.03l1.73,1.15.26,2.81-5.97,1.58c1.72,5.35.02,6.85-4.01,2.94l2.98-4.49c-1.36-1.23-2.26,0-3.1,1.43-3.96,6.75-1.77,3.12-.94,8.11.27,1.63,1.15,9.58.56,10.46l-3.05.02-.59-12.41-3.96-2.22,1.09-8.41,3.99.99c-1.44-2.01-.55-4.43-1.02-6.31-.21-.84-1.88-.65-1.86-1.12.15-3.27,1.74-7.71.88-11.56l-2.98,1c0-3.4,4.45-2.28,2.99-6.99h-3.99s1.99,1.49,1.99,1.49c-1.19,1.44-3.66,3.06-4.27,4.78-1.14,3.22-2.55,22.23-2.75,27.18-.21,5.33-.92,19.5.04,23.85.17.77,1.73.8,2.28,1.94.65,1.34,2.17,6.73,3.2,6.74l4.49-6.97c-1.22,8.15.26,15.89,5.04,4.01,3.4-.94,2.99,1.73,4.28,2.73.83.64,2.82-.19,2.68.74-.75,5.13-7.59,6.04-11.25,8.49-.75.5-1.02,1.69-1.83,2.39-.88.75-2.75.68-3.42,1.62-4.02,5.6,4.54,14.78-2.5,17.52l3.01,1c-2.9,2.04-2.71,3.43-2.41,6.55l-4.51,1.03c-1.96,14.66-.72,29.67-1.38,44.42-.99,22.17-2.64,41.76-2.65,63.97-.02,30.04-3.72,56.64-5.88,86.19-.74,10.11,1.33,21.25.86,31.9-.34,7.67-2.56,15.52-3.06,22.91-1.37,20.55-.31,45.32.04,66.04.05,2.76-1.86,6.3-.99,9.5,1.55.28.97-1.72,2.01-2.53.77-.6,3.69.24,4.98-.47l-1.56-6.99c3.96-4.48,12.69-8.39,13.58-14.5.58-4.01-4.74.67-4.99.49l-1.51-1.98-6.99,6c-3.53-2.56.46-3.64,1.48-5.98-2.79-.42-4.32-1.89-1.5-4l3.43,2.07-.92,2.9,3.09-.58.93-4.41c2.25.26,6.2.15,6,2.98l1.99-3.97c1.7-.19.85,2.26,2.61,2.88,1.52.54,3.72-.04,5.38.13-2.78,6.98,2.21,6.29,3.49,7.98,1.21,1.6,1.13,7.55,5.01,8.03,4.71.84-1.97-8.32-1.49-9,3.97-.65,8.79-2.85,11.99-.01.51-.57-4.49-7.09-.48-7.99,2.56-.57,2.06,4.16,4.11,4.87,2.17.75,5.92-.23,8.37.12.78-4.09-3.26-.32-3.99-1-2.61-2.42,4.31-1.32,3-3.49l-3.02-.52.02-5.99c6.82-.38,4.52,4.56,6.44,6.1l3.55-.12v3.02c.51.61,6.94-7.61,14.51-2.02,4.04,2.98,1.31,4.09,1.75,6.39.32,1.7,5.24,4.85,3.75,8.64l3.99.49-1.99,1.48c9.66.84,6.08-14.8,13.99-14.99.15,2.81-.38,6.3-1.77,8.74-1.27,2.24-8.58,7.08-4.73,10.23l13.92-8.96,2.58-10.02-3.99.5,7.99-1.5-2.99,2.49c5.36,2.06,8.97,6.73,14.99,4.49.35-.32-6.28-7.22-2.5-6.97.64.04,6.99,6.74,11.5,3.99l-.93,3.52c-6.44-1.64-10.55,5.28-16.06,2.47-1.86,1.74,5.86,4.99,7.5,5.06,3.97.18,6.93-2.14,10.13-2.76,1.13-.22,2.84.79,4.6.52,2.76-.43,5.9-2.65,8.75-3.34l1.08-1.97-2.03-3.02,11.49-7.47c2.97,2.51-1.63,5.68,4.24,6.77,2.86.53,4.91-2.88,6.71,2.17l6.54-1.97c-4.34-4.84-.05-4.03,1.66-6.33,2.37-3.18,3.46-7.65.34-10.65,2.58-.48,6.02-2.47,7.73.44l-1.73,14.54c2.9.45,2.08-2.45,4.6-3.88,7.42-4.23,5.49,2.32,10.44,3.49l.48,2.42-7.52,6.49,3.49-1.49,1.5,2.97-5,3,8.99-1.99c1.91,5.29-5.65,4.35-4.83,8.53.24,1.21,11.68,3.55,13.76,4.58.16,2.92-1.58,3.01-2.9,5.4,4.67,2.25,2.07,2.14,2.21,4.2.24,3.64,3.45,1.8,5.78,1.28l-2-2.98c2.24.7,14.39.46,11.99-2.99-2.12-.42-4.15-2.33-5.71-3.74-.65-.59-1.94.06-1.27-2.28l6.99.99.52-2.98.9,3.01,2.62,1.48-2.03,4.49,5.99-.99-.49,4,3.48-3,.02,3.98c5.36-2.28,3.39.45,4.97,1.5,1.49.99,23.7.71,27.57.55,10.52-.42,21.25-2.67,31.82-2.34l-1.35-2.18c2.54-8.64,7.34-8.52,14.5-11.51l.98,3.96,3.51-.96c-2.06,2.71-3.14,5.87-6.97,6.03-.66,8.81,11.45,6.19,17.36,6.01l.62-3.06,6,2-1.01-1.98c1.71-.2,3.74.36,5.36.01,1.05-.22-.04-2.98,2.64-2.01-2.32,4.52,1.42,1.5,1,4.99-4.5-2.51-7.05,2.33-10.54,2.96-16.92,3.07-35.71-.98-53,0-4.59.26-9.22,1.96-13.91,2.09-6.66.18-13.28-1.85-20.08-1.08-1.5.17-3.09.21-3.46,2.03,13.19.15,26.31,1.54,39.54,1.05,30.12-1.11,60.21-2.58,89.92-2,12.87.25,25.68.86,38.54.95.31-2.74-3.26-2.63-3.68-5.64s.96-5.73,3.67-6.85l-1.99-2.49c2.91-.06,5.51-1.02,8.47-1.07,9.79-.15,16.04,5.19,25.54,5.07-.96,9.38-11.64,1.49-16.56.04-1.7-.5-11.99-2.5-12.44-2.05-.15,6.64,5.99,5.33,10.26,6.23,6.22,1.31,13.59,2.59,17.22,4.64l38.51.12-.99-3.99,9.99.5-4.49-5.23c-6.62,4.18-19.5-1.04-10.99-8.27l1.99,2.03c3.52-2.53,8.2-.3,11.91-3.12,2.41-1.83.97-4.26,2.51-6.49,5.57-8.08,12.64-.1,15.57.17,1.82.17,11.66-4.44,12.49-3.6-1.85,3.5-.06,6.02-3.98,7.5,3.56,3.18,1.83,5.86,7.56,6.42l.48,3.5c-.36,1.54-5.76.51-5.08,3.57-.46.3-4.14-4.87-3.98,2.01l11.44.94c.76.14-.68,4.07,6.06,4.07h21.5c.08-1.3-.1-2.62-.67-3.8-.77-1.59-2.54-.63-2.32-2.18,1.42-1.33,5.08-1.98,5.92-2.6,4.5-3.29,7.02-11.31,14.06-11.43,1.32,1.01-.91,6.25,1.5,5,2.21-3.22,5.85-4.19,8.59-6.44,2.43-1.99,1.22-4.91,6.92-3.56l-.97-8.92c.28-.4,8.15-1.93,5.97-4.07-3.65,1.8-5.57-1.64-5.99-4.99l11-1-1.99,4.99c3.8-2.8,12.61,6.22,12.62,9.5,0,.89-.87,2.58-1.61,3.02-4.52,1.13-7.39,1.47-10-2.51l.98,3.99-2.99-1-.06,2.91-5.94.11,2.05,1.51-2.05,6.47h8.99s-.98-5.97-.98-5.97c7.62,1.16,12.86-4.87,19.98-2.03l-1-2.99c7.83-2.84,4.61.28,7.6,2.89,3.45,3.02,7.83,1.25,10.8,2.24,1.97.65.53,4.24,4.58,2.34s4.87-5.14,6.99-8.04c.72-.99,2.54-1.14,2.88-1.65.15-.23-.52-3.87,1.05-5.16-4.05-5.05-7.34-4.91-12.9-2.63-1.04-1.16,3.07-4.85-6.52-5.05-.82-.02-1.65-.07-2.46.08l-.96,4.54-4.07.42c2.59-3.73-2.04-7.86-1.82-9.3,1.18-7.74,11.49-.73,15.32,1.29,2.43-1.51.7-2.8.5-4.98l2.97.58,3.11-5.51,3.85.9,2.89-5.48c-4.74-3.09-6.68-10.66-11.73-11.59-1.16-4.5,2.16-5.1,4.55-7.25.75-.67,1.02-2.18,1.75-2.71,3.54-2.58,10.2-.18,14.09.06,3.42.21,6.56-2.19,10.92,1.08,5.5,4.12-.75,10.86-.35,12.35.29,1.09,3.42,1.5,2.99,3.54l5.93-1.48c-1.73,7.76-5.71,11.95-13.73,13.27-5.45.9-11.44-1.71-14.25,4.75l5.99,1.5-3,2.97c3.2.49,2.52,4.19,6.37,3.04l.73-1.87,1.87-.14c1.45,3.01,2.86,7.23,4.62,9.94.62.96,2.23.91,2.38,1.09,3.65,4.28-13.92,1.19-12.97,5.45,2.97,5.83,9.77-3.33,13,1.49-4.25,1.95-7.62,6.2-6.08,10.94-2.88.4-6.5,1.89-6.94,5.08-3.11-3.36-5.91.56-9.98,0l3,2.98c-2.96-.59-3.9,1.19-3.99,4l19.99,1-2.99-2.01,2.04-1.54c-3.13-6.31,5.23-9.89,10.44-10.46l-.41,9.47-2.87.75c.4,4.24-2.27,1.58-3.2,3.78l12.52.9,1.46-1.88c-.23,2.43.89,2.15,3.01,1.98l-1.98-2.49c-.06-5.51,24.19,1.3,26.49,1.49,3.33.28,5.94-.61,8.82-.62,23.97-.07,47.9,2.72,72.18.63,1.42-.12,3.72-.32,4.53-1.67.8-3.46-1.36-26.31-2.51-30.37-.29-1.02-4.41-10.27-4.8-10.7-.98-1.07-4.46-1.18-5.23-4.25l-4,3.96c-2.86-2.17-3.31-3.78-.72-6.5l-2.77-2.99,2.98-.49c-.89-4.4,2.77-6.14,3.94-9.58,1.85-5.44-1.47-14.36.24-19.75.42-1.32,1.45-1.94,2.82-1.67l2,5.99-.98-10.99,2.98,3.99c-.12-26.33-1.36-52.85-3.49-79.01-2.87-35.34-5.97-75.75-13.03-109.97-2.34-11.36.65-10.93.91-18.9.79-23.82-5.34-46.42-7.38-69.63-1.08-12.24-.07-24.73-1.02-36.98-1.23-15.9-6.98-38.3-6.89-53.12.02-3.32,1.96-6.4,1.97-9.9.02-5.8-1.73-13.99-2.07-20-.25-4.47.17-9.01-.02-13.48-1.97.91-.71,5.09-1.2,7.28-.29,1.29-2.06,4.77-3.77,4.22-7.32-2.35-.66-14.85,4.02-17.22-2.48-14.56.1-30.44-1.02-44.73-1.13-14.37-5.72-29.37-7.01-44.08-1.49-16.92-.71-35-2.02-51.97-.11-1.41-.65-5.72-1.02-6.74-.47-1.29-3.67-1.75-3.64-4.29.03-2.1,3.65-4.21,2.6-10.92-1.61-10.3-9.6-5.76-16.45-5.81-24.77-.19-49.46-.44-74.04-.72-5.08-.06-11.3-.19-15.95-2-3.91,3.46,3.83,2.87,4.51,4.96-3.52-1.19-3.65,1.37-4.78,1.92-.95.46-2.63.24-3.95.84-2.65,1.2-3.87,4.57-8.27,3.25l.48,4.04c-.61.59-1.31,1.59-1.99,1.95-1.94,1.02-1.76-4.53-2.49-.49.02,3.53,4.97,1.08,4.01,4.48-1.96-.4-4.58,2.68-5.47,2.67-.3,0-5.37-2.02-5.57-2.25-2.44-2.85,3.22-3.02,2.68-6.94-.42-3.01-5.43-1.13-4.63-4.47h4s-2.99-2.99-2.99-2.99h5s0-4.02,0-4.02l8,2-.88-2.41,2.88-2.07c-5.79-4.83-16.08,3.92-21.08,1.03-.36-6.32-2.72-.94-3.69-.56-1.61.63-10.21,3.96-10.79,4-2.87.18-6.28-2.24-9.17-2.73-3.55-.61-7.24.3-10.71-1.18l-1.41,2.26,4.85,9.67-2.51-3.01c-1.82,1.73-4.13.9-5.2,1.28-.31.11-1.05,2.67-4.83,2.59-1.5-.03-10.07-3.19-10.44-4.37-1.13-3.55,4.04-2.82,2.98-4.97l-6.99-2.52c-1.17-2.32,4.09-3.07,2.99-3.98-1.29-1.07-29.22-3-33.44-3.03-11.79-.08-21.48,2.01-33.09,1.07-22.04-1.79-43.3.09-64.91-1.1-7.92-.44-16.94-2.83-25-2.99-9.01-.19-19.05,1.81-28,2.08-38.36,1.16-76.81-3.21-115.04-4.84-4.14-.18-6.32,1.32-11.73-.28-7-2.08-11.83-2.18-20.32-1.96-3.58.09-17.73.57-19.78,1.22-1.32.42-1.94,1.44-1.67,2.81l2.97,1.51c-3.99,6.52-7.42,5-8.95-2.08l-6.03-.4c1.72,1.68,1.56,5.86,2.46,7.03.98,1.29,4.72.4,3.03,1.98-2.82-1.3-8.81.8-10.02-2-.91-2.11,2.22-5.33,3.02-1.02l1.47-4.96c-1.56-1.83-35.13-2.65-39.64-2.66-1.89,0-3.76.7-5.83.72-4.42.05-8.22-3.18-9.56,4.39l2.05,1-2,2.49,5.99,2.52c.86,2.01-2.31,1.6-2.99,3-1.04,2.14,4.77,1.99,2.48,4.5l-9.49-2.02,1.01-2.98c-2.13.18-5.06-1.14-5.05-3.51s3.47-2.94,3.03-5.49c-2.7-.43-5.09,1.84-7.56,1.94-3.12.12-6.75-3.09-7.93,1.09l-2.5-1.53,1.99-.99c-1.63-.06-3.44-2.43-3.67-2.48-16.12-2.9-31.77-.24-47.59,2.21-8.73,1.35-15.39-1.98-23.23-1.29-2.97.26-4.18,1.87-6.4,2.48-3.29.91-5.13-1.35-8.56,3.61-6.01,8.66.61,11.51.45,16.34-.05,1.52-1.99,6.6-2.7,8.37-.49,1.21-2.1,1.13-2.27,1.93-.88,3.98.33,10.95-.14,15.69-.75,7.6-4.31,15.06-4.92,23.08-1,13.34.55,28.26,1.05,41.54l1.97-1.01c.48.37.99,9.01,1.04,10.45.96,26.29-1.73,55.27.42,80.39.21,2.47-1.39,5.78.05,8.15,1.24-3.27,1.98-5.91,4.07-8.93,2.28-3.3,7.36-5.79,6.45-10.06,2.06.09-.02,3.62,2.51,1l-.52-1.99c1.44-1.04,5.57,3.88,3.56,5.05l-5.54,2.43c2.64,5.3,7.34,3.22,11.49,7.54h.99c1.04-4.6,4.49,1.53,8.51-.05v-3.99c-9.27,1.89-10.93-4.87-3.51-9l3.02,7.99,2.49-2.99-.78,5.48,3.79,3.51c-2.1-3.34,1.04-8.11-.1-11.37-.67-1.92-4.58-.97-4.72-4.14.35-2.32,4.85-.18,3.73-7.94-.8-5.51-3.75-9.98-9.91-7.55,1.78-3.84,6.05-4,9.08-1.57,1.77,1.42,9.18,14.83,9.68,17.31.59,2.95.27,6.34.57,9.36.13,1.26-1.24,3.09,1.18.92l2.48-36.01-2.01,3-2.98-2c-2.93,11.28-6.7,7.57-6.02-2.01-4.03-1.19-2.99,3.65-6.48,4-2.64-2.01-2.19-5.61-3.51-8.31-.3-.61-1.67-.64-2.29-1.93-1.74-3.55-1.19-5.46.28-8.76l-1.98-.99c4.43.08,3.05-6.01,6.99-6.01,2.07,4.45-1.31,1.51-.98,4.99h4.99s-4.98,4.5-4.98,4.5l3.47,2.5,3.53-8c1.93-1.84,3.09,6.1,5.98,6l2.02-7.01,3.98,1c1.08-4-3.44-3.42-4-6.49l2.5,1.49,1.5-4-4.99,1c.97-8.22-2.07-20.18,4.97-26l2.01,3,.03-17.36-2.04-1.14,2.07-1.06c-.8-3.97-1.94-9.93-1.94-13.84,0-5.35,2.39-17.83,4.18-22.81,1.05-2.95,1.19-6.8,4.7-5.8l-.48-1.98-2.51.98v-3.98c5.62,1.01,9.11-3.85,13.79-5.72s12.08-3.11,17.04-3.46l1.16-2.83c-.72-.56-12.79,3.68-16.52,0-1.94-1.91-.47-1.57,1-2.02,2.58-.81,5.59-2.71,7.07-2.97,1.22-.22,15.37.09,13.45,1.96l-3.51,1c-.93.67.5,1.65,1.12,1.85,2.39.75,9.59-.35,12.82,1.23,1.66-.22.07-7.29,3.54-7.58.83-.07,3.54,1.26,3.83,1.74.96,1.58-1.08,4.1,1.72,3.79,1.27-.14,2.42-.85,3.45-1.56,1.88-1.3,2.99-4.95,4.53-4.45,3.32,2.61-1.84,5.05-3.48,6.49l21-1.51-1.99-3.98c11.8.79,23.49,5.85,35.34,4.1l1.65,2.38-4.99,2.51c3.75-.58,10.94,1.1,14-.53.58-.31.77-1.79,1.31-2.13,3.51-2.23,9.63-.93,13.64-1.41l.06-2.92c1.26.38,1.41,1.52,3.04,1.55,2.57.04,11.93-.83,14.8-1.2,5.64-.73,11.42-1.21,10.16-8.34l4.52-.08,7.47,6.56c-4,3.61-9.38-.61-13.99,2.53,2.14,5.03,6.7,2.27,10.37,2.34s7.51.33,11.16.53c1.94.1.94,2.11,2.94,2.21,13.63.68,28.17-.7,41.78-.82,42.81-.38,86.02.36,129.28.68,6.52.05,15.26,2.33,20.95-.97l.51,3.01c4.04,1.29,8.67-1.58,11.6-1.95,12.33-1.55,24.6,2.88,36.91,3.95,33.53,2.91,68.35,1.28,100.98,4.02,6.97.59,14.64.5,22.02.98,15.32,1,30.89,1.32,45.95,2.13,5.26.28,22.6.44,25.26,3.16.41.42,4.73,9.43,5.04,10.46,1.99,6.64,1.16,16.05,2.46,23.05l4.29,1.22,1-8.03c2.01,1.01,7.04.51,8.28,1.23s.87,4.96,5.2,2.78v3.02c4.45-2.23,7.74,1.04,1.9,3.35-8.12,3.22-7.47-1-11.47-1.39-6.17-.6-3.42,7.45-4.26,11.63s-4.31,9.29-.66,14.39c2.35-1.76-.58-8.63,3.49-8-.56,3.45,3.04,6.51,3,9.38-.03,2.14-3.62,7.93-2.98,8.61l3.99-.99c-2.01.79-3.56,7-5.99,4.99-1.29-1.07.54-10.07-3-9,.16,3.9-.7,8.78,1.19,12.33.56,1.05,1.83,1.26,2.47,2.04.46.56.12,2.02.55,2.4.76.66,2.6-.26,2.8.72.95,4.79-4.74,7.14-5.03,8.22-.78,2.93-.03,21.65,1.22,24.57,1.11,2.57,4.1,1.51,4.8,7.19.68,5.56-1.23,6.39-1.94,10.11-.43,2.25,1.43,12.61,1.86,14.99,1.17,6.58-.74,10.43-.55,16.07.37,11.18,3.94,24.38,4.66,35.81l-1.03,4.53-2-5.99c.19,6.82-.26,13.71-.05,20.54.73,22.97,3.87,46.01,5.08,68.92.69,13.03-1.46,27.24,2.16,39.84.51,1.78,3.48,3.1,3.57,4.18-5.26,5.44-2.16,7.92-1.79,14.03.96,15.52,2.13,30.97,3.02,46.48,3.81-.38,5.4-2.54,6.04,2.46.75,5.94-2.04,5.76-2.06,6.12-.07,1.46,1.81,4.3,1.02,6.43h-2.99s-.5-5.98-.5-5.98c-3.43,2.41-.11,5.74.15,8.63,1.07,11.83,2.59,23.22,3.96,35.01,3.62,31.09,2.92,62.59,4.42,93.78-1.84,10.66-5.04,26.25-16.02,31.06-13.14,5.75-30.28,2.91-44,6.49-.41-2.05.98-2.35,2.31-3.18,6.52-4.06,16.33-4.67,23.67-6.85.8-4.52-3.39-10.17-3.64-13.48-.15-1.95-.44-8.46-.38-9.92.03-.6,1.89-.44,2.06-1.24.44-2.02-.97-7.07-.77-9.57.89-11.6.52-15.62-.24-27.26-.45-6.86-.6-13.65-1.01-20.49,2.6-.56,2.12,1.02,2.66,2.78,2.33,7.56,2.7,17.34,4.34,25.21l2.03-10.45-1.04-18.54h2.99c.81.77-.12,19.5,3.51,22-.33-5.93,2.11-14.03,1.54-19.52-.29-2.74-2.69-13.88-3.53-16.49-1.13-3.49-3.57-4.06-4.53-6.98-1.9-1.08-3.15,9.32-3.9,10.35-.66.91-2.5.8-3.57,1.62-3.02,2.34-6.18,4.48-9.02,7.02l1.56-5.48c-4.16-1.18-1.17-4.54-.49-7.46.32-1.38,1.54-3.42-1.04-3.05-1.61,3.05-.47,4.74-2.69,8.33-.63,1.03-5.72,7.72-6.82,6.66-.95-4.06-2.19-4.02-.02-8l-4.09-.68.04-5.68c2.26-.72,7.08-2.71,8.57-4.63,2.31-2.98.77-7.84,3.49-11l-13.51,7.99c-1.34-4.51-5.57-1.77-8.04-4.98-.54-3.65,4.27-7.23,5.01-8.99.86-2.04,1.3-5.09,1.51-7.35.06-.64,1.43-.51,1.93-1.47,1.09-2.09.14-4.14,4.09-5.71l-2.48-.47-.51-2,3.41-.96c2.82-1.92-1.29-2.04-2.29-2.63-4.74-2.81-2.7-1.24-6.65-1.9-1.04-.17-1.48-1.46-2.97-1.57-.4-.03-.79,4.01-2.5,2.03s5.01-3.51,3.99-5.99c-4.44,1.02-6.57-2.17-9.99-3,4.88,4.68-.6,6.58-.82,7.14-.23.6,1.39,3.43.81,4.84-2.03.03-.27-3.06-2.61-3.89-4.58-1.61-8.21,2.28-11.03,5.25-1.5,1.59-7.48,8.95-6.35,10.64l13.99,2.02-1.05,11.93c-6.39-2.1-7.9,9.52-10.04.14l-7.45-.06.54-8.02c-4.13,4.58-9.04,3.06-13.99,1.01,2.46,2.32,1.12,6.23-.51,8.99l-1.13-2.01c-5.11-.63-1.7.55-3.87,2.99-1.99-4.43-3.4-2.92-7.49-1.98-.49-4.76,1.88-8.94,3.99-12.97l-6.28-1.89c-14.94,11.59-27.66,25.87-42.35,37.7-4.97,4-12.48,10.02-17.64,13.4-2.59,1.7-13.44,6.25-13.48,8.25,7.22,7.03-4.44,12.96-5.26,4.52-1.95-1.81-15.11,10.12-17.66,11.83-8.96,6.01-29.15,12.47-40.06,14.94-3.11.7-8.33-1.21-8.26,3.23l13.99-.99c-2.31,8.07-14.37-.35-19.99,3.01l-.5-3c-1.77,1.36-3.87,2.31-5.96,3.04-8.83,3.07-17.96,6.06-26.98,7.01-13.28,1.4-27.5-.81-40.66,2.42l.1,2.51-19.99,1.01,8.99-3.98c-13.52.7-25.87,2.28-39.48.98-69.91-6.71-127-39.37-173.03-89.97-5.58-6.13-8.91-15.06-17.61-17.43-1.79-2.01.6-4.54-.29-7.61-1.63-5.64-11.76-17.66-14.88-23.24-6.61-11.83-12.25-25.3-17.73-37.73-1.99-.09-.01,3.65-2.51,1.01-2.71-2.86-2.59-6.25-3.71-9.79-2.03-.68-4.88-2.17-5.77.75,3.36-.35,5.47,3.04,5.99,6l-5.99,1,1-2.99c-4.28.21-6.89-6.68-10-9.51l3.51-1.49-1.04-2.01-4.26,2.46,3.82,10.98-2.03,2.04c3.36,1,4.74,8.99,5.13,9.37.31.31,5,.91,7.87,3.63,2.62,2.49-1.1.51-1,2.5l3.5,3.01c1.58-2.19,3.26-2.79,2.5-6.01,7.38-.43,1.12,6.67,4.53,11.05l5.46.96c.19,1.61.2,4.22-1.51,4.98-2.61,1.17-.45-3.42-2.47-2.98l-1.07,9.46c3.13.02,5.98,6.5,6.61,9.47,1.1,5.24-1.62,7.38-1.45,8.42.61,3.74,11.76,5.6,6.63,13.37-1.09,1.65-8.27,4.07-8.57,4.45-.76.98,1.01,3.94-3.67,5.82l-2.01-1.01c-.87,1.31.44,2.75.52,4.01,1.79-.54,3.99.3,5.99-2l.56,2.94,6.45,6.05h-4.42s-.58,3.01-.58,3.01l-3.99-2.01-.99,3-.17-2.87-2.79-.15c.78-2.99.13-5.25-.05-7.97ZM250.55,62.04c-5.22.23-14.17-1.88-18,1.98,5.73-1.17,13.66,3.01,18-1.98ZM201.54,64.04l-30.49-1-10.5,2.98c8.15.24,16.38-.27,24.54-.03,4.45.13,15.38,3.99,16.45-1.95ZM257.55,103.04c-5.32.38-14.37-.17-19.29,1.2-2.08.58-8.23,6.63-11.79,8.21-3.17,1.4-8.46,2.41-12.17,3.83-9.11,3.49-10.46,5.18-20.13,5.77-5.33.33-5.69,3.36-7.79,4.74-.25.16-6.04.36-5.82-.75,4.48-2.38,7.33-4.83,12.42-6.06,13.32-3.2,23.2-5.45,35.61-11.42,1.46-.7,5.49-2.32,4.95-4.53-9.02.49-18.31.84-26.99,3.5-9.14,2.81-25.52,14.74-34.07,12.04-4.46-1.4-7.5-9.2-6.02,3.82l-3.91,1.66c1.03,3.12.53,6.98-1.93,9.3-1.83,1.73-6.12.04-7.07,4.18,3.12.53,3.68,1.22,4.01,4.49,3.65-3.63,6.05-3.95,10.98-4,.68,2.77-1.03,1.72-1.99,2.46-2.15,1.66-4.42,3.52-6.9,4.67,1.33,6.54,4.83-.43,7.41-3.13.93-.98,2.62-1.34,3.48-2.52l-7.96-6.08c-.34-1.64,6.1-5.99,7.54-6.36,2.23-.57,2.09,5.25,4.12,6.01,4.84.63,5.19-2.86,8.3-5.06,1.08,2.55-7.89,7.55-2.46,8.99,2.51.67,9.38-8.39,8.49-3.48-.76,4.14-14.82,15.2-18.53,19.47-.87,1-6.16,7.28-5.48,8.01,10.06,4.13,12.39-5.65,18.1-11.39,4.3-4.32,10.5-8.75,15.9-11.62l-2-2.97c8.09-1.93,15.57-6.53,23.03-9.57,1.42-.58,3.07.32,4.07-.01,9.01-2.95,22.86-14.32,30.19-19.42.8-.56,2.68-3.13,3.7-3.99ZM142.55,108.04v-4.01s-6,3.5-6,3.5l3.88-.39c1.75,5.55,6.07,2.69,5.1-2.11l-2.99,3.01ZM599.55,111.03l.09-2.49c-3.83-2.82-22.17-2.23-27.58-2.52-2.16-.12-7.27-2.53-8.5,0,7.05,2.38,17.48,13.03,23.99,14.6,2.73.66,5.26-1.08,7.99-.58l-3.99,2.5c2.15,6.9,9.63,6.19,13.95,9.04,3.1,2.04,18.08,18.6,21.04,16.44l-1.49-5c18.74,12.3,34.24,31.04,49.09,47.91,6.67,7.58,10.05,12.71,15.23,19.72,1.45,1.97,2.68,5.18,5.16,5.39l-3,.99c.02,2.55,1.36,4.9,1.11,7.51-.21,2.22-1.94,3.5-2.03,4.96-.14,2.41,2.63,5.91,3.01,8.48,8.99-3.43,8.96,9.28,15.91,11.05-.5-5.23-1.37-8.3-.01-13.56.43-1.66-1.02-2.92,2.01-2.43l.38,20.33,4.61,24.66,2-16.99-2,3c-.29.28-1.37-.65-1.52-.99-.88-2.02-.04-12.12-.47-15,4.63-.78.71,8.74,4.99,7.99-.87-6.63,1.64-15.83-.44-22.06-.62-1.84-2.55-2.81-3.02-3.97-1.64-3.97.35-12.46.32-17.34-.02-3.68-1.74-8.5-.85-12.63l2.01.5c-1.41-7.56-1.91-15.33-3.08-22.92-1.34-8.65-3.92-17.66-3.97-27.12-.01-2.34,2.2-10.07.89-11.36-.32-.32-2.07.21-2.6-.27-.69-.61-1.12-5.91-3.75-6.82l1.58,7.37c-4.17,4.85-9.13-2.41-9.7-2.45-1.37-.09-2.78,1.13-3.82,1.13-.5,0-.81-4.36-2.57-1.33l-1.47,2.26-4.02-4.99,1.5,5.99c-4.01,2.01-7.22-2.97-7.65-3.02-1.49-.14-3.51,1.41-5.32.03-2.91,8.03,6.67,4.39,11.32,6.97,1.07.59.38,2.19.88,2.74.57.63,2.52.48,3.83,1.72,1.59,1.51,4.65,7.89,3.04,9.95l-6.57,2.63-2.49-4.61c-2.01-1.48-10.72,2.89-11.06,5.59l-2.48-1.98c-1.23,3.07-5.47,5.7-3.97,1.04.83-2.57,2.43-4.45,1.46-8.05-2.99-.95-1.14,2.42-3.5,2.03-2.52-.42-2.9-3.3-5.49-3.03l1.99,3.5-1.82.6.82,2.88c-3.46.14-2.86-6.01-6.98-1.49l7.97,8.01c-.42,4.38-4.09-2.5-5.97-4.03-4.55-3.72-8.4-4.4-12.66-9.83-1.62-2.07-3.96-7.7-4.85-8.65-2.14-2.3-9.01-1.51-7.5-7.99l6,1.52-.51,4.45c1.43-1.49,2.63-4.64,5.01-4.64s3.85,3.96,6.49,3.66c.62-1.78-1.63-2.45-1.64-3.46,0-.26,1.67-4.61,2.63-4.53l4.63,8.82c4.37-2.39,1.12,4.32,6.38,3.18l-2,2.97c3.09-.57,4.18,5.39,6.49,5.01s.7-2.13.12-3.09c-1.7-2.86-3.77-5.63-6.59-7.4l2.97-1.52-.02-1.44c-1.91-1.2-2.99-4.52-4.4-5.61s-3.68-.22-3.56-1.92l7.99-1.02-1.99-5.99c3.76,2.2,2.91-.75,4.27-1.75.95-.7,3.04.57,2.72-1.24l-8-1-.49,2.97c-3.53-1.8-7.44-3.46-11.5-2.97l1.99,1.98h-4.99s4.98-4.49,4.98-4.49c-1.7-2.23-3.5-2.23-5.97-1.51l-.65-3.04c-3.31-.07-9.23-2.45-12.15-.61-.71.45-.48,2.58-2.67,2.69-1.91.09-9.36-5.79-13.13-6.03-2.86-.19-8.27,3.69-12.42,1.99ZM159.55,115.03c-.71-1.04,1.14-3.28-3.22-4.37-1.1-.27-6.45,1.22-6.67,1.48-.34.4,0,3.95-.66,5.85-1.56,4.53-7.76,7.67-10.46,16.04-2.66,2.88-5.15,6.01-7,9.48.21,1.15,7.48,1.59,7.82,1.39.32-.18.49-1.77,1.21-2.29,2.6-1.88,5.66-3.13,7.95-5.59.18,2.12-1.75,3.05-2.49,4.99-2.6,6.78-1.34,7.12-5.33,13.63-1.82,2.96-3.98,7.97-5.7,10.34-3.47,4.79-9.73,9.51-12.97,15.03-.42-7.08,9.6-12.96,8-20-8.17,4.22-8.88,18.35-19.53,18.62l-1.96,6.38,2-3.99,3.05,3.5-3.04,4.5c2.58-.89,4.22-2.04,4.03-4.99h5.95s0,2.99,0,2.99l-2.98-1c-.91,2.3,2.77,3.29,3.8,2.76l.62-1.66,4.57.9v-2.99s-3.99.5-3.99.5c1.53-2.61,4.55-2.12,6.53-3.47s8.94-9.46,9.46-11.54c.19-.77-3.98-.91-2.93-3.43,3.13-2.31,2.87-1.94,6.93-1.07l-1.99-3.98c1.69-.27,4.42.57,5.79-.23.58-.34,7.26-8.93,8.57-10.44.82-.95,4.13-1.66,2.14-3.34l-7.53,2.56c-1.48-1.03-2.08-10.73,1.02-11.56l-1,3.99,4.54,1.72,2.45-2.21-5-4c2.97-4.62,5.26-9.6,7.5-14.59.47-1.06-.4-2.23-.2-2.72.1-.24,2.94-1.49,3.53-3.92.86-3.49-2.53-2.85-2.82-3.27ZM115.54,112.04c-5.29,1-4.57,7.25-5.99,10.99,3.63,2.67,6.4-8.56,5.99-10.99ZM109.79,137.18c0-1.71-1.38-3.09-3.09-3.09s-3.09,1.38-3.09,3.09,1.38,3.09,3.09,3.09,3.09-1.38,3.09-3.09ZM125.55,137.02c-1.9-7.85-10.95,5.02-11.99,9.01,4.42-2.4,6.58-8.73,11.99-9.01ZM126.53,140.04c-2.19-.38-2,.18-2.49,1.95-1.02,3.7.29,7.5-1.5,11.04,2.73.61,1.71-.84,2.47-1.98,3.13-4.68,3.86-5.37,1.51-11.01ZM673.32,145.84c1.01-1.21-1.96-6.22-4.76-4.8-.22,1.68,2.85,1.28,2.98,2.48.11,1.07-5.77,6.75-1.03,10.05l4.05-.54-3-.98c-1.92-5.89.02-4.12,1.76-6.2ZM178.54,142.04l-7,.47,1,2.02-2.5,2.5-1.98-1.99c-2.99,4.27-2.73,8.97-9.41,7.04-8.03,20.58-33.07,31.96-36.09,54.95,3.87-1.46,7.01-8.25,9.44-10.07,1.23-.92,3.4-.84,3.54-.98.11-.1-1.08-1.67-.53-2.92,1.33-3,9.74-11.24,12.53-14.04-1.38,5.13-2.43,11.08-7.97,13.02l.06,1.93,1.69.25-.78,2.8-3.99-1.99c2.9,6.98-4.23,9.21-5.87,14.59-.57,1.86,1.23,1.92,1.85,1.39.85-.72,3.34-5.31,4.16-6.35,6.73-8.66,12.85-19.18,20.21-27.29,1.33-1.47,10.65-9.12,10.63-9.85l-7.96-5.97c4.93-6.71,11.25-11.21,17.3-16.71.97-.89,2.15-.89,1.68-2.81ZM191.78,149.27l-14.99,14.99,1.02,1.02,14.99-14.99-1.02-1.02ZM116.55,156.04c-3.09-3.21-7.52,13.36-6.99,14.99,4.85-3.09,4.52-10.25,6.99-14.99ZM659.54,184.03c-1.62-6.2-8.51-10.68-12.98-15l7.48,10.01,5.5,4.99ZM25.54,213.03v-32.99c-1.81.38-1.86,1.97-2.03,3.46-.85,7.75-.69,18.19.12,25.95.1.96.45,3.76,1.9,3.58ZM720.54,221.03c-.91-3.6-.72-7.43-1.44-11.05-.29-1.48-.86-5.53-2.55-5.94-.19,2.89,1.17,5.76,1.49,8.45.23,1.95-2.13,8.78,2.5,8.54ZM131.54,212.04l-4.99,1.01,1.99,2.98c-3.12-.07-3.02,3.59-2.99,6.01l5.06-6.43.92-3.56ZM122.46,217.13c-6.62-2.47-8.73,4.56-13.9,3.91l.02,1.98,1.89.43c-1.11,2.24-2.65,7.81.61,8.58,2.33.55,4.16-7.66,7.49-4.27l.97,2.27c.21-5,5.21-7.62,2.92-12.9ZM698.55,371.02l3.53.85,1.27-1.45c2.29-15.89,4.31-31.93,6.17-47.92.17-1.45,1.54-10.49-.47-10.45-1.93,1.22-1.31,2.72-1.53,4.45-2.32,18.27-2.05,37.13-8.97,54.52ZM27.54,372.03c-.91-5.54,2.56-13.69-1.98-17.99.88,4.27-.31,9.23.15,13.36.13,1.12.26,4.68,1.82,4.64ZM408.54,398.03l.71-8.27-3.7-21.72c-.04,10.12-1.68,19.92,0,30h2.99ZM531.55,413.53v-17c0-.12-1.45-2-2.01-1.02l-1.48,2.51c-3.42-1.69-1.51-4.38-2.11-6.02-.46-1.27-3.63-5.43-5.38-3.98-1.5,1.24-.64,13.62-1.07,16.45-.32,2.13-3.03,4.45-1.95,7.55l-13.99,1.01,2.99,1.98c-3.2-.83-11.46,2.84-13.55.06-.24-.32.44-4.34.21-5.78-.31-2-2.58-6.7-2.6-7.77-.11-4.1,7.52-13.19-3.6-14.46-2.2-.25-1.15.17-1.42,1.48-.76,3.68,0,23.84-2.65,24.56-5.72.35-10.09-.07-15.39-2.06l-1.49,2.99-4.01-4.97c-5.02,6.96-10.61,5.03-17.48,1.98-.84,1.39-1.28,6.5-3.5,5.99l-1.51-1.98c3.09.27,1.22-1.58,1.83-3.55-5.66-2.93-2.81,8.19-6.32,7.52l-1.05-3.05c-9.03-.81-15.14-1.55-16.48-11.95-2.99.67-5.64,3.39-8.48,4.02-3.37.74,1.53-4.72-2.02-2.03-2.6,2.64-3.19,6.53-2.94,10.07-10.8,2.23,1.78,3.76.59,9.84l2.87.12-3.01,3.48,3-.49.02,12c4.56-2.41,9.25,1.19,3,3.02l.11,1.88c5.27,2.4,1.12,4.23,1.04,4.57-.25,1.13,1.25,5.96.91,7.99-5.27.5-2.89,4.32-3.76,7.53-3.11,11.4-6.45,19.65-20.3,17.02l.93,4.49c3.63,2.38,12.71.07,13.87,3.19l4.2,45.75c-1.28,5.45-4.43,2.16-7.43,2.55-2.17.28-5.09,3.42-8.57,2.02-1.28,2.46,2.17,1.86,2.01,2.48-1.12,4.24-6.91,4.39-7.02,5.02-.78,4.65,3.09,2.59,5.03,2.96,4.79.92,8.58,2.91,12.96-.47,5.26,12.12,3.84,25.53,5.12,38.4,1.01,10.13,5.49,18.93-.1,29.6,5.07-.94,10.02.82,9.94-5.62,0-.44-.95-6.38-1.04-6.71-.24-.81-1.6-.73-1.82-1.44-.92-2.91-2.18-8.02,1.92-8.25v-1.98s-1.99-.01-1.99-.01l1.83-1.17,1.16-4.33-1.98-1.48,1.85-.45c-.07-4.98.36-10.34.62-15.47.06-1.21,1.21-2.1,1.22-3.36.02-3.76-1.45-8.61-.7-12.73l-3.99,3.99c.22-8.86,4.72-9.35,12.52-9.04,3.46.13,7.99,1.99,11.01,1.88,2.36-.08,4.15-1.91,6.73-1.64,2.09.22,3.79,2.1,5.44,2.41,4.91.94,9.39-1.13,12.8,4.38,4.19-9.59,13.82-.62,21.49-3.99l3.06,31.47-1.05,13.53c-3.98-.99-8.16,1.81-11.59,1.92s-7.92-2.04-11.8-.75c-3.02.82-.1,8.06-.63,8.8-1.65.88-5.74-.05-4.98,3.03,1.99-.82,8.65-1.59,9.77-2.23.55-.32,1.95-3.84,3.7-4.87.98-.57,6.4-1.56,7.82-1.92.9-.23.81-1.95,1.2-2,3.5-.53,2.84,2.71,4.21,3.06,2.49.63,14.31-2.87,16.29-4.55,2.81-2.38-4.63-4.44-5.05-5.22-2.03-3.8-1.01-18.28-1.38-23.32-.41-5.67-.67-16.71-1.58-21.44-.45-2.32-2.69-2.9-3.04-5.03-.32-1.93,1.82-.78,2.12-2.92,1.58-11.18-1.16-24.14-.06-35.56l1.98,9.5c.13.9-.44,19.86,2,17.49l2.01-2.99-.06,3.37,3.06.61c-2.22-13.97-6.89-27.61-4.53-42.04,1.42-1.68,4.15-.53,5.91-1.11,1.39-.46,1.28-2.62,2.31-2.87,2.45-.6,6.96,1.51,8.31-1.96-5.49-.87-18.8-1.76-20.6-7.98-.25-7.1.04-14.41-.41-21.52-.23-3.69-3.76-26.7-.39-27.58l25.4,1.08c-1.56,7.94-.97,19.81,4.51,25.99l2.48-9.4-2-1.08c1.19-1.69,3.17-3.44,2.01-5.51h5c.8,2.68-1.24,1.64-1.71,2.19-.11.13-1.18,2.35-1.22,2.52-.74,3.36.97,9.16-3.07,9.31l1.99,4.98-3.99.02-1-3.01v4.99c4.82-1.93,4.15.58,7.99,1.01l-2.3,1.83-2.35-1.72c-4.17.6-1.14,3.4-.93,5.75.39,4.4-.91,8.74.51,13l-8.94,3.63c6,2.29,6.98,8.59,15.02,8.51-4,8.5,4.82,35.05.06,41.56-.53.72-5.57,4.21-6.59,4.4-2.96.57-15.26,1.43-18.04,1.08-2.11-.27-4.22-2.2-4.42-2.06-.37.27-.38,3.87-3.02,3l-2-3c-.44,4.4-.77,8.85.28,13.22.24,1,.3,3.01,1.7,2.78l.02-10.99,6,3.01-1.01,2.98c7.09.41,16.79-2.42,23.63-.15.23.07,3.95,2.25,4.1,2.44.85,1.03-.73,3.61,3.28,2.72-2.66,5.71-.47,12.73,0,19,5.76.57,7.18-4,11.94-4.05l-.06-4.89-2.91-.07c1.34-7.41-8.16-19.49,3.01-23.01-2.64-3.58-.29-4.42-.26-5.48.02-.92-2.12-1.67-2.34-2.95-.51-3.08.77-10.86.16-15.51-.43-3.33-2.29-5.7-1.74-8.85l-1.83-.69c4.14-.91.52-9.54,1.02-12.9.1-.71,2-.54,2.04-1.18l-1.04-4.42h3c1.04-4.52-1.61-1.95-3.08-3.63-11.98-13.71-4.29-30.58-7.93-46.7-.26-1.13-2.92.03-2-2.67h3.01s-.87-7.35-.87-7.35l1.49-1.45,2.33.78,1.05-3.96-4.99-.02,1.99-.99c.87-2.99-2.13-1.08-2.09-3.47l2.09-5.52-3.42.91-1.57-1.42ZM603.53,395.06l-1.97.56-1.02,2.4,4,1.52-2.8,1.93c.84,2.73.43,4.17,3.81,3.58l-2,2.98c1.55,1.16,10.49-4.85,5,6,3.48,1.38,5.44-.21,6.96-3.43-1.61-.95-2.89-4.41-3.96-5.1-2.42-1.55-4.26,1.79-5.98-.96l2.97-1.52-5.01-7.96ZM646.52,402.05c-3.91,2.13-7.37-1.62-10.24.16-3.27,2.03-1.51,3.83.78,5.81l1.48-1.99,1.02,9.99,3.97.5-3.1,2.99c2.66,4.4-1.06,8.41,3.62,12.49l5.03-8.91-5.5-16.62,3.97-.46-1.03-3.97ZM676.56,433.03c7.81-8.2,12.92-19.15,15.98-30-7.26,8.64-11.35,19.77-15.98,30ZM712.55,419.02c.12-2.46-3.07-9.9-5.98-7.99l-3.01,7.99c3.27.18,5.81,1.44,9,0ZM349.55,598.03c.02-.37.78-1.26.83-2.43.12-2.44-.87-7.11-.71-9.99l1.37-1.34,2.5.77v-3s-3.03-.5-3.03-.5l.04-3.5,1.98,2.99c.65-13.49-6.25-33.51,15.27-25.99l2.24,5,2.49-4.01c.09,5.55,2.92,11.99,2.01,17.51-.16.98-1.31,3.67-2.52,1.51s.75-6.1-1.47-7.01c-1.04,7.87,1.38,19.07-.03,26.48-.45,2.39-3.37,3.53-2.98,5.01,8.16,4.08,1.61,14.32-1,20.51h16.5c1.01-.83,1.38-7.38,1.23-8.36-.2-1.29-2.33-2.68-2.62-4.37-.37-2.1,1.72-3.07,1.81-4.71.1-1.89-2.58-5.32.74-6.4,2.02-.66,5.97-.91,5.37,1.83l1.99-2.48c-12.83-2.26-8.01-6.18-7.97-14.96.03-5.86-2.89-31.38-.08-34.09,1.79-1.72,6.83-1.18,7.04-4.96-12.56,1.09-9-15.89-8.99-23.96,0-2.7-1.18-5.56-1.07-9.08.14-4.42,1.29-10.46,2.11-14.91l-2.05-1.55,3.06-.54c.26-7.76-4.35-15.21-3.02-22.82l-2.04-1.14c2.03-.98,2.43-10.88,1.99-11.52l-1.98,1.01v-9.01s2.01-.49,2.01-.49l-2.04-1.11v-2.78s2.02-1.1,2.02-1.1c-3.57-2.41-.51-5.97-1.99-9.51l2.99,1c.42-2.29,1.06-6.5,2.18-8.36.97-1.61,2.59-1.3,2.83-2.15,1.06-3.78-7.62-.81-8-3-.43-2.46,4.69-2.51,3.99-5.48l-4.34,1.09-2.63-3.1-1.57,2.91-5.77-.78c-4.55,2.93,1.17,2.48.31,4.36-2.42,3.63-4.87.07-6.52-.07-4.89-.41-10.6,1.73-15.97,1.14l-15.5,1.45c-.23,4.67,7.6,1.37,9.5,4.99,1.31-3.78,6.05-3.19,9.35-2.85,2.31,8.75,4.09,1.13,6.64.79,3.6-.47,9.4,2.81,13.49,2.08.49,11.85-.69,23.65-.77,35.4-.04,5.91,3.01,11.09-3.2,15.09l2.98,3.49-8.99,1.02c-.49,2.09,3.69,3.87,1.03,5.53-7.8,4.84-6.36-10.71-8.54-11.52-3.7-1.37-2.04,3.48-4,3.98-1.71.44-2.3-1.79-2.5-2.99-2.72-.88-1.78,1.65-2.91,2.46-.35.25-7.31.95-8.57,1.62-4.07-.24-.02-5.17-2.98-5.09-2.8,2.1,1.01,5.57.33,8.31-1.49,6.07-11.27,3.77-8.86-4.32-5.28,2.37-8.25,1.88-10.49,8l-1.51-5-3.98,3-1-11,4.99,2.99c-3.25-3.5-.75-6.08-.96-9.45-.4-6.72-1.81-14.08-2-20.9l-5.04-1.66,1.99-1.98h-3.99s1.04,3.44,1.04,3.44c-3.38,1-1.11,6.53-1.05,9.55-1.63,2.18-2.89-10.45-2.94-11.54-.12-2.33.28-5.2.95-7.45-2.57-.46-1.79.41-2.45,2-3.28,8-1.72,20.9-1.51,29.47.06,2.44-1.38,4.79-1.06,6.96.18,1.29,3.55,4.7-.47,5.33-2.03.32-2.66-4.11-5.51-2.75-.97,2.68,1.81,1.59,2.02,2.64,1,5.2-1.73,9.06,6.98,8.36-.33,14.78-1.24,29.6-1.69,44.37-.05,1.54,1.7,3.2,1.43,4.95-.3,1.91-3.17,5.18-1.74,8.68l-1.98-4.51-2.54.51-.48,9.01c3.55-1.77,6.09,4,6.59,6.94.74,4.29-1.44,10.85-1.62,14.53s.6,7.36.47,10.7c-.1,2.54-1.7,8.1-1.45,10.34.56,5.01,4.93-.27,4.99,2.96l-3.49,4.6-3.49-1.58,2.99-2.49c-4.52,2.4-9.27-1.25-13.99,1.49,2.79,2.57,22.05,9.49,23.99,7.5.36-2.27-1.98-2.73-2.67-4.64-1.99-5.53,2.32-5.98,2.55-6.9.15-.61-.93-4.09-.94-5.9-.03-7.83,1.02-15.75,1.05-23.56l-2-.48c4.05-1.86,3.85-8.44,4.01-12.52,2.41,1.77,3.66-.68,5.54-.94,7.15-.99,7.81,2.56,13.45,4.94-1.92-2.24,1.04-5.94,3.48-5.98,1.56-.02,2.9,1.6,4.27,1.84,2.75.48,8.01-1.56,11.27.64.75.51,5.18,10.67,4.99,11.93-1.1,7.43-2.21,15.49-2.74,23.36-.19,2.86,1.68,5.58-.28,8.71.61,1.52,2.4-.38,3.02-.49-.35,6.63.5,13.48-3,19.47,4.46,3.35,7.13,2.26,5.99-3.47-1.3-.58-1.07,4.2-2.98,1.99-2.11-2.44,4.24-4.51,4.02-6.48l-3.02.47.99-11.99c-.64.04-1.38-.11-1.99,0ZM743.54,462.03c-1.11-14.34-.04-30.82-2.75-44.78-.24-1.23.45-3.44-1.23-3.21-.35,8.43,2.61,17.29,1.19,25.5l2.79,22.49ZM632.27,418.31c-.4-.34-4.54-2.29-3.7.2.29.87,5.04,12.59,6.98,10.51-.21-2.4-1.65-9.36-3.28-10.71ZM607.36,422.19l-1.38,5.88,6.62.5c2.26-4.73-2.57-10.85-7.05-7.03l1.81.65ZM561.55,425.02c-4.5-4.22-14.04-1.4-20-1.98,1.22,2.08,7.14,2.68,8.48,1.43l4.52,2.56-13.99-.99v2.99c7.33-1.46,14.68,1.13,21.96,1.98l.6-3.01-3.55-1.98,1.99-1ZM329.54,423.04l-8.37.12-12.62,2.86,10.99,2-.1-2.53,10.09-2.45ZM569.55,424.04l-5.99-1.01,3.97,3.5c-5.15.17-1.84,14.42-.48,14.48,2.39-1.12.45-7.47.66-7.86.38-.67,4.02-.63,2.83-4.12l-2.98,1,1.99-5.99ZM306.55,440.02c.43-.29-.34-9.9-1.49-9.97l-4.52,2.01.83,2.86-1.82.61c1.02,2.35,3.74.43,3.93.56.44.3.56,5.64,3.06,3.94ZM612.55,435.02c-.52-.46,3.74-2.84,1.01-4.51l-4.99.58-.06,5.28,2.06,1.15-3.02.51,1.02,6.99h5.99s-.99-2.99-.99-2.99l4.99.99-1.88-1.11c1.16-3.3-.04-7.42-4.11-6.89ZM571.65,445.91c4.79,2.01.35-13.18,1.89-14.88-6.07,2.88.16,8.2-4.04,12.47l2.16,2.41ZM654.54,431.04h-5.99c1.37,6.45-.36,12.95-1.19,19.4-.2,1.53-1.17,2.39.69,3.59l6.49-22.99ZM323.56,479.02l-1.51-46.99c-1.66,1.14-1.44,2.73-1.56,4.44-.5,7.22,0,15.7.01,23.09,0,4.02,2.44,15.62-2.19,17.72-1.35.61-4.77.48-4.77,1.24,3.13,2.18,6.62.7,10.02.49ZM616.41,448.17l-7.86-1.15.03,7.36-2.04,1.14c2.69,1.97,1.35,5.93,1.54,9.01.13,2.08,2.71,4.29-.2,6.59l-4.33.93c.09,2.08,3.48.32,5.06,1.42,2.29,1.6.09,6.45.48,8.69.33,1.88,2.67,4.31,3.24,6.6.97,3.92.42,8.38,2.23,12.28.7.76,1.96.86,1.71-1.26-.59-5.01,1.02-10.7.8-15.64-.06-1.36-1.37-2.45-1.49-3.68-.3-3.24,1.23-5.45-.88-8.78,1.35-4.02,5.97-2.37,5.87.84-.06,2.05-4.82,4.77,2.97,5.5-.97-4.06-.03-14.32-1.13-17.38-.52-1.46-2.44-1.37-2.73-1.74-.32-.41,3.49-9.13-2.13-8.88l-.99,3-.14-4.85ZM263.55,452.03v21.5c0,1.11-2.64,9.59-3.51,10.49l-11.49,3.02v2.99s9.33-1.07,9.33-1.07l1.68,3.06c-4.92.45-10.58-1.25-15.01,1.52-.36,2.71,1.68,1.1,3.02,1.01,2.79-.19,15.7-1.25,17.04-2.03.89-.52,1.13-2.96,2.6-3.41,1.3-.39,3.33.96,4.91.97,3.94.04,9.44-7.72,6.94-8.07l-9.49,1c-.61-4.11,4.35-1.79,4.99-3.98-11.7-.83-7.92-17.16-8.99-25.53-.19-1.46-.77-3.11-2-1.48ZM695.54,452.03c-2.37-2.42-6.44,7.07-8.99,5.48l-.98,1.03c2.36.81.8,4.31.98,4.48.52.46,4.2-.94,4.04,3.99l2.89-.02c-1.17-3.47,5.05-6.01,5.13-6.52.42-2.75-4.3-4.76-3.07-8.44ZM579.54,470.05c-5.26-.7-1.94-4.4-2.05-7.45-.07-1.93-2.94-10.91-5.94-9.56l-3,3,5.01,2c.79,3.48-2.99.4-5,2.01l2.07,1.6-.99,5.24,2.9,1.65-3.99-.5c-.54,1.81,1.43,2.29,1.71,3.64.2.96-.74,2.25-.49,3.59.41,2.22,3.84,6.64-.22,8.77l-.02-4-4.98,1.99.5-8.99c-3.29,2.58-.19,9.56-1.94,12.06l-6.56.94c-1.03,4.63,3.35,4.02,4.74,5.25.95.85.6,2.84,1.54,3.54.63.47,2.18-.27,2.78.86,1,1.86,1.61,14.61,2.09,17.7.42,2.76.51,6.51,2.35,8.64l2.46-6.54c.12-.67-1.93-.61-2.46-1.42-1.51-2.28-.03-15.86-1.51-20.02l3-1.01c-4.49.46-2.92-2.02-3.64-3.03-1.49-2.06-3.64-1.48-2.34-6.98l7.51,2.98-3.51.02c-.09,3.47,4.28,4.19,6.99,3.99l-.99-2.99,2.99.99c.98-3.64-2.65-3.48-3.99-5.99l3.87-.14,1.13-3.86-4-1.51,2.91-1.6-.94-2.31,1.92-.66.09-1.91ZM240.54,457.04c-2.66-.5-1.74.56-2.44,2-1.32,2.7-2.57,6.13-3.57,9-1.21-2.39-5.98,1.94-6.5,2.97-2.67,5.36,1.09,27.31,1.44,34.5.42,8.4,1.15,18.9,1.16,27.02,0,6.32-4.53,12.83-4.02,19.93.44,6.02,6.64,14.59-.04,19.07l9.48,7.56c4.94.04,3.45-15.61,2.48-19.05l-1.98,2.99c.37-4.66-.53-9.99-.06-14.55.33-3.27,1.74-5.09,2.09-7.91.44-3.56-.86-7.45,1.02-10.98-5.21-2.02-.22-2.5-.04-3.21,1.09-4.24-.22-15.45.04-20.7.1-2.07,1.48-4.18,1.55-6.32.11-3.51.11-20.64-.62-22.57-.53-1.39-2.84-.95-3.06-3.26-.28-2.81,4.62-12.2,3.07-16.5ZM696.55,487.02l-3.39-1.98c-1.06,1.15-9.45,1.3-8.6,3.47,1.42,3.59,9.67-1.41,11.99-1.5ZM577.54,494.04l-5.99,1.01c6.01,12.67.18,27.96,6.16,40.79,1.95-.8,5.89.03,6.83,2.18-4.74,2.5-2.56-.7-5.99-.99l-.02,4-2-4.01-4.99,1.02,1.02,2.98,2.98-1.99c1.45,3.24-1.81,6.59-1.9,8.44-.07,1.4,1.07,3.05.91,4.98-.18,2.16-2.22,3.4-2.01,5.57l6.89-4.67-1.89-11.32c4.01-.97,1.01,5.93,2.05,6.94,4.27,2.11,8.42-2.26,10.56-5.92,1.02-1.75,1.72-5.8,1.53-7.91l4.84-2.13c.29-1.95-5.1-.17-5.35-.03-1.1.63-.64,2.02-.65,3.05l-2.99-1c-.36.25,3.58,3.27.49,3.99-.5.12-4.42-6.51-8.51-5l1.05-2.42c-5.03-1.8.95-1.98-.28-6.07-.23-.78-1.86-.08-1.77-1.86.14-2.81,2.44-5.74,2.63-8.09.16-2.05-1.19-5.16-.62-7.54l-2.98,2c-1.83-5.63-.45-10.39-.02-16ZM266.54,497.08l-2.98-1.05c-1.76,10.97,1.4,23.6-3,33.51l2.98-.51.02,7c2.13-.59,2.09-3.15,2.37-4.9,1.47-9.16-4.27-23.91.61-34.05ZM616.92,504.65c-.66-1.15.31-2.9-1.36-2.62.9,9.17-2.59,14.95-6,22.99l10.85-12.75c.48-2.13-2.49-5.87-3.49-7.62ZM132.69,508.89c-.22-.19-1.25-6.76-3.66-2.87-2.77,4.47,4,9.45,7.51,11.01l.02-8c-1.06-.17-3.19.45-3.86-.14ZM195.21,507.8c.49-.86.77-2.75-.17-2.78-.41,2.45-2.81,1.6-3.51,2.69-2.78,4.33.33,7.91,0,8.32l-3.98-2c-2.6,5.29,3.02,10.61-4.51,12.66l-5-3.66c-.76-.16-.64.96-.48,1.48.95,3.06,23.16,25.98,26.96,29.04,5.59,4.49,3.18,1.3,4.96,0,.48-.35,7.4.01,8.06-3.52l-15.89-3.12c-.28-8-4.84-14.9-6-22.5-.32-2.07-2.2-15.03-2.15-15.84.03-.55,1.6-.59,1.71-.8ZM265.86,544.82c-.28-.42.4-1.52.22-1.78l-1.03-.98-6.43,4.6c-.23,5.15,5.09,6.66,2.92,11.87l2.49-.51-.48,3.01c3.7.86,1.93-5.33,2.23-6.5.15-.6,1.55-.39,1.72-1.2.4-1.89-.12-4.13.87-6.06.46-1.75-2.04-1.74-2.51-2.45ZM283.54,550.03l-9.53-1.76c-5.22,6.11,3.37,6.05,7.86,5.79l1.67-4.03ZM262.55,561.04c-3.81-.64-2.05,5.57-2.34,7.29-1.06,6.16-2.81,12.35-3.81,18.53l-3.84,1.66c2.9,3.76,7.59,5.2,11.99,6.5-1.5-4.16.51-12.15-.81-15.59-.59-1.53-2.03-1.4-2.19-2.12-.57-2.64.81-12.91,1-16.27ZM359.54,598.05c-.13-.15-2.1-.37-3.03-1.44-2.94-3.38-2.92-5.22-3.45-9.58-4,4.06,1.56,9.14.5,13.99.8-.37,8.03-.66,5.99-2.98ZM323.54,588.04c-2.7-.46-1.73.5-2.27,2.18s-1.67,5.97-1.74,7.46c-.08,1.84,1.7,1.09,1.82,1.82.11.67-.82,3.24-.33,4.58-1.67,1.75-3.36,1.99-5.47.95-1.8,1.95,6.53,5.32,9.04,3.55,1.18-.83,1.43-5.49,4.99-6.06.83-3.81-1.19-1.4-2.05-2.1-1.41-1.16-2.45-2.98-4.94-4.01l.94-8.38ZM405.55,596.04c-3.42-.72-7.08-.51-10.5.02-1.71.27-1.69-.56-1.49,1.97,3.36-.29,7.25.42,10.51,0,1.38-.18,2.99-.61,1.48-1.99ZM362.54,602.05c-2-2.44-12.22,2.02-9.99,3.98,4.8-2.6,10.26,4.57,13.99-.99l-6.99-1.51,2.99-1.48ZM347.55,605.05c-3.26-.23-10.65-3.35-10.99,1.98,3.35-.53,9.04,1.65,10.99-1.98ZM742.55,647.04c-5.88,1.23-13.2,2.04-18.83,3.7-1.74.51-2.61-.35-2.16,2.28,6.51-1.95,16.21-1.11,20.99-5.99ZM665.55,662.04l-7-1c1.88,2.81-.89,3.35-.99,5.99.94.93,8.87-4.12,7.99-4.98ZM81.54,672.03h-2.99s0,8,0,8l2.98-2.99,3.51,4.99c5.21-5.57-5.41-3.69-3.5-10ZM134.54,679.03l-14.87,11.63-.12,2.37,3.99-1v3.01c3.26-1.87,4.95,2.05,7.54,1.99,2.02-.04,2.62-2.95,5.91-3.05s9.47,2.16,13.21,2.69c1.37.19,3.12-.87,4.76-.65,2.92.39,5.57,5.3,9.3.57l-.25-10.59,7.55-3.47c-.08-1.74.78-2.65-1.51-2.51-2.14.13-6.43.91-8.51,1.51-6.74,1.95-10.6,4.02-18.51,3.59-2.29-.12-9.84-2.82-8.5-6.1ZM532.55,691.04l-2.52.69-1.47-1.23c-.35-1.86,2.72-5.25-1-6.46,1.67,5.88-3.13,4.6-4.03,9l-4.46-2c-4.49,3.18,1.65,11.49,1.48,4,2.96.97,8.36,2.7,11.44,1.98s-1.6-3.9.56-5.97ZM137.54,704.05c-4.75-.16-7.43-3.54-11.69-4.82l-4.3,3.31c3.85,1.25,8.49,2.17,12.52,2.48,1.1.08,3.72.74,3.47-.98ZM234.05,708.03h18l1.33-2.33-2.32-5.65c-2.4,3.55-6.75-.3-8.49,2.96,1.65-.44,1.91,1.81,2.71,1.98,2.38.52,7.09-1.51,6.27,2.03-4.22-1.26-12.83.64-14.45-2.96l-4.07,1.96,1.02,2.01ZM215.55,701.04l-8.99,3.98,12.91-1.08.08-2.9h-2.99s-2,2.99-2,2.99l1-2.98ZM641.55,705.02c-1.4-3.63-4.97-1.02-7.44-1.14-2.26-.11-5.66-1.59-6.24-1.6-1.69-.04-3.88,2.59-6.33,1.76-1.67,1.25.12,1.82,1.49,1.99,6.1.79,12.44-1.12,18.52-1.01ZM17.99,714.63c-.86-1.4-2.05-4.07-3.43-4.59-.23,4.61-.82,8.78,3.98,10.99-.22-1.77,1.21-3.79,1.06-5.35-.07-.72-1.4-.71-1.61-1.05ZM58.55,729.04c-2.12-.47-4.45.79-6.36.65-1.11-.08-13.54-3.84-12.64.83l13.45,2.55,4.88-1.02.67-3.01ZM304.62,777.98c-.41-.39.03-9.2-.19-11.32-.11-1.03-.4-4.7-1.87-4.62,1.26,25.19-4.25,49.96-2,74.99l1.98-9.51,3.03-47.88,1.97-.63c.34-1.94-2.32-.46-2.92-1.04ZM309.56,800.03c1.83-1.35,3.58-8.16,3.92-10.55.48-3.29,1.52-10.89-.44-13.45l-1.5,9c-5.03.84,1.85-7.89-2.99-7l.89,15.57c-4.88,1.97.74,3.06.11,6.42ZM281.54,838.03c-.36-10.57.48-21.14.64-31.66.11-7.22.98-15.87.42-22.88-.14-1.75.19-3.85-2.04-4.45,2.01,7.61-3.23,20.91-1.83,27.53.17.81,1.68.3,1.8.47v1.99s-1.99.5-1.99.5l2.07,1.14c-.24,7.89-.38,15.96-.06,23.87.05,1.22-.76,3.72.99,3.48ZM709.53,819.03c1.08-1.05,4.96-27.12,4.95-29.64s-2.13-7.13-3.44-9.35c-1.81,3.68.98,7.68.5,11.41-.32,2.49-2.35,3.66-2.68,5.25-.57,2.68-1.17,12.37-1.35,15.8-.06,1.12-.56,9.07,2.03,6.54Z"/>
      <path d="M159.55,115.03c-.02,1.95-.42,3.92-1.38,5.63-.58,1.03-15.95,15.69-17.07,16.41-1.22.79-2.01,1.24-3.54.95-.28-.26.75-3.23,1-3.99,4.33-4.69,9.12-7.19,13.02-11.48,2.55-2.8,3.84-7.97,7.98-7.52Z"/>
      <path d="M795.16,741.1c2.66-.89,5.29,1.49,5.98,3.91.85,2.96-.69,4.77-.64,7.47.09,4.66,2.16,7.91-.71,13.29-1.2,2.25-3.83,2.27-4.28,4.76-1.61,8.85,1.56,25.66,1.08,36.03-.22,4.71-1.94,10.31-2.13,14.96-.18,4.57,3.77,11.18-4.39,12.57-2.15-.21-3.32-2.63-3.38-4.52-.2-7.17,3.24-19.14,3.84-27.06,1.39-18.19-1.07-41.82,3.06-58.94.27-1.12.22-2.04,1.56-2.48Z"/>
      <path d="M613.55.04l-.99,2.99c.25.3,5.08-4.93,6.01.48l-2.12,4.43-3.89-.9-1,5.99,6.45-4.03c2.79.37,8.74-2.95,10.02-3,.52-.02.35,1.55,1.31,1.95,3.29,1.39,7.57,2.17,10.74,4.07,2.36,3.2-5.24,3.75-6.47,4.57-.97.65-1.2,2.4-2.08,2.92-1.77,1.05-5.04.03-6.48,2.5l-1.49-1.97,4.99-2.5c-4-5.17-4.84-1.46-6.79-.62-3.71,1.6-7.77,3.04-11.69,4.12l.5-2c-5.82-2.48-11.61,2.06-16.49,2.12-4.31.05-11.33-4-16.51-3.13l8.55-1.86c9.79,1.36,15.22-6.44,25.44-4.14l-1.99-2.52,2.02-1.98-2.07-4c-.02-1.61,2.2-3.87,4.03-3.49Z"/>
      <path d="M714.55,2.04c-1.92,3.68,4.03,5.44,4,9.98l-4.41,1.04-3.6-2.53,4.06,7.45c1.3,1.21,8.59-4.25,9.94.03-4.16.83-10.24,2.99-14.37,2.69-1.65-.12-3.35-1.43-5.2-1.61-4.05-.38-26.74-1.69-27.42-4.59,1.26-5.12,4.26-.87,6.57-.49,2.89.48,6.35-1.28,9.9-1.03,4.01.27,7.44,3.04,11.52,3.03l-.94-5.44,4.94-.55-2.99-3.99,7.99-4Z"/>
      <path d="M815.53,508.04c1.06,7.94,6.1,4.52,11.25,6.26,3.96,1.33,5.49,5.22,10.77,3.74.16,4.5-4.58,6.7-3.01,11.99l-17.99-10.5,2.99-1.49c-4.71.99-4.2-6.23-6.01-9.5l2-.51Z"/>
      <path d="M15.56,171.03c-2.77-1.81.65-10.99.88-13.6,1.11-12.94.35-25.58.6-38.39,3.75,4.62,2.73,11.04,2.61,16.38-.03,1.23.99,2.62.88,4.07-.18,2.18-3.32,5.41-2.95,9,.48,4.72,3.65,9.22,2.92,16.91-.21,2.23-2.05,7.51-4.94,5.63Z"/>
      <path d="M837.54,717.02l-1.76.2c-.65.72,1.08,6.42,1.69,7.2.77,1,2.42.23,3.16,1.22,2.41,3.22-2.12,8.52-1.08,12.39l-2.98-2.99c-2.13,4.98,1.24,4.43.83,8.85l-3.84,1.14c.74-5.51,1.2-11.8.66-17.33-.34-3.5.26-5.25.17-5.98-.15-1.29-2.54-2.96-2.52-6.02.04-6.23,6.1.77,5.67,1.31Z"/>
      <path d="M828.53,766.04v5.99s2.85.17,2.85.17l.17,2.83h2.49s4.5-4.99,4.5-4.99c.01,3.1,1.05,6.72-2.99,7.01l.12,1.9,1.87,1.57c-1.33,1.76-5.79,6.21-7.99,4.51-2.31-1.79,2.6-1.76,1.99-2.98-4.35.61-6.05-2.25-7.97-5.52,2.6-3.41,1.79,1.54,4.44,1.59,3.78.07,3.44-1.27,2.53-4.08l-2.98,2c.63-2.48-1.31-4.55-1.54-6.51-.03-.21.65-4.62,2.52-3.49Z"/>
      <path d="M751.54,26.03c-1,1.09-17.14-6.02-19.71-6.78-2.32-.69-7.03,1.26-6.27-2.22,8.1,2.47,24.91-3.19,25.99,8.99Z"/>
      <path d="M838.56,703.03l2.98-1v5s-6.05-.57-6.05-.57c-1.77-.7-3.99-15.21-.44-15.41,1.78,1.35.89,3.21,1.67,5.22.92,2.38,3.66,2.58,1.84,6.76Z"/>
      <path d="M783.54,730.04v15s-3.99,0-3.99,0c1.91-4.98-3.25-13.78,3.99-14.99Z"/>
      <path d="M775.55,10.02h-4.01c2.31,4.2-4.42,7.66-2.99,2.02-2.09.21-3.45,1.94-4.98-.51l2-3.49c2.69-.74,1.88,1.67,3.48,2.97l2.51-5.98c2.95-.36,2.98,3.07,3.99,4.99Z"/>
      <path d="M834.54,600.03c-8.59.09-3.11-11.32-4.99-16.99,1.57.6,2.22,4.22,2.62,5.78.94,3.66,1.12,7.6,2.37,11.21Z"/>
      <path d="M4.9,741.69c.91.54,2.45.02,2.72.91,1.25,12.12-10.7,3.46-3.56-2.56.83-.32.19,1.27.84,1.66Z"/>
      <path d="M721.54,801.03c-1.74,0-1.1-4.37-1.04-5.54.11-2.16,1.66-22.06,3.54-21.45l-2.51,26.99Z"/>
      <path d="M471.82,10.7c1.55.76,3.57.06,4.71,1.83-1.83,2.48-3.73,3.29-6.56,1.59l-2.42,1.9c-.75-2.35,1.48-6.19,3.5-6.99.84-.33.19,1.38.76,1.66Z"/>
      <path d="M552.55,20.04c.28,3.15-.31,1.56-1.93,1.65-3.66.2-7.4-.34-11.07.34-.55-7.72,8.53-.83,13-1.99Z"/>
      <polygon points="654.54 1.03 655.56 6.02 649.06 9.02 647.56 5.54 652.55 5.02 651.76 2.66 654.54 1.03"/>
      <path d="M442.56,760.03c.56-5.09-.55-11.33,4.98-14-.89,4.84-.3,10.7-4.98,14Z"/>
      <path d="M656.55,565.04c-2.17,3.25-1.72,10.03-7.52,7.01l-.48,1.96c3.07,3.28,15.37-3.25,18.51-5.81l4.48,4.34c.96,2.27-3.32,1.74-3.86,2.62,1.44,8.02-6.61,11.36-8.13,18.86l8.49-7.04c1.7-1.39,4.38.05,3.51-3.95,1.53-.37.76,1.41,1.68,2.01,1.6,1.03,8.09,4.63,9.3,2.98,1.84-2.5-2.97-2.75-1.99-4.99l4.99,1.01-1,2.99,7.99,1c.68-4.43-4.86-5.49-.99-8.98l-4.99.99c-1.43-2.02,4.25-7.35,6.99-6.01l-1.99-3.99,2.99.99.11-4.87c3.09,1.63,3.88-4.16,6.4-5.12l1,2.05,4.48-2.05c-.34,2.15,1.76,3.84,2,5.59.22,1.62-3.65,11.82-4.17,12.24-.61.49-2.59-.03-3.78.68-1.09.66-1.25,2.93-2.7,3.43-1.09.37-5.43-1.66-5.32.56.1,1.96,3.81-.65,2.96,1.98-1,3.1-3.85,3.63-4.68,4.82-1.22,1.74-.76,5.62-1.53,6.49-.84.95-2.52.13-5.06,4.26-1.67,2.72-.44.55-2.34,2.28-5.05,4.59-6.8,10.26-14.05,13.54-3.17,1.44-5.35-.02-6.33.57-1.5.89-2.07,5.38-4.06,7-.97.79-6.12,2.85-4.92.08,1.47-3.4,10.85-7.25,10.96-13.03-3.49-4.14-4.44,2.62-7.97,1.5-.32-.23,2.73-4.32,2.65-5.49-.03-.55-4.02-6.47-4.9-6.85-6.86-2.92-11.66,6.5-14.26,11.34l-.99-1.99c-2.12,2.74-3.2,3.33-6.5,2-1.34,6.54,13.73,9.18,4.94,13.6l-15.94-14.11,8.53,2.26,2.46-5.76c-4.01-.35-9.56.68-12.42-2.08-1-.96-3.38-5.23-3.23-6.44.08-.66,5.89-6.06,2.15-6.47-.8-.09-2.44,1.28-3.86.9-.78-.21-3.46-4.87-5.61-4.9-1.14,3.56-.71,7.06-4.95,7.54-6.69.76,1.41-6.36,1.04-9.44,1.12-.82,19.74,3.41,18.9-5.09l-7-1.01c-.05,1.98.79,3.56-2,3l-.05-3.96-5.95-1.05c1.19-4.56,5.26-5.64,3-11l1.84.87c.57-3.52,3.52-3.49,5.53-5.02,1.12-.86,1.54-2.41,2.32-2.89,1.22-.74,6.06-2.2,5.27.51-.74,2.51-4.08,9.06-5.58,11.43-1.4,2.21-4.39,3.29-4.38,6.11,1.56-2.04,6.93-2.23,7.81-3.15.15-.16-.55-1.4-.24-1.85,2.07-3.05,6.37-.27,7.43-1.01l-1.99-5.99,3.49,1.98c2.09-.99.27-3.14.92-3.99.74-.97,2.92-1.07,4.09-1.99,6.51-5.1,10.23-11.99,16.99-16.99,6.26,5.64-4.18,10.18-7.54,13.44-2.67,2.6-10.14,10.06-3.52,11.51,3.61-4.58,6.92-5.68,12.56-5.96Z"/>
      <path d="M48.31,561.76c-.13.25-1.42.41-2.05,1.52-4.84,8.55,7.38,8.72,3.29,16.74,2.43,2.92,3.66-9.54,5.99-8.99l1.01,18.99c7.48-2.92,10.42,6.52,13.97,11.51l-3.97,1.5v-4.01c-3.48-1.2-6.26,2.44-6.06,5.42.07,1.05,3.9.99,3.04,3.59l-2.98-2,1.98,10-.99-4c-4.82,1.08-5.18-3.35-8.49,2.98-3.26-1.94,2.96-5.55-1.57-5.55-6.99,0-.78,6.08,1.97,8.28l-2.4,9.27-1.5-4.99-5.49.04c-1.76-6.6-7.33-10.14-5.51-18.03-7.98.67-5.1,11.85-7.76,17.73-.62,1.37-.94,2.55-2.25.75,3.48-9.94-1.01-19.84,1.03-29.48l4.47,8.98c3.81-4.12,1.3-7.51.54-11.95l3.95-1.54c-1-2.69-5-2.03-5.79-2.68-1.51-1.24-2.06-10.68,2.3-10.81,2.5,1.93,1.31,5.29,1.52,8l3.93-.06c-.3-3.43,3.34-7.29,6.05-9.43-.22-2.05-3.17-2.89-3.53-3.5-.86-1.46.95-3.14.43-3.84-.26-.36-1.81-.42-2.31-1.2-1.43-2.23-2.18-7.91.4-9.51,1.88-1.17,4.06,2.66,6.5,2.46.05,1.02.69,3.05.29,3.81Z"/>
      <path d="M721.38,669.86c-.38.5-2.73-.52-1.84,2.17,7.05,1.54,12.9,2.01,13.01-7.01,6.86,2.74,11.99-3.38,18.99-.98-.7,5.35-10.13,5.97-5,11.99-5.4-2.53-7.12,1.22-12,2.02,1.05,4.15,8.2.6,8.85,1.08l2.15,3.89c-4.51,2.92-10.53-3.64-13.5-3.62-.91,0-8.45,2.56-8.48,3.12,3.86,4.63,2.09,7.87-3.62,8.5-5.15.57-4.6-2.52-7.33-3.52s-6.31-1.36-9.07-.47c-.71-3.39,1.31-4.61,2.99-6.99-7.32.79-5.16-5.69-6.15-6.86-.51-.6-5.04-.02-3.82-3.63,1.93-1.43,3.48-1.59,3.02-4.44l8.49,1.76,1.48-5.83,1.59,2.08,6.33-1.17.57-2.89,3.42,2.64c-1.06,1.75.17,7.83-.08,8.16Z"/>
      <path d="M151.48,618.05c.24.25.06,2.44.97,3.56,1.41,1.72,4.77,1.07,5.7,4.4.85,3.03-2.62,4.38-2.63,6.55,0,2.06,3.88,3.27,3.09,6.89-.16.97-13.07,3.31-10.06,5.59,2.65.05,7,.04,9.32,1.21,1.52.77,1.5,2.76,2.33,2.89,1.25.19,3.37-1.99,4.34-.61l-2.64,4.36c-6.73.29-11.19,4.64-18.23,2.02.26-1.85-1.16-4.91-.91-6.27.39-2.16,5.27-2.84,4.78-5.08-.84-3.84-3.7.63-4.45.52l-4.61-2.73,2.07-10.3h-4s2.06-2.64,2.06-2.64l-1.08-6.36c-1.62-.13-1.28,2.26-2.09,3.39-3.6,5.02-7.28-2.38-3.49-5.48,3.24-2.66,4.86.86,7.06,1.02,3.31.23,6.14-3.57,7.04-3.64.68-.05,1.61,1.04,2.38,1.14,1.04.14,2.88-.59,3.05-.41Z"/>
      <path d="M461.54,620.04c.14,7.3-7.39,5.76-8.99,10.99,5.21-2.73,12.08-2.29,14.92,3.37-2.67,4.77-6.09,4.24-10.49,5.57-1.79.54-4.19,2.9-5.43,1.57l1.99-3.49-3.99-1.03,1.99-.98c-.17-2.75.97-6.13-1.51-8.01-15.22,7.65-34.02,2.8-50.47,5.99,1.51-2.3,6.84-2.35,9.64-2.85,10.62-1.87,21.35-3.33,31.98-5.02,2.09-.33,7.67-.07,8.91-.54,2.02-.77,5.94-7.85,11.47-5.58Z"/>
      <path d="M758.43,423.15c1.06,1.18-1.72,11.5,3.11,12.88l.02-6.99c3.71-.38,6.37,3.8,2.01,4.01v.97c5.25,1.32,4.25,8.05.45,11.02l-3.45-2.01.13,12.37,2.85.63c-.03,3.15-3.13,4.83-3.01,9-1.45,1.49-1.8-.11-1.98-1.49-.83-6.58-1.05-14.73-4.24-20.78-1.55-2.94-6.22-2.96-4.36-8.76,1.56-4.88,1.37-2.58,1.88-8.34.34-3.82,5.09-4.18,6.59-2.51Z"/>
      <path d="M133.54,33.04l-1.99,4.97,6.05,3.69-2.58,5.32-1.65-4.88c-1.76-.07-3.17,0-2.85-2.1l-1.58,2.08c-5.04-1.01-12.77-2.87-16.9.89l-4-5.96c-1.02,2.65-5.06,3.33-3.5,5.97l-5.01-1,1.01-6.51c4.27,1.03,12.57-.32,5.49-4.47-2.07-2.53,7.42-1.24,8.8-.8,1.54.48,2.17,2.14,5.19,2.9,4,1,9.28-.82,13.52-.1Z"/>
      <path d="M749.55,241.04l-1.06,3.35c3.07,1.35,2.85,5.23,4.67,7.54,1.25,1.58,4.48,2.19,4.26,4.43-2.7,5.74-7.15,9.96-13.86,9.68.88-5.11-4.08-3.2-.07-8.38l-3.79-4.96,4.07-10.46,5.8-1.2Z"/>
      <path d="M770.19,645.4c1.63.88,3.87,3.7,2.35,5.63h4.01s-3.99,2.99-3.99,2.99c4.05,1.7,6.32-3.43,10.99-1.98l-1.99,2.97,4.94,2.5-2.93,6.02-6,2.49-2-3.01v4s-5.57-1.95-5.57-1.95c1.44-4.96-6.07-3.71,1.53-8.64l-1.96-3.92,1.96-.92c.05-5.48-9.64-5.39-11.45-1.57-7.41-8,4.52-7.68,10.14-4.63Z"/>
      <path d="M588.31,609.28c.51.58.9,3.01.71,3.86-1,4.48-6.28,2.33-9.74,3.12-4.96,1.13-12.01,5.56-16.25,5.84-.79.05-7.97-.47-8.59-.64-4.47-1.26-3.6-7.37-.18-8.3,2.8-.77,8.52,4,12.03,4.65,4.93.92,8.6-1.88,13.25-2.8.18-2.87-3.41-1.79-1.9-5.89,2.71-.67,8.61-2.15,10.67.16Z"/>
      <path d="M783.39,395.2c-.42,4.52.91,8.91,1.19,13.29.63,9.74-.23,17.04,2.37,26.46.94,3.39,2.63,9.32,2.63,12.57,0,2.54-3.56-.19-5.01,2.51-2.14-2.59-1.42-3.9-2.05-6.26-.29-1.1-2.82-.11-1.9-6.2.19-1.27,1.5-2.35,1.55-3.05.22-3.71-6.22-10.2,1.39-15.46-4.05-.27-3-3.94-3.01-7.02l-2.98,2c-.07-4.45-4.53-4.04-4.53-8.93,0-.53,2.06-8.41,2.44-8.65,1.83-1.13,4.92.93,5.55-2.44l2.36,1.18Z"/>
      <path d="M60.55,563.04l.96,8.51-1.95.99c-.81-1.06-2.93-1.56-3.52-2.51-2.74-4.44.67-4.82,2.78-6,4.07-2.27-3.71-5.02-3.99-5.29-.74-.72-.72-3.43-2.29-4.21,3.99-.12,2.83-2.24,4.21-4.76.62-1.13,1.98-2.06,2.27-2.79.5-1.26-.3-2.52-.01-3.94.39-1.96,3.78-5.13-.47-5.02l1.51-1.98,2.45,1.48c-3.11,5.63-1.95,13.82.6,19.45,1.03,2.26,5.63,6.24,5.4,9.58-.3,4.48-6.63-5.08-7.96-3.51Z"/>
      <path d="M357.55,670.04c-6.06,7.24-12.96,5.22-20.46,1.95-1.26-.55-2.76-.49-2.57-2.48.01-1.52,5.32-5.46,6.51-5.47,1.44-.02,2.58,1.37,3.98,1.54,1.3.16,3.03-1.02,4.86-.44,2.04.65,2.91,6.54,7.68,4.9Z"/>
      <path d="M51.54,58.03v5c3.98,1.32,7.8-8.85,10.54-2.98,1.46,3.12-6.16,12.26-6.54,8.34l-.13-3.22-4.87-1.13,2.08,6.35-4.41,1.54c-6.33-5.27-5.74-14.25,3.33-13.9Z"/>
      <path d="M61.15,81.46c.81.6.91,2.32,3.39,1.58l-3,2v1.99s3,.99,3,.99c-2.61.35-5.87-.5-8.32.03-.72.16-.03,2.67-4.68,1.32-.67-.2-1.29-1.45-2.05-1.79-1.2-.52-3.28.81-3.84-1.15-2.06-7.18,6.59-6.34,10.42-9.39,1.01,2.95,3.04,2.88,5.08,4.41Z"/>
      <path d="M179.68,615.17l9.18-4.04c7.73,5.62,2.58,14.47-5.59,14.77-5.16-2.84-4.32-5.52-3.59-10.73Z"/>
      <path d="M188.55,51.02l-4.97,2.51,1.97,3.49c-2.8,3.25-8.9-6.06-9.99-8.48,1.44-.2,3.97-3.07,4.3-3.24.79-.39,1.98.47,2.69.11,1.78-.91,5.28-4.58,6.49-4.38,2.72,3.28.61,5.94-2.47,7.5l1.98,2.49Z"/>
      <path d="M150.72,541.85c2.52,1.48,5.12-2.08,6.3-1.82l1.54,4.01,2.48-2,1.5,2.98c-4.42.32-6.7,5.96-11.49,5.05-.99-.19-.08-2.04-.73-2.76-.33-.37-4.75-2.13-5.64-3.73l1.36-7.53,4.67,5.79Z"/>
      <path d="M236.33,608.25l6.23,7.77c-7.29.61-17.18,5.88-16.92-5.91l10.7-1.86Z"/>
      <path d="M59.54,511.04c.53.7-.45,7.35,0,9.34.21.95,3.17.28,2,2.63l-2.99,2.01c3.76-.29,5.11,2.59,4.99,6.01-2.93-1.96-6.6,3.2-8.36,2.91-8.25-6.76,2.24-9.85,2.43-10.53.66-2.36-.46-7.82-.06-10.9.18-1.38.74-3.12,2-1.48Z"/>
      <path d="M490.55,618.01l-3,2.01,6,4-3.02.52-1.48-2.54h-1.97c-.81,3.29-2.12,1.06-3.53,1.5l1.01,4.52h-7.01s1.96-3.5,1.96-3.5l-4.96-2.5c2.84-5.61,6.57-2.54,10.22-4.06,1.03-.43,2.76-4.86,5.78.05Z"/>
      <path d="M758.58,203.03c5.42-1.79-.76,3.37-4.03,2l-.14-7.86-3.84-1.19c.57-5.51,1.92-15.02,8.95-9.45l-2.89,3.14c3.8,4.62.52,5.51.09,8.06-.21,1.26,2.34,3.41,1.85,5.3Z"/>
      <path d="M681.54,513.04l-.99,4.99,4.98-2.01,1.63,5.52c-2.07,3.59-4.67,4.64-4.64,9.48-2.34-.61-1.56-3.36-2.58-4.95-.52-.81-1.99-.99-2.46-1.74-3.01-4.84,2.43-13.03,4.04-11.3Z"/>
      <path d="M194.54,576.03l-5.98-3.5-20.01-25.48c1.55-1.38,12.59,11.69,14.51,12.98l11.48,16.01Z"/>
      <path d="M306.24,650.22c6.62-2.06,11.49,6.45,5.34,10.3-6.82,1.15-12.74-7.99-5.34-10.3Z"/>
      <path d="M616.23,562.78c-.4.37-1.69.1-2.32.57-.76.57-.81,1.94-1.96,2.44-.85.36-4.39-.4-5.79.32l-1.61-4.56c1.81-2.95,2.48.59,3.98.02,2.02-.76,12.45-10.11,13.01-9.53,1.7,3.75-1.38,4.47-3.46,7.05-.89,1.1-.96,2.87-1.85,3.7Z"/>
      <path d="M575.27,49.31c.87.7.94,2.75,1.85,3.68l-1.14,2.01c-5.23-.02-9.12-1.58-11.42-6.47l1.99-1.48-3.99-3,8.4,1.14c1.21,3.8,2.61,2.74,4.31,4.13Z"/>
      <path d="M532.56,37.04c-.26,4.87-1.83,11.42-8.09,9.57-3.28-8.96-1.56-13.12,8.09-9.57Z"/>
      <path d="M689.55,569.04c-.37,2.84-6.75,14.06-10.01,12.55-6.3-2.91,4-14.91,10.01-12.55Z"/>
      <path d="M765.54,588.03c-2.94-1.89-2.18-7.08-3.1-10.39-1.82-6.51-5.79-10.95-.39-17.61,3.73,4.12,1.61,9.77,2,14.91.3,4.03,1.89,8.81,1.49,13.08Z"/>
      <path d="M63.54,349.04c-.21,1.67.42,3.84.02,5.35-.28,1.07-3.04.01-1.99,2.63l1.98.5c-3.39,7.57-3.1,2.26-3.5,2.51-1.55.98-.67,3.77-3.5,2.99,1.83-4.76-.42-3.48-.93-4.76-2.3-5.85,2.72-8.6,7.92-9.23Z"/>
      <path d="M371.55,640.02c-4.45.26-6.06,2.4-7.63,6.1l-14.35-4.59c-.07-2.68,9.15.11,10.06-.02,3.5-.48,8.85-6.8,11.92-1.5Z"/>
      <path d="M45.56,449.03l.82-2.88-1.82-.61c1.67-3.98,3.42-2.69,5.19-3.58,2.08-1.05,3.68-1.22,3.87-1.36.94-.69.67-4.5,3.92-4.57.27,3.18,1.81,4.51.07,7.56-1.63,2.86-9.04,1-12.05,5.45Z"/>
      <path d="M63.54,481.03l1,13c-6.35.48-3.43-5.38-9-4l2-2.5-2.02-.99.06-2.46c4.1.3,3.37-4.43,7.97-3.05Z"/>
      <path d="M745.54,39.03l.98,3.6,3.57.31.45,7.08-4.47-5.99c-3.74.8,2.07,12.03-3,10.99-2.79-.57.2-7.2-3.52-7.48l4.01-7.82,1.98-.69Z"/>
      <path d="M209.54,579.03c-2.76,2.79-4.2-4.77-5.59-5.9-1.7-1.38-6.08-2.91-8.41-3.1,1.13-13.36,16.67,6.31,14,9Z"/>
      <path d="M251.7,678.89c.11.14,2.87-2.09,1.85,1.14l-15.52,3.97-.98-.98c.37-1.65.42-2.14-1.49-2.01,3.3-6.08,6.72-1.97,8.28-2.16,2.36-.29,6.67-5.5,7.86.03Z"/>
      <path d="M378.55,672.02c-4.5.16-9.12,8.08-13.9,3.43l.91-4.43,4.05.6,1.52-3.67c2.69.28,7.57.58,7.43,4.07Z"/>
      <path d="M135.82,576.31l-7.26,7.72c-.11-1.23,2.25-8.69,2.58-9.03,1.56-1.61,8.33-3.34,10.41-5.97l.58,5-6.3,2.27Z"/>
      <path d="M136.75,549.19c-.26.43.42,8.16-5.2,6.84-.07-3.62-.35-7.73,1.52-10.98,1.67-2.9,1.59,1.84,3.47,1.98.19-4.9,2.37-5.01,4.99-1.5-.49,1.65-4.52,3.25-4.77,3.66Z"/>
      <path d="M753.55,671.04c-.39,1.53,1.47.77,2.01,1.66,2.14,3.54.11,5.01-2.52,7.31l-2.22-2.48c3.14-3.98-.64-4.74-1.28-8.49,4.33,1.03,3.99-1.56,6.5-3.99,4.33,3.55,3.34,8.21-2.49,5.99Z"/>
      <path d="M764.41,132.19c.44.7.36,6.19,0,7.24-.51,1.46-2.81,1.31-2.9,2.19-.11,1.11,2.16,4.12.54,5.41-2.18-1.83-2.04-4.75-5.5-4l4.03-4.5-3.01-3.99c1.08-2.13,5.29-4.77,6.83-2.35Z"/>
      <path d="M601.55,63.04l9.77-1.35c1.95-4.27,7.9-1.45,10.73-1.66,4.85-.35,9.38-2.57,14.5-.99l-12.3,2.02c-2.31,5.11-7.64-.06-10.2,0-1.73.04-2.91,2.09-4.45,2.51-6.45,1.78-12.45.06-19.04.45,1.22-4.22,6.72.6,8-2.5l-3.98-3c4.9-5.43,8.05-1.91,6.98,4.51Z"/>
      <path d="M360.55,634.04c-6.23,5.57-14.15.45-20.48-2.02-1.4-.55-2.51.35-1.51-2.48.74-2.07,1.72-.89,2.64-.68,6.06,1.38,12.04,6.8,19.35,5.18Z"/>
      <path d="M459.55,680.04l-1,4.98c-3.84-1.44-8.28,1.11-10.89-2.49,2.1-1.63,1.2-3.2.89-5.49l10.99,3.01Z"/>
      <path d="M778.54,367.03l-5.74-6.76-.25-8.23c6.48,1.01,5.47,9.88,5.99,14.99Z"/>
      <path d="M607.42,625.91c-.53.9-5.79,1.72-3.88,7.12l-3.53-.98c-1.37-3.05.3-13.27,5.53-10.57,1.31.68,2.68,3.07,1.88,4.42Z"/>
      <path d="M169.54,660.04c.04-1.72-.29-3.63.21-5.29,3-9.97,16.6,7.39-.21,5.29Z"/>
      <path d="M65.56,476.03l3.98-1,2.13,8.54-2.11,2.45,3.01.02-1.02,3.99-5.83-6.72.84-5.76-1.47-1.21c-7.16,1.51-4.58-3.04-1.03-6.3,2.77,1.83,2,3.13,1.51,6Z"/>
      <path d="M538.55,671.05c1.81,2.41-9.93,6.4-10.72,1.7-1.7-10.19,5.66-2.82,10.72-1.7Z"/>
      <path d="M307.3,620.34c.22.13.25,1.47,1.48,1.99.84.35,9.35,1.62,6.76,3.7l-7.99.02,2.02,1.48-1.51,2.5-3.52-8.5c-.55-2.02,1.5-1.94,2.76-1.19Z"/>
      <path d="M795.54,650.03l-5.57.97.57,6.03c-12.07-.5,2.76-16.03,5-7Z"/>
      <path d="M744.56,156.04c-1.03-3.45-1.83-7.62,1.49-9.99,4.94,3.77,5.41,8.58-1.49,9.99Z"/>
      <path d="M325.55,634.03v4s3.99-1,3.99-1c-.9,6.89-12.72-1.76-13.99-4.99l10,1.99Z"/>
      <path d="M745.55,222.04c-3.63,5.94,9.45,9.08.5,13.04l-2.48-1.57,1.99-1.98c-3.29-2.42-2.92-3.45-2.03-7.06.42-1.7-.97-2.93,2.03-2.44Z"/>
      <path d="M655.86,58.83c.12.33,1.79-.5,1.7,2.69-.08,2.58-1.07,1.38-3,1.5l1.99-1.48-2.5-2.49-1.99,2.98c-5.29-3.68-1.31-10.92,4.07-5.98.55.92-.5,2.12-.26,2.78Z"/>
      <path d="M57.54,364.04c1.47,1.74-.92,4.92-2.99,5.5,1.23.82,3.15.32,1.5,2.52l-7.5.97c1.34-2.08,3.03-.2,1.06-3.9,2.06.42,6.7-6.54,7.93-5.08Z"/>
      <path d="M686.54,66.04c.26,1.7-2.39,1.07-3.47.98-6.24-.54-11.75-2.85-11.51-9.99,4.64,4.49,7.72,8.77,14.98,9.01Z"/>
      <path d="M157.54,52.03l-11-1,.07-2.91c4.54-2.02,9.95-1.69,10.93,3.91Z"/>
      <path d="M602.55,43.03c-1.84.08-8.69.75-7.99-2.47,3.69-5.42,8.35-4.24,7.99,2.47Z"/>
      <path d="M97.33,47.27c3.49,9.79-14.19,5.89-2.78-.68l2.78.68Z"/>
      <path d="M268.56,672.03l-.52-2.03c-2.54,1.48-3.52,1.83-6.5,1.03l1.07-4.93,7.5,1.87-1.55,4.06Z"/>
      <path d="M132.54,52.05c1.5,1.59-.38,1.71-1.41,2.11-3.87,1.47-7.5-.76-11.58-.13-.33-2.43,0-1.59,1.39-2.1,2.35-.88,10.07-1.51,11.6.12Z"/>
      <path d="M48.54,171.03l-.94,6.57c-1.79,1.28-4.83-.65-6.04-2.07,2.25-2.63,2.75-5.37,6.98-4.5Z"/>
      <polygon points="565.55 54.02 561.11 55.09 560.05 53.03 557.18 54.96 554.55 51.04 560.9 51.11 562.54 48.04 565.55 54.02"/>
      <path d="M791.54,644.03c-5.06.82-7.34-3.49-6.99-7.99,4.13.04,6.44,4.37,6.99,7.99Z"/>
      <path d="M780.54,327.03l2,8.47-2.49,1.54c-3.07-3.64-4.29-4.32-1.6-8.56.53-.84-.53-2.01,2.09-1.45Z"/>
      <path d="M768.56,455.03c.17-2.08-.36-4.49,0-6.49,1.28-7.22,10.21,5.37,0,6.49Z"/>
      <path d="M794.54,637.03c-4.35,1.14-9.27-4.58-5.48-7.99,2.37-.51,5.85,7.66,5.48,7.99Z"/>
      <path d="M307.55,61.02l-20.99,1c-.18-1.45,2.62-1.8,3.58-1.9,3.48-.37,9.77-1.18,12.93-1.18,1.75,0,3.93-.03,4.49,2.08Z"/>
      <path d="M302.55,682.02l-5.01,1,.5-2.01c-4.14,2.35-3.02-.55-4.21-.93-1.65-.53-4.54.68-5.27-2.04l3.81.8.68-1.8,9.51,4.99Z"/>
      <path d="M720.21,592.8c-.12.3-1.56.19-1.54.68l.88,4.56-2.85-.15-2.14-6.84,4.04.59,1.94-3.59c.02,1.65.34,3.14-.33,4.76Z"/>
      <path d="M200.55,50.04v4.99s-2.52-.98-2.52-.98l-.49,2.98-4.97-4.49c1.97-2.94,4.74-2.72,7.99-2.49Z"/>
      <path d="M752.53,278.03c1.27,4.63.21,6.05-3.97,8l-2.02-4.48,2.92-.64.09-2.89h2.98Z"/>
      <path d="M216.56,38.04l-.5,1.99-1.51-3.99c5.88-1.73,11.01-1.27,5.5,4.97l-3.49-2.98Z"/>
      <path d="M66.73,458.36c-.48.27.46,2.1-1.17,1.67l-1-6.99,2.98,1.01,2-4.01-.12,7.4c-.53,1.86-2.12.61-2.69.93Z"/>
      <path d="M748.54,688.05l-.51,2c-5.03-3.08-7.94,1.77-12.49-.03,3.79-4.13,8.29-4.5,12.99-1.97Z"/>
      <path d="M205.29,642.3c.79.8,1.72,4.28,1.26,4.73-2.09,2.04-4.58-5.43-5.12-.16-1.62,1.33-5.68-3.71.02-2.92-1.38-3.31,1.97-3.55,3.85-1.65Z"/>
      <path d="M268.77,653.81c1.54.99,4.5-1.24,3.78,2.22-3.53-.2-6.22-.45-8.98,2l2.02-4.5-2.03-2.5c4.16-1.33,4.19,2.11,5.21,2.77Z"/>
      <path d="M491.5,648.97l-3.94.63-3.01-4.55,4.37-1.95c2.83,1.22,1.71,3.55,2.58,5.87Z"/>
      <path d="M180.55,30.02l5,1h-12.99c-.12-1.82,2.46-.68,3.97-1.51,2.3-1.26,3.26-5.67,6.01-1.98l-1.98,2.49Z"/>
      <path d="M71.9,510.75c.29.58,2.08-.28,1.65,1.27l-4,2.53-2-1.04,2.51-9.48c.99,2.14.73,4.52,1.84,6.71Z"/>
      <path d="M367.64,649.93c-.15-.06-2.11-2.41-2.13-2.57-.49-4.83,3.53-6.11,5.88-1.68-.04,1.68-1.73,5.1-3.76,4.26Z"/>
      <path d="M599.54,673.01c-3.57,2.72-4.6,1.93-8.99,1.01,2.09-4.29,6.14-5.56,8.99-1.01Z"/>
      <path d="M792.55,644.03c-1.66-10.78,10.13-4.13,3.74-.75-1.19.63-2.4.91-3.74.75Z"/>
      <path d="M410.54,639.04c.39,5.66-4.57,5.43-7.97,2.49,1.96-2.4,5.11-2.75,7.97-2.49Z"/>
      <path d="M99.56,556.03c-.97-1.4-1.49-9.98.49-9.98l2.36,8.38-2.85,1.59Z"/>
      <path d="M362.54,680.05c-.38,2.04-8.65,2.3-8.99,1.98-.32-6.71,5.28-3.2,8.99-1.98Z"/>
      <polygon points="676.54 45.04 668.55 50.03 669.6 44.06 676.54 45.04"/>
      <path d="M112.28,533.3c1.25,1.35,1.3,3.96,1.26,5.73-4.33-.23-5.67-2.92-4.99-6.99.44-.48,3.23.72,3.73,1.26Z"/>
      <path d="M760.54,80.04c-.13,1.57,5.27,7.21,1.5,7.99-3.08.64-5.45-6.82-1.5-7.99Z"/>
      <path d="M424.74,420.83c1.01.61,13.63-.8,15.81-1.8.31.3-.85,4.1,1.49,2.99,4.12-1.95-3.86-2.72,1-3.98,1.4,1.47,1.58,4.79,4.03,5,.63.06-.08-3.12,2.47-2.02l1.02,3.99-3.01.5,3.01,3.5,1.48-3.02,3.5.04-2.99,2.99c3.49-.46,5.69-2.11,7.99,1.52.46,1.22-4.62,2.83-.47,4.46,1.47.58,5.86-3.82,8.09-4.88,6.25-2.96,10.62-3.25,17.39-2.09l-2.01,1.49,2.06,1.15.02,17.8-3.06,1.54c1.39.21,2.83-1.14,3.03,1.45.38,4.82-.56,9.67.95,14.57l-2,.48c3.22.94,3.62,10.5,2.85,12.88-.13.41-4.87,4.72-5.43,6.46-5.41-1.68-10.97-.44-16.41.16.44-1.81,1.43-3.35-.99-3.99l-.6,2c-5.38-2.35-8.04,2.65-12.43,4.49l.6,2.52,4.41-.02-.51-2.98c2.67.89,5.43,3.59,8.08,3.97,4.93.71,8.3-1.87,14.66.3,6.91,2.35,5.86,9.03,5.81,15.27-.06,6.91-.82,19.13-2.27,25.72-.59,2.67-4.04,8.58-6.73,9.34-2.88.82-5.2-2.99-8.58-3.55-5.93-.98-9.86,3.02-15.88.08-1.89.49-2.79,5.19-1.57,6.86-2.84.05-3.94-3.39-6.74-3.86s-4.07,2.21-4.75-1.15l-2.51.03,1.99,2.97c-2.49-.76-1.57,2.79-2.56,3.09-4.55,1.37-8.69-3.11-13.32-2.18l-1.1-5.88,2.99,1.99.04-2.46c-3.59-.96-1.05-7.33-1-10.98.18-11.72-.65-23.3-.99-34.93,1.94-3.27,5.48-.7,8.22-.84,3.78-.2,7.19-.84,11.29-.83,2.84.01,6.1,2.13,8.5-.58l-.16-3.3-2.89-.09c-1.27-1.19,6.36-8.76-3.54-6.03l-1.01,4.97-16.83-1.88c-.34-.09-2.15-4.14-2.34-4.84-2.73-9.88-1.2-26.33-1.31-36.71-.02-1.91-1.11-12.69-.55-13.53,8.37-2.97,17.63,2.03,25.55-3.48.51-2.33-2.07-1.58-3.52-1.52-6.99.29-14.89,4.47-21.47.45l1.01-6.42c1.5-.03,1.55,2.42,2.18,2.8ZM446.54,513.03c-.51-5.7,2.32-11.4.53-17.02l-3.52-.97c.38,3.71.58,7.68,1.13,11.36.24,1.58.43,6.02,1.85,6.63ZM463.54,538.04l.62-6.34-2.61-26.66c.66,2.86-1.68,5.21-1.95,7.55-.78,6.75-.75,14.75.9,21.02.35,1.31-.08,3.03.05,4.43h2.99Z"/>
      <path d="M494.54,484.03l2.03,5.49-2.01,1.5,1.9.43c-1.81,2.56.48,7.16-2.89,8.58.05-4-2.6-8.38-2.04-12.33.13-.92,3.36-.17,1.02-3.15l2-.52Z"/>
      <path d="M488.54,501.03l1,16c-4-2.49-2.2-7.37-2.2-10.5,0-2.06-2.62-6.22,1.2-5.51Z"/>
      <path d="M491.54,555.03c.39.5,1.03,11.17.88,12.6-.18,1.7.69,1.54-1.86,1.4.61-4-1.44-8.65-1.03-12.48.15-1.38.77-3.11,2.02-1.53Z"/>
      <path d="M330.39,489.15c.51.39.43,2.4,1.72,2.74.68.18,2.3-.72,3.66-.58,2.29.24,12.52.78,12.9,1.31l1.9,35.41c1.75.23.94-2.26.99-3.48.23-5.64-.7-11.31-.61-16.85.05-3.4,1.85-9.56,1.67-12.19-.2-2.98-3.84-1.35-3.04-4.47,3.75,1.1,17.5-3.02,19.56-.07.69,5.78.59,11.79.48,17.61-.12,6.33-.24,17.24-1,23-.45,3.41-3.6,6.33-3.16,10.34l-8.88,2.11.99-3.99c-4.17,1.98-6.18-3.03-6.58-3.07-1.85-.2-4.69,2.58-6.17,2.85-2.2.4-5.37-1.66-8.25.22l2.9,4.62-1.56,2.21c-11.47,1.02-22.83.33-34.33.13l.02-2.92c8.14-.73,1.49-5.98.95-10.52-.63-5.33,1.01-11.57,1.07-16.98.05-5.09-1.66-17.01-.59-20.59,1.69-5.64,7.53-7.63,13.07-7.04,2.08.22,3.28,1.75,4.76,1.82,1.66.07,6.88-2.14,7.55-1.62ZM327.54,541.04l-4.91.14-.22,2.69-2.86,1.16,6.86.88,1.13-4.86Z"/>
      <path d="M303.55,526.53c-.39,1.37-2.67,1.77-3.99,1.49.74-12.02,2.69-23.96,3-35.99,2.79.75.99,1.92.99,2.5v32Z"/>
      <path d="M704.54,163.03c.62,2.82,1.83,10.21,2.97,12.31.6,1.1,2.54.61,3.5,1.69,1.35,1.51,3.64,10.92,2.53,12l-4.42.06c-2.62-3.48-2.42-7.38-1.58-12.06l-3-.02c2.76-6.93-4.38-7.02-3-13.99h2.99Z"/>
    </g>
  </g>
</svg>