<?xml version="1.0" encoding="UTF-8"?>
<svg id="Layer_1" data-name="Layer 1" xmlns="http://www.w3.org/2000/svg" viewBox="0 0 1472.5 319.55">
  <path d="M1506.93,305.23c1.86,4.43-.65,8.11-.8,11.91-.03.75-.02,1.56.03,2.41h-483c-.04-.36-.06-.72.03-1.08.3-1.18,1.88-1.54,1.46-3.04-.39-.43-4.53,4.58-6.15,2.91,4.91-2.48,4.97-4.77,5.27-9.55l-1.74.84.92-2.87-1.81-.86c2.12-3.12,2.25-8.9,2.63-12.86l-4.38,4.14.86-3.31-5.27.82.89-2.89-1.76.42.86-3.33-2.62,2.48.86-4.14-2.62,1.66-.88-1.65-1.76,4.97-.89-9.95-3.5,3.31.86-4.14-2.62,1.65.87-2.48-3.51.83.86-4.98-1.96.46c-1.92,4.4-5.19,7.59-6.67,12.09l2.61.63-1.3.91,8.48,6.16-1.95.61c.74,1.85,2.04,1.79,3.89,2.2l-.3,1.88,10.42,8.56c1.3,3.27,2.69,6.44,4.08,9.6H-29.83l-1.37-.42,4.99-8.63-2.98,1.48,3-12.36-1.94.55,4.9-14.43-.92.06c-1.44,1.57-1.03-.9-.8-1.65,1.01-3.3,2.28-6.62,3.8-9.75l-3,1.44,4.02-12.35-3.01,1.9c1.18-3.97,4.87-7.68,4.02-12.36l-2.03,1.41c.01-2.82,2.46-5.18,2.86-7.85.27-1.8-.75-3.31-.39-5,.4-1.87,4.43-5.61,3.58-6.62l-3,1.9,4.01-8.56-3,1.9c-.85-1.02,3.45-5.31,4.24-6.92,1.51-3.05.94-7.19,4.81-9.73l-2.03-.92c5.48-4.84,5.44-10.86,9.09-16.19l-2.01-.94c5.33-3.1,4.13-8.67,8.06-12.37l-2.01-.94c3.32-1.76,2.5-4.49,3.61-7.06.64-1.49,3.58-3.49,1.94-4.83l-2.51,1.91c1.06-3.66,3.06-5.53.99-9.51l-1.99.96,2-6.67-2.03.47c.47-2.34,2.34-4.43,3.02-6.66.86-2.87-2.84.99-1.98-1.87.51-1.65,3.94-7.89,3-9.05l-4.04,2.37,4.04-7.11c-24.61,6.11-50.28-3.17-46.28-30.83,1.46-10.13,11.62-16.81,22.13-15.35,9.74,1.35,15.32,8.88,23.15-1.85l-4.03-2.36,8.05-.02-2.01-2.37,4.04-.48-5.04-1.89,8.05-.97-2-1.88,5.05-.02-2.03-2.83,5.07-.47-1.03-2.38,4.03-.02-2.01-2.84,9.07-.96-7.04-1.89,9.08-.97-1.03-1.88,3.98-.12.16-2.61c4.79-.73,9.46-3.76,13.82-6.52,13.43-8.51,33.35-18.4,49.4-22.81,7.5-2.07,19.52-6.39,22.14,3.28,1.61,5.94,4.87,11.89,5.85,16.35,1.48,6.75.36,15.1-2.71,21.33-1.1,2.24-5.89,7.25-5.89,7.73s2.76,1.71,2.99,3.81c.39,3.59-2.62,6.9-4.13,9.9l-2.92-.89-2.18,5.58-1.86-.81-.02,4.71-3.02.05,1.01,3.8-2-.47c1.27,3.1-1.73,3.33-1.82,3.53-.47.86.88,1.92.65,2.51-.12.28-3.98,1.07-1.86,4.88l-3-.95.02,4.17,1.99,1.06-2.03.95,2.01,2.37-3.02-.94c-.94,3.11,3.99,1.67,5.04,4.74l-4.02-.94,2,4.75-4.04.96,3.03,3.32-3.03.49,1.86,1.05-.8,1.72,3.99,1.96-5.04.95,7.05.97-3.02,2.37,1.88.63-.75,2.26,1.89.45-1.99,1.88,6.39.88c-.9-23.88,27.75-37.73,50.37-32.23l-5.05-2.36,7.05-2.37-6.02-.95c2.45-.21,5.87-.44,8.06-1.43,3.09-1.4-1.87-1.3-1.02-2.38l11.09-.97-2-1.88,6.04-.48-4.03-1.42,6.02-.02-1.99-1.88,7.04-.02-3.01-1.88,7.05-.02-2.01-2.83,4.04-.02-1.03-1.89,6.06-.02c1.04-3.22-3.74-1.48-4.03-3.78l10.09.93-6.04-2.83,12.1-.02-1.03-1.88,5.07-.49-4.04-2.36,8.06.93-2.01-1.89c3.73-.44,7.4,1.91,10.09-1.43l-2.01-1.42c4.68,1.85,7.15-.68,10.77-1.6,8.05-2.08,37.94-6.15,50.22-6.94,6.22-.41,13.58-.45,13.7,7.09.12,6.45.21,5.7,1.44,11.86,1.8,9.03,1.23,15.01-4.13,22.79-1.01,1.47-4.01,3.2-4.24,4.45-.21,1.14.95,2.85.75,4.54-.31,2.49-1.17,4.53-2.56,6.06-.07.96-.19,1.93-.33,2.91-.93,6.48-5.2,11.92-12.71,11.35.8,2.23-1.08,9.74-.33,10.87.29.43,1.39.53,1.74,1.07,1.21,1.86,2.08,4.06,2.84,6.35.75-.07,1.92-.1,2.44.75v-2.46c.93.85,4.53,2.15,5.04,2.64.6.58.88,3.23,2.8,3.5l.39-1.23,1.48.49.38-1.05.5.17c.34-.48.77-.94,1.29-1.38.07-.4.18-.79.32-1.18,1.64-4.61,6.64-17.43,9.35-20.72,9.93-11.99,22.92-3.81,30.64,5.54,7.69,9.31,4.89,24.91,1,35.36-2.17,5.82-9.16,11.23-13.7,4.32-2.14,2.5-1.29,2.74-4.9,1.85,1.5,1.56,1.09,5.37,1.76,6.61.54.99,1.44.73,1.48.8.19.31-.98,1.24-1,2.09-.19,6.34.07,11.5-.53,16.72l1.07-.17.68,8.95,2.86-.78c1.1-2.72,2.27-5.08,3.47-5.64l4.29.92-.38,2.49c2.99-2.55,3.22-.39,5.79.04l-2.52,9.19,3.68-1.77,1.53.87-7.06,15.34c2.4,10.84,7.01,18.96,3.28,30.29-1.75,5.29-5.63,8.69-7.31,13.72l2.61.63-1.29.91,3.89,2.83c.8-1.33,1.58-2.63,2.35-3.9,2.73-4.46,7.23-8.6,9.36-12.9,2.1-4.23,4.52-8.2,7.27-12.32,1.04-1.55,3.62-3.94,4.77-5.73l-1.37-.62,2.09-3.83-1.44-.73c.13-1.58.98-3.02,1.21-4.57.59-3.81.86-7.89,1.73-11.8.31-1.37,1.58-2.87,1.81-4.05.4-2.01-3.02.73-1.99-1.23.4-.77,1.96-1.43,2.36-2.27.56-1.17-.71-4.74,1.7-6.05l-2.04-.64c1.34-.96,3.98-2.61,4.41-4.17.21-.7-.74-1.06-.71-1.58.03-.5.78-.93.73-1.64-.2-2.38-2.93-4.99,1.68-5.09l-.53-.94,1.88-.33-1.35-1.26h2.7s-2.7-1.92-2.7-1.92c2.22.22,2.83,1.21,4.38-.68,1.72-2.09-.32-2.22-.21-3.38.13-1.35,2.08-1.67-.11-3.61l2.61-.09c1.26-2.2.2-4.73-.58-6.94h2.05c-1.15-1.67.16-3.83-.16-5.3-.32-1.53-1.97-2.11-1.88-3.65l3.37.32c-3.88-2.22-5.9-4.89-6.1-9.27-1.91-.44-2.98,1.53-4.55,1.83-3.2.61-9.51-4.37-11.69-6.64-5.28-5.55-9.22-16.48-10.67-23.82-1.4-7.08-1.7-13.89,4.61-18.93,4.94-3.96,17.75-9.86,23.33-4.86,1.71,1.52,7.56,9.67,9.01,11.95,2.03,3.22,7.21,15.43,10.65,16.21l3.39-1.24.32-3.27,1.98.04.78,2.48c.65-.54,2.46-.06,2.7-.24.89-.72.04-2.39,1.3-2.27-.12,1.72.71,2.71,2.49,3.06.77-.85,3.31-.54,3.45-.63,1.08-.73.92-1.95,3.9-2.43l1,1.91,1.36-1.91,1.03,2.54c1.12-1.67,4.95-.06,6.76.66l1.71-2.56c.83,3.47,3.03,1.47,4.11,1.55,1.28.11,1.48,2.17,3,2.06,2.61-3.21,5.47,1.35,6.79-1.7l1.11,1.82,1.25-.55v3.21s3.66.05,3.66.05c3.57-5.1,7.97-11.4,12.27-16.04,5.14-5.57,10.45-9.13,18.67-8.01,12.71,1.72,13.82,14.42,12.83,24.3-.41,4.23-5.64,17.34-7.86,21.36-2.65,4.79-8.8,11.33-15.12,8.01-1.48-.78-2.47-3.72-3.75-3.46-3.9,2.55-1.96,7.23-5.1,9.9l2.03-.32v7.66s2.04.02,2.04.02c-1.77,2.06-2.15,7.38,2.04,6.39l-2.71,2.23,1.36.63c-.47.38-1.01.79-1.15,1.39-.31,1.4-.71,6.11-.92,6.84-.17.56-1.47.15-1.36,1.31.18,1.85,3.49,4.73,4.39,6.83.73,1.72.31,5.19,2.42,6.65l-1.31,1.23,4.37,5.48c1.23-2.38.68-3.87-1.02-5.75l2-.03c.51-.47-2.38-12.68,2.74-11.48v7.02c1.43.2,1.11.09,1.53-.79,1.65-3.55,2.84-11.96,8.65-9.1l-3.39,9.26,6.44-7.02c4.8,3.7-2.03,7.63-1.69,12.13l5.41-3.19c1.2,4.32-2.95,7.52-5.22,11.06.31.13.83.35,1.25.28,1.53-.22,2.97-1.69,5.01-.35v-1.87l.99.5.32-1.09,2.28,3.05.99-2.44,1.95,1.23v-3.08c1.1-.26.4.84.77,1.13.19.14,2.36-.54,3.14.72v-2.47c.92.85,4.53,2.16,5.04,2.64.6.59.87,3.24,2.79,3.51l.39-1.24,1.48.5.38-1.05,1.66.57c-.04-1.01.11-2,.45-2.96,1.64-4.61,6.64-17.44,9.36-20.72,8.06-9.74,18.14-6.17,25.79.53.27,0,.54.01.84.04l-1.37-3.82,3.39-.02-.68-8.3h2.04c.49-.5-1.21-5.44-1.13-6.08.06-.63,1.39-1.15,1.68-2.04.67-2.04-.4-11.86-1.59-13.59-.82-1.19-2.33-2.01-3.69-2.58-2.85,11.46-14.34,5.13-19.55-1.06-3.12-3.72-9.15-15.74-9.6-20.36-.8-8.43,4.77-17.8,7.14-25.85,7.57-5.97,12.06,1.48,17.51,4.85,4.56,2.83,8.96,4.23,13.63,7.93,3.71,2.94,7.3,7.94,10.56,10.49.99.76,2.07,1.11,3.35,1v-1.93s4.03,1.27,4.03,1.27c-.2-2.98,1.61-1.88,1.93-2.11.38-.27.37-1.16,1.13-1.52.81-.38,2.78,1.38,2.41-.82l.68,1.91,1.68-1.29,1.36,1.29,2.73-3.19.34,2.55c.87-.91,3.2-.74,3.74-1.22.89-.78.68-2.16,1.66-1.98v1.27h1.36l.34-1.27.34.83,1.35.44,1.36-1.9.4,1.29,1.56-.54.08,1.15h1.35v-1.27s1.7,1.25,1.7,1.25l1.71-3.16c1.23-.04.7,1.68,1.54,2.39.53.44,2.33.41,2.86,1.44l.65-1.19,3.06,1.19.68-1.27.3,1.19,2.47-.3.64,2.29.68-1.92,3.37,1.93c3.89-7.6,9.66-23.24,18.61-26.25,6.09-2.04,10.1-1.69,15.5,1.44,16.79,9.68,15.75,29.72,7.36,44.41-2.64,4.62-6.25,9.46-12.62,8.49l-6.47-3.8c.24,3.92-1.52,7.15-5.43,8.62l4.06.97c-1.71,2.66-2.27,3.7-.68,6.59.27.46,1.34.38,1.3.71-.07.82-1.11,2.05-.99,3.24.1.87,1.6,2.1,1.47,3.21-.14,1.11-2.46,1.29.2,1.85l-.63,2.29,2.7-.63-2.7,3.82,2.04.34-.68,2.85,3.37,1.29-1.35,1.27h4.74s-3.04.64-3.04.64l-.07.27c1.22.55,2.43,1.52,3.34,2.15l.46.15c.05.05.05.11.02.18.08.04.15.08.22.12,4.61,2.47,9.49,4.24,13.61,7.49,2,1.57,7.27,8.05,8.57,8.43.63.18,1.93-.47,2.83.2l.03-2.44,3.8-.72.1-3,2.59,4.31c.22-2.57,2.66-1.49,4.55-1.24l.69-2.46,1.58.65.39-1.25,1.29,2.45c1.28.19.35-1.48.66-1.86.04-.06.89.47,1.52.38,1.52-.22,2.97-1.7,4.99-.36v-1.86s.99.5.99.5l.33-1.1,2.28,3.06.99-2.45,1.94,1.23v-3.08c1.1-.25.41.84.77,1.13.19.14,2.36-.54,3.14.72l.02-2.46c.91.85,4.51,2.15,5.02,2.64.62.58.88,3.24,2.8,3.51l.39-1.24,1.48.49.38-1.04,1.66.56c-.04-1.01.1-2,.45-2.96,1.64-4.61,6.64-17.43,9.35-20.72,2.81-3.38,5.85-5.16,8.95-5.75l-.3-.89,1.42-.68c-.78-2.61-2.74-4.03-3.64-6.82-.65-2-.65-4.24-1.15-6.27-3.28,1.07-3.84,3.65-7.95,2.07-8.9-3.42-11.68-18.67-12.58-26.48-2.3-20.06,10.78-41.17,33.07-26.08,6.74,8.74,10.68,19.44,15.34,29.3l3.3.73v-2.55s2.04,1.27,2.04,1.27l.68-1.91,1.02,1.9c.48-1.03,1.82-.64,2.23-.87.15-.08.78-2.98,1.61.1l1.24-.5,1.02,3.19,2.36-2.54.02,2.56,1.23-.49.46,1.13c1.8.55,1.22-3.22,2.04-3.21l.34,2.57c3.7.22,7.36,1.17,11.07,1.67,1.64.22,3.51-1.05,3.16.87h1.36l.33-1.28,1.02,1.28,1.36-2.54.38,1.31,3.69-.68v2.56l1.36-1.28.68,1.28,2.03-1.28,1.37,3.83c1.07.22.62-1.14,1.3-1.57.43-.29,1.43.28,2.06-.02,1.86-.88,9.1-14.03,10.84-16.64,3.93-5.86,9.37-10.95,17.35-8.65,4.73,1.36,5.14,4.36,8.08,7.08,2.88,2.67,8.94,6.67,10.65,9.77,2.11,3.84,1.35,15.38.49,19.89-.82,4.33-3.75,7.27-5.37,11.24l-2.03-.64c-.21.17.83,1.12.39,1.91-.27.48-7.32,6.16-8.06,6.52-4.85,2.38-9.58.69-9.97-4.6-4.89.78-2.7,5.06-3.52,7.86-.52,1.74-4.27,4.05-4.45,4.68-.24.85.05,3.89-.82,5.36l2.03-.95-1.36,9.9h2.04l-.69,1.91,4.07,1.29-2.04,2.54,4.73,1.99-.67,1.85,4.75,1.93-2.03,1.9,2.7,1.92-2.71.33,5.43,7.68-1.4.63c1.75,7.31,4.84,14.48,8.82,21.12,2.44,4.08,8.08,9.76,9.25,14.16.84,3.16-1.08,8.59-1.64,11.53-.67,3.44,2.03,3.31,2.88,4.62.28.41-.23,1.58.45,2.78.21.38.53.74.88,1.08.29-1.11.59-2.29,1.2-3.26,1.04-1.67,3.45-3.76,4.84-5.29l-1.3-.61c5.34-2.69,6.47-8.45,10.45-12.32-3.12-.69.73-3.04.63-4.92-.05-.89-1.16-1.43-1.16-2.34.01-.96,1.18-2.63,1.23-4.43.12-4.24-2.78-10.23-.05-14.16l-1.3-.3,1.11-1.53-1.06-1.23,3.2-2.47-1.29-1.22,1.95-1.85-1.3-.61,2.61-1.55-1.3-1.22,2.59-.02c-1.21-2.53,5.77-4.9.68-4.91-.21-.98,1.21-.62,1.65-1.18.41-.52-1.48-3.08,1.6-3.14l-1.95-1.82,6.52-.63-1.3-1.84,1.3-1.23,3.91,1.22-.65-2.45,1.96.3-1.3-2.76h3.26s-.69-2.12-.69-2.12l1.4-.71-.72-2.09h1.97s-1.97-3.4-1.97-3.4c.97-.59,1.64.08,1.31-1.52-4.18.11-6.66-3.1-7.19-6.78-5.94,5.87-15.84-5.28-18.19-10.22-.74-1.55-3.52-8.52-3.84-9.91-1.86-8.35,5.98-9.11,7.4-14.9.9-3.66-.66-14.27.88-16.26,2.23-2.91,5.94,1.04,7.68,1.95,4.6,2.46,9.48,4.24,13.6,7.49,2,1.57,7.27,8.05,8.57,8.43.63.18,1.94-.47,2.83.2l.04-2.44,3.8-.72.08-3,2.6,4.31c.21-2.57,2.66-1.49,4.54-1.25l.7-2.45,1.58.65.38-1.25,1.29,2.44c1.29.2.36-1.47.66-1.85.04-.06.89.47,1.52.38,1.53-.22,2.97-1.7,5.01-.36v-1.86l.99.5.32-1.1,2.28,3.06.99-2.45,1.94,1.23.02-3.08c1.08-.26.39.84.76,1.13.18.14,2.35-.54,3.14.72v-2.46c.92.85,4.53,2.15,5.04,2.64.6.58.87,3.23,2.79,3.5l.39-1.23,1.48.49.38-1.05,1.66.57c-.04-1.01.11-2,.45-2.96,1.64-4.61,6.64-17.43,9.36-20.72,9.93-11.99,22.91-3.81,30.64,5.54,1.58,1.92,2.71,4.1,3.49,6.45.58-1.16,1.18-2.34,1.25-3.56.24-3.57-2.59-6.18.89-9.87,2.93-3.12,13.45-2.6,17.93-2.86l1-1.69.92,2.55c5.91-.02,11.77,1.13,17.61,1.62,1.2.1,2.44-.53,3.47-.45,1.82.15,4.02,2.39,7.48.44l-.9,1.64c4.9-.93,8.46,1.5,12.61,2.64,2.48.68,6.07,2.34,6.44,2.38,1.59.2,4.39-1.51,6.47-.85l-2.64,1.64,3.34.41.1,1.7c5.22-.18,5.12,4.26,10.64,2.88l-2.63,3.3,8.79.85-4.39,1.64,10.54.02-5.27.83c1.54,3.49,5.49,2.39,8.79,2.49l-5.27,1.64,10.54,1.67-1.75,1.65c3.37-.48,4.08,2.29,7.91,1.67l-4.32,1.35c2.74-.57,3.72,1.97,3.99,2.01,1.42.18,3.13-1.23,4.73-.87l-2.63,2.47c9.19-.87,15.93-7.39,25.93-7.51,1.3-.02,2.59.08,3.85.29.42.07.84.15,1.25.25l.21-.35c-.81-.18-1.25-.53-1.46-.98-.6-1.27.59-3.4.58-5.12l-2.58,1.63.85-4.89-1.72.83-.88-5.72-2.58.82.85-4.08-1.71.84c.61-3.47-3.9-1.72-3.48-6.54l-1.71.82-.02-3.26-2.07.82c-2.63-2.4-6.79-4.38-6.51-8.6.07-1.21,1.71-1.95,1.3-2.82-.33-.73-3.33-2.89-4.32-4.14-4.67-5.93-5.75-9.88-4.81-17.46.42-3.58,2.91-6.06,3.32-8.35.5-2.89-2.18-6.88.06-10.25,3.21-4.82,19.11-.42,24.08.85,9.2,2.35,16.66,5.55,26.11,7.98,2.51.65,5.19,1.04,7.79,1.23l-.88,1.61,5.2-.8-.43,1.62c2.59-1.02,3.02,1.4,3.68,1.58,2.53.67,6.16.79,8.84.88l-2.58,1.61,6.89.02-6.89,2.42,5.19.02-.89,1.61c3.11.45,2.9,2.05,6.94.84l-.89,1.61h2.63s-.89,1.63-.89,1.63l8.65-.8-4.18,1.74-.16,2.32h9.51s-5.18,1.63-5.18,1.63h7.76s-3.45,2.44-3.45,2.44l4.33-.8-.88,1.62h6.07s-.08,2.04-.08,2.04c2.36,2.08,7.68.72,12.83-.87-.2-.05-.33-.09-.36-.12-.57-.53-3.37-4.64-3.54-5.39-.42-1.86.62-4.72.29-5.24-.33-.53-2.15-1.09-2.97-2.15-8.65-11.2-3.09-16.67.54-27.47,1.3-3.85-.82-6.99,4.31-10.03,4.42-2.63,4.28-.46,6.94-.18,16.21,1.69,30.92,7.43,46.66,9.94,1.83.29,3.81-.03,5.64.07l-1.74,1.65c2.88.6,5.32.72,7.94.48-.6-.29-1.15-.62-1.55-.99-3.51-3.15-1.41-2.75-6.63-4.47-4.81-1.59-3.33-5.51-3.45-9.42l3.44.81v-1.61c-12.35-7.7-15.18-20.36-8.5-32.89.64-1.18,2.23-1.95,2.78-2.97.8-1.47.05-4.48,1.01-6.51,1.28-2.71,5.54-4.32,8.59-4.14,7.02.42,18.65,4.55,26.06,5.73,3.39.24,4.06-2.45,5.97,1.65l3.87-1.63-1.73,3.25,6.04-.8-1.73,1.61c3.63-1.18,4,1.23,5.49,1.77,3.12,1.13,5.25.36,8.32-.12l-3.45,2.43c3.72-.17,4.84,2.84,9.51,1.64l-.07,2.02c2.83,1.19,5.77,1.92,8.71.42l-2.59,3.25,4.33.02-.88,1.61,5.2.02-1.33,1.62.9,1.63,4.75-.81-.88,1.62h4.33s-1.73,3.26-1.73,3.26l8.64-.8-4.32,3.24,10.37-3.24-4.33,4.87,8.64-1.61-3.46,3.24,4.32-.8-2.59,2.43c3.11-1.33,4.5,2.51,4.8,2.51.8,0,11.1-4.51,14.36-5.21,10.32-2.21,25.16-3.37,31.14,7.03,2.24,3.89.95,9.13,1.7,10.23.21.31,2.36.66,3.28,1.37,10.06,7.88,9.19,19.23,1.97,28.68-9.74,12.72-25.39,11.31-36.49,1.04l4.31,8.15-2.58-1.63c-.95,1.15,5.59,6.53,3.44,8.97l-1.71-.82.91,2.81-1.71.8.81,2.91,1.7-.82,2.6,6.11-5.16-1.63,6.89,8.16c.88,2.58-3.86-.84-2.58,1.61.78,1.5,4.08,2.51,5.16,4.09h-3.45l6.04,4.08-5.18-.82c5.57,2.96,9.65,8.57,15.55,10.19-.99,2.46-4.41-1.29-6.04-.81l4.32,2.44-1.72,1.62,9.5,4.49c-1.41,1.41-5.13-3.1-6.04-.42l7.35,4.08-2.61.83,15.99,10.99-9.09-4.47c-2.44-.24-.7,1,0,1.63,4.44,4.03,12.2,6.8,16.87,10.99-3.24.47-6.28-3.25-9.09-4.47l-.41,1.6,8.63,6.53-1.72.42c1.73,2.95,9.22,6.55,10.36,8.97.17.36.22,1.33-.41,1.2-2.64-.8-5.92-5.2-9.09-4.47l12.96,10.59c-1.86,1.25-3.47-2.11-4.75-2.85-1.41,1.89,2.95,3.72,3.98,5.3,2.88,4.47,5.73,9.27,8.19,14.2.82,1.64,3.72,3.57,2.53,4.94l-4.33-4.87c-.65-.13-.58.83-.42,1.2.99,2.26,5.41,6.69,6.9,8.99,1.4,2.16-2.71-.56-1.72,1.6,1.3,2.81,4.75,6.2,6.03,9,1.03,2.26-2.63-.69-1.7,1.6,1.18,2.95,4.9,6.48,6.02,8.99.16.37.22,1.33-.42,1.2-.6.4-3.74-6.14-3.88-2.86l6.03,8.98c-1.79,2.1-4.06-5.22-4.31-1.64.94,1.69,2.62,4.36,3.04,6.12.66,2.81.8,8.85,1.46,11.63.4,1.66,1.72,3.46,2.38,5.1l-2.5-.1,4.22,11.53c-.69,3.82-1.26-3.28-2.58-1.66-.07,2.81,2.01,5.78,2.59,8.16.48,2.03-.98.74-1.7.38Z"/>
</svg>