<?xml version="1.0" encoding="UTF-8"?>
<svg id="Layer_2" data-name="Layer 2" xmlns="http://www.w3.org/2000/svg" viewBox="0 0 103.89 62.85">
  <defs>
    <style>
      .cls-1 {
        fill: #84ee44;
      }

      .cls-2 {
        fill: #67d133;
      }

      .cls-3 {
        fill: #0a0a0a;
      }

      .cls-4 {
        fill: #abff83;
      }
    </style>
  </defs>
  <g id="Layer_1-2" data-name="Layer 1">
    <g>
      <g>
        <path class="cls-1" d="M103.48,36.49c-4.95,21.86-81.43,39.74-63.53,12.72.61-.92,1.32-1.88,2.15-2.91,1.87-2.29,3.14-4.3,3.89-6.04C54.93,19.63-6.79,33.69.62,15.09c.51-1.27,1.33-2.69,2.53-4.28C15.22-5.29,61.78-2.12,87.15,11.86c.05.02.1.05.15.08,11.34,6.27,18.4,14.71,16.18,24.55Z"/>
        <path class="cls-2" d="M.62,15.09h.01s-.86,7.7,24.06,4.14c24.91-3.56,46.6-3.11,31.92,10.38-4.61,4.24-8.08,7.73-10.62,10.65C54.93,19.63-6.79,33.69.62,15.09Z"/>
        <path class="cls-2" d="M103.48,36.49c-4.95,21.86-81.43,39.74-63.53,12.72-1.69,4.49.56,6.53,1.8,9.44,5.65,13.21,59.95-9.22,59.74-24.9-.15-12.22-9.9-19.28-14.2-21.8,11.34,6.27,18.4,14.71,16.18,24.55Z"/>
        <path class="cls-4" d="M45.1,47.27c-7.33,14.38,13.81,2.56,20.06-3.43,8.23-7.89,10.05-21.26-3.27-12.54-3.31,2.17-14.77,12.01-16.79,15.97Z"/>
        <path class="cls-4" d="M13.89,4.98c-9.39,5.63-1.92,9.25,11.91,5.13,13.83-4.13,3.26-14.22-11.91-5.13Z"/>
        <path class="cls-4" d="M66.41,18.88c-.33,1.11-.93,5.56-.48,6.21,1.34,1.95,8.72,4.08,6.34-4.83-1.04-3.87-4.86-4.7-5.85-1.38Z"/>
      </g>
      <path class="cls-3" d="M80.28,18.47c.02.17.1.35.04.52-.04.12-.04.22-.04.34,0,.14.05.26.06.39,0,.08-.05.22,0,.29s.2.11.27.18c.07.08.06.18.05.27s-.1.14-.16.22c-.06.08-.05.15-.05.24,0,.49-.08.97-.23,1.45-.02.07-.05.1-.02.16.05.09.14.14.14.25s-.02.2,0,.29c.03.08.04.14.04.22,0,.19,0,.35.05.53.07.24.06.49.06.74,0,.23.02.46.05.69.02.18.04.35.09.53.02.07.07.15.08.22.02.09-.07.15-.13.23-.2.25-.03.53-.1.81-.02.06-.06.16-.05.23.01.08.13.18.19.24.15.15.04.28.19.43.2.2.32.38.33.62.01.22.06.48,0,.7-.02.06-.07.12-.1.18-.1.18-.13.38-.16.57-.07.41-.19.88-.08,1.3.02.09.06.2.04.29-.01.08-.09.15-.14.22-.14.16.35.33.22.49-.26.34-.51.62-.4,1,.08.28-.47.56-.34.83.09.18.19.36.26.55.07.21-.05.46-.04.68,0,.08-.03.12-.05.2-.05.16-.06.32-.05.48,0,.23-.06.46-.05.69s.06.47.06.71c0,.33.05.65.05.98,0,.22-.06.43-.05.65,0,.09,0,.19,0,.28,0,.14-.04.29,0,.43.02.11.18.17.24.28.05.08.03.16.03.25,0,.18,0,.35-.04.53-.02.09-.06.17-.07.26,0,.12,0,.25,0,.37,0,.31-.06.61-.05.92,0,.24.18.46.21.7,0,.05.02.12,0,.18-.02.09-.1.16-.13.25-.05.15-.09.28-.09.43,0,.08-.03.17,0,.24.01.04.04.14.07.17s.1.05.15.05c.12,0,.11-.07.19-.12.07-.04.16-.07.24-.11.08-.04.15-.08.24-.12.12-.05.24-.1.33-.16.13-.09.14-.19.19-.3.03-.07.06-.14.08-.22.05-.13.16-.25.24-.37.13-.22.25-.46.43-.66.09-.1.21-.19.32-.29.2-.18.45-.29.7-.44.34-.2.67-.4.94-.64.11-.1.14-.1.29-.14.44-.1.75-.37,1-.62.18-.17.42-.37.49-.58.04-.12.05-.19.17-.28.21-.18.43-.35.63-.53.14-.12.23-.24.42-.33.16-.07.3-.15.45-.24.22-.13.37-.3.59-.42.24-.12.44-.23.64-.38.14-.11.28-.22.4-.34.11-.1.2-.22.35-.3.37-.22.67-.44.84-.76.18-.34.27-.69.54-1.01.15-.17.39-.32.51-.5.05-.07.07-.08.17-.13.42-.21.29-.57.59-.82.12-.11.27-.2.37-.32.08-.1.19-.17.33-.24.32-.16.6-.29.76-.54.1-.17.21-.33.34-.49.09-.11.54-.21.45-.34-.05-.08-.15-.12-.2-.19-.07-.11-.16-.23-.28-.32-.06-.05-.17-.07-.22-.12-.02-.01,0-.04-.01-.06-.03-.05-.07-.09-.1-.14-.11-.18-.52-.35-.64-.52s-.17-.38-.31-.55c-.2-.23-.38-.49-.65-.69-.2-.15-.51-.24-.71-.39-.15-.11-.26-.23-.38-.36-.15-.17-.33-.33-.44-.52-.08-.14-.12-.22-.26-.34-.17-.14-.29-.31-.47-.45-.08-.06-.15-.11-.21-.17-.18-.19-.47-.33-.71-.49-.29-.18-.53-.38-.75-.6-.18-.18-.4-.31-.63-.47-.08-.05-.13-.12-.2-.17-.11-.07-.22-.14-.33-.22-.14-.1-.37-.16-.42-.3-.04-.09-.05-.18-.13-.27s-.17-.17-.24-.27c-.12-.17-.19-.32-.38-.47-.11-.09-.23-.18-.32-.27-.03-.03-.05-.07-.08-.1-.06-.06-.09-.05-.15-.09s-.08-.08-.12-.12c-.09-.09-.27-.12-.37-.21-.06-.05-.09-.11-.16-.17-.16-.14-.27-.31-.42-.46-.09-.09-.16-.18-.27-.27-.13-.1-.28-.2-.4-.31-.1-.08-.14-.15-.19-.25s-.18-.15-.28-.23-.18-.16-.29-.23c-.1-.07-.21-.14-.3-.22-.1-.1-.17-.2-.28-.29-.07-.06-.12-.12-.17-.19-.08-.11-.21-.17-.3-.26-.11-.12-.36-.16-.43-.3-.09-.18.05-.42-.12-.6-.05-.05-.15-.08-.21-.12-.08-.05-.15-.09-.21-.15-.08-.08-.18-.11-.74-.26Z"/>
    </g>
  </g>
</svg>