<?xml version="1.0" encoding="UTF-8"?>
<svg id="Layer_2" data-name="Layer 2" xmlns="http://www.w3.org/2000/svg" viewBox="0 0 103.89 62.85">
  <defs>
    <style>
      .cls-1 {
        fill: #84ee44;
      }

      .cls-2 {
        fill: #67d133;
      }

      .cls-3 {
        fill: #0a0a0a;
      }

      .cls-4 {
        fill: #abff83;
      }
    </style>
  </defs>
  <g id="Layer_1-2" data-name="Layer 1">
    <g>
      <g>
        <path class="cls-1" d="M103.48,36.49c-4.95,21.86-81.43,39.74-63.53,12.72.61-.92,1.32-1.88,2.15-2.91,1.87-2.29,3.14-4.3,3.89-6.04C54.93,19.63-6.79,33.69.62,15.09c.51-1.27,1.33-2.69,2.53-4.28C15.22-5.29,61.78-2.12,87.15,11.86c.05.02.1.05.15.08,11.34,6.27,18.4,14.71,16.18,24.55Z"/>
        <path class="cls-2" d="M.62,15.09h.01s-.86,7.7,24.06,4.14c24.91-3.56,46.6-3.11,31.92,10.38-4.61,4.24-8.08,7.73-10.62,10.65C54.93,19.63-6.79,33.69.62,15.09Z"/>
        <path class="cls-2" d="M103.48,36.49c-4.95,21.86-81.43,39.74-63.53,12.72-1.69,4.49.56,6.53,1.8,9.44,5.65,13.21,59.95-9.22,59.74-24.9-.15-12.22-9.9-19.28-14.2-21.8,11.34,6.27,18.4,14.71,16.18,24.55Z"/>
        <path class="cls-4" d="M45.1,47.27c-7.33,14.38,13.81,2.56,20.06-3.43,8.23-7.89,10.05-21.26-3.27-12.54-3.31,2.17-14.77,12.01-16.79,15.97Z"/>
        <path class="cls-4" d="M13.89,4.98c-9.39,5.63-1.92,9.25,11.91,5.13,13.83-4.13,3.26-14.22-11.91-5.13Z"/>
        <path class="cls-4" d="M66.41,18.88c-.33,1.11-.93,5.56-.48,6.21,1.34,1.95,8.72,4.08,6.34-4.83-1.04-3.87-4.86-4.7-5.85-1.38Z"/>
      </g>
      <path class="cls-3" d="M63.13,12.54c.03.25.17.52.07.76-.07.17-.07.32-.07.5,0,.2.08.38.09.57,0,.11-.08.32,0,.43s.34.16.44.27c.11.11.11.27.08.4s-.17.21-.27.32c-.1.12-.08.22-.08.35,0,.72-.12,1.41-.38,2.12-.03.1-.09.15-.03.24.08.13.23.21.24.36s-.04.29.01.43c.05.12.07.2.07.32,0,.27,0,.5.08.77.11.35.11.72.1,1.08,0,.33.04.67.08,1,.04.26.07.52.14.77.03.1.11.21.13.31.03.13-.11.22-.21.33-.33.36-.05.78-.17,1.18-.03.09-.09.24-.08.33.02.12.21.26.31.34.25.22.06.41.31.63.32.3.53.55.55.9.02.32.1.7,0,1.02-.03.09-.11.17-.17.26-.17.27-.21.55-.27.83-.12.6-.32,1.28-.13,1.89.04.13.09.29.07.42-.02.11-.14.22-.23.32-.22.24.58.48.37.72-.43.49-.85.91-.66,1.45.14.41-.78.81-.55,1.21.15.26.32.53.42.8.12.31-.08.67-.07.99,0,.12-.05.18-.09.3-.08.23-.09.47-.09.7,0,.34-.09.67-.09,1s.1.69.09,1.03c0,.48.09.95.09,1.43,0,.32-.1.63-.09.95,0,.14,0,.27,0,.41,0,.2-.06.43-.01.63.04.16.3.25.4.4.08.12.06.23.05.36,0,.26.01.51-.07.77-.04.12-.1.25-.11.37-.01.18,0,.36,0,.53,0,.45-.1.89-.09,1.34,0,.35.3.67.35,1.02.01.08.03.18.01.26-.03.12-.16.24-.21.36-.08.21-.15.41-.15.63,0,.11-.04.24,0,.35.02.05.06.2.11.24s.17.08.25.08c.2,0,.19-.1.31-.17.11-.07.27-.1.4-.16.14-.06.25-.12.4-.17.19-.07.4-.14.55-.24.21-.13.23-.28.31-.44.06-.11.09-.21.14-.32.08-.19.27-.36.39-.54.21-.32.42-.66.72-.96.15-.15.34-.28.52-.42.33-.26.74-.43,1.15-.64.56-.29,1.1-.58,1.55-.94.18-.14.24-.15.49-.2.72-.15,1.24-.54,1.65-.9.3-.25.69-.54.81-.85.07-.17.09-.27.28-.41.35-.26.71-.51,1.04-.77.22-.18.38-.35.7-.47.27-.1.49-.22.74-.35.36-.19.6-.44.98-.61.39-.18.73-.33,1.05-.56.23-.16.46-.33.67-.5.18-.15.33-.31.57-.44.61-.31,1.11-.64,1.38-1.11.29-.5.45-1.01.89-1.47.24-.25.65-.46.85-.73.08-.11.11-.12.28-.19.69-.31.48-.83.97-1.2.2-.16.45-.29.61-.47.14-.15.31-.25.54-.35.52-.23.99-.42,1.25-.79.17-.24.35-.48.55-.71.14-.17.88-.31.75-.5-.08-.12-.25-.17-.33-.28-.12-.16-.26-.33-.45-.47-.1-.07-.28-.1-.37-.18-.03-.02,0-.06-.02-.09-.05-.07-.11-.13-.16-.2-.18-.26-.86-.5-1.06-.76s-.28-.55-.52-.8c-.33-.34-.63-.71-1.07-1.01-.33-.23-.84-.34-1.17-.57-.24-.16-.44-.34-.63-.53-.25-.25-.55-.48-.73-.75-.13-.2-.2-.32-.43-.49-.28-.21-.48-.45-.78-.65-.13-.09-.25-.15-.35-.25-.3-.27-.78-.49-1.18-.71-.48-.26-.88-.56-1.24-.88-.3-.27-.67-.45-1.04-.68-.13-.08-.21-.17-.34-.25-.17-.11-.37-.21-.55-.32-.24-.14-.61-.23-.7-.43-.06-.14-.09-.26-.21-.39s-.29-.25-.4-.39c-.2-.25-.32-.47-.63-.68-.19-.12-.37-.26-.53-.4-.05-.05-.08-.1-.13-.15-.1-.08-.15-.07-.25-.13s-.13-.12-.2-.18c-.15-.13-.44-.18-.61-.3-.1-.08-.15-.16-.26-.24-.27-.2-.45-.46-.7-.66-.16-.13-.27-.27-.44-.39-.22-.15-.46-.29-.67-.45-.16-.12-.23-.22-.32-.36s-.3-.22-.47-.33-.3-.23-.49-.34c-.17-.1-.35-.2-.49-.32-.17-.15-.28-.29-.46-.43-.12-.09-.2-.17-.28-.27-.13-.16-.35-.24-.5-.39-.18-.17-.6-.23-.71-.44-.15-.27.08-.61-.21-.87-.08-.07-.25-.12-.35-.18-.13-.07-.25-.13-.35-.22-.13-.11-.3-.16-1.23-.37Z"/>
    </g>
  </g>
</svg>