<svg width="1440" height="229" viewBox="0 0 1440 229" fill="none" xmlns="http://www.w3.org/2000/svg">
<g clip-path="url(#clip0_79_883)">
<path d="M1513 127.144C1513 125.14 1513 123.115 1513 121.049C1512.91 117.434 1512.65 113.839 1512.13 110.306C1476.93 109.583 1426.4 108.529 1368.54 107.248C1367.84 107.248 1367.14 107.207 1366.48 107.207C1169.22 102.827 888.723 95.885 844.178 90.8851C837.846 90.1827 835.051 89.4596 835.357 88.7571C837.977 81.8359 1145.81 76.051 1233.55 72.1461C1312.77 68.6339 1416.62 76.9187 1507.06 89.7695C1507.06 89.6868 1507.06 89.6249 1506.97 89.5422C1501.86 75.2452 1494.09 62.3324 1486.01 51.4651C1486.01 51.4031 1485.92 51.3618 1485.88 51.2998C1417.01 56.4649 1319.54 62.4564 1269.84 58.345C1189.97 51.713 1075.24 48.3453 1143.41 43.3249C1204.51 38.8002 1295.13 29.565 1459.63 21.7761C1456.14 18.4291 1453.78 16.1977 1453.17 15.3507C1450.72 11.8591 1388.19 19.9579 1070.61 26.7965C1070.39 26.7965 1070.18 26.7965 1069.96 26.7965C958.116 29.1931 814.744 31.4245 631.282 32.974C511.274 33.9657 411.748 32.5608 328.599 29.8336C328.118 29.8336 327.594 29.7923 327.114 29.7716C326.284 29.7716 325.716 29.7303 325.498 29.7097C105.003 22.3132 0.236391 5.59896 -67.5847 0.0826279C-69.7682 -0.103316 -72.0391 0.0206467 -74.179 0.413195C-93.0885 3.73952 -110.95 27.0238 -123.658 49.8949C-100.818 47.0437 62.2055 48.0561 132.123 49.8949C201.734 51.7543 281.347 73.9229 318.118 78.7162C318.249 78.7162 318.38 78.7162 318.467 78.7575C325.716 79.6872 341.7 80.8029 362.313 82.0631C369.868 82.5177 378.034 82.9929 386.637 83.4887C387.161 83.4887 387.686 83.53 388.21 83.5714C465.726 88.0133 576.606 93.7363 578.79 99.1493C579.052 99.8104 577.742 100.451 574.641 101.071C534.769 109.294 241.912 97.5584 165.4 94.0255C99.9373 91.0298 -65.4448 94.8726 -140.996 90.1827C-142.087 94.604 -142.131 100.719 -141.52 107.847C-140.952 114.273 -139.816 121.525 -138.244 129.086C-138.244 129.169 -138.244 129.231 -138.244 129.314C-138.244 129.458 -138.244 129.541 -138.244 129.541C-88.7214 118.57 73.3853 116.153 118.716 114.5C149.111 113.384 373.667 109.727 530.97 112.165H531.145C614.556 113.467 679.015 116.463 685.522 122.475C702.51 138.012 8.66489 142.454 -134.969 143.239C-133.965 147.185 -132.873 151.172 -131.737 155.077C-128.855 164.994 -125.623 174.58 -122.392 182.783C-16.1402 164.333 150.552 157.267 262.524 172.721C365.501 186.935 10.1934 209.083 -107.107 209.455H-107.282C-105.797 210.901 -104.268 212.203 -102.609 213.401C-102.609 213.401 -102.609 213.401 -102.609 213.443C-74.4847 234.496 -26.4903 221.934 48.7985 220.86C72.4682 220.529 124.873 219.723 194.572 218.773C332.485 216.914 537.914 214.6 721.288 214.496C753.998 214.496 786.009 214.538 816.797 214.662C832.911 214.744 848.633 214.827 863.961 214.972C942.657 215.612 1019.56 217.224 1090.22 219.124C1282.55 224.331 1428.76 231.81 1439.68 227.884C1450.72 223.938 1461.95 217.595 1472.21 209.104C1474.31 207.348 1476.45 205.509 1478.46 203.546C1478.98 203.03 1479.55 202.513 1480.03 201.997C1339.84 201.48 1046.38 197.844 1040.26 187.493C1034.15 177.101 1110.31 163.279 1245.3 159.395C1245.47 159.395 1245.6 159.395 1245.78 159.395C1256.78 159.085 1268.14 158.817 1279.88 158.651C1362.47 157.412 1446.01 159.065 1506.45 160.883C1507.93 156.73 1509.16 152.433 1510.16 147.97C1437.06 144.458 1447.71 127.909 1512.78 127.185L1513 127.144ZM592.633 185.634C440.396 191.377 295.583 166.006 348.906 156.172C353.709 155.284 360.173 154.519 368.383 153.92C373.143 153.569 378.034 153.218 382.925 152.866C383.275 152.866 383.58 152.804 383.93 152.784C384.454 152.742 384.978 152.701 385.502 152.68C387.729 152.515 389.039 152.433 389.039 152.433C480.792 145.904 588.659 139.747 637.658 143.342C640.934 143.59 644.034 143.9 646.873 144.292C646.873 144.292 647.048 144.292 647.179 144.334C699.278 151.606 680.936 182.287 592.677 185.613L592.633 185.634ZM1057.21 63.4481C1056.68 63.4894 1056.16 63.5308 1055.63 63.5721C1053.67 63.758 1051.57 63.9233 1049.39 64.0679C1047.73 64.2125 1045.98 64.3572 1044.19 64.4605C1042.49 64.5638 1040.65 64.7084 1038.82 64.8117C1032.23 65.2042 1025.02 65.5555 1017.25 65.8447C1011.48 66.0513 1006.02 66.1546 1000.78 66.1959H998.905C996.634 66.1959 994.363 66.1959 992.223 66.1959C992.048 66.1959 991.83 66.1959 991.655 66.1959C917.677 65.2456 909.685 46.7545 1027.2 48.1387C1102.32 49.0478 1112.32 58.3656 1057.25 63.4481H1057.21ZM505.291 64.4605C504.942 64.5638 504.68 64.6671 504.505 64.7704C491.448 69.8735 449.349 73.2618 401.049 71.7949C392.533 71.5263 383.755 71.1131 374.934 70.5346C268.42 63.5101 327.856 38.4077 441.488 48.1181C501.536 53.2625 516.471 59.5846 505.248 64.4398L505.291 64.4605ZM604.556 90.5133C568.309 88.4885 548.526 83.3854 547.74 79.0467C547.74 78.9434 547.74 78.8608 547.74 78.7781C547.74 75.6378 557.784 72.9519 578.833 72.1461C609.665 70.9685 635.955 79.3153 637.571 85.2448C637.571 85.3481 637.571 85.4721 637.571 85.5754C638.008 89.2323 628.618 91.8355 604.556 90.5133ZM1340.28 125.739C1341.24 128.549 1319.41 132.371 1263.46 137.764C1033.84 159.808 953.662 159.808 937.198 143.363C934.708 140.842 933.136 138.383 932.568 136.028C932.568 135.842 932.481 135.698 932.437 135.512C932.437 135.47 932.437 135.429 932.437 135.408C932.437 135.305 932.437 135.181 932.437 135.078C932.35 134.706 932.306 134.313 932.35 133.941C932.35 133.59 932.35 133.239 932.437 132.908C933.922 121.194 961.042 112.496 1014.67 114.521C1059.39 116.215 1127.91 116.897 1190.62 117.888C1251.76 118.88 1307.31 120.14 1329.76 122.929C1329.76 122.929 1329.76 122.929 1329.84 122.929C1330.89 123.053 1331.81 123.198 1332.73 123.322C1332.73 123.322 1332.81 123.322 1332.9 123.322C1337.31 124.024 1339.93 124.81 1340.28 125.657V125.698V125.739ZM1416.49 148.259C1416.49 148.259 1416.31 148.259 1416.22 148.3C1412.03 148.962 1406.84 149.519 1400.37 149.995C1379.32 151.523 1365 151.668 1356 150.966C1349.45 150.449 1345.7 149.519 1344.17 148.321C1337.53 143.28 1370.55 133.838 1397.97 135.532C1425.05 137.185 1443.04 144.148 1416.53 148.259H1416.49Z" fill="#84EE43"/>
<path d="M1233.46 71.9189C1312.68 68.4066 1416.53 76.6914 1506.93 89.5422C1501.78 75.0592 1493.92 62.0432 1485.75 51.0725C1485.84 51.1965 1485.88 51.3411 1485.92 51.4651C1503.26 89.8728 1242.63 56.1343 1143.5 66.01C1043.97 75.927 947.941 69.0264 907.807 66.01C867.674 62.9729 858.896 85.7613 813.085 88.7778C767.187 91.7942 691.33 72.0635 653.729 58.8202C616.085 45.5562 542.936 66.7744 512.061 79.4599C494.024 86.8977 436.16 85.8027 388.079 83.3441C466.599 87.848 579.445 93.6536 578.703 99.1493C578.615 99.7071 577.261 100.286 574.51 100.864C534.639 109.087 241.781 97.3518 165.269 93.8189C99.8064 90.8231 -65.5757 94.666 -141.127 89.9761C-142.218 94.4387 -142.306 100.616 -141.607 107.868C-141.039 114.293 -139.904 121.545 -138.332 129.107C-138.594 127.123 -139.904 112.537 -124.226 104.81C-107.413 96.4841 226.976 104.004 390.786 104.955C554.64 105.905 806.534 100.967 873.176 114.004C939.818 127.041 780.375 128.301 709.716 130.491C702.16 130.718 696.003 131.07 691.024 131.483C691.024 131.483 690.995 131.483 690.937 131.483C685.915 131.917 682.115 132.433 679.408 133.032C659.581 137.33 697.706 145.367 740.242 149.395C794.35 154.56 869.377 167.06 932.307 168.052C995.149 169.043 1248.27 150.325 1323.34 138.239C1390.98 127.351 1346.4 124.562 1332.86 123.136C1337.62 123.88 1340.28 124.748 1340.28 125.698V125.739C1340.19 126.462 1338.62 127.268 1335.3 128.156C1335.3 128.156 1335.3 128.157 1335.13 128.198C1327.18 130.285 1309.8 132.784 1280.32 135.842C1275.12 136.379 1269.45 136.958 1263.42 137.536C1033.8 159.581 953.618 159.581 937.154 143.135C934.752 140.718 933.224 138.321 932.569 136.028C932.569 135.842 932.481 135.698 932.438 135.512C932.438 135.47 932.438 135.429 932.438 135.408C932.438 135.305 932.438 135.181 932.438 135.078C932.35 134.706 932.307 134.313 932.35 133.941C932.35 133.59 932.35 133.239 932.438 132.908C933.573 121.049 960.649 112.248 1014.63 114.293C1057.77 115.926 1123.15 116.628 1183.98 117.578C1214.6 118.054 1244.07 118.591 1269.01 119.335C1269.01 119.335 1269.1 119.335 1269.14 119.335C1296.04 120.161 1317.66 121.215 1329.71 122.702C1302.77 116.091 1325.96 110.946 1366.44 107.207C1367.14 107.124 1367.79 107.083 1368.45 107.021C1171.06 102.662 888.81 95.6783 844.091 90.6579C838.414 90.0174 835.575 89.3769 835.313 88.7571C831.514 81.7532 1144.77 75.865 1233.46 71.9189ZM547.74 79.0467C547.74 79.0467 547.74 78.8608 547.74 78.7781C547.303 76.0303 554.421 73.613 569.75 72.4354C569.837 72.4354 569.881 72.4354 569.968 72.4354C572.632 72.2081 575.602 72.0635 578.79 71.9395C610.015 70.7619 636.567 79.336 637.571 85.2655C637.571 85.3688 637.571 85.4928 637.571 85.5961C637.571 89.129 628.094 91.6082 604.512 90.3066C583.812 89.1496 568.396 86.9803 558.92 84.5217C552.063 82.7656 548.264 80.8442 547.74 79.0467Z" fill="#77DF42"/>
<path d="M1478.59 203.546C1466.75 214.848 1453.13 223.112 1439.81 227.884C1429.59 231.541 1301.72 225.302 1128.56 220.219C1047.82 217.843 957.243 215.715 864.093 214.972C637.484 213.153 323.14 216.976 154.046 219.331C104.697 220.033 67.6645 220.591 48.8859 220.86C-30.77 221.975 -79.8999 235.983 -107.238 209.435H-107.063C-104.967 209.435 -103.832 209.848 -102.565 210.53C-102.565 210.53 -102.565 210.53 -102.565 210.571C-95.3157 214.558 -84.398 226.996 161.601 209.455C450.615 188.836 481.753 193.939 622.723 204.228C763.649 214.538 875.141 178.444 932.307 183.237C989.428 188.01 981.83 217.348 1260.76 218.608C1407.8 219.269 1456.36 211.377 1472.34 206.274C1475.57 205.22 1477.45 204.311 1478.59 203.588V203.546Z" fill="#77DF42"/>
<path d="M1284.69 136.09C1197.48 147.577 1027.95 167.039 936.674 159.085C810.377 148.073 919.991 111.959 997.114 109.851C1048.08 108.447 1188.79 113.674 1273.38 119.583C1198.83 117.331 1083.89 117 1018.99 114.541C950.299 111.959 925.057 126.958 941.521 143.404C957.985 159.85 1038.17 159.85 1267.79 137.805C1273.81 137.226 1279.45 136.669 1284.69 136.111V136.09Z" fill="#67D133"/>
<path d="M368.732 142.288C213.176 146.772 -119.597 155.47 -131.694 155.077C-132.829 151.172 -133.921 147.205 -134.925 143.239C8.70863 142.474 702.554 138.032 685.566 122.475C679.059 116.463 614.6 113.446 531.189 112.165C575.733 111.546 668.665 111.67 700.588 122.806C743.211 137.66 524.376 137.805 368.776 142.268L368.732 142.288Z" fill="#67D133"/>
<path d="M1134.24 220.385C1053.49 218.009 961.785 215.137 868.634 214.393C642.026 212.575 327.682 216.397 158.588 218.752C159.941 218.298 175.707 216.976 199.202 215.323C260.821 210.963 375.676 204.311 423.627 205.282C472.364 206.274 628.269 209.455 725.918 211.046C761.029 211.625 788.585 211.976 800.944 211.955C808.15 211.955 814.919 211.645 821.426 211.211C857.149 208.691 884.4 201.026 927.241 205.282C958.378 208.381 1149.44 219.806 1134.24 220.364V220.385Z" fill="#67D133"/>
<path d="M1480.25 202.018C1480.25 202.018 1196.04 213.257 1077.51 202.018C959.077 190.778 1002.84 164.788 1245.47 159.395C1110.48 163.3 1034.32 177.122 1040.44 187.493C1046.55 197.844 1340.02 201.48 1480.2 201.997L1480.25 202.018Z" fill="#67D133"/>
<path d="M318.074 78.7162C281.347 73.9436 201.734 51.7543 132.079 49.8949C62.1619 48.0561 -100.862 47.0438 -123.702 49.8949C-110.95 27.0238 -93.0885 3.73953 -74.179 0.413208C-137.284 46.114 36.5707 34.8748 145.006 45.9281C199.201 51.4444 235.798 60.6383 265.538 67.4562C295.234 74.2742 318.074 78.7368 318.074 78.7368V78.7162Z" fill="#67D133"/>
<path d="M695.653 168.093C682.334 187.349 596.651 202.265 401.529 183.196C271.433 170.49 309.209 161.048 348.862 156.172C295.583 166.006 440.353 191.357 592.59 185.634C680.849 182.287 699.191 151.627 647.091 144.354C652.026 144.85 708.624 149.375 695.653 168.093Z" fill="#67D133"/>
<path d="M646.829 91.8769C610.32 98.8601 574.772 89.6869 558.963 84.5218C568.44 86.9804 583.812 89.1291 604.556 90.3067C628.138 91.629 637.615 89.1291 637.615 85.5961C637.615 85.4928 637.615 85.3689 637.615 85.2656C636.61 79.3154 610.102 70.762 578.833 71.9396C575.645 72.0636 572.676 72.2288 570.012 72.4355C608.442 67.7249 685.609 84.5011 646.917 91.8769H646.829Z" fill="#67D133"/>
<path d="M505.292 64.4605C516.515 59.5846 501.579 53.2626 441.532 48.1388C327.9 38.449 268.464 63.5308 374.977 70.5553C383.799 71.1338 392.533 71.547 401.093 71.8156C357.596 72.704 314.668 70.0182 304.405 57.1467C282.133 29.0899 477.866 41.5274 504.505 51.0726C529.66 60.0805 510.357 62.6217 505.292 64.4605Z" fill="#67D133"/>
<path d="M1042.84 64.5638C1041.44 64.6671 1040.13 64.7498 1038.78 64.8324C1040.61 64.7291 1042.44 64.5845 1044.15 64.4812C1043.71 64.5225 1043.23 64.5432 1042.79 64.5845L1042.84 64.5638Z" fill="#67D133"/>
<path d="M1038.78 64.8324C1025.33 65.7208 1012.62 66.1547 1000.74 66.2166C1005.98 66.1753 1011.44 66.072 1017.2 65.8654C1025.02 65.5762 1032.18 65.2249 1038.78 64.8324Z" fill="#67D133"/>
<path d="M1057.21 63.4482C1112.32 58.345 1102.32 49.0272 1027.16 48.1388C909.642 46.7546 917.633 65.2456 991.612 66.196C952.264 65.7208 924.228 60.7417 915.887 53.3865C904.27 43.139 967.156 34.5236 1048.91 43.6968C1124.33 52.1469 1111.14 58.7789 1057.16 63.4688L1057.21 63.4482Z" fill="#67D133"/>
<path d="M992.18 66.1959C994.32 66.2166 996.59 66.2166 998.861 66.2166C996.59 66.2166 994.363 66.2166 992.18 66.1959Z" fill="#67D133"/>
<path d="M1400.33 149.995C1406.79 149.519 1411.99 148.962 1416.18 148.321C1414.87 148.652 1386.62 156.131 1355.96 150.966C1364.96 151.668 1379.28 151.503 1400.33 149.995Z" fill="#67D133"/>
<path d="M1416.49 148.259C1443 144.148 1425 137.185 1397.93 135.532C1370.5 133.838 1337.49 143.28 1344.12 148.321C1308.58 138.28 1409.41 125.099 1429.54 135.346C1449.15 145.367 1420.68 147.722 1416.53 148.28L1416.49 148.259Z" fill="#67D133"/>
<path d="M1485.97 51.4651C1374.26 69.5016 1261.72 57.6839 1180.23 55.9484C1098.69 54.1923 1087.73 49.2958 1118.26 39.9159C1148.78 30.5361 1453.08 15.3507 1453.08 15.3507C1453.69 16.2184 1456.05 18.4291 1459.55 21.7761C1295.08 29.5651 1204.42 38.8003 1143.33 43.3249C1075.15 48.3454 1189.88 51.713 1269.75 58.345C1319.45 62.4564 1416.92 56.4443 1485.79 51.2998C1485.79 51.3618 1485.88 51.4031 1485.92 51.4651H1485.97Z" fill="#77DF42"/>
<path d="M1069.91 26.7965C1069.13 26.7965 1068.34 26.8379 1067.51 26.8585C900.514 31.1352 820.989 45.2876 731.813 43.6761C646.786 42.1266 362.4 31.0939 328.555 29.813C411.705 32.5401 511.231 33.9657 631.239 32.9533C814.701 31.4245 958.073 29.1931 1069.91 26.7759V26.7965Z" fill="#77DF42"/>
<path d="M-17.1009 9.83436C-83.9175 7.66502 -100.25 18.3258 12.4644 26.7966C30.7189 28.1601 55.393 25.7429 70.8962 26.7966C99.4134 28.7386 162.125 42.3539 179.462 43.8001C210.905 46.4446 220.95 36.0318 181.515 34.069C174.79 33.7385 101.99 26.404 43.3835 20.0199C16.3511 17.0655 -2.55844 10.3302 -17.1009 9.85502V9.83436Z" fill="#ADFE7D"/>
<path d="M270.866 38.2631C229.728 38.2631 233.047 43.2422 248.856 51.0725C264.664 58.9028 303.051 70.514 296.239 63.5721C281.128 48.1387 313.445 38.2631 270.822 38.2631H270.866Z" fill="#ADFE7D"/>
<path d="M765.92 52.994C731.507 53.2832 668.184 52.0023 672.421 57.1467C675.827 61.2788 738.32 72.4974 777.013 69.7702C863.918 63.6754 788.847 64.7084 813.129 57.1467C837.41 49.585 824.92 45.5769 804.263 48.0561C783.651 50.5354 816.666 52.5808 765.92 52.994Z" fill="#ADFE7D"/>
<path d="M873.263 49.1511C845.314 54.812 832.3 59.5433 864.005 59.0474C895.71 58.5309 935.495 68.0967 915.886 58.7582C896.278 49.4197 911.825 41.3414 873.263 49.1511Z" fill="#ADFE7D"/>
<path d="M740.111 160.945C819.505 164.746 857.018 166.461 807.451 177.452C757.885 188.423 672.202 197.452 676.002 192.039C679.801 186.646 731.944 186.749 728.494 177.452C725.044 168.155 702.947 159.168 740.111 160.945Z" fill="#ADFE7D"/>
<path d="M1436.31 114.169C1355.3 110.079 1343.95 125.863 1419.41 125.243C1494.83 124.624 1527.63 118.777 1436.31 114.169Z" fill="#ADFE7D"/>
<path d="M1087.73 101.98C1057.12 103.943 1055.76 106.98 1077.91 106.794C1100.05 106.608 1110.31 106.071 1129.18 107.517C1148.04 108.942 1171.01 112.558 1176.34 109.583C1181.67 106.628 1176.34 106.236 1161.19 105.699C1146.03 105.182 1130.01 102.6 1120.57 102.91C1111.14 103.219 1099.09 101.236 1087.78 101.959L1087.73 101.98Z" fill="#ADFE7D"/>
<path d="M1228.79 108.756C1191.8 107.951 1190.23 112.868 1216.08 113.219C1241.93 113.57 1279.32 109.851 1228.79 108.756Z" fill="#ADFE7D"/>
<path d="M1069.91 30.5774C1031.26 31.5071 1019.69 34.8541 1046.33 38.3457C1072.97 41.8167 1079.57 41.6514 1094.33 38.3457C1109.09 35.0401 1144.37 28.8006 1069.91 30.5774Z" fill="#ADFE7D"/>
<path d="M1158.26 27.7263C1134.68 26.7552 1111.1 36.6516 1139 32.912C1166.86 29.1725 1184.51 28.8006 1158.26 27.7263Z" fill="#ADFE7D"/>
<path d="M1131.18 57.126C1109.61 58.2004 1095.9 64.4811 1113.15 63.5927C1130.35 62.7044 1146.38 59.5433 1155.81 60.411C1165.25 61.2788 1173.02 59.7292 1187.39 60.411C1201.76 61.0928 1207.87 56.7128 1194.77 57.126C1181.67 57.5186 1173.02 57.3533 1161.97 57.8905C1150.88 58.4276 1146.38 56.3823 1131.23 57.126H1131.18Z" fill="#ADFE7D"/>
<path d="M1078.3 63.6961C1061.01 66.8571 1069.61 68.5513 1092.19 67.7042C1114.72 66.8778 1105.37 58.7376 1078.3 63.6961Z" fill="#ADFE7D"/>
<path d="M1390.76 63.696C1368.01 64.0059 1363.69 67.9521 1379.28 67.9314C1394.87 67.8901 1403.87 66.7124 1420.29 66.2373C1436.71 65.7621 1449.81 64.5431 1459.24 62.1258C1468.67 59.6879 1481.38 55.9484 1461.69 57.9111C1441.99 59.8738 1438.32 63.0762 1390.76 63.7167V63.696Z" fill="#ADFE7D"/>
<path d="M991.612 170.531C955.889 177.514 954.448 174.973 972.178 183.196C989.909 191.439 990.695 189.229 998.861 181.936C1007.03 174.643 1010.7 166.792 991.612 170.531Z" fill="#ADFE7D"/>
<path d="M1313.34 209.724C1270.28 210.426 1260.14 215.695 1311.63 213.835C1363.12 211.976 1381.99 208.608 1313.34 209.724Z" fill="#ADFE7D"/>
<path d="M1392.25 206.997C1374.74 208.36 1368.71 213.773 1401.68 212.224C1436.14 210.592 1422.25 204.662 1392.25 206.997Z" fill="#ADFE7D"/>
<path d="M203.219 160.717C238.287 165.015 276.892 168.32 285.539 164.374C294.186 160.428 314.187 152.598 337.639 150.346C361.09 148.114 329.254 147.35 285.539 148.858C241.824 150.346 113.999 149.788 203.219 160.717Z" fill="#ADFE7D"/>
<path d="M-74.7466 157.122C-119.291 160.077 -129.641 167.37 -87.6296 166.151C-45.5744 164.932 105.396 160.511 93.3867 157.122C81.3772 153.734 -30.1585 154.168 -74.7466 157.122Z" fill="#ADFE7D"/>
<path d="M181.733 197.41C128.018 199.848 161.251 206.749 213.962 202.265C266.673 197.782 332.704 199.352 332.704 192.039C332.704 184.725 317.244 179.064 306.982 183.196C296.675 187.328 286.413 190.262 263.223 193.65C240.034 197.038 215.316 195.881 181.733 197.41Z" fill="#ADFE7D"/>
<path d="M0.716836 206.997C-34.5693 207.761 -55.051 217.306 17.8795 212.224C90.8101 207.121 103.649 201.108 80.5038 203.753C57.3581 206.377 40.5448 206.15 0.716836 207.017V206.997Z" fill="#ADFE7D"/>
</g>
<defs>
<clipPath id="clip0_79_883">
<rect width="1440" height="229" fill="white"/>
</clipPath>
</defs>
</svg>
