<?xml version="1.0" encoding="UTF-8"?>
<svg id="Layer_2" data-name="Layer 2" xmlns="http://www.w3.org/2000/svg" viewBox="0 0 379.76 163.81">
  <defs>
    <style>
      .cls-1 {
        fill: #0a0a0a;
      }

      .cls-2 {
        fill: #0a0a0a;
      }

      .cls-3 {
        fill: #59fd53;
      }
    </style>
  </defs>
  <g id="Layer_1-2" data-name="Layer 1">
    <g>
      <g>
        <path class="cls-1" d="M64.25,34.03c-1.1-.05-2.2.05-3.31.29-1.11.25-2.12.6-3.02,1.06-.9.46-1.64,1.02-2.22,1.69-.58.67-.89,1.41-.93,2.21-.04.85.24,1.52.84,2.03.6.5,1.4.94,2.41,1.31,1.01.37,2.15.75,3.41,1.14,1.26.39,2.52.87,3.78,1.45,1.25.58,2.45,1.32,3.58,2.19,1.13.88,2.07,2.01,2.81,3.39.27.46.39.99.36,1.59-.01.25-.04.47-.09.67-.05.2-.08.42-.09.67-.05,1-.35,1.93-.9,2.81-.56.87-1.22,1.72-1.99,2.53-.77.81-1.6,1.6-2.48,2.36-.88.76-1.67,1.52-2.36,2.29-.39.38-.81.82-1.27,1.33-.46.5-.98.99-1.55,1.46-.57.47-1.18.87-1.82,1.19-.64.32-1.36.51-2.17.57l-8.27.51c-.17.54-.4,1.13-.69,1.77-.29.64-.68,1.22-1.18,1.74-.5.53-1.11.95-1.82,1.26-.71.32-1.58.45-2.6.4-1.46-.07-2.72-.32-3.76-.74-1.04-.42-1.95-1.1-2.71-2.04-.9-1.19-1.88-2.43-2.96-3.7-1.08-1.28-2.06-2.58-2.95-3.93-.89-1.34-1.63-2.7-2.23-4.08s-.86-2.74-.79-4.09c.02-.35.09-.73.22-1.15.13-.42.35-.81.66-1.17.31-.36.67-.65,1.09-.89.41-.23.95-.33,1.61-.3.73.03,1.63.34,2.7.92,1.07.58,2.27,1.3,3.58,2.16,1.31.86,2.7,1.79,4.16,2.78,1.45.99,2.93,1.93,4.43,2.8,1.5.87,3.02,1.61,4.57,2.2,1.55.6,3.02.93,4.41,1,1.24.06,2.35-.18,3.33-.7.98-.53,1.8-1.19,2.46-1.98.66-.79,1.18-1.65,1.55-2.59.37-.93.58-1.75.61-2.45.15-3.09-.35-5.43-1.48-7-1.13-1.58-2.6-2.75-4.4-3.51-1.8-.76-3.73-1.29-5.81-1.59-2.08-.3-4.02-.75-5.82-1.36-1.8-.61-3.28-1.54-4.43-2.8-1.15-1.25-1.66-3.2-1.54-5.85.09-1.89.85-3.58,2.27-5.06,1.43-1.48,3.23-2.72,5.4-3.72,2.17-1,4.59-1.73,7.25-2.2,2.66-.47,5.27-.65,7.83-.53,1.68.08,3.56.26,5.64.53,2.08.27,4.02.7,5.82,1.29,1.8.59,3.31,1.37,4.51,2.35,1.2.98,1.76,2.25,1.69,3.79-.08,1.7-1.07,2.87-2.97,3.53-1.9.66-3.95.94-6.14.83-1.03-.05-2.06-.16-3.12-.34-1.05-.17-2.09-.29-3.12-.34ZM32.07,53.94c.29.11.56.24.81.38.25.14.56.21.92.23-.05-.4-.32-.7-.78-.9-.47-.2-.88-.4-1.24-.62l-.24.36.52.55ZM34.01,54.78l-.21-.16.09.38.12-.22ZM42.44,32.39l-.11-.08-.23.21.21.16.12-.29ZM44.34,61.8l1.21-.02-.66-.03c-.29-.01-.48,0-.55.05l.02-.45-.02.45ZM45.55,61.93c0,.15.08.27.26.35.18.08.34.18.48.29l-.2-.38-.53-.4v.15ZM46.94,62.74h.22s-.54-.24-.54-.24l-.33.06.65.18ZM53.66,64.64c.36.02.66-.04.89-.18-1.23-.26-2.45-.52-3.65-.77-1.2-.26-2.41-.56-3.64-.92l.1.3c1,.45,2.01.81,3.03,1.08,1.01.27,2.1.44,3.28.49ZM57.11,43.06c.36.17.93.42,1.72.76.79.34,1.62.7,2.48,1.09.86.39,1.65.74,2.37,1.05.72.31,1.19.47,1.41.48,0-.2-.31-.48-.95-.83-.64-.36-1.36-.7-2.15-1.04-.79-.34-1.58-.65-2.37-.94-.79-.29-1.33-.49-1.62-.6l-.88.03ZM65.09,46.44l.31.31.33.02-.21-.23-.44-.1ZM73.99,25.65c-1.07-.7-2.27-1.15-3.62-1.33-1.35-.19-2.71-.37-4.1-.53l7.17,1.92.55-.05Z"/>
        <path class="cls-1" d="M95.01,39.17c1.54.07,3.08.36,4.63.86,1.55.5,3.1,1.06,4.65,1.68,1.55.62,3.09,1.25,4.64,1.87,1.55.62,3.08,1.1,4.61,1.42,1.45.32,2.86.74,4.23,1.25,1.37.51,2.32,1.31,2.86,2.38.4.82.73,1.53,1,2.15.26.61.44,1.2.52,1.75.08.55.13,1.13.14,1.73,0,.6,0,1.3-.04,2.1-.29,1.44-.49,2.89-.59,4.36-.11,1.47-.27,2.92-.48,4.36-.13,1.14-.37,2.31-.72,3.49-.35,1.18-.86,2.31-1.54,3.38-.67,1.07-1.56,2.05-2.67,2.95-1.11.9-2.48,1.61-4.12,2.13-.3.14-.67.19-1.11.17-.44-.02-.85-.23-1.24-.62-.38-.39-.71-.85-.98-1.36-.27-.51-.47-1.02-.59-1.53-.12-.5-.18-.88-.17-1.13.08-1.6.28-3.12.6-4.58.33-1.46.86-2.97,1.59-4.53.17-.39.35-.78.55-1.17.2-.39.31-.81.33-1.26.05-1.05-.33-1.98-1.13-2.79-.8-.81-1.84-1.5-3.09-2.06-1.26-.56-2.63-.99-4.12-1.28-1.49-.3-2.89-.47-4.21-.54-2.78-.13-4.92.05-6.4.56-1.49.5-2.62,1.21-3.4,2.12-.78.91-1.3,1.98-1.58,3.19-.28,1.21-.58,2.47-.9,3.78-.32,1.31-.8,2.6-1.45,3.87-.65,1.27-1.69,2.42-3.13,3.45-.38.23-.79.45-1.24.65s-.97.29-1.55.26c-.88-.04-1.6-.29-2.16-.74-.57-.45-1-.98-1.3-1.6s-.51-1.25-.62-1.9c-.12-.65-.16-1.21-.14-1.66.06-1.35.62-2.68,1.68-4.01,1.05-1.32,2.18-2.68,3.38-4.07,1.2-1.39,2.33-2.85,3.4-4.37s1.63-3.13,1.71-4.83c.05-1,.25-2.09.6-3.27.35-1.18.93-2.28,1.75-3.29.82-1.01,1.86-1.83,3.14-2.47,1.28-.64,2.83-.92,4.66-.83ZM79.26,69.68l-.22-.09-.11.07.1.15.23-.14ZM82.3,59.03c.22.01.33-.05.34-.17,0-.12.08-.23.24-.33h-.11c-.15-.01-.24.05-.28.17-.04.12-.1.23-.18.33ZM83.36,57.58c-.3.14-.45.3-.46.5,0,.1,0,.16.05.19.04.03.05.09.05.19.23-.29.36-.58.37-.88ZM83.47,57.51c.07,0,.11-.04.12-.14l-.11-.08v.22ZM113.23,46.93c-.13-.31-.32-.51-.57-.63-.25-.11-.56-.23-.92-.34-4.41-1.36-8.62-2.98-12.63-4.87-1.22-.56-2.42-.86-3.58-.92-.37-.02-.83.01-1.38.08-.55.07-1.07.19-1.56.34-.48.15-.9.35-1.24.58-.34.23-.52.5-.53.8,0,.1.08.23.26.39.17.16.34.24.48.25.58.03,1.18-.09,1.78-.37.6-.27,1.41-.38,2.43-.33,1.32.06,2.73.31,4.25.73,1.52.42,3.04.89,4.55,1.42,1.51.52,3.01,1.06,4.49,1.6,1.48.55,2.87.97,4.17,1.29ZM106.4,51.78c0-.15-.12-.25-.37-.32-.25-.06-.45-.12-.6-.18l-.56.2c-.01.25.05.4.2.46.14.06.44.1.87.12l.45-.28ZM111.31,75.55c.3-.08.45-.18.45-.28l-.44-.1-.23.21.21.16Z"/>
        <path class="cls-1" d="M163.32,43.32c1.61.08,2.99.66,4.15,1.73,1.16,1.08,2.09,2.34,2.79,3.77.7,1.43,1.22,2.88,1.55,4.35.33,1.47.48,2.62.44,3.47-.04.95-.22,1.88-.52,2.79-.3.91-.64,1.82-1.01,2.73-.37.91-.73,1.81-1.06,2.72-.34.91-.53,1.84-.57,2.78-.03.6.07,1.18.3,1.74.23.56.33,1.12.31,1.66-.04.75-.34,1.46-.93,2.13-.58.67-1.04,1.35-1.36,2.03-.09.3-.29.69-.61,1.17-.32.49-.69.94-1.11,1.37-.42.43-.88.81-1.37,1.13-.49.33-.99.48-1.51.45-.73-.04-1.16-.38-1.27-1.03-.12-.65-.28-1.39-.5-2.2-.22-.81-.66-1.56-1.32-2.24-.67-.68-1.87-1.06-3.63-1.15-1.61-.08-3.3-.02-5.07.17-1.77.19-3.52.42-5.26.69-1.74.27-3.45.5-5.15.69-1.7.19-3.35.25-4.96.18-.51-.02-1.11-.1-1.8-.24-.69-.13-1.32-.3-1.9-.5-.58-.2-1.08-.48-1.5-.82-.42-.34-.62-.74-.6-1.19.04-.9.54-1.72,1.49-2.48.95-.75,2.08-1.44,3.4-2.05,1.31-.61,2.68-1.16,4.09-1.64,1.41-.48,2.61-.93,3.58-1.33l1.01-.4.66.11c.07.05.1.18.09.38,0,.15-.14.29-.41.43-.27.14-.55.29-.85.45-.3.16-.59.35-.85.56-.27.21-.41.47-.42.77s.28.7.88,1.2c.6.5,1.31.99,2.13,1.45.82.46,1.68.88,2.58,1.25.9.37,1.6.56,2.12.59l.88.04c1.54.07,2.9,0,4.08-.22,1.18-.22,1.81-1,1.87-2.35.02-.45-.06-.94-.26-1.47-.19-.53-.5-1.04-.92-1.51-.42-.47-.93-.87-1.54-1.2-.61-.33-1.28-.51-2.01-.54-1.03-.05-2,.03-2.93.24-.93.21-1.87.29-2.82.24-.59-.03-.87-.24-.85-.64,0-.2.2-.38.57-.53.37-.16.77-.31,1.18-.47.41-.15.8-.34,1.18-.54.38-.21.57-.48.59-.83.02-.5-.11-1.04-.42-1.63-.3-.59-.73-1.13-1.3-1.64-.56-.5-1.2-.92-1.92-1.25-.72-.33-1.48-.52-2.28-.56-.37-.02-.73,0-1.1.06-.37.06-.74.08-1.1.06-1.03-.05-1.99-.22-2.89-.51-.9-.29-1.33-.86-1.29-1.71.02-.5.23-.94.61-1.32,1.31-1.29,2.98-2.52,5.01-3.7,2.04-1.18,4.26-2.21,6.69-3.09,2.42-.88,4.91-1.57,7.46-2.04,2.55-.48,5.03-.66,7.45-.55ZM140.57,68.4c.36.12.7.26,1.02.42.32.17.66.28,1.03.35-.14-.11-.32-.29-.52-.55-.21-.26-.31-.44-.3-.54,0-.1.08-.2.23-.29l-.33-.09c-.3.09-.48.13-.56.12-.07,0-.22-.08-.43-.25l-.33.06c-.08.05-.12.17-.13.37l.31.39ZM141.01,70.74l-.23.21.22.08h.22s-.21-.3-.21-.3ZM149.34,71.44c-.14-.11-.32-.17-.54-.18l-.44.05.1.15.77.04.11-.07ZM150.84,72.11l-.22-.09-.22.06.22.08.22-.06ZM158.3,70.29v-.07s-.22-.01-.22-.01l.11.08h.11ZM158.58,66.63v-.15s-.22.14-.22.14h.22ZM166.77,47.15c-.28-.26-.54-.58-.78-.94-.24-.36-.28-.69-.12-.98-.15-.06-.24-.05-.28.02-.04.07-.13.11-.28.1-.15,0-.31-.09-.48-.25-.18-.16-.34-.24-.48-.25-.23.14-.38.32-.47.54-.08.22-.17.43-.25.62l.21.23c.43.12.86.32,1.29.59.43.27.82.41,1.19.43l.45-.13ZM164.71,71.87c0-.2-.1-.3-.31-.31l-.23.21.21.31.33-.06v-.15ZM166.79,81.26c.15,0,.37.02.66.03.29.01.44.1.43.25-.01.25-.14.6-.38,1.07-.24.46-.58.68-1.02.66-.44-.02-.89-.22-1.35-.59-.46-.37-.68-.71-.67-1.01,0-.1.05-.21.13-.33.08-.12.16-.23.24-.33l.45-.2c.15,0,.24,0,.28-.02.04-.02.13-.03.28-.02.22.01.55.08.98.2-.08.05-.13.11-.17.18-.04.07.01.11.16.12Z"/>
        <path class="cls-1" d="M219.9,44.28c2.34.11,4.31.69,5.91,1.74,1.6,1.05,2.36,2.37,2.29,3.97v.3c-.11.4-.55.77-1.33,1.14-.79.36-1.72.69-2.8.99-1.08.3-2.13.54-3.17.71-1.04.18-1.85.3-2.44.37-3.09.25-5.77.7-8.04,1.34-2.27.64-4.3,1.46-6.11,2.45-1.81.99-3.48,2.15-5,3.47-1.53,1.33-3.14,2.82-4.83,4.49-.61.57-1.16,1.17-1.62,1.8-.47.63-.72,1.29-.75,1.99-.04.95.25,1.79.87,2.52.62.73,1.46,1.34,2.5,1.84,1.04.5,2.17.9,3.41,1.21,1.23.31,2.43.52,3.6.62,1.46.12,2.9.28,4.32.47,1.42.19,2.82.32,4.21.39.22.01.59.02,1.1.01.51,0,1.04.02,1.59.08.55.05,1,.15,1.36.29.36.14.5.34.41.58.14.11.32.24.53.4s.31.34.3.54c-.02.5-.62.98-1.77,1.45-1.16.47-2.51.85-4.07,1.16-1.55.3-3.07.54-4.54.72-1.48.18-2.54.25-3.2.22-2.27-.11-4.13-.31-5.58-.6-1.45-.29-2.71-.73-3.79-1.3s-2.05-1.31-2.92-2.2c-.88-.89-1.87-1.96-2.98-3.22-.49-.57-.92-1.16-1.29-1.75-.38-.59-.62-1.24-.73-1.95-.11-.85-.21-1.73-.31-2.64-.1-.9-.21-1.78-.31-2.64-.1-1-.31-2-.63-2.99-.32-.99-.46-1.98-.41-2.98.06-1.25.26-2.34.6-3.27.26-.94.81-1.7,1.65-2.28.83-.58,1.81-1.05,2.93-1.4,1.12-.35,2.32-.61,3.61-.8,1.29-.19,2.53-.33,3.7-.42,3.09-.3,5.98-.89,8.66-1.76,2.68-.87,5.19-1.95,7.52-3.24,1.13-.6,2.31-1.06,3.53-1.41,1.23-.34,2.57-.48,4.03-.41ZM187.29,59.52l-.1-.23-.23.21.1.23.23-.21ZM190.05,70.9l-.21-.23-.34.21.32.24.23-.21ZM194.73,74.12c-.07,0-.17.02-.28.06-.11.04-.21.06-.28.06l.43.17c2.44,1.17,4.8,1.89,7.1,2.17,2.3.29,4.83.49,7.61.62.44.02.86.04,1.26.06.4.02.75-.01,1.05-.1l.23-.14-.21-.16-1.86-.09c-2.27-.11-4.81-.34-7.61-.7-2.81-.36-5.18-.96-7.12-1.8-.14-.11-.25-.16-.32-.17ZM206.5,78.66c.23-.14.34-.23.34-.28,0-.1-.14-.16-.43-.17-.29-.01-.44.05-.45.2,0,.15.17.23.54.25ZM213.75,76.6h.22s0-.14,0-.14l-.23.14ZM220.33,49.25c.29.01.44-.05.45-.2l-.32-.17-.34.13.21.23ZM222.56,46.21c-.21-.31-.34-.49-.41-.54-.07-.05-.36-.09-.87-.12l-.33-.02c-.37-.02-.63.12-.79.41l.21.31,1.54.07c.15,0,.29.01.44.02.15,0,.22-.04.23-.14Z"/>
        <path class="cls-1" d="M247.04,63.34c-.03.65.04,1.48.21,2.48.17,1.01.45,2.01.85,3,.39.99.95,1.9,1.69,2.7.73.81,1.64,1.37,2.72,1.67.8.24,1.9.44,3.33.61,1.42.17,2.84.42,4.25.76,1.41.34,2.64.81,3.67,1.41,1.03.6,1.52,1.47,1.47,2.62-.03.6-.53,1.01-1.49,1.24-.96.23-1.85.32-2.65.29-1.76-.08-3.28-.49-4.56-1.23-1.28-.74-2.51-1.54-3.68-2.42-1.17-.88-2.34-1.69-3.51-2.42-1.17-.73-2.49-1.13-3.96-1.2-1.61-.08-2.97.12-4.1.59-1.12.47-2.05,1.09-2.78,1.85-.73.77-1.38,1.6-1.93,2.49-.56.9-1.09,1.74-1.6,2.51-.51.78-1.06,1.41-1.63,1.91-.57.5-1.34.72-2.29.68-1.03-.05-1.68-.46-1.98-1.22s-.43-1.42-.4-1.97c.05-1,.27-1.92.68-2.78.41-.85.87-1.69,1.38-2.52.51-.82,1.01-1.65,1.49-2.48.48-.83.85-1.71,1.12-2.65.35-1.28.8-2.56,1.34-3.83.54-1.27.84-2.56.9-3.86.03-.55,0-1.09-.09-1.62s-.11-1.07-.09-1.62c.05-1,.26-1.95.63-2.86.37-.91.58-1.86.63-2.86.03-.55-.08-1.06-.31-1.55-.23-.49-.34-1-.31-1.55.08-1.6.35-3.16.83-4.68.47-1.53.75-3.09.83-4.68.03-.7.13-1.58.29-2.65.16-1.07.48-2.09.97-3.06.49-.98,1.17-1.81,2.04-2.49.87-.68,2.08-.99,3.62-.92.95.04,1.74.31,2.38.79.64.48,1.16,1.06,1.57,1.72.41.67.69,1.37.83,2.1.15.73.21,1.35.19,1.85-.05,1.15-.46,2.24-1.2,3.28-.75,1.04-1.57,2.13-2.46,3.26-.9,1.13-1.72,2.33-2.48,3.59-.76,1.26-1.17,2.69-1.25,4.29-.04.85.39,1.74,1.3,2.69.91.94,2.06,1.45,3.45,1.51,1.02.05,1.83-.3,2.41-1.05.59-.75,1.16-1.64,1.72-2.69.56-1.05,1.18-2.13,1.86-3.25.68-1.12,1.62-2.02,2.82-2.71.23-.14.62-.35,1.18-.62.56-.27,1.18-.54,1.85-.81.67-.27,1.31-.5,1.9-.7.59-.2,1.04-.31,1.34-.35.15,0,.29,0,.44-.02.15-.02.29-.02.44-.02.58.03,1.05.19,1.41.48.35.29.52.64.5,1.04-.08,1.6-.56,2.96-1.46,4.09-.9,1.13-1.99,2.12-3.27,2.96-1.29.84-2.68,1.61-4.18,2.31-1.5.7-2.89,1.44-4.17,2.2-1.28.76-2.37,1.65-3.26,2.66-.89,1.01-1.37,2.23-1.44,3.68ZM236.56,73.19l-.33-.02c-1.07.95-1.93,2.03-2.57,3.25l.21.31.34-.13c.39-.53.86-1.08,1.4-1.66.54-.57.9-1.13,1.07-1.67l-.11-.08ZM239.69,69.81c-.82.21-1.27.56-1.37,1.06l.21.24c.82-.21,1.27-.54,1.37-.98l-.21-.31ZM244.8,31.67c-.31.24-.47.58-.49,1.03v.15c.14,0,.32.03.54.06.22.04.4.06.55.06.36.02.55-.07.56-.27.01-.25-.11-.46-.36-.62-.25-.16-.52-.3-.81-.41ZM248.68,56.52l.32.17.34-.28-.33-.09-.34.21ZM252.5,73.27l-.23.14.1.23.13-.37ZM258.91,74.85c-.22-.06-.62-.15-1.2-.28-.58-.13-1.18-.27-1.79-.42-.62-.15-1.2-.28-1.74-.38-.54-.1-.89-.15-1.04-.16-.15,0-.26,0-.33.02-.07.02-.19.03-.33.02.86.34,1.77.61,2.71.8.94.19,1.89.37,2.83.51l.88-.11ZM255.95,51.62l.44.1.23-.29-.22-.09-.45.28ZM258.5,76.56l-.11-.08-.33.06.22.09.22-.06ZM261.89,44.78c-.54.52-1.11.9-1.7,1.12.14.06.36.09.65.11.37.02.7-.04,1-.18.3-.14.56-.27.79-.41l.02-.37-.31-.39-.45.13ZM260.29,45.98v.07s.1.08.1.08v-.07s-.21-.16-.21-.16l.11.08Z"/>
      </g>
      <g>
        <path class="cls-1" d="M50.74,83.32c.29.8.56,1.56.8,2.28.24.72.39,1.49.42,2.3.07,1.54-.3,3.23-1.1,5.07-.81,1.84-1.6,3.44-2.38,4.8-.79,1.36-1.33,2.84-1.64,4.43-.31,1.6-.51,3.13-.62,4.61-.17,1.92-.35,3.9-.56,5.93-.21,2.03-.6,4.02-1.19,5.96-.6,1.79-1.16,3.88-1.68,6.25-.53,2.38-.75,4.52-.66,6.43.07,1.54.33,3.07.78,4.6.45,1.52.71,3.09.79,4.71.03.73-.15,1.85-.55,3.33-.4,1.49-.92,2.98-1.57,4.48-.65,1.5-1.39,2.84-2.23,4.02-.84,1.18-1.72,1.79-2.65,1.83-.51.02-.92-.2-1.24-.66-.32-.46-.6-1.02-.84-1.67-.24-.65-.4-1.29-.47-1.91-.07-.62-.11-1.08-.13-1.37-.07-1.47.04-2.87.32-4.21.28-1.34.6-2.6.97-3.79.37-1.19.7-2.29.99-3.3.29-1.01.42-1.84.39-2.5-.08-1.83-.97-3.21-2.67-4.12-1.69-.92-3.51-1.33-5.45-1.24-1.86.08-3.6.53-5.21,1.34-1.61.81-2.96,1.83-4.05,3.05-1.09,1.23-1.94,2.61-2.54,4.14-.61,1.54-.88,3.07-.81,4.61.01.29.05.57.1.82.05.26.09.53.1.82.12.88-.22,2.05-1.05,3.52-.82,1.47-1.88,2.95-3.16,4.45-1.29,1.49-2.69,2.79-4.2,3.89-1.52,1.1-2.99,1.68-4.43,1.75-1.1.05-1.92-.35-2.47-1.21-.55-.86-.84-1.69-.88-2.5-.01-.22.38-.94,1.17-2.15.79-1.21,1.63-2.67,2.53-4.36.9-1.7,1.73-3.46,2.49-5.3.76-1.84,1.11-3.45,1.05-4.85l-.33-4.4c-.05-1.03-.22-2.01-.52-2.95-.3-.94-.47-1.89-.51-2.84-.02-.51.04-.98.19-1.39.15-.41.3-.84.45-1.29,0-.15-.06-.4-.16-.76-.1-.36-.15-.62-.16-.76-.03-.66.07-1.69.3-3.1.23-1.41.5-2.89.81-4.45.31-1.56.65-3.01,1.01-4.35.36-1.34.66-2.31.88-2.91.3-.82.58-1.68.84-2.57.25-.89.41-1.75.45-2.56.11-1.25.29-2.33.55-3.22.25-.89.7-1.87,1.33-2.93.39-.68.65-1.44.78-2.3.13-.85.3-1.69.52-2.51.22-.67.52-1.53.9-2.58.38-1.05.83-2.11,1.38-3.21.54-1.09,1.07-2.13,1.57-3.1.5-.98,1-1.74,1.48-2.27.73-.77,1.72-1.18,2.99-1.24,1.1-.05,1.89.1,2.37.44.48.35,1.07.83,1.78,1.46v.22s-.37.02-.37.02c-.35-.35-.58-.29-.69.2-.1.48-.15.8-.15.94.02.37.2.73.56,1.08.35.35.66.63.93.84l.25-.12c.08-.15.11-.41.09-.78,0-.15-.04-.29-.08-.44-.05-.14.09-.22.43-.24.25-.01.39.11.4.37.01.26.06.46.15.6.22,1.02.46,2.13.72,3.33.26,1.2.42,2.32.47,3.34.05,1.1-.08,2.39-.4,3.88-.31,1.49-.67,3.01-1.06,4.57-.4,1.56-.75,3.07-1.06,4.52s-.45,2.69-.4,3.71c.05,1.03.56,1.72,1.56,2.08.99.36,1.99.52,3.01.47,1.1-.05,2.4-.39,3.89-1,1.5-.62,2.92-1.38,4.28-2.29,1.36-.91,2.49-1.91,3.42-3.02.92-1.11,1.36-2.18,1.31-3.2-.04-.88-.09-2.37-.14-4.46-.05-2.09.06-4.23.34-6.41.28-2.18.76-4.13,1.45-5.86.68-1.72,1.7-2.61,3.05-2.68.34-.02.66,0,.96.07.3.06.46.27.47.64.01.22-.08.52-.28.89-.2.38-.29.71-.27,1.01.03.59.43,1.12,1.22,1.6,0-.07.03-.17.11-.28.08-.11.12-.24.11-.39-.02-.37-.07-.64-.16-.82-.09-.18-.11-.45-.04-.83l.25-.12.26.1ZM8.4,151.87l-.26-.21-.36.46.26.1.37-.35ZM19.58,129.63c.67-.03,1.08-.34,1.23-.94l-.26-.21h-.13c-.25.02-.5.12-.75.32-.24.2-.36.4-.35.62v.11s.14.1.14.1h.13ZM23.39,82.36l.11-.45c-.27-.35-.6-.52-.98-.51-.38.02-.78,0-1.21-.06l-.37.35.4.31.38-.02c.43.2.86.37,1.29.49l.38-.13ZM25.92,109.93c-.36-.35-.6-.73-.75-1.12-.15-.4-.44-.73-.87-1.01-.16.3-.23.6-.21.89.01.29.12.73.31,1.31l.52.2,1-.27ZM24.69,96.97c.01.22.14.32.4.31.25-.01.41-.33.46-.96.06-.63.12-1.02.2-1.17.12-.96.31-1.89.57-2.78.25-.89.36-1.82.32-2.77-.03-.59-.14-1.13-.33-1.64-.19-.5-.55-.97-1.08-1.38l-.62.25v.22c.46.49.7,1.22.74,2.17.06,1.25-.05,2.54-.33,3.88-.28,1.34-.39,2.63-.33,3.88ZM38.85,148.27l-.27-.32-.24.34.27.32.24-.34Z"/>
        <path class="cls-1" d="M83.08,98.94c1.44-.07,2.98-.03,4.64.12,1.66.14,3.22.46,4.68.94,1.46.48,2.7,1.2,3.72,2.15,1.02.95,1.6,2.23,1.76,3.83.13,1.1.29,2.16.46,3.18.17,1.02.41,2.08.72,3.17,0,.15.03.26.08.33.04.07.07.18.08.33.04.81-.2,1.72-.7,2.73-.5,1.02-1.05,2.09-1.63,3.22-.58,1.13-1.12,2.28-1.62,3.44-.5,1.16-.72,2.33-.67,3.5.04.81.14,1.65.31,2.52.17.87.27,1.72.31,2.52.07,1.54-.23,2.79-.91,3.74-.68.95-1.48,1.81-2.42,2.59-.94.78-1.88,1.56-2.81,2.33-.94.78-1.68,1.77-2.21,2.97-.54,1.28-1.24,2.61-2.1,4.01-.87,1.4-1.87,2.7-3,3.89-1.13,1.19-2.42,2.19-3.86,2.99-1.45.8-3.05,1.24-4.83,1.32-1.61.07-3.08-.25-4.42-.96-1.35-.71-2.55-1.55-3.61-2.54-.62-.56-1.21-1.06-1.78-1.52-.57-.45-1.17-.96-1.78-1.52-1.14-.9-2.15-2.03-3.01-3.39-.87-1.36-1.61-2.79-2.23-4.31-.62-1.52-1.11-3.04-1.48-4.56-.37-1.53-.58-2.95-.64-4.27-.05-1.03-.07-2.02-.07-2.97,0-.95.02-1.95.05-2.98.1-1.47.68-3.14,1.74-4.99,1.06-1.85,2.33-3.69,3.81-5.52,1.48-1.83,3.01-3.59,4.58-5.28,1.57-1.69,2.84-3.14,3.8-4.36,1.76-2.14,3.98-3.75,6.64-4.82,2.66-1.08,5.47-1.68,8.43-1.82ZM57.23,125.37l.13.1v-.11s-.13,0-.13,0ZM90.7,121.2c-.07-1.61-.91-3.16-2.5-4.63-1.59-1.47-3.49-2.76-5.7-3.88-2.21-1.11-4.52-1.98-6.91-2.61-2.4-.62-4.4-.9-6.01-.83-.68.03-1.34.25-2,.64-2.06,1.27-3.54,2.63-4.45,4.06-.91,1.44-1.54,2.96-1.89,4.55-.35,1.6-.64,3.23-.86,4.89-.22,1.66-.63,3.36-1.23,5.07-.3.82-.6,1.76-.89,2.8-.29,1.04-.42,2-.38,2.88.02.51.2,1.2.54,2.07.33.87.71,1.75,1.14,2.65.42.9.86,1.76,1.32,2.59.46.83.87,1.49,1.23,1.98.81,1.14,2.02,1.67,3.63,1.6,1.52-.07,2.97-.34,4.34-.8,1.38-.47,2.73-1.01,4.05-1.62,1.33-.61,2.63-1.26,3.91-1.94,1.28-.68,2.54-1.31,3.79-1.88,1.66-.74,2.7-1.54,3.13-2.4.42-.86.6-2.07.53-3.61-.04-.81.22-1.63.78-2.46.55-.83,1.17-1.73,1.85-2.68.67-.95,1.28-1.97,1.83-3.06.54-1.09.79-2.22.73-3.4ZM62.78,113.43c-.42.17-.7.36-.86.59-.16.23-.32.49-.47.79.41-.17.7-.34.86-.54.16-.19.32-.47.47-.85ZM63.76,146.03c-.2-.58-.59-.86-1.18-.83-.09,0-.15.03-.19.06-.04.04-.1.06-.19.06,0,.22.17.42.47.58.3.17.58.25.84.24l.25-.12ZM63.89,146.03c.08,0,.11.01.07.05-.04.04-.02.06.07.05.17,0,.33-.09.5-.24l-.63.14ZM65.17,146.19c0,.15.07.24.2.27.13.03.24.08.32.15-.01-.29-.19-.43-.53-.42ZM83.75,138.83l-.38.02c-.09,0-.17.05-.25.12l-.12.12c-2.3,1.58-4.9,3.02-7.8,4.33-2.9,1.31-5.78,2.21-8.64,2.71-.34.02-.63.18-.87.48,3.54-.38,6.78-1.23,9.73-2.54,2.94-1.31,5.72-3.02,8.34-5.12v-.11ZM78.36,101.47c-.51-.12-.94-.18-1.28-.16-.42.02-.82.15-1.19.39-.37.24-.72.47-1.05.71l.13.1c1.94-.24,3.81-.5,5.61-.81,1.81-.3,3.68-.5,5.63-.59.42-.02.72-.05.88-.1.17-.04.33-.22.48-.52l-.38.02c-.68.03-1.38-.03-2.1-.18-.73-.15-1.43-.21-2.1-.18-.25.01-.66.03-1.2.05-.55.03-1.08.09-1.58.18-.5.1-.94.23-1.32.39-.37.17-.55.39-.54.69ZM78.37,101.58v-.11s.12,0,.12,0l-.12.12ZM93.72,112.35c.16-.15.24-.27.24-.34,0-.07-.03-.15-.07-.22-.05-.07-.07-.14-.07-.22l-.51.02c-.16.16-.24.31-.23.45,0,.07.02.11.07.11.04,0,.06.03.07.11l.51.09Z"/>
        <path class="cls-1" d="M151.14,101.46c.84-.04,1.37.31,1.57,1.03.2.73.32,1.38.34,1.97.07,1.54,0,3.24-.21,5.08-.21,1.85-.53,3.72-.95,5.61-.42,1.89-.95,3.72-1.59,5.48-.64,1.76-1.35,3.35-2.13,4.78-.39.75-.72,1.47-.98,2.14-.27.67-.56,1.31-.87,1.91-.31.6-.69,1.21-1.12,1.82-.44.61-1.02,1.22-1.76,1.84-.65.55-1.15,1.16-1.5,1.83-.35.68-.68,1.39-.98,2.14-.68,1.72-1.65,3.31-2.89,4.76-1.25,1.45-2.43,2.94-3.54,4.46-1.28,1.68-3.14,3.1-5.58,4.28-2.44,1.18-4.81,1.82-7.09,1.92-2.03.09-3.76-.34-5.2-1.31-1.44-.96-2.62-2.2-3.53-3.7-.92-1.5-1.6-3.11-2.06-4.81-.46-1.71-.72-3.26-.78-4.65-.02-.51-.03-1.03,0-1.54.02-.51.02-1.03,0-1.54-.03-.59-.12-1.21-.27-1.86-.16-.65-.25-1.27-.28-1.86-.03-.59,0-1.18.11-1.77.1-.59.14-1.18.11-1.77-.11-2.42-.62-4.79-1.53-7.1-.91-2.31-1.42-4.71-1.54-7.21-.15-3.3.64-6.41,2.37-9.32,1.73-2.91,4.43-5,8.1-6.27.67-.18,1.21-.28,1.64-.3,1.1-.05,1.96.21,2.58.76.62.56,1.09,1.27,1.43,2.14.34.87.57,1.76.69,2.67.13.91.2,1.7.23,2.36.07,1.54-.11,3.24-.53,5.1-.42,1.86-.99,3.74-1.71,5.65-.72,1.91-1.52,3.73-2.42,5.46-.9,1.73-1.78,3.24-2.65,4.53-.39.68-.74,1.38-1.05,2.09-.31.71-.44,1.47-.4,2.28.05,1.03.67,2.21,1.88,3.55,1.2,1.34,2.64,2.6,4.3,3.77,1.66,1.18,3.38,2.14,5.15,2.91,1.77.77,3.2,1.12,4.3,1.07.68-.03,1.3-.19,1.88-.47.58-.28,1.16-.51,1.75-.69.24-.23.61-.62,1.09-1.15.48-.54.97-1.11,1.45-1.72.48-.61.9-1.2,1.25-1.77.35-.57.53-1,.51-1.29,0-.22-.06-.44-.16-.65-.1-.22-.15-.43-.16-.65-.02-.37.41-1.18,1.29-2.43.87-1.25,1.27-2.83,1.18-4.74-.05-1.03-.22-2.07-.52-3.12-.3-1.05-.48-2.13-.53-3.23-.03-.59-.03-1.17-.02-1.76.01-.59.05-1.18.11-1.77.03-1.1.37-2.48,1.02-4.13.64-1.65,1.48-3.27,2.51-4.86,1.03-1.59,2.21-2.97,3.56-4.13s2.73-1.78,4.17-1.84ZM115.36,110.59c-.25.01-.38.09-.37.24l.4.53.37-.35-.27-.43h-.13ZM117.93,100.21c-1.35.21-2.21.76-2.59,1.66l.27.43c.5-.24.99-.49,1.49-.73.5-.24.95-.56,1.35-.94v-.22s-.53-.2-.53-.2ZM118.08,142.34c.17,0,.25-.12.24-.34l-.27-.43-.5.13c.09.07.16.2.21.38.05.18.16.27.33.26ZM135.05,141.45c.08-.08.12-.19.11-.34,0-.15-.1-.22-.26-.21-.17,0-.34-.02-.51-.09l.03.66.14.21.5-.24ZM147.07,115.32l-.51-.09-.24.34.51.09.24-.34ZM150.08,103.38l-.51-.09c-.33.31-.65.62-.97.93-.33.31-.48.68-.46,1.12l.14.32c.42-.09.81-.33,1.17-.72.36-.38.62-.76.77-1.14l-.15-.43Z"/>
        <path class="cls-1" d="M185.98,94.13c4.31-.2,7.98.39,11,1.76,3.03,1.37,5.26,3.9,6.7,7.58.09.14.14.36.16.65.02.51-.21,1-.7,1.47-1.3,1.24-2.66,2.03-4.08,2.39-1.42.36-3.02.65-4.79.88-1.18.13-2.53.32-4.04.57-1.51.25-3,.63-4.46,1.14-1.46.51-2.79,1.12-3.98,1.84-1.2.72-2.07,1.6-2.61,2.66,0,.07-.04.17-.11.28-.08.11-.12.21-.11.28.01.29.95.84,2.81,1.64,1.86.8,3.89,1.81,6.11,3.03s4.27,2.64,6.16,4.24c1.89,1.61,2.89,3.44,2.98,5.49.09,1.98-.6,4.13-2.06,6.44-1.46,2.31-3.29,4.45-5.49,6.43-2.2,1.98-4.55,3.63-7.08,4.96-2.52,1.33-4.84,2.04-6.95,2.14-2.45.11-4.63.03-6.55-.25-1.92-.28-3.88-1.07-5.89-2.38-1.57-.96-3.19-2.1-4.85-3.42-1.67-1.32-2.55-2.93-2.63-4.84-.03-.59.22-1.28.73-2.07.51-.8,1.19-1.21,2.04-1.25.42-.02.75.09.97.34.22.25.54.36.97.34.25-.01.46-.09.62-.25.16-.15.37-.24.62-.25.25-.01.71.13,1.35.43.65.3,1.4.64,2.27,1,.86.37,1.81.69,2.84.97,1.03.28,1.97.41,2.81.37,1.01-.05,1.93-.34,2.75-.9,1.06-.78,2.23-1.61,3.51-2.48,1.27-.87,2.46-1.8,3.55-2.81,1.1-1,2.02-2.09,2.77-3.27.75-1.17,1.1-2.42,1.04-3.74-.05-1.1-.6-2.07-1.66-2.9-1.05-.83-2.34-1.62-3.85-2.36-1.52-.74-3.16-1.45-4.92-2.15-1.77-.69-3.41-1.46-4.93-2.31-1.52-.85-2.81-1.82-3.88-2.91-1.07-1.09-1.63-2.37-1.7-3.84-.05-1.1.16-2.14.62-3.12,2-4.43,4.89-7.45,8.67-9.05,3.78-1.61,8.2-2.52,13.27-2.76ZM170.67,139.94c0-.07-.18-.1-.51-.09-.17,0-.57-.05-1.21-.17-.64-.12-1.05-.25-1.22-.39,0,.07-.02.13-.06.17-.04.04-.06.1-.06.17.01.29.38.52,1.11.67.73.15,1.22.22,1.47.21l.49-.35v-.22ZM183.29,96.46l-.14-.32-.51-.09c-1.69.08-3.21.29-4.54.65.26.21.61.3,1.03.28.68-.03,1.35-.06,2.03-.09.68-.03,1.35-.1,2.02-.2l.12-.23ZM191.17,96.43c.17,0,.29-.03.38-.07.08-.04.21-.06.38-.07-.78-.33-1.57-.55-2.38-.66-.81-.11-1.68-.14-2.61-.1l-2.28.21c-.17.08-.24.23-.23.45l.14.32.64.08c.33-.09.67-.14,1.01-.16.34-.02.67-.03,1.01-.05.68-.03,1.33-.02,1.97.02.64.05,1.29.05,1.97.02ZM195.18,100.77l-.38.02v.22s.39-.02.39-.02v-.22Z"/>
        <path class="cls-1" d="M265.23,124.7c.01.22.09.55.24.98.15.43.39.68.73.74-.32.46-.51.83-.58,1.13-.69,1.58-1.87,2.55-3.55,2.92-.59.1-1.31.43-2.18.98-.86.55-1.75,1.17-2.65,1.83-.9.67-1.72,1.37-2.44,2.1-.73.73-1.25,1.33-1.57,1.78-1.35,2.05-3.37,3.65-6.07,4.8-2.7,1.15-5.31,1.94-7.83,2.34-.59.1-1.13.26-1.63.46-.5.21-1.04.32-1.63.35-.51.02-1,0-1.46-.04-.47-.05-.96-.07-1.46-.04-1.35.06-2.21.23-2.58.5-.37.28-.61.56-.72.86-.11.3-.27.58-.47.85-.2.27-.89.43-2.07.48-1.18.05-2.18-.03-3-.25-.82-.22-1.57-.52-2.26-.89-.7-.37-1.39-.76-2.09-1.17-.7-.41-1.56-.77-2.59-1.09-.95-.32-1.91-.57-2.89-.75-.98-.18-1.95-.5-2.9-.97-.26-.13-.54-.25-.84-.35-.3-.1-.58-.21-.84-.35-.35-.13-.65-.21-.9-.23-.26-.02-.39-.22-.41-.59-.06-1.32.61-2.31,2.02-2.96.26.06.45.16.59.3.13.14.33.28.59.41.6.19,1.14.44,1.62.75.48.31,1.02.52,1.62.64.17,0,.31-.11.43-.3.12-.19.17-.36.17-.5.26.21.56.31.9.29.67-.03,1.15-.24,1.43-.62.28-.38.41-.83.38-1.34-.05-1.1-.68-1.95-1.9-2.56-.95-.4-1.66-1.03-2.12-1.89-.46-.86-.83-1.82-1.08-2.87-.26-1.05-.5-2.09-.71-3.11-.22-1.02-.55-1.92-1.01-2.71-.65-1.15-.99-2.2-1.03-3.15-.05-1.1.04-2.35.27-3.76.23-1.41.57-2.84,1.01-4.29.44-1.45.99-2.84,1.65-4.16.66-1.32,1.39-2.43,2.2-3.35.32-.31.52-.58.6-.8.38-.83.84-1.56,1.36-2.21.52-.65,1.15-1.28,1.88-1.91.9-.78,1.79-1.53,2.69-2.27.9-.74,1.79-1.5,2.69-2.27.66-.47,1.65-.97,2.98-1.51,1.33-.54,2.75-1.01,4.25-1.41,1.51-.4,3.01-.74,4.52-1.03,1.51-.29,2.69-.45,3.53-.49,1.1-.05,2.06.07,2.87.37.82.29,1.6.64,2.33,1.05.74.41,1.44.82,2.09,1.23.65.41,1.37.71,2.14.9,1.45.3,2.87.68,4.24,1.13,1.37.45,2.79.83,4.24,1.13l.25-.12-.27-.43v.11c-.17-.14-.3-.24-.39-.31-.09-.07-.18-.17-.27-.32l.37-.24-.38-.09c-.69-.19-1.33-.38-1.93-.57-.6-.19-1.21-.46-1.81-.8l-.02-.44.37-.24c.84-.04,1.89.17,3.14.63,1.25.46,2.46,1.03,3.63,1.71,1.17.68,2.2,1.44,3.09,2.29.88.84,1.35,1.67,1.38,2.47.05,1.03-.18,1.99-.69,2.9-.51.91-1.19,1.73-2.05,2.46-.86.74-1.8,1.39-2.83,1.95-1.03.56-2.05,1.05-3.04,1.46-1.91.82-3.46,2.03-4.66,3.63-.48.68-1.09,1.19-1.84,1.52-.75.33-1.58.62-2.5.89-1.25.35-2.55.8-3.88,1.33-1.33.54-2.68,1.1-4.05,1.67-1.37.58-2.7,1.08-4,1.51-1.29.43-2.49.74-3.58.94-.67.11-1.32.19-1.96.25-.63.07-1.29.11-1.96.14-.68.03-1.46-.02-2.36-.17-.9-.14-1.75-.36-2.57-.65-.82-.29-1.51-.7-2.09-1.23-.58-.52-.88-1.12-.91-1.78-.05-1.03.34-1.85,1.16-2.48,1.71-1.47,3.35-2.56,4.93-3.26,1.58-.7,3.59-1.14,6.04-1.32,1.1-.05,2.25-.29,3.46-.71,1.21-.42,2.35-.99,3.41-1.7,1.07-.71,1.94-1.52,2.62-2.44.68-.91,1.03-1.92,1.07-3.03.06-.44.09-.87.07-1.27-.02-.4-.04-.83-.06-1.27-.06-1.25-.55-2.25-1.47-3.02-.92-.77-2.1-1.12-3.54-1.05-1.52.07-2.82.44-3.89,1.11-1.07.67-2.32,1.23-3.73,1.66l-.38.13c-.73.62-1.62,1.21-2.65,1.78-1.03.56-2.01,1.05-2.92,1.46-1,.41-1.99,1.32-2.99,2.73-1,1.41-1.9,2.94-2.71,4.59-.81,1.66-1.46,3.3-1.93,4.94-.48,1.64-.69,2.9-.65,3.78.02.44.08.88.19,1.32.1.44.17.87.19,1.31.02.51,0,.92-.07,1.22-.19-.36-.41-.53-.66-.52h-.13c.1.3.18.71.25,1.26.07.55.27.89.62,1.02,0,.15.05.22.14.21.08,0,.13-.02.12-.06,0-.04.04-.06.12-.06.26.21.44.44.54.69.09.25.23.49.41.7.92,1.58,1.93,2.91,3.04,4,1.11,1.09,2.61,2,4.51,2.72.69.19,1.48.47,2.39.83.9.36,1.85.73,2.84,1.08.99.36,1.95.65,2.9.86.94.22,1.71.31,2.3.28.93-.04,1.76-.3,2.5-.78,2.06-1.2,4.24-2.23,6.53-3.11,2.29-.88,4.51-1.88,6.66-3.01,1.32-.65,2.65-1.31,3.97-2,1.32-.68,2.69-1.24,4.11-1.68.42-.17.77-.29,1.06-.38.29-.09.65-.14,1.07-.16.01.29-.29.62-.91.98-.62.36-1,.73-1.16,1.1l5.48-2.46c.09.14.14.29.15.43ZM213.93,138.74c-.09,0-.13-.03-.13-.1l.13.1ZM213.93,138.74c.09.07.2.1.32.1.13,0,.19.07.2.21l-.52-.31ZM214.58,139.15c.17.14.35.2.52.2.17,0,.34.02.51.09l-1.03-.28ZM215.18,118.83l.03.66c.02.44.25.76.68.96-.18-.28-.26-.58-.23-.87.03-.29-.13-.55-.48-.75ZM215.89,120.45c-.16.3-.23.6-.21.89.01.29-.02.59-.09.89.15-.3.23-.6.21-.89-.01-.29.02-.59.09-.89ZM216.38,122.85v-.11s.13.1.13.1h-.13ZM216.58,124.5c.07-.37.06-.59-.03-.66-.09-.07-.14-.25-.15-.54l-.02-.44c.27.28.41.68.44,1.19l.02.44h-.25ZM219.22,129.45c0,.07-.02.11-.06.11-.04,0-.06.04-.06.11l.26.21-.15-.43ZM219.63,130.2c-.01-.22-.1-.33-.27-.32v.22c.02.15.1.22.27.21v-.11ZM238.09,136.75c-.26-.06-.54-.18-.84-.35-.31-.17-.58-.25-.84-.24-.25.01-.53.06-.82.15-.29.09-.57.14-.82.15-1.94.09-3.76-.29-5.45-1.13-1.69-.84-3.35-1.59-4.99-2.25-.26-.13-.65-.36-1.17-.66-.52-.31-1.02-.61-1.5-.92-.48-.31-.92-.58-1.31-.82-.39-.24-.63-.36-.71-.35.01.22.08.4.22.54.13.14.29.28.46.42.8.85,1.81,1.65,3.03,2.4,1.22.75,2.56,1.41,4.03,1.97,1.46.56,2.94.99,4.44,1.29,1.49.3,2.88.42,4.14.36.25-.01.65-.01,1.21,0,.55.01.86-.17.93-.54ZM228.61,140.49c0-.15-.05-.22-.14-.21-.08,0-.17-.03-.26-.1-.51.02-.75.22-.74.59,0,.22.18.32.52.31.42-.02.62-.21.61-.58ZM232.85,116.47c.08,0,.15.01.19.05.04.04.11.05.19.05.51-.02.84-.22.99-.6l-.14-.32-.51.02c-.42.02-.71.22-.86.59l.14.21ZM236.06,94.93l.38-.13-.14-.21h-.25s.01.34.01.34ZM243.63,96.57v-.11s-.13,0-.13,0l.13.1ZM252.31,94.74c-.08,0-.41-.07-.96-.23-.56-.16-1.18-.35-1.87-.58-.69-.23-1.33-.45-1.94-.68-.6-.23-.99-.38-1.16-.44,1.02.1,2.08.22,3.19.35,1.11.13,2.13.36,3.08.69.09.14.14.36.16.65,0,.15-.16.23-.5.24ZM257.09,96.51c0-.07.08-.11.25-.12l-.11.34-.14-.21ZM261.79,124.53l-.12.12v-.11s.12,0,.12,0ZM263.54,123.9c-.17.08-.41.22-.74.42-.33.2-.58.3-.75.31l-.26-.1c.41-.39.86-.59,1.37-.61l.38-.02ZM263.54,123.79l.13.1h-.13s0-.1,0-.1ZM266.31,126.09v.22c0-.07-.02-.11-.06-.11-.04,0-.06-.03-.07-.11v-.11s.13.1.13.1ZM266.33,126.42v-.11s-.13.12-.13.12h.13Z"/>
      </g>
      <path class="cls-1" d="M378.01,103.66c.76,3.58,1.73,7.21,1.07,10.83-.23,1.18-.49,2.34-.8,3.49-.31,1.15-.66,2.29-1.06,3.41-.51.99-1.05,1.98-1.6,2.95-1.66,2.92-3.47,5.79-5.23,8.73-.32.76-.55,1.52-.7,2.3-.78,3.86.21,7.89-.6,11.68-.65,2.44-2.27,3.84-4.63,4.34-1.03.44-2.07.8-3.13,1.12-6.33,1.9-13.02,2.24-17.82,7.52-.73.49-1.52.85-2.3,1.06-1.07.51-2.17.93-3.28,1.29-5.53,1.79-11.28,2.1-16.99-.17-.13-.05-.27-.1-.4-.14-7.28.57-14.05-.95-20.18-4.04-1.03,0-2.06.03-3.1.09-.95-.02-1.87-.12-2.77-.37-.87-.22-1.73-.6-2.56-1.16-.95-.6-1.81-1.32-2.64-2.07-4.08-3.85-7.56-8.65-11.75-12.36-.69-.76-1.32-1.55-1.88-2.39-1.66-2.47-2.74-5.38-2.87-9.01-.16-1.14-.28-2.29-.41-3.45-.07-.65-.14-1.31-.22-1.96-2.15-4.86-3.9-9.96-5.22-15.11-1.35-2.61-2.5-5.36-3.01-8.43-.17-1.04-.36-2.08-.56-3.12-.82-4.15-1.87-8.25-3.17-12.45-.33-.7,0-1.74.32-2.44.41-1.1.89-2.17,1.42-3.22,1.01-2.01,2.2-3.96,3.4-5.92.24-1.21.53-2.39.86-3.54,1.24-4.41,2.97-10.12,5.3-16.33-.02-.29-.04-.57-.06-.86-.32-3.79-1.07-7.59-2.14-11.37-.33-1.57.32-2.79,1.32-3.8,1-1.01,2.34-1.81,3.4-2.53.8-.46,1.62-.89,2.44-1.29,2.06-.99,4.16-1.87,6.11-2.98,5.4-8.56,12.22-16.28,20.8-21.15.45-.48.91-.96,1.36-1.45,3.25-3.14,7.15-6.29,11.76-6.35,1.01-.02,2.03.04,3.05.17,2.55.34,5.13,1.2,7.64,2.62,6.49.83,12.44,3.48,17.81,7.4,1.42.43,2.41,1.33,3.17,2.5,6.7,5.72,12.39,13.39,16.98,21.75.45.65.86,1.34,1.23,2.09.13.32.26.65.38.97,4.07,8.03,7.15,16.54,9.13,24.47.41.57.85,1.12,1.31,1.66.4.92.73,1.85,1.01,2.78,1.97,6.44,2.03,13.1.42,19.69.01,4.6-.13,9.52-.61,14.55Z"/>
      <path class="cls-3" d="M378.15,88.66c-.28,1.92-.93,3.67-.94,5.78-.01.94.05,1.87.17,2.81.6,4.68,2.56,9.47,1.69,14.24-.23,1.18-.49,2.34-.8,3.49-.31,1.15-.66,2.29-1.06,3.4-.51,1-1.04,1.98-1.59,2.96-1.66,2.92-3.47,5.79-5.23,8.73-.33.76-.55,1.52-.71,2.3-.78,3.87.22,7.89-.59,11.68-.65,2.45-2.28,3.84-4.63,4.35-1.02.43-2.07.79-3.13,1.11-6.33,1.9-13.02,2.24-17.82,7.52-.73.49-1.53.85-2.3,1.06-1.07.51-2.17.93-3.28,1.29-5.53,1.79-11.28,2.1-16.99-.17-.96-.35-1.92-.68-2.89-1-6.75-2.22-13.58-3.54-20.79-3.09-.95-.02-1.87-.12-2.77-.36-.87-.23-1.73-.6-2.57-1.17-.95-.6-1.8-1.31-2.63-2.07-4.08-3.85-7.56-8.65-11.76-12.36-.68-.76-1.31-1.55-1.87-2.38-1.67-2.47-2.75-5.39-2.87-9.02-.16-1.14-.29-2.29-.41-3.45-.49-4.62-.99-9.23-3.45-13.39-.53-.94-1.06-1.88-1.56-2.84-1.52-2.86-2.87-5.87-3.44-9.26-.17-1.04-.36-2.09-.57-3.12-.81-4.15-1.87-8.26-3.17-12.45-.33-.7,0-1.75.33-2.45.41-1.09.89-2.16,1.42-3.22,3.73-7.39,9.92-14.11,9.66-22.86,0-1.26-.06-2.52-.17-3.78-.31-3.79-1.07-7.6-2.14-11.37-.33-1.57.33-2.8,1.32-3.81s2.34-1.81,3.4-2.52c.8-.47,1.62-.89,2.44-1.29,4.14-2.01,8.48-3.5,11.27-7.49.73-.9,1.45-1.79,2.19-2.66,2.14-2.63,4.43-5.14,6.95-7.47.66-.64,1.32-1.28,1.98-1.92,1.97-1.94,3.92-3.94,5.87-6.04,3.25-3.14,7.15-6.29,11.76-6.36,1.01-.02,2.02.04,3.04.17,3.06.41,6.14,1.55,9.11,3.5.94.45,1.87.9,2.81,1.35,3.12,1.5,6.26,2.97,9.63,4.11.84.28,1.7.55,2.56.79,6.93.63,5.63,10.06,9.85,14.25,4.55,4.19,10.08,6.64,12.88,12.35.44,1.04.81,2.09,1.14,3.16.67,2.06,1.25,4.17,1.77,6.31.52,2.14.99,4.3,1.45,6.46.41,1.02.85,2.02,1.31,2.99,1.37,2.91,3.01,5.67,5.15,8.18.41.92.73,1.85,1.02,2.78,1.99,6.51,2.03,13.23.37,19.89-.14.8-.28,1.58-.42,2.35Z"/>
      <polygon class="cls-2" points="290.57 163.54 290.57 163.53 290.58 163.53 290.57 163.54"/>
      <path class="cls-3" d="M353.74,147.89c.16-.08.33-.15.5-.23l-.15-.16c-.1.15-.21.28-.34.39Z"/>
      <path class="cls-3" d="M339.33,153.54s.09-.03.14-.04c-.06.01-.12.02-.18.03h.04Z"/>
      <path class="cls-3" d="M350.74,149.43s.08-.04.12-.05c-.08-.01-.16-.02-.26-.04l.14.1Z"/>
      <path class="cls-3" d="M317.89,2.84c37.36-5.15,59.98,49.5,60.65,76.84s-.94,71.7-55.73,79.15c-41.13,5.59-66.59-55.34-56.61-90.71,5.28-18.71,19.17-60.79,51.68-65.27Z"/>
      <path class="cls-3" d="M295.48,60.66c-.38.04-.67.06-.94.37-.2.23-.34.46-.62.61-.4.21-.69.41-.98.78-.26.32-.48.66-.76.96-.12.12-.21.18-.35.3-.39.31-.75.68-1.08,1.07-.16.19-.28.39-.47.56-.49.42-1.08.68-1.55,1.14-.32.31-.34.7-.51,1.1-.48,1.11-1.01,2.1-1.09,3.32-.02.34.04.74-.02,1.07-.05.31-.11.63-.17.94-.07.34-.24.62-.34.94-.03.09-.01.17-.03.27-.02.08-.09.17-.1.26-.02.12.02.23,0,.35s-.06.26-.1.38c-.12.37-.2.73-.37,1.08-.13.27-.17.4-.13.68.05.36.08.73.07,1.1,0,.46-.12.89-.07,1.35.04.4.08.8.12,1.21.05.48.09.96.14,1.44.04.36.02.63-.01.99-.03.34-.07.69-.08,1.04,0,.2-.03.29-.1.46-.15.37-.3.86-.28,1.25.03.47.09.93.1,1.41,0,.67.03,1.34,0,2-.02.38.01.81-.05,1.2s-.35.62-.47.97l-.1.35c-.08.18-.17.36-.28.52-.04.1-.06.21-.09.32-.08.28-.24.56-.3.84-.12.53.18,1.23.33,1.7.3.9.62,1.8.86,2.72.09.34.15.68.28,1s.16.66.27.98c.19.55.48,1.05.73,1.57.3.61.61,1.23,1.02,1.78.27.36.54.85.89,1.13.4.31.78.62,1.22.9.32.21.56.34.88.5.2.1.09.06.22.19.11.12.46.11.59.13.27.05.21.07.39.19.15.09.28.03.47.05.12,0,.28.05.39.1.07.03.11.1.19.12.12.04.25-.04.37-.03.06,0,.15.04.21.06.3.05.59.13.88.22.09.03.25.09.36.1.04,0,.2-.03.23-.02.25.11.21.51.43.64.17.1.34.05.49.23.1.12.07.22.23.3.06.03.15.03.2.06.1.05.12.13.2.2.08.07.18.12.26.18.03.02.08,0,.11.03.09.07.1.23.23.28.08.03.15-.01.2.01.11.04.09.24.11.34.12.49.37.96.52,1.45.12.4.26.79.32,1.2.04.29.12.57.18.86.09.43.15.85.26,1.28.14.55.33,1.08.44,1.64.05.23.09.48.2.69.04.08.07.13.12.2.1.13.19.26.28.39.17.2.34.38.53.55.06.08.07.21.12.29.15.25.39.47.58.68.33.37.66.74,1.02,1.07.09.08.22.17.29.28.12.18.06.2.26.36.29.22.66.4.98.58.38.21.79.36,1.16.57.14.08.24.15.39.2.21.07.27.25.46.34.29.14.62.17.92.26.81.23,1.67.38,2.51.46.29.03.57.05.86.08.26.02.46-.03.72,0,.53.07,1.06.11,1.59.2.73.12,1.46.23,2.18.36.34.06.62.27.92.35.16.05.34,0,.51.04.21.05.32.1.48-.06.12-.12.25-.24.39-.34.21-.16.48-.25.64-.48.09-.12.15-.26.18-.41.02-.1,0-.13.05-.24.05-.13.09-.26.14-.38.13-.33.35-.54.35-.91.18-.04.32-.12.5-.13.19-.02.39-.03.58-.06.23-.03.33.03.5.19.21.2.33.32.65.19.11-.05.23-.1.33-.15.09-.05.16-.11.25-.16.16-.08.36-.15.53-.22.13-.05.39-.11.5-.22.05-.05.07-.13.12-.19.07-.09.19-.15.28-.21.18-.12.39-.16.57-.28.13-.08.27-.16.41-.24.13-.08.12-.09.17-.22.1-.21.17-.24.33-.38.07-.06.09-.16.15-.24.08-.11.21-.16.3-.25.14-.14.37-.37.4-.57s.05-.23.15-.39c.12-.22.09-.23.36-.25s.55-.11.83-.16c.49-.08.99-.06,1.48-.07.07-.18.36-.34.51-.46.23-.19.4-.35.55-.6.02-.04.07-.06.09-.1.05-.09.08-.2.14-.29.06-.08.17-.14.22-.23.06-.1.05-.22.14-.3.08-.08.22-.12.33-.15.25-.06.58-.21.74-.41.1-.12.05-.06.18-.12.08-.04.13-.11.21-.16s.21-.07.3-.11c.06-.03.12-.04.17-.07.06-.04.08-.09.14-.12.37-.15.85-.01,1.24-.05.53-.05,1.12-.04,1.55-.39.29-.25.8-.37,1.02-.67.07-.1.13-.22.2-.33.18-.31.31-.64.52-.92.09-.12.13-.24.21-.38.16-.27.4-.49.57-.75.15-.23.27-.53.34-.79.06-.25.11-.45.21-.69s.03-.48.14-.73c.08-.18.23-.46.36-.63.06-.08.14-.12.19-.21.04-.07.06-.14.11-.21.11-.15.29-.26.41-.4.08-.09.09-.14.2-.21.13-.07.14-.11.22-.25s.17-.17.3-.26.21-.21.31-.33c.21-.26.44-.48.7-.7.21-.17.37-.43.57-.62.3-.29.58-.61.9-.88,1.02-.86,1.99-1.81,2.74-2.92.3-.45.56-.94.88-1.38s.67-.89.98-1.36c.48-.74.8-1.54,1.21-2.31.36-.67.48-1.36.72-2.07.19-.55.47-1.04.69-1.57.18-.44.31-.91.44-1.37.25-.9.41-1.78.56-2.7.07-.44.19-.83.13-1.27-.04-.32-.07-.64-.1-.96-.12-1.23-.14-2.47-.66-3.62-.15-.33-.3-.69-.53-.98-.36-.43-.78-.88-1.23-1.21-.4-.29-.77-.57-1.14-.88-.45-.39-.98-.65-1.5-.95-1.13-.65-2.28-1.31-3.29-2.15-.62-.51-1.22-1.06-1.86-1.54-.83-.63-1.69-1.23-2.4-2-.21-.23-.42-.47-.63-.7-.19-.21-.45-.44-.59-.69-.21-.35-.34-.7-.62-1.01-.1-.11-.22-.21-.33-.3-.32-.28-.61-.61-.94-.87-.21-.17-.47-.26-.66-.45-.14-.14-.2-.22-.39-.28-.22-.07-.44-.1-.68-.09-.44.03-.88.14-1.32.24-.47.11-.93.2-1.35.43-.27.15-.57.22-.86.32-.32.1-.66.24-.99.28-.23.03-.47.04-.71.07-.46.05-.92.11-1.39.07-.19-.02-.38-.04-.58-.06-.42-.03-.83-.08-1.25-.13-.16.01-.3-.02-.44-.09.05-.23-.26-.45-.32-.66-.01-.1-.03-.2-.06-.3-.03-.02-.05-.05-.07-.09-.04-.15,0-.24.04-.38.04-.17.05-.29.03-.47-.04-.38-.03-.78-.17-1.13-.19-.49-.52-.99-.81-1.43s-.64-.82-.99-1.22c-.63-.7-1.22-1.43-1.95-2.04-.46-.38-.92-.79-1.32-1.24-.16-.18-.23-.24-.46-.32-.15-.06-.23-.11-.36-.21-.18-.14-.24-.14-.48-.19-.29-.06-.57-.18-.85-.28-.44-.15-.83-.23-1.29-.3-.88-.13-1.77-.32-2.66-.37-1.14-.06-2.3-.21-3.44-.17-.85.03-1.71-.03-2.56-.01-1.3.02-2.59.09-3.89.11-.75.01-1.53.09-2.27.2-.48.07-1,.23-1.46.37-.26.08-.42.18-.65.3-.17.08-.34.17-.51.26-.06.05-.12.11-.18.16-.18.11-.41.11-.58.25s-.18.3-.38.42c-.18.11-.21.09-.31.29-.06.13-.15.24-.21.37-.08.17-.04.34,0,.23Z"/>
      <path class="cls-2" d="M348.59,144.11c.07-1.28,1.28-2.3.1-3.74h-.9c-.42,1.08-.63,2.36-.44,3.51.13.79.65.86.77,1.42.36,1.61-.75,4.78-1.77,6.04-.24.3-.75.18-.97.55l.08.05c.36-.11.71-.23,1.06-.36,1.26-2.15,2.08-3.71,2.28-6.31.03-.31-.24-.73-.21-1.18Z"/>
      <path class="cls-2" d="M295.3,149.18c-2.17-3.7-4.31-7.24-4.7-11.63-.17-1.94.14-3.8.14-5.59,0-.45-.47-.2-.54-.68-.6-3.91-1.06-13.33-.58-17.11.05-.39.37-.73.4-1.28.07-1-.48-1.98-.32-3.02.95.25.95,2.5,1.06,2.61.14.15,1.45-.03,1.69,1.09.17.78-.66.61-.84,1.32-.12.46.26,1,.19,1.53-.03.17-.41.2-.56.48-.37.76-.9,2.14.48,1.42l.34.34c-.09.72-.02,4.2.48,4.19.73-.11-.22-4.98.98-4.13.07,2.11,2.09,2.84,2.95,4.46,1.52,2.86,1.68,6.32,1.36,9.5-.15,1.53-1.19,3.89-.71,5.13.12.3.64.03.94.54.53.92-.06,1.87.14,2.57.18.58,1.28.93,1.45,1.71.42,1.93.06,3.76.9,6.01.6,1.62,1.79,3.11,2.52,4.67l-6.77-3.39c5.85,4.16,12.75,6.1,19.89,6.58-1.68-.24-3.36-.51-5.07-.72.53-1.07-.37-2.14-.53-3.28-.2-1.31.2-2.51-.61-3.71-1.44.01-.57,2.49-.27,3.4.18.53.67.92.82,1.37.15.47.53,2.24-.12,2.1-2.13-.45-4.18-1.16-6.11-2.25-1.13-2.01-2.62-3.32-2.98-5.74-.27-1.84.43-4.4-.21-6.03-.48-1.21-2.44-2.02-2.73-3.58-.3-1.56.39-3.28.37-4.83-.05-2.33-.21-7.13-.66-9.25-.27-1.27-.77-3.35-2.03-3.73l.09-4c.5-.1.95.16,1.23.56.08.13.87,1.7.9,1.8.26.85.23,1.31.66,2.51.57,1.63.18,2.14.36,3.34.1.71,1.09,1.43,1.15,1.75.06.32-.28.76-.15,1.15.11.31.66.29.73.54.3,1.03.03,3.94.11,5.28.05.8.56,2.03.54,2.66-.02.36-.39.58-.39.92.01.63.87,1.82.99,2.67.45,3.02-.23,6.92.22,9.93.08.49.92,2.47,1.29,1.43.35-.98-.59-5.54-.7-7.01-.1-1.37.25-3.42.08-4.56-.13-.92-.78-2.14-.92-3.24-.16-1.28.08-5.35.42-6.56.15-.54.62-1.3,1.25-1.28l.07,2.74.5.27c.04.22-.35.06-.42.17-.2.32.08,7.2.36,7.45l.72-.02c.26-3.21-.59-6.48-.23-9.67l-.73-.11c.71-.86.06-2.28.54-3.02.34-.51,2.82-1.36,3.23-1.05-.66.57.57,3.64,1.27,2.86.09-1.85.07-2.89-1.31-4.2-.06-.17.19-.16.37-.13.2.03,3.25,1.97,3.54,2.23.97.82-.03,1.89-.14,2.91-.31,2.86.61,6.09.7,8.91.04,1.26-.72,6.27.52,6.88.48.11.53-.59.56-.88.43-3.91-1.31-9.58-1.05-13.74.1-1.58,1.05-3.11.62-4.72.56.04,1.9-.28,2.18.31.27.54-1.06.34-1.13.99-.07.78.86.57,1.38.61.43.25.03,3.8.39,4.56l.98-.18c.57-1.11.29-2.21.41-3.34.09-.84.47-2.49,1.17-1.04.33.67.56,5.52.64,6.76.06,1.04-.05,6.59.4,6.9,1.37-.26.67-1.73.65-2.54-.07-3.32-.18-6.62-.22-9.93-.01-1.11-.37-1.34.42-2.54l.75.34c.27.19-.01.41-.01.48.03,1.13-.09,2.85.1,3.87.07.43.54.85.96.57.63-.41-.13-3.02-.07-3.71.12-1.32,4.52-6.06,5.88-6.46,1.28-.39,1.89.31,2.8.27.86-.05,1.38-1.12,2.39-.79.98.34.57.77.86,1.09.63.7,2.53,2.11,2.84,2.73,1.02,1.97.55,7.16.6,9.52.07,3.23.36,6.71.25,9.91-.06,1.52-.69,3.12-.37,4.73l-.74-1.63c.45,2.75.76,5.2.18,8l-.58.2c.62-.14,1.24-.29,1.85-.44-.16-1.11-.19-2.32-.15-3.38.23-6.35,1.26-12.7.5-19.12l.71-.95c-.35-3.89.1-7.98,0-11.88-.04-1.02-.79-1.41-.47-2.53.38-1.32,1.35-1.34,2.51-1.75.07.65-.21,1.46.41,1.92.62-.68-.35-1.5,1.04-1.71l-.65-.83.72-1.34c.57.74.97,1.7.91,2.64l1.28-.7c.88,0,1.73,2.43,2.12,3.23.18.33.1.79.22,1.02.24.41.77.59,1.03,1.13.43.89.01,1.96.11,2.82.06.46-.04.41.51.36l.35-5.08-.57.98c-.2-.5-.85-.76-1.08-1.09-.37-.54-2.55-4.65-2.66-5.15-.18-.85.54-3.52.46-4.56.58.06.17,1.21.98.94l.57-2.7,1.32.24.04,1.69.47-.26c.26.62-.42.41-.47.65-.37,1.76.18,4.26.27,6.02.02.51-.46,1.56-.06,2.29l.72-.43v-9.51s1.61,1.41,1.61,1.41c.31-.69-.97-1.08-1.12-1.66,1.48.4,1.19,1.97,3.17,1.36.52-.54-1.66-1.59-1.86-2.12-.12-.32.25-.79-.02-1.23-.22-.34-1.16-.35-1.34-.84-.3-.84.66-1.29.65-1.43-.01-.06-.53-.47-.68-.77-.18-.35-1.02-2.29-.84-2.46l4.11.14c.18-.79-1.09-.41-1.72-.55-.36-.08-.72-.18-.96-.48.18-.67,1.04-1.52,1.75-1.38.44.08.31,1.95,1.15,1.68l-.03-1.45.97-.03c-.35-.53-.75-.09-1.16-.88-2.13-4.08,1.61-2.59,3.85-2.55,1.99.03,4.31-.03,6.3-.17.29-.02.9.16.83-.26l-4.59.12c-.1-.1.36-.86-.9-.94-1.63-.1-2.49,1.14-4.02.27-1.5-.85-1.13-2.75.34-2.61.57.06,3.84,2.04,4.05,1.84-.11-.72-1.05-1.37-1.72-1.17l.47-.38-.62-.59-2.32-1.03c.55-.64,1.36-.26,2.1-.6.57-.25.6-.79.83-.97,1.07-.83,2.35-1.49,3.76-1.37l-.24-.7.46-.27-2.39.03-.35-1.38-.49-.03-.2-.59c.21-.55,3.17-.36,3.85-.58-.66-.81-1.51.35-2.07-.55l-.26.5c-.91.29-.81-.43-1.09-.57-.49-.26-2.01-.55-2.2-.67-.24-.14-.3-1.18-.74-1.7-.78-.91-1.56-.11-1.41-2.08.18-2.28,1.77-2.4,3.55-3.41l9.97-2.89c-1.22-.09-2.42.57-3.55.74-1.82.29-4.36.27-6.2.71-1.73.41-1.67.68-3.82.89-4.39.42-3.67-.67-6.95-1.27-.86-.16-1.83.09-2.5-.09-.76-.2-.96-1.58-2.13-.87-.41-1.22.24-2.11.64-3.16-.84.22-1.49,1.02-2.37,1.16-1.87.3-2.62-1.41-3.83-2.45-.78-.67-1.61-.5-1.63-1.77-.02-1.24.07-2.43-.06-3.64-.07-.6-1.63-.84-.8-2.52-.8.39-.57,1.7-.89,2.28-.11.2-2.88,2.85-3.32,3.27-1.12,1.05-2.45,1.91-3.44,3.1l-.33-.04c0-.69-.42-.13-.75-.29-1.04-.48-.1-1.22-.16-1.58-.11-.62-2.42-3.34-3.01-4.05-1.29-1.52-1.16-1.78-2.01-3.06-.5-.74-1.9-1.85-2.6-2.5,1.1-.42,1.15-1.53.91-2.55-1.89.47-2.1,2.6-4.42,2.77-.97.07-.36-.3-.76-.73-1.31-1.37-3.88-.01-4.58-.85-.52-.62-.34-1.7-.95-2.48-.41-.51-1-.58-1.35-.93-1.3-1.27-.94-5.01-.77-6.74l-.7-.63c-.06.66.13,1.43.07,2.07-.04.45-.44.33-.49.52-.31,1.58.37,3.39-.75,4.92-.12.16-1.4,1.58-1.5,1.62-.52.26-2.28.57-2.82.85-.8.41-1.76,1.35-2.58,1.81l-.84-.45-.13.49-.7-.25c-.35,1.05-.84.49-1.05.59-.05.03-.03.38-.2.42-.45.11-2.52-.49-3.06-.72-.55-.24-2.55-2.03-2.38-.85l.98.7c-1.31-.14-3.07-1.47-4.22-2.31-.23-.16-1.2-1.61-1.66-1.17-.18.16.92,1.32.99,1.56.78.72,2.24,1.16,2.96,1.85.38.36,1.8,3.17,1.73,3.52-.03.21-.83,1.82-1,1.91l-.85-.47c.3,1.52-1.31,1.96-1.7,2.78-.2.41.05,1.65-.42,2.05-.24.21-.9.15-1.2.33-.35.2-.43,1.04-1.13,1l.99.58c0,.37-1.01,1.78-1.29,2.08-.27.27-.79.19-.85.4-.23.88.94,1.57.4,2.46-.19.44-1.56.75-1.91,1.14-.38.41-1.11,4.16-1.16,4.92-.05.97.26,1.79.25,2.59,0,.82-.01,3.61-.21,4.06-.03.07-.82,1.14-.88,1.18-.28.17-.83,0-1.03.31-.14.24-.02.67-.15.92-.06.1-1.55,1.44-1.71,1.56-.97.7-2.64.42-2.72,1.9-.16,2.48,2.62,5.59,4.19,2.44h.28c1.37.25,1.9,1.39,3.05,2.02.61.35,3.27,1.17,3.5,1.6.21.36.26,1.69.38,2.17,0,.04.36.04.4.21.19.84.2,2.08.31,2.97l-.49-.47c-.29,1.23,1.34,2.9,1.5,3.76.15.81-.54,4.27-.56,5.52-.04,1.82.07,3.66.38,5.44.39.07.5-.11.69-.4.86-1.39-.42-6.49.12-8.38.07-.23.53-.77.65-.68.49.81.1,1.65.15,2.33.41,5.51,1.7,10.94,1.29,16.62l1.25,11.57-.48.26c-.45-.29-.34-1.45-.98-.94l1.13,2.03.59-.5c-.3,3.38,1.91,6.02,2.87,9.06.67.61,1.34,1.2,2.04,1.74ZM295.48,119.4c-1.3.11-1.5-3.15-.9-3.35,1.7-.58.75,2.44.9,3.35ZM295.29,108.57l-1.55-1.23.97.22.1-.49c.74,1.13,2.09,1.16,2.84,2.11l-2.36-.61ZM330.66,114.07l3.12-.92c-.3,1.62-1.92,2.3-3.12.92ZM338.14,122.95c-1.12-.42-.42-1.29-.55-2.26-.18-1.38-1.55-2.23.04-3.77,1.08,1.83.52,4.03.51,6.03ZM338.55,110.24c-.58.27-.81.84-1.43.88.12-1.87,2.43-1.31,3.45-2.5l.1.93c-.07.12-1.71.5-2.12.69ZM342.54,105.44c-.42.15-.09-.77-.5-.36h0c-1.12,1.16-1.07,3.12-2.57,3.57.41-.69,1.12-1.73.3-2.42-.24.3-1.39,2.06-1.77,1.73-.06-.97,4.58-5.1,4.96-4.71l-.43,2.19ZM344.17,112.4c-.6-1.69-1.05-2.57-.52-4.39.08-.25.04-.73.39-.69.1,1.4,0,2.83.1,4.23.02.15.61.83.02.85ZM344.71,103.9l.18-1.43c.98-.69,2.89,2.96-.18,1.43ZM345.7,100.98c.06-.3.45-.83.76-.93.2-.06.44-.09.64-.04.37.12,1.34,3,1.41,3.53.25,2.22-3.04-1.36-2.81-2.57ZM294.25,58.97c.41.37-2.82,2.83-3.19,3.22-.91.97-1.55,2.26-2.46,3.21.83-2.98,2.56-5.52,5.65-6.43ZM284.77,86.78c.22-.96-.76-2.21-.69-3.01.02-.2.31-.44.34-.74.1-.99-.27-1.92.67-2.67l-.73-.11v-.47c.91-.07.3-2.23.48-3.18.07-.43.31-.34.4-.23.46,2.47-.13,4.89-.06,7.38.02.52.3,1.02.3,1.45,0,.3-.37,1.41-.7,1.58ZM285.89,93.41l.73-.4.5.94-.79-2.76.49.11c-.62-1.61-.13-3.03.13-4.61l-.47.26-.28-.8c.62-.31.65-.84.7-1.51.24-3.46-.72-6.71.31-10.09.18-.59.78-2.27,1-2.82.15-.4.75-.48.79-.69.05-.34-.84-.54.19-1.93.39-.52,1.02-.77,1.29-1.13,1.42-1.86,1.07-2.16,3.16-4.07.4-.36,2.32-2.25,2.51-2.34.1-.05.4-.07.36.11l-1.18,1.25c-.45,1.11,1.82-.86,1.98-.95,1.07-.6,5.19-2.11,6.31-2.21,1.39-.13,3.35.37,4.81.31l.59-.76.05.94,1.31.24-.37-.47,1.21.21-.56.47-.15.51,1.21.34-.49-.59c1.8-.07,2.47,1.17,3.22,2.56l.7-.24c-.05,1.03.86,1.27,1.65,1.61.32.15,2.02.98,1.29.01l.97.09c-.29-.66-1.38-.64-1.66-.86-.25-.2-.26-.84-.33-.9-.03-.02-.42.28-.71.15-.33-.16-.54-.81-.88-1.08-.64-.51-1.45-.76-2.09-1.28.84-.72,2.88,1.83,3.18,1.49l-.65-1.68c1.27.83,1.27,2.24,2.26,3.09l.22-.49c.79,1.23,2.18.75,3.19,1.61,1.58,1.36,2.09,4.51,2.57,6.47l.37.23-.27-1.2c1.5-.35,1.52,3.32,1.92,3.6,1.24.42,2.12-.69,3.49-.11-.61-1.48,2.57-.8,2.88-1.04l-.51-.95.72-.26-1.23-.7,1.19-.06v-.52c.3-.78.83.75,1.24.88l-.48.25c.27.39.64.08.97.44.27.28,1.62,2.55,1.87,3.03,1.18,2.28,2,5.01,2.99,7.4.98-.41-.17-1.53-.42-2.18-.25-.68-.44-1.45-.66-2.15.32.11.68.44.85.73.4.66.82,2.02,1.18,2.66.13.25.48.31.73.42l-.84-2.73-.7-.62c.89.16.14-.87.7-.99,1.01,2.09,2.09,4.18,2.57,6.46l-.42.07,1.51,4.5c.41.05.25-.6.22-.86-.05-.62-.69-3.48-.32-3.71h.91s1.32,2.83,1.32,2.83c.43.05.23-.56.16-.8-.09-.3-.78-1.78-.71-1.85l.48-.02c.62,1.56,1.16,3.23.23,4.83-.42.72-.99-.15-.83.97l-.69.16c.57.85-.23,1.22-.19,2.06l.23-.49.46.34c-.78,1.34-.91,4.15-1.91,5.28-.19.22-.6.02-.72.23-.06.09-.36,1.78-.5,2.12-.41.99-2.2,4.88-2.94,5.23l-.38-.71c.19,2.56-2.43,2.85-2.54,4.9-1.63-.97-3.08,3.86-3.43,3.94l-1.33-.68-.71.73.46-.73c-.35-.26-1.07.87-1.43,1.1-.51.35-3.01,1.37-2.9.47h-.46s-.6.74-.6.74l-.37-.47c-.82,1.27-1.17,3.88-2.16,4.9-.33.34-.61.33-.9.51-.53.34-.12.65-1.4,0l.16.72c1.35.16,1.79-.35,2.74-1.15l1.41-1.61c.2,1.93-1,2.34-2.07,3.34-.54.49-.67,1.36-1.65,1.48-.72.1-2.11-1.6-2.97-1.87.56-.29,1.73.93,2.18.07-1.27-.15-2.03-1.24-3.41-.88l.73.46-3.61.82,3.34-2.02-.86-.7c-.43,1.61-2.14,1.75-3.36,2.71l-.94-.43.14.48c-.44.11-.69-.32-1.09-.35-.54-.04-1.31.43-1.92.41-1.99-.04-5.3-2.56-6.64-3.94-.28-.29-.8-.04-.63-.7l.72-.14c-.46-.99-1.96-1.06-1.75-2.11.03-.15.4-.16.41-.21.04-.18-.16-.46-.07-.67.39-.89.82-1.39,1.47-2.09l-1.21-2.15.43-.17-.2-.44.61.14.34-.64c-1.5-.14-2.26,1.05-3.72.56-.24.03-.09,1.21-.84,1-.27-1.43-2.36-2.26-3.43-3.21-2.62-2.3-7.08-6.7-8.32-9.86-.41-1.04-.52-2.15-.99-3.17Z"/>
      <path class="cls-2" d="M290.96,92.67l.62-3.07.5-.34c2.71,6.12,4.67,11.35,11.24,14.1,6.78,2.84,12.38,3.21,18.67-1.09,2.84-1.95,7.3-6.86,8.5-10.08.48-1.29.51-5.75,2.41-4.52.74.48.89,1.3,1.5,1.76-.55-2.32-2.26-5-4.89-5.15-.25-.01-1.43.4-1.5.48-.56.62.72.29.91.36.55.21,2.33,1.13,2.51,1.62v.33c-.86.37-1.13,1.9-1.66,2.79-2.12,3.56-6.28,8.44-10.23,9.86-2.18.78-4.82,1.12-7.1,1.62.05.53.09,3.56-.76,3.4-.45-.08-1.98-3.56-2.16-4.18-6.6-1.49-12.1-4.71-15.69-10.53-.26-.42-1.12-1.86-1.2-2.2-.21-.97,1.2-1.11,1.43-1.5.44-.72-.49-1.22-1.18-1.14-2.27.25-3.08,3.41-2.71,5.34l.47-.26.31,2.42Z"/>
      <g>
        <path class="cls-2" d="M316.43,69.12c-1.49.38-2.16,3.62-2.23,4.95-.13,2.34-.04,10.8,3.54,10.7,3.56-.1,3.52-7.51,3.25-9.89-.28-2.58-1.23-6.61-4.56-5.76Z"/>
        <path class="cls-2" d="M316.22,72.22c-1.04.34-.9-1.24-.63-1.44.77-.55,1.47,1.17.63,1.44Z"/>
      </g>
      <path class="cls-2" d="M304.29,71.6c-.76-2.02-2.47-2.69-4.11-1.07-2.26,2.19-2.91,10.37-.85,12.75,1.05,1.21,2.92.8,3.94-.25,2.05-2.03,2-8.83,1.02-11.43ZM301.74,83.22c-.87-.16.54-1.26.67-1.49.73-1.27,1.07-2.91,1.24-4.37l.26.72.47-.26c.22,1.32-.85,5.7-2.64,5.4Z"/>
      <g>
        <path class="cls-3" d="M64.25,31.03c-1.1-.05-2.2.05-3.31.29-1.11.25-2.12.6-3.02,1.06-.9.46-1.64,1.02-2.22,1.69-.58.67-.89,1.41-.93,2.21-.04.85.24,1.52.84,2.03.6.5,1.4.94,2.41,1.31,1.01.37,2.15.75,3.41,1.14,1.26.39,2.52.87,3.78,1.45,1.25.58,2.45,1.32,3.58,2.19,1.13.88,2.07,2.01,2.81,3.39.27.46.39.99.36,1.59-.01.25-.04.47-.09.67-.05.2-.08.42-.09.67-.05,1-.35,1.93-.9,2.81-.56.87-1.22,1.72-1.99,2.53-.77.81-1.6,1.6-2.48,2.36-.88.76-1.67,1.52-2.36,2.29-.39.38-.81.82-1.27,1.33-.46.5-.98.99-1.55,1.46-.57.47-1.18.87-1.82,1.19-.64.32-1.36.51-2.17.57l-8.27.51c-.17.54-.4,1.13-.69,1.77-.29.64-.68,1.22-1.18,1.74-.5.53-1.11.95-1.82,1.26-.71.32-1.58.45-2.6.4-1.46-.07-2.72-.32-3.76-.74-1.04-.42-1.95-1.1-2.71-2.04-.9-1.19-1.88-2.43-2.96-3.7-1.08-1.28-2.06-2.58-2.95-3.93-.89-1.34-1.63-2.7-2.23-4.08s-.86-2.74-.79-4.09c.02-.35.09-.73.22-1.15.13-.42.35-.81.66-1.17.31-.36.67-.65,1.09-.89.41-.23.95-.33,1.61-.3.73.03,1.63.34,2.7.92,1.07.58,2.27,1.3,3.58,2.16,1.31.86,2.7,1.79,4.16,2.78,1.45.99,2.93,1.93,4.43,2.8,1.5.87,3.02,1.61,4.57,2.2,1.55.6,3.02.93,4.41,1,1.24.06,2.35-.18,3.33-.7.98-.53,1.8-1.19,2.46-1.98.66-.79,1.18-1.65,1.55-2.59.37-.93.58-1.75.61-2.45.15-3.09-.35-5.43-1.48-7-1.13-1.58-2.6-2.75-4.4-3.51-1.8-.76-3.73-1.29-5.81-1.59-2.08-.3-4.02-.75-5.82-1.36-1.8-.61-3.28-1.54-4.43-2.8-1.15-1.25-1.66-3.2-1.54-5.85.09-1.89.85-3.58,2.27-5.06,1.43-1.48,3.23-2.72,5.4-3.72,2.17-1,4.59-1.73,7.25-2.2,2.66-.47,5.27-.65,7.83-.53,1.68.08,3.56.26,5.64.53,2.08.27,4.02.7,5.82,1.29,1.8.59,3.31,1.37,4.51,2.35,1.2.98,1.76,2.25,1.69,3.79-.08,1.7-1.07,2.87-2.97,3.53-1.9.66-3.95.94-6.14.83-1.03-.05-2.06-.16-3.12-.34-1.05-.17-2.09-.29-3.12-.34ZM32.07,50.94c.29.11.56.24.81.38.25.14.56.21.92.23-.05-.4-.32-.7-.78-.9-.47-.2-.88-.4-1.24-.62l-.24.36.52.55ZM34.01,51.78l-.21-.16.09.38.12-.22ZM42.44,29.39l-.11-.08-.23.21.21.16.12-.29ZM44.34,58.8l1.21-.02-.66-.03c-.29-.01-.48,0-.55.05l.02-.45-.02.45ZM45.55,58.93c0,.15.08.27.26.35.18.08.34.18.48.29l-.2-.38-.53-.4v.15ZM46.94,59.74h.22s-.54-.24-.54-.24l-.33.06.65.18ZM53.66,61.64c.36.02.66-.04.89-.18-1.23-.26-2.45-.52-3.65-.77-1.2-.26-2.41-.56-3.64-.92l.1.3c1,.45,2.01.81,3.03,1.08,1.01.27,2.1.44,3.28.49ZM57.11,40.06c.36.17.93.42,1.72.76.79.34,1.62.7,2.48,1.09.86.39,1.65.74,2.37,1.05.72.31,1.19.47,1.41.48,0-.2-.31-.48-.95-.83-.64-.36-1.36-.7-2.15-1.04-.79-.34-1.58-.65-2.37-.94-.79-.29-1.33-.49-1.62-.6l-.88.03ZM65.09,43.44l.31.31.33.02-.21-.23-.44-.1ZM73.99,22.65c-1.07-.7-2.27-1.15-3.62-1.33-1.35-.19-2.71-.37-4.1-.53l7.17,1.92.55-.05Z"/>
        <path class="cls-3" d="M95.01,36.17c1.54.07,3.08.36,4.63.86,1.55.5,3.1,1.06,4.65,1.68,1.55.62,3.09,1.25,4.64,1.87,1.55.62,3.08,1.1,4.61,1.42,1.45.32,2.86.74,4.23,1.25,1.37.51,2.32,1.31,2.86,2.38.4.82.73,1.53,1,2.15.26.61.44,1.2.52,1.75.08.55.13,1.13.14,1.73,0,.6,0,1.3-.04,2.1-.29,1.44-.49,2.89-.59,4.36-.11,1.47-.27,2.92-.48,4.36-.13,1.14-.37,2.31-.72,3.49-.35,1.18-.86,2.31-1.54,3.38-.67,1.07-1.56,2.05-2.67,2.95-1.11.9-2.48,1.61-4.12,2.13-.3.14-.67.19-1.11.17-.44-.02-.85-.23-1.24-.62-.38-.39-.71-.85-.98-1.36-.27-.51-.47-1.02-.59-1.53-.12-.5-.18-.88-.17-1.13.08-1.6.28-3.12.6-4.58.33-1.46.86-2.97,1.59-4.53.17-.39.35-.78.55-1.17.2-.39.31-.81.33-1.26.05-1.05-.33-1.98-1.13-2.79-.8-.81-1.84-1.5-3.09-2.06-1.26-.56-2.63-.99-4.12-1.28-1.49-.3-2.89-.47-4.21-.54-2.78-.13-4.92.05-6.4.56-1.49.5-2.62,1.21-3.4,2.12-.78.91-1.3,1.98-1.58,3.19-.28,1.21-.58,2.47-.9,3.78-.32,1.31-.8,2.6-1.45,3.87-.65,1.27-1.69,2.42-3.13,3.45-.38.23-.79.45-1.24.65s-.97.29-1.55.26c-.88-.04-1.6-.29-2.16-.74-.57-.45-1-.98-1.3-1.6s-.51-1.25-.62-1.9c-.12-.65-.16-1.21-.14-1.66.06-1.35.62-2.68,1.68-4.01,1.05-1.32,2.18-2.68,3.38-4.07,1.2-1.39,2.33-2.85,3.4-4.37s1.63-3.13,1.71-4.83c.05-1,.25-2.09.6-3.27.35-1.18.93-2.28,1.75-3.29.82-1.01,1.86-1.83,3.14-2.47,1.28-.64,2.83-.92,4.66-.83ZM79.26,66.68l-.22-.09-.11.07.1.15.23-.14ZM82.3,56.03c.22.01.33-.05.34-.17,0-.12.08-.23.24-.33h-.11c-.15-.01-.24.05-.28.17-.04.12-.1.23-.18.33ZM83.36,54.58c-.3.14-.45.3-.46.5,0,.1,0,.16.05.19.04.03.05.09.05.19.23-.29.36-.58.37-.88ZM83.47,54.51c.07,0,.11-.04.12-.14l-.11-.08v.22ZM113.23,43.93c-.13-.31-.32-.51-.57-.63-.25-.11-.56-.23-.92-.34-4.41-1.36-8.62-2.98-12.63-4.87-1.22-.56-2.42-.86-3.58-.92-.37-.02-.83.01-1.38.08-.55.07-1.07.19-1.56.34-.48.15-.9.35-1.24.58-.34.23-.52.5-.53.8,0,.1.08.23.26.39.17.16.34.24.48.25.58.03,1.18-.09,1.78-.37.6-.27,1.41-.38,2.43-.33,1.32.06,2.73.31,4.25.73,1.52.42,3.04.89,4.55,1.42,1.51.52,3.01,1.06,4.49,1.6,1.48.55,2.87.97,4.17,1.29ZM106.4,48.78c0-.15-.12-.25-.37-.32-.25-.06-.45-.12-.6-.18l-.56.2c-.01.25.05.4.2.46.14.06.44.1.87.12l.45-.28ZM111.31,72.55c.3-.08.45-.18.45-.28l-.44-.1-.23.21.21.16Z"/>
        <path class="cls-3" d="M163.32,40.32c1.61.08,2.99.66,4.15,1.73,1.16,1.08,2.09,2.34,2.79,3.77.7,1.43,1.22,2.88,1.55,4.35.33,1.47.48,2.62.44,3.47-.04.95-.22,1.88-.52,2.79-.3.91-.64,1.82-1.01,2.73-.37.91-.73,1.81-1.06,2.72-.34.91-.53,1.84-.57,2.78-.03.6.07,1.18.3,1.74.23.56.33,1.12.31,1.66-.04.75-.34,1.46-.93,2.13-.58.67-1.04,1.35-1.36,2.03-.09.3-.29.69-.61,1.17-.32.49-.69.94-1.11,1.37-.42.43-.88.81-1.37,1.13-.49.33-.99.48-1.51.45-.73-.04-1.16-.38-1.27-1.03-.12-.65-.28-1.39-.5-2.2-.22-.81-.66-1.56-1.32-2.24-.67-.68-1.87-1.06-3.63-1.15-1.61-.08-3.3-.02-5.07.17-1.77.19-3.52.42-5.26.69-1.74.27-3.45.5-5.15.69-1.7.19-3.35.25-4.96.18-.51-.02-1.11-.1-1.8-.24-.69-.13-1.32-.3-1.9-.5-.58-.2-1.08-.48-1.5-.82-.42-.34-.62-.74-.6-1.19.04-.9.54-1.72,1.49-2.48.95-.75,2.08-1.44,3.4-2.05,1.31-.61,2.68-1.16,4.09-1.64,1.41-.48,2.61-.93,3.58-1.33l1.01-.4.66.11c.07.05.1.18.09.38,0,.15-.14.29-.41.43-.27.14-.55.29-.85.45-.3.16-.59.35-.85.56-.27.21-.41.47-.42.77s.28.7.88,1.2c.6.5,1.31.99,2.13,1.45.82.46,1.68.88,2.58,1.25.9.37,1.6.56,2.12.59l.88.04c1.54.07,2.9,0,4.08-.22,1.18-.22,1.81-1,1.87-2.35.02-.45-.06-.94-.26-1.47-.19-.53-.5-1.04-.92-1.51-.42-.47-.93-.87-1.54-1.2-.61-.33-1.28-.51-2.01-.54-1.03-.05-2,.03-2.93.24-.93.21-1.87.29-2.82.24-.59-.03-.87-.24-.85-.64,0-.2.2-.38.57-.53.37-.16.77-.31,1.18-.47.41-.15.8-.34,1.18-.54.38-.21.57-.48.59-.83.02-.5-.11-1.04-.42-1.63-.3-.59-.73-1.13-1.3-1.64-.56-.5-1.2-.92-1.92-1.25-.72-.33-1.48-.52-2.28-.56-.37-.02-.73,0-1.1.06-.37.06-.74.08-1.1.06-1.03-.05-1.99-.22-2.89-.51-.9-.29-1.33-.86-1.29-1.71.02-.5.23-.94.61-1.32,1.31-1.29,2.98-2.52,5.01-3.7,2.04-1.18,4.26-2.21,6.69-3.09,2.42-.88,4.91-1.57,7.46-2.04,2.55-.48,5.03-.66,7.45-.55ZM140.57,65.4c.36.12.7.26,1.02.42.32.17.66.28,1.03.35-.14-.11-.32-.29-.52-.55-.21-.26-.31-.44-.3-.54,0-.1.08-.2.23-.29l-.33-.09c-.3.09-.48.13-.56.12-.07,0-.22-.08-.43-.25l-.33.06c-.08.05-.12.17-.13.37l.31.39ZM141.01,67.74l-.23.21.22.08h.22s-.21-.3-.21-.3ZM149.34,68.44c-.14-.11-.32-.17-.54-.18l-.44.05.1.15.77.04.11-.07ZM150.84,69.11l-.22-.09-.22.06.22.08.22-.06ZM158.3,67.29v-.07s-.22-.01-.22-.01l.11.08h.11ZM158.58,63.63v-.15s-.22.14-.22.14h.22ZM166.77,44.15c-.28-.26-.54-.58-.78-.94-.24-.36-.28-.69-.12-.98-.15-.06-.24-.05-.28.02-.04.07-.13.11-.28.1-.15,0-.31-.09-.48-.25-.18-.16-.34-.24-.48-.25-.23.14-.38.32-.47.54-.08.22-.17.43-.25.62l.21.23c.43.12.86.32,1.29.59.43.27.82.41,1.19.43l.45-.13ZM164.71,68.87c0-.2-.1-.3-.31-.31l-.23.21.21.31.33-.06v-.15ZM166.79,78.26c.15,0,.37.02.66.03.29.01.44.1.43.25-.01.25-.14.6-.38,1.07-.24.46-.58.68-1.02.66-.44-.02-.89-.22-1.35-.59-.46-.37-.68-.71-.67-1.01,0-.1.05-.21.13-.33.08-.12.16-.23.24-.33l.45-.2c.15,0,.24,0,.28-.02.04-.02.13-.03.28-.02.22.01.55.08.98.2-.08.05-.13.11-.17.18-.04.07.01.11.16.12Z"/>
        <path class="cls-3" d="M219.9,41.28c2.34.11,4.31.69,5.91,1.74,1.6,1.05,2.36,2.37,2.29,3.97v.3c-.11.4-.55.77-1.33,1.14-.79.36-1.72.69-2.8.99-1.08.3-2.13.54-3.17.71-1.04.18-1.85.3-2.44.37-3.09.25-5.77.7-8.04,1.34-2.27.64-4.3,1.46-6.11,2.45-1.81.99-3.48,2.15-5,3.47-1.53,1.33-3.14,2.82-4.83,4.49-.61.57-1.16,1.17-1.62,1.8-.47.63-.72,1.29-.75,1.99-.04.95.25,1.79.87,2.52.62.73,1.46,1.34,2.5,1.84,1.04.5,2.17.9,3.41,1.21,1.23.31,2.43.52,3.6.62,1.46.12,2.9.28,4.32.47,1.42.19,2.82.32,4.21.39.22.01.59.02,1.1.01.51,0,1.04.02,1.59.08.55.05,1,.15,1.36.29.36.14.5.34.41.58.14.11.32.24.53.4s.31.34.3.54c-.02.5-.62.98-1.77,1.45-1.16.47-2.51.85-4.07,1.16-1.55.3-3.07.54-4.54.72-1.48.18-2.54.25-3.2.22-2.27-.11-4.13-.31-5.58-.6-1.45-.29-2.71-.73-3.79-1.3s-2.05-1.31-2.92-2.2c-.88-.89-1.87-1.96-2.98-3.22-.49-.57-.92-1.16-1.29-1.75-.38-.59-.62-1.24-.73-1.95-.11-.85-.21-1.73-.31-2.64-.1-.9-.21-1.78-.31-2.64-.1-1-.31-2-.63-2.99-.32-.99-.46-1.98-.41-2.98.06-1.25.26-2.34.6-3.27.26-.94.81-1.7,1.65-2.28.83-.58,1.81-1.05,2.93-1.4,1.12-.35,2.32-.61,3.61-.8,1.29-.19,2.53-.33,3.7-.42,3.09-.3,5.98-.89,8.66-1.76,2.68-.87,5.19-1.95,7.52-3.24,1.13-.6,2.31-1.06,3.53-1.41,1.23-.34,2.57-.48,4.03-.41ZM187.29,56.52l-.1-.23-.23.21.1.23.23-.21ZM190.05,67.9l-.21-.23-.34.21.32.24.23-.21ZM194.73,71.12c-.07,0-.17.02-.28.06-.11.04-.21.06-.28.06l.43.17c2.44,1.17,4.8,1.89,7.1,2.17,2.3.29,4.83.49,7.61.62.44.02.86.04,1.26.06.4.02.75-.01,1.05-.1l.23-.14-.21-.16-1.86-.09c-2.27-.11-4.81-.34-7.61-.7-2.81-.36-5.18-.96-7.12-1.8-.14-.11-.25-.16-.32-.17ZM206.5,75.66c.23-.14.34-.23.34-.28,0-.1-.14-.16-.43-.17-.29-.01-.44.05-.45.2,0,.15.17.23.54.25ZM213.75,73.6h.22s0-.14,0-.14l-.23.14ZM220.33,46.25c.29.01.44-.05.45-.2l-.32-.17-.34.13.21.23ZM222.56,43.21c-.21-.31-.34-.49-.41-.54-.07-.05-.36-.09-.87-.12l-.33-.02c-.37-.02-.63.12-.79.41l.21.31,1.54.07c.15,0,.29.01.44.02.15,0,.22-.04.23-.14Z"/>
        <path class="cls-3" d="M247.04,60.34c-.03.65.04,1.48.21,2.48.17,1.01.45,2.01.85,3,.39.99.95,1.9,1.69,2.7.73.81,1.64,1.37,2.72,1.67.8.24,1.9.44,3.33.61,1.42.17,2.84.42,4.25.76,1.41.34,2.64.81,3.67,1.41,1.03.6,1.52,1.47,1.47,2.62-.03.6-.53,1.01-1.49,1.24-.96.23-1.85.32-2.65.29-1.76-.08-3.28-.49-4.56-1.23-1.28-.74-2.51-1.54-3.68-2.42-1.17-.88-2.34-1.69-3.51-2.42-1.17-.73-2.49-1.13-3.96-1.2-1.61-.08-2.97.12-4.1.59-1.12.47-2.05,1.09-2.78,1.85-.73.77-1.38,1.6-1.93,2.49-.56.9-1.09,1.74-1.6,2.51-.51.78-1.06,1.41-1.63,1.91-.57.5-1.34.72-2.29.68-1.03-.05-1.68-.46-1.98-1.22s-.43-1.42-.4-1.97c.05-1,.27-1.92.68-2.78.41-.85.87-1.69,1.38-2.52.51-.82,1.01-1.65,1.49-2.48.48-.83.85-1.71,1.12-2.65.35-1.28.8-2.56,1.34-3.83.54-1.27.84-2.56.9-3.86.03-.55,0-1.09-.09-1.62s-.11-1.07-.09-1.62c.05-1,.26-1.95.63-2.86.37-.91.58-1.86.63-2.86.03-.55-.08-1.06-.31-1.55-.23-.49-.34-1-.31-1.55.08-1.6.35-3.16.83-4.68.47-1.53.75-3.09.83-4.68.03-.7.13-1.58.29-2.65.16-1.07.48-2.09.97-3.06.49-.98,1.17-1.81,2.04-2.49.87-.68,2.08-.99,3.62-.92.95.04,1.74.31,2.38.79.64.48,1.16,1.06,1.57,1.72.41.67.69,1.37.83,2.1.15.73.21,1.35.19,1.85-.05,1.15-.46,2.24-1.2,3.28-.75,1.04-1.57,2.13-2.46,3.26-.9,1.13-1.72,2.33-2.48,3.59-.76,1.26-1.17,2.69-1.25,4.29-.04.85.39,1.74,1.3,2.69.91.94,2.06,1.45,3.45,1.51,1.02.05,1.83-.3,2.41-1.05.59-.75,1.16-1.64,1.72-2.69.56-1.05,1.18-2.13,1.86-3.25.68-1.12,1.62-2.02,2.82-2.71.23-.14.62-.35,1.18-.62.56-.27,1.18-.54,1.85-.81.67-.27,1.31-.5,1.9-.7.59-.2,1.04-.31,1.34-.35.15,0,.29,0,.44-.02.15-.02.29-.02.44-.02.58.03,1.05.19,1.41.48.35.29.52.64.5,1.04-.08,1.6-.56,2.96-1.46,4.09-.9,1.13-1.99,2.12-3.27,2.96-1.29.84-2.68,1.61-4.18,2.31-1.5.7-2.89,1.44-4.17,2.2-1.28.76-2.37,1.65-3.26,2.66-.89,1.01-1.37,2.23-1.44,3.68ZM236.56,70.19l-.33-.02c-1.07.95-1.93,2.03-2.57,3.25l.21.31.34-.13c.39-.53.86-1.08,1.4-1.66.54-.57.9-1.13,1.07-1.67l-.11-.08ZM239.69,66.81c-.82.21-1.27.56-1.37,1.06l.21.24c.82-.21,1.27-.54,1.37-.98l-.21-.31ZM244.8,28.67c-.31.24-.47.58-.49,1.03v.15c.14,0,.32.03.54.06.22.04.4.06.55.06.36.02.55-.07.56-.27.01-.25-.11-.46-.36-.62-.25-.16-.52-.3-.81-.41ZM248.68,53.52l.32.17.34-.28-.33-.09-.34.21ZM252.5,70.27l-.23.14.1.23.13-.37ZM258.91,71.85c-.22-.06-.62-.15-1.2-.28-.58-.13-1.18-.27-1.79-.42-.62-.15-1.2-.28-1.74-.38-.54-.1-.89-.15-1.04-.16-.15,0-.26,0-.33.02-.07.02-.19.03-.33.02.86.34,1.77.61,2.71.8.94.19,1.89.37,2.83.51l.88-.11ZM255.95,48.62l.44.1.23-.29-.22-.09-.45.28ZM258.5,73.56l-.11-.08-.33.06.22.09.22-.06ZM261.89,41.78c-.54.52-1.11.9-1.7,1.12.14.06.36.09.65.11.37.02.7-.04,1-.18.3-.14.56-.27.79-.41l.02-.37-.31-.39-.45.13ZM260.29,42.98v.07s.1.08.1.08v-.07s-.21-.16-.21-.16l.11.08Z"/>
      </g>
      <g>
        <path class="cls-3" d="M50.74,80.32c.29.8.56,1.56.8,2.28.24.72.39,1.49.42,2.3.07,1.54-.3,3.23-1.1,5.07-.81,1.84-1.6,3.44-2.38,4.8-.79,1.36-1.33,2.84-1.64,4.43-.31,1.6-.51,3.13-.62,4.61-.17,1.92-.35,3.9-.56,5.93-.21,2.03-.6,4.02-1.19,5.96-.6,1.79-1.16,3.88-1.68,6.25-.53,2.38-.75,4.52-.66,6.43.07,1.54.33,3.07.78,4.6.45,1.52.71,3.09.79,4.71.03.73-.15,1.85-.55,3.33-.4,1.49-.92,2.98-1.57,4.48-.65,1.5-1.39,2.84-2.23,4.02-.84,1.18-1.72,1.79-2.65,1.83-.51.02-.92-.2-1.24-.66-.32-.46-.6-1.02-.84-1.67-.24-.65-.4-1.29-.47-1.91-.07-.62-.11-1.08-.13-1.37-.07-1.47.04-2.87.32-4.21.28-1.34.6-2.6.97-3.79.37-1.19.7-2.29.99-3.3.29-1.01.42-1.84.39-2.5-.08-1.83-.97-3.21-2.67-4.12-1.69-.92-3.51-1.33-5.45-1.24-1.86.08-3.6.53-5.21,1.34-1.61.81-2.96,1.83-4.05,3.05-1.09,1.23-1.94,2.61-2.54,4.14-.61,1.54-.88,3.07-.81,4.61.01.29.05.57.1.82.05.26.09.53.1.82.12.88-.22,2.05-1.05,3.52-.82,1.47-1.88,2.95-3.16,4.45-1.29,1.49-2.69,2.79-4.2,3.89-1.52,1.1-2.99,1.68-4.43,1.75-1.1.05-1.92-.35-2.47-1.21-.55-.86-.84-1.69-.88-2.5-.01-.22.38-.94,1.17-2.15.79-1.21,1.63-2.67,2.53-4.36.9-1.7,1.73-3.46,2.49-5.3.76-1.84,1.11-3.45,1.05-4.85l-.33-4.4c-.05-1.03-.22-2.01-.52-2.95-.3-.94-.47-1.89-.51-2.84-.02-.51.04-.98.19-1.39.15-.41.3-.84.45-1.29,0-.15-.06-.4-.16-.76-.1-.36-.15-.62-.16-.76-.03-.66.07-1.69.3-3.1.23-1.41.5-2.89.81-4.45.31-1.56.65-3.01,1.01-4.35.36-1.34.66-2.31.88-2.91.3-.82.58-1.68.84-2.57.25-.89.41-1.75.45-2.56.11-1.25.29-2.33.55-3.22.25-.89.7-1.87,1.33-2.93.39-.68.65-1.44.78-2.3.13-.85.3-1.69.52-2.51.22-.67.52-1.53.9-2.58.38-1.05.83-2.11,1.38-3.21.54-1.09,1.07-2.13,1.57-3.1.5-.98,1-1.74,1.48-2.27.73-.77,1.72-1.18,2.99-1.24,1.1-.05,1.89.1,2.37.44.48.35,1.07.83,1.78,1.46v.22s-.37.02-.37.02c-.35-.35-.58-.29-.69.2-.1.48-.15.8-.15.94.02.37.2.73.56,1.08.35.35.66.63.93.84l.25-.12c.08-.15.11-.41.09-.78,0-.15-.04-.29-.08-.44-.05-.14.09-.22.43-.24.25-.01.39.11.4.37.01.26.06.46.15.6.22,1.02.46,2.13.72,3.33.26,1.2.42,2.32.47,3.34.05,1.1-.08,2.39-.4,3.88-.31,1.49-.67,3.01-1.06,4.57-.4,1.56-.75,3.07-1.06,4.52s-.45,2.69-.4,3.71c.05,1.03.56,1.72,1.56,2.08.99.36,1.99.52,3.01.47,1.1-.05,2.4-.39,3.89-1,1.5-.62,2.92-1.38,4.28-2.29,1.36-.91,2.49-1.91,3.42-3.02.92-1.11,1.36-2.18,1.31-3.2-.04-.88-.09-2.37-.14-4.46-.05-2.09.06-4.23.34-6.41.28-2.18.76-4.13,1.45-5.86.68-1.72,1.7-2.61,3.05-2.68.34-.02.66,0,.96.07.3.06.46.27.47.64.01.22-.08.52-.28.89-.2.38-.29.71-.27,1.01.03.59.43,1.12,1.22,1.6,0-.07.03-.17.11-.28.08-.11.12-.24.11-.39-.02-.37-.07-.64-.16-.82-.09-.18-.11-.45-.04-.83l.25-.12.26.1ZM8.4,148.87l-.26-.21-.36.46.26.1.37-.35ZM19.58,126.63c.67-.03,1.08-.34,1.23-.94l-.26-.21h-.13c-.25.02-.5.12-.75.32-.24.2-.36.4-.35.62v.11s.14.1.14.1h.13ZM23.39,79.36l.11-.45c-.27-.35-.6-.52-.98-.51-.38.02-.78,0-1.21-.06l-.37.35.4.31.38-.02c.43.2.86.37,1.29.49l.38-.13ZM25.92,106.93c-.36-.35-.6-.73-.75-1.12-.15-.4-.44-.73-.87-1.01-.16.3-.23.6-.21.89.01.29.12.73.31,1.31l.52.2,1-.27ZM24.69,93.97c.01.22.14.32.4.31.25-.01.41-.33.46-.96.06-.63.12-1.02.2-1.17.12-.96.31-1.89.57-2.78.25-.89.36-1.82.32-2.77-.03-.59-.14-1.13-.33-1.64-.19-.5-.55-.97-1.08-1.38l-.62.25v.22c.46.49.7,1.22.74,2.17.06,1.25-.05,2.54-.33,3.88-.28,1.34-.39,2.63-.33,3.88ZM38.85,145.27l-.27-.32-.24.34.27.32.24-.34Z"/>
        <path class="cls-3" d="M83.08,95.94c1.44-.07,2.98-.03,4.64.12,1.66.14,3.22.46,4.68.94,1.46.48,2.7,1.2,3.72,2.15,1.02.95,1.6,2.23,1.76,3.83.13,1.1.29,2.16.46,3.18.17,1.02.41,2.08.72,3.17,0,.15.03.26.08.33.04.07.07.18.08.33.04.81-.2,1.72-.7,2.73-.5,1.02-1.05,2.09-1.63,3.22-.58,1.13-1.12,2.28-1.62,3.44-.5,1.16-.72,2.33-.67,3.5.04.81.14,1.65.31,2.52.17.87.27,1.72.31,2.52.07,1.54-.23,2.79-.91,3.74-.68.95-1.48,1.81-2.42,2.59-.94.78-1.88,1.56-2.81,2.33-.94.78-1.68,1.77-2.21,2.97-.54,1.28-1.24,2.61-2.1,4.01-.87,1.4-1.87,2.7-3,3.89-1.13,1.19-2.42,2.19-3.86,2.99-1.45.8-3.05,1.24-4.83,1.32-1.61.07-3.08-.25-4.42-.96-1.35-.71-2.55-1.55-3.61-2.54-.62-.56-1.21-1.06-1.78-1.52-.57-.45-1.17-.96-1.78-1.52-1.14-.9-2.15-2.03-3.01-3.39-.87-1.36-1.61-2.79-2.23-4.31-.62-1.52-1.11-3.04-1.48-4.56-.37-1.53-.58-2.95-.64-4.27-.05-1.03-.07-2.02-.07-2.97,0-.95.02-1.95.05-2.98.1-1.47.68-3.14,1.74-4.99,1.06-1.85,2.33-3.69,3.81-5.52,1.48-1.83,3.01-3.59,4.58-5.28,1.57-1.69,2.84-3.14,3.8-4.36,1.76-2.14,3.98-3.75,6.64-4.82,2.66-1.08,5.47-1.68,8.43-1.82ZM57.23,122.37l.13.1v-.11s-.13,0-.13,0ZM90.7,118.2c-.07-1.61-.91-3.16-2.5-4.63-1.59-1.47-3.49-2.76-5.7-3.88-2.21-1.11-4.52-1.98-6.91-2.61-2.4-.62-4.4-.9-6.01-.83-.68.03-1.34.25-2,.64-2.06,1.27-3.54,2.63-4.45,4.06-.91,1.44-1.54,2.96-1.89,4.55-.35,1.6-.64,3.23-.86,4.89-.22,1.66-.63,3.36-1.23,5.07-.3.82-.6,1.76-.89,2.8-.29,1.04-.42,2-.38,2.88.02.51.2,1.2.54,2.07.33.87.71,1.75,1.14,2.65.42.9.86,1.76,1.32,2.59.46.83.87,1.49,1.23,1.98.81,1.14,2.02,1.67,3.63,1.6,1.52-.07,2.97-.34,4.34-.8,1.38-.47,2.73-1.01,4.05-1.62,1.33-.61,2.63-1.26,3.91-1.94,1.28-.68,2.54-1.31,3.79-1.88,1.66-.74,2.7-1.54,3.13-2.4.42-.86.6-2.07.53-3.61-.04-.81.22-1.63.78-2.46.55-.83,1.17-1.73,1.85-2.68.67-.95,1.28-1.97,1.83-3.06.54-1.09.79-2.22.73-3.4ZM62.78,110.43c-.42.17-.7.36-.86.59-.16.23-.32.49-.47.79.41-.17.7-.34.86-.54.16-.19.32-.47.47-.85ZM63.76,143.03c-.2-.58-.59-.86-1.18-.83-.09,0-.15.03-.19.06-.04.04-.1.06-.19.06,0,.22.17.42.47.58.3.17.58.25.84.24l.25-.12ZM63.89,143.03c.08,0,.11.01.07.05-.04.04-.02.06.07.05.17,0,.33-.09.5-.24l-.63.14ZM65.17,143.19c0,.15.07.24.2.27.13.03.24.08.32.15-.01-.29-.19-.43-.53-.42ZM83.75,135.83l-.38.02c-.09,0-.17.05-.25.12l-.12.12c-2.3,1.58-4.9,3.02-7.8,4.33-2.9,1.31-5.78,2.21-8.64,2.71-.34.02-.63.18-.87.48,3.54-.38,6.78-1.23,9.73-2.54,2.94-1.31,5.72-3.02,8.34-5.12v-.11ZM78.36,98.47c-.51-.12-.94-.18-1.28-.16-.42.02-.82.15-1.19.39-.37.24-.72.47-1.05.71l.13.1c1.94-.24,3.81-.5,5.61-.81,1.81-.3,3.68-.5,5.63-.59.42-.02.72-.05.88-.1.17-.04.33-.22.48-.52l-.38.02c-.68.03-1.38-.03-2.1-.18-.73-.15-1.43-.21-2.1-.18-.25.01-.66.03-1.2.05-.55.03-1.08.09-1.58.18-.5.1-.94.23-1.32.39-.37.17-.55.39-.54.69ZM78.37,98.58v-.11s.12,0,.12,0l-.12.12ZM93.72,109.35c.16-.15.24-.27.24-.34,0-.07-.03-.15-.07-.22-.05-.07-.07-.14-.07-.22l-.51.02c-.16.16-.24.31-.23.45,0,.07.02.11.07.11.04,0,.06.03.07.11l.51.09Z"/>
        <path class="cls-3" d="M151.14,98.46c.84-.04,1.37.31,1.57,1.03.2.73.32,1.38.34,1.97.07,1.54,0,3.24-.21,5.08-.21,1.85-.53,3.72-.95,5.61-.42,1.89-.95,3.72-1.59,5.48-.64,1.76-1.35,3.35-2.13,4.78-.39.75-.72,1.47-.98,2.14-.27.67-.56,1.31-.87,1.91-.31.6-.69,1.21-1.12,1.82-.44.61-1.02,1.22-1.76,1.84-.65.55-1.15,1.16-1.5,1.83-.35.68-.68,1.39-.98,2.14-.68,1.72-1.65,3.31-2.89,4.76-1.25,1.45-2.43,2.94-3.54,4.46-1.28,1.68-3.14,3.1-5.58,4.28-2.44,1.18-4.81,1.82-7.09,1.92-2.03.09-3.76-.34-5.2-1.31-1.44-.96-2.62-2.2-3.53-3.7-.92-1.5-1.6-3.11-2.06-4.81-.46-1.71-.72-3.26-.78-4.65-.02-.51-.03-1.03,0-1.54.02-.51.02-1.03,0-1.54-.03-.59-.12-1.21-.27-1.86-.16-.65-.25-1.27-.28-1.86-.03-.59,0-1.18.11-1.77.1-.59.14-1.18.11-1.77-.11-2.42-.62-4.79-1.53-7.1-.91-2.31-1.42-4.71-1.54-7.21-.15-3.3.64-6.41,2.37-9.32,1.73-2.91,4.43-5,8.1-6.27.67-.18,1.21-.28,1.64-.3,1.1-.05,1.96.21,2.58.76.62.56,1.09,1.27,1.43,2.14.34.87.57,1.76.69,2.67.13.91.2,1.7.23,2.36.07,1.54-.11,3.24-.53,5.1-.42,1.86-.99,3.74-1.71,5.65-.72,1.91-1.52,3.73-2.42,5.46-.9,1.73-1.78,3.24-2.65,4.53-.39.68-.74,1.38-1.05,2.09-.31.71-.44,1.47-.4,2.28.05,1.03.67,2.21,1.88,3.55,1.2,1.34,2.64,2.6,4.3,3.77,1.66,1.18,3.38,2.14,5.15,2.91,1.77.77,3.2,1.12,4.3,1.07.68-.03,1.3-.19,1.88-.47.58-.28,1.16-.51,1.75-.69.24-.23.61-.62,1.09-1.15.48-.54.97-1.11,1.45-1.72.48-.61.9-1.2,1.25-1.77.35-.57.53-1,.51-1.29,0-.22-.06-.44-.16-.65-.1-.22-.15-.43-.16-.65-.02-.37.41-1.18,1.29-2.43.87-1.25,1.27-2.83,1.18-4.74-.05-1.03-.22-2.07-.52-3.12-.3-1.05-.48-2.13-.53-3.23-.03-.59-.03-1.17-.02-1.76.01-.59.05-1.18.11-1.77.03-1.1.37-2.48,1.02-4.13.64-1.65,1.48-3.27,2.51-4.86,1.03-1.59,2.21-2.97,3.56-4.13s2.73-1.78,4.17-1.84ZM115.36,107.59c-.25.01-.38.09-.37.24l.4.53.37-.35-.27-.43h-.13ZM117.93,97.21c-1.35.21-2.21.76-2.59,1.66l.27.43c.5-.24.99-.49,1.49-.73.5-.24.95-.56,1.35-.94v-.22s-.53-.2-.53-.2ZM118.08,139.34c.17,0,.25-.12.24-.34l-.27-.43-.5.13c.09.07.16.2.21.38.05.18.16.27.33.26ZM135.05,138.45c.08-.08.12-.19.11-.34,0-.15-.1-.22-.26-.21-.17,0-.34-.02-.51-.09l.03.66.14.21.5-.24ZM147.07,112.32l-.51-.09-.24.34.51.09.24-.34ZM150.08,100.38l-.51-.09c-.33.31-.65.62-.97.93-.33.31-.48.68-.46,1.12l.14.32c.42-.09.81-.33,1.17-.72.36-.38.62-.76.77-1.14l-.15-.43Z"/>
        <path class="cls-3" d="M185.98,91.13c4.31-.2,7.98.39,11,1.76,3.03,1.37,5.26,3.9,6.7,7.58.09.14.14.36.16.65.02.51-.21,1-.7,1.47-1.3,1.24-2.66,2.03-4.08,2.39-1.42.36-3.02.65-4.79.88-1.18.13-2.53.32-4.04.57-1.51.25-3,.63-4.46,1.14-1.46.51-2.79,1.12-3.98,1.84-1.2.72-2.07,1.6-2.61,2.66,0,.07-.04.17-.11.28-.08.11-.12.21-.11.28.01.29.95.84,2.81,1.64,1.86.8,3.89,1.81,6.11,3.03s4.27,2.64,6.16,4.24c1.89,1.61,2.89,3.44,2.98,5.49.09,1.98-.6,4.13-2.06,6.44-1.46,2.31-3.29,4.45-5.49,6.43-2.2,1.98-4.55,3.63-7.08,4.96-2.52,1.33-4.84,2.04-6.95,2.14-2.45.11-4.63.03-6.55-.25-1.92-.28-3.88-1.07-5.89-2.38-1.57-.96-3.19-2.1-4.85-3.42-1.67-1.32-2.55-2.93-2.63-4.84-.03-.59.22-1.28.73-2.07.51-.8,1.19-1.21,2.04-1.25.42-.02.75.09.97.34.22.25.54.36.97.34.25-.01.46-.09.62-.25.16-.15.37-.24.62-.25.25-.01.71.13,1.35.43.65.3,1.4.64,2.27,1,.86.37,1.81.69,2.84.97,1.03.28,1.97.41,2.81.37,1.01-.05,1.93-.34,2.75-.9,1.06-.78,2.23-1.61,3.51-2.48,1.27-.87,2.46-1.8,3.55-2.81,1.1-1,2.02-2.09,2.77-3.27.75-1.17,1.1-2.42,1.04-3.74-.05-1.1-.6-2.07-1.66-2.9-1.05-.83-2.34-1.62-3.85-2.36-1.52-.74-3.16-1.45-4.92-2.15-1.77-.69-3.41-1.46-4.93-2.31-1.52-.85-2.81-1.82-3.88-2.91-1.07-1.09-1.63-2.37-1.7-3.84-.05-1.1.16-2.14.62-3.12,2-4.43,4.89-7.45,8.67-9.05,3.78-1.61,8.2-2.52,13.27-2.76ZM170.67,136.94c0-.07-.18-.1-.51-.09-.17,0-.57-.05-1.21-.17-.64-.12-1.05-.25-1.22-.39,0,.07-.02.13-.06.17-.04.04-.06.1-.06.17.01.29.38.52,1.11.67.73.15,1.22.22,1.47.21l.49-.35v-.22ZM183.29,93.46l-.14-.32-.51-.09c-1.69.08-3.21.29-4.54.65.26.21.61.3,1.03.28.68-.03,1.35-.06,2.03-.09.68-.03,1.35-.1,2.02-.2l.12-.23ZM191.17,93.43c.17,0,.29-.03.38-.07.08-.04.21-.06.38-.07-.78-.33-1.57-.55-2.38-.66-.81-.11-1.68-.14-2.61-.1l-2.28.21c-.17.08-.24.23-.23.45l.14.32.64.08c.33-.09.67-.14,1.01-.16.34-.02.67-.03,1.01-.05.68-.03,1.33-.02,1.97.02.64.05,1.29.05,1.97.02ZM195.18,97.77l-.38.02v.22s.39-.02.39-.02v-.22Z"/>
        <path class="cls-3" d="M265.23,121.7c.01.22.09.55.24.98.15.43.39.68.73.74-.32.46-.51.83-.58,1.13-.69,1.58-1.87,2.55-3.55,2.92-.59.1-1.31.43-2.18.98-.86.55-1.75,1.17-2.65,1.83-.9.67-1.72,1.37-2.44,2.1-.73.73-1.25,1.33-1.57,1.78-1.35,2.05-3.37,3.65-6.07,4.8-2.7,1.15-5.31,1.94-7.83,2.34-.59.1-1.13.26-1.63.46-.5.21-1.04.32-1.63.35-.51.02-1,0-1.46-.04-.47-.05-.96-.07-1.46-.04-1.35.06-2.21.23-2.58.5-.37.28-.61.56-.72.86-.11.3-.27.58-.47.85-.2.27-.89.43-2.07.48-1.18.05-2.18-.03-3-.25-.82-.22-1.57-.52-2.26-.89-.7-.37-1.39-.76-2.09-1.17-.7-.41-1.56-.77-2.59-1.09-.95-.32-1.91-.57-2.89-.75-.98-.18-1.95-.5-2.9-.97-.26-.13-.54-.25-.84-.35-.3-.1-.58-.21-.84-.35-.35-.13-.65-.21-.9-.23-.26-.02-.39-.22-.41-.59-.06-1.32.61-2.31,2.02-2.96.26.06.45.16.59.3.13.14.33.28.59.41.6.19,1.14.44,1.62.75.48.31,1.02.52,1.62.64.17,0,.31-.11.43-.3.12-.19.17-.36.17-.5.26.21.56.31.9.29.67-.03,1.15-.24,1.43-.62.28-.38.41-.83.38-1.34-.05-1.1-.68-1.95-1.9-2.56-.95-.4-1.66-1.03-2.12-1.89-.46-.86-.83-1.82-1.08-2.87-.26-1.05-.5-2.09-.71-3.11-.22-1.02-.55-1.92-1.01-2.71-.65-1.15-.99-2.2-1.03-3.15-.05-1.1.04-2.35.27-3.76.23-1.41.57-2.84,1.01-4.29.44-1.45.99-2.84,1.65-4.16.66-1.32,1.39-2.43,2.2-3.35.32-.31.52-.58.6-.8.38-.83.84-1.56,1.36-2.21.52-.65,1.15-1.28,1.88-1.91.9-.78,1.79-1.53,2.69-2.27.9-.74,1.79-1.5,2.69-2.27.66-.47,1.65-.97,2.98-1.51,1.33-.54,2.75-1.01,4.25-1.41,1.51-.4,3.01-.74,4.52-1.03,1.51-.29,2.69-.45,3.53-.49,1.1-.05,2.06.07,2.87.37.82.29,1.6.64,2.33,1.05.74.41,1.44.82,2.09,1.23.65.41,1.37.71,2.14.9,1.45.3,2.87.68,4.24,1.13,1.37.45,2.79.83,4.24,1.13l.25-.12-.27-.43v.11c-.17-.14-.3-.24-.39-.31-.09-.07-.18-.17-.27-.32l.37-.24-.38-.09c-.69-.19-1.33-.38-1.93-.57-.6-.19-1.21-.46-1.81-.8l-.02-.44.37-.24c.84-.04,1.89.17,3.14.63,1.25.46,2.46,1.03,3.63,1.71,1.17.68,2.2,1.44,3.09,2.29.88.84,1.35,1.67,1.38,2.47.05,1.03-.18,1.99-.69,2.9-.51.91-1.19,1.73-2.05,2.46-.86.74-1.8,1.39-2.83,1.95-1.03.56-2.05,1.05-3.04,1.46-1.91.82-3.46,2.03-4.66,3.63-.48.68-1.09,1.19-1.84,1.52-.75.33-1.58.62-2.5.89-1.25.35-2.55.8-3.88,1.33-1.33.54-2.68,1.1-4.05,1.67-1.37.58-2.7,1.08-4,1.51-1.29.43-2.49.74-3.58.94-.67.11-1.32.19-1.96.25-.63.07-1.29.11-1.96.14-.68.03-1.46-.02-2.36-.17-.9-.14-1.75-.36-2.57-.65-.82-.29-1.51-.7-2.09-1.23-.58-.52-.88-1.12-.91-1.78-.05-1.03.34-1.85,1.16-2.48,1.71-1.47,3.35-2.56,4.93-3.26,1.58-.7,3.59-1.14,6.04-1.32,1.1-.05,2.25-.29,3.46-.71,1.21-.42,2.35-.99,3.41-1.7,1.07-.71,1.94-1.52,2.62-2.44.68-.91,1.03-1.92,1.07-3.03.06-.44.09-.87.07-1.27-.02-.4-.04-.83-.06-1.27-.06-1.25-.55-2.25-1.47-3.02-.92-.77-2.1-1.12-3.54-1.05-1.52.07-2.82.44-3.89,1.11-1.07.67-2.32,1.23-3.73,1.66l-.38.13c-.73.62-1.62,1.21-2.65,1.78-1.03.56-2.01,1.05-2.92,1.46-1,.41-1.99,1.32-2.99,2.73-1,1.41-1.9,2.94-2.71,4.59-.81,1.66-1.46,3.3-1.93,4.94-.48,1.64-.69,2.9-.65,3.78.02.44.08.88.19,1.32.1.44.17.87.19,1.31.02.51,0,.92-.07,1.22-.19-.36-.41-.53-.66-.52h-.13c.1.3.18.71.25,1.26.07.55.27.89.62,1.02,0,.15.05.22.14.21.08,0,.13-.02.12-.06,0-.04.04-.06.12-.06.26.21.44.44.54.69.09.25.23.49.41.7.92,1.58,1.93,2.91,3.04,4,1.11,1.09,2.61,2,4.51,2.72.69.19,1.48.47,2.39.83.9.36,1.85.73,2.84,1.08.99.36,1.95.65,2.9.86.94.22,1.71.31,2.3.28.93-.04,1.76-.3,2.5-.78,2.06-1.2,4.24-2.23,6.53-3.11,2.29-.88,4.51-1.88,6.66-3.01,1.32-.65,2.65-1.31,3.97-2,1.32-.68,2.69-1.24,4.11-1.68.42-.17.77-.29,1.06-.38.29-.09.65-.14,1.07-.16.01.29-.29.62-.91.98-.62.36-1,.73-1.16,1.1l5.48-2.46c.09.14.14.29.15.43ZM213.93,135.74c-.09,0-.13-.03-.13-.1l.13.1ZM213.93,135.74c.09.07.2.1.32.1.13,0,.19.07.2.21l-.52-.31ZM214.58,136.15c.17.14.35.2.52.2.17,0,.34.02.51.09l-1.03-.28ZM215.18,115.83l.03.66c.02.44.25.76.68.96-.18-.28-.26-.58-.23-.87.03-.29-.13-.55-.48-.75ZM215.89,117.45c-.16.3-.23.6-.21.89.01.29-.02.59-.09.89.15-.3.23-.6.21-.89-.01-.29.02-.59.09-.89ZM216.38,119.85v-.11s.13.1.13.1h-.13ZM216.58,121.5c.07-.37.06-.59-.03-.66-.09-.07-.14-.25-.15-.54l-.02-.44c.27.28.41.68.44,1.19l.02.44h-.25ZM219.22,126.45c0,.07-.02.11-.06.11-.04,0-.06.04-.06.11l.26.21-.15-.43ZM219.63,127.2c-.01-.22-.1-.33-.27-.32v.22c.02.15.1.22.27.21v-.11ZM238.09,133.75c-.26-.06-.54-.18-.84-.35-.31-.17-.58-.25-.84-.24-.25.01-.53.06-.82.15-.29.09-.57.14-.82.15-1.94.09-3.76-.29-5.45-1.13-1.69-.84-3.35-1.59-4.99-2.25-.26-.13-.65-.36-1.17-.66-.52-.31-1.02-.61-1.5-.92-.48-.31-.92-.58-1.31-.82-.39-.24-.63-.36-.71-.35.01.22.08.4.22.54.13.14.29.28.46.42.8.85,1.81,1.65,3.03,2.4,1.22.75,2.56,1.41,4.03,1.97,1.46.56,2.94.99,4.44,1.29,1.49.3,2.88.42,4.14.36.25-.01.65-.01,1.21,0,.55.01.86-.17.93-.54ZM228.61,137.49c0-.15-.05-.22-.14-.21-.08,0-.17-.03-.26-.1-.51.02-.75.22-.74.59,0,.22.18.32.52.31.42-.02.62-.21.61-.58ZM232.85,113.47c.08,0,.15.01.19.05.04.04.11.05.19.05.51-.02.84-.22.99-.6l-.14-.32-.51.02c-.42.02-.71.22-.86.59l.14.21ZM236.06,91.93l.38-.13-.14-.21h-.25s.01.34.01.34ZM243.63,93.57v-.11s-.13,0-.13,0l.13.1ZM252.31,91.74c-.08,0-.41-.07-.96-.23-.56-.16-1.18-.35-1.87-.58-.69-.23-1.33-.45-1.94-.68-.6-.23-.99-.38-1.16-.44,1.02.1,2.08.22,3.19.35,1.11.13,2.13.36,3.08.69.09.14.14.36.16.65,0,.15-.16.23-.5.24ZM257.09,93.51c0-.07.08-.11.25-.12l-.11.34-.14-.21ZM261.79,121.53l-.12.12v-.11s.12,0,.12,0ZM263.54,120.9c-.17.08-.41.22-.74.42-.33.2-.58.3-.75.31l-.26-.1c.41-.39.86-.59,1.37-.61l.38-.02ZM263.54,120.79l.13.1h-.13s0-.1,0-.1ZM266.31,123.09v.22c0-.07-.02-.11-.06-.11-.04,0-.06-.03-.07-.11v-.11s.13.1.13.1ZM266.33,123.42v-.11s-.13.12-.13.12h.13Z"/>
      </g>
    </g>
  </g>
</svg>