<?xml version="1.0" encoding="UTF-8"?>
<svg id="Layer_2" data-name="Layer 2" xmlns="http://www.w3.org/2000/svg" viewBox="0 0 211.05 211.05">
  <defs>
    <style>
      .cls-1 {
        fill: #84ee43;
      }

      .cls-2 {
        opacity: .65;
      }

      .cls-2, .cls-3, .cls-4 {
        fill: #adfe7d;
      }

      .cls-3 {
        opacity: .4;
      }

      .cls-5 {
        fill: #67d133;
      }

      .cls-6 {
        fill: #73de42;
      }
    </style>
  </defs>
  <g id="_Шар_1" data-name="Шар 1">
    <g>
      <path class="cls-1" d="M165.37,132.49c1.08,2.31,2.84,4.76,4.57,7.17,2.77,3.87,5.5,7.62,5.36,10.5-.38,8.1-4.9,17.67-22.86,18.17-17.96.51-28.93,10.31-36.56,23.61-7.64,13.28-21.77,9.95-23.55-14.66-.69-9.55-8.11-16-18.9-12.2-17.01,6-27.86,35.05-45.7,17.06-1.97-2-3.18-4.07-3.78-6.2-.42-1.47-.54-2.95-.43-4.44v-.03c.72-9.36,10.7-18.63,15.26-23.27.46-.46.88-.94,1.28-1.42,10.68-12.97,3.1-34.86-4.5-39.83-7.89-5.15-30.57-10.3-31.96-38.99-.8-16.43,9.49-28.86,22.6-33.54.01,0,.01-.01.02-.01,7.88-2.81,16.77-2.84,24.89.74,1.97.87,3.91,1.96,5.76,3.27,22.23,15.68,31.98,2.04,27.52-10.09s.12-32.15,16.28-24.33c16.16,7.82,5.21,23.26,9.45,28.19,4.25,4.93,14.34,4.9,22.69-8.5,3.63-5.85,10.17-14.59,17.49-19.66.43-.3.84-.58,1.27-.84.02-.01.04-.03.06-.05,1.75-1.09,3.53-1.95,5.34-2.49.02-.01.04-.02.06-.01,1.79-.54,3.61-.77,5.39-.58,5.74.56,11.28,5.29,15.68,17.07,13.3,35.59-27.54,43.03-17.93,55.93.88,1.17,1.83,2.08,2.86,2.76t.02.01c4.66,3.11,10.74,1.79,17.5,1.48,8.08-.38,17.12.64,25.77,12.36,17.51,23.67-18.1,27.03-35.44,32.25-7.31,2.2-7.61,6.13-5.52,10.54Z"/>
      <path class="cls-1" d="M137.16,209.06c-17.77,5.63-22.29-1.48-18.39-11.45.02-.06.04-.1.04-.12.01-.01.01-.02.02-.05,2.98-7.46,10.64-16.49,20.97-22.95,9.55-5.97,14.71-2.99,16.06,3.26,2.06,9.61-4.88,26.94-18.71,31.32Z"/>
      <path class="cls-1" d="M166.44,186.41c8.04,3.29,11.9-5.29,1.64-9.5-9.8-4.03-10.78,5.76-1.64,9.5Z"/>
      <path class="cls-6" d="M8.63,143.09c13.41,14.28,34.09-3.92,14.37-22.41-19.72-18.49-32.32,3.3-14.37,22.41Z"/>
      <path class="cls-1" d="M182.75,64.09c-8.79,2.89-9.64-.23-7.7-4.58,1.27-2.84,3.72-6.21,5.94-8.79,1.37-1.58,2.71-1.79,3.85-1.15h.01c3.54,1.99,4.94,12.22-2.11,14.52Z"/>
      <path class="cls-6" d="M137.16,209.06c-17.77,5.63-22.29-1.48-18.39-11.45-.38,1.28-2.34,9.52,12.03,7.78,15.61-1.91,26.19-17.82,25.08-27.5-.01-.05-.01-.09-.01-.14,2.06,9.61-4.88,26.94-18.71,31.32Z"/>
      <path class="cls-2" d="M134.99,178.3c-8.06,7.17-1.39,15.02,9.98,5.09,11.36-9.93,1.95-15.71-9.98-5.09Z"/>
      <path class="cls-2" d="M124.01,191.14c-7.36,5.05-2.99,14.46,2.79,8.61,5.79-5.85,7.38-15.6-2.79-8.61Z"/>
      <path class="cls-4" d="M129.8,205.37c.04.17,4.62.29,12.97-3.7s11.74-14.95,10.65-12.96-6.59,10.78-11.71,12.76-12.51,1.13-11.91,3.89Z"/>
      <path class="cls-4" d="M164.13,176.78c-3.8,1.29-1,3.32,3.64,4.76,2.73.85,4.8.4,4.45-.78-.61-2.08-5.67-4.81-8.1-3.98Z"/>
      <path class="cls-5" d="M151.58,3.2c-.53.43-.95.7-1.27.84.43-.3.84-.58,1.27-.84Z"/>
      <path class="cls-6" d="M175.3,150.15c-.13,2.78-.75,5.73-2.23,8.43-.03.06-.07.11-.1.17-2.87,5.09-8.86,9.24-20.53,9.57-17.96.51-28.93,10.31-36.56,23.61-7.64,13.28-21.77,9.95-23.55-14.66-.69-9.55-8.11-16-18.9-12.2-11.1,3.92-19.57,17.63-29.08,21.71h-.01c-5.06,2.18-10.42,1.6-16.62-4.65-1.97-2-3.18-4.07-3.78-6.2-.23-2.07-.35-3.58-.41-4.19.51,2.84,7.23,18.08,18.28,7.56,11.49-10.94,24.97-27.74,31.16-35.75,6.18-8,23.83-30.55,28.61-10.59,4.79,19.96.05,46.85,11.89,38.3,11.83-8.55,16.89-18.86,32.1-15.97,15.21,2.9,33.14,1.21,24.35-15.65,2.77,3.87,5.5,7.62,5.36,10.5Z"/>
      <path class="cls-6" d="M170.89,121.95c-7.31,2.2-7.61,6.13-5.52,10.54-8.21-10.91-16.49-14.59-3.03-23.25,11.72-7.53,53.97-4.69,40.24-22.88-.33-.44-.67-.87-1.01-1.28-6.16-7.2-13.63-7.85-21.01-7.75,8.08-.38,17.12.64,25.77,12.36,17.51,23.67-18.1,27.03-35.44,32.25Z"/>
      <path class="cls-5" d="M172.97,158.75c-2.87,5.09-8.86,9.24-20.53,9.57-17.96.51-28.93,10.31-36.56,23.61-7.64,13.28-21.77,9.95-23.55-14.66-.69-9.55-8.11-16-18.9-12.2-11.1,3.92-19.57,17.63-29.08,21.71,1.73-.89,19.81-20.26,27.03-29.08,7.24-8.84,18.49-14.23,22.51,2.57,4.02,16.82-1.41,34.14,9.45,35.77,10.85,1.64,15.9-24.01,28.04-29.22,12.15-5.2,33.82,4.94,41.57-8.08Z"/>
      <path class="cls-6" d="M40.07,146.77c.84-1.02,1.57-2.1,2.18-3.22.12-.19.22-.38.32-.59,0-.01.01-.02.02-.03,6.75-13.06-.13-31.49-7.02-35.99-7.89-5.15-30.57-10.3-31.96-38.99-.2-4.16.3-8.07,1.4-11.65h0c3.2-10.59,11.41-18.39,21.21-21.89-9.93,5.58-18.48,15.46-9.97,34.71,8.52,19.25,29.4,4.49,33.79,35.75,4.4,31.26-8.43,39.75-9.98,41.89Z"/>
      <path class="cls-5" d="M42.59,142.94c6.75-13.06-.13-31.49-7.02-35.99-7.89-5.15-30.57-10.3-31.96-38.99-.2-4.16.3-8.07,1.4-11.65-4.1,38.02,23.7,27.13,37.24,47.09,12.67,18.68,2.58,35.62.34,39.53Z"/>
      <path class="cls-6" d="M131.4,71.98c5.55,14.18-18.87,22.38-13.93,8.45,4.93-13.94.47-27.12-10.17-34.23-10.62-7.11-9.65,25.57-26.89,11.64-17.24-13.94-27.69-21.92-29.46-22.22,0,0,.06-.16.17-.46,1.97.87,3.91,1.96,5.76,3.27,22.23,15.68,31.98,2.04,27.52-10.09s.12-32.15,16.28-24.33c16.16,7.82,5.21,23.26,9.45,28.19,4.25,4.93,14.34,4.9,22.69-8.5,3.63-5.85-14.01,16.13-1.42,48.29Z"/>
      <path class="cls-5" d="M174.23,22.61c-1.3-17.24-9.89-23.28-17.24-21.96,7.57-2.28,15.29,1.05,21.06,16.5,13.3,35.59-27.54,43.03-17.93,55.93.88,1.17,1.83,2.08,2.86,2.76-2.49-1.05-4.8-2.73-6.82-5.41-11.64-15.44,19.69-25.99,18.06-47.83Z"/>
      <path class="cls-1" d="M87.28,9.23c-6.43,9.44-1.93,20.24,4.86,9.17,6.79-11.08,2.68-20.24-4.86-9.17Z"/>
      <path class="cls-2" d="M150.95,6.03c-17.75,12.7,1.47,43.26,9.17,28.38,7.7-14.88,11.31-43.03-9.17-28.38Z"/>
      <path class="cls-2" d="M29.2,38.41c-25.33,4.94-7.46,25.81,19.31,33.83,10.04,3.01,16.45,7.38,19.43,12.83,9.06,16.58-8.86,29.51-6.71,34.15,6.86,14.76,34.55-16.48,22.94-23.3-13.32-7.82,5.85-17.57-2.03-23.68-7.88-6.11-18.48-40.54-52.94-33.83Z"/>
      <path class="cls-4" d="M38.27,152.99c-11.47,10.64-15.42,26.87-4.11,19.27,11.31-7.6,17-31.22,4.11-19.27Z"/>
      <path class="cls-2" d="M176.84,79.68c-27.36,4.81-2.18,17.34,13.53,13.29,15.71-4.05,12.12-17.79-13.53-13.29Z"/>
      <path class="cls-2" d="M112.64,139.66c-1.12,12.35-2,28.45,4.83,19.09,6.83-9.36,15.71-17.57,26.18-15.19,10.47,2.39,4.72-14.61-6.8-20.43-11.52-5.82-22.49-2.37-24.2,16.53Z"/>
      <path class="cls-4" d="M146.23,155.18c0,1.89,15.55,5.01,21.48,1.4,2.4-1.46,3.45-3.76,4.11-5.42,1.81-4.55-.56-8.58-1.32-5.59-1.94,7.62-6.26,10.4-10.82,10.19-5.67-.26-13.46-2.88-13.45-.58Z"/>
      <path class="cls-4" d="M39.99,41.82c-17.28.39-2.87,6.17,8.52,8.76,11.39,2.59,2.87-9.02-8.52-8.76Z"/>
      <path class="cls-4" d="M63.7,56.31c-5.66-3.13-3.25,4.68,2.56,7.27,5.81,2.59,3.95-3.66-2.56-7.27Z"/>
      <path class="cls-2" d="M97.41,64.2c-5.28,10.1,16.97,3.4,12.09-4.31-4.88-7.7-7.67-4.15-12.09,4.31Z"/>
      <path class="cls-4" d="M91.13,5.87c-5.64,4.27-1.72,9.64,1.43,4.8,3.02-4.63.6-6.34-1.43-4.8Z"/>
      <path class="cls-2" d="M4.75,118.18c-3.41,5.46,14.55,20.88,19.77,17.31,8.56-5.86-11.98-29.81-19.77-17.31Z"/>
      <path class="cls-4" d="M16.25,69.13c3.14.18,6.74,8.78,17.04,12.85,10.29,4.07,15,11.22,13.3,10.71-1.69-.51-6.36-5.9-15.46-7.61-9.1-1.72-17.58-16.1-14.88-15.95Z"/>
      <path class="cls-4" d="M48.17,96.19c-.18-3.68,3.25,4.39,4.22,8.53,1.07,4.56-.62,9.79-1.3,9.04-.55-.6-.35-4.4-.78-8.02-.63-5.34-2-6.76-2.14-9.55Z"/>
      <path class="cls-4" d="M172.65,105.11c-5.45,3.72.22,4.14,12.74,1.34,12.53-2.79,21.01-10.95,16.54-8.41-4.95,2.82-14.06,5-21.19,6.28-4.22.75-7.08.09-8.1.79Z"/>
      <path class="cls-4" d="M185.04,80.34c-10.29.16-3.88,8.41,1.82,7.29,5.7-1.12,10.36-7.47-1.82-7.29Z"/>
      <path class="cls-4" d="M136.43,132.32c-8.07,3.58,12.69,9.28,9.07,5.25-3.62-4.03-2.83-8.01-9.07-5.25Z"/>
      <path class="cls-3" d="M103.4,101.08c-8.03,7.11-7.02,26.37,3.91,17.99,10.93-8.38,31.93-.93,26.02-9.31-5.91-8.38-19.43-17.99-29.93-8.69Z"/>
      <path class="cls-5" d="M182.75,64.09c-8.79,2.89-9.64-.23-7.7-4.58-.28,3.23,4.25,5.95,8.76.64,5.27-6.21,1.03-10.59,1.03-10.59h.01c3.54,1.99,4.94,12.22-2.11,14.52Z"/>
      <path class="cls-4" d="M181.79,50.9c-4.21,3.29-4.31,8.69-1.04,6.49s5.09-9.64,1.04-6.49Z"/>
    </g>
  </g>
</svg>