<?xml version="1.0" encoding="UTF-8"?>
<svg id="Layer_2" data-name="Layer 2" xmlns="http://www.w3.org/2000/svg" viewBox="0 0 211.05 211.05">
  <defs>
    <style>
      .cls-1 {
        opacity: .65;
      }

      .cls-1, .cls-2, .cls-3 {
        fill: #adfe7d;
      }

      .cls-1, .cls-3 {
        isolation: isolate;
      }

      .cls-4 {
        fill: #67d133;
      }

      .cls-5 {
        fill: #73de42;
      }

      .cls-3 {
        opacity: .4;
      }

      .cls-6 {
        fill: #84ee43;
      }
    </style>
  </defs>
  <g id="_Шар_1" data-name=" Шар 1">
    <g>
      <path class="cls-6" d="M45.68,132.46c2.09-4.41,1.79-8.34-5.52-10.54-17.34-5.22-52.95-8.58-35.44-32.25,8.65-11.72,17.69-12.74,25.77-12.36,6.76.31,12.84,1.63,17.5-1.48-.67.45-.67.44.02-.01,1.03-.68,1.98-1.59,2.86-2.76,9.61-12.9-31.23-20.34-17.93-55.93C37.34,5.35,42.88.62,48.62.06c1.78-.19,3.6.04,5.39.58.02,0,.04,0,.06,0,1.81.54,3.59,1.4,5.34,2.49.02.02.04.04.06.05.43.26.84.54,1.27.84,7.32,5.07,13.86,13.81,17.49,19.66,8.35,13.4,18.44,13.43,22.69,8.5,4.24-4.93-6.71-20.37,9.45-28.19,16.16-7.82,20.74,12.2,16.28,24.33-4.46,12.13,5.29,25.77,27.52,10.09,1.85-1.31,3.79-2.4,5.76-3.27,8.12-3.58,17.01-3.55,24.89-.74.01,0,.01,0,.02,0,13.11,4.68,23.4,17.11,22.6,33.54-1.39,28.69-24.07,33.84-31.96,38.99-7.6,4.97-15.18,26.86-4.5,39.83.4.48.82.96,1.28,1.42,4.56,4.64,14.54,13.91,15.26,23.27v.03c.11,1.49-.01,2.97-.43,4.44-.6,2.13-1.81,4.2-3.78,6.2-17.84,17.99-28.69-11.06-45.7-17.06-10.79-3.8-18.21,2.65-18.9,12.2-1.78,24.61-15.91,27.94-23.55,14.66-7.63-13.3-18.6-23.1-36.56-23.61-17.96-.5-22.48-10.07-22.86-18.17-.14-2.88,2.59-6.63,5.36-10.5,1.73-2.41,3.49-4.86,4.57-7.17v-.03Z"/>
      <path class="cls-6" d="M73.89,209.07c-13.83-4.38-20.77-21.71-18.71-31.32,1.35-6.25,6.51-9.23,16.06-3.26,10.33,6.46,17.99,15.49,20.97,22.95,0,.03,0,.04.02.05,0,.02.02.06.04.12,3.9,9.97-.62,17.08-18.39,11.45h.01Z"/>
      <path class="cls-6" d="M42.96,176.91c-10.26,4.21-6.4,12.79,1.64,9.5,9.14-3.74,8.16-13.53-1.64-9.5Z"/>
      <path class="cls-5" d="M188.04,120.68c-19.72,18.49.96,36.69,14.37,22.41,17.95-19.11,5.35-40.9-14.37-22.41Z"/>
      <path class="cls-6" d="M28.3,64.09c-7.05-2.3-5.65-12.53-2.11-14.52h0c1.14-.64,2.48-.43,3.85,1.15,2.22,2.58,4.67,5.95,5.94,8.79,1.94,4.35,1.09,7.47-7.7,4.58h0Z"/>
      <path class="cls-5" d="M73.88,209.07c-13.83-4.38-20.77-21.71-18.71-31.32,0,.05,0,.09,0,.14-1.11,9.68,9.47,25.59,25.08,27.5,14.37,1.74,12.41-6.5,12.03-7.78,3.9,9.97-.62,17.08-18.39,11.45h0Z"/>
      <path class="cls-1" d="M66.07,183.39c11.37,9.93,18.04,2.08,9.98-5.09-11.93-10.62-21.34-4.84-9.98,5.09Z"/>
      <path class="cls-1" d="M84.24,199.75c5.78,5.85,10.15-3.56,2.79-8.61-10.17-6.99-8.58,2.76-2.79,8.61Z"/>
      <path class="cls-2" d="M81.24,205.36c.6-2.76-6.79-1.91-11.91-3.89s-10.62-10.77-11.71-12.76,2.3,8.97,10.65,12.96,12.93,3.87,12.97,3.7h0Z"/>
      <path class="cls-2" d="M46.92,176.78c-2.43-.83-7.49,1.9-8.1,3.98-.35,1.18,1.72,1.63,4.45.78,4.64-1.44,7.44-3.47,3.64-4.76h.01Z"/>
      <path class="cls-4" d="M60.73,4.04c-.32-.14-.74-.41-1.27-.84.43.26.84.54,1.27.84Z"/>
      <path class="cls-5" d="M35.76,150.14c-.14-2.88,2.59-6.63,5.36-10.5-8.79,16.86,9.14,18.55,24.35,15.65,15.21-2.89,20.27,7.42,32.1,15.97,11.84,8.55,7.1-18.34,11.89-38.3,4.78-19.96,22.43,2.59,28.61,10.59,6.19,8.01,19.67,24.81,31.16,35.75,11.05,10.52,17.77-4.72,18.28-7.56-.06.61-.18,2.12-.41,4.19-.6,2.13-1.81,4.2-3.78,6.2-6.2,6.25-11.56,6.83-16.62,4.65h0c-9.51-4.08-17.98-17.79-29.08-21.71-10.79-3.8-18.21,2.65-18.9,12.2-1.78,24.61-15.91,27.94-23.55,14.66-7.63-13.3-18.6-23.1-36.56-23.61-11.67-.33-17.66-4.48-20.53-9.57-.03-.06-.07-.11-.1-.17-1.48-2.7-2.1-5.65-2.23-8.43h.02Z"/>
      <path class="cls-5" d="M40.15,121.94c-17.34-5.22-52.95-8.58-35.44-32.25,8.65-11.72,17.69-12.74,25.77-12.36-7.38-.1-14.85.55-21.01,7.75-.34.41-.68.84-1.01,1.28-13.73,18.19,28.52,15.35,40.24,22.88,13.46,8.66,5.18,12.34-3.03,23.25,2.09-4.41,1.79-8.34-5.52-10.54h0Z"/>
      <path class="cls-4" d="M38.09,158.74c7.75,13.02,29.42,2.88,41.57,8.08,12.14,5.21,17.19,30.86,28.04,29.22,10.86-1.63,5.43-18.95,9.45-35.77,4.02-16.8,15.27-11.41,22.51-2.57,7.22,8.82,25.3,28.19,27.03,29.08-9.51-4.08-17.98-17.79-29.08-21.71-10.79-3.8-18.21,2.65-18.9,12.2-1.78,24.61-15.91,27.94-23.55,14.66-7.63-13.3-18.6-23.1-36.56-23.61-11.67-.33-17.66-4.48-20.53-9.57h.02Z"/>
      <path class="cls-5" d="M170.98,146.76c-1.55-2.14-14.38-10.63-9.98-41.89,4.39-31.26,25.27-16.5,33.79-35.75,8.51-19.25-.04-29.13-9.97-34.71,9.8,3.5,18.01,11.3,21.21,21.89h0c1.1,3.58,1.6,7.49,1.4,11.65-1.39,28.69-24.07,33.84-31.96,38.99-6.89,4.5-13.77,22.93-7.02,35.99.01,0,.02.02.02.03.1.21.2.4.32.59.61,1.12,1.34,2.2,2.18,3.22h0Z"/>
      <path class="cls-4" d="M168.45,142.93c-2.24-3.91-12.33-20.85.34-39.53,13.54-19.96,41.34-9.07,37.24-47.09,1.1,3.58,1.6,7.49,1.4,11.65-1.39,28.69-24.07,33.84-31.96,38.99-6.89,4.5-13.77,22.93-7.02,35.99h0Z"/>
      <path class="cls-5" d="M79.64,71.99c12.59-32.16-5.05-54.14-1.42-48.29,8.35,13.4,18.44,13.43,22.69,8.5,4.24-4.93-6.71-20.37,9.45-28.19,16.16-7.82,20.74,12.2,16.28,24.33s5.29,25.77,27.52,10.09c1.85-1.31,3.79-2.4,5.76-3.27.11.3.17.46.17.46-1.77.3-12.22,8.28-29.46,22.22-17.24,13.93-16.27-18.75-26.89-11.64-10.64,7.11-15.1,20.29-10.17,34.23,4.94,13.93-19.48,5.73-13.93-8.45h0Z"/>
      <path class="cls-4" d="M36.82,22.6c-1.63,21.84,29.7,32.39,18.06,47.83-2.02,2.68-4.33,4.36-6.82,5.41,1.03-.68,1.98-1.59,2.86-2.76,9.61-12.9-31.23-20.34-17.93-55.93C38.76,1.7,46.48-1.63,54.05.65c-7.35-1.32-15.94,4.72-17.24,21.96h.01Z"/>
      <path class="cls-6" d="M118.9,18.4c6.79,11.07,11.29.27,4.86-9.17-7.54-11.07-11.65-1.91-4.86,9.17Z"/>
      <path class="cls-1" d="M50.92,34.41c7.7,14.88,26.92-15.68,9.17-28.38-20.48-14.65-16.87,13.5-9.17,28.38Z"/>
      <path class="cls-1" d="M181.84,38.41c-34.46-6.71-45.06,27.72-52.94,33.83-7.88,6.11,11.29,15.86-2.03,23.68-11.61,6.82,16.08,38.06,22.94,23.3,2.15-4.64-15.77-17.57-6.71-34.15,2.98-5.45,9.39-9.82,19.43-12.83,26.77-8.02,44.64-28.89,19.31-33.83h0Z"/>
      <path class="cls-2" d="M176.88,172.26c11.31,7.6,7.36-8.63-4.11-19.27-12.89-11.95-7.2,11.67,4.11,19.27Z"/>
      <path class="cls-1" d="M20.67,92.97c15.71,4.05,40.89-8.48,13.53-13.29-25.65-4.5-29.24,9.24-13.53,13.29Z"/>
      <path class="cls-1" d="M98.39,139.66c-1.71-18.9-12.68-22.35-24.2-16.53-11.52,5.82-17.27,22.82-6.8,20.43,10.47-2.38,19.35,5.83,26.18,15.19,6.83,9.36,5.95-6.74,4.83-19.09h0Z"/>
      <path class="cls-2" d="M51.36,155.76c-4.56.21-8.88-2.57-10.82-10.19-.76-2.99-3.13,1.04-1.32,5.59.66,1.66,1.71,3.96,4.11,5.42,5.93,3.61,21.48.49,21.48-1.4.01-2.3-7.78.32-13.45.58Z"/>
      <path class="cls-2" d="M162.53,50.58c11.39-2.59,25.8-8.37,8.52-8.76-11.39-.26-19.91,11.35-8.52,8.76Z"/>
      <path class="cls-2" d="M144.78,63.58c5.81-2.59,8.22-10.4,2.56-7.27-6.51,3.61-8.37,9.86-2.56,7.27Z"/>
      <path class="cls-1" d="M101.54,59.89c-4.88,7.71,17.37,14.41,12.09,4.31-4.42-8.46-7.21-12.01-12.09-4.31Z"/>
      <path class="cls-2" d="M118.48,10.67c3.15,4.84,7.07-.53,1.43-4.8-2.03-1.54-4.45.17-1.43,4.8Z"/>
      <path class="cls-1" d="M186.52,135.49c5.22,3.57,23.18-11.85,19.77-17.31-7.79-12.5-28.33,11.45-19.77,17.31Z"/>
      <path class="cls-2" d="M179.91,85.08c-9.1,1.71-13.77,7.1-15.46,7.61-1.7.51,3.01-6.64,13.3-10.71,10.3-4.07,13.9-12.67,17.04-12.85,2.7-.15-5.78,14.23-14.88,15.95Z"/>
      <path class="cls-2" d="M160.73,105.74c-.43,3.62-.23,7.42-.78,8.02-.68.75-2.37-4.48-1.3-9.04.97-4.14,4.4-12.21,4.22-8.53-.14,2.79-1.51,4.21-2.14,9.55Z"/>
      <path class="cls-2" d="M38.4,105.11c-1.02-.7-3.88-.04-8.1-.79-7.13-1.28-16.24-3.46-21.19-6.28-4.47-2.54,4.01,5.62,16.54,8.41,12.52,2.8,18.19,2.38,12.74-1.34h.01Z"/>
      <path class="cls-2" d="M24.18,87.63c5.7,1.12,12.11-7.13,1.82-7.29-12.18-.18-7.52,6.17-1.82,7.29Z"/>
      <path class="cls-2" d="M65.54,137.57c-3.62,4.03,17.14-1.67,9.07-5.25-6.24-2.76-5.45,1.22-9.07,5.25Z"/>
      <path class="cls-3" d="M107.64,101.07c-10.5-9.3-24.02.31-29.93,8.69-5.91,8.38,15.09.93,26.02,9.31,10.93,8.38,11.94-10.88,3.91-17.99h0Z"/>
      <path class="cls-4" d="M28.3,64.08c-7.05-2.3-5.65-12.53-2.11-14.52h0s-4.24,4.38,1.03,10.59c4.51,5.31,9.04,2.59,8.76-.64,1.94,4.35,1.09,7.47-7.7,4.58h.01Z"/>
      <path class="cls-2" d="M30.29,57.39c3.27,2.2,3.17-3.2-1.04-6.49-4.05-3.15-2.23,4.29,1.04,6.49Z"/>
    </g>
  </g>
</svg>