<?xml version="1.0" encoding="UTF-8"?>
<svg id="Layer_2" data-name="Layer 2" xmlns="http://www.w3.org/2000/svg" viewBox="0 0 201.91 236.03">
  <defs>
    <style>
      .cls-1 {
        fill: #77df42;
      }

      .cls-2 {
        opacity: .65;
      }

      .cls-2, .cls-3, .cls-4 {
        fill: #adfe7d;
      }

      .cls-3 {
        opacity: .4;
      }

      .cls-5 {
        fill: #67d133;
      }

      .cls-6 {
        fill: #abff83;
      }

      .cls-7 {
        fill: #81ed4c;
      }
    </style>
  </defs>
  <g id="_Шар_1" data-name="Шар 1">
    <g>
      <path class="cls-7" d="M201.64,137.42c-3.33,16.58-47.96-9.26-44.26,2.08.09.25.19.52.32.8.12.24.21.41.24.47,5.41,10.24,37.82,35.19,35.46,53.25h0c-.53,4.11-2.87,7.85-7.72,10.99-.29.19-.59.37-.88.54-.86.52-1.71.97-2.52,1.33-.43.2-.86.38-1.29.54-.21.08-.42.15-.63.22-.17.06-.34.11-.51.16-1.23.38-2.41.58-3.54.64-.19.01-.38.02-.57.02-.27,0-.54,0-.81-.02-.23,0-.45-.03-.67-.06h-.01s-.02.01-.03,0c-.01,0-.02,0-.03,0-.22-.02-.43-.05-.65-.09-.22-.04-.45-.08-.67-.13-.17-.03-.34-.07-.51-.12-.21-.05-.42-.12-.63-.19-.22-.07-.43-.14-.65-.23-.18-.07-.36-.14-.54-.22-.18-.08-.37-.16-.55-.26-.16-.08-.33-.16-.49-.25-.28-.14-.55-.29-.82-.47-.2-.12-.41-.25-.6-.38-.03-.02-.07-.04-.1-.07-.19-.13-.37-.26-.55-.4-.59-.43-1.17-.92-1.73-1.44-.18-.17-.37-.35-.55-.53-.75-.73-1.46-1.53-2.15-2.38-.3-.37-.59-.74-.88-1.12-.06-.08-.12-.17-.19-.26-.29-.4-.58-.81-.87-1.23-.32-.46-.63-.93-.93-1.4-.08-.1-.14-.21-.21-.32-.17-.25-.33-.51-.48-.76-.08-.12-.15-.24-.22-.36-.16-.27-.33-.55-.49-.82-.33-.55-.66-1.12-.97-1.68-.32-.56-.63-1.13-.93-1.69-.31-.56-.62-1.13-.91-1.7-.01-.02-.01-.03-.02-.04-.03-.06-.07-.12-.1-.19-.03-.06-.07-.13-.1-.2,0,0,0-.02-.02-.03-.09-.14-.16-.29-.24-.44-.01-.03-.03-.05-.03-.07-.25-.47-.49-.94-.73-1.4-1.58-3.04-3.05-5.91-4.5-8.19-.09-.15-.19-.29-.28-.43-.34-.52-.68-1.01-1.02-1.45-.23-.31-.46-.59-.69-.85-.1-.12-.2-.23-.31-.34-.11-.13-.23-.25-.35-.36-.11-.11-.23-.22-.35-.32-.08-.08-.15-.14-.23-.2-.1-.09-.21-.17-.32-.24-.08-.07-.16-.12-.25-.17-.09-.06-.17-.11-.26-.16-.12-.07-.24-.13-.36-.18-.24-.12-.48-.2-.72-.25-.12-.03-.25-.05-.37-.07-.83-.1-1.68.13-2.57.74-6.93,4.75-1.82,19.31-2.62,30.22-.03.37-.06.74-.1,1.1-.04.37-.09.74-.16,1.11v.02s0,.03-.01.04c-.05.33-.11.66-.18.98-.05.24-.11.48-.18.72-.11.44-.25.87-.4,1.29-.21.58-.46,1.14-.76,1.68-.12.23-.25.45-.39.67-.12.19-.24.36-.37.54-.12.17-.25.34-.39.5-.14.17-.29.34-.45.51-.15.15-.31.31-.47.45-.32.3-.67.58-1.06.85-.23.16-.47.31-.72.46-.31.18-.63.35-.98.51-.21.1-.43.19-.66.28-.15.07-.31.13-.48.18,0,0-.01.01-.02.01-.12.05-.25.09-.39.13-.2.07-.42.14-.64.19-.22.06-.44.12-.68.17-.22.06-.45.11-.69.15-.73.14-1.52.25-2.36.31-.18.02-.36.03-.54.04-.26.02-.53.03-.8.04-26.37.84,11-52.48-2.46-55.21-13.46-2.74-8.37,33.08-26.07,30.14-.23-.04-.46-.08-.68-.12-.04,0-.07-.02-.1-.03-.06-.01-.11-.02-.16-.03-.05-.01-.1-.02-.15-.03s-.08-.02-.1-.02h0c-.25-.06-.5-.12-.73-.18-.2-.05-.39-.11-.58-.17-.19-.05-.38-.11-.55-.17-.28-.1-.54-.2-.79-.3-.25-.1-.48-.21-.71-.31-.29-.15-.57-.31-.84-.47-.13-.08-.26-.16-.38-.25-.38-.25-.71-.52-1.01-.81-.03-.02-.05-.04-.07-.06-.18-.17-.34-.34-.49-.52-.65-.76-1.09-1.6-1.37-2.49-.04-.12-.07-.23-.1-.34-.15-.55-.25-1.12-.3-1.7-.06-.6-.07-1.22-.04-1.84.02-.45.06-.91.11-1.37.13-1.15.35-2.3.57-3.42v-.02c.8-4.01,1.74-7.57-.59-8.8-.83-.44-1.78-.5-2.79-.21-.02,0-.04,0-.06.01-5.93,1.68-13.85,14.72-13.7,26.61.19,13.96,3.74,46.21-17.99,38.9-9.93-3.35-9.71-11.3-5.83-20.25,0-.02,0-.03.02-.04.67-1.56,1.46-3.14,2.31-4.74.03-.04.05-.08.06-.1,1.97-3.64,4.33-7.33,6.68-10.85.28-.43.57-.85.85-1.27.37-.54.73-1.08,1.09-1.61,1.99-2.94,3.89-5.71,5.44-8.16.3-.46.58-.91.84-1.35.03-.04.05-.08.07-.12,0-.03.03-.06.05-.1.06-.08.11-.16.16-.24.3-.51.59-1,.85-1.48.31-.57.59-1.13.85-1.69.09-.19.17-.38.25-.57.18-.4.34-.8.48-1.2.08-.2.15-.41.22-.61.05-.13.09-.27.13-.4.08-.24.15-.49.22-.73s.13-.48.19-.72c.07-.29.14-.58.2-.87h0c.04-.17.06-.32.09-.47.02-.13.03-.25.05-.37,0,0,0-.01,0-.02,0-.02,0-.05,0-.07.04-.24.07-.49.1-.73.03-.24.06-.48.07-.72.02-.14.03-.28.03-.42.02-.32.03-.65.03-.97s0-.62-.03-.92c-.02-.37-.05-.75-.09-1.11-.04-.3-.09-.59-.14-.88-.05-.28-.11-.56-.18-.84-.07-.27-.14-.54-.22-.8-.09-.27-.18-.54-.28-.79-.05-.15-.11-.29-.17-.43-.11-.26-.23-.51-.36-.76-.09-.18-.18-.35-.28-.52-.12-.2-.24-.4-.36-.59-.54-.81-1.17-1.52-1.88-2.11-.17-.14-.34-.28-.52-.41-.79-.57-1.66-1.01-2.6-1.28-.16-.04-.31-.09-.47-.12-.16-.05-.32-.08-.49-.1-.32-.06-.66-.1-1-.12-.25-.01-.5-.02-.75-.01-.25,0-.51.02-.77.05-.52.05-1.04.15-1.57.29-.54.14-1.08.33-1.63.56-10.41,4.39-27.5,24.5-46.87,3.35C2.22,159.9-.12,153.9,0,148.84v-.02c0-.25.02-.5.04-.75,0-.1,0-.2.02-.29.02-.16.03-.33.06-.49,0-.09.02-.18.04-.26.02-.11.03-.23.05-.33.08-.56.21-1.1.37-1.63.05-.17.1-.34.16-.51.02-.09.05-.18.1-.28.07-.22.15-.43.24-.65.08-.19.16-.39.25-.58.05-.12.11-.23.17-.35.46-.95,1.02-1.85,1.67-2.69.19-.24.38-.48.58-.71.26-.31.53-.6.81-.89.25-.25.51-.5.78-.74.17-.16.35-.32.53-.47.31-.26.63-.51.96-.76.23-.17.46-.34.7-.5.27-.19.54-.37.82-.54.46-.29.94-.57,1.43-.82.24-.13.49-.26.74-.38.37-.18.75-.35,1.13-.51.38-.16.77-.31,1.16-.46.28-.1.56-.2.84-.29.77-.25,1.56-.47,2.36-.66.27-.06.55-.12.82-.17,1.96-.37,3.95-.52,5.88-.43,1.58.07,3.25.33,4.98.71.02,0,.04,0,.06.01,5.43,1.21,11.48,3.7,17.24,6.1t.02.01c10.15,4.24,19.45,8.2,23.02,4.39,5.14-5.47,8.29-17.14-4.37-20.66-.19-.05-.31-.08-.35-.09-2.72-.71-6.13-1.05-10.38-.89-24.67.92-43.96-4.19-34.21-12.79,8.31-7.33,24.41,2.93,31.28,2.34,0,.01.02,0,.03,0,.02,0,.04,0,.07,0,.6-.05,1.13-.2,1.57-.45.02-.02.03-.03.06-.05,0,0,.02-.01.03-.01,0,0,0-.01.02-.01.35-.22.64-.51.87-.89t0-.02s0-.01,0-.01h0c1.61-2.82-7.83-4.23-18.93-7.04-12.82-3.25-27.86-8.37-30.59-19.7-1.97-8.17.7-15.39,5.68-20.53,4.59-4.75,11.14-7.72,17.81-8.04.63-.03,1.27-.04,1.91-.02.26.01.53.02.79.04,3.95.24,7.85,1.46,11.33,3.84,5.86,4.01,10.09,10.86,13.9,17.84,1.82,3.32,3.55,6.68,5.31,9.76,0,.01,0,.03.02.04,1.25,2.18,2.51,4.22,3.84,6.02,4.11,5.56,8.84,8.84,15.58,6.75,3.31-1.02,7.12-3.34,11.57-7.33,11.58-10.38-25.32-74.44-6.89-86.81,2.15-1.44,4.28-2.48,6.35-3.15.18-.07.36-.12.55-.17,13.57-4.07,24.65,7.03,23.21,18.68h0c-.2,1.62-.64,3.24-1.35,4.84-6.57,14.81-22.29,83.55-6.21,78.92.07-.02.13-.04.2-.06.18-.05.36-.12.55-.19,15.48-6.22,19.62-30.71,28.72-33.96,1.09-.39,2.24-.47,3.49-.19.34.08.65.16.94.27,1.9.61,2.82,1.63,3.09,2.91.27,1.28-.1,2.83-.77,4.5-1.63,4.06-5.02,8.87-5.2,12.44h0c-.06,1.08.18,2.04.84,2.84.2.24.42.46.66.66.03.02.06.04.09.06,4.97,4.06,18.14.84,20.68-8.54.37-1.34.52-2.8.39-4.39-1.07-13.3,12.6-32.78,24.07-23.91,2.23,1.73,4.18,3.99,5.69,6.61.98,1.7,1.77,3.55,2.33,5.5.66,2.3,1,4.74.94,7.22,0,.02-.01.05-.01.07-.02.99-.11,1.98-.27,2.97-1.23,7.75-6.63,15.56-18.38,20.71-17.12,7.49-20.13,16.14-16.85,21.51.03.04.04.06.05.07,1.54,2.48,4.44,4.24,7.9,4.85,8.33,1.45,26.73-1.86,33.57,3.78.09.07.17.15.25.23.08.05.15.12.23.2.06.06.13.13.19.2h.01c1.67,1.76,2.39,4.25,1.68,7.76Z"/>
      <path class="cls-1" d="M50.85,110.81s.02,0,.03,0c0,.01-.02.01-.02.01h-.01Z"/>
      <path class="cls-1" d="M51.79,110.28s-.02.01-.02.01c-.07.02-.14.04-.21.06.38-.22.7-.51.94-.9,0-.02.03-.04.04-.06,1.72-2.84-7.76-4.25-18.91-7.07-12.82-3.25-27.86-8.37-30.59-19.7-2-8.29.78-15.6,5.91-20.75h0v-.02c4.61-4.64,11.1-7.52,17.7-7.8.63-.03,1.27-.04,1.91-.02,4.18.15,8.33,1.37,12,3.88,5.86,4.01,10.09,10.86,13.9,17.84-10.36-15.7-24.94-21.77-32.54-6.82-9.02,17.76,27.98,27.82,34.3,33.39,4.73,4.17-1.18,6.86-4.43,7.96Z"/>
      <path class="cls-1" d="M140.11,69.28c-1.16.16-2.71.75-4.71,1.88-14.44,8.15-4.06,39.23-25.27,36.08-21.21-3.16-4.96,13.08-12.18,27.45-7.22,14.37-28.43-26.55-38.39-49.03,1.4,2.44,2.82,4.71,4.33,6.66,0,.02.03.05.06.09,4.06,5.2,8.76,8.12,15.38,5.91,3.23-1.07,6.92-3.37,11.22-7.22,11.58-10.38-25.32-74.44-6.89-86.81,2.27-1.52,4.51-2.59,6.7-3.26.18-.07.36-.12.55-.17,11.99-3.38,21.96,5.08,22.91,15.17.01.07.01.14.02.21,0,.12.02.24.02.36.01.21.02.42.03.64,0,.06.01.11.01.17.02,2.34-.44,4.74-1.48,7.08-6.62,14.91-22.52,84.54-5.86,78.81.13-.03.26-.08.4-.14,15.68-6.3,19.73-31.34,29.07-34.07.98-.29,2.02-.33,3.14-.08.34.08.65.16.94.27Z"/>
      <path class="cls-1" d="M159.85,84.04c-.79,5.45-3.6,14.51-13.37,18.28-14.44,5.56-12.18-6.93-9-13.29-.06,1.07.18,2.03.84,2.83.23.27.48.49.76.66.03.02.06.04.09.06,4.97,4.06,18.14.84,20.68-8.54Z"/>
      <path class="cls-1" d="M193.4,194.03c-.53,4.1-2.87,7.84-7.72,10.98-.29.19-.59.37-.88.54-.86.52-1.71.97-2.52,1.33-.43.2-.86.38-1.29.54-.21.08-.42.15-.63.22-.17.06-.34.11-.51.16-1.23.38-2.41.58-3.54.64-.19.01-.38.02-.57.02-.27,0-.54,0-.81-.02-.23,0-.45-.03-.67-.06-.01.01-.02,0-.04,0-.01,0-.02,0-.03,0-.22-.02-.43-.05-.65-.09-.22-.04-.45-.08-.67-.13-.17-.03-.34-.07-.51-.12-.21-.05-.42-.12-.63-.19-.22-.07-.43-.14-.65-.23-.18-.07-.36-.14-.54-.22-.18-.08-.37-.16-.55-.26-.16-.08-.33-.16-.49-.25-.28-.14-.55-.29-.82-.47-.2-.12-.41-.25-.6-.38-.03-.02-.07-.04-.1-.07-.19-.13-.37-.26-.55-.4-.59-.43-1.17-.92-1.73-1.44-.18-.17-.37-.35-.55-.53-.75-.73-1.46-1.53-2.15-2.38-.3-.37-.59-.74-.88-1.12-.06-.08-.12-.17-.19-.26-.29-.4-.58-.81-.87-1.23-.32-.46-.63-.93-.93-1.4-.08-.1-.14-.21-.21-.32-.17-.25-.33-.51-.48-.76-.08-.12-.15-.24-.22-.36-.16-.27-.33-.55-.49-.82-.33-.55-.66-1.12-.97-1.68-.32-.56-.63-1.13-.93-1.69-.31-.56-.62-1.13-.91-1.7-.01-.02-.01-.03-.02-.04-.03-.06-.07-.12-.1-.19-.13-.22-.24-.45-.36-.67-.01-.03-.03-.05-.03-.07-.25-.47-.49-.94-.73-1.4-1.58-3.04-3.05-5.91-4.5-8.19-.09-.15-.18-.29-.28-.43-.34-.52-.68-1.01-1.02-1.45-.23-.3-.46-.59-.69-.85-.1-.12-.2-.23-.31-.34-.11-.13-.23-.25-.35-.36-.12-.12-.23-.23-.35-.32-.08-.08-.15-.14-.23-.2-.1-.09-.21-.17-.32-.24-.08-.07-.16-.12-.25-.17-.08-.06-.17-.11-.26-.16-.12-.07-.24-.13-.36-.18-.24-.12-.48-.2-.72-.25-.13-.03-.25-.06-.37-.07-.83-.1-1.68.13-2.57.74-6.93,4.75-1.82,19.31-2.62,30.22-.03.37-.06.74-.1,1.1-.04.37-.09.74-.16,1.11v.02s0,.03-.01.04c-.05.33-.11.66-.18.98-.05.24-.11.48-.18.72-.11.44-.25.87-.4,1.29-.21.58-.46,1.14-.76,1.68-.12.23-.25.45-.39.67-.12.19-.24.36-.37.54-.12.17-.25.34-.39.5-.14.17-.29.34-.45.51-.15.15-.31.31-.47.45-.32.3-.67.58-1.06.85-.23.16-.47.31-.72.46-.31.18-.63.35-.98.51-.21.1-.43.19-.66.28-.15.07-.31.13-.48.18,0,0-.01.01-.02.01-.12.05-.25.09-.39.13-.2.07-.42.14-.64.19-.22.06-.44.12-.68.17-.22.06-.45.11-.69.15-.73.14-1.52.25-2.36.31-.18.02-.36.03-.54.04-.26.02-.53.03-.8.04-26.37.84,11-52.48-2.46-55.21-13.46-2.74-8.37,33.08-26.07,30.14-.23-.04-.46-.08-.68-.12-.08-.02-.17-.04-.26-.06-.05-.01-.1-.02-.15-.03s-.08-.02-.1-.02h0c-.25-.06-.5-.12-.73-.18-.2-.05-.39-.11-.58-.17-.19-.05-.38-.11-.55-.17-.28-.1-.54-.2-.79-.3-.25-.1-.48-.21-.71-.31-.29-.15-.57-.31-.84-.47-.13-.08-.26-.16-.38-.25-.38-.25-.71-.52-1.01-.81-.03-.02-.05-.04-.07-.06-.18-.17-.34-.34-.49-.52-.65-.76-1.09-1.6-1.37-2.49-.04-.12-.07-.23-.1-.34-.15-.55-.25-1.12-.3-1.7-.06-.6-.07-1.22-.04-1.84.02-.45.06-.91.11-1.37.13-1.15.35-2.3.57-3.42,0,.63.05,14.79,10.14,8.34,10.31-6.6,4.74-42.85,14.21-49.54,9.48-6.68,10.59,12.19,15.61,16.97,5.02,4.78,7.28-7.68,14.23-4.94,6.95,2.75,12.81,41.16,28.69,50.25,15.7,8.98,21.78-5.19,21.93-5.53Z"/>
      <path class="cls-1" d="M59.9,195.49c-.96,1.33-2.03,2.5-3.2,3.5.28-.43.57-.85.85-1.27.37-.54.73-1.08,1.09-1.61,1.99-2.94,3.89-5.71,5.44-8.16.3-.46.58-.91.84-1.35.1-.16.19-.31.28-.46.3-.51.59-1,.85-1.48.31-.57.59-1.13.85-1.69.09-.19.17-.38.25-.57.18-.4.34-.8.48-1.2.08-.2.15-.41.22-.61.05-.13.09-.27.13-.4.08-.24.15-.49.22-.73s.13-.48.19-.72c.08-.29.14-.58.2-.87h0c.07-.32.12-.63.16-.93.04-.25.08-.49.1-.73.03-.24.06-.48.07-.72.02-.14.03-.28.03-.42.02-.32.03-.65.03-.97s0-.62-.03-.92c-.02-.37-.05-.75-.09-1.11-.04-.3-.09-.59-.14-.88-.05-.28-.11-.56-.18-.84-.07-.27-.14-.54-.22-.8-.09-.27-.18-.54-.28-.79-.05-.15-.11-.29-.17-.43-.11-.26-.23-.51-.36-.76-.09-.18-.18-.35-.28-.52-.11-.2-.23-.4-.36-.59-.54-.81-1.17-1.52-1.88-2.11-.16-.15-.34-.28-.52-.41-.79-.57-1.66-1.01-2.6-1.28-.62-.18-1.28-.3-1.96-.34-.25-.01-.5-.02-.75-.01-.25,0-.51.02-.77.05-.52.06-1.04.15-1.57.29-.54.14-1.08.33-1.63.56-10.41,4.39-27.5,24.5-46.87,3.35C2.22,159.9-.12,153.9,0,148.84v-.02c0-.25.02-.5.04-.75,0-.1,0-.2.02-.29.02-.16.03-.33.06-.49,0-.09.02-.18.04-.26.02-.11.03-.23.05-.33.08-.56.21-1.1.37-1.63.05-.17.1-.34.16-.51.02-.09.05-.18.1-.28.07-.22.15-.43.24-.65.08-.19.16-.39.25-.58.05-.12.11-.23.17-.35.46-.95,1.02-1.85,1.67-2.69.19-.24.38-.48.58-.71.26-.31.53-.6.81-.89.25-.25.51-.5.78-.74.17-.16.35-.32.53-.47.31-.26.63-.51.96-.76.23-.17.46-.34.7-.5.27-.19.54-.37.82-.54.46-.29.94-.57,1.43-.82.24-.13.49-.26.74-.38.37-.18.75-.35,1.13-.51.38-.16.77-.31,1.16-.46.28-.1.56-.2.84-.29.78-.26,1.57-.48,2.36-.66.27-.06.55-.12.82-.17l.63.06c-1.67.4-21.87,12.75-7.93,24.82,13.94,12.08,49.61-10.12,59.09,0,9.48,10.13,8.47,14.75-8.73,38.5Z"/>
      <path class="cls-5" d="M114.12,19.54c-.1-.73-.17-1.44-.22-2.13,0-.06-.01-.11-.01-.17,0-.34-.02-.67-.05-1-.01-.07-.01-.14-.02-.21-.9-8.51-14.75-17.49-24.12-2.92-9.57,14.9-.3,43.16,4.26,62.31,4.56,19.15,1.97,14.9-1.52,19-3.5,4.1-2.58,12.01-12.31,10.49-9.12-1.43-15.43-11.27-16.18-12.5-.03-.04-.05-.07-.06-.09,0-.02-.02-.03-.02-.03,0,0-.04-.25-.12-.72,4.11,5.56,8.84,8.84,15.58,6.75,3.23-1.07,6.92-3.37,11.22-7.22,11.58-10.38-25.32-74.44-6.89-86.81,2.27-1.52,4.51-2.59,6.7-3.26.18-.07.36-.12.55-.17,13.57-4.07,24.65,7.03,23.21,18.68Z"/>
      <path class="cls-5" d="M53.38,108.86c-.22.19-.45.36-.7.49h0c-.06.05-.12.08-.18.1,0-.02.03-.04.04-.06,1.72-2.84-7.76-4.25-18.91-7.07-12.82-3.25-27.86-8.37-30.59-19.7-2-8.29.78-15.6,5.91-20.75-.02.03-.05.1-.11.22-.75,1.6-4.71,11.03,1.38,20.1,6.69,9.95,50.61,19.98,43.16,26.67Z"/>
      <path class="cls-5" d="M22.72,131.68c1.58.07,3.25.33,4.98.71-3.4-.57-7.01-.73-10.86-.28,1.96-.37,3.95-.52,5.88-.43Z"/>
      <path class="cls-5" d="M77.39,138.95c-3.49,9.57-11.55,8.2-21.58,4.56-3.33-1.21-6.9-3.1-10.79-5,10.15,4.24,19.45,8.2,23.02,4.39,5.14-5.47,8.29-17.14-4.37-20.66,2.59.65,18.05,4.86,13.72,16.71Z"/>
      <path class="cls-5" d="M68.95,175.07c.02-.32.03-.65.03-.97s0-.62-.03-.92c-.02-.37-.05-.75-.09-1.11-.04-.3-.09-.59-.14-.88-.05-.28-.11-.56-.18-.84-.07-.27-.14-.54-.22-.8-.09-.27-.18-.54-.28-.79-.05-.15-.11-.29-.17-.43-.11-.26-.23-.51-.36-.76-.09-.18-.18-.35-.28-.52-.12-.2-.24-.4-.36-.59-.54-.81-1.17-1.52-1.88-2.11-.17-.14-.34-.28-.52-.41-.79-.57-1.66-1.01-2.6-1.28-.62-.18-1.28-.3-1.96-.34-.25-.01-.5-.02-.75-.01-.25,0-.51.02-.77.05-.52.06-1.04.15-1.57.29-.54.14-1.08.33-1.63.56-10.41,4.39-27.5,24.5-46.87,3.35C2.22,159.9-.12,153.9,0,148.84c.12,2.33,1.65,16.38,20.55,19.44,20.61,3.34,38.44-16.74,46.2-7.6,3.84,4.53,3.39,10.99,1.99,16.26.04-.24.07-.49.1-.73.03-.24.06-.48.07-.72.02-.14.03-.28.03-.42Z"/>
      <path class="cls-5" d="M71.45,196.07c.19,13.96,3.74,46.21-17.99,38.9-9.93-3.35-9.71-11.3-5.83-20.25-1.07,3.63-.97,8.68,5.14,12.98,10.65,7.49,17.18-6.99,15.81-16.87-1.37-9.86,5.42-40.41,16.57-41.37-5.93,1.68-13.85,14.72-13.7,26.61Z"/>
      <path class="cls-5" d="M95.87,192.87h0s0,0,0,0h0Z"/>
      <path class="cls-5" d="M139.03,208.5c-.05.24-.11.48-.18.72-.11.44-.25.87-.4,1.29-.21.58-.46,1.14-.76,1.68-.12.23-.25.45-.39.67-.12.19-.24.36-.37.54-.12.17-.25.34-.39.5-.14.17-.29.34-.45.51-.15.15-.31.31-.47.45-.32.3-.67.58-1.06.85-.23.16-.47.31-.72.46-.31.18-.63.35-.98.51-.21.1-.43.19-.66.28-.15.07-.31.13-.48.18,0,0-.01.01-.02.01-.12.05-.25.09-.39.13-.2.07-.42.14-.64.19-.22.06-.44.12-.68.17-.22.06-.45.11-.69.15-.73.14-1.52.25-2.36.31-.18.02-.36.03-.54.04-.26.02-.53.03-.8.04-26.37.84,11-52.48-2.46-55.21-13.46-2.74-8.37,33.08-26.07,30.14-.23-.04-.46-.08-.68-.12-.08-.02-.17-.04-.26-.06.05,0,.1.02.16.03,2.01.3,10.55.61,12.56-15.93,2.28-18.78,5.47-27.44,11.86-22.58,6.38,4.86,9.57,5.77,7.59,15.65-1.97,9.88-11.55,35.41-4.71,43.16,6.38,7.22,14.13-.39,15.44-4.76Z"/>
      <path class="cls-5" d="M155.8,189.64c-.13-.22-.24-.45-.36-.67-.01-.03-.03-.05-.03-.07-.25-.47-.49-.94-.73-1.4-1.58-3.04-3.05-5.91-4.5-8.19-.09-.15-.19-.29-.28-.43-.34-.52-.68-1.01-1.02-1.45-.23-.31-.46-.59-.69-.85-.1-.12-.2-.23-.31-.34-.11-.13-.23-.25-.35-.36-.11-.11-.23-.22-.35-.32-.08-.08-.15-.14-.23-.2-.1-.09-.21-.17-.32-.24-.08-.07-.16-.12-.25-.17-.09-.06-.17-.11-.26-.16-.12-.07-.24-.13-.36-.18-.24-.12-.48-.2-.72-.25-.12-.03-.25-.05-.37-.07-.83-.1-1.68.13-2.57.74-6.93,4.75-1.82,19.31-2.62,30.22-.03.37-.06.74-.1,1.1-.04.37-.09.74-.16,1.11.23-4.57-4.54-32.09,1.43-38.03,5.87-5.84,12.52,14.92,15.05,20.01.03.07.07.14.1.2Z"/>
      <path class="cls-5" d="M201.64,137.42c-3.33,16.58-47.96-9.26-44.26,2.08.09.25.19.52.32.8-.96-1.87-4.1-8.48-.06-9.56,4.55-1.21,24.31,8.82,35.1,8.51,9.97-.28,8.9-7.48,7.22-9.58,1.67,1.75,2.39,4.24,1.68,7.75Z"/>
      <path class="cls-5" d="M193.27,75.07s-.01.05-.01.07c-.02.99-.11,1.98-.27,2.97-1.23,7.75-6.63,15.56-18.38,20.71-17.12,7.49-20.13,16.14-16.85,21.51-.69-.75-7.36-7.38.05-14.66,7.73-7.6,30.68-12.48,33.56-27.06.88-4.46,1.09-8,.96-10.76.66,2.3,1,4.74.94,7.22Z"/>
      <path class="cls-3" d="M116.66,119.93c8.82,6.93,9.85,5.04,9.43,15.74-.42,10.7,9.64,17.39,10.33,7.46.69-9.94,2.08-16.37,6.24-15.93,4.16.44,11.25-17.68-4.97-13.57-4.04,1.02-2.05,5.7-6.48,5.81-3.61.09-8.74-5.82-12.13-6.42-4.32-.77-6.18,3.96-2.43,6.91Z"/>
      <path class="cls-2" d="M169.87,57.59c-13,12.75-9.01,36.44,4.16,25.45,13.18-10.99,5.2-34.63-4.16-25.45Z"/>
      <path class="cls-3" d="M97.94,16.88c-7.65,14.2,3.81,22.88,8.67,11.1,4.85-11.79-1.39-24.62-8.67-11.1Z"/>
      <path class="cls-3" d="M29.95,73.07c17.14,21.29,26.62,3.82,16.44-5.4-10.18-9.22-25.52-5.88-16.44,5.4Z"/>
      <path class="cls-3" d="M20.47,134.67c-14.26.82-16.99,17.96,0,14.74,16.99-3.21,13.7-15.53,0-14.74Z"/>
      <path class="cls-4" d="M27.85,106.87c-8.51.27-8.32,5.81.94,6.83,9.26,1.02,10.33-7.19-.94-6.83Z"/>
      <path class="cls-2" d="M53.86,206.31c-6.17,9.48-1.17,25.58,5.33,13.15,6.51-12.43,2.78-25.62-5.33-13.15Z"/>
      <path class="cls-2" d="M129.28,198.88c-4.42,9.08,2.98,19.69,6.46,11.65s-1.18-22.52-6.46-11.65Z"/>
      <path class="cls-2" d="M172.26,179.34c3.77,16.74,17.15,20.82,20.14,10.95,2.98-9.87-24.86-31.91-20.14-10.95Z"/>
      <path class="cls-3" d="M93.87,167.49c-7.8,8.12-2.47,27.01,2.25,15.57,4.72-11.44,1.71-19.69-2.25-15.57Z"/>
      <path class="cls-4" d="M193.4,127.05c-8.89-2.93-16.26,3.92-5.79,6.15,10.47,2.24,16.53-2.61,5.79-6.15Z"/>
      <path class="cls-6" d="M8.72,139.78c-1.18-.39-9.27,5.46-.98,15.45,8.28,9.99,25.52,4.15,24.27,4.37-1.25.22-16.4,2.53-19.9-4.27-3.5-6.8.78-14.18-3.38-15.55Z"/>
      <path class="cls-6" d="M54.08,229.05c-.56,3.03,8.01,4.99,11.26-.16,3.25-5.15,2.38-9.77,1.1-6.27-1.29,3.5-3.37,4.97-5.61,5.54-2.29.59-6.35-1.24-6.74.89Z"/>
      <path class="cls-6" d="M111.83,160.63c.89-2.58,2.25-9.1,5.31-9.6s10.16,5.86,9.58,7.18c-.58,1.32-5.31-4.3-7.76-4.71-4.95-.83-7.13,7.12-7.13,7.12Z"/>
      <path class="cls-6" d="M127.44,160.29c.55,1.53,1.1,1.51.93.57-.11-.6-.29-1.19-.49-1.53-.54-.89-1.04-.72-.44.97Z"/>
      <path class="cls-6" d="M121.73,197.54c-3.29,4.18-2.15,12.91,2.71,16.58,4.86,3.67-.33-3.56-1.11-5.76-.78-2.2.26-13.18-1.6-10.82Z"/>
      <path class="cls-4" d="M9.67,61.51c-5.63,4.9-3.62,12.59-1.57,17.3,1.28,2.94,7.75,7.97,8.74,7.05.59-.55-3.11-2.74-4.05-4.5-2.51-4.7-4.69-13.37-2.49-16.19,2.2-2.82,2.77-6.61-.63-3.66Z"/>
      <path class="cls-4" d="M96.91,6.39c-7.35,2.17-12.94,16.29-10.28,14.04,2.67-2.25-.68-3.41,7.37-8.68,2.91-1.91,5.66-6.17,2.91-5.36Z"/>
      <path class="cls-4" d="M170.36,59.57c-3.66,2.7-.94,6.11,1.88,3.76,2.82-2.35,2.85-7.26-1.88-3.76Z"/>
      <path class="cls-4" d="M85.36,22.89c-1.32,3.58.59,8.85.59,5.85,0-4.41.37-8.47-.59-5.85Z"/>
    </g>
  </g>
</svg>