<?xml version="1.0" encoding="UTF-8"?>
<svg id="Layer_2" data-name="Layer 2" xmlns="http://www.w3.org/2000/svg" viewBox="0 0 1285.85 1285.34" preserveAspectRatio="none">
  <defs>
    <style>
      .cls-1 {
        fill: #59fd53;
      }
    </style>
  </defs>
  <g id="Layer_1-2" data-name="Layer 1">
    <path class="cls-1" d="M1087.7,1261.4c-2.42-.12-5.06-.18-7.73-.2-8.92-.03-17.42,1.23-25.78,2.36-4.18.56-8.33,1.09-12.47,1.41-24.88,5.72-48.8,12.4-73.68-3.81-2.07-1.27-4.2-2.12-6.37-2.65-2.38-.19-4.75-.14-7.28.3-17.1,4.51-34.74,4.86-52.48,4.22-3.55-.13-7.1-.3-10.65-.48-22.73-1.39-44.74,7.19-67.71,11.96-5.74.95-10.53,0-15.31-1.91-2.55-.79-5.08-1.64-7.57-2.52-6.74-1.6-13.22-.97-19.57.42-2.12.46-4.22,1.01-6.31,1.59-23,8.04-49.03,11.48-72.24,1.79-5.8-2.42-11.43-5.66-16.88-9.77-2.77-2.95-6.6-2-9.47-2-14.35,3.81-26.79,8.58-41.15,7.63-2.87-.12-5.71-.43-8.53-.88-2.82-.44-5.62-1.02-8.41-1.67-12.1-4.92-23.89-4.53-35.53-2.06-2.91.62-5.81,1.36-8.7,2.18-14.39,10.27-29.23,13.98-44.31,12.73-3.02-.25-6.04-.7-9.08-1.33-17.51-1.44-34.91-3.47-51.81-7.12-3.38-.73-6.74-1.52-10.08-2.39-20.52-3.18-40.73-.22-60.81-2.67-3.35-.41-6.69-.97-10.05-1.7-3.39-.81-6.26-2.72-10.09-2.72-6.7.48-13.4.77-20.1.93-3.35.08-6.71.12-10.16.26-2.68.21-5.3.62-7.89,1.16-2.59.54-5.14,1.22-7.67,1.97-18.29,3.31-33.6,24.29-52.74,17.62-5.26-1.91-10.05-5.01-14.83-8.34-4.78-3.34-9.57-6.91-14.83-9.77-5.74-2.86-10.53-12.4-15.31-9.53-16.75,9.53-33.49,14.6-49.63,11.91-3.29-.48-6.57-1.26-10.08-2.07-6.62-.06-12.91-.76-18.89-2.05-2.99-.64-5.9-1.44-8.73-2.37-9.92-5.57-24.69-3.83-37.7-4.62-3.25-.2-6.39-.56-9.32-1.23-9.38-2.64-19.81-6.83-28.49-12.85-2.17-1.51-4.23-3.13-6.14-4.87-9.62-11.42-31.4-14.27-39.68-24.64-1.38-1.73-2.38-3.66-2.93-5.87-3.72-16.18,4.89-29.53,11.59-42.88,1.44-3.34,1.2-6.67.48-10.01-8.9-18.02-20.73-35.87-21.32-53.45-.1-2.93.1-5.85.49-8.86,1.57-12.94-1-26.33-.97-39.1,0-3.19.18-6.35.26-9.46-18.08-27.51-8.03-46.98,13.08-58.8,3.02-1.71,6.26-3.25,9.68-4.67,8.83-4.44,19.35-5.4,27.96-10.16,6.7-2.86,18.18-13.35,7.66-20.02-17.22-9.53-44.02-12.4-38.54-37.7-.04-2.07-.05-4.17-.06-6.28v-19.58c0-2.26,0-4.51,0-6.79.19-20.15.27-39.88.23-59.65,0-3.29-.02-6.59.3-9.9,1.71-13.61,14.15-22.19,17.98-34.59,3.83-14.3-12.44-21.93-17.15-33.19-.61-2.53-.95-5.07-1.36-7.62v-54.14c0-6.05,0-12.12-.19-18.04-1.4-2.37-1.4-5.23-2.35-6.19-10.53-8.58-34.45-8.58-29.66-25.74.96-3.24,2.05-6.42,3.24-9.54-1.32-33.37,15.9-59.11,28.32-89.12.32-3,.48-5.95.65-8.89v-24.14c0-3.99,0-7.96-.1-11.9-10.08-16.82-17.21-34.19-16.15-51.24.35-5.68,1.62-11.33,3.58-16.84,1.71-2.86,3.52-5.72,4.91-8.46,1.38-2.74,2.34-5.36,2.35-7.75,2.86-25.74,29.66-32.42,47.84-46.72,4.78-3.81,1.91-9.53-1.91-13.35-14.35-10.49-37.32-12.4-40.3-32.45-.19-2.78-.21-5.52-.21-8.22v-38.3c.16-2.21.29-4.37.51-6.43,3.65-19.49,28.52-15.67,39.05-29.98.96-1.91.96-3.81,0-5.72-1.67-2.38-3.56-4.66-5.56-6.88-1.95-2.34-4.02-4.62-6.07-6.99-15.54-17.5-25.6-44.58-25.58-69.6,0-3.57.21-7.11.64-10.56,2.13-14.67,4.05-33.74,17.44-39.46,11.16-5.56,26.31-.53,37.5-7.47,2.24-1.39,4.32-3.25,6.17-5.78,8.78-5.77,13.17-14.61,17.4-23.57,1.41-2.99,2.76-6.04,3.99-9.33,6.69-12.97-2.87-29.18,7.65-41.57.96-1.91,4.78.95,7.66,1.91,23.92,13.35,46.89,34.33,75.81,34.73,3.07-.03,6.06-.14,9.06-.27,3-.14,6.02-.32,8.49-.82,2.33-.25,4.24-1.21,5.2-3.11,1.91-13.35,18.18-15.26,28.71-14.3,37.32,3.81,69.85,27.65,108.15,25.35,2.2-.33,4.29-1.09,6.36-1.94,6.12-2.67,12.04-6.25,18.5-3.39,20.09,8.34,43.12,14.09,65.72,13.9,3.27-.03,6.53-.18,9.82-.45,17.63-.92,34.48-6.87,49.32-17.29,2.12-1.49,4.2-3.07,6.23-4.74,18.18-6.67,32.53-35.28,54.54-20.02,5.26,3.81,10.29,8.05,15.27,12.23,26.83,13.51,60.32,33.53,89.03,21.14-1.91,0-4.78,1.91-1.91,5.72,16.27,24.79,45.93,7.63,69.85,2.86,7.66-.95,15.31,3.81,22.86,2.8,2.97-.9,6.8-.9,7.76-1.85,23.92-28.6,57.41-21.93,88.33-17.33,3.41.34,6.82.75,10.21,1.2,5.94.78,11.86,1.66,17.91,2.42,21.35,1.32,42.4,1.32,64.41-2.49,5.74-1.43,10.53.95,14.77,4.61,2.12,1.83,4.12,3.97,6.04,6.13,7.89,8.33,16.5,22.63,29.9,19.77,14.35-2.86,27.75-2.86,41.15-7.63,2.63-.95,5.2-2.2,7.78-3.51,2.57-1.31,5.15-2.68,7.79-3.86,3.57-1.21,7.4-3.12,11.23-2.16,16.51,3.58,24.4,24.31,37.41,30.44,2.17,1.02,4.48,1.66,6.99,1.81,4.4,1.12,9.18.17,13.97-2.69,9.57-6.67,12.44-22.88,24.88-21.93,17.22,1.91,31.58,18.12,31.58,35.28,0,16.21,7.66,29.56,24.33,32.66,2.35.94,4.8,1.75,7.3,2.49,2.5.74,5.05,1.4,7.6,2.04,4.47.95,7.55,3.39,9.87,6.64s3.89,7.33,5.32,11.55c.84,1.84,1.62,3.69,2.35,5.57.73,3.06,1.52,6.21,2.31,9.43.77,3.27,1.54,6.6,2.26,10.01,4.69,24.49,7.56,53.1-9.66,74.07-5.74,5.72-12.44,10.49-14.35,18.12-1.44,7.87,2.51,14.66,7.71,19.77,1.73,1.71,3.61,3.22,5.47,4.53,5.95,6.21,11.7,12.89,17.22,20.38,2.05,2.82,4.05,5.68,5.95,8.58,9.49,14.47,16.52,29.82,15.33,45.91-.36,7.51-3.68,13.81-8.34,19.61-1.55,1.93-3.26,3.81-5.05,5.66-8.61,8.1-20.09,20.5-16.27,26.22,22.01,33.37,22.97,66.74-9.57,87.82-.96,1.82-1.44,3.95-1.44,5.98s.48,3.98,1.44,5.43c5.26,4.27,8.91,9.21,11.42,14.58,2.51,5.38,3.89,11.29,4.61,17.84.06,6.42.1,12.87-.22,20.28-.87,5.85-1.48,11.74-1.89,17.67s-.61,11.89-1.44,18.42c-1.09,7.79-3.66,15.48-6.03,23.15-.79,2.56-1.56,5.11-2.25,7.67-8.02,31.92-20.46,69.1,8.25,95.8,6.7,6.67,3.83,19.07,3.83,29.78v8.78c-.96,23.42,0,48.21,0,71.78v8.64c.12,3.01.09,5.97-.06,8.89-.28,2.93-.68,5.82-1.3,8.69-2.67,7.53-7.11,14.15-12.56,20.08-1.85,2.07-3.82,4.06-5.9,6.08-12.71,10.82-25.15,24.17-22.28,41.33,1.91,7.63,10.53,13.35,6.7,19.07-7.18,13.71-7.25,25.92-3.68,37.62.71,2.34,1.57,4.66,2.55,6.97,6.87,19.29,18.35,35.5,31.44,50.71,1.04,2.05,1.85,4.23,2.35,6.59.73,2.87,1.6,5.74,2.67,8.62.4,6.12.09,12.5-1.63,19.52-1.22,2.82-2.29,5.65-3.23,8.51-.94,2.86-1.75,5.73-2.46,8.62-3.24,8.77-7.31,17.23-11.43,25.67-1.59,2.93-3.18,5.86-5.1,8.91-1.79,2.07-3.72,3.96-5.75,5.72-2.26,1.78-4.54,3.43-7.36,4.99-11.54,6.06-24.47,9.07-36.05,14.21-2.32,1.03-4.58,2.14-6.76,3.38-6.87,3.38-12.89,9.58-15.87,16.9-1,2.45-1.65,5.03-1.89,7.69-.95,4.7,1.92,9.47,4.36,13.18,1.33,1.91,2.9,3.68,4.61,5.35,5.14,5.01,11.6,9.06,16.87,12.87,11.48,8.58-10.53,22.88-21.05,27.65-2.39,1.11-4.81,2.04-7.25,2.83-22.41,6.7-45.38,11.47-67.9,10.9-2.35-.03-4.71-.08-7.08-.14Z"/>
  </g>
</svg>