<?xml version="1.0" encoding="UTF-8"?>
<svg id="Layer_2" data-name="Layer 2" xmlns="http://www.w3.org/2000/svg" viewBox="0 0 228.01 158.87">
  <defs>
    <style>
      .cls-1 {
        fill: #84ee43;
      }

      .cls-2 {
        fill: #67d133;
      }

      .cls-3 {
        fill: #73de42;
      }

      .cls-4 {
        fill: #adfe7d;
      }
    </style>
  </defs>
  <g id="_Шар_1" data-name="Шар 1">
    <g>
      <path class="cls-1" d="M219.42,3.62c-6.89-2.86-26.15,1.43-37.16,4.76-11.01,3.34-29.59-.47-42.67-3.81-13.08-3.34-15.82-3.81-28.21-1.91-12.39,1.91-31.66,4.78-44.05,3.34C54.95,4.57,36.03-.95,27.43.76,22.24,1.77,4.02-4.5.17,7.43c-2.48,7.62,22.74,8.1,18.31,76.81-.46,7.15-2.76,56.29-10.33,58.69,0,0-.01,0-.02,0-2.25.74-9.81,8.76-7.54,11.92,6.19,8.58,48.5-1.32,59.18-3.34,12.39-2.34,27.08-2.45,39.17,1.46,2.35.76,4.61,1.67,6.72,2.75.31.15.6.31.9.46,2.24,1.21,5.08,1.95,8.33,2.34,2.47.3,5.19.39,8.06.33,15.35-.31,35.34-4.91,48.3-5.91,16.63-1.28,21.13,3.56,34.23,3.2,1.07-.03,2.21-.09,3.41-.19h.02c.41-.03.83-.08,1.27-.12.09,0,.19-.01.29-.03,17.21-1.91,14.45-10.01,11.01-15.27-3.43-5.25-5.5-16.69-4.82-25.28.69-8.59,1.39-17.65.69-25.76-.69-8.11-4.12-33.87-5.5-43.89-1.38-10.02,8.26-17.66,13.76-24.81,5.51-7.15.69-14.32-6.19-17.17ZM189.04,85.83v-.05c.33-7.76,1.19-16.36,2.54-25.24,2.05-13.51,3.22-27.69,8.37-23.22,5.16,4.46,6.45,29.75,9.03,42.12,2.57,12.37,3.21,34.26-8.7,39.62-3.19,1.44-5.67.34-7.48-2.68-3.19-5.31-4.35-16.58-3.76-30.55ZM162.1,143.03s-.02-.03-.03-.04c-4.01-4.94-2.23-12.8,1.59-18.68,0,0,.01-.01.01-.02,4.43-6.79,11.58-10.93,15.67-4.79,9.52,14.3,20.47,29.03-5.3,28.14-6-.21-9.79-1.99-11.94-4.61ZM174.9,94.94c2.68-2.2,5.68-.11,7.48,3.33,0,0,0,.02,0,.03,2.56,4.95,2.63,12.66-4.34,14.5-2.09.55-3.81.71-5.2.55-8.24-.92-4.71-12.85,2.05-18.41ZM158.07,24.53s0-.01,0-.02c.54-.6,1.18-.96,1.93-1.05,12.87-1.38,21.91-3.13,25.77,3.12,3.7,5.98-3.78,50.25-11.77,56.94,0,0-.01.01-.02.02-.26.21-.52.4-.78.52-.02.01-.04.03-.07.03-.08.04-.16.08-.25.11-8.37,3.13-10.95-2.24-12.88-9.38-.81-2.99-2.56-12.35-3.63-22.27t0-.01s-.01-.01,0-.02c-.01-.06-.02-.1-.01-.16-1.27-11.7-1.59-24.15,1.7-27.83ZM154.41,128.3c-1.9,12.95-3.19,20.04-13.5,19.65-7.14-.27-11.23-.14-9.94-14.43.26-2.83.56-5.47.86-8.01,0-.03.01-.05.01-.06,0,0,0-.01.01-.05,1.25-10.3,2.65-19.07,1.85-31.94-1.06-17.03.07-39.29,2.86-45.29.01-.01.01-.03.02-.05,1.17-2.47,2.63-2.09,4.33,2.7,5.8,16.29,11.53,34.16,13.5,46.22,1.96,12.06,1.9,18.31,0,31.27ZM125.22,16.31c14.19,1.19,22.55.45,21.9,10.27-.45,6.95-3.17,13.46-8.14,12.71-.07,0-.15-.02-.22-.03-.12-.02-.23-.05-.35-.08-1.94-.49-4.18-2.04-6.75-5.01-4.6-5.32-7.5-9.72-8.68-12.83-.05-.11-.09-.22-.12-.33-.06-.17-.12-.32-.16-.48-.01-.02-.01-.04-.02-.06-.86-2.86-.01-4.39,2.54-4.17ZM75.8,23.61s.01-.03.01-.05c.02-.12.05-.24.08-.37,2.79-10.75,15.87-11.72,20.24,7.15,4.36,18.86.77,45.68-5.42,54.78-2.57,3.78-4.1,3.81-5.1,1.46h0c-2.1-4.91-1.92-20.09-4.14-32.95-2.3-13.32-4.77-20.38-5.59-25.19h0c-.12-.73-.21-1.39-.25-2.02v-.05c-.06-.99-.01-1.9.17-2.77ZM44.1,111.17h0c.59-.25,1.19-.2,1.81.2.03.01.05.03.08.06,6.93,4.53,23.12,25.88-.08,31.41-11.2,2.67-7.72-29.21-1.82-31.66ZM81.21,109.08c8.84-7.53,3.44,14.9,6.38,27.47,1.53,6.54-10.08,1.53-15.24,0-5.16-1.53,0-19.95,8.86-27.47ZM50.27,75.73v-.02c1.08-14.2,3.92-27.95,4.36-34.04,1.14-15.67,11.8-21.02,15.49-13.28,3.69,7.76,14.37,27.18,5.34,68.6-3.7,16.96-7.49,24.19-11.03,25.48-5.11,1.88-9.7-8.58-12.75-19.98-2.06-7.7-2.12-17.33-1.41-26.77ZM34.4,27.7c1.61-5.23,15.18-3.67,13.65,8.82-.42,3.44-.92,9.11-1.49,15.77-1.72,19.77-4.11,48.26-7.19,52.91-.21.31-.44-.57-.71-2.38-.7-4.53-1.7-14.9-3.42-26.8-2.12-14.62-6.17-31.09-.84-48.33ZM28.9,103.71c1-6.78,2.09-10.63,3.1-11.14.9-.47,1.73,1.77,2.34,7.03.28,2.36.56,5.35.73,8.65,0,.02.01.04,0,.06.42,8.01.2,17.79-2.27,24.42-.02.06-.04.12-.07.18-.44,1.17-.96,2.25-1.57,3.2-.04.06-.07.11-.1.17-1.08,1.65-2.41,2.88-4.05,3.56-9.99,4.11,1.89-36.12,1.89-36.12ZM99.31,144.22c-4.42,1.17-7.19-6.7-8.18-17.47h0c-1.78-19.3,2.1-47.9,12.27-50.54,6.86-1.79,9.77,10,9.66,24.25-.13,18.66-5.42,41.55-13.75,43.76ZM114,53.63c-3.31-13.65-5.02-41.43,4.22-25.8.17.3.35.59.51.89,0,0,.01,0,.01.01,8.84,15.43,12.01,33.42,11.37,53.17-.18,5.55.07,10.33.35,14.51.01.14.02.28.04.41.7,10.76,1.5,17.47-4.8,22.86-8.8,7.52-6.69-45.35-11.7-66.05ZM201.17,144.1c-2.9.42-4.67-.36-5.58-1.79,0,0-.01,0-.01-.01-.07-.1-.14-.21-.19-.33-2.08-4.05,1.75-12.33,6.48-14.56.01,0,.02,0,.02-.01,1.95-.92,4.06-.79,5.97,1.12,8.38,8.4,8.52,13.39-6.69,15.58Z"/>
      <path class="cls-3" d="M48.17,39.36c-.38,3.29-.95,7.8-1.61,12.93.57-6.66,1.07-12.33,1.49-15.77,1.53-12.49-12.04-14.05-13.65-8.82-5.33,17.23-1.28,33.71.84,48.33,1.72,11.9,2.72,22.26,3.42,26.8-3.48-12.01-17.8-65.33-6.9-82.2,12.13-18.79,18.37,1.84,16.41,18.74Z"/>
      <path class="cls-2" d="M64.43,122.47c3.54-1.3,7.33-8.52,11.03-25.48,9.03-41.42-1.65-60.84-5.34-68.6-3.69-7.74-14.35-2.39-15.49,13.28-.44,6.09-3.28,19.84-4.36,34.04-.31-4.19-.41-6.89-.41-6.89,1.18-1.03,1.25-45.49,11.22-50.39,9.97-4.9,15.54,21.55,17.93,40.75,2.39,19.2-2.03,64.34-14.58,63.3Z"/>
      <path class="cls-2" d="M75.63,26.42c.04.63.13,1.3.25,2.02-.17-.4-.27-.61-.27-.61,0-.29,0-.78.02-1.41Z"/>
      <path class="cls-3" d="M101.89,61.37c-3.42,18.67-11.16,32.25-15.06,31.14-.62-.17-.96-2.43-1.22-5.93,1,2.34,2.53,2.32,5.1-1.46,6.19-9.1,9.78-35.91,5.42-54.78-4.37-18.87-17.45-17.9-20.24-7.15-.03.12-.06.24-.08.37.58-5.97,2.87-15.31,11.92-12.25,12.07,4.08,17.59,31.39,14.16,50.06Z"/>
      <path class="cls-2" d="M123.08,126.84c-4.33,3.54-6.41-9.92-7.56-38.66-1.15-28.74-11.12-42.5-7.28-60.36,3.83-17.86,9.96-1.81,9.96-1.81,0,0,.19.97.53,2.7-.16-.3-.34-.59-.51-.89-9.24-15.63-7.53,12.15-4.22,25.8,5.01,20.7,2.9,73.57,11.7,66.05,6.3-5.39,5.5-12.1,4.8-22.86.22,2,.38,3.75.46,5.19.92,16.71-3.55,21.3-7.88,24.84Z"/>
      <path class="cls-2" d="M101.89,147.23c-10.95,3.19-10.33-16.77-11.18-19.83,0,0,.15-.23.42-.64.99,10.77,3.76,18.64,8.18,17.47,8.33-2.21,13.62-25.1,13.75-43.76.49.12.82.62.94,1.54,1.21,9.28-1.16,42.03-12.11,45.23Z"/>
      <path class="cls-2" d="M154.25,144.33c-.77,4.83-11.06,10.6-19.5,6.88-8.28-3.66-3.2-24.24-2.92-25.71-.3,2.54-.6,5.19-.86,8.01-1.29,14.3,2.8,14.16,9.94,14.43,10.31.39,11.6-6.7,13.5-19.65,1.9-12.96,1.96-19.21,0-31.27-1.97-12.06-7.7-29.93-13.5-46.22-1.7-4.78-3.16-5.16-4.33-2.7,6.91-16.82,15.38,24.17,20.73,44.4,5.37,20.24-2.3,47-3.06,51.82Z"/>
      <path class="cls-2" d="M182.38,98.27c-1.8-3.45-4.8-5.54-7.48-3.33-6.76,5.56-10.29,17.5-2.05,18.41,0,0-8.93,3.72-8.64-12.93.29-16.64,14.87-10.95,18.17-2.15Z"/>
      <path class="cls-3" d="M182.92,149.34c-17.2,1.29-20.45-5.68-20.82-6.32,2.15,2.62,5.94,4.4,11.94,4.61,25.77.89,14.82-13.84,5.3-28.14-4.09-6.14-11.24-2-15.67,4.79,1.63-4.46,4.6-7.95,9.9-7.97,14.64-.03,27.07,31.7,9.35,33.02Z"/>
      <path class="cls-2" d="M204.17,147.67c-6.87-.79-7.92-4.03-8.58-5.36.91,1.43,2.68,2.2,5.58,1.79,15.21-2.19,15.07-7.18,6.69-15.58-1.91-1.91-4.02-2.05-5.97-1.12,5.08-5.19,10.79,7.15,13.32,10.79,2.52,3.64-3.46,10.36-11.04,9.49Z"/>
      <path class="cls-2" d="M205.59,119.68c-5.52,2.9-9.9,4.16-12.79-3.31,1.81,3.02,4.29,4.12,7.48,2.68,11.91-5.36,11.27-27.25,8.7-39.62-2.58-12.37-3.87-37.66-9.03-42.12-5.15-4.46-6.32,9.71-8.37,23.22-1.35,8.88-2.21,17.48-2.54,25.24-.07-2.41-.12-4.98-.15-7.7,0,0,3.48-45.68,9.72-51.52,6.24-5.85,10.28,38.19,11.91,51.52,1.62,13.32,5.01,36.38-4.93,41.6Z"/>
      <path class="cls-2" d="M172.89,84.21c.09-.03.17-.07.25-.11-.65.41-1.33.75-2.03,1.02-9.91,3.85-13.86-14.79-14.73-32.56,1.07,9.92,2.82,19.28,3.63,22.27,1.93,7.14,4.51,12.51,12.88,9.38Z"/>
      <path class="cls-3" d="M174.01,83.53c7.99-6.69,15.47-50.96,11.77-56.94-3.86-6.25-12.9-4.5-25.77-3.12-.75.08-1.39.44-1.93,1.05.25-.62,4.59-5.33,13.03-5.35,8.44-.02,15.62-3.6,17.78,5.35,2.03,8.4-.57,48.74-14.88,59.01Z"/>
      <path class="cls-2" d="M138.41,39.18c-9.08-2.07-13.84-13.25-15.43-17.83,1.18,3.11,4.08,7.51,8.68,12.83,2.57,2.97,4.81,4.51,6.75,5.01Z"/>
      <path class="cls-2" d="M138.98,39.29c4.97.76,7.69-5.75,8.14-12.71.65-9.82-7.71-9.08-21.9-10.27-2.55-.21-3.4,1.31-2.54,4.17-.22-.69-.33-1.1-.33-1.1,0-.56-3.76-4.13,3.14-6.33,6.9-2.19,25.69,2.95,26.07,7.56.39,4.58-1.05,20.78-12.58,18.68Z"/>
      <path class="cls-3" d="M39.96,144.22c-10.75-9.12,1.4-32.64,4.12-33.06h.02c-5.9,2.45-9.38,34.33,1.82,31.66,23.2-5.53,7.01-26.87.08-31.41,6.15,2.36,11.71,12.28,12.89,20.67,1.13,8.04-8.17,21.24-18.93,12.13Z"/>
      <path class="cls-2" d="M28.9,103.71s-11.88,40.23-1.89,36.12c1.64-.67,2.97-1.91,4.05-3.56-6.33,11.45-12.67,7.74-9.85-16.6,3.07-26.48,10.79-27.11,10.79-27.11-1.01.51-2.1,4.36-3.1,11.14Z"/>
      <path class="cls-2" d="M32.8,132.73c2.47-6.63,2.69-16.41,2.27-24.42.89,7.85.89,17.2-2.27,24.42Z"/>
      <path class="cls-2" d="M90.71,149.5c2.79,1.12,5.54,2.32,8.23,3.46-12.09-3.9-26.78-3.79-39.17-1.46-10.68,2.02-52.99,11.92-59.18,3.34-2.27-3.15,5.29-11.18,7.54-11.92.01,0,.02,0,.02,0,0,0-6.58,6.05,1.58,9.48,8.15,3.42,17.03,5.46,38.8,0,21.76-5.47,30.3-7.7,42.18-2.9Z"/>
      <path class="cls-2" d="M105.66,155.71c3.19,1.22,6.28,2.23,9.23,2.81-3.25-.4-6.09-1.13-8.33-2.34-.3-.16-.59-.32-.9-.46Z"/>
      <path class="cls-2" d="M205.48,156.15c-13.1.35-17.6-4.49-34.23-3.2-12.96,1-32.95,5.6-48.3,5.91.01,0,.02,0,.03,0,15.43-2.47,35.92-7.21,50.81-7.65,12.94-.39,23.66,4.63,31.69,4.96Z"/>
      <path class="cls-2" d="M210.18,155.83c-.44.05-.86.09-1.27.12.42-.08.84-.12,1.27-.12Z"/>
      <path class="cls-4" d="M2.58,4.86c-6.45,3.8,3.64,10.32,5.85,13.73,5.8,8.99,7.9,2.6,12.22-7.16C24.91,1.77,9.91.54,2.58,4.86Z"/>
      <path class="cls-4" d="M14.75,30.27c1.45,4.4,4.14,10.4,5.77,11.3,1.63.89,2.21-3.32.87-7.43-.91-2.8.46-8.69-.87-10.24-2.58-3.01-7.68.56-5.77,6.37Z"/>
      <path class="cls-4" d="M22.14,60.24c-2.93,5.46-1.83,8.36-1.62,13.16.48,10.54,4.34,20.15,5.74,14.79,2.04-7.8-.97-33.81-4.12-27.94Z"/>
      <path class="cls-4" d="M208.8,4.13c-15.45,3.27-8.29,4.22,1.52,7.95,4.62,1.76,4.42,6.8,6.72,7.46,2.58.74,7.44-3.1,8.61-5.08,2.21-3.74-5-12.84-16.85-10.33Z"/>
      <path class="cls-4" d="M176.87,85.12c6.36-2.77,7.25-13.52,8.9-11.73s-2.87,13.93-1.79,16.37c1.08,2.44,1.75,9.97,0,6.86-1.75-3.11-4.91-8.36-7.11-8.44-2.19-.07-11.86,1.28-8.81-.89,3.05-2.17,4.4-.25,8.81-2.17Z"/>
      <path class="cls-4" d="M183.98,116.5c-.33,2.2,1.21,3.7,2.77,6.19,3.12,4.97,7.59,9.94,6.33,4.7-1.89-7.87-8.77-13.1-9.11-10.9Z"/>
      <path class="cls-4" d="M147.16,46.62c2.15,8.39,6.02,13.16,6.56,17.12.54,3.96.16,16.08,2.66,15.7,5.34-.82-.52-11.53-.91-14.37-.39-2.84-2.22-18.75-3.42-20.91-1.74-3.15-5.8-1.07-4.9,2.46Z"/>
      <path class="cls-4" d="M148.56,38.19c-1.99,3.07.66,4.41,2.19,3.19,1.54-1.22,1.21-8.44-2.19-3.19Z"/>
      <path class="cls-4" d="M122.36,29.9c1.93,4.79,3.16,12,6.12,11.93,2.96-.07,1.97-2.84.66-5.36-4.17-8.04-7.96-9.5-6.78-6.57Z"/>
      <path class="cls-4" d="M117.51,20.62c.58,4.17,3.82,9.12,3.83,5.4s-4.16-7.75-3.83-5.4Z"/>
      <path class="cls-4" d="M114.89,135.53c-4.97,9.06-10.41,17.52-.89,19.48,9.53,1.96,14.13-1.81,10.1-5.51s-5.65-8.28-4.69-11.67c.96-3.39-1.94-7-4.52-2.3Z"/>
      <path class="cls-4" d="M12.25,142.99c-3.75,5.02-.11,11.22,9.15,9.41s-.91-2.4-3.16-5.09c-2.25-2.7-2.25-9.33-5.99-4.32Z"/>
      <path class="cls-4" d="M45.89,83.53c-1.86,2.57-1.65,8.18-1.35,13.77.23,4.3-.17,8.48,2.75,11.92,3.43,4.04.86-6.63.88-10.94.02-4.3.49-18.59-2.28-14.75Z"/>
      <path class="cls-4" d="M86.83,102.2c-.06,1.39.88,2.44.9,4.54.02,2.46-.84,5.98-.45,7.4.54,1.98,1.96,1.19,2.07-.74.06-.95-.47-2.47-.24-5.06.31-3.42,1.36-8.13,1.02-10.07-.62-3.56-3.08-.87-3.31,3.92Z"/>
      <path class="cls-4" d="M87.73,118.81c-.6,2.28,1.33,8.13,1.62,5.82.29-2.31-.48-10.16-1.62-5.82Z"/>
      <path class="cls-4" d="M66.73,136.55c-.35,4.03-5.99,5.63.53,5.45,6.53-.18,17.45,2.75,15.72.5s-6.93-1.88-9.73-3.73c-2.8-1.85-6.26-5.26-6.53-2.22Z"/>
      <path class="cls-4" d="M104.92,58.9c-1.57,4.04-7.65,25.23-2.03,14.29,1.55-3.01,6.78,6.87,7.75,2.84,1.85-7.66-3.21-23.61-5.72-17.13Z"/>
    </g>
  </g>
</svg>