<?xml version="1.0" encoding="UTF-8"?>
<svg id="Layer_2" data-name="Layer 2" xmlns="http://www.w3.org/2000/svg" viewBox="0 0 814.28 730.71">
  <defs>
    <style>
      .cls-1 {
        opacity: .4;
      }

      .cls-2 {
        fill: #57fb4c;
      }
    </style>
  </defs>
  <g id="Layer_1-2" data-name="Layer 1">
    <g>
      <path class="cls-2" d="M399,208.14c-81.5,0-147.58,66.07-147.58,147.58s66.08,147.58,147.58,147.58,147.58-66.08,147.58-147.58-66.07-147.58-147.58-147.58ZM501.17,410.46l-48.87,8.56c-1.35,4.34-2.65,8.56-3.91,12.61l49.35-8.64-7.37,20.87-48.37,8.46c-3.89,12.6-6.38,20.7-6.38,20.7l-34.07,5.96s-5.09-6.77-13.03-17.3l-48.37,8.47-14.02-17.12,49.34-8.64c-2.55-3.38-5.21-6.91-7.95-10.53l-48.88,8.55-14.02-17.12,49.84-8.72c-6.84-9.04-13.79-18.21-20.37-26.88l21.1-3.69c5.32,5.5,13.19,8.35,21.29,6.93,3.8-.66,7.22-2.19,10.12-4.34l-28.67-38.21c-5.37,4.08-8.86,10.33-9.38,17.21l-27.6,4.83c-9.48-12.45-17.13-22.41-20.88-27.12-15.86-19.95-22.42-36.8-10.66-60.91,11.76-24.11,53.37-24.87,53.37-24.87l41.4,56.44,12.4-2.18,19.78-67.14s39.39-13.42,58.63,5.26c19.25,18.69,18.81,36.77,10.67,60.92-1.93,5.7-5.74,17.66-10.43,32.59l-27.6,4.83c-2.82-6.28-8.23-10.98-14.66-12.99l-13.99,45.67c3.45,1.05,7.19,1.32,10.99.65,8.1-1.42,14.54-6.77,17.67-13.75l21.1-3.7c-3.25,10.4-6.67,21.38-10.03,32.2l49.84-8.72-7.38,20.86Z"/>
      <g class="cls-1">
        <path class="cls-2" d="M33.31,495.43c-69.24-66.19-20.63-141.65,55.45-77.6,76.08,64-3.71,127.03-55.45,77.6Z"/>
        <path class="cls-2" d="M601.38,615.39c7.93,33.29-18.83,93.27-72.17,108.43-68.58,19.5-86-5.12-70.96-39.66.08-.2.16-.35.16-.43.04-.04.04-.08.08-.16,11.49-25.83,41.07-57.09,80.92-79.48,36.85-20.67,56.78-10.35,61.97,11.29Z"/>
        <path class="cls-2" d="M642.17,645.4c-35.25-12.97-31.49-46.89,6.33-32.9,39.58,14.57,24.7,44.27-6.33,32.9Z"/>
        <path class="cls-2" d="M675.42,206.01c4.88-9.85,14.34-21.49,22.94-30.44,5.27-5.47,10.47-6.21,14.85-3.99h.04c13.68,6.88,19.07,42.32-8.13,50.29-33.92,10-37.2-.78-29.7-15.86Z"/>
        <path class="cls-2" d="M659.36,422.21c66.9-18.09,204.28-29.74,136.72-111.67-33.41-40.56-68.26-44.12-99.44-42.79-26.06,1.09-49.55,5.66-67.52-5.12t-.08-.04c-3.95-2.38-7.62-5.51-11.02-9.57-37.08-44.66,120.47-70.41,69.16-193.66-13.63-32.86-30.16-49.86-47.67-56.22-1.41-.51-2.85-.98-4.3-1.37-.08-.04-.15-.08-.23-.08-1.13-.31-2.31-.55-3.48-.78-7.19-1.37-14.46-1.13-21.72.35-1.33.27-2.62.59-3.95.98h-.08s-.08,0-.08.04c-6.95,1.87-13.83,4.84-20.59,8.63-.08.04-.16.12-.23.16-1.65.9-3.25,1.83-4.89,2.89-27.66,17.19-52.44,46.58-66.58,66.78,2.62-4.1,0-1.68-4.38,6.05-31.45,41.62-68.22,41.11-84.05,24.66-16.37-17.07,25.91-70.53-36.45-97.61-62.37-27.08-80.07,42.24-62.84,84.25,17.24,42-20.39,89.2-106.16,34.93-7.15-4.53-14.62-8.32-22.23-11.33-31.34-12.43-65.65-12.31-96.05-2.58-.04,0-.04.04-.08.04-2.34.74-4.69,1.56-7.03,2.46-.98.35-1.96.74-2.93,1.13-7.07,2.86-13.87,6.22-20.28,10.12-1.33.78-2.66,1.64-3.99,2.5-1.68,1.1-3.36,2.23-5,3.44-.98.71-1.95,1.41-2.93,2.15-1.33,1.02-2.66,2.07-3.95,3.17-.97.78-1.95,1.6-2.89,2.46-.08.04-.11.08-.15.12-1.14.97-2.23,1.99-3.33,3.04-1.95,1.84-3.79,3.72-5.58,5.63-.82.9-1.61,1.76-2.39,2.66-.78.9-1.56,1.79-2.3,2.73-1.53,1.84-2.97,3.71-4.34,5.63-.7.98-1.37,1.95-2.03,2.93-2.74,4.06-5.2,8.32-7.39,12.7-.47.94-.89,1.87-1.32,2.85-.47,1.02-.94,2.03-1.37,3.09-.94,2.26-1.84,4.61-2.62,6.95v.04c-.35,1.06-.7,2.07-1.02,3.17-.11.39-.23.82-.39,1.25-.23.82-.47,1.64-.66,2.5-.2.74-.39,1.52-.55,2.27-.51,1.91-.9,3.86-1.25,5.86-.19,1.01-.35,1.99-.51,3.04-.11.9-.23,1.8-.35,2.7-.15,1.33-.31,2.62-.43,3.95-.12,1.48-.23,2.93-.27,4.41-.08,1.64-.12,3.28-.12,4.96,0,2.08.04,4.15.16,6.22,5.35,99.33,92.88,117.18,123.32,135,19.96,11.72,39.97,50.72,37.55,88.54-.04.63-.08,1.29-.16,1.96-.08.9-.16,1.79-.27,2.69-.04.39-.08.78-.12,1.14-.12.93-.23,1.83-.39,2.73-.2,1.25-.39,2.46-.66,3.67-.4,2.04-.86,3.99-1.41,5.98-.24.86-.51,1.72-.78,2.58-.67,2.15-1.41,4.22-2.27,6.29-.35.9-.74,1.8-1.17,2.7-.98,2.15-2.03,4.26-3.24,6.33-.04.04-.08.08-.08.12-.39.7-.78,1.36-1.25,2.03-.43.7-.9,1.44-1.37,2.15-.51.82-1.09,1.6-1.68,2.42-1.6,2.27-3.4,4.45-5.35,6.56-1.53,1.69-3.17,3.33-4.93,4.93-17.58,16.06-56.11,48.18-58.88,80.57v.12c-.43,5.16.04,10.27,1.64,15.35,2.3,7.35,6.95,14.54,14.57,21.46,15.91,14.37,30.32,20.08,44,20.08.86,0,1.72-.04,2.58-.08.9-.04,1.8-.12,2.7-.23.74-.04,1.44-.16,2.18-.24.32-.08.63-.11.94-.15,1.41-.24,2.78-.55,4.14-.86.08-.04.16-.04.28-.08,1.6-.39,3.24-.9,4.84-1.45.78-.27,1.53-.54,2.31-.82.04-.04.12-.04.15-.08h.04c.2-.07.36-.15.55-.23.66-.23,1.37-.51,2.03-.82.63-.27,1.21-.55,1.84-.82,6.76-3.09,13.4-7.27,20.01-12.04.85-.62,1.71-1.25,2.57-1.91,1.1-.82,2.19-1.68,3.33-2.54,1.09-.86,2.22-1.72,3.32-2.62,11.99-9.57,24.07-20.55,36.69-30.36.7-.55,1.37-1.09,2.07-1.6,7.62-5.82,15.47-11.14,23.68-15.44.74-.39,1.48-.78,2.26-1.13,4.5-2.27,9.11-4.18,13.84-5.67,41.61-13.16,70.25,9.19,72.91,42.24,6.84,85.23,61.39,96.75,90.85,50.76,29.42-46.03,71.78-79.98,141.06-81.74,1.4-.04,2.77-.08,4.14-.16,4.1-.15,8.01-.47,11.72-.9,1.25-.11,2.46-.27,3.67-.43,2.15-.27,4.22-.58,6.26-.93.47-.08.93-.16,1.4-.28.9-.15,1.76-.31,2.62-.51,2.19-.43,4.26-.89,6.29-1.44.98-.28,2-.55,2.97-.82,2.07-.59,4.07-1.25,5.94-1.92,1.68-.62,3.32-1.25,4.85-1.91.86-.35,1.68-.74,2.46-1.1,1.52-.7,2.97-1.4,4.34-2.18.11-.04.23-.12.35-.16.7-.39,1.4-.82,2.07-1.21,1.52-.9,2.97-1.84,4.37-2.81.51-.36,1.06-.75,1.57-1.14,3.08-2.3,5.82-4.77,8.2-7.38.43-.47.86-.94,1.25-1.45.47-.51.9-1.01,1.29-1.56.86-1.06,1.64-2.11,2.39-3.21.35-.54.7-1.09,1.05-1.64.12-.19.27-.39.39-.58.67-1.1,1.29-2.19,1.88-3.32.08-.16.15-.32.23-.51.59-1.1,1.1-2.19,1.57-3.32.5-1.22.97-2.43,1.4-3.68.43-1.17.82-2.38,1.14-3.59.03-.08.03-.12.07-.2.32-1.17.63-2.38.86-3.59.24-.98.39-1.99.59-2.97.19-1.17.35-2.35.47-3.48.08-.59.15-1.17.19-1.72.08-.94.16-1.87.2-2.81.55-9.97-9.97-22.94-20.67-36.34-6.68-8.32-13.44-16.8-17.62-24.81-8.05-15.28-6.92-28.88,21.29-36.5ZM399,503.3c-81.5,0-147.58-66.08-147.58-147.58s66.08-147.58,147.58-147.58,147.58,66.07,147.58,147.58-66.07,147.58-147.58,147.58Z"/>
      </g>
    </g>
  </g>
</svg>